<?xml version="1.0" encoding="UTF-8"?>
<svg width="42px" height="42px" viewBox="0 0 42 42" version="1.1" xmlns="http://www.w3.org/2000/svg" xmlns:xlink="http://www.w3.org/1999/xlink">
    <!-- Generator: Sketch 48.2 (47327) - http://www.bohemiancoding.com/sketch -->
    <title>Artboard</title>
    <desc>Created with Sketch.</desc>
    <defs></defs>
    <g id="Page-1" stroke="none" stroke-width="1" fill="none" fill-rule="evenodd">
        <g id="Artboard">
            <g id="logo.svg-copy-5" fill-rule="nonzero">
                <path d="M42,21 C42,32.5980916 32.5980916,42 21,42 C9.4019084,42 0,32.5980916 0,21 C0,9.4019084 9.4019084,0 21,0 C32.5980916,0 42,9.4019084 42,21" id="Fill-1" fill="#247EC3"></path>
                <path d="M20.7992977,8.9790229 L24.7665344,11.2697863 L24.7665344,15.8506718 L20.7992977,18.1414351 L16.8320611,15.8506718 L16.8320611,11.2697863 L20.7992977,8.9790229 M20.7992977,6.59047328 L14.7631603,10.0751908 L14.7631603,17.0449466 L20.7992977,20.5299847 L26.8351145,17.0449466 L26.8351145,10.0751908 L20.7992977,6.59047328" id="Fill-2" fill="#FFFFFF"></path>
                <path d="M28.0194504,21.294 L31.986687,23.5844427 L31.986687,28.1653282 L28.0194504,30.4560916 L24.0522137,28.1653282 L24.0522137,23.5844427 L28.0194504,21.294 M28.0194504,18.9051298 L21.983313,22.3901679 L21.983313,29.3599237 L28.0194504,32.8446412 L34.0552672,29.3599237 L34.0552672,22.3901679 L28.0194504,18.9051298" id="Fill-3" fill="#FFFFFF"></path>
                <path d="M13.9805496,21.294 L17.9477863,23.5844427 L17.9477863,28.1653282 L13.9805496,30.4560916 L10.013313,28.1653282 L10.013313,23.5844427 L13.9805496,21.294 M13.9805496,18.9051298 L7.94473282,22.3901679 L7.94473282,29.3599237 L13.9805496,32.8446412 L20.016687,29.3599237 L20.016687,22.3901679 L13.9805496,18.9051298" id="Fill-4" fill="#FFFFFF"></path>
            </g>
            <rect id="Rectangle-Copy-8" fill="#00477B" x="0" y="0" width="42" height="42"></rect>
            <polygon id="Path-2-Copy-4" fill="#000000" opacity="0.200000003" points="29.6915021 14 42.002025 25.4939369 42.002025 41.5063896 20.5564729 41.5063896 12 25.4939369 17.0439273 26.8603336 20.8989408 26.8603336 22.1697062 17.6108368 22.1697062 14.7956408"></polygon>
            <text id="Ui-Copy-3" font-family="OpenSans-Bold, Open Sans" font-size="20" font-weight="bold" fill="#FFFFFF">
                <tspan x="10" y="29">Ui</tspan>
            </text>
        </g>
    </g>
</svg>