<svg width="120" height="120" viewBox="0 0 120 120" fill="none" xmlns="http://www.w3.org/2000/svg">
<path fill-rule="evenodd" clip-rule="evenodd" d="M107.663 91.2725C97.4747 106.769 79.9321 117 60 117C28.5198 117 3 91.4802 3 60C3 28.5198 28.5198 3 60 3C91.4802 3 117 28.5198 117 60C117 68.1806 115.277 75.9588 112.173 82.9912H115.437C118.377 75.9103 120 68.1447 120 60C120 26.8629 93.1371 0 60 0C26.8629 0 0 26.8629 0 60C0 93.1371 26.8629 120 60 120C81.4567 120 100.283 108.737 110.889 91.8008H107.663V91.2725Z" fill="#FECD76"/>
<path d="M30 66.5231V49.4584C30 45.0401 33.5817 41.4584 38 41.4584H81M81 41.4584L71.6422 32M81 41.4584L71.6422 50.9167" stroke="#FECD76" stroke-width="3"/>
<path d="M91 53.4613L91 70.526C91 74.9443 87.4183 78.526 83 78.526L40 78.526M40 78.526L49.3578 87.9844M40 78.526L49.3578 69.0676" stroke="#FECD76" stroke-width="3"/>
</svg>
