<svg width="160" height="160" viewBox="0 0 160 160" fill="none"
    xmlns="http://www.w3.org/2000/svg">
    <path fill-rule="evenodd" clip-rule="evenodd" d="M144.284 122.401C130.506 143.248 106.859 157 80 157C37.4741 157 3 122.526 3 80C3 37.4741 37.4741 3 80 3C122.526 3 157 37.4741 157 80C157 90.8949 154.737 101.261 150.656 110.655H153.916C157.836 101.214 160 90.8596 160 80C160 35.8172 124.183 0 80 0C35.8172 0 0 35.8172 0 80C0 124.183 35.8172 160 80 160C108.609 160 133.71 144.983 147.852 122.401H144.284Z" fill="#FED68E"/>
    <path d="M40 88.6976V63.278C40 58.8597 43.5817 55.278 48 55.278H108M108 55.278L95.5229 42.6668M108 55.278L95.5229 67.8891" stroke="#FED68E" stroke-width="4"/>
    <path d="M121.333 71.2816L121.333 96.7012C121.333 101.119 117.751 104.701 113.333 104.701L53.3328 104.701M53.3328 104.701L65.8099 117.312M53.3328 104.701L65.8099 92.09" stroke="#FED68E" stroke-width="4"/>
</svg>



