<svg width="1914" height="1289" viewBox="0 0 1914 1289" fill="none" xmlns="http://www.w3.org/2000/svg">
<path d="M124.999 644.701L769.233 0.467484L1413.47 644.701L124.999 644.701Z" fill="url(#paint0_linear_385_90629)"/>
<path d="M249.999 644.701L894.233 0.467484L1538.47 644.701L249.999 644.701Z" fill="url(#paint1_linear_385_90629)"/>
<path d="M0.233535 644.701L644.467 0.467484L1288.7 644.701L0.233535 644.701Z" fill="url(#paint2_linear_385_90629)"/>
<path d="M374.999 644.701L1019.23 0.467484L1663.47 644.701L374.999 644.701Z" fill="url(#paint3_linear_385_90629)"/>
<path d="M499.999 644.701L1144.23 0.467484L1788.47 644.701L499.999 644.701Z" fill="url(#paint4_linear_385_90629)"/>
<path d="M624.999 644.701L1269.23 0.467484L1913.47 644.701L624.999 644.701Z" fill="url(#paint5_linear_385_90629)"/>
<path d="M1788.47 644.234L1144.23 1288.47L500 644.234H1788.47Z" fill="url(#paint6_linear_385_90629)"/>
<path d="M1663.47 644.234L1019.23 1288.47L375 644.234H1663.47Z" fill="url(#paint7_linear_385_90629)"/>
<path d="M1913.47 644.234L1269.23 1288.47L625 644.234H1913.47Z" fill="url(#paint8_linear_385_90629)"/>
<path d="M1538.47 644.234L894.234 1288.47L250 644.234H1538.47Z" fill="url(#paint9_linear_385_90629)"/>
<path d="M1413.47 644.234L769.234 1288.47L125 644.234H1413.47Z" fill="url(#paint10_linear_385_90629)"/>
<path d="M1288.47 644.234L644.234 1288.47L0.000191004 644.234H1288.47Z" fill="url(#paint11_linear_385_90629)"/>
<defs>
<linearGradient id="paint0_linear_385_90629" x1="758.189" y1="644.701" x2="1413.47" y2="644.701" gradientUnits="userSpaceOnUse">
<stop stop-color="#00314C" stop-opacity="0.1"/>
<stop offset="1" stop-color="#00314C" stop-opacity="0.25"/>
</linearGradient>
<linearGradient id="paint1_linear_385_90629" x1="883.189" y1="644.701" x2="1538.47" y2="644.701" gradientUnits="userSpaceOnUse">
<stop stop-color="#00314C" stop-opacity="0.1"/>
<stop offset="1" stop-color="#00314C" stop-opacity="0.25"/>
</linearGradient>
<linearGradient id="paint2_linear_385_90629" x1="633.423" y1="644.701" x2="1288.7" y2="644.701" gradientUnits="userSpaceOnUse">
<stop stop-color="#00314C" stop-opacity="0.1"/>
<stop offset="1" stop-color="#00314C" stop-opacity="0.25"/>
</linearGradient>
<linearGradient id="paint3_linear_385_90629" x1="1008.19" y1="644.701" x2="1663.47" y2="644.701" gradientUnits="userSpaceOnUse">
<stop stop-color="#00314C" stop-opacity="0.1"/>
<stop offset="1" stop-color="#00314C" stop-opacity="0.25"/>
</linearGradient>
<linearGradient id="paint4_linear_385_90629" x1="1133.19" y1="644.701" x2="1788.47" y2="644.701" gradientUnits="userSpaceOnUse">
<stop stop-color="#00314C" stop-opacity="0.1"/>
<stop offset="1" stop-color="#00314C" stop-opacity="0.25"/>
</linearGradient>
<linearGradient id="paint5_linear_385_90629" x1="1258.19" y1="644.701" x2="1913.47" y2="644.701" gradientUnits="userSpaceOnUse">
<stop stop-color="#00314C" stop-opacity="0.1"/>
<stop offset="1" stop-color="#00314C" stop-opacity="0.25"/>
</linearGradient>
<linearGradient id="paint6_linear_385_90629" x1="1155.28" y1="644.234" x2="500" y2="644.234" gradientUnits="userSpaceOnUse">
<stop stop-color="#00314C" stop-opacity="0.1"/>
<stop offset="1" stop-color="#00314C" stop-opacity="0.25"/>
</linearGradient>
<linearGradient id="paint7_linear_385_90629" x1="1030.28" y1="644.234" x2="375" y2="644.234" gradientUnits="userSpaceOnUse">
<stop stop-color="#00314C" stop-opacity="0.1"/>
<stop offset="1" stop-color="#00314C" stop-opacity="0.25"/>
</linearGradient>
<linearGradient id="paint8_linear_385_90629" x1="1280.28" y1="644.234" x2="625" y2="644.234" gradientUnits="userSpaceOnUse">
<stop stop-color="#00314C" stop-opacity="0.1"/>
<stop offset="1" stop-color="#00314C" stop-opacity="0.25"/>
</linearGradient>
<linearGradient id="paint9_linear_385_90629" x1="905.278" y1="644.234" x2="250" y2="644.234" gradientUnits="userSpaceOnUse">
<stop stop-color="#00314C" stop-opacity="0.1"/>
<stop offset="1" stop-color="#00314C" stop-opacity="0.25"/>
</linearGradient>
<linearGradient id="paint10_linear_385_90629" x1="780.278" y1="644.234" x2="125" y2="644.234" gradientUnits="userSpaceOnUse">
<stop stop-color="#00314C" stop-opacity="0.1"/>
<stop offset="1" stop-color="#00314C" stop-opacity="0.25"/>
</linearGradient>
<linearGradient id="paint11_linear_385_90629" x1="655.278" y1="644.234" x2="0.000194666" y2="644.234" gradientUnits="userSpaceOnUse">
<stop stop-color="#00314C" stop-opacity="0.1"/>
<stop offset="1" stop-color="#00314C" stop-opacity="0.25"/>
</linearGradient>
</defs>
</svg>
