<svg width="12" height="18" viewBox="0 0 12 18" fill="none" xmlns="http://www.w3.org/2000/svg">
<g clip-path="url(#clip0_1191_96420)">
<path d="M6 9C6 8.20434 6.31607 7.44129 6.87868 6.87868C7.44129 6.31607 8.20434 6 9 6C9.79566 6 10.5587 6.31607 11.1213 6.87868C11.6839 7.44129 12 8.20434 12 9C12 9.79566 11.6839 10.5587 11.1213 11.1213C10.5587 11.6839 9.79566 12 9 12C8.20434 12 7.44129 11.6839 6.87868 11.1213C6.31607 10.5587 6 9.79566 6 9Z" fill="#1ABCFE"/>
<path d="M0 15C0 14.2043 0.316071 13.4413 0.878681 12.8787C1.44129 12.3161 2.20435 12 3 12H6V15C6 15.7957 5.68393 16.5587 5.12132 17.1213C4.55871 17.6839 3.79566 18 3 18C2.20435 18 1.44129 17.6839 0.878681 17.1213C0.316071 16.5587 0 15.7957 0 15Z" fill="#0ACF83"/>
<path d="M6 0V6H9C9.79566 6 10.5587 5.68393 11.1213 5.12132C11.6839 4.55871 12 3.79566 12 3C12 2.20435 11.6839 1.44129 11.1213 0.878681C10.5587 0.316071 9.79566 0 9 0H6Z" fill="#FF7262"/>
<path d="M0 3C0 3.79566 0.316071 4.55871 0.878681 5.12132C1.44129 5.68393 2.20435 6 3 6H6V0H3C2.20435 0 1.44129 0.316071 0.878681 0.878681C0.316071 1.44129 0 2.20435 0 3Z" fill="#F24E1E"/>
<path d="M0 9C0 9.79566 0.316071 10.5587 0.878681 11.1213C1.44129 11.6839 2.20435 12 3 12H6V6H3C2.20435 6 1.44129 6.31607 0.878681 6.87868C0.316071 7.44129 0 8.20434 0 9Z" fill="#A259FF"/>
</g>
<defs>
<clipPath id="clip0_1191_96420">
<rect width="12" height="18" fill="white"/>
</clipPath>
</defs>
</svg>
