<svg width="748" height="747" viewBox="0 0 748 747" fill="none" xmlns="http://www.w3.org/2000/svg">
<g opacity="0.7" filter="url(#filter0_f_385_91471)">
<ellipse cx="373.951" cy="373.5" rx="323.951" ry="323.5" fill="url(#paint0_radial_385_91471)" fill-opacity="0.2"/>
</g>
<g opacity="0.7" filter="url(#filter1_f_385_91471)">
<circle cx="374.063" cy="373.466" r="218.475" fill="url(#paint1_radial_385_91471)" fill-opacity="0.3"/>
</g>
<mask id="path-3-inside-1_385_91471" fill="white">
<path fill-rule="evenodd" clip-rule="evenodd" d="M415.334 413.482C389.014 439.802 360.584 458.961 335.931 468.683C323.602 473.544 312.264 476.028 302.631 475.9C293.005 475.772 285.151 473.04 279.654 467.543C274.158 462.047 271.426 454.192 271.298 444.566C271.17 434.934 273.653 423.595 278.515 411.267C288.237 386.613 307.396 358.184 333.716 331.864C339.646 325.933 345.684 320.366 351.762 315.189L350.914 314.597C344.882 319.745 338.892 325.273 333.008 331.157C280.222 383.943 256.018 445.322 278.947 468.25C301.876 491.179 363.255 466.975 416.041 414.189C468.827 361.403 493.031 300.024 470.102 277.096C452.953 259.946 414.294 269.164 373.809 296.986L374.685 297.597C387.943 288.516 400.988 281.447 413.119 276.664C425.447 271.802 436.785 269.318 446.418 269.447C456.044 269.575 463.898 272.306 469.395 277.803C474.891 283.299 477.623 291.154 477.751 300.78C477.879 310.412 475.396 321.751 470.534 334.079C460.812 358.733 441.653 387.163 415.334 413.482Z"/>
</mask>
<path fill-rule="evenodd" clip-rule="evenodd" d="M415.334 413.482C389.014 439.802 360.584 458.961 335.931 468.683C323.602 473.544 312.264 476.028 302.631 475.9C293.005 475.772 285.151 473.04 279.654 467.543C274.158 462.047 271.426 454.192 271.298 444.566C271.17 434.934 273.653 423.595 278.515 411.267C288.237 386.613 307.396 358.184 333.716 331.864C339.646 325.933 345.684 320.366 351.762 315.189L350.914 314.597C344.882 319.745 338.892 325.273 333.008 331.157C280.222 383.943 256.018 445.322 278.947 468.25C301.876 491.179 363.255 466.975 416.041 414.189C468.827 361.403 493.031 300.024 470.102 277.096C452.953 259.946 414.294 269.164 373.809 296.986L374.685 297.597C387.943 288.516 400.988 281.447 413.119 276.664C425.447 271.802 436.785 269.318 446.418 269.447C456.044 269.575 463.898 272.306 469.395 277.803C474.891 283.299 477.623 291.154 477.751 300.78C477.879 310.412 475.396 321.751 470.534 334.079C460.812 358.733 441.653 387.163 415.334 413.482Z" fill="#8DCDD1"/>
<path d="M335.931 468.683L335.197 466.822L335.931 468.683ZM415.334 413.482L413.919 412.068L415.334 413.482ZM302.631 475.9L302.605 477.899L302.631 475.9ZM279.654 467.543L278.24 468.958L279.654 467.543ZM271.298 444.566L269.298 444.593L269.298 444.593L271.298 444.566ZM278.515 411.267L276.655 410.533L278.515 411.267ZM333.716 331.864L335.13 333.278L333.716 331.864ZM351.762 315.189L352.906 313.549L355.031 315.031L353.059 316.711L351.762 315.189ZM350.914 314.597L349.616 313.076L350.791 312.073L352.059 312.957L350.914 314.597ZM278.947 468.25L277.533 469.665L277.533 469.665L278.947 468.25ZM416.041 414.189L417.455 415.603L416.041 414.189ZM470.102 277.096L471.516 275.681L470.102 277.096ZM373.809 296.986L372.664 298.626L370.296 296.973L372.676 295.338L373.809 296.986ZM374.685 297.597L375.815 299.247L374.674 300.029L373.54 299.238L374.685 297.597ZM413.119 276.664L413.852 278.524L413.119 276.664ZM446.418 269.447L446.391 271.446L446.418 269.447ZM469.395 277.803L467.981 279.217L469.395 277.803ZM477.751 300.78L479.751 300.753L477.751 300.78ZM470.534 334.079L468.674 333.345L470.534 334.079ZM335.197 466.822C359.54 457.223 387.747 438.241 413.919 412.068L416.748 414.896C390.282 441.363 361.629 460.699 336.664 470.543L335.197 466.822ZM302.658 473.9C311.949 474.023 323.021 471.624 335.197 466.822L336.664 470.543C324.184 475.465 312.579 478.032 302.605 477.899L302.658 473.9ZM281.068 466.129C286.094 471.154 293.387 473.776 302.658 473.9L302.605 477.899C292.624 477.767 284.208 474.925 278.24 468.958L281.068 466.129ZM273.298 444.54C273.421 453.811 276.043 461.104 281.068 466.129L278.24 468.958C272.272 462.99 269.431 454.574 269.298 444.593L273.298 444.54ZM280.376 412.001C275.574 424.177 273.174 435.249 273.298 444.54L269.298 444.593C269.166 434.619 271.733 423.014 276.655 410.533L280.376 412.001ZM335.13 333.278C308.957 359.451 289.975 387.657 280.376 412.001L276.655 410.533C286.499 385.569 305.835 356.916 332.301 330.45L335.13 333.278ZM353.059 316.711C347.022 321.854 341.023 327.385 335.13 333.278L332.301 330.45C338.269 324.482 344.346 318.879 350.465 313.666L353.059 316.711ZM352.059 312.957L352.906 313.549L350.617 316.829L349.769 316.237L352.059 312.957ZM352.212 316.119C346.221 321.232 340.269 326.724 334.423 332.571L331.594 329.743C337.515 323.822 343.543 318.258 349.616 313.076L352.212 316.119ZM334.423 332.571C308.176 358.817 289.106 387.135 279.445 411.634C274.614 423.886 272.172 435.091 272.298 444.553C272.424 454.002 275.101 461.576 280.361 466.836L277.533 469.665C271.329 463.461 268.434 454.764 268.298 444.606C268.163 434.461 270.773 422.723 275.724 410.166C285.63 385.047 305.055 356.282 331.594 329.743L334.423 332.571ZM280.361 466.836C285.622 472.097 293.196 474.774 302.645 474.9C312.106 475.026 323.311 472.584 335.564 467.752C360.062 458.092 388.38 439.021 414.627 412.775L417.455 415.603C390.915 442.143 362.151 461.568 337.031 471.473C324.475 476.425 312.737 479.034 302.591 478.899C292.433 478.764 283.737 475.868 277.533 469.665L280.361 466.836ZM414.627 412.775C440.873 386.529 459.943 358.211 469.604 333.712C474.435 321.46 476.877 310.255 476.751 300.793C476.625 291.345 473.949 283.771 468.688 278.51L471.516 275.681C477.72 281.885 480.616 290.582 480.751 300.74C480.886 310.885 478.277 322.623 473.325 335.18C463.419 360.299 443.995 389.064 417.455 415.603L414.627 412.775ZM468.688 278.51C460.824 270.646 447.732 268.55 431.128 272.132C414.593 275.698 395.048 284.817 374.941 298.634L372.676 295.338C393.055 281.333 413.082 271.932 430.285 268.221C447.419 264.526 462.231 266.396 471.516 275.681L468.688 278.51ZM373.54 299.238L372.664 298.626L374.953 295.346L375.83 295.957L373.54 299.238ZM413.852 278.524C401.885 283.243 388.973 290.234 375.815 299.247L373.555 295.947C386.913 286.797 400.09 279.651 412.385 274.803L413.852 278.524ZM446.391 271.446C437.101 271.323 426.029 273.722 413.852 278.524L412.385 274.803C424.865 269.881 436.47 267.314 446.444 267.447L446.391 271.446ZM467.981 279.217C462.956 274.192 455.662 271.57 446.391 271.446L446.444 267.447C456.425 267.58 464.841 270.421 470.809 276.389L467.981 279.217ZM475.751 300.806C475.628 291.536 473.006 284.242 467.981 279.217L470.809 276.389C476.777 282.356 479.618 290.772 479.751 300.753L475.751 300.806ZM468.674 333.345C473.475 321.169 475.875 310.097 475.751 300.806L479.751 300.753C479.884 310.728 477.316 322.332 472.395 334.813L468.674 333.345ZM413.919 412.068C440.092 385.895 459.074 357.689 468.674 333.345L472.395 334.813C462.55 359.777 443.214 388.43 416.748 414.896L413.919 412.068Z" fill="#A2D9DA" mask="url(#path-3-inside-1_385_91471)"/>
<mask id="path-5-inside-2_385_91471" fill="white">
<path fill-rule="evenodd" clip-rule="evenodd" d="M278.512 334.076C283.241 346.068 290.202 358.952 299.134 372.053L298.526 372.936C270.944 332.615 261.859 294.179 278.944 277.093C301.873 254.164 363.252 278.368 416.038 331.154C468.824 383.94 493.028 445.319 470.099 468.248C455.848 482.499 426.743 478.542 394.08 460.831L394.997 460.191C401.197 463.532 407.263 466.372 413.116 468.68C425.444 473.541 436.783 476.025 446.415 475.897C456.041 475.769 463.896 473.037 469.392 467.541C474.889 462.044 477.62 454.19 477.748 444.564C477.876 434.931 475.393 423.593 470.531 411.264C460.809 386.61 441.65 358.181 415.331 331.861C389.011 305.542 360.582 286.383 335.928 276.661C323.599 271.799 312.261 269.316 302.629 269.444C293.003 269.572 285.148 272.304 279.651 277.8C274.155 283.296 271.423 291.151 271.295 300.777C271.167 310.41 273.651 321.748 278.512 334.076Z"/>
</mask>
<path fill-rule="evenodd" clip-rule="evenodd" d="M278.512 334.076C283.241 346.068 290.202 358.952 299.134 372.053L298.526 372.936C270.944 332.615 261.859 294.179 278.944 277.093C301.873 254.164 363.252 278.368 416.038 331.154C468.824 383.94 493.028 445.319 470.099 468.248C455.848 482.499 426.743 478.542 394.08 460.831L394.997 460.191C401.197 463.532 407.263 466.372 413.116 468.68C425.444 473.541 436.783 476.025 446.415 475.897C456.041 475.769 463.896 473.037 469.392 467.541C474.889 462.044 477.62 454.19 477.748 444.564C477.876 434.931 475.393 423.593 470.531 411.264C460.809 386.61 441.65 358.181 415.331 331.861C389.011 305.542 360.582 286.383 335.928 276.661C323.599 271.799 312.261 269.316 302.629 269.444C293.003 269.572 285.148 272.304 279.651 277.8C274.155 283.296 271.423 291.151 271.295 300.777C271.167 310.41 273.651 321.748 278.512 334.076Z" fill="#8DCDD1"/>
<path d="M299.134 372.053L300.781 373.186L301.558 372.058L300.786 370.926L299.134 372.053ZM278.512 334.076L276.652 334.81L278.512 334.076ZM298.526 372.936L296.875 374.065L298.521 376.471L300.173 374.07L298.526 372.936ZM278.944 277.093L277.53 275.679L278.944 277.093ZM416.038 331.154L414.624 332.568L416.038 331.154ZM470.099 468.248L468.685 466.834L470.099 468.248ZM394.08 460.831L392.935 459.191L390.278 461.045L393.126 462.589L394.08 460.831ZM394.997 460.191L395.946 458.43L394.862 457.846L393.853 458.551L394.997 460.191ZM413.116 468.68L412.382 470.54L413.116 468.68ZM446.415 475.897L446.388 473.897L446.415 475.897ZM469.392 467.541L467.978 466.126L469.392 467.541ZM477.748 444.564L475.749 444.537L477.748 444.564ZM470.531 411.264L468.671 411.998L470.531 411.264ZM415.331 331.861L413.917 333.275L415.331 331.861ZM335.928 276.661L336.662 274.8L335.928 276.661ZM302.629 269.444L302.602 267.444L302.629 269.444ZM279.651 277.8L281.066 279.214L279.651 277.8ZM271.295 300.777L269.295 300.751L269.295 300.751L271.295 300.777ZM300.786 370.926C291.923 357.925 285.038 345.172 280.373 333.343L276.652 334.81C281.444 346.963 288.481 359.979 297.481 373.179L300.786 370.926ZM300.173 374.07L300.781 373.186L297.486 370.919L296.878 371.802L300.173 374.07ZM277.53 275.679C268.279 284.93 266.389 299.667 270.029 316.719C273.684 333.837 282.991 353.768 296.875 374.065L300.177 371.807C286.479 351.782 277.453 332.334 273.941 315.883C270.414 299.366 272.524 286.342 280.359 278.507L277.53 275.679ZM417.452 329.74C390.912 303.2 362.148 283.776 337.028 273.87C324.472 268.918 312.734 266.309 302.589 266.444C292.43 266.579 283.734 269.475 277.53 275.679L280.359 278.507C285.619 273.246 293.193 270.569 302.642 270.444C312.103 270.318 323.309 272.759 335.561 277.591C360.06 287.252 388.377 306.322 414.624 332.568L417.452 329.74ZM471.513 469.662C477.717 463.458 480.613 454.762 480.748 444.603C480.883 434.458 478.274 422.72 473.322 410.164C463.417 385.044 443.992 356.28 417.452 329.74L414.624 332.568C440.87 358.815 459.94 387.133 469.601 411.631C474.433 423.884 476.874 435.089 476.748 444.55C476.623 453.999 473.946 461.573 468.685 466.834L471.513 469.662ZM393.126 462.589C409.598 471.521 425.295 477.055 438.779 478.514C452.247 479.971 463.797 477.379 471.513 469.662L468.685 466.834C462.15 473.368 452.022 475.923 439.209 474.537C426.411 473.152 411.224 467.852 395.033 459.073L393.126 462.589ZM393.853 458.551L392.935 459.191L395.224 462.471L396.142 461.831L393.853 458.551ZM413.849 466.819C408.078 464.543 402.084 461.738 395.946 458.43L394.049 461.951C400.31 465.326 406.448 468.2 412.382 470.54L413.849 466.819ZM446.388 473.897C437.098 474.021 426.026 471.621 413.849 466.819L412.382 470.54C424.863 475.462 436.467 478.029 446.442 477.897L446.388 473.897ZM467.978 466.126C462.953 471.152 455.659 473.774 446.388 473.897L446.442 477.897C456.423 477.764 464.839 474.923 470.806 468.955L467.978 466.126ZM475.749 444.537C475.625 453.808 473.003 461.101 467.978 466.126L470.806 468.955C476.774 462.987 479.615 454.571 479.748 444.59L475.749 444.537ZM468.671 411.998C473.472 424.174 475.872 435.246 475.749 444.537L479.748 444.59C479.881 434.616 477.313 423.011 472.392 410.531L468.671 411.998ZM413.917 333.275C440.09 359.448 459.071 387.655 468.671 411.998L472.392 410.531C462.548 385.566 443.211 356.913 416.745 330.447L413.917 333.275ZM335.194 278.521C359.537 288.121 387.744 307.103 413.917 333.275L416.745 330.447C390.279 303.981 361.626 284.645 336.662 274.8L335.194 278.521ZM302.655 271.444C311.946 271.32 323.018 273.72 335.194 278.521L336.662 274.8C324.181 269.879 312.576 267.311 302.602 267.444L302.655 271.444ZM281.066 279.214C286.091 274.189 293.384 271.567 302.655 271.444L302.602 267.444C292.621 267.577 284.205 270.418 278.237 276.386L281.066 279.214ZM273.295 300.804C273.418 291.533 276.041 284.239 281.066 279.214L278.237 276.386C272.269 282.354 269.428 290.769 269.295 300.751L273.295 300.804ZM280.373 333.343C275.571 321.166 273.171 310.094 273.295 300.804L269.295 300.751C269.163 310.725 271.73 322.33 276.652 334.81L280.373 333.343Z" fill="#A2D9DA" mask="url(#path-5-inside-2_385_91471)"/>
<circle cx="374.477" cy="372.622" r="18.8825" stroke="#A2D9DA"/>
<circle cx="374.388" cy="372.583" r="7.16976" fill="#8DCDD1" stroke="#8DCDD1" stroke-width="2"/>
<circle cx="252.825" cy="545.54" r="18.3825" stroke="#A2D9DA" stroke-width="2"/>
<circle cx="252.475" cy="545.191" r="7.16976" fill="#8DCDD1" stroke="#8DCDD1" stroke-width="2"/>
<mask id="path-11-outside-3_385_91471" maskUnits="userSpaceOnUse" x="103.996" y="102.191" width="541" height="541" fill="black">
<rect fill="white" x="103.996" y="102.191" width="541" height="541"/>
<path fill-rule="evenodd" clip-rule="evenodd" d="M151.236 223.491C189.1 166.824 247.102 126.68 313.475 111.204C379.848 95.7281 449.623 106.078 508.645 140.155L509.145 139.289C449.903 105.085 379.868 94.6966 313.248 110.23C246.627 125.764 188.41 166.057 150.405 222.936C112.399 279.814 97.4524 349.02 108.596 416.513C119.739 484.007 156.138 544.735 210.409 586.379C264.68 628.023 332.76 647.464 400.838 640.759C468.916 634.054 531.895 601.704 576.999 550.273C622.103 498.842 645.955 432.179 643.717 363.809C641.479 295.438 613.318 230.478 564.947 182.107L564.239 182.814C612.431 231.006 640.488 295.724 642.718 363.841C644.948 431.958 621.184 498.373 576.247 549.614C531.31 600.854 468.565 633.084 400.74 639.764C332.915 646.444 265.088 627.075 211.018 585.586C156.948 544.096 120.684 483.594 109.582 416.35C98.4804 349.107 113.372 280.159 151.236 223.491Z"/>
</mask>
<path fill-rule="evenodd" clip-rule="evenodd" d="M151.236 223.491C189.1 166.824 247.102 126.68 313.475 111.204C379.848 95.7281 449.623 106.078 508.645 140.155L509.145 139.289C449.903 105.085 379.868 94.6966 313.248 110.23C246.627 125.764 188.41 166.057 150.405 222.936C112.399 279.814 97.4524 349.02 108.596 416.513C119.739 484.007 156.138 544.735 210.409 586.379C264.68 628.023 332.76 647.464 400.838 640.759C468.916 634.054 531.895 601.704 576.999 550.273C622.103 498.842 645.955 432.179 643.717 363.809C641.479 295.438 613.318 230.478 564.947 182.107L564.239 182.814C612.431 231.006 640.488 295.724 642.718 363.841C644.948 431.958 621.184 498.373 576.247 549.614C531.31 600.854 468.565 633.084 400.74 639.764C332.915 646.444 265.088 627.075 211.018 585.586C156.948 544.096 120.684 483.594 109.582 416.35C98.4804 349.107 113.372 280.159 151.236 223.491Z" fill="#A2D9DA"/>
<path d="M422.383 580.77L422.496 581.257L422.383 580.77ZM353.07 160.951L353.119 161.449L353.07 160.951ZM213.671 232.554L214.046 232.884L213.671 232.554ZM160.875 380.108L161.375 380.091L160.875 380.108ZM267.115 558.208C314.105 585.338 369.655 593.578 422.496 581.257L422.269 580.283C369.675 592.546 314.385 584.345 267.615 557.342L267.115 558.208ZM422.496 581.257C475.338 568.936 521.515 536.976 551.66 491.861L550.828 491.306C520.825 536.21 474.864 568.019 422.269 580.283L422.496 581.257ZM551.66 491.861C581.805 446.746 593.66 391.854 584.822 338.32L583.835 338.483C592.632 391.767 580.832 446.402 550.828 491.306L551.66 491.861ZM584.822 338.32C575.983 284.785 547.112 236.617 504.065 203.586L503.457 204.38C546.302 237.256 575.038 285.199 583.835 338.483L584.822 338.32ZM504.065 203.586C461.019 170.555 407.019 155.135 353.021 160.453L353.119 161.449C406.865 156.155 460.611 171.503 503.457 204.38L504.065 203.586ZM353.021 160.453C299.024 165.772 249.07 191.43 213.295 232.225L214.046 232.884C249.655 192.281 299.374 166.742 353.119 161.449L353.021 160.453ZM213.295 232.225C177.519 273.019 158.6 325.894 160.375 380.124L161.375 380.091C159.608 326.115 178.438 273.487 214.046 232.884L213.295 232.225ZM160.375 380.124C162.151 434.354 184.487 485.879 222.854 524.246L223.562 523.539C185.374 485.351 163.142 434.068 161.375 380.091L160.375 380.124ZM313.475 111.204L313.702 112.178L313.475 111.204ZM151.236 223.491L152.067 224.047L151.236 223.491ZM508.645 140.155L508.145 141.021L509.011 141.521L509.511 140.655L508.645 140.155ZM509.145 139.289L510.011 139.789L510.511 138.923L509.645 138.423L509.145 139.289ZM313.248 110.23L313.021 109.256L313.248 110.23ZM150.405 222.936L149.573 222.38L150.405 222.936ZM108.596 416.513L109.582 416.35L108.596 416.513ZM210.409 586.379L209.8 587.172L210.409 586.379ZM400.838 640.759L400.74 639.764L400.838 640.759ZM576.999 550.273L576.247 549.614L576.999 550.273ZM643.717 363.809L642.718 363.841L643.717 363.809ZM564.947 182.107L565.654 181.4L564.947 180.693L564.239 181.4L564.947 182.107ZM564.239 182.814L563.532 182.107L562.825 182.814L563.532 183.521L564.239 182.814ZM642.718 363.841L641.718 363.874L642.718 363.841ZM576.247 549.614L575.495 548.954L576.247 549.614ZM400.74 639.764L400.642 638.769L400.74 639.764ZM211.018 585.586L210.409 586.379L211.018 585.586ZM109.582 416.35L108.596 416.513L109.582 416.35ZM313.248 110.23C246.627 125.764 188.41 166.057 150.405 222.936L152.067 224.047C189.79 167.59 247.576 127.596 313.702 112.178L313.248 110.23ZM509.145 139.289C449.903 105.085 379.868 94.6966 313.248 110.23L313.702 112.178C379.828 96.7597 449.342 107.071 508.145 141.021L509.145 139.289ZM508.279 138.789L507.779 139.655L509.511 140.655L510.011 139.789L508.279 138.789ZM313.475 111.204C379.848 95.7282 449.623 106.078 508.645 140.155L509.645 138.423C450.183 104.092 379.888 93.6651 313.021 109.256L313.475 111.204ZM151.236 223.491C189.1 166.824 247.102 126.68 313.475 111.204L313.021 109.256C246.153 124.848 187.719 165.29 149.573 222.38L151.236 223.491ZM109.582 416.35C98.4804 349.107 113.372 280.159 151.236 223.491L149.573 222.38C111.427 279.47 96.4244 348.932 107.609 416.676L109.582 416.35ZM211.018 585.586C156.948 544.096 120.684 483.594 109.582 416.35L107.609 416.676C118.794 484.421 155.328 545.374 209.8 587.172L211.018 585.586ZM400.74 639.764C332.915 646.444 265.088 627.075 211.018 585.586L209.8 587.172C264.273 628.971 332.605 648.484 400.936 641.754L400.74 639.764ZM576.247 549.614C531.31 600.854 468.565 633.083 400.74 639.764L400.936 641.754C469.267 635.024 532.479 602.555 577.751 550.932L576.247 549.614ZM642.718 363.841C644.948 431.958 621.184 498.373 576.247 549.614L577.751 550.932C623.022 499.31 646.963 432.4 644.716 363.776L642.718 363.841ZM564.239 182.814C612.431 231.006 640.488 295.724 642.718 363.841L644.716 363.776C642.47 295.151 614.204 229.951 565.654 181.4L564.239 182.814ZM564.946 183.521L565.654 182.814L564.239 181.4L563.532 182.107L564.946 183.521ZM643.717 363.809C641.479 295.438 613.318 230.478 564.947 182.107L563.532 183.521C611.545 231.533 639.497 296.011 641.718 363.874L643.717 363.809ZM576.999 550.273C622.103 498.842 645.955 432.179 643.717 363.809L641.718 363.874C643.94 431.737 620.265 497.905 575.495 548.954L576.999 550.273ZM400.838 640.759C468.916 634.054 531.895 601.705 576.999 550.273L575.495 548.954C530.726 600.004 468.215 632.113 400.642 638.769L400.838 640.759ZM210.409 586.379C264.68 628.023 332.76 647.464 400.838 640.759L400.642 638.769C333.069 645.424 265.495 626.127 211.627 584.792L210.409 586.379ZM108.596 416.513C119.739 484.007 156.138 544.735 210.409 586.379L211.627 584.792C157.758 543.458 121.63 483.18 110.569 416.188L108.596 416.513ZM150.405 222.936C112.399 279.814 97.4524 349.02 108.596 416.513L110.569 416.188C99.5084 349.195 114.344 280.503 152.067 224.047L150.405 222.936Z" fill="#A2D9DA" mask="url(#path-11-outside-3_385_91471)"/>
<circle cx="529.169" cy="154.387" r="23.1409" stroke="#A2D9DA" stroke-width="2"/>
<circle cx="528.889" cy="154.108" r="7.16976" fill="#8DCDD1" stroke="#8DCDD1" stroke-width="2"/>
<defs>
<filter id="filter0_f_385_91471" x="0" y="0" width="747.902" height="747" filterUnits="userSpaceOnUse" color-interpolation-filters="sRGB">
<feFlood flood-opacity="0" result="BackgroundImageFix"/>
<feBlend mode="normal" in="SourceGraphic" in2="BackgroundImageFix" result="shape"/>
<feGaussianBlur stdDeviation="25" result="effect1_foregroundBlur_385_91471"/>
</filter>
<filter id="filter1_f_385_91471" x="105.588" y="104.991" width="536.951" height="536.951" filterUnits="userSpaceOnUse" color-interpolation-filters="sRGB">
<feFlood flood-opacity="0" result="BackgroundImageFix"/>
<feBlend mode="normal" in="SourceGraphic" in2="BackgroundImageFix" result="shape"/>
<feGaussianBlur stdDeviation="25" result="effect1_foregroundBlur_385_91471"/>
</filter>
<radialGradient id="paint0_radial_385_91471" cx="0" cy="0" r="1" gradientUnits="userSpaceOnUse" gradientTransform="translate(214.752 532.477) rotate(135.04) scale(232.833 232.833)">
<stop stop-color="#008297"/>
<stop offset="1" stop-color="white" stop-opacity="0.25"/>
</radialGradient>
<radialGradient id="paint1_radial_385_91471" cx="0" cy="0" r="1" gradientUnits="userSpaceOnUse" gradientTransform="translate(266.698 480.831) rotate(135) scale(157.134)">
<stop stop-color="#8DCDD1"/>
<stop offset="1" stop-color="#00314C" stop-opacity="0.25"/>
</radialGradient>
</defs>
</svg>
