<svg width="102" height="26" viewBox="0 0 102 26" fill="none" xmlns="http://www.w3.org/2000/svg">
<path fill-rule="evenodd" clip-rule="evenodd" d="M4.28953 2.5H10.2884V3.01859L8.31559 3.01522V12.8286C8.31559 16.5126 6.57968 17.6218 3.33275 17.6218C0.610129 17.6218 0 16.5597 0 15.173C0 14.8619 0.116437 13.8422 1.11314 13.8422C2.10518 13.8422 2.16506 14.5164 2.16506 15.6182C2.16506 16.0809 2.35668 16.9753 3.52038 16.9753C5.37007 16.9753 6.19976 16.1226 6.19976 13.0946V3.01859H4.28953V2.5ZM10.2598 15.6236C10.484 15.3912 10.7601 15.2835 11.0948 15.2835C11.4334 15.2835 11.7096 15.3912 11.9378 15.6236C12.1667 15.8532 12.2824 16.13 12.2824 16.4688C12.2824 16.8028 12.1667 17.077 11.9378 17.2979C11.7002 17.5295 11.4235 17.6413 11.0948 17.6413C10.7714 17.6413 10.494 17.5295 10.2624 17.2979C10.0282 17.077 9.91377 16.8028 9.91377 16.4688C9.91377 16.1327 10.0282 15.8566 10.2598 15.6236ZM24.4158 15.2835C24.0858 15.2835 23.8083 15.3912 23.5808 15.6236C23.3526 15.8566 23.2421 16.1327 23.2421 16.4688C23.2421 16.8028 23.3526 17.077 23.5808 17.2979C23.8243 17.5295 24.0924 17.6413 24.4158 17.6413C24.7505 17.6413 25.0293 17.5295 25.2648 17.2979C25.497 17.077 25.6114 16.8028 25.6114 16.4688C25.6114 16.13 25.497 15.8532 25.2668 15.6236C25.0333 15.3912 24.7531 15.2835 24.4158 15.2835ZM18.234 10.4869H19.4336C22.2128 10.4869 23.5908 9.27259 23.5908 6.89383C23.5908 4.52922 22.8263 3.06977 19.3205 3.06977L18.234 3.08391V10.4869ZM14.3623 2.50135L20.2354 2.5C24.8363 2.5 25.6188 4.25443 25.6188 6.75779C25.6188 9.23487 24.3426 11.0499 19.7989 11.0499L18.234 11.0546V14.9918C18.234 15.4458 18.2886 15.6741 18.393 15.9327C18.5115 16.2331 18.757 16.4553 19.1342 16.6069C19.4024 16.7032 19.8109 16.7645 20.3472 16.7793V17.2494H14.0243V16.7739C14.5599 16.7584 14.9631 16.6991 15.2286 16.5846C15.5846 16.4358 15.8268 16.2055 15.9339 15.9125C16.0323 15.6519 16.0882 15.4168 16.0882 14.5123V3.01859H14.3623V2.50135ZM44.3531 15.8748C44.27 15.6088 44.23 15.2855 44.23 14.8699V3.01858C44.23 3.01858 45.7717 3.00983 45.753 3.00377C45.7357 3.00377 45.753 2.53435 45.753 2.53435H42.0237C41.9712 2.67107 37.5718 13.7701 37.5718 13.7701C37.5525 13.8105 37.5126 13.8361 37.4714 13.8361C37.4208 13.8361 37.3809 13.8105 37.3649 13.7701C37.3649 13.7701 32.6762 2.67107 32.6223 2.53435H28.4844V3.00983H30.2802V14.4241L30.241 15.464C30.2124 15.7387 30.1285 15.9832 29.9948 16.1785C29.8551 16.39 29.6282 16.5516 29.3328 16.6574C29.1365 16.7227 28.8464 16.7658 28.4844 16.7739V17.2494H32.5903V16.7799C32.241 16.7658 32.09 16.7301 31.8851 16.6614C31.5837 16.5617 31.3574 16.4102 31.2077 16.1927C31.0753 15.9913 30.9875 15.7495 30.9576 15.464L30.9117 14.4241V4.56558H31.1532C31.1532 4.56558 36.4627 17.112 36.5186 17.2494H36.9617L41.9871 4.70432H42.1142V14.8699C42.1142 15.305 42.0696 15.6411 41.9871 15.9017C41.8887 16.2055 41.6744 16.4358 41.3637 16.5907C41.1335 16.6937 40.7815 16.755 40.3184 16.7739V17.2494H46.0491V16.7739C45.5913 16.751 45.2367 16.689 44.9965 16.5806C44.6632 16.4149 44.4476 16.1785 44.3531 15.8748ZM49.3686 12.141C49.3686 15.8674 49.7225 17.0298 52.022 17.0298C54.0733 17.0298 54.7094 15.73 54.7094 11.9598C54.7094 9.33657 54.6967 7.09857 52.022 7.09857C49.5455 7.09857 49.3686 9.26046 49.3686 12.141ZM47.0851 12.083C47.0851 8.49875 49.0039 6.44663 52.0626 6.44663C54.8976 6.44663 56.9888 8.39705 56.9888 11.984C56.9888 16.592 53.7186 17.6811 51.9934 17.6811C51.1218 17.6811 47.0851 17.3342 47.0851 12.083ZM64.9904 6.60692C63.1613 6.60692 62.5904 7.70134 62.0868 8.81529C62.0868 8.81529 61.9544 8.80519 61.9417 8.81057C61.9345 8.81292 61.8696 8.41241 61.7948 7.95024C61.7192 7.48259 61.6333 6.95181 61.5864 6.71131C60.8718 6.71131 58.0454 6.70391 58.0454 6.70391V7.25415H59.9616C59.9616 7.25415 59.9503 8.90082 59.9503 9.49416V14.5359C59.9503 15.2579 59.8711 15.761 59.7174 16.0667C59.5212 16.4257 59.0827 16.6069 58.3555 16.6069H58.0454V17.2494H63.977V16.6069H63.659C62.8799 16.6069 62.5439 16.4358 62.335 16.0937C62.146 15.7933 62.0615 15.2835 62.0615 14.5359V10.7543C62.0615 9.48002 63.0096 8.02798 64.1474 8.02798C64.6682 8.02798 64.9551 8.38409 65.2267 8.72121C65.5745 9.1529 65.8972 9.55345 66.6538 9.13519C67.3857 8.72976 67.2632 6.60692 64.9904 6.60692ZM85.4793 15.1387C85.5106 15.1171 85.5145 15.0929 85.5145 15.0551V11.6628C84.0594 11.6628 81.402 12.6447 81.402 14.6086C81.402 15.2215 81.6202 16.4472 83.074 16.4472C83.6422 16.4472 84.418 16.1145 85.434 15.1811L85.4793 15.1387ZM87.7395 15.2181C87.7861 15.8135 87.9877 16.1711 88.6224 16.1711C88.9977 16.1711 89.4528 15.7697 89.5459 15.0248H89.9012C89.8054 16.7389 88.9797 17.4245 87.5984 17.4245C86.3715 17.4245 85.6949 16.5442 85.5791 15.8074C84.8558 16.5846 83.7893 17.5565 82.1033 17.5565C80.5796 17.5565 79.4006 16.3678 79.3261 15.0134C79.1283 11.5968 83.5025 11.1982 85.4423 11.0215L85.5145 11.0149V9.24632C85.5145 8.60583 85.3722 8.08725 85.1 7.70673C84.8053 7.30129 84.2783 7.09857 83.5351 7.09857C82.8957 7.09857 82.422 7.26021 82.1199 7.58079C81.8358 7.88453 81.7107 8.21656 81.6202 8.7998C81.4978 9.58374 81.1658 9.88748 80.577 9.88748C80.3195 9.88748 80.1092 9.81407 79.9309 9.65311C79.7519 9.50157 79.6668 9.27528 79.6668 8.95403C79.6668 8.2637 79.9309 7.78081 80.6082 7.26021C81.3015 6.72142 82.392 6.44663 83.8605 6.44663C85.3901 6.44663 86.448 6.73354 86.9943 7.2959C87.5505 7.85692 87.7022 8.49875 87.7022 9.45241V13.8685L87.7395 15.2181ZM100.786 16.0957C100.583 15.7933 100.415 15.2855 100.415 14.5292L100.443 9.75211C100.443 9.06111 100.351 8.46979 100.095 7.98488C99.8363 7.51344 99.4716 7.15514 99.0199 6.9201C98.5601 6.6864 98.0325 6.57056 97.4536 6.57056C95.3691 6.57056 94.5327 7.85826 94.077 8.61526L93.886 8.60853L93.5147 6.69246L90.2891 6.6864V7.23663C90.8952 7.26155 91.9046 7.27233 91.9046 7.27233V14.5238C91.9046 15.0875 91.8607 15.4922 91.7788 15.761C91.6937 16.0822 91.4881 16.3065 91.1827 16.4358C90.9877 16.5207 90.681 16.5671 90.2891 16.5846V17.2494H95.417V16.5806C94.9013 16.5382 94.552 16.3967 94.3684 16.13C94.1681 15.8458 94.077 15.3548 94.077 14.6389V11.8541V11.8022C94.0769 10.6556 94.0768 9.55388 94.4629 8.86849C94.8867 8.1088 95.6618 7.69056 96.5308 7.69056C97.3119 7.69056 97.7224 7.9438 97.9799 8.44622C98.1895 8.85435 98.3266 10.0686 98.3266 10.9051L98.3013 14.3554C98.3013 14.5998 98.3143 14.817 98.3256 15.007C98.341 15.264 98.3534 15.4711 98.3266 15.6283C98.268 15.9448 98.1263 16.1927 97.8795 16.357C97.7005 16.4823 97.419 16.5476 97.0571 16.5745V17.2494H102V16.5846C101.374 16.5442 100.965 16.39 100.786 16.0957ZM70.3471 10.431C70.3471 13.2091 71.119 13.7048 72.4676 13.7048C73.7305 13.7048 74.6427 13.3209 74.6427 10.3892C74.6427 8.33913 74.1503 7.01102 72.4676 7.01102C71.0225 7.01102 70.3471 8.46979 70.3471 10.431ZM76.9528 6.86016C77.0599 6.3941 77.2635 6.11865 77.5689 6.02099C78.1298 5.84588 78.4977 6.07015 78.6927 6.69582C78.7872 6.99485 78.7479 7.29994 78.5769 7.62591C78.4052 7.94851 78.1092 8.18019 77.6534 8.32364C77.2562 8.45497 76.821 8.45497 76.354 8.35058C76.5769 8.8328 76.7625 9.52312 76.7625 10.3259C76.7625 13.1182 74.6586 13.9574 72.3991 14.3116C70.105 14.6686 69.5174 14.9534 69.5174 15.6774C69.5174 16.1711 69.8228 16.4607 71.4084 16.4607C71.8855 16.4837 72.3243 16.4996 72.729 16.5142C75.1187 16.6004 76.3184 16.6436 77.201 17.871C77.521 18.3269 77.6853 18.9452 77.6853 19.7029C77.6853 20.2632 77.537 20.8471 77.2276 21.4196C76.9328 21.9873 76.3826 22.4803 75.5928 22.8844C74.8037 23.2892 73.6992 23.5 72.3392 23.5C71.3132 23.5 70.5734 23.4165 69.4576 23.0723C68.7263 22.8555 67.7689 22.2689 67.7689 21.0142C67.7689 20.635 67.8288 20.3178 67.9991 20.0524C68.1801 19.7655 68.5726 19.5931 68.8854 19.647C69.4516 19.744 69.6266 20.2652 69.5248 20.7609C69.4083 21.2492 69.5154 21.9294 70.0684 22.2749C70.8122 22.7443 71.6373 22.8555 72.6453 22.8555C73.8203 22.8555 74.7651 22.6507 75.4571 22.2601C76.2003 21.8405 76.5722 21.2735 76.5722 20.5676C76.5722 20.0524 76.3919 19.6584 76.0506 19.3904C75.7185 19.1459 75.2701 18.9822 74.7032 18.9169C74.1789 18.8536 73.3738 18.8132 72.2374 18.8004C70.938 18.7768 69.904 18.6199 69.1675 18.3168C68.5008 18.0421 67.9791 17.5383 67.9791 16.6197C67.9791 15.0942 69.3837 14.6241 70.9686 14.2995C71.0671 14.2779 71.0671 14.1507 70.9546 14.1278C69.0963 13.7311 68.2506 12.6548 68.2506 10.431C68.2506 8.52973 69.5248 6.44663 72.4124 6.44663C74.2062 6.44663 75.2268 7.05412 75.7571 7.55317C76.0432 7.65218 76.2821 7.67036 76.497 7.60705C76.7113 7.53768 76.8723 7.28917 76.9528 6.86016Z" fill="white"/>
</svg>
