<svg aria-labelledby="jpm-logo-graphic" class="Logo-logo-96" height="19" role="img" viewBox="0 0 70.2 15.9" width="91"
    xmlns="http://www.w3.org/2000/svg">
    <title id="jpm-logo-graphic">
                  J.P. Morgan
    </title>
    <path class="pfm-logo-base" d="M 7 1.3 H 2.9 v 0.3 h 1.3 v 6.8 c 0 2 -0.6 2.6 -1.8 2.6 c -0.8 0 -0.9 -0.6 -0.9 -0.9 c 0 -0.7 0 -1.2 -0.7 -1.2 C 0.1 9 0 9.7 0 9.9 c 0 0.9 0.4 1.7 2.3 1.7 c 2.2 0 3.4 -0.7 3.4 -3.2 V 1.7 l 1.3 0 V 1.3 Z" />
    <path class="pfm-logo-base" d="M 7.6 10 C 7.4 10 7.2 10 7 10.2 c -0.2 0.2 -0.2 0.3 -0.2 0.6 c 0 0.2 0.1 0.4 0.2 0.6 c 0.2 0.2 0.3 0.2 0.6 0.2 c 0.2 0 0.4 -0.1 0.6 -0.2 c 0.2 -0.1 0.2 -0.3 0.2 -0.6 c 0 -0.2 -0.1 -0.4 -0.2 -0.6 C 8 10 7.8 10 7.6 10" />
    <path class="pfm-logo-base" d="M 16.7 10 c -0.2 0 -0.4 0.1 -0.6 0.2 c -0.2 0.2 -0.2 0.3 -0.2 0.6 c 0 0.2 0.1 0.4 0.2 0.6 c 0.2 0.2 0.4 0.2 0.6 0.2 c 0.2 0 0.4 -0.1 0.6 -0.2 c 0.2 -0.1 0.2 -0.3 0.2 -0.6 c 0 -0.2 -0.1 -0.4 -0.2 -0.6 C 17.1 10 16.9 10 16.7 10" />
    <path class="pfm-logo-base" d="M 13.8 1.3 l -4 0 l 0 0.3 H 11 v 7.8 c 0 0.6 0 0.8 -0.1 0.9 c -0.1 0.2 -0.2 0.4 -0.5 0.5 C 10.2 10.9 9.9 11 9.6 11 v 0.3 h 4.3 V 11 c -0.4 0 -0.6 -0.1 -0.8 -0.1 c -0.3 -0.1 -0.4 -0.3 -0.5 -0.5 c -0.1 -0.2 -0.1 -0.3 -0.1 -0.6 V 7.1 l 1.1 0 c 3.1 0 4 -1.2 4 -2.9 C 17.5 2.5 17 1.3 13.8 1.3 M 13.3 6.7 h -0.8 v -5 l 0.7 0 c 2.4 0 2.9 1 2.9 2.6 C 16.1 5.9 15.2 6.7 13.3 6.7" />
    <path class="pfm-logo-base" d="M 30.3 10.4 c -0.1 -0.2 -0.1 -0.4 -0.1 -0.7 v -8 c 0 0 1.1 0 1 0 c 0 0 0 -0.3 0 -0.3 h -2.5 c 0 0.1 -3 7.6 -3 7.6 c 0 0 0 0 -0.1 0 c 0 0 -0.1 0 -0.1 0 c 0 0 -3.2 -7.5 -3.2 -7.6 h -2.8 v 0.3 h 1.2 v 7.7 c 0 0 0 0.7 0 0.7 c 0 0.2 -0.1 0.3 -0.2 0.5 c -0.1 0.1 -0.3 0.3 -0.5 0.3 c -0.1 0 -0.3 0.1 -0.6 0.1 v 0.3 h 2.8 V 11 c -0.2 0 -0.3 0 -0.5 -0.1 c -0.2 -0.1 -0.4 -0.2 -0.5 -0.3 c -0.1 -0.1 -0.2 -0.3 -0.2 -0.5 c 0 0 0 -0.7 0 -0.7 V 2.7 h 0.2 c 0 0 3.6 8.5 3.7 8.6 h 0.3 l 3.4 -8.5 h 0.1 v 6.9 c 0 0.3 0 0.5 -0.1 0.7 c -0.1 0.2 -0.2 0.4 -0.4 0.5 c -0.2 0.1 -0.4 0.1 -0.7 0.1 v 0.3 h 3.9 V 11 c -0.3 0 -0.6 -0.1 -0.7 -0.1 C 30.5 10.7 30.4 10.6 30.3 10.4" />
    <path class="pfm-logo-base" d="M 35.6 4 c -2.1 0 -3.4 1.4 -3.4 3.8 c 0 3.5 2.8 3.8 3.4 3.8 c 1.2 0 3.4 -0.7 3.4 -3.8 C 38.9 5.3 37.5 4 35.6 4 M 35.5 11.1 c -1.6 0 -1.8 -0.8 -1.8 -3.3 c 0 -1.9 0.1 -3.4 1.8 -3.4 c 1.8 0 1.8 1.5 1.8 3.3 C 37.4 10.3 36.9 11.1 35.5 11.1" />
    <path class="pfm-logo-base" d="M 44.4 4.1 c -1.2 0 -1.6 0.7 -2 1.5 c 0 0 -0.1 0 -0.1 0 c 0 0 -0.2 -1.1 -0.2 -1.4 c -0.5 0 -2.4 0 -2.4 0 v 0.4 H 41 c 0 0 0 1.1 0 1.5 v 3.4 c 0 0.5 -0.1 0.8 -0.2 1 c -0.1 0.2 -0.4 0.4 -0.9 0.4 h -0.2 v 0.4 h 4.1 v -0.4 h -0.2 c -0.5 0 -0.8 -0.1 -0.9 -0.3 c -0.1 -0.2 -0.2 -0.5 -0.2 -1.1 V 6.9 c 0 -0.9 0.6 -1.8 1.4 -1.8 c 0.8 0 0.8 1.3 1.7 0.7 C 46 5.5 45.9 4.1 44.4 4.1" />
    <path class="pfm-logo-base" d="M 60.5 10.6 c -0.4 0 -0.6 -0.2 -0.6 -0.6 c 0 0 0 -0.9 0 -0.9 V 6 c 0 -0.6 -0.1 -1.1 -0.5 -1.5 C 59.1 4.2 58.3 4 57.3 4 c -1 0 -1.7 0.2 -2.2 0.5 c -0.5 0.4 -0.6 0.7 -0.6 1.1 c 0 0.2 0.1 0.4 0.2 0.5 c 0.1 0.1 0.3 0.2 0.4 0.2 c 0.4 0 0.6 -0.2 0.7 -0.7 c 0.1 -0.4 0.1 -0.6 0.3 -0.8 c 0.2 -0.2 0.5 -0.3 1 -0.3 c 0.5 0 0.9 0.1 1.1 0.4 c 0.2 0.3 0.3 0.6 0.3 1 v 1.2 c -1.3 0.1 -4.4 0.4 -4.2 2.7 c 0.1 0.9 0.9 1.7 1.9 1.7 c 1.2 0 1.9 -0.7 2.4 -1.2 c 0.1 0.5 0.5 1.1 1.4 1.1 c 0.9 0 1.5 -0.5 1.6 -1.6 h -0.2 C 61.1 10.3 60.8 10.6 60.5 10.6 M 58.4 9.8 C 58.4 9.8 58.4 9.9 58.4 9.8 L 58.4 9.8 c -0.7 0.7 -1.3 0.9 -1.7 0.9 c -1 0 -1.1 -0.8 -1.1 -1.2 c 0 -1.3 1.8 -2 2.8 -2 V 9.8 Z" />
    <path class="pfm-logo-base" d="M 53 3.7 c -0.2 0.1 -0.3 0.3 -0.4 0.6 c -0.1 0.3 -0.2 0.5 -0.3 0.5 c -0.1 0 -0.3 0 -0.5 0 C 51.4 4.4 50.7 4 49.5 4 c -2 0 -2.8 1.4 -2.8 2.7 c 0 1.5 0.6 2.2 1.8 2.5 c 0.1 0 0.1 0.1 0 0.1 c -1.1 0.2 -2 0.5 -2 1.6 c 0 0.6 0.4 1 0.8 1.1 c 0.5 0.2 1.2 0.3 2.1 0.3 c 0.8 0 1.3 0 1.7 0.1 c 0.4 0 0.7 0.2 0.9 0.3 c 0.2 0.2 0.4 0.4 0.4 0.8 c 0 0.5 -0.3 0.9 -0.8 1.1 c -0.5 0.3 -1.1 0.4 -1.9 0.4 c -0.7 0 -1.3 -0.1 -1.8 -0.4 c -0.4 -0.2 -0.5 -0.7 -0.4 -1 c 0.1 -0.3 0 -0.7 -0.4 -0.8 c -0.2 0 -0.5 0.1 -0.6 0.3 c -0.1 0.2 -0.2 0.4 -0.2 0.6 c 0 0.8 0.7 1.2 1.2 1.4 c 0.8 0.2 1.3 0.3 2 0.3 c 0.9 0 1.7 -0.1 2.2 -0.4 c 0.5 -0.3 0.9 -0.6 1.1 -1 c 0.2 -0.4 0.3 -0.8 0.3 -1.2 c 0 -0.5 -0.1 -0.9 -0.3 -1.2 c -0.7 -1 -1.7 -0.8 -4 -1 c -1.1 0 -1.3 -0.2 -1.3 -0.5 c 0 -0.5 0.4 -0.7 2 -0.9 c 1.5 -0.2 3 -0.8 3 -2.7 c 0 -0.5 -0.1 -1 -0.3 -1.3 c 0.3 0.1 0.6 0.1 0.9 0 c 0.3 -0.1 0.5 -0.3 0.6 -0.5 c 0.1 -0.2 0.1 -0.4 0.1 -0.6 C 53.6 3.7 53.4 3.6 53 3.7 M 49.5 8.9 c -0.9 0 -1.4 -0.3 -1.4 -2.2 c 0 -1.3 0.5 -2.3 1.4 -2.3 c 1.1 0 1.5 0.9 1.5 2.3 C 51 8.6 50.4 8.9 49.5 8.9" />
    <path class="pfm-logo-base" d="M 68.8 10.5 c -0.1 -0.2 -0.3 -0.5 -0.3 -1.1 l 0 -3.2 c 0 -0.5 -0.1 -0.9 -0.2 -1.2 c -0.2 -0.3 -0.4 -0.6 -0.7 -0.7 c -0.3 -0.2 -0.7 -0.2 -1.1 -0.2 c -1.4 0 -2 0.9 -2.3 1.4 l -0.1 0 l -0.3 -1.3 l -2.2 0 v 0.4 c 0.4 0 1.1 0 1.1 0 v 4.9 c 0 0.4 0 0.7 -0.1 0.8 c -0.1 0.2 -0.2 0.4 -0.4 0.5 c -0.1 0.1 -0.3 0.1 -0.6 0.1 v 0.4 h 3.5 v -0.5 c -0.4 0 -0.6 -0.1 -0.7 -0.3 c -0.1 -0.2 -0.2 -0.5 -0.2 -1 V 7.6 c 0 -0.8 0 -1.5 0.3 -2 c 0.3 -0.5 0.8 -0.8 1.4 -0.8 c 0.5 0 0.8 0.2 1 0.5 c 0.1 0.3 0.2 1.1 0.2 1.7 l 0 2.3 c 0 0.4 0 0.7 0 0.9 c 0 0.2 -0.1 0.4 -0.3 0.5 c -0.1 0.1 -0.3 0.1 -0.6 0.1 v 0.5 h 3.4 v -0.4 C 69.2 10.8 69 10.7 68.8 10.5" />
</svg>