<svg width="281" height="24" viewBox="0 0 281 24" fill="none" xmlns="http://www.w3.org/2000/svg">
<path d="M226.113 12V12.2708H227.171V17.5511C227.171 19.1369 226.712 19.5849 225.688 19.5849C225.044 19.5849 224.937 19.1164 224.937 18.8729C224.937 18.2954 224.903 17.9429 224.355 17.9429C223.804 17.9429 223.738 18.476 223.738 18.6395C223.738 19.3668 224.076 19.9238 225.584 19.9238C227.383 19.9238 228.343 19.343 228.343 17.4114V12.2708L229.435 12.2725V12H226.113ZM229.417 18.8763C229.289 18.9989 229.225 19.1437 229.225 19.3191C229.225 19.4946 229.289 19.6377 229.419 19.7535C229.547 19.8744 229.702 19.9323 229.88 19.9323C230.061 19.9323 230.216 19.8744 230.348 19.7535C230.474 19.6377 230.538 19.4946 230.538 19.3191C230.538 19.142 230.474 18.9955 230.348 18.8763C230.221 18.7553 230.068 18.6974 229.88 18.6974C229.695 18.6974 229.542 18.7536 229.417 18.8763ZM236.795 18.8763C236.669 18.9989 236.608 19.1437 236.608 19.3191C236.608 19.4946 236.669 19.6377 236.795 19.7535C236.93 19.8744 237.078 19.9323 237.257 19.9323C237.442 19.9323 237.597 19.8744 237.727 19.7535C237.855 19.6377 237.919 19.4946 237.919 19.3191C237.919 19.142 237.855 18.9955 237.729 18.8763C237.599 18.7553 237.444 18.6974 237.257 18.6974C237.074 18.6974 236.921 18.7536 236.795 18.8763ZM231.69 12V12.2708H232.645V18.2937C232.645 18.7673 232.615 18.8899 232.56 19.0279C232.501 19.1812 232.368 19.3021 232.171 19.3805C232.023 19.4401 231.801 19.4707 231.504 19.4793V19.7279H235.006V19.481C234.709 19.4741 234.483 19.4418 234.333 19.3907C234.125 19.3123 233.988 19.1948 233.922 19.0381C233.864 18.9035 233.835 18.7826 233.835 18.5458V16.4831L234.701 16.4797C237.218 16.4797 237.926 15.5293 237.926 14.2313C237.924 12.9198 237.49 12 234.942 12H231.69ZM233.834 12.3066L234.435 12.2998C236.375 12.2998 236.798 13.0646 236.798 14.3029C236.798 15.5497 236.035 16.185 234.497 16.185H233.834V12.3066ZM247.009 12.0187C246.981 12.0903 244.544 17.9054 244.544 17.9054L244.489 17.9395L244.43 17.9054C244.43 17.9054 241.834 12.0903 241.803 12.0187H239.511V12.2674H240.505V18.2478L240.484 18.7928C240.468 18.9359 240.421 19.0653 240.347 19.1675C240.269 19.2783 240.144 19.3634 239.979 19.4179C239.87 19.452 239.71 19.4741 239.509 19.4793V19.7279H241.784V19.4827C241.59 19.4758 241.506 19.4571 241.393 19.4196C241.225 19.3668 241.101 19.2885 241.017 19.1744C240.943 19.0688 240.896 18.9427 240.879 18.7928L240.854 18.2478V13.0816H240.989C240.989 13.0816 243.929 19.6547 243.961 19.7279H244.206L246.99 13.1548H247.059V18.4811C247.059 18.7094 247.034 18.8848 246.99 19.0211C246.935 19.1812 246.816 19.3004 246.645 19.3822C246.517 19.4367 246.323 19.469 246.067 19.4775V19.7262H249.24V19.4775C248.987 19.4656 248.79 19.4333 248.658 19.3753C248.473 19.2902 248.354 19.1641 248.302 19.0057C248.256 18.8661 248.235 18.6974 248.235 18.4794V12.2725L249.078 12.264V12.0187H247.009ZM249.811 17.0214C249.811 19.7722 252.046 19.9545 252.528 19.9545C253.483 19.9545 255.296 19.3839 255.296 16.9686C255.296 15.0898 254.138 14.0678 252.568 14.0678C250.874 14.0678 249.811 15.1426 249.811 17.0214ZM251.075 17.052C251.075 15.5429 251.173 14.4102 252.544 14.4102C254.026 14.4102 254.033 15.5821 254.033 16.9566C254.033 18.9325 253.681 19.6138 252.544 19.6138C251.273 19.6121 251.075 19.004 251.075 17.052ZM258.118 15.3095L258.038 15.3061C258.03 15.3095 257.893 14.4579 257.841 14.2058C257.446 14.2058 255.881 14.2024 255.881 14.2024V14.4902H256.941C256.941 14.4902 256.936 15.3521 256.936 15.6638V18.3057C256.936 18.6838 256.891 18.9478 256.808 19.1079C256.699 19.297 256.455 19.3907 256.054 19.3907H255.883V19.7279H259.168V19.3907H258.99C258.56 19.3907 258.373 19.3004 258.257 19.1216C258.152 18.9631 258.106 18.6974 258.106 18.3057V16.3247C258.106 15.657 258.631 14.8956 259.26 14.8956C259.918 14.8956 259.902 15.8665 260.649 15.4765C261.055 15.2635 260.986 14.1513 259.728 14.1513C258.714 14.1513 258.398 14.7253 258.118 15.3095ZM268.376 14.4937C268 14.7679 267.854 15.02 267.854 15.3811C267.854 15.5497 267.902 15.6672 268 15.7473C268.1 15.8325 268.216 15.8699 268.358 15.8699C268.685 15.8699 268.868 15.7115 268.936 15.2993C268.986 14.9944 269.055 14.8207 269.212 14.6606C269.379 14.4919 269.642 14.4085 269.996 14.4085C270.409 14.4085 270.7 14.5141 270.864 14.727C271.013 14.9263 271.093 15.1988 271.093 15.5344V16.461C270.04 16.5513 267.556 16.7437 267.666 18.5561C267.707 19.2646 268.361 19.888 269.204 19.888C270.138 19.888 270.729 19.3788 271.129 18.9717C271.193 19.3583 271.566 19.8182 272.248 19.8182C273.012 19.8182 273.469 19.4588 273.523 18.5612H273.325C273.274 18.9512 273.021 19.1624 272.815 19.1624C272.463 19.1624 272.351 18.9751 272.326 18.6634L272.304 17.9565V15.6417C272.304 15.1426 272.221 14.8071 271.913 14.5124C271.611 14.2177 271.024 14.0678 270.177 14.0678C269.363 14.0678 268.76 14.2109 268.376 14.4937ZM268.815 18.3431C268.815 17.3143 270.286 16.7999 271.093 16.7999V18.5782L271.074 18.6225L271.049 18.6446C270.485 19.1335 270.056 19.3072 269.742 19.3072C268.936 19.3072 268.815 18.6651 268.815 18.3431ZM275.835 15.2039L275.73 15.2005L275.524 14.1973L273.738 14.1939V14.4817C274.074 14.4954 274.633 14.5005 274.633 14.5005V18.2989C274.633 18.5935 274.61 18.8064 274.563 18.9478C274.515 19.1164 274.401 19.234 274.232 19.3004C274.124 19.3447 273.955 19.3702 273.738 19.3788V19.7262H276.577V19.3753C276.29 19.3532 276.098 19.28 275.995 19.1403C275.885 18.9904 275.833 18.7349 275.833 18.3585V16.8987C275.833 16.2889 275.83 15.6996 276.047 15.3334C276.281 14.9365 276.71 14.7168 277.192 14.7168C277.624 14.7168 277.852 14.8496 277.994 15.112C278.11 15.3249 278.186 15.9619 278.186 16.3997L278.172 18.2086C278.172 18.5101 278.211 18.7332 278.186 18.8746C278.154 19.0415 278.076 19.171 277.939 19.2578C277.839 19.3225 277.683 19.3566 277.484 19.3719V19.7245H280.221V19.3771C279.874 19.3549 279.648 19.2749 279.549 19.1199C279.437 18.9614 279.344 18.6957 279.344 18.2989L279.36 15.795C279.36 15.4339 279.309 15.1239 279.168 14.8701C279.024 14.6231 278.823 14.4357 278.572 14.3114C278.318 14.1888 278.026 14.1291 277.704 14.1291C276.55 14.1325 276.088 14.8071 275.835 15.2039ZM266.693 13.8447C266.524 13.8958 266.412 14.0406 266.352 14.2841C266.307 14.509 266.218 14.6384 266.099 14.6759C265.98 14.71 265.848 14.6998 265.69 14.6487C265.396 14.3863 264.831 14.0678 263.838 14.0678C262.239 14.0678 261.533 15.1596 261.533 16.1544C261.533 17.3194 262.001 17.8832 263.029 18.0911C263.091 18.103 263.091 18.1694 263.038 18.1813C262.159 18.3517 261.382 18.5969 261.382 19.3958C261.382 19.8778 261.67 20.1418 262.04 20.2849C262.448 20.4433 263.022 20.5251 263.741 20.5387C264.37 20.5455 264.815 20.566 265.107 20.6C265.421 20.6341 265.669 20.721 265.854 20.8487C266.042 20.9884 266.142 21.1945 266.142 21.4653C266.142 21.8349 265.935 22.133 265.525 22.3527C265.142 22.5571 264.617 22.6644 263.966 22.6644C263.408 22.6644 262.951 22.6065 262.538 22.3596C262.232 22.179 262.174 21.823 262.238 21.5658C262.295 21.3069 262.199 21.0327 261.884 20.9816C261.711 20.9543 261.494 21.0446 261.393 21.1945C261.299 21.3342 261.265 21.5011 261.265 21.6987C261.265 22.3561 261.795 22.6644 262.2 22.7769C262.818 22.9574 263.228 23 263.796 23C264.548 23 265.16 22.8893 265.597 22.6781C266.035 22.4669 266.339 22.208 266.503 21.9099C266.673 21.6101 266.757 21.3052 266.757 21.0105C266.757 20.6137 266.666 20.29 266.489 20.0516C265.918 19.2987 265.105 19.3958 263.28 19.3123C262.401 19.3123 262.232 19.1607 262.232 18.9018C262.232 18.5237 262.558 18.3738 263.828 18.1864C265.078 18.0008 266.245 17.5596 266.245 16.0982C266.245 15.6775 266.142 15.3164 266.017 15.0643C266.275 15.1188 266.517 15.1188 266.738 15.0489C266.99 14.974 267.154 14.8531 267.248 14.6844C267.344 14.5141 267.364 14.354 267.312 14.1973C267.228 13.9418 267.084 13.814 266.878 13.814C266.823 13.814 266.761 13.8242 266.693 13.8447ZM262.693 16.1544C262.693 15.1273 263.067 14.3625 263.869 14.3625C264.801 14.3625 265.073 15.0592 265.073 16.1322C265.073 17.6686 264.568 17.8696 263.869 17.8696C263.122 17.8713 262.693 17.6107 262.693 16.1544Z" fill="white"/>
<path d="M213.72 13.8333V15.2012C213.72 15.3587 213.715 15.5127 213.705 15.6631C213.698 15.8135 213.691 15.9292 213.684 16.0104H213.72C213.827 15.8385 213.979 15.6929 214.174 15.5735C214.373 15.4518 214.627 15.3909 214.937 15.3909C215.417 15.3909 215.801 15.5628 216.09 15.9066C216.379 16.2479 216.523 16.7552 216.523 17.4284C216.523 17.8724 216.457 18.2472 216.323 18.5527C216.192 18.8583 216.005 19.0886 215.764 19.2438C215.526 19.399 215.244 19.4765 214.919 19.4765C214.611 19.4765 214.362 19.4204 214.171 19.3082C213.98 19.1937 213.831 19.0576 213.723 18.9H213.67L213.534 19.4049H213V13.8333H213.72ZM214.776 15.9818C214.516 15.9818 214.308 16.0331 214.153 16.1357C214 16.2384 213.89 16.3935 213.824 16.6012C213.757 16.8089 213.722 17.0703 213.72 17.3854V17.4391C213.72 17.907 213.796 18.2651 213.949 18.5133C214.102 18.7616 214.379 18.8857 214.78 18.8857C215.109 18.8857 215.359 18.7592 215.528 18.5062C215.7 18.2531 215.786 17.8915 215.786 17.4212C215.786 16.9438 215.701 16.5845 215.532 16.3434C215.362 16.1023 215.11 15.9818 214.776 15.9818Z" fill="white"/>
<path d="M216.921 15.459H217.698L218.536 17.7327C218.579 17.8497 218.618 17.9643 218.654 18.0765C218.692 18.1863 218.724 18.2937 218.751 18.3987C218.779 18.5014 218.802 18.6028 218.819 18.7031H218.844C218.872 18.5814 218.913 18.4334 218.965 18.2591C219.018 18.0848 219.075 17.9082 219.137 17.7291L219.939 15.459H220.713L219.008 19.9635C218.915 20.2142 218.802 20.429 218.668 20.6081C218.537 20.7895 218.381 20.9279 218.199 21.0234C218.018 21.1213 217.803 21.1702 217.555 21.1702C217.44 21.1702 217.339 21.1631 217.25 21.1487C217.164 21.1368 217.09 21.1225 217.028 21.1058V20.5329C217.081 20.5448 217.144 20.5555 217.218 20.5651C217.294 20.5746 217.373 20.5794 217.454 20.5794C217.605 20.5794 217.734 20.5496 217.841 20.4899C217.951 20.4326 218.044 20.3502 218.12 20.2428C218.199 20.1354 218.265 20.0101 218.317 19.8668L218.496 19.4013L216.921 15.459Z" fill="white"/>
<path d="M10.8814 13.6223C10.8814 14.6374 10.6276 15.5081 10.1201 16.2343C9.6203 16.9527 8.91362 17.5032 8 17.8858C7.08638 18.2684 6.00098 18.4597 4.74378 18.4597C4.11127 18.4597 3.5061 18.4246 2.92826 18.3543C2.35822 18.2918 1.82723 18.1981 1.33529 18.0732C0.843338 17.9483 0.398243 17.7921 0 17.6047V15.3324C0.648121 15.5979 1.39775 15.8477 2.2489 16.082C3.10005 16.3084 3.97853 16.4217 4.88433 16.4217C5.67301 16.4217 6.33284 16.3163 6.86384 16.1054C7.40264 15.8868 7.80869 15.5822 8.08199 15.1918C8.3553 14.8014 8.49195 14.3328 8.49195 13.7862C8.49195 13.2396 8.3592 12.7828 8.0937 12.4158C7.82821 12.041 7.40654 11.6974 6.8287 11.3851C6.25866 11.0727 5.50903 10.7408 4.57979 10.3895C3.93167 10.1552 3.34212 9.8897 2.81113 9.59297C2.28014 9.28843 1.81942 8.94095 1.42899 8.55051C1.04636 8.16008 0.749634 7.70327 0.538799 7.18009C0.327965 6.6491 0.222548 6.04002 0.222548 5.35286C0.222548 4.408 0.452904 3.5998 0.913616 2.92826C1.38214 2.25671 2.03416 1.74524 2.86969 1.39385C3.70522 1.03465 4.6735 0.855051 5.77452 0.855051C6.68033 0.855051 7.52367 0.944851 8.30454 1.12445C9.09322 1.30405 9.84285 1.55002 10.5534 1.86237L9.79209 3.85359C9.12836 3.58028 8.46071 3.35774 7.78917 3.18594C7.11762 3.01415 6.42264 2.92826 5.70425 2.92826C5.04051 2.92826 4.47828 3.02587 4.01757 3.22108C3.56467 3.4163 3.21718 3.69351 2.97511 4.05271C2.74085 4.41191 2.62372 4.83748 2.62372 5.32943C2.62372 5.88385 2.74866 6.34456 2.99854 6.71157C3.24841 7.07858 3.64275 7.41044 4.18155 7.70717C4.72035 8.0039 5.42313 8.32016 6.2899 8.65593C7.26598 9.03075 8.0937 9.42899 8.77306 9.85066C9.46022 10.2723 9.98341 10.7799 10.3426 11.3734C10.7018 11.9668 10.8814 12.7164 10.8814 13.6223Z" fill="white"/>
<path d="M18.9165 5.09517C20.5095 5.09517 21.7003 5.45046 22.489 6.16105C23.2777 6.86384 23.672 7.97657 23.672 9.49927V18.2255H21.9854L21.5285 16.3514H21.4348C21.0756 16.8199 20.7008 17.2103 20.3104 17.5227C19.92 17.835 19.4671 18.0693 18.9517 18.2255C18.4441 18.3816 17.8233 18.4597 17.0893 18.4597C16.3084 18.4597 15.6135 18.3192 15.0044 18.0381C14.3953 17.757 13.9151 17.3353 13.5637 16.7731C13.2201 16.203 13.0483 15.4807 13.0483 14.6061C13.0483 13.2943 13.552 12.2987 14.5593 11.6193C15.5666 10.94 17.0932 10.5691 19.1391 10.5066L21.3646 10.4129V9.68668C21.3646 8.67936 21.1381 7.96877 20.6852 7.5549C20.2401 7.14104 19.6154 6.93411 18.8111 6.93411C18.1474 6.93411 17.511 7.03172 16.9019 7.22694C16.2928 7.41435 15.7072 7.6408 15.1449 7.9063L14.3953 6.19619C15.0044 5.88385 15.6955 5.62225 16.4685 5.41142C17.2494 5.20059 18.0654 5.09517 18.9165 5.09517ZM21.3411 11.959L19.5373 12.041C18.0459 12.0957 16.9956 12.3455 16.3865 12.7906C15.7853 13.2279 15.4846 13.8409 15.4846 14.6296C15.4846 15.3167 15.6916 15.8204 16.1054 16.1406C16.5193 16.4607 17.0659 16.6208 17.7452 16.6208C18.7916 16.6208 19.6506 16.328 20.3221 15.7423C21.0015 15.1489 21.3411 14.2743 21.3411 13.1186V11.959Z" fill="white"/>
<path d="M29.9736 18.2255H27.6076V0H29.9736V18.2255Z" fill="white"/>
<path d="M38.4773 16.5505C38.8131 16.5505 39.1528 16.5232 39.4963 16.4685C39.8399 16.4061 40.1367 16.328 40.3865 16.2343V18.0381C40.121 18.1552 39.7657 18.2528 39.3206 18.3309C38.8834 18.4168 38.4344 18.4597 37.9736 18.4597C37.2709 18.4597 36.6345 18.3387 36.0644 18.0966C35.4944 17.8546 35.0376 17.4407 34.694 16.8551C34.3582 16.2694 34.1903 15.4573 34.1903 14.4187V7.13324H32.3982V6.04392L34.2723 5.17716L35.104 2.38946H36.5564V5.31772H40.2928V7.13324H36.5564V14.3836C36.5564 15.1098 36.7282 15.6525 37.0717 16.0117C37.4231 16.3709 37.8917 16.5505 38.4773 16.5505Z" fill="white"/>
<path d="M53.6925 18.4597C52.1152 18.4597 50.8541 17.9014 49.9092 16.7848C48.9722 15.6681 48.5037 14.0127 48.5037 11.8184C48.5037 9.60078 48.98 7.92582 49.9326 6.79356C50.8931 5.65349 52.1659 5.08346 53.7511 5.08346C54.4148 5.08346 54.9966 5.17326 55.4963 5.35286C55.9961 5.53245 56.4256 5.77062 56.7848 6.06735C57.1518 6.36408 57.4563 6.69985 57.6984 7.07467H57.8389C57.7999 6.8326 57.7609 6.49292 57.7218 6.05564C57.6828 5.61835 57.6632 5.23572 57.6632 4.90776V0H60.0176V18.2255H58.1552L57.7687 16.4334H57.6632C57.429 16.8082 57.1284 17.1518 56.7613 17.4641C56.4021 17.7687 55.9688 18.0107 55.4612 18.1903C54.9614 18.3699 54.3719 18.4597 53.6925 18.4597ZM54.243 16.5388C55.5159 16.5388 56.4139 16.1718 56.937 15.4378C57.468 14.7038 57.7374 13.6144 57.7452 12.1698V11.8067C57.7452 10.2684 57.4915 9.08931 56.9839 8.2694C56.4841 7.44168 55.5627 7.02782 54.2196 7.02782C53.1264 7.02782 52.3026 7.4573 51.7482 8.31625C51.1937 9.1674 50.9165 10.3504 50.9165 11.8653C50.9165 13.3646 51.1937 14.5203 51.7482 15.3324C52.3026 16.1367 53.1342 16.5388 54.243 16.5388Z" fill="white"/>
<path d="M69.0952 5.08346C70.2196 5.08346 71.184 5.32552 71.9883 5.80966C72.7926 6.28599 73.4095 6.96144 73.8389 7.83602C74.2684 8.71059 74.4832 9.74134 74.4832 10.9283V12.2635H65.7218C65.7452 13.6457 66.1005 14.7077 66.7877 15.4495C67.4749 16.1835 68.4392 16.5505 69.6808 16.5505C70.5007 16.5505 71.2308 16.4724 71.8712 16.3163C72.5115 16.1601 73.1752 15.9297 73.8624 15.6252V17.6047C73.2142 17.9014 72.5622 18.1162 71.9063 18.2489C71.2582 18.3895 70.4812 18.4597 69.5754 18.4597C68.326 18.4597 67.2289 18.2099 66.284 17.7101C65.347 17.2103 64.6169 16.4724 64.0937 15.4963C63.5705 14.5124 63.3089 13.3021 63.3089 11.8653C63.3089 10.4441 63.5471 9.22987 64.0234 8.22255C64.4998 7.20742 65.1713 6.43045 66.0381 5.89165C66.9048 5.35286 67.9239 5.08346 69.0952 5.08346ZM69.0835 6.91069C68.1308 6.91069 67.3655 7.22304 66.7877 7.84773C66.2099 8.46462 65.8702 9.3509 65.7687 10.5066H72.1171C72.1093 9.796 71.9961 9.1713 71.7775 8.6325C71.5588 8.0937 71.2269 7.67204 70.7818 7.3675C70.3446 7.06296 69.7784 6.91069 69.0835 6.91069Z" fill="white"/>
<path d="M86.2079 14.6179C86.2079 15.4534 86.001 16.1601 85.5871 16.7379C85.1811 17.308 84.5876 17.7374 83.8067 18.0264C83.0259 18.3153 82.0888 18.4597 80.9956 18.4597C80.0898 18.4597 79.3089 18.3895 78.653 18.2489C77.9971 18.1162 77.4036 17.9209 76.8726 17.6632V15.5783C77.4426 15.8516 78.1025 16.0937 78.8521 16.3045C79.6018 16.5154 80.3358 16.6208 81.0542 16.6208C82.0615 16.6208 82.7877 16.4607 83.2328 16.1406C83.6857 15.8204 83.9121 15.387 83.9121 14.8404C83.9121 14.5203 83.8223 14.2391 83.6427 13.9971C83.4632 13.7472 83.1469 13.5012 82.694 13.2592C82.2489 13.0093 81.6086 12.7243 80.7731 12.4041C79.9531 12.0839 79.2504 11.7638 78.6647 11.4436C78.0869 11.1235 77.6457 10.7369 77.3411 10.284C77.0366 9.83114 76.8843 9.24549 76.8843 8.52709C76.8843 7.41044 77.3294 6.5593 78.2196 5.97365C79.1176 5.38019 80.3006 5.08346 81.7687 5.08346C82.5495 5.08346 83.2835 5.16154 83.9707 5.31772C84.6657 5.47389 85.3294 5.69253 85.9619 5.97365L85.2006 7.78917C84.6384 7.5471 84.0605 7.34797 83.467 7.1918C82.8736 7.02782 82.2684 6.94583 81.6515 6.94583C80.8472 6.94583 80.2304 7.07467 79.8009 7.33236C79.3792 7.59004 79.1684 7.94534 79.1684 8.39824C79.1684 8.74963 79.266 9.04246 79.4612 9.27672C79.6642 9.51098 80 9.74134 80.4685 9.96779C80.937 10.1864 81.5695 10.448 82.366 10.7526C83.1547 11.0493 83.8341 11.3577 84.4041 11.6779C84.9819 11.998 85.427 12.3885 85.7394 12.8492C86.0517 13.3099 86.2079 13.8995 86.2079 14.6179Z" fill="white"/>
<path d="M91.6193 5.31772V18.2255H89.265V5.31772H91.6193ZM90.4597 0.433382C90.8345 0.433382 91.1547 0.542704 91.4202 0.761347C91.6935 0.97999 91.8302 1.33529 91.8302 1.82723C91.8302 2.31918 91.6935 2.67838 91.4202 2.90483C91.1547 3.12347 90.8345 3.2328 90.4597 3.2328C90.0771 3.2328 89.753 3.12347 89.4875 2.90483C89.2299 2.67838 89.101 2.31918 89.101 1.82723C89.101 1.33529 89.2299 0.97999 89.4875 0.761347C89.753 0.542704 90.0771 0.433382 90.4597 0.433382Z" fill="white"/>
<path d="M99.2914 23.9883C97.5656 23.9883 96.2382 23.672 95.3089 23.0395C94.3875 22.407 93.9268 21.5246 93.9268 20.3924C93.9268 19.5881 94.1806 18.9048 94.6881 18.3426C95.1957 17.7882 95.9063 17.4134 96.8199 17.2182C96.4763 17.062 96.1796 16.8238 95.9297 16.5037C95.6876 16.1757 95.5666 15.8087 95.5666 15.4026C95.5666 14.9263 95.6994 14.5163 95.9649 14.1728C96.2382 13.8214 96.6442 13.4817 97.183 13.1537C96.5037 12.8726 95.957 12.408 95.5432 11.7599C95.1293 11.104 94.9224 10.3387 94.9224 9.46413C94.9224 8.53489 95.1176 7.74231 95.508 7.08638C95.9063 6.43045 96.4763 5.9307 97.2181 5.58712C97.96 5.24353 98.8619 5.07174 99.9239 5.07174C100.158 5.07174 100.4 5.08346 100.65 5.10688C100.9 5.1225 101.138 5.14983 101.365 5.18887C101.591 5.22792 101.775 5.26696 101.915 5.306H106.366V6.69985L104.07 7.05124C104.297 7.34797 104.48 7.69937 104.621 8.10542C104.761 8.51147 104.832 8.95656 104.832 9.4407C104.832 10.7526 104.383 11.7911 103.485 12.5564C102.594 13.3138 101.361 13.6925 99.7833 13.6925C99.4163 13.6847 99.0454 13.6535 98.6706 13.5988C98.3348 13.794 98.081 14.0088 97.9092 14.243C97.7374 14.4695 97.6515 14.7311 97.6515 15.0278C97.6515 15.2543 97.7257 15.4378 97.8741 15.5783C98.0303 15.7189 98.2528 15.8243 98.5417 15.8946C98.8306 15.9571 99.182 15.9883 99.5959 15.9883H101.845C103.25 15.9883 104.328 16.285 105.078 16.8785C105.827 17.4719 106.202 18.3387 106.202 19.4788C106.202 20.9234 105.609 22.0361 104.422 22.817C103.235 23.5979 101.525 23.9883 99.2914 23.9883ZM99.3733 22.2665C100.381 22.2665 101.22 22.165 101.892 21.9619C102.571 21.7589 103.082 21.47 103.426 21.0952C103.77 20.7204 103.941 20.2753 103.941 19.7599C103.941 19.2914 103.828 18.9322 103.602 18.6823C103.383 18.4402 103.055 18.2762 102.618 18.1903C102.181 18.1044 101.642 18.0615 101.001 18.0615H98.8697C98.3231 18.0615 97.8467 18.1474 97.4407 18.3192C97.0346 18.491 96.7184 18.7369 96.4919 19.0571C96.2655 19.3851 96.1523 19.7872 96.1523 20.2635C96.1523 20.9117 96.4295 21.4075 96.9839 21.7511C97.5461 22.0947 98.3426 22.2665 99.3733 22.2665ZM99.8887 12.0878C100.755 12.0878 101.404 11.8614 101.833 11.4085C102.263 10.9478 102.477 10.2919 102.477 9.4407C102.477 8.52709 102.259 7.83992 101.821 7.37921C101.384 6.9185 100.736 6.68814 99.877 6.68814C99.0415 6.68814 98.4012 6.92631 97.9561 7.40264C97.5188 7.87116 97.3001 8.55832 97.3001 9.46413C97.3001 10.2997 97.5227 10.9478 97.9678 11.4085C98.4129 11.8614 99.0532 12.0878 99.8887 12.0878Z" fill="white"/>
<path d="M115.221 5.08346C116.713 5.08346 117.857 5.45827 118.653 6.20791C119.457 6.95754 119.859 8.16008 119.859 9.81552V18.2255H117.529V10.1318C117.529 9.10102 117.302 8.32796 116.849 7.81259C116.396 7.28941 115.701 7.02782 114.764 7.02782C113.429 7.02782 112.492 7.42216 111.953 8.21083C111.422 8.99951 111.157 10.1435 111.157 11.6428V18.2255H108.802V5.31772H110.665L111.004 7.13324H111.133C111.407 6.68033 111.754 6.30161 112.176 5.99707C112.597 5.69253 113.066 5.46608 113.581 5.31772C114.104 5.16154 114.651 5.08346 115.221 5.08346Z" fill="white"/>
<path d="M138.542 14.6179C138.542 15.4534 138.335 16.1601 137.921 16.7379C137.515 17.308 136.921 17.7374 136.141 18.0264C135.36 18.3153 134.423 18.4597 133.329 18.4597C132.424 18.4597 131.643 18.3895 130.987 18.2489C130.331 18.1162 129.737 17.9209 129.206 17.6632V15.5783C129.776 15.8516 130.436 16.0937 131.186 16.3045C131.936 16.5154 132.67 16.6208 133.388 16.6208C134.395 16.6208 135.122 16.4607 135.567 16.1406C136.02 15.8204 136.246 15.387 136.246 14.8404C136.246 14.5203 136.156 14.2391 135.977 13.9971C135.797 13.7472 135.481 13.5012 135.028 13.2592C134.583 13.0093 133.942 12.7243 133.107 12.4041C132.287 12.0839 131.584 11.7638 130.999 11.4436C130.421 11.1235 129.979 10.7369 129.675 10.284C129.37 9.83114 129.218 9.24549 129.218 8.52709C129.218 7.41044 129.663 6.5593 130.553 5.97365C131.451 5.38019 132.634 5.08346 134.102 5.08346C134.883 5.08346 135.617 5.16154 136.305 5.31772C136.999 5.47389 137.663 5.69253 138.296 5.97365L137.534 7.78917C136.972 7.5471 136.394 7.34797 135.801 7.1918C135.207 7.02782 134.602 6.94583 133.985 6.94583C133.181 6.94583 132.564 7.07467 132.135 7.33236C131.713 7.59004 131.502 7.94534 131.502 8.39824C131.502 8.74963 131.6 9.04246 131.795 9.27672C131.998 9.51098 132.334 9.74134 132.802 9.96779C133.271 10.1864 133.903 10.448 134.7 10.7526C135.489 11.0493 136.168 11.3577 136.738 11.6779C137.316 11.998 137.761 12.3885 138.073 12.8492C138.386 13.3099 138.542 13.8995 138.542 14.6179Z" fill="white"/>
<path d="M139.619 5.31772H142.161L144.902 12.7555C145.042 13.1381 145.171 13.5129 145.288 13.8799C145.413 14.2391 145.519 14.5905 145.605 14.9341C145.698 15.2699 145.773 15.6018 145.827 15.9297H145.909C146.003 15.5315 146.136 15.0473 146.307 14.4773C146.479 13.9073 146.667 13.3294 146.87 12.7438L149.493 5.31772H152.023L146.448 20.0527C146.143 20.8726 145.773 21.5754 145.335 22.1611C144.906 22.7545 144.394 23.2074 143.801 23.5198C143.207 23.8399 142.505 24 141.693 24C141.318 24 140.986 23.9766 140.697 23.9297C140.416 23.8907 140.174 23.8438 139.971 23.7892V21.9151C140.143 21.9541 140.349 21.9893 140.592 22.0205C140.841 22.0517 141.099 22.0674 141.365 22.0674C141.857 22.0674 142.278 21.9697 142.63 21.7745C142.989 21.5871 143.293 21.3177 143.543 20.9663C143.801 20.6149 144.016 20.205 144.187 19.7365L144.773 18.2138L139.619 5.31772Z" fill="white"/>
<path d="M162.553 14.6179C162.553 15.4534 162.346 16.1601 161.933 16.7379C161.527 17.308 160.933 17.7374 160.152 18.0264C159.371 18.3153 158.434 18.4597 157.341 18.4597C156.435 18.4597 155.654 18.3895 154.999 18.2489C154.343 18.1162 153.749 17.9209 153.218 17.6632V15.5783C153.788 15.8516 154.448 16.0937 155.198 16.3045C155.947 16.5154 156.681 16.6208 157.4 16.6208C158.407 16.6208 159.133 16.4607 159.578 16.1406C160.031 15.8204 160.258 15.387 160.258 14.8404C160.258 14.5203 160.168 14.2391 159.988 13.9971C159.809 13.7472 159.492 13.5012 159.04 13.2592C158.594 13.0093 157.954 12.7243 157.119 12.4041C156.299 12.0839 155.596 11.7638 155.01 11.4436C154.432 11.1235 153.991 10.7369 153.687 10.284C153.382 9.83114 153.23 9.24549 153.23 8.52709C153.23 7.41044 153.675 6.5593 154.565 5.97365C155.463 5.38019 156.646 5.08346 158.114 5.08346C158.895 5.08346 159.629 5.16154 160.316 5.31772C161.011 5.47389 161.675 5.69253 162.307 5.97365L161.546 7.78917C160.984 7.5471 160.406 7.34797 159.813 7.1918C159.219 7.02782 158.614 6.94583 157.997 6.94583C157.193 6.94583 156.576 7.07467 156.146 7.33236C155.725 7.59004 155.514 7.94534 155.514 8.39824C155.514 8.74963 155.612 9.04246 155.807 9.27672C156.01 9.51098 156.346 9.74134 156.814 9.96779C157.283 10.1864 157.915 10.448 158.712 10.7526C159.5 11.0493 160.18 11.3577 160.75 11.6779C161.327 11.998 161.773 12.3885 162.085 12.8492C162.397 13.3099 162.553 13.8995 162.553 14.6179Z" fill="white"/>
<path d="M170.108 16.5505C170.444 16.5505 170.784 16.5232 171.127 16.4685C171.471 16.4061 171.768 16.328 172.018 16.2343V18.0381C171.752 18.1552 171.397 18.2528 170.952 18.3309C170.514 18.4168 170.065 18.4597 169.605 18.4597C168.902 18.4597 168.265 18.3387 167.695 18.0966C167.125 17.8546 166.669 17.4407 166.325 16.8551C165.989 16.2694 165.821 15.4573 165.821 14.4187V7.13324H164.029V6.04392L165.903 5.17716L166.735 2.38946H168.187V5.31772H171.924V7.13324H168.187V14.3836C168.187 15.1098 168.359 15.6525 168.703 16.0117C169.054 16.3709 169.523 16.5505 170.108 16.5505Z" fill="white"/>
<path d="M179.69 5.08346C180.814 5.08346 181.778 5.32552 182.583 5.80966C183.387 6.28599 184.004 6.96144 184.433 7.83602C184.863 8.71059 185.078 9.74134 185.078 10.9283V12.2635H176.316C176.34 13.6457 176.695 14.7077 177.382 15.4495C178.069 16.1835 179.034 16.5505 180.275 16.5505C181.095 16.5505 181.825 16.4724 182.466 16.3163C183.106 16.1601 183.77 15.9297 184.457 15.6252V17.6047C183.809 17.9014 183.157 18.1162 182.501 18.2489C181.853 18.3895 181.076 18.4597 180.17 18.4597C178.92 18.4597 177.823 18.2099 176.878 17.7101C175.941 17.2103 175.211 16.4724 174.688 15.4963C174.165 14.5124 173.903 13.3021 173.903 11.8653C173.903 10.4441 174.142 9.22987 174.618 8.22255C175.094 7.20742 175.766 6.43045 176.632 5.89165C177.499 5.35286 178.518 5.08346 179.69 5.08346ZM179.678 6.91069C178.725 6.91069 177.96 7.22304 177.382 7.84773C176.804 8.46462 176.465 9.3509 176.363 10.5066H182.712C182.704 9.796 182.591 9.1713 182.372 8.6325C182.153 8.0937 181.821 7.67204 181.376 7.3675C180.939 7.06296 180.373 6.91069 179.678 6.91069Z" fill="white"/>
<path d="M202.589 5.08346C204.018 5.08346 205.095 5.45827 205.821 6.20791C206.555 6.94973 206.922 8.14056 206.922 9.78038V18.2255H204.591V10.0732C204.591 9.05808 204.381 8.29673 203.959 7.78917C203.545 7.2816 202.924 7.02782 202.097 7.02782C200.925 7.02782 200.078 7.38311 199.555 8.0937C199.04 8.79649 198.782 9.83114 198.782 11.1977V18.2255H196.439V10.0732C196.439 9.39385 196.346 8.83162 196.158 8.38653C195.971 7.93363 195.693 7.59395 195.326 7.3675C194.959 7.14104 194.495 7.02782 193.933 7.02782C193.128 7.02782 192.484 7.20351 192 7.5549C191.524 7.89849 191.176 8.40996 190.958 9.08931C190.747 9.76867 190.641 10.6003 190.641 11.5842V18.2255H188.287V5.31772H190.149L190.489 7.0981H190.618C190.876 6.653 191.2 6.28209 191.59 5.98536C191.988 5.68863 192.429 5.46608 192.914 5.31772C193.398 5.16154 193.909 5.08346 194.448 5.08346C195.416 5.08346 196.232 5.25915 196.896 5.61054C197.56 5.96193 198.048 6.49683 198.36 7.21523H198.512C198.926 6.48902 199.496 5.95412 200.223 5.61054C200.957 5.25915 201.745 5.08346 202.589 5.08346Z" fill="white"/>
</svg>
