<svg width="295" height="24" viewBox="0 0 295 24" fill="none" xmlns="http://www.w3.org/2000/svg">
<path d="M235.678 9.50708V9.80253H236.833V15.5628C236.833 17.2928 236.332 17.7815 235.215 17.7815C234.512 17.7815 234.396 17.2705 234.396 17.0048C234.396 16.3748 234.359 15.9902 233.761 15.9902C233.16 15.9902 233.088 16.5718 233.088 16.7502C233.088 17.5436 233.457 18.1512 235.102 18.1512C237.064 18.1512 238.112 17.5176 238.112 15.4105V9.80253L239.303 9.80439V9.50708H235.678ZM239.283 17.0085C239.144 17.1423 239.074 17.3002 239.074 17.4916C239.074 17.683 239.144 17.8391 239.285 17.9654C239.425 18.0974 239.594 18.1605 239.788 18.1605C239.986 18.1605 240.155 18.0974 240.298 17.9654C240.436 17.8391 240.506 17.683 240.506 17.4916C240.506 17.2983 240.436 17.1385 240.298 17.0085C240.16 16.8765 239.994 16.8134 239.788 16.8134C239.586 16.8134 239.419 16.8747 239.283 17.0085ZM247.332 17.0085C247.194 17.1423 247.128 17.3002 247.128 17.4916C247.128 17.683 247.194 17.8391 247.332 17.9654C247.479 18.0974 247.64 18.1605 247.836 18.1605C248.038 18.1605 248.207 18.0974 248.348 17.9654C248.488 17.8391 248.558 17.683 248.558 17.4916C248.558 17.2983 248.488 17.1385 248.35 17.0085C248.209 16.8765 248.04 16.8134 247.836 16.8134C247.636 16.8134 247.469 16.8747 247.332 17.0085ZM241.763 9.50708V9.80253H242.805V16.373C242.805 16.8896 242.772 17.0233 242.712 17.1739C242.648 17.3411 242.502 17.473 242.287 17.5585C242.126 17.6235 241.883 17.657 241.559 17.6663V17.9376H245.38V17.6681C245.056 17.6607 244.809 17.6254 244.646 17.5696C244.419 17.4842 244.27 17.356 244.198 17.185C244.134 17.0382 244.103 16.9063 244.103 16.648V14.3978L245.048 14.394C247.793 14.394 248.566 13.3572 248.566 11.9413C248.564 10.5105 248.09 9.50708 245.31 9.50708H241.763ZM244.101 9.84155L244.757 9.83412C246.874 9.83412 247.336 10.6684 247.336 12.0193C247.336 13.3795 246.503 14.0726 244.825 14.0726H244.101V9.84155ZM258.475 9.52752C258.444 9.60556 255.786 15.9493 255.786 15.9493L255.725 15.9865L255.661 15.9493C255.661 15.9493 252.829 9.60556 252.796 9.52752H250.295V9.79881H251.379V16.3228L251.356 16.9174C251.338 17.0735 251.288 17.2147 251.206 17.3262C251.121 17.447 250.985 17.5399 250.805 17.5994C250.686 17.6365 250.512 17.6607 250.293 17.6663V17.9376H252.774V17.67C252.563 17.6625 252.472 17.6421 252.347 17.6012C252.165 17.5436 252.029 17.4581 251.938 17.3337C251.856 17.2184 251.806 17.0809 251.787 16.9174L251.759 16.3228V10.687H251.907C251.907 10.687 255.114 17.8577 255.149 17.9376H255.417L258.454 10.7669H258.529V16.5774C258.529 16.8264 258.502 17.0178 258.454 17.1664C258.393 17.3411 258.263 17.4712 258.077 17.5603C257.937 17.6198 257.726 17.6551 257.446 17.6644V17.9357H260.908V17.6644C260.632 17.6514 260.417 17.6161 260.273 17.5529C260.072 17.46 259.942 17.3225 259.885 17.1497C259.835 16.9973 259.812 16.8134 259.812 16.5755V9.80439L260.731 9.79509V9.52752H258.475ZM261.531 14.9849C261.531 17.9859 263.97 18.1847 264.496 18.1847C265.537 18.1847 267.515 17.5622 267.515 14.9273C267.515 12.8778 266.251 11.7629 264.538 11.7629C262.691 11.7629 261.531 12.9354 261.531 14.9849ZM262.91 15.0184C262.91 13.3721 263.017 12.1364 264.513 12.1364C266.129 12.1364 266.137 13.4148 266.137 14.9143C266.137 17.0698 265.753 17.8131 264.513 17.8131C263.126 17.8112 262.91 17.1478 262.91 15.0184ZM270.594 13.1175L270.506 13.1138C270.497 13.1175 270.347 12.1884 270.291 11.9134C269.86 11.9134 268.153 11.9097 268.153 11.9097V12.2237H269.309C269.309 12.2237 269.304 13.1639 269.304 13.504V16.386C269.304 16.7985 269.255 17.0865 269.164 17.2612C269.045 17.4674 268.78 17.5696 268.341 17.5696H268.155V17.9376H271.739V17.5696H271.545C271.075 17.5696 270.871 17.4712 270.745 17.2761C270.631 17.1032 270.58 16.8134 270.58 16.386V14.2249C270.58 13.4966 271.153 12.666 271.839 12.666C272.557 12.666 272.54 13.7251 273.355 13.2996C273.797 13.0673 273.722 11.8539 272.35 11.8539C271.244 11.8539 270.898 12.4801 270.594 13.1175ZM281.783 12.2274C281.374 12.5266 281.215 12.8016 281.215 13.1955C281.215 13.3795 281.267 13.5077 281.374 13.595C281.483 13.6879 281.609 13.7288 281.764 13.7288C282.121 13.7288 282.321 13.556 282.395 13.1063C282.449 12.7737 282.525 12.5842 282.695 12.4095C282.878 12.2256 283.165 12.1345 283.551 12.1345C284.001 12.1345 284.319 12.2497 284.498 12.482C284.661 12.6994 284.748 12.9967 284.748 13.3628V14.3736C283.599 14.4721 280.889 14.6821 281.009 16.6591C281.054 17.4321 281.768 18.1122 282.688 18.1122C283.706 18.1122 284.35 17.5566 284.787 17.1125C284.857 17.5343 285.264 18.036 286.007 18.036C286.842 18.036 287.34 17.644 287.399 16.6647H287.183C287.127 17.0902 286.851 17.3206 286.626 17.3206C286.242 17.3206 286.12 17.1162 286.093 16.7762L286.069 16.0051V13.4798C286.069 12.9354 285.978 12.5693 285.643 12.2479C285.313 11.9264 284.672 11.7629 283.749 11.7629C282.86 11.7629 282.202 11.919 281.783 12.2274ZM282.263 16.4269C282.263 15.3045 283.867 14.7434 284.748 14.7434V16.6833L284.727 16.7316L284.7 16.7558C284.085 17.2891 283.617 17.4786 283.274 17.4786C282.395 17.4786 282.263 16.7781 282.263 16.4269ZM289.921 13.0023L289.806 12.9986L289.581 11.9041L287.633 11.9004V12.2144C288 12.2293 288.609 12.2349 288.609 12.2349V16.3786C288.609 16.7 288.584 16.9323 288.534 17.0865C288.481 17.2705 288.357 17.3987 288.173 17.4712C288.054 17.5195 287.87 17.5473 287.633 17.5566V17.9357H290.73V17.5529C290.418 17.5288 290.208 17.4489 290.096 17.2965C289.975 17.133 289.919 16.8542 289.919 16.4436V14.8512C289.919 14.1859 289.915 13.543 290.152 13.1435C290.408 12.7105 290.876 12.4708 291.401 12.4708C291.873 12.4708 292.121 12.6158 292.276 12.9019C292.403 13.1342 292.486 13.8292 292.486 14.3067L292.47 16.2801C292.47 16.609 292.513 16.8524 292.486 17.0066C292.451 17.1887 292.366 17.3299 292.216 17.4247C292.108 17.4953 291.937 17.5325 291.72 17.5492V17.9338H294.706V17.5548C294.327 17.5306 294.081 17.4433 293.972 17.2742C293.85 17.1014 293.749 16.8115 293.749 16.3786L293.767 13.6471C293.767 13.2531 293.71 12.9149 293.557 12.6381C293.4 12.3686 293.181 12.1643 292.907 12.0286C292.63 11.8948 292.311 11.8298 291.96 11.8298C290.701 11.8335 290.196 12.5693 289.921 13.0023ZM279.948 11.5195C279.764 11.5752 279.641 11.7332 279.575 11.9989C279.527 12.2442 279.43 12.3854 279.3 12.4263C279.17 12.4634 279.026 12.4523 278.854 12.3965C278.533 12.1104 277.916 11.7629 276.834 11.7629C275.089 11.7629 274.319 12.954 274.319 14.0391C274.319 15.3101 274.829 15.9252 275.951 16.1519C276.019 16.1649 276.019 16.2373 275.961 16.2503C275.002 16.4362 274.154 16.7037 274.154 17.5752C274.154 18.1011 274.469 18.3891 274.872 18.5452C275.316 18.718 275.943 18.8072 276.727 18.822C277.414 18.8295 277.899 18.8518 278.217 18.8889C278.561 18.9261 278.83 19.0209 279.032 19.1602C279.238 19.3126 279.346 19.5374 279.346 19.8329C279.346 20.2361 279.121 20.5613 278.673 20.801C278.256 21.024 277.684 21.141 276.973 21.141C276.364 21.141 275.866 21.0778 275.415 20.8084C275.082 20.6114 275.018 20.2231 275.087 19.9425C275.15 19.6601 275.045 19.3609 274.701 19.3052C274.513 19.2754 274.276 19.3739 274.166 19.5374C274.063 19.6898 274.026 19.8719 274.026 20.0874C274.026 20.8047 274.604 21.141 275.047 21.2637C275.72 21.4606 276.168 21.5071 276.787 21.5071C277.608 21.5071 278.275 21.3863 278.753 21.1559C279.23 20.9255 279.562 20.643 279.74 20.3179C279.927 19.9908 280.018 19.6582 280.018 19.3368C280.018 18.9038 279.919 18.5507 279.725 18.2906C279.102 17.4693 278.215 17.5752 276.224 17.4842C275.266 17.4842 275.082 17.3188 275.082 17.0363C275.082 16.6238 275.437 16.4603 276.822 16.2559C278.186 16.0534 279.459 15.5721 279.459 13.9778C279.459 13.5188 279.346 13.1249 279.211 12.8499C279.492 12.9094 279.756 12.9094 279.996 12.8332C280.272 12.7514 280.45 12.6195 280.553 12.4355C280.658 12.2497 280.679 12.0751 280.623 11.9041C280.532 11.6254 280.375 11.486 280.15 11.486C280.09 11.486 280.022 11.4972 279.948 11.5195ZM275.584 14.0391C275.584 12.9187 275.992 12.0843 276.867 12.0843C277.883 12.0843 278.18 12.8443 278.18 14.015C278.18 15.691 277.629 15.9103 276.867 15.9103C276.052 15.9122 275.584 15.6279 275.584 14.0391Z" fill="white"/>
<path d="M222.159 11.5071V12.9993C222.159 13.1711 222.154 13.3391 222.143 13.5032C222.135 13.6672 222.128 13.7935 222.12 13.8821H222.159C222.276 13.6946 222.441 13.5357 222.655 13.4055C222.871 13.2727 223.148 13.2063 223.487 13.2063C224.01 13.2063 224.43 13.3938 224.745 13.7688C225.06 14.1412 225.217 14.6946 225.217 15.429C225.217 15.9133 225.144 16.3222 224.999 16.6555C224.855 16.9889 224.652 17.2402 224.389 17.4094C224.129 17.5787 223.822 17.6633 223.467 17.6633C223.131 17.6633 222.859 17.6021 222.651 17.4797C222.443 17.3547 222.28 17.2063 222.163 17.0344H222.104L221.956 17.5852H221.374V11.5071H222.159ZM223.311 13.8508C223.027 13.8508 222.801 13.9068 222.631 14.0188C222.465 14.1308 222.345 14.3 222.272 14.5266C222.199 14.7532 222.161 15.0383 222.159 15.3821V15.4407C222.159 15.9511 222.242 16.3417 222.409 16.6125C222.575 16.8834 222.878 17.0188 223.315 17.0188C223.674 17.0188 223.947 16.8808 224.131 16.6047C224.319 16.3287 224.413 15.9342 224.413 15.4211C224.413 14.9003 224.32 14.5084 224.135 14.2454C223.95 13.9823 223.676 13.8508 223.311 13.8508Z" fill="white"/>
<path d="M225.651 13.2805H226.499L227.413 15.761C227.46 15.8886 227.503 16.0136 227.542 16.136C227.583 16.2558 227.618 16.373 227.647 16.4875C227.678 16.5995 227.703 16.7102 227.721 16.8196H227.749C227.78 16.6868 227.824 16.5253 227.881 16.3352C227.939 16.1451 228.001 15.9524 228.069 15.7571L228.944 13.2805H229.788L227.928 18.1946C227.827 18.468 227.703 18.7024 227.557 18.8977C227.414 19.0956 227.243 19.2467 227.045 19.3508C226.848 19.4576 226.613 19.511 226.342 19.511C226.217 19.511 226.107 19.5032 226.01 19.4875C225.917 19.4745 225.836 19.4589 225.768 19.4407V18.8157C225.825 18.8287 225.894 18.8404 225.975 18.8508C226.058 18.8612 226.144 18.8665 226.233 18.8665C226.397 18.8665 226.538 18.8339 226.655 18.7688C226.775 18.7063 226.876 18.6165 226.96 18.4993C227.045 18.3821 227.117 18.2454 227.174 18.0891L227.37 17.5813L225.651 13.2805Z" fill="white"/>
<path d="M10.9688 13.5703C10.9688 14.5859 10.7188 15.4609 10.2188 16.1953C9.72656 16.9297 9.01562 17.4922 8.08594 17.8828C7.16406 18.2734 6.0625 18.4688 4.78125 18.4688C4.15625 18.4688 3.55859 18.4336 2.98828 18.3633C2.41797 18.293 1.87891 18.1914 1.37109 18.0586C0.871094 17.918 0.414062 17.75 0 17.5547V14.9062C0.695313 15.2109 1.47266 15.4883 2.33203 15.7383C3.19141 15.9805 4.06641 16.1016 4.95703 16.1016C5.68359 16.1016 6.28516 16.0078 6.76172 15.8203C7.24609 15.625 7.60547 15.3516 7.83984 15C8.07422 14.6406 8.19141 14.2227 8.19141 13.7461C8.19141 13.2383 8.05469 12.8086 7.78125 12.457C7.50781 12.1055 7.09375 11.7852 6.53906 11.4961C5.99219 11.1992 5.30469 10.8828 4.47656 10.5469C3.91406 10.3203 3.375 10.0625 2.85938 9.77344C2.35156 9.48438 1.89844 9.14453 1.5 8.75391C1.10156 8.36328 0.785156 7.90234 0.550781 7.37109C0.324219 6.83203 0.210938 6.19922 0.210938 5.47266C0.210938 4.50391 0.441406 3.67578 0.902344 2.98828C1.37109 2.30078 2.02734 1.77344 2.87109 1.40625C3.72266 1.03906 4.71484 0.855469 5.84766 0.855469C6.74609 0.855469 7.58984 0.949219 8.37891 1.13672C9.17578 1.32422 9.95703 1.58984 10.7227 1.93359L9.83203 4.19531C9.12891 3.90625 8.44531 3.67578 7.78125 3.50391C7.125 3.33203 6.45312 3.24609 5.76562 3.24609C5.17188 3.24609 4.66797 3.33594 4.25391 3.51562C3.83984 3.69531 3.52344 3.94922 3.30469 4.27734C3.09375 4.59766 2.98828 4.98047 2.98828 5.42578C2.98828 5.92578 3.10938 6.34766 3.35156 6.69141C3.60156 7.02734 3.98438 7.33594 4.5 7.61719C5.02344 7.89844 5.69531 8.21094 6.51562 8.55469C7.46094 8.94531 8.26172 9.35547 8.91797 9.78516C9.58203 10.2148 10.0898 10.7305 10.4414 11.332C10.793 11.9258 10.9688 12.6719 10.9688 13.5703Z" fill="white"/>
<path d="M19.0781 5.01562C20.7188 5.01562 21.957 5.37891 22.793 6.10547C23.6367 6.83203 24.0586 7.96484 24.0586 9.50391V18.2344H22.1016L21.5742 16.3945H21.4805C21.1133 16.8633 20.7344 17.25 20.3438 17.5547C19.9531 17.8594 19.5 18.0859 18.9844 18.2344C18.4766 18.3906 17.8555 18.4688 17.1211 18.4688C16.3477 18.4688 15.6562 18.3281 15.0469 18.0469C14.4375 17.7578 13.957 17.3203 13.6055 16.7344C13.2539 16.1484 13.0781 15.4062 13.0781 14.5078C13.0781 13.1719 13.5742 12.168 14.5664 11.4961C15.5664 10.8242 17.0742 10.4531 19.0898 10.3828L21.3398 10.3008V9.62109C21.3398 8.72266 21.1289 8.08203 20.707 7.69922C20.293 7.31641 19.707 7.125 18.9492 7.125C18.3008 7.125 17.6719 7.21875 17.0625 7.40625C16.4531 7.59375 15.8594 7.82422 15.2812 8.09766L14.3906 6.15234C15.0234 5.81641 15.7422 5.54297 16.5469 5.33203C17.3594 5.12109 18.2031 5.01562 19.0781 5.01562ZM21.3281 12.0352L19.6523 12.0938C18.2773 12.1406 17.3125 12.375 16.7578 12.7969C16.2031 13.2188 15.9258 13.7969 15.9258 14.5312C15.9258 15.1719 16.1172 15.6406 16.5 15.9375C16.8828 16.2266 17.3867 16.3711 18.0117 16.3711C18.9648 16.3711 19.7539 16.1016 20.3789 15.5625C21.0117 15.0156 21.3281 14.2148 21.3281 13.1602V12.0352Z" fill="white"/>
<path d="M30.6797 18.2344H27.9141V0H30.6797V18.2344Z" fill="white"/>
<path d="M39.4453 16.2422C39.8047 16.2422 40.1602 16.2109 40.5117 16.1484C40.8633 16.0781 41.1836 15.9961 41.4727 15.9023V17.9883C41.168 18.1211 40.7734 18.2344 40.2891 18.3281C39.8047 18.4219 39.3008 18.4688 38.7773 18.4688C38.043 18.4688 37.3828 18.3477 36.7969 18.1055C36.2109 17.8555 35.7461 17.4297 35.4023 16.8281C35.0586 16.2266 34.8867 15.3945 34.8867 14.332V7.35938H33.1172V6.12891L35.0156 5.15625L35.918 2.37891H37.6523V5.26172H41.3672V7.35938H37.6523V14.2969C37.6523 14.9531 37.8164 15.4414 38.1445 15.7617C38.4727 16.082 38.9062 16.2422 39.4453 16.2422Z" fill="white"/>
<path d="M64.5352 9.50391C64.5352 11.4336 64.1758 13.0469 63.457 14.3438C62.7383 15.6328 61.6953 16.6055 60.3281 17.2617C58.9609 17.9102 57.3125 18.2344 55.3828 18.2344H50.625V1.10156H55.8984C57.6719 1.10156 59.2031 1.42188 60.4922 2.0625C61.7812 2.69531 62.7773 3.63672 63.4805 4.88672C64.1836 6.12891 64.5352 7.66797 64.5352 9.50391ZM61.6055 9.58594C61.6055 8.17969 61.3828 7.02344 60.9375 6.11719C60.5 5.21094 59.8516 4.53906 58.9922 4.10156C58.1406 3.65625 57.0898 3.43359 55.8398 3.43359H53.4375V15.8789H55.4297C57.5 15.8789 59.0469 15.3516 60.0703 14.2969C61.0938 13.2422 61.6055 11.6719 61.6055 9.58594Z" fill="white"/>
<path d="M73.1133 5.01562C74.2695 5.01562 75.2617 5.25391 76.0898 5.73047C76.918 6.20703 77.5547 6.88281 78 7.75781C78.4453 8.63281 78.668 9.67969 78.668 10.8984V12.375H70.0078C70.0391 13.6328 70.375 14.6016 71.0156 15.2812C71.6641 15.9609 72.5703 16.3008 73.7344 16.3008C74.5625 16.3008 75.3047 16.2227 75.9609 16.0664C76.625 15.9023 77.3086 15.6641 78.0117 15.3516V17.5898C77.3633 17.8945 76.7031 18.1172 76.0312 18.2578C75.3594 18.3984 74.5547 18.4688 73.6172 18.4688C72.3438 18.4688 71.2227 18.2227 70.2539 17.7305C69.293 17.2305 68.5391 16.4883 67.9922 15.5039C67.4531 14.5195 67.1836 13.2969 67.1836 11.8359C67.1836 10.3828 67.4297 9.14844 67.9219 8.13281C68.4141 7.11719 69.1055 6.34375 69.9961 5.8125C70.8867 5.28125 71.9258 5.01562 73.1133 5.01562ZM73.1133 7.08984C72.2461 7.08984 71.543 7.37109 71.0039 7.93359C70.4727 8.49609 70.1602 9.32031 70.0664 10.4062H75.9727C75.9648 9.75781 75.8555 9.18359 75.6445 8.68359C75.4414 8.18359 75.1289 7.79297 74.707 7.51172C74.293 7.23047 73.7617 7.08984 73.1133 7.08984Z" fill="white"/>
<path d="M90.4922 14.5312C90.4922 15.3828 90.2852 16.1016 89.8711 16.6875C89.457 17.2734 88.8516 17.7188 88.0547 18.0234C87.2656 18.3203 86.2969 18.4688 85.1484 18.4688C84.2422 18.4688 83.4609 18.4023 82.8047 18.2695C82.1562 18.1445 81.543 17.9492 80.9648 17.6836V15.3047C81.582 15.5938 82.2734 15.8438 83.0391 16.0547C83.8125 16.2656 84.543 16.3711 85.2305 16.3711C86.1367 16.3711 86.7891 16.2305 87.1875 15.9492C87.5859 15.6602 87.7852 15.2773 87.7852 14.8008C87.7852 14.5195 87.7031 14.2695 87.5391 14.0508C87.3828 13.8242 87.0859 13.5938 86.6484 13.3594C86.2188 13.1172 85.5859 12.8281 84.75 12.4922C83.9297 12.1641 83.2383 11.8359 82.6758 11.5078C82.1133 11.1797 81.6875 10.7852 81.3984 10.3242C81.1094 9.85547 80.9648 9.25781 80.9648 8.53125C80.9648 7.38281 81.418 6.51172 82.3242 5.91797C83.2383 5.31641 84.4453 5.01562 85.9453 5.01562C86.7422 5.01562 87.4922 5.09766 88.1953 5.26172C88.9062 5.41797 89.6016 5.64844 90.2812 5.95312L89.4141 8.02734C88.8281 7.76953 88.2383 7.55859 87.6445 7.39453C87.0586 7.22266 86.4609 7.13672 85.8516 7.13672C85.1406 7.13672 84.5977 7.24609 84.2227 7.46484C83.8555 7.68359 83.6719 7.99609 83.6719 8.40234C83.6719 8.70703 83.7617 8.96484 83.9414 9.17578C84.1211 9.38672 84.4297 9.59766 84.8672 9.80859C85.3125 10.0195 85.9297 10.2812 86.7188 10.5938C87.4922 10.8906 88.1602 11.2031 88.7227 11.5312C89.293 11.8516 89.7305 12.2461 90.0352 12.7148C90.3398 13.1836 90.4922 13.7891 90.4922 14.5312Z" fill="white"/>
<path d="M96.2227 5.26172V18.2344H93.4688V5.26172H96.2227ZM94.8633 0.292969C95.2852 0.292969 95.6484 0.40625 95.9531 0.632812C96.2656 0.859375 96.4219 1.25 96.4219 1.80469C96.4219 2.35156 96.2656 2.74219 95.9531 2.97656C95.6484 3.20312 95.2852 3.31641 94.8633 3.31641C94.4258 3.31641 94.0547 3.20312 93.75 2.97656C93.4531 2.74219 93.3047 2.35156 93.3047 1.80469C93.3047 1.25 93.4531 0.859375 93.75 0.632812C94.0547 0.40625 94.4258 0.292969 94.8633 0.292969Z" fill="white"/>
<path d="M103.875 24C102.117 24 100.77 23.6836 99.832 23.0508C98.8945 22.418 98.4258 21.5312 98.4258 20.3906C98.4258 19.5938 98.6758 18.918 99.1758 18.3633C99.6758 17.8164 100.391 17.4375 101.32 17.2266C100.969 17.0703 100.664 16.8281 100.406 16.5C100.156 16.1641 100.031 15.793 100.031 15.3867C100.031 14.9023 100.168 14.4883 100.441 14.1445C100.715 13.8008 101.125 13.4688 101.672 13.1484C100.992 12.8594 100.445 12.3906 100.031 11.7422C99.625 11.0859 99.4219 10.3164 99.4219 9.43359C99.4219 8.49609 99.6211 7.69922 100.02 7.04297C100.418 6.37891 101 5.875 101.766 5.53125C102.531 5.17969 103.457 5.00391 104.543 5.00391C104.777 5.00391 105.031 5.01953 105.305 5.05078C105.586 5.07422 105.844 5.10547 106.078 5.14453C106.32 5.17578 106.504 5.21094 106.629 5.25H111.117V6.78516L108.914 7.19531C109.125 7.49219 109.293 7.83203 109.418 8.21484C109.543 8.58984 109.605 9 109.605 9.44531C109.605 10.7891 109.141 11.8477 108.211 12.6211C107.289 13.3867 106.016 13.7695 104.391 13.7695C104 13.7539 103.621 13.7227 103.254 13.6758C102.973 13.8477 102.758 14.0391 102.609 14.25C102.461 14.4531 102.387 14.6836 102.387 14.9414C102.387 15.1523 102.461 15.3242 102.609 15.457C102.758 15.582 102.977 15.6758 103.266 15.7383C103.562 15.8008 103.922 15.832 104.344 15.832H106.582C108.004 15.832 109.09 16.1328 109.84 16.7344C110.59 17.3359 110.965 18.2188 110.965 19.3828C110.965 20.8594 110.355 21.9961 109.137 22.793C107.918 23.5977 106.164 24 103.875 24ZM103.98 22.0664C104.941 22.0664 105.75 21.9727 106.406 21.7852C107.062 21.5977 107.559 21.3281 107.895 20.9766C108.23 20.6328 108.398 20.2227 108.398 19.7461C108.398 19.3242 108.293 19 108.082 18.7734C107.871 18.5469 107.555 18.3906 107.133 18.3047C106.711 18.2188 106.188 18.1758 105.562 18.1758H103.523C103.016 18.1758 102.566 18.2539 102.176 18.4102C101.785 18.5742 101.48 18.8086 101.262 19.1133C101.051 19.418 100.945 19.7852 100.945 20.2148C100.945 20.8086 101.207 21.2656 101.73 21.5859C102.262 21.9062 103.012 22.0664 103.98 22.0664ZM104.52 11.9648C105.324 11.9648 105.922 11.7461 106.312 11.3086C106.703 10.8633 106.898 10.2383 106.898 9.43359C106.898 8.55859 106.695 7.90234 106.289 7.46484C105.891 7.02734 105.297 6.80859 104.508 6.80859C103.734 6.80859 103.145 7.03125 102.738 7.47656C102.34 7.92188 102.141 8.58203 102.141 9.45703C102.141 10.2461 102.34 10.8633 102.738 11.3086C103.145 11.7461 103.738 11.9648 104.52 11.9648Z" fill="white"/>
<path d="M120.246 5.01562C121.707 5.01562 122.844 5.39453 123.656 6.15234C124.477 6.90234 124.887 8.10938 124.887 9.77344V18.2344H122.133V10.2891C122.133 9.28125 121.926 8.52734 121.512 8.02734C121.098 7.51953 120.457 7.26562 119.59 7.26562C118.332 7.26562 117.457 7.65234 116.965 8.42578C116.48 9.19922 116.238 10.3203 116.238 11.7891V18.2344H113.484V5.26172H115.629L116.016 7.01953H116.168C116.449 6.56641 116.797 6.19531 117.211 5.90625C117.633 5.60938 118.102 5.38672 118.617 5.23828C119.141 5.08984 119.684 5.01562 120.246 5.01562Z" fill="white"/>
<path d="M145.148 13.5703C145.148 14.5859 144.898 15.4609 144.398 16.1953C143.906 16.9297 143.195 17.4922 142.266 17.8828C141.344 18.2734 140.242 18.4688 138.961 18.4688C138.336 18.4688 137.738 18.4336 137.168 18.3633C136.598 18.293 136.059 18.1914 135.551 18.0586C135.051 17.918 134.594 17.75 134.18 17.5547V14.9062C134.875 15.2109 135.652 15.4883 136.512 15.7383C137.371 15.9805 138.246 16.1016 139.137 16.1016C139.863 16.1016 140.465 16.0078 140.941 15.8203C141.426 15.625 141.785 15.3516 142.02 15C142.254 14.6406 142.371 14.2227 142.371 13.7461C142.371 13.2383 142.234 12.8086 141.961 12.457C141.688 12.1055 141.273 11.7852 140.719 11.4961C140.172 11.1992 139.484 10.8828 138.656 10.5469C138.094 10.3203 137.555 10.0625 137.039 9.77344C136.531 9.48438 136.078 9.14453 135.68 8.75391C135.281 8.36328 134.965 7.90234 134.73 7.37109C134.504 6.83203 134.391 6.19922 134.391 5.47266C134.391 4.50391 134.621 3.67578 135.082 2.98828C135.551 2.30078 136.207 1.77344 137.051 1.40625C137.902 1.03906 138.895 0.855469 140.027 0.855469C140.926 0.855469 141.77 0.949219 142.559 1.13672C143.355 1.32422 144.137 1.58984 144.902 1.93359L144.012 4.19531C143.309 3.90625 142.625 3.67578 141.961 3.50391C141.305 3.33203 140.633 3.24609 139.945 3.24609C139.352 3.24609 138.848 3.33594 138.434 3.51562C138.02 3.69531 137.703 3.94922 137.484 4.27734C137.273 4.59766 137.168 4.98047 137.168 5.42578C137.168 5.92578 137.289 6.34766 137.531 6.69141C137.781 7.02734 138.164 7.33594 138.68 7.61719C139.203 7.89844 139.875 8.21094 140.695 8.55469C141.641 8.94531 142.441 9.35547 143.098 9.78516C143.762 10.2148 144.27 10.7305 144.621 11.332C144.973 11.9258 145.148 12.6719 145.148 13.5703Z" fill="white"/>
<path d="M146.215 5.26172H149.215L151.875 12.668C151.992 13.0039 152.098 13.3359 152.191 13.6641C152.293 13.9844 152.379 14.3008 152.449 14.6133C152.527 14.9258 152.59 15.2383 152.637 15.5508H152.707C152.785 15.1445 152.895 14.6914 153.035 14.1914C153.184 13.6836 153.348 13.1758 153.527 12.668L156.082 5.26172H159.047L153.48 20.0156C153.16 20.8594 152.766 21.5781 152.297 22.1719C151.836 22.7734 151.289 23.2266 150.656 23.5312C150.023 23.8438 149.301 24 148.488 24C148.098 24 147.758 23.9766 147.469 23.9297C147.18 23.8906 146.934 23.8477 146.73 23.8008V21.5977C146.895 21.6367 147.102 21.6719 147.352 21.7031C147.602 21.7344 147.859 21.75 148.125 21.75C148.617 21.75 149.043 21.6523 149.402 21.457C149.762 21.2617 150.066 20.9844 150.316 20.625C150.566 20.2734 150.773 19.8711 150.938 19.418L151.395 18.1992L146.215 5.26172Z" fill="white"/>
<path d="M169.734 14.5312C169.734 15.3828 169.527 16.1016 169.113 16.6875C168.699 17.2734 168.094 17.7188 167.297 18.0234C166.508 18.3203 165.539 18.4688 164.391 18.4688C163.484 18.4688 162.703 18.4023 162.047 18.2695C161.398 18.1445 160.785 17.9492 160.207 17.6836V15.3047C160.824 15.5938 161.516 15.8438 162.281 16.0547C163.055 16.2656 163.785 16.3711 164.473 16.3711C165.379 16.3711 166.031 16.2305 166.43 15.9492C166.828 15.6602 167.027 15.2773 167.027 14.8008C167.027 14.5195 166.945 14.2695 166.781 14.0508C166.625 13.8242 166.328 13.5938 165.891 13.3594C165.461 13.1172 164.828 12.8281 163.992 12.4922C163.172 12.1641 162.48 11.8359 161.918 11.5078C161.355 11.1797 160.93 10.7852 160.641 10.3242C160.352 9.85547 160.207 9.25781 160.207 8.53125C160.207 7.38281 160.66 6.51172 161.566 5.91797C162.48 5.31641 163.688 5.01562 165.188 5.01562C165.984 5.01562 166.734 5.09766 167.438 5.26172C168.148 5.41797 168.844 5.64844 169.523 5.95312L168.656 8.02734C168.07 7.76953 167.48 7.55859 166.887 7.39453C166.301 7.22266 165.703 7.13672 165.094 7.13672C164.383 7.13672 163.84 7.24609 163.465 7.46484C163.098 7.68359 162.914 7.99609 162.914 8.40234C162.914 8.70703 163.004 8.96484 163.184 9.17578C163.363 9.38672 163.672 9.59766 164.109 9.80859C164.555 10.0195 165.172 10.2812 165.961 10.5938C166.734 10.8906 167.402 11.2031 167.965 11.5312C168.535 11.8516 168.973 12.2461 169.277 12.7148C169.582 13.1836 169.734 13.7891 169.734 14.5312Z" fill="white"/>
<path d="M177.539 16.2422C177.898 16.2422 178.254 16.2109 178.605 16.1484C178.957 16.0781 179.277 15.9961 179.566 15.9023V17.9883C179.262 18.1211 178.867 18.2344 178.383 18.3281C177.898 18.4219 177.395 18.4688 176.871 18.4688C176.137 18.4688 175.477 18.3477 174.891 18.1055C174.305 17.8555 173.84 17.4297 173.496 16.8281C173.152 16.2266 172.98 15.3945 172.98 14.332V7.35938H171.211V6.12891L173.109 5.15625L174.012 2.37891H175.746V5.26172H179.461V7.35938H175.746V14.2969C175.746 14.9531 175.91 15.4414 176.238 15.7617C176.566 16.082 177 16.2422 177.539 16.2422Z" fill="white"/>
<path d="M187.371 5.01562C188.527 5.01562 189.52 5.25391 190.348 5.73047C191.176 6.20703 191.812 6.88281 192.258 7.75781C192.703 8.63281 192.926 9.67969 192.926 10.8984V12.375H184.266C184.297 13.6328 184.633 14.6016 185.273 15.2812C185.922 15.9609 186.828 16.3008 187.992 16.3008C188.82 16.3008 189.562 16.2227 190.219 16.0664C190.883 15.9023 191.566 15.6641 192.27 15.3516V17.5898C191.621 17.8945 190.961 18.1172 190.289 18.2578C189.617 18.3984 188.812 18.4688 187.875 18.4688C186.602 18.4688 185.48 18.2227 184.512 17.7305C183.551 17.2305 182.797 16.4883 182.25 15.5039C181.711 14.5195 181.441 13.2969 181.441 11.8359C181.441 10.3828 181.688 9.14844 182.18 8.13281C182.672 7.11719 183.363 6.34375 184.254 5.8125C185.145 5.28125 186.184 5.01562 187.371 5.01562ZM187.371 7.08984C186.504 7.08984 185.801 7.37109 185.262 7.93359C184.73 8.49609 184.418 9.32031 184.324 10.4062H190.23C190.223 9.75781 190.113 9.18359 189.902 8.68359C189.699 8.18359 189.387 7.79297 188.965 7.51172C188.551 7.23047 188.02 7.08984 187.371 7.08984Z" fill="white"/>
<path d="M210.691 5.01562C212.145 5.01562 213.238 5.39062 213.973 6.14062C214.715 6.89062 215.086 8.09375 215.086 9.75V18.2344H212.332V10.2422C212.332 9.25781 212.141 8.51562 211.758 8.01562C211.375 7.51562 210.793 7.26562 210.012 7.26562C208.918 7.26562 208.129 7.61719 207.645 8.32031C207.168 9.01562 206.93 10.0273 206.93 11.3555V18.2344H204.176V10.2422C204.176 9.58594 204.09 9.03906 203.918 8.60156C203.754 8.15625 203.5 7.82422 203.156 7.60547C202.812 7.37891 202.379 7.26562 201.855 7.26562C201.098 7.26562 200.492 7.4375 200.039 7.78125C199.594 8.125 199.273 8.63281 199.078 9.30469C198.883 9.96875 198.785 10.7852 198.785 11.7539V18.2344H196.031V5.26172H198.176L198.562 7.00781H198.715C198.98 6.55469 199.309 6.18359 199.699 5.89453C200.098 5.59766 200.539 5.37891 201.023 5.23828C201.508 5.08984 202.012 5.01562 202.535 5.01562C203.504 5.01562 204.32 5.1875 204.984 5.53125C205.648 5.86719 206.145 6.38281 206.473 7.07812H206.684C207.09 6.375 207.656 5.85547 208.383 5.51953C209.109 5.18359 209.879 5.01562 210.691 5.01562Z" fill="white"/>
</svg>
