<svg width="200" height="36" viewBox="0 0 200 36" fill="none" xmlns="http://www.w3.org/2000/svg">
<path d="M10.1994 12.6185C10.1994 13.5629 9.96695 14.3765 9.50202 15.0594C9.04435 15.7423 8.38328 16.2653 7.5188 16.6285C6.66158 16.9918 5.63728 17.1734 4.4459 17.1734C3.86473 17.1734 3.309 17.1407 2.77869 17.0753C2.24837 17.0099 1.74712 16.9155 1.27493 16.792C0.809996 16.6612 0.385021 16.505 0 16.3234V13.8607C0.646544 14.1441 1.36937 14.4019 2.16846 14.6344C2.96756 14.8596 3.78119 14.9722 4.60935 14.9722C5.28495 14.9722 5.84432 14.885 6.28746 14.7107C6.73786 14.5291 7.07203 14.2748 7.28996 13.9479C7.5079 13.6137 7.61687 13.2251 7.61687 12.782C7.61687 12.3098 7.48974 11.9102 7.23548 11.5833C6.98122 11.2564 6.5962 10.9586 6.08042 10.6898C5.5719 10.4137 4.93262 10.1195 4.16258 9.80713C3.63953 9.59645 3.13828 9.35672 2.65882 9.08794C2.18663 8.81915 1.76528 8.50314 1.39479 8.13991C1.0243 7.77669 0.730086 7.34808 0.51215 6.85409C0.301478 6.35284 0.196143 5.76441 0.196143 5.08881C0.196143 4.18801 0.410446 3.41797 0.839054 2.77869C1.27493 2.13941 1.88515 1.64905 2.66972 1.30762C3.46155 0.966184 4.38415 0.795467 5.43751 0.795467C6.27293 0.795467 7.0575 0.882641 7.79122 1.05699C8.5322 1.23134 9.25865 1.47833 9.97058 1.79797L9.14242 3.90106C8.48861 3.63227 7.85297 3.41797 7.23548 3.25815C6.62526 3.09833 6.00051 3.01842 5.36123 3.01842C4.80912 3.01842 4.34056 3.10196 3.95554 3.26904C3.57052 3.43613 3.27631 3.67222 3.0729 3.97733C2.87676 4.27518 2.77869 4.63114 2.77869 5.04522C2.77869 5.51015 2.89129 5.90244 3.11649 6.22208C3.34895 6.53445 3.70491 6.8214 4.18437 7.08292C4.6711 7.34445 5.29585 7.63503 6.05862 7.95467C6.93763 8.3179 7.68225 8.69928 8.29247 9.09883C8.90996 9.49838 9.38215 9.97784 9.70905 10.5372C10.036 11.0893 10.1994 11.7831 10.1994 12.6185Z" fill="white"/>
<path d="M17.74 4.66383C19.2656 4.66383 20.417 5.00163 21.1943 5.67724C21.9789 6.35284 22.3711 7.4062 22.3711 8.83731V16.9554H20.5514L20.061 15.2446H19.9738C19.6324 15.6805 19.2801 16.0401 18.9169 16.3234C18.5536 16.6067 18.1323 16.8174 17.6528 16.9554C17.1806 17.1007 16.6031 17.1734 15.9202 17.1734C15.201 17.1734 14.5581 17.0426 13.9915 16.7811C13.4249 16.5123 12.9781 16.1055 12.6512 15.5606C12.3243 15.0158 12.1608 14.3257 12.1608 13.4902C12.1608 12.248 12.6221 11.3145 13.5447 10.6898C14.4746 10.065 15.8766 9.71995 17.7509 9.65457L19.8431 9.57829V8.94628C19.8431 8.11086 19.6469 7.51516 19.2547 7.1592C18.8696 6.80324 18.3248 6.62526 17.6201 6.62526C17.0172 6.62526 16.4324 6.71243 15.8658 6.88678C15.2991 7.06113 14.747 7.27543 14.2094 7.52969L13.3813 5.72082C13.9697 5.40845 14.638 5.15419 15.3863 4.95805C16.1418 4.7619 16.9264 4.66383 17.74 4.66383ZM19.8322 11.191L18.2739 11.2455C16.9954 11.2891 16.0982 11.507 15.5824 11.8993C15.0667 12.2916 14.8088 12.8292 14.8088 13.512C14.8088 14.1077 14.9867 14.5436 15.3427 14.8197C15.6987 15.0884 16.1672 15.2228 16.7484 15.2228C17.6347 15.2228 18.3684 14.9722 18.9495 14.471C19.538 13.9624 19.8322 13.2178 19.8322 12.2371V11.191Z" fill="white"/>
<path d="M28.5278 16.9554H25.9562V0H28.5278V16.9554Z" fill="white"/>
<path d="M36.6787 15.103C37.0128 15.103 37.3434 15.0739 37.6703 15.0158C37.9972 14.9504 38.295 14.8741 38.5638 14.787V16.7266C38.2805 16.8501 37.9136 16.9554 37.4632 17.0426C37.0128 17.1298 36.5443 17.1734 36.0575 17.1734C35.3747 17.1734 34.7608 17.0608 34.216 16.8356C33.6711 16.6031 33.2389 16.2072 32.9193 15.6478C32.5996 15.0884 32.4398 14.3148 32.4398 13.3268V6.84319H30.7944V5.69903L32.5597 4.7946L33.3987 2.21205H35.0114V4.89267H38.4657V6.84319H35.0114V13.2941C35.0114 13.9043 35.164 14.3584 35.4691 14.6562C35.7742 14.9541 36.1774 15.103 36.6787 15.103Z" fill="white"/>
<path d="M60.0087 8.83731C60.0087 10.6317 59.6745 12.1318 59.0062 13.3377C58.3379 14.5363 57.3681 15.4408 56.0968 16.051C54.8255 16.654 53.2927 16.9554 51.4983 16.9554H47.0742V1.0243H51.9778C53.6268 1.0243 55.0507 1.32215 56.2493 1.91784C57.448 2.50627 58.3742 3.38164 59.028 4.54397C59.6818 5.69903 60.0087 7.13014 60.0087 8.83731ZM57.2845 8.91359C57.2845 7.60597 57.0775 6.53082 56.6634 5.68813C56.2566 4.84545 55.6536 4.2207 54.8545 3.81388C54.0627 3.3998 53.0856 3.19276 51.9233 3.19276H49.6894V14.7652H51.5419C53.467 14.7652 54.9054 14.2748 55.857 13.2941C56.8087 12.3134 57.2845 10.8532 57.2845 8.91359Z" fill="white"/>
<path d="M67.9852 4.66383C69.0603 4.66383 69.9829 4.8854 70.753 5.32854C71.523 5.77168 72.1151 6.40006 72.5292 7.21369C72.9432 8.02731 73.1503 9.00076 73.1503 10.134V11.507H65.0975C65.1266 12.6766 65.439 13.5774 66.0347 14.2094C66.6376 14.8415 67.4803 15.1575 68.5627 15.1575C69.3327 15.1575 70.0229 15.0848 70.6331 14.9395C71.2506 14.787 71.8862 14.5654 72.54 14.2748V16.3561C71.9371 16.6394 71.3232 16.8465 70.6985 16.9772C70.0737 17.108 69.3255 17.1734 68.4537 17.1734C67.2696 17.1734 66.2272 16.9445 65.3264 16.4869C64.4328 16.0219 63.7318 15.3318 63.2233 14.4165C62.722 13.5011 62.4714 12.3642 62.4714 11.0058C62.4714 9.65457 62.7002 8.50677 63.1579 7.56238C63.6156 6.61799 64.2585 5.89881 65.0866 5.40482C65.9148 4.91083 66.881 4.66383 67.9852 4.66383ZM67.9852 6.59257C67.1788 6.59257 66.525 6.85409 66.0238 7.37714C65.5298 7.90019 65.2392 8.66659 65.152 9.67636H70.644C70.6367 9.07341 70.535 8.53946 70.3389 8.07453C70.15 7.6096 69.8594 7.24638 69.4671 6.98485C69.0821 6.72333 68.5881 6.59257 67.9852 6.59257Z" fill="white"/>
<path d="M84.1451 13.512C84.1451 14.3039 83.9526 14.9722 83.5676 15.5171C83.1826 16.0619 82.6196 16.476 81.8786 16.7593C81.1449 17.0353 80.2441 17.1734 79.1762 17.1734C78.3335 17.1734 77.6071 17.1116 76.9968 16.9881C76.3939 16.8719 75.8236 16.6903 75.286 16.4433V14.2312C75.8599 14.5 76.5029 14.7325 77.2148 14.9286C77.934 15.1248 78.6132 15.2228 79.2525 15.2228C80.0952 15.2228 80.7018 15.0921 81.0722 14.8306C81.4427 14.5618 81.628 14.2058 81.628 13.7627C81.628 13.5011 81.5517 13.2687 81.3991 13.0653C81.2539 12.8546 80.9778 12.6403 80.571 12.4224C80.1714 12.1972 79.583 11.9284 78.8057 11.616C78.0429 11.3109 77.4 11.0058 76.877 10.7007C76.3539 10.3956 75.958 10.0287 75.6892 9.60009C75.4204 9.16422 75.286 8.60848 75.286 7.93288C75.286 6.86499 75.7074 6.05499 76.5501 5.50289C77.4 4.94352 78.5224 4.66383 79.9172 4.66383C80.6582 4.66383 81.3556 4.74011 82.0094 4.89267C82.6704 5.03796 83.317 5.25226 83.949 5.53558L83.1426 7.46431C82.5978 7.22458 82.0493 7.02844 81.4972 6.87589C80.9524 6.71607 80.3966 6.63616 79.83 6.63616C79.1689 6.63616 78.6641 6.73786 78.3154 6.94127C77.9739 7.14467 77.8032 7.43525 77.8032 7.81301C77.8032 8.09633 77.8867 8.33606 78.0538 8.5322C78.2209 8.72834 78.5079 8.92449 78.9147 9.12063C79.3288 9.31677 79.9027 9.56013 80.6364 9.85071C81.3556 10.1268 81.9767 10.4173 82.4997 10.7225C83.03 11.0203 83.4369 11.3872 83.7202 11.823C84.0035 12.2589 84.1451 12.8219 84.1451 13.512Z" fill="white"/>
<path d="M89.4737 4.89267V16.9554H86.9129V4.89267H89.4737ZM88.2097 0.27242C88.6019 0.27242 88.9397 0.377756 89.2231 0.588428C89.5136 0.799099 89.6589 1.16233 89.6589 1.67811C89.6589 2.18663 89.5136 2.54985 89.2231 2.76779C88.9397 2.97846 88.6019 3.0838 88.2097 3.0838C87.8028 3.0838 87.4578 2.97846 87.1745 2.76779C86.8984 2.54985 86.7604 2.18663 86.7604 1.67811C86.7604 1.16233 86.8984 0.799099 87.1745 0.588428C87.4578 0.377756 87.8028 0.27242 88.2097 0.27242Z" fill="white"/>
<path d="M96.5893 22.3167C94.9548 22.3167 93.7016 22.0224 92.8299 21.434C91.9582 20.8456 91.5223 20.0211 91.5223 18.9604C91.5223 18.2195 91.7547 17.5911 92.2197 17.0753C92.6846 16.5668 93.3493 16.2144 94.2138 16.0183C93.8869 15.873 93.6036 15.6478 93.3638 15.3427C93.1314 15.0303 93.0151 14.6853 93.0151 14.3075C93.0151 13.8571 93.1423 13.4721 93.3965 13.1524C93.6508 12.8328 94.0322 12.5241 94.5407 12.2262C93.9087 11.9574 93.4002 11.5216 93.0151 10.9186C92.6374 10.3084 92.4485 9.59282 92.4485 8.77193C92.4485 7.90019 92.6338 7.1592 93.0042 6.54898C93.3747 5.9315 93.9159 5.46293 94.6279 5.14329C95.3398 4.81639 96.2006 4.65294 97.2104 4.65294C97.4284 4.65294 97.6645 4.66747 97.9187 4.69652C98.1802 4.71832 98.42 4.74738 98.6379 4.7837C98.8631 4.81276 99.0338 4.84545 99.15 4.88177H103.324V6.30925L101.275 6.69064C101.471 6.96669 101.627 7.2827 101.743 7.63866C101.86 7.98736 101.918 8.36875 101.918 8.78283C101.918 10.0323 101.486 11.0167 100.621 11.7359C99.7639 12.4478 98.5798 12.8037 97.0688 12.8037C96.7055 12.7892 96.3532 12.7602 96.0118 12.7166C95.7502 12.8764 95.5505 13.0544 95.4124 13.2505C95.2744 13.4394 95.2054 13.6537 95.2054 13.8934C95.2054 14.0896 95.2744 14.2494 95.4124 14.3729C95.5505 14.4891 95.7539 14.5763 96.0227 14.6344C96.2987 14.6925 96.6329 14.7216 97.0252 14.7216H99.1065C100.429 14.7216 101.438 15.0013 102.136 15.5606C102.833 16.12 103.182 16.9409 103.182 18.0233C103.182 19.3963 102.615 20.4533 101.482 21.1943C100.349 21.9425 98.7178 22.3167 96.5893 22.3167ZM96.6874 20.5187C97.5809 20.5187 98.3328 20.4315 98.943 20.2572C99.5532 20.0828 100.015 19.8322 100.327 19.5053C100.639 19.1856 100.795 18.8043 100.795 18.3611C100.795 17.9688 100.697 17.6674 100.501 17.4567C100.305 17.246 100.011 17.1007 99.6186 17.0208C99.2263 16.9409 98.7396 16.9009 98.1584 16.9009H96.2624C95.7902 16.9009 95.3725 16.9736 95.0093 17.1189C94.646 17.2714 94.3627 17.4894 94.1593 17.7727C93.9632 18.056 93.8651 18.3974 93.8651 18.797C93.8651 19.3491 94.1085 19.7741 94.5952 20.0719C95.0892 20.3698 95.7866 20.5187 96.6874 20.5187ZM97.1886 11.1256C97.9369 11.1256 98.4926 10.9222 98.8558 10.5154C99.2191 10.1013 99.4007 9.52018 99.4007 8.77193C99.4007 7.9583 99.2118 7.34808 98.834 6.94127C98.4635 6.53445 97.9114 6.33105 97.1777 6.33105C96.4585 6.33105 95.9101 6.53808 95.5323 6.95216C95.1618 7.36624 94.9766 7.9801 94.9766 8.79372C94.9766 9.52744 95.1618 10.1013 95.5323 10.5154C95.9101 10.9222 96.4622 11.1256 97.1886 11.1256Z" fill="white"/>
<path d="M111.812 4.66383C113.171 4.66383 114.228 5.01616 114.983 5.72082C115.746 6.41822 116.127 7.54059 116.127 9.08794V16.9554H113.567V9.5674C113.567 8.63027 113.374 7.92924 112.989 7.46431C112.604 6.99212 112.008 6.75602 111.202 6.75602C110.032 6.75602 109.219 7.11561 108.761 7.8348C108.311 8.55399 108.085 9.59645 108.085 10.9622V16.9554H105.525V4.89267H107.519L107.878 6.52719H108.02C108.282 6.10584 108.605 5.76078 108.99 5.49199C109.382 5.21594 109.818 5.0089 110.297 4.87087C110.784 4.73285 111.289 4.66383 111.812 4.66383Z" fill="white"/>
<path d="M134.968 12.6185C134.968 13.5629 134.735 14.3765 134.27 15.0594C133.813 15.7423 133.152 16.2653 132.287 16.6285C131.43 16.9918 130.406 17.1734 129.214 17.1734C128.633 17.1734 128.077 17.1407 127.547 17.0753C127.017 17.0099 126.516 16.9155 126.043 16.792C125.578 16.6612 125.153 16.505 124.768 16.3234V13.8607C125.415 14.1441 126.138 14.4019 126.937 14.6344C127.736 14.8596 128.55 14.9722 129.378 14.9722C130.053 14.9722 130.613 14.885 131.056 14.7107C131.506 14.5291 131.84 14.2748 132.058 13.9479C132.276 13.6137 132.385 13.2251 132.385 12.782C132.385 12.3098 132.258 11.9102 132.004 11.5833C131.75 11.2564 131.365 10.9586 130.849 10.6898C130.34 10.4137 129.701 10.1195 128.931 9.80713C128.408 9.59645 127.907 9.35672 127.427 9.08794C126.955 8.81915 126.534 8.50314 126.163 8.13991C125.793 7.77669 125.499 7.34808 125.281 6.85409C125.07 6.35284 124.965 5.76441 124.965 5.08881C124.965 4.18801 125.179 3.41797 125.607 2.77869C126.043 2.13941 126.654 1.64905 127.438 1.30762C128.23 0.966184 129.153 0.795467 130.206 0.795467C131.041 0.795467 131.826 0.882641 132.56 1.05699C133.301 1.23134 134.027 1.47833 134.739 1.79797L133.911 3.90106C133.257 3.63227 132.621 3.41797 132.004 3.25815C131.394 3.09833 130.769 3.01842 130.13 3.01842C129.578 3.01842 129.109 3.10196 128.724 3.26904C128.339 3.43613 128.045 3.67222 127.841 3.97733C127.645 4.27518 127.547 4.63114 127.547 5.04522C127.547 5.51015 127.66 5.90244 127.885 6.22208C128.117 6.53445 128.473 6.8214 128.953 7.08292C129.44 7.34445 130.064 7.63503 130.827 7.95467C131.706 8.3179 132.451 8.69928 133.061 9.09883C133.678 9.49838 134.151 9.97784 134.477 10.5372C134.804 11.0893 134.968 11.7831 134.968 12.6185Z" fill="white"/>
<path d="M135.959 4.89267H138.749L141.223 11.7794C141.332 12.0918 141.43 12.4006 141.517 12.7057C141.611 13.0035 141.691 13.2977 141.757 13.5883C141.829 13.8789 141.887 14.1695 141.931 14.4601H141.996C142.069 14.0823 142.171 13.661 142.301 13.196C142.439 12.7238 142.592 12.2516 142.759 11.7794L145.135 4.89267H147.891L142.715 18.6117C142.418 19.3963 142.051 20.0647 141.615 20.6168C141.186 21.1761 140.678 21.5975 140.089 21.8808C139.501 22.1714 138.829 22.3167 138.073 22.3167C137.71 22.3167 137.394 22.2949 137.125 22.2513C136.857 22.215 136.628 22.175 136.439 22.1314V20.0828C136.591 20.1191 136.784 20.1518 137.016 20.1809C137.249 20.2099 137.489 20.2245 137.736 20.2245C138.193 20.2245 138.589 20.1337 138.923 19.9521C139.258 19.7704 139.541 19.5126 139.773 19.1784C140.006 18.8515 140.198 18.4774 140.351 18.056L140.776 16.9227L135.959 4.89267Z" fill="white"/>
<path d="M157.829 13.512C157.829 14.3039 157.637 14.9722 157.252 15.5171C156.867 16.0619 156.304 16.476 155.563 16.7593C154.829 17.0353 153.928 17.1734 152.86 17.1734C152.018 17.1734 151.291 17.1116 150.681 16.9881C150.078 16.8719 149.508 16.6903 148.97 16.4433V14.2312C149.544 14.5 150.187 14.7325 150.899 14.9286C151.618 15.1248 152.297 15.2228 152.937 15.2228C153.779 15.2228 154.386 15.0921 154.756 14.8306C155.127 14.5618 155.312 14.2058 155.312 13.7627C155.312 13.5011 155.236 13.2687 155.083 13.0653C154.938 12.8546 154.662 12.6403 154.255 12.4224C153.856 12.1972 153.267 11.9284 152.49 11.616C151.727 11.3109 151.084 11.0058 150.561 10.7007C150.038 10.3956 149.642 10.0287 149.373 9.60009C149.105 9.16422 148.97 8.60848 148.97 7.93288C148.97 6.86499 149.392 6.05499 150.234 5.50289C151.084 4.94352 152.207 4.66383 153.601 4.66383C154.342 4.66383 155.04 4.74011 155.694 4.89267C156.355 5.03796 157.001 5.25226 157.633 5.53558L156.827 7.46431C156.282 7.22458 155.734 7.02844 155.181 6.87589C154.637 6.71607 154.081 6.63616 153.514 6.63616C152.853 6.63616 152.348 6.73786 152 6.94127C151.658 7.14467 151.487 7.43525 151.487 7.81301C151.487 8.09633 151.571 8.33606 151.738 8.5322C151.905 8.72834 152.192 8.92449 152.599 9.12063C153.013 9.31677 153.587 9.56013 154.321 9.85071C155.04 10.1268 155.661 10.4173 156.184 10.7225C156.714 11.0203 157.121 11.3872 157.404 11.823C157.688 12.2589 157.829 12.8219 157.829 13.512Z" fill="white"/>
<path d="M165.087 15.103C165.421 15.103 165.751 15.0739 166.078 15.0158C166.405 14.9504 166.703 14.8741 166.972 14.787V16.7266C166.688 16.8501 166.322 16.9554 165.871 17.0426C165.421 17.1298 164.952 17.1734 164.466 17.1734C163.783 17.1734 163.169 17.0608 162.624 16.8356C162.079 16.6031 161.647 16.2072 161.327 15.6478C161.008 15.0884 160.848 14.3148 160.848 13.3268V6.84319H159.202V5.69903L160.968 4.7946L161.807 2.21205H163.419V4.89267H166.874V6.84319H163.419V13.2941C163.419 13.9043 163.572 14.3584 163.877 14.6562C164.182 14.9541 164.585 15.103 165.087 15.103Z" fill="white"/>
<path d="M174.229 4.66383C175.304 4.66383 176.227 4.8854 176.997 5.32854C177.767 5.77168 178.359 6.40006 178.773 7.21369C179.187 8.02731 179.394 9.00076 179.394 10.134V11.507H171.341C171.37 12.6766 171.683 13.5774 172.279 14.2094C172.881 14.8415 173.724 15.1575 174.807 15.1575C175.577 15.1575 176.267 15.0848 176.877 14.9395C177.494 14.787 178.13 14.5654 178.784 14.2748V16.3561C178.181 16.6394 177.567 16.8465 176.942 16.9772C176.318 17.108 175.569 17.1734 174.698 17.1734C173.513 17.1734 172.471 16.9445 171.57 16.4869C170.677 16.0219 169.976 15.3318 169.467 14.4165C168.966 13.5011 168.715 12.3642 168.715 11.0058C168.715 9.65457 168.944 8.50677 169.402 7.56238C169.859 6.61799 170.502 5.89881 171.331 5.40482C172.159 4.91083 173.125 4.66383 174.229 4.66383ZM174.229 6.59257C173.423 6.59257 172.769 6.85409 172.268 7.37714C171.774 7.90019 171.483 8.66659 171.396 9.67636H176.888C176.881 9.07341 176.779 8.53946 176.583 8.07453C176.394 7.6096 176.103 7.24638 175.711 6.98485C175.326 6.72333 174.832 6.59257 174.229 6.59257Z" fill="white"/>
<path d="M195.914 4.66383C197.265 4.66383 198.282 5.01253 198.965 5.70993C199.655 6.40732 200 7.52606 200 9.06614V16.9554H197.439V9.52381C197.439 8.60848 197.261 7.91835 196.905 7.45342C196.549 6.98849 196.008 6.75602 195.282 6.75602C194.265 6.75602 193.531 7.08292 193.081 7.73673C192.637 8.38328 192.416 9.32403 192.416 10.559V16.9554H189.855V9.52381C189.855 8.91359 189.775 8.40507 189.615 7.99826C189.463 7.58418 189.227 7.27543 188.907 7.07203C188.587 6.86136 188.184 6.75602 187.698 6.75602C186.993 6.75602 186.43 6.91584 186.008 7.23548C185.594 7.55512 185.297 8.02731 185.115 8.65207C184.933 9.26955 184.843 10.0287 184.843 10.9295V16.9554H182.282V4.89267H184.276L184.635 6.51629H184.777C185.024 6.09495 185.329 5.74988 185.692 5.48109C186.063 5.20504 186.473 5.00163 186.924 4.87087C187.374 4.73285 187.843 4.66383 188.33 4.66383C189.23 4.66383 189.989 4.82365 190.607 5.14329C191.224 5.45567 191.686 5.93513 191.991 6.58167H192.187C192.565 5.92786 193.091 5.44477 193.767 5.1324C194.443 4.82002 195.158 4.66383 195.914 4.66383Z" fill="white"/>
<path d="M13.1128 25V25.2708H14.171V30.5511C14.171 32.1369 13.7121 32.5849 12.6877 32.5849C12.0438 32.5849 11.9371 32.1164 11.9371 31.8729C11.9371 31.2954 11.9033 30.9429 11.3555 30.9429C10.8041 30.9429 10.7383 31.476 10.7383 31.6395C10.7383 32.3668 11.0763 32.9238 12.5845 32.9238C14.3827 32.9238 15.3431 32.343 15.3431 30.4114V25.2708L16.4352 25.2725V25H13.1128ZM16.4174 31.8763C16.2893 31.9989 16.2253 32.1437 16.2253 32.3191C16.2253 32.4946 16.2893 32.6377 16.4191 32.7535C16.5472 32.8744 16.7019 32.9323 16.8798 32.9323C17.0612 32.9323 17.216 32.8744 17.3476 32.7535C17.4739 32.6377 17.5379 32.4946 17.5379 32.3191C17.5379 32.142 17.4739 31.9955 17.3476 31.8763C17.2213 31.7553 17.0683 31.6974 16.8798 31.6974C16.6948 31.6974 16.5419 31.7536 16.4174 31.8763ZM23.795 31.8763C23.6687 31.9989 23.6082 32.1437 23.6082 32.3191C23.6082 32.4946 23.6687 32.6377 23.795 32.7535C23.9301 32.8744 24.0778 32.9323 24.2574 32.9323C24.4424 32.9323 24.5971 32.8744 24.7269 32.7535C24.855 32.6377 24.919 32.4946 24.919 32.3191C24.919 32.142 24.855 31.9955 24.7287 31.8763C24.5989 31.7553 24.4441 31.6974 24.2574 31.6974C24.0742 31.6974 23.9212 31.7536 23.795 31.8763ZM18.6904 25V25.2708H19.6455V31.2937C19.6455 31.7673 19.6153 31.8899 19.5601 32.0279C19.5014 32.1812 19.368 32.3021 19.1706 32.3805C19.023 32.4401 18.8007 32.4707 18.5037 32.4793V32.7279H22.0057V32.481C21.7087 32.4741 21.4828 32.4418 21.3334 32.3907C21.1253 32.3123 20.9883 32.1948 20.9225 32.0381C20.8638 31.9035 20.8354 31.7826 20.8354 31.5458V29.4831L21.7016 29.4797C24.2183 29.4797 24.9262 28.5293 24.9262 27.2313C24.9244 25.9198 24.4904 25 21.9417 25H18.6904ZM20.8336 25.3066L21.4348 25.2998C23.3752 25.2998 23.7985 26.0646 23.7985 27.3029C23.7985 28.5497 23.0355 29.185 21.497 29.185H20.8336V25.3066ZM34.0095 25.0187C33.981 25.0903 31.5443 30.9054 31.5443 30.9054L31.4892 30.9395L31.4305 30.9054C31.4305 30.9054 28.8337 25.0903 28.8035 25.0187H26.5109V25.2674H27.5051V31.2478L27.4838 31.7928C27.4678 31.9359 27.4215 32.0653 27.3468 32.1675C27.2686 32.2783 27.1441 32.3634 26.9787 32.4179C26.8702 32.452 26.7101 32.4741 26.5091 32.4793V32.7279H28.7839V32.4827C28.5901 32.4758 28.5065 32.4571 28.3926 32.4196C28.2255 32.3668 28.101 32.2885 28.0174 32.1744C27.9427 32.0688 27.8964 31.9427 27.8786 31.7928L27.8537 31.2478V26.0816H27.9889C27.9889 26.0816 30.9289 32.6547 30.961 32.7279H31.2064L33.9899 26.1548H34.0593V31.4811C34.0593 31.7094 34.0344 31.8848 33.9899 32.0211C33.9348 32.1812 33.8156 32.3004 33.6449 32.3822C33.5168 32.4367 33.3229 32.469 33.0668 32.4775V32.7262H36.2398V32.4775C35.9873 32.4656 35.7898 32.4333 35.6582 32.3753C35.4733 32.2902 35.3541 32.1641 35.3025 32.0057C35.2563 31.8661 35.2349 31.6974 35.2349 31.4794V25.2725L36.078 25.264V25.0187H34.0095ZM36.8108 30.0214C36.8108 32.7722 39.0464 32.9545 39.5284 32.9545C40.4835 32.9545 42.2959 32.3839 42.2959 29.9686C42.2959 28.0898 41.1381 27.0678 39.5676 27.0678C37.8744 27.0678 36.8108 28.1426 36.8108 30.0214ZM38.0753 30.052C38.0753 28.5429 38.1732 27.4102 39.5444 27.4102C41.026 27.4102 41.0331 28.5821 41.0331 29.9566C41.0331 31.9325 40.681 32.6138 39.5444 32.6138C38.2728 32.6121 38.0753 32.004 38.0753 30.052ZM45.1185 28.3095L45.0385 28.3061C45.0296 28.3095 44.8927 27.4579 44.8411 27.2058C44.4462 27.2058 42.8811 27.2024 42.8811 27.2024V27.4902H43.9411C43.9411 27.4902 43.9358 28.3521 43.9358 28.6638V31.3057C43.9358 31.6838 43.8913 31.9478 43.8077 32.1079C43.6992 32.297 43.4556 32.3907 43.0536 32.3907H42.8829V32.7279H46.1679V32.3907H45.99C45.5596 32.3907 45.3729 32.3004 45.2573 32.1216C45.1523 31.9631 45.1061 31.6974 45.1061 31.3057V29.3247C45.1061 28.657 45.6308 27.8956 46.2604 27.8956C46.9185 27.8956 46.9025 28.8665 47.6495 28.4765C48.055 28.2635 47.9856 27.1513 46.7282 27.1513C45.7144 27.1513 45.3978 27.7253 45.1185 28.3095ZM55.3757 27.4937C55.0004 27.7679 54.8545 28.02 54.8545 28.3811C54.8545 28.5497 54.9025 28.6672 55.0004 28.7473C55.1 28.8325 55.2156 28.8699 55.3579 28.8699C55.6851 28.8699 55.8683 28.7115 55.9359 28.2993C55.9857 27.9944 56.0551 27.8207 56.2116 27.6606C56.3788 27.4919 56.642 27.4085 56.9959 27.4085C57.4086 27.4085 57.7003 27.5141 57.8639 27.727C58.0133 27.9263 58.0933 28.1988 58.0933 28.5344V29.461C57.0404 29.5513 54.5557 29.7437 54.666 31.5561C54.7069 32.2646 55.3614 32.888 56.2045 32.888C57.1382 32.888 57.7287 32.3788 58.1289 31.9717C58.1929 32.3583 58.5664 32.8182 59.2476 32.8182C60.0124 32.8182 60.4695 32.4588 60.5229 31.5612H60.3255C60.2739 31.9512 60.0213 32.1624 59.815 32.1624C59.4628 32.1624 59.3508 31.9751 59.3259 31.6634L59.3045 30.9565V28.6417C59.3045 28.1426 59.2209 27.8071 58.9132 27.5124C58.6109 27.2177 58.024 27.0678 57.1774 27.0678C56.3628 27.0678 55.7598 27.2109 55.3757 27.4937ZM55.815 31.3431C55.815 30.3143 57.2859 29.7999 58.0933 29.7999V31.5782L58.0738 31.6225L58.0489 31.6446C57.485 32.1335 57.0564 32.3072 56.7416 32.3072C55.9359 32.3072 55.815 31.6651 55.815 31.3431ZM62.835 28.2039L62.7301 28.2005L62.5238 27.1973L60.7381 27.1939V27.4817C61.0742 27.4954 61.6327 27.5005 61.6327 27.5005V31.2989C61.6327 31.5935 61.6096 31.8064 61.5634 31.9478C61.5153 32.1164 61.4015 32.234 61.2325 32.3004C61.124 32.3447 60.9551 32.3702 60.7381 32.3788V32.7262H63.5767V32.3753C63.2904 32.3532 63.0983 32.28 62.9951 32.1403C62.8848 31.9904 62.8333 31.7349 62.8333 31.3585V29.8987C62.8333 29.2889 62.8297 28.6996 63.0467 28.3334C63.2815 27.9365 63.7101 27.7168 64.1921 27.7168C64.6243 27.7168 64.852 27.8496 64.9943 28.112C65.1099 28.3249 65.1863 28.9619 65.1863 29.3997L65.1721 31.2086C65.1721 31.5101 65.2112 31.7332 65.1863 31.8746C65.1543 32.0415 65.0761 32.171 64.9391 32.2578C64.8395 32.3225 64.683 32.3566 64.4838 32.3719V32.7245H67.221V32.3771C66.8742 32.3549 66.6483 32.2749 66.5487 32.1199C66.4367 31.9614 66.3442 31.6957 66.3442 31.2989L66.3602 28.795C66.3602 28.4339 66.3086 28.1239 66.1681 27.8701C66.024 27.6231 65.8231 27.4357 65.5723 27.3114C65.318 27.1888 65.0263 27.1291 64.7043 27.1291C63.55 27.1325 63.0876 27.8071 62.835 28.2039ZM53.6931 26.8447C53.5241 26.8958 53.4121 27.0406 53.3516 27.2841C53.3072 27.509 53.2182 27.6384 53.0991 27.6759C52.9799 27.71 52.8483 27.6998 52.69 27.6487C52.3965 27.3863 51.8309 27.0678 50.8385 27.0678C49.2395 27.0678 48.5334 28.1596 48.5334 29.1544C48.5334 30.3194 49.0012 30.8832 50.0292 31.0911C50.0915 31.103 50.0915 31.1694 50.0381 31.1813C49.1595 31.3517 48.3822 31.5969 48.3822 32.3958C48.3822 32.8778 48.6704 33.1418 49.0403 33.2849C49.4476 33.4433 50.0221 33.5251 50.7406 33.5387C51.3703 33.5455 51.8149 33.566 52.1066 33.6C52.4214 33.6341 52.6686 33.721 52.8536 33.8487C53.0421 33.9884 53.1417 34.1945 53.1417 34.4653C53.1417 34.8349 52.9354 35.133 52.5246 35.3527C52.1422 35.5571 51.6175 35.6644 50.9665 35.6644C50.4081 35.6644 49.951 35.6065 49.5383 35.3596C49.2324 35.179 49.1737 34.823 49.2377 34.5658C49.2947 34.3069 49.1986 34.0327 48.8838 33.9816C48.7113 33.9543 48.4943 34.0446 48.3929 34.1945C48.2987 34.3342 48.2649 34.5011 48.2649 34.6987C48.2649 35.3561 48.7949 35.6644 49.2004 35.7769C49.8176 35.9574 50.2284 36 50.7958 36C51.5481 36 52.16 35.8893 52.5975 35.6781C53.035 35.4669 53.3392 35.208 53.5028 34.9099C53.6735 34.6101 53.7571 34.3052 53.7571 34.0105C53.7571 33.6137 53.6664 33.29 53.4886 33.0516C52.9176 32.2987 52.1048 32.3958 50.28 32.3123C49.4014 32.3123 49.2324 32.1607 49.2324 31.9018C49.2324 31.5237 49.5579 31.3738 50.8278 31.1864C52.0782 31.0008 53.2449 30.5596 53.2449 29.0982C53.2449 28.6775 53.1417 28.3164 53.0172 28.0643C53.2751 28.1188 53.517 28.1188 53.7376 28.0489C53.9901 27.974 54.1538 27.8531 54.248 27.6844C54.3441 27.5141 54.3636 27.354 54.3121 27.1973C54.2285 26.9418 54.0844 26.814 53.8781 26.814C53.8229 26.814 53.7607 26.8242 53.6931 26.8447ZM49.6931 29.1544C49.6931 28.1273 50.0666 27.3625 50.8687 27.3625C51.8007 27.3625 52.0728 28.0592 52.0728 29.1322C52.0728 30.6686 51.5677 30.8696 50.8687 30.8696C50.1217 30.8713 49.6931 30.6107 49.6931 29.1544Z" fill="white"/>
<path d="M0.719727 26.8333V28.2012C0.719727 28.3587 0.714952 28.5127 0.705404 28.6631C0.698242 28.8135 0.691081 28.9293 0.683919 29.0104H0.719727C0.827148 28.8386 0.978733 28.6929 1.17448 28.5736C1.37261 28.4518 1.62684 28.391 1.93717 28.391C2.41699 28.391 2.80132 28.5628 3.09017 28.9066C3.37901 29.2479 3.52344 29.7552 3.52344 30.4284C3.52344 30.8724 3.4566 31.2472 3.32292 31.5527C3.19162 31.8583 3.00543 32.0887 2.76432 32.2438C2.52561 32.399 2.24392 32.4766 1.91927 32.4766C1.61133 32.4766 1.36187 32.4205 1.1709 32.3083C0.979926 32.1937 0.830729 32.0576 0.723307 31.9001H0.669596L0.533529 32.405H0V26.8333H0.719727ZM1.77604 28.9818C1.51584 28.9818 1.30816 29.0331 1.15299 29.1358C1.00022 29.2384 0.890408 29.3936 0.823568 29.6012C0.756727 29.8089 0.722114 30.0703 0.719727 30.3854V30.4391C0.719727 30.907 0.796115 31.2651 0.948893 31.5134C1.10167 31.7616 1.37858 31.8858 1.77962 31.8858C2.10905 31.8858 2.35851 31.7592 2.52799 31.5062C2.69987 31.2532 2.78581 30.8915 2.78581 30.4212C2.78581 29.9438 2.70106 29.5845 2.53158 29.3434C2.36209 29.1023 2.11024 28.9818 1.77604 28.9818Z" fill="white"/>
<path d="M3.9209 28.459H4.69792L5.53581 30.7328C5.57878 30.8497 5.61816 30.9643 5.65397 31.0765C5.69217 31.1863 5.72439 31.2937 5.75065 31.3988C5.7793 31.5014 5.80197 31.6029 5.81869 31.7031H5.84375C5.8724 31.5814 5.91298 31.4334 5.9655 31.2591C6.01801 31.0849 6.0753 30.9082 6.13737 30.7292L6.93945 28.459H7.71289L6.00846 32.9636C5.91536 33.2142 5.80197 33.429 5.66829 33.6081C5.537 33.7895 5.38064 33.928 5.19922 34.0234C5.0178 34.1213 4.80295 34.1703 4.55469 34.1703C4.4401 34.1703 4.33865 34.1631 4.25033 34.1488C4.16439 34.1368 4.09039 34.1225 4.02832 34.1058V33.5329C4.08084 33.5448 4.1441 33.5556 4.2181 33.5651C4.29449 33.5747 4.37326 33.5794 4.45443 33.5794C4.60482 33.5794 4.73372 33.5496 4.84115 33.4899C4.95095 33.4326 5.04405 33.3503 5.12044 33.2428C5.19922 33.1354 5.26487 33.0101 5.31738 32.8669L5.49642 32.4014L3.9209 28.459Z" fill="white"/>
</svg>
