<svg width="124" height="124" viewBox="0 0 124 124" fill="none" xmlns="http://www.w3.org/2000/svg">
<path fill-rule="evenodd" clip-rule="evenodd" d="M97.085 3.04831L120.867 26.8298L109.031 38.6657L85.2631 14.8981L84.556 15.6052L108.324 39.3728L33.1471 114.549L11.3891 119.761L11.5371 119.613L4.38582 112.462L4.18636 112.661L9.45065 90.6827L97.085 3.04831ZM3.99017 113.48L2.66234 119.024L2 118.865L8.8107 90.4305L8.8331 90.3371L8.90108 90.2691L96.9294 2.2408L97.1702 2L97.411 2.2408L121.759 26.589L121.674 26.6742L121.83 26.8298L121.589 27.0706L33.5606 115.099L33.4927 115.167L33.3992 115.189L4.96451 122L4.80586 121.338L10.4869 119.977L3.99017 113.48ZM67.3734 89.4883H119.305V120.647H105.513V116.391H104.832V120.647H98.1918V111.623H97.5107V120.647H91.5513V116.391H90.8703V120.647H71.2895V116.391H70.6084V120.647H64.3085V111.623H63.6275V120.647H56.8168V116.391H56.1357V120.647H40.1306V121.328H56.1357H56.8168H63.6275H64.3085H70.6084H71.2895H90.8703H91.5513H97.5107H98.1918H104.832H105.513H119.645H119.986V120.988V89.1477V88.8072H119.645H67.3734V89.4883Z" fill="#B4E0E1"/>
<path d="M120.867 26.8298L121.574 27.5369L122.281 26.8298L121.574 26.1227L120.867 26.8298ZM97.085 3.04831L97.7921 2.3412L97.085 1.63409L96.3779 2.3412L97.085 3.04831ZM109.031 38.6657L108.324 39.3728L109.031 40.0799L109.738 39.3728L109.031 38.6657ZM85.2631 14.8981L85.9702 14.191L85.2631 13.4839L84.556 14.191L85.2631 14.8981ZM84.556 15.6052L83.8489 14.8981L83.1418 15.6052L83.8489 16.3123L84.556 15.6052ZM108.324 39.3728L109.031 40.0799L109.738 39.3728L109.031 38.6657L108.324 39.3728ZM33.1471 114.549L33.38 115.522L33.6545 115.456L33.8542 115.256L33.1471 114.549ZM11.3891 119.761L10.682 119.054L8.17728 121.558L11.622 120.733L11.3891 119.761ZM11.5371 119.613L12.2442 120.32L12.9513 119.613L12.2442 118.906L11.5371 119.613ZM4.38582 112.462L5.09293 111.755L4.38583 111.047L3.67872 111.755L4.38582 112.462ZM4.18636 112.661L3.21386 112.428L2.38879 115.873L4.89346 113.368L4.18636 112.661ZM9.45065 90.6827L8.74354 89.9756L8.54391 90.1752L8.47815 90.4497L9.45065 90.6827ZM3.99017 113.48L4.69727 112.773L3.43386 111.51L3.01767 113.247L3.99017 113.48ZM2.66234 119.024L2.4294 119.996L3.4019 120.229L3.63484 119.257L2.66234 119.024ZM2 118.865L1.02751 118.632L0.794577 119.605L1.76706 119.838L2 118.865ZM8.8107 90.4305L7.83821 90.1976L7.83821 90.1976L8.8107 90.4305ZM8.8331 90.3371L8.12599 89.6299L7.92637 89.8296L7.86061 90.1041L8.8331 90.3371ZM8.90108 90.2691L9.60818 90.9762L9.60819 90.9762L8.90108 90.2691ZM96.9294 2.2408L97.6365 2.94791L97.6365 2.94789L96.9294 2.2408ZM97.1702 2L97.8773 1.29289L97.1702 0.585772L96.463 1.29291L97.1702 2ZM97.411 2.2408L96.7039 2.94791V2.94791L97.411 2.2408ZM121.759 26.589L122.466 27.2962L123.173 26.5891L122.466 25.8819L121.759 26.589ZM121.674 26.6742L120.967 25.9671L120.26 26.6742L120.967 27.3813L121.674 26.6742ZM121.83 26.8298L122.537 27.537L123.244 26.8299L122.537 26.1227L121.83 26.8298ZM121.589 27.0706L120.882 26.3635L120.882 26.3635L121.589 27.0706ZM33.5606 115.099L32.8535 114.392L32.8535 114.392L33.5606 115.099ZM33.4927 115.167L33.7256 116.139L34.0002 116.074L34.1998 115.874L33.4927 115.167ZM33.3992 115.189L33.1663 114.217H33.1662L33.3992 115.189ZM4.96451 122L3.99201 122.233L4.22494 123.205L5.19744 122.972L4.96451 122ZM4.80586 121.338L4.57293 120.365L3.60044 120.598L3.83337 121.571L4.80586 121.338ZM10.4869 119.977L10.7198 120.949L12.4574 120.533L11.194 119.27L10.4869 119.977ZM119.305 89.4883H120.305V88.4883H119.305V89.4883ZM67.3734 89.4883H66.3734V90.4883H67.3734V89.4883ZM119.305 120.647V121.647H120.305V120.647H119.305ZM105.513 120.647H104.513V121.647H105.513V120.647ZM105.513 116.391H106.513V115.391H105.513V116.391ZM104.832 116.391V115.391H103.832V116.391H104.832ZM104.832 120.647V121.647H105.832V120.647H104.832ZM98.1918 120.647H97.1918V121.647H98.1918V120.647ZM98.1918 111.623H99.1918V110.623H98.1918V111.623ZM97.5107 111.623V110.623H96.5107V111.623H97.5107ZM97.5107 120.647V121.647H98.5107V120.647H97.5107ZM91.5513 120.647H90.5513V121.647H91.5513V120.647ZM91.5513 116.391H92.5513V115.391H91.5513V116.391ZM90.8703 116.391V115.391H89.8703V116.391H90.8703ZM90.8703 120.647V121.647H91.8703V120.647H90.8703ZM71.2895 120.647H70.2895V121.647H71.2895V120.647ZM71.2895 116.391H72.2895V115.391H71.2895V116.391ZM70.6084 116.391V115.391H69.6084V116.391H70.6084ZM70.6084 120.647V121.647H71.6084V120.647H70.6084ZM64.3085 120.647H63.3085V121.647H64.3085V120.647ZM64.3085 111.623H65.3085V110.623H64.3085V111.623ZM63.6275 111.623V110.623H62.6275V111.623H63.6275ZM63.6275 120.647V121.647H64.6275V120.647H63.6275ZM56.8168 120.647H55.8168V121.647H56.8168V120.647ZM56.8168 116.391H57.8168V115.391H56.8168V116.391ZM56.1357 116.391V115.391H55.1357V116.391H56.1357ZM56.1357 120.647V121.647H57.1357V120.647H56.1357ZM40.1306 120.647V119.647H39.1306V120.647H40.1306ZM40.1306 121.328H39.1306V122.328H40.1306V121.328ZM119.986 121.328V122.328H120.986V121.328H119.986ZM119.986 88.8072H120.986V87.8072H119.986V88.8072ZM67.3734 88.8072V87.8072H66.3734V88.8072H67.3734ZM121.574 26.1227L97.7921 2.3412L96.3779 3.75541L120.159 27.5369L121.574 26.1227ZM109.738 39.3728L121.574 27.5369L120.159 26.1227L108.324 37.9586L109.738 39.3728ZM84.556 15.6052L108.324 39.3728L109.738 37.9586L85.9702 14.191L84.556 15.6052ZM85.2631 16.3123L85.9702 15.6052L84.556 14.191L83.8489 14.8981L85.2631 16.3123ZM109.031 38.6657L85.2631 14.8981L83.8489 16.3123L107.616 40.0799L109.031 38.6657ZM33.8542 115.256L109.031 40.0799L107.616 38.6657L32.4399 113.842L33.8542 115.256ZM11.622 120.733L33.38 115.522L32.9141 113.577L11.1562 118.788L11.622 120.733ZM10.83 118.906L10.682 119.054L12.0962 120.468L12.2442 120.32L10.83 118.906ZM3.67871 113.169L10.8299 120.32L12.2442 118.906L5.09293 111.755L3.67871 113.169ZM4.89346 113.368L5.09292 113.169L3.67872 111.755L3.47925 111.954L4.89346 113.368ZM8.47815 90.4497L3.21386 112.428L5.15885 112.894L10.4231 90.9156L8.47815 90.4497ZM96.3779 2.3412L8.74354 89.9756L10.1578 91.3898L97.7921 3.75541L96.3779 2.3412ZM3.01767 113.247L1.68985 118.791L3.63484 119.257L4.96266 113.713L3.01767 113.247ZM2.89529 118.051L2.23294 117.893L1.76706 119.838L2.4294 119.996L2.89529 118.051ZM2.97249 119.098L9.78319 90.6635L7.83821 90.1976L1.02751 118.632L2.97249 119.098ZM9.78319 90.6635L9.80558 90.57L7.86061 90.1041L7.83821 90.1976L9.78319 90.6635ZM9.5402 91.0442L9.60818 90.9762L8.19398 89.562L8.12599 89.6299L9.5402 91.0442ZM9.60819 90.9762L97.6365 2.94791L96.2223 1.53369L8.19398 89.562L9.60819 90.9762ZM97.6365 2.94789L97.8773 2.70709L96.463 1.29291L96.2223 1.53371L97.6365 2.94789ZM96.4631 2.70711L96.7039 2.94791L98.1181 1.53369L97.8773 1.29289L96.4631 2.70711ZM96.7039 2.94791L121.052 27.2962L122.466 25.8819L98.1181 1.53369L96.7039 2.94791ZM121.052 25.8819L120.967 25.9671L122.381 27.3813L122.466 27.2962L121.052 25.8819ZM120.967 27.3813L121.123 27.5369L122.537 26.1227L122.381 25.9671L120.967 27.3813ZM121.123 26.1227L120.882 26.3635L122.296 27.7777L122.537 27.537L121.123 26.1227ZM120.882 26.3635L32.8535 114.392L34.2678 115.806L122.296 27.7777L120.882 26.3635ZM32.8535 114.392L32.7855 114.46L34.1998 115.874L34.2678 115.806L32.8535 114.392ZM33.2598 114.194L33.1663 114.217L33.6321 116.162L33.7256 116.139L33.2598 114.194ZM33.1662 114.217L4.73157 121.027L5.19744 122.972L33.6321 116.162L33.1662 114.217ZM5.937 121.767L5.77836 121.105L3.83337 121.571L3.99201 122.233L5.937 121.767ZM5.03879 122.31L10.7198 120.949L10.254 119.004L4.57293 120.365L5.03879 122.31ZM11.194 119.27L4.69727 112.773L3.28306 114.187L9.77978 120.684L11.194 119.27ZM119.305 88.4883H67.3734V90.4883H119.305V88.4883ZM120.305 120.647V89.4883H118.305V120.647H120.305ZM105.513 121.647H119.305V119.647H105.513V121.647ZM104.513 116.391V120.647H106.513V116.391H104.513ZM104.832 117.391H105.513V115.391H104.832V117.391ZM105.832 120.647V116.391H103.832V120.647H105.832ZM98.1918 121.647H104.832V119.647H98.1918V121.647ZM97.1918 111.623V120.647H99.1918V111.623H97.1918ZM97.5107 112.623H98.1918V110.623H97.5107V112.623ZM98.5107 120.647V111.623H96.5107V120.647H98.5107ZM91.5513 121.647H97.5107V119.647H91.5513V121.647ZM90.5513 116.391V120.647H92.5513V116.391H90.5513ZM90.8703 117.391H91.5513V115.391H90.8703V117.391ZM91.8703 120.647V116.391H89.8703V120.647H91.8703ZM71.2895 121.647H90.8703V119.647H71.2895V121.647ZM70.2895 116.391V120.647H72.2895V116.391H70.2895ZM70.6084 117.391H71.2895V115.391H70.6084V117.391ZM71.6084 120.647V116.391H69.6084V120.647H71.6084ZM64.3085 121.647H70.6084V119.647H64.3085V121.647ZM63.3085 111.623V120.647H65.3085V111.623H63.3085ZM63.6275 112.623H64.3085V110.623H63.6275V112.623ZM64.6275 120.647V111.623H62.6275V120.647H64.6275ZM56.8168 121.647H63.6275V119.647H56.8168V121.647ZM55.8168 116.391V120.647H57.8168V116.391H55.8168ZM56.1357 117.391H56.8168V115.391H56.1357V117.391ZM57.1357 120.647V116.391H55.1357V120.647H57.1357ZM40.1306 121.647H56.1357V119.647H40.1306V121.647ZM41.1306 121.328V120.647H39.1306V121.328H41.1306ZM56.1357 120.328H40.1306V122.328H56.1357V120.328ZM56.8168 120.328H56.1357V122.328H56.8168V120.328ZM63.6275 120.328H56.8168V122.328H63.6275V120.328ZM64.3085 120.328H63.6275V122.328H64.3085V120.328ZM70.6084 120.328H64.3085V122.328H70.6084V120.328ZM71.2895 120.328H70.6084V122.328H71.2895V120.328ZM90.8703 120.328H71.2895V122.328H90.8703V120.328ZM91.5513 120.328H90.8703V122.328H91.5513V120.328ZM97.5107 120.328H91.5513V122.328H97.5107V120.328ZM98.1918 120.328H97.5107V122.328H98.1918V120.328ZM104.832 120.328H98.1918V122.328H104.832V120.328ZM105.513 120.328H104.832V122.328H105.513V120.328ZM119.645 120.328H105.513V122.328H119.645V120.328ZM119.986 120.328H119.645V122.328H119.986V120.328ZM118.986 120.988V121.328H120.986V120.988H118.986ZM118.986 89.1477V120.988H120.986V89.1477H118.986ZM118.986 88.8072V89.1477H120.986V88.8072H118.986ZM119.645 89.8072H119.986V87.8072H119.645V89.8072ZM67.3734 89.8072H119.645V87.8072H67.3734V89.8072ZM68.3734 89.4883V88.8072H66.3734V89.4883H68.3734Z" fill="#B4E0E1"/>
</svg>
