<svg xmlns="http://www.w3.org/2000/svg" width="164" height="164" fill="none"><path fill="#F1B2EB" fill-rule="evenodd" d="m128.78 3.4 31.7 31.7-15.9 15.9-31.68-31.68-.7.7 31.68 31.7L43.53 152.06 14.52 159l.08-.07-9.54-9.54-.14.15 7.01-29.3L128.78 3.4ZM4.7 150.45l-1.82 7.58-.88-.21 9.08-37.91.03-.13.1-.09L128.56 2.32l.32-.32.33.32 32.46 32.47-.12.1.21.22-.32.32L44.08 152.8l-.09.09-.12.03L5.95 162l-.2-.88 7.76-1.86-8.81-8.8Zm84.46-31.8h69.25v41.55H140v-5.68h-.9v5.68h-8.85v-12.04h-.91v12.04h-7.95v-5.68h-.9v5.68H94.38v-5.68h-.91v5.68h-8.4v-12.04h-.91v12.04h-9.08v-5.68h-.9v5.68H52.83v.9h106.48v-43.36H89.16v.91Z" clip-rule="evenodd"/><path fill="#F1B2EB" d="m160.49 35.1.7.71.71-.7-.7-.71-.71.7ZM128.78 3.4l.7-.7-.7-.72-.7.71.7.7Zm15.8 47.6-.7.71.7.71.72-.7-.71-.71ZM112.9 19.33l.7-.71-.7-.7-.7.7.7.7Zm-.7.7-.72-.7-.7.7.7.7.71-.7Zm31.68 31.7.7.7.72-.7-.71-.71-.7.7ZM43.53 152.06l.23.97.28-.07.2-.2-.71-.7ZM14.52 159l-.7-.7-2.51 2.5 3.44-.82-.23-.98Zm.08-.07.7.7.71-.7-.7-.71-.71.7Zm-9.54-9.54.71-.7-.7-.71-.71.7.7.71Zm-.14.15-.98-.24-.82 3.45 2.5-2.5-.7-.71Zm7.01-29.3-.7-.71-.2.2-.07.27.97.23Zm-7.23 30.2.7-.7-1.26-1.27-.41 1.74.97.23Zm-1.82 7.58-.23.97.97.24.24-.98-.98-.23Zm-.88-.21-.97-.23-.24.97.98.23.23-.97Zm9.08-37.91-.97-.24.97.24Zm.03-.13-.7-.7-.2.2-.07.27.97.23Zm.1-.09-.72-.7.71.7ZM128.56 2.32l.71.7-.7-.7Zm.32-.32.71-.7-.7-.71-.71.7.7.71Zm.33.32.7-.7-.7.7Zm32.46 32.47.7.7.71-.7-.7-.71-.71.7Zm-.12.1-.7-.7-.7.7.7.72.7-.71Zm.21.22.71.7.7-.7-.7-.71-.7.7Zm-.32.32.7.7-.7-.7ZM44.08 152.8l-.7-.7.7.7Zm-.09.09.23.97.28-.06.2-.2-.71-.71Zm-.12.03.23.97-.23-.97ZM5.95 162l-.97.23.23.98.98-.24-.24-.97Zm-.2-.88-.24-.98-.97.24.23.97.97-.23Zm7.76-1.86.23.97 1.74-.42-1.27-1.26-.7.7Zm144.9-40.6h1v-1h-1v1Zm-69.25 0h-1v1h1v-1Zm69.25 41.54v1h1v-1h-1Zm-18.4 0h-1v1h1v-1Zm0-5.68h1v-1h-1v1Zm-.9 0v-1h-1v1h1Zm0 5.68v1h1v-1h-1Zm-8.85 0h-1v1h1v-1Zm0-12.04h1v-1h-1v1Zm-.91 0v-1h-1v1h1Zm0 12.04v1h1v-1h-1Zm-7.95 0h-1v1h1v-1Zm0-5.68h1v-1h-1v1Zm-.9 0v-1h-1v1h1Zm0 5.68v1h1v-1h-1Zm-26.11 0h-1v1h1v-1Zm0-5.68h1v-1h-1v1Zm-.91 0v-1h-1v1h1Zm0 5.68v1h1v-1h-1Zm-8.4 0h-1v1h1v-1Zm0-12.04h1v-1h-1v1Zm-.91 0v-1h-1v1h1Zm0 12.04v1h1v-1h-1Zm-9.08 0h-1v1h1v-1Zm0-5.68h1v-1h-1v1Zm-.9 0v-1h-1v1h1Zm0 5.68v1h1v-1h-1Zm-21.35 0v-1h-1v1h1Zm0 .9h-1v1h1v-1Zm106.47 0v1h1v-1h-1Zm0-43.36h1v-1h-1v1Zm-70.15 0v-1h-1v1h1ZM161.2 34.4 129.49 2.7l-1.42 1.4 31.71 31.71 1.42-1.41Zm-15.9 17.3 15.9-15.9-1.42-1.41-15.9 15.9 1.42 1.41Zm-33.1-31.69 31.68 31.7 1.42-1.42-31.7-31.7-1.4 1.42Zm.7.7.7-.7-1.4-1.41-.72.7 1.42 1.42ZM144.59 51l-31.7-31.7-1.4 1.42 31.69 31.69 1.4-1.41ZM44.24 152.77 144.59 52.42l-1.41-1.41L42.82 151.36l1.42 1.41ZM14.75 160l29.01-6.95-.46-1.95-29.01 6.95.46 1.95Zm-.86-1.76-.08.08 1.42 1.41.07-.08-1.4-1.41Zm-9.53-8.12 9.53 9.53 1.41-1.41-9.53-9.54-1.41 1.42Zm1.26.14.15-.14-1.41-1.42-.15.15 1.41 1.41Zm5.34-30.24-7.02 29.3 1.95.47 7.02-29.3-1.95-.47ZM128.07 2.7 11.23 119.54l1.41 1.41L129.5 4.1l-1.42-1.4ZM3.73 150.22 1.9 157.8l1.95.46 1.81-7.58-1.94-.46Zm-.61 6.84-.89-.21-.46 1.94.88.21.47-1.94Zm-.15 1 9.08-37.92-1.94-.47-9.08 37.92 1.94.46Zm9.08-37.92.03-.12-1.94-.47-.03.12 1.94.47Zm-.23.35.09-.1-1.42-1.4-.09.09 1.42 1.41Zm.09-.1L129.28 3.04l-1.42-1.42L10.5 119l1.42 1.4ZM129.28 3.04l.32-.32-1.41-1.42-.33.32 1.42 1.42Zm-1.1-.32.33.32 1.41-1.42-.32-.32-1.41 1.42Zm.33.32 32.46 32.46 1.42-1.41L129.92 1.6l-1.41 1.42Zm32.46 31.05-.11.11 1.41 1.42.12-.12-1.42-1.41Zm-.11 1.53.2.2 1.42-1.41-.2-.2-1.42 1.4Zm.2-1.21-.31.32 1.4 1.41.33-.32-1.41-1.41Zm-.31.32L43.37 152.09l1.42 1.42L162.16 36.13l-1.41-1.41ZM43.37 152.09l-.09.1 1.42 1.4.09-.08-1.42-1.42Zm.39-.17-.13.03.47 1.94.12-.03-.46-1.94Zm-.13.03-37.91 9.08.47 1.94 37.9-9.08-.46-1.94Zm-36.7 9.82-.22-.89-1.94.47.21.88 1.95-.46Zm-.96.32 7.77-1.86-.47-1.94-7.76 1.85.46 1.95Zm8.24-3.54-8.8-8.8-1.42 1.4 8.8 8.81 1.42-1.41Zm144.2-40.9H89.16v2h69.25v-2Zm1 42.55v-41.55h-2v41.55h2Zm-19.4 1h18.4v-2H140v2Zm-1-6.68v5.68h2v-5.68h-2Zm.1 1h.9v-2h-.9v2Zm1 4.68v-5.68h-2v5.68h2Zm-9.85 1h8.85v-2h-8.85v2Zm-1-13.04v12.04h2v-12.04h-2Zm.09 1h.9v-2h-.9v2Zm1 11.04v-12.04h-2v12.04h2Zm-8.95 1h7.95v-2h-7.95v2Zm-1-6.68v5.68h2v-5.68h-2Zm.1 1h.9v-2h-.9v2Zm1 4.68v-5.68h-2v5.68h2Zm-27.11 1h26.1v-2H94.4v2Zm-1-6.68v5.68h2v-5.68h-2Zm.09 1h.9v-2h-.9v2Zm1 4.68v-5.68h-2v5.68h2Zm-9.4 1h8.4v-2h-8.4v2Zm-1-13.04v12.04h2v-12.04h-2Zm.09 1h.9v-2h-.9v2Zm1 11.04v-12.04h-2v12.04h2Zm-10.08 1h9.08v-2h-9.08v2Zm-1-6.68v5.68h2v-5.68h-2Zm.1 1h.9v-2h-.9v2Zm1 4.68v-5.68h-2v5.68h2Zm-22.35 1h21.34v-2H52.84v2Zm1-.1v-.9h-2v.9h2Zm20.34-1H52.84v2h21.34v-2Zm.9 0h-.9v2h.9v-2Zm9.09 0h-9.08v2h9.08v-2Zm.9 0h-.9v2h.9v-2Zm8.4 0h-8.4v2h8.4v-2Zm.92 0h-.91v2h.9v-2Zm26.1 0H94.4v2h26.1v-2Zm.91 0h-.9v2h.9v-2Zm7.95 0h-7.95v2h7.95v-2Zm.9 0h-.9v2h.9v-2Zm8.86 0h-8.85v2h8.85v-2Zm.9 0h-.9v2h.9v-2Zm18.85 0h-18.84v2h18.84v-2Zm.45 0h-.45v2h.45v-2Zm-1 .55v.45h2v-.45h-2Zm0-42.45v42.45h2V118.2h-2Zm0-.46v.46h2v-.46h-2Zm.55 1h.45v-2h-.45v2Zm-69.7 0h69.7v-2h-69.7v2Zm1-.09v-.9h-2v.9h2Z"/></svg>