<svg xmlns="http://www.w3.org/2000/svg" width="21" height="19" fill="none"><path fill="#61DAFB" d="M20.21 9.06c0-1.35-1.67-2.62-4.25-3.42.6-2.63.33-4.73-.83-5.4a1.8 1.8 0 0 0-.92-.24v.93c.19 0 .34.04.47.1.56.33.8 1.56.61 3.15-.04.39-.12.8-.2 1.22-.81-.2-1.7-.36-2.62-.46a20.2 20.2 0 0 0-1.72-2.07C12.1 1.61 13.35.92 14.21.92V0c-1.13 0-2.61.81-4.11 2.22C8.6.82 7.12.02 5.98.02v.92c.85 0 2.12.69 3.46 1.93-.57.61-1.15 1.3-1.7 2.07-.93.1-1.81.26-2.62.46-.1-.41-.16-.82-.21-1.2-.2-1.59.04-2.82.6-3.15.12-.07.28-.1.47-.1V.02c-.34 0-.66.08-.93.23-1.16.67-1.42 2.77-.82 5.4C1.67 6.45 0 7.72 0 9.06c0 1.35 1.68 2.63 4.25 3.42-.6 2.64-.33 4.74.83 5.4.27.17.58.24.93.24 1.13 0 2.61-.81 4.11-2.22 1.5 1.4 2.99 2.2 4.12 2.2.34 0 .66-.07.93-.23 1.16-.67 1.42-2.76.82-5.4 2.55-.79 4.22-2.06 4.22-3.4ZM14.85 6.3c-.15.53-.34 1.08-.56 1.63a19.69 19.69 0 0 0-1.13-1.96c.58.09 1.15.2 1.69.33Zm-1.89 4.41c-.32.56-.65 1.1-1 1.59a21.26 21.26 0 0 1-3.7 0A22.89 22.89 0 0 1 6.4 9.07a21.68 21.68 0 0 1 1.84-3.23 21.3 21.3 0 0 1 3.72 0 22.92 22.92 0 0 1 1.85 3.22c-.26.55-.54 1.11-.85 1.65Zm1.33-.54c.22.56.41 1.12.57 1.65-.54.14-1.1.25-1.7.34a22.94 22.94 0 0 0 1.13-1.99Zm-4.18 4.43c-.38-.4-.76-.84-1.14-1.33a25.32 25.32 0 0 0 2.28 0c-.37.49-.76.93-1.14 1.33Zm-3.06-2.44c-.59-.1-1.15-.2-1.69-.33.15-.54.34-1.09.56-1.64a19.66 19.66 0 0 0 1.13 1.97Zm3.04-8.63c.39.4.77.84 1.15 1.32a25.33 25.33 0 0 0-2.28 0c.37-.48.75-.93 1.13-1.32ZM7.05 5.97a22.94 22.94 0 0 0-1.13 1.98c-.23-.56-.42-1.11-.57-1.65.54-.13 1.1-.24 1.7-.33Zm-3.73 5.2C1.86 10.52.92 9.7.92 9.06c0-.66.94-1.48 2.4-2.1.35-.16.74-.3 1.14-.43a20 20 0 0 0 .92 2.53c-.37.86-.68 1.7-.91 2.51-.4-.12-.8-.27-1.15-.42Zm2.21 5.92c-.56-.33-.8-1.56-.61-3.14.04-.4.12-.8.2-1.22.82.2 1.7.35 2.63.45a20.2 20.2 0 0 0 1.7 2.07C8.13 16.51 6.86 17.2 6 17.2a.98.98 0 0 1-.47-.11Zm9.78-3.16c.19 1.58-.05 2.81-.6 3.14a.91.91 0 0 1-.48.1c-.85 0-2.12-.68-3.46-1.92.58-.61 1.15-1.3 1.7-2.07.93-.1 1.81-.26 2.62-.46.1.42.17.82.22 1.2Zm1.58-2.77c-.35.15-.74.3-1.14.42a20 20 0 0 0-.93-2.53c.38-.86.69-1.7.92-2.5.4.12.8.26 1.16.41 1.45.63 2.4 1.45 2.4 2.1 0 .65-.95 1.48-2.4 2.1Z"/><path fill="#61DAFB" d="M10.1 10.96c1.04 0 1.88-.85 1.88-1.9 0-1.04-.84-1.9-1.88-1.9s-1.88.86-1.88 1.9c0 1.05.84 1.9 1.88 1.9Z"/></svg>