<svg xmlns="http://www.w3.org/2000/svg" width="200" height="36" fill="none"><path fill="#000" d="M10.2 12.618c0 .945-.233 1.758-.698 2.441-.458.683-1.119 1.206-1.983 1.57-.857.363-1.882.544-3.073.544-.581 0-1.137-.032-1.667-.098a11.51 11.51 0 0 1-1.504-.283A8.179 8.179 0 0 1 0 16.323v-2.462a17.8 17.8 0 0 0 2.168.773c.8.226 1.613.338 2.441.338.676 0 1.235-.087 1.678-.261.45-.182.785-.436 1.003-.763.218-.334.327-.723.327-1.166 0-.472-.127-.872-.382-1.199-.254-.327-.639-.624-1.155-.893a19.307 19.307 0 0 0-1.917-.883c-.523-.21-1.025-.45-1.504-.72a6.118 6.118 0 0 1-1.264-.947 4.095 4.095 0 0 1-.883-1.286C.302 6.353.196 5.764.196 5.09c0-.901.214-1.671.643-2.31.436-.64 1.046-1.13 1.83-1.471.794-.343 1.716-.514 2.77-.514.835 0 1.62.088 2.353.262a12.05 12.05 0 0 1 2.18.741l-.829 2.103a14.735 14.735 0 0 0-1.907-.643 7.367 7.367 0 0 0-1.874-.24c-.552 0-1.02.084-1.405.251-.385.167-.68.403-.883.708-.196.298-.294.654-.294 1.068 0 .465.112.857.337 1.177.233.312.589.6 1.068.86a22.14 22.14 0 0 0 1.875.873c.879.363 1.623.744 2.233 1.144.618.4 1.09.879 1.417 1.438.327.552.49 1.246.49 2.081Zm7.54-7.954c1.526 0 2.677.338 3.454 1.013.785.676 1.177 1.73 1.177 3.16v8.118h-1.82l-.49-1.71h-.087a6.223 6.223 0 0 1-1.057 1.078 3.692 3.692 0 0 1-1.264.632c-.472.146-1.05.218-1.733.218-.719 0-1.362-.13-1.928-.392a3.065 3.065 0 0 1-1.34-1.22c-.328-.545-.491-1.235-.491-2.07 0-1.243.461-2.176 1.384-2.801.93-.625 2.332-.97 4.206-1.035l2.092-.077v-.632c0-.835-.196-1.43-.588-1.787-.385-.356-.93-.534-1.635-.534-.603 0-1.188.087-1.754.262a12.26 12.26 0 0 0-1.657.643l-.828-1.81a9.287 9.287 0 0 1 2.005-.762 9.329 9.329 0 0 1 2.354-.294Zm2.092 6.527-1.558.054c-1.279.044-2.176.262-2.692.654-.515.393-.773.93-.773 1.613 0 .596.178 1.032.534 1.308.356.268.824.403 1.405.403.887 0 1.62-.25 2.201-.752.589-.509.883-1.253.883-2.234v-1.046Zm8.696 5.764h-2.572V0h2.572v16.955Zm8.151-1.852c.334 0 .664-.03.991-.087.327-.066.625-.142.894-.229v1.94c-.283.123-.65.228-1.1.316-.451.087-.92.13-1.407.13-.682 0-1.296-.112-1.841-.337-.545-.233-.977-.629-1.297-1.188-.32-.56-.48-1.333-.48-2.321V6.843h-1.645V5.7l1.766-.904.839-2.583h1.612v2.68h3.455v1.951H35.01v6.451c0 .61.153 1.064.458 1.362.305.298.708.447 1.21.447Zm23.33-6.266c0 1.795-.334 3.295-1.003 4.5-.668 1.2-1.638 2.104-2.91 2.714-1.27.603-2.803.904-4.598.904h-4.424V1.025h4.904c1.649 0 3.073.297 4.271.893a6.305 6.305 0 0 1 2.779 2.626c.654 1.155.98 2.586.98 4.293Zm-2.724.077c0-1.308-.207-2.383-.622-3.226-.406-.843-1.01-1.467-1.808-1.874-.792-.414-1.77-.621-2.932-.621H49.69v11.572h1.853c1.925 0 3.363-.49 4.315-1.47.952-.982 1.428-2.442 1.428-4.381Zm10.7-4.25c1.075 0 1.998.221 2.768.665a4.454 4.454 0 0 1 1.776 1.885c.414.813.621 1.787.621 2.92v1.373h-8.053c.03 1.17.342 2.07.938 2.702.603.633 1.445.949 2.528.949.77 0 1.46-.073 2.07-.218a11.488 11.488 0 0 0 1.907-.665v2.081a8.334 8.334 0 0 1-1.842.621c-.624.131-1.372.196-2.244.196-1.184 0-2.227-.228-3.128-.686-.893-.465-1.594-1.155-2.103-2.07-.501-.916-.752-2.053-.752-3.411 0-1.351.23-2.5.687-3.444.458-.944 1.1-1.663 1.929-2.157.828-.494 1.794-.741 2.898-.741Zm0 1.929c-.806 0-1.46.261-1.961.784-.494.523-.785 1.29-.872 2.3h5.492c-.007-.604-.109-1.138-.305-1.602a2.324 2.324 0 0 0-.872-1.09c-.385-.262-.879-.392-1.482-.392Zm16.16 6.919c0 .792-.192 1.46-.577 2.005-.385.545-.948.959-1.69 1.242-.733.276-1.634.414-2.702.414-.843 0-1.569-.061-2.18-.185a7.465 7.465 0 0 1-1.71-.545v-2.212c.574.269 1.217.502 1.929.698a7.757 7.757 0 0 0 2.037.294c.843 0 1.45-.13 1.82-.392.37-.27.556-.625.556-1.068 0-.262-.076-.494-.229-.698-.145-.21-.421-.425-.828-.643-.4-.225-.988-.494-1.765-.806a14.71 14.71 0 0 1-1.929-.915c-.523-.305-.919-.672-1.188-1.1-.269-.437-.403-.993-.403-1.668 0-1.068.421-1.878 1.264-2.43.85-.56 1.972-.84 3.367-.84.741 0 1.439.077 2.092.23.661.145 1.308.36 1.94.643l-.806 1.928a12.054 12.054 0 0 0-1.646-.588c-.545-.16-1.1-.24-1.667-.24-.661 0-1.166.102-1.515.305-.341.204-.512.494-.512.872 0 .283.084.523.25.72.168.195.455.391.862.588.414.196.988.44 1.721.73.72.276 1.34.566 1.864.871.53.298.937.665 1.22 1.101.284.436.425.999.425 1.689Zm5.329-8.619v12.062h-2.561V4.893h2.56ZM88.21.273c.392 0 .73.105 1.013.315.29.211.436.574.436 1.09 0 .509-.145.872-.436 1.09-.283.21-.621.316-1.013.316-.407 0-.752-.106-1.035-.316-.277-.218-.415-.581-.415-1.09 0-.516.138-.879.414-1.09.284-.21.629-.316 1.036-.316Zm8.38 22.044c-1.635 0-2.888-.295-3.76-.883-.872-.588-1.308-1.413-1.308-2.474 0-.74.233-1.369.698-1.885.465-.508 1.13-.86 1.994-1.057a2.224 2.224 0 0 1-.85-.675 1.695 1.695 0 0 1-.349-1.036c0-.45.127-.835.382-1.155.254-.32.635-.628 1.144-.926a3.325 3.325 0 0 1-1.526-1.307c-.378-.61-.567-1.326-.567-2.147 0-.872.186-1.613.556-2.223.37-.618.912-1.086 1.624-1.406.712-.327 1.573-.49 2.582-.49.218 0 .455.014.709.044.261.021.501.05.719.087.225.029.396.061.512.098h4.174v1.427l-2.049.382c.196.276.352.592.468.948.117.348.175.73.175 1.144 0 1.25-.432 2.234-1.297 2.953-.857.712-2.041 1.068-3.552 1.068a12.177 12.177 0 0 1-1.057-.087c-.262.16-.462.337-.6.534a1.062 1.062 0 0 0-.207.642c0 .197.07.356.207.48.138.116.342.203.61.261.277.059.61.088 1.003.088h2.081c1.323 0 2.332.28 3.03.839.697.559 1.046 1.38 1.046 2.462 0 1.373-.567 2.43-1.7 3.171-1.133.748-2.764 1.123-4.893 1.123Zm.097-1.798c.894 0 1.646-.087 2.256-.262.61-.174 1.072-.425 1.384-.752.312-.32.468-.7.468-1.144 0-.392-.098-.694-.294-.904-.196-.211-.49-.356-.882-.436-.393-.08-.88-.12-1.46-.12h-1.897c-.472 0-.89.073-1.253.218-.363.152-.646.37-.85.654-.196.283-.294.624-.294 1.024 0 .552.244.977.73 1.275.494.298 1.192.447 2.092.447Zm.502-9.393c.748 0 1.304-.204 1.667-.61.363-.415.545-.996.545-1.744 0-.814-.19-1.424-.567-1.83-.37-.408-.923-.61-1.656-.61-.72 0-1.268.206-1.646.62-.37.414-.555 1.028-.555 1.842 0 .733.185 1.307.555 1.721.378.407.93.61 1.657.61Zm14.623-6.462c1.359 0 2.416.352 3.171 1.057.763.697 1.144 1.82 1.144 3.367v7.867h-2.56V9.567c0-.937-.193-1.638-.578-2.103-.385-.472-.981-.708-1.787-.708-1.17 0-1.983.36-2.441 1.079-.45.719-.676 1.761-.676 3.127v5.993h-2.56V4.893h1.994l.359 1.634h.142c.262-.421.585-.766.97-1.035a4.339 4.339 0 0 1 1.307-.621 5.53 5.53 0 0 1 1.515-.207Zm23.156 7.954c0 .945-.233 1.758-.698 2.441-.457.683-1.118 1.206-1.983 1.57-.857.363-1.881.544-3.073.544a13.62 13.62 0 0 1-1.667-.098c-.53-.065-1.031-.16-1.504-.283a8.176 8.176 0 0 1-1.275-.469v-2.462a18 18 0 0 0 2.169.773 8.958 8.958 0 0 0 2.441.338c.675 0 1.235-.087 1.678-.261.45-.182.784-.436 1.002-.763.218-.334.327-.723.327-1.166 0-.472-.127-.872-.381-1.199-.254-.327-.639-.624-1.155-.893a19.367 19.367 0 0 0-1.918-.883c-.523-.21-1.024-.45-1.504-.72a6.137 6.137 0 0 1-1.264-.947 4.103 4.103 0 0 1-.882-1.286c-.211-.501-.316-1.09-.316-1.765 0-.901.214-1.671.642-2.31.436-.64 1.047-1.13 1.831-1.471.792-.342 1.715-.513 2.768-.513.835 0 1.62.088 2.354.262.741.174 1.467.421 2.179.741l-.828 2.103a14.77 14.77 0 0 0-1.907-.643 7.365 7.365 0 0 0-1.874-.24c-.552 0-1.021.084-1.406.251-.385.167-.679.403-.883.708-.196.298-.294.654-.294 1.068 0 .465.113.857.338 1.177.232.312.588.6 1.068.86a22.06 22.06 0 0 0 1.874.873c.879.363 1.624.744 2.234 1.144.617.4 1.09.879 1.416 1.438.327.552.491 1.246.491 2.081Zm.991-7.725h2.79l2.474 6.886c.109.313.207.622.294.927.094.298.174.592.24.882.072.29.13.582.174.872h.065c.073-.378.175-.799.305-1.264.138-.472.291-.944.458-1.417l2.376-6.886h2.756l-5.176 13.719c-.297.784-.664 1.453-1.1 2.005-.429.56-.937.98-1.526 1.264-.588.29-1.26.436-2.016.436-.363 0-.679-.022-.948-.066a7.726 7.726 0 0 1-.686-.12v-2.048a5.827 5.827 0 0 0 1.297.141c.457 0 .853-.09 1.187-.272.335-.182.618-.44.85-.774.233-.326.425-.7.578-1.122l.425-1.133-4.817-12.03Zm21.87 8.619c0 .792-.192 1.46-.577 2.005-.385.545-.948.959-1.689 1.242-.734.276-1.635.414-2.703.414-.842 0-1.569-.061-2.179-.185a7.472 7.472 0 0 1-1.711-.545v-2.212c.574.269 1.217.502 1.929.698a7.75 7.75 0 0 0 2.038.294c.842 0 1.449-.13 1.819-.392.371-.27.556-.625.556-1.068 0-.262-.076-.494-.229-.698-.145-.21-.421-.425-.828-.643-.399-.225-.988-.494-1.765-.806a14.704 14.704 0 0 1-1.929-.915c-.523-.305-.919-.672-1.188-1.1-.268-.437-.403-.993-.403-1.668 0-1.068.422-1.878 1.264-2.43.85-.56 1.973-.84 3.367-.84a9.17 9.17 0 0 1 2.093.23c.661.145 1.307.36 1.939.643l-.806 1.928a12.028 12.028 0 0 0-1.646-.588 5.88 5.88 0 0 0-1.667-.24c-.661 0-1.166.102-1.514.305-.342.204-.513.494-.513.872 0 .283.084.523.251.72.167.195.454.391.861.588.414.196.988.44 1.722.73.719.276 1.34.566 1.863.871.53.298.937.665 1.22 1.101.284.436.425.999.425 1.689Zm7.258 1.591c.334 0 .664-.03.991-.087.327-.066.625-.142.894-.229v1.94c-.284.123-.65.228-1.101.316-.45.087-.919.13-1.405.13-.683 0-1.297-.112-1.842-.337-.545-.233-.977-.629-1.297-1.188-.319-.56-.479-1.333-.479-2.321V6.843h-1.646V5.7l1.766-.904.839-2.583h1.612v2.68h3.455v1.951h-3.455v6.451c0 .61.153 1.064.458 1.362.305.298.708.447 1.21.447Zm9.142-10.439c1.075 0 1.998.221 2.768.665a4.453 4.453 0 0 1 1.776 1.885c.414.813.621 1.787.621 2.92v1.373h-8.053c.029 1.17.342 2.07.938 2.702.602.633 1.445.949 2.528.949.77 0 1.46-.073 2.07-.218a11.51 11.51 0 0 0 1.907-.665v2.081a8.334 8.334 0 0 1-1.842.621c-.624.131-1.373.196-2.244.196-1.185 0-2.227-.228-3.128-.686-.893-.465-1.594-1.155-2.103-2.07-.501-.916-.752-2.053-.752-3.411 0-1.351.229-2.5.687-3.444.457-.944 1.1-1.663 1.929-2.157.828-.494 1.794-.741 2.898-.741Zm0 1.929c-.806 0-1.46.261-1.961.784-.494.523-.785 1.29-.872 2.3h5.492c-.007-.604-.109-1.138-.305-1.602a2.326 2.326 0 0 0-.872-1.09c-.385-.262-.879-.392-1.482-.392Zm21.685-1.929c1.351 0 2.368.349 3.051 1.046.69.697 1.035 1.816 1.035 3.356v7.89h-2.561V9.523c0-.916-.178-1.606-.534-2.07-.356-.466-.897-.698-1.623-.698-1.017 0-1.751.327-2.201.98-.444.647-.665 1.588-.665 2.823v6.396h-2.561v-7.43c0-.61-.08-1.119-.24-1.526-.152-.414-.388-.723-.708-.926-.32-.21-.723-.316-1.209-.316-.705 0-1.268.16-1.69.48-.414.32-.711.791-.893 1.416-.182.618-.272 1.377-.272 2.278v6.025h-2.561V4.893h1.994l.359 1.623h.142a3.42 3.42 0 0 1 .915-1.035c.371-.276.781-.48 1.232-.61a4.77 4.77 0 0 1 1.406-.207c.9 0 1.659.16 2.277.48a2.995 2.995 0 0 1 1.384 1.438h.196a3.467 3.467 0 0 1 1.58-1.45 5.056 5.056 0 0 1 2.147-.468Z"/><path fill="#35210D" d="M13.113 25v.27h1.058v5.281c0 1.586-.459 2.034-1.483 2.034-.644 0-.75-.469-.75-.712 0-.578-.035-.93-.583-.93-.55 0-.617.533-.617.697 0 .727.338 1.284 1.847 1.284 1.798 0 2.758-.581 2.758-2.513v-5.14l1.092.002V25h-3.322Zm3.304 6.876a.587.587 0 0 0-.192.443c0 .176.064.319.194.434.128.121.283.18.46.18a.664.664 0 0 0 .469-.18.563.563 0 0 0 .19-.434.583.583 0 0 0-.19-.443.643.643 0 0 0-.468-.179.627.627 0 0 0-.463.18Zm7.378 0a.588.588 0 0 0-.187.443c0 .176.06.319.187.434a.66.66 0 0 0 .462.18.66.66 0 0 0 .47-.18.559.559 0 0 0 .192-.434.583.583 0 0 0-.19-.443.66.66 0 0 0-.472-.179.632.632 0 0 0-.462.18ZM18.69 25v.27h.955v6.024c0 .473-.03.596-.085.734-.059.153-.192.274-.39.352-.147.06-.37.09-.666.1v.248h3.502v-.247a2.427 2.427 0 0 1-.673-.09c-.208-.079-.345-.196-.41-.353-.06-.134-.088-.255-.088-.492v-2.063l.867-.003c2.516 0 3.224-.95 3.224-2.249C24.924 25.92 24.49 25 21.942 25H18.69Zm2.144.307.6-.007c1.941 0 2.364.765 2.364 2.003 0 1.247-.762 1.882-2.301 1.882h-.663v-3.878Zm13.176-.288-2.466 5.886-.055.034-.059-.034-2.627-5.886h-2.292v.248h.994v5.98l-.021.546a.78.78 0 0 1-.137.374.706.706 0 0 1-.368.25 1.812 1.812 0 0 1-.47.062v.249h2.275v-.245a1.204 1.204 0 0 1-.391-.063.706.706 0 0 1-.376-.246.813.813 0 0 1-.138-.381l-.025-.545v-5.166h.135l2.972 6.646h.245l2.784-6.573h.07v5.326c0 .228-.026.404-.07.54a.629.629 0 0 1-.345.361c-.128.055-.322.087-.578.096v.248h3.173v-.248c-.253-.012-.45-.045-.582-.103-.185-.085-.304-.21-.355-.37a1.675 1.675 0 0 1-.068-.526v-6.206l.843-.009v-.245h-2.069Zm2.8 5.002c0 2.751 2.236 2.934 2.718 2.934.956 0 2.768-.571 2.768-2.986 0-1.88-1.158-2.901-2.728-2.901-1.694 0-2.757 1.075-2.757 2.953Zm1.265.031c0-1.51.098-2.642 1.47-2.642 1.481 0 1.488 1.172 1.488 2.547 0 1.976-.352 2.657-1.489 2.657-1.271-.002-1.469-.61-1.469-2.562Zm7.043-1.742-.08-.004c-.008.003-.145-.848-.197-1.1l-1.96-.004v.288h1.06s-.005.862-.005 1.174v2.642c0 .378-.045.642-.128.802-.109.189-.352.283-.754.283h-.171v.337h3.285v-.337h-.178c-.43 0-.617-.09-.733-.27-.105-.158-.15-.424-.15-.815v-1.981c0-.668.524-1.43 1.153-1.43.659 0 .643.971 1.39.582.405-.213.336-1.326-.922-1.326-1.014 0-1.33.574-1.61 1.159Zm10.258-.816c-.376.274-.521.526-.521.887 0 .169.048.286.145.366.1.085.216.123.358.123.327 0 .51-.159.578-.57.05-.306.12-.48.276-.64.167-.168.43-.252.784-.252.413 0 .704.106.868.319.15.2.23.472.23.807v.927c-1.054.09-3.538.283-3.428 2.095.04.709.695 1.332 1.539 1.332.933 0 1.524-.51 1.924-.916.064.386.437.846 1.119.846.764 0 1.221-.36 1.275-1.257h-.198c-.051.39-.304.601-.51.601-.352 0-.464-.187-.49-.499l-.02-.707v-2.314c0-.5-.084-.835-.392-1.13-.302-.294-.889-.444-1.736-.444-.814 0-1.417.143-1.801.426Zm.439 3.85c0-1.03 1.47-1.544 2.278-1.544v1.778l-.02.044-.024.023c-.564.488-.993.662-1.307.662-.806 0-.927-.642-.927-.964Zm7.02-3.14-.105-.003-.206-1.004-1.786-.003v.288c.336.013.895.018.895.018v3.8c0 .294-.023.507-.07.649a.523.523 0 0 1-.33.352c-.109.045-.278.07-.495.079v.347h2.839v-.35c-.287-.023-.479-.096-.582-.236-.11-.15-.162-.405-.162-.782v-1.46c0-.61-.003-1.198.214-1.565.235-.396.663-.616 1.145-.616.432 0 .66.133.802.395.116.213.192.85.192 1.288l-.014 1.809c0 .301.04.524.014.666a.551.551 0 0 1-.247.383c-.1.064-.256.099-.455.114v.352h2.737v-.347c-.347-.022-.573-.102-.672-.257-.112-.159-.205-.424-.205-.821l.016-2.504c0-.361-.051-.671-.192-.925a1.399 1.399 0 0 0-.596-.559 1.981 1.981 0 0 0-.868-.182c-1.154.003-1.616.678-1.869 1.075Zm-9.142-1.36c-.169.052-.28.197-.341.44-.045.225-.134.354-.253.392a.691.691 0 0 1-.409-.027c-.293-.263-.86-.581-1.851-.581-1.6 0-2.306 1.092-2.306 2.086 0 1.165.468 1.73 1.496 1.937.063.012.063.078.01.09-.88.17-1.657.416-1.657 1.215 0 .482.288.746.658.889.408.158.982.24 1.7.254.63.006 1.075.027 1.367.061.314.034.562.121.747.249.188.14.288.346.288.616 0 .37-.207.668-.617.888-.383.204-.907.311-1.558.311-.559 0-1.016-.058-1.429-.304-.306-.181-.364-.537-.3-.794.057-.26-.04-.533-.354-.584a.536.536 0 0 0-.491.212c-.094.14-.128.307-.128.505 0 .657.53.965.935 1.078a5.06 5.06 0 0 0 1.596.223c.752 0 1.364-.11 1.801-.322.438-.211.742-.47.906-.768.17-.3.254-.605.254-.9 0-.396-.09-.72-.268-.958-.571-.753-1.384-.656-3.209-.74-.879 0-1.048-.151-1.048-.41 0-.378.326-.528 1.596-.716 1.25-.185 2.417-.626 2.417-2.088 0-.42-.103-.782-.228-1.034.258.055.5.055.72-.015.253-.075.417-.196.511-.365a.582.582 0 0 0 .064-.487c-.084-.255-.228-.383-.434-.383a.645.645 0 0 0-.185.03Zm-4 2.31c0-1.027.374-1.791 1.176-1.791.932 0 1.204.696 1.204 1.77 0 1.536-.505 1.737-1.204 1.737-.747.001-1.176-.26-1.176-1.716Z"/><path fill="#000" d="M.72 26.833v1.368c0 .158-.005.312-.015.462-.007.15-.014.266-.021.347H.72c.107-.171.259-.317.454-.436.199-.122.453-.183.763-.183.48 0 .864.172 1.153.516.289.34.433.848.433 1.521 0 .444-.066.82-.2 1.125a1.494 1.494 0 0 1-.559.69c-.238.156-.52.234-.845.234-.308 0-.557-.056-.748-.169a1.404 1.404 0 0 1-.448-.408H.67l-.136.505H0v-5.572h.72Zm1.056 2.149c-.26 0-.468.051-.623.154a.851.851 0 0 0-.33.465c-.066.208-.1.47-.103.784v.054c0 .468.076.826.229 1.074.153.249.43.373.83.373.33 0 .58-.127.749-.38.172-.253.258-.614.258-1.085 0-.477-.085-.837-.254-1.078-.17-.24-.422-.361-.756-.361Zm2.144-.523h.778l.838 2.274a8.397 8.397 0 0 1 .215.666c.028.102.051.204.068.304h.025c.028-.122.069-.27.121-.444.053-.174.11-.35.172-.53l.802-2.27h.774l-1.705 4.505c-.093.25-.206.465-.34.644-.131.181-.287.32-.469.415a1.338 1.338 0 0 1-.644.147c-.115 0-.216-.007-.305-.021a1.854 1.854 0 0 1-.222-.043v-.573a2.06 2.06 0 0 0 .426.046.785.785 0 0 0 .666-.336 1.51 1.51 0 0 0 .197-.376l.18-.466L3.92 28.46Z"/></svg>