<?xml version="1.0" encoding="UTF-8"?>
<svg xmlns="http://www.w3.org/2000/svg" width="10" height="10" viewBox="0 0 10 10">
  <rect width="10" height="10" fill="#FFFFFF"/>
  <path d="M2.58192362,1.20002943 C2.74760904,0.979115526 3.06100972,0.934344001 3.28192362,1.10002943 C3.50283752,1.26571485 3.54760904,1.57911553 3.38192362,1.80002943 C2.29673986,3.2469411 1.16710738,4.00002943 -0.0180763806,4.00002943 C-1.20326014,4.00002943 -2.33289262,3.2469411 -3.41807638,1.80002943 C-3.58376181,1.57911553 -3.53899028,1.26571485 -3.31807638,1.10002943 C-3.09716248,0.934344001 -2.78376181,0.979115526 -2.61807638,1.20002943 C-1.70326014,2.41978441 -0.832892622,3.00002943 -0.0180763806,3.00002943 C0.796739861,3.00002943 1.66710738,2.41978441 2.58192362,1.20002943 Z" fill="#000000" />
  <path d="M12.6,1.20002943 C12.7656854,0.979115526 13.0790861,0.934344001 13.3,1.10002943 C13.5209139,1.26571485 13.5656854,1.57911553 13.4,1.80002943 C12.3148162,3.2469411 11.1851838,4.00002943 10,4.00002943 C8.81481624,4.00002943 7.68518376,3.2469411 6.6,1.80002943 C6.43431458,1.57911553 6.4790861,1.26571485 6.7,1.10002943 C6.9209139,0.934344001 7.23431458,0.979115526 7.4,1.20002943 C8.31481624,2.41978441 9.18518376,3.00002943 10,3.00002943 C10.8148162,3.00002943 11.6851838,2.41978441 12.6,1.20002943 Z" fill="#000000" />
  <path d="M7.6,6.20002943 C7.76568542,5.97911553 8.0790861,5.934344 8.3,6.10002943 C8.5209139,6.26571485 8.56568542,6.57911553 8.4,6.80002943 C7.31481624,8.2469411 6.18518376,9.00002943 5,9.00002943 C3.81481624,9.00002943 2.68518376,8.2469411 1.6,6.80002943 C1.43431458,6.57911553 1.4790861,6.26571485 1.7,6.10002943 C1.9209139,5.934344 2.23431458,5.97911553 2.4,6.20002943 C3.31481624,7.41978441 4.18518376,8.00002943 5,8.00002943 C5.81481624,8.00002943 6.68518376,7.41978441 7.6,6.20002943 Z" fill="#000000" />
</svg>