<?xml version="1.0" encoding="UTF-8"?>
<svg xmlns="http://www.w3.org/2000/svg" width="10" height="10" viewBox="0 0 10 10">
  <rect width="10" height="10" fill="#FFFFFF"/>
  <path d="M5,4.372 C3.531,4.372 2.785,3.662 2.127,3.035 C1.515,2.452 1.031,1.992 0,1.992 L0,1 C1.469,1 2.215,1.71 2.874,2.337 C3.486,2.92 3.969,3.38 5,3.38 C6.031,3.38 6.515,2.92 7.127,2.337 C7.785,1.71 8.531,1 10,1 L10,1.992 C8.969,1.992 8.485,2.452 7.873,3.035 C7.215,3.662 6.469,4.372 5,4.372 Z M5,9.372 C3.531,9.372 2.785,8.662 2.127,8.035 C1.515,7.452 1.031,6.992 0,6.992 L0,6 C1.469,6 2.215,6.71 2.874,7.337 C3.486,7.92 3.969,8.38 5,8.38 C6.031,8.38 6.515,7.92 7.127,7.337 C7.785,6.71 8.531,6 10,6 L10,6.992 C8.969,6.992 8.485,7.452 7.873,8.035 C7.215,8.662 6.469,9.372 5,9.372 Z" transform="translate(5.000000, 5.000000) rotate(90.000000) translate(-5.000000, -5.000000)" fill="#000000" />
</svg>