<?xml version="1.0" encoding="UTF-8"?>
<svg xmlns="http://www.w3.org/2000/svg" width="10" height="10" viewBox="0 0 10 10">
  <rect width="10" height="10" fill="#FFFFFF"/>
  <path d="M3.14644661,7.3890873 L7.3890873,3.14644661 C7.58434944,2.95118446 7.90093193,2.95118446 8.09619408,3.14644661 C8.29145622,3.34170876 8.29145622,3.65829124 8.09619408,3.85355339 L3.85355339,8.09619408 C3.65829124,8.29145622 3.34170876,8.29145622 3.14644661,8.09619408 C2.95118446,7.90093193 2.95118446,7.58434944 3.14644661,7.3890873 Z" fill="#000000" />
  <path d="M1.14644661,5.3890873 L5.3890873,1.14644661 C5.58434944,0.951184464 5.90093193,0.951184464 6.09619408,1.14644661 C6.29145622,1.34170876 6.29145622,1.65829124 6.09619408,1.85355339 L1.85355339,6.09619408 C1.65829124,6.29145622 1.34170876,6.29145622 1.14644661,6.09619408 C0.951184464,5.90093193 0.951184464,5.58434944 1.14644661,5.3890873 Z" fill="#000000" />
</svg>