<?xml version="1.0" encoding="UTF-8"?>
<svg xmlns="http://www.w3.org/2000/svg" width="10" height="10" viewBox="0 0 10 10">
  <rect width="10" height="10" fill="#FFFFFF"/>
  <path d="M-4.59407723,4.76499947 C-4.74043239,4.99916774 -5.04890759,5.07035432 -5.28307585,4.92399915 C-5.51724412,4.77764399 -5.5884307,4.4691688 -5.44207553,4.23500053 C-3.6935114,1.43729791 -1.89688901,1.25154062e-16 -0.0180763806,0 C1.86073624,0 3.65735864,1.43729791 5.40592277,4.23500053 C5.55227794,4.4691688 5.48109135,4.77764399 5.24692309,4.92399915 C5.01275482,5.07035432 4.70427963,4.99916774 4.55792447,4.76499947 C2.97315527,2.22936875 1.43644433,1 -0.0180763806,1 C-1.47259709,1 -3.00930803,2.22936875 -4.59407723,4.76499947 Z" fill="#000000" />
  <path d="M5.42399915,4.76499947 C5.27764399,4.99916774 4.9691688,5.07035432 4.73500053,4.92399915 C4.50083226,4.77764399 4.42964568,4.4691688 4.57600085,4.23500053 C6.32456498,1.43729791 8.12118738,1.25154062e-16 10,0 C11.8788126,0 13.675435,1.43729791 15.4239992,4.23500053 C15.5703543,4.4691688 15.4991677,4.77764399 15.2649995,4.92399915 C15.0308312,5.07035432 14.722356,4.99916774 14.5760008,4.76499947 C12.9912316,2.22936875 11.4545207,1 10,1 C8.54547929,1 7.00876835,2.22936875 5.42399915,4.76499947 Z" fill="#000000" />
  <path d="M0.423999152,9.76499947 C0.277643986,9.99916774 -0.0308312044,10.0703543 -0.26499947,9.92399915 C-0.499167736,9.77764399 -0.570354318,9.4691688 -0.423999152,9.23500053 C1.32456498,6.43729791 3.12118738,5 5,5 C6.87881262,5 8.67543502,6.43729791 10.4239992,9.23500053 C10.5703543,9.4691688 10.4991677,9.77764399 10.2649995,9.92399915 C10.0308312,10.0703543 9.72235601,9.99916774 9.57600085,9.76499947 C7.99123165,7.22936875 6.45452071,6 5,6 C3.54547929,6 2.00876835,7.22936875 0.423999152,9.76499947 Z" fill="#000000" />
</svg>