<?xml version="1.0" encoding="UTF-8"?>
<svg xmlns="http://www.w3.org/2000/svg" width="10" height="10" viewBox="0 0 10 10">
  <rect width="10" height="10" fill="#FFFFFF"/>
  <path d="M5,3.372 C3.531,3.372 2.785,2.662 2.127,2.035 C1.515,1.452 1.031,0.992 0,0.992 L0,0 C1.469,0 2.215,0.71 2.874,1.337 C3.486,1.92 3.969,2.38 5,2.38 C6.031,2.38 6.515,1.92 7.127,1.337 C7.785,0.71 8.531,0 10,0 L10,0.992 C8.969,0.992 8.485,1.452 7.873,2.035 C7.215,2.662 6.469,3.372 5,3.372 Z M5,8.372 C3.531,8.372 2.785,7.662 2.127,7.035 C1.515,6.452 1.031,5.992 0,5.992 L0,5 C1.469,5 2.215,5.71 2.874,6.337 C3.486,6.92 3.969,7.38 5,7.38 C6.031,7.38 6.515,6.92 7.127,6.337 C7.785,5.71 8.531,5 10,5 L10,5.992 C8.969,5.992 8.485,6.452 7.873,7.035 C7.215,7.662 6.469,8.372 5,8.372 Z" fill="#000000" />
</svg>