<?xml version="1.0" encoding="UTF-8"?>
<svg xmlns="http://www.w3.org/2000/svg" width="10" height="10" viewBox="0 0 10 10">
  <rect width="10" height="10" fill="#FFFFFF"/>
  <path d="M3.66326332,1.71913643 C3.07747688,1.13334999 2.12772941,1.13334999 1.54194298,1.71913643 C0.956156539,2.30492287 0.956156539,3.25467034 1.54194298,3.84045677 L4.3703701,6.6688839 C4.95615654,7.25467034 5.90590401,7.25467034 6.49169045,6.6688839 C7.07747688,6.08309746 7.07747688,5.13334999 6.49169045,4.54756355 L3.66326332,1.71913643 Z M4.3703701,1.01202965 L7.19879723,3.84045677 C8.17510796,4.8167675 8.17510796,6.39967995 7.19879723,7.37599068 C6.2224865,8.35230141 4.63957405,8.35230141 3.66326332,7.37599068 L0.834836196,4.54756355 C-0.141474534,3.57125282 -0.141474534,1.98834038 0.834836196,1.01202965 C1.81114693,0.0357189189 3.39405937,0.0357189189 4.3703701,1.01202965 Z" fill="#000000" />
</svg>