<?xml version="1.0" encoding="UTF-8"?>
<svg xmlns="http://www.w3.org/2000/svg" width="10" height="10" viewBox="0 0 10 10">
  <rect width="10" height="10" fill="#FFFFFF"/>
  <path d="M0.375,0 L1.375,0 L1.375,5 L0.375,5 L0.375,0 Z M0.875,8.375 C0.3915625,8.375 0,7.9834375 0,7.5 C0,7.0165625 0.3915625,6.625 0.875,6.625 C1.3584375,6.625 1.75,7.0165625 1.75,7.5 C1.75,7.9834375 1.3584375,8.375 0.875,8.375 Z M5.375,5 L6.375,5 L6.375,10 L5.375,10 L5.375,5 Z M5.895,3.375 C5.4115625,3.375 5.02,2.9834375 5.02,2.5 C5.02,2.0165625 5.4115625,1.625 5.895,1.625 C6.3784375,1.625 6.77,2.0165625 6.77,2.5 C6.77,2.9834375 6.3784375,3.375 5.895,3.375 Z" fill="#000000" />
</svg>