<?xml version="1.0" encoding="UTF-8"?>
<svg xmlns="http://www.w3.org/2000/svg" width="10" height="10" viewBox="0 0 10 10">
  <rect width="10" height="10" fill="#FFFFFF"/>
  <path d="M6,6 L6,9 L9,9 L9,6 L6,6 Z M6,5 L9,5 C9.55228475,5 10,5.44771525 10,6 L10,9 C10,9.55228475 9.55228475,10 9,10 L6,10 C5.44771525,10 5,9.55228475 5,9 L5,6 C5,5.44771525 5.44771525,5 6,5 Z" fill="#000000" />
  <path d="M1,1 L1,4 L4,4 L4,1 L1,1 Z M1,0 L4,0 C4.55228475,-1.01453063e-16 5,0.44771525 5,1 L5,4 C5,4.55228475 4.55228475,5 4,5 L1,5 C0.44771525,5 0,4.55228475 0,4 L0,1 C0,0.44771525 0.44771525,1.01453063e-16 1,0 Z" fill="#000000" />
</svg>