<?xml version="1.0" encoding="UTF-8"?>
<svg xmlns="http://www.w3.org/2000/svg" width="10" height="10" viewBox="0 0 10 10">
  <rect width="10" height="10" fill="#FFFFFF"/>
  <path d="M0,2.5 C0,2.22385763 0.223857625,2 0.5,2 C0.776142375,2 1,2.22385763 1,2.5 L1,7.47487373 C1,7.75101611 0.776142375,7.97487373 0.5,7.97487373 C0.223857625,7.97487373 0,7.75101611 0,7.47487373 L0,2.5 Z" fill="#000000" />
  <path d="M5,7.5 C5,7.22385763 5.22385763,7 5.5,7 C5.77614237,7 6,7.22385763 6,7.5 L6,10 C6,10.2761424 5.77614237,10.5 5.5,10.5 C5.22385763,10.5 5,10.2761424 5,10 L5,7.5 Z" fill="#000000" />
  <path d="M5,0 C5,-0.276142375 5.22385763,-0.5 5.5,-0.5 C5.77614237,-0.5 6,-0.276142375 6,0 L6,2.47487373 C6,2.75101611 5.77614237,2.97487373 5.5,2.97487373 C5.22385763,2.97487373 5,2.75101611 5,2.47487373 L5,0 Z" fill="#000000" />
</svg>