<?xml version="1.0" encoding="UTF-8"?>
<svg xmlns="http://www.w3.org/2000/svg" width="10" height="10" viewBox="0 0 10 10">
  <rect width="10" height="10" fill="#FFFFFF"/>
  <path d="M2.5,2 C2.22385763,2 2,1.77614237 2,1.5 C2,1.22385763 2.22385763,1 2.5,1 L7.5,1 C7.77614237,1 8,1.22385763 8,1.5 C8,1.77614237 7.77614237,2 7.5,2 L2.5,2 Z" fill="#000000" />
  <path d="M7.5,7 C7.22385763,7 7,6.77614237 7,6.5 C7,6.22385763 7.22385763,6 7.5,6 L10,6 C10.2761424,6 10.5,6.22385763 10.5,6.5 C10.5,6.77614237 10.2761424,7 10,7 L7.5,7 Z" fill="#000000" />
  <path d="M0,7 C-0.276142375,7 -0.5,6.77614237 -0.5,6.5 C-0.5,6.22385763 -0.276142375,6 0,6 L2.5,6 C2.77614237,6 3,6.22385763 3,6.5 C3,6.77614237 2.77614237,7 2.5,7 L0,7 Z" fill="#000000" />
</svg>