<?xml version="1.0" encoding="UTF-8"?>
<svg xmlns="http://www.w3.org/2000/svg" width="10" height="10" viewBox="0 0 10 10">
  <rect width="10" height="10" fill="#FFFFFF"/>
  <path d="M4,0.5 C4,0.223857625 4.22385763,-1.8189894e-12 4.5,-1.8189894e-12 C4.77614237,-1.8189894e-12 5,0.223857625 5,0.5 L5,2.5 C5,2.77614237 4.77614237,3 4.5,3 C4.22385763,3 4,2.77614237 4,2.5 L4,0.5 Z" fill="#000000" />
  <path d="M4,6.5 C4,6.22385763 4.22385763,6 4.5,6 C4.77614237,6 5,6.22385763 5,6.5 L5,8.5 C5,8.77614237 4.77614237,9 4.5,9 C4.22385763,9 4,8.77614237 4,8.5 L4,6.5 Z" fill="#000000" />
  <path d="M2.5,4 C2.77614237,4 3,4.22385763 3,4.5 C3,4.77614237 2.77614237,5 2.5,5 L0.5,5 C0.223857625,5 -2.27373675e-13,4.77614237 -2.27373675e-13,4.5 C-2.27373675e-13,4.22385763 0.223857625,4 0.5,4 L2.5,4 Z" fill="#000000" />
  <path d="M8.5,4 C8.77614237,4 9,4.22385763 9,4.5 C9,4.77614237 8.77614237,5 8.5,5 L6.5,5 C6.22385763,5 6,4.77614237 6,4.5 C6,4.22385763 6.22385763,4 6.5,4 L8.5,4 Z" fill="#000000" />
</svg>