<svg width="12" height="12" viewBox="0 0 12 12" xmlns="http://www.w3.org/2000/svg" >
<path d="M5 3.00006C5.82843 3.00006 6.5 2.32849 6.5 1.50006C6.5 0.671634 5.82843 6.10352e-05 5 6.10352e-05C4.17157 6.10352e-05 3.5 0.671634 3.5 1.50006C3.5 2.32849 4.17157 3.00006 5 3.00006Z" />
<path d="M4 4.00006H6V6.00006H7.99997L10.8284 8.82846L9.41421 10.2427L7.1716 8.00006H4V4.00006Z" />
<path d="M3 4.1261C1.27477 4.57014 0 6.13624 0 8.00008C0 10.2092 1.79086 12.0001 4 12.0001C5.57942 12.0001 6.94504 11.0847 7.59525 9.75548L6.83204 8.99228C6.42242 10.1615 5.30913 11.0001 4 11.0001C2.34315 11.0001 1 9.65694 1 8.00008C1 6.69386 1.83481 5.58262 3 5.17079V4.1261Z" />
</svg>
