<svg width="12" height="12" viewBox="0 0 12 12" xmlns="http://www.w3.org/2000/svg">
<path d="M6.84375 1.9834C6.93789 2.21416 7.0039 2.54261 7.0039 2.99902C7.0039 3.31253 6.97197 3.64255 6.90527 3.99023H7.92088C7.95964 3.7521 7.98454 3.51792 7.99609 3.28809L8.0039 2.99902C8.0039 2.45233 7.92578 1.98718 7.76953 1.60449C7.61331 1.22204 7.39829 0.913895 7.125 0.679688C6.85156 0.437582 6.53515 0.265592 6.17578 0.164062C5.80859 0.0547232 5.41797 0 5.00391 0V0.00390625L4.69726 0.0136719C4.39567 0.0341935 4.10728 0.0860052 3.83203 0.167969L3.69922 0.208984C3.39415 0.313198 3.12208 0.47174 2.88281 0.683594L2.7832 0.774414C2.55674 0.995608 2.37503 1.2736 2.23828 1.6084L2.18359 1.75586C2.06388 2.10873 2.00391 2.5244 2.00391 3.00293L2.01074 3.29199C2.02538 3.58346 2.06249 3.88187 2.12109 4.18652L2.18555 4.4834C2.25584 4.77914 2.34378 5.07046 2.44922 5.35742C2.58203 5.74011 2.74609 6.09972 2.94141 6.43555L3.0918 6.67871C3.24555 6.9129 3.41022 7.12122 3.58594 7.30273C3.52339 7.6227 3.35918 7.88396 3.09375 8.08691L2.98828 8.16211C2.72765 8.33471 2.36826 8.48927 1.91016 8.62598L1.74609 8.68457C1.6836 8.70019 1.61718 8.71583 1.54687 8.73145C1.45313 8.76268 1.3789 8.78614 1.32422 8.80176L1.18359 8.83691C1.01953 8.88377 0.878905 8.92677 0.761719 8.96582C0.636719 9.00487 0.527344 9.04396 0.433594 9.08301C0.278724 9.12975 0.134104 9.19209 0 9.27051V12L6 12.0039L6 11.0039L1 11V9.94043C1 9.94043 1.62094 9.7557 2.19629 9.58398C2.77164 9.41227 3.29754 9.19039 3.70117 8.88184L3.86426 8.74512C4.22776 8.414 4.47059 7.98974 4.56738 7.49414L4.66699 6.98145L4.30469 6.60645C4.13439 6.43052 3.96634 6.20889 3.80566 5.93262C3.64405 5.65471 3.50617 5.35379 3.39355 5.0293L3.39062 5.02148L3.38769 5.0127L3.30078 4.76172C3.24636 4.59343 3.19897 4.42347 3.1582 4.25195L3.10254 3.99414C3.03584 3.64646 3.00391 3.31644 3.00391 3.00293C3.00391 2.54651 3.06992 2.21807 3.16406 1.9873C3.26915 1.72992 3.39724 1.55888 3.5332 1.44238L3.54004 1.4375L3.5459 1.43164C3.70399 1.29174 3.88579 1.19143 4.10351 1.12988L4.11719 1.12598C4.38459 1.04635 4.67871 1.00391 5.00391 1.00391H5.12305C5.40131 1.0131 5.65629 1.05229 5.89062 1.12207L5.9043 1.12598C6.12202 1.18753 6.30382 1.28784 6.46191 1.42773L6.46777 1.43359L6.47461 1.43848C6.61057 1.55498 6.73866 1.72601 6.84375 1.9834Z"/>
<path d="M9 6H8V8H6V9H8V11H9V9H11V8H9V6Z"/>
</svg>
