<svg width="12" height="12" viewBox="0 0 12 12" xmlns="http://www.w3.org/2000/svg">
<path fill-rule="evenodd" clip-rule="evenodd" d="M9.57617 9.22794L4.87793 8.55118L5.02148 10.0815C5.07861 10.6884 4.68938 11.2487 4.10059 11.4066L4.04004 11.4223C3.33582 11.6109 2.6201 11.1596 2.4873 10.4428L2.14941 8.61172L1.3584 8.71524L0.923828 8.7709L0 5.32169L0.40332 5.15274L2.6875 4.20157L6.66797 1.06778L7.26465 0.600006L9.57617 9.22794ZM3.14258 8.4838L3.4707 10.2611C3.49743 10.4043 3.64053 10.4941 3.78125 10.4565L3.8418 10.4408C3.95943 10.4092 4.03779 10.2965 4.02637 10.1752L3.87012 8.5209C3.86505 8.46728 3.83123 8.42245 3.78418 8.40079L3.14258 8.4838ZM3.51074 4.82559L4.21289 7.44571L8.21777 8.02188L6.69141 2.32364L3.51074 4.82559ZM1.19238 5.9086L1.66406 7.66837L3.18457 7.4711L2.60742 5.31876L1.19238 5.9086Z"/>
<path d="M11.6162 6.05704L11.3418 7.01895L9.45117 6.47794L9.58887 5.99649L9.72559 5.51602L11.6162 6.05704Z"/>
<path d="M11.9746 4.47891L9.69434 5.09024L9.43555 4.12442L11.7158 3.51309L11.9746 4.47891Z"/>
<path d="M10.6162 2.32657L9.25 3.73965L8.8916 3.392L8.53125 3.04434L9.89844 1.63126L10.6162 2.32657Z"/>
</svg>
