<!-- Generated by IcoMoon.io -->
<svg version="1.1" xmlns="http://www.w3.org/2000/svg" width="12" height="12" viewBox="0 0 12 12">
<title>attach</title>
<path d="M3 2c0-1.105 0.895-2 2-2h3c1.105 0 2 0.895 2 2v7h-1v-7c0-0.552-0.448-1-1-1h-3c-0.552 0-1 0.448-1 1v8.25c0 0.414 0.336 0.75 0.75 0.75h1.5c0.414 0 0.75-0.336 0.75-0.75v-6.75c0-0.276-0.224-0.5-0.5-0.5s-0.5 0.224-0.5 0.5v5.5h-1v-6c0-0.552 0.448-1 1-1h1c0.552 0 1 0.448 1 1v7.5c0 0.828-0.672 1.5-1.5 1.5h-2c-0.828 0-1.5-0.672-1.5-1.5v-8.5z"></path>
</svg>
