<svg width="12" height="12" viewBox="0 0 12 12" fill="none" xmlns="http://www.w3.org/2000/svg">
<path fill-rule="evenodd" clip-rule="evenodd" d="M0 2.75C0 1.23122 1.23122 0 2.75 0H9.25C10.7688 0 12 1.23122 12 2.75C12 4.26878 10.7688 5.5 9.25 5.5H2.75C1.23122 5.5 0 4.26878 0 2.75ZM1 2.75C1 1.7835 1.7835 1 2.75 1C3.7165 1 4.5 1.7835 4.5 2.75C4.5 3.7165 3.7165 4.5 2.75 4.5C1.7835 4.5 1 3.7165 1 2.75ZM5.5 2.75C5.5 3.41481 5.26409 4.02453 4.87142 4.5H9.25C10.2165 4.5 11 3.7165 11 2.75C11 1.7835 10.2165 1 9.25 1H4.87142C5.26409 1.47547 5.5 2.08519 5.5 2.75Z" fill="#4C505B"/>
<path fill-rule="evenodd" clip-rule="evenodd" d="M0 9.25C0 7.73122 1.23122 6.5 2.75 6.5H9.25C10.7688 6.5 12 7.73122 12 9.25C12 10.7688 10.7688 12 9.25 12H2.75C1.23122 12 0 10.7688 0 9.25ZM9.25 7.5C8.2835 7.5 7.5 8.2835 7.5 9.25C7.5 10.2165 8.2835 11 9.25 11C10.2165 11 11 10.2165 11 9.25C11 8.2835 10.2165 7.5 9.25 7.5ZM7.12858 11C6.73591 10.5245 6.5 9.91481 6.5 9.25C6.5 8.58519 6.73591 7.97547 7.12858 7.5H2.75C1.7835 7.5 1 8.2835 1 9.25C1 10.2165 1.7835 11 2.75 11H7.12858Z" fill="#4C505B"/>
</svg>
