<svg width="12" height="12" viewBox="0 0 12 12" fill="none" xmlns="http://www.w3.org/2000/svg">
<path fill-rule="evenodd" clip-rule="evenodd" d="M0 2.75C0 1.23122 1.23122 0 2.75 0H9.25C10.7688 0 12 1.23122 12 2.75C12 4.26878 10.7688 5.5 9.25 5.5H2.75C1.23122 5.5 0 4.26878 0 2.75ZM4.5 2.75C4.5 3.7165 3.7165 4.5 2.75 4.5C1.7835 4.5 1 3.7165 1 2.75C1 1.7835 1.7835 1 2.75 1C3.7165 1 4.5 1.7835 4.5 2.75Z" fill="#4C505B"/>
<path fill-rule="evenodd" clip-rule="evenodd" d="M12 9.25C12 10.7688 10.7688 12 9.25 12L2.75 12C1.23122 12 0 10.7688 0 9.25C0 7.73122 1.23122 6.5 2.75 6.5L9.25 6.5C10.7688 6.5 12 7.73122 12 9.25ZM7.5 9.25C7.5 8.2835 8.2835 7.5 9.25 7.5C10.2165 7.5 11 8.2835 11 9.25C11 10.2165 10.2165 11 9.25 11C8.2835 11 7.5 10.2165 7.5 9.25Z" fill="#4C505B"/>
</svg>
