<svg width="12" height="12" viewBox="0 0 12 12" fill="none" xmlns="http://www.w3.org/2000/svg">
<path d="M0 11H12V12H0V11Z" fill="#4C505B"/>
<path fill-rule="evenodd" clip-rule="evenodd" d="M6 2H1V11H6V2ZM0 1V12H7V1H0Z" fill="#4C505B"/>
<path fill-rule="evenodd" clip-rule="evenodd" d="M11 5H9V11H11V5ZM8 4V12H12V4H8Z" fill="#4C505B"/>
<path d="M2 3H3V4H2V3Z" fill="#4C505B"/>
<path d="M2 5H3V6H2V5Z" fill="#4C505B"/>
<path d="M2 7H3V8H2V7Z" fill="#4C505B"/>
<path d="M4 3H5V4H4V3Z" fill="#4C505B"/>
<path d="M4 5H5V6H4V5Z" fill="#4C505B"/>
<path d="M4 7H5V8H4V7Z" fill="#4C505B"/>
<path d="M3 11V9H4V11H3Z" fill="#4C505B"/>
</svg>
