<svg width="12" height="12" viewBox="0 0 12 12" fill="none" xmlns="http://www.w3.org/2000/svg">
<path fill-rule="evenodd" clip-rule="evenodd" d="M11 1H1V11H11V1ZM0 0V12H12V0H0Z" fill="#4C505B"/>
<path d="M8 2H9V6H8V2Z" fill="#4C505B"/>
<path d="M9 2H8V3.5H6.5V4.5H8V6H9V4.5H10.5V3.5H9V2Z" fill="#4C505B"/>
<path d="M2.20711 6.5L1.5 7.20711L2.56066 8.26777L1.5 9.32843L2.20711 10.0355L3.26777 8.97487L4.32843 10.0355L5.03553 9.32843L3.97487 8.26777L5.03553 7.20711L4.32843 6.5L3.26777 7.56066L2.20711 6.5Z" fill="#4C505B"/>
<path d="M1.5 3.5H5.5V4.5H1.5V3.5Z" fill="#4C505B"/>
<path d="M6.5 9H10.5V10H6.5V9Z" fill="#4C505B"/>
<path d="M6.5 7H10.5V8H6.5V7Z" fill="#4C505B"/>
</svg>
