<!-- Generated by IcoMoon.io -->
<svg version="1.1" xmlns="http://www.w3.org/2000/svg" viewBox="0 0 12 12">
<title>call</title>
<path d="M0.931 2.364c0.056 0.895 0.992 3.238 2.862 5.124 1.859 1.867 3.997 3.402 4.561 3.473s0.722 0.030 0.722 0.030c0.158 0.030 1.763-0.746 2.005-1.582-0.487-0.234-1.709-0.888-2.205-1.125l-1.322 1-1.302-0.919c-0.275-0.145-1.263-1.018-1.944-1.773s-1.351-1.685-1.492-1.952l-0.266-0.52 0.754-0.953-0.989-2.142c-0.706 0.268-1.415 0.79-1.384 1.339zM8.59 11.999c-1.215 0-3.538-1.966-5.517-3.853s-2.994-4.454-3.071-5.7c-0.065-1.132 1.584-2.287 2.764-2.445l1.652 3.349-0.827 0.959c0.158 0.283 1.076 1.429 1.846 2.206 0.77 0.768 1.752 1.573 2.040 1.735l1.184-0.883c0 0 2.345 1.003 3.023 1.362 0 0 0.169 0.097 0.252 0.374s0.060 0.389 0.060 0.389c-0.273 1.206-1.269 1.782-2.319 2.263 0 0-0.217 0.093-0.552 0.176s-0.537 0.068-0.537 0.068z"></path>
</svg>
