<!-- Generated by IcoMoon.io -->
<svg version="1.1" xmlns="http://www.w3.org/2000/svg" width="12" height="12" viewBox="0 0 12 12">
<title>call</title>
<path d="M0.928 2.367c0.016 0.227 0.086 0.531 0.211 0.914s0.305 0.808 0.539 1.277c0.242 0.469 0.539 0.957 0.89 1.465s0.762 0.996 1.23 1.465c0.461 0.469 0.933 0.91 1.418 1.324 0.476 0.414 0.922 0.777 1.336 1.090 0.422 0.312 0.793 0.562 1.113 0.75s0.551 0.293 0.691 0.316c0.281 0.031 0.469 0.043 0.562 0.035 0.102-0.008 0.152-0.012 0.152-0.012 0.039 0.008 0.156-0.031 0.352-0.117 0.187-0.086 0.394-0.199 0.621-0.34 0.227-0.148 0.441-0.32 0.644-0.515s0.336-0.398 0.398-0.609c-0.25-0.117-0.621-0.305-1.113-0.562-0.484-0.258-0.851-0.445-1.101-0.562l-1.312 1.008-1.312-0.926c-0.133-0.070-0.406-0.289-0.82-0.656-0.406-0.367-0.777-0.738-1.113-1.113-0.344-0.375-0.664-0.762-0.961-1.16-0.289-0.398-0.469-0.664-0.539-0.797l-0.258-0.516 0.75-0.949-0.984-2.144c-0.359 0.133-0.687 0.32-0.984 0.562-0.289 0.242-0.426 0.5-0.41 0.773zM8.59 11.998c-0.305 0-0.672-0.109-1.101-0.328-0.422-0.227-0.879-0.52-1.371-0.879-0.492-0.367-1-0.781-1.523-1.242-0.516-0.461-1.023-0.93-1.523-1.406-0.492-0.469-0.926-0.973-1.301-1.511-0.375-0.531-0.691-1.055-0.949-1.57-0.25-0.516-0.445-1.004-0.586-1.465-0.133-0.453-0.211-0.836-0.234-1.148-0.016-0.281 0.066-0.559 0.246-0.832 0.172-0.281 0.394-0.531 0.668-0.75 0.281-0.227 0.586-0.418 0.914-0.574s0.641-0.254 0.937-0.293l1.652 3.351-0.832 0.961c0.086 0.141 0.32 0.445 0.703 0.914s0.766 0.898 1.148 1.289c0.383 0.383 0.781 0.75 1.195 1.101 0.422 0.344 0.703 0.555 0.844 0.633l1.183-0.879c0 0 0.125 0.055 0.375 0.164s0.543 0.238 0.879 0.387c0.336 0.141 0.672 0.289 1.008 0.445s0.59 0.277 0.762 0.363c0 0 0.031 0.027 0.094 0.082s0.117 0.152 0.164 0.293c0.039 0.141 0.059 0.242 0.059 0.305 0 0.055 0 0.082 0 0.082-0.141 0.601-0.433 1.070-0.879 1.406-0.437 0.336-0.918 0.621-1.441 0.855 0 0-0.051 0.019-0.152 0.059s-0.234 0.078-0.398 0.117c-0.172 0.047-0.305 0.070-0.398 0.070s-0.141 0-0.141 0z"></path>
</svg>
