<svg width="12" height="12" viewBox="0 0 12 12" xmlns="http://www.w3.org/2000/svg">
<path fill-rule="evenodd" clip-rule="evenodd" d="M1 1H4V2H11L10.2852 7H3.71094L3.85547 8H10.1445L10 9H2.99609L2.70703 7H2.71484L2 2H1V1ZM3.15314 3L3.58204 6H9.41796L9.84686 3H3.15314Z"/>
<path d="M9 12C9.55229 12 10 11.5523 10 11C10 10.4477 9.55229 10 9 10C8.44771 10 8 10.4477 8 11C8 11.5523 8.44771 12 9 12Z"/>
<path d="M5 11C5 11.5523 4.55228 12 4 12C3.44772 12 3 11.5523 3 11C3 10.4477 3.44772 10 4 10C4.55228 10 5 10.4477 5 11Z"/>
</svg>
