<svg width="12" height="12" viewBox="0 0 12 12" xmlns="http://www.w3.org/2000/svg">
<path fill-rule="evenodd" clip-rule="evenodd" d="M10.5 3.5C11.3284 3.5 12 2.82843 12 2C12 1.17157 11.3284 0.5 10.5 0.5C9.67157 0.5 9 1.17157 9 2C9 2.43533 9.18545 2.82734 9.48165 3.10135L7.59886 7.50321C7.56618 7.50107 7.53322 7.5 7.5 7.5C7.34305 7.5 7.19174 7.5241 7.04954 7.56881L5.74569 5.83589C5.90629 5.59703 6 5.30946 6 5C6 4.17157 5.32843 3.5 4.5 3.5C3.67157 3.5 3 4.17157 3 5C3 5.36401 3.12966 5.69773 3.34533 5.95752L1.80163 8.53033L1.79617 8.52922C1.70043 8.51005 1.60139 8.49999 1.5 8.49999C0.671578 8.49999 0 9.17156 0 9.99999C0 10.8284 0.671566 11.5 1.5 11.5C2.32843 11.5 3 10.8284 3 9.99999C3 9.6352 2.8698 9.3009 2.65336 9.04089L4.19292 6.46854C4.29205 6.48916 4.39477 6.5 4.5 6.5C4.65427 6.5 4.80309 6.47672 4.94316 6.43346L6.25397 8.1646C6.09357 8.40336 6 8.69075 6 9C6 9.82839 6.67157 10.5 7.5 10.5C8.32843 10.5 9 9.82839 9 9C9 8.56436 8.81429 8.17211 8.51774 7.89807L10.4008 3.49677C10.4336 3.49891 10.4667 3.5 10.5 3.5ZM5.25 5C5.25 5.41421 4.91421 5.75 4.5 5.75C4.08579 5.75 3.75 5.41421 3.75 5C3.75 4.58579 4.08579 4.25 4.5 4.25C4.91421 4.25 5.25 4.58579 5.25 5ZM2.25 10C2.25 10.4142 1.91421 10.75 1.5 10.75C1.08579 10.75 0.75 10.4142 0.75 10C0.75 9.5858 1.08579 9.25 1.5 9.25C1.91421 9.25 2.25 9.5858 2.25 10ZM8.25 9.00001C8.25 9.41422 7.91421 9.75001 7.5 9.75001C7.08579 9.75001 6.75 9.41422 6.75 9.00001C6.75 8.5858 7.08579 8.25001 7.5 8.25001C7.91421 8.25001 8.25 8.5858 8.25 9.00001ZM11.25 2C11.25 2.41421 10.9142 2.75 10.5 2.75C10.0858 2.75 9.75 2.41421 9.75 2C9.75 1.58579 10.0858 1.25 10.5 1.25C10.9142 1.25 11.25 1.58579 11.25 2Z"/>
</svg>
