<svg width="12" height="12" viewBox="0 0 12 12" xmlns="http://www.w3.org/2000/svg">
<path d="M1.14286 10.8571H12V12H0V0H1.14286V10.8571Z"/>
<path fill-rule="evenodd" clip-rule="evenodd" d="M4.57143 6.28571C5.5182 6.28571 6.28571 7.05323 6.28571 8C6.28556 8.94664 5.51811 9.71428 4.57143 9.71428C3.62475 9.71428 2.85729 8.94664 2.85714 8C2.85714 7.05323 3.62465 6.28571 4.57143 6.28571Z"/>
<path fill-rule="evenodd" clip-rule="evenodd" d="M10.2857 5.14286C11.2325 5.14286 12 5.91037 12 6.85714C11.9998 7.80379 11.2324 8.57143 10.2857 8.57143C9.33903 8.57143 8.57158 7.80379 8.57143 6.85714C8.57143 5.91037 9.33894 5.14286 10.2857 5.14286Z"/>
<path fill-rule="evenodd" clip-rule="evenodd" d="M5.71429 0.571429C6.66106 0.571429 7.42857 1.33894 7.42857 2.28571C7.42842 3.23236 6.66097 4 5.71429 4C4.7676 4 4.00015 3.23236 4 2.28571C4 1.33894 4.76751 0.571429 5.71429 0.571429Z"/>
</svg>
