<svg width="12" height="12" viewBox="0 0 12 12" xmlns="http://www.w3.org/2000/svg">
<path d="M1.75 10.25H11.25V11.25H0.75V0.75H1.75V10.25Z"/>
<path fill-rule="evenodd" clip-rule="evenodd" d="M8.75 5.5C9.85456 5.50001 10.75 6.39544 10.75 7.5C10.75 8.60456 9.85456 9.49999 8.75 9.5C7.64543 9.5 6.75 8.60457 6.75 7.5C6.75 6.39543 7.64543 5.5 8.75 5.5ZM8.75 6.5C8.19772 6.5 7.75 6.94772 7.75 7.5C7.75 8.05228 8.19772 8.5 8.75 8.5C9.30228 8.49999 9.75 8.05228 9.75 7.5C9.75 6.94772 9.30228 6.50001 8.75 6.5Z"/>
<path fill-rule="evenodd" clip-rule="evenodd" d="M3.61328 6.34375C4.44158 6.34388 5.11326 7.01542 5.11328 7.84375C5.11328 8.6721 4.4416 9.34362 3.61328 9.34375C2.78485 9.34375 2.11328 8.67218 2.11328 7.84375C2.1133 7.01534 2.78487 6.34375 3.61328 6.34375ZM3.61328 7.34375C3.33715 7.34375 3.1133 7.56763 3.11328 7.84375C3.11328 8.11989 3.33714 8.34375 3.61328 8.34375C3.88931 8.34362 4.11328 8.11981 4.11328 7.84375C4.11326 7.56771 3.8893 7.34388 3.61328 7.34375Z"/>
<path fill-rule="evenodd" clip-rule="evenodd" d="M5.38379 1.04492C6.76421 1.04518 7.88367 2.16447 7.88379 3.54492C7.88379 4.92548 6.76428 6.04466 5.38379 6.04492C4.00308 6.04492 2.88379 4.92563 2.88379 3.54492C2.88391 2.16431 4.00315 1.04492 5.38379 1.04492ZM5.38379 2.04492C4.55543 2.04492 3.88391 2.71659 3.88379 3.54492C3.88379 4.37335 4.55536 5.04492 5.38379 5.04492C6.212 5.04466 6.88379 4.37319 6.88379 3.54492C6.88367 2.71675 6.21193 2.04518 5.38379 2.04492Z"/>
</svg>
