<svg width="12" height="12" viewBox="0 0 12 12" xmlns="http://www.w3.org/2000/svg">
<path d="M10.6221 9.80859C9.52153 11.1469 7.86012 12 6 12L5.69141 11.9922C3.95635 11.9037 2.41724 11.0718 1.37793 9.80762L2.25488 9.29785C3.17203 10.3426 4.51143 11 6 11C7.48811 11 8.82604 10.3421 9.74316 9.29785L10.6221 9.80859Z"/>
<path d="M5 1.01562C2.72208 1.48228 1.00038 3.51268 1 5.95703C1 6.51502 1.09031 7.05157 1.25586 7.55273L0.375977 8.06445C0.1335 7.40826 0 6.69824 0 5.95703C0.000390459 2.96341 2.16263 0.479479 5 0V1.01562Z"/>
<path d="M7 0C9.83737 0.479479 11.9996 2.96341 12 5.95703C12 6.69836 11.8656 7.40818 11.623 8.06445L10.7432 7.55273C10.9088 7.05149 11 6.51513 11 5.95703C10.9996 3.51268 9.27792 1.48228 7 1.01562V0Z"/>
</svg>
