<svg width="12" height="12" viewBox="0 0 12 12" xmlns="http://www.w3.org/2000/svg" >
<path d="M0.112857 9.94554L0.433882 7.40351C0.169708 6.8495 0.0158076 6.23204 0.00114923 5.57881C-0.0543514 3.1055 1.90733 1.056 4.38268 1.00112C5.51123 0.976106 6.55172 1.37001 7.35512 2.04043C5.41002 2.52245 3.94862 4.25707 3.90154 6.35501C3.87036 7.74476 4.46634 9.00275 5.43084 9.85872C5.15713 9.91748 4.87393 9.95134 4.58367 9.95777C3.75695 9.9761 2.97749 9.76962 2.30387 9.39432L0.112857 9.94554Z" />
<path d="M11.9107 9.98946L11.6567 7.97824C11.8657 7.53991 11.9875 7.05137 11.9991 6.53454C12.043 4.57769 10.4909 2.95615 8.53248 2.91274C6.57402 2.86932 4.95077 4.42046 4.90686 6.37731C4.86295 8.33416 6.415 9.95569 8.37347 9.99911C9.02754 10.0136 9.64423 9.85026 10.1772 9.55334L11.9107 9.98946Z" />
</svg>
