<svg width="12" height="12" viewBox="0 0 12 12" >
<path d="M5.53096 6.93326C6.08636 6.93326 6.53659 6.47339 6.53659 5.90611C6.53659 5.33883 6.08636 4.87896 5.53096 4.87896C4.97557 4.87896 4.52533 5.33883 4.52533 5.90611C4.52533 6.47339 4.97557 6.93326 5.53096 6.93326Z" />
<path d="M3.77111 5.90611C3.77111 6.47339 3.32088 6.93326 2.76548 6.93326C2.21009 6.93326 1.75985 6.47339 1.75985 5.90611C1.75985 5.33883 2.21009 4.87896 2.76548 4.87896C3.32088 4.87896 3.77111 5.33883 3.77111 5.90611Z" />
<path d="M8.29645 6.93326C8.85184 6.93326 9.30208 6.47339 9.30208 5.90611C9.30208 5.33883 8.85184 4.87896 8.29645 4.87896C7.74105 4.87896 7.29082 5.33883 7.29082 5.90611C7.29082 6.47339 7.74105 6.93326 8.29645 6.93326Z" />
<path fill-rule="evenodd" clip-rule="evenodd" d="M5.65667 11.5554C6.74104 11.5554 7.75414 11.2438 8.61481 10.7034L12 12L10.6868 8.42327C11.0872 7.63061 11.3133 6.73113 11.3133 5.77771C11.3133 2.58677 8.78076 0 5.65667 0C2.53258 0 0 2.58677 0 5.77771C0 8.96866 2.53258 11.5554 5.65667 11.5554ZM5.65667 1.00482C3.0759 1.00482 0.983768 3.14172 0.983768 5.77771C0.983768 8.41371 3.0759 10.5506 5.65667 10.5506C6.72928 10.5506 7.71749 10.1815 8.50617 9.56082L9.55348 9.9658L10.2816 10.2448L10.0004 9.47898L9.58803 8.35878C10.0573 7.61464 10.3296 6.72865 10.3296 5.77771C10.3296 3.14172 8.23744 1.00482 5.65667 1.00482Z" />
</svg>
