<!-- Generated by IcoMoon.io -->
<svg version="1.1" xmlns="http://www.w3.org/2000/svg" width="12" height="12" viewBox="0 0 12 12">
<title>chat-group</title>
<path d="M6.557 9.452c0.526 0.333 1.148 0.532 1.816 0.547 0.654 0.014 1.271-0.149 1.804-0.446l1.733 0.436-0.254-2.011c0.209-0.438 0.331-0.927 0.342-1.444 0.044-1.957-1.508-3.578-3.466-3.622-0.45-0.010-0.883 0.064-1.283 0.209 0.29-0.104 0.597-0.172 0.915-0.198-0.83-1.191-2.222-1.957-3.782-1.922-2.475 0.055-4.437 2.104-4.381 4.578 0.015 0.653 0.169 1.271 0.433 1.825l-0.321 2.542 2.191-0.551c0.674 0.375 1.453 0.582 2.28 0.563 0.712-0.016 1.382-0.197 1.973-0.505zM2.444 8.328l-1.156 0.291 0.174-1.381-0.126-0.265c-0.205-0.429-0.324-0.908-0.336-1.417-0.043-1.92 1.48-3.513 3.404-3.556 1.069-0.024 2.036 0.436 2.692 1.179-1.259 0.521-2.158 1.748-2.19 3.197-0.020 0.893 0.292 1.717 0.824 2.352-0.364 0.139-0.758 0.22-1.17 0.229-0.644 0.014-1.248-0.146-1.771-0.437l-0.346-0.193zM10.036 8.487l-0.346 0.193c-0.382 0.213-0.823 0.33-1.295 0.32-1.407-0.031-2.521-1.196-2.489-2.6s1.196-2.518 2.603-2.487c1.407 0.031 2.521 1.196 2.489 2.6-0.008 0.373-0.096 0.722-0.245 1.036l-0.126 0.265 0.107 0.85-0.698-0.176z"></path>
</svg>
