<svg width="12" height="12" viewBox="0 0 12 12" xmlns="http://www.w3.org/2000/svg">
<path fill-rule="evenodd" clip-rule="evenodd" d="M6.5565 9.45235C5.96515 9.76103 5.29546 9.94198 4.58323 9.95777C3.7566 9.9761 2.97722 9.76963 2.30367 9.39433L0.112844 9.94555L0.43384 7.40351C0.169692 6.8495 0.0158061 6.23204 0.00114912 5.57881C-0.0543462 3.1055 1.90715 1.056 4.38226 1.00112C5.94243 0.966534 7.33427 1.73273 8.16399 2.92336C7.8456 2.94898 7.53871 3.01678 7.24906 3.12126C7.64879 2.97708 8.08136 2.90275 8.53166 2.91274C10.4899 2.95615 12.0418 4.57769 11.9979 6.53454C11.9863 7.05137 11.8646 7.5399 11.6556 7.97822L11.9096 9.98946L10.1762 9.55333C9.64329 9.85026 9.02667 10.0136 8.37265 9.99911C7.70414 9.98429 7.08298 9.78555 6.5565 9.45235ZM2.44384 8.32784L1.28829 8.61858L1.46262 7.23808L1.33637 6.9733C1.13187 6.5444 1.01223 6.06576 1.00081 5.55664C0.957718 3.63625 2.4809 2.04352 4.40469 2.00087C5.47386 1.97717 6.44089 2.43724 7.09648 3.18034C5.83728 3.70175 4.93889 4.92831 4.90638 6.37731C4.88634 7.27054 5.19879 8.0939 5.73063 8.72919C5.36671 8.8686 4.97295 8.94889 4.5608 8.95802C3.91675 8.9723 3.3125 8.81185 2.79014 8.5208L2.44384 8.32784ZM10.036 8.48685L9.68972 8.6798C9.30801 8.89248 8.86652 9.00981 8.39509 8.99936C6.98813 8.96817 5.87454 7.8034 5.90604 6.39947C5.93754 4.99555 7.10227 3.88129 8.50922 3.91248C9.91618 3.94368 11.0298 5.10844 10.9983 6.51237C10.9899 6.88509 10.9024 7.23479 10.7531 7.54802L10.6268 7.81279L10.7341 8.66249L10.036 8.48685Z"/>
</svg>
