<!-- Generated by IcoMoon.io -->
<svg version="1.1" xmlns="http://www.w3.org/2000/svg" viewBox="0 0 12 12">
<title>chat-group-solid</title>
<path d="M4.507 1c2.485 0 4.5 2.015 4.5 4.5s-2.015 4.5-4.5 4.5c-0.809 0-1.568-0.213-2.224-0.587v0l-2.283 0.608 0.401-2.677c-0.253-0.563-0.394-1.187-0.394-1.844 0-2.485 2.015-4.5 4.5-4.5zM9.311 3.095c1.542 0.366 2.689 1.752 2.689 3.405 0 0.546-0.125 1.062-0.347 1.522l0.347 1.978-1.806-0.437c-0.502 0.278-1.080 0.437-1.694 0.437-0.497 0-0.97-0.104-1.398-0.29 1.699-0.645 2.905-2.286 2.905-4.21 0-0.885-0.255-1.71-0.696-2.405z"></path>
</svg>
