<!-- Generated by IcoMoon.io -->
<svg version="1.1" xmlns="http://www.w3.org/2000/svg" width="12" height="12" viewBox="0 0 12 12">
<title>chat</title>
<path d="M8.567 10.67l3.366 1.262-1.306-3.482c0.398-0.772 0.623-1.647 0.623-2.576 0-3.107-2.518-5.625-5.625-5.625s-5.625 2.518-5.625 5.625c0 3.107 2.518 5.625 5.625 5.625 1.078 0 2.086-0.303 2.942-0.829zM0.978 5.875c0-2.566 2.080-4.647 4.647-4.647s4.647 2.080 4.647 4.647c0 0.926-0.271 1.788-0.737 2.513l0.41 1.091 0-0.001 0.28 0.746-0.724-0.272-1.041-0.394c-0.784 0.604-1.767 0.964-2.834 0.964-2.566 0-4.647-2.080-4.647-4.647z"></path>
</svg>
