<!-- Generated by IcoMoon.io -->
<svg version="1.1" xmlns="http://www.w3.org/2000/svg" width="12" height="12" viewBox="0 0 12 12">
<title>chatting</title>
<path d="M5.531 6.933c0.555 0 1.006-0.46 1.006-1.027s-0.45-1.027-1.006-1.027c-0.555 0-1.006 0.46-1.006 1.027s0.45 1.027 1.006 1.027z"></path>
<path d="M3.771 5.906c0 0.567-0.45 1.027-1.006 1.027s-1.006-0.46-1.006-1.027c0-0.567 0.45-1.027 1.006-1.027s1.006 0.46 1.006 1.027z"></path>
<path d="M8.296 6.933c0.555 0 1.006-0.46 1.006-1.027s-0.45-1.027-1.006-1.027c-0.555 0-1.006 0.46-1.006 1.027s0.45 1.027 1.006 1.027z"></path>
<path d="M5.657 11.555c-3.124 0-5.657-2.587-5.657-5.778s2.533-5.778 5.657-5.778c3.124 0 5.657 2.587 5.657 5.778 0 0.953-0.226 1.853-0.626 2.646l1.313 3.577-3.385-1.297c-0.861 0.54-1.874 0.852-2.958 0.852zM5.657 1.005c-2.581 0-4.673 2.137-4.673 4.773s2.092 4.773 4.673 4.773c1.073 0 2.061-0.369 2.849-0.99l1.047 0.405 0.728 0.279-0.281-0.766-0.412-1.12c0.469-0.744 0.742-1.63 0.742-2.581 0-2.636-2.092-4.773-4.673-4.773z"></path>
</svg>
