<!-- Generated by IcoMoon.io -->
<svg version="1.1" xmlns="http://www.w3.org/2000/svg" width="12" height="12" viewBox="0 0 12 12">
<title>chat-group-solid</title>
<path d="M0.113 9.946l0.321-2.542c-0.264-0.554-0.418-1.171-0.433-1.825-0.055-2.473 1.906-4.523 4.382-4.578 1.129-0.025 2.169 0.369 2.972 1.039-1.945 0.482-3.406 2.217-3.454 4.315-0.031 1.39 0.565 2.648 1.529 3.504-0.274 0.059-0.557 0.093-0.847 0.099-0.827 0.018-1.606-0.188-2.28-0.563l-2.191 0.551z"></path>
<path d="M11.911 9.989l-0.254-2.011c0.209-0.438 0.331-0.927 0.342-1.444 0.044-1.957-1.508-3.578-3.467-3.622s-3.582 1.508-3.626 3.465 1.508 3.578 3.467 3.622c0.654 0.014 1.271-0.149 1.804-0.446l1.733 0.436z"></path>
</svg>
