<!-- Generated by IcoMoon.io -->
<svg version="1.1" xmlns="http://www.w3.org/2000/svg" viewBox="0 0 12 12">
<title>chat</title>
<path d="M12 12l-3.378-1.267c-0.845 0.488-1.826 0.767-2.872 0.767-3.176 0-5.75-2.574-5.75-5.75s2.574-5.75 5.75-5.75c3.176 0 5.75 2.574 5.75 5.75 0 1.119-0.32 2.164-0.873 3.047l1.373 3.203zM9.502 8.71l0.278-0.444c0.468-0.748 0.72-1.612 0.72-2.516 0-2.623-2.127-4.75-4.75-4.75s-4.75 2.127-4.75 4.75c0 2.623 2.127 4.75 4.75 4.75 0.846 0 1.657-0.22 2.371-0.633l0.409-0.236 1.628 0.611-0.656-1.531z"></path>
</svg>
