<!-- Generated by IcoMoon.io -->
<svg version="1.1" xmlns="http://www.w3.org/2000/svg" width="12" height="12" viewBox="0 0 12 12">
<title>chatting-solid</title>
<path d="M5.657 0c-3.124 0-5.657 2.587-5.657 5.778s2.533 5.778 5.657 5.778c1.084 0 2.097-0.312 2.958-0.852l3.385 1.297-1.313-3.577c0.4-0.793 0.626-1.692 0.626-2.646 0-3.191-2.533-5.778-5.657-5.778zM6.537 5.906c0 0.567-0.45 1.027-1.006 1.027s-1.006-0.46-1.006-1.027c0-0.567 0.45-1.027 1.006-1.027s1.006 0.46 1.006 1.027zM9.302 5.906c0 0.567-0.45 1.027-1.006 1.027s-1.006-0.46-1.006-1.027c0-0.567 0.45-1.027 1.006-1.027s1.006 0.46 1.006 1.027zM3.771 5.906c0 0.567-0.45 1.027-1.006 1.027s-1.006-0.46-1.006-1.027c0-0.567 0.45-1.027 1.006-1.027s1.006 0.46 1.006 1.027z"></path>
</svg>
