<svg width="12" height="12" viewBox="0 0 12 12" fill="none" xmlns="http://www.w3.org/2000/svg">
<path d="M4.30565 8C3.93581 8 3.61543 7.92915 3.34452 7.78746C3.07362 7.64576 2.86514 7.42857 2.71908 7.13589C2.57303 6.84321 2.5 6.47154 2.5 6.02091C2.5 5.55168 2.58009 5.16841 2.74028 4.87108C2.90047 4.57375 3.12191 4.35424 3.40459 4.21254C3.68964 4.07085 4.0159 4 4.38339 4C4.61661 4 4.82744 4.02323 5.0159 4.06969C5.20671 4.11382 5.36808 4.16841 5.5 4.23345L5.25265 4.8885C5.10895 4.83043 4.96172 4.78165 4.81095 4.74216C4.66019 4.70267 4.51531 4.68293 4.37633 4.68293C4.14782 4.68293 3.95701 4.73287 3.80389 4.83275C3.65312 4.93264 3.54005 5.0813 3.46466 5.27875C3.39164 5.47619 3.35512 5.72125 3.35512 6.01394C3.35512 6.29733 3.39282 6.53659 3.4682 6.73171C3.54358 6.92451 3.65548 7.07085 3.80389 7.17073C3.9523 7.26829 4.13486 7.31707 4.35159 7.31707C4.56596 7.31707 4.75795 7.29152 4.92756 7.24042C5.09717 7.18931 5.25736 7.12311 5.40813 7.04181V7.75261C5.25972 7.83624 5.10071 7.89779 4.9311 7.93728C4.76148 7.97909 4.553 8 4.30565 8Z" fill="#4C505B"/>
<path d="M8.30565 8C7.93581 8 7.61543 7.92915 7.34452 7.78746C7.07362 7.64576 6.86514 7.42857 6.71908 7.13589C6.57303 6.84321 6.5 6.47154 6.5 6.02091C6.5 5.55168 6.58009 5.16841 6.74028 4.87108C6.90047 4.57375 7.12191 4.35424 7.40459 4.21254C7.68963 4.07085 8.0159 4 8.38339 4C8.61661 4 8.82744 4.02323 9.0159 4.06969C9.20671 4.11382 9.36808 4.16841 9.5 4.23345L9.25265 4.8885C9.10895 4.83043 8.96172 4.78165 8.81095 4.74216C8.66019 4.70267 8.51531 4.68293 8.37633 4.68293C8.14782 4.68293 7.95701 4.73287 7.80389 4.83275C7.65312 4.93264 7.54005 5.0813 7.46466 5.27875C7.39164 5.47619 7.35512 5.72125 7.35512 6.01394C7.35512 6.29733 7.39282 6.53659 7.4682 6.73171C7.54358 6.92451 7.65548 7.07085 7.80389 7.17073C7.9523 7.26829 8.13486 7.31707 8.35159 7.31707C8.56596 7.31707 8.75795 7.29152 8.92756 7.24042C9.09717 7.18931 9.25736 7.12311 9.40813 7.04181V7.75261C9.25972 7.83624 9.10071 7.89779 8.9311 7.93728C8.76148 7.97909 8.553 8 8.30565 8Z" fill="#4C505B"/>
<path fill-rule="evenodd" clip-rule="evenodd" d="M0 11V1H12V11H0ZM1 2H11V10H1V2Z" fill="#4C505B"/>
</svg>
