<svg width="12" height="12" viewBox="0 0 12 12" fill="none" xmlns="http://www.w3.org/2000/svg">
<path d="M0 11V2.13114L2.74255 4.86689L2.74028 4.87108C2.58009 5.16841 2.5 5.55168 2.5 6.02091C2.5 6.47154 2.57303 6.84321 2.71908 7.13589C2.86514 7.42857 3.07362 7.64576 3.34452 7.78746C3.61543 7.92915 3.93581 8 4.30565 8C4.553 8 4.76148 7.97909 4.9311 7.93728C5.10071 7.89779 5.25972 7.83624 5.40813 7.75261V7.52587L8.89089 11H0Z" fill="#4C505B"/>
<path d="M3.35512 6.01394C3.35512 5.8309 3.3694 5.66648 3.39797 5.52069L5.07335 7.19193C5.02556 7.20937 4.97696 7.22553 4.92756 7.24042C4.75795 7.29152 4.56596 7.31707 4.35159 7.31707C4.13486 7.31707 3.9523 7.26829 3.80389 7.17073C3.65548 7.07085 3.54358 6.92451 3.4682 6.73171C3.39282 6.53659 3.35512 6.29733 3.35512 6.01394Z" fill="#4C505B"/>
<path d="M12 1V9.85211L9.40813 7.26511V7.04181C9.35932 7.06813 9.30953 7.09287 9.25875 7.11602L7.45248 5.31314C7.45642 5.30152 7.46048 5.29005 7.46466 5.27875C7.54005 5.0813 7.65312 4.93264 7.80389 4.83275C7.95701 4.73287 8.14782 4.68293 8.37633 4.68293C8.51531 4.68293 8.66019 4.70267 8.81095 4.74216C8.96172 4.78165 9.10895 4.83043 9.25265 4.8885L9.5 4.23345C9.36808 4.16841 9.20671 4.11382 9.0159 4.06969C8.82744 4.02323 8.61661 4 8.38339 4C8.0159 4 7.68963 4.07085 7.40459 4.21254C7.17771 4.32627 6.99027 4.49013 6.8423 4.70411L3.1312 1H12Z" fill="#4C505B"/>
<path d="M10.307 11L1 1.71606L1.71579 1L11 10.2667L10.307 11Z" fill="#4C505B"/>
</svg>
