<svg width="12" height="12" viewBox="0 0 12 12" fill="none" xmlns="http://www.w3.org/2000/svg">
<path d="M3 3.70711L3.70711 3L9.36396 8.65686L8.65685 9.36396L3 3.70711Z" fill="#4C505B"/>
<path d="M0 2.12132V11H8.87869L7.8787 10H1V3.12132L0 2.12132Z" fill="#4C505B"/>
<path d="M11 8.87868V2.00002H4.12134L3.12134 1.00002H12V9.87868L11 8.87868Z" fill="#4C505B"/>
<path d="M1.70711 1L1 1.70711L3.47311 4.18022C3.45001 4.19055 3.42717 4.20133 3.40459 4.21256C3.12191 4.35426 2.90047 4.57377 2.74028 4.8711C2.58009 5.16843 2.5 5.5517 2.5 6.02092C2.5 6.47156 2.57303 6.84322 2.71908 7.1359C2.86514 7.42859 3.07362 7.64578 3.34452 7.78747C3.61543 7.92917 3.93581 8.00002 4.30565 8.00002C4.553 8.00002 4.76148 7.97911 4.9311 7.9373C5.10071 7.89781 5.25972 7.83625 5.40813 7.75263V7.04183C5.25736 7.12313 5.09717 7.18933 4.92756 7.24043C4.75795 7.29154 4.56596 7.31709 4.35159 7.31709C4.13486 7.31709 3.9523 7.26831 3.80389 7.17075C3.65548 7.07086 3.54358 6.92452 3.4682 6.73172C3.39282 6.5366 3.35512 6.29734 3.35512 6.01395C3.35512 5.72127 3.39164 5.47621 3.46466 5.27876C3.54005 5.08132 3.65312 4.93265 3.80389 4.83277C3.87019 4.78952 3.94356 4.75563 4.024 4.73111L10.2929 11L11 10.2929L8.68716 7.98006C8.77586 7.96977 8.85717 7.95552 8.9311 7.9373C9.10071 7.89781 9.25972 7.83625 9.40813 7.75263V7.04183C9.25736 7.12313 9.09717 7.18933 8.92756 7.24043C8.75795 7.29154 8.56596 7.31709 8.35159 7.31709C8.20399 7.31709 8.07223 7.29446 7.95632 7.24921L7.48918 6.78208C7.4819 6.76566 7.4749 6.74888 7.4682 6.73172C7.39282 6.5366 7.35512 6.29734 7.35512 6.01395C7.35512 5.72127 7.39164 5.47621 7.46466 5.27876C7.54005 5.08132 7.65312 4.93265 7.80389 4.83277C7.95701 4.73288 8.14782 4.68294 8.37632 4.68294C8.51531 4.68294 8.66019 4.70269 8.81095 4.74218C8.96172 4.78167 9.10895 4.83045 9.25265 4.88852L9.5 4.23347C9.36808 4.16843 9.20671 4.11384 9.0159 4.0697C8.82744 4.02325 8.61661 4.00002 8.38339 4.00002C8.0159 4.00002 7.68963 4.07086 7.40459 4.21256C7.12191 4.35426 6.90047 4.57377 6.74028 4.8711C6.6061 5.12016 6.52811 5.42954 6.50633 5.79922L5.34666 4.63955L5.5 4.23347C5.36808 4.16843 5.20671 4.11384 5.0159 4.0697C4.9244 4.04715 4.82762 4.03007 4.72557 4.01846L1.70711 1Z" fill="#4C505B"/>
</svg>
