<svg width="12" height="12" viewBox="0 0 12 12" fill="none" xmlns="http://www.w3.org/2000/svg">
<path d="M3 3.70708L3.70711 2.99997L9.36396 8.65683L8.65685 9.36393L3 3.70708Z" fill="#D9D9D9"/>
<path d="M0 2.12129V11H8.87869L7.8787 9.99999H1V3.12129L0 2.12129Z" fill="#4C505B"/>
<path d="M11 8.87865V1.99999H4.12134L3.12134 0.999986H12V9.87865L11 8.87865Z" fill="#4C505B"/>
<path d="M1.70711 0.999969L1 1.70708L3.47311 4.18019C3.45001 4.19052 3.42717 4.2013 3.40459 4.21253C3.12191 4.35422 2.90047 4.57374 2.74028 4.87107C2.58009 5.16839 2.5 5.55167 2.5 6.02089C2.5 6.47153 2.57303 6.84319 2.71908 7.13587C2.86514 7.42856 3.07362 7.64575 3.34452 7.78744C3.61543 7.92914 3.93581 7.99999 4.30565 7.99999C4.553 7.99999 4.76148 7.97908 4.9311 7.93727C5.10071 7.89778 5.25972 7.83622 5.40813 7.7526V7.0418C5.25736 7.1231 5.09717 7.1893 4.92756 7.2404C4.75795 7.29151 4.56596 7.31706 4.35159 7.31706C4.13486 7.31706 3.9523 7.26828 3.80389 7.17072C3.65548 7.07083 3.54358 6.92449 3.4682 6.73169C3.39282 6.53657 3.35512 6.29731 3.35512 6.01392C3.35512 5.72124 3.39164 5.47618 3.46466 5.27873C3.54005 5.08129 3.65312 4.93262 3.80389 4.83274C3.87019 4.78949 3.94356 4.7556 4.024 4.73108L10.2929 11L11 10.2929L8.68716 7.98003C8.77586 7.96974 8.85717 7.95549 8.9311 7.93727C9.10071 7.89778 9.25972 7.83622 9.40813 7.7526V7.0418C9.25736 7.1231 9.09717 7.1893 8.92756 7.2404C8.75795 7.29151 8.56596 7.31706 8.35159 7.31706C8.20399 7.31706 8.07223 7.29443 7.95632 7.24918L7.48918 6.78205C7.4819 6.76563 7.4749 6.74885 7.4682 6.73169C7.39282 6.53657 7.35512 6.29731 7.35512 6.01392C7.35512 5.72124 7.39164 5.47618 7.46466 5.27873C7.54005 5.08129 7.65312 4.93262 7.80389 4.83274C7.95701 4.73285 8.14782 4.68291 8.37632 4.68291C8.51531 4.68291 8.66019 4.70266 8.81095 4.74215C8.96172 4.78164 9.10895 4.83042 9.25265 4.88849L9.5 4.23344C9.36808 4.16839 9.20671 4.11381 9.0159 4.06967C8.82744 4.02321 8.61661 3.99999 8.38339 3.99999C8.0159 3.99999 7.68963 4.07083 7.40459 4.21253C7.12191 4.35422 6.90047 4.57374 6.74028 4.87107C6.6061 5.12013 6.52811 5.42951 6.50633 5.79919L5.34666 4.63952L5.5 4.23344C5.36808 4.16839 5.20671 4.11381 5.0159 4.06967C4.9244 4.04712 4.82762 4.03004 4.72557 4.01843L1.70711 0.999969Z" fill="#4C505B"/>
</svg>
