<svg width="12" height="12" viewBox="0 0 12 12" fill="none" xmlns="http://www.w3.org/2000/svg">
<path d="M2.03323 4.15918C0.850712 4.56149 0 5.6814 0 7C0 8.65685 1.34315 10 3 10H7.88855L6.88607 9H3C1.89543 9 1 8.10457 1 7C1 6.00703 1.72462 5.18138 2.67387 5.0263L2.87033 4.99421L2.03323 4.15918Z" fill="#4C505B"/>
<path d="M10.6309 8.48544C10.8608 8.22187 11 7.87719 11 7.5C11 6.75027 10.449 6.12741 9.73003 6.01739L9.07209 5.9167L8.91102 5.27088C8.58556 3.96586 7.40433 3 6 3C5.73531 3 5.47855 3.03425 5.23394 3.09863L4.44664 2.31281C4.92422 2.11137 5.44911 2 6 2C7.87423 2 9.44739 3.28903 9.8813 5.02889C11.081 5.2125 12 6.24893 12 7.5C12 8.15301 11.7496 8.74755 11.3397 9.19285L10.6309 8.48544Z" fill="#4C505B"/>
<path d="M10.307 11L1 1.71606L1.71579 1L11 10.2667L10.307 11Z" fill="#4C505B"/>
</svg>
