<svg width="12" height="12" viewBox="0 0 12 12" fill="none" xmlns="http://www.w3.org/2000/svg">
<path d="M2.67387 5.0263L3.14804 4.94884L3.38388 4.53025C3.89972 3.61469 4.87873 3 6 3C7.40433 3 8.58556 3.96586 8.91102 5.27088L9.07209 5.9167L9.73003 6.01739C10.449 6.12741 11 6.75027 11 7.5C11 8.32843 10.3284 9 9.5 9H7.5V10H9.5C10.8807 10 12 8.88071 12 7.5C12 6.24893 11.081 5.2125 9.8813 5.02889C9.44739 3.28903 7.87423 2 6 2C4.50324 2 3.19848 2.8221 2.51264 4.03939C1.08757 4.2722 0 5.50909 0 7C0 8.65685 1.34315 10 3 10H4.5V9H3C1.89543 9 1 8.10457 1 7C1 6.00703 1.72462 5.18138 2.67387 5.0263Z" fill="#4C505B"/>
<path d="M6.4954 6.90164L6.4954 12H5.49679L5.49679 6.91726L3.90685 8.50428L3.20001 7.79875L6.00391 5L8.80001 7.79095L8.09318 8.49647L6.4954 6.90164Z" fill="#4C505B"/>
</svg>
