<svg width="12" height="12" viewBox="0 0 12 12" fill="none" xmlns="http://www.w3.org/2000/svg">
<path d="M3 10C1.34315 10 0 8.65685 0 7C0 5.50909 1.08757 4.2722 2.51264 4.03939C3.19848 2.8221 4.50324 2 6 2C7.87423 2 9.44739 3.28903 9.8813 5.02889C11.081 5.2125 12 6.24893 12 7.5C12 8.21184 11.7025 8.85419 11.225 9.3095L7.53689 5.62135H6.15688L4.12135 3.58582L0.585815 7.12135L3.46447 10H3Z" fill="#4C505B"/>
<path d="M4.12132 9.24264L4.82843 8.53553L3.91421 7.62132H7.00003V6.62132H3.91421L4.82843 5.70711L4.12132 5L2 7.12132L4.12132 9.24264Z" fill="#4C505B"/>
<path d="M7.87868 7.37735L7.17157 8.08446L8.08579 8.99867H4.99997V9.99867H8.08579L7.17157 10.9129L7.87868 11.62L10 9.49867L7.87868 7.37735Z" fill="#4C505B"/>
</svg>
