<svg width="12" height="12" viewBox="0 0 12 12" fill="none" xmlns="http://www.w3.org/2000/svg">
<path d="M6 2C6.94245 2 7.80877 2.32593 8.49239 2.87123L5.12133 6.24231L3.70711 4.82809L1.58578 6.9494L4.63637 10H3C1.34315 10 0 8.65685 0 7C0 5.50909 1.08757 4.2722 2.51264 4.03939C3.19848 2.8221 4.50324 2 6 2Z" fill="#4C505B"/>
<path d="M9.5 10H5.60628L10.4283 5.178C11.3493 5.54655 12 6.44729 12 7.5C12 8.88071 10.8807 10 9.5 10Z" fill="#4C505B"/>
<path d="M10.7778 2L5.12133 7.6565L3.70711 6.24227L3 6.94938L5.12133 9.07071L11.4849 2.70711L10.7778 2Z" fill="#4C505B"/>
</svg>
