<svg width="12" height="12" viewBox="0 0 12 12" fill="none" xmlns="http://www.w3.org/2000/svg">
<path d="M6 2C7.87423 2 9.44739 3.28903 9.8813 5.02889C11.081 5.2125 12 6.24893 12 7.5C12 8.88071 10.8807 10 9.5 10H9.00424L10.2155 8.79094L6.0039 4.58709L1.78448 8.79875L2.98793 9.99998C1.33663 9.99347 0 8.65283 0 7C0 5.50909 1.08757 4.2722 2.51264 4.03939C3.19848 2.8221 4.50324 2 6 2Z" fill="#4C505B"/>
<path d="M6.4954 7.90164L6.4954 12H5.49679L5.49679 7.91726L3.90685 9.50428L3.20001 8.79875L6.00391 6L8.80001 8.79095L8.09318 9.49647L6.4954 7.90164Z" fill="#4C505B"/>
</svg>
