<svg width="12" height="12" viewBox="0 0 12 12" fill="none" xmlns="http://www.w3.org/2000/svg">
<path fill-rule="evenodd" clip-rule="evenodd" d="M3.14804 4.94884L2.67387 5.0263C1.72462 5.18138 1 6.00703 1 7C1 8.10457 1.89543 9 3 9H9.5C10.3284 9 11 8.32843 11 7.5C11 6.75027 10.449 6.12741 9.73003 6.01739L9.07209 5.9167L8.91102 5.27088C8.58556 3.96586 7.40433 3 6 3C4.87873 3 3.89972 3.61469 3.38388 4.53025L3.14804 4.94884ZM9.8813 5.02889C9.44739 3.28903 7.87423 2 6 2C4.50324 2 3.19848 2.8221 2.51264 4.03939C1.08757 4.2722 0 5.50909 0 7C0 8.65685 1.34315 10 3 10H9.5C10.8807 10 12 8.88071 12 7.5C12 6.24893 11.081 5.2125 9.8813 5.02889Z" fill="#4C505B"/>
</svg>
