<svg width="12" height="12" viewBox="0 0 12 12" fill="none" xmlns="http://www.w3.org/2000/svg">
<path d="M6 2C6.94245 2 7.80877 2.32593 8.49239 2.87123L7.77929 3.58433C7.28125 3.21703 6.66569 3 6 3C4.87873 3 3.89972 3.61469 3.38388 4.53025L3.14804 4.94884L2.67387 5.0263C1.72462 5.18138 1 6.00703 1 7C1 8.10457 1.89543 9 3 9H3.63637L4.63637 10H3C1.34315 10 0 8.65685 0 7C0 5.50909 1.08757 4.2722 2.51264 4.03939C3.19848 2.8221 4.50324 2 6 2Z" fill="#4C505B"/>
<path d="M9.5 9H6.60628L5.60628 10H9.5C10.8807 10 12 8.88071 12 7.5C12 6.44729 11.3493 5.54655 10.4283 5.178L9.60761 5.99865L9.73003 6.01739C10.449 6.12741 11 6.75027 11 7.5C11 8.32843 10.3284 9 9.5 9Z" fill="#4C505B"/>
<path d="M10.7778 2L5.12133 7.6565L3.70711 6.24227L3 6.94938L5.12133 9.07071L11.4849 2.70711L10.7778 2Z" fill="#4C505B"/>
</svg>
