<svg width="12" height="12" viewBox="0 0 12 12" fill="none" xmlns="http://www.w3.org/2000/svg">
<path d="M6 2C7.87423 2 9.44739 3.28903 9.8813 5.02889C11.081 5.2125 12 6.24893 12 7.5C12 8.88071 10.8807 10 9.5 10H9.42312L10.2155 9.20906L8.09317 7.09062L7.49539 7.68729L7.49539 5H4.49678L4.49678 7.67167L3.90684 7.08282L1.78448 9.20125L2.55131 9.96667C1.10729 9.75011 0 8.50437 0 7C0 5.50909 1.08757 4.2722 2.51264 4.03939C3.19848 2.8221 4.50324 2 6 2Z" fill="#4C505B"/>
<path d="M6.4954 10.0984L6.4954 6H5.49679L5.49679 10.0827L3.90685 8.49572L3.20001 9.20125L6.00391 12L8.80001 9.20905L8.09318 8.50353L6.4954 10.0984Z" fill="#4C505B"/>
</svg>
