<svg width="12" height="12" viewBox="0 0 12 12" fill="none" xmlns="http://www.w3.org/2000/svg">
<path d="M3.14804 4.94884L2.67387 5.0263C1.72462 5.18138 1 6.00703 1 7C1 7.90073 1.59544 8.66239 2.41416 8.91283L3.50133 10H3C1.34315 10 0 8.65685 0 7C0 5.50909 1.08757 4.2722 2.51264 4.03939C3.19848 2.8221 4.50324 2 6 2C7.87423 2 9.44739 3.28903 9.8813 5.02889C11.081 5.2125 12 6.24893 12 7.5C12 8.21183 11.7025 8.85417 11.2251 9.30948L10.5176 8.60204C10.8142 8.328 11 7.93569 11 7.5C11 6.75027 10.449 6.12741 9.73003 6.01739L9.07209 5.9167L8.91102 5.27088C8.58556 3.96586 7.40433 3 6 3C4.87873 3 3.89972 3.61469 3.38388 4.53025L3.14804 4.94884Z" fill="#4C505B"/>
<path d="M4.82843 8.53553L4.12132 9.24264L2 7.12132L4.12132 5L4.82843 5.70711L3.91421 6.62132H7.00003V7.62132H3.91421L4.82843 8.53553Z" fill="#4C505B"/>
<path d="M7.17157 8.08446L7.87868 7.37735L10 9.49867L7.87868 11.62L7.17157 10.9129L8.08579 9.99867H4.99997V8.99867L8.08579 8.99867L7.17157 8.08446Z" fill="#4C505B"/>
</svg>
