<!-- Generated by IcoMoon.io -->
<svg version="1.1" xmlns="http://www.w3.org/2000/svg" width="12" height="12" viewBox="0 0 12 12">
<title>commentary</title>
<path d="M9 2h-6v1h6v-1z"></path>
<path d="M9 4h-6v1h6v-1z"></path>
<path d="M3 6h4v1h-4v-1z"></path>
<path d="M2 0c-1.105 0-2 0.895-2 2v5c0 1.105 0.895 2 2 2v3l3.443-3h4.557c1.105 0 2-0.895 2-2v-5c0-1.105-0.895-2-2-2h-8zM1 2c0-0.552 0.448-1 1-1h8c0.552 0 1 0.448 1 1v5c0 0.552-0.448 1-1 1h-4.943l-2.057 1.739v-1.739h-1c-0.552 0-1-0.448-1-1v-5z"></path>
</svg>
