<svg width="12" height="12" viewBox="0 0 12 12" xmlns="http://www.w3.org/2000/svg">
<path fill-rule="evenodd" clip-rule="evenodd" d="M7.7998 1.56445L6.86426 2.5H10V7.56543C10.8623 7.78765 11.5 8.56829 11.5 9.5C11.5 10.6046 10.6046 11.5 9.5 11.5C8.39543 11.5 7.5 10.6046 7.5 9.5C7.5 8.56829 8.13768 7.78765 9 7.56543V3.5H6.90723L7.7998 4.39258L7.09277 5.09961L4.97168 2.97852L7.09277 0.857422L7.7998 1.56445Z"/>
<path fill-rule="evenodd" clip-rule="evenodd" d="M2.5 0.5C3.60457 0.5 4.5 1.39543 4.5 2.5C4.5 3.43162 3.8622 4.21129 3 4.43359V8.5H5.09277L4.2002 7.60742L4.90723 6.90039L7.02832 9.02148L4.90723 11.1426L4.2002 10.4355L5.13574 9.5H2V4.43359C1.1378 4.21129 0.5 3.43162 0.5 2.5C0.5 1.39543 1.39543 0.5 2.5 0.5Z"/>
</svg>
