<svg width="12" height="12" viewBox="0 0 12 12" xmlns="http://www.w3.org/2000/svg">
<path fill-rule="evenodd" clip-rule="evenodd" d="M7.7998 1.56445L6.86426 2.5H10V7.56543C10.8623 7.78765 11.5 8.56829 11.5 9.5C11.5 10.6046 10.6046 11.5 9.5 11.5C8.39543 11.5 7.5 10.6046 7.5 9.5C7.5 8.56829 8.13768 7.78765 9 7.56543V3.5H6.90723L7.7998 4.39258L7.09277 5.09961L4.97168 2.97852L7.09277 0.857422L7.7998 1.56445ZM9.5 8.5C8.94772 8.5 8.5 8.94772 8.5 9.5C8.5 10.0523 8.94771 10.5 9.5 10.5C10.0523 10.5 10.5 10.0523 10.5 9.5C10.5 8.94772 10.0523 8.5 9.5 8.5Z"/>
<path fill-rule="evenodd" clip-rule="evenodd" d="M2.5 0.5C3.60457 0.5 4.5 1.39543 4.5 2.5C4.5 3.43162 3.8622 4.21129 3 4.43359V8.5H5.09277L4.2002 7.60742L4.90723 6.90039L7.02832 9.02148L4.90723 11.1426L4.2002 10.4355L5.13574 9.5H2V4.43359C1.1378 4.21129 0.5 3.43162 0.5 2.5C0.5 1.39543 1.39543 0.5 2.5 0.5ZM2.5 1.5C1.94772 1.5 1.5 1.94772 1.5 2.5C1.5 3.05228 1.94772 3.5 2.5 3.5C3.05228 3.5 3.5 3.05228 3.5 2.5C3.5 1.94772 3.05228 1.5 2.5 1.5Z"/>
</svg>
