<svg width="12" height="12" viewBox="0 0 12 12" fill="none" xmlns="http://www.w3.org/2000/svg">
<path fill-rule="evenodd" clip-rule="evenodd" d="M11 6C11 8.76142 8.76142 11 6 11C3.23858 11 1 8.76142 1 6C1 3.23858 3.23858 1 6 1C8.76142 1 11 3.23858 11 6ZM12 6C12 9.31371 9.31371 12 6 12C2.68629 12 0 9.31371 0 6C0 2.68629 2.68629 0 6 0C9.31371 0 12 2.68629 12 6ZM4.58579 4.58578L8.82843 3.17157L7.41422 7.41421L3.17157 8.82842L4.58579 4.58578ZM5.37636 5.37635L7.24729 4.75271L6.62365 6.62364L4.75271 7.24728L5.37636 5.37635Z" fill="#4C505B"/>
</svg>
