<svg width="12" height="12" viewBox="0 0 12 12" fill="none" xmlns="http://www.w3.org/2000/svg">
<path fill-rule="evenodd" clip-rule="evenodd" d="M6 0C2.68629 0 0 2.68629 0 6C0 9.31371 2.68629 12 6 12C8.97358 12 11.4419 9.83686 11.9173 6.99832C10.8511 6.95497 10 6.07688 10 5C8.34315 5 7 3.65685 7 2C7 1.91202 7.00379 1.82493 7.01121 1.73887C6.40723 1.39468 6 0.744899 6 0ZM4 6C4 6.55228 3.55228 7 3 7C2.44772 7 2 6.55228 2 6C2 5.44772 2.44772 5 3 5C3.55228 5 4 5.44772 4 6ZM7 9C7.55228 9 8 8.55229 8 8C8 7.44772 7.55228 7 7 7C6.44772 7 6 7.44772 6 8C6 8.55229 6.44772 9 7 9ZM5 9.5C5 9.77614 4.77614 10 4.5 10C4.22386 10 4 9.77614 4 9.5C4 9.22386 4.22386 9 4.5 9C4.77614 9 5 9.22386 5 9.5ZM4.5 4C4.77614 4 5 3.77614 5 3.5C5 3.22386 4.77614 3 4.5 3C4.22386 3 4 3.22386 4 3.5C4 3.77614 4.22386 4 4.5 4Z" fill="#4C505B"/>
<path d="M9 1.5C9 1.77614 8.77614 2 8.5 2C8.22386 2 8 1.77614 8 1.5C8 1.22386 8.22386 1 8.5 1C8.77614 1 9 1.22386 9 1.5Z" fill="#4C505B"/>
<path d="M11 3.5C11 3.77614 10.7761 4 10.5 4C10.2239 4 10 3.77614 10 3.5C10 3.22386 10.2239 3 10.5 3C10.7761 3 11 3.22386 11 3.5Z" fill="#4C505B"/>
<path d="M12 0.5C12 0.776142 11.7761 1 11.5 1C11.2239 1 11 0.776142 11 0.5C11 0.223858 11.2239 0 11.5 0C11.7761 0 12 0.223858 12 0.5Z" fill="#4C505B"/>
</svg>
