<svg width="12" height="12" viewBox="0 0 12 12" fill="none" xmlns="http://www.w3.org/2000/svg">
<path d="M4 6C4 6.55228 3.55228 7 3 7C2.44772 7 2 6.55228 2 6C2 5.44772 2.44772 5 3 5C3.55228 5 4 5.44772 4 6Z" fill="#4C505B"/>
<path d="M8 8C8 8.55229 7.55228 9 7 9C6.44772 9 6 8.55229 6 8C6 7.44772 6.44772 7 7 7C7.55228 7 8 7.44772 8 8Z" fill="#4C505B"/>
<path d="M4.5 10C4.77614 10 5 9.77614 5 9.5C5 9.22386 4.77614 9 4.5 9C4.22386 9 4 9.22386 4 9.5C4 9.77614 4.22386 10 4.5 10Z" fill="#4C505B"/>
<path d="M5 3.5C5 3.77614 4.77614 4 4.5 4C4.22386 4 4 3.77614 4 3.5C4 3.22386 4.22386 3 4.5 3C4.77614 3 5 3.22386 5 3.5Z" fill="#4C505B"/>
<path fill-rule="evenodd" clip-rule="evenodd" d="M5.00112 0.0827716C2.16286 0.558387 0 3.02661 0 6C0 9.31371 2.68629 12 6 12C8.61936 12 10.8467 10.3215 11.6651 7.98146C11.7758 7.66501 11.8607 7.33645 11.9173 6.99832C11.7462 6.99136 11.5806 6.9629 11.4232 6.91557C10.5998 6.66798 10 5.90404 10 5C8.34315 5 7 3.65685 7 2C7 1.91202 7.00379 1.82493 7.01121 1.73887C6.40723 1.39468 6 0.744899 6 0C5.65968 0 5.32598 0.0283348 5.00112 0.0827716ZM5.19447 1.06455C2.81605 1.44976 1 3.5128 1 6C1 8.76142 3.23858 11 6 11C8.16205 11 10.0049 9.62698 10.7019 7.7053C9.9621 7.34972 9.39071 6.69976 9.1396 5.90724C7.42034 5.53037 6.11513 4.04766 6.00722 2.24238C5.64946 1.92417 5.36789 1.52114 5.19447 1.06455Z" fill="#4C505B"/>
<path d="M8.5 2C8.77614 2 9 1.77614 9 1.5C9 1.22386 8.77614 1 8.5 1C8.22386 1 8 1.22386 8 1.5C8 1.77614 8.22386 2 8.5 2Z" fill="#4C505B"/>
<path d="M11 3.5C11 3.77614 10.7761 4 10.5 4C10.2239 4 10 3.77614 10 3.5C10 3.22386 10.2239 3 10.5 3C10.7761 3 11 3.22386 11 3.5Z" fill="#4C505B"/>
<path d="M11.5 1C11.7761 1 12 0.776142 12 0.5C12 0.223858 11.7761 0 11.5 0C11.2239 0 11 0.223858 11 0.5C11 0.776142 11.2239 1 11.5 1Z" fill="#4C505B"/>
</svg>
