<svg width="12" height="12" viewBox="0 0 12 12" >
<path d="M5 7H2V8H5V7Z" />
<path d="M8 7C8 6.44772 8.44771 6 9 6C9.55229 6 10 6.44772 10 7C10 7.55228 9.55229 8 9 8C8.44771 8 8 7.55228 8 7Z" />
<path fill-rule="evenodd" clip-rule="evenodd" d="M0 8.99999V3C0 2.44772 0.447715 2 1 2H11C11.5523 2 12 2.44598 12 2.99826V9.00082C12 9.5531 11.5523 9.99999 11 9.99999H1C0.447715 9.99999 0 9.55228 0 8.99999ZM1 4V3.5C1 3.22386 1.22386 3 1.5 3H10.5C10.7761 3 11 3.22182 11 3.49796V4H1ZM1 5V8.5C1 8.77614 1.22386 9 1.5 9H10.5C10.7761 9 11 8.77678 11 8.50064V5H1Z" />
</svg>
