<!-- Generated by IcoMoon.io -->
<svg version="1.1" xmlns="http://www.w3.org/2000/svg" width="12" height="12" viewBox="0 0 12 12">
<title>credit-card</title>
<path d="M5 7h-3v1h3v-1z"></path>
<path d="M8 7c0-0.552 0.448-1 1-1s1 0.448 1 1c0 0.552-0.448 1-1 1s-1-0.448-1-1z"></path>
<path d="M0 9v-6c0-0.552 0.448-1 1-1h10c0.552 0 1 0.446 1 0.998v6.003c0 0.552-0.448 0.999-1 0.999h-10c-0.552 0-1-0.448-1-1zM1 4h10v-0.502c0-0.276-0.224-0.498-0.5-0.498h-9c-0.276 0-0.5 0.224-0.5 0.5v0.5zM1 5v3.5c0 0.276 0.224 0.5 0.5 0.5h9c0.276 0 0.5-0.223 0.5-0.499v-3.501h-10z"></path>
</svg>
