<svg width="12" height="12" viewBox="0 0 12 12" xmlns="http://www.w3.org/2000/svg" >
<path fill-rule="evenodd" clip-rule="evenodd" d="M7 5.99046L7 11L4 11V9C4 8.66425 4 8.3285 3.97827 7.99999C3.92602 7.2103 3.74819 6.46247 3.14286 5.85714C2.53753 5.25181 1.7897 5.07398 1 5.02173C0.671499 5 0.33575 5 0 5C0 5.33575 0 5.6715 0.0217331 6.00001C0.0739776 6.7897 0.251812 7.53753 0.857143 8.14286C1.46247 8.74819 2.2103 8.92602 3 8.97827L3 11H0V12H12V11H8L8 5.9862C9.07868 5.94113 10.1083 5.74885 10.9286 4.92857C11.7488 4.10829 11.9411 3.07868 11.9862 2C12 1.66973 12 1.33487 12 1C11.6651 1 11.3303 1 11 1.0138C9.92132 1.05887 8.89171 1.25115 8.07143 2.07143C7.88533 2.25752 7.73156 2.45439 7.6045 2.66016C7.41411 2.16656 7.13208 1.70351 6.71429 1.28571C5.67937 0.250796 4.36677 0.048922 3 0.00954385C2.66879 0 2.33439 0 2 0C2 0.334394 2 0.668788 2.00954 1C2.04892 2.36677 2.2508 3.67937 3.28571 4.71429C4.32063 5.7492 5.63323 5.95108 7 5.99046ZM6.00718 1.99282C6.76536 2.751 6.9459 3.71292 6.98776 4.98775C5.71292 4.9459 4.751 4.76536 3.99282 4.00718C3.23464 3.249 3.0541 2.28708 3.01224 1.01225C4.28708 1.0541 5.249 1.23464 6.00718 1.99282ZM10.2215 4.22146C9.66817 4.77476 8.97435 4.93637 8.01765 4.98235C8.06363 4.02565 8.22524 3.33183 8.77853 2.77854C9.33183 2.22524 10.0256 2.06363 10.9823 2.01765C10.9364 2.97435 10.7748 3.66817 10.2215 4.22146ZM2.97155 7.97155C2.92158 7.34798 2.78736 6.91586 2.43575 6.56425C2.08414 6.21264 1.65202 6.07842 1.02845 6.02845C1.07842 6.65202 1.21264 7.08414 1.56425 7.43575C1.91586 7.78736 2.34798 7.92158 2.97155 7.97155Z" />
</svg>
