<svg width="12" height="12" viewBox="0 0 12 12" xmlns="http://www.w3.org/2000/svg" >
<path d="M7.99046 5C8 5.33121 8 5.66561 8 6L8 11H12V12H0V11H3L2.99999 8.97827C2.2103 8.92602 1.46247 8.74819 0.857143 8.14286C0.251812 7.53753 0.0739776 6.7897 0.0217331 6.00001C0 5.6715 0 5.33575 0 5C0.33575 5 0.671499 5 1 5.02173C1.7897 5.07398 2.53753 5.25181 3.14286 5.85714C3.74819 6.46247 3.92602 7.2103 3.97827 7.99999C4 8.3285 4 8.66425 4 9V11L7 11V5.99046C5.63323 5.95108 4.32063 5.7492 3.28571 4.71429C2.2508 3.67937 2.04892 2.36677 2.00954 1C2 0.668788 2 0.334394 2 0C2.33439 0 2.66879 0 3 0.00954385C4.36677 0.048922 5.67937 0.250796 6.71429 1.28571C7.7492 2.32063 7.95108 3.63323 7.99046 5Z" />
<path d="M8.99007 4.9712C8.96135 3.97445 8.8504 2.86524 8.3324 1.83662C9.10515 1.21297 10.0329 1.05421 11 1.0138C11.3303 1 11.6652 1 12 1C12 1.33487 12 1.66973 11.9862 2C11.9412 3.07868 11.7489 4.10829 10.9286 4.92857C10.3668 5.4904 9.70675 5.75761 9.00001 5.88471C8.99991 5.58778 8.99894 5.27917 8.99007 4.9712Z" />
</svg>
