<!-- Generated by IcoMoon.io -->
<svg version="1.1" xmlns="http://www.w3.org/2000/svg" width="12" height="12" viewBox="0 0 12 12">
<title>csv</title>
<path d="M8.707 0h-7.707v6h1v-5h5v3h3v2h1v-3.707l-2.293-2.293zM8 1h0.293l1.707 1.707v0.293h-2v-2z"></path>
<path d="M1.893 7.677c0.189-0.087 0.403-0.13 0.643-0.13 0.203 0 0.399 0.030 0.588 0.089s0.37 0.13 0.543 0.212l0.287-0.677c-0.207-0.103-0.433-0.181-0.677-0.236-0.242-0.057-0.488-0.085-0.738-0.085-0.381 0-0.719 0.063-1.015 0.188-0.294 0.123-0.541 0.3-0.742 0.53-0.201 0.228-0.353 0.499-0.458 0.813s-0.157 0.661-0.157 1.039c0 0.517 0.082 0.968 0.246 1.353 0.166 0.385 0.417 0.684 0.752 0.895 0.337 0.212 0.761 0.318 1.271 0.318 0.271 0 0.51-0.018 0.718-0.055s0.412-0.095 0.615-0.174v-0.697c-0.214 0.071-0.422 0.127-0.622 0.167s-0.407 0.062-0.619 0.062c-0.342 0-0.624-0.074-0.848-0.222-0.223-0.15-0.39-0.365-0.499-0.643-0.109-0.28-0.164-0.614-0.164-1.001 0-0.289 0.034-0.549 0.103-0.779 0.068-0.232 0.167-0.43 0.297-0.591 0.13-0.164 0.288-0.289 0.475-0.376z"></path>
<path d="M7.291 10.558c0 0.296-0.073 0.551-0.219 0.766-0.144 0.214-0.351 0.378-0.622 0.492-0.269 0.114-0.59 0.171-0.964 0.171-0.182 0-0.357-0.010-0.523-0.031s-0.324-0.050-0.472-0.089c-0.146-0.041-0.279-0.090-0.4-0.147v-0.772c0.203 0.089 0.43 0.17 0.68 0.243 0.251 0.071 0.506 0.106 0.766 0.106 0.212 0 0.387-0.027 0.526-0.082 0.141-0.057 0.246-0.137 0.314-0.239 0.068-0.105 0.103-0.227 0.103-0.366 0-0.148-0.040-0.274-0.12-0.376s-0.201-0.196-0.362-0.28c-0.16-0.087-0.36-0.179-0.602-0.277-0.164-0.066-0.321-0.141-0.472-0.226-0.148-0.084-0.28-0.183-0.396-0.297s-0.208-0.248-0.277-0.403c-0.066-0.157-0.099-0.342-0.099-0.554 0-0.283 0.067-0.524 0.202-0.725 0.137-0.201 0.328-0.354 0.574-0.461 0.248-0.107 0.538-0.161 0.868-0.161 0.262 0 0.508 0.027 0.738 0.082 0.232 0.055 0.46 0.132 0.684 0.232l-0.26 0.66c-0.205-0.084-0.404-0.152-0.598-0.202-0.191-0.050-0.387-0.075-0.588-0.075-0.173 0-0.32 0.026-0.441 0.079s-0.213 0.126-0.277 0.222c-0.062 0.093-0.092 0.205-0.092 0.335 0 0.146 0.035 0.269 0.106 0.369 0.073 0.098 0.185 0.188 0.335 0.27 0.153 0.082 0.349 0.173 0.588 0.273 0.276 0.114 0.509 0.234 0.701 0.359 0.194 0.125 0.342 0.276 0.444 0.451 0.103 0.173 0.154 0.391 0.154 0.653z"></path>
<path d="M8.341 6.922h-0.841l1.747 4.997h0.868l1.747-4.997h-0.841l-1.056 3.127c-0.032 0.093-0.066 0.205-0.103 0.335s-0.072 0.261-0.106 0.393c-0.032 0.132-0.057 0.25-0.075 0.352-0.018-0.103-0.044-0.22-0.079-0.352-0.032-0.132-0.067-0.263-0.106-0.393-0.036-0.13-0.071-0.24-0.103-0.332l-1.053-3.131z"></path>
</svg>
