<svg width="12" height="12" viewBox="0 0 12 12" xmlns="http://www.w3.org/2000/svg">
<path fill-rule="evenodd" clip-rule="evenodd" d="M6 0.5C9.03757 0.5 11.5 2.96243 11.5 6C11.5 9.03757 9.03757 11.5 6 11.5C2.96243 11.5 0.5 9.03757 0.5 6C0.5 2.96243 2.96243 0.5 6 0.5ZM5.5498 2.2998V3.13086C5.27578 3.17361 4.99587 3.26478 4.74707 3.43555C4.44138 3.64558 4.21693 3.95438 4.10059 4.35742L4.05762 4.53613C3.99883 4.8346 4.00431 5.11959 4.09863 5.37891C4.19466 5.64231 4.36606 5.83603 4.56055 5.97656C4.91637 6.23351 5.40615 6.3458 5.76953 6.43262C6.18652 6.53225 6.50373 6.60988 6.72754 6.74707C6.8278 6.80857 6.89015 6.87287 6.92969 6.93945C6.96799 7.00431 7.00186 7.10216 7.00195 7.25879C7.00185 7.48087 6.92554 7.58496 6.82715 7.65625C6.70065 7.74767 6.48528 7.81735 6.17578 7.83789C5.55815 7.87877 4.79977 7.71056 4.35449 7.54102L4 8.47559C4.38682 8.62289 4.96152 8.76881 5.5498 8.82129V9.69629H6.54785V8.80078C6.85142 8.75144 7.1562 8.65202 7.41211 8.4668C7.78266 8.19836 7.99988 7.786 8 7.25879C7.9999 6.9476 7.92986 6.66828 7.78809 6.42871C7.64739 6.19131 7.45294 6.02019 7.24805 5.89453C6.86038 5.65692 6.36831 5.54773 6.00098 5.45996C5.57978 5.35932 5.3078 5.28294 5.14453 5.16504C5.07968 5.11817 5.05111 5.0772 5.03613 5.03613C5.01975 4.99083 5.00289 4.89951 5.03613 4.73047L5.05762 4.63965C5.11377 4.44103 5.20875 4.33079 5.31055 4.26074C5.44117 4.17104 5.63182 4.11447 5.88281 4.10156C6.39368 4.07536 6.98428 4.23677 7.34082 4.35742L7.66113 3.40918C7.4087 3.32374 6.99987 3.20326 6.54785 3.14062V2.2998H5.5498Z"/>
</svg>
