<svg width="12" height="12" viewBox="0 0 12 12" xmlns="http://www.w3.org/2000/svg">
<path d="M7.29558 1.17186C4.62825 0.457151 1.88657 2.04006 1.17186 4.70739C1.056 5.13978 1.00052 5.57412 1.00025 6.00146H0C0.000326226 5.48865 0.0669033 4.96744 0.205933 4.44858C1.06358 1.24778 4.35361 -0.651717 7.5544 0.205934C8.3784 0.426724 9.11728 0.809327 9.74499 1.31077C10.0772 1.57616 10.3781 1.87467 10.6439 2.19983C10.7713 2.35556 10.8906 2.51742 11.0015 2.68471V1.50146L12.0015 1.50146V4.50151H9V3.50151H10.3316C10.1961 3.26681 10.0417 3.04308 9.86976 2.8328C9.64808 2.56167 9.3974 2.313 9.12085 2.09208C8.59884 1.67508 7.98388 1.35629 7.29558 1.17186Z"/>
<path d="M4.70588 10.8312C7.37321 11.5459 10.1149 9.96299 10.8296 7.29566C10.9455 6.86327 11.0009 6.42893 11.0012 6.00159H12.0015C12.0011 6.5144 11.9346 7.03561 11.7955 7.55448C10.9379 10.7553 7.64786 12.6548 4.44706 11.7971C3.62306 11.5763 2.88418 11.1937 2.25647 10.6923C1.92425 10.4269 1.62338 10.1284 1.35753 9.80322C1.2302 9.64749 1.11089 9.48563 1 9.31834L1 10.5015H4.39068e-08L1.82414e-06 7.50154H3V8.50154H1.66983C1.80534 8.73624 1.95978 8.95998 2.1317 9.17025C2.35338 9.44138 2.60406 9.69005 2.88062 9.91097C3.40262 10.328 4.01758 10.6468 4.70588 10.8312Z"/>
<path d="M6.54785 3.14229C6.99987 3.20492 7.4087 3.3254 7.66113 3.41084L7.34082 4.35909C6.98428 4.23843 6.39368 4.07703 5.88281 4.10323C5.63182 4.11613 5.44117 4.1727 5.31055 4.26241C5.20875 4.33246 5.11377 4.4427 5.05762 4.64131L5.03613 4.73213C5.00289 4.90117 5.01975 4.99249 5.03613 5.0378C5.05111 5.07886 5.07968 5.11983 5.14453 5.1667C5.3078 5.2846 5.57978 5.36098 6.00098 5.46162C6.36831 5.54939 6.86038 5.65858 7.24805 5.89619C7.45294 6.02185 7.64739 6.19297 7.78809 6.43037C7.92986 6.66994 7.9999 6.94926 8 7.26045C7.99988 7.78766 7.78266 8.20003 7.41211 8.46846C7.1562 8.65369 6.85142 8.7531 6.54785 8.80244V9.69795H5.5498V8.82295C4.96152 8.77048 4.38682 8.62455 4 8.47725L4.35449 7.54268C4.79977 7.71223 5.55815 7.88044 6.17578 7.83955C6.48528 7.81901 6.70065 7.74933 6.82715 7.65791C6.92554 7.58663 7.00185 7.48253 7.00195 7.26045C7.00186 7.10382 6.96799 7.00597 6.92969 6.94112C6.89015 6.87453 6.8278 6.81023 6.72754 6.74873C6.50373 6.61155 6.18652 6.53392 5.76953 6.43428C5.40615 6.34746 4.91637 6.23518 4.56055 5.97823C4.36606 5.83769 4.19465 5.64397 4.09863 5.38057C4.00431 5.12125 3.99883 4.83626 4.05762 4.5378L4.10059 4.35909C4.21693 3.95605 4.44138 3.64725 4.74707 3.43721C4.99587 3.26644 5.27578 3.17527 5.5498 3.13252V2.30147H6.54785V3.14229Z"/>
</svg>
