<!-- Generated by IcoMoon.io -->
<svg version="1.1" xmlns="http://www.w3.org/2000/svg" width="12" height="12" viewBox="0 0 12 12">
<title>cut</title>
<path d="M1.967 0l3.726 4.769-1.115 1.428c-1.225-1.58-2.325-3.006-2.567-3.338-0.597-0.82-1.083-2.048-0.044-2.86z"></path>
<path d="M8.349 11.049c0.249 0.571 0.824 0.965 1.485 0.951 0.874-0.018 1.568-0.742 1.55-1.616s-0.742-1.568-1.616-1.55c-0.27 0.006-0.522 0.078-0.742 0.202l-1.572-2.013c-0.159 0.205-0.318 0.41-0.477 0.614-0.216 0.279-0.431 0.556-0.641 0.825 0.944 1.214 1.741 2.239 2.013 2.587zM10.624 10.399c0.009 0.455-0.351 0.831-0.806 0.84s-0.831-0.351-0.84-0.806c-0.009-0.455 0.351-0.831 0.806-0.84s0.831 0.351 0.84 0.806z"></path>
<path d="M10.019 2.86c-0.576 0.792-6.044 7.813-6.417 8.291-0.259 0.494-0.773 0.836-1.37 0.849-0.874 0.018-1.598-0.676-1.616-1.55s0.676-1.598 1.55-1.616c0.302-0.006 0.586 0.072 0.829 0.214l7.068-9.047c1.038 0.811 0.552 2.039-0.044 2.86zM2.216 11.24c0.455-0.010 0.815-0.386 0.806-0.84s-0.386-0.815-0.84-0.806-0.815 0.386-0.806 0.84c0.009 0.455 0.386 0.815 0.84 0.806zM6.018 7.311c0.35 0 0.634-0.284 0.634-0.634s-0.284-0.634-0.634-0.634c-0.35 0-0.634 0.284-0.634 0.634s0.284 0.634 0.634 0.634z"></path>
</svg>
