<svg width="12" height="12" viewBox="0 0 12 12" fill="none" xmlns="http://www.w3.org/2000/svg">
<path fill-rule="evenodd" clip-rule="evenodd" d="M9.00327 9.9981C8.16662 10.6276 7.12659 11 6 11C3.23858 11 1 8.76141 1 5.99999C1 4.22269 1.92782 2.66109 3.32553 1.77438C3.24313 2.20387 3.2 2.64709 3.2 3.1C3.2 6.55798 5.70741 9.43034 9.00327 9.9981ZM9.92818 9.09395C6.74063 8.95183 4.2 6.32261 4.2 3.1C4.2 2.44685 4.30436 1.81809 4.49732 1.22946C4.62959 0.825961 4.80349 0.441324 5.01395 0.0806274C4.56373 0.155066 4.13042 0.279628 3.71995 0.448387C1.53701 1.34588 0 3.49344 0 5.99999C0 9.3137 2.68629 12 6 12C7.7294 12 9.28791 11.2683 10.3829 10.0976C10.6889 9.77039 10.9588 9.40883 11.1861 9.01936C10.8652 9.0724 10.5358 9.1 10.2 9.1C10.1089 9.1 10.0183 9.09797 9.92818 9.09395Z" fill="#4C505B"/>
<path d="M6.38678 2.89886H7.45124V3.91027H6.38678V2.89886Z" fill="#4C505B"/>
<path d="M9.58017 0.876034H10.6446V1.88744H9.58017V0.876034Z" fill="#4C505B"/>
<path d="M9.58017 4.92166H10.6446V5.93307H9.58017V4.92166Z" fill="#4C505B"/>
</svg>
