<!-- Generated by IcoMoon.io -->
<svg version="1.1" xmlns="http://www.w3.org/2000/svg" width="12" height="12" viewBox="0 0 12 12">
<title>dashboard</title>
<path d="M6 8c0.828 0 1.5-0.672 1.5-1.5 0-0.186-0.034-0.365-0.096-0.53l1.589-1.589-0.707-0.707-1.53 1.53c-0.222-0.13-0.48-0.204-0.756-0.204-0.828 0-1.5 0.672-1.5 1.5s0.672 1.5 1.5 1.5zM6.75 6.5c0 0.414-0.336 0.75-0.75 0.75s-0.75-0.336-0.75-0.75c0-0.414 0.336-0.75 0.75-0.75s0.75 0.336 0.75 0.75z"></path>
<path d="M11.197 10c0.51-0.882 0.803-1.907 0.803-3 0-3.314-2.686-6-6-6s-6 2.686-6 6c0 1.093 0.292 2.118 0.802 3h10.395zM11 7c0 0.711-0.149 1.387-0.416 2h-9.168c-0.268-0.612-0.416-1.289-0.416-2h1.5c0-0.348 0.051-0.683 0.145-1h-1.545c0.189-0.93 0.636-1.766 1.262-2.43l1.061 1.061c0.227-0.247 0.49-0.461 0.779-0.635l-1.083-1.083c0.686-0.484 1.5-0.8 2.38-0.888v1.511c0.163-0.023 0.33-0.036 0.5-0.036s0.337 0.012 0.5 0.036v-1.511c2.193 0.218 3.969 1.852 4.4 3.975h-1.545c0.094 0.317 0.145 0.652 0.145 1h1.5z"></path>
</svg>
