<!-- Generated by IcoMoon.io -->
<svg version="1.1" xmlns="http://www.w3.org/2000/svg" width="12" height="12" viewBox="0 0 12 12">
<title>dashboard-solid</title>
<path d="M6 7.25c0.414 0 0.75-0.336 0.75-0.75s-0.336-0.75-0.75-0.75c-0.414 0-0.75 0.336-0.75 0.75s0.336 0.75 0.75 0.75z"></path>
<path d="M11.197 10h-10.395c-0.511-0.883-0.803-1.907-0.803-3 0-3.314 2.686-6 6-6s6 2.686 6 6c0 1.093-0.292 2.117-0.803 3zM5.5 2.025v1.511c0.163-0.023 0.33-0.035 0.5-0.035s0.337 0.012 0.5 0.035v-1.511c-0.164-0.016-0.331-0.025-0.5-0.025s-0.336 0.008-0.5 0.025zM2.362 3.57l1.061 1.061c0.227-0.247 0.49-0.461 0.779-0.635l-1.083-1.083c-0.274 0.193-0.528 0.414-0.757 0.657zM2.5 7c0-0.347 0.051-0.683 0.145-1h-1.545c-0.066 0.323-0.1 0.658-0.1 1h1.5zM10.9 6h-1.545c0.094 0.317 0.145 0.653 0.145 1h1.5c0-0.342-0.034-0.677-0.1-1zM7.5 6.5c0-0.187-0.034-0.365-0.096-0.53l1.589-1.589-0.707-0.707-1.53 1.53c-0.222-0.13-0.48-0.204-0.756-0.204-0.828 0-1.5 0.672-1.5 1.5s0.672 1.5 1.5 1.5c0.828 0 1.5-0.672 1.5-1.5z"></path>
</svg>
