<svg width="12" height="12" viewBox="0 0 12 12" fill="none" xmlns="http://www.w3.org/2000/svg">
<path fill-rule="evenodd" clip-rule="evenodd" d="M6 7.99976C6.82837 7.99976 7.5 7.32813 7.5 6.49976C7.5 6.31338 7.46625 6.13451 7.404 5.96988L8.99325 4.38063L8.286 3.67338L6.75562 5.20376C6.53362 5.07401 6.27562 4.99976 6 4.99976C5.17163 4.99976 4.5 5.67138 4.5 6.49976C4.5 7.32813 5.17163 7.99976 6 7.99976ZM6.75 6.49975C6.75 6.91413 6.41438 7.24975 6 7.24975C5.58563 7.24975 5.25 6.91413 5.25 6.49975C5.25 6.08538 5.58563 5.74975 6 5.74975C6.41438 5.74975 6.75 6.08538 6.75 6.49975Z" fill="#4C505B"/>
<path d="M11.1971 10C11.7075 9.11762 12 8.09275 12 7C12 3.68613 9.31387 1 6 1C2.68613 1 0 3.68613 0 7C0 8.09275 0.292125 9.11762 0.8025 10H11.1971ZM10.9999 7C10.9999 7.711 10.8514 8.3875 10.584 8.99988H1.416C1.14825 8.3875 1.00013 7.711 1.00013 7H2.50012C2.50012 6.65238 2.55075 6.31675 2.64488 5.99988H1.09987C1.2885 5.06988 1.7355 4.234 2.36212 3.5695L3.42337 4.63075C3.65062 4.38363 3.91312 4.1695 4.20262 3.99588L3.11925 2.9125C3.8055 2.428 4.61888 2.11225 5.49975 2.0245V3.53538C5.66288 3.51213 5.83012 3.49975 5.99962 3.49975C6.16912 3.49975 6.33638 3.51175 6.4995 3.53538V2.0245C8.6925 2.24238 10.4685 3.87663 10.8994 5.99988H9.35437C9.4485 6.31675 9.4995 6.65238 9.4995 7H10.9999Z" fill="#4C505B"/>
</svg>
