<svg width="12" height="12" viewBox="0 0 12 12" fill="none" xmlns="http://www.w3.org/2000/svg">
<path d="M6 7.25C6.41421 7.25 6.75 6.91421 6.75 6.5C6.75 6.08579 6.41421 5.75 6 5.75C5.58579 5.75 5.25 6.08579 5.25 6.5C5.25 6.91421 5.58579 7.25 6 7.25Z" fill="#4C505B"/>
<path fill-rule="evenodd" clip-rule="evenodd" d="M11.1973 10C11.7078 9.11748 12 8.09286 12 7C12 3.68629 9.31371 1 6 1C2.68629 1 0 3.68629 0 7C0 8.09286 0.292183 9.11748 0.802693 10H11.1973ZM5.5 2.02469V3.53544C5.6633 3.51209 5.83024 3.5 6 3.5C6.16976 3.5 6.3367 3.51209 6.5 3.53544V2.02469C6.33555 2.00836 6.16875 2 6 2C5.83125 2 5.66445 2.00836 5.5 2.02469ZM2.36243 3.56952L3.42373 4.63083C3.65105 4.38377 3.91344 4.16949 4.20302 3.9959L3.11963 2.91251C2.84564 3.10593 2.59196 3.32622 2.36243 3.56952ZM2.5 7H1C1 6.65753 1.03443 6.32311 1.10002 6H2.64494C2.55064 6.31685 2.5 6.65251 2.5 7ZM10.9 6H9.35506C9.44936 6.31685 9.5 6.65251 9.5 7H11C11 6.65753 10.9656 6.32311 10.9 6ZM7.5 6.5C7.5 6.31349 7.46596 6.13492 7.40375 5.97018L8.99306 4.38087L8.28595 3.67377L6.75572 5.204C6.5338 5.07432 6.27558 5 6 5C5.17157 5 4.5 5.67157 4.5 6.5C4.5 7.32843 5.17157 8 6 8C6.82843 8 7.5 7.32843 7.5 6.5Z" fill="#4C505B"/>
</svg>
