<svg width="12" height="12" viewBox="0 0 12 12" xmlns="http://www.w3.org/2000/svg">
<path d="M8.16555 3.00793C8.41148 3.02332 8.64727 3.06167 8.8716 3.12317C9.16409 3.19936 9.42244 3.32843 9.64504 3.50989C9.86757 3.68559 10.0422 3.9174 10.1695 4.20422C10.2967 4.49131 10.3609 4.84003 10.3609 5.25012L10.354 5.46692C10.342 5.68557 10.3129 5.90927 10.2652 6.13782L10.2124 6.36047C10.1551 6.58248 10.0835 6.80132 9.99758 7.01672C9.88942 7.30366 9.75622 7.57349 9.59719 7.82532L9.47414 8.00793C9.34888 8.18349 9.21484 8.33962 9.0718 8.47571C9.12273 8.71587 9.25681 8.91226 9.47317 9.06458C9.69017 9.21698 10.8948 9.59179 11.0288 9.62708C11.1625 9.66236 11.9946 9.9553 12.0054 9.95911V12.0001H3.00735L3.00051 11.5968L3.00735 11.1818C3.02012 10.9098 3.10618 10.6631 3.26613 10.4415L3.33938 10.3478C3.55577 10.0842 3.83317 9.90538 4.17043 9.81165L4.43801 9.72375L5.37356 9.46887C5.69284 9.38112 5.95333 9.28343 6.15481 9.1759L6.33742 9.06458C6.55371 8.91226 6.68788 8.71583 6.73879 8.47571C6.59565 8.33955 6.4608 8.18361 6.33547 8.00793L6.2134 7.82532C6.05435 7.57349 5.92118 7.30367 5.81301 7.01672C5.72702 6.80126 5.65456 6.58254 5.59719 6.36047L5.54543 6.13782C5.49768 5.90925 5.46758 5.68559 5.45559 5.46692L5.44973 5.25012C5.44973 4.89114 5.4986 4.5793 5.59621 4.31458L5.64113 4.20422C5.73654 3.98915 5.85847 3.80515 6.00735 3.65247L6.16555 3.50989C6.38817 3.32844 6.64647 3.19933 6.93899 3.12317C7.25749 3.03588 7.58682 3.00013 7.91653 3.00012L8.16555 3.00793Z"/>
<path d="M11 3.25C11 1.73122 8.76142 0.5 6 0.5C3.23858 0.5 1 1.73122 1 3.25V8.75C1 9.51928 1.57432 10.2148 2.5 10.7139V9.52557C2.10546 9.21084 2 8.92335 2 8.75V7.64941C2.72122 8.17753 3.77985 8.55893 5 8.69531V7.68848C4.18004 7.58474 3.47304 7.35807 2.94629 7.06836C2.1795 6.64661 2 6.22616 2 6V4.89941C2.72122 5.42753 3.77985 5.80893 5 5.94531V4.93848C4.18004 4.83474 3.47304 4.60807 2.94629 4.31836C2.1795 3.89661 2 3.47616 2 3.25C2 3.02384 2.1795 2.60339 2.94629 2.18164C3.67713 1.77968 4.75493 1.5 6 1.5C7.24507 1.5 8.32287 1.77968 9.05371 2.18164C9.8205 2.60339 10 3.02384 10 3.25H11Z"/>
</svg>
