<svg width="12" height="12" viewBox="0 0 12 12" xmlns="http://www.w3.org/2000/svg">
<path fill-rule="evenodd" clip-rule="evenodd" d="M6 0.5C8.76142 0.5 11 1.73122 11 3.25V8.75C11 10.2688 8.76142 11.5 6 11.5C3.23858 11.5 1 10.2688 1 8.75V3.25C1 1.73122 3.23858 0.5 6 0.5ZM10 7.64941C9.0878 8.31738 7.63584 8.75 6 8.75C4.36416 8.75 2.9122 8.31738 2 7.64941V8.75C2 8.97616 2.1795 9.39661 2.94629 9.81836C3.67713 10.2203 4.75493 10.5 6 10.5C7.24507 10.5 8.32287 10.2203 9.05371 9.81836C9.8205 9.39661 10 8.97616 10 8.75V7.64941ZM10 4.89941C9.0878 5.56738 7.63584 6 6 6C4.36416 6 2.9122 5.56738 2 4.89941V6C2 6.22616 2.1795 6.64661 2.94629 7.06836C3.67713 7.47032 4.75493 7.75 6 7.75C7.24507 7.75 8.32287 7.47032 9.05371 7.06836C9.8205 6.64661 10 6.22616 10 6V4.89941ZM6 1.5C4.75493 1.5 3.67713 1.77968 2.94629 2.18164C2.1795 2.60339 2 3.02384 2 3.25C2 3.47616 2.1795 3.89661 2.94629 4.31836C3.67713 4.72032 4.75493 5 6 5C7.24507 5 8.32287 4.72032 9.05371 4.31836C9.8205 3.89661 10 3.47616 10 3.25C10 3.02384 9.8205 2.60339 9.05371 2.18164C8.32287 1.77968 7.24507 1.5 6 1.5Z"/>
</svg>
