<svg width="12" height="12" viewBox="0 0 12 12" xmlns="http://www.w3.org/2000/svg">
<path d="M8.16211 3.00793C8.40795 3.02332 8.64392 3.06165 8.86816 3.12317C9.16037 3.19933 9.41821 3.32854 9.64062 3.50989C9.86302 3.68558 10.0379 3.91741 10.165 4.20422C10.2922 4.49131 10.3564 4.84003 10.3564 5.25012L10.3496 5.46692C10.3376 5.68557 10.3085 5.90927 10.2607 6.13782L10.208 6.36047C10.1507 6.58247 10.0791 6.80133 9.99316 7.01672C9.88509 7.30356 9.75262 7.57357 9.59375 7.82532L9.4707 8.00793C9.34553 8.18347 9.2113 8.33963 9.06836 8.47571C9.11928 8.71588 9.25345 8.91226 9.46973 9.06458C9.68739 9.21714 10.891 9.59198 11.0244 9.62708C11.1588 9.66265 11.988 9.95489 12 9.95911V12.0001H11.001V10.671C10.9711 10.6609 10.942 10.6508 10.915 10.6417C10.818 10.6092 10.774 10.5954 10.7695 10.5939C10.6669 10.5668 10.3047 10.4555 9.95605 10.337C9.77713 10.2762 9.58583 10.2078 9.41992 10.1427C9.29597 10.094 9.06291 10.0012 8.89355 9.88196C8.53993 9.63282 8.27212 9.29103 8.13867 8.86926L8.08984 8.68274L7.97363 8.13586L8.37891 7.7511C8.50313 7.63286 8.62766 7.48184 8.74805 7.29114L8.83594 7.14465C8.92011 6.99444 8.99355 6.83421 9.05762 6.66418L9.06152 6.6554L9.06543 6.64563C9.15922 6.4104 9.23166 6.17182 9.2832 5.92981C9.33354 5.68764 9.35742 5.46154 9.35742 5.25012C9.35742 5.01742 9.32958 4.84515 9.29199 4.71985L9.25195 4.6095C9.20015 4.49263 9.14186 4.40978 9.08203 4.34875L9.02148 4.29504L9.00977 4.28528C8.90451 4.19942 8.77727 4.13294 8.61621 4.09094L8.60352 4.08801C8.44934 4.04572 8.28151 4.01736 8.09961 4.00598L7.91309 4.00012C7.65473 4.00016 7.41646 4.0287 7.2002 4.08801L7.18848 4.09094C7.0675 4.12245 6.9656 4.16787 6.87793 4.22473L6.79492 4.28528L6.78809 4.29016L6.78223 4.29504C6.72161 4.34295 6.66175 4.40863 6.60645 4.50403L6.55273 4.6095C6.49627 4.73694 6.44727 4.93979 6.44727 5.25012C6.44727 5.46152 6.47018 5.68766 6.52051 5.92981L6.56348 6.11047C6.59455 6.23081 6.63118 6.35024 6.67285 6.46887L6.73926 6.64563L6.74219 6.6554L6.74609 6.66418L6.81348 6.83118C6.88418 6.99424 6.96496 7.14741 7.05566 7.29114L7.14746 7.42688C7.23893 7.55515 7.33173 7.66249 7.4248 7.7511L7.83008 8.13586L7.71387 8.68274C7.6062 9.19085 7.31453 9.59712 6.91016 9.88196C6.5578 10.1299 6.11011 10.3026 5.63672 10.4327C5.19167 10.5551 4.80914 10.657 4.71289 10.6847C4.63079 10.7083 4.56904 10.7289 4.52637 10.7452L4.48242 10.7628L4.43652 10.7755C4.32817 10.8057 4.24571 10.8506 4.17676 10.9132L4.11133 10.9825L4.10742 10.9874L4.10254 10.9933C4.05071 11.0547 4.02432 11.1089 4.0127 11.1681L4.00586 11.2286C4.00101 11.3321 4.00106 11.6468 4.00195 12.0001H3.00195C3.00104 11.7923 2.99932 11.7818 3 11.5968L3.00684 11.1818C3.0196 10.9098 3.10576 10.6631 3.26562 10.4415L3.33887 10.3478C3.55516 10.0842 3.8328 9.90537 4.16992 9.81165L4.43652 9.72375L5.37207 9.46887C5.691 9.38116 5.95103 9.28336 6.15234 9.1759L6.33496 9.06458C6.55112 8.91227 6.68544 8.71583 6.73633 8.47571C6.59327 8.33955 6.45827 8.18361 6.33301 8.00793L6.21094 7.82532C6.05204 7.57356 5.91961 7.30358 5.81152 7.01672C5.72558 6.80127 5.65304 6.58254 5.5957 6.36047L5.54395 6.13782C5.49622 5.90924 5.46609 5.6856 5.4541 5.46692L5.44824 5.25012C5.44824 4.89113 5.49716 4.57931 5.59473 4.31458L5.63965 4.20422C5.73501 3.98916 5.85706 3.80514 6.00586 3.65247L6.16309 3.50989C6.3856 3.32843 6.64413 3.19933 6.93652 3.12317C7.25474 3.03591 7.58368 3.00016 7.91309 3.00012L8.16211 3.00793Z"/>
<path d="M11 3.25C11 1.73122 8.76142 0.5 6 0.5C3.23858 0.5 1 1.73122 1 3.25V8.75C1 9.51928 1.57432 10.2148 2.5 10.7139V9.52557C2.10546 9.21084 2 8.92335 2 8.75V7.64941C2.72122 8.17753 3.77985 8.55893 5 8.69531V7.68848C4.18004 7.58474 3.47304 7.35807 2.94629 7.06836C2.1795 6.64661 2 6.22616 2 6V4.89941C2.72122 5.42753 3.77985 5.80893 5 5.94531V4.93848C4.18004 4.83474 3.47304 4.60807 2.94629 4.31836C2.1795 3.89661 2 3.47616 2 3.25C2 3.02384 2.1795 2.60339 2.94629 2.18164C3.67713 1.77968 4.75493 1.5 6 1.5C7.24507 1.5 8.32287 1.77968 9.05371 2.18164C9.8205 2.60339 10 3.02384 10 3.25H11Z"/>
</svg>
