<svg width="12" height="12" viewBox="0 0 12 12" fill="none" xmlns="http://www.w3.org/2000/svg">
<path d="M5 4V10H4V4H5Z" fill="#4C505B"/>
<path d="M7 4V10H6V4H7Z" fill="#4C505B"/>
<path fill-rule="evenodd" clip-rule="evenodd" d="M4 0C3.44772 0 3 0.447715 3 1V2H0V3H1V10C1 11.1046 1.89543 12 3 12H8.25C9.2165 12 10 11.2165 10 10.25V3H11V2H8V1C8 0.447715 7.55228 0 7 0H4ZM9 3H2V10C2 10.5523 2.44772 11 3 11H8.25C8.66421 11 9 10.6642 9 10.25V3ZM7 2H4V1.5C4 1.22386 4.22386 1 4.5 1H6.5C6.77614 1 7 1.22386 7 1.5V2Z" fill="#4C505B"/>
</svg>
