<!-- Generated by IcoMoon.io -->
<svg version="1.1" xmlns="http://www.w3.org/2000/svg" width="12" height="12" viewBox="0 0 12 12">
<title>delete</title>
<path d="M5 4v6h-1v-6h1z"></path>
<path d="M7 4v6h-1v-6h1z"></path>
<path d="M4 0h3c0.552 0 1 0.448 1 1v1h3v1h-1v7.25c0 0.967-0.784 1.75-1.75 1.75h-5.25c-1.105 0-2-0.895-2-2v-7h-1v-1h3v-1c0-0.552 0.448-1 1-1zM9 3h-7v7c0 0.552 0.448 1 1 1h5.25c0.414 0 0.75-0.336 0.75-0.75v-7.25zM7 2v-0.5c0-0.276-0.224-0.5-0.5-0.5h-2c-0.276 0-0.5 0.224-0.5 0.5v0.5h3z"></path>
</svg>
