<svg width="12" height="12" viewBox="0 0 12 12" fill="none" xmlns="http://www.w3.org/2000/svg">
<path fill-rule="evenodd" clip-rule="evenodd" d="M0 4.03122L2 0H10L12 4.03122L6 11L0 4.06203L0.0305777 4.03122H0ZM6 8.46555L8 4.03122H4L6 8.46555ZM4.9437 8.34073L1.28582 4.03122H3L4.9437 8.34073ZM9 4.03122L7.17105 8.0863L10.6742 4.03122H9ZM10.382 3.02341H8.9L8.5 1.0078H9.38197L10.382 3.02341ZM7.5 1.0078L7.9 3.02341H4.1L4.5 1.0078H7.5ZM1.61803 3.02341H3.1L3.5 1.0078H2.61803L1.61803 3.02341Z" fill="#4C505B"/>
</svg>
