<svg width="12" height="12" viewBox="0 0 12 12" xmlns="http://www.w3.org/2000/svg">
<path fill-rule="evenodd" clip-rule="evenodd" d="M11 2V5.5H10V4H7V1H2V11H7V12H1V0H9L11 2ZM8 3H10V2.41406L8.58594 1H8V3Z"/>
<path fill-rule="evenodd" clip-rule="evenodd" d="M8 5.5C9.38071 5.5 10.5 6.61929 10.5 8C10.5 8.50948 10.3467 8.98274 10.085 9.37793L11.8535 11.1465L11.1465 11.8535L9.37793 10.085C8.98274 10.3467 8.50948 10.5 8 10.5C6.61929 10.5 5.5 9.38071 5.5 8C5.5 6.61929 6.61929 5.5 8 5.5ZM8 6.5C7.17157 6.5 6.5 7.17157 6.5 8C6.5 8.82843 7.17157 9.5 8 9.5C8.82843 9.5 9.5 8.82843 9.5 8C9.5 7.17157 8.82843 6.5 8 6.5Z"/>
<path d="M5 9H3V8H5V9Z"/>
<path d="M5 7H3V6H5V7Z"/>
<path d="M6 5H3V4H6V5Z"/>
</svg>
