<svg width="12" height="12" viewBox="0 0 12 12" xmlns="http://www.w3.org/2000/svg">
<path fill-rule="evenodd" clip-rule="evenodd" d="M8.15625 1H2V11H7V8H10V5H11V10L9 12H1V0H8.15625V1ZM8 11H8.58594L10 9.58594V9H8V11Z"/>
<path d="M10.9395 2.47461L7.0498 6.36426L4.92871 7.07129L5.63574 4.94922L9.52441 1.06055L10.9395 2.47461Z"/>
<path d="M10.2324 0.353516C10.4277 0.15831 10.7442 0.158273 10.9395 0.353516L11.6465 1.06055C11.8417 1.25579 11.8417 1.57231 11.6465 1.76758L11.293 2.12109L9.87891 0.707031L10.2324 0.353516Z"/>
</svg>
