<!-- Generated by IcoMoon.io -->
<svg version="1.1" xmlns="http://www.w3.org/2000/svg" viewBox="0 0 12 12">
<title>edit</title>
<path d="M10.913 2.954c0-0.088-0.027-0.17-0.088-0.23l-1.542-1.542c-0.061-0.062-0.141-0.095-0.23-0.095s-0.17 0.033-0.232 0.095l-0.536 0.536 1.997 2.004 0.543-0.543c0.061-0.055 0.088-0.143 0.088-0.225v0 0zM12 2.954c0 0.373-0.143 0.727-0.407 0.998l-1.311 1.305-3.531-3.539 1.303-1.304c0.265-0.265 0.625-0.414 0.999-0.414 0.38 0 0.733 0.149 0.998 0.414l1.542 1.535c0.264 0.272 0.407 0.624 0.407 1.005v0 0zM3.946 8.604c0.142 0 0.278-0.054 0.387-0.163l3.952-3.952-0.767-0.767-3.953 3.952c-0.109 0.108-0.163 0.245-0.163 0.387 0 0.135 0.054 0.279 0.163 0.38 0.102 0.109 0.244 0.163 0.381 0.163zM9.671 5.868l-4.34 4.339-5.331 1.793 1.8-5.324 4.332-4.34 0.767 0.767-4.156 4.157-0.753 2.241 0.516 0.51 2.241-0.754 4.156-4.157 0.768 0.768z"></path>
</svg>
