<svg width="12" height="12" viewBox="0 0 12 12" fill="none" xmlns="http://www.w3.org/2000/svg">
<path fill-rule="evenodd" clip-rule="evenodd" d="M9.5637 0.292893C9.17318 -0.097631 8.54001 -0.0976311 8.14949 0.292893L6.73528 1.70711L10.2708 5.24264L11.685 3.82843C12.0755 3.4379 12.0755 2.80474 11.685 2.41421L9.5637 0.292893ZM9.21015 1.35355C9.01489 1.15829 8.6983 1.15829 8.50304 1.35355L8.14949 1.70711L10.2708 3.82843L10.6244 3.47487C10.8196 3.27961 10.8196 2.96303 10.6244 2.76777L9.21015 1.35355Z" fill="#4C505B"/>
<path d="M7.44238 3.82843L8.14949 4.53553L4.2604 8.42462C4.06514 8.61988 3.74856 8.61988 3.5533 8.42462C3.35803 8.22936 3.35803 7.91278 3.5533 7.71751L7.44238 3.82843Z" fill="#4C505B"/>
<path d="M8.8566 5.24264L9.5637 5.94975L5.32106 10.1924L0 12L1.78553 6.65686L5.99322 2.44917L6.70033 3.15628L2.66941 7.1872L1.87392 9.57367L2.40425 10.104L4.79073 9.30851L8.8566 5.24264Z" fill="#4C505B"/>
</svg>
