<!-- Generated by IcoMoon.io -->
<svg version="1.1" xmlns="http://www.w3.org/2000/svg" width="12" height="12" viewBox="0 0 12 12">
<title>edit</title>
<path d="M9.564 0.293l2.121 2.121c0.391 0.391 0.391 1.024 0 1.414l-1.414 1.414-3.536-3.536 1.414-1.414c0.391-0.391 1.024-0.391 1.414 0zM9.21 1.354c-0.195-0.195-0.512-0.195-0.707 0l-0.354 0.354 2.121 2.121 0.354-0.354c0.195-0.195 0.195-0.512 0-0.707l-1.414-1.414z"></path>
<path d="M7.442 3.828l0.707 0.707-3.889 3.889c-0.195 0.195-0.512 0.195-0.707 0s-0.195-0.512 0-0.707l3.889-3.889z"></path>
<path d="M8.857 5.243l0.707 0.707-4.243 4.243-5.303 1.768 1.768-5.303 4.208-4.208 0.707 0.707-4.031 4.031-0.795 2.386 0.53 0.53 2.386-0.795 4.066-4.066z"></path>
</svg>
