<svg width="12" height="12" viewBox="0 0 12 12" xmlns="http://www.w3.org/2000/svg">
<path fill-rule="evenodd" clip-rule="evenodd" d="M12 6C12 9.31371 9.31371 12 6 12C2.68629 12 0 9.31371 0 6C0 2.68629 2.68629 0 6 0C9.31371 0 12 2.68629 12 6ZM8.6074 9.66806C7.87179 10.1919 6.97187 10.5 6 10.5C3.51472 10.5 1.5 8.48528 1.5 6C1.5 5.02813 1.80809 4.12821 2.33194 3.3926L8.6074 9.66806ZM9.66806 8.6074L3.3926 2.33194C4.12821 1.80809 5.02813 1.5 6 1.5C8.48528 1.5 10.5 3.51472 10.5 6C10.5 6.97187 10.1919 7.87179 9.66806 8.6074Z"/>
</svg>
