<svg width="12" height="12" viewBox="0 0 12 12" fill="none" xmlns="http://www.w3.org/2000/svg">
<path d="M1.74846e-07 1.74846e-07H4V1H1.70711L4.59619 3.88909L3.88909 4.59619L1 1.70711L1 4H1.74846e-07V1.74846e-07Z" fill="#4C505B"/>
<path d="M12 12H8V11L10.2929 11L7.4038 8.11091L8.11091 7.40381L11 10.2929V8H12V12Z" fill="#4C505B"/>
<path d="M12 1.74846e-07V4H11V1.70711L8.11091 4.59619L7.40381 3.88909L10.2929 1L8 1V0L12 1.74846e-07Z" fill="#4C505B"/>
<path d="M1.74846e-07 12L0 8H1L1 10.2929L3.88909 7.40381L4.59619 8.11091L1.70711 11H4V12H1.74846e-07Z" fill="#4C505B"/>
</svg>
