<svg width="12" height="12" viewBox="0 0 12 12" xmlns="http://www.w3.org/2000/svg">
<path d="M6.44797 0.301776C6.26572 -0.0744024 5.72804 -0.0737716 5.54632 0.302752L3.99604 3.51585L0.425599 4.19963C0.0420112 4.27317 -0.112744 4.73833 0.150124 5.02681L2.59619 7.71024L2.00421 11.3994C1.93997 11.8 2.35605 12.106 2.72025 11.9261L5.99666 10.3078L9.3473 11.9554C9.69283 12.0686 10.0541 11.7759 9.99399 11.4003L9.40298 7.71024L11.849 5.02681C12.1119 4.73833 11.9562 4.27316 11.5726 4.19963L8.00216 3.51585L6.44797 0.301776ZM7.32031 4.40155L10.5088 5.01218L8.33918 7.3942L8.85398 10.6024L5.99666 9.19389L3.14519 10.6014L3.66 7.3942L1.49038 5.01218L4.67887 4.40155L5.99861 1.66837L7.32031 4.40155Z"/>
</svg>
