<svg width="12" height="12" viewBox="0 0 12 12" xmlns="http://www.w3.org/2000/svg">
<path d="M5.54678 0.303207C5.7285 -0.0733225 6.26591 -0.0739545 6.44815 0.302231L8.00187 3.51615L11.5722 4.19976C11.9557 4.27327 12.1121 4.73842 11.8495 5.02692L9.40324 7.71056L9.99407 11.4001C10.0504 11.7522 9.73626 12.0322 9.41203 11.9724L9.34758 11.9557L5.99698 10.3083L2.72059 11.9265L2.65126 11.9548C2.30578 12.0676 1.94359 11.7746 2.00379 11.3991L2.59657 7.71056L0.150269 5.02692C-0.112599 4.73844 0.0420713 4.27329 0.425661 4.19976L3.99599 3.51615L5.54678 0.303207ZM5.01943 4.84723L2.4618 5.3365L4.19228 7.23399L3.79189 9.72329L5.33193 8.96351L5.99502 8.63538L8.205 9.72231L7.80753 7.23399L9.53606 5.3365L6.9794 4.84723L6.65225 4.16851L5.99795 2.81692L5.01943 4.84723Z"/>
</svg>
