<svg width="12" height="12" viewBox="0 0 12 12" xmlns="http://www.w3.org/2000/svg">
<path fill-rule="evenodd" clip-rule="evenodd" d="M5.54614 0.303187C5.72786 -0.0733362 6.26624 -0.0739681 6.44849 0.302211L8.0022 3.51608L11.5725 4.19967C11.9561 4.2732 12.1117 4.73834 11.8489 5.02682L9.40259 7.71041L9.99438 11.3999C10.0545 11.7754 9.69246 12.0688 9.34692 11.9555L5.99634 10.3081L2.71997 11.9262C2.35584 12.1058 1.93993 11.7994 2.00415 11.3989L2.59595 7.71041L0.150635 5.02682C-0.112232 4.73834 0.0424373 4.27321 0.426025 4.19967L3.99634 3.51608L5.54614 0.303187ZM5.99634 9.19381L8.85376 10.602L8.33911 7.39401L10.509 5.01217L7.32056 4.40182L5.99829 1.66842L5.99634 9.19381Z"/>
</svg>
