<svg width="12" height="12" viewBox="0 0 12 12" xmlns="http://www.w3.org/2000/svg">
<path d="M8.16504 3.00781C8.41085 3.02319 8.64686 3.0616 8.87109 3.12305C9.1635 3.19921 9.42198 3.32839 9.64453 3.50977C9.86703 3.68545 10.0417 3.91732 10.1689 4.2041C10.2962 4.49118 10.3604 4.83992 10.3604 5.25L10.3535 5.4668C10.3415 5.68541 10.3124 5.90919 10.2646 6.1377L10.2119 6.36035C10.1546 6.58229 10.083 6.80126 9.99707 7.0166C9.88892 7.30346 9.75567 7.57343 9.59668 7.8252L9.47363 8.00781C9.34842 8.18326 9.21426 8.33957 9.07129 8.47559C9.12222 8.71564 9.25644 8.91217 9.47266 9.06445C9.68948 9.21673 10.8926 9.59113 11.0283 9.62695C11.1612 9.66201 11.9836 9.9515 12.0049 9.95898V12H11.0049V10.6709C10.9751 10.6608 10.9458 10.6506 10.9189 10.6416C10.8169 10.6074 10.7734 10.5938 10.7734 10.5938C10.6701 10.5665 10.3083 10.4552 9.95996 10.3369C9.78086 10.2761 9.58888 10.2077 9.42285 10.1426C9.29872 10.0939 9.06576 10.001 8.89648 9.88184C8.54282 9.63272 8.2751 9.29077 8.1416 8.86914L8.09277 8.68262L7.97656 8.13574L8.38184 7.75098C8.50606 7.6328 8.63058 7.48159 8.75098 7.29102L8.83887 7.14453C8.92305 6.99438 8.99646 6.834 9.06055 6.66406L9.06445 6.65527L9.06836 6.64551C9.16219 6.41032 9.23455 6.17166 9.28613 5.92969C9.3365 5.68754 9.36034 5.46141 9.36035 5.25C9.36035 5.01728 9.33253 4.84503 9.29492 4.71973L9.25488 4.60938C9.20304 4.49253 9.14483 4.40964 9.08496 4.34863L9.02441 4.29492L9.0127 4.28516C8.90743 4.1994 8.78016 4.13278 8.61914 4.09082L8.60645 4.08789C8.45228 4.04566 8.28439 4.01723 8.10254 4.00586L7.91602 4C7.65749 4.00004 7.41855 4.02856 7.20215 4.08789L7.19043 4.09082C7.0696 4.12233 6.96748 4.16782 6.87988 4.22461L6.79688 4.28516L6.79004 4.29004L6.78418 4.29492C6.72363 4.34281 6.66365 4.40865 6.6084 4.50391L6.55469 4.60938C6.49822 4.73683 6.44922 4.9398 6.44922 5.25C6.44923 5.46137 6.47211 5.68759 6.52246 5.92969L6.56543 6.11035C6.59652 6.23064 6.63312 6.35016 6.6748 6.46875L6.74121 6.64551L6.74414 6.65527L6.74805 6.66406L6.81543 6.83105C6.88614 6.99404 6.96691 7.14734 7.05762 7.29102L7.14941 7.42676C7.24087 7.55495 7.3337 7.6624 7.42676 7.75098L7.83203 8.13574L7.71582 8.68262C7.60807 9.19064 7.31666 9.59704 6.91211 9.88184C6.55956 10.1297 6.11127 10.3025 5.6377 10.4326C5.19261 10.5549 4.81014 10.6569 4.71387 10.6846C4.63183 10.7082 4.57 10.7288 4.52734 10.7451L4.4834 10.7627L4.4375 10.7754C4.32901 10.8056 4.24578 10.8504 4.17676 10.9131L4.11133 10.9824L4.10742 10.9873L4.10254 10.9932C4.05083 11.0545 4.0243 11.1089 4.0127 11.168L4.00586 11.2285C4.00101 11.3321 4.00106 11.6468 4.00195 12H3.00098C3.00053 11.8595 2.99954 11.7207 3 11.5967L3.00684 11.1816C3.0196 10.9098 3.10578 10.6629 3.26562 10.4414L3.33887 10.3477C3.55518 10.0842 3.83283 9.90529 4.16992 9.81152L4.4375 9.72363L5.37305 9.46875C5.69216 9.38105 5.95287 9.28324 6.1543 9.17578L6.33691 9.06445C6.55315 8.91218 6.68734 8.71564 6.73828 8.47559C6.5952 8.33946 6.46025 8.18342 6.33496 8.00781L6.21289 7.8252C6.05389 7.57341 5.92065 7.30349 5.8125 7.0166C5.72654 6.80119 5.65404 6.58237 5.59668 6.36035L5.54492 6.1377C5.49718 5.90918 5.46707 5.68543 5.45508 5.4668L5.44922 5.25C5.44922 4.89111 5.49815 4.57913 5.5957 4.31445L5.64062 4.2041C5.73598 3.98914 5.85807 3.80498 6.00684 3.65234L6.16504 3.50977C6.38756 3.3284 6.64612 3.19923 6.93848 3.12305C7.25685 3.03579 7.58644 3.00004 7.91602 3L8.16504 3.00781Z"/>
<path d="M10 0C11.1046 0 12 0.895431 12 2V8.5H11V2C11 1.44772 10.5523 1 10 1H2C1.44779 1.00009 1 1.44777 1 2V9.73926L3 8H4.5V9H3.5L0 11.9551V2C0 0.895486 0.895507 8.99368e-05 2 0H10Z"/>
<path d="M4.5 7H2V6H4.5V7Z"/>
<path d="M4.5 5H2V4H4.5V5Z"/>
<path d="M5.5 3.04492L2 3V2H5.5V3.04492Z"/>
</svg>
