<svg width="12" height="12" viewBox="0 0 12 12" xmlns="http://www.w3.org/2000/svg">
<path d="M8.16504 3.00781C8.41085 3.02319 8.64686 3.0616 8.87109 3.12305C9.1635 3.19921 9.42198 3.32839 9.64453 3.50977C9.86703 3.68545 10.0417 3.91732 10.1689 4.2041C10.2962 4.49118 10.3604 4.83992 10.3604 5.25L10.3535 5.4668C10.3415 5.68541 10.3124 5.90919 10.2646 6.1377L10.2119 6.36035C10.1546 6.58229 10.083 6.80126 9.99707 7.0166C9.88892 7.30346 9.75567 7.57343 9.59668 7.8252L9.47363 8.00781C9.34842 8.18326 9.21426 8.33957 9.07129 8.47559C9.12222 8.71564 9.25644 8.91217 9.47266 9.06445C9.68948 9.21673 10.8926 9.59113 11.0283 9.62695C11.1612 9.66201 11.9836 9.9515 12.0049 9.95898V12H3.00098C3.00053 11.8594 2.99954 11.7207 3 11.5967L3.00684 11.1816C3.0196 10.9098 3.10578 10.6629 3.26562 10.4414L3.33887 10.3477C3.55518 10.0842 3.83283 9.90529 4.16992 9.81152L4.4375 9.72363L5.37305 9.46875C5.69216 9.38105 5.95287 9.28324 6.1543 9.17578L6.33691 9.06445C6.55315 8.91218 6.68734 8.71564 6.73828 8.47559C6.5952 8.33946 6.46025 8.18342 6.33496 8.00781L6.21289 7.8252C6.05389 7.57341 5.92065 7.30349 5.8125 7.0166C5.72654 6.80119 5.65404 6.58237 5.59668 6.36035L5.54492 6.1377C5.49718 5.90918 5.46707 5.68543 5.45508 5.4668L5.44922 5.25C5.44922 4.89111 5.49815 4.57913 5.5957 4.31445L5.64062 4.2041C5.73598 3.98914 5.85807 3.80498 6.00684 3.65234L6.16504 3.50977C6.38756 3.3284 6.64612 3.19923 6.93848 3.12305C7.25685 3.03579 7.58644 3.00004 7.91602 3L8.16504 3.00781Z"/>
<path d="M10 0C11.1046 0 12 0.895431 12 2V8.5H11V2C11 1.44772 10.5523 1 10 1H2C1.44779 1.00009 1 1.44777 1 2V9.73926L3 8H4.5V9H3.5L0 11.9551V2C0 0.895486 0.895507 8.99368e-05 2 0H10Z"/>
<path d="M4.5 7H2V6H4.5V7Z"/>
<path d="M4.5 5H2V4H4.5V5Z"/>
<path d="M5.5 3.04492L2 3V2H5.5V3.04492Z"/>
</svg>
