<svg width="12" height="12" viewBox="0 0 12 12" xmlns="http://www.w3.org/2000/svg">
<path fill-rule="evenodd" clip-rule="evenodd" d="M4 1C2.89543 1 2 1.89543 2 3C2 3.59735 2.26188 4.13353 2.67709 4.5C2.26188 4.86647 2 5.40265 2 6C2 6.59735 2.26188 7.13353 2.67709 7.5C2.26188 7.86647 2 8.40265 2 9C2 10.1046 2.89543 11 4 11H4.25C5.49264 11 6.5 9.99264 6.5 8.75V7.47475C6.81763 7.79888 7.26033 8 7.75 8C8.7165 8 9.5 7.2165 9.5 6.25C9.5 5.67127 9.21907 5.15815 8.78615 4.83957C9.4999 4.53415 10 3.82548 10 3C10 1.89543 9.10457 1 8 1H4ZM5.5 2H4C3.44772 2 3 2.44772 3 3C3 3.55229 3.44772 4 4 4H5.5V2ZM5.5 7V5H4C3.44772 5 3 5.44772 3 6C3 6.55229 3.44772 7 4 7H5.5ZM4 8C3.44772 8 3 8.44772 3 9C3 9.55229 3.44772 10 4 10H4.25C4.94036 10 5.5 9.44036 5.5 8.75V8H4ZM6.52525 5C6.51675 5.00833 6.50833 5.01675 6.5 5.02525V5H6.52525ZM6.5 4L8 4C8.55228 4 9 3.55229 9 3C9 2.44772 8.55229 2 8 2L6.5 2V4ZM8.5 6.25C8.5 6.66421 8.16421 7 7.75 7C7.33579 7 7 6.66421 7 6.25C7 5.83579 7.33579 5.5 7.75 5.5C8.16421 5.5 8.5 5.83579 8.5 6.25Z"/>
</svg>
