<svg width="12" height="12" viewBox="0 0 12 12" >
<path d="M5.99991 8.1285L7.49988 9.62847V12H4.49988V9.62853L5.99991 8.1285Z" />
<path d="M8.13713 6.00872L8.16853 5.95987L8.12841 6L8.13713 6.00872Z" />
<path d="M11.9999 0L9.53464 3.83481L7.78562 2.08578L5.99991 3.8715L4.21419 2.08578L2.46513 3.83484L-0.00012207 0H11.9999Z" />
<path d="M3.87141 6L3.83112 5.95971L3.86265 6.00876L3.87141 6Z" />
<path d="M5.99988 6.71429L7.78559 8.5L8.49988 7.78571L6.71416 6L8.49988 4.21429L7.78559 3.5L5.99988 5.28571L4.21416 3.5L3.49988 4.21429L5.28559 6L3.49988 7.78571L4.21416 8.5L5.99988 6.71429Z" />
</svg>
