<svg width="12" height="12" viewBox="0 0 12 12" fill="none" xmlns="http://www.w3.org/2000/svg">
<path fill-rule="evenodd" clip-rule="evenodd" d="M6.00003 8.1285L7.5 9.62847V12H4.5V9.62853L6.00003 8.1285ZM8.13725 6.00872L8.16865 5.95987L8.12853 6L8.13725 6.00872ZM12 0L9.53477 3.83481L7.78574 2.08578L6.00003 3.8715L4.21431 2.08578L2.46526 3.83484L0 0H12ZM3.87153 6L3.83124 5.95971L3.86277 6.00876L3.87153 6ZM6 6.71429L7.78571 8.5L8.5 7.78571L6.71429 6L8.5 4.21429L7.78571 3.5L6 5.28571L4.21429 3.5L3.5 4.21429L5.28571 6L3.5 7.78571L4.21429 8.5L6 6.71429Z" fill="#4C505B"/>
</svg>
