<svg width="12" height="12" viewBox="0 0 12 12" xmlns="http://www.w3.org/2000/svg">
<path d="M6.71429 6L8.50003 4.21428L7.78571 3.5L6 5.28571L4.21429 3.5L3.5 4.21429L5.28571 6L3.5 7.78571L4.21429 8.5L6 6.71429L7.78571 8.5L8.5 7.78571L6.71429 6Z"/>
<path d="M6.5 8.62847L7.5 9.62847V12H4.5V9.62853L5.5 8.62853V11H6.5V8.62847Z"/>
<path d="M3.87153 6L3.86277 6.00876L3.83124 5.95971L3.87153 6Z"/>
<path d="M3.18888 3.11122L2.46526 3.83484L0 0H12L9.53477 3.83481L8.81114 3.11119L10.1683 1H1.83167L3.18888 3.11122Z"/>
<path d="M8.13725 6.00872L8.16865 5.95987L8.12853 6L8.13725 6.00872Z"/>
</svg>
