<svg width="12" height="12" viewBox="0 0 12 12" fill="none" xmlns="http://www.w3.org/2000/svg">
<path fill-rule="evenodd" clip-rule="evenodd" d="M7.58385 6.86957L7.58386 6.86955L6.86024 6.14592L6.86023 6.14594L6.71429 6L7.38562 5.32866L7.38557 5.32874L8.50003 4.21428L8.25776 3.97201L8.25774 3.97203L7.78571 3.5L6 5.28571L4.21429 3.5L3.5 4.21429L5.28571 6L3.5 7.78571L4.21429 8.5L4.5 8.21429V8.21431L5.5 7.21431V7.21429L6 6.71429L7.78571 8.5L8.5 7.78571L7.58385 6.86957ZM6.5 8.62847L7.5 9.62847V12H4.5V9.62853L5.5 8.62853V11H6.5V8.62847ZM3.87153 6L3.86277 6.00876L3.83124 5.95971L3.87153 6ZM3.18888 3.11122L2.46526 3.83484L0 0H12L9.53477 3.83481L8.81114 3.11119L10.1683 1H1.83167L3.18888 3.11122ZM8.13725 6.00872L8.16865 5.95987L8.12853 6L8.13725 6.00872Z" fill="#4C505B"/>
</svg>
