<svg width="12" height="12" viewBox="0 0 12 12" xmlns="http://www.w3.org/2000/svg" >
<path d="M6.71416 6L8.49991 4.21428L7.78559 3.5L5.99988 5.28571L4.21416 3.5L3.49988 4.21429L5.28559 6L3.49988 7.78571L4.21416 8.5L5.99988 6.71429L7.78559 8.5L8.49988 7.78571L6.71416 6Z" />
<path d="M6.49988 8.62847L7.49988 9.62847V12H4.49988V9.62853L5.49988 8.62853V11H6.49988V8.62847Z" />
<path d="M3.87141 6L3.86265 6.00876L3.83112 5.95971L3.87141 6Z" />
<path d="M3.18876 3.11122L2.46513 3.83484L-0.00012207 0H11.9999L9.53464 3.83481L8.81102 3.11119L10.1682 1H1.83154L3.18876 3.11122Z" />
<path d="M8.13713 6.00872L8.16853 5.95987L8.12841 6L8.13713 6.00872Z" />
</svg>
