<svg width="12" height="12" viewBox="0 0 12 12" xmlns="http://www.w3.org/2000/svg">
<path d="M5.14832 0.128906C4.69519 0.0429688 4.23035 0 3.75378 0C2.80066 0 2.13269 0.0703125 1.74988 0.210938C1.37488 0.351562 1.17175 0.433594 1.1405 0.457031L0.999878 0.550781V12H1.99988V7.18359C2.11707 7.12891 2.29285 7.07031 2.5116 7.00781C2.73035 6.9375 3.14832 6.90234 3.7655 6.90234C4.203 6.90234 4.63269 6.96875 5.05457 7.10156C5.48425 7.22656 5.91785 7.33594 6.35535 7.42969C6.80066 7.52344 7.25769 7.61328 7.72644 7.69922C8.19519 7.77734 8.67957 7.81641 9.17957 7.81641C9.47644 7.81641 9.75769 7.80078 10.0233 7.76953C10.2889 7.73828 10.5311 7.71094 10.7499 7.6875C10.8749 7.67188 11.0897 7.64062 11.3944 7.59375C11.7069 7.54688 11.9061 7.51562 11.9999 7.5V0.503906C11.9061 0.519531 11.7069 0.546875 11.3944 0.585938C11.0897 0.617188 10.8749 0.640625 10.7499 0.65625C10.5233 0.679688 10.2733 0.710938 9.99988 0.75C9.72644 0.78125 9.43738 0.796875 9.13269 0.796875C8.66394 0.796875 8.21082 0.75 7.77332 0.65625C7.34363 0.5625 6.91394 0.472656 6.48425 0.386719C6.04675 0.292969 5.60144 0.207031 5.14832 0.128906Z"/>
</svg>
