<!-- Generated by IcoMoon.io -->
<svg version="1.1" xmlns="http://www.w3.org/2000/svg" width="12" height="12" viewBox="0 0 12 12">
<title>flag</title>
<path d="M3.754 0c0.477 0 0.941 0.043 1.395 0.129 0.453 0.078 0.898 0.164 1.336 0.258 0.43 0.086 0.859 0.176 1.289 0.27 0.437 0.094 0.891 0.141 1.359 0.141 0.305 0 0.594-0.016 0.867-0.047 0.273-0.039 0.523-0.070 0.75-0.094 0.125-0.016 0.34-0.039 0.644-0.070 0.313-0.039 0.512-0.070 0.605-0.086v7c-0.094 0.016-0.293 0.047-0.605 0.094-0.305 0.047-0.52 0.078-0.644 0.094-0.219 0.023-0.461 0.051-0.727 0.082s-0.547 0.047-0.844 0.047c-0.5 0-0.984-0.039-1.453-0.117-0.469-0.086-0.926-0.176-1.371-0.27-0.437-0.094-0.871-0.203-1.301-0.328-0.422-0.133-0.852-0.199-1.289-0.199-0.617 0-1.035 0.035-1.254 0.105-0.219 0.062-0.395 0.113-0.512 0.167v4.825h-1v-11.449l0.141-0.094c0.031-0.023 0.234-0.105 0.609-0.246 0.383-0.141 1.051-0.211 2.004-0.211zM3.766 0.949c-0.609 0-1.027 0.039-1.254 0.117-0.219 0.078-0.387 0.141-0.504 0.188l-0.008 4.996c0.203-0.062 0.422-0.113 0.641-0.168 0.227-0.055 0.602-0.082 1.125-0.082 0.477 0 0.938 0.062 1.383 0.188 0.453 0.117 0.898 0.223 1.336 0.316 0.43 0.094 0.84 0.184 1.23 0.27s0.82 0.129 1.289 0.129c0.297 0 0.648-0.016 1.055-0.047 0.406-0.039 0.715-0.074 0.941-0.105v-5.145c-0.227 0.023-0.512 0.055-0.871 0.094s-0.687 0.059-0.984 0.059c-0.508 0-0.988-0.051-1.441-0.152-0.453-0.109-0.902-0.211-1.348-0.305-0.437-0.094-0.871-0.176-1.301-0.246-0.422-0.070-0.852-0.105-1.289-0.105z"></path>
</svg>
