<svg width="12" height="12" viewBox="0 0 12 12" xmlns="http://www.w3.org/2000/svg">
<path d="M3.75391 0C4.23047 0 4.69531 0.0429688 5.14844 0.128906C5.60156 0.207031 6.04688 0.292969 6.48438 0.386719C6.91406 0.472656 7.34375 0.5625 7.77344 0.65625C8.21094 0.75 8.66406 0.796875 9.13281 0.796875C9.4375 0.796875 9.72656 0.78125 10 0.75C10.2734 0.710938 10.5234 0.679688 10.75 0.65625C10.875 0.640625 11.0898 0.617188 11.3945 0.585938C11.707 0.546875 11.9062 0.515625 12 0.5V7.5C11.9062 7.51562 11.707 7.54688 11.3945 7.59375C11.0898 7.64062 10.875 7.67188 10.75 7.6875C10.5312 7.71094 10.2891 7.73828 10.0234 7.76953C9.75781 7.80078 9.47656 7.81641 9.17969 7.81641C8.67969 7.81641 8.19531 7.77734 7.72656 7.69922C7.25781 7.61328 6.80078 7.52344 6.35547 7.42969C5.91797 7.33594 5.48438 7.22656 5.05469 7.10156C4.63281 6.96875 4.20312 6.90234 3.76562 6.90234C3.14844 6.90234 2.73047 6.9375 2.51172 7.00781C2.29297 7.07031 2.11719 7.12031 2 7.175V12H1V0.550781L1.14062 0.457031C1.17188 0.433594 1.375 0.351562 1.75 0.210938C2.13281 0.0703125 2.80078 0 3.75391 0ZM3.76562 0.949219C3.15625 0.949219 2.73828 0.988281 2.51172 1.06641C2.29297 1.14453 2.125 1.20703 2.00781 1.25391L2 6.25C2.20312 6.1875 2.42188 6.13672 2.64062 6.08203C2.86719 6.02734 3.24219 6 3.76562 6C4.24219 6 4.70312 6.0625 5.14844 6.1875C5.60156 6.30469 6.04688 6.41016 6.48438 6.50391C6.91406 6.59766 7.32422 6.6875 7.71484 6.77344C8.10547 6.85938 8.53516 6.90234 9.00391 6.90234C9.30078 6.90234 9.65234 6.88672 10.0586 6.85547C10.4648 6.81641 10.7734 6.78125 11 6.75V1.60547C10.7734 1.62891 10.4883 1.66016 10.1289 1.69922C9.76953 1.73828 9.44141 1.75781 9.14453 1.75781C8.63672 1.75781 8.15625 1.70703 7.70312 1.60547C7.25 1.49609 6.80078 1.39453 6.35547 1.30078C5.91797 1.20703 5.48438 1.125 5.05469 1.05469C4.63281 0.984375 4.20312 0.949219 3.76562 0.949219Z"/>
</svg>
