<svg width="12" height="12" viewBox="0 0 12 12" xmlns="http://www.w3.org/2000/svg">
<path d="M3.75378 0C4.23035 0 4.69519 0.0429688 5.14832 0.128906C5.60144 0.207031 6.04675 0.292969 6.48425 0.386719C6.91394 0.472656 7.34363 0.5625 7.77332 0.65625C8.21082 0.75 8.66394 0.796875 9.13269 0.796875C9.43738 0.796875 9.72644 0.78125 9.99988 0.75C10.2733 0.710938 10.5233 0.679688 10.7499 0.65625C10.8749 0.640625 11.0897 0.617188 11.3944 0.585938C11.7069 0.546875 11.9061 0.515625 11.9999 0.5V7.5C11.9061 7.51562 11.7069 7.54688 11.3944 7.59375C11.0897 7.64062 10.8749 7.67188 10.7499 7.6875C10.5311 7.71094 10.2889 7.73828 10.0233 7.76953C9.75769 7.80078 9.47644 7.81641 9.17957 7.81641C8.67957 7.81641 8.19519 7.77734 7.72644 7.69922C7.25769 7.61328 6.80066 7.52344 6.35535 7.42969C5.91785 7.33594 5.48425 7.22656 5.05457 7.10156C4.63269 6.96875 4.203 6.90234 3.7655 6.90234C3.14832 6.90234 2.73035 6.9375 2.5116 7.00781C2.29285 7.07031 2.11707 7.12031 1.99988 7.175V12H0.999878V0.550781L1.1405 0.457031C1.17175 0.433594 1.37488 0.351562 1.74988 0.210938C2.13269 0.0703125 2.80066 0 3.75378 0ZM3.7655 0.949219C3.15613 0.949219 2.73816 0.988281 2.5116 1.06641C2.29285 1.14453 2.12488 1.20703 2.00769 1.25391L1.99988 6.25C2.203 6.1875 2.42175 6.13672 2.6405 6.08203C2.86707 6.02734 3.24207 6 3.7655 6C4.24207 6 4.703 6.0625 5.14832 6.1875C5.60144 6.30469 6.04675 6.41016 6.48425 6.50391C6.91394 6.59766 7.3241 6.6875 7.71472 6.77344C8.10535 6.85938 8.53503 6.90234 9.00378 6.90234C9.30066 6.90234 9.65222 6.88672 10.0585 6.85547C10.4647 6.81641 10.7733 6.78125 10.9999 6.75V1.60547C10.7733 1.62891 10.4882 1.66016 10.1288 1.69922C9.76941 1.73828 9.44128 1.75781 9.14441 1.75781C8.6366 1.75781 8.15613 1.70703 7.703 1.60547C7.24988 1.49609 6.80066 1.39453 6.35535 1.30078C5.91785 1.20703 5.48425 1.125 5.05457 1.05469C4.63269 0.984375 4.203 0.949219 3.7655 0.949219Z"/>
</svg>
