<!-- Generated by IcoMoon.io -->
<svg version="1.1" xmlns="http://www.w3.org/2000/svg" width="12" height="12" viewBox="0 0 12 12">
<title>flag-solid</title>
<path d="M5.148 0.129c-0.453-0.086-0.918-0.129-1.395-0.129-0.953 0-1.621 0.070-2.004 0.211-0.375 0.141-0.578 0.223-0.609 0.246l-0.141 0.094v11.449h1v-4.816c0.117-0.055 0.293-0.113 0.512-0.176 0.219-0.070 0.637-0.105 1.254-0.105 0.437 0 0.867 0.066 1.289 0.199 0.43 0.125 0.863 0.234 1.301 0.328 0.445 0.094 0.902 0.184 1.371 0.27 0.469 0.078 0.953 0.117 1.453 0.117 0.297 0 0.578-0.016 0.844-0.047s0.508-0.059 0.727-0.082c0.125-0.016 0.34-0.047 0.644-0.094 0.313-0.047 0.512-0.078 0.605-0.094v-6.996c-0.094 0.016-0.293 0.043-0.605 0.082-0.305 0.031-0.52 0.055-0.644 0.070-0.227 0.023-0.477 0.055-0.75 0.094-0.273 0.031-0.563 0.047-0.867 0.047-0.469 0-0.922-0.047-1.359-0.141-0.43-0.094-0.859-0.184-1.289-0.27-0.437-0.094-0.883-0.18-1.336-0.258z"></path>
</svg>
