<!-- Generated by IcoMoon.io -->
<svg version="1.1" xmlns="http://www.w3.org/2000/svg" viewBox="0 0 12 12">
<title>flag-solid</title>
<path d="M9.133 0.792c-0.938 0-1.787-0.232-2.649-0.414-0.873-0.187-1.775-0.378-2.73-0.378-1.905 0-2.551 0.41-2.616 0.455l-0.138 0.098v11.447h1v-4.822c0.244-0.102 0.536-0.28 1.758-0.28 0.886 0 1.714 0.337 2.596 0.528 0.894 0.191 1.82 0.39 2.823 0.39 0.597 0 1.125-0.081 1.572-0.134 0.244-0.028 1.059-0.15 1.25-0.182v-7c-0.191 0.037-1.010 0.118-1.254 0.15-0.447 0.057-1.012 0.142-1.613 0.142z"></path>
</svg>
