<svg width="12" height="12" viewBox="0 0 12 12" xmlns="http://www.w3.org/2000/svg">
<path d="M5.14844 0.128906C4.69531 0.0429688 4.23047 0 3.75391 0C2.80078 0 2.13281 0.0703125 1.75 0.210938C1.375 0.351562 1.17188 0.433594 1.14062 0.457031L1 0.550781V12H2V7.18359C2.11719 7.12891 2.29297 7.07031 2.51172 7.00781C2.73047 6.9375 3.14844 6.90234 3.76562 6.90234C4.20312 6.90234 4.63281 6.96875 5.05469 7.10156C5.48438 7.22656 5.91797 7.33594 6.35547 7.42969C6.80078 7.52344 7.25781 7.61328 7.72656 7.69922C8.19531 7.77734 8.67969 7.81641 9.17969 7.81641C9.47656 7.81641 9.75781 7.80078 10.0234 7.76953C10.2891 7.73828 10.5312 7.71094 10.75 7.6875C10.875 7.67188 11.0898 7.64062 11.3945 7.59375C11.707 7.54688 11.9062 7.51562 12 7.5V0.503906C11.9062 0.519531 11.707 0.546875 11.3945 0.585938C11.0898 0.617188 10.875 0.640625 10.75 0.65625C10.5234 0.679688 10.2734 0.710938 10 0.75C9.72656 0.78125 9.4375 0.796875 9.13281 0.796875C8.66406 0.796875 8.21094 0.75 7.77344 0.65625C7.34375 0.5625 6.91406 0.472656 6.48438 0.386719C6.04688 0.292969 5.60156 0.207031 5.14844 0.128906Z"/>
</svg>
