<!-- Generated by IcoMoon.io -->
<svg version="1.1" xmlns="http://www.w3.org/2000/svg" width="12" height="12" viewBox="0 0 12 12">
<title>forward-5</title>
<path fill="#4c505b" d="M4.021 2c-2.249 0-4.061 1.835-4.020 4.071 0.039 2.181 1.828 3.929 4.020 3.929h3.979v2l4-2.5-4-2.5v2h-3.979c-1.645 0-2.986-1.311-3.015-2.946-0.030-1.678 1.329-3.054 3.015-3.054v-1z"></path>
<path fill="#4c505b" d="M8.385 2.126c0.321 0 0.604 0.058 0.848 0.174 0.246 0.114 0.437 0.283 0.574 0.506 0.137 0.221 0.205 0.492 0.205 0.813 0 0.351-0.074 0.654-0.222 0.909-0.148 0.253-0.366 0.448-0.653 0.584s-0.637 0.205-1.049 0.205c-0.262 0-0.507-0.023-0.735-0.068-0.226-0.046-0.42-0.114-0.584-0.205v-0.725c0.171 0.096 0.376 0.174 0.615 0.236 0.239 0.059 0.468 0.089 0.687 0.089 0.232 0 0.432-0.034 0.598-0.103s0.294-0.173 0.383-0.314c0.091-0.141 0.137-0.32 0.137-0.537 0-0.287-0.092-0.508-0.277-0.663-0.182-0.157-0.468-0.236-0.858-0.236-0.137 0-0.283 0.013-0.437 0.038-0.153 0.023-0.28 0.048-0.383 0.075l-0.352-0.208 0.188-2.444h2.598v0.708h-1.89l-0.109 1.244c0.082-0.018 0.18-0.035 0.294-0.051 0.114-0.018 0.255-0.027 0.424-0.027z"></path>
</svg>
