<svg width="12" height="12" viewBox="0 0 12 12" xmlns="http://www.w3.org/2000/svg">
<path d="M4.02114 2C1.77224 2 -0.0394977 3.83469 0.000654749 6.07142C0.039806 8.25237 1.82832 10 4.02114 10H8V12L12 9.5L8 7V9H4.02114C2.37653 9 1.03514 7.68928 1.00578 6.05356C0.975662 4.37602 2.33447 3 4.02114 3V2Z"/>
<path d="M8.38525 2.12598C8.70654 2.12598 8.98909 2.18408 9.23291 2.30029C9.479 2.41423 9.67041 2.58284 9.80713 2.80615C9.94385 3.02718 10.0122 3.29834 10.0122 3.61963C10.0122 3.97054 9.93815 4.2736 9.79004 4.52881C9.64193 4.78174 9.42432 4.97656 9.13721 5.11328C8.8501 5.25 8.50033 5.31836 8.08789 5.31836C7.82585 5.31836 7.58089 5.29557 7.35303 5.25C7.12744 5.20443 6.93262 5.13607 6.76855 5.04492V4.32031C6.93945 4.41602 7.14453 4.49463 7.38379 4.55615C7.62305 4.6154 7.85205 4.64502 8.0708 4.64502C8.30322 4.64502 8.5026 4.61084 8.66895 4.54248C8.83529 4.47412 8.96289 4.3693 9.05176 4.22803C9.1429 4.08675 9.18848 3.90788 9.18848 3.69141C9.18848 3.4043 9.09619 3.18327 8.91162 3.02832C8.72933 2.87109 8.44336 2.79248 8.05371 2.79248C7.91699 2.79248 7.77116 2.80501 7.61621 2.83008C7.46354 2.85286 7.33594 2.87793 7.2334 2.90527L6.88135 2.69678L7.06934 0.25293H9.66699V0.960449H7.77686L7.66748 2.20459C7.74951 2.18636 7.84749 2.16927 7.96143 2.15332C8.07536 2.13509 8.21663 2.12598 8.38525 2.12598Z"/>
</svg>
