<!-- Generated by IcoMoon.io -->
<svg version="1.1" xmlns="http://www.w3.org/2000/svg" width="12" height="12" viewBox="0 0 12 12">
<title>forward-10</title>
<path fill="#4c505b" d="M4.021 2c-2.249 0-4.061 1.835-4.020 4.071 0.039 2.181 1.828 3.929 4.020 3.929h3.979v2l4-2.5-4-2.5v2h-3.979c-1.645 0-2.986-1.311-3.015-2.946-0.030-1.678 1.329-3.054 3.015-3.054v-1z"></path>
<path fill="#4c505b" d="M7.295 5.25h-0.807v-3.216c0-0.107 0.001-0.214 0.003-0.321s0.005-0.212 0.007-0.314c0.005-0.103 0.010-0.201 0.017-0.294-0.048 0.052-0.107 0.109-0.178 0.171-0.068 0.062-0.141 0.125-0.219 0.191l-0.574 0.458-0.403-0.509 1.483-1.162h0.67v4.997z"></path>
<path fill="#4c505b" d="M11.823 2.748c0 0.403-0.032 0.764-0.096 1.083-0.062 0.317-0.16 0.586-0.294 0.807s-0.31 0.39-0.526 0.506c-0.216 0.116-0.479 0.174-0.786 0.174-0.385 0-0.703-0.101-0.954-0.304-0.251-0.205-0.436-0.499-0.557-0.882-0.121-0.385-0.181-0.847-0.181-1.384s0.055-0.998 0.164-1.381c0.112-0.385 0.292-0.68 0.54-0.885s0.578-0.308 0.988-0.308c0.387 0 0.706 0.103 0.957 0.308 0.253 0.203 0.44 0.497 0.561 0.882 0.123 0.383 0.184 0.844 0.184 1.384zM9.239 2.748c0 0.422 0.027 0.774 0.082 1.056 0.057 0.283 0.15 0.494 0.28 0.636 0.13 0.139 0.303 0.209 0.52 0.209s0.39-0.070 0.52-0.209 0.223-0.35 0.28-0.632c0.059-0.283 0.089-0.636 0.089-1.060 0-0.419-0.028-0.77-0.086-1.053s-0.15-0.494-0.28-0.636c-0.13-0.144-0.304-0.215-0.523-0.215s-0.393 0.072-0.523 0.215c-0.128 0.141-0.22 0.353-0.277 0.636-0.055 0.283-0.082 0.633-0.082 1.053z"></path>
</svg>
