<!-- Generated by IcoMoon.io -->
<svg version="1.1" xmlns="http://www.w3.org/2000/svg" width="12" height="12" viewBox="0 0 12 12">
<title>forward-30</title>
<path fill="#4c505b" d="M4.021 2c-2.249 0-4.061 1.835-4.020 4.071 0.039 2.181 1.828 3.929 4.020 3.929h3.979v2l4-2.5-4-2.5v2h-3.979c-1.645 0-2.986-1.311-3.015-2.946-0.030-1.678 1.329-3.054 3.015-3.054v-1z"></path>
<path fill="#4c505b" d="M7.876 1.395c0 0.226-0.046 0.422-0.137 0.588s-0.216 0.303-0.376 0.41c-0.157 0.105-0.34 0.18-0.547 0.226v0.024c0.399 0.050 0.7 0.175 0.902 0.376 0.205 0.201 0.308 0.466 0.308 0.796 0 0.289-0.070 0.548-0.209 0.776-0.139 0.226-0.352 0.403-0.639 0.533s-0.656 0.195-1.107 0.195c-0.271 0-0.523-0.022-0.755-0.065-0.23-0.043-0.449-0.113-0.656-0.208v-0.714c0.212 0.105 0.437 0.186 0.677 0.243s0.466 0.085 0.68 0.085c0.417 0 0.714-0.077 0.892-0.232 0.178-0.157 0.267-0.374 0.267-0.649 0-0.178-0.047-0.324-0.14-0.437-0.091-0.114-0.234-0.199-0.427-0.256-0.191-0.057-0.439-0.085-0.742-0.085h-0.441v-0.646h0.444c0.289 0 0.522-0.034 0.697-0.103 0.175-0.071 0.302-0.167 0.379-0.291 0.080-0.123 0.12-0.267 0.12-0.431 0-0.214-0.070-0.381-0.209-0.499-0.139-0.121-0.345-0.181-0.619-0.181-0.169 0-0.322 0.019-0.461 0.058-0.137 0.039-0.263 0.088-0.379 0.147s-0.227 0.123-0.332 0.191l-0.386-0.557c0.189-0.141 0.415-0.261 0.677-0.359s0.567-0.147 0.916-0.147c0.513 0 0.908 0.111 1.186 0.332 0.278 0.219 0.417 0.513 0.417 0.882z"></path>
<path fill="#4c505b" d="M11.823 2.748c0 0.403-0.032 0.764-0.096 1.083-0.062 0.317-0.16 0.586-0.294 0.807s-0.31 0.39-0.526 0.506c-0.216 0.116-0.479 0.174-0.786 0.174-0.385 0-0.703-0.101-0.954-0.304-0.251-0.205-0.436-0.499-0.557-0.882-0.121-0.385-0.181-0.847-0.181-1.384s0.055-0.998 0.164-1.381c0.112-0.385 0.292-0.68 0.54-0.885s0.578-0.308 0.988-0.308c0.387 0 0.706 0.103 0.957 0.308 0.253 0.203 0.44 0.497 0.561 0.882 0.123 0.383 0.184 0.844 0.184 1.384zM9.239 2.748c0 0.422 0.027 0.774 0.082 1.056 0.057 0.283 0.15 0.494 0.28 0.636 0.13 0.139 0.303 0.209 0.52 0.209s0.39-0.070 0.52-0.209 0.223-0.35 0.28-0.632c0.059-0.283 0.089-0.636 0.089-1.060 0-0.419-0.028-0.77-0.086-1.053s-0.15-0.494-0.28-0.636c-0.13-0.144-0.304-0.215-0.523-0.215s-0.393 0.072-0.523 0.215c-0.128 0.141-0.22 0.353-0.277 0.636-0.055 0.283-0.082 0.633-0.082 1.053z"></path>
</svg>
