<svg width="12" height="12" viewBox="0 0 12 12" xmlns="http://www.w3.org/2000/svg">
<path d="M0.00143964 6.13276C0.000481522 6.17724 0 6.22185 0 6.26657C0 8.93057 1.71343 11.1856 4.09041 11.9837C4.38759 12.0437 4.49645 11.854 4.49645 11.6945C4.49645 11.6461 4.49528 11.5572 4.49374 11.4408C4.49084 11.2209 4.48665 10.9032 4.48665 10.5769C2.82257 10.9362 2.47604 9.85849 2.47604 9.85849C2.20861 9.16004 1.81237 8.98053 1.81237 8.98053C1.26771 8.61134 1.85204 8.61134 1.85204 8.61134C2.4562 8.65126 2.77322 9.22996 2.77322 9.22996C3.30796 10.1478 4.16963 9.88849 4.51629 9.72881C4.56576 9.33967 4.72433 9.07028 4.89269 8.92065C3.56547 8.78094 2.16906 8.26212 2.16906 5.94722C2.16906 5.28869 2.40661 4.74992 2.78302 4.3309C2.72363 4.18126 2.51559 3.56253 2.84253 2.73441C2.84253 2.73441 3.34763 2.57473 4.48653 3.35302C4.97413 3.2211 5.47699 3.15399 5.98212 3.15343C6.48722 3.15343 7.00212 3.22334 7.47759 3.35302C8.61661 2.57473 9.12171 2.73441 9.12171 2.73441C9.44865 3.56253 9.24049 4.18126 9.1811 4.3309C9.56743 4.74992 9.79518 5.28869 9.79518 5.94722C9.79518 8.26212 8.39878 8.7709 7.06163 8.92065C7.27959 9.1102 7.46767 9.46935 7.46767 10.0381C7.46767 10.578 7.4633 11.0468 7.4604 11.3579C7.45896 11.5125 7.45788 11.6282 7.45788 11.6944C7.45788 11.854 7.56686 12.0437 7.86392 11.9838C9.97731 11.274 11.5662 9.41275 11.8925 7.13629C11.9631 6.76836 12 6.38849 12 6C12 2.68629 9.31372 0 6 0C2.68628 0 0 2.68629 0 6C0 6.04437 0.000481525 6.08862 0.00143964 6.13276Z"/>
</svg>
