<!-- Generated by IcoMoon.io -->
<svg version="1.1" xmlns="http://www.w3.org/2000/svg" width="12" height="12" viewBox="0 0 12 12">
<title>globe</title>
<path d="M12 6c0 3.314-2.686 6-6 6s-6-2.686-6-6c0-3.314 2.686-6 6-6s6 2.686 6 6zM4.793 10.853c-0.7-0.92-1.199-1.877-1.488-2.853h-1.889c0.615 1.408 1.859 2.477 3.377 2.853zM1.1 7h1.984c-0.049-0.332-0.073-0.665-0.074-1s0.024-0.668 0.072-1h-1.983c-0.066 0.323-0.1 0.658-0.1 1s0.034 0.677 0.1 1zM1.416 4h1.887c0.288-0.976 0.787-1.932 1.488-2.853-1.517 0.377-2.76 1.446-3.374 2.853zM4.352 4h3.262c-0.329-0.911-0.876-1.819-1.655-2.709-0.762 0.89-1.293 1.799-1.607 2.709zM8.929 7h1.971c0.066-0.323 0.1-0.658 0.1-1s-0.034-0.677-0.1-1h-1.997c0.058 0.363 0.087 0.728 0.087 1.095-0 0.303-0.020 0.605-0.060 0.905zM7.295 10.831c1.478-0.395 2.686-1.45 3.289-2.831h-1.862c-0.273 0.968-0.752 1.917-1.428 2.831zM7.677 8h-3.321c0.325 0.942 0.883 1.882 1.686 2.802 0.785-0.921 1.327-1.861 1.636-2.802zM8.669 4h1.915c-0.627-1.434-1.907-2.518-3.464-2.874 0.725 0.926 1.244 1.889 1.549 2.874zM4.095 5c-0.057 0.334-0.085 0.668-0.085 1s0.029 0.666 0.086 1h3.822c0.047-0.303 0.071-0.605 0.071-0.906 0-0.363-0.033-0.728-0.102-1.094h-3.793z"></path>
</svg>
