<!-- Generated by IcoMoon.io -->
<svg version="1.1" xmlns="http://www.w3.org/2000/svg" width="12" height="12" viewBox="0 0 12 12">
<title>globe-solid</title>
<path d="M6.041 10.802c0.785-0.921 1.327-1.861 1.636-2.802h-3.321c0.325 0.942 0.883 1.882 1.686 2.802z"></path>
<path d="M7.919 7c0.047-0.303 0.071-0.605 0.071-0.906 0-0.363-0.033-0.728-0.102-1.094h-3.793c-0.057 0.334-0.085 0.668-0.085 1s0.029 0.666 0.086 1h3.822z"></path>
<path d="M7.614 4c-0.329-0.911-0.876-1.819-1.655-2.709-0.762 0.89-1.293 1.799-1.607 2.709h3.262z"></path>
<path d="M12 6c0-3.314-2.686-6-6-6s-6 2.686-6 6c0 3.314 2.686 6 6 6s6-2.686 6-6zM3.010 6c-0-0.335 0.024-0.668 0.072-1h-1.983c0.071-0.348 0.177-0.682 0.316-1h1.887c0.288-0.976 0.787-1.932 1.488-2.853 0.387-0.096 0.793-0.147 1.21-0.147 0.385 0 0.76 0.044 1.12 0.126 0.725 0.926 1.244 1.889 1.549 2.874h1.915c0.139 0.317 0.245 0.652 0.316 1h-1.997c0.058 0.363 0.087 0.728 0.087 1.095-0 0.303-0.020 0.605-0.060 0.905h1.971c-0.071 0.348-0.177 0.682-0.316 1h-1.862c-0.273 0.968-0.752 1.917-1.428 2.831-0.413 0.11-0.847 0.169-1.295 0.169-0.416 0-0.82-0.051-1.207-0.147-0.7-0.92-1.199-1.877-1.488-2.853h-1.889c-0.139-0.317-0.245-0.652-0.316-1h1.984c-0.049-0.332-0.073-0.665-0.074-1z"></path>
</svg>
