<svg width="12" height="12" viewBox="0 0 12 12" >
<path fill-rule="evenodd" clip-rule="evenodd" d="M12 6C12 9.31371 9.31371 12 6 12C2.68629 12 0 9.31371 0 6C0 2.68629 2.68629 0 6 0C9.31371 0 12 2.68629 12 6ZM4.7931 10.8534C4.09331 9.933 3.59407 8.97663 3.30512 8H1.41604C2.03101 9.40751 3.2752 10.4772 4.7931 10.8534ZM1.10003 7H3.08408C3.03534 6.66826 3.01069 6.33489 3.01043 6.0004C3.01018 5.66564 3.03438 5.33198 3.0827 5H1.10003C1.03444 5.32311 1.00001 5.65753 1.00001 6C1.00001 6.34247 1.03444 6.67689 1.10003 7ZM1.41604 4H3.30258C3.5905 3.02365 4.08928 2.06752 4.79025 1.14734C3.27367 1.52419 2.0306 2.59337 1.41604 4ZM4.35237 4H7.61435C7.28564 3.08944 6.7379 2.18087 5.95916 1.29124C5.19731 2.18149 4.66569 3.09006 4.35237 4ZM8.92917 6.99997H10.9C10.9656 6.67686 11 6.34241 11 5.99995C11 5.6575 10.9656 5.32308 10.9 4.99997H8.90296C8.96087 5.36307 8.9899 5.72825 8.98962 6.09473C8.98938 6.39751 8.96914 6.69941 8.92917 6.99997ZM7.29466 10.8307C8.77269 10.4356 9.98092 9.38025 10.584 7.99997H8.72217C8.44956 8.96801 7.97059 9.91669 7.29466 10.8307ZM7.67666 7.99997H4.35521C4.68036 8.94158 5.23821 9.88175 6.04075 10.8017C6.82596 9.88109 7.36731 8.94094 7.67666 7.99997ZM8.66895 3.99996H10.584C9.95739 2.56581 8.67747 1.48241 7.12042 1.12598C7.84535 2.05204 8.36449 3.01545 8.66895 3.99996ZM4.09519 5C4.0382 5.33413 4.01013 5.66762 4.01038 5.99961C4.01061 6.33185 4.03925 6.6656 4.09679 7H7.9186C7.96581 6.69719 7.9893 6.39499 7.98955 6.094C7.98983 5.73077 7.9562 5.36572 7.88785 5H4.09519Z" />
</svg>
