<!-- Generated by IcoMoon.io -->
<svg version="1.1" xmlns="http://www.w3.org/2000/svg" width="12" height="12" viewBox="0 0 12 12">
<title>guide-open</title>
<path d="M2 3h2.5v1h-2.5v-1z"></path>
<path d="M10 3h-2.5v1h2.5v-1z"></path>
<path d="M7.5 5h2.5v1h-2.5v-1z"></path>
<path d="M4.5 5h-2.5v1h2.5v-1z"></path>
<path d="M7.5 7h2.5v1h-2.5v-1z"></path>
<path d="M4.5 7h-2.5v1h2.5v-1z"></path>
<path d="M12 1v9.5h-5c-0.22 0-0.327 0.073-0.385 0.14-0.068 0.079-0.115 0.204-0.115 0.36h-1c0-0.087-0.049-0.217-0.166-0.334s-0.247-0.166-0.334-0.166h-5v-9.5h5c0.371 0 0.707 0.162 0.959 0.382 0.261-0.244 0.618-0.382 1.041-0.382h5zM5 2h-4v7.5h4c0.371 0 0.707 0.162 0.959 0.382 0.261-0.244 0.618-0.382 1.041-0.382h4v-7.5h-4c-0.22 0-0.327 0.073-0.385 0.14-0.068 0.079-0.115 0.204-0.115 0.36v6h-1v-6c0-0.087-0.049-0.217-0.166-0.334s-0.247-0.166-0.334-0.166z"></path>
</svg>
