<svg width="12" height="12" viewBox="0 0 12 12" fill="none" xmlns="http://www.w3.org/2000/svg">
<path fill-rule="evenodd" clip-rule="evenodd" d="M7 1H12V10.5H7C6.77966 10.5 6.67326 10.5731 6.61534 10.64C6.5473 10.7185 6.5 10.844 6.5 11H5.5C5.5 10.9126 5.45127 10.7834 5.33395 10.6661C5.21662 10.5487 5.08738 10.5 5 10.5H0V1H5C5.37056 1 5.70737 1.16234 5.95881 1.38207C6.22027 1.1378 6.57661 1 7 1ZM4.5 3H2V4H4.5V3ZM7.5 3H10V4H7.5V3ZM7.5 5H10V6H7.5V5ZM2 5H4.5V6H2V5ZM7.5 7H10V8H7.5V7ZM2 7H4.5V8H2V7Z" fill="#4C505B"/>
</svg>
