<svg width="12" height="12" viewBox="0 0 12 12" fill="none" xmlns="http://www.w3.org/2000/svg">
<path d="M2 3H4.5V4H2V3Z" fill="#4C505B"/>
<path d="M10 3H7.5V4H10V3Z" fill="#4C505B"/>
<path d="M7.5 5H10V6H7.5V5Z" fill="#4C505B"/>
<path d="M4.5 5H2V6H4.5V5Z" fill="#4C505B"/>
<path d="M7.5 7H10V8H7.5V7Z" fill="#4C505B"/>
<path d="M4.5 7H2V8H4.5V7Z" fill="#4C505B"/>
<path fill-rule="evenodd" clip-rule="evenodd" d="M12 1H7C6.57661 1 6.22027 1.1378 5.95881 1.38207C5.70737 1.16234 5.37056 1 5 1H0V10.5H5C5.08738 10.5 5.21662 10.5487 5.33395 10.6661C5.45127 10.7834 5.5 10.9126 5.5 11H6.5C6.5 10.844 6.5473 10.7185 6.61534 10.64C6.67326 10.5731 6.77966 10.5 7 10.5H12V1ZM5 2H1V9.5H5C5.37056 9.5 5.70737 9.66234 5.95881 9.88207C6.22027 9.6378 6.57661 9.5 7 9.5H11V2H7C6.77966 2 6.67326 2.07314 6.61534 2.13997C6.5473 2.21848 6.5 2.344 6.5 2.5V8.5H5.5V2.5C5.5 2.41262 5.45127 2.28338 5.33395 2.16605C5.21662 2.04873 5.08738 2 5 2Z" fill="#4C505B"/>
</svg>
