<svg width="12" height="12" viewBox="0 0 12 12" xmlns="http://www.w3.org/2000/svg">
<path fill-rule="evenodd" clip-rule="evenodd" d="M12 5.02441L10.6045 6.42285L11.0322 6.85156C11.5735 7.39387 11.5735 8.27309 11.0322 8.81543C10.796 9.05209 10.4959 9.18473 10.1875 9.21484C10.1575 9.52386 10.0252 9.82481 9.78906 10.0615C9.55295 10.2981 9.25259 10.4307 8.94434 10.4609C8.91425 10.7699 8.7811 11.071 8.54492 11.3076C8.02777 11.8254 7.20464 11.8476 6.66016 11.376L6.6582 11.3789L6.60352 11.3242C6.59757 11.3185 6.59083 11.3135 6.58496 11.3076L6.1123 10.834L5.62305 11.3242C5.0558 11.8924 4.1356 11.8924 3.56836 11.3242L3.46973 11.2129C3.27663 10.9758 3.16992 10.6923 3.14844 10.4033C2.81404 10.3781 2.48621 10.2395 2.23047 9.9834L2.13184 9.87305C1.93865 9.63587 1.83201 9.35155 1.81055 9.0625C1.47605 9.03743 1.14842 8.89876 0.892578 8.64258L0.792969 8.53223C0.327454 7.96071 0.360869 7.11785 0.892578 6.58496L1.38281 6.09277L0 4.70801L4.44531 0.254883L5.83691 1.64844L7.2334 0.25L12 5.02441ZM5.5293 9.35938C5.37884 9.20885 5.14636 9.19064 4.97559 9.30371L4.91016 9.35547L4.9082 9.35938L4.28516 9.9834L4.28125 9.98633C4.11271 10.1586 4.11375 10.4353 4.28418 10.6064C4.45604 10.7785 4.73537 10.7785 4.90723 10.6064L5.5293 9.98242L5.58594 9.91406C5.6826 9.76745 5.68243 9.5754 5.58594 9.42871L5.5293 9.35938ZM4.19141 8.01855C4.04095 7.8681 3.80844 7.84984 3.6377 7.96289L3.56934 8.01855L2.94629 8.64258C2.77463 8.8148 2.77448 9.09447 2.94629 9.2666C3.11716 9.43762 3.39335 9.43763 3.56543 9.26855L3.56836 9.2666L4.08105 8.75293L4.19141 8.6416L4.24805 8.57324C4.34464 8.42665 4.34452 8.23454 4.24805 8.08789L4.19141 8.01855ZM2.85352 6.67773C2.70306 6.52702 2.47066 6.50894 2.2998 6.62207L2.23145 6.67773L1.6084 7.30176C1.43669 7.47392 1.43672 7.75263 1.6084 7.9248C1.78026 8.09684 2.05861 8.09684 2.23047 7.9248L2.85352 7.30078L2.90918 7.23242C3.00594 7.08579 3.00668 6.89381 2.91016 6.74707L2.85352 6.67773ZM5.61035 3.31055C5.48648 3.43464 5.4866 3.63658 5.61035 3.76074C5.73422 3.88462 5.93472 3.88461 6.05859 3.76074L6.58789 3.23047L6.68164 3.1543C6.87947 3.02349 7.13823 3.02333 7.33594 3.1543L7.42969 3.23047L9.89062 5.70312L10.5674 5.02441L7.2334 1.68359L5.61035 3.31055Z"/>
</svg>
