<svg width="12" height="12" viewBox="0 0 12 12" xmlns="http://www.w3.org/2000/svg">
<path fill-rule="evenodd" clip-rule="evenodd" d="M12 5.02441L10.6045 6.42285L11.0322 6.85156C11.5735 7.39387 11.5735 8.27309 11.0322 8.81543C10.796 9.05209 10.4959 9.18473 10.1875 9.21484C10.1575 9.52386 10.0252 9.82481 9.78906 10.0615C9.55295 10.2981 9.25259 10.4307 8.94434 10.4609C8.91425 10.7699 8.7811 11.071 8.54492 11.3076C8.02777 11.8254 7.20464 11.8476 6.66016 11.376L6.6582 11.3789L6.60352 11.3242C6.59757 11.3185 6.59083 11.3135 6.58496 11.3076L6.1123 10.834L5.62305 11.3242C5.0558 11.8924 4.1356 11.8924 3.56836 11.3242L3.46973 11.2129C3.27664 10.9758 3.16988 10.6923 3.14844 10.4033C2.81404 10.3781 2.48621 10.2395 2.23047 9.9834L2.13184 9.87305C1.93868 9.6359 1.83208 9.35158 1.81055 9.0625C1.47605 9.03743 1.14842 8.89876 0.892578 8.64258L0.792969 8.53223C0.327454 7.96071 0.360869 7.11785 0.892578 6.58496L1.38281 6.09277L0 4.70801L4.44531 0.254883L5.83691 1.64844L7.2334 0.25L12 5.02441ZM5.5293 9.35938C5.37884 9.20885 5.14636 9.19064 4.97559 9.30371L4.9082 9.35938L4.28516 9.9834C4.11352 10.1555 4.11272 10.4343 4.28418 10.6064C4.45604 10.7785 4.73537 10.7785 4.90723 10.6064L5.5293 9.98242L5.58594 9.91406C5.6826 9.76745 5.68243 9.5754 5.58594 9.42871L5.5293 9.35938ZM1.43164 4.70801L2.28125 5.55859C2.7344 5.476 3.21902 5.60998 3.56934 5.96094C3.8249 6.21711 3.96416 6.54492 3.98926 6.87988C4.32402 6.90493 4.65226 7.04535 4.9082 7.30176C5.16361 7.55787 5.30203 7.88587 5.32715 8.2207C5.66187 8.24565 5.9901 8.38612 6.24609 8.64258C6.59577 8.99326 6.72852 9.47812 6.64648 9.93164L7.31152 10.5986C7.4581 10.7352 7.68639 10.7328 7.8291 10.5898C7.97293 10.4457 7.97469 10.214 7.83496 10.0674C7.83293 10.0654 7.83014 10.0635 7.82812 10.0615L7.25195 9.4834L7.18652 9.4043C7.15027 9.34913 7.12677 9.28825 7.11426 9.22559C7.11322 9.22045 7.11319 9.21512 7.1123 9.20996C7.10274 9.15293 7.10238 9.09508 7.1123 9.03809C7.11364 9.03028 7.11451 9.02239 7.11621 9.01465C7.1214 8.99135 7.1292 8.9688 7.1377 8.94629C7.14011 8.93983 7.14185 8.93313 7.14453 8.92676C7.15288 8.90711 7.16388 8.88879 7.1748 8.87012C7.18583 8.85115 7.19822 8.83313 7.21191 8.81543C7.22468 8.79902 7.2369 8.78169 7.25195 8.7666C7.25704 8.76151 7.26331 8.75776 7.26855 8.75293C7.46704 8.56921 7.77585 8.57267 7.96875 8.76562L8.54492 9.34375C8.54688 9.34571 8.54884 9.34764 8.55078 9.34961C8.69715 9.4901 8.9292 9.48903 9.07324 9.34473C9.21821 9.19944 9.21832 8.96479 9.0752 8.81836L8.49512 8.23828C8.34702 8.08966 8.31059 7.87165 8.38477 7.68848C8.39132 7.67218 8.40086 7.65728 8.40918 7.6416C8.43209 7.59865 8.45897 7.55672 8.49512 7.52051L8.49609 7.51953C8.69361 7.32185 9.01423 7.32212 9.21191 7.51953L9.78906 8.09766C9.79101 8.09961 9.79298 8.10155 9.79492 8.10352C9.94127 8.24386 10.1724 8.24281 10.3164 8.09863C10.4623 7.9524 10.4623 7.71556 10.3164 7.56934L9.84863 7.09961C9.84291 7.09388 9.8384 7.08699 9.83301 7.08105L7.00781 4.24414L6.77441 4.47754C6.25512 4.99774 5.41382 4.99774 4.89453 4.47754C4.37539 3.95727 4.37527 3.11395 4.89453 2.59375L5.12012 2.36621L4.44531 1.68945L1.43164 4.70801ZM4.19141 8.01855C4.04094 7.8681 3.80844 7.84984 3.6377 7.96289L3.56934 8.01855L2.94629 8.64258C2.77468 8.81481 2.77449 9.09449 2.94629 9.2666C3.11814 9.4386 3.39748 9.4386 3.56934 9.2666L4.19141 8.6416L4.24805 8.57324C4.34464 8.42665 4.34452 8.23454 4.24805 8.08789L4.19141 8.01855ZM2.85352 6.67773C2.70306 6.52702 2.47066 6.50894 2.2998 6.62207L2.23145 6.67773L1.6084 7.30176C1.43669 7.47392 1.43672 7.75263 1.6084 7.9248C1.78026 8.09684 2.05861 8.09684 2.23047 7.9248L2.85352 7.30078L2.90918 7.23242C3.00594 7.08579 3.00668 6.89381 2.91016 6.74707L2.85352 6.67773ZM5.61035 3.31055C5.48648 3.43464 5.4866 3.63658 5.61035 3.76074C5.73422 3.88462 5.93472 3.88461 6.05859 3.76074L6.58789 3.23047L6.68164 3.1543C6.87947 3.02349 7.13823 3.02333 7.33594 3.1543L7.42969 3.23047L9.89062 5.70312L10.5674 5.02441L7.2334 1.68359L5.61035 3.31055Z"/>
</svg>
