<svg width="12" height="12" viewBox="0 0 12 12" fill="none" xmlns="http://www.w3.org/2000/svg">
<path fill-rule="evenodd" clip-rule="evenodd" d="M11 6C11 3.23858 8.76142 1 6 1C3.23858 1 1 3.23858 1 6H2C3.10457 6 4 6.89543 4 8V10C4 11.1046 3.10457 12 2 12H0V6C0 2.68629 2.68629 0 6 0C9.31371 0 12 2.68629 12 6V12H10C8.89543 12 8 11.1046 8 10V8C8 6.89543 8.89543 6 10 6L11 6ZM11 11V7H10C9.44772 7 9 7.44772 9 8V10C9 10.5523 9.44772 11 10 11H11ZM2 7H1V11H2C2.55228 11 3 10.5523 3 10V8C3 7.44772 2.55228 7 2 7Z" fill="#4C505B"/>
</svg>
