<svg width="12" height="12" viewBox="0 0 12 12" fill="none" xmlns="http://www.w3.org/2000/svg">
<path d="M6 1C8.76142 1 11 3.23858 11 6L10 6C9.48347 6 9.01268 6.19581 8.6578 6.51724L9.36731 7.22555C9.53967 7.08457 9.75996 7 10 7H11V8.85546L12 9.85376V6C12 2.68629 9.31371 0 6 0C4.88978 0 3.84999 0.301539 2.95805 0.827185L3.69431 1.56219C4.38422 1.20302 5.1684 1 6 1Z" fill="#4C505B"/>
<path d="M9.88806 11.9969L8.00333 10.1164C8.06149 11.1298 8.87411 11.941 9.88806 11.9969Z" fill="#4C505B"/>
<path fill-rule="evenodd" clip-rule="evenodd" d="M1.56378 3.69126L0.827832 2.95696C0.301786 3.84913 0 4.88932 0 6V12H2C3.10457 12 4 11.1046 4 10V8C4 6.89543 3.10457 6 2 6H1C1 5.16717 1.20362 4.38191 1.56378 3.69126ZM1 7H2C2.55228 7 3 7.44772 3 8V10C3 10.5523 2.55228 11 2 11H1V7Z" fill="#4C505B"/>
<path d="M11.307 12L1 1.71606L1.71579 1L12 11.2667L11.307 12Z" fill="#4C505B"/>
</svg>
