<!-- Generated by IcoMoon.io -->
<svg version="1.1" xmlns="http://www.w3.org/2000/svg" width="12" height="12" viewBox="0 0 12 12">
<title>help</title>
<path d="M12 0h-12v12h12v-12zM6.082 2.25c0.148 0 0.293 0.012 0.434 0.035s0.273 0.055 0.398 0.094c0.125 0.047 0.242 0.102 0.352 0.164 0.117 0.062 0.223 0.133 0.316 0.211 0.094 0.086 0.176 0.18 0.246 0.281 0.078 0.102 0.145 0.211 0.199 0.328 0.055 0.125 0.094 0.258 0.117 0.398 0.031 0.133 0.047 0.281 0.047 0.445 0 0.109-0.008 0.211-0.023 0.305s-0.039 0.184-0.070 0.27c-0.031 0.086-0.066 0.168-0.105 0.246-0.039 0.070-0.082 0.141-0.129 0.211l-0.164 0.211c-0.055 0.062-0.117 0.125-0.188 0.188-0.062 0.070-0.129 0.141-0.199 0.211-0.070 0.062-0.141 0.129-0.211 0.199-0.047 0.039-0.090 0.078-0.129 0.117s-0.078 0.074-0.117 0.105c-0.031 0.031-0.062 0.066-0.094 0.105-0.023 0.031-0.047 0.066-0.070 0.105-0.023 0.031-0.043 0.066-0.059 0.105s-0.027 0.082-0.035 0.129c-0.008 0.047-0.016 0.098-0.023 0.152v0.551h-1.207v-0.75c0.008-0.062 0.016-0.121 0.023-0.176 0.008-0.047 0.020-0.094 0.035-0.141s0.035-0.094 0.059-0.141l0.070-0.117c0.031-0.039 0.066-0.078 0.105-0.117 0.031-0.039 0.066-0.082 0.105-0.129l0.141-0.141 0.773-0.785c0.086-0.086 0.148-0.18 0.188-0.281 0.039-0.109 0.059-0.23 0.059-0.363s-0.023-0.25-0.070-0.352c-0.039-0.109-0.098-0.207-0.176-0.293-0.086-0.078-0.184-0.137-0.293-0.176-0.109-0.047-0.227-0.070-0.352-0.070-0.141 0-0.27 0.027-0.387 0.082-0.117 0.047-0.219 0.117-0.305 0.211-0.094 0.094-0.168 0.199-0.223 0.316-0.047 0.117-0.078 0.242-0.094 0.375l-1.277-0.094c0.023-0.164 0.055-0.316 0.094-0.457s0.090-0.273 0.152-0.398c0.062-0.125 0.137-0.242 0.223-0.352s0.18-0.207 0.281-0.293c0.102-0.086 0.211-0.16 0.328-0.223 0.117-0.070 0.242-0.125 0.375-0.164 0.133-0.047 0.27-0.082 0.41-0.105 0.148-0.023 0.305-0.035 0.469-0.035zM5.965 8.027c0.109 0 0.211 0.020 0.305 0.059s0.18 0.094 0.258 0.164c0.078 0.078 0.137 0.164 0.176 0.258 0.047 0.086 0.070 0.18 0.070 0.281 0 0.109-0.020 0.211-0.059 0.305-0.039 0.086-0.098 0.168-0.176 0.246s-0.168 0.137-0.27 0.176c-0.094 0.039-0.195 0.059-0.305 0.059-0.047 0-0.098-0.004-0.152-0.012-0.047-0.016-0.098-0.031-0.152-0.047l-0.141-0.070c-0.039-0.031-0.074-0.062-0.105-0.094-0.039-0.031-0.074-0.066-0.105-0.105-0.031-0.047-0.055-0.090-0.070-0.129-0.023-0.047-0.043-0.094-0.059-0.141-0.008-0.055-0.012-0.109-0.012-0.164 0-0.109 0.020-0.207 0.059-0.293 0.039-0.094 0.098-0.18 0.176-0.258s0.164-0.137 0.258-0.176c0.094-0.039 0.195-0.059 0.305-0.059z"></path>
</svg>
