<svg width="12" height="12" viewBox="0 0 12 12" xmlns="http://www.w3.org/2000/svg">
<path fill-rule="evenodd" clip-rule="evenodd" d="M6 0C9.31371 0 12 2.68629 12 6C12 9.31371 9.31371 12 6 12C2.68629 12 0 9.31371 0 6C0 2.68629 2.68629 0 6 0ZM5.99512 8.11719C5.88585 8.11719 5.7841 8.1368 5.69043 8.17578C5.59677 8.21481 5.51068 8.27354 5.43262 8.35156C5.35456 8.42962 5.2959 8.51571 5.25684 8.60938C5.21779 8.69527 5.19826 8.79303 5.19824 8.90234C5.19824 8.95699 5.20216 9.01176 5.20996 9.06641C5.22558 9.11328 5.24512 9.16016 5.26855 9.20703C5.28418 9.24609 5.30762 9.28906 5.33887 9.33594C5.37011 9.37498 5.40529 9.41017 5.44434 9.44141C5.47557 9.47264 5.51077 9.50393 5.5498 9.53516L5.69043 9.60547C5.74504 9.62107 5.79596 9.63674 5.84277 9.65234C5.89737 9.66013 5.94831 9.66406 5.99512 9.66406C6.10439 9.66403 6.20613 9.6445 6.2998 9.60547C6.40125 9.56641 6.49129 9.50774 6.56934 9.42969C6.64735 9.35163 6.70609 9.26945 6.74512 9.18359C6.78412 9.08991 6.80371 8.98819 6.80371 8.87891C6.80369 8.7774 6.78025 8.68355 6.7334 8.59766C6.69435 8.50394 6.6357 8.41794 6.55762 8.33984C6.47954 8.26958 6.39348 8.21484 6.2998 8.17578C6.20613 8.13675 6.10439 8.11722 5.99512 8.11719ZM6.1123 2.33984C5.94835 2.33984 5.79191 2.35159 5.64355 2.375C5.50303 2.39842 5.36612 2.43365 5.2334 2.48047C5.10069 2.5195 4.97551 2.5743 4.8584 2.64453C4.7413 2.70698 4.63177 2.78133 4.53027 2.86719C4.42878 2.95307 4.33491 3.05087 4.24902 3.16016C4.16314 3.26946 4.08884 3.38681 4.02637 3.51172C3.9639 3.63666 3.91308 3.76961 3.87402 3.91016C3.83498 4.05073 3.80371 4.2032 3.78027 4.36719L5.05762 4.46094C5.07325 4.32819 5.10451 4.20307 5.15137 4.08594C5.20604 3.96884 5.28033 3.86322 5.37402 3.76953C5.45992 3.67589 5.56161 3.60543 5.67871 3.55859C5.79582 3.50399 5.92492 3.47656 6.06543 3.47656C6.19033 3.4766 6.3077 3.50003 6.41699 3.54688C6.52629 3.58594 6.62407 3.64458 6.70996 3.72266C6.78805 3.80857 6.84669 3.90629 6.88574 4.01562C6.9326 4.11715 6.95604 4.23444 6.95605 4.36719C6.95605 4.49991 6.93647 4.62115 6.89746 4.73047C6.85843 4.83195 6.79579 4.92584 6.70996 5.01172L5.93652 5.79688L5.7959 5.9375C5.75691 5.98428 5.72163 6.0274 5.69043 6.06641C5.65144 6.10539 5.61617 6.14461 5.58496 6.18359L5.51465 6.30078C5.49125 6.34758 5.47167 6.3946 5.45605 6.44141C5.44045 6.48822 5.42871 6.53522 5.4209 6.58203C5.41309 6.63666 5.40527 6.69538 5.39746 6.75781V7.50781H6.60449V6.95703C6.6123 6.90242 6.62013 6.85151 6.62793 6.80469C6.63574 6.75789 6.64748 6.71479 6.66309 6.67578C6.6787 6.63681 6.69829 6.6015 6.72168 6.57031C6.74507 6.53134 6.7686 6.49603 6.79199 6.46484C6.82318 6.42587 6.85455 6.39056 6.88574 6.35938C6.92472 6.32817 6.96395 6.29289 7.00293 6.25391C7.04193 6.21491 7.08505 6.17571 7.13184 6.13672C7.20208 6.06649 7.27253 5.99994 7.34277 5.9375C7.41301 5.86726 7.47956 5.7968 7.54199 5.72656C7.61221 5.66413 7.67486 5.60149 7.72949 5.53906L7.89355 5.32812C7.94037 5.25789 7.98344 5.18742 8.02246 5.11719C8.06148 5.03913 8.09671 4.95695 8.12793 4.87109C8.15914 4.78522 8.18263 4.69523 8.19824 4.60156C8.21385 4.50787 8.22168 4.40618 8.22168 4.29688C8.22167 4.13287 8.20605 3.98433 8.1748 3.85156C8.15137 3.71098 8.11229 3.57809 8.05762 3.45312C8.00294 3.33596 7.93651 3.22655 7.8584 3.125C7.7881 3.02346 7.70602 2.92967 7.6123 2.84375C7.51859 2.76566 7.41303 2.69529 7.2959 2.63281C7.18658 2.57034 7.06926 2.51561 6.94434 2.46875C6.81941 2.42971 6.68643 2.39843 6.5459 2.375C6.40536 2.35158 6.26065 2.33986 6.1123 2.33984Z"/>
</svg>
