<svg width="12" height="12" viewBox="0 0 12 12" fill="none" xmlns="http://www.w3.org/2000/svg">
<path d="M6.08203 2.25C6.23047 2.25 6.375 2.26172 6.51562 2.28516C6.65625 2.30859 6.78906 2.33984 6.91406 2.37891C7.03906 2.42578 7.15625 2.48047 7.26562 2.54297C7.38281 2.60547 7.48828 2.67578 7.58203 2.75391C7.67578 2.83984 7.75781 2.93359 7.82812 3.03516C7.90625 3.13672 7.97266 3.24609 8.02734 3.36328C8.08203 3.48828 8.12109 3.62109 8.14453 3.76172C8.17578 3.89453 8.19141 4.04297 8.19141 4.20703C8.19141 4.31641 8.18359 4.41797 8.16797 4.51172C8.15234 4.60547 8.12891 4.69531 8.09766 4.78125C8.06641 4.86719 8.03125 4.94922 7.99219 5.02734C7.95312 5.09766 7.91016 5.16797 7.86328 5.23828L7.69922 5.44922C7.64453 5.51172 7.58203 5.57422 7.51172 5.63672C7.44922 5.70703 7.38281 5.77734 7.3125 5.84766C7.24219 5.91016 7.17188 5.97656 7.10156 6.04688C7.05469 6.08594 7.01172 6.125 6.97266 6.16406C6.93359 6.20312 6.89453 6.23828 6.85547 6.26953C6.82422 6.30078 6.79297 6.33594 6.76172 6.375C6.73828 6.40625 6.71484 6.44141 6.69141 6.48047C6.66797 6.51172 6.64844 6.54688 6.63281 6.58594C6.61719 6.625 6.60547 6.66797 6.59766 6.71484C6.58984 6.76172 6.58203 6.8125 6.57422 6.86719V7.41797H5.36719V6.66797C5.375 6.60547 5.38281 6.54688 5.39062 6.49219C5.39844 6.44531 5.41016 6.39844 5.42578 6.35156C5.44141 6.30469 5.46094 6.25781 5.48438 6.21094L5.55469 6.09375C5.58594 6.05469 5.62109 6.01562 5.66016 5.97656C5.69141 5.9375 5.72656 5.89453 5.76562 5.84766L5.90625 5.70703L6.67969 4.92188C6.76562 4.83594 6.82812 4.74219 6.86719 4.64062C6.90625 4.53125 6.92578 4.41016 6.92578 4.27734C6.92578 4.14453 6.90234 4.02734 6.85547 3.92578C6.81641 3.81641 6.75781 3.71875 6.67969 3.63281C6.59375 3.55469 6.49609 3.49609 6.38672 3.45703C6.27734 3.41016 6.16016 3.38672 6.03516 3.38672C5.89453 3.38672 5.76562 3.41406 5.64844 3.46875C5.53125 3.51562 5.42969 3.58594 5.34375 3.67969C5.25 3.77344 5.17578 3.87891 5.12109 3.99609C5.07422 4.11328 5.04297 4.23828 5.02734 4.37109L3.75 4.27734C3.77344 4.11328 3.80469 3.96094 3.84375 3.82031C3.88281 3.67969 3.93359 3.54688 3.99609 3.42188C4.05859 3.29688 4.13281 3.17969 4.21875 3.07031C4.30469 2.96094 4.39844 2.86328 4.5 2.77734C4.60156 2.69141 4.71094 2.61719 4.82812 2.55469C4.94531 2.48438 5.07031 2.42969 5.20312 2.39062C5.33594 2.34375 5.47266 2.30859 5.61328 2.28516C5.76172 2.26172 5.91797 2.25 6.08203 2.25Z" fill="#4C505B"/>
<path d="M5.96484 8.02734C6.07422 8.02734 6.17578 8.04688 6.26953 8.08594C6.36328 8.125 6.44922 8.17969 6.52734 8.25C6.60547 8.32812 6.66406 8.41406 6.70312 8.50781C6.75 8.59375 6.77344 8.6875 6.77344 8.78906C6.77344 8.89844 6.75391 9 6.71484 9.09375C6.67578 9.17969 6.61719 9.26172 6.53906 9.33984C6.46094 9.41797 6.37109 9.47656 6.26953 9.51562C6.17578 9.55469 6.07422 9.57422 5.96484 9.57422C5.91797 9.57422 5.86719 9.57031 5.8125 9.5625C5.76562 9.54688 5.71484 9.53125 5.66016 9.51562L5.51953 9.44531C5.48047 9.41406 5.44531 9.38281 5.41406 9.35156C5.375 9.32031 5.33984 9.28516 5.30859 9.24609C5.27734 9.19922 5.25391 9.15625 5.23828 9.11719C5.21484 9.07031 5.19531 9.02344 5.17969 8.97656C5.17188 8.92188 5.16797 8.86719 5.16797 8.8125C5.16797 8.70312 5.1875 8.60547 5.22656 8.51953C5.26562 8.42578 5.32422 8.33984 5.40234 8.26172C5.48047 8.18359 5.56641 8.125 5.66016 8.08594C5.75391 8.04688 5.85547 8.02734 5.96484 8.02734Z" fill="#4C505B"/>
<path fill-rule="evenodd" clip-rule="evenodd" d="M12 12V0H0V12H12ZM0.996094 1.00781H11.0039V11.0039H0.996094V1.00781Z" fill="#4C505B"/>
</svg>
