<svg width="12" height="12" viewBox="0 0 12 12" fill="none" xmlns="http://www.w3.org/2000/svg">
<path fill-rule="evenodd" clip-rule="evenodd" d="M10.5763 0.5L11.6369 1.56066L9.76763 3.42996C10.7981 4.24182 11.5583 5.22297 12 5.87498C11.25 7.24998 9 9.99998 6 9.99998C5.18169 9.99998 4.41919 9.79538 3.72771 9.46988L1.56066 11.6369L0.5 10.5763L2.41553 8.66074C1.25051 7.76515 0.405746 6.61885 0 5.87498C0.875 4.58332 3 1.99998 6 1.99998C6.90817 1.99998 7.73616 2.23673 8.47356 2.60271L10.5763 0.5ZM7.42733 3.64894C7.01125 3.39579 6.52265 3.24998 6 3.24998C4.48122 3.24998 3.25 4.4812 3.25 5.99998C3.25 6.52264 3.3958 7.01123 3.64895 7.42732L4.38977 6.6865C4.29978 6.47571 4.24998 6.24366 4.24998 5.99998C4.24998 5.03349 5.03348 4.24998 5.99998 4.24998C6.24366 4.24998 6.4757 4.29979 6.68649 4.38978L7.42733 3.64894ZM4.74832 8.44927C5.12376 8.64152 5.54922 8.74998 6 8.74998C7.51878 8.74998 8.75 7.51877 8.75 5.99998C8.75 5.5492 8.64154 5.12375 8.44929 4.74831L7.68206 5.51554C7.72628 5.66938 7.74998 5.83191 7.74998 5.99998C7.74998 6.96648 6.96648 7.74998 5.99998 7.74998C5.83191 7.74998 5.66937 7.72629 5.51553 7.68206L4.74832 8.44927Z" fill="#4C505B"/>
</svg>
