<svg width="12" height="12" viewBox="0 0 12 12" xmlns="http://www.w3.org/2000/svg">
<path d="M0.999878 1.71606L10.3069 11L10.9999 10.2667L1.71566 1L0.999878 1.71606Z"/>
<path d="M-0.00012207 5.875C0.366392 5.33396 0.952224 4.56628 1.72981 3.85677L2.43866 4.56386C1.94092 5.01304 1.52423 5.49514 1.2001 5.91905C1.56806 6.46025 2.11353 7.11592 2.79631 7.6849C3.72054 8.45509 4.81361 9 5.99988 9C6.27282 9 6.54082 8.97115 6.80297 8.91736L7.61945 9.73182C7.10993 9.90125 6.56837 10 5.99988 10C2.99988 10 0.749878 7.25 -0.00012207 5.875Z"/>
<path d="M3.74988 6C3.74988 5.95813 3.75102 5.91653 3.75328 5.87522L6.13023 8.24629C6.0871 8.24875 6.04363 8.25 5.99988 8.25C4.75724 8.25 3.74988 7.24264 3.74988 6Z"/>
<path d="M5.88898 3.75269L8.24739 6.10666C8.24904 6.07132 8.24988 6.03576 8.24988 6C8.24988 4.75736 7.24252 3.75 5.99988 3.75C5.96269 3.75 5.92572 3.7509 5.88898 3.75269Z"/>
<path d="M10.7997 5.91905C10.4934 6.36945 10.0643 6.89914 9.53531 7.39216L10.2435 8.099C11.0695 7.32308 11.6752 6.47021 11.9999 5.875C11.1249 4.58333 8.99988 2 5.99988 2C5.42972 2 4.89117 2.09331 4.38679 2.25333L5.20981 3.07479C5.4662 3.02612 5.72966 3 5.99988 3C7.20101 3 8.26877 3.516 9.17451 4.23595C9.84566 4.76943 10.3948 5.38963 10.7997 5.91905Z"/>
</svg>
