<svg width="12" height="12" viewBox="0 0 12 12" xmlns="http://www.w3.org/2000/svg">
<path d="M0.999878 1.71606L10.3069 11L10.9999 10.2667L1.71566 1L0.999878 1.71606Z"/>
<path d="M-0.00012207 5.875C0.366392 5.33396 0.952224 4.56628 1.72981 3.85677L3.30867 5.43171C3.27014 5.61508 3.24988 5.80517 3.24988 6C3.24988 7.51878 4.48109 8.75 5.99988 8.75C6.19707 8.75 6.38942 8.72924 6.57485 8.6898L7.61945 9.73182C7.10993 9.90125 6.56837 10 5.99988 10C2.99988 10 0.749878 7.25 -0.00012207 5.875Z"/>
<path d="M5.58251 7.69992C4.95268 7.54581 4.45662 7.05081 4.30099 6.42158L5.58251 7.69992Z"/>
<path d="M6.44425 4.30692L7.69212 5.55244C7.53178 4.94456 7.05259 4.46615 6.44425 4.30692Z"/>
<path d="M8.74988 6C8.74988 6.18932 8.73075 6.37418 8.69431 6.55274L10.2435 8.099C11.0695 7.32308 11.6752 6.47021 11.9999 5.875C11.1249 4.58333 8.99988 2 5.99988 2C5.42972 2 4.89117 2.09331 4.38679 2.25333L5.44206 3.30661C5.62219 3.2695 5.80876 3.25 5.99988 3.25C7.51866 3.25 8.74988 4.48122 8.74988 6Z"/>
</svg>
