<!-- Generated by IcoMoon.io -->
<svg version="1.1" xmlns="http://www.w3.org/2000/svg" width="12" height="12" viewBox="0 0 12 12">
<title>hidden</title>
<path d="M10.576 0.5l1.061 1.061-1.869 1.869c1.030 0.812 1.791 1.793 2.232 2.445-0.75 1.375-3 4.125-6 4.125-0.818 0-1.581-0.205-2.272-0.53l-2.167 2.167-1.061-1.061 1.916-1.916c-1.165-0.896-2.010-2.042-2.416-2.786 0.875-1.292 3-3.875 6-3.875 0.908 0 1.736 0.237 2.474 0.603l2.103-2.103zM7.427 3.649c-0.416-0.253-0.905-0.399-1.427-0.399-1.519 0-2.75 1.231-2.75 2.75 0 0.523 0.146 1.011 0.399 1.427l0.741-0.741c-0.090-0.211-0.14-0.443-0.14-0.687 0-0.966 0.784-1.75 1.75-1.75 0.244 0 0.476 0.050 0.687 0.14l0.741-0.741zM4.748 8.449c0.375 0.192 0.801 0.301 1.252 0.301 1.519 0 2.75-1.231 2.75-2.75 0-0.451-0.108-0.876-0.301-1.252l-0.767 0.767c0.044 0.154 0.068 0.316 0.068 0.484 0 0.967-0.784 1.75-1.75 1.75-0.168 0-0.331-0.024-0.484-0.068l-0.767 0.767z"></path>
</svg>
