<svg width="12" height="12" viewBox="0 0 12 12" xmlns="http://www.w3.org/2000/svg">
<path d="M1 1.71606L10.307 11L11 10.2667L1.71579 1L1 1.71606Z"/>
<path d="M0 5.875C0.366514 5.33396 0.952346 4.56628 1.72994 3.85677L2.43878 4.56386C1.94104 5.01304 1.52435 5.49514 1.20022 5.91905C1.56819 6.46025 2.11365 7.11592 2.79643 7.6849C3.72066 8.45509 4.81373 9 6 9C6.27294 9 6.54094 8.97115 6.80309 8.91736L7.61958 9.73182C7.11005 9.90125 6.56849 10 6 10C3 10 0.75 7.25 0 5.875Z"/>
<path d="M3.75 6C3.75 5.95813 3.75114 5.91653 3.7534 5.87522L6.13036 8.24629C6.08722 8.24875 6.04376 8.25 6 8.25C4.75736 8.25 3.75 7.24264 3.75 6Z"/>
<path d="M5.8891 3.75269L8.24752 6.10666C8.24917 6.07132 8.25 6.03576 8.25 6C8.25 4.75736 7.24264 3.75 6 3.75C5.96282 3.75 5.92584 3.7509 5.8891 3.75269Z"/>
<path d="M10.7998 5.91905C10.4935 6.36945 10.0644 6.89914 9.53543 7.39216L10.2436 8.099C11.0696 7.32308 11.6753 6.47021 12 5.875C11.125 4.58333 9 2 6 2C5.42984 2 4.89129 2.09331 4.38691 2.25333L5.20993 3.07479C5.46632 3.02612 5.72978 3 6 3C7.20113 3 8.26889 3.516 9.17463 4.23595C9.84578 4.76943 10.395 5.38963 10.7998 5.91905Z"/>
</svg>
