<svg width="12" height="12" viewBox="0 0 12 12" xmlns="http://www.w3.org/2000/svg">
<path d="M1 1.71606L10.307 11L11 10.2667L1.71579 1L1 1.71606Z"/>
<path d="M0 5.875C0.366514 5.33396 0.952346 4.56628 1.72994 3.85677L3.30879 5.43171C3.27026 5.61508 3.25 5.80517 3.25 6C3.25 7.51878 4.48122 8.75 6 8.75C6.19719 8.75 6.38954 8.72924 6.57497 8.6898L7.61958 9.73182C7.11005 9.90125 6.56849 10 6 10C3 10 0.75 7.25 0 5.875Z"/>
<path d="M5.58263 7.69992C4.95281 7.54581 4.45674 7.05081 4.30111 6.42158L5.58263 7.69992Z"/>
<path d="M6.44438 4.30692L7.69225 5.55244C7.5319 4.94456 7.05271 4.46615 6.44438 4.30692Z"/>
<path d="M8.75 6C8.75 6.18932 8.73087 6.37418 8.69443 6.55274L10.2436 8.099C11.0696 7.32308 11.6753 6.47021 12 5.875C11.125 4.58333 9 2 6 2C5.42984 2 4.89129 2.09331 4.38691 2.25333L5.44218 3.30661C5.62231 3.2695 5.80888 3.25 6 3.25C7.51878 3.25 8.75 4.48122 8.75 6Z"/>
</svg>
