<svg width="12" height="12" viewBox="0 0 12 12" xmlns="http://www.w3.org/2000/svg">
<path d="M7.29407 10.8311C9.9614 10.1164 11.5443 7.37472 10.8296 4.70739C10.1149 2.04006 7.37321 0.457151 4.70588 1.17186C4.01758 1.35629 3.40262 1.67508 2.88062 2.09207C2.60406 2.313 2.35338 2.56167 2.1317 2.8328C1.95979 3.04306 1.80536 3.26678 1.66986 3.50147L4 3.50146V4.50146H0L9.53674e-07 0.501464L1 0.501465L1 2.68471C1.11089 2.51742 1.2302 2.35556 1.35753 2.19983C1.62338 1.87467 1.92424 1.57616 2.25647 1.31077C2.88418 0.809327 3.62306 0.426724 4.44706 0.205934C7.64786 -0.651717 10.9379 1.24778 11.7955 4.44858C12.6532 7.64937 10.7537 10.9394 7.55289 11.797L7.29407 10.8311Z"/>
<path d="M6.00146 3.00146V6.00146H3.00146V7.00146H7.00146V3.00146H6.00146Z"/>
</svg>
