<svg width="12" height="12" viewBox="0 0 12 12" xmlns="http://www.w3.org/2000/svg">
<path fill-rule="evenodd" clip-rule="evenodd" d="M4.89844 7.02832C5.40749 5.33375 7.35969 4.32819 9.25879 4.78223C11.1578 5.23635 12.285 6.9782 11.7764 8.67285L8.89453 7.9834L8.14062 11H12V12H0V11H7.10938L7.9209 7.75098L4.89844 7.02832Z"/>
<path d="M4.25 7.25H3.25V5.75H4.25V7.25Z"/>
<path d="M2.68945 5.51758L1.62891 6.57812L0.921875 5.87109L1.98242 4.81055L2.68945 5.51758Z"/>
<path fill-rule="evenodd" clip-rule="evenodd" d="M3.75 2.25C4.57843 2.25 5.25 2.92157 5.25 3.75C5.24998 4.57841 4.57842 5.25 3.75 5.25C2.92158 5.25 2.25002 4.57841 2.25 3.75C2.25 2.92157 2.92157 2.25 3.75 2.25Z"/>
<path d="M1.75 4.25H0.25V3.25H1.75V4.25Z"/>
<path d="M7.25 4.25H5.75V3.25H7.25V4.25Z"/>
<path d="M2.68945 1.98242L1.98242 2.68945L0.921875 1.62891L1.62891 0.920898L2.68945 1.98242Z"/>
<path d="M6.57812 1.62891L5.51758 2.68945L4.81055 1.98242L5.87109 0.921875L6.57812 1.62891Z"/>
<path d="M4.25 1.75H3.25V0.25H4.25V1.75Z"/>
</svg>
