<svg width="12" height="12" viewBox="0 0 12 12" xmlns="http://www.w3.org/2000/svg">
<path d="M9 3.5C9.65726 3.50245 10.3784 3.6097 11.0049 4.04883C11.6355 4.48317 12.0055 5.2558 12 6.00293C12.0061 6.74946 11.6343 7.52323 11.0029 7.95508C10.376 8.39184 9.65625 8.49746 9 8.5C7.63031 8.34836 6.73666 7.61074 5.99902 6.81055C5.29716 7.56487 4.4546 8.26955 3.20117 8.49316C3.13502 8.4979 3.06761 8.5 3 8.5C2.23219 8.49885 1.3312 8.34213 0.673828 7.68066C0.230798 7.23358 -0.000152867 6.61288 7.59128e-08 6.00293C0.000150642 5.39294 0.22971 4.77371 0.670898 4.3252C1.32673 3.66004 2.23037 3.50088 3 3.5C4.36806 3.64034 5.26498 4.37305 6.00488 5.17285C6.74036 4.37604 7.63252 3.64626 9 3.5ZM9 4.5C8.06041 4.49123 7.42099 5.18064 6.72266 5.99316C7.4207 6.81411 8.0606 7.51587 9 7.5C10.0974 7.53757 11.0184 6.96578 11 6.00293C11.0177 5.03825 10.0981 4.46205 9 4.5ZM1 6.00293C1.00012 6.36775 1.13907 6.73139 1.38672 6.97949C1.74548 7.35122 2.36175 7.50312 3 7.5C3.04372 7.5 3.08664 7.49814 3.12891 7.49512C4.01067 7.4444 4.62436 6.77486 5.28613 5.99707C4.58896 5.17781 3.94875 4.47963 3 4.5C2.3607 4.49685 1.74422 4.65027 1.38574 5.02441C1.13887 5.27363 1.0002 5.6382 1 6.00293Z"/>
</svg>
