<svg width="12" height="12" viewBox="0 0 12 12" fill="none" xmlns="http://www.w3.org/2000/svg">
<path fill-rule="evenodd" clip-rule="evenodd" d="M1 6H2.5C2.77614 6 3 6.22386 3 6.5C3 6.77614 2.77614 7 2.5 7H1V11H5V9.5C5 9.22386 5.22386 9 5.5 9C5.77614 9 6 9.22386 6 9.5V11H10V8H10.5C11.3284 8 12 7.32843 12 6.5C12 5.67157 11.3284 5 10.5 5H10V2L7 2L7 1.5C7 0.671573 6.32843 0 5.5 0C4.67157 0 4 0.671573 4 1.5V2L1 2V6ZM6 1.5C6 1.22386 5.77614 1 5.5 1C5.22386 1 5 1.22386 5 1.5V3L2 3L2 5L2.5 5C3.32843 5 4 5.67157 4 6.5C4 7.32843 3.32843 8 2.5 8H2V10H4V9.5C4 8.67157 4.67157 8 5.5 8C6.32843 8 7 8.67157 7 9.5V10H9V7H10.5C10.7761 7 11 6.77614 11 6.5C11 6.22386 10.7761 6 10.5 6H9V3H6V1.5Z" fill="#4C505B"/>
</svg>
