<svg width="12" height="12" viewBox="0 0 12 12" >
<path d="M9 7H8V5H9C10.1045 5 11 4.1045 11 3C11 1.8955 10.1045 1 9 1C7.89538 1 7 1.8955 7 3V4H5V3C5 1.8955 4.1045 1 3 1C1.8955 1 1 1.8955 1 3C1 4.1045 1.8955 5 3 5H4V7H3C1.8955 7 1 7.8955 1 9C1 10.1045 1.8955 11 3 11C4.10462 11 5 10.1045 5 9V8H7V8.9975L6.99988 9C6.99988 10.1045 7.89538 11 8.99988 11C10.1044 11 10.9999 10.1045 10.9999 9C10.9999 7.8955 10.1045 7.00025 9 7ZM9 2C9.55225 2 10 2.44775 10 3C10 3.55225 9.55225 4 9 4H8V3C8 2.44775 8.44775 2 9 2ZM2 3C2 2.44775 2.44775 2 3 2C3.55225 2 4 2.44775 4 3V4H3C2.44775 4 2 3.55212 2 3ZM3 10C2.44775 10 2 9.55225 2 9C2 8.44775 2.44775 8 3 8H4V9C4 9.55225 3.55225 10 3 10ZM5 7V5H7V7H5ZM9 10C8.44775 10 8 9.55225 8 9V8H8.99988C9.55212 8 9.99988 8.44775 9.99988 9C9.99988 9.55225 9.55225 10 9 10Z" />
</svg>
