<svg width="12" height="12" viewBox="0 0 12 12" fill="none" xmlns="http://www.w3.org/2000/svg">
<path d="M4.5 8C4.5 8.55228 4.05228 9 3.5 9C2.94772 9 2.5 8.55228 2.5 8C2.5 7.44772 2.94772 7 3.5 7C4.05228 7 4.5 7.44772 4.5 8Z" fill="#4C505B"/>
<path fill-rule="evenodd" clip-rule="evenodd" d="M7.5 6H10V4H12V0H9L4.3867 4.6133C4.10351 4.53936 3.80635 4.5 3.5 4.5C1.567 4.5 0 6.067 0 8C0 9.933 1.567 11.5 3.5 11.5C5.433 11.5 7 9.933 7 8C7 7.55408 6.91661 7.12764 6.76457 6.73543L7.5 6ZM9.4 1L4.64558 5.77733C4.30239 5.60009 3.91288 5.5 3.5 5.5C2.11929 5.5 1 6.61929 1 8C1 9.38071 2.11929 10.5 3.5 10.5C4.88071 10.5 6 9.38071 6 8C6 7.44626 5.81997 6.93457 5.51525 6.52027C5.51525 6.52027 6.6423 5.37188 7 5H9V3H11V1H9.4Z" fill="#4C505B"/>
</svg>
