<svg width="12" height="12" viewBox="0 0 12 12" fill="none" xmlns="http://www.w3.org/2000/svg">
<path fill-rule="evenodd" clip-rule="evenodd" d="M6 8C7.10457 8 8 7.10457 8 6C8 4.89543 7.10457 4 6 4C4.89543 4 4 4.89543 4 6C4 7.10457 4.89543 8 6 8ZM6 9C7.65685 9 9 7.65685 9 6C9 4.34315 7.65685 3 6 3C4.34315 3 3 4.34315 3 6C3 7.65685 4.34315 9 6 9Z" fill="#4C505B"/>
<path d="M0 5.5H2V6.5H0V5.5Z" fill="#4C505B"/>
<path d="M2.11091 1.40381L3.52513 2.81802L2.81802 3.52513L1.40381 2.11091L2.11091 1.40381Z" fill="#4C505B"/>
<path d="M1.40381 9.88909L2.81802 8.47487L3.52513 9.18198L2.11091 10.5962L1.40381 9.88909Z" fill="#4C505B"/>
<path d="M5.5 12V10H6.5V12H5.5Z" fill="#4C505B"/>
<path d="M10 5.5H12V6.5H10V5.5Z" fill="#4C505B"/>
<path d="M9.18198 8.47487L10.5962 9.88909L9.88909 10.5962L8.47487 9.18198L9.18198 8.47487Z" fill="#4C505B"/>
<path d="M8.47487 2.81802L9.88909 1.40381L10.5962 2.11091L9.18198 3.52513L8.47487 2.81802Z" fill="#4C505B"/>
<path d="M5.5 2V4.37114e-08L6.5 0V2H5.5Z" fill="#4C505B"/>
</svg>
