<svg width="12" height="12" viewBox="0 0 12 12" xmlns="http://www.w3.org/2000/svg">
<path d="M7.30859 11.4551H4.69336V10.4551H7.30859V11.4551Z"/>
<path d="M6 3.70508C6.27613 3.7051 6.5 3.92895 6.5 4.20508C6.5 4.48121 6.27613 4.70506 6 4.70508C5.58579 4.70508 5.25 5.04086 5.25 5.45508C5.25 5.73121 5.02613 5.95506 4.75 5.95508C4.47386 5.95508 4.25 5.73122 4.25 5.45508C4.25 4.48858 5.0335 3.70508 6 3.70508Z"/>
<path fill-rule="evenodd" clip-rule="evenodd" d="M6.25684 2.21582C6.85302 2.26502 7.42488 2.48426 7.90234 2.85059C8.44805 3.26936 8.84052 3.85705 9.01855 4.52148C9.17423 5.10268 9.1582 5.71465 8.97559 6.28418L8.88672 6.52637C8.66887 7.05214 8.34421 7.58501 8.11035 8.02832C7.8613 8.50046 7.68101 8.92592 7.63672 9.36328L7.62207 9.50586L7.57715 9.95508H4.42285L4.37793 9.50586L4.36328 9.36328C4.319 8.92594 4.13868 8.50044 3.88965 8.02832C3.71416 7.69565 3.48724 7.31255 3.29297 6.91992L3.11328 6.52637C2.85005 5.89088 2.80346 5.1859 2.98145 4.52148C3.1595 3.85702 3.55191 3.26936 4.09766 2.85059C4.64337 2.43194 5.31219 2.20508 6 2.20508L6.25684 2.21582ZM5.8252 3.21191C5.41979 3.24537 5.03073 3.39543 4.70605 3.64453C4.33514 3.92927 4.0683 4.32859 3.94727 4.78027C3.82626 5.23206 3.85812 5.71144 4.03711 6.14355L4.19531 6.48926C4.36477 6.83052 4.56553 7.16555 4.77441 7.56152C4.99453 7.9788 5.20726 8.44294 5.30957 8.95508H6.69043C6.79275 8.44292 7.00546 7.97881 7.22559 7.56152C7.50407 7.03362 7.76794 6.61409 7.96289 6.14355L8.02344 5.97949C8.14777 5.59208 8.15862 5.17565 8.05273 4.78027C7.93172 4.32862 7.66481 3.92928 7.29395 3.64453C6.92288 3.3598 6.46772 3.20512 6 3.20508L5.8252 3.21191Z"/>
<path d="M2.2998 5.75H0.799805V4.75H2.2998V5.75Z"/>
<path d="M11.2002 5.75H9.7002V4.75H11.2002V5.75Z"/>
<path d="M3.70703 2.25L3 2.95703L1.93945 1.89648L2.64648 1.18945L3.70703 2.25Z"/>
<path d="M10.0605 1.89648L9 2.95703L8.29297 2.25L9.35352 1.18945L10.0605 1.89648Z"/>
<path d="M6.5 1.5498H5.5V0.0498047H6.5V1.5498Z"/>
</svg>
