<svg width="12" height="12" viewBox="0 0 12 12" xmlns="http://www.w3.org/2000/svg">
<path d="M7.30859 11.4551H4.69336V10.4551H7.30859V11.4551Z"/>
<path fill-rule="evenodd" clip-rule="evenodd" d="M6.25684 2.21582C6.85295 2.26505 7.42492 2.4843 7.90234 2.85059C8.44799 3.26935 8.84053 3.8571 9.01855 4.52148C9.17422 5.10265 9.15818 5.71468 8.97559 6.28418L8.88672 6.52637C8.66888 7.05211 8.34421 7.58502 8.11035 8.02832C7.8613 8.50045 7.68101 8.92593 7.63672 9.36328L7.62207 9.50586L7.57715 9.95508H4.42285L4.37793 9.50586L4.36328 9.36328C4.319 8.92596 4.13866 8.50041 3.88965 8.02832C3.71417 7.69567 3.48723 7.31252 3.29297 6.91992L3.11328 6.52637C2.85005 5.89088 2.80346 5.1859 2.98145 4.52148C3.1595 3.85704 3.55192 3.26935 4.09766 2.85059C4.64335 2.43199 5.31224 2.20508 6 2.20508L6.25684 2.21582ZM6 3.70508C5.0335 3.70508 4.25 4.48858 4.25 5.45508C4.25 5.73122 4.47386 5.95508 4.75 5.95508C5.02604 5.95496 5.25 5.73115 5.25 5.45508C5.25 5.04086 5.58579 4.70508 6 4.70508C6.27604 4.70496 6.5 4.48115 6.5 4.20508C6.5 3.92901 6.27604 3.7052 6 3.70508Z"/>
<path d="M2.2998 5.75H0.799805V4.75H2.2998V5.75Z"/>
<path d="M11.2002 5.75H9.7002V4.75H11.2002V5.75Z"/>
<path d="M3.70703 2.25L3 2.95703L1.93945 1.89648L2.64648 1.18945L3.70703 2.25Z"/>
<path d="M10.0605 1.89648L9 2.95703L8.29297 2.25L9.35352 1.18945L10.0605 1.89648Z"/>
<path d="M6.5 1.5498H5.5V0.0498047H6.5V1.5498Z"/>
</svg>
