<svg width="12" height="12" viewBox="0 0 12 12" xmlns="http://www.w3.org/2000/svg">
<path d="M7.84169 1.5098C7.49513 1.54133 7.15494 1.62669 6.83485 1.76273C6.68529 1.81887 6.47737 1.93337 6.30653 2.03324L6.00184 2.21878C5.99343 2.21342 5.46173 1.87414 5.16493 1.76273C4.84484 1.62669 4.50464 1.54133 4.15809 1.5098C3.7247 1.4753 3.28895 1.53211 2.87977 1.67679C2.09586 1.93568 1.47171 2.53311 1.18153 3.30179C0.998012 3.79952 0.952817 4.33737 1.04969 4.85843C1.12162 5.28377 1.26746 5.6934 1.48036 6.06937C1.70333 6.4745 1.97299 6.85251 2.28309 7.19632C2.58844 7.5575 2.91179 7.90355 3.25184 8.23246L3.26747 8.24808L3.7118 8.6807C3.90098 8.85971 4.13088 9.06978 4.39833 9.29984L4.88172 9.69925C5.02623 9.81556 5.15182 9.91522 5.25282 9.99515L5.82118 10.4278L5.90614 10.4746C5.93624 10.4863 5.96768 10.4946 5.99989 10.4981C6.06434 10.491 6.12579 10.4664 6.1786 10.4278L6.74696 9.99515C6.84796 9.91522 6.97355 9.81556 7.11805 9.69925L7.60145 9.29984C7.86889 9.06978 8.0988 8.85971 8.28797 8.6807L8.73231 8.24808L8.74794 8.23246C9.08799 7.90355 9.41133 7.5575 9.71669 7.19632C10.0268 6.85251 10.2965 6.4745 10.5194 6.06937C10.7323 5.6934 10.8782 5.28377 10.9501 4.85843C11.0349 4.40245 11.0111 3.9337 10.8807 3.49027L10.8182 3.30179C10.5462 2.58125 9.98091 2.0113 9.26551 1.72953L9.12001 1.67679C8.71083 1.53211 8.27507 1.4753 7.84169 1.5098ZM4.07411 2.50589C4.25386 2.52276 4.43126 2.56068 4.60243 2.6182L4.77333 2.68363L4.79286 2.69144L4.81337 2.69925C4.87535 2.72251 5.01932 2.79644 5.19325 2.8975C5.26987 2.94201 5.33871 2.98398 5.38856 3.01468C5.41335 3.02995 5.43309 3.04259 5.44618 3.05082C5.45271 3.05492 5.45782 3.0577 5.46083 3.0596L5.46376 3.06156L6.0038 3.40628L6.54286 3.0596L6.54579 3.05765C6.54875 3.05576 6.55398 3.05295 6.56044 3.04886C6.57337 3.04068 6.59257 3.02793 6.61708 3.01273C6.66647 2.98209 6.73538 2.94097 6.81141 2.89652C6.89773 2.84606 6.97626 2.80236 7.0409 2.76859L7.18641 2.69925L7.20692 2.69144L7.22645 2.68363C7.44951 2.58883 7.6859 2.52838 7.92665 2.50589C8.21847 2.48345 8.51188 2.52286 8.787 2.62015L8.79676 2.62308L8.80653 2.62699C9.30279 2.79092 9.6957 3.16692 9.87977 3.64847L9.92079 3.7725C9.99455 4.02343 10.0166 4.28626 9.98622 4.54593L9.96669 4.67582L9.96571 4.68363L9.96376 4.69144C9.92438 4.92439 9.85497 5.15122 9.75672 5.36625L9.6493 5.57718L9.64344 5.58695L9.49696 5.83597C9.39451 5.999 9.28278 6.15624 9.162 6.30667L8.9745 6.5264L8.96376 6.5391L8.95301 6.55082C8.74037 6.80234 8.51835 7.04614 8.287 7.28128L8.05262 7.51371L8.04286 7.5225L8.02723 7.53812L7.60047 7.95414C7.42118 8.12381 7.20514 8.32211 6.95301 8.5391C6.62295 8.82083 6.34015 9.04254 6.13465 9.20511C6.0887 9.24078 6.04247 9.27381 5.99989 9.30667L5.8661 9.20511C5.76457 9.12479 5.64431 9.03008 5.50868 8.92093L5.04774 8.5391C4.54262 8.10442 4.18098 7.74613 3.97254 7.5391L3.94715 7.51371L3.71278 7.28128C3.48143 7.04614 3.25941 6.80234 3.04676 6.55082L3.03602 6.5391L3.02528 6.5264C2.76653 6.23949 2.5419 5.92412 2.35633 5.58695L2.35048 5.57718L2.24305 5.36625C2.1448 5.15122 2.0754 4.9244 2.03602 4.69144L2.03407 4.68363L2.03309 4.67582C1.96913 4.33179 1.99894 3.977 2.12001 3.64847C2.30413 3.16707 2.6971 2.79088 3.19325 2.62699L3.20301 2.62308L3.21278 2.62015C3.4882 2.52275 3.78197 2.48329 4.07411 2.50589Z"/>
</svg>
