<svg width="12" height="12" viewBox="0 0 12 12" xmlns="http://www.w3.org/2000/svg">
<path d="M6.83535 1.76298C6.53623 1.87519 6.00209 2.21876 6.00209 2.21876C6.00209 2.21876 5.46377 1.87519 5.16465 1.76298C4.84456 1.62695 4.50474 1.5413 4.15818 1.50978C3.72473 1.47527 3.28903 1.53237 2.8798 1.67709C2.0958 1.93601 1.47184 2.53328 1.18171 3.30209C0.998192 3.79982 0.95275 4.33702 1.04963 4.85808C1.12154 5.28357 1.26735 5.69342 1.48033 6.06951C1.7033 6.47465 1.9727 6.85272 2.28281 7.19654C2.58817 7.55773 2.91176 7.90329 3.25183 8.23221L3.2678 8.24807C3.48074 8.45958 3.86346 8.83973 4.39813 9.29966C4.74943 9.59954 5.0508 9.83487 5.25279 9.99474C5.47925 10.1705 5.67126 10.3175 5.82082 10.4282C5.87365 10.4668 5.9355 10.4908 6 10.4978C6.0645 10.4908 6.12635 10.4668 6.17918 10.4282C6.32874 10.3175 6.52075 10.1705 6.74721 9.99474C6.9492 9.83487 7.25057 9.59954 7.60187 9.29966C8.13653 8.83973 8.51925 8.45959 8.7322 8.24807L8.74817 8.23221C9.08824 7.90329 9.41183 7.55773 9.71719 7.19654C10.0273 6.85272 10.2967 6.47465 10.5197 6.06951C10.7326 5.69342 10.8785 5.28357 10.9504 4.85808C11.0472 4.33702 11.0018 3.79982 10.8183 3.30209C10.5282 2.53328 9.9042 1.93601 9.1202 1.67709C8.71097 1.53237 8.27527 1.47527 7.84182 1.50978C7.49526 1.5413 7.15544 1.62695 6.83535 1.76298Z"/>
</svg>
