<svg width="12" height="12" viewBox="0 0 12 12" xmlns="http://www.w3.org/2000/svg">
<path d="M7.84181 1.5098C7.49525 1.54133 7.15506 1.62669 6.83497 1.76273C6.68542 1.81887 6.47749 1.93337 6.30665 2.03324L6.00196 2.21878C5.99355 2.21342 5.46185 1.87414 5.16505 1.76273C4.84496 1.62669 4.50477 1.54133 4.15821 1.5098C3.72483 1.4753 3.28907 1.53211 2.87989 1.67679C2.09598 1.93568 1.47183 2.53311 1.18165 3.30179C0.998134 3.79952 0.952939 4.33737 1.04982 4.85843C1.12174 5.28377 1.26758 5.6934 1.48048 6.06937C1.70345 6.4745 1.97311 6.85251 2.28321 7.19632C2.58857 7.5575 2.91191 7.90355 3.25196 8.23246L3.26759 8.24808L3.71192 8.6807C3.9011 8.85971 4.13101 9.06978 4.39845 9.29984L4.88185 9.69925C5.02635 9.81556 5.15194 9.91522 5.25294 9.99515L5.8213 10.4278L5.90626 10.4746C5.93636 10.4863 5.9678 10.4946 6.00001 10.4981C6.06447 10.491 6.12591 10.4664 6.17872 10.4278L6.74708 9.99515C6.84808 9.91522 6.97367 9.81556 7.11818 9.69925L7.60157 9.29984C7.86902 9.06978 8.09892 8.85971 8.2881 8.6807L8.73243 8.24808L8.74806 8.23246C9.08811 7.90355 9.41146 7.5575 9.71681 7.19632C10.0269 6.85251 10.2966 6.4745 10.5195 6.06937C10.7324 5.6934 10.8783 5.28377 10.9502 4.85843C11.035 4.40245 11.0112 3.9337 10.8809 3.49027L10.8184 3.30179C10.5464 2.58125 9.98103 2.0113 9.26564 1.72953L9.12013 1.67679C8.71095 1.53211 8.2752 1.4753 7.84181 1.5098ZM4.07423 2.50589C4.25398 2.52276 4.43138 2.56068 4.60255 2.6182L4.77345 2.68363L4.79298 2.69144L4.81349 2.69925C4.87547 2.72251 5.01944 2.79644 5.19337 2.8975C5.26999 2.94201 5.33883 2.98398 5.38868 3.01468C5.41347 3.02995 5.43321 3.04259 5.4463 3.05082C5.45284 3.05492 5.45794 3.0577 5.46095 3.0596L5.46388 3.06156L6.00392 3.40628L6.54298 3.0596L6.54591 3.05765C6.54887 3.05576 6.5541 3.05295 6.56056 3.04886C6.57349 3.04068 6.59269 3.02793 6.6172 3.01273C6.66659 2.98209 6.7355 2.94097 6.81153 2.89652C6.89785 2.84606 6.97638 2.80236 7.04103 2.76859L7.18653 2.69925L7.20704 2.69144L7.22657 2.68363C7.44963 2.58883 7.68602 2.52838 7.92677 2.50589C8.21859 2.48345 8.512 2.52286 8.78712 2.62015L8.79689 2.62308L8.80665 2.62699C9.30291 2.79092 9.69582 3.16692 9.87989 3.64847L9.92091 3.7725C9.99467 4.02343 10.0168 4.28626 9.98634 4.54593L9.96681 4.67582L9.96583 4.68363L9.96388 4.69144C9.9245 4.92439 9.8551 5.15122 9.75685 5.36625L9.64942 5.57718L9.64357 5.58695L9.49708 5.83597C9.39463 5.999 9.2829 6.15624 9.16212 6.30667L8.97462 6.5264L8.96388 6.5391L8.95314 6.55082C8.74049 6.80234 8.51847 7.04614 8.28712 7.28128L8.05275 7.51371L8.04298 7.5225L8.02735 7.53812L7.6006 7.95414C7.4213 8.12381 7.20526 8.32211 6.95314 8.5391C6.62307 8.82083 6.34027 9.04254 6.13478 9.20511C6.08882 9.24078 6.04259 9.27381 6.00001 9.30667L5.86622 9.20511C5.76469 9.12479 5.64443 9.03008 5.5088 8.92093L5.04786 8.5391C4.54274 8.10442 4.1811 7.74613 3.97267 7.5391L3.94728 7.51371L3.7129 7.28128C3.48155 7.04614 3.25953 6.80234 3.04689 6.55082L3.03614 6.5391L3.0254 6.5264C2.76665 6.23949 2.54202 5.92412 2.35646 5.58695L2.3506 5.57718L2.24318 5.36625C2.14493 5.15122 2.07552 4.9244 2.03614 4.69144L2.03419 4.68363L2.03321 4.67582C1.96925 4.33179 1.99906 3.977 2.12013 3.64847C2.30426 3.16707 2.69722 2.79088 3.19337 2.62699L3.20314 2.62308L3.2129 2.62015C3.48832 2.52275 3.78209 2.48329 4.07423 2.50589Z"/>
</svg>
