<svg width="12" height="12" viewBox="0 0 12 12" xmlns="http://www.w3.org/2000/svg">
<path d="M6.83523 1.76298C6.5361 1.87519 6.00197 2.21876 6.00197 2.21876C6.00197 2.21876 5.46365 1.87519 5.16453 1.76298C4.84444 1.62695 4.50462 1.5413 4.15806 1.50978C3.72461 1.47527 3.28891 1.53237 2.87968 1.67709C2.09568 1.93601 1.47172 2.53328 1.18159 3.30209C0.99807 3.79982 0.952628 4.33702 1.04951 4.85808C1.12141 5.28357 1.26723 5.69342 1.48021 6.06951C1.70317 6.47465 1.97258 6.85272 2.28269 7.19654C2.58805 7.55773 2.91164 7.90329 3.25171 8.23221L3.26768 8.24807C3.48062 8.45958 3.86334 8.83973 4.398 9.29966C4.74931 9.59954 5.05068 9.83487 5.25267 9.99474C5.47913 10.1705 5.67114 10.3175 5.8207 10.4282C5.87353 10.4668 5.93538 10.4908 5.99988 10.4978C6.06437 10.4908 6.12623 10.4668 6.17906 10.4282C6.32862 10.3175 6.52062 10.1705 6.74709 9.99474C6.94908 9.83487 7.25045 9.59954 7.60175 9.29966C8.13641 8.83973 8.51913 8.45959 8.73208 8.24807L8.74805 8.23221C9.08811 7.90329 9.4117 7.55773 9.71707 7.19654C10.0272 6.85272 10.2966 6.47465 10.5195 6.06951C10.7325 5.69342 10.8783 5.28357 10.9503 4.85808C11.0471 4.33702 11.0017 3.79982 10.8182 3.30209C10.528 2.53328 9.90408 1.93601 9.12007 1.67709C8.71084 1.53237 8.27515 1.47527 7.8417 1.50978C7.49514 1.5413 7.15532 1.62695 6.83523 1.76298Z"/>
</svg>
