<!-- Generated by IcoMoon.io -->
<svg version="1.1" xmlns="http://www.w3.org/2000/svg" width="12" height="12" viewBox="0 0 12 12">
<title>line-chart-solid</title>
<path d="M10.5 4c0.828 0 1.5-0.672 1.5-1.5s-0.672-1.5-1.5-1.5c-0.828 0-1.5 0.672-1.5 1.5 0 0.436 0.186 0.829 0.483 1.103l-1.886 4.4c-0.032-0.002-0.065-0.003-0.098-0.003-0.156 0-0.307 0.024-0.449 0.068l-1.303-1.737c0.159-0.238 0.251-0.524 0.251-0.831 0-0.828-0.672-1.5-1.5-1.5s-1.5 0.672-1.5 1.5c0 0.363 0.129 0.696 0.344 0.955l-1.545 2.574c-0.097-0.020-0.197-0.030-0.299-0.030-0.828 0-1.5 0.672-1.5 1.5s0.672 1.5 1.5 1.5 1.5-0.672 1.5-1.5c0-0.363-0.129-0.696-0.344-0.955l1.545-2.574c0.097 0.020 0.197 0.030 0.299 0.030 0.156 0 0.307-0.024 0.449-0.068l1.303 1.737c-0.159 0.238-0.251 0.524-0.251 0.832 0 0.828 0.672 1.5 1.5 1.5s1.5-0.672 1.5-1.5c0-0.436-0.186-0.829-0.483-1.103l1.886-4.4c0.032 0.002 0.065 0.003 0.098 0.003z"></path>
</svg>
