<!-- Generated by IcoMoon.io -->
<svg version="1.1" xmlns="http://www.w3.org/2000/svg" width="12" height="12" viewBox="0 0 12 12">
<title>line-chart</title>
<path d="M10.5 4c0.828 0 1.5-0.672 1.5-1.5s-0.672-1.5-1.5-1.5c-0.828 0-1.5 0.672-1.5 1.5 0 0.435 0.185 0.827 0.482 1.101l-1.883 4.402c-0.033-0.002-0.066-0.003-0.099-0.003-0.157 0-0.308 0.024-0.45 0.069l-1.304-1.733c0.161-0.239 0.254-0.526 0.254-0.836 0-0.828-0.672-1.5-1.5-1.5s-1.5 0.672-1.5 1.5c0 0.364 0.13 0.698 0.345 0.958l-1.544 2.573-0.005-0.001c-0.096-0.019-0.195-0.029-0.296-0.029-0.828 0-1.5 0.672-1.5 1.5s0.672 1.5 1.5 1.5 1.5-0.672 1.5-1.5c0-0.365-0.13-0.699-0.347-0.959l1.54-2.572c0.099 0.021 0.202 0.031 0.307 0.031 0.154 0 0.303-0.023 0.443-0.067l1.311 1.731c-0.16 0.239-0.254 0.526-0.254 0.835 0 0.828 0.672 1.5 1.5 1.5s1.5-0.672 1.5-1.5c0-0.436-0.186-0.828-0.482-1.102l1.883-4.401c0.033 0.002 0.066 0.003 0.099 0.003zM5.25 5.5c0 0.414-0.336 0.75-0.75 0.75s-0.75-0.336-0.75-0.75c0-0.414 0.336-0.75 0.75-0.75s0.75 0.336 0.75 0.75zM2.25 10.5c0 0.414-0.336 0.75-0.75 0.75s-0.75-0.336-0.75-0.75c0-0.414 0.336-0.75 0.75-0.75s0.75 0.336 0.75 0.75zM8.25 9.5c0 0.414-0.336 0.75-0.75 0.75s-0.75-0.336-0.75-0.75c0-0.414 0.336-0.75 0.75-0.75s0.75 0.336 0.75 0.75zM11.25 2.5c0 0.414-0.336 0.75-0.75 0.75s-0.75-0.336-0.75-0.75c0-0.414 0.336-0.75 0.75-0.75s0.75 0.336 0.75 0.75z"></path>
</svg>
