<!-- Generated by IcoMoon.io -->
<svg version="1.1" xmlns="http://www.w3.org/2000/svg" width="12" height="12" viewBox="0 0 12 12">
<title>linked</title>
<path d="M8.475 1.371c0.391-0.391 1.024-0.391 1.414 0l0.707 0.707c0.391 0.391 0.391 1.024 0 1.414l-3.182 3.182c-0.391 0.391-1.024 0.391-1.414 0l-0.354-0.354-0.707 0.707 0.354 0.354c0.781 0.781 2.047 0.781 2.828 0l3.182-3.182c0.781-0.781 0.781-2.047 0-2.828l-0.707-0.707c-0.781-0.781-2.047-0.781-2.828 0l-1.768 1.768 0.707 0.707 1.768-1.768z"></path>
<path d="M3.525 10.564c-0.391 0.391-1.024 0.391-1.414 0l-0.707-0.707c-0.391-0.391-0.391-1.024 0-1.414l3.182-3.182c0.391-0.391 1.024-0.391 1.414 0l0.354 0.354 0.707-0.707-0.354-0.354c-0.781-0.781-2.047-0.781-2.828 0l-3.182 3.182c-0.781 0.781-0.781 2.047 0 2.828l0.707 0.707c0.781 0.781 2.047 0.781 2.828 0l1.768-1.768-0.707-0.707-1.768 1.768z"></path>
</svg>
