<svg width="12" height="12" viewBox="0 0 12 12" xmlns="http://www.w3.org/2000/svg">
<path fill-rule="evenodd" clip-rule="evenodd" d="M11 0C11.5523 0 12 0.447715 12 1V11C12 11.5523 11.5523 12 11 12H1C0.447715 12 1.61065e-08 11.5523 0 11V1C0 0.447715 0.447715 1.61064e-08 1 0H11ZM1.68848 4.83594V10.5H3.57715V4.83594H1.68848ZM8.29688 4.70898C7.73055 4.70909 7.03835 5.08652 6.72363 5.58984V4.83496H4.83594V10.499H6.72363V7.16406C6.72363 6.66057 7.16445 6.21973 7.66797 6.21973C8.17138 6.21987 8.6123 6.66065 8.6123 7.16406V10.499H10.5V6.91211C10.5 5.71626 9.49272 4.70898 8.29688 4.70898ZM2.63281 1.5C2.0035 1.50005 1.50005 2.0035 1.5 2.63281C1.5 3.26217 2.00346 3.76557 2.63281 3.76562C3.26221 3.76562 3.76562 3.26221 3.76562 2.63281C3.76557 2.00346 3.26217 1.5 2.63281 1.5Z"/>
</svg>
