<svg width="12" height="12" viewBox="0 0 12 12" fill="none" xmlns="http://www.w3.org/2000/svg">
<path d="M8.47487 1.37132C8.8654 0.980799 9.49856 0.980799 9.88909 1.37132L10.5962 2.07843C10.9867 2.46895 10.9867 3.10212 10.5962 3.49264L7.41421 6.67462C7.02369 7.06515 6.39052 7.06515 6 6.67462L5.64645 6.32107L4.93934 7.02818L5.29289 7.38173C6.07394 8.16278 7.34027 8.16278 8.12132 7.38173L11.3033 4.19975C12.0843 3.4187 12.0843 2.15237 11.3033 1.37132L10.5962 0.664217C9.81514 -0.116832 8.54882 -0.116832 7.76777 0.664217L6 2.43198L6.70711 3.13909L8.47487 1.37132Z" fill="#4C505B"/>
<path d="M3.52513 10.5637C3.1346 10.9542 2.50144 10.9542 2.11091 10.5637L1.40381 9.8566C1.01328 9.46608 1.01328 8.83292 1.40381 8.44239L4.58579 5.26041C4.97631 4.86989 5.60948 4.86989 6 5.26041L6.35355 5.61396L7.06066 4.90686L6.70711 4.5533C5.92606 3.77226 4.65973 3.77226 3.87868 4.5533L0.696699 7.73528C-0.0843498 8.51633 -0.0843498 9.78266 0.696699 10.5637L1.40381 11.2708C2.18485 12.0519 3.45118 12.0519 4.23223 11.2708L6 9.50305L5.29289 8.79594L3.52513 10.5637Z" fill="#4C505B"/>
</svg>
