<!-- Generated by IcoMoon.io -->
<svg version="1.1" xmlns="http://www.w3.org/2000/svg" viewBox="0 0 12 12">
<title>linked</title>
<path d="M7.199 4.799l-0.651 0.657c-0.664-0.652-1.73-0.648-2.389 0.012v0l-2.568 2.571c-0.663 0.664-0.663 1.739 0 2.403s1.738 0.664 2.4 0v0l1.371-1.374 0.69 0.719-1.416 1.418c-1.060 1.061-2.778 1.061-3.839 0.002l-0.002-0.002c-1.061-1.062-1.061-2.783 0-3.845l2.56-2.563c1.060-1.061 2.778-1.061 3.839-0.002l0.004 0.005z"></path>
<path d="M4.801 7.201l0.651-0.657c0.664 0.652 1.73 0.648 2.389-0.012v0l2.568-2.571c0.663-0.664 0.663-1.739 0-2.403s-1.738-0.664-2.4 0v0l-1.371 1.374-0.69-0.719 1.416-1.418c1.060-1.061 2.778-1.061 3.839-0.002l0.002 0.002c1.061 1.062 1.061 2.783 0 3.845l-2.56 2.563c-1.060 1.061-2.778 1.061-3.839 0.002l-0.004-0.005z"></path>
</svg>
