<svg width="12" height="12" viewBox="0 0 12 12" xmlns="http://www.w3.org/2000/svg">
<path fill-rule="evenodd" clip-rule="evenodd" d="M3.30741 11H1.20943V4.70606H3.30741V11ZM2.25879 3.51757C1.55946 3.51757 1 2.95811 1 2.25879C1 1.55946 1.55946 1 2.25879 1C2.95811 1 3.51757 1.55946 3.51757 2.25879C3.51757 2.95811 2.95811 3.51757 2.25879 3.51757ZM11 10.9994H8.90202V7.29295C8.90202 6.73351 8.41249 6.24396 7.85303 6.24396C7.29357 6.24396 6.80404 6.73351 6.80404 7.29295V10.9994H4.70606V4.70544H6.80404V5.54463C7.15371 4.98517 7.92296 4.56557 8.55236 4.56557C9.88108 4.56557 11 5.6845 11 7.01322V10.9994Z"/>
</svg>
