<!-- Generated by IcoMoon.io -->
<svg version="1.1" xmlns="http://www.w3.org/2000/svg" width="12" height="12" viewBox="0 0 12 12">
<title>loader</title>
<path d="M11.994 5.202c-0.016-0.117-0.035-0.23-0.059-0.34-0.023-0.117-0.051-0.234-0.082-0.352-0.031-0.141-0.074-0.281-0.129-0.422-0.047-0.148-0.098-0.293-0.152-0.434-0.125-0.281-0.27-0.551-0.434-0.808-0.156-0.266-0.332-0.519-0.528-0.762-0.219-0.25-0.457-0.48-0.715-0.691-0.25-0.219-0.52-0.414-0.809-0.586-0.281-0.164-0.579-0.305-0.891-0.422-0.305-0.117-0.618-0.207-0.938-0.269-0.164-0.039-0.332-0.066-0.504-0.082-0.164-0.023-0.332-0.035-0.504-0.035-0.133 0-0.266 0.004-0.399 0.012-0.125 0.008-0.254 0.016-0.387 0.023-0.344 0.031-0.684 0.094-1.020 0.187-0.328 0.094-0.649 0.215-0.962 0.363-0.266 0.125-0.524 0.269-0.774 0.434-0.242 0.164-0.473 0.344-0.692 0.539-0.227 0.195-0.434 0.406-0.622 0.633s-0.36 0.465-0.516 0.715c-0.172 0.273-0.321 0.562-0.446 0.867s-0.223 0.617-0.293 0.937c-0.055 0.25-0.094 0.508-0.117 0.773-0.023 0.258-0.027 0.516-0.012 0.773 0.008 0.258 0.031 0.512 0.070 0.762s0.098 0.496 0.176 0.738c0.047 0.156 0.098 0.309 0.152 0.457 0.063 0.148 0.133 0.297 0.211 0.445 0.070 0.141 0.145 0.281 0.223 0.422 0.086 0.133 0.176 0.266 0.27 0.398 0.18 0.258 0.383 0.5 0.61 0.726s0.469 0.437 0.727 0.633c0.258 0.188 0.532 0.355 0.821 0.504 0.297 0.148 0.602 0.273 0.915 0.375 0.321 0.102 0.649 0.176 0.985 0.223 0.344 0.047 0.688 0.066 1.032 0.059 0.336-0.008 0.665-0.047 0.985-0.117 0.328-0.062 0.649-0.152 0.962-0.269 0.297-0.117 0.582-0.258 0.856-0.422 0.281-0.164 0.547-0.348 0.797-0.551 0.117-0.109 0.231-0.219 0.34-0.328 0.117-0.117 0.227-0.238 0.328-0.363s0.199-0.254 0.293-0.387c0.094-0.141 0.18-0.281 0.258-0.422 0.070-0.125 0.133-0.25 0.188-0.375s0.106-0.254 0.152-0.387c0.023-0.062 0.047-0.125 0.070-0.187 0.047-0.141 0.085-0.277 0.117-0.422 0.016-0.070 0.031-0.145 0.047-0.223 0.016-0.109 0.027-0.223 0.035-0.34s0.008-0.234 0-0.352c-0.008 0.055-0.020 0.109-0.035 0.164-0.018 0.11-0.043 0.212-0.082 0.316-0.016 0.055-0.035 0.109-0.059 0.164-0.039 0.117-0.086 0.234-0.141 0.352-0.047 0.109-0.098 0.219-0.152 0.328-0.062 0.141-0.133 0.281-0.211 0.422-0.078 0.133-0.156 0.266-0.235 0.398-0.047 0.070-0.094 0.141-0.141 0.211-0.039 0.062-0.082 0.125-0.129 0.187-0.047 0.070-0.098 0.137-0.152 0.199s-0.11 0.121-0.164 0.176c-0.11 0.125-0.227 0.242-0.352 0.352-0.117 0.109-0.242 0.211-0.375 0.305-0.133 0.102-0.274 0.195-0.422 0.281-0.141 0.086-0.285 0.164-0.434 0.234-0.305 0.148-0.622 0.266-0.95 0.352-0.328 0.094-0.661 0.152-0.997 0.176-0.344 0.031-0.688 0.031-1.032 0s-0.68-0.098-1.009-0.199c-0.313-0.094-0.618-0.215-0.915-0.363-0.289-0.148-0.567-0.32-0.833-0.515-0.25-0.188-0.485-0.398-0.704-0.633s-0.414-0.484-0.586-0.75c-0.18-0.273-0.332-0.562-0.457-0.867s-0.223-0.617-0.293-0.937c-0.016-0.078-0.031-0.16-0.047-0.246s-0.027-0.172-0.035-0.258c-0.008-0.070-0.016-0.141-0.023-0.211 0-0.078-0.004-0.152-0.012-0.223 0-0.156 0.004-0.309 0.012-0.457 0.008-0.156 0.023-0.312 0.047-0.469 0.047-0.328 0.125-0.648 0.235-0.961s0.246-0.613 0.41-0.902c0.149-0.266 0.317-0.512 0.504-0.738 0.195-0.234 0.403-0.449 0.622-0.644 0.227-0.195 0.469-0.371 0.727-0.527 0.258-0.164 0.524-0.301 0.797-0.41 0.164-0.070 0.328-0.129 0.493-0.176 0.172-0.047 0.344-0.086 0.516-0.117 0.086-0.016 0.172-0.027 0.258-0.035 0.221-0.040 0.404-0.047 0.622-0.047 0.289-0.008 0.579 0.008 0.868 0.047s0.575 0.102 0.856 0.187c0.297 0.094 0.582 0.215 0.856 0.363 0.281 0.148 0.543 0.32 0.786 0.516 0.258 0.211 0.493 0.441 0.704 0.691s0.399 0.519 0.563 0.808c0.133 0.242 0.246 0.496 0.34 0.762 0.102 0.258 0.184 0.523 0.246 0.797 0.016 0.062 0.027 0.125 0.035 0.187s0.020 0.125 0.035 0.187c0.008 0.062 0.027 0.121 0.059 0.176 0.031 0.047 0.070 0.086 0.117 0.117 0.109 0.070 0.223 0.086 0.34 0.047 0.125-0.039 0.215-0.117 0.27-0.234 0.016-0.039 0.023-0.078 0.023-0.117 0.008-0.039 0.008-0.078 0-0.117z"></path>
</svg>
