<svg width="12" height="12" viewBox="0 0 12 12" xmlns="http://www.w3.org/2000/svg">
<path fill-rule="evenodd" clip-rule="evenodd" d="M7.56 0.316406C7.07515 0.105469 6.55511 0 5.99988 0C5.44465 0 4.92461 0.105469 4.43976 0.316406C3.95491 0.527344 3.52871 0.816406 3.16117 1.18359C2.80144 1.54297 2.51601 1.96484 2.30486 2.44922C2.10154 2.93359 1.99988 3.45312 1.99988 4.00781C1.99988 4.41406 2.05853 4.80469 2.17583 5.17969C2.29313 5.55469 2.45736 5.89844 2.6685 6.21094L5.99988 12L9.40164 6.11719C9.58932 5.8125 9.73399 5.48047 9.83566 5.12109C9.94514 4.76172 9.99988 4.39062 9.99988 4.00781C9.99988 3.45312 9.89822 2.93359 9.69489 2.44922C9.48375 1.96484 9.1944 1.54297 8.82686 1.18359C8.46713 0.816406 8.04484 0.527344 7.56 0.316406ZM5.99988 6.00391C7.10553 6.00391 8.00183 5.10848 8.00183 4.00391C8.00183 2.89934 7.10553 2.00391 5.99988 2.00391C4.89423 2.00391 3.99792 2.89934 3.99792 4.00391C3.99792 5.10848 4.89423 6.00391 5.99988 6.00391Z"/>
</svg>
