<svg width="12" height="12" viewBox="0 0 12 12" xmlns="http://www.w3.org/2000/svg">
<path fill-rule="evenodd" clip-rule="evenodd" d="M7.56012 0.316406C7.07527 0.105469 6.55523 0 6 0C5.44477 0 4.92473 0.105469 4.43988 0.316406C3.95503 0.527344 3.52884 0.816406 3.16129 1.18359C2.80156 1.54297 2.51613 1.96484 2.30499 2.44922C2.10166 2.93359 2 3.45312 2 4.00781C2 4.41406 2.05865 4.80469 2.17595 5.17969C2.29326 5.55469 2.45748 5.89844 2.66862 6.21094L6 12L9.40176 6.11719C9.58944 5.8125 9.73412 5.48047 9.83578 5.12109C9.94526 4.76172 10 4.39062 10 4.00781C10 3.45312 9.89834 2.93359 9.69501 2.44922C9.48387 1.96484 9.19453 1.54297 8.82698 1.18359C8.46725 0.816406 8.04497 0.527344 7.56012 0.316406ZM6 6.00391C7.10565 6.00391 8.00196 5.10848 8.00196 4.00391C8.00196 2.89934 7.10565 2.00391 6 2.00391C4.89435 2.00391 3.99804 2.89934 3.99804 4.00391C3.99804 5.10848 4.89435 6.00391 6 6.00391Z"/>
</svg>
