<svg width="12" height="12" viewBox="0 0 12 12" xmlns="http://www.w3.org/2000/svg">
<path fill-rule="evenodd" clip-rule="evenodd" d="M3.51726 5.68094L6.00198 9.99872L8.54291 5.60456L8.55021 5.59272C8.68742 5.36997 8.79577 5.12336 8.87342 4.84889L8.87614 4.83925L8.87906 4.82967C8.95922 4.56656 8.99988 4.29377 8.99988 4.00781C8.99988 3.581 8.92278 3.19585 8.77544 2.84251C8.61464 2.47568 8.39896 2.1638 8.12774 1.8986L8.12006 1.89109L8.11253 1.88341C7.84556 1.6109 7.53122 1.39443 7.16106 1.23338C6.80835 1.07994 6.42485 1 5.99988 1C5.57491 1 5.1914 1.07994 4.8387 1.23338C4.46659 1.39527 4.1453 1.61395 3.86793 1.89105C3.60182 2.15689 3.38706 2.47116 3.22432 2.84249C3.07698 3.19583 2.99988 3.581 2.99988 4.00781C2.99988 4.31628 3.04417 4.60603 3.13023 4.88115C3.21974 5.16729 3.3426 5.42243 3.49709 5.65109L3.51726 5.68094ZM2.30486 2.44922C2.51601 1.96484 2.80144 1.54297 3.16117 1.18359C3.52871 0.816406 3.95491 0.527344 4.43976 0.316406C4.92461 0.105469 5.44465 0 5.99988 0C6.55511 0 7.07515 0.105469 7.56 0.316406C8.04484 0.527344 8.46713 0.816406 8.82686 1.18359C9.1944 1.54297 9.48375 1.96484 9.69489 2.44922C9.89822 2.93359 9.99988 3.45312 9.99988 4.00781C9.99988 4.39062 9.94514 4.76172 9.83566 5.12109C9.73399 5.48047 9.58932 5.8125 9.40164 6.11719L5.99988 12L2.6685 6.21094C2.45736 5.89844 2.29313 5.55469 2.17583 5.17969C2.05853 4.80469 1.99988 4.41406 1.99988 4.00781C1.99988 3.45312 2.10154 2.93359 2.30486 2.44922Z"/>
<path fill-rule="evenodd" clip-rule="evenodd" d="M5.99988 5C6.55216 5 6.99988 4.55228 6.99988 4C6.99988 3.44772 6.55216 3 5.99988 3C5.44759 3 4.99988 3.44772 4.99988 4C4.99988 4.55228 5.44759 5 5.99988 5ZM5.99988 6C7.10445 6 7.99988 5.10457 7.99988 4C7.99988 2.89543 7.10445 2 5.99988 2C4.89531 2 3.99988 2.89543 3.99988 4C3.99988 5.10457 4.89531 6 5.99988 6Z"/>
</svg>
