<!-- Generated by IcoMoon.io -->
<svg version="1.1" xmlns="http://www.w3.org/2000/svg" width="12" height="12" viewBox="0 0 12 12">
<title>location</title>
<path d="M7.56 0.316c0.485 0.211 0.907 0.5 1.267 0.867 0.368 0.359 0.657 0.781 0.868 1.266 0.203 0.484 0.305 1.004 0.305 1.559 0 0.383-0.055 0.754-0.164 1.113-0.102 0.359-0.246 0.691-0.434 0.996l-3.402 5.883-3.331-5.789c-0.211-0.313-0.375-0.656-0.493-1.031s-0.176-0.766-0.176-1.172c0-0.555 0.102-1.074 0.305-1.559 0.211-0.484 0.497-0.906 0.856-1.266 0.368-0.367 0.794-0.656 1.279-0.867s1.005-0.316 1.56-0.316c0.555 0 1.075 0.105 1.56 0.316zM6 6.004c1.106 0 2.002-0.895 2.002-2s-0.896-2-2.002-2c-1.106 0-2.002 0.895-2.002 2s0.896 2 2.002 2z"></path>
</svg>
