<svg width="12" height="12" viewBox="0 0 12 12" xmlns="http://www.w3.org/2000/svg">
<path fill-rule="evenodd" clip-rule="evenodd" d="M3.51739 5.68094L6.0021 9.99872L8.54304 5.60456L8.55033 5.59272C8.68754 5.36997 8.79589 5.12336 8.87354 4.84889L8.87626 4.83925L8.87918 4.82967C8.95934 4.56656 9 4.29377 9 4.00781C9 3.581 8.9229 3.19585 8.77557 2.84251C8.61476 2.47568 8.39909 2.1638 8.12787 1.8986L8.12018 1.89109L8.11265 1.88341C7.84568 1.6109 7.53134 1.39443 7.16118 1.23338C6.80847 1.07994 6.42497 1 6 1C5.57503 1 5.19153 1.07994 4.83882 1.23338C4.46671 1.39527 4.14542 1.61395 3.86805 1.89105C3.60194 2.15689 3.38718 2.47116 3.22444 2.84249C3.0771 3.19583 3 3.581 3 4.00781C3 4.31628 3.04429 4.60603 3.13035 4.88115C3.21986 5.16729 3.34272 5.42243 3.49722 5.65109L3.51739 5.68094ZM2.30499 2.44922C2.51613 1.96484 2.80156 1.54297 3.16129 1.18359C3.52884 0.816406 3.95503 0.527344 4.43988 0.316406C4.92473 0.105469 5.44477 0 6 0C6.55523 0 7.07527 0.105469 7.56012 0.316406C8.04497 0.527344 8.46725 0.816406 8.82698 1.18359C9.19453 1.54297 9.48387 1.96484 9.69501 2.44922C9.89834 2.93359 10 3.45312 10 4.00781C10 4.39062 9.94526 4.76172 9.83578 5.12109C9.73412 5.48047 9.58944 5.8125 9.40176 6.11719L6 12L2.66862 6.21094C2.45748 5.89844 2.29326 5.55469 2.17595 5.17969C2.05865 4.80469 2 4.41406 2 4.00781C2 3.45312 2.10166 2.93359 2.30499 2.44922Z"/>
<path fill-rule="evenodd" clip-rule="evenodd" d="M6 5C6.55228 5 7 4.55228 7 4C7 3.44772 6.55228 3 6 3C5.44772 3 5 3.44772 5 4C5 4.55228 5.44772 5 6 5ZM6 6C7.10457 6 8 5.10457 8 4C8 2.89543 7.10457 2 6 2C4.89543 2 4 2.89543 4 4C4 5.10457 4.89543 6 6 6Z"/>
</svg>
