<svg width="12" height="12" viewBox="0 0 12 12" xmlns="http://www.w3.org/2000/svg">
<path fill-rule="evenodd" clip-rule="evenodd" d="M12 9.87891L9.87891 12L2.80762 4.92871L4.92871 2.80762L12 9.87891ZM4.22168 4.92871L6.34277 7.0498L7.0498 6.34277L4.92871 4.22168L4.22168 4.92871Z"/>
<path d="M1.90918 6.59082L3 7L1.90918 7.40918L1.5 8.5L1.09082 7.40918L0 7L1.09082 6.59082L1.5 5.5L1.90918 6.59082Z"/>
<path d="M10.1816 1.81836L12 2.5L10.1816 3.18164L9.5 5L8.81836 3.18164L7 2.5L8.81836 1.81836L9.5 0L10.1816 1.81836Z"/>
<path d="M2.5459 1.4541L4 2L2.5459 2.5459L2 4L1.4541 2.5459L0 2L1.4541 1.4541L2 0L2.5459 1.4541Z"/>
</svg>
