<svg width="12" height="12" viewBox="0 0 12 12" xmlns="http://www.w3.org/2000/svg">
<path d="M5.93799 2.40249C5.4625 1.927 4.84283 1.68426 4.21856 1.67328L5.80127 3.25599L3.25596 5.8013L1.67325 4.21859C1.68423 4.84286 1.92697 5.46253 2.40246 5.93802C3.17057 6.70614 4.31467 6.86755 5.24539 6.42347L5.56441 6.27155L9.47353 10.1807C9.66879 10.3759 9.98537 10.3759 10.1806 10.1807C10.3759 9.9854 10.3759 9.66882 10.1806 9.47356L6.27152 5.56444L6.42344 5.24542C6.86752 4.3147 6.70611 3.1706 5.93799 2.40249ZM6.6451 1.69538C7.6328 2.68309 7.90041 4.11013 7.46269 5.3414L10.8877 8.76645C11.4735 9.35224 11.4735 10.302 10.8877 10.8878C10.302 11.4736 9.3522 11.4736 8.76642 10.8878L5.34137 7.46272C4.1101 7.90044 2.68306 7.63283 1.69535 6.64513C0.711931 5.66171 0.440717 4.24123 0.869471 3.0143L1.13187 2.263L3.25596 4.38708L4.38705 3.25599L2.26297 1.1319L3.01427 0.869502C4.2412 0.440747 5.66168 0.711962 6.6451 1.69538Z"/>
</svg>
