<svg width="12" height="12" viewBox="0 0 12 12" xmlns="http://www.w3.org/2000/svg" >
<path fill-rule="evenodd" clip-rule="evenodd" d="M9 3C9.82843 3 10.5 2.32843 10.5 1.5C10.5 0.671573 9.82843 0 9 0C8.17157 0 7.5 0.671573 7.5 1.5C7.5 2.32843 8.17157 3 9 3ZM9 2C9.27614 2 9.5 1.77614 9.5 1.5C9.5 1.22386 9.27614 1 9 1C8.72386 1 8.5 1.22386 8.5 1.5C8.5 1.77614 8.72386 2 9 2Z" />
<path fill-rule="evenodd" clip-rule="evenodd" d="M8.75 12V9H9.25V12H10.25V9H12L10.3417 4.43979C10.1366 3.87558 9.60036 3.5 9 3.5C8.39964 3.5 7.86343 3.87558 7.65826 4.43979L6 9H7.75V12H8.75ZM9.40195 4.78154L10.5723 8H7.4277L8.59805 4.78154C8.65951 4.61251 8.82015 4.5 9 4.5C9.17985 4.5 9.34049 4.61251 9.40195 4.78154Z" />
<path fill-rule="evenodd" clip-rule="evenodd" d="M3 3C3.82843 3 4.5 2.32843 4.5 1.5C4.5 0.671573 3.82843 0 3 0C2.17157 0 1.5 0.671573 1.5 1.5C1.5 2.32843 2.17157 3 3 3ZM3 2C3.27614 2 3.5 1.77614 3.5 1.5C3.5 1.22386 3.27614 1 3 1C2.72386 1 2.5 1.22386 2.5 1.5C2.5 1.77614 2.72386 2 3 2Z" />
<path fill-rule="evenodd" clip-rule="evenodd" d="M2 3.5C1.44772 3.5 1 3.94772 1 4.5V8H1.75V12H2.75V8H3.25V12H4.25V8H5V4.5C5 3.94772 4.55228 3.5 4 3.5H2ZM2 4.5V7H4V4.5H2Z" />
</svg>
