<svg width="12" height="12" viewBox="0 0 12 12" xmlns="http://www.w3.org/2000/svg" >
<path d="M3 3C3.82843 3 4.5 2.32843 4.5 1.5C4.5 0.671573 3.82843 0 3 0C2.17157 0 1.5 0.671573 1.5 1.5C1.5 2.32843 2.17157 3 3 3Z" />
<path d="M1 4.5C1 3.94772 1.44772 3.5 2 3.5H4C4.55228 3.5 5 3.94772 5 4.5V8H4.25V12H1.75V8H1V4.5Z" />
<path d="M10.5 1.5C10.5 2.32843 9.82843 3 9 3C8.17157 3 7.5 2.32843 7.5 1.5C7.5 0.671573 8.17157 0 9 0C9.82843 0 10.5 0.671573 10.5 1.5Z" />
<path d="M10.25 9V12H7.75V9H6L7.65826 4.43979C7.86343 3.87558 8.39964 3.5 9 3.5C9.60036 3.5 10.1366 3.87558 10.3417 4.43979L12 9H10.25Z" />
</svg>
