<svg width="12" height="12" viewBox="0 0 12 12" xmlns="http://www.w3.org/2000/svg">
<path fill-rule="evenodd" clip-rule="evenodd" d="M6 3C6.82843 3 7.5 2.32843 7.5 1.5C7.5 0.671573 6.82843 0 6 0C5.17157 0 4.5 0.671573 4.5 1.5C4.5 2.32843 5.17157 3 6 3ZM6 2C6.27614 2 6.5 1.77614 6.5 1.5C6.5 1.22386 6.27614 1 6 1C5.72386 1 5.5 1.22386 5.5 1.5C5.5 1.77614 5.72386 2 6 2Z"/>
<path fill-rule="evenodd" clip-rule="evenodd" d="M5 3.5C4.44772 3.5 4 3.94772 4 4.5V8H4.75V12H5.75V8H6.25V12H7.25V8H8V4.5C8 3.94772 7.55228 3.5 7 3.5H5ZM5 4.5V7H7V4.5H5Z"/>
</svg>
