<svg width="12" height="12" viewBox="0 0 12 12" xmlns="http://www.w3.org/2000/svg">
<path d="M2 11H1V9C1 8.34346 1.12964 7.69349 1.38086 7.08691C1.63213 6.48029 2.00055 5.92914 2.46484 5.46484C2.92914 5.00055 3.48029 4.63213 4.08691 4.38086C4.69349 4.12964 5.34346 4 6 4H9.08594L7.46484 2.37891L8.17188 1.67188L11 4.5L8.17188 7.32812L7.46484 6.62109L9.08594 5H6C5.47483 5 4.95494 5.10376 4.46973 5.30469L4.28906 5.38379C3.87451 5.57992 3.49685 5.8469 3.17188 6.17188L3.03613 6.31445C2.7282 6.6543 2.48056 7.04513 2.30469 7.46973L2.2334 7.65234C2.07885 8.0843 2 8.54025 2 9V11Z"/>
</svg>
