<svg width="12" height="12" viewBox="0 0 12 12" xmlns="http://www.w3.org/2000/svg">
<path d="M11 11H10V9C10 8.54025 9.92115 8.0843 9.7666 7.65234L9.69531 7.46973C9.51944 7.04513 9.2718 6.6543 8.96387 6.31445L8.82812 6.17188C8.50315 5.8469 8.12549 5.57992 7.71094 5.38379L7.53027 5.30469C7.04506 5.10376 6.52517 5 6 5H2.91406L4.53516 6.62109L3.82812 7.32812L1 4.5L3.82812 1.67188L4.53516 2.37891L2.91406 4H6C6.65654 4 7.30651 4.12964 7.91309 4.38086C8.51971 4.63213 9.07086 5.00055 9.53516 5.46484C9.99945 5.92914 10.3679 6.48029 10.6191 7.08691C10.8704 7.69349 11 8.34346 11 9V11Z"/>
</svg>
