<svg width="12" height="12" viewBox="0 0 12 12" fill="none" xmlns="http://www.w3.org/2000/svg">
<path d="M3.50309 5.62543C3.56649 6.90838 4.59699 7.93692 5.88076 7.99721L3.50309 5.62543Z" fill="#4C505B"/>
<path d="M6.79511 8.90929C6.53967 8.96863 6.2735 9 6 9C4.067 9 2.5 7.433 2.5 5.5H1.5C1.5 7.81628 3.25002 9.72381 5.5 9.97254V11H3V12H9V11.1087L8.89101 11H6.5V9.97254C6.88191 9.93032 7.24942 9.84031 7.59641 9.70861L6.79511 8.90929Z" fill="#4C505B"/>
<path d="M9.89654 7.75248L9.15655 7.01389C9.37668 6.55574 9.5 6.04227 9.5 5.5H10.5C10.5 6.32067 10.2803 7.09003 9.89654 7.75248Z" fill="#4C505B"/>
<path d="M8.3869 6.24569L7.5 5.36046V2.5C7.5 1.67157 6.82843 1 6 1C5.21485 1 4.5706 1.60324 4.50543 2.37152L3.68553 1.55316C4.0587 0.641915 4.95439 0 6 0C7.38071 0 8.5 1.11929 8.5 2.5V5.5C8.5 5.75971 8.4604 6.01018 8.3869 6.24569Z" fill="#4C505B"/>
<path d="M10.307 11L1 1.71606L1.71579 1L11 10.2667L10.307 11Z" fill="#4C505B"/>
</svg>
