<svg width="12" height="12" viewBox="0 0 12 12" fill="none" xmlns="http://www.w3.org/2000/svg">
<path fill-rule="evenodd" clip-rule="evenodd" d="M6 0C4.61929 0 3.5 1.11929 3.5 2.5V5.5C3.5 6.88071 4.61929 8 6 8C7.38071 8 8.5 6.88071 8.5 5.5V2.5C8.5 1.11929 7.38071 0 6 0ZM7.5 5.5V2.5C7.5 1.67157 6.82843 1 6 1C5.17157 1 4.5 1.67157 4.5 2.5V5.5C4.5 6.32843 5.17157 7 6 7C6.82843 7 7.5 6.32843 7.5 5.5Z" fill="#4C505B"/>
<path d="M2.5 5.5C2.5 7.433 4.067 9 6 9C7.933 9 9.5 7.433 9.5 5.5H10.5C10.5 7.81628 8.74998 9.72381 6.5 9.97254V11H9V12H3V11H5.5V9.97254C3.25002 9.72381 1.5 7.81628 1.5 5.5H2.5Z" fill="#4C505B"/>
</svg>
