<svg width="12" height="12" viewBox="0 0 12 12" xmlns="http://www.w3.org/2000/svg">
<path d="M5.50502 1.90479L5.50507 4.99276H6.4792L6.47915 1.89459L7.94002 3.35284L8.64709 2.64577L5.99709 0.000854492L3.35006 2.64292L4.05714 3.35L5.50502 1.90479Z"/>
<path d="M3.35287 4.05995L2.6458 3.35288L0 6.00378L2.6421 8.65085L3.34919 7.94376L1.90393 6.49584L4.9919 6.49579V5.52167L1.89374 5.52172L3.35287 4.05995Z"/>
<path d="M3.35207 9.3551L4.05914 8.64803L5.52087 10.1071L5.52082 7.00896H6.49494L6.49499 10.0969L7.94371 8.65088L8.6508 9.35796L6.00292 12.0009L3.35207 9.3551Z"/>
<path d="M9.35505 8.648L12 5.99794L9.35706 3.35002L8.64997 4.0571L10.0961 5.50588L7.00811 5.50593V6.48005L10.1063 6.48L8.64798 7.94093L9.35505 8.648Z"/>
</svg>
