<svg width="12" height="12" viewBox="0 0 12 12" fill="none" xmlns="http://www.w3.org/2000/svg">
<path fill-rule="evenodd" clip-rule="evenodd" d="M5 9.5V1.88278L11 1.13278V6.49982C10.5822 6.18597 10.0628 6 9.5 6C8.11929 6 7 7.11929 7 8.5C7 9.88071 8.11929 11 9.5 11C10.8807 11 12 9.88071 12 8.5V0L4 1V7.49982C3.58217 7.18597 3.0628 7 2.5 7C1.11929 7 0 8.11929 0 9.5C0 10.8807 1.11929 12 2.5 12C3.88071 12 5 10.8807 5 9.5ZM4 9.5C4 8.67157 3.32843 8 2.5 8C1.67157 8 1 8.67157 1 9.5C1 10.3284 1.67157 11 2.5 11C3.32843 11 4 10.3284 4 9.5ZM11 8.5C11 7.67157 10.3284 7 9.5 7C8.67157 7 8 7.67157 8 8.5C8 9.32843 8.67157 10 9.5 10C10.3284 10 11 9.32843 11 8.5Z" fill="#4C505B"/>
</svg>
