<svg width="12" height="12" viewBox="0 0 12 12" fill="none" xmlns="http://www.w3.org/2000/svg">
<path d="M5 9.5V8.12482L4 7.12928V7.49982C3.58217 7.18597 3.0628 7 2.5 7C1.11929 7 0 8.11929 0 9.5C0 10.8807 1.11929 12 2.5 12C3.88071 12 5 10.8807 5 9.5Z" fill="#4C505B"/>
<path d="M9.5 6C8.84518 6 8.24917 6.25175 7.80346 6.66375L11.3405 10.1919C11.75 9.74673 12 9.15256 12 8.5V0L4 1V2.86982L5 3.86732V1.88278L11 1.13278V6.49982C10.5822 6.18597 10.0628 6 9.5 6Z" fill="#4C505B"/>
<path d="M0 1.75187L10.2723 12L11 11.2301L0.751575 1L0 1.75187Z" fill="#4C505B"/>
</svg>
