<svg width="12" height="12" viewBox="0 0 12 12" fill="none" xmlns="http://www.w3.org/2000/svg">
<path fill-rule="evenodd" clip-rule="evenodd" d="M5 9.5V8.12477L4 7.12923V7.49982C3.58217 7.18597 3.0628 7 2.5 7C1.11929 7 0 8.11929 0 9.5C0 10.8807 1.11929 12 2.5 12C3.88071 12 5 10.8807 5 9.5ZM4 9.5C4 8.67157 3.32843 8 2.5 8C1.67157 8 1 8.67157 1 9.5C1 10.3284 1.67157 11 2.5 11C3.32843 11 4 10.3284 4 9.5Z" fill="#4C505B"/>
<path d="M9.5 6C8.8452 6 8.24919 6.25174 7.80349 6.66372L8.51246 7.37092C8.7763 7.13996 9.1218 7 9.5 7C10.3284 7 11 7.67157 11 8.5C11 8.87684 10.861 9.22123 10.6316 9.48471L11.3405 10.1919C11.75 9.7467 12 9.15255 12 8.5V0L4 1V2.86977L5 3.86726V1.88278L11 1.13278V6.49982C10.5822 6.18597 10.0628 6 9.5 6Z" fill="#4C505B"/>
<path d="M0 1.75187L10.2723 12L11 11.2301L0.751575 1L0 1.75187Z" fill="#4C505B"/>
</svg>
