<svg width="12" height="12" viewBox="0 0 12 12" xmlns="http://www.w3.org/2000/svg">
<path fill-rule="evenodd" clip-rule="evenodd" d="M6 0C9.31371 0 12 2.68629 12 6C12 9.31371 9.31371 12 6 12C2.68629 12 0 9.31371 0 6C0 2.68629 2.68629 0 6 0ZM2.12793 2.83496C1.42253 3.69691 1 4.79931 1 6C1 8.76142 3.23858 11 6 11C7.20086 11 8.30206 10.5757 9.16406 9.87012L2.12793 2.83496ZM6 1C4.79931 1 3.69691 1.42253 2.83496 2.12793L9.87109 9.16309C10.5762 8.30124 11 7.20037 11 6C11 3.23858 8.76142 1 6 1Z"/>
</svg>
