<svg width="12" height="12" viewBox="0 0 12 12" xmlns="http://www.w3.org/2000/svg">
<path d="M9.51065 1.36804C9.39676 1.19394 9.2656 1.0348 9.11719 0.890625C8.85156 0.617188 8.53516 0.398438 8.16797 0.234375C7.80078 0.078125 7.41016 0 6.99609 0H5.00391C4.58984 0 4.19922 0.078125 3.83203 0.234375C3.46484 0.398438 3.14453 0.617188 2.87109 0.890625C2.60547 1.15625 2.39453 1.47266 2.23828 1.83984C2.08203 2.19922 2.00391 2.58594 2.00391 3V6C1.90234 6.57031 1.76562 7.02344 1.59375 7.35938C1.42969 7.69531 1.23047 7.91016 0.996094 8.00391H0V9H12V8.00391H11.0039C10.7852 7.91016 10.5938 7.71875 10.4297 7.42969C10.2734 7.13281 10.1445 6.73047 10.043 6.22266L9.99609 6.01172V5.12525L7.12135 8.00001L3.58582 4.46445L5.70714 2.34313L7.12135 3.75735L9.51065 1.36804Z"/>
<path d="M4.93359 11.5898C5.23047 11.8633 5.58594 12 6 12C6.41406 12 6.76562 11.8633 7.05469 11.5898C7.35156 11.3242 7.5 11 7.5 10.6172V10.0078H4.5V10.6172C4.5 11 4.64453 11.3242 4.93359 11.5898Z"/>
<path fill-rule="evenodd" clip-rule="evenodd" d="M7.12133 5.17158L11.2929 0.999979L12 1.70708L7.12133 6.5858L5 4.46446L5.70711 3.75736L7.12133 5.17158Z"/>
</svg>
