<svg width="12" height="12" viewBox="0 0 12 12" xmlns="http://www.w3.org/2000/svg">
<path d="M9.51065 1.36804C9.39676 1.19394 9.2656 1.0348 9.11719 0.890625C8.85156 0.617188 8.53516 0.398438 8.16797 0.234375C7.80078 0.078125 7.41016 0 6.99609 0H5.00391C4.58984 0 4.19922 0.078125 3.83203 0.234375C3.46484 0.398438 3.14453 0.617188 2.87109 0.890625C2.60547 1.15625 2.39453 1.47266 2.23828 1.83984C2.08203 2.19922 2.00391 2.58594 2.00391 3V6C1.90234 6.57031 1.76562 7.02344 1.59375 7.35938C1.42969 7.69531 1.23047 7.91016 0.996094 8.00391H0V9H12V8.00391H11.0039C10.7695 7.91016 10.5664 7.69531 10.3945 7.35938C10.2305 7.02344 10.0977 6.57031 9.99609 6V5.12525L9.00758 6.11376L9.01172 6.17578C9.08203 6.55078 9.16406 6.89062 9.25781 7.19531C9.35156 7.5 9.46875 7.76953 9.60938 8.00391H2.39062C2.53125 7.76953 2.64844 7.5 2.74219 7.19531C2.83594 6.89062 2.91797 6.55078 2.98828 6.17578L3 6V3C3 2.45312 3.19531 1.98438 3.58594 1.59375C3.97656 1.20312 4.44922 1.00781 5.00391 1.00781H6.99609C7.55078 1.00781 8.02344 1.20312 8.41406 1.59375C8.56835 1.74804 8.69217 1.91451 8.78552 2.09318L9.51065 1.36804Z"/>
<path d="M4.93359 11.5898C5.23047 11.8633 5.58594 12 6 12C6.41406 12 6.76562 11.8633 7.05469 11.5898C7.35156 11.3242 7.5 11 7.5 10.6172V10.0078H4.5V10.6172C4.5 11 4.64453 11.3242 4.93359 11.5898Z"/>
<path fill-rule="evenodd" clip-rule="evenodd" d="M7.12133 5.17158L11.2929 0.999979L12 1.70708L7.12133 6.5858L5 4.46446L5.70711 3.75736L7.12133 5.17158Z"/>
</svg>
