<!-- Generated by IcoMoon.io -->
<svg version="1.1" xmlns="http://www.w3.org/2000/svg" width="12" height="12" viewBox="0 0 12 12">
<title>notification-solid</title>
<path d="M0.996 8.004c0.234-0.094 0.434-0.309 0.598-0.645 0.172-0.336 0.309-0.789 0.41-1.359v-3c0-0.414 0.078-0.801 0.234-1.16 0.156-0.367 0.367-0.684 0.633-0.949 0.273-0.273 0.594-0.492 0.961-0.656 0.367-0.156 0.758-0.234 1.172-0.234h1.992c0.414 0 0.805 0.078 1.172 0.234 0.367 0.164 0.684 0.383 0.949 0.656 0.273 0.266 0.488 0.582 0.645 0.949 0.156 0.359 0.234 0.746 0.234 1.16v3.012l0.047 0.211c0.101 0.508 0.23 0.91 0.387 1.207 0.164 0.289 0.355 0.48 0.574 0.574h0.996v0.996h-12v-0.996h0.996zM6 12c-0.414 0-0.77-0.137-1.066-0.41-0.289-0.266-0.434-0.59-0.434-0.973 0-0.086 0-0.207 0-0.363 0-0.164 0-0.246 0-0.246s0.098 0 0.293 0c0.195 0 0.598 0 1.207 0s1.012 0 1.207 0c0.195 0 0.293 0 0.293 0s0 0.043 0 0.129c0 0.086 0 0.246 0 0.481 0 0.383-0.148 0.707-0.445 0.973-0.289 0.274-0.641 0.41-1.055 0.41z"></path>
</svg>
