<!-- Generated by IcoMoon.io -->
<svg version="1.1" xmlns="http://www.w3.org/2000/svg" viewBox="0 0 12 12">
<title>notification</title>
<path d="M2 6v-3c0-1.657 1.343-3 3-3h2c1.657 0 3 1.343 3 3v3c0.201 1.141 0.534 1.807 1 2h1v1h-12v-1h1c0.466-0.193 0.799-0.859 1-2zM9.608 8c-0.273-0.467-0.461-1.079-0.593-1.827l-0.015-0.173v-3c0-1.105-0.895-2-2-2h-2c-1.105 0-2 0.895-2 2v3l-0.015 0.173c-0.132 0.748-0.32 1.36-0.593 1.827h7.216z"></path>
<path d="M6 12c-0.828 0-1.5-0.621-1.5-1.389 0-0.162 0-0.611 0-0.611s0.286-0 1.5 0c1.214 0 1.5 0 1.5 0s0 0.149 0 0.611c0 0.768-0.672 1.389-1.5 1.389z"></path>
</svg>
