<svg width="12" height="12" viewBox="0 0 12 12" fill="none" xmlns="http://www.w3.org/2000/svg">
<path fill-rule="evenodd" clip-rule="evenodd" d="M2.45264 7.00293C3.09749 7.00293 3.56803 7.13509 3.86426 7.39941C4.16048 7.66374 4.30859 8.03402 4.30859 8.51025C4.30859 8.72673 4.27441 8.93294 4.20605 9.12891C4.13997 9.32259 4.0306 9.49463 3.87793 9.64502C3.72526 9.79313 3.5236 9.91048 3.27295 9.99707C3.02458 10.0837 2.7181 10.127 2.35352 10.127H1.82031V12H1V7.00293H2.45264ZM2.39795 7.68311H1.82031V9.44336H2.26807C2.52555 9.44336 2.7443 9.41374 2.92432 9.35449C3.10433 9.29297 3.24105 9.19613 3.33447 9.06396C3.4279 8.9318 3.47461 8.75749 3.47461 8.54102C3.47461 8.25163 3.38688 8.0363 3.21143 7.89502C3.03825 7.75374 2.76709 7.68311 2.39795 7.68311Z" fill="#4C505B"/>
<path fill-rule="evenodd" clip-rule="evenodd" d="M8.77002 9.45361C8.77002 10.0164 8.6652 10.487 8.45557 10.8652C8.24593 11.2412 7.94173 11.5249 7.54297 11.7163C7.14421 11.9054 6.66341 12 6.10059 12H4.71289V7.00293H6.25098C6.76823 7.00293 7.21484 7.09635 7.59082 7.2832C7.9668 7.46777 8.25732 7.74235 8.4624 8.10693C8.66748 8.46924 8.77002 8.91813 8.77002 9.45361ZM7.91553 9.47754C7.91553 9.06738 7.85059 8.73014 7.7207 8.46582C7.5931 8.2015 7.40397 8.00553 7.15332 7.87793C6.90495 7.74805 6.59847 7.68311 6.23389 7.68311H5.5332V11.313H6.11426C6.7181 11.313 7.16927 11.1592 7.46777 10.8516C7.76628 10.5439 7.91553 10.0859 7.91553 9.47754Z" fill="#4C505B"/>
<path d="M9.17676 12H9.99023V9.93896H11.8701V9.25195H9.99023V7.69336H12V7.00293H9.17676V12Z" fill="#4C505B"/>
<path fill-rule="evenodd" clip-rule="evenodd" d="M1 0V6H11V2L9 0H1ZM8 1H7V4H10V3H8V1Z" fill="#4C505B"/>
</svg>
