<svg width="12" height="12" viewBox="0 0 12 12" xmlns="http://www.w3.org/2000/svg">
<path fill-rule="evenodd" clip-rule="evenodd" d="M9 7C10.1046 7 11 7.89543 11 9C11 10.1046 10.1046 11 9 11C7.89543 11 7 10.1046 7 9C7 7.89543 7.89543 7 9 7ZM9 8C8.44772 8 8 8.44772 8 9C8 9.55229 8.44772 10 9 10C9.55229 10 10 9.55229 10 9C10 8.44772 9.55229 8 9 8Z"/>
<path d="M10.5967 2.11133L2.11133 10.5967L1.4043 9.88867L9.88867 1.4043L10.5967 2.11133Z"/>
<path fill-rule="evenodd" clip-rule="evenodd" d="M3 1C4.10457 1 5 1.89543 5 3C5 4.10457 4.10457 5 3 5C1.89543 5 1 4.10457 1 3C1 1.89543 1.89543 1 3 1ZM3 2C2.44772 2 2 2.44772 2 3C2 3.55228 2.44772 4 3 4C3.55228 4 4 3.55228 4 3C4 2.44772 3.55228 2 3 2Z"/>
</svg>
