<svg width="12" height="12" viewBox="0 0 12 12" xmlns="http://www.w3.org/2000/svg">
<path d="M11 1.5C11 1.77614 10.7761 2 10.5 2H9V9.51953C9.00231 9.57878 9.0134 9.6375 9.03613 9.69238C9.06137 9.75322 9.09796 9.80889 9.14453 9.85547C9.19111 9.90204 9.24678 9.93863 9.30762 9.96387C9.36854 9.9891 9.43406 10.002 9.5 10.002C9.56594 10.002 9.63146 9.9891 9.69238 9.96387C9.75322 9.93863 9.80889 9.90204 9.85547 9.85547C9.90204 9.80889 9.93863 9.75322 9.96387 9.69238C9.9891 9.63146 10.002 9.56594 10.002 9.5H11C11 9.69698 10.9611 9.89223 10.8857 10.0742C10.8104 10.2561 10.6998 10.4213 10.5605 10.5605C10.4213 10.6998 10.2561 10.8104 10.0742 10.8857C9.89223 10.9611 9.69698 11 9.5 11C9.30302 11 9.10777 10.9611 8.92578 10.8857C8.74387 10.8104 8.57869 10.6998 8.43945 10.5605C8.30021 10.4213 8.18964 10.2561 8.11426 10.0742C8.04737 9.91273 8.01066 9.74069 8.00293 9.56641H8V2H4V9.58594H3.99609C3.98647 9.75351 3.95013 9.91877 3.88574 10.0742C3.81036 10.2561 3.69979 10.4213 3.56055 10.5605C3.42131 10.6998 3.25613 10.8104 3.07422 10.8857C2.91152 10.9531 2.73812 10.9897 2.5625 10.9971V11H2V10.5C2 10.2239 2.22386 10 2.5 10C2.5657 10 2.63071 9.98706 2.69141 9.96191C2.75208 9.93677 2.80707 9.89996 2.85352 9.85352C2.89996 9.80707 2.93677 9.75208 2.96191 9.69141C2.97447 9.6611 2.98386 9.62967 2.99023 9.59766L3 9.5V2H2.5L2.40234 2.00977C2.37033 2.01614 2.3389 2.02553 2.30859 2.03809C2.24792 2.06323 2.19293 2.10004 2.14648 2.14648C2.10004 2.19293 2.06323 2.24792 2.03809 2.30859C2.01294 2.36929 2 2.4343 2 2.5H1C1 2.30302 1.03888 2.10777 1.11426 1.92578C1.18964 1.74387 1.30021 1.57869 1.43945 1.43945C1.57869 1.30021 1.74387 1.18964 1.92578 1.11426C2.09573 1.04386 2.27727 1.00576 2.46094 1.00098L11 1V1.5Z"/>
</svg>
