<svg width="12" height="12" viewBox="0 0 12 12" fill="none" xmlns="http://www.w3.org/2000/svg">
<path fill-rule="evenodd" clip-rule="evenodd" d="M2.71429 4.29683C3.50307 3.506 4.78181 3.5058 5.57084 4.29623L7 2.86455L6.28571 2.14841L8.42857 0L12 3.58069L9.85714 5.7291L9.14286 5.01296L7.71429 6.44524C8.50267 7.23631 8.50307 8.51896 7.71429 9.30979L7 10.0259L4.97444 7.99512L1.97991 10.9974L0 12L0.989963 10.0049L3.98449 7.0026L2 5.01296L2.71429 4.29683ZM7.69993 2.14841L8.42857 1.41788L10.5858 3.58069L9.85714 4.31122L9.14285 3.59508L6.30007 6.44524L7.00718 7.15418C7.40563 7.55367 7.40563 8.20136 7.00718 8.60085L7 8.60805L3.41421 5.01296L3.42139 5.00577C3.81985 4.60628 4.46587 4.60628 4.86432 5.00577L5.57143 5.71471L8.41421 2.86455L7.69993 2.14841Z" fill="#4C505B"/>
</svg>
