<svg width="12" height="12" viewBox="0 0 12 12" xmlns="http://www.w3.org/2000/svg">
<path fill-rule="evenodd" clip-rule="evenodd" d="M11 2V4H7V1H2V11H7V12H1V0H9L11 2ZM8 3H10V2.41406L8.58594 1H8V3Z"/>
<path fill-rule="evenodd" clip-rule="evenodd" d="M9.5 4.5C10.8807 4.5 12 5.61929 12 7C12 7.81703 11.6061 8.5399 11 8.99609V12L9.5 11.5L8 12V8.99609C7.39389 8.5399 7 7.81703 7 7C7 5.61929 8.11929 4.5 9.5 4.5ZM9 10.6123L9.18359 10.5518L9.5 10.4463L9.81641 10.5518L10 10.6123V9.5H9V10.6123ZM9.5 5.5C8.67157 5.5 8 6.17157 8 7C8 7.82843 8.67157 8.5 9.5 8.5C10.3284 8.5 11 7.82843 11 7C11 6.17157 10.3284 5.5 9.5 5.5Z"/>
<path d="M6 9H3V8H6V9Z"/>
<path d="M6 7H3V6H6V7Z"/>
<path d="M6 5H3V4H6V5Z"/>
</svg>
