<svg width="12" height="12" viewBox="0 0 12 12" xmlns="http://www.w3.org/2000/svg">
<path d="M9 1C9 1.61977 8.70337 2.2121 8.47086 2.67637L8.44721 2.72361C8.1827 3.25263 8 3.641 8 4H7C7 3.38023 7.29663 2.78791 7.52914 2.32364L7.55279 2.27639C7.8173 1.74737 8 1.359 8 1H9Z"/>
<path d="M11 1C11 1.61977 10.7034 2.2121 10.4709 2.67637L10.4472 2.72361C10.1827 3.25263 10 3.641 10 4H9C9 3.38023 9.29663 2.7879 9.52914 2.32363L9.55279 2.27639C9.8173 1.74737 10 1.359 10 1H11Z"/>
<path d="M2.49976 5H1V6H0V7H1C1 8.86384 2.27477 10.4299 4 10.874V12H8V10.874C9.72523 10.4299 11 8.86384 11 7H12V6H11V5H6.50012C6.04402 4.39278 5.31785 4 4.49994 4C3.68203 4 2.95586 4.39278 2.49976 5Z"/>
</svg>
