<svg width="12" height="12" viewBox="0 0 12 12" xmlns="http://www.w3.org/2000/svg">
<path d="M9 1C9 1.61977 8.70337 2.2121 8.47086 2.67637L8.44721 2.72361C8.1827 3.25263 8 3.641 8 4H7C7 3.38023 7.29663 2.78791 7.52914 2.32364L7.55279 2.27639C7.8173 1.74737 8 1.359 8 1H9Z"/>
<path d="M11 1C11 1.61977 10.7034 2.2121 10.4709 2.67637L10.4472 2.72361C10.1827 3.25263 10 3.641 10 4H9C9 3.38023 9.29663 2.7879 9.52914 2.32363L9.55279 2.27639C9.8173 1.74737 10 1.359 10 1H11Z"/>
<path fill-rule="evenodd" clip-rule="evenodd" d="M4 10.874C2.27477 10.4299 1 8.86384 1 7H0V6H1V5H2.49976C2.95586 4.39278 3.68203 4 4.49994 4C5.31785 4 6.04402 4.39278 6.50012 5H11V6H12V7H11C11 8.86384 9.72523 10.4299 8 10.874V12H4V10.874ZM2 6H10V7C10 8.65685 8.65685 10 7 10H5C3.34315 10 2 8.65685 2 7V6Z"/>
</svg>
