<svg width="12" height="12" viewBox="0 0 12 12" fill="none" xmlns="http://www.w3.org/2000/svg">
<path fill-rule="evenodd" clip-rule="evenodd" d="M11.6827 4.07119L10.7361 4.39361C10.6326 4.08951 10.4977 3.79029 10.3301 3.49999C10.1625 3.2097 9.9708 2.94332 9.75923 2.70157L10.5118 2.04301C10.766 2.33353 10.9958 2.65297 11.1961 2.99999C11.3965 3.34702 11.5583 3.70574 11.6827 4.07119ZM8.65409 0.618234L8.21261 1.51551C7.62338 1.22559 6.9813 1.05355 6.32606 1.01001L6.39236 0.012207C7.17803 0.0644141 7.94757 0.270611 8.65409 0.618234ZM4.07119 0.31726L4.39361 1.26385C4.08951 1.36744 3.79029 1.50226 3.49999 1.66987C3.2097 1.83747 2.94332 2.02919 2.70157 2.24076L2.04301 1.48823C2.33353 1.23399 2.65297 1.0042 2.99999 0.803842C3.34702 0.603486 3.70574 0.441736 4.07119 0.31726ZM0.618235 3.3459L1.51551 3.78738C1.22559 4.37661 1.05355 5.01869 1.01001 5.67393L0.012207 5.60763C0.0644141 4.82196 0.270611 4.05242 0.618235 3.3459ZM0.31726 7.9288C0.441736 8.29425 0.603486 8.65297 0.803842 8.99999C1.0042 9.34702 1.23399 9.66646 1.48823 9.95698L2.24076 9.29842C2.02919 9.05667 1.83747 8.79029 1.66987 8.49999C1.50226 8.2097 1.36744 7.91048 1.26386 7.60638L0.31726 7.9288ZM3.3459 11.3818L3.78738 10.4845C4.37661 10.7744 5.01869 10.9464 5.67393 10.99L5.60763 11.9878C4.82196 11.9356 4.05242 11.7294 3.3459 11.3818ZM7.9288 11.6827L7.60638 10.7361C7.91048 10.6326 8.2097 10.4977 8.49999 10.3301C8.79029 10.1625 9.05667 9.9708 9.29842 9.75923L9.95698 10.5118C9.66646 10.766 9.34702 10.9958 8.99999 11.1961C8.65297 11.3965 8.29425 11.5583 7.9288 11.6827ZM11.3818 8.65409L10.4845 8.21261C10.7744 7.62338 10.9464 6.9813 10.99 6.32606L11.9878 6.39236C11.9356 7.17803 11.7294 7.94757 11.3818 8.65409Z" fill="#4C505B"/>
</svg>
