<!-- Generated by IcoMoon.io -->
<svg version="1.1" xmlns="http://www.w3.org/2000/svg" width="12" height="12" viewBox="0 0 12 12">
<title>protection</title>
<path d="M6 12c-4.812-2.182-5.5-7.364-5.5-10.091 0.14-0.023 0.279-0.045 0.418-0.067 1.495-0.238 2.943-0.469 5.082-1.842 2.139 1.373 3.587 1.603 5.082 1.842 0.139 0.022 0.278 0.044 0.418 0.067 0 2.727-0.688 7.909-5.5 10.091zM5.5 10.602v-9.148c-1.578 0.845-2.82 1.111-3.977 1.302 0.136 2.479 0.93 5.95 3.977 7.845zM10.477 2.757c-1.156-0.192-2.399-0.457-3.977-1.302v9.148c3.047-1.895 3.841-5.366 3.977-7.845z"></path>
</svg>
