<!-- Generated by IcoMoon.io -->
<svg version="1.1" xmlns="http://www.w3.org/2000/svg" viewBox="0 0 12 12">
<title>refresh</title>
<path d="M7 1c2.282 0.473 4 2.532 4 5 0 1.39-0.545 2.651-1.429 3.571l1.429 1.429h-4l-0-1.047 0-0v-2.953l1.857 1.857c0.707-0.736 1.143-1.745 1.143-2.857 0-1.902-1.275-3.5-3-3.953l0-1.047zM5 1v4l-1.856-1.857c-0.707 0.736-1.144 1.745-1.144 2.857 0 1.902 1.274 3.5 2.999 3.953l-0 1.047c-2.282-0.473-3.999-2.532-3.999-5 0-1.39 0.545-2.651 1.429-3.571l-1.429-1.429h4z"></path>
</svg>
