<svg width="12" height="12" viewBox="0 0 12 12" fill="none" xmlns="http://www.w3.org/2000/svg">
<path d="M4.70593 10.8297C2.0386 10.1149 0.455686 7.37326 1.1704 4.70593C1.8851 2.0386 4.62679 0.455686 7.29412 1.1704C7.98242 1.35482 8.59738 1.67361 9.11938 2.09061C9.39594 2.31153 9.64662 2.5602 9.8683 2.83133C10.0402 3.04159 10.1946 3.26532 10.3301 3.5L8 3.5V4.5H12L12 0.499999L11 0.5L11 2.68324C10.8891 2.51595 10.7698 2.35409 10.6425 2.19836C10.3766 1.8732 10.0758 1.5747 9.74353 1.3093C9.11582 0.807863 8.37694 0.425259 7.55294 0.204469C4.35214 -0.653181 1.06212 1.24631 0.204469 4.44711C-0.653181 7.64791 1.24631 10.9379 4.44711 11.7956C7.64791 12.6532 10.9379 10.7537 11.7956 7.55294L10.8297 7.29412C10.1149 9.96145 7.37326 11.5444 4.70593 10.8297Z" fill="#4C505B"/>
</svg>
