<svg width="12" height="12" viewBox="0 0 12 12" >
<path d="M7.97886 2C10.2278 2 12.0395 3.83469 11.9993 6.07142C11.9602 8.25237 10.1717 10 7.97886 10H4V12L0 9.5L4 7V9H7.97886C9.62347 9 10.9649 7.68928 10.9942 6.05356C11.0243 4.37602 9.66553 3 7.97886 3V2Z" />
<path d="M2.42627 5.25H1.61963V2.03369C1.61963 1.9266 1.62077 1.8195 1.62305 1.7124C1.62533 1.60531 1.6276 1.50049 1.62988 1.39795C1.63444 1.29541 1.64014 1.19743 1.64697 1.104C1.59912 1.15641 1.53988 1.21338 1.46924 1.2749C1.40088 1.33643 1.32796 1.40023 1.25049 1.46631L0.67627 1.92432L0.272949 1.41504L1.75635 0.25293H2.42627V5.25Z" />
<path d="M5.26904 2.12598C5.59033 2.12598 5.87288 2.18408 6.1167 2.30029C6.36279 2.41423 6.5542 2.58284 6.69092 2.80615C6.82764 3.02718 6.896 3.29834 6.896 3.61963C6.896 3.97054 6.82194 4.2736 6.67383 4.52881C6.52572 4.78174 6.30811 4.97656 6.021 5.11328C5.73389 5.25 5.38411 5.31836 4.97168 5.31836C4.70964 5.31836 4.46468 5.29557 4.23682 5.25C4.01123 5.20443 3.81641 5.13607 3.65234 5.04492V4.32031C3.82324 4.41602 4.02832 4.49463 4.26758 4.55615C4.50684 4.6154 4.73584 4.64502 4.95459 4.64502C5.18701 4.64502 5.38639 4.61084 5.55273 4.54248C5.71908 4.47412 5.84668 4.3693 5.93555 4.22803C6.02669 4.08675 6.07227 3.90788 6.07227 3.69141C6.07227 3.4043 5.97998 3.18327 5.79541 3.02832C5.61312 2.87109 5.32715 2.79248 4.9375 2.79248C4.80078 2.79248 4.65495 2.80501 4.5 2.83008C4.34733 2.85286 4.21973 2.87793 4.11719 2.90527L3.76514 2.69678L3.95312 0.25293H6.55078V0.960449H4.66064L4.55127 2.20459C4.6333 2.18636 4.73128 2.16927 4.84521 2.15332C4.95915 2.13509 5.10042 2.12598 5.26904 2.12598Z" />
</svg>
