<svg width="12" height="12" viewBox="0 0 12 12" xmlns="http://www.w3.org/2000/svg" >
<path d="M2.51792 5.24813L2.52754 5.23457L6.77399 9.48102L6.76125 9.49007C5.58814 10.6612 3.68891 10.6617 2.51796 9.49073C1.34724 8.32001 1.34751 6.4213 2.51792 5.24813Z" />
<path fill-rule="evenodd" clip-rule="evenodd" d="M7.6005 8.89332L3.1143 4.40712L5.96573 0.386074C6.33501 -0.0887195 7.03687 -0.132412 7.46219 0.292911L11.7102 4.54091C12.1355 4.96623 12.0918 5.66808 11.617 6.03736L7.6005 8.89332ZM10.5147 5.58979L7.6753 7.57704L5.34644 5.24817H10.7234C10.7053 5.38036 10.6347 5.5058 10.5147 5.58979Z" />
<path d="M1 8H0V9H1V8Z" />
<path d="M1 10H0V11H1V10Z" />
<path d="M3 11H2V12H3V11Z" />
</svg>
