<svg width="12" height="12" viewBox="0 0 12 12" >
<path d="M5.3464 5.24819L6.95733 6.85911L9.25906 5.24819H5.3464Z" />
<path fill-rule="evenodd" clip-rule="evenodd" d="M2.51244 5.24266L5.96573 0.386074C6.33501 -0.0887195 7.03687 -0.132412 7.46219 0.292911L11.7102 4.54091C12.1355 4.96623 12.0918 5.66808 11.617 6.03736L6.76125 9.49007C5.58814 10.6612 3.68891 10.6617 2.51796 9.49073C1.34724 8.32001 1.34204 6.41582 2.51244 5.24266ZM3.84381 5.15972L6.84337 8.15929L10.5148 5.58976C10.7695 5.41148 10.8015 5.04642 10.5816 4.82657L7.17653 1.42146C6.95668 1.20161 6.59161 1.23359 6.41333 1.48832L3.84381 5.15972ZM3.20972 5.93994C2.42185 6.73058 2.42194 8.00945 3.21059 8.7981C3.99923 9.58675 5.27811 9.58684 6.06875 8.79896L3.20972 5.93994Z" />
<path d="M1 8H0V9H1V8Z" />
<path d="M0 10H1V11H0V10Z" />
<path d="M3 11H2V12H3V11Z" />
</svg>
