<svg width="12" height="12" viewBox="0 0 12 12" >
<path fill-rule="evenodd" clip-rule="evenodd" d="M6 10C7.38071 10 8.5 8.88071 8.5 7.5C8.5 6.11929 7.38071 5 6 5C4.61929 5 3.5 6.11929 3.5 7.5C3.5 8.88071 4.61929 10 6 10ZM6 9C6.82843 9 7.5 8.32843 7.5 7.5C7.5 6.84689 7.0826 6.29127 6.5 6.08535V7.5H5.5V6.08535C4.9174 6.29127 4.5 6.84689 4.5 7.5C4.5 8.32843 5.17157 9 6 9Z" />
<path fill-rule="evenodd" clip-rule="evenodd" d="M2 2H5.5V3H1L0 12H12L11 3H6.5V2H10V1H2V2ZM1.89504 4H10.105L10.8827 11H1.11726L1.89504 4Z" />
</svg>
