<svg width="12" height="12" viewBox="0 0 12 12" xmlns="http://www.w3.org/2000/svg">
<path d="M2.65622 6.93365L6.00251 8.8414L10.1209 6.52995V8.66405L9.87079 8.80907C9.75775 8.87495 9.64158 8.94051 9.52544 9.00798C9.11672 9.24543 8.69122 9.49088 8.27108 9.7311C7.54489 10.1463 6.83336 10.5482 6.24465 10.8648L5.99259 11L5.74549 10.8569L5.74052 10.854C5.73689 10.852 5.7304 10.849 5.72365 10.8452C5.7095 10.837 5.688 10.8244 5.66113 10.8089C5.60644 10.7775 5.52578 10.7307 5.42495 10.6727L4.59532 10.1955C3.9155 9.80438 3.0255 9.29175 2.18881 8.81005L1.93675 8.66503V6.51917L2.65622 6.93365Z"/>
<path d="M6.05312 1.01343L11.9518 4.41153C11.9927 4.43531 12.0062 4.47943 11.9974 4.51931V7.00419H10.9813V5.15425C9.67256 5.92624 7.49972 7.19985 6.05114 7.9811C6.02003 7.99781 5.98649 7.99867 5.95587 7.9811C5.44814 7.68902 0.92658 5.08859 0.048261 4.58006C-0.0180375 4.54162 -0.0150622 4.44988 0.0512381 4.41153C2.2706 3.13412 5.51119 1.26738 5.9519 1.01343C5.98332 0.995534 6.02171 0.995515 6.05312 1.01343Z"/>
</svg>
