<svg width="12" height="12" viewBox="0 0 12 12" xmlns="http://www.w3.org/2000/svg">
<path fill-rule="evenodd" clip-rule="evenodd" d="M6.05333 1.01396L11.9511 4.41123C11.9934 4.43557 12.007 4.48201 11.9967 4.52294V7.005H10.9805V5.15399C10.7234 5.30575 10.433 5.47683 10.1211 5.65961V8.66395L9.87105 8.80897C8.67225 9.50774 7.27143 10.3127 6.24486 10.8648L5.99279 11L5.74569 10.8569C5.74485 10.8565 5.74233 10.855 5.74073 10.854C5.73716 10.8519 5.73084 10.8492 5.72386 10.8452C5.70971 10.837 5.68844 10.8245 5.66134 10.8089C5.60663 10.7775 5.52621 10.7309 5.42515 10.6727C5.22262 10.5562 4.935 10.3909 4.59551 10.1955C3.91563 9.8043 3.02582 9.29176 2.18897 8.80995L1.9369 8.66493V5.66647L0.0483885 4.57977C-0.0180299 4.54131 -0.0151572 4.4505 0.0513657 4.41221C2.2716 3.13426 5.51338 1.2658 5.95211 1.01298C5.9836 0.995168 6.02192 0.995872 6.05333 1.01396ZM2.95311 8.08875C3.71322 8.52634 4.4947 8.97623 5.10659 9.32831C5.44643 9.52386 5.73461 9.68993 5.93722 9.8065C5.96141 9.82041 5.98498 9.83321 6.00669 9.84569C6.91494 9.35066 8.06506 8.69336 9.10492 8.08875V6.25538C8.05528 6.86446 6.92246 7.51211 6.05134 7.98195L6.00272 7.99468L5.95608 7.98195L2.95311 6.25244V8.08875ZM1.92102 4.49648C3.25675 5.26594 5.12911 6.34421 6.01363 6.85311C7.28311 6.1537 8.92823 5.19506 10.0993 4.50628L6.00172 2.14573C5.17794 2.62041 3.49074 3.59254 1.92102 4.49648Z"/>
</svg>
