<svg width="12" height="12" viewBox="0 0 12 12" fill="none" xmlns="http://www.w3.org/2000/svg">
<path d="M6.00004 8C5.01851 8 4.14706 8.47138 3.59975 9.2001C3.33058 8.99789 3.08775 8.76251 2.87733 8.50003C3.61039 7.58555 4.73684 7 6.00004 7C7.26322 7 8.38965 7.58553 9.12271 8.49997C8.91229 8.76246 8.66947 8.99784 8.40031 9.20006C7.85299 8.47136 6.98156 8 6.00004 8Z" fill="#4C505B"/>
<path d="M5 5C5 5.55228 4.55228 6 4 6C3.44772 6 3 5.55228 3 5C3 4.44772 3.44772 4 4 4C4.55228 4 5 4.44772 5 5Z" fill="#4C505B"/>
<path d="M8 6C8.55229 6 9 5.55228 9 5C9 4.44772 8.55229 4 8 4C7.44772 4 7 4.44772 7 5C7 5.55228 7.44772 6 8 6Z" fill="#4C505B"/>
<path fill-rule="evenodd" clip-rule="evenodd" d="M12 6C12 9.31371 9.31371 12 6 12C2.68629 12 0 9.31371 0 6C0 2.68629 2.68629 0 6 0C9.31371 0 12 2.68629 12 6ZM9.00049 10C8.16474 10.6279 7.12583 11 6 11C4.87417 11 3.83526 10.6279 2.99951 10L2.96052 9.9704C2.73556 9.79793 2.52568 9.60677 2.33321 9.39924C1.50583 8.50716 1 7.31265 1 6C1 3.23858 3.23858 1 6 1C8.76142 1 11 3.23858 11 6C11 7.31262 10.4942 8.50711 9.66685 9.39918C9.65113 9.41613 9.63529 9.43297 9.61934 9.4497C9.42873 9.64962 9.22173 9.83378 9.00049 10Z" fill="#4C505B"/>
</svg>
