<svg width="12" height="12" viewBox="0 0 12 12" fill="none" xmlns="http://www.w3.org/2000/svg">
<path fill-rule="evenodd" clip-rule="evenodd" d="M6 12C9.31371 12 12 9.31371 12 6C12 2.68629 9.31371 0 6 0C2.68629 0 0 2.68629 0 6C0 9.31371 2.68629 12 6 12ZM5 5C5 5.55228 4.55228 6 4 6C3.44772 6 3 5.55228 3 5C3 4.44772 3.44772 4 4 4C4.55228 4 5 4.44772 5 5ZM8 6C8.55229 6 9 5.55228 9 5C9 4.44772 8.55229 4 8 4C7.44772 4 7 4.44772 7 5C7 5.55228 7.44772 6 8 6ZM5.99996 10C4.13612 10 2.57002 8.72523 2.12598 7H9.87394C9.4299 8.72523 7.8638 10 5.99996 10Z" fill="#4C505B"/>
</svg>
