<svg xmlns="http://www.w3.org/2000/svg" width="16" height="16" stroke-width="0.67" viewBox="0 0 16 16">
  <path fill="currentColor" fill-rule="evenodd" d="M.25 8.000002a7.750002 7.750002 0 1 0 15.500004 0 7.750002 7.750002 0 1 0-15.500004 0m4.594678 1.366862q3.155324 3.155443 6.310648 0l.8432.8432q-1.963254 1.963016-3.998524 1.963016t-3.998524-1.963016Zm-.4216-3.751478a.596154.596154 0 1 0 1.192308 0 .596154.596154 0 1 0-1.192308 0m5.96154 0a.596154.596154 0 1 0 1.192308 0 .596154.596154 0 1 0-1.192308 0"/>
</svg>
