<svg width="12" height="12" viewBox="0 0 12 12" fill="none" xmlns="http://www.w3.org/2000/svg">
<path d="M5.87402 9C6.85555 9 7.72699 8.52863 8.27431 7.79991C8.54347 8.00212 8.7863 8.2375 8.99671 8.49998C8.26365 9.41446 7.13722 10 5.87402 10C4.61083 10 3.4844 9.41447 2.75134 8.50002C2.96176 8.23753 3.20458 8.00215 3.47374 7.79993C4.02106 8.52864 4.89249 9 5.87402 9Z" fill="#4C505B"/>
<path d="M5 5C5 5.55228 4.55228 6 4 6C3.44772 6 3 5.55228 3 5C3 4.44772 3.44772 4 4 4C4.55228 4 5 4.44772 5 5Z" fill="#4C505B"/>
<path d="M8 6C8.55229 6 9 5.55228 9 5C9 4.44772 8.55229 4 8 4C7.44772 4 7 4.44772 7 5C7 5.55228 7.44772 6 8 6Z" fill="#4C505B"/>
<path fill-rule="evenodd" clip-rule="evenodd" d="M12 6C12 9.31371 9.31371 12 6 12C2.68629 12 0 9.31371 0 6C0 2.68629 2.68629 0 6 0C9.31371 0 12 2.68629 12 6ZM11 6C11 8.76142 8.76142 11 6 11C3.23858 11 1 8.76142 1 6C1 3.23858 3.23858 1 6 1C8.76142 1 11 3.23858 11 6Z" fill="#4C505B"/>
</svg>
