<svg width="12" height="12" viewBox="0 0 12 12" fill="none" xmlns="http://www.w3.org/2000/svg">
<path fill-rule="evenodd" clip-rule="evenodd" d="M6 12C9.31371 12 12 9.31371 12 6C12 2.68629 9.31371 0 6 0C2.68629 0 0 2.68629 0 6C0 9.31371 2.68629 12 6 12ZM4.99998 5C4.99998 5.55228 4.55227 6 3.99998 6C3.4477 6 2.99998 5.55228 2.99998 5C2.99998 4.44772 3.4477 4 3.99998 4C4.55227 4 4.99998 4.44772 4.99998 5ZM6.00003 8C5.01849 8 4.14705 8.47138 3.59973 9.2001C3.33056 8.99789 3.08774 8.76251 2.87732 8.50003C3.61038 7.58555 4.73682 7 6.00003 7C7.26321 7 8.38963 7.58553 9.12269 8.49997C8.91228 8.76246 8.66946 8.99784 8.40029 9.20006C7.85297 8.47136 6.98154 8 6.00003 8ZM8.99998 5C8.99998 5.55228 8.55227 6 7.99998 6C7.4477 6 6.99998 5.55228 6.99998 5C6.99998 4.44772 7.4477 4 7.99998 4C8.55227 4 8.99998 4.44772 8.99998 5Z" fill="#4C505B"/>
</svg>
