<svg width="12" height="12" viewBox="0 0 12 12" fill="none" xmlns="http://www.w3.org/2000/svg">
<path d="M5 5C5 5.55228 4.55228 6 4 6C3.44772 6 3 5.55228 3 5C3 4.64678 3.18313 4.33634 3.45962 4.15843L2.74118 3.96593L3 3L5.41481 3.64705L5.156 4.61297L4.88888 4.5414C4.95989 4.67876 5 4.8347 5 5Z" fill="#4C505B"/>
<path d="M8 6C8.55229 6 9 5.55228 9 5C9 4.64678 8.81687 4.33634 8.54038 4.15843L9.25882 3.96593L9 3L6.58519 3.64705L6.844 4.61297L7.11112 4.5414C7.04011 4.67876 7 4.8347 7 5C7 5.55228 7.44772 6 8 6Z" fill="#4C505B"/>
<path d="M6.00001 8C5.06792 8 4.28475 8.63763 4.0629 9.50049C3.75402 9.3292 3.4702 9.11821 3.21832 8.87441C3.66351 7.77529 4.74123 7 6.00001 7C7.2588 7 8.33652 7.77529 8.78171 8.87441C8.52983 9.11821 8.24601 9.3292 7.93713 9.50049C7.71528 8.63763 6.93211 8 6.00001 8Z" fill="#4C505B"/>
<path fill-rule="evenodd" clip-rule="evenodd" d="M6 12C9.31371 12 12 9.31371 12 6C12 2.68629 9.31371 0 6 0C2.68629 0 0 2.68629 0 6C0 9.31371 2.68629 12 6 12ZM6 11C7.12583 11 8.16474 10.6279 9.00049 10C9.22173 9.83378 9.42873 9.64962 9.61934 9.4497C9.63529 9.43297 9.65113 9.41613 9.66685 9.39918C10.4942 8.50711 11 7.31262 11 6C11 3.23858 8.76142 1 6 1C3.23858 1 1 3.23858 1 6C1 7.31265 1.50583 8.50716 2.33321 9.39924C2.52568 9.60677 2.73556 9.79793 2.96052 9.9704L2.99951 10C3.83526 10.6279 4.87417 11 6 11Z" fill="#4C505B"/>
</svg>
