<svg width="12" height="12" viewBox="0 0 12 12" fill="none" xmlns="http://www.w3.org/2000/svg">
<path d="M5 5C5 5.55228 4.55228 6 4 6C3.44772 6 3 5.55228 3 5C3 4.44772 3.44772 4 4 4C4.55228 4 5 4.44772 5 5Z" fill="#4C505B"/>
<path d="M8 6C8.55229 6 9 5.55228 9 5C9 4.44772 8.55229 4 8 4C7.44772 4 7 4.44772 7 5C7 5.55228 7.44772 6 8 6Z" fill="#4C505B"/>
<path fill-rule="evenodd" clip-rule="evenodd" d="M12 6C12 9.31371 9.31371 12 6 12C2.68629 12 0 9.31371 0 6C0 2.68629 2.68629 0 6 0C9.31371 0 12 2.68629 12 6ZM11 6C11 8.76142 8.76142 11 6 11C3.23858 11 1 8.76142 1 6C1 3.23858 3.23858 1 6 1C8.76142 1 11 3.23858 11 6Z" fill="#4C505B"/>
<path fill-rule="evenodd" clip-rule="evenodd" d="M5.99999 10C4.13615 10 2.57005 8.72523 2.12601 7H9.87397C9.42993 8.72523 7.86383 10 5.99999 10ZM8.2361 8H3.76388C4.3132 8.61375 5.11149 9 5.99999 9C6.88849 9 7.68677 8.61375 8.2361 8Z" fill="#4C505B"/>
</svg>
