<svg width="12" height="12" viewBox="0 0 12 12" fill="none" xmlns="http://www.w3.org/2000/svg">
<path fill-rule="evenodd" clip-rule="evenodd" d="M6 12C9.31371 12 12 9.31371 12 6C12 2.68629 9.31371 0 6 0C2.68629 0 0 2.68629 0 6C0 9.31371 2.68629 12 6 12ZM3.00003 3L5.41484 3.64705L5.15603 4.61297L4.88891 4.5414C4.95992 4.67876 5.00003 4.8347 5.00003 5C5.00003 5.55228 4.55231 6 4.00003 6C3.44775 6 3.00003 5.55228 3.00003 5C3.00003 4.64678 3.18316 4.33634 3.45965 4.15843L2.74121 3.96593L3.00003 3ZM8.00003 6C8.55231 6 9.00003 5.55228 9.00003 5C9.00003 4.64678 8.8169 4.33634 8.54041 4.15843L9.25885 3.96593L9.00003 3L6.58522 3.64705L6.84403 4.61297L7.11115 4.5414C7.04014 4.67876 7.00003 4.8347 7.00003 5C7.00003 5.55228 7.44775 6 8.00003 6ZM4.06293 9.50049C4.28478 8.63763 5.06795 8 6.00004 8C6.93214 8 7.71531 8.63763 7.93716 9.50049C8.24604 9.3292 8.52986 9.11821 8.78174 8.87441C8.33655 7.77529 7.25883 7 6.00004 7C4.74126 7 3.66354 7.77529 3.21835 8.87441C3.47023 9.11821 3.75405 9.3292 4.06293 9.50049Z" fill="#4C505B"/>
</svg>
