<svg width="12" height="12" viewBox="0 0 12 12" fill="none" xmlns="http://www.w3.org/2000/svg">
<path fill-rule="evenodd" clip-rule="evenodd" d="M6.99665 0.0823975C6.95475 0.596137 6.52454 0.999999 6 0.999999C5.47546 0.999999 5.04525 0.596137 5.00335 0.0823975C4.08923 0.235224 3.24511 0.594731 2.52067 1.11124C2.85399 1.50414 2.83526 2.09367 2.46447 2.46447C2.09367 2.83526 1.50414 2.85399 1.11124 2.52067C0.59473 3.24511 0.235224 4.08923 0.0823975 5.00335C0.596137 5.04525 1 5.47546 1 6C1 6.52454 0.596137 6.95475 0.0823975 6.99665C0.235225 7.91077 0.594732 8.75489 1.11124 9.47933C1.50414 9.14601 2.09367 9.16474 2.46447 9.53553C2.83526 9.90633 2.85399 10.4959 2.52067 10.8888C3.24511 11.4053 4.08923 11.7648 5.00335 11.9176C5.04525 11.4039 5.47546 11 6 11C6.52454 11 6.95475 11.4039 6.99665 11.9176C7.91077 11.7648 8.75489 11.4053 9.47933 10.8888C9.14601 10.4959 9.16474 9.90633 9.53553 9.53553C9.90633 9.16474 10.4959 9.14601 10.8888 9.47933C11.4053 8.75489 11.7648 7.91077 11.9176 6.99665C11.4039 6.95475 11 6.52454 11 6C11 5.47546 11.4039 5.04525 11.9176 5.00335C11.7648 4.08923 11.4053 3.24511 10.8888 2.52067C10.4959 2.85399 9.90633 2.83526 9.53553 2.46447C9.16474 2.09367 9.14601 1.50414 9.47933 1.11124C8.75489 0.594731 7.91077 0.235224 6.99665 0.0823975ZM6 8C7.10457 8 8 7.10457 8 6C8 4.89543 7.10457 4 6 4C4.89543 4 4 4.89543 4 6C4 7.10457 4.89543 8 6 8Z" fill="#4C505B"/>
</svg>
