<!-- Generated by IcoMoon.io -->
<svg version="1.1" xmlns="http://www.w3.org/2000/svg" width="12" height="12" viewBox="0 0 12 12">
<title>settings</title>
<path d="M9 6.004c0-1.657-1.343-3-3-3s-3 1.343-3 3c0 1.657 1.343 3 3 3s3-1.343 3-3zM8 6.004c0 1.105-0.895 2-2 2s-2-0.895-2-2c0-1.105 0.895-2 2-2s2 0.895 2 2z"></path>
<path d="M5.109 0.715c0.266 0.188 0.563 0.281 0.891 0.281s0.621-0.094 0.879-0.281c0.266-0.188 0.453-0.426 0.563-0.715 0.32 0.078 0.629 0.18 0.926 0.305s0.582 0.273 0.855 0.445c-0.125 0.281-0.16 0.578-0.105 0.891s0.195 0.586 0.422 0.82c0.156 0.148 0.328 0.262 0.516 0.34s0.379 0.117 0.574 0.117c0.109 0 0.215-0.012 0.316-0.035 0.109-0.023 0.215-0.059 0.316-0.105 0.164 0.273 0.309 0.562 0.434 0.867 0.125 0.297 0.227 0.605 0.305 0.926-0.289 0.109-0.527 0.293-0.715 0.551-0.18 0.258-0.27 0.551-0.27 0.879s0.090 0.625 0.27 0.891c0.188 0.258 0.426 0.441 0.715 0.551-0.078 0.32-0.18 0.633-0.305 0.938-0.125 0.297-0.269 0.582-0.434 0.855-0.101-0.047-0.207-0.082-0.316-0.105-0.101-0.023-0.207-0.035-0.316-0.035-0.195 0-0.387 0.039-0.574 0.117s-0.359 0.191-0.516 0.34c-0.227 0.234-0.367 0.508-0.422 0.82s-0.020 0.609 0.105 0.891c-0.273 0.172-0.559 0.32-0.855 0.445s-0.605 0.223-0.926 0.293c-0.109-0.289-0.297-0.527-0.563-0.715-0.258-0.18-0.551-0.27-0.879-0.27s-0.625 0.090-0.891 0.27c-0.258 0.188-0.441 0.426-0.551 0.715-0.32-0.070-0.629-0.168-0.926-0.293s-0.582-0.273-0.855-0.445c0.125-0.281 0.16-0.578 0.105-0.891s-0.195-0.586-0.422-0.82c-0.156-0.148-0.328-0.262-0.516-0.34s-0.379-0.117-0.574-0.117c-0.109 0-0.219 0.012-0.328 0.035-0.102 0.023-0.203 0.059-0.305 0.105-0.164-0.273-0.309-0.559-0.434-0.855-0.125-0.305-0.227-0.617-0.305-0.938 0.289-0.109 0.523-0.293 0.703-0.551 0.188-0.266 0.281-0.563 0.281-0.891s-0.094-0.621-0.281-0.879c-0.18-0.258-0.414-0.441-0.703-0.551 0.078-0.32 0.18-0.629 0.305-0.926 0.125-0.305 0.27-0.594 0.434-0.867 0.102 0.047 0.203 0.082 0.305 0.105 0.109 0.023 0.219 0.035 0.328 0.035 0.195 0 0.387-0.039 0.574-0.117s0.359-0.191 0.516-0.34c0.227-0.234 0.367-0.508 0.422-0.82s0.020-0.609-0.105-0.891c0.273-0.172 0.559-0.32 0.855-0.445s0.605-0.227 0.926-0.305c0.109 0.289 0.293 0.527 0.551 0.715zM5.438 1.746c-0.211-0.047-0.402-0.125-0.574-0.234-0.211-0.133-0.367-0.25-0.469-0.352l-0.141-0.164-0.281 0.129-0.281 0.117 0.012 0.27c0.016 0.172-0.004 0.375-0.059 0.609-0.047 0.203-0.102 0.367-0.164 0.492-0.055 0.125-0.191 0.281-0.41 0.469-0.219 0.195-0.406 0.344-0.563 0.445-0.156 0.094-0.379 0.152-0.668 0.176-0.258 0.031-0.445 0.039-0.563 0.023l-0.176-0.023-0.105 0.27-0.094 0.258 0.199 0.141c0.141 0.086 0.277 0.25 0.41 0.492 0.094 0.156 0.164 0.316 0.211 0.48s0.070 0.383 0.070 0.656c0 0.281-0.031 0.516-0.094 0.703-0.055 0.188-0.145 0.363-0.27 0.527-0.18 0.234-0.313 0.387-0.398 0.457l-0.129 0.105 0.094 0.258 0.105 0.246 0.223 0.012c0.148 0.008 0.352 0.035 0.609 0.082 0.242 0.047 0.437 0.113 0.586 0.199 0.156 0.086 0.32 0.215 0.492 0.387 0.195 0.203 0.328 0.379 0.398 0.527 0.070 0.141 0.137 0.344 0.199 0.609 0.039 0.219 0.059 0.398 0.059 0.539v0.211c0.229 0.076 0.341 0.115 0.336 0.116 0.056 0.018 0.139 0.046 0.25 0.083l0.141-0.176c0.094-0.125 0.25-0.25 0.469-0.375s0.391-0.203 0.516-0.234c0.133-0.039 0.34-0.059 0.621-0.059s0.496 0.031 0.645 0.094c0.148 0.062 0.313 0.148 0.492 0.258 0.156 0.109 0.293 0.23 0.41 0.363s0.176 0.191 0.176 0.176l0.070-0.035c0.055-0.016 0.234-0.086 0.539-0.211l-0.023-0.223c-0.008-0.156 0.012-0.367 0.059-0.633 0.047-0.219 0.102-0.406 0.164-0.562 0.070-0.164 0.207-0.34 0.41-0.527 0.18-0.164 0.34-0.289 0.48-0.375 0.148-0.086 0.355-0.145 0.621-0.176 0.242-0.023 0.434-0.031 0.574-0.023 0.148 0.008 0.23 0.016 0.246 0.023l0.117-0.246c0.078-0.164 0.125-0.258 0.141-0.281l-0.176-0.152c-0.109-0.102-0.238-0.277-0.387-0.527-0.109-0.18-0.195-0.344-0.258-0.492-0.055-0.156-0.082-0.379-0.082-0.668 0-0.281 0.035-0.52 0.105-0.715 0.078-0.195 0.18-0.375 0.305-0.539 0.125-0.172 0.234-0.297 0.328-0.375l0.141-0.117-0.117-0.293c-0.070-0.203-0.082-0.305-0.082-0.305l-0.211 0.023c-0.141 0.016-0.355-0.012-0.644-0.082-0.258-0.062-0.461-0.121-0.609-0.176-0.141-0.055-0.305-0.18-0.492-0.375-0.172-0.188-0.313-0.375-0.422-0.563-0.109-0.195-0.172-0.398-0.188-0.609-0.023-0.234-0.031-0.41-0.023-0.527l0.023-0.188-0.281-0.117-0.27-0.117-0.105 0.141c-0.062 0.086-0.203 0.199-0.422 0.34-0.164 0.117-0.34 0.215-0.527 0.293-0.18 0.070-0.387 0.105-0.621 0.105s-0.457-0.020-0.668-0.059z"></path>
</svg>
