<!-- Generated by IcoMoon.io -->
<svg version="1.1" xmlns="http://www.w3.org/2000/svg" width="12" height="12" viewBox="0 0 12 12">
<title>settings-solid</title>
<path d="M6 0.996c0.328 0 0.621-0.094 0.879-0.281 0.266-0.188 0.453-0.426 0.563-0.715 0.32 0.078 0.629 0.18 0.926 0.305s0.582 0.273 0.855 0.445c-0.125 0.281-0.16 0.578-0.105 0.891s0.195 0.586 0.422 0.82c0.156 0.148 0.328 0.262 0.516 0.34s0.379 0.117 0.574 0.117c0.109 0 0.215-0.012 0.316-0.035 0.109-0.023 0.215-0.059 0.316-0.105 0.164 0.273 0.309 0.562 0.434 0.867 0.125 0.297 0.227 0.605 0.305 0.926-0.289 0.109-0.527 0.293-0.715 0.551-0.18 0.258-0.27 0.551-0.27 0.879s0.090 0.625 0.27 0.891c0.188 0.258 0.426 0.441 0.715 0.551-0.078 0.32-0.18 0.633-0.305 0.938-0.125 0.297-0.269 0.582-0.434 0.855-0.101-0.047-0.207-0.082-0.316-0.105-0.101-0.023-0.207-0.035-0.316-0.035-0.195 0-0.387 0.039-0.574 0.117s-0.359 0.191-0.516 0.34c-0.227 0.234-0.367 0.508-0.422 0.82s-0.020 0.609 0.105 0.891c-0.273 0.172-0.559 0.32-0.855 0.445s-0.605 0.223-0.926 0.293c-0.109-0.289-0.297-0.527-0.563-0.715-0.258-0.18-0.551-0.27-0.879-0.27s-0.625 0.090-0.891 0.27c-0.258 0.188-0.441 0.426-0.551 0.715-0.32-0.070-0.629-0.168-0.926-0.293s-0.582-0.273-0.855-0.445c0.125-0.281 0.16-0.578 0.105-0.891s-0.195-0.586-0.422-0.82c-0.156-0.148-0.328-0.262-0.516-0.34s-0.379-0.117-0.574-0.117c-0.109 0-0.219 0.012-0.328 0.035-0.102 0.023-0.203 0.059-0.305 0.105-0.164-0.273-0.309-0.559-0.434-0.855-0.125-0.305-0.227-0.617-0.305-0.938 0.289-0.109 0.523-0.293 0.703-0.551 0.188-0.266 0.281-0.563 0.281-0.891s-0.094-0.621-0.281-0.879c-0.18-0.258-0.414-0.441-0.703-0.551 0.078-0.32 0.18-0.629 0.305-0.926 0.125-0.305 0.27-0.594 0.434-0.867 0.102 0.047 0.203 0.082 0.305 0.105 0.109 0.023 0.219 0.035 0.328 0.035 0.195 0 0.387-0.039 0.574-0.117s0.359-0.191 0.516-0.34c0.227-0.234 0.367-0.508 0.422-0.82s0.020-0.609-0.105-0.891c0.273-0.172 0.559-0.32 0.855-0.445s0.605-0.227 0.926-0.305c0.109 0.289 0.293 0.527 0.551 0.715 0.266 0.188 0.563 0.281 0.891 0.281zM6 8.504c1.381 0 2.5-1.119 2.5-2.5s-1.119-2.5-2.5-2.5c-1.381 0-2.5 1.119-2.5 2.5s1.119 2.5 2.5 2.5z"></path>
</svg>
