<svg width="12" height="12" viewBox="0 0 12 12" fill="none" xmlns="http://www.w3.org/2000/svg">
<path fill-rule="evenodd" clip-rule="evenodd" d="M9 6C9 7.65685 7.65685 9 6 9C4.34315 9 3 7.65685 3 6C3 4.34315 4.34315 3 6 3C7.65685 3 9 4.34315 9 6ZM8 6C8 7.10457 7.10457 8 6 8C4.89543 8 4 7.10457 4 6C4 4.89543 4.89543 4 6 4C7.10457 4 8 4.89543 8 6Z" fill="#4C505B"/>
<path fill-rule="evenodd" clip-rule="evenodd" d="M10.7519 2.61828C10.3682 2.84555 9.86535 2.79428 9.53553 2.46447C9.20572 2.13465 9.15445 1.63177 9.38172 1.24815C9.40996 1.20049 9.44249 1.15466 9.47933 1.11124C9.20667 0.916843 8.91706 0.744685 8.61314 0.597414C8.40596 0.497016 8.19212 0.408184 7.97248 0.33176C7.65827 0.222432 7.33218 0.138492 6.99665 0.0823975C6.99202 0.139227 6.98263 0.194713 6.96889 0.248456C6.85842 0.680545 6.46652 0.999999 6 0.999999C5.53348 0.999999 5.14158 0.680545 5.03111 0.248456C5.01737 0.194713 5.00798 0.139227 5.00335 0.0823975C4.66782 0.138492 4.34173 0.222432 4.02752 0.331759C3.80788 0.408184 3.59404 0.497014 3.38686 0.597412C3.08294 0.744683 2.79333 0.916843 2.52067 1.11124C2.55751 1.15466 2.59004 1.20049 2.61828 1.24815C2.84555 1.63177 2.79428 2.13465 2.46447 2.46447C2.13465 2.79428 1.63177 2.84555 1.24815 2.61828C1.20049 2.59004 1.15466 2.55751 1.11124 2.52067C0.916842 2.79333 0.744682 3.08294 0.597412 3.38686C0.497014 3.59404 0.408184 3.80788 0.331759 4.02752C0.222432 4.34173 0.138492 4.66782 0.0823975 5.00335C0.139228 5.00798 0.194715 5.01737 0.248459 5.03111C0.680547 5.14158 1 5.53349 1 6C1 6.46651 0.680547 6.85842 0.248458 6.96889C0.194714 6.98263 0.139228 6.99202 0.0823975 6.99665C0.138492 7.33218 0.222432 7.65827 0.33176 7.97248C0.408185 8.19212 0.497017 8.40595 0.597415 8.61314C0.744686 8.91706 0.916844 9.20667 1.11124 9.47933C1.15466 9.44249 1.20049 9.40996 1.24815 9.38172C1.63177 9.15445 2.13465 9.20572 2.46447 9.53553C2.79428 9.86535 2.84555 10.3682 2.61828 10.7519C2.59004 10.7995 2.55751 10.8453 2.52067 10.8888C2.79333 11.0832 3.08294 11.2553 3.38686 11.4026C3.59405 11.503 3.80788 11.5918 4.02752 11.6682C4.34173 11.7776 4.66782 11.8615 5.00335 11.9176C5.00798 11.8608 5.01737 11.8053 5.03111 11.7515C5.14158 11.3195 5.53349 11 6 11C6.46651 11 6.85842 11.3195 6.96889 11.7515C6.98263 11.8053 6.99202 11.8608 6.99665 11.9176C7.33218 11.8615 7.65827 11.7776 7.97248 11.6682C8.19212 11.5918 8.40595 11.503 8.61314 11.4026C8.91706 11.2553 9.20667 11.0832 9.47933 10.8888C9.44249 10.8453 9.40996 10.7995 9.38172 10.7519C9.15445 10.3682 9.20572 9.86535 9.53553 9.53553C9.86535 9.20572 10.3682 9.15445 10.7519 9.38172C10.7995 9.40996 10.8453 9.44249 10.8888 9.47933C11.0832 9.20667 11.2553 8.91706 11.4026 8.61314C11.503 8.40595 11.5918 8.19212 11.6682 7.97248C11.7776 7.65827 11.8615 7.33218 11.9176 6.99665C11.8608 6.99202 11.8053 6.98263 11.7515 6.96889C11.3195 6.85842 11 6.46651 11 6C11 5.53348 11.3195 5.14158 11.7515 5.03111C11.8053 5.01737 11.8608 5.00798 11.9176 5.00335C11.8615 4.66782 11.7776 4.34173 11.6682 4.02752C11.5918 3.80788 11.503 3.59405 11.4026 3.38686C11.2553 3.08294 11.0832 2.79333 10.8888 2.52067C10.8453 2.55751 10.7995 2.59004 10.7519 2.61828ZM6 2C6.63239 2 7.19591 1.70675 7.56233 1.24865C7.80163 1.32728 8.033 1.42352 8.25494 1.5359C8.19023 2.11881 8.38135 2.72449 8.82843 3.17157C9.27551 3.61865 9.88119 3.80977 10.4641 3.74506C10.5765 3.967 10.6727 4.19837 10.7514 4.43767C10.2933 4.80409 10 5.36761 10 6C10 6.63239 10.2933 7.19591 10.7513 7.56233C10.6727 7.80163 10.5765 8.033 10.4641 8.25494C9.88119 8.19023 9.27551 8.38135 8.82843 8.82843C8.38135 9.27551 8.19023 9.88119 8.25494 10.4641C8.033 10.5765 7.80162 10.6727 7.56233 10.7513C7.19591 10.2933 6.63239 10 6 10C5.36761 10 4.80409 10.2933 4.43767 10.7513C4.19837 10.6727 3.967 10.5765 3.74506 10.4641C3.80977 9.88119 3.61865 9.27551 3.17157 8.82843C2.72449 8.38135 2.11881 8.19023 1.5359 8.25494C1.42353 8.033 1.32728 7.80162 1.24865 7.56233C1.70674 7.19591 2 6.63239 2 6C2 5.36761 1.70675 4.80409 1.24865 4.43767C1.32728 4.19837 1.42352 3.967 1.5359 3.74506C2.11881 3.80978 2.72449 3.61865 3.17157 3.17157C3.61865 2.72449 3.80977 2.11881 3.74506 1.5359C3.967 1.42352 4.19837 1.32728 4.43767 1.24865C4.80409 1.70674 5.36761 2 6 2Z" fill="#4C505B"/>
</svg>
