<svg width="12" height="12" viewBox="0 0 12 12" >
<path d="M12 2C12 3.10457 11.1046 4 10 4C9.39804 4 8.85819 3.73406 8.49154 3.31326L3.95604 5.58101C3.98484 5.71613 4 5.85629 4 6C4 6.14372 3.98484 6.28389 3.95604 6.41901L8.49152 8.68676C8.85818 8.26595 9.39803 8 10 8C11.1046 8 12 8.89543 12 10C12 11.1046 11.1046 12 10 12C8.89543 12 8 11.1046 8 10C8 9.85629 8.01516 9.71612 8.04396 9.58101L3.50846 7.31326C3.14181 7.73406 2.60196 8 2 8C0.895431 8 0 7.10457 0 6C0 4.89543 0.895431 4 2 4C2.60197 4 3.14183 4.26595 3.50848 4.68676L8.04396 2.41902C8.01516 2.28389 8 2.14372 8 2C8 0.895431 8.89543 0 10 0C11.1046 0 12 0.895431 12 2Z" />
</svg>
