<!-- Generated by IcoMoon.io -->
<svg version="1.1" xmlns="http://www.w3.org/2000/svg" viewBox="0 0 12 12">
<title>share</title>
<path d="M10 0c1.105 0 2 0.895 2 2s-0.895 2-2 2c-0.685 0-1.29-0.345-1.65-0.87l-4.47 2.185c0.078 0.214 0.12 0.444 0.12 0.685 0 0.223-0.036 0.437-0.104 0.637l4.483 2.191c0.363-0.502 0.954-0.828 1.621-0.828 1.105 0 2 0.895 2 2s-0.895 2-2 2c-1.105 0-2-0.895-2-2 0-0.080 0.005-0.158 0.014-0.236l-4.67-2.283c-0.355 0.322-0.827 0.519-1.344 0.519-1.105 0-2-0.895-2-2s0.895-2 2-2c0.498 0 0.953 0.182 1.303 0.483l4.705-2.299c-0.006-0.060-0.008-0.122-0.008-0.184 0-1.105 0.895-2 2-2zM10 9c-0.552 0-1 0.448-1 1s0.448 1 1 1c0.552 0 1-0.448 1-1s-0.448-1-1-1zM2 5c-0.552 0-1 0.448-1 1s0.448 1 1 1c0.552 0 1-0.448 1-1s-0.448-1-1-1zM10 1c-0.552 0-1 0.448-1 1s0.448 1 1 1c0.552 0 1-0.448 1-1s-0.448-1-1-1z"></path>
</svg>
