<!-- Generated by IcoMoon.io -->
<svg version="1.1" xmlns="http://www.w3.org/2000/svg" width="12" height="12" viewBox="0 0 12 12">
<title>share-solid</title>
<path d="M12 2c0 1.105-0.895 2-2 2-0.602 0-1.142-0.266-1.508-0.687l-4.535 2.268c0.029 0.135 0.044 0.275 0.044 0.419s-0.015 0.284-0.044 0.419l4.535 2.268c0.367-0.421 0.907-0.687 1.508-0.687 1.105 0 2 0.895 2 2s-0.895 2-2 2c-1.105 0-2-0.895-2-2 0-0.144 0.015-0.284 0.044-0.419l-4.535-2.268c-0.367 0.421-0.907 0.687-1.508 0.687-1.105 0-2-0.895-2-2s0.895-2 2-2c0.602 0 1.142 0.266 1.508 0.687l4.535-2.268c-0.029-0.135-0.044-0.275-0.044-0.419 0-1.105 0.895-2 2-2s2 0.895 2 2z"></path>
</svg>
