<svg width="12" height="12" viewBox="0 0 12 12" xmlns="http://www.w3.org/2000/svg">
<path d="M2.5 10.9996H1.5V9.99959H2.5V10.9996Z"/>
<path d="M4.5 10.9996H3.5V9.99959H4.5V10.9996Z"/>
<path d="M6.5 10.9996H5.5V9.99959H6.5V10.9996Z"/>
<path d="M8.5 10.9996H7.5V9.99959H8.5V10.9996Z"/>
<path d="M10.5 10.9996H9.5V9.99959H10.5V10.9996Z"/>
<path d="M4.03516 6.20662L2.97461 7.26717L4.03516 8.32772L3.32812 9.03475L2.26758 7.9742L1.20703 9.03475L0.5 8.32772L1.56055 7.26717L0.5 6.20662L1.20703 5.49959L2.26758 6.56014L3.32812 5.49959L4.03516 6.20662Z"/>
<path fill-rule="evenodd" clip-rule="evenodd" d="M7.85996 0.87762C8.33932 0.735771 8.87871 0.773837 9.35019 1.11297C9.65621 1.33316 9.81015 1.68752 9.88437 2.02313C9.96112 2.3702 9.97027 2.77199 9.92539 3.18621C9.83558 4.01464 9.52143 4.97464 8.97422 5.79559C8.53959 6.4475 7.8066 6.98967 7.09531 7.40594C7.17339 7.49796 7.23934 7.55071 7.28184 7.57196L7.3873 7.61297C7.64288 7.68834 7.9648 7.61446 8.33262 7.40203C8.73944 7.16703 9.06657 6.83643 9.16367 6.7116C9.25799 6.59029 9.36314 6.3876 9.45176 6.18719C9.49355 6.09266 9.52754 6.00735 9.55137 5.94598C9.56315 5.91561 9.57269 5.89098 9.57871 5.87469C9.5817 5.86661 9.58416 5.85997 9.58555 5.85614L9.58652 5.85223L10.5514 6.02703L10.5582 6.02801V6.04754C10.558 6.06145 10.5573 6.08312 10.5572 6.11004C10.5572 6.16401 10.558 6.24167 10.5602 6.33465C10.5645 6.52254 10.5757 6.76687 10.6021 7.0036C10.6188 7.15258 10.6402 7.28441 10.6646 7.39129C10.7317 7.32938 10.801 7.25534 10.8648 7.17254C10.9413 7.07341 11.0058 6.97507 11.0504 6.90106C11.0723 6.86471 11.0893 6.8348 11.1002 6.81512C11.1055 6.80548 11.1096 6.79796 11.1119 6.79364L11.1139 6.78973C11.1139 6.78973 11.1498 6.80829 11.5582 7.01825L12.0025 7.24774L12.0016 7.24969L11.9996 7.25262C11.9982 7.25527 11.9969 7.2592 11.9947 7.26336C11.9901 7.27212 11.9833 7.2848 11.9752 7.2995C11.9589 7.32889 11.9351 7.36918 11.9059 7.41766C11.8476 7.51419 11.7626 7.64565 11.6568 7.78289C11.5522 7.91861 11.4194 8.07153 11.2623 8.20184C11.1085 8.32944 10.9029 8.46004 10.6559 8.50946C10.4057 8.55931 10.189 8.46795 10.0406 8.32977C9.91158 8.2094 9.83455 8.05693 9.78672 7.93621C9.74663 7.83502 9.71618 7.72284 9.69004 7.60809C9.47568 7.81775 9.17749 8.06906 8.83262 8.26825C8.35202 8.54581 7.65777 8.79766 6.97129 8.52703L6.83457 8.46551C6.59155 8.34394 6.3787 8.13123 6.19883 7.87762C5.82528 8.05661 5.48557 8.20198 5.22617 8.30438C5.07284 8.3649 4.94709 8.41129 4.85898 8.44305C4.81491 8.45894 4.77958 8.47084 4.75547 8.47918C4.74346 8.48334 4.73374 8.48671 4.72715 8.48895C4.724 8.49002 4.71934 8.49188 4.71934 8.49188L4.71738 8.49285C4.71663 8.49091 4.70574 8.46086 4.5582 8.01825L4.4 7.54461L4.40098 7.54364C4.40098 7.54364 4.40373 7.54338 4.40586 7.54266C4.41061 7.54105 4.41833 7.5383 4.42832 7.53485C4.44857 7.52784 4.47945 7.51693 4.51914 7.50262C4.59896 7.47385 4.71572 7.43027 4.85898 7.37371C5.09676 7.27985 5.40603 7.1485 5.74473 6.987C5.62054 6.64487 5.52536 6.26028 5.4752 5.84832C5.32376 4.60424 5.57173 3.07677 6.66758 1.70672L6.7877 1.56707C7.07841 1.25081 7.45017 0.99889 7.85996 0.87762ZM8.76621 1.9245C8.58414 1.79356 8.37465 1.76713 8.14316 1.83563C7.93098 1.89848 7.70974 2.04125 7.525 2.24188L7.44883 2.33075C6.54501 3.46057 6.34345 4.70878 6.46738 5.72723C6.50211 6.01252 6.56447 6.27654 6.64023 6.51239C7.26443 6.14165 7.8317 5.7066 8.14219 5.2409C8.59464 4.56209 8.85763 3.75756 8.93125 3.07879C8.96803 2.73941 8.9548 2.4515 8.90781 2.23895C8.8583 2.01522 8.78692 1.93942 8.76621 1.9245Z"/>
</svg>
