<svg width="12" height="12" viewBox="0 0 12 12" fill="none" xmlns="http://www.w3.org/2000/svg">
<path d="M2.5 6.00003C2.5 7.03495 2.94948 7.96473 3.66244 8.60498L3.6624 8.60505C2.94821 7.9638 2.5 7.03418 2.5 6.00003ZM2.5 6.00003C2.5 4.96512 2.94948 4.03533 3.66244 3.39508L3.6624 3.39502C2.94821 4.03627 2.5 4.96588 2.5 6.00003ZM9.5 6.00003C9.5 7.03418 9.05179 7.96379 8.3376 8.60505L8.33756 8.60498C9.05052 7.96473 9.5 7.03495 9.5 6.00003ZM9.5 6.00003C9.5 4.96588 9.05179 4.03627 8.3376 3.39502L8.33756 3.39508C9.05052 4.03533 9.5 4.96512 9.5 6.00003ZM9.45437 10.2802L9.45433 10.2801C10.6261 9.33325 11.402 7.91374 11.4914 6.3108C11.4022 7.91288 10.6275 9.33219 9.45437 10.2802ZM9.45433 1.71993L9.45437 1.71987C10.6382 2.67651 11.4162 4.11308 11.4936 5.73309C11.4161 4.11221 10.6368 2.67543 9.45433 1.71993ZM0.502837 6.17835C0.555639 7.83543 1.34172 9.30725 2.54567 10.2801L2.54563 10.2802C1.34024 9.30614 0.555568 7.83454 0.502837 6.17835ZM0.504209 5.7829C0.567865 4.14254 1.34967 2.68631 2.54563 1.71987L2.54567 1.71993C1.35113 2.68521 0.56795 4.14166 0.504209 5.7829ZM6.5 6.00003C6.5 6.27617 6.27614 6.50003 6 6.50003C5.72386 6.50003 5.5 6.27617 5.5 6.00003C5.5 5.72389 5.72386 5.50003 6 5.50003C6.27614 5.50003 6.5 5.72389 6.5 6.00003Z" stroke="#4C505B"/>
</svg>
