<svg width="12" height="12" viewBox="0 0 12 12" >
<path d="M8.77379 10.1607C10.116 9.26413 11 7.73531 11 6.00003C11 4.26475 10.116 2.73594 8.77379 1.83934L9.32855 1.0072C10.9392 2.08312 12 3.91769 12 6.00003C12 8.08237 10.9392 9.91695 9.32855 10.9929L8.77379 10.1607Z" />
<path d="M3.22621 10.1607C1.88399 9.26413 1 7.73531 1 6.00003C1 4.26475 1.88399 2.73594 3.22621 1.83934L2.67145 1.0072C1.06078 2.08312 0 3.91769 0 6.00003C0 8.08237 1.06078 9.91695 2.67145 10.9929L3.22621 10.1607Z" />
<path d="M3.78096 9.32859C2.70719 8.61131 2 7.38826 2 6.00003C2 4.61181 2.70719 3.38875 3.78096 2.67148L4.33572 3.50362C3.53039 4.04157 3 4.95886 3 6.00003C3 7.0412 3.53039 7.95849 4.33572 8.49645L3.78096 9.32859Z" />
<path d="M8.21904 9.32859C9.29281 8.61131 10 7.38826 10 6.00003C10 4.61181 9.29281 3.38875 8.21904 2.67148L7.66428 3.50362C8.46961 4.04157 9 4.95886 9 6.00003C9 7.0412 8.46961 7.95849 7.66428 8.49645L8.21904 9.32859Z" />
<path d="M7 6.00003C7 6.55232 6.55228 7.00003 6 7.00003C5.44772 7.00003 5 6.55232 5 6.00003C5 5.44775 5.44772 5.00003 6 5.00003C6.55228 5.00003 7 5.44775 7 6.00003Z" />
</svg>
