<svg width="12" height="12" viewBox="0 0 12 12" xmlns="http://www.w3.org/2000/svg">
<path d="M8.77379 10.1607C10.116 9.2641 11 7.73528 11 6C11 4.26472 10.116 2.7359 8.77379 1.83931L9.32855 1.00717C10.9392 2.08309 12 3.91766 12 6C12 8.08234 10.9392 9.91692 9.32855 10.9928L8.77379 10.1607Z"/>
<path d="M3.22621 10.1607C1.88399 9.2641 1 7.73528 1 6C1 4.26472 1.88399 2.7359 3.22621 1.83931L2.67145 1.00717C1.06078 2.08309 0 3.91766 0 6C0 8.08234 1.06078 9.91692 2.67145 10.9928L3.22621 10.1607Z"/>
<path d="M3.78096 9.32856C2.70719 8.61128 2 7.38823 2 6C2 4.61178 2.70719 3.38872 3.78096 2.67145L4.33572 3.50359C3.53039 4.04154 3 4.95883 3 6C3 7.04117 3.53039 7.95846 4.33572 8.49642L3.78096 9.32856Z"/>
<path d="M8.21904 9.32856C9.29281 8.61128 10 7.38823 10 6C10 4.61178 9.29281 3.38872 8.21904 2.67145L7.66428 3.50359C8.46961 4.04154 9 4.95883 9 6C9 7.04117 8.46961 7.95846 7.66428 8.49642L8.21904 9.32856Z"/>
<path d="M7 6C7 6.55229 6.55228 7 6 7C5.44772 7 5 6.55229 5 6C5 5.44772 5.44772 5 6 5C6.55228 5 7 5.44772 7 6Z"/>
</svg>
