<svg width="12" height="12" viewBox="0 0 12 12" xmlns="http://www.w3.org/2000/svg">
<path fill-rule="evenodd" clip-rule="evenodd" d="M4 7C4.93171 7 5.71235 7.63768 5.93457 8.5H12V9.5H5.93457C5.71235 10.3623 4.93171 11 4 11C3.06829 11 2.28765 10.3623 2.06543 9.5H0V8.5H2.06543C2.28765 7.63768 3.06829 7 4 7ZM4 8C3.44772 8 3 8.44772 3 9C3 9.55229 3.44772 10 4 10C4.55228 10 5 9.55229 5 9C5 8.44772 4.55228 8 4 8Z"/>
<path fill-rule="evenodd" clip-rule="evenodd" d="M8 1C8.93171 1 9.71235 1.63768 9.93457 2.5H12V3.5H9.93457C9.71235 4.36232 8.93171 5 8 5C7.06829 5 6.28765 4.36232 6.06543 3.5H0V2.5H6.06543C6.28765 1.63768 7.06829 1 8 1ZM8 2C7.44772 2 7 2.44772 7 3C7 3.55228 7.44772 4 8 4C8.55229 4 9 3.55228 9 3C9 2.44772 8.55229 2 8 2Z"/>
</svg>
