<svg width="12" height="12" viewBox="0 0 12 12" >
<path d="M9 9.10459L9 1H8L8 9.08895L6.40784 7.5L5.70002 8.20639L8.50783 11.0086L11.3078 8.2142L10.6 7.50781L9 9.10459Z" />
<path d="M3.21997 4.99707H2.41333V1.78076C2.41333 1.67367 2.41447 1.56657 2.41675 1.45947C2.41903 1.35238 2.42131 1.24756 2.42358 1.14502C2.42814 1.04248 2.43384 0.944499 2.44067 0.851074C2.39282 0.903483 2.33358 0.960449 2.26294 1.02197C2.19458 1.0835 2.12166 1.1473 2.04419 1.21338L1.46997 1.67139L1.06665 1.16211L2.55005 0H3.21997V4.99707Z" />
<path d="M4.40088 9.06434C4.40088 9.36056 4.37923 9.65109 4.33594 9.93592C4.29492 10.2207 4.22201 10.4874 4.11719 10.7357C4.01465 10.9841 3.87223 11.204 3.68994 11.3954C3.50993 11.5845 3.28206 11.7326 3.00635 11.8397C2.73063 11.9468 2.39795 12.0004 2.0083 12.0004C1.91032 12.0004 1.79639 11.9947 1.6665 11.9833C1.5389 11.9742 1.43408 11.9605 1.35205 11.9423V11.2723C1.43864 11.2974 1.53548 11.3179 1.64258 11.3339C1.75195 11.3475 1.86019 11.3544 1.96729 11.3544C2.38883 11.3544 2.71696 11.2758 2.95166 11.1185C3.18864 10.9613 3.35612 10.7448 3.4541 10.4691C3.55436 10.1934 3.61133 9.88009 3.625 9.52918H3.58398C3.5179 9.63855 3.43473 9.73882 3.33447 9.82996C3.23421 9.91883 3.11003 9.99061 2.96191 10.0453C2.8138 10.0977 2.63379 10.1239 2.42188 10.1239C2.13477 10.1239 1.88411 10.0635 1.66992 9.94275C1.45801 9.82199 1.29281 9.64653 1.17432 9.41639C1.05811 9.18396 1 8.90483 1 8.57898C1 8.22579 1.06722 7.9216 1.20166 7.66639C1.3361 7.41118 1.52637 7.21521 1.77246 7.0785C2.01855 6.9395 2.30794 6.87 2.64062 6.87C2.89128 6.87 3.12256 6.91557 3.33447 7.00672C3.54867 7.09559 3.73551 7.2323 3.89502 7.41687C4.05452 7.59917 4.17871 7.82817 4.26758 8.10389C4.35645 8.37732 4.40088 8.69747 4.40088 9.06434ZM2.65088 7.53309C2.39795 7.53309 2.19173 7.61854 2.03223 7.78943C1.87272 7.95805 1.79297 8.21782 1.79297 8.56873C1.79297 8.85356 1.86133 9.07915 1.99805 9.24549C2.13477 9.41183 2.3444 9.495 2.62695 9.495C2.82292 9.495 2.99154 9.45512 3.13281 9.37537C3.27637 9.29334 3.38688 9.18966 3.46436 9.06434C3.54411 8.93901 3.58398 8.81141 3.58398 8.68152C3.58398 8.54708 3.56462 8.41264 3.52588 8.2782C3.48942 8.14376 3.43245 8.02072 3.35498 7.90906C3.27751 7.79741 3.17952 7.7074 3.06104 7.63904C2.94482 7.5684 2.80811 7.53309 2.65088 7.53309Z" />
</svg>
