<svg width="12" height="13" viewBox="0 0 12 13" fill="none" xmlns="http://www.w3.org/2000/svg">
<path d="M4.09229 4.99707H0.5V4.43311L3.04297 0.697266H0.578613V0H4.02393V0.560547L1.48096 4.2998H4.09229V4.99707Z" fill="#4C505B"/>
<path fill-rule="evenodd" clip-rule="evenodd" d="M3.75293 12.0147L3.26416 10.627H1.35352L0.864746 12.0147H0L1.85938 6.99709H2.76855L4.62451 12.0147H3.75293ZM3.05225 9.92287L2.57715 8.55568C2.55892 8.49643 2.53271 8.41326 2.49854 8.30617C2.46436 8.19679 2.43018 8.08628 2.396 7.97462C2.36182 7.86069 2.33333 7.76499 2.31055 7.68752C2.28776 7.78094 2.25928 7.88576 2.2251 8.00197C2.1932 8.1159 2.1613 8.223 2.12939 8.32326C2.09977 8.42352 2.07699 8.50099 2.06104 8.55568L1.58252 9.92287H3.05225Z" fill="#4C505B"/>
<path d="M8.99999 1L9 9.10459L10.6 7.50781L11.3078 8.2142L8.50782 11.0086L5.70001 8.20639L6.40783 7.5L8 9.08895L7.99999 1H8.99999Z" fill="#4C505B"/>
</svg>
