<svg width="12" height="13" viewBox="0 0 12 13" fill="none" xmlns="http://www.w3.org/2000/svg">
<path d="M9 9.10459L9 1H8L8 9.08895L6.40784 7.5L5.70002 8.20639L8.50783 11.0086L11.3078 8.2142L10.6 7.50781L9 9.10459Z" fill="#4C505B"/>
<path d="M3.21997 4.99707H2.41333V1.78076C2.41333 1.67367 2.41447 1.56657 2.41675 1.45947C2.41903 1.35238 2.42131 1.24756 2.42358 1.14502C2.42814 1.04248 2.43384 0.944499 2.44067 0.851074C2.39282 0.903483 2.33358 0.960449 2.26294 1.02197C2.19458 1.0835 2.12166 1.1473 2.04419 1.21338L1.46997 1.67139L1.06665 1.16211L2.55005 0H3.21997V4.99707Z" fill="#4C505B"/>
<path d="M4.40088 9.19141C4.40088 9.48763 4.37923 9.77816 4.33594 10.063C4.29492 10.3478 4.22201 10.6144 4.11719 10.8628C4.01465 11.1112 3.87223 11.3311 3.68994 11.5225C3.50993 11.7116 3.28206 11.8597 3.00635 11.9668C2.73063 12.0739 2.39795 12.1274 2.0083 12.1274C1.91032 12.1274 1.79639 12.1217 1.6665 12.1104C1.5389 12.1012 1.43408 12.0876 1.35205 12.0693V11.3994C1.43864 11.4245 1.53548 11.445 1.64258 11.4609C1.75195 11.4746 1.86019 11.4814 1.96729 11.4814C2.38883 11.4814 2.71696 11.4028 2.95166 11.2456C3.18864 11.0884 3.35612 10.8719 3.4541 10.5962C3.55436 10.3205 3.61133 10.0072 3.625 9.65625H3.58398C3.5179 9.76562 3.43473 9.86589 3.33447 9.95703C3.23421 10.0459 3.11003 10.1177 2.96191 10.1724C2.8138 10.2248 2.63379 10.251 2.42188 10.251C2.13477 10.251 1.88411 10.1906 1.66992 10.0698C1.45801 9.94906 1.29281 9.7736 1.17432 9.54346C1.05811 9.31104 1 9.0319 1 8.70605C1 8.35286 1.06722 8.04867 1.20166 7.79346C1.3361 7.53825 1.52637 7.34229 1.77246 7.20557C2.01855 7.06657 2.30794 6.99707 2.64062 6.99707C2.89128 6.99707 3.12256 7.04264 3.33447 7.13379C3.54867 7.22266 3.73551 7.35938 3.89502 7.54395C4.05452 7.72624 4.17871 7.95524 4.26758 8.23096C4.35645 8.50439 4.40088 8.82454 4.40088 9.19141ZM2.65088 7.66016C2.39795 7.66016 2.19173 7.74561 2.03223 7.9165C1.87272 8.08512 1.79297 8.34489 1.79297 8.6958C1.79297 8.98063 1.86133 9.20622 1.99805 9.37256C2.13477 9.5389 2.3444 9.62207 2.62695 9.62207C2.82292 9.62207 2.99154 9.58219 3.13281 9.50244C3.27637 9.42041 3.38688 9.31673 3.46436 9.19141C3.54411 9.06608 3.58398 8.93848 3.58398 8.80859C3.58398 8.67415 3.56462 8.53971 3.52588 8.40527C3.48942 8.27083 3.43245 8.14779 3.35498 8.03613C3.27751 7.92448 3.17952 7.83447 3.06104 7.76611C2.94482 7.69548 2.80811 7.66016 2.65088 7.66016Z" fill="#4C505B"/>
</svg>
