<svg width="12" height="13" viewBox="0 0 12 13" fill="none" xmlns="http://www.w3.org/2000/svg">
<path d="M3.21997 12.0659H2.41333V8.84961C2.41333 8.74251 2.41447 8.63542 2.41675 8.52832C2.41903 8.42122 2.42131 8.31641 2.42358 8.21387C2.42814 8.11133 2.43384 8.01335 2.44067 7.91992C2.39282 7.97233 2.33358 8.0293 2.26294 8.09082C2.19458 8.15234 2.12166 8.21615 2.04419 8.28223L1.46997 8.74023L1.06665 8.23096L2.55005 7.06885H3.21997V12.0659Z" fill="#4C505B"/>
<path d="M4.40088 2.19434C4.40088 2.49056 4.37923 2.78109 4.33594 3.06592C4.29492 3.35075 4.22201 3.61735 4.11719 3.86572C4.01465 4.1141 3.87223 4.33398 3.68994 4.52539C3.50993 4.71452 3.28206 4.86263 3.00635 4.96973C2.73063 5.07682 2.39795 5.13037 2.0083 5.13037C1.91032 5.13037 1.79639 5.12467 1.6665 5.11328C1.5389 5.10417 1.43408 5.09049 1.35205 5.07227V4.40234C1.43864 4.42741 1.53548 4.44792 1.64258 4.46387C1.75195 4.47754 1.86019 4.48438 1.96729 4.48438C2.38883 4.48438 2.71696 4.40576 2.95166 4.24854C3.18864 4.09131 3.35612 3.87484 3.4541 3.59912C3.55436 3.3234 3.61133 3.01009 3.625 2.65918H3.58398C3.5179 2.76855 3.43473 2.86882 3.33447 2.95996C3.23421 3.04883 3.11003 3.12061 2.96191 3.17529C2.8138 3.2277 2.63379 3.25391 2.42188 3.25391C2.13477 3.25391 1.88411 3.19352 1.66992 3.07275C1.45801 2.95199 1.29281 2.77653 1.17432 2.54639C1.05811 2.31396 1 2.03483 1 1.70898C1 1.35579 1.06722 1.0516 1.20166 0.796387C1.3361 0.541178 1.52637 0.345215 1.77246 0.208496C2.01855 0.0694987 2.30794 0 2.64062 0C2.89128 0 3.12256 0.0455729 3.33447 0.136719C3.54867 0.225586 3.73551 0.362305 3.89502 0.546875C4.05452 0.729167 4.17871 0.958171 4.26758 1.23389C4.35645 1.50732 4.40088 1.82747 4.40088 2.19434ZM2.65088 0.663086C2.39795 0.663086 2.19173 0.748535 2.03223 0.919434C1.87272 1.08805 1.79297 1.34782 1.79297 1.69873C1.79297 1.98356 1.86133 2.20915 1.99805 2.37549C2.13477 2.54183 2.3444 2.625 2.62695 2.625C2.82292 2.625 2.99154 2.58512 3.13281 2.50537C3.27637 2.42334 3.38688 2.31966 3.46436 2.19434C3.54411 2.06901 3.58398 1.94141 3.58398 1.81152C3.58398 1.67708 3.56462 1.54264 3.52588 1.4082C3.48942 1.27376 3.43245 1.15072 3.35498 1.03906C3.27751 0.927409 3.17952 0.837402 3.06104 0.769043C2.94482 0.698405 2.80811 0.663086 2.65088 0.663086Z" fill="#4C505B"/>
<path d="M9 9.10459L9 1H8L8 9.08895L6.40784 7.5L5.70002 8.20639L8.50783 11.0086L11.3078 8.2142L10.6 7.50781L9 9.10459Z" fill="#4C505B"/>
</svg>
