<svg width="12" height="12" viewBox="0 0 12 12" fill="none" xmlns="http://www.w3.org/2000/svg">
<path fill-rule="evenodd" clip-rule="evenodd" d="M3.75293 5.01758L3.26416 3.62988H1.35352L0.864746 5.01758H0L1.85938 0H2.76855L4.62451 5.01758H3.75293ZM3.05225 2.92578L2.57715 1.55859C2.55892 1.49935 2.53271 1.41618 2.49854 1.30908C2.46436 1.19971 2.43018 1.08919 2.396 0.977539C2.36182 0.863607 2.33333 0.767904 2.31055 0.69043C2.28776 0.783854 2.25928 0.888672 2.2251 1.00488C2.1932 1.11882 2.1613 1.22591 2.12939 1.32617C2.09977 1.42643 2.07699 1.50391 2.06104 1.55859L1.58252 2.92578H3.05225Z" fill="#4C505B"/>
<path d="M4.09229 11.9971H0.5V11.4331L3.04297 7.69727H0.578613V7H4.02393V7.56055L1.48096 11.2998H4.09229V11.9971Z" fill="#4C505B"/>
<path d="M8.99999 1L9 9.10459L10.6 7.50781L11.3078 8.2142L8.50782 11.0086L5.70001 8.20639L6.40783 7.5L8 9.08895L7.99999 1H8.99999Z" fill="#4C505B"/>
</svg>
