<svg width="12" height="12" viewBox="0 0 12 12" xmlns="http://www.w3.org/2000/svg">
<path d="M4.70739 10.8311C2.04006 10.1164 0.457151 7.37472 1.17186 4.70739C1.88657 2.04006 4.62825 0.457151 7.29558 1.17186C7.98388 1.35629 8.59885 1.67508 9.12085 2.09207C9.3974 2.313 9.64809 2.56167 9.86976 2.8328C10.0417 3.04306 10.1961 3.26678 10.3316 3.50147L8.00146 3.50146V4.50146H12.0015L12.0015 0.501464L11.0015 0.501465L11.0015 2.68471C10.8906 2.51742 10.7713 2.35556 10.6439 2.19983C10.3781 1.87467 10.0772 1.57616 9.74499 1.31077C9.11729 0.809327 8.3784 0.426724 7.5544 0.205934C4.35361 -0.651717 1.06358 1.24778 0.205934 4.44858C-0.651717 7.64937 1.24778 10.9394 4.44858 11.797C7.64937 12.6547 10.9394 10.7552 11.797 7.5544L10.8311 7.29558C10.1164 9.96291 7.37472 11.5458 4.70739 10.8311Z"/>
<path d="M7.09229 4.91064L10.0015 6.00146L7.09229 7.09229L6.00146 10.0015L4.91064 7.09229L2.00146 6.00146L4.91064 4.91064L6.00146 2.00146L7.09229 4.91064ZM5.84717 5.26123L5.68701 5.68701L5.26123 5.84717L4.84912 6.00146L5.26123 6.15576L5.68701 6.31592L5.84717 6.74072L6.00146 7.15186L6.31592 6.31592L7.15186 6.00049L6.7417 5.84717L6.31592 5.68701L6.15576 5.26123L6.00146 4.84912L5.84717 5.26123Z"/>
</svg>
