<svg width="12" height="12" viewBox="0 0 12 12" xmlns="http://www.w3.org/2000/svg" >
<path fill-rule="evenodd" clip-rule="evenodd" d="M3.48438 0.5H2.48438V1H1V4.5C1 6.26324 2.30385 7.72194 4 7.96456V9.01562C4 10.6725 5.34315 12 7 12C8.65685 12 10 10.6725 10 9.01562V7.41465C10.5826 7.20873 11 6.65311 11 6C11 5.17157 10.3284 4.5 9.5 4.5C8.67157 4.5 8 5.17157 8 6C8 6.65311 8.4174 7.20873 9 7.41465V9.01562C9 10.1202 8.10457 11 7 11C5.89543 11 5 10.1202 5 9.01562V7.96456C6.69615 7.72194 8 6.26324 8 4.5V1H6.5V0.5H5.5V2.5H6.5V2H7V4.5C7 5.88071 5.88071 7 4.5 7C3.11929 7 2 5.88071 2 4.5V2H2.48438V2.5H3.48438V0.5Z" />
</svg>
