<svg width="12" height="12" viewBox="0 0 12 12" xmlns="http://www.w3.org/2000/svg">
<path d="M10 1H2L0 5C0.417872 5.31396 0.937331 5.5 1.50024 5.5C2.06294 5.5 2.58221 5.3141 3 5.00037C3.41779 5.3141 3.93706 5.5 4.49976 5.5C5.06267 5.5 5.58213 5.31396 6 5C6.41787 5.31396 6.93733 5.5 7.50024 5.5C8.06294 5.5 8.58221 5.3141 9 5.00037C9.41779 5.3141 9.93706 5.5 10.4998 5.5C11.0627 5.5 11.5821 5.31396 12 5L10 1Z"/>
<path d="M2.99951 8H6V9H2.99951V8Z"/>
<path fill-rule="evenodd" clip-rule="evenodd" d="M1 6V11H0V12H12V11H11V6H1ZM7 7H2V10H7V7ZM10 7H8V11H10V7Z"/>
</svg>
