<svg width="12" height="12" viewBox="0 0 12 12" xmlns="http://www.w3.org/2000/svg">
<path fill-rule="evenodd" clip-rule="evenodd" d="M0.735672 5.36784C0.791094 5.38579 0.849012 5.40258 0.909203 5.41766C1.08805 5.46248 1.28695 5.49219 1.5 5.49219C2.36719 5.49219 3 5 3 5C3 5 3.61719 5.49219 4.5 5.49219C5.38281 5.49219 6 5 6 5C6 5 6.63281 5.49219 7.5 5.49219C8.36719 5.49219 9 5 9 5C9 5 9.64844 5.49219 10.5 5.49219C10.7115 5.49219 10.9105 5.46183 11.0901 5.41619C11.1552 5.39963 11.2178 5.38107 11.2776 5.36121C11.7162 5.2154 12 5 12 5L10 1H2L0 5C0 5 0.285463 5.22203 0.735672 5.36784ZM9.38197 2L10.6249 4.48592C10.5837 4.49 10.542 4.49219 10.5 4.49219C10.2624 4.49219 10.0325 4.42189 9.84721 4.33698C9.75772 4.29597 9.68758 4.25565 9.64324 4.22804C9.62133 4.2144 9.60652 4.20436 9.59964 4.19959L9.59764 4.19819L8.99257 3.73892L8.39383 4.2046C8.38785 4.20884 8.37334 4.2189 8.35262 4.23202C8.3107 4.25857 8.24327 4.29792 8.15614 4.33813C7.97688 4.42087 7.74718 4.49219 7.5 4.49219C7.25282 4.49219 7.02312 4.42087 6.84386 4.33813C6.75674 4.29792 6.6893 4.25857 6.64738 4.23202C6.62666 4.2189 6.61294 4.2094 6.60696 4.20516L5.99227 3.72712L5.38519 4.21125C5.37989 4.21507 5.36741 4.22388 5.34836 4.23615C5.30888 4.26157 5.24419 4.29991 5.15945 4.33931C4.98625 4.41984 4.75677 4.49219 4.5 4.49219C4.24323 4.49219 4.01375 4.41984 3.84055 4.33931C3.75581 4.29991 3.69112 4.26157 3.65164 4.23615C3.63259 4.22388 3.62011 4.21507 3.61481 4.21125L3.00773 3.72712L2.39383 4.20461C2.38785 4.20884 2.37334 4.2189 2.35262 4.23202C2.3107 4.25857 2.24326 4.29792 2.15614 4.33813C1.97688 4.42087 1.74718 4.49219 1.5 4.49219C1.45774 4.49219 1.41599 4.4901 1.37492 4.48623L2.61803 2H9.38197Z"/>
<path d="M3 9V8H6V9H3Z"/>
<path fill-rule="evenodd" clip-rule="evenodd" d="M11 11V6H1V11H0V12H12V11H11ZM2 11H7V7H2V11ZM8 11H10V7H8V11Z"/>
</svg>
