<svg width="12" height="12" viewBox="0 0 12 12" fill="none" xmlns="http://www.w3.org/2000/svg">
<path d="M0 0H12V1H0V0Z" fill="#4C505B"/>
<path d="M0 11H12V12H0V11Z" fill="#4C505B"/>
<path fill-rule="evenodd" clip-rule="evenodd" d="M2.8335 4.78076C2.58968 4.56885 2.22852 4.46289 1.75 4.46289C1.49479 4.46289 1.2487 4.49365 1.01172 4.55518C0.777018 4.6167 0.567383 4.69645 0.382812 4.79443L0.642578 5.36182C0.811198 5.28206 0.984375 5.21484 1.16211 5.16016C1.33984 5.10547 1.52327 5.07812 1.7124 5.07812C1.93343 5.07812 2.10433 5.13395 2.2251 5.24561C2.34814 5.35726 2.40967 5.54411 2.40967 5.80615V6.00439L1.75342 6.02832C1.16553 6.04883 0.725749 6.15706 0.434082 6.35303C0.144694 6.54899 0 6.8418 0 7.23145C0 7.49349 0.0512695 7.70996 0.153809 7.88086C0.256348 8.05176 0.396484 8.17936 0.574219 8.26367C0.751953 8.3457 0.953613 8.38672 1.1792 8.38672C1.39339 8.38672 1.57454 8.36393 1.72266 8.31836C1.87305 8.27507 2.00521 8.20898 2.11914 8.12012C2.23307 8.03125 2.34359 7.91846 2.45068 7.78174H2.47803L2.63184 8.31836H3.20264V5.77197C3.20264 5.32308 3.07959 4.99268 2.8335 4.78076ZM1.91748 6.52734L2.40625 6.51025V6.83838C2.40625 7.146 2.31396 7.37956 2.12939 7.53906C1.9471 7.69629 1.71696 7.7749 1.43896 7.7749C1.25667 7.7749 1.1097 7.73275 0.998047 7.64844C0.886393 7.56185 0.830566 7.42513 0.830566 7.23828C0.830566 7.02409 0.911458 6.85547 1.07324 6.73242C1.23503 6.60938 1.51644 6.54102 1.91748 6.52734Z" fill="#4C505B"/>
<path fill-rule="evenodd" clip-rule="evenodd" d="M5.23779 3V4.28174C5.23779 4.42985 5.23324 4.57568 5.22412 4.71924C5.21729 4.86051 5.21045 4.97103 5.20361 5.05078H5.23779C5.34033 4.88672 5.48275 4.74886 5.66504 4.63721C5.84961 4.52327 6.08545 4.46631 6.37256 4.46631C6.82145 4.46631 7.18262 4.63151 7.45605 4.96191C7.72949 5.29004 7.86621 5.77653 7.86621 6.42139C7.86621 6.84977 7.80355 7.2098 7.67822 7.50146C7.5529 7.79313 7.3763 8.01416 7.14844 8.16455C6.92285 8.31266 6.65739 8.38672 6.35205 8.38672C6.06494 8.38672 5.83252 8.33431 5.65479 8.22949C5.47933 8.1224 5.34147 7.99821 5.24121 7.85693H5.18311L5.03613 8.31836H4.43457V3H5.23779ZM6.16064 5.11914C5.93278 5.11914 5.75163 5.16471 5.61719 5.25586C5.48503 5.34701 5.38932 5.48372 5.33008 5.66602C5.27083 5.84603 5.24007 6.07503 5.23779 6.35303V6.4248C5.23779 6.84635 5.30387 7.16878 5.43604 7.39209C5.57048 7.6154 5.81429 7.72705 6.16748 7.72705C6.44775 7.72705 6.66309 7.61426 6.81348 7.38867C6.96387 7.16081 7.03906 6.83496 7.03906 6.41113C7.03906 5.98275 6.96387 5.66032 6.81348 5.44385C6.66536 5.22738 6.44775 5.11914 6.16064 5.11914Z" fill="#4C505B"/>
<path d="M9.91504 8.17822C10.1771 8.31722 10.487 8.38672 10.8447 8.38672C11.084 8.38672 11.2856 8.36621 11.4497 8.3252C11.6138 8.28646 11.7676 8.22607 11.9111 8.14404V7.44678C11.7653 7.52653 11.6104 7.59147 11.4463 7.6416C11.2822 7.69173 11.0965 7.7168 10.8892 7.7168C10.6795 7.7168 10.5029 7.66895 10.3594 7.57324C10.2158 7.47526 10.1076 7.33171 10.0347 7.14258C9.96175 6.95117 9.92529 6.71647 9.92529 6.43848C9.92529 6.15137 9.96061 5.91097 10.0312 5.71729C10.1042 5.5236 10.2135 5.37777 10.3594 5.27979C10.5075 5.1818 10.6921 5.13281 10.9131 5.13281C11.0475 5.13281 11.1877 5.15218 11.3335 5.19092C11.4793 5.22965 11.6217 5.27751 11.7607 5.33447L12 4.69189C11.8724 4.62809 11.7163 4.57454 11.5317 4.53125C11.3494 4.48568 11.1455 4.46289 10.9199 4.46289C10.5645 4.46289 10.2489 4.53239 9.97314 4.67139C9.69971 4.81038 9.48551 5.02572 9.33057 5.31738C9.17562 5.60905 9.09814 5.98503 9.09814 6.44531C9.09814 6.88737 9.16878 7.25195 9.31006 7.53906C9.45133 7.82617 9.653 8.03923 9.91504 8.17822Z" fill="#4C505B"/>
</svg>
