<svg width="12" height="12" viewBox="0 0 12 12" fill="none" xmlns="http://www.w3.org/2000/svg">
<path d="M0 0H12V1H0V0Z" fill="#4C505B"/>
<path d="M11.7129 5.30127C11.804 5.13493 11.8496 4.93896 11.8496 4.71338C11.8496 4.34424 11.7106 4.05029 11.4326 3.83154C11.1546 3.61051 10.7593 3.5 10.2466 3.5C9.89795 3.5 9.59261 3.54899 9.33057 3.64697C9.06852 3.74495 8.84294 3.86458 8.65381 4.00586L9.04004 4.56299C9.14486 4.49463 9.25537 4.43083 9.37158 4.37158C9.48779 4.31234 9.61426 4.26335 9.75098 4.22461C9.88997 4.18587 10.0438 4.1665 10.2124 4.1665C10.4858 4.1665 10.6921 4.22689 10.8311 4.34766C10.9701 4.46615 11.0396 4.63249 11.0396 4.84668C11.0396 5.01074 10.9997 5.1543 10.9199 5.27734C10.8424 5.40039 10.716 5.49723 10.5405 5.56787C10.3651 5.63623 10.1326 5.67041 9.84326 5.67041H9.39893V6.31641H9.83984C10.1429 6.31641 10.3901 6.34489 10.5815 6.40186C10.7752 6.45882 10.9176 6.54427 11.0088 6.6582C11.1022 6.77214 11.1489 6.91797 11.1489 7.0957C11.1489 7.37142 11.0601 7.58789 10.8823 7.74512C10.7046 7.90006 10.4072 7.97754 9.99023 7.97754C9.77604 7.97754 9.54932 7.94906 9.31006 7.89209C9.0708 7.83512 8.84521 7.75423 8.6333 7.64941V8.36377C8.84066 8.45947 9.05941 8.52897 9.28955 8.57227C9.52197 8.61556 9.77376 8.63721 10.0449 8.63721C10.4961 8.63721 10.8652 8.57227 11.1523 8.44238C11.4395 8.3125 11.6525 8.13477 11.7915 7.90918C11.9305 7.68131 12 7.42269 12 7.1333C12 6.8029 11.8975 6.53744 11.6924 6.33691C11.4896 6.13639 11.1888 6.01107 10.79 5.96094V5.93701C10.9974 5.89144 11.1797 5.81624 11.3369 5.71143C11.4964 5.60433 11.6217 5.46761 11.7129 5.30127Z" fill="#4C505B"/>
<path d="M7.08521 8.63721H3.70142V8.03223L4.99683 6.71973C5.24748 6.46452 5.45369 6.24463 5.61548 6.06006C5.77726 5.87321 5.89689 5.69661 5.97437 5.53027C6.05412 5.36393 6.09399 5.18278 6.09399 4.98682C6.09399 4.74528 6.0245 4.56299 5.8855 4.43994C5.7465 4.31462 5.56307 4.25195 5.33521 4.25195C5.11873 4.25195 4.91821 4.29525 4.73364 4.38184C4.55135 4.46615 4.36222 4.58691 4.16626 4.74414L3.72534 4.21436C3.86434 4.09587 4.01245 3.98763 4.16968 3.88965C4.32918 3.79167 4.50692 3.71419 4.70288 3.65723C4.89884 3.59798 5.12215 3.56836 5.3728 3.56836C5.68953 3.56836 5.96297 3.62533 6.19312 3.73926C6.42326 3.85091 6.59985 4.007 6.7229 4.20752C6.84823 4.40804 6.91089 4.6416 6.91089 4.9082C6.91089 5.17708 6.85734 5.42546 6.75024 5.65332C6.64315 5.88119 6.49048 6.10677 6.29224 6.33008C6.09399 6.55111 5.85815 6.7915 5.58472 7.05127L4.71997 7.89551V7.93311H7.08521V8.63721Z" fill="#4C505B"/>
<path d="M2.15332 8.63721H1.34668V5.4209C1.34668 5.3138 1.34782 5.20671 1.3501 5.09961L1.35693 4.78516C1.36149 4.68262 1.36719 4.58464 1.37402 4.49121C1.32617 4.54362 1.26693 4.60059 1.19629 4.66211C1.12793 4.72363 1.05501 4.78744 0.977539 4.85352L0.40332 5.31152L0 4.80225L1.4834 3.64014H2.15332V8.63721Z" fill="#4C505B"/>
<path d="M12 11H0V12H12V11Z" fill="#4C505B"/>
</svg>
