<!-- Generated by IcoMoon.io -->
<svg version="1.1" xmlns="http://www.w3.org/2000/svg" width="12" height="12" viewBox="0 0 12 12">
<title>Symphony</title>
<path d="M9.625 4.382v-1.758c0-0.36-0.2-0.699-0.522-0.883-0.482-0.277-1.527-0.741-3.103-0.741s-2.621 0.464-3.103 0.74c-0.158 0.091-0.289 0.22-0.381 0.375s-0.14 0.33-0.141 0.509v2.641l5.74 1.618v1.177c0 0.159-0.103 0.271-0.277 0.354l-1.838 0.896-1.847-0.901c-0.165-0.078-0.268-0.19-0.268-0.349v-0.883l-1.51-0.441v1.324c0 0.727 0.428 1.345 1.108 1.667l2.517 1.274 2.508-1.27c0.689-0.327 1.117-0.945 1.117-1.671v-2.206l-5.739-1.618v-1.343c0.41-0.193 1.109-0.422 2.115-0.422s1.705 0.229 2.115 0.422v1.049l1.511 0.441z"></path>
</svg>
