<svg width="12" height="12" viewBox="0 0 12 12" fill="none" xmlns="http://www.w3.org/2000/svg">
<path d="M7.29558 1.1704C4.62825 0.455686 1.88657 2.0386 1.17186 4.70593C1.056 5.13832 1.00052 5.57266 1.00025 6H0C0.000326226 5.48719 0.0669033 4.96598 0.205933 4.44711C1.06358 1.24631 4.35361 -0.653181 7.5544 0.204469C8.3784 0.425259 9.11728 0.807863 9.74499 1.3093C10.0772 1.5747 10.3781 1.8732 10.6439 2.19836C10.7713 2.35409 10.8906 2.51595 11.0015 2.68324V0.50005L12.0015 0.50005V4.50005H8.00146V3.50005H10.3316C10.1961 3.26535 10.0417 3.04161 9.86976 2.83134C9.64808 2.56021 9.3974 2.31153 9.12085 2.09061C8.59884 1.67361 7.98388 1.35482 7.29558 1.1704Z" fill="#4C505B"/>
<path d="M4.70588 10.8297C7.37321 11.5444 10.1149 9.96152 10.8296 7.29419C10.9455 6.86181 11.0009 6.42747 11.0012 6.00012H12.0015C12.0011 6.51294 11.9346 7.03415 11.7955 7.55301C10.9379 10.7538 7.64786 12.6533 4.44706 11.7957C3.62306 11.5749 2.88418 11.1923 2.25647 10.6908C1.92425 10.4254 1.62338 10.1269 1.35753 9.80176C1.2302 9.64603 1.11089 9.48417 1 9.31688L1 11.5001H1.47442e-06L1.82414e-06 7.50007H4V8.50007H1.66983C1.80534 8.73477 1.95978 8.95851 2.1317 9.16879C2.35338 9.43992 2.60406 9.68859 2.88062 9.90951C3.40262 10.3265 4.01758 10.6453 4.70588 10.8297Z" fill="#4C505B"/>
</svg>
