<svg width="12" height="12" viewBox="0 0 12 12" xmlns="http://www.w3.org/2000/svg">
<path d="M7.29558 1.17186C4.62825 0.457151 1.88657 2.04006 1.17186 4.70739C1.056 5.13978 1.00052 5.57412 1.00025 6.00146H0C0.000326226 5.48865 0.0669033 4.96744 0.205933 4.44858C1.06358 1.24778 4.35361 -0.651717 7.5544 0.205934C8.3784 0.426724 9.11728 0.809327 9.74499 1.31077C10.0772 1.57616 10.3781 1.87467 10.6439 2.19983C10.7713 2.35556 10.8906 2.51742 11.0015 2.68471V0.501515L12.0015 0.501515V4.50151H8.00146V3.50151H10.3316C10.1961 3.26681 10.0417 3.04308 9.86976 2.8328C9.64808 2.56167 9.3974 2.313 9.12085 2.09208C8.59884 1.67508 7.98388 1.35629 7.29558 1.17186Z"/>
<path d="M4.70588 10.8312C7.37321 11.5459 10.1149 9.96299 10.8296 7.29566C10.9455 6.86327 11.0009 6.42893 11.0012 6.00159H12.0015C12.0011 6.5144 11.9346 7.03561 11.7955 7.55448C10.9379 10.7553 7.64786 12.6548 4.44706 11.7971C3.62306 11.5763 2.88418 11.1937 2.25647 10.6923C1.92425 10.4269 1.62338 10.1284 1.35753 9.80322C1.2302 9.64749 1.11089 9.48563 1 9.31834L1 11.5015H1.47442e-06L1.82414e-06 7.50154H4V8.50154H1.66983C1.80534 8.73624 1.95978 8.95998 2.1317 9.17025C2.35338 9.44138 2.60406 9.69005 2.88062 9.91097C3.40262 10.328 4.01758 10.6468 4.70588 10.8312Z"/>
</svg>
