<svg width="12" height="12" viewBox="0 0 12 12" fill="none" xmlns="http://www.w3.org/2000/svg">
<path d="M8 3.5C8 3.77614 8.22386 4 8.5 4C8.77614 4 9 3.77614 9 3.5C9 3.22386 8.77614 3 8.5 3C8.22386 3 8 3.22386 8 3.5Z" fill="#4C505B"/>
<path fill-rule="evenodd" clip-rule="evenodd" d="M12 0H7L0 7L5 12L5.65004 11.35L4.58582 10.2857L6.37153 8.50003L4.58582 6.71431L6.71431 4.58582L8.50003 6.37153L10.2857 4.58582L11.35 5.65004L12 5V0ZM8.5 2C7.67157 2 7 2.67157 7 3.5C7 4.32843 7.67157 5 8.5 5C9.32843 5 10 4.32843 10 3.5C10 2.67157 9.32843 2 8.5 2Z" fill="#4C505B"/>
<path d="M10.2857 11L8.5 9.21429L6.71429 11L6 10.2857L7.78571 8.5L6 6.71429L6.71429 6L8.5 7.78571L10.2857 6L11 6.71429L9.21429 8.5L11 10.2857L10.2857 11Z" fill="#4C505B"/>
</svg>
