<svg width="12" height="12" viewBox="0 0 12 12" fill="none" xmlns="http://www.w3.org/2000/svg">
<path fill-rule="evenodd" clip-rule="evenodd" d="M7.41421 1L1.41421 7L5 10.5858L11 4.58579V1H7.41421ZM12 5L5 12L0 7L7 0H12V5Z" fill="#4C505B"/>
<path fill-rule="evenodd" clip-rule="evenodd" d="M8 3.5C8 3.77614 8.22386 4 8.5 4C8.77614 4 9 3.77614 9 3.5C9 3.22386 8.77614 3 8.5 3C8.22386 3 8 3.22386 8 3.5ZM8.5 2C7.67157 2 7 2.67157 7 3.5C7 4.32843 7.67157 5 8.5 5C9.32843 5 10 4.32843 10 3.5C10 2.67157 9.32843 2 8.5 2Z" fill="#4C505B"/>
</svg>
