<svg width="12" height="12" viewBox="0 0 12 12" fill="none" xmlns="http://www.w3.org/2000/svg">
<path d="M4 5.5C4.27614 5.5 4.5 5.27614 4.5 5C4.5 4.72386 4.27614 4.5 4 4.5C3.72386 4.5 3.5 4.72386 3.5 5C3.5 5.27614 3.72386 5.5 4 5.5Z" fill="#4C505B"/>
<path d="M8.5 5C8.5 5.27614 8.27614 5.5 8 5.5C7.72386 5.5 7.5 5.27614 7.5 5C7.5 4.72386 7.72386 4.5 8 4.5C8.27614 4.5 8.5 4.72386 8.5 5Z" fill="#4C505B"/>
<path fill-rule="evenodd" clip-rule="evenodd" d="M1.24803 0.0692596C4.31633 0.421783 5.5 2 5.5 2H6.5C6.5 2 7.68367 0.421783 10.752 0.0692596C11.1377 0.0249481 11.5533 0 12 0L10 3L12 8L6 12L0 8L1.83768 3.40579L1.98196 2.97295L0 0C0.446732 0 0.862274 0.0249481 1.24803 0.0692596ZM1.22983 7.61803L1.63913 6.59476C2.32416 6.88892 3.22223 7.38919 3.98242 8.0573C4.75937 8.74013 5.33725 9.54755 5.47072 10.4453L1.22983 7.61803ZM6.56639 10.4205L10.7702 7.61803L10.4295 6.76625C9.72914 7.08025 8.90567 7.54089 8.19139 8.12459C7.3755 8.79129 6.76227 9.56712 6.56639 10.4205ZM9.99167 1.20972L9.95302 1.2677L9.98395 1.21146L9.99167 1.20972ZM8.55014 2.5L9.96254 1.21634C9.22 1.38672 8.6564 1.6338 8.24614 1.86824C7.88019 2.07736 7.62811 2.28111 7.47516 2.4223C7.44414 2.45093 7.41721 2.47699 7.39421 2.5H8.55014ZM4.52484 2.4223C4.55586 2.45093 4.58279 2.47699 4.60579 2.5H3.44986L2.03746 1.21634C2.78 1.38672 3.3436 1.6338 3.75386 1.86824C4.11981 2.07736 4.37189 2.28111 4.52484 2.4223ZM2.01605 1.21146L2.04698 1.2677L2.00833 1.20972L2.01605 1.21146ZM4 6C4.55229 6 5 5.55229 5 5C5 4.44771 4.55229 4 4 4C3.44771 4 3 4.44771 3 5C3 5.55229 3.44771 6 4 6ZM9 5C9 5.55229 8.55229 6 8 6C7.44771 6 7 5.55229 7 5C7 4.44771 7.44771 4 8 4C8.55229 4 9 4.44771 9 5Z" fill="#4C505B"/>
</svg>
