<svg width="12" height="12" viewBox="0 0 12 12" fill="none" xmlns="http://www.w3.org/2000/svg">
<path fill-rule="evenodd" clip-rule="evenodd" d="M4 6C4.55228 6 5 5.55228 5 5C5 4.44772 4.55228 4 4 4C3.44772 4 3 4.44772 3 5C3 5.55228 3.44772 6 4 6ZM4 5.5C4.27614 5.5 4.5 5.27614 4.5 5C4.5 4.72386 4.27614 4.5 4 4.5C3.72386 4.5 3.5 4.72386 3.5 5C3.5 5.27614 3.72386 5.5 4 5.5Z" fill="#4C505B"/>
<path fill-rule="evenodd" clip-rule="evenodd" d="M9 5C9 5.55228 8.55228 6 8 6C7.44772 6 7 5.55228 7 5C7 4.44772 7.44772 4 8 4C8.55228 4 9 4.44772 9 5ZM8.5 5C8.5 5.27614 8.27614 5.5 8 5.5C7.72386 5.5 7.5 5.27614 7.5 5C7.5 4.72386 7.72386 4.5 8 4.5C8.27614 4.5 8.5 4.72386 8.5 5Z" fill="#4C505B"/>
<path fill-rule="evenodd" clip-rule="evenodd" d="M5.5 2C5.5 2 4.31634 0.421781 1.24803 0.0692648C0.862271 0.0249456 0.446727 0 0 0L2 3L0 8L6 12L12 8L10 3L12 0C11.5533 0 11.1377 0.0249456 10.752 0.0692648C7.68366 0.421781 6.5 2 6.5 2H5.5ZM9.99167 1.20972L9.98395 1.21146L9.953 1.26772L9.99167 1.20972ZM8.24614 1.86824C8.6564 1.63381 9.22 1.38672 9.96253 1.21635L8 2.99999L8.92297 3L10.0578 5.83708C9.28058 6.18222 8.36349 6.69253 7.55862 7.35024C6.98142 7.82191 6.43642 8.3911 6.05235 9.05036C5.70501 8.37302 5.19151 7.78859 4.64257 7.30615C3.78237 6.55015 2.78006 5.99392 2.01062 5.66603L3.07703 3L4 2.99999L2.03747 1.21635C2.78 1.38672 3.3436 1.63381 3.75386 1.86824C4.11981 2.07736 4.37189 2.28111 4.52485 2.4223C4.60138 2.49295 4.65311 2.54795 4.6818 2.58008C4.6947 2.59453 4.70292 2.60433 4.70659 2.60879L5 3H7L7.29341 2.60879C7.29708 2.60433 7.3053 2.59453 7.3182 2.58008C7.34689 2.54795 7.39862 2.49295 7.47515 2.4223C7.62811 2.28111 7.88019 2.07736 8.24614 1.86824ZM2.01605 1.21146L2.00833 1.20972L2.047 1.26772L2.01605 1.21146ZM10.4295 6.76624C9.72914 7.08024 8.90567 7.5409 8.19139 8.12458C7.3755 8.7913 6.76227 9.56712 6.5664 10.4206L10.7702 7.61803L10.4295 6.76624ZM1.22982 7.61803L1.63913 6.59475C2.32417 6.88891 3.22223 7.38918 3.98242 8.05729C4.75938 8.74012 5.33726 9.54754 5.47072 10.4453L1.22982 7.61803Z" fill="#4C505B"/>
</svg>
