<svg width="12" height="12" viewBox="0 0 12 12" fill="none" xmlns="http://www.w3.org/2000/svg">
<path fill-rule="evenodd" clip-rule="evenodd" d="M5.5 0H6.5V1.02469C8.86221 1.25922 10.7408 3.13779 10.9753 5.5H12V6.5H10.9753C10.7408 8.86221 8.86221 10.7408 6.5 10.9753V12H5.5V10.9753C3.13779 10.7408 1.25922 8.86221 1.02469 6.5H0V5.5H1.02469C1.25922 3.13779 3.13779 1.25922 5.5 1.02469V0ZM2.03095 6.5H3V5.5H2.03095C2.25657 3.69064 3.69064 2.25657 5.5 2.03095V3H6.5V2.03095C8.30936 2.25657 9.74343 3.69064 9.96905 5.5H9V6.5H9.96905C9.74343 8.30936 8.30936 9.74343 6.5 9.96905V9H5.5V9.96905C3.69064 9.74343 2.25657 8.30936 2.03095 6.5Z" fill="#4C505B"/>
</svg>
