<svg width="12" height="12" viewBox="0 0 12 12" xmlns="http://www.w3.org/2000/svg">
<path d="M10 12H2V11H10V12ZM3.63379 6.75098C3.63379 7.50401 3.83273 8.08523 4.22949 8.49414C4.63025 8.90286 5.22726 9.10737 6.02051 9.10742C6.56302 9.10742 7.00646 9.00976 7.35059 8.81543C7.69866 8.6171 7.95608 8.34232 8.12207 7.99023C8.29211 7.63396 8.37695 7.22242 8.37695 6.75684V1H9.40332V6.74512C9.4033 7.37258 9.27554 7.93107 9.02051 8.4209C8.7695 8.91078 8.38903 9.29765 7.87891 9.58105C7.36882 9.86034 6.7291 10 5.95996 10C4.86295 9.99998 4.02702 9.70244 3.45215 9.10742C2.88131 8.51229 2.59571 7.71663 2.5957 6.7207V1H3.63379V6.75098Z"/>
</svg>
