<svg width="12" height="12" viewBox="0 0 12 12" xmlns="http://www.w3.org/2000/svg">
<path d="M4 2.5H11V3.5H4V2.5Z"/>
<path d="M4 5.5H11V6.5H4V5.5Z"/>
<path d="M4 8.5H11V9.5H4V8.5Z"/>
<path d="M3 9C3 9.55228 2.55228 10 2 10C1.44772 10 1 9.55228 1 9C1 8.44771 1.44772 8 2 8C2.55228 8 3 8.44771 3 9Z"/>
<path d="M3 6C3 6.55228 2.55228 7 2 7C1.44772 7 1 6.55228 1 6C1 5.44772 1.44772 5 2 5C2.55228 5 3 5.44772 3 6Z"/>
<path d="M3 3C3 3.55228 2.55228 4 2 4C1.44772 4 1 3.55228 1 3C1 2.44772 1.44772 2 2 2C2.55228 2 3 2.44772 3 3Z"/>
</svg>
