<svg width="12" height="12" viewBox="0 0 12 12" xmlns="http://www.w3.org/2000/svg">
<path d="M12 12H0V10H12V12Z"/>
<path fill-rule="evenodd" clip-rule="evenodd" d="M9.96387 9H8.88477L7.78125 6.15527H4.18848L3.09082 9H2.03711L5.54297 0H6.48145L9.96387 9ZM5.85645 1.58789C5.81149 1.75138 5.76664 1.9048 5.72168 2.04785C5.67672 2.18681 5.63719 2.30523 5.60449 2.40332L4.53809 5.22949H7.46875L6.41992 2.40332C6.39542 2.32982 6.35498 2.2093 6.29785 2.04199C6.24472 1.87442 6.18905 1.70034 6.13184 1.52051C6.07462 1.34067 6.028 1.19532 5.99121 1.08496C5.95035 1.25251 5.90548 1.42034 5.85645 1.58789Z"/>
</svg>
