<svg width="12" height="12" viewBox="0 0 12 12" xmlns="http://www.w3.org/2000/svg">
<path d="M2 5.5H10V6.5H2V5.5Z"/>
<path d="M10 6.5H2V5.5H10V6.5Z"/>
<path d="M8.82129 7C8.98064 7.31076 9.06049 7.69091 9.06055 8.14062C9.06055 8.71725 8.91624 9.21009 8.62793 9.61816C8.34409 10.0217 7.94508 10.3301 7.43066 10.543C6.91618 10.7559 6.31058 10.8623 5.61426 10.8623C5.24611 10.8623 4.89757 10.8441 4.56934 10.8086C4.24135 10.7731 3.93987 10.7227 3.66504 10.6562C3.39008 10.5897 3.1479 10.5077 2.93945 10.4102V9.3252C3.27212 9.4627 3.67818 9.59118 4.15723 9.71094C4.63623 9.82624 5.13778 9.88379 5.66113 9.88379C6.14885 9.88375 6.56144 9.82 6.89844 9.69141C7.23534 9.55839 7.49013 9.36977 7.66309 9.12598C7.84048 8.87762 7.92966 8.58029 7.92969 8.23438C7.92969 7.90171 7.85634 7.62412 7.70996 7.40234C7.61674 7.25832 7.4819 7.12604 7.30957 7H8.82129ZM6.17285 0.862305C6.69181 0.862305 7.17123 0.911206 7.61035 1.00879C8.05381 1.10637 8.46004 1.23728 8.82812 1.40137L8.47461 2.37305C8.12431 2.22673 7.75204 2.10439 7.35742 2.00684C6.96713 1.90926 6.56339 1.86036 6.14648 1.86035C5.72965 1.86035 5.37714 1.92274 5.08887 2.04688C4.8051 2.16659 4.58733 2.33694 4.43652 2.55859C4.28573 2.78035 4.20997 3.04456 4.20996 3.35059C4.20996 3.69201 4.28101 3.97597 4.42285 4.20215C4.56923 4.42836 4.80031 4.63019 5.11523 4.80762C5.23222 4.87098 5.36346 4.93426 5.50781 5H3.60742C3.44604 4.8065 3.31725 4.59063 3.22559 4.34863C3.11914 4.05589 3.06543 3.72077 3.06543 3.34375C3.06547 2.82509 3.19655 2.38168 3.45801 2.01367C3.72414 1.64108 4.09091 1.35727 4.55664 1.16211C5.02673 0.962583 5.56532 0.862319 6.17285 0.862305Z"/>
</svg>
