<svg width="12" height="12" viewBox="0 0 12 12" xmlns="http://www.w3.org/2000/svg">
<path d="M2.29297 1H5.40514C6.73665 1 7.7444 1.18696 8.4284 1.56088C9.11239 1.93479 9.45439 2.59143 9.45439 3.53078C9.45439 3.90926 9.39283 4.25125 9.26971 4.55677C9.15115 4.86229 8.97788 5.11309 8.74988 5.30917C8.52188 5.50524 8.24372 5.63292 7.9154 5.6922V5.7606C8.24828 5.829 8.54924 5.94756 8.81828 6.11628C9.08731 6.28044 9.30163 6.52212 9.46123 6.84131C9.62539 7.15595 9.70747 7.57547 9.70747 8.09986C9.70747 8.70634 9.55927 9.22617 9.26287 9.65937C8.96648 10.0926 8.5424 10.4254 7.99064 10.658C7.44345 10.886 6.79137 11 6.03442 11H2.29297V1ZM4.41335 4.96033H5.64454C6.26014 4.96033 6.68649 4.86457 6.92361 4.67305C7.16073 4.47697 7.27929 4.18969 7.27929 3.81122C7.27929 3.42818 7.13793 3.15458 6.85521 2.99042C6.57705 2.82171 6.13474 2.73735 5.52826 2.73735H4.41335V4.96033ZM4.41335 6.64295V9.24897H5.79502C6.43342 9.24897 6.87801 9.12585 7.12881 8.87962C7.37961 8.63338 7.50501 8.30278 7.50501 7.88783C7.50501 7.64159 7.45029 7.42499 7.34085 7.23803C7.23141 7.05107 7.04673 6.90515 6.78681 6.80027C6.53146 6.69539 6.17806 6.64295 5.72662 6.64295H4.41335Z"/>
</svg>
