<svg width="12" height="12" viewBox="0 0 12 12" xmlns="http://www.w3.org/2000/svg">
<path d="M1.95117 7.98242C2.20866 7.98242 2.41309 8.03402 2.56348 8.1377C2.71376 8.24137 2.78906 8.38809 2.78906 8.57715C2.78903 8.69212 2.76461 8.79173 2.7168 8.87598C2.66896 8.96022 2.60443 9.02949 2.52246 9.08301C2.4416 9.13654 2.35038 9.17611 2.24902 9.20117V9.21094C2.44943 9.23602 2.60144 9.29756 2.70508 9.39551C2.8099 9.49349 2.8623 9.625 2.8623 9.78906C2.86222 9.93458 2.82646 10.0648 2.75488 10.1797C2.68425 10.2948 2.57486 10.3861 2.42676 10.4521C2.27875 10.5182 2.08783 10.5507 1.85449 10.5508C1.71663 10.5508 1.5874 10.5394 1.46777 10.5166C1.34932 10.495 1.2376 10.4616 1.13281 10.416V9.9668C1.23985 10.0214 1.35245 10.0624 1.46973 10.0908C1.58701 10.1181 1.6965 10.1318 1.79785 10.1318C1.98676 10.1318 2.11916 10.1 2.19434 10.0352C2.27067 9.96908 2.30859 9.8763 2.30859 9.75781C2.30859 9.68845 2.29104 9.62983 2.25586 9.58203C2.22058 9.53423 2.15886 9.49772 2.07129 9.47266C1.9847 9.44759 1.86312 9.43457 1.70703 9.43457H1.51758V9.03027H1.71094C1.86432 9.03024 1.98089 9.01569 2.06055 8.9873C2.14144 8.95768 2.19613 8.91732 2.22461 8.86719C2.25416 8.816 2.26949 8.75817 2.26953 8.69336C2.26953 8.6045 2.24218 8.5345 2.1875 8.48438C2.13285 8.43428 2.04154 8.40921 1.91406 8.40918C1.83437 8.40918 1.76135 8.41995 1.69531 8.44043C1.63057 8.45974 1.57182 8.48335 1.51953 8.51172C1.46712 8.53906 1.42074 8.56657 1.38086 8.59277L1.13672 8.22852C1.23456 8.15801 1.34872 8.09939 1.47949 8.05273C1.61159 8.00604 1.76898 7.98244 1.95117 7.98242ZM11 9.5625H4V8.5625H11V9.5625ZM2.02539 4.69824C2.18924 4.6983 2.33003 4.72792 2.44727 4.78711C2.56556 4.84634 2.65697 4.92687 2.7207 5.0293C2.78446 5.13067 2.81641 5.2463 2.81641 5.375C2.81634 5.51255 2.7889 5.63823 2.73438 5.75195C2.67969 5.86589 2.59993 5.97917 2.49512 6.09082C2.39144 6.20247 2.26611 6.32634 2.11914 6.46191L1.79785 6.76367V6.78809H2.88672V7.23242H1.13965V6.86523L1.7666 6.23047C1.89306 6.1006 1.99496 5.99284 2.07129 5.90625C2.14866 5.81864 2.20409 5.73869 2.23828 5.66699C2.27353 5.59536 2.29192 5.51837 2.29199 5.43652C2.29199 5.33748 2.26374 5.26286 2.20801 5.21387C2.15332 5.16374 2.07959 5.13867 1.9873 5.13867C1.89046 5.13867 1.79622 5.16064 1.70508 5.20508C1.61396 5.24951 1.51901 5.31351 1.41992 5.39551L1.13281 5.05469C1.20455 4.9932 1.28064 4.93552 1.36035 4.88086C1.44123 4.82619 1.53469 4.78206 1.64062 4.74902C1.74768 4.71489 1.87624 4.69824 2.02539 4.69824ZM11 6.5H4V5.5H11V6.5ZM2.37207 3.94824H1.84375V2.50195C1.84375 2.46219 1.84457 2.41336 1.8457 2.35547C1.84684 2.29622 1.84831 2.23535 1.85059 2.17383C1.85286 2.11127 1.85515 2.05495 1.85742 2.00488C1.84485 2.01972 1.81889 2.04569 1.78027 2.08203C1.74282 2.11721 1.70774 2.14935 1.6748 2.17773L1.3877 2.4082L1.13281 2.08984L1.9375 1.44922H2.37207V3.94824ZM11 3.43652H4V2.43652H11V3.43652Z"/>
</svg>
