<svg width="12" height="12" viewBox="0 0 12 12" xmlns="http://www.w3.org/2000/svg">
<path d="M2.82861 11L2.97147 10.4L3.60004 10.3714C4.10004 10.3571 4.52861 10.0571 4.6429 9.58571L6.25718 2.58571C6.28576 2.45714 6.30004 2.34286 6.30004 2.24286C6.30004 1.82857 6.02861 1.65714 5.45718 1.62857L4.87147 1.6L5.00004 1H9.17147L9.02861 1.6L8.40004 1.62857C7.81433 1.65714 7.47147 1.94286 7.37147 2.41429L5.70004 9.57143C5.68576 9.65714 5.67147 9.74286 5.67147 9.81429C5.67147 10.1857 5.9429 10.3571 6.35718 10.3714L7.1429 10.4L7.00004 11H2.82861Z"/>
</svg>
