<svg width="12" height="12" viewBox="0 0 12 12" xmlns="http://www.w3.org/2000/svg">
<path fill-rule="evenodd" clip-rule="evenodd" d="M10.0049 4.99902H11.999V10.999H11L10.9902 11.0996C10.9435 11.3273 10.7415 11.499 10.5 11.499H10C9.75845 11.499 9.55647 11.3273 9.50977 11.0996L9.5 10.999H7L6.99023 11.0996C6.94353 11.3273 6.74155 11.499 6.5 11.499H6C5.75845 11.499 5.55647 11.3273 5.50977 11.0996L5.5 10.999H4.51172V4.99902H6.50488V3H10.0049V4.99902ZM7.50488 4.99902H9.00488V4H7.50488V4.99902Z"/>
<path fill-rule="evenodd" clip-rule="evenodd" d="M4.75 1.99902H6V3.99902H3.51855V9.99902H2V10.665C2 10.8491 1.77614 10.999 1.5 10.999C1.22386 10.999 1 10.8491 1 10.665V9.99902H0V1.99902H1.25V0.000976562H4.75V1.99902ZM2.25 1.99902H3.75V1.00195H2.25V1.99902Z"/>
</svg>
