<svg width="12" height="12" viewBox="0 0 12 12" fill="none" xmlns="http://www.w3.org/2000/svg">
<path d="M7.29261 10.8297C9.95994 10.1149 11.5428 7.37326 10.8281 4.70593C10.1134 2.0386 7.37175 0.455686 4.70442 1.1704C4.01612 1.35482 3.40115 1.67361 2.87915 2.09061C2.6026 2.31153 2.35191 2.5602 2.13024 2.83133C1.95832 3.04159 1.80389 3.26532 1.6684 3.5L3.99854 3.5V4.5H-0.00146484L-0.00146389 0.499999L0.998536 0.5L0.998535 2.68324C1.10942 2.51595 1.22873 2.35409 1.35606 2.19836C1.62191 1.8732 1.92278 1.5747 2.25501 1.3093C2.88271 0.807863 3.6216 0.425259 4.4456 0.204469C7.64639 -0.653181 10.9364 1.24631 11.7941 4.44711C12.6517 7.64791 10.7522 10.9379 7.55142 11.7956L7.29261 10.8297Z" fill="#4C505B"/>
</svg>
