<svg width="12" height="12" viewBox="0 0 12 12" xmlns="http://www.w3.org/2000/svg" >
<path fill-rule="evenodd" clip-rule="evenodd" d="M6 12C9.31371 12 12 9.31371 12 6C12 2.68629 9.31371 0 6 0C2.68629 0 0 2.68629 0 6C0 9.31371 2.68629 12 6 12ZM6 4C6.55228 4 7 3.55228 7 3C7 2.44772 6.55228 2 6 2C5.44772 2 5 2.44772 5 3C5 3.55228 5.44772 4 6 4ZM5.23607 9.92713C5.40644 9.49751 5.65073 8.77479 5.81269 7.98365L6.18595 7.97614C6.34798 8.77033 6.59334 9.49629 6.76421 9.92707C7.0982 9.86246 7.41737 9.7563 7.71614 9.61418C7.50599 9.09854 7.13022 7.97393 7.03855 6.92607C6.99338 6.4098 6.99485 6.15124 6.99798 5.59906L6.99885 5.43773C7.92499 5.32924 8.76697 5.10471 9.15809 4.97434L8.84186 4.02566C8.37143 4.18247 7.12754 4.5 5.99997 4.5C4.8724 4.5 3.62852 4.18247 3.15809 4.02566L2.84186 4.97434C3.23301 5.10472 4.07507 5.32927 5.00129 5.43776L5.00236 5.61358C5.00578 6.15064 5.00739 6.40211 4.96149 6.92675C4.86984 7.97424 4.49431 9.09842 4.28412 9.61431C4.5829 9.7564 4.90208 9.86254 5.23607 9.92713Z" />
</svg>
