<svg width="12" height="12" viewBox="0 0 12 12" xmlns="http://www.w3.org/2000/svg" >
<path d="M6 4C6.55228 4 7 3.55228 7 3C7 2.44772 6.55228 2 6 2C5.44772 2 5 2.44772 5 3C5 3.55228 5.44772 4 6 4Z" />
<path d="M5.23614 9.92713C5.4065 9.49751 5.65079 8.77479 5.81275 7.98365L6.18601 7.97614C6.34804 8.77033 6.5934 9.49629 6.76427 9.92707C7.09826 9.86246 7.41743 9.7563 7.7162 9.61418C7.50606 9.09854 7.13029 7.97393 7.03861 6.92607C6.99344 6.4098 6.99491 6.15124 6.99804 5.59906L6.99891 5.43773C7.92505 5.32924 8.76703 5.10471 9.15815 4.97434L8.84192 4.02566C8.37149 4.18247 7.1276 4.5 6.00003 4.5C4.87246 4.5 3.62858 4.18247 3.15815 4.02566L2.84192 4.97434C3.23307 5.10472 4.07513 5.32927 5.00135 5.43776L5.00242 5.61358C5.00584 6.15064 5.00745 6.40211 4.96155 6.92675C4.8699 7.97424 4.49437 9.09842 4.28418 9.61431C4.58296 9.7564 4.90214 9.86254 5.23614 9.92713Z" />
<path fill-rule="evenodd" clip-rule="evenodd" d="M12 6C12 9.31371 9.31371 12 6 12C2.68629 12 0 9.31371 0 6C0 2.68629 2.68629 0 6 0C9.31371 0 12 2.68629 12 6ZM11 6C11 8.76142 8.76142 11 6 11C3.23858 11 1 8.76142 1 6C1 3.23858 3.23858 1 6 1C8.76142 1 11 3.23858 11 6Z" />
</svg>
