<!-- Generated by IcoMoon.io -->
<svg version="1.1" xmlns="http://www.w3.org/2000/svg" viewBox="0 0 12 12">
<title>unlinked</title>
<path d="M3.924 3.902l0.844 0.766c-0.085 0.060-0.166 0.128-0.243 0.204v0l-2.795 2.795c-0.721 0.721-0.721 1.891 0 2.612s1.891 0.721 2.612 0v0l1.492-1.494 0.751 0.78-1.541 1.543c-1.154 1.154-3.025 1.154-4.179 0s-1.154-3.025 0-4.179l2.786-2.786c0.087-0.087 0.178-0.167 0.273-0.241z"></path>
<path d="M8.021 8.104c-0.196-0.217-0.484-0.534-0.863-0.954l0.108 0.12c0.068-0.051 0.133-0.107 0.194-0.169v0l2.795-2.795c0.721-0.721 0.721-1.891 0-2.612s-1.891-0.721-2.612 0v0l-1.492 1.493-0.751-0.78 1.541-1.542c1.154-1.154 3.025-1.154 4.179 0s1.154 3.025 0 4.179l-2.786 2.786c-0.092 0.092-0.189 0.177-0.29 0.255z"></path>
<path d="M0 4h2.5v-1h-2.5z"></path>
<path d="M3 2.5h1v-2.5h-1z"></path>
<path d="M12 8h-2.5v1h2.5z"></path>
<path d="M9 9.5h-1v2.5h1z"></path>
</svg>
