<!-- Generated by IcoMoon.io -->
<svg version="1.1" xmlns="http://www.w3.org/2000/svg" width="12" height="12" viewBox="0 0 12 12">
<title>unlinked</title>
<path d="M4 0v2.5h-1v-2.5h1z"></path>
<path d="M8.443 1.371c0.39-0.39 1.023-0.39 1.414 0l0.707 0.707c0.391 0.391 0.391 1.024 0 1.414l-3.536 3.536 0.707 0.707 3.536-3.536c0.781-0.781 0.781-2.047 0-2.828l-0.707-0.707c-0.781-0.781-2.047-0.781-2.828-0l-1.768 1.768 0.707 0.707 1.768-1.768z"></path>
<path d="M3.492 10.564c-0.39 0.39-1.023 0.39-1.414-0l-0.707-0.707c-0.391-0.391-0.391-1.024 0-1.414l3.536-3.536-0.707-0.707-3.536 3.536c-0.781 0.781-0.781 2.047 0 2.828l0.707 0.707c0.781 0.781 2.047 0.782 2.828 0l1.768-1.768-0.707-0.707-1.768 1.768z"></path>
<path d="M9.5 8h2.5v1h-2.5v-1z"></path>
<path d="M2.5 3h-2.5v1h2.5v-1z"></path>
<path d="M9 12v-2.5h-1v2.5h1z"></path>
</svg>
