<!-- Generated by IcoMoon.io -->
<svg version="1.1" xmlns="http://www.w3.org/2000/svg" viewBox="0 0 12 12">
<title>unlocked-solid</title>
<path d="M8 0c1.105 0 2 0.895 2 2h-1v2h3v8h-12v-8h2v-2c0-1.054 0.816-1.918 1.851-1.995l0.149-0.005h4zM6 6c-0.828 0-1.5 0.672-1.5 1.5 0 0.603 0.356 1.123 0.869 1.361l0.131 0.054-0 1.085h1l0.001-1.086c0.582-0.206 0.999-0.762 0.999-1.414 0-0.828-0.672-1.5-1.5-1.5zM8 1h-4c-0.513 0-0.936 0.386-0.993 0.883l-0.007 0.117v2h5.999l0.001-2c0-0.552-0.448-1-1-1z"></path>
</svg>
