<!-- Generated by IcoMoon.io -->
<svg version="1.1" xmlns="http://www.w3.org/2000/svg" width="12" height="12" viewBox="0 0 12 12">
<title>user-admin-solid</title>
<path d="M6 12c4.813-2.182 5.5-7.364 5.5-10.091-0.14-0.023-0.28-0.045-0.418-0.067-1.495-0.238-2.943-0.469-5.082-1.842-2.139 1.373-3.587 1.603-5.082 1.842-0.139 0.022-0.278 0.044-0.418 0.067-0 2.727 0.688 7.909 5.5 10.091zM8.504 8.777c-0.628 0.824-1.444 1.556-2.504 2.11-1.059-0.554-1.876-1.287-2.504-2.11 0.021-0.005 0.041-0.010 0.060-0.015 0.041-0.018 0.082-0.032 0.123-0.044 0.393-0.117 0.688-0.252 0.888-0.404s0.322-0.349 0.369-0.589c-0.176-0.182-0.337-0.398-0.483-0.65s-0.27-0.521-0.369-0.809c-0.105-0.287-0.188-0.58-0.246-0.879-0.059-0.305-0.088-0.601-0.088-0.888 0-0.41 0.059-0.759 0.176-1.046s0.278-0.519 0.483-0.694c0.205-0.182 0.442-0.311 0.712-0.387 0.275-0.082 0.568-0.123 0.879-0.123s0.604 0.041 0.879 0.123c0.27 0.076 0.507 0.205 0.712 0.387 0.205 0.176 0.366 0.407 0.483 0.694s0.176 0.636 0.176 1.046c0 0.287-0.029 0.583-0.088 0.888-0.059 0.299-0.141 0.592-0.246 0.879-0.1 0.287-0.223 0.557-0.369 0.809s-0.308 0.469-0.483 0.65c0.047 0.24 0.17 0.437 0.369 0.589s0.495 0.287 0.888 0.404c0.041 0.012 0.082 0.026 0.123 0.044 0.020 0.005 0.040 0.010 0.060 0.015z"></path>
</svg>
