<svg width="12" height="12" viewBox="0 0 12 12" fill="none" xmlns="http://www.w3.org/2000/svg">
<path fill-rule="evenodd" clip-rule="evenodd" d="M6 12C1.18752 9.81818 0.499983 4.63636 0.5 1.90909C0.640234 1.88591 0.779476 1.86372 0.918314 1.84159C2.41306 1.60333 3.86117 1.37251 6 0C8.13883 1.37251 9.58694 1.60333 11.0817 1.84159C11.2205 1.86372 11.3598 1.88591 11.5 1.90909C11.5 4.63636 10.8125 9.81818 6 12ZM7.97698 9.39744C7.43663 9.96847 6.78486 10.4769 6 10.8878C5.21514 10.4769 4.56337 9.96847 4.02302 9.39744C4.40409 9.27443 4.75059 9.11851 5.02297 8.91022C5.36387 8.64953 5.58972 8.2942 5.67264 7.86922L5.74757 7.48519L5.47548 7.20402C5.34773 7.07202 5.22203 6.90554 5.10151 6.69823C4.98026 6.48969 4.87703 6.26428 4.79255 6.02077L4.79033 6.01436L4.78799 6.00799C4.69628 5.75834 4.62506 5.50403 4.57414 5.24472C4.52398 4.98349 4.5 4.73554 4.5 4.5C4.5 4.15733 4.54947 3.91073 4.62017 3.73752C4.69901 3.54437 4.79529 3.41662 4.89727 3.32921L4.9019 3.32524L4.90646 3.32121C5.02513 3.21609 5.1616 3.14097 5.32506 3.09478L5.33014 3.09334L5.3352 3.09184C5.53574 3.0321 5.75613 3 6 3C6.24387 3 6.46427 3.0321 6.6648 3.09184L6.66986 3.09334L6.67494 3.09478C6.8384 3.14097 6.97487 3.21609 7.09354 3.32121L7.0981 3.32524L7.10273 3.32921C7.20471 3.41662 7.30099 3.54437 7.37983 3.73752C7.45053 3.91073 7.5 4.15733 7.5 4.5C7.5 4.73555 7.47602 4.98352 7.42585 5.24478C7.37493 5.50407 7.30371 5.75836 7.21201 6.00799L7.20967 6.01436L7.20745 6.02077C7.12297 6.26428 7.01974 6.48969 6.8985 6.69823C6.77797 6.90554 6.65227 7.07202 6.52453 7.20402L6.25243 7.48519L6.32736 7.86922C6.41028 8.2942 6.63613 8.64953 6.97703 8.91022C7.24941 9.11851 7.59591 9.27443 7.97698 9.39744ZM8.50355 8.77736C8.48298 8.77247 8.46291 8.76758 8.44336 8.7627C8.40234 8.74512 8.36133 8.73047 8.32031 8.71875C7.92774 8.60156 7.63184 8.4668 7.43262 8.31445C7.2334 8.16211 7.11035 7.96582 7.06348 7.72559C7.23926 7.54395 7.40039 7.32715 7.54688 7.0752C7.69336 6.82324 7.81641 6.55371 7.91602 6.2666C8.02148 5.97949 8.10352 5.68652 8.16211 5.3877C8.2207 5.08301 8.25 4.78711 8.25 4.5C8.25 4.08984 8.19141 3.74121 8.07422 3.4541C7.95703 3.16699 7.7959 2.93555 7.59082 2.75977C7.38574 2.57812 7.14844 2.44922 6.87891 2.37305C6.60352 2.29102 6.31055 2.25 6 2.25C5.68945 2.25 5.39648 2.29102 5.12109 2.37305C4.85156 2.44922 4.61426 2.57812 4.40918 2.75977C4.2041 2.93555 4.04297 3.16699 3.92578 3.4541C3.80859 3.74121 3.75 4.08984 3.75 4.5C3.75 4.78711 3.7793 5.08301 3.83789 5.3877C3.89648 5.68652 3.97852 5.97949 4.08398 6.2666C4.18359 6.55371 4.30664 6.82324 4.45312 7.0752C4.59961 7.32715 4.76074 7.54395 4.93652 7.72559C4.88965 7.96582 4.7666 8.16211 4.56738 8.31445C4.36816 8.4668 4.07227 8.60156 3.67969 8.71875C3.63867 8.73047 3.59766 8.74512 3.55664 8.7627C3.53709 8.76758 3.51702 8.77247 3.49645 8.77736C2.07286 6.90876 1.62213 4.56816 1.52309 2.75699C2.79894 2.54537 4.1794 2.24384 6 1.17375C7.8206 2.24384 9.20106 2.54537 10.4769 2.75699C10.3779 4.56815 9.92714 6.90876 8.50355 8.77736Z" fill="#4C505B"/>
</svg>
