<!-- Generated by IcoMoon.io -->
<svg version="1.1" xmlns="http://www.w3.org/2000/svg" width="12" height="12" viewBox="0 0 12 12">
<title>user-group</title>
<path d="M0 12h12v-2.334c-0.042-0.013-0.087-0.026-0.135-0.039-0.029-0.006-0.064-0.015-0.105-0.026s-0.097-0.029-0.167-0.053c-0.053-0.012-0.103-0.023-0.149-0.035-0.041-0.018-0.082-0.032-0.123-0.044-0.393-0.117-0.688-0.252-0.888-0.404s-0.322-0.349-0.369-0.589c0.176-0.182 0.337-0.398 0.483-0.65s0.269-0.521 0.369-0.809c0.106-0.287 0.188-0.58 0.246-0.879 0.059-0.305 0.088-0.601 0.088-0.888 0-0.41-0.059-0.759-0.176-1.046s-0.278-0.519-0.483-0.694c-0.205-0.182-0.442-0.311-0.712-0.387-0.275-0.082-0.568-0.123-0.879-0.123s-0.604 0.041-0.879 0.123c-0.27 0.076-0.507 0.205-0.712 0.387-0.205 0.176-0.366 0.407-0.483 0.694s-0.176 0.636-0.176 1.046c0 0.287 0.029 0.583 0.088 0.888 0.059 0.299 0.141 0.592 0.246 0.879 0.1 0.287 0.223 0.557 0.369 0.809s0.308 0.469 0.483 0.65c-0.025 0.13-0.073 0.248-0.144 0.353 0.022 0.009 0.044 0.017 0.066 0.026 0.224 0.070 0.43 0.17 0.616 0.297 0.094-0.162 0.161-0.34 0.198-0.532l0.075-0.384-0.272-0.281c-0.128-0.132-0.253-0.298-0.374-0.506-0.121-0.209-0.224-0.434-0.309-0.677l-0.002-0.006-0.002-0.006c-0.092-0.25-0.163-0.504-0.214-0.763-0.050-0.261-0.074-0.509-0.074-0.745 0-0.343 0.049-0.589 0.12-0.762 0.079-0.193 0.175-0.321 0.277-0.408l0.005-0.004 0.005-0.004c0.119-0.105 0.255-0.18 0.419-0.226l0.005-0.001 0.005-0.002c0.201-0.060 0.421-0.092 0.665-0.092s0.464 0.032 0.665 0.092l0.005 0.002 0.005 0.001c0.163 0.046 0.3 0.121 0.419 0.226l0.005 0.004 0.005 0.004c0.102 0.087 0.198 0.215 0.277 0.408 0.071 0.173 0.12 0.42 0.12 0.762 0 0.236-0.024 0.484-0.074 0.745-0.051 0.259-0.122 0.514-0.214 0.763l-0.002 0.006-0.002 0.006c-0.084 0.244-0.188 0.469-0.309 0.677-0.121 0.207-0.246 0.374-0.374 0.506l-0.272 0.281 0.075 0.384c0.083 0.425 0.309 0.78 0.65 1.041 0.303 0.232 0.697 0.398 1.129 0.527l0.004 0.001 0.004 0.001c0.009 0.003 0.020 0.007 0.034 0.012l0.055 0.024 0.047 0.012v1.013h-2.25v-0.163c0-0.029-0.001-0.058-0.002-0.087-0.016-0.38-0.141-0.72-0.374-1.020-0.243-0.322-0.555-0.541-0.935-0.655-0.086-0.036-0.186-0.072-0.301-0.107-0.107-0.036-0.236-0.075-0.387-0.118-0.036-0.007-0.079-0.018-0.129-0.032s-0.118-0.036-0.204-0.064c-0.064-0.014-0.125-0.029-0.183-0.043-0.050-0.021-0.1-0.039-0.15-0.054-0.48-0.143-0.841-0.308-1.085-0.494s-0.394-0.426-0.451-0.72c0.215-0.222 0.412-0.487 0.591-0.795s0.329-0.637 0.451-0.988c0.129-0.351 0.229-0.709 0.301-1.074 0.072-0.372 0.107-0.734 0.107-1.085 0-0.501-0.072-0.927-0.215-1.278s-0.34-0.634-0.591-0.849c-0.251-0.222-0.541-0.38-0.87-0.473-0.337-0.1-0.695-0.15-1.074-0.15s-0.738 0.050-1.074 0.15c-0.329 0.093-0.619 0.251-0.87 0.473-0.251 0.215-0.448 0.498-0.591 0.849s-0.215 0.777-0.215 1.278c0 0.351 0.036 0.713 0.107 1.085 0.072 0.365 0.172 0.723 0.301 1.074 0.122 0.351 0.272 0.68 0.451 0.988s0.376 0.573 0.591 0.795c-0.057 0.294-0.208 0.534-0.451 0.72s-0.605 0.351-1.085 0.494c-0.050 0.014-0.1 0.032-0.15 0.054-0.057 0.014-0.118 0.029-0.183 0.043-0.086 0.029-0.154 0.050-0.204 0.064s-0.092 0.025-0.127 0.032v2.901zM6.244 9.93c0.051 0.013 0.104 0.025 0.158 0.038 0.072 0.024 0.139 0.045 0.197 0.061 0.051 0.015 0.106 0.029 0.161 0.041 0.127 0.037 0.231 0.069 0.314 0.096l0.018 0.006c0.093 0.029 0.164 0.055 0.214 0.076l0.047 0.019 0.049 0.015c0.173 0.052 0.307 0.144 0.426 0.301l0.004 0.006 0.004 0.005c0.095 0.122 0.148 0.249 0.162 0.406h-6.996v-1.151c0.513-0.157 0.987-0.36 1.356-0.643 0.432-0.331 0.72-0.783 0.825-1.323l0.1-0.512-0.363-0.375c-0.151-0.156-0.3-0.354-0.445-0.602-0.145-0.25-0.269-0.521-0.371-0.813l-0.003-0.009-0.003-0.008c-0.111-0.301-0.196-0.607-0.258-0.92-0.060-0.314-0.089-0.612-0.089-0.894 0-0.411 0.059-0.701 0.141-0.9 0.092-0.226 0.203-0.37 0.316-0.467l0.006-0.005 0.006-0.005c0.135-0.12 0.291-0.206 0.479-0.259l0.007-0.002 0.007-0.002c0.237-0.071 0.498-0.109 0.789-0.109s0.552 0.038 0.789 0.109l0.007 0.002 0.007 0.002c0.188 0.053 0.344 0.139 0.479 0.259l0.006 0.005 0.006 0.005c0.113 0.097 0.224 0.242 0.316 0.467 0.081 0.199 0.141 0.489 0.141 0.9 0 0.282-0.029 0.58-0.089 0.894-0.061 0.313-0.147 0.619-0.258 0.92l-0.003 0.008-0.003 0.009c-0.102 0.293-0.226 0.563-0.371 0.813-0.144 0.248-0.294 0.446-0.445 0.602l-0.363 0.375 0.1 0.512c0.105 0.54 0.393 0.992 0.825 1.323 0.382 0.292 0.875 0.499 1.406 0.658l0.006 0.002 0.006 0.002c0.008 0.002 0.018 0.006 0.031 0.011l0.074 0.032 0.078 0.019z"></path>
</svg>
