<svg width="12" height="12" viewBox="0 0 12 12" >
<path d="M12 12V11.0039C12 10.5508 11.8633 10.1484 11.5898 9.79688C11.3242 9.44531 10.9844 9.20703 10.5703 9.08203C10.4766 9.04297 10.3672 9.00391 10.2422 8.96484C10.125 8.92578 9.98438 8.88281 9.82031 8.83594C9.78125 8.82812 9.73438 8.81641 9.67969 8.80078C9.625 8.78516 9.55078 8.76172 9.45703 8.73047C9.38672 8.71484 9.32031 8.69922 9.25781 8.68359C9.20312 8.66016 9.14844 8.64062 9.09375 8.625C8.57031 8.46875 8.17578 8.28906 7.91016 8.08594C7.64453 7.88281 7.48047 7.62109 7.41797 7.30078C7.65234 7.05859 7.86719 6.76953 8.0625 6.43359C8.25781 6.09766 8.42188 5.73828 8.55469 5.35547C8.69531 4.97266 8.80469 4.58203 8.88281 4.18359C8.96094 3.77734 9 3.38281 9 3C9 2.45312 8.92188 1.98828 8.76562 1.60547C8.60938 1.22266 8.39453 0.914062 8.12109 0.679688C7.84766 0.4375 7.53125 0.265625 7.17187 0.164062C6.80469 0.0546875 6.41406 0 6 0C5.58594 0 5.19531 0.0546875 4.82812 0.164062C4.46875 0.265625 4.15234 0.4375 3.87891 0.679688C3.60547 0.914062 3.39062 1.22266 3.23438 1.60547C3.07812 1.98828 3 2.45312 3 3C3 3.38281 3.03906 3.77734 3.11719 4.18359C3.19531 4.58203 3.30469 4.97266 3.44531 5.35547C3.57812 5.73828 3.74219 6.09766 3.9375 6.43359C4.13281 6.76953 4.34766 7.05859 4.58203 7.30078C4.51953 7.62109 4.35547 7.88281 4.08984 8.08594C3.82422 8.28906 3.42969 8.46875 2.90625 8.625C2.85156 8.64062 2.79688 8.66016 2.74219 8.68359C2.67969 8.69922 2.61328 8.71484 2.54297 8.73047C2.44922 8.76172 2.375 8.78516 2.32031 8.80078C2.26562 8.81641 2.21875 8.82812 2.17969 8.83594C2.01562 8.88281 1.875 8.92578 1.75781 8.96484C1.63281 9.00391 1.52344 9.04297 1.42969 9.08203C1.01562 9.20703 0.675781 9.44531 0.410156 9.79688C0.136719 10.1484 0 10.5508 0 11.0039V12H12Z" />
</svg>
