<!-- Generated by IcoMoon.io -->
<svg version="1.1" xmlns="http://www.w3.org/2000/svg" viewBox="0 0 12 12">
<title>user-solid</title>
<path d="M0 12v-1c0-0.744 0.406-1.392 1.008-1.737l-0.006-0.012c0.261-0.161 0.562-0.27 1.082-0.419 0.077-0.022 0.18-0.051 0.361-0.102 0.143-0.041 0.253-0.073 0.36-0.105 1.101-0.339 1.612-0.718 1.689-1.424-0.894-0.989-1.494-2.725-1.494-4.201 0-2.209 1.343-3 3-3l0.165 0.003c1.58 0.052 2.835 0.862 2.835 2.997 0 1.476-0.6 3.212-1.494 4.201 0.077 0.706 0.588 1.086 1.689 1.424 0.106 0.033 0.217 0.065 0.36 0.105 0.181 0.051 0.284 0.080 0.361 0.102 0.521 0.149 0.821 0.258 1.082 0.419v0l-0.006 0.012c0.602 0.345 1.008 0.993 1.008 1.737v0 1h-12z"></path>
</svg>
