<!-- Generated by IcoMoon.io -->
<svg version="1.1" xmlns="http://www.w3.org/2000/svg" width="12" height="12" viewBox="0 0 12 12">
<title>user-admin</title>
<path d="M6 12c4.813-2.182 5.5-7.364 5.5-10.091-0.14-0.023-0.28-0.045-0.418-0.067-1.495-0.238-2.943-0.469-5.082-1.842-2.139 1.373-3.587 1.603-5.082 1.842-0.139 0.022-0.278 0.044-0.418 0.067-0 2.727 0.688 7.909 5.5 10.091zM7.977 9.397c-0.54 0.571-1.192 1.079-1.977 1.49-0.785-0.411-1.437-0.919-1.977-1.49 0.381-0.123 0.728-0.279 1-0.487 0.341-0.261 0.567-0.616 0.65-1.041l0.075-0.384-0.272-0.281c-0.128-0.132-0.253-0.298-0.374-0.506-0.121-0.209-0.224-0.434-0.309-0.677l-0.002-0.006-0.002-0.006c-0.092-0.25-0.163-0.504-0.214-0.763-0.050-0.261-0.074-0.509-0.074-0.745 0-0.343 0.049-0.589 0.12-0.762 0.079-0.193 0.175-0.321 0.277-0.408l0.005-0.004 0.005-0.004c0.119-0.105 0.255-0.18 0.419-0.226l0.005-0.001 0.005-0.002c0.201-0.060 0.421-0.092 0.665-0.092s0.464 0.032 0.665 0.092l0.005 0.002 0.005 0.001c0.163 0.046 0.3 0.121 0.419 0.226l0.005 0.004 0.005 0.004c0.102 0.087 0.198 0.215 0.277 0.408 0.071 0.173 0.12 0.42 0.12 0.762 0 0.236-0.024 0.484-0.074 0.745-0.051 0.259-0.122 0.514-0.214 0.763l-0.002 0.006-0.002 0.006c-0.084 0.244-0.188 0.469-0.309 0.677-0.121 0.207-0.246 0.374-0.374 0.506l-0.272 0.281 0.075 0.384c0.083 0.425 0.309 0.78 0.65 1.041 0.272 0.208 0.619 0.364 1 0.487zM8.504 8.777c-0.021-0.005-0.041-0.010-0.060-0.015-0.041-0.018-0.082-0.032-0.123-0.044-0.393-0.117-0.688-0.252-0.888-0.404s-0.322-0.349-0.369-0.589c0.176-0.182 0.337-0.398 0.483-0.65s0.27-0.521 0.369-0.809c0.105-0.287 0.188-0.58 0.246-0.879 0.059-0.305 0.088-0.601 0.088-0.888 0-0.41-0.059-0.759-0.176-1.046s-0.278-0.519-0.483-0.694c-0.205-0.182-0.442-0.311-0.712-0.387-0.275-0.082-0.568-0.123-0.879-0.123s-0.604 0.041-0.879 0.123c-0.27 0.076-0.507 0.205-0.712 0.387-0.205 0.176-0.366 0.407-0.483 0.694s-0.176 0.636-0.176 1.046c0 0.287 0.029 0.583 0.088 0.888 0.059 0.299 0.141 0.592 0.246 0.879 0.1 0.287 0.223 0.557 0.369 0.809s0.308 0.469 0.483 0.65c-0.047 0.24-0.17 0.437-0.369 0.589s-0.495 0.287-0.888 0.404c-0.041 0.012-0.082 0.026-0.123 0.044-0.020 0.005-0.040 0.010-0.060 0.015-1.424-1.869-1.874-4.209-1.973-6.020 1.276-0.212 2.656-0.513 4.477-1.583 1.821 1.070 3.201 1.372 4.477 1.583-0.099 1.811-0.55 4.152-1.973 6.020z"></path>
</svg>
