<svg width="12" height="12" viewBox="0 0 12 12" fill="none" xmlns="http://www.w3.org/2000/svg">
<path fill-rule="evenodd" clip-rule="evenodd" d="M0 12H12V9.6664C11.9577 9.65369 11.9128 9.64054 11.8652 9.62695C11.8359 9.62109 11.8008 9.6123 11.7598 9.60059C11.7188 9.58887 11.6631 9.57129 11.5928 9.54785C11.54 9.53613 11.4902 9.52441 11.4434 9.5127C11.4023 9.49512 11.3613 9.48047 11.3203 9.46875C10.9277 9.35156 10.6318 9.2168 10.4326 9.06445C10.2334 8.91211 10.1104 8.71582 10.0635 8.47559C10.2393 8.29395 10.4004 8.07715 10.5469 7.8252C10.6934 7.57324 10.8164 7.30371 10.916 7.0166C11.0215 6.72949 11.1035 6.43652 11.1621 6.1377C11.2207 5.83301 11.25 5.53711 11.25 5.25C11.25 4.83984 11.1914 4.49121 11.0742 4.2041C10.957 3.91699 10.7959 3.68555 10.5908 3.50977C10.3857 3.32812 10.1484 3.19922 9.87891 3.12305C9.60352 3.04102 9.31055 3 9 3C8.68945 3 8.39648 3.04102 8.12109 3.12305C7.85156 3.19922 7.61426 3.32812 7.40918 3.50977C7.2041 3.68555 7.04297 3.91699 6.92578 4.2041C6.80859 4.49121 6.75 4.83984 6.75 5.25C6.75 5.53711 6.7793 5.83301 6.83789 6.1377C6.89648 6.43652 6.97852 6.72949 7.08398 7.0166C7.18359 7.30371 7.30664 7.57324 7.45312 7.8252C7.59961 8.07715 7.76074 8.29395 7.93652 8.47559C7.91106 8.60609 7.86312 8.72362 7.7927 8.82818C7.8151 8.83672 7.83703 8.84535 7.85848 8.85407C8.08231 8.92419 8.28803 9.02375 8.47457 9.15153C8.56819 8.98993 8.63508 8.81172 8.67264 8.61922L8.74757 8.23519L8.47548 7.95402C8.34773 7.82202 8.22203 7.65554 8.10151 7.44823C7.98026 7.23969 7.87703 7.01428 7.79255 6.77077L7.79033 6.76436L7.78799 6.75799C7.69628 6.50834 7.62506 6.25403 7.57414 5.99472C7.52398 5.73349 7.5 5.48554 7.5 5.25C7.5 4.90733 7.54947 4.66073 7.62017 4.48752C7.69901 4.29437 7.79529 4.16662 7.89727 4.07921L7.9019 4.07524L7.90646 4.07121C8.02513 3.96609 8.1616 3.89097 8.32506 3.84478L8.33014 3.84334L8.3352 3.84184C8.53574 3.7821 8.75613 3.75 9 3.75C9.24387 3.75 9.46426 3.7821 9.6648 3.84184L9.66986 3.84334L9.67494 3.84478C9.8384 3.89097 9.97487 3.96609 10.0935 4.07121L10.0981 4.07524L10.1027 4.07921C10.2047 4.16662 10.301 4.29437 10.3798 4.48752C10.4505 4.66073 10.5 4.90733 10.5 5.25C10.5 5.48555 10.476 5.73352 10.4258 5.99478C10.3749 6.25407 10.3037 6.50836 10.212 6.75799L10.2097 6.76436L10.2074 6.77077C10.123 7.01428 10.0197 7.23969 9.89849 7.44823C9.77797 7.65554 9.65227 7.82202 9.52452 7.95402L9.25243 8.23519L9.32736 8.61922C9.41028 9.0442 9.63613 9.39953 9.97703 9.66022C10.2798 9.89176 10.6742 10.0586 11.1058 10.1874L11.11 10.1887L11.1143 10.1899C11.1235 10.1925 11.1347 10.1964 11.1479 10.2021L11.2032 10.2257L11.25 10.2374V11.25H9V11.0869C9 11.0577 8.99938 11.0287 8.99814 11C8.98176 10.6199 8.85705 10.2801 8.62402 9.98047C8.38053 9.6582 8.06901 9.43978 7.68945 9.3252C7.60352 9.28939 7.50326 9.25358 7.38867 9.21777C7.28125 9.18197 7.15234 9.14258 7.00195 9.09961C6.96615 9.09245 6.92318 9.08171 6.87305 9.06738C6.82292 9.05306 6.75488 9.03158 6.66895 9.00293C6.60449 8.98861 6.54362 8.97428 6.48633 8.95996C6.4362 8.93848 6.38607 8.92057 6.33594 8.90625C5.85612 8.76302 5.49447 8.59831 5.25098 8.41211C5.00749 8.22591 4.8571 7.986 4.7998 7.69238C5.01465 7.47038 5.21159 7.2054 5.39063 6.89746C5.56966 6.58952 5.72005 6.26009 5.8418 5.90918C5.9707 5.55827 6.07096 5.2002 6.14258 4.83496C6.21419 4.46257 6.25 4.10091 6.25 3.75C6.25 3.2487 6.17839 2.82259 6.03516 2.47168C5.89193 2.12077 5.69499 1.83789 5.44434 1.62305C5.19369 1.40104 4.90365 1.24349 4.57422 1.15039C4.23763 1.05013 3.87956 1 3.5 1C3.12044 1 2.76237 1.05013 2.42578 1.15039C2.09635 1.24349 1.80632 1.40104 1.55566 1.62305C1.30501 1.83789 1.10807 2.12077 0.964844 2.47168C0.821615 2.82259 0.75 3.2487 0.75 3.75C0.75 4.10091 0.785808 4.46257 0.857422 4.83496C0.929037 5.2002 1.0293 5.55827 1.1582 5.90918C1.27995 6.26009 1.43034 6.58952 1.60938 6.89746C1.78841 7.2054 1.98535 7.47038 2.2002 7.69238C2.1429 7.986 1.99251 8.22591 1.74902 8.41211C1.50553 8.59831 1.14388 8.76302 0.664063 8.90625C0.613933 8.92057 0.563802 8.93848 0.513672 8.95996C0.45638 8.97428 0.395508 8.98861 0.331055 9.00293C0.245117 9.03158 0.177083 9.05306 0.126953 9.06738C0.0777313 9.08145 0.0354134 9.09206 0 9.09922V12ZM6.2438 9.9301C6.29476 9.94285 6.34734 9.95538 6.40143 9.96773C6.47384 9.99148 6.54052 10.0124 6.59832 10.0289C6.6498 10.0436 6.70403 10.0579 6.75893 10.0702C6.88572 10.1068 6.98962 10.1388 7.07244 10.1665L7.08139 10.1694L7.09039 10.1723C7.18361 10.2014 7.2539 10.227 7.30484 10.2483L7.35177 10.2678L7.40045 10.2825C7.57306 10.3346 7.70786 10.4267 7.82616 10.5833L7.83037 10.5889L7.83467 10.5944C7.92929 10.7161 7.98232 10.8438 7.99626 11H1V9.84939C1.51276 9.69261 1.98687 9.48911 2.35647 9.20647C2.78887 8.87581 3.07633 8.42384 3.18169 7.88389L3.2816 7.37185L2.9188 6.99696C2.768 6.84114 2.61831 6.64326 2.47388 6.39484C2.3285 6.14478 2.20453 5.87418 2.10296 5.58141L2.09999 5.57286L2.09687 5.56436C1.98632 5.26341 1.90047 4.9569 1.83909 4.64437C1.77872 4.3299 1.75 4.03216 1.75 3.75C1.75 3.33868 1.80945 3.04862 1.89069 2.84958C1.98279 2.62393 2.09327 2.47932 2.20646 2.3823L2.21262 2.37702L2.2187 2.37164C2.35415 2.25166 2.50974 2.16583 2.69774 2.1127L2.70451 2.11079L2.71126 2.10878C2.94804 2.03825 3.20934 2 3.5 2C3.79066 2 4.05196 2.03825 4.28874 2.10878L4.29549 2.11079L4.30226 2.1127C4.49026 2.16583 4.64585 2.25166 4.7813 2.37163L4.78738 2.37702L4.79354 2.3823C4.90674 2.47932 5.01721 2.62394 5.10931 2.84958C5.19055 3.04862 5.25 3.33868 5.25 3.75C5.25 4.03216 5.22128 4.3299 5.16091 4.64437C5.09953 4.9569 5.01368 5.26341 4.90313 5.56436L4.90001 5.57286L4.89704 5.58141C4.79547 5.87418 4.6715 6.14478 4.52612 6.39484C4.38169 6.64326 4.232 6.84114 4.0812 6.99696L3.7184 7.37185L3.81831 7.88389C3.92367 8.42384 4.21113 8.87581 4.64353 9.20647C5.02509 9.49825 5.51804 9.7057 6.0499 9.86447L6.05555 9.86615L6.06122 9.86777C6.06895 9.86998 6.0793 9.87349 6.09241 9.8791L6.16606 9.91067L6.2438 9.9301Z" fill="#4C505B"/>
</svg>
