<!-- Generated by IcoMoon.io -->
<svg version="1.1" xmlns="http://www.w3.org/2000/svg" width="12" height="12" viewBox="0 0 12 12">
<title>user-group-solid</title>
<path d="M0 12h9v-0.913c0-0.415-0.125-0.784-0.376-1.106-0.243-0.322-0.555-0.541-0.935-0.655-0.086-0.036-0.186-0.072-0.301-0.107-0.107-0.036-0.236-0.075-0.387-0.118-0.036-0.007-0.079-0.018-0.129-0.032s-0.118-0.036-0.204-0.064c-0.064-0.014-0.125-0.029-0.183-0.043-0.050-0.021-0.1-0.039-0.15-0.054-0.48-0.143-0.841-0.308-1.085-0.494s-0.394-0.426-0.451-0.72c0.215-0.222 0.412-0.487 0.591-0.795s0.329-0.637 0.451-0.988c0.129-0.351 0.229-0.709 0.301-1.074 0.072-0.372 0.107-0.734 0.107-1.085 0-0.501-0.072-0.927-0.215-1.278s-0.34-0.634-0.591-0.849c-0.251-0.222-0.541-0.38-0.87-0.473-0.337-0.1-0.695-0.15-1.074-0.15s-0.738 0.050-1.074 0.15c-0.329 0.093-0.619 0.251-0.87 0.473-0.251 0.215-0.448 0.498-0.591 0.849s-0.215 0.777-0.215 1.278c0 0.351 0.036 0.713 0.107 1.085 0.072 0.365 0.172 0.723 0.301 1.074 0.122 0.351 0.272 0.68 0.451 0.988s0.376 0.573 0.591 0.795c-0.057 0.294-0.208 0.534-0.451 0.72s-0.605 0.351-1.085 0.494c-0.050 0.014-0.1 0.032-0.15 0.054-0.057 0.014-0.118 0.029-0.183 0.043-0.086 0.029-0.154 0.050-0.204 0.064s-0.092 0.025-0.127 0.032v2.901z"></path>
<path d="M9.5 12h2.5v-2.334c-0.042-0.013-0.087-0.026-0.135-0.039-0.029-0.006-0.064-0.015-0.105-0.026s-0.097-0.029-0.167-0.053c-0.053-0.012-0.103-0.023-0.149-0.035-0.041-0.018-0.082-0.032-0.123-0.044-0.393-0.117-0.688-0.252-0.888-0.404s-0.322-0.349-0.369-0.589c0.176-0.182 0.337-0.398 0.483-0.65s0.269-0.521 0.369-0.809c0.106-0.287 0.188-0.58 0.246-0.879 0.059-0.305 0.088-0.601 0.088-0.888 0-0.41-0.059-0.759-0.176-1.046s-0.278-0.519-0.483-0.694c-0.205-0.182-0.442-0.311-0.712-0.387-0.275-0.082-0.568-0.123-0.879-0.123s-0.604 0.041-0.879 0.123c-0.27 0.076-0.507 0.205-0.712 0.387-0.205 0.176-0.366 0.407-0.483 0.694s-0.176 0.636-0.176 1.046c0 0.287 0.029 0.583 0.088 0.888 0.059 0.299 0.141 0.592 0.246 0.879 0.1 0.287 0.223 0.557 0.369 0.809s0.308 0.469 0.483 0.65c-0.025 0.13-0.073 0.248-0.144 0.353 0.022 0.009 0.044 0.017 0.066 0.026 0.471 0.148 0.862 0.425 1.162 0.822 0.319 0.411 0.479 0.887 0.479 1.411v0.913z"></path>
</svg>
