<!-- Generated by IcoMoon.io -->
<svg version="1.1" xmlns="http://www.w3.org/2000/svg" width="12" height="12" viewBox="0 0 12 12">
<title>user-solid</title>
<path d="M12 12v-0.996c0-0.453-0.137-0.856-0.41-1.207-0.266-0.352-0.605-0.59-1.019-0.715-0.094-0.039-0.203-0.078-0.328-0.117-0.117-0.039-0.258-0.082-0.422-0.129-0.039-0.008-0.086-0.020-0.141-0.035s-0.129-0.039-0.223-0.070c-0.070-0.016-0.137-0.031-0.199-0.047-0.055-0.023-0.109-0.043-0.164-0.059-0.523-0.156-0.918-0.336-1.184-0.539s-0.43-0.465-0.492-0.785c0.234-0.242 0.449-0.531 0.645-0.867s0.359-0.695 0.492-1.078c0.141-0.383 0.25-0.773 0.328-1.172 0.078-0.406 0.117-0.801 0.117-1.184 0-0.547-0.078-1.012-0.234-1.395s-0.371-0.691-0.645-0.926c-0.273-0.242-0.59-0.414-0.949-0.516-0.367-0.109-0.758-0.164-1.172-0.164s-0.805 0.055-1.172 0.164c-0.359 0.102-0.676 0.273-0.949 0.516-0.273 0.234-0.488 0.543-0.645 0.926s-0.234 0.848-0.234 1.395c0 0.383 0.039 0.777 0.117 1.184 0.078 0.398 0.188 0.789 0.328 1.172 0.133 0.383 0.297 0.742 0.492 1.078s0.41 0.625 0.645 0.867c-0.062 0.32-0.227 0.582-0.492 0.785s-0.66 0.383-1.184 0.539c-0.055 0.016-0.109 0.035-0.164 0.059-0.062 0.016-0.129 0.031-0.199 0.047-0.094 0.031-0.168 0.055-0.223 0.070s-0.102 0.027-0.141 0.035c-0.164 0.047-0.305 0.090-0.422 0.129-0.125 0.039-0.234 0.078-0.328 0.117-0.414 0.125-0.754 0.363-1.020 0.715-0.273 0.352-0.41 0.754-0.41 1.207v0.996h12z"></path>
</svg>
