<!-- Generated by IcoMoon.io -->
<svg version="1.1" xmlns="http://www.w3.org/2000/svg" width="12" height="12" viewBox="0 0 12 12">
<title>user</title>
<path d="M12 11v0.996l-12 0.004v-0.996c0-0.453 0.137-0.855 0.41-1.207 0.266-0.351 0.605-0.59 1.020-0.715 0.094-0.039 0.203-0.078 0.328-0.117 0.117-0.039 0.258-0.082 0.422-0.129 0.039-0.008 0.086-0.020 0.141-0.035s0.129-0.039 0.223-0.070c0.070-0.016 0.137-0.031 0.199-0.047 0.055-0.023 0.109-0.043 0.164-0.059 0.523-0.156 0.918-0.336 1.184-0.539s0.43-0.465 0.492-0.785c-0.234-0.242-0.449-0.531-0.645-0.867s-0.359-0.695-0.492-1.078c-0.141-0.383-0.25-0.773-0.328-1.171-0.078-0.406-0.117-0.801-0.117-1.183 0-0.547 0.078-1.011 0.234-1.394s0.371-0.691 0.645-0.925c0.273-0.242 0.59-0.414 0.949-0.515 0.367-0.109 0.758-0.164 1.172-0.164v-0.004c0.414 0 0.805 0.055 1.172 0.164 0.359 0.102 0.676 0.273 0.949 0.515 0.273 0.234 0.488 0.543 0.645 0.925s0.234 0.847 0.234 1.394c0 0.383-0.039 0.777-0.117 1.183-0.078 0.398-0.188 0.789-0.328 1.172-0.133 0.383-0.297 0.742-0.492 1.078s-0.41 0.625-0.645 0.867c0.062 0.32 0.227 0.582 0.492 0.785s0.66 0.383 1.184 0.539c0.055 0.016 0.109 0.035 0.164 0.059 0.062 0.016 0.129 0.031 0.199 0.047 0.094 0.031 0.168 0.055 0.223 0.070s0.102 0.027 0.141 0.035c0.164 0.047 0.305 0.090 0.422 0.129 0.125 0.039 0.234 0.078 0.328 0.117 0.414 0.125 0.754 0.363 1.019 0.715 0.274 0.351 0.41 0.754 0.41 1.207zM6 1.007v0.004c-0.672 0-1.172 0.156-1.5 0.469-0.336 0.305-0.504 0.812-0.504 1.523 0 0.328 0.035 0.664 0.105 1.007 0.062 0.344 0.152 0.676 0.27 0.996s0.254 0.617 0.41 0.89c0.156 0.281 0.328 0.515 0.516 0.703l0.352 0.363-0.082 0.504c-0.094 0.547-0.336 0.984-0.727 1.312-0.391 0.32-0.938 0.59-1.641 0.808-0.062 0.016-0.121 0.035-0.176 0.059-0.062 0.016-0.133 0.031-0.211 0.047-0.117 0.039-0.195 0.066-0.234 0.082-0.047 0.008-0.090 0.016-0.129 0.023-0.148 0.047-0.273 0.086-0.375 0.117s-0.188 0.062-0.258 0.094l-0.105 0.035c-0.211 0.062-0.383 0.184-0.516 0.363s-0.199 0.379-0.199 0.597l10.008-0.004c0-0.219-0.066-0.418-0.199-0.597s-0.305-0.301-0.516-0.363l-0.106-0.035c-0.070-0.031-0.156-0.063-0.258-0.094s-0.227-0.070-0.375-0.117c-0.039-0.008-0.082-0.016-0.129-0.023-0.039-0.016-0.117-0.043-0.234-0.082-0.078-0.016-0.148-0.031-0.211-0.047-0.055-0.023-0.113-0.043-0.176-0.059-0.703-0.219-1.25-0.488-1.641-0.808-0.391-0.328-0.633-0.765-0.727-1.312l-0.082-0.504 0.352-0.363c0.188-0.187 0.359-0.422 0.516-0.703 0.156-0.273 0.293-0.57 0.41-0.89s0.207-0.652 0.27-0.996c0.070-0.344 0.105-0.679 0.105-1.007 0-0.711-0.168-1.218-0.504-1.523-0.328-0.312-0.828-0.469-1.5-0.469z"></path>
</svg>
