<svg width="12" height="12" viewBox="0 0 12 12" xmlns="http://www.w3.org/2000/svg">
<path d="M5.00391 0C5.41797 8.40262e-08 5.80859 0.0547233 6.17578 0.164062C6.53515 0.265592 6.85157 0.437582 7.125 0.679688C7.39829 0.913895 7.61332 1.22204 7.76953 1.60449C7.92578 1.98718 8.00391 2.45233 8.00391 2.99902L7.99609 3.28809C7.98455 3.51791 7.95965 3.7521 7.9209 3.99023H6.90527C6.97197 3.64255 7.00391 3.31253 7.00391 2.99902C7.00391 2.54261 6.93789 2.21416 6.84375 1.9834C6.73866 1.72601 6.61057 1.55498 6.47461 1.43848L6.46777 1.43359L6.46191 1.42773C6.30382 1.28784 6.12202 1.18753 5.9043 1.12598L5.89062 1.12207C5.65629 1.05229 5.40131 1.0131 5.12305 1.00391H5.00391C4.67872 1.00391 4.38459 1.04635 4.11719 1.12598L4.10352 1.12988C3.88579 1.19143 3.70399 1.29174 3.5459 1.43164L3.54004 1.4375L3.5332 1.44238C3.39724 1.55888 3.26915 1.72992 3.16406 1.9873C3.06992 2.21807 3.00391 2.54651 3.00391 3.00293C3.00391 3.31644 3.03584 3.64646 3.10254 3.99414L3.1582 4.25195C3.19897 4.42347 3.24636 4.59343 3.30078 4.76172L3.3877 5.0127L3.39062 5.02148L3.39355 5.0293C3.50617 5.35379 3.64405 5.65471 3.80566 5.93262C3.96634 6.20889 4.13439 6.43052 4.30469 6.60645L4.66699 6.98145L4.56738 7.49414C4.47059 7.98974 4.22776 8.414 3.86426 8.74512L3.70117 8.88184C3.29754 9.19039 2.77164 9.41227 2.19629 9.58398C1.62111 9.75564 1 9.94043 1 9.94043V11L6 11.0039V12.0039L0 12V9.27051C0.134104 9.19209 0.278725 9.12975 0.433594 9.08301C0.527344 9.04396 0.636719 9.00487 0.761719 8.96582C0.878906 8.92677 1.01953 8.88377 1.18359 8.83691L1.32422 8.80176C1.3789 8.78614 1.45314 8.76268 1.54688 8.73145C1.61718 8.71583 1.6836 8.70019 1.74609 8.68457L1.91016 8.62598C2.36826 8.48927 2.72765 8.33471 2.98828 8.16211L3.09375 8.08691C3.35918 7.88396 3.52339 7.6227 3.58594 7.30273C3.41022 7.12122 3.24556 6.9129 3.0918 6.67871L2.94141 6.43555C2.74609 6.09972 2.58203 5.74011 2.44922 5.35742C2.34378 5.07046 2.25584 4.77914 2.18555 4.4834L2.12109 4.18652C2.06249 3.88187 2.02538 3.58346 2.01074 3.29199L2.00391 3.00293C2.00391 2.5244 2.06388 2.10873 2.18359 1.75586L2.23828 1.6084C2.37503 1.2736 2.55674 0.995608 2.7832 0.774414L2.88281 0.683594C3.12208 0.47174 3.39415 0.313198 3.69922 0.208984L3.83203 0.167969C4.10728 0.0860053 4.39567 0.0341935 4.69727 0.0136719L5.00391 0.00390625V0Z"/>
<path fill-rule="evenodd" clip-rule="evenodd" d="M8 5.5C9.38071 5.5 10.5 6.61929 10.5 8C10.5 8.50948 10.3467 8.98274 10.085 9.37793L11.8535 11.1465L11.1465 11.8535L9.37793 10.085C8.98274 10.3467 8.50948 10.5 8 10.5C6.61929 10.5 5.5 9.38071 5.5 8C5.5 6.61929 6.61929 5.5 8 5.5ZM8 6.5C7.17157 6.5 6.5 7.17157 6.5 8C6.5 8.82843 7.17157 9.5 8 9.5C8.82843 9.5 9.5 8.82843 9.5 8C9.5 7.17157 8.82843 6.5 8 6.5Z"/>
</svg>
