<svg width="12" height="12" viewBox="0 0 12 12" fill="none" xmlns="http://www.w3.org/2000/svg">
<path fill-rule="evenodd" clip-rule="evenodd" d="M6 12C1.18752 9.81818 0.499983 4.63636 0.5 1.90909C0.640234 1.88591 0.779476 1.86372 0.918314 1.84159C2.41306 1.60333 3.86117 1.37251 6 0C8.13883 1.37251 9.58694 1.60333 11.0817 1.84159C11.2205 1.86372 11.3598 1.88591 11.5 1.90909C11.5 4.63636 10.8125 9.81818 6 12ZM8.50355 8.77736C7.87589 9.60121 7.05912 10.3333 6 10.8878C4.94088 10.3333 4.12411 9.60121 3.49645 8.77736C3.51702 8.77247 3.53709 8.76758 3.55664 8.7627C3.59766 8.74512 3.63867 8.73047 3.67969 8.71875C4.07227 8.60156 4.36816 8.4668 4.56738 8.31445C4.7666 8.16211 4.88965 7.96582 4.93652 7.72559C4.76074 7.54395 4.59961 7.32715 4.45312 7.0752C4.30664 6.82324 4.18359 6.55371 4.08398 6.2666C3.97852 5.97949 3.89648 5.68652 3.83789 5.3877C3.7793 5.08301 3.75 4.78711 3.75 4.5C3.75 4.08984 3.80859 3.74121 3.92578 3.4541C4.04297 3.16699 4.2041 2.93555 4.40918 2.75977C4.61426 2.57812 4.85156 2.44922 5.12109 2.37305C5.39648 2.29102 5.68945 2.25 6 2.25C6.31055 2.25 6.60352 2.29102 6.87891 2.37305C7.14844 2.44922 7.38574 2.57812 7.59082 2.75977C7.7959 2.93555 7.95703 3.16699 8.07422 3.4541C8.19141 3.74121 8.25 4.08984 8.25 4.5C8.25 4.78711 8.2207 5.08301 8.16211 5.3877C8.10352 5.68652 8.02148 5.97949 7.91602 6.2666C7.81641 6.55371 7.69336 6.82324 7.54688 7.0752C7.40039 7.32715 7.23926 7.54395 7.06348 7.72559C7.11035 7.96582 7.2334 8.16211 7.43262 8.31445C7.63184 8.4668 7.92774 8.60156 8.32031 8.71875C8.36133 8.73047 8.40234 8.74512 8.44336 8.7627C8.46291 8.76758 8.48298 8.77247 8.50355 8.77736Z" fill="#4C505B"/>
</svg>
