<svg width="12" height="12" viewBox="0 0 12 12" xmlns="http://www.w3.org/2000/svg" >
<path fill-rule="evenodd" clip-rule="evenodd" d="M12 11.0003V11.9961H6V12H0V11.0042C0 10.5513 0.136719 10.149 0.410156 9.79759C0.675781 9.44614 1.01562 9.20794 1.42969 9.08298C1.52344 9.04393 1.63281 9.00488 1.75781 8.96583C1.875 8.92678 2.01562 8.88383 2.17969 8.83697C2.21875 8.82916 2.26562 8.81744 2.32031 8.80182C2.375 8.7862 2.44922 8.76277 2.54297 8.73153C2.61328 8.71591 2.67969 8.70029 2.74219 8.68467C2.79687 8.66124 2.85156 8.64172 2.90625 8.6261C3.42969 8.4699 3.82422 8.29027 4.08984 8.08721C4.35547 7.88415 4.51953 7.62252 4.58203 7.30231C4.34766 7.0602 4.13281 6.77123 3.9375 6.43541C3.74219 6.09958 3.57812 5.74032 3.44531 5.35763C3.30469 4.97494 3.19531 4.58445 3.11719 4.18614C3.03906 3.78002 3 3.38562 3 3.00293C3 2.45623 3.07812 1.99154 3.23437 1.60885C3.39062 1.22616 3.60547 0.917671 3.87891 0.683372C4.15234 0.441264 4.46875 0.269445 4.82812 0.167915C5.19531 0.0585759 5.58594 0.00390625 6 0.00390625V0C6.41406 0 6.80469 0.0546697 7.17187 0.164009C7.53125 0.265539 7.84766 0.437358 8.12109 0.679466C8.39453 0.913765 8.60937 1.22226 8.76562 1.60495C8.92187 1.98763 9 2.45233 9 2.99902C9 3.38171 8.96094 3.77611 8.88281 4.18223C8.80469 4.58054 8.69531 4.97104 8.55469 5.35373C8.42187 5.73641 8.25781 6.09567 8.0625 6.4315C7.86719 6.76733 7.65234 7.0563 7.41797 7.2984C7.48047 7.61861 7.64453 7.88025 7.91016 8.08331C8.17578 8.28636 8.57031 8.46599 9.09375 8.62219C9.14844 8.63781 9.20312 8.65734 9.25781 8.68077C9.32031 8.69639 9.38672 8.71201 9.45703 8.72763C9.55078 8.75887 9.625 8.7823 9.67969 8.79792C9.73437 8.81354 9.78125 8.82525 9.82031 8.83306C9.98437 8.87992 10.125 8.92288 10.2422 8.96193C10.3672 9.00097 10.4766 9.04002 10.5703 9.07907C10.9844 9.20403 11.3242 9.44224 11.5898 9.79369C11.8633 10.1451 12 10.5473 12 11.0003ZM6 1.00748V1.01139C5.32812 1.01139 4.82812 1.16759 4.5 1.47999C4.16406 1.78458 3.99609 2.29222 3.99609 3.00293C3.99609 3.33095 4.03125 3.66678 4.10156 4.01041C4.16406 4.35405 4.25391 4.68598 4.37109 5.00618C4.48828 5.32639 4.625 5.62317 4.78125 5.89652C4.9375 6.17768 5.10937 6.41198 5.29687 6.59941L5.64844 6.96258L5.56641 7.46632C5.47266 8.01302 5.23047 8.45037 4.83984 8.77839C4.44922 9.0986 3.90234 9.36804 3.19922 9.58672C3.13672 9.60234 3.07812 9.62187 3.02344 9.6453C2.96094 9.66092 2.89062 9.67654 2.8125 9.69216C2.69531 9.73121 2.61719 9.75854 2.57812 9.77416C2.53125 9.78197 2.48828 9.78978 2.44922 9.79759C2.30078 9.84445 2.17578 9.8835 2.07422 9.91474C1.97266 9.94598 1.88672 9.97722 1.81641 10.0085L1.71094 10.0436C1.5 10.1061 1.32812 10.2271 1.19531 10.4068C1.0625 10.5864 0.996094 10.7856 0.996094 11.0042H6V11.0003H11.0039C11.0039 10.7816 10.9375 10.5825 10.8047 10.4029C10.6719 10.2232 10.5 10.1022 10.2891 10.0397L10.1836 10.0046C10.1133 9.97331 10.0273 9.94207 9.92578 9.91084C9.82422 9.87959 9.69922 9.84055 9.55078 9.79369C9.51172 9.78588 9.46875 9.77807 9.42187 9.77026C9.38281 9.75464 9.30469 9.7273 9.1875 9.68825C9.10937 9.67263 9.03906 9.65701 8.97656 9.64139C8.92187 9.61796 8.86328 9.59844 8.80078 9.58282C8.09766 9.36414 7.55078 9.09469 7.16016 8.77449C6.76953 8.44647 6.52734 8.00911 6.43359 7.46241L6.35156 6.95867L6.70312 6.59551C6.89062 6.40807 7.0625 6.17377 7.21875 5.89261C7.375 5.61926 7.51172 5.32249 7.62891 5.00228C7.74609 4.68207 7.83594 4.35015 7.89844 4.00651C7.96875 3.66287 8.00391 3.32704 8.00391 2.99902C8.00391 2.28832 7.83594 1.78067 7.5 1.47608C7.17187 1.16368 6.67187 1.00748 6 1.00748Z" />
</svg>
