<svg width="12" height="12" viewBox="0 0 12 12" fill="none" xmlns="http://www.w3.org/2000/svg">
<path d="M0 12H9V11.0869C9 10.6715 8.87467 10.3027 8.62402 9.98047C8.38053 9.6582 8.06901 9.43978 7.68945 9.3252C7.60352 9.28939 7.50326 9.25358 7.38867 9.21777C7.28125 9.18197 7.15234 9.14258 7.00195 9.09961C6.96615 9.09245 6.92318 9.08171 6.87305 9.06738C6.82292 9.05306 6.75488 9.03158 6.66895 9.00293C6.60449 8.98861 6.54362 8.97428 6.48633 8.95996C6.4362 8.93848 6.38607 8.92057 6.33594 8.90625C5.85612 8.76302 5.49447 8.59831 5.25098 8.41211C5.00749 8.22591 4.8571 7.986 4.7998 7.69238C5.01465 7.47038 5.21159 7.2054 5.39063 6.89746C5.56966 6.58952 5.72005 6.26009 5.8418 5.90918C5.9707 5.55827 6.07096 5.2002 6.14258 4.83496C6.21419 4.46257 6.25 4.10091 6.25 3.75C6.25 3.2487 6.17839 2.82259 6.03516 2.47168C5.89193 2.12077 5.69499 1.83789 5.44434 1.62305C5.19369 1.40104 4.90365 1.24349 4.57422 1.15039C4.23763 1.05013 3.87956 1 3.5 1C3.12044 1 2.76237 1.05013 2.42578 1.15039C2.09635 1.24349 1.80632 1.40104 1.55566 1.62305C1.30501 1.83789 1.10807 2.12077 0.964844 2.47168C0.821615 2.82259 0.75 3.2487 0.75 3.75C0.75 4.10091 0.785808 4.46257 0.857422 4.83496C0.929037 5.2002 1.0293 5.55827 1.1582 5.90918C1.27995 6.26009 1.43034 6.58952 1.60938 6.89746C1.78841 7.2054 1.98535 7.47038 2.2002 7.69238C2.1429 7.986 1.99251 8.22591 1.74902 8.41211C1.50553 8.59831 1.14388 8.76302 0.664063 8.90625C0.613933 8.92057 0.563802 8.93848 0.513672 8.95996C0.45638 8.97428 0.395508 8.98861 0.331055 9.00293C0.245117 9.03158 0.177083 9.05306 0.126953 9.06738C0.0777313 9.08145 0.0354134 9.09206 0 9.09922V12Z" fill="#4C505B"/>
<path d="M9.5 12H12V9.6664C11.9577 9.65369 11.9128 9.64054 11.8652 9.62695C11.8359 9.62109 11.8008 9.6123 11.7598 9.60059C11.7188 9.58887 11.6631 9.57129 11.5928 9.54785C11.54 9.53613 11.4902 9.52441 11.4434 9.5127C11.4023 9.49512 11.3613 9.48047 11.3203 9.46875C10.9277 9.35156 10.6318 9.2168 10.4326 9.06445C10.2334 8.91211 10.1104 8.71582 10.0635 8.47559C10.2393 8.29395 10.4004 8.07715 10.5469 7.8252C10.6934 7.57324 10.8164 7.30371 10.916 7.0166C11.0215 6.72949 11.1035 6.43652 11.1621 6.1377C11.2207 5.83301 11.25 5.53711 11.25 5.25C11.25 4.83984 11.1914 4.49121 11.0742 4.2041C10.957 3.91699 10.7959 3.68555 10.5908 3.50977C10.3857 3.32812 10.1484 3.19922 9.87891 3.12305C9.60352 3.04102 9.31055 3 9 3C8.68945 3 8.39648 3.04102 8.12109 3.12305C7.85156 3.19922 7.61426 3.32812 7.40918 3.50977C7.2041 3.68555 7.04297 3.91699 6.92578 4.2041C6.80859 4.49121 6.75 4.83984 6.75 5.25C6.75 5.53711 6.7793 5.83301 6.83789 6.1377C6.89648 6.43652 6.97852 6.72949 7.08398 7.0166C7.18359 7.30371 7.30664 7.57324 7.45312 7.8252C7.59961 8.07715 7.76074 8.29395 7.93652 8.47559C7.91106 8.60609 7.86312 8.72362 7.7927 8.82818C7.8151 8.83672 7.83703 8.84535 7.85848 8.85407C8.32942 9.0016 8.72021 9.2795 9.02082 9.67623C9.3396 10.0873 9.5 10.5636 9.5 11.0869V12Z" fill="#4C505B"/>
</svg>
