<svg width="12" height="12" viewBox="0 0 12 12" fill="none" xmlns="http://www.w3.org/2000/svg">
<path fill-rule="evenodd" clip-rule="evenodd" d="M8.25 6C8.25 7.24264 7.24264 8.25 6 8.25C4.75736 8.25 3.75 7.24264 3.75 6C3.75 4.75736 4.75736 3.75 6 3.75C7.24264 3.75 8.25 4.75736 8.25 6ZM7.25 6C7.25 6.69036 6.69036 7.25 6 7.25C5.30964 7.25 4.75 6.69036 4.75 6C4.75 5.30964 5.30964 4.75 6 4.75C6.69036 4.75 7.25 5.30964 7.25 6Z" fill="#4C505B"/>
<path fill-rule="evenodd" clip-rule="evenodd" d="M6 10C9 10 11.25 7.25 12 5.875C11.125 4.58333 9 2 6 2C3 2 0.875 4.58333 0 5.875C0.75 7.25 3 10 6 10ZM2.79643 7.6849C2.11365 7.11592 1.56819 6.46025 1.20022 5.91905C1.60503 5.38963 2.15422 4.76943 2.82537 4.23595C3.73111 3.516 4.79887 3 6 3C7.20113 3 8.26889 3.516 9.17463 4.23595C9.84578 4.76943 10.395 5.38963 10.7998 5.91905C10.4318 6.46025 9.88635 7.11592 9.20357 7.6849C8.27934 8.45509 7.18627 9 6 9C4.81373 9 3.72066 8.45509 2.79643 7.6849Z" fill="#4C505B"/>
</svg>
