<!-- Generated by IcoMoon.io -->
<svg version="1.1" xmlns="http://www.w3.org/2000/svg" viewBox="0 0 12 12">
<title>visible-solid</title>
<path d="M5.95 8.555c-1.516 0-2.75-1.234-2.75-2.75s1.234-2.75 2.75-2.75c1.516 0 2.75 1.234 2.75 2.75s-1.234 2.75-2.75 2.75v0zM5.999 4.374c0.826 0 1.501 0.673 1.501 1.5s-0.676 1.5-1.501 1.5c-0.826 0-1.499-0.673-1.499-1.5s0.673-1.5 1.499-1.5zM11.972 6.007c-1.416-1.864-3.372-4.007-5.972-4.007-1.050 0-2.012 0.339-3.028 1.064-0.856 0.614-1.734 1.479-2.941 2.9l-0.031 0.036 0.209 0.246c1.722 2.014 3.209 3.754 5.791 3.754 1.141 0 2.247-0.425 3.381-1.3 0.966-0.746 1.787-1.693 2.447-2.457l0.172-0.196-0.028-0.039z"></path>
</svg>
