<!-- Generated by IcoMoon.io -->
<svg version="1.1" xmlns="http://www.w3.org/2000/svg" width="12" height="12" viewBox="0 0 12 12">
<title>visible-solid</title>
<path d="M7.75 6c0 0.967-0.784 1.75-1.75 1.75s-1.75-0.784-1.75-1.75c0-0.967 0.784-1.75 1.75-1.75s1.75 0.784 1.75 1.75z"></path>
<path d="M6 10c3 0 5.25-2.75 6-4.125-0.875-1.292-3-3.875-6-3.875s-5.125 2.583-6 3.875c0.75 1.375 3 4.125 6 4.125zM8.75 6c0 1.519-1.231 2.75-2.75 2.75s-2.75-1.231-2.75-2.75c0-1.519 1.231-2.75 2.75-2.75s2.75 1.231 2.75 2.75z"></path>
</svg>
