<!-- Generated by IcoMoon.io -->
<svg version="1.1" xmlns="http://www.w3.org/2000/svg" width="12" height="12" viewBox="0 0 12 12">
<title>visible</title>
<path d="M8.25 6c0-1.243-1.007-2.25-2.25-2.25s-2.25 1.007-2.25 2.25c0 1.243 1.007 2.25 2.25 2.25s2.25-1.007 2.25-2.25zM7.25 6c0 0.69-0.56 1.25-1.25 1.25s-1.25-0.56-1.25-1.25c0-0.69 0.56-1.25 1.25-1.25s1.25 0.56 1.25 1.25z"></path>
<path d="M6 10c3 0 5.25-2.75 6-4.125-0.875-1.292-3-3.875-6-3.875s-5.125 2.583-6 3.875c0.75 1.375 3 4.125 6 4.125zM2.796 7.685c-0.683-0.569-1.228-1.225-1.596-1.766 0.405-0.529 0.954-1.15 1.625-1.683 0.906-0.72 1.973-1.236 3.175-1.236s2.269 0.516 3.175 1.236c0.671 0.533 1.22 1.154 1.625 1.683-0.368 0.541-0.913 1.197-1.596 1.766-0.924 0.77-2.017 1.315-3.204 1.315s-2.279-0.545-3.204-1.315z"></path>
</svg>
