<svg width="12" height="12" viewBox="0 0 12 12" fill="none" xmlns="http://www.w3.org/2000/svg">
<path d="M1 1.71606L10.307 11L11 10.2667L1.71579 1L1 1.71606Z" fill="#4C505B"/>
<path d="M0.240723 4.44748C0.582027 4.09354 0.955652 3.77099 1.35685 3.48457L2.0763 4.20223C1.64584 4.49412 1.24961 4.83269 0.894881 5.21066L0.240723 4.44748Z" fill="#4C505B"/>
<path d="M1.55017 5.97516C1.91617 5.57077 2.33652 5.21649 2.79971 4.92385L3.5296 5.65194C3.02822 5.93742 2.58103 6.30712 2.20728 6.74179L1.55017 5.97516Z" fill="#4C505B"/>
<path d="M6.13849 4.00157L7.31342 5.17428C8.29158 5.43987 9.15059 5.99493 9.79278 6.74179L10.4499 5.97516C9.38079 4.7939 7.8479 4.04027 6.13849 4.00157Z" fill="#4C505B"/>
<path d="M5.03873 7.15733L4.27132 6.39182C3.72235 6.65531 3.24281 7.0404 2.86762 7.51218L3.53457 8.29029C3.89801 7.76718 4.42367 7.36524 5.03873 7.15733Z" fill="#4C505B"/>
<path d="M4.31192 2.17843L5.18237 3.04725C5.45059 3.01604 5.72343 3 6.00003 3C8.01335 3 9.82816 3.84997 11.1052 5.21066L11.7593 4.44748C10.3043 2.93857 8.26176 2 6.00003 2C5.42089 2 4.85613 2.06154 4.31192 2.17843Z" fill="#4C505B"/>
<path d="M7 10C7 10.5523 6.55228 11 6 11C5.44772 11 5 10.5523 5 10C5 9.44772 5.44772 9 6 9C6.55228 9 7 9.44772 7 10Z" fill="#4C505B"/>
</svg>
