<svg width="12" height="12" viewBox="0 0 12 12" fill="none" xmlns="http://www.w3.org/2000/svg">
<path d="M6.00003 2C8.26176 2 10.3043 2.93857 11.7593 4.44748L11.1052 5.21066C9.82816 3.84997 8.01335 3 6.00003 3C3.9867 3 2.1719 3.84997 0.894881 5.21066L0.240723 4.44748C1.69578 2.93857 3.7383 2 6.00003 2Z" fill="#4C505B"/>
<path d="M6.00003 4C7.76501 4 9.352 4.76209 10.4499 5.97516L9.79278 6.74179C8.87581 5.67537 7.51679 5 6.00003 5C4.48327 5 3.12424 5.67537 2.20728 6.74179L1.55017 5.97516C2.64806 4.76209 4.23504 4 6.00003 4Z" fill="#4C505B"/>
<path d="M6.00003 6C7.26882 6 8.39964 6.59074 9.13244 7.51218L8.46549 8.29029C7.92372 7.5105 7.02149 7 6.00003 7C4.97857 7 4.07634 7.5105 3.53457 8.29029L2.86762 7.51218C3.60042 6.59074 4.73124 6 6.00003 6Z" fill="#4C505B"/>
<path d="M7 10C7 10.5523 6.55228 11 6 11C5.44772 11 5 10.5523 5 10C5 9.44772 5.44772 9 6 9C6.55228 9 7 9.44772 7 10Z" fill="#4C505B"/>
</svg>
