<svg width="12" height="12" viewBox="0 0 12 12" xmlns="http://www.w3.org/2000/svg" >
<path fill-rule="evenodd" clip-rule="evenodd" d="M6 3C6.82843 3 7.5 2.32843 7.5 1.5C7.5 0.671573 6.82843 0 6 0C5.17157 0 4.5 0.671573 4.5 1.5C4.5 2.32843 5.17157 3 6 3ZM6 2C6.27614 2 6.5 1.77614 6.5 1.5C6.5 1.22386 6.27614 1 6 1C5.72386 1 5.5 1.22386 5.5 1.5C5.5 1.77614 5.72386 2 6 2Z" />
<path fill-rule="evenodd" clip-rule="evenodd" d="M5.75 12V9H6.25V12H7.25V9H9L7.34174 4.43979C7.13658 3.87558 6.60036 3.5 6 3.5C5.39964 3.5 4.86343 3.87558 4.65826 4.43979L3 9H4.75V12H5.75ZM6.40195 4.78154L7.5723 8H4.4277L5.59805 4.78154C5.65951 4.61251 5.82015 4.5 6 4.5C6.17985 4.5 6.34049 4.61251 6.40195 4.78154Z" />
</svg>
