<svg width="12" height="12" viewBox="0 0 12 12" xmlns="http://www.w3.org/2000/svg" >
<path fill-rule="evenodd" clip-rule="evenodd" d="M6 0C7.97359 0 9.61334 1.42931 9.94058 3.30927C11.155 3.85843 12 5.08053 12 6.5C12 8.433 10.433 10 8.5 10C7.75637 10 7.06692 9.76809 6.5 9.37265V9.34998H6.46788C6.47854 9.35759 6.48925 9.36515 6.5 9.37265V12H5.5V9.37265C5.51075 9.36515 5.52146 9.35759 5.53213 9.34998H5.5V9.37265C4.93308 9.76809 4.24362 10 3.5 10C1.567 10 0 8.433 0 6.5C0 5.08053 0.845001 3.85843 2.05942 3.30927C2.38666 1.42931 4.02641 0 6 0ZM5.5 8.34998L6.5 7.34998V5.8284L8.12129 4.20711L7.41418 3.5L6.5 4.41418V3H5.5V6.45355L4.49678 5.45033L3.78967 6.15744L5.5 7.86777V8.34998Z" />
</svg>
