<svg width="12" height="12" viewBox="0 0 12 12" xmlns="http://www.w3.org/2000/svg" >
<path fill-rule="evenodd" clip-rule="evenodd" d="M5.5 9.37265C4.93308 9.76809 4.24362 10 3.5 10C1.567 10 0 8.433 0 6.5C0 5.08053 0.845001 3.85843 2.05942 3.30927C2.38666 1.42931 4.02641 0 6 0C7.97359 0 9.61334 1.42931 9.94058 3.30927C11.155 3.85843 12 5.08053 12 6.5C12 8.433 10.433 10 8.5 10C7.75637 10 7.06692 9.76809 6.5 9.37265V12H5.5V9.37265ZM8.9554 3.48076L9.04618 4.00232L9.52855 4.22044C10.3982 4.61369 11 5.48763 11 6.5C11 7.88071 9.88071 9 8.5 9C7.80026 9 7.16917 8.71383 6.71424 8.24959L6.5 8.03096V5.8284L8.12129 4.20711L7.41418 3.5L6.5 4.41418V3H5.5V6.45358L4.49678 5.45036L3.78967 6.15747L5.5 7.8678V8.03096L5.28576 8.24959C4.83084 8.71383 4.19974 9 3.5 9C2.11929 9 1 7.88071 1 6.5C1 5.48763 1.60182 4.61369 2.47145 4.22044L2.95382 4.00231L3.0446 3.48076C3.28991 2.0715 4.52084 1 6 1C7.47916 1 8.71008 2.0715 8.9554 3.48076Z" />
</svg>
