<svg width="12" height="12" viewBox="0 0 12 12" xmlns="http://www.w3.org/2000/svg">
<path fill-rule="evenodd" clip-rule="evenodd" d="M2 0C2.93171 0 3.71235 0.637683 3.93457 1.5H9C10.3807 1.5 11.5 2.61929 11.5 4C11.5 5.38071 10.3807 6.5 9 6.5H7.93457C7.71235 7.36232 6.93171 8 6 8C5.06829 8 4.28765 7.36232 4.06543 6.5H2.875C2.11561 6.5 1.5 7.11561 1.5 7.875C1.5 8.63439 2.11561 9.25 2.875 9.25H9.54297L8.64648 8.35352L9.35352 7.64648L11.4746 9.76758L9.35352 11.8887L8.64648 11.1816L9.57812 10.25H2.875C1.56332 10.25 0.5 9.18668 0.5 7.875C0.5 6.64536 1.43431 5.63439 2.63184 5.5127L2.875 5.5H4.06543C4.28765 4.63768 5.06829 4 6 4C6.93171 4 7.71235 4.63768 7.93457 5.5H9C9.82843 5.5 10.5 4.82843 10.5 4C10.5 3.17157 9.82843 2.5 9 2.5H3.93457C3.71235 3.36232 2.93171 4 2 4C0.89543 4 0 3.10457 0 2C0 0.89543 0.89543 0 2 0Z"/>
</svg>
