<!-- Generated by IcoMoon.io -->
<svg version="1.1" xmlns="http://www.w3.org/2000/svg" viewBox="0 0 12 12">
<title>xls</title>
<path d="M7 4h2v-2h1v3h-4v-4h-5v5h-1v-6h8v1h-1v3zM9 1v1h-1v-1h1z"></path>
<path d="M4.327 12.069h-0.94l-1.251-2.044-1.261 2.044h-0.875l1.658-2.591-1.552-2.406h0.909l1.155 1.89 1.155-1.89h0.882l-1.562 2.42 1.682 2.577zM4.7 12.069v-4.997h0.817v4.296h2.116v0.701h-2.933zM11.076 10.712c0 0.444-0.161 0.793-0.482 1.046s-0.764 0.379-1.33 0.379c-0.565 0-1.028-0.088-1.388-0.263v-0.772c0.228 0.107 0.47 0.191 0.726 0.253s0.495 0.092 0.716 0.092c0.324 0 0.562-0.062 0.716-0.185s0.231-0.288 0.231-0.496c0-0.187-0.071-0.345-0.212-0.475s-0.433-0.284-0.875-0.461c-0.456-0.185-0.777-0.395-0.964-0.632s-0.28-0.522-0.28-0.854c0-0.417 0.148-0.745 0.444-0.984s0.694-0.359 1.193-0.359c0.479 0 0.955 0.105 1.429 0.314l-0.26 0.667c-0.444-0.187-0.841-0.28-1.189-0.28-0.264 0-0.465 0.058-0.602 0.173s-0.205 0.267-0.205 0.456c0 0.13 0.027 0.241 0.082 0.333s0.145 0.179 0.27 0.261c0.125 0.082 0.351 0.19 0.677 0.325 0.367 0.153 0.636 0.295 0.807 0.427s0.296 0.281 0.376 0.448c0.080 0.166 0.12 0.362 0.12 0.588z"></path>
</svg>
