<!-- Generated by IcoMoon.io -->
<svg version="1.1" xmlns="http://www.w3.org/2000/svg" width="12" height="12" viewBox="0 0 12 12">
<title>xls</title>
<path d="M8.707 0h-7.707v6h1v-5h5v3h3v2h1v-3.707l-2.293-2.293zM8 1h0.293l1.707 1.707v0.293h-2v-2z"></path>
<path d="M11.699 10.558c0 0.296-0.073 0.551-0.219 0.766-0.144 0.214-0.351 0.378-0.622 0.492-0.269 0.114-0.59 0.171-0.964 0.171-0.182 0-0.357-0.010-0.523-0.031s-0.324-0.050-0.472-0.089c-0.146-0.041-0.279-0.090-0.4-0.147v-0.772c0.203 0.089 0.43 0.17 0.68 0.243 0.251 0.071 0.506 0.106 0.766 0.106 0.212 0 0.387-0.027 0.526-0.082 0.141-0.057 0.246-0.137 0.314-0.239 0.068-0.105 0.103-0.227 0.103-0.366 0-0.148-0.040-0.273-0.12-0.376s-0.2-0.196-0.362-0.28c-0.16-0.087-0.36-0.179-0.602-0.277-0.164-0.066-0.321-0.141-0.472-0.226-0.148-0.084-0.28-0.183-0.396-0.297s-0.209-0.248-0.277-0.403c-0.066-0.157-0.099-0.342-0.099-0.554 0-0.283 0.067-0.524 0.202-0.725 0.137-0.201 0.328-0.354 0.574-0.461 0.248-0.107 0.538-0.161 0.868-0.161 0.262 0 0.508 0.027 0.738 0.082 0.232 0.055 0.46 0.132 0.684 0.232l-0.26 0.66c-0.205-0.084-0.404-0.152-0.598-0.202-0.191-0.050-0.387-0.075-0.588-0.075-0.173 0-0.32 0.026-0.441 0.079s-0.213 0.126-0.277 0.222c-0.062 0.093-0.092 0.205-0.092 0.335 0 0.146 0.035 0.269 0.106 0.369 0.073 0.098 0.185 0.188 0.335 0.27 0.153 0.082 0.349 0.173 0.588 0.273 0.276 0.114 0.509 0.234 0.701 0.359 0.194 0.125 0.342 0.276 0.444 0.451 0.103 0.173 0.154 0.391 0.154 0.653z"></path>
<path d="M5 6.92v4.997h2.943v-0.697h-2.123v-4.3h-0.82z"></path>
<path d="M3.661 11.92h0.933l-1.675-2.567 1.555-2.43h-0.878l-1.155 1.894-1.162-1.894h-0.906l1.548 2.406-1.661 2.591h0.878l1.265-2.047 1.258 2.047z"></path>
</svg>
