<svg width="12" height="12" viewBox="0 0 12 12" fill="none" xmlns="http://www.w3.org/2000/svg">
<path d="M4.84229 11.9971H1.25V11.4331L3.79297 7.69727H1.32861V7H4.77393V7.56055L2.23096 11.2998H4.84229V11.9971Z" fill="#4C505B"/>
<path d="M5.75 7V11.9971H6.57031V7H5.75Z" fill="#4C505B"/>
<path fill-rule="evenodd" clip-rule="evenodd" d="M10.3643 7.39648C10.068 7.13216 9.59749 7 8.95264 7H7.5V11.9971H8.32031V10.124H8.85352C9.2181 10.124 9.52458 10.0807 9.77295 9.99414C10.0236 9.90755 10.2253 9.7902 10.3779 9.64209C10.5306 9.4917 10.64 9.31966 10.7061 9.12598C10.7744 8.93001 10.8086 8.7238 10.8086 8.50732C10.8086 8.03109 10.6605 7.66081 10.3643 7.39648ZM8.32031 7.68018H8.89795C9.26709 7.68018 9.53825 7.75081 9.71143 7.89209C9.88688 8.03337 9.97461 8.2487 9.97461 8.53809C9.97461 8.75456 9.9279 8.92887 9.83447 9.06104C9.74105 9.1932 9.60433 9.29004 9.42432 9.35156C9.2443 9.41081 9.02555 9.44043 8.76807 9.44043H8.32031V7.68018Z" fill="#4C505B"/>
<path fill-rule="evenodd" clip-rule="evenodd" d="M1 0H8.70711L11 2.29289V6H1V0ZM8 1H7V4H10V3H8V1Z" fill="#4C505B"/>
</svg>
