<!-- Generated by IcoMoon.io -->
<svg version="1.1" xmlns="http://www.w3.org/2000/svg" width="12" height="12" viewBox="0 0 12 12">
<title>zip</title>
<path d="M8.707 0h-7.707v6h1v-5h5v3h3v2h1v-3.707l-2.293-2.293zM8 1h0.293l1.707 1.707v0.293h-2v-2z"></path>
<path d="M4.842 11.997h-3.592v-0.564l2.543-3.736h-2.464v-0.697h3.445v0.561l-2.543 3.739h2.611v0.697z"></path>
<path d="M5.75 7v4.997h0.82v-4.997h-0.82z"></path>
<path d="M10.364 7.396c-0.296-0.264-0.767-0.396-1.412-0.396h-1.453v4.997h0.82v-1.873h0.533c0.365 0 0.671-0.043 0.919-0.13 0.251-0.087 0.452-0.204 0.605-0.352 0.153-0.15 0.262-0.322 0.328-0.516 0.068-0.196 0.103-0.402 0.103-0.619 0-0.476-0.148-0.847-0.444-1.111zM8.32 7.68h0.578c0.369 0 0.64 0.071 0.813 0.212 0.175 0.141 0.263 0.357 0.263 0.646 0 0.216-0.047 0.391-0.14 0.523s-0.23 0.229-0.41 0.291c-0.18 0.059-0.399 0.089-0.656 0.089h-0.448v-1.76z"></path>
</svg>
