<svg width="120" height="120" viewBox="0 0 120 120" fill="none" xmlns="http://www.w3.org/2000/svg">
<path fill-rule="evenodd" clip-rule="evenodd" d="M31.1339 61.5H3.01935C3.27104 71.2427 5.96736 80.3771 10.5176 88.3125H34.5577C32.4746 80.292 31.249 71.1804 31.1339 61.5ZM37.6608 88.3125C35.5295 80.3912 34.253 71.2691 34.1341 61.5H58.5V88.3125H37.6608ZM35.3917 91.3125H12.3633C20.7842 104.098 34.2138 113.291 49.8592 116.101C43.8112 111.352 38.7297 102.555 35.3917 91.3125ZM8.25002 90.3824V91.3125H8.80867C19.3567 108.52 38.3377 120 60 120L60.1263 120L60.1875 120L60.2504 120C60.2882 120 60.3259 119.999 60.3637 119.999C81.8746 119.871 100.702 108.424 111.191 91.3125H111.375V91.0109C116.849 81.9611 120 71.3485 120 60C120 26.9842 93.3334 0.196777 60.3637 0.00107914C60.305 0.00036005 60.2463 0 60.1875 0L60.1263 0.000130175L60 0C38.7335 0 20.0512 11.0641 9.39526 27.75H9.18752V28.0777C3.36705 37.3229 0 48.2683 0 60C0 71.0868 3.00704 81.4713 8.25002 90.3824ZM11.0671 30.75C6.18482 38.9002 3.281 48.3714 3.01935 58.5H31.1339C31.2535 48.4405 32.5723 38.9951 34.8064 30.75H11.0671ZM37.9185 30.75C35.6327 38.8858 34.2578 48.3432 34.1341 58.5H58.5V30.75H37.9185ZM58.5 27.75H38.8217C39.8544 24.5423 41.0341 21.5716 42.3372 18.8814C46.9985 9.25803 52.8012 3.99825 58.5 3.12904V27.75ZM61.5 30.75V58.5H86.2409C86.1173 48.3432 84.7424 38.8858 82.4565 30.75H61.5ZM81.5534 27.75H61.5V3.07815C67.3186 3.76947 73.2743 9.04682 78.0379 18.8814C79.3409 21.5716 80.5207 24.5423 81.5534 27.75ZM85.5687 30.75C87.8028 38.9951 89.1216 48.4405 89.2411 58.5H116.981C116.719 48.3714 113.815 38.9002 108.933 30.75H85.5687ZM107.006 27.75H84.6992C81.382 17.0261 76.4589 8.62434 70.6297 3.98939C85.6819 6.82854 98.6438 15.5852 107.006 27.75ZM116.981 61.5H89.2411C89.1261 71.1804 87.9005 80.292 85.8174 88.3125H109.482C114.033 80.3771 116.729 71.2427 116.981 61.5ZM107.637 91.3125H84.9833C81.6663 102.484 76.6277 111.241 70.6297 116.011C86.0659 113.099 99.3036 103.964 107.637 91.3125ZM82.7143 88.3125C84.8455 80.3912 86.122 71.2691 86.2409 61.5H61.5V88.3125H82.7143ZM61.5 91.3125H81.8489C80.7477 94.8804 79.467 98.1682 78.0379 101.119C73.2743 110.953 67.3186 116.231 61.5 116.922V91.3125ZM58.5 91.3125V116.871C52.8012 116.002 46.9985 110.742 42.3372 101.119C40.9081 98.1682 39.6273 94.8804 38.5262 91.3125H58.5ZM35.6759 27.75H12.9942C21.4466 15.4537 34.5989 6.63958 49.8592 3.89938C43.9803 8.51508 39.0147 16.9563 35.6759 27.75Z" fill="#964EA2"/>
</svg>
