<svg width="29" height="20" viewBox="0 0 29 20" fill="none" xmlns="http://www.w3.org/2000/svg">
<mask id="mask0_11482_4117" style="mask-type:alpha" maskUnits="userSpaceOnUse" x="0" y="0" width="29" height="20">
<rect width="29" height="20" fill="#D9D9D9"/>
</mask>
<g mask="url(#mask0_11482_4117)">
<rect width="8.86111" height="20" fill="#004692"/>
<rect x="8.86108" width="11.2778" height="20" fill="#FBD381"/>
<rect x="20.1389" width="8.86111" height="20" fill="#DD2033"/>
<rect x="11.2778" y="6.79999" width="3.22222" height="3.2" fill="#DD2033"/>
<path d="M17.6556 10H14.5L14.5 13.9382C16.1877 13.2545 17.3702 11.7501 17.6556 10Z" fill="#DD2033"/>
<path fill-rule="evenodd" clip-rule="evenodd" d="M12.8889 4.80001V4.00001C12.8889 3.55818 13.2496 3.20001 13.6945 3.20001H15.3056C15.7505 3.20001 16.1111 3.55818 16.1111 4.00001V4.80001C16.1111 4.35818 16.4718 4.00001 16.9167 4.00001L18.5278 4.00001C18.9727 4.00001 19.3334 4.35818 19.3334 4.80001V9.1765C19.3334 11.5407 18.0906 13.7007 16.1111 14.9139V16.4C16.1111 16.8418 15.7505 17.2 15.3056 17.2H13.6945C13.2496 17.2 12.8889 16.8418 12.8889 16.4V14.9139C10.9095 13.7007 9.66669 11.5407 9.66669 9.1765V4.80001C9.66669 4.35818 10.0273 4.00001 10.4722 4.00001L12.0834 4.00001C12.5282 4.00001 12.8889 4.35818 12.8889 4.80001ZM11.2778 6.80001V9.1765C11.2778 11.2676 12.5526 13.1493 14.5 13.9383C16.4475 13.1493 17.7222 11.2676 17.7222 9.1765V6.80001H11.2778Z" fill="#FF9E42"/>
</g>
</svg>
