<svg width="20" height="20" viewBox="0 0 20 20" fill="none" xmlns="http://www.w3.org/2000/svg">
<mask id="mask0_11482_4109" style="mask-type:alpha" maskUnits="userSpaceOnUse" x="0" y="0" width="20" height="20">
<circle cx="10" cy="10" r="10" fill="#D9D9D9"/>
</mask>
<g mask="url(#mask0_11482_4109)">
<rect width="6.11111" height="20" fill="#004692"/>
<rect x="6.11108" width="7.77778" height="20" fill="#FBD381"/>
<rect x="13.8889" width="6.11111" height="20" fill="#DD2033"/>
<rect x="7.77777" y="7.77777" width="2.22222" height="2.22222" fill="#DD2033"/>
<path d="M12.1763 10H10L10 12.7349C11.1639 12.2601 11.9794 11.2154 12.1763 10Z" fill="#DD2033"/>
<path fill-rule="evenodd" clip-rule="evenodd" d="M8.88891 6.38888V5.83333C8.88891 5.5265 9.13764 5.27777 9.44446 5.27777H10.5556C10.8624 5.27777 11.1111 5.5265 11.1111 5.83333V6.38888C11.1111 6.08206 11.3599 5.83333 11.6667 5.83333L12.7778 5.83333C13.0846 5.83333 13.3334 6.08206 13.3334 6.38888V9.42811C13.3334 11.0699 12.4763 12.5699 11.1111 13.4124V14.4444C11.1111 14.7513 10.8624 15 10.5556 15H9.44446C9.13764 15 8.88891 14.7513 8.88891 14.4444V13.4124C7.52378 12.5699 6.66669 11.0699 6.66669 9.42811V6.38888C6.66669 6.08206 6.91542 5.83333 7.22224 5.83333L8.33335 5.83333C8.64018 5.83333 8.88891 6.08206 8.88891 6.38888ZM7.7778 7.77777V9.42811C7.7778 10.8803 8.65695 12.187 10 12.7349C11.3431 12.187 12.2222 10.8803 12.2222 9.42811V7.77777H7.7778Z" fill="#FF9E42"/>
</g>
</svg>
