<svg width="20" height="20" viewBox="0 0 20 20" fill="none" xmlns="http://www.w3.org/2000/svg">
<mask id="mask0_11482_4139" style="mask-type:alpha" maskUnits="userSpaceOnUse" x="0" y="0" width="20" height="20">
<circle cx="10" cy="10" r="10" fill="#D9D9D9"/>
</mask>
<g mask="url(#mask0_11482_4139)">
<rect width="5.55556" height="20" fill="#31373D"/>
<rect x="5.55554" width="8.88889" height="20" fill="#DD2033"/>
<rect x="14.4445" width="5.55556" height="20" fill="#005B33"/>
<path fill-rule="evenodd" clip-rule="evenodd" d="M13.8889 9.16666C13.8889 11.3144 12.1478 13.0555 10 13.0555C7.85223 13.0555 6.11111 11.3144 6.11111 9.16666C6.11111 8.32359 6.37939 7.54317 6.83523 6.90613L7.73945 7.552C7.41385 8.00703 7.22223 8.56447 7.22223 9.16666C7.22223 10.7008 8.46588 11.9444 10 11.9444C11.5341 11.9444 12.7778 10.7008 12.7778 9.16666C12.7778 8.56446 12.5862 8.00701 12.2605 7.55198L13.1648 6.90611C13.6206 7.54316 13.8889 8.32358 13.8889 9.16666ZM9.99174 5.27778H10.0083C10.0055 5.27777 10.0028 5.27777 10 5.27777C9.99725 5.27777 9.9945 5.27777 9.99174 5.27778Z" fill="#F5F7F8"/>
<path fill-rule="evenodd" clip-rule="evenodd" d="M10.8333 8.05558C10.8333 7.59535 10.4602 7.22225 10 7.22225C9.53977 7.22225 9.16668 7.59535 9.16668 8.05558V9.72225H10.8333V8.05558ZM10 6.38892C10.9205 6.38892 11.6667 7.13511 11.6667 8.05558V10.5556H8.33334V8.05558C8.33334 7.13511 9.07954 6.38892 10 6.38892Z" fill="#F5F7F8"/>
</g>
</svg>
