<svg width="29" height="20" viewBox="0 0 29 20" fill="none" xmlns="http://www.w3.org/2000/svg">
<mask id="mask0_11482_4150" style="mask-type:alpha" maskUnits="userSpaceOnUse" x="0" y="0" width="29" height="20">
<rect width="29" height="20" fill="#D9D9D9"/>
</mask>
<g mask="url(#mask0_11482_4150)">
<rect width="8.05556" height="20" fill="#31373D"/>
<rect x="8.05554" width="12.8889" height="20" fill="#DD2033"/>
<rect x="20.9445" width="8.05556" height="20" fill="#005B33"/>
<path fill-rule="evenodd" clip-rule="evenodd" d="M20.1389 9.19998C20.1389 12.2928 17.6143 14.8 14.5 14.8C11.3857 14.8 8.86111 12.2928 8.86111 9.19998C8.86111 7.98595 9.25011 6.86216 9.91108 5.94481L11.2222 6.87487C10.7501 7.53011 10.4722 8.33282 10.4722 9.19998C10.4722 11.4091 12.2755 13.2 14.5 13.2C16.7245 13.2 18.5278 11.4091 18.5278 9.19998C18.5278 8.3328 18.2499 7.53008 17.7778 6.87484L19.0889 5.94478C19.7499 6.86213 20.1389 7.98594 20.1389 9.19998ZM14.488 3.59999H14.512C14.508 3.59998 14.504 3.59998 14.5 3.59998C14.496 3.59998 14.492 3.59998 14.488 3.59999Z" fill="#F5F7F8"/>
<path fill-rule="evenodd" clip-rule="evenodd" d="M15.7083 7.60001C15.7083 6.93727 15.1674 6.40001 14.5 6.40001C13.8327 6.40001 13.2917 6.93727 13.2917 7.60001V10H15.7083V7.60001ZM14.5 5.20001C15.8347 5.20001 16.9167 6.27453 16.9167 7.60001V11.2H12.0833V7.60001C12.0833 6.27453 13.1653 5.20001 14.5 5.20001Z" fill="#F5F7F8"/>
</g>
</svg>
