<svg width="20" height="20" viewBox="0 0 20 20" fill="none" xmlns="http://www.w3.org/2000/svg">
<mask id="mask0_11482_4162" style="mask-type:alpha" maskUnits="userSpaceOnUse" x="0" y="0" width="20" height="20">
<circle cx="10" cy="10" r="10" fill="#D9D9D9"/>
</mask>
<g mask="url(#mask0_11482_4162)">
<rect width="20" height="20" fill="#DD2033"/>
<path d="M10 20L22.5 0L-2.5 -3.93403e-06L10 20Z" fill="#31373D"/>
<mask id="mask1_11482_4162" style="mask-type:alpha" maskUnits="userSpaceOnUse" x="-3" y="0" width="26" height="20">
<path d="M10 20L22.5 0L-2.5 -3.93403e-06L10 20Z" fill="#31373D"/>
</mask>
<g mask="url(#mask1_11482_4162)">
<path d="M6.82567 8.32196L4.55553 9.44443H15.6666L13.3966 8.32205L14.6054 6.01098L12.1404 6.50662L11.8281 3.88892L10.111 5.81415L8.39421 3.88892L8.0817 6.50662L5.61673 6.01098L6.82567 8.32196Z" fill="#F1B434"/>
<rect x="5.55556" y="13.3333" width="8.88889" height="6.66667" fill="#F5F7F8"/>
<path d="M3.33334 9.44446H16.6667V13.3333H3.33334V9.44446Z" fill="#005EB8"/>
</g>
</g>
</svg>
