<svg width="72" height="72" viewBox="0 0 72 72" fill="none" xmlns="http://www.w3.org/2000/svg">
<mask id="mask0_5_458" style="mask-type:alpha" maskUnits="userSpaceOnUse" x="0" y="0" width="72" height="72">
<circle cx="36" cy="36" r="36" fill="#D9D9D9"/>
</mask>
<g mask="url(#mask0_5_458)">
<rect width="72" height="72" fill="#004692"/>
<mask id="mask1_5_458" style="mask-type:alpha" maskUnits="userSpaceOnUse" x="0" y="0" width="36" height="36">
<path d="M0 36C-8.69081e-07 16.1178 16.1177 -7.04529e-07 36 -1.57361e-06L36 36L0 36Z" fill="#002F6C"/>
</mask>
<g mask="url(#mask1_5_458)">
<path d="M12.5223 3.1339L10.401 5.25522L39.927 34.7812L42.0483 32.6599L12.5223 3.1339Z" fill="#F5F7F8"/>
<path d="M6.86549 8.79076L3.32996 12.3263L32.856 41.8523L36.3915 38.3168L6.86549 8.79076Z" fill="#F5F7F8"/>
<path d="M6.86549 8.79076L10.401 5.25522L39.927 34.7812L36.3915 38.3168L6.86549 8.79076Z" fill="#DD2033"/>
<path d="M36 12V17L17 17L17 36H12V12H36Z" fill="#F5F7F8"/>
<path d="M36 -1.99997V3.00003L5 3.00003L5 36H0V-1.99997H36Z" fill="#F5F7F8"/>
<path fill-rule="evenodd" clip-rule="evenodd" d="M3 36H12L12 12L36 12V3.00003H12H3L3 12L3 36Z" fill="#DD2033"/>
</g>
<path d="M41.2002 35H62.2002V43.7432C62.2002 49.8265 58.4918 55.2951 52.8402 57.546L51.7002 58L50.5601 57.546C44.9086 55.2951 41.2002 49.8265 41.2002 43.7432V35Z" fill="#F5F7F8"/>
<mask id="mask2_5_458" style="mask-type:alpha" maskUnits="userSpaceOnUse" x="41" y="50" width="23" height="8">
<rect x="41.2002" y="50" width="22" height="8" fill="#D9D9D9"/>
</mask>
<g mask="url(#mask2_5_458)">
<path d="M41.2002 35H62.2002V43.7432C62.2002 49.8265 58.4918 55.2951 52.8402 57.546L51.7002 58L50.5601 57.546C44.9086 55.2951 41.2002 49.8265 41.2002 43.7432V35Z" fill="#3CCBDA"/>
</g>
<circle cx="48.7002" cy="43.5" r="2.5" fill="#FF9E42"/>
<circle cx="53.7002" cy="39.5" r="2.5" fill="#FF9E42"/>
<circle cx="55.7002" cy="45.5" r="2.5" fill="#FF9E42"/>
</g>
</svg>
