<svg width="20" height="20" viewBox="0 0 20 20" fill="none" xmlns="http://www.w3.org/2000/svg">
<mask id="mask0_11482_4182" style="mask-type:alpha" maskUnits="userSpaceOnUse" x="0" y="0" width="20" height="20">
<circle cx="10" cy="10" r="10" fill="#D9D9D9"/>
</mask>
<g mask="url(#mask0_11482_4182)">
<rect width="20" height="20" fill="#004692"/>
<mask id="mask1_11482_4182" style="mask-type:alpha" maskUnits="userSpaceOnUse" x="0" y="0" width="10" height="10">
<path d="M0 10C-8.69081e-07 4.47715 4.47715 -5.43618e-08 10 -1.21421e-07L10 10L0 10Z" fill="#002F6C"/>
</mask>
<g mask="url(#mask1_11482_4182)">
<path d="M3.47843 0.870508L2.88917 1.45976L11.0908 9.66143L11.6801 9.07217L3.47843 0.870508Z" fill="#F5F7F8"/>
<path d="M1.90708 2.44186L0.924989 3.42395L9.12665 11.6256L10.1087 10.6435L1.90708 2.44186Z" fill="#F5F7F8"/>
<path d="M1.90708 2.44186L2.88917 1.45976L11.0908 9.66143L10.1087 10.6435L1.90708 2.44186Z" fill="#DD2033"/>
<path d="M10 3.33331V4.7222L4.72222 4.7222L4.72222 9.99999H3.33334V3.33331H10Z" fill="#F5F7F8"/>
<path d="M10 -0.555542V0.833347L1.3889 0.833346L1.3889 10H1.14441e-05V-0.555542H10Z" fill="#F5F7F8"/>
<path fill-rule="evenodd" clip-rule="evenodd" d="M0.833332 10H3.33333L3.33333 3.33337L10 3.33337V0.833374H3.33333H0.833333L0.833333 3.33337L0.833332 10Z" fill="#DD2033"/>
</g>
<path d="M11.4445 9.72223H17.2778V11.81C17.2778 13.7056 16.1222 15.4097 14.3612 16.1111C12.6001 15.4097 11.4445 13.7056 11.4445 11.81V9.72223Z" fill="#F5F7F8"/>
<mask id="mask2_11482_4182" style="mask-type:alpha" maskUnits="userSpaceOnUse" x="11" y="13" width="7" height="4">
<rect x="11.4445" y="13.8889" width="6.11111" height="2.22222" fill="#D9D9D9"/>
</mask>
<g mask="url(#mask2_11482_4182)">
<path d="M11.4445 9.72223H17.2778V11.81C17.2778 13.7056 16.1222 15.4097 14.3612 16.1111C12.6001 15.4097 11.4445 13.7056 11.4445 11.81V9.72223Z" fill="#3CCBDA"/>
</g>
<circle cx="13.5278" cy="12.0834" r="0.694444" fill="#FF9E42"/>
<circle cx="14.9167" cy="10.9722" r="0.694444" fill="#FF9E42"/>
<circle cx="15.4723" cy="12.6389" r="0.694444" fill="#FF9E42"/>
</g>
</svg>
