<svg width="29" height="20" viewBox="0 0 29 20" fill="none" xmlns="http://www.w3.org/2000/svg">
<mask id="mask0_11482_4199" style="mask-type:alpha" maskUnits="userSpaceOnUse" x="0" y="0" width="29" height="20">
<rect width="29" height="20" fill="#D9D9D9"/>
</mask>
<g mask="url(#mask0_11482_4199)">
<rect width="29" height="20" fill="#004692"/>
<path d="M17.8029 8.40002H26.2612V11.3793C26.2612 14.1242 24.5845 16.5905 22.032 17.6C19.4796 16.5905 17.8029 14.1242 17.8029 11.3793V8.40002Z" fill="#F5F7F8"/>
<mask id="mask1_11482_4199" style="mask-type:alpha" maskUnits="userSpaceOnUse" x="17" y="14" width="10" height="4">
<rect x="17.8029" y="14.4" width="8.86111" height="3.2" fill="#D9D9D9"/>
</mask>
<g mask="url(#mask1_11482_4199)">
<path d="M17.8029 8.40002H26.2612V11.3793C26.2612 14.1242 24.5845 16.5905 22.032 17.6C19.4796 16.5905 17.8029 14.1242 17.8029 11.3793V8.40002Z" fill="#3CCBDA"/>
</g>
<ellipse cx="20.8237" cy="11.8" rx="1.00694" ry="1" fill="#FF9E42"/>
<ellipse cx="22.8376" cy="10.2" rx="1.00694" ry="1" fill="#FF9E42"/>
<ellipse cx="23.6431" cy="12.6" rx="1.00694" ry="1" fill="#FF9E42"/>
<mask id="mask2_11482_4199" style="mask-type:alpha" maskUnits="userSpaceOnUse" x="0" y="0" width="15" height="12">
<path d="M0 12L-1.31134e-06 0L14.5 -2.53526e-07L14.5 12L0 12Z" fill="#002F6C"/>
</mask>
<g mask="url(#mask2_11482_4199)">
<path d="M5.15185 0.40184L4.29743 1.25037L14.849 11.7292L15.7034 10.8807L5.15185 0.40184Z" fill="#F5F7F8"/>
<path d="M2.87339 2.66458L1.44936 4.07879L12.0009 14.5576L13.425 13.1434L2.87339 2.66458Z" fill="#F5F7F8"/>
<path d="M2.87339 2.66458L4.29743 1.25037L14.849 11.7292L13.425 13.1434L2.87339 2.66458Z" fill="#DD2033"/>
<path d="M2.41667 13.9999H4.02847L4.02847 3.59993H14.5V1.99994H2.41667V13.9999Z" fill="#F5F7F8"/>
<path d="M1.52588e-05 14H2.41737L2.41737 1.99992H14.5007V-6.10352e-05H1.52588e-05V14Z" fill="#DD2033"/>
</g>
</g>
</svg>
