<svg width="72" height="72" viewBox="0 0 72 72" fill="none" xmlns="http://www.w3.org/2000/svg">
<mask id="mask0_5_1464" style="mask-type:alpha" maskUnits="userSpaceOnUse" x="0" y="0" width="72" height="72">
<circle cx="36" cy="36" r="36" fill="#D9D9D9"/>
</mask>
<g mask="url(#mask0_5_1464)">
<rect width="72" height="72" fill="#DD2033"/>
<path d="M48.3026 22.4052C46.6124 22.2896 44.1309 22.5385 42.2011 23.4992C40.4619 24.365 39.2494 25.7176 39.2494 28.2524V29.123L54.6366 25C55.2084 27.1339 53.9421 29.3272 51.8082 29.899L39.2494 33.2641V34.2994L54.9647 30.0885C55.5365 32.2223 54.2702 34.4157 52.1363 34.9874L39.6874 38.3231L40.5094 39.1382L54.3271 35.4357C54.8988 37.5696 53.6325 39.7629 51.4986 40.3347L43.7973 42.3983L50.5877 49.1312L46.4228 53.2609L39.0811 45.9813L42.1945 53.699L36.3044 59.5392L30.4143 53.699L33.5196 46.0013L26.1649 53.2938L22 49.1641L28.6915 42.5292L20.5014 40.3347C18.3676 39.7629 17.1012 37.5696 17.673 35.4357L31.9795 39.2691L32.8014 38.4541L19.8637 34.9874C17.7299 34.4157 16.4635 32.2223 17.0353 30.0885L33.3383 34.4568V33.4216L20.1919 29.899C18.058 29.3272 16.7917 27.1339 17.3634 25L33.3383 29.2805V28.2852C33.3383 25.7505 32.1259 24.3979 30.3866 23.5321C28.4568 22.5714 25.9753 22.3225 24.2851 22.4381L23.8799 16.6117C26.2566 16.4492 29.8755 16.7427 33.0294 18.3127C34.2075 18.8992 35.3248 19.672 36.2779 20.6518C37.238 19.6564 38.3671 18.8729 39.5583 18.2798C42.7122 16.7098 46.3312 16.4163 48.7079 16.5788L48.3026 22.4052Z" fill="#31373D"/>
</g>
</svg>
