<svg width="29" height="20" viewBox="0 0 29 20" fill="none" xmlns="http://www.w3.org/2000/svg">
<mask id="mask0_11482_4221" style="mask-type:alpha" maskUnits="userSpaceOnUse" x="0" y="0" width="29" height="20">
<rect width="29" height="20" fill="#D9D9D9"/>
</mask>
<g mask="url(#mask0_11482_4221)">
<rect width="29" height="20" fill="#DD2033"/>
<path d="M19.4552 4.56211C18.7744 4.51588 17.7749 4.61542 16.9977 4.99969C16.2971 5.34603 15.8088 5.88705 15.8088 6.90097V7.24922L22.0064 5.60002C22.2367 6.45357 21.7266 7.33091 20.8672 7.55962L15.8088 8.90566V9.31978L22.1386 7.63541C22.3689 8.48896 21.8588 9.3663 20.9993 9.595L15.9852 10.9293L16.3162 11.2553L21.8817 9.77432C22.112 10.6279 21.602 11.5052 20.7425 11.7339L17.6406 12.5593L20.3756 15.2525L18.698 16.9044L15.741 13.9925L16.995 17.0796L14.6226 19.4157L12.2502 17.0796L13.5009 14.0005L10.5386 16.9175L8.8611 15.2657L11.5563 12.6117L8.2575 11.7339C7.39802 11.5052 6.88797 10.6279 7.11827 9.77432L12.8806 11.3077L13.2117 10.9817L8.00065 9.595C7.14117 9.3663 6.63112 8.48896 6.86142 7.63541L13.4279 9.38276V8.96865L8.13281 7.55962C7.27333 7.33091 6.76329 6.45357 6.99358 5.60002L13.4279 7.31221V6.91412C13.4279 5.90021 12.9396 5.35918 12.239 5.01285C11.4618 4.62858 10.4623 4.52904 9.78148 4.57527L9.61825 2.24472C10.5755 2.17971 12.0332 2.29709 13.3035 2.92512C13.778 3.15971 14.228 3.46883 14.6119 3.86074C14.9986 3.46258 15.4534 3.14917 15.9332 2.91196C17.2035 2.28393 18.6611 2.16655 19.6184 2.23156L19.4552 4.56211Z" fill="#31373D"/>
</g>
</svg>
