<svg width="20" height="20" viewBox="0 0 20 20" fill="none" xmlns="http://www.w3.org/2000/svg">
<mask id="mask0_11482_4217" style="mask-type:alpha" maskUnits="userSpaceOnUse" x="0" y="0" width="20" height="20">
<circle cx="10" cy="10" r="10" fill="#D9D9D9"/>
</mask>
<g mask="url(#mask0_11482_4217)">
<rect width="20" height="20" fill="#DD2033"/>
<path d="M13.4174 6.22369C12.9479 6.19159 12.2586 6.26071 11.7225 6.52757C11.2394 6.76808 10.9026 7.14379 10.9026 7.8479V8.08974L15.1768 6.94446C15.3357 7.5372 14.9839 8.14647 14.3912 8.30529L10.9026 9.24005V9.52763L15.268 8.35793C15.4268 8.95067 15.075 9.55993 14.4823 9.71876L11.0243 10.6453L11.2526 10.8717L15.0908 9.84328C15.2497 10.436 14.8979 11.0453 14.3052 11.2041L12.1659 11.7773L14.0521 13.6476L12.8952 14.7947L10.8558 12.7726L11.7207 14.9164L10.0845 16.5387L8.4484 14.9164L9.311 12.7782L7.26802 14.8038L6.1111 13.6567L7.96985 11.8137L5.69483 11.2041C5.10209 11.0453 4.75033 10.436 4.90915 9.84328L8.88317 10.9081L9.1115 10.6817L5.51769 9.71876C4.92495 9.55993 4.57319 8.95067 4.73201 8.35793L9.26063 9.57137V9.28379L5.60883 8.30529C5.01609 8.14647 4.66434 7.5372 4.82316 6.94446L9.26063 8.13348V7.85703C9.26063 7.15293 8.92383 6.77721 8.44071 6.5367C7.90466 6.26985 7.21536 6.20072 6.74585 6.23283L6.63328 4.61439C7.29348 4.56924 8.29874 4.65076 9.17483 5.08689C9.50207 5.2498 9.81243 5.46447 10.0772 5.73663C10.3439 5.46013 10.6575 5.24248 10.9884 5.07776C11.8645 4.64162 12.8698 4.56011 13.53 4.60525L13.4174 6.22369Z" fill="#31373D"/>
</g>
</svg>
