<svg width="72" height="72" viewBox="0 0 72 72" fill="none" xmlns="http://www.w3.org/2000/svg">
<mask id="mask0_10_2235" style="mask-type:alpha" maskUnits="userSpaceOnUse" x="0" y="0" width="72" height="72">
<circle cx="36" cy="36" r="36" fill="#D9D9D9"/>
</mask>
<g mask="url(#mask0_10_2235)">
<rect y="72" width="36" height="72" transform="rotate(-90 0 72)" fill="#31373D"/>
<rect y="36" width="36" height="72" transform="rotate(-90 0 36)" fill="#DD2033"/>
<path d="M29.6001 24L28.1098 27.3711L24.6001 27.8196L27.1887 30.3517L26.5099 34L29.6001 31.9167L32.6903 34L32.0115 30.3517L34.6001 27.8196L31.0904 27.3711L29.6001 24Z" fill="#F1B434"/>
<path d="M49.3129 43.8564C53.7312 36.2037 51.1091 26.4183 43.4565 22C40.269 20.1597 36.7116 19.5408 33.3261 19.9981L33.0318 24.6879C35.7117 24.1053 38.6085 24.4797 41.1707 25.959C46.6369 29.1149 48.5097 36.1045 45.3538 41.5707C45.2189 41.8043 45.077 42.0314 44.9285 42.2518L34.1001 36L33.6001 36.866C32.4955 38.7792 33.151 41.2256 35.0642 42.3301L41.0838 45.8056C37.6782 47.7276 33.3739 47.8506 29.7421 45.7538C27.1486 44.2565 25.364 41.8961 24.5417 39.2449L20.6411 41.9003C21.9347 45.0776 24.2555 47.8647 27.4565 49.7128C33.3367 53.1077 40.4761 52.346 45.4722 48.3393L54.6875 53.6597L57.1875 49.3295L48.8945 44.5416C49.0388 44.3179 49.1783 44.0895 49.3129 43.8564Z" fill="#F1B434"/>
<path d="M21.6159 27.8291L21.5843 27.8838L21.6001 27.8564L21.6159 27.8291Z" fill="#F1B434"/>
</g>
</svg>
