<svg width="20" height="20" viewBox="0 0 20 20" fill="none" xmlns="http://www.w3.org/2000/svg">
<mask id="mask0_11482_4237" style="mask-type:alpha" maskUnits="userSpaceOnUse" x="0" y="0" width="20" height="20">
<circle cx="10" cy="10" r="10" fill="#D9D9D9"/>
</mask>
<g mask="url(#mask0_11482_4237)">
<rect x="0.5" y="19.5" width="9" height="19" transform="rotate(-90 0.5 19.5)" fill="#31373D" stroke="#31373D"/>
<rect y="10" width="10" height="20" transform="rotate(-90 0 10)" fill="#DD2033"/>
<path d="M8.22227 6.66669L7.80828 7.6031L6.83337 7.7277L7.55244 8.43106L7.36387 9.44446L8.22226 8.86576L9.08066 9.44446L8.89209 8.43106L9.61115 7.7277L8.63625 7.6031L8.22227 6.66669Z" fill="#F1B434"/>
<path d="M13.698 12.1823C14.9253 10.0566 14.197 7.33838 12.0712 6.11108C11.1858 5.59989 10.1977 5.42797 9.25724 5.55499L9.1755 6.85771C9.91991 6.69588 10.7246 6.79988 11.4363 7.21079C12.9547 8.08743 13.4749 10.029 12.5983 11.5474C12.5608 11.6123 12.5214 11.6754 12.4801 11.7366L9.47224 9.99997L9.33335 10.2405C9.02653 10.772 9.20861 11.4515 9.74005 11.7583L11.4122 12.7237C10.4662 13.2576 9.27053 13.2918 8.2617 12.7094C7.54128 12.2934 7.04556 11.6378 6.81713 10.9013L5.73364 11.6389C6.09297 12.5215 6.73764 13.2957 7.6268 13.8091C9.26018 14.7521 11.2434 14.5405 12.6312 13.4275L15.191 14.9054L15.8854 13.7026L13.5818 12.3726C13.6219 12.3105 13.6606 12.247 13.698 12.1823Z" fill="#F1B434"/>
<path d="M6.00441 7.73026L5.99564 7.74546L6.00002 7.73786L6.00441 7.73026Z" fill="#F1B434"/>
</g>
</svg>
