<svg width="29" height="20" viewBox="0 0 29 20" fill="none" xmlns="http://www.w3.org/2000/svg">
<mask id="mask0_11482_4243" style="mask-type:alpha" maskUnits="userSpaceOnUse" x="0" y="0" width="29" height="20">
<rect width="29" height="20" fill="#D9D9D9"/>
</mask>
<g mask="url(#mask0_11482_4243)">
<rect x="0.5" y="19.5" width="9" height="28" transform="rotate(-90 0.5 19.5)" fill="#31373D" stroke="#31373D"/>
<rect y="10" width="10" height="29" transform="rotate(-90 0 10)" fill="#DD2033"/>
<path d="M11.9223 5.20001L11.322 6.54845L9.90839 6.72787L10.951 7.74071L10.6776 9.20001L11.9223 8.36668L13.1669 9.20001L12.8935 7.74071L13.9362 6.72787L12.5226 6.54845L11.9223 5.20001Z" fill="#F1B434"/>
<path d="M19.8621 13.1426C21.6417 10.0815 20.5856 6.16732 17.5033 4.40001C16.2195 3.6639 14.7866 3.41634 13.423 3.59925L13.3045 5.47517C14.3839 5.24212 15.5507 5.39189 16.5826 5.98359C18.7843 7.24596 19.5386 10.0418 18.2675 12.2283C18.2132 12.3217 18.156 12.4126 18.0962 12.5007L13.7347 10L13.5334 10.3464C13.0885 11.1117 13.3525 12.0902 14.1231 12.5321L16.5476 13.9222C15.1759 14.691 13.4423 14.7403 11.9795 13.9015C10.9349 13.3026 10.2161 12.3584 9.88483 11.298L8.31378 12.3601C8.83481 13.6311 9.76958 14.7459 11.0589 15.4851C13.4273 16.8431 16.3029 16.5384 18.3152 14.9357L22.0269 17.0639L23.0338 15.3318L19.6936 13.4166C19.7517 13.3272 19.8079 13.2358 19.8621 13.1426Z" fill="#F1B434"/>
<path d="M8.7064 6.73164L8.69367 6.75352L8.70002 6.74257L8.7064 6.73164Z" fill="#F1B434"/>
</g>
</svg>
