<svg width="72" height="72" viewBox="0 0 72 72" fill="none" xmlns="http://www.w3.org/2000/svg">
<mask id="mask0_13_4755" style="mask-type:alpha" maskUnits="userSpaceOnUse" x="0" y="0" width="72" height="72">
<circle cx="36" cy="36" r="36" fill="#D9D9D9"/>
</mask>
<g mask="url(#mask0_13_4755)">
<rect width="72" height="72" fill="#0091DA"/>
<path d="M25.3377 29.2634C19.3331 31.2808 15.7193 25.9012 14.3294 24.052C13.2619 24.7244 13.3286 26.6857 13.4954 27.5823L17.9988 35.3154C18.3991 42.1744 21.279 46.1306 22.669 47.2513C27.7395 49.5376 34.122 49.2126 36.6795 48.7643C38.681 50.1092 37.5135 52.799 36.6795 53.9758C52.6916 59.2208 55.805 43.0485 55.3602 34.3068L52.358 32.7938C53.1586 28.8936 52.0244 25.3408 51.3572 24.052L34.1776 18L28.8403 21.3622C28.7847 23.7158 28.0063 28.591 25.3377 29.2634Z" fill="#F5F7F8"/>
</g>
</svg>
