<svg width="29" height="20" viewBox="0 0 29 20" fill="none" xmlns="http://www.w3.org/2000/svg">
<mask id="mask0_11482_4254" style="mask-type:alpha" maskUnits="userSpaceOnUse" x="0" y="0" width="29" height="20">
<rect width="29" height="20" fill="#D9D9D9"/>
</mask>
<g mask="url(#mask0_11482_4254)">
<rect y="-4.40002" width="29" height="28.8" fill="#0091DA"/>
<path d="M10.2054 7.30536C7.78693 8.1123 6.33136 5.96047 5.77153 5.22079C5.34157 5.48976 5.36844 6.27428 5.43562 6.63292L7.24949 9.72616C7.41072 12.4697 8.5707 14.0522 9.13053 14.5005C11.1728 15.415 13.7436 15.285 14.7737 15.1057C15.5798 15.6437 15.1096 16.7196 14.7737 17.1903C21.223 19.2883 22.477 12.8194 22.2978 9.3227L21.0886 8.7175C21.4111 7.15743 20.9542 5.73633 20.6855 5.22079L13.766 2.79999L11.6162 4.14488C11.5938 5.0863 11.2803 7.03639 10.2054 7.30536Z" fill="#F5F7F8"/>
</g>
</svg>
