<svg width="20" height="20" viewBox="0 0 20 20" fill="none" xmlns="http://www.w3.org/2000/svg">
<mask id="mask0_11482_4250" style="mask-type:alpha" maskUnits="userSpaceOnUse" x="0" y="0" width="20" height="20">
<circle cx="10" cy="10" r="10" fill="#D9D9D9"/>
</mask>
<g mask="url(#mask0_11482_4250)">
<rect width="20" height="20" fill="#0091DA"/>
<path d="M7.03821 8.12873C5.37029 8.6891 4.36645 7.19478 3.98035 6.68111C3.68383 6.8679 3.70237 7.4127 3.7487 7.66176L4.99964 9.80984C5.11083 11.7151 5.91082 12.814 6.29691 13.1254C7.70538 13.7605 9.47832 13.6702 10.1887 13.5456C10.7447 13.9192 10.4204 14.6664 10.1887 14.9933C14.6365 16.4502 15.5014 11.9579 15.3778 9.52966L14.5439 9.10938C14.7662 8.026 14.4512 7.03912 14.2659 6.68111L9.49376 5L8.01116 5.93395C7.99572 6.58772 7.77951 7.94194 7.03821 8.12873Z" fill="#F5F7F8"/>
</g>
</svg>
