<svg width="29" height="20" viewBox="0 0 29 20" fill="none" xmlns="http://www.w3.org/2000/svg">
<mask id="mask0_11482_4264" style="mask-type:alpha" maskUnits="userSpaceOnUse" x="0" y="0" width="29" height="20">
<rect width="29" height="20" fill="#D9D9D9"/>
</mask>
<g mask="url(#mask0_11482_4264)">
<rect y="20" width="20" height="29" transform="rotate(-90 0 20)" fill="#86C5FA"/>
<rect y="15.6" width="11.2" height="29" transform="rotate(-90 0 15.6)" fill="#F5F7F8"/>
<path d="M18.8269 9.99994L17.0165 10.889L17.9805 12.7194L16.0147 12.3268L15.7656 14.4L14.3963 12.8752L13.0271 14.4L12.778 12.3268L10.8121 12.7193L11.7762 10.8889L9.96579 9.99994L11.7762 9.11095L10.8121 7.28065L12.7779 7.6732L13.0271 5.59998L14.3963 7.12476L15.7657 5.59998L16.0147 7.6732L17.9806 7.28065L17.0166 9.11102L18.8269 9.99994Z" fill="#F1B434"/>
</g>
</svg>
