<svg width="72" height="72" viewBox="0 0 72 72" fill="none" xmlns="http://www.w3.org/2000/svg">
<mask id="mask0_13_5305" style="mask-type:alpha" maskUnits="userSpaceOnUse" x="0" y="0" width="72" height="72">
<circle cx="36" cy="36" r="36" fill="#D9D9D9"/>
</mask>
<g mask="url(#mask0_13_5305)">
<rect width="72" height="72" fill="#004692"/>
<path d="M-11 36L72 78L72 -6L-11 36Z" fill="#DD2033"/>
<path d="M5 36L88 78L88 -6L5 36Z" fill="#F5F7F8"/>
<path d="M60 35H56C57.0788 33.6642 56.8633 31.8685 55.6478 30.6153C56.9352 29.2878 56.9352 27.1353 55.6478 25.8075L55.5703 25.8878C56.8576 24.5603 56.9352 22.3275 55.6478 21L37 40.2307C38.2874 41.5584 40.3381 41.5426 41.6254 40.2149L41.9843 39.8766L50.9136 39.0395V43H53.9425V38.7556L58.4857 38.3297L60 35Z" fill="#936846"/>
<path d="M55.6478 30.6153C56.8633 31.8685 57.0788 33.6642 55.9999 35H52.9999L46.3239 30.6153L55.6478 21C56.9352 22.3275 56.9351 24.48 55.6478 25.8075C56.9352 27.1353 56.9352 29.2878 55.6478 30.6153Z" fill="#FF9E42"/>
<path d="M37.0677 45L34 43.5001L37.0677 42H57V45H37.0677Z" fill="#F1B434"/>
</g>
</svg>
