<svg width="20" height="20" viewBox="0 0 20 20" fill="none" xmlns="http://www.w3.org/2000/svg">
<mask id="mask0_11482_4270" style="mask-type:alpha" maskUnits="userSpaceOnUse" x="0" y="0" width="20" height="20">
<circle cx="10" cy="10" r="10" fill="#D9D9D9"/>
</mask>
<g mask="url(#mask0_11482_4270)">
<rect width="20" height="20" fill="#004692"/>
<path d="M-3.05555 10L20 21.6667L20 -1.66665L-3.05555 10Z" fill="#DD2033"/>
<path d="M1.38889 10L24.4444 21.6667L24.4444 -1.66665L1.38889 10Z" fill="#F5F7F8"/>
<path d="M16.6667 9.7222H15.5555C15.8552 9.35115 15.7953 8.85233 15.4577 8.50424C15.8153 8.13549 15.8153 7.53756 15.4577 7.16874L15.4362 7.19103C15.7938 6.82228 15.8153 6.20206 15.4577 5.83331L10.2778 11.1752C10.6354 11.544 11.205 11.5396 11.5626 11.1708L11.6623 11.0768L14.1427 10.8443V11.9444H14.984V10.7654L16.246 10.6471L16.6667 9.7222Z" fill="#936846"/>
<path d="M15.4577 8.50424C15.7953 8.85233 15.8552 9.35115 15.5555 9.7222H14.7222L12.8678 8.50424L15.4577 5.83331C15.8153 6.20206 15.8153 6.79999 15.4577 7.16874C15.8153 7.53756 15.8153 8.13549 15.4577 8.50424Z" fill="#FF9E42"/>
<path d="M10.2966 12.5L9.44444 12.0834L10.2966 11.6667H15.8333V12.5H10.2966Z" fill="#F1B434"/>
</g>
</svg>
