<svg width="29" height="20" viewBox="0 0 29 20" fill="none" xmlns="http://www.w3.org/2000/svg">
<mask id="mask0_11482_4278" style="mask-type:alpha" maskUnits="userSpaceOnUse" x="0" y="0" width="29" height="20">
<rect width="29" height="20" fill="#D9D9D9"/>
</mask>
<g mask="url(#mask0_11482_4278)">
<rect y="-4.40002" width="29" height="28.8" fill="#004692"/>
<path d="M-4.02778 9.99999L29.4028 26.8L29.4028 -6.80001L-4.02778 9.99999Z" fill="#DD2033"/>
<path d="M2.41667 9.99999L35.8472 26.8L35.8472 -6.80001L2.41667 9.99999Z" fill="#F5F7F8"/>
<path d="M25.7778 9.6H24.1667C24.6012 9.06569 24.5144 8.34738 24.0248 7.84613C24.5434 7.31513 24.5434 6.45412 24.0248 5.92301L23.9936 5.95511C24.5121 5.42411 24.5434 4.531 24.0248 4L16.5139 11.6923C17.0324 12.2234 17.8584 12.217 18.3769 11.686L18.5214 11.5507L22.118 11.2158V12.8H23.3379V11.1022L25.1678 10.9319L25.7778 9.6Z" fill="#936846"/>
<path d="M24.0248 7.84613C24.5144 8.34738 24.6012 9.06569 24.1667 9.6H22.9583L20.2694 7.84613L24.0248 4C24.5434 4.531 24.5433 5.39201 24.0248 5.92301C24.5434 6.45412 24.5434 7.31513 24.0248 7.84613Z" fill="#FF9E42"/>
<path d="M16.5411 13.6L15.3056 13.0001L16.5411 12.4H24.5694V13.6H16.5411Z" fill="#F1B434"/>
</g>
</svg>
