<svg width="73" height="72" viewBox="0 0 73 72" fill="none" xmlns="http://www.w3.org/2000/svg">
<mask id="mask0_13_5506" style="mask-type:alpha" maskUnits="userSpaceOnUse" x="0" y="0" width="73" height="72">
<circle cx="36.5142" cy="36" r="36" fill="#D9D9D9"/>
</mask>
<g mask="url(#mask0_13_5506)">
<rect x="0.51416" width="72" height="72" fill="#004692"/>
<path d="M27.5142 44L29.7292 48.7511L34.7318 47.5653L32.4913 52.3038L36.5142 55.576L31.5056 56.7338L31.5195 62L27.5142 58.7053L23.5087 62L23.5227 56.7338L18.5142 55.576L22.5368 52.3038L20.2967 47.5653L25.299 48.7511L27.5142 44Z" fill="#F5F7F8"/>
<path d="M51.5142 47L52.9909 50.1674L56.3259 49.3768L54.8323 52.5359L57.5142 54.7173L54.1751 55.4892L54.1844 59L51.5142 56.8035L48.8438 59L48.8532 55.4892L45.5142 54.7173L48.1959 52.5359L46.7025 49.3768L50.0374 50.1674L51.5142 47Z" fill="#F5F7F8"/>
<path d="M44.5142 23L45.7447 25.6395L48.5239 24.9807L47.2793 27.6132L49.5142 29.4311L46.7316 30.0743L46.7393 33L44.5142 31.1696L42.2889 33L42.2967 30.0743L39.5142 29.4311L41.749 27.6132L40.5045 24.9807L43.2835 25.6395L44.5142 23Z" fill="#F5F7F8"/>
<path d="M54.5142 15L55.7447 17.6395L58.5239 16.9807L57.2793 19.6132L59.5142 21.4311L56.7316 22.0743L56.7393 25L54.5142 23.1696L52.2889 25L52.2967 22.0743L49.5142 21.4311L51.749 19.6132L50.5045 16.9807L53.2835 17.6395L54.5142 15Z" fill="#F5F7F8"/>
<path d="M64.5142 25L65.7447 27.6395L68.5239 26.9807L67.2793 29.6132L69.5142 31.4311L66.7316 32.0743L66.7393 35L64.5142 33.1696L62.2889 35L62.2967 32.0743L59.5142 31.4311L61.749 29.6132L60.5045 26.9807L63.2835 27.6395L64.5142 25Z" fill="#F5F7F8"/>
<circle cx="57.0142" cy="38.5" r="2.5" fill="#F5F7F8"/>
<mask id="mask1_13_5506" style="mask-type:alpha" maskUnits="userSpaceOnUse" x="0" y="0" width="37" height="36">
<path d="M0.51416 36V36C0.514159 16.1177 16.6319 -7.04529e-07 36.5142 -1.57361e-06V-1.57361e-06L36.5142 36L0.51416 36Z" fill="#002F6C"/>
</mask>
<g mask="url(#mask1_13_5506)">
<path d="M13.0365 3.1339L10.9152 5.25522L40.4412 34.7812L42.5625 32.6599L13.0365 3.1339Z" fill="#F5F7F8"/>
<path d="M7.37965 8.79076L3.84412 12.3263L33.3701 41.8523L36.9056 38.3168L7.37965 8.79076Z" fill="#F5F7F8"/>
<path d="M7.37965 8.79076L10.9152 5.25522L40.4412 34.7812L36.9056 38.3168L7.37965 8.79076Z" fill="#DD2033"/>
<path d="M36.5142 12V17L17.5142 17L17.5142 36H12.5142V12H36.5142Z" fill="#F5F7F8"/>
<path d="M36.5142 -1.99997V3.00003L5.51416 3.00003L5.51416 36H0.51416V-1.99997H36.5142Z" fill="#F5F7F8"/>
<path fill-rule="evenodd" clip-rule="evenodd" d="M3.51416 36H12.5142L12.5142 12L36.5142 12V3.00003H12.5142H3.51416L3.51416 12L3.51416 36Z" fill="#DD2033"/>
</g>
</g>
</svg>
