<svg width="20" height="20" viewBox="0 0 20 20" fill="none" xmlns="http://www.w3.org/2000/svg">
<mask id="mask0_11482_4298" style="mask-type:alpha" maskUnits="userSpaceOnUse" x="0" y="0" width="20" height="20">
<circle cx="10" cy="10" r="10" fill="#D9D9D9"/>
</mask>
<g mask="url(#mask0_11482_4298)">
<rect width="20" height="20" fill="#004692"/>
<path d="M7.5 12.0555L8.11529 13.3753L9.50489 13.0459L8.88255 14.3622L10 15.2711L8.60874 15.5927L8.61259 17.0555L7.5 16.1403L6.38737 17.0555L6.39126 15.5927L5 15.2711L6.11741 14.3622L5.49516 13.0459L6.88467 13.3753L7.5 12.0555Z" fill="#F5F7F8"/>
<path d="M14.1667 12.8889L14.5769 13.7687L15.5033 13.5491L15.0884 14.4266L15.8333 15.0326L14.9058 15.247L14.9084 16.2222L14.1667 15.6121L13.4249 16.2222L13.4275 15.247L12.5 15.0326L13.2449 14.4266L12.8301 13.5491L13.7564 13.7687L14.1667 12.8889Z" fill="#F5F7F8"/>
<path d="M12.2222 6.22223L12.5641 6.95543L13.3361 6.77242L12.9903 7.50368L13.6111 8.00865L12.8382 8.18732L12.8403 9.00001L12.2222 8.49156L11.6041 9.00001L11.6063 8.18732L10.8333 8.00865L11.4541 7.50368L11.1084 6.77242L11.8804 6.95543L12.2222 6.22223Z" fill="#F5F7F8"/>
<path d="M15 4L15.3418 4.7332L16.1138 4.55019L15.7681 5.28145L16.3889 5.78642L15.616 5.96509L15.6181 6.77778L15 6.26933L14.3819 6.77778L14.384 5.96509L13.6111 5.78642L14.2319 5.28145L13.8862 4.55019L14.6582 4.7332L15 4Z" fill="#F5F7F8"/>
<path d="M17.7778 6.77777L18.1196 7.51097L18.8916 7.32797L18.5459 8.05922L19.1667 8.56419L18.3937 8.74286L18.3959 9.55555L17.7778 9.04711L17.1596 9.55555L17.1618 8.74286L16.3889 8.56419L17.0097 8.05922L16.664 7.32797L17.4359 7.51097L17.7778 6.77777Z" fill="#F5F7F8"/>
<circle cx="15.6944" cy="10.5278" r="0.694444" fill="#F5F7F8"/>
<mask id="mask1_11482_4298" style="mask-type:alpha" maskUnits="userSpaceOnUse" x="0" y="0" width="10" height="10">
<path d="M0 10C-8.69081e-07 4.47715 4.47715 -5.43618e-08 10 -1.21421e-07L10 10L0 10Z" fill="#002F6C"/>
</mask>
<g mask="url(#mask1_11482_4298)">
<path d="M3.47843 0.870508L2.88917 1.45976L11.0908 9.66143L11.6801 9.07217L3.47843 0.870508Z" fill="#F5F7F8"/>
<path d="M1.90708 2.44186L0.924989 3.42395L9.12665 11.6256L10.1087 10.6435L1.90708 2.44186Z" fill="#F5F7F8"/>
<path d="M1.90708 2.44186L2.88917 1.45976L11.0908 9.66143L10.1087 10.6435L1.90708 2.44186Z" fill="#DD2033"/>
<path d="M9.99998 3.33331V4.7222L4.7222 4.7222L4.7222 9.99999H3.33331V3.33331H9.99998Z" fill="#F5F7F8"/>
<path d="M10 -0.555542V0.833347L1.38889 0.833346L1.38889 10H0V-0.555542H10Z" fill="#F5F7F8"/>
<path fill-rule="evenodd" clip-rule="evenodd" d="M0.833313 10H3.33331L3.33331 3.33337L9.99998 3.33337V0.833374H3.33331H0.833314L0.833314 3.33337L0.833313 10Z" fill="#DD2033"/>
</g>
</g>
</svg>
