<svg width="72" height="72" viewBox="0 0 72 72" fill="none" xmlns="http://www.w3.org/2000/svg">
<mask id="mask0_17_6837" style="mask-type:alpha" maskUnits="userSpaceOnUse" x="0" y="0" width="72" height="72">
<circle cx="36" cy="36" r="36" fill="#D9D9D9"/>
</mask>
<g mask="url(#mask0_17_6837)">
<rect width="72" height="72" fill="#005EB8"/>
<path d="M20.3999 72H14.3999L14.3999 47.6999H0.399902V41.7H14.3999H20.3999V47.6999L20.3999 72Z" fill="#FBD381"/>
<path d="M14.3999 30.3H0.399902V24.3001H14.3999L14.3999 0H20.3999L20.3999 24.3001V30.3L14.3999 30.3Z" fill="#FBD381"/>
<path d="M31.7998 24.3001L31.7998 0H37.7998L37.7998 24.3001H72.3999V30.3L37.7998 30.3H31.7998V24.3001Z" fill="#FBD381"/>
<path d="M37.7998 41.7L72.3999 41.7V47.7L37.7998 47.6999L37.7998 72H31.7998L31.7998 47.6999V41.7H37.7998Z" fill="#FBD381"/>
<path d="M20 72H32L32 42L72 42V30L32 30L32 0H20L20 30L0 30V42H20L20 72Z" fill="#DD2033"/>
</g>
</svg>
