<svg width="72" height="72" viewBox="0 0 72 72" fill="none" xmlns="http://www.w3.org/2000/svg">
<mask id="mask0_17_6977" style="mask-type:alpha" maskUnits="userSpaceOnUse" x="0" y="0" width="72" height="72">
<circle cx="36" cy="36" r="36" fill="#D9D9D9"/>
</mask>
<g mask="url(#mask0_17_6977)">
<rect x="0.00012207" y="72.0001" width="18" height="72" transform="rotate(-90 0.00012207 72.0001)" fill="#009B77"/>
<rect y="54" width="36" height="72" transform="rotate(-90 0 54)" fill="#DD2033"/>
<path d="M45 27L47.215 31.7511L52.2176 30.5653L49.9772 35.3038L54 38.576L48.9915 39.7338L49.0053 45L45 41.7053L40.9945 45L41.0085 39.7338L36 38.576L40.0227 35.3038L37.7826 30.5653L42.7848 31.7511L45 27Z" fill="#F5F7F8"/>
<rect y="18" width="18" height="72" transform="rotate(-90 0 18)" fill="#0091DA"/>
<path d="M37.9982 25.2721C37.1939 25.0939 36.3579 25 35.5 25C29.1487 25 24 30.1487 24 36.5C24 42.8513 29.1487 48 35.5 48C36.3579 48 37.1939 47.9061 37.9982 47.7279C35.8534 49.1631 33.2744 50 30.5 50C23.0442 50 17 43.9558 17 36.5C17 29.0442 23.0442 23 30.5 23C33.2744 23 35.8534 23.8369 37.9982 25.2721Z" fill="#F5F7F8"/>
</g>
</svg>
