<svg width="29" height="20" viewBox="0 0 29 20" fill="none" xmlns="http://www.w3.org/2000/svg">
<mask id="mask0_11482_4366" style="mask-type:alpha" maskUnits="userSpaceOnUse" x="0" y="0" width="29" height="20">
<rect width="29" height="20" fill="#D9D9D9"/>
</mask>
<g mask="url(#mask0_11482_4366)">
<rect y="20" width="2.8" height="29" transform="rotate(-90 0 20)" fill="#009B77"/>
<rect y="17.2" width="14.4" height="29" transform="rotate(-90 0 17.2)" fill="#DD2033"/>
<path d="M18.125 6.39999L19.0172 8.30045L21.0321 7.8261L20.1297 9.72151L21.75 11.0304L19.7327 11.4935L19.7383 13.6L18.125 12.2821L16.5117 13.6L16.5173 11.4935L14.5 11.0304L16.1202 9.72151L15.218 7.8261L17.2328 8.30045L18.125 6.39999Z" fill="#F5F7F8"/>
<rect y="2.79999" width="2.8" height="29" transform="rotate(-90 0 2.79999)" fill="#0091DA"/>
<path d="M15.3048 5.70883C14.9809 5.63757 14.6442 5.59999 14.2986 5.59999C11.7405 5.59999 9.66667 7.65948 9.66667 10.2C9.66667 12.7405 11.7405 14.8 14.2986 14.8C14.6442 14.8 14.9809 14.7624 15.3048 14.6911C14.441 15.2652 13.4022 15.6 12.2847 15.6C9.28168 15.6 6.84723 13.1823 6.84723 10.2C6.84723 7.21765 9.28168 4.79999 12.2847 4.79999C13.4022 4.79999 14.441 5.13476 15.3048 5.70883Z" fill="#F5F7F8"/>
</g>
</svg>
