<svg width="20" height="20" viewBox="0 0 20 20" fill="none" xmlns="http://www.w3.org/2000/svg">
<mask id="mask0_11482_4359" style="mask-type:alpha" maskUnits="userSpaceOnUse" x="0" y="0" width="20" height="20">
<circle cx="10" cy="10" r="10" fill="#D9D9D9"/>
</mask>
<g mask="url(#mask0_11482_4359)">
<rect x="0.00012207" y="20" width="5" height="20" transform="rotate(-90 0.00012207 20)" fill="#009B77"/>
<rect y="15" width="10" height="20" transform="rotate(-90 0 15)" fill="#DD2033"/>
<path d="M12.5 7.5L13.1153 8.81976L14.5049 8.49035L13.8825 9.80661L15 10.7156L13.6087 11.0372L13.6126 12.5L12.5 11.5848L11.3874 12.5L11.3913 11.0372L10 10.7156L11.1174 9.80661L10.4952 8.49035L11.8847 8.81976L12.5 7.5Z" fill="#F5F7F8"/>
<rect y="5" width="5" height="20" transform="rotate(-90 0 5)" fill="#0091DA"/>
<path d="M10.5551 7.02003C10.3316 6.97054 10.0994 6.94444 9.86112 6.94444C8.09688 6.94444 6.66667 8.37464 6.66667 10.1389C6.66667 11.9031 8.09688 13.3333 9.86112 13.3333C10.0994 13.3333 10.3316 13.3072 10.5551 13.2577C9.95928 13.6564 9.24291 13.8889 8.47223 13.8889C6.40116 13.8889 4.72223 12.21 4.72223 10.1389C4.72223 8.06782 6.40116 6.38889 8.47223 6.38889C9.24291 6.38889 9.95928 6.62137 10.5551 7.02003Z" fill="#F5F7F8"/>
</g>
</svg>
