<svg width="72" height="72" viewBox="0 0 72 72" fill="none" xmlns="http://www.w3.org/2000/svg">
<mask id="mask0_17_7128" style="mask-type:alpha" maskUnits="userSpaceOnUse" x="0" y="0" width="72" height="72">
<circle cx="36" cy="36" r="36" transform="matrix(1 0 0 -1 0 72)" fill="#D9D9D9"/>
</mask>
<g mask="url(#mask0_17_7128)">
<rect x="-0.199951" width="72" height="72" fill="#004692"/>
<path d="M6.01163 11.0453L7.80008 7L9.58846 11.0453L13.8 11.5836L10.6937 14.6221L11.5083 19L7.80005 16.5L4.09178 19L4.90641 14.6221L1.80005 11.5836L6.01163 11.0453Z" fill="#F5F7F8"/>
<path d="M16.0116 21.0453L17.8001 17L19.5885 21.0453L23.8 21.5836L20.6937 24.6221L21.5083 29L17.8 26.5L14.0918 29L14.9064 24.6221L11.8 21.5836L16.0116 21.0453Z" fill="#F5F7F8"/>
<path d="M27.8001 27L26.0116 31.0453L21.8 31.5836L24.9064 34.6221L24.0918 39L27.8 36.5L31.5083 39L30.6937 34.6221L33.8 31.5836L29.5885 31.0453L27.8001 27Z" fill="#F5F7F8"/>
<path d="M36.0116 41.0453L37.8001 37L39.5885 41.0453L43.8 41.5836L40.6937 44.6221L41.5083 49L37.8 46.5L34.0918 49L34.9064 44.6221L31.8 41.5836L36.0116 41.0453Z" fill="#F5F7F8"/>
<path d="M47.8001 47L46.0116 51.0453L41.8 51.5836L44.9064 54.6221L44.0918 59L47.8 56.5L51.5083 59L50.6937 54.6221L53.8 51.5836L49.5885 51.0453L47.8001 47Z" fill="#F5F7F8"/>
<path d="M56.0116 61.0453L57.8001 57L59.5885 61.0453L63.8 61.5836L60.6937 64.6221L61.5083 69L57.8 66.5L54.0918 69L54.9064 64.6221L51.8 61.5836L56.0116 61.0453Z" fill="#F5F7F8"/>
<path d="M72 0V62L10 0H72Z" fill="#F1B434"/>
</g>
</svg>
