<svg width="20" height="20" viewBox="0 0 20 20" fill="none" xmlns="http://www.w3.org/2000/svg">
<mask id="mask0_11482_4375" style="mask-type:alpha" maskUnits="userSpaceOnUse" x="0" y="0" width="20" height="20">
<circle cx="10" cy="10" r="10" transform="matrix(1 0 0 -1 0 20)" fill="#D9D9D9"/>
</mask>
<g mask="url(#mask0_11482_4375)">
<rect x="-0.055542" width="20" height="20" fill="#004692"/>
<path d="M1.66988 3.06816L2.16668 1.94446L2.66345 3.06816L3.83333 3.21767L2.97046 4.06171L3.19674 5.27779L2.16667 4.58335L1.13659 5.27779L1.36288 4.06171L0.5 3.21767L1.66988 3.06816Z" fill="#F5F7F8"/>
<path d="M4.44766 5.84593L4.94445 4.72224L5.44123 5.84593L6.61111 5.99545L5.74823 6.83948L5.97452 8.05557L4.94444 7.36112L3.91437 8.05557L4.14066 6.83948L3.27778 5.99545L4.44766 5.84593Z" fill="#F5F7F8"/>
<path d="M7.72223 7.50001L7.22544 8.62371L6.05556 8.77322L6.91843 9.61726L6.69215 10.8333L7.72222 10.1389L8.7523 10.8333L8.52601 9.61726L9.38889 8.77322L8.219 8.62371L7.72223 7.50001Z" fill="#F5F7F8"/>
<path d="M10.0032 11.4015L10.5 10.2778L10.9968 11.4015L12.1667 11.551L11.3038 12.395L11.5301 13.6111L10.5 12.9167L9.46992 13.6111L9.69621 12.395L8.83333 11.551L10.0032 11.4015Z" fill="#F5F7F8"/>
<path d="M13.2778 13.0556L12.781 14.1793L11.6111 14.3288L12.474 15.1728L12.2477 16.3889L13.2778 15.6945L14.3079 16.3889L14.0816 15.1728L14.9444 14.3288L13.7746 14.1793L13.2778 13.0556Z" fill="#F5F7F8"/>
<path d="M15.5588 16.957L16.0556 15.8333L16.5523 16.957L17.7222 17.1066L16.8593 17.9506L17.0856 19.1667L16.0556 18.4722L15.0255 19.1667L15.2518 17.9506L14.3889 17.1066L15.5588 16.957Z" fill="#F5F7F8"/>
<path d="M20 7.62939e-06V17.2222L2.77777 7.62939e-06H20Z" fill="#F1B434"/>
</g>
</svg>
