<svg width="29" height="20" viewBox="0 0 29 20" fill="none" xmlns="http://www.w3.org/2000/svg">
<mask id="mask0_11482_4380" style="mask-type:alpha" maskUnits="userSpaceOnUse" x="0" y="0" width="29" height="20">
<rect width="29" height="20" fill="#D9D9D9"/>
</mask>
<g mask="url(#mask0_11482_4380)">
<rect width="29" height="20" fill="#004692"/>
<path d="M2.01857 -0.7819L2.73891 -2.40002L3.45924 -0.7819L5.15557 -0.5666L3.9044 0.648813L4.23251 2.39998L2.7389 1.39998L1.24529 2.39998L1.57341 0.648813L0.322235 -0.5666L2.01857 -0.7819Z" fill="#F5F7F8"/>
<path d="M6.04635 3.2181L6.76669 1.59998L7.48701 3.2181L9.18335 3.4334L7.93217 4.64881L8.26029 6.39997L6.76668 5.39998L5.27307 6.39997L5.60119 4.64881L4.35001 3.4334L6.04635 3.2181Z" fill="#F5F7F8"/>
<path d="M10.7945 5.59998L10.0741 7.2181L8.37779 7.4334L9.62896 8.64881L9.30085 10.4L10.7945 9.39997L12.2881 10.4L11.96 8.64881L13.2111 7.4334L11.5148 7.2181L10.7945 5.59998Z" fill="#F5F7F8"/>
<path d="M14.1019 11.2181L14.8222 9.59997L15.5426 11.2181L17.2389 11.4334L15.9877 12.6488L16.3158 14.4L14.8222 13.4L13.3286 14.4L13.6567 12.6488L12.4056 11.4334L14.1019 11.2181Z" fill="#F5F7F8"/>
<path d="M18.85 13.6L18.1297 15.2181L16.4333 15.4334L17.6845 16.6488L17.3564 18.4L18.85 17.4L20.3436 18.4L20.0155 16.6488L21.2667 15.4334L19.5703 15.2181L18.85 13.6Z" fill="#F5F7F8"/>
<path d="M22.1575 19.2181L22.8778 17.6L23.5981 19.2181L25.2945 19.4334L24.0433 20.6488L24.3714 22.4L22.8778 21.4L21.3842 22.4L21.7123 20.6488L20.4611 19.4334L22.1575 19.2181Z" fill="#F5F7F8"/>
<path d="M29 -4.40001V20.4L4.02777 -4.40001H29Z" fill="#F1B434"/>
</g>
</svg>
