<svg width="29" height="20" viewBox="0 0 29 20" fill="none" xmlns="http://www.w3.org/2000/svg">
<mask id="mask0_11482_4392" style="mask-type:alpha" maskUnits="userSpaceOnUse" x="0" y="0" width="29" height="20">
<rect width="29" height="20" fill="#D9D9D9"/>
</mask>
<g mask="url(#mask0_11482_4392)">
<rect x="29" y="20" width="29" height="20" transform="rotate(180 29 20)" fill="#004692"/>
<rect x="20.9444" y="20" width="12.8889" height="20" transform="rotate(180 20.9444 20)" fill="#F1B434"/>
<path d="M19.0698 4.94546L18.1629 4.49422C18.1083 4.60307 16.9241 7.0009 16.7307 10.6636H15.3523V4.94546L14.3384 3.60001L13.3244 4.94546V10.6636H11.946C11.7525 7.0009 10.5684 4.60307 10.5137 4.49422L8.70004 5.39677C8.71255 5.42155 9.9449 7.91802 9.9449 11.6727V12.6818H13.3245V16.8H15.3523V12.6818H18.7319V11.6727C18.7319 9.73146 19.0693 8.13077 19.3525 7.12976C19.6612 6.03822 19.9747 5.40075 19.9778 5.39441L19.0698 4.94546Z" fill="#31373D"/>
</g>
</svg>
