<svg width="72" height="72" viewBox="0 0 72 72" fill="none" xmlns="http://www.w3.org/2000/svg">
<mask id="mask0_17_7752" style="mask-type:alpha" maskUnits="userSpaceOnUse" x="0" y="0" width="72" height="72">
<circle cx="36" cy="36" r="36" fill="#D9D9D9"/>
</mask>
<g mask="url(#mask0_17_7752)">
<path d="M0 0L36 35L72 0V72L36 35L0 72V0Z" fill="#009B77"/>
<path d="M0 72L35 36L-3.14722e-06 0L72 -3.14722e-06L35 36L72 72L0 72Z" fill="#A00009"/>
<path d="M58.6001 6.00006L64.9641 12.364L52.5544 24.7737C54.7292 27.9743 56 31.8388 56 36C56 39.5707 55.0643 42.9228 53.4247 45.8246L66.2072 58.6071L59.8433 64.9711L47.3452 52.473C44.1215 54.6974 40.2129 56 36 56C31.8388 56 27.9743 54.7292 24.7737 52.5544L12.6186 64.7095L6.25464 58.3455L18.648 45.9521C16.9634 43.0212 16 39.6231 16 36C16 31.7871 17.3026 27.8784 19.527 24.6548L7.32445 12.4523L13.6884 6.08831L26.1754 18.5753C29.0772 16.9357 32.4293 16 36 16C39.6231 16 43.0212 16.9634 45.9521 18.648L58.6001 6.00006Z" fill="#F5F7F8"/>
<path d="M36.3999 21L34.6115 25.0453L30.3999 25.5836L33.5063 28.6221L32.6916 33L36.3999 30.5L40.1082 33L39.2935 28.6221L42.3999 25.5836L38.1883 25.0453L36.3999 21Z" fill="#A00009"/>
<path d="M26.3999 34L24.6115 38.0453L20.3999 38.5836L23.5063 41.6221L22.6916 46L26.3999 43.5L30.1082 46L29.2935 41.6221L32.3999 38.5836L28.1883 38.0453L26.3999 34Z" fill="#A00009"/>
<path d="M45.3999 34L43.6115 38.0453L39.3999 38.5836L42.5063 41.6221L41.6916 46L45.3999 43.5L49.1082 46L48.2935 41.6221L51.3999 38.5836L47.1883 38.0453L45.3999 34Z" fill="#A00009"/>
</g>
</svg>
