<svg width="29" height="20" viewBox="0 0 29 20" fill="none" xmlns="http://www.w3.org/2000/svg">
<mask id="mask0_11482_4461" style="mask-type:alpha" maskUnits="userSpaceOnUse" x="0" y="0" width="29" height="20">
<rect width="29" height="20" fill="#D9D9D9"/>
</mask>
<g mask="url(#mask0_11482_4461)">
<rect width="29" height="20" fill="#A00009"/>
<path d="M0 -4.39999L14.5 9.60001L29 -4.39999V24.4L14.5 9.60001L0 24.4V-4.39999Z" fill="#009B77"/>
<path d="M24.4083 -2.79999L26.9716 -0.254403L21.1677 5.50948C22.0436 6.78974 22.5555 8.33551 22.5555 10C22.5555 11.4283 22.1786 12.7691 21.5182 13.9298L28.1944 20.56L25.6312 23.1056L19.0695 16.5892C17.7711 17.479 16.1968 18 14.4999 18C12.8239 18 11.2674 17.4917 9.97821 16.6218L3.82635 22.7312L1.26309 20.1856L7.51094 13.9809C6.83241 12.8085 6.44437 11.4493 6.44437 10C6.44437 8.31485 6.96902 6.75139 7.86496 5.46193L2.10895 -0.254403L4.67221 -2.79999L10.5428 3.03015C11.7116 2.3743 13.0617 2.00001 14.4999 2.00001C15.9592 2.00001 17.3279 2.38538 18.5084 3.05923L24.4083 -2.79999Z" fill="#F5F7F8"/>
<path d="M14.6611 4L13.9407 5.61812L12.2444 5.83342L13.4956 7.04884L13.1674 8.8L14.6611 7.8L16.1547 8.8L15.8266 7.04884L17.0777 5.83342L15.3814 5.61812L14.6611 4Z" fill="#A00009"/>
<path d="M10.6333 9.2L9.91295 10.8181L8.21661 11.0334L9.46779 12.2488L9.13967 14L10.6333 13L12.1269 14L11.7988 12.2488L13.0499 11.0334L11.3536 10.8181L10.6333 9.2Z" fill="#A00009"/>
<path d="M18.2861 9.2L17.5657 10.8181L15.8694 11.0334L17.1206 12.2488L16.7924 14L18.2861 13L19.7797 14L19.4516 12.2488L20.7027 11.0334L19.0064 10.8181L18.2861 9.2Z" fill="#A00009"/>
</g>
</svg>
