<svg width="29" height="20" viewBox="0 0 29 20" fill="none" xmlns="http://www.w3.org/2000/svg">
<mask id="mask0_11482_4461" style="mask-type:alpha" maskUnits="userSpaceOnUse" x="0" y="0" width="29" height="20">
<rect width="29" height="20" fill="#D9D9D9"/>
</mask>
<g mask="url(#mask0_11482_4461)">
<rect width="29" height="20" fill="#A00009"/>
<path d="M0 3.05176e-05H4.5L14.5 9.60001L24.5 3.05176e-05H29V20H24.5L14.5 9.60001L4.24997 20H0V3.05176e-05Z" fill="#009B77"/>
<path d="M27.3281 20.0001H21.6713L1.67139 0.00012207L7.32812 0.000122278L27.3281 20.0001Z" fill="#F5F7F8"/>
<path d="M21.6715 0L27.3284 1.23055e-07L7.32836 20L1.67139 20L21.6715 0Z" fill="#F5F7F8"/>
<ellipse cx="14.5" cy="10" rx="8" ry="8" fill="#F5F7F8"/>
<path d="M14.5 4L15.2 5.28756L16.6651 5.25L15.9 6.5L16.6651 7.75L15.2 7.71244L14.5 9L13.8 7.71244L12.3349 7.75L13.1 6.5L12.3349 5.25L13.8 5.28756L14.5 4Z" fill="#A00009"/>
<path d="M10.5 9.99997L11.2 11.2875L12.6651 11.25L11.9 12.5L12.6651 13.75L11.2 13.7124L10.5 15L9.8 13.7124L8.33494 13.75L9.1 12.5L8.33494 11.25L9.8 11.2875L10.5 9.99997Z" fill="#A00009"/>
<path d="M18.5 9.99997L19.2 11.2875L20.6651 11.25L19.9 12.5L20.6651 13.75L19.2 13.7124L18.5 15L17.8 13.7124L16.3349 13.75L17.1 12.5L16.3349 11.25L17.8 11.2875L18.5 9.99997Z" fill="#A00009"/>
</g>
</svg>
