<svg width="20" height="20" viewBox="0 0 20 20" fill="none" xmlns="http://www.w3.org/2000/svg">
<mask id="mask0_11482_4455" style="mask-type:alpha" maskUnits="userSpaceOnUse" x="0" y="0" width="20" height="20">
<circle cx="10" cy="10" r="10" fill="#D9D9D9"/>
</mask>
<g mask="url(#mask0_11482_4455)">
<rect width="20" height="20" fill="#A00009"/>
<path d="M0 0L10 9.72222L20 0V20L10 9.72222L0 20V0Z" fill="#009B77"/>
<path d="M16.2778 1.66669L18.0456 3.43445L14.5984 6.88158C15.2025 7.77065 15.5556 8.8441 15.5556 10C15.5556 10.9919 15.2956 11.923 14.8402 12.729L18.3909 16.2798L16.6231 18.0475L13.1514 14.5758C12.256 15.1937 11.1702 15.5556 10 15.5556C8.84409 15.5556 7.77064 15.2025 6.88157 14.5985L3.50516 17.9749L1.7374 16.2071L5.18001 12.7645C4.71205 11.9503 4.44444 11.0064 4.44444 10C4.44444 8.82976 4.80627 7.74402 5.42416 6.84856L2.03457 3.45897L3.80233 1.6912L7.27095 5.15982C8.07699 4.70437 9.00814 4.44445 10 4.44445C11.0064 4.44445 11.9503 4.71206 12.7645 5.18001L16.2778 1.66669Z" fill="#F5F7F8"/>
<path d="M10.1111 5.83334L9.61429 6.95704L8.4444 7.10656L9.30728 7.95059L9.081 9.16668L10.1111 8.47223L11.1411 9.16668L10.9149 7.95059L11.7777 7.10656L10.6079 6.95704L10.1111 5.83334Z" fill="#A00009"/>
<path d="M7.3333 9.44445L6.83651 10.5682L5.66663 10.7177L6.5295 11.5617L6.30322 12.7778L7.33329 12.0833L8.36337 12.7778L8.13708 11.5617L8.99996 10.7177L7.83007 10.5682L7.3333 9.44445Z" fill="#A00009"/>
<path d="M12.6111 9.44445L12.1143 10.5682L10.9444 10.7177L11.8073 11.5617L11.581 12.7778L12.6111 12.0833L13.6411 12.7778L13.4149 11.5617L14.2777 10.7177L13.1079 10.5682L12.6111 9.44445Z" fill="#A00009"/>
</g>
</svg>
