<svg width="20" height="20" viewBox="0 0 20 20" fill="none" xmlns="http://www.w3.org/2000/svg">
<mask id="mask0_11482_4455" style="mask-type:alpha" maskUnits="userSpaceOnUse" x="0" y="0" width="20" height="20">
<circle cx="10" cy="10" r="10" fill="#D9D9D9"/>
</mask>
<g mask="url(#mask0_11482_4455)">
<rect width="20" height="20" fill="#A00009"/>
<path d="M0 0L10 9.72222L20 0V20L10 9.72222L0 20V0Z" fill="#009B77"/>
<path d="M16.2777 1.67001L18.0455 3.43778L14.5984 6.88491C15.2024 7.77398 15.5555 8.84743 15.5555 10.0033C15.5555 10.9952 15.2955 11.9263 14.8401 12.7324L18.3908 16.2831L16.623 18.0509L13.1513 14.5792C12.2559 15.1971 11.1702 15.5589 9.9999 15.5589C8.844 15.5589 7.77055 15.2059 6.88148 14.6018L3.50507 17.9782L1.7373 16.2104L5.17991 12.7678C4.71196 11.9537 4.44435 11.0098 4.44435 10.0033C4.44435 8.83308 4.80618 7.74734 5.42407 6.85189L2.03448 3.46229L3.80224 1.69453L7.27086 5.16315C8.0769 4.7077 9.00805 4.44777 9.9999 4.44777C11.0063 4.44777 11.9502 4.71539 12.7644 5.18334L16.2777 1.67001Z" fill="#F5F7F8"/>
<path d="M10.1 6L10.604 6.92705L11.6589 6.9L11.108 7.8L11.6589 8.7L10.604 8.67295L10.1 9.6L9.59605 8.67295L8.5412 8.7L9.09205 7.8L8.5412 6.9L9.59605 6.92705L10.1 6Z" fill="#A00009"/>
<path d="M7.3 9.69995L7.804 10.627L8.85885 10.6L8.308 11.5L8.85885 12.4L7.804 12.3729L7.3 13.3L6.796 12.3729L5.74115 12.4L6.292 11.5L5.74115 10.6L6.796 10.627L7.3 9.69995Z" fill="#A00009"/>
<path d="M12.7 9.69995L13.204 10.627L14.2588 10.6L13.708 11.5L14.2588 12.4L13.204 12.3729L12.7 13.3L12.196 12.3729L11.1411 12.4L11.692 11.5L11.1411 10.6L12.196 10.627L12.7 9.69995Z" fill="#A00009"/>
</g>
</svg>
