<svg width="72" height="72" viewBox="0 0 72 72" fill="none" xmlns="http://www.w3.org/2000/svg">
<mask id="mask0_18_8398" style="mask-type:alpha" maskUnits="userSpaceOnUse" x="0" y="0" width="72" height="72">
<circle cx="36" cy="36" r="36" fill="#D9D9D9"/>
</mask>
<g mask="url(#mask0_18_8398)">
<rect width="72" height="72" fill="#F1B434"/>
<rect x="-1.98364" y="23.2722" width="18" height="72" transform="rotate(-45 -1.98364 23.2722)" fill="#31373D"/>
<rect x="10.7444" y="10.5442" width="18" height="72" transform="rotate(-45 10.7444 10.5442)" fill="#F5F7F8"/>
<path fill-rule="evenodd" clip-rule="evenodd" d="M36.6001 18.6621C38.2988 16.7109 42.0143 13.9997 46.6001 20.0356C46.1651 20.6108 45.7368 21.1051 45.3165 21.5268C49.3635 24.4767 52 29.2976 52 34.7442C52 43.722 44.8366 51 36 51C27.1634 51 20 43.722 20 34.7442C20 29.5011 22.4432 24.8378 26.2359 21.8652C25.7034 21.3762 25.1572 20.7724 24.6001 20.0356C29.1859 13.9997 32.9014 16.7109 34.6001 18.6621L34.6001 8H36.6001L36.6001 18.6621ZM37.6001 22.314V43.5842C43.9141 42.7842 48.7999 37.3119 48.7999 30.6802C48.7999 27.1677 47.4293 23.9804 45.2017 21.6404C42.033 24.7317 39.3246 23.7218 37.6001 22.314ZM26.4324 22.041C29.414 24.638 31.9548 23.6571 33.6001 22.314L33.6001 43.4567C27.6779 42.3154 23.1999 37.0291 23.1999 30.6802C23.1999 27.3642 24.4215 24.3381 26.4324 22.041Z" fill="#DD2033"/>
<path d="M50 55V53H22V55H20V61H30V59H42V61H52V55H50Z" fill="#DD2033"/>
</g>
</svg>
