<svg width="20" height="20" viewBox="0 0 20 20" fill="none" xmlns="http://www.w3.org/2000/svg">
<mask id="mask0_11482_4529" style="mask-type:alpha" maskUnits="userSpaceOnUse" x="0" y="0" width="20" height="20">
<circle cx="10" cy="10" r="10" fill="#D9D9D9"/>
</mask>
<g mask="url(#mask0_11482_4529)">
<rect width="20" height="20" fill="#F1B434"/>
<rect x="-0.551025" y="6.46451" width="5" height="20" transform="rotate(-45 -0.551025 6.46451)" fill="#31373D"/>
<rect x="2.98456" y="2.92892" width="5" height="20" transform="rotate(-45 2.98456 2.92892)" fill="#F5F7F8"/>
<path fill-rule="evenodd" clip-rule="evenodd" d="M10.1667 5.18392C10.6386 4.64192 11.6706 3.88882 12.9445 5.56545C12.8236 5.72524 12.7047 5.86252 12.5879 5.97969C13.7121 6.79908 14.4444 8.13823 14.4444 9.65116C14.4444 12.145 12.4546 14.1667 9.99999 14.1667C7.54539 14.1667 5.55554 12.145 5.55554 9.65117C5.55554 8.19475 6.2342 6.89938 7.28774 6.07368C7.13981 5.93785 6.98811 5.77011 6.83335 5.56545C8.10717 3.88882 9.13925 4.64192 9.61112 5.18392L9.61112 2.22223H10.1667L10.1667 5.18392ZM10.4445 6.19834V12.1067C12.1983 11.8845 13.5555 10.3644 13.5555 8.52229C13.5555 7.54659 13.1748 6.66124 12.556 6.01123C11.6758 6.86992 10.9235 6.58939 10.4445 6.19834ZM7.34231 6.1225C8.17055 6.8439 8.87633 6.57141 9.33335 6.19834L9.33335 12.0713C7.6883 11.7543 6.44441 10.2859 6.44441 8.52229C6.44441 7.60117 6.78373 6.76058 7.34231 6.1225Z" fill="#DD2033"/>
<path d="M13.8889 15.2778V14.7222H6.1111V15.2778H5.55554V16.9445H8.33332V16.3889H11.6667V16.9445H14.4444V15.2778H13.8889Z" fill="#DD2033"/>
</g>
</svg>
