<svg width="29" height="20" viewBox="0 0 29 20" fill="none" xmlns="http://www.w3.org/2000/svg">
<mask id="mask0_11482_4535" style="mask-type:alpha" maskUnits="userSpaceOnUse" x="0" y="0" width="29" height="20">
<rect width="29" height="20" fill="#D9D9D9"/>
</mask>
<g mask="url(#mask0_11482_4535)">
<rect width="29" height="20" fill="#F1B434"/>
<rect width="7.22504" height="32.1647" transform="matrix(0.709549 -0.704656 0.709549 0.704656 -3.11536 2.60849)" fill="#31373D"/>
<rect width="7.22504" height="31.9962" transform="matrix(0.709549 -0.704656 0.709549 0.704656 4.32758 -0.182343)" fill="#F5F7F8"/>
<path fill-rule="evenodd" clip-rule="evenodd" d="M14.6662 4.97734C15.1366 4.43248 16.1654 3.6754 17.4353 5.36088C17.3148 5.52151 17.1962 5.65953 17.0798 5.77731C18.2005 6.60103 18.9306 7.94726 18.9306 9.46818C18.9306 11.9752 16.9469 14.0075 14.5 14.0075C12.0531 14.0075 10.0695 11.9752 10.0695 9.46818C10.0695 8.00408 10.746 6.70186 11.7962 5.8718C11.6488 5.73525 11.4975 5.56662 11.3433 5.36088C12.6131 3.6754 13.642 4.43248 14.1124 4.97734V2H14.6662L14.6662 4.97734ZM14.9431 5.99712V11.9367C16.6915 11.7133 18.0444 10.1852 18.0444 8.33334C18.0444 7.35249 17.6649 6.46246 17.0481 5.80901C16.1706 6.67224 15.4206 6.39023 14.9431 5.99712ZM11.8506 5.92087C12.6763 6.64609 13.3799 6.37216 13.8355 5.99712L13.8355 11.9011C12.1956 11.5824 10.9555 10.1062 10.9555 8.33334C10.9555 7.40736 11.2938 6.56232 11.8506 5.92087Z" fill="#DD2033"/>
<path d="M18.3768 15.1245V14.566H10.6233V15.1245H10.0695V16.8H12.8386V16.2415H16.1615V16.8H18.9306V15.1245H18.3768Z" fill="#DD2033"/>
</g>
</svg>
