<svg width="72" height="72" viewBox="0 0 72 72" fill="none" xmlns="http://www.w3.org/2000/svg">
<mask id="mask0_19_8678" style="mask-type:alpha" maskUnits="userSpaceOnUse" x="0" y="0" width="72" height="72">
<circle cx="36" cy="36" r="36" fill="#D9D9D9"/>
</mask>
<g mask="url(#mask0_19_8678)">
<rect x="0.00012207" y="72.0001" width="22" height="72" transform="rotate(-90 0.00012207 72.0001)" fill="#009B77"/>
<rect y="50" width="28" height="72" transform="rotate(-90 0 50)" fill="#FBD381"/>
<rect y="22" width="22" height="72" transform="rotate(-90 0 22)" fill="#DD2033"/>
<path d="M35.998 38.5L33.3999 37L27.3999 47.3923L29.998 48.8923L35.998 38.5Z" fill="#936846"/>
<path d="M36.4 38.5L38.998 37L44.998 47.3923L42.4 48.8923L36.4 38.5Z" fill="#936846"/>
<path d="M30 33L17 30V41.3376C17 43.7891 19.1852 45.6638 21.6082 45.291L30 44V33Z" fill="#DD2033"/>
<path d="M42 33L55 30V41.3376C55 43.7891 52.8148 45.6638 50.3918 45.291L42 44V33Z" fill="#DD2033"/>
<path d="M20 28L33 31V42L24.6082 43.291C22.1852 43.6638 20 41.7891 20 39.3376V28Z" fill="#A00009"/>
<path d="M52 28L39 31V42L47.3918 43.291C49.8148 43.6638 52 41.7891 52 39.3376V28Z" fill="#A00009"/>
<path d="M23 26L36 29L49 26V37.3376C49 39.7891 46.8148 41.6638 44.3918 41.291L36 40L27.6082 41.291C25.1852 41.6638 23 39.7891 23 37.3376V26Z" fill="#DD2033"/>
<path d="M29.7671 41.123L36 40L42.2329 41.123C44.7383 41.5745 47.0224 39.6015 46.9401 37.057L46.6001 26.5538L36 29L25.3999 26.5538L25.0599 37.057C24.9775 39.6015 27.2616 41.5745 29.7671 41.123Z" fill="#F1B434"/>
<mask id="mask1_19_8678" style="mask-type:alpha" maskUnits="userSpaceOnUse" x="29" y="26" width="14" height="20">
<ellipse cx="36" cy="36" rx="7" ry="10" fill="#D9D9D9"/>
</mask>
<g mask="url(#mask1_19_8678)">
<path d="M42.5882 44.218C41.0633 46.3965 38.7647 48 36 48C33.2353 48 30.9367 46.3965 29.4118 44.218C27.8824 42.0332 27 39.1214 27 36C27 32.8786 27.8824 29.9668 29.4118 27.782C30.9367 25.6035 33.2353 24 36 24C38.7647 24 41.0633 25.6035 42.5882 27.782C44.1176 29.9668 45 32.8786 45 36C45 39.1214 44.1176 42.0332 42.5882 44.218Z" fill="#FBD381"/>
<path d="M33.8099 35.4331C35.1402 34.5626 36.8598 34.5626 38.1901 35.4331L44.6901 39.6862C48.0167 41.8629 46.4754 47.0333 42.5 47.0333H29.5C25.5246 47.0333 23.9833 41.8629 27.3099 39.6862L33.8099 35.4331Z" fill="#008259"/>
</g>
<path fill-rule="evenodd" clip-rule="evenodd" d="M42.5882 44.218C41.0633 46.3965 38.7647 48 36 48C33.2353 48 30.9367 46.3965 29.4118 44.218C27.8824 42.0332 27 39.1214 27 36C27 32.8786 27.8824 29.9668 29.4118 27.782C30.9367 25.6035 33.2353 24 36 24C38.7647 24 41.0633 25.6035 42.5882 27.782C44.1176 29.9668 45 32.8786 45 36C45 39.1214 44.1176 42.0332 42.5882 44.218ZM36 46C39.866 46 43 41.5228 43 36C43 30.4772 39.866 26 36 26C32.134 26 29 30.4772 29 36C29 41.5228 32.134 46 36 46Z" fill="#005EB8"/>
</g>
</svg>
