<svg width="20" height="20" viewBox="0 0 20 20" fill="none" xmlns="http://www.w3.org/2000/svg">
<mask id="mask0_11482_4543" style="mask-type:alpha" maskUnits="userSpaceOnUse" x="0" y="0" width="20" height="20">
<circle cx="10" cy="10" r="10" fill="#D9D9D9"/>
</mask>
<g mask="url(#mask0_11482_4543)">
<rect x="0.00012207" y="20" width="6.11111" height="20" transform="rotate(-90 0.00012207 20)" fill="#009B77"/>
<rect y="13.8889" width="7.77778" height="20" transform="rotate(-90 0 13.8889)" fill="#FBD381"/>
<rect y="6.11111" width="6.11111" height="20" transform="rotate(-90 0 6.11111)" fill="#DD2033"/>
<path d="M9.99944 10.6944L9.27775 10.2778L7.61108 13.1645L8.33277 13.5812L9.99944 10.6944Z" fill="#936846"/>
<path d="M10.1111 10.6944L10.8328 10.2778L12.4995 13.1645L11.7778 13.5812L10.1111 10.6944Z" fill="#936846"/>
<path d="M8.33334 9.16666L4.72223 8.33333V11.4826C4.72223 12.1636 5.32923 12.6844 6.00229 12.5808L8.33334 12.2222V9.16666Z" fill="#DD2033"/>
<path d="M11.6667 9.16666L15.2778 8.33333V11.4826C15.2778 12.1636 14.6708 12.6844 13.9977 12.5808L11.6667 12.2222V9.16666Z" fill="#DD2033"/>
<path d="M5.55554 7.77777L9.16665 8.6111V11.6667L6.83561 12.0253C6.16254 12.1288 5.55554 11.6081 5.55554 10.9271V7.77777Z" fill="#A00009"/>
<path d="M14.4444 7.77777L10.8333 8.6111V11.6667L13.1644 12.0253C13.8374 12.1288 14.4444 11.6081 14.4444 10.9271V7.77777Z" fill="#A00009"/>
<path d="M6.38892 7.22223L10 8.05556L13.6111 7.22223V10.3715C13.6111 11.0525 13.0041 11.5733 12.3311 11.4697L10 11.1111L7.66898 11.4697C6.99591 11.5733 6.38892 11.0525 6.38892 10.3715V7.22223Z" fill="#DD2033"/>
<path d="M8.26867 11.4231L10 11.1111L11.7314 11.4231C12.4273 11.5485 13.0618 11.0004 13.0389 10.2936L12.9445 7.37607L10 8.05556L7.05555 7.37607L6.96111 10.2936C6.93823 11.0004 7.5727 11.5485 8.26867 11.4231Z" fill="#F1B434"/>
<mask id="mask1_11482_4543" style="mask-type:alpha" maskUnits="userSpaceOnUse" x="8" y="7" width="4" height="6">
<ellipse cx="9.99999" cy="10" rx="1.94444" ry="2.77778" fill="#D9D9D9"/>
</mask>
<g mask="url(#mask1_11482_4543)">
<path d="M11.8301 12.2828C11.4065 12.8879 10.768 13.3333 10 13.3333C9.23201 13.3333 8.59354 12.8879 8.16994 12.2828C7.74512 11.6759 7.5 10.8671 7.5 10C7.5 9.13294 7.74512 8.32412 8.16994 7.71723C8.59354 7.11209 9.23201 6.66667 10 6.66667C10.768 6.66667 11.4065 7.11209 11.8301 7.71723C12.2549 8.32412 12.5 9.13294 12.5 10C12.5 10.8671 12.2549 11.6759 11.8301 12.2828Z" fill="#FBD381"/>
<path d="M9.09691 10.0354C9.64545 9.67643 10.3545 9.67643 10.903 10.0354C12.2747 10.9329 11.6392 13.0648 9.99997 13.0648C8.36077 13.0648 7.72525 10.9329 9.09691 10.0354Z" fill="#008259"/>
</g>
<path fill-rule="evenodd" clip-rule="evenodd" d="M11.8301 12.2828C11.4065 12.8879 10.768 13.3333 10 13.3333C9.23201 13.3333 8.59354 12.8879 8.16994 12.2828C7.74512 11.6759 7.5 10.8671 7.5 10C7.5 9.13294 7.74512 8.32412 8.16994 7.71723C8.59354 7.11209 9.23201 6.66667 10 6.66667C10.768 6.66667 11.4065 7.11209 11.8301 7.71723C12.2549 8.32412 12.5 9.13294 12.5 10C12.5 10.8671 12.2549 11.6759 11.8301 12.2828ZM10 12.7778C11.0739 12.7778 11.9444 11.5341 11.9444 10C11.9444 8.46588 11.0739 7.22223 10 7.22223C8.92611 7.22223 8.05556 8.46588 8.05556 10C8.05556 11.5341 8.92611 12.7778 10 12.7778Z" fill="#005EB8"/>
</g>
</svg>
