<svg width="29" height="20" viewBox="0 0 29 20" fill="none" xmlns="http://www.w3.org/2000/svg">
<mask id="mask0_11482_4558" style="mask-type:alpha" maskUnits="userSpaceOnUse" x="0" y="0" width="29" height="20">
<rect width="29" height="20" fill="#D9D9D9"/>
</mask>
<g mask="url(#mask0_11482_4558)">
<rect y="20" width="4.4" height="29" transform="rotate(-90 0 20)" fill="#009B77"/>
<rect y="15.6" width="11.2" height="29" transform="rotate(-90 0 15.6)" fill="#FBD381"/>
<rect y="4.39999" width="4.4" height="29" transform="rotate(-90 0 4.39999)" fill="#DD2033"/>
<path d="M14.4992 11L13.4527 10.4L11.0361 14.5569L12.0825 15.1569L14.4992 11Z" fill="#936846"/>
<path d="M14.6611 11L15.7075 10.4L18.1242 14.5569L17.0778 15.1569L14.6611 11Z" fill="#936846"/>
<path d="M12.0833 8.80001L6.84723 7.60001V12.135C6.84723 13.1156 7.72738 13.8655 8.70332 13.7164L12.0833 13.2V8.80001Z" fill="#DD2033"/>
<path d="M16.9167 8.80001L22.1528 7.60001V12.135C22.1528 13.1156 21.2726 13.8655 20.2967 13.7164L16.9167 13.2V8.80001Z" fill="#DD2033"/>
<path d="M8.05554 6.8L13.2917 8V12.4L9.91163 12.9164C8.93569 13.0655 8.05554 12.3156 8.05554 11.335V6.8Z" fill="#A00009"/>
<path d="M20.9444 6.8L15.7083 8V12.4L19.0883 12.9164C20.0643 13.0655 20.9444 12.3156 20.9444 11.335V6.8Z" fill="#A00009"/>
<path d="M9.26392 6L14.5 7.2L19.7361 6V10.535C19.7361 11.5156 18.856 12.2655 17.88 12.1164L14.5 11.6L11.12 12.1164C10.1441 12.2655 9.26392 11.5156 9.26392 10.535V6Z" fill="#DD2033"/>
<path d="M11.9896 12.0492L14.5001 11.6L17.0105 12.0492C18.0197 12.2298 18.9397 11.4406 18.9065 10.4228L18.7696 6.22153L14.5001 7.2L10.2306 6.22153L10.0936 10.4228C10.0605 11.4406 10.9805 12.2298 11.9896 12.0492Z" fill="#F1B434"/>
<mask id="mask1_11482_4558" style="mask-type:alpha" maskUnits="userSpaceOnUse" x="11" y="6" width="7" height="8">
<ellipse cx="14.5" cy="10" rx="2.81944" ry="4" fill="#D9D9D9"/>
</mask>
<g mask="url(#mask1_11482_4558)">
<path d="M17.1536 13.2872C16.5394 14.1586 15.6136 14.8 14.5 14.8C13.3864 14.8 12.4606 14.1586 11.8464 13.2872C11.2304 12.4133 10.875 11.2486 10.875 10C10.875 8.75142 11.2304 7.58672 11.8464 6.7128C12.4606 5.8414 13.3864 5.2 14.5 5.2C15.6136 5.2 16.5394 5.8414 17.1536 6.7128C17.7696 7.58672 18.125 8.75142 18.125 10C18.125 11.2486 17.7696 12.4133 17.1536 13.2872Z" fill="#FBD381"/>
<path d="M13.2044 10.0419C13.9923 9.52992 15.0077 9.52992 15.7955 10.0419C17.7803 11.3316 16.867 14.4133 14.5 14.4133C12.133 14.4133 11.2196 11.3316 13.2044 10.0419Z" fill="#008259"/>
</g>
<path fill-rule="evenodd" clip-rule="evenodd" d="M17.1536 13.2872C16.5394 14.1586 15.6136 14.8 14.5 14.8C13.3864 14.8 12.4606 14.1586 11.8464 13.2872C11.2304 12.4133 10.875 11.2486 10.875 10C10.875 8.75142 11.2304 7.58672 11.8464 6.7128C12.4606 5.8414 13.3864 5.2 14.5 5.2C15.6136 5.2 16.5394 5.8414 17.1536 6.7128C17.7696 7.58672 18.125 8.75142 18.125 10C18.125 11.2486 17.7696 12.4133 17.1536 13.2872ZM14.5 14C16.0571 14 17.3194 12.2091 17.3194 10C17.3194 7.79086 16.0571 6 14.5 6C12.9429 6 11.6806 7.79086 11.6806 10C11.6806 12.2091 12.9429 14 14.5 14Z" fill="#005EB8"/>
</g>
</svg>
