<svg width="72" height="72" viewBox="0 0 72 72" fill="none" xmlns="http://www.w3.org/2000/svg">
<mask id="mask0_19_9098" style="mask-type:alpha" maskUnits="userSpaceOnUse" x="0" y="0" width="72" height="72">
<circle cx="36" cy="36" r="36" fill="#D9D9D9"/>
</mask>
<g mask="url(#mask0_19_9098)">
<rect width="72" height="72" fill="#008259"/>
<path d="M36 14L66 36L36 58L6 36L36 14Z" fill="#F1B434"/>
<path d="M36.5 50C43.9558 50 50 43.732 50 36C50 28.268 43.9558 22 36.5 22C29.0442 22 23 28.268 23 36C23 43.732 29.0442 50 36.5 50Z" fill="#004692"/>
<path d="M23.2017 33.5759C24.9142 33.1983 26.6871 33 28.5 33C36.4347 33 43.6024 36.7985 48.3031 42.8006C49.2199 41.093 49.8021 39.1658 49.9579 37.1142C44.4473 31.4797 36.8671 28 28.5 28C27.4216 28 26.3563 28.0578 25.3068 28.1706C24.2656 29.7683 23.5341 31.601 23.2017 33.5759Z" fill="#F5F7F8"/>
</g>
</svg>
