<svg width="29" height="20" viewBox="0 0 29 20" fill="none" xmlns="http://www.w3.org/2000/svg">
<mask id="mask0_11482_4592" style="mask-type:alpha" maskUnits="userSpaceOnUse" x="0" y="0" width="29" height="20">
<rect width="29" height="20" fill="#D9D9D9"/>
</mask>
<g mask="url(#mask0_11482_4592)">
<rect width="29" height="20" fill="#008259"/>
<path d="M14.5 1.2L26.5833 10L14.5 18.8L2.41666 10L14.5 1.2Z" fill="#F1B434"/>
<path d="M14.7014 15.6C17.7044 15.6 20.1389 13.0928 20.1389 9.99999C20.1389 6.9072 17.7044 4.39999 14.7014 4.39999C11.6983 4.39999 9.26389 6.9072 9.26389 9.99999C9.26389 13.0928 11.6983 15.6 14.7014 15.6Z" fill="#004692"/>
<path d="M9.34512 9.03034C10.0349 8.87932 10.749 8.8 11.4792 8.8C14.6751 8.8 17.5621 10.3194 19.4554 12.7202C19.8247 12.0372 20.0592 11.2663 20.1219 10.4457C17.9024 8.19187 14.8493 6.8 11.4792 6.8C11.0448 6.8 10.6158 6.82312 10.193 6.86823C9.77366 7.50733 9.47902 8.24039 9.34512 9.03034Z" fill="#F5F7F8"/>
</g>
</svg>
