<svg width="20" height="20" viewBox="0 0 20 20" fill="none" xmlns="http://www.w3.org/2000/svg">
<mask id="mask0_11482_4586" style="mask-type:alpha" maskUnits="userSpaceOnUse" x="0" y="0" width="20" height="20">
<circle cx="10" cy="10" r="10" fill="#D9D9D9"/>
</mask>
<g mask="url(#mask0_11482_4586)">
<rect width="20" height="20" fill="#008259"/>
<path d="M9.99999 3.88889L18.3333 10L9.99999 16.1111L1.66666 10L9.99999 3.88889Z" fill="#F1B434"/>
<path d="M10.1389 13.8889C12.21 13.8889 13.8889 12.1478 13.8889 10C13.8889 7.85223 12.21 6.11111 10.1389 6.11111C8.06782 6.11111 6.38889 7.85223 6.38889 10C6.38889 12.1478 8.06782 13.8889 10.1389 13.8889Z" fill="#004692"/>
<path d="M6.44492 9.32662C6.92063 9.22174 7.41309 9.16666 7.91668 9.16666C10.1208 9.16666 12.1118 10.2218 13.4175 11.889C13.6722 11.4147 13.8339 10.8794 13.8772 10.3095C12.3465 8.74434 10.2409 7.77777 7.91668 7.77777C7.61713 7.77777 7.32121 7.79383 7.02969 7.82515C6.74046 8.26897 6.53726 8.77804 6.44492 9.32662Z" fill="#F5F7F8"/>
</g>
</svg>
