<svg width="72" height="72" viewBox="0 0 72 72" fill="none" xmlns="http://www.w3.org/2000/svg">
<mask id="mask0_19_9309" style="mask-type:alpha" maskUnits="userSpaceOnUse" x="0" y="0" width="72" height="72">
<circle cx="36" cy="36" r="36" fill="#D9D9D9"/>
</mask>
<g mask="url(#mask0_19_9309)">
<rect width="72" height="72" fill="#E26E00"/>
<path d="M-0.399905 0L-0.399902 72L71.6001 -3.14722e-06L-0.399905 0Z" fill="#F1B434"/>
<path d="M43.1439 14.3084C39.0116 13.4155 35.4589 17.3246 36.7416 21.353L40.2854 32.4832L29.318 30.311C25.9175 29.6375 22.7495 32.2396 22.7495 35.7062V40.9829L13.8895 45.9465L17.3108 52.0535L23.1002 48.8101V55H30.1002V48.4976L33.6376 48.9693L34.5627 42.0307L29.7495 41.3889V37.5324L39.115 39.3874L38.4122 41.4958C37.4517 44.3775 39.009 47.4923 41.8907 48.4528L50.4934 51.3204L52.707 44.6796L45.5273 42.2864L47.1228 37.5H55.1002V30.5H47.0002L44.1975 21.6976L55.8609 24.2177L57.3393 17.3756L43.1439 14.3084Z" fill="#F5F7F8"/>
</g>
</svg>
