<svg width="20" height="20" viewBox="0 0 20 20" fill="none" xmlns="http://www.w3.org/2000/svg">
<mask id="mask0_11482_4612" style="mask-type:alpha" maskUnits="userSpaceOnUse" x="0" y="0" width="20" height="20">
<circle cx="10" cy="10" r="10" fill="#D9D9D9"/>
</mask>
<g mask="url(#mask0_11482_4612)">
<rect width="20" height="20" fill="#E26E00"/>
<path d="M-0.111085 0L-0.111084 20L19.8889 -8.74228e-07L-0.111085 0Z" fill="#F1B434"/>
<path d="M11.9844 3.97455C10.8365 3.72654 9.8497 4.81239 10.206 5.93139L11.1904 9.02311L8.1439 8.41971C7.19931 8.23263 6.3193 8.95544 6.3193 9.91838V11.3841L3.85818 12.7629L4.80855 14.4593L6.41671 13.5584V15.2778H8.36116V13.4716L9.34377 13.6026L9.60076 11.6752L8.26374 11.4969V10.4257L10.8653 10.9409L10.6701 11.5266C10.4032 12.3271 10.8358 13.1923 11.6363 13.4591L14.0259 14.2557L14.6408 12.411L12.6465 11.7462L13.0897 10.4167H15.3056V8.47222H13.0556L12.2771 6.02711L15.5169 6.72713L15.9276 4.82654L11.9844 3.97455Z" fill="#F5F7F8"/>
</g>
</svg>
