<svg width="29" height="20" viewBox="0 0 29 20" fill="none" xmlns="http://www.w3.org/2000/svg">
<mask id="mask0_11482_4617" style="mask-type:alpha" maskUnits="userSpaceOnUse" x="0" y="0" width="29" height="20">
<rect width="29" height="20" fill="#D9D9D9"/>
</mask>
<g mask="url(#mask0_11482_4617)">
<rect width="29" height="20" fill="#E26E00"/>
<path d="M-0.161073 -4.40001L-0.161072 24.4L28.8389 -4.40001L-0.161073 -4.40001Z" fill="#F1B434"/>
<path d="M17.3774 1.72336C15.713 1.36622 14.282 2.92984 14.7987 4.5412L16.226 8.99327L11.8086 8.12439C10.439 7.85498 9.16296 8.89584 9.16296 10.2825V12.3932L5.59435 14.3786L6.97237 16.8214L9.30421 15.524V18H12.1237V15.3991L13.5484 15.5877L13.9211 12.8123L11.9824 12.5556V11.013L15.7546 11.7549L15.4716 12.5983C15.0847 13.751 15.712 14.9969 16.8726 15.3811L20.3376 16.5282L21.2292 13.8718L18.3374 12.9146L18.98 11H22.1931V8.2H18.9306L17.8018 4.67904L22.4995 5.68707L23.095 2.95022L17.3774 1.72336Z" fill="#F5F7F8"/>
</g>
</svg>
