<svg width="72" height="72" viewBox="0 0 72 72" fill="none" xmlns="http://www.w3.org/2000/svg">
<mask id="mask0_19_9429" style="mask-type:alpha" maskUnits="userSpaceOnUse" x="0" y="0" width="72" height="72">
<circle cx="36" cy="36" r="36" fill="#D9D9D9"/>
</mask>
<g mask="url(#mask0_19_9429)">
<rect width="72" height="72" fill="#DD2033"/>
<path fill-rule="evenodd" clip-rule="evenodd" d="M20.3999 72H14.3999L14.3999 47.6999H0.399902V41.7H14.3999L14.3999 30.3H0.399902V24.3001H14.3999L14.3999 0H20.3999L20.3999 24.3001H31.7998L31.7998 0H37.7998L37.7998 24.3001H72.3999V30.3L37.7998 30.3V41.7L72.3999 41.7V47.7L37.7998 47.6999L37.7998 72H31.7998L31.7998 47.6999H20.3999L20.3999 72ZM31.7998 30.3H20.3999L20.3999 41.7H31.7998L31.7998 30.3Z" fill="#F5F7F8"/>
<path d="M20 72H32L32 42L72 42V30L32 30L32 0H20L20 30L0 30V42H20L20 72Z" fill="#004692"/>
</g>
</svg>
