<svg width="72" height="72" viewBox="0 0 72 72" fill="none" xmlns="http://www.w3.org/2000/svg">
<mask id="mask0_34_2016" style="mask-type:alpha" maskUnits="userSpaceOnUse" x="0" y="0" width="72" height="72">
<circle cx="36" cy="36" r="36" fill="#D9D9D9"/>
</mask>
<g mask="url(#mask0_34_2016)">
<rect width="72" height="72" fill="#F5F7F8"/>
<path d="M0 42L-1.90735e-06 3.8147e-06L72 0V42H0Z" fill="#A00009"/>
<path d="M-1.90735e-06 3.8147e-06L24 0V72H0L-1.90735e-06 3.8147e-06Z" fill="#F5F7F8"/>
<path fill-rule="evenodd" clip-rule="evenodd" d="M4.99997 -24L14.7254 -6.71039L9.96875 1.74585L5.35785 -6.45131L0.999971 -4L7.10038 6.84517L2.0625 15.8014L1.35785 14.5487L-3.00003 17L-0.805869 20.9007L-7.35785 32.5487L-2.99997 35L2.0625 26L7.10038 34.9563L2.0625 43.9125L-2.64215 35.5487L-7.00003 38L-0.805869 49.0118L-3.35785 53.5487L1.00003 56L2.0625 54.1112L7.10038 63.0674L0.642151 74.5487L5.00003 77L9.96875 68.1667L14.7566 76.6785L8.64215 87.5487L13 90L17.625 81.7778L20 86L24.3578 83.5487L20.4934 76.6785L40 42L35.6422 39.5487L25.5312 57.5236L20.7434 49.0118L25.7812 40.0556L28 44L32.3578 41.5487L28.6496 34.9563L32 29L27.6422 26.5487L25.7812 29.857L20.7434 20.9007L25.5 12.4445L32 24L36.3578 21.5487L20.4621 -6.71039L24 -13L19.6422 -15.4513L17.5938 -11.8097L9.35785 -26.4513L4.99997 -24ZM22.6629 62.6229L17.875 54.1112L12.8371 63.0674L17.625 71.5792L22.6629 62.6229ZM15.0066 49.0118L9.96875 57.9681L4.93087 49.0118L9.96875 40.0556L15.0066 49.0118ZM22.9129 34.9563L17.875 43.9125L12.8371 34.9563L17.875 26L22.9129 34.9563ZM15.0066 20.9007L9.96875 29.857L4.93087 20.9007L9.96875 11.9445L15.0066 20.9007ZM22.6316 7.34517L17.875 15.8014L12.8371 6.84517L17.5938 -1.61106L22.6316 7.34517Z" fill="#A00009"/>
<rect x="24" y="72" width="30" height="48" transform="rotate(-90 24 72)" fill="#008259"/>
</g>
</svg>
