<svg width="29" height="20" viewBox="0 0 29 20" fill="none" xmlns="http://www.w3.org/2000/svg">
<mask id="mask0_11482_4653" style="mask-type:alpha" maskUnits="userSpaceOnUse" x="0" y="0" width="29" height="20">
<rect width="29" height="20" fill="#D9D9D9"/>
</mask>
<g mask="url(#mask0_11482_4653)">
<rect width="29" height="20" fill="#F5F7F8"/>
<path d="M-4.50611e-05 12.4L-4.57764e-05 -4.4L29 -4.4V12.4H-4.50611e-05Z" fill="#A00009"/>
<path d="M-4.57764e-05 -4.4L9.66662 -4.4V24.4H-4.50611e-05L-4.57764e-05 -4.4Z" fill="#F5F7F8"/>
<path fill-rule="evenodd" clip-rule="evenodd" d="M2.01383 -14L5.93101 -7.08415L4.01515 -3.70166L2.15798 -6.98052L0.402721 -6L2.85983 -1.66193L0.830684 1.92056L0.546866 1.41948L-1.20839 2.4L-0.324631 3.96029L-2.96362 8.61948L-1.20837 9.6L0.830684 6.00002L2.85983 9.58251L0.830684 13.165L-1.06424 9.81948L-2.8195 10.8L-0.324631 15.2047L-1.35251 17.0195L0.402744 18L0.830684 17.2445L2.85983 20.827L0.258599 25.4195L2.01386 26.4L4.01514 22.8667L5.9436 26.2714L3.48082 30.6195L5.23608 31.6L7.09891 28.3111L8.0555 30L9.81075 29.0195L8.25423 26.2714L16.1111 12.4L14.3558 11.4195L10.2834 18.6095L8.35492 15.2047L10.3841 11.6222L11.2777 13.2L13.033 12.2195L11.5394 9.58251L12.8889 7.2L11.1336 6.21948L10.3841 7.54279L8.35492 3.96029L10.2708 0.577797L12.8888 5.2L14.6441 4.21948L8.24164 -7.08415L9.66663 -9.6L7.91138 -10.5805L7.08633 -9.12388L3.76909 -14.9805L2.01383 -14ZM9.12806 20.6492L7.19961 17.2445L5.17046 20.827L7.09891 24.2317L9.12806 20.6492ZM6.04429 15.2047L4.01515 18.7872L1.986 15.2047L4.01515 11.6222L6.04429 15.2047ZM9.22875 9.58251L7.19961 13.165L5.17046 9.58251L7.19961 6.00002L9.22875 9.58251ZM6.04429 3.96029L4.01515 7.54279L1.986 3.96029L4.01515 0.377799L6.04429 3.96029ZM9.11547 -1.46193L7.19961 1.92056L5.17046 -1.66193L7.08633 -5.04442L9.11547 -1.46193Z" fill="#A00009"/>
<rect x="9.66669" y="20" width="7.6" height="19.3333" transform="rotate(-90 9.66669 20)" fill="#008259"/>
</g>
</svg>
