<svg width="20" height="20" viewBox="0 0 20 20" fill="none" xmlns="http://www.w3.org/2000/svg">
<mask id="mask0_11482_4648" style="mask-type:alpha" maskUnits="userSpaceOnUse" x="0" y="0" width="20" height="20">
<circle cx="10" cy="10" r="10" fill="#D9D9D9"/>
</mask>
<g mask="url(#mask0_11482_4648)">
<rect width="20" height="20" fill="#F5F7F8"/>
<path d="M2.36034e-05 11.6667L2.31266e-05 -4.76837e-07L20 -1.43051e-06V11.6667H2.36034e-05Z" fill="#A00009"/>
<path d="M2.31266e-05 -4.76837e-07L6.66669 -1.43051e-06V20H2.36034e-05L2.31266e-05 -4.76837e-07Z" fill="#F5F7F8"/>
<path fill-rule="evenodd" clip-rule="evenodd" d="M1.3889 -6.66667L4.09041 -1.864L2.76912 0.484956L1.48831 -1.79203L0.277793 -1.11111L1.97235 1.90143L0.57294 4.38928L0.377204 4.0413L-0.833318 4.72222L-0.223829 5.80576L-2.04382 9.0413L-0.833302 9.72222L0.57294 7.22223L1.97235 9.71008L0.57294 12.1979L-0.733907 9.87464L-1.94443 10.5556L-0.223829 13.6144L-0.932712 14.8746L0.277809 15.5556L0.57294 15.0309L1.97235 17.5187L0.178399 20.708L1.38892 21.3889L2.76912 18.9352L4.09909 21.2996L2.40062 24.3191L3.61114 25L4.89586 22.7161L5.55557 23.8889L6.76609 23.208L5.69263 21.2996L11.1111 11.6667L9.90062 10.9857L7.09204 15.9788L5.76207 13.6144L7.16148 11.1266L7.77779 12.2222L8.98831 11.5413L7.95825 9.71008L8.88892 8.05555L7.6784 7.37464L7.16148 8.2936L5.76207 5.80576L7.08336 3.4568L8.8889 6.66666L10.0994 5.98575L5.68395 -1.864L6.6667 -3.61111L5.45618 -4.29203L4.88718 -3.28048L2.59943 -7.34759L1.3889 -6.66667ZM6.29527 17.3953L4.9653 15.0309L3.56589 17.5187L4.89586 19.8831L6.29527 17.3953ZM4.16853 13.6144L2.76912 16.1022L1.36971 13.6144L2.76912 11.1266L4.16853 13.6144ZM6.36471 9.71008L4.9653 12.1979L3.56589 9.71008L4.9653 7.22223L6.36471 9.71008ZM4.16853 5.80576L2.76912 8.2936L1.36971 5.80576L2.76912 3.31791L4.16853 5.80576ZM6.28659 2.04032L4.9653 4.38928L3.56589 1.90143L4.88718 -0.447519L6.28659 2.04032Z" fill="#A00009"/>
<rect x="6.66669" y="20" width="8.33333" height="13.3333" transform="rotate(-90 6.66669 20)" fill="#008259"/>
</g>
</svg>
