<svg width="20" height="20" viewBox="0 0 20 20" fill="none" xmlns="http://www.w3.org/2000/svg">
<mask id="mask0_11482_4660" style="mask-type:alpha" maskUnits="userSpaceOnUse" x="0" y="0" width="20" height="20">
<circle cx="10" cy="10" r="10" fill="#D9D9D9"/>
</mask>
<g mask="url(#mask0_11482_4660)">
<rect y="20" width="20" height="20" transform="rotate(-90 0 20)" fill="#DD2033"/>
<rect y="2.22222" width="20" height="15.5556" fill="#004692"/>
<circle cx="9.99998" cy="10" r="6.66667" fill="#F5F7F8"/>
<path fill-rule="evenodd" clip-rule="evenodd" d="M10 14.1667C12.3012 14.1667 14.1667 12.3012 14.1667 10C14.1667 7.69881 12.3012 5.83333 10 5.83333C7.69883 5.83333 5.83335 7.69881 5.83335 10C5.83335 12.3012 7.69883 14.1667 10 14.1667ZM10 15.5556C13.0683 15.5556 15.5556 13.0682 15.5556 10C15.5556 6.93175 13.0683 4.44444 10 4.44444C6.93176 4.44444 4.44446 6.93175 4.44446 10C4.44446 13.0682 6.93176 15.5556 10 15.5556Z" fill="#009B77"/>
<path d="M7.44446 7.77778H12.4445V9.62688C12.4445 11.2564 11.4553 12.7229 9.94446 13.3333C8.43357 12.7229 7.44446 11.2564 7.44446 9.62688V7.77778Z" fill="#86C5FA"/>
<mask id="mask1_11482_4660" style="mask-type:alpha" maskUnits="userSpaceOnUse" x="7" y="7" width="6" height="7">
<path d="M7.44446 7.77778H12.4445V9.62688C12.4445 11.2564 11.4553 12.7229 9.94446 13.3333C8.43357 12.7229 7.44446 11.2564 7.44446 9.62688V7.77778Z" fill="#86C5FA"/>
</mask>
<g mask="url(#mask1_11482_4660)">
<rect x="7.16669" y="7.51974" width="3.53015" height="6.94444" transform="rotate(-45 7.16669 7.51974)" fill="#F1B434"/>
</g>
</g>
</svg>
