<svg width="29" height="20" viewBox="0 0 29 20" fill="none" xmlns="http://www.w3.org/2000/svg">
<mask id="mask0_11482_4670" style="mask-type:alpha" maskUnits="userSpaceOnUse" x="0" y="0" width="29" height="20">
<rect width="29" height="20" fill="#D9D9D9"/>
</mask>
<g mask="url(#mask0_11482_4670)">
<rect y="24.4" width="28.8" height="29" transform="rotate(-90 0 24.4)" fill="#DD2033"/>
<rect y="1.6" width="29" height="16.8" fill="#004692"/>
<ellipse cx="14.5" cy="10" rx="7.25" ry="7.2" fill="#F5F7F8"/>
<path fill-rule="evenodd" clip-rule="evenodd" d="M14.5 14.5C17.0025 14.5 19.0312 12.4853 19.0312 10C19.0312 7.51472 17.0025 5.5 14.5 5.5C11.9974 5.5 9.96873 7.51472 9.96873 10C9.96873 12.4853 11.9974 14.5 14.5 14.5ZM14.5 16C17.8367 16 20.5416 13.3137 20.5416 10C20.5416 6.68629 17.8367 4 14.5 4C11.1633 4 8.45831 6.68629 8.45831 10C8.45831 13.3137 11.1633 16 14.5 16Z" fill="#009B77"/>
<path d="M11.6805 7.6H17.3194V9.48595C17.3194 11.308 16.1992 12.9425 14.5 13.6C12.8007 12.9425 11.6805 11.308 11.6805 9.48595V7.6Z" fill="#86C5FA"/>
<mask id="mask1_11482_4670" style="mask-type:alpha" maskUnits="userSpaceOnUse" x="11" y="7" width="7" height="7">
<path d="M11.6805 7.6H17.3194V9.48595C17.3194 11.308 16.1992 12.9425 14.5 13.6C12.8007 12.9425 11.6805 11.308 11.6805 9.48595V7.6Z" fill="#86C5FA"/>
</mask>
<g mask="url(#mask1_11482_4670)">
<rect width="3.99487" height="7.52609" transform="matrix(0.709549 -0.704656 0.709549 0.704656 11.4188 7.32132)" fill="#F1B434"/>
</g>
</g>
</svg>
