<svg width="72" height="72" viewBox="0 0 72 72" fill="none" xmlns="http://www.w3.org/2000/svg">
<mask id="mask0_34_2200" style="mask-type:alpha" maskUnits="userSpaceOnUse" x="0" y="0" width="72" height="73">
<circle cx="36" cy="36.0001" r="36" transform="rotate(-90 36 36.0001)" fill="#D9D9D9"/>
</mask>
<g mask="url(#mask0_34_2200)">
<rect y="-1.52588e-05" width="72" height="72" fill="#DD2033"/>
<rect x="54" y="72.0001" width="36" height="72" transform="rotate(180 54 72.0001)" fill="#F5F7F8"/>
<path d="M40.1096 24.5913L35.9109 19.0002L31.7122 24.5913L28.3901 23.5766L31.0668 35.3706L27.7389 30.0142L26.5461 32.294L21.5161 31.5454L22.2576 36.623L20 37.8268L28.8212 43.4102L27.7411 46.9538L34.3542 45.1623L34.3542 53.0002L37.3037 53.0002L37.3036 45.0989L44.1507 46.9538L43.0846 43.456L43.0923 43.4638L52 37.806L49.7814 36.623L50.523 31.5455L45.493 32.294L44.3209 30.0539L40.7469 35.7864L40.5837 35.2511L43.22 23.6412L40.1096 24.5913Z" fill="#DD2033"/>
</g>
</svg>
