<svg width="29" height="20" viewBox="0 0 29 20" fill="none" xmlns="http://www.w3.org/2000/svg">
<mask id="mask0_11482_4686" style="mask-type:alpha" maskUnits="userSpaceOnUse" x="0" y="0" width="29" height="20">
<rect width="29" height="20" fill="#D9D9D9"/>
</mask>
<g mask="url(#mask0_11482_4686)">
<rect width="29" height="20" fill="#DD2033"/>
<rect x="21.75" y="20" width="14.5" height="20" transform="rotate(180 21.75 20)" fill="#F5F7F8"/>
<path d="M16.1552 5.43653L14.4641 3.20008L12.773 5.43653L11.4349 5.03062L12.513 9.74822L11.1726 7.60569L10.6922 8.51758L8.66618 8.21814L8.96487 10.2492L8.05554 10.7307L11.6085 12.9641L11.1735 14.3815L13.8371 13.6649L13.8371 16.8001L15.0251 16.8001L15.0251 13.6396L17.7829 14.3815L17.3535 12.9824L17.3566 12.9855L20.9444 10.7224L20.0508 10.2492L20.3495 8.21818L18.3236 8.51758L17.8514 7.62154L16.4119 9.91456L16.3462 9.70044L17.4081 5.05648L16.1552 5.43653Z" fill="#DD2033"/>
</g>
</svg>
