<svg width="20" height="20" viewBox="0 0 20 20" fill="none" xmlns="http://www.w3.org/2000/svg">
<mask id="mask0_11482_4681" style="mask-type:alpha" maskUnits="userSpaceOnUse" x="0" y="0" width="20" height="20">
<circle cx="10" cy="10" r="10" transform="rotate(-90 10 10)" fill="#D9D9D9"/>
</mask>
<g mask="url(#mask0_11482_4681)">
<rect y="-1.52588e-05" width="20" height="20" fill="#DD2033"/>
<rect x="15" y="20" width="10" height="20" transform="rotate(180 15 20)" fill="#F5F7F8"/>
<path d="M11.1415 6.83093L9.97523 5.27783L8.80894 6.83093L7.88612 6.54904L8.62965 9.82515L7.70525 8.33728L7.37389 8.97054L5.97667 8.7626L6.18266 10.1731L5.55554 10.5074L8.00587 12.0584L7.70584 13.0427L9.54281 12.5451L9.54283 14.7223L10.3621 14.7223L10.3621 12.5275L12.2641 13.0427L11.9679 12.0711L11.9701 12.0733L14.4444 10.5017L13.8282 10.1731L14.0341 8.76263L12.6369 8.97054L12.3113 8.34829L11.3186 9.94067L11.2732 9.79197L12.0056 6.567L11.1415 6.83093Z" fill="#DD2033"/>
</g>
</svg>
