<svg width="72" height="72" viewBox="0 0 72 72" fill="none" xmlns="http://www.w3.org/2000/svg">
<mask id="mask0_34_2201" style="mask-type:alpha" maskUnits="userSpaceOnUse" x="0" y="0" width="72" height="72">
<circle cx="36" cy="36" r="36" fill="#D9D9D9"/>
</mask>
<g mask="url(#mask0_34_2201)">
<rect width="72" height="72" fill="#008259"/>
<circle cx="17.3999" cy="22" r="9" fill="#F1B434"/>
<rect x="16.3999" y="21" width="2" height="8" fill="#936846"/>
<path d="M17.3999 15L18.3844 17.1116L20.6077 16.5846L19.612 18.6906L21.3999 20.1449L19.1739 20.6595L19.18 23L17.3999 21.5357L15.6197 23L15.6259 20.6595L13.3999 20.1449L15.1878 18.6906L14.1922 16.5846L16.4154 17.1116L17.3999 15Z" fill="#009B77"/>
<path d="M57.3844 21.1116L56.3999 19L55.4154 21.1116L53.1922 20.5846L54.1878 22.6906L52.3999 24.1449L54.6259 24.6595L54.6197 27L56.3999 25.5357L58.18 27L58.1739 24.6595L60.3999 24.1449L58.612 22.6906L59.6077 20.5846L57.3844 21.1116Z" fill="#F1B434"/>
<path d="M38.8998 28.5C39.5145 28.5 40.1119 28.5739 40.6836 28.7134C39.1998 27.6356 37.3741 27 35.3999 27C30.4293 27 26.3999 31.0294 26.3999 36C26.3999 40.9706 30.4293 45 35.3999 45C37.3741 45 39.1998 44.3644 40.6836 43.2866C40.1119 43.4261 39.5145 43.5 38.8998 43.5C34.7576 43.5 31.3998 40.1421 31.3998 36C31.3998 31.8579 34.7576 28.5 38.8998 28.5Z" fill="#F1B434"/>
<path d="M47.3844 35.1116L46.3999 33L45.4154 35.1116L43.1922 34.5846L44.1878 36.6906L42.3999 38.1449L44.6259 38.6595L44.6197 41L46.3999 39.5357L48.18 41L48.1739 38.6595L50.3999 38.1449L48.612 36.6906L49.6077 34.5846L47.3844 35.1116Z" fill="#F1B434"/>
<path d="M53.3999 52L54.3844 54.1116L56.6077 53.5846L55.612 55.6906L57.3999 57.1449L55.1739 57.6595L55.18 60L53.3999 58.5357L51.6197 60L51.6259 57.6595L49.3999 57.1449L51.1878 55.6906L50.1922 53.5846L52.4154 54.1116L53.3999 52Z" fill="#F1B434"/>
<path d="M64.3999 32L65.3844 34.1116L67.6077 33.5846L66.612 35.6906L68.3999 37.1449L66.1739 37.6595L66.18 40L64.3999 38.5357L62.6197 40L62.6259 37.6595L60.3999 37.1449L62.1878 35.6906L61.1922 33.5846L63.4154 34.1116L64.3999 32Z" fill="#F1B434"/>
<path d="M60.3999 46C61.5045 46 62.3999 45.1046 62.3999 44C62.3999 42.8954 61.5045 42 60.3999 42C59.2953 42 58.3999 42.8954 58.3999 44C58.3999 45.1046 59.2953 46 60.3999 46Z" fill="#F1B434"/>
</g>
</svg>
