<svg width="29" height="20" viewBox="0 0 29 20" fill="none" xmlns="http://www.w3.org/2000/svg">
<mask id="mask0_11482_4700" style="mask-type:alpha" maskUnits="userSpaceOnUse" x="0" y="0" width="29" height="20">
<rect width="29" height="20" fill="#D9D9D9"/>
</mask>
<g mask="url(#mask0_11482_4700)">
<rect width="29" height="20" fill="#008259"/>
<ellipse cx="5.79996" cy="5.2" rx="3.625" ry="3.6" fill="#F1B434"/>
<rect x="5.39719" y="4.8" width="0.805556" height="3.2" fill="#936846"/>
<path d="M5.79995 2.4L6.19647 3.24465L7.09199 3.03383L6.69093 3.87623L7.41107 4.45796L6.51447 4.66378L6.51696 5.6L5.79995 5.01428L5.08292 5.6L5.08544 4.66378L4.18884 4.45796L4.90895 3.87623L4.50794 3.03383L5.40341 3.24465L5.79995 2.4Z" fill="#009B77"/>
<path d="M22.7104 2.84465L22.3138 2L21.9173 2.84465L21.0218 2.63382L21.4228 3.47623L20.7027 4.05796L21.5993 4.26378L21.5968 5.2L22.3138 4.61427L23.0309 5.2L23.0284 4.26378L23.925 4.05796L23.2048 3.47623L23.6059 2.63382L22.7104 2.84465Z" fill="#F1B434"/>
<path d="M15.2652 5.8C15.5128 5.8 15.7534 5.82958 15.9837 5.88537C15.386 5.45426 14.6507 5.2 13.8555 5.2C11.8535 5.2 10.2305 6.81177 10.2305 8.8C10.2305 10.7882 11.8535 12.4 13.8555 12.4C14.6507 12.4 15.386 12.1457 15.9837 11.7146C15.7534 11.7704 15.5128 11.8 15.2652 11.8C13.5968 11.8 12.2444 10.4569 12.2444 8.8C12.2444 7.14315 13.5968 5.8 15.2652 5.8Z" fill="#F1B434"/>
<path d="M18.6826 8.44465L18.2861 7.6L17.8895 8.44465L16.9941 8.23382L17.3951 9.07623L16.675 9.65796L17.5716 9.86378L17.569 10.8L18.2861 10.2143L19.0031 10.8L19.0006 9.86378L19.8972 9.65796L19.177 9.07623L19.5781 8.23382L18.6826 8.44465Z" fill="#F1B434"/>
<path d="M21.1055 15.2L21.502 16.0446L22.3976 15.8338L21.9965 16.6762L22.7166 17.258L21.82 17.4638L21.8225 18.4L21.1055 17.8143L20.3885 18.4L20.391 17.4638L19.4944 17.258L20.2145 16.6762L19.8135 15.8338L20.709 16.0446L21.1055 15.2Z" fill="#F1B434"/>
<path d="M25.5361 7.2L25.9326 8.04465L26.8281 7.83382L26.427 8.67623L27.1472 9.25796L26.2506 9.46378L26.2531 10.4L25.5361 9.81427L24.819 10.4L24.8216 9.46378L23.925 9.25796L24.6451 8.67623L24.2441 7.83382L25.1395 8.04465L25.5361 7.2Z" fill="#F1B434"/>
<path d="M23.925 12.8C24.3699 12.8 24.7305 12.4418 24.7305 12C24.7305 11.5582 24.3699 11.2 23.925 11.2C23.4801 11.2 23.1194 11.5582 23.1194 12C23.1194 12.4418 23.4801 12.8 23.925 12.8Z" fill="#F1B434"/>
</g>
</svg>
