<svg width="20" height="20" viewBox="0 0 20 20" fill="none" xmlns="http://www.w3.org/2000/svg">
<mask id="mask0_11482_4693" style="mask-type:alpha" maskUnits="userSpaceOnUse" x="0" y="0" width="20" height="20">
<circle cx="10" cy="10" r="10" fill="#D9D9D9"/>
</mask>
<g mask="url(#mask0_11482_4693)">
<rect width="20" height="20" fill="#008259"/>
<circle cx="4.83331" cy="6.11111" r="2.5" fill="#F1B434"/>
<rect x="4.55553" y="5.83334" width="0.555556" height="2.22222" fill="#936846"/>
<path d="M4.83331 4.16666L5.10677 4.75323L5.72437 4.60682L5.44778 5.19182L5.94442 5.5958L5.32608 5.73874L5.32779 6.38889L4.83331 5.98213L4.33881 6.38889L4.34054 5.73874L3.7222 5.5958L4.21882 5.19182L3.94227 4.60682L4.55983 4.75323L4.83331 4.16666Z" fill="#009B77"/>
<path d="M15.9401 5.86434L15.6666 5.27778L15.3932 5.86434L14.7756 5.71793L15.0522 6.30294L14.5555 6.70692L15.1739 6.84985L15.1721 7.5L15.6666 7.09325L16.1611 7.5L16.1594 6.84985L16.7778 6.70692L16.2811 6.30294L16.5577 5.71793L15.9401 5.86434Z" fill="#F1B434"/>
<path d="M10.8055 7.91667C10.9762 7.91667 11.1422 7.93721 11.301 7.97595C10.8888 7.67657 10.3817 7.5 9.83331 7.5C8.4526 7.5 7.33331 8.61929 7.33331 10C7.33331 11.3807 8.4526 12.5 9.83331 12.5C10.3817 12.5 10.8888 12.3234 11.301 12.024C11.1422 12.0628 10.9762 12.0833 10.8055 12.0833C9.65491 12.0833 8.72217 11.1506 8.72217 10C8.72217 8.84941 9.65491 7.91667 10.8055 7.91667Z" fill="#F1B434"/>
<path d="M13.1623 9.75323L12.8889 9.16667L12.6154 9.75323L11.9978 9.60682L12.2744 10.1918L11.7778 10.5958L12.3961 10.7387L12.3944 11.3889L12.8889 10.9821L13.3834 11.3889L13.3816 10.7387L14 10.5958L13.5033 10.1918L13.7799 9.60682L13.1623 9.75323Z" fill="#F1B434"/>
<path d="M14.8333 14.4444L15.1068 15.031L15.7244 14.8846L15.4478 15.4696L15.9444 15.8736L15.3261 16.0165L15.3278 16.6667L14.8333 16.2599L14.3388 16.6667L14.3405 16.0165L13.7222 15.8736L14.2188 15.4696L13.9423 14.8846L14.5598 15.031L14.8333 14.4444Z" fill="#F1B434"/>
<path d="M17.8889 8.88889L18.1623 9.47545L18.7799 9.32905L18.5033 9.91405L19 10.318L18.3816 10.461L18.3834 11.1111L17.8889 10.7044L17.3944 11.1111L17.3961 10.461L16.7778 10.318L17.2744 9.91405L16.9978 9.32905L17.6154 9.47545L17.8889 8.88889Z" fill="#F1B434"/>
<path d="M16.7778 12.7778C17.0846 12.7778 17.3333 12.529 17.3333 12.2222C17.3333 11.9154 17.0846 11.6667 16.7778 11.6667C16.4709 11.6667 16.2222 11.9154 16.2222 12.2222C16.2222 12.529 16.4709 12.7778 16.7778 12.7778Z" fill="#F1B434"/>
</g>
</svg>
