<svg width="72" height="72" viewBox="0 0 72 72" fill="none" xmlns="http://www.w3.org/2000/svg">
<mask id="mask0_34_3089" style="mask-type:alpha" maskUnits="userSpaceOnUse" x="0" y="0" width="72" height="72">
<circle cx="36" cy="36" r="36" fill="#D9D9D9"/>
</mask>
<g mask="url(#mask0_34_3089)">
<rect x="0.00012207" y="72.0001" width="16" height="72" transform="rotate(-90 0.00012207 72.0001)" fill="#FBD381"/>
<rect x="0.000244141" y="38" width="18" height="72" transform="rotate(-90 0.000244141 38)" fill="#F5F7F8"/>
<rect y="20" width="20" height="72" transform="rotate(-90 0 20)" fill="#004692"/>
<rect y="56" width="18" height="72" transform="rotate(-90 0 56)" fill="#008259"/>
<rect x="49" y="72" width="18" height="72" transform="rotate(180 49 72)" fill="#DD2033"/>
<path d="M21 4L18.9135 8.71953L14 9.34749L17.6241 12.8924L16.6737 18L21 15.0833L25.3263 18L24.3759 12.8924L28 9.34749L23.0865 8.71953L21 4Z" fill="#FBD381"/>
</g>
</svg>
