<svg width="29" height="20" viewBox="0 0 29 20" fill="none" xmlns="http://www.w3.org/2000/svg">
<mask id="mask0_11482_4731" style="mask-type:alpha" maskUnits="userSpaceOnUse" x="0" y="0" width="29" height="20">
<rect width="29" height="20" fill="#D9D9D9"/>
</mask>
<g mask="url(#mask0_11482_4731)">
<rect y="20" width="4.8" height="29" transform="rotate(-90 0 20)" fill="#FBD381"/>
<rect y="10.4" width="4.8" height="29" transform="rotate(-90 0 10.4)" fill="#F5F7F8"/>
<rect y="5.6" width="5.6" height="29" transform="rotate(-90 0 5.6)" fill="#004692"/>
<rect y="15.2" width="4.8" height="29" transform="rotate(-90 0 15.2)" fill="#008259"/>
<rect x="21.75" y="20" width="5.63889" height="20" transform="rotate(180 21.75 20)" fill="#DD2033"/>
<path d="M5.6389 0.800003L5.03861 2.14844L3.625 2.32786L4.66764 3.3407L4.39422 4.8L5.63889 3.96667L6.88356 4.8L6.61013 3.3407L7.65278 2.32786L6.23917 2.14844L5.6389 0.800003Z" fill="#FBD381"/>
</g>
</svg>
