<svg width="20" height="20" viewBox="0 0 20 20" fill="none" xmlns="http://www.w3.org/2000/svg">
<mask id="mask0_11482_4723" style="mask-type:alpha" maskUnits="userSpaceOnUse" x="0" y="0" width="20" height="20">
<circle cx="10" cy="10" r="10" fill="#D9D9D9"/>
</mask>
<g mask="url(#mask0_11482_4723)">
<rect x="0.00012207" y="20" width="4.44444" height="20" transform="rotate(-90 0.00012207 20)" fill="#FBD381"/>
<rect x="0.000244141" y="10.5556" width="5" height="20" transform="rotate(-90 0.000244141 10.5556)" fill="#F5F7F8"/>
<rect y="5.55556" width="5.55556" height="20" transform="rotate(-90 0 5.55556)" fill="#004692"/>
<rect y="15.5556" width="5" height="20" transform="rotate(-90 0 15.5556)" fill="#008259"/>
<rect x="13.6111" y="20" width="5" height="20" transform="rotate(180 13.6111 20)" fill="#DD2033"/>
<path d="M5.83334 1.11111L5.25375 2.4221L3.88889 2.59653L4.89558 3.58124L4.63158 5L5.83333 4.18982L7.03508 5L6.77108 3.58124L7.77777 2.59653L6.41291 2.4221L5.83334 1.11111Z" fill="#FBD381"/>
</g>
</svg>
