<svg width="72" height="72" viewBox="0 0 72 72" fill="none" xmlns="http://www.w3.org/2000/svg">
<mask id="mask0_34_3093" style="mask-type:alpha" maskUnits="userSpaceOnUse" x="0" y="0" width="72" height="72">
<circle cx="36" cy="36" r="36" fill="#D9D9D9"/>
</mask>
<g mask="url(#mask0_34_3093)">
<rect width="72" height="72" fill="#004692"/>
<path d="M35.3739 44.3095L34.3484 46.6291L31.9333 46.9378L33.7146 48.6801L33.2475 51.1905L35.3739 49.757L37.5003 51.1905L37.0332 48.6801L38.8144 46.9378L36.3994 46.6291L35.3739 44.3095Z" fill="#F5F7F8"/>
<path d="M37.9535 37.925L38.9791 35.6054L40.0046 37.925L42.4196 38.2337L40.6383 39.976L41.1055 42.4864L38.979 41.0529L36.8526 42.4864L37.3198 39.976L35.5385 38.2337L37.9535 37.925Z" fill="#F5F7F8"/>
<path d="M46.6579 34.3197L47.6835 32L48.709 34.3197L51.124 34.6283L49.3427 36.3707L49.8099 38.8811L47.6835 37.4475L45.557 38.8811L46.0242 36.3707L44.2429 34.6283L46.6579 34.3197Z" fill="#F5F7F8"/>
<path d="M37.9535 55.3332L38.9791 53.0136L40.0046 55.3332L42.4196 55.6419L40.6383 57.3842L41.1055 59.8946L38.979 58.4611L36.8526 59.8946L37.3198 57.3842L35.5385 55.6419L37.9535 55.3332Z" fill="#F5F7F8"/>
<path d="M47.6835 56.6189L46.6579 58.9386L44.2429 59.2472L46.0242 60.9896L45.557 63.5L47.6835 62.0664L49.8099 63.5L49.3427 60.9896L51.124 59.2472L48.709 58.9386L47.6835 56.6189Z" fill="#F5F7F8"/>
<path d="M55.3617 55.3332L56.3873 53.0136L57.4128 55.3332L59.8278 55.6419L58.0465 57.3842L58.5137 59.8946L56.3873 58.4611L54.2608 59.8946L54.728 57.3842L52.9467 55.6419L55.3617 55.3332Z" fill="#F5F7F8"/>
<path d="M59.9927 44.3095L58.9671 46.6291L56.5521 46.9378L58.3334 48.6801L57.8663 51.1905L59.9927 49.757L62.1191 51.1905L61.6519 48.6801L63.4332 46.9378L61.0182 46.6291L59.9927 44.3095Z" fill="#F5F7F8"/>
<path d="M55.3617 37.925L56.3873 35.6054L57.4128 37.925L59.8278 38.2337L58.0465 39.9761L58.5137 42.4864L56.3873 41.0529L54.2608 42.4864L54.728 39.9761L52.9467 38.2337L55.3617 37.925Z" fill="#F5F7F8"/>
<mask id="mask1_34_3093" style="mask-type:alpha" maskUnits="userSpaceOnUse" x="0" y="0" width="36" height="36">
<path d="M0 36C-8.69081e-07 16.1178 16.1177 -7.04529e-07 36 -1.57361e-06L36 36L0 36Z" fill="#002F6C"/>
</mask>
<g mask="url(#mask1_34_3093)">
<path d="M12.5223 3.13389L10.401 5.25521L39.927 34.7812L42.0483 32.6599L12.5223 3.13389Z" fill="#F5F7F8"/>
<path d="M6.86549 8.79074L3.32996 12.3263L32.856 41.8523L36.3915 38.3167L6.86549 8.79074Z" fill="#F5F7F8"/>
<path d="M6.86549 8.79074L10.401 5.25521L39.927 34.7812L36.3915 38.3167L6.86549 8.79074Z" fill="#DD2033"/>
<path d="M36 12V17L17 17L17 36H12V12H36Z" fill="#F5F7F8"/>
<path d="M36 -1.99998V3.00002L5 3.00002L5 36H0V-1.99998H36Z" fill="#F5F7F8"/>
<path fill-rule="evenodd" clip-rule="evenodd" d="M3 36H12L12 12L36 12V3.00001H12H3L3 12L3 36Z" fill="#DD2033"/>
</g>
</g>
</svg>
