<svg width="29" height="20" viewBox="0 0 29 20" fill="none" xmlns="http://www.w3.org/2000/svg">
<mask id="mask0_11482_4786" style="mask-type:alpha" maskUnits="userSpaceOnUse" x="0" y="0" width="29" height="20">
<rect width="29" height="20" fill="#D9D9D9"/>
</mask>
<g mask="url(#mask0_11482_4786)">
<rect width="29" height="20" fill="#004692"/>
<mask id="mask1_11482_4786" style="mask-type:alpha" maskUnits="userSpaceOnUse" x="0" y="0" width="15" height="12">
<path d="M0 12L-1.31134e-06 0L14.5 -2.53526e-07L14.5 12L0 12Z" fill="#002F6C"/>
</mask>
<g mask="url(#mask1_11482_4786)">
<path d="M5.15183 0.401832L4.29741 1.25036L14.849 11.7292L15.7034 10.8806L5.15183 0.401832Z" fill="#F5F7F8"/>
<path d="M2.87338 2.66457L1.44934 4.07879L12.0009 14.5576L13.425 13.1434L2.87338 2.66457Z" fill="#F5F7F8"/>
<path d="M2.87338 2.66457L4.29741 1.25036L14.849 11.7292L13.425 13.1434L2.87338 2.66457Z" fill="#DD2033"/>
<path d="M2.41666 14H4.02846L4.02846 3.59997H14.5V1.99998H2.41666V14Z" fill="#F5F7F8"/>
<path d="M0 14H2.41736L2.41736 1.99993H14.5007V-4.95911e-05H0V14Z" fill="#DD2033"/>
</g>
<path d="M17.3429 11.5767L16.9758 12.4015L16.1111 12.5112L16.7489 13.1307L16.5816 14.0233L17.3429 13.5136L18.1042 14.0233L17.937 13.1307L18.5747 12.5112L17.7101 12.4015L17.3429 11.5767Z" fill="#F5F7F8"/>
<path d="M18.2665 9.30668L18.6337 8.48191L19.0008 9.30668L19.8655 9.41642L19.2277 10.0359L19.395 10.9285L18.6337 10.4188L17.8724 10.9285L18.0396 10.0359L17.4019 9.41642L18.2665 9.30668Z" fill="#F5F7F8"/>
<path d="M21.3829 8.02477L21.7501 7.2L22.1172 8.02477L22.9819 8.13451L22.3441 8.75402L22.5114 9.6466L21.7501 9.13689L20.9888 9.6466L21.156 8.75402L20.5183 8.13451L21.3829 8.02477Z" fill="#F5F7F8"/>
<path d="M18.2665 15.4963L18.6337 14.6715L19.0008 15.4963L19.8655 15.606L19.2277 16.2255L19.395 17.1181L18.6337 16.6084L17.8724 17.1181L18.0396 16.2255L17.4019 15.606L18.2665 15.4963Z" fill="#F5F7F8"/>
<path d="M21.7501 15.9534L21.3829 16.7782L20.5183 16.8879L21.156 17.5074L20.9888 18.4L21.7501 17.8903L22.5114 18.4L22.3441 17.5074L22.9819 16.8879L22.1172 16.7782L21.7501 15.9534Z" fill="#F5F7F8"/>
<path d="M24.4991 15.4963L24.8663 14.6715L25.2334 15.4963L26.0981 15.606L25.4603 16.2255L25.6276 17.1181L24.8663 16.6084L24.1049 17.1181L24.2722 16.2255L23.6345 15.606L24.4991 15.4963Z" fill="#F5F7F8"/>
<path d="M26.1571 11.5767L25.7899 12.4015L24.9253 12.5112L25.563 13.1307L25.3958 14.0233L26.1571 13.5136L26.9184 14.0233L26.7512 13.1307L27.3889 12.5112L26.5243 12.4015L26.1571 11.5767Z" fill="#F5F7F8"/>
<path d="M24.4991 9.30668L24.8663 8.48191L25.2334 9.30668L26.0981 9.41642L25.4603 10.0359L25.6276 10.9285L24.8663 10.4188L24.1049 10.9285L24.2722 10.0359L23.6345 9.41642L24.4991 9.30668Z" fill="#F5F7F8"/>
</g>
</svg>
