<svg width="20" height="20" viewBox="0 0 20 20" fill="none" xmlns="http://www.w3.org/2000/svg">
<mask id="mask0_11482_4775" style="mask-type:alpha" maskUnits="userSpaceOnUse" x="0" y="0" width="20" height="20">
<circle cx="10" cy="10" r="10" fill="#D9D9D9"/>
</mask>
<g mask="url(#mask0_11482_4775)">
<rect width="20" height="20" fill="#004692"/>
<path d="M9.82607 12.3082L9.5412 12.9525L8.87036 13.0383L9.36515 13.5223L9.2354 14.2196L9.82607 13.8214L10.4167 14.2196L10.287 13.5223L10.7818 13.0383L10.1109 12.9525L9.82607 12.3082Z" fill="#F5F7F8"/>
<path d="M10.5426 10.5347L10.8275 9.89038L11.1124 10.5347L11.7832 10.6205L11.2884 11.1045L11.4182 11.8018L10.8275 11.4036L10.2368 11.8018L10.3666 11.1045L9.8718 10.6205L10.5426 10.5347Z" fill="#F5F7F8"/>
<path d="M12.9605 9.53324L13.2454 8.88889L13.5303 9.53324L14.2011 9.61897L13.7063 10.103L13.8361 10.8003L13.2454 10.4021L12.6547 10.8003L12.7845 10.103L12.2897 9.61897L12.9605 9.53324Z" fill="#F5F7F8"/>
<path d="M10.5426 15.3703L10.8275 14.726L11.1124 15.3703L11.7832 15.4561L11.2884 15.9401L11.4182 16.6374L10.8275 16.2392L10.2368 16.6374L10.3666 15.9401L9.8718 15.4561L10.5426 15.3703Z" fill="#F5F7F8"/>
<path d="M13.2454 15.7275L12.9605 16.3718L12.2897 16.4576L12.7845 16.9416L12.6547 17.6389L13.2454 17.2407L13.8361 17.6389L13.7063 16.9416L14.2011 16.4576L13.5303 16.3718L13.2454 15.7275Z" fill="#F5F7F8"/>
<path d="M15.3782 15.3703L15.6631 14.726L15.948 15.3703L16.6188 15.4561L16.124 15.9401L16.2538 16.6374L15.6631 16.2392L15.0724 16.6374L15.2022 15.9401L14.7074 15.4561L15.3782 15.3703Z" fill="#F5F7F8"/>
<path d="M16.6646 12.3082L16.3797 12.9525L15.7089 13.0383L16.2037 13.5223L16.0739 14.2196L16.6646 13.8214L17.2553 14.2196L17.1255 13.5223L17.6203 13.0383L16.9495 12.9525L16.6646 12.3082Z" fill="#F5F7F8"/>
<path d="M15.3782 10.5347L15.6631 9.89038L15.948 10.5347L16.6188 10.6205L16.124 11.1045L16.2538 11.8018L15.6631 11.4036L15.0724 11.8018L15.2022 11.1045L14.7074 10.6205L15.3782 10.5347Z" fill="#F5F7F8"/>
<mask id="mask1_11482_4775" style="mask-type:alpha" maskUnits="userSpaceOnUse" x="0" y="0" width="10" height="10">
<path d="M0 10C-8.69081e-07 4.47715 4.47715 -5.43618e-08 10 -1.21421e-07L10 10L0 10Z" fill="#002F6C"/>
</mask>
<g mask="url(#mask1_11482_4775)">
<path d="M3.47843 0.870523L2.88917 1.45978L11.0908 9.66145L11.6801 9.07219L3.47843 0.870523Z" fill="#F5F7F8"/>
<path d="M1.90708 2.44187L0.924989 3.42396L9.12665 11.6256L10.1087 10.6435L1.90708 2.44187Z" fill="#F5F7F8"/>
<path d="M1.90708 2.44187L2.88917 1.45978L11.0908 9.66145L10.1087 10.6435L1.90708 2.44187Z" fill="#DD2033"/>
<path d="M9.99998 3.33333V4.72222L4.7222 4.72222L4.7222 10H3.33331V3.33333H9.99998Z" fill="#F5F7F8"/>
<path d="M10 -0.55555V0.833339L1.38889 0.833339L1.38889 10H0V-0.55555H10Z" fill="#F5F7F8"/>
<path fill-rule="evenodd" clip-rule="evenodd" d="M0.833313 10H3.33331L3.33331 3.33334L9.99998 3.33334V0.833336H3.33331H0.833314L0.833314 3.33334L0.833313 10Z" fill="#DD2033"/>
</g>
</g>
</svg>
