<svg width="72" height="72" viewBox="0 0 72 72" fill="none" xmlns="http://www.w3.org/2000/svg">
<mask id="mask0_35_111" style="mask-type:alpha" maskUnits="userSpaceOnUse" x="0" y="0" width="72" height="72">
<circle cx="36" cy="36" r="36" fill="#D9D9D9"/>
</mask>
<g mask="url(#mask0_35_111)">
<rect width="72" height="72" fill="#DD2033"/>
<path d="M39.5529 4.80456L36.7784 8.24915L32.571 7.67902L34.7851 11.418L32.8651 15.4359L37.0941 13.9809L40.029 17.3554L40.3752 12.9159L44.1621 10.7849L40.2334 9.1749L39.5529 4.80456Z" fill="#F1B434"/>
<path d="M20.0001 19.6001L16.7212 27.0165L9 28.0033L14.695 33.5739L13.2015 41.6001L20 37.0167L26.7985 41.6001L25.305 33.5739L31 28.0033L23.2788 27.0165L20.0001 19.6001Z" fill="#F1B434"/>
<path d="M43.7666 24.1749L44.4471 19.8045L47.2215 23.2491L51.4289 22.679L49.2148 26.418L51.1348 30.4358L46.9058 28.9808L43.971 32.3554L43.6247 27.9158L39.8378 25.7848L43.7666 24.1749Z" fill="#F1B434"/>
<path d="M44 34.6L42.2116 38.6453L38 39.1836L41.1064 42.2221L40.2917 46.6L44 44.1L47.7083 46.6L46.8936 42.2221L50 39.1836L45.7884 38.6453L44 34.6Z" fill="#F1B434"/>
<path d="M32.7784 50.2491L35.5529 46.8045L36.2334 51.1749L40.1621 52.7848L36.3752 54.9158L36.029 59.3554L33.0941 55.9808L28.8651 57.4358L30.7851 53.418L28.571 49.679L32.7784 50.2491Z" fill="#F1B434"/>
</g>
</svg>
