<svg width="29" height="20" viewBox="0 0 29 20" fill="none" xmlns="http://www.w3.org/2000/svg">
<mask id="mask0_11482_4825" style="mask-type:alpha" maskUnits="userSpaceOnUse" x="0" y="0" width="29" height="20">
<rect width="29" height="20" fill="#D9D9D9"/>
</mask>
<g mask="url(#mask0_11482_4825)">
<rect width="29" height="20" fill="#DD2033"/>
<path d="M13.7764 1.2L12.8545 2.31134L11.4566 2.1274L12.1922 3.33373L11.5543 4.63004L12.9594 4.16059L13.9345 5.24935L14.0496 3.81699L15.3078 3.12945L14.0024 2.61002L13.7764 1.2Z" fill="#F1B434"/>
<path d="M7.27982 5.97355L6.19042 8.36634L3.625 8.68472L5.51719 10.482L5.02097 13.0715L7.27981 11.5928L9.53864 13.0715L9.04242 10.482L10.9346 8.68472L8.36919 8.36634L7.27982 5.97355Z" fill="#F1B434"/>
<path d="M15.1764 7.44953L15.4025 6.0395L16.3243 7.15085L17.7222 6.96691L16.9866 8.17324L17.6245 9.46955L16.2194 9.0001L15.2443 10.0889L15.1292 8.6565L13.871 7.96896L15.1764 7.44953Z" fill="#F1B434"/>
<path d="M15.2539 10.8131L14.6597 12.1182L13.2604 12.2919L14.2925 13.2722L14.0218 14.6847L15.2539 13.8781L16.486 14.6847L16.2154 13.2722L17.2475 12.2919L15.8481 12.1182L15.2539 10.8131Z" fill="#F1B434"/>
<path d="M11.5255 15.862L12.4473 14.7507L12.6734 16.1607L13.9788 16.6801L12.7205 17.3676L12.6055 18.8L11.6304 17.7112L10.2253 18.1807L10.8632 16.8844L10.1276 15.6781L11.5255 15.862Z" fill="#F1B434"/>
</g>
</svg>
