<svg width="20" height="20" viewBox="0 0 20 20" fill="none" xmlns="http://www.w3.org/2000/svg">
<mask id="mask0_11482_4821" style="mask-type:alpha" maskUnits="userSpaceOnUse" x="0" y="0" width="20" height="20">
<circle cx="10" cy="10" r="10" fill="#D9D9D9"/>
</mask>
<g mask="url(#mask0_11482_4821)">
<rect width="20" height="20" fill="#DD2033"/>
<path d="M10.9869 1.3346L10.2162 2.29143L9.0475 2.13306L9.66253 3.17167L9.12921 4.28775L10.3039 3.88357L11.1192 4.82096L11.2153 3.58774L12.2673 2.99579L11.1759 2.54859L10.9869 1.3346Z" fill="#F1B434"/>
<path d="M5.55557 5.44447L4.64479 7.50458L2.5 7.77869L4.08194 9.32609L3.66709 11.5556L5.55556 10.2824L7.44403 11.5556L7.02917 9.32609L8.61111 7.77869L6.46632 7.50458L5.55557 5.44447Z" fill="#F1B434"/>
<path d="M12.1574 6.71524L12.3464 5.50125L13.1171 6.45809L14.2858 6.29972L13.6708 7.33832L14.2041 8.4544L13.0294 8.05022L12.2142 8.98761L12.118 7.75439L11.0661 7.16245L12.1574 6.71524Z" fill="#F1B434"/>
<path d="M12.2222 9.61112L11.7254 10.7348L10.5556 10.8843L11.4184 11.7284L11.1921 12.9445L12.2222 12.25L13.2523 12.9445L13.026 11.7284L13.8889 10.8843L12.719 10.7348L12.2222 9.61112Z" fill="#F1B434"/>
<path d="M9.10511 13.9581L9.87581 13.0013L10.0648 14.2152L11.1561 14.6624L10.1042 15.2544L10.008 16.4876L9.19281 15.5502L8.01809 15.9544L8.55142 14.8383L7.93639 13.7997L9.10511 13.9581Z" fill="#F1B434"/>
</g>
</svg>
