<svg width="72" height="72" viewBox="0 0 72 72" fill="none" xmlns="http://www.w3.org/2000/svg">
<mask id="mask0_36_1447" style="mask-type:alpha" maskUnits="userSpaceOnUse" x="0" y="0" width="72" height="72">
<circle cx="36" cy="36" r="36" fill="#D9D9D9"/>
</mask>
<g mask="url(#mask0_36_1447)">
<rect width="72" height="72" fill="#004692"/>
<rect y="54" width="18" height="72" transform="rotate(-90 0 54)" fill="#F5F7F8"/>
<rect y="48" width="6" height="72" transform="rotate(-90 0 48)" fill="#DD2033"/>
<path d="M15.4406 40.8095L14.415 43.1291L12 43.4378L13.7813 45.1801L13.3141 47.6905L15.4405 46.257L17.5669 47.6905L17.0998 45.1801L18.8811 43.4378L16.4661 43.1291L15.4406 40.8095Z" fill="#F1B434"/>
<path d="M18.0202 34.4251L19.0457 32.1054L20.0712 34.4251L22.4862 34.7337L20.705 36.4761L21.1721 38.9864L19.0457 37.5529L16.9193 38.9864L17.3864 36.4761L15.6052 34.7337L18.0202 34.4251Z" fill="#F1B434"/>
<path d="M26.7246 30.8197L27.7501 28.5L28.7756 30.8197L31.1906 31.1283L29.4094 32.8707L29.8765 35.3811L27.7501 33.9475L25.6237 35.3811L26.0908 32.8707L24.3096 31.1283L26.7246 30.8197Z" fill="#F1B434"/>
<path d="M18.0202 51.8332L19.0457 49.5136L20.0712 51.8332L22.4862 52.1419L20.705 53.8842L21.1721 56.3946L19.0457 54.9611L16.9193 56.3946L17.3864 53.8842L15.6052 52.1419L18.0202 51.8332Z" fill="#F1B434"/>
<path d="M27.7501 53.1189L26.7246 55.4386L24.3096 55.7473L26.0908 57.4896L25.6237 60L27.7501 58.5664L29.8765 60L29.4094 57.4896L31.1906 55.7473L28.7756 55.4386L27.7501 53.1189Z" fill="#F1B434"/>
<path d="M35.4284 51.8332L36.4539 49.5136L37.4794 51.8332L39.8944 52.1419L38.1132 53.8842L38.5803 56.3946L36.4539 54.9611L34.3275 56.3946L34.7946 53.8842L33.0134 52.1419L35.4284 51.8332Z" fill="#F1B434"/>
<path d="M40.0593 40.8095L39.0338 43.1291L36.6188 43.4378L38.4 45.1802L37.9329 47.6905L40.0593 46.257L42.1857 47.6905L41.7186 45.1802L43.4998 43.4378L41.0848 43.1291L40.0593 40.8095Z" fill="#F1B434"/>
<path d="M35.4284 34.4251L36.4539 32.1054L37.4794 34.4251L39.8944 34.7337L38.1132 36.4761L38.5803 38.9864L36.4539 37.5529L34.3275 38.9864L34.7946 36.4761L33.0134 34.7337L35.4284 34.4251Z" fill="#F1B434"/>
</g>
</svg>
