<svg width="29" height="20" viewBox="0 0 29 20" fill="none" xmlns="http://www.w3.org/2000/svg">
<mask id="mask0_11482_4875" style="mask-type:alpha" maskUnits="userSpaceOnUse" x="0" y="0" width="29" height="20">
<rect width="29" height="20" fill="#D9D9D9"/>
</mask>
<g mask="url(#mask0_11482_4875)">
<rect width="29" height="20" fill="#004692"/>
<rect y="16" width="7.2" height="29" transform="rotate(-90 0 16)" fill="#F5F7F8"/>
<rect y="13.6" width="2.4" height="29" transform="rotate(-90 0 13.6)" fill="#DD2033"/>
<path d="M6.19713 10.8456L5.79062 11.7588L4.83334 11.8803L5.53941 12.5662L5.35425 13.5544L6.19712 12.99L7.04 13.5544L6.85484 12.5662L7.56091 11.8803L6.60363 11.7588L6.19713 10.8456Z" fill="#F1B434"/>
<path d="M7.21966 8.3324L7.62617 7.41926L8.03266 8.3324L8.98994 8.4539L8.28388 9.13978L8.46904 10.128L7.62616 9.56368L6.78328 10.128L6.96845 9.13978L6.26238 8.4539L7.21966 8.3324Z" fill="#F1B434"/>
<path d="M10.67 6.91314L11.0765 6L11.483 6.91314L12.4403 7.03464L11.7342 7.72052L11.9194 8.70874L11.0765 8.14442L10.2336 8.70874L10.4188 7.72052L9.71269 7.03464L10.67 6.91314Z" fill="#F1B434"/>
<path d="M7.21966 15.1851L7.62617 14.272L8.03266 15.1851L8.98994 15.3066L8.28388 15.9925L8.46904 16.9807L7.62616 16.4164L6.78328 16.9807L6.96845 15.9925L6.26238 15.3066L7.21966 15.1851Z" fill="#F1B434"/>
<path d="M11.0765 15.6913L10.67 16.6044L9.71269 16.7259L10.4188 17.4118L10.2336 18.4L11.0765 17.8357L11.9193 18.4L11.7342 17.4118L12.4403 16.7259L11.483 16.6044L11.0765 15.6913Z" fill="#F1B434"/>
<path d="M14.12 15.1851L14.5265 14.272L14.933 15.1851L15.8903 15.3066L15.1843 15.9925L15.3694 16.9807L14.5265 16.4164L13.6837 16.9807L13.8688 15.9925L13.1628 15.3066L14.12 15.1851Z" fill="#F1B434"/>
<path d="M15.9557 10.8456L15.5492 11.7588L14.5919 11.8803L15.298 12.5662L15.1128 13.5544L15.9557 12.9901L16.7986 13.5544L16.6134 12.5662L17.3195 11.8803L16.3622 11.7588L15.9557 10.8456Z" fill="#F1B434"/>
<path d="M14.12 8.3324L14.5265 7.41926L14.933 8.3324L15.8903 8.4539L15.1843 9.13978L15.3694 10.128L14.5265 9.56368L13.6837 10.128L13.8688 9.13978L13.1628 8.4539L14.12 8.3324Z" fill="#F1B434"/>
</g>
</svg>
