<svg width="20" height="20" viewBox="0 0 20 20" fill="none" xmlns="http://www.w3.org/2000/svg">
<mask id="mask0_11482_4869" style="mask-type:alpha" maskUnits="userSpaceOnUse" x="0" y="0" width="20" height="20">
<circle cx="10" cy="10" r="10" fill="#D9D9D9"/>
</mask>
<g mask="url(#mask0_11482_4869)">
<rect width="20" height="20" fill="#004692"/>
<rect y="15" width="5" height="20" transform="rotate(-90 0 15)" fill="#F5F7F8"/>
<rect y="13.3333" width="1.66667" height="20" transform="rotate(-90 0 13.3333)" fill="#DD2033"/>
<path d="M4.28905 11.336L4.00418 11.9803L3.33334 12.0661L3.82814 12.55L3.69838 13.2474L4.28905 12.8492L4.87972 13.2474L4.74996 12.55L5.24475 12.0661L4.57391 11.9803L4.28905 11.336Z" fill="#F1B434"/>
<path d="M5.00562 9.56252L5.29049 8.91817L5.57535 9.56252L6.24619 9.64825L5.75139 10.1322L5.88115 10.8296L5.29048 10.4314L4.69981 10.8296L4.82957 10.1322L4.33478 9.64825L5.00562 9.56252Z" fill="#F1B434"/>
<path d="M7.42351 8.56103L7.70838 7.91667L7.99324 8.56103L8.66408 8.64676L8.16928 9.13075L8.29904 9.82808L7.70837 9.42987L7.1177 9.82808L7.24746 9.13075L6.75267 8.64676L7.42351 8.56103Z" fill="#F1B434"/>
<path d="M5.00562 14.3981L5.29049 13.7538L5.57535 14.3981L6.24619 14.4839L5.75139 14.9678L5.88115 15.6652L5.29048 15.267L4.69981 15.6652L4.82957 14.9678L4.33478 14.4839L5.00562 14.3981Z" fill="#F1B434"/>
<path d="M7.70838 14.7553L7.42351 15.3996L6.75267 15.4854L7.24746 15.9693L7.1177 16.6667L7.70837 16.2685L8.29904 16.6667L8.16928 15.9693L8.66408 15.4854L7.99324 15.3996L7.70838 14.7553Z" fill="#F1B434"/>
<path d="M9.84123 14.3981L10.1261 13.7538L10.411 14.3981L11.0818 14.4839L10.587 14.9678L10.7168 15.6652L10.1261 15.267L9.53543 15.6652L9.66518 14.9678L9.17039 14.4839L9.84123 14.3981Z" fill="#F1B434"/>
<path d="M11.1276 11.336L10.8427 11.9803L10.1719 12.0661L10.6667 12.55L10.5369 13.2474L11.1276 12.8492L11.7183 13.2474L11.5885 12.55L12.0833 12.0661L11.4125 11.9803L11.1276 11.336Z" fill="#F1B434"/>
<path d="M9.84123 9.56252L10.1261 8.91817L10.411 9.56252L11.0818 9.64825L10.587 10.1322L10.7168 10.8296L10.1261 10.4314L9.53543 10.8296L9.66518 10.1322L9.17039 9.64825L9.84123 9.56252Z" fill="#F1B434"/>
</g>
</svg>
