<svg width="72" height="72" viewBox="0 0 72 72" fill="none" xmlns="http://www.w3.org/2000/svg">
<mask id="mask0_36_1448" style="mask-type:alpha" maskUnits="userSpaceOnUse" x="0" y="0" width="72" height="72">
<circle cx="36" cy="36" r="36" fill="#D9D9D9"/>
</mask>
<g mask="url(#mask0_36_1448)">
<rect width="72" height="72" fill="#004692"/>
<rect x="0.400391" y="48.0001" width="6" height="72" transform="rotate(-90 0.400391 48.0001)" fill="#FBD381"/>
<path d="M17.6154 13.3938L20 8L22.3846 13.3938L28 14.1114L23.8582 18.1628L24.9444 24L20 20.6667L15.0556 24L16.1418 18.1628L12 14.1114L17.6154 13.3938Z" fill="#F5F7F8"/>
<path d="M34.0193 23.7422L37.0001 17L39.9807 23.7422L47 24.6393L41.8227 29.7035L43.1805 37L37 32.8333L30.8196 37L32.1773 29.7035L27 24.6393L34.0193 23.7422Z" fill="#F5F7F8"/>
</g>
</svg>
