<svg width="72" height="72" viewBox="0 0 72 72" fill="none" xmlns="http://www.w3.org/2000/svg">
<mask id="mask0_36_1449" style="mask-type:alpha" maskUnits="userSpaceOnUse" x="0" y="0" width="72" height="72">
<circle cx="36" cy="36" r="36" transform="matrix(1 0 0 -1 0 72)" fill="#D9D9D9"/>
</mask>
<g mask="url(#mask0_36_1449)">
<rect width="72" height="72" transform="matrix(1 0 0 -1 0 72)" fill="#004692"/>
<path d="M72.6001 1.81227e-06L72.6001 72L0.600098 -7.62939e-06L72.6001 1.81227e-06Z" fill="#008259"/>
<path fill-rule="evenodd" clip-rule="evenodd" d="M62.2083 31.4362C61.0692 32.1123 60.4406 33.1375 60.222 33.7987V33.7987C59.7903 35.1046 57.9752 35.1893 57.4237 33.9292V33.9292C56.6395 32.1376 55.1797 31.3418 53.4728 31.0835C51.71 30.8168 49.8247 31.1637 48.6529 31.5727L47.6644 28.7403C49.1677 28.2156 51.5564 27.7594 53.9216 28.1173C55.6256 28.3751 57.3796 29.0739 58.7248 30.5062C59.2374 29.9024 59.8842 29.327 60.6772 28.8563C62.5642 27.7364 65.1353 27.2943 68.389 28.2536L67.5406 31.1312C64.9883 30.3787 63.2942 30.7917 62.2083 31.4362Z" fill="#F1B434"/>
<path d="M11.8307 28.6395L10.6001 26L9.36943 28.6395L6.59041 27.9807L7.83491 30.6132L5.6001 32.4311L8.38262 33.0743L8.37483 36L10.6001 34.1696L12.8253 36L12.8176 33.0743L15.6001 32.4311L13.3652 30.6132L14.6099 27.9807L11.8307 28.6395Z" fill="#F5F7F8"/>
<path d="M2.6001 38L3.83068 40.6395L6.60987 39.9807L5.36519 42.6132L7.6001 44.4311L4.81757 45.0743L4.82528 48L2.6001 46.1696L0.374829 48L0.382625 45.0743L-2.3999 44.4311L-0.165086 42.6132L-1.40959 39.9807L1.36943 40.6395L2.6001 38Z" fill="#F5F7F8"/>
<path d="M18.6001 61L19.8307 63.6395L22.6099 62.9807L21.3652 65.6132L23.6001 67.4311L20.8176 68.0743L20.8253 71L18.6001 69.1696L16.3748 71L16.3826 68.0743L13.6001 67.4311L15.8349 65.6132L14.5904 62.9807L17.3694 63.6395L18.6001 61Z" fill="#F5F7F8"/>
<path d="M20.6001 34L21.8307 36.6395L24.6099 35.9807L23.3652 38.6132L25.6001 40.4311L22.8176 41.0743L22.8253 44L20.6001 42.1696L18.3748 44L18.3826 41.0743L15.6001 40.4311L17.8349 38.6132L16.5904 35.9807L19.3694 36.6395L20.6001 34Z" fill="#F5F7F8"/>
<path d="M15.1001 52C16.4808 52 17.6001 50.8807 17.6001 49.5C17.6001 48.1193 16.4808 47 15.1001 47C13.7194 47 12.6001 48.1193 12.6001 49.5C12.6001 50.8807 13.7194 52 15.1001 52Z" fill="#F5F7F8"/>
<circle cx="36.1001" cy="35.5" r="8.5" fill="#F1B434"/>
</g>
</svg>
