<svg width="20" height="20" viewBox="0 0 20 20" fill="none" xmlns="http://www.w3.org/2000/svg">
<mask id="mask0_11482_4894" style="mask-type:alpha" maskUnits="userSpaceOnUse" x="0" y="0" width="20" height="20">
<circle cx="10" cy="10" r="10" transform="matrix(1 0 0 -1 -3.8147e-06 20)" fill="#D9D9D9"/>
</mask>
<g mask="url(#mask0_11482_4894)">
<rect width="20" height="20" transform="matrix(1 0 0 -1 0 20)" fill="#004692"/>
<path d="M20.1667 2.62268e-06L20.1667 20L0.166698 0L20.1667 2.62268e-06Z" fill="#008259"/>
<path fill-rule="evenodd" clip-rule="evenodd" d="M17.2801 8.73228C16.9637 8.92008 16.7891 9.20487 16.7283 9.38853C16.6084 9.75127 16.1042 9.7748 15.951 9.42479C15.7332 8.92711 15.3277 8.70605 14.8536 8.6343C14.3639 8.56021 13.8402 8.6566 13.5147 8.7702L13.2401 7.98341C13.6577 7.83767 14.3212 7.71094 14.9782 7.81035C15.4516 7.88197 15.9388 8.07608 16.3125 8.47393C16.4548 8.30622 16.6345 8.14639 16.8548 8.01565C17.379 7.70455 18.0931 7.58175 18.997 7.84823L18.7613 8.64755C18.0523 8.43852 17.5817 8.55326 17.2801 8.73228Z" fill="#F1B434"/>
<path d="M3.2863 7.95542L2.94447 7.22221L2.60262 7.95542L1.83067 7.77241L2.17636 8.50366L1.55558 9.00864L2.32851 9.1873L2.32634 9.99999L2.94447 9.49155L3.56257 9.99999L3.56043 9.1873L4.33336 9.00864L3.71255 8.50366L4.0583 7.77241L3.2863 7.95542Z" fill="#F5F7F8"/>
<path d="M0.722248 10.5556L1.06407 11.2888L1.83607 11.1057L1.49033 11.837L2.11114 12.342L1.33821 12.5206L1.34035 13.3333L0.722248 12.8249L0.104117 13.3333L0.106283 12.5206L-0.666641 12.342L-0.045859 11.837L-0.391554 11.1057L0.380396 11.2888L0.722248 10.5556Z" fill="#F5F7F8"/>
<path d="M5.16669 16.9444L5.50852 17.6776L6.28052 17.4946L5.93477 18.2259L6.55558 18.7309L5.78266 18.9095L5.7848 19.7222L5.16669 19.2138L4.54856 19.7222L4.55073 18.9095L3.7778 18.7309L4.39858 18.2259L4.05289 17.4946L4.82484 17.6776L5.16669 16.9444Z" fill="#F5F7F8"/>
<path d="M5.72225 9.44444L6.06407 10.1776L6.83607 9.99463L6.49033 10.7259L7.11114 11.2309L6.33821 11.4095L6.34035 12.2222L5.72225 11.7138L5.10412 12.2222L5.10628 11.4095L4.33336 11.2309L4.95414 10.7259L4.60845 9.99463L5.3804 10.1776L5.72225 9.44444Z" fill="#F5F7F8"/>
<path d="M4.19447 14.4444C4.578 14.4444 4.88891 14.1335 4.88891 13.75C4.88891 13.3665 4.578 13.0555 4.19447 13.0555C3.81094 13.0555 3.50003 13.3665 3.50003 13.75C3.50003 14.1335 3.81094 14.4444 4.19447 14.4444Z" fill="#F5F7F8"/>
<circle cx="10.0278" cy="9.86111" r="2.36111" fill="#F1B434"/>
</g>
</svg>
