<svg width="29" height="20" viewBox="0 0 29 20" fill="none" xmlns="http://www.w3.org/2000/svg">
<mask id="mask0_11482_4901" style="mask-type:alpha" maskUnits="userSpaceOnUse" x="0" y="0" width="29" height="20">
<rect width="29" height="20" fill="#D9D9D9"/>
</mask>
<g mask="url(#mask0_11482_4901)">
<rect width="29" height="20" transform="matrix(1 0 0 -1 0 20)" fill="#004692"/>
<path d="M29 -4.39999L29 24.4L0 -4.39999L29 -4.39999Z" fill="#008259"/>
<path fill-rule="evenodd" clip-rule="evenodd" d="M25.0561 5.77448C24.5973 6.04491 24.3441 6.45502 24.2561 6.71948C24.0815 7.24387 23.3516 7.2768 23.129 6.7717C22.8131 6.05504 22.2251 5.7367 21.5377 5.6334C20.8276 5.5267 20.0683 5.6655 19.5963 5.82909L19.1982 4.69611C19.8037 4.48624 20.7658 4.30375 21.7184 4.4469C22.4048 4.55004 23.1112 4.82956 23.6531 5.40247C23.8595 5.16096 24.12 4.9308 24.4394 4.74254C25.1995 4.29456 26.235 4.11772 27.5456 4.50146L27.2039 5.65247C26.1759 5.35146 25.4935 5.5167 25.0561 5.77448Z" fill="#F1B434"/>
<path d="M3.97375 4.87377L3.43601 4.14889L3.24697 5.02947L2.38283 5.00491L2.92422 5.72677L2.38438 6.421L3.24853 6.44058L3.43949 7.33082L3.97568 6.6334L4.75367 7.04928L4.55813 6.16003L5.33729 5.7884L4.55726 5.37693L4.7509 4.4976L3.97375 4.87377Z" fill="#F5F7F8"/>
<path d="M2.26916 9.50437L2.80691 10.2292L3.58406 9.85307L3.39042 10.7324L4.17045 11.1439L3.39129 11.5155L3.58683 12.4048L2.80884 11.9889L2.27265 12.6863L2.08169 11.7961L1.21754 11.7765L1.75738 11.0822L1.21598 10.3604L2.08012 10.3849L2.26916 9.50437Z" fill="#F5F7F8"/>
<path d="M4.48539 15.4869L5.02314 16.2117L5.80029 15.8356L5.60664 16.7149L6.38668 17.1264L5.60751 17.498L5.80306 18.3873L5.02507 17.9714L4.48888 18.6688L4.29791 17.7785L3.43377 17.759L3.9736 17.0647L3.43221 16.3429L4.29635 16.3674L4.48539 15.4869Z" fill="#F5F7F8"/>
<path d="M7.32016 7.14921L7.85791 7.87409L8.63506 7.49792L8.44142 8.37725L9.22145 8.78872L8.44229 9.16035L8.63783 10.0496L7.85984 9.63372L7.32365 10.3311L7.13269 9.4409L6.26854 9.42132L6.80837 8.72709L6.26698 8.00523L7.13113 8.02979L7.32016 7.14921Z" fill="#F5F7F8"/>
<path d="M6.88512 12.9712C7.29284 12.8839 7.54941 12.4727 7.4582 12.0528C7.367 11.6329 6.96254 11.3633 6.55483 11.4507C6.14712 11.538 5.89054 11.9492 5.98175 12.3691C6.07296 12.789 6.47741 13.0586 6.88512 12.9712Z" fill="#F5F7F8"/>
<ellipse cx="14.5403" cy="9.79999" rx="3.42361" ry="3.4" fill="#F1B434"/>
</g>
</svg>
