<svg width="72" height="72" viewBox="0 0 72 72" fill="none" xmlns="http://www.w3.org/2000/svg">
<mask id="mask0_36_1450" style="mask-type:alpha" maskUnits="userSpaceOnUse" x="0" y="0" width="72" height="72">
<circle cx="36" cy="36" r="36" fill="#D9D9D9"/>
</mask>
<g mask="url(#mask0_36_1450)">
<rect width="72" height="72" fill="#F5F7F8"/>
<path d="M17.2183 26.48C17.2183 26.48 16.394 36.06 25.859 36.8745L27.5871 38.9533L31.3731 39.2791C31.3731 39.2791 33.7607 33.694 37.5467 34.0198C37.5467 34.0198 37.8765 30.1877 41.6625 30.5135C45.4485 30.8393 47.3415 31.0022 47.3415 31.0022C47.3415 31.0022 46.108 23.1752 56.0676 18.2417L52.4465 16C52.4465 16 38.3711 24.4398 29.0709 21.7094L28.7412 25.5414L24.9551 25.2157L23.227 23.1368L17.2183 26.48Z" fill="#FF9E42"/>
<path d="M18.9756 44.5878C21.2192 50.2849 26.4512 54.5766 32.8393 55.7065C32.6556 55.8229 32.4817 55.9612 32.3215 56.1214C31.1499 57.293 31.1499 59.1924 32.3215 60.364L36.3823 56.3033L40.443 60.364C41.6146 59.1924 41.6146 57.293 40.443 56.1214C40.2585 55.9368 40.0558 55.7813 39.8408 55.6549C46.1019 54.4509 51.2144 50.2017 53.4252 44.5878L48.2583 43.3881C46.2324 47.8444 41.5961 50.9598 36.2006 50.9598C30.8051 50.9598 26.1688 47.8444 24.1429 43.3879L18.9756 44.5878Z" fill="#009B77"/>
</g>
</svg>
