<svg width="29" height="20" viewBox="0 0 29 20" fill="none" xmlns="http://www.w3.org/2000/svg">
<mask id="mask0_11482_4914" style="mask-type:alpha" maskUnits="userSpaceOnUse" x="0" y="0" width="29" height="20">
<rect width="29" height="20" fill="#D9D9D9"/>
</mask>
<g mask="url(#mask0_11482_4914)">
<rect width="29" height="20" fill="#F5F7F8"/>
<path d="M6.85454 6.99202C6.85454 6.99202 6.52251 10.824 10.3348 11.1498L11.0308 11.9813L12.5558 12.1116C12.5558 12.1116 13.5174 9.8776 15.0424 10.0079C15.0424 10.0079 15.1752 8.4751 16.7001 8.60541C18.225 8.73572 18.9875 8.80088 18.9875 8.80088C18.9875 8.80088 18.4907 5.6701 22.5022 3.69669L21.0436 2.8C21.0436 2.8 15.3744 6.17591 11.6285 5.08377L11.4957 6.61658L9.97074 6.48627L9.27471 5.65474L6.85454 6.99202Z" fill="#FF9E42"/>
<path d="M7.15955 12.2351C8.06321 14.514 10.1706 16.2306 12.7435 16.6826C12.6695 16.7291 12.5995 16.7845 12.535 16.8486C12.0631 17.3172 12.0631 18.077 12.535 18.5456L14.1706 16.9213L15.8062 18.5456C16.278 18.077 16.278 17.3172 15.8062 16.8486C15.7318 16.7747 15.6502 16.7125 15.5636 16.662C18.0854 16.1803 20.1446 14.4807 21.0351 12.2351L18.954 11.7552C18.138 13.5378 16.2706 14.7839 14.0974 14.7839C11.9242 14.7839 10.0568 13.5378 9.24084 11.7552L7.15955 12.2351Z" fill="#009B77"/>
</g>
</svg>
