<svg width="20" height="20" viewBox="0 0 20 20" fill="none" xmlns="http://www.w3.org/2000/svg">
<mask id="mask0_11482_4909" style="mask-type:alpha" maskUnits="userSpaceOnUse" x="0" y="0" width="20" height="20">
<circle cx="10" cy="10" r="10" fill="#D9D9D9"/>
</mask>
<g mask="url(#mask0_11482_4909)">
<rect width="20" height="20" fill="#F5F7F8"/>
<path d="M4.78287 7.35557C4.78287 7.35557 4.55389 10.0167 7.18306 10.2429L7.66308 10.8204L8.71476 10.9109C8.71476 10.9109 9.37797 9.35944 10.4296 9.44994C10.4296 9.44994 10.5212 8.38548 11.5729 8.47598C12.6246 8.56647 13.1504 8.61172 13.1504 8.61172C13.1504 8.61172 12.8078 6.43756 15.5743 5.06714L14.5685 4.44444C14.5685 4.44444 10.6586 6.78883 8.07525 6.03039L7.98365 7.09484L6.93198 7.00435L6.45196 6.4269L4.78287 7.35557Z" fill="#FF9E42"/>
<path d="M5.271 12.3855C5.89421 13.968 7.34755 15.1602 9.12202 15.474C9.07099 15.5064 9.0227 15.5448 8.9782 15.5893C8.65276 15.9147 8.65276 16.4423 8.9782 16.7678L10.1062 15.6398L11.2342 16.7678C11.5596 16.4423 11.5596 15.9147 11.2342 15.5893C11.1829 15.538 11.1266 15.4948 11.0669 15.4597C12.8061 15.1252 14.2262 13.9449 14.8403 12.3855L13.4051 12.0522C12.8423 13.2901 11.5545 14.1555 10.0557 14.1555C8.55698 14.1555 7.26911 13.2901 6.70637 12.0522L5.271 12.3855Z" fill="#009B77"/>
</g>
</svg>
