<svg width="72" height="72" viewBox="0 0 72 72" fill="none" xmlns="http://www.w3.org/2000/svg">
<mask id="mask0_36_2860" style="mask-type:alpha" maskUnits="userSpaceOnUse" x="0" y="0" width="72" height="72">
<circle cx="36" cy="36" r="36" fill="#D9D9D9"/>
</mask>
<g mask="url(#mask0_36_2860)">
<rect width="72" height="72" fill="#008259"/>
<path d="M40 0H48V40H72V48H48V72H40V48L0 48V40L40 40V0Z" fill="#F5F7F8"/>
<path d="M24 0H32V24L72 24V32L32 32V72H24V32L0 32V24L24 24V0Z" fill="#FBD381"/>
<path d="M40 0H32V32L0 32V40H32V72H40V40H72V32L40 32V0Z" fill="#31373D"/>
<circle cx="36.2002" cy="36" r="20" fill="#DD2033"/>
<path d="M40.2002 49H36.2002C32.8865 49 30.2002 46.3137 30.2002 43V32H40.2002V49Z" fill="#005B33"/>
<path d="M34.2002 23H32.2002V32H30.2002V37C30.2002 42.5228 34.6773 47 40.2002 47V29C40.2002 25.6863 37.5139 23 34.2002 23Z" fill="#642F6C"/>
<path d="M32.2002 23C30.5433 23 29.2002 24.3431 29.2002 26V28H32.2002V23Z" fill="#FBD381"/>
<path d="M37.2002 32C37.2002 30.3431 38.5434 29 40.2002 29V33.9476L43.7726 44.3493C44.849 47.4833 43.1809 50.8965 40.0469 51.9729L35.7275 39.3961C35.1367 37.6759 35.7862 35.8295 37.2002 34.8303V32Z" fill="#008259"/>
</g>
</svg>
