<svg width="29" height="20" viewBox="0 0 29 20" fill="none" xmlns="http://www.w3.org/2000/svg">
<mask id="mask0_11482_4977" style="mask-type:alpha" maskUnits="userSpaceOnUse" x="0" y="0" width="29" height="20">
<rect width="29" height="20" fill="#D9D9D9"/>
</mask>
<g mask="url(#mask0_11482_4977)">
<rect width="29" height="20" fill="#008259"/>
<path d="M16.1111 0H19.3333V11.6H29V14.8H19.3333V20H16.1111V14.8L0 14.8V11.6L16.1111 11.6V0Z" fill="#F5F7F8"/>
<path d="M9.66667 0H12.8889V5.2L29 5.2V8.4H12.8889V20H9.66667V8.4L0 8.4V5.2L9.66667 5.2V0Z" fill="#FBD381"/>
<path d="M16.1111 0H12.8889V8.4L0 8.4V11.6H12.8889V20H16.1111V11.6H29V8.4L16.1111 8.4V0Z" fill="#31373D"/>
<circle cx="14.5" cy="10" r="8" fill="#DD2033"/>
<path d="M16.1917 15.2C13.9673 15.2 12.164 13.3967 12.164 11.1722V8.40001H16.1917V15.2Z" fill="#005B33"/>
<path d="M13.7751 4.79999H12.9695V8.39999H12.164V10.4C12.164 12.6091 13.9673 14.4 16.1917 14.4V7.19999C16.1917 5.8745 15.1098 4.79999 13.7751 4.79999Z" fill="#642F6C"/>
<path d="M12.9695 4.79999C12.3022 4.79999 11.7612 5.34098 11.7612 6.00832V6.79999H12.9695V4.79999Z" fill="#FBD381"/>
<path d="M14.9834 8.40001C14.9834 7.73727 15.5244 7.20001 16.1918 7.20001V9.17904L17.6306 13.3397C18.0642 14.5934 17.3923 15.9586 16.13 16.3892L14.3902 11.3585C14.1523 10.6704 14.4139 9.9318 14.9834 9.53213V8.40001Z" fill="#008259"/>
</g>
</svg>
