<svg width="20" height="20" viewBox="0 0 20 20" fill="none" xmlns="http://www.w3.org/2000/svg">
<mask id="mask0_11482_4966" style="mask-type:alpha" maskUnits="userSpaceOnUse" x="0" y="0" width="20" height="20">
<circle cx="10" cy="10" r="10" fill="#D9D9D9"/>
</mask>
<g mask="url(#mask0_11482_4966)">
<rect width="20" height="20" fill="#008259"/>
<path d="M11.1111 0H13.3333V11.1111H20V13.3333H13.3333V20H11.1111V13.3333L0 13.3333V11.1111L11.1111 11.1111V0Z" fill="#F5F7F8"/>
<path d="M6.66667 0H8.88889V6.66667L20 6.66667V8.88889L8.88889 8.88889V20H6.66667V8.88889H0V6.66667L6.66667 6.66667V0Z" fill="#FBD381"/>
<path d="M11.1111 0H8.88889V8.88889H0V11.1111H8.88889V20H11.1111V11.1111H20V8.88889L11.1111 8.88889V0Z" fill="#31373D"/>
<circle cx="10.0001" cy="10" r="5.5" fill="#DD2033"/>
<path d="M11.1667 13.6111C9.63259 13.6111 8.38894 12.3675 8.38894 10.8333V8.88889H11.1667V13.6111Z" fill="#005B33"/>
<path d="M9.50006 6.38889H8.9445V8.88889H8.38895V10.2778C8.38895 11.8119 9.6326 13.0556 11.1667 13.0556V8.05555C11.1667 7.13508 10.4205 6.38889 9.50006 6.38889Z" fill="#642F6C"/>
<path d="M8.9445 6.38889C8.48427 6.38889 8.11117 6.76198 8.11117 7.22222V7.77777H8.9445V6.38889Z" fill="#FBD381"/>
<path d="M10.3334 8.88888C10.3334 8.42864 10.7065 8.05554 11.1667 8.05554V9.42987L12.1591 12.3192C12.4581 13.1898 11.9947 14.1379 11.1241 14.4369L9.92431 10.9434C9.76019 10.4655 9.9406 9.95262 10.3334 9.67507V8.88888Z" fill="#008259"/>
</g>
</svg>
