<svg width="72" height="72" viewBox="0 0 72 72" fill="none" xmlns="http://www.w3.org/2000/svg">
<mask id="mask0_36_3267" style="mask-type:alpha" maskUnits="userSpaceOnUse" x="0" y="0" width="72" height="72">
<circle cx="36" cy="36" r="36" transform="rotate(-90 36 36)" fill="#D9D9D9"/>
</mask>
<g mask="url(#mask0_36_3267)">
<rect width="72" height="72" fill="#005B33"/>
<rect x="36" width="36" height="72" fill="#F5F7F8"/>
<path d="M41 20C45.73 20 49.9806 22.0525 52.9098 25.3154C49.365 19.717 43.1166 16 36 16C24.9543 16 16 24.9543 16 36C16 47.0457 24.9543 56 36 56C43.1166 56 49.365 52.2831 52.9098 46.6846C49.9806 49.9475 45.73 52 41 52C32.1634 52 25 44.8366 25 36C25 27.1635 32.1634 20 41 20Z" fill="#DD2033"/>
<path d="M39.7039 35.3408L36.7782 27.7781L44.3408 30.7039L50.4983 25.942L50.4104 33.908L57.1418 38.5273L49.0936 40.0936L47.5273 48.1418L42.908 41.4104L34.942 41.4983L39.7039 35.3408Z" fill="#DD2033"/>
</g>
</svg>
