<svg width="29" height="20" viewBox="0 0 29 20" fill="none" xmlns="http://www.w3.org/2000/svg">
<mask id="mask0_11482_5005" style="mask-type:alpha" maskUnits="userSpaceOnUse" x="0" y="0" width="29" height="20">
<rect width="29" height="20" fill="#D9D9D9"/>
</mask>
<g mask="url(#mask0_11482_5005)">
<rect width="29" height="20" fill="#005B33"/>
<rect x="14.5" width="14.5" height="20" fill="#F5F7F8"/>
<path d="M16.5139 3.6C18.419 3.6 20.1311 4.421 21.3109 5.72617C19.8831 3.48678 17.3664 2 14.5 2C10.0511 2 6.44446 5.58172 6.44446 10C6.44446 14.4183 10.0511 18 14.5 18C17.3664 18 19.8831 16.5132 21.3109 14.2738C20.1311 15.579 18.419 16.4 16.5139 16.4C12.9547 16.4 10.0695 13.5346 10.0695 10C10.0695 6.46538 12.9547 3.6 16.5139 3.6Z" fill="#DD2033"/>
<path d="M15.9919 9.73631L14.8135 6.71125L17.8595 7.88157L20.3396 5.97678L20.3042 9.16318L23.0155 11.0109L19.7738 11.6374L19.1429 14.8567L17.2824 12.1641L14.0739 12.1993L15.9919 9.73631Z" fill="#DD2033"/>
</g>
</svg>
