<svg width="20" height="20" viewBox="0 0 20 20" fill="none" xmlns="http://www.w3.org/2000/svg">
<mask id="mask0_11482_5000" style="mask-type:alpha" maskUnits="userSpaceOnUse" x="0" y="0" width="20" height="20">
<circle cx="10" cy="10" r="10" transform="rotate(-90 10 10)" fill="#D9D9D9"/>
</mask>
<g mask="url(#mask0_11482_5000)">
<rect width="20" height="20" fill="#005B33"/>
<rect x="10" width="10" height="20" fill="#F5F7F8"/>
<path d="M11.3889 5.55557C12.7028 5.55557 13.8835 6.12571 14.6972 7.03207C13.7125 5.47694 11.9768 4.44446 10 4.44446C6.93176 4.44446 4.44446 6.93176 4.44446 10C4.44446 13.0683 6.93176 15.5556 10 15.5556C11.9768 15.5556 13.7125 14.5231 14.6972 12.968C13.8835 13.8743 12.7028 14.4445 11.3889 14.4445C8.9343 14.4445 6.94446 12.4546 6.94446 10C6.94446 7.54541 8.9343 5.55557 11.3889 5.55557Z" fill="#DD2033"/>
<path d="M11.0289 9.8169L10.2162 7.71616L12.3169 8.52888L14.0273 7.20611L14.0029 9.41889L15.8727 10.702L13.6371 11.1371L13.202 13.3727L11.9189 11.5029L9.70611 11.5273L11.0289 9.8169Z" fill="#DD2033"/>
</g>
</svg>
