<svg width="72" height="72" viewBox="0 0 72 72" fill="none" xmlns="http://www.w3.org/2000/svg">
<mask id="mask0_36_3372" style="mask-type:alpha" maskUnits="userSpaceOnUse" x="0" y="0" width="72" height="72">
<circle cx="36" cy="36" r="36" fill="#D9D9D9"/>
</mask>
<g mask="url(#mask0_36_3372)">
<rect x="0.00012207" y="72.0001" width="18" height="72" transform="rotate(-90 0.00012207 72.0001)" fill="#DD2033"/>
<rect y="36" width="36" height="72" transform="rotate(-90 0 36)" fill="#F1B434"/>
<rect y="54" width="18" height="72" transform="rotate(-90 0 54)" fill="#004692"/>
<path fill-rule="evenodd" clip-rule="evenodd" d="M39.2083 21.4362C38.0692 22.1123 37.4406 23.1376 37.222 23.7987V23.7987C36.7903 25.1046 34.9752 25.1893 34.4237 23.9293V23.9293C33.6395 22.1376 32.1797 21.3418 30.4728 21.0835C28.71 20.8168 26.8247 21.1638 25.6529 21.5727L24.6644 18.7403C26.1677 18.2156 28.5564 17.7594 30.9216 18.1173C32.6256 18.3751 34.3796 19.0739 35.7248 20.5062C36.2374 19.9024 36.8842 19.327 37.6772 18.8564C39.5642 17.7364 42.1353 17.2943 45.389 18.2536L44.5406 21.1312C41.9883 20.3787 40.2942 20.7918 39.2083 21.4362Z" fill="#936846"/>
<path d="M30.2002 33L17.2002 30V41.3376C17.2002 43.7891 19.3854 45.6638 21.8084 45.291L30.2002 44V33Z" fill="#FBD381"/>
<path d="M42.2002 33L55.2002 30V41.3376C55.2002 43.7891 53.015 45.6638 50.592 45.291L42.2002 44V33Z" fill="#FBD381"/>
<path d="M33.2002 31L20.2002 28V39.3376C20.2002 41.7891 22.3854 43.6638 24.8084 43.291L33.2002 42V31Z" fill="#004692"/>
<path d="M39.2002 31L52.2002 28V39.3376C52.2002 41.7891 50.015 43.6638 47.592 43.291L39.2002 42V31Z" fill="#004692"/>
<path d="M23.2002 26L36.2002 29L49.2002 26V37.3376C49.2002 39.7891 47.015 41.6638 44.592 41.291L36.2002 40L27.8084 41.291C25.3854 41.6638 23.2002 39.7891 23.2002 37.3376V26Z" fill="#DD2033"/>
<path d="M42.7884 44.218C41.2635 46.3965 38.9649 48 36.2002 48C33.4354 48 31.1369 46.3965 29.612 44.218C28.0826 42.0332 27.2002 39.1214 27.2002 36C27.2002 32.8786 28.0826 29.9668 29.612 27.782C31.1369 25.6035 33.4354 24 36.2002 24C38.9649 24 41.2635 25.6035 42.7884 27.782C44.3178 29.9668 45.2002 32.8786 45.2002 36C45.2002 39.1214 44.3178 42.0332 42.7884 44.218Z" fill="#0091DA"/>
<path fill-rule="evenodd" clip-rule="evenodd" d="M42.7884 44.218C41.2635 46.3965 38.9649 48 36.2002 48C33.4354 48 31.1369 46.3965 29.612 44.218C28.0826 42.0332 27.2002 39.1214 27.2002 36C27.2002 32.8786 28.0826 29.9668 29.612 27.782C31.1369 25.6035 33.4354 24 36.2002 24C38.9649 24 41.2635 25.6035 42.7884 27.782C44.3178 29.9668 45.2002 32.8786 45.2002 36C45.2002 39.1214 44.3178 42.0332 42.7884 44.218ZM36.2002 46C40.0662 46 43.2002 41.5228 43.2002 36C43.2002 30.4772 40.0662 26 36.2002 26C32.3342 26 29.2002 30.4772 29.2002 36C29.2002 41.5228 32.3342 46 36.2002 46Z" fill="#C1C3C3"/>
<mask id="mask1_36_3372" style="mask-type:alpha" maskUnits="userSpaceOnUse" x="29" y="26" width="15" height="20">
<ellipse cx="36.2002" cy="36" rx="7" ry="10" fill="#D9D9D9"/>
</mask>
<g mask="url(#mask1_36_3372)">
<path d="M33.6001 37L29.6001 43L28.6001 37H33.6001Z" fill="#008259"/>
<path d="M33.6001 37L42.4001 43L44.6001 37H33.6001Z" fill="#008259"/>
<path d="M35.6001 33L40.6001 37H27.6001L29.1001 32L33.6001 34L35.6001 33Z" fill="#F5F7F8"/>
</g>
</g>
</svg>
