<svg width="29" height="20" viewBox="0 0 29 20" fill="none" xmlns="http://www.w3.org/2000/svg">
<mask id="mask0_11482_5026" style="mask-type:alpha" maskUnits="userSpaceOnUse" x="0" y="0" width="29" height="20">
<rect width="29" height="20" fill="#D9D9D9"/>
</mask>
<g mask="url(#mask0_11482_5026)">
<rect y="20" width="2.8" height="29" transform="rotate(-90 0 20)" fill="#DD2033"/>
<rect y="10" width="10" height="29" transform="rotate(-90 0 10)" fill="#F1B434"/>
<rect y="17.2" width="7.2" height="29" transform="rotate(-90 0 17.2)" fill="#004692"/>
<path fill-rule="evenodd" clip-rule="evenodd" d="M15.7923 5.37447C15.3334 5.6449 15.0803 6.05501 14.9922 6.31947C14.8177 6.84386 14.0877 6.87679 13.8651 6.37169C13.5493 5.65503 12.9613 5.3367 12.2738 5.23339C11.5638 5.12669 10.8044 5.26549 10.3325 5.42908L9.93429 4.2961C10.5398 4.08623 11.5019 3.90374 12.4546 4.04689C13.1409 4.15003 13.8474 4.42955 14.3892 5.00246C14.5956 4.76095 14.8562 4.53079 15.1756 4.34253C15.9356 3.89455 16.9712 3.71771 18.2817 4.10145L17.94 5.25246C16.912 4.95145 16.2296 5.11669 15.7923 5.37447Z" fill="#936846"/>
<path d="M12.164 9.99999L6.92786 8.79999V13.335C6.92786 14.3156 7.808 15.0655 8.78395 14.9164L12.164 14.4V9.99999Z" fill="#FBD381"/>
<path d="M16.9973 9.99999L22.2334 8.79999V13.335C22.2334 14.3156 21.3533 15.0655 20.3773 14.9164L16.9973 14.4V9.99999Z" fill="#FBD381"/>
<path d="M13.3723 9.2L8.13617 8V12.535C8.13617 13.5156 9.01632 14.2655 9.99226 14.1164L13.3723 13.6V9.2Z" fill="#004692"/>
<path d="M15.7889 9.2L21.0251 8V12.535C21.0251 13.5156 20.1449 14.2655 19.169 14.1164L15.7889 13.6V9.2Z" fill="#004692"/>
<path d="M9.34454 7.20001L14.5807 8.40001L19.8168 7.20001V11.735C19.8168 12.7157 18.9366 13.4655 17.9607 13.3164L14.5807 12.8L11.2006 13.3164C10.2247 13.4655 9.34454 12.7157 9.34454 11.735V7.20001Z" fill="#DD2033"/>
<path d="M17.2342 14.4872C16.62 15.3586 15.6942 16 14.5806 16C13.467 16 12.5413 15.3586 11.927 14.4872C11.311 13.6133 10.9556 12.4486 10.9556 11.2C10.9556 9.95141 11.311 8.78672 11.927 7.9128C12.5413 7.0414 13.467 6.39999 14.5806 6.39999C15.6942 6.39999 16.62 7.0414 17.2342 7.9128C17.8502 8.78672 18.2056 9.95141 18.2056 11.2C18.2056 12.4486 17.8502 13.6133 17.2342 14.4872Z" fill="#0091DA"/>
<path fill-rule="evenodd" clip-rule="evenodd" d="M17.2342 14.4872C16.62 15.3586 15.6942 16 14.5806 16C13.467 16 12.5413 15.3586 11.927 14.4872C11.311 13.6133 10.9556 12.4486 10.9556 11.2C10.9556 9.95141 11.311 8.78672 11.927 7.9128C12.5413 7.0414 13.467 6.39999 14.5806 6.39999C15.6942 6.39999 16.62 7.0414 17.2342 7.9128C17.8502 8.78672 18.2056 9.95141 18.2056 11.2C18.2056 12.4486 17.8502 13.6133 17.2342 14.4872ZM14.5806 15.2C16.1378 15.2 17.4001 13.4091 17.4001 11.2C17.4001 8.99085 16.1378 7.19999 14.5806 7.19999C13.0235 7.19999 11.7612 8.99085 11.7612 11.2C11.7612 13.4091 13.0235 15.2 14.5806 15.2Z" fill="#C1C3C3"/>
<mask id="mask1_11482_5026" style="mask-type:alpha" maskUnits="userSpaceOnUse" x="11" y="7" width="7" height="9">
<ellipse cx="14.5806" cy="11.2" rx="2.81944" ry="4" fill="#D9D9D9"/>
</mask>
<g mask="url(#mask1_11482_5026)">
<path d="M13.5334 11.6L11.9222 14L11.5195 11.6H13.5334Z" fill="#008259"/>
<path d="M13.5334 11.6L17.0778 14L17.9639 11.6H13.5334Z" fill="#008259"/>
<path d="M14.3389 10L16.3528 11.6H11.1167L11.7209 9.60001L13.5334 10.4L14.3389 10Z" fill="#F5F7F8"/>
</g>
</g>
</svg>
