<svg width="20" height="20" viewBox="0 0 20 20" fill="none" xmlns="http://www.w3.org/2000/svg">
<mask id="mask0_11482_5011" style="mask-type:alpha" maskUnits="userSpaceOnUse" x="0" y="0" width="20" height="20">
<circle cx="10" cy="10" r="10" fill="#D9D9D9"/>
</mask>
<g mask="url(#mask0_11482_5011)">
<rect x="0.00012207" y="20" width="5" height="20" transform="rotate(-90 0.00012207 20)" fill="#DD2033"/>
<rect y="10" width="10" height="20" transform="rotate(-90 0 10)" fill="#F1B434"/>
<rect y="15" width="5" height="20" transform="rotate(-90 0 15)" fill="#004692"/>
<path fill-rule="evenodd" clip-rule="evenodd" d="M10.8912 5.95449C10.5748 6.14229 10.4002 6.42709 10.3395 6.61074C10.2195 6.97349 9.71536 6.99701 9.56217 6.64701C9.34434 6.14932 8.93882 5.92826 8.4647 5.85652C7.97503 5.78242 7.45133 5.87881 7.12584 5.99241L6.85124 5.20562C7.26883 5.05988 7.93236 4.93315 8.58937 5.03256C9.0627 5.10418 9.54992 5.29829 9.92359 5.69615C10.066 5.52844 10.2456 5.3686 10.4659 5.23787C10.9901 4.92677 11.7043 4.80397 12.6081 5.07045L12.3724 5.86976C11.6635 5.66073 11.1929 5.77548 10.8912 5.95449Z" fill="#936846"/>
<path d="M8.38894 9.16668L4.77783 8.33334V11.4827C4.77783 12.1636 5.38483 12.6844 6.0579 12.5809L8.38894 12.2222V9.16668Z" fill="#FBD381"/>
<path d="M11.7223 9.16668L15.3334 8.33334V11.4827C15.3334 12.1636 14.7264 12.6844 14.0533 12.5809L11.7223 12.2222V9.16668Z" fill="#FBD381"/>
<path d="M9.22226 8.6111L5.61115 7.77777V10.9271C5.61115 11.6081 6.21814 12.1288 6.89121 12.0253L9.22226 11.6667V8.6111Z" fill="#004692"/>
<path d="M10.8889 8.6111L14.5 7.77777V10.9271C14.5 11.6081 13.893 12.1288 13.22 12.0253L10.8889 11.6667V8.6111Z" fill="#004692"/>
<path d="M6.44452 7.22223L10.0556 8.05556L13.6667 7.22223V10.3715C13.6667 11.0525 13.0597 11.5733 12.3867 11.4697L10.0556 11.1111L7.72458 11.4697C7.05152 11.5733 6.44452 11.0525 6.44452 10.3715V7.22223Z" fill="#DD2033"/>
<path d="M11.8857 12.2828C11.4621 12.8879 10.8236 13.3333 10.0556 13.3333C9.28762 13.3333 8.64914 12.8879 8.22554 12.2828C7.80072 11.6759 7.5556 10.8671 7.5556 9.99999C7.5556 9.13292 7.80072 8.3241 8.22554 7.71721C8.64914 7.11208 9.28762 6.66666 10.0556 6.66666C10.8236 6.66666 11.4621 7.11208 11.8857 7.71721C12.3105 8.3241 12.5556 9.13292 12.5556 9.99999C12.5556 10.8671 12.3105 11.6759 11.8857 12.2828Z" fill="#0091DA"/>
<path fill-rule="evenodd" clip-rule="evenodd" d="M11.8857 12.2828C11.4621 12.8879 10.8236 13.3333 10.0556 13.3333C9.28762 13.3333 8.64914 12.8879 8.22554 12.2828C7.80072 11.6759 7.5556 10.8671 7.5556 9.99999C7.5556 9.13292 7.80072 8.3241 8.22554 7.71721C8.64914 7.11208 9.28762 6.66666 10.0556 6.66666C10.8236 6.66666 11.4621 7.11208 11.8857 7.71721C12.3105 8.3241 12.5556 9.13292 12.5556 9.99999C12.5556 10.8671 12.3105 11.6759 11.8857 12.2828ZM10.0556 12.7778C11.1295 12.7778 12 11.5341 12 9.99999C12 8.46587 11.1295 7.22221 10.0556 7.22221C8.98172 7.22221 8.11116 8.46587 8.11116 9.99999C8.11116 11.5341 8.98172 12.7778 10.0556 12.7778Z" fill="#C1C3C3"/>
<mask id="mask1_11482_5011" style="mask-type:alpha" maskUnits="userSpaceOnUse" x="8" y="7" width="4" height="6">
<ellipse cx="10.0556" cy="10" rx="1.94444" ry="2.77778" fill="#D9D9D9"/>
</mask>
<g mask="url(#mask1_11482_5011)">
<path d="M9.33335 10.2778L8.22224 11.9444L7.94446 10.2778H9.33335Z" fill="#008259"/>
<path d="M9.33335 10.2778L11.7778 11.9444L12.3889 10.2778H9.33335Z" fill="#008259"/>
<path d="M9.88891 9.16666L11.2778 10.2778H7.66669L8.08335 8.88889L9.33335 9.44444L9.88891 9.16666Z" fill="#F5F7F8"/>
</g>
</g>
</svg>
