<svg width="72" height="72" viewBox="0 0 72 72" fill="none" xmlns="http://www.w3.org/2000/svg">
<mask id="mask0_36_4076" style="mask-type:alpha" maskUnits="userSpaceOnUse" x="0" y="0" width="72" height="72">
<circle cx="36" cy="36" r="36" fill="#D9D9D9"/>
</mask>
<g mask="url(#mask0_36_4076)">
<rect x="0.00012207" y="72.0001" width="24" height="72" transform="rotate(-90 0.00012207 72.0001)" fill="#31373D"/>
<rect x="0.00012207" y="47.9999" width="24" height="72" transform="rotate(-90 0.00012207 47.9999)" fill="#F5F7F8"/>
<rect x="0.00012207" y="23.9999" width="24" height="72" transform="rotate(-90 0.00012207 23.9999)" fill="#DD2033"/>
<path d="M31 16H35C38.3137 16 41 18.6863 41 22V27.083C43.8377 27.559 46 30.027 46 33V52L37.4856 48.5942C36.5319 48.2128 35.4681 48.2128 34.5144 48.5942L26 52V33C26 30.027 28.1623 27.559 31 27.083V16Z" fill="#F1B434"/>
<path d="M33.8012 51.5117L28 55.5H44.5L38.2403 51.4496C36.8838 50.5719 35.1325 50.5964 33.8012 51.5117Z" fill="#F1B434"/>
</g>
</svg>
