<svg width="20" height="20" viewBox="0 0 20 20" fill="none" xmlns="http://www.w3.org/2000/svg">
<mask id="mask0_11482_5053" style="mask-type:alpha" maskUnits="userSpaceOnUse" x="0" y="0" width="20" height="20">
<circle cx="10" cy="10" r="10" fill="#D9D9D9"/>
</mask>
<g mask="url(#mask0_11482_5053)">
<rect x="0.500122" y="19.5001" width="5.66667" height="19" transform="rotate(-90 0.500122 19.5001)" fill="#31373D" stroke="#31373D"/>
<rect x="0.00012207" y="13.3333" width="6.66667" height="20" transform="rotate(-90 0.00012207 13.3333)" fill="#F5F7F8"/>
<rect x="0.00012207" y="6.66663" width="6.66667" height="20" transform="rotate(-90 0.00012207 6.66663)" fill="#DD2033"/>
<path d="M8.61112 4.44446H9.72223C10.6427 4.44446 11.3889 5.19065 11.3889 6.11112V7.52306C12.1771 7.6553 12.7778 8.34085 12.7778 9.16668V14.4445L10.4127 13.4984C10.1478 13.3924 9.85225 13.3924 9.58735 13.4984L7.22223 14.4445V9.16668C7.22223 8.34085 7.82286 7.6553 8.61112 7.52306V4.44446Z" fill="#F1B434"/>
<path d="M9.38922 14.3088L7.77778 15.4167H12.3611L10.6223 14.2916C10.2455 14.0478 9.75904 14.0546 9.38922 14.3088Z" fill="#F1B434"/>
</g>
</svg>
