<svg width="29" height="20" viewBox="0 0 29 20" fill="none" xmlns="http://www.w3.org/2000/svg">
<mask id="mask0_11482_5059" style="mask-type:alpha" maskUnits="userSpaceOnUse" x="0" y="0" width="29" height="20">
<rect width="29" height="20" fill="#D9D9D9"/>
</mask>
<g mask="url(#mask0_11482_5059)">
<rect x="0.500244" y="19.5" width="5.4" height="28" transform="rotate(-90 0.500244 19.5)" fill="#31373D" stroke="#31373D"/>
<rect x="0.000244141" y="13.6" width="7.2" height="29" transform="rotate(-90 0.000244141 13.6)" fill="#F5F7F8"/>
<rect y="6.39999" width="6.4" height="29" transform="rotate(-90 0 6.39999)" fill="#DD2033"/>
<path d="M12.4861 2H14.0972C15.4319 2 16.5139 3.07452 16.5139 4.4V6.43318C17.6569 6.62361 18.5278 7.6108 18.5278 8.8V16.4L15.0984 15.0377C14.7143 14.8851 14.2858 14.8851 13.9017 15.0377L10.4722 16.4V8.8C10.4722 7.6108 11.3432 6.62361 12.4861 6.43318V2Z" fill="#F1B434"/>
<path d="M13.6144 16.2047L11.2778 17.8H17.9236L15.4023 16.1798C14.856 15.8288 14.1506 15.8386 13.6144 16.2047Z" fill="#F1B434"/>
</g>
</svg>
