<svg width="20" height="20" viewBox="0 0 20 20" fill="none" xmlns="http://www.w3.org/2000/svg">
<mask id="mask0_11482_5066" style="mask-type:alpha" maskUnits="userSpaceOnUse" x="0" y="0" width="20" height="20">
<circle cx="10" cy="10" r="10" fill="#D9D9D9"/>
</mask>
<g mask="url(#mask0_11482_5066)">
<rect x="0.00012207" y="20.0001" width="6.11111" height="20" transform="rotate(-90 0.00012207 20.0001)" fill="#005B33"/>
<rect y="13.8889" width="7.77778" height="20" transform="rotate(-90 0 13.8889)" fill="#F5F7F8"/>
<rect y="6.11111" width="6.11111" height="20" transform="rotate(-90 0 6.11111)" fill="#31373D"/>
<path d="M0 2.5V17.5H0.555556L3.88889 15L10.5556 10L3.88889 5L0.555556 2.5H0Z" fill="#DD2033"/>
<path d="M12.7778 9.99999C12.7778 8.96453 13.486 8.09447 14.4444 7.84778C14.2669 7.80208 14.0807 7.77777 13.8889 7.77777C12.6616 7.77777 11.6667 8.77269 11.6667 9.99999C11.6667 11.2273 12.6616 12.2222 13.8889 12.2222C14.0807 12.2222 14.2669 12.1979 14.4444 12.1522C13.486 11.9055 12.7778 11.0355 12.7778 9.99999Z" fill="#DD2033"/>
<path d="M15.6143 9.45702L16.1111 8.33333L16.6079 9.45702L17.7778 9.60654L16.9149 10.4506L17.1412 11.6667L16.1111 10.9722L15.081 11.6667L15.3073 10.4506L14.4444 9.60654L15.6143 9.45702Z" fill="#DD2033"/>
</g>
</svg>
