<svg width="29" height="20" viewBox="0 0 29 20" fill="none" xmlns="http://www.w3.org/2000/svg">
<mask id="mask0_11482_5073" style="mask-type:alpha" maskUnits="userSpaceOnUse" x="0" y="0" width="29" height="20">
<rect width="29" height="20" fill="#D9D9D9"/>
</mask>
<g mask="url(#mask0_11482_5073)">
<rect y="20" width="6" height="29" transform="rotate(-90 0 20)" fill="#005B33"/>
<rect y="14" width="8" height="29" transform="rotate(-90 0 14)" fill="#F5F7F8"/>
<rect y="6" width="6" height="29" transform="rotate(-90 0 6)" fill="#31373D"/>
<path d="M-2.01389 -0.799988V20.8H-1.20833L3.625 17.2L13.2917 10L3.625 2.80001L-1.20833 -0.799988H-2.01389Z" fill="#DD2033"/>
<path d="M18.125 9.99999C18.125 8.50892 19.1519 7.25604 20.5417 6.9008C20.2842 6.83499 20.0143 6.79999 19.7361 6.79999C17.9565 6.79999 16.5139 8.23268 16.5139 9.99999C16.5139 11.7673 17.9565 13.2 19.7361 13.2C20.0143 13.2 20.2842 13.165 20.5417 13.0992C19.1519 12.7439 18.125 11.4911 18.125 9.99999Z" fill="#DD2033"/>
<path d="M22.238 9.21811L22.9583 7.59999L23.6787 9.21811L25.375 9.43341L24.1238 10.6488L24.4519 12.4L22.9583 11.4L21.4647 12.4L21.7928 10.6488L20.5417 9.43341L22.238 9.21811Z" fill="#DD2033"/>
</g>
</svg>
