<svg width="20" height="20" viewBox="0 0 20 20" fill="none" xmlns="http://www.w3.org/2000/svg">
<mask id="mask0_11482_5081" style="mask-type:alpha" maskUnits="userSpaceOnUse" x="0" y="0" width="20" height="20">
<circle cx="10" cy="10" r="10" fill="#D9D9D9"/>
</mask>
<g mask="url(#mask0_11482_5081)">
<rect width="20" height="10" fill="#009B77"/>
<rect y="20" width="10" height="20" transform="rotate(-90 0 20)" fill="#0091DA"/>
<path d="M20 10L0 0V20L20 10Z" fill="#DD2033"/>
<path d="M6.66666 13.8889C8.81443 13.8889 10.5555 12.1478 10.5555 10C10.5555 8.92611 10.1203 7.95389 9.41651 7.25014L8.63084 8.03581C9.13352 8.53849 9.44444 9.23294 9.44444 10C9.44444 11.3439 8.49013 12.4648 7.22222 12.7222V8.33334H6.1111V12.7222C4.84319 12.4648 3.88888 11.3439 3.88888 10C3.88888 9.23295 4.19979 8.53851 4.70246 8.03583L3.91678 7.25016C3.21304 7.95391 2.77777 8.92612 2.77777 10C2.77777 12.1478 4.51889 13.8889 6.66666 13.8889Z" fill="#FBD381"/>
<path d="M6.66666 6.11111L6.67487 6.11112H6.65845L6.66666 6.11111Z" fill="#FBD381"/>
</g>
</svg>
