<svg width="29" height="20" viewBox="0 0 29 20" fill="none" xmlns="http://www.w3.org/2000/svg">
<mask id="mask0_11482_5087" style="mask-type:alpha" maskUnits="userSpaceOnUse" x="0" y="0" width="29" height="20">
<rect width="29" height="20" fill="#D9D9D9"/>
</mask>
<g mask="url(#mask0_11482_5087)">
<rect width="29" height="10" fill="#009B77"/>
<rect y="20" width="10" height="29" transform="rotate(-90 0 20)" fill="#0091DA"/>
<path d="M29 10L0 0V20L29 10Z" fill="#DD2033"/>
<path d="M8.05556 14.4C10.7249 14.4 12.8889 12.251 12.8889 9.59999C12.8889 8.2745 12.3479 7.0745 11.4732 6.20587L10.4968 7.17561C11.1215 7.79606 11.5079 8.65321 11.5079 9.59999C11.5079 11.2587 10.3219 12.6423 8.74604 12.96V7.54284H7.36509V12.96C5.78925 12.6423 4.60318 11.2587 4.60318 9.59999C4.60318 8.65322 4.98959 7.79609 5.61434 7.17564L4.63786 6.2059C3.76321 7.07452 3.22223 8.27451 3.22223 9.59999C3.22223 12.251 5.38619 14.4 8.05556 14.4Z" fill="#FBD381"/>
<path d="M8.05556 4.79999L8.06576 4.8H8.04536L8.05556 4.79999Z" fill="#FBD381"/>
</g>
</svg>
