<svg width="72" height="72" viewBox="0 0 72 72" fill="none" xmlns="http://www.w3.org/2000/svg">
<mask id="mask0_36_4846" style="mask-type:alpha" maskUnits="userSpaceOnUse" x="0" y="0" width="73" height="73">
<circle cx="36.0001" cy="36.0001" r="36" transform="rotate(180 36.0001 36.0001)" fill="#D9D9D9"/>
</mask>
<g mask="url(#mask0_36_4846)">
<rect width="72" height="72" fill="#A00009"/>
<rect x="72.0001" y="18.0001" width="36" height="72" transform="rotate(90 72.0001 18.0001)" fill="#F1B434"/>
<path fill-rule="evenodd" clip-rule="evenodd" d="M22.6002 19.6668H24.6002V21.0001L26.6002 21.0001V23.0001H24.6002V24.8686C25.1886 24.5283 25.8716 24.3335 26.6002 24.3335C28.8094 24.3335 30.6002 26.1243 30.6002 28.3335C30.6002 29.5182 30.0852 30.5826 29.2668 31.315V33.0001H17.9335V31.3149C17.1152 30.5824 16.6002 29.5181 16.6002 28.3335C16.6002 26.1243 18.3911 24.3335 20.6002 24.3335C21.3288 24.3335 22.0119 24.5283 22.6002 24.8686V23.0001H20.6002V21.0001L22.6002 21.0001V19.6668ZM23.6002 25.6876L23.5817 25.6668H23.6187L23.6002 25.6876ZM23.5817 31.0001L23.6002 30.9793L23.6188 31.0001H23.5817Z" fill="#E26E00"/>
<path d="M14.6002 33.0001L32.6002 33.0001L32.6002 42.822C32.6002 46.7755 30.2005 50.3334 26.5348 51.8144C24.6523 52.575 22.5481 52.575 20.6656 51.8144C17 50.3334 14.6002 46.7755 14.6002 42.822L14.6002 33.0001Z" fill="#F5F7F8"/>
<mask id="mask1_36_4846" style="mask-type:alpha" maskUnits="userSpaceOnUse" x="14" y="33" width="19" height="20">
<path d="M14.6002 33.0001H32.6002V42.822C32.6002 46.7755 30.2005 50.3334 26.5348 51.8144C24.6523 52.575 22.5481 52.575 20.6656 51.8144C17 50.3334 14.6002 46.7755 14.6002 42.822V33.0001Z" fill="#F5F7F8"/>
</mask>
<g mask="url(#mask1_36_4846)">
<rect x="14.6002" y="33.0001" width="9" height="10" fill="#DD2033"/>
<rect x="14.6002" y="43.0001" width="9" height="10" fill="#E26E00"/>
<rect x="23.6002" y="43.0001" width="9" height="10" fill="#DD2033"/>
</g>
<path d="M34.6002 33.0001H37.6002V52.0001H34.6002V33.0001Z" fill="#F5F7F8"/>
<path d="M9.60034 33.0001H12.6003V52.0001H9.60034V33.0001Z" fill="#F5F7F8"/>
</g>
</svg>
