<svg width="29" height="20" viewBox="0 0 29 20" fill="none" xmlns="http://www.w3.org/2000/svg">
<mask id="mask0_11482_5106" style="mask-type:alpha" maskUnits="userSpaceOnUse" x="0" y="0" width="29" height="20">
<rect width="29" height="20" fill="#D9D9D9"/>
</mask>
<g mask="url(#mask0_11482_5106)">
<rect width="29" height="20" fill="#A00009"/>
<rect x="29" y="4" width="12" height="29" transform="rotate(90 29 4)" fill="#F1B434"/>
<path fill-rule="evenodd" clip-rule="evenodd" d="M7.95082 4.79999H8.57915V5.21599L9.20749 5.21599V5.83999H8.57915V6.42295C8.76399 6.31676 8.97859 6.25599 9.20749 6.25599C9.90153 6.25599 10.4642 6.81473 10.4642 7.50399C10.4642 7.87361 10.3023 8.20571 10.0452 8.43423V8.95999H6.48468V8.43418C6.2276 8.20567 6.06582 7.87359 6.06582 7.50399C6.06582 6.81473 6.62845 6.25599 7.32249 6.25599C7.55138 6.25599 7.76598 6.31676 7.95082 6.42295V5.83999H7.32249V5.21599L7.95082 5.21599V4.79999ZM8.26499 6.67849L8.25917 6.67199H8.2708L8.26499 6.67849ZM8.25917 8.33599L8.26499 8.32948L8.27081 8.33599H8.25917Z" fill="#E26E00"/>
<path d="M5.43752 8.95999L11.0925 8.95999L11.0925 12.0059C11.0925 13.25 10.3358 14.3691 9.18107 14.8324C8.59315 15.0683 7.93688 15.0683 7.34896 14.8324C6.19428 14.3691 5.43752 13.25 5.43752 12.0059L5.43752 8.95999Z" fill="#F5F7F8"/>
<mask id="mask1_11482_5106" style="mask-type:alpha" maskUnits="userSpaceOnUse" x="5" y="8" width="7" height="8">
<path d="M5.43752 8.95999H11.0925V12.0059C11.0925 13.25 10.3358 14.3691 9.18108 14.8324C8.59316 15.0683 7.93689 15.0683 7.34897 14.8324C6.19429 14.3691 5.43752 13.25 5.43752 12.0059V8.95999Z" fill="#F5F7F8"/>
</mask>
<g mask="url(#mask1_11482_5106)">
<rect x="5.43752" y="8.95999" width="2.8275" height="3.12" fill="#DD2033"/>
<rect x="5.43753" y="12.08" width="2.8275" height="3.12" fill="#E26E00"/>
<rect x="8.26511" y="12.08" width="2.8275" height="3.12" fill="#DD2033"/>
</g>
<path d="M11.7209 8.95999H12.6634V14.888H11.7209V8.95999Z" fill="#F5F7F8"/>
<path d="M3.86681 8.95999H4.80931V14.888H3.86681V8.95999Z" fill="#F5F7F8"/>
</g>
</svg>
