<svg width="20" height="20" viewBox="0 0 20 20" fill="none" xmlns="http://www.w3.org/2000/svg">
<mask id="mask0_11482_5094" style="mask-type:alpha" maskUnits="userSpaceOnUse" x="0" y="0" width="20" height="20">
<circle cx="10" cy="10.0001" r="10" transform="rotate(180 10 10.0001)" fill="#D9D9D9"/>
</mask>
<g mask="url(#mask0_11482_5094)">
<rect width="20" height="20" fill="#A00009"/>
<rect x="20" y="5.00003" width="10" height="20" transform="rotate(90 20 5.00003)" fill="#F1B434"/>
<path fill-rule="evenodd" clip-rule="evenodd" d="M6.27784 5.46301H6.83339V5.83338L7.38895 5.83338V6.38894H6.83339V6.90795C6.99682 6.81341 7.18657 6.75931 7.38895 6.75931C8.0026 6.75931 8.50006 7.25677 8.50006 7.87042C8.50006 8.1995 8.357 8.49517 8.12967 8.69862V9.16671H4.98152V8.69858C4.75422 8.49513 4.61117 8.19948 4.61117 7.87042C4.61117 7.25677 5.10863 6.75931 5.72228 6.75931C5.92466 6.75931 6.11441 6.81341 6.27784 6.90795V6.38894H5.72228V5.83338L6.27784 5.83338V5.46301ZM6.55562 7.13547L6.55047 7.12968H6.56076L6.55562 7.13547ZM6.55047 8.61116L6.55562 8.60537L6.56076 8.61116H6.55047Z" fill="#E26E00"/>
<path d="M4.05561 9.16669L9.05561 9.16669L9.05561 11.895C9.05561 12.9932 8.38901 13.9815 7.37078 14.3929C6.84787 14.6042 6.26335 14.6042 5.74044 14.3929C4.72221 13.9815 4.05561 12.9932 4.05561 11.895L4.05561 9.16669Z" fill="#F5F7F8"/>
<mask id="mask1_11482_5094" style="mask-type:alpha" maskUnits="userSpaceOnUse" x="4" y="9" width="6" height="6">
<path d="M4.05561 9.16672H9.05561V11.895C9.05561 12.9932 8.38901 13.9815 7.37078 14.3929C6.84787 14.6042 6.26335 14.6042 5.74044 14.3929C4.72221 13.9815 4.05561 12.9932 4.05561 11.895V9.16672Z" fill="#F5F7F8"/>
</mask>
<g mask="url(#mask1_11482_5094)">
<rect x="4.05561" y="9.16672" width="2.5" height="2.77778" fill="#DD2033"/>
<rect x="4.05561" y="11.9445" width="2.5" height="2.77778" fill="#E26E00"/>
<rect x="6.55561" y="11.9445" width="2.5" height="2.77778" fill="#DD2033"/>
</g>
<path d="M9.61116 9.16669H10.4445V14.4445H9.61116V9.16669Z" fill="#F5F7F8"/>
<path d="M2.66676 9.16669H3.50009V14.4445H2.66676V9.16669Z" fill="#F5F7F8"/>
</g>
</svg>
