<svg width="72" height="72" viewBox="0 0 72 72" fill="none" xmlns="http://www.w3.org/2000/svg">
<mask id="mask0_36_5081" style="mask-type:alpha" maskUnits="userSpaceOnUse" x="0" y="0" width="72" height="72">
<circle cx="36" cy="36" r="36" fill="#D9D9D9"/>
</mask>
<g mask="url(#mask0_36_5081)">
<rect x="0.00012207" y="72.0001" width="24" height="72" transform="rotate(-90 0.00012207 72.0001)" fill="#DD2033"/>
<rect x="0.00012207" y="47.9999" width="24" height="72" transform="rotate(-90 0.00012207 47.9999)" fill="#FBD381"/>
<rect x="0.00012207" y="23.9999" width="24" height="72" transform="rotate(-90 0.00012207 23.9999)" fill="#009B77"/>
<circle cx="36" cy="36" r="20" fill="#004692"/>
<path d="M32.7212 32.4164L36.0001 25L39.2788 32.4164L47 33.4032L41.3051 38.9738L42.7985 47L36 42.4167L29.2015 47L30.695 38.9738L25 33.4032L32.7212 32.4164Z" fill="#FBD381"/>
<path d="M29.0712 26.063L31.1186 28.6222L30.6619 29.6552L28.3404 29.9519L26.7286 27.9371L29.0712 26.063Z" fill="#FBD381"/>
<path d="M23.2749 41.1364L26.9116 39.4696L27.4528 39.999L26.9396 42.7569L24.5249 43.8636L23.2749 41.1364Z" fill="#FBD381"/>
<path d="M34.3999 50V47.1135L36.0001 46.0347L37.3999 46.9785V50H34.3999Z" fill="#FBD381"/>
<path d="M47.2749 43.8636L45.0792 42.8573L44.5473 39.999L45.0246 39.5321L48.5249 41.1364L47.2749 43.8636Z" fill="#FBD381"/>
<path d="M45.0928 27.4091L43.2002 29.8932L41.3382 29.6552L40.7036 28.2198L42.7065 25.5909L45.0928 27.4091Z" fill="#FBD381"/>
</g>
</svg>
