<svg width="29" height="20" viewBox="0 0 29 20" fill="none" xmlns="http://www.w3.org/2000/svg">
<mask id="mask0_11482_5127" style="mask-type:alpha" maskUnits="userSpaceOnUse" x="0" y="0" width="29" height="20">
<rect width="29" height="20" fill="#D9D9D9"/>
</mask>
<g mask="url(#mask0_11482_5127)">
<rect x="0.000244141" y="20" width="6.4" height="29" transform="rotate(-90 0.000244141 20)" fill="#DD2033"/>
<rect x="0.000244141" y="13.6" width="7.2" height="29" transform="rotate(-90 0.000244141 13.6)" fill="#FBD381"/>
<rect y="6.39999" width="6.4" height="29" transform="rotate(-90 0 6.39999)" fill="#009B77"/>
<ellipse cx="14.5" cy="10" rx="8.05556" ry="8" fill="#004692"/>
<path d="M13.1794 8.56657L14.5 5.60001L15.8206 8.56657L18.9305 8.96129L16.6368 11.1895L17.2383 14.4L14.5 12.5667L11.7617 14.4L12.3633 11.1895L10.0694 8.96129L13.1794 8.56657Z" fill="#FBD381"/>
<path d="M11.7092 6.0252L12.5339 7.04891L12.3499 7.46208L11.4149 7.58076L10.7657 6.77484L11.7092 6.0252Z" fill="#FBD381"/>
<path d="M9.3746 12.0546L10.8394 11.3878L11.0574 11.5996L10.8507 12.7028L9.87806 13.1455L9.3746 12.0546Z" fill="#FBD381"/>
<path d="M13.8555 15.6V14.4454L14.5 14.0139L15.0638 14.3914V15.6H13.8555Z" fill="#FBD381"/>
<path d="M19.0413 13.1455L18.1569 12.7429L17.9427 11.5996L18.1349 11.4129L19.5447 12.0546L19.0413 13.1455Z" fill="#FBD381"/>
<path d="M18.1624 6.56364L17.4001 7.55727L16.6501 7.46208L16.3945 6.88791L17.2012 5.83638L18.1624 6.56364Z" fill="#FBD381"/>
</g>
</svg>
