<svg width="20" height="20" viewBox="0 0 20 20" fill="none" xmlns="http://www.w3.org/2000/svg">
<mask id="mask0_11482_5120" style="mask-type:alpha" maskUnits="userSpaceOnUse" x="0" y="0" width="20" height="20">
<circle cx="10" cy="10" r="10" fill="#D9D9D9"/>
</mask>
<g mask="url(#mask0_11482_5120)">
<rect x="0.00012207" y="20.0001" width="6.66667" height="20" transform="rotate(-90 0.00012207 20.0001)" fill="#DD2033"/>
<rect x="0.00012207" y="13.3333" width="6.66667" height="20" transform="rotate(-90 0.00012207 13.3333)" fill="#FBD381"/>
<rect x="0.00012207" y="6.66663" width="6.66667" height="20" transform="rotate(-90 0.00012207 6.66663)" fill="#009B77"/>
<circle cx="10" cy="10" r="5.55556" fill="#004692"/>
<path d="M9.08922 9.00457L10 6.94446L10.9108 9.00457L13.0555 9.27868L11.4736 10.8261L11.8885 13.0556L9.99999 11.7824L8.11152 13.0556L8.52638 10.8261L6.94443 9.27868L9.08922 9.00457Z" fill="#FBD381"/>
<path d="M8.07532 7.23973L8.64404 7.95064L8.51719 8.23757L7.87233 8.31998L7.4246 7.76031L8.07532 7.23973Z" fill="#FBD381"/>
<path d="M6.46524 11.4268L7.47544 10.9638L7.62577 11.1108L7.48322 11.8769L6.81245 12.1844L6.46524 11.4268Z" fill="#FBD381"/>
<path d="M9.55552 13.8889V13.0871L10 12.7874L10.3889 13.0496V13.8889H9.55552Z" fill="#FBD381"/>
<path d="M13.1319 12.1844L12.522 11.9048L12.3742 11.1108L12.5068 10.9812L13.4791 11.4268L13.1319 12.1844Z" fill="#FBD381"/>
<path d="M12.5258 7.61364L12 8.30367L11.4828 8.23757L11.3066 7.83884L11.8629 7.10861L12.5258 7.61364Z" fill="#FBD381"/>
</g>
</svg>
