<svg width="72" height="72" viewBox="0 0 72 72" fill="none" xmlns="http://www.w3.org/2000/svg">
<mask id="mask0_36_5238" style="mask-type:alpha" maskUnits="userSpaceOnUse" x="0" y="0" width="72" height="72">
<circle cx="36" cy="36" r="36" transform="rotate(-90 36 36)" fill="#D9D9D9"/>
</mask>
<g mask="url(#mask0_36_5238)">
<rect width="72" height="72" fill="#004692"/>
<path d="M35.9668 8.56668L34.1784 12.612L29.9668 13.1502L33.0732 16.1888L32.2585 20.5667L35.9668 18.0667L39.6751 20.5667L38.8604 16.1888L41.9668 13.1502L37.7552 12.612L35.9668 8.56668Z" fill="#F1B434"/>
<path d="M20.7871 14.8542L18.9987 18.8995L14.7871 19.4377L17.8935 22.4763L17.0788 26.8542L20.7871 24.3542L24.4954 26.8542L23.6807 22.4763L26.7871 19.4377L22.5755 18.8995L20.7871 14.8542Z" fill="#F1B434"/>
<path d="M14.5 30.0334L12.7116 34.0787L8.5 34.6169L11.6064 37.6555L10.7917 42.0334L14.5 39.5334L18.2083 42.0334L17.3936 37.6555L20.5 34.6169L16.2884 34.0787L14.5 30.0334Z" fill="#F1B434"/>
<path d="M20.7871 45.2126L18.9987 49.2579L14.7871 49.7961L17.8935 52.8347L17.0788 57.2126L20.7871 54.7126L24.4954 57.2126L23.6807 52.8347L26.7871 49.7961L22.5755 49.2579L20.7871 45.2126Z" fill="#F1B434"/>
<path d="M35.9668 51.5L34.1784 55.5453L29.9668 56.0836L33.0732 59.1221L32.2585 63.5L35.9668 61L39.6751 63.5L38.8604 59.1221L41.9668 56.0836L37.7552 55.5453L35.9668 51.5Z" fill="#F1B434"/>
<path d="M51.1455 45.2126L49.3571 49.2579L45.1455 49.7961L48.2519 52.8347L47.4372 57.2126L51.1455 54.7126L54.8538 57.2126L54.0392 52.8347L57.1455 49.7961L52.9339 49.2579L51.1455 45.2126Z" fill="#F1B434"/>
<path d="M57.4331 30.0334L55.6447 34.0787L51.4331 34.6169L54.5395 37.6555L53.7248 42.0334L57.4331 39.5334L61.1414 42.0334L60.3267 37.6555L63.4331 34.6169L59.2215 34.0787L57.4331 30.0334Z" fill="#F1B434"/>
<path d="M51.1455 14.8542L49.3571 18.8995L45.1455 19.4377L48.2519 22.4762L47.4372 26.8542L51.1455 24.3542L54.8538 26.8542L54.0392 22.4762L57.1455 19.4377L52.9339 18.8995L51.1455 14.8542Z" fill="#F1B434"/>
</g>
</svg>
