<svg width="29" height="20" viewBox="0 0 29 20" fill="none" xmlns="http://www.w3.org/2000/svg">
<mask id="mask0_11482_5140" style="mask-type:alpha" maskUnits="userSpaceOnUse" x="0" y="0" width="29" height="20">
<rect width="29" height="20" fill="#D9D9D9"/>
</mask>
<g mask="url(#mask0_11482_5140)">
<rect width="29" height="20" fill="#004692"/>
<path d="M14.5001 1.20001L13.9231 2.49608L12.5644 2.66853L13.5666 3.64204L13.3038 5.04467L14.5001 4.2437L15.6964 5.04467L15.4336 3.64204L16.4358 2.66853L15.0771 2.49608L14.5001 1.20001Z" fill="#F1B434"/>
<path d="M9.60293 3.21445L9.02595 4.51052L7.66723 4.68297L8.66939 5.65647L8.40658 7.0591L9.60292 6.25813L10.7993 7.0591L10.5364 5.65647L11.5386 4.68297L10.1799 4.51052L9.60293 3.21445Z" fill="#F1B434"/>
<path d="M7.57461 8.07768L6.99763 9.37375L5.63892 9.5462L6.64107 10.5197L6.37826 11.9223L7.5746 11.1214L8.77095 11.9223L8.50813 10.5197L9.51029 9.5462L8.15157 9.37375L7.57461 8.07768Z" fill="#F1B434"/>
<path d="M9.60293 12.9409L9.02595 14.237L7.66723 14.4094L8.66939 15.3829L8.40658 16.7856L9.60292 15.9846L10.7993 16.7856L10.5364 15.3829L11.5386 14.4094L10.1799 14.237L9.60293 12.9409Z" fill="#F1B434"/>
<path d="M14.5001 14.9554L13.9231 16.2514L12.5644 16.4239L13.5666 17.3974L13.3038 18.8L14.5001 17.999L15.6964 18.8L15.4336 17.3974L16.4358 16.4239L15.0771 16.2514L14.5001 14.9554Z" fill="#F1B434"/>
<path d="M19.397 12.9409L18.82 14.237L17.4613 14.4094L18.4635 15.3829L18.2006 16.7856L19.397 15.9846L20.5933 16.7856L20.3305 15.3829L21.3327 14.4094L19.974 14.237L19.397 12.9409Z" fill="#F1B434"/>
<path d="M21.4255 8.07769L20.8485 9.37376L19.4898 9.5462L20.4919 10.5197L20.2291 11.9223L21.4255 11.1214L22.6218 11.9223L22.359 10.5197L23.3611 9.5462L22.0024 9.37376L21.4255 8.07769Z" fill="#F1B434"/>
<path d="M19.397 3.21445L18.82 4.51052L17.4613 4.68296L18.4635 5.65647L18.2006 7.0591L19.397 6.25813L20.5933 7.0591L20.3305 5.65647L21.3327 4.68296L19.974 4.51052L19.397 3.21445Z" fill="#F1B434"/>
</g>
</svg>
