<svg width="20" height="20" viewBox="0 0 20 20" fill="none" xmlns="http://www.w3.org/2000/svg">
<mask id="mask0_11482_5136" style="mask-type:alpha" maskUnits="userSpaceOnUse" x="0" y="0" width="20" height="20">
<circle cx="10" cy="10" r="10" transform="rotate(-90 10 10)" fill="#D9D9D9"/>
</mask>
<g mask="url(#mask0_11482_5136)">
<rect width="20" height="20" fill="#004692"/>
<path d="M10.2905 15.9283L10.9755 16.0156L10.4704 16.5101L10.6027 17.2223L9.99957 16.8155L9.39644 17.2223L9.52873 16.5101L9.02359 16.0156L9.70868 15.9283L9.99957 15.2703L10.2905 15.9283Z" fill="#F1B434"/>
<path d="M7.16733 15.0694L7.85242 15.1571L7.34728 15.6512L7.47957 16.3633L6.87644 15.9566L6.27332 16.3633L6.40561 15.6512L5.90047 15.1571L6.58556 15.0694L6.87644 14.4114L7.16733 15.0694Z" fill="#F1B434"/>
<path d="M13.4136 15.0694L14.0987 15.1571L13.5935 15.6512L13.7258 16.3633L13.1227 15.9566L12.5196 16.3633L12.6519 15.6512L12.1467 15.1571L12.8318 15.0694L13.1227 14.4114L13.4136 15.0694Z" fill="#F1B434"/>
<path d="M4.86387 12.8052L5.54896 12.8925L5.04382 13.387L5.17611 14.0992L4.57299 13.6924L3.96986 14.0992L4.10215 13.387L3.59701 12.8925L4.2821 12.8052L4.57299 12.1472L4.86387 12.8052Z" fill="#F1B434"/>
<path d="M15.717 12.8052L16.4021 12.8925L15.897 13.387L16.0293 14.0992L15.4261 13.6924L14.823 14.0992L14.9553 13.387L14.4502 12.8925L15.1353 12.8052L15.4261 12.1472L15.717 12.8052Z" fill="#F1B434"/>
<path d="M4.04421 9.72099L4.7293 9.80867L4.22415 10.3028L4.35644 11.0149L3.75332 10.6085L3.1502 11.0149L3.28249 10.3028L2.77734 9.80867L3.46243 9.72099L3.75332 9.06296L4.04421 9.72099Z" fill="#F1B434"/>
<path d="M16.5367 9.72099L17.2218 9.80867L16.7166 10.3028L16.8489 11.0149L16.2458 10.6085L15.6427 11.0149L15.775 10.3028L15.2698 9.80867L15.9549 9.72099L16.2458 9.06296L16.5367 9.72099Z" fill="#F1B434"/>
<path d="M4.86387 6.55898L5.54896 6.64628L5.04382 7.14075L5.17611 7.85291L4.57299 7.44612L3.96986 7.85291L4.10215 7.14075L3.59701 6.64628L4.2821 6.55898L4.57299 5.90096L4.86387 6.55898Z" fill="#F1B434"/>
<path d="M15.717 6.55898L16.4021 6.64628L15.897 7.14075L16.0293 7.85291L15.4261 7.44612L14.823 7.85291L14.9553 7.14075L14.4502 6.64628L15.1353 6.55898L15.4261 5.90096L15.717 6.55898Z" fill="#F1B434"/>
<path d="M7.16733 4.29479L7.85242 4.38209L7.34728 4.87656L7.47957 5.58872L6.87644 5.18194L6.27332 5.58872L6.40561 4.87656L5.90047 4.38209L6.58556 4.29479L6.87644 3.63677L7.16733 4.29479Z" fill="#F1B434"/>
<path d="M13.4136 4.29479L14.0987 4.38209L13.5935 4.87656L13.7258 5.58872L13.1227 5.18194L12.5196 5.58872L12.6519 4.87656L12.1467 4.38209L12.8318 4.29479L13.1227 3.63677L13.4136 4.29479Z" fill="#F1B434"/>
<path d="M10.2905 3.43585L10.9755 3.52316L10.4704 4.01763L10.6027 4.72978L9.99957 4.323L9.39644 4.72978L9.52873 4.01763L9.02359 3.52316L9.70868 3.43585L9.99957 2.77783L10.2905 3.43585Z" fill="#F1B434"/>
</g>
</svg>
