<svg width="29" height="20" viewBox="0 0 29 20" fill="none" xmlns="http://www.w3.org/2000/svg">
<mask id="mask0_11482_5140" style="mask-type:alpha" maskUnits="userSpaceOnUse" x="0" y="0" width="29" height="20">
<rect width="29" height="20" fill="#D9D9D9"/>
</mask>
<g mask="url(#mask0_11482_5140)">
<rect width="29" height="20" fill="#004692"/>
<path d="M14.875 16.716L15.6511 16.8149L15.0789 17.375L15.2287 18.1818L14.5455 17.721L13.8622 18.1818L14.0121 17.375L13.4398 16.8149L14.2159 16.716L14.5455 15.9705L14.875 16.716Z" fill="#F1B434"/>
<path d="M11.3369 15.7429L12.113 15.8422L11.5408 16.402L11.6906 17.2088L11.0074 16.7479L10.3241 17.2088L10.474 16.402L9.90173 15.8422L10.6778 15.7429L11.0074 14.9975L11.3369 15.7429Z" fill="#F1B434"/>
<path d="M18.4131 15.7429L19.1892 15.8422L18.6169 16.402L18.7668 17.2088L18.0835 16.7479L17.4003 17.2088L17.5502 16.402L16.9779 15.8422L17.754 15.7429L18.0835 14.9975L18.4131 15.7429Z" fill="#F1B434"/>
<path d="M8.72741 13.1779L9.50352 13.2768L8.93126 13.8369L9.08113 14.6437L8.39787 14.1829L7.71461 14.6437L7.86448 13.8369L7.29222 13.2768L8.06834 13.1779L8.39787 12.4324L8.72741 13.1779Z" fill="#F1B434"/>
<path d="M21.0226 13.1779L21.7987 13.2768L21.2264 13.8369L21.3763 14.6437L20.6931 14.1829L20.0098 14.6437L20.1597 13.8369L19.5874 13.2768L20.3635 13.1779L20.6931 12.4324L21.0226 13.1779Z" fill="#F1B434"/>
<path d="M7.79883 9.68385L8.57495 9.78318L8.00269 10.3429L8.15256 11.1497L7.4693 10.6893L6.78604 11.1497L6.93591 10.3429L6.36365 9.78318L7.13976 9.68385L7.4693 8.9384L7.79883 9.68385Z" fill="#F1B434"/>
<path d="M21.9512 9.68385L22.7273 9.78318L22.155 10.3429L22.3049 11.1497L21.6216 10.6893L20.9384 11.1497L21.0882 10.3429L20.516 9.78318L21.2921 9.68385L21.6216 8.9384L21.9512 9.68385Z" fill="#F1B434"/>
<path d="M8.72741 6.10171L9.50352 6.20061L8.93126 6.76078L9.08113 7.56756L8.39787 7.10673L7.71461 7.56756L7.86448 6.76078L7.29222 6.20061L8.06834 6.10171L8.39787 5.35626L8.72741 6.10171Z" fill="#F1B434"/>
<path d="M21.0226 6.10171L21.7987 6.20061L21.2264 6.76078L21.3763 7.56756L20.6931 7.10673L20.0098 7.56756L20.1597 6.76078L19.5874 6.20061L20.3635 6.10171L20.6931 5.35626L21.0226 6.10171Z" fill="#F1B434"/>
<path d="M11.3369 3.53669L12.113 3.63559L11.5408 4.19576L11.6906 5.00254L11.0074 4.54171L10.3241 5.00254L10.474 4.19576L9.90173 3.63559L10.6778 3.53669L11.0074 2.79124L11.3369 3.53669Z" fill="#F1B434"/>
<path d="M18.4131 3.53669L19.1892 3.63559L18.6169 4.19576L18.7668 5.00254L18.0835 4.54171L17.4003 5.00254L17.5502 4.19576L16.9779 3.63559L17.754 3.53669L18.0835 2.79124L18.4131 3.53669Z" fill="#F1B434"/>
<path d="M14.875 2.56363L15.6511 2.66253L15.0789 3.2227L15.2287 4.02948L14.5455 3.56865L13.8622 4.02948L14.0121 3.2227L13.4398 2.66253L14.2159 2.56363L14.5455 1.81818L14.875 2.56363Z" fill="#F1B434"/>
</g>
</svg>
