<svg width="72" height="72" viewBox="0 0 72 72" fill="none" xmlns="http://www.w3.org/2000/svg">
<mask id="mask0_38_5500" style="mask-type:alpha" maskUnits="userSpaceOnUse" x="0" y="0" width="72" height="72">
<circle cx="36" cy="36" r="36" fill="#D9D9D9"/>
</mask>
<g mask="url(#mask0_38_5500)">
<rect width="72" height="72" fill="#86C5FA"/>
<path d="M40.8 35H61.8V43.7432C61.8 49.8265 58.0916 55.2951 52.4401 57.546L51.3 58L50.16 57.546C44.5085 55.2951 40.8 49.8265 40.8 43.7432V35Z" fill="#F5F7F8"/>
<mask id="mask1_38_5500" style="mask-type:alpha" maskUnits="userSpaceOnUse" x="40" y="35" width="22" height="23">
<path d="M40.8 35H61.8V43.7432C61.8 49.8265 58.0916 55.2951 52.4401 57.546L51.3 58L50.16 57.546C44.5085 55.2951 40.8 49.8265 40.8 43.7432V35Z" fill="#F5F7F8"/>
</mask>
<g mask="url(#mask1_38_5500)">
<path d="M40.8 35H61.8V41H52.8V47H61.8V50H52.8V58H49.8V50H40.8V47H49.8V41H40.8V35Z" fill="#DD2033"/>
</g>
<mask id="mask2_38_5500" style="mask-type:alpha" maskUnits="userSpaceOnUse" x="0" y="0" width="36" height="36">
<path d="M0 36V36C-8.69081e-07 16.1177 16.1177 -7.04529e-07 36 -1.57361e-06V-1.57361e-06L36 36L0 36Z" fill="#002F6C"/>
</mask>
<g mask="url(#mask2_38_5500)">
<rect x="-0.000244141" width="36" height="36" fill="#004692"/>
<path d="M12.5223 3.1339L10.401 5.25522L39.927 34.7812L42.0483 32.6599L12.5223 3.1339Z" fill="#F5F7F8"/>
<path d="M6.86549 8.79076L3.32996 12.3263L32.856 41.8523L36.3915 38.3168L6.86549 8.79076Z" fill="#F5F7F8"/>
<path d="M6.86549 8.79076L10.401 5.25522L39.927 34.7812L36.3915 38.3168L6.86549 8.79076Z" fill="#DD2033"/>
<path d="M36 12V17L17 17L17 36H12V12H36Z" fill="#F5F7F8"/>
<path d="M36 -1.99997V3.00003L5 3.00003L5 36H0V-1.99997H36Z" fill="#F5F7F8"/>
<path fill-rule="evenodd" clip-rule="evenodd" d="M3 36H12L12 12L36 12V3.00003H12H3L3 12L3 36Z" fill="#DD2033"/>
</g>
</g>
</svg>
