<svg width="72" height="72" viewBox="0 0 72 72" fill="none" xmlns="http://www.w3.org/2000/svg">
<mask id="mask0_38_5761" style="mask-type:alpha" maskUnits="userSpaceOnUse" x="0" y="0" width="72" height="72">
<circle cx="36" cy="36" r="36" fill="#D9D9D9"/>
</mask>
<g mask="url(#mask0_38_5761)">
<rect width="72" height="72" fill="#004692"/>
<path d="M61.6001 53H40.6001V58H43.6001V61H58.6001V58H61.6001V53Z" fill="#FBD381"/>
<path d="M40.6001 35H61.6001V43.7432C61.6001 49.8265 57.8917 55.2951 52.2401 57.546L51.1001 58L49.96 57.546C44.3085 55.2951 40.6001 49.8265 40.6001 43.7432V35Z" fill="#0091DA"/>
<mask id="mask1_38_5761" style="mask-type:alpha" maskUnits="userSpaceOnUse" x="40" y="35" width="22" height="23">
<path d="M40.6001 35H61.6001V43.7432C61.6001 49.8265 57.8917 55.2951 52.2401 57.546L51.1001 58L49.96 57.546C44.3085 55.2951 40.6001 49.8265 40.6001 43.7432V35Z" fill="#0091DA"/>
</mask>
<g mask="url(#mask1_38_5761)">
<path d="M51.0994 48C48.4746 48 48.4746 50.1818 45.8498 50.1818C43.2249 50.1818 43.2249 48 40.6001 48V51.8181C43.2249 51.8181 43.2249 54 45.8498 54C48.4746 54 48.4746 51.8181 51.0994 51.8181C53.7245 51.8181 53.7245 54 56.3498 54C58.975 54 58.9749 51.8181 61.6001 51.8181V48C58.975 48 58.975 50.1818 56.3498 50.1818C53.7245 50.1818 53.7245 48 51.0994 48Z" fill="#F5F7F8"/>
<path d="M51.0994 41C48.4746 41 48.4746 43.1819 45.8498 43.1819C43.2249 43.1819 43.2249 41 40.6001 41V44.8181C43.2249 44.8181 43.2249 47 45.8498 47C48.4746 47 48.4746 44.8181 51.0994 44.8181C53.7245 44.8181 53.7245 47 56.3498 47C58.975 47 58.9749 44.8181 61.6001 44.8181V41C58.975 41 58.975 43.1819 56.3498 43.1819C53.7245 43.1819 53.7245 41 51.0994 41Z" fill="#F5F7F8"/>
</g>
<mask id="mask2_38_5761" style="mask-type:alpha" maskUnits="userSpaceOnUse" x="0" y="0" width="36" height="36">
<path d="M0 36V36C-8.69081e-07 16.1177 16.1177 -7.04529e-07 36 -1.57361e-06V-1.57361e-06L36 36L0 36Z" fill="#002F6C"/>
</mask>
<g mask="url(#mask2_38_5761)">
<rect x="-0.000244141" width="36" height="36" fill="#004692"/>
<path d="M12.5223 3.1339L10.401 5.25522L39.927 34.7812L42.0483 32.6599L12.5223 3.1339Z" fill="#F5F7F8"/>
<path d="M6.86549 8.79076L3.32996 12.3263L32.856 41.8523L36.3915 38.3168L6.86549 8.79076Z" fill="#F5F7F8"/>
<path d="M6.86549 8.79076L10.401 5.25522L39.927 34.7812L36.3915 38.3168L6.86549 8.79076Z" fill="#DD2033"/>
<path d="M36 12V17L17 17L17 36H12V12H36Z" fill="#F5F7F8"/>
<path d="M36 -1.99997V3.00003L5 3.00003L5 36H0V-1.99997H36Z" fill="#F5F7F8"/>
<path fill-rule="evenodd" clip-rule="evenodd" d="M3 36H12L12 12L36 12V3.00003H12H3L3 12L3 36Z" fill="#DD2033"/>
</g>
</g>
</svg>
