<svg width="29" height="20" viewBox="0 0 29 20" fill="none" xmlns="http://www.w3.org/2000/svg">
<mask id="mask0_11482_5203" style="mask-type:alpha" maskUnits="userSpaceOnUse" x="0" y="0" width="29" height="20">
<rect width="29" height="20" fill="#D9D9D9"/>
</mask>
<g mask="url(#mask0_11482_5203)">
<rect width="29" height="20" fill="#004692"/>
<mask id="mask1_11482_5203" style="mask-type:alpha" maskUnits="userSpaceOnUse" x="0" y="0" width="15" height="12">
<path d="M0 12L-5.28179e-07 0L14.5 -6.29444e-07L14.5 12L0 12Z" fill="#002F6C"/>
</mask>
<g mask="url(#mask1_11482_5203)">
<path d="M5.15183 0.40184L4.29741 1.25037L14.849 11.7292L15.7034 10.8807L5.15183 0.40184Z" fill="#F5F7F8"/>
<path d="M2.87338 2.66458L1.44934 4.07879L12.0009 14.5576L13.425 13.1434L2.87338 2.66458Z" fill="#F5F7F8"/>
<path d="M2.87338 2.66458L4.29741 1.25037L14.849 11.7292L13.425 13.1434L2.87338 2.66458Z" fill="#DD2033"/>
<path d="M2.41666 13.9999H4.02846L4.02846 3.59993H14.5V1.99994H2.41666V13.9999Z" fill="#F5F7F8"/>
<path d="M0 14H2.41736L2.41736 1.99992H14.5007V-6.10352e-05H0V14Z" fill="#DD2033"/>
</g>
<path d="M26.0195 14.8H17.5612V16.8H18.7695V18H24.8112V16.8H26.0195V14.8Z" fill="#FBD381"/>
<path d="M17.5612 7.59998H26.0195V10.5793C26.0195 13.3241 24.3428 15.7904 21.7903 16.8C19.2379 15.7904 17.5612 13.3241 17.5612 10.5793V7.59998Z" fill="#0091DA"/>
<mask id="mask2_11482_5203" style="mask-type:alpha" maskUnits="userSpaceOnUse" x="17" y="7" width="10" height="10">
<path d="M17.5612 7.59998H26.0195V10.5793C26.0195 13.3241 24.3428 15.7904 21.7903 16.8C19.2379 15.7904 17.5612 13.3241 17.5612 10.5793V7.59998Z" fill="#0091DA"/>
</mask>
<g mask="url(#mask2_11482_5203)">
<path d="M21.7901 12.8C20.7328 12.8 20.7328 13.6727 19.6756 13.6727C18.6184 13.6727 18.6184 12.8 17.5612 12.8V14.3273C18.6184 14.3273 18.6184 15.2 19.6756 15.2C20.7328 15.2 20.7328 14.3273 21.7901 14.3273C22.8474 14.3273 22.8474 15.2 23.9048 15.2C24.9622 15.2 24.9621 14.3273 26.0195 14.3273V12.8C24.9622 12.8 24.9622 13.6727 23.9048 13.6727C22.8474 13.6727 22.8474 12.8 21.7901 12.8Z" fill="#F5F7F8"/>
<path d="M21.7901 10C20.7328 10 20.7328 10.8727 19.6756 10.8727C18.6184 10.8727 18.6184 10 17.5612 10V11.5273C18.6184 11.5273 18.6184 12.4 19.6756 12.4C20.7328 12.4 20.7328 11.5273 21.7901 11.5273C22.8474 11.5273 22.8474 12.4 23.9048 12.4C24.9622 12.4 24.9621 11.5273 26.0195 11.5273V10C24.9622 10 24.9622 10.8727 23.9048 10.8727C22.8474 10.8727 22.8474 10 21.7901 10Z" fill="#F5F7F8"/>
</g>
</g>
</svg>
