<svg width="20" height="20" viewBox="0 0 20 20" fill="none" xmlns="http://www.w3.org/2000/svg">
<mask id="mask0_11482_5187" style="mask-type:alpha" maskUnits="userSpaceOnUse" x="0" y="0" width="20" height="20">
<circle cx="10" cy="10" r="10" fill="#D9D9D9"/>
</mask>
<g mask="url(#mask0_11482_5187)">
<rect width="20" height="20" fill="#004692"/>
<path d="M17.1111 14.7222H11.2778V16.1111H12.1111V16.9445H16.2778V16.1111H17.1111V14.7222Z" fill="#FBD381"/>
<path d="M11.2778 9.72223H17.1111V11.81C17.1111 13.7056 15.9555 15.4097 14.1945 16.1111C12.4334 15.4097 11.2778 13.7056 11.2778 11.81V9.72223Z" fill="#0091DA"/>
<mask id="mask1_11482_5187" style="mask-type:alpha" maskUnits="userSpaceOnUse" x="11" y="9" width="7" height="8">
<path d="M11.2778 9.72223H17.1111V11.81C17.1111 13.7056 15.9555 15.4097 14.1945 16.1111C12.4334 15.4097 11.2778 13.7056 11.2778 11.81V9.72223Z" fill="#0091DA"/>
</mask>
<g mask="url(#mask1_11482_5187)">
<path d="M14.1943 13.3334C13.4652 13.3334 13.4652 13.9394 12.736 13.9394C12.0069 13.9394 12.0069 13.3334 11.2778 13.3334V14.394C12.0069 14.394 12.0069 15 12.736 15C13.4652 15 13.4652 14.394 14.1943 14.394C14.9235 14.394 14.9235 15 15.6527 15C16.3819 15 16.3819 14.394 17.1111 14.394V13.3334C16.3819 13.3334 16.3819 13.9394 15.6527 13.9394C14.9235 13.9394 14.9235 13.3334 14.1943 13.3334Z" fill="#F5F7F8"/>
<path d="M14.1943 11.3889C13.4652 11.3889 13.4652 11.995 12.736 11.995C12.0069 11.995 12.0069 11.3889 11.2778 11.3889V12.4495C12.0069 12.4495 12.0069 13.0556 12.736 13.0556C13.4652 13.0556 13.4652 12.4495 14.1943 12.4495C14.9235 12.4495 14.9235 13.0556 15.6527 13.0556C16.3819 13.0556 16.3819 12.4495 17.1111 12.4495V11.3889C16.3819 11.3889 16.3819 11.995 15.6527 11.995C14.9235 11.995 14.9235 11.3889 14.1943 11.3889Z" fill="#F5F7F8"/>
</g>
<mask id="mask2_11482_5187" style="mask-type:alpha" maskUnits="userSpaceOnUse" x="0" y="0" width="10" height="10">
<path d="M0 10C-8.69081e-07 4.47715 4.47715 -5.43618e-08 10 -1.21421e-07L10 10L0 10Z" fill="#002F6C"/>
</mask>
<g mask="url(#mask2_11482_5187)">
<rect x="-0.000244141" width="10" height="10" fill="#004692"/>
<path d="M3.47843 0.870508L2.88917 1.45976L11.0908 9.66143L11.6801 9.07217L3.47843 0.870508Z" fill="#F5F7F8"/>
<path d="M1.90708 2.44186L0.924989 3.42395L9.12665 11.6256L10.1087 10.6435L1.90708 2.44186Z" fill="#F5F7F8"/>
<path d="M1.90708 2.44186L2.88917 1.45976L11.0908 9.66143L10.1087 10.6435L1.90708 2.44186Z" fill="#DD2033"/>
<path d="M9.99998 3.33331V4.7222L4.7222 4.7222L4.7222 9.99999H3.33331V3.33331H9.99998Z" fill="#F5F7F8"/>
<path d="M10 -0.555542V0.833347L1.38889 0.833346L1.38889 10H0V-0.555542H10Z" fill="#F5F7F8"/>
<path fill-rule="evenodd" clip-rule="evenodd" d="M0.833313 10H3.33331L3.33331 3.33337L9.99998 3.33337V0.833374H3.33331H0.833314L0.833314 3.33337L0.833313 10Z" fill="#DD2033"/>
</g>
</g>
</svg>
