<svg width="72" height="72" viewBox="0 0 72 72" fill="none" xmlns="http://www.w3.org/2000/svg">
<mask id="mask0_38_6035" style="mask-type:alpha" maskUnits="userSpaceOnUse" x="0" y="0" width="72" height="72">
<circle cx="36" cy="36" r="36" transform="rotate(-90 36 36)" fill="#D9D9D9"/>
</mask>
<g mask="url(#mask0_38_6035)">
<rect width="72" height="72" fill="#86C5FA"/>
<path d="M33.6155 12.3938L36.0001 7.00003L38.3846 12.3938L44 13.1114L39.8582 17.1628L40.9444 23L36 19.6667L31.0557 23L32.1418 17.1628L28 13.1114L33.6155 12.3938Z" fill="#F5F7F8"/>
<path d="M11.6323 34.8634L11.0005 29L15.7624 32.4788L20.9844 30.2926L19.4232 35.8721L23.2824 40.3842L17.3338 39.9696L14.7185 45.3286L12.7406 39.7303L7.12799 38.2926L11.6323 34.8634Z" fill="#F5F7F8"/>
<path d="M60.3281 29L59.6964 34.8634L64.2007 38.2926L58.5881 39.7303L56.6101 45.3286L53.9948 39.9696L48.0462 40.3842L51.9055 35.8721L50.3443 30.2926L55.5662 32.4788L60.3281 29Z" fill="#F5F7F8"/>
<path d="M38.3846 59.6063L36 65L33.6155 59.6063L28 58.8886L32.1418 54.8372L31.0557 49L36 52.3333L40.9444 49L39.8582 54.8372L44 58.8886L38.3846 59.6063Z" fill="#F5F7F8"/>
</g>
</svg>
