<svg width="20" height="20" viewBox="0 0 20 20" fill="none" xmlns="http://www.w3.org/2000/svg">
<mask id="mask0_11482_5219" style="mask-type:alpha" maskUnits="userSpaceOnUse" x="0" y="0" width="20" height="20">
<circle cx="10" cy="10" r="10" transform="rotate(-90 10 10)" fill="#D9D9D9"/>
</mask>
<g mask="url(#mask0_11482_5219)">
<rect width="20" height="20" fill="#86C5FA"/>
<path d="M9.33763 3.44272L10 1.94446L10.6624 3.44272L12.2222 3.64207L11.0717 4.76746L11.3734 6.3889L10 5.46298L8.62657 6.3889L8.92828 4.76746L7.77778 3.64207L9.33763 3.44272Z" fill="#F5F7F8"/>
<path d="M3.23119 9.68428L3.0557 8.05555L4.37846 9.0219L5.829 8.41462L5.39532 9.96448L6.46734 11.2178L4.81495 11.1027L4.08848 12.5913L3.53905 11.0362L1.98 10.6368L3.23119 9.68428Z" fill="#F5F7F8"/>
<path d="M16.7578 8.05555L16.5823 9.68428L17.8335 10.6368L16.2745 11.0362L15.725 12.5913L14.9986 11.1027L13.3462 11.2178L14.4182 9.96448L13.9845 8.41462L15.4351 9.0219L16.7578 8.05555Z" fill="#F5F7F8"/>
<path d="M10.6624 16.5573L9.99999 18.0556L9.33763 16.5573L7.77778 16.3579L8.92828 15.2326L8.62657 13.6111L10 14.537L11.3734 13.6111L11.0717 15.2326L12.2222 16.3579L10.6624 16.5573Z" fill="#F5F7F8"/>
</g>
</svg>
