<svg width="29" height="20" viewBox="0 0 29 20" fill="none" xmlns="http://www.w3.org/2000/svg">
<mask id="mask0_11482_5223" style="mask-type:alpha" maskUnits="userSpaceOnUse" x="0" y="0" width="29" height="20">
<rect width="29" height="20" fill="#D9D9D9"/>
</mask>
<g mask="url(#mask0_11482_5223)">
<rect width="29" height="20" fill="#86C5FA"/>
<path d="M13.488 3.35751L14.4485 1.20001L15.4089 3.35751L17.6707 3.64458L16.0024 5.26513L16.4399 7.60001L14.4485 6.26668L12.457 7.60001L12.8945 5.26513L11.2262 3.64458L13.488 3.35751Z" fill="#F5F7F8"/>
<path d="M4.63367 9.54535L4.37921 7.19998L6.29721 8.59153L8.4005 7.71705L7.77167 9.94885L9.32609 11.7537L6.93012 11.5879L5.87675 13.7314L5.08007 11.4921L2.81944 10.917L4.63367 9.54535Z" fill="#F5F7F8"/>
<path d="M24.2473 7.19998L23.9928 9.54535L25.807 10.917L23.5464 11.4921L22.7497 13.7314L21.6964 11.5879L19.3004 11.7537L20.8548 9.94885L20.226 7.71705L22.3293 8.59153L24.2473 7.19998Z" fill="#F5F7F8"/>
<path d="M15.4089 16.6425L14.4484 18.8L13.488 16.6425L11.2262 16.3554L12.8945 14.7349L12.457 12.4L14.4485 13.7333L16.4399 12.4L16.0024 14.7349L17.6707 16.3554L15.4089 16.6425Z" fill="#F5F7F8"/>
</g>
</svg>
