<svg width="72" height="72" viewBox="0 0 72 72" fill="none" xmlns="http://www.w3.org/2000/svg">
<mask id="mask0_38_6127" style="mask-type:alpha" maskUnits="userSpaceOnUse" x="0" y="0" width="72" height="72">
<circle cx="36" cy="36" r="36" fill="#D9D9D9"/>
</mask>
<g mask="url(#mask0_38_6127)">
<rect width="72" height="72" fill="#F5F7F8"/>
<path fill-rule="evenodd" clip-rule="evenodd" d="M20 72H14L14 47.6999H0V41.7H14L14 30.3H0V24.3001H14L14 0H20L20 24.3001H31.3999L31.3999 0H37.3999L37.3999 24.3001H72V30.3L37.3999 30.3V41.7L72 41.7V47.7L37.3999 47.6999L37.3999 72H31.3999L31.3999 47.6999H20L20 72ZM31.3999 30.3H20L20 41.7H31.3999L31.3999 30.3Z" fill="#004692"/>
<path d="M20 72H32L32 42L72 42V30L32 30L32 0H20L20 30L0 30V42H20L20 72Z" fill="#DD2033"/>
</g>
</svg>
