<svg width="72" height="72" viewBox="0 0 72 72" fill="none" xmlns="http://www.w3.org/2000/svg">
<mask id="mask0_38_6388" style="mask-type:alpha" maskUnits="userSpaceOnUse" x="0" y="0" width="72" height="72">
<circle cx="36" cy="36" r="36" fill="#D9D9D9"/>
</mask>
<g mask="url(#mask0_38_6388)">
<rect width="72" height="72" fill="#004692"/>
<path d="M42.7883 33.0044L40.667 35.1257L66.1229 60.5816L68.2442 58.4602L42.7883 33.0044Z" fill="#F5F7F8"/>
<path d="M37.1315 38.6612L33.596 42.1968L59.0518 67.6526L62.5873 64.1171L37.1315 38.6612Z" fill="#F5F7F8"/>
<path d="M37.1315 38.6612L40.667 35.1257L66.1229 60.5816L62.5873 64.1171L37.1315 38.6612Z" fill="#DD2033"/>
<path d="M38.2444 42.1925L36.1231 40.0711L10.6672 65.527L12.7885 67.6483L38.2444 42.1925Z" fill="#F5F7F8"/>
<path d="M32.5875 36.5356L29.052 33.0001L3.59616 58.4559L7.13169 61.9914L32.5875 36.5356Z" fill="#F5F7F8"/>
<path d="M32.5875 36.5356L36.1231 40.0711L10.6672 65.527L7.13169 61.9914L32.5875 36.5356Z" fill="#DD2033"/>
<path d="M30.056 40.6485L32.1773 38.5272L6.7215 13.0713L4.60018 15.1926L30.056 40.6485Z" fill="#F5F7F8"/>
<path d="M35.7129 34.9916L39.2484 31.4561L13.7926 6.00024L10.257 9.53578L35.7129 34.9916Z" fill="#F5F7F8"/>
<path d="M35.7129 34.9916L32.1773 38.5272L6.7215 13.0713L10.257 9.53578L35.7129 34.9916Z" fill="#DD2033"/>
<path d="M32.6005 31.46L34.7218 33.5813L60.1776 8.12544L58.0563 6.00412L32.6005 31.46Z" fill="#F5F7F8"/>
<path d="M38.2573 37.1168L41.7928 40.6523L67.2487 15.1965L63.7132 11.661L38.2573 37.1168Z" fill="#F5F7F8"/>
<path d="M38.2573 37.1168L34.7218 33.5813L60.1776 8.12544L63.7132 11.661L38.2573 37.1168Z" fill="#DD2033"/>
<path fill-rule="evenodd" clip-rule="evenodd" d="M30 72H25L25 47H0V42H25L25 30L0 30V25L25 25L25 0H30L30 25H42L42 0H47L47 25L72 25V30L47 30V42L72 42V47L47 47L47 72H42L42 47H30L30 72ZM42 30H30L30 42H42V30Z" fill="#F5F7F8"/>
<path d="M30 72H42L42 42H72V30L42 30L42 0H30L30 30L0 30V42H30L30 72Z" fill="#DD2033"/>
</g>
</svg>
