<svg width="29" height="20" viewBox="0 0 29 20" fill="none" xmlns="http://www.w3.org/2000/svg">
<mask id="mask0_11482_5303" style="mask-type:alpha" maskUnits="userSpaceOnUse" x="0" y="0" width="29" height="20">
<rect width="29" height="20" fill="#D9D9D9"/>
</mask>
<g mask="url(#mask0_11482_5303)">
<rect width="29" height="20" fill="#F5F7F8"/>
<path d="M12.2444 20H17.0777V12.4H29V7.6L17.0777 7.6L17.0777 0H12.2444L12.2444 7.6L0 7.6V12.4H12.2444L12.2444 20Z" fill="#DD2033"/>
<path fill-rule="evenodd" clip-rule="evenodd" d="M13.4408 7.89689L14.7014 5.20001L15.962 7.89689L18.9306 8.25572L16.741 10.2814L17.3152 13.2L14.7014 11.5333L12.0876 13.2L12.6618 10.2814L10.4722 8.25572L13.4408 7.89689ZM15.4063 8.20001H14.349V8.86668H13.6441V11.2H15.4063V10.5333H16.1111V9.53335H15.4063V8.20001Z" fill="#F5F7F8"/>
<path fill-rule="evenodd" clip-rule="evenodd" d="M14.2698 0.400024H15.1329V1.00002L15.996 1.00002V1.90002H15.1329V2.74083C15.3868 2.58768 15.6816 2.50002 15.996 2.50002C16.9494 2.50002 17.7222 3.30591 17.7222 4.30002C17.7222 4.83312 17.5 5.3121 17.1468 5.64169V6.40002H12.2559V5.64169C11.9028 5.3121 11.6805 4.83312 11.6805 4.30002C11.6805 3.30591 12.4534 2.50002 13.4067 2.50002C13.7211 2.50002 14.0159 2.58768 14.2698 2.74083V1.90002H13.4067V1.00002L14.2698 1.00002V0.400024ZM14.7014 3.1094L14.6934 3.10002H14.7094L14.7014 3.1094ZM14.6934 5.50002L14.7014 5.49065L14.7094 5.50002H14.6934Z" fill="#F1B434"/>
</g>
</svg>
