<svg width="72" height="72" viewBox="0 0 72 72" fill="none" xmlns="http://www.w3.org/2000/svg">
<mask id="mask0_38_6624" style="mask-type:alpha" maskUnits="userSpaceOnUse" x="0" y="0" width="72" height="72">
<circle cx="36" cy="36" r="36" fill="#D9D9D9"/>
</mask>
<g mask="url(#mask0_38_6624)">
<rect width="72" height="72" fill="#F5F7F8"/>
<path d="M30.3999 72H42.3999L42.3999 42H72V30L42.3999 30L42.3999 0H30.3999L30.3999 30L0 30V42H30.3999L30.3999 72Z" fill="#DD2033"/>
<path fill-rule="evenodd" clip-rule="evenodd" d="M32.6234 29.0906L36.2003 21L39.777 29.0906L48.2002 30.1671L41.9875 36.2442L43.6167 45L36.2002 40L28.7837 45L30.4129 36.2442L24.2002 30.1671L32.6234 29.0906ZM38.2002 30H35.2002V32H33.2002V39H38.2002V37H40.2002V34H38.2002V30Z" fill="#F5F7F8"/>
<path fill-rule="evenodd" clip-rule="evenodd" d="M34.2002 4H37.2002V6L40.2002 6V9H37.2002V11.8027C38.0827 11.2922 39.1073 11 40.2002 11C43.5139 11 46.2002 13.6863 46.2002 17C46.2002 18.777 45.4277 20.3736 44.2002 21.4722V24H27.2002V21.4722C25.9727 20.3736 25.2002 18.777 25.2002 17C25.2002 13.6863 27.8865 11 31.2002 11C32.2931 11 33.3177 11.2922 34.2002 11.8027V9H31.2002V6L34.2002 6V4ZM35.7002 13.0313L35.6724 13H35.728L35.7002 13.0313ZM35.6724 21L35.7002 20.9687L35.728 21H35.6724Z" fill="#F1B434"/>
<path d="M28.2002 17C28.2002 18.6569 29.5433 20 31.2002 20H34.2002V17C34.2002 15.3431 32.857 14 31.2002 14C29.5433 14 28.2002 15.3431 28.2002 17Z" fill="#DD2033"/>
<path d="M40.2002 20C41.857 20 43.2002 18.6569 43.2002 17C43.2002 15.3431 41.857 14 40.2002 14C38.5433 14 37.2002 15.3431 37.2002 17V20H40.2002Z" fill="#DD2033"/>
</g>
</svg>
