<svg width="20" height="20" viewBox="0 0 20 20" fill="none" xmlns="http://www.w3.org/2000/svg">
<mask id="mask0_11482_5296" style="mask-type:alpha" maskUnits="userSpaceOnUse" x="0" y="0" width="20" height="20">
<circle cx="10" cy="10" r="10" fill="#D9D9D9"/>
</mask>
<g mask="url(#mask0_11482_5296)">
<rect width="20" height="20" fill="#F5F7F8"/>
<path d="M8.44442 20H11.7778L11.7778 11.6667H20V8.33333L11.7778 8.33333L11.7778 0H8.44442V8.33333H0V11.6667H8.44442V20Z" fill="#DD2033"/>
<path fill-rule="evenodd" clip-rule="evenodd" d="M9.06206 8.08071L10.0556 5.83331L11.0492 8.08071L13.389 8.37974L11.6632 10.0678L12.1158 12.5L10.0556 11.1111L7.99547 12.5L8.44805 10.0678L6.72229 8.37974L9.06206 8.08071ZM10.6112 8.33331H9.77785V8.88887H9.22229V10.8333H10.6112V10.2778H11.1667V9.44442H10.6112V8.33331Z" fill="#F5F7F8"/>
<path fill-rule="evenodd" clip-rule="evenodd" d="M9.50006 1.11108H10.3334V1.66664L11.1667 1.66664V2.49997H10.3334V3.2785C10.5785 3.13669 10.8632 3.05553 11.1667 3.05553C12.0872 3.05553 12.8334 3.80172 12.8334 4.72219C12.8334 5.21581 12.6188 5.6593 12.2778 5.96448V6.66664H7.55562V5.96448C7.21464 5.6593 7.00006 5.21581 7.00006 4.72219C7.00006 3.80172 7.74625 3.05553 8.66673 3.05553C8.9703 3.05553 9.25492 3.13669 9.50006 3.2785V2.49997H8.66673V1.66664L9.50006 1.66664V1.11108ZM9.91673 3.61977L9.90901 3.61108H9.92445L9.91673 3.61977ZM9.90901 5.83331L9.91673 5.82462L9.92445 5.83331H9.90901Z" fill="#F1B434"/>
<path d="M7.83337 4.72225C7.83337 5.18249 8.20647 5.55558 8.66671 5.55558H9.50004V4.72225C9.50004 4.26201 9.12694 3.88892 8.66671 3.88892C8.20647 3.88892 7.83337 4.26201 7.83337 4.72225Z" fill="#DD2033"/>
<path d="M11.1667 5.55558C11.6269 5.55558 12 5.18249 12 4.72225C12 4.26201 11.6269 3.88892 11.1667 3.88892C10.7065 3.88892 10.3334 4.26201 10.3334 4.72225V5.55558H11.1667Z" fill="#DD2033"/>
</g>
</svg>
