<svg width="72" height="72" viewBox="0 0 72 72" fill="none" xmlns="http://www.w3.org/2000/svg">
<mask id="mask0_38_8530" style="mask-type:alpha" maskUnits="userSpaceOnUse" x="0" y="0" width="72" height="72">
<circle cx="36" cy="36" r="36" fill="#D9D9D9"/>
</mask>
<g mask="url(#mask0_38_8530)">
<rect width="72" height="36" fill="#F5F7F8"/>
<rect y="36" width="72" height="36" fill="#009B77"/>
<path d="M44.7006 20L31.3486 30.4494L29.8334 34.5439L28.2138 27.0176C28.2126 26.1542 27.9844 25.344 27.5855 24.6436C28.5156 23.7877 29.2038 22.6928 29.4909 21.6255C28.3144 21.6255 27.011 22.2345 25.9449 22.935C25.2054 22.473 24.3316 22.2061 23.3955 22.2061C20.7344 22.2061 18.5771 24.3633 18.5771 27.0244H22.6239L21.6855 30.2531C20.8654 33.0747 21.2732 35.8954 22.5393 38.2226L20.0256 40.723L16.9574 37.6711V33.3969L14.6014 31.0533L12.8 32.8643L14.4031 34.4589V37.6711L12.8 39.2656L14.6014 41.0766L15.6803 40.0035L20.0256 44.3257L24.0432 40.3294C24.3207 40.6324 24.6159 40.9196 24.9276 41.1892L20.6567 48.1685H16.7283V50.7228H24.6234V48.1685H23.6513L26.5363 43.454L26.4722 43.6273L27.7186 42.9247C28.9674 43.4502 30.3475 43.7435 31.8131 43.7435L31.8084 43.7216L35.1415 45.5734L33.4194 48.3876H29.491V50.9419H37.3861V48.3876H36.414L39.9848 42.5524L39.9814 42.5503L41.5077 41.5375L48.8763 43.488L45.8425 48.4457H41.9141V51H49.8092V48.4457H48.8371L52.2783 42.8222L52.3054 42.8147L52.2913 42.801L52.4079 42.6105L51.5517 42.0865L48.8803 39.5057C50.6674 38.6842 53.8114 36.5746 55.3765 33.5366L58.2475 35.1942V27.3994L51.497 31.2968L53.9168 32.6939C52.2024 34.04 49.663 35.3341 46.2896 35.6523L49.2288 33.352V20L44.7006 23.5438V20Z" fill="#DD2033"/>
</g>
</svg>
