<svg width="20" height="20" viewBox="0 0 20 20" fill="none" xmlns="http://www.w3.org/2000/svg">
<mask id="mask0_11482_5321" style="mask-type:alpha" maskUnits="userSpaceOnUse" x="0" y="0" width="20" height="20">
<circle cx="10" cy="10" r="10" fill="#D9D9D9"/>
</mask>
<g mask="url(#mask0_11482_5321)">
<rect width="20" height="10" fill="#F5F7F8"/>
<rect y="10" width="20" height="10" fill="#009B77"/>
<path d="M12.4168 5.55554L8.70794 8.45816L8.28706 9.59552L7.83718 7.50487C7.83685 7.26504 7.77343 7.04 7.66265 6.84544C7.92101 6.60768 8.11217 6.30355 8.19191 6.00707C7.86512 6.00707 7.50307 6.17624 7.2069 6.37081C7.0015 6.24249 6.75879 6.16834 6.49875 6.16834C5.75955 6.16834 5.16032 6.76757 5.16032 7.50676H6.28442L6.02375 8.40362C5.79593 9.1874 5.90923 9.97092 6.26092 10.6174L5.56266 11.3119L4.71039 10.4642V9.27689L4.05595 8.62592L3.55557 9.12896L4.00086 9.57189V10.4642L3.55557 10.9071L4.05595 11.4102L4.35563 11.1121L5.56266 12.3127L6.67866 11.2026C6.75574 11.2868 6.83776 11.3666 6.92433 11.4414L5.73797 13.3801H4.64674V14.0897H6.83983V13.3801H6.56981L7.3712 12.0705L7.35338 12.1187L7.69962 11.9235C8.04649 12.0695 8.42985 12.151 8.83697 12.151L8.83566 12.1449L9.76154 12.6593L9.28316 13.441H8.19194V14.1505H10.385V13.441H10.115L11.1069 11.8201L11.1059 11.8195L11.5299 11.5382L13.5767 12.08L12.734 13.4571H11.6428V14.1667H13.8359V13.4571H13.5659L14.5218 11.8951L14.5293 11.8929L14.5254 11.8892L14.5578 11.8362L14.3199 11.6907L13.5779 10.9738C14.0743 10.7456 14.9476 10.1596 15.3823 9.3157L16.1798 9.77614V7.61094L14.3047 8.69354L14.9769 9.08161C14.5007 9.45554 13.7953 9.81502 12.8582 9.90339L13.6747 9.26444V5.55554L12.4168 6.53992V5.55554Z" fill="#DD2033"/>
</g>
</svg>
