<svg width="29" height="20" viewBox="0 0 29 20" fill="none" xmlns="http://www.w3.org/2000/svg">
<mask id="mask0_11482_5326" style="mask-type:alpha" maskUnits="userSpaceOnUse" x="0" y="0" width="29" height="20">
<rect width="29" height="20" fill="#D9D9D9"/>
</mask>
<g mask="url(#mask0_11482_5326)">
<rect width="29" height="10" fill="#F5F7F8"/>
<rect y="10" width="29" height="10" fill="#009B77"/>
<path d="M18.0044 3.59998L12.6265 7.77975L12.0162 9.41754L11.3639 6.40701C11.3634 6.06166 11.2715 5.73759 11.1108 5.45742C11.4855 5.11505 11.7627 4.67711 11.8783 4.25017C11.4044 4.25017 10.8795 4.49378 10.45 4.77396C10.1522 4.58918 9.80024 4.4824 9.42319 4.4824C8.35136 4.4824 7.48247 5.3453 7.48247 6.40974H9.11242L8.73444 7.70121C8.40411 8.82985 8.56839 9.95812 9.07834 10.889L8.06585 11.8892L6.83007 10.6684V8.95872L5.88113 8.02131L5.15558 8.7457L5.80125 9.38352V10.6684L5.15558 11.3062L5.88113 12.0306L6.31566 11.6014L8.06585 13.3303L9.68406 11.7317C9.79583 11.8529 9.91476 11.9678 10.0403 12.0757L8.32006 14.8674H6.73778V15.8891H9.91776V14.8674H9.52622L10.6882 12.9816L10.6624 13.0509L11.1644 12.7699C11.6674 12.98 12.2233 13.0974 12.8136 13.0974L12.8117 13.0886L14.1542 13.8293L13.4606 14.955H11.8783V15.9767H15.0583V14.955H14.6668L16.105 12.6209L16.1036 12.6201L16.7184 12.215L19.6863 12.9952L18.4643 14.9783H16.8821V16H20.062V14.9783H19.6705L21.0566 12.7289L21.0675 12.7258L21.0618 12.7204L21.1087 12.6442L20.7639 12.4346L19.6879 11.4022C20.4077 11.0736 21.674 10.2298 22.3044 9.01461L23.4608 9.67764V6.55975L20.7419 8.11869L21.7165 8.67752C21.026 9.21597 20.0032 9.73363 18.6444 9.86088L19.8283 8.94079V3.59998L18.0044 5.01748V3.59998Z" fill="#DD2033"/>
</g>
</svg>
