<svg width="20" height="20" viewBox="0 0 20 20" fill="none" xmlns="http://www.w3.org/2000/svg">
<mask id="mask0_11482_5265" style="mask-type:alpha" maskUnits="userSpaceOnUse" x="0" y="0" width="20" height="20">
<circle cx="10" cy="10" r="10" fill="#D9D9D9"/>
</mask>
<g mask="url(#mask0_11482_5265)">
<rect width="20" height="20" fill="#004692"/>
<path d="M11.8856 9.16787L11.2963 9.75713L18.3674 16.8282L18.9567 16.2389L11.8856 9.16787Z" fill="#F5F7F8"/>
<path d="M10.3142 10.7392L9.33215 11.7213L16.4032 18.7924L17.3853 17.8103L10.3142 10.7392Z" fill="#F5F7F8"/>
<path d="M10.3142 10.7392L11.2963 9.75713L18.3674 16.8282L17.3853 17.8103L10.3142 10.7392Z" fill="#DD2033"/>
<path d="M10.6234 11.7201L10.0341 11.1309L2.96306 18.2019L3.55232 18.7912L10.6234 11.7201Z" fill="#F5F7F8"/>
<path d="M9.05204 10.1488L8.06995 9.16669L0.998879 16.2378L1.98097 17.2198L9.05204 10.1488Z" fill="#F5F7F8"/>
<path d="M9.05204 10.1488L10.0341 11.1309L2.96306 18.2019L1.98097 17.2198L9.05204 10.1488Z" fill="#DD2033"/>
<path d="M8.34884 11.2912L8.9381 10.702L1.86703 3.63091L1.27777 4.22017L8.34884 11.2912Z" fill="#F5F7F8"/>
<path d="M9.92019 9.71989L10.9023 8.73779L3.83122 1.66673L2.84912 2.64882L9.92019 9.71989Z" fill="#F5F7F8"/>
<path d="M9.92019 9.71989L8.9381 10.702L1.86703 3.63091L2.84912 2.64882L9.92019 9.71989Z" fill="#DD2033"/>
<path d="M9.05563 8.73886L9.64488 9.32811L16.716 2.25705L16.1267 1.66779L9.05563 8.73886Z" fill="#F5F7F8"/>
<path d="M10.627 10.3102L11.6091 11.2923L18.6801 4.22123L17.698 3.23914L10.627 10.3102Z" fill="#F5F7F8"/>
<path d="M10.627 10.3102L9.64488 9.32811L16.716 2.25705L17.698 3.23914L10.627 10.3102Z" fill="#DD2033"/>
<path fill-rule="evenodd" clip-rule="evenodd" d="M8.33333 20H6.94444L6.94445 13.0556H0V11.6667H6.94445L6.94445 8.33333H0V6.94444L6.94445 6.94444L6.94445 0H8.33333V6.94444H11.6667L11.6667 0H13.0556L13.0556 6.94444L20 6.94444V8.33333L13.0556 8.33333V11.6667L20 11.6667V13.0556L13.0556 13.0556L13.0556 20H11.6667L11.6667 13.0556H8.33333V20ZM11.6667 8.33333H8.33333L8.33333 11.6667H11.6667V8.33333Z" fill="#F5F7F8"/>
<path d="M8.33333 20H11.6667L11.6667 11.6667H20V8.33333L11.6667 8.33333L11.6667 0H8.33333V8.33333H0V11.6667H8.33333V20Z" fill="#DD2033"/>
</g>
</svg>
