<svg width="29" height="20" viewBox="0 0 29 20" fill="none" xmlns="http://www.w3.org/2000/svg">
<mask id="mask0_11482_5275" style="mask-type:alpha" maskUnits="userSpaceOnUse" x="0" y="0" width="29" height="20">
<rect width="29" height="20" fill="#D9D9D9"/>
</mask>
<g mask="url(#mask0_11482_5275)">
<rect width="29" height="20" fill="#004692"/>
<path d="M17.2342 8.80174L16.3797 9.65027L27.9442 21.135L28.7986 20.2865L17.2342 8.80174Z" fill="#F5F7F8"/>
<path d="M14.9557 11.0645L13.5317 12.4787L25.0962 23.9634L26.5202 22.5492L14.9557 11.0645Z" fill="#F5F7F8"/>
<path d="M14.9557 11.0645L16.3797 9.65027L27.9442 21.135L26.5202 22.5492L14.9557 11.0645Z" fill="#DD2033"/>
<path d="M15.404 12.477L14.5495 11.6285L2.82304 23.2741L3.67746 24.1226L15.404 12.477Z" fill="#F5F7F8"/>
<path d="M13.1255 10.2143L11.7015 8.80005L-0.0250326 20.4457L1.399 21.8599L13.1255 10.2143Z" fill="#F5F7F8"/>
<path d="M13.1255 10.2143L14.5495 11.6285L2.82304 23.2741L1.399 21.8599L13.1255 10.2143Z" fill="#DD2033"/>
<path d="M12.1059 11.8594L12.9603 11.0109L0.955916 -0.910713L0.101495 -0.0621851L12.1059 11.8594Z" fill="#F5F7F8"/>
<path d="M14.3843 9.59665L15.8083 8.18244L3.80398 -3.73914L2.37995 -2.32493L14.3843 9.59665Z" fill="#F5F7F8"/>
<path d="M14.3843 9.59665L12.9603 11.0109L0.955916 -0.910713L2.37995 -2.32493L14.3843 9.59665Z" fill="#DD2033"/>
<path d="M13.1307 8.18401L13.9851 9.03253L26.1703 -3.06857L25.3158 -3.9171L13.1307 8.18401Z" fill="#F5F7F8"/>
<path d="M15.4092 10.4467L16.8332 11.861L29.0183 -0.240143L27.5943 -1.65436L15.4092 10.4467Z" fill="#F5F7F8"/>
<path d="M15.4092 10.4467L13.9851 9.03253L26.1703 -3.06857L27.5943 -1.65436L15.4092 10.4467Z" fill="#DD2033"/>
<path fill-rule="evenodd" clip-rule="evenodd" d="M12.0833 24.4H10.0694L10.0694 14.4H0V12.4H10.0694L10.0694 7.59997H0V5.59997L10.0694 5.59997L10.0694 -4.40002H12.0833L12.0833 5.59997H16.9167L16.9167 -4.40002H18.9306V5.59997H29V7.59997L18.9306 7.59997V12.4L29 12.4V14.4L18.9306 14.4L18.9306 24.4H16.9167V14.4H12.0833L12.0833 24.4ZM16.9167 7.59997H12.0833V12.4H16.9167V7.59997Z" fill="#F5F7F8"/>
<path d="M12.0833 24.4H16.9167V12.4H29V7.59997L16.9167 7.59997L16.9167 -4.40002H12.0833L12.0833 7.59997H0V12.4H12.0833L12.0833 24.4Z" fill="#DD2033"/>
</g>
</svg>
