<svg width="72" height="72" viewBox="0 0 72 72" fill="none" xmlns="http://www.w3.org/2000/svg">
<mask id="mask0_38_8727" style="mask-type:alpha" maskUnits="userSpaceOnUse" x="0" y="0" width="72" height="72">
<circle cx="36" cy="36" r="36" transform="rotate(-90 36 36)" fill="#D9D9D9"/>
</mask>
<g mask="url(#mask0_38_8727)">
<rect width="72" height="72" fill="#A00009"/>
<mask id="mask1_38_8727" style="mask-type:alpha" maskUnits="userSpaceOnUse" x="8" y="8" width="56" height="56">
<circle cx="36" cy="36" r="28" fill="#DD2033"/>
</mask>
<g mask="url(#mask1_38_8727)">
<rect x="68.5161" y="68.5161" width="65.0323" height="65.0323" transform="rotate(-180 68.5161 68.5161)" fill="#008259"/>
<path d="M3.30328 68.5161L34.9162 36L3.30329 3.48385L68.3356 3.48386L34.9162 36L68.3355 68.5161L3.30328 68.5161Z" fill="#F1B434"/>
</g>
<rect x="22.6001" y="23" width="26" height="26" rx="13" fill="#A00009"/>
<path d="M35.6002 23L32.0233 31.0906L23.6001 32.1671L29.8128 38.2442L28.1836 47L35.6001 42L43.0166 47L41.3874 38.2442L47.6001 32.1671L39.1769 31.0906L35.6002 23Z" fill="#F1B434"/>
<path fill-rule="evenodd" clip-rule="evenodd" d="M35.6001 6C36.7046 6 37.6001 5.10457 37.6001 4C37.6001 2.89543 36.7046 2 35.6001 2C34.4955 2 33.6001 2.89543 33.6001 4C33.6001 5.10457 34.4955 6 35.6001 6ZM20.6001 10.0192C21.5567 9.46693 21.8844 8.24375 21.3321 7.28717C20.7798 6.33058 19.5567 6.00283 18.6001 6.55512C17.6435 7.1074 17.3157 8.33058 17.868 9.28717C18.4203 10.2438 19.6435 10.5715 20.6001 10.0192ZM53.3321 9.2872C52.7798 10.2438 51.5567 10.5715 50.6001 10.0192C49.6435 9.46696 49.3157 8.24378 49.868 7.2872C50.4203 6.33061 51.6435 6.00286 52.6001 6.55515C53.5567 7.10743 53.8844 8.33061 53.3321 9.2872ZM35.6001 70C36.7046 70 37.6001 69.1046 37.6001 68C37.6001 66.8954 36.7046 66 35.6001 66C34.4955 66 33.6001 66.8954 33.6001 68C33.6001 69.1046 34.4955 70 35.6001 70ZM53.3321 62.7128C53.8844 63.6694 53.5567 64.8926 52.6001 65.4449C51.6435 65.9972 50.4203 65.6694 49.868 64.7128C49.3157 63.7562 49.6435 62.5331 50.6001 61.9808C51.5567 61.4285 52.7798 61.7562 53.3321 62.7128ZM18.6001 65.4449C19.5567 65.9972 20.7798 65.6694 21.3321 64.7129C21.8844 63.7563 21.5567 62.5331 20.6001 61.9808C19.6435 61.4285 18.4203 61.7563 17.868 62.7129C17.3157 63.6694 17.6435 64.8926 18.6001 65.4449Z" fill="#F1B434"/>
</g>
</svg>
