<svg width="20" height="20" viewBox="0 0 20 20" fill="none" xmlns="http://www.w3.org/2000/svg">
<mask id="mask0_11482_5333" style="mask-type:alpha" maskUnits="userSpaceOnUse" x="0" y="0" width="20" height="20">
<circle cx="10" cy="10" r="10" transform="rotate(-90 10 10)" fill="#D9D9D9"/>
</mask>
<g mask="url(#mask0_11482_5333)">
<rect width="20" height="20" fill="#A00009"/>
<mask id="mask1_11482_5333" style="mask-type:alpha" maskUnits="userSpaceOnUse" x="2" y="2" width="16" height="16">
<circle cx="10" cy="10" r="7.77778" fill="#DD2033"/>
</mask>
<g mask="url(#mask1_11482_5333)">
<rect x="19.0323" y="19.0322" width="18.0645" height="18.0645" transform="rotate(-180 19.0323 19.0322)" fill="#008259"/>
<path d="M0.917572 19.0322L9.69894 9.99997L0.917574 0.967709L18.9821 0.967711L9.69894 9.99997L18.9821 19.0322L0.917572 19.0322Z" fill="#F1B434"/>
</g>
<path d="M6.2778 10C6.2778 8.00567 7.89455 6.38892 9.88891 6.38892C11.8833 6.38892 13.5 8.00567 13.5 10C13.5 11.9944 11.8833 13.6111 9.88891 13.6111C7.89455 13.6111 6.2778 11.9944 6.2778 10Z" fill="#A00009"/>
<path d="M9.88892 6.38892L8.89534 8.63631L6.55557 8.93534L8.28133 10.6234L7.82876 13.0556L9.8889 11.6667L11.9491 13.0556L11.4965 10.6234L13.2222 8.93534L10.8825 8.63631L9.88892 6.38892Z" fill="#F1B434"/>
<path fill-rule="evenodd" clip-rule="evenodd" d="M9.88892 1.66665C10.1957 1.66665 10.4445 1.41792 10.4445 1.1111C10.4445 0.804273 10.1957 0.555542 9.88892 0.555542C9.58209 0.555542 9.33336 0.804273 9.33336 1.1111C9.33336 1.41792 9.58209 1.66665 9.88892 1.66665ZM5.72225 2.7831C5.98797 2.62969 6.07901 2.28992 5.9256 2.0242C5.77219 1.75848 5.43241 1.66744 5.1667 1.82085C4.90098 1.97426 4.80994 2.31404 4.96335 2.57975C5.11676 2.84547 5.45653 2.93651 5.72225 2.7831ZM14.8145 2.57976C14.6611 2.84548 14.3213 2.93652 14.0556 2.78311C13.7899 2.6297 13.6988 2.28993 13.8522 2.02421C14.0056 1.75849 14.3454 1.66745 14.6111 1.82086C14.8769 1.97427 14.9679 2.31405 14.8145 2.57976ZM9.88892 19.4444C10.1957 19.4444 10.4445 19.1957 10.4445 18.8889C10.4445 18.5821 10.1957 18.3333 9.88892 18.3333C9.58209 18.3333 9.33336 18.5821 9.33336 18.8889C9.33336 19.1957 9.58209 19.4444 9.88892 19.4444ZM14.8145 17.4202C14.9679 17.6859 14.8769 18.0257 14.6111 18.1791C14.3454 18.3325 14.0056 18.2415 13.8522 17.9758C13.6988 17.7101 13.7899 17.3703 14.0556 17.2169C14.3213 17.0635 14.6611 17.1545 14.8145 17.4202ZM5.1667 18.1791C5.43241 18.3325 5.77219 18.2415 5.9256 17.9758C6.07901 17.7101 5.98797 17.3703 5.72225 17.2169C5.45653 17.0635 5.11676 17.1545 4.96335 17.4202C4.80994 17.6859 4.90098 18.0257 5.1667 18.1791Z" fill="#F1B434"/>
</g>
</svg>
