<svg width="29" height="20" viewBox="0 0 29 20" fill="none" xmlns="http://www.w3.org/2000/svg">
<mask id="mask0_11482_5350" style="mask-type:alpha" maskUnits="userSpaceOnUse" x="0" y="0" width="29" height="20">
<rect width="29" height="20" fill="#D9D9D9"/>
</mask>
<g mask="url(#mask0_11482_5350)">
<rect width="29" height="20" fill="#A00009"/>
<rect x="26.1806" y="17.2" width="23.3611" height="14.4" transform="rotate(-180 26.1806 17.2)" fill="#008259"/>
<path d="M2.81946 17.2L14.1756 10L2.81946 2.80001L26.1806 2.80001L14.1756 10L26.1806 17.2L2.81946 17.2Z" fill="#F1B434"/>
<path d="M10.4722 10C10.4722 7.79086 12.2755 6 14.5 6C16.7245 6 18.5278 7.79086 18.5278 10C18.5278 12.2091 16.7245 14 14.5 14C12.2755 14 10.4722 12.2091 10.4722 10Z" fill="#A00009"/>
<path d="M14.5 6L13.3918 8.48942L10.7821 8.82065L12.707 10.6905L12.2022 13.3846L14.5 11.8462L16.7979 13.3846L16.2931 10.6905L18.218 8.82065L15.6082 8.48942L14.5 6Z" fill="#F1B434"/>
<path fill-rule="evenodd" clip-rule="evenodd" d="M7.85417 1.99999C8.18784 1.99999 8.45833 1.73136 8.45833 1.39999C8.45833 1.06862 8.18784 0.799988 7.85417 0.799988C7.52049 0.799988 7.25 1.06862 7.25 1.39999C7.25 1.73136 7.52049 1.99999 7.85417 1.99999ZM15.1042 1.39999C15.1042 1.73136 14.8337 1.99999 14.5 1.99999C14.1663 1.99999 13.8958 1.73136 13.8958 1.39999C13.8958 1.06862 14.1663 0.799988 14.5 0.799988C14.8337 0.799988 15.1042 1.06862 15.1042 1.39999ZM21.75 1.39999C21.75 1.73136 21.4795 1.99999 21.1458 1.99999C20.8122 1.99999 20.5417 1.73136 20.5417 1.39999C20.5417 1.06862 20.8122 0.799988 21.1458 0.799988C21.4795 0.799988 21.75 1.06862 21.75 1.39999Z" fill="#F1B434"/>
<path fill-rule="evenodd" clip-rule="evenodd" d="M7.85417 19.2C8.18784 19.2 8.45833 18.9314 8.45833 18.6C8.45833 18.2686 8.18784 18 7.85417 18C7.52049 18 7.25 18.2686 7.25 18.6C7.25 18.9314 7.52049 19.2 7.85417 19.2ZM15.1042 18.6C15.1042 18.9314 14.8337 19.2 14.5 19.2C14.1663 19.2 13.8958 18.9314 13.8958 18.6C13.8958 18.2686 14.1663 18 14.5 18C14.8337 18 15.1042 18.2686 15.1042 18.6ZM21.75 18.6C21.75 18.9314 21.4795 19.2 21.1458 19.2C20.8122 19.2 20.5417 18.9314 20.5417 18.6C20.5417 18.2686 20.8122 18 21.1458 18C21.4795 18 21.75 18.2686 21.75 18.6Z" fill="#F1B434"/>
</g>
</svg>
