<svg width="20" height="20" viewBox="0 0 20 20" fill="none" xmlns="http://www.w3.org/2000/svg">
<mask id="mask0_11482_5368" style="mask-type:alpha" maskUnits="userSpaceOnUse" x="0" y="0" width="20" height="20">
<circle cx="10" cy="10" r="10" fill="#D9D9D9"/>
</mask>
<g mask="url(#mask0_11482_5368)">
<rect width="20" height="20" fill="#F5F7F8"/>
<path d="M8.44442 20H11.7778L11.7778 11.6667H20V8.33333L11.7778 8.33333L11.7778 0H8.44442V8.33333H0V11.6667H8.44442V20Z" fill="#DD2033"/>
<path d="M2.88886 5.55556V4.44444H4.55553V2.77778H5.66664V4.44444H7.33331V5.55556H5.66664V7.22222H4.55553V5.55556H2.88886Z" fill="#DD2033"/>
<path d="M12.8889 5.55556V4.44444H14.5555V2.77778H15.6666V4.44444H17.3333V5.55556H15.6666V7.22222H14.5555V5.55556H12.8889Z" fill="#DD2033"/>
<path d="M2.88886 15.5556V14.4444H4.55553V12.7778H5.66664V14.4444H7.33331V15.5556H5.66664V17.2222H4.55553V15.5556H2.88886Z" fill="#DD2033"/>
<path d="M12.8889 15.5556V14.4444H14.5555V12.7778H15.6666V14.4444H17.3333V15.5556H15.6666V17.2222H14.5555V15.5556H12.8889Z" fill="#DD2033"/>
</g>
</svg>
