<svg width="72" height="72" viewBox="0 0 72 72" fill="none" xmlns="http://www.w3.org/2000/svg">
<mask id="mask0_38_9883" style="mask-type:alpha" maskUnits="userSpaceOnUse" x="0" y="0" width="72" height="72">
<circle cx="36" cy="36" r="36" transform="rotate(-90 36 36)" fill="#D9D9D9"/>
</mask>
<g mask="url(#mask0_38_9883)">
<rect y="6.10352e-05" width="72" height="48" fill="#F5F7F8"/>
<rect y="48" width="72" height="24" fill="#DD2033"/>
<path d="M21 19.9999L21 23.9999H23L23 19.9999H27L27 23.9999H25V30.9999H30V16.9999L28 16.9999V12.9999L32 12.9999L32 16.9999L34 16.9999V12.9999L38 12.9999V16.9999L40 16.9999V12.9999L44 12.9999V16.9999L42 16.9999V30.9999H47V23.9999H45V19.9999H49V23.9999H51V19.9999L55 19.9999V23.9999H53V30.9999L54 30.9999V43.9999L18 43.9999L18 30.9999H19L19 23.9999L17 23.9999L17 19.9999H21Z" fill="#DD2033"/>
<path fill-rule="evenodd" clip-rule="evenodd" d="M36.6001 67H33.6001V65.7923H28.6001L28.6001 58.7923H33.6001L33.6001 53.7416C30.8962 52.9544 28.9204 50.4579 28.9204 47.5C28.9204 43.9101 31.8306 41 35.4204 41C39.0103 41 41.9204 43.9101 41.9204 47.5C41.9204 50.687 39.6267 53.3383 36.6001 53.8932L36.6001 67ZM38.9204 47.5C38.9204 49.433 37.3534 51 35.4204 51C33.4874 51 31.9204 49.433 31.9204 47.5C31.9204 45.567 33.4874 44 35.4204 44C37.3534 44 38.9204 45.567 38.9204 47.5Z" fill="#F1B434"/>
</g>
</svg>
