<svg width="20" height="20" viewBox="0 0 20 20" fill="none" xmlns="http://www.w3.org/2000/svg">
<mask id="mask0_11482_5421" style="mask-type:alpha" maskUnits="userSpaceOnUse" x="0" y="0" width="20" height="20">
<circle cx="10" cy="10" r="10" transform="rotate(-90 10 10)" fill="#D9D9D9"/>
</mask>
<g mask="url(#mask0_11482_5421)">
<rect y="6.10352e-05" width="20" height="13.3333" fill="#F5F7F8"/>
<rect y="13.3333" width="20" height="6.66667" fill="#DD2033"/>
<path d="M5.83334 5.55553L5.83334 6.66664H6.3889L6.3889 5.55553H7.50001L7.50001 6.66664H6.94445V8.61108H8.33334V4.72219L7.77778 4.7222V3.61108L8.8889 3.61108V4.7222L9.44445 4.7222V3.61108L10.5556 3.61108V4.7222L11.1111 4.7222V3.61109L12.2222 3.61108V4.7222L11.6667 4.7222V8.61108H13.0556V6.66664H12.5V5.55553H13.6111V6.66664H14.1667V5.55553L15.2778 5.55553V6.66664H14.7222V8.61108L15 8.61108V12.2222L5.00001 12.2222L5.00001 8.61108H5.27778L5.27779 6.66664L4.72223 6.66664L4.72223 5.55553H5.83334Z" fill="#DD2033"/>
<path fill-rule="evenodd" clip-rule="evenodd" d="M10.1667 18.6111H9.33336V18.2756H7.94447L7.94447 16.3312H9.33336L9.33336 14.9282C8.58229 14.7095 8.03345 14.0161 8.03345 13.1944C8.03345 12.1972 8.84182 11.3889 9.839 11.3889C10.8362 11.3889 11.6446 12.1972 11.6446 13.1944C11.6446 14.0797 11.0074 14.8162 10.1667 14.9703L10.1667 18.6111ZM10.8112 13.1944C10.8112 13.7314 10.3759 14.1666 9.839 14.1666C9.30206 14.1666 8.86678 13.7314 8.86678 13.1944C8.86678 12.6575 9.30206 12.2222 9.839 12.2222C10.3759 12.2222 10.8112 12.6575 10.8112 13.1944Z" fill="#F1B434"/>
</g>
</svg>
