<svg width="29" height="20" viewBox="0 0 29 20" fill="none" xmlns="http://www.w3.org/2000/svg">
<mask id="mask0_11482_5427" style="mask-type:alpha" maskUnits="userSpaceOnUse" x="0" y="0" width="29" height="20">
<rect width="29" height="20" fill="#D9D9D9"/>
</mask>
<g mask="url(#mask0_11482_5427)">
<rect width="29" height="14" fill="#F5F7F8"/>
<rect y="14" width="29" height="6" fill="#DD2033"/>
<path d="M8.45834 3.99995L8.45834 5.59995H9.2639L9.2639 3.99995H10.875L10.875 5.59995H10.0695V7.19995H12.0833V2.79995L11.2778 2.79995V1.19995L12.8889 1.19995L12.8889 2.79995L13.6945 2.79995V1.19995L15.3056 1.19995V2.79995L16.1111 2.79995V1.19995L17.7222 1.19995V2.79995L16.9167 2.79995V7.19995H18.9306V5.59995H18.125V3.99995H19.7361V5.59995H20.5417V3.99995L22.1528 3.99995V5.59995H21.3472V7.19995L21.75 7.19995V11.6L7.25001 11.6L7.25001 7.19995H7.65279L7.65279 5.59995L6.84723 5.59995L6.84723 3.99995H8.45834Z" fill="#DD2033"/>
<path fill-rule="evenodd" clip-rule="evenodd" d="M15.1445 19.2H13.9361V18.7169H11.9223L11.9223 15.9169H13.9361L13.9361 13.8967C12.8471 13.5818 12.0513 12.5832 12.0513 11.4C12.0513 9.96405 13.2234 8.79999 14.6693 8.79999C16.1152 8.79999 17.2874 9.96405 17.2874 11.4C17.2874 12.6748 16.3635 13.7353 15.1445 13.9573L15.1445 19.2ZM16.079 11.4C16.079 12.1732 15.4479 12.8 14.6693 12.8C13.8908 12.8 13.2596 12.1732 13.2596 11.4C13.2596 10.6268 13.8908 9.99999 14.6693 9.99999C15.4479 9.99999 16.079 10.6268 16.079 11.4Z" fill="#F1B434"/>
</g>
</svg>
