<svg width="72" height="72" viewBox="0 0 72 72" fill="none" xmlns="http://www.w3.org/2000/svg">
<mask id="mask0_38_10494" style="mask-type:alpha" maskUnits="userSpaceOnUse" x="0" y="0" width="72" height="72">
<circle cx="36" cy="36" r="36" fill="#D9D9D9"/>
</mask>
<g mask="url(#mask0_38_10494)">
<rect x="0.000244141" y="72.0001" width="22" height="72" transform="rotate(-90 0.000244141 72.0001)" fill="#DD2033"/>
<rect y="49.9999" width="28" height="72" transform="rotate(-90 0 49.9999)" fill="#F5F7F8"/>
<rect y="21.9999" width="22" height="72" transform="rotate(-90 0 21.9999)" fill="#008259"/>
<path d="M28 36L0 0V72L28 36Z" fill="#0091DA"/>
<path d="M36 25H56V32.9412C56 39.0164 52.3013 44.4795 46.6607 46.7357L46 47L45.3393 46.7357C39.6987 44.4795 36 39.0164 36 32.9412V25Z" fill="#C1C3C3"/>
<rect x="44" y="36" width="4" height="6" fill="#936846"/>
<path d="M50.0001 32.0001C50.0001 29.7908 48.2093 28 46 28C43.7907 28 41.9999 29.7908 41.9999 32.0001C40.8954 32.0001 40 32.8955 40 34C40 35.1046 40.8954 36 41.9999 36H50.0001C51.1046 36 52 35.1046 52 34C52 32.8955 51.1048 32.0001 50.0001 32.0001Z" fill="#009B77"/>
</g>
</svg>
