<svg width="20" height="20" viewBox="0 0 20 20" fill="none" xmlns="http://www.w3.org/2000/svg">
<mask id="mask0_11482_5487" style="mask-type:alpha" maskUnits="userSpaceOnUse" x="0" y="0" width="20" height="20">
<circle cx="10" cy="10" r="10" fill="#D9D9D9"/>
</mask>
<g mask="url(#mask0_11482_5487)">
<rect x="0.000244141" y="20" width="6.11111" height="20" transform="rotate(-90 0.000244141 20)" fill="#DD2033"/>
<rect y="13.8889" width="7.77778" height="20" transform="rotate(-90 0 13.8889)" fill="#F5F7F8"/>
<rect y="6.11108" width="6.11111" height="20" transform="rotate(-90 0 6.11108)" fill="#008259"/>
<path d="M7.77778 10L0 0V20L7.77778 10Z" fill="#0091DA"/>
<path d="M10 6.94446H15.5556V8.9527C15.5556 10.7596 14.4555 12.3845 12.7778 13.0556C11.1001 12.3845 10 10.7596 10 8.9527V6.94446Z" fill="#C1C3C3"/>
<rect x="12.2222" y="10" width="1.11111" height="1.66667" fill="#936846"/>
<path d="M13.8889 8.88897C13.8889 8.27528 13.3914 7.77783 12.7778 7.77783C12.1641 7.77783 11.6666 8.27528 11.6666 8.88897C11.3598 8.88897 11.1111 9.13769 11.1111 9.44451C11.1111 9.75133 11.3598 10.0001 11.6666 10.0001H13.8889C14.1957 10.0001 14.4444 9.75133 14.4444 9.44451C14.4444 9.13769 14.1957 8.88897 13.8889 8.88897Z" fill="#009B77"/>
</g>
</svg>
