<svg width="20" height="20" viewBox="0 0 20 20" fill="none" xmlns="http://www.w3.org/2000/svg">
<mask id="mask0_11482_5507" style="mask-type:alpha" maskUnits="userSpaceOnUse" x="0" y="0" width="20" height="20">
<circle cx="10" cy="10" r="10" fill="#D9D9D9"/>
</mask>
<g mask="url(#mask0_11482_5507)">
<rect y="20" width="20" height="20" transform="rotate(-90 0 20)" fill="#005EB8"/>
<path d="M10 2.5V5L20 5V2.5L10 2.5Z" fill="#F5F7F8"/>
<path d="M10 7.5V10L20 10V7.5L10 7.5Z" fill="#F5F7F8"/>
<path d="M0 15V12.5L20 12.5V15L0 15Z" fill="#F5F7F8"/>
<path d="M0 17.5V20H20V17.5L0 17.5Z" fill="#F5F7F8"/>
<path d="M6.11111 0H3.61111V5H0V7.5H3.61111V12.5H6.11111V7.5H10V5H6.11111V0Z" fill="#F5F7F8"/>
</g>
</svg>
