<svg width="72" height="72" viewBox="0 0 72 72" fill="none" xmlns="http://www.w3.org/2000/svg">
<mask id="mask0_38_10769" style="mask-type:alpha" maskUnits="userSpaceOnUse" x="0" y="0" width="72" height="72">
<circle cx="36" cy="36" r="36" transform="rotate(-90 36 36)" fill="#D9D9D9"/>
</mask>
<g mask="url(#mask0_38_10769)">
<rect width="72" height="72" fill="#004692"/>
<rect x="46.4001" y="26.8" width="9" height="8" fill="#C1C3C3"/>
<path d="M47.4001 19.8L49.9001 19.8L49.9001 22.8L53.4001 22.8L53.4001 26.8L47.4001 26.8L47.4001 19.8Z" fill="#936846"/>
<path d="M61.4001 52.8H40.4001V57.8H43.4001V60.8H58.4001V57.8H61.4001V52.8Z" fill="#FBD381"/>
<path d="M40.4003 34.8L61.4003 34.8L61.4003 43.5432C61.4003 49.6265 57.6919 55.0951 52.0404 57.3459L50.9003 57.8L49.7603 57.3459C44.1088 55.0951 40.4003 49.6264 40.4003 43.5432L40.4003 34.8Z" fill="#F5F7F8"/>
<mask id="mask1_38_10769" style="mask-type:alpha" maskUnits="userSpaceOnUse" x="0" y="0" width="36" height="36">
<path d="M0 36V36C-8.69081e-07 16.1177 16.1177 -7.04529e-07 36 -1.57361e-06V-1.57361e-06L36 36L0 36Z" fill="#002F6C"/>
</mask>
<g mask="url(#mask1_38_10769)">
<rect x="-0.000244141" width="36" height="36" fill="#004692"/>
<path d="M12.5223 3.1339L10.401 5.25522L39.927 34.7812L42.0483 32.6599L12.5223 3.1339Z" fill="#F5F7F8"/>
<path d="M6.86549 8.79076L3.32996 12.3263L32.856 41.8523L36.3915 38.3168L6.86549 8.79076Z" fill="#F5F7F8"/>
<path d="M6.86549 8.79076L10.401 5.25522L39.927 34.7812L36.3915 38.3168L6.86549 8.79076Z" fill="#DD2033"/>
<path d="M36 11.9999V16.9999L17 16.9999L17 36H12V11.9999H36Z" fill="#F5F7F8"/>
<path d="M36 -2V3L5 3L5 36H0V-2H36Z" fill="#F5F7F8"/>
<path fill-rule="evenodd" clip-rule="evenodd" d="M3 36H12L12 12L36 12V3H12H3L3 12L3 36Z" fill="#DD2033"/>
</g>
</g>
<mask id="mask2_38_10769" style="mask-type:alpha" maskUnits="userSpaceOnUse" x="40" y="34" width="22" height="24">
<path d="M40.4001 34.8L61.4001 34.8L61.4001 43.5433C61.4001 49.6265 57.6917 55.0952 52.0402 57.346L50.9001 57.8L49.7601 57.346C44.1086 55.0952 40.4001 49.6265 40.4001 43.5433L40.4001 34.8Z" fill="#F5F7F8"/>
</mask>
<g mask="url(#mask2_38_10769)">
<path d="M50.6502 34.3L55.4003 39.05L50.6502 43.8L45.9002 39.05L50.6502 34.3Z" fill="#005EB8"/>
<path d="M41.1502 43.8001L45.9002 48.5501L41.1502 53.3002L36.4001 48.5501L41.1502 43.8001Z" fill="#005EB8"/>
<path d="M64.9007 39.0501L60.1507 34.3L55.4003 39.05L60.1507 43.8001L64.9007 39.0501Z" fill="#005EB8"/>
<path d="M50.6502 43.8L55.4003 48.5501L50.6503 53.3001L55.4003 58.0501L50.6502 62.8001L45.9002 58.0501L50.6503 53.3001L45.9002 48.5501L50.6502 43.8Z" fill="#005EB8"/>
<path d="M45.9002 39.05L41.1502 34.3L36.4001 39.05L41.1502 43.8001L45.9002 39.05Z" fill="#005EB8"/>
<path d="M60.1507 43.8001L64.9007 48.5501L60.1507 53.3002L55.4003 48.5501L60.1507 43.8001Z" fill="#005EB8"/>
</g>
</svg>
