<svg width="20" height="20" viewBox="0 0 20 20" fill="none" xmlns="http://www.w3.org/2000/svg">
<mask id="mask0_11482_5527" style="mask-type:alpha" maskUnits="userSpaceOnUse" x="0" y="0" width="20" height="20">
<circle cx="10" cy="10" r="10" transform="rotate(-90 10 10)" fill="#D9D9D9"/>
</mask>
<g mask="url(#mask0_11482_5527)">
<rect width="20" height="20" fill="#004692"/>
<rect x="12.8889" y="7.44446" width="2.5" height="2.22222" fill="#C1C3C3"/>
<path d="M13.1667 5.5L13.8611 5.5L13.8611 6.33333L14.8334 6.33333L14.8334 7.44444L13.1667 7.44444L13.1667 5.5Z" fill="#936846"/>
<path d="M17.0556 14.6666H11.2223V16.0555H12.0556V16.8888H16.2223V16.0555H17.0556V14.6666Z" fill="#FBD381"/>
<path d="M11.2223 9.66663L17.0557 9.66663L17.0557 12.0953C17.0557 13.7851 16.0255 15.3042 14.4557 15.9294L14.139 16.0555L13.8223 15.9294C12.2524 15.3042 11.2223 13.7851 11.2223 12.0953L11.2223 9.66663Z" fill="#F5F7F8"/>
<mask id="mask1_11482_5527" style="mask-type:alpha" maskUnits="userSpaceOnUse" x="0" y="0" width="10" height="10">
<path d="M0 10C-8.69081e-07 4.47715 4.47715 -5.43618e-08 10 -1.21421e-07L10 10L0 10Z" fill="#002F6C"/>
</mask>
<g mask="url(#mask1_11482_5527)">
<rect x="-0.000244141" width="10" height="10" fill="#004692"/>
<path d="M3.47845 0.870508L2.88919 1.45976L11.0909 9.66143L11.6801 9.07217L3.47845 0.870508Z" fill="#F5F7F8"/>
<path d="M1.9071 2.44186L0.925004 3.42395L9.12667 11.6256L10.1088 10.6435L1.9071 2.44186Z" fill="#F5F7F8"/>
<path d="M1.9071 2.44186L2.88919 1.45976L11.0909 9.66143L10.1088 10.6435L1.9071 2.44186Z" fill="#DD2033"/>
<path d="M10 3.33337L10 4.72226L4.72223 4.72226L4.72223 10H3.33334L3.33334 3.33337H10Z" fill="#F5F7F8"/>
<path d="M10 -0.555542V0.833347L1.3889 0.833346L1.3889 10H1.52588e-05L1.52588e-05 -0.555542L10 -0.555542Z" fill="#F5F7F8"/>
<path fill-rule="evenodd" clip-rule="evenodd" d="M0.833344 10H3.33334L3.33335 3.33337L10 3.33337L10 0.833374L3.33335 0.833374L0.833345 0.833374L0.833344 3.33337L0.833344 10Z" fill="#DD2033"/>
</g>
</g>
<mask id="mask2_11482_5527" style="mask-type:alpha" maskUnits="userSpaceOnUse" x="11" y="9" width="7" height="8">
<path d="M11.2223 9.66663L17.0556 9.66663L17.0556 12.0953C17.0556 13.7851 16.0255 15.3042 14.4556 15.9294L14.1389 16.0555L13.8222 15.9294C12.2524 15.3042 11.2223 13.7851 11.2223 12.0953L11.2223 9.66663Z" fill="#F5F7F8"/>
</mask>
<g mask="url(#mask2_11482_5527)">
<path d="M14.0695 9.52783L15.389 10.8473L14.0695 12.1667L12.7501 10.8473L14.0695 9.52783Z" fill="#005EB8"/>
<path d="M11.4306 12.1668L12.75 13.4862L11.4306 14.8057L10.1111 13.4862L11.4306 12.1668Z" fill="#005EB8"/>
<path d="M18.028 10.8473L16.7085 9.52785L15.389 10.8473L16.7085 12.1668L18.028 10.8473Z" fill="#005EB8"/>
<path d="M14.0695 12.1667L15.389 13.4862L14.0695 14.8056L15.389 16.1251L14.0695 17.4445L12.7501 16.1251L14.0695 14.8056L12.75 13.4862L14.0695 12.1667Z" fill="#005EB8"/>
<path d="M12.7501 10.8473L11.4306 9.52783L10.1111 10.8473L11.4306 12.1668L12.7501 10.8473Z" fill="#005EB8"/>
<path d="M16.7085 12.1668L18.028 13.4862L16.7085 14.8057L15.389 13.4862L16.7085 12.1668Z" fill="#005EB8"/>
</g>
</svg>
