<svg width="29" height="20" viewBox="0 0 29 20" fill="none" xmlns="http://www.w3.org/2000/svg">
<mask id="mask0_11482_5544" style="mask-type:alpha" maskUnits="userSpaceOnUse" x="0" y="0" width="29" height="20">
<rect width="29" height="20" fill="#D9D9D9"/>
</mask>
<g mask="url(#mask0_11482_5544)">
<rect width="29" height="20" fill="#004692"/>
<mask id="mask1_11482_5544" style="mask-type:alpha" maskUnits="userSpaceOnUse" x="0" y="0" width="15" height="12">
<path d="M0 12L-1.31134e-06 0L14.5 -2.53526e-07L14.5 12L0 12Z" fill="#002F6C"/>
</mask>
<g mask="url(#mask1_11482_5544)">
<path d="M5.15185 0.401901L4.29743 1.25043L14.849 11.7292L15.7034 10.8807L5.15185 0.401901Z" fill="#F5F7F8"/>
<path d="M2.87339 2.66464L1.44936 4.07886L12.0009 14.5577L13.425 13.1435L2.87339 2.66464Z" fill="#F5F7F8"/>
<path d="M2.87339 2.66464L4.29743 1.25043L14.849 11.7292L13.425 13.1435L2.87339 2.66464Z" fill="#DD2033"/>
<path d="M2.41667 14H4.02847L4.02847 3.59999H14.5V2H2.41667V14Z" fill="#F5F7F8"/>
<path d="M1.52588e-05 14H2.41737L2.41737 1.99998H14.5007V0H1.52588e-05V14Z" fill="#DD2033"/>
</g>
<rect x="20.1389" y="4.80005" width="3.625" height="3.2" fill="#C1C3C3"/>
<path d="M20.5417 2L21.5486 2L21.5486 3.2L22.9583 3.2V4.8L20.5417 4.8L20.5417 2Z" fill="#936846"/>
<path d="M26.1806 15.2H17.7222V17.2H18.9306V18.4H24.9722V17.2H26.1806V15.2Z" fill="#FBD381"/>
<path d="M17.7223 8L26.1807 8L26.1807 11.4973C26.1807 13.9306 24.687 16.1181 22.4107 17.0184L21.9515 17.2L21.4923 17.0184C19.216 16.1181 17.7223 13.9306 17.7223 11.4973L17.7223 8Z" fill="#F5F7F8"/>
</g>
<mask id="mask2_11482_5544" style="mask-type:alpha" maskUnits="userSpaceOnUse" x="17" y="8" width="10" height="10">
<path d="M17.7222 8L26.1806 8L26.1806 11.4973C26.1806 13.9306 24.6869 16.1181 22.4106 17.0184L21.9514 17.2L21.4922 17.0184C19.2159 16.1181 17.7222 13.9306 17.7222 11.4973L17.7222 8Z" fill="#F5F7F8"/>
</mask>
<g mask="url(#mask2_11482_5544)">
<path d="M21.8507 7.79993L23.7639 9.69994L21.8507 11.5999L19.9375 9.69994L21.8507 7.79993Z" fill="#005EB8"/>
<path d="M18.0243 11.6L19.9375 13.5L18.0243 15.4L16.1111 13.5L18.0243 11.6Z" fill="#005EB8"/>
<path d="M27.5905 9.69996L25.6773 7.79995L23.7639 9.69994L25.6773 11.6L27.5905 9.69996Z" fill="#005EB8"/>
<path d="M21.8507 11.5999L23.7639 13.5L21.8508 15.4L23.7639 17.3L21.8507 19.2L19.9375 17.3L21.8508 15.4L19.9375 13.5L21.8507 11.5999Z" fill="#005EB8"/>
<path d="M19.9375 9.69994L18.0243 7.79993L16.1111 9.69994L18.0243 11.6L19.9375 9.69994Z" fill="#005EB8"/>
<path d="M25.6773 11.6L27.5905 13.5L25.6773 15.4L23.7639 13.5L25.6773 11.6Z" fill="#005EB8"/>
</g>
</svg>
