<svg width="72" height="72" viewBox="0 0 72 72" fill="none" xmlns="http://www.w3.org/2000/svg">
<mask id="mask0_38_11920" style="mask-type:alpha" maskUnits="userSpaceOnUse" x="0" y="0" width="73" height="73">
<circle cx="36.0001" cy="36.0001" r="36" transform="rotate(-90 36.0001 36.0001)" fill="#D9D9D9"/>
</mask>
<g mask="url(#mask0_38_11920)">
<rect y="0.00012207" width="72" height="72" fill="#0091DA"/>
<rect x="16.0001" y="0.00012207" width="40" height="72" fill="#F5F7F8"/>
<path d="M18.4061 35.4352C18.1402 36.6662 18.0001 37.944 18.0001 39.2546C18.0001 49.1957 26.059 57.2546 36.0001 57.2546C45.9412 57.2546 54.0001 49.1957 54.0001 39.2546C54.0001 37.9159 53.854 36.6114 53.5768 35.3561L47.9135 37.8052C47.9707 38.2803 48.0001 38.764 48.0001 39.2546C48.0001 45.882 42.6275 51.2546 36.0001 51.2546C29.3727 51.2546 24.0001 45.882 24.0001 39.2546C24.0001 38.7923 24.0263 38.3362 24.0771 37.8876L18.4061 35.4352Z" fill="#009B77"/>
<path d="M28.0001 27.0001H42.0001C43.1047 27.0001 44.0001 27.8956 44.0001 29.0001C44.0001 30.1047 43.1047 31.0001 42.0001 31.0001H41.706L44.0001 44.0001H29.0001C27.8956 44.0001 27.0001 43.1047 27.0001 42.0001C27.0001 40.8956 27.8956 40.0001 29.0001 40.0001H30.2942L28.0001 27.0001Z" fill="#FBD381"/>
<path fill-rule="evenodd" clip-rule="evenodd" d="M42.871 35.9291C42.9033 31.7893 41.5552 27.6517 40.2998 25.124L42.091 24.2343C43.4473 26.9651 44.9063 31.4141 44.871 35.9446C44.8355 40.505 43.2734 45.2596 38.456 48.2916L37.3907 46.5989C41.4592 44.0382 42.8391 40.039 42.871 35.9291Z" fill="#F1B434"/>
<path d="M39.9143 21.0013C39.9699 20.8446 40.0001 20.6759 40.0001 20.5001C40.0001 19.6717 39.3285 19.0001 38.5001 19.0001C37.6717 19.0001 37.0001 19.6717 37.0001 20.5001C37.0001 21.1104 37.3646 21.6356 37.8878 21.8699C37.3396 22.4134 37.0001 23.1671 37.0001 24.0001C37.0001 25.657 38.3433 27.0001 40.0001 27.0001C40.3647 27.0001 40.7141 26.9351 41.0373 26.816C42.234 29.0546 43.3554 31.9238 43.7592 34.8972C44.3122 38.9698 43.5153 43.1247 39.8524 46.2382L41.1477 47.762C45.4848 44.0755 46.3546 39.1471 45.741 34.6281C45.277 31.211 43.9629 27.9639 42.5984 25.5008C42.8539 25.0594 43.0001 24.5469 43.0001 24.0001C43.0001 22.3433 41.657 21.0001 40.0001 21.0001C39.9714 21.0001 39.9428 21.0005 39.9143 21.0013Z" fill="#008259"/>
</g>
</svg>
