<svg width="29" height="20" viewBox="0 0 29 20" fill="none" xmlns="http://www.w3.org/2000/svg">
<mask id="mask0_11482_5569" style="mask-type:alpha" maskUnits="userSpaceOnUse" x="0" y="0" width="29" height="20">
<rect width="29" height="20" fill="#D9D9D9"/>
</mask>
<g mask="url(#mask0_11482_5569)">
<rect width="29" height="20" fill="#0091DA"/>
<rect x="6.44444" width="16.1111" height="20" fill="#F5F7F8"/>
<path d="M7.41353 8.97414C7.30641 9.46653 7.25 9.97766 7.25 10.5019C7.25 14.4783 10.4959 17.7019 14.5 17.7019C18.5041 17.7019 21.75 14.4783 21.75 10.5019C21.75 9.96642 21.6911 9.44462 21.5795 8.9425L19.2984 9.92211C19.3215 10.1122 19.3333 10.3056 19.3333 10.5019C19.3333 13.1528 17.1694 15.3019 14.5 15.3019C11.8306 15.3019 9.66667 13.1528 9.66667 10.5019C9.66667 10.317 9.67719 10.1345 9.69768 9.95507L7.41353 8.97414Z" fill="#009B77"/>
<path d="M11.2778 5.6001H16.9167C17.3616 5.6001 17.7222 5.95827 17.7222 6.4001C17.7222 6.84193 17.3616 7.2001 16.9167 7.2001H16.7982L17.7222 12.4001H11.6806C11.2357 12.4001 10.875 12.0419 10.875 11.6001C10.875 11.1583 11.2357 10.8001 11.6806 10.8001H12.2018L11.2778 5.6001Z" fill="#FBD381"/>
<path fill-rule="evenodd" clip-rule="evenodd" d="M17.2676 9.1716C17.2805 7.51572 16.7376 5.86064 16.2319 4.84959L16.9534 4.49371C17.4997 5.58602 18.0873 7.36561 18.0731 9.17783C18.0588 11.002 17.4296 12.9038 15.4893 14.1166L15.0602 13.4395C16.6989 12.4153 17.2547 10.8156 17.2676 9.1716Z" fill="#F1B434"/>
<path d="M16.0766 3.20051C16.0989 3.13781 16.1111 3.07033 16.1111 3.00002C16.1111 2.66865 15.8406 2.40002 15.5069 2.40002C15.1733 2.40002 14.9028 2.66865 14.9028 3.00002C14.9028 3.24415 15.0496 3.45422 15.2603 3.54792C15.0395 3.76535 14.9028 4.06683 14.9028 4.40002C14.9028 5.06277 15.4438 5.60002 16.1111 5.60002C16.258 5.60002 16.3987 5.57401 16.5289 5.52638C17.0109 6.42182 17.4625 7.56949 17.6252 8.75884C17.8479 10.3879 17.527 12.0499 16.0516 13.2952L16.5733 13.9048C18.3202 12.4302 18.6706 10.4588 18.4234 8.6512C18.2365 7.28439 17.7072 5.98554 17.1576 5.00031C17.2605 4.82374 17.3194 4.61872 17.3194 4.40002C17.3194 3.73728 16.7785 3.20002 16.1111 3.20002C16.0996 3.20002 16.088 3.20019 16.0766 3.20051Z" fill="#008259"/>
</g>
</svg>
