<svg width="20" height="20" viewBox="0 0 20 20" fill="none" xmlns="http://www.w3.org/2000/svg">
<mask id="mask0_11482_5561" style="mask-type:alpha" maskUnits="userSpaceOnUse" x="0" y="0" width="21" height="20">
<circle cx="10.0001" cy="10" r="10" transform="rotate(-90 10.0001 10)" fill="#D9D9D9"/>
</mask>
<g mask="url(#mask0_11482_5561)">
<rect y="0.00012207" width="20" height="20" fill="#0091DA"/>
<rect x="4.44448" y="0.00012207" width="11.1111" height="20" fill="#F5F7F8"/>
<path d="M5.11282 9.84314C5.03894 10.1851 5.00003 10.54 5.00003 10.9041C5.00003 13.6655 7.23861 15.9041 10 15.9041C12.7615 15.9041 15 13.6655 15 10.9041C15 10.5322 14.9594 10.1699 14.8825 9.82117L13.3093 10.5014C13.3252 10.6334 13.3334 10.7678 13.3334 10.9041C13.3334 12.745 11.841 14.2374 10 14.2374C8.15909 14.2374 6.6667 12.745 6.6667 10.9041C6.6667 10.7757 6.67396 10.649 6.68809 10.5243L5.11282 9.84314Z" fill="#009B77"/>
<path d="M7.77781 7.5H11.6667C11.9735 7.5 12.2223 7.74873 12.2223 8.05556C12.2223 8.36238 11.9735 8.61111 11.6667 8.61111H11.585L12.2223 12.2222H8.05559C7.74876 12.2222 7.50003 11.9735 7.50003 11.6667C7.50003 11.3598 7.74877 11.1111 8.05559 11.1111H8.41507L7.77781 7.5Z" fill="#FBD381"/>
<path fill-rule="evenodd" clip-rule="evenodd" d="M11.9086 9.98034C11.9176 8.83042 11.5431 7.68106 11.1944 6.97895L11.6919 6.73181C12.0687 7.49035 12.474 8.72618 12.4642 9.98467C12.4543 11.2514 12.0204 12.5722 10.6822 13.4144L10.3863 12.9442C11.5165 12.2329 11.8997 11.122 11.9086 9.98034Z" fill="#F1B434"/>
<path d="M11.0873 5.83372C11.1027 5.79019 11.1111 5.74332 11.1111 5.6945C11.1111 5.46438 10.9246 5.27783 10.6945 5.27783C10.4644 5.27783 10.2778 5.46438 10.2778 5.6945C10.2778 5.86403 10.3791 6.00991 10.5244 6.07498C10.3721 6.22598 10.2778 6.43534 10.2778 6.66672C10.2778 7.12696 10.6509 7.50005 11.1111 7.50005C11.2124 7.50005 11.3095 7.48199 11.3992 7.44891C11.7317 8.07075 12.0432 8.86774 12.1553 9.69368C12.3089 10.825 12.0876 11.9791 11.0701 12.844L11.4299 13.2673C12.6347 12.2432 12.8763 10.8742 12.7058 9.61893C12.5769 8.66975 12.2119 7.76778 11.8329 7.08359C11.9039 6.96097 11.9445 6.81859 11.9445 6.66672C11.9445 6.20648 11.5714 5.83339 11.1111 5.83339C11.1032 5.83339 11.0952 5.8335 11.0873 5.83372Z" fill="#008259"/>
</g>
</svg>
