<svg width="72" height="72" viewBox="0 0 72 72" fill="none" xmlns="http://www.w3.org/2000/svg">
<mask id="mask0_38_12481" style="mask-type:alpha" maskUnits="userSpaceOnUse" x="0" y="0" width="72" height="72">
<circle cx="36" cy="36" r="36" fill="#D9D9D9"/>
</mask>
<g mask="url(#mask0_38_12481)">
<rect width="72" height="72" fill="#DD2033"/>
<rect y="9" width="72" height="54" fill="#004692"/>
<path fill-rule="evenodd" clip-rule="evenodd" d="M35.7956 13.1472L37.6797 14.6619C44.3776 20.0465 48.0409 25.3877 49.4522 30.5623C50.8759 35.7825 49.9042 40.4537 48.0611 44.2483C46.2421 47.9932 43.5599 50.9296 41.4096 52.8944C40.323 53.8872 39.343 54.6585 38.6266 55.1868C38.2677 55.4515 37.973 55.6567 37.7616 55.7998C37.6559 55.8713 37.5709 55.9274 37.5089 55.9678C37.478 55.9879 37.4527 56.0042 37.4336 56.0164L37.4094 56.0318L37.4007 56.0373L37.3973 56.0394C37.3958 56.0403 37.3945 56.0412 35.8 53.5C35.8 53.5 61.3002 37.5001 35.8 17C9.80011 38.0001 35.8 53.5 35.8 53.5C34.2638 56.0768 34.2624 56.076 34.2609 56.0751L34.2574 56.073L34.2486 56.0677L34.2239 56.0528C34.2043 56.0409 34.1785 56.0251 34.1469 56.0056C34.0837 55.9664 33.9969 55.9119 33.889 55.8424C33.6734 55.7034 33.3726 55.5038 33.0064 55.2459C32.2754 54.7312 31.2751 53.9784 30.1658 53.0056C27.9716 51.0814 25.2286 48.1903 23.3668 44.4667C21.4773 40.6878 20.4866 36.0169 21.9399 30.7628C23.3774 25.5654 27.1043 20.1672 33.915 14.6662L35.7956 13.1472ZM35.8 53.5L37.3944 56.0412L35.84 57.0165L34.2638 56.0768L35.8 53.5Z" fill="#DD2033"/>
<mask id="mask1_38_12481" style="mask-type:alpha" maskUnits="userSpaceOnUse" x="24" y="17" width="24" height="37">
<path d="M35.7999 17C61.3001 37.5001 35.7999 53.5 35.7999 53.5C35.7999 53.5 9.8 38.0001 35.7999 17Z" fill="#FBD381"/>
</mask>
<g mask="url(#mask1_38_12481)">
<rect x="21.8" y="44" width="28" height="12" fill="#FBD381"/>
<rect x="21.8" y="38" width="28" height="6" fill="#0091DA"/>
<rect x="21.8" y="17" width="28" height="21" fill="#86C5FA"/>
<rect x="33.8" y="29" width="2" height="18" fill="#936846"/>
<path d="M35.3 22L36.8998 25.4314L40.5128 24.5749L38.8947 27.9972L41.8 30.3605L38.1828 31.1966L38.1928 35L35.3 32.6205L32.4072 35L32.4173 31.1966L28.8 30.3605L31.7053 27.9972L30.0875 24.5749L33.7002 25.4314L35.3 22Z" fill="#009B77"/>
</g>
</g>
</svg>
