<svg width="29" height="20" viewBox="0 0 29 20" fill="none" xmlns="http://www.w3.org/2000/svg">
<mask id="mask0_11482_5591" style="mask-type:alpha" maskUnits="userSpaceOnUse" x="0" y="0" width="29" height="20">
<rect width="29" height="20" fill="#D9D9D9"/>
</mask>
<g mask="url(#mask0_11482_5591)">
<rect width="29" height="20" fill="#DD2033"/>
<rect y="1.59998" width="29" height="16.8" fill="#004692"/>
<path fill-rule="evenodd" clip-rule="evenodd" d="M14.5357 2.80005L15.1661 3.29723C17.4073 5.06472 18.633 6.81797 19.1052 8.5165C19.5816 10.23 19.2565 11.7634 18.6398 13.0089C18.0311 14.2382 17.1336 15.202 16.4141 15.847C16.0506 16.1729 15.7226 16.426 15.4829 16.5995C15.3629 16.6863 15.2642 16.7537 15.1935 16.8007C15.1581 16.8241 15.1297 16.8426 15.109 16.8558C15.0986 16.8624 15.0902 16.8677 15.0837 16.8718L15.0756 16.8768L15.0728 16.8786L15.0716 16.8793C15.0711 16.8796 15.0707 16.8799 14.5371 16.0458C14.5371 16.0458 23.0696 10.7938 14.5371 4.06472C5.83748 10.958 14.5371 16.0458 14.5371 16.0458C14.0231 16.8916 14.0227 16.8913 14.0222 16.891L14.021 16.8903L14.018 16.8886L14.0098 16.8837C14.0032 16.8798 13.9946 16.8746 13.984 16.8682C13.9629 16.8554 13.9338 16.8375 13.8977 16.8146C13.8256 16.769 13.7249 16.7035 13.6024 16.6188C13.3578 16.4499 13.0231 16.2028 12.6519 15.8835C11.9177 15.2519 10.9999 14.3029 10.3769 13.0806C9.74473 11.8402 9.41322 10.307 9.89949 8.58232C10.3805 6.87629 11.6275 5.10433 13.9064 3.29865L14.5357 2.80005ZM14.5371 16.0458L15.0707 16.8799L14.5505 17.2L14.0231 16.8916L14.5371 16.0458Z" fill="#DD2033"/>
<mask id="mask1_11482_5591" style="mask-type:alpha" maskUnits="userSpaceOnUse" x="10" y="4" width="9" height="13">
<path d="M14.5372 4.0647C23.0696 10.7938 14.5372 16.0457 14.5372 16.0457C14.5372 16.0457 5.8375 10.9579 14.5372 4.0647Z" fill="#FBD381"/>
</mask>
<g mask="url(#mask1_11482_5591)">
<rect x="9.85278" y="12.9274" width="9.36892" height="3.93897" fill="#FBD381"/>
<rect x="9.85278" y="10.9579" width="9.36892" height="1.96949" fill="#0091DA"/>
<rect x="9.85278" y="4.0647" width="9.36892" height="6.89321" fill="#86C5FA"/>
<rect x="13.868" y="8.00366" width="0.669208" height="5.90846" fill="#936846"/>
<path d="M14.3699 5.70593L14.9052 6.83228L16.1141 6.55114L15.5727 7.6745L16.5449 8.45024L15.3345 8.7247L15.3379 9.97316L14.3699 9.19209L13.402 9.97316L13.4054 8.7247L12.195 8.45024L13.1671 7.6745L12.6258 6.55114L13.8346 6.83228L14.3699 5.70593Z" fill="#009B77"/>
</g>
</g>
</svg>
