<svg width="20" height="20" viewBox="0 0 20 20" fill="none" xmlns="http://www.w3.org/2000/svg">
<mask id="mask0_11482_5579" style="mask-type:alpha" maskUnits="userSpaceOnUse" x="0" y="0" width="20" height="20">
<circle cx="10" cy="10" r="10" fill="#D9D9D9"/>
</mask>
<g mask="url(#mask0_11482_5579)">
<rect width="20" height="20" fill="#DD2033"/>
<rect y="2.5" width="20" height="15" fill="#004692"/>
<path fill-rule="evenodd" clip-rule="evenodd" d="M9.94319 3.65198L10.4665 4.07271C12.3271 5.56844 13.3447 7.05212 13.7367 8.48949C14.1322 9.93957 13.8622 11.2371 13.3503 12.2912C12.845 13.3314 12.0999 14.1471 11.5026 14.6929C11.2008 14.9686 10.9286 15.1829 10.7296 15.3296C10.6299 15.4032 10.548 15.4602 10.4893 15.4999C10.46 15.5198 10.4363 15.5354 10.4191 15.5466C10.4105 15.5522 10.4035 15.5567 10.3982 15.5601L10.3915 15.5644L10.3891 15.5659L10.3881 15.5665C10.3877 15.5667 10.3873 15.567 9.94442 14.8611C9.94442 14.8611 17.0278 10.4167 9.94442 4.72219C2.72223 10.5556 9.94442 14.8611 9.94442 14.8611C9.5177 15.5769 9.51731 15.5766 9.51689 15.5764L9.51592 15.5758L9.51347 15.5743L9.50661 15.5702C9.50117 15.5669 9.49402 15.5625 9.48523 15.5571C9.46767 15.5462 9.44357 15.5311 9.4136 15.5117C9.3537 15.4731 9.27015 15.4177 9.16842 15.3461C8.96537 15.2031 8.6875 14.994 8.37936 14.7237C7.76986 14.1893 7.00791 13.3862 6.49074 12.3518C5.9659 11.3021 5.6907 10.0047 6.09438 8.54519C6.49371 7.10147 7.52895 5.60196 9.4208 4.07391L9.94319 3.65198ZM9.94442 14.8611L10.3873 15.567L9.95554 15.8379L9.5177 15.5769L9.94442 14.8611Z" fill="#DD2033"/>
<mask id="mask1_11482_5579" style="mask-type:alpha" maskUnits="userSpaceOnUse" x="6" y="4" width="8" height="11">
<path d="M9.94442 4.72217C17.0278 10.4166 9.94442 14.8611 9.94442 14.8611C9.94442 14.8611 2.72223 10.5555 9.94442 4.72217Z" fill="#FBD381"/>
</mask>
<g mask="url(#mask1_11482_5579)">
<rect x="6.05557" y="12.2222" width="7.77778" height="3.33333" fill="#FBD381"/>
<rect x="6.05557" y="10.5555" width="7.77778" height="1.66667" fill="#0091DA"/>
<rect x="6.05557" y="4.72217" width="7.77778" height="5.83333" fill="#86C5FA"/>
<rect x="9.38892" y="8.05554" width="0.555556" height="5" fill="#936846"/>
<path d="M9.80559 6.11108L10.25 7.06425L11.2536 6.82634L10.8041 7.77697L11.6111 8.43343L10.6063 8.6657L10.6091 9.7222L9.80559 9.06122L9.00202 9.7222L9.00483 8.6657L8.00003 8.43343L8.80705 7.77697L8.35764 6.82634L9.36118 7.06425L9.80559 6.11108Z" fill="#009B77"/>
</g>
</g>
</svg>
