<svg width="72" height="72" viewBox="0 0 72 72" fill="none" xmlns="http://www.w3.org/2000/svg">
<mask id="mask0_38_12797" style="mask-type:alpha" maskUnits="userSpaceOnUse" x="0" y="0" width="72" height="72">
<circle cx="36" cy="36" r="36" transform="rotate(-90 36 36)" fill="#D9D9D9"/>
</mask>
<g mask="url(#mask0_38_12797)">
<rect width="72" height="72" fill="#DD2033"/>
<path fill-rule="evenodd" clip-rule="evenodd" d="M39.2738 26.8445C38.8024 28.8086 38.1415 29.5634 37.5033 30.2923C36.9073 30.9731 36.331 31.6314 35.9471 33.2311C31.2639 32.1033 28.3797 27.3865 29.5057 22.6956C30.6312 18.005 35.341 15.1162 40.0243 16.244C39.0977 20.1043 39.2731 21.9116 39.4195 23.4199C39.5243 24.5 39.6142 25.4268 39.2738 26.8445ZM37.2002 22C37.2002 23.1045 36.3048 24 35.2002 24C34.0956 24 33.2002 23.1045 33.2002 22C33.2002 20.8954 34.0956 20 35.2002 20C36.3048 20 37.2002 20.8954 37.2002 22Z" fill="#F5F7F8"/>
<path fill-rule="evenodd" clip-rule="evenodd" d="M27.1218 29.659C28.8412 30.715 29.3537 31.5778 29.8486 32.4112C30.3108 33.1893 30.7577 33.9417 32.1578 34.8018C29.6397 38.9144 24.2699 40.2039 20.1636 37.6819C16.0575 35.16 14.7697 29.7813 17.2878 25.6686C20.6673 27.7442 22.4374 28.1355 23.9148 28.4622C24.9728 28.6961 25.8806 28.8968 27.1218 29.659ZM23.2002 32.0001C23.2002 33.1046 22.3048 34.0001 21.2002 34.0001C20.0956 34.0001 19.2002 33.1046 19.2002 32.0001C19.2002 30.8955 20.0956 30.0001 21.2002 30.0001C22.3048 30.0001 23.2002 30.8955 23.2002 32.0001Z" fill="#F5F7F8"/>
<path fill-rule="evenodd" clip-rule="evenodd" d="M26.039 42.1049C27.5732 40.7934 28.5508 40.5718 29.4949 40.3578C30.3765 40.158 31.229 39.9648 32.4783 38.8969C35.6056 42.5662 35.1706 48.0801 31.5072 51.2123C27.8435 54.3445 22.3383 53.9083 19.2115 50.2393C22.2261 47.6618 23.1447 46.0964 23.9113 44.7901C24.4604 43.8544 24.9315 43.0516 26.039 42.1049ZM27.2002 49C27.2002 50.1046 26.3048 51 25.2002 51C24.0956 51 23.2002 50.1046 23.2002 49C23.2002 47.8954 24.0956 47 25.2002 47C26.3048 47 27.2002 47.8954 27.2002 49Z" fill="#F5F7F8"/>
<path fill-rule="evenodd" clip-rule="evenodd" d="M37.5217 46.9824C36.7502 45.1156 36.8418 44.1159 36.9304 43.1503C37.013 42.2487 37.093 41.3769 36.465 39.8571C40.9155 38.0123 46.017 40.1304 47.859 44.588C49.7009 49.0457 47.5859 54.155 43.1353 56C41.6196 52.3313 40.4172 50.9726 39.4137 49.8385C38.6951 49.0265 38.0785 48.3296 37.5217 46.9824ZM46.2002 49C46.2002 50.1046 45.3048 51 44.2002 51C43.0956 51 42.2002 50.1046 42.2002 49C42.2002 47.8954 43.0956 47 44.2002 47C45.3048 47 46.2002 47.8954 46.2002 49Z" fill="#F5F7F8"/>
<path fill-rule="evenodd" clip-rule="evenodd" d="M45.7026 37.5508C43.6918 37.7088 42.7707 37.3125 41.8811 36.9297C41.0505 36.5723 40.2474 36.2268 38.6101 36.3555C38.2336 31.5462 41.8214 27.341 46.6233 26.9635C51.4251 26.5869 55.6236 30.1802 56 34.9899C52.0479 35.3002 50.386 36.0258 48.9992 36.6312C48.006 37.0648 47.1538 37.4369 45.7026 37.5508ZM52.2002 32.0001C52.2002 33.1046 51.3048 34.0001 50.2002 34.0001C49.0956 34.0001 48.2002 33.1046 48.2002 32.0001C48.2002 30.8955 49.0956 30.0001 50.2002 30.0001C51.3048 30.0001 52.2002 30.8955 52.2002 32.0001Z" fill="#F5F7F8"/>
</g>
</svg>
