<svg width="20" height="20" viewBox="0 0 20 20" fill="none" xmlns="http://www.w3.org/2000/svg">
<mask id="mask0_11482_5636" style="mask-type:alpha" maskUnits="userSpaceOnUse" x="0" y="0" width="20" height="20">
<circle cx="10" cy="10" r="10" transform="rotate(-90 10 10)" fill="#D9D9D9"/>
</mask>
<g mask="url(#mask0_11482_5636)">
<rect width="20" height="20" fill="#DD2033"/>
<path fill-rule="evenodd" clip-rule="evenodd" d="M10.9094 7.45681C10.7784 8.0024 10.5949 8.21206 10.4176 8.41455C10.252 8.60366 10.092 8.78651 9.98531 9.23086C8.68443 8.91759 7.88327 7.60737 8.19605 6.30434C8.50869 5.0014 9.81697 4.19896 11.1179 4.51224C10.8605 5.58455 10.9092 6.08658 10.9499 6.50553C10.979 6.80558 11.004 7.06301 10.9094 7.45681ZM10.3334 6.11112C10.3334 6.41794 10.0847 6.66667 9.77785 6.66667C9.47102 6.66667 9.22229 6.41794 9.22229 6.11112C9.22229 5.80429 9.47102 5.55556 9.77785 5.55556C10.0847 5.55556 10.3334 5.80429 10.3334 6.11112Z" fill="#F5F7F8"/>
<path fill-rule="evenodd" clip-rule="evenodd" d="M7.53384 8.23862C8.01146 8.53196 8.15381 8.77163 8.2913 9.00311C8.41968 9.21926 8.54382 9.42828 8.93275 9.66718C8.23327 10.8096 6.74164 11.1678 5.60101 10.4672C4.46042 9.76668 4.10272 8.27259 4.80219 7.13019C5.74092 7.70673 6.23264 7.81544 6.64302 7.90617C6.9369 7.97115 7.18908 8.0269 7.53384 8.23862ZM6.44451 8.88892C6.44451 9.19574 6.19578 9.44447 5.88896 9.44447C5.58213 9.44447 5.3334 9.19574 5.3334 8.88892C5.3334 8.58209 5.58213 8.33336 5.88896 8.33336C6.19578 8.33336 6.44451 8.58209 6.44451 8.88892Z" fill="#F5F7F8"/>
<path fill-rule="evenodd" clip-rule="evenodd" d="M7.23308 11.6958C7.65924 11.3315 7.93078 11.27 8.19304 11.2105C8.43794 11.155 8.67474 11.1014 9.02178 10.8047C9.89046 11.824 9.76962 13.3556 8.75201 14.2257C7.73431 15.0957 6.20511 14.9745 5.33655 13.9554C6.17393 13.2394 6.4291 12.8046 6.64205 12.4417C6.79458 12.1818 6.92544 11.9588 7.23308 11.6958ZM7.55562 13.6111C7.55562 13.9179 7.30689 14.1667 7.00007 14.1667C6.69324 14.1667 6.44451 13.9179 6.44451 13.6111C6.44451 13.3043 6.69324 13.0556 7.00007 13.0556C7.30689 13.0556 7.55562 13.3043 7.55562 13.6111Z" fill="#F5F7F8"/>
<path fill-rule="evenodd" clip-rule="evenodd" d="M10.4227 13.0507C10.2084 12.5321 10.2339 12.2544 10.2584 11.9862C10.2814 11.7358 10.3036 11.4936 10.1292 11.0714C11.3654 10.559 12.7825 11.1473 13.2942 12.3856C13.8058 13.6238 13.2183 15.0431 11.982 15.5556C11.561 14.5365 11.227 14.1591 10.9483 13.844C10.7487 13.6185 10.5774 13.4249 10.4227 13.0507ZM12.8334 13.6111C12.8334 13.9179 12.5847 14.1667 12.2778 14.1667C11.971 14.1667 11.7223 13.9179 11.7223 13.6111C11.7223 13.3043 11.971 13.0556 12.2778 13.0556C12.5847 13.0556 12.8334 13.3043 12.8334 13.6111Z" fill="#F5F7F8"/>
<path fill-rule="evenodd" clip-rule="evenodd" d="M12.6952 10.4308C12.1366 10.4747 11.8808 10.3646 11.6337 10.2583C11.4029 10.159 11.1798 10.063 10.7251 10.0988C10.6204 8.76286 11.6171 7.59473 12.9509 7.48987C14.2848 7.38527 15.451 8.38339 15.5556 9.71943C14.4578 9.80563 13.9961 10.0072 13.6109 10.1754C13.335 10.2958 13.0983 10.3991 12.6952 10.4308ZM14.5001 8.88892C14.5001 9.19574 14.2513 9.44447 13.9445 9.44447C13.6377 9.44447 13.389 9.19574 13.389 8.88892C13.389 8.58209 13.6377 8.33336 13.9445 8.33336C14.2513 8.33336 14.5001 8.58209 14.5001 8.88892Z" fill="#F5F7F8"/>
</g>
</svg>
