<svg width="29" height="20" viewBox="0 0 29 20" fill="none" xmlns="http://www.w3.org/2000/svg">
<mask id="mask0_11482_5640" style="mask-type:alpha" maskUnits="userSpaceOnUse" x="0" y="0" width="29" height="20">
<rect width="29" height="20" fill="#D9D9D9"/>
</mask>
<g mask="url(#mask0_11482_5640)">
<rect width="29" height="20" fill="#DD2033"/>
<path fill-rule="evenodd" clip-rule="evenodd" d="M15.8186 6.33779C15.6287 7.12343 15.3626 7.42535 15.1055 7.71694C14.8654 7.98925 14.6333 8.25255 14.4787 8.89242C12.5924 8.4413 11.4307 6.55459 11.8843 4.67823C12.3376 2.802 14.2346 1.64649 16.1209 2.09761C15.7477 3.64174 15.8184 4.36465 15.8773 4.96795C15.9195 5.40001 15.9557 5.77072 15.8186 6.33779ZM14.9834 4.39999C14.9834 4.84182 14.6228 5.19999 14.1779 5.19999C13.733 5.19999 13.3723 4.84182 13.3723 4.39999C13.3723 3.95816 13.733 3.59999 14.1779 3.59999C14.6228 3.59999 14.9834 3.95816 14.9834 4.39999Z" fill="#F5F7F8"/>
<path fill-rule="evenodd" clip-rule="evenodd" d="M10.9241 7.4636C11.6166 7.88601 11.823 8.23113 12.0224 8.56446C12.2085 8.87572 12.3885 9.1767 12.9525 9.52072C11.9382 11.1658 9.77537 11.6816 8.12146 10.6728C6.4676 9.664 5.94893 7.51251 6.96317 5.86746C8.32433 6.69767 9.03731 6.85422 9.63238 6.98487C10.0585 7.07843 10.4242 7.15872 10.9241 7.4636ZM9.34454 8.40002C9.34454 8.84185 8.98388 9.20002 8.53898 9.20002C8.09408 9.20002 7.73343 8.84185 7.73343 8.40002C7.73343 7.9582 8.09408 7.60002 8.53898 7.60002C8.98388 7.60002 9.34454 7.9582 9.34454 8.40002Z" fill="#F5F7F8"/>
<path fill-rule="evenodd" clip-rule="evenodd" d="M10.488 12.442C11.1059 11.9173 11.4996 11.8287 11.8799 11.7431C12.235 11.6632 12.5784 11.5859 13.0816 11.1587C14.3412 12.6265 14.1659 14.832 12.6904 16.0849C11.2147 17.3378 8.9974 17.1633 7.738 15.6957C8.9522 14.6647 9.32219 14.0386 9.63097 13.516C9.85213 13.1417 10.0419 12.8206 10.488 12.442ZM10.9556 15.2C10.9556 15.6418 10.595 16 10.1501 16C9.7052 16 9.34454 15.6418 9.34454 15.2C9.34454 14.7582 9.7052 14.4 10.1501 14.4C10.595 14.4 10.9556 14.7582 10.9556 15.2Z" fill="#F5F7F8"/>
<path fill-rule="evenodd" clip-rule="evenodd" d="M15.1129 14.3929C14.8022 13.6462 14.8391 13.2463 14.8747 12.8601C14.908 12.4995 14.9402 12.1508 14.6873 11.5428C16.4799 10.8049 18.5346 11.6522 19.2766 13.4352C20.0184 15.2183 19.1665 17.262 17.3739 18C16.7635 16.5325 16.2792 15.989 15.875 15.5354C15.5855 15.2106 15.3372 14.9318 15.1129 14.3929ZM18.6084 15.2C18.6084 15.6418 18.2478 16 17.8029 16C17.358 16 16.9973 15.6418 16.9973 15.2C16.9973 14.7582 17.358 14.4 17.8029 14.4C18.2478 14.4 18.6084 14.7582 18.6084 15.2Z" fill="#F5F7F8"/>
<path fill-rule="evenodd" clip-rule="evenodd" d="M18.408 10.6203C17.5981 10.6835 17.2271 10.525 16.8688 10.3719C16.5342 10.2289 16.2108 10.0907 15.5513 10.1422C15.3996 8.21849 16.8447 6.5364 18.7789 6.3854C20.7129 6.23477 22.4039 7.67207 22.5556 9.59595C20.9638 9.72009 20.2944 10.0103 19.7358 10.2525C19.3358 10.4259 18.9925 10.5747 18.408 10.6203ZM21.0251 8.40002C21.0251 8.84185 20.6644 9.20002 20.2195 9.20002C19.7746 9.20002 19.414 8.84185 19.414 8.40002C19.414 7.9582 19.7746 7.60002 20.2195 7.60002C20.6644 7.60002 21.0251 7.9582 21.0251 8.40002Z" fill="#F5F7F8"/>
</g>
</svg>
