<svg width="72" height="72" viewBox="0 0 72 72" fill="none" xmlns="http://www.w3.org/2000/svg">
<mask id="mask0_38_12867" style="mask-type:alpha" maskUnits="userSpaceOnUse" x="0" y="0" width="72" height="72">
<circle cx="36" cy="36" r="36" fill="#D9D9D9"/>
</mask>
<g mask="url(#mask0_38_12867)">
<rect width="72" height="72" fill="#004692"/>
<path d="M55.2306 17.6395L54 15L52.7693 17.6395L49.9903 16.9807L51.2348 19.6132L49 21.4311L51.7825 22.0743L51.7747 25L54 23.1696L56.2252 25L56.2175 22.0743L59 21.4311L56.7651 19.6132L58.0098 16.9807L55.2306 17.6395Z" fill="#F5F7F8"/>
<path d="M44 23L45.2306 25.6395L48.0098 24.9807L46.7651 27.6132L49 29.4311L46.2175 30.0743L46.2252 33L44 31.1696L41.7747 33L41.7825 30.0743L39 29.4311L41.2348 27.6132L39.9903 24.9807L42.7693 25.6395L44 23Z" fill="#F5F7F8"/>
<path d="M29.215 48.7511L27 44L24.7848 48.7511L19.7826 47.5653L22.0227 52.3038L18 55.576L23.0085 56.7338L22.9945 62L27 58.7053L31.0053 62L30.9915 56.7338L36 55.576L31.9772 52.3038L34.2176 47.5653L29.215 48.7511Z" fill="#F5F7F8"/>
<path d="M52.4767 50.1674L51 47L49.5232 50.1674L46.1884 49.3768L47.6818 52.5359L45 54.7174L48.339 55.4892L48.3297 59L51 56.8035L53.6702 59L53.661 55.4892L57 54.7174L54.3181 52.5359L55.8117 49.3768L52.4767 50.1674Z" fill="#F5F7F8"/>
<path d="M64 25L65.2306 27.6395L68.0098 26.9807L66.7651 29.6132L69 31.4311L66.2175 32.0743L66.2252 35L64 33.1696L61.7747 35L61.7825 32.0743L59 31.4311L61.2348 29.6132L59.9903 26.9807L62.7693 27.6395L64 25Z" fill="#F5F7F8"/>
<path d="M56.5 41C57.8807 41 59 39.8807 59 38.5C59 37.1193 57.8807 36 56.5 36C55.1193 36 54 37.1193 54 38.5C54 39.8807 55.1193 41 56.5 41Z" fill="#F5F7F8"/>
<mask id="mask1_38_12867" style="mask-type:alpha" maskUnits="userSpaceOnUse" x="0" y="0" width="36" height="36">
<path d="M0 36V36C-8.69081e-07 16.1177 16.1177 -7.04529e-07 36 -1.57361e-06V-1.57361e-06L36 36L0 36Z" fill="#002F6C"/>
</mask>
<g mask="url(#mask1_38_12867)">
<rect x="-0.000244141" width="36" height="36" fill="#004692"/>
<path d="M12.5223 3.1339L10.401 5.25522L39.927 34.7812L42.0483 32.6599L12.5223 3.1339Z" fill="#F5F7F8"/>
<path d="M6.86549 8.79076L3.32996 12.3263L32.856 41.8523L36.3915 38.3168L6.86549 8.79076Z" fill="#F5F7F8"/>
<path d="M6.86549 8.79076L10.401 5.25522L39.927 34.7812L36.3915 38.3168L6.86549 8.79076Z" fill="#DD2033"/>
<path d="M36 11.9999V16.9999L17 16.9999L17 36H12V11.9999H36Z" fill="#F5F7F8"/>
<path d="M36 -2V3L5 3L5 36H0V-2H36Z" fill="#F5F7F8"/>
<path fill-rule="evenodd" clip-rule="evenodd" d="M3 36H12L12 12L36 12V3H12H3L3 12L3 36Z" fill="#DD2033"/>
</g>
</g>
</svg>
