<svg width="20" height="20" viewBox="0 0 20 20" fill="none" xmlns="http://www.w3.org/2000/svg">
<mask id="mask0_11482_5646" style="mask-type:alpha" maskUnits="userSpaceOnUse" x="0" y="0" width="20" height="20">
<circle cx="10" cy="10" r="10" fill="#D9D9D9"/>
</mask>
<g mask="url(#mask0_11482_5646)">
<rect width="20" height="20" fill="#004692"/>
<path d="M15.3418 4.89983L15 4.16663L14.6581 4.89983L13.8862 4.71682L14.2319 5.44808L13.6111 5.95305L14.384 6.13171L14.3819 6.9444L15 6.43596L15.6181 6.9444L15.616 6.13171L16.3889 5.95305L15.7681 5.44808L16.1138 4.71682L15.3418 4.89983Z" fill="#F5F7F8"/>
<path d="M12.2222 6.38885L12.564 7.12205L13.336 6.93904L12.9903 7.6703L13.6111 8.17527L12.8382 8.35394L12.8403 9.16663L12.2222 8.65818L11.6041 9.16663L11.6063 8.35394L10.8333 8.17527L11.4541 7.6703L11.1084 6.93904L11.8804 7.12205L12.2222 6.38885Z" fill="#F5F7F8"/>
<path d="M8.11529 13.5419L7.5 12.2222L6.88467 13.5419L5.49516 13.2125L6.11741 14.5288L5 15.4377L6.39126 15.7593L6.38737 17.2222L7.5 16.307L8.61259 17.2222L8.60874 15.7593L10 15.4377L8.88255 14.5288L9.50489 13.2125L8.11529 13.5419Z" fill="#F5F7F8"/>
<path d="M14.5769 13.9354L14.1667 13.0555L13.7564 13.9354L12.8301 13.7157L13.2449 14.5933L12.5 15.1992L13.4275 15.4136L13.4249 16.3888L14.1667 15.7787L14.9084 16.3888L14.9058 15.4136L15.8333 15.1992L15.0884 14.5933L15.5033 13.7157L14.5769 13.9354Z" fill="#F5F7F8"/>
<path d="M17.7778 6.9444L18.1196 7.67761L18.8916 7.4946L18.5459 8.22585L19.1667 8.73083L18.3937 8.90949L18.3959 9.72218L17.7778 9.21374L17.1596 9.72218L17.1618 8.90949L16.3889 8.73083L17.0097 8.22585L16.664 7.4946L17.4359 7.67761L17.7778 6.9444Z" fill="#F5F7F8"/>
<path d="M15.6944 11.3888C16.078 11.3888 16.3889 11.0779 16.3889 10.6944C16.3889 10.3109 16.078 9.99996 15.6944 9.99996C15.3109 9.99996 15 10.3109 15 10.6944C15 11.0779 15.3109 11.3888 15.6944 11.3888Z" fill="#F5F7F8"/>
<mask id="mask1_11482_5646" style="mask-type:alpha" maskUnits="userSpaceOnUse" x="0" y="0" width="10" height="10">
<path d="M0 10C-8.69081e-07 4.47715 4.47715 -5.43618e-08 10 -1.21421e-07L10 10L0 10Z" fill="#002F6C"/>
</mask>
<g mask="url(#mask1_11482_5646)">
<rect x="-0.000244141" width="10" height="10" fill="#004692"/>
<path d="M3.47843 0.870508L2.88917 1.45976L11.0908 9.66143L11.6801 9.07217L3.47843 0.870508Z" fill="#F5F7F8"/>
<path d="M1.90708 2.44186L0.924989 3.42395L9.12665 11.6256L10.1087 10.6435L1.90708 2.44186Z" fill="#F5F7F8"/>
<path d="M1.90708 2.44186L2.88917 1.45976L11.0908 9.66143L10.1087 10.6435L1.90708 2.44186Z" fill="#DD2033"/>
<path d="M9.99998 3.33337V4.72226L4.7222 4.72226L4.7222 10H3.33331V3.33337H9.99998Z" fill="#F5F7F8"/>
<path d="M10 -0.555542V0.833347L1.38889 0.833346L1.38889 10H0V-0.555542H10Z" fill="#F5F7F8"/>
<path fill-rule="evenodd" clip-rule="evenodd" d="M0.833313 10H3.33331L3.33331 3.33337L9.99998 3.33337V0.833374H3.33331H0.833314L0.833314 3.33337L0.833313 10Z" fill="#DD2033"/>
</g>
</g>
</svg>
