<svg width="29" height="20" viewBox="0 0 29 20" fill="none" xmlns="http://www.w3.org/2000/svg">
<mask id="mask0_11482_5658" style="mask-type:alpha" maskUnits="userSpaceOnUse" x="0" y="0" width="29" height="20">
<rect width="29" height="20" fill="#D9D9D9"/>
</mask>
<g mask="url(#mask0_11482_5658)">
<rect width="29" height="20" fill="#004692"/>
<path d="M12.6932 12.5411L13.4862 14.2304L15.2773 13.8088L14.4752 15.4936L15.9154 16.6571L14.1222 17.0687L14.1272 18.9411L12.6932 17.7697L11.2591 18.9411L11.2642 17.0687L9.47098 16.6571L10.9112 15.4936L10.1092 13.8088L11.9001 14.2304L12.6932 12.5411Z" fill="#F5F7F8"/>
<path d="M21.5543 12.9176L22.1491 14.1846L23.4924 13.8683L22.8908 15.1319L23.971 16.0045L22.6261 16.3133L22.6298 17.7176L21.5543 16.839L20.4788 17.7176L20.4825 16.3133L19.1376 16.0045L20.2178 15.1319L19.6163 13.8683L20.9595 14.1846L21.5543 12.9176Z" fill="#F5F7F8"/>
<path d="M17.9293 4.70593L18.425 5.76174L19.5444 5.49821L19.043 6.55122L19.9432 7.27838L18.8225 7.53566L18.8256 8.70593L17.9293 7.97377L17.033 8.70593L17.0362 7.53566L15.9154 7.27838L16.8156 6.55122L16.3143 5.49821L17.4336 5.76174L17.9293 4.70593Z" fill="#F5F7F8"/>
<path d="M21.9571 1.5686L22.4527 2.62441L23.5721 2.36088L23.0708 3.41389L23.971 4.14105L22.8502 4.39833L22.8533 5.5686L21.9571 4.83645L21.0608 5.5686L21.0639 4.39833L19.9432 4.14105L20.8433 3.41389L20.3421 2.36088L21.4614 2.62441L21.9571 1.5686Z" fill="#F5F7F8"/>
<path d="M25.9849 5.49023L26.4805 6.54605L27.5999 6.28251L27.0986 7.33552L27.9988 8.06268L26.878 8.31996L26.8811 9.49023L25.9849 8.75808L25.0886 9.49023L25.0917 8.31996L23.971 8.06268L24.8711 7.33552L24.3699 6.28251L25.4892 6.54605L25.9849 5.49023Z" fill="#F5F7F8"/>
<ellipse cx="22.964" cy="10.7843" rx="1.00694" ry="0.980392" fill="#F5F7F8"/>
<mask id="mask1_11482_5658" style="mask-type:alpha" maskUnits="userSpaceOnUse" x="0" y="0" width="15" height="12">
<path d="M0 12L-1.31134e-06 0L14.5 -2.53526e-07L14.5 12L0 12Z" fill="#002F6C"/>
</mask>
<g mask="url(#mask1_11482_5658)">
<path d="M5.15183 0.401901L4.29741 1.25043L14.849 11.7292L15.7034 10.8807L5.15183 0.401901Z" fill="#F5F7F8"/>
<path d="M2.87338 2.66464L1.44934 4.07886L12.0009 14.5577L13.425 13.1435L2.87338 2.66464Z" fill="#F5F7F8"/>
<path d="M2.87338 2.66464L4.29741 1.25043L14.849 11.7292L13.425 13.1435L2.87338 2.66464Z" fill="#DD2033"/>
<path d="M2.41666 14H4.02846L4.02846 3.59999H14.5V2H2.41666V14Z" fill="#F5F7F8"/>
<path d="M0 14H2.41736L2.41736 1.99998H14.5007V0H0V14Z" fill="#DD2033"/>
</g>
</g>
</svg>
