<svg width="29" height="20" viewBox="0 0 29 20" fill="none" xmlns="http://www.w3.org/2000/svg">
<mask id="mask0_11482_5680" style="mask-type:alpha" maskUnits="userSpaceOnUse" x="0" y="0" width="29" height="20">
<rect width="29" height="20" fill="#D9D9D9"/>
</mask>
<g mask="url(#mask0_11482_5680)">
<rect width="29" height="20" fill="#0091DA"/>
<rect y="16.4" width="12.8" height="29" transform="rotate(-90 0 16.4)" fill="#F5F7F8"/>
<path d="M7.57226 5.59998L6.85191 7.2181L5.15558 7.4334L6.40675 8.64881L6.07864 10.4L7.57225 9.39998L9.06585 10.4L8.73774 8.64881L9.98891 7.4334L8.29258 7.2181L7.57226 5.59998Z" fill="#0091DA"/>
<path d="M14.4195 9.59998L13.6991 11.2181L12.0028 11.4334L13.254 12.6488L12.9259 14.4L14.4195 13.4L15.9131 14.4L15.585 12.6488L16.8361 11.4334L15.1398 11.2181L14.4195 9.59998Z" fill="#0091DA"/>
<path d="M20.5464 7.2181L21.2667 5.59998L21.987 7.2181L23.6834 7.4334L22.4322 8.64881L22.7603 10.4L21.2667 9.39998L19.7731 10.4L20.1012 8.64881L18.85 7.4334L20.5464 7.2181Z" fill="#0091DA"/>
</g>
</svg>
