<svg width="20" height="20" viewBox="0 0 20 20" fill="none" xmlns="http://www.w3.org/2000/svg">
<mask id="mask0_11482_5675" style="mask-type:alpha" maskUnits="userSpaceOnUse" x="0" y="0" width="20" height="20">
<circle cx="10" cy="10" r="10" fill="#D9D9D9"/>
</mask>
<g mask="url(#mask0_11482_5675)">
<rect width="20" height="20" fill="#0091DA"/>
<rect y="15" width="10" height="20" transform="rotate(-90 0 15)" fill="#F5F7F8"/>
<path d="M5.22225 6.38892L4.72546 7.51261L3.55557 7.66213L4.41845 8.50616L4.19216 9.72225L5.22224 9.02781L6.25231 9.72225L6.02603 8.50616L6.88891 7.66213L5.71902 7.51261L5.22225 6.38892Z" fill="#0091DA"/>
<path d="M9.94447 10.2778L9.44768 11.4015L8.27779 11.551L9.14067 12.3951L8.91439 13.6111L9.94446 12.9167L10.9745 13.6111L10.7483 12.3951L11.6111 11.551L10.4412 11.4015L9.94447 10.2778Z" fill="#0091DA"/>
<path d="M14.1699 7.51261L14.6667 6.38892L15.1635 7.51261L16.3333 7.66213L15.4705 8.50616L15.6968 9.72225L14.6667 9.02781L13.6366 9.72225L13.8629 8.50616L13 7.66213L14.1699 7.51261Z" fill="#0091DA"/>
</g>
</svg>
