<svg width="29" height="20" viewBox="0 0 29 20" fill="none" xmlns="http://www.w3.org/2000/svg">
<mask id="mask0_11482_5699" style="mask-type:alpha" maskUnits="userSpaceOnUse" x="0" y="0" width="29" height="20">
<rect width="29" height="20" fill="#D9D9D9"/>
</mask>
<g mask="url(#mask0_11482_5699)">
<rect y="20" width="5.2" height="29" transform="rotate(-90 0 20)" fill="#004692"/>
<rect x="0.000244141" y="14.7999" width="9.6" height="29" transform="rotate(-90 0.000244141 14.7999)" fill="#F5F7F8"/>
<rect y="5.19995" width="5.2" height="29" transform="rotate(-90 0 5.19995)" fill="#DD2033"/>
<path d="M8.86111 5.19995H20.1389V11.5611C20.1389 14.6753 17.6143 17.2 14.5 17.2C11.3857 17.2 8.86111 14.6753 8.86111 11.5611V5.19995Z" fill="#F5F7F8"/>
<mask id="mask1_11482_5699" style="mask-type:alpha" maskUnits="userSpaceOnUse" x="8" y="5" width="13" height="13">
<path d="M8.86111 5.19995H20.1389V11.5611C20.1389 14.6753 17.6143 17.2 14.5 17.2C11.3857 17.2 8.86111 14.6753 8.86111 11.5611V5.19995Z" fill="#F5F7F8"/>
</mask>
<g mask="url(#mask1_11482_5699)">
<path fill-rule="evenodd" clip-rule="evenodd" d="M11.6806 5.19995H8.86111V7.99995H11.6806V10.8H8.86111V13.6H11.6806V16.4H8.86111V19.2H11.6806V16.4H14.5V19.2H17.3194V16.4H20.1389V13.6H17.3194V10.8H20.1389V7.99995L17.3194 7.99995V5.19995H14.5V7.99995L11.6806 7.99995V5.19995ZM14.5 10.8H17.3194V7.99995L14.5 7.99995V10.8ZM14.5 13.6H11.6806V10.8H14.5V13.6ZM14.5 13.6H17.3194V16.4H14.5V13.6Z" fill="#DD2033"/>
</g>
<path d="M8.86111 2.39995L10.6736 1.19995L12.4861 2.39995V5.19995H8.86111V2.39995Z" fill="#0091DA"/>
<path d="M12.4861 2.39995L14.5 1.19995L16.5139 2.39995V5.19995H12.4861V2.39995Z" fill="#004692"/>
<path d="M16.5139 2.39995L18.3264 1.19995L20.1389 2.39995V5.19995H16.5139V2.39995Z" fill="#0091DA"/>
</g>
</svg>
