<svg width="20" height="20" viewBox="0 0 20 20" fill="none" xmlns="http://www.w3.org/2000/svg">
<mask id="mask0_11482_5687" style="mask-type:alpha" maskUnits="userSpaceOnUse" x="0" y="0" width="20" height="20">
<circle cx="10" cy="10" r="10" fill="#D9D9D9"/>
</mask>
<g mask="url(#mask0_11482_5687)">
<rect x="0.00012207" y="20" width="6.66667" height="20" transform="rotate(-90 0.00012207 20)" fill="#004692"/>
<rect x="0.00012207" y="13.3333" width="6.66667" height="20" transform="rotate(-90 0.00012207 13.3333)" fill="#F5F7F8"/>
<rect x="0.00012207" y="6.66663" width="6.66667" height="20" transform="rotate(-90 0.00012207 6.66663)" fill="#DD2033"/>
<path d="M6.11111 6.66663H13.8889V11.1111C13.8889 13.2588 12.1478 15 10 15C7.85223 15 6.11111 13.2588 6.11111 11.1111V6.66663Z" fill="#F5F7F8"/>
<mask id="mask1_11482_5687" style="mask-type:alpha" maskUnits="userSpaceOnUse" x="6" y="6" width="8" height="9">
<path d="M6.11111 6.66663H13.8889V11.1111C13.8889 13.2588 12.1478 15 10 15C7.85223 15 6.11111 13.2588 6.11111 11.1111V6.66663Z" fill="#F5F7F8"/>
</mask>
<g mask="url(#mask1_11482_5687)">
<path fill-rule="evenodd" clip-rule="evenodd" d="M8.05556 6.66663H6.11111V8.61107H8.05556V10.5555H6.11111V12.5H8.05556V14.4444H6.11111V16.3888H8.05556V14.4444H10V16.3888H11.9444V14.4444H13.8889V12.5H11.9444V10.5555H13.8889V8.61107L11.9444 8.61107V6.66663H10V8.61107L8.05556 8.61107V6.66663ZM10 10.5555H11.9444V8.61107L10 8.61107V10.5555ZM10 12.5H8.05556V10.5555H10V12.5ZM10 12.5H11.9444V14.4444H10V12.5Z" fill="#DD2033"/>
</g>
<path d="M6.11111 4.72225L7.36111 3.88892L8.61111 4.72225V6.66669H6.11111V4.72225Z" fill="#0091DA"/>
<path d="M8.61111 4.72225L10 3.88892L11.3889 4.72225V6.66669H8.61111V4.72225Z" fill="#004692"/>
<path d="M11.3889 4.72225L12.6389 3.88892L13.8889 4.72225V6.66669H11.3889V4.72225Z" fill="#0091DA"/>
</g>
</svg>
