<svg width="72" height="72" viewBox="0 0 72 72" fill="none" xmlns="http://www.w3.org/2000/svg">
<mask id="mask0_38_13650" style="mask-type:alpha" maskUnits="userSpaceOnUse" x="0" y="0" width="72" height="72">
<circle cx="36" cy="36" r="36" transform="rotate(180 36 36)" fill="#D9D9D9"/>
</mask>
<g mask="url(#mask0_38_13650)">
<rect x="72" width="36" height="72" transform="rotate(90 72 0)" fill="#004692"/>
<rect x="72" y="36" width="36" height="72" transform="rotate(90 72 36)" fill="#DD2033"/>
<rect x="20" y="21" width="32" height="30" fill="#F5F7F8"/>
<path d="M34.6069 50.6911C33.8563 50.6238 33.1071 50.4662 32.3752 50.214C31.0419 50.0948 29.7128 49.6906 28.4772 48.9772C23.9335 46.3539 22.3766 40.5438 25 36L26.446 36.8348C26.9094 35.727 27.5919 34.6891 28.4936 33.7874L29.8721 35.1658C30.5294 34.4286 31.3137 33.7822 32.2158 33.2614L36.1379 40.0546L40.2109 33C41.0355 33.4761 41.7618 34.0571 42.3825 34.7165L43.3755 33.7235C44.3065 34.6545 45.0155 35.7234 45.5026 36.8645L47 36C49.7614 40.7829 48.1227 46.8988 43.3397 49.6603C41.5236 50.7088 39.5153 51.1229 37.5714 50.9714C36.5698 51.0346 35.5689 50.9377 34.6069 50.6911Z" fill="#004692"/>
<path d="M20 51L31.6107 43.3804C34.2756 41.6316 37.7244 41.6316 40.3893 43.3804L52 51L20 51Z" fill="#008259"/>
<rect x="35.3999" y="30" width="2" height="14" fill="#936846"/>
<path d="M36.8999 23L38.4997 26.4314L42.1126 25.5749L40.4945 28.9972L43.3999 31.3605L39.7826 32.1966L39.7926 36L36.8999 33.6205L34.0071 36L34.0172 32.1966L30.3999 31.3605L33.3052 28.9972L31.6873 25.5749L35.3 26.4314L36.8999 23Z" fill="#009B77"/>
</g>
</svg>
