<svg width="29" height="20" viewBox="0 0 29 20" fill="none" xmlns="http://www.w3.org/2000/svg">
<mask id="mask0_11482_5721" style="mask-type:alpha" maskUnits="userSpaceOnUse" x="0" y="0" width="29" height="20">
<rect width="29" height="20" fill="#D9D9D9"/>
</mask>
<g mask="url(#mask0_11482_5721)">
<rect x="29" width="10" height="29" transform="rotate(90 29 0)" fill="#004692"/>
<rect x="29" y="10" width="10" height="29" transform="rotate(90 29 10)" fill="#DD2033"/>
<rect x="8.05554" y="4" width="12.8889" height="12" fill="#F5F7F8"/>
<path d="M13.9389 15.8765C13.6366 15.8496 13.3348 15.7865 13.04 15.6856C12.503 15.638 11.9676 15.4763 11.47 15.1909C9.63985 14.1416 9.0128 11.8176 10.0694 10L10.6518 10.334C10.8385 9.89084 11.1134 9.47568 11.4766 9.11499L12.0318 9.66636C12.2965 9.37149 12.6125 9.11292 12.9758 8.90459L14.5555 11.6219L16.1961 8.80005C16.5282 8.99048 16.8207 9.2229 17.0707 9.48665L17.4707 9.08945C17.8457 9.46186 18.1313 9.88942 18.3274 10.3458L18.9305 10C20.0428 11.9132 19.3827 14.3596 17.4563 15.4641C16.7248 15.8836 15.9159 16.0492 15.1329 15.9886C14.7295 16.0139 14.3264 15.9751 13.9389 15.8765Z" fill="#004692"/>
<path d="M8 16L9.62231 14.7521C12.4979 12.5401 16.5021 12.5401 19.3777 14.7521L21 16L8 16Z" fill="#008259"/>
<rect x="14.2583" y="7.59998" width="0.805556" height="5.6" fill="#936846"/>
<path d="M14.8625 4.80005L15.5068 6.1726L16.962 5.83001L16.3103 7.19892L17.4805 8.14423L16.0236 8.47869L16.0276 10L14.8625 9.04824L13.6973 10L13.7014 8.47869L12.2444 8.14423L13.4146 7.19892L12.763 5.83001L14.2181 6.1726L14.8625 4.80005Z" fill="#009B77"/>
</g>
</svg>
