<svg width="20" height="20" viewBox="0 0 20 20" fill="none" xmlns="http://www.w3.org/2000/svg">
<mask id="mask0_11482_5712" style="mask-type:alpha" maskUnits="userSpaceOnUse" x="0" y="0" width="20" height="20">
<circle cx="10" cy="10" r="10" transform="rotate(180 10 10)" fill="#D9D9D9"/>
</mask>
<g mask="url(#mask0_11482_5712)">
<rect x="20" width="10" height="20" transform="rotate(90 20 0)" fill="#004692"/>
<rect x="20" y="10" width="10" height="20" transform="rotate(90 20 10)" fill="#DD2033"/>
<rect x="5.55554" y="5.83337" width="8.88889" height="8.33333" fill="#F5F7F8"/>
<path d="M9.61302 14.0808C9.40453 14.0621 9.19641 14.0184 8.9931 13.9483C8.62275 13.9152 8.25354 13.8029 7.91034 13.6047C6.64818 12.876 6.21573 11.2621 6.94444 9.99996L7.3461 10.2319C7.47482 9.92412 7.66442 9.63581 7.9149 9.38534L8.2978 9.76823C8.48038 9.56346 8.69825 9.3839 8.94883 9.23922L10.0383 11.1263L11.1697 9.16663C11.3988 9.29887 11.6005 9.46027 11.7729 9.64343L12.0487 9.3676C12.3074 9.62621 12.5043 9.92313 12.6396 10.2401L13.0556 9.99996C13.8226 11.3285 13.3674 13.0274 12.0388 13.7945C11.5343 14.0857 10.9765 14.2008 10.4365 14.1587C10.1583 14.1762 9.88026 14.1493 9.61302 14.0808Z" fill="#004692"/>
<path d="M5.55554 14.1667L14.4444 14.1667C12.1053 11.4475 7.89463 11.4475 5.55554 14.1667Z" fill="#008259"/>
<rect x="9.83331" y="8.33337" width="0.555556" height="3.88889" fill="#936846"/>
<path d="M10.25 6.38892L10.6944 7.34208L11.698 7.10417L11.2485 8.0548L12.0555 8.71127L11.0507 8.94353L11.0535 10L10.25 9.33905L9.44641 10L9.44923 8.94353L8.44443 8.71127L9.25144 8.0548L8.80204 7.10417L9.80558 7.34208L10.25 6.38892Z" fill="#009B77"/>
</g>
</svg>
