<svg width="72" height="72" viewBox="0 0 72 72" fill="none" xmlns="http://www.w3.org/2000/svg">
<mask id="mask0_38_13993" style="mask-type:alpha" maskUnits="userSpaceOnUse" x="0" y="0" width="72" height="72">
<circle cx="36" cy="36" r="36" fill="#D9D9D9"/>
</mask>
<g mask="url(#mask0_38_13993)">
<rect x="-0.399902" y="72" width="72" height="72" transform="rotate(-90 -0.399902 72)" fill="#F5F7F8"/>
<rect x="0.000244141" y="64.0001" width="10" height="72" transform="rotate(-90 0.000244141 64.0001)" fill="#005EB8"/>
<rect y="20" width="10" height="72" transform="rotate(-90 0 20)" fill="#005EB8"/>
<path fill-rule="evenodd" clip-rule="evenodd" d="M31.5586 30L35.6001 23L39.6415 30H47.7247L43.6831 37.0003L47.7244 44H39.6418L35.6004 51L31.5589 44H23.4757L27.5173 36.9997L23.476 30H31.5586ZM30.4039 32H26.9401L28.672 34.9997L30.4039 32ZM29.8267 36.9997L32.7133 32H38.4868L41.3737 37.0003L38.4871 42H32.7136L29.8267 36.9997ZM28.672 38.9997L26.9398 42H30.4042L28.672 38.9997ZM33.8683 44L35.6004 47L37.3324 44H33.8683ZM40.7965 42H44.2603L42.5284 39.0003L40.7965 42ZM42.5284 35.0003L44.2606 32H40.7962L42.5284 35.0003ZM37.3321 30H33.868L35.6001 27L37.3321 30Z" fill="#005EB8"/>
</g>
</svg>
