<svg width="20" height="20" viewBox="0 0 20 20" fill="none" xmlns="http://www.w3.org/2000/svg">
<mask id="mask0_11482_5766" style="mask-type:alpha" maskUnits="userSpaceOnUse" x="0" y="0" width="20" height="20">
<circle cx="10" cy="10" r="10" fill="#D9D9D9"/>
</mask>
<g mask="url(#mask0_11482_5766)">
<rect x="-0.111084" y="20" width="20" height="20" transform="rotate(-90 -0.111084 20)" fill="#F5F7F8"/>
<rect x="0.000244141" y="17.7778" width="2.77778" height="20" transform="rotate(-90 0.000244141 17.7778)" fill="#005EB8"/>
<rect y="5.55554" width="2.77778" height="20" transform="rotate(-90 0 5.55554)" fill="#005EB8"/>
<path fill-rule="evenodd" clip-rule="evenodd" d="M8.76628 8.33336L9.8889 6.38892L11.0115 8.33336H13.2569L12.1342 10.2779L13.2568 12.2222H11.0116L9.88899 14.1667L8.76636 12.2222H6.52103L7.6437 10.2777L6.52111 8.33336H8.76628ZM8.44553 8.88892H7.48336L7.96445 9.72217L8.44553 8.88892ZM8.2852 10.2777L9.08703 8.88892H10.6908L11.4927 10.2779L10.6909 11.6667H9.08711L8.2852 10.2777ZM7.96445 10.8333L7.48328 11.6667H8.44561L7.96445 10.8333ZM9.40786 12.2222L9.88899 13.0556L10.3701 12.2222H9.40786ZM11.3324 11.6667H12.2945L11.8134 10.8334L11.3324 11.6667ZM11.8134 9.72232L12.2946 8.88892H11.3323L11.8134 9.72232ZM10.37 8.33336H9.40778L9.8889 7.50003L10.37 8.33336Z" fill="#005EB8"/>
</g>
</svg>
