<svg width="72" height="72" viewBox="0 0 72 72" fill="none" xmlns="http://www.w3.org/2000/svg">
<mask id="mask0_38_14059" style="mask-type:alpha" maskUnits="userSpaceOnUse" x="0" y="0" width="72" height="72">
<circle cx="36" cy="36" r="36" fill="#D9D9D9"/>
</mask>
<g mask="url(#mask0_38_14059)">
<rect width="72" height="72" fill="#DD2033"/>
<path d="M18.1338 26.9609C17.5922 27.3428 16.8344 27.1806 16.5024 26.6118L12 18.8985L13.5856 18L18.9791 23.0385L32.607 18.1274C33.6298 17.7588 34.7552 18.3226 35.0556 19.3539L35.1161 19.5617L39.3824 30.4359L39.7411 30.7304L39.7561 30.7045L45.8625 33.899L46.2524 32.1304C46.4697 31.1446 46.8032 30.1872 47.2461 29.2776L50.0068 23.6092L49.8265 21.3905C49.7734 20.7364 50.3049 20.18 50.9707 20.1927L60 20.3646L59.9647 22.1665L52.803 24.1252L50.0539 38.1634C49.8476 39.217 48.7774 39.8769 47.7255 39.5992L47.5136 39.5433L35.8076 37.5351L35.8233 37.5079H35.495L35.5141 37.5383L29.7437 41.2907L31.1329 42.4747C31.9073 43.1347 32.6007 43.8817 33.1989 44.7003L36.9278 49.8025L38.991 50.7089C39.5993 50.9761 39.8405 51.7023 39.5104 52.2722L35.0337 60L33.4451 59.1066L35.1291 51.9741L23.937 42.8742C23.097 42.1912 23.0215 40.9496 23.7726 40.1726L23.9239 40.0161L31.3185 30.8523L31.341 30.8882L31.4377 30.666L31.4242 30.6663L31.0569 23.8639L29.3176 24.4459C28.3481 24.7703 27.3435 24.9819 26.3241 25.0764L19.9709 25.6656L18.1338 26.9609Z" fill="#F5F7F8"/>
</g>
</svg>
