<svg width="20" height="20" viewBox="0 0 20 20" fill="none" xmlns="http://www.w3.org/2000/svg">
<mask id="mask0_11482_5780" style="mask-type:alpha" maskUnits="userSpaceOnUse" x="0" y="0" width="20" height="20">
<circle cx="10" cy="10" r="10" fill="#D9D9D9"/>
</mask>
<g mask="url(#mask0_11482_5780)">
<rect width="20" height="20" fill="#DD2033"/>
<path d="M5.03717 7.48914C4.88673 7.59521 4.67623 7.55017 4.584 7.39217L3.33333 5.24958L3.77378 5L5.27198 6.39958L9.0575 5.03539C9.34161 4.93301 9.65422 5.0896 9.73766 5.37609L9.75447 5.4338L10.9396 8.45443L11.0392 8.53623L11.0433 8.52902L12.7396 9.41639L12.8479 8.92511C12.9082 8.65127 13.0009 8.38532 13.1239 8.13268L13.8908 6.55811L13.8407 5.94181C13.8259 5.76012 13.9736 5.60557 14.1585 5.60909L16.6667 5.65683L16.6568 6.15735L14.6675 6.70144L13.9039 10.601C13.8466 10.8936 13.5493 11.0769 13.2571 10.9998L13.1982 10.9842L9.94656 10.4264L9.95092 10.4189H9.85972L9.86502 10.4273L8.26214 11.4696L8.64803 11.7985C8.86312 11.9819 9.05573 12.1893 9.22193 12.4168L10.2577 13.834L10.8308 14.0858C10.9998 14.16 11.0668 14.3617 10.9751 14.52L9.73159 16.6667L9.29031 16.4185L9.75808 14.4372L6.64917 11.9095C6.41584 11.7198 6.39486 11.3749 6.60351 11.1591L6.64553 11.1156L8.69957 8.57007L8.70583 8.58005L8.73268 8.51833L8.72893 8.51842L8.62692 6.62886L8.14378 6.79052C7.87448 6.88063 7.5954 6.93942 7.31224 6.96568L5.54747 7.12933L5.03717 7.48914Z" fill="#F5F7F8"/>
</g>
</svg>
