<svg width="29" height="20" viewBox="0 0 29 20" fill="none" xmlns="http://www.w3.org/2000/svg">
<mask id="mask0_11482_5784" style="mask-type:alpha" maskUnits="userSpaceOnUse" x="0" y="0" width="29" height="20">
<rect width="29" height="20" fill="#D9D9D9"/>
</mask>
<g mask="url(#mask0_11482_5784)">
<rect width="29" height="20" fill="#DD2033"/>
<path d="M7.3039 5.18434C7.08576 5.33708 6.78053 5.27222 6.6468 5.04469L4.83333 1.95938L5.47198 1.59998L7.64437 3.61538L13.1334 1.65094C13.5453 1.5035 13.9986 1.729 14.1196 2.14155L14.144 2.22465L15.8624 6.57435L16.0068 6.69214L16.0129 6.68177L18.4724 7.95957L18.6294 7.25214C18.7169 6.85781 18.8513 6.47484 19.0297 6.11103L20.1416 3.84366L20.069 2.95618C20.0476 2.69455 20.2617 2.47199 20.5299 2.47706L24.1667 2.54581L24.1524 3.26657L21.2679 4.05005L20.1606 9.66535C20.0775 10.0868 19.6465 10.3507 19.2228 10.2397L19.1374 10.2173L14.4225 9.41403L14.4288 9.40315H14.2966L14.3043 9.41531L11.9801 10.9162L12.5396 11.3899C12.8515 11.6539 13.1308 11.9526 13.3718 12.2801L14.8737 14.321L15.7047 14.6835C15.9497 14.7904 16.0469 15.0809 15.9139 15.3088L14.1108 18.4L13.4709 18.0426L14.1492 15.1896L9.6413 11.5497C9.30297 11.2765 9.27254 10.7798 9.57509 10.469L9.63602 10.4064L12.6144 6.74088L12.6235 6.75525L12.6624 6.66637L12.6569 6.66649L12.509 3.94553L11.8085 4.17833C11.418 4.30809 11.0133 4.39274 10.6028 4.43055L8.04384 4.6662L7.3039 5.18434Z" fill="#F5F7F8"/>
</g>
</svg>
