<svg width="72" height="72" viewBox="0 0 72 72" fill="none" xmlns="http://www.w3.org/2000/svg">
<mask id="mask0_38_14100" style="mask-type:alpha" maskUnits="userSpaceOnUse" x="0" y="0" width="72" height="72">
<circle cx="36" cy="36" r="36" fill="#D9D9D9"/>
</mask>
<g mask="url(#mask0_38_14100)">
<rect x="0.00012207" y="72.0001" width="20" height="72" transform="rotate(-90 0.00012207 72.0001)" fill="#009B77"/>
<rect y="52" width="32" height="72" transform="rotate(-90 0 52)" fill="#F5F7F8"/>
<rect y="20" width="20" height="72" transform="rotate(-90 0 20)" fill="#FF9E42"/>
<path fill-rule="evenodd" clip-rule="evenodd" d="M49 36C49 43.1797 43.1797 49 36 49C28.8203 49 23 43.1797 23 36C23 28.8203 28.8203 23 36 23C43.1797 23 49 28.8203 49 36ZM38.4743 44.6556C37.6882 44.8799 36.8581 45 36 45C35.1419 45 34.3118 44.8799 33.5257 44.6556L35.9999 41.8811L38.4743 44.6556ZM38.8359 44.5441C40.5422 43.978 42.022 42.9151 43.1037 41.5268L39.2875 40.7593L38.8359 44.5441ZM43.1978 41.4038C44.3294 39.899 45 38.0278 45 36C45 36 45 36 45 36C45 33.9723 44.3294 32.1011 43.1979 30.5963L41.3226 34.1817L45 36L41.3225 37.8185L43.1978 41.4038ZM43.1038 30.4733C42.0221 29.085 40.5423 28.022 38.836 27.4559L39.2875 31.2407L43.1038 30.4733ZM38.4744 27.3444L35.9999 30.1189L33.5258 27.3444C34.3119 27.1201 35.1419 27 36 27C36.8582 27 37.6883 27.1201 38.4744 27.3444ZM33.1642 27.4559C31.4578 28.0219 29.978 29.0849 28.8962 30.4733L32.7124 31.2407L33.1642 27.4559ZM28.8021 30.5963C27.6706 32.1011 27 33.9722 27 35.9999C27 35.9999 27 36 27 35.9999C27 38.0277 27.6706 39.8989 28.8021 41.4037L30.6775 37.8183L27 35.9999L30.6776 34.1815L28.8021 30.5963ZM28.8962 41.5267C29.9779 42.915 31.4577 43.978 33.1641 44.5441L32.7125 40.7593L28.8962 41.5267Z" fill="#004692"/>
</g>
</svg>
