<svg width="20" height="20" viewBox="0 0 20 20" fill="none" xmlns="http://www.w3.org/2000/svg">
<mask id="mask0_11482_5790" style="mask-type:alpha" maskUnits="userSpaceOnUse" x="0" y="0" width="20" height="20">
<circle cx="10" cy="10" r="10" fill="#D9D9D9"/>
</mask>
<g mask="url(#mask0_11482_5790)">
<rect x="0.00012207" y="20" width="4" height="20" transform="rotate(-90 0.00012207 20)" fill="#009B77"/>
<rect y="16" width="12" height="20" transform="rotate(-90 0 16)" fill="#F5F7F8"/>
<rect y="4" width="4" height="20" transform="rotate(-90 0 4)" fill="#FF9E42"/>
<path fill-rule="evenodd" clip-rule="evenodd" d="M10 5C12.7614 5.00001 15 7.23858 15 10C15 12.7614 12.7614 15 10 15C7.23858 15 5 12.7614 5 10C5 7.23858 7.23858 5 10 5ZM8.89691 11.3324L6.94225 13.0576C7.03107 13.1465 7.12373 13.2314 7.21996 13.3123C7.28415 13.2323 7.40084 13.2179 7.48263 13.2806C7.5645 13.3434 7.58067 13.46 7.5198 13.5427C7.72473 13.6864 7.94266 13.8129 8.17156 13.9199C8.21254 13.8253 8.32193 13.7808 8.41749 13.8204C8.51309 13.86 8.55891 13.9689 8.52096 14.0647C8.75473 14.1498 8.99791 14.2152 9.24852 14.2591C9.26382 14.1574 9.35779 14.0862 9.4602 14.0997C9.56249 14.1132 9.6348 14.206 9.62347 14.3081C9.74756 14.3188 9.87314 14.3243 10 14.3243L9.83784 11.7222L9.94589 10.8631C9.90606 10.8607 9.86696 10.8555 9.82876 10.8479L9.71094 11.7054L8.88075 14.177L9.39765 11.6215L9.72424 10.8199C9.68664 10.8073 9.65022 10.7921 9.61513 10.7747L9.2793 11.5725L7.83784 13.7449L8.99847 11.4104L9.52148 10.7205C9.48862 10.6986 9.45733 10.6746 9.42784 10.6485L8.89691 11.3324ZM10.5721 10.6485C10.5426 10.6746 10.5113 10.6986 10.4784 10.7205L11.0015 11.4104L12.1621 13.745L10.7207 11.5725L10.3848 10.7747C10.3497 10.7921 10.3133 10.8073 10.2757 10.8199L10.6024 11.6215L11.1192 14.177L10.2891 11.7054L10.1711 10.8479C10.133 10.8555 10.0939 10.8607 10.0541 10.8631L10.1622 11.7221L10 14.3243C10.1268 14.3243 10.2523 14.3188 10.3764 14.3081C10.3651 14.206 10.4374 14.1132 10.5397 14.0998C10.6421 14.0863 10.7361 14.1574 10.7514 14.2591C11.002 14.2152 11.2451 14.1498 11.4789 14.0647C11.4409 13.9689 11.4868 13.86 11.5824 13.8204C11.678 13.7808 11.7874 13.8253 11.8283 13.9199C12.0572 13.8129 12.2751 13.6865 12.48 13.5428C12.4192 13.46 12.4354 13.3434 12.5173 13.2806C12.5991 13.2178 12.7158 13.2323 12.78 13.3123C12.8762 13.2315 12.9689 13.1465 13.0577 13.0577L11.103 11.3324L10.5721 10.6485ZM11.3324 8.89691L10.6485 9.42789C10.6745 9.45739 10.6986 9.48867 10.7204 9.52154L11.4103 8.99847L13.745 7.83784L11.5725 9.27935L10.7746 9.61513C10.7921 9.65022 10.8073 9.68664 10.8199 9.72424L11.6215 9.39765L14.1769 8.88075L11.7054 9.71089L10.8479 9.82876C10.8555 9.86695 10.8606 9.90606 10.8631 9.94589L11.7221 9.83784L14.3243 10L11.7221 10.1622L10.8631 10.0541C10.8606 10.0939 10.8555 10.133 10.8479 10.1712L11.7054 10.2891L14.1769 11.1192L11.6215 10.6024L10.8199 10.2757C10.8073 10.3133 10.7921 10.3497 10.7747 10.3848L11.5725 10.7207L13.7449 12.1622L11.4103 11.0015L10.7204 10.4784C10.6986 10.5113 10.6745 10.5426 10.6485 10.5721L11.3324 11.1031L13.0577 13.0577C13.1465 12.9689 13.2314 12.8763 13.3123 12.78C13.2322 12.7159 13.2178 12.5991 13.2806 12.5173C13.3434 12.4354 13.46 12.4192 13.5427 12.4801C13.6864 12.2752 13.8129 12.0572 13.9199 11.8283C13.8253 11.7874 13.7807 11.678 13.8203 11.5825C13.8599 11.4868 13.9688 11.441 14.0647 11.479C14.1498 11.2452 14.2152 11.002 14.2591 10.7514C14.1574 10.7361 14.0862 10.6422 14.0997 10.5397C14.1132 10.4374 14.206 10.3651 14.3081 10.3765C14.3188 10.2524 14.3243 10.1268 14.3243 10C14.3243 9.87314 14.3188 9.74756 14.3081 9.62347C14.206 9.63483 14.1132 9.56256 14.0997 9.46025C14.0862 9.35782 14.1574 9.2638 14.2591 9.24852C14.2152 8.99793 14.1498 8.75477 14.0647 8.52101C13.9689 8.55898 13.8599 8.51314 13.8203 8.41755C13.7807 8.32198 13.8253 8.21253 13.9199 8.17156C13.8129 7.94268 13.6864 7.72477 13.5427 7.51985C13.46 7.58073 13.3434 7.56455 13.2806 7.48269C13.2178 7.40088 13.2322 7.28414 13.3123 7.21996C13.2314 7.12374 13.1465 7.03107 13.0577 6.94225L11.3324 8.89691ZM6.9422 6.9423C6.85339 7.03111 6.76845 7.12379 6.68761 7.22002C6.76766 7.2842 6.7821 7.40088 6.71933 7.48269C6.65651 7.56455 6.53992 7.58078 6.45719 7.5199C6.31347 7.72482 6.18702 7.94274 6.08008 8.17161C6.17461 8.2126 6.21915 8.32199 6.17958 8.41755C6.13998 8.51314 6.03109 8.55896 5.93523 8.52101C5.85016 8.75476 5.78472 8.99793 5.74082 9.24852C5.84253 9.26382 5.91365 9.35784 5.90018 9.46025C5.8867 9.56253 5.79389 9.63484 5.69183 9.62352C5.68113 9.74759 5.67568 9.87316 5.67568 10C5.67568 10.1268 5.68113 10.2524 5.69183 10.3764C5.79389 10.3651 5.8867 10.4375 5.90018 10.5397C5.91365 10.6422 5.84253 10.7361 5.74082 10.7514C5.78472 11.002 5.85016 11.2452 5.93523 11.4789C6.03108 11.441 6.13998 11.4869 6.17958 11.5825C6.21915 11.678 6.17458 11.7873 6.08003 11.8283C6.18697 12.0572 6.31345 12.2751 6.45719 12.4801C6.53992 12.4192 6.65651 12.4355 6.71933 12.5173C6.78208 12.5991 6.76762 12.7157 6.68761 12.7799C6.76846 12.8762 6.85343 12.9688 6.94225 13.0576L8.6676 11.1031L9.3514 10.5721C9.32537 10.5426 9.30132 10.5113 9.27946 10.4784L8.58958 11.0015L6.25496 12.1622L8.42747 10.7207L9.2253 10.3848C9.20782 10.3497 9.19259 10.3133 9.17995 10.2757L8.37848 10.6024L5.823 11.1192L8.29455 10.2891L9.15203 10.1711C9.14436 10.133 9.13928 10.0939 9.13682 10.0541L8.27782 10.1622L5.67568 10L8.27782 9.83784L9.13682 9.94589C9.13928 9.90606 9.14436 9.86695 9.15203 9.82876L8.2945 9.71089L5.823 8.88081L8.37843 9.39765L9.17995 9.72429C9.19259 9.6867 9.20778 9.65027 9.22524 9.61518L8.42747 9.27935L6.25501 7.83784L8.58963 8.99852L9.2794 9.52159C9.30128 9.4887 9.32535 9.45741 9.3514 9.42789L8.66755 8.89691L6.9422 6.9423ZM10 5.67568C9.87314 5.67568 9.74756 5.68113 9.62347 5.69183C9.63483 5.79392 9.5625 5.88681 9.4602 5.90029C9.35778 5.91376 9.26375 5.84255 9.24847 5.74082C8.99788 5.78473 8.75471 5.85015 8.52096 5.93523C8.55893 6.0311 8.5131 6.14003 8.41749 6.17963C8.32192 6.21922 8.21252 6.17466 8.17156 6.08008C7.94269 6.18702 7.72477 6.31347 7.51985 6.45719C7.58076 6.53992 7.56451 6.65656 7.48263 6.71938C7.40083 6.78214 7.28415 6.7677 7.21996 6.68766C7.12374 6.76851 7.03106 6.85344 6.94225 6.94225L8.89685 8.66755L9.42784 9.3514C9.45734 9.32536 9.48866 9.30133 9.52154 9.27946L8.99847 8.58963L7.83784 6.25501L9.2793 8.42747L9.61513 9.2253C9.65022 9.20783 9.68664 9.19264 9.72424 9.18L9.39759 8.37848L8.88075 5.823L9.71089 8.29455L9.82876 9.15208C9.86695 9.14441 9.90606 9.13928 9.94589 9.13682L9.83784 8.27782L10 5.67568ZM10.1622 8.27782L10.0541 9.13682C10.0939 9.13928 10.133 9.14441 10.1712 9.15208L10.2891 8.29455L11.1192 5.823L10.6024 8.37848L10.2757 9.18C10.3133 9.19264 10.3497 9.20784 10.3848 9.2253L10.7206 8.42747L12.1621 6.25501L11.0015 8.58963L10.4784 9.27946C10.5113 9.30132 10.5426 9.32537 10.5721 9.3514L11.103 8.66755L13.0577 6.94225C12.9689 6.85343 12.8762 6.76846 12.78 6.68761C12.7158 6.76768 12.5991 6.78214 12.5173 6.71938C12.4354 6.65656 12.4192 6.53991 12.48 6.45719C12.2751 6.31347 12.0572 6.18701 11.8283 6.08008C11.7874 6.17465 11.678 6.21922 11.5824 6.17963C11.4868 6.14003 11.441 6.03109 11.4789 5.93523C11.2452 5.85016 11.002 5.78472 10.7514 5.74082C10.7362 5.84256 10.6421 5.91372 10.5397 5.90023C10.4374 5.88676 10.365 5.79394 10.3764 5.69188C10.2523 5.68119 10.1268 5.67568 10 5.67568L10.1622 8.27782Z" fill="#004692"/>
</g>
</svg>
