<svg width="29" height="20" viewBox="0 0 29 20" fill="none" xmlns="http://www.w3.org/2000/svg">
<mask id="mask0_11482_5796" style="mask-type:alpha" maskUnits="userSpaceOnUse" x="0" y="0" width="29" height="20">
<rect width="29" height="20" fill="#D9D9D9"/>
</mask>
<g mask="url(#mask0_11482_5796)">
<rect y="20" width="4" height="29" transform="rotate(-90 0 20)" fill="#009B77"/>
<rect y="16" width="12" height="29" transform="rotate(-90 0 16)" fill="#F5F7F8"/>
<rect y="4" width="4" height="29" transform="rotate(-90 0 4)" fill="#FF9E42"/>
<path fill-rule="evenodd" clip-rule="evenodd" d="M14.5 5C17.2614 5.00001 19.5 7.23858 19.5 10C19.5 12.7614 17.2614 15 14.5 15C11.7386 15 9.5 12.7614 9.5 10C9.5 7.23858 11.7386 5 14.5 5ZM13.3969 11.3324L11.4423 13.0576C11.5311 13.1465 11.6237 13.2314 11.72 13.3123C11.7842 13.2323 11.9008 13.2179 11.9826 13.2806C12.0645 13.3434 12.0807 13.46 12.0198 13.5427C12.2247 13.6864 12.4427 13.8129 12.6716 13.9199C12.7125 13.8253 12.8219 13.7808 12.9175 13.8204C13.0131 13.86 13.0589 13.9689 13.021 14.0647C13.2547 14.1498 13.4979 14.2152 13.7485 14.2591C13.7638 14.1574 13.8578 14.0862 13.9602 14.0997C14.0625 14.1132 14.1348 14.206 14.1235 14.3081C14.2476 14.3188 14.3731 14.3243 14.5 14.3243L14.3378 11.7222L14.4459 10.8631C14.4061 10.8607 14.367 10.8555 14.3288 10.8479L14.2109 11.7054L13.3808 14.177L13.8976 11.6215L14.2242 10.8199C14.1866 10.8073 14.1502 10.7921 14.1151 10.7747L13.7793 11.5725L12.3378 13.7449L13.4985 11.4104L14.0215 10.7205C13.9886 10.6986 13.9573 10.6746 13.9278 10.6485L13.3969 11.3324ZM15.0721 10.6485C15.0426 10.6746 15.0113 10.6986 14.9784 10.7205L15.5015 11.4104L16.6621 13.745L15.2207 11.5725L14.8848 10.7747C14.8497 10.7921 14.8133 10.8073 14.7757 10.8199L15.1024 11.6215L15.6192 14.177L14.7891 11.7054L14.6711 10.8479C14.633 10.8555 14.5939 10.8607 14.5541 10.8631L14.6622 11.7221L14.5 14.3243C14.6268 14.3243 14.7523 14.3188 14.8764 14.3081C14.8651 14.206 14.9374 14.1132 15.0397 14.0998C15.1421 14.0863 15.2361 14.1574 15.2514 14.2591C15.502 14.2152 15.7451 14.1498 15.9789 14.0647C15.9409 13.9689 15.9868 13.86 16.0824 13.8204C16.178 13.7808 16.2874 13.8253 16.3283 13.9199C16.5572 13.8129 16.7751 13.6865 16.98 13.5428C16.9192 13.46 16.9354 13.3434 17.0173 13.2806C17.0991 13.2178 17.2158 13.2323 17.28 13.3123C17.3762 13.2315 17.4689 13.1465 17.5577 13.0577L15.603 11.3324L15.0721 10.6485ZM15.8324 8.89691L15.1485 9.42789C15.1745 9.45739 15.1986 9.48867 15.2204 9.52154L15.9103 8.99847L18.245 7.83784L16.0725 9.27935L15.2746 9.61513C15.2921 9.65022 15.3073 9.68664 15.3199 9.72424L16.1215 9.39765L18.6769 8.88075L16.2054 9.71089L15.3479 9.82876C15.3555 9.86695 15.3606 9.90606 15.3631 9.94589L16.2221 9.83784L18.8243 10L16.2221 10.1622L15.3631 10.0541C15.3606 10.0939 15.3555 10.133 15.3479 10.1712L16.2054 10.2891L18.6769 11.1192L16.1215 10.6024L15.3199 10.2757C15.3073 10.3133 15.2921 10.3497 15.2747 10.3848L16.0725 10.7207L18.2449 12.1622L15.9103 11.0015L15.2204 10.4784C15.1986 10.5113 15.1745 10.5426 15.1485 10.5721L15.8324 11.1031L17.5577 13.0577C17.6465 12.9689 17.7314 12.8763 17.8123 12.78C17.7322 12.7159 17.7178 12.5991 17.7806 12.5173C17.8434 12.4354 17.96 12.4192 18.0427 12.4801C18.1864 12.2752 18.3129 12.0572 18.4199 11.8283C18.3253 11.7874 18.2807 11.678 18.3203 11.5825C18.3599 11.4868 18.4688 11.441 18.5647 11.479C18.6498 11.2452 18.7152 11.002 18.7591 10.7514C18.6574 10.7361 18.5862 10.6422 18.5997 10.5397C18.6132 10.4374 18.706 10.3651 18.8081 10.3765C18.8188 10.2524 18.8243 10.1268 18.8243 10C18.8243 9.87314 18.8188 9.74756 18.8081 9.62347C18.706 9.63483 18.6132 9.56256 18.5997 9.46025C18.5862 9.35782 18.6574 9.2638 18.7591 9.24852C18.7152 8.99793 18.6498 8.75477 18.5647 8.52101C18.4689 8.55898 18.3599 8.51314 18.3203 8.41755C18.2807 8.32198 18.3253 8.21253 18.4199 8.17156C18.3129 7.94268 18.1864 7.72477 18.0427 7.51985C17.96 7.58073 17.8434 7.56455 17.7806 7.48269C17.7178 7.40088 17.7322 7.28414 17.8123 7.21996C17.7314 7.12374 17.6465 7.03107 17.5577 6.94225L15.8324 8.89691ZM11.4422 6.9423C11.3534 7.03111 11.2685 7.12379 11.1876 7.22002C11.2677 7.2842 11.2821 7.40088 11.2193 7.48269C11.1565 7.56455 11.0399 7.58078 10.9572 7.5199C10.8135 7.72482 10.687 7.94274 10.5801 8.17161C10.6746 8.2126 10.7192 8.32199 10.6796 8.41755C10.64 8.51314 10.5311 8.55896 10.4352 8.52101C10.3502 8.75476 10.2847 8.99793 10.2408 9.24852C10.3425 9.26382 10.4137 9.35784 10.4002 9.46025C10.3867 9.56253 10.2939 9.63484 10.1918 9.62352C10.1811 9.74759 10.1757 9.87316 10.1757 10C10.1757 10.1268 10.1811 10.2524 10.1918 10.3764C10.2939 10.3651 10.3867 10.4375 10.4002 10.5397C10.4136 10.6422 10.3425 10.7361 10.2408 10.7514C10.2847 11.002 10.3502 11.2452 10.4352 11.4789C10.5311 11.441 10.64 11.4869 10.6796 11.5825C10.7192 11.678 10.6746 11.7873 10.58 11.8283C10.687 12.0572 10.8134 12.2751 10.9572 12.4801C11.0399 12.4192 11.1565 12.4355 11.2193 12.5173C11.2821 12.5991 11.2676 12.7157 11.1876 12.7799C11.2685 12.8762 11.3534 12.9688 11.4423 13.0576L13.1676 11.1031L13.8514 10.5721C13.8254 10.5426 13.8013 10.5113 13.7795 10.4784L13.0896 11.0015L10.755 12.1622L12.9275 10.7207L13.7253 10.3848C13.7078 10.3497 13.6926 10.3133 13.68 10.2757L12.8785 10.6024L10.323 11.1192L12.7946 10.2891L13.652 10.1711C13.6444 10.133 13.6393 10.0939 13.6368 10.0541L12.7778 10.1622L10.1757 10L12.7778 9.83784L13.6368 9.94589C13.6393 9.90606 13.6444 9.86695 13.652 9.82876L12.7945 9.71089L10.323 8.88081L12.8784 9.39765L13.68 9.72429C13.6926 9.6867 13.7078 9.65027 13.7252 9.61518L12.9275 9.27935L10.755 7.83784L13.0896 8.99852L13.7794 9.52159C13.8013 9.4887 13.8254 9.45741 13.8514 9.42789L13.1675 8.89691L11.4422 6.9423ZM14.5 5.67568C14.3731 5.67568 14.2476 5.68113 14.1235 5.69183C14.1348 5.79392 14.0625 5.88681 13.9602 5.90029C13.8578 5.91376 13.7638 5.84255 13.7485 5.74082C13.4979 5.78473 13.2547 5.85015 13.021 5.93523C13.0589 6.0311 13.0131 6.14003 12.9175 6.17963C12.8219 6.21922 12.7125 6.17466 12.6716 6.08008C12.4427 6.18702 12.2248 6.31347 12.0198 6.45719C12.0808 6.53992 12.0645 6.65656 11.9826 6.71938C11.9008 6.78214 11.7841 6.7677 11.72 6.68766C11.6237 6.76851 11.5311 6.85344 11.4423 6.94225L13.3969 8.66755L13.9278 9.3514C13.9573 9.32536 13.9887 9.30133 14.0215 9.27946L13.4985 8.58963L12.3378 6.25501L13.7793 8.42747L14.1151 9.2253C14.1502 9.20783 14.1866 9.19264 14.2242 9.18L13.8976 8.37848L13.3808 5.823L14.2109 8.29455L14.3288 9.15208C14.367 9.14441 14.4061 9.13928 14.4459 9.13682L14.3378 8.27782L14.5 5.67568ZM14.6622 8.27782L14.5541 9.13682C14.5939 9.13928 14.633 9.14441 14.6712 9.15208L14.7891 8.29455L15.6192 5.823L15.1024 8.37848L14.7757 9.18C14.8133 9.19264 14.8497 9.20784 14.8848 9.2253L15.2206 8.42747L16.6621 6.25501L15.5015 8.58963L14.9784 9.27946C15.0113 9.30132 15.0426 9.32537 15.0721 9.3514L15.603 8.66755L17.5577 6.94225C17.4689 6.85343 17.3762 6.76846 17.28 6.68761C17.2158 6.76768 17.0991 6.78214 17.0173 6.71938C16.9354 6.65656 16.9192 6.53991 16.98 6.45719C16.7751 6.31347 16.5572 6.18701 16.3283 6.08008C16.2874 6.17465 16.178 6.21922 16.0824 6.17963C15.9868 6.14003 15.941 6.03109 15.9789 5.93523C15.7452 5.85016 15.502 5.78472 15.2514 5.74082C15.2362 5.84256 15.1421 5.91372 15.0397 5.90023C14.9374 5.88676 14.865 5.79394 14.8764 5.69188C14.7523 5.68119 14.6268 5.67568 14.5 5.67568L14.6622 8.27782Z" fill="#004692"/>
</g>
</svg>
