<svg width="72" height="72" viewBox="0 0 72 72" fill="none" xmlns="http://www.w3.org/2000/svg">
<mask id="mask0_38_14270" style="mask-type:alpha" maskUnits="userSpaceOnUse" x="0" y="0" width="72" height="72">
<circle cx="36" cy="36" r="36" fill="#D9D9D9"/>
</mask>
<g mask="url(#mask0_38_14270)">
<rect width="72" height="72" fill="#004692"/>
<path d="M71.2341 9.45551C72.0061 8.74723 72.7781 8.03898 74.282 8.00328C74.3595 8.99869 74.3999 10.0045 74.3999 11.0198C74.3999 11.7153 74.3803 12.4061 74.3438 13.0925C72.7987 13.1099 72.0163 13.828 71.2339 14.5461C70.4418 15.273 69.6497 16 68.0662 16C66.483 16 65.6914 15.2728 64.8998 14.5456C64.1081 13.8183 63.3164 13.091 61.7328 13.091C60.1496 13.091 59.358 13.8183 58.5663 14.5455C57.7746 15.2728 56.983 16 55.3998 16C53.8165 16 53.0249 15.2728 52.2333 14.5455C51.4417 13.8183 50.65 13.091 49.0667 13.091C47.4835 13.091 46.6919 13.8182 45.9002 14.5454C45.1085 15.2727 44.3168 16 42.7333 16C41.1498 16 40.3581 15.2728 39.5664 14.5455C38.7746 13.8183 37.9829 13.091 36.3995 13.091C34.8162 13.091 34.0246 13.8182 33.233 14.5455C32.4414 15.2727 31.6497 16 30.0664 16C28.4833 16 27.6918 15.2728 26.9002 14.5456C26.1086 13.8183 25.3169 13.091 23.7336 13.091C22.1501 13.091 21.3584 13.8183 20.5667 14.5455C19.7749 15.2728 18.9832 16 17.3998 16C15.8163 16 15.0246 15.2728 14.2328 14.5455C13.4411 13.8183 12.6494 13.091 11.0659 13.091C9.4829 13.091 8.69135 13.8182 7.89978 14.5454C7.10816 15.2727 6.3165 16 4.73314 16C3.14976 16 2.35774 15.273 1.56574 14.546C0.78347 13.828 0.00122346 13.1099 -1.54354 13.0925C-1.5805 12.4063 -1.6001 11.7153 -1.6001 11.0198C-1.6001 10.0045 -1.55972 8.99869 -1.48239 8.00328C0.0214226 8.03913 0.79338 8.74738 1.56532 9.45561C2.35754 10.1825 3.14975 10.9093 4.73299 10.9093C6.31635 10.9093 7.10801 10.1819 7.89963 9.45456C8.6912 8.72727 9.48275 8 11.0658 8C12.6492 8 13.441 8.72732 14.2327 9.45464C15.0244 10.182 15.8161 10.9093 17.3996 10.9093C18.9831 10.9093 19.7748 10.182 20.5665 9.45464C21.3582 8.72732 22.15 8 23.7334 8C25.3168 8 26.1085 8.72737 26.9001 9.45472C27.6916 10.182 28.4832 10.9093 30.0662 10.9093C31.6494 10.9093 32.4411 10.182 33.2327 9.45467C34.0243 8.72734 34.816 8 36.3993 8C37.9828 8 38.7745 8.72734 39.5663 9.45467C40.358 10.182 41.1498 10.9093 42.7331 10.9093C44.3165 10.9093 45.1082 10.1819 45.8999 9.45462C46.6916 8.7273 47.4832 8 49.0665 8C50.6498 8 51.4414 8.72732 52.2331 9.45464C53.0247 10.182 53.8164 10.9093 55.3996 10.9093C56.9828 10.9093 57.7744 10.182 58.5661 9.45467C59.3577 8.72734 60.1494 8 61.7327 8C63.3161 8 64.1078 8.72734 64.8995 9.45467C65.6911 10.182 66.4828 10.9093 68.0661 10.9093C69.6496 10.9093 70.4419 10.1824 71.2341 9.45551Z" fill="#F5F7F8"/>
<path d="M71.2341 39.4555C72.0061 38.7472 72.7781 38.039 74.282 38.0033C74.3595 38.9987 74.3999 40.0045 74.3999 41.0198C74.3999 41.7153 74.3803 42.4061 74.3438 43.0925C72.7987 43.1099 72.0163 43.828 71.2339 44.5461C70.4418 45.273 69.6497 46 68.0662 46C66.483 46 65.6914 45.2728 64.8998 44.5456C64.1081 43.8183 63.3164 43.091 61.7328 43.091C60.1496 43.091 59.358 43.8183 58.5663 44.5455C57.7746 45.2728 56.983 46 55.3998 46C53.8165 46 53.0249 45.2728 52.2333 44.5455C51.4417 43.8183 50.65 43.091 49.0667 43.091C47.4835 43.091 46.6919 43.8182 45.9002 44.5454C45.1085 45.2727 44.3168 46 42.7333 46C41.1498 46 40.3581 45.2728 39.5664 44.5455C38.7746 43.8183 37.9829 43.091 36.3995 43.091C34.8162 43.091 34.0246 43.8182 33.233 44.5455C32.4414 45.2727 31.6497 46 30.0664 46C28.4833 46 27.6918 45.2728 26.9002 44.5456C26.1086 43.8183 25.3169 43.091 23.7336 43.091C22.1501 43.091 21.3584 43.8183 20.5667 44.5455C19.7749 45.2728 18.9832 46 17.3998 46C15.8163 46 15.0246 45.2728 14.2328 44.5455C13.4411 43.8183 12.6494 43.091 11.0659 43.091C9.4829 43.091 8.69135 43.8182 7.89978 44.5454C7.10816 45.2727 6.3165 46 4.73314 46C3.14976 46 2.35774 45.273 1.56574 44.546C0.78347 43.828 0.00122346 43.1099 -1.54354 43.0925C-1.5805 42.4063 -1.6001 41.7153 -1.6001 41.0198C-1.6001 40.0045 -1.55972 38.9987 -1.48239 38.0033C0.0214226 38.0391 0.79338 38.7474 1.56532 39.4556C2.35754 40.1825 3.14975 40.9093 4.73299 40.9093C6.31635 40.9093 7.10801 40.1819 7.89963 39.4546C8.6912 38.7273 9.48275 38 11.0658 38C12.6492 38 13.441 38.7273 14.2327 39.4546C15.0244 40.182 15.8161 40.9093 17.3996 40.9093C18.9831 40.9093 19.7748 40.182 20.5665 39.4546C21.3582 38.7273 22.15 38 23.7334 38C25.3168 38 26.1085 38.7274 26.9001 39.4547C27.6916 40.182 28.4832 40.9093 30.0662 40.9093C31.6494 40.9093 32.4411 40.182 33.2327 39.4547C34.0243 38.7273 34.816 38 36.3993 38C37.9828 38 38.7745 38.7273 39.5663 39.4547C40.358 40.182 41.1498 40.9093 42.7331 40.9093C44.3165 40.9093 45.1082 40.1819 45.8999 39.4546C46.6916 38.7273 47.4832 38 49.0665 38C50.6498 38 51.4414 38.7273 52.2331 39.4546C53.0247 40.182 53.8164 40.9093 55.3996 40.9093C56.9828 40.9093 57.7744 40.182 58.5661 39.4547C59.3577 38.7273 60.1494 38 61.7327 38C63.3161 38 64.1078 38.7273 64.8995 39.4547C65.6911 40.182 66.4828 40.9093 68.0661 40.9093C69.6496 40.9093 70.4419 40.1824 71.2341 39.4555Z" fill="#F5F7F8"/>
<path d="M74.282 48.0033C72.7781 48.039 72.0061 48.7472 71.2341 49.4555C70.4419 50.1824 69.6496 50.9093 68.0661 50.9093C66.4828 50.9093 65.6911 50.182 64.8995 49.4547C64.1078 48.7273 63.3161 48 61.7327 48C60.1494 48 59.3577 48.7273 58.5661 49.4547C57.7744 50.182 56.9828 50.9093 55.3996 50.9093C53.8164 50.9093 53.0247 50.182 52.2331 49.4546C51.4414 48.7273 50.6498 48 49.0665 48C47.4832 48 46.6916 48.7273 45.8999 49.4546C45.1082 50.1819 44.3165 50.9093 42.7331 50.9093C41.1498 50.9093 40.358 50.182 39.5663 49.4547C38.7745 48.7273 37.9828 48 36.3993 48C34.816 48 34.0243 48.7273 33.2327 49.4547C32.4411 50.182 31.6494 50.9093 30.0662 50.9093C28.4832 50.9093 27.6916 50.182 26.9001 49.4547C26.1085 48.7274 25.3168 48 23.7334 48C22.15 48 21.3582 48.7273 20.5665 49.4546C19.7748 50.182 18.9831 50.9093 17.3996 50.9093C15.8161 50.9093 15.0244 50.182 14.2327 49.4546C13.441 48.7273 12.6492 48 11.0658 48C9.48275 48 8.6912 48.7273 7.89963 49.4546C7.10801 50.1819 6.31635 50.9093 4.73299 50.9093C3.14975 50.9093 2.35754 50.1825 1.56532 49.4556C0.79338 48.7474 0.0214226 48.0391 -1.48239 48.0033C-1.55972 48.9987 -1.6001 50.0045 -1.6001 51.0198C-1.6001 51.7153 -1.5805 52.4063 -1.54354 53.0925C0.00122346 53.1099 0.78347 53.828 1.56574 54.546C2.35774 55.273 3.14976 56 4.73314 56C6.3165 56 7.10816 55.2727 7.89978 54.5454C8.69135 53.8182 9.4829 53.091 11.0659 53.091C12.6494 53.091 13.4411 53.8183 14.2328 54.5455C15.0246 55.2728 15.8163 56 17.3998 56C18.9832 56 19.7749 55.2728 20.5667 54.5455C21.3584 53.8183 22.1501 53.091 23.7336 53.091C25.3169 53.091 26.1086 53.8183 26.9002 54.5456C27.6918 55.2728 28.4833 56 30.0664 56C31.6497 56 32.4414 55.2727 33.233 54.5455C34.0246 53.8182 34.8162 53.091 36.3995 53.091C37.9829 53.091 38.7746 53.8183 39.5664 54.5455C40.3581 55.2728 41.1498 56 42.7333 56C44.3168 56 45.1085 55.2727 45.9002 54.5454C46.6919 53.8182 47.4835 53.091 49.0667 53.091C50.65 53.091 51.4417 53.8183 52.2333 54.5455C53.0249 55.2728 53.8165 56 55.3998 56C56.983 56 57.7746 55.2728 58.5663 54.5455C59.358 53.8183 60.1496 53.091 61.7328 53.091C63.3164 53.091 64.1081 53.8183 64.8998 54.5456C65.6914 55.2728 66.483 56 68.0662 56C69.6497 56 70.4418 55.273 71.2339 54.5461C72.0163 53.828 72.7987 53.1099 74.3438 53.0925C74.3803 52.4061 74.3999 51.7153 74.3999 51.0198C74.3999 50.0045 74.3595 48.9987 74.282 48.0033Z" fill="#F5F7F8"/>
<path d="M71.2341 19.4555C72.0061 18.7472 72.7781 18.039 74.282 18.0033C74.3595 18.9987 74.3999 20.0045 74.3999 21.0198C74.3999 21.7153 74.3803 22.4061 74.3438 23.0925C72.7987 23.1099 72.0163 23.828 71.2339 24.5461C70.4418 25.273 69.6497 26 68.0662 26C66.483 26 65.6914 25.2728 64.8998 24.5456C64.1081 23.8183 63.3164 23.091 61.7328 23.091C60.1496 23.091 59.358 23.8183 58.5663 24.5455C57.7746 25.2728 56.983 26 55.3998 26C53.8165 26 53.0249 25.2728 52.2333 24.5455C51.4417 23.8183 50.65 23.091 49.0667 23.091C47.4835 23.091 46.6919 23.8182 45.9002 24.5454C45.1085 25.2727 44.3168 26 42.7333 26C41.1498 26 40.3581 25.2728 39.5664 24.5455C38.7746 23.8183 37.9829 23.091 36.3995 23.091C34.8162 23.091 34.0246 23.8182 33.233 24.5455C32.4414 25.2727 31.6497 26 30.0664 26C28.4833 26 27.6918 25.2728 26.9002 24.5456C26.1086 23.8183 25.3169 23.091 23.7336 23.091C22.1501 23.091 21.3584 23.8183 20.5667 24.5455C19.7749 25.2728 18.9832 26 17.3998 26C15.8163 26 15.0246 25.2728 14.2328 24.5455C13.4411 23.8183 12.6494 23.091 11.0659 23.091C9.4829 23.091 8.69135 23.8182 7.89978 24.5454C7.10816 25.2727 6.3165 26 4.73314 26C3.14976 26 2.35774 25.273 1.56574 24.546C0.78347 23.828 0.00122346 23.1099 -1.54354 23.0925C-1.5805 22.4063 -1.6001 21.7153 -1.6001 21.0198C-1.6001 20.0045 -1.55972 18.9987 -1.48239 18.0033C0.0214226 18.0391 0.79338 18.7474 1.56532 19.4556C2.35754 20.1825 3.14975 20.9093 4.73299 20.9093C6.31635 20.9093 7.10801 20.1819 7.89963 19.4546C8.6912 18.7273 9.48275 18 11.0658 18C12.6492 18 13.441 18.7273 14.2327 19.4546C15.0244 20.182 15.8161 20.9093 17.3996 20.9093C18.9831 20.9093 19.7748 20.182 20.5665 19.4546C21.3582 18.7273 22.15 18 23.7334 18C25.3168 18 26.1085 18.7274 26.9001 19.4547C27.6916 20.182 28.4832 20.9093 30.0662 20.9093C31.6494 20.9093 32.4411 20.182 33.2327 19.4547C34.0243 18.7273 34.816 18 36.3993 18C37.9828 18 38.7745 18.7273 39.5663 19.4547C40.358 20.182 41.1498 20.9093 42.7331 20.9093C44.3165 20.9093 45.1082 20.1819 45.8999 19.4546C46.6916 18.7273 47.4832 18 49.0665 18C50.6498 18 51.4414 18.7273 52.2331 19.4546C53.0247 20.182 53.8164 20.9093 55.3996 20.9093C56.9828 20.9093 57.7744 20.182 58.5661 19.4547C59.3577 18.7273 60.1494 18 61.7327 18C63.3161 18 64.1078 18.7273 64.8995 19.4547C65.6911 20.182 66.4828 20.9093 68.0661 20.9093C69.6496 20.9093 70.4419 20.1824 71.2341 19.4555Z" fill="#F5F7F8"/>
<path d="M74.282 58.0033C72.7781 58.039 72.0061 58.7472 71.2341 59.4555C70.4419 60.1824 69.6496 60.9093 68.0661 60.9093C66.4828 60.9093 65.6911 60.182 64.8995 59.4547C64.1078 58.7273 63.3161 58 61.7327 58C60.1494 58 59.3577 58.7273 58.5661 59.4547C57.7744 60.182 56.9828 60.9093 55.3996 60.9093C53.8164 60.9093 53.0247 60.182 52.2331 59.4546C51.4414 58.7273 50.6498 58 49.0665 58C47.4832 58 46.6916 58.7273 45.8999 59.4546C45.1082 60.1819 44.3165 60.9093 42.7331 60.9093C41.1498 60.9093 40.358 60.182 39.5663 59.4547C38.7745 58.7273 37.9828 58 36.3993 58C34.816 58 34.0243 58.7273 33.2327 59.4547C32.4411 60.182 31.6494 60.9093 30.0662 60.9093C28.4832 60.9093 27.6916 60.182 26.9001 59.4547C26.1085 58.7274 25.3168 58 23.7334 58C22.15 58 21.3582 58.7273 20.5665 59.4546C19.7748 60.182 18.9831 60.9093 17.3996 60.9093C15.8161 60.9093 15.0244 60.182 14.2327 59.4546C13.441 58.7273 12.6492 58 11.0658 58C9.48275 58 8.6912 58.7273 7.89963 59.4546C7.10801 60.1819 6.31635 60.9093 4.73299 60.9093C3.14975 60.9093 2.35754 60.1825 1.56532 59.4556C0.79338 58.7474 0.0214226 58.0391 -1.48239 58.0033C-1.55972 58.9987 -1.6001 60.0045 -1.6001 61.0198C-1.6001 61.7153 -1.5805 62.4063 -1.54354 63.0925C0.00122346 63.1099 0.78347 63.828 1.56574 64.546C2.35774 65.273 3.14976 66 4.73314 66C6.3165 66 7.10816 65.2727 7.89978 64.5454C8.69135 63.8182 9.4829 63.091 11.0659 63.091C12.6494 63.091 13.4411 63.8183 14.2328 64.5455C15.0246 65.2728 15.8163 66 17.3998 66C18.9832 66 19.7749 65.2728 20.5667 64.5455C21.3584 63.8183 22.1501 63.091 23.7336 63.091C25.3169 63.091 26.1086 63.8183 26.9002 64.5456C27.6918 65.2728 28.4833 66 30.0664 66C31.6497 66 32.4414 65.2727 33.233 64.5455C34.0246 63.8182 34.8162 63.091 36.3995 63.091C37.9829 63.091 38.7746 63.8183 39.5664 64.5455C40.3581 65.2728 41.1498 66 42.7333 66C44.3168 66 45.1085 65.2727 45.9002 64.5454C46.6919 63.8182 47.4835 63.091 49.0667 63.091C50.65 63.091 51.4417 63.8183 52.2333 64.5455C53.0249 65.2728 53.8165 66 55.3998 66C56.983 66 57.7746 65.2728 58.5663 64.5455C59.358 63.8183 60.1496 63.091 61.7328 63.091C63.3164 63.091 64.1081 63.8183 64.8998 64.5456C65.6914 65.2728 66.483 66 68.0662 66C69.6497 66 70.4418 65.273 71.2339 64.5461C72.0163 63.828 72.7987 63.1099 74.3438 63.0925C74.3803 62.4061 74.3999 61.7153 74.3999 61.0198C74.3999 60.0045 74.3595 58.9987 74.282 58.0033Z" fill="#F5F7F8"/>
<path d="M71.2341 29.4555C72.0061 28.7472 72.7781 28.039 74.282 28.0033C74.3595 28.9987 74.3999 30.0045 74.3999 31.0198C74.3999 31.7153 74.3803 32.4061 74.3438 33.0925C72.7987 33.1099 72.0163 33.828 71.2339 34.5461C70.4418 35.273 69.6497 36 68.0662 36C66.483 36 65.6914 35.2728 64.8998 34.5456C64.1081 33.8183 63.3164 33.091 61.7328 33.091C60.1496 33.091 59.358 33.8183 58.5663 34.5455C57.7746 35.2728 56.983 36 55.3998 36C53.8165 36 53.0249 35.2728 52.2333 34.5455C51.4417 33.8183 50.65 33.091 49.0667 33.091C47.4835 33.091 46.6919 33.8182 45.9002 34.5454C45.1085 35.2727 44.3168 36 42.7333 36C41.1498 36 40.3581 35.2728 39.5664 34.5455C38.7746 33.8183 37.9829 33.091 36.3995 33.091C34.8162 33.091 34.0246 33.8182 33.233 34.5455C32.4414 35.2727 31.6497 36 30.0664 36C28.4833 36 27.6918 35.2728 26.9002 34.5456C26.1086 33.8183 25.3169 33.091 23.7336 33.091C22.1501 33.091 21.3584 33.8183 20.5667 34.5455C19.7749 35.2728 18.9832 36 17.3998 36C15.8163 36 15.0246 35.2728 14.2328 34.5455C13.4411 33.8183 12.6494 33.091 11.0659 33.091C9.4829 33.091 8.69135 33.8182 7.89978 34.5454C7.10816 35.2727 6.3165 36 4.73314 36C3.14976 36 2.35774 35.273 1.56574 34.546C0.78347 33.828 0.00122346 33.1099 -1.54354 33.0925C-1.5805 32.4063 -1.6001 31.7153 -1.6001 31.0198C-1.6001 30.0045 -1.55972 28.9987 -1.48239 28.0033C0.0214226 28.0391 0.79338 28.7474 1.56532 29.4556C2.35754 30.1825 3.14975 30.9093 4.73299 30.9093C6.31635 30.9093 7.10801 30.1819 7.89963 29.4546C8.6912 28.7273 9.48275 28 11.0658 28C12.6492 28 13.441 28.7273 14.2327 29.4546C15.0244 30.182 15.8161 30.9093 17.3996 30.9093C18.9831 30.9093 19.7748 30.182 20.5665 29.4546C21.3582 28.7273 22.15 28 23.7334 28C25.3168 28 26.1085 28.7274 26.9001 29.4547C27.6916 30.182 28.4832 30.9093 30.0662 30.9093C31.6494 30.9093 32.4411 30.182 33.2327 29.4547C34.0243 28.7273 34.816 28 36.3993 28C37.9828 28 38.7745 28.7273 39.5663 29.4547C40.358 30.182 41.1498 30.9093 42.7331 30.9093C44.3165 30.9093 45.1082 30.1819 45.8999 29.4546C46.6916 28.7273 47.4832 28 49.0665 28C50.6498 28 51.4414 28.7273 52.2331 29.4546C53.0247 30.182 53.8164 30.9093 55.3996 30.9093C56.9828 30.9093 57.7744 30.182 58.5661 29.4547C59.3577 28.7273 60.1494 28 61.7327 28C63.3161 28 64.1078 28.7273 64.8995 29.4547C65.6911 30.182 66.4828 30.9093 68.0661 30.9093C69.6496 30.9093 70.4419 30.1824 71.2341 29.4555Z" fill="#F5F7F8"/>
<path d="M51 30.0114V33H51.1428V34.5001H53.4287V38.3386C56.0186 38.8029 58 41.0377 58 43.7501C58 45.2161 57.4182 46.5465 56.4763 47.5294V50H51V58H47V50H41.5239V47.5296C40.5819 46.5466 40 45.2162 40 43.7501C40 41.0377 41.9815 38.8028 44.5715 38.3386V34.5001H46.8571V33H47V30.0113L44.4339 32.1221L44.4499 26.1137L38.7834 24.8038L43.3367 21.1L40.7916 15.7164L46.4689 17.0623L49 11.6335L51.531 17.0623L57.2086 15.7164L54.6632 21.1L59.2166 24.8038L53.55 26.1137L53.5659 32.1221L51 30.0114Z" fill="#F5F7F8"/>
<rect x="48" y="26" width="2" height="31" fill="#936846"/>
<path fill-rule="evenodd" clip-rule="evenodd" d="M47.8571 34H50.1429V35.5001L52.4287 35.5001L52.4287 37.7501H50.1429V39.8521C50.8153 39.4692 51.5959 39.2501 52.4286 39.2501C54.9533 39.2501 57 41.2648 57 43.7501C57 45.0828 56.4115 46.2802 55.4763 47.1041V49H42.5239V47.1043C41.5886 46.2803 41 45.0829 41 43.7501C41 41.2648 43.0467 39.2501 45.5714 39.2501C46.4041 39.2501 47.1848 39.4692 47.8571 39.8521V37.7501H45.5715V35.5001L47.8571 35.5001V34ZM49 40.7735L48.9788 40.75H49.0213L49 40.7735ZM48.9789 46.75L49 46.7266L49.0212 46.75H48.9789Z" fill="#F1B434"/>
<path d="M49 14L50.9689 18.2232L55.4156 17.1691L53.4242 21.3812L57 24.2898L52.548 25.3189L52.5603 30L49 27.0714L45.4396 30L45.452 25.3189L41 24.2898L44.5757 21.3812L42.5845 17.1691L47.0309 18.2232L49 14Z" fill="#009B77"/>
<mask id="mask1_38_14270" style="mask-type:alpha" maskUnits="userSpaceOnUse" x="0" y="0" width="36" height="36">
<path d="M0 36V36C-8.69081e-07 16.1177 16.1177 -7.04529e-07 36 -1.57361e-06V-1.57361e-06L36 36L0 36Z" fill="#002F6C"/>
</mask>
<g mask="url(#mask1_38_14270)">
<rect x="-0.000244141" width="36" height="36" fill="#004692"/>
<path d="M12.5223 3.1339L10.401 5.25522L39.927 34.7812L42.0483 32.6599L12.5223 3.1339Z" fill="#F5F7F8"/>
<path d="M6.86549 8.79076L3.32996 12.3263L32.856 41.8523L36.3915 38.3168L6.86549 8.79076Z" fill="#F5F7F8"/>
<path d="M6.86549 8.79076L10.401 5.25522L39.927 34.7812L36.3915 38.3168L6.86549 8.79076Z" fill="#DD2033"/>
<path d="M36 11.9999V16.9999L17 16.9999L17 36H12V11.9999H36Z" fill="#F5F7F8"/>
<path d="M36 -2V3L5 3L5 36H0V-2H36Z" fill="#F5F7F8"/>
<path fill-rule="evenodd" clip-rule="evenodd" d="M3 36H12L12 12L36 12V3H12H3L3 12L3 36Z" fill="#DD2033"/>
</g>
</g>
</svg>
