<svg width="20" height="20" viewBox="0 0 20 20" fill="none" xmlns="http://www.w3.org/2000/svg">
<mask id="mask0_11482_5804" style="mask-type:alpha" maskUnits="userSpaceOnUse" x="0" y="0" width="20" height="20">
<circle cx="10" cy="10" r="10" fill="#D9D9D9"/>
</mask>
<g mask="url(#mask0_11482_5804)">
<rect width="20" height="20" fill="#004692"/>
<path d="M19.7873 2.62648C20.0017 2.42973 20.2161 2.233 20.6339 2.22308C20.6554 2.49958 20.6667 2.77899 20.6667 3.061C20.6667 3.25419 20.6612 3.44609 20.6511 3.63675C20.2219 3.64159 20.0045 3.84106 19.7872 4.04052C19.5672 4.24245 19.3472 4.44439 18.9073 4.44439C18.4675 4.44439 18.2476 4.24239 18.0277 4.04039C17.8078 3.83837 17.5879 3.63634 17.148 3.63634C16.7082 3.63634 16.4883 3.83835 16.2684 4.04036C16.0485 4.24238 15.8286 4.44439 15.3888 4.44439C14.949 4.44439 14.7292 4.24238 14.5093 4.04037C14.2894 3.83836 14.0695 3.63634 13.6296 3.63634C13.1899 3.63634 12.97 3.83834 12.7501 4.04034C12.5302 4.24236 12.3102 4.44439 11.8704 4.44439C11.4305 4.44439 11.2106 4.24238 10.9907 4.04036C10.7707 3.83835 10.5508 3.63634 10.111 3.63634C9.67119 3.63634 9.4513 3.83835 9.2314 4.04036C9.0115 4.24237 8.7916 4.44439 8.35178 4.44439C7.91205 4.44439 7.69218 4.24239 7.4723 4.04039C7.2524 3.83837 7.0325 3.63634 6.59268 3.63634C6.15283 3.63634 5.9329 3.83835 5.71298 4.04036C5.49305 4.24238 5.27313 4.44439 4.83328 4.44439C4.39343 4.44439 4.1735 4.24238 3.95358 4.04036C3.73365 3.83835 3.51373 3.63634 3.07388 3.63634C2.63415 3.63634 2.41428 3.83834 2.1944 4.04034C1.9745 4.24236 1.7546 4.44439 1.31477 4.44439C0.874947 4.44439 0.654941 4.24244 0.434942 4.04051C0.217644 3.84105 0.000353396 3.64159 -0.428748 3.63675C-0.439015 3.44613 -0.444458 3.25419 -0.444458 3.061C-0.444458 2.77899 -0.433243 2.49958 -0.411761 2.22308C0.00596425 2.23304 0.220397 2.42977 0.434825 2.6265C0.654887 2.8284 0.874944 3.0303 1.31473 3.0303C1.75456 3.0303 1.97446 2.82825 2.19436 2.62621C2.41424 2.42419 2.63411 2.22217 3.07384 2.22217C3.51369 2.22217 3.73361 2.4242 3.95354 2.62623C4.17346 2.82827 4.39339 3.0303 4.83324 3.0303C5.27309 3.0303 5.49301 2.82827 5.71293 2.62623C5.93286 2.4242 6.15278 2.22217 6.59263 2.22217C7.03246 2.22217 7.25236 2.42422 7.47226 2.62626C7.69214 2.82828 7.91201 3.0303 8.35174 3.0303C8.79152 3.0303 9.01142 2.82827 9.23131 2.62624C9.45121 2.42421 9.67112 2.22217 10.1109 2.22217C10.5508 2.22217 10.7707 2.42421 10.9907 2.62624C11.2106 2.82827 11.4305 3.0303 11.8703 3.0303C12.3102 3.0303 12.5301 2.82826 12.75 2.62623C12.9699 2.4242 13.1898 2.22217 13.6296 2.22217C14.0694 2.22217 14.2893 2.4242 14.5092 2.62623C14.7291 2.82827 14.949 3.0303 15.3888 3.0303C15.8286 3.0303 16.0485 2.82827 16.2684 2.62624C16.4883 2.42421 16.7082 2.22217 17.148 2.22217C17.5878 2.22217 17.8077 2.42421 18.0276 2.62624C18.2475 2.82827 18.4675 3.0303 18.9073 3.0303C19.3471 3.0303 19.5672 2.82839 19.7873 2.62648Z" fill="#F5F7F8"/>
<path d="M19.7873 10.9598C20.0017 10.7631 20.2161 10.5663 20.6339 10.5564C20.6554 10.8329 20.6667 11.1123 20.6667 11.3943C20.6667 11.5875 20.6612 11.7794 20.6511 11.9701C20.2219 11.9749 20.0045 12.1744 19.7872 12.3739C19.5672 12.5758 19.3472 12.7777 18.9073 12.7777C18.4675 12.7777 18.2476 12.5757 18.0277 12.3737C17.8078 12.1717 17.5879 11.9697 17.148 11.9697C16.7082 11.9697 16.4883 12.1717 16.2684 12.3737C16.0485 12.5757 15.8286 12.7777 15.3888 12.7777C14.949 12.7777 14.7292 12.5757 14.5093 12.3737C14.2894 12.1717 14.0695 11.9697 13.6296 11.9697C13.1899 11.9697 12.97 12.1717 12.7501 12.3737C12.5302 12.5757 12.3102 12.7777 11.8704 12.7777C11.4305 12.7777 11.2106 12.5757 10.9907 12.3737C10.7707 12.1717 10.5508 11.9697 10.111 11.9697C9.67119 11.9697 9.4513 12.1717 9.2314 12.3737C9.0115 12.5757 8.7916 12.7777 8.35178 12.7777C7.91205 12.7777 7.69218 12.5757 7.4723 12.3737C7.2524 12.1717 7.0325 11.9697 6.59268 11.9697C6.15283 11.9697 5.9329 12.1717 5.71298 12.3737C5.49305 12.5757 5.27313 12.7777 4.83328 12.7777C4.39343 12.7777 4.1735 12.5757 3.95358 12.3737C3.73365 12.1717 3.51373 11.9697 3.07388 11.9697C2.63415 11.9697 2.41428 12.1717 2.1944 12.3737C1.9745 12.5757 1.7546 12.7777 1.31477 12.7777C0.874947 12.7777 0.654941 12.5758 0.434942 12.3738C0.217644 12.1744 0.000353396 11.9749 -0.428748 11.9701C-0.439015 11.7795 -0.444458 11.5875 -0.444458 11.3943C-0.444458 11.1123 -0.433243 10.8329 -0.411761 10.5564C0.00596425 10.5664 0.220397 10.7631 0.434825 10.9598C0.654887 11.1617 0.874944 11.3636 1.31473 11.3636C1.75456 11.3636 1.97446 11.1616 2.19436 10.9595C2.41424 10.7575 2.63411 10.5555 3.07384 10.5555C3.51369 10.5555 3.73361 10.7575 3.95354 10.9596C4.17346 11.1616 4.39339 11.3636 4.83324 11.3636C5.27309 11.3636 5.49301 11.1616 5.71293 10.9596C5.93286 10.7575 6.15278 10.5555 6.59263 10.5555C7.03246 10.5555 7.25236 10.7575 7.47226 10.9596C7.69214 11.1616 7.91201 11.3636 8.35174 11.3636C8.79152 11.3636 9.01142 11.1616 9.23131 10.9596C9.45121 10.7575 9.67112 10.5555 10.1109 10.5555C10.5508 10.5555 10.7707 10.7575 10.9907 10.9596C11.2106 11.1616 11.4305 11.3636 11.8703 11.3636C12.3102 11.3636 12.5301 11.1616 12.75 10.9596C12.9699 10.7575 13.1898 10.5555 13.6296 10.5555C14.0694 10.5555 14.2893 10.7575 14.5092 10.9596C14.7291 11.1616 14.949 11.3636 15.3888 11.3636C15.8286 11.3636 16.0485 11.1616 16.2684 10.9596C16.4883 10.7575 16.7082 10.5555 17.148 10.5555C17.5878 10.5555 17.8077 10.7575 18.0276 10.9596C18.2475 11.1616 18.4675 11.3636 18.9073 11.3636C19.3471 11.3636 19.5672 11.1617 19.7873 10.9598Z" fill="#F5F7F8"/>
<path d="M20.6339 13.3342C20.2161 13.3441 20.0017 13.5408 19.7873 13.7376C19.5672 13.9395 19.3471 14.1414 18.9073 14.1414C18.4675 14.1414 18.2475 13.9394 18.0276 13.7374C17.8077 13.5353 17.5878 13.3333 17.148 13.3333C16.7082 13.3333 16.4883 13.5353 16.2684 13.7374C16.0485 13.9394 15.8286 14.1414 15.3888 14.1414C14.949 14.1414 14.7291 13.9394 14.5092 13.7373C14.2893 13.5353 14.0694 13.3333 13.6296 13.3333C13.1898 13.3333 12.9699 13.5353 12.75 13.7373C12.5301 13.9394 12.3102 14.1414 11.8703 14.1414C11.4305 14.1414 11.2106 13.9394 10.9907 13.7374C10.7707 13.5353 10.5508 13.3333 10.1109 13.3333C9.67112 13.3333 9.45121 13.5353 9.23131 13.7374C9.01142 13.9394 8.79152 14.1414 8.35174 14.1414C7.91201 14.1414 7.69214 13.9394 7.47226 13.7374C7.25236 13.5353 7.03246 13.3333 6.59263 13.3333C6.15278 13.3333 5.93286 13.5353 5.71293 13.7373C5.49301 13.9394 5.27309 14.1414 4.83324 14.1414C4.39339 14.1414 4.17346 13.9394 3.95354 13.7373C3.73361 13.5353 3.51369 13.3333 3.07384 13.3333C2.63411 13.3333 2.41424 13.5353 2.19436 13.7373C1.97446 13.9394 1.75456 14.1414 1.31473 14.1414C0.874944 14.1414 0.654887 13.9395 0.434825 13.7376C0.220397 13.5409 0.00596425 13.3441 -0.411761 13.3342C-0.433243 13.6107 -0.444458 13.8901 -0.444458 14.1721C-0.444458 14.3653 -0.439015 14.5572 -0.428748 14.7479C0.000353396 14.7527 0.217644 14.9522 0.434942 15.1516C0.654941 15.3536 0.874947 15.5555 1.31477 15.5555C1.7546 15.5555 1.9745 15.3535 2.1944 15.1515C2.41428 14.9494 2.63415 14.7474 3.07388 14.7474C3.51373 14.7474 3.73365 14.9495 3.95358 15.1515C4.1735 15.3535 4.39343 15.5555 4.83328 15.5555C5.27313 15.5555 5.49305 15.3535 5.71298 15.1515C5.9329 14.9495 6.15283 14.7474 6.59268 14.7474C7.0325 14.7474 7.2524 14.9495 7.4723 15.1515C7.69218 15.3535 7.91205 15.5555 8.35178 15.5555C8.7916 15.5555 9.0115 15.3535 9.2314 15.1515C9.4513 14.9495 9.67119 14.7474 10.111 14.7474C10.5508 14.7474 10.7707 14.9495 10.9907 15.1515C11.2106 15.3535 11.4305 15.5555 11.8704 15.5555C12.3102 15.5555 12.5302 15.3535 12.7501 15.1515C12.97 14.9494 13.1899 14.7474 13.6296 14.7474C14.0695 14.7474 14.2894 14.9495 14.5093 15.1515C14.7292 15.3535 14.949 15.5555 15.3888 15.5555C15.8286 15.5555 16.0485 15.3535 16.2684 15.1515C16.4883 14.9495 16.7082 14.7474 17.148 14.7474C17.5879 14.7474 17.8078 14.9495 18.0277 15.1515C18.2476 15.3535 18.4675 15.5555 18.9073 15.5555C19.3472 15.5555 19.5672 15.3536 19.7872 15.1516C20.0045 14.9522 20.2219 14.7527 20.6511 14.7479C20.6612 14.5572 20.6667 14.3653 20.6667 14.1721C20.6667 13.8901 20.6554 13.6107 20.6339 13.3342Z" fill="#F5F7F8"/>
<path d="M19.7873 5.40425C20.0017 5.20751 20.2161 5.01077 20.6339 5.00086C20.6554 5.27736 20.6667 5.55676 20.6667 5.83878C20.6667 6.03197 20.6612 6.22387 20.6511 6.41453C20.2219 6.41937 20.0045 6.61883 19.7872 6.8183C19.5672 7.02023 19.3472 7.22217 18.9073 7.22217C18.4675 7.22217 18.2476 7.02017 18.0277 6.81816C17.8078 6.61614 17.5879 6.41412 17.148 6.41412C16.7082 6.41412 16.4883 6.61613 16.2684 6.81814C16.0485 7.02015 15.8286 7.22217 15.3888 7.22217C14.949 7.22217 14.7292 7.02016 14.5093 6.81815C14.2894 6.61613 14.0695 6.41412 13.6296 6.41412C13.1899 6.41412 12.97 6.61612 12.7501 6.81812C12.5302 7.02014 12.3102 7.22217 11.8704 7.22217C11.4305 7.22217 11.2106 7.02015 10.9907 6.81814C10.7707 6.61613 10.5508 6.41412 10.111 6.41412C9.67119 6.41412 9.4513 6.61612 9.2314 6.81814C9.0115 7.02015 8.7916 7.22217 8.35178 7.22217C7.91205 7.22217 7.69218 7.02017 7.4723 6.81816C7.2524 6.61614 7.0325 6.41412 6.59268 6.41412C6.15283 6.41412 5.9329 6.61613 5.71298 6.81814C5.49305 7.02015 5.27313 7.22217 4.83328 7.22217C4.39343 7.22217 4.1735 7.02015 3.95358 6.81814C3.73365 6.61613 3.51373 6.41412 3.07388 6.41412C2.63415 6.41412 2.41428 6.61612 2.1944 6.81812C1.9745 7.02014 1.7546 7.22217 1.31477 7.22217C0.874947 7.22217 0.654941 7.02022 0.434942 6.81828C0.217644 6.61882 0.000353396 6.41937 -0.428748 6.41453C-0.439015 6.22391 -0.444458 6.03197 -0.444458 5.83878C-0.444458 5.55676 -0.433243 5.27736 -0.411761 5.00086C0.00596425 5.01081 0.220397 5.20755 0.434825 5.40428C0.654887 5.60618 0.874944 5.80808 1.31473 5.80808C1.75456 5.80808 1.97446 5.60603 2.19436 5.40399C2.41424 5.20196 2.63411 4.99995 3.07384 4.99995C3.51369 4.99995 3.73361 5.20198 3.95354 5.40401C4.17346 5.60605 4.39339 5.80808 4.83324 5.80808C5.27309 5.80808 5.49301 5.60605 5.71293 5.40401C5.93286 5.20198 6.15278 4.99995 6.59263 4.99995C7.03246 4.99995 7.25236 5.20199 7.47226 5.40403C7.69214 5.60606 7.91201 5.80808 8.35174 5.80808C8.79152 5.80808 9.01142 5.60605 9.23131 5.40402C9.45121 5.20198 9.67112 4.99995 10.1109 4.99995C10.5508 4.99995 10.7707 5.20198 10.9907 5.40402C11.2106 5.60605 11.4305 5.80808 11.8703 5.80808C12.3102 5.80808 12.5301 5.60604 12.75 5.40401C12.9699 5.20197 13.1898 4.99995 13.6296 4.99995C14.0694 4.99995 14.2893 5.20198 14.5092 5.40401C14.7291 5.60605 14.949 5.80808 15.3888 5.80808C15.8286 5.80808 16.0485 5.60605 16.2684 5.40402C16.4883 5.20198 16.7082 4.99995 17.148 4.99995C17.5878 4.99995 17.8077 5.20198 18.0276 5.40402C18.2475 5.60605 18.4675 5.80808 18.9073 5.80808C19.3471 5.80808 19.5672 5.60616 19.7873 5.40425Z" fill="#F5F7F8"/>
<path d="M20.6339 16.112C20.2161 16.1219 20.0017 16.3186 19.7873 16.5154C19.5672 16.7173 19.3471 16.9192 18.9073 16.9192C18.4675 16.9192 18.2475 16.7172 18.0276 16.5151C17.8077 16.3131 17.5878 16.1111 17.148 16.1111C16.7082 16.1111 16.4883 16.3131 16.2684 16.5151C16.0485 16.7172 15.8286 16.9192 15.3888 16.9192C14.949 16.9192 14.7291 16.7172 14.5092 16.5151C14.2893 16.3131 14.0694 16.1111 13.6296 16.1111C13.1898 16.1111 12.9699 16.3131 12.75 16.5151C12.5301 16.7172 12.3102 16.9192 11.8703 16.9192C11.4305 16.9192 11.2106 16.7172 10.9907 16.5151C10.7707 16.3131 10.5508 16.1111 10.1109 16.1111C9.67112 16.1111 9.45121 16.3131 9.23131 16.5151C9.01142 16.7172 8.79152 16.9192 8.35174 16.9192C7.91201 16.9192 7.69214 16.7172 7.47226 16.5151C7.25236 16.3131 7.03246 16.1111 6.59263 16.1111C6.15278 16.1111 5.93286 16.3131 5.71293 16.5151C5.49301 16.7172 5.27309 16.9192 4.83324 16.9192C4.39339 16.9192 4.17346 16.7172 3.95354 16.5151C3.73361 16.3131 3.51369 16.1111 3.07384 16.1111C2.63411 16.1111 2.41424 16.3131 2.19436 16.5151C1.97446 16.7171 1.75456 16.9192 1.31473 16.9192C0.874944 16.9192 0.654887 16.7173 0.434825 16.5154C0.220397 16.3187 0.00596425 16.1219 -0.411761 16.112C-0.433243 16.3885 -0.444458 16.6679 -0.444458 16.9499C-0.444458 17.1431 -0.439015 17.335 -0.428748 17.5256C0.000353396 17.5305 0.217644 17.7299 0.434942 17.9294C0.654941 18.1313 0.874947 18.3333 1.31477 18.3333C1.7546 18.3333 1.9745 18.1313 2.1944 17.9292C2.41428 17.7272 2.63415 17.5252 3.07388 17.5252C3.51373 17.5252 3.73365 17.7272 3.95358 17.9293C4.1735 18.1313 4.39343 18.3333 4.83328 18.3333C5.27313 18.3333 5.49305 18.1313 5.71298 17.9293C5.9329 17.7272 6.15283 17.5252 6.59268 17.5252C7.0325 17.5252 7.2524 17.7273 7.4723 17.9293C7.69218 18.1313 7.91205 18.3333 8.35178 18.3333C8.7916 18.3333 9.0115 18.1313 9.2314 17.9292C9.4513 17.7272 9.67119 17.5252 10.111 17.5252C10.5508 17.5252 10.7707 17.7272 10.9907 17.9293C11.2106 18.1313 11.4305 18.3333 11.8704 18.3333C12.3102 18.3333 12.5302 18.1313 12.7501 17.9292C12.97 17.7272 13.1899 17.5252 13.6296 17.5252C14.0695 17.5252 14.2894 17.7272 14.5093 17.9293C14.7292 18.1313 14.949 18.3333 15.3888 18.3333C15.8286 18.3333 16.0485 18.1313 16.2684 17.9293C16.4883 17.7272 16.7082 17.5252 17.148 17.5252C17.5879 17.5252 17.8078 17.7273 18.0277 17.9293C18.2476 18.1313 18.4675 18.3333 18.9073 18.3333C19.3472 18.3333 19.5672 18.1313 19.7872 17.9294C20.0045 17.7299 20.2219 17.5305 20.6511 17.5256C20.6612 17.335 20.6667 17.1431 20.6667 16.9499C20.6667 16.6679 20.6554 16.3885 20.6339 16.112Z" fill="#F5F7F8"/>
<path d="M19.7873 8.18203C20.0017 7.98529 20.2161 7.78855 20.6339 7.77863C20.6554 8.05514 20.6667 8.33454 20.6667 8.61656C20.6667 8.80974 20.6612 9.00165 20.6511 9.19231C20.2219 9.19715 20.0045 9.39661 19.7872 9.59608C19.5672 9.79801 19.3472 9.99995 18.9073 9.99995C18.4675 9.99995 18.2476 9.79795 18.0277 9.59594C17.8078 9.39392 17.5879 9.19189 17.148 9.19189C16.7082 9.19189 16.4883 9.39391 16.2684 9.59592C16.0485 9.79793 15.8286 9.99995 15.3888 9.99995C14.949 9.99995 14.7292 9.79794 14.5093 9.59593C14.2894 9.39391 14.0695 9.19189 13.6296 9.19189C13.1899 9.19189 12.97 9.39389 12.7501 9.5959C12.5302 9.79792 12.3102 9.99995 11.8704 9.99995C11.4305 9.99995 11.2106 9.79793 10.9907 9.59592C10.7707 9.39391 10.5508 9.19189 10.111 9.19189C9.67119 9.19189 9.4513 9.3939 9.2314 9.59591C9.0115 9.79793 8.7916 9.99995 8.35178 9.99995C7.91205 9.99995 7.69218 9.79795 7.4723 9.59594C7.2524 9.39392 7.0325 9.19189 6.59268 9.19189C6.15283 9.19189 5.9329 9.39391 5.71298 9.59592C5.49305 9.79793 5.27313 9.99995 4.83328 9.99995C4.39343 9.99995 4.1735 9.79793 3.95358 9.59592C3.73365 9.39391 3.51373 9.19189 3.07388 9.19189C2.63415 9.19189 2.41428 9.39389 2.1944 9.5959C1.9745 9.79792 1.7546 9.99995 1.31477 9.99995C0.874947 9.99995 0.654941 9.798 0.434942 9.59606C0.217644 9.3966 0.000353396 9.19715 -0.428748 9.19231C-0.439015 9.00169 -0.444458 8.80974 -0.444458 8.61656C-0.444458 8.33454 -0.433243 8.05514 -0.411761 7.77863C0.00596425 7.78859 0.220397 7.98533 0.434825 8.18206C0.654887 8.38396 0.874944 8.58586 1.31473 8.58586C1.75456 8.58586 1.97446 8.38381 2.19436 8.18177C2.41424 7.97974 2.63411 7.77772 3.07384 7.77772C3.51369 7.77772 3.73361 7.97976 3.95354 8.18179C4.17346 8.38382 4.39339 8.58586 4.83324 8.58586C5.27309 8.58586 5.49301 8.38382 5.71293 8.18179C5.93286 7.97976 6.15278 7.77772 6.59263 7.77772C7.03246 7.77772 7.25236 7.97977 7.47226 8.18181C7.69214 8.38384 7.91201 8.58586 8.35174 8.58586C8.79152 8.58586 9.01142 8.38383 9.23131 8.1818C9.45121 7.97976 9.67112 7.77772 10.1109 7.77772C10.5508 7.77772 10.7707 7.97976 10.9907 8.1818C11.2106 8.38383 11.4305 8.58586 11.8703 8.58586C12.3102 8.58586 12.5301 8.38382 12.75 8.18178C12.9699 7.97975 13.1898 7.77772 13.6296 7.77772C14.0694 7.77772 14.2893 7.97976 14.5092 8.18179C14.7291 8.38382 14.949 8.58586 15.3888 8.58586C15.8286 8.58586 16.0485 8.38383 16.2684 8.1818C16.4883 7.97976 16.7082 7.77772 17.148 7.77772C17.5878 7.77772 17.8077 7.97976 18.0276 8.1818C18.2475 8.38383 18.4675 8.58586 18.9073 8.58586C19.3471 8.58586 19.5672 8.38394 19.7873 8.18203Z" fill="#F5F7F8"/>
<path d="M14.1667 8.33654V9.16672H14.2063V9.5834H14.8413V10.6497C15.5607 10.7786 16.1111 11.3994 16.1111 12.1528C16.1111 12.5601 15.9495 12.9296 15.6879 13.2027V13.8889H14.1667V16.1112H13.0555V13.8889H11.5344V13.2027C11.2727 12.9297 11.1111 12.5601 11.1111 12.1528C11.1111 11.3994 11.6615 10.7786 12.381 10.6497V9.5834H13.0159V9.16672H13.0555V8.33652L12.3427 8.92284L12.3472 7.25384L10.7732 6.88999L12.038 5.86115L11.331 4.3657L12.908 4.73957L13.6111 3.23157L14.3142 4.73957L15.8913 4.3657L15.1842 5.86116L16.4491 6.88999L14.875 7.25384L14.8794 8.92284L14.1667 8.33654Z" fill="#F5F7F8"/>
<rect x="13.3333" y="7.22217" width="0.555556" height="8.61111" fill="#936846"/>
<path fill-rule="evenodd" clip-rule="evenodd" d="M13.2936 9.44446H13.9286V9.86114L14.5635 9.86114L14.5635 10.4861H13.9286V11.07C14.1153 10.9637 14.3322 10.9028 14.5635 10.9028C15.2648 10.9028 15.8333 11.4625 15.8333 12.1528C15.8333 12.523 15.6699 12.8556 15.4101 13.0845V13.6111H11.8122V13.0845C11.5524 12.8557 11.3889 12.523 11.3889 12.1528C11.3889 11.4625 11.9574 10.9028 12.6587 10.9028C12.89 10.9028 13.1069 10.9637 13.2936 11.07V10.4861H12.6588V9.86114L13.2936 9.86114V9.44446ZM13.6111 11.326L13.6052 11.3195H13.617L13.6111 11.326ZM13.6052 12.9861L13.6111 12.9796L13.617 12.9861H13.6052Z" fill="#F1B434"/>
<path d="M13.6111 3.88892L14.158 5.06204L15.3932 4.76923L14.84 5.93924L15.8333 6.74719L14.5967 7.03306L14.6001 8.33336L13.6111 7.51985L12.6221 8.33336L12.6256 7.03306L11.3889 6.74719L12.3821 5.93924L11.829 4.76923L13.0641 5.06204L13.6111 3.88892Z" fill="#009B77"/>
<mask id="mask1_11482_5804" style="mask-type:alpha" maskUnits="userSpaceOnUse" x="0" y="0" width="10" height="10">
<path d="M0 10C-8.69081e-07 4.47715 4.47715 -5.43618e-08 10 -1.21421e-07L10 10L0 10Z" fill="#002F6C"/>
</mask>
<g mask="url(#mask1_11482_5804)">
<rect x="-0.000244141" width="10" height="10" fill="#004692"/>
<path d="M3.47843 0.870508L2.88917 1.45976L11.0908 9.66143L11.6801 9.07217L3.47843 0.870508Z" fill="#F5F7F8"/>
<path d="M1.90708 2.44186L0.924989 3.42395L9.12665 11.6256L10.1087 10.6435L1.90708 2.44186Z" fill="#F5F7F8"/>
<path d="M1.90708 2.44186L2.88917 1.45976L11.0908 9.66143L10.1087 10.6435L1.90708 2.44186Z" fill="#DD2033"/>
<path d="M9.99998 3.33337V4.72226L4.7222 4.72226L4.7222 10H3.33331V3.33337H9.99998Z" fill="#F5F7F8"/>
<path d="M10 -0.555542V0.833347L1.38889 0.833346L1.38889 10H0V-0.555542H10Z" fill="#F5F7F8"/>
<path fill-rule="evenodd" clip-rule="evenodd" d="M0.833313 10H3.33331L3.33331 3.33337L9.99998 3.33337V0.833374H3.33331H0.833314L0.833314 3.33337L0.833313 10Z" fill="#DD2033"/>
</g>
</g>
</svg>
