<svg width="29" height="20" viewBox="0 0 29 20" fill="none" xmlns="http://www.w3.org/2000/svg">
<mask id="mask0_11482_5820" style="mask-type:alpha" maskUnits="userSpaceOnUse" x="0" y="0" width="29" height="20">
<rect width="29" height="20" fill="#D9D9D9"/>
</mask>
<g mask="url(#mask0_11482_5820)">
<rect width="29" height="20" fill="#004692"/>
<path d="M28.6915 -1.01777C29.0025 -1.30108 29.3134 -1.58438 29.9192 -1.59866C29.9504 -1.2005 29.9666 -0.798156 29.9666 -0.392056C29.9666 -0.113865 29.9587 0.162477 29.944 0.437029C29.3217 0.443995 29.0066 0.731222 28.6914 1.01845C28.3724 1.30924 28.0534 1.60002 27.4156 1.60002C26.7779 1.60002 26.4591 1.30915 26.1402 1.01826C25.8213 0.72735 25.5024 0.436431 24.8646 0.436431C24.2269 0.436431 23.9081 0.72733 23.5892 1.01823C23.2704 1.30913 22.9515 1.60002 22.3138 1.60002C21.6761 1.60002 21.3573 1.30913 21.0384 1.01824C20.7196 0.727337 20.4007 0.436431 19.763 0.436431C19.1253 0.436431 18.8065 0.727309 18.4876 1.0182C18.1687 1.30911 17.8498 1.60002 17.212 1.60002C16.5742 1.60002 16.2554 1.30913 15.9365 1.01823C15.6176 0.72733 15.2987 0.436431 14.6609 0.436431C14.0232 0.436431 13.7044 0.727323 13.3855 1.01822C13.0667 1.30912 12.7478 1.60002 12.1101 1.60002C11.4725 1.60002 11.1537 1.30915 10.8348 1.01826C10.516 0.72735 10.1971 0.436431 9.55937 0.436431C8.92159 0.436431 8.6027 0.72733 8.28381 1.01823C7.96492 1.30913 7.64603 1.60002 7.00825 1.60002C6.37047 1.60002 6.05157 1.30913 5.73268 1.01823C5.41379 0.727329 5.0949 0.436431 4.45712 0.436431C3.81951 0.436431 3.5007 0.727309 3.18187 1.0182C2.86302 1.30911 2.54416 1.60002 1.90642 1.60002C1.26867 1.60002 0.949658 1.30922 0.630661 1.01843C0.315578 0.731208 0.000506341 0.443995 -0.621691 0.437029C-0.636578 0.162537 -0.64447 -0.113865 -0.64447 -0.392056C-0.64447 -0.798156 -0.628208 -1.2005 -0.597059 -1.59866C0.00864208 -1.58433 0.319569 -1.30103 0.630491 -1.01773C0.94958 -0.726994 1.26866 -0.436263 1.90636 -0.436263C2.5441 -0.436263 2.86296 -0.727212 3.18181 -1.01815C3.50064 -1.30907 3.81945 -1.59998 4.45706 -1.59998C5.09484 -1.59998 5.41373 -1.30905 5.73263 -1.01812C6.05152 -0.727191 6.37041 -0.436263 7.00819 -0.436263C7.64597 -0.436263 7.96486 -0.727191 8.28375 -1.01812C8.60264 -1.30905 8.92153 -1.59998 9.55931 -1.59998C10.1971 -1.59998 10.5159 -1.30903 10.8348 -1.01809C11.1536 -0.727171 11.4724 -0.436263 12.11 -0.436263C12.7477 -0.436263 13.0665 -0.727185 13.3854 -1.01811C13.7043 -1.30904 14.0231 -1.59998 14.6608 -1.59998C15.2986 -1.59998 15.6175 -1.30904 15.9364 -1.01811C16.2553 -0.727184 16.5742 -0.436263 17.212 -0.436263C17.8497 -0.436263 18.1686 -0.727198 18.4875 -1.01813C18.8063 -1.30905 19.1252 -1.59998 19.7629 -1.59998C20.4006 -1.59998 20.7195 -1.30905 21.0383 -1.01812C21.3572 -0.727191 21.6761 -0.436263 22.3137 -0.436263C22.9514 -0.436263 23.2703 -0.727184 23.5891 -1.01811C23.908 -1.30904 24.2268 -1.59998 24.8646 -1.59998C25.5023 -1.59998 25.8212 -1.30904 26.1401 -1.01811C26.4589 -0.727184 26.7778 -0.436263 27.4155 -0.436263C28.0533 -0.436263 28.3724 -0.727022 28.6915 -1.01777Z" fill="#F5F7F8"/>
<path d="M28.6915 10.9822C29.0025 10.6989 29.3134 10.4156 29.9192 10.4013C29.9504 10.7995 29.9666 11.2018 29.9666 11.6079C29.9666 11.8861 29.9587 12.1625 29.944 12.437C29.3217 12.444 29.0066 12.7312 28.6914 13.0185C28.3724 13.3092 28.0534 13.6 27.4156 13.6C26.7779 13.6 26.4591 13.3091 26.1402 13.0183C25.8213 12.7274 25.5024 12.4364 24.8646 12.4364C24.2269 12.4364 23.9081 12.7273 23.5892 13.0182C23.2704 13.3091 22.9515 13.6 22.3138 13.6C21.6761 13.6 21.3573 13.3091 21.0384 13.0182C20.7196 12.7273 20.4007 12.4364 19.763 12.4364C19.1253 12.4364 18.8065 12.7273 18.4876 13.0182C18.1687 13.3091 17.8498 13.6 17.212 13.6C16.5742 13.6 16.2554 13.3091 15.9365 13.0182C15.6176 12.7273 15.2987 12.4364 14.6609 12.4364C14.0232 12.4364 13.7044 12.7273 13.3855 13.0182C13.0667 13.3091 12.7478 13.6 12.1101 13.6C11.4725 13.6 11.1537 13.3091 10.8348 13.0183C10.516 12.7274 10.1971 12.4364 9.55937 12.4364C8.92159 12.4364 8.6027 12.7273 8.28381 13.0182C7.96492 13.3091 7.64603 13.6 7.00825 13.6C6.37047 13.6 6.05157 13.3091 5.73268 13.0182C5.41379 12.7273 5.0949 12.4364 4.45712 12.4364C3.81951 12.4364 3.5007 12.7273 3.18187 13.0182C2.86302 13.3091 2.54416 13.6 1.90642 13.6C1.26867 13.6 0.949658 13.3092 0.630661 13.0184C0.315578 12.7312 0.000506341 12.444 -0.621691 12.437C-0.636578 12.1625 -0.64447 11.8861 -0.64447 11.6079C-0.64447 11.2018 -0.628208 10.7995 -0.597059 10.4013C0.00864208 10.4157 0.319569 10.699 0.630491 10.9823C0.94958 11.273 1.26866 11.5637 1.90636 11.5637C2.5441 11.5637 2.86296 11.2728 3.18181 10.9819C3.50064 10.6909 3.81945 10.4 4.45706 10.4C5.09484 10.4 5.41373 10.691 5.73263 10.9819C6.05152 11.2728 6.37041 11.5637 7.00819 11.5637C7.64597 11.5637 7.96486 11.2728 8.28375 10.9819C8.60264 10.691 8.92153 10.4 9.55931 10.4C10.1971 10.4 10.5159 10.691 10.8348 10.9819C11.1536 11.2728 11.4724 11.5637 12.11 11.5637C12.7477 11.5637 13.0665 11.2728 13.3854 10.9819C13.7043 10.691 14.0231 10.4 14.6608 10.4C15.2986 10.4 15.6175 10.691 15.9364 10.9819C16.2553 11.2728 16.5742 11.5637 17.212 11.5637C17.8497 11.5637 18.1686 11.2728 18.4875 10.9819C18.8063 10.6909 19.1252 10.4 19.7629 10.4C20.4006 10.4 20.7195 10.691 21.0383 10.9819C21.3572 11.2728 21.6761 11.5637 22.3137 11.5637C22.9514 11.5637 23.2703 11.2728 23.5891 10.9819C23.908 10.691 24.2268 10.4 24.8646 10.4C25.5023 10.4 25.8212 10.691 26.1401 10.9819C26.4589 11.2728 26.7778 11.5637 27.4155 11.5637C28.0533 11.5637 28.3724 11.273 28.6915 10.9822Z" fill="#F5F7F8"/>
<path d="M29.9192 14.4013C29.3134 14.4156 29.0025 14.6989 28.6915 14.9822C28.3724 15.273 28.0533 15.5637 27.4155 15.5637C26.7778 15.5637 26.4589 15.2728 26.1401 14.9819C25.8212 14.691 25.5023 14.4 24.8646 14.4C24.2268 14.4 23.908 14.691 23.5891 14.9819C23.2703 15.2728 22.9514 15.5637 22.3137 15.5637C21.6761 15.5637 21.3572 15.2728 21.0383 14.9819C20.7195 14.691 20.4006 14.4 19.7629 14.4C19.1252 14.4 18.8063 14.6909 18.4875 14.9819C18.1686 15.2728 17.8497 15.5637 17.212 15.5637C16.5742 15.5637 16.2553 15.2728 15.9364 14.9819C15.6175 14.691 15.2986 14.4 14.6608 14.4C14.0231 14.4 13.7043 14.691 13.3854 14.9819C13.0665 15.2728 12.7477 15.5637 12.11 15.5637C11.4724 15.5637 11.1536 15.2728 10.8348 14.9819C10.5159 14.691 10.1971 14.4 9.55931 14.4C8.92153 14.4 8.60264 14.691 8.28375 14.9819C7.96486 15.2728 7.64597 15.5637 7.00819 15.5637C6.37041 15.5637 6.05152 15.2728 5.73263 14.9819C5.41373 14.691 5.09484 14.4 4.45706 14.4C3.81945 14.4 3.50064 14.6909 3.18181 14.9818C2.86296 15.2728 2.5441 15.5637 1.90636 15.5637C1.26866 15.5637 0.94958 15.273 0.630491 14.9823C0.319569 14.699 0.00864208 14.4157 -0.597059 14.4013C-0.628208 14.7995 -0.64447 15.2018 -0.64447 15.6079C-0.64447 15.8861 -0.636578 16.1625 -0.621691 16.437C0.000506341 16.444 0.315578 16.7312 0.630661 17.0184C0.949658 17.3092 1.26867 17.6 1.90642 17.6C2.54416 17.6 2.86302 17.3091 3.18187 17.0182C3.5007 16.7273 3.81951 16.4364 4.45712 16.4364C5.0949 16.4364 5.41379 16.7273 5.73268 17.0182C6.05157 17.3091 6.37047 17.6 7.00825 17.6C7.64603 17.6 7.96492 17.3091 8.28381 17.0182C8.6027 16.7273 8.92159 16.4364 9.55937 16.4364C10.1971 16.4364 10.516 16.7274 10.8348 17.0183C11.1537 17.3091 11.4725 17.6 12.1101 17.6C12.7478 17.6 13.0667 17.3091 13.3855 17.0182C13.7044 16.7273 14.0232 16.4364 14.6609 16.4364C15.2987 16.4364 15.6176 16.7273 15.9365 17.0182C16.2554 17.3091 16.5742 17.6 17.212 17.6C17.8498 17.6 18.1687 17.3091 18.4876 17.0182C18.8065 16.7273 19.1253 16.4364 19.763 16.4364C20.4007 16.4364 20.7196 16.7273 21.0384 17.0182C21.3573 17.3091 21.6761 17.6 22.3138 17.6C22.9515 17.6 23.2704 17.3091 23.5892 17.0182C23.9081 16.7273 24.2269 16.4364 24.8646 16.4364C25.5024 16.4364 25.8213 16.7274 26.1402 17.0183C26.4591 17.3091 26.7779 17.6 27.4156 17.6C28.0534 17.6 28.3724 17.3092 28.6914 17.0185C29.0066 16.7312 29.3217 16.444 29.944 16.437C29.9587 16.1625 29.9666 15.8861 29.9666 15.6079C29.9666 15.2018 29.9504 14.7995 29.9192 14.4013Z" fill="#F5F7F8"/>
<path d="M28.6915 2.98223C29.0025 2.69892 29.3134 2.41562 29.9192 2.40134C29.9504 2.7995 29.9666 3.20184 29.9666 3.60794C29.9666 3.88614 29.9587 4.16248 29.944 4.43703C29.3217 4.444 29.0066 4.73122 28.6914 5.01845C28.3724 5.30924 28.0534 5.60002 27.4156 5.60002C26.7779 5.60002 26.4591 5.30915 26.1402 5.01826C25.8213 4.72735 25.5024 4.43643 24.8646 4.43643C24.2269 4.43643 23.9081 4.72733 23.5892 5.01823C23.2704 5.30913 22.9515 5.60002 22.3138 5.60002C21.6761 5.60002 21.3573 5.30913 21.0384 5.01824C20.7196 4.72734 20.4007 4.43643 19.763 4.43643C19.1253 4.43643 18.8065 4.72731 18.4876 5.0182C18.1687 5.30911 17.8498 5.60002 17.212 5.60002C16.5742 5.60002 16.2554 5.30913 15.9365 5.01823C15.6176 4.72733 15.2987 4.43643 14.6609 4.43643C14.0232 4.43643 13.7044 4.72732 13.3855 5.01822C13.0667 5.30912 12.7478 5.60002 12.1101 5.60002C11.4725 5.60002 11.1537 5.30915 10.8348 5.01826C10.516 4.72735 10.1971 4.43643 9.55937 4.43643C8.92159 4.43643 8.6027 4.72733 8.28381 5.01823C7.96492 5.30913 7.64603 5.60002 7.00825 5.60002C6.37047 5.60002 6.05157 5.30913 5.73268 5.01823C5.41379 4.72733 5.0949 4.43643 4.45712 4.43643C3.81951 4.43643 3.5007 4.72731 3.18187 5.0182C2.86302 5.30911 2.54416 5.60002 1.90642 5.60002C1.26867 5.60002 0.949658 5.30922 0.630661 5.01843C0.315578 4.73121 0.000506341 4.444 -0.621691 4.43703C-0.636578 4.16254 -0.64447 3.88614 -0.64447 3.60794C-0.64447 3.20184 -0.628208 2.7995 -0.597059 2.40134C0.00864208 2.41568 0.319569 2.69897 0.630491 2.98227C0.94958 3.27301 1.26866 3.56374 1.90636 3.56374C2.5441 3.56374 2.86296 3.27279 3.18181 2.98185C3.50064 2.69093 3.81945 2.40002 4.45706 2.40002C5.09484 2.40002 5.41373 2.69095 5.73263 2.98188C6.05152 3.27281 6.37041 3.56374 7.00819 3.56374C7.64597 3.56374 7.96486 3.27281 8.28375 2.98188C8.60264 2.69095 8.92153 2.40002 9.55931 2.40002C10.1971 2.40002 10.5159 2.69097 10.8348 2.98191C11.1536 3.27283 11.4724 3.56374 12.11 3.56374C12.7477 3.56374 13.0665 3.27282 13.3854 2.98189C13.7043 2.69096 14.0231 2.40002 14.6608 2.40002C15.2986 2.40002 15.6175 2.69096 15.9364 2.98189C16.2553 3.27282 16.5742 3.56374 17.212 3.56374C17.8497 3.56374 18.1686 3.2728 18.4875 2.98187C18.8063 2.69095 19.1252 2.40002 19.7629 2.40002C20.4006 2.40002 20.7195 2.69095 21.0383 2.98188C21.3572 3.27281 21.6761 3.56374 22.3137 3.56374C22.9514 3.56374 23.2703 3.27282 23.5891 2.98189C23.908 2.69096 24.2268 2.40002 24.8646 2.40002C25.5023 2.40002 25.8212 2.69096 26.1401 2.98189C26.4589 3.27282 26.7778 3.56374 27.4155 3.56374C28.0533 3.56374 28.3724 3.27298 28.6915 2.98223Z" fill="#F5F7F8"/>
<path d="M29.9192 18.4013C29.3134 18.4156 29.0025 18.6989 28.6915 18.9822C28.3724 19.273 28.0533 19.5637 27.4155 19.5637C26.7778 19.5637 26.4589 19.2728 26.1401 18.9819C25.8212 18.691 25.5023 18.4 24.8646 18.4C24.2268 18.4 23.908 18.691 23.5891 18.9819C23.2703 19.2728 22.9514 19.5637 22.3137 19.5637C21.6761 19.5637 21.3572 19.2728 21.0383 18.9819C20.7195 18.691 20.4006 18.4 19.7629 18.4C19.1252 18.4 18.8063 18.6909 18.4875 18.9819C18.1686 19.2728 17.8497 19.5637 17.212 19.5637C16.5742 19.5637 16.2553 19.2728 15.9364 18.9819C15.6175 18.691 15.2986 18.4 14.6608 18.4C14.0231 18.4 13.7043 18.691 13.3854 18.9819C13.0665 19.2728 12.7477 19.5637 12.11 19.5637C11.4724 19.5637 11.1536 19.2728 10.8348 18.9819C10.5159 18.691 10.1971 18.4 9.55931 18.4C8.92153 18.4 8.60264 18.691 8.28375 18.9819C7.96486 19.2728 7.64597 19.5637 7.00819 19.5637C6.37041 19.5637 6.05152 19.2728 5.73263 18.9819C5.41373 18.691 5.09484 18.4 4.45706 18.4C3.81945 18.4 3.50064 18.6909 3.18181 18.9818C2.86296 19.2728 2.5441 19.5637 1.90636 19.5637C1.26866 19.5637 0.94958 19.273 0.630491 18.9823C0.319569 18.699 0.00864208 18.4157 -0.597059 18.4013C-0.628208 18.7995 -0.64447 19.2018 -0.64447 19.6079C-0.64447 19.8861 -0.636578 20.1625 -0.621691 20.437C0.000506341 20.444 0.315578 20.7312 0.630661 21.0184C0.949658 21.3092 1.26867 21.6 1.90642 21.6C2.54416 21.6 2.86302 21.3091 3.18187 21.0182C3.5007 20.7273 3.81951 20.4364 4.45712 20.4364C5.0949 20.4364 5.41379 20.7273 5.73268 21.0182C6.05157 21.3091 6.37047 21.6 7.00825 21.6C7.64603 21.6 7.96492 21.3091 8.28381 21.0182C8.6027 20.7273 8.92159 20.4364 9.55937 20.4364C10.1971 20.4364 10.516 20.7274 10.8348 21.0183C11.1537 21.3091 11.4725 21.6 12.1101 21.6C12.7478 21.6 13.0667 21.3091 13.3855 21.0182C13.7044 20.7273 14.0232 20.4364 14.6609 20.4364C15.2987 20.4364 15.6176 20.7273 15.9365 21.0182C16.2554 21.3091 16.5742 21.6 17.212 21.6C17.8498 21.6 18.1687 21.3091 18.4876 21.0182C18.8065 20.7273 19.1253 20.4364 19.763 20.4364C20.4007 20.4364 20.7196 20.7273 21.0384 21.0182C21.3573 21.3091 21.6761 21.6 22.3138 21.6C22.9515 21.6 23.2704 21.3091 23.5892 21.0182C23.9081 20.7273 24.2269 20.4364 24.8646 20.4364C25.5024 20.4364 25.8213 20.7274 26.1402 21.0183C26.4591 21.3091 26.7779 21.6 27.4156 21.6C28.0534 21.6 28.3724 21.3092 28.6914 21.0185C29.0066 20.7312 29.3217 20.444 29.944 20.437C29.9587 20.1625 29.9666 19.8861 29.9666 19.6079C29.9666 19.2018 29.9504 18.7995 29.9192 18.4013Z" fill="#F5F7F8"/>
<path d="M28.6915 6.98223C29.0025 6.69892 29.3134 6.41562 29.9192 6.40134C29.9504 6.7995 29.9666 7.20184 29.9666 7.60794C29.9666 7.88614 29.9587 8.16248 29.944 8.43703C29.3217 8.444 29.0066 8.73122 28.6914 9.01845C28.3724 9.30924 28.0534 9.60002 27.4156 9.60002C26.7779 9.60002 26.4591 9.30915 26.1402 9.01826C25.8213 8.72735 25.5024 8.43643 24.8646 8.43643C24.2269 8.43643 23.9081 8.72733 23.5892 9.01823C23.2704 9.30913 22.9515 9.60002 22.3138 9.60002C21.6761 9.60002 21.3573 9.30913 21.0384 9.01824C20.7196 8.72734 20.4007 8.43643 19.763 8.43643C19.1253 8.43643 18.8065 8.72731 18.4876 9.0182C18.1687 9.30911 17.8498 9.60002 17.212 9.60002C16.5742 9.60002 16.2554 9.30913 15.9365 9.01823C15.6176 8.72733 15.2987 8.43643 14.6609 8.43643C14.0232 8.43643 13.7044 8.72732 13.3855 9.01822C13.0667 9.30912 12.7478 9.60002 12.1101 9.60002C11.4725 9.60002 11.1537 9.30915 10.8348 9.01826C10.516 8.72735 10.1971 8.43643 9.55937 8.43643C8.92159 8.43643 8.6027 8.72733 8.28381 9.01823C7.96492 9.30913 7.64603 9.60002 7.00825 9.60002C6.37047 9.60002 6.05157 9.30913 5.73268 9.01823C5.41379 8.72733 5.0949 8.43643 4.45712 8.43643C3.81951 8.43643 3.5007 8.72731 3.18187 9.0182C2.86302 9.30911 2.54416 9.60002 1.90642 9.60002C1.26867 9.60002 0.949658 9.30922 0.630661 9.01843C0.315578 8.73121 0.000506341 8.444 -0.621691 8.43703C-0.636578 8.16254 -0.64447 7.88614 -0.64447 7.60794C-0.64447 7.20184 -0.628208 6.7995 -0.597059 6.40134C0.00864208 6.41568 0.319569 6.69897 0.630491 6.98227C0.94958 7.27301 1.26866 7.56374 1.90636 7.56374C2.5441 7.56374 2.86296 7.27279 3.18181 6.98185C3.50064 6.69093 3.81945 6.40002 4.45706 6.40002C5.09484 6.40002 5.41373 6.69095 5.73263 6.98188C6.05152 7.27281 6.37041 7.56374 7.00819 7.56374C7.64597 7.56374 7.96486 7.27281 8.28375 6.98188C8.60264 6.69095 8.92153 6.40002 9.55931 6.40002C10.1971 6.40002 10.5159 6.69097 10.8348 6.98191C11.1536 7.27283 11.4724 7.56374 12.11 7.56374C12.7477 7.56374 13.0665 7.27281 13.3854 6.98189C13.7043 6.69096 14.0231 6.40002 14.6608 6.40002C15.2986 6.40002 15.6175 6.69096 15.9364 6.98189C16.2553 7.27281 16.5742 7.56374 17.212 7.56374C17.8497 7.56374 18.1686 7.2728 18.4875 6.98187C18.8063 6.69095 19.1252 6.40002 19.7629 6.40002C20.4006 6.40002 20.7195 6.69095 21.0383 6.98188C21.3572 7.27281 21.6761 7.56374 22.3137 7.56374C22.9514 7.56374 23.2703 7.27282 23.5891 6.98189C23.908 6.69096 24.2268 6.40002 24.8646 6.40002C25.5023 6.40002 25.8212 6.69096 26.1401 6.98189C26.4589 7.27282 26.7778 7.56374 27.4155 7.56374C28.0533 7.56374 28.3724 7.27298 28.6915 6.98223Z" fill="#F5F7F8"/>
<mask id="mask1_11482_5820" style="mask-type:alpha" maskUnits="userSpaceOnUse" x="0" y="0" width="15" height="12">
<path d="M0 12L-1.31134e-06 0L14.5 -2.53526e-07L14.5 12L0 12Z" fill="#002F6C"/>
</mask>
<g mask="url(#mask1_11482_5820)">
<rect x="3.05176e-05" width="14.5" height="14.4" fill="#004692"/>
<path d="M5.15183 0.401901L4.29741 1.25043L14.849 11.7292L15.7034 10.8807L5.15183 0.401901Z" fill="#F5F7F8"/>
<path d="M2.87338 2.66464L1.44934 4.07886L12.0009 14.5577L13.425 13.1435L2.87338 2.66464Z" fill="#F5F7F8"/>
<path d="M2.87338 2.66464L4.29741 1.25043L14.849 11.7292L13.425 13.1435L2.87338 2.66464Z" fill="#DD2033"/>
<path d="M2.41666 14H4.02846L4.02846 3.59999H14.5V2H2.41666V14Z" fill="#F5F7F8"/>
<path d="M0 14H2.41736L2.41736 1.99998H14.5007V0H0V14Z" fill="#DD2033"/>
</g>
<path d="M22.6428 8.15122V9.34666H22.7003V9.94668H23.621V11.4821C24.6642 11.6678 25.4623 12.5618 25.4623 13.6467C25.4623 14.2331 25.2279 14.7652 24.8485 15.1584V16.1467H22.6428V19.3467H21.0317V16.1467H18.826V15.1585C18.4466 14.7653 18.2122 14.2332 18.2122 13.6467C18.2122 12.5617 19.0103 11.6678 20.0535 11.4821V9.94668H20.9741V9.34666H21.0317V8.15118L19.9981 8.99548L20.0046 6.59212L17.7222 6.06818L19.5562 4.58665L18.5311 2.43321L20.8178 2.97157L21.8373 0.800049L22.8567 2.97158L25.1435 2.43321L24.1183 4.58666L25.9523 6.06818L23.6699 6.59212L23.6763 8.99548L22.6428 8.15122Z" fill="#F5F7F8"/>
<rect x="21.4344" y="6.54663" width="0.805556" height="12.4" fill="#936846"/>
<path fill-rule="evenodd" clip-rule="evenodd" d="M21.3769 9.7467H22.2976V10.3467L23.2182 10.3467L23.2182 11.2467H22.2976V12.0875C22.5684 11.9344 22.8828 11.8467 23.2182 11.8467C24.2351 11.8467 25.0595 12.6526 25.0595 13.6467C25.0595 14.1798 24.8224 14.6588 24.4458 14.9884V15.7467H19.2288V14.9884C18.8521 14.6588 18.615 14.1799 18.615 13.6467C18.615 12.6526 19.4394 11.8467 20.4563 11.8467C20.7917 11.8467 21.1061 11.9344 21.3769 12.0875V11.2467H20.4563V10.3467H21.3769V9.7467ZM21.8373 12.4561L21.8287 12.4467H21.8458L21.8373 12.4561ZM21.8287 14.8467L21.8373 14.8373L21.8458 14.8467H21.8287Z" fill="#F1B434"/>
<path d="M21.8372 1.7467L22.6303 3.436L24.4213 3.01435L23.6192 4.69917L25.0595 5.86262L23.2663 6.27427L23.2712 8.1467L21.8372 6.97525L20.4032 8.1467L20.4082 6.27427L18.615 5.86262L20.0552 4.69917L19.2532 3.01435L21.0441 3.436L21.8372 1.7467Z" fill="#009B77"/>
</g>
</svg>
