<svg width="29" height="20" viewBox="0 0 29 20" fill="none" xmlns="http://www.w3.org/2000/svg">
<mask id="mask0_11482_5844" style="mask-type:alpha" maskUnits="userSpaceOnUse" x="0" y="0" width="29" height="20">
<rect width="29" height="20" fill="#D9D9D9"/>
</mask>
<g mask="url(#mask0_11482_5844)">
<rect y="20" width="5" height="29" transform="rotate(-90 0 20)" fill="#31373D"/>
<rect y="15" width="10" height="29" transform="rotate(-90 0 15)" fill="#F5F7F8"/>
<rect y="5" width="5" height="29" transform="rotate(-90 0 5)" fill="#DD2033"/>
<path d="M14.1086 12.8491H4.18239C4.16175 13.0346 4.09404 13.214 3.98405 13.3744C3.87406 13.5349 3.72447 13.6726 3.54586 13.7778C3.36725 13.883 3.16398 13.9532 2.95043 13.9833C2.73687 14.0134 2.51824 14.0027 2.31 13.9521C3.70019 13.2698 3.61298 12.5773 2.73577 11.0383C3.22311 10.8639 3.30006 10.8177 3.79252 10.4843C3.44369 11.541 4.69538 11.4128 5.61875 11.4128C5.61875 11.0434 5.65466 10.6228 5.37765 10.5664C5.73674 10.4381 5.76752 10.3971 6.33693 9.91487V11.3358H13.1853V10.3612C13.1853 10.3067 13.1637 10.2546 13.1252 10.2161C13.0867 10.1776 13.0345 10.156 12.9801 10.156C12.9257 10.156 12.8735 10.1776 12.835 10.2161C12.7965 10.2546 12.7749 10.3067 12.7749 10.3612V10.9255C12.7749 10.9663 12.7587 11.0054 12.7298 11.0343C12.701 11.0631 12.6618 11.0793 12.621 11.0793H7.38855V10.156L11.318 6.35989C11.2924 6.55482 11.6976 7.07807 11.8669 7.16527C11.7387 7.18579 11.595 7.16014 11.5027 7.25248L8.28627 10.3612H11.8515C11.8515 9.53526 12.621 9.53526 12.9801 9.24286C13.3392 9.53526 14.1086 9.53526 14.1086 10.3612V12.8491ZM14.8525 12.8491V6.35989C15.2167 6.55995 15.4988 6.7908 15.9503 6.90365C15.9297 7.16014 15.6989 7.24222 15.6989 7.42177V11.4128C16.2016 11.5256 16.3145 11.2332 16.5556 11.0845C16.6171 11.7206 17.0224 12.3464 17.007 12.8491H14.8525ZM21.6341 8.51442L22.4293 7.84754V11.3358H22.9935V7.37047C23.2706 7.13962 23.6296 6.88826 23.7887 6.59586V12.8491H18.7871C18.7153 11.5564 18.7153 10.2278 20.2234 10.5151V9.98669C20.2234 9.86357 20.0388 9.96104 20.0388 9.84818L21.0699 8.98637V11.3358H21.6341V8.51442ZM21.3725 6.72924C21.275 6.73437 21.1263 6.20086 21.1622 6.09827C21.1981 5.98028 21.3315 5.98028 21.3879 6.03671C21.4802 6.12392 21.47 6.72411 21.3725 6.72924ZM20.444 7.45255C20.1619 7.28839 20.208 7.2217 20.4543 7.29352C20.88 7.42177 21.0955 7.31404 21.4033 7.00112L21.6341 7.11911C21.9368 7.273 22.1215 7.20631 22.2292 6.83696C22.26 6.72411 22.3523 6.75489 22.378 6.88313C22.4754 7.39612 22.0856 7.55514 21.6906 7.41151C21.4751 7.33969 21.4392 7.33969 21.3315 7.42177C21.0955 7.60644 20.7569 7.63722 20.444 7.45255ZM24.5325 12.8491V6.35989C24.8967 6.55995 25.1789 6.7908 25.6303 6.90365C25.6098 7.16014 25.3789 7.24222 25.3789 7.42177V11.4128C25.8817 11.5256 25.9945 11.2332 26.2356 11.0845C26.2972 11.7206 26.7024 12.3464 26.687 12.8491H24.5325ZM5.08525 13.5673C5.08525 13.4871 5.11713 13.4101 5.17389 13.3533C5.23065 13.2966 5.30764 13.2647 5.38791 13.2647C5.46818 13.2647 5.54516 13.2966 5.60192 13.3533C5.65868 13.4101 5.69057 13.4871 5.69057 13.5673C5.69057 13.6476 5.65868 13.7246 5.60192 13.7813C5.54516 13.8381 5.46818 13.87 5.38791 13.87C5.30764 13.87 5.23065 13.8381 5.17389 13.7813C5.11713 13.7246 5.08525 13.6476 5.08525 13.5673ZM19.7617 11.2076C19.7617 11.2539 19.7861 11.2982 19.8294 11.3309C19.8726 11.3636 19.9314 11.382 19.9926 11.382C20.0538 11.382 20.1125 11.3636 20.1558 11.3309C20.1991 11.2982 20.2234 11.2539 20.2234 11.2076C20.2234 11.1613 20.1991 11.117 20.1558 11.0843C20.1125 11.0516 20.0538 11.0332 19.9926 11.0332C19.9314 11.0332 19.8726 11.0516 19.8294 11.0843C19.7861 11.117 19.7617 11.1613 19.7617 11.2076Z" fill="#008259"/>
</g>
</svg>
