<svg width="20" height="20" viewBox="0 0 20 20" fill="none" xmlns="http://www.w3.org/2000/svg">
<mask id="mask0_11482_5838" style="mask-type:alpha" maskUnits="userSpaceOnUse" x="0" y="0" width="20" height="20">
<circle cx="10" cy="10" r="10" fill="#D9D9D9"/>
</mask>
<g mask="url(#mask0_11482_5838)">
<rect x="0.00012207" y="20" width="6" height="20" transform="rotate(-90 0.00012207 20)" fill="#31373D"/>
<rect y="14" width="7" height="20" transform="rotate(-90 0 14)" fill="#F5F7F8"/>
<rect y="7" width="7" height="20" transform="rotate(-90 0 7)" fill="#DD2033"/>
<path d="M9.75416 12.2807H3.55025C3.53735 12.3967 3.49503 12.5087 3.42629 12.609C3.35754 12.7093 3.26405 12.7954 3.15242 12.8611C3.04079 12.9269 2.91375 12.9707 2.78027 12.9896C2.6468 13.0084 2.51016 13.0017 2.38 12.97C3.24887 12.5436 3.19437 12.1108 2.64612 11.1489C2.9507 11.0399 2.99879 11.0111 3.30658 10.8027C3.08857 11.4631 3.87087 11.383 4.44797 11.383C4.44797 11.1521 4.47042 10.8892 4.29729 10.854C4.52172 10.7738 4.54095 10.7482 4.89684 10.4468V11.3349H9.17705V10.7257C9.17705 10.6917 9.16354 10.6591 9.13949 10.635C9.11544 10.611 9.08282 10.5975 9.04881 10.5975C9.01479 10.5975 8.98218 10.611 8.95812 10.635C8.93407 10.6591 8.92056 10.6917 8.92056 10.7257V11.0784C8.92056 11.1039 8.91043 11.1284 8.89239 11.1464C8.87435 11.1645 8.84989 11.1746 8.82438 11.1746H5.5541V10.5975L8.01001 8.22493C7.99398 8.34676 8.24727 8.67379 8.35307 8.7283C8.27292 8.74112 8.18315 8.72509 8.12544 8.7828L6.11518 10.7257H8.34345C8.34345 10.2095 8.82438 10.2095 9.04881 10.0268C9.27324 10.2095 9.75416 10.2095 9.75416 10.7257V12.2807ZM10.2191 12.2807V8.22493C10.4467 8.34997 10.623 8.49425 10.9052 8.56478C10.8923 8.72509 10.7481 8.77639 10.7481 8.8886V11.383C11.0623 11.4535 11.1328 11.2708 11.2835 11.1778C11.322 11.5754 11.5753 11.9665 11.5656 12.2807H10.2191ZM14.4576 9.57152L14.9545 9.15472V11.3349H15.3072V8.85654C15.4804 8.71227 15.7048 8.55516 15.8042 8.37241V12.2807H12.6782C12.6333 11.4728 12.6333 10.6424 13.5759 10.8219V10.4917C13.5759 10.4147 13.4605 10.4757 13.4605 10.4051L14.1049 9.86648V11.3349H14.4576V9.57152ZM14.2941 8.45577C14.2332 8.45898 14.1402 8.12554 14.1626 8.06142C14.1851 7.98767 14.2684 7.98767 14.3037 8.02294C14.3614 8.07745 14.355 8.45257 14.2941 8.45577ZM13.7138 8.90784C13.5374 8.80524 13.5663 8.76356 13.7202 8.80845C13.9863 8.8886 14.1209 8.82127 14.3133 8.6257L14.4576 8.69944C14.6468 8.79563 14.7622 8.75395 14.8295 8.5231C14.8487 8.45257 14.9065 8.4718 14.9225 8.55196C14.9834 8.87257 14.7397 8.97196 14.4929 8.88219C14.3582 8.83731 14.3358 8.83731 14.2684 8.8886C14.1209 9.00403 13.9093 9.02326 13.7138 8.90784ZM16.2691 12.2807V8.22493C16.4967 8.34997 16.673 8.49425 16.9552 8.56478C16.9424 8.72509 16.7981 8.77639 16.7981 8.8886V11.383C17.1123 11.4535 17.1828 11.2708 17.3335 11.1778C17.372 11.5754 17.6253 11.9665 17.6157 12.2807H16.2691ZM4.11453 12.7296C4.11453 12.6794 4.13446 12.6313 4.16994 12.5958C4.20541 12.5603 4.25353 12.5404 4.3037 12.5404C4.35387 12.5404 4.40198 12.5603 4.43746 12.5958C4.47293 12.6313 4.49286 12.6794 4.49286 12.7296C4.49286 12.7797 4.47293 12.8279 4.43746 12.8633C4.40198 12.8988 4.35387 12.9187 4.3037 12.9187C4.25353 12.9187 4.20541 12.8988 4.16994 12.8633C4.13446 12.8279 4.11453 12.7797 4.11453 12.7296ZM13.2873 11.2547C13.2873 11.2837 13.3025 11.3114 13.3296 11.3318C13.3567 11.3523 13.3934 11.3638 13.4316 11.3638C13.4699 11.3638 13.5066 11.3523 13.5336 11.3318C13.5607 11.3114 13.5759 11.2837 13.5759 11.2547C13.5759 11.2258 13.5607 11.1981 13.5336 11.1777C13.5066 11.1572 13.4699 11.1457 13.4316 11.1457C13.3934 11.1457 13.3567 11.1572 13.3296 11.1777C13.3025 11.1981 13.2873 11.2258 13.2873 11.2547Z" fill="#008259"/>
</g>
</svg>
