<svg width="72" height="72" viewBox="0 0 72 72" fill="none" xmlns="http://www.w3.org/2000/svg">
<mask id="mask0_38_14870" style="mask-type:alpha" maskUnits="userSpaceOnUse" x="0" y="0" width="72" height="72">
<circle cx="36" cy="36" r="36" fill="#D9D9D9"/>
</mask>
<g mask="url(#mask0_38_14870)">
<rect width="72" height="72" fill="#F5F7F8"/>
<path d="M5 50.0001L0.00012207 50.0001V72.0001L72.0001 72.0001V50.0001L70 50.0001V55H65V50.0001L60 50.0001V55H55V50.0001L50 50.0001V55H45V50.0001L40 50.0001V55H35V50.0001L30 50.0001V55H25V50.0001L20 50.0001V55H15V50.0001L10 50.0001V55H5V50.0001Z" fill="#DD2033"/>
<path d="M0 -0.000118923V17H5V21.9999H10V17H15V21.9999L20 21.9999V17H25V21.9999H30V17H35V21.9999H40V17H45V21.9999H50V17H55V21.9999H60V17H65V21.9999H72V-0.00012207L0 -0.000118923Z" fill="#009B77"/>
<path d="M42.9314 44C46.578 41.6974 49 37.6315 49 33C49 29.4101 47.5449 26.1601 45.1924 23.8076L42.566 26.434C44.2464 28.1144 45.2857 30.4358 45.2857 33C45.2857 37.4923 42.0956 41.2396 37.8572 42.1V27.4286H34.1429V42.1C29.9044 41.2396 26.7143 37.4924 26.7143 33C26.7143 30.4359 27.7536 28.1144 29.4339 26.4341L26.8076 23.8077C24.4551 26.1602 23 29.4102 23 33C23 37.6315 25.422 41.6974 29.0686 44H27.6001V47H44.6001V44H42.9314Z" fill="#DD2033"/>
<path d="M36.0287 20L36 20L35.9713 20H36.0287Z" fill="#DD2033"/>
</g>
</svg>
