<svg width="29" height="20" viewBox="0 0 29 20" fill="none" xmlns="http://www.w3.org/2000/svg">
<mask id="mask0_11482_5858" style="mask-type:alpha" maskUnits="userSpaceOnUse" x="0" y="0" width="29" height="20">
<rect width="29" height="20" fill="#D9D9D9"/>
</mask>
<g mask="url(#mask0_11482_5858)">
<rect y="-4.40002" width="29" height="28.8" fill="#F5F7F8"/>
<path d="M2.01384 15.6001L0 15.6001V20L29 20V15.6001L28.1944 15.6001V17.6001H26.1805V15.6001L24.1666 15.6001V17.6001H22.1527V15.6001L20.1388 15.6001V17.6001H18.125V15.6001L16.1111 15.6001V17.6001H14.0972V15.6001L12.0833 15.6001V17.6001H10.0694V15.6001L8.05551 15.6001V17.6001H6.04162V15.6001L4.02773 15.6001V17.6001H2.01384V15.6001Z" fill="#DD2033"/>
<path d="M0 1.25889e-06L0 2.4H2.01389V4.39995H4.02778V2.4H6.04167V4.39995L8.05556 4.39995V2.4H10.0694V4.39995H12.0833V2.4H14.0972V4.39995H16.1111V2.4H18.125V4.39995H20.1389V2.4H22.1528V4.39995H24.1667V2.4H26.1806V4.39995H29V0L0 1.25889e-06Z" fill="#009B77"/>
<path d="M17.2918 13.2C18.7606 12.2789 19.7361 10.6526 19.7361 8.79998C19.7361 7.36403 19.1501 6.06402 18.2025 5.12301L17.1447 6.17357C17.8215 6.84572 18.2401 7.7743 18.2401 8.79998C18.2401 10.5969 16.9552 12.0958 15.2481 12.44V6.57141H13.752V12.44C12.0449 12.0958 10.7599 10.5969 10.7599 8.79998C10.7599 7.77432 11.1786 6.84575 11.8554 6.1736L10.7975 5.12304C9.84998 6.06406 9.26392 7.36405 9.26392 8.79998C9.26392 10.6526 10.2395 12.2789 11.7082 13.2H11.1167V14.4H17.964V13.2H17.2918Z" fill="#DD2033"/>
<path d="M14.5116 3.59999L14.5 3.59998L14.4885 3.59999H14.5116Z" fill="#DD2033"/>
</g>
</svg>
