<svg width="20" height="20" viewBox="0 0 20 20" fill="none" xmlns="http://www.w3.org/2000/svg">
<mask id="mask0_11482_5852" style="mask-type:alpha" maskUnits="userSpaceOnUse" x="0" y="0" width="20" height="20">
<circle cx="10" cy="10" r="10" fill="#D9D9D9"/>
</mask>
<g mask="url(#mask0_11482_5852)">
<rect width="20" height="20" fill="#F5F7F8"/>
<path d="M1.38898 13.8889L0.00012207 13.8889V20L20.0001 20V13.8889L19.4445 13.8889V15.2778H18.0556V13.8889L16.6668 13.8889V15.2778H15.2779V13.8889L13.889 13.8889V15.2778H12.5001V13.8889L11.1112 13.8889V15.2778H9.72231V13.8889L8.33342 13.8889V15.2778H6.94453V13.8889L5.55564 13.8889V15.2778H4.16676V13.8889L2.77787 13.8889V15.2778H1.38898V13.8889Z" fill="#DD2033"/>
<path d="M0 -0.000121196V4.72214H1.38889V6.11099H2.77778V4.72214H4.16667V6.11099L5.55556 6.11099V4.72214H6.94444V6.11099H8.33333V4.72214H9.72222V6.11099H11.1111V4.72214H12.5V6.11099H13.8889V4.72214H15.2778V6.11099H16.6667V4.72214H18.0556V6.11099H20V-0.00012207L0 -0.000121196Z" fill="#009B77"/>
<path d="M11.9254 12.2222C12.9383 11.5826 13.6111 10.4532 13.6111 9.16665C13.6111 8.16947 13.2069 7.26669 12.5535 6.6132L11.8239 7.34276C12.2907 7.80953 12.5794 8.45438 12.5794 9.16665C12.5794 10.4145 11.6933 11.4554 10.5159 11.6944V7.61904H9.48416V11.6944C8.30681 11.4554 7.42066 10.4145 7.42066 9.16665C7.42066 8.45439 7.70936 7.80956 8.17612 7.34278L7.44657 6.61323C6.7931 7.26671 6.38892 8.16948 6.38892 9.16665C6.38892 10.4532 7.06171 11.5826 8.07465 12.2222H7.66672V13.0555H12.3889V12.2222H11.9254Z" fill="#DD2033"/>
<path d="M10.008 5.55555L10 5.55554L9.99206 5.55555H10.008Z" fill="#DD2033"/>
</g>
</svg>
