<svg width="29" height="20" viewBox="0 0 29 20" fill="none" xmlns="http://www.w3.org/2000/svg">
<mask id="mask0_11482_5921" style="mask-type:alpha" maskUnits="userSpaceOnUse" x="0" y="0" width="29" height="20">
<rect width="29" height="20" fill="#D9D9D9"/>
</mask>
<g mask="url(#mask0_11482_5921)">
<rect y="20" width="7" height="29" transform="rotate(-90 0 20)" fill="#008259"/>
<rect y="13" width="6" height="29" transform="rotate(-90 0 13)" fill="#F5F7F8"/>
<rect y="7" width="7" height="29" transform="rotate(-90 0 7)" fill="#31373D"/>
<path d="M16 10L-4 -4.5V24.5L16 10Z" fill="#DD2033"/>
<path d="M6.04167 5.59998L7.1321 7.92276L9.59478 7.34299L8.49185 9.65961L10.4722 11.2594L8.0066 11.8254L8.01343 14.4L6.04167 12.7892L4.06983 14.4L4.07674 11.8254L1.61111 11.2594L3.59141 9.65961L2.48864 7.34299L4.95117 7.92276L6.04167 5.59998Z" fill="#F5F7F8"/>
</g>
</svg>
