<svg width="20" height="20" viewBox="0 0 20 20" fill="none" xmlns="http://www.w3.org/2000/svg">
<mask id="mask0_11482_5914" style="mask-type:alpha" maskUnits="userSpaceOnUse" x="0" y="0" width="20" height="20">
<circle cx="10" cy="10" r="10" fill="#D9D9D9"/>
</mask>
<g mask="url(#mask0_11482_5914)">
<rect x="0.00012207" y="20" width="7" height="20" transform="rotate(-90 0.00012207 20)" fill="#008259"/>
<rect y="13" width="6" height="20" transform="rotate(-90 0 13)" fill="#F5F7F8"/>
<rect y="7" width="7" height="20" transform="rotate(-90 0 7)" fill="#31373D"/>
<path d="M13 10L0 0V20L13 10Z" fill="#DD2033"/>
<path d="M5 7L5.73835 8.58372L7.40586 8.18842L6.65906 9.76793L8 10.8587L6.33048 11.2446L6.33511 13L5 11.9018L3.66484 13L3.66952 11.2446L2 10.8587L3.34089 9.76793L2.59419 8.18842L4.2616 8.58372L5 7Z" fill="#F5F7F8"/>
</g>
</svg>
