<svg width="20" height="20" viewBox="0 0 20 20" fill="none" xmlns="http://www.w3.org/2000/svg">
<mask id="mask0_11482_5940" style="mask-type:alpha" maskUnits="userSpaceOnUse" x="0" y="0" width="20" height="20">
<circle cx="10" cy="10" r="10" fill="#D9D9D9"/>
</mask>
<g mask="url(#mask0_11482_5940)">
<rect y="14.4445" width="8.88889" height="20" transform="rotate(-90 0 14.4445)" fill="#F5F7F8"/>
<rect y="12.7778" width="5.55556" height="20" transform="rotate(-90 0 12.7778)" fill="#DD2033"/>
<rect y="5.55554" width="5.55556" height="20" transform="rotate(-90 0 5.55554)" fill="#31373D"/>
<rect y="20" width="5.55556" height="20" transform="rotate(-90 0 20)" fill="#009B77"/>
<path d="M6.16663 4.16664L7.12888 3.61108L10.12 8.79187L13.1111 3.61108L14.0734 4.16664L10.7615 9.90298L14.0733 15.6392L13.1111 16.1948L10.12 11.0141L7.12894 16.1948L6.16669 15.6392L9.47851 9.90298L6.16663 4.16664Z" fill="#F5F7F8"/>
<path d="M10.0297 5C16.838 10.6165 10.0297 15 10.0297 15C10.0297 15 3.08796 10.7535 10.0297 5Z" fill="#DD2033"/>
<mask id="mask1_11482_5940" style="mask-type:alpha" maskUnits="userSpaceOnUse" x="6" y="5" width="8" height="10">
<path d="M10.0297 5C16.838 10.6165 10.0297 15 10.0297 15C10.0297 15 3.08796 10.7535 10.0297 5Z" fill="#DD2033"/>
</mask>
<g mask="url(#mask1_11482_5940)">
<rect x="6.94446" y="5" width="1.11111" height="10" fill="#31373D"/>
<rect x="11.9445" y="5" width="1.11111" height="10" fill="#31373D"/>
<rect x="9.50006" y="5" width="1.11111" height="10" fill="#F5F7F8"/>
</g>
</g>
</svg>
