<svg width="29" height="20" viewBox="0 0 29 20" fill="none" xmlns="http://www.w3.org/2000/svg">
<mask id="mask0_11482_5953" style="mask-type:alpha" maskUnits="userSpaceOnUse" x="0" y="0" width="29" height="20">
<rect width="29" height="20" fill="#D9D9D9"/>
</mask>
<g mask="url(#mask0_11482_5953)">
<rect y="16.4" width="12.8" height="29" transform="rotate(-90 0 16.4)" fill="#F5F7F8"/>
<rect y="14" width="8" height="29" transform="rotate(-90 0 14)" fill="#DD2033"/>
<rect y="3.59998" width="3.6" height="29" transform="rotate(-90 0 3.59998)" fill="#31373D"/>
<rect y="20" width="3.6" height="29" transform="rotate(-90 0 20)" fill="#009B77"/>
<path d="M8.94165 1.60005L10.3369 0.800049L14.6741 8.26038L19.0112 0.800049L20.4065 1.60005L15.6042 9.86038L20.4064 18.1206L19.0111 18.9206L14.6741 11.4604L10.337 18.9206L8.94174 18.1206L13.7439 9.86038L8.94165 1.60005Z" fill="#F5F7F8"/>
<path d="M14.543 2.80005C24.415 10.8878 14.543 17.2 14.543 17.2C14.543 17.2 4.47753 11.085 14.543 2.80005Z" fill="#DD2033"/>
<mask id="mask1_11482_5953" style="mask-type:alpha" maskUnits="userSpaceOnUse" x="10" y="2" width="9" height="16">
<path d="M14.543 2.80005C24.415 10.8878 14.543 17.2 14.543 17.2C14.543 17.2 4.47753 11.085 14.543 2.80005Z" fill="#DD2033"/>
</mask>
<g mask="url(#mask1_11482_5953)">
<rect x="10.4722" y="3.20283" width="0.805556" height="13.5944" fill="#31373D" stroke="#31373D" stroke-width="0.805556"/>
<rect x="17.7222" y="3.20283" width="0.805556" height="13.5944" fill="#31373D" stroke="#31373D" stroke-width="0.805556"/>
<rect x="13.7751" y="2.80005" width="1.61111" height="14.4" fill="#F5F7F8"/>
</g>
</g>
</svg>
