<svg width="72" height="72" viewBox="0 0 72 72" fill="none" xmlns="http://www.w3.org/2000/svg">
<mask id="mask0_40_559" style="mask-type:alpha" maskUnits="userSpaceOnUse" x="0" y="0" width="72" height="72">
<circle cx="36" cy="36" r="36" transform="rotate(-90 36 36)" fill="#D9D9D9"/>
</mask>
<g mask="url(#mask0_40_559)">
<rect x="72" y="72" width="72" height="72" transform="rotate(180 72 72)" fill="#DD2033"/>
<path d="M36 24C29.3726 24 24 29.3726 24 36C24 42.6274 29.3726 48 36 48C42.6274 48 48 42.6274 48 36C48 29.3726 42.6274 24 36 24Z" fill="#F1B434"/>
<path fill-rule="evenodd" clip-rule="evenodd" d="M64 35.9998L52.5589 41.6574L58.6511 53.3052L46.2277 50.8068L44.6534 64L35.9998 54.2968L27.3466 64L25.7723 50.8068L13.3485 53.3048L19.4411 41.657L8 35.9998L19.4415 30.3426L13.3485 18.6952L25.7719 21.1932L27.347 8L35.9998 17.7032L44.6538 8L46.2277 21.1932L58.6516 18.6952L52.5593 30.343L64 35.9998ZM20 36C20 27.1634 27.1634 20 36 20C44.8365 20 52 27.1634 52 36C52 44.8366 44.8365 52 36 52C27.1634 52 20 44.8366 20 36Z" fill="#F1B434"/>
<path d="M25.4779 30.2259C28.1396 30.6338 30.6241 31.5799 32.8167 32.9495C29.9257 35.8636 27.7929 39.531 26.7387 43.6313C27.7042 44.8017 28.8873 45.7859 30.226 46.5221C30.8898 42.1901 32.9791 38.3277 36 35.4287C39.0209 38.3277 41.1103 42.1901 41.7741 46.5221C43.1128 45.7859 44.2958 44.8017 45.2613 43.6313C44.2072 39.531 42.0743 35.8636 39.1833 32.9495C41.3759 31.5799 43.8604 30.6338 46.5221 30.2259C45.7859 28.8872 44.8017 27.7042 43.6313 26.7387C40.8562 27.4522 38.2793 28.6598 36 30.2622C33.7208 28.6598 31.1439 27.4522 28.3687 26.7387C27.1983 27.7042 26.2141 28.8872 25.4779 30.2259Z" fill="#DD2033"/>
</g>
</svg>
