<svg width="20" height="20" viewBox="0 0 20 20" fill="none" xmlns="http://www.w3.org/2000/svg">
<mask id="mask0_11482_5967" style="mask-type:alpha" maskUnits="userSpaceOnUse" x="0" y="0" width="20" height="20">
<circle cx="10" cy="10" r="10" transform="rotate(-90 10 10)" fill="#D9D9D9"/>
</mask>
<g mask="url(#mask0_11482_5967)">
<rect x="20" y="20" width="20" height="20" transform="rotate(180 20 20)" fill="#DD2033"/>
<path d="M10 6.66661C8.15906 6.66661 6.66667 8.159 6.66667 9.99995C6.66667 11.8409 8.15906 13.3333 10 13.3333C11.841 13.3333 13.3333 11.8409 13.3333 9.99995C13.3333 8.159 11.841 6.66661 10 6.66661Z" fill="#F1B434"/>
<path fill-rule="evenodd" clip-rule="evenodd" d="M17.7778 9.99989L14.5997 11.5715L16.292 14.807L12.841 14.1129L12.4037 17.7777L9.99995 15.0824L7.59627 17.7777L7.15899 14.1129L3.70791 14.8068L5.40032 11.5713L2.22223 9.99989L5.40043 8.42843L3.70791 5.19306L7.15888 5.88695L7.59638 2.22217L9.99995 4.9175L12.4039 2.22217L12.841 5.88695L16.2921 5.19306L14.5998 8.42855L17.7778 9.99989ZM5.55555 9.99995C5.55555 7.54535 7.5454 5.5555 10 5.5555C12.4546 5.5555 14.4444 7.54535 14.4444 9.99995C14.4444 12.4545 12.4546 14.4444 10 14.4444C7.5454 14.4444 5.55555 12.4545 5.55555 9.99995Z" fill="#F1B434"/>
<path d="M7.07721 8.39604C7.81657 8.50934 8.5067 8.77213 9.11576 9.15259C8.31269 9.96206 7.72024 10.9808 7.42743 12.1198C7.69562 12.4449 8.02425 12.7182 8.3961 12.9227C8.5805 11.7194 9.16086 10.6465 10 9.84125C10.8392 10.6465 11.4195 11.7194 11.6039 12.9227C11.9758 12.7182 12.3044 12.4449 12.5726 12.1198C12.2798 10.9808 11.6873 9.96206 10.8843 9.15259C11.4933 8.77213 12.1834 8.50934 12.9228 8.39604C12.7183 8.02418 12.4449 7.69556 12.1198 7.42737C11.3489 7.62555 10.6331 7.961 10 8.40611C9.36689 7.961 8.65108 7.62555 7.8802 7.42737C7.5551 7.69556 7.2817 8.02418 7.07721 8.39604Z" fill="#DD2033"/>
</g>
</svg>
