<svg width="29" height="20" viewBox="0 0 29 20" fill="none" xmlns="http://www.w3.org/2000/svg">
<mask id="mask0_11482_5972" style="mask-type:alpha" maskUnits="userSpaceOnUse" x="0" y="0" width="29" height="20">
<rect width="29" height="20" fill="#D9D9D9"/>
</mask>
<g mask="url(#mask0_11482_5972)">
<rect x="29" y="20" width="29" height="20" transform="rotate(180 29 20)" fill="#DD2033"/>
<path d="M14.5 6.22852C12.4027 6.22852 10.7024 7.91705 10.7024 9.99995C10.7024 12.0829 12.4027 13.7714 14.5 13.7714C16.5974 13.7714 18.2976 12.0829 18.2976 9.99995C18.2976 7.91705 16.5974 6.22852 14.5 6.22852Z" fill="#F1B434"/>
<path fill-rule="evenodd" clip-rule="evenodd" d="M23.3611 9.99989L19.7404 11.778L21.6684 15.4387L17.7368 14.6535L17.2386 18.8L14.5 15.7504L11.7615 18.8L11.2633 14.6535L7.33153 15.4386L9.25967 11.7779L5.63892 9.99989L9.2598 8.2219L7.33153 4.5613L11.2632 5.34639L11.7616 1.19995L14.5 4.24953L17.2387 1.19995L17.7368 5.34639L21.6685 4.5613L19.7405 8.22203L23.3611 9.99989ZM9.43653 9.99995C9.43653 7.22275 11.7035 4.97138 14.5 4.97138C17.2965 4.97138 19.5635 7.22275 19.5635 9.99995C19.5635 12.7772 17.2965 15.0285 14.5 15.0285C11.7035 15.0285 9.43653 12.7772 9.43653 9.99995Z" fill="#F1B434"/>
<path d="M11.2778 8.25757C12.0929 8.38127 12.8537 8.6682 13.5252 9.0836C12.6398 9.9674 11.9867 11.0797 11.6639 12.3232C11.9595 12.6782 12.3218 12.9767 12.7318 13.2C12.9351 11.8861 13.5749 10.7147 14.5 9.8355C15.4251 10.7147 16.0649 11.8861 16.2682 13.2C16.6782 12.9767 17.0404 12.6782 17.3361 12.3232C17.0133 11.0797 16.3602 9.9674 15.4748 9.0836C16.1463 8.6682 16.9071 8.38128 17.7222 8.25758C17.4968 7.85157 17.1954 7.49277 16.837 7.19995C15.9871 7.41633 15.198 7.78258 14.5 8.26857C13.802 7.78258 13.0129 7.41633 12.163 7.19995C11.8046 7.49277 11.5032 7.85157 11.2778 8.25757Z" fill="#DD2033"/>
</g>
</svg>
