<svg width="72" height="72" viewBox="0 0 72 72" fill="none" xmlns="http://www.w3.org/2000/svg">
<mask id="mask0_40_976" style="mask-type:alpha" maskUnits="userSpaceOnUse" x="0" y="0" width="72" height="72">
<circle cx="36" cy="36" r="36" fill="#D9D9D9"/>
</mask>
<g mask="url(#mask0_40_976)">
<rect width="72" height="43" fill="#DD2033"/>
<path fill-rule="evenodd" clip-rule="evenodd" d="M36.1797 11.1071C35.1578 11.9501 34.6942 13.0597 34.5797 13.7466C34.3536 15.1033 32.573 15.4657 31.8346 14.3053C30.7846 12.6553 29.2199 12.0931 27.4936 12.1C25.7107 12.1071 23.9011 12.7395 22.806 13.3235L21.3942 10.6765C22.7991 9.92718 25.0895 9.10955 27.4816 9.10001C29.205 9.09313 31.0455 9.5143 32.5947 10.723C33.0084 10.0477 33.5592 9.37982 34.2705 8.79297C35.9632 7.39654 38.4359 6.5649 41.7984 7.01323L41.4019 9.98691C38.7643 9.63524 37.1537 10.3036 36.1797 11.1071Z" fill="#F1B434"/>
<path d="M55.6001 36.9999L47.4279 41.041L51.7795 49.3609L42.9056 47.5763L41.7811 57L35.6 50.0692L29.4191 57L28.2946 47.5763L19.4204 49.3606L23.7723 41.0407L15.6001 36.9999L23.7726 32.959L19.4204 24.6394L28.2943 26.4237L29.4194 17L35.6 23.9309L41.7814 17L42.9056 26.4237L51.7798 24.6394L47.4281 32.9593L55.6001 36.9999Z" fill="#F1B434"/>
<rect x="-0.399902" y="43" width="72" height="29" fill="#004692"/>
<path d="M73.8821 38.0033C72.3782 38.039 71.6062 38.7472 70.8342 39.4555C70.042 40.1824 69.2497 40.9093 67.6662 40.9093C66.0829 40.9093 65.2912 40.182 64.4996 39.4547C63.7079 38.7273 62.9162 38 61.3328 38C59.7495 38 58.9578 38.7273 58.1662 39.4547C57.3745 40.182 56.5829 40.9093 54.9997 40.9093C53.4165 40.9093 52.6248 40.182 51.8332 39.4546C51.0415 38.7273 50.2499 38 48.6666 38C47.0833 38 46.2917 38.7273 45.5 39.4546C44.7083 40.1819 43.9166 40.9093 42.3332 40.9093C40.7499 40.9093 39.9581 40.182 39.1664 39.4547C38.3746 38.7273 37.5829 38 35.9994 38C34.4161 38 33.6244 38.7273 32.8328 39.4547C32.0412 40.182 31.2495 40.9093 29.6663 40.9093C28.0833 40.9093 27.2917 40.182 26.5002 39.4547C25.7085 38.7274 24.9169 38 23.3335 38C21.7501 38 20.9583 38.7273 20.1666 39.4546C19.3749 40.182 18.5832 40.9093 16.9997 40.9093C15.4162 40.9093 14.6245 40.182 13.8328 39.4546C13.0411 38.7273 12.2493 38 10.6659 38C9.08284 38 8.2913 38.7273 7.49973 39.4546C6.70811 40.1819 5.91645 40.9093 4.33309 40.9093C2.74985 40.9093 1.95764 40.1825 1.16542 39.4556C0.393477 38.7474 -0.37848 38.0391 -1.88229 38.0033C-1.95963 38.9987 -2 40.0045 -2 41.0198C-2 41.7153 -1.98041 42.4063 -1.94345 43.0925C-0.398679 43.1099 0.383568 43.828 1.16584 44.546C1.95784 45.273 2.74986 46 4.33323 46C5.9166 46 6.70825 45.2727 7.49988 44.5454C8.29145 43.8182 9.08299 43.091 10.666 43.091C12.2495 43.091 13.0412 43.8183 13.8329 44.5455C14.6247 45.2728 15.4164 46 16.9999 46C18.5833 46 19.375 45.2728 20.1668 44.5455C20.9585 43.8183 21.7502 43.091 23.3337 43.091C24.917 43.091 25.7087 43.8183 26.5003 44.5456C27.2919 45.2728 28.0834 46 29.6665 46C31.2498 46 32.0415 45.2727 32.8331 44.5455C33.6247 43.8182 34.4163 43.091 35.9996 43.091C37.583 43.091 38.3747 43.8183 39.1665 44.5455C39.9582 45.2728 40.7499 46 42.3334 46C43.9169 46 44.7086 45.2727 45.5003 44.5454C46.292 43.8182 47.0836 43.091 48.6668 43.091C50.2501 43.091 51.0417 43.8183 51.8334 44.5455C52.625 45.2728 53.4166 46 54.9999 46C56.5831 46 57.3747 45.2728 58.1664 44.5455C58.958 43.8183 59.7497 43.091 61.3329 43.091C62.9165 43.091 63.7082 43.8183 64.4999 44.5456C65.2915 45.2728 66.0831 46 67.6663 46C69.2498 46 70.0419 45.273 70.834 44.5461C71.6164 43.828 72.3988 43.1099 73.9439 43.0925C73.9804 42.4061 74 41.7153 74 41.0198C74 40.0045 73.9596 38.9987 73.8821 38.0033Z" fill="#F5F7F8"/>
<path d="M73.8821 48.0033C72.3782 48.039 71.6062 48.7472 70.8342 49.4555C70.042 50.1824 69.2497 50.9093 67.6662 50.9093C66.0829 50.9093 65.2912 50.182 64.4996 49.4547C63.7079 48.7273 62.9162 48 61.3328 48C59.7495 48 58.9578 48.7273 58.1662 49.4547C57.3745 50.182 56.5829 50.9093 54.9997 50.9093C53.4165 50.9093 52.6248 50.182 51.8332 49.4546C51.0415 48.7273 50.2499 48 48.6666 48C47.0833 48 46.2917 48.7273 45.5 49.4546C44.7083 50.1819 43.9166 50.9093 42.3332 50.9093C40.7499 50.9093 39.9581 50.182 39.1664 49.4547C38.3746 48.7273 37.5829 48 35.9994 48C34.4161 48 33.6244 48.7273 32.8328 49.4547C32.0412 50.182 31.2495 50.9093 29.6663 50.9093C28.0833 50.9093 27.2917 50.182 26.5002 49.4547C25.7085 48.7274 24.9169 48 23.3335 48C21.7501 48 20.9583 48.7273 20.1666 49.4546C19.3749 50.182 18.5832 50.9093 16.9997 50.9093C15.4162 50.9093 14.6245 50.182 13.8328 49.4546C13.0411 48.7273 12.2493 48 10.6659 48C9.08284 48 8.2913 48.7273 7.49973 49.4546C6.70811 50.1819 5.91645 50.9093 4.33309 50.9093C2.74985 50.9093 1.95764 50.1825 1.16542 49.4556C0.393477 48.7474 -0.37848 48.0391 -1.88229 48.0033C-1.95963 48.9987 -2 50.0045 -2 51.0198C-2 51.7153 -1.98041 52.4063 -1.94345 53.0925C-0.398679 53.1099 0.383568 53.828 1.16584 54.546C1.95784 55.273 2.74986 56 4.33323 56C5.9166 56 6.70825 55.2727 7.49988 54.5454C8.29145 53.8182 9.08299 53.091 10.666 53.091C12.2495 53.091 13.0412 53.8183 13.8329 54.5455C14.6247 55.2728 15.4164 56 16.9999 56C18.5833 56 19.375 55.2728 20.1668 54.5455C20.9585 53.8183 21.7502 53.091 23.3337 53.091C24.917 53.091 25.7087 53.8183 26.5003 54.5456C27.2919 55.2728 28.0834 56 29.6665 56C31.2498 56 32.0415 55.2727 32.8331 54.5455C33.6247 53.8182 34.4163 53.091 35.9996 53.091C37.583 53.091 38.3747 53.8183 39.1665 54.5455C39.9582 55.2728 40.7499 56 42.3334 56C43.9169 56 44.7086 55.2727 45.5003 54.5454C46.292 53.8182 47.0836 53.091 48.6668 53.091C50.2501 53.091 51.0417 53.8183 51.8334 54.5455C52.625 55.2728 53.4166 56 54.9999 56C56.5831 56 57.3747 55.2728 58.1664 54.5455C58.958 53.8183 59.7497 53.091 61.3329 53.091C62.9165 53.091 63.7082 53.8183 64.4999 54.5456C65.2915 55.2728 66.0831 56 67.6663 56C69.2498 56 70.0419 55.273 70.834 54.5461C71.6164 53.828 72.3988 53.1099 73.9439 53.0925C73.9804 52.4061 74 51.7153 74 51.0198C74 50.0045 73.9596 48.9987 73.8821 48.0033Z" fill="#F5F7F8"/>
<path d="M70.8342 59.4555C71.6062 58.7472 72.3782 58.039 73.8821 58.0033C73.9596 58.9987 74 60.0045 74 61.0198C74 61.7153 73.9804 62.4061 73.9439 63.0925C72.3988 63.1099 71.6164 63.828 70.834 64.5461C70.0419 65.273 69.2498 66 67.6663 66C66.0831 66 65.2915 65.2728 64.4999 64.5456C63.7082 63.8183 62.9165 63.091 61.3329 63.091C59.7497 63.091 58.958 63.8183 58.1664 64.5455C57.3747 65.2728 56.5831 66 54.9999 66C53.4166 66 52.625 65.2728 51.8334 64.5455C51.0417 63.8183 50.2501 63.091 48.6668 63.091C47.0836 63.091 46.292 63.8182 45.5003 64.5454C44.7086 65.2727 43.9169 66 42.3334 66C40.7499 66 39.9582 65.2728 39.1665 64.5455C38.3747 63.8183 37.583 63.091 35.9996 63.091C34.4163 63.091 33.6247 63.8182 32.8331 64.5455C32.0415 65.2727 31.2498 66 29.6665 66C28.0834 66 27.2919 65.2728 26.5003 64.5456C25.7087 63.8183 24.917 63.091 23.3337 63.091C21.7502 63.091 20.9585 63.8183 20.1668 64.5455C19.375 65.2728 18.5833 66 16.9999 66C15.4164 66 14.6247 65.2728 13.8329 64.5455C13.0412 63.8183 12.2495 63.091 10.666 63.091C9.08299 63.091 8.29145 63.8182 7.49988 64.5454C6.70825 65.2727 5.9166 66 4.33323 66C2.74986 66 1.95784 65.273 1.16584 64.546C0.383568 63.828 -0.398679 63.1099 -1.94345 63.0925C-1.98041 62.4063 -2 61.7153 -2 61.0198C-2 60.0045 -1.95963 58.9987 -1.88229 58.0033C-0.37848 58.0391 0.393477 58.7474 1.16542 59.4556C1.95764 60.1825 2.74985 60.9093 4.33309 60.9093C5.91645 60.9093 6.70811 60.1819 7.49973 59.4546C8.2913 58.7273 9.08284 58 10.6659 58C12.2493 58 13.0411 58.7273 13.8328 59.4546C14.6245 60.182 15.4162 60.9093 16.9997 60.9093C18.5832 60.9093 19.3749 60.182 20.1666 59.4546C20.9583 58.7273 21.7501 58 23.3335 58C24.9169 58 25.7085 58.7274 26.5002 59.4547C27.2917 60.182 28.0833 60.9093 29.6663 60.9093C31.2495 60.9093 32.0412 60.182 32.8328 59.4547C33.6244 58.7273 34.4161 58 35.9994 58C37.5829 58 38.3746 58.7273 39.1664 59.4547C39.9581 60.182 40.7499 60.9093 42.3332 60.9093C43.9166 60.9093 44.7083 60.1819 45.5 59.4546C46.2917 58.7273 47.0833 58 48.6666 58C50.2499 58 51.0415 58.7273 51.8332 59.4546C52.6248 60.182 53.4165 60.9093 54.9997 60.9093C56.5829 60.9093 57.3745 60.182 58.1662 59.4547C58.9578 58.7273 59.7495 58 61.3328 58C62.9162 58 63.7079 58.7273 64.4996 59.4547C65.2912 60.182 66.0829 60.9093 67.6662 60.9093C69.2497 60.9093 70.042 60.1824 70.8342 59.4555Z" fill="#F5F7F8"/>
</g>
</svg>
