<svg width="20" height="20" viewBox="0 0 20 20" fill="none" xmlns="http://www.w3.org/2000/svg">
<mask id="mask0_11482_5991" style="mask-type:alpha" maskUnits="userSpaceOnUse" x="0" y="0" width="20" height="20">
<circle cx="10" cy="10" r="10" fill="#D9D9D9"/>
</mask>
<g mask="url(#mask0_11482_5991)">
<rect width="20" height="11.9444" fill="#DD2033"/>
<path fill-rule="evenodd" clip-rule="evenodd" d="M10.0499 3.08536C9.76607 3.31953 9.63727 3.62776 9.60547 3.81856C9.54266 4.19542 9.04807 4.29608 8.84295 3.97375C8.55128 3.51542 8.11663 3.35925 7.63711 3.36116C7.14187 3.36314 6.63919 3.5388 6.335 3.70104L5.94284 2.96574C6.3331 2.75761 6.9693 2.53049 7.63378 2.52784C8.1125 2.52593 8.62375 2.64292 9.05408 2.97867C9.16901 2.79109 9.322 2.60556 9.51959 2.44255C9.98978 2.05465 10.6766 1.82364 11.6107 1.94818L11.5005 2.7742C10.7679 2.67651 10.3205 2.86216 10.0499 3.08536Z" fill="#F1B434"/>
<path d="M15.4445 10.2777L13.1744 11.4002L14.3832 13.7113L11.9182 13.2156L11.6059 15.8333L9.88887 13.908L8.17196 15.8333L7.85962 13.2156L5.39456 13.7112L6.60343 11.4001L4.33336 10.2777L6.60351 9.15522L5.39456 6.84423L7.85954 7.33987L8.17204 4.72217L9.88887 6.64741L11.6059 4.72217L11.9182 7.33987L14.3833 6.84423L13.1745 9.1553L15.4445 10.2777Z" fill="#F1B434"/>
<rect x="-0.111084" y="11.9445" width="20" height="8.05556" fill="#004692"/>
<path d="M20.5228 10.5565C20.105 10.5664 19.8906 10.7631 19.6762 10.9598C19.4561 11.1618 19.236 11.3637 18.7962 11.3637C18.3564 11.3637 18.1364 11.1616 17.9165 10.9596C17.6966 10.7576 17.4767 10.5555 17.0369 10.5555C16.5971 10.5555 16.3772 10.7576 16.1573 10.9596C15.9374 11.1616 15.7175 11.3637 15.2777 11.3637C14.8379 11.3637 14.618 11.1616 14.3981 10.9596C14.1782 10.7576 13.9583 10.5555 13.5185 10.5555C13.0787 10.5555 12.8588 10.7576 12.6389 10.9596C12.419 11.1616 12.1991 11.3637 11.7592 11.3637C11.3194 11.3637 11.0995 11.1616 10.8796 10.9596C10.6596 10.7576 10.4397 10.5555 9.99983 10.5555C9.56002 10.5555 9.34012 10.7576 9.12021 10.9596C8.90032 11.1616 8.68042 11.3637 8.24064 11.3637C7.80091 11.3637 7.58104 11.1617 7.36116 10.9596C7.14126 10.7576 6.92136 10.5555 6.48153 10.5555C6.04168 10.5555 5.82176 10.7576 5.60184 10.9596C5.38191 11.1616 5.16199 11.3637 4.72214 11.3637C4.28229 11.3637 4.06236 11.1616 3.84244 10.9596C3.62252 10.7576 3.40259 10.5555 2.96274 10.5555C2.52301 10.5555 2.30314 10.7576 2.08326 10.9596C1.86336 11.1616 1.64346 11.3637 1.20363 11.3637C0.763845 11.3637 0.543788 11.1618 0.323726 10.9599C0.109298 10.7631 -0.105135 10.5664 -0.52286 10.5565C-0.544342 10.833 -0.555557 11.1124 -0.555557 11.3944C-0.555557 11.5876 -0.550115 11.7795 -0.539848 11.9701C-0.110746 11.975 0.106545 12.1744 0.323843 12.3739C0.543842 12.5758 0.763848 12.7778 1.20367 12.7778C1.6435 12.7778 1.8634 12.5757 2.0833 12.3737C2.30318 12.1717 2.52305 11.9697 2.96278 11.9697C3.40263 11.9697 3.62256 12.1717 3.84248 12.3737C4.0624 12.5758 4.28233 12.7778 4.72218 12.7778C5.16203 12.7778 5.38195 12.5758 5.60188 12.3737C5.8218 12.1717 6.04173 11.9697 6.48158 11.9697C6.9214 11.9697 7.1413 12.1717 7.3612 12.3738C7.58108 12.5758 7.80095 12.7778 8.24068 12.7778C8.6805 12.7778 8.9004 12.5757 9.1203 12.3737C9.3402 12.1717 9.56009 11.9697 9.99987 11.9697C10.4397 11.9697 10.6596 12.1717 10.8796 12.3737C11.0995 12.5758 11.3194 12.7778 11.7593 12.7778C12.1991 12.7778 12.4191 12.5757 12.639 12.3737C12.8589 12.1717 13.0788 11.9697 13.5185 11.9697C13.9584 11.9697 14.1783 12.1717 14.3982 12.3737C14.6181 12.5758 14.838 12.7778 15.2777 12.7778C15.7175 12.7778 15.9374 12.5758 16.1573 12.3737C16.3772 12.1717 16.5971 11.9697 17.0369 11.9697C17.4768 11.9697 17.6967 12.1717 17.9166 12.3738C18.1365 12.5758 18.3564 12.7778 18.7962 12.7778C19.2361 12.7778 19.4561 12.5758 19.6761 12.3739C19.8934 12.1744 20.1108 11.975 20.54 11.9701C20.5501 11.7795 20.5556 11.5876 20.5556 11.3944C20.5556 11.1124 20.5443 10.833 20.5228 10.5565Z" fill="#F5F7F8"/>
<path d="M20.5228 13.3342C20.105 13.3441 19.8906 13.5409 19.6762 13.7376C19.4561 13.9395 19.236 14.1415 18.7962 14.1415C18.3564 14.1415 18.1364 13.9394 17.9165 13.7374C17.6966 13.5354 17.4767 13.3333 17.0369 13.3333C16.5971 13.3333 16.3772 13.5354 16.1573 13.7374C15.9374 13.9394 15.7175 14.1415 15.2777 14.1415C14.8379 14.1415 14.618 13.9394 14.3981 13.7374C14.1782 13.5354 13.9583 13.3333 13.5185 13.3333C13.0787 13.3333 12.8588 13.5353 12.6389 13.7374C12.419 13.9394 12.1991 14.1415 11.7592 14.1415C11.3194 14.1415 11.0995 13.9394 10.8796 13.7374C10.6596 13.5354 10.4397 13.3333 9.99983 13.3333C9.56002 13.3333 9.34012 13.5354 9.12021 13.7374C8.90032 13.9394 8.68042 14.1415 8.24064 14.1415C7.80091 14.1415 7.58104 13.9394 7.36116 13.7374C7.14126 13.5354 6.92136 13.3333 6.48153 13.3333C6.04168 13.3333 5.82176 13.5354 5.60184 13.7374C5.38191 13.9394 5.16199 14.1415 4.72214 14.1415C4.28229 14.1415 4.06236 13.9394 3.84244 13.7374C3.62252 13.5354 3.40259 13.3333 2.96274 13.3333C2.52301 13.3333 2.30314 13.5353 2.08326 13.7374C1.86336 13.9394 1.64346 14.1415 1.20363 14.1415C0.763845 14.1415 0.543788 13.9396 0.323726 13.7377C0.109298 13.5409 -0.105135 13.3442 -0.52286 13.3342C-0.544342 13.6107 -0.555557 13.8901 -0.555557 14.1722C-0.555557 14.3653 -0.550115 14.5573 -0.539848 14.7479C-0.110746 14.7527 0.106545 14.9522 0.323843 15.1517C0.543842 15.3536 0.763848 15.5555 1.20367 15.5555C1.6435 15.5555 1.8634 15.3535 2.0833 15.1515C2.30318 14.9495 2.52305 14.7475 2.96278 14.7475C3.40263 14.7475 3.62256 14.9495 3.84248 15.1515C4.0624 15.3535 4.28233 15.5555 4.72218 15.5555C5.16203 15.5555 5.38195 15.3535 5.60188 15.1515C5.8218 14.9495 6.04173 14.7475 6.48158 14.7475C6.9214 14.7475 7.1413 14.9495 7.3612 15.1515C7.58108 15.3535 7.80095 15.5555 8.24068 15.5555C8.6805 15.5555 8.9004 15.3535 9.1203 15.1515C9.3402 14.9495 9.56009 14.7475 9.99987 14.7475C10.4397 14.7475 10.6596 14.9495 10.8796 15.1515C11.0995 15.3535 11.3194 15.5555 11.7593 15.5555C12.1991 15.5555 12.4191 15.3535 12.639 15.1515C12.8589 14.9495 13.0788 14.7475 13.5185 14.7475C13.9584 14.7475 14.1783 14.9495 14.3982 15.1515C14.6181 15.3535 14.838 15.5555 15.2777 15.5555C15.7175 15.5555 15.9374 15.3535 16.1573 15.1515C16.3772 14.9495 16.5971 14.7475 17.0369 14.7475C17.4768 14.7475 17.6967 14.9495 17.9166 15.1515C18.1365 15.3535 18.3564 15.5555 18.7962 15.5555C19.2361 15.5555 19.4561 15.3536 19.6761 15.1517C19.8934 14.9522 20.1108 14.7527 20.54 14.7479C20.5501 14.5572 20.5556 14.3653 20.5556 14.1722C20.5556 13.8901 20.5443 13.6107 20.5228 13.3342Z" fill="#F5F7F8"/>
<path d="M19.6762 16.5154C19.8906 16.3187 20.105 16.1219 20.5228 16.112C20.5443 16.3885 20.5556 16.6679 20.5556 16.9499C20.5556 17.1431 20.5501 17.335 20.54 17.5257C20.1108 17.5305 19.8934 17.73 19.6761 17.9294C19.4561 18.1314 19.2361 18.3333 18.7962 18.3333C18.3564 18.3333 18.1365 18.1313 17.9166 17.9293C17.6967 17.7273 17.4768 17.5253 17.0369 17.5253C16.5971 17.5253 16.3772 17.7273 16.1573 17.9293C15.9374 18.1313 15.7175 18.3333 15.2777 18.3333C14.838 18.3333 14.6181 18.1313 14.3982 17.9293C14.1783 17.7273 13.9584 17.5253 13.5185 17.5253C13.0788 17.5253 12.8589 17.7273 12.639 17.9293C12.4191 18.1313 12.1991 18.3333 11.7593 18.3333C11.3194 18.3333 11.0995 18.1313 10.8796 17.9293C10.6596 17.7273 10.4397 17.5253 9.99987 17.5253C9.56009 17.5253 9.3402 17.7273 9.1203 17.9293C8.9004 18.1313 8.6805 18.3333 8.24068 18.3333C7.80095 18.3333 7.58108 18.1313 7.3612 17.9293C7.1413 17.7273 6.9214 17.5253 6.48158 17.5253C6.04173 17.5253 5.8218 17.7273 5.60188 17.9293C5.38195 18.1313 5.16203 18.3333 4.72218 18.3333C4.28233 18.3333 4.0624 18.1313 3.84248 17.9293C3.62256 17.7273 3.40263 17.5253 2.96278 17.5253C2.52305 17.5253 2.30318 17.7273 2.0833 17.9293C1.8634 18.1313 1.6435 18.3333 1.20367 18.3333C0.763848 18.3333 0.543842 18.1314 0.323843 17.9294C0.106545 17.73 -0.110746 17.5305 -0.539848 17.5257C-0.550115 17.3351 -0.555557 17.1431 -0.555557 16.9499C-0.555557 16.6679 -0.544342 16.3885 -0.52286 16.112C-0.105135 16.122 0.109298 16.3187 0.323726 16.5154C0.543788 16.7173 0.763845 16.9192 1.20363 16.9192C1.64346 16.9192 1.86336 16.7172 2.08326 16.5151C2.30314 16.3131 2.52301 16.1111 2.96274 16.1111C3.40259 16.1111 3.62252 16.3131 3.84244 16.5152C4.06236 16.7172 4.28229 16.9192 4.72214 16.9192C5.16199 16.9192 5.38191 16.7172 5.60184 16.5152C5.82176 16.3131 6.04168 16.1111 6.48153 16.1111C6.92136 16.1111 7.14126 16.3131 7.36116 16.5152C7.58104 16.7172 7.80091 16.9192 8.24064 16.9192C8.68042 16.9192 8.90032 16.7172 9.12021 16.5152C9.34012 16.3131 9.56002 16.1111 9.99983 16.1111C10.4397 16.1111 10.6596 16.3131 10.8796 16.5152C11.0995 16.7172 11.3194 16.9192 11.7592 16.9192C12.1991 16.9192 12.419 16.7172 12.6389 16.5152C12.8588 16.3131 13.0787 16.1111 13.5185 16.1111C13.9583 16.1111 14.1782 16.3131 14.3981 16.5152C14.618 16.7172 14.8379 16.9192 15.2777 16.9192C15.7175 16.9192 15.9374 16.7172 16.1573 16.5152C16.3772 16.3131 16.5971 16.1111 17.0369 16.1111C17.4767 16.1111 17.6966 16.3131 17.9165 16.5152C18.1364 16.7172 18.3564 16.9192 18.7962 16.9192C19.236 16.9192 19.4561 16.7173 19.6762 16.5154Z" fill="#F5F7F8"/>
</g>
</svg>
