<svg width="29" height="20" viewBox="0 0 29 20" fill="none" xmlns="http://www.w3.org/2000/svg">
<mask id="mask0_11482_5998" style="mask-type:alpha" maskUnits="userSpaceOnUse" x="0" y="0" width="29" height="20">
<rect width="29" height="20" fill="#D9D9D9"/>
</mask>
<g mask="url(#mask0_11482_5998)">
<rect width="29" height="14.4" fill="#DD2033"/>
<path fill-rule="evenodd" clip-rule="evenodd" d="M13.2391 2.45882C12.9365 2.71055 12.7992 3.04188 12.7653 3.24699C12.6989 3.64921 12.1701 3.75859 11.9525 3.41382C11.6416 2.92112 11.1783 2.75324 10.6671 2.7553C10.1392 2.75742 9.60339 2.94626 9.27914 3.12066L8.86111 2.33023C9.27711 2.10648 9.95528 1.86234 10.6636 1.85949C11.1739 1.85743 11.7189 1.9832 12.1776 2.34413C12.3001 2.14248 12.4632 1.94304 12.6738 1.7678C13.175 1.35082 13.9072 1.10249 14.9028 1.23636L14.7854 2.12432C14.0044 2.01931 13.5275 2.21888 13.2391 2.45882Z" fill="#F1B434"/>
<path d="M20.5417 11.5999L17.9907 12.8123L19.3491 15.3082L16.579 14.7729L16.228 17.6L14.2986 15.5207L12.3692 17.6L12.0182 14.7729L9.24808 15.3081L10.6065 12.8122L8.05556 11.5999L10.6066 10.3877L9.24808 7.8918L12.0181 8.42709L12.3693 5.59998L14.2986 7.67923L16.2281 5.59998L16.579 8.42709L19.3491 7.8918L17.9908 10.3878L20.5417 11.5999Z" fill="#F1B434"/>
<rect y="14" width="29" height="6" fill="#004692"/>
<path d="M29.7581 12.0013C29.1523 12.0156 28.8414 12.2989 28.5305 12.5822C28.2114 12.873 27.8922 13.1637 27.2544 13.1637C26.6167 13.1637 26.2978 12.8728 25.979 12.5819C25.6601 12.2909 25.3412 12 24.7035 12C24.0658 12 23.7469 12.2909 23.428 12.5819C23.1092 12.8728 22.7903 13.1637 22.1527 13.1637C21.515 13.1637 21.1961 12.8728 20.8772 12.5819C20.5584 12.2909 20.2395 12 19.6018 12C18.9641 12 18.6453 12.2909 18.3264 12.5818C18.0075 12.8728 17.6886 13.1637 17.0509 13.1637C16.4131 13.1637 16.0942 12.8728 15.7754 12.5819C15.4565 12.2909 15.1375 12 14.4998 12C13.862 12 13.5432 12.2909 13.2243 12.5819C12.9055 12.8728 12.5866 13.1637 11.9489 13.1637C11.3113 13.1637 10.9925 12.8728 10.6737 12.5819C10.3548 12.2909 10.036 12 9.39823 12C8.76044 12 8.44155 12.2909 8.12266 12.5819C7.80377 12.8728 7.48488 13.1637 6.8471 13.1637C6.20932 13.1637 5.89043 12.8728 5.57154 12.5819C5.25265 12.2909 4.93376 12 4.29598 12C3.65837 12 3.33955 12.2909 3.02072 12.5818C2.70187 12.8728 2.38301 13.1637 1.74527 13.1637C1.10758 13.1637 0.788493 12.873 0.469404 12.5822C0.158482 12.299 -0.152445 12.0157 -0.758146 12.0013C-0.789295 12.3995 -0.805557 12.8018 -0.805557 13.2079C-0.805557 13.4861 -0.797665 13.7625 -0.782778 14.037C-0.160581 14.044 0.154491 14.3312 0.469573 14.6184C0.788571 14.9092 1.10758 15.2 1.74533 15.2C2.38307 15.2 2.70193 14.9091 3.02078 14.6182C3.33961 14.3273 3.65843 14.0364 4.29604 14.0364C4.93382 14.0364 5.25271 14.3273 5.5716 14.6182C5.89049 14.9091 6.20938 15.2 6.84716 15.2C7.48494 15.2 7.80383 14.9091 8.12272 14.6182C8.44161 14.3273 8.76051 14.0364 9.39829 14.0364C10.036 14.0364 10.3549 14.3273 10.6737 14.6182C10.9926 14.9091 11.3114 15.2 11.949 15.2C12.5867 15.2 12.9056 14.9091 13.2244 14.6182C13.5433 14.3273 13.8621 14.0364 14.4998 14.0364C15.1376 14.0364 15.4565 14.3273 15.7754 14.6182C16.0943 14.9091 16.4132 15.2 17.0509 15.2C17.6887 15.2 18.0076 14.9091 18.3265 14.6182C18.6454 14.3273 18.9642 14.0364 19.6019 14.0364C20.2396 14.0364 20.5585 14.3273 20.8773 14.6182C21.1962 14.9091 21.515 15.2 22.1527 15.2C22.7904 15.2 23.1093 14.9091 23.4281 14.6182C23.747 14.3273 24.0658 14.0364 24.7035 14.0364C25.3413 14.0364 25.6602 14.3273 25.9791 14.6182C26.298 14.9091 26.6168 15.2 27.2545 15.2C27.8923 15.2 28.2113 14.9092 28.5304 14.6184C28.8455 14.3312 29.1606 14.044 29.783 14.037C29.7977 13.7625 29.8056 13.4861 29.8056 13.2079C29.8056 12.8018 29.7893 12.3995 29.7581 12.0013Z" fill="#F5F7F8"/>
<path d="M29.7581 16.0013C29.1523 16.0156 28.8414 16.2989 28.5305 16.5822C28.2114 16.873 27.8922 17.1637 27.2544 17.1637C26.6167 17.1637 26.2978 16.8728 25.979 16.5819C25.6601 16.2909 25.3412 16 24.7035 16C24.0658 16 23.7469 16.2909 23.428 16.5819C23.1092 16.8728 22.7903 17.1637 22.1527 17.1637C21.515 17.1637 21.1961 16.8728 20.8772 16.5819C20.5584 16.2909 20.2395 16 19.6018 16C18.9641 16 18.6453 16.2909 18.3264 16.5818C18.0075 16.8728 17.6886 17.1637 17.0509 17.1637C16.4131 17.1637 16.0942 16.8728 15.7754 16.5819C15.4565 16.2909 15.1375 16 14.4998 16C13.862 16 13.5432 16.2909 13.2243 16.5819C12.9055 16.8728 12.5866 17.1637 11.9489 17.1637C11.3113 17.1637 10.9925 16.8728 10.6737 16.5819C10.3548 16.2909 10.036 16 9.39823 16C8.76044 16 8.44155 16.2909 8.12266 16.5819C7.80377 16.8728 7.48488 17.1637 6.8471 17.1637C6.20932 17.1637 5.89043 16.8728 5.57154 16.5819C5.25265 16.2909 4.93376 16 4.29598 16C3.65837 16 3.33955 16.2909 3.02072 16.5818C2.70187 16.8728 2.38301 17.1637 1.74527 17.1637C1.10758 17.1637 0.788493 16.873 0.469404 16.5822C0.158482 16.299 -0.152445 16.0157 -0.758146 16.0013C-0.789295 16.3995 -0.805557 16.8018 -0.805557 17.2079C-0.805557 17.4861 -0.797665 17.7625 -0.782778 18.037C-0.160581 18.044 0.154491 18.3312 0.469573 18.6184C0.788571 18.9092 1.10758 19.2 1.74533 19.2C2.38307 19.2 2.70193 18.9091 3.02078 18.6182C3.33961 18.3273 3.65843 18.0364 4.29604 18.0364C4.93382 18.0364 5.25271 18.3273 5.5716 18.6182C5.89049 18.9091 6.20938 19.2 6.84716 19.2C7.48494 19.2 7.80383 18.9091 8.12272 18.6182C8.44161 18.3273 8.76051 18.0364 9.39829 18.0364C10.036 18.0364 10.3549 18.3273 10.6737 18.6182C10.9926 18.9091 11.3114 19.2 11.949 19.2C12.5867 19.2 12.9056 18.9091 13.2244 18.6182C13.5433 18.3273 13.8621 18.0364 14.4998 18.0364C15.1376 18.0364 15.4565 18.3273 15.7754 18.6182C16.0943 18.9091 16.4132 19.2 17.0509 19.2C17.6887 19.2 18.0076 18.9091 18.3265 18.6182C18.6454 18.3273 18.9642 18.0364 19.6019 18.0364C20.2396 18.0364 20.5585 18.3273 20.8773 18.6182C21.1962 18.9091 21.515 19.2 22.1527 19.2C22.7904 19.2 23.1093 18.9091 23.4281 18.6182C23.747 18.3273 24.0658 18.0364 24.7035 18.0364C25.3413 18.0364 25.6602 18.3273 25.9791 18.6182C26.298 18.9091 26.6168 19.2 27.2545 19.2C27.8923 19.2 28.2113 18.9092 28.5304 18.6184C28.8455 18.3312 29.1606 18.044 29.783 18.037C29.7977 17.7625 29.8056 17.4861 29.8056 17.2079C29.8056 16.8018 29.7893 16.3995 29.7581 16.0013Z" fill="#F5F7F8"/>
<path d="M28.5305 20.5822C28.8414 20.2989 29.1523 20.0156 29.7581 20.0013C29.7893 20.3995 29.8056 20.8018 29.8056 21.2079C29.8056 21.4861 29.7977 21.7625 29.783 22.037C29.1606 22.044 28.8455 22.3312 28.5304 22.6184C28.2113 22.9092 27.8923 23.2 27.2545 23.2C26.6168 23.2 26.298 22.9091 25.9791 22.6182C25.6602 22.3273 25.3413 22.0364 24.7035 22.0364C24.0658 22.0364 23.747 22.3273 23.4281 22.6182C23.1093 22.9091 22.7904 23.2 22.1527 23.2C21.515 23.2 21.1962 22.9091 20.8773 22.6182C20.5585 22.3273 20.2396 22.0364 19.6019 22.0364C18.9642 22.0364 18.6454 22.3273 18.3265 22.6182C18.0076 22.9091 17.6887 23.2 17.0509 23.2C16.4132 23.2 16.0943 22.9091 15.7754 22.6182C15.4565 22.3273 15.1376 22.0364 14.4998 22.0364C13.8621 22.0364 13.5433 22.3273 13.2244 22.6182C12.9056 22.9091 12.5867 23.2 11.949 23.2C11.3114 23.2 10.9926 22.9091 10.6737 22.6182C10.3549 22.3273 10.036 22.0364 9.39829 22.0364C8.76051 22.0364 8.44161 22.3273 8.12272 22.6182C7.80383 22.9091 7.48494 23.2 6.84716 23.2C6.20938 23.2 5.89049 22.9091 5.5716 22.6182C5.25271 22.3273 4.93382 22.0364 4.29604 22.0364C3.65843 22.0364 3.33961 22.3273 3.02078 22.6182C2.70193 22.9091 2.38307 23.2 1.74533 23.2C1.10758 23.2 0.788571 22.9092 0.469573 22.6184C0.154491 22.3312 -0.160581 22.044 -0.782778 22.037C-0.797665 21.7625 -0.805557 21.4861 -0.805557 21.2079C-0.805557 20.8018 -0.789295 20.3995 -0.758146 20.0013C-0.152445 20.0157 0.158482 20.2989 0.469404 20.5822C0.788493 20.873 1.10758 21.1637 1.74527 21.1637C2.38301 21.1637 2.70187 20.8728 3.02072 20.5818C3.33955 20.2909 3.65837 20 4.29598 20C4.93376 20 5.25265 20.2909 5.57154 20.5819C5.89043 20.8728 6.20932 21.1637 6.8471 21.1637C7.48488 21.1637 7.80377 20.8728 8.12266 20.5819C8.44155 20.2909 8.76044 20 9.39823 20C10.036 20 10.3548 20.2909 10.6737 20.5819C10.9925 20.8728 11.3113 21.1637 11.9489 21.1637C12.5866 21.1637 12.9055 20.8728 13.2243 20.5819C13.5432 20.2909 13.862 20 14.4998 20C15.1375 20 15.4565 20.2909 15.7754 20.5819C16.0942 20.8728 16.4131 21.1637 17.0509 21.1637C17.6886 21.1637 18.0075 20.8728 18.3264 20.5818C18.6453 20.2909 18.9641 20 19.6018 20C20.2395 20 20.5584 20.2909 20.8772 20.5819C21.1961 20.8728 21.515 21.1637 22.1527 21.1637C22.7903 21.1637 23.1092 20.8728 23.428 20.5819C23.7469 20.2909 24.0658 20 24.7035 20C25.3412 20 25.6601 20.2909 25.979 20.5819C26.2978 20.8728 26.6167 21.1637 27.2544 21.1637C27.8922 21.1637 28.2114 20.873 28.5305 20.5822Z" fill="#F5F7F8"/>
</g>
</svg>
