<svg width="72" height="72" viewBox="0 0 72 72" fill="none" xmlns="http://www.w3.org/2000/svg">
<mask id="mask0_40_1081" style="mask-type:alpha" maskUnits="userSpaceOnUse" x="0" y="0" width="72" height="72">
<circle cx="36" cy="36" r="36" fill="#D9D9D9"/>
</mask>
<g mask="url(#mask0_40_1081)">
<rect y="72" width="18" height="72" transform="rotate(-90 0 72)" fill="#004692"/>
<rect y="54" width="18" height="72" transform="rotate(-90 0 54)" fill="#DD2033"/>
<rect y="36" width="18" height="72" transform="rotate(-90 0 36)" fill="#F5F7F8"/>
<rect y="18" width="18" height="72" transform="rotate(-90 0 18)" fill="#FBD381"/>
<path d="M48 36L0 0V72L48 36Z" fill="#009B77"/>
<path d="M10.3999 36C10.3999 29.369 15.01 23.8147 21.2 22.3674C20.1722 22.1271 19.101 22 18 22C10.268 22 4 28.268 4 36C4 43.732 10.268 50 18 50C19.101 50 20.1722 49.8729 21.2 49.6326C15.01 48.1853 10.3999 42.631 10.3999 36Z" fill="#F5F7F8"/>
<path d="M25.3999 31C27.0568 31 28.3999 29.6569 28.3999 28C28.3999 26.3431 27.0568 25 25.3999 25C23.743 25 22.3999 26.3431 22.3999 28C22.3999 29.6569 23.743 31 25.3999 31Z" fill="#F5F7F8"/>
<path d="M25.3999 39C27.0568 39 28.3999 37.6569 28.3999 36C28.3999 34.3431 27.0568 33 25.3999 33C23.743 33 22.3999 34.3431 22.3999 36C22.3999 37.6569 23.743 39 25.3999 39Z" fill="#F5F7F8"/>
<path d="M28.3999 44C28.3999 45.6569 27.0568 47 25.3999 47C23.743 47 22.3999 45.6569 22.3999 44C22.3999 42.3431 23.743 41 25.3999 41C27.0568 41 28.3999 42.3431 28.3999 44Z" fill="#F5F7F8"/>
</g>
</svg>
