<svg width="29" height="20" viewBox="0 0 29 20" fill="none" xmlns="http://www.w3.org/2000/svg">
<mask id="mask0_11482_6015" style="mask-type:alpha" maskUnits="userSpaceOnUse" x="0" y="0" width="29" height="20">
<rect width="29" height="20" fill="#D9D9D9"/>
</mask>
<g mask="url(#mask0_11482_6015)">
<rect y="20" width="5.2" height="29" transform="rotate(-90 0 20)" fill="#004692"/>
<rect y="14.8" width="4.8" height="29" transform="rotate(-90 0 14.8)" fill="#DD2033"/>
<rect y="10" width="4.8" height="29" transform="rotate(-90 0 10)" fill="#F5F7F8"/>
<rect y="5.19995" width="5.2" height="29" transform="rotate(-90 0 5.19995)" fill="#FBD381"/>
<path d="M19.3333 9.99998L0 -4.40002V24.4L19.3333 9.99998Z" fill="#009B77"/>
<path d="M4.18885 10C4.18885 7.34761 6.0457 5.1259 8.53887 4.54698C8.12493 4.45086 7.69344 4.40002 7.25 4.40002C4.13573 4.40002 1.61111 6.90723 1.61111 10C1.61111 13.0928 4.13573 15.6 7.25 15.6C7.69344 15.6 8.12493 15.5492 8.53887 15.4531C6.0457 14.8742 4.18885 12.6524 4.18885 10Z" fill="#F5F7F8"/>
<path d="M10.2305 8.00002C10.8979 8.00002 11.4389 7.46277 11.4389 6.80002C11.4389 6.13728 10.8979 5.60002 10.2305 5.60002C9.56318 5.60002 9.02219 6.13728 9.02219 6.80002C9.02219 7.46277 9.56318 8.00002 10.2305 8.00002Z" fill="#F5F7F8"/>
<path d="M10.2305 11.2C10.8979 11.2 11.4389 10.6628 11.4389 10C11.4389 9.33728 10.8979 8.80002 10.2305 8.80002C9.56318 8.80002 9.02219 9.33728 9.02219 10C9.02219 10.6628 9.56318 11.2 10.2305 11.2Z" fill="#F5F7F8"/>
<path d="M11.4389 13.2C11.4389 13.8628 10.8979 14.4 10.2305 14.4C9.56318 14.4 9.02219 13.8628 9.02219 13.2C9.02219 12.5373 9.56318 12 10.2305 12C10.8979 12 11.4389 12.5373 11.4389 13.2Z" fill="#F5F7F8"/>
</g>
</svg>
