<svg width="20" height="20" viewBox="0 0 20 20" fill="none" xmlns="http://www.w3.org/2000/svg">
<mask id="mask0_11482_6007" style="mask-type:alpha" maskUnits="userSpaceOnUse" x="0" y="0" width="20" height="20">
<circle cx="10" cy="10" r="10" fill="#D9D9D9"/>
</mask>
<g mask="url(#mask0_11482_6007)">
<rect y="20" width="5" height="20" transform="rotate(-90 0 20)" fill="#004692"/>
<rect y="15" width="5" height="20" transform="rotate(-90 0 15)" fill="#DD2033"/>
<rect y="10" width="5" height="20" transform="rotate(-90 0 10)" fill="#F5F7F8"/>
<rect y="5" width="5" height="20" transform="rotate(-90 0 5)" fill="#FBD381"/>
<path d="M13.3333 10L0 0V20L13.3333 10Z" fill="#009B77"/>
<path d="M2.88886 9.99997C2.88886 8.15802 4.16944 6.61516 5.88888 6.21313C5.6034 6.14638 5.30582 6.11108 5 6.11108C2.85223 6.11108 1.11111 7.8522 1.11111 9.99997C1.11111 12.1477 2.85223 13.8889 5 13.8889C5.30582 13.8889 5.6034 13.8536 5.88888 13.7868C4.16944 13.3848 2.88886 11.8419 2.88886 9.99997Z" fill="#F5F7F8"/>
<path d="M7.05553 8.61108C7.51577 8.61108 7.88886 8.23799 7.88886 7.77775C7.88886 7.31751 7.51577 6.94442 7.05553 6.94442C6.59529 6.94442 6.22219 7.31751 6.22219 7.77775C6.22219 8.23799 6.59529 8.61108 7.05553 8.61108Z" fill="#F5F7F8"/>
<path d="M7.05553 10.8333C7.51577 10.8333 7.88886 10.4602 7.88886 9.99997C7.88886 9.53974 7.51577 9.16664 7.05553 9.16664C6.59529 9.16664 6.22219 9.53974 6.22219 9.99997C6.22219 10.4602 6.59529 10.8333 7.05553 10.8333Z" fill="#F5F7F8"/>
<path d="M7.88886 12.2222C7.88886 12.6824 7.51577 13.0555 7.05553 13.0555C6.59529 13.0555 6.22219 12.6824 6.22219 12.2222C6.22219 11.762 6.59529 11.3889 7.05553 11.3889C7.51577 11.3889 7.88886 11.762 7.88886 12.2222Z" fill="#F5F7F8"/>
</g>
</svg>
