<svg width="72" height="72" viewBox="0 0 72 72" fill="none" xmlns="http://www.w3.org/2000/svg">
<mask id="mask0_40_1799" style="mask-type:alpha" maskUnits="userSpaceOnUse" x="0" y="0" width="72" height="72">
<circle cx="36" cy="36" r="36" fill="#D9D9D9"/>
</mask>
<g mask="url(#mask0_40_1799)">
<rect width="72" height="72" fill="#F5F7F8"/>
<path fill-rule="evenodd" clip-rule="evenodd" d="M49 36.0044C49 43.175 43.1824 49 35.9955 49C28.8086 49 23 43.175 23 36.0044C23 28.8338 28.8176 23 36.0045 23C43.1914 23 49 28.8338 49 36.0044Z" fill="#DD2033"/>
<path fill-rule="evenodd" clip-rule="evenodd" d="M23.1879 33.7119C23.5996 36.9873 24.1993 40.6346 29.2919 41.0064C31.1982 41.1215 34.9125 40.5638 36.1834 35.4116C37.8661 30.4718 42.896 29.0554 46.3239 31.7289C48.284 32.986 48.821 34.9778 48.9463 36.4827C48.7941 41.2631 46.0017 45.4238 42.4306 47.2829C38.3136 49.6996 32.6213 49.7527 27.6361 46.0878C25.3896 44.0074 22.2482 40.1565 23.1879 33.7119V33.7119Z" fill="#004692"/>
<path d="M19.5367 9.83698L9.63717 19.7365L11.7585 21.8578L21.658 11.9583L19.5367 9.83698Z" fill="#31373D"/>
<path d="M9.63708 52.2635L19.5366 62.163L21.6579 60.0417L11.7584 50.1422L9.63708 52.2635Z" fill="#31373D"/>
<path d="M48.5279 47.3137L52.7706 43.0711L54.8919 45.1924L50.6492 49.4351L48.5279 47.3137Z" fill="#31373D"/>
<path d="M56.3061 46.6066L52.0634 50.8493L54.1848 52.9706L58.4274 48.7279L56.3061 46.6066Z" fill="#31373D"/>
<path d="M55.599 54.3848L59.8416 50.1421L61.9629 52.2635L57.7203 56.5061L55.599 54.3848Z" fill="#31373D"/>
<path d="M47.1137 48.728L42.8711 52.9706L44.9924 55.0919L49.235 50.8493L47.1137 48.728Z" fill="#31373D"/>
<path d="M46.4066 56.5061L50.6492 52.2635L52.7705 54.3848L48.5279 58.6274L46.4066 56.5061Z" fill="#31373D"/>
<path d="M54.1847 55.799L49.9421 60.0416L52.0634 62.163L56.3061 57.9203L54.1847 55.799Z" fill="#31373D"/>
<path d="M17.4152 52.9706L13.1726 48.728L15.2939 46.6066L19.5366 50.8493L17.4152 52.9706Z" fill="#31373D"/>
<path d="M20.9508 52.2635L18.8295 54.3848L23.0721 58.6275L25.1934 56.5061L20.9508 52.2635Z" fill="#31373D"/>
<path d="M13.1727 23.2721L23.0722 13.3726L25.1935 15.4939L15.294 25.3934L13.1727 23.2721Z" fill="#31373D"/>
<path d="M46.4066 15.4939L56.3061 25.3934L58.4274 23.2721L48.5279 13.3726L46.4066 15.4939Z" fill="#31373D"/>
<path d="M16.7082 26.8076L26.6077 16.9081L28.729 19.0294L18.8295 28.9289L16.7082 26.8076Z" fill="#31373D"/>
<path d="M16.7081 45.1924L26.6076 55.0919L28.7289 52.9706L18.8294 43.0711L16.7081 45.1924Z" fill="#31373D"/>
<path d="M54.1848 16.201L49.9421 11.9584L52.0635 9.83705L56.3061 14.0797L54.1848 16.201Z" fill="#31373D"/>
<path d="M42.8711 19.0295L47.1137 23.2721L49.2351 21.1508L44.9924 16.9082L42.8711 19.0295Z" fill="#31373D"/>
<path d="M59.8416 21.8579L55.599 17.6152L57.7203 15.4939L61.963 19.7365L59.8416 21.8579Z" fill="#31373D"/>
<path d="M48.528 24.6863L52.7706 28.929L54.8919 26.8077L50.6493 22.565L48.528 24.6863Z" fill="#31373D"/>
</g>
</svg>
