<svg width="20" height="20" viewBox="0 0 20 20" fill="none" xmlns="http://www.w3.org/2000/svg">
<mask id="mask0_11482_6059" style="mask-type:alpha" maskUnits="userSpaceOnUse" x="0" y="0" width="20" height="20">
<circle cx="10" cy="10" r="10" fill="#D9D9D9"/>
</mask>
<g mask="url(#mask0_11482_6059)">
<rect width="20" height="20" fill="#F5F7F8"/>
<path fill-rule="evenodd" clip-rule="evenodd" d="M13.6111 10.0013C13.6111 11.9931 11.9952 13.6111 9.99878 13.6111C8.00242 13.6111 6.38892 11.9931 6.38892 10.0013C6.38892 8.00943 8.0049 6.38892 10.0013 6.38892C11.9976 6.38892 13.6111 8.00943 13.6111 10.0013Z" fill="#DD2033"/>
<path fill-rule="evenodd" clip-rule="evenodd" d="M6.44107 9.36445C6.55543 10.2743 6.722 11.2874 8.13661 11.3907C8.66616 11.4227 9.6979 11.2677 10.0509 9.83658C10.5183 8.46444 11.9155 8.07099 12.8677 8.81362C13.4122 9.16281 13.5614 9.71609 13.5962 10.1341C13.5539 11.462 12.7782 12.6178 11.7863 13.1342C10.6426 13.8055 9.06145 13.8202 7.67668 12.8022C7.05266 12.2243 6.18002 11.1546 6.44107 9.36445Z" fill="#004692"/>
<path d="M5.42688 2.73254L2.67702 5.4824L3.26628 6.07166L6.01614 3.3218L5.42688 2.73254Z" fill="#31373D"/>
<path d="M2.677 14.5177L5.42686 17.2675L6.01612 16.6783L3.26626 13.9284L2.677 14.5177Z" fill="#31373D"/>
<path d="M13.48 13.1428L14.6585 11.9642L15.2478 12.5535L14.0693 13.732L13.48 13.1428Z" fill="#31373D"/>
<path d="M15.6406 12.9463L14.4621 14.1248L15.0514 14.7141L16.2299 13.5356L15.6406 12.9463Z" fill="#31373D"/>
<path d="M15.4442 15.1069L16.6227 13.9284L17.212 14.5177L16.0334 15.6962L15.4442 15.1069Z" fill="#31373D"/>
<path d="M13.0872 13.5356L11.9087 14.7141L12.4979 15.3034L13.6764 14.1249L13.0872 13.5356Z" fill="#31373D"/>
<path d="M12.8907 15.6962L14.0693 14.5177L14.6585 15.1069L13.48 16.2854L12.8907 15.6962Z" fill="#31373D"/>
<path d="M15.0514 15.4998L13.8728 16.6783L14.4621 17.2675L15.6406 16.089L15.0514 15.4998Z" fill="#31373D"/>
<path d="M4.8376 14.7141L3.65909 13.5356L4.24835 12.9463L5.42686 14.1249L4.8376 14.7141Z" fill="#31373D"/>
<path d="M5.8197 14.5177L5.23044 15.1069L6.40895 16.2855L6.99821 15.6962L5.8197 14.5177Z" fill="#31373D"/>
<path d="M3.65911 6.46451L6.40897 3.71465L6.99823 4.30391L4.24837 7.05377L3.65911 6.46451Z" fill="#31373D"/>
<path d="M12.8908 4.30391L15.6406 7.05377L16.2299 6.46451L13.48 3.71466L12.8908 4.30391Z" fill="#31373D"/>
<path d="M4.6412 7.4466L7.39106 4.69674L7.98032 5.286L5.23046 8.03585L4.6412 7.4466Z" fill="#31373D"/>
<path d="M4.64118 12.5535L7.39104 15.3033L7.9803 14.7141L5.23044 11.9642L4.64118 12.5535Z" fill="#31373D"/>
<path d="M15.0514 4.50033L13.8728 3.32182L14.4621 2.73256L15.6406 3.91108L15.0514 4.50033Z" fill="#31373D"/>
<path d="M11.9087 5.28602L13.0872 6.46453L13.6764 5.87527L12.4979 4.69676L11.9087 5.28602Z" fill="#31373D"/>
<path d="M16.6227 6.07168L15.4442 4.89317L16.0335 4.30391L17.212 5.48243L16.6227 6.07168Z" fill="#31373D"/>
<path d="M13.48 6.85737L14.6585 8.03588L15.2478 7.44662L14.0693 6.26811L13.48 6.85737Z" fill="#31373D"/>
</g>
</svg>
