<svg width="29" height="20" viewBox="0 0 29 20" fill="none" xmlns="http://www.w3.org/2000/svg">
<mask id="mask0_11482_6065" style="mask-type:alpha" maskUnits="userSpaceOnUse" x="0" y="0" width="29" height="20">
<rect width="29" height="20" fill="#D9D9D9"/>
</mask>
<g mask="url(#mask0_11482_6065)">
<rect width="29" height="20" fill="#F5F7F8"/>
<path fill-rule="evenodd" clip-rule="evenodd" d="M18.8902 10.0014C18.8902 12.4132 16.9199 14.3725 14.4857 14.3725C12.0516 14.3725 10.0843 12.4132 10.0843 10.0014C10.0843 7.58955 12.0546 5.62732 14.4888 5.62732C16.9229 5.62732 18.8902 7.58955 18.8902 10.0014Z" fill="#DD2033"/>
<path fill-rule="evenodd" clip-rule="evenodd" d="M10.1479 9.23033C10.2874 10.332 10.4905 11.5588 12.2153 11.6839C12.861 11.7226 14.1189 11.535 14.5494 9.80203C15.1193 8.14053 16.8229 7.66412 17.9838 8.56335C18.6477 8.98617 18.8296 9.65612 18.872 10.1623C18.8205 11.7702 17.8747 13.1697 16.6652 13.795C15.2708 14.6079 13.3429 14.6257 11.6545 13.393C10.8936 12.6933 9.82966 11.398 10.1479 9.23033Z" fill="#004692"/>
<path d="M8.91135 1.19995L5.5585 4.52968L6.27697 5.24319L9.62982 1.91346L8.91135 1.19995Z" fill="#31373D"/>
<path d="M5.55847 15.4702L8.91132 18.8L9.62979 18.0865L6.27694 14.7567L5.55847 15.4702Z" fill="#31373D"/>
<path d="M18.7304 13.8054L20.1673 12.3784L20.8858 13.0919L19.4488 14.5189L18.7304 13.8054Z" fill="#31373D"/>
<path d="M21.3647 13.5675L19.9278 14.9946L20.6463 15.7081L22.0832 14.2811L21.3647 13.5675Z" fill="#31373D"/>
<path d="M21.1252 16.1837L22.5622 14.7567L23.2807 15.4702L21.8437 16.8973L21.1252 16.1837Z" fill="#31373D"/>
<path d="M18.2514 14.2811L16.8144 15.7081L17.5329 16.4216L18.9699 14.9946L18.2514 14.2811Z" fill="#31373D"/>
<path d="M18.0119 16.8973L19.4488 15.4702L20.1673 16.1838L18.7304 17.6108L18.0119 16.8973Z" fill="#31373D"/>
<path d="M20.6463 16.6594L19.2093 18.0865L19.9278 18.8L21.3647 17.3729L20.6463 16.6594Z" fill="#31373D"/>
<path d="M8.19285 15.7081L6.75591 14.2811L7.47438 13.5675L8.91132 14.9946L8.19285 15.7081Z" fill="#31373D"/>
<path d="M9.3903 15.4702L8.67183 16.1838L10.1088 17.6108L10.8272 16.8973L9.3903 15.4702Z" fill="#31373D"/>
<path d="M6.75594 5.71888L10.1088 2.38916L10.8273 3.10267L7.47441 6.43239L6.75594 5.71888Z" fill="#31373D"/>
<path d="M18.0119 3.10267L21.3648 6.4324L22.0832 5.71889L18.7304 2.38916L18.0119 3.10267Z" fill="#31373D"/>
<path d="M7.95338 6.90807L11.3062 3.57834L12.0247 4.29185L8.67185 7.62158L7.95338 6.90807Z" fill="#31373D"/>
<path d="M7.95336 13.0919L11.3062 16.4216L12.0247 15.7081L8.67182 12.3783L7.95336 13.0919Z" fill="#31373D"/>
<path d="M20.6463 3.34051L19.2093 1.91349L19.9278 1.19998L21.3647 2.627L20.6463 3.34051Z" fill="#31373D"/>
<path d="M16.8145 4.29188L18.2514 5.7189L18.9699 5.00539L17.5329 3.57836L16.8145 4.29188Z" fill="#31373D"/>
<path d="M22.5622 5.24322L21.1253 3.81619L21.8437 3.10268L23.2807 4.5297L22.5622 5.24322Z" fill="#31373D"/>
<path d="M18.7304 6.19458L20.1673 7.62161L20.8858 6.90809L19.4488 5.48107L18.7304 6.19458Z" fill="#31373D"/>
</g>
</svg>
