<svg width="72" height="72" viewBox="0 0 72 72" fill="none" xmlns="http://www.w3.org/2000/svg">
<mask id="mask0_40_2178" style="mask-type:alpha" maskUnits="userSpaceOnUse" x="0" y="0" width="72" height="72">
<circle cx="36" cy="36" r="36" fill="#D9D9D9"/>
</mask>
<g mask="url(#mask0_40_2178)">
<rect width="72" height="72" fill="#004692"/>
<path d="M61.3999 53H40.3999V58H43.3999V61H58.3999V58H61.3999V53Z" fill="#FBD381"/>
<circle cx="50.8999" cy="27.5" r="2.5" fill="#FBD381"/>
<circle cx="50.8999" cy="35.5" r="7.5" fill="#008259"/>
<path d="M40.3999 35H61.3999V43.7432C61.3999 49.8265 57.6915 55.2951 52.04 57.546L50.8999 58L49.7599 57.546C44.1083 55.2951 40.3999 49.8265 40.3999 43.7432V35Z" fill="#DD2033"/>
<mask id="mask1_40_2178" style="mask-type:alpha" maskUnits="userSpaceOnUse" x="40" y="35" width="22" height="23">
<path d="M40.3999 35H61.3999V43.7432C61.3999 49.8265 57.6915 55.2951 52.04 57.546L50.8999 58L49.7599 57.546C44.1083 55.2951 40.3999 49.8265 40.3999 43.7432V35Z" fill="#DD2033"/>
</mask>
<g mask="url(#mask1_40_2178)">
<rect x="40.3999" y="45" width="21" height="13" fill="#005EB8"/>
<path d="M50.8992 49C48.2744 49 48.2744 51.1819 45.6496 51.1819C43.0247 51.1819 43.0247 49 40.3999 49V52.8181C43.0247 52.8181 43.0247 55 45.6496 55C48.2744 55 48.2744 52.8181 50.8992 52.8181C53.5243 52.8181 53.5243 55 56.1496 55C58.7748 55 58.7747 52.8181 61.3999 52.8181V49C58.7748 49 58.7748 51.1819 56.1496 51.1819C53.5243 51.1819 53.5243 49 50.8992 49Z" fill="#F5F7F8"/>
<path d="M50.8992 42C48.2744 42 48.2744 44.1819 45.6496 44.1819C43.0247 44.1819 43.0247 42 40.3999 42V45.8181C43.0247 45.8181 43.0247 48 45.6496 48C48.2744 48 48.2744 45.8181 50.8992 45.8181C53.5243 45.8181 53.5243 48 56.1496 48C58.7748 48 58.7747 45.8181 61.3999 45.8181V42C58.7748 42 58.7748 44.1819 56.1496 44.1819C53.5243 44.1819 53.5243 42 50.8992 42Z" fill="#F5F7F8"/>
<rect x="43.3999" y="37" width="15" height="4" fill="#F1B434"/>
</g>
<mask id="mask2_40_2178" style="mask-type:alpha" maskUnits="userSpaceOnUse" x="0" y="0" width="36" height="36">
<path d="M0 36C-8.69081e-07 16.1178 16.1177 -7.04529e-07 36 -1.57361e-06L36 36L0 36Z" fill="#002F6C"/>
</mask>
<g mask="url(#mask2_40_2178)">
<rect x="-0.000244141" width="36" height="36" fill="#004692"/>
<path d="M12.5223 3.1339L10.401 5.25522L39.927 34.7812L42.0483 32.6599L12.5223 3.1339Z" fill="#F5F7F8"/>
<path d="M6.86549 8.79076L3.32996 12.3263L32.856 41.8523L36.3915 38.3168L6.86549 8.79076Z" fill="#F5F7F8"/>
<path d="M6.86549 8.79076L10.401 5.25522L39.927 34.7812L36.3915 38.3168L6.86549 8.79076Z" fill="#DD2033"/>
<path d="M36 11.9999V16.9999L17 16.9999L17 36H12V11.9999H36Z" fill="#F5F7F8"/>
<path d="M36 -2V3L5 3L5 36H0V-2H36Z" fill="#F5F7F8"/>
<path fill-rule="evenodd" clip-rule="evenodd" d="M3 36H12L12 12L36 12V3H12H3L3 12L3 36Z" fill="#DD2033"/>
</g>
</g>
</svg>
