<svg width="29" height="20" viewBox="0 0 29 20" fill="none" xmlns="http://www.w3.org/2000/svg">
<mask id="mask0_11482_6109" style="mask-type:alpha" maskUnits="userSpaceOnUse" x="0" y="0" width="29" height="20">
<rect width="29" height="20" fill="#D9D9D9"/>
</mask>
<g mask="url(#mask0_11482_6109)">
<rect width="29" height="20" fill="#004692"/>
<mask id="mask1_11482_6109" style="mask-type:alpha" maskUnits="userSpaceOnUse" x="0" y="0" width="15" height="12">
<path d="M0 12L-1.31134e-06 0L14.5 -2.53526e-07L14.5 12L0 12Z" fill="#002F6C"/>
</mask>
<g mask="url(#mask1_11482_6109)">
<rect x="3.05176e-05" width="14.5" height="14.4" fill="#004692"/>
<path d="M5.15183 0.401901L4.29741 1.25043L14.849 11.7292L15.7034 10.8807L5.15183 0.401901Z" fill="#F5F7F8"/>
<path d="M2.87338 2.66464L1.44934 4.07886L12.0009 14.5577L13.425 13.1435L2.87338 2.66464Z" fill="#F5F7F8"/>
<path d="M2.87338 2.66464L4.29741 1.25043L14.849 11.7292L13.425 13.1435L2.87338 2.66464Z" fill="#DD2033"/>
<path d="M2.41666 14H4.02846L4.02846 3.59999H14.5V2H2.41666V14Z" fill="#F5F7F8"/>
<path d="M0 14H2.41736L2.41736 1.99998H14.5007V0H0V14Z" fill="#DD2033"/>
</g>
<path d="M26.1806 14H17.7222V16H18.9306V17.2H24.9722V16H26.1806V14Z" fill="#FBD381"/>
<ellipse cx="21.9514" cy="3.80005" rx="1.00694" ry="1" fill="#FBD381"/>
<ellipse cx="21.9514" cy="7" rx="3.02083" ry="3" fill="#008259"/>
<path d="M17.7222 6.80005H26.1806V9.77937C26.1806 12.5242 24.5038 14.9905 21.9514 16C19.399 14.9905 17.7222 12.5242 17.7222 9.77937V6.80005Z" fill="#DD2033"/>
<mask id="mask2_11482_6109" style="mask-type:alpha" maskUnits="userSpaceOnUse" x="17" y="6" width="10" height="10">
<path d="M17.7222 6.80005H26.1806V9.77937C26.1806 12.5242 24.5038 14.9905 21.9514 16C19.399 14.9905 17.7222 12.5242 17.7222 9.77937V6.80005Z" fill="#DD2033"/>
</mask>
<g mask="url(#mask2_11482_6109)">
<rect x="17.7222" y="10.8" width="8.45833" height="5.2" fill="#005EB8"/>
<path d="M21.9511 12.4C20.8939 12.4 20.8939 13.2728 19.8367 13.2728C18.7795 13.2728 18.7795 12.4 17.7222 12.4V13.9273C18.7795 13.9273 18.7795 14.8 19.8367 14.8C20.8939 14.8 20.8939 13.9273 21.9511 13.9273C23.0085 13.9273 23.0085 14.8 24.0658 14.8C25.1232 14.8 25.1232 13.9273 26.1806 13.9273V12.4C25.1232 12.4 25.1232 13.2728 24.0658 13.2728C23.0085 13.2728 23.0085 12.4 21.9511 12.4Z" fill="#F5F7F8"/>
<path d="M21.9511 9.6001C20.8939 9.6001 20.8939 10.4728 19.8367 10.4728C18.7795 10.4728 18.7795 9.6001 17.7222 9.6001V11.1274C18.7795 11.1274 18.7795 12.0001 19.8367 12.0001C20.8939 12.0001 20.8939 11.1274 21.9511 11.1274C23.0085 11.1274 23.0085 12.0001 24.0658 12.0001C25.1232 12.0001 25.1232 11.1274 26.1806 11.1274V9.6001C25.1232 9.6001 25.1232 10.4728 24.0658 10.4728C23.0085 10.4728 23.0085 9.6001 21.9511 9.6001Z" fill="#F5F7F8"/>
<rect x="18.9306" y="7.6001" width="6.04167" height="1.6" fill="#F1B434"/>
</g>
</g>
</svg>
