<svg width="20" height="20" viewBox="0 0 20 20" fill="none" xmlns="http://www.w3.org/2000/svg">
<mask id="mask0_11482_6088" style="mask-type:alpha" maskUnits="userSpaceOnUse" x="0" y="0" width="20" height="20">
<circle cx="10" cy="10" r="10" fill="#D9D9D9"/>
</mask>
<g mask="url(#mask0_11482_6088)">
<rect width="20" height="20" fill="#004692"/>
<path d="M17.0555 14.7222H11.2222V16.1111H12.0555V16.9444H16.2222V16.1111H17.0555V14.7222Z" fill="#FBD381"/>
<circle cx="14.1389" cy="7.6389" r="0.694444" fill="#FBD381"/>
<circle cx="14.1389" cy="9.86117" r="2.08333" fill="#008259"/>
<path d="M11.2222 9.72217H17.0555V11.81C17.0555 13.7056 15.8999 15.4097 14.1389 16.1111C12.3778 15.4097 11.2222 13.7056 11.2222 11.81V9.72217Z" fill="#DD2033"/>
<mask id="mask1_11482_6088" style="mask-type:alpha" maskUnits="userSpaceOnUse" x="11" y="9" width="7" height="8">
<path d="M11.2222 9.72217H17.0555V11.81C17.0555 13.7056 15.8999 15.4097 14.1389 16.1111C12.3778 15.4097 11.2222 13.7056 11.2222 11.81V9.72217Z" fill="#DD2033"/>
</mask>
<g mask="url(#mask1_11482_6088)">
<rect x="11.2222" y="12.5" width="5.83333" height="3.61111" fill="#005EB8"/>
<path d="M14.1387 13.6111C13.4096 13.6111 13.4096 14.2172 12.6804 14.2172C11.9513 14.2172 11.9513 13.6111 11.2222 13.6111V14.6717C11.9513 14.6717 11.9513 15.2778 12.6804 15.2778C13.4096 15.2778 13.4096 14.6717 14.1387 14.6717C14.8679 14.6717 14.8679 15.2778 15.5971 15.2778C16.3263 15.2778 16.3263 14.6717 17.0555 14.6717V13.6111C16.3263 13.6111 16.3263 14.2172 15.5971 14.2172C14.8679 14.2172 14.8679 13.6111 14.1387 13.6111Z" fill="#F5F7F8"/>
<path d="M14.1387 11.6666C13.4096 11.6666 13.4096 12.2727 12.6804 12.2727C11.9513 12.2727 11.9513 11.6666 11.2222 11.6666V12.7272C11.9513 12.7272 11.9513 13.3333 12.6804 13.3333C13.4096 13.3333 13.4096 12.7272 14.1387 12.7272C14.8679 12.7272 14.8679 13.3333 15.5971 13.3333C16.3263 13.3333 16.3263 12.7272 17.0555 12.7272V11.6666C16.3263 11.6666 16.3263 12.2727 15.5971 12.2727C14.8679 12.2727 14.8679 11.6666 14.1387 11.6666Z" fill="#F5F7F8"/>
<rect x="12.0555" y="10.2777" width="4.16667" height="1.11111" fill="#F1B434"/>
</g>
<mask id="mask2_11482_6088" style="mask-type:alpha" maskUnits="userSpaceOnUse" x="0" y="0" width="10" height="10">
<path d="M0 10C-8.69081e-07 4.47715 4.47715 -5.43618e-08 10 -1.21421e-07L10 10L0 10Z" fill="#002F6C"/>
</mask>
<g mask="url(#mask2_11482_6088)">
<rect x="-0.000244141" width="10" height="10" fill="#004692"/>
<path d="M3.47843 0.870508L2.88917 1.45976L11.0908 9.66143L11.6801 9.07217L3.47843 0.870508Z" fill="#F5F7F8"/>
<path d="M1.90708 2.44186L0.924989 3.42395L9.12665 11.6256L10.1087 10.6435L1.90708 2.44186Z" fill="#F5F7F8"/>
<path d="M1.90708 2.44186L2.88917 1.45976L11.0908 9.66143L10.1087 10.6435L1.90708 2.44186Z" fill="#DD2033"/>
<path d="M9.99998 3.33337V4.72226L4.7222 4.72226L4.7222 10H3.33331V3.33337H9.99998Z" fill="#F5F7F8"/>
<path d="M10 -0.555542V0.833347L1.38889 0.833346L1.38889 10H0V-0.555542H10Z" fill="#F5F7F8"/>
<path fill-rule="evenodd" clip-rule="evenodd" d="M0.833313 10H3.33331L3.33331 3.33337L9.99998 3.33337V0.833374H3.33331H0.833314L0.833314 3.33337L0.833313 10Z" fill="#DD2033"/>
</g>
</g>
</svg>
