<svg width="72" height="72" viewBox="0 0 72 72" fill="none" xmlns="http://www.w3.org/2000/svg">
<mask id="mask0_40_2179" style="mask-type:alpha" maskUnits="userSpaceOnUse" x="0" y="0" width="72" height="72">
<circle cx="36" cy="36" r="36" fill="#D9D9D9"/>
</mask>
<g mask="url(#mask0_40_2179)">
<rect width="72" height="72" fill="#3CCBDA"/>
<path d="M16.2002 16.9715L6.2002 26.9715L6.2002 0H16.2002L16.2002 16.9715Z" fill="#FBD381"/>
<path d="M6.2002 32.6283L6.2002 39.3717L16.2002 49.3717L16.2002 22.6283L6.2002 32.6283Z" fill="#FBD381"/>
<path d="M6.2002 45.0286L16.2002 55.0286L16.2002 72H6.2002L6.2002 45.0286Z" fill="#FBD381"/>
<path d="M56.2002 27.9999L51.2968 30.4246L53.9078 35.4165L48.5835 34.3458L47.9088 40L44.2001 35.8415L40.4916 40L39.8169 34.3458L34.4924 35.4163L37.1035 30.4244L32.2002 27.9999L37.1037 25.5754L34.4924 20.5837L39.8167 21.6542L40.4917 16L44.2001 20.1585L47.909 16L48.5835 21.6542L53.908 20.5837L51.297 25.5756L56.2002 27.9999Z" fill="#FBD381"/>
<path d="M60.636 33C60.0638 34.9124 59.1759 36.7667 57.9611 38.4806C55.5355 41.903 52.1967 44.2154 48.5772 45.306C47.6156 45.5958 46.6343 45.7993 45.645 45.9145C45.5727 45.9229 45.5004 45.9308 45.428 45.9383C45.1858 45.9633 44.9431 45.9831 44.7002 45.9975L33.8938 57L45.4399 54.9525C46.5417 54.8689 47.6341 54.6753 48.7002 54.3743C50.0428 53.9954 51.3439 53.4462 52.5703 52.7322C54.6143 51.5422 56.4508 49.8943 57.9258 47.8132C61.0694 43.3778 61.8955 37.9279 60.636 33Z" fill="#FBD381"/>
<path d="M40.0889 45.6206C37.9093 45.1246 35.8005 44.1702 33.8937 42.734C30.7393 40.3581 28.6352 37.0381 27.6651 33.3904C26.1228 40.0372 28.4539 47.2859 34.1224 51.5871L40.0889 45.6206Z" fill="#FBD381"/>
</g>
</svg>
