<svg width="29" height="20" viewBox="0 0 29 20" fill="none" xmlns="http://www.w3.org/2000/svg">
<mask id="mask0_11482_6135" style="mask-type:alpha" maskUnits="userSpaceOnUse" x="0" y="0" width="29" height="20">
<rect width="29" height="20" fill="#D9D9D9"/>
</mask>
<g mask="url(#mask0_11482_6135)">
<rect width="29" height="20" fill="#3CCBDA"/>
<path d="M6.52508 2.38856L2.4973 6.38856L2.4973 -4.40002H6.52508L6.52508 2.38856Z" fill="#FBD381"/>
<path d="M2.4973 8.6513L2.4973 11.3487L6.52507 15.3487L6.52508 4.6513L2.4973 8.6513Z" fill="#FBD381"/>
<path d="M2.4973 13.6114L6.52507 17.6114L6.52507 24.4H2.4973L2.4973 13.6114Z" fill="#FBD381"/>
<path d="M22.6362 6.79994L20.6612 7.76982L21.7129 9.76659L19.5683 9.33828L19.2966 11.6L17.8028 9.93657L16.3091 11.6L16.0374 9.33828L13.8928 9.76651L14.9445 7.76975L12.9695 6.79994L14.9445 5.83013L13.8928 3.83344L16.0373 4.26167L16.3092 1.99998L17.8028 3.66338L19.2967 1.99998L19.5683 4.26167L21.7129 3.83344L20.6613 5.8302L22.6362 6.79994Z" fill="#FBD381"/>
<path d="M24.4228 8.79997C24.1924 9.56492 23.8347 10.3066 23.3454 10.9922C22.3685 12.3612 21.0237 13.2861 19.5658 13.7224C19.1785 13.8383 18.7832 13.9197 18.3848 13.9658C18.3557 13.9691 18.3265 13.9723 18.2974 13.9753C18.1998 13.9853 18.1021 13.9932 18.0043 13.999L13.6517 18.4L18.3022 17.581C18.746 17.5475 19.1859 17.4701 19.6154 17.3497C20.1561 17.1981 20.6802 16.9785 21.1741 16.6929C21.9974 16.2169 22.7371 15.5577 23.3312 14.7252C24.5974 12.9511 24.9301 10.7711 24.4228 8.79997Z" fill="#FBD381"/>
<path d="M16.1469 13.8482C15.269 13.6498 14.4196 13.2681 13.6516 12.6936C12.3811 11.7432 11.5336 10.4152 11.1429 8.95614C10.5217 11.6148 11.4606 14.5143 13.7437 16.2348L16.1469 13.8482Z" fill="#FBD381"/>
</g>
</svg>
