<svg width="20" height="20" viewBox="0 0 20 20" fill="none" xmlns="http://www.w3.org/2000/svg">
<mask id="mask0_11482_6131" style="mask-type:alpha" maskUnits="userSpaceOnUse" x="0" y="0" width="20" height="20">
<circle cx="10" cy="10" r="10" fill="#D9D9D9"/>
</mask>
<g mask="url(#mask0_11482_6131)">
<rect width="20" height="20" fill="#3CCBDA"/>
<path d="M4.50005 4.7143L1.72228 7.49207L1.72228 0H4.50005L4.50005 4.7143Z" fill="#FBD381"/>
<path d="M1.72228 9.06342L1.72228 10.9366L4.50005 13.7144L4.50005 6.28565L1.72228 9.06342Z" fill="#FBD381"/>
<path d="M1.72228 12.5079L4.50005 15.2857L4.50005 20H1.72227L1.72228 12.5079Z" fill="#FBD381"/>
<path d="M15.6112 7.77775L14.2491 8.45128L14.9744 9.83792L13.4954 9.54049L13.308 11.1111L12.2778 9.95597L11.2477 11.1111L11.0603 9.54049L9.58122 9.83787L10.3065 8.45123L8.9445 7.77775L10.3066 7.10427L9.58122 5.71768L11.0602 6.01507L11.2477 4.44444L12.2778 5.59959L13.308 4.44444L13.4954 6.01507L14.9744 5.71768L14.2492 7.10432L15.6112 7.77775Z" fill="#FBD381"/>
<path d="M16.8433 9.16667C16.6844 9.69788 16.4377 10.213 16.1003 10.6891C15.4265 11.6397 14.4991 12.282 13.4937 12.585C13.2266 12.6655 12.954 12.722 12.6792 12.754C12.6591 12.7564 12.639 12.7586 12.6189 12.7606C12.5516 12.7676 12.4842 12.7731 12.4167 12.7771L9.41494 15.8333L12.6222 15.2646C12.9283 15.2414 13.2317 15.1876 13.5278 15.104C13.9008 14.9987 14.2622 14.8462 14.6029 14.6478C15.1706 14.3173 15.6808 13.8595 16.0905 13.2814C16.9637 12.0494 17.1932 10.5355 16.8433 9.16667Z" fill="#FBD381"/>
<path d="M11.1358 12.6724C10.5304 12.5346 9.94457 12.2695 9.41493 11.8706C8.53869 11.2106 7.95421 10.2884 7.68474 9.27512C7.25634 11.1214 7.90387 13.135 9.47843 14.3298L11.1358 12.6724Z" fill="#FBD381"/>
</g>
</svg>
