<svg width="20" height="20" viewBox="0 0 20 20" fill="none" xmlns="http://www.w3.org/2000/svg">
<mask id="mask0_11482_6179" style="mask-type:alpha" maskUnits="userSpaceOnUse" x="0" y="0" width="20" height="20">
<circle cx="10" cy="10" r="10" fill="#D9D9D9"/>
</mask>
<g mask="url(#mask0_11482_6179)">
<rect x="-0.111084" y="20" width="10" height="20" transform="rotate(-90 -0.111084 20)" fill="#DD2033"/>
<rect x="-0.111084" y="10" width="10" height="20" transform="rotate(-90 -0.111084 10)" fill="#004692"/>
<path fill-rule="evenodd" clip-rule="evenodd" d="M6.77777 2.22217H7.6111V2.77772L8.44444 2.77772V3.61106H7.6111V4.38958C7.85625 4.24777 8.14087 4.16661 8.44444 4.16661C9.36491 4.16661 10.1111 4.9128 10.1111 5.83328C10.1111 6.32689 9.89652 6.77038 9.55555 7.07556V7.77772H4.83333V7.07556C4.49235 6.77038 4.27777 6.32689 4.27777 5.83328C4.27777 4.9128 5.02396 4.16661 5.94444 4.16661C6.24801 4.16661 6.53263 4.24777 6.77777 4.38958V3.61106H5.94444V2.77772L6.77777 2.77772V2.22217ZM7.19444 4.73085L7.18672 4.72217H7.20216L7.19444 4.73085ZM7.18672 6.94439L7.19444 6.93571L7.20216 6.94439H7.18672Z" fill="#F1B434"/>
</g>
</svg>
