<svg width="72" height="72" viewBox="0 0 72 72" fill="none" xmlns="http://www.w3.org/2000/svg">
<mask id="mask0_41_3008" style="mask-type:alpha" maskUnits="userSpaceOnUse" x="0" y="0" width="72" height="72">
<circle cx="36" cy="36" r="36" fill="#D9D9D9"/>
</mask>
<g mask="url(#mask0_41_3008)">
<rect width="72" height="72" fill="#F1B434"/>
<rect x="14" y="6" width="16" height="60" fill="#E26E00"/>
<rect x="38" y="6" width="38" height="60" fill="#A00009"/>
<rect y="6" width="14" height="60" fill="#005B33"/>
<path fill-rule="evenodd" clip-rule="evenodd" d="M53.7495 27.5961L56.0176 30.4063C56.1296 30.6543 56.1857 31.1502 55.5136 31.1502C54.6735 31.1502 50.4732 29.5798 50.4732 29.5798L49.2131 30.9022C49.1571 31.1502 49.0619 31.6461 49.1291 31.6461C49.1963 31.6461 50.4452 31.5359 51.0613 31.4808L50.6412 32.3074L51.8173 31.9767L52.5734 32.5553L52.7414 31.9767L53.7495 33.2166C53.9175 32.9135 54.3375 32.3239 54.6736 32.39C55.0936 32.4727 55.2616 33.0512 55.0936 33.2166C55.0865 33.2235 55.0795 33.2305 55.0724 33.2378L55.0598 33.2507C55.0458 33.2652 55.0313 33.2805 55.0161 33.2966C54.8573 33.4645 54.608 33.7279 53.7495 34.2911C52.7414 34.9523 51.3133 36.3574 51.0613 37.0187C51.0167 37.1356 50.9537 37.2551 50.8808 37.3936C50.541 38.0386 49.984 39.0961 50.0532 42.2259C49.1571 41.4269 47.1129 39.5479 46.1049 38.4238V38.0932C46.3849 38.0381 46.9449 37.746 46.9449 37.0187C46.9449 36.2913 46.3849 36.0544 46.1049 36.0268H45.3488L45.6848 26.1909L46.1049 21.8929C46.7097 19.5786 46.7489 19 46.6929 19C45.8248 19.4684 43.9039 21.1821 43.1646 24.2899C42.6942 25.8107 42.6326 27.7338 42.6606 28.5053V36.0268L42.8286 36.3574C42.3805 36.2472 41.4172 36.1921 41.1484 36.8533C40.8796 37.5146 41.0364 37.8452 41.1484 37.9279C41.3724 38.1207 41.9717 38.556 42.5765 38.7544C42.3805 39.1401 42.0725 40.2918 42.4085 41.8126C42.4365 42.033 42.6101 42.6226 43.0806 43.2177V43.4657L41.9885 43.383C41.7949 43.4647 41.6395 43.6753 42.5419 43.8716L42.5765 43.879L43.0806 43.9852C42.8565 44.3906 42.4352 45.2014 42.5419 45.2014C42.6487 45.2014 42.8895 45.6423 42.9966 45.8627C43.0246 46.028 43.0638 46.4413 42.9966 46.7719C42.9293 47.1025 42.5765 47.1851 42.4085 47.1851C42.1564 46.6892 41.8205 46.8545 41.6524 47.1851C41.518 47.4497 41.8205 47.7362 41.9885 47.8464L42.8286 48.3423C42.8286 48.6068 42.6375 48.8382 42.5419 48.9209L42.5765 49.1689H43.4166C43.5006 49.4995 43.7358 50.1607 44.0046 50.1607C44.2735 50.1607 44.4527 49.4995 44.5087 49.1689C44.9007 49.0862 45.6176 48.9209 45.3488 48.9209C45.08 48.9209 44.9007 48.425 44.8447 48.177C45.2648 48.0668 46.0544 47.7141 45.8528 47.1851C45.6511 46.6562 45.3207 46.9648 45.1807 47.1851L44.8447 47.0198C44.7327 46.827 44.5087 46.3256 44.5087 45.8627C44.5087 45.3998 44.7327 44.8984 44.8447 44.7055C44.4415 44.3088 44.4527 43.8239 44.5087 43.631C45.5572 44.0558 45.4283 43.5449 45.3523 43.2434C45.3248 43.1342 45.3041 43.0524 45.3488 43.0524C45.4832 43.0524 45.7408 42.6667 45.8528 42.4738L46.1049 42.8045C46.1049 44.5402 46.3568 45.5321 46.6089 45.5321C46.8105 45.5321 47.3089 45.1464 47.5329 44.9535C48.093 45.5596 49.4147 46.7884 50.2211 46.8545C51.0276 46.9206 52.1253 45.78 52.5733 45.2014C52.5733 45.6147 54.7575 46.4413 55.2616 46.6066C55.6126 46.7217 55.8007 48.3604 55.9392 49.5679C55.9996 50.0942 56.0506 50.5386 56.1016 50.7393C56.2361 51.2683 55.2616 51.9515 54.7575 52.2271H52.5733C52.2933 52.3648 51.6997 52.7891 51.5653 53.3842C51.4308 53.9794 51.7333 53.9628 51.9013 53.8802L52.5733 53.5495C53.111 54.2769 54.0855 53.8526 54.5055 53.5495C55.1103 54.2769 56.1576 53.9628 56.6057 53.7148C56.7177 53.7699 57.1265 53.8802 57.8658 53.8802C58.7899 53.8802 59.1259 53.0536 58.7899 52.6403C58.521 52.3097 58.6779 51.5658 58.7899 51.2352C60.6044 51.2352 61.17 49.8577 61.2261 49.1689H59.9659C59.0251 49.3011 59.1259 48.3423 59.2939 47.8464C59.6299 47.3229 60.3692 46.1602 60.638 45.6974C60.9068 45.2345 65.3424 43.6861 67.5266 42.9698H69.7107C69.5763 44.2261 69.7668 44.7055 69.8788 44.7882L72.231 48.2597V51.8138C72.231 52.0122 71.7829 52.172 71.5589 52.2271C71.0829 52.2822 70.0468 52.3924 69.7107 52.3924C69.3747 52.3924 69.0667 52.8332 68.9547 53.0536C68.4842 53.9132 68.8707 53.9628 69.1227 53.8802L69.8788 53.5495C70.618 54.2769 71.4189 53.8526 71.7269 53.5495C72.4662 54.2769 73.211 53.8526 73.4911 53.5495C73.8901 54.0076 74.3419 53.9476 74.6795 53.9027C74.7172 53.8977 74.7535 53.8929 74.7882 53.889C74.8351 53.8837 74.8789 53.8802 74.9192 53.8802C75.188 53.8802 75.1432 51.9515 75.0872 50.9873C75.7592 50.5905 76.2633 49.1689 76.4313 48.5076C75.8993 48.5627 74.8184 48.458 74.7512 47.5984C74.6839 46.7388 75.3952 46.3586 75.7592 46.2759C76.6833 46.8821 78.5819 48.2431 78.7835 48.8382C78.9851 49.4334 78.6995 51.0699 78.5315 51.8138C77.8314 52.0618 76.3473 52.5742 76.0113 52.6403C75.5912 52.723 75.2552 53.7148 75.5912 53.8802C75.86 54.0124 76.2633 53.6046 76.4313 53.3842C76.9689 54.31 77.8874 53.7699 78.2794 53.3842C78.9515 54.1116 79.7916 53.6873 80.1276 53.3842C80.5308 53.9794 81.6397 53.8526 82.1438 53.7148C81.9758 53.3842 81.5557 52.6238 81.2197 52.2271C80.8837 51.8303 81.0797 51.0699 81.2197 50.7393C81.3597 50.6291 81.7909 50.2599 82.3958 49.6648C83.1518 48.9209 82.8158 48.5076 82.1438 48.2597C81.6061 48.0613 81.1917 46.6892 81.0517 46.028C80.7829 45.0361 81.6677 42.7494 82.1438 41.73C82.5638 40.8208 83.2527 38.5064 82.6478 36.5227C82.4075 35.7344 82.1162 35.1383 81.7551 34.6865C82.1951 34.5056 82.703 34.2179 83.1516 33.8081C83.7789 33.235 84.329 32.3815 84.329 31.2408C84.329 30.0932 83.7719 29.2576 83.1242 28.7114C82.4978 28.1831 81.7618 27.8982 81.2464 27.7895L81.1506 27.7693H72.2239L72.2158 27.7694C71.5178 27.7815 70.4898 27.6419 69.6821 27.2291C69.6348 27.2049 69.5886 27.18 69.5434 27.1543C69.7218 26.6086 70.1612 25.8974 70.9948 25.9173C70.7784 25.2876 69.9761 24.3893 68.4649 25.6375C68.4533 25.5339 68.4487 25.4253 68.4514 25.3113C68.4749 24.3405 68.9894 23.7801 69.7333 23.4223C70.2863 23.1563 70.9355 23.0259 71.5035 22.9834L71.3394 23.0181C71.8602 23.3836 72.759 24.4052 72.1882 25.5669C72.944 25.6246 74.246 25.1882 73.9202 23.1098C74.2712 23.1569 74.6447 23.2191 75.0272 23.3009L74.8707 23.2967C75.2079 23.7491 75.6642 24.8908 74.7919 25.8382C75.4329 26.0579 76.709 25.942 77.0943 23.9546C77.6539 24.2052 78.1639 24.513 78.583 24.8879C78.7478 25.0353 78.9078 25.1792 79.0631 25.3189C79.7557 25.9418 80.3562 26.4819 80.8766 26.8773C81.4972 27.3486 82.1934 27.7693 82.9849 27.7693V27.7597C83.1423 27.8143 83.3116 27.844 83.4879 27.844C84.323 27.844 85 27.1779 85 26.3562C85 25.5346 84.323 24.8685 83.4879 24.8685C82.9424 24.8685 82.4643 25.1526 82.1984 25.5788C82.1384 25.5366 82.0743 25.4897 82.0059 25.4378C81.5522 25.0932 81.0255 24.6198 80.3371 24.0008C80.176 23.856 80.0061 23.7033 79.8262 23.5424C78.651 22.4912 77.0914 21.9133 75.7111 21.5893C74.3262 21.2642 73.027 21.173 72.2659 21.1574C71.3911 21.1129 70.0722 21.2352 68.9216 21.7886C67.7152 22.3689 66.6475 23.4616 66.6038 25.268C66.5812 26.203 66.8489 26.956 67.2778 27.5512C66.1136 29.067 67.0506 29.8083 67.6946 29.993C67.6509 29.3477 68.0789 28.924 68.5298 28.6764C68.6285 28.7355 68.7288 28.7909 68.83 28.8427C69.9887 29.4349 71.3416 29.602 72.2398 29.5877H80.9438C81.2141 29.659 81.6029 29.8233 81.9215 30.092C82.2539 30.3724 82.4809 30.7353 82.4809 31.2408C82.4809 31.7532 82.2469 32.1532 81.8941 32.4756C81.5358 32.8029 81.0966 33.0063 80.8205 33.0879L79.3411 33.4188C79.0143 33.3638 78.6613 33.326 78.2794 33.2992C76.3977 33.167 69.0947 33.5196 65.6784 33.7125C64.8048 33.7786 64.5863 32.3624 64.5863 31.6461C64.9896 32.0428 65.3704 31.8114 65.5104 31.6461C64.9056 31.051 65.0344 30.3512 65.1744 30.0757C65.5104 30.0757 65.5384 29.7451 65.5104 29.5798V26.1909C65.5104 25.5297 65.0064 24.9236 64.7543 24.7032C65.8968 24.4387 66.0144 23.0501 65.9304 22.3888C65.5384 22.8572 64.6199 23.6286 64.0823 22.9674C63.4102 22.1409 62.4021 21.8929 62.0661 21.8929C61.7973 21.8929 61.5621 22.6092 61.4781 22.9674C61.086 22.5541 60.1844 21.7111 59.7139 21.6449C59.2435 21.5788 59.0699 22.499 59.0419 22.9674H58.6218C56.4377 21.6449 55.7656 22.5541 56.0176 22.9674C56.2193 23.298 55.4856 23.7664 55.0936 23.9593C54.556 23.8931 52.3494 24.3174 51.3132 24.5378V23.546C50.4396 22.6864 49.6611 23.1878 49.3811 23.546V25.7777L52.1533 28.2573L52.4053 27.5961L53.3294 28.2573L53.7495 27.5961ZM68.8708 26.6106L68.6868 26.3442C68.7401 26.4388 68.8016 26.5274 68.8708 26.6106Z" fill="#F1B434"/>
</g>
</svg>
