<svg width="72" height="72" viewBox="0 0 72 72" fill="none" xmlns="http://www.w3.org/2000/svg">
<mask id="mask0_41_3008" style="mask-type:alpha" maskUnits="userSpaceOnUse" x="0" y="0" width="72" height="72">
<circle cx="36" cy="36" r="36" fill="#D9D9D9"/>
</mask>
<g mask="url(#mask0_41_3008)">
<rect width="72" height="72" fill="#F1B434"/>
<rect x="14.2002" y="6" width="16" height="60" fill="#E26E00"/>
<rect x="-1.7998" y="6" width="16" height="60" fill="#005B33"/>
<path fill-rule="evenodd" clip-rule="evenodd" d="M72.2002 6H36.2002V66H72.2002V45.3315C71.826 45.4001 71.4404 45.4359 71.0464 45.4359H61.5079V51H55.9438V47.8205H58.3284V44.9737C56.8794 44.3871 55.6957 43.2819 55.0077 41.8883L51.9694 40.1341V43.8462C51.9694 44.7241 51.2577 45.4359 50.3797 45.4359C49.5017 45.4359 48.7899 44.7241 48.7899 43.8462V35.8974H47.2002V35.1025H48.7899V23.1795C48.7899 21.4235 50.2134 20 51.9694 20L51.9694 35.5449L54.6667 37.1022C55.4974 34.557 57.8904 32.718 60.713 32.718H71.0464C71.4404 32.718 71.826 32.7538 72.2002 32.8224V6ZM62.7002 25.5641L65.4822 22.782L65.4823 32.7179H54.3541V31.2041L54.1366 31.2551L53.8868 28.7177L54.3541 28.9228V25.5641H62.7002Z" fill="#A00009"/>
</g>
</svg>
