<svg width="29" height="20" viewBox="0 0 29 20" fill="none" xmlns="http://www.w3.org/2000/svg">
<mask id="mask0_11482_6198" style="mask-type:alpha" maskUnits="userSpaceOnUse" x="0" y="0" width="29" height="20">
<rect width="29" height="20" fill="#D9D9D9"/>
</mask>
<g mask="url(#mask0_11482_6198)">
<rect width="29" height="20" fill="#F1B434"/>
<rect x="6.04169" y="2" width="3.22222" height="16" fill="#E26E00"/>
<rect x="12.4861" y="2" width="16.5139" height="16" fill="#A00009"/>
<path fill-rule="evenodd" clip-rule="evenodd" d="M18.404 7.55773L19.0269 8.32854C19.0577 8.39655 19.0731 8.53258 18.8885 8.53258C18.6578 8.53258 17.5043 8.10183 17.5043 8.10183L17.1583 8.46456C17.1429 8.53258 17.1167 8.6686 17.1352 8.6686C17.1536 8.6686 17.4966 8.63837 17.6658 8.62326L17.5505 8.84997L17.8734 8.75929L18.0811 8.91798L18.1272 8.75929L18.404 9.09935C18.4502 9.01623 18.5655 8.85451 18.6578 8.87264C18.7732 8.89531 18.8193 9.05401 18.7732 9.09935C18.7712 9.10124 18.7693 9.10318 18.7673 9.10517L18.7639 9.10871C18.76 9.1127 18.7561 9.11688 18.7519 9.1213C18.7083 9.16735 18.6398 9.2396 18.404 9.39407C18.1272 9.57544 17.735 9.96084 17.6658 10.1422C17.6536 10.1743 17.6363 10.2071 17.6162 10.2451C17.5229 10.422 17.37 10.712 17.389 11.5705C17.1429 11.3513 16.5815 10.8359 16.3047 10.5276V10.4369C16.3816 10.4218 16.5354 10.3417 16.5354 10.1422C16.5354 9.94271 16.3816 9.87772 16.3047 9.87016H16.097L16.1893 7.17232L16.3047 5.99343C16.4708 5.35865 16.4815 5.19995 16.4662 5.19995C16.2278 5.32842 15.7002 5.79846 15.4972 6.65089C15.368 7.06803 15.3511 7.59551 15.3588 7.80711V9.87016L15.4049 9.96084C15.2819 9.93061 15.0174 9.9155 14.9435 10.0969C14.8697 10.2782 14.9128 10.3689 14.9435 10.3916C15.005 10.4445 15.1696 10.5639 15.3357 10.6183C15.2819 10.7241 15.1973 11.04 15.2896 11.4571C15.2973 11.5176 15.3449 11.6793 15.4741 11.8425V11.9105L15.1742 11.8879C15.1211 11.9103 15.0784 11.968 15.3262 12.0219L15.3357 12.0239L15.4741 12.053C15.4126 12.1642 15.2969 12.3866 15.3262 12.3866C15.3555 12.3866 15.4217 12.5075 15.4511 12.568C15.4588 12.6133 15.4695 12.7267 15.4511 12.8174C15.4326 12.9081 15.3357 12.9307 15.2896 12.9307C15.2204 12.7947 15.1281 12.8401 15.0819 12.9307C15.045 13.0033 15.1281 13.0819 15.1742 13.1121L15.4049 13.2481C15.4049 13.3207 15.3525 13.3842 15.3262 13.4068L15.3357 13.4748H15.5664C15.5895 13.5655 15.6541 13.7469 15.7279 13.7469C15.8017 13.7469 15.8509 13.5655 15.8663 13.4748C15.974 13.4522 16.1709 13.4068 16.097 13.4068C16.0232 13.4068 15.974 13.2708 15.9586 13.2028C16.074 13.1726 16.2908 13.0758 16.2355 12.9307C16.1801 12.7856 16.0893 12.8703 16.0509 12.9307L15.9586 12.8854C15.9279 12.8325 15.8663 12.695 15.8663 12.568C15.8663 12.441 15.9279 12.3035 15.9586 12.2506C15.8479 12.1418 15.8509 12.0088 15.8663 11.9559C16.1543 12.0724 16.1189 11.9323 16.098 11.8496C16.0904 11.8196 16.0848 11.7972 16.097 11.7972C16.134 11.7972 16.2047 11.6914 16.2355 11.6385L16.3047 11.7292C16.3047 12.2053 16.3739 12.4773 16.4431 12.4773C16.4984 12.4773 16.6353 12.3715 16.6969 12.3186C16.8507 12.4849 17.2136 12.8219 17.4351 12.8401C17.6566 12.8582 17.958 12.5453 18.0811 12.3866C18.0811 12.5 18.6809 12.7267 18.8193 12.772C18.9157 12.8036 18.9673 13.2531 19.0054 13.5843C19.022 13.7286 19.036 13.8505 19.05 13.9056C19.0869 14.0507 18.8193 14.2381 18.6809 14.3137H18.0811C18.0042 14.3514 17.8411 14.4678 17.8042 14.6311C17.7673 14.7943 17.8504 14.7898 17.8965 14.7671L18.0811 14.6764C18.2287 14.8759 18.4963 14.7595 18.6117 14.6764C18.7778 14.8759 19.0654 14.7898 19.1884 14.7217C19.2192 14.7368 19.3315 14.7671 19.5345 14.7671C19.7882 14.7671 19.8805 14.5404 19.7882 14.427C19.7144 14.3363 19.7575 14.1323 19.7882 14.0416C20.2866 14.0416 20.4419 13.6638 20.4573 13.4748H20.1112C19.8528 13.5111 19.8805 13.2481 19.9267 13.1121C20.0189 12.9685 20.222 12.6496 20.2958 12.5227C20.3696 12.3957 21.5877 11.971 22.1875 11.7745H22.7874C22.7504 12.1191 22.8027 12.2506 22.8335 12.2733L23.4795 13.2255V14.2003C23.4795 14.2547 23.3564 14.2986 23.2949 14.3137C23.1642 14.3288 22.8796 14.359 22.7874 14.359C22.6951 14.359 22.6105 14.4799 22.5797 14.5404C22.4505 14.7761 22.5567 14.7898 22.6259 14.7671L22.8335 14.6764C23.0365 14.8759 23.2564 14.7595 23.341 14.6764C23.5441 14.8759 23.7486 14.7595 23.8255 14.6764C23.9351 14.802 24.0592 14.7856 24.1519 14.7733C24.1622 14.7719 24.1722 14.7706 24.1817 14.7695C24.1946 14.7681 24.2066 14.7671 24.2177 14.7671C24.2915 14.7671 24.2792 14.2381 24.2638 13.9736C24.4484 13.8648 24.5868 13.4748 24.633 13.2935C24.4868 13.3086 24.19 13.2799 24.1716 13.0441C24.1531 12.8083 24.3484 12.704 24.4484 12.6814C24.7022 12.8476 25.2236 13.2209 25.2789 13.3842C25.3343 13.5474 25.2558 13.9963 25.2097 14.2003C25.0175 14.2683 24.6099 14.4089 24.5176 14.427C24.4023 14.4497 24.31 14.7217 24.4023 14.7671C24.4761 14.8034 24.5868 14.6915 24.633 14.6311C24.7806 14.885 25.0328 14.7368 25.1405 14.6311C25.3251 14.8306 25.5558 14.7142 25.648 14.6311C25.7588 14.7943 26.0633 14.7595 26.2017 14.7217C26.1556 14.6311 26.0402 14.4225 25.948 14.3137C25.8557 14.2048 25.9095 13.9963 25.948 13.9056C25.9864 13.8754 26.1048 13.7741 26.2709 13.6109C26.4786 13.4068 26.3863 13.2935 26.2017 13.2255C26.0541 13.171 25.9403 12.7947 25.9018 12.6133C25.828 12.3413 26.071 11.7141 26.2017 11.4345C26.3171 11.1851 26.5062 10.5503 26.3401 10.0062C26.2741 9.78997 26.1941 9.62645 26.095 9.50252C26.2158 9.45291 26.3553 9.37401 26.4785 9.2616C26.6508 9.10442 26.8018 8.87029 26.8018 8.55742C26.8018 8.24265 26.6488 8.01346 26.471 7.86365C26.299 7.71875 26.0968 7.64059 25.9553 7.61078L25.929 7.60524H23.4775L23.4753 7.60528C23.2836 7.60859 23.0013 7.57031 22.7795 7.45706C22.7665 7.45043 22.7538 7.4436 22.7414 7.43656C22.7904 7.28688 22.9111 7.09181 23.14 7.09728C23.0805 6.92455 22.8602 6.67817 22.4452 7.02052C22.442 6.99212 22.4408 6.96232 22.4415 6.93105C22.448 6.66478 22.5892 6.51107 22.7936 6.41292C22.9454 6.33997 23.1237 6.30418 23.2797 6.29255L23.2346 6.30206C23.3776 6.40232 23.6245 6.68251 23.4677 7.00117C23.6753 7.01699 24.0328 6.89729 23.9434 6.3272C24.0397 6.34012 24.1423 6.3572 24.2474 6.37962L24.2044 6.37847C24.297 6.50257 24.4223 6.81572 24.1827 7.07557C24.3588 7.13583 24.7092 7.10405 24.815 6.55893C24.9687 6.62768 25.1088 6.71209 25.2239 6.81492C25.2691 6.85534 25.313 6.89481 25.3557 6.93314C25.5459 7.104 25.7108 7.25214 25.8537 7.36057C26.0242 7.48984 26.2154 7.60524 26.4327 7.60524V7.60262C26.4759 7.61759 26.5224 7.62574 26.5708 7.62574C26.8002 7.62574 26.9861 7.44304 26.9861 7.21766C26.9861 6.99229 26.8002 6.80959 26.5708 6.80959C26.421 6.80959 26.2898 6.88753 26.2167 7.00441C26.2002 6.99284 26.1826 6.97999 26.1639 6.96575C26.0393 6.87123 25.8946 6.74137 25.7056 6.57161C25.6613 6.5319 25.6147 6.49 25.5653 6.44587C25.2425 6.15754 24.8142 5.99903 24.4352 5.91015C24.0548 5.82098 23.6981 5.79598 23.489 5.7917C23.2488 5.77948 22.8866 5.81303 22.5706 5.96483C22.2393 6.124 21.9461 6.4237 21.9341 6.91918C21.9279 7.17563 22.0014 7.38218 22.1192 7.54541C21.7995 7.96119 22.0568 8.1645 22.2337 8.21518C22.2217 8.03819 22.3392 7.92197 22.463 7.85404C22.4901 7.87025 22.5177 7.88545 22.5455 7.89965C22.8637 8.06211 23.2352 8.10793 23.4819 8.104H25.8722C25.9464 8.12357 26.0532 8.16864 26.1407 8.24234C26.232 8.31924 26.2943 8.41878 26.2943 8.55742C26.2943 8.69797 26.2301 8.80768 26.1332 8.89611C26.0348 8.98588 25.9141 9.04169 25.8383 9.06407L25.4321 9.15481C25.3423 9.13973 25.2454 9.12938 25.1405 9.12202C24.6237 9.08574 22.6182 9.18247 21.68 9.23537C21.4401 9.25351 21.3801 8.86508 21.3801 8.6686C21.4908 8.77742 21.5954 8.71394 21.6338 8.6686C21.4677 8.50537 21.5031 8.31343 21.5416 8.23785C21.6338 8.23785 21.6415 8.14717 21.6338 8.10183V7.17232C21.6338 6.99095 21.4954 6.8247 21.4262 6.76424C21.74 6.6917 21.7723 6.31083 21.7492 6.12946C21.6415 6.25793 21.3893 6.46952 21.2417 6.28816C21.0571 6.06145 20.7803 5.99343 20.688 5.99343C20.6142 5.99343 20.5496 6.18992 20.5265 6.28816C20.4188 6.1748 20.1712 5.94356 20.042 5.92542C19.9128 5.90728 19.8651 6.15968 19.8575 6.28816H19.7421C19.1423 5.92542 18.9577 6.1748 19.0269 6.28816C19.0823 6.37884 18.8808 6.50731 18.7732 6.56021C18.6255 6.54207 18.0195 6.65845 17.735 6.7189V6.44685C17.4951 6.21108 17.2813 6.34861 17.2044 6.44685V7.05897L17.9657 7.73909L18.0349 7.55773L18.2887 7.73909L18.404 7.55773ZM22.5567 7.28744L22.5062 7.21435C22.5208 7.24031 22.5377 7.26462 22.5567 7.28744Z" fill="#F1B434"/>
<rect x="2.81946" y="2" width="3.22222" height="16" fill="#005B33"/>
</g>
</svg>
