<svg width="20" height="20" viewBox="0 0 20 20" fill="none" xmlns="http://www.w3.org/2000/svg">
<mask id="mask0_11482_6191" style="mask-type:alpha" maskUnits="userSpaceOnUse" x="0" y="0" width="20" height="20">
<circle cx="10" cy="10" r="10" fill="#D9D9D9"/>
</mask>
<g mask="url(#mask0_11482_6191)">
<rect width="20" height="20" fill="#F1B434"/>
<rect x="3.88892" y="1.66663" width="4.44444" height="16.6667" fill="#E26E00"/>
<rect x="10.5555" y="1.66663" width="10.5556" height="16.6667" fill="#A00009"/>
<rect y="1.66663" width="3.88889" height="16.6667" fill="#005B33"/>
<path fill-rule="evenodd" clip-rule="evenodd" d="M14.9304 7.66563L15.5605 8.44625C15.5916 8.51513 15.6072 8.65289 15.4205 8.65289C15.1871 8.65289 14.0204 8.21666 14.0204 8.21666L13.6703 8.58401C13.6548 8.65289 13.6283 8.79064 13.647 8.79064C13.6657 8.79064 14.0126 8.76003 14.1837 8.74472L14.067 8.97432L14.3937 8.88248L14.6037 9.0432L14.6504 8.88248L14.9304 9.22688C14.9771 9.14269 15.0938 8.97892 15.1871 8.99728C15.3038 9.02024 15.3505 9.18096 15.3038 9.22688C15.3018 9.22879 15.2999 9.23075 15.2979 9.23277L15.2944 9.23636C15.2905 9.2404 15.2865 9.24463 15.2823 9.24911C15.2382 9.29574 15.1689 9.36892 14.9304 9.52535C14.6504 9.70903 14.2537 10.0993 14.1837 10.283C14.1713 10.3155 14.1538 10.3487 14.1336 10.3872C14.0392 10.5663 13.8845 10.8601 13.9037 11.7295C13.6548 11.5075 13.087 10.9856 12.8069 10.6733V10.5815C12.8847 10.5662 13.0403 10.4851 13.0403 10.283C13.0403 10.081 12.8847 10.0152 12.8069 10.0075H12.5969L12.6903 7.27531L12.8069 6.08142C12.9749 5.43855 12.9858 5.27783 12.9703 5.27783C12.7291 5.40794 12.1955 5.88396 11.9902 6.74724C11.8595 7.1697 11.8424 7.70389 11.8502 7.91818V10.0075L11.8969 10.0993C11.7724 10.0687 11.5048 10.0534 11.4301 10.2371C11.3555 10.4208 11.399 10.5126 11.4301 10.5356C11.4924 10.5891 11.6588 10.7101 11.8268 10.7652C11.7724 10.8723 11.6868 11.1922 11.7802 11.6147C11.7879 11.6759 11.8362 11.8397 11.9669 12.005V12.0739L11.6635 12.0509C11.6097 12.0736 11.5666 12.1321 11.8172 12.1866L11.8268 12.1887L11.9669 12.2182C11.9046 12.3308 11.7876 12.556 11.8172 12.556C11.8469 12.556 11.9138 12.6785 11.9435 12.7397C11.9513 12.7856 11.9622 12.9004 11.9435 12.9922C11.9248 13.0841 11.8268 13.107 11.7802 13.107C11.7102 12.9693 11.6168 13.0152 11.5702 13.107C11.5328 13.1805 11.6168 13.2601 11.6635 13.2907L11.8969 13.4285C11.8969 13.5019 11.8438 13.5662 11.8172 13.5892L11.8268 13.6581H12.0602C12.0835 13.7499 12.1489 13.9336 12.2235 13.9336C12.2982 13.9336 12.348 13.7499 12.3635 13.6581C12.4724 13.6351 12.6716 13.5892 12.5969 13.5892C12.5223 13.5892 12.4725 13.4514 12.4569 13.3826C12.5736 13.3519 12.7929 13.254 12.7369 13.107C12.6809 12.9601 12.5891 13.0458 12.5502 13.107L12.4569 13.0611C12.4258 13.0075 12.3635 12.8683 12.3635 12.7397C12.3635 12.6111 12.4258 12.4718 12.4569 12.4183C12.3449 12.3081 12.348 12.1734 12.3635 12.1198C12.6548 12.2378 12.619 12.0959 12.5979 12.0121C12.5902 11.9818 12.5845 11.9591 12.5969 11.9591C12.6343 11.9591 12.7058 11.8519 12.7369 11.7983L12.8069 11.8902C12.8069 12.3723 12.8769 12.6478 12.9469 12.6478C13.0029 12.6478 13.1414 12.5407 13.2036 12.4871C13.3592 12.6555 13.7263 12.9968 13.9503 13.0152C14.1744 13.0336 14.4793 12.7167 14.6037 12.556C14.6037 12.6708 15.2104 12.9004 15.3505 12.9463C15.448 12.9783 15.5002 13.4335 15.5387 13.7689C15.5555 13.9151 15.5696 14.0386 15.5838 14.0943C15.6212 14.2412 15.3505 14.431 15.2104 14.5076H14.6037C14.526 14.5458 14.361 14.6637 14.3237 14.829C14.2864 14.9943 14.3704 14.9897 14.4171 14.9668L14.6037 14.8749C14.7531 15.077 15.0238 14.9591 15.1404 14.8749C15.3085 15.077 15.5994 14.9897 15.7238 14.9208C15.7549 14.9361 15.8685 14.9668 16.0739 14.9668C16.3305 14.9668 16.4239 14.7372 16.3305 14.6224C16.2559 14.5305 16.2994 14.3239 16.3305 14.2321C16.8346 14.2321 16.9917 13.8494 17.0073 13.6581H16.6572C16.3959 13.6948 16.4239 13.4285 16.4706 13.2907C16.5639 13.1453 16.7692 12.8223 16.8439 12.6938C16.9186 12.5652 18.1507 12.1351 18.7574 11.9361H19.3641C19.3268 12.2851 19.3797 12.4183 19.4108 12.4412L20.0642 13.4055V14.3928C20.0642 14.4479 19.9397 14.4923 19.8775 14.5076C19.7453 14.5229 19.4575 14.5535 19.3641 14.5535C19.2708 14.5535 19.1852 14.6759 19.1541 14.7372C19.0234 14.9759 19.1308 14.9897 19.2008 14.9668L19.4108 14.8749C19.6161 15.077 19.8386 14.9591 19.9242 14.8749C20.1295 15.077 20.3364 14.9591 20.4142 14.8749C20.5251 15.0022 20.6505 14.9855 20.7443 14.973C20.7548 14.9716 20.7649 14.9703 20.7745 14.9692C20.7875 14.9678 20.7997 14.9668 20.8109 14.9668C20.8856 14.9668 20.8731 14.431 20.8576 14.1632C21.0443 14.053 21.1843 13.6581 21.2309 13.4744C21.0832 13.4897 20.7829 13.4606 20.7642 13.2218C20.7456 12.9831 20.9431 12.8774 21.0443 12.8545C21.3009 13.0229 21.8283 13.4009 21.8843 13.5662C21.9403 13.7315 21.861 14.1861 21.8143 14.3928C21.6199 14.4617 21.2076 14.604 21.1143 14.6224C20.9976 14.6453 20.9043 14.9208 20.9976 14.9668C21.0723 15.0035 21.1843 14.8902 21.2309 14.829C21.3803 15.0862 21.6354 14.9361 21.7443 14.829C21.931 15.031 22.1644 14.9132 22.2577 14.829C22.3697 14.9943 22.6777 14.9591 22.8177 14.9208C22.7711 14.829 22.6544 14.6178 22.5611 14.5076C22.4677 14.3974 22.5222 14.1861 22.5611 14.0943C22.5999 14.0637 22.7197 13.9611 22.8877 13.7958C23.0978 13.5892 23.0044 13.4744 22.8177 13.4055C22.6684 13.3504 22.5533 12.9693 22.5144 12.7856C22.4397 12.5101 22.6855 11.8749 22.8177 11.5917C22.9344 11.3392 23.1258 10.6963 22.9578 10.1453C22.891 9.92629 22.8101 9.76068 22.7098 9.63518C22.832 9.58493 22.9731 9.50504 23.0977 9.39119C23.2719 9.23201 23.4248 8.9949 23.4248 8.67804C23.4248 8.35927 23.27 8.12716 23.0901 7.97545C22.9161 7.8287 22.7116 7.74954 22.5685 7.71935L22.5419 7.71375H20.0622L20.06 7.71379C19.8661 7.71713 19.5805 7.67837 19.3562 7.56368C19.343 7.55697 19.3302 7.55005 19.3176 7.54292C19.3672 7.39133 19.4893 7.19377 19.7208 7.19932C19.6607 7.02438 19.4378 6.77487 19.0181 7.12158C19.0148 7.09281 19.0135 7.06264 19.0143 7.03097C19.0208 6.76131 19.1637 6.60565 19.3704 6.50624C19.524 6.43236 19.7043 6.39612 19.8621 6.38434L19.8165 6.39397C19.9612 6.49551 20.2109 6.77927 20.0523 7.10198C20.2623 7.118 20.6239 6.99678 20.5334 6.41943C20.6309 6.43252 20.7347 6.44982 20.8409 6.47252L20.7974 6.47135C20.8911 6.59703 21.0179 6.91417 20.7755 7.17733C20.9536 7.23836 21.3081 7.20618 21.4151 6.65412C21.5706 6.72373 21.7122 6.80923 21.8286 6.91336C21.8744 6.9543 21.9188 6.99427 21.962 7.03309C22.1544 7.20612 22.3212 7.35615 22.4658 7.46596C22.6381 7.59688 22.8315 7.71375 23.0514 7.71375V7.71109C23.0951 7.72625 23.1421 7.7345 23.1911 7.7345C23.4231 7.7345 23.6111 7.54948 23.6111 7.32123C23.6111 7.09299 23.4231 6.90796 23.1911 6.90796C23.0396 6.90796 22.9068 6.9869 22.8329 7.10527C22.8162 7.09355 22.7984 7.08054 22.7795 7.06612C22.6534 6.97039 22.5071 6.83887 22.3159 6.66695C22.2711 6.62673 22.2239 6.58431 22.174 6.53961C21.8475 6.24761 21.4143 6.08708 21.0309 5.99707C20.6462 5.90677 20.2853 5.88145 20.0739 5.87712C19.8309 5.86474 19.4645 5.89872 19.1449 6.05245C18.8098 6.21364 18.5132 6.51717 18.5011 7.01895C18.4948 7.27867 18.5692 7.48784 18.6883 7.65315C18.3649 8.07422 18.6252 8.28012 18.8041 8.33145C18.7919 8.1522 18.9108 8.0345 19.0361 7.96571C19.0635 7.98213 19.0913 7.99752 19.1195 8.0119C19.4413 8.17643 19.8171 8.22283 20.0666 8.21886H22.4844C22.5595 8.23867 22.6675 8.28432 22.756 8.35895C22.8483 8.43683 22.9114 8.53764 22.9114 8.67804C22.9114 8.82039 22.8464 8.9315 22.7484 9.02105C22.6489 9.11197 22.5269 9.16848 22.4502 9.19115L22.0392 9.28304C21.9485 9.26777 21.8504 9.25729 21.7443 9.24984C21.2216 9.2131 19.193 9.31106 18.244 9.36463C18.0013 9.383 17.9407 8.98962 17.9407 8.79064C18.0527 8.90085 18.1585 8.83656 18.1974 8.79064C18.0293 8.62533 18.0651 8.43095 18.104 8.35441C18.1974 8.35441 18.2051 8.26257 18.1974 8.21666V7.27531C18.1974 7.09164 18.0574 6.92327 17.9873 6.86204C18.3047 6.78857 18.3374 6.40285 18.314 6.21917C18.2051 6.34928 17.95 6.56357 17.8007 6.37989C17.614 6.1503 17.334 6.08142 17.2406 6.08142C17.1659 6.08142 17.1006 6.2804 17.0773 6.37989C16.9684 6.26509 16.7179 6.03091 16.5872 6.01254C16.4566 5.99417 16.4083 6.24978 16.4005 6.37989H16.2839C15.6772 6.01254 15.4905 6.26509 15.5605 6.37989C15.6165 6.47173 15.4127 6.60183 15.3038 6.65541C15.1545 6.63704 14.5415 6.75489 14.2537 6.81612V6.54061C14.011 6.30183 13.7948 6.44112 13.717 6.54061V7.16052L14.4871 7.8493L14.5571 7.66563L14.8138 7.8493L14.9304 7.66563ZM19.1308 7.3919L19.0797 7.31788C19.0945 7.34416 19.1116 7.36878 19.1308 7.3919Z" fill="#F1B434"/>
</g>
</svg>
