<svg width="20" height="20" viewBox="0 0 20 20" fill="none" xmlns="http://www.w3.org/2000/svg">
<mask id="mask0_11482_6207" style="mask-type:alpha" maskUnits="userSpaceOnUse" x="0" y="0" width="20" height="20">
<circle cx="10" cy="10" r="10" fill="#D9D9D9"/>
</mask>
<g mask="url(#mask0_11482_6207)">
<rect width="20" height="20" fill="#F5F7F8"/>
<path d="M20 5V2.5L0 2.5V5L20 5Z" fill="#DD2033"/>
<path d="M20 7.5V10L0 10V7.5L20 7.5Z" fill="#DD2033"/>
<path d="M20 15V12.5L0 12.5V15L20 15Z" fill="#DD2033"/>
<path d="M20 20V17.5L0 17.5V20L20 20Z" fill="#DD2033"/>
<rect x="0.111084" y="10" width="10" height="10" transform="rotate(-90 0.111084 10)" fill="#004692"/>
<path d="M6.16668 2.77783L5.33869 4.65066L3.38889 4.89985L4.82702 6.30658L4.44987 8.33339L6.16666 7.17598L7.88345 8.33339L7.50631 6.30658L8.94444 4.89985L6.99463 4.65066L6.16668 2.77783Z" fill="#F5F7F8"/>
</g>
</svg>
