<svg width="29" height="20" viewBox="0 0 29 20" fill="none" xmlns="http://www.w3.org/2000/svg">
<mask id="mask0_11482_6213" style="mask-type:alpha" maskUnits="userSpaceOnUse" x="0" y="0" width="29" height="20">
<rect width="29" height="20" fill="#D9D9D9"/>
</mask>
<g mask="url(#mask0_11482_6213)">
<rect y="23.6" width="25.2" height="29" transform="rotate(-90 0 23.6)" fill="#F5F7F8"/>
<rect x="14.5" y="5.59998" width="3.6" height="14.5" transform="rotate(-90 14.5 5.59998)" fill="#DD2033"/>
<rect x="14.5" y="12.8" width="3.6" height="14.5" transform="rotate(-90 14.5 12.8)" fill="#DD2033"/>
<rect y="20" width="3.6" height="29" transform="rotate(-90 0 20)" fill="#DD2033"/>
<rect y="12.8" width="12.8" height="14.5" transform="rotate(-90 0 12.8)" fill="#004692"/>
<path d="M7.25003 2.40002L6.04945 5.0969L3.22223 5.45573L5.30752 7.48142L4.76066 10.4L7.25001 8.73336L9.73935 10.4L9.1925 7.48142L11.2778 5.45573L8.45056 5.0969L7.25003 2.40002Z" fill="#F5F7F8"/>
</g>
</svg>
