<svg width="29" height="20" viewBox="0 0 29 20" fill="none" xmlns="http://www.w3.org/2000/svg">
<mask id="mask0_11482_6239" style="mask-type:alpha" maskUnits="userSpaceOnUse" x="0" y="0" width="29" height="20">
<rect width="29" height="20" fill="#D9D9D9"/>
</mask>
<g mask="url(#mask0_11482_6239)">
<rect y="20" width="20" height="29" transform="rotate(-90 0 20)" fill="#F5F7F8"/>
<rect y="20" width="4.4" height="29" transform="rotate(-90 0 20)" fill="#009B77"/>
<rect y="4.40002" width="4.4" height="29" transform="rotate(-90 0 4.40002)" fill="#004692"/>
<mask id="mask1_11482_6239" style="mask-type:alpha" maskUnits="userSpaceOnUse" x="11" y="8" width="7" height="7">
<rect width="4.36678" height="4.36678" transform="matrix(-0.709549 -0.704656 0.709549 -0.704656 14.4061 14.8632)" fill="#D9D9D9"/>
</mask>
<g mask="url(#mask1_11482_6239)">
<circle cx="4.36678" cy="4.36678" r="3.86678" transform="matrix(-0.709549 -0.704656 0.709549 -0.704656 14.4061 14.8632)" fill="#31373D" stroke="#31373D"/>
<circle cx="4.36678" cy="4.36678" r="3.86678" transform="matrix(-0.709549 -0.704656 0.709549 -0.704656 14.4061 14.8632)" fill="#31373D" stroke="#31373D"/>
</g>
<mask id="mask2_11482_6239" style="mask-type:alpha" maskUnits="userSpaceOnUse" x="9" y="7" width="11" height="11">
<path d="M9.58614 12.7841L14.4355 7.96816L19.2848 12.7841L14.4355 17.6L9.58614 12.7841Z" fill="#D9D9D9"/>
</mask>
<g mask="url(#mask2_11482_6239)">
<path fill-rule="evenodd" clip-rule="evenodd" d="M17.4974 11.7584C19.2086 10.0589 19.2086 7.30362 17.4974 5.6042C15.7862 3.90478 13.0117 3.90478 11.3005 5.6042C9.58926 7.30362 9.58926 10.0589 11.3005 11.7584C13.0117 13.4578 15.7862 13.4578 17.4974 11.7584ZM18.5302 12.784C20.8118 10.5181 20.8118 6.8444 18.5302 4.57851C16.2486 2.31261 12.5493 2.31261 10.2677 4.57851C7.98604 6.8444 7.98604 10.5181 10.2677 12.784C12.5493 15.0499 16.2486 15.0499 18.5302 12.784Z" fill="#31373D"/>
</g>
<rect x="13.6139" y="5.19995" width="1.61111" height="4.4" fill="#31373D"/>
</g>
</svg>
