<svg width="72" height="72" viewBox="0 0 72 72" fill="none" xmlns="http://www.w3.org/2000/svg">
<mask id="mask0_42_3790" style="mask-type:alpha" maskUnits="userSpaceOnUse" x="0" y="0" width="72" height="72">
<circle cx="36" cy="36" r="36" fill="#D9D9D9"/>
</mask>
<g mask="url(#mask0_42_3790)">
<rect x="0.00012207" y="72.0001" width="18" height="72" transform="rotate(-90 0.00012207 72.0001)" fill="#009B77"/>
<rect y="54" width="36" height="72" transform="rotate(-90 0 54)" fill="#31373D"/>
<rect y="18" width="18" height="72" transform="rotate(-90 0 18)" fill="#DD2033"/>
<path d="M30.6664 26C31.486 26 32.2826 26.0986 33.0449 26.2846C31.0665 24.8475 28.6322 24 25.9999 24C19.3725 24 13.9999 29.3726 13.9999 36C13.9999 42.6274 19.3725 48 25.9999 48C28.6322 48 31.0665 47.1525 33.0449 45.7154C32.2826 45.9014 31.486 46 30.6664 46C25.1436 46 20.6664 41.5228 20.6664 36C20.6664 30.4772 25.1436 26 30.6664 26Z" fill="#F5F7F8"/>
<path d="M41.6726 32.8849L42.6933 26.3294L46.855 31.4963L53.1661 30.6411L49.8449 36.2495L52.7249 42.2764L46.3814 40.0938L41.9791 45.1557L41.4598 38.4963L35.7794 35.2998L41.6726 32.8849Z" fill="#F5F7F8"/>
</g>
</svg>
