<svg width="20" height="20" viewBox="0 0 20 20" fill="none" xmlns="http://www.w3.org/2000/svg">
<mask id="mask0_11482_6289" style="mask-type:alpha" maskUnits="userSpaceOnUse" x="0" y="0" width="20" height="20">
<circle cx="10" cy="10" r="10" fill="#D9D9D9"/>
</mask>
<g mask="url(#mask0_11482_6289)">
<rect x="0.00012207" y="20" width="5" height="20" transform="rotate(-90 0.00012207 20)" fill="#009B77"/>
<rect y="15" width="10" height="20" transform="rotate(-90 0 15)" fill="#31373D"/>
<rect y="5" width="5" height="20" transform="rotate(-90 0 5)" fill="#DD2033"/>
<path d="M8.51844 7.2223C8.7461 7.2223 8.96736 7.24969 9.17911 7.30135C8.62957 6.90217 7.95337 6.66675 7.22219 6.66675C5.38124 6.66675 3.88885 8.15913 3.88885 10.0001C3.88885 11.841 5.38124 13.3334 7.22219 13.3334C7.95337 13.3334 8.62957 13.098 9.17911 12.6988C8.96736 12.7505 8.7461 12.7779 8.51844 12.7779C6.98431 12.7779 5.74066 11.5342 5.74066 10.0001C5.74066 8.46596 6.98431 7.2223 8.51844 7.2223Z" fill="#F5F7F8"/>
<path d="M11.5757 9.13477L11.8592 7.31379L13.0153 8.74904L14.7683 8.51149L13.8458 10.0694L14.6458 11.7435L12.8837 11.1373L11.6609 12.5433L11.5166 10.6935L9.93871 9.80559L11.5757 9.13477Z" fill="#F5F7F8"/>
</g>
</svg>
