<svg width="29" height="20" viewBox="0 0 29 20" fill="none" xmlns="http://www.w3.org/2000/svg">
<mask id="mask0_11482_6295" style="mask-type:alpha" maskUnits="userSpaceOnUse" x="0" y="0" width="29" height="20">
<rect width="29" height="20" fill="#D9D9D9"/>
</mask>
<g mask="url(#mask0_11482_6295)">
<rect x="0.000244141" y="24.4001" width="7.2" height="29" transform="rotate(-90 0.000244141 24.4001)" fill="#009B77"/>
<rect y="17.2" width="14.4" height="29" transform="rotate(-90 0 17.2)" fill="#31373D"/>
<rect y="2.80005" width="7.2" height="29" transform="rotate(-90 0 2.80005)" fill="#DD2033"/>
<path d="M12.3518 5.99995C12.6819 5.99995 13.0027 6.03939 13.3098 6.11378C12.5129 5.53896 11.5325 5.19995 10.4722 5.19995C7.80287 5.19995 5.63892 7.34898 5.63892 9.99995C5.63892 12.6509 7.80287 14.8 10.4722 14.8C11.5325 14.8 12.5129 14.4609 13.3098 13.8861C13.0027 13.9605 12.6819 14 12.3518 14C10.1273 14 8.32404 12.2091 8.32404 9.99995C8.32404 7.79081 10.1273 5.99995 12.3518 5.99995Z" fill="#F5F7F8"/>
<path d="M16.7848 8.75391L17.196 6.13169L18.8722 8.19846L21.4142 7.85638L20.0765 10.0998L21.2365 12.5105L18.6815 11.6375L16.9083 13.6622L16.6991 10.9985L14.4112 9.71988L16.7848 8.75391Z" fill="#F5F7F8"/>
</g>
</svg>
