<svg width="72" height="72" viewBox="0 0 72 72" fill="none" xmlns="http://www.w3.org/2000/svg">
<mask id="mask0_42_3921" style="mask-type:alpha" maskUnits="userSpaceOnUse" x="0" y="0" width="72" height="72">
<circle cx="36" cy="36" r="36" fill="#D9D9D9"/>
</mask>
<g mask="url(#mask0_42_3921)">
<rect y="72" width="72" height="72" transform="rotate(-90 0 72)" fill="#DD2033"/>
<path d="M62 28.8619H42.1377L36 9L29.8623 28.8619H10L26.0689 41.1373L19.931 60.9998L36 48.7243L52.069 61L45.9311 41.1375L62 28.8619ZM30.5662 39.6008L32.6417 32.8844H39.3581L41.4338 39.6008V39.601L36 43.7519L30.5664 39.601L30.5662 39.6008ZM38.1152 28.8619H33.8849L36 22.017L38.1152 28.8619ZM44.6879 37.1149L43.3806 32.8845H50.2255L44.6879 37.1149ZM28.6192 32.8845L27.3119 37.1149L21.7741 32.8845H28.6192ZM27.2079 50.4686L29.3232 43.6238L32.7457 46.2382L27.2079 50.4686ZM39.2543 46.2383L42.6768 43.624L44.7921 50.4687L39.2543 46.2383Z" fill="#005B33"/>
</g>
</svg>
