<svg width="29" height="20" viewBox="0 0 29 20" fill="none" xmlns="http://www.w3.org/2000/svg">
<mask id="mask0_11482_6307" style="mask-type:alpha" maskUnits="userSpaceOnUse" x="0" y="0" width="29" height="20">
<rect width="29" height="20" fill="#D9D9D9"/>
</mask>
<g mask="url(#mask0_11482_6307)">
<rect y="20" width="20" height="29" transform="rotate(-90 0 20)" fill="#DD2033"/>
<path d="M22.5556 8.11137H16.4017L14.5 2L12.5984 8.11137H6.44446L11.4231 11.8884L9.52136 17.9999L14.5 14.2228L19.4787 18L17.577 11.8885L22.5556 8.11137ZM12.8165 11.4156L13.4595 9.34903H15.5405L16.1836 11.4156V11.4157L14.5 12.6929L12.8165 11.4157L12.8165 11.4156ZM15.1554 8.11137H13.8447L14.5 6.00523L15.1554 8.11137ZM17.1918 10.6507L16.7867 9.34909H18.9075L17.1918 10.6507ZM12.2132 9.34909L11.8082 10.6507L10.0924 9.34909H12.2132ZM11.776 14.7596L12.4313 12.6535L13.4917 13.4579L11.776 14.7596ZM15.5083 13.458L16.5687 12.6535L17.2241 14.7596L15.5083 13.458Z" fill="#005B33"/>
</g>
</svg>
