<svg width="20" height="20" viewBox="0 0 20 20" fill="none" xmlns="http://www.w3.org/2000/svg">
<mask id="mask0_11482_6303" style="mask-type:alpha" maskUnits="userSpaceOnUse" x="0" y="0" width="20" height="20">
<circle cx="10" cy="10" r="10" fill="#D9D9D9"/>
</mask>
<g mask="url(#mask0_11482_6303)">
<rect y="20" width="20" height="20" transform="rotate(-90 0 20)" fill="#DD2033"/>
<path d="M17.2222 8.01721H11.7049L9.99999 2.5L8.29507 8.01721H2.77777L7.24134 11.427L5.53637 16.9444L9.99999 13.5345L14.4636 16.9444L12.7586 11.4271L17.2222 8.01721ZM8.49061 11.0002L9.06714 9.13454H10.9328L11.5094 11.0002V11.0003L9.99999 12.1533L8.49065 11.0003L8.49061 11.0002ZM10.5876 8.01721H9.41248L9.99999 6.11583L10.5876 8.01721ZM12.4133 10.3097L12.0502 9.13459H13.9515L12.4133 10.3097ZM7.94978 9.13459L7.58663 10.3097L6.04837 9.13459H7.94978ZM7.55775 14.019L8.14532 12.1177L9.09602 12.8439L7.55775 14.019ZM10.904 12.844L11.8547 12.1178L12.4422 14.0191L10.904 12.844Z" fill="#005B33"/>
</g>
</svg>
