<svg width="72" height="72" viewBox="0 0 72 72" fill="none" xmlns="http://www.w3.org/2000/svg">
<mask id="mask0_42_4002" style="mask-type:alpha" maskUnits="userSpaceOnUse" x="0" y="0" width="73" height="73">
<circle cx="36.0001" cy="36.0001" r="36" fill="#D9D9D9"/>
</mask>
<g mask="url(#mask0_42_4002)">
<rect x="72.0001" y="72.0001" width="16" height="72" transform="rotate(180 72.0001 72.0001)" fill="#DD2033"/>
<rect x="56.0001" y="72.0001" width="40" height="72" transform="rotate(180 56.0001 72.0001)" fill="#F1B434"/>
<rect x="16.0001" y="71.9999" width="16" height="72" transform="rotate(180 16.0001 71.9999)" fill="#004692"/>
<path d="M24.6851 23.2612C26.3753 23.1456 28.8568 23.3945 30.7866 24.3551C32.5259 25.221 33.7383 26.5735 33.7383 29.1083V38.7449L22.4 49.9872L26.5649 54.1168L33.9196 46.8244L30.8143 54.522L36.7044 60.3623L42.5945 54.522L39.4811 46.8043L46.8228 54.0839L50.9877 49.9543L39.6494 38.712V29.0754H39.6283C39.6162 23.9539 36.7667 20.7972 33.4294 19.1358C30.2755 17.5657 26.6566 17.2723 24.2799 17.4348L24.6851 23.2612Z" fill="#936846"/>
<path d="M21.3998 26.0002L21.3998 46.0002L28.3998 41.0002L28.3998 30.0002C28.3998 27.7911 26.6089 26.0002 24.3998 26.0002H21.3998Z" fill="#936846"/>
<path d="M51.4 46.0001V26.0001H48.4C46.1909 26.0001 44.4 27.791 44.4 30.0001V41.0001L51.4 46.0001Z" fill="#936846"/>
<path d="M26.1998 27.8234L46.1998 27.8234L46.1998 35.7646C46.1998 41.8397 42.5011 47.3028 36.8605 49.5591L36.1998 49.8234L35.5392 49.5591C29.8985 47.3028 26.1998 41.8397 26.1998 35.7646L26.1998 27.8234Z" fill="#DD2033"/>
<mask id="mask1_42_4002" style="mask-type:alpha" maskUnits="userSpaceOnUse" x="26" y="27" width="21" height="23">
<path d="M26.1998 27.8234H46.1998V35.7646C46.1998 41.8397 42.5011 47.3028 36.8605 49.5591L36.1998 49.8234L35.5392 49.5591C29.8985 47.3028 26.1998 41.8397 26.1998 35.7646V27.8234Z" fill="#005EB8"/>
</mask>
<g mask="url(#mask1_42_4002)">
<path d="M26.1998 38.0001H46.1998V50.0001H26.1998V38.0001Z" fill="#0091DA"/>
<path d="M38.4 37.465C39.5956 36.7734 40.4 35.4807 40.4 34.0001C40.4 32.8955 39.9523 31.8955 39.2284 31.1717L38.4203 31.9798C38.9374 32.4968 39.2572 33.2111 39.2572 34.0001C39.2572 34.7994 38.929 35.522 38.4 36.0406V35.0001H34.4V36.0405C33.8711 35.522 33.5429 34.7994 33.5429 34.0001C33.5429 33.2112 33.8627 32.4969 34.3797 31.9799L33.5715 31.1718C32.8477 31.8956 32.4 32.8956 32.4 34.0001C32.4 35.4807 33.2044 36.7734 34.4 37.465V43.0001C34.4 44.1047 35.2955 45.0001 36.4 45.0001C37.5046 45.0001 38.4 44.1047 38.4 43.0001V37.465Z" fill="#F1B434"/>
<path d="M36.4 30.0001L36.4158 30.0002L36.3842 30.0002L36.4 30.0001Z" fill="#F1B434"/>
</g>
</g>
</svg>
