<svg width="20" height="20" viewBox="0 0 20 20" fill="none" xmlns="http://www.w3.org/2000/svg">
<mask id="mask0_11482_6323" style="mask-type:alpha" maskUnits="userSpaceOnUse" x="0" y="0" width="21" height="20">
<circle cx="10.0001" cy="10" r="10" fill="#D9D9D9"/>
</mask>
<g mask="url(#mask0_11482_6323)">
<rect x="20" y="20" width="4.44444" height="20" transform="rotate(180 20 20)" fill="#DD2033"/>
<rect x="15.5556" y="20" width="11.1111" height="20" transform="rotate(180 15.5556 20)" fill="#F1B434"/>
<rect x="4.44447" y="20" width="4.44444" height="20" transform="rotate(180 4.44447 20)" fill="#004692"/>
<path d="M6.85697 6.46148C7.32648 6.42938 8.01578 6.49851 8.55183 6.76536C9.03496 7.00587 9.37175 7.38158 9.37175 8.08569V10.7625L6.22223 13.8854L7.37915 15.0325L9.42212 13.0068L8.55952 15.1451L10.1957 16.7673L11.8318 15.1451L10.967 13.0013L13.0063 15.0234L14.1632 13.8762L11.0137 10.7534V8.07655H11.0079C11.0045 6.6539 10.213 5.77704 9.28595 5.31555C8.40986 4.87941 7.4046 4.7979 6.7444 4.84305L6.85697 6.46148Z" fill="#936846"/>
<path d="M5.94438 7.22234L5.94438 12.7779L7.88883 11.389L7.88883 8.33345C7.88883 7.7198 7.39137 7.22234 6.77772 7.22234H5.94438Z" fill="#936846"/>
<path d="M14.2778 12.7779V7.2223H13.4444C12.8308 7.2223 12.3333 7.71976 12.3333 8.33341V11.389L14.2778 12.7779Z" fill="#936846"/>
<path d="M7.27773 7.72876L12.8333 7.72876L12.8333 9.737C12.8333 11.5439 11.7332 13.1688 10.0555 13.8399C8.37782 13.1688 7.27773 11.5439 7.27773 9.737L7.27773 7.72876Z" fill="#DD2033"/>
<mask id="mask1_11482_6323" style="mask-type:alpha" maskUnits="userSpaceOnUse" x="7" y="7" width="6" height="7">
<path d="M7.27773 7.72876L12.8333 7.72876L12.8333 9.737C12.8333 11.5439 11.7332 13.1688 10.0555 13.8399C8.37782 13.1688 7.27772 11.5439 7.27772 9.737L7.27773 7.72876Z" fill="#005EB8"/>
</mask>
<g mask="url(#mask1_11482_6323)">
<path d="M7.27773 10.5557L12.8333 10.5557L12.8333 13.889L7.27772 13.889L7.27773 10.5557Z" fill="#0091DA"/>
<path d="M10.6667 10.4071C10.9988 10.215 11.2222 9.85587 11.2222 9.44461C11.2222 9.13778 11.0979 8.86 10.8968 8.65893L10.6723 8.8834C10.8159 9.02703 10.9048 9.22545 10.9048 9.44461C10.9048 9.66663 10.8136 9.86736 10.6667 10.0114V9.72238L9.55556 9.72238V10.0114C9.40863 9.86735 9.31747 9.66663 9.31747 9.44461C9.31747 9.22546 9.40629 9.02705 9.54991 8.88343L9.32542 8.65895C9.12436 8.86002 9 9.13779 9 9.44461C9 9.85588 9.22344 10.215 9.55556 10.4071V11.9446C9.55556 12.2514 9.80429 12.5002 10.1111 12.5002C10.4179 12.5002 10.6667 12.2514 10.6667 11.9446V10.4071Z" fill="#F1B434"/>
<path d="M10.1111 8.3335L10.1155 8.3335L10.1067 8.3335L10.1111 8.3335Z" fill="#F1B434"/>
</g>
</g>
</svg>
