<svg width="29" height="20" viewBox="0 0 29 20" fill="none" xmlns="http://www.w3.org/2000/svg">
<mask id="mask0_11482_6334" style="mask-type:alpha" maskUnits="userSpaceOnUse" x="0" y="0" width="29" height="20">
<rect width="29" height="20" fill="#D9D9D9"/>
</mask>
<g mask="url(#mask0_11482_6334)">
<rect x="29" y="20" width="6.44444" height="20" transform="rotate(180 29 20)" fill="#DD2033"/>
<rect x="22.5556" y="20" width="16.1111" height="20" transform="rotate(180 22.5556 20)" fill="#F1B434"/>
<rect x="6.44444" y="20" width="6.44444" height="20" transform="rotate(180 6.44444 20)" fill="#004692"/>
<path d="M10.0961 4.18438C10.7315 4.14134 11.6644 4.23401 12.3898 4.59174C13.0437 4.91416 13.4994 5.41783 13.4994 6.36172V9.95016L9.23713 14.1365L10.8028 15.6743L13.5676 12.9588L12.4002 15.8252L14.6145 18L16.8287 15.8252L15.6583 12.9513L18.4182 15.6621L19.9839 14.1243L15.7216 9.93791V6.34948H15.7136C15.7091 4.44233 14.6379 3.26684 13.3833 2.64818C12.1977 2.06352 10.8373 1.95425 9.9438 2.01477L10.0961 4.18438Z" fill="#936846"/>
<path d="M8.86111 5.20435L8.86111 12.6519L11.4926 10.79V6.69386C11.4926 5.87123 10.8193 5.20435 9.98888 5.20435H8.86111Z" fill="#936846"/>
<path d="M20.1389 12.6519V5.2043H19.0111C18.1807 5.2043 17.5074 5.87118 17.5074 6.69381V10.79L20.1389 12.6519Z" fill="#936846"/>
<path d="M10.6654 5.8833L18.1839 5.8833L18.1839 8.54253C18.1839 10.9832 16.6937 13.1765 14.4247 14.0756C12.1556 13.1765 10.6654 10.9832 10.6654 8.54253L10.6654 5.8833Z" fill="#DD2033"/>
<mask id="mask1_11482_6334" style="mask-type:alpha" maskUnits="userSpaceOnUse" x="10" y="5" width="9" height="10">
<path d="M10.6654 5.88306L18.1839 5.88306L18.1839 8.54229C18.1839 10.983 16.6937 13.1763 14.4247 14.0754C12.1556 13.1763 10.6654 10.983 10.6654 8.54229L10.6654 5.88306Z" fill="#005EB8"/>
</mask>
<g mask="url(#mask1_11482_6334)">
<path d="M10.6654 9.67261L18.1839 9.67261L18.1839 14.1411L10.6654 14.1411L10.6654 9.67261Z" fill="#0091DA"/>
<path d="M15.2518 9.47336C15.7012 9.21581 16.0036 8.73444 16.0036 8.18311C16.0036 7.77179 15.8353 7.39941 15.5632 7.12986L15.2594 7.43079C15.4538 7.62332 15.574 7.88932 15.574 8.18312C15.574 8.48075 15.4506 8.74984 15.2518 8.94293L15.2518 8.55549L13.7481 8.55549L13.7481 8.94292C13.5492 8.74982 13.4259 8.48074 13.4259 8.18312C13.4259 7.88934 13.5461 7.62336 13.7404 7.43083L13.4366 7.12989C13.1645 7.39944 12.9962 7.77181 12.9962 8.18311C12.9962 8.73444 13.2986 9.21581 13.7481 9.47336L13.7481 11.5345C13.7481 11.9458 14.0847 12.2793 14.4999 12.2793C14.9152 12.2793 15.2518 11.9458 15.2518 11.5345L15.2518 9.47336Z" fill="#F1B434"/>
<path d="M14.4999 6.6936L14.5059 6.69361L14.494 6.69361L14.4999 6.6936Z" fill="#F1B434"/>
</g>
</g>
</svg>
