<svg width="72" height="72" viewBox="0 0 72 72" fill="none" xmlns="http://www.w3.org/2000/svg">
<mask id="mask0_42_5199" style="mask-type:alpha" maskUnits="userSpaceOnUse" x="0" y="0" width="72" height="72">
<circle cx="36" cy="36" r="36" transform="rotate(-90 36 36)" fill="#D9D9D9"/>
</mask>
<g mask="url(#mask0_42_5199)">
<rect x="72" y="72" width="72" height="72" transform="rotate(180 72 72)" fill="#F1B434"/>
<circle cx="36" cy="36" r="31" fill="#DD2033"/>
<path d="M36.7002 18C39.1855 18 41.2002 15.9853 41.2002 13.5C41.2002 11.0147 39.1855 9 36.7002 9C34.2149 9 32.2002 11.0147 32.2002 13.5C32.2002 15.9853 34.2149 18 36.7002 18Z" fill="#F1B434"/>
<path d="M42.4013 24.499C44.3311 23.5384 46.8126 23.2895 48.5028 23.4051L48.9081 17.5787C46.5314 17.4162 42.9124 17.7096 39.7585 19.2797C38.5673 19.8727 37.4382 20.6563 36.4781 21.6517C35.525 20.6719 34.4077 19.8991 33.2296 19.3126C30.0757 17.7425 26.4568 17.4491 24.08 17.6116L24.4853 23.438C26.1755 23.3224 28.657 23.5713 30.5868 24.5319C32.326 25.3978 33.5385 26.7503 33.5385 29.2851V30.2805L17.5636 26C16.9919 28.1339 18.2582 30.3272 20.392 30.899L33.5385 34.4216V35.4568L17.2355 31.0885C16.6637 33.2223 17.9301 35.4157 20.0639 35.9874L33.0015 39.4541L32.1796 40.2691L17.8732 36.4357C17.3014 38.5696 18.5678 40.7629 20.7016 41.3347L28.8916 43.5292L22.2002 50.164L26.3651 54.2936L33.7198 47.0012L30.6145 54.6989L36.5046 60.5391L42.3947 54.6988L39.2813 46.9812L46.623 54.2607L50.7879 50.1311L43.9976 43.3982L51.6988 41.3347C53.8327 40.7629 55.099 38.5696 54.5272 36.4357L40.7097 40.1381L39.8877 39.3231L52.3365 35.9874C54.4704 35.4157 55.7367 33.2223 55.1649 31.0885L39.4496 35.2994V34.2641L52.0084 30.899C54.1423 30.3272 55.4086 28.1339 54.8368 26L39.4496 30.123V29.2522C39.4496 26.7174 40.6621 25.3649 42.4013 24.499Z" fill="#F1B434"/>
<path d="M26 28L46 28L46 35.9412C46 42.0164 42.3013 47.4795 36.6607 49.7357L36 50L35.3393 49.7357C29.6987 47.4795 26 42.0164 26 35.9412L26 28Z" fill="#005EB8"/>
<mask id="mask1_42_5199" style="mask-type:alpha" maskUnits="userSpaceOnUse" x="26" y="28" width="20" height="22">
<path d="M26 28H46V35.9412C46 42.0164 42.3013 47.4795 36.6607 49.7357L36 50L35.3393 49.7357C29.6987 47.4795 26 42.0164 26 35.9412V28Z" fill="#005EB8"/>
</mask>
<g mask="url(#mask1_42_5199)">
<rect x="26" y="38" width="20" height="12" fill="#009B77"/>
</g>
</g>
</svg>
