<svg width="20" height="20" viewBox="0 0 20 20" fill="none" xmlns="http://www.w3.org/2000/svg">
<mask id="mask0_11482_6348" style="mask-type:alpha" maskUnits="userSpaceOnUse" x="0" y="0" width="20" height="20">
<circle cx="10" cy="10" r="10" transform="rotate(-90 10 10)" fill="#D9D9D9"/>
</mask>
<g mask="url(#mask0_11482_6348)">
<rect x="20" y="20" width="20" height="20" transform="rotate(180 20 20)" fill="#F1B434"/>
<circle cx="10" cy="10" r="8.61111" fill="#DD2033"/>
<path d="M10.1945 5C10.8849 5 11.4445 4.44036 11.4445 3.75C11.4445 3.05964 10.8849 2.5 10.1945 2.5C9.50415 2.5 8.9445 3.05964 8.9445 3.75C8.9445 4.44036 9.50415 5 10.1945 5Z" fill="#F1B434"/>
<path d="M11.7781 6.80529C12.3142 6.53844 13.0035 6.46931 13.473 6.50142L13.5856 4.88298C12.9254 4.83783 11.9201 4.91935 11.044 5.35548C10.7131 5.52021 10.3995 5.73785 10.1328 6.01435C9.86805 5.74219 9.55769 5.52752 9.23045 5.36462C8.35436 4.92848 7.3491 4.84697 6.6889 4.89211L6.80147 6.51055C7.27098 6.47845 7.96028 6.54757 8.49633 6.81443C8.97946 7.05494 9.31625 7.43065 9.31625 8.13476V8.41124L4.87878 7.22222C4.71996 7.81496 5.07172 8.42422 5.66446 8.58305L9.31625 9.56154V9.84912L4.78764 8.63569C4.62881 9.22843 4.98057 9.83769 5.57331 9.99651L9.16709 10.9595L8.93876 11.1859L4.96477 10.121C4.80595 10.7138 5.15771 11.323 5.75045 11.4819L8.02545 12.0914L6.16673 13.9344L7.32365 15.0816L9.36662 13.0559L8.50402 15.1941L10.1402 16.8164L11.7763 15.1941L10.9115 13.0503L12.9508 15.0724L14.1077 13.9253L12.2216 12.0551L14.3608 11.4819C14.9535 11.323 15.3053 10.7138 15.1465 10.121L11.3082 11.1495L11.0799 10.9231L14.5379 9.99651C15.1307 9.83769 15.4824 9.22843 15.3236 8.63569L10.9582 9.80538V9.5178L14.4468 8.58305C15.0395 8.42422 15.3913 7.81496 15.2324 7.22222L10.9582 8.3675V8.12562C10.9582 7.42151 11.295 7.0458 11.7781 6.80529Z" fill="#F1B434"/>
<path d="M7.22222 7.77783L12.7778 7.77783L12.7778 9.78607C12.7778 11.593 11.6777 13.2179 10 13.8889C8.32232 13.2179 7.22222 11.593 7.22222 9.78607L7.22222 7.77783Z" fill="#005EB8"/>
<mask id="mask1_11482_6348" style="mask-type:alpha" maskUnits="userSpaceOnUse" x="7" y="7" width="6" height="7">
<path d="M7.22222 7.77783L12.7778 7.77783L12.7778 9.78607C12.7778 11.593 11.6777 13.2179 10 13.8889C8.32232 13.2179 7.22222 11.593 7.22222 9.78607L7.22222 7.77783Z" fill="#005EB8"/>
</mask>
<g mask="url(#mask1_11482_6348)">
<rect x="7.22222" y="10.5557" width="5.55556" height="3.33333" fill="#009B77"/>
</g>
</g>
</svg>
