<svg width="29" height="20" viewBox="0 0 29 20" fill="none" xmlns="http://www.w3.org/2000/svg">
<mask id="mask0_11482_6357" style="mask-type:alpha" maskUnits="userSpaceOnUse" x="0" y="0" width="29" height="20">
<rect width="29" height="20" fill="#D9D9D9"/>
</mask>
<g mask="url(#mask0_11482_6357)">
<rect x="29" y="20" width="29" height="20" transform="rotate(180 29 20)" fill="#F1B434"/>
<rect x="26.9861" y="18" width="24.9722" height="16" transform="rotate(180 26.9861 18)" fill="#DD2033"/>
<path d="M14.4304 5.57485C15.0854 5.57485 15.6165 5.04321 15.6165 4.3874C15.6165 3.73159 15.0854 3.19995 14.4304 3.19995C13.7753 3.19995 13.2443 3.73159 13.2443 4.3874C13.2443 5.04321 13.7753 5.57485 14.4304 5.57485Z" fill="#F1B434"/>
<path d="M15.933 7.2898C16.4417 7.0363 17.0957 6.97063 17.5412 7.00113L17.648 5.46368C17.0216 5.4208 16.0677 5.49823 15.2365 5.91254C14.9225 6.06902 14.6249 6.27578 14.3719 6.53844C14.1206 6.2799 13.8262 6.07597 13.5156 5.92122C12.6844 5.50691 11.7305 5.42947 11.1041 5.47236L11.2109 7.00981C11.6564 6.97931 12.3104 7.04498 12.8191 7.29848C13.2775 7.52695 13.5971 7.88387 13.5971 8.55274V8.81538L9.38655 7.68587C9.23585 8.24895 9.56962 8.82772 10.132 8.9786L13.5971 9.90813V10.1813L9.30007 9.0286C9.14937 9.59168 9.48314 10.1705 10.0456 10.3213L13.4555 11.2361L13.2389 11.4512L9.46815 10.4396C9.31745 11.0027 9.65121 11.5815 10.2136 11.7324L12.3723 12.3114L10.6086 14.0622L11.7064 15.1519L13.6449 13.2276L12.8264 15.2589L14.3788 16.8L15.9313 15.2588L15.1107 13.2223L17.0457 15.1432L18.1435 14.0535L16.3538 12.2769L18.3836 11.7324C18.946 11.5815 19.2798 11.0027 19.1291 10.4396L15.4872 11.4166L15.2705 11.2015L18.5517 10.3213C19.1141 10.1705 19.4478 9.59168 19.2971 9.0286L15.1551 10.1398V9.86658L18.4652 8.9786C19.0276 8.82772 19.3614 8.24895 19.2107 7.68587L15.1551 8.77383V8.54406C15.1551 7.87519 15.4746 7.51827 15.933 7.2898Z" fill="#F1B434"/>
<path d="M11.6101 8.21362L16.8816 8.21362L16.8816 10.1242C16.8816 11.8391 15.8378 13.3814 14.2458 14.0189C12.6539 13.3814 11.6101 11.8391 11.6101 10.1242L11.6101 8.21362Z" fill="#005EB8"/>
<mask id="mask1_11482_6357" style="mask-type:alpha" maskUnits="userSpaceOnUse" x="11" y="8" width="6" height="7">
<path d="M11.6101 8.21338L16.8816 8.21338L16.8816 10.124C16.8816 11.8389 15.8378 13.3811 14.2458 14.0187C12.6539 13.3811 11.6101 11.8389 11.6101 10.124L11.6101 8.21338Z" fill="#005EB8"/>
</mask>
<g mask="url(#mask1_11482_6357)">
<rect x="11.6101" y="10.8523" width="5.2714" height="3.16653" fill="#009B77"/>
</g>
</g>
</svg>
