<svg width="72" height="72" viewBox="0 0 72 72" fill="none" xmlns="http://www.w3.org/2000/svg">
<mask id="mask0_44_423" style="mask-type:alpha" maskUnits="userSpaceOnUse" x="0" y="0" width="72" height="72">
<circle cx="36" cy="36" r="36" fill="#D9D9D9"/>
</mask>
<g mask="url(#mask0_44_423)">
<rect width="72" height="72" fill="#004692"/>
<path d="M14.071 64.9827L12.1001 63.0117L57.9117 6.99991L64.9827 14.071L14.071 64.9827Z" fill="#F1B434"/>
<path d="M16.0884 67L14.071 64.9826L64.9827 14.071L72.0538 21.142L16.0884 67Z" fill="#F5F7F8"/>
<path d="M33 25.9999L28.0967 28.4246L30.7076 33.4165L25.3833 32.3458L24.7086 38L20.9999 33.8415L17.2914 38L16.6167 32.3458L11.2922 33.4163L13.9033 28.4244L9 25.9999L13.9035 23.5754L11.2922 18.5837L16.6165 19.6542L17.2916 14L20.9999 18.1585L24.7088 14L25.3833 19.6542L30.7078 18.5837L28.0968 23.5756L33 25.9999Z" fill="#F5F7F8"/>
</g>
</svg>
