<svg width="29" height="20" viewBox="0 0 29 20" fill="none" xmlns="http://www.w3.org/2000/svg">
<mask id="mask0_11482_6399" style="mask-type:alpha" maskUnits="userSpaceOnUse" x="0" y="0" width="29" height="20">
<rect width="29" height="20" fill="#D9D9D9"/>
</mask>
<g mask="url(#mask0_11482_6399)">
<rect width="29" height="20" fill="#004692"/>
<path d="M2.77271 20.9229L2.04748 19.7835L32.041 2.32766L34.6429 6.41513L2.77271 20.9229Z" fill="#F1B434"/>
<path d="M3.51521 22.0889L2.77291 20.9228L34.6431 6.41507L37.2449 10.5025L3.51521 22.0889Z" fill="#F5F7F8"/>
<path d="M12.0834 7.60001L10.1084 8.5699L11.16 10.5667L9.01551 10.1384L8.74377 12.4L7.24998 10.7366L5.75627 12.4L5.48453 10.1384L3.33993 10.5666L4.39165 8.56983L2.41669 7.60001L4.39171 6.6302L3.33993 4.63351L5.48446 5.06174L5.75634 2.80005L7.24998 4.46346L8.74384 2.80005L9.01551 5.06174L11.1601 4.63351L10.1085 6.63027L12.0834 7.60001Z" fill="#F5F7F8"/>
</g>
</svg>
