<svg width="20" height="20" viewBox="0 0 20 20" fill="none" xmlns="http://www.w3.org/2000/svg">
<mask id="mask0_11482_6393" style="mask-type:alpha" maskUnits="userSpaceOnUse" x="0" y="0" width="20" height="20">
<circle cx="10" cy="10" r="10" fill="#D9D9D9"/>
</mask>
<g mask="url(#mask0_11482_6393)">
<rect width="20" height="20" fill="#004692"/>
<path d="M3.90863 18.0508L3.36115 17.5033L16.0866 1.94446L18.0508 3.90864L3.90863 18.0508Z" fill="#F1B434"/>
<path d="M4.46899 18.6111L3.90862 18.0507L18.0508 3.90857L20.0149 5.87276L4.46899 18.6111Z" fill="#F5F7F8"/>
<path d="M9.16667 7.22222L7.80463 7.89575L8.5299 9.28239L7.05091 8.98496L6.8635 10.5556L5.83331 9.40044L4.80316 10.5556L4.61575 8.98496L3.13672 9.28234L3.86204 7.89571L2.5 7.22222L3.86209 6.54874L3.13672 5.16215L4.61571 5.45954L4.80321 3.88892L5.83331 5.04406L6.86355 3.88892L7.05091 5.45954L8.52995 5.16215L7.80467 6.54879L9.16667 7.22222Z" fill="#F5F7F8"/>
</g>
</svg>
