<svg width="72" height="72" viewBox="0 0 72 72" fill="none" xmlns="http://www.w3.org/2000/svg">
<mask id="mask0_44_502" style="mask-type:alpha" maskUnits="userSpaceOnUse" x="0" y="0" width="72" height="72">
<circle cx="36" cy="36" r="36" fill="#D9D9D9"/>
</mask>
<g mask="url(#mask0_44_502)">
<rect width="72" height="72" fill="#DD2033"/>
<path d="M24.9084 28.0013C25.8569 26.6411 27.0408 25.4572 28.401 24.5086L13.2992 2.99995L3.39969 12.8994L24.9084 28.0013Z" fill="#FBD381"/>
<path d="M33.599 22.2802C34.504 22.0965 35.4407 22 36.3999 22C37.0875 22 37.7635 22.0496 38.4246 22.1453L43 -4H29L33.599 22.2802Z" fill="#FBD381"/>
<path d="M47.9162 28.0369C47.0213 26.7452 45.9148 25.6114 44.6467 24.6855L60.1611 2.58918L70.0606 12.4887L47.9162 28.0369Z" fill="#FBD381"/>
<path d="M50.2286 33.8037C50.3414 34.5193 50.3999 35.2528 50.3999 36C50.3999 36.917 50.3117 37.8135 50.1434 38.6813L76.25 43.25V29.25L50.2286 33.8037Z" fill="#FBD381"/>
<path d="M44.562 47.3758C45.7996 46.4863 46.8861 45.3998 47.7756 44.1623L70.2212 59.922L60.3217 69.8215L44.562 47.3758Z" fill="#FBD381"/>
<path d="M38.3392 49.8668C37.7053 49.9546 37.0579 50 36.3999 50C35.4705 50 34.5623 49.9094 33.6836 49.7367L29 76.5H43L38.3392 49.8668Z" fill="#FBD381"/>
<path d="M28.487 47.5509C27.1577 46.6385 25.9939 45.5027 25.0496 44.1975L3.23909 59.5112L13.1386 69.4107L28.487 47.5509Z" fill="#FBD381"/>
<path d="M22.6308 38.5459L-4.25 43.25V29.25L22.5504 33.9401C22.4513 34.6123 22.3999 35.3002 22.3999 36C22.3999 36.8694 22.4792 37.7203 22.6308 38.5459Z" fill="#FBD381"/>
<path d="M47.3999 36C47.3999 42.0751 42.475 47 36.3999 47C30.3248 47 25.3999 42.0751 25.3999 36C25.3999 29.9249 30.3248 25 36.3999 25C42.475 25 47.3999 29.9249 47.3999 36Z" fill="#FBD381"/>
</g>
</svg>
