<svg width="20" height="20" viewBox="0 0 20 20" fill="none" xmlns="http://www.w3.org/2000/svg">
<mask id="mask0_11482_6408" style="mask-type:alpha" maskUnits="userSpaceOnUse" x="0" y="0" width="20" height="20">
<circle cx="10" cy="10" r="10" fill="#D9D9D9"/>
</mask>
<g mask="url(#mask0_11482_6408)">
<rect width="20" height="20" fill="#DD2033"/>
<path d="M6.91901 7.77816C7.18249 7.40033 7.51135 7.07146 7.88918 6.80797L3.69423 0.833347L0.944371 3.58321L6.91901 7.77816Z" fill="#FBD381"/>
<path d="M9.33308 6.18898C9.58446 6.13793 9.84465 6.11114 10.1111 6.11114C10.3021 6.11114 10.4899 6.12491 10.6735 6.15151L11.9445 -1.11108H8.05557L9.33308 6.18898Z" fill="#FBD381"/>
<path d="M13.3101 7.78806C13.0615 7.42926 12.7541 7.1143 12.4019 6.85711L16.7114 0.719244L19.4613 3.4691L13.3101 7.78806Z" fill="#FBD381"/>
<path d="M13.9524 9.38995C13.9837 9.58871 14 9.79247 14 10C14 10.2548 13.9755 10.5038 13.9287 10.7448L21.1806 12.0139V8.12503L13.9524 9.38995Z" fill="#FBD381"/>
<path d="M12.3784 13.16C12.7221 12.9129 13.0239 12.6111 13.271 12.2673L19.5059 16.645L16.7561 19.3949L12.3784 13.16Z" fill="#FBD381"/>
<path d="M10.6498 13.8519C10.4737 13.8763 10.2939 13.8889 10.1111 13.8889C9.85294 13.8889 9.60065 13.8638 9.35656 13.8158L8.05557 21.25H11.9445L10.6498 13.8519Z" fill="#FBD381"/>
<path d="M7.91307 13.2086C7.54382 12.9552 7.22053 12.6397 6.95823 12.2771L0.89976 16.5309L3.64962 19.2808L7.91307 13.2086Z" fill="#FBD381"/>
<path d="M6.28635 10.7072L-1.18054 12.0139V8.12503L6.26401 9.42782C6.23647 9.61457 6.22221 9.80563 6.22221 10C6.22221 10.2415 6.24422 10.4779 6.28635 10.7072Z" fill="#FBD381"/>
<path d="M13.1667 10C13.1667 11.6876 11.7986 13.0556 10.1111 13.0556C8.42356 13.0556 7.05554 11.6876 7.05554 10C7.05554 8.31249 8.42356 6.94447 10.1111 6.94447C11.7986 6.94447 13.1667 8.31249 13.1667 10Z" fill="#FBD381"/>
</g>
</svg>
