<svg width="29" height="20" viewBox="0 0 29 20" fill="none" xmlns="http://www.w3.org/2000/svg">
<mask id="mask0_11482_6412" style="mask-type:alpha" maskUnits="userSpaceOnUse" x="0" y="0" width="29" height="20">
<rect width="29" height="20" fill="#D9D9D9"/>
</mask>
<g mask="url(#mask0_11482_6412)">
<rect y="-4.3999" width="29" height="28.8" fill="#DD2033"/>
<path d="M10.0326 6.80052C10.4146 6.25643 10.8915 5.78287 11.4393 5.40344L5.35663 -3.20002L1.34706e-05 -0.2L10.0326 6.80052Z" fill="#FBD381"/>
<path d="M13.533 4.51209C13.8975 4.43859 14.2747 4.4 14.6611 4.4C14.938 4.4 15.2103 4.41983 15.4766 4.45813L17.3195 -6H11.6806L13.533 4.51209Z" fill="#FBD381"/>
<path d="M19.2996 6.81476C18.9392 6.29809 18.4935 5.84455 17.9827 5.47421L24.2316 -3.36433L29 0.2L19.2996 6.81476Z" fill="#FBD381"/>
<path d="M20.231 9.1215C20.2764 9.40771 20.3 9.70112 20.3 10C20.3 10.3668 20.2645 10.7254 20.1967 11.0725L30.7118 12.9V7.3L20.231 9.1215Z" fill="#FBD381"/>
<path d="M17.9486 14.5503C18.4471 14.1945 18.8847 13.7599 19.243 13.2649L29 20L24.2963 23.5286L17.9486 14.5503Z" fill="#FBD381"/>
<path d="M15.4422 15.5467C15.1869 15.5818 14.9261 15.6 14.6611 15.6C14.2868 15.6 13.9209 15.5638 13.567 15.4947L11.6806 26.2H17.3195L15.4422 15.5467Z" fill="#FBD381"/>
<path d="M11.4739 14.6204C10.9385 14.2554 10.4698 13.8011 10.0894 13.279L1.34706e-05 20L5.29194 23.3643L11.4739 14.6204Z" fill="#FBD381"/>
<path d="M9.1152 11.0183L-1.71179 12.9V7.3L9.08281 9.17603C9.04288 9.44494 9.0222 9.72007 9.0222 10C9.0222 10.3478 9.05412 10.6881 9.1152 11.0183Z" fill="#FBD381"/>
<path d="M19.0916 10C19.0916 12.4301 17.108 14.4 14.6611 14.4C12.2142 14.4 10.2305 12.4301 10.2305 10C10.2305 7.56995 12.2142 5.6 14.6611 5.6C17.108 5.6 19.0916 7.56995 19.0916 10Z" fill="#FBD381"/>
</g>
</svg>
