<svg width="72" height="72" viewBox="0 0 72 72" fill="none" xmlns="http://www.w3.org/2000/svg">
<mask id="mask0_44_1948" style="mask-type:alpha" maskUnits="userSpaceOnUse" x="0" y="0" width="72" height="72">
<circle cx="36" cy="36" r="36" transform="matrix(-4.37114e-08 -1 -1 4.37114e-08 72 72)" fill="#D9D9D9"/>
</mask>
<g mask="url(#mask0_44_1948)">
<rect width="72" height="72" transform="matrix(1 0 0 -1 0 72)" fill="#DD2033"/>
<rect width="18" height="72" transform="matrix(1 0 0 -1 27 71.9998)" fill="#005EB8"/>
<path d="M14 20C15.1046 20 16 19.1046 16 18C16 16.8954 15.1046 16 14 16C12.8954 16 12 16.8954 12 18C12 19.1046 12.8954 20 14 20Z" fill="#F1B434"/>
<path d="M18 25C18 27.2091 16.2091 29 14 29C11.7909 29 10 27.2091 10 25C10 22.7909 11.7909 21 14 21C16.2091 21 18 22.7909 18 25Z" fill="#F1B434"/>
<path d="M8 30H4V50H8L8 30Z" fill="#F1B434"/>
<path d="M14 33L18 30L10 30L14 33Z" fill="#F1B434"/>
<path d="M20 30H24L24 50H20L20 30Z" fill="#F1B434"/>
<path fill-rule="evenodd" clip-rule="evenodd" d="M14 35C12.674 35 11.4022 35.5268 10.4646 36.4645C9.52687 37.4022 9 38.6741 9 40.0001C9 41.3262 9.52677 42.5979 10.4644 43.5356C10.73 43.8012 11.0224 44.0338 11.3353 44.2308C11.0676 43.7671 10.9231 43.2372 10.9231 42.6924C10.9231 42.667 10.9234 42.6414 10.924 42.616C10.9435 41.8276 11.2652 41.0756 11.8242 40.5166C12.3652 39.9756 13.087 39.6569 13.8474 39.6192C13.895 39.6168 13.9426 39.6155 13.9904 39.6154L14 39.6154C14.0383 39.6154 14.0764 39.6144 14.1144 39.6125C14.6848 39.5842 15.226 39.3452 15.6317 38.9395C16.0645 38.5067 16.3077 37.9196 16.3077 37.3076C16.3077 37.2885 16.3075 37.2695 16.307 37.2505C16.2923 36.6592 16.051 36.0952 15.6317 35.6759C15.248 35.2922 14.743 35.0575 14.2068 35.0093C14.1383 35.0031 14.0693 35 14 35ZM12.8211 37.3077C12.8211 36.6704 13.3377 36.1538 13.9749 36.1538C14.6122 36.1538 15.1288 36.6704 15.1288 37.3077C15.1288 37.9449 14.6122 38.4615 13.9749 38.4615C13.3377 38.4615 12.8211 37.9449 12.8211 37.3077Z" fill="#F1B434"/>
<path fill-rule="evenodd" clip-rule="evenodd" d="M17.0769 37.2982C17.0768 37.2723 17.0764 37.2465 17.0757 37.2207C17.0612 36.7066 16.9182 36.2082 16.6647 35.7692C16.9776 35.9662 17.27 36.1988 17.5356 36.4644C18.4732 37.4021 19 38.6738 19 39.9999C19 41.3259 18.4731 42.5978 17.5354 43.5355C16.5978 44.4732 15.326 45 14 45C13.9011 45 13.8029 44.9937 13.7059 44.9812C13.2024 44.9165 12.7311 44.6869 12.3683 44.3241C11.9491 43.9049 11.7077 43.3409 11.693 42.7497C11.6925 42.7306 11.6923 42.7115 11.6923 42.6924L11.6923 42.6852C11.6924 42.6686 11.6926 42.6519 11.693 42.6353C11.7077 42.0439 11.949 41.4798 12.3683 41.0605C12.774 40.6548 13.3153 40.4158 13.8856 40.3875C13.9236 40.3856 13.9618 40.3846 14 40.3846C14.0986 40.3846 14.1968 40.3799 14.2941 40.3705C15.0022 40.3026 15.6685 39.9907 16.1758 39.4834C16.7528 38.9064 17.0769 38.1238 17.0769 37.3078L17.0769 37.2982ZM15.1789 42.6923C15.1789 43.3296 14.6623 43.8462 14.0251 43.8462C13.3878 43.8462 12.8712 43.3296 12.8712 42.6923C12.8712 42.0551 13.3878 41.5385 14.0251 41.5385C14.6623 41.5385 15.1789 42.0551 15.1789 42.6923Z" fill="#F1B434"/>
<path d="M18 47L14 50L10 47H18Z" fill="#F1B434"/>
</g>
</svg>
