<svg width="29" height="20" viewBox="0 0 29 20" fill="none" xmlns="http://www.w3.org/2000/svg">
<mask id="mask0_11482_6449" style="mask-type:alpha" maskUnits="userSpaceOnUse" x="0" y="0" width="29" height="20">
<rect width="29" height="20" fill="#D9D9D9"/>
</mask>
<g mask="url(#mask0_11482_6449)">
<rect width="29" height="20" transform="matrix(1 0 0 -1 0 20)" fill="#DD2033"/>
<rect width="7.25" height="20" transform="matrix(1 0 0 -1 10.875 20)" fill="#005EB8"/>
<path d="M5.63889 3.6C6.08379 3.6 6.44445 3.24183 6.44445 2.8C6.44445 2.35817 6.08379 2 5.63889 2C5.194 2 4.83334 2.35817 4.83334 2.8C4.83334 3.24183 5.194 3.6 5.63889 3.6Z" fill="#F1B434"/>
<path d="M7.25 5.6C7.25 6.48366 6.52869 7.2 5.63889 7.2C4.7491 7.2 4.02778 6.48366 4.02778 5.6C4.02778 4.71634 4.7491 4 5.63889 4C6.52868 4 7.25 4.71634 7.25 5.6Z" fill="#F1B434"/>
<path d="M3.22223 7.6H1.61111V15.6H3.22223L3.22223 7.6Z" fill="#F1B434"/>
<path d="M5.63889 8.8L7.25 7.6H4.02778L5.63889 8.8Z" fill="#F1B434"/>
<path d="M8.05556 7.6H9.66667L9.66667 15.6H8.05556L8.05556 7.6Z" fill="#F1B434"/>
<path fill-rule="evenodd" clip-rule="evenodd" d="M5.63889 9.6C5.10481 9.6 4.59256 9.81074 4.2149 10.1858C3.83722 10.5609 3.625 11.0696 3.625 11.6001C3.625 12.1305 3.83717 12.6392 4.21484 13.0142C4.32181 13.1205 4.43959 13.2135 4.5656 13.2923C4.45777 13.1068 4.39958 12.8949 4.39958 12.677C4.39958 12.6668 4.3997 12.6565 4.39996 12.6464C4.40782 12.331 4.53738 12.0302 4.76255 11.8066C4.98044 11.5902 5.27114 11.4628 5.57744 11.4477C5.59659 11.4467 5.61579 11.4462 5.63504 11.4462L5.63889 11.4462C5.6543 11.4462 5.66967 11.4458 5.68498 11.445C5.9147 11.4337 6.1327 11.3381 6.29611 11.1758C6.47043 11.0027 6.56838 10.7678 6.56838 10.523C6.56838 10.5154 6.56828 10.5078 6.56809 10.5002C6.56218 10.2637 6.46498 10.0381 6.29611 9.87037C6.14156 9.71688 5.93815 9.62301 5.7222 9.60371C5.69461 9.60125 5.66682 9.6 5.63889 9.6ZM5.16405 10.5231C5.16405 10.2682 5.37212 10.0615 5.62879 10.0615C5.88547 10.0615 6.09354 10.2682 6.09354 10.5231C6.09354 10.778 5.88547 10.9846 5.62879 10.9846C5.37212 10.9846 5.16405 10.778 5.16405 10.5231Z" fill="#F1B434"/>
<path fill-rule="evenodd" clip-rule="evenodd" d="M6.8782 10.5193C6.87817 10.5089 6.87801 10.4986 6.87771 10.4883C6.87187 10.2826 6.81427 10.0833 6.71218 9.90767C6.8382 9.98648 6.95597 10.0795 7.06295 10.1858C7.44061 10.5608 7.65278 11.0695 7.65278 11.5999C7.65278 12.1304 7.44057 12.6391 7.06289 13.0142C6.68523 13.3893 6.17298 13.6 5.63889 13.6C5.59908 13.6 5.55952 13.5975 5.52045 13.5925C5.31764 13.5666 5.12782 13.4748 4.98167 13.3296C4.81282 13.1619 4.71562 12.9364 4.70969 12.6999C4.7095 12.6923 4.70941 12.6846 4.70941 12.677L4.70941 12.6741C4.70943 12.6674 4.70952 12.6608 4.70969 12.6541C4.71559 12.4176 4.81279 12.1919 4.98167 12.0242C5.14508 11.8619 5.36309 11.7663 5.59281 11.755C5.60812 11.7542 5.62349 11.7538 5.63889 11.7538C5.67862 11.7538 5.71814 11.752 5.75735 11.7482C6.04256 11.721 6.31091 11.5963 6.51524 11.3934C6.74765 11.1626 6.87821 10.8495 6.87821 10.5231L6.8782 10.5193ZM6.11373 12.6769C6.11373 12.9318 5.90566 13.1385 5.64899 13.1385C5.39232 13.1385 5.18425 12.9318 5.18425 12.6769C5.18425 12.422 5.39232 12.2154 5.64899 12.2154C5.90566 12.2154 6.11373 12.422 6.11373 12.6769Z" fill="#F1B434"/>
<path d="M7.25 14.4L5.63889 15.6L4.02778 14.4H7.25Z" fill="#F1B434"/>
</g>
</svg>
