<svg width="20" height="20" viewBox="0 0 20 20" fill="none" xmlns="http://www.w3.org/2000/svg">
<mask id="mask0_11482_6444" style="mask-type:alpha" maskUnits="userSpaceOnUse" x="0" y="0" width="20" height="20">
<circle cx="10" cy="10" r="10" transform="matrix(-4.37114e-08 -1 -1 4.37114e-08 20 20)" fill="#D9D9D9"/>
</mask>
<g mask="url(#mask0_11482_6444)">
<rect width="20" height="20" transform="matrix(1 0 0 -1 3.8147e-06 20)" fill="#DD2033"/>
<rect width="5" height="20" transform="matrix(1 0 0 -1 7.5 20)" fill="#005EB8"/>
<path d="M3.88889 5.55545C4.19571 5.55545 4.44444 5.30672 4.44444 4.99989C4.44444 4.69307 4.19571 4.44434 3.88889 4.44434C3.58206 4.44434 3.33333 4.69307 3.33333 4.99989C3.33333 5.30672 3.58206 5.55545 3.88889 5.55545Z" fill="#F1B434"/>
<path d="M5 6.94434C5 7.55799 4.50254 8.05545 3.88889 8.05545C3.27524 8.05545 2.77778 7.55799 2.77778 6.94434C2.77778 6.33069 3.27524 5.83322 3.88889 5.83322C4.50254 5.83322 5 6.33069 5 6.94434Z" fill="#F1B434"/>
<path d="M2.22222 8.33323H1.11111V13.8888H2.22222L2.22222 8.33323Z" fill="#F1B434"/>
<path d="M3.88889 9.16656L5 8.33322L2.77778 8.33323L3.88889 9.16656Z" fill="#F1B434"/>
<path d="M5.55556 8.33323H6.66667L6.66667 13.8888H5.55556L5.55556 8.33323Z" fill="#F1B434"/>
<path fill-rule="evenodd" clip-rule="evenodd" d="M3.88889 9.72211C3.52055 9.72211 3.16728 9.86846 2.90682 10.1289C2.64635 10.3894 2.5 10.7427 2.5 11.111C2.5 11.4794 2.64632 11.8327 2.90678 12.0931C2.98056 12.1669 3.06178 12.2315 3.14869 12.2862C3.07432 12.1574 3.03419 12.0102 3.03419 11.8589C3.03419 11.8518 3.03428 11.8447 3.03445 11.8377C3.03987 11.6187 3.12923 11.4098 3.28451 11.2545C3.43478 11.1042 3.63527 11.0157 3.84651 11.0052C3.85971 11.0046 3.87296 11.0042 3.88623 11.0042L3.88889 11.0042C3.89951 11.0042 3.91011 11.0039 3.92068 11.0034C4.0791 10.9955 4.22945 10.9291 4.34214 10.8164C4.46236 10.6962 4.52991 10.5331 4.52991 10.3631C4.52991 10.3578 4.52985 10.3525 4.52972 10.3473C4.52564 10.183 4.4586 10.0263 4.34214 9.90987C4.23555 9.80328 4.09527 9.73809 3.94634 9.72469C3.92731 9.72298 3.90815 9.72211 3.88889 9.72211ZM3.56141 10.3631C3.56141 10.1861 3.70491 10.0426 3.88192 10.0426C4.05894 10.0426 4.20244 10.1861 4.20244 10.3631C4.20244 10.5402 4.05894 10.6837 3.88192 10.6837C3.70491 10.6837 3.56141 10.5402 3.56141 10.3631Z" fill="#F1B434"/>
<path fill-rule="evenodd" clip-rule="evenodd" d="M4.74359 10.3605C4.74356 10.3533 4.74345 10.3461 4.74325 10.339C4.73922 10.1962 4.6995 10.0577 4.62909 9.93577C4.71599 9.9905 4.79722 10.0551 4.871 10.1289C5.13145 10.3894 5.27778 10.7426 5.27778 11.111C5.27778 11.4793 5.13142 11.8326 4.87096 12.0931C4.6105 12.3535 4.25722 12.4999 3.88889 12.4999C3.86143 12.4999 3.83415 12.4981 3.8072 12.4947C3.66733 12.4767 3.53642 12.4129 3.43563 12.3121C3.31919 12.1957 3.25215 12.039 3.24806 11.8748C3.24793 11.8695 3.24786 11.8642 3.24786 11.8589L3.24787 11.8569C3.24788 11.8523 3.24795 11.8476 3.24806 11.843C3.25213 11.6788 3.31916 11.5221 3.43563 11.4056C3.54833 11.2929 3.69868 11.2265 3.85711 11.2186C3.86767 11.2181 3.87826 11.2178 3.88889 11.2178C3.91628 11.2178 3.94354 11.2165 3.97059 11.2139C4.16728 11.195 4.35235 11.1084 4.49326 10.9675C4.65355 10.8072 4.74359 10.5898 4.74359 10.3632L4.74359 10.3605ZM4.21637 11.8589C4.21637 12.0359 4.07287 12.1794 3.89585 12.1794C3.71884 12.1794 3.57534 12.0359 3.57534 11.8589C3.57534 11.6819 3.71884 11.5384 3.89585 11.5384C4.07287 11.5384 4.21637 11.6819 4.21637 11.8589Z" fill="#F1B434"/>
<path d="M5 13.0554L3.88889 13.8888L2.77778 13.0554H5Z" fill="#F1B434"/>
</g>
</svg>
