<svg width="72" height="72" viewBox="0 0 72 72" fill="none" xmlns="http://www.w3.org/2000/svg">
<mask id="mask0_44_2105" style="mask-type:alpha" maskUnits="userSpaceOnUse" x="0" y="0" width="72" height="72">
<circle cx="36" cy="36" r="36" transform="rotate(-90 36 36)" fill="#D9D9D9"/>
</mask>
<g mask="url(#mask0_44_2105)">
<rect x="72" y="72" width="72" height="72" transform="rotate(180 72 72)" fill="#008259"/>
<mask id="mask1_44_2105" style="mask-type:alpha" maskUnits="userSpaceOnUse" x="11" y="12" width="49" height="48">
<circle cx="35.6001" cy="36" r="24" fill="#D9D9D9"/>
</mask>
<g mask="url(#mask1_44_2105)">
<path fill-rule="evenodd" clip-rule="evenodd" d="M64 57L7 57L7 60L64 60L64 57ZM65.6001 51L8.6001 51L8.6001 54L65.6001 54L65.6001 51Z" fill="#F5F7F8"/>
</g>
<path d="M40.5115 37.0886C42.3364 33.8334 42.5501 29.2116 35.6583 24C28.7137 29.2762 28.8453 33.8484 30.6454 37.0644C27.3926 35.262 22.7886 35.0805 17.6001 41.9418C27.7344 55.2807 35.2713 42.5134 35.5896 41.9602C35.6017 41.9673 35.6123 41.9735 35.6213 41.9788C36.0694 42.7488 43.5601 55.1565 53.6001 41.9418C48.3885 35.05 43.7667 35.2637 40.5115 37.0886Z" fill="#F5F7F8"/>
<path d="M35.2052 12L34.1012 14.4971L31.5014 14.8294L33.4189 16.705L32.9161 19.4074L35.2051 17.8642L37.4942 19.4074L36.9913 16.705L38.9088 14.8294L36.3091 14.4971L35.2052 12Z" fill="#F1B434"/>
<path d="M22.3645 16.3736L22.8924 19.0523L20.9534 20.8156L23.6 21.2522L24.7381 23.7543L25.728 21.1773L28.4883 21.1284L26.5263 19.2032L27.0212 16.5669L24.7011 17.7859L22.3645 16.3736Z" fill="#F1B434"/>
<path d="M19.3038 23.8519L18.1998 26.349L15.6001 26.6812L17.5176 28.5568L17.0147 31.2593L19.3038 29.716L21.5929 31.2593L21.09 28.5568L23.0075 26.6812L20.4078 26.349L19.3038 23.8519Z" fill="#F1B434"/>
<path d="M51.8964 23.8519L50.7924 26.349L48.1927 26.6812L50.1102 28.5568L49.6073 31.2593L51.8964 29.716L54.1855 31.2593L53.6826 28.5568L55.6001 26.6812L53.0004 26.349L51.8964 23.8519Z" fill="#F1B434"/>
<path d="M48.0947 16.3735L45.7581 17.7858L43.438 16.5668L43.9329 19.2031L41.9709 21.1284L44.7311 21.1772L45.7211 23.7543L46.8592 21.2522L49.5058 20.8156L47.5667 19.0522L48.0947 16.3735Z" fill="#F1B434"/>
</g>
</svg>
