<svg width="29" height="20" viewBox="0 0 29 20" fill="none" xmlns="http://www.w3.org/2000/svg">
<mask id="mask0_11482_6466" style="mask-type:alpha" maskUnits="userSpaceOnUse" x="0" y="0" width="29" height="20">
<rect width="29" height="20" fill="#D9D9D9"/>
</mask>
<g mask="url(#mask0_11482_6466)">
<rect x="29" y="20" width="29" height="20" transform="rotate(180 29 20)" fill="#008259"/>
<mask id="mask1_11482_6466" style="mask-type:alpha" maskUnits="userSpaceOnUse" x="6" y="2" width="17" height="16">
<ellipse cx="14.5" cy="10.0001" rx="7.65278" ry="7.6" fill="#D9D9D9"/>
</mask>
<g mask="url(#mask1_11482_6466)">
<path fill-rule="evenodd" clip-rule="evenodd" d="M23.5557 16.6501L5.38037 16.6501L5.38037 17.6001L23.5557 17.6001L23.5557 16.6501ZM24.066 14.7501L5.89061 14.7501L5.89061 15.7001L24.066 15.7001L24.066 14.7501Z" fill="#F5F7F8"/>
<path d="M16.066 10.3449C16.6479 9.31411 16.7161 7.85053 14.5185 6.2002C12.3041 7.87101 12.3461 9.31887 12.9201 10.3373C11.8829 9.76648 10.4148 9.70901 8.76038 11.8818C11.9919 16.1057 14.3951 12.0628 14.4966 11.8876C14.5005 11.8898 14.5039 11.8918 14.5067 11.8935C14.6496 12.1373 17.0381 16.0664 20.2395 11.8818C18.5777 9.69935 17.104 9.76704 16.066 10.3449Z" fill="#F5F7F8"/>
<path d="M14.3741 2.40015L14.0221 3.1909L13.1931 3.29611L13.8045 3.89006L13.6442 4.74583L14.3741 4.25714L15.104 4.74583L14.9436 3.89006L15.5551 3.29611L14.7261 3.1909L14.3741 2.40015Z" fill="#F1B434"/>
<path d="M10.2796 3.78511L10.448 4.63337L9.8297 5.19176L10.6736 5.33001L11.0365 6.12235L11.3522 5.30628L12.2323 5.29082L11.6067 4.68115L11.7645 3.84633L11.0247 4.23234L10.2796 3.78511Z" fill="#F1B434"/>
<path d="M9.3037 6.15323L8.95168 6.94398L8.12271 7.0492L8.73414 7.64315L8.57379 8.49891L9.3037 8.01023L10.0336 8.49891L9.87325 7.64315L10.4847 7.0492L9.65571 6.94398L9.3037 6.15323Z" fill="#F1B434"/>
<path d="M19.6964 6.15323L19.3443 6.94398L18.5154 7.0492L19.1268 7.64315L18.9665 8.49891L19.6964 8.01023L20.4263 8.49891L20.2659 7.64315L20.8773 7.0492L20.0484 6.94398L19.6964 6.15323Z" fill="#F1B434"/>
<path d="M18.4841 3.7851L17.7391 4.23233L16.9993 3.84631L17.1571 4.68113L16.5315 5.2908L17.4116 5.30626L17.7273 6.12233L18.0902 5.32999L18.9341 5.19174L18.3158 4.63336L18.4841 3.7851Z" fill="#F1B434"/>
</g>
</g>
</svg>
