<svg width="20" height="20" viewBox="0 0 20 20" fill="none" xmlns="http://www.w3.org/2000/svg">
<mask id="mask0_11482_6456" style="mask-type:alpha" maskUnits="userSpaceOnUse" x="0" y="0" width="20" height="20">
<circle cx="10" cy="10" r="10" transform="rotate(-90 10 10)" fill="#D9D9D9"/>
</mask>
<g mask="url(#mask0_11482_6456)">
<rect x="20" y="20" width="20" height="20" transform="rotate(180 20 20)" fill="#008259"/>
<mask id="mask1_11482_6456" style="mask-type:alpha" maskUnits="userSpaceOnUse" x="3" y="3" width="14" height="14">
<circle cx="9.88893" cy="10.0002" r="6.66667" fill="#D9D9D9"/>
</mask>
<g mask="url(#mask1_11482_6456)">
<path fill-rule="evenodd" clip-rule="evenodd" d="M17.7778 15.8334L1.94446 15.8334L1.94446 16.6667L17.7778 16.6667L17.7778 15.8334ZM18.2223 14.1667L2.38893 14.1667L2.38893 15.0001L18.2223 15.0001L18.2223 14.1667Z" fill="#F5F7F8"/>
</g>
<path d="M11.2532 10.3025C11.7601 9.39825 11.8195 8.11441 9.90509 6.66675C7.97602 8.13237 8.01257 9.40242 8.5126 10.2958C7.60906 9.79507 6.33018 9.74465 4.88892 11.6506C7.704 15.3558 9.79758 11.8094 9.886 11.6557C9.88937 11.6577 9.89232 11.6594 9.89482 11.6608C10.0193 11.8748 12.1 15.3213 14.8889 11.6506C13.4413 9.73618 12.1574 9.79556 11.2532 10.3025Z" fill="#F5F7F8"/>
<path d="M9.77922 3.33325L9.47256 4.02689L8.75041 4.11919L9.28305 4.6402L9.14337 5.39086L9.77922 4.9622L10.4151 5.39086L10.2754 4.6402L10.808 4.11919L10.0859 4.02689L9.77922 3.33325Z" fill="#F1B434"/>
<path d="M6.21237 4.54813L6.35902 5.29222L5.82041 5.78203L6.55556 5.90331L6.87171 6.59834L7.14669 5.88249L7.91342 5.86893L7.36843 5.33413L7.50591 4.60184L6.86142 4.94044L6.21237 4.54813Z" fill="#F1B434"/>
<path d="M5.36219 6.62543L5.05553 7.31907L4.33337 7.41137L4.86601 7.93238L4.72633 8.68305L5.36218 8.25438L5.99803 8.68305L5.85835 7.93238L6.39099 7.41137L5.66884 7.31907L5.36219 6.62543Z" fill="#F1B434"/>
<path d="M14.4157 6.62543L14.109 7.31907L13.3869 7.41137L13.9195 7.93238L13.7798 8.68305L14.4157 8.25438L15.0515 8.68305L14.9118 7.93238L15.4445 7.41137L14.7223 7.31907L14.4157 6.62543Z" fill="#F1B434"/>
<path d="M13.3597 4.54812L12.7106 4.94043L12.0661 4.60182L12.2036 5.33412L11.6586 5.86891L12.4253 5.88247L12.7003 6.59833L13.0165 5.90329L13.7516 5.78202L13.213 5.29221L13.3597 4.54812Z" fill="#F1B434"/>
</g>
</svg>
