<svg width="72" height="72" viewBox="0 0 72 72" fill="none" xmlns="http://www.w3.org/2000/svg">
<mask id="mask0_45_239" style="mask-type:alpha" maskUnits="userSpaceOnUse" x="0" y="0" width="72" height="72">
<circle cx="36" cy="36" r="36" fill="#D9D9D9"/>
</mask>
<g mask="url(#mask0_45_239)">
<rect width="72" height="72" fill="#0091DA"/>
<path fill-rule="evenodd" clip-rule="evenodd" d="M32.0983 61.1697C32.4733 62.1895 33.4307 62.9407 34.5877 62.9967C34.6345 62.9987 34.6811 63.0005 34.7279 62.9999C35.8252 62.9999 36.7881 62.3624 37.2435 61.4246C37.8164 62.3493 38.9044 62.8937 40.0483 62.7203C41.1941 62.545 42.0712 61.7006 42.3399 60.6455C43.0882 61.4377 44.2639 61.7507 45.35 61.3499C45.35 61.3499 45.0804 61.4504 44.9448 61.5007C44.8089 61.5512 44.8083 61.5514 45.3518 61.3499C46.4378 60.9473 47.1245 59.9423 47.175 58.8536C48.067 59.4781 49.2837 59.5491 50.2654 58.9357C51.247 58.3224 51.7173 57.2 51.5475 56.1262C52.5459 56.5569 53.7495 56.3818 54.5894 55.5856C55.4272 54.7877 55.6643 53.5945 55.2816 52.5766C56.3473 52.8004 57.4913 52.3867 58.1537 51.4375C58.8161 50.4887 58.8068 49.2732 58.2283 48.3503C59.3181 48.356 60.3576 47.7203 60.8149 46.6577C61.2721 45.5931 61.0164 44.4038 60.2624 43.6171C61.3318 43.4009 62.22 42.5693 62.4514 41.4359C62.6846 40.3025 62.1939 39.1897 61.2981 38.5725C62.2983 38.1455 63 37.1536 63 35.998V35.9363C62.9982 34.7805 62.2928 33.7908 61.2925 33.3674C62.1863 32.7465 62.6734 31.6335 62.4402 30.5001C62.2051 29.3667 61.315 28.5371 60.2456 28.3246C60.9976 27.536 61.2496 26.3447 60.7905 25.2821C60.3296 24.2214 59.2901 23.5875 58.2022 23.595C58.7788 22.6721 58.7843 21.4567 58.12 20.5097C57.4557 19.5608 56.3098 19.1507 55.2443 19.3763C55.6249 18.3566 55.3861 17.1654 54.5463 16.3693C53.7065 15.5752 52.501 15.4019 51.5025 15.8362C51.6705 14.7606 51.1984 13.6402 50.2149 13.0306C49.2314 12.4191 48.0146 12.4919 47.1245 13.1182C47.0722 12.0295 46.3818 11.0266 45.2938 10.6257C44.2077 10.227 43.032 10.5418 42.2856 11.3362C42.0132 10.2827 41.1341 9.44025 39.9883 9.26874C38.8443 9.09539 37.7582 9.64342 37.1872 10.5681C36.7093 9.59284 35.6831 8.94431 34.5279 9.00377C33.3708 9.06156 32.4153 9.81476 32.0402 10.8344C31.376 9.97321 30.2375 9.54259 29.1179 9.83335C27.9964 10.1244 27.2107 11.0565 27.0521 12.1338C26.2255 11.4218 25.0219 11.2316 23.9842 11.7424C22.9447 12.2551 22.3644 13.3235 22.426 14.4102C21.4762 13.8807 20.2594 13.9348 19.3468 14.6453C18.4324 15.3555 18.0778 16.5187 18.3578 17.5702C17.3183 17.2421 16.1389 17.5386 15.3868 18.4165C14.6328 19.2964 14.519 20.5063 15.0042 21.4813C13.9199 21.3675 12.8226 21.8951 12.2609 22.9056C11.6992 23.9176 11.8335 25.1277 12.5035 25.9852C11.4191 26.0934 10.4507 26.8317 10.1054 27.9372C9.76022 29.0409 10.1371 30.1986 10.9676 30.9033C9.92822 31.2279 9.12947 32.1467 9.01563 33.2989H9.01379C8.89995 34.4473 9.50085 35.5042 10.4545 36.0263C9.50102 36.552 8.9038 37.6091 9.02133 38.7592C9.13886 39.9092 9.93761 40.8264 10.979 41.1473C10.1485 41.8539 9.77531 43.0134 10.1242 44.117C10.4713 45.2206 11.4417 45.9571 12.526 46.0614C11.8562 46.9212 11.7254 48.1309 12.2909 49.1414C12.8546 50.1517 13.9518 50.6773 15.0342 50.5619C14.5525 51.5368 14.6684 52.7468 15.4242 53.6229C16.18 54.5011 17.3594 54.7955 18.397 54.4637C18.1209 55.5171 18.4773 56.6785 19.3918 57.3869C20.3081 58.0954 21.5248 58.1475 22.4746 57.6144C22.4149 58.7012 22.997 59.7696 24.0384 60.2805C25.0777 60.7892 26.2795 60.5954 27.1044 59.8834C27.2669 60.961 28.0524 61.8894 29.1759 62.1783C30.2974 62.4672 31.4358 62.0328 32.0983 61.1697ZM36 54C45.9411 54 54 45.9411 54 36C54 26.0589 45.9411 18 36 18C26.0589 18 18 26.0589 18 36C18 45.9411 26.0589 54 36 54Z" fill="#F5F7F8"/>
<path d="M30.5 21C29.3954 21 28.5 21.8954 28.5 23V29C28.5 30.1046 29.3954 31 30.5 31H31.25L27.781 58.7519C27.6318 59.9456 28.5626 61 29.7656 61H42.2344C43.4374 61 44.3682 59.9456 44.219 58.7519L40.75 31H41.5C42.6046 31 43.5 30.1046 43.5 29V23C43.5 21.8954 42.6046 21 41.5 21H30.5Z" fill="#C1C3C3"/>
<path d="M36.0001 24L32.4232 32.0906L24 33.1671L30.2127 39.2442L28.5835 48L36 43L43.4165 48L41.7873 39.2442L48 33.1671L39.5768 32.0906L36.0001 24Z" fill="#F5F7F8"/>
</g>
</svg>
