<svg width="20" height="20" viewBox="0 0 20 20" fill="none" xmlns="http://www.w3.org/2000/svg">
<mask id="mask0_11482_6477" style="mask-type:alpha" maskUnits="userSpaceOnUse" x="0" y="0" width="20" height="20">
<circle cx="10" cy="10" r="10" fill="#D9D9D9"/>
</mask>
<g mask="url(#mask0_11482_6477)">
<rect width="20" height="20" fill="#0091DA"/>
<path fill-rule="evenodd" clip-rule="evenodd" d="M8.91618 16.9916C9.02037 17.2749 9.2863 17.4835 9.6077 17.4991C9.62069 17.4996 9.63364 17.5001 9.64663 17.5C9.95145 17.5 10.2189 17.3229 10.3454 17.0624C10.5046 17.3193 10.8068 17.4705 11.1245 17.4223C11.4428 17.3736 11.6864 17.1391 11.7611 16.846C11.9689 17.066 12.2955 17.153 12.5972 17.0416C12.5972 17.0416 12.5223 17.0695 12.4847 17.0835C12.4469 17.0976 12.4467 17.0976 12.5977 17.0416C12.8994 16.9298 13.0901 16.6506 13.1042 16.3482C13.3519 16.5217 13.6899 16.5414 13.9626 16.371C14.2353 16.2007 14.3659 15.8889 14.3187 15.5906C14.5961 15.7102 14.9304 15.6616 15.1637 15.4404C15.3964 15.2188 15.4623 14.8873 15.356 14.6046C15.652 14.6668 15.9698 14.5519 16.1538 14.2882C16.3378 14.0246 16.3352 13.687 16.1745 13.4307C16.4773 13.4322 16.766 13.2556 16.893 12.9605C17.02 12.6648 16.949 12.3344 16.7396 12.1159C17.0366 12.0558 17.2833 11.8248 17.3476 11.51C17.4124 11.1951 17.2761 10.886 17.0272 10.7146C17.3051 10.596 17.5 10.3205 17.5 9.99943V9.98231C17.4995 9.66124 17.3036 9.38633 17.0257 9.26871C17.274 9.09624 17.4093 8.78709 17.3445 8.47225C17.2792 8.15742 17.0319 7.92698 16.7349 7.86794C16.9438 7.6489 17.0138 7.31797 16.8863 7.02281C16.7582 6.72817 16.4695 6.55207 16.1673 6.55417C16.3274 6.29781 16.329 5.96018 16.1444 5.69713C15.9599 5.43356 15.6416 5.31963 15.3456 5.38229C15.4513 5.09905 15.385 4.76816 15.1517 4.54703C14.9185 4.32646 14.5836 4.2783 14.3063 4.39894C14.3529 4.10016 14.2218 3.78895 13.9486 3.6196C13.6754 3.44974 13.3374 3.46998 13.0901 3.64393C13.0756 3.34152 12.8838 3.06293 12.5816 2.9516C12.2799 2.84082 11.9533 2.92829 11.746 3.14896C11.6703 2.85631 11.4261 2.62229 11.1079 2.57465C10.7901 2.5265 10.4884 2.67873 10.3298 2.93559C10.197 2.66468 9.91196 2.48453 9.59107 2.50105C9.26967 2.5171 9.00425 2.72632 8.90007 3.00957C8.71555 2.77033 8.39932 2.65072 8.0883 2.73149C7.77677 2.81235 7.55853 3.07126 7.51448 3.37051C7.28487 3.17273 6.95052 3.11988 6.66228 3.26178C6.37353 3.40419 6.21234 3.70097 6.22944 4.00283C5.9656 3.85576 5.62762 3.87079 5.37412 4.06815C5.12011 4.26542 5.02161 4.58853 5.09939 4.88062C4.81064 4.78947 4.48304 4.87182 4.27411 5.11571C4.06468 5.3601 4.03305 5.6962 4.16784 5.96702C3.86665 5.93543 3.56183 6.08198 3.40581 6.36267C3.24979 6.64377 3.28709 6.97992 3.4732 7.21812C3.17197 7.24818 2.90296 7.45326 2.80707 7.76033C2.71117 8.06693 2.81587 8.38851 3.04654 8.58424C2.75784 8.6744 2.53597 8.92964 2.50434 9.24968H2.50383C2.47221 9.56871 2.63912 9.86228 2.90403 10.0073C2.63917 10.1533 2.47328 10.447 2.50593 10.7664C2.53857 11.0859 2.76045 11.3407 3.04971 11.4298C2.81904 11.6261 2.71536 11.9482 2.81228 12.2547C2.90869 12.5613 3.17825 12.7659 3.47944 12.7948C3.29338 13.0337 3.25705 13.3697 3.41415 13.6504C3.57072 13.931 3.8755 14.077 4.17617 14.045C4.04237 14.3158 4.07455 14.6519 4.2845 14.8953C4.49445 15.1392 4.82205 15.221 5.11029 15.1288C5.03358 15.4214 5.1326 15.744 5.3866 15.9408C5.64113 16.1376 5.9791 16.1521 6.24294 16.004C6.22636 16.3059 6.38806 16.6027 6.67733 16.7446C6.96603 16.8859 7.29987 16.832 7.52901 16.6343C7.57414 16.9336 7.79233 17.1915 8.10442 17.2718C8.41594 17.352 8.73217 17.2313 8.91618 16.9916ZM10 15C12.7614 15 15 12.7614 15 10C15 7.23858 12.7614 5 10 5C7.23858 5 5 7.23858 5 10C5 12.7614 7.23858 15 10 15Z" fill="#F5F7F8"/>
<path d="M8.47223 5.83325C8.16541 5.83325 7.91668 6.08198 7.91668 6.38881V8.05547C7.91668 8.3623 8.16541 8.61103 8.47223 8.61103H8.68057L7.71696 16.3199C7.67551 16.6515 7.93406 16.9444 8.26822 16.9444H11.7318C12.066 16.9444 12.3245 16.6515 12.2831 16.3199L11.3195 8.61103H11.5278C11.8346 8.61103 12.0833 8.3623 12.0833 8.05547V6.38881C12.0833 6.08198 11.8346 5.83325 11.5278 5.83325H8.47223Z" fill="#C1C3C3"/>
<path d="M10 6.66675L9.00646 8.91414L6.66669 9.21317L8.39244 10.9012L7.93987 13.3334L10 11.9445L12.0602 13.3334L11.6076 10.9012L13.3334 9.21317L10.9936 8.91414L10 6.66675Z" fill="#F5F7F8"/>
</g>
</svg>
