<svg width="29" height="20" viewBox="0 0 29 20" fill="none" xmlns="http://www.w3.org/2000/svg">
<mask id="mask0_11482_6483" style="mask-type:alpha" maskUnits="userSpaceOnUse" x="0" y="0" width="29" height="20">
<rect width="29" height="20" fill="#D9D9D9"/>
</mask>
<g mask="url(#mask0_11482_6483)">
<rect width="29" height="20" fill="#0091DA"/>
<path fill-rule="evenodd" clip-rule="evenodd" d="M13.2777 17.8307C13.3952 18.148 13.6951 18.3817 14.0576 18.3991C14.0722 18.3997 14.0868 18.4003 14.1015 18.4001C14.4453 18.4001 14.7469 18.2017 14.8896 17.91C15.069 18.1977 15.4099 18.367 15.7682 18.3131C16.1272 18.2585 16.4019 17.9958 16.4861 17.6676C16.7206 17.914 17.0889 18.0114 17.4291 17.8867C17.4291 17.8867 17.3447 17.918 17.3022 17.9337C17.2596 17.9494 17.2594 17.9494 17.4297 17.8867C17.7699 17.7615 17.985 17.4488 18.0008 17.1101C18.2803 17.3044 18.6614 17.3265 18.9689 17.1357C19.2765 16.9448 19.4238 16.5957 19.3706 16.2616C19.6834 16.3956 20.0604 16.3411 20.3235 16.0934C20.586 15.8451 20.6603 15.4739 20.5404 15.1573C20.8743 15.2269 21.2326 15.0982 21.4401 14.8029C21.6477 14.5077 21.6447 14.1295 21.4635 13.8424C21.8049 13.8442 22.1306 13.6464 22.2738 13.3158C22.417 12.9846 22.3369 12.6146 22.1007 12.3699C22.4357 12.3026 22.714 12.0439 22.7865 11.6913C22.8596 11.3386 22.7058 10.9924 22.4252 10.8004C22.7385 10.6676 22.9583 10.359 22.9583 9.99946V9.98029C22.9578 9.62069 22.7368 9.31278 22.4234 9.18106C22.7035 8.98789 22.856 8.64163 22.783 8.28902C22.7093 7.9364 22.4305 7.67831 22.0955 7.61219C22.3311 7.36686 22.41 6.99622 22.2662 6.66565C22.1218 6.33565 21.7962 6.13842 21.4553 6.14076C21.636 5.85365 21.6377 5.4755 21.4296 5.18088C21.2215 4.88569 20.8625 4.75808 20.5287 4.82827C20.6479 4.51103 20.5731 4.14044 20.31 3.89277C20.0469 3.64573 19.6693 3.5918 19.3565 3.72691C19.4091 3.39228 19.2612 3.04372 18.9531 2.85405C18.645 2.66381 18.2639 2.68647 17.985 2.8813C17.9686 2.5426 17.7523 2.23058 17.4115 2.10589C17.0713 1.98182 16.703 2.07978 16.4691 2.32693C16.3838 1.99917 16.1084 1.73707 15.7494 1.68371C15.3911 1.62977 15.0508 1.80027 14.8719 2.08796C14.7222 1.78454 14.4007 1.58277 14.0388 1.60127C13.6764 1.61925 13.377 1.85358 13.2595 2.17081C13.0514 1.90287 12.6948 1.7689 12.344 1.85936C11.9927 1.94993 11.7466 2.23991 11.6969 2.57507C11.438 2.35355 11.0609 2.29436 10.7358 2.45329C10.4102 2.61279 10.2284 2.94519 10.2477 3.28327C9.95011 3.11855 9.56895 3.13538 9.28306 3.35642C8.99659 3.57736 8.8855 3.93925 8.97322 4.26639C8.64757 4.16431 8.27812 4.25654 8.04249 4.52969C7.80629 4.80341 7.77063 5.17984 7.92263 5.48316C7.58296 5.44778 7.23919 5.61192 7.06324 5.92629C6.88728 6.24112 6.92935 6.6176 7.13924 6.8844C6.79951 6.91806 6.49614 7.14775 6.38799 7.49166C6.27984 7.83505 6.39792 8.19522 6.65807 8.41444C6.33247 8.51543 6.08225 8.80129 6.04658 9.15974H6.04601C6.01034 9.51705 6.19859 9.84585 6.49734 10.0083C6.19864 10.1718 6.01155 10.5007 6.04837 10.8585C6.08519 11.2163 6.33541 11.5016 6.66164 11.6015C6.40149 11.8213 6.28457 12.1821 6.39387 12.5254C6.5026 12.8687 6.80661 13.0979 7.14628 13.1303C6.93644 13.3978 6.89548 13.7742 7.07264 14.0885C7.24922 14.4028 7.59294 14.5664 7.93204 14.5305C7.78113 14.8338 7.81743 15.2102 8.05421 15.4828C8.29099 15.756 8.66044 15.8476 8.98551 15.7444C8.899 16.0721 9.01067 16.4334 9.29713 16.6538C9.58418 16.8742 9.96534 16.8904 10.2629 16.7246C10.2442 17.0627 10.4266 17.3951 10.7528 17.554C11.0784 17.7123 11.4549 17.652 11.7133 17.4305C11.7642 17.7657 12.0103 18.0546 12.3622 18.1445C12.7136 18.2343 13.0702 18.0992 13.2777 17.8307ZM14.5 15.6001C17.6143 15.6001 20.1389 13.0929 20.1389 10.0001C20.1389 6.9073 17.6143 4.4001 14.5 4.4001C11.3857 4.4001 8.86113 6.9073 8.86113 10.0001C8.86113 13.0929 11.3857 15.6001 14.5 15.6001Z" fill="#F5F7F8"/>
<path d="M12.777 5.3335C12.431 5.3335 12.1505 5.61207 12.1505 5.95572V7.82238C12.1505 8.16603 12.431 8.44461 12.777 8.44461H13.012L11.9252 17.0785C11.8785 17.4499 12.1701 17.7779 12.5469 17.7779H16.4531C16.8299 17.7779 17.1215 17.4499 17.0748 17.0785L15.988 8.44461H16.223C16.569 8.44461 16.8495 8.16603 16.8495 7.82238V5.95572C16.8495 5.61207 16.569 5.3335 16.223 5.3335H12.777Z" fill="#C1C3C3"/>
<path d="M14.5001 6.26685L13.3795 8.78393L10.7408 9.11884L12.6871 11.0095L12.1767 13.7335L14.5 12.178L16.8234 13.7335L16.313 11.0095L18.2593 9.11884L15.6206 8.78393L14.5001 6.26685Z" fill="#F5F7F8"/>
</g>
</svg>
