<svg width="72" height="72" viewBox="0 0 72 72" fill="none" xmlns="http://www.w3.org/2000/svg">
<mask id="mask0_45_456" style="mask-type:alpha" maskUnits="userSpaceOnUse" x="0" y="0" width="72" height="72">
<circle cx="36" cy="36" r="36" fill="#D9D9D9"/>
</mask>
<g mask="url(#mask0_45_456)">
<rect x="0.00012207" y="0.00012207" width="72" height="72" fill="#DD2033"/>
<rect y="60" width="48" height="72" transform="rotate(-90 0 60)" fill="#005B33"/>
<path d="M33.3174 24.068L36 18L38.6826 24.068L45 24.8753L40.3405 29.4331L41.5624 36L36 32.25L30.4376 36L31.6595 29.4331L27 24.8753L33.3174 24.068Z" fill="#FBD381"/>
<path d="M49.7609 36.4806C50.9757 34.7667 51.8636 32.9124 52.4358 31C53.6953 35.9279 52.8692 41.3778 49.7255 45.8132C44.187 53.6277 33.5519 55.334 25.9715 49.6244C20.2673 45.328 17.9182 38.0564 19.4649 31.3904C20.435 35.0381 22.5391 38.3581 25.6935 40.734C33.274 46.4436 44.0493 44.5393 49.7609 36.4806Z" fill="#FBD381"/>
</g>
</svg>
