<svg width="29" height="20" viewBox="0 0 29 20" fill="none" xmlns="http://www.w3.org/2000/svg">
<mask id="mask0_11482_6509" style="mask-type:alpha" maskUnits="userSpaceOnUse" x="0" y="0" width="29" height="20">
<rect width="29" height="20" fill="#D9D9D9"/>
</mask>
<g mask="url(#mask0_11482_6509)">
<rect width="29" height="20" fill="#DD2033"/>
<rect y="16.8" width="13.6" height="29" transform="rotate(-90 0 16.8)" fill="#005B33"/>
<path d="M13.6738 6.2723L14.5 4.3999L15.3263 6.2723L17.2721 6.52144L15.8369 7.92784L16.2133 9.95419L14.5 8.79705L12.7868 9.95419L13.1631 7.92784L11.728 6.52144L13.6738 6.2723Z" fill="#FBD381"/>
<path d="M18.7385 10.1025C19.1126 9.57362 19.3861 9.00143 19.5623 8.41133C19.9503 9.93193 19.6958 11.6136 18.7276 12.9823C17.0217 15.3936 13.746 15.9201 11.4112 14.1583C9.65424 12.8325 8.93071 10.5887 9.4071 8.5318C9.7059 9.65736 10.354 10.6818 11.3256 11.415C13.6604 13.1768 16.9793 12.5892 18.7385 10.1025Z" fill="#FBD381"/>
</g>
</svg>
