<svg width="20" height="20" viewBox="0 0 20 20" fill="none" xmlns="http://www.w3.org/2000/svg">
<mask id="mask0_11482_6504" style="mask-type:alpha" maskUnits="userSpaceOnUse" x="0" y="0" width="20" height="20">
<circle cx="10" cy="10" r="10" fill="#D9D9D9"/>
</mask>
<g mask="url(#mask0_11482_6504)">
<rect x="0.00012207" width="20" height="20" fill="#DD2033"/>
<rect y="16.6667" width="13.3333" height="20" transform="rotate(-90 0 16.6667)" fill="#005B33"/>
<path d="M9.25482 6.68555L10 5L10.7452 6.68555L12.5 6.90982L11.2057 8.17587L11.5451 10L9.99999 8.95833L8.45488 10L8.79431 8.17587L7.49999 6.90982L9.25482 6.68555Z" fill="#FBD381"/>
<path d="M13.8225 10.1335C14.1599 9.65741 14.4065 9.14232 14.5655 8.61111C14.9153 9.97996 14.6859 11.4938 13.8126 12.7259C12.2742 14.8966 9.31998 15.3706 7.21431 13.7846C5.62979 12.5911 4.97727 10.5712 5.4069 8.71956C5.67637 9.7328 6.26085 10.655 7.13709 11.315C9.24276 12.901 12.2359 12.372 13.8225 10.1335Z" fill="#FBD381"/>
</g>
</svg>
