<svg width="20" height="20" viewBox="0 0 20 20" fill="none" xmlns="http://www.w3.org/2000/svg">
<mask id="mask0_11482_6516" style="mask-type:alpha" maskUnits="userSpaceOnUse" x="0" y="0" width="20" height="20">
<circle cx="10" cy="10" r="10" fill="#D9D9D9"/>
</mask>
<g mask="url(#mask0_11482_6516)">
<rect width="20" height="20" fill="#004692"/>
<path d="M11.3333 9.72217H17.1667V11.81C17.1667 13.7056 16.0111 15.4097 14.25 16.1111C12.4889 15.4097 11.3333 13.7056 11.3333 11.81V9.72217Z" fill="#3CCBDA"/>
<mask id="mask1_11482_6516" style="mask-type:alpha" maskUnits="userSpaceOnUse" x="11" y="9" width="7" height="8">
<path d="M11.3333 9.72217H17.1667V11.81C17.1667 13.7056 16.0111 15.4097 14.25 16.1111C12.4889 15.4097 11.3333 13.7056 11.3333 11.81V9.72217Z" fill="#0091DA"/>
</mask>
<g mask="url(#mask1_11482_6516)">
<mask id="path-5-inside-1_11482_6516" fill="white">
<path d="M13.8333 12.2223L13.8333 15.2778H14.6667L14.6667 12.2223H16.0556V11.3889H14.6667V10.2778H13.8333V11.3889H12.4445V12.2223H13.8333Z"/>
</mask>
<path d="M13.8333 12.2223L13.8333 15.2778H14.6667L14.6667 12.2223H16.0556V11.3889H14.6667V10.2778H13.8333V11.3889H12.4445V12.2223H13.8333Z" fill="#31373D"/>
<path d="M13.8333 15.2778L12.8333 15.2778L12.8333 16.2778H13.8333V15.2778ZM13.8333 12.2223H14.8333V11.2223H13.8333V12.2223ZM14.6667 15.2778V16.2778H15.6667V15.2778H14.6667ZM14.6667 12.2223V11.2223H13.6667L13.6667 12.2223L14.6667 12.2223ZM16.0556 12.2223V13.2223H17.0556V12.2223H16.0556ZM16.0556 11.3889H17.0556V10.3889H16.0556V11.3889ZM14.6667 11.3889H13.6667V12.3889H14.6667V11.3889ZM14.6667 10.2778H15.6667V9.27783H14.6667V10.2778ZM13.8333 10.2778V9.27783H12.8333V10.2778H13.8333ZM13.8333 11.3889V12.3889H14.8333V11.3889H13.8333ZM12.4445 11.3889V10.3889H11.4445V11.3889H12.4445ZM12.4445 12.2223H11.4445V13.2223H12.4445V12.2223ZM14.8333 15.2778V12.2223H12.8333L12.8333 15.2778L14.8333 15.2778ZM14.6667 14.2778H13.8333V16.2778H14.6667V14.2778ZM13.6667 12.2223L13.6667 15.2778L15.6667 15.2778L15.6667 12.2223L13.6667 12.2223ZM16.0556 11.2223H14.6667V13.2223H16.0556V11.2223ZM15.0556 11.3889V12.2223H17.0556V11.3889H15.0556ZM14.6667 12.3889H16.0556V10.3889H14.6667V12.3889ZM13.6667 10.2778V11.3889H15.6667V10.2778H13.6667ZM13.8333 11.2778H14.6667V9.27783H13.8333V11.2778ZM14.8333 11.3889V10.2778H12.8333V11.3889H14.8333ZM12.4445 12.3889H13.8333V10.3889H12.4445V12.3889ZM13.4445 12.2223V11.3889H11.4445V12.2223H13.4445ZM13.8333 11.2223H12.4445V13.2223H13.8333V11.2223Z" fill="#31373D" mask="url(#path-5-inside-1_11482_6516)"/>
<rect x="11.3333" y="14.1665" width="5.83333" height="1.94444" fill="#936846"/>
</g>
<mask id="mask2_11482_6516" style="mask-type:alpha" maskUnits="userSpaceOnUse" x="0" y="0" width="10" height="10">
<path d="M0 10C-8.69081e-07 4.47715 4.47715 -5.43618e-08 10 -1.21421e-07L10 10L0 10Z" fill="#002F6C"/>
</mask>
<g mask="url(#mask2_11482_6516)">
<rect x="-0.000244141" width="10" height="10" fill="#004692"/>
<path d="M3.47843 0.870386L2.88917 1.45964L11.0908 9.66131L11.6801 9.07205L3.47843 0.870386Z" fill="#F5F7F8"/>
<path d="M1.90708 2.44173L0.924989 3.42383L9.12665 11.6255L10.1087 10.6434L1.90708 2.44173Z" fill="#F5F7F8"/>
<path d="M1.90708 2.44173L2.88917 1.45964L11.0908 9.66131L10.1087 10.6434L1.90708 2.44173Z" fill="#DD2033"/>
<path d="M9.99998 3.33325V4.72214L4.7222 4.72214L4.7222 9.99993H3.33331V3.33325H9.99998Z" fill="#F5F7F8"/>
<path d="M10 -0.555664V0.833225L1.38889 0.833224L1.38889 9.99989H0V-0.555664H10Z" fill="#F5F7F8"/>
<path fill-rule="evenodd" clip-rule="evenodd" d="M0.833313 9.99992H3.33331L3.33331 3.33325L9.99998 3.33325V0.833252H3.33331H0.833314L0.833314 3.33325L0.833313 9.99992Z" fill="#DD2033"/>
</g>
</g>
</svg>
