<svg width="72" height="72" viewBox="0 0 72 72" fill="none" xmlns="http://www.w3.org/2000/svg">
<mask id="mask0_45_1147" style="mask-type:alpha" maskUnits="userSpaceOnUse" x="0" y="0" width="72" height="72">
<circle cx="36" cy="36" r="36" fill="#D9D9D9"/>
</mask>
<g mask="url(#mask0_45_1147)">
<rect x="56.0001" y="0.00012207" width="16" height="72" fill="#DD2033"/>
<rect x="16.0001" y="0.00012207" width="40" height="72" fill="#F5F7F8"/>
<rect x="0.00012207" y="-0.00012207" width="16" height="72" fill="#008259"/>
<path fill-rule="evenodd" clip-rule="evenodd" d="M18.4061 35.4353C18.1402 36.6663 18.0001 37.9441 18.0001 39.2546C18.0001 49.1957 26.059 57.2546 36.0001 57.2546C45.9412 57.2546 54.0001 49.1957 54.0001 39.2546C54.0001 37.916 53.854 36.6115 53.5768 35.3562L47.9135 37.8052C47.9707 38.2804 48.0001 38.764 48.0001 39.2546C48.0001 45.882 42.6275 51.2546 36.0001 51.2546C29.3727 51.2546 24.0001 45.882 24.0001 39.2546C24.0001 38.7924 24.0263 38.3362 24.0771 37.8876L18.4061 35.4353Z" fill="#009B77"/>
<path d="M42.8 27.9999L45.1526 32.0395C45.7193 33.0124 45.3954 34.2603 44.4272 34.8349L43.9576 34.0435C43.9269 34.2169 43.8902 34.3883 43.8473 34.5575L44.1384 35.0479C44.7116 36.0138 44.3933 37.2615 43.4273 37.8348L42.8008 36.779C42.7579 36.8358 42.7138 36.8919 42.6687 36.9473C43.1663 37.8983 42.8378 39.0833 41.9038 39.6376L41.0977 38.2794C41.0966 38.28 41.0956 38.2806 41.0945 38.2812L40.94 38.0136L37.5541 32.3082L38.21 37.4099L42.8002 42.0001H34.2694C32.2788 42.0001 30.5911 40.5364 30.3096 38.5658L29.4716 32.7001L26.4916 33.5757L25.9278 31.6568C25.305 29.5372 26.5185 27.3142 28.638 26.6914L30.5569 26.1276C32.2717 25.6238 34.0542 26.3218 35.0023 27.7292L34.8002 27.3792C34.2479 26.4226 34.5705 25.1521 35.6403 24.8772C38.358 24.1789 40.7507 25.5408 42.8 27.9999Z" fill="#936846"/>
<path d="M25.8817 31.5002L26.4915 33.5757L29.5001 32.6918L25.8817 31.5002Z" fill="#F1B434"/>
<path fill-rule="evenodd" clip-rule="evenodd" d="M26.5028 38.8746C24.1767 34.8666 21.8429 32.7957 21.0052 32.2722L22.5951 29.7281C23.9599 30.5811 26.6027 33.0701 29.0975 37.3688L26.5028 38.8746ZM34.9722 46.8072C32.2767 46.5766 29.5806 45.1484 27.9409 41.6345L30.6594 40.3659C31.8196 42.852 33.5402 43.6738 35.228 43.8182C37.0369 43.9729 38.9107 43.3419 40.0648 42.6928L41.5355 45.3075C40.0229 46.1584 37.5467 47.0275 34.9722 46.8072Z" fill="#008259"/>
</g>
</svg>
