<svg width="72" height="72" viewBox="0 0 72 72" fill="none" xmlns="http://www.w3.org/2000/svg">
<mask id="mask0_45_1147" style="mask-type:alpha" maskUnits="userSpaceOnUse" x="0" y="0" width="72" height="72">
<circle cx="36" cy="36" r="36" fill="#D9D9D9"/>
</mask>
<g mask="url(#mask0_45_1147)">
<rect x="56.0001" y="0.000244141" width="16" height="72" fill="#DD2033"/>
<rect x="16.0001" y="0.000244141" width="40" height="72" fill="#F5F7F8"/>
<rect x="0.00012207" width="16" height="72" fill="#008259"/>
<path d="M18.406 29.6555C18.1401 30.8865 18 32.1643 18 33.4748C18 43.416 26.0589 51.4748 36 51.4748C45.9411 51.4748 54 43.416 54 33.4748C54 32.1362 53.8539 30.8317 53.5767 29.5764L50.8019 30.7763C50.9322 31.5717 51 32.388 51 33.2202C51 41.5045 44.2843 48.2202 36 48.2202C27.7157 48.2202 21 41.5045 21 33.2202C21 32.4162 21.0633 31.627 21.1851 30.8573L18.406 29.6555Z" fill="#009B77"/>
<path d="M43.0656 38.7006C41.4019 37.4295 40.2367 36.5393 39.2848 31.0827C43.9653 31.4251 47.6562 35.331 47.6562 40.0988C48.3583 38.5183 48.5387 37.6718 48.7487 36.6867C48.8213 36.346 48.8975 35.9886 49 35.5786C49 27.5752 42.9183 21.2202 36.0898 21.2202C36.011 21.2202 35.9325 21.2211 35.8541 21.2228C35.3089 21.2347 35.1888 22.0728 35.5997 22.4313C36.6332 23.333 37.2863 24.6599 37.2863 26.1393C37.2863 26.7902 37.1599 27.4116 36.9302 27.9803C36.7946 27.9028 36.6549 27.8316 36.5116 27.7671C35.8128 25.2084 33.6859 23.3474 31.1707 23.3474C28.8341 23.3474 26.8327 24.9534 26 27.2329C26.6518 26.624 27.4214 26.2722 28.2458 26.2722C29.5097 26.2722 30.6448 27.0989 31.4241 28.4114C30.2971 29.3129 29.5753 30.6996 29.5753 32.2549C29.5753 33.8635 30.3474 35.2917 31.5412 36.1892L36.2227 40.6306C36.6216 40.8965 37.5788 41.2688 38.2169 40.6306L38.4828 39.1682C38.6601 39.6557 39.2539 40.6306 40.2112 40.6306H44.1996C44.6871 40.675 45.2632 40.4445 43.6678 39.1682C43.4601 39.002 43.2593 38.8487 43.0656 38.7006Z" fill="#936846"/>
<path d="M28.659 24.0137C27.4612 24.6899 26.5108 25.8347 26 27.2328C26.6518 26.6239 27.4214 26.2722 28.2458 26.2722C28.3852 26.2722 28.523 26.2822 28.659 26.3019V24.0137Z" fill="#F1B434"/>
<path d="M30.3817 39.8203C30.186 39.4313 29.9299 39.306 29.6738 39.1807C29.4109 39.0521 29.1481 38.9235 28.9505 38.5099C28.7529 38.0964 28.8182 37.8112 28.8835 37.5261C28.9487 37.2409 29.014 36.9557 28.8164 36.5421C28.6188 36.1286 28.356 36.0002 28.0931 35.8718C27.8303 35.7434 27.5674 35.6151 27.3698 35.2015C27.1723 34.788 27.2375 34.5028 27.3028 34.2177C27.3681 33.9325 27.4334 33.6474 27.2358 33.2338C27.0382 32.8203 26.7754 32.6919 26.5125 32.5635C26.2497 32.4351 25.9868 32.3067 25.7892 31.8931C25.5916 31.4796 25.6569 31.1944 25.7221 30.9092C25.7874 30.624 25.8527 30.3388 25.6551 29.9252C25.4575 29.5117 25.1946 29.3833 24.9318 29.2549C24.6689 29.1265 24.406 28.9981 24.2085 28.5846C24.0109 28.1711 24.0762 27.886 24.1415 27.6008C24.2068 27.3157 24.2721 27.0305 24.0745 26.617C23.8769 26.2034 23.614 26.075 23.3511 25.9466C23.0883 25.8182 22.8254 25.6898 22.6278 25.2762C22.4302 24.8626 22.4955 24.5774 22.5607 24.2922C22.626 24.007 22.6913 23.7218 22.4937 23.3083C22.2961 22.8948 22.0333 22.7664 21.7704 22.638C21.5076 22.5097 21.2447 22.3813 21.0471 21.9677C20.8496 21.5542 20.9146 21.2689 20.9797 20.9837C21.0432 20.7057 21.1066 20.4277 20.927 20.0311C20.6928 20.1182 20.4609 20.216 20.2319 20.3255C20.075 20.4004 19.9216 20.48 19.7714 20.5636C19.9602 20.969 19.8959 21.2507 19.8315 21.5324C19.7664 21.8176 19.7012 22.1028 19.8988 22.5164C20.0964 22.93 20.3592 23.0583 20.6221 23.1867C20.8849 23.3151 21.1477 23.4435 21.3453 23.857C21.5429 24.2706 21.4776 24.5557 21.4124 24.8409C21.3471 25.1261 21.2819 25.4113 21.4795 25.8248C21.6771 26.2384 21.9399 26.3668 22.2028 26.4953C22.4656 26.6237 22.7285 26.7521 22.9261 27.1657C23.1237 27.5793 23.0584 27.8644 22.9931 28.1496C22.9279 28.4347 22.8626 28.7198 23.0602 29.1333C23.2577 29.5468 23.5206 29.6752 23.7834 29.8036C24.0463 29.932 24.3091 30.0604 24.5067 30.4739C24.7043 30.8875 24.639 31.1727 24.5738 31.4579C24.5085 31.7431 24.4433 32.0282 24.6409 32.4418C24.8385 32.8554 25.1013 32.9838 25.3642 33.1122C25.627 33.2406 25.8898 33.369 26.0874 33.7825C26.285 34.1961 26.2197 34.4812 26.1545 34.7664C26.0892 35.0515 26.0239 35.3367 26.2215 35.7502C26.4191 36.1637 26.6819 36.2921 26.9448 36.4205C27.2076 36.5489 27.4704 36.6773 27.668 37.0908C27.8656 37.5045 27.8004 37.7896 27.7351 38.0748C27.6699 38.36 27.6046 38.6451 27.8022 39.0586C27.9998 39.4722 28.2626 39.6008 28.5254 39.7293C28.7851 39.8563 29.0447 39.9832 29.2414 40.3849C29.4008 40.3205 29.5591 40.2512 29.716 40.1762C29.945 40.0668 30.1668 39.9478 30.3817 39.8203Z" fill="#009B77"/>
</g>
</svg>
