<svg width="20" height="20" viewBox="0 0 20 20" fill="none" xmlns="http://www.w3.org/2000/svg">
<mask id="mask0_11482_6600" style="mask-type:alpha" maskUnits="userSpaceOnUse" x="0" y="0" width="20" height="20">
<circle cx="10" cy="10" r="10" fill="#D9D9D9"/>
</mask>
<g mask="url(#mask0_11482_6600)">
<rect x="15.5556" y="0.000244141" width="4.44444" height="20" fill="#DD2033"/>
<rect x="4.44446" y="0.000244141" width="11.1111" height="20" fill="#F5F7F8"/>
<rect x="0.00012207" width="4.44444" height="20" fill="#008259"/>
<path d="M5.11278 8.23755C5.0389 8.57948 5 8.93443 5 9.29847C5 12.0599 7.23858 14.2985 10 14.2985C12.7614 14.2985 15 12.0599 15 9.29847C15 8.92663 14.9594 8.56427 14.8824 8.21558L14.1116 8.54889C14.1478 8.76981 14.1667 8.99658 14.1667 9.22774C14.1667 11.5289 12.3012 13.3944 10 13.3944C7.69881 13.3944 5.83333 11.5289 5.83333 9.22774C5.83333 9.00441 5.8509 8.78518 5.88474 8.57137L5.11278 8.23755Z" fill="#009B77"/>
<path d="M11.9627 10.7502C11.5005 10.3971 11.1769 10.1498 10.9124 8.63412C12.2126 8.72922 13.2379 9.81418 13.2379 11.1386C13.4329 10.6996 13.483 10.4644 13.5413 10.1908C13.5615 10.0961 13.5826 9.99685 13.6111 9.88297C13.6111 7.65981 11.9218 5.89453 10.0249 5.89453C10.0031 5.89453 9.98125 5.89477 9.95948 5.89525C9.80804 5.89857 9.77466 6.13136 9.8888 6.23094C10.1759 6.48143 10.3573 6.85 10.3573 7.26094C10.3573 7.44176 10.3222 7.61437 10.2584 7.77233C10.2207 7.75081 10.1819 7.73103 10.1421 7.71311C9.948 7.00236 9.35721 6.48541 8.65854 6.48541C8.00948 6.48541 7.45354 6.93153 7.22223 7.56471C7.40329 7.39558 7.61707 7.29787 7.84608 7.29787C8.19715 7.29787 8.51246 7.5275 8.72891 7.89209C8.41588 8.14249 8.21537 8.52769 8.21537 8.95972C8.21537 9.40655 8.42984 9.80328 8.76146 10.0526L10.0619 11.2863C10.1727 11.3602 10.4386 11.4636 10.6158 11.2863L10.6897 10.8801C10.7389 11.0155 10.9039 11.2863 11.1698 11.2863H12.2777C12.4131 11.2986 12.5731 11.2346 12.13 10.8801C12.0722 10.8339 12.0165 10.7913 11.9627 10.7502Z" fill="#936846"/>
<path d="M7.96083 6.67041C7.62812 6.85825 7.36411 7.17624 7.22223 7.56461C7.40329 7.39548 7.61707 7.29777 7.84608 7.29777C7.88479 7.29777 7.92307 7.30056 7.96083 7.30602V6.67041Z" fill="#F1B434"/>
<path d="M8.43938 11.0613C8.38501 10.9533 8.31387 10.9185 8.24273 10.8836C8.16972 10.8479 8.09671 10.8122 8.04182 10.6973C7.98693 10.5824 8.00507 10.5032 8.0232 10.424C8.04133 10.3448 8.05946 10.2656 8.00457 10.1507C7.94969 10.0358 7.87667 10.0002 7.80366 9.9645C7.73064 9.92884 7.65763 9.89318 7.60275 9.77831C7.54787 9.66344 7.566 9.58423 7.58413 9.50502C7.60226 9.4258 7.6204 9.3466 7.56551 9.23173C7.51063 9.11685 7.43762 9.08119 7.3646 9.04552C7.29158 9.00986 7.21856 8.97419 7.16368 8.85931C7.10879 8.74443 7.12692 8.66521 7.14505 8.58599C7.16318 8.50677 7.18131 8.42756 7.12642 8.31267C7.07153 8.19779 6.99852 8.16213 6.9255 8.12647C6.85249 8.0908 6.77947 8.05514 6.72459 7.94027C6.66971 7.82542 6.68785 7.74621 6.70598 7.66701C6.72412 7.5878 6.74225 7.50859 6.68737 7.39371C6.63248 7.27882 6.55946 7.24316 6.48644 7.20749C6.41342 7.17182 6.3404 7.13615 6.28552 7.02127C6.23063 6.90638 6.24875 6.82716 6.26688 6.74794C6.28501 6.66872 6.30314 6.58951 6.24826 6.47462C6.19338 6.35977 6.12037 6.32411 6.04736 6.28845C5.97434 6.25279 5.90132 6.21713 5.84644 6.10225C5.79156 5.98738 5.80964 5.90814 5.82772 5.8289C5.84534 5.75169 5.86296 5.67448 5.81308 5.5643C5.74802 5.58849 5.6836 5.61567 5.61998 5.64607C5.57641 5.66689 5.53378 5.689 5.49206 5.71222C5.54452 5.82482 5.52665 5.90308 5.50877 5.98133C5.49067 6.06056 5.47257 6.13978 5.52746 6.25466C5.58234 6.36954 5.65536 6.4052 5.72837 6.44087C5.80138 6.47653 5.87438 6.51219 5.92926 6.62704C5.98415 6.74193 5.96602 6.82114 5.94789 6.90036C5.92977 6.97957 5.91165 7.05879 5.96654 7.17368C6.02142 7.28856 6.09444 7.32423 6.16745 7.3599C6.24046 7.39557 6.31348 7.43125 6.36837 7.54614C6.42326 7.66102 6.40512 7.74023 6.38699 7.81943C6.36887 7.89864 6.35074 7.97783 6.40561 8.09269C6.4605 8.20757 6.53351 8.24323 6.60652 8.2789C6.67953 8.31456 6.75254 8.35022 6.80742 8.46509C6.86231 8.57997 6.84418 8.65919 6.82606 8.73841C6.80793 8.81762 6.78981 8.89683 6.8447 9.01172C6.89959 9.12661 6.97261 9.16228 7.04562 9.19795C7.11863 9.23362 7.19164 9.26928 7.24652 9.38414C7.3014 9.49902 7.28327 9.57823 7.26514 9.65744C7.24701 9.73665 7.22889 9.81586 7.28377 9.93072C7.33865 10.0456 7.41166 10.0813 7.48467 10.1169C7.55768 10.1526 7.63069 10.1883 7.68557 10.3031C7.74047 10.418 7.72234 10.4972 7.70421 10.5764C7.68608 10.6557 7.66796 10.7349 7.72284 10.8497C7.77773 10.9646 7.85074 11.0003 7.92375 11.036C7.99586 11.0713 8.06798 11.1066 8.12263 11.2181C8.1669 11.2002 8.21087 11.181 8.25445 11.1602C8.31807 11.1298 8.37969 11.0967 8.43938 11.0613Z" fill="#009B77"/>
</g>
</svg>
