<svg width="29" height="20" viewBox="0 0 29 20" fill="none" xmlns="http://www.w3.org/2000/svg">
<mask id="mask0_11482_6610" style="mask-type:alpha" maskUnits="userSpaceOnUse" x="0" y="0" width="29" height="20">
<rect width="29" height="20" fill="#D9D9D9"/>
</mask>
<g mask="url(#mask0_11482_6610)">
<rect x="22.5555" width="6.44444" height="20" fill="#DD2033"/>
<rect x="6.44446" width="16.1111" height="20" fill="#F5F7F8"/>
<rect width="6.44444" height="20" fill="#008259"/>
<path d="M7.41353 7.77407C7.30641 8.26645 7.25 8.77758 7.25 9.3018C7.25 13.2782 10.4959 16.5018 14.5 16.5018C18.5041 16.5018 21.75 13.2782 21.75 9.3018C21.75 8.76635 21.6911 8.24455 21.5795 7.74243L20.4619 8.2224C20.5144 8.54053 20.5417 8.86707 20.5417 9.19995C20.5417 12.5137 17.8367 15.2 14.5 15.2C11.1633 15.2 8.45833 12.5137 8.45833 9.19995C8.45833 8.87835 8.48381 8.56267 8.53287 8.25477L7.41353 7.77407Z" fill="#009B77"/>
<path d="M17.3459 11.3921C16.6758 10.8836 16.2065 10.5276 15.823 8.34491C17.7082 8.48186 19.1949 10.0442 19.1949 11.9513C19.4777 11.3192 19.5503 10.9805 19.6349 10.5865C19.6642 10.4502 19.6948 10.3072 19.7361 10.1433C19.7361 6.94191 17.2865 4.3999 14.5362 4.3999C14.5045 4.3999 14.4728 4.40025 14.4412 4.40093C14.2217 4.40571 14.1733 4.74093 14.3388 4.88433C14.7551 5.24503 15.0181 5.77577 15.0181 6.36753C15.0181 6.62791 14.9672 6.87647 14.8747 7.10393C14.82 7.07294 14.7638 7.04447 14.706 7.01866C14.4246 5.99518 13.568 5.25077 12.5549 5.25077C11.6137 5.25077 10.8076 5.89319 10.4722 6.80496C10.7348 6.56141 11.0448 6.42071 11.3768 6.42071C11.8859 6.42071 12.3431 6.75138 12.6569 7.27639C12.203 7.63696 11.9123 8.19165 11.9123 8.81378C11.9123 9.4572 12.2233 10.0285 12.7041 10.3875L14.5897 12.1641C14.7504 12.2704 15.1359 12.4193 15.3929 12.1641L15.5 11.5791C15.5714 11.7741 15.8106 12.1641 16.1962 12.1641H17.8026C17.999 12.1818 18.231 12.0896 17.5884 11.5791C17.5048 11.5126 17.4239 11.4513 17.3459 11.3921Z" fill="#936846"/>
<path d="M11.5432 5.51733C11.0608 5.78782 10.678 6.24574 10.4722 6.80498C10.7348 6.56143 11.0448 6.42073 11.3768 6.42073C11.4329 6.42073 11.4884 6.42476 11.5432 6.43261V5.51733Z" fill="#F1B434"/>
<path d="M12.237 11.84C12.1582 11.6844 12.055 11.6343 11.9519 11.5842C11.846 11.5327 11.7402 11.4813 11.6606 11.3158C11.581 11.1504 11.6073 11.0364 11.6336 10.9223C11.6599 10.8082 11.6862 10.6942 11.6066 10.5287C11.527 10.3633 11.4211 10.3119 11.3152 10.2606C11.2094 10.2092 11.1035 10.1579 11.0239 9.99248C10.9443 9.82707 10.9706 9.713 10.9969 9.59893C11.0232 9.48487 11.0495 9.37081 10.9699 9.20539C10.8903 9.03998 10.7845 8.98862 10.6786 8.93726C10.5727 8.8859 10.4669 8.83455 10.3873 8.66912C10.3077 8.50369 10.334 8.38961 10.3603 8.27554C10.3865 8.16146 10.4128 8.04739 10.3332 7.88195C10.2537 7.71653 10.1478 7.66517 10.0419 7.61382C9.93604 7.56247 9.83016 7.51111 9.75058 7.3457C9.67102 7.18031 9.69731 7.06626 9.72361 6.9522C9.7499 6.83814 9.7762 6.72407 9.69661 6.55865C9.61702 6.39321 9.51115 6.34185 9.40527 6.29049C9.29939 6.23913 9.19352 6.18777 9.11393 6.02233C9.03434 5.8569 9.06063 5.74282 9.08691 5.62874C9.1132 5.51467 9.13949 5.4006 9.0599 5.23517C8.98034 5.06978 8.87447 5.01843 8.7686 4.96708C8.66273 4.91573 8.55685 4.86438 8.47727 4.69895C8.39769 4.53354 8.42391 4.41943 8.45013 4.30533C8.47568 4.19415 8.50122 4.08296 8.42889 3.9243C8.33457 3.95913 8.24115 3.99828 8.14891 4.04205C8.08572 4.07203 8.02392 4.10386 7.96343 4.13731C8.03949 4.29945 8.01357 4.41214 7.98765 4.52483C7.96141 4.63891 7.93516 4.753 8.01475 4.91842C8.09433 5.08385 8.2002 5.1352 8.30607 5.18656C8.41193 5.23791 8.51779 5.28926 8.59735 5.45465C8.67694 5.62009 8.65066 5.73415 8.62438 5.84822C8.59809 5.96229 8.57182 6.07637 8.65141 6.2418C8.731 6.40724 8.83686 6.4586 8.94273 6.50997C9.0486 6.56134 9.15448 6.61271 9.23407 6.77814C9.31365 6.94357 9.28736 7.05763 9.26107 7.17169C9.23479 7.28574 9.2085 7.39979 9.28807 7.56518C9.36765 7.7306 9.47352 7.78196 9.57939 7.83332C9.68525 7.88468 9.79111 7.93602 9.87069 8.10143C9.95028 8.26687 9.924 8.38095 9.89772 8.49502C9.87143 8.60909 9.84515 8.72315 9.92474 8.88859C10.0043 9.05403 10.1102 9.1054 10.2161 9.15676C10.3219 9.20812 10.4278 9.25947 10.5074 9.42488C10.587 9.5903 10.5607 9.70436 10.5344 9.81842C10.5081 9.93248 10.4818 10.0465 10.5614 10.212C10.641 10.3774 10.7468 10.4287 10.8527 10.4801C10.9586 10.5314 11.0644 10.5828 11.144 10.7482C11.2236 10.9136 11.1973 11.0277 11.171 11.1418C11.1448 11.2559 11.1185 11.3699 11.198 11.5353C11.2776 11.7007 11.3835 11.7522 11.4894 11.8036C11.5939 11.8544 11.6985 11.9052 11.7777 12.0658C11.8419 12.0401 11.9057 12.0123 11.9689 11.9823C12.0611 11.9386 12.1505 11.891 12.237 11.84Z" fill="#009B77"/>
</g>
</svg>
