<svg width="72" height="72" viewBox="0 0 72 72" fill="none" xmlns="http://www.w3.org/2000/svg">
<mask id="mask0_45_1369" style="mask-type:alpha" maskUnits="userSpaceOnUse" x="0" y="0" width="72" height="72">
<circle cx="36" cy="36" r="36" fill="#D9D9D9"/>
</mask>
<g mask="url(#mask0_45_1369)">
<rect width="72" height="72" fill="#F5F7F8"/>
<path d="M0 3.14722e-06V9L72 9V0L0 3.14722e-06Z" fill="#DD2033"/>
<path d="M0 18V27L72 27V18L0 18Z" fill="#DD2033"/>
<path d="M0 45V36L72 36V45L0 45Z" fill="#DD2033"/>
<path d="M0 54V63L72 63V54L0 54Z" fill="#DD2033"/>
<rect y="36" width="36" height="36" transform="rotate(-90 0 36)" fill="#004692"/>
<path d="M20.6001 15C22.0146 15 23.3312 15.4196 24.4321 16.1411C22.7815 14.2181 20.333 13 17.6001 13C12.6295 13 8.6001 17.0294 8.6001 22C8.6001 26.9706 12.6295 31 17.6001 31C20.333 31 22.7815 29.7819 24.4321 27.8589C23.3312 28.5804 22.0146 29 20.6001 29C16.7341 29 13.6001 25.866 13.6001 22C13.6001 18.134 16.7341 15 20.6001 15Z" fill="#FBD381"/>
<path d="M30.0769 19.1672L28.6002 16L27.1235 19.1672L23.7885 18.377L25.2819 21.5357L22.6001 23.7172L25.9391 24.4892L25.9299 28L28.6002 25.8036L31.2704 28L31.2611 24.4892L34.6001 23.7172L31.9182 21.5357L33.4116 18.377L30.0769 19.1672Z" fill="#FBD381"/>
</g>
</svg>
