<svg width="29" height="20" viewBox="0 0 29 20" fill="none" xmlns="http://www.w3.org/2000/svg">
<mask id="mask0_11482_6627" style="mask-type:alpha" maskUnits="userSpaceOnUse" x="0" y="0" width="29" height="20">
<rect width="29" height="20" fill="#D9D9D9"/>
</mask>
<g mask="url(#mask0_11482_6627)">
<rect y="23.6001" width="25.2" height="29" transform="rotate(-90 0 23.6001)" fill="#F5F7F8"/>
<rect x="14.5" y="3.6001" width="3.6" height="14.5" transform="rotate(-90 14.5 3.6001)" fill="#DD2033"/>
<rect x="14.5" y="10.8" width="3.6" height="14.5" transform="rotate(-90 14.5 10.8)" fill="#DD2033"/>
<rect y="18" width="3.6" height="29" transform="rotate(-90 0 18)" fill="#DD2033"/>
<rect y="12.8" width="12.8" height="14.5" transform="rotate(-90 0 12.8)" fill="#004692"/>
<path d="M6.84725 3.60005C7.41699 3.60005 7.94727 3.76788 8.39068 4.05647C7.72585 3.2873 6.73968 2.80005 5.63892 2.80005C3.63688 2.80005 2.01392 4.41182 2.01392 6.40005C2.01392 8.38827 3.63688 10 5.63892 10C6.73968 10 7.72585 9.5128 8.39068 8.74363C7.94727 9.03222 7.41699 9.20005 6.84725 9.20005C5.29011 9.20005 4.0278 7.94645 4.0278 6.40005C4.0278 4.85365 5.29011 3.60005 6.84725 3.60005Z" fill="#FBD381"/>
<path d="M10.6643 5.26695L10.0695 4.00005L9.47471 5.26695L8.13146 4.95084L8.733 6.21434L7.65281 7.08692L8.9977 7.39574L8.99399 8.80005L10.0695 7.92149L11.145 8.80005L11.1412 7.39574L12.4861 7.08692L11.4059 6.21434L12.0074 4.95084L10.6643 5.26695Z" fill="#FBD381"/>
</g>
</svg>
