<svg width="20" height="20" viewBox="0 0 20 20" fill="none" xmlns="http://www.w3.org/2000/svg">
<mask id="mask0_11482_6621" style="mask-type:alpha" maskUnits="userSpaceOnUse" x="0" y="0" width="20" height="20">
<circle cx="10" cy="10" r="10" fill="#D9D9D9"/>
</mask>
<g mask="url(#mask0_11482_6621)">
<rect width="20" height="20" fill="#F5F7F8"/>
<path d="M0 8.74228e-07V2.5L20 2.5V0L0 8.74228e-07Z" fill="#DD2033"/>
<path d="M0 5V7.5L20 7.5V5L0 5Z" fill="#DD2033"/>
<path d="M0 12.5V10L20 10V12.5L0 12.5Z" fill="#DD2033"/>
<path d="M0 15V17.5L20 17.5V15L0 15Z" fill="#DD2033"/>
<rect y="10" width="10" height="10" transform="rotate(-90 0 10)" fill="#004692"/>
<path d="M5.72225 4.16664C6.11518 4.16664 6.48088 4.28319 6.78668 4.4836C6.32818 3.94945 5.64806 3.61108 4.88892 3.61108C3.5082 3.61108 2.38892 4.73037 2.38892 6.11108C2.38892 7.4918 3.5082 8.61108 4.88892 8.61108C5.64806 8.61108 6.32818 8.27272 6.78668 7.73857C6.48088 7.93898 6.11518 8.05553 5.72225 8.05553C4.64836 8.05553 3.7778 7.18497 3.7778 6.11108C3.7778 5.0372 4.64836 4.16664 5.72225 4.16664Z" fill="#FBD381"/>
<path d="M8.35469 5.32421L7.94451 4.44442L7.53429 5.32421L6.60791 5.10469L7.02276 5.98212L6.27781 6.58808L7.20532 6.80254L7.20276 7.77775L7.94451 7.16764L8.68622 7.77775L8.68363 6.80254L9.61114 6.58808L8.86618 5.98212L9.28099 5.10469L8.35469 5.32421Z" fill="#FBD381"/>
</g>
</svg>
