<svg width="72" height="72" viewBox="0 0 72 72" fill="none" xmlns="http://www.w3.org/2000/svg">
<mask id="mask0_45_1552" style="mask-type:alpha" maskUnits="userSpaceOnUse" x="0" y="0" width="72" height="72">
<circle cx="36" cy="36" r="36" fill="#D9D9D9"/>
</mask>
<g mask="url(#mask0_45_1552)">
<rect y="52" width="32" height="72" transform="rotate(-90 0 52)" fill="#F5F7F8"/>
<rect x="0.200195" y="46" width="20" height="72" transform="rotate(-90 0.200195 46)" fill="#31373D"/>
<rect y="20" width="20" height="72" transform="rotate(-90 0 20)" fill="#009B77"/>
<rect y="72" width="20" height="72" transform="rotate(-90 0 72)" fill="#FBD381"/>
<path d="M48 36L0 0V72L48 36Z" fill="#DD2033"/>
<path d="M18.6 26L15.9174 32.068L9.59998 32.8753L14.2595 37.4331L13.0376 44L18.6 40.25L24.1624 44L22.9404 37.4331L27.6 32.8753L21.2826 32.068L18.6 26Z" fill="#FBD381"/>
</g>
</svg>
