<svg width="29" height="20" viewBox="0 0 29 20" fill="none" xmlns="http://www.w3.org/2000/svg">
<mask id="mask0_11482_6646" style="mask-type:alpha" maskUnits="userSpaceOnUse" x="0" y="0" width="29" height="20">
<rect width="29" height="20" fill="#D9D9D9"/>
</mask>
<g mask="url(#mask0_11482_6646)">
<rect y="16.3999" width="12.8" height="29" transform="rotate(-90 0 16.3999)" fill="#F5F7F8"/>
<rect y="14" width="8" height="29" transform="rotate(-90 0 14)" fill="#31373D"/>
<rect y="3.6001" width="3.6" height="29" transform="rotate(-90 0 3.6001)" fill="#009B77"/>
<rect y="20" width="3.6" height="29" transform="rotate(-90 0 20)" fill="#FBD381"/>
<path d="M18.125 10.0001L0 -4.3999V24.4001L18.125 10.0001Z" fill="#DD2033"/>
<path d="M7.65279 6L6.57227 8.42719L4.02777 8.75014L5.90453 10.5733L5.41236 13.2L7.65277 11.7L9.89318 13.2L9.40101 10.5733L11.2778 8.75014L8.73327 8.42719L7.65279 6Z" fill="#FBD381"/>
</g>
</svg>
