<svg width="72" height="72" viewBox="0 0 72 72" fill="none" xmlns="http://www.w3.org/2000/svg">
<mask id="mask0_45_1657" style="mask-type:alpha" maskUnits="userSpaceOnUse" x="0" y="0" width="72" height="72">
<circle cx="36" cy="36" r="36" fill="#D9D9D9"/>
</mask>
<g mask="url(#mask0_45_1657)">
<rect width="72" height="72" fill="#005EB8"/>
<path d="M72 72L-2.19355e-06 72L72 0L72 72Z" fill="#009B77"/>
<rect width="26" height="74" transform="matrix(0.707107 0.707107 0.707107 -0.707107 2.2002 54.3259)" fill="#F5F7F8"/>
<rect x="17.0625" y="67.9741" width="15" height="72" transform="rotate(-135 17.0625 67.9741)" fill="#DD2033"/>
<path d="M25.3999 20.9999L22.131 22.6164L23.8717 25.9443L20.3221 25.2305L19.8723 29L17.3998 26.2277L14.9275 29L14.4777 25.2305L10.928 25.9442L12.6688 22.6163L9.3999 20.9999L12.6689 19.3836L10.928 16.0558L14.4776 16.7695L14.9276 13L17.3998 15.7723L19.8724 13L20.3221 16.7695L23.8718 16.0558L22.1311 19.3837L25.3999 20.9999Z" fill="#FBD381"/>
</g>
</svg>
