<svg width="29" height="20" viewBox="0 0 29 20" fill="none" xmlns="http://www.w3.org/2000/svg">
<mask id="mask0_11482_6663" style="mask-type:alpha" maskUnits="userSpaceOnUse" x="0" y="0" width="29" height="20">
<rect width="29" height="20" fill="#D9D9D9"/>
</mask>
<g mask="url(#mask0_11482_6663)">
<rect y="-4.3999" width="29" height="28.8" fill="#005EB8"/>
<path d="M29 24.4001L-1.26763e-06 24.4001L29 -4.3999L29 24.4001Z" fill="#009B77"/>
<rect width="9.896" height="36.6659" transform="matrix(0.571955 0.820285 0.838596 -0.544753 -2.41667 17.2178)" fill="#F5F7F8"/>
<rect width="5.70923" height="35.6252" transform="matrix(-0.571955 -0.820285 0.838596 -0.544753 2.30428 23.2961)" fill="#DD2033"/>
<path d="M9.26389 5.19998L7.94725 5.84656L8.64834 7.17774L7.21866 6.8922L7.0375 8.4L6.04164 7.29106L5.04583 8.4L4.86467 6.8922L3.43494 7.17769L4.13608 5.84652L2.81944 5.19998L4.13613 4.55344L3.43494 3.22231L4.86463 3.5078L5.04588 2L6.04164 3.10894L7.03754 2L7.21866 3.5078L8.64839 3.22231L7.94729 4.55348L9.26389 5.19998Z" fill="#FBD381"/>
</g>
</svg>
