<svg width="29" height="20" viewBox="0 0 29 20" fill="none" xmlns="http://www.w3.org/2000/svg">
<mask id="mask0_11482_6677" style="mask-type:alpha" maskUnits="userSpaceOnUse" x="0" y="0" width="29" height="20">
<rect width="29" height="20" transform="matrix(1 0 0 -1 0 20)" fill="#D9D9D9"/>
</mask>
<g mask="url(#mask0_11482_6677)">
<rect width="29.0909" height="6.66636" fill="#004692"/>
<rect y="6.66626" width="29.0909" height="6.66636" fill="#DD2033"/>
<rect y="13.3274" width="29.0909" height="6.66636" fill="#008259"/>
<ellipse cx="12.1744" cy="10.0001" rx="6.44444" ry="6.4" fill="#FBD381"/>
<path d="M12.3234 6.06846C12.5152 5.97448 12.7197 5.86117 12.9064 5.688C12.9911 5.60945 12.9863 5.5942 12.9862 5.5938L12.9863 5.59424C12.9863 5.59417 13.0411 5.69216 12.9257 5.91469C12.7172 6.3168 12.5083 6.57041 12.3234 6.73533V7.45312C12.6271 7.50369 12.8595 7.78494 12.8595 8.12425C12.8595 8.46353 12.6271 8.7445 12.3234 8.79508V9.37744H13.0181V9.5877H12.3234V9.68645C12.6271 9.71847 12.8595 9.89602 12.8595 10.1108C12.8595 10.3255 12.6271 10.5029 12.3234 10.535V10.6339H13.0181V10.8443H12.3234V11.5007C12.5655 11.5724 12.7485 11.9034 12.7485 12.3011C12.7485 12.6989 12.5654 13.0298 12.3234 13.1015V13.3383C12.6069 13.355 12.8733 13.427 13.0185 13.5571C13.3333 13.8392 13.8962 14.4934 14.0001 14.615C13.4393 14.8651 12.8381 14.9959 12.2305 15H12.2212C11.5818 14.9975 10.9496 14.8547 10.3638 14.5804C10.4925 14.4312 11.1076 13.7628 11.3476 13.5571C11.5076 13.42 11.8132 13.3449 12.1269 13.3355V13.1015C11.8849 13.0299 11.7018 12.6989 11.7018 12.3011C11.7018 11.9033 11.8849 11.5723 12.1269 11.5007V10.8443H11.4323V10.6339H12.1269V10.535C11.8233 10.503 11.5908 10.3256 11.5908 10.1108C11.5909 9.89601 11.8233 9.71845 12.1269 9.68645V9.5877H11.4323V9.37744H12.1269V8.79508C11.8233 8.74452 11.5908 8.46355 11.5908 8.12425C11.5908 7.78492 11.8232 7.50367 12.1269 7.45312V6.88632C11.9184 7.02257 11.7637 7.05107 11.7131 7.09525C11.5971 7.19637 11.5481 7.18945 11.5481 7.18945C11.5563 7.09817 11.5641 6.72494 11.5701 6.68897C11.6155 6.41976 11.8418 6.29835 12.1269 6.16281V5H12.3234V6.06846Z" fill="#31373D"/>
<path d="M11.131 7.8865C11.131 7.8865 11.2551 8.26786 11.2737 8.65057C11.3033 9.26174 11.8503 9.27882 12.2252 9.27882V8.93923C11.9442 8.93923 11.7002 8.8945 11.4957 8.44682C11.3948 8.22599 11.131 7.8865 11.131 7.8865ZM11.1151 12.8106C11.1151 12.8106 11.3148 12.5469 11.5484 11.9285C11.6703 11.6059 11.9592 11.4182 12.2252 11.4182V10.9428C11.6217 10.9428 11.3324 11.1824 11.3018 11.5324C11.2391 12.2516 11.1151 12.8106 11.1151 12.8106Z" fill="#31373D"/>
<path d="M13.3194 7.8865C13.3194 7.8865 13.1953 8.26786 13.1767 8.65057C13.147 9.26174 12.6001 9.27882 12.2252 9.27882V8.93923C12.5061 8.93923 12.7502 8.8945 12.9547 8.44682C13.0555 8.22599 13.3194 7.8865 13.3194 7.8865ZM13.3353 12.8106C13.3353 12.8106 13.1356 12.5469 12.902 11.9285C12.7801 11.6059 12.4912 11.4182 12.2252 11.4182V10.9428C12.8287 10.9428 13.118 11.1824 13.1486 11.5324C13.2113 12.2516 13.3353 12.8106 13.3353 12.8106Z" fill="#31373D"/>
</g>
</svg>
