<svg width="20" height="20" viewBox="0 0 20 20" fill="none" xmlns="http://www.w3.org/2000/svg">
<mask id="mask0_11482_6672" style="mask-type:alpha" maskUnits="userSpaceOnUse" x="0" y="0" width="20" height="20">
<circle cx="10" cy="10" r="10" fill="#D9D9D9"/>
</mask>
<g mask="url(#mask0_11482_6672)">
<rect width="22.7778" height="6.66667" fill="#004692"/>
<rect y="6.6665" width="22.7778" height="6.66667" fill="#DD2033"/>
<rect y="13.3335" width="22.7778" height="6.66667" fill="#008259"/>
<circle cx="8.33312" cy="10.0001" r="4.44445" fill="#FBD381"/>
<path d="M8.43597 7.26982C8.56822 7.20456 8.70923 7.12587 8.83802 7.00561C8.89645 6.95106 8.89313 6.94047 8.89303 6.94019L8.89312 6.9405C8.89313 6.94045 8.93094 7.0085 8.85135 7.16304C8.70753 7.44228 8.56345 7.61839 8.43597 7.73293V8.23139C8.6454 8.26651 8.8057 8.46182 8.8057 8.69745C8.80569 8.93306 8.64538 9.12818 8.43597 9.16331V9.56772H8.91505V9.71373H8.43597V9.78231C8.64537 9.80455 8.80568 9.92785 8.8057 10.077C8.8057 10.2261 8.64538 10.3493 8.43597 10.3716V10.4402H8.91505V10.5863H8.43597V11.0422C8.60287 11.092 8.72913 11.3218 8.72914 11.598C8.72914 11.8743 8.60287 12.1041 8.43597 12.1539V12.3183C8.63149 12.3299 8.81516 12.3799 8.91533 12.4703C9.13243 12.6661 9.52063 13.1205 9.59231 13.2049C9.2055 13.3786 8.79091 13.4694 8.3719 13.4723H8.36547C7.9245 13.4705 7.4885 13.3714 7.08447 13.1809C7.17328 13.0773 7.59744 12.6131 7.76296 12.4703C7.87329 12.3751 8.08407 12.3229 8.30045 12.3164V12.1539C8.13352 12.1041 8.00727 11.8743 8.00727 11.598C8.00729 11.3218 8.13352 11.092 8.30045 11.0422V10.5863H7.82137V10.4402H8.30045V10.3716C8.09102 10.3493 7.93072 10.2261 7.93072 10.077C7.93074 9.92784 8.09103 9.80453 8.30045 9.78231V9.71373H7.82137V9.56772H8.30045V9.16331C8.09102 9.1282 7.93073 8.93308 7.93072 8.69745C7.93072 8.4618 8.091 8.26649 8.30045 8.23139V7.83777C8.15662 7.93239 8.04997 7.95219 8.01502 7.98287C7.93501 8.05309 7.90123 8.04829 7.90123 8.04829C7.90694 7.9849 7.91227 7.72571 7.91645 7.70073C7.94773 7.51377 8.1038 7.42946 8.30045 7.33534V6.52783H8.43597V7.26982Z" fill="#31373D"/>
<path d="M7.61356 8.53234C7.61356 8.53234 7.69918 8.79718 7.712 9.06295C7.73245 9.48737 8.10967 9.49923 8.36822 9.49923V9.26341C8.17446 9.26341 8.00614 9.23235 7.86511 8.92146C7.79556 8.7681 7.61356 8.53234 7.61356 8.53234ZM7.60263 11.9518C7.60263 11.9518 7.74035 11.7687 7.90147 11.3393C7.98553 11.1152 8.18474 10.9849 8.36822 10.9849V10.6548C7.952 10.6548 7.75246 10.8212 7.7314 11.0643C7.68815 11.5637 7.60263 11.9518 7.60263 11.9518Z" fill="#31373D"/>
<path d="M9.12285 8.53234C9.12285 8.53234 9.03724 8.79718 9.02442 9.06295C9.00397 9.48737 8.62677 9.49923 8.36822 9.49923V9.26341C8.56197 9.26341 8.73028 9.23235 8.8713 8.92146C8.94086 8.7681 9.12285 8.53234 9.12285 8.53234ZM9.13379 11.9518C9.13379 11.9518 8.99607 11.7687 8.83495 11.3393C8.75089 11.1152 8.55169 10.9849 8.36822 10.9849V10.6548C8.78443 10.6548 8.98396 10.8212 9.00502 11.0643C9.04826 11.5637 9.13379 11.9518 9.13379 11.9518Z" fill="#31373D"/>
</g>
</svg>
