<svg width="72" height="72" viewBox="0 0 72 72" fill="none" xmlns="http://www.w3.org/2000/svg">
<mask id="mask0_45_2035" style="mask-type:alpha" maskUnits="userSpaceOnUse" x="0" y="0" width="72" height="72">
<circle cx="36" cy="36" r="36" fill="#D9D9D9"/>
</mask>
<g mask="url(#mask0_45_2035)">
<rect width="72" height="72" fill="#005EB8"/>
<rect y="52" width="32" height="72" transform="rotate(-90 0 52)" fill="#F5F7F8"/>
<path fill-rule="evenodd" clip-rule="evenodd" d="M36 45C40.9706 45 45 40.9706 45 36C45 31.0294 40.9706 27 36 27C31.0294 27 27 31.0294 27 36C27 40.9706 31.0294 45 36 45ZM36 49C43.1797 49 49 43.1797 49 36C49 28.8203 43.1797 23 36 23C28.8203 23 23 28.8203 23 36C23 43.1797 28.8203 49 36 49Z" fill="#F1B434"/>
<mask id="mask1_45_2035" style="mask-type:alpha" maskUnits="userSpaceOnUse" x="29" y="30" width="14" height="12">
<path d="M35.7002 30L42.1954 41.25H29.205L35.7002 30Z" fill="#D9D9D9"/>
</mask>
<g mask="url(#mask1_45_2035)">
<rect x="29.2002" y="30" width="14" height="7" fill="#86C5FA"/>
<rect x="29.2002" y="39" width="14" height="8" fill="#005EB8"/>
<rect x="29.2002" y="37" width="14" height="2" fill="#009B77"/>
</g>
</g>
</svg>
