<svg width="72" height="72" viewBox="0 0 72 72" fill="none" xmlns="http://www.w3.org/2000/svg">
<mask id="mask0_45_5014" style="mask-type:alpha" maskUnits="userSpaceOnUse" x="0" y="0" width="72" height="72">
<circle cx="36" cy="36" r="36" fill="#D9D9D9"/>
</mask>
<g mask="url(#mask0_45_5014)">
<rect width="72" height="72" fill="#F5F7F8"/>
<path d="M71.1209 40H37.0459L72.0729 76H24.5L-13.3999 40L17.0454 -8.06714L27.8605 1.54628L71.1209 40Z" fill="#004692"/>
<path d="M60.6001 36L18.5 -1.5L-9 36L-9 72H62.6001L27.5731 36H60.6001Z" fill="#DD2033"/>
<path d="M33.6001 52.9999L28.6968 55.4246L31.3077 60.4165L25.9834 59.3458L25.3087 65L21.6 60.8415L17.8915 65L17.2168 59.3458L11.8923 60.4163L14.5034 55.4244L9.6001 52.9999L14.5036 50.5754L11.8923 45.5837L17.2166 46.6542L17.8917 41L21.6 45.1585L25.3089 41L25.9834 46.6542L31.3079 45.5837L28.6969 50.5756L33.6001 52.9999Z" fill="#F5F7F8"/>
<mask id="mask1_45_5014" style="mask-type:alpha" maskUnits="userSpaceOnUse" x="10" y="10" width="23" height="22">
<circle cx="21.6001" cy="21" r="11" fill="#D9D9D9"/>
</mask>
<g mask="url(#mask1_45_5014)">
<path d="M29.6001 22.8937L26.3312 24.5102L28.0719 27.8381L24.5223 27.1243L24.0725 30.8938L21.6 28.1215L19.1277 30.8938L18.6779 27.1243L15.1282 27.838L16.869 24.5101L13.6001 22.8937L16.8691 21.2774L15.1282 17.9496L18.6778 18.6633L19.1278 14.8938L21.6 17.6661L24.0726 14.8938L24.5223 18.6633L28.072 17.9496L26.3313 21.2775L29.6001 22.8937Z" fill="#F5F7F8"/>
</g>
<path d="M32.5452 19.8938C30.665 24.064 26.4715 26.9667 21.6001 26.9667C16.7287 26.9667 12.5352 24.064 10.655 19.8938C10.6187 20.2576 10.6001 20.6267 10.6001 21C10.6001 27.0752 15.525 32 21.6001 32C27.6752 32 32.6001 27.0752 32.6001 21C32.6001 20.6266 32.5815 20.2576 32.5452 19.8938Z" fill="#F5F7F8"/>
</g>
</svg>
