<svg width="20" height="20" viewBox="0 0 20 20" fill="none" xmlns="http://www.w3.org/2000/svg">
<mask id="mask0_11482_6766" style="mask-type:alpha" maskUnits="userSpaceOnUse" x="0" y="0" width="20" height="20">
<circle cx="10" cy="10" r="10" fill="#D9D9D9"/>
</mask>
<g mask="url(#mask0_11482_6766)">
<rect width="20" height="20" fill="#F5F7F8"/>
<path d="M19.7558 11.111H10.2905L20.0203 21.111H6.80556L-3.72219 11.111L4.73483 -2.24097L7.73903 0.429428L19.7558 11.111Z" fill="#004692"/>
<path d="M16.8334 9.99992L5.13889 -0.416748L-2.5 9.99992L-2.5 19.9999H17.3889L7.65919 9.99992H16.8334Z" fill="#DD2033"/>
<path d="M9.33336 14.7222L7.97132 15.3958L8.69659 16.7824L7.21761 16.485L7.0302 18.0556L6 16.9004L4.96986 18.0556L4.78245 16.485L3.30342 16.7823L4.02874 15.3957L2.66669 14.7222L4.02878 14.0487L3.30342 12.6622L4.7824 12.9595L4.9699 11.3889L6 12.5441L7.03025 11.3889L7.21761 12.9595L8.69664 12.6622L7.97137 14.0488L9.33336 14.7222Z" fill="#F5F7F8"/>
<mask id="mask1_11482_6766" style="mask-type:alpha" maskUnits="userSpaceOnUse" x="2" y="2" width="8" height="7">
<circle cx="6.00003" cy="5.83339" r="3.05556" fill="#D9D9D9"/>
</mask>
<g mask="url(#mask1_11482_6766)">
<path d="M8.22225 6.35941L7.31422 6.80843L7.79774 7.73286L6.81175 7.53457L6.68681 8.58165L6.00001 7.81156L5.31325 8.58165L5.18831 7.53457L4.20229 7.73283L4.68583 6.8084L3.77781 6.35941L4.68586 5.91043L4.20229 4.98603L5.18828 5.18429L5.31328 4.13721L6.00001 4.9073L6.68684 4.13721L6.81175 5.18429L7.79777 4.98603L7.31425 5.91046L8.22225 6.35941Z" fill="#F5F7F8"/>
</g>
<path d="M9.04033 5.52612C8.51805 6.6845 7.3532 7.49081 6.00003 7.49081C4.64686 7.49081 3.48201 6.6845 2.95973 5.52612C2.94964 5.62718 2.94447 5.72969 2.94447 5.83341C2.94447 7.52095 4.31249 8.88897 6.00003 8.88897C7.68757 8.88897 9.05558 7.52095 9.05558 5.83341C9.05558 5.72969 9.05042 5.62718 9.04033 5.52612Z" fill="#F5F7F8"/>
</g>
</svg>
