<svg width="29" height="20" viewBox="0 0 29 20" fill="none" xmlns="http://www.w3.org/2000/svg">
<mask id="mask0_11482_6777" style="mask-type:alpha" maskUnits="userSpaceOnUse" x="0" y="0" width="29" height="20">
<rect width="29" height="20" fill="#D9D9D9"/>
</mask>
<g mask="url(#mask0_11482_6777)">
<rect width="29" height="20" fill="#F5F7F8"/>
<path d="M26.2292 11.5999H12.5046L26.6127 25.9999H7.45139L-7.81385 11.5999L4.44884 -7.62695L8.80492 -3.78158L26.2292 11.5999Z" fill="#004692"/>
<path d="M21.9917 10L6.64584 -3H-6.04166V10V24.4H22.7973L8.68916 10H21.9917Z" fill="#DD2033"/>
<path d="M9.66666 14.4L8.18544 15.1274L8.97418 16.625L7.36578 16.3038L7.16198 18L6.04164 16.7525L4.92135 18L4.71755 16.3038L3.1091 16.625L3.89788 15.1274L2.41666 14.4L3.89793 13.6727L3.1091 12.1751L4.71749 12.4963L4.9214 10.8L6.04164 12.0476L7.16203 10.8L7.36578 12.4963L8.97423 12.1751L8.1855 13.6727L9.66666 14.4Z" fill="#F5F7F8"/>
<mask id="mask1_11482_6777" style="mask-type:alpha" maskUnits="userSpaceOnUse" x="2" y="1" width="8" height="8">
<ellipse cx="6.04167" cy="4.79995" rx="3.625" ry="3.6" fill="#D9D9D9"/>
</mask>
<g mask="url(#mask1_11482_6777)">
<path d="M8.67799 5.41968L7.60074 5.9487L8.17437 7.03785L7.00462 6.80423L6.8564 8.03788L6.04161 7.13057L5.22686 8.03788L5.07864 6.80423L3.90885 7.03781L4.48252 5.94867L3.40527 5.41968L4.48255 4.89069L3.90885 3.80158L5.0786 4.03517L5.2269 2.80151L6.04161 3.70883L6.85644 2.80151L7.00462 4.03517L8.17441 3.80158L7.60078 4.89073L8.67799 5.41968Z" fill="#F5F7F8"/>
</g>
<path d="M9.64856 4.43799C9.02895 5.80277 7.64702 6.75275 6.04166 6.75275C4.43631 6.75275 3.05438 5.80277 2.43477 4.43799C2.42279 4.55706 2.41666 4.67783 2.41666 4.80003C2.41666 6.78825 4.03963 8.40003 6.04166 8.40003C8.0437 8.40003 9.66667 6.78825 9.66667 4.80003C9.66667 4.67783 9.66054 4.55706 9.64856 4.43799Z" fill="#F5F7F8"/>
</g>
</svg>
