<svg width="29" height="20" viewBox="0 0 29 20" fill="none" xmlns="http://www.w3.org/2000/svg">
<mask id="mask0_11482_6812" style="mask-type:alpha" maskUnits="userSpaceOnUse" x="0" y="0" width="29" height="20">
<rect width="29" height="20" fill="#D9D9D9"/>
</mask>
<g mask="url(#mask0_11482_6812)">
<rect width="29" height="20" fill="#F1B434"/>
<mask id="mask1_11482_6812" style="mask-type:alpha" maskUnits="userSpaceOnUse" x="0" y="0" width="15" height="12">
<path d="M0 12L-1.31134e-06 0L14.5 -2.53526e-07L14.5 12L0 12Z" fill="#002F6C"/>
</mask>
<g mask="url(#mask1_11482_6812)">
<rect width="14.5" height="14.4" fill="#004692"/>
<path d="M5.15183 0.401901L4.29741 1.25043L14.849 11.7292L15.7034 10.8807L5.15183 0.401901Z" fill="#F5F7F8"/>
<path d="M2.87338 2.66464L1.44934 4.07886L12.0009 14.5577L13.425 13.1435L2.87338 2.66464Z" fill="#F5F7F8"/>
<path d="M2.87338 2.66464L4.29741 1.25043L14.849 11.7292L13.425 13.1435L2.87338 2.66464Z" fill="#DD2033"/>
<path d="M2.41669 14H4.02849L4.02849 3.59999H14.5V2H2.41669V14Z" fill="#F5F7F8"/>
<path d="M0 14H2.41736L2.41736 1.99998H14.5007V0H0V14Z" fill="#DD2033"/>
</g>
</g>
</svg>
