<svg width="72" height="72" viewBox="0 0 72 72" fill="none" xmlns="http://www.w3.org/2000/svg">
<mask id="mask0_45_5446" style="mask-type:alpha" maskUnits="userSpaceOnUse" x="0" y="0" width="72" height="72">
<circle cx="36" cy="36" r="36" fill="#D9D9D9"/>
</mask>
<g mask="url(#mask0_45_5446)">
<rect width="72" height="72" fill="#004692"/>
<path d="M53 14L51.5097 17.3711L48 17.8196L50.5886 20.3517L49.9098 24L53 21.9167L56.0902 24L55.4114 20.3517L58 17.8196L54.4903 17.3711L53 14Z" fill="#DD2033"/>
<path d="M43.5097 29.3711L45 26L46.4903 29.3711L50 29.8196L47.4114 32.3517L48.0902 36L45 33.9167L41.9098 36L42.5886 32.3517L40 29.8196L43.5097 29.3711Z" fill="#DD2033"/>
<path d="M50.9135 45.7195L53 41L55.0865 45.7195L60 46.3475L56.3759 49.8924L57.3263 55L53 52.0833L48.6737 55L49.6241 49.8924L46 46.3475L50.9135 45.7195Z" fill="#DD2033"/>
<path d="M60.5097 27.3711L62 24L63.4903 27.3711L67 27.8196L64.4114 30.3517L65.0902 34L62 31.9167L58.9098 34L59.5886 30.3517L57 27.8196L60.5097 27.3711Z" fill="#DD2033"/>
<mask id="mask1_45_5446" style="mask-type:alpha" maskUnits="userSpaceOnUse" x="0" y="0" width="36" height="36">
<path d="M0 36V36C-8.69081e-07 16.1177 16.1177 -7.04529e-07 36 -1.57361e-06V-1.57361e-06L36 36L0 36Z" fill="#002F6C"/>
</mask>
<g mask="url(#mask1_45_5446)">
<rect x="-0.000244141" width="36" height="36" fill="#004692"/>
<path d="M12.5223 3.1339L10.401 5.25522L39.927 34.7812L42.0483 32.6599L12.5223 3.1339Z" fill="#F5F7F8"/>
<path d="M6.86549 8.79076L3.32996 12.3263L32.856 41.8523L36.3915 38.3168L6.86549 8.79076Z" fill="#F5F7F8"/>
<path d="M6.86549 8.79076L10.401 5.25522L39.927 34.7812L36.3915 38.3168L6.86549 8.79076Z" fill="#DD2033"/>
<path d="M36 12V17L17 17L17 36H12V12H36Z" fill="#F5F7F8"/>
<path d="M36 -2V3L5 3L5 36H0V-2H36Z" fill="#F5F7F8"/>
<path fill-rule="evenodd" clip-rule="evenodd" d="M3 36H12L12 12L36 12V3H12H3L3 12L3 36Z" fill="#DD2033"/>
</g>
</g>
</svg>
