<svg width="20" height="20" viewBox="0 0 20 20" fill="none" xmlns="http://www.w3.org/2000/svg">
<mask id="mask0_11482_6823" style="mask-type:alpha" maskUnits="userSpaceOnUse" x="0" y="0" width="20" height="20">
<circle cx="10" cy="10" r="10" fill="#D9D9D9"/>
</mask>
<g mask="url(#mask0_11482_6823)">
<rect width="20" height="20" fill="#004692"/>
<path d="M14.7222 3.88892L14.3082 4.82533L13.3333 4.94993L14.0524 5.65329L13.8638 6.66669L14.7222 6.08799L15.5806 6.66669L15.392 5.65329L16.1111 4.94993L15.1362 4.82533L14.7222 3.88892Z" fill="#DD2033"/>
<path d="M12.086 8.15866L12.5 7.22225L12.914 8.15866L13.8889 8.28326L13.1698 8.98662L13.3584 10L12.5 9.42132L11.6416 10L11.8301 8.98662L11.1111 8.28326L12.086 8.15866Z" fill="#DD2033"/>
<path d="M14.1426 12.6999L14.7222 11.3889L15.3018 12.6999L16.6666 12.8743L15.6599 13.859L15.9239 15.2778L14.7222 14.4676L13.5204 15.2778L13.7844 13.859L12.7778 12.8743L14.1426 12.6999Z" fill="#DD2033"/>
<path d="M16.8082 7.60311L17.2222 6.66669L17.6362 7.60311L18.6111 7.7277L17.892 8.43107L18.0806 9.44447L17.2222 8.86577L16.3638 9.44447L16.5524 8.43107L15.8333 7.7277L16.8082 7.60311Z" fill="#DD2033"/>
<mask id="mask1_11482_6823" style="mask-type:alpha" maskUnits="userSpaceOnUse" x="0" y="0" width="10" height="10">
<path d="M0 10C-8.69081e-07 4.47715 4.47715 -5.43618e-08 10 -1.21421e-07L10 10L0 10Z" fill="#002F6C"/>
</mask>
<g mask="url(#mask1_11482_6823)">
<rect x="-0.000244141" width="10" height="10" fill="#004692"/>
<path d="M3.47843 0.870386L2.88917 1.45964L11.0908 9.66131L11.6801 9.07205L3.47843 0.870386Z" fill="#F5F7F8"/>
<path d="M1.90708 2.44173L0.924989 3.42383L9.12665 11.6255L10.1087 10.6434L1.90708 2.44173Z" fill="#F5F7F8"/>
<path d="M1.90708 2.44173L2.88917 1.45964L11.0908 9.66131L10.1087 10.6434L1.90708 2.44173Z" fill="#DD2033"/>
<path d="M9.99998 3.33325V4.72214L4.7222 4.72214L4.7222 9.99993H3.33331V3.33325H9.99998Z" fill="#F5F7F8"/>
<path d="M10 -0.555664V0.833225L1.38889 0.833224L1.38889 9.99989H0V-0.555664H10Z" fill="#F5F7F8"/>
<path fill-rule="evenodd" clip-rule="evenodd" d="M0.833313 9.99992H3.33331L3.33331 3.33325L9.99998 3.33325V0.833252H3.33331H0.833314L0.833314 3.33325L0.833313 9.99992Z" fill="#DD2033"/>
</g>
</g>
</svg>
