<svg width="29" height="20" viewBox="0 0 29 20" fill="none" xmlns="http://www.w3.org/2000/svg">
<mask id="mask0_11482_6835" style="mask-type:alpha" maskUnits="userSpaceOnUse" x="0" y="0" width="29" height="20">
<rect width="29" height="20" fill="#D9D9D9"/>
</mask>
<g mask="url(#mask0_11482_6835)">
<rect width="29" height="20" fill="#004692"/>
<path d="M21.75 1.6001L21.1497 2.94853L19.7361 3.12795L20.7788 4.1408L20.5054 5.6001L21.75 4.76676L22.9947 5.6001L22.7213 4.1408L23.7639 3.12795L22.3503 2.94853L21.75 1.6001Z" fill="#DD2033"/>
<path d="M17.9275 7.74853L18.5278 6.4001L19.1281 7.74853L20.5417 7.92795L19.4991 8.9408L19.7725 10.4001L18.5278 9.56676L17.2831 10.4001L17.5566 8.9408L16.5139 7.92795L17.9275 7.74853Z" fill="#DD2033"/>
<path d="M20.9096 14.2879L21.75 12.4001L22.5904 14.2879L24.5695 14.5391L23.1098 15.9571L23.4926 18.0001L21.75 16.8334L20.0075 18.0001L20.3903 15.9571L18.9306 14.5391L20.9096 14.2879Z" fill="#DD2033"/>
<path d="M24.7747 6.94853L25.375 5.6001L25.9753 6.94853L27.3889 7.12795L26.3463 8.1408L26.6197 9.6001L25.375 8.76676L24.1304 9.6001L24.4038 8.1408L23.3611 7.12795L24.7747 6.94853Z" fill="#DD2033"/>
<mask id="mask1_11482_6835" style="mask-type:alpha" maskUnits="userSpaceOnUse" x="0" y="0" width="15" height="12">
<path d="M0 12L-1.31134e-06 0L14.5 -2.53526e-07L14.5 12L0 12Z" fill="#002F6C"/>
</mask>
<g mask="url(#mask1_11482_6835)">
<rect width="14.5" height="14.4" fill="#004692"/>
<path d="M5.15183 0.401901L4.29741 1.25043L14.849 11.7292L15.7034 10.8807L5.15183 0.401901Z" fill="#F5F7F8"/>
<path d="M2.87338 2.66464L1.44934 4.07886L12.0009 14.5577L13.425 13.1435L2.87338 2.66464Z" fill="#F5F7F8"/>
<path d="M2.87338 2.66464L4.29741 1.25043L14.849 11.7292L13.425 13.1435L2.87338 2.66464Z" fill="#DD2033"/>
<path d="M2.41669 14H4.02849L4.02849 3.59999H14.5V2H2.41669V14Z" fill="#F5F7F8"/>
<path d="M0 14H2.41736L2.41736 1.99998H14.5007V0H0V14Z" fill="#DD2033"/>
</g>
</g>
</svg>
