<svg width="72" height="72" viewBox="0 0 72 72" fill="none" xmlns="http://www.w3.org/2000/svg">
<mask id="mask0_46_5786" style="mask-type:alpha" maskUnits="userSpaceOnUse" x="0" y="0" width="72" height="72">
<circle cx="36" cy="36" r="36" transform="rotate(180 36 36)" fill="#D9D9D9"/>
</mask>
<g mask="url(#mask0_46_5786)">
<rect width="72" height="72" transform="matrix(1 0 0 -1 0 72)" fill="#F5F7F8"/>
<rect x="36" width="36" height="36" fill="#DD2033"/>
<rect width="36" height="36" transform="matrix(1 0 0 -1 0 72)" fill="#004692"/>
<path d="M21 12L18.3174 18.068L12 18.8753L16.6595 23.4331L15.4376 30L21 26.25L26.5624 30L25.3405 23.4331L30 18.8753L23.6826 18.068L21 12Z" fill="#004692"/>
<path d="M51 42L48.3174 48.068L42 48.8753L46.6595 53.4331L45.4376 60L51 56.25L56.5624 60L55.3405 53.4331L60 48.8753L53.6826 48.068L51 42Z" fill="#DD2033"/>
</g>
</svg>
