<svg width="72" height="72" viewBox="0 0 72 72" fill="none" xmlns="http://www.w3.org/2000/svg">
<mask id="mask0_46_5878" style="mask-type:alpha" maskUnits="userSpaceOnUse" x="0" y="0" width="73" height="73">
<circle cx="36.0001" cy="36.0001" r="36" transform="rotate(-90 36.0001 36.0001)" fill="#D9D9D9"/>
</mask>
<g mask="url(#mask0_46_5878)">
<rect x="0.00012207" y="-0.00012207" width="72" height="72" fill="#DD2033"/>
<rect x="56.0001" y="72.0001" width="40" height="72" transform="rotate(180 56.0001 72.0001)" fill="#F5F7F8"/>
<path fill-rule="evenodd" clip-rule="evenodd" d="M18.4061 35.4352C18.1402 36.6661 18.0001 37.944 18.0001 39.2545C18.0001 49.1956 26.059 57.2545 36.0001 57.2545C45.9412 57.2545 54.0001 49.1956 54.0001 39.2545C54.0001 37.9159 53.854 36.6114 53.5768 35.3561L47.9135 37.8051C47.9707 38.2802 48.0001 38.7639 48.0001 39.2545C48.0001 45.8819 42.6275 51.2545 36.0001 51.2545C29.3727 51.2545 24.0001 45.8819 24.0001 39.2545C24.0001 38.7923 24.0263 38.3361 24.0771 37.8875L18.4061 35.4352Z" fill="#009B77"/>
<path d="M26.1998 20.0001L46.1998 20.0001L46.1998 27.9413C46.1998 34.0165 42.5011 39.4796 36.8605 41.7359L36.1998 42.0001L35.5392 41.7359C29.8985 39.4796 26.1998 34.0165 26.1998 27.9413L26.1998 20.0001Z" fill="#FF9E42"/>
<mask id="mask1_46_5878" style="mask-type:alpha" maskUnits="userSpaceOnUse" x="26" y="20" width="21" height="23">
<path d="M26.1998 20.0001H46.1998V27.9413C46.1998 34.0165 42.5011 39.4796 36.8605 41.7359L36.1998 42.0001L35.5392 41.7359C29.8985 39.4796 26.1998 34.0165 26.1998 27.9413V20.0001Z" fill="#005EB8"/>
</mask>
<g mask="url(#mask1_46_5878)">
<rect x="26.1998" y="30.0001" width="20" height="12" fill="#DD2033"/>
<rect x="26.1998" y="20.0001" width="10" height="10" fill="#0091DA"/>
</g>
</g>
</svg>
