<svg width="29" height="20" viewBox="0 0 29 20" fill="none" xmlns="http://www.w3.org/2000/svg">
<mask id="mask0_11482_6891" style="mask-type:alpha" maskUnits="userSpaceOnUse" x="0" y="0" width="29" height="20">
<rect width="29" height="20" fill="#D9D9D9"/>
</mask>
<g mask="url(#mask0_11482_6891)">
<rect width="29" height="20" fill="#DD2033"/>
<rect x="22.5556" y="20" width="16.1111" height="20" transform="rotate(180 22.5556 20)" fill="#F5F7F8"/>
<path fill-rule="evenodd" clip-rule="evenodd" d="M7.41353 9.37392C7.30641 9.86631 7.25 10.3774 7.25 10.9017C7.25 14.8781 10.4959 18.1017 14.5 18.1017C18.5041 18.1017 21.75 14.8781 21.75 10.9017C21.75 10.3662 21.6911 9.8444 21.5795 9.34229L19.2984 10.3219C19.3215 10.5119 19.3333 10.7054 19.3333 10.9017C19.3333 13.5526 17.1694 15.7017 14.5 15.7017C11.8306 15.7017 9.66667 13.5526 9.66667 10.9017C9.66667 10.7168 9.67719 10.5343 9.69768 10.3549L7.41353 9.37392Z" fill="#009B77"/>
<path d="M10.5527 3.19995L18.6082 3.19995L18.6082 6.06601C18.6082 8.68241 17.012 11.034 14.5804 12C12.1489 11.034 10.5527 8.68241 10.5527 6.06601L10.5527 3.19995Z" fill="#FF9E42"/>
<mask id="mask1_11482_6891" style="mask-type:alpha" maskUnits="userSpaceOnUse" x="10" y="3" width="9" height="9">
<path d="M10.5527 3.19995L18.6082 3.19995L18.6082 6.06601C18.6082 8.68241 17.012 11.034 14.5804 12C12.1489 11.034 10.5527 8.68241 10.5527 6.06601L10.5527 3.19995Z" fill="#005EB8"/>
</mask>
<g mask="url(#mask1_11482_6891)">
<rect x="10.5527" y="7.19995" width="8.05556" height="4.8" fill="#DD2033"/>
<rect x="10.5527" y="3.19995" width="4.02778" height="4" fill="#0091DA"/>
</g>
</g>
</svg>
