<svg width="20" height="20" viewBox="0 0 20 20" fill="none" xmlns="http://www.w3.org/2000/svg">
<mask id="mask0_11482_6878" style="mask-type:alpha" maskUnits="userSpaceOnUse" x="0" y="0" width="21" height="20">
<circle cx="10.0001" cy="10" r="10" transform="rotate(-90 10.0001 10)" fill="#D9D9D9"/>
</mask>
<g mask="url(#mask0_11482_6878)">
<rect x="0.00012207" width="20" height="20" fill="#DD2033"/>
<rect x="15.5556" y="20" width="11.1111" height="20" transform="rotate(180 15.5556 20)" fill="#F5F7F8"/>
<path fill-rule="evenodd" clip-rule="evenodd" d="M5.11281 9.84302C5.03893 10.185 5.00003 10.5399 5.00003 10.9039C5.00003 13.6654 7.23861 15.9039 10 15.9039C12.7615 15.9039 15 13.6654 15 10.9039C15 10.5321 14.9594 10.1697 14.8824 9.82104L13.3093 10.5013C13.3252 10.6333 13.3334 10.7677 13.3334 10.9039C13.3334 12.7449 11.841 14.2373 10 14.2373C8.15908 14.2373 6.6667 12.7449 6.6667 10.9039C6.6667 10.7755 6.67396 10.6488 6.68809 10.5242L5.11281 9.84302Z" fill="#009B77"/>
<path d="M7.27773 5.55566L12.8333 5.55566L12.8333 7.56391C12.8333 9.37082 11.7332 10.9957 10.0555 11.6668C8.37782 10.9957 7.27773 9.37082 7.27773 7.56391L7.27773 5.55566Z" fill="#FF9E42"/>
<mask id="mask1_11482_6878" style="mask-type:alpha" maskUnits="userSpaceOnUse" x="7" y="5" width="6" height="7">
<path d="M7.27773 5.55566L12.8333 5.55566L12.8333 7.5639C12.8333 9.37082 11.7332 10.9957 10.0555 11.6668C8.37782 10.9957 7.27772 9.37082 7.27772 7.5639L7.27773 5.55566Z" fill="#005EB8"/>
</mask>
<g mask="url(#mask1_11482_6878)">
<rect x="7.27773" y="8.3335" width="5.55556" height="3.33333" fill="#DD2033"/>
<rect x="7.27773" y="5.55566" width="2.77778" height="2.77778" fill="#0091DA"/>
</g>
</g>
</svg>
