<svg width="72" height="72" viewBox="0 0 72 72" fill="none" xmlns="http://www.w3.org/2000/svg">
<mask id="mask0_46_6048" style="mask-type:alpha" maskUnits="userSpaceOnUse" x="0" y="0" width="72" height="72">
<circle cx="36" cy="36" r="36" fill="#D9D9D9"/>
</mask>
<g mask="url(#mask0_46_6048)">
<rect width="72" height="72" fill="#DD2033"/>
<rect y="54" width="36" height="72" transform="rotate(-90 0 54)" fill="#F5F7F8"/>
<mask id="mask1_46_6048" style="mask-type:alpha" maskUnits="userSpaceOnUse" x="21" y="21" width="30" height="30">
<circle cx="36" cy="36" r="15" fill="#D9D9D9"/>
</mask>
<g mask="url(#mask1_46_6048)">
<path d="M32.2493 37.6364C33.1867 36.8182 34.1242 36 35.999 36C37.8741 36 38.8116 36.8182 39.7492 37.6364C40.6867 38.4546 41.6243 39.2728 43.4995 39.2728C45.3747 39.2728 46.3123 38.4546 47.2499 37.6364C48.1874 36.8182 49.125 36 51 36V41.7272C49.1248 41.7272 48.1873 42.5454 47.2498 43.3636C46.3122 44.1818 45.3747 45 43.4995 45C41.6243 45 40.6867 44.1818 39.7492 43.3636C38.8116 42.5454 37.8741 41.7272 35.999 41.7272C34.1242 41.7272 33.1867 42.5454 32.2493 43.3636C31.3118 44.1818 30.3744 45 28.4995 45C26.6246 45 25.6872 44.1818 24.7498 43.3636C23.8123 42.5454 22.8749 41.7272 21 41.7272V36C22.8749 36 23.8123 36.8182 24.7498 37.6364C25.6872 38.4546 26.6246 39.2728 28.4995 39.2728C30.3744 39.2728 31.3118 38.4546 32.2493 37.6364Z" fill="#005EB8"/>
<path d="M32.2493 47.6364C33.1867 46.8182 34.1242 46 35.999 46C37.8741 46 38.8116 46.8182 39.7492 47.6364C40.6867 48.4546 41.6243 49.2728 43.4995 49.2728C45.3747 49.2728 46.3123 48.4546 47.2499 47.6364C48.1874 46.8182 49.125 46 51 46V51.7272C49.1248 51.7272 48.1873 52.5454 47.2498 53.3636C46.3122 54.1818 45.3747 55 43.4995 55C41.6243 55 40.6867 54.1818 39.7492 53.3636C38.8116 52.5454 37.8741 51.7272 35.999 51.7272C34.1242 51.7272 33.1867 52.5454 32.2493 53.3636C31.3118 54.1818 30.3744 55 28.4995 55C26.6246 55 25.6872 54.1818 24.7498 53.3636C23.8123 52.5454 22.8749 51.7272 21 51.7272V46C22.8749 46 23.8123 46.8182 24.7498 47.6364C25.6872 48.4546 26.6246 49.2728 28.4995 49.2728C30.3744 49.2728 31.3118 48.4546 32.2493 47.6364Z" fill="#005EB8"/>
<rect x="17" y="21" width="38" height="14" fill="#F1B434"/>
</g>
<path d="M38.2002 24H34.2002V36H38.2002V24Z" fill="#DD2033"/>
<path d="M31 36V30H27V36C27 39.866 30.134 43 34 43H38C41.866 43 45 39.866 45 36V30H41V36C41 37.6569 39.6569 39 38 39H34C32.3431 39 31 37.6569 31 36Z" fill="#DD2033"/>
</g>
</svg>
