<svg width="29" height="20" viewBox="0 0 29 20" fill="none" xmlns="http://www.w3.org/2000/svg">
<mask id="mask0_11482_6914" style="mask-type:alpha" maskUnits="userSpaceOnUse" x="0" y="0" width="29" height="20">
<rect width="29" height="20" fill="#D9D9D9"/>
</mask>
<g mask="url(#mask0_11482_6914)">
<rect width="29" height="20" fill="#DD2033"/>
<rect y="16.8" width="13.6" height="29" transform="rotate(-90 0 16.8)" fill="#F5F7F8"/>
<mask id="mask1_11482_6914" style="mask-type:alpha" maskUnits="userSpaceOnUse" x="8" y="4" width="13" height="12">
<ellipse cx="14.5" cy="10" rx="6.04167" ry="6" fill="#D9D9D9"/>
</mask>
<g mask="url(#mask1_11482_6914)">
<path d="M12.9893 10.6546C13.3669 10.3273 13.7445 10 14.4996 10C15.2548 10 15.6325 10.3273 16.0101 10.6545C16.3877 10.9818 16.7654 11.3091 17.5206 11.3091C18.2759 11.3091 18.6536 10.9818 19.0312 10.6545C19.4088 10.3273 19.7864 10 20.5417 10V12.2909C19.7864 12.2909 19.4088 12.6182 19.0312 12.9454C18.6535 13.2727 18.2759 13.6 17.5206 13.6C16.7654 13.6 16.3877 13.2727 16.0101 12.9454C15.6325 12.6182 15.2548 12.2909 14.4996 12.2909C13.7445 12.2909 13.3669 12.6182 12.9893 12.9454C12.6117 13.2727 12.2341 13.6 11.479 13.6C10.7238 13.6 10.3462 13.2727 9.96866 12.9454C9.59108 12.6182 9.2135 12.2909 8.45834 12.2909V10C9.2135 10 9.59108 10.3273 9.96866 10.6546C10.3462 10.9818 10.7238 11.3091 11.479 11.3091C12.2341 11.3091 12.6117 10.9818 12.9893 10.6546Z" fill="#005EB8"/>
<path d="M12.9893 14.6546C13.3669 14.3273 13.7445 14 14.4996 14C15.2548 14 15.6325 14.3273 16.0101 14.6545C16.3877 14.9818 16.7654 15.3091 17.5206 15.3091C18.2759 15.3091 18.6536 14.9818 19.0312 14.6545C19.4088 14.3273 19.7864 14 20.5417 14V16.2909C19.7864 16.2909 19.4088 16.6182 19.0312 16.9454C18.6535 17.2727 18.2759 17.6 17.5206 17.6C16.7654 17.6 16.3877 17.2727 16.0101 16.9454C15.6325 16.6182 15.2548 16.2909 14.4996 16.2909C13.7445 16.2909 13.3669 16.6182 12.9893 16.9454C12.6117 17.2727 12.2341 17.6 11.479 17.6C10.7238 17.6 10.3462 17.2727 9.96866 16.9454C9.59108 16.6182 9.2135 16.2909 8.45834 16.2909V14C9.2135 14 9.59108 14.3273 9.96866 14.6546C10.3462 14.9818 10.7238 15.3091 11.479 15.3091C12.2341 15.3091 12.6117 14.9818 12.9893 14.6546Z" fill="#005EB8"/>
<rect x="6.84722" y="4" width="15.3056" height="5.6" fill="#F1B434"/>
</g>
<path d="M15.3862 5.19995H13.7751V9.99995H15.3862V5.19995Z" fill="#DD2033"/>
<path d="M12.4861 9.99995V7.59995H10.875V9.99995C10.875 11.5463 12.1373 12.8 13.6944 12.8H15.3056C16.8627 12.8 18.125 11.5463 18.125 9.99995V7.59995H16.5139V9.99995C16.5139 10.6627 15.9729 11.2 15.3056 11.2H13.6944C13.0271 11.2 12.4861 10.6627 12.4861 9.99995Z" fill="#DD2033"/>
</g>
</svg>
