<svg width="20" height="20" viewBox="0 0 20 20" fill="none" xmlns="http://www.w3.org/2000/svg">
<mask id="mask0_11482_6905" style="mask-type:alpha" maskUnits="userSpaceOnUse" x="0" y="0" width="20" height="20">
<circle cx="10" cy="10" r="10" fill="#D9D9D9"/>
</mask>
<g mask="url(#mask0_11482_6905)">
<rect width="20" height="20" fill="#DD2033"/>
<rect y="15" width="10" height="20" transform="rotate(-90 0 15)" fill="#F5F7F8"/>
<mask id="mask1_11482_6905" style="mask-type:alpha" maskUnits="userSpaceOnUse" x="5" y="5" width="10" height="10">
<circle cx="10" cy="9.99992" r="4.16667" fill="#D9D9D9"/>
</mask>
<g mask="url(#mask1_11482_6905)">
<path d="M8.95813 10.4546C9.21853 10.2273 9.47893 10 9.99973 10C10.5206 10 10.781 10.2273 11.0414 10.4545C11.3019 10.6818 11.5623 10.9091 12.0832 10.9091C12.6041 10.9091 12.8645 10.6818 13.125 10.4545C13.3854 10.2273 13.6458 10 14.1667 10V11.5909C13.6458 11.5909 13.3854 11.8182 13.1249 12.0454C12.8645 12.2727 12.6041 12.5 12.0832 12.5C11.5623 12.5 11.3019 12.2727 11.0414 12.0454C10.781 11.8182 10.5206 11.5909 9.99973 11.5909C9.47893 11.5909 9.21853 11.8182 8.95813 12.0454C8.69773 12.2727 8.43733 12.5 7.91653 12.5C7.39573 12.5 7.13533 12.2727 6.87493 12.0454C6.61453 11.8182 6.35413 11.5909 5.83333 11.5909V10C6.35413 10 6.61453 10.2273 6.87493 10.4546C7.13533 10.6818 7.39573 10.9091 7.91653 10.9091C8.43733 10.9091 8.69773 10.6818 8.95813 10.4546Z" fill="#005EB8"/>
<path d="M8.95813 13.2323C9.21853 13.0051 9.47893 12.7778 9.99973 12.7778C10.5206 12.7778 10.781 13.005 11.0414 13.2323C11.3019 13.4596 11.5623 13.6869 12.0832 13.6869C12.6041 13.6869 12.8645 13.4596 13.125 13.2323C13.3854 13.005 13.6458 12.7778 14.1667 12.7778V14.3687C13.6458 14.3687 13.3854 14.5959 13.1249 14.8232C12.8645 15.0505 12.6041 15.2778 12.0832 15.2778C11.5623 15.2778 11.3019 15.0505 11.0414 14.8232C10.781 14.5959 10.5206 14.3687 9.99973 14.3687C9.47893 14.3687 9.21853 14.5959 8.95813 14.8232C8.69773 15.0505 8.43733 15.2778 7.91653 15.2778C7.39573 15.2778 7.13533 15.0505 6.87493 14.8232C6.61453 14.5959 6.35413 14.3687 5.83333 14.3687V12.7778C6.35413 12.7778 6.61453 13.0051 6.87493 13.2323C7.13533 13.4596 7.39573 13.6869 7.91653 13.6869C8.43733 13.6869 8.69773 13.4596 8.95813 13.2323Z" fill="#005EB8"/>
<rect x="4.72222" y="5.83325" width="10.5556" height="3.88889" fill="#F1B434"/>
</g>
<path d="M10.6112 6.66675H9.50005V10.0001H10.6112V6.66675Z" fill="#DD2033"/>
<path d="M8.61111 10.0001V8.33341H7.5V10.0001C7.5 11.074 8.37056 11.9445 9.44444 11.9445H10.5556C11.6294 11.9445 12.5 11.074 12.5 10.0001V8.33341H11.3889V10.0001C11.3889 10.4603 11.0158 10.8334 10.5556 10.8334H9.44444C8.98421 10.8334 8.61111 10.4603 8.61111 10.0001Z" fill="#DD2033"/>
</g>
</svg>
