<svg width="73" height="73" viewBox="0 0 73 73" fill="none" xmlns="http://www.w3.org/2000/svg">
<mask id="mask0_46_6192" style="mask-type:alpha" maskUnits="userSpaceOnUse" x="0" y="0" width="73" height="73">
<path d="M62.1912 10.6323C76.2501 24.6912 76.2501 47.4851 62.1912 61.544C48.1323 75.6029 25.3384 75.6029 11.2795 61.544C-2.77937 47.4851 -2.77937 24.6912 11.2795 10.6323C25.3384 -3.42659 48.1323 -3.42658 62.1912 10.6323Z" fill="#D9D9D9"/>
</mask>
<g mask="url(#mask0_46_6192)">
<path d="M73 72L1.00001 72L1 1.40502e-06L73 0L73 72Z" fill="#DD2033"/>
<path d="M62.3674 61.6323L36.9116 87.0882L-14.0001 36.1765L11.4557 10.7207L62.3674 61.6323Z" fill="#31373D"/>
<path d="M17.1424 25.816L15.9119 23.1765L14.6812 25.816L11.9022 25.1572L13.1467 27.7897L10.9119 29.6076L13.6944 30.2508L13.6866 33.1765L15.9119 31.3461L18.137 33.1765L18.1293 30.2508L20.9119 29.6076L18.677 27.7897L19.9216 25.1572L17.1424 25.816Z" fill="#F5F7F8"/>
<path d="M5.91162 31.1765L7.1422 33.816L9.9214 33.1572L8.67672 35.7897L10.9116 37.6076L8.12909 38.2508L8.1368 41.1765L5.91162 39.3461L3.68635 41.1765L3.69415 38.2508L0.911621 37.6076L3.14644 35.7897L1.90193 33.1572L4.68096 33.816L5.91162 31.1765Z" fill="#F5F7F8"/>
<path d="M12.9116 55.1765L14.3883 58.3439L17.7234 57.5534L16.2297 60.7124L18.9116 62.8939L15.5726 63.6657L15.5818 67.1765L12.9116 64.98L10.2413 67.1765L10.2507 63.6657L6.91162 62.8939L9.5934 60.7124L8.1 57.5534L11.4348 58.3439L12.9116 55.1765Z" fill="#F5F7F8"/>
<path d="M25.9116 33.1765L27.1422 35.816L29.9214 35.1572L28.6767 37.7897L30.9116 39.6076L28.1291 40.2508L28.1368 43.1765L25.9116 41.3461L23.6864 43.1765L23.6941 40.2508L20.9116 39.6076L23.1464 37.7897L21.9019 35.1572L24.681 35.816L25.9116 33.1765Z" fill="#F5F7F8"/>
<path d="M18.4119 49.1765C19.7926 49.1765 20.9119 48.0572 20.9119 46.6765C20.9119 45.2958 19.7926 44.1765 18.4119 44.1765C17.0312 44.1765 15.9119 45.2958 15.9119 46.6765C15.9119 48.0572 17.0312 49.1765 18.4119 49.1765Z" fill="#F5F7F8"/>
<path d="M40.922 12.9472C39.4338 11.859 37.3453 12.1833 36.2571 13.6714L41.8714 17.7767C41.0828 17.8628 40.3074 18.1608 39.6341 18.682C37.6904 20.1867 37.3346 22.9822 38.8393 24.9259L43.9028 21.006C42.9768 22.8475 42.8508 25.0733 43.7484 27.106C45.3424 30.716 49.5611 32.3502 53.171 30.7562L50.0951 23.7902L55.7925 27.9563C57.4046 29.1351 57.7559 31.3977 56.577 33.0099L56.4128 33.2344C55.3247 34.7226 53.2361 35.0468 51.748 33.9586L50.4344 35.755C52.9147 37.5686 56.3956 37.0282 58.2092 34.548L58.3734 34.3234C60.2777 31.7192 59.7103 28.0642 57.106 26.1599L51.3827 21.9748L58.9903 22.798C59.4148 18.8747 56.5785 15.3501 52.6552 14.9255C50.7195 14.7161 48.8809 15.3004 47.4638 16.4174L49.8698 9.84127C47.5613 8.99669 45.0053 10.1834 44.1607 12.4918C43.8246 13.4105 43.8102 14.3683 44.0601 15.2419L40.922 12.9472Z" fill="#F1B434"/>
</g>
</svg>
