<svg width="29" height="20" viewBox="0 0 29 20" fill="none" xmlns="http://www.w3.org/2000/svg">
<mask id="mask0_11482_6930" style="mask-type:alpha" maskUnits="userSpaceOnUse" x="0" y="0" width="29" height="20">
<rect width="29" height="20" fill="#D9D9D9"/>
</mask>
<g mask="url(#mask0_11482_6930)">
<path d="M29 20L2.26365e-06 20L0 3.90284e-07L29 0L29 20Z" fill="#DD2033"/>
<path d="M0 20H25L1.84247e-05 -4L0 20Z" fill="#31373D"/>
<path d="M6.40522 5.59191L6.04174 4.80005L5.67824 5.59191L4.8574 5.39426L5.22499 6.18402L4.56489 6.72939L5.38677 6.92234L5.38446 7.80005L6.04174 7.25093L6.699 7.80005L6.69672 6.92234L7.51859 6.72939L6.85847 6.18401L7.22611 5.39426L6.40522 5.59191Z" fill="#F5F7F8"/>
<path d="M3.08797 7.20005L3.45144 7.99191L4.27234 7.79426L3.90469 8.58401L4.56482 9.12939L3.74294 9.32234L3.74522 10.2L3.08797 9.65093L2.43069 10.2L2.43299 9.32234L1.61111 9.12939L2.27121 8.58401L1.90362 7.79426L2.72446 7.99191L3.08797 7.20005Z" fill="#F5F7F8"/>
<path d="M5.15556 14.4L5.59173 15.3503L6.5768 15.1131L6.13563 16.0608L6.92778 16.7153L5.94153 16.9468L5.94426 18L5.15556 17.3411L4.36683 18L4.36959 16.9468L3.38334 16.7153L4.17546 16.0608L3.73435 15.1131L4.71936 15.3503L5.15556 14.4Z" fill="#F5F7F8"/>
<path d="M8.99537 7.80005L9.35885 8.59191L10.1797 8.39426L9.8121 9.18401L10.4722 9.72938L9.65035 9.92234L9.65263 10.8L8.99538 10.2509L8.3381 10.8L8.3404 9.92234L7.51852 9.72939L8.17862 9.18401L7.81103 8.39426L8.63187 8.59191L8.99537 7.80005Z" fill="#F5F7F8"/>
<path d="M6.78017 12.6C7.18799 12.6 7.51859 12.2643 7.51859 11.85C7.51859 11.4358 7.18799 11.1 6.78017 11.1C6.37235 11.1 6.04174 11.4358 6.04174 11.85C6.04174 12.2643 6.37235 12.6 6.78017 12.6Z" fill="#F5F7F8"/>
<path d="M18.3928 3.75115C17.7934 3.31588 16.9522 3.44558 16.5139 4.04084L18.7752 5.68297C18.4576 5.7174 18.1452 5.83659 17.8741 6.04506C17.0912 6.64695 16.9479 7.76515 17.5539 8.54264L19.5934 6.97467C19.2204 7.71126 19.1697 8.60157 19.5312 9.41467C20.1732 10.8586 21.8724 11.5123 23.3264 10.8747L22.0875 8.08833L24.3823 9.75477C25.0316 10.2263 25.1731 11.1314 24.6983 11.7762L24.6322 11.866C24.1939 12.4613 23.3527 12.591 22.7533 12.1557L22.2242 12.8743C23.2232 13.5997 24.6252 13.3836 25.3557 12.3915L25.4218 12.3016C26.1889 11.2599 25.9603 9.79796 24.9114 9.03623L22.6061 7.3622L25.6703 7.69146C25.8413 6.12213 24.6989 4.71229 23.1187 4.54248C22.339 4.45871 21.5985 4.69243 21.0277 5.13922L21.9968 2.50877C21.067 2.17094 20.0375 2.64562 19.6973 3.56899C19.5619 3.93645 19.5561 4.31959 19.6568 4.66903L18.3928 3.75115Z" fill="#F1B434"/>
</g>
</svg>
