<svg width="20" height="20" viewBox="0 0 20 20" fill="none" xmlns="http://www.w3.org/2000/svg">
<mask id="mask0_11482_6924" style="mask-type:alpha" maskUnits="userSpaceOnUse" x="0" y="0" width="20" height="20">
<path d="M2.92893 2.92893C6.83418 -0.976311 13.1658 -0.976311 17.0711 2.92893C20.9763 6.83418 20.9763 13.1658 17.0711 17.0711C13.1658 20.9763 6.83418 20.9763 2.92893 17.0711C-0.976311 13.1658 -0.976311 6.83418 2.92893 2.92893Z" fill="#D9D9D9"/>
</mask>
<g mask="url(#mask0_11482_6924)">
<path d="M20 20L1.56114e-06 20L0 3.90284e-07L20 0L20 20Z" fill="#DD2033"/>
<path d="M0 20L20 20L0 0L0 20Z" fill="#31373D"/>
<path d="M4.48402 7.17119L4.1422 6.43799L3.80035 7.17119L3.0284 6.98818L3.37409 7.71944L2.75331 8.22441L3.52623 8.40308L3.52407 9.21577L4.1422 8.70732L4.7603 9.21577L4.75816 8.40308L5.53109 8.22441L4.91028 7.71944L5.25602 6.98818L4.48402 7.17119Z" fill="#F5F7F8"/>
<path d="M1.36435 8.66021L1.70618 9.39341L2.47818 9.2104L2.13244 9.94166L2.75324 10.4466L1.98032 10.6253L1.98246 11.438L1.36435 10.9295L0.746223 11.438L0.748388 10.6253L-0.0245361 10.4466L0.596246 9.94166L0.25055 9.21041L1.0225 9.39341L1.36435 8.66021Z" fill="#F5F7F8"/>
<path d="M3.3088 15.3269L3.71899 16.2067L4.64539 15.9871L4.2305 16.8646L4.97546 17.4706L4.04795 17.685L4.05052 18.6602L3.3088 18.0501L2.56704 18.6602L2.56964 17.685L1.64213 17.4706L2.38707 16.8646L1.97223 15.9871L2.89858 16.2067L3.3088 15.3269Z" fill="#F5F7F8"/>
<path d="M6.91991 9.21577L7.26173 9.94897L8.03373 9.76596L7.68799 10.4972L8.3088 11.0022L7.53587 11.1809L7.53801 11.9935L6.91991 11.4851L6.30178 11.9935L6.30394 11.1809L5.53102 11.0022L6.1518 10.4972L5.80611 9.76596L6.57806 9.94897L6.91991 9.21577Z" fill="#F5F7F8"/>
<path d="M4.83664 13.6602C5.22017 13.6602 5.53109 13.3493 5.53109 12.9658C5.53109 12.5822 5.22017 12.2713 4.83664 12.2713C4.45311 12.2713 4.1422 12.5822 4.1422 12.9658C4.1422 13.3493 4.45311 13.6602 4.83664 13.6602Z" fill="#F5F7F8"/>
<path d="M11.0894 3.59633C10.6761 3.29405 10.0959 3.38412 9.79364 3.7975L11.3532 4.93786C11.1341 4.96178 10.9187 5.04455 10.7317 5.18932C10.1918 5.6073 10.0929 6.38383 10.5109 6.92375L11.9174 5.83488C11.6602 6.3464 11.6252 6.96467 11.8746 7.52933C12.3173 8.53209 13.4892 8.98604 14.4919 8.54325L13.6375 6.60825L15.2201 7.76551C15.668 8.09297 15.7655 8.72147 15.4381 9.16929L15.3925 9.23166C15.0902 9.64504 14.51 9.73511 14.0967 9.43283L13.7318 9.93182C14.4207 10.4356 15.3877 10.2855 15.8914 9.59654L15.9371 9.53417C16.466 8.81076 16.3084 7.7955 15.585 7.26652L13.9952 6.104L16.1084 6.33265C16.2263 5.24284 15.4385 4.26378 14.3487 4.14586C13.811 4.08768 13.3002 4.24999 12.9066 4.56027L13.5749 2.73356C12.9337 2.49896 12.2237 2.82859 11.9891 3.46983C11.8957 3.72501 11.8917 3.99108 11.9611 4.23374L11.0894 3.59633Z" fill="#F1B434"/>
</g>
</svg>
