<svg width="20" height="20" viewBox="0 0 20 20" fill="none" xmlns="http://www.w3.org/2000/svg">
<mask id="mask0_11482_6938" style="mask-type:alpha" maskUnits="userSpaceOnUse" x="0" y="0" width="20" height="20">
<circle cx="10" cy="10" r="10" fill="#D9D9D9"/>
</mask>
<g mask="url(#mask0_11482_6938)">
<rect y="20" width="10" height="20" transform="rotate(-90 0 20)" fill="#DD2033"/>
<rect y="10" width="10" height="20" transform="rotate(-90 0 10)" fill="#004692"/>
<path d="M13.3333 10L0 0V20L13.3333 10Z" fill="#F5F7F8"/>
<path d="M7.55552 10.0001L6.19348 10.6736L6.91875 12.0602L5.43977 11.7628L5.25236 13.3334L4.22216 12.1783L3.19202 13.3334L3.00461 11.7628L1.52558 12.0602L2.2509 10.6735L0.888855 10.0001L2.25094 9.32658L1.52558 7.93999L3.00456 8.23737L3.19206 6.66675L4.22216 7.82189L5.25241 6.66675L5.43977 8.23737L6.9188 7.93999L6.19353 9.32663L7.55552 10.0001Z" fill="#F1B434"/>
<circle cx="9.94448" cy="10" r="1.11111" fill="#F1B434"/>
</g>
</svg>
