<svg width="72" height="72" viewBox="0 0 72 72" fill="none" xmlns="http://www.w3.org/2000/svg">
<mask id="mask0_46_6467" style="mask-type:alpha" maskUnits="userSpaceOnUse" x="0" y="0" width="72" height="72">
<circle cx="36" cy="36" r="36" fill="#D9D9D9"/>
</mask>
<g mask="url(#mask0_46_6467)">
<rect width="72" height="72" fill="#005B33"/>
<path d="M39.1252 26.8719L40.2594 19.588L44.8835 25.329L51.8958 24.3788L48.2057 30.6104L51.4056 37.3069L44.3573 34.8819L39.4659 40.5062L38.8889 33.1069L32.5773 29.5552L39.1252 26.8719Z" fill="#F5F7F8"/>
<path d="M39.5 49C41.4381 49 43.2982 48.6759 45.0258 48.0807C42.0922 51.6923 37.6157 54.0001 32.6001 54.0001C23.7635 54.0001 16.6001 46.8366 16.6001 38.0001C16.6001 31.3505 20.6565 25.6484 26.4297 23.2332C24.2792 25.9353 23 29.3228 23 33C23 41.8365 30.3873 49 39.5 49Z" fill="#F5F7F8"/>
</g>
</svg>
