<svg width="20" height="20" viewBox="0 0 20 20" fill="none" xmlns="http://www.w3.org/2000/svg">
<mask id="mask0_11482_6954" style="mask-type:alpha" maskUnits="userSpaceOnUse" x="0" y="0" width="20" height="20">
<circle cx="10" cy="10" r="10" fill="#D9D9D9"/>
</mask>
<g mask="url(#mask0_11482_6954)">
<rect width="20" height="20" fill="#005B33"/>
<path d="M10.8681 7.46447L11.1832 5.44116L12.4676 7.03589L14.4155 6.77194L13.3905 8.50295L14.2793 10.3631L12.3215 9.68945L10.9628 11.2518L10.8025 9.1964L9.04925 8.20982L10.8681 7.46447Z" fill="#F5F7F8"/>
<path d="M10.9722 13.6111C11.5106 13.6111 12.0273 13.5211 12.5072 13.3558C11.6923 14.359 10.4488 15.0001 9.05559 15.0001C6.60099 15.0001 4.61115 13.0102 4.61115 10.5556C4.61115 8.70853 5.73791 7.12461 7.34159 6.45372C6.74424 7.2043 6.3889 8.14526 6.3889 9.16671C6.3889 11.6213 8.44092 13.6111 10.9722 13.6111Z" fill="#F5F7F8"/>
</g>
</svg>
