<svg width="29" height="20" viewBox="0 0 29 20" fill="none" xmlns="http://www.w3.org/2000/svg">
<mask id="mask0_11482_6958" style="mask-type:alpha" maskUnits="userSpaceOnUse" x="0" y="0" width="29" height="20">
<rect width="29" height="20" fill="#D9D9D9"/>
</mask>
<g mask="url(#mask0_11482_6958)">
<rect width="29" height="20" fill="#005B33"/>
<path d="M16.3226 6.11352L16.7794 3.19995L18.6419 5.49635L21.4663 5.11627L19.98 7.60892L21.2689 10.2875L18.43 9.31749L16.4598 11.5672L16.2274 8.60749L13.6853 7.18682L16.3226 6.11352Z" fill="#F5F7F8"/>
<path d="M16.4736 14.9647C17.2542 14.9647 18.0034 14.8351 18.6992 14.597C17.5177 16.0417 15.7146 16.9648 13.6944 16.9648C10.1353 16.9648 7.25 14.0994 7.25 10.5648C7.25 7.90496 8.88382 5.62412 11.2092 4.65804C10.343 5.73887 9.82774 7.09386 9.82774 8.56473C9.82774 12.0994 12.8032 14.9647 16.4736 14.9647Z" fill="#F5F7F8"/>
</g>
</svg>
