<svg width="20" height="20" viewBox="0 0 20 20" fill="none" xmlns="http://www.w3.org/2000/svg">
<mask id="mask0_11482_6986" style="mask-type:alpha" maskUnits="userSpaceOnUse" x="0" y="0" width="20" height="20">
<circle cx="10" cy="10" r="10" fill="#D9D9D9"/>
</mask>
<g mask="url(#mask0_11482_6986)">
<rect width="20" height="20" fill="#004692"/>
<rect x="12.7778" y="7.54907" width="2.5" height="2.22222" fill="#C1C3C3"/>
<path d="M13.0556 5.60474H13.75V6.43807H14.7222V7.54918H13.0556V5.60474Z" fill="#008259"/>
<path d="M11.1111 9.72217H16.9444V11.81C16.9444 13.7056 15.7889 15.4097 14.0278 16.1111C12.2667 15.4097 11.1111 13.7056 11.1111 11.81V9.72217Z" fill="#86C5FA"/>
<mask id="mask1_11482_6986" style="mask-type:alpha" maskUnits="userSpaceOnUse" x="11" y="9" width="6" height="8">
<path d="M11.1111 9.72217H16.9444V11.81C16.9444 13.7056 15.7889 15.4097 14.0278 16.1111C12.2667 15.4097 11.1111 13.7056 11.1111 11.81V9.72217Z" fill="#86C5FA"/>
</mask>
<g mask="url(#mask1_11482_6986)">
<path d="M14.0278 9.72217L16.9444 16.1111H11.1111L14.0278 9.72217Z" fill="#FBD381"/>
<path d="M14.0278 11.1602L16.9444 17.549H11.1111L14.0278 11.1602Z" fill="#008259"/>
</g>
<mask id="mask2_11482_6986" style="mask-type:alpha" maskUnits="userSpaceOnUse" x="0" y="0" width="10" height="10">
<path d="M0 10C-8.69081e-07 4.47715 4.47715 -5.43618e-08 10 -1.21421e-07L10 10L0 10Z" fill="#002F6C"/>
</mask>
<g mask="url(#mask2_11482_6986)">
<rect x="-0.000244141" width="10" height="10" fill="#004692"/>
<path d="M3.47845 0.870386L2.88919 1.45964L11.0909 9.66131L11.6801 9.07205L3.47845 0.870386Z" fill="#F5F7F8"/>
<path d="M1.9071 2.44173L0.925004 3.42383L9.12667 11.6255L10.1088 10.6434L1.9071 2.44173Z" fill="#F5F7F8"/>
<path d="M1.9071 2.44173L2.88919 1.45964L11.0909 9.66131L10.1088 10.6434L1.9071 2.44173Z" fill="#DD2033"/>
<path d="M10 3.33325V4.72214L4.72223 4.72214L4.72223 9.99993H3.33334V3.33325H10Z" fill="#F5F7F8"/>
<path d="M10 -0.555664V0.833225L1.3889 0.833224L1.3889 9.99989H1.52588e-05V-0.555664H10Z" fill="#F5F7F8"/>
<path fill-rule="evenodd" clip-rule="evenodd" d="M0.833344 9.99992H3.33334L3.33335 3.33325L10 3.33325V0.833252H3.33335H0.833345L0.833344 3.33325L0.833344 9.99992Z" fill="#DD2033"/>
</g>
</g>
</svg>
