<svg width="72" height="72" viewBox="0 0 72 72" fill="none" xmlns="http://www.w3.org/2000/svg">
<mask id="mask0_46_7111" style="mask-type:alpha" maskUnits="userSpaceOnUse" x="0" y="0" width="72" height="72">
<circle cx="36" cy="36" r="36" fill="#D9D9D9"/>
</mask>
<g mask="url(#mask0_46_7111)">
<rect width="28" height="72" fill="#005B33"/>
<rect x="28" width="44" height="72" fill="#DD2033"/>
<circle cx="27.3999" cy="36" r="14" fill="#F1B434"/>
<path d="M18.3999 28H36.3999V37.8219C36.3999 41.7754 34.0001 45.3332 30.3345 46.8143L-nan -nanL30.3345 46.8143C28.452 47.5749 26.3478 47.5749 24.4653 46.8143L-nan -nanL24.4653 46.8143C20.7997 45.3332 18.3999 41.7754 18.3999 37.8219V28Z" fill="#F5F7F8"/>
<path fill-rule="evenodd" clip-rule="evenodd" d="M32.3999 32H22.3999V37.8219C22.3999 40.1449 23.8099 42.2353 25.9638 43.1056C26.885 43.4778 27.9148 43.4778 28.836 43.1056C30.9899 42.2353 32.3999 40.1449 32.3999 37.8219V32ZM18.3999 28V37.8219C18.3999 41.7754 20.7997 45.3332 24.4653 46.8143C26.3478 47.5749 28.452 47.5749 30.3345 46.8143C34.0001 45.3332 36.3999 41.7754 36.3999 37.8219V28H18.3999Z" fill="#DD2033"/>
</g>
</svg>
