<svg width="20" height="20" viewBox="0 0 20 20" fill="none" xmlns="http://www.w3.org/2000/svg">
<mask id="mask0_11482_7052" style="mask-type:alpha" maskUnits="userSpaceOnUse" x="0" y="0" width="20" height="20">
<circle cx="10" cy="10" r="10" fill="#D9D9D9"/>
</mask>
<g mask="url(#mask0_11482_7052)">
<rect width="7.77778" height="20" fill="#005B33"/>
<rect x="7.77777" width="12.2222" height="20" fill="#DD2033"/>
<circle cx="7.61106" cy="9.99997" r="3.88889" fill="#F1B434"/>
<path fill-rule="evenodd" clip-rule="evenodd" d="M5.11108 7.77783V10.5061C5.11108 11.6043 5.77768 12.5926 6.79592 13.004C7.31883 13.2153 7.90334 13.2153 8.42625 13.004C9.44449 12.5926 10.1111 11.6043 10.1111 10.5061V7.77783H5.11108Z" fill="#F5F7F8"/>
<path fill-rule="evenodd" clip-rule="evenodd" d="M8.99997 8.88894H6.2222V10.5061C6.2222 11.1514 6.61387 11.7321 7.21216 11.9738C7.46806 12.0772 7.75411 12.0772 8.01001 11.9738C8.6083 11.7321 8.99997 11.1514 8.99997 10.5061V8.88894ZM5.11108 7.77783V10.5061C5.11108 11.6043 5.77768 12.5926 6.79592 13.004C7.31883 13.2153 7.90334 13.2153 8.42625 13.004C9.44449 12.5926 10.1111 11.6043 10.1111 10.5061V7.77783H5.11108Z" fill="#DD2033"/>
</g>
</svg>
