<svg width="29" height="20" viewBox="0 0 29 20" fill="none" xmlns="http://www.w3.org/2000/svg">
<mask id="mask0_11482_7059" style="mask-type:alpha" maskUnits="userSpaceOnUse" x="0" y="0" width="29" height="20">
<rect width="29" height="20" fill="#D9D9D9"/>
</mask>
<g mask="url(#mask0_11482_7059)">
<rect width="11.2778" height="20" fill="#005B33"/>
<rect x="11.2778" width="17.7222" height="20" fill="#DD2033"/>
<ellipse cx="11.036" cy="9.9999" rx="5.63889" ry="5.6" fill="#F1B434"/>
<path fill-rule="evenodd" clip-rule="evenodd" d="M7.41107 6.80005V10.7288C7.41107 12.3102 8.37764 13.7333 9.85408 14.3258C10.6123 14.63 11.4598 14.63 12.2181 14.3258C13.6945 13.7333 14.6611 12.3102 14.6611 10.7288V6.80005H7.41107Z" fill="#F5F7F8"/>
<path fill-rule="evenodd" clip-rule="evenodd" d="M13.05 8.40005H9.02218V10.7288C9.02218 11.658 9.59011 12.4942 10.4576 12.8423C10.8287 12.9912 11.2435 12.9912 11.6145 12.8423C12.482 12.4942 13.05 11.658 13.05 10.7288V8.40005ZM7.41107 6.80005V10.7288C7.41107 12.3102 8.37764 13.7333 9.85408 14.3258C10.6123 14.63 11.4598 14.63 12.2181 14.3258C13.6945 13.7333 14.6611 12.3102 14.6611 10.7288V6.80005H7.41107Z" fill="#DD2033"/>
</g>
</svg>
