<svg width="72" height="72" viewBox="0 0 72 72" fill="none" xmlns="http://www.w3.org/2000/svg">
<mask id="mask0_46_7217" style="mask-type:alpha" maskUnits="userSpaceOnUse" x="0" y="0" width="72" height="72">
<circle cx="36" cy="36" r="36" fill="#D9D9D9"/>
</mask>
<g mask="url(#mask0_46_7217)">
<rect x="0.00012207" y="72.0001" width="20" height="72" transform="rotate(-90 0.00012207 72.0001)" fill="#004692"/>
<rect y="52" width="32" height="72" transform="rotate(-90 0 52)" fill="#F5F7F8"/>
<rect y="20" width="20" height="72" transform="rotate(-90 0 20)" fill="#DD2033"/>
<path fill-rule="evenodd" clip-rule="evenodd" d="M20 23.7456C18.7219 26.2181 18 29.0247 18 32C18 41.9411 26.0589 50 36 50C45.9411 50 54 41.9411 54 32C54 29.0247 53.2781 26.2181 52 23.7456V24.157L46.7976 26.7582C47.5679 28.3419 48 30.1205 48 32C48 38.6274 42.6274 44 36 44C29.3726 44 24 38.6274 24 32C24 30.1205 24.4321 28.3419 25.2024 26.7582L20 24.157V23.7456Z" fill="#009B77"/>
<path d="M36 23L33.6154 28.3938L28 29.1114L32.1418 33.1628L31.0556 39L36 35.6667L40.9444 39L39.8582 33.1628L44 29.1114L38.3846 28.3938L36 23Z" fill="#F1B434"/>
</g>
</svg>
