<svg width="29" height="20" viewBox="0 0 29 20" fill="none" xmlns="http://www.w3.org/2000/svg">
<mask id="mask0_11482_7088" style="mask-type:alpha" maskUnits="userSpaceOnUse" x="0" y="0" width="29" height="20">
<rect width="29" height="20" fill="#D9D9D9"/>
</mask>
<g mask="url(#mask0_11482_7088)">
<rect y="20" width="4" height="29" transform="rotate(-90 0 20)" fill="#004692"/>
<rect y="16" width="12" height="29" transform="rotate(-90 0 16)" fill="#F5F7F8"/>
<rect y="4" width="4" height="29" transform="rotate(-90 0 4)" fill="#DD2033"/>
<path fill-rule="evenodd" clip-rule="evenodd" d="M8.41358 5.07617C7.92737 5.99191 7.65277 7.03142 7.65277 8.13337C7.65277 11.8153 10.7184 14.8 14.5 14.8C18.2816 14.8 21.3472 11.8153 21.3472 8.13337C21.3472 7.03143 21.0726 5.99194 20.5864 5.07621V5.22859L18.6075 6.19198C18.9005 6.77855 19.0648 7.43729 19.0648 8.13341C19.0648 10.588 17.0211 12.5778 14.5 12.5778C11.9789 12.5778 9.93521 10.588 9.93521 8.13341C9.93521 7.4373 10.0996 6.77856 10.3926 6.192L8.41358 5.22859V5.07617Z" fill="#009B77"/>
<path d="M14.5 4.80005L13.5395 6.78304L11.2778 7.04689L12.946 8.53636L12.5085 10.6824L14.5 9.4569L16.4915 10.6824L16.054 8.53636L17.7222 7.04689L15.4604 6.78304L14.5 4.80005Z" fill="#F1B434"/>
</g>
</svg>
