<svg width="72" height="72" viewBox="0 0 72 72" fill="none" xmlns="http://www.w3.org/2000/svg">
<mask id="mask0_46_7481" style="mask-type:alpha" maskUnits="userSpaceOnUse" x="0" y="0" width="72" height="72">
<circle cx="36" cy="36" r="36" fill="#D9D9D9"/>
</mask>
<g mask="url(#mask0_46_7481)">
<rect x="0.00012207" y="72.0001" width="24" height="72" transform="rotate(-90 0.00012207 72.0001)" fill="#F5F7F8"/>
<rect x="0.00012207" y="47.9999" width="24" height="72" transform="rotate(-90 0.00012207 47.9999)" fill="#004692"/>
<rect x="0.00012207" y="23.9999" width="24" height="72" transform="rotate(-90 0.00012207 23.9999)" fill="#DD2033"/>
<path d="M11.2002 24H36.2002V37.3207C36.2002 43.1184 32.6895 48.3389 27.32 50.5257C24.9994 51.4709 22.401 51.4709 20.0804 50.5257C14.7109 48.3389 11.2002 43.1184 11.2002 37.3207V24Z" fill="#DD2033"/>
<path d="M30.7741 28.4105C29.8022 28.3433 28.3754 28.488 27.2658 29.0465C26.2657 29.5499 25.5686 30.3363 25.5686 31.81V32.3164L34.4165 29.9192C34.7452 31.1599 34.0075 32.4377 32.7687 32.7733L25.5686 34.7241V35.3256L34.605 32.8773C34.9337 34.1179 34.196 35.3957 32.9572 35.7314L25.8203 37.665L26.2931 38.139L34.2383 35.9864C34.567 37.227 33.8293 38.5048 32.5905 38.8405L28.1836 40.0345L32.088 43.9489L29.6932 46.3499L25.4711 42.1169L27.2615 46.6045L23.875 49.9998L20.4883 46.6044L22.274 42.1286L18.0442 46.3693L15.6494 43.9683L19.4973 40.1105L14.8098 38.8405C13.571 38.5048 12.8333 37.227 13.1621 35.9864L21.3878 38.2151L21.8607 37.741L14.4431 35.7314C13.2043 35.3957 12.4666 34.1179 12.7954 32.8773L22.1688 35.4169V34.8154L14.6316 32.7733C13.3928 32.4377 12.6551 31.1599 12.9839 29.9192L22.1688 32.4078V31.8294C22.1688 30.3557 21.4717 29.5693 20.4716 29.0659C19.362 28.5074 17.9352 28.3627 16.9633 28.4299L16.7303 25.0425C18.0969 24.948 20.1777 25.1186 21.9912 26.0314C22.6687 26.3725 23.3113 26.8219 23.8594 27.3917C24.4116 26.8127 25.061 26.3569 25.7462 26.012C27.5597 25.0992 29.6405 24.9286 31.0071 25.0231L30.7741 28.4105Z" fill="#F5F7F8"/>
<path d="M19.2002 32H28.2002V37.6278C28.2002 39.6785 26.9925 41.5367 25.1187 42.3696C24.2156 42.7709 23.1848 42.7709 22.2817 42.3696C20.4078 41.5367 19.2002 39.6785 19.2002 37.6278V32Z" fill="#DD2033"/>
<path fill-rule="evenodd" clip-rule="evenodd" d="M25.2002 8.57153H23.2002V10L21.2002 10V12H23.2002V13.7232C22.383 13.1762 21.4003 12.8572 20.3431 12.8572C17.5027 12.8572 15.2002 15.1597 15.2002 18C15.2002 19.5232 15.8623 20.8917 16.9145 21.8334V24H31.4859V21.8334C32.5381 20.8917 33.2002 19.5232 33.2002 18C33.2002 15.1597 30.8977 12.8572 28.0573 12.8572C27.0001 12.8572 26.0174 13.1762 25.2002 13.7232V12H27.2002V10L25.2002 10V8.57153ZM24.2002 21.4018L24.1764 21.4286H24.224L24.2002 21.4018ZM20.3527 20.5716L20.343 20.5716C18.9229 20.5716 17.7716 19.4203 17.7716 18.0001C17.7716 16.58 18.9229 15.4287 20.343 15.4287C21.7632 15.4287 22.9145 16.58 22.9145 18.0001V20.5716H20.3527ZM30.6288 18.0001C30.6288 19.4203 29.4775 20.5716 28.0573 20.5716L28.0477 20.5716H25.4859V18.0001C25.4859 16.58 26.6372 15.4287 28.0573 15.4287C29.4775 15.4287 30.6288 16.58 30.6288 18.0001Z" fill="#F1B434"/>
<path d="M25 32H23V36H19.2002V38H23V43H25V38H28.2002V36H25V32Z" fill="#F5F7F8"/>
</g>
</svg>
