<svg width="20" height="20" viewBox="0 0 20 20" fill="none" xmlns="http://www.w3.org/2000/svg">
<mask id="mask0_11482_7134" style="mask-type:alpha" maskUnits="userSpaceOnUse" x="0" y="0" width="20" height="20">
<circle cx="10" cy="10" r="10" fill="#D9D9D9"/>
</mask>
<g mask="url(#mask0_11482_7134)">
<rect x="0.00012207" y="20" width="6.66667" height="20" transform="rotate(-90 0.00012207 20)" fill="#F5F7F8"/>
<rect x="0.00012207" y="13.3333" width="6.66667" height="20" transform="rotate(-90 0.00012207 13.3333)" fill="#004692"/>
<rect x="0.00012207" y="6.66675" width="6.66667" height="20" transform="rotate(-90 0.00012207 6.66675)" fill="#DD2033"/>
<path d="M3.11118 6.66675H10.0556V10.3669C10.0556 11.9774 9.08044 13.4275 7.58891 14.035C6.94427 14.2976 6.22252 14.2976 5.57789 14.035C4.08636 13.4275 3.11118 11.9774 3.11118 10.3669V6.66675Z" fill="#DD2033"/>
<path d="M8.54835 7.8917C8.27838 7.87303 7.88204 7.91322 7.57382 8.06837C7.29603 8.2082 7.10238 8.42664 7.10238 8.83601V8.97668L9.56012 8.31079C9.65144 8.65541 9.44652 9.01035 9.10241 9.10358L7.10238 9.64546V9.81255L9.61247 9.13247C9.7038 9.47709 9.49887 9.83204 9.15477 9.92527L7.17228 10.4624L7.30362 10.5941L9.51061 9.99612C9.60193 10.3407 9.39701 10.6957 9.05291 10.7889L7.82877 11.1206L8.91332 12.2079L8.2481 12.8749L7.07529 11.699L7.57263 12.9456L6.63193 13.8887L5.69117 12.9456L6.1872 11.7023L5.01226 12.8803L4.34704 12.2133L5.4159 11.1417L4.11383 10.7889C3.76972 10.6957 3.5648 10.3407 3.65612 9.99612L5.94105 10.6152L6.07239 10.4835L4.01196 9.92527C3.66786 9.83204 3.46294 9.47709 3.55426 9.13247L6.15799 9.83791V9.67083L4.06432 9.10358C3.72021 9.01035 3.51529 8.65541 3.60661 8.31079L6.15799 9.00205V8.84139C6.15799 8.43203 5.96433 8.21359 5.68654 8.07376C5.37832 7.91861 4.98198 7.87842 4.71201 7.89709L4.64729 6.95613C5.02689 6.92988 5.60491 6.97727 6.10865 7.23084C6.29686 7.32558 6.47534 7.45042 6.6276 7.6087C6.78098 7.44786 6.96138 7.32126 7.15171 7.22545C7.65545 6.97188 8.23347 6.92449 8.61307 6.95074L8.54835 7.8917Z" fill="#F5F7F8"/>
<path d="M5.33337 8.88892H7.83337V10.4522C7.83337 11.0218 7.49792 11.538 6.97739 11.7694C6.72654 11.8808 6.4402 11.8808 6.18935 11.7694C5.66883 11.538 5.33337 11.0218 5.33337 10.4522V8.88892Z" fill="#DD2033"/>
<path fill-rule="evenodd" clip-rule="evenodd" d="M7.00007 2.38086H6.44451V2.77766L5.88896 2.77766V3.33321H6.44451V3.81188C6.21751 3.65993 5.94454 3.57132 5.65086 3.57132C4.86188 3.57132 4.22229 4.21091 4.22229 4.99989C4.22229 5.42298 4.40622 5.80312 4.69848 6.0647V6.66655H8.7461V6.0647C9.03836 5.80312 9.22229 5.42298 9.22229 4.99989C9.22229 4.21091 8.5827 3.57132 7.79372 3.57132C7.50005 3.57132 7.22707 3.65993 7.00007 3.81188V3.33321H7.55562V2.77766L7.00007 2.77766V2.38086ZM6.72229 5.94482L6.71568 5.95226H6.7289L6.72229 5.94482ZM5.65353 5.7142L5.65086 5.7142C5.25637 5.7142 4.93657 5.39441 4.93657 4.99992C4.93657 4.60543 5.25637 4.28563 5.65086 4.28563C6.04534 4.28563 6.36515 4.60542 6.36515 4.99991V5.7142H5.65353ZM8.508 4.99992C8.508 5.39441 8.18821 5.7142 7.79372 5.7142L7.79104 5.7142H7.07943V4.99991C7.07943 4.60542 7.39923 4.28563 7.79372 4.28563C8.18821 4.28563 8.508 4.60543 8.508 4.99992Z" fill="#F1B434"/>
<path d="M6.94443 8.88892H6.38888V10H5.33337V10.5556H6.38888V11.9445H6.94443V10.5556H7.83337V10H6.94443V8.88892Z" fill="#F5F7F8"/>
</g>
</svg>
