<svg width="29" height="20" viewBox="0 0 29 20" fill="none" xmlns="http://www.w3.org/2000/svg">
<mask id="mask0_11482_7144" style="mask-type:alpha" maskUnits="userSpaceOnUse" x="0" y="0" width="29" height="20">
<rect width="29" height="20" fill="#D9D9D9"/>
</mask>
<g mask="url(#mask0_11482_7144)">
<rect x="0.000244141" y="20" width="6.4" height="29" transform="rotate(-90 0.000244141 20)" fill="#F5F7F8"/>
<rect x="0.000244141" y="13.6001" width="7.2" height="29" transform="rotate(-90 0.000244141 13.6001)" fill="#004692"/>
<rect y="6.3999" width="6.4" height="29" transform="rotate(-90 0 6.3999)" fill="#DD2033"/>
<path d="M4.43054 6.40015H14.5V11.6949C14.5 14.0333 13.0811 16.1377 10.9134 17.0144C9.98453 17.3901 8.946 17.3901 8.01712 17.0144C5.84941 16.1377 4.43054 14.0333 4.43054 11.6949V6.40015Z" fill="#DD2033"/>
<path d="M12.3145 8.16425C11.9231 8.13737 11.3484 8.19524 10.9015 8.41866C10.4987 8.62002 10.2179 8.93457 10.2179 9.52405V9.72662L13.7816 8.76774C13.914 9.26399 13.6169 9.77511 13.1179 9.90937L10.2179 10.6897V10.9303L13.8575 9.95097C13.9899 10.4472 13.6928 10.9583 13.1938 11.0926L10.3192 11.866L10.5097 12.0557L13.7098 11.1946C13.8422 11.6909 13.5451 12.202 13.0461 12.3362L11.2711 12.8138L12.8437 14.3796L11.8792 15.34L10.1786 13.6468L10.8997 15.4419L9.53572 16.8L8.17162 15.4418L8.89086 13.6515L7.1872 15.3478L6.22264 14.3874L7.77249 12.8442L5.88447 12.3362C5.38552 12.202 5.08838 11.6909 5.2208 11.1946L8.53395 12.0861L8.72439 11.8965L5.73677 11.0926C5.23782 10.9583 4.94068 10.4472 5.0731 9.95097L8.84851 10.9668V10.7262L5.81269 9.90937C5.31373 9.77511 5.0166 9.26399 5.14901 8.76774L8.84851 9.76315V9.53181C8.84851 8.94233 8.56771 8.62777 8.16491 8.42642C7.71799 8.203 7.14329 8.14513 6.75184 8.17201L6.65799 6.81703C7.20842 6.77923 8.04655 6.84748 8.77697 7.21262C9.04987 7.34903 9.30867 7.5288 9.52944 7.75673C9.75184 7.52512 10.0134 7.34282 10.2894 7.20486C11.0198 6.83972 11.858 6.77147 12.4084 6.80927L12.3145 8.16425Z" fill="#F5F7F8"/>
<path d="M7.65277 9.6001H11.2778V11.8393C11.2778 12.6664 10.7895 13.4156 10.0328 13.7496C9.67127 13.9092 9.25927 13.9092 8.89774 13.7496C8.14102 13.4156 7.65277 12.6664 7.65277 11.8393V9.6001Z" fill="#DD2033"/>
<path fill-rule="evenodd" clip-rule="evenodd" d="M10.0694 0.22876H9.26388V0.800146L8.45832 0.800146V1.60015H9.26388V2.28943C8.93473 2.07062 8.53891 1.94302 8.11309 1.94302C6.96907 1.94302 6.04166 2.86403 6.04166 4.00016C6.04166 4.60942 6.30835 5.15682 6.73214 5.53349V6.40015H12.6012V5.53349C13.025 5.15681 13.2917 4.60942 13.2917 4.00016C13.2917 2.86403 12.3642 1.94302 11.2202 1.94302C10.7944 1.94302 10.3986 2.07062 10.0694 2.28943V1.60015H10.875V0.800146L10.0694 0.800146V0.22876ZM9.66666 5.36087L9.65707 5.37158H9.67625L9.66666 5.36087ZM8.11696 5.02877L8.11308 5.02877C7.54107 5.02877 7.07736 4.56827 7.07736 4.0002C7.07736 3.43214 7.54107 2.97163 8.11308 2.97163C8.68508 2.97163 9.14881 3.43213 9.14881 4.0002V5.02877H8.11696ZM12.2559 4.0002C12.2559 4.56827 11.7922 5.02877 11.2202 5.02877L11.2163 5.02877H10.1845V4.0002C10.1845 3.43213 10.6482 2.97163 11.2202 2.97163C11.7922 2.97163 12.2559 3.43214 12.2559 4.0002Z" fill="#F1B434"/>
<path d="M9.9888 9.6001H9.18325V11.2001H7.65277V12.0001H9.18325V14.0001H9.9888V12.0001H11.2778V11.2001H9.9888V9.6001Z" fill="#F5F7F8"/>
</g>
</svg>
