<svg width="20" height="20" viewBox="0 0 20 20" fill="none" xmlns="http://www.w3.org/2000/svg">
<mask id="mask0_11482_7169" style="mask-type:alpha" maskUnits="userSpaceOnUse" x="0" y="0" width="20" height="20">
<circle cx="10" cy="10" r="10" fill="#D9D9D9"/>
</mask>
<g mask="url(#mask0_11482_7169)">
<rect y="20" width="5" height="20" transform="rotate(-90 0 20)" fill="#005B33"/>
<rect y="10" width="10" height="20" transform="rotate(-90 0 10)" fill="#0091DA"/>
<path d="M17.2222 6.3889L16.2006 6.89404L16.7446 7.93403L15.6354 7.71095L15.4948 8.88892L14.7222 8.02256L13.9495 8.88892L13.809 7.71095L12.6997 7.93399L13.2437 6.89401L12.2222 6.3889L13.2437 5.88379L12.6997 4.84384L13.8089 5.06688L13.9496 3.88892L14.7222 4.75527L15.4948 3.88892L15.6354 5.06688L16.7446 4.84384L16.2007 5.88383L17.2222 6.3889Z" fill="#F1B434"/>
<rect y="15" width="5" height="20" transform="rotate(-90 0 15)" fill="#FBD381"/>
</g>
</svg>
