<svg width="29" height="20" viewBox="0 0 29 20" fill="none" xmlns="http://www.w3.org/2000/svg">
<mask id="mask0_11482_7174" style="mask-type:alpha" maskUnits="userSpaceOnUse" x="0" y="0" width="29" height="20">
<rect width="29" height="20" fill="#D9D9D9"/>
</mask>
<g mask="url(#mask0_11482_7174)">
<rect y="20" width="4.8" height="29" transform="rotate(-90 0 20)" fill="#005B33"/>
<rect y="9.6001" width="9.6" height="29" transform="rotate(-90 0 9.6001)" fill="#0091DA"/>
<rect y="15.2" width="5.6" height="29" transform="rotate(-90 0 15.2)" fill="#FBD381"/>
<path d="M27.0553 4.77765L25.8976 5.35015L26.5141 6.52879L25.2569 6.27598L25.0977 7.611L24.222 6.62913L23.3464 7.611L23.1871 6.27598L21.9299 6.52875L22.5464 5.35011L21.3887 4.77765L22.5464 4.20519L21.9299 3.02659L23.187 3.27936L23.3464 1.94434L24.222 2.92621L25.0977 1.94434L25.2569 3.27936L26.5141 3.02659L25.8976 4.20523L27.0553 4.77765Z" fill="#F1B434"/>
</g>
</svg>
