<svg width="72" height="72" viewBox="0 0 72 72" fill="none" xmlns="http://www.w3.org/2000/svg">
<mask id="mask0_46_8043" style="mask-type:alpha" maskUnits="userSpaceOnUse" x="0" y="0" width="72" height="72">
<circle cx="36" cy="36" r="36" fill="#D9D9D9"/>
</mask>
<g mask="url(#mask0_46_8043)">
<rect width="72" height="72" fill="#005B33"/>
<path d="M15.4717 31.1509C15.4717 33.0653 13.9143 34.6226 12 34.6226V39.8301C16.7858 39.8301 20.6792 35.9366 20.6792 31.1509V19H15.4717V31.1509Z" fill="#F5F7F8"/>
<path d="M52.7923 19V31.1509C52.7923 33.0653 51.235 34.6226 49.3206 34.6226V39.8301C54.1064 39.8301 57.9998 35.9366 57.9998 31.1509V19H52.7923Z" fill="#F5F7F8"/>
<path d="M50.1885 19H44.981V31.1509H50.1885V19Z" fill="#F5F7F8"/>
<path d="M37.1697 25.9434C37.1697 26.4221 36.7803 26.8113 36.3018 26.8113C35.8234 26.8113 35.4339 26.4219 35.4339 25.9434V19H30.2264V25.9434C30.2264 26.4221 29.837 26.8113 29.3586 26.8113C28.8801 26.8113 28.4907 26.4219 28.4907 25.9434V19H23.283V25.9434C23.283 29.2935 26.0085 32.019 29.3586 32.019C30.6488 32.019 31.8453 31.6135 32.8303 30.9248C33.8151 31.6133 35.0118 32.019 36.302 32.019C36.5618 32.019 36.8173 32.0007 37.0685 31.9688C36.6995 33.4892 35.3302 34.6226 33.6982 34.6226V39.8301C38.484 39.8301 42.3774 35.9366 42.3774 31.1509V19H37.1699L37.1697 25.9434Z" fill="#F5F7F8"/>
<path d="M31.0943 34.6229H23.283V39.8304H31.0943V34.6229Z" fill="#F5F7F8"/>
<path d="M50.1438 50H55V53H50.1438C49.5261 54.7478 47.8592 56 45.8999 56C43.9406 56 42.2737 54.7478 41.656 53H17V50H41.656C42.2737 48.2522 43.9406 47 45.8999 47C47.8592 47 49.5261 48.2522 50.1438 50Z" fill="#F5F7F8"/>
</g>
</svg>
