<svg width="20" height="20" viewBox="0 0 20 20" fill="none" xmlns="http://www.w3.org/2000/svg">
<mask id="mask0_11482_7181" style="mask-type:alpha" maskUnits="userSpaceOnUse" x="0" y="0" width="20" height="20">
<circle cx="10" cy="10" r="10" fill="#D9D9D9"/>
</mask>
<g mask="url(#mask0_11482_7181)">
<rect width="20" height="20" fill="#005B33"/>
<path d="M15.2001 16H5.20017V15.0527H15.2001V16Z" fill="#F5F7F8"/>
<path fill-rule="evenodd" clip-rule="evenodd" d="M12.0269 11.1284C12.1075 11.162 12.1491 11.296 12.1554 11.3283C12.1609 11.3565 12.1423 11.3963 12.1299 11.4172L12.125 11.425C12.1134 11.4421 12.0851 11.4491 11.9862 11.4275C11.8868 11.406 11.8272 11.373 11.8272 11.373C11.8268 11.3748 11.8205 11.3994 11.799 11.4579C11.7675 11.5432 11.674 11.6397 11.5174 11.7359C11.3766 11.8225 11.2597 11.8844 11.1642 11.922C11.0685 11.9593 10.8285 12.0323 10.7807 12.0459C10.7329 12.0594 10.7189 12.0514 10.7665 12.0299C10.8145 12.0081 10.9449 11.9364 11.1257 11.8531C11.3064 11.77 11.5854 11.5927 11.6715 11.519C11.7738 11.431 11.7911 11.3946 11.8001 11.3381C11.8064 11.299 11.8143 11.277 11.8207 11.2625L11.8473 11.2636C11.8857 11.1655 11.9466 11.0948 12.0269 11.1284ZM11.99 11.2343C11.9507 11.2204 11.9092 11.2393 11.8853 11.2831C11.9251 11.3001 12.0189 11.3248 12.0697 11.3237C12.0617 11.2959 12.0343 11.2502 11.99 11.2343Z" fill="#F5F7F8"/>
<path d="M14.8068 11.2934C14.8914 11.2732 14.8979 11.4144 14.8903 11.4481C14.8824 11.482 14.8211 11.5625 14.8057 11.5504C14.7902 11.5383 14.7976 11.439 14.7514 11.4414C14.7051 11.444 14.5766 11.5127 14.5626 11.5586C14.5673 11.6194 14.7137 11.6938 14.8203 11.6897C14.9269 11.6853 15.0981 11.538 15.1247 11.5524C15.1508 11.5672 15.0641 11.7016 15.0629 11.7035C14.9765 11.7523 14.507 11.9916 14.4531 12.0335C14.4738 11.9377 14.5173 11.8884 14.5209 11.8845C14.564 11.8439 14.6326 11.8126 14.6402 11.8099C14.5491 11.7747 14.4238 11.7099 14.4471 11.6357C14.4704 11.5612 14.6726 11.3259 14.8068 11.2934Z" fill="#F5F7F8"/>
<path fill-rule="evenodd" clip-rule="evenodd" d="M9.03859 8.9763C9.20306 9.11416 9.4672 9.56474 9.59088 10.0983C9.676 10.4661 9.63211 10.7464 9.84479 11.0189C10.0355 11.2632 10.2593 11.3654 10.3797 11.4101C10.3819 11.1669 10.4632 11.0248 10.5924 10.9315C10.7219 10.8384 11.1713 10.6806 11.3427 10.6421C11.2269 10.6421 10.931 10.652 10.5929 10.6622C10.2546 10.6722 9.76886 10.6714 9.70373 10.6735C9.71315 10.6458 9.77746 10.392 9.78565 10.3764L9.81495 10.363C9.91684 10.1989 10.2661 10.0283 10.5788 9.87219C10.7192 9.80208 10.8785 9.73512 11.0308 9.67841C10.9875 9.62539 10.9508 9.58244 10.9353 9.55814C10.8867 9.48117 10.9286 9.11831 11.1371 9.06985C11.2896 9.03408 11.4425 9.11541 11.5841 9.20914C11.687 9.27727 11.8028 9.35669 11.8397 9.42039C11.8305 9.54552 11.7691 9.71807 11.7344 9.76065C11.6795 9.7747 11.5518 9.79902 11.3047 9.87373C11.3116 9.96308 11.2915 10.0504 11.2646 10.0768C11.2591 10.0255 11.2326 9.96666 11.1973 9.90714C11.15 9.92214 11.0992 9.9386 11.0443 9.957C10.6205 10.0988 10.324 10.2651 10.1991 10.3502C10.4028 10.3524 11.0144 10.3561 11.3319 10.3399C11.6493 10.3237 12.3634 10.2742 12.4793 10.268C12.4728 10.3097 12.3684 10.5097 12.3475 10.5666C12.3441 10.5664 12.2972 10.5644 12.2726 10.5722C12.1559 10.6458 11.723 10.7983 11.3085 10.9156C10.8941 11.0332 10.5631 11.1586 10.4909 11.2579C10.5712 11.4383 10.8835 11.4941 11.0367 11.5154L11.0649 11.519C11.0649 11.519 11.0999 11.7769 11.0975 11.8593C10.3656 11.8506 9.97662 11.5355 9.78674 11.3098C9.58053 11.0646 9.56117 10.7789 9.53771 10.5722C9.53283 10.6473 9.51327 10.8062 9.44169 10.95C9.40211 11.0087 9.24705 11.177 8.97836 11.3653C8.72066 11.546 8.29061 11.8139 7.98228 11.8752C7.6627 11.9384 7.42894 11.843 7.41479 11.5051C7.41364 11.4774 7.41405 11.4496 7.41533 11.4219C7.1556 11.5345 6.88654 11.6355 6.49737 11.6835C5.97189 11.7484 5.58959 11.801 5.43672 11.8336C5.38428 11.8447 5.34903 11.8495 5.32821 11.8495L5.30705 11.8917C5.24711 11.9951 5.16921 12.0622 5.07756 12.0078C5.00394 11.964 4.9589 11.8509 5.00106 11.6856C5.04331 11.5201 5.18101 11.2831 5.25442 11.1608C5.28694 11.1059 5.27497 11.2066 5.23218 11.3083C5.20111 11.3819 5.12926 11.4971 5.10686 11.6244C5.08235 11.7656 5.18026 11.8425 5.25008 11.829C5.28411 11.8225 5.30551 11.7243 5.33526 11.6969C5.36156 11.6776 5.36465 11.7415 5.34014 11.8166L5.35317 11.8115C5.68679 11.7122 6.16393 11.578 6.83319 11.3509C7.01935 11.2878 7.24445 11.2007 7.47555 11.1027C7.521 10.9697 7.58357 10.858 7.63397 10.767C7.6089 10.7703 7.58228 10.7646 7.55476 10.748C7.48122 10.7042 7.43682 10.5914 7.47881 10.4263C7.52106 10.2608 7.65828 10.0239 7.73163 9.90148C7.76426 9.84673 7.7524 9.94715 7.70938 10.049C7.67833 10.1226 7.60692 10.2378 7.5846 10.3651C7.56002 10.5061 7.65751 10.5831 7.72729 10.5697C7.76142 10.563 7.78321 10.4648 7.81301 10.4376C7.84774 10.412 7.84212 10.5332 7.78479 10.6324C7.76691 10.6633 7.74732 10.6909 7.7262 10.7131C7.6519 10.844 7.59572 10.9619 7.56019 11.0662C8.13514 10.8179 8.72568 10.5168 8.84273 10.3754C8.82846 10.2788 8.68463 10.0875 8.58503 9.91433C8.48566 9.74106 8.42497 9.60374 8.40762 9.55454C8.39537 9.51995 8.36991 9.50623 8.34794 9.49389L8.3398 9.45997C8.35159 9.39359 8.38184 9.25959 8.39677 9.1968C8.40065 9.18033 8.41501 9.17401 8.4342 9.18961C8.51077 9.25096 8.71113 9.4079 8.76298 9.45637C8.82755 9.51704 8.84275 9.55579 8.81289 9.55814C8.75056 9.55503 8.64486 9.50919 8.65393 9.54169C8.66563 9.61064 8.81422 9.80538 8.90892 9.97344C9.00392 10.1417 9.00596 10.4356 8.84382 10.6442C8.69323 10.8165 8.0516 11.1447 7.69039 11.3006C7.63434 11.3248 7.57941 11.3489 7.52492 11.373C7.53437 11.4117 7.5513 11.446 7.57592 11.4748C7.70136 11.6226 8.05569 11.6001 8.45753 11.3926C8.88122 11.1738 9.38944 10.8 9.47532 10.6216C9.47963 10.5606 9.39075 10.289 9.28652 10.0135C9.18372 9.74205 8.9821 9.31919 8.97619 9.3068C8.97628 9.3051 8.98349 9.1635 9.03859 8.9763ZM11.5131 9.52833C11.3479 9.38932 11.1289 9.31657 11.0221 9.42039L11.0167 9.42553C11.0193 9.45322 11.105 9.53752 11.1816 9.62496C11.3104 9.5814 11.4271 9.54742 11.5131 9.52833Z" fill="#F5F7F8"/>
<path d="M13.381 7.06014C13.398 7.06714 13.407 7.10183 13.4434 7.16088C13.5208 7.28562 13.6392 7.54361 13.6767 7.60086C13.7318 7.6845 13.7474 7.78373 13.7185 7.79001C13.6617 7.77842 13.5508 7.62334 13.5438 7.68926C13.5364 7.75794 13.6008 8.02068 13.6458 8.34049C13.6909 8.66057 13.8617 9.49529 13.8731 9.85009C13.8849 10.227 13.8373 10.5622 13.7038 10.8596C13.6013 11.0884 13.4612 11.2537 13.2682 11.3802C13.3369 11.5271 13.4485 11.6462 13.5953 11.6681C13.8038 11.699 13.8952 11.5697 14.0141 11.3766C14.1282 11.1912 14.2267 10.9772 14.3809 10.7799C14.4701 10.6661 14.5612 10.5924 14.6495 10.5486L14.6847 10.5327L14.7048 10.5275C14.7064 10.5272 14.7081 10.5268 14.7097 10.5265C14.7 10.4081 14.678 10.1383 14.6787 10.1307C14.6455 9.70839 14.5997 9.1479 14.5643 8.80463C14.5132 8.31085 14.4426 7.70024 14.4373 7.56745C14.4321 7.43525 14.3845 7.38964 14.3657 7.36031C14.3713 7.31281 14.4683 7.07104 14.4872 7.0771C14.5236 7.09255 14.7329 7.49855 14.7856 7.59674C14.8383 7.69472 14.8827 7.78597 14.8453 7.8044C14.8334 7.8094 14.7738 7.76287 14.7357 7.72576C14.6974 7.68844 14.6592 7.67457 14.6581 7.71085C14.6569 7.78011 14.66 7.84959 14.6674 7.9185C14.7038 8.24643 14.7533 8.61917 14.7786 8.89098C14.8072 9.19649 14.8588 9.79864 14.88 10.1312L14.8898 10.4638C14.8894 10.4898 14.8885 10.5161 14.8876 10.5424C14.948 10.5663 14.9995 10.6083 15.0309 10.6627C15.0563 10.7068 15.0819 10.7556 15.1095 10.8041C15.1991 10.9606 15.3213 11.0164 15.5435 11.0138C15.7658 11.011 15.982 10.88 16.0877 10.7861C16.0863 10.4395 15.9431 9.37295 15.9032 8.96859C15.8857 8.79137 15.8649 8.57921 15.8446 8.3739C15.7613 8.28155 15.6784 8.18854 15.5962 8.09532C15.4001 7.87251 15.1517 7.54335 15.1128 7.49446C15.0744 7.44583 15.0141 7.42277 14.9815 7.41993C14.9739 7.38898 14.9623 7.13956 14.9755 7.13055C15.0023 7.11307 15.0665 7.17434 15.1963 7.24723C15.3258 7.32008 15.5 7.4233 15.568 7.46311C15.6358 7.503 15.663 7.54172 15.6683 7.55717C15.6793 7.59012 15.6126 7.56994 15.5419 7.55922C15.4709 7.54832 15.4327 7.53515 15.4372 7.55665C15.4501 7.60042 15.6281 7.8146 15.8099 8.01925C15.7893 7.80362 15.7738 7.63257 15.7719 7.57619C15.7673 7.44359 15.7195 7.39806 15.7009 7.36853C15.7066 7.32114 15.804 7.06874 15.8224 7.07658C15.8592 7.09315 16.0634 7.49885 16.1154 7.59726C16.1676 7.69561 16.1903 7.77857 16.1642 7.78692C16.1519 7.79082 16.0935 7.73593 16.0552 7.69852C16.0169 7.66096 15.9888 7.65642 15.9879 7.69286C15.9859 7.76508 15.9887 7.83734 15.996 7.90925C16.007 8.01327 16.0226 8.13947 16.04 8.27162C16.0618 8.29431 16.0823 8.31522 16.1007 8.33381C16.2071 8.44113 16.4654 8.70609 16.7398 8.99634L16.7371 8.96859C16.6885 8.4749 16.6043 7.69162 16.5993 7.5582C16.5947 7.42539 16.5472 7.37937 16.5288 7.35003C16.5347 7.30193 16.6274 7.06874 16.646 7.07658C16.6823 7.09239 16.8788 7.4895 16.9308 7.58801C16.9829 7.6862 17.0052 7.76915 16.9791 7.77767C16.9664 7.78077 16.908 7.72652 16.87 7.68926C16.8319 7.65182 16.804 7.64713 16.8028 7.68361C16.8015 7.72961 16.8024 7.8178 16.8109 7.90051C16.846 8.22862 16.9273 8.78351 16.9514 9.05545C16.956 9.10834 16.961 9.1701 16.9661 9.23741C17.1496 9.43497 17.3236 9.62785 17.4473 9.77607C17.7944 10.1921 17.8941 10.4678 17.9068 10.6504L17.9079 10.6678C17.9155 10.85 17.8677 10.9661 17.8569 10.9377C17.8461 10.9093 17.8396 10.862 17.7842 10.7028C17.7286 10.5434 17.5694 10.2879 17.3963 10.0732C17.2652 9.91111 17.1302 9.75194 16.9916 9.59566C17.0114 9.89674 17.0298 10.2152 17.0382 10.3898C17.0522 10.6835 17.0122 11.1264 16.9482 11.2954C16.9003 11.4213 16.8672 11.4312 16.8695 11.3746C16.8717 11.3179 16.8838 10.9916 16.8646 10.7321C16.8452 10.4717 16.8084 9.85104 16.7702 9.35511C16.7224 9.30524 16.6759 9.25781 16.6319 9.21531C16.5039 9.09202 16.2929 8.86679 16.0899 8.64477C16.1108 8.8036 16.1288 8.95017 16.1382 9.05545C16.1672 9.38309 16.2184 9.69252 16.2358 9.99503C16.2509 10.2601 16.2639 10.5586 16.1848 10.8498C16.1385 11.0201 16.0318 11.1635 15.8235 11.2553C15.6149 11.3471 15.3367 11.3796 15.1638 11.2219C15.0657 11.1322 15.0177 11.025 14.9771 10.9408C14.9597 10.9041 14.9321 10.8713 14.8952 10.8483C14.8864 10.8428 14.8775 10.8379 14.8686 10.8339C14.8552 10.9616 14.8357 11.0727 14.8106 11.1402C14.7634 11.2664 14.7193 11.2762 14.7216 11.2194C14.723 11.1791 14.7289 11.0032 14.7249 10.8118C14.6982 10.8145 14.6804 10.82 14.6804 10.82C14.6171 10.8445 14.5518 10.8851 14.4889 10.9367C14.3251 11.0704 14.158 11.4296 14.0592 11.6187C13.9614 11.8056 13.8496 11.9626 13.6951 11.9739C13.5114 11.9875 13.3413 11.8484 13.2226 11.6146C13.1959 11.562 13.1743 11.5049 13.1564 11.446L13.1184 11.4661C12.7657 11.6418 12.1053 11.8058 11.9845 11.8413C11.8643 11.8765 11.8132 11.86 11.9552 11.7894C12.1975 11.6692 12.713 11.4444 13.1032 11.1973C13.0873 11.0777 13.0835 10.9662 13.0864 10.8858C13.0924 10.7116 13.1012 10.5704 13.1537 10.565C13.1997 10.5887 13.1465 10.8343 13.1955 11.1366C13.5133 10.9222 13.6038 10.8091 13.6593 10.7074C13.6809 10.6411 13.706 10.5223 13.7006 10.3569C13.684 9.84949 13.5554 9.163 13.4971 8.78509C13.4198 8.2843 13.3317 7.6041 13.3235 7.51142C13.3155 7.41898 13.2889 7.39448 13.2508 7.34283C13.2354 7.31453 13.3632 7.05581 13.381 7.06014Z" fill="#F5F7F8"/>
<path d="M9.5312 11.1351C9.56815 11.0923 9.54525 11.1693 9.4954 11.2512L9.48509 11.2677C9.44387 11.3311 9.35826 11.4269 9.31582 11.5406C9.26889 11.6667 9.34554 11.7503 9.41185 11.7472C9.44406 11.7453 9.48081 11.6584 9.51276 11.6372C9.5491 11.6187 9.52277 11.7288 9.45308 11.812C9.38034 11.8989 9.29717 11.9503 9.2225 11.8881C9.16261 11.8382 9.14126 11.7286 9.2084 11.5828C9.27577 11.4368 9.44299 11.2376 9.5312 11.1351Z" fill="#F5F7F8"/>
<path d="M17.7929 7.07658C17.8097 7.08396 17.8176 7.11864 17.8526 7.17836C17.9268 7.30444 18.0493 7.51946 18.0853 7.57721C18.1384 7.66202 18.1514 7.76133 18.1222 7.76688C18.0657 7.75399 17.959 7.59736 17.9502 7.66305C17.9414 7.73161 17.9785 8.02254 18.0153 8.34306C18.0523 8.66401 18.1975 9.61994 18.1998 9.97499C18.2022 10.3521 18.1888 10.6453 18.0153 10.9906C17.8748 11.27 17.6896 11.4616 17.4044 11.5761C17.1006 11.6977 16.475 11.8032 16.3541 11.8362C16.2329 11.869 16.1868 11.8589 16.3259 11.7837C16.5499 11.6631 17.0713 11.4827 17.4619 11.2661C17.809 11.0738 17.9025 10.9805 17.9622 10.877C17.9854 10.8111 18.005 10.653 18.0039 10.4874C18.0001 9.97988 17.8936 9.16349 17.845 8.78458C17.7804 8.28232 17.7298 7.61964 17.724 7.52684C17.7182 7.43415 17.6925 7.40921 17.6556 7.35671C17.6409 7.32809 17.7755 7.07082 17.7929 7.07658Z" fill="#F5F7F8"/>
<path fill-rule="evenodd" clip-rule="evenodd" d="M6.57603 7.04061C6.61179 7.0568 6.78226 7.4482 6.83211 7.5474C6.88199 7.64615 6.92098 7.75659 6.88311 7.77459C6.87184 7.77977 6.80611 7.71304 6.76863 7.67487C6.73124 7.63669 6.70675 7.62245 6.70461 7.65894C6.70252 7.70486 6.71559 7.80235 6.72252 7.88509C6.73052 7.98021 6.84255 8.82972 6.85381 8.9285C6.87521 9.1148 6.90714 9.41147 6.93519 9.69023C7.10518 9.65711 7.20188 9.5415 7.26125 9.4466C7.33389 9.33053 7.36773 9.28174 7.42021 9.22764C7.47267 9.17372 7.50353 9.156 7.50213 9.21685C7.50046 9.27784 7.45112 9.32357 7.44354 9.37361C7.43579 9.42352 7.47577 9.49768 7.60684 9.53809C7.73793 9.57851 7.89414 9.57482 7.96817 9.51136C7.96359 9.46691 7.87367 9.37666 7.87268 9.37567C7.87313 9.37428 7.96823 9.07613 7.97251 9.04415C8.01202 9.07222 8.12144 9.17521 8.08373 9.43067C8.04606 9.68654 7.99838 9.79699 7.85207 9.85831C7.73392 9.90772 7.35087 9.87626 7.28132 9.64552C7.20431 9.71982 7.17001 9.89441 6.96394 9.98475C6.97454 10.0976 6.9832 10.1967 6.98836 10.27C7.00997 10.5635 6.99206 11.0073 6.93248 11.1772C6.88781 11.304 6.84411 11.3148 6.84513 11.2579C6.84591 11.2012 6.84983 10.8749 6.82397 10.6159C6.81128 10.4897 6.79023 10.2765 6.76592 10.0341C6.44812 10.0642 6.29097 9.83271 6.35685 9.61828C6.26046 9.62963 5.9731 9.78384 5.7324 9.87681C5.74366 10.0501 5.74195 10.2203 5.71069 10.3677C5.6772 10.5247 5.64568 10.6184 5.5756 10.746L5.56096 10.7722C5.45911 10.91 5.31822 11.0433 4.66686 11.4224C4.01531 11.8015 3.22949 11.9403 2.77234 11.5756C2.29456 11.1944 2.51526 10.5607 2.6519 10.2551C2.68082 10.1907 2.71419 10.1283 2.75172 10.068C2.63734 10.1209 2.52028 10.1736 2.4197 10.2202C2.34859 10.2531 2.28504 10.2829 2.23686 10.3075C2.21134 10.3176 2.16857 10.326 2.23686 10.2808C2.30513 10.2357 2.65248 10.0512 2.7973 9.96728L2.84667 9.93849C2.88233 9.89872 2.90886 9.88214 2.91557 9.89789C3.09711 9.79043 3.3939 9.60744 3.51941 9.48258C3.47521 9.4558 3.42789 9.42592 3.37726 9.39315C3.32648 9.35988 3.3058 9.32244 3.30619 9.2811C3.30667 9.24333 3.32017 9.20652 3.34471 9.17676C3.39817 9.11186 3.52218 9.00597 3.61706 9.04415C3.70195 9.0785 3.70318 9.2328 3.63768 9.38749C3.69981 9.42328 3.75158 9.45341 3.76246 9.46562C3.78554 9.51483 3.7263 9.61578 3.71363 9.63421C3.71268 9.63226 3.68504 9.57676 3.61761 9.53963C3.59999 9.52988 3.58117 9.51967 3.56173 9.50828C3.48965 9.60122 3.37572 9.72189 3.23675 9.81822C3.1396 9.96866 3.0014 10.1859 3.00563 10.4037C3.01139 10.69 3.18645 10.9754 3.76083 10.9228C4.33519 10.8701 5.10251 10.3219 5.19529 10.2191C5.19379 10.1673 5.18067 10.1103 5.16002 10.0531C5.01351 10.0834 4.87152 10.0973 4.73793 10.084C4.44539 10.0549 4.36462 9.94124 4.35762 9.8028C4.34712 9.597 4.59048 9.31521 4.81335 9.30268C5.0315 9.29042 5.18914 9.46912 5.28426 9.66299C5.29465 9.68449 5.30308 9.70799 5.31085 9.73187C5.37229 9.71788 5.43332 9.70229 5.49368 9.68458C5.46499 9.43458 5.43367 9.19622 5.41447 9.01382L5.38246 9.00508C5.07082 8.90588 4.91052 8.55818 4.89798 8.33535C4.88714 8.42315 4.84235 8.5974 4.74661 8.76351C4.65087 8.9295 4.38653 9.16874 3.99738 9.1012C3.60827 9.03368 3.52574 8.64328 3.56118 8.35283C3.59675 8.06241 3.70777 7.81409 3.69085 7.73706C3.56968 7.77072 3.35564 8.45438 3.30782 8.60828C3.25987 8.76241 3.12416 9.10503 2.96982 9.14026C2.81546 9.17545 2.63912 9.07298 2.5358 8.79743C2.43226 8.52179 2.46136 8.25815 2.49077 8.09326C2.53834 7.82609 2.61594 7.79142 2.58245 7.96168C2.56897 8.02986 2.539 8.29494 2.58842 8.49623C2.63781 8.69737 2.72418 8.83654 2.88465 8.84729C3.04511 8.85821 3.14868 8.66099 3.21342 8.46642C3.27837 8.27188 3.32914 7.9856 3.44345 7.75454C3.55768 7.52379 3.69051 7.38165 3.75541 7.35722C3.82037 7.33291 3.84834 7.35343 3.85144 7.50063C3.85445 7.64788 3.62425 8.27166 3.72774 8.52039C3.83132 8.76887 4.25068 8.8323 4.53014 8.67304C4.80984 8.51382 4.82931 8.28243 4.83233 8.04597C4.83543 7.80952 4.74492 7.53646 4.71569 7.4554C4.71843 7.44677 4.80544 7.17299 4.82528 7.12747C4.90938 7.20213 4.98042 7.34279 5.01408 7.4811C5.07383 7.72577 5.07547 8.01821 5.09221 8.17704C5.11616 8.4048 5.18233 8.54061 5.37595 8.63552C5.32941 8.17935 5.27552 7.66132 5.27179 7.55563C5.26711 7.42298 5.2192 7.37747 5.20071 7.34797C5.20654 7.3003 5.29942 7.06683 5.3179 7.07453C5.35417 7.09006 5.56149 7.5061 5.61358 7.60445C5.66561 7.70275 5.68815 7.78534 5.66187 7.7936C5.64971 7.79737 5.59116 7.74318 5.55282 7.70571C5.51464 7.66819 5.48662 7.66305 5.48554 7.69954C5.48416 7.74562 5.48494 7.8338 5.49368 7.91645C5.51637 8.13031 5.55893 8.43253 5.59242 8.69258C5.78813 8.69841 5.98607 8.60005 6.07311 8.54198C6.06539 8.46356 5.94365 8.17811 5.88647 8.02953C5.82958 7.88106 5.7785 7.61431 5.77526 7.55306C5.77227 7.49227 5.72904 7.4286 5.69225 7.40554C5.69836 7.36775 5.79181 7.12072 5.80184 7.10691C5.81898 7.08481 6.05157 7.41864 6.09481 7.46876C6.13822 7.51878 6.15034 7.59206 6.11488 7.58544C6.0624 7.57058 5.97876 7.49486 5.98196 7.52993C5.98511 7.56499 6.00384 7.63524 6.03947 7.73655C6.07482 7.83793 6.22302 8.15687 6.21688 8.33124C6.21072 8.50536 6.14761 8.73272 6.05737 8.84318C5.98506 8.93146 5.82638 9.02403 5.63257 9.03592L5.6342 9.05288C5.64785 9.20564 5.68173 9.40559 5.70744 9.61571C5.80005 9.58323 5.89184 9.54845 5.9825 9.51136C6.27736 9.39105 6.48886 9.27895 6.52449 9.29909C6.5414 9.318 6.5059 9.40173 6.50116 9.4759C6.49707 9.54168 6.54664 9.65695 6.7312 9.69023C6.69914 9.38208 6.66506 9.06869 6.63734 8.84626C6.63342 8.81407 6.59297 8.53731 6.56247 8.24592C6.52766 7.91616 6.50286 7.56748 6.50225 7.52993C6.50058 7.39719 6.45384 7.35037 6.43606 7.32073C6.44288 7.27333 6.55724 7.03353 6.57603 7.04061ZM2.85155 10.0218C2.75729 10.183 2.61109 10.4691 2.63942 10.8488C2.6765 11.346 3.28805 11.5968 3.91491 11.4347C4.5417 11.2725 5.24909 10.873 5.5577 10.5301C5.55681 10.3565 5.54187 10.1556 5.52189 9.95186C5.46401 9.97146 5.40551 9.98954 5.34666 10.0063C5.34577 10.0548 5.34204 10.1026 5.33472 10.1472C5.32354 10.2155 5.29321 10.2761 5.27179 10.3219C5.21983 10.4333 5.18148 10.4879 5.12367 10.5486C4.9337 10.717 4.26424 11.1634 3.76897 11.2255C3.26872 11.2885 2.97302 11.0935 2.90038 10.7717C2.83621 10.4876 2.9327 10.1524 3.09678 9.902C3.02656 9.93868 2.94146 9.97966 2.85155 10.0218ZM4.83071 9.6193C4.69976 9.55366 4.59666 9.65331 4.59037 9.68972C4.58414 9.72623 4.59928 9.78317 4.93108 9.78172C4.95569 9.78152 4.98102 9.78094 5.00649 9.77915C4.94875 9.70586 4.8861 9.6472 4.83071 9.6193ZM3.5167 9.17059C3.4826 9.17662 3.45227 9.19484 3.4288 9.21376C3.41057 9.22844 3.41386 9.24941 3.4364 9.26516C3.47729 9.29389 3.53393 9.3274 3.58885 9.35922C3.61782 9.23684 3.58881 9.15801 3.5167 9.17059Z" fill="#F5F7F8"/>
<path d="M16.4067 10.9968C16.4915 10.9766 16.4979 11.1178 16.4903 11.1515C16.4823 11.1853 16.4213 11.2656 16.4056 11.2543C16.3901 11.2421 16.3975 11.1421 16.3514 11.1443C16.3051 11.1471 16.1765 11.2161 16.1626 11.262C16.1673 11.3229 16.3136 11.3972 16.4203 11.3931C16.5268 11.3888 16.698 11.2414 16.7246 11.2559C16.7508 11.2707 16.6628 11.407 16.6628 11.407C16.5764 11.4556 16.1069 11.6951 16.053 11.737C16.0745 11.6372 16.1213 11.5874 16.1213 11.5874C16.1645 11.5471 16.2323 11.5161 16.2402 11.5134C16.1488 11.4781 16.0239 11.4135 16.047 11.3391C16.0701 11.265 16.2724 11.0292 16.4067 10.9968Z" fill="#F5F7F8"/>
<path d="M6.23749 10.0922C6.28931 10.0152 6.26389 10.1595 6.19355 10.3039C6.14274 10.4085 6.02914 10.5704 5.9863 10.7532C5.93914 10.9556 6.07473 11.0731 6.17673 11.058C6.22632 11.0503 6.26549 10.9094 6.31073 10.8719C6.36306 10.8372 6.34475 11.0127 6.25377 11.1525C6.15867 11.2983 6.04004 11.3902 5.91197 11.3057C5.80926 11.2376 5.75372 11.0709 5.82842 10.8344C5.90304 10.598 6.12154 10.2646 6.23749 10.0922Z" fill="#F5F7F8"/>
<path d="M12.2428 7.0771C12.2795 7.09344 12.46 7.48035 12.5124 7.57824C12.5651 7.67637 12.6069 7.78589 12.5694 7.8044C12.558 7.81007 12.4906 7.7445 12.4522 7.70725C12.4138 7.67001 12.3892 7.65592 12.3882 7.69235C12.3869 7.73832 12.403 7.83584 12.412 7.9185C12.4227 8.01406 12.5572 8.86084 12.571 8.95882C12.5766 8.99849 12.5827 9.04319 12.5895 9.09143C12.7641 9.24796 12.9428 9.41538 13.0946 9.57561C13.4923 9.99465 13.5584 10.1194 13.6067 10.4129C13.6365 10.5935 13.6097 10.7798 13.5855 10.7588C13.5576 10.7344 13.5647 10.6102 13.4966 10.4545C13.4003 10.2344 13.2422 10.0796 13.0544 9.87476C12.9522 9.7632 12.8004 9.61428 12.6399 9.46408C12.6813 9.77662 12.7243 10.1157 12.7425 10.2967C12.7716 10.5898 12.765 11.0335 12.7099 11.205C12.6688 11.3325 12.6259 11.3444 12.6253 11.2877C12.6246 11.2309 12.6195 10.9046 12.5867 10.6463C12.5535 10.3839 12.4741 9.74892 12.4055 9.25026C12.3511 9.20174 12.2961 9.15374 12.2406 9.10634C11.9688 8.87483 11.5987 8.5369 11.3829 8.32816C11.194 8.14571 10.9595 7.86891 10.8756 7.7715L10.849 7.74169C10.8072 7.69525 10.7501 7.659 10.7177 7.65637C10.71 7.62494 10.6985 7.37561 10.7118 7.36699C10.7385 7.34951 10.8028 7.41023 10.9326 7.48315C11.0621 7.55618 11.2362 7.65972 11.3042 7.69954C11.3717 7.73914 11.3993 7.77739 11.4046 7.79309C11.4159 7.82619 11.3526 7.80343 11.2814 7.79258C11.2105 7.78183 11.1717 7.7688 11.1762 7.79052C11.197 7.86002 11.6936 8.31917 11.9183 8.51268C12.0146 8.59568 12.173 8.72781 12.3529 8.88327V8.8807C12.3479 8.84829 12.3003 8.57285 12.2618 8.28241C12.2183 7.95336 12.1834 7.60455 12.182 7.56745C12.1768 7.43508 12.1292 7.38912 12.1104 7.35979C12.1163 7.31159 12.2244 7.06926 12.2428 7.0771Z" fill="#F5F7F8"/>
<path d="M3.95072 9.86294C4.03037 9.82253 4.12761 9.94417 4.13844 9.97704C4.12918 10.0382 4.08618 10.1364 4.08527 10.1384C4.06909 10.0867 4.02255 10.0106 3.95994 10.0218C3.89755 10.033 3.86971 10.0894 3.85198 10.1878C3.833 10.2954 3.81484 10.4278 3.79664 10.5162C3.77689 10.6114 3.74694 10.6528 3.72611 10.6519C3.70529 10.6509 3.61148 10.2929 3.527 10.2207L3.51452 10.2659C3.48679 10.2536 3.30912 10.1969 3.29751 10.1878C3.28639 10.1771 3.30846 10.0272 3.36479 9.98064C3.39478 9.95599 3.49961 9.99368 3.58939 10.0968C3.66924 10.1889 3.73533 10.3532 3.75595 10.4448C3.77565 10.4234 3.7885 10.2899 3.80478 10.1826C3.82094 10.0752 3.87087 9.90361 3.95072 9.86294Z" fill="#F5F7F8"/>
<path d="M15.2137 9.53809C15.3312 9.59974 15.4942 9.72049 15.5598 9.91845C15.6168 10.0891 15.6188 10.2721 15.5652 10.4437C15.5423 10.5174 15.5054 10.5439 15.5148 10.4957C15.571 10.3005 15.5417 10.125 15.4703 10.0012C15.3576 9.80608 15.1925 9.72878 15.1925 9.72878L15.2137 9.53809Z" fill="#F5F7F8"/>
<path d="M14.3077 9.553C14.3355 9.50052 14.3295 9.59604 14.2941 9.69383C14.2684 9.76454 14.2057 9.87621 14.191 9.9976C14.1747 10.132 14.2716 10.2011 14.337 10.1857C14.3688 10.1782 14.3843 10.0842 14.4113 10.0572C14.4428 10.0321 14.4431 10.1469 14.3939 10.2428C14.3425 10.3432 14.2717 10.4096 14.1823 10.3615C14.1105 10.3229 14.0628 10.2175 14.0944 10.0593C14.1261 9.9013 14.2444 9.67176 14.3077 9.553Z" fill="#F5F7F8"/>
<path d="M12.1918 9.33352C12.218 9.28748 12.2101 9.37163 12.176 9.4574C12.1513 9.51944 12.0931 9.61654 12.0768 9.72313C12.0589 9.8413 12.1416 9.90428 12.1999 9.89223C12.2279 9.88618 12.2444 9.80411 12.2688 9.7807C12.2972 9.75871 12.2949 9.85998 12.2487 9.94363C12.2004 10.031 12.1365 10.0882 12.0589 10.0439C11.9966 10.0083 11.9571 9.91428 11.9894 9.77556C12.0219 9.63678 12.1327 9.43694 12.1918 9.33352Z" fill="#F5F7F8"/>
<path d="M2.68065 9.33352C2.8392 9.29632 3.16779 9.3225 3.21939 9.34894C3.23203 9.36502 3.23207 9.3957 3.1825 9.45637C3.13265 9.5172 3.00386 9.68046 2.92859 9.71388C2.84871 9.75337 2.68207 9.77788 2.60795 9.79714C2.58249 9.8002 2.59518 9.78272 2.64593 9.75346C2.69695 9.72402 2.9556 9.60055 2.99369 9.5751C2.90251 9.55688 2.65047 9.55057 2.59656 9.56174C2.54343 9.57281 2.52569 9.57502 2.53851 9.54375C2.55118 9.51223 2.63682 9.3616 2.68065 9.33352Z" fill="#F5F7F8"/>
<path fill-rule="evenodd" clip-rule="evenodd" d="M10.9033 8.40577C10.9608 8.30317 11.0856 8.22383 11.1593 8.27162C11.2453 8.32791 11.1851 8.48859 11.1414 8.58155C11.2276 8.63154 11.312 8.67859 11.3259 8.69463C11.3487 8.74377 11.2897 8.84429 11.2771 8.86271C11.2757 8.85996 11.2478 8.80564 11.181 8.76865C11.1417 8.74669 11.1027 8.72382 11.0644 8.70029C10.9977 8.78251 10.8995 8.87998 10.8159 8.94597C10.6956 9.04103 10.4834 9.18607 10.4063 9.23432C10.355 9.26635 10.3235 9.27925 10.3152 9.27647L10.3222 9.29395C10.3823 9.42737 10.4767 9.5489 10.3591 9.69075C10.2704 9.79795 10.0896 9.70166 10.0661 9.61416C10.0455 9.69965 9.98353 9.80442 9.8475 9.79406C9.7818 9.78955 9.73836 9.7409 9.72326 9.66762C9.71246 9.61544 9.71763 9.55007 9.71295 9.48926C9.7111 9.45865 9.70419 9.40558 9.69125 9.36745C9.70836 9.33453 9.71875 9.29659 9.73303 9.26105C9.8034 9.40605 9.71349 9.66202 9.89579 9.65785C9.96394 9.65674 10.016 9.59162 10.026 9.53604C10.0416 9.44572 9.98149 9.30957 9.97934 9.30474C9.97934 9.30474 9.99342 9.24342 10.0146 9.18858C10.0967 9.22027 10.0735 9.42307 10.1437 9.52319C10.1768 9.57156 10.2753 9.62263 10.3396 9.56739C10.292 9.44204 10.161 9.31628 10.2652 9.16134C10.2894 9.13287 10.2805 9.18602 10.313 9.27184L10.3206 9.26105C10.3452 9.23341 10.4858 9.11747 10.6347 8.99943C10.7546 8.904 10.9231 8.7637 11.0145 8.66893C10.9906 8.65403 10.9662 8.63826 10.9407 8.62164C10.8501 8.56268 10.8558 8.49066 10.9033 8.40577ZM11.1083 8.39086C11.0798 8.34923 10.9848 8.35615 10.9396 8.43558C10.9406 8.45817 11.0151 8.50669 11.0986 8.55637C11.1326 8.48831 11.1309 8.42393 11.1083 8.39086Z" fill="#F5F7F8"/>
<path d="M17.1109 8.37647C17.2414 8.44516 17.4222 8.57919 17.495 8.79897C17.5565 8.98265 17.5604 9.17938 17.5064 9.36488L17.501 9.38235C17.4755 9.46415 17.4349 9.49398 17.4451 9.44043C17.5077 9.22355 17.475 9.02858 17.3957 8.89098C17.2723 8.67701 17.0923 8.59048 17.0876 8.58824L17.1109 8.37647Z" fill="#F5F7F8"/>
<path d="M13.0305 8.33638C13.0552 8.28203 13.0549 8.37777 13.0257 8.47721C13.0044 8.5493 12.9491 8.66365 12.9421 8.78561C12.9344 8.92061 13.0357 8.98512 13.1 8.96653C13.1311 8.95722 13.1406 8.86267 13.1656 8.83444C13.1956 8.80763 13.2039 8.92224 13.1607 9.0205C13.1157 9.12318 13.0491 9.19288 12.9568 9.149C12.8827 9.11397 12.8278 9.01123 12.8493 8.85191C12.8708 8.69256 12.9748 8.45784 13.0305 8.33638Z" fill="#F5F7F8"/>
<path d="M15.3412 8.08298C15.3753 8.01893 15.3679 8.13457 15.3249 8.25311C15.2938 8.3389 15.2185 8.47374 15.2007 8.62062C15.1809 8.78333 15.2981 8.86707 15.377 8.84832C15.4155 8.83913 15.4341 8.72583 15.4665 8.69309C15.5049 8.66196 15.5059 8.80147 15.4464 8.9177C15.3841 9.03902 15.2984 9.11897 15.1904 9.06111C15.1034 9.01429 15.0453 8.88692 15.0835 8.69566C15.1218 8.50421 15.2646 8.22664 15.3412 8.08298Z" fill="#F5F7F8"/>
<path d="M9.35163 7C9.43596 7.07464 9.5073 7.21532 9.54097 7.35363C9.60072 7.59819 9.60235 7.8908 9.61909 8.04957C9.64531 8.29805 9.72104 8.43722 9.95872 8.53324C10.1963 8.62893 10.4465 8.53445 10.5577 8.46025C10.5498 8.38178 10.4391 8.09688 10.3819 7.94832C10.3247 7.79973 10.2627 7.53213 10.2598 7.47133C10.2566 7.41051 10.2138 7.34685 10.1768 7.32381C10.1833 7.28542 10.2758 7.04126 10.2864 7.0257C10.3028 7.00237 10.5362 7.33754 10.5794 7.38755C10.6226 7.43764 10.635 7.51044 10.5994 7.50371C10.547 7.48874 10.4638 7.41365 10.4665 7.4482C10.4697 7.48326 10.4884 7.55364 10.524 7.65483C10.5596 7.75633 10.7184 8.07534 10.7123 8.24951C10.7059 8.42385 10.6322 8.65109 10.5419 8.76145C10.4403 8.88566 10.2104 8.97339 9.90935 8.87761C9.59764 8.77841 9.43677 8.43026 9.42433 8.20737C9.41352 8.29499 9.36872 8.46957 9.27296 8.63552C9.17721 8.80177 8.91332 9.04128 8.52426 8.97373C8.13514 8.90616 8.07336 8.52506 8.10869 8.23461C8.14424 7.94415 8.25531 7.75088 8.23835 7.67384C8.11719 7.70804 7.90313 8.33608 7.85532 8.49006C7.80739 8.64411 7.67165 8.98702 7.51733 9.02204C7.36299 9.05722 7.18715 8.95451 7.08384 8.67921C6.98032 8.40344 7.00959 8.13976 7.03881 7.97504C7.06825 7.81036 7.14393 7.77559 7.1305 7.84346C7.11704 7.91175 7.08652 8.17698 7.13593 8.37801C7.1853 8.57907 7.27182 8.71819 7.43215 8.72907C7.59263 8.73981 7.69668 8.54275 7.76146 8.3482C7.82653 8.15364 7.87719 7.92239 7.9915 7.69132C8.1056 7.46054 8.23859 7.31883 8.30345 7.29452C8.36817 7.27014 8.39579 7.29039 8.39894 7.43741C8.40192 7.58462 8.17242 8.14373 8.27579 8.3924C8.37932 8.64106 8.77754 8.70493 9.05703 8.54557C9.33665 8.38625 9.35602 8.15478 9.35922 7.9185C9.36212 7.68205 9.27126 7.40897 9.24203 7.32793C9.2444 7.32046 9.33188 7.04557 9.35163 7Z" fill="#F5F7F8"/>
<path d="M14.1731 8.07836C14.2012 8.02562 14.1951 8.12122 14.1595 8.21919C14.1339 8.28995 14.0712 8.40113 14.0565 8.52244C14.0403 8.65692 14.1371 8.7265 14.2024 8.71108C14.2342 8.70355 14.2495 8.60989 14.2762 8.58258C14.308 8.55698 14.3088 8.67206 14.2594 8.76813C14.2078 8.86847 14.1373 8.93441 14.0478 8.88635C13.976 8.84762 13.9283 8.74258 13.9599 8.58464C13.9915 8.42649 14.11 8.19709 14.1731 8.07836Z" fill="#F5F7F8"/>
<path d="M13.037 7.78538C13.054 7.76543 13.0457 7.80769 13.0739 7.87173C13.1131 7.95835 13.1741 8.03713 13.0978 8.12924C13.0401 8.19895 12.9232 8.13629 12.9079 8.07938C12.8946 8.13515 12.8542 8.20311 12.7658 8.19657C12.7231 8.19351 12.6948 8.162 12.6849 8.11433C12.6778 8.0807 12.6811 8.03811 12.6784 7.99869C12.677 7.97881 12.6727 7.94408 12.6643 7.91953C12.6752 7.89797 12.6821 7.87314 12.6915 7.85014C12.7372 7.94443 12.6786 8.11086 12.7972 8.10817C12.8417 8.10729 12.8753 8.06514 12.8819 8.02901C12.8921 7.96941 12.8515 7.87841 12.8515 7.87841C12.852 7.87611 12.861 7.83751 12.8743 7.80286C12.9278 7.82342 12.9123 7.95594 12.9578 8.02079C12.9793 8.05244 13.0437 8.0851 13.0853 8.04906C13.0545 7.96763 12.9695 7.8862 13.037 7.78538Z" fill="#F5F7F8"/>
<path d="M4.08256 7.10537C4.21219 7.18597 4.38553 7.33468 4.42869 7.55306C4.47074 7.76535 4.42423 7.95765 4.34134 8.11125C4.30071 8.18639 4.25204 8.21028 4.2719 8.16008C4.37412 7.96013 4.3699 7.77024 4.30662 7.62964C4.20808 7.41104 4.02864 7.30747 4.02396 7.3048L4.08256 7.10537Z" fill="#F5F7F8"/>
<path d="M8.57309 7.0735C8.69708 7.1386 8.86893 7.26564 8.93822 7.47441C8.99843 7.65454 9.0006 7.84779 8.94418 8.02901C8.91976 8.10676 8.88106 8.13459 8.89102 8.0835C8.95026 7.87761 8.91914 7.69287 8.84382 7.56231C8.72699 7.3597 8.55699 7.27715 8.55139 7.27447L8.57309 7.0735Z" fill="#F5F7F8"/>
<path fill-rule="evenodd" clip-rule="evenodd" d="M7.66327 7.03906C7.71906 7.05886 7.78757 7.13844 7.83091 7.19121C7.88212 7.25413 7.91678 7.30699 7.89059 7.38858C7.86438 7.4698 7.82425 7.45413 7.79402 7.44306C7.7739 7.43555 7.74111 7.41625 7.69419 7.39783C7.67851 7.42249 7.65393 7.44328 7.62637 7.46979C7.55455 7.53894 7.40776 7.64298 7.25148 7.72884C7.09477 7.8153 6.9491 7.87739 6.90155 7.89794C6.87961 7.90594 6.87522 7.89569 6.93193 7.86299C6.98896 7.82991 7.18816 7.71569 7.32852 7.6245C7.42761 7.56034 7.57283 7.46986 7.65079 7.38241L7.61335 7.37213C7.51984 7.34936 7.51217 7.3218 7.51733 7.28475C7.52257 7.25056 7.57326 7.15395 7.63831 7.12284L7.63234 7.12027H7.60033C7.59361 7.12114 7.61636 7.02241 7.66327 7.03906ZM7.74627 7.25494C7.74181 7.27961 7.73535 7.30409 7.72729 7.32793C7.79287 7.35448 7.8306 7.38096 7.86075 7.37881C7.86562 7.36685 7.81689 7.28222 7.75116 7.21125L7.74627 7.25494ZM7.63614 7.18452C7.58283 7.20467 7.55737 7.24147 7.55747 7.25494C7.56816 7.2799 7.60259 7.28811 7.6535 7.30223L7.70179 7.31816L7.71752 7.29041C7.7129 7.22122 7.68951 7.16431 7.63614 7.18452Z" fill="#F5F7F8"/>
<path fill-rule="evenodd" clip-rule="evenodd" d="M2.91774 7.15471C2.92962 7.12805 2.94791 7.05351 3.04035 7.10023C3.13298 7.14719 3.23979 7.21227 3.28558 7.28218C3.33973 7.36457 3.33282 7.44113 3.28286 7.48778C3.25216 7.51658 3.15171 7.48068 3.06477 7.46259L3.05229 7.46054C3.00475 7.52049 2.94074 7.56292 2.86945 7.60805C2.75222 7.68218 2.67216 7.73497 2.66438 7.76739C2.68265 7.79964 2.98758 7.79368 3.21559 7.60086C3.24618 7.57979 3.22286 7.63597 3.17978 7.67384C3.13801 7.71035 2.98016 7.84484 2.79079 7.86556L2.77234 7.8671C2.57476 7.88067 2.56391 7.85244 2.59168 7.77407C2.61945 7.69586 2.70927 7.61995 2.78482 7.5767C2.82676 7.55268 2.90612 7.50505 2.97525 7.4446L2.9351 7.43278C2.90296 7.42108 2.88591 7.40146 2.88248 7.39629C2.87112 7.3785 2.86715 7.35688 2.87217 7.3305C2.87995 7.28957 2.901 7.23997 2.93076 7.20148C2.91117 7.20098 2.90636 7.17954 2.91774 7.15471ZM3.12878 7.2755L3.12173 7.31508C3.11559 7.3395 3.10756 7.36202 3.0984 7.38241C3.17016 7.39984 3.2459 7.415 3.28558 7.42353C3.29152 7.37454 3.19135 7.29292 3.12878 7.2498V7.2755ZM3.08592 7.30634C3.05896 7.23081 3.02789 7.20711 2.97525 7.23592C2.9345 7.25828 2.88973 7.29316 2.93564 7.32793C2.94883 7.3383 3.00697 7.35754 3.04795 7.36956C3.06328 7.3501 3.07585 7.32867 3.08592 7.30634Z" fill="#F5F7F8"/>
<path d="M10.0276 7.24826C10.0432 7.23162 10.0342 7.26736 10.0553 7.32381C10.0847 7.40001 10.1333 7.47036 10.0629 7.54689C10.0096 7.60462 9.91178 7.54608 9.90175 7.49652C9.88742 7.54394 9.84893 7.60121 9.77317 7.59212C9.73653 7.58782 9.71423 7.55951 9.70807 7.5181C9.7038 7.4886 9.70885 7.45196 9.70807 7.41788C9.70805 7.4005 9.7055 7.37107 9.69939 7.34951C9.70998 7.33159 9.71745 7.31029 9.72652 7.29092C9.76133 7.37375 9.70258 7.51488 9.80464 7.51708C9.84318 7.51802 9.87439 7.48275 9.88168 7.4518C9.89326 7.40163 9.86434 7.32417 9.86323 7.32124C9.86356 7.32012 9.87264 7.28682 9.88602 7.257C9.93103 7.2767 9.91185 7.39043 9.94787 7.4482C9.96498 7.47599 10.0182 7.50659 10.0558 7.4775C10.0333 7.4061 9.96439 7.33235 10.0276 7.24826Z" fill="#F5F7F8"/>
<path d="M11.2885 7.06425C11.4471 7.02698 11.7762 7.0534 11.8272 7.07967C11.8398 7.09601 11.8393 7.12648 11.7898 7.18709C11.7397 7.24802 11.6117 7.41115 11.5364 7.4446C11.4564 7.48411 11.2892 7.50792 11.2152 7.52736C11.19 7.53013 11.2032 7.51309 11.2537 7.48367C11.3053 7.45402 11.5617 7.33145 11.601 7.30583C11.512 7.28814 11.2726 7.28174 11.2093 7.29143L11.2038 7.29246C11.1506 7.30353 11.1331 7.30544 11.1458 7.27396C11.1585 7.2425 11.2446 7.09245 11.2885 7.06425Z" fill="#F5F7F8"/>
<path d="M17.0762 7.09252C17.122 7.08646 17.4619 7.06837 17.4967 7.09766C17.5179 7.11605 17.4326 7.26115 17.361 7.33923C17.3307 7.36922 17.3032 7.40537 17.2623 7.42867C17.1994 7.45462 17.0008 7.50105 16.9926 7.48469C16.9949 7.46008 17.2929 7.32821 17.3377 7.2683C17.2702 7.25523 17.0212 7.26701 16.9905 7.27807C16.9603 7.28915 16.942 7.29281 16.9558 7.25957C16.9701 7.22585 17.0462 7.09665 17.0762 7.09252Z" fill="#F5F7F8"/>
<path d="M12.6757 7.08892C12.8033 7.05887 13.068 7.07988 13.1097 7.10126C13.1199 7.11429 13.1199 7.13898 13.0799 7.18812C13.0396 7.23711 12.9365 7.36818 12.8759 7.39526C12.8116 7.42725 12.6768 7.44659 12.6171 7.46208C12.5966 7.46446 12.6069 7.45077 12.6481 7.42713C12.6893 7.40318 12.8971 7.30359 12.928 7.28321C12.8543 7.26854 12.651 7.26398 12.6079 7.27293C12.5651 7.28189 12.5508 7.28329 12.5612 7.25802C12.5715 7.23273 12.6402 7.11184 12.6757 7.08892Z" fill="#F5F7F8"/>
<path d="M13.8172 7.07504C13.9447 7.04515 14.1887 7.06599 14.2301 7.08738C14.2405 7.10024 14.2404 7.12481 14.2002 7.17373C14.1601 7.22272 14.0885 7.35422 14.0277 7.38138C13.9634 7.4132 13.8183 7.43319 13.7586 7.44871C13.7381 7.45107 13.7481 7.43697 13.789 7.41325C13.8302 7.38953 14.0381 7.2898 14.0689 7.26933C13.9997 7.25561 13.8172 7.25075 13.7592 7.25751L13.7494 7.25905C13.7063 7.26801 13.692 7.26941 13.7022 7.24415C13.7124 7.21892 13.7817 7.09816 13.8172 7.07504Z" fill="#F5F7F8"/>
</g>
</svg>
