<svg width="29" height="20" viewBox="0 0 29 20" fill="none" xmlns="http://www.w3.org/2000/svg">
<mask id="mask0_11482_7185" style="mask-type:alpha" maskUnits="userSpaceOnUse" x="0" y="0" width="29" height="20">
<rect width="29" height="20" fill="#D9D9D9"/>
</mask>
<g mask="url(#mask0_11482_7185)">
<rect width="29" height="20" fill="#005B33"/>
<path d="M22.6461 16H6.35406V14.9715H22.6461V16Z" fill="#F5F7F8"/>
<path fill-rule="evenodd" clip-rule="evenodd" d="M17.126 10.7238C17.2419 10.7786 17.302 10.9965 17.3111 11.0491C17.319 11.0949 17.2919 11.1595 17.2742 11.1936L17.2674 11.2065C17.2507 11.2345 17.2099 11.2456 17.0672 11.2104C16.9238 11.1752 16.839 11.1217 16.839 11.1217C16.839 11.1217 16.8308 11.1627 16.799 11.2606C16.7537 11.3995 16.619 11.556 16.3939 11.7126C16.1915 11.8536 16.0233 11.9544 15.886 12.0156C15.7483 12.0764 15.4038 12.1955 15.3348 12.2176C15.2661 12.2397 15.246 12.2269 15.3146 12.192C15.3835 12.1564 15.5708 12.0392 15.8308 11.9035C16.0906 11.7681 16.4915 11.48 16.6154 11.3599C16.7626 11.2165 16.7871 11.1568 16.8 11.0647C16.8091 11.0013 16.8205 10.9661 16.8296 10.9425L16.8681 10.9431C16.9234 10.7836 17.0107 10.6691 17.126 10.7238ZM17.0735 10.8956C17.017 10.8729 16.9572 10.904 16.9227 10.9754C16.98 11.0032 17.1143 11.043 17.1873 11.0413C17.1758 10.9961 17.1371 10.9216 17.0735 10.8956Z" fill="#F5F7F8"/>
<path d="M21.1227 10.9922C21.2442 10.9595 21.2537 11.189 21.2428 11.2439C21.2317 11.2988 21.1429 11.4306 21.1206 11.4107C21.0985 11.3906 21.109 11.2286 21.0426 11.2327C20.9761 11.237 20.7919 11.3494 20.7718 11.4241C20.7785 11.5232 20.9881 11.6439 21.1414 11.6373C21.2946 11.6306 21.5409 11.3905 21.5792 11.4141C21.6173 11.4378 21.4903 11.6602 21.4903 11.6602C21.3661 11.7396 20.6921 12.1292 20.6142 12.1975C20.6448 12.0371 20.7096 11.9565 20.7114 11.9542C20.7731 11.8886 20.8707 11.8385 20.8825 11.8337C20.7515 11.7763 20.572 11.6705 20.6054 11.5497C20.6389 11.4283 20.9298 11.0448 21.1227 10.9922Z" fill="#F5F7F8"/>
<path fill-rule="evenodd" clip-rule="evenodd" d="M12.8303 7.21875C13.0668 7.44317 13.4464 8.17723 13.6243 9.04632C13.7466 9.64506 13.6836 10.1015 13.9893 10.5452C14.2635 10.9432 14.5851 11.1097 14.7582 11.1825C14.7613 10.7864 14.8782 10.5549 15.064 10.4029C15.2499 10.2513 15.8957 9.99408 16.1423 9.93136C15.9758 9.93137 15.5509 9.94761 15.065 9.96429C14.5786 9.98052 13.88 9.97925 13.7865 9.9827C13.8 9.93788 13.8927 9.52431 13.9045 9.49888L13.9466 9.47712C14.0932 9.20972 14.5951 8.93164 15.0447 8.67746C15.2465 8.56325 15.4757 8.45454 15.6946 8.36217C15.6323 8.27561 15.5797 8.20529 15.5574 8.16574C15.4875 8.04035 15.5473 7.44949 15.847 7.37054C16.0662 7.31228 16.2859 7.44556 16.4896 7.59821C16.6373 7.70911 16.8035 7.83827 16.8567 7.94196C16.8435 8.14566 16.7552 8.42603 16.7054 8.49554C16.6265 8.51841 16.4434 8.55913 16.0882 8.6808C16.098 8.82631 16.0687 8.96784 16.03 9.0106C16.0221 8.92716 15.9844 8.83122 15.9338 8.73438C15.8657 8.75881 15.7927 8.78588 15.7139 8.81585C15.1049 9.04665 14.6785 9.31725 14.4988 9.45592C14.7918 9.45943 15.6703 9.46605 16.1267 9.43973C16.5828 9.4134 17.6097 9.33209 17.7764 9.32199C17.7671 9.38996 17.6173 9.71514 17.5872 9.80804C17.5831 9.80782 17.5151 9.8046 17.4796 9.81752C17.3121 9.93729 16.6894 10.1856 16.0934 10.3767C15.4973 10.5683 15.0212 10.773 14.9179 10.9347C15.0332 11.2285 15.4827 11.3191 15.7029 11.3538L15.7435 11.3599C15.7437 11.3615 15.7937 11.7793 15.7903 11.9135C14.7382 11.8994 14.1785 11.3865 13.9055 11.019C13.6092 10.6196 13.5821 10.1539 13.5484 9.81752C13.5414 9.93968 13.513 10.1987 13.4101 10.433C13.3532 10.5286 13.1302 10.8026 12.744 11.1094C12.3736 11.4036 11.7554 11.8399 11.3121 11.9397C10.8527 12.0427 10.5167 11.8872 10.4964 11.3371C10.4947 11.2918 10.495 11.2462 10.4969 11.2009C10.1235 11.3844 9.73721 11.5497 9.17781 11.6278C8.42231 11.7335 7.87264 11.8192 7.65285 11.8722C7.57745 11.8902 7.52682 11.8973 7.49687 11.8973L7.46672 11.9671C7.38051 12.1356 7.26786 12.2446 7.13604 12.1557C7.0302 12.0843 6.96619 11.8999 7.02686 11.6306C7.08764 11.3611 7.28529 10.9754 7.39081 10.7762C7.43754 10.687 7.42015 10.851 7.35857 11.0167C7.31389 11.1367 7.21087 11.3239 7.17868 11.5313C7.14344 11.7613 7.2842 11.887 7.38457 11.865C7.4335 11.8544 7.46396 11.6937 7.50675 11.649C7.54454 11.6177 7.54972 11.7221 7.51455 11.8443L7.53327 11.8354C8.01284 11.6737 8.69846 11.4561 9.66031 11.0865C9.92802 10.9837 10.2519 10.841 10.5842 10.6814C10.6496 10.4646 10.739 10.2826 10.8114 10.1345C10.7754 10.1398 10.7372 10.1315 10.6976 10.1044C10.5917 10.033 10.5274 9.84888 10.5879 9.5798C10.6487 9.31018 10.8464 8.92405 10.9518 8.72489C10.9986 8.63599 10.9819 8.80017 10.9201 8.96596C10.8754 9.08588 10.7723 9.27322 10.7402 9.48047C10.7049 9.71017 10.8453 9.83554 10.9456 9.81362C10.9946 9.80282 11.0255 9.64267 11.0683 9.59821C11.1182 9.55649 11.1106 9.75413 11.0282 9.91574C11.0025 9.96609 10.9744 10.0108 10.944 10.0469C10.8371 10.2604 10.7565 10.4528 10.7054 10.6228C11.5319 10.2185 12.3808 9.72811 12.549 9.49777C12.5288 9.3405 12.3216 9.02877 12.1783 8.74665C12.0355 8.46446 11.948 8.2409 11.923 8.16071C11.9054 8.10431 11.8694 8.08149 11.8378 8.06138L11.8258 8.0067C11.8427 7.8986 11.8865 7.67979 11.908 7.57757C11.9135 7.5508 11.934 7.54064 11.9615 7.56585C12.0715 7.66569 12.3595 7.92152 12.4341 8.00056C12.527 8.09944 12.549 8.16201 12.5059 8.16574C12.4163 8.16068 12.2641 8.08658 12.2771 8.13951C12.2939 8.2517 12.5075 8.56838 12.6437 8.84208C12.7804 9.11602 12.7838 9.59477 12.5506 9.93471C12.3344 10.2152 11.4119 10.7499 10.8925 11.0039C10.812 11.0434 10.7333 11.0829 10.6549 11.1222C10.6685 11.1851 10.6928 11.2404 10.7282 11.2874C10.9086 11.528 11.4172 11.4919 11.9948 11.154C12.6039 10.7978 13.3348 10.1891 13.4584 9.89844C13.4647 9.79938 13.3364 9.35723 13.1865 8.90848C13.0373 8.46206 12.7434 7.76385 12.7404 7.7567C12.7405 7.75394 12.7511 7.5236 12.8303 7.21875ZM16.3877 8.11775C16.1503 7.89134 15.8351 7.77276 15.6816 7.94196L15.6744 7.95033C15.6782 7.99547 15.8009 8.13276 15.9109 8.27511C16.0961 8.20415 16.2641 8.14884 16.3877 8.11775Z" fill="#F5F7F8"/>
<path d="M19.0731 4.09877C19.0975 4.11028 19.1103 4.16571 19.1626 4.26172C19.274 4.46496 19.4442 4.88668 19.4979 4.97935C19.5771 5.11564 19.5995 5.27685 19.5577 5.28683C19.4762 5.26792 19.3168 5.01536 19.3066 5.12221C19.2958 5.23351 19.389 5.66168 19.4537 6.18304C19.5186 6.70412 19.7639 8.06386 19.7802 8.64174C19.7973 9.25571 19.7288 9.80195 19.5369 10.2863C19.3895 10.6589 19.1879 10.9278 18.9104 11.1339C19.0092 11.3729 19.1694 11.5671 19.3804 11.6027C19.6803 11.6531 19.8116 11.4422 19.9825 11.1278C20.1466 10.8258 20.2885 10.4771 20.5102 10.1557C20.6384 9.97051 20.7692 9.85084 20.896 9.77958L20.947 9.75335L20.9756 9.74498C20.9779 9.74439 20.9805 9.74385 20.9828 9.7433C20.9689 9.55033 20.9375 9.11018 20.9387 9.09877C20.8908 8.41107 20.8248 7.49879 20.7738 6.93973C20.7004 6.13556 20.5984 5.141 20.5908 4.92467C20.5834 4.70859 20.5148 4.63427 20.4879 4.5865C20.4962 4.50838 20.6371 4.11279 20.6636 4.12556C20.7163 4.15205 21.0158 4.81233 21.0915 4.9721C21.1673 5.13171 21.2317 5.28024 21.1778 5.31027C21.161 5.31871 21.0752 5.24246 21.0203 5.18192C20.9653 5.12129 20.9102 5.09863 20.9085 5.15737C20.9067 5.27017 20.9109 5.38329 20.9215 5.49554C20.9738 6.02959 21.0458 6.63651 21.0822 7.07924C21.1233 7.57667 21.1967 8.55757 21.2272 9.09933L21.2413 9.64063C21.2407 9.68299 21.2399 9.72601 21.2387 9.76897C21.3254 9.80783 21.3994 9.8763 21.4445 9.96484C21.4812 10.0367 21.5182 10.1163 21.5579 10.1953C21.6867 10.4503 21.8622 10.5406 22.1818 10.5363C22.5014 10.5317 22.8119 10.3187 22.9638 10.1657C22.9618 9.60145 22.7559 7.86517 22.6986 7.20647C22.6734 6.91784 22.643 6.57211 22.6139 6.23772C22.494 6.08731 22.3749 5.93587 22.2567 5.78404C21.9747 5.421 21.6178 4.88439 21.562 4.80525C21.507 4.72629 21.4207 4.68888 21.3738 4.68415C21.3629 4.63387 21.3457 4.2292 21.3645 4.21261C21.403 4.18414 21.4955 4.28419 21.6822 4.4029C21.8683 4.52155 22.119 4.68962 22.2166 4.75446C22.3141 4.81941 22.353 4.88221 22.3607 4.90737C22.3769 4.96145 22.2811 4.92876 22.1792 4.91127C22.077 4.89351 22.022 4.87178 22.0284 4.90681C22.0469 4.97798 22.3026 5.32688 22.564 5.66016C22.5343 5.30931 22.5121 5.03122 22.5094 4.93917C22.5027 4.72326 22.4348 4.64856 22.408 4.60045C22.4162 4.52326 22.5557 4.11222 22.5822 4.125C22.6347 4.151 22.9287 4.81311 23.0033 4.97321C23.0783 5.13339 23.111 5.2682 23.0735 5.28181C23.0555 5.28763 22.9715 5.19917 22.9165 5.13839C22.8615 5.07723 22.8216 5.06899 22.8203 5.12835C22.8174 5.24605 22.8212 5.36383 22.8317 5.48103C22.8475 5.65042 22.8702 5.85567 22.8952 6.07087C22.9265 6.10784 22.956 6.14216 22.9825 6.17243C23.1354 6.34723 23.5068 6.77845 23.9012 7.25112L23.8976 7.20647C23.8277 6.40214 23.706 5.12549 23.699 4.90904C23.6924 4.69277 23.6241 4.61809 23.5976 4.57031C23.6061 4.49207 23.7392 4.11272 23.766 4.125C23.818 4.15015 24.1004 4.79773 24.1752 4.95815C24.2501 5.11796 24.2828 5.25273 24.2454 5.26674C24.2278 5.27282 24.1432 5.18376 24.0884 5.12277C24.0336 5.06178 23.9935 5.054 23.9917 5.11328C23.9898 5.18816 23.9909 5.33174 24.0031 5.46652C24.0535 6.00082 24.1708 6.9047 24.2054 7.34766C24.2119 7.43372 24.2195 7.5339 24.2267 7.64342C24.4905 7.96522 24.7404 8.2798 24.9182 8.52121C25.4172 9.1986 25.5601 9.64745 25.5785 9.94475L25.5801 9.97321C25.591 10.2696 25.5225 10.4589 25.5068 10.4135C25.4912 10.3672 25.4821 10.2899 25.4023 10.0301C25.3223 9.7706 25.0937 9.35469 24.8449 9.00502C24.6565 8.74107 24.4624 8.48168 24.2631 8.22712C24.2917 8.71741 24.3181 9.23567 24.3302 9.52009C24.3503 9.99848 24.2927 10.7201 24.2007 10.9955C24.1319 11.2005 24.084 11.2167 24.0874 11.1244C24.0906 11.0321 24.1082 10.5007 24.0806 10.0781C24.0527 9.65407 23.9997 8.64354 23.9449 7.83594C23.8762 7.75472 23.8096 7.67749 23.7463 7.60826C23.5623 7.4075 23.2589 7.04026 22.9669 6.67857C22.997 6.93733 23.0231 7.17615 23.0366 7.34766C23.0783 7.88115 23.1514 8.38464 23.1764 8.87723C23.1981 9.30895 23.2167 9.79519 23.1031 10.2695C23.0365 10.5468 22.8831 10.78 22.5837 10.9297C22.2838 11.0791 21.884 11.1325 21.6354 10.8756C21.4944 10.7295 21.4254 10.5551 21.3671 10.418C21.342 10.3583 21.3025 10.3048 21.2496 10.2673C21.2369 10.2584 21.2239 10.2505 21.2111 10.2439C21.1919 10.4519 21.164 10.6328 21.1279 10.7427C21.0601 10.9483 20.9967 10.9643 21 10.8717C21.0021 10.8061 21.0106 10.5194 21.0047 10.2076C20.9676 10.2119 20.9431 10.2201 20.9407 10.221C20.8498 10.2609 20.7561 10.3274 20.6657 10.4113C20.4302 10.6289 20.1901 11.2143 20.048 11.5223C19.9075 11.8267 19.7461 12.0816 19.5239 12.0999C19.2598 12.1219 19.016 11.8961 18.8454 11.5156C18.8071 11.43 18.776 11.337 18.7503 11.2411L18.6957 11.2734C18.1886 11.5597 17.2384 11.8268 17.0652 11.8845C16.8923 11.9419 16.8188 11.9153 17.0231 11.8002C17.3713 11.6045 18.1127 11.238 18.6738 10.8354C18.6509 10.6405 18.6452 10.4591 18.6494 10.3281C18.6579 10.0445 18.6702 9.81479 18.7456 9.8058C18.8124 9.84294 18.7359 10.2434 18.8064 10.7366C19.2632 10.3876 19.3932 10.2035 19.473 10.0379C19.504 9.92986 19.5401 9.7365 19.5322 9.46708C19.5085 8.64078 19.3238 7.5228 19.24 6.90737C19.1289 6.09216 19.0018 4.98541 18.99 4.83371C18.9785 4.68285 18.9409 4.64224 18.886 4.55804C18.8642 4.51081 19.049 4.08722 19.0731 4.09877Z" fill="#F5F7F8"/>
<path d="M13.5385 10.7344C13.5917 10.6646 13.5592 10.7901 13.4875 10.9235L13.4724 10.9503C13.4132 11.0536 13.2901 11.2098 13.2291 11.3951C13.1618 11.6003 13.2716 11.7365 13.3669 11.7316C13.4132 11.7288 13.466 11.5864 13.512 11.5519C13.5642 11.5217 13.5269 11.7015 13.4267 11.8371C13.3222 11.9786 13.2023 12.062 13.095 11.9609C13.0089 11.8796 12.9781 11.7009 13.0747 11.4632C13.1716 11.2255 13.4117 10.9013 13.5385 10.7344Z" fill="#F5F7F8"/>
<path d="M25.4153 4.125C25.4394 4.13712 25.4509 4.19361 25.501 4.29074C25.6078 4.49613 25.7836 4.84633 25.8354 4.94029C25.9117 5.0784 25.9304 5.24041 25.8884 5.24944C25.8072 5.22875 25.6535 4.97276 25.6409 5.0798C25.6281 5.19098 25.6816 5.66512 25.7345 6.1875C25.7876 6.71021 25.9964 8.26734 25.9997 8.84542C26.0031 9.45964 25.9839 9.93699 25.7345 10.4994C25.5325 10.9543 25.2663 11.2661 24.8563 11.4526C24.4196 11.6506 23.5212 11.8224 23.347 11.8761C23.1726 11.9297 23.1062 11.9133 23.3064 11.7907C23.6285 11.5943 24.3776 11.3008 24.939 10.9481C25.4384 10.6345 25.5728 10.4822 25.6586 10.3136C25.692 10.2061 25.7199 9.94912 25.7184 9.67969C25.7129 8.85317 25.5595 7.52392 25.4896 6.90681C25.3968 6.08885 25.3238 5.00939 25.3154 4.85826C25.3071 4.7073 25.2707 4.66645 25.2177 4.58092C25.1967 4.53378 25.3912 4.11319 25.4153 4.125Z" fill="#F5F7F8"/>
<path fill-rule="evenodd" clip-rule="evenodd" d="M9.29064 4.06641C9.34203 4.09279 9.58657 4.73019 9.65823 4.89174C9.73008 5.05284 9.78641 5.2328 9.73154 5.26172C9.71509 5.26974 9.62102 5.16138 9.56724 5.09933C9.51354 5.03722 9.47882 5.01375 9.47573 5.0731C9.47266 5.14782 9.49124 5.30702 9.50121 5.44196C9.51278 5.5974 9.67332 6.98101 9.68942 7.14118C9.72019 7.4446 9.76661 7.92775 9.80693 8.3817C10.0513 8.32773 10.19 8.13893 10.2754 7.98438C10.3798 7.79539 10.4282 7.71588 10.5036 7.62779C10.5791 7.53992 10.6237 7.51136 10.6217 7.61049C10.6192 7.70975 10.5484 7.78408 10.5374 7.86551C10.5262 7.94681 10.5839 8.0681 10.7724 8.13393C10.9609 8.19974 11.1854 8.19319 11.2919 8.08984C11.2852 8.01861 11.1601 7.87575 11.1546 7.86942C11.1546 7.86942 11.2919 7.37915 11.2976 7.32868C11.3541 7.3741 11.5125 7.54208 11.4582 7.95871C11.4041 8.37561 11.335 8.5553 11.1244 8.65513C10.9546 8.73558 10.4046 8.68476 10.3045 8.30915C10.1939 8.43022 10.1445 8.71396 9.84852 8.86105C9.86374 9.04468 9.87594 9.20589 9.88336 9.32534C9.91443 9.80324 9.88843 10.5263 9.80277 10.803C9.73854 11.0096 9.67594 11.0269 9.67746 10.9342C9.67859 10.8414 9.68398 10.31 9.64679 9.88839C9.62854 9.68266 9.59855 9.33567 9.5636 8.94085C9.10662 8.99005 8.88028 8.61322 8.97504 8.26395C8.83634 8.28259 8.42405 8.53391 8.07816 8.68527C8.09436 8.96755 8.09142 9.24494 8.04644 9.48493C7.99829 9.74075 7.95276 9.89315 7.85199 10.101L7.83119 10.1429C7.68476 10.3674 7.48267 10.585 6.54592 11.2026C5.60932 11.82 4.47968 12.0459 3.82252 11.452C3.1358 10.8314 3.45296 9.79969 3.64938 9.3019C3.69104 9.19685 3.73932 9.0944 3.7934 8.99609C3.62885 9.08235 3.46029 9.16847 3.31559 9.24442C3.21342 9.29799 3.12226 9.34663 3.05302 9.38672C3.01633 9.40317 2.95475 9.41683 3.05302 9.34319C3.15115 9.26974 3.65019 8.96931 3.8584 8.83259L3.92911 8.78571C3.98035 8.72092 4.01866 8.69391 4.02841 8.71931C4.28938 8.54432 4.71576 8.24631 4.89618 8.04297C4.8327 7.9994 4.76507 7.9512 4.69236 7.89788C4.61931 7.8437 4.58991 7.78274 4.59046 7.7154C4.5911 7.6539 4.61033 7.59425 4.64557 7.54576C4.72235 7.44011 4.90065 7.26661 5.03708 7.32868C5.15913 7.38464 5.16039 7.63644 5.0662 7.88839C5.15588 7.94692 5.2308 7.99643 5.24609 8.01618C5.27902 8.0964 5.19409 8.26019 5.1759 8.29018C5.17494 8.28796 5.13553 8.19751 5.03812 8.13672C5.01267 8.12076 4.98564 8.10347 4.95753 8.08482C4.85394 8.23619 4.68996 8.43235 4.49011 8.58929C4.35043 8.83433 4.15175 9.18873 4.15788 9.54353C4.1662 10.0098 4.41796 10.4741 5.24349 10.3884C6.06915 10.3025 7.17217 9.41006 7.30554 9.24275C7.30339 9.15839 7.28424 9.06583 7.25459 8.97266C7.04399 9.02199 6.83983 9.0447 6.64783 9.02288C6.22748 8.9755 6.11196 8.79015 6.1019 8.56473C6.0868 8.22958 6.43611 7.77096 6.75649 7.75056C7.07017 7.73047 7.29668 8.02127 7.43344 8.33705C7.44838 8.3721 7.46074 8.41029 7.47192 8.44922C7.56021 8.42644 7.64774 8.40048 7.73448 8.37165C7.69325 7.96467 7.64821 7.5771 7.62062 7.28013L7.57486 7.26563C7.12676 7.10403 6.89607 6.53754 6.87816 6.17467C6.86261 6.31757 6.79803 6.60152 6.6603 6.87221C6.52261 7.14254 6.14284 7.53184 5.58353 7.42188C5.0244 7.31181 4.90558 6.67662 4.95649 6.20368C5.00756 5.73101 5.16718 5.32667 5.14314 5.20089C4.96896 5.25569 4.66128 6.36878 4.59254 6.61942C4.52359 6.87049 4.32836 7.42895 4.1064 7.48605C3.88449 7.54336 3.63101 7.37624 3.48248 6.92746C3.33369 6.47868 3.37576 6.04978 3.41801 5.78125C3.4864 5.34586 3.59822 5.28906 3.55008 5.56641C3.53069 5.67733 3.48734 6.10907 3.55839 6.43694C3.62939 6.76449 3.75355 6.99088 3.98422 7.00837C4.21485 7.02607 4.36378 6.70523 4.45684 6.38839C4.55021 6.07157 4.62369 5.60565 4.78803 5.22935C4.95232 4.85338 5.14297 4.6222 5.23621 4.58259C5.32959 4.54298 5.36955 4.57613 5.37399 4.81585C5.37807 5.05614 5.04753 6.07106 5.19618 6.476C5.345 6.88082 5.94761 6.98381 6.34939 6.72433C6.75145 6.46503 6.7797 6.08876 6.78405 5.70368C6.78849 5.31862 6.65813 4.8742 6.61611 4.74219C6.61745 4.73739 6.74492 4.2821 6.77365 4.20759C6.89457 4.32915 6.99665 4.5582 7.04505 4.78348C7.13102 5.18206 7.13381 5.65871 7.15788 5.91741C7.19234 6.2883 7.28707 6.50951 7.5655 6.66406C7.4986 5.92115 7.42061 5.07727 7.41524 4.90513C7.40852 4.68933 7.34048 4.61501 7.31386 4.56696C7.32222 4.48946 7.45491 4.11046 7.4818 4.12165C7.53391 4.14693 7.83154 4.82382 7.90658 4.98438C7.98132 5.14428 8.01429 5.27914 7.97677 5.29297C7.95946 5.29938 7.87495 5.21066 7.81975 5.14955C7.76487 5.08845 7.72459 5.08007 7.72304 5.13951C7.72105 5.21454 7.72192 5.35815 7.73448 5.49275C7.76709 5.84097 7.82828 6.33269 7.87642 6.75614C8.15779 6.76567 8.4423 6.60575 8.56741 6.51116C8.55633 6.38351 8.38188 5.91951 8.29965 5.67746C8.21774 5.43549 8.14352 4.99989 8.13899 4.90067C8.13469 4.80165 8.07282 4.69824 8.01992 4.66071C8.02871 4.59922 8.16285 4.19779 8.17746 4.17467C8.20103 4.13651 8.53652 4.68249 8.59861 4.76395C8.66098 4.84535 8.67857 4.96428 8.62772 4.95368C8.55228 4.92948 8.43231 4.80618 8.43691 4.86328C8.44145 4.92039 8.46785 5.03484 8.51906 5.19978C8.56986 5.36484 8.78317 5.88398 8.77434 6.16797C8.76555 6.45155 8.67481 6.82173 8.54505 7.00167C8.44116 7.14555 8.21296 7.29708 7.93414 7.31641L7.93622 7.34375C7.95584 7.59251 8.00481 7.91787 8.04176 8.26004C8.17494 8.20714 8.30705 8.15027 8.43743 8.08984C8.86088 7.89408 9.16474 7.71197 9.21629 7.74442C9.2406 7.77523 9.18982 7.91159 9.18301 8.03237C9.17713 8.13949 9.2479 8.32748 9.51317 8.3817C9.46707 7.87968 9.41889 7.369 9.37902 7.0067C9.37339 6.95428 9.31524 6.50405 9.2714 6.02958C9.22135 5.49251 9.18493 4.92441 9.18405 4.86328C9.18165 4.64746 9.11507 4.57117 9.08942 4.52288C9.09917 4.44572 9.2639 4.05393 9.29064 4.06641ZM4.2889 8.726C4.18796 8.78574 4.06564 8.85275 3.93638 8.92132C3.8009 9.18392 3.59101 9.64969 3.63171 10.2679C3.68491 11.0776 4.56381 11.4866 5.46498 11.2227C6.36609 10.9586 7.38287 10.3073 7.82651 9.74888C7.82523 9.46615 7.80427 9.13917 7.77556 8.80748C7.69225 8.83945 7.6081 8.86881 7.52339 8.89621C7.52211 8.97508 7.51676 9.05304 7.50623 9.12556C7.49017 9.23675 7.44657 9.33504 7.41576 9.4096C7.34099 9.59127 7.28626 9.68068 7.20311 9.77958C6.93012 10.0537 5.96745 10.7804 5.25545 10.8817C4.53633 10.9842 4.11151 10.6663 4.0071 10.1423C3.91493 9.67975 4.05306 9.13369 4.2889 8.726ZM6.78145 8.26618C6.59314 8.15925 6.44463 8.32135 6.43569 8.38058C6.42675 8.44004 6.44904 8.53305 6.92599 8.53069C6.96134 8.53036 6.99756 8.52913 7.03413 8.52623C6.95114 8.40687 6.86107 8.31161 6.78145 8.26618ZM4.89254 7.53571C4.84353 7.54554 4.80044 7.57464 4.76671 7.60547C4.74028 7.62937 4.74468 7.66346 4.77711 7.68917C4.83589 7.73597 4.91704 7.7908 4.996 7.84263C5.03771 7.64313 4.99639 7.51498 4.89254 7.53571Z" fill="#F5F7F8"/>
<path d="M23.4224 10.5089C23.5442 10.4761 23.5533 10.7054 23.5425 10.7606C23.5313 10.8155 23.4431 10.9473 23.4208 10.928C23.3985 10.9082 23.4089 10.7453 23.3423 10.7494C23.2756 10.7541 23.0913 10.8667 23.0714 10.9414C23.0784 11.0404 23.2883 11.1613 23.4416 11.1546C23.5944 11.1477 23.8397 10.9086 23.8789 10.9308C23.9169 10.9544 23.79 11.1769 23.79 11.1769C23.6655 11.2562 22.9914 11.6461 22.9139 11.7143C22.9443 11.5549 23.0089 11.4748 23.0116 11.4715C23.0734 11.4059 23.1708 11.3552 23.1827 11.3504C23.0514 11.293 22.8716 11.1875 22.905 11.0664C22.9384 10.9454 23.2294 10.5615 23.4224 10.5089Z" fill="#F5F7F8"/>
<path d="M8.80398 9.03571C8.8785 8.91032 8.84174 9.14581 8.74055 9.38114C8.6675 9.55141 8.50421 9.81449 8.44263 10.1122C8.37474 10.4418 8.56948 10.6338 8.71611 10.6094C8.78745 10.5973 8.84396 10.3678 8.90901 10.3064C8.98443 10.2493 8.95878 10.5349 8.8279 10.7628C8.69113 11.0005 8.52028 11.1496 8.33604 11.0117C8.18841 10.9007 8.10857 10.6301 8.21594 10.245C8.32317 9.85994 8.6373 9.31649 8.80398 9.03571Z" fill="#F5F7F8"/>
<path d="M17.4364 4.12556C17.4886 4.15065 17.7482 4.78219 17.8237 4.94196C17.8995 5.10187 17.9599 5.28026 17.9059 5.31027C17.8894 5.31933 17.7926 5.21296 17.7374 5.15234C17.6822 5.09165 17.6469 5.06844 17.6454 5.12779C17.6436 5.20266 17.6667 5.36148 17.6797 5.49609C17.6951 5.65163 17.8886 7.03072 17.9085 7.19029C17.9165 7.25488 17.9253 7.32769 17.935 7.40625C18.186 7.66115 18.4427 7.93382 18.6608 8.19475C19.2326 8.87722 19.3276 9.08002 19.3971 9.55804C19.4399 9.85237 19.4017 10.1555 19.3669 10.1211C19.327 10.0808 19.3367 9.87929 19.239 9.62612C19.1006 9.26763 18.8731 9.01594 18.6031 8.68248C18.4562 8.5008 18.238 8.25805 18.0073 8.01339C18.0668 8.52249 18.1284 9.07469 18.1544 9.36942C18.1964 9.84664 18.1873 10.5689 18.1081 10.8482C18.0491 11.0561 17.9868 11.0754 17.986 10.9827C17.9849 10.8902 17.978 10.3588 17.9309 9.93806C17.883 9.51073 17.7689 8.47727 17.6704 7.66518C17.5921 7.58617 17.5131 7.508 17.4333 7.4308C17.0426 7.05384 16.5108 6.50346 16.2005 6.1635C15.9289 5.86634 15.5916 5.41527 15.4711 5.2567L15.4331 5.20815C15.373 5.13248 15.291 5.07349 15.2444 5.0692C15.2332 5.01812 15.2165 4.6117 15.2355 4.59766C15.274 4.56924 15.3663 4.66871 15.5527 4.78739C15.7389 4.90631 15.9894 5.07466 16.0872 5.13951C16.1847 5.20426 16.2238 5.26701 16.2312 5.29241C16.2474 5.3462 16.1567 5.30895 16.0544 5.29129C15.9525 5.2738 15.8972 5.25201 15.9036 5.28739C15.933 5.40005 16.6467 6.14845 16.97 6.46373C17.1083 6.5989 17.3363 6.81426 17.595 7.06752V7.06306C17.5877 7.01035 17.5188 6.5618 17.4634 6.08873C17.4009 5.55286 17.3511 4.98509 17.349 4.92467C17.3416 4.70888 17.2731 4.63427 17.2461 4.5865C17.2542 4.50871 17.4099 4.11301 17.4364 4.12556Z" fill="#F5F7F8"/>
<path d="M5.51698 8.66239C5.63158 8.59689 5.77105 8.79558 5.7863 8.84877C5.77288 8.94919 5.70987 9.11161 5.70987 9.11161C5.68661 9.0274 5.61997 8.90322 5.52997 8.92132C5.44016 8.93965 5.40054 9.03159 5.37503 9.19196C5.34775 9.36725 5.32165 9.58263 5.29548 9.72656C5.26707 9.88175 5.22353 9.94964 5.19358 9.9481C5.16358 9.94608 5.02903 9.36237 4.90762 9.24498L4.88942 9.3192C4.8496 9.2992 4.5952 9.20705 4.57798 9.19196C4.56132 9.1771 4.5926 8.92985 4.67417 8.85379C4.7173 8.81364 4.86846 8.87545 4.99756 9.04353C5.11235 9.19356 5.20761 9.46073 5.23725 9.60993C5.26553 9.57494 5.28301 9.35819 5.3064 9.18359C5.32961 9.00855 5.40203 8.72849 5.51698 8.66239Z" fill="#F5F7F8"/>
<path d="M21.7071 8.13337C21.8761 8.23374 22.1103 8.4305 22.2047 8.75279C22.2867 9.03085 22.2895 9.32914 22.2125 9.60882C22.1796 9.72861 22.127 9.77187 22.1402 9.69364C22.221 9.3757 22.1785 9.08943 22.0757 8.88784C21.9138 8.57021 21.677 8.44364 21.677 8.44364L21.7071 8.13337Z" fill="#F5F7F8"/>
<path d="M20.4047 8.15848C20.445 8.07214 20.436 8.2282 20.3849 8.38784C20.3479 8.50296 20.2584 8.68421 20.2373 8.8817C20.2138 9.10056 20.3529 9.21351 20.4468 9.18862C20.4925 9.1764 20.5147 9.02345 20.5534 8.97935C20.5989 8.93766 20.5998 9.12486 20.5289 9.28125C20.455 9.44481 20.3532 9.5527 20.2248 9.47433C20.1215 9.41139 20.053 9.24022 20.0984 8.9827C20.144 8.72549 20.3137 8.35195 20.4047 8.15848Z" fill="#F5F7F8"/>
<path d="M17.3631 7.80078C17.4008 7.72563 17.3892 7.86251 17.3402 8.00223C17.3046 8.10328 17.2212 8.26121 17.1977 8.43471C17.1719 8.6274 17.2912 8.73011 17.375 8.71038C17.4154 8.7005 17.4391 8.56627 17.4744 8.52846C17.5151 8.49304 17.5115 8.65798 17.4452 8.79409C17.3756 8.93649 17.2835 9.02955 17.1718 8.95703C17.0823 8.89902 17.026 8.74595 17.0724 8.52009C17.1191 8.29419 17.2781 7.96921 17.3631 7.80078Z" fill="#F5F7F8"/>
<path d="M3.69098 7.80078C3.91919 7.74011 4.39243 7.78278 4.46567 7.82589C4.48384 7.85213 4.48362 7.90212 4.41212 8.00112C4.34046 8.10019 4.15585 8.36568 4.04765 8.4202C3.93292 8.48451 3.69312 8.52388 3.58647 8.55525C3.54985 8.56023 3.56805 8.53206 3.64106 8.48438C3.7144 8.43644 4.08596 8.23509 4.14072 8.19364C4.00952 8.16394 3.64691 8.15418 3.56983 8.17243C3.49343 8.19048 3.46819 8.19382 3.48664 8.14286C3.50486 8.09153 3.62796 7.8465 3.69098 7.80078Z" fill="#F5F7F8"/>
<path fill-rule="evenodd" clip-rule="evenodd" d="M15.5111 6.28962C15.5938 6.12255 15.7727 5.99366 15.8787 6.07143C16.0026 6.16309 15.9161 6.42505 15.8532 6.57645C15.9768 6.65768 16.098 6.73321 16.1184 6.75949C16.1515 6.8394 16.0669 7.00401 16.0487 7.03404C16.0482 7.03281 16.0082 6.94198 15.9104 6.88058C15.8539 6.84483 15.798 6.8073 15.743 6.76897C15.6471 6.90293 15.5055 7.06157 15.3853 7.16908C15.2123 7.32389 14.9075 7.55981 14.7967 7.63839C14.7228 7.69071 14.6778 7.71213 14.6657 7.70759L14.6761 7.73549C14.7625 7.95283 14.8976 8.1512 14.7286 8.38225C14.6011 8.55671 14.3417 8.39972 14.308 8.25725C14.2783 8.39658 14.1887 8.56789 13.9929 8.55078C13.8984 8.54341 13.8368 8.46374 13.8151 8.34431C13.7995 8.25933 13.8067 8.15315 13.8 8.05413C13.7973 8.00432 13.7874 7.91811 13.7688 7.85603C13.7934 7.80241 13.8081 7.74037 13.8286 7.68248C13.9299 7.91871 13.8005 8.33531 14.0631 8.32813C14.1612 8.3263 14.2361 8.22062 14.2503 8.13002C14.2731 7.98026 14.1827 7.75335 14.1827 7.75335C14.1827 7.75335 14.2026 7.65351 14.2331 7.56417C14.3514 7.61547 14.3176 7.94684 14.4187 8.10993C14.4662 8.18871 14.6081 8.27132 14.7005 8.18136C14.6322 7.97722 14.4441 7.77244 14.5939 7.52009C14.6286 7.47374 14.6159 7.56004 14.6626 7.69978L14.673 7.68192C14.7086 7.63671 14.9109 7.44822 15.1248 7.25614C15.2972 7.10074 15.5393 6.87252 15.6707 6.71819C15.6363 6.69392 15.6013 6.66824 15.5646 6.64118C15.4344 6.54514 15.4429 6.42789 15.5111 6.28962ZM15.8059 6.26507C15.7648 6.19737 15.628 6.20846 15.5631 6.33761C15.5638 6.37425 15.6713 6.45391 15.7919 6.53516C15.8409 6.42421 15.8384 6.31893 15.8059 6.26507Z" fill="#F5F7F8"/>
<path d="M24.4347 6.24163C24.6222 6.35347 24.8821 6.57188 24.9868 6.92969C25.0751 7.22879 25.0805 7.54894 25.003 7.851L24.9952 7.88002C24.9585 8.01338 24.9002 8.06193 24.9151 7.97433C25.0051 7.62119 24.9578 7.30444 24.8439 7.08036C24.6647 6.72844 24.4029 6.58757 24.4009 6.5865L24.4347 6.24163Z" fill="#F5F7F8"/>
<path d="M18.5688 6.17634C18.6043 6.08812 18.604 6.24435 18.562 6.40625C18.5315 6.52361 18.4521 6.70944 18.4419 6.90792C18.4309 7.12784 18.5762 7.23284 18.6686 7.20257C18.7134 7.18752 18.7272 7.03372 18.7633 6.98772C18.8063 6.94428 18.818 7.13078 18.756 7.29074C18.6913 7.45798 18.5955 7.57152 18.4627 7.5C18.3563 7.44292 18.2779 7.27559 18.3088 7.01618C18.3397 6.75666 18.4887 6.37412 18.5688 6.17634Z" fill="#F5F7F8"/>
<path d="M21.8912 5.76395C21.9401 5.65991 21.9291 5.84828 21.8672 6.04129C21.8226 6.18101 21.714 6.40035 21.6884 6.63951C21.66 6.9045 21.8287 7.04114 21.9421 7.0106C21.9975 6.99556 22.0245 6.81044 22.0711 6.75725C22.126 6.70744 22.1273 6.9338 22.0419 7.12277C21.9522 7.32063 21.8288 7.45132 21.6733 7.35658C21.5483 7.28033 21.4651 7.07316 21.5199 6.76172C21.575 6.44987 21.7811 5.99786 21.8912 5.76395Z" fill="#F5F7F8"/>
<path d="M13.2806 4C13.4018 4.12156 13.5041 4.35065 13.5525 4.57589C13.6384 4.97417 13.6408 5.4506 13.6648 5.70926C13.7025 6.11396 13.8114 6.34082 14.153 6.49721C14.4947 6.65311 14.8548 6.4992 15.0146 6.37835C15.0033 6.2506 14.8435 5.78659 14.7614 5.54464C14.6792 5.30267 14.5903 4.86688 14.5861 4.76786C14.5815 4.66881 14.5197 4.56541 14.4666 4.5279C14.4755 4.46626 14.6092 4.06605 14.6241 4.04185C14.6476 4.00386 14.9837 4.54979 15.0458 4.63114C15.1078 4.71256 15.1256 4.83133 15.0749 4.82087C14.9994 4.79673 14.8792 4.67342 14.8835 4.73047C14.888 4.78759 14.9145 4.90212 14.9657 5.06696C15.0168 5.23231 15.2453 5.75153 15.2366 6.03516C15.2274 6.31907 15.1215 6.68913 14.9917 6.86886C14.8456 7.07121 14.5148 7.2142 14.0818 7.05804C13.6339 6.89649 13.4031 6.33005 13.3851 5.96708C13.3695 6.10987 13.3054 6.39396 13.1678 6.66406C13.0301 6.93483 12.6504 7.32443 12.091 7.21429C11.5316 7.10424 11.4433 6.48362 11.4941 6.0106C11.5452 5.53772 11.7046 5.22309 11.6802 5.09766C11.5061 5.153 11.1984 6.17608 11.1296 6.4269C11.0608 6.67769 10.8658 7.23625 10.644 7.29353C10.4221 7.3509 10.1686 7.18344 10.0201 6.73493C9.87131 6.28594 9.91363 5.85698 9.95563 5.58873C9.99788 5.32032 10.1064 5.26293 10.0872 5.37333C10.0679 5.48401 10.0245 5.91619 10.0955 6.24386C10.1665 6.57149 10.2907 6.79876 10.5213 6.81641C10.752 6.83389 10.9013 6.51268 10.9945 6.19587C11.088 5.87907 11.1609 5.50293 11.3251 5.12667C11.4892 4.75063 11.6806 4.51952 11.7738 4.47991C11.8668 4.44026 11.9071 4.47353 11.9116 4.71317C11.9157 4.95333 11.585 5.86371 11.7338 6.26842C11.8827 6.6732 12.4551 6.77675 12.8568 6.5173C13.2589 6.25783 13.2869 5.8809 13.2915 5.49609C13.2957 5.11102 13.1651 4.66657 13.123 4.5346C13.1242 4.53051 13.2521 4.07429 13.2806 4Z" fill="#F5F7F8"/>
<path d="M20.2113 5.7567C20.2517 5.67065 20.2427 5.82593 20.1915 5.98549C20.1547 6.10079 20.065 6.28225 20.0439 6.47991C20.0206 6.6988 20.1594 6.81179 20.2534 6.78683C20.2991 6.77456 20.3215 6.62179 20.36 6.57757C20.4058 6.53588 20.407 6.72303 20.3361 6.87946C20.2618 7.04309 20.1602 7.15088 20.0314 7.07254C19.9281 7.00956 19.8596 6.83829 19.905 6.58092C19.9505 6.32346 20.1205 5.95012 20.2113 5.7567Z" fill="#F5F7F8"/>
<path d="M18.5787 5.27958C18.603 5.24714 18.5912 5.31539 18.6317 5.41964C18.688 5.56071 18.7757 5.68929 18.666 5.83929C18.5831 5.95297 18.4145 5.85107 18.3926 5.75837C18.3734 5.8492 18.3154 5.95995 18.1882 5.94922C18.1269 5.94423 18.0864 5.89241 18.0723 5.81473C18.0621 5.7599 18.0668 5.69035 18.0629 5.62612C18.0609 5.59371 18.0547 5.53764 18.0426 5.49777C18.0583 5.4627 18.0677 5.42245 18.0811 5.38504C18.1468 5.53858 18.0631 5.809 18.2335 5.80469C18.2974 5.80332 18.3457 5.73469 18.3551 5.67578C18.3698 5.57872 18.312 5.43223 18.3114 5.4308C18.3121 5.42742 18.325 5.36465 18.3442 5.30804C18.4211 5.34146 18.3993 5.55676 18.4648 5.66239C18.4956 5.71394 18.5874 5.76742 18.6473 5.70871C18.6029 5.57614 18.4816 5.44371 18.5787 5.27958Z" fill="#F5F7F8"/>
<path d="M5.70623 4.17188C5.89257 4.30316 6.14176 4.54564 6.2038 4.90123C6.26418 5.24698 6.19719 5.56014 6.07798 5.81027C6.01957 5.93264 5.95013 5.97127 5.97867 5.88951C6.12555 5.56394 6.11903 5.25461 6.02807 5.02567C5.88689 4.67093 5.63042 4.50212 5.622 4.49665L5.70623 4.17188Z" fill="#F5F7F8"/>
<path d="M12.1612 4.11998C12.3394 4.226 12.5867 4.43284 12.6863 4.77288C12.7729 5.06616 12.7757 5.3807 12.6946 5.67578C12.6595 5.80244 12.6044 5.84828 12.6187 5.76507C12.7039 5.42965 12.6589 5.1284 12.5506 4.91574C12.3806 4.5818 12.1323 4.4482 12.13 4.44699L12.1612 4.11998Z" fill="#F5F7F8"/>
<path fill-rule="evenodd" clip-rule="evenodd" d="M10.853 4.06417C10.9332 4.09625 11.0319 4.22537 11.0943 4.31138C11.1679 4.41391 11.2183 4.4999 11.1806 4.63281C11.1429 4.76555 11.0848 4.74014 11.0412 4.7221C11.0123 4.70987 10.9657 4.67842 10.8983 4.64844C10.8757 4.68859 10.8401 4.72246 10.8005 4.76563C10.6972 4.87828 10.486 5.04768 10.2613 5.1875C10.0361 5.3283 9.82693 5.42914 9.75857 5.46261C9.72696 5.4757 9.72017 5.45898 9.80173 5.40569C9.88335 5.35204 10.1701 5.1665 10.3721 5.01786C10.5145 4.91336 10.7237 4.76583 10.8359 4.62333L10.7818 4.60603C10.6474 4.56894 10.6366 4.52463 10.644 4.46429C10.6514 4.4088 10.724 4.25105 10.8177 4.20033L10.8088 4.19587H10.7631C10.753 4.19878 10.7853 4.03704 10.853 4.06417ZM10.9726 4.41574C10.9662 4.45581 10.9571 4.49532 10.9456 4.53404C11.0399 4.57731 11.0941 4.62077 11.1374 4.61719C11.1444 4.59771 11.0744 4.45989 10.9799 4.34431L10.9726 4.41574ZM10.814 4.30078C10.7372 4.33374 10.7007 4.39405 10.7012 4.41574C10.7166 4.45641 10.7662 4.46973 10.8395 4.49275L10.9092 4.51842L10.9315 4.47321C10.9249 4.36043 10.8909 4.26759 10.814 4.30078Z" fill="#F5F7F8"/>
<path fill-rule="evenodd" clip-rule="evenodd" d="M4.03205 4.25223C4.04912 4.20869 4.07509 4.08757 4.20779 4.1635C4.34103 4.24003 4.49452 4.34645 4.5603 4.46038C4.63804 4.59448 4.62842 4.71869 4.55666 4.79464C4.51255 4.84159 4.36815 4.78336 4.24314 4.75391L4.22495 4.75C4.15661 4.84764 4.06485 4.91701 3.96238 4.99051C3.79382 5.11126 3.67825 5.1972 3.66706 5.25C3.6924 5.30272 4.13131 5.29354 4.45944 4.97935C4.5039 4.94435 4.47063 5.03639 4.40848 5.09821C4.3483 5.1578 4.12116 5.37646 3.84904 5.41016L3.82252 5.41239C3.53839 5.43448 3.52306 5.3884 3.56307 5.2606C3.603 5.13329 3.73162 5.01017 3.8402 4.93973C3.90039 4.90068 4.01518 4.82348 4.11472 4.72489L4.05701 4.70536C4.0104 4.68621 3.98533 4.65388 3.98058 4.64565C3.96429 4.61669 3.95883 4.58142 3.96602 4.5385C3.97721 4.47182 4.00744 4.39081 4.05025 4.32813C4.0222 4.3272 4.01572 4.2926 4.03205 4.25223ZM4.33517 4.44866L4.32477 4.51395C4.31593 4.55374 4.30467 4.59011 4.2915 4.62333C4.39474 4.65174 4.50383 4.67641 4.56082 4.69029C4.56961 4.61053 4.42518 4.47764 4.33517 4.40737V4.44866ZM4.27382 4.49944C4.23503 4.37621 4.19045 4.33756 4.11472 4.38449C4.05609 4.42089 3.99153 4.47736 4.05753 4.53404C4.07648 4.55094 4.1598 4.58254 4.21871 4.60212C4.24078 4.57041 4.25933 4.53583 4.27382 4.49944Z" fill="#F5F7F8"/>
<path d="M14.2523 4.40458C14.2747 4.37752 14.2616 4.43598 14.2919 4.5279C14.3341 4.65191 14.4039 4.76606 14.3028 4.89063C14.2262 4.98477 14.0858 4.88989 14.0714 4.80915C14.0508 4.88639 13.9952 4.97965 13.8863 4.96484C13.8337 4.95779 13.8016 4.91119 13.7927 4.84375C13.7866 4.79578 13.7938 4.73676 13.7927 4.68136C13.7927 4.65311 13.7896 4.60447 13.7808 4.5692C13.7959 4.54011 13.8063 4.50575 13.8192 4.47433C13.8691 4.60919 13.7851 4.83834 13.9315 4.84208C13.9869 4.84361 14.0318 4.78646 14.0423 4.73605C14.059 4.65402 14.017 4.52723 14.0158 4.52344C14.0158 4.52344 14.0296 4.46819 14.049 4.41908C14.1137 4.45118 14.0857 4.63583 14.1374 4.72991C14.1619 4.77529 14.2386 4.82507 14.2929 4.77734C14.2605 4.66112 14.1614 4.54146 14.2523 4.40458Z" fill="#F5F7F8"/>
<path d="M16.0648 4.10491C16.2929 4.04425 16.7657 4.08725 16.839 4.13002C16.8571 4.1566 16.857 4.20602 16.786 4.30469C16.7142 4.40366 16.5293 4.66916 16.421 4.72377C16.306 4.78811 16.0662 4.82772 15.9598 4.85938C15.9231 4.86408 15.9416 4.83649 16.0144 4.7885C16.0877 4.74059 16.4585 4.53906 16.514 4.49777C16.3862 4.46896 16.042 4.4591 15.951 4.47489L15.9432 4.47656C15.8666 4.49461 15.8418 4.49771 15.86 4.44643C15.8785 4.39492 16.0018 4.1508 16.0648 4.10491Z" fill="#F5F7F8"/>
<path d="M24.3842 4.15123C24.4488 4.14141 24.9389 4.11182 24.9889 4.1596C25.0192 4.18972 24.8973 4.42534 24.7945 4.55246C24.7509 4.60128 24.7113 4.66009 24.6525 4.6981C24.5624 4.74034 24.2764 4.81628 24.2647 4.78962C24.268 4.74947 24.6968 4.53438 24.7607 4.43694C24.6638 4.41565 24.3062 4.43512 24.2615 4.45313C24.2182 4.47115 24.1915 4.4775 24.2111 4.42355C24.2312 4.36939 24.3409 4.15829 24.3842 4.15123Z" fill="#F5F7F8"/>
<path d="M18.0593 4.14509C18.243 4.09607 18.6242 4.13031 18.6832 4.16518C18.6978 4.18639 18.6979 4.22644 18.6406 4.30636C18.5827 4.38596 18.4335 4.60009 18.3463 4.64397C18.2537 4.69605 18.0603 4.72812 17.9745 4.75335C17.9453 4.75709 17.9602 4.73427 18.0192 4.69587C18.0787 4.65678 18.3773 4.49467 18.4217 4.4615C18.3158 4.4376 18.0237 4.43022 17.9615 4.44475C17.9 4.45933 17.8796 4.46177 17.8945 4.42076C17.9091 4.37967 18.0083 4.18201 18.0593 4.14509Z" fill="#F5F7F8"/>
<path d="M19.7002 4.12221C19.8837 4.07355 20.2345 4.108 20.2934 4.14286C20.3084 4.16381 20.3085 4.20382 20.2508 4.28348C20.193 4.36333 20.0896 4.57767 20.0023 4.62165C19.9098 4.67347 19.7013 4.70518 19.6154 4.73047C19.5859 4.73431 19.6007 4.71172 19.6596 4.67299C19.7192 4.63417 20.018 4.47233 20.062 4.43917C19.9627 4.41675 19.6992 4.40857 19.6159 4.41964L19.6019 4.42188C19.5401 4.43645 19.5201 4.439 19.5348 4.39788C19.5497 4.35645 19.6493 4.15942 19.7002 4.12221Z" fill="#F5F7F8"/>
</g>
</svg>
