<svg width="72" height="72" viewBox="0 0 72 72" fill="none" xmlns="http://www.w3.org/2000/svg">
<mask id="mask0_46_8187" style="mask-type:alpha" maskUnits="userSpaceOnUse" x="0" y="0" width="72" height="72">
<circle cx="36" cy="36" r="36" fill="#D9D9D9"/>
</mask>
<g mask="url(#mask0_46_8187)">
<rect width="72" height="72" fill="#004692"/>
<path d="M72 72V20L20 72H72Z" fill="#009B77"/>
<rect width="5.99999" height="72" transform="matrix(-0.707107 -0.707107 -0.707107 0.707107 71.8506 20.9385)" fill="#FBD381"/>
<path d="M34.3999 4L32.6115 8.04531L28.3999 8.58356L31.5063 11.6221L30.6916 16L34.3999 13.5L38.1082 16L37.2935 11.6221L40.3999 8.58356L36.1883 8.04531L34.3999 4Z" fill="#F5F7F8"/>
<path d="M34.3999 28L32.6115 32.0453L28.3999 32.5836L31.5063 35.6221L30.6916 40L34.3999 37.5L38.1082 40L37.2935 35.6221L40.3999 32.5836L36.1883 32.0453L34.3999 28Z" fill="#F5F7F8"/>
<path d="M21.6115 20.0453L23.3999 16L25.1883 20.0453L29.3999 20.5836L26.2935 23.6221L27.1082 28L23.3999 25.5L19.6916 28L20.5063 23.6221L17.3999 20.5836L21.6115 20.0453Z" fill="#F5F7F8"/>
<path d="M11.3999 28L9.61149 32.0453L5.3999 32.5836L8.50626 35.6221L7.69163 40L11.3999 37.5L15.1082 40L14.2935 35.6221L17.3999 32.5836L13.1883 32.0453L11.3999 28Z" fill="#F5F7F8"/>
<path d="M9.61149 8.04531L11.3999 4L13.1883 8.04531L17.3999 8.58356L14.2935 11.6221L15.1082 16L11.3999 13.5L7.69163 16L8.50626 11.6221L5.3999 8.58356L9.61149 8.04531Z" fill="#F5F7F8"/>
</g>
</svg>
