<svg width="20" height="20" viewBox="0 0 20 20" fill="none" xmlns="http://www.w3.org/2000/svg">
<mask id="mask0_11482_7191" style="mask-type:alpha" maskUnits="userSpaceOnUse" x="0" y="0" width="20" height="20">
<circle cx="10" cy="10" r="10" fill="#D9D9D9"/>
</mask>
<g mask="url(#mask0_11482_7191)">
<rect width="20" height="20" fill="#004692"/>
<path d="M20 20.0001V5.55566L5.55554 20.0001H20Z" fill="#009B77"/>
<rect width="1.66666" height="20" transform="matrix(-0.707107 -0.707107 -0.707107 0.707107 19.9585 5.81616)" fill="#FBD381"/>
<path d="M9.55553 1.11108L9.05874 2.23478L7.88886 2.3843L8.75174 3.22833L8.52545 4.44442L9.55553 3.74997L10.5856 4.44442L10.3593 3.22833L11.2222 2.3843L10.0523 2.23478L9.55553 1.11108Z" fill="#F5F7F8"/>
<path d="M9.55553 7.77775L9.05874 8.90145L7.88886 9.05096L8.75174 9.895L8.52545 11.1111L9.55553 10.4166L10.5856 11.1111L10.3593 9.895L11.2222 9.05096L10.0523 8.90145L9.55553 7.77775Z" fill="#F5F7F8"/>
<path d="M6.00319 5.56812L6.49998 4.44442L6.99675 5.56812L8.16664 5.71763L7.30376 6.56167L7.53004 7.77775L6.49997 7.08331L5.46989 7.77775L5.69618 6.56167L4.8333 5.71763L6.00319 5.56812Z" fill="#F5F7F8"/>
<path d="M3.16664 7.77775L2.66985 8.90145L1.49997 9.05096L2.36285 9.895L2.13656 11.1111L3.16664 10.4166L4.19671 11.1111L3.97043 9.895L4.8333 9.05096L3.66342 8.90145L3.16664 7.77775Z" fill="#F5F7F8"/>
<path d="M2.66985 2.23478L3.16664 1.11108L3.66342 2.23478L4.8333 2.3843L3.97043 3.22833L4.19671 4.44442L3.16664 3.74997L2.13656 4.44442L2.36285 3.22833L1.49997 2.3843L2.66985 2.23478Z" fill="#F5F7F8"/>
</g>
</svg>
