<svg width="29" height="20" viewBox="0 0 29 20" fill="none" xmlns="http://www.w3.org/2000/svg">
<mask id="mask0_11482_7197" style="mask-type:alpha" maskUnits="userSpaceOnUse" x="0" y="0" width="29" height="20">
<rect width="29" height="20" fill="#D9D9D9"/>
</mask>
<g mask="url(#mask0_11482_7197)">
<rect y="-4.3999" width="29" height="28.8" fill="#004692"/>
<path d="M29 20V8.19995L8.05554 20H29Z" fill="#009B77"/>
<rect width="2.40415" height="28.9504" transform="matrix(-0.501071 -0.865406 -0.868387 0.495886 32.7893 7.68066)" fill="#FBD381"/>
<path d="M12.4286 1.19995L11.8111 2.59334L10.3571 2.77873L11.4296 3.82534L11.1483 5.33328L12.4286 4.47217L13.7088 5.33328L13.4276 3.82534L14.5 2.77873L13.046 2.59334L12.4286 1.19995Z" fill="#F5F7F8"/>
<path d="M12.4286 9.46662L11.8111 10.86L10.3571 11.0454L11.4296 12.092L11.1483 13.6L12.4286 12.7388L13.7088 13.6L13.4276 12.092L14.5 11.0454L13.046 10.86L12.4286 9.46662Z" fill="#F5F7F8"/>
<path d="M8.01351 6.72667L8.63095 5.33328L9.24837 6.72667L10.7024 6.91207L9.62994 7.95867L9.91118 9.46662L8.63094 8.60551L7.35071 9.46662L7.63195 7.95867L6.55951 6.91207L8.01351 6.72667Z" fill="#F5F7F8"/>
<path d="M4.4881 9.46662L3.87066 10.86L2.41666 11.0454L3.48909 12.092L3.20785 13.6L4.48809 12.7388L5.76832 13.6L5.48708 12.092L6.55951 11.0454L5.10551 10.86L4.4881 9.46662Z" fill="#F5F7F8"/>
<path d="M3.87066 2.59334L4.4881 1.19995L5.10551 2.59334L6.55951 2.77873L5.48708 3.82534L5.76832 5.33328L4.48809 4.47217L3.20785 5.33328L3.48909 3.82534L2.41666 2.77873L3.87066 2.59334Z" fill="#F5F7F8"/>
</g>
</svg>
