<svg width="72" height="72" viewBox="0 0 72 72" fill="none" xmlns="http://www.w3.org/2000/svg">
<mask id="mask0_46_8664" style="mask-type:alpha" maskUnits="userSpaceOnUse" x="0" y="0" width="72" height="72">
<circle cx="36" cy="36" r="36" transform="rotate(-180 36 36)" fill="#D9D9D9"/>
</mask>
<g mask="url(#mask0_46_8664)">
<rect x="72" width="38" height="72" transform="rotate(90 72 0)" fill="#DD2033"/>
<rect x="72" y="38" width="34" height="72" transform="rotate(90 72 38)" fill="#F5F7F8"/>
<path d="M23.3825 29.2182C24.4479 30.0693 25.6126 30.7081 26.8236 31.1395C23.6252 31.8364 20.1512 31.1391 17.3944 28.9366C12.5375 25.0563 11.7458 17.9733 15.6262 13.1164C18.5461 9.46162 23.2795 8.10876 27.5132 9.31635C25.1448 9.85722 22.9542 11.1573 21.3395 13.1784C17.4592 18.0353 18.3739 25.2166 23.3825 29.2182Z" fill="#F5F7F8"/>
<path d="M36.4078 11.6969L37.6001 9.00004L38.7923 11.6969L41.6 12.0557L39.5291 14.0814L40.0722 17L37.6 15.3334L35.1279 17L35.671 14.0814L33.6 12.0557L36.4078 11.6969Z" fill="#F5F7F8"/>
<path d="M28.4078 17.6969L29.6001 15L30.7923 17.6969L33.6 18.0557L31.5291 20.0814L32.0722 23L29.6 21.3334L27.1279 23L27.671 20.0814L25.6 18.0557L28.4078 17.6969Z" fill="#F5F7F8"/>
<path d="M45.6001 15L44.4078 17.6969L41.6 18.0557L43.671 20.0814L43.1279 23L45.6 21.3334L48.0722 23L47.5291 20.0814L49.6 18.0557L46.7923 17.6969L45.6001 15Z" fill="#F5F7F8"/>
<path d="M31.4078 26.6969L32.6001 24L33.7923 26.6969L36.6 27.0557L34.5291 29.0814L35.0722 32L32.6 30.3334L30.1279 32L30.671 29.0814L28.6 27.0557L31.4078 26.6969Z" fill="#F5F7F8"/>
<path d="M42.6001 24L41.4078 26.6969L38.6 27.0557L40.671 29.0814L40.1279 32L42.6 30.3334L45.0722 32L44.5291 29.0814L46.6 27.0557L43.7923 26.6969L42.6001 24Z" fill="#F5F7F8"/>
</g>
</svg>
