<svg width="29" height="20" viewBox="0 0 29 20" fill="none" xmlns="http://www.w3.org/2000/svg">
<mask id="mask0_11482_7250" style="mask-type:alpha" maskUnits="userSpaceOnUse" x="0" y="0" width="29" height="20">
<rect width="29" height="20" fill="#D9D9D9"/>
</mask>
<g mask="url(#mask0_11482_7250)">
<rect x="29" width="11.2" height="29" transform="rotate(90 29 0)" fill="#DD2033"/>
<rect x="29" y="11.2" width="8.8" height="29" transform="rotate(90 29 11.2)" fill="#F5F7F8"/>
<path d="M9.01519 9.33293C9.44428 9.67338 9.91341 9.92888 10.4012 10.1015C9.11292 10.3802 7.71368 10.1013 6.6033 9.2203C4.64705 7.66816 4.32819 4.83497 5.89111 2.89221C7.0672 1.4303 8.9737 0.889158 10.6789 1.37219C9.72498 1.58854 8.84268 2.10859 8.19231 2.91701C6.62939 4.85978 6.9978 7.73228 9.01519 9.33293Z" fill="#F5F7F8"/>
<path d="M14.2615 2.32442L14.7417 1.24567L15.2219 2.32442L16.3528 2.46795L15.5187 3.27823L15.7374 4.44567L14.7417 3.779L13.7459 4.44567L13.9647 3.27823L13.1306 2.46795L14.2615 2.32442Z" fill="#F5F7F8"/>
<path d="M11.0392 4.72442L11.5195 3.64567L11.9997 4.72442L13.1306 4.86795L12.2965 5.67823L12.5152 6.84567L11.5195 6.179L10.5237 6.84567L10.7425 5.67823L9.90835 4.86795L11.0392 4.72442Z" fill="#F5F7F8"/>
<path d="M17.9639 3.64567L17.4837 4.72442L16.3528 4.86795L17.1869 5.67823L16.9682 6.84567L17.9639 6.179L18.9596 6.84567L18.7409 5.67823L19.575 4.86795L18.4441 4.72442L17.9639 3.64567Z" fill="#F5F7F8"/>
<path d="M12.2476 8.32442L12.7278 7.24567L13.208 8.32442L14.3389 8.46795L13.5048 9.27823L13.7235 10.4457L12.7278 9.779L11.7321 10.4457L11.9508 9.27823L11.1167 8.46795L12.2476 8.32442Z" fill="#F5F7F8"/>
<path d="M16.7556 7.24567L16.2754 8.32442L15.1445 8.46795L15.9786 9.27823L15.7598 10.4457L16.7556 9.779L17.7513 10.4457L17.5326 9.27823L18.3667 8.46795L17.2358 8.32442L16.7556 7.24567Z" fill="#F5F7F8"/>
</g>
</svg>
