<svg width="20" height="20" viewBox="0 0 20 20" fill="none" xmlns="http://www.w3.org/2000/svg">
<mask id="mask0_11482_7245" style="mask-type:alpha" maskUnits="userSpaceOnUse" x="0" y="0" width="20" height="20">
<circle cx="10" cy="10" r="10" transform="rotate(-180 10 10)" fill="#D9D9D9"/>
</mask>
<g mask="url(#mask0_11482_7245)">
<rect x="20" width="10.5556" height="20" transform="rotate(90 20 0)" fill="#DD2033"/>
<rect x="20" y="10.5557" width="9.44444" height="20" transform="rotate(90 20 10.5557)" fill="#F5F7F8"/>
<path d="M6.49517 8.11616C6.79109 8.35259 7.11463 8.53002 7.45102 8.64986C6.56257 8.84346 5.59757 8.64976 4.8318 8.03795C3.48265 6.96007 3.26275 4.99258 4.34063 3.64344C5.15172 2.62823 6.46655 2.25243 7.64258 2.58787C6.98468 2.73812 6.37619 3.09926 5.92766 3.66067C4.84979 5.00981 5.10386 7.0046 6.49517 8.11616Z" fill="#F5F7F8"/>
<path d="M10.1133 3.24914L10.4445 2.50001L10.7757 3.24914L11.5556 3.34882L10.9803 3.91151L11.1312 4.72223L10.4445 4.25927L9.75776 4.72223L9.90862 3.91151L9.33336 3.34882L10.1133 3.24914Z" fill="#F5F7F8"/>
<path d="M7.89106 4.91581L8.22226 4.16668L8.55344 4.91581L9.33336 5.01548L8.75811 5.57817L8.90897 6.3889L8.22225 5.92594L7.53554 6.3889L7.68639 5.57817L7.11114 5.01548L7.89106 4.91581Z" fill="#F5F7F8"/>
<path d="M12.6667 4.16668L12.3355 4.91581L11.5556 5.01548L12.1308 5.57818L11.98 6.3889L12.6667 5.92594L13.3534 6.3889L13.2026 5.57818L13.7778 5.01548L12.9979 4.91581L12.6667 4.16668Z" fill="#F5F7F8"/>
<path d="M8.7244 7.41581L9.05559 6.66668L9.38677 7.41581L10.1667 7.51548L9.59144 8.07817L9.7423 8.8889L9.05559 8.42594L8.36887 8.8889L8.51973 8.07817L7.94447 7.51548L8.7244 7.41581Z" fill="#F5F7F8"/>
<path d="M11.8334 6.66668L11.5022 7.41581L10.7223 7.51548L11.2975 8.07818L11.1466 8.8889L11.8334 8.42594L12.5201 8.8889L12.3692 8.07818L12.9445 7.51548L12.1646 7.41581L11.8334 6.66668Z" fill="#F5F7F8"/>
</g>
</svg>
