<svg width="72" height="72" viewBox="0 0 72 72" fill="none" xmlns="http://www.w3.org/2000/svg">
<mask id="mask0_46_8834" style="mask-type:alpha" maskUnits="userSpaceOnUse" x="0" y="0" width="72" height="72">
<circle cx="36" cy="36" r="36" fill="#D9D9D9"/>
</mask>
<g mask="url(#mask0_46_8834)">
<rect width="72" height="72" fill="#004692"/>
<path d="M40.3999 35H61.3999V43.7432C61.3999 49.8265 57.6915 55.2951 52.04 57.546L50.8999 58L49.7599 57.546C44.1083 55.2951 40.3999 49.8265 40.3999 43.7432V35Z" fill="#F1B434"/>
<circle cx="50.8999" cy="38.5" r="2.5" fill="#FDEFD3"/>
<mask id="mask1_46_8834" style="mask-type:alpha" maskUnits="userSpaceOnUse" x="40" y="42" width="22" height="16">
<rect x="40.3999" y="42" width="21" height="16" fill="#D9D9D9"/>
</mask>
<g mask="url(#mask1_46_8834)">
<path d="M40.3999 35H61.3999V43.7432C61.3999 49.8265 57.6915 55.2951 52.04 57.546L50.8999 58L49.7599 57.546C44.1083 55.2951 40.3999 49.8265 40.3999 43.7432V35Z" fill="#86C5FA"/>
<rect x="40.3999" y="42" width="21" height="2" fill="#31373D"/>
</g>
<mask id="mask2_46_8834" style="mask-type:alpha" maskUnits="userSpaceOnUse" x="40" y="35" width="22" height="23">
<path d="M40.3999 35H61.3999V43.7432C61.3999 49.8265 57.6915 55.2951 52.04 57.546L50.8999 58L49.7599 57.546C44.1083 55.2951 40.3999 49.8265 40.3999 43.7432V35Z" fill="#F1B434"/>
</mask>
<g mask="url(#mask2_46_8834)">
<path d="M50.8992 50C48.2744 50 48.2744 52.1819 45.6496 52.1819C43.0247 52.1819 43.0247 50 40.3999 50V53.8181C43.0247 53.8181 43.0247 56 45.6496 56C48.2744 56 48.2744 53.8181 50.8992 53.8181C53.5243 53.8181 53.5243 56 56.1496 56C58.7748 56 58.7747 53.8181 61.3999 53.8181V50C58.7748 50 58.7748 52.1819 56.1496 52.1819C53.5243 52.1819 53.5243 50 50.8992 50V50Z" fill="#F5F7F8"/>
</g>
<path d="M51.3999 45H49.3999V47L47.3999 47V49H49.3999V53H51.3999V49H53.3999V47L51.3999 47V45Z" fill="#936846"/>
<path d="M50.8999 55.5C53.3852 55.5 55.3999 53.4853 55.3999 51H46.3999C46.3999 53.4853 48.4146 55.5 50.8999 55.5Z" fill="#31373D"/>
<mask id="mask3_46_8834" style="mask-type:alpha" maskUnits="userSpaceOnUse" x="0" y="0" width="36" height="36">
<path d="M0 36V36C-8.69081e-07 16.1177 16.1177 -7.04529e-07 36 -1.57361e-06V-1.57361e-06L36 36L0 36Z" fill="#002F6C"/>
</mask>
<g mask="url(#mask3_46_8834)">
<rect x="-0.000244141" width="36" height="36" fill="#004692"/>
<path d="M12.5223 3.1339L10.401 5.25522L39.927 34.7812L42.0483 32.6599L12.5223 3.1339Z" fill="#F5F7F8"/>
<path d="M6.86549 8.79076L3.32996 12.3263L32.856 41.8523L36.3915 38.3168L6.86549 8.79076Z" fill="#F5F7F8"/>
<path d="M6.86549 8.79076L10.401 5.25522L39.927 34.7812L36.3915 38.3168L6.86549 8.79076Z" fill="#DD2033"/>
<path d="M36 12V17L17 17L17 36H12V12H36Z" fill="#F5F7F8"/>
<path d="M36 -2V3L5 3L5 36H0V-2H36Z" fill="#F5F7F8"/>
<path fill-rule="evenodd" clip-rule="evenodd" d="M3 36H12L12 12L36 12V3H12H3L3 12L3 36Z" fill="#DD2033"/>
</g>
</g>
</svg>
