<svg width="20" height="20" viewBox="0 0 20 20" fill="none" xmlns="http://www.w3.org/2000/svg">
<mask id="mask0_11482_7257" style="mask-type:alpha" maskUnits="userSpaceOnUse" x="0" y="0" width="20" height="20">
<circle cx="10" cy="10" r="10" fill="#D9D9D9"/>
</mask>
<g mask="url(#mask0_11482_7257)">
<rect width="20" height="20" fill="#004692"/>
<path d="M11.2222 9.72217H17.0555V11.81C17.0555 13.7056 15.8999 15.4097 14.1388 16.1111C12.3778 15.4097 11.2222 13.7056 11.2222 11.81V9.72217Z" fill="#F1B434"/>
<circle cx="14.1388" cy="10.6944" r="0.694444" fill="#FDEFD3"/>
<mask id="mask1_11482_7257" style="mask-type:alpha" maskUnits="userSpaceOnUse" x="11" y="11" width="7" height="6">
<rect x="11.2222" y="11.6665" width="5.83333" height="4.44444" fill="#D9D9D9"/>
</mask>
<g mask="url(#mask1_11482_7257)">
<path d="M11.2222 9.72217H17.0555V11.81C17.0555 13.7056 15.8999 15.4097 14.1388 16.1111C12.3778 15.4097 11.2222 13.7056 11.2222 11.81V9.72217Z" fill="#86C5FA"/>
<rect x="11.3611" y="11.8054" width="5.55556" height="0.277778" fill="#31373D" stroke="#31373D" stroke-width="0.277778"/>
</g>
<mask id="mask2_11482_7257" style="mask-type:alpha" maskUnits="userSpaceOnUse" x="11" y="9" width="7" height="8">
<path d="M11.2222 9.72217H17.0555V11.81C17.0555 13.7056 15.8999 15.4097 14.1388 16.1111C12.3778 15.4097 11.2222 13.7056 11.2222 11.81V9.72217Z" fill="#F1B434"/>
</mask>
<g mask="url(#mask2_11482_7257)">
<path d="M14.1386 13.8889C13.4095 13.8889 13.4095 14.495 12.6804 14.495C11.9513 14.495 11.9513 13.8889 11.2222 13.8889V14.9495C11.9513 14.9495 11.9513 15.5556 12.6804 15.5556C13.4095 15.5556 13.4095 14.9495 14.1386 14.9495C14.8678 14.9495 14.8678 15.5556 15.5971 15.5556C16.3263 15.5556 16.3263 14.9495 17.0555 14.9495V13.8889C16.3263 13.8889 16.3263 14.495 15.5971 14.495C14.8678 14.495 14.8678 13.8889 14.1386 13.8889Z" fill="#F5F7F8"/>
</g>
<path d="M14.2777 12.5H13.7222V13.0556H13.1666V13.6111H13.7222V14.7222H14.2777V13.6111H14.8333V13.0556L14.2777 13.0556V12.5Z" fill="#936846"/>
<path d="M14.6945 14.6665C14.5572 14.819 14.3602 14.9165 14.1389 14.9165C13.9175 14.9165 13.7205 14.819 13.5832 14.6665H14.6945Z" fill="#31373D" stroke="#31373D"/>
<mask id="mask3_11482_7257" style="mask-type:alpha" maskUnits="userSpaceOnUse" x="0" y="0" width="10" height="10">
<path d="M0 10C-8.69081e-07 4.47715 4.47715 -5.43618e-08 10 -1.21421e-07L10 10L0 10Z" fill="#002F6C"/>
</mask>
<g mask="url(#mask3_11482_7257)">
<rect x="-0.000244141" width="10" height="10" fill="#004692"/>
<path d="M3.47843 0.870386L2.88917 1.45964L11.0908 9.66131L11.6801 9.07205L3.47843 0.870386Z" fill="#F5F7F8"/>
<path d="M1.90708 2.44173L0.924989 3.42383L9.12665 11.6255L10.1087 10.6434L1.90708 2.44173Z" fill="#F5F7F8"/>
<path d="M1.90708 2.44173L2.88917 1.45964L11.0908 9.66131L10.1087 10.6434L1.90708 2.44173Z" fill="#DD2033"/>
<path d="M9.99998 3.33325V4.72214L4.7222 4.72214L4.7222 9.99993H3.33331V3.33325H9.99998Z" fill="#F5F7F8"/>
<path d="M10 -0.555664V0.833225L1.38889 0.833224L1.38889 9.99989H0V-0.555664H10Z" fill="#F5F7F8"/>
<path fill-rule="evenodd" clip-rule="evenodd" d="M0.833313 9.99992H3.33331L3.33331 3.33325L9.99998 3.33325V0.833252H3.33331H0.833314L0.833314 3.33325L0.833313 9.99992Z" fill="#DD2033"/>
</g>
</g>
</svg>
