<svg width="29" height="20" viewBox="0 0 29 20" fill="none" xmlns="http://www.w3.org/2000/svg">
<mask id="mask0_11482_7280" style="mask-type:alpha" maskUnits="userSpaceOnUse" x="0" y="0" width="29" height="20">
<rect width="29" height="20" fill="#D9D9D9"/>
</mask>
<g mask="url(#mask0_11482_7280)">
<rect width="29" height="20" fill="#004692"/>
<mask id="mask1_11482_7280" style="mask-type:alpha" maskUnits="userSpaceOnUse" x="0" y="0" width="15" height="12">
<path d="M0 12L-1.31134e-06 0L14.5 -2.53526e-07L14.5 12L0 12Z" fill="#002F6C"/>
</mask>
<g mask="url(#mask1_11482_7280)">
<rect width="14.5" height="14.4" fill="#004692"/>
<path d="M5.15183 0.401901L4.29741 1.25043L14.849 11.7292L15.7034 10.8807L5.15183 0.401901Z" fill="#F5F7F8"/>
<path d="M2.87338 2.66464L1.44934 4.07886L12.0009 14.5577L13.425 13.1435L2.87338 2.66464Z" fill="#F5F7F8"/>
<path d="M2.87338 2.66464L4.29741 1.25043L14.849 11.7292L13.425 13.1435L2.87338 2.66464Z" fill="#DD2033"/>
<path d="M2.41669 14H4.02849L4.02849 3.59999H14.5V2H2.41669V14Z" fill="#F5F7F8"/>
<path d="M0 14H2.41736L2.41736 1.99998H14.5007V0H0V14Z" fill="#DD2033"/>
</g>
<path d="M17.7222 8H26.1806V10.9793C26.1806 13.7242 24.5038 16.1905 21.9514 17.2C19.399 16.1905 17.7222 13.7242 17.7222 10.9793V8Z" fill="#F1B434"/>
<ellipse cx="21.9514" cy="9.3999" rx="1.00694" ry="1" fill="#FDEFD3"/>
<mask id="mask2_11482_7280" style="mask-type:alpha" maskUnits="userSpaceOnUse" x="17" y="10" width="10" height="8">
<rect x="17.7222" y="10.8" width="8.45833" height="6.4" fill="#D9D9D9"/>
</mask>
<g mask="url(#mask2_11482_7280)">
<path d="M17.7222 8H26.1806V10.9793C26.1806 13.7242 24.5038 16.1905 21.9514 17.2C19.399 16.1905 17.7222 13.7242 17.7222 10.9793V8Z" fill="#86C5FA"/>
<rect x="17.9222" y="11" width="8.05833" height="0.4" fill="#31373D" stroke="#31373D" stroke-width="0.4"/>
</g>
<mask id="mask3_11482_7280" style="mask-type:alpha" maskUnits="userSpaceOnUse" x="17" y="8" width="10" height="10">
<path d="M17.7222 8H26.1806V10.9793C26.1806 13.7242 24.5038 16.1905 21.9514 17.2C19.399 16.1905 17.7222 13.7242 17.7222 10.9793V8Z" fill="#F1B434"/>
</mask>
<g mask="url(#mask3_11482_7280)">
<path d="M21.9511 14C20.8939 14 20.8939 14.8727 19.8367 14.8727C18.7795 14.8727 18.7795 14 17.7222 14V15.5273C18.7795 15.5273 18.7795 16.4 19.8367 16.4C20.8939 16.4 20.8939 15.5273 21.9511 15.5273C23.0085 15.5273 23.0085 16.4 24.0658 16.4C25.1232 16.4 25.1232 15.5273 26.1806 15.5273V14C25.1232 14 25.1232 14.8727 24.0658 14.8727C23.0085 14.8727 23.0085 14 21.9511 14Z" fill="#F5F7F8"/>
</g>
<path d="M22.1528 12H21.3472V12.8L20.5417 12.8V13.6H21.3472V15.2H22.1528V13.6H22.9584V12.8L22.1528 12.8V12Z" fill="#936846"/>
<path d="M23.1633 14.8999C22.966 15.3685 22.4994 15.6997 21.9514 15.6997C21.4035 15.6997 20.9369 15.3685 20.7395 14.8999H23.1633Z" fill="#31373D" stroke="#31373D"/>
</g>
</svg>
