<svg width="29" height="20" viewBox="0 0 29 20" fill="none" xmlns="http://www.w3.org/2000/svg">
<mask id="mask0_11482_7312" style="mask-type:alpha" maskUnits="userSpaceOnUse" x="0" y="0" width="29" height="20">
<rect width="29" height="20" fill="#D9D9D9"/>
</mask>
<g mask="url(#mask0_11482_7312)">
<rect y="20" width="6.4" height="29" transform="rotate(-90 0 20)" fill="#DD2033"/>
<rect x="0.000244141" y="13.6001" width="7.2" height="29" transform="rotate(-90 0.000244141 13.6001)" fill="#005EB8"/>
<rect y="6.3999" width="6.4" height="29" transform="rotate(-90 0 6.3999)" fill="#F5F7F8"/>
<path d="M6.04169 1.6001H14.0972V4.46616C14.0972 7.08255 12.501 9.43418 10.0695 10.4001C7.6379 9.43418 6.04169 7.08255 6.04169 4.46616V1.6001Z" fill="#005EB8"/>
<mask id="mask1_11482_7312" style="mask-type:alpha" maskUnits="userSpaceOnUse" x="6" y="1" width="9" height="10">
<path d="M6.04169 1.6001H14.0972V4.46616C14.0972 7.08255 12.501 9.43418 10.0695 10.4001C7.6379 9.43418 6.04169 7.08255 6.04169 4.46616V1.6001Z" fill="#2F80ED"/>
</mask>
<g mask="url(#mask1_11482_7312)">
<path d="M11.7042 5.87234L10.1501 3.6001L8.59601 5.87234L8.13623 5.2001L4.64807 10.3001H9.26389V10.4001H11.2778V10.3001H15.6522L12.164 5.2001L11.7042 5.87234Z" fill="#F5F7F8"/>
</g>
</g>
</svg>
