<svg width="20" height="20" viewBox="0 0 20 20" fill="none" xmlns="http://www.w3.org/2000/svg">
<mask id="mask0_11482_7303" style="mask-type:alpha" maskUnits="userSpaceOnUse" x="0" y="0" width="20" height="20">
<circle cx="10" cy="10" r="10" fill="#D9D9D9"/>
</mask>
<g mask="url(#mask0_11482_7303)">
<rect x="0.00012207" y="20" width="6.66667" height="20" transform="rotate(-90 0.00012207 20)" fill="#DD2033"/>
<rect x="0.00012207" y="13.3333" width="6.66667" height="20" transform="rotate(-90 0.00012207 13.3333)" fill="#005EB8"/>
<rect x="0.00012207" y="6.66675" width="6.66667" height="20" transform="rotate(-90 0.00012207 6.66675)" fill="#F5F7F8"/>
<path d="M4.16669 3.88892H9.72224V5.89716C9.72224 7.70408 8.62215 9.32895 6.94446 10C5.26678 9.32895 4.16669 7.70408 4.16669 5.89716V3.88892Z" fill="#005EB8"/>
<mask id="mask1_11482_7303" style="mask-type:alpha" maskUnits="userSpaceOnUse" x="4" y="3" width="6" height="7">
<path d="M4.16669 3.88892H9.72224V5.89716C9.72224 7.70408 8.62215 9.32895 6.94446 10C5.26678 9.32895 4.16669 7.70408 4.16669 5.89716V3.88892Z" fill="#2F80ED"/>
</mask>
<g mask="url(#mask1_11482_7303)">
<path d="M8.07188 6.85578L7.00008 5.27783L5.92828 6.85578L5.61119 6.38894L3.20557 9.93061H6.38889V10.0001H7.77778V9.93061H10.7946L8.38897 6.38894L8.07188 6.85578Z" fill="#F5F7F8"/>
</g>
</g>
</svg>
