<svg width="20" height="20" viewBox="0 0 20 20" fill="none" xmlns="http://www.w3.org/2000/svg">
<mask id="mask0_11482_7322" style="mask-type:alpha" maskUnits="userSpaceOnUse" x="0" y="0" width="20" height="20">
<circle cx="10" cy="10" r="10" fill="#D9D9D9"/>
</mask>
<g mask="url(#mask0_11482_7322)">
<rect width="20" height="20" fill="#DD2033"/>
<path fill-rule="evenodd" clip-rule="evenodd" d="M5.66664 20H3.99997L3.99997 13.25H0.111084V11.5833H3.99997L3.99997 8.41668H0.111084V6.75001H3.99997L3.99997 0H5.66664L5.66664 6.75001H8.83328L8.83328 0H10.4999L10.4999 6.75002H20.1111V8.41668H10.4999V11.5833L20.1111 11.5833V13.25L10.4999 13.25L10.4999 20H8.83328V13.25H5.66664L5.66664 20ZM8.83328 8.41668H5.66664L5.66664 11.5833H8.83328L8.83328 8.41668Z" fill="#F5F7F8"/>
<path d="M5.55556 20H8.88889L8.88889 11.6667L20 11.6667V8.33333L8.88889 8.33333L8.88889 0H5.55556L5.55556 8.33333H0V11.6667H5.55556L5.55556 20Z" fill="#004692"/>
</g>
</svg>
