<svg width="72" height="72" viewBox="0 0 72 72" fill="none" xmlns="http://www.w3.org/2000/svg">
<mask id="mask0_46_9435" style="mask-type:alpha" maskUnits="userSpaceOnUse" x="0" y="0" width="72" height="72">
<circle cx="36" cy="36" r="36" fill="#D9D9D9"/>
</mask>
<g mask="url(#mask0_46_9435)">
<rect x="0.00012207" y="72.0001" width="24" height="72" transform="rotate(-90 0.00012207 72.0001)" fill="#DD2033"/>
<rect x="0.00012207" y="47.9999" width="24" height="72" transform="rotate(-90 0.00012207 47.9999)" fill="#005EB8"/>
<rect x="0.00012207" y="23.9999" width="24" height="72" transform="rotate(-90 0.00012207 23.9999)" fill="#F5F7F8"/>
<path d="M11.8 19H44.8V48.4545L28.3 55L11.8 48.4545V19Z" fill="#DD2033"/>
<mask id="mask1_46_9435" style="mask-type:alpha" maskUnits="userSpaceOnUse" x="11" y="19" width="34" height="36">
<path d="M11.8 19H44.8V48.4545L28.3 55L11.8 48.4545V19Z" fill="#DD2033"/>
</mask>
<g mask="url(#mask1_46_9435)">
<path d="M27 22H30V25L34 25V28H30V31H37V34H30V40H27V34H20V31H27V28H23L23 25L27 25V22Z" fill="#F5F7F8"/>
<path d="M33.9332 63.4844C32.4334 65.6719 30.4609 67 28.3 67C26.1392 67 24.1667 65.6719 22.6669 63.4844C21.4073 65.6607 19.6912 67 17.8 67C13.9341 67 10.8 61.4036 10.8 54.5C10.8 47.5964 13.9341 42 17.8 42C19.2517 42 20.6002 42.7891 21.7183 44.1402C23.2771 41.0026 25.6466 39 28.3 39C30.9535 39 33.323 41.0026 34.8818 44.1402C35.9999 42.7891 37.3484 42 38.8 42C42.666 42 45.8 47.5964 45.8 54.5C45.8 61.4036 42.666 67 38.8 67C36.9089 67 35.1928 65.6607 33.9332 63.4844Z" fill="#005EB8"/>
</g>
<path fill-rule="evenodd" clip-rule="evenodd" d="M8.80005 16H47.8V38.3648C47.8 45.6853 43.3321 52.2643 36.5275 54.9636L28.3 58.2274L20.0725 54.9636C13.2679 52.2643 8.80005 45.6853 8.80005 38.3648V16ZM11.8 19V38.3648C11.8 44.4554 15.5173 49.9292 21.1788 52.175L28.3 55L35.4213 52.175C41.0828 49.9292 44.8 44.4554 44.8 38.3648V19H11.8Z" fill="#F5F7F8"/>
</g>
</svg>
