<svg width="20" height="20" viewBox="0 0 20 20" fill="none" xmlns="http://www.w3.org/2000/svg">
<mask id="mask0_11482_7334" style="mask-type:alpha" maskUnits="userSpaceOnUse" x="0" y="0" width="20" height="20">
<circle cx="10" cy="10" r="10" fill="#D9D9D9"/>
</mask>
<g mask="url(#mask0_11482_7334)">
<rect x="0.00012207" y="20" width="6.66667" height="20" transform="rotate(-90 0.00012207 20)" fill="#DD2033"/>
<rect x="0.00012207" y="13.3333" width="6.66667" height="20" transform="rotate(-90 0.00012207 13.3333)" fill="#005EB8"/>
<rect x="0.00012207" y="6.66675" width="6.66667" height="20" transform="rotate(-90 0.00012207 6.66675)" fill="#F5F7F8"/>
<path d="M3.27779 5.27783H12.4445V13.4597L7.86112 15.2778L3.27779 13.4597V5.27783Z" fill="#DD2033"/>
<mask id="mask1_11482_7334" style="mask-type:alpha" maskUnits="userSpaceOnUse" x="3" y="5" width="10" height="11">
<path d="M3.27779 5.27783H12.4445V13.4597L7.86112 15.2778L3.27779 13.4597V5.27783Z" fill="#DD2033"/>
</mask>
<g mask="url(#mask1_11482_7334)">
<path d="M7.5 6.11108H8.33334V6.94442L9.44445 6.94442V7.77775H8.33334V8.61108H10.2778V9.44442H8.33334V11.1111H7.5V9.44442H5.55556V8.61108H7.5V7.77775H6.38889L6.38889 6.94442L7.5 6.94442V6.11108Z" fill="#F5F7F8"/>
<path d="M9.42588 17.6347C9.00929 18.2424 8.46136 18.6113 7.86113 18.6113C7.26089 18.6113 6.71297 18.2424 6.29637 17.6347C5.94647 18.2393 5.46979 18.6113 4.94446 18.6113C3.87057 18.6113 3.00002 17.0567 3.00002 15.1391C3.00002 13.2214 3.87057 11.6668 4.94446 11.6668C5.34771 11.6668 5.72229 11.886 6.03287 12.2613C6.46586 11.3898 7.12405 10.8335 7.86113 10.8335C8.5982 10.8335 9.25639 11.3898 9.68939 12.2613C9.99997 11.886 10.3745 11.6668 10.7778 11.6668C11.8517 11.6668 12.7222 13.2214 12.7222 15.1391C12.7222 17.0567 11.8517 18.6113 10.7778 18.6113C10.2525 18.6113 9.77579 18.2393 9.42588 17.6347Z" fill="#005EB8"/>
</g>
<path fill-rule="evenodd" clip-rule="evenodd" d="M2.44446 4.44434H13.2778V10.6568C13.2778 12.6902 12.0367 14.5177 10.1465 15.2676L7.86112 16.1742L5.57571 15.2676C3.68554 14.5177 2.44446 12.6902 2.44446 10.6568V4.44434ZM3.27779 5.27767V10.6568C3.27779 12.3486 4.31037 13.8691 5.88299 14.493L7.86112 15.2777L9.83926 14.493C11.4119 13.8691 12.4445 12.3486 12.4445 10.6568V5.27767H3.27779Z" fill="#F5F7F8"/>
</g>
</svg>
