<svg width="29" height="20" viewBox="0 0 29 20" fill="none" xmlns="http://www.w3.org/2000/svg">
<mask id="mask0_11482_7345" style="mask-type:alpha" maskUnits="userSpaceOnUse" x="0" y="0" width="29" height="20">
<rect width="29" height="20" fill="#D9D9D9"/>
</mask>
<g mask="url(#mask0_11482_7345)">
<rect y="20" width="6.4" height="29" transform="rotate(-90 0 20)" fill="#DD2033"/>
<rect x="0.000244141" y="13.6001" width="7.2" height="29" transform="rotate(-90 0.000244141 13.6001)" fill="#005EB8"/>
<rect y="6.3999" width="6.4" height="29" transform="rotate(-90 0 6.3999)" fill="#F5F7F8"/>
<path d="M4.75279 3.19995H18.0445V14.9818L11.3986 17.6L4.75279 14.9818V3.19995Z" fill="#DD2033"/>
<mask id="mask1_11482_7345" style="mask-type:alpha" maskUnits="userSpaceOnUse" x="4" y="3" width="15" height="15">
<path d="M4.75279 3.19995H18.0445V14.9818L11.3986 17.6L4.75279 14.9818V3.19995Z" fill="#DD2033"/>
</mask>
<g mask="url(#mask1_11482_7345)">
<path d="M10.875 4.3999H12.0833V5.5999L13.6944 5.5999V6.7999H12.0833V7.9999H14.9028V9.1999H12.0833V11.5999H10.875V9.1999H8.05556V7.9999H10.875V6.7999H9.26389L9.26389 5.5999L10.875 5.5999V4.3999Z" fill="#F5F7F8"/>
<path d="M13.6675 20.9937C13.0635 21.8687 12.269 22.4 11.3986 22.4C10.5283 22.4 9.7338 21.8687 9.12974 20.9937C8.62237 21.8643 7.9312 22.4 7.16947 22.4C5.61233 22.4 4.35002 20.1614 4.35002 17.4C4.35002 14.6385 5.61233 12.4 7.16947 12.4C7.75418 12.4 8.29731 12.7156 8.74766 13.256C9.37549 12.001 10.3299 11.2 11.3986 11.2C12.4674 11.2 13.4218 12.001 14.0496 13.256C14.5 12.7156 15.0431 12.4 15.6278 12.4C17.1849 12.4 18.4472 14.6385 18.4472 17.4C18.4472 20.1614 17.1849 22.4 15.6278 22.4C14.8661 22.4 14.1749 21.8643 13.6675 20.9937Z" fill="#005EB8"/>
</g>
<path fill-rule="evenodd" clip-rule="evenodd" d="M3.54446 2H19.2528V10.9459C19.2528 13.8741 17.4532 16.5057 14.7125 17.5855L11.3986 18.891L8.08478 17.5855C5.34404 16.5057 3.54446 13.8741 3.54446 10.9459V2ZM4.7528 3.2V10.9459C4.7528 13.3822 6.25004 15.5717 8.53034 16.47L11.3986 17.6L14.2669 16.47C16.5472 15.5717 18.0445 13.3822 18.0445 10.9459V3.2H4.7528Z" fill="#F5F7F8"/>
</g>
</svg>
