<svg width="72" height="72" viewBox="0 0 72 72" fill="none" xmlns="http://www.w3.org/2000/svg">
<mask id="mask0_46_9671" style="mask-type:alpha" maskUnits="userSpaceOnUse" x="0" y="0" width="72" height="72">
<circle cx="36" cy="36" r="36" transform="rotate(180 36 36)" fill="#D9D9D9"/>
</mask>
<g mask="url(#mask0_46_9671)">
<rect x="72" width="36" height="72" transform="rotate(90 72 0)" fill="#F5F7F8"/>
<rect x="72" y="36" width="36" height="72" transform="rotate(90 72 36)" fill="#86C5FA"/>
<path d="M20.7372 28.4031C18.6344 31.2704 17.3999 34.765 17.3999 38.5361C17.3999 47.1785 23.884 54.3693 32.4437 55.8833C32.26 55.9997 32.0861 56.138 31.9259 56.2982C30.7543 57.4698 30.7543 59.3693 31.9259 60.5408L35.9866 56.4801L40.0474 60.5408C41.219 59.3693 41.219 57.4698 40.0474 56.2982C39.8628 56.1136 39.6602 55.9581 39.4451 55.8317C47.8662 54.2123 54.2096 47.0842 54.2096 38.5361C54.2096 34.765 52.975 31.2704 50.8722 28.4031L46.8515 31.7018C48.18 33.6705 48.9513 36.017 48.9513 38.5361C48.9513 45.4952 43.0655 51.1366 35.805 51.1366C28.5445 51.1366 22.6587 45.4952 22.6587 38.5361C22.6587 36.0171 23.4299 33.6708 24.7583 31.7022L20.7372 28.4031Z" fill="#009B77"/>
<path d="M24.8999 26.1768C24.8999 24.796 26.0192 23.6768 27.3999 23.6768L44.3999 23.6768C45.7806 23.6768 46.8999 24.796 46.8999 26.1768L46.8999 34.1406C46.8999 39.6331 43.5377 44.5656 38.4254 46.5734L35.8999 47.5652L33.3744 46.5734C28.2621 44.5656 24.8999 39.6331 24.8999 34.1407L24.8999 26.1768Z" fill="#86C5FA" stroke="#F1B434" stroke-width="3"/>
<path d="M31.3999 46.1768C32.3458 46.1768 33.2151 45.8484 33.8999 45.2994C34.5847 45.8484 35.454 46.1768 36.3999 46.1768C37.1285 46.1768 37.8116 45.982 38.3999 45.6416C38.9883 45.982 39.6713 46.1768 40.3999 46.1768C42.609 46.1768 44.3999 44.3859 44.3999 42.1768C44.3999 39.9676 42.609 38.1768 40.3999 38.1768C39.6713 38.1768 38.9883 38.3715 38.3999 38.7119C37.8116 38.3715 37.1285 38.1768 36.3999 38.1768C35.454 38.1768 34.5847 38.5051 33.8999 39.0541C33.2151 38.5051 32.3458 38.1768 31.3999 38.1768C29.1908 38.1768 27.3999 39.9676 27.3999 42.1768C27.3999 44.3859 29.1908 46.1768 31.3999 46.1768Z" fill="#008259"/>
<path fill-rule="evenodd" clip-rule="evenodd" d="M44.3999 25.1768L27.3999 25.1768C26.8476 25.1768 26.3999 25.6245 26.3999 26.1768L26.3999 34.1407C26.3999 39.0163 29.3845 43.3949 33.9227 45.1772L35.8999 45.9537L37.8771 45.1772C42.4153 43.3949 45.3999 39.0163 45.3999 34.1406L45.3999 26.1768C45.3999 25.6245 44.9522 25.1768 44.3999 25.1768ZM35.8999 49.1768L38.9738 47.9696C44.6602 45.7364 48.3999 40.2499 48.3999 34.1406L48.3999 26.1768C48.3999 23.9676 46.609 22.1768 44.3999 22.1768L27.3999 22.1768C25.1908 22.1768 23.3999 23.9676 23.3999 26.1768L23.3999 34.1407C23.3999 40.2499 27.1396 45.7364 32.8261 47.9696L35.8999 49.1768Z" fill="#F1B434"/>
<path d="M22.3999 53.1768H50.3999V55.1768H52.3999V61.1768H42.3999V59.1768H30.3999V61.1768H20.3999V55.1768H22.3999V53.1768Z" fill="#F5F7F8"/>
<path fill-rule="evenodd" clip-rule="evenodd" d="M36.3999 7.17676H34.3999V8.60522L32.3999 8.60522V10.6052H34.3999V12.3284C33.5827 11.7814 32.6 11.4624 31.5428 11.4624C28.7024 11.4624 26.3999 13.7649 26.3999 16.6053C26.3999 18.1284 27.062 19.4968 28.1141 20.4385V22.6052H42.6856V20.4386C43.7377 19.4969 44.3998 18.1284 44.3998 16.6053C44.3998 13.7649 42.0973 11.4624 39.257 11.4624C38.1998 11.4624 37.2171 11.7814 36.3999 12.3284V10.6052H38.3999V8.60522L36.3999 8.60522V7.17676ZM35.3999 20.0071L35.3761 20.0338H35.4237L35.3999 20.0071ZM31.5524 19.1768L31.5427 19.1768C30.1226 19.1768 28.9713 18.0255 28.9713 16.6054C28.9713 15.1852 30.1226 14.0339 31.5427 14.0339C32.9629 14.0339 34.1142 15.1852 34.1142 16.6054L34.1142 16.615V19.1768H31.5524ZM41.8285 16.6054C41.8285 18.0255 40.6773 19.1768 39.2571 19.1768L39.2475 19.1768H36.6857V16.6053C36.6857 15.1852 37.8369 14.0339 39.2571 14.0339C40.6773 14.0339 41.8285 15.1852 41.8285 16.6054Z" fill="#F1B434"/>
</g>
</svg>
