<svg width="29" height="20" viewBox="0 0 29 20" fill="none" xmlns="http://www.w3.org/2000/svg">
<mask id="mask0_11482_7380" style="mask-type:alpha" maskUnits="userSpaceOnUse" x="0" y="0" width="29" height="20">
<rect width="29" height="20" fill="#D9D9D9"/>
</mask>
<g mask="url(#mask0_11482_7380)">
<rect x="29" width="10" height="29" transform="rotate(90 29 0)" fill="#F5F7F8"/>
<rect x="29" y="10" width="10" height="29" transform="rotate(90 29 10)" fill="#86C5FA"/>
<path d="M10.3357 8.51588C9.7655 9.28799 9.43076 10.2291 9.43076 11.2445C9.43076 13.5718 11.1889 15.5082 13.51 15.9159C13.4601 15.9472 13.413 15.9845 13.3696 16.0276C13.0519 16.3431 13.0519 16.8546 13.3696 17.1701L14.4706 16.0766L15.5717 17.1701C15.8894 16.8546 15.8894 16.3431 15.5717 16.0276C15.5217 15.9779 15.4667 15.936 15.4084 15.902C17.6918 15.4659 19.4119 13.5464 19.4119 11.2445C19.4119 10.229 19.0771 9.28798 18.507 8.51587L17.4167 9.40417C17.777 9.93432 17.9861 10.5662 17.9861 11.2446C17.9861 13.1185 16.3901 14.6377 14.4214 14.6377C12.4527 14.6377 10.8567 13.1185 10.8567 11.2446C10.8567 10.5662 11.0658 9.93439 11.426 9.40426L10.3357 8.51588Z" fill="#009B77"/>
<path d="M11.0577 8.52067C11.0577 7.59211 11.8104 6.83936 12.739 6.83936L16.1552 6.83936C17.0838 6.83936 17.8366 7.59211 17.8366 8.52068V9.15C17.8366 11.3438 16.4909 13.3129 14.4471 14.1101C12.4033 13.3129 11.0577 11.3438 11.0577 9.15L11.0577 8.52067Z" fill="#86C5FA"/>
<path d="M13.2269 13.3022C13.4834 13.3022 13.7191 13.2138 13.9048 13.066C14.0905 13.2138 14.3262 13.3022 14.5827 13.3022C14.7803 13.3022 14.9655 13.2498 15.125 13.1581C15.2845 13.2498 15.4698 13.3022 15.6673 13.3022C16.2663 13.3022 16.7519 12.82 16.7519 12.2251C16.7519 11.6302 16.2663 11.1479 15.6673 11.1479C15.4698 11.1479 15.2845 11.2004 15.125 11.2921C14.9655 11.2004 14.7803 11.1479 14.5827 11.1479C14.3262 11.1479 14.0905 11.2364 13.9048 11.3842C13.7191 11.2364 13.4834 11.1479 13.2269 11.1479C12.6279 11.1479 12.1423 11.6302 12.1423 12.2251C12.1423 12.82 12.6279 13.3022 13.2269 13.3022Z" fill="#008259"/>
<path fill-rule="evenodd" clip-rule="evenodd" d="M16.7519 7.64721L12.1423 7.64721C11.9925 7.64721 11.8711 7.76777 11.8711 7.9165L11.8711 10.0611C11.8711 11.374 12.6804 12.5531 13.911 13.033L14.4471 13.2421L14.9833 13.033C16.2138 12.5531 17.0231 11.374 17.0231 10.0611L17.0231 7.9165C17.0231 7.76777 16.9017 7.64721 16.7519 7.64721ZM14.4471 14.1101L15.2806 13.785C16.8225 13.1836 17.8366 11.7062 17.8366 10.0611L17.8366 7.9165C17.8366 7.32161 17.351 6.83936 16.7519 6.83936L12.1423 6.83936C11.5433 6.83936 11.0577 7.32161 11.0577 7.9165L11.0577 10.0611C11.0577 11.7062 12.0717 13.1836 13.6136 13.785L14.4471 14.1101Z" fill="#F1B434"/>
<path d="M10.7865 15.1873H18.3789V15.7258H18.9212V17.3415H16.2096V16.803H12.9558V17.3415H10.2442V15.7258H10.7865V15.1873Z" fill="#F5F7F8"/>
<path fill-rule="evenodd" clip-rule="evenodd" d="M14.5827 2.80005H14.0404V3.18471L13.4981 3.18471V3.72328H14.0404V4.18732C13.8188 4.04002 13.5523 3.95411 13.2657 3.95411C12.4955 3.95411 11.8712 4.57415 11.8712 5.33901C11.8712 5.74916 12.0507 6.11767 12.336 6.37125V6.95471H16.2871V6.37126C16.5724 6.11768 16.7519 5.74917 16.7519 5.33901C16.7519 4.57415 16.1276 3.95411 15.3574 3.95411C15.0708 3.95411 14.8043 4.04001 14.5827 4.18731V3.72328H15.125V3.18471L14.5827 3.18471V2.80005ZM14.3115 6.25506L14.3051 6.26227H14.318L14.3115 6.25506ZM13.2683 6.03148L13.2657 6.03148C12.8806 6.03148 12.5684 5.72146 12.5684 5.33903C12.5684 4.95661 12.8806 4.64659 13.2657 4.64659C13.6507 4.64659 13.9629 4.95661 13.9629 5.33903L13.9629 5.34163V6.03148H13.2683ZM16.0547 5.33903C16.0547 5.72146 15.7425 6.03148 15.3575 6.03148L15.3548 6.03148H14.6602V5.33903C14.6602 4.9566 14.9724 4.64659 15.3575 4.64659C15.7425 4.64659 16.0547 4.95661 16.0547 5.33903Z" fill="#F1B434"/>
</g>
</svg>
