<svg width="20" height="20" viewBox="0 0 20 20" fill="none" xmlns="http://www.w3.org/2000/svg">
<mask id="mask0_11482_7369" style="mask-type:alpha" maskUnits="userSpaceOnUse" x="0" y="0" width="20" height="20">
<circle cx="10" cy="10" r="10" transform="rotate(180 10 10)" fill="#D9D9D9"/>
</mask>
<g mask="url(#mask0_11482_7369)">
<rect x="20" width="10" height="20" transform="rotate(90 20 0)" fill="#F5F7F8"/>
<rect x="20" y="10" width="10" height="20" transform="rotate(90 20 10)" fill="#86C5FA"/>
<path d="M5.76034 7.88966C5.17623 8.68612 4.83331 9.65686 4.83331 10.7044C4.83331 13.105 6.63444 15.1025 9.01214 15.523C8.96111 15.5554 8.91282 15.5938 8.86831 15.6383C8.54287 15.9637 8.54287 16.4914 8.86831 16.8168L9.9963 15.6888L11.1243 16.8168C11.4497 16.4914 11.4497 15.9637 11.1243 15.6383C11.073 15.587 11.0167 15.5438 10.957 15.5087C13.2962 15.0589 15.0582 13.0788 15.0582 10.7044C15.0582 9.65686 14.7153 8.68611 14.1312 7.88965L13.0143 8.80597C13.3834 9.35283 13.5976 10.0046 13.5976 10.7044C13.5976 12.6375 11.9626 14.2045 9.94584 14.2045C7.92903 14.2045 6.29409 12.6375 6.29409 10.7044C6.29409 10.0047 6.50831 9.3529 6.87731 8.80606L5.76034 7.88966Z" fill="#009B77"/>
<path d="M6.49997 7.89764C6.49997 6.93805 7.27787 6.16016 8.23745 6.16016L11.7069 6.16016C12.6665 6.16016 13.4444 6.93805 13.4444 7.89764V8.56613C13.4444 10.8165 12.0668 12.8375 9.97219 13.6602C7.87754 12.8375 6.49997 10.8165 6.49997 8.56613L6.49997 7.89764Z" fill="#86C5FA"/>
<path d="M8.7222 12.827C8.98496 12.827 9.22642 12.7357 9.41664 12.5833C9.60686 12.7357 9.84832 12.827 10.1111 12.827C10.3135 12.827 10.5032 12.7729 10.6666 12.6783C10.8301 12.7729 11.0198 12.827 11.2222 12.827C11.8358 12.827 12.3333 12.3295 12.3333 11.7158C12.3333 11.1022 11.8358 10.6047 11.2222 10.6047C11.0198 10.6047 10.8301 10.6588 10.6666 10.7534C10.5032 10.6588 10.3135 10.6047 10.1111 10.6047C9.84832 10.6047 9.60686 10.6959 9.41664 10.8484C9.22642 10.6959 8.98496 10.6047 8.7222 10.6047C8.10855 10.6047 7.61108 11.1022 7.61108 11.7158C7.61108 12.3295 8.10855 12.827 8.7222 12.827Z" fill="#008259"/>
<path fill-rule="evenodd" clip-rule="evenodd" d="M12.3333 6.99349L7.61108 6.99349C7.45767 6.99349 7.3333 7.11786 7.3333 7.27127L7.3333 9.48346C7.3333 10.8378 8.16236 12.0541 9.42297 12.5492L9.97219 12.7649L10.5214 12.5492C11.782 12.0541 12.6111 10.8378 12.6111 9.48346L12.6111 7.27127C12.6111 7.11786 12.4867 6.99349 12.3333 6.99349ZM9.97219 13.6602L10.826 13.3248C12.4056 12.7045 13.4444 11.1805 13.4444 9.48346L13.4444 7.27127C13.4444 6.65762 12.947 6.16016 12.3333 6.16016L7.61108 6.16016C6.99743 6.16016 6.49997 6.65762 6.49997 7.27127L6.49997 9.48346C6.49997 11.1805 7.53878 12.7045 9.11834 13.3248L9.97219 13.6602Z" fill="#F1B434"/>
<path d="M6.22218 14.7712H14V15.3268H14.5555V16.9935H11.7777V16.4379H8.4444V16.9935H5.66663V15.3268H6.22218V14.7712Z" fill="#F5F7F8"/>
<path fill-rule="evenodd" clip-rule="evenodd" d="M10.1111 1.99365H9.55554V2.39045L8.99998 2.39045V2.946H9.55554V3.42467C9.32854 3.27272 9.05556 3.18411 8.76188 3.18411C7.97291 3.18411 7.33331 3.8237 7.33331 4.61268C7.33331 5.03577 7.51724 5.4159 7.80949 5.67748V6.27934H11.8571V5.67749C12.1494 5.41591 12.3333 5.03578 12.3333 4.61268C12.3333 3.8237 11.6937 3.18411 10.9047 3.18411C10.6111 3.18411 10.3381 3.27272 10.1111 3.42466V2.946H10.6666V2.39045L10.1111 2.39045V1.99365ZM9.83331 5.55763L9.8267 5.56506H9.83991L9.83331 5.55763ZM8.76455 5.32699L8.76188 5.327C8.36739 5.327 8.04759 5.0072 8.04759 4.61271C8.04759 4.21822 8.36739 3.89842 8.76188 3.89842C9.15637 3.89842 9.47617 4.21822 9.47617 4.61271L9.47616 4.61538V5.32699H8.76455ZM11.619 4.61271C11.619 5.0072 11.2992 5.327 10.9048 5.327L10.9021 5.32699H10.1905V4.6127C10.1905 4.21822 10.5103 3.89842 10.9048 3.89842C11.2992 3.89842 11.619 4.21822 11.619 4.61271Z" fill="#F1B434"/>
</g>
</svg>
