<svg width="72" height="72" viewBox="0 0 72 72" fill="none" xmlns="http://www.w3.org/2000/svg">
<mask id="mask0_46_10537" style="mask-type:alpha" maskUnits="userSpaceOnUse" x="0" y="0" width="72" height="72">
<circle cx="36" cy="36" r="36" fill="#D9D9D9"/>
</mask>
<g mask="url(#mask0_46_10537)">
<rect y="52" width="32" height="72" transform="rotate(-90 0 52)" fill="#F5F7F8"/>
<rect x="0.200195" y="46" width="20" height="72" transform="rotate(-90 0.200195 46)" fill="#DD2033"/>
<rect y="20" width="20" height="72" transform="rotate(-90 0 20)" fill="#31373D"/>
<rect y="72" width="20" height="72" transform="rotate(-90 0 72)" fill="#009B77"/>
<path d="M48 36L0 0V72L48 36Z" fill="#004692"/>
<path d="M12.2361 28.636L14.6298 34.8236L10.7337 39.8616L17.2513 39.7897L21.0307 45.2972L22.3123 38.7123L28.8972 37.4307L23.3897 33.6513L23.4616 27.1337L18.4236 31.0298L12.2361 28.636Z" fill="#FBD381"/>
</g>
</svg>
