<svg width="29" height="20" viewBox="0 0 29 20" fill="none" xmlns="http://www.w3.org/2000/svg">
<mask id="mask0_11482_7438" style="mask-type:alpha" maskUnits="userSpaceOnUse" x="0" y="0" width="29" height="20">
<rect width="29" height="20" fill="#D9D9D9"/>
</mask>
<g mask="url(#mask0_11482_7438)">
<rect y="16.3999" width="12.8" height="29" transform="rotate(-90 0 16.3999)" fill="#F5F7F8"/>
<rect x="0.0806274" y="14" width="8" height="29" transform="rotate(-90 0.0806274 14)" fill="#DD2033"/>
<rect y="3.6001" width="3.6" height="29" transform="rotate(-90 0 3.6001)" fill="#31373D"/>
<rect y="20" width="3.6" height="29" transform="rotate(-90 0 20)" fill="#009B77"/>
<path d="M19.3333 10.0001L0 -4.3999V24.4001L19.3333 10.0001Z" fill="#004692"/>
<path d="M4.92842 7.0545L5.89257 9.52955L4.32329 11.5447L6.94845 11.516L8.47072 13.719L8.9869 11.085L11.6391 10.5724L9.42084 9.06063L9.44981 6.45357L7.42063 8.01203L4.92842 7.0545Z" fill="#FBD381"/>
</g>
</svg>
