<svg width="20" height="20" viewBox="0 0 20 20" fill="none" xmlns="http://www.w3.org/2000/svg">
<mask id="mask0_11482_7430" style="mask-type:alpha" maskUnits="userSpaceOnUse" x="0" y="0" width="20" height="20">
<circle cx="10" cy="10" r="10" fill="#D9D9D9"/>
</mask>
<g mask="url(#mask0_11482_7430)">
<rect y="14.4443" width="8.88889" height="20" transform="rotate(-90 0 14.4443)" fill="#F5F7F8"/>
<rect x="0.055603" y="12.7778" width="5.55556" height="20" transform="rotate(-90 0.055603 12.7778)" fill="#DD2033"/>
<rect y="5.55566" width="5.55556" height="20" transform="rotate(-90 0 5.55566)" fill="#31373D"/>
<rect y="20" width="5.55556" height="20" transform="rotate(-90 0 20)" fill="#009B77"/>
<path d="M13.3333 10L0 0V20L13.3333 10Z" fill="#004692"/>
<path d="M3.39891 7.95439L4.06385 9.67318L2.98158 11.0726L4.79204 11.0526L5.84188 12.5825L6.19787 10.7534L8.02699 10.3974L6.49713 9.34753L6.51711 7.53708L5.11768 8.61935L3.39891 7.95439Z" fill="#FBD381"/>
</g>
</svg>
