<svg width="72" height="72" viewBox="0 0 72 72" fill="none" xmlns="http://www.w3.org/2000/svg">
<mask id="mask0_46_10642" style="mask-type:alpha" maskUnits="userSpaceOnUse" x="0" y="0" width="72" height="72">
<circle cx="36" cy="36" r="36" fill="#D9D9D9"/>
</mask>
<g mask="url(#mask0_46_10642)">
<rect width="72" height="72" fill="#009B77"/>
<rect y="47.9999" width="24" height="72" transform="rotate(-90 0 47.9999)" fill="#FBD381"/>
<path d="M42.6115 34.0453L44.3999 30L46.1883 34.0453L50.3999 34.5836L47.2935 37.6221L48.1082 42L44.3999 39.5L40.6916 42L41.5063 37.6221L38.3999 34.5836L42.6115 34.0453Z" fill="#31373D"/>
<path d="M58.2116 34.0453L60 30L61.7884 34.0453L66 34.5836L62.8936 37.6221L63.7083 42L60 39.5L56.2917 42L57.1064 37.6221L54 34.5836L58.2116 34.0453Z" fill="#31373D"/>
<path d="M36 36L0 0V72L36 36Z" fill="#DD2033"/>
</g>
</svg>
