<svg width="29" height="20" viewBox="0 0 29 20" fill="none" xmlns="http://www.w3.org/2000/svg">
<mask id="mask0_11482_7454" style="mask-type:alpha" maskUnits="userSpaceOnUse" x="0" y="0" width="29" height="20">
<rect width="29" height="20" fill="#D9D9D9"/>
</mask>
<g mask="url(#mask0_11482_7454)">
<rect y="-4.3999" width="29" height="28.8" fill="#009B77"/>
<rect y="14.8" width="9.6" height="29" transform="rotate(-90 0 14.8)" fill="#FBD381"/>
<path d="M17.163 9.21822L17.8833 7.6001L18.6036 9.21822L20.3 9.43352L19.0488 10.6489L19.3769 12.4001L17.8833 11.4001L16.3897 12.4001L16.7178 10.6489L15.4666 9.43352L17.163 9.21822Z" fill="#31373D"/>
<path d="M23.4463 9.21822L24.1667 7.6001L24.887 9.21822L26.5833 9.43352L25.3322 10.6489L25.6603 12.4001L24.1667 11.4001L22.6731 12.4001L23.0012 10.6489L21.75 9.43352L23.4463 9.21822Z" fill="#31373D"/>
<path d="M14.5 10.0001L0 -4.3999V24.4001L14.5 10.0001Z" fill="#DD2033"/>
</g>
</svg>
