<svg width="29" height="20" viewBox="0 0 29 20" fill="none" xmlns="http://www.w3.org/2000/svg">
<mask id="mask0_11482_7472" style="mask-type:alpha" maskUnits="userSpaceOnUse" x="0" y="0" width="29" height="20">
<rect width="29" height="20" fill="#D9D9D9"/>
</mask>
<g mask="url(#mask0_11482_7472)">
<rect width="29" height="20" fill="#005EB8"/>
<rect y="16.3999" width="12.8" height="29" transform="rotate(-90 0 16.3999)" fill="#F5F7F8"/>
<path fill-rule="evenodd" clip-rule="evenodd" d="M8.05556 5.09814C7.54075 6.08714 7.25 7.2098 7.25 8.39991C7.25 12.3764 10.4959 15.5999 14.5 15.5999C18.5041 15.5999 21.75 12.3764 21.75 8.39991C21.75 7.2098 21.4593 6.08714 20.9444 5.09814V5.2627L18.849 6.30317C19.1593 6.93667 19.3333 7.6481 19.3333 8.39991C19.3333 11.0509 17.1694 13.1999 14.5 13.1999C11.8306 13.1999 9.66667 11.0509 9.66667 8.39991C9.66667 7.6481 9.84071 6.93667 10.151 6.30317L8.05556 5.2627V5.09814Z" fill="#009B77"/>
<path d="M14.5 5.19995L18.125 10.8H10.875L14.5 5.19995Z" fill="#FBD381"/>
<path d="M10.875 10.8H18.125L16.3125 8H12.6875L10.875 10.8Z" fill="#009B77"/>
</g>
</svg>
