<svg width="20" height="20" viewBox="0 0 20 20" fill="none" xmlns="http://www.w3.org/2000/svg">
<mask id="mask0_11482_7462" style="mask-type:alpha" maskUnits="userSpaceOnUse" x="0" y="0" width="20" height="20">
<circle cx="10" cy="10" r="10" fill="#D9D9D9"/>
</mask>
<g mask="url(#mask0_11482_7462)">
<rect width="20" height="20" fill="#005EB8"/>
<rect y="14.4443" width="8.88889" height="20" transform="rotate(-90 0 14.4443)" fill="#F5F7F8"/>
<path fill-rule="evenodd" clip-rule="evenodd" d="M5.55556 6.59595C5.20052 7.28275 5 8.06238 5 8.88884C5 11.6503 7.23858 13.8888 10 13.8888C12.7614 13.8888 15 11.6503 15 8.88884C15 8.06238 14.7995 7.28275 14.4444 6.59595V6.71022L12.9993 7.43277C13.2133 7.8727 13.3333 8.36675 13.3333 8.88884C13.3333 10.7298 11.8409 12.2222 10 12.2222C8.15905 12.2222 6.66667 10.7298 6.66667 8.88884C6.66667 8.36675 6.78669 7.8727 7.00066 7.43277L5.55556 6.71022V6.59595Z" fill="#009B77"/>
<path d="M10 6.66675L12.5 10.5556H7.5L10 6.66675Z" fill="#FBD381"/>
<path d="M7.5 10.5555H12.5L11.25 8.61108H8.75L7.5 10.5555Z" fill="#009B77"/>
</g>
</svg>
