<svg width="20" height="20" viewBox="0 0 20 20" fill="none" xmlns="http://www.w3.org/2000/svg">
<mask id="mask0_11482_7483" style="mask-type:alpha" maskUnits="userSpaceOnUse" x="0" y="0" width="20" height="20">
<circle cx="10" cy="10" r="10" fill="#D9D9D9"/>
</mask>
<g mask="url(#mask0_11482_7483)">
<rect y="20" width="10" height="20" transform="rotate(-90 0 20)" fill="#004692"/>
<rect y="10" width="10" height="20" transform="rotate(-90 0 10)" fill="#DD2033"/>
<path d="M13.3333 10L0 0V20L13.3333 10Z" fill="#F5F7F8"/>
<path d="M4.86112 8.33325C5.55148 8.33325 6.11112 7.77361 6.11112 7.08325C6.11112 6.3929 5.55148 5.83325 4.86112 5.83325C4.17077 5.83325 3.61112 6.3929 3.61112 7.08325C3.61112 7.77361 4.17077 8.33325 4.86112 8.33325Z" fill="#FBD381"/>
<path d="M1.94446 13.3333V11.9444H7.77779V13.3333H6.94446V14.1666H2.77779V13.3333H1.94446Z" fill="#FBD381"/>
<path d="M1.94446 6.94434H7.77779V9.37301C7.77779 11.0628 6.74767 12.5819 5.17781 13.2071L4.86112 13.3332L4.54444 13.2071C2.97458 12.5819 1.94446 11.0628 1.94446 9.37301V6.94434Z" fill="#86C5FA"/>
<path fill-rule="evenodd" clip-rule="evenodd" d="M6.94446 7.77767H2.77779V9.37301C2.77779 10.7216 3.59991 11.9339 4.85278 12.4329L4.86112 12.4362L4.86947 12.4329C6.12234 11.9339 6.94446 10.7216 6.94446 9.37301V7.77767ZM4.86112 13.3332L4.54444 13.2071C2.97458 12.5819 1.94446 11.0628 1.94446 9.37301V6.94434H7.77779V9.37301C7.77779 11.0628 6.74767 12.5819 5.17781 13.2071L4.86112 13.3332Z" fill="#DD2033"/>
<path d="M4.44445 8.611L4.86111 8.19434L5.27778 8.611V8.88878L6.11111 9.72211V11.111H3.61111V9.72211L4.44445 8.88878V8.611Z" fill="#F5F7F8"/>
</g>
</svg>
