<svg width="29" height="20" viewBox="0 0 29 20" fill="none" xmlns="http://www.w3.org/2000/svg">
<mask id="mask0_11482_7492" style="mask-type:alpha" maskUnits="userSpaceOnUse" x="0" y="0" width="29" height="20">
<rect width="29" height="20" fill="#D9D9D9"/>
</mask>
<g mask="url(#mask0_11482_7492)">
<rect y="20" width="10" height="29" transform="rotate(-90 0 20)" fill="#004692"/>
<rect y="10" width="10" height="29" transform="rotate(-90 0 10)" fill="#DD2033"/>
<path d="M19.3333 10.0001L0 -4.3999V24.4001L19.3333 10.0001Z" fill="#F5F7F8"/>
<path d="M7.04862 7.6C8.04964 7.6 8.86113 6.79411 8.86113 5.8C8.86113 4.80589 8.04964 4 7.04862 4C6.04761 4 5.23612 4.80589 5.23612 5.8C5.23612 6.79411 6.04761 7.6 7.04862 7.6Z" fill="#FBD381"/>
<path d="M2.81946 14.8V12.8H11.2778V14.8H10.0695V16H4.02779V14.8H2.81946Z" fill="#FBD381"/>
<path d="M2.81946 5.6001H11.2778V9.09738C11.2778 11.5307 9.78412 13.7182 7.50781 14.6185L7.04862 14.8001L6.58944 14.6185C4.31313 13.7182 2.81946 11.5307 2.81946 9.09738V5.6001Z" fill="#86C5FA"/>
<path fill-rule="evenodd" clip-rule="evenodd" d="M10.0695 6.8001H4.02779V9.09738C4.02779 11.0393 5.21986 12.7851 7.03653 13.5036L7.04862 13.5084L7.06072 13.5036C8.87739 12.7851 10.0695 11.0393 10.0695 9.09738V6.8001ZM7.04862 14.8001L6.58944 14.6185C4.31313 13.7182 2.81946 11.5307 2.81946 9.09738V5.6001H11.2778V9.09738C11.2778 11.5307 9.78412 13.7182 7.50781 14.6185L7.04862 14.8001Z" fill="#DD2033"/>
<path d="M6.44445 7.9999L7.04861 7.3999L7.65278 7.9999V8.3999L8.86111 9.5999V11.5999H5.23611V9.5999L6.44445 8.3999V7.9999Z" fill="#F5F7F8"/>
</g>
</svg>
