<svg width="72" height="72" viewBox="0 0 72 72" fill="none" xmlns="http://www.w3.org/2000/svg">
<mask id="mask0_46_11100" style="mask-type:alpha" maskUnits="userSpaceOnUse" x="0" y="0" width="72" height="72">
<circle cx="36" cy="36" r="36" fill="#D9D9D9"/>
</mask>
<g mask="url(#mask0_46_11100)">
<rect x="0.00012207" y="72.0001" width="24" height="72" transform="rotate(-90 0.00012207 72.0001)" fill="#31373D"/>
<rect x="0.00012207" y="47.9999" width="24" height="72" transform="rotate(-90 0.00012207 47.9999)" fill="#F5F7F8"/>
<path d="M16.2116 34.0453L18 30L19.7884 34.0453L24 34.5836L20.8936 37.6221L21.7083 42L18 39.5L14.2917 42L15.1064 37.6221L12 34.5836L16.2116 34.0453Z" fill="#009B77"/>
<path d="M52.2116 34.0453L54 30L55.7884 34.0453L60 34.5836L56.8936 37.6221L57.7083 42L54 39.5L50.2917 42L51.1064 37.6221L48 34.5836L52.2116 34.0453Z" fill="#009B77"/>
<rect x="0.00012207" y="23.9999" width="24" height="72" transform="rotate(-90 0.00012207 23.9999)" fill="#DD2033"/>
</g>
</svg>
