<svg width="29" height="20" viewBox="0 0 29 20" fill="none" xmlns="http://www.w3.org/2000/svg">
<mask id="mask0_11482_7509" style="mask-type:alpha" maskUnits="userSpaceOnUse" x="0" y="0" width="29" height="20">
<rect width="29" height="20" fill="#D9D9D9"/>
</mask>
<g mask="url(#mask0_11482_7509)">
<rect y="20" width="6" height="29" transform="rotate(-90 0 20)" fill="#31373D"/>
<rect y="14" width="8" height="29" transform="rotate(-90 0 14)" fill="#F5F7F8"/>
<path d="M6.52965 9.21822L7.24999 7.6001L7.97031 9.21822L9.66665 9.43352L8.41547 10.6489L8.74359 12.4001L7.24998 11.4001L5.75637 12.4001L6.08449 10.6489L4.83331 9.43352L6.52965 9.21822Z" fill="#009B77"/>
<path d="M21.0296 9.21822L21.75 7.6001L22.4703 9.21822L24.1666 9.43352L22.9155 10.6489L23.2436 12.4001L21.75 11.4001L20.2564 12.4001L20.5845 10.6489L19.3333 9.43352L21.0296 9.21822Z" fill="#009B77"/>
<rect y="6" width="6" height="29" transform="rotate(-90 0 6)" fill="#DD2033"/>
</g>
</svg>
