<svg width="20" height="20" viewBox="0 0 20 20" fill="none" xmlns="http://www.w3.org/2000/svg">
<mask id="mask0_11482_7503" style="mask-type:alpha" maskUnits="userSpaceOnUse" x="0" y="0" width="20" height="20">
<circle cx="10" cy="10" r="10" fill="#D9D9D9"/>
</mask>
<g mask="url(#mask0_11482_7503)">
<rect y="20" width="6.66667" height="20" transform="rotate(-90 0 20)" fill="#31373D"/>
<rect y="13.3333" width="6.66667" height="20" transform="rotate(-90 0 13.3333)" fill="#F5F7F8"/>
<path d="M5.49658 9.45752L6.6665 9.60693L5.8042 10.4507L6.02979 11.6665L5.00049 10.9722L3.97021 11.6665L4.19678 10.4507L3.3335 9.60693L4.50342 9.45752L5.00049 8.3335L5.49658 9.45752ZM10.4966 9.45752L11.6665 9.60693L10.8042 10.4507L11.0298 11.6665L10.0005 10.9722L8.97021 11.6665L9.19678 10.4507L8.3335 9.60693L9.50342 9.45752L10.0005 8.3335L10.4966 9.45752ZM15.4966 9.45752L16.6665 9.60693L15.8042 10.4507L16.0298 11.6665L15.0005 10.9722L13.9702 11.6665L14.1968 10.4507L13.3335 9.60693L14.5034 9.45752L15.0005 8.3335L15.4966 9.45752Z" fill="#DD2033"/>
<rect y="6.6665" width="6.66667" height="20" transform="rotate(-90 0 6.6665)" fill="#009B77"/>
</g>
</svg>
