<svg width="29" height="20" viewBox="0 0 29 20" fill="none" xmlns="http://www.w3.org/2000/svg">
<mask id="mask0_11482_7509" style="mask-type:alpha" maskUnits="userSpaceOnUse" x="0" y="0" width="29" height="20">
<rect width="29" height="20" fill="#D9D9D9"/>
</mask>
<g mask="url(#mask0_11482_7509)">
<rect y="20" width="6" height="29" transform="rotate(-90 0 20)" fill="#31373D"/>
<rect y="14" width="8" height="29" transform="rotate(-90 0 14)" fill="#F5F7F8"/>
<path d="M8.6748 9.30176L10.1787 9.49414L9.06934 10.5791L9.36035 12.1426L8.03613 11.25L6.71094 12.1426L7.00195 10.5791L5.89258 9.49414L7.39746 9.30176L8.03613 7.85742L8.6748 9.30176ZM15.1025 9.30176L16.6074 9.49414L15.498 10.5791L15.7891 12.1426L14.4639 11.25L13.1396 12.1426L13.4307 10.5791L12.3213 9.49414L13.8252 9.30176L14.4639 7.85742L15.1025 9.30176ZM21.5312 9.30176L23.0361 9.49414L21.9268 10.5791L22.2168 12.1426L20.8926 11.25L19.5684 12.1426L19.8594 10.5791L18.75 9.49414L20.2539 9.30176L20.8926 7.85742L21.5312 9.30176Z" fill="#DD2033"/>
<rect y="6" width="6" height="29" transform="rotate(-90 0 6)" fill="#009B77"/>
</g>
</svg>
