<svg width="20" height="20" viewBox="0 0 20 20" fill="none" xmlns="http://www.w3.org/2000/svg">
<mask id="mask0_11482_7503" style="mask-type:alpha" maskUnits="userSpaceOnUse" x="0" y="0" width="20" height="20">
<circle cx="10" cy="10" r="10" fill="#D9D9D9"/>
</mask>
<g mask="url(#mask0_11482_7503)">
<rect x="0.00012207" y="20" width="6.66667" height="20" transform="rotate(-90 0.00012207 20)" fill="#31373D"/>
<rect x="0.00012207" y="13.3333" width="6.66667" height="20" transform="rotate(-90 0.00012207 13.3333)" fill="#F5F7F8"/>
<path d="M4.5032 9.45695L4.99999 8.33325L5.49676 9.45695L6.66665 9.60646L5.80377 10.4505L6.03005 11.6666L4.99998 10.9721L3.9699 11.6666L4.19619 10.4505L3.33331 9.60646L4.5032 9.45695Z" fill="#009B77"/>
<path d="M14.5032 9.45695L15 8.33325L15.4968 9.45695L16.6666 9.60646L15.8038 10.4505L16.0301 11.6666L15 10.9721L13.9699 11.6666L14.1962 10.4505L13.3333 9.60646L14.5032 9.45695Z" fill="#009B77"/>
<rect x="0.00012207" y="6.66675" width="6.66667" height="20" transform="rotate(-90 0.00012207 6.66675)" fill="#DD2033"/>
</g>
</svg>
