<svg width="72" height="72" viewBox="0 0 72 72" fill="none" xmlns="http://www.w3.org/2000/svg">
<mask id="mask0_46_11179" style="mask-type:alpha" maskUnits="userSpaceOnUse" x="0" y="0" width="72" height="72">
<circle cx="36" cy="36" r="36" fill="#D9D9D9"/>
</mask>
<g mask="url(#mask0_46_11179)">
<rect width="72" height="72" fill="#005EB8"/>
<rect y="58" width="44" height="72" transform="rotate(-90 0 58)" fill="#F1B434"/>
<rect y="52" width="32" height="72" transform="rotate(-90 0 52)" fill="#A00009"/>
<path d="M10.6001 32L10.6001 29L56.6001 29V32L10.6001 32Z" fill="#F1B434"/>
<path d="M18.6001 38V35L64.6001 35V38L18.6001 38Z" fill="#F1B434"/>
<path d="M7.6001 42V45L53.6001 45V42L7.6001 42Z" fill="#F1B434"/>
<path d="M58 36.103L56.5072 37.9015C51.1161 44.3965 45.7598 47.9602 40.5551 49.3349C35.2987 50.7234 30.5954 49.7742 26.7826 47.9805C23.0223 46.2116 20.0777 43.6054 18.1104 41.5201C17.1158 40.4658 16.3434 39.5151 15.8143 38.8204C15.5493 38.4724 15.3438 38.1866 15.2007 37.9818L14.9593 37.6261L14 36.1454L14.9239 34.6444L15.1583 34.2815C15.2974 34.0726 15.4972 33.781 15.7554 33.4258C16.2706 32.7171 17.0246 31.7468 17.999 30.6706C19.9254 28.5429 22.8243 25.8778 26.5631 24.0673C30.3604 22.2284 35.0638 21.2605 40.3546 22.6779C45.5819 24.0782 50.9952 27.7035 56.5029 34.3078L58 36.103Z" fill="#31373D"/>
<path fill-rule="evenodd" clip-rule="evenodd" d="M36.0218 47.0944L32.6001 44L37.0232 40L32.6001 36L37.0232 32L32.6001 28L36.0133 24.9132C41.2724 25.156 47.4143 28.0719 54.1154 36.1072C47.485 44.0953 41.3245 46.9248 36.0218 47.0944ZM41.6001 32H39.6001V40H41.6001V32ZM45.6001 32H43.6001V40H45.6001V32Z" fill="#F5F7F8"/>
<path d="M23.6001 32H25.6001V40H23.6001V32Z" fill="#F5F7F8"/>
<path d="M27.6001 32H29.6001V40H27.6001V32Z" fill="#F5F7F8"/>
</g>
</svg>
