<svg width="29" height="20" viewBox="0 0 29 20" fill="none" xmlns="http://www.w3.org/2000/svg">
<mask id="mask0_11482_7525" style="mask-type:alpha" maskUnits="userSpaceOnUse" x="0" y="0" width="29" height="20">
<rect width="29" height="20" fill="#D9D9D9"/>
</mask>
<g mask="url(#mask0_11482_7525)">
<rect width="29" height="20" fill="#005EB8"/>
<rect y="18" width="16" height="29" transform="rotate(-90 0 18)" fill="#F1B434"/>
<rect y="16.3999" width="12.8" height="29" transform="rotate(-90 0 16.3999)" fill="#A00009"/>
<path d="M4.26949 8.39995L4.26949 7.19995L22.7973 7.19995V8.39995L4.26949 8.39995Z" fill="#F1B434"/>
<path d="M7.49171 10.8V9.59995L26.0195 9.59995V10.8L7.49171 10.8Z" fill="#F1B434"/>
<path d="M3.06116 12.4V13.6L21.5889 13.6V12.4L3.06116 12.4Z" fill="#F1B434"/>
<path d="M23.3611 10.0413L22.7598 10.7607C20.5884 13.3587 18.431 14.7842 16.3347 15.3341C14.2175 15.8895 12.3231 15.5098 10.7874 14.7923C9.27283 14.0847 8.08682 13.0423 7.29444 12.2081C6.89384 11.7864 6.58271 11.4061 6.36964 11.1283C6.26288 10.989 6.18013 10.8747 6.12247 10.7928L6.02523 10.6505L5.63886 10.0582L6.01097 9.45787L6.10539 9.31272C6.16141 9.22912 6.24188 9.11249 6.34588 8.97044C6.55342 8.68693 6.85709 8.2988 7.24956 7.86832C8.02547 7.01727 9.1931 5.95123 10.699 5.227C12.2285 4.49145 14.1229 4.10431 16.2539 4.67125C18.3594 5.23139 20.5397 6.68149 22.7581 9.32324L23.3611 10.0413Z" fill="#31373D"/>
<path fill-rule="evenodd" clip-rule="evenodd" d="M14.5088 14.4377L13.1306 13.1999L14.9121 11.5999L13.1306 9.99989L14.9121 8.39988L13.1306 6.79988L14.5054 5.56519C16.6236 5.66228 19.0975 6.82866 21.7965 10.0428C19.1259 13.238 16.6446 14.3698 14.5088 14.4377ZM16.7556 8.3999H15.9501V11.5999H16.7556V8.3999ZM18.3667 8.3999H17.5612V11.5999H18.3667V8.3999Z" fill="#F5F7F8"/>
<path d="M9.50562 8.3999H10.3112V11.5999H9.50562V8.3999Z" fill="#F5F7F8"/>
<path d="M11.1167 8.3999H11.9223V11.5999H11.1167V8.3999Z" fill="#F5F7F8"/>
</g>
</svg>
