<svg width="20" height="20" viewBox="0 0 20 20" fill="none" xmlns="http://www.w3.org/2000/svg">
<mask id="mask0_11482_7517" style="mask-type:alpha" maskUnits="userSpaceOnUse" x="0" y="0" width="20" height="20">
<circle cx="10" cy="10" r="10" fill="#D9D9D9"/>
</mask>
<g mask="url(#mask0_11482_7517)">
<rect width="20" height="20" fill="#005EB8"/>
<rect y="16.1111" width="12.2222" height="20" transform="rotate(-90 0 16.1111)" fill="#F1B434"/>
<rect y="14.4443" width="8.88889" height="20" transform="rotate(-90 0 14.4443)" fill="#A00009"/>
<path d="M2.94448 8.889L2.94448 8.05566L15.7223 8.05566V8.889L2.94448 8.889Z" fill="#F1B434"/>
<path d="M5.1667 10.5557V9.72233L17.9445 9.72233V10.5557L5.1667 10.5557Z" fill="#F1B434"/>
<path d="M2.11115 11.6668V12.5001L14.8889 12.5001V11.6668L2.11115 11.6668Z" fill="#F1B434"/>
<path d="M16.1111 10.0287L15.6964 10.5283C14.1989 12.3325 12.711 13.3224 11.2653 13.7043C9.80516 14.0899 8.4987 13.8263 7.43958 13.328C6.39505 12.8367 5.57711 12.1127 5.03064 11.5335C4.75437 11.2406 4.53979 10.9765 4.39285 10.7836C4.31922 10.6869 4.26215 10.6075 4.22239 10.5506L4.15532 10.4518L3.88886 10.0405L4.14549 9.62356L4.21061 9.52276C4.24924 9.46471 4.30474 9.38371 4.37646 9.28507C4.51959 9.08819 4.72902 8.81865 4.99969 8.51971C5.5348 7.9287 6.34006 7.18839 7.37862 6.68546C8.43342 6.17466 9.73991 5.90581 11.2096 6.29952C12.6616 6.68851 14.1653 7.69552 15.6952 9.53007L16.1111 10.0287Z" fill="#31373D"/>
<path fill-rule="evenodd" clip-rule="evenodd" d="M10.0061 13.0818L9.0556 12.2223L10.2842 11.1112L9.0556 10.0001L10.2842 8.88895L9.0556 7.77784L10.0037 6.92041C11.4646 6.98784 13.1707 7.79782 15.0321 10.0299C13.1903 12.2488 11.4791 13.0348 10.0061 13.0818ZM11.5556 8.88896H11V11.1112H11.5556V8.88896ZM12.6667 8.88896H12.1112V11.1112H12.6667V8.88896Z" fill="#F5F7F8"/>
<path d="M6.5556 8.88896H7.11116V11.1112H6.5556V8.88896Z" fill="#F5F7F8"/>
<path d="M7.66671 8.88896H8.22227V11.1112H7.66671V8.88896Z" fill="#F5F7F8"/>
</g>
</svg>
