<svg width="20" height="20" viewBox="0 0 20 20" fill="none" xmlns="http://www.w3.org/2000/svg">
<mask id="mask0_11482_7535" style="mask-type:alpha" maskUnits="userSpaceOnUse" x="0" y="0" width="20" height="20">
<circle cx="10" cy="10" r="10" fill="#D9D9D9"/>
</mask>
<g mask="url(#mask0_11482_7535)">
<rect width="20" height="20" fill="#004692"/>
<path d="M11.2222 9.72217H17.0555V11.81C17.0555 13.7056 15.8999 15.4097 14.1388 16.1111C12.3778 15.4097 11.2222 13.7056 11.2222 11.81V9.72217Z" fill="#F1B434"/>
<circle cx="12.8889" cy="11.389" r="0.833333" fill="#FDEFD3"/>
<circle cx="15.3889" cy="11.389" r="0.833333" fill="#936846"/>
<circle cx="14.1388" cy="13.7501" r="0.972222" fill="#008259"/>
<mask id="mask1_11482_7535" style="mask-type:alpha" maskUnits="userSpaceOnUse" x="0" y="0" width="10" height="10">
<path d="M0 10C-8.69081e-07 4.47715 4.47715 -5.43618e-08 10 -1.21421e-07L10 10L0 10Z" fill="#002F6C"/>
</mask>
<g mask="url(#mask1_11482_7535)">
<rect x="-0.000244141" width="10" height="10" fill="#004692"/>
<path d="M3.47843 0.870386L2.88917 1.45964L11.0908 9.66131L11.6801 9.07205L3.47843 0.870386Z" fill="#F5F7F8"/>
<path d="M1.90708 2.44173L0.924989 3.42383L9.12665 11.6255L10.1087 10.6434L1.90708 2.44173Z" fill="#F5F7F8"/>
<path d="M1.90708 2.44173L2.88917 1.45964L11.0908 9.66131L10.1087 10.6434L1.90708 2.44173Z" fill="#DD2033"/>
<path d="M9.99998 3.33325V4.72214L4.7222 4.72214L4.7222 9.99993H3.33331V3.33325H9.99998Z" fill="#F5F7F8"/>
<path d="M10 -0.555664V0.833225L1.38889 0.833224L1.38889 9.99989H0V-0.555664H10Z" fill="#F5F7F8"/>
<path fill-rule="evenodd" clip-rule="evenodd" d="M0.833313 9.99992H3.33331L3.33331 3.33325L9.99998 3.33325V0.833252H3.33331H0.833314L0.833314 3.33325L0.833313 9.99992Z" fill="#DD2033"/>
</g>
</g>
</svg>
