<svg width="72" height="72" viewBox="0 0 72 72" fill="none" xmlns="http://www.w3.org/2000/svg">
<mask id="mask0_46_18226" style="mask-type:alpha" maskUnits="userSpaceOnUse" x="0" y="0" width="72" height="72">
<circle cx="36" cy="36" r="36" fill="#D9D9D9"/>
</mask>
<g mask="url(#mask0_46_18226)">
<rect width="72" height="72" fill="#004692"/>
<rect width="38" height="38" fill="#F5F7F8"/>
<rect width="12" height="36" transform="matrix(1 1.31134e-07 6.55671e-08 -1 0 36)" fill="#004692"/>
<rect width="12" height="35.9999" transform="matrix(1 1.31134e-07 6.55671e-08 -1 24 36.0005)" fill="#DD2033"/>
<path d="M38 44L36.2116 48.0453L32 48.5836L35.1064 51.6221L34.2917 56L38 53.5L41.7083 56L40.8936 51.6221L44 48.5836L39.7884 48.0453L38 44Z" fill="#F5F7F8"/>
<path fill-rule="evenodd" clip-rule="evenodd" d="M44.7632 44L47.1272 47.8437H53.8816V61.25L48.8158 53.1875L42 64.25H45.3158L45.9849 63.0312H51.6382L54.2039 67.7188H57.7961L60.3618 63.0312H66.0151L66.6842 64.25H70L63.1842 53.1875L58.1184 61.25V53.8438H61.1579L63.4145 50.1875H58.1184V47.8437H64.8728L67.2368 44H44.7632ZM50.2013 60.4063L48.8158 57.875L47.4261 60.4063H50.2013ZM64.5739 60.4063H61.7987L63.1842 57.875L64.5739 60.4063Z" fill="#F5F7F8"/>
<path d="M42.2116 71.0453L44 67L45.7884 71.0453L50 71.5836L46.8936 74.6221L47.7083 79L44 76.5L40.2917 79L41.1064 74.6221L38 71.5836L42.2116 71.0453Z" fill="#F5F7F8"/>
</g>
</svg>
