<svg width="20" height="20" viewBox="0 0 20 20" fill="none" xmlns="http://www.w3.org/2000/svg">
<mask id="mask0_11482_7579" style="mask-type:alpha" maskUnits="userSpaceOnUse" x="0" y="0" width="20" height="20">
<circle cx="10" cy="10" r="10" fill="#D9D9D9"/>
</mask>
<g mask="url(#mask0_11482_7579)">
<rect width="20" height="20" fill="#004692"/>
<rect width="10.5556" height="10.5556" fill="#F5F7F8"/>
<rect width="3.33333" height="10" transform="matrix(1 3.64262e-08 2.36041e-07 -1 0 10)" fill="#004692"/>
<rect width="3.33333" height="9.99997" transform="matrix(1 1.31134e-07 6.55671e-08 -1 6.66667 10.0002)" fill="#DD2033"/>
<path d="M10.5556 12.2222L10.0588 13.3459L8.88889 13.4954L9.75176 14.3394L9.52548 15.5555L10.5556 14.8611L11.5856 15.5555L11.3593 14.3394L12.2222 13.4954L11.0523 13.3459L10.5556 12.2222Z" fill="#F5F7F8"/>
<path fill-rule="evenodd" clip-rule="evenodd" d="M12.4342 12.2222L13.0909 13.2899H14.9671V17.0138L13.5599 14.7743L11.6667 17.8472H12.5877L12.7736 17.5086H14.3439L15.0566 18.8107H16.0545L16.7672 17.5086H18.3375L18.5234 17.8472H19.4444L17.5512 14.7743L16.144 17.0138V14.9565H16.9883L17.6151 13.9409H16.144V13.2899H18.0202L18.6769 12.2222H12.4342ZM13.9448 16.7795L13.5599 16.0763L13.1739 16.7795H13.9448ZM17.9372 16.7795H17.1663L17.5512 16.0763L17.9372 16.7795Z" fill="#F5F7F8"/>
<path d="M11.7254 19.7348L12.2222 18.6111L12.719 19.7348L13.8889 19.8843L13.026 20.7283L13.2523 21.9444L12.2222 21.2499L11.1921 21.9444L11.4184 20.7283L10.5556 19.8843L11.7254 19.7348Z" fill="#F5F7F8"/>
</g>
</svg>
