<svg width="29" height="20" viewBox="0 0 29 20" fill="none" xmlns="http://www.w3.org/2000/svg">
<mask id="mask0_11482_7586" style="mask-type:alpha" maskUnits="userSpaceOnUse" x="0" y="0" width="29" height="20">
<rect width="29" height="20" fill="#D9D9D9"/>
</mask>
<g mask="url(#mask0_11482_7586)">
<rect y="-4.3999" width="29" height="28.8" fill="#004692"/>
<rect y="-3.6001" width="14.0972" height="15.2" fill="#F5F7F8"/>
<rect width="4.43055" height="10.8" transform="matrix(1 5.24537e-08 1.63918e-07 -1 0 10.8)" fill="#004692"/>
<rect width="4.43055" height="10.8" transform="matrix(1 1.3023e-07 6.60224e-08 -1 8.86111 10.8)" fill="#DD2033"/>
<path d="M17.1499 7.6001L16.6001 8.84837L15.3056 9.01445L16.2604 9.95206L16.01 11.303L17.1499 10.5315L18.2897 11.303L18.0393 9.95206L18.9942 9.01445L17.6996 8.84837L17.1499 7.6001Z" fill="#F5F7F8"/>
<path fill-rule="evenodd" clip-rule="evenodd" d="M19.2287 7.6001L19.9554 8.78617H22.0316V12.923L20.4744 10.4351L18.3794 13.8487H19.3986L19.6043 13.4726H21.342L22.1307 14.919H23.2348L24.0235 13.4726H25.7612L25.9669 13.8487H26.9861L24.8911 10.4351L23.3339 12.923V10.6376H24.2682L24.9618 9.50938H23.3339V8.78617H25.4101L26.1368 7.6001H19.2287ZM20.9003 12.6626L20.4744 11.8815L20.0473 12.6626H20.9003ZM25.3182 12.6626H24.4652L24.8911 11.8815L25.3182 12.6626Z" fill="#F5F7F8"/>
<path d="M18.4444 15.9455L18.9942 14.6972L19.5439 15.9455L20.8385 16.1116L19.8836 17.0492L20.134 18.4001L18.9942 17.6287L17.8543 18.4001L18.1047 17.0492L17.1499 16.1116L18.4444 15.9455Z" fill="#F5F7F8"/>
</g>
</svg>
