<svg width="72" height="72" viewBox="0 0 72 72" fill="none" xmlns="http://www.w3.org/2000/svg">
<mask id="mask0_46_18528" style="mask-type:alpha" maskUnits="userSpaceOnUse" x="0" y="0" width="72" height="72">
<circle cx="36" cy="36" r="36" fill="#D9D9D9"/>
</mask>
<g mask="url(#mask0_46_18528)">
<rect x="0.00012207" y="72.0001" width="24" height="72" transform="rotate(-90 0.00012207 72.0001)" fill="#008259"/>
<rect x="0.00012207" y="47.9999" width="24" height="72" transform="rotate(-90 0.00012207 47.9999)" fill="#F5F7F8"/>
<rect x="0.00012207" y="23.9999" width="24" height="72" transform="rotate(-90 0.00012207 23.9999)" fill="#DD2033"/>
<path d="M33.3764 17.3711L34.8667 14L36.357 17.3711L39.8667 17.8196L37.2781 20.3517L37.9569 24L34.8667 21.9167L31.7765 24L32.4553 20.3517L29.8667 17.8196L33.3764 17.3711Z" fill="#F1B434"/>
<path d="M36.3999 30L41.5428 35.1429L44.3999 33L48.3999 36L47.2292 42H25.5706L24.3999 36L28.3999 33L31.257 35.1429L36.3999 30Z" fill="#F1B434"/>
<path d="M17.5318 19.9042L18.2446 23.5205L15.6269 25.901L19.1997 26.4904L20.7362 29.8682L22.0726 26.3892L25.7989 26.3233L23.1503 23.7242L23.8184 20.1652L20.6862 21.8108L17.5318 19.9042Z" fill="#F1B434"/>
<path d="M11.9096 33.3711L13.3999 30L14.8902 33.3711L18.3999 33.8196L15.8113 36.3517L16.4901 40L13.3999 37.9167L10.3097 40L10.9885 36.3517L8.3999 33.8196L11.9096 33.3711Z" fill="#F1B434"/>
<path d="M57.3999 30L55.9096 33.3711L52.3999 33.8196L54.9885 36.3517L54.3097 40L57.3999 37.9167L60.4901 40L59.8113 36.3517L62.3999 33.8196L58.8902 33.3711L57.3999 30Z" fill="#F1B434"/>
<path d="M49.1134 21.8109L52.2678 19.9043L51.555 23.5205L54.1727 25.901L50.5998 26.4904L49.0634 29.8682L47.727 26.3892L44.0007 26.3233L46.6493 23.7242L45.9812 20.1652L49.1134 21.8109Z" fill="#F1B434"/>
</g>
</svg>
