<svg width="20" height="20" viewBox="0 0 20 20" fill="none" xmlns="http://www.w3.org/2000/svg">
<mask id="mask0_11482_7623" style="mask-type:alpha" maskUnits="userSpaceOnUse" x="0" y="0" width="20" height="20">
<circle cx="10" cy="10" r="10" fill="#D9D9D9"/>
</mask>
<g mask="url(#mask0_11482_7623)">
<rect x="0.00012207" y="20" width="6.66667" height="20" transform="rotate(-90 0.00012207 20)" fill="#008259"/>
<rect x="0.00012207" y="13.3333" width="6.66667" height="20" transform="rotate(-90 0.00012207 13.3333)" fill="#F5F7F8"/>
<rect x="0.00012207" y="6.66675" width="6.66667" height="20" transform="rotate(-90 0.00012207 6.66675)" fill="#DD2033"/>
<path d="M9.27122 4.82533L9.68521 3.88892L10.0992 4.82533L11.0741 4.94993L10.355 5.65329L10.5436 6.66669L9.6852 6.08799L8.82681 6.66669L9.01538 5.65329L8.29631 4.94993L9.27122 4.82533Z" fill="#F1B434"/>
<path d="M10.1111 8.33336L11.5397 9.76193L12.3333 9.16669L13.4444 10L13.1192 11.6667H7.10296L6.77776 10L7.88887 9.16669L8.68252 9.76193L10.1111 8.33336Z" fill="#F1B434"/>
<path d="M4.86996 5.52898L5.06794 6.5335L4.34081 7.19474L5.33327 7.35847L5.76006 8.29676L6.13129 7.33036L7.16638 7.31205L6.43064 6.59008L6.61623 5.60148L5.74617 6.0586L4.86996 5.52898Z" fill="#F1B434"/>
<path d="M3.30822 9.26977L3.72221 8.33336L4.13619 9.26977L5.11109 9.39437L4.39203 10.0977L4.5806 11.1111L3.7222 10.5324L2.86381 11.1111L3.05238 10.0977L2.33331 9.39437L3.30822 9.26977Z" fill="#F1B434"/>
<path d="M15.9444 8.33336L15.5304 9.26977L14.5555 9.39437L15.2746 10.0977L15.086 11.1111L15.9444 10.5324L16.8028 11.1111L16.6142 10.0977L17.3333 9.39437L16.3584 9.26977L15.9444 8.33336Z" fill="#F1B434"/>
<path d="M13.6426 6.0586L14.5188 5.52899L14.3208 6.5335L15.048 7.19474L14.0555 7.35847L13.6287 8.29676L13.2575 7.33036L12.2224 7.31205L12.9581 6.59008L12.7726 5.60148L13.6426 6.0586Z" fill="#F1B434"/>
</g>
</svg>
