<svg width="29" height="20" viewBox="0 0 29 20" fill="none" xmlns="http://www.w3.org/2000/svg">
<mask id="mask0_11482_7629" style="mask-type:alpha" maskUnits="userSpaceOnUse" x="0" y="0" width="29" height="20">
<rect width="29" height="20" fill="#D9D9D9"/>
</mask>
<g mask="url(#mask0_11482_7629)">
<rect y="20" width="6.4" height="29" transform="rotate(-90 0 20)" fill="#008259"/>
<rect x="0.000244141" y="13.6001" width="7.2" height="29" transform="rotate(-90 0.000244141 13.6001)" fill="#F5F7F8"/>
<rect y="6.3999" width="6.4" height="29" transform="rotate(-90 0 6.3999)" fill="#DD2033"/>
<path d="M13.685 5.34844L14.2852 4L14.8855 5.34844L16.2991 5.52785L15.2565 6.5407L15.5299 8L14.2852 7.16667L13.0406 8L13.314 6.5407L12.2713 5.52785L13.685 5.34844Z" fill="#F1B434"/>
<path d="M14.2986 10.4L16.37 12.4571L17.5208 11.6L19.1319 12.8L18.6604 15.2H9.93682L9.46528 12.8L11.0764 11.6L12.2272 12.4571L14.2986 10.4Z" fill="#F1B434"/>
<path d="M7.30313 6.36169L7.59021 7.8082L6.53587 8.76039L7.97493 8.99615L8.59379 10.3473L9.13206 8.95568L10.6329 8.92931L9.56613 7.88967L9.83523 6.46609L8.57365 7.12434L7.30313 6.36169Z" fill="#F1B434"/>
<path d="M5.03861 11.7484L5.6389 10.4L6.23917 11.7484L7.65278 11.9278L6.61013 12.9407L6.88356 14.4L5.63889 13.5667L4.39422 14.4L4.66764 12.9407L3.625 11.9278L5.03861 11.7484Z" fill="#F1B434"/>
<path d="M23.3611 10.4L22.7608 11.7484L21.3472 11.9279L22.3899 12.9407L22.1164 14.4L23.3611 13.5667L24.6058 14.4L24.3324 12.9407L25.375 11.9279L23.9614 11.7484L23.3611 10.4Z" fill="#F1B434"/>
<path d="M20.0235 7.12434L21.294 6.3617L21.0069 7.8082L22.0613 8.76039L20.6222 8.99616L20.0033 10.3473L19.4651 8.95568L17.9642 8.92931L19.031 7.88967L18.7619 6.46609L20.0235 7.12434Z" fill="#F1B434"/>
</g>
</svg>
