<svg width="72" height="72" viewBox="0 0 72 72" fill="none" xmlns="http://www.w3.org/2000/svg">
<mask id="mask0_46_18711" style="mask-type:alpha" maskUnits="userSpaceOnUse" x="0" y="0" width="72" height="72">
<circle cx="36" cy="36" r="36" fill="#D9D9D9"/>
</mask>
<g mask="url(#mask0_46_18711)">
<rect width="72" height="72" fill="#004692"/>
<path d="M22.2002 36L20.1137 40.7195L15.2002 41.3475L18.8243 44.8924L17.8739 50L22.2002 47.0833L26.5265 50L25.5761 44.8924L29.2002 41.3475L24.2867 40.7195L22.2002 36Z" fill="#F5F7F8"/>
<path d="M14.2002 21L12.7098 24.3711L9.2002 24.8196L11.7888 27.3517L11.11 31L14.2002 28.9167L17.2904 31L16.6116 27.3517L19.2002 24.8196L15.6905 24.3711L14.2002 21Z" fill="#F5F7F8"/>
<path d="M22.2002 9L20.7098 12.3711L17.2002 12.8196L19.7888 15.3517L19.11 19L22.2002 16.9167L25.2904 19L24.6116 15.3517L27.2002 12.8196L23.6905 12.3711L22.2002 9Z" fill="#F5F7F8"/>
<path d="M31.2002 19L29.7099 22.3711L26.2002 22.8196L28.7888 25.3517L28.11 29L31.2002 26.9167L34.2904 29L33.6116 25.3517L36.2002 22.8196L32.6905 22.3711L31.2002 19Z" fill="#F5F7F8"/>
<path d="M36.2002 44H73.2002V50H36.2002V44Z" fill="#F1B434"/>
<path d="M74.2002 41H36.2002C49.5762 25.6737 67.1069 15.9474 74.2002 13V41Z" fill="#F1B434"/>
</g>
</svg>
