<svg width="29" height="20" viewBox="0 0 29 20" fill="none" xmlns="http://www.w3.org/2000/svg">
<mask id="mask0_11482_7642" style="mask-type:alpha" maskUnits="userSpaceOnUse" x="0" y="0" width="29" height="20">
<rect width="29" height="20" fill="#D9D9D9"/>
</mask>
<g mask="url(#mask0_11482_7642)">
<rect y="-4.3999" width="29" height="28.8" fill="#004692"/>
<path d="M7.08593 10.6927L6.40116 12.2121L4.78859 12.4143L5.97798 13.5556L5.66607 15.2L7.08592 14.261L8.50577 15.2L8.19386 13.5556L9.38324 12.4143L7.77068 12.2121L7.08593 10.6927Z" fill="#F5F7F8"/>
<path d="M4.46041 5.86341L3.97129 6.94874L2.81946 7.09315L3.66902 7.90837L3.44623 9.08293L4.4604 8.41219L5.47458 9.08293L5.25179 7.90837L6.10135 7.09315L4.94952 6.94874L4.46041 5.86341Z" fill="#F5F7F8"/>
<path d="M7.08593 2L6.5968 3.08533L5.44497 3.22974L6.29453 4.04495L6.07174 5.21951L7.08592 4.54878L8.1001 5.21951L7.8773 4.04495L8.72687 3.22974L7.57504 3.08533L7.08593 2Z" fill="#F5F7F8"/>
<path d="M10.0396 5.21951L9.55051 6.30484L8.39868 6.44925L9.24824 7.26446L9.02544 8.43902L10.0396 7.76829L11.0538 8.43902L10.831 7.26446L11.6806 6.44925L10.5287 6.30484L10.0396 5.21951Z" fill="#F5F7F8"/>
<path d="M10.875 14.7999H26.1806V17.1999H10.875V14.7999Z" fill="#F1B434"/>
<path d="M26.1806 13.5999H10.875C16.2626 7.46938 23.3235 3.57885 26.1806 2.3999C26.1806 2.3999 23.5478 5.86805 23.6833 8.3999C23.8034 10.6466 26.1806 13.5999 26.1806 13.5999Z" fill="#F1B434"/>
</g>
</svg>
