<svg width="20" height="20" viewBox="0 0 20 20" fill="none" xmlns="http://www.w3.org/2000/svg">
<mask id="mask0_11482_7637" style="mask-type:alpha" maskUnits="userSpaceOnUse" x="0" y="0" width="20" height="20">
<circle cx="10" cy="10" r="10" fill="#D9D9D9"/>
</mask>
<g mask="url(#mask0_11482_7637)">
<rect width="20" height="20" fill="#004692"/>
<path d="M6.16672 10L5.58714 11.311L4.22227 11.4854L5.22896 12.4701L4.96496 13.8889L6.16671 13.0787L7.36847 13.8889L7.10447 12.4701L8.11116 11.4854L6.74629 11.311L6.16672 10Z" fill="#F5F7F8"/>
<path d="M3.9445 5.83333L3.53051 6.76975L2.5556 6.89434L3.27467 7.59771L3.0861 8.61111L3.94449 8.03241L4.80289 8.61111L4.61432 7.59771L5.33338 6.89434L4.35848 6.76975L3.9445 5.83333Z" fill="#F5F7F8"/>
<path d="M6.16672 2.5L5.75273 3.43641L4.77783 3.56101L5.49689 4.26437L5.30832 5.27778L6.16671 4.69907L7.02511 5.27778L6.83654 4.26437L7.5556 3.56101L6.5807 3.43641L6.16672 2.5Z" fill="#F5F7F8"/>
<path d="M8.66672 5.27778L8.25273 6.21419L7.27783 6.33879L7.99689 7.04215L7.80832 8.05556L8.66671 7.47685L9.52511 8.05556L9.33654 7.04215L10.0556 6.33879L9.0807 6.21419L8.66672 5.27778Z" fill="#F5F7F8"/>
<path d="M10.0556 12.2222H20.3334V13.8889H10.0556V12.2222Z" fill="#F1B434"/>
<path d="M20.6112 11.3889H10.0556C13.7712 7.13155 18.6408 4.4298 20.6112 3.61108V11.3889Z" fill="#F1B434"/>
</g>
</svg>
