<svg width="72" height="72" viewBox="0 0 72 72" fill="none" xmlns="http://www.w3.org/2000/svg">
<mask id="mask0_46_18882" style="mask-type:alpha" maskUnits="userSpaceOnUse" x="0" y="0" width="72" height="72">
<circle cx="36" cy="36" r="36" fill="#D9D9D9"/>
</mask>
<g mask="url(#mask0_46_18882)">
<rect width="72" height="72" fill="#009B77"/>
<path d="M37.9058 11.0842L38.8001 9.06152L39.6943 11.0842L41.8 11.3533L40.2469 12.8726L40.6542 15.0615L38.8 13.8115L36.9459 15.0615L37.3532 12.8726L35.8 11.3533L37.9058 11.0842Z" fill="#F5F7F8"/>
<path d="M45.9058 16.0842L46.8001 14.0615L47.6943 16.0842L49.8 16.3533L48.2469 17.8726L48.6542 20.0615L46.8 18.8115L44.9459 20.0615L45.3532 17.8726L43.8 16.3533L45.9058 16.0842Z" fill="#F5F7F8"/>
<path d="M37.9058 20.0842L38.8001 18.0615L39.6943 20.0842L41.8 20.3533L40.2469 21.8726L40.6542 24.0615L38.8 22.8115L36.9459 24.0615L37.3532 21.8726L35.8 20.3533L37.9058 20.0842Z" fill="#F5F7F8"/>
<path d="M30.8001 22.0615L29.9058 24.0842L27.8 24.3533L29.3532 25.8726L28.9459 28.0615L30.8 26.8115L32.6542 28.0615L32.2469 25.8726L33.8 24.3533L31.6943 24.0842L30.8001 22.0615Z" fill="#F5F7F8"/>
<path d="M38.8001 27.0615L37.9058 29.0842L35.8 29.3533L37.3532 30.8726L36.9459 33.0615L38.8 31.8115L40.6542 33.0615L40.2469 30.8726L41.8 29.3533L39.6943 29.0842L38.8001 27.0615Z" fill="#F5F7F8"/>
<path d="M55.4886 20.6476C54.7332 16.2717 52.1443 12.6867 48.6825 10.5928C54.4693 11.8437 59.2016 16.4857 60.2706 22.6781C61.6764 30.8218 56.2143 38.5633 48.0705 39.9692C42.8996 40.8618 37.8908 38.9855 34.5632 35.4119C37.346 37.1264 40.7044 37.8722 44.1321 37.2805C51.7625 35.9633 56.847 28.5165 55.4886 20.6476Z" fill="#F5F7F8"/>
<rect x="-0.199951" y="72" width="72" height="24" transform="rotate(-90 -0.199951 72)" fill="#DD2033"/>
<path d="M19.3 14L23.8 18.5V9.5L19.3 14Z" fill="#E26E00"/>
<path d="M19.3 29.5L23.8 34V25L19.3 29.5Z" fill="#E26E00"/>
<path d="M4.30005 29.5L-0.199951 34V25L4.30005 29.5Z" fill="#E26E00"/>
<path d="M19.3 45L23.8 49.5V40.5L19.3 45Z" fill="#E26E00"/>
<path d="M4.30005 45L-0.199951 49.5V40.5L4.30005 45Z" fill="#E26E00"/>
<path d="M19.3 60.5L23.8 65V56L19.3 60.5Z" fill="#E26E00"/>
<path fill-rule="evenodd" clip-rule="evenodd" d="M14.9977 34H9.60239L7.80005 35.4419V38.5581L9.60239 40H14.9977L16.8 38.5581V35.4419L14.9977 34ZM16.05 31H8.55005L4.80005 34V40L8.55005 43H16.05L19.8 40V34L16.05 31Z" fill="#009B77"/>
<path fill-rule="evenodd" clip-rule="evenodd" d="M14.9977 49H9.60239L7.80005 50.4419V53.5581L9.60239 55H14.9977L16.8 53.5581V50.4419L14.9977 49ZM16.05 46H8.55005L4.80005 49V55L8.55005 58H16.05L19.8 55V49L16.05 46Z" fill="#009B77"/>
<path fill-rule="evenodd" clip-rule="evenodd" d="M14.9977 19H9.60239L7.80005 20.4419V23.5581L9.60239 25H14.9977L16.8 23.5581V20.4419L14.9977 19ZM16.05 16H8.55005L4.80005 19V25L8.55005 28H16.05L19.8 25V19L16.05 16Z" fill="#009B77"/>
<path fill-rule="evenodd" clip-rule="evenodd" d="M14.9977 4H9.60239L7.80005 5.44187V8.55813L9.60239 10H14.9977L16.8 8.55813V5.44187L14.9977 4ZM16.05 1H8.55005L4.80005 4V10L8.55005 13H16.05L19.8 10V4L16.05 1Z" fill="#009B77"/>
<path fill-rule="evenodd" clip-rule="evenodd" d="M14.9977 64H9.60239L7.80005 65.4419V68.5581L9.60239 70H14.9977L16.8 68.5581V65.4419L14.9977 64ZM16.05 61H8.55005L4.80005 64V70L8.55005 73H16.05L19.8 70V64L16.05 61Z" fill="#009B77"/>
</g>
</svg>
