<svg width="29" height="20" viewBox="0 0 29 20" fill="none" xmlns="http://www.w3.org/2000/svg">
<mask id="mask0_11482_7670" style="mask-type:alpha" maskUnits="userSpaceOnUse" x="0" y="0" width="29" height="20">
<rect width="29" height="20" fill="#D9D9D9"/>
</mask>
<g mask="url(#mask0_11482_7670)">
<rect width="29" height="20" fill="#009B77"/>
<path d="M16.9593 2.80906L17.3194 2L17.6796 2.80906L18.5278 2.91671L17.9022 3.52442L18.0662 4.4L17.3194 3.9L16.5726 4.4L16.7367 3.52442L16.1111 2.91671L16.9593 2.80906Z" fill="#F5F7F8"/>
<path d="M20.1815 4.80906L20.5417 4L20.9018 4.80906L21.75 4.91671L21.1244 5.52442L21.2885 6.4L20.5417 5.9L19.7949 6.4L19.9589 5.52442L19.3333 4.91671L20.1815 4.80906Z" fill="#F5F7F8"/>
<path d="M16.9593 6.40906L17.3194 5.6L17.6796 6.40906L18.5278 6.51671L17.9022 7.12442L18.0662 8L17.3194 7.5L16.5726 8L16.7367 7.12442L16.1111 6.51671L16.9593 6.40906Z" fill="#F5F7F8"/>
<path d="M14.0972 7.2L13.7371 8.00906L12.8889 8.11671L13.5145 8.72442L13.3504 9.6L14.0972 9.1L14.844 9.6L14.68 8.72442L15.3056 8.11671L14.4574 8.00906L14.0972 7.2Z" fill="#F5F7F8"/>
<path d="M17.3194 9.2L16.9593 10.0091L16.1111 10.1167L16.7367 10.7244L16.5726 11.6L17.3194 11.1L18.0662 11.6L17.9022 10.7244L18.5278 10.1167L17.6796 10.0091L17.3194 9.2Z" fill="#F5F7F8"/>
<path d="M24.0412 6.63444C23.7369 4.88405 22.6942 3.45007 21.2999 2.61251C23.6307 3.11287 25.5367 4.96965 25.9673 7.44663C26.5335 10.7041 24.3335 13.8007 21.0534 14.3631C18.9706 14.7201 16.9532 13.9696 15.6129 12.5401C16.7338 13.2259 18.0865 13.5243 19.4671 13.2876C22.5404 12.7607 24.5883 9.78198 24.0412 6.63444Z" fill="#F5F7F8"/>
<rect x="-0.0805359" y="24.3999" width="28.8" height="9.66667" transform="rotate(-90 -0.0805359 24.3999)" fill="#DD2033"/>
<path d="M7.77363 1.1999L9.58613 2.9999V-0.600098L7.77363 1.1999Z" fill="#E26E00"/>
<path d="M7.77363 7.3999L9.58613 9.1999V5.5999L7.77363 7.3999Z" fill="#E26E00"/>
<path d="M1.73196 7.3999L-0.0805359 9.1999V5.5999L1.73196 7.3999Z" fill="#E26E00"/>
<path d="M7.77363 13.5999L9.58613 15.3999V11.7999L7.77363 13.5999Z" fill="#E26E00"/>
<path d="M1.73196 13.5999L-0.0805359 15.3999V11.7999L1.73196 13.5999Z" fill="#E26E00"/>
<path d="M7.77363 19.7999L9.58613 21.5999V17.9999L7.77363 19.7999Z" fill="#E26E00"/>
<path fill-rule="evenodd" clip-rule="evenodd" d="M6.04074 9.2H3.86763L3.14168 9.77675V11.0232L3.86763 11.6H6.04074L6.76668 11.0232V9.77675L6.04074 9.2ZM6.4646 8H3.44377L1.93335 9.2V11.6L3.44377 12.8H6.4646L7.97502 11.6V9.2L6.4646 8Z" fill="#009B77"/>
<path fill-rule="evenodd" clip-rule="evenodd" d="M6.04074 15.2H3.86763L3.14168 15.7767V17.0232L3.86763 17.6H6.04074L6.76668 17.0232V15.7767L6.04074 15.2ZM6.4646 14H3.44377L1.93335 15.2V17.6L3.44377 18.8H6.4646L7.97502 17.6V15.2L6.4646 14Z" fill="#009B77"/>
<path fill-rule="evenodd" clip-rule="evenodd" d="M6.04074 3.2H3.86763L3.14168 3.77675V5.02325L3.86763 5.6H6.04074L6.76668 5.02325V3.77675L6.04074 3.2ZM6.4646 2H3.44377L1.93335 3.2V5.6L3.44377 6.8H6.4646L7.97502 5.6V3.2L6.4646 2Z" fill="#009B77"/>
<path fill-rule="evenodd" clip-rule="evenodd" d="M6.04074 -2.8H3.86763L3.14168 -2.22325V-0.97675L3.86763 -0.4H6.04074L6.76668 -0.97675V-2.22325L6.04074 -2.8ZM6.4646 -4H3.44377L1.93335 -2.8V-0.4L3.44377 0.8H6.4646L7.97502 -0.4V-2.8L6.4646 -4Z" fill="#009B77"/>
<path fill-rule="evenodd" clip-rule="evenodd" d="M6.04074 21.2H3.86763L3.14168 21.7767V23.0233L3.86763 23.6H6.04074L6.76668 23.0233V21.7767L6.04074 21.2ZM6.4646 20H3.44377L1.93335 21.2V23.6L3.44377 24.8H6.4646L7.97502 23.6V21.2L6.4646 20Z" fill="#009B77"/>
</g>
</svg>
