<svg width="20" height="20" viewBox="0 0 20 20" fill="none" xmlns="http://www.w3.org/2000/svg">
<mask id="mask0_11482_7663" style="mask-type:alpha" maskUnits="userSpaceOnUse" x="0" y="0" width="20" height="20">
<circle cx="10" cy="10" r="10" fill="#D9D9D9"/>
</mask>
<g mask="url(#mask0_11482_7663)">
<rect width="20" height="20" fill="#009B77"/>
<path d="M10.5294 3.07894L10.7778 2.51709L11.0262 3.07894L11.6111 3.1537L11.1797 3.57571L11.2928 4.18376L10.7778 3.83653L10.2627 4.18376L10.3759 3.57571L9.94445 3.1537L10.5294 3.07894Z" fill="#F5F7F8"/>
<path d="M12.7516 4.46783L13 3.90598L13.2484 4.46783L13.8333 4.54258L13.4019 4.9646L13.515 5.57265L13 5.22542L12.485 5.57265L12.5981 4.9646L12.1667 4.54258L12.7516 4.46783Z" fill="#F5F7F8"/>
<path d="M10.5294 5.57894L10.7778 5.01709L11.0262 5.57894L11.6111 5.6537L11.1797 6.07571L11.2928 6.68376L10.7778 6.33653L10.2627 6.68376L10.3759 6.07571L9.94445 5.6537L10.5294 5.57894Z" fill="#F5F7F8"/>
<path d="M8.55557 6.1282L8.30717 6.69005L7.72223 6.76481L8.15367 7.18683L8.04052 7.79487L8.55556 7.44765L9.0706 7.79487L8.95746 7.18683L9.3889 6.76481L8.80395 6.69005L8.55557 6.1282Z" fill="#F5F7F8"/>
<path d="M10.7778 7.51709L10.5294 8.07894L9.94445 8.1537L10.3759 8.57571L10.2627 9.18376L10.7778 8.83653L11.2928 9.18376L11.1797 8.57571L11.6111 8.1537L11.0262 8.07894L10.7778 7.51709Z" fill="#F5F7F8"/>
<path d="M15.4135 5.73545C15.2037 4.51991 14.4845 3.52408 13.5229 2.94245C15.1304 3.28992 16.4449 4.57935 16.7418 6.29947C17.1323 8.56162 15.6151 10.712 13.3529 11.1025C11.9165 11.3505 10.5252 10.8293 9.60088 9.83664C10.3739 10.3129 11.3068 10.5201 12.2589 10.3557C14.3785 9.9898 15.7908 7.92125 15.4135 5.73545Z" fill="#F5F7F8"/>
<rect x="-0.055542" y="20" width="20" height="6.66667" transform="rotate(-90 -0.055542 20)" fill="#DD2033"/>
<path d="M5.36112 3.88892L6.61112 5.13892V2.63892L5.36112 3.88892Z" fill="#E26E00"/>
<path d="M5.36112 8.19447L6.61112 9.44447V6.94447L5.36112 8.19447Z" fill="#E26E00"/>
<path d="M1.19446 8.19447L-0.055542 9.44447V6.94447L1.19446 8.19447Z" fill="#E26E00"/>
<path d="M5.36112 12.5L6.61112 13.75V11.25L5.36112 12.5Z" fill="#E26E00"/>
<path d="M1.19446 12.5L-0.055542 13.75V11.25L1.19446 12.5Z" fill="#E26E00"/>
<path d="M5.36112 16.8056L6.61112 18.0556V15.5556L5.36112 16.8056Z" fill="#E26E00"/>
<path fill-rule="evenodd" clip-rule="evenodd" d="M4.16603 9.4445H2.66733L2.16668 9.84502V10.7106L2.66733 11.1112H4.16603L4.66668 10.7106V9.84502L4.16603 9.4445ZM4.45834 8.61117H2.37501L1.33334 9.4445V11.1112L2.37501 11.9445H4.45834L5.50001 11.1112V9.4445L4.45834 8.61117Z" fill="#009B77"/>
<path fill-rule="evenodd" clip-rule="evenodd" d="M4.16603 13.6112H2.66733L2.16668 14.0117V14.8773L2.66733 15.2778H4.16603L4.66668 14.8773V14.0117L4.16603 13.6112ZM4.45834 12.7778H2.37501L1.33334 13.6112V15.2778L2.37501 16.1112H4.45834L5.50001 15.2778V13.6112L4.45834 12.7778Z" fill="#009B77"/>
<path fill-rule="evenodd" clip-rule="evenodd" d="M4.16603 5.27783H2.66733L2.16668 5.67835V6.54398L2.66733 6.9445H4.16603L4.66668 6.54398V5.67835L4.16603 5.27783ZM4.45834 4.4445H2.37501L1.33334 5.27783V6.9445L2.37501 7.77783H4.45834L5.50001 6.9445V5.27783L4.45834 4.4445Z" fill="#009B77"/>
<path fill-rule="evenodd" clip-rule="evenodd" d="M4.16603 1.11117H2.66733L2.16668 1.51169V2.37731L2.66733 2.77783H4.16603L4.66668 2.37731V1.51169L4.16603 1.11117ZM4.45834 0.277832H2.37501L1.33334 1.11117V2.77783L2.37501 3.61117H4.45834L5.50001 2.77783V1.11117L4.45834 0.277832Z" fill="#009B77"/>
<path fill-rule="evenodd" clip-rule="evenodd" d="M4.16603 17.7778H2.66733L2.16668 18.1784V19.044L2.66733 19.4445H4.16603L4.66668 19.044V18.1784L4.16603 17.7778ZM4.45834 16.9445H2.37501L1.33334 17.7778V19.4445L2.37501 20.2778H4.45834L5.50001 19.4445V17.7778L4.45834 16.9445Z" fill="#009B77"/>
</g>
</svg>
