<svg width="72" height="72" viewBox="0 0 72 72" fill="none" xmlns="http://www.w3.org/2000/svg">
<mask id="mask0_46_19195" style="mask-type:alpha" maskUnits="userSpaceOnUse" x="0" y="0" width="72" height="72">
<circle cx="36" cy="36" r="36" fill="#D9D9D9"/>
</mask>
<g mask="url(#mask0_46_19195)">
<rect width="72" height="72" fill="#DD2033"/>
<path fill-rule="evenodd" clip-rule="evenodd" d="M36 57.0222C48.1503 57.0222 58 47.3914 58 35.5111C58 23.6309 48.1503 14 36 14C23.8497 14 14 23.6309 14 35.5111C14 47.3914 23.8497 57.0222 36 57.0222ZM40.0001 23.2C43.7839 23.2 47.1843 24.8419 49.5277 27.452C46.6917 22.9734 41.6931 20 36 20C27.1634 20 20 27.1634 20 36C20 44.8366 27.1634 52 36 52C41.6931 52 46.6917 49.0266 49.5277 44.548C47.1843 47.1582 43.7839 48.8 40.0001 48.8C32.9308 48.8 27.2001 43.0692 27.2001 36C27.2001 28.9308 32.9308 23.2 40.0001 23.2ZM43.0179 31.7631L49.068 29.4225L46.7274 35.4726L50.537 40.3986L44.1642 40.3282L40.4687 45.7134L39.2157 39.2748L32.7771 38.0218L38.1622 34.3263L38.0919 27.9535L43.0179 31.7631Z" fill="#F5F7F8"/>
</g>
</svg>
