<svg width="29" height="20" viewBox="0 0 29 20" fill="none" xmlns="http://www.w3.org/2000/svg">
<mask id="mask0_11482_7685" style="mask-type:alpha" maskUnits="userSpaceOnUse" x="0" y="0" width="29" height="20">
<rect width="29" height="20" fill="#D9D9D9"/>
</mask>
<g mask="url(#mask0_11482_7685)">
<rect width="29" height="20" fill="#DD2033"/>
<path fill-rule="evenodd" clip-rule="evenodd" d="M14.5 18.4001C19.1714 18.4001 22.9583 14.6393 22.9583 10.0001C22.9583 5.36091 19.1714 1.6001 14.5 1.6001C9.8286 1.6001 6.04167 5.36091 6.04167 10.0001C6.04167 14.6393 9.8286 18.4001 14.5 18.4001ZM16.0379 5.19265C17.4927 5.19265 18.8 5.83379 19.701 6.85304C18.6107 5.10417 16.6888 3.94307 14.5 3.94307C11.1026 3.94307 8.34849 6.74036 8.34849 10.191C8.34849 13.6416 11.1026 16.4389 14.5 16.4389C16.6888 16.4389 18.6107 15.2778 19.701 13.529C18.8 14.5482 17.4927 15.1893 16.0379 15.1893C13.32 15.1893 11.1167 12.9515 11.1167 10.191C11.1167 7.43049 13.32 5.19265 16.0379 5.19265ZM17.1982 8.5365L19.5243 7.62252L18.6244 9.98505L20.089 11.9086L17.6389 11.8812L16.2181 13.984L15.7363 11.4698L13.2609 10.9805L15.3313 9.53743L15.3043 7.04888L17.1982 8.5365Z" fill="#F5F7F8"/>
</g>
</svg>
