<svg width="20" height="20" viewBox="0 0 20 20" fill="none" xmlns="http://www.w3.org/2000/svg">
<mask id="mask0_11482_7679" style="mask-type:alpha" maskUnits="userSpaceOnUse" x="0" y="0" width="20" height="20">
<circle cx="10" cy="10" r="10" fill="#D9D9D9"/>
</mask>
<g mask="url(#mask0_11482_7679)">
<rect width="20" height="20" fill="#DD2033"/>
<path fill-rule="evenodd" clip-rule="evenodd" d="M10 15.8395C13.3751 15.8395 16.1111 13.1643 16.1111 9.86422C16.1111 6.56415 13.3751 3.88892 10 3.88892C6.62492 3.88892 3.88889 6.56415 3.88889 9.86422C3.88889 13.1643 6.62492 15.8395 10 15.8395ZM11.1111 6.44447C12.1622 6.44447 13.1067 6.90054 13.7577 7.62558C12.9699 6.38153 11.5814 5.55558 10 5.55558C7.5454 5.55558 5.55555 7.54543 5.55555 10C5.55555 12.4546 7.5454 14.4445 10 14.4445C11.5814 14.4445 12.9699 13.6185 13.7577 12.3745C13.1067 13.0995 12.1622 13.5556 11.1111 13.5556C9.14745 13.5556 7.55558 11.9637 7.55558 10C7.55558 8.03635 9.14745 6.44447 11.1111 6.44447ZM11.9494 8.82311L13.63 8.17295L12.9798 9.85352L14.038 11.2219L12.2678 11.2023L11.2413 12.6982L10.8932 10.9097L9.10475 10.5616L10.6006 9.53511L10.5811 7.76489L11.9494 8.82311Z" fill="#F5F7F8"/>
</g>
</svg>
