<svg width="72" height="72" viewBox="0 0 72 72" fill="none" xmlns="http://www.w3.org/2000/svg">
<mask id="mask0_46_19379" style="mask-type:alpha" maskUnits="userSpaceOnUse" x="0" y="0" width="72" height="72">
<circle cx="36" cy="36" r="36" fill="#D9D9D9"/>
</mask>
<g mask="url(#mask0_46_19379)">
<rect y="72" width="72" height="72" transform="rotate(-90 0 72)" fill="#DD2033"/>
<path d="M45.8936 27.6706L44.8728 34.2261L38.9797 36.6411L44.6601 39.8376L45.1794 46.497L49.5817 41.4351L55.9251 43.6176L53.0452 37.5908L56.3663 31.9823L50.0552 32.8375L45.8936 27.6706Z" fill="#F5F7F8"/>
<path d="M40.3487 25.5874C38.3911 24.3038 36.0497 23.5573 33.534 23.5573C26.6611 23.5573 21.0895 29.1289 21.0895 36.0017C21.0895 42.8746 26.6611 48.4462 33.534 48.4462C36.0468 48.4462 38.3857 47.7014 40.3419 46.4205C37.4076 49.8364 33.0566 52 28.2002 52C19.3636 52 12.2002 44.8366 12.2002 36C12.2002 27.1634 19.3636 20 28.2002 20C33.0603 20 37.4143 22.167 40.3487 25.5874Z" fill="#F5F7F8"/>
</g>
</svg>
