<svg width="20" height="20" viewBox="0 0 20 20" fill="none" xmlns="http://www.w3.org/2000/svg">
<mask id="mask0_11482_7710" style="mask-type:alpha" maskUnits="userSpaceOnUse" x="0" y="0" width="20" height="20">
<circle cx="10" cy="10" r="10" fill="#D9D9D9"/>
</mask>
<g mask="url(#mask0_11482_7710)">
<rect y="20" width="20" height="20" transform="rotate(-90 0 20)" fill="#DD2033"/>
<path d="M12.7482 7.68639L12.4647 9.50737L10.8277 10.1782L12.4056 11.0661L12.5498 12.9159L13.7727 11.5099L15.5348 12.1161L14.7348 10.442L15.6573 8.88409L13.9042 9.12164L12.7482 7.68639Z" fill="#F5F7F8"/>
<path d="M11.208 7.10772C10.6642 6.75117 10.0138 6.5438 9.31499 6.5438C7.40586 6.5438 5.8582 8.09146 5.8582 10.0006C5.8582 11.9097 7.40586 13.4574 9.31499 13.4574C10.013 13.4574 10.6627 13.2505 11.2061 12.8947C10.391 13.8436 9.18238 14.4446 7.83339 14.4446C5.37879 14.4446 3.38895 12.4547 3.38895 10.0001C3.38895 7.54551 5.37879 5.55566 7.83339 5.55566C9.18343 5.55566 10.3929 6.1576 11.208 7.10772Z" fill="#F5F7F8"/>
</g>
</svg>
