<svg width="29" height="20" viewBox="0 0 29 20" fill="none" xmlns="http://www.w3.org/2000/svg">
<mask id="mask0_11482_7714" style="mask-type:alpha" maskUnits="userSpaceOnUse" x="0" y="0" width="29" height="20">
<rect width="29" height="20" fill="#D9D9D9"/>
</mask>
<g mask="url(#mask0_11482_7714)">
<rect y="20" width="20" height="29" transform="rotate(-90 0 20)" fill="#DD2033"/>
<path d="M18.4849 6.66834L18.0738 9.29056L15.7001 10.2565L17.9881 11.5351L18.1973 14.1989L19.9704 12.1741L22.5254 13.0472L21.3654 10.6364L22.7031 8.39303L20.1611 8.73511L18.4849 6.66834Z" fill="#F5F7F8"/>
<path d="M16.2516 5.83506C15.4631 5.32162 14.52 5.02301 13.5067 5.02301C10.7385 5.02301 8.49439 7.25164 8.49439 10.0008C8.49439 12.7499 10.7385 14.9786 13.5067 14.9786C14.5189 14.9786 15.4609 14.6807 16.2488 14.1683C15.0669 15.5347 13.3144 16.4001 11.3584 16.4001C7.79925 16.4001 4.91397 13.5347 4.91397 10.0001C4.91397 6.46548 7.79925 3.6001 11.3584 3.6001C13.316 3.6001 15.0697 4.46688 16.2516 5.83506Z" fill="#F5F7F8"/>
</g>
</svg>
