<svg width="72" height="72" viewBox="0 0 72 72" fill="none" xmlns="http://www.w3.org/2000/svg">
<mask id="mask0_47_189" style="mask-type:alpha" maskUnits="userSpaceOnUse" x="0" y="0" width="72" height="72">
<circle cx="36" cy="36" r="36" fill="#D9D9D9"/>
</mask>
<g mask="url(#mask0_47_189)">
<rect width="72" height="72" fill="#0091DA"/>
<path d="M52.8001 26L51.3097 29.3711L47.8 29.8196L50.3887 32.3517L49.7098 36L52.8 33.9167L55.8903 36L55.2114 32.3517L57.8 29.8196L54.2904 29.3711L52.8001 26Z" fill="#FBD381"/>
<path d="M40.3001 38.6699L40.6949 42.3345L37.8797 44.4778L41.3876 45.3763L42.6238 48.8752L44.2584 45.5259L47.9763 45.785L45.5642 42.965L46.54 39.4778L43.2763 40.8442L40.3001 38.6699Z" fill="#FBD381"/>
<path d="M57.8001 43L56.3097 46.3711L52.8 46.8196L55.3887 49.3517L54.7098 53L57.8 50.9167L60.8903 53L60.2114 49.3517L62.8 46.8196L59.2904 46.3711L57.8001 43Z" fill="#FBD381"/>
<path d="M45.506 51.1704L44.9389 54.8123L41.6649 56.1539L44.8207 57.9298L45.1092 61.6294L47.5549 58.8173L51.0791 60.0298L49.4791 56.6816L51.3242 53.5658L47.818 54.0409L45.506 51.1704Z" fill="#FBD381"/>
<path d="M32.8001 56L31.3097 59.3711L27.8 59.8196L30.3887 62.3517L29.7098 66L32.8 63.9167L35.8903 66L35.2114 62.3517L37.8 59.8196L34.2904 59.3711L32.8001 56Z" fill="#FBD381"/>
<mask id="mask1_47_189" style="mask-type:alpha" maskUnits="userSpaceOnUse" x="0" y="0" width="36" height="36">
<path d="M0 36C-8.69081e-07 16.1178 16.1177 -7.04529e-07 36 -1.57361e-06L36 36L0 36Z" fill="#002F6C"/>
</mask>
<g mask="url(#mask1_47_189)">
<rect x="-0.000244141" width="36" height="36" fill="#004692"/>
<path d="M12.5223 3.13378L10.401 5.2551L39.927 34.7811L42.0483 32.6598L12.5223 3.13378Z" fill="#F5F7F8"/>
<path d="M6.86549 8.79064L3.32996 12.3262L32.856 41.8522L36.3915 38.3166L6.86549 8.79064Z" fill="#F5F7F8"/>
<path d="M6.86549 8.79064L10.401 5.2551L39.927 34.7811L36.3915 38.3166L6.86549 8.79064Z" fill="#DD2033"/>
<path d="M36 12V17L17 17L17 36H12V12H36Z" fill="#F5F7F8"/>
<path d="M36 -2V3L5 3L5 36H0V-2H36Z" fill="#F5F7F8"/>
<path fill-rule="evenodd" clip-rule="evenodd" d="M3 36H12L12 12L36 12V3H12H3L3 12L3 36Z" fill="#DD2033"/>
</g>
</g>
</svg>
