<svg width="29" height="20" viewBox="0 0 29 20" fill="none" xmlns="http://www.w3.org/2000/svg">
<mask id="mask0_11482_7744" style="mask-type:alpha" maskUnits="userSpaceOnUse" x="0" y="0" width="29" height="20">
<rect width="29" height="20" fill="#D9D9D9"/>
</mask>
<g mask="url(#mask0_11482_7744)">
<rect width="29" height="20" fill="#0091DA"/>
<path d="M23.6833 2.80005L23.0831 4.14849L21.6694 4.3279L22.7121 5.34075L22.4387 6.80005L23.6833 5.96672L24.928 6.80005L24.6546 5.34075L25.6972 4.3279L24.2836 4.14849L23.6833 2.80005Z" fill="#FBD381"/>
<path d="M18.6486 7.86799L18.8077 9.33385L17.6738 10.1912L19.0867 10.5506L19.5846 11.9501L20.2429 10.6104L21.7404 10.7141L20.7689 9.58603L21.1619 8.19116L19.8474 8.73771L18.6486 7.86799Z" fill="#FBD381"/>
<path d="M25.6972 9.60005L25.0969 10.9485L23.6833 11.1279L24.726 12.1407L24.4526 13.6L25.6972 12.7667L26.9419 13.6L26.6685 12.1407L27.7111 11.1279L26.2975 10.9485L25.6972 9.60005Z" fill="#FBD381"/>
<path d="M20.7454 12.8682L20.517 14.325L19.1984 14.8616L20.4694 15.572L20.5856 17.0518L21.5707 15.927L22.9902 16.412L22.3457 15.0727L23.0889 13.8264L21.6767 14.0164L20.7454 12.8682Z" fill="#FBD381"/>
<path d="M15.6278 14.8L15.0275 16.1485L13.6139 16.3279L14.6565 17.3407L14.3831 18.8L15.6278 17.9667L16.8725 18.8L16.599 17.3407L17.6417 16.3279L16.2281 16.1485L15.6278 14.8Z" fill="#FBD381"/>
<mask id="mask1_11482_7744" style="mask-type:alpha" maskUnits="userSpaceOnUse" x="0" y="0" width="15" height="12">
<path d="M0 12L-1.31134e-06 0L14.5 -2.53526e-07L14.5 12L0 12Z" fill="#002F6C"/>
</mask>
<g mask="url(#mask1_11482_7744)">
<rect width="14.5" height="14.4" fill="#004692"/>
<path d="M5.15183 0.401901L4.29741 1.25043L14.849 11.7292L15.7034 10.8807L5.15183 0.401901Z" fill="#F5F7F8"/>
<path d="M2.87338 2.66464L1.44934 4.07886L12.0009 14.5577L13.425 13.1435L2.87338 2.66464Z" fill="#F5F7F8"/>
<path d="M2.87338 2.66464L4.29741 1.25043L14.849 11.7292L13.425 13.1435L2.87338 2.66464Z" fill="#DD2033"/>
<path d="M2.41669 14H4.02849L4.02849 3.59999H14.5V2H2.41669V14Z" fill="#F5F7F8"/>
<path d="M0 14H2.41736L2.41736 1.99998H14.5007V0H0V14Z" fill="#DD2033"/>
</g>
</g>
</svg>
