<svg width="20" height="20" viewBox="0 0 20 20" fill="none" xmlns="http://www.w3.org/2000/svg">
<mask id="mask0_11482_7732" style="mask-type:alpha" maskUnits="userSpaceOnUse" x="0" y="0" width="20" height="20">
<circle cx="10" cy="10" r="10" fill="#D9D9D9"/>
</mask>
<g mask="url(#mask0_11482_7732)">
<rect width="20" height="20" fill="#0091DA"/>
<path d="M14.6667 7.22217L14.2527 8.15858L13.2778 8.28318L13.9968 8.98654L13.8083 9.99995L14.6667 9.42124L15.5251 9.99995L15.3365 8.98654L16.0556 8.28318L15.0807 8.15858L14.6667 7.22217Z" fill="#FBD381"/>
<path d="M11.1945 10.7416L11.3041 11.7595L10.5221 12.3549L11.4966 12.6045L11.8399 13.5764L12.294 12.646L13.3267 12.718L12.6567 11.9347L12.9278 10.966L12.0212 11.3455L11.1945 10.7416Z" fill="#FBD381"/>
<path d="M16.0556 11.9444L15.6416 12.8808L14.6667 13.0054L15.3857 13.7088L15.1972 14.7222L16.0556 14.1435L16.914 14.7222L16.7254 13.7088L17.4445 13.0054L16.4695 12.8808L16.0556 11.9444Z" fill="#FBD381"/>
<path d="M12.6405 14.2139L12.483 15.2256L11.5736 15.5983L12.4502 16.0916L12.5303 17.1192L13.2097 16.3381L14.1886 16.6749L13.7442 15.7448L14.2567 14.8793L13.2828 15.0113L12.6405 14.2139Z" fill="#FBD381"/>
<path d="M9.11113 15.5555L8.69713 16.4919L7.72223 16.6165L8.44129 17.3199L8.25272 18.3333L9.11112 17.7546L9.96951 18.3333L9.78094 17.3199L10.5 16.6165L9.5251 16.4919L9.11113 15.5555Z" fill="#FBD381"/>
<mask id="mask1_11482_7732" style="mask-type:alpha" maskUnits="userSpaceOnUse" x="0" y="0" width="10" height="10">
<path d="M0 10C-8.69081e-07 4.47715 4.47715 -5.43618e-08 10 -1.21421e-07L10 10L0 10Z" fill="#002F6C"/>
</mask>
<g mask="url(#mask1_11482_7732)">
<rect x="-0.000244141" width="10" height="10" fill="#004692"/>
<path d="M3.47843 0.870386L2.88917 1.45964L11.0908 9.66131L11.6801 9.07205L3.47843 0.870386Z" fill="#F5F7F8"/>
<path d="M1.90708 2.44173L0.924989 3.42383L9.12665 11.6255L10.1087 10.6434L1.90708 2.44173Z" fill="#F5F7F8"/>
<path d="M1.90708 2.44173L2.88917 1.45964L11.0908 9.66131L10.1087 10.6434L1.90708 2.44173Z" fill="#DD2033"/>
<path d="M9.99998 3.33325V4.72214L4.7222 4.72214L4.7222 9.99993H3.33331V3.33325H9.99998Z" fill="#F5F7F8"/>
<path d="M10 -0.555664V0.833225L1.38889 0.833224L1.38889 9.99989H0V-0.555664H10Z" fill="#F5F7F8"/>
<path fill-rule="evenodd" clip-rule="evenodd" d="M0.833313 9.99992H3.33331L3.33331 3.33325L9.99998 3.33325V0.833252H3.33331H0.833314L0.833314 3.33325L0.833313 9.99992Z" fill="#DD2033"/>
</g>
</g>
</svg>
