<svg width="20" height="20" viewBox="0 0 20 20" fill="none" xmlns="http://www.w3.org/2000/svg">
<mask id="mask0_11482_7757" style="mask-type:alpha" maskUnits="userSpaceOnUse" x="0" y="0" width="20" height="20">
<circle cx="10" cy="10" r="10" fill="#D9D9D9"/>
</mask>
<g mask="url(#mask0_11482_7757)">
<rect y="20" width="20" height="20" transform="rotate(-90 0 20)" fill="#DD2033"/>
<rect y="12.2222" width="12.2222" height="12.2222" transform="rotate(-90 0 12.2222)" fill="#004692"/>
<path d="M9.44442 6.94445L8.19589 7.56185L8.86072 8.83294L7.50498 8.56029L7.33319 10L6.38885 8.94115L5.44454 10L5.27275 8.56029L3.91697 8.83289L4.58185 7.56181L3.33331 6.94445L4.58189 6.32709L3.91697 5.05605L5.27271 5.32865L5.44459 3.88892L6.38885 4.9478L7.33324 3.88892L7.50498 5.32865L8.86076 5.05605L8.19593 6.32714L9.44442 6.94445Z" fill="#F5F7F8"/>
</g>
</svg>
