<svg width="29" height="20" viewBox="0 0 29 20" fill="none" xmlns="http://www.w3.org/2000/svg">
<mask id="mask0_11482_7762" style="mask-type:alpha" maskUnits="userSpaceOnUse" x="0" y="0" width="29" height="20">
<rect width="29" height="20" fill="#D9D9D9"/>
</mask>
<g mask="url(#mask0_11482_7762)">
<rect y="20" width="20" height="29" transform="rotate(-90 0 20)" fill="#DD2033"/>
<rect y="13.6001" width="13.6" height="17.7222" transform="rotate(-90 0 13.6001)" fill="#004692"/>
<path d="M13.2917 6.79987L11.4813 7.68893L12.4453 9.51929L10.4795 9.12668L10.2304 11.1999L8.86107 9.67512L7.49183 11.1999L7.24273 9.12668L5.27685 9.51923L6.24092 7.68886L4.43054 6.79987L6.24098 5.91088L5.27685 4.08058L7.24267 4.47312L7.49189 2.3999L8.86107 3.92469L10.2304 2.3999L10.4795 4.47312L12.4453 4.08058L11.4813 5.91094L13.2917 6.79987Z" fill="#F5F7F8"/>
</g>
</svg>
