<svg width="72" height="72" viewBox="0 0 72 72" fill="none" xmlns="http://www.w3.org/2000/svg">
<mask id="mask0_47_623" style="mask-type:alpha" maskUnits="userSpaceOnUse" x="0" y="0" width="72" height="72">
<circle cx="36" cy="36" r="36" fill="#D9D9D9"/>
</mask>
<g mask="url(#mask0_47_623)">
<rect y="48" width="48" height="72" transform="rotate(-90 0 48)" fill="#31373D"/>
<rect y="24" width="12" height="72" transform="rotate(-90 0 24)" fill="#F1B434"/>
<rect y="72" width="12" height="72" transform="rotate(-90 0 72)" fill="#DD2033"/>
<rect y="36" width="12" height="72" transform="rotate(-90 0 36)" fill="#DD2033"/>
<rect y="60" width="12" height="72" transform="rotate(-90 0 60)" fill="#F1B434"/>
<circle cx="35" cy="36" r="20" fill="#F5F7F8"/>
<path d="M34.5 37.2983L37.1907 40.3253C37.7345 40.9372 37.353 41.9076 36.5381 41.9852L29.4518 42.6601C28.7526 42.7267 28.3381 43.4745 28.6522 44.1028L29 44.7983" stroke="#31373D"/>
<path d="M31 42.7983V42.7983C30.3108 42.7983 29.8626 43.5236 30.1708 44.14L30.5 44.7983" stroke="#31373D"/>
<path d="M31 42.7983L31.5 43.7983" stroke="#31373D"/>
<path fill-rule="evenodd" clip-rule="evenodd" d="M40.4026 43.5508C42.2497 42.528 43.5001 40.5592 43.5001 38.2983C43.5001 34.9846 40.8138 32.2983 37.5001 32.2983C35.7153 32.2983 34.1125 33.0776 33.0134 34.3145C37.1925 34.5792 40.5001 38.0525 40.5001 42.2983C40.5001 42.7244 40.4668 43.1427 40.4026 43.5508Z" fill="#31373D"/>
<path fill-rule="evenodd" clip-rule="evenodd" d="M34.4379 27.7007C32.0028 28.1479 30.0024 30.0854 29.5953 32.6699C29.0796 35.9432 31.3151 39.0148 34.5885 39.5304C36.894 39.8937 39.0995 38.892 40.3823 37.1242C36.3703 36.1566 33.7105 32.2517 34.3639 28.1039C34.3853 27.9681 34.41 27.8337 34.4379 27.7007Z" fill="#31373D"/>
<path d="M36.7981 24.4375C36.4341 22.5391 34.6001 21.2952 32.7017 21.6592L33.3608 25.0966L36.7981 24.4375Z" fill="#DD2033"/>
<circle cx="33" cy="25.7983" r="2.5" fill="#31373D"/>
<path d="M28.5 27.2983L31.5 25.2983L32.5 26.7983L28.5 27.2983Z" fill="#31373D"/>
<path fill-rule="evenodd" clip-rule="evenodd" d="M39.3743 38.204C40.0892 39.4018 40.5 40.8021 40.5 42.2984C40.5 42.7245 40.4667 43.1428 40.4025 43.5509C42.2495 42.528 43.5 40.5593 43.5 38.2984C43.5 36.5301 42.735 34.9404 41.5179 33.8423C41.5084 34.0724 41.4857 34.3045 41.449 34.5375C41.214 36.0293 40.4481 37.3055 39.3743 38.204Z" fill="#DD2033"/>
<path d="M34.5 37.2983V48.2983M34.5 48.2983H31M34.5 48.2983L33 50.2983M34.5 48.2983L36.5 48.7983" stroke="#31373D"/>
</g>
</svg>
