<svg width="20" height="20" viewBox="0 0 20 20" fill="none" xmlns="http://www.w3.org/2000/svg">
<mask id="mask0_11482_7793" style="mask-type:alpha" maskUnits="userSpaceOnUse" x="0" y="0" width="20" height="20">
<circle cx="10" cy="10" r="10" fill="#D9D9D9"/>
</mask>
<g mask="url(#mask0_11482_7793)">
<rect y="13.3333" width="13.3333" height="20" transform="rotate(-90 0 13.3333)" fill="#31373D"/>
<rect y="6.66675" width="3.33333" height="20" transform="rotate(-90 0 6.66675)" fill="#F1B434"/>
<rect y="20" width="3.33333" height="20" transform="rotate(-90 0 20)" fill="#DD2033"/>
<rect y="10" width="3.33333" height="20" transform="rotate(-90 0 10)" fill="#DD2033"/>
<rect y="16.6667" width="3.33333" height="20" transform="rotate(-90 0 16.6667)" fill="#F1B434"/>
<circle cx="9.72222" cy="9.99989" r="5.55556" fill="#F5F7F8"/>
<path fill-rule="evenodd" clip-rule="evenodd" d="M10.2269 11.2937L9.47953 10.4529L9.68714 10.2683L10.4345 11.1091C10.6612 11.3641 10.5022 11.7684 10.1626 11.8007L8.19423 11.9882C8.09711 11.9975 8.03955 12.1013 8.08318 12.1886L8.17978 12.3818L7.93133 12.506L7.83472 12.3128C7.70383 12.051 7.87654 11.7394 8.1679 11.7117L10.1363 11.5242C10.2495 11.5134 10.3025 11.3787 10.2269 11.2937Z" fill="#31373D"/>
<path d="M8.61144 12.0388C8.53152 12.0388 8.47904 12.1226 8.51476 12.1941L8.60655 12.3767L8.47179 12.4441L8.338 12.5115L8.2462 12.3279C8.11113 12.057 8.30865 11.738 8.61144 11.738V12.0388Z" fill="#31373D"/>
<path d="M8.88455 12.0994L8.74978 12.1658L8.61599 12.2332L8.47732 11.9558L8.7449 11.821L8.88455 12.0994Z" fill="#31373D"/>
<path d="M10.4165 8.97168C11.337 8.97168 12.0835 9.7182 12.0835 10.6387C12.0834 11.2678 11.7338 11.8141 11.2192 12.0977C11.2371 11.984 11.2505 11.8677 11.2505 11.749C11.2502 10.5699 10.331 9.60776 9.17039 9.53418C9.47568 9.18985 9.92013 8.97174 10.4165 8.97168Z" fill="#31373D"/>
<mask id="path-11-inside-1_11482_7793" fill="white">
<path fill-rule="evenodd" clip-rule="evenodd" d="M9.56607 7.69441C8.88967 7.81866 8.334 8.35685 8.22091 9.07474C8.07767 9.984 8.69865 10.8372 9.60791 10.9805C10.2483 11.0814 10.861 10.8031 11.2173 10.3121C10.1029 10.0433 9.36402 8.9586 9.54553 7.80641C9.55147 7.7687 9.55832 7.73136 9.56607 7.69441Z"/>
</mask>
<path d="M9.56607 7.69441L10.5448 7.89961L10.8504 6.44177L9.38541 6.71087L9.56607 7.69441ZM11.2173 10.3121L12.0267 10.8993L12.9041 9.69017L11.4517 9.33992L11.2173 10.3121ZM8.22091 9.07474L9.20872 9.23036C9.25372 8.94474 9.47479 8.72791 9.74673 8.67796L9.56607 7.69441L9.38541 6.71087C8.30455 6.9094 7.41428 7.76895 7.23309 8.91913L8.22091 9.07474ZM9.60791 10.9805L9.76353 9.99265C9.39982 9.93535 9.15143 9.59406 9.20872 9.23036L8.22091 9.07474L7.23309 8.91913C7.0039 10.3739 7.99748 11.7391 9.4523 11.9683L9.60791 10.9805ZM11.2173 10.3121L10.4079 9.72475C10.2638 9.92342 10.0183 10.0328 9.76353 9.99265L9.60791 10.9805L9.4523 11.9683C10.4784 12.1299 11.4582 11.6828 12.0267 10.8993L11.2173 10.3121ZM11.2173 10.3121L11.4517 9.33992C10.8398 9.19235 10.4336 8.59525 10.5333 7.96202L9.54553 7.80641L8.55771 7.6508C8.29445 9.32195 9.3659 10.8942 10.9829 11.2842L11.2173 10.3121ZM9.54553 7.80641L10.5333 7.96202C10.5367 7.94092 10.5405 7.92011 10.5448 7.89961L9.56607 7.69441L8.58735 7.48922C8.57616 7.54261 8.56627 7.59648 8.55771 7.6508L9.54553 7.80641Z" fill="#31373D" mask="url(#path-11-inside-1_11482_7793)"/>
<path d="M10.2217 6.7881C10.1206 6.26077 9.61113 5.91524 9.08379 6.01636L9.26688 6.97119L10.2217 6.7881Z" fill="#DD2033"/>
<circle cx="9.16667" cy="7.16612" r="0.694444" fill="#31373D"/>
<path d="M7.91666 7.58266L8.75 7.0271L9.02778 7.44377L7.91666 7.58266Z" fill="#31373D"/>
<path fill-rule="evenodd" clip-rule="evenodd" d="M10.9373 10.6122C11.1359 10.9449 11.25 11.3339 11.25 11.7496C11.25 11.8679 11.2407 11.9841 11.2229 12.0975C11.736 11.8133 12.0833 11.2665 12.0833 10.6384C12.0833 10.1472 11.8708 9.70567 11.5327 9.40063C11.5301 9.46457 11.5238 9.52902 11.5136 9.59376C11.4483 10.0081 11.2356 10.3626 10.9373 10.6122Z" fill="#DD2033"/>
<path d="M9.73318 10.3606V13.2981L10.1756 13.4094L10.1385 13.5549L10.1023 13.7004L9.64236 13.5852L9.28689 14.0618L9.04666 13.8821L9.28396 13.5657H8.61111V13.2659H9.43338V10.3606H9.73318Z" fill="#31373D"/>
</g>
</svg>
