<svg width="29" height="20" viewBox="0 0 29 20" fill="none" xmlns="http://www.w3.org/2000/svg">
<mask id="mask0_11482_7820" style="mask-type:alpha" maskUnits="userSpaceOnUse" x="0" y="0" width="29" height="20">
<rect width="29" height="20" fill="#D9D9D9"/>
</mask>
<g mask="url(#mask0_11482_7820)">
<rect y="3.6001" width="3.6" height="29" transform="rotate(-90 0 3.6001)" fill="#31373D"/>
<rect y="13.6001" width="3.6" height="29" transform="rotate(-90 0 13.6001)" fill="#31373D"/>
<rect y="6.80005" width="3.2" height="29" transform="rotate(-90 0 6.80005)" fill="#F1B434"/>
<rect y="20" width="3.2" height="29" transform="rotate(-90 0 20)" fill="#DD2033"/>
<rect y="10" width="3.2" height="29" transform="rotate(-90 0 10)" fill="#DD2033"/>
<rect y="16.8" width="3.2" height="29" transform="rotate(-90 0 16.8)" fill="#F1B434"/>
<ellipse cx="14.0972" cy="10" rx="8.05556" ry="8" fill="#F5F7F8"/>
<path fill-rule="evenodd" clip-rule="evenodd" d="M14.829 11.863L13.7453 10.6522L14.0463 10.3865L15.1301 11.5973C15.4587 11.9644 15.2281 12.5466 14.7358 12.5932L11.8816 12.8631C11.7408 12.8765 11.6573 13.026 11.7206 13.1517L11.8607 13.4299L11.5004 13.6088L11.3603 13.3306C11.1705 12.9536 11.421 12.5049 11.8434 12.4649L14.6976 12.195C14.8617 12.1795 14.9386 11.9854 14.829 11.863Z" fill="#31373D"/>
<path d="M12.1837 12.651C12.2885 12.615 12.3933 12.6323 12.4757 12.6637C12.6371 12.7255 12.785 12.8685 12.8663 13.0299L12.5089 13.2096C12.4668 13.1261 12.3902 13.0598 12.3331 13.0378C12.3299 13.0365 12.3269 13.0346 12.3243 13.0338C12.309 13.0757 12.3091 13.1227 12.3321 13.1686L12.463 13.4294L12.2843 13.5192L12.1065 13.609L11.9747 13.3493C11.8972 13.1954 11.8968 13.028 11.9522 12.8854C11.9944 12.777 12.0721 12.6895 12.1837 12.651Z" fill="#31373D"/>
<mask id="path-11-inside-1_11482_7820" fill="white">
<path fill-rule="evenodd" clip-rule="evenodd" d="M16.2733 13.0203C17.0172 12.6111 17.5208 11.8236 17.5208 10.9193C17.5208 9.5938 16.4389 8.51929 15.1042 8.51929C14.3853 8.51929 13.7397 8.83101 13.2971 9.32577C14.9803 9.43162 16.3125 10.8209 16.3125 12.5193C16.3125 12.6897 16.2991 12.857 16.2733 13.0203Z"/>
</mask>
<path fill-rule="evenodd" clip-rule="evenodd" d="M16.2733 13.0203C17.0172 12.6111 17.5208 11.8236 17.5208 10.9193C17.5208 9.5938 16.4389 8.51929 15.1042 8.51929C14.3853 8.51929 13.7397 8.83101 13.2971 9.32577C14.9803 9.43162 16.3125 10.8209 16.3125 12.5193C16.3125 12.6897 16.2991 12.857 16.2733 13.0203Z" fill="#31373D"/>
<path d="M16.2733 13.0203L15.2856 12.8639L14.9663 14.8803L16.7552 13.8965L16.2733 13.0203ZM13.2971 9.32577L12.5518 8.65897L11.1779 10.1945L13.2343 10.3238L13.2971 9.32577ZM16.5208 10.9193C16.5208 11.442 16.2309 11.9023 15.7914 12.144L16.7552 13.8965C17.8035 13.3199 18.5208 12.2053 18.5208 10.9193H16.5208ZM15.1042 9.51929C15.8931 9.51929 16.5208 10.1526 16.5208 10.9193H18.5208C18.5208 9.03501 16.9846 7.51929 15.1042 7.51929V9.51929ZM14.0423 9.99256C14.3024 9.70181 14.6804 9.51929 15.1042 9.51929V7.51929C14.0902 7.51929 13.177 7.96021 12.5518 8.65897L14.0423 9.99256ZM13.2343 10.3238C14.3999 10.3971 15.3125 11.3581 15.3125 12.5193H17.3125C17.3125 10.2838 15.5606 8.46614 13.3598 8.32774L13.2343 10.3238ZM15.3125 12.5193C15.3125 12.6372 15.3032 12.7522 15.2856 12.8639L17.261 13.1766C17.295 12.9619 17.3125 12.7423 17.3125 12.5193H15.3125Z" fill="#31373D" mask="url(#path-11-inside-1_11482_7820)"/>
<path fill-rule="evenodd" clip-rule="evenodd" d="M13.8708 6.68023C12.89 6.85914 12.0843 7.63414 11.9203 8.66791C11.7126 9.97724 12.613 11.2059 13.9315 11.4121C14.8601 11.5574 15.7484 11.1568 16.2651 10.4496C14.6491 10.0626 13.5778 8.50066 13.841 6.84151C13.8496 6.78721 13.8596 6.73344 13.8708 6.68023Z" fill="#31373D"/>
<path d="M14.8214 5.37499C14.6748 4.61562 13.9361 4.11807 13.1715 4.26367L13.4369 5.63862L14.8214 5.37499Z" fill="#DD2033"/>
<path d="M13.2915 5.41919C13.5748 5.41919 13.7984 5.6463 13.7984 5.91919C13.7984 6.19208 13.5748 6.41919 13.2915 6.41919C13.0083 6.41913 12.7847 6.19204 12.7847 5.91919C12.7847 5.64634 13.0083 5.41925 13.2915 5.41919Z" fill="#31373D" stroke="#31373D"/>
<path d="M11.4791 6.51924L12.6875 5.71924L13.0903 6.31924L11.4791 6.51924Z" fill="#31373D"/>
<path fill-rule="evenodd" clip-rule="evenodd" d="M15.8591 10.8814C16.147 11.3605 16.3125 11.9207 16.3125 12.5192C16.3125 12.6896 16.2991 12.8569 16.2732 13.0202C17.0172 12.611 17.5208 11.8235 17.5208 10.9192C17.5208 10.2118 17.2127 9.57596 16.7225 9.13672C16.7187 9.22878 16.7095 9.32159 16.6947 9.41481C16.6 10.0115 16.2916 10.522 15.8591 10.8814Z" fill="#DD2033"/>
<path d="M14.0955 10.5193V14.7625L14.7498 14.9255L14.7009 15.1189L14.6531 15.3132L13.9753 15.1443L13.4509 15.8396L13.1316 15.5984L13.4939 15.1189H12.4861V14.7195H13.6961V10.5193H14.0955Z" fill="#31373D"/>
</g>
</svg>
