<svg width="29" height="20" viewBox="0 0 29 20" fill="none" xmlns="http://www.w3.org/2000/svg">
<mask id="mask0_11482_7858" style="mask-type:alpha" maskUnits="userSpaceOnUse" x="0" y="0" width="29" height="20">
<rect width="29" height="20" fill="#D9D9D9"/>
</mask>
<g mask="url(#mask0_11482_7858)">
<rect y="23.6001" width="25.2" height="29" transform="rotate(-90 0 23.6001)" fill="#F5F7F8"/>
<rect x="14.5454" y="1.53809" width="1.53818" height="14.5455" transform="rotate(-90 14.5454 1.53809)" fill="#DD2033"/>
<rect x="14.5454" y="4.60913" width="1.53636" height="14.5455" transform="rotate(-90 14.5454 4.60913)" fill="#DD2033"/>
<rect x="14.5454" y="7.68188" width="1.53636" height="14.5455" transform="rotate(-90 14.5454 7.68188)" fill="#DD2033"/>
<rect x="14.5454" y="10.7583" width="1.53636" height="14.5455" transform="rotate(-90 14.5454 10.7583)" fill="#DD2033"/>
<rect y="20" width="1.53818" height="29.0909" transform="rotate(-90 0 20)" fill="#DD2033"/>
<rect y="16.9292" width="1.53818" height="29.0909" transform="rotate(-90 0 16.9292)" fill="#DD2033"/>
<rect y="13.8564" width="1.53818" height="29.0909" transform="rotate(-90 0 13.8564)" fill="#DD2033"/>
<rect y="10.759" width="10.7591" height="14.5455" transform="rotate(-90 0 10.759)" fill="#004692"/>
<path d="M1.24446 0.772705L1.07676 1.14943L0.681824 1.19955L0.973116 1.48252L0.896726 1.89022L1.24446 1.6574L1.5922 1.89022L1.51581 1.48252L1.8071 1.19955L1.41217 1.14943L1.24446 0.772705Z" fill="#F5F7F8"/>
<path d="M3.5914 0.772705L3.4237 1.14943L3.02876 1.19955L3.32006 1.48252L3.24367 1.89022L3.5914 1.6574L3.93914 1.89022L3.86275 1.48252L4.15404 1.19955L3.75911 1.14943L3.5914 0.772705Z" fill="#F5F7F8"/>
<path d="M6.0991 0.772705L5.93139 1.14943L5.53646 1.19955L5.82775 1.48252L5.75136 1.89022L6.09909 1.6574L6.44683 1.89022L6.37044 1.48252L6.66173 1.19955L6.2668 1.14943L6.0991 0.772705Z" fill="#F5F7F8"/>
<path d="M8.44604 0.772705L8.27833 1.14943L7.8834 1.19955L8.17469 1.48252L8.0983 1.89022L8.44603 1.6574L8.79377 1.89022L8.71738 1.48252L9.00867 1.19955L8.61374 1.14943L8.44604 0.772705Z" fill="#F5F7F8"/>
<path d="M10.9217 0.772705L10.754 1.14943L10.3591 1.19955L10.6504 1.48252L10.574 1.89022L10.9217 1.6574L11.2694 1.89022L11.193 1.48252L11.4843 1.19955L11.0894 1.14943L10.9217 0.772705Z" fill="#F5F7F8"/>
<path d="M13.2686 0.772705L13.1009 1.14943L12.706 1.19955L12.9973 1.48252L12.9209 1.89022L13.2686 1.6574L13.6164 1.89022L13.54 1.48252L13.8313 1.19955L13.4363 1.14943L13.2686 0.772705Z" fill="#F5F7F8"/>
<path d="M2.40176 1.73723L2.23406 2.11395L1.83912 2.16408L2.13042 2.44704L2.05403 2.85474L2.40176 2.62193L2.7495 2.85474L2.67311 2.44704L2.9644 2.16408L2.56947 2.11395L2.40176 1.73723Z" fill="#F5F7F8"/>
<path d="M4.7487 1.73723L4.581 2.11395L4.18606 2.16408L4.47736 2.44704L4.40097 2.85474L4.7487 2.62193L5.09644 2.85474L5.02005 2.44704L5.31134 2.16408L4.91641 2.11395L4.7487 1.73723Z" fill="#F5F7F8"/>
<path d="M7.2564 1.73723L7.08869 2.11395L6.69376 2.16408L6.98505 2.44704L6.90866 2.85474L7.25639 2.62193L7.60413 2.85474L7.52774 2.44704L7.81903 2.16408L7.4241 2.11395L7.2564 1.73723Z" fill="#F5F7F8"/>
<path d="M9.60334 1.73723L9.43563 2.11395L9.0407 2.16408L9.33199 2.44704L9.2556 2.85474L9.60333 2.62193L9.95107 2.85474L9.87468 2.44704L10.166 2.16408L9.77104 2.11395L9.60334 1.73723Z" fill="#F5F7F8"/>
<path d="M12.079 1.73723L11.9113 2.11395L11.5164 2.16408L11.8077 2.44704L11.7313 2.85474L12.079 2.62193L12.4267 2.85474L12.3503 2.44704L12.6416 2.16408L12.2467 2.11395L12.079 1.73723Z" fill="#F5F7F8"/>
<path d="M2.40176 3.82702L2.23406 4.20375L1.83912 4.25387L2.13042 4.53684L2.05403 4.94454L2.40176 4.71172L2.7495 4.94454L2.67311 4.53684L2.9644 4.25387L2.56947 4.20375L2.40176 3.82702Z" fill="#F5F7F8"/>
<path d="M4.7487 3.82702L4.581 4.20375L4.18606 4.25387L4.47736 4.53684L4.40097 4.94454L4.7487 4.71172L5.09644 4.94454L5.02005 4.53684L5.31134 4.25387L4.91641 4.20375L4.7487 3.82702Z" fill="#F5F7F8"/>
<path d="M7.2564 3.82702L7.08869 4.20375L6.69376 4.25387L6.98505 4.53684L6.90866 4.94454L7.25639 4.71172L7.60413 4.94454L7.52774 4.53684L7.81903 4.25387L7.4241 4.20375L7.2564 3.82702Z" fill="#F5F7F8"/>
<path d="M9.60334 3.82702L9.43563 4.20375L9.0407 4.25387L9.33199 4.53684L9.2556 4.94454L9.60333 4.71172L9.95107 4.94454L9.87468 4.53684L10.166 4.25387L9.77104 4.20375L9.60334 3.82702Z" fill="#F5F7F8"/>
<path d="M12.079 3.82702L11.9113 4.20375L11.5164 4.25387L11.8077 4.53684L11.7313 4.94454L12.079 4.71172L12.4267 4.94454L12.3503 4.53684L12.6416 4.25387L12.2467 4.20375L12.079 3.82702Z" fill="#F5F7F8"/>
<path d="M2.40176 5.82039L2.23406 6.19712L1.83912 6.24724L2.13042 6.53021L2.05403 6.93791L2.40176 6.70509L2.7495 6.93791L2.67311 6.53021L2.9644 6.24724L2.56947 6.19712L2.40176 5.82039Z" fill="#F5F7F8"/>
<path d="M4.7487 5.82039L4.581 6.19712L4.18606 6.24724L4.47736 6.53021L4.40097 6.93791L4.7487 6.70509L5.09644 6.93791L5.02005 6.53021L5.31134 6.24724L4.91641 6.19712L4.7487 5.82039Z" fill="#F5F7F8"/>
<path d="M7.2564 5.82039L7.08869 6.19712L6.69376 6.24724L6.98505 6.53021L6.90866 6.93791L7.25639 6.70509L7.60413 6.93791L7.52774 6.53021L7.81903 6.24724L7.4241 6.19712L7.2564 5.82039Z" fill="#F5F7F8"/>
<path d="M9.60334 5.82039L9.43563 6.19712L9.0407 6.24724L9.33199 6.53021L9.2556 6.93791L9.60333 6.70509L9.95107 6.93791L9.87468 6.53021L10.166 6.24724L9.77104 6.19712L9.60334 5.82039Z" fill="#F5F7F8"/>
<path d="M12.079 5.82039L11.9113 6.19712L11.5164 6.24724L11.8077 6.53021L11.7313 6.93791L12.079 6.70509L12.4267 6.93791L12.3503 6.53021L12.6416 6.24724L12.2467 6.19712L12.079 5.82039Z" fill="#F5F7F8"/>
<path d="M2.40176 7.84586L2.23406 8.22259L1.83912 8.27271L2.13042 8.55568L2.05403 8.96338L2.40176 8.73056L2.7495 8.96338L2.67311 8.55568L2.9644 8.27271L2.56947 8.22259L2.40176 7.84586Z" fill="#F5F7F8"/>
<path d="M4.7487 7.84586L4.581 8.22259L4.18606 8.27271L4.47736 8.55568L4.40097 8.96338L4.7487 8.73056L5.09644 8.96338L5.02005 8.55568L5.31134 8.27271L4.91641 8.22259L4.7487 7.84586Z" fill="#F5F7F8"/>
<path d="M7.2564 7.84586L7.08869 8.22259L6.69376 8.27271L6.98505 8.55568L6.90866 8.96338L7.25639 8.73056L7.60413 8.96338L7.52774 8.55568L7.81903 8.27271L7.4241 8.22259L7.2564 7.84586Z" fill="#F5F7F8"/>
<path d="M9.60334 7.84586L9.43563 8.22259L9.0407 8.27271L9.33199 8.55568L9.2556 8.96338L9.60333 8.73056L9.95107 8.96338L9.87468 8.55568L10.166 8.27271L9.77104 8.22259L9.60334 7.84586Z" fill="#F5F7F8"/>
<path d="M12.079 7.84586L11.9113 8.22259L11.5164 8.27271L11.8077 8.55568L11.7313 8.96338L12.079 8.73056L12.4267 8.96338L12.3503 8.55568L12.6416 8.27271L12.2467 8.22259L12.079 7.84586Z" fill="#F5F7F8"/>
<path d="M1.24446 2.79822L1.07676 3.17494L0.681824 3.22507L0.973116 3.50803L0.896726 3.91573L1.24446 3.68292L1.5922 3.91573L1.51581 3.50803L1.8071 3.22507L1.41217 3.17494L1.24446 2.79822Z" fill="#F5F7F8"/>
<path d="M3.5914 2.79822L3.4237 3.17494L3.02876 3.22507L3.32006 3.50803L3.24367 3.91573L3.5914 3.68292L3.93914 3.91573L3.86275 3.50803L4.15404 3.22507L3.75911 3.17494L3.5914 2.79822Z" fill="#F5F7F8"/>
<path d="M6.0991 2.79822L5.93139 3.17494L5.53646 3.22507L5.82775 3.50803L5.75136 3.91573L6.09909 3.68292L6.44683 3.91573L6.37044 3.50803L6.66173 3.22507L6.2668 3.17494L6.0991 2.79822Z" fill="#F5F7F8"/>
<path d="M8.44604 2.79822L8.27833 3.17494L7.8834 3.22507L8.17469 3.50803L8.0983 3.91573L8.44603 3.68292L8.79377 3.91573L8.71738 3.50803L9.00867 3.22507L8.61374 3.17494L8.44604 2.79822Z" fill="#F5F7F8"/>
<path d="M10.9217 2.79822L10.754 3.17494L10.3591 3.22507L10.6504 3.50803L10.574 3.91573L10.9217 3.68292L11.2694 3.91573L11.193 3.50803L11.4843 3.22507L11.0894 3.17494L10.9217 2.79822Z" fill="#F5F7F8"/>
<path d="M13.2686 2.79822L13.1009 3.17494L12.706 3.22507L12.9973 3.50803L12.9209 3.91573L13.2686 3.68292L13.6164 3.91573L13.54 3.50803L13.8313 3.22507L13.4363 3.17494L13.2686 2.79822Z" fill="#F5F7F8"/>
<path d="M1.24446 4.88801L1.07676 5.26474L0.681824 5.31486L0.973116 5.59783L0.896726 6.00553L1.24446 5.77271L1.5922 6.00553L1.51581 5.59783L1.8071 5.31486L1.41217 5.26474L1.24446 4.88801Z" fill="#F5F7F8"/>
<path d="M3.5914 4.88801L3.4237 5.26474L3.02876 5.31486L3.32006 5.59783L3.24367 6.00553L3.5914 5.77271L3.93914 6.00553L3.86275 5.59783L4.15404 5.31486L3.75911 5.26474L3.5914 4.88801Z" fill="#F5F7F8"/>
<path d="M6.0991 4.88801L5.93139 5.26474L5.53646 5.31486L5.82775 5.59783L5.75136 6.00553L6.09909 5.77271L6.44683 6.00553L6.37044 5.59783L6.66173 5.31486L6.2668 5.26474L6.0991 4.88801Z" fill="#F5F7F8"/>
<path d="M8.44604 4.88801L8.27833 5.26474L7.8834 5.31486L8.17469 5.59783L8.0983 6.00553L8.44603 5.77271L8.79377 6.00553L8.71738 5.59783L9.00867 5.31486L8.61374 5.26474L8.44604 4.88801Z" fill="#F5F7F8"/>
<path d="M10.9217 4.88801L10.754 5.26474L10.3591 5.31486L10.6504 5.59783L10.574 6.00553L10.9217 5.77271L11.2694 6.00553L11.193 5.59783L11.4843 5.31486L11.0894 5.26474L10.9217 4.88801Z" fill="#F5F7F8"/>
<path d="M13.2686 4.88801L13.1009 5.26474L12.706 5.31486L12.9973 5.59783L12.9209 6.00553L13.2686 5.77271L13.6164 6.00553L13.54 5.59783L13.8313 5.31486L13.4363 5.26474L13.2686 4.88801Z" fill="#F5F7F8"/>
<path d="M1.24446 6.81706L1.07676 7.19378L0.681824 7.24391L0.973116 7.52687L0.896726 7.93457L1.24446 7.70176L1.5922 7.93457L1.51581 7.52687L1.8071 7.24391L1.41217 7.19378L1.24446 6.81706Z" fill="#F5F7F8"/>
<path d="M3.5914 6.81706L3.4237 7.19378L3.02876 7.24391L3.32006 7.52687L3.24367 7.93457L3.5914 7.70176L3.93914 7.93457L3.86275 7.52687L4.15404 7.24391L3.75911 7.19378L3.5914 6.81706Z" fill="#F5F7F8"/>
<path d="M6.0991 6.81706L5.93139 7.19378L5.53646 7.24391L5.82775 7.52687L5.75136 7.93457L6.09909 7.70176L6.44683 7.93457L6.37044 7.52687L6.66173 7.24391L6.2668 7.19378L6.0991 6.81706Z" fill="#F5F7F8"/>
<path d="M8.44604 6.81706L8.27833 7.19378L7.8834 7.24391L8.17469 7.52687L8.0983 7.93457L8.44603 7.70176L8.79377 7.93457L8.71738 7.52687L9.00867 7.24391L8.61374 7.19378L8.44604 6.81706Z" fill="#F5F7F8"/>
<path d="M10.9217 6.81706L10.754 7.19378L10.3591 7.24391L10.6504 7.52687L10.574 7.93457L10.9217 7.70176L11.2694 7.93457L11.193 7.52687L11.4843 7.24391L11.0894 7.19378L10.9217 6.81706Z" fill="#F5F7F8"/>
<path d="M13.2686 6.81706L13.1009 7.19378L12.706 7.24391L12.9973 7.52687L12.9209 7.93457L13.2686 7.70176L13.6164 7.93457L13.54 7.52687L13.8313 7.24391L13.4363 7.19378L13.2686 6.81706Z" fill="#F5F7F8"/>
<path d="M1.24446 8.7461L1.07676 9.12282L0.681824 9.17295L0.973116 9.45592L0.896726 9.86361L1.24446 9.6308L1.5922 9.86361L1.51581 9.45592L1.8071 9.17295L1.41217 9.12282L1.24446 8.7461Z" fill="#F5F7F8"/>
<path d="M3.5914 8.7461L3.4237 9.12282L3.02876 9.17295L3.32006 9.45592L3.24367 9.86361L3.5914 9.6308L3.93914 9.86361L3.86275 9.45592L4.15404 9.17295L3.75911 9.12282L3.5914 8.7461Z" fill="#F5F7F8"/>
<path d="M6.0991 8.7461L5.93139 9.12282L5.53646 9.17295L5.82775 9.45592L5.75136 9.86361L6.09909 9.6308L6.44683 9.86361L6.37044 9.45592L6.66173 9.17295L6.2668 9.12282L6.0991 8.7461Z" fill="#F5F7F8"/>
<path d="M8.44604 8.7461L8.27833 9.12282L7.8834 9.17295L8.17469 9.45592L8.0983 9.86361L8.44603 9.6308L8.79377 9.86361L8.71738 9.45592L9.00867 9.17295L8.61374 9.12282L8.44604 8.7461Z" fill="#F5F7F8"/>
<path d="M10.9217 8.7461L10.754 9.12282L10.3591 9.17295L10.6504 9.45592L10.574 9.86361L10.9217 9.6308L11.2694 9.86361L11.193 9.45592L11.4843 9.17295L11.0894 9.12282L10.9217 8.7461Z" fill="#F5F7F8"/>
<path d="M13.2686 8.7461L13.1009 9.12282L12.706 9.17295L12.9973 9.45592L12.9209 9.86361L13.2686 9.6308L13.6164 9.86361L13.54 9.45592L13.8313 9.17295L13.4363 9.12282L13.2686 8.7461Z" fill="#F5F7F8"/>
</g>
</svg>
