<svg width="29" height="20" viewBox="0 0 29 20" fill="none" xmlns="http://www.w3.org/2000/svg">
<mask id="mask0_11482_7858" style="mask-type:alpha" maskUnits="userSpaceOnUse" x="0" y="0" width="29" height="20">
<rect width="29" height="20" fill="#D9D9D9"/>
</mask>
<g mask="url(#mask0_11482_7858)">
<rect y="23.6001" width="25.2" height="29" transform="rotate(-90 0 23.6001)" fill="#F5F7F8"/>
<rect x="14.5" y="5.6001" width="3.6" height="14.5" transform="rotate(-90 14.5 5.6001)" fill="#DD2033"/>
<rect x="14.5" y="12.8" width="3.6" height="14.5" transform="rotate(-90 14.5 12.8)" fill="#DD2033"/>
<rect y="20" width="3.6" height="29" transform="rotate(-90 0 20)" fill="#DD2033"/>
<rect y="12.8" width="12.8" height="14.5" transform="rotate(-90 0 12.8)" fill="#004692"/>
<path d="M11.4389 7.2001L10.7185 8.81822L9.02217 9.03352L10.2733 10.2489L9.94523 12.0001L11.4388 11.0001L12.9324 12.0001L12.6043 10.2489L13.8555 9.03352L12.1592 8.81822L11.4389 7.2001Z" fill="#F5F7F8"/>
<path d="M11.4389 -2.3999L10.7185 -0.781778L9.02217 -0.566478L10.2733 0.648935L9.94523 2.4001L11.4388 1.4001L12.9324 2.4001L12.6043 0.648935L13.8555 -0.566478L12.1592 -0.781778L11.4389 -2.3999Z" fill="#F5F7F8"/>
<path d="M8.21663 2.4001L7.49628 4.01822L5.79995 4.23352L7.05112 5.44893L6.72301 7.2001L8.21662 6.2001L9.71023 7.2001L9.38211 5.44893L10.6333 4.23352L8.93695 4.01822L8.21663 2.4001Z" fill="#F5F7F8"/>
<path d="M4.59163 7.2001L3.87128 8.81822L2.17495 9.03352L3.42612 10.2489L3.09801 12.0001L4.59162 11.0001L6.08523 12.0001L5.75711 10.2489L7.00828 9.03352L5.31195 8.81822L4.59163 7.2001Z" fill="#F5F7F8"/>
<path d="M4.59163 -2.3999L3.87128 -0.781778L2.17495 -0.566478L3.42612 0.648935L3.09801 2.4001L4.59162 1.4001L6.08523 2.4001L5.75711 0.648935L7.00828 -0.566478L5.31195 -0.781778L4.59163 -2.3999Z" fill="#F5F7F8"/>
<path d="M1.36941 2.4001L0.649061 4.01822L-1.04727 4.23352L0.203901 5.44893L-0.124214 7.2001L1.36939 6.2001L2.863 7.2001L2.53489 5.44893L3.78606 4.23352L2.08973 4.01822L1.36941 2.4001Z" fill="#F5F7F8"/>
</g>
</svg>
