<svg width="20" height="20" viewBox="0 0 20 20" fill="none" xmlns="http://www.w3.org/2000/svg">
<mask id="mask0_11482_7849" style="mask-type:alpha" maskUnits="userSpaceOnUse" x="0" y="0" width="20" height="20">
<circle cx="10" cy="10" r="10" fill="#D9D9D9"/>
</mask>
<g mask="url(#mask0_11482_7849)">
<rect y="17.5" width="17.5" height="20" transform="rotate(-90 0 17.5)" fill="#F5F7F8"/>
<rect x="10" y="5" width="2.5" height="10" transform="rotate(-90 10 5)" fill="#DD2033"/>
<rect x="10" y="10" width="2.5" height="10" transform="rotate(-90 10 10)" fill="#DD2033"/>
<rect y="15" width="2.5" height="20" transform="rotate(-90 0 15)" fill="#DD2033"/>
<rect y="20" width="2.5" height="20" transform="rotate(-90 0 20)" fill="#DD2033"/>
<rect y="10" width="10" height="10" transform="rotate(-90 0 10)" fill="#004692"/>
<path d="M7.88886 6.111L7.39207 7.2347L6.22218 7.38421L7.08506 8.22825L6.85878 9.44434L7.88885 8.74989L8.91893 9.44434L8.69264 8.22825L9.55552 7.38421L8.38563 7.2347L7.88886 6.111Z" fill="#F5F7F8"/>
<path d="M7.88886 -0.555664L7.39207 0.568034L6.22218 0.717548L7.08506 1.56158L6.85878 2.77767L7.88885 2.08323L8.91893 2.77767L8.69264 1.56158L9.55552 0.717548L8.38563 0.568034L7.88886 -0.555664Z" fill="#F5F7F8"/>
<path d="M5.66664 2.77767L5.16985 3.90137L3.99996 4.05088L4.86284 4.89492L4.63655 6.111L5.66663 5.41656L6.6967 6.111L6.47042 4.89492L7.3333 4.05088L6.16341 3.90137L5.66664 2.77767Z" fill="#F5F7F8"/>
<path d="M3.16664 6.111L2.66985 7.2347L1.49996 7.38421L2.36284 8.22825L2.13655 9.44434L3.16663 8.74989L4.1967 9.44434L3.97042 8.22825L4.8333 7.38421L3.66341 7.2347L3.16664 6.111Z" fill="#F5F7F8"/>
<path d="M3.16664 -0.555664L2.66985 0.568034L1.49996 0.717548L2.36284 1.56158L2.13655 2.77767L3.16663 2.08323L4.1967 2.77767L3.97042 1.56158L4.8333 0.717548L3.66341 0.568034L3.16664 -0.555664Z" fill="#F5F7F8"/>
<path d="M0.944416 2.77767L0.447625 3.90137L-0.72226 4.05088L0.140618 4.89492L-0.0856677 6.111L0.944407 5.41656L1.97448 6.111L1.7482 4.89492L2.61107 4.05088L1.44119 3.90137L0.944416 2.77767Z" fill="#F5F7F8"/>
</g>
</svg>
