<svg width="72" height="72" viewBox="0 0 72 72" fill="none" xmlns="http://www.w3.org/2000/svg">
<mask id="mask0_47_1184" style="mask-type:alpha" maskUnits="userSpaceOnUse" x="0" y="0" width="72" height="72">
<circle cx="36" cy="36" r="36" fill="#D9D9D9"/>
</mask>
<g mask="url(#mask0_47_1184)">
<rect width="72" height="72" fill="#86C5FA"/>
<path d="M20.2292 20.6611C16.3742 24.624 14 30.0347 14 36C14 46.5479 21.423 55.362 31.3301 57.5034C30.092 58.9763 30.166 61.1775 31.552 62.5635L36.1157 57.9997C36.4491 57.998 36.7807 57.9889 37.1103 57.9725L41.7013 62.5635C43.1654 61.0994 43.1654 58.7256 41.7013 57.2616C41.6994 57.2596 41.6974 57.2576 41.6954 57.2557C51.0849 54.7461 58 46.1806 58 36C58 30.2446 55.7899 25.0054 52.1722 21.0847L48.7349 24.7382C51.3889 27.7371 53 31.6804 53 36C53 45.3889 45.3888 53 36 53C26.6112 53 19 45.3889 19 36C19 31.4704 20.7716 27.3545 23.6596 24.3074L20.2292 20.6611Z" fill="#86C5FA"/>
<path fill-rule="evenodd" clip-rule="evenodd" d="M48 36C48 42.6274 42.6274 48 36 48C29.3726 48 24 42.6274 24 36C24 29.3726 29.3726 24 36 24C42.6274 24 48 29.3726 48 36ZM31.6753 38.511L28.7937 41.3925C27.8555 40.1407 27.2358 38.6365 27.0549 37H31.1C31.2097 37.5404 31.4066 38.0492 31.6753 38.511ZM31.6753 33.489C31.4066 33.9508 31.2097 34.4596 31.1 35H27.0549C27.2358 33.3635 27.8555 31.8593 28.7937 30.6075L31.6753 33.489ZM34.6001 31.1986C34.0187 31.3678 33.4811 31.6398 33.0082 31.9935L30.1635 29.1488C31.3989 28.0954 32.9228 27.3702 34.6001 27.1082V31.1986ZM38.511 31.6753C37.9368 31.3412 37.29 31.1182 36.6001 31.0356V27.0197C38.3913 27.1376 40.0394 27.7796 41.3925 28.7937L38.511 31.6753ZM40.9 35C40.7507 34.2646 40.44 33.5878 40.0065 33.0082L42.8512 30.1635C43.9878 31.4964 44.7422 33.1651 44.9451 35H40.9ZM40.0065 38.9918C40.44 38.4122 40.7507 37.7354 40.9 37H44.9451C44.7422 38.8349 43.9878 40.5036 42.8512 41.8365L40.0065 38.9918ZM36.6001 40.9644C37.29 40.8818 37.9368 40.6588 38.511 40.3247L41.3925 43.2063C40.0394 44.2204 38.3913 44.8624 36.6001 44.9803V40.9644ZM34.6001 40.8014C34.0187 40.6322 33.4811 40.3602 33.0082 40.0065L30.1635 42.8512C31.3989 43.9046 32.9228 44.6298 34.6001 44.8918V40.8014Z" fill="#86C5FA"/>
<path d="M40.6407 58.3222C41.1114 58.793 41.3299 59.4205 41.296 60.0368L38.171 56.9118L37.7005 56.4413L37.0359 56.4743C36.7284 56.4896 36.4191 56.4981 36.108 56.4997L35.4912 56.5029L35.055 56.9391L31.9573 60.0368C31.9267 59.4821 32.1003 58.9183 32.4784 58.4685L34.08 56.5631L31.647 56.0372C22.4158 54.0419 15.5 45.8269 15.5 36C15.5 31.0061 17.2841 26.4313 20.2521 22.8746L21.6338 24.3432C19.05 27.524 17.5 31.5823 17.5 36C17.5 46.2173 25.7827 54.5 36 54.5C46.2173 54.5 54.5 46.2173 54.5 36C54.5 31.7943 53.095 27.9138 50.7304 24.8063L52.1181 23.3313C54.8635 26.8189 56.5 31.217 56.5 36C56.5 45.4844 50.0579 53.468 41.3081 55.8065L38.7907 56.4794L40.6368 58.3184L40.6385 58.3201L40.6398 58.3213L40.6407 58.3222ZM33.3318 38.3754L32.9718 37.7566C32.7838 37.4336 32.6466 37.0786 32.57 36.7016L32.4276 36L32.57 35.2984C32.6466 34.9214 32.7838 34.5664 32.9718 34.2434L33.3319 33.6246L33.9066 33.1947C34.2382 32.9467 34.614 32.7568 35.0193 32.6388L35.705 32.4393L36.4219 32.525C36.904 32.5827 37.3553 32.7383 37.7566 32.9718L38.3754 33.3319L38.8053 33.9066C39.1092 34.3129 39.3259 34.7857 39.43 35.2984L39.5724 36L39.43 36.7016C39.3259 37.2143 39.1092 37.6871 38.8053 38.0934L38.3754 38.6681L37.7566 39.0282C37.3553 39.2617 36.904 39.4173 36.422 39.475L35.705 39.5607L35.0193 39.3612C34.614 39.2432 34.2382 39.0533 33.9066 38.8053L33.3318 38.3754ZM34.3686 46.3738L34.4331 46.3839C32.4414 46.0859 30.6326 45.2285 29.1717 43.9768L29.1902 43.9925C30.6304 45.2206 32.4092 46.0678 34.3686 46.3738ZM27.5934 42.2921L27.6189 42.3261C26.4996 40.8455 25.7636 39.0591 25.5584 37.1144L25.564 37.1648C25.7752 39.0757 26.4992 40.8322 27.5934 42.2921ZM25.5584 34.8856C25.7636 32.941 26.4995 31.1547 27.6186 29.6742L27.5934 29.7079C26.4992 31.1678 25.7752 32.9243 25.564 34.8352L25.5584 34.8856ZM29.1902 28.0075L29.1723 28.0228C30.6331 26.7713 32.4418 25.914 34.4332 25.6161L34.3686 25.6262C32.4092 25.9322 30.6303 26.7794 29.1902 28.0075ZM36.6659 25.5208C38.7841 25.6533 40.732 26.4139 42.3256 27.6185L42.2921 27.5934C40.7138 26.4105 38.7891 25.6605 36.6986 25.5229L36.6659 25.5208ZM43.977 29.172C45.3228 30.7428 46.2126 32.7157 46.4416 34.8856L46.436 34.8352C46.1991 32.6923 45.3176 30.7441 43.9925 29.1902L43.977 29.172ZM46.4416 37.1144C46.2126 39.2848 45.3224 41.258 43.9762 42.8289L43.9925 42.8098C45.3176 41.2559 46.1991 39.3077 46.436 37.1648L46.4416 37.1144ZM42.3262 44.381C40.7324 45.586 38.7841 46.3468 36.6655 46.4793L36.6986 46.4771C38.7891 46.3395 40.7138 45.5895 42.2921 44.4066L42.3262 44.381Z" stroke="#F5F7F8" stroke-width="3"/>
</g>
</svg>
