<svg width="72" height="72" viewBox="0 0 72 72" fill="none" xmlns="http://www.w3.org/2000/svg">
<mask id="mask0_47_1184" style="mask-type:alpha" maskUnits="userSpaceOnUse" x="0" y="0" width="72" height="72">
<circle cx="36" cy="36" r="36" fill="#D9D9D9"/>
</mask>
<g mask="url(#mask0_47_1184)">
<rect width="72" height="72" fill="#86C5FA"/>
<mask id="path-3-inside-1_47_1184" fill="white">
<path d="M20.2292 20.6611C16.3742 24.624 14 30.0347 14 36C14 46.5479 21.423 55.362 31.3301 57.5034C30.092 58.9763 30.166 61.1775 31.552 62.5635L36.1157 57.9997C36.4491 57.998 36.7807 57.9889 37.1103 57.9725L41.7013 62.5635C43.1654 61.0994 43.1654 58.7256 41.7013 57.2616C41.6994 57.2596 41.6974 57.2576 41.6954 57.2557C51.0849 54.7461 58 46.1806 58 36C58 30.2446 55.7899 25.0054 52.1722 21.0847L48.7349 24.7382C51.3889 27.7371 53 31.6804 53 36C53 45.3889 45.3888 53 36 53C26.6112 53 19 45.3889 19 36C19 31.4704 20.7716 27.3545 23.6596 24.3074L20.2292 20.6611Z"/>
<path fill-rule="evenodd" clip-rule="evenodd" d="M48 36C48 42.6274 42.6274 48 36 48C29.3726 48 24 42.6274 24 36C24 29.3726 29.3726 24 36 24C42.6274 24 48 29.3726 48 36ZM31.6753 38.511L28.7937 41.3925C27.8555 40.1407 27.2358 38.6365 27.0549 37H31.1C31.2097 37.5404 31.4066 38.0492 31.6753 38.511ZM31.6753 33.489C31.4066 33.9508 31.2097 34.4596 31.1 35H27.0549C27.2358 33.3635 27.8555 31.8593 28.7937 30.6075L31.6753 33.489ZM34.6001 31.1986C34.0187 31.3678 33.4811 31.6398 33.0082 31.9935L30.1635 29.1488C31.3989 28.0954 32.9228 27.3702 34.6001 27.1082V31.1986ZM38.511 31.6753C37.9368 31.3412 37.29 31.1182 36.6001 31.0356V27.0197C38.3913 27.1376 40.0394 27.7796 41.3925 28.7937L38.511 31.6753ZM40.9 35C40.7507 34.2646 40.44 33.5878 40.0065 33.0082L42.8512 30.1635C43.9878 31.4964 44.7422 33.1651 44.9451 35H40.9ZM40.0065 38.9918C40.44 38.4122 40.7507 37.7354 40.9 37H44.9451C44.7422 38.8349 43.9878 40.5036 42.8512 41.8365L40.0065 38.9918ZM36.6001 40.9644C37.29 40.8818 37.9368 40.6588 38.511 40.3247L41.3925 43.2063C40.0394 44.2204 38.3913 44.8624 36.6001 44.9803V40.9644ZM34.6001 40.8014C34.0187 40.6322 33.4811 40.3602 33.0082 40.0065L30.1635 42.8512C31.3989 43.9046 32.9228 44.6298 34.6001 44.8918V40.8014Z"/>
</mask>
<path d="M20.2292 20.6611C16.3742 24.624 14 30.0347 14 36C14 46.5479 21.423 55.362 31.3301 57.5034C30.092 58.9763 30.166 61.1775 31.552 62.5635L36.1157 57.9997C36.4491 57.998 36.7807 57.9889 37.1103 57.9725L41.7013 62.5635C43.1654 61.0994 43.1654 58.7256 41.7013 57.2616C41.6994 57.2596 41.6974 57.2576 41.6954 57.2557C51.0849 54.7461 58 46.1806 58 36C58 30.2446 55.7899 25.0054 52.1722 21.0847L48.7349 24.7382C51.3889 27.7371 53 31.6804 53 36C53 45.3889 45.3888 53 36 53C26.6112 53 19 45.3889 19 36C19 31.4704 20.7716 27.3545 23.6596 24.3074L20.2292 20.6611Z" fill="#86C5FA"/>
<path fill-rule="evenodd" clip-rule="evenodd" d="M48 36C48 42.6274 42.6274 48 36 48C29.3726 48 24 42.6274 24 36C24 29.3726 29.3726 24 36 24C42.6274 24 48 29.3726 48 36ZM31.6753 38.511L28.7937 41.3925C27.8555 40.1407 27.2358 38.6365 27.0549 37H31.1C31.2097 37.5404 31.4066 38.0492 31.6753 38.511ZM31.6753 33.489C31.4066 33.9508 31.2097 34.4596 31.1 35H27.0549C27.2358 33.3635 27.8555 31.8593 28.7937 30.6075L31.6753 33.489ZM34.6001 31.1986C34.0187 31.3678 33.4811 31.6398 33.0082 31.9935L30.1635 29.1488C31.3989 28.0954 32.9228 27.3702 34.6001 27.1082V31.1986ZM38.511 31.6753C37.9368 31.3412 37.29 31.1182 36.6001 31.0356V27.0197C38.3913 27.1376 40.0394 27.7796 41.3925 28.7937L38.511 31.6753ZM40.9 35C40.7507 34.2646 40.44 33.5878 40.0065 33.0082L42.8512 30.1635C43.9878 31.4964 44.7422 33.1651 44.9451 35H40.9ZM40.0065 38.9918C40.44 38.4122 40.7507 37.7354 40.9 37H44.9451C44.7422 38.8349 43.9878 40.5036 42.8512 41.8365L40.0065 38.9918ZM36.6001 40.9644C37.29 40.8818 37.9368 40.6588 38.511 40.3247L41.3925 43.2063C40.0394 44.2204 38.3913 44.8624 36.6001 44.9803V40.9644ZM34.6001 40.8014C34.0187 40.6322 33.4811 40.3602 33.0082 40.0065L30.1635 42.8512C31.3989 43.9046 32.9228 44.6298 34.6001 44.8918V40.8014Z" fill="#86C5FA"/>
<path d="M20.2292 20.6611C16.3742 24.624 14 30.0347 14 36C14 46.5479 21.423 55.362 31.3301 57.5034C30.092 58.9763 30.166 61.1775 31.552 62.5635L36.1157 57.9997C36.4491 57.998 36.7807 57.9889 37.1103 57.9725L41.7013 62.5635C43.1654 61.0994 43.1654 58.7256 41.7013 57.2616C41.6994 57.2596 41.6974 57.2576 41.6954 57.2557C51.0849 54.7461 58 46.1806 58 36C58 30.2446 55.7899 25.0054 52.1722 21.0847L48.7349 24.7382C51.3889 27.7371 53 31.6804 53 36C53 45.3889 45.3888 53 36 53C26.6112 53 19 45.3889 19 36C19 31.4704 20.7716 27.3545 23.6596 24.3074L20.2292 20.6611Z" stroke="#F5F7F8" stroke-width="6" mask="url(#path-3-inside-1_47_1184)"/>
<path fill-rule="evenodd" clip-rule="evenodd" d="M48 36C48 42.6274 42.6274 48 36 48C29.3726 48 24 42.6274 24 36C24 29.3726 29.3726 24 36 24C42.6274 24 48 29.3726 48 36ZM31.6753 38.511L28.7937 41.3925C27.8555 40.1407 27.2358 38.6365 27.0549 37H31.1C31.2097 37.5404 31.4066 38.0492 31.6753 38.511ZM31.6753 33.489C31.4066 33.9508 31.2097 34.4596 31.1 35H27.0549C27.2358 33.3635 27.8555 31.8593 28.7937 30.6075L31.6753 33.489ZM34.6001 31.1986C34.0187 31.3678 33.4811 31.6398 33.0082 31.9935L30.1635 29.1488C31.3989 28.0954 32.9228 27.3702 34.6001 27.1082V31.1986ZM38.511 31.6753C37.9368 31.3412 37.29 31.1182 36.6001 31.0356V27.0197C38.3913 27.1376 40.0394 27.7796 41.3925 28.7937L38.511 31.6753ZM40.9 35C40.7507 34.2646 40.44 33.5878 40.0065 33.0082L42.8512 30.1635C43.9878 31.4964 44.7422 33.1651 44.9451 35H40.9ZM40.0065 38.9918C40.44 38.4122 40.7507 37.7354 40.9 37H44.9451C44.7422 38.8349 43.9878 40.5036 42.8512 41.8365L40.0065 38.9918ZM36.6001 40.9644C37.29 40.8818 37.9368 40.6588 38.511 40.3247L41.3925 43.2063C40.0394 44.2204 38.3913 44.8624 36.6001 44.9803V40.9644ZM34.6001 40.8014C34.0187 40.6322 33.4811 40.3602 33.0082 40.0065L30.1635 42.8512C31.3989 43.9046 32.9228 44.6298 34.6001 44.8918V40.8014Z" stroke="#F5F7F8" stroke-width="6" mask="url(#path-3-inside-1_47_1184)"/>
</g>
</svg>
