<svg width="72" height="72" viewBox="0 0 72 72" fill="none" xmlns="http://www.w3.org/2000/svg">
<mask id="mask0_47_1184" style="mask-type:alpha" maskUnits="userSpaceOnUse" x="0" y="0" width="72" height="72">
<circle cx="36" cy="36" r="36" fill="#D9D9D9"/>
</mask>
<g mask="url(#mask0_47_1184)">
<rect width="72" height="72" fill="#86C5FA"/>
<path fill-rule="evenodd" clip-rule="evenodd" d="M44.6973 56.214C52.5221 52.8428 58 45.0611 58 36C58 31.3336 56.5472 27.0066 54.0692 23.4465C53.4909 22.6157 52.8567 21.8266 52.1722 21.0847L48.7349 24.7382C51.3889 27.7371 53 31.6804 53 36C53 45.3889 45.3888 53 36 53C26.6112 53 19 45.3889 19 36C19 31.4704 20.7716 27.3545 23.6596 24.3074L20.2292 20.6611C19.5274 21.3825 18.8748 22.1519 18.2765 22.9638C15.5885 26.6122 14 31.1206 14 36C14 45.4454 19.9524 53.5006 28.3108 56.6189C29.2863 56.9829 30.2947 57.2796 31.3301 57.5034C30.867 58.0544 30.5875 58.7073 30.4915 59.3813C30.444 59.7152 30.4415 60.0543 30.4841 60.3888C30.5854 61.1839 30.9413 61.9528 31.552 62.5635L36.1157 57.9997C36.4491 57.998 36.7807 57.9889 37.1103 57.9725L41.7013 62.5635C42.3947 61.87 42.7597 60.9726 42.7963 60.0643C42.8055 59.8363 42.794 59.6076 42.7618 59.3813C42.6514 58.6057 42.2979 57.8581 41.7013 57.2616L41.6954 57.2557C41.7008 57.2542 41.7062 57.2528 41.7115 57.2513C42.7384 56.9761 43.7356 56.6283 44.6973 56.214ZM33.6001 40.3875C33.6959 40.44 33.7936 40.4895 33.8931 40.5357C34.12 40.6413 34.3562 40.7304 34.6001 40.8014V44.8918C34.2601 44.8387 33.9264 44.7665 33.6001 44.6765C33.3388 44.6044 33.0822 44.5208 32.831 44.4262C32.4044 44.2657 31.9931 44.0737 31.6001 43.853C31.3833 43.7313 31.172 43.6008 30.9668 43.4621C30.8448 43.3797 30.7251 43.2944 30.6075 43.2063C30.4946 43.1217 30.3838 43.0345 30.2752 42.9448C30.2377 42.9139 30.2005 42.8827 30.1635 42.8512L33.0082 40.0065C33.1619 40.1214 33.3224 40.2278 33.489 40.3247C33.5258 40.3461 33.5628 40.367 33.6001 40.3875ZM28.1894 45.1104C27.5391 44.5524 26.9493 43.926 26.4311 43.2424C26.3011 43.0709 26.1756 42.8958 26.0548 42.7172C25.1128 41.3253 24.4553 39.725 24.1659 38C24.1246 37.7539 24.0908 37.5053 24.0648 37.2543C24.0219 36.8421 24 36.4236 24 36C24 35.5764 24.0219 35.1579 24.0648 34.7457C24.0908 34.4947 24.1246 34.2461 24.1659 34C24.4553 32.275 25.1128 30.6747 26.0548 29.2828C26.1755 29.1043 26.301 28.9293 26.4309 28.7578C26.9493 28.074 27.5393 27.4474 28.1898 26.8893C28.3927 26.7151 28.6016 26.5476 28.816 26.3871C30.2079 25.3453 31.8335 24.5986 33.6001 24.24C33.8094 24.1975 34.0208 24.1605 34.2339 24.129C34.8103 24.044 35.4 24 36 24C36.2513 24 36.5008 24.0077 36.7483 24.023C37.0351 24.0406 37.3191 24.0683 37.6001 24.1058C39.4778 24.356 41.2183 25.0404 42.7172 26.0548C42.8956 26.1755 43.0706 26.3009 43.242 26.4308C43.926 26.9493 44.5527 27.5394 45.1109 28.1899C45.285 28.3929 45.4524 28.6017 45.6129 28.816C46.7329 30.3123 47.5118 32.0787 47.8341 34C47.8754 34.2462 47.9092 34.4948 47.9352 34.7458C47.9781 35.1581 48 35.5765 48 36C48 36.4235 47.9781 36.8419 47.9352 37.2541C47.9092 37.5051 47.8754 37.7538 47.8341 38C47.5118 39.9213 46.7329 41.6877 45.6129 43.184C45.4522 43.3986 45.2846 43.6077 45.1102 43.8108C44.5523 44.4609 43.926 45.0506 43.2425 45.5688C43.071 45.6988 42.8958 45.8244 42.7172 45.9452C41.2183 46.9596 39.4778 47.644 37.6001 47.8942C37.3191 47.9317 37.035 47.9594 36.7483 47.9771C36.5008 47.9923 36.2513 48 36 48C35.4 48 34.8103 47.956 34.2339 47.8709C34.0207 47.8395 33.8094 47.8025 33.6001 47.76C31.8335 47.4014 30.2079 46.6547 28.816 45.6129C28.6014 45.4523 28.3925 45.2847 28.1894 45.1104ZM40.543 43.771C40.8372 43.5986 41.1208 43.4099 41.3925 43.2063L38.511 40.3247C38.2242 40.4916 37.9194 40.6307 37.6001 40.7385C37.5777 40.746 37.5552 40.7535 37.5327 40.7607C37.4887 40.7749 37.4444 40.7884 37.3999 40.8014C37.1413 40.8766 36.8741 40.9316 36.6001 40.9644V44.9803C36.7073 44.9733 36.814 44.9643 36.9202 44.9535C37.0814 44.9372 37.2413 44.9165 37.3999 44.8918C37.4669 44.8813 37.5336 44.8701 37.6001 44.8582C37.9303 44.7989 38.2543 44.7217 38.571 44.6274C38.9236 44.5225 39.2671 44.3966 39.6001 44.2511C39.9248 44.1092 40.2396 43.9487 40.543 43.771ZM40.5357 38.1069C40.4714 38.2451 40.401 38.3799 40.3247 38.511C40.2278 38.6776 40.1214 38.8381 40.0065 38.9918L42.8512 41.8365C42.8827 41.7995 42.9139 41.7623 42.9448 41.7248C43.0345 41.6162 43.1217 41.5054 43.2063 41.3925C43.2944 41.2749 43.3797 41.1552 43.4621 41.0332C43.6848 40.7037 43.8862 40.3586 44.0645 40C44.1985 39.7304 44.3193 39.4531 44.4262 39.169C44.5685 38.7908 44.6861 38.4004 44.777 38C44.8512 37.6731 44.9076 37.3394 44.9451 37H40.9C40.8294 37.3478 40.7227 37.6825 40.584 38C40.5683 38.0358 40.5522 38.0715 40.5357 38.1069ZM38.0418 36L37.9599 36.4032C37.9011 36.6932 37.7784 36.9619 37.6041 37.195L37.3571 37.5252L37.0022 37.7317C36.7737 37.8647 36.518 37.9528 36.2438 37.9856L35.8305 38.035L35.4385 37.9209C35.2093 37.8542 34.9953 37.7465 34.805 37.6041L34.4748 37.3571L34.2683 37.0022C34.1611 36.8181 34.0834 36.6167 34.0401 36.4032L33.9582 36L34.0401 35.5968C34.0834 35.3833 34.1611 35.1819 34.2683 34.9978L34.4748 34.6429L34.805 34.3959C34.9953 34.2535 35.2093 34.1458 35.4385 34.0791L35.8305 33.965L36.2438 34.0144C36.518 34.0472 36.7737 34.1353 37.0022 34.2683L37.3571 34.4748L37.6041 34.805C37.7784 35.0381 37.9011 35.3068 37.9599 35.5968L38.0418 36ZM40.584 34C40.7227 34.3175 40.8294 34.6522 40.9 35H44.9451C44.9449 34.9983 44.9447 34.9966 44.9445 34.9948C44.907 34.6572 44.8508 34.3253 44.777 34C44.6861 33.5995 44.5685 33.2092 44.4262 32.831C44.3193 32.5469 44.1985 32.2696 44.0645 32C43.8862 31.6414 43.6848 31.2963 43.4621 30.9668C43.3797 30.8448 43.2944 30.7251 43.2063 30.6075C43.0925 30.4557 42.9741 30.3076 42.8512 30.1635L40.0065 33.0082C40.1214 33.1619 40.2278 33.3224 40.3247 33.489C40.401 33.6201 40.4714 33.7549 40.5357 33.8931C40.5522 33.9285 40.5683 33.9642 40.584 34ZM40.543 28.229C40.8345 28.3998 41.1155 28.5865 41.3848 28.788C41.3874 28.7899 41.3899 28.7918 41.3925 28.7937L38.511 31.6753C38.2242 31.5084 37.9194 31.3693 37.6001 31.2615C37.5777 31.254 37.5552 31.2465 37.5327 31.2393C37.4887 31.2251 37.4444 31.2116 37.3999 31.1986C37.1413 31.1234 36.8741 31.0684 36.6001 31.0356V27.0197C36.8701 27.0375 37.1369 27.0672 37.3999 27.1082C37.4669 27.1187 37.5336 27.1299 37.6001 27.1418C37.9303 27.2011 38.2543 27.2783 38.571 27.3726C38.9236 27.4775 39.2671 27.6034 39.6001 27.7489C39.9248 27.8908 40.2396 28.0513 40.543 28.229ZM34.6001 27.1082C34.5913 27.1096 34.5824 27.111 34.5736 27.1124C34.2427 27.1651 33.9179 27.2358 33.6001 27.3235C33.3388 27.3956 33.0822 27.4792 32.831 27.5738C32.4044 27.7343 31.9931 27.9263 31.6001 28.147C31.3833 28.2687 31.172 28.3992 30.9668 28.5379C30.8448 28.6203 30.7251 28.7056 30.6075 28.7937C30.4557 28.9075 30.3076 29.0259 30.1635 29.1488L33.0082 31.9935C33.1619 31.8786 33.3224 31.7722 33.489 31.6753C33.5258 31.6539 33.5628 31.633 33.6001 31.6125C33.6959 31.56 33.7936 31.5105 33.8931 31.4643C34.12 31.3587 34.3562 31.2696 34.6001 31.1986V27.1082ZM28.229 31.457C28.3998 31.1655 28.5865 30.8845 28.788 30.6152C28.7899 30.6126 28.7918 30.61 28.7937 30.6075L31.6753 33.489C31.5795 33.6536 31.4929 33.8242 31.416 34C31.3496 34.152 31.2906 34.3079 31.2393 34.4673C31.1834 34.6409 31.1368 34.8187 31.1 35H27.0549C27.0924 34.6606 27.1488 34.3269 27.223 34C27.2668 33.8072 27.3167 33.6168 27.3726 33.429C27.52 32.9334 27.709 32.4558 27.9355 32C28.0273 31.8153 28.1252 31.6342 28.229 31.457ZM27.223 38C27.1492 37.6747 27.093 37.3428 27.0555 37.0052C27.0553 37.0034 27.0551 37.0017 27.0549 37H31.1C31.1368 37.1813 31.1834 37.3591 31.2393 37.5327C31.2906 37.6921 31.3496 37.848 31.416 38C31.4929 38.1758 31.5795 38.3464 31.6753 38.511L28.7937 41.3925C28.5901 41.1208 28.4014 40.8372 28.2291 40.543C28.1252 40.3658 28.0273 40.1847 27.9355 40C27.709 39.5442 27.52 39.0666 27.3726 38.571C27.3167 38.3832 27.2668 38.1928 27.223 38Z" fill="#F5F7F8"/>
</g>
</svg>
