<svg width="29" height="20" viewBox="0 0 29 20" fill="none" xmlns="http://www.w3.org/2000/svg">
<mask id="mask0_11482_7872" style="mask-type:alpha" maskUnits="userSpaceOnUse" x="0" y="0" width="29" height="20">
<rect width="29" height="20" fill="#D9D9D9"/>
</mask>
<g mask="url(#mask0_11482_7872)">
<rect width="29" height="20" fill="#86C5FA"/>
<path fill-rule="evenodd" clip-rule="evenodd" d="M18.0031 16.0856C21.1548 14.7371 23.3611 11.6245 23.3611 8.00005C23.3611 6.1335 22.776 4.40268 21.7779 2.97865C21.545 2.64631 21.2895 2.33068 21.0138 2.03394L19.6294 3.49533C20.6984 4.6949 21.3472 6.27222 21.3472 8.00005C21.3472 11.7556 18.2816 14.8001 14.5 14.8001C10.7184 14.8001 7.6528 11.7556 7.6528 8.00005C7.6528 6.18819 8.36635 4.54183 9.5296 3.32302L8.14788 1.8645C7.86524 2.15305 7.60236 2.46079 7.36141 2.78557C6.27872 4.24495 5.63892 6.0483 5.63892 8.00005C5.63892 11.7782 8.03643 15.0003 11.403 16.2476C11.7959 16.3932 12.202 16.5119 12.6191 16.6014C12.4326 16.8218 12.32 17.083 12.2813 17.3526C12.2622 17.4861 12.2612 17.6218 12.2783 17.7556C12.3191 18.0736 12.4625 18.3812 12.7085 18.6254L14.5466 16.7999C14.6809 16.7992 14.8145 16.7956 14.9472 16.789L16.7964 18.6254C17.0757 18.3481 17.2227 17.9891 17.2374 17.6258C17.2411 17.5346 17.2365 17.4431 17.2235 17.3526C17.1791 17.0423 17.0367 16.7433 16.7964 16.5047L16.794 16.5023C16.7962 16.5017 16.7983 16.5012 16.8005 16.5006C17.2141 16.3905 17.6157 16.2514 18.0031 16.0856ZM13.5334 9.75503C13.572 9.77604 13.6113 9.79583 13.6514 9.81435C13.7428 9.85658 13.8379 9.89221 13.9362 9.9206V11.5568C13.7992 11.5355 13.6648 11.5067 13.5334 11.4706C13.4282 11.4418 13.3248 11.4084 13.2236 11.3705C13.0518 11.3063 12.8861 11.2295 12.7278 11.1413C12.6405 11.0926 12.5554 11.0404 12.4728 10.9849C12.4236 10.9519 12.3754 10.9178 12.328 10.8826C12.2826 10.8487 12.238 10.8139 12.1942 10.778C12.1791 10.7656 12.1641 10.7531 12.1492 10.7405L13.295 9.60264C13.3569 9.64863 13.4215 9.69115 13.4887 9.72994C13.5035 9.73849 13.5184 9.74685 13.5334 9.75503ZM11.3541 11.6442C11.0922 11.421 10.8546 11.1705 10.6459 10.897C10.5935 10.8284 10.543 10.7584 10.4943 10.6869C10.1149 10.1302 9.85009 9.49007 9.73352 8.80005C9.71689 8.70161 9.70328 8.60215 9.69278 8.50178C9.67553 8.33687 9.66669 8.16949 9.66669 8.00005C9.66669 7.83061 9.67553 7.66323 9.69278 7.49832C9.70328 7.39795 9.71689 7.29849 9.73352 7.20005C9.85009 6.51003 10.1149 5.86993 10.4943 5.31315C10.543 5.24177 10.5935 5.17176 10.6458 5.10318C10.8546 4.82964 11.0923 4.579 11.3542 4.35575C11.436 4.28609 11.5201 4.2191 11.6065 4.1549C12.1671 3.73815 12.8219 3.43949 13.5334 3.29606C13.6177 3.27906 13.7028 3.26424 13.7887 3.25167C14.0208 3.21766 14.2584 3.20005 14.5 3.20005C14.6013 3.20005 14.7017 3.20314 14.8014 3.20923C14.9169 3.21629 15.0313 3.22737 15.1445 3.24235C15.9008 3.34243 16.6018 3.6162 17.2056 4.02196C17.2774 4.07025 17.3479 4.12041 17.4169 4.17237C17.6924 4.37975 17.9449 4.61579 18.1697 4.87602C18.2398 4.95719 18.3073 5.04071 18.3719 5.12645C18.823 5.72496 19.1367 6.43154 19.2665 7.20005C19.2832 7.29851 19.2968 7.39799 19.3073 7.49838C19.3245 7.66327 19.3334 7.83063 19.3334 8.00005C19.3334 8.16946 19.3245 8.33682 19.3073 8.50171C19.2968 8.60211 19.2832 8.70159 19.2665 8.80005C19.1367 9.56855 18.823 10.2751 18.3719 10.8737C18.3072 10.9595 18.2396 11.0431 18.1694 11.1244C17.9447 11.3844 17.6925 11.6203 17.4171 11.8276C17.3481 11.8796 17.2775 11.9298 17.2056 11.9781C16.6018 12.3839 15.9008 12.6577 15.1445 12.7577C15.0313 12.7727 14.9169 12.7838 14.8014 12.7909C14.7017 12.797 14.6012 12.8 14.5 12.8C14.2584 12.8 14.0208 12.7824 13.7887 12.7484C13.7028 12.7359 13.6177 12.721 13.5334 12.704C12.8219 12.5606 12.1671 12.2619 11.6065 11.8452C11.5201 11.781 11.4359 11.7139 11.3541 11.6442ZM16.3298 11.1084C16.4483 11.0395 16.5626 10.964 16.672 10.8826L15.5114 9.72994C15.3959 9.79668 15.2731 9.85233 15.1445 9.89544C15.1355 9.89847 15.1264 9.90143 15.1174 9.90433C15.0996 9.90999 15.0818 9.91542 15.0639 9.9206C14.9597 9.9507 14.8521 9.97268 14.7417 9.98579V11.5922C14.7849 11.5893 14.8279 11.5858 14.8707 11.5815C14.9356 11.5749 15 11.5667 15.0639 11.5568C15.0909 11.5526 15.1177 11.5481 15.1445 11.5433C15.2775 11.5196 15.408 11.4887 15.5356 11.451C15.6776 11.4091 15.8159 11.3587 15.9501 11.3005C16.0809 11.2437 16.2076 11.1795 16.3298 11.1084ZM16.3269 8.8428C16.301 8.8981 16.2726 8.95202 16.2419 9.00443C16.2029 9.07109 16.1601 9.1353 16.1138 9.19678L17.2595 10.3347C17.2722 10.3199 17.2848 10.305 17.2973 10.29C17.3334 10.2465 17.3685 10.2022 17.4026 10.157C17.4381 10.11 17.4724 10.0621 17.5056 10.0133C17.5953 9.88153 17.6764 9.74351 17.7482 9.60005C17.8022 9.4922 17.8509 9.38128 17.8939 9.26763C17.9512 9.11635 17.9986 8.96023 18.0352 8.80005C18.0651 8.66928 18.0878 8.5358 18.1029 8.40005H16.4736C16.4452 8.53917 16.4022 8.67305 16.3463 8.80005C16.34 8.81439 16.3336 8.82864 16.3269 8.8428ZM15.3224 8.00005L15.2894 8.16133C15.2657 8.27732 15.2163 8.38483 15.1461 8.47804L15.0467 8.61013L14.9037 8.69274C14.8117 8.74592 14.7087 8.78116 14.5982 8.79428L14.4318 8.81406L14.2739 8.76842C14.1816 8.74173 14.0954 8.69863 14.0187 8.6417L13.8857 8.5429L13.8025 8.40093C13.7594 8.32727 13.7281 8.24673 13.7106 8.16133L13.6776 8.00005L13.7106 7.83877C13.7281 7.75337 13.7594 7.67282 13.8025 7.59917L13.8857 7.4572L14.0187 7.3584C14.0954 7.30147 14.1816 7.25836 14.2739 7.23168L14.4318 7.18604L14.5982 7.20581C14.7087 7.21893 14.8117 7.25418 14.9037 7.30735L15.0466 7.38996L15.1461 7.52206C15.2163 7.61527 15.2657 7.72278 15.2894 7.83877L15.3224 8.00005ZM16.3463 7.20005C16.4022 7.32705 16.4452 7.46093 16.4736 7.60005H18.1029C18.1028 7.59936 18.1027 7.59867 18.1027 7.59798C18.0876 7.46294 18.0649 7.33016 18.0352 7.20005C17.9986 7.03987 17.9512 6.88374 17.8939 6.73247C17.8509 6.61881 17.8022 6.5079 17.7482 6.40005C17.6764 6.25659 17.5953 6.11857 17.5056 5.98675C17.4724 5.93799 17.438 5.89007 17.4026 5.84304C17.3567 5.78233 17.309 5.7231 17.2595 5.66545L16.1138 6.80331C16.1601 6.86479 16.2029 6.92901 16.2419 6.99567C16.2726 7.04808 16.301 7.102 16.3269 7.15729C16.3336 7.17146 16.34 7.18571 16.3463 7.20005ZM16.3298 4.89167C16.4472 4.95998 16.5604 5.03466 16.6689 5.11524C16.67 5.11601 16.671 5.11677 16.672 5.11754L15.5114 6.27015C15.3959 6.20342 15.2731 6.14776 15.1445 6.10465C15.1355 6.10163 15.1264 6.09867 15.1174 6.09577C15.0996 6.09011 15.0818 6.08468 15.0639 6.0795C14.9597 6.04939 14.8521 6.02742 14.7417 6.01431V4.40792C14.8505 4.41504 14.9579 4.42691 15.0639 4.44334C15.0909 4.44752 15.1177 4.452 15.1445 4.45677C15.2775 4.48048 15.408 4.51139 15.5356 4.54908C15.6776 4.59104 15.8159 4.64142 15.9501 4.69962C16.0809 4.75637 16.2076 4.82057 16.3298 4.89167ZM13.9362 4.44334C13.9326 4.44389 13.9291 4.44445 13.9255 4.44501C13.7922 4.46609 13.6614 4.49437 13.5334 4.52945C13.4282 4.5583 13.3248 4.59174 13.2236 4.62955C13.0518 4.69377 12.8861 4.77058 12.7278 4.85884C12.6405 4.90754 12.5554 4.95973 12.4728 5.01521C12.4236 5.04817 12.3754 5.08229 12.328 5.11754C12.2669 5.16304 12.2073 5.21042 12.1492 5.25959L13.295 6.39745C13.3569 6.35147 13.4215 6.30894 13.4887 6.27015C13.5035 6.26161 13.5184 6.25324 13.5334 6.24506C13.572 6.22406 13.6113 6.20427 13.6514 6.18575C13.7428 6.14351 13.8379 6.10789 13.9362 6.0795V4.44334ZM11.3701 6.18287C11.4388 6.06627 11.514 5.95386 11.5952 5.84611C11.596 5.84509 11.5967 5.84407 11.5975 5.84305L12.7581 6.99567C12.7195 7.0615 12.6847 7.12972 12.6537 7.20005C12.627 7.26084 12.6032 7.3232 12.5825 7.38696C12.56 7.45641 12.5412 7.52752 12.5264 7.60005H10.8972C10.9123 7.4643 10.935 7.33082 10.9649 7.20005C10.9825 7.12295 11.0026 7.04678 11.0251 6.97165C11.0845 6.77342 11.1606 6.58235 11.2518 6.40005C11.2888 6.32618 11.3282 6.25375 11.3701 6.18287ZM10.9649 8.80005C10.9351 8.66994 10.9125 8.53716 10.8974 8.40212C10.8973 8.40143 10.8972 8.40074 10.8972 8.40005H12.5264C12.5412 8.47258 12.56 8.54368 12.5825 8.61313C12.6032 8.67689 12.627 8.73926 12.6537 8.80005C12.6847 8.87038 12.7195 8.9386 12.7581 9.00443L11.5975 10.1571C11.5155 10.0484 11.4395 9.93494 11.3701 9.81723C11.3282 9.74635 11.2888 9.67392 11.2518 9.60005C11.1606 9.41775 11.0845 9.22668 11.0251 9.02845C11.0026 8.95331 10.9825 8.87715 10.9649 8.80005Z" fill="#F5F7F8"/>
</g>
</svg>
