<svg width="20" height="20" viewBox="0 0 20 20" fill="none" xmlns="http://www.w3.org/2000/svg">
<mask id="mask0_11482_7868" style="mask-type:alpha" maskUnits="userSpaceOnUse" x="0" y="0" width="20" height="20">
<circle cx="10" cy="10" r="10" fill="#D9D9D9"/>
</mask>
<g mask="url(#mask0_11482_7868)">
<rect width="20" height="20" fill="#86C5FA"/>
<path fill-rule="evenodd" clip-rule="evenodd" d="M12.416 15.615C14.5895 14.6786 16.1111 12.517 16.1111 10.0001C16.1111 8.70384 15.7076 7.50188 15.0192 6.51297C14.8586 6.28218 14.6825 6.06299 14.4923 5.85692L13.5375 6.87178C14.2747 7.70481 14.7222 8.80017 14.7222 10.0001C14.7222 12.6081 12.608 14.7223 10 14.7223C7.39202 14.7223 5.2778 12.6081 5.2778 10.0001C5.2778 8.74182 5.76991 7.59852 6.57215 6.75212L5.61924 5.73926C5.42431 5.93964 5.24301 6.15335 5.07684 6.37889C4.33016 7.39234 3.88892 8.64467 3.88892 10.0001C3.88892 12.6238 5.54237 14.8613 7.86413 15.7275C8.13512 15.8286 8.41521 15.911 8.70284 15.9732C8.57419 16.1263 8.49654 16.3076 8.46989 16.4949C8.45668 16.5876 8.456 16.6818 8.46783 16.7747C8.49596 16.9956 8.59484 17.2092 8.76446 17.3788L10.0322 16.1111C10.1248 16.1106 10.2169 16.1081 10.3085 16.1035L11.5837 17.3788C11.7763 17.1862 11.8777 16.9369 11.8879 16.6846C11.8904 16.6213 11.8872 16.5577 11.8783 16.4949C11.8476 16.2794 11.7494 16.0718 11.5837 15.906L11.5821 15.9044C11.5836 15.904 11.5851 15.9036 11.5866 15.9032C11.8718 15.8267 12.1488 15.7301 12.416 15.615ZM9.33339 11.2188C9.36 11.2334 9.38715 11.2471 9.41478 11.26C9.47782 11.2893 9.54342 11.3141 9.61117 11.3338V12.47C9.51672 12.4552 9.42402 12.4352 9.33339 12.4102C9.2608 12.3902 9.18954 12.3669 9.11976 12.3407C9.00124 12.2961 8.887 12.2427 8.77783 12.1814C8.7176 12.1476 8.65892 12.1114 8.60191 12.0729C8.56804 12.05 8.53477 12.0263 8.50211 12.0018C8.47076 11.9783 8.43998 11.9541 8.40979 11.9292C8.39938 11.9206 8.38904 11.9119 8.37878 11.9032L9.16896 11.113C9.21166 11.1449 9.25625 11.1744 9.30254 11.2014C9.31274 11.2073 9.32302 11.2131 9.33339 11.2188ZM7.8304 12.5307C7.64979 12.3757 7.48595 12.2017 7.342 12.0118C7.30589 11.9642 7.27103 11.9155 7.23746 11.866C6.9758 11.4793 6.79317 11.0348 6.71278 10.5556C6.70131 10.4872 6.69193 10.4182 6.68469 10.3485C6.67279 10.234 6.66669 10.1177 6.66669 10.0001C6.66669 9.88239 6.67279 9.76615 6.68468 9.65163C6.69193 9.58193 6.70131 9.51286 6.71278 9.4445C6.79317 8.96532 6.9758 8.52081 7.23746 8.13415C7.27101 8.08458 7.30586 8.03596 7.34195 7.98834C7.48595 7.79838 7.64984 7.62433 7.83052 7.46929C7.8869 7.42092 7.94491 7.37439 8.00447 7.32981C8.3911 7.0404 8.84267 6.833 9.33339 6.73339C9.39154 6.72159 9.45024 6.7113 9.50945 6.70257C9.66955 6.67895 9.83336 6.66672 10 6.66672C10.0698 6.66672 10.1391 6.66887 10.2079 6.6731C10.2875 6.678 10.3665 6.6857 10.4445 6.6961C10.9661 6.7656 11.4496 6.95572 11.8659 7.23749C11.9155 7.27103 11.9641 7.30586 12.0117 7.34195C12.2017 7.48596 12.3758 7.64988 12.5308 7.83059C12.5792 7.88696 12.6257 7.94496 12.6703 8.0045C12.9814 8.42013 13.1977 8.91082 13.2873 9.4445C13.2987 9.51287 13.3081 9.58196 13.3154 9.65168C13.3273 9.76618 13.3334 9.88241 13.3334 10.0001C13.3334 10.1177 13.3273 10.2339 13.3154 10.3484C13.3081 10.4182 13.2987 10.4872 13.2873 10.5556C13.1977 11.0893 12.9814 11.58 12.6703 11.9956C12.6256 12.0552 12.5791 12.1133 12.5307 12.1697C12.3757 12.3503 12.2017 12.5141 12.0118 12.6581C11.9642 12.6942 11.9155 12.729 11.8659 12.7626C11.4496 13.0444 10.9661 13.2345 10.4445 13.304C10.3664 13.3144 10.2875 13.3221 10.2079 13.327C10.1391 13.3312 10.0698 13.3334 10 13.3334C9.83336 13.3334 9.66954 13.3212 9.50944 13.2975C9.45023 13.2888 9.39154 13.2785 9.33339 13.2667C8.84267 13.1671 8.3911 12.9597 8.00447 12.6703C7.94487 12.6257 7.88682 12.5791 7.8304 12.5307ZM11.262 12.1587C11.3437 12.1108 11.4225 12.0584 11.4979 12.0018L10.6975 11.2014C10.6179 11.2477 10.5332 11.2864 10.4445 11.3163C10.4383 11.3184 10.432 11.3205 10.4258 11.3225C10.4136 11.3264 10.4013 11.3302 10.3889 11.3338C10.3171 11.3547 10.2428 11.3699 10.1667 11.379V12.4946C10.1965 12.4926 10.2261 12.4901 10.2556 12.4871C10.3004 12.4826 10.3448 12.4769 10.3889 12.47C10.4075 12.4671 10.426 12.464 10.4445 12.4607C10.5362 12.4442 10.6262 12.4227 10.7142 12.3966C10.8121 12.3674 10.9076 12.3324 11.0001 12.292C11.0903 12.2526 11.1777 12.208 11.262 12.1587ZM11.26 10.5853C11.2421 10.6237 11.2225 10.6611 11.2013 10.6975C11.1744 10.7438 11.1449 10.7884 11.1129 10.8311L11.9031 11.6213C11.9119 11.611 11.9206 11.6007 11.9291 11.5903C11.9541 11.5601 11.9783 11.5293 12.0018 11.498C12.0262 11.4653 12.0499 11.432 12.0728 11.3982C12.1347 11.3066 12.1907 11.2108 12.2402 11.1112C12.2774 11.0363 12.311 10.9592 12.3407 10.8803C12.3802 10.7753 12.4128 10.6668 12.4381 10.5556C12.4587 10.4648 12.4743 10.3721 12.4848 10.2778H11.3611C11.3415 10.3744 11.3119 10.4674 11.2733 10.5556C11.269 10.5656 11.2645 10.5755 11.26 10.5853ZM10.5672 10.0001L10.5445 10.1121C10.5281 10.1926 10.494 10.2673 10.4456 10.332L10.377 10.4237L10.2784 10.4811C10.2149 10.518 10.1439 10.5425 10.0678 10.5516L9.95295 10.5653L9.84406 10.5336C9.7804 10.5151 9.72095 10.4852 9.66809 10.4456L9.57636 10.377L9.51899 10.2784C9.48923 10.2273 9.46764 10.1714 9.4556 10.1121L9.43286 10.0001L9.4556 9.88805C9.46764 9.82875 9.48923 9.77282 9.51899 9.72167L9.57636 9.62307L9.66809 9.55446C9.72095 9.51493 9.7804 9.485 9.84406 9.46647L9.95295 9.43477L10.0677 9.4485C10.1439 9.45761 10.2149 9.48209 10.2784 9.51902L10.377 9.57638L10.4456 9.66812C10.494 9.73285 10.5281 9.80751 10.5445 9.88805L10.5672 10.0001ZM11.2733 9.4445C11.3119 9.53269 11.3415 9.62566 11.3611 9.72228H12.4848C12.4847 9.7218 12.4847 9.72132 12.4846 9.72084C12.4742 9.62706 12.4586 9.53485 12.4381 9.4445C12.4128 9.33326 12.3802 9.22484 12.3407 9.11979C12.311 9.04086 12.2774 8.96384 12.2402 8.88894C12.1907 8.78932 12.1347 8.69347 12.0728 8.60193C12.0499 8.56807 12.0262 8.53479 12.0018 8.50213C11.9702 8.45997 11.9373 8.41884 11.9031 8.3788L11.1129 9.16899C11.1449 9.21168 11.1744 9.25628 11.2013 9.30257C11.2225 9.33896 11.2421 9.37641 11.26 9.41481C11.2645 9.42464 11.269 9.43454 11.2733 9.4445ZM11.262 7.84146C11.3429 7.8889 11.421 7.94076 11.4958 7.99672C11.4965 7.99725 11.4972 7.99778 11.4979 7.99831L10.6975 8.79874C10.6179 8.7524 10.5332 8.71375 10.4445 8.68381C10.4383 8.68171 10.432 8.67965 10.4258 8.67764C10.4136 8.67371 10.4013 8.66994 10.3889 8.66634C10.3171 8.64543 10.2428 8.63017 10.1667 8.62107V7.50552C10.2417 7.51046 10.3158 7.51871 10.3889 7.53012C10.4075 7.53302 10.426 7.53613 10.4445 7.53945C10.5362 7.55591 10.6262 7.57737 10.7142 7.60355C10.8121 7.63269 10.9076 7.66767 11.0001 7.70809C11.0903 7.7475 11.1777 7.79208 11.262 7.84146ZM9.61117 7.53012C9.60871 7.5305 9.60625 7.53089 9.6038 7.53128C9.5119 7.54591 9.42166 7.56556 9.33339 7.58992C9.2608 7.60995 9.18954 7.63318 9.11976 7.65943C9.00124 7.70403 8.887 7.75737 8.77783 7.81866C8.7176 7.85248 8.65892 7.88872 8.60191 7.92725C8.56804 7.95014 8.53477 7.97383 8.50211 7.99831C8.45995 8.02991 8.41882 8.06281 8.37878 8.09696L9.16896 8.88714C9.21166 8.85521 9.25625 8.82567 9.30254 8.79874C9.31274 8.7928 9.32302 8.78699 9.33339 8.78131C9.36 8.76673 9.38714 8.75298 9.41478 8.74012C9.47782 8.71079 9.54342 8.68605 9.61117 8.66634V7.53012ZM7.84143 8.73812C7.88887 8.65715 7.94073 8.57909 7.99669 8.50426C7.99722 8.50355 7.99775 8.50285 7.99828 8.50214L8.79871 9.30257C8.77211 9.34828 8.74804 9.39566 8.72671 9.4445C8.70826 9.48671 8.69185 9.53002 8.67761 9.5743C8.6621 9.62253 8.64915 9.67191 8.63892 9.72228H7.51529C7.52571 9.62801 7.54137 9.53531 7.56198 9.4445C7.57413 9.39095 7.58799 9.33806 7.60352 9.28589C7.64448 9.14823 7.69698 9.01554 7.75989 8.88894C7.78539 8.83764 7.81259 8.78735 7.84143 8.73812ZM7.56198 10.5556C7.54147 10.4653 7.52587 10.373 7.51544 10.2793C7.51539 10.2788 7.51534 10.2783 7.51529 10.2778H8.63892C8.64915 10.3282 8.6621 10.3776 8.67761 10.4258C8.69185 10.4701 8.70826 10.5134 8.72671 10.5556C8.74804 10.6044 8.77211 10.6518 8.79871 10.6975L7.99828 11.498C7.94172 11.4225 7.88932 11.3437 7.84143 11.262C7.81259 11.2128 7.78539 11.1625 7.75989 11.1112C7.69698 10.9846 7.64448 10.8519 7.60352 10.7142C7.58799 10.662 7.57413 10.6092 7.56198 10.5556Z" fill="#F5F7F8"/>
</g>
</svg>
