<svg width="29" height="20" viewBox="0 0 29 20" fill="none" xmlns="http://www.w3.org/2000/svg">
<mask id="mask0_11482_7887" style="mask-type:alpha" maskUnits="userSpaceOnUse" x="0" y="0" width="29" height="20">
<rect width="29" height="20" fill="#D9D9D9"/>
</mask>
<g mask="url(#mask0_11482_7887)">
<rect y="23.6001" width="25.2" height="29" transform="rotate(-90 0 23.6001)" fill="#F5F7F8"/>
<rect x="14.5" y="5.6001" width="3.6" height="14.5" transform="rotate(-90 14.5 5.6001)" fill="#DD2033"/>
<rect x="14.5" y="12.7998" width="3.6" height="14.5" transform="rotate(-90 14.5 12.7998)" fill="#DD2033"/>
<rect y="20" width="3.6" height="29" transform="rotate(-90 0 20)" fill="#DD2033"/>
<rect y="12.7998" width="12.8" height="14.5" transform="rotate(-90 0 12.7998)" fill="#004692"/>
<path d="M11.4389 7.2001L10.7185 8.81822L9.0222 9.03352L10.2734 10.2489L9.94526 12.0001L11.4389 11.0001L12.9325 12.0001L12.6044 10.2489L13.8555 9.03352L12.1592 8.81822L11.4389 7.2001Z" fill="#F5F7F8"/>
<path d="M11.4389 -2.3999L10.7185 -0.781778L9.0222 -0.566478L10.2734 0.648935L9.94526 2.4001L11.4389 1.4001L12.9325 2.4001L12.6044 0.648935L13.8555 -0.566478L12.1592 -0.781778L11.4389 -2.3999Z" fill="#F5F7F8"/>
<path d="M8.21666 2.4001L7.49631 4.01822L5.79998 4.23352L7.05115 5.44893L6.72304 7.2001L8.21665 6.2001L9.71026 7.2001L9.38214 5.44893L10.6333 4.23352L8.93698 4.01822L8.21666 2.4001Z" fill="#F5F7F8"/>
<path d="M4.59166 7.2001L3.87131 8.81822L2.17498 9.03352L3.42615 10.2489L3.09804 12.0001L4.59165 11.0001L6.08526 12.0001L5.75714 10.2489L7.00831 9.03352L5.31198 8.81822L4.59166 7.2001Z" fill="#F5F7F8"/>
<path d="M4.59166 -2.3999L3.87131 -0.781778L2.17498 -0.566478L3.42615 0.648935L3.09804 2.4001L4.59165 1.4001L6.08526 2.4001L5.75714 0.648935L7.00831 -0.566478L5.31198 -0.781778L4.59166 -2.3999Z" fill="#F5F7F8"/>
<path d="M1.36944 2.4001L0.649091 4.01822L-1.04724 4.23352L0.203931 5.44893L-0.124183 7.2001L1.36943 6.2001L2.86303 7.2001L2.53492 5.44893L3.78609 4.23352L2.08976 4.01822L1.36944 2.4001Z" fill="#F5F7F8"/>
</g>
</svg>
