<svg width="20" height="20" viewBox="0 0 20 20" fill="none" xmlns="http://www.w3.org/2000/svg">
<mask id="mask0_11482_7877" style="mask-type:alpha" maskUnits="userSpaceOnUse" x="0" y="0" width="20" height="20">
<circle cx="10" cy="10" r="10" fill="#D9D9D9"/>
</mask>
<g mask="url(#mask0_11482_7877)">
<rect y="20" width="20" height="20" transform="rotate(-90 0 20)" fill="#F5F7F8"/>
<rect x="10" y="2.5" width="2.5" height="10" transform="rotate(-90 10 2.5)" fill="#DD2033"/>
<rect x="10" y="7.5" width="2.5" height="10" transform="rotate(-90 10 7.5)" fill="#DD2033"/>
<rect y="12.5" width="2.5" height="20" transform="rotate(-90 0 12.5)" fill="#DD2033"/>
<rect y="17.5" width="2.5" height="20" transform="rotate(-90 0 17.5)" fill="#DD2033"/>
<rect y="10" width="10" height="10" transform="rotate(-90 0 10)" fill="#004692"/>
<path d="M-3.86802 0.353516L-4.03573 0.73024L-4.43066 0.780365L-4.13937 1.06333L-4.21576 1.47103L-3.86803 1.23821L-3.52029 1.47103L-3.59668 1.06333L-3.30539 0.780365L-3.70032 0.73024L-3.86802 0.353516Z" fill="#F5F7F8"/>
<path d="M-1.52108 0.353516L-1.68879 0.73024L-2.08372 0.780365L-1.79243 1.06333L-1.86882 1.47103L-1.52109 1.23821L-1.17335 1.47103L-1.24974 1.06333L-0.958449 0.780365L-1.35338 0.73024L-1.52108 0.353516Z" fill="#F5F7F8"/>
<path d="M0.986609 0.353516L0.818902 0.73024L0.423969 0.780365L0.715261 1.06333L0.638872 1.47103L0.986607 1.23821L1.33434 1.47103L1.25795 1.06333L1.54924 0.780365L1.15431 0.73024L0.986609 0.353516Z" fill="#F5F7F8"/>
<path d="M3.33355 0.353516L3.16584 0.73024L2.77091 0.780365L3.0622 1.06333L2.98581 1.47103L3.33355 1.23821L3.68128 1.47103L3.60489 1.06333L3.89618 0.780365L3.50125 0.73024L3.33355 0.353516Z" fill="#F5F7F8"/>
<path d="M5.80922 0.353516L5.64151 0.73024L5.24658 0.780365L5.53787 1.06333L5.46148 1.47103L5.80921 1.23821L6.15695 1.47103L6.08056 1.06333L6.37185 0.780365L5.97692 0.73024L5.80922 0.353516Z" fill="#F5F7F8"/>
<path d="M8.15616 0.353516L7.98845 0.73024L7.59352 0.780365L7.88481 1.06333L7.80842 1.47103L8.15615 1.23821L8.50389 1.47103L8.4275 1.06333L8.71879 0.780365L8.32386 0.73024L8.15616 0.353516Z" fill="#F5F7F8"/>
<path d="M-2.71072 1.31804L-2.87843 1.69476L-3.27336 1.74489L-2.98207 2.02785L-3.05846 2.43555L-2.71073 2.20274L-2.36299 2.43555L-2.43938 2.02785L-2.14809 1.74489L-2.54302 1.69476L-2.71072 1.31804Z" fill="#F5F7F8"/>
<path d="M-0.363783 1.31804L-0.531491 1.69476L-0.926424 1.74489L-0.635132 2.02785L-0.711521 2.43555L-0.363787 2.20274L-0.0160518 2.43555L-0.0924411 2.02785L0.198851 1.74489L-0.196082 1.69476L-0.363783 1.31804Z" fill="#F5F7F8"/>
<path d="M2.14391 1.31804L1.9762 1.69476L1.58127 1.74489L1.87256 2.02785L1.79617 2.43555L2.14391 2.20274L2.49164 2.43555L2.41525 2.02785L2.70654 1.74489L2.31161 1.69476L2.14391 1.31804Z" fill="#F5F7F8"/>
<path d="M4.49085 1.31804L4.32314 1.69476L3.92821 1.74489L4.2195 2.02785L4.14311 2.43555L4.49085 2.20274L4.83858 2.43555L4.76219 2.02785L5.05348 1.74489L4.65855 1.69476L4.49085 1.31804Z" fill="#F5F7F8"/>
<path d="M6.96652 1.31804L6.79881 1.69476L6.40388 1.74489L6.69517 2.02785L6.61878 2.43555L6.96651 2.20274L7.31425 2.43555L7.23786 2.02785L7.52915 1.74489L7.13422 1.69476L6.96652 1.31804Z" fill="#F5F7F8"/>
<path d="M-2.71072 3.40783L-2.87843 3.78456L-3.27336 3.83468L-2.98207 4.11765L-3.05846 4.52535L-2.71073 4.29253L-2.36299 4.52535L-2.43938 4.11765L-2.14809 3.83468L-2.54302 3.78456L-2.71072 3.40783Z" fill="#F5F7F8"/>
<path d="M-0.363783 3.40783L-0.531491 3.78456L-0.926424 3.83468L-0.635132 4.11765L-0.711521 4.52535L-0.363787 4.29253L-0.0160518 4.52535L-0.0924411 4.11765L0.198851 3.83468L-0.196082 3.78456L-0.363783 3.40783Z" fill="#F5F7F8"/>
<path d="M2.14391 3.40783L1.9762 3.78456L1.58127 3.83468L1.87256 4.11765L1.79617 4.52535L2.14391 4.29253L2.49164 4.52535L2.41525 4.11765L2.70654 3.83468L2.31161 3.78456L2.14391 3.40783Z" fill="#F5F7F8"/>
<path d="M4.49085 3.40783L4.32314 3.78456L3.92821 3.83468L4.2195 4.11765L4.14311 4.52535L4.49085 4.29253L4.83858 4.52535L4.76219 4.11765L5.05348 3.83468L4.65855 3.78456L4.49085 3.40783Z" fill="#F5F7F8"/>
<path d="M6.96652 3.40783L6.79881 3.78456L6.40388 3.83468L6.69517 4.11765L6.61878 4.52535L6.96651 4.29253L7.31425 4.52535L7.23786 4.11765L7.52915 3.83468L7.13422 3.78456L6.96652 3.40783Z" fill="#F5F7F8"/>
<path d="M-2.71072 5.4012L-2.87843 5.77793L-3.27336 5.82805L-2.98207 6.11102L-3.05846 6.51872L-2.71073 6.2859L-2.36299 6.51872L-2.43938 6.11102L-2.14809 5.82805L-2.54302 5.77793L-2.71072 5.4012Z" fill="#F5F7F8"/>
<path d="M-0.363783 5.4012L-0.531491 5.77793L-0.926424 5.82805L-0.635132 6.11102L-0.711521 6.51872L-0.363787 6.2859L-0.0160518 6.51872L-0.0924411 6.11102L0.198851 5.82805L-0.196082 5.77793L-0.363783 5.4012Z" fill="#F5F7F8"/>
<path d="M2.14391 5.4012L1.9762 5.77793L1.58127 5.82805L1.87256 6.11102L1.79617 6.51872L2.14391 6.2859L2.49164 6.51872L2.41525 6.11102L2.70654 5.82805L2.31161 5.77793L2.14391 5.4012Z" fill="#F5F7F8"/>
<path d="M4.49085 5.4012L4.32314 5.77793L3.92821 5.82805L4.2195 6.11102L4.14311 6.51872L4.49085 6.2859L4.83858 6.51872L4.76219 6.11102L5.05348 5.82805L4.65855 5.77793L4.49085 5.4012Z" fill="#F5F7F8"/>
<path d="M6.96652 5.4012L6.79881 5.77793L6.40388 5.82805L6.69517 6.11102L6.61878 6.51872L6.96651 6.2859L7.31425 6.51872L7.23786 6.11102L7.52915 5.82805L7.13422 5.77793L6.96652 5.4012Z" fill="#F5F7F8"/>
<path d="M-2.71072 7.42667L-2.87843 7.8034L-3.27336 7.85352L-2.98207 8.13649L-3.05846 8.54419L-2.71073 8.31137L-2.36299 8.54419L-2.43938 8.13649L-2.14809 7.85352L-2.54302 7.8034L-2.71072 7.42667Z" fill="#F5F7F8"/>
<path d="M-0.363783 7.42667L-0.531491 7.8034L-0.926424 7.85352L-0.635132 8.13649L-0.711521 8.54419L-0.363787 8.31137L-0.0160518 8.54419L-0.0924411 8.13649L0.198851 7.85352L-0.196082 7.8034L-0.363783 7.42667Z" fill="#F5F7F8"/>
<path d="M2.14391 7.42667L1.9762 7.8034L1.58127 7.85352L1.87256 8.13649L1.79617 8.54419L2.14391 8.31137L2.49164 8.54419L2.41525 8.13649L2.70654 7.85352L2.31161 7.8034L2.14391 7.42667Z" fill="#F5F7F8"/>
<path d="M4.49085 7.42667L4.32314 7.8034L3.92821 7.85352L4.2195 8.13649L4.14311 8.54419L4.49085 8.31137L4.83858 8.54419L4.76219 8.13649L5.05348 7.85352L4.65855 7.8034L4.49085 7.42667Z" fill="#F5F7F8"/>
<path d="M6.96652 7.42667L6.79881 7.8034L6.40388 7.85352L6.69517 8.13649L6.61878 8.54419L6.96651 8.31137L7.31425 8.54419L7.23786 8.13649L7.52915 7.85352L7.13422 7.8034L6.96652 7.42667Z" fill="#F5F7F8"/>
<path d="M-3.86802 2.37903L-4.03573 2.75575L-4.43066 2.80588L-4.13937 3.08884L-4.21576 3.49654L-3.86803 3.26373L-3.52029 3.49654L-3.59668 3.08884L-3.30539 2.80588L-3.70032 2.75575L-3.86802 2.37903Z" fill="#F5F7F8"/>
<path d="M-1.52108 2.37903L-1.68879 2.75575L-2.08372 2.80588L-1.79243 3.08884L-1.86882 3.49654L-1.52109 3.26373L-1.17335 3.49654L-1.24974 3.08884L-0.958449 2.80588L-1.35338 2.75575L-1.52108 2.37903Z" fill="#F5F7F8"/>
<path d="M0.986609 2.37903L0.818902 2.75575L0.423969 2.80588L0.715261 3.08884L0.638872 3.49654L0.986607 3.26373L1.33434 3.49654L1.25795 3.08884L1.54924 2.80588L1.15431 2.75575L0.986609 2.37903Z" fill="#F5F7F8"/>
<path d="M3.33355 2.37903L3.16584 2.75575L2.77091 2.80588L3.0622 3.08884L2.98581 3.49654L3.33355 3.26373L3.68128 3.49654L3.60489 3.08884L3.89618 2.80588L3.50125 2.75575L3.33355 2.37903Z" fill="#F5F7F8"/>
<path d="M5.80922 2.37903L5.64151 2.75575L5.24658 2.80588L5.53787 3.08884L5.46148 3.49654L5.80921 3.26373L6.15695 3.49654L6.08056 3.08884L6.37185 2.80588L5.97692 2.75575L5.80922 2.37903Z" fill="#F5F7F8"/>
<path d="M8.15616 2.37903L7.98845 2.75575L7.59352 2.80588L7.88481 3.08884L7.80842 3.49654L8.15615 3.26373L8.50389 3.49654L8.4275 3.08884L8.71879 2.80588L8.32386 2.75575L8.15616 2.37903Z" fill="#F5F7F8"/>
<path d="M-3.86802 4.46882L-4.03573 4.84555L-4.43066 4.89567L-4.13937 5.17864L-4.21576 5.58634L-3.86803 5.35352L-3.52029 5.58634L-3.59668 5.17864L-3.30539 4.89567L-3.70032 4.84555L-3.86802 4.46882Z" fill="#F5F7F8"/>
<path d="M-1.52108 4.46882L-1.68879 4.84555L-2.08372 4.89567L-1.79243 5.17864L-1.86882 5.58634L-1.52109 5.35352L-1.17335 5.58634L-1.24974 5.17864L-0.958449 4.89567L-1.35338 4.84555L-1.52108 4.46882Z" fill="#F5F7F8"/>
<path d="M0.986609 4.46882L0.818902 4.84555L0.423969 4.89567L0.715261 5.17864L0.638872 5.58634L0.986607 5.35352L1.33434 5.58634L1.25795 5.17864L1.54924 4.89567L1.15431 4.84555L0.986609 4.46882Z" fill="#F5F7F8"/>
<path d="M3.33355 4.46882L3.16584 4.84555L2.77091 4.89567L3.0622 5.17864L2.98581 5.58634L3.33355 5.35352L3.68128 5.58634L3.60489 5.17864L3.89618 4.89567L3.50125 4.84555L3.33355 4.46882Z" fill="#F5F7F8"/>
<path d="M5.80922 4.46882L5.64151 4.84555L5.24658 4.89567L5.53787 5.17864L5.46148 5.58634L5.80921 5.35352L6.15695 5.58634L6.08056 5.17864L6.37185 4.89567L5.97692 4.84555L5.80922 4.46882Z" fill="#F5F7F8"/>
<path d="M8.15616 4.46882L7.98845 4.84555L7.59352 4.89567L7.88481 5.17864L7.80842 5.58634L8.15615 5.35352L8.50389 5.58634L8.4275 5.17864L8.71879 4.89567L8.32386 4.84555L8.15616 4.46882Z" fill="#F5F7F8"/>
<path d="M-3.86802 6.39787L-4.03573 6.77459L-4.43066 6.82472L-4.13937 7.10768L-4.21576 7.51538L-3.86803 7.28257L-3.52029 7.51538L-3.59668 7.10768L-3.30539 6.82472L-3.70032 6.77459L-3.86802 6.39787Z" fill="#F5F7F8"/>
<path d="M-1.52108 6.39787L-1.68879 6.77459L-2.08372 6.82472L-1.79243 7.10768L-1.86882 7.51538L-1.52109 7.28257L-1.17335 7.51538L-1.24974 7.10768L-0.958449 6.82472L-1.35338 6.77459L-1.52108 6.39787Z" fill="#F5F7F8"/>
<path d="M0.986609 6.39787L0.818902 6.77459L0.423969 6.82472L0.715261 7.10768L0.638872 7.51538L0.986607 7.28257L1.33434 7.51538L1.25795 7.10768L1.54924 6.82472L1.15431 6.77459L0.986609 6.39787Z" fill="#F5F7F8"/>
<path d="M3.33355 6.39787L3.16584 6.77459L2.77091 6.82472L3.0622 7.10768L2.98581 7.51538L3.33355 7.28257L3.68128 7.51538L3.60489 7.10768L3.89618 6.82472L3.50125 6.77459L3.33355 6.39787Z" fill="#F5F7F8"/>
<path d="M5.80922 6.39787L5.64151 6.77459L5.24658 6.82472L5.53787 7.10768L5.46148 7.51538L5.80921 7.28257L6.15695 7.51538L6.08056 7.10768L6.37185 6.82472L5.97692 6.77459L5.80922 6.39787Z" fill="#F5F7F8"/>
<path d="M8.15616 6.39787L7.98845 6.77459L7.59352 6.82472L7.88481 7.10768L7.80842 7.51538L8.15615 7.28257L8.50389 7.51538L8.4275 7.10768L8.71879 6.82472L8.32386 6.77459L8.15616 6.39787Z" fill="#F5F7F8"/>
<path d="M-3.86802 8.32691L-4.03573 8.70363L-4.43066 8.75376L-4.13937 9.03673L-4.21576 9.44442L-3.86803 9.21161L-3.52029 9.44442L-3.59668 9.03673L-3.30539 8.75376L-3.70032 8.70363L-3.86802 8.32691Z" fill="#F5F7F8"/>
<path d="M-1.52108 8.32691L-1.68879 8.70363L-2.08372 8.75376L-1.79243 9.03673L-1.86882 9.44442L-1.52109 9.21161L-1.17335 9.44442L-1.24974 9.03673L-0.958449 8.75376L-1.35338 8.70363L-1.52108 8.32691Z" fill="#F5F7F8"/>
<path d="M0.986609 8.32691L0.818902 8.70363L0.423969 8.75376L0.715261 9.03673L0.638872 9.44442L0.986607 9.21161L1.33434 9.44442L1.25795 9.03673L1.54924 8.75376L1.15431 8.70363L0.986609 8.32691Z" fill="#F5F7F8"/>
<path d="M3.33355 8.32691L3.16584 8.70363L2.77091 8.75376L3.0622 9.03673L2.98581 9.44442L3.33355 9.21161L3.68128 9.44442L3.60489 9.03673L3.89618 8.75376L3.50125 8.70363L3.33355 8.32691Z" fill="#F5F7F8"/>
<path d="M5.80922 8.32691L5.64151 8.70363L5.24658 8.75376L5.53787 9.03673L5.46148 9.44442L5.80921 9.21161L6.15695 9.44442L6.08056 9.03673L6.37185 8.75376L5.97692 8.70363L5.80922 8.32691Z" fill="#F5F7F8"/>
<path d="M8.15616 8.32691L7.98845 8.70363L7.59352 8.75376L7.88481 9.03673L7.80842 9.44442L8.15615 9.21161L8.50389 9.44442L8.4275 9.03673L8.71879 8.75376L8.32386 8.70363L8.15616 8.32691Z" fill="#F5F7F8"/>
<rect x="-4.5459" y="23.6001" width="25.2" height="29" transform="rotate(-90 -4.5459 23.6001)" fill="#F5F7F8"/>
<rect x="10" y="1.53809" width="1.53818" height="14.5455" transform="rotate(-90 10 1.53809)" fill="#DD2033"/>
<rect x="10" y="4.60938" width="1.53636" height="14.5455" transform="rotate(-90 10 4.60938)" fill="#DD2033"/>
<rect x="10" y="7.68164" width="1.53636" height="14.5455" transform="rotate(-90 10 7.68164)" fill="#DD2033"/>
<rect x="10" y="10.7583" width="1.53636" height="14.5455" transform="rotate(-90 10 10.7583)" fill="#DD2033"/>
<rect x="-4.5459" y="20" width="1.53818" height="29.0909" transform="rotate(-90 -4.5459 20)" fill="#DD2033"/>
<rect x="-4.5459" y="16.9292" width="1.53818" height="29.0909" transform="rotate(-90 -4.5459 16.9292)" fill="#DD2033"/>
<rect x="-4.5459" y="13.8564" width="1.53818" height="29.0909" transform="rotate(-90 -4.5459 13.8564)" fill="#DD2033"/>
<rect x="-4.5459" y="10.7593" width="10.7591" height="14.5455" transform="rotate(-90 -4.5459 10.7593)" fill="#004692"/>
<path d="M-3.30064 0.772705L-3.46835 1.14943L-3.86328 1.19955L-3.57199 1.48252L-3.64838 1.89022L-3.30064 1.6574L-2.95291 1.89022L-3.0293 1.48252L-2.73801 1.19955L-3.13294 1.14943L-3.30064 0.772705Z" fill="#F5F7F8"/>
<path d="M-0.953701 0.772705L-1.12141 1.14943L-1.51634 1.19955L-1.22505 1.48252L-1.30144 1.89022L-0.953704 1.6574L-0.605969 1.89022L-0.682359 1.48252L-0.391067 1.19955L-0.785999 1.14943L-0.953701 0.772705Z" fill="#F5F7F8"/>
<path d="M1.55399 0.772705L1.38628 1.14943L0.991352 1.19955L1.28264 1.48252L1.20625 1.89022L1.55399 1.6574L1.90172 1.89022L1.82533 1.48252L2.11663 1.19955L1.72169 1.14943L1.55399 0.772705Z" fill="#F5F7F8"/>
<path d="M3.90093 0.772705L3.73322 1.14943L3.33829 1.19955L3.62958 1.48252L3.55319 1.89022L3.90093 1.6574L4.24866 1.89022L4.17227 1.48252L4.46357 1.19955L4.06863 1.14943L3.90093 0.772705Z" fill="#F5F7F8"/>
<path d="M6.3766 0.772705L6.20889 1.14943L5.81396 1.19955L6.10525 1.48252L6.02886 1.89022L6.3766 1.6574L6.72433 1.89022L6.64794 1.48252L6.93923 1.19955L6.5443 1.14943L6.3766 0.772705Z" fill="#F5F7F8"/>
<path d="M8.72354 0.772705L8.55583 1.14943L8.1609 1.19955L8.45219 1.48252L8.3758 1.89022L8.72354 1.6574L9.07127 1.89022L8.99488 1.48252L9.28617 1.19955L8.89124 1.14943L8.72354 0.772705Z" fill="#F5F7F8"/>
<path d="M-2.14334 1.73723L-2.31105 2.11395L-2.70598 2.16408L-2.41469 2.44704L-2.49108 2.85474L-2.14334 2.62193L-1.79561 2.85474L-1.872 2.44704L-1.58071 2.16408L-1.97564 2.11395L-2.14334 1.73723Z" fill="#F5F7F8"/>
<path d="M0.203599 1.73723L0.0358915 2.11395L-0.359041 2.16408L-0.067749 2.44704L-0.144139 2.85474L0.203596 2.62193L0.551331 2.85474L0.474942 2.44704L0.766234 2.16408L0.371301 2.11395L0.203599 1.73723Z" fill="#F5F7F8"/>
<path d="M2.71129 1.73723L2.54358 2.11395L2.14865 2.16408L2.43994 2.44704L2.36355 2.85474L2.71129 2.62193L3.05902 2.85474L2.98264 2.44704L3.27393 2.16408L2.87899 2.11395L2.71129 1.73723Z" fill="#F5F7F8"/>
<path d="M5.05823 1.73723L4.89052 2.11395L4.49559 2.16408L4.78688 2.44704L4.71049 2.85474L5.05823 2.62193L5.40596 2.85474L5.32957 2.44704L5.62087 2.16408L5.22593 2.11395L5.05823 1.73723Z" fill="#F5F7F8"/>
<path d="M7.5339 1.73723L7.36619 2.11395L6.97126 2.16408L7.26255 2.44704L7.18616 2.85474L7.5339 2.62193L7.88163 2.85474L7.80524 2.44704L8.09653 2.16408L7.7016 2.11395L7.5339 1.73723Z" fill="#F5F7F8"/>
<path d="M-2.14334 3.82702L-2.31105 4.20375L-2.70598 4.25387L-2.41469 4.53684L-2.49108 4.94454L-2.14334 4.71172L-1.79561 4.94454L-1.872 4.53684L-1.58071 4.25387L-1.97564 4.20375L-2.14334 3.82702Z" fill="#F5F7F8"/>
<path d="M0.203599 3.82702L0.0358915 4.20375L-0.359041 4.25387L-0.067749 4.53684L-0.144139 4.94454L0.203596 4.71172L0.551331 4.94454L0.474942 4.53684L0.766234 4.25387L0.371301 4.20375L0.203599 3.82702Z" fill="#F5F7F8"/>
<path d="M2.71129 3.82702L2.54358 4.20375L2.14865 4.25387L2.43994 4.53684L2.36355 4.94454L2.71129 4.71172L3.05902 4.94454L2.98264 4.53684L3.27393 4.25387L2.87899 4.20375L2.71129 3.82702Z" fill="#F5F7F8"/>
<path d="M5.05823 3.82702L4.89052 4.20375L4.49559 4.25387L4.78688 4.53684L4.71049 4.94454L5.05823 4.71172L5.40596 4.94454L5.32957 4.53684L5.62087 4.25387L5.22593 4.20375L5.05823 3.82702Z" fill="#F5F7F8"/>
<path d="M7.5339 3.82702L7.36619 4.20375L6.97126 4.25387L7.26255 4.53684L7.18616 4.94454L7.5339 4.71172L7.88163 4.94454L7.80524 4.53684L8.09653 4.25387L7.7016 4.20375L7.5339 3.82702Z" fill="#F5F7F8"/>
<path d="M-2.14334 5.82039L-2.31105 6.19712L-2.70598 6.24724L-2.41469 6.53021L-2.49108 6.93791L-2.14334 6.70509L-1.79561 6.93791L-1.872 6.53021L-1.58071 6.24724L-1.97564 6.19712L-2.14334 5.82039Z" fill="#F5F7F8"/>
<path d="M0.203599 5.82039L0.0358915 6.19712L-0.359041 6.24724L-0.067749 6.53021L-0.144139 6.93791L0.203596 6.70509L0.551331 6.93791L0.474942 6.53021L0.766234 6.24724L0.371301 6.19712L0.203599 5.82039Z" fill="#F5F7F8"/>
<path d="M2.71129 5.82039L2.54358 6.19712L2.14865 6.24724L2.43994 6.53021L2.36355 6.93791L2.71129 6.70509L3.05902 6.93791L2.98264 6.53021L3.27393 6.24724L2.87899 6.19712L2.71129 5.82039Z" fill="#F5F7F8"/>
<path d="M5.05823 5.82039L4.89052 6.19712L4.49559 6.24724L4.78688 6.53021L4.71049 6.93791L5.05823 6.70509L5.40596 6.93791L5.32957 6.53021L5.62087 6.24724L5.22593 6.19712L5.05823 5.82039Z" fill="#F5F7F8"/>
<path d="M7.5339 5.82039L7.36619 6.19712L6.97126 6.24724L7.26255 6.53021L7.18616 6.93791L7.5339 6.70509L7.88163 6.93791L7.80524 6.53021L8.09653 6.24724L7.7016 6.19712L7.5339 5.82039Z" fill="#F5F7F8"/>
<path d="M-2.14334 7.84586L-2.31105 8.22259L-2.70598 8.27271L-2.41469 8.55568L-2.49108 8.96338L-2.14334 8.73056L-1.79561 8.96338L-1.872 8.55568L-1.58071 8.27271L-1.97564 8.22259L-2.14334 7.84586Z" fill="#F5F7F8"/>
<path d="M0.203599 7.84586L0.0358915 8.22259L-0.359041 8.27271L-0.067749 8.55568L-0.144139 8.96338L0.203596 8.73056L0.551331 8.96338L0.474942 8.55568L0.766234 8.27271L0.371301 8.22259L0.203599 7.84586Z" fill="#F5F7F8"/>
<path d="M2.71129 7.84586L2.54358 8.22259L2.14865 8.27271L2.43994 8.55568L2.36355 8.96338L2.71129 8.73056L3.05902 8.96338L2.98264 8.55568L3.27393 8.27271L2.87899 8.22259L2.71129 7.84586Z" fill="#F5F7F8"/>
<path d="M5.05823 7.84586L4.89052 8.22259L4.49559 8.27271L4.78688 8.55568L4.71049 8.96338L5.05823 8.73056L5.40596 8.96338L5.32957 8.55568L5.62087 8.27271L5.22593 8.22259L5.05823 7.84586Z" fill="#F5F7F8"/>
<path d="M7.5339 7.84586L7.36619 8.22259L6.97126 8.27271L7.26255 8.55568L7.18616 8.96338L7.5339 8.73056L7.88163 8.96338L7.80524 8.55568L8.09653 8.27271L7.7016 8.22259L7.5339 7.84586Z" fill="#F5F7F8"/>
<path d="M-3.30064 2.79822L-3.46835 3.17494L-3.86328 3.22507L-3.57199 3.50803L-3.64838 3.91573L-3.30064 3.68292L-2.95291 3.91573L-3.0293 3.50803L-2.73801 3.22507L-3.13294 3.17494L-3.30064 2.79822Z" fill="#F5F7F8"/>
<path d="M-0.953701 2.79822L-1.12141 3.17494L-1.51634 3.22507L-1.22505 3.50803L-1.30144 3.91573L-0.953704 3.68292L-0.605969 3.91573L-0.682359 3.50803L-0.391067 3.22507L-0.785999 3.17494L-0.953701 2.79822Z" fill="#F5F7F8"/>
<path d="M1.55399 2.79822L1.38628 3.17494L0.991352 3.22507L1.28264 3.50803L1.20625 3.91573L1.55399 3.68292L1.90172 3.91573L1.82533 3.50803L2.11663 3.22507L1.72169 3.17494L1.55399 2.79822Z" fill="#F5F7F8"/>
<path d="M3.90093 2.79822L3.73322 3.17494L3.33829 3.22507L3.62958 3.50803L3.55319 3.91573L3.90093 3.68292L4.24866 3.91573L4.17227 3.50803L4.46357 3.22507L4.06863 3.17494L3.90093 2.79822Z" fill="#F5F7F8"/>
<path d="M6.3766 2.79822L6.20889 3.17494L5.81396 3.22507L6.10525 3.50803L6.02886 3.91573L6.3766 3.68292L6.72433 3.91573L6.64794 3.50803L6.93923 3.22507L6.5443 3.17494L6.3766 2.79822Z" fill="#F5F7F8"/>
<path d="M8.72354 2.79822L8.55583 3.17494L8.1609 3.22507L8.45219 3.50803L8.3758 3.91573L8.72354 3.68292L9.07127 3.91573L8.99488 3.50803L9.28617 3.22507L8.89124 3.17494L8.72354 2.79822Z" fill="#F5F7F8"/>
<path d="M-3.30064 4.88801L-3.46835 5.26474L-3.86328 5.31486L-3.57199 5.59783L-3.64838 6.00553L-3.30064 5.77271L-2.95291 6.00553L-3.0293 5.59783L-2.73801 5.31486L-3.13294 5.26474L-3.30064 4.88801Z" fill="#F5F7F8"/>
<path d="M-0.953701 4.88801L-1.12141 5.26474L-1.51634 5.31486L-1.22505 5.59783L-1.30144 6.00553L-0.953704 5.77271L-0.605969 6.00553L-0.682359 5.59783L-0.391067 5.31486L-0.785999 5.26474L-0.953701 4.88801Z" fill="#F5F7F8"/>
<path d="M1.55399 4.88801L1.38628 5.26474L0.991352 5.31486L1.28264 5.59783L1.20625 6.00553L1.55399 5.77271L1.90172 6.00553L1.82533 5.59783L2.11663 5.31486L1.72169 5.26474L1.55399 4.88801Z" fill="#F5F7F8"/>
<path d="M3.90093 4.88801L3.73322 5.26474L3.33829 5.31486L3.62958 5.59783L3.55319 6.00553L3.90093 5.77271L4.24866 6.00553L4.17227 5.59783L4.46357 5.31486L4.06863 5.26474L3.90093 4.88801Z" fill="#F5F7F8"/>
<path d="M6.3766 4.88801L6.20889 5.26474L5.81396 5.31486L6.10525 5.59783L6.02886 6.00553L6.3766 5.77271L6.72433 6.00553L6.64794 5.59783L6.93923 5.31486L6.5443 5.26474L6.3766 4.88801Z" fill="#F5F7F8"/>
<path d="M8.72354 4.88801L8.55583 5.26474L8.1609 5.31486L8.45219 5.59783L8.3758 6.00553L8.72354 5.77271L9.07127 6.00553L8.99488 5.59783L9.28617 5.31486L8.89124 5.26474L8.72354 4.88801Z" fill="#F5F7F8"/>
<path d="M-3.30064 6.81706L-3.46835 7.19378L-3.86328 7.24391L-3.57199 7.52687L-3.64838 7.93457L-3.30064 7.70176L-2.95291 7.93457L-3.0293 7.52687L-2.73801 7.24391L-3.13294 7.19378L-3.30064 6.81706Z" fill="#F5F7F8"/>
<path d="M-0.953701 6.81706L-1.12141 7.19378L-1.51634 7.24391L-1.22505 7.52687L-1.30144 7.93457L-0.953704 7.70176L-0.605969 7.93457L-0.682359 7.52687L-0.391067 7.24391L-0.785999 7.19378L-0.953701 6.81706Z" fill="#F5F7F8"/>
<path d="M1.55399 6.81706L1.38628 7.19378L0.991352 7.24391L1.28264 7.52687L1.20625 7.93457L1.55399 7.70176L1.90172 7.93457L1.82533 7.52687L2.11663 7.24391L1.72169 7.19378L1.55399 6.81706Z" fill="#F5F7F8"/>
<path d="M3.90093 6.81706L3.73322 7.19378L3.33829 7.24391L3.62958 7.52687L3.55319 7.93457L3.90093 7.70176L4.24866 7.93457L4.17227 7.52687L4.46357 7.24391L4.06863 7.19378L3.90093 6.81706Z" fill="#F5F7F8"/>
<path d="M6.3766 6.81706L6.20889 7.19378L5.81396 7.24391L6.10525 7.52687L6.02886 7.93457L6.3766 7.70176L6.72433 7.93457L6.64794 7.52687L6.93923 7.24391L6.5443 7.19378L6.3766 6.81706Z" fill="#F5F7F8"/>
<path d="M8.72354 6.81706L8.55583 7.19378L8.1609 7.24391L8.45219 7.52687L8.3758 7.93457L8.72354 7.70176L9.07127 7.93457L8.99488 7.52687L9.28617 7.24391L8.89124 7.19378L8.72354 6.81706Z" fill="#F5F7F8"/>
<path d="M-3.30064 8.7461L-3.46835 9.12282L-3.86328 9.17295L-3.57199 9.45592L-3.64838 9.86361L-3.30064 9.6308L-2.95291 9.86361L-3.0293 9.45592L-2.73801 9.17295L-3.13294 9.12282L-3.30064 8.7461Z" fill="#F5F7F8"/>
<path d="M-0.953701 8.7461L-1.12141 9.12282L-1.51634 9.17295L-1.22505 9.45592L-1.30144 9.86361L-0.953704 9.6308L-0.605969 9.86361L-0.682359 9.45592L-0.391067 9.17295L-0.785999 9.12282L-0.953701 8.7461Z" fill="#F5F7F8"/>
<path d="M1.55399 8.7461L1.38628 9.12282L0.991352 9.17295L1.28264 9.45592L1.20625 9.86361L1.55399 9.6308L1.90172 9.86361L1.82533 9.45592L2.11663 9.17295L1.72169 9.12282L1.55399 8.7461Z" fill="#F5F7F8"/>
<path d="M3.90093 8.7461L3.73322 9.12282L3.33829 9.17295L3.62958 9.45592L3.55319 9.86361L3.90093 9.6308L4.24866 9.86361L4.17227 9.45592L4.46357 9.17295L4.06863 9.12282L3.90093 8.7461Z" fill="#F5F7F8"/>
<path d="M6.3766 8.7461L6.20889 9.12282L5.81396 9.17295L6.10525 9.45592L6.02886 9.86361L6.3766 9.6308L6.72433 9.86361L6.64794 9.45592L6.93923 9.17295L6.5443 9.12282L6.3766 8.7461Z" fill="#F5F7F8"/>
<path d="M8.72354 8.7461L8.55583 9.12282L8.1609 9.17295L8.45219 9.45592L8.3758 9.86361L8.72354 9.6308L9.07127 9.86361L8.99488 9.45592L9.28617 9.17295L8.89124 9.12282L8.72354 8.7461Z" fill="#F5F7F8"/>
</g>
</svg>
