<svg width="20" height="20" viewBox="0 0 20 20" fill="none" xmlns="http://www.w3.org/2000/svg">
<mask id="mask0_11482_7877" style="mask-type:alpha" maskUnits="userSpaceOnUse" x="0" y="0" width="20" height="20">
<circle cx="10" cy="10" r="10" fill="#D9D9D9"/>
</mask>
<g mask="url(#mask0_11482_7877)">
</g>
<mask id="mask1_11482_7877" style="mask-type:alpha" maskUnits="userSpaceOnUse" x="0" y="0" width="20" height="20">
<circle cx="10" cy="10" r="10" fill="#D9D9D9"/>
</mask>
<g mask="url(#mask1_11482_7877)">
<rect y="17.5" width="17.5" height="20" transform="rotate(-90 0 17.5)" fill="#F5F7F8"/>
<rect x="10" y="5" width="2.5" height="10" transform="rotate(-90 10 5)" fill="#DD2033"/>
<rect x="10" y="10" width="2.5" height="10" transform="rotate(-90 10 10)" fill="#DD2033"/>
<rect y="15" width="2.5" height="20" transform="rotate(-90 0 15)" fill="#DD2033"/>
<rect y="20" width="2.5" height="20" transform="rotate(-90 0 20)" fill="#DD2033"/>
<rect y="10" width="10" height="10" transform="rotate(-90 0 10)" fill="#004692"/>
<path d="M7.88889 6.111L7.3921 7.2347L6.22222 7.38421L7.08509 8.22825L6.85881 9.44434L7.88888 8.74989L8.91896 9.44434L8.69267 8.22825L9.55555 7.38421L8.38566 7.2347L7.88889 6.111Z" fill="#F5F7F8"/>
<path d="M7.88889 -0.555664L7.3921 0.568034L6.22222 0.717548L7.08509 1.56158L6.85881 2.77767L7.88888 2.08323L8.91896 2.77767L8.69267 1.56158L9.55555 0.717548L8.38566 0.568034L7.88889 -0.555664Z" fill="#F5F7F8"/>
<path d="M5.66667 2.77767L5.16988 3.90137L3.99999 4.05088L4.86287 4.89492L4.63658 6.111L5.66666 5.41656L6.69673 6.111L6.47045 4.89492L7.33333 4.05088L6.16344 3.90137L5.66667 2.77767Z" fill="#F5F7F8"/>
<path d="M3.16667 6.111L2.66988 7.2347L1.49999 7.38421L2.36287 8.22825L2.13658 9.44434L3.16666 8.74989L4.19673 9.44434L3.97045 8.22825L4.83333 7.38421L3.66344 7.2347L3.16667 6.111Z" fill="#F5F7F8"/>
<path d="M3.16667 -0.555664L2.66988 0.568034L1.49999 0.717548L2.36287 1.56158L2.13658 2.77767L3.16666 2.08323L4.19673 2.77767L3.97045 1.56158L4.83333 0.717548L3.66344 0.568034L3.16667 -0.555664Z" fill="#F5F7F8"/>
<path d="M0.944446 2.77767L0.447656 3.90137L-0.722229 4.05088L0.140649 4.89492L-0.0856372 6.111L0.944438 5.41656L1.97451 6.111L1.74823 4.89492L2.6111 4.05088L1.44122 3.90137L0.944446 2.77767Z" fill="#F5F7F8"/>
</g>
</svg>
