<svg width="29" height="20" viewBox="0 0 29 20" fill="none" xmlns="http://www.w3.org/2000/svg">
<mask id="mask0_11482_7947" style="mask-type:alpha" maskUnits="userSpaceOnUse" x="0" y="0" width="29" height="20">
<rect width="29" height="20" fill="#D9D9D9"/>
</mask>
<g mask="url(#mask0_11482_7947)">
<rect y="20" width="20" height="29" transform="rotate(-90 0 20)" fill="#F5F7F8"/>
<rect x="14.5" y="3.6001" width="3.6" height="14.5" transform="rotate(-90 14.5 3.6001)" fill="#004692"/>
<rect x="14.5" y="10.7998" width="3.6" height="14.5" transform="rotate(-90 14.5 10.7998)" fill="#004692"/>
<rect y="18" width="3.6" height="29" transform="rotate(-90 0 18)" fill="#004692"/>
<path d="M11.6806 7.19977L9.87019 8.08883L10.8342 9.9192L8.86838 9.52659L8.61928 11.5998L7.24998 10.075L5.88074 11.5998L5.63165 9.52659L3.66577 9.91913L4.62984 8.08877L2.81946 7.19977L4.6299 6.31078L3.66577 4.48048L5.63158 4.87303L5.88081 2.7998L7.24998 4.32459L8.61935 2.7998L8.86838 4.87303L10.8343 4.48048L9.87025 6.31084L11.6806 7.19977Z" fill="#F1B434"/>
</g>
</svg>
