<svg width="20" height="20" viewBox="0 0 20 20" fill="none" xmlns="http://www.w3.org/2000/svg">
<mask id="mask0_11482_7942" style="mask-type:alpha" maskUnits="userSpaceOnUse" x="0" y="0" width="20" height="20">
<circle cx="10" cy="10" r="10" fill="#D9D9D9"/>
</mask>
<g mask="url(#mask0_11482_7942)">
<rect y="20" width="20" height="20" transform="rotate(-90 0 20)" fill="#F5F7F8"/>
<path d="M10 5V2.5L20 2.5V5L10 5Z" fill="#004692"/>
<path d="M10 10V7.5L20 7.5V10L10 10Z" fill="#004692"/>
<path d="M1.09278e-07 15L0 12.5L20 12.5V15L1.09278e-07 15Z" fill="#004692"/>
<path d="M1.09278e-07 20L0 17.5L20 17.5V20H1.09278e-07Z" fill="#004692"/>
<path d="M8.33334 6.94421L7.0848 7.56161L7.74964 8.83269L6.3939 8.56005L6.22211 9.99978L5.27776 8.9409L4.33346 9.99978L4.16167 8.56005L2.80589 8.83265L3.47077 7.56156L2.22223 6.94421L3.47081 6.32685L2.80589 5.05581L4.16163 5.32841L4.3335 3.88867L5.27776 4.94755L6.22215 3.88867L6.3939 5.32841L7.74968 5.05581L7.08485 6.32689L8.33334 6.94421Z" fill="#F1B434"/>
</g>
</svg>
