<svg width="72" height="72" viewBox="0 0 72 72" fill="none" xmlns="http://www.w3.org/2000/svg">
<mask id="mask0_48_1772" style="mask-type:alpha" maskUnits="userSpaceOnUse" x="0" y="0" width="72" height="72">
<circle cx="36" cy="36" r="36" fill="#D9D9D9"/>
</mask>
<g mask="url(#mask0_48_1772)">
<rect width="24" height="72" transform="matrix(-4.37114e-08 1 1 4.37114e-08 0 0)" fill="#0091DA"/>
<path d="M51.1058 3.02266L52 1L52.8942 3.02266L55 3.29178L53.4468 4.81105L53.8541 7L52 5.75L50.1459 7L50.5532 4.81105L49 3.29178L51.1058 3.02266Z" fill="#F5F7F8"/>
<path d="M59.1058 3.02266L60 1L60.8942 3.02266L63 3.29178L61.4468 4.81105L61.8541 7L60 5.75L58.1459 7L58.5532 4.81105L57 3.29178L59.1058 3.02266Z" fill="#F5F7F8"/>
<path d="M44 8L43.1058 10.0227L41 10.2918L42.5532 11.811L42.1459 14L44 12.75L45.8541 14L45.4468 11.811L47 10.2918L44.8942 10.0227L44 8Z" fill="#F5F7F8"/>
<path d="M51.1058 10.0227L52 8L52.8942 10.0227L55 10.2918L53.4468 11.811L53.8541 14L52 12.75L50.1459 14L50.5532 11.811L49 10.2918L51.1058 10.0227Z" fill="#F5F7F8"/>
<path d="M60 8L59.1058 10.0227L57 10.2918L58.5532 11.811L58.1459 14L60 12.75L61.8541 14L61.4468 11.811L63 10.2918L60.8942 10.0227L60 8Z" fill="#F5F7F8"/>
<path d="M43.1058 17.0227L44 15L44.8942 17.0227L47 17.2918L45.4468 18.811L45.8541 21L44 19.75L42.1459 21L42.5532 18.811L41 17.2918L43.1058 17.0227Z" fill="#F5F7F8"/>
<path d="M36 15L35.1058 17.0227L33 17.2918L34.5532 18.811L34.1459 21L36 19.75L37.8541 21L37.4468 18.811L39 17.2918L36.8942 17.0227L36 15Z" fill="#F5F7F8"/>
<path d="M59.1058 17.0227L60 15L60.8942 17.0227L63 17.2918L61.4468 18.811L61.8541 21L60 19.75L58.1459 21L58.5532 18.811L57 17.2918L59.1058 17.0227Z" fill="#F5F7F8"/>
<path d="M52 15L51.1058 17.0227L49 17.2918L50.5532 18.811L50.1459 21L52 19.75L53.8541 21L53.4468 18.811L55 17.2918L52.8942 17.0227L52 15Z" fill="#F5F7F8"/>
<path d="M23.8224 19.0677C25.4169 20.3416 27.3997 20.7858 29.229 20.4524C26.3483 22.4963 22.3539 22.4844 19.4567 20.1697C15.9505 17.3685 15.379 12.2552 18.1803 8.74899C20.9815 5.24275 26.0948 4.67126 29.601 7.47252C29.8055 7.63586 29.9999 7.80707 30.1843 7.98536C27.5502 6.91437 24.466 7.59759 22.6508 9.86961C20.4256 12.6548 20.9501 16.773 23.8224 19.0677Z" fill="#F5F7F8"/>
<rect width="24" height="72" transform="matrix(-4.37114e-08 1 1 4.37114e-08 0 48)" fill="#009B77"/>
<rect width="24" height="72" transform="matrix(-4.37114e-08 1 1 4.37114e-08 0 24)" fill="#DD2033"/>
<rect width="16" height="72" transform="matrix(-4.37114e-08 1 1 4.37114e-08 0 28)" fill="#F5F7F8"/>
</g>
</svg>
