<svg width="20" height="20" viewBox="0 0 20 20" fill="none" xmlns="http://www.w3.org/2000/svg">
<mask id="mask0_11482_7898" style="mask-type:alpha" maskUnits="userSpaceOnUse" x="0" y="0" width="20" height="20">
<circle cx="10" cy="10" r="10" fill="#D9D9D9"/>
</mask>
<g mask="url(#mask0_11482_7898)">
<rect width="6.66667" height="20" transform="matrix(-4.37114e-08 1 1 4.37114e-08 0 0)" fill="#0091DA"/>
<path d="M14.196 0.839681L14.4444 0.277832L14.6928 0.839681L15.2778 0.914438L14.8463 1.33646L14.9595 1.9445L14.4444 1.59728L13.9294 1.9445L14.0425 1.33646L13.6111 0.914438L14.196 0.839681Z" fill="#F5F7F8"/>
<path d="M16.4183 0.839681L16.6667 0.277832L16.915 0.839681L17.5 0.914438L17.0686 1.33646L17.1817 1.9445L16.6667 1.59728L16.1516 1.9445L16.2648 1.33646L15.8333 0.914438L16.4183 0.839681Z" fill="#F5F7F8"/>
<path d="M12.2222 2.22228L11.9738 2.78413L11.3889 2.85888L11.8203 3.2809L11.7072 3.88894L12.2222 3.54172L12.7373 3.88894L12.6241 3.2809L13.0555 2.85888L12.4706 2.78413L12.2222 2.22228Z" fill="#F5F7F8"/>
<path d="M14.196 2.78413L14.4444 2.22228L14.6928 2.78413L15.2778 2.85888L14.8463 3.2809L14.9595 3.88894L14.4444 3.54172L13.9294 3.88894L14.0425 3.2809L13.6111 2.85888L14.196 2.78413Z" fill="#F5F7F8"/>
<path d="M16.6667 2.22228L16.4183 2.78413L15.8333 2.85888L16.2648 3.2809L16.1516 3.88894L16.6667 3.54172L17.1817 3.88894L17.0686 3.2809L17.5 2.85888L16.915 2.78413L16.6667 2.22228Z" fill="#F5F7F8"/>
<path d="M11.9738 4.72857L12.2222 4.16672L12.4706 4.72857L13.0555 4.80333L12.6241 5.22535L12.7373 5.83339L12.2222 5.48617L11.7072 5.83339L11.8203 5.22535L11.3889 4.80333L11.9738 4.72857Z" fill="#F5F7F8"/>
<path d="M9.99999 4.16672L9.7516 4.72857L9.16666 4.80333L9.5981 5.22535L9.48495 5.83339L9.99999 5.48617L10.515 5.83339L10.4019 5.22535L10.8333 4.80333L10.2484 4.72857L9.99999 4.16672Z" fill="#F5F7F8"/>
<path d="M16.4183 4.72857L16.6667 4.16672L16.915 4.72857L17.5 4.80333L17.0686 5.22535L17.1817 5.83339L16.6667 5.48617L16.1516 5.83339L16.2648 5.22535L15.8333 4.80333L16.4183 4.72857Z" fill="#F5F7F8"/>
<path d="M14.4444 4.16672L14.196 4.72857L13.6111 4.80333L14.0425 5.22535L13.9294 5.83339L14.4444 5.48617L14.9595 5.83339L14.8463 5.22535L15.2778 4.80333L14.6928 4.72857L14.4444 4.16672Z" fill="#F5F7F8"/>
<path d="M6.61732 5.29665C7.06023 5.65051 7.61101 5.7739 8.11915 5.68129C7.31897 6.24901 6.20942 6.24572 5.40464 5.60275C4.43069 4.82463 4.27194 3.40428 5.05007 2.43033C5.8282 1.45638 7.24854 1.29763 8.22249 2.07575C8.27929 2.12113 8.33331 2.16868 8.38453 2.21821C7.65284 1.92071 6.7961 2.1105 6.29188 2.74161C5.67376 3.51529 5.81946 4.65922 6.61732 5.29665Z" fill="#F5F7F8"/>
<rect width="6.66667" height="20" transform="matrix(-1.57361e-07 1 1 1.21421e-08 0 13.3335)" fill="#009B77"/>
<rect width="6.66667" height="20" transform="matrix(-1.57361e-07 1 1 1.21421e-08 0 6.6665)" fill="#DD2033"/>
<rect width="4.44444" height="20" transform="matrix(-1.57361e-07 1 1 1.21421e-08 0 7.77783)" fill="#F5F7F8"/>
</g>
</svg>
