<svg width="29" height="20" viewBox="0 0 29 20" fill="none" xmlns="http://www.w3.org/2000/svg">
<mask id="mask0_11482_7905" style="mask-type:alpha" maskUnits="userSpaceOnUse" x="0" y="0" width="29" height="20">
<rect width="29" height="20" fill="#D9D9D9"/>
</mask>
<g mask="url(#mask0_11482_7905)">
<rect width="8.8" height="29" transform="matrix(-4.37114e-08 1 1 4.37114e-08 0 0)" fill="#0091DA"/>
<path d="M22.4793 1.41803L22.7576 0.800049L23.0359 1.41803L23.6911 1.50025L23.2078 1.96443L23.3346 2.63321L22.7576 2.2513L22.1806 2.63321L22.3074 1.96443L21.8241 1.50025L22.4793 1.41803Z" fill="#F5F7F8"/>
<path d="M24.9688 1.41803L25.247 0.800049L25.5253 1.41803L26.1805 1.50025L25.6972 1.96443L25.824 2.63321L25.247 2.2513L24.6701 2.63321L24.7968 1.96443L24.3135 1.50025L24.9688 1.41803Z" fill="#F5F7F8"/>
<path d="M20.2682 2.93874L19.9899 3.55672L19.3347 3.63894L19.818 4.10312L19.6912 4.77191L20.2682 4.39L20.8452 4.77191L20.7184 4.10312L21.2017 3.63894L20.5464 3.55672L20.2682 2.93874Z" fill="#F5F7F8"/>
<path d="M22.4793 3.55672L22.7576 2.93874L23.0359 3.55672L23.6911 3.63894L23.2078 4.10312L23.3346 4.77191L22.7576 4.39L22.1806 4.77191L22.3074 4.10312L21.8241 3.63894L22.4793 3.55672Z" fill="#F5F7F8"/>
<path d="M25.247 2.93874L24.9688 3.55672L24.3135 3.63894L24.7968 4.10312L24.6701 4.77191L25.247 4.39L25.824 4.77191L25.6972 4.10312L26.1805 3.63894L25.5253 3.55672L25.247 2.93874Z" fill="#F5F7F8"/>
<path d="M19.9899 5.69541L20.2682 5.07743L20.5464 5.69541L21.2017 5.77764L20.7184 6.24181L20.8452 6.9106L20.2682 6.52869L19.6912 6.9106L19.818 6.24181L19.3347 5.77764L19.9899 5.69541Z" fill="#F5F7F8"/>
<path d="M17.7788 5.07743L17.5005 5.69541L16.8453 5.77764L17.3286 6.24181L17.2018 6.9106L17.7788 6.52869L18.3557 6.9106L18.229 6.24181L18.7123 5.77764L18.057 5.69541L17.7788 5.07743Z" fill="#F5F7F8"/>
<path d="M24.9688 5.69541L25.247 5.07743L25.5253 5.69541L26.1805 5.77764L25.6972 6.24181L25.824 6.9106L25.247 6.52869L24.6701 6.9106L24.7968 6.24181L24.3135 5.77764L24.9688 5.69541Z" fill="#F5F7F8"/>
<path d="M22.7576 5.07743L22.4793 5.69541L21.8241 5.77764L22.3074 6.24181L22.1806 6.9106L22.7576 6.52869L23.3346 6.9106L23.2078 6.24181L23.6911 5.77764L23.0359 5.69541L22.7576 5.07743Z" fill="#F5F7F8"/>
<path d="M13.9894 6.32024C14.4856 6.70946 15.1026 6.84517 15.6718 6.7433C14.7754 7.36775 13.5325 7.36412 12.6309 6.65692C11.5399 5.80106 11.362 4.23883 12.2337 3.16758C13.1054 2.09633 14.6965 1.92172 15.7876 2.77758C15.8512 2.82749 15.9117 2.8798 15.9691 2.93427C15.1494 2.60705 14.1897 2.81579 13.6248 3.50996C12.9324 4.36092 13.0956 5.61913 13.9894 6.32024Z" fill="#F5F7F8"/>
<rect width="9.6" height="29" transform="matrix(-1.09278e-07 1 1 1.74846e-08 0 14.7998)" fill="#009B77"/>
<rect width="8.8" height="29" transform="matrix(-1.09278e-07 1 1 1.74846e-08 0 8.7998)" fill="#DD2033"/>
<rect width="5.6" height="29" transform="matrix(-1.09278e-07 1 1 1.74846e-08 0 10.3999)" fill="#F5F7F8"/>
</g>
</svg>
