<svg width="72" height="72" viewBox="0 0 72 72" fill="none" xmlns="http://www.w3.org/2000/svg">
<mask id="mask0_48_2046" style="mask-type:alpha" maskUnits="userSpaceOnUse" x="0" y="0" width="72" height="72">
<circle cx="36" cy="36" r="36" fill="#D9D9D9"/>
</mask>
<g mask="url(#mask0_48_2046)">
<rect width="72" height="72" fill="#F5F7F8"/>
<rect x="-0.199951" y="72" width="72" height="36" transform="rotate(-90 -0.199951 72)" fill="#F1B434"/>
<path d="M48.3 21.9998V24.9998L51.8 24.9998V30.9998L54.8 30.9998V24.9998H58.3V21.9998H54.8V18.9998L51.8 18.9998L51.8 21.9998L48.3 21.9998Z" fill="#F1B434"/>
<path fill-rule="evenodd" clip-rule="evenodd" d="M63.846 26.3328L65.9673 28.4541L65.0856 29.3359L68.6994 32.9497L63.7497 37.8995L60.1358 34.2856L51.6368 42.7847C53.0579 45.2673 52.7084 48.4874 50.5884 50.6074C48.05 53.1458 43.9345 53.1458 41.3961 50.6074C38.8576 48.069 38.8576 43.9534 41.3961 41.415C43.6221 39.189 47.061 38.9151 49.5855 40.5932L63.846 26.3328ZM43.5174 48.4861C44.8842 49.8529 47.1003 49.8529 48.4671 48.4861C49.834 47.1193 49.834 44.9032 48.4671 43.5364C47.1003 42.1695 44.8842 42.1695 43.5174 43.5364C42.1505 44.9032 42.1505 47.1193 43.5174 48.4861Z" fill="#F1B434"/>
<path fill-rule="evenodd" clip-rule="evenodd" d="M42.535 26.0002L40.4136 28.1216L41.4617 29.1696L37.6815 32.9497L42.6313 37.8995L46.4114 34.1193L54.8686 42.5765C53.3048 45.0849 53.6128 48.4277 55.7925 50.6074C58.3309 53.1458 62.4465 53.1458 64.9849 50.6074C67.5233 48.069 67.5233 43.9534 64.9849 41.415C62.818 39.2481 59.5017 38.931 56.9984 40.4637L42.535 26.0002ZM62.8636 48.4861C61.4968 49.8529 59.2807 49.8529 57.9138 48.4861C56.547 47.1193 56.547 44.9032 57.9138 43.5364C59.2807 42.1695 61.4968 42.1695 62.8636 43.5364C64.2304 44.9032 64.2304 47.1193 62.8636 48.4861Z" fill="#C1C3C3"/>
</g>
</svg>
