<svg width="29" height="20" viewBox="0 0 29 20" fill="none" xmlns="http://www.w3.org/2000/svg">
<mask id="mask0_11482_7921" style="mask-type:alpha" maskUnits="userSpaceOnUse" x="0" y="0" width="29" height="20">
<rect width="29" height="20" fill="#D9D9D9"/>
</mask>
<g mask="url(#mask0_11482_7921)">
<rect y="-4.3999" width="29" height="28.8" fill="#F5F7F8"/>
<rect y="20" width="20" height="14.5" transform="rotate(-90 0 20)" fill="#F1B434"/>
<path d="M19.5824 4.4002V5.6002L20.9921 5.6002V8.0002L22.2005 8.00019V5.6002H23.6102V4.4002H22.2005V3.2002L20.9921 3.2002V4.4002L19.5824 4.4002Z" fill="#F1B434"/>
<path fill-rule="evenodd" clip-rule="evenodd" d="M25.844 6.1333L26.6984 6.98183L26.3432 7.33454L27.7988 8.78009L25.8052 10.76L24.3496 9.31444L20.9263 12.7141C21.4987 13.7071 21.358 14.9952 20.5041 15.8432C19.4817 16.8585 17.824 16.8585 16.8016 15.8432C15.7792 14.8278 15.7792 13.1816 16.8016 12.1662C17.6982 11.2758 19.0833 11.1662 20.1002 11.8375L25.844 6.1333ZM17.656 14.9946C18.2066 15.5414 19.0992 15.5414 19.6497 14.9946C20.2002 14.4479 20.2002 13.5615 19.6497 13.0147C19.0992 12.468 18.2066 12.468 17.656 13.0147C17.1055 13.5615 17.1055 14.4479 17.656 14.9946Z" fill="#F1B434"/>
<path fill-rule="evenodd" clip-rule="evenodd" d="M17.2604 6L16.406 6.84853L16.8281 7.26774L15.3056 8.7798L17.2992 10.7597L18.8218 9.24764L22.2281 12.6305C21.5983 13.6339 21.7223 14.971 22.6003 15.8429C23.6227 16.8582 25.2803 16.8582 26.3028 15.8429C27.3252 14.8275 27.3252 13.1813 26.3028 12.1659C25.43 11.2991 24.0943 11.1723 23.086 11.7854L17.2604 6ZM25.4483 14.9943C24.8978 15.5411 24.0052 15.5411 23.4547 14.9943C22.9042 14.4476 22.9042 13.5612 23.4547 13.0144C24.0052 12.4677 24.8978 12.4677 25.4483 13.0144C25.9989 13.5612 25.9989 14.4476 25.4483 14.9943Z" fill="#C1C3C3"/>
</g>
</svg>
