<svg width="20" height="20" viewBox="0 0 20 20" fill="none" xmlns="http://www.w3.org/2000/svg">
<mask id="mask0_11482_7914" style="mask-type:alpha" maskUnits="userSpaceOnUse" x="0" y="0" width="20" height="20">
<circle cx="10" cy="10" r="10" fill="#D9D9D9"/>
</mask>
<g mask="url(#mask0_11482_7914)">
<rect width="20" height="20" fill="#F5F7F8"/>
<rect x="-0.055542" y="20" width="20" height="10" transform="rotate(-90 -0.055542 20)" fill="#F1B434"/>
<path d="M13.4167 6.11117V6.9445L14.3889 6.9445V8.61116L15.2222 8.61116V6.9445H16.1944V6.11117H15.2222V5.27783L14.3889 5.27783L14.3889 6.11117L13.4167 6.11117Z" fill="#F1B434"/>
<path fill-rule="evenodd" clip-rule="evenodd" d="M17.735 7.31445L18.3243 7.90371L18.0793 8.14865L19.0832 9.1525L17.7082 10.5274L16.7044 9.52358L14.3435 11.8844C14.7383 12.5741 14.6412 13.4685 14.0523 14.0574C13.3472 14.7625 12.204 14.7625 11.4989 14.0574C10.7938 13.3523 10.7938 12.2091 11.4989 11.504C12.1172 10.8856 13.0725 10.8095 13.7738 11.2757L17.735 7.31445ZM12.0882 13.4682C12.4678 13.8478 13.0834 13.8478 13.4631 13.4682C13.8428 13.0885 13.8428 12.4729 13.4631 12.0932C13.0834 11.7136 12.4678 11.7136 12.0882 12.0932C11.7085 12.4729 11.7085 13.0885 12.0882 13.4682Z" fill="#F1B434"/>
<path fill-rule="evenodd" clip-rule="evenodd" d="M11.8153 7.22217L11.226 7.81142L11.5171 8.10254L10.4671 9.15259L11.842 10.5275L12.8921 9.47747L15.2413 11.8267C14.8069 12.5235 14.8924 13.452 15.4979 14.0575C16.203 14.7626 17.3462 14.7626 18.0514 14.0575C18.7565 13.3524 18.7565 12.2092 18.0514 11.5041C17.4494 10.9021 16.5283 10.814 15.8329 11.2398L11.8153 7.22217ZM17.4621 13.4682C17.0824 13.8479 16.4669 13.8479 16.0872 13.4682C15.7075 13.0886 15.7075 12.473 16.0872 12.0933C16.4669 11.7136 17.0824 11.7136 17.4621 12.0933C17.8418 12.473 17.8418 13.0886 17.4621 13.4682Z" fill="#C1C3C3"/>
</g>
</svg>
