<svg width="20" height="20" viewBox="0 0 20 20" fill="none" xmlns="http://www.w3.org/2000/svg">
<mask id="mask0_11482_7930" style="mask-type:alpha" maskUnits="userSpaceOnUse" x="0" y="0" width="20" height="20">
<circle cx="10.0001" cy="10" r="10" fill="#D9D9D9"/>
</mask>
<g mask="url(#mask0_11482_7930)">
<rect x="20" y="20" width="15" height="20" transform="rotate(180 20 20)" fill="#009B77"/>
<path fill-rule="evenodd" clip-rule="evenodd" d="M5.00002 20L15 20L15 0L5.00002 0L5.00002 20ZM5.55556 8.80656L7.39378 12.0575L9.2033 8.80652L7.3938 5.55556L5.55556 8.80656ZM12.6063 5.55561L10.7968 8.80652L12.6063 12.0574L14.4444 8.80645L12.6063 5.55561ZM11.8032 13.4776L10.0001 10.238L8.19682 13.4777L9.99997 16.6667L11.8032 13.4776Z" fill="#FBD381"/>
<rect x="5.00002" y="20" width="5" height="20" transform="rotate(180 5.00002 20)" fill="#004692"/>
</g>
</svg>
