<svg width="72" height="72" viewBox="0 0 72 72" fill="none" xmlns="http://www.w3.org/2000/svg">
<mask id="mask0_48_2295" style="mask-type:alpha" maskUnits="userSpaceOnUse" x="0" y="0" width="72" height="72">
<circle cx="36" cy="36" r="36" fill="#D9D9D9"/>
</mask>
<g mask="url(#mask0_48_2295)">
<rect x="0.00012207" y="72" width="20" height="72" transform="rotate(-90 0.00012207 72)" fill="#DD2033"/>
<rect y="52" width="32" height="72" transform="rotate(-90 0 52)" fill="#004692"/>
<rect y="20" width="20" height="72" transform="rotate(-90 0 20)" fill="#F1B434"/>
<path d="M34.8667 22L33.3764 25.3711L29.8667 25.8196L32.4553 28.3517L31.7765 32L34.8667 29.9167L37.9569 32L37.2781 28.3517L39.8667 25.8196L36.357 25.3711L34.8667 22Z" fill="#F5F7F8"/>
<path d="M17.5318 27.9042L18.2446 31.5205L15.6269 33.901L19.1997 34.4904L20.7362 37.8682L22.0726 34.3892L25.7989 34.3233L23.1503 31.7242L23.8184 28.1652L20.6862 29.8109L17.5318 27.9042Z" fill="#F5F7F8"/>
<path d="M13.3999 38L11.9096 41.3711L8.3999 41.8196L10.9885 44.3517L10.3097 48L13.3999 45.9167L16.4901 48L15.8113 44.3517L18.3999 41.8196L14.8902 41.3711L13.3999 38Z" fill="#F5F7F8"/>
<path d="M57.3999 38L55.9096 41.3711L52.3999 41.8196L54.9885 44.3517L54.3097 48L57.3999 45.9167L60.4901 48L59.8113 44.3517L62.3999 41.8196L58.8902 41.3711L57.3999 38Z" fill="#F5F7F8"/>
<path d="M52.2678 27.9043L49.1134 29.8109L45.9812 28.1652L46.6493 31.7242L44.0007 34.3233L47.727 34.3892L49.0634 37.8682L50.5998 34.4904L54.1727 33.901L51.555 31.5205L52.2678 27.9043Z" fill="#F5F7F8"/>
</g>
</svg>
