<svg width="20" height="20" viewBox="0 0 20 20" fill="none" xmlns="http://www.w3.org/2000/svg">
<mask id="mask0_11482_7956" style="mask-type:alpha" maskUnits="userSpaceOnUse" x="0" y="0" width="20" height="20">
<circle cx="10" cy="10" r="10" fill="#D9D9D9"/>
</mask>
<g mask="url(#mask0_11482_7956)">
<rect x="0.00012207" y="20" width="5.55556" height="20" transform="rotate(-90 0.00012207 20)" fill="#DD2033"/>
<rect y="14.4443" width="8.88889" height="20" transform="rotate(-90 0 14.4443)" fill="#004692"/>
<rect y="5.55566" width="5.55556" height="20" transform="rotate(-90 0 5.55566)" fill="#F1B434"/>
<path d="M9.68521 6.11133L9.27122 7.04774L8.29631 7.17234L9.01538 7.8757L8.82681 8.88911L9.6852 8.3104L10.5436 8.88911L10.355 7.8757L11.0741 7.17234L10.0992 7.04774L9.68521 6.11133Z" fill="#F5F7F8"/>
<path d="M4.86996 7.75139L5.06794 8.75591L4.34081 9.41716L5.33327 9.58088L5.76006 10.5192L6.13129 9.55277L7.16638 9.53446L6.43064 8.81249L6.61623 7.82389L5.74617 8.28101L4.86996 7.75139Z" fill="#F5F7F8"/>
<path d="M3.72221 10.5558L3.30822 11.4922L2.33331 11.6168L3.05238 12.3201L2.86381 13.3335L3.7222 12.7548L4.5806 13.3335L4.39203 12.3201L5.11109 11.6168L4.13619 11.4922L3.72221 10.5558Z" fill="#F5F7F8"/>
<path d="M15.9444 10.5558L15.5304 11.4922L14.5555 11.6168L15.2746 12.3201L15.086 13.3335L15.9444 12.7548L16.8028 13.3335L16.6142 12.3201L17.3333 11.6168L16.3584 11.4922L15.9444 10.5558Z" fill="#F5F7F8"/>
<path d="M14.5188 7.7514L13.6426 8.28101L12.7726 7.82389L12.9581 8.81249L12.2224 9.53446L13.2575 9.55277L13.6287 10.5192L14.0555 9.58088L15.048 9.41716L14.3208 8.75591L14.5188 7.7514Z" fill="#F5F7F8"/>
</g>
</svg>
