<svg width="29" height="20" viewBox="0 0 29 20" fill="none" xmlns="http://www.w3.org/2000/svg">
<mask id="mask0_11482_7962" style="mask-type:alpha" maskUnits="userSpaceOnUse" x="0" y="0" width="29" height="20">
<rect width="29" height="20" fill="#D9D9D9"/>
</mask>
<g mask="url(#mask0_11482_7962)">
<rect y="20" width="4" height="29" transform="rotate(-90 0 20)" fill="#DD2033"/>
<rect y="16" width="12" height="29" transform="rotate(-90 0 16)" fill="#004692"/>
<rect y="4" width="4" height="29" transform="rotate(-90 0 4)" fill="#F1B434"/>
<path d="M14.0435 4.7998L13.4433 6.14824L12.0296 6.32766L13.0723 7.3405L12.7989 8.7998L14.0435 7.96647L15.2882 8.7998L15.0148 7.3405L16.0574 6.32766L14.6438 6.14824L14.0435 4.7998Z" fill="#F5F7F8"/>
<path d="M7.06143 7.16149L7.34851 8.60801L6.29417 9.5602L7.73323 9.79596L8.35209 11.1471L8.89036 9.75548L10.3912 9.72912L9.32443 8.68948L9.59353 7.26589L8.33195 7.92414L7.06143 7.16149Z" fill="#F5F7F8"/>
<path d="M5.3972 11.1998L4.79691 12.5482L3.3833 12.7277L4.42594 13.7405L4.15252 15.1998L5.39719 14.3665L6.64186 15.1998L6.36843 13.7405L7.41108 12.7277L5.99747 12.5482L5.3972 11.1998Z" fill="#F5F7F8"/>
<path d="M23.1194 11.1998L22.5191 12.5482L21.1055 12.7277L22.1482 13.7405L21.8747 15.1998L23.1194 14.3665L24.3641 15.1998L24.0907 13.7405L25.1333 12.7277L23.7197 12.5482L23.1194 11.1998Z" fill="#F5F7F8"/>
<path d="M21.0523 7.16151L19.7818 7.92415L18.5202 7.26589L18.7893 8.68948L17.7225 9.72912L19.2234 9.75548L19.7616 11.1471L20.3805 9.79596L21.8196 9.5602L20.7652 8.60801L21.0523 7.16151Z" fill="#F5F7F8"/>
</g>
</svg>
