<svg width="72" height="72" viewBox="0 0 72 72" fill="none" xmlns="http://www.w3.org/2000/svg">
<mask id="mask0_48_2426" style="mask-type:alpha" maskUnits="userSpaceOnUse" x="0" y="0" width="72" height="72">
<circle cx="36" cy="36" r="36" fill="#D9D9D9"/>
</mask>
<g mask="url(#mask0_48_2426)">
<rect width="72" height="72" fill="#004692"/>
<mask id="mask1_48_2426" style="mask-type:alpha" maskUnits="userSpaceOnUse" x="0" y="0" width="36" height="36">
<path d="M0 36V36C-8.69081e-07 16.1177 16.1177 -7.04529e-07 36 -1.57361e-06V-1.57361e-06L36 36L0 36Z" fill="#002F6C"/>
</mask>
<g mask="url(#mask1_48_2426)">
<rect x="-0.000244141" width="36" height="36" fill="#004692"/>
<path d="M12.5223 3.13378L10.401 5.2551L39.927 34.7811L42.0483 32.6598L12.5223 3.13378Z" fill="#F5F7F8"/>
<path d="M6.86549 8.79064L3.32996 12.3262L32.856 41.8522L36.3915 38.3166L6.86549 8.79064Z" fill="#F5F7F8"/>
<path d="M6.86549 8.79064L10.401 5.2551L39.927 34.7811L36.3915 38.3166L6.86549 8.79064Z" fill="#DD2033"/>
<path d="M36 12V17L17 17L17 36H12V12H36Z" fill="#F5F7F8"/>
<path d="M36 -2V3L5 3L5 36H0V-2H36Z" fill="#F5F7F8"/>
<path fill-rule="evenodd" clip-rule="evenodd" d="M3 36H12L12 12L36 12V3H12H3L3 12L3 36Z" fill="#DD2033"/>
</g>
<path d="M61.2002 53H40.2002V58H43.2002V61H58.2002V58H61.2002V53Z" fill="#FBD381"/>
<path d="M40.2002 35H61.2002V43.7432C61.2002 49.8265 57.4918 55.2951 51.8402 57.546L50.7002 58L49.5601 57.546C43.9086 55.2951 40.2002 49.8265 40.2002 43.7432V35Z" fill="#008259"/>
<rect x="48.2002" y="39" width="5" height="15" fill="#F5F7F8"/>
<path d="M43.7002 40C44.5286 40 45.2002 39.3284 45.2002 38.5C45.2002 37.6716 44.5286 37 43.7002 37C42.8718 37 42.2002 37.6716 42.2002 38.5C42.2002 39.3284 42.8718 40 43.7002 40Z" fill="#F1B434"/>
<path d="M57.7002 40C58.5286 40 59.2002 39.3284 59.2002 38.5C59.2002 37.6716 58.5286 37 57.7002 37C56.8718 37 56.2002 37.6716 56.2002 38.5C56.2002 39.3284 56.8718 40 57.7002 40Z" fill="#F1B434"/>
<path d="M59.2002 43.5C59.2002 44.3284 58.5286 45 57.7002 45C56.8718 45 56.2002 44.3284 56.2002 43.5C56.2002 42.6716 56.8718 42 57.7002 42C58.5286 42 59.2002 42.6716 59.2002 43.5Z" fill="#F1B434"/>
<path d="M43.7002 45C44.5286 45 45.2002 44.3284 45.2002 43.5C45.2002 42.6716 44.5286 42 43.7002 42C42.8718 42 42.2002 42.6716 42.2002 43.5C42.2002 44.3284 42.8718 45 43.7002 45Z" fill="#F1B434"/>
<path d="M59.2002 48.5C59.2002 49.3284 58.5286 50 57.7002 50C56.8718 50 56.2002 49.3284 56.2002 48.5C56.2002 47.6716 56.8718 47 57.7002 47C58.5286 47 59.2002 47.6716 59.2002 48.5Z" fill="#F1B434"/>
<path d="M43.7002 50C44.5286 50 45.2002 49.3284 45.2002 48.5C45.2002 47.6716 44.5286 47 43.7002 47C42.8718 47 42.2002 47.6716 42.2002 48.5C42.2002 49.3284 42.8718 50 43.7002 50Z" fill="#F1B434"/>
</g>
</svg>
