<svg width="29" height="20" viewBox="0 0 29 20" fill="none" xmlns="http://www.w3.org/2000/svg">
<mask id="mask0_11482_7985" style="mask-type:alpha" maskUnits="userSpaceOnUse" x="0" y="0" width="29" height="20">
<rect width="29" height="20" fill="#D9D9D9"/>
</mask>
<g mask="url(#mask0_11482_7985)">
<rect width="29" height="20" fill="#004692"/>
<mask id="mask1_11482_7985" style="mask-type:alpha" maskUnits="userSpaceOnUse" x="0" y="0" width="15" height="12">
<path d="M0 12L-1.31134e-06 0L14.5 -2.53526e-07L14.5 12L0 12Z" fill="#002F6C"/>
</mask>
<g mask="url(#mask1_11482_7985)">
<rect width="14.5" height="14.4" fill="#004692"/>
<path d="M5.15183 0.402145L4.29741 1.25067L14.849 11.7295L15.7034 10.881L5.15183 0.402145Z" fill="#F5F7F8"/>
<path d="M2.87338 2.66489L1.44934 4.0791L12.0009 14.5579L13.425 13.1437L2.87338 2.66489Z" fill="#F5F7F8"/>
<path d="M2.87338 2.66489L4.29741 1.25067L14.849 11.7295L13.425 13.1437L2.87338 2.66489Z" fill="#DD2033"/>
<path d="M2.41669 14H4.02849L4.02849 3.59999H14.5V2H2.41669V14Z" fill="#F5F7F8"/>
<path d="M0 14H2.41736L2.41736 1.99998H14.5007V0H0V14Z" fill="#DD2033"/>
</g>
<path d="M26.1806 14H17.7222V16H18.9306V17.2H24.9722V16H26.1806V14Z" fill="#FBD381"/>
<path d="M17.7222 6.7998H26.1806V9.77912C26.1806 12.524 24.5038 14.9903 21.9514 15.9998C19.399 14.9903 17.7222 12.524 17.7222 9.77913V6.7998Z" fill="#008259"/>
<rect x="20.9445" y="8.3999" width="2.01389" height="6" fill="#F5F7F8"/>
<path d="M19.1319 8.79961C19.4656 8.79961 19.7361 8.53098 19.7361 8.19961C19.7361 7.86824 19.4656 7.59961 19.1319 7.59961C18.7983 7.59961 18.5278 7.86824 18.5278 8.19961C18.5278 8.53098 18.7983 8.79961 19.1319 8.79961Z" fill="#F1B434"/>
<path d="M24.7708 8.79961C25.1045 8.79961 25.375 8.53098 25.375 8.19961C25.375 7.86824 25.1045 7.59961 24.7708 7.59961C24.4372 7.59961 24.1667 7.86824 24.1667 8.19961C24.1667 8.53098 24.4372 8.79961 24.7708 8.79961Z" fill="#F1B434"/>
<path d="M25.375 10.1996C25.375 10.531 25.1045 10.7996 24.7708 10.7996C24.4372 10.7996 24.1667 10.531 24.1667 10.1996C24.1667 9.86824 24.4372 9.59961 24.7708 9.59961C25.1045 9.59961 25.375 9.86824 25.375 10.1996Z" fill="#F1B434"/>
<path d="M19.1319 10.7996C19.4656 10.7996 19.7361 10.531 19.7361 10.1996C19.7361 9.86824 19.4656 9.59961 19.1319 9.59961C18.7983 9.59961 18.5278 9.86824 18.5278 10.1996C18.5278 10.531 18.7983 10.7996 19.1319 10.7996Z" fill="#F1B434"/>
<path d="M25.375 12.1996C25.375 12.531 25.1045 12.7996 24.7708 12.7996C24.4372 12.7996 24.1667 12.531 24.1667 12.1996C24.1667 11.8682 24.4372 11.5996 24.7708 11.5996C25.1045 11.5996 25.375 11.8682 25.375 12.1996Z" fill="#F1B434"/>
<path d="M19.1319 12.7996C19.4656 12.7996 19.7361 12.531 19.7361 12.1996C19.7361 11.8682 19.4656 11.5996 19.1319 11.5996C18.7983 11.5996 18.5278 11.8682 18.5278 12.1996C18.5278 12.531 18.7983 12.7996 19.1319 12.7996Z" fill="#F1B434"/>
</g>
</svg>
