<svg width="20" height="20" viewBox="0 0 20 20" fill="none" xmlns="http://www.w3.org/2000/svg">
<mask id="mask0_11482_7970" style="mask-type:alpha" maskUnits="userSpaceOnUse" x="0" y="0" width="20" height="20">
<circle cx="10" cy="10" r="10" fill="#D9D9D9"/>
</mask>
<g mask="url(#mask0_11482_7970)">
<rect width="20" height="20" fill="#004692"/>
<mask id="mask1_11482_7970" style="mask-type:alpha" maskUnits="userSpaceOnUse" x="0" y="0" width="10" height="10">
<path d="M0 10C-8.69081e-07 4.47715 4.47715 -5.43618e-08 10 -1.21421e-07L10 10L0 10Z" fill="#002F6C"/>
</mask>
<g mask="url(#mask1_11482_7970)">
<rect x="-0.000244141" width="10" height="10" fill="#004692"/>
<path d="M3.47843 0.870386L2.88917 1.45964L11.0908 9.66131L11.6801 9.07205L3.47843 0.870386Z" fill="#F5F7F8"/>
<path d="M1.90708 2.44173L0.924989 3.42383L9.12665 11.6255L10.1087 10.6434L1.90708 2.44173Z" fill="#F5F7F8"/>
<path d="M1.90708 2.44173L2.88917 1.45964L11.0908 9.66131L10.1087 10.6434L1.90708 2.44173Z" fill="#DD2033"/>
<path d="M9.99998 3.33301V4.7219L4.7222 4.7219L4.7222 9.99968H3.33331V3.33301H9.99998Z" fill="#F5F7F8"/>
<path d="M10 -0.555664V0.833225L1.38889 0.833224L1.38889 9.99989H0V-0.555664H10Z" fill="#F5F7F8"/>
<path fill-rule="evenodd" clip-rule="evenodd" d="M0.833313 9.99992H3.33331L3.33331 3.33325L9.99998 3.33325V0.833252H3.33331H0.833314L0.833314 3.33325L0.833313 9.99992Z" fill="#DD2033"/>
</g>
<path d="M17.0001 14.7222H11.1667V16.1111H12.0001V16.9444H16.1667V16.1111H17.0001V14.7222Z" fill="#FBD381"/>
<path d="M11.1667 9.72217H17.0001V11.81C17.0001 13.7056 15.8445 15.4097 14.0834 16.1111C12.3223 15.4097 11.1667 13.7056 11.1667 11.81V9.72217Z" fill="#008259"/>
<rect x="13.3889" y="10.8335" width="1.38889" height="4.16667" fill="#F5F7F8"/>
<path d="M12.139 11.1112C12.3691 11.1112 12.5556 10.9246 12.5556 10.6945C12.5556 10.4644 12.3691 10.2778 12.139 10.2778C11.9088 10.2778 11.7223 10.4644 11.7223 10.6945C11.7223 10.9246 11.9088 11.1112 12.139 11.1112Z" fill="#F1B434"/>
<path d="M16.0278 11.1112C16.258 11.1112 16.4445 10.9246 16.4445 10.6945C16.4445 10.4644 16.258 10.2778 16.0278 10.2778C15.7977 10.2778 15.6112 10.4644 15.6112 10.6945C15.6112 10.9246 15.7977 11.1112 16.0278 11.1112Z" fill="#F1B434"/>
<path d="M16.4445 12.0834C16.4445 12.3135 16.258 12.5001 16.0278 12.5001C15.7977 12.5001 15.6112 12.3135 15.6112 12.0834C15.6112 11.8533 15.7977 11.6667 16.0278 11.6667C16.258 11.6667 16.4445 11.8533 16.4445 12.0834Z" fill="#F1B434"/>
<path d="M12.139 12.5001C12.3691 12.5001 12.5556 12.3135 12.5556 12.0834C12.5556 11.8533 12.3691 11.6667 12.139 11.6667C11.9088 11.6667 11.7223 11.8533 11.7223 12.0834C11.7223 12.3135 11.9088 12.5001 12.139 12.5001Z" fill="#F1B434"/>
<path d="M16.4445 13.4723C16.4445 13.7024 16.258 13.8889 16.0278 13.8889C15.7977 13.8889 15.6112 13.7024 15.6112 13.4723C15.6112 13.2422 15.7977 13.0556 16.0278 13.0556C16.258 13.0556 16.4445 13.2422 16.4445 13.4723Z" fill="#F1B434"/>
<path d="M12.139 13.8889C12.3691 13.8889 12.5556 13.7024 12.5556 13.4723C12.5556 13.2422 12.3691 13.0556 12.139 13.0556C11.9088 13.0556 11.7223 13.2422 11.7223 13.4723C11.7223 13.7024 11.9088 13.8889 12.139 13.8889Z" fill="#F1B434"/>
</g>
</svg>
