<svg width="72" height="72" viewBox="0 0 72 72" fill="none" xmlns="http://www.w3.org/2000/svg">
<mask id="mask0_48_2739" style="mask-type:alpha" maskUnits="userSpaceOnUse" x="0" y="0" width="72" height="72">
<circle cx="36" cy="36" r="36" fill="#D9D9D9"/>
</mask>
<g mask="url(#mask0_48_2739)">
<rect width="72" height="72" fill="#F5F7F8"/>
<path d="M24.2851 23.4381C25.9753 23.3225 28.4568 23.5713 30.3866 24.532C32.1259 25.3978 33.3383 26.7504 33.3383 29.2852V30.2805L17.3634 26C16.7917 28.1339 18.058 30.3272 20.1919 30.899L33.3383 34.4216V35.4568L17.0353 31.0885C16.4635 33.2223 17.7299 35.4157 19.8637 35.9874L32.8014 39.4541L31.9794 40.2691L17.673 36.4357C17.1012 38.5696 18.3676 40.7629 20.5014 41.3347L28.6915 43.5292L22 50.164L26.1649 54.2937L33.5196 47.0012L30.4143 54.6989L36.3044 60.5391L42.1945 54.6989L39.0811 46.9812L46.4228 54.2608L50.5877 50.1312L43.7973 43.3983L51.4986 41.3347C53.6325 40.7629 54.8988 38.5696 54.3271 36.4357L40.5094 40.1382L39.6874 39.3231L52.1363 35.9874C54.2702 35.4157 55.5365 33.2223 54.9647 31.0885L39.2494 35.2994V34.2641L51.8082 30.899C53.9421 30.3272 55.2084 28.1339 54.6366 26L39.2494 30.123V29.2523H39.2283C39.2162 24.1308 36.3667 20.9741 33.0294 19.3127C29.8755 17.7426 26.2566 17.4492 23.8799 17.6117L24.2851 23.4381Z" fill="#F1B434"/>
<path d="M25.7998 28H45.7998V35.9412C45.7998 42.0164 42.1011 47.4795 36.4605 49.7357L35.7998 50L35.1391 49.7357C29.4985 47.4795 25.7998 42.0164 25.7998 35.9412V28Z" fill="#005EB8"/>
<mask id="mask1_48_2739" style="mask-type:alpha" maskUnits="userSpaceOnUse" x="25" y="28" width="21" height="22">
<path d="M25.7998 28H45.7998V35.9412C45.7998 42.0164 42.1011 47.4795 36.4605 49.7357L35.7998 50L35.1391 49.7357C29.4985 47.4795 25.7998 42.0164 25.7998 35.9412V28Z" fill="#005EB8"/>
</mask>
<g mask="url(#mask1_48_2739)">
<path d="M25.7998 35H45.7998V50H25.7998V35Z" fill="#F5F7F8"/>
<path d="M31.7998 35L27.7998 35L27.7998 50L31.7998 50L31.7998 35Z" fill="#DD2033"/>
<path d="M35.7998 35L39.7998 35V50H35.7998V35Z" fill="#DD2033"/>
<path d="M43.7998 35L46 35V50H43.7998V35Z" fill="#DD2033"/>
</g>
<path d="M61 30.0001H63V41.0001H61V30.0001Z" fill="#005EB8"/>
<path d="M7.93185 30L6 30.5176L8.84241 41.1257L10.932 41.1692L13.7744 30.5612L11.8425 30.0435L9.89302 37.3192L7.93185 30Z" fill="#005EB8"/>
</g>
</svg>
