<svg width="29" height="20" viewBox="0 0 29 20" fill="none" xmlns="http://www.w3.org/2000/svg">
<mask id="mask0_11482_8012" style="mask-type:alpha" maskUnits="userSpaceOnUse" x="0" y="0" width="29" height="20">
<rect width="29" height="20" fill="#D9D9D9"/>
</mask>
<g mask="url(#mask0_11482_8012)">
<rect width="29" height="20" fill="#F5F7F8"/>
<path d="M9.78145 4.17551C10.4622 4.12928 11.4617 4.22883 12.239 4.6131C12.9395 4.95943 13.4279 5.50046 13.4279 6.51437V6.91248L6.99355 5.20029C6.76325 6.05384 7.2733 6.93118 8.13278 7.15988L13.4279 8.56892V8.98303L6.86139 7.23568C6.63109 8.08923 7.14114 8.96657 8.00062 9.19527L13.2116 10.5819L12.8805 10.9079L7.11824 9.37458C6.88794 10.2281 7.39799 11.1055 8.25747 11.3342L11.5562 12.212L8.86107 14.8659L10.5386 16.5178L13.5009 13.6008L12.2501 16.6799L14.6225 19.0159L16.995 16.6799L15.7409 13.5928L18.698 16.5046L20.3756 14.8528L17.6405 12.1596L20.7424 11.3342C21.6019 11.1055 22.112 10.2281 21.8817 9.37458L16.3162 10.8556L15.9852 10.5295L20.9993 9.19527C21.8588 8.96657 22.3688 8.08923 22.1385 7.23568L15.8087 8.92004V8.50593L20.8671 7.15988C21.7266 6.93118 22.2367 6.05384 22.0064 5.20029L15.8087 6.84949V6.50121H15.8003C15.7954 4.45259 14.6477 3.18992 13.3035 2.52537C12.0331 1.89733 10.5755 1.77995 9.61822 1.84496L9.78145 4.17551Z" fill="#F1B434"/>
<path d="M10.3916 6H18.4472V8.86606C18.4472 11.4825 16.8509 13.8341 14.4194 14.8C11.9878 13.8341 10.3916 11.4825 10.3916 8.86606V6Z" fill="#005EB8"/>
<mask id="mask1_11482_8012" style="mask-type:alpha" maskUnits="userSpaceOnUse" x="10" y="6" width="9" height="9">
<path d="M10.3916 6L18.4472 6L18.4472 8.86606C18.4472 11.4825 16.8509 13.8341 14.4194 14.8C11.9878 13.8341 10.3916 11.4825 10.3916 8.86606L10.3916 6Z" fill="#005EB8"/>
</mask>
<g mask="url(#mask1_11482_8012)">
<path d="M10.3916 8.7998L18.4472 8.7998L18.4472 14.7998L10.3916 14.7998L10.3916 8.7998Z" fill="#F5F7F8"/>
<path d="M12.8083 8.7998L11.1971 8.7998L11.1971 14.7998L12.8083 14.7998L12.8083 8.7998Z" fill="#DD2033"/>
<path d="M14.4194 8.7998L16.0305 8.7998L16.0305 14.7998L14.4194 14.7998L14.4194 8.7998Z" fill="#DD2033"/>
<path d="M17.6416 8.7998L18.5278 8.7998L18.5278 14.7998L17.6416 14.7998L17.6416 8.7998Z" fill="#DD2033"/>
</g>
<path d="M24.5695 6.79983H25.375V11.1998H24.5695V6.79983Z" fill="#005EB8"/>
<path d="M3.19479 6.7998L2.41669 7.00686L3.56155 11.2501L4.40318 11.2675L5.54803 7.02427L4.76993 6.81721L3.98471 9.72748L3.19479 6.7998Z" fill="#005EB8"/>
</g>
</svg>
