<svg width="20" height="20" viewBox="0 0 20 20" fill="none" xmlns="http://www.w3.org/2000/svg">
<mask id="mask0_11482_8002" style="mask-type:alpha" maskUnits="userSpaceOnUse" x="0" y="0" width="20" height="20">
<circle cx="10" cy="10" r="10" fill="#D9D9D9"/>
</mask>
<g mask="url(#mask0_11482_8002)">
<rect width="20" height="20" fill="#F5F7F8"/>
<path d="M6.74588 6.5108C7.21539 6.4787 7.90469 6.54782 8.44074 6.81468C8.92387 7.05519 9.26066 7.4309 9.26066 8.13501V8.41147L4.82319 7.22245C4.66437 7.81519 5.01612 8.42446 5.60886 8.58328L9.26066 9.56177V9.84935L4.73204 8.63592C4.57322 9.22866 4.92498 9.83792 5.51772 9.99674L9.11152 10.9597L8.88319 11.1861L4.90918 10.1213C4.75036 10.714 5.10212 11.3233 5.69486 11.4821L7.96987 12.0917L6.11113 13.9347L7.26805 15.0818L9.31103 13.0561L8.44843 15.1944L10.0846 16.8167L11.7207 15.1944L10.8559 13.0506L12.8952 15.0727L14.0522 13.9256L12.1659 12.0553L14.3052 11.4821C14.8979 11.3233 15.2497 10.714 15.0909 10.1213L11.2526 11.1497L11.0243 10.9233L14.4823 9.99674C15.0751 9.83792 15.4268 9.22866 15.268 8.63592L10.9026 9.80561V9.51803L14.3912 8.58328C14.9839 8.42446 15.3357 7.81519 15.1769 7.22245L10.9026 8.36773V8.12587H10.8968C10.8934 6.70322 10.1019 5.82636 9.17486 5.36487C8.29877 4.92873 7.29351 4.84722 6.63331 4.89236L6.74588 6.5108Z" fill="#F1B434"/>
<path d="M7.16663 7.77783H12.7222V9.78607C12.7222 11.593 11.6221 13.2179 9.9444 13.8889C8.26672 13.2179 7.16663 11.593 7.16663 9.78607V7.77783Z" fill="#005EB8"/>
<mask id="mask1_11482_8002" style="mask-type:alpha" maskUnits="userSpaceOnUse" x="7" y="7" width="6" height="7">
<path d="M7.16663 7.77734L12.7222 7.77734L12.7222 9.78558C12.7222 11.5925 11.6221 13.2174 9.9444 13.8885C8.26672 13.2174 7.16663 11.5925 7.16663 9.78558L7.16663 7.77734Z" fill="#005EB8"/>
</mask>
<g mask="url(#mask1_11482_8002)">
<path d="M7.16663 9.72217L12.7222 9.72217L12.7222 13.8888L7.16663 13.8888L7.16663 9.72217Z" fill="#F5F7F8"/>
<path d="M8.83328 9.72217L7.72217 9.72217L7.72217 13.8888L8.83328 13.8888L8.83328 9.72217Z" fill="#DD2033"/>
<path d="M9.94439 9.72217L11.0555 9.72217V13.8888L9.94439 13.8888V9.72217Z" fill="#DD2033"/>
<path d="M12.1666 9.72217L12.7778 9.72217V13.8888L12.1666 13.8888V9.72217Z" fill="#DD2033"/>
</g>
<path d="M16.9445 8.33351H17.5V11.3891H16.9445V8.33351Z" fill="#005EB8"/>
<path d="M2.20331 8.3335L1.66669 8.47728L2.45625 11.424L3.03668 11.436L3.82624 8.48937L3.28961 8.34558L2.74808 10.3666L2.20331 8.3335Z" fill="#005EB8"/>
</g>
</svg>
