<svg width="29" height="20" viewBox="0 0 29 20" fill="none" xmlns="http://www.w3.org/2000/svg">
<mask id="mask0_11482_8041" style="mask-type:alpha" maskUnits="userSpaceOnUse" x="0" y="0" width="29" height="20">
<rect width="29" height="20" fill="#D9D9D9"/>
</mask>
<g mask="url(#mask0_11482_8041)">
<rect width="10.8" height="29" transform="matrix(-1.09278e-07 1 1 1.74846e-08 0 -4.3999)" fill="#DD2033"/>
<rect width="10.8" height="29" transform="matrix(-1.09278e-07 1 1 1.74846e-08 0 13.6001)" fill="#008259"/>
<path d="M29 6.4001H19.6555L5.15547 -4.3999H2.17496V24.4001H5.15547L19.6555 13.6001L29 13.6001V6.4001Z" fill="#31373D"/>
<path d="M29 11.2001H18.4471L0.724915 24.4001V-4.3999L18.4471 8.8001H29V11.2001Z" fill="#F1B434"/>
<path d="M7.49169 10.0001C7.49169 10.8838 6.77037 11.6001 5.88058 11.6001C4.99079 11.6001 4.26947 10.8838 4.26947 10.0001C4.26947 9.11644 4.99079 8.4001 5.88058 8.4001C6.77037 8.4001 7.49169 9.11644 7.49169 10.0001Z" fill="#31373D"/>
<path fill-rule="evenodd" clip-rule="evenodd" d="M-2.98053 -4.3999L16.3528 10.0001L-2.98053 24.4001V-4.3999ZM9.90836 10.0001C9.90836 12.2092 8.10506 14.0001 5.88058 14.0001C3.6561 14.0001 1.8528 12.2092 1.8528 10.0001C1.8528 7.79096 3.6561 6.0001 5.88058 6.0001C8.10506 6.0001 9.90836 7.79096 9.90836 10.0001Z" fill="#31373D"/>
</g>
</svg>
