<svg width="20" height="20" viewBox="0 0 20 20" fill="none" xmlns="http://www.w3.org/2000/svg">
<mask id="mask0_11482_8034" style="mask-type:alpha" maskUnits="userSpaceOnUse" x="0" y="0" width="20" height="20">
<circle cx="10" cy="10" r="10" transform="matrix(1 0 0 -1 0 20)" fill="#D9D9D9"/>
</mask>
<g mask="url(#mask0_11482_8034)">
<rect width="7.5" height="20" transform="matrix(-1.57361e-07 1 1 1.21421e-08 0 0)" fill="#DD2033"/>
<rect width="7.5" height="20" transform="matrix(-1.57361e-07 1 1 1.21421e-08 0 12.5)" fill="#008259"/>
<path d="M20 7.5H14.1111L4.11107 0H2.05554V20H4.11107L14.1111 12.5L20 12.5V7.5Z" fill="#31373D"/>
<path d="M20 10.8333H13.5555L1.33328 20V0L13.5555 9.16667H20V10.8333Z" fill="#F1B434"/>
<path d="M6.00002 10C6.00002 10.6136 5.50256 11.1111 4.88891 11.1111C4.27526 11.1111 3.7778 10.6136 3.7778 10C3.7778 9.38635 4.27526 8.88889 4.88891 8.88889C5.50256 8.88889 6.00002 9.38635 6.00002 10Z" fill="#31373D"/>
<path fill-rule="evenodd" clip-rule="evenodd" d="M-1.2222 0L12.1111 10L-1.2222 20V0ZM7.66669 10C7.66669 11.5341 6.42304 12.7778 4.88891 12.7778C3.35479 12.7778 2.11113 11.5341 2.11113 10C2.11113 8.46588 3.35479 7.22222 4.88891 7.22222C6.42304 7.22222 7.66669 8.46588 7.66669 10Z" fill="#31373D"/>
</g>
</svg>
