<svg width="20" height="20" viewBox="0 0 20 20" fill="none" xmlns="http://www.w3.org/2000/svg">
<mask id="mask0_11482_8062" style="mask-type:alpha" maskUnits="userSpaceOnUse" x="0" y="0" width="20" height="20">
<circle cx="10" cy="10" r="10" fill="#D9D9D9"/>
</mask>
<g mask="url(#mask0_11482_8062)">
<rect y="20" width="20" height="20" transform="rotate(-90 0 20)" fill="#DD2033"/>
<rect y="12.2222" width="12.2222" height="12.2222" transform="rotate(-90 0 12.2222)" fill="#004692"/>
<path d="M3.38895 4.72217L2.89216 5.84587L1.72227 5.99538L2.58515 6.83942L2.35887 8.0555L3.38894 7.36106L4.41902 8.0555L4.19273 6.83942L5.05561 5.99538L3.88572 5.84587L3.38895 4.72217Z" fill="#F5F7F8"/>
<path d="M7.27784 7.22217L6.86385 8.15858L5.88894 8.28318L6.60801 8.98654L6.41943 9.99995L7.27783 9.42124L8.13623 9.99995L7.94765 8.98654L8.66672 8.28318L7.69182 8.15858L7.27784 7.22217Z" fill="#F5F7F8"/>
<path d="M8.38895 2.22217L7.89216 3.34587L6.72227 3.49538L7.58515 4.33942L7.35887 5.5555L8.38894 4.86106L9.41902 5.5555L9.19273 4.33942L10.0556 3.49538L8.88572 3.34587L8.38895 2.22217Z" fill="#F5F7F8"/>
</g>
</svg>
