<svg width="29" height="20" viewBox="0 0 29 20" fill="none" xmlns="http://www.w3.org/2000/svg">
<mask id="mask0_11482_8067" style="mask-type:alpha" maskUnits="userSpaceOnUse" x="0" y="0" width="29" height="20">
<rect width="29" height="20" fill="#D9D9D9"/>
</mask>
<g mask="url(#mask0_11482_8067)">
<rect y="24.3999" width="28.8" height="29" transform="rotate(-90 0 24.3999)" fill="#DD2033"/>
<rect y="13.6001" width="13.6" height="17.7222" transform="rotate(-90 0 13.6001)" fill="#004692"/>
<path d="M5.23612 4.8002L4.51578 6.41832L2.81944 6.63362L4.07062 7.84903L3.7425 9.6002L5.23611 8.6002L6.72972 9.6002L6.4016 7.84903L7.65278 6.63362L5.95644 6.41832L5.23612 4.8002Z" fill="#F5F7F8"/>
<path d="M10.875 8.4002L10.2747 9.74863L8.86111 9.92805L9.90375 10.9409L9.63032 12.4002L10.875 11.5669L12.1197 12.4002L11.8462 10.9409L12.8889 9.92805L11.4753 9.74863L10.875 8.4002Z" fill="#F5F7F8"/>
<path d="M12.4861 1.2002L11.7658 2.81832L10.0694 3.03362L11.3206 4.24903L10.9925 6.0002L12.4861 5.0002L13.9797 6.0002L13.6516 4.24903L14.9028 3.03362L13.2064 2.81832L12.4861 1.2002Z" fill="#F5F7F8"/>
</g>
</svg>
