<svg width="72" height="72" viewBox="0 0 72 72" fill="none" xmlns="http://www.w3.org/2000/svg">
<mask id="mask0_48_3514" style="mask-type:alpha" maskUnits="userSpaceOnUse" x="0" y="0" width="72" height="72">
<circle cx="36" cy="36" r="36" fill="#D9D9D9"/>
</mask>
<g mask="url(#mask0_48_3514)">
<rect width="72" height="72" fill="#004692"/>
<path d="M36 13L34.5097 16.3711L31 16.8196L33.5886 19.3517L32.9098 23L36 20.9167L39.0902 23L38.4114 19.3517L41 16.8196L37.4903 16.3711L36 13Z" fill="#F5F7F8"/>
<path d="M25 16L23.5097 19.3711L20 19.8196L22.5886 22.3518L21.9098 26L25 23.9167L28.0902 26L27.4114 22.3518L30 19.8196L26.4903 19.3711L25 16Z" fill="#F5F7F8"/>
<path d="M14 23L12.5097 26.3711L9 26.8196L11.5886 29.3518L10.9098 33L14 30.9167L17.0902 33L16.4114 29.3518L19 26.8196L15.4903 26.3711L14 23Z" fill="#F5F7F8"/>
<path d="M58 23L56.5097 26.3711L53 26.8196L55.5886 29.3518L54.9098 33L58 30.9167L61.0902 33L60.4114 29.3518L63 26.8196L59.4903 26.3711L58 23Z" fill="#F5F7F8"/>
<path d="M47 16L45.5097 19.3711L42 19.8196L44.5886 22.3518L43.9098 26L47 23.9167L50.0902 26L49.4114 22.3518L52 19.8196L48.4903 19.3711L47 16Z" fill="#F5F7F8"/>
<path d="M31.1444 59.2418L30.5114 52.1109L23.0533 46.4998L23.0533 43.1317C31.4823 40.1398 32.0073 33.1515 31.2162 30.0314L34.9344 28.4743L44.6221 35.713L44.2553 38.6905L53.8135 42.8906L50.4764 49.5325L49.9874 53.5025L46.8876 54.1282L46.2619 51.0284L36.1608 55.3257L35.6106 59.7919L31.1444 59.2418Z" fill="#F1B434"/>
</g>
</svg>
