<svg width="20" height="20" viewBox="0 0 20 20" fill="none" xmlns="http://www.w3.org/2000/svg">
<mask id="mask0_11482_8074" style="mask-type:alpha" maskUnits="userSpaceOnUse" x="0" y="0" width="20" height="20">
<circle cx="10" cy="10" r="10" fill="#D9D9D9"/>
</mask>
<g mask="url(#mask0_11482_8074)">
<rect width="20" height="20" fill="#004692"/>
<path d="M10 3.61133L9.58602 4.54774L8.61111 4.67234L9.33018 5.3757L9.1416 6.38911L10 5.8104L10.8584 6.38911L10.6698 5.3757L11.3889 4.67234L10.414 4.54774L10 3.61133Z" fill="#F5F7F8"/>
<path d="M6.94445 4.44466L6.53046 5.38108L5.55556 5.50567L6.27462 6.20904L6.08605 7.22244L6.94444 6.64374L7.80284 7.22244L7.61427 6.20904L8.33333 5.50567L7.35843 5.38108L6.94445 4.44466Z" fill="#F5F7F8"/>
<path d="M3.8889 6.38911L3.4749 7.32552L2.5 7.45012L3.21906 8.15348L3.03049 9.16689L3.88889 8.58818L4.74728 9.16689L4.55871 8.15348L5.27778 7.45012L4.30287 7.32552L3.8889 6.38911Z" fill="#F5F7F8"/>
<path d="M16.1111 6.38911L15.6971 7.32552L14.7222 7.45012L15.4413 8.15348L15.2527 9.16689L16.1111 8.58818L16.9695 9.16689L16.7809 8.15348L17.5 7.45012L16.5251 7.32552L16.1111 6.38911Z" fill="#F5F7F8"/>
<path d="M13.0556 4.44466L12.6416 5.38108L11.6667 5.50567L12.3857 6.20904L12.1972 7.22244L13.0556 6.64374L13.914 7.22244L13.7254 6.20904L14.4444 5.50567L13.4695 5.38108L13.0556 4.44466Z" fill="#F5F7F8"/>
<path d="M8.65122 16.4559L8.47541 14.4751L6.4037 12.9165L6.4037 11.9809C8.7451 11.1498 8.89093 9.20866 8.67117 8.34196L9.70402 7.90944L12.395 9.9202L12.2932 10.7473L14.9482 11.914L14.0212 13.7589L13.8854 14.8617L13.0244 15.0355L12.8505 14.1745L10.0447 15.3682L9.89184 16.6088L8.65122 16.4559Z" fill="#F1B434"/>
</g>
</svg>
