<svg width="29" height="20" viewBox="0 0 29 20" fill="none" xmlns="http://www.w3.org/2000/svg">
<mask id="mask0_11482_8079" style="mask-type:alpha" maskUnits="userSpaceOnUse" x="0" y="0" width="29" height="20">
<rect width="29" height="20" fill="#D9D9D9"/>
</mask>
<g mask="url(#mask0_11482_8079)">
<rect width="29" height="28.8" fill="#004692"/>
<path d="M14.5 1.6001L13.9664 2.81369L12.7099 2.97517L13.6367 3.88672L13.3936 5.2001L14.5 4.4501L15.6064 5.2001L15.3633 3.88672L16.2901 2.97517L15.0336 2.81369L14.5 1.6001Z" fill="#F5F7F8"/>
<path d="M10.5617 2.6801L10.0282 3.89369L8.77161 4.05517L9.69841 4.96673L9.45536 6.2801L10.5617 5.5301L11.6681 6.2801L11.4251 4.96673L12.3519 4.05517L11.0953 3.89369L10.5617 2.6801Z" fill="#F5F7F8"/>
<path d="M6.62348 5.2001L6.08989 6.41369L4.83334 6.57517L5.76014 7.48673L5.51709 8.8001L6.62347 8.0501L7.72984 8.8001L7.4868 7.48673L8.41359 6.57517L7.15705 6.41369L6.62348 5.2001Z" fill="#F5F7F8"/>
<path d="M22.3766 5.2001L21.843 6.41369L20.5864 6.57517L21.5132 7.48673L21.2702 8.8001L22.3766 8.0501L23.4829 8.8001L23.2399 7.48673L24.1667 6.57517L22.9101 6.41369L22.3766 5.2001Z" fill="#F5F7F8"/>
<path d="M18.4383 2.6801L17.9047 3.89369L16.6482 4.05517L17.575 4.96673L17.3319 6.2801L18.4383 5.5301L19.5447 6.2801L19.3016 4.96673L20.2284 4.05517L18.9719 3.89369L18.4383 2.6801Z" fill="#F5F7F8"/>
<path d="M12.7616 18.0412L12.535 15.5058L9.8648 13.5107L9.8648 12.3132C12.8826 11.2494 13.0706 8.76471 12.7873 7.65533L14.1185 7.1017L17.587 9.67547L17.4556 10.7341L20.8777 12.2275L19.683 14.589L19.5079 16.0006L18.3981 16.2231L18.1741 15.1209L14.5576 16.6489L14.3606 18.2368L12.7616 18.0412Z" fill="#F1B434"/>
</g>
</svg>
