<svg width="72" height="72" viewBox="0 0 72 72" fill="none" xmlns="http://www.w3.org/2000/svg">
<mask id="mask0_48_3739" style="mask-type:alpha" maskUnits="userSpaceOnUse" x="0" y="0" width="72" height="72">
<circle cx="36" cy="36" r="36" transform="matrix(1 0 0 -1 0 72)" fill="#D9D9D9"/>
</mask>
<g mask="url(#mask0_48_3739)">
<rect width="24" height="72" transform="matrix(-4.37114e-08 1 1 4.37114e-08 0.00012207 0)" fill="#DD2033"/>
<rect width="24" height="72" transform="matrix(-4.37114e-08 1 1 4.37114e-08 0.00012207 48)" fill="#005EB8"/>
<path d="M72.3999 24H44.7998L12.7998 0V72L44.7998 48H72.3999V24Z" fill="#F5F7F8"/>
<path d="M72 44H42.1331L4.7998 72V0L42.1331 28H72V44Z" fill="#008259"/>
<path d="M-3.6001 9V63L32.3999 36L-3.6001 9Z" fill="#F1B434"/>
<path d="M24.3999 36L-23.6001 0V72L24.3999 36Z" fill="#31373D"/>
</g>
</svg>
