<svg width="29" height="20" viewBox="0 0 29 20" fill="none" xmlns="http://www.w3.org/2000/svg">
<mask id="mask0_11482_8154" style="mask-type:alpha" maskUnits="userSpaceOnUse" x="0" y="0" width="29" height="20">
<rect width="29" height="20" fill="#D9D9D9"/>
</mask>
<g mask="url(#mask0_11482_8154)">
<rect y="20" width="20" height="29" transform="rotate(-90 0 20)" fill="#008259"/>
<rect x="3.18997" y="17.6001" width="15.6" height="25.81" transform="rotate(-90 3.18997 17.6001)" fill="#F1B434"/>
<rect x="3.18997" y="14.48" width="9.36" height="25.81" transform="rotate(-90 3.18997 14.48)" fill="#DD2033"/>
<path d="M18.2596 8.00049H28.9998V12.0005H18.2596L1.61111 24.3999V-4.3999L18.2596 8.00049Z" fill="#31373D"/>
<path d="M18.5278 10.0001L-0.805557 -4.3999V24.4001L18.5278 10.0001Z" fill="#F5F7F8"/>
<path d="M7.6528 4.7998L6.21211 8.03605L2.81944 8.46665L5.32179 10.8975L4.66556 14.3998L7.65278 12.3998L10.64 14.3998L9.98376 10.8975L12.4861 8.46665L9.09344 8.03605L7.6528 4.7998Z" fill="#DD2033"/>
<path d="M4.97979 7.83636L5.63888 11.6L6.24305 12.8H9.86805L10.6736 11.6L7.02417 6.94023C6.68708 6.50982 6.09094 6.37553 5.59985 6.61938C5.39868 6.71927 5.23722 6.87187 5.12721 7.05407L4.02777 7.6L4.97979 7.83636Z" fill="#FBD381"/>
</g>
</svg>
