<svg width="20" height="20" viewBox="0 0 20 20" fill="none" xmlns="http://www.w3.org/2000/svg">
<mask id="mask0_11482_8144" style="mask-type:alpha" maskUnits="userSpaceOnUse" x="0" y="0" width="20" height="20">
<circle cx="10" cy="10" r="10" fill="#D9D9D9"/>
</mask>
<g mask="url(#mask0_11482_8144)">
<rect y="20" width="20" height="20" transform="rotate(-90 0 20)" fill="#008259"/>
<rect y="16.9443" width="13.8889" height="20" transform="rotate(-90 0 16.9443)" fill="#F1B434"/>
<rect y="14.1665" width="8.33333" height="20" transform="rotate(-90 0 14.1665)" fill="#DD2033"/>
<path d="M13.1481 8.61133H19.9997V11.3887H13.1481L1.66666 20V0L13.1481 8.61133Z" fill="#31373D"/>
<path d="M13.3333 10L0 0V20L13.3333 10Z" fill="#F5F7F8"/>
<path d="M5.00002 6.6665L4.00644 8.9139L1.66667 9.21293L3.39243 10.901L2.93986 13.3332L5.00001 11.9443L7.06015 13.3332L6.60758 10.901L8.33334 9.21293L5.99357 8.9139L5.00002 6.6665Z" fill="#DD2033"/>
<path d="M3.15657 8.77524L3.61111 11.3889L4.02778 12.2222H6.52778L7.08333 11.3889L4.56648 8.15292C4.33401 7.85403 3.92288 7.76077 3.58419 7.93011C3.44546 7.99948 3.3341 8.10545 3.25824 8.23198L2.5 8.6111L3.15657 8.77524Z" fill="#FBD381"/>
</g>
</svg>
