<svg width="939" height="554" viewBox="0 0 939 554" fill="none" xmlns="http://www.w3.org/2000/svg">
<rect x="333" y="119" width="273" height="122" fill="white"/>
<text fill="#161616" xml:space="preserve" style="white-space: pre" font-family="Open Sans" font-size="18" font-weight="bold" letter-spacing="0px"><tspan x="399.064" y="152.983">Creator/Builder</tspan></text>
<path d="M357.5 174H581.5" stroke="#008297"/>
<text fill="#61656E" xml:space="preserve" style="white-space: pre" font-family="Open Sans" font-size="14" letter-spacing="0px"><tspan x="354.554" y="204.431">(Selection, Interpretation, Mistakes,&#10;</tspan><tspan x="425.306" y="222.431">Ulitmate Use)</tspan></text>
<rect x="333" y="119" width="273" height="122" stroke="#008297" stroke-width="2"/>
<rect x="87" y="282" width="274" height="122" fill="white"/>
<text fill="#161616" xml:space="preserve" style="white-space: pre" font-family="Open Sans" font-size="18" font-weight="bold" letter-spacing="0px"><tspan x="158.829" y="315.983">Design System</tspan></text>
<path d="M112 337H336" stroke="#008297"/>
<text fill="#61656E" xml:space="preserve" style="white-space: pre" font-family="Open Sans" font-size="14" letter-spacing="0px"><tspan x="125.945" y="367.431">(Rules, Components, Patterns, </tspan><tspan x="191.003" y="385.431">Guidance)</tspan></text>
<rect x="87" y="282" width="274" height="122" stroke="#008297" stroke-width="2"/>
<path d="M221 181V180H220V181H221ZM332 181L322 175.226V186.774L332 181ZM222 282V181H220V282H222ZM221 182H323V180H221V182Z" fill="#008297"/>
<path d="M713 181L714 181L714 180L713 180L713 181ZM713 281L718.773 271L707.226 271L713 281ZM607 182L713 182L713 180L607 180L607 182ZM712 181L712 272L714 272L714 181L712 181Z" fill="#008297"/>
<rect x="578" y="282" width="273" height="122" fill="white"/>
<text fill="#161616" xml:space="preserve" style="white-space: pre" font-family="Open Sans" font-size="18" font-weight="bold" letter-spacing="0px"><tspan x="654.857" y="349.983">App Usability</tspan></text>
<rect x="578" y="282" width="273" height="122" stroke="#008297" stroke-width="2"/>
<path d="M577 343L567 337.227L567 348.774L577 343ZM362 344L363.991 344L363.991 342L362 342L362 344ZM367.972 344L371.954 344L371.954 342L367.972 342L367.972 344ZM375.935 344L379.917 344L379.917 342L375.935 342L375.935 344ZM383.898 344L387.88 344L387.88 342L383.898 342L383.898 344ZM391.861 344L395.843 344L395.843 342L391.861 342L391.861 344ZM399.824 344L403.806 344L403.806 342L399.824 342L399.824 344ZM407.787 344L411.769 344L411.769 342L407.787 342L407.787 344ZM415.75 344L419.731 344L419.731 342L415.75 342L415.75 344ZM423.713 344L427.694 344L427.694 342L423.713 342L423.713 344ZM431.676 344L435.657 344L435.657 342L431.676 342L431.676 344ZM439.639 344L443.62 344L443.62 342L439.639 342L439.639 344ZM447.602 344L451.583 344L451.583 342L447.602 342L447.602 344ZM455.565 344L459.546 344L459.546 342L455.565 342L455.565 344ZM463.528 344L467.509 344L467.509 342L463.528 342L463.528 344ZM471.491 344L475.472 344L475.472 342L471.491 342L471.491 344ZM479.454 344L483.435 344L483.435 342L479.454 342L479.454 344ZM487.417 344L491.398 344L491.398 342L487.417 342L487.417 344ZM495.38 344L499.361 344L499.361 342L495.38 342L495.38 344ZM503.343 344L507.324 344L507.324 342L503.343 342L503.343 344ZM511.306 344L515.287 344L515.287 342L511.306 342L511.306 344ZM519.269 344L523.25 344L523.25 342L519.269 342L519.269 344ZM527.231 344L531.213 344L531.213 342L527.231 342L527.231 344ZM535.194 344L539.176 344L539.176 342L535.194 342L535.194 344ZM543.157 344L547.139 344L547.139 342L543.157 342L543.157 344ZM551.12 344L555.102 344L555.102 342L551.12 342L551.12 344ZM559.083 344L563.065 344L563.065 342L559.083 342L559.083 344ZM567.046 344L571.028 344L571.028 342L567.046 342L567.046 344Z" fill="#008297"/>
</svg>
