<svg xmlns="http://www.w3.org/2000/svg" width="939" height="369" fill="none"><path fill="#fff" d="M333 42h273v122H333z"/><text xml:space="preserve" fill="#161616" font-family="Open Sans" font-size="18" font-weight="bold" letter-spacing="0" style="white-space:pre"><tspan x="399.06" y="75.98">Creator/Builder</tspan></text><path stroke="#008297" d="M357.5 97h224"/><text xml:space="preserve" fill="#61656E" font-family="Open Sans" font-size="14" letter-spacing="0" style="white-space:pre"><tspan x="354.55" y="127.43">(Selection, Interpretation, Mistakes,
</tspan><tspan x="425.31" y="145.43">Ulitmate Use)</tspan></text><path stroke="#008297" stroke-width="2" d="M333 42h273v122H333z"/><path fill="#fff" d="M87 205h274v122H87z"/><text xml:space="preserve" fill="#161616" font-family="Open Sans" font-size="18" font-weight="bold" letter-spacing="0" style="white-space:pre"><tspan x="158.83" y="238.98">Design System</tspan></text><path stroke="#008297" d="M112 260h224"/><text xml:space="preserve" fill="#61656E" font-family="Open Sans" font-size="14" letter-spacing="0" style="white-space:pre"><tspan x="125.94" y="290.43">(Rules, Components, Patterns, </tspan><tspan x="191" y="308.43">Guidance)</tspan></text><path stroke="#008297" stroke-width="2" d="M87 205h274v122H87z"/><path fill="#008297" d="M221 104v-1h-1v1h1Zm111 0-10-5.77v11.54l10-5.77ZM222 205V104h-2v101h2Zm-1-100h102v-2H221v2Zm492-1h1v-1h-1v1Zm0 100 5.77-10h-11.54l5.77 10Zm-106-99h106v-2H607v2Zm105-1v91h2v-91h-2Z"/><path fill="#fff" d="M578 205h273v122H578z"/><text xml:space="preserve" fill="#161616" font-family="Open Sans" font-size="18" font-weight="bold" letter-spacing="0" style="white-space:pre"><tspan x="654.86" y="272.98">App Usability</tspan></text><path stroke="#008297" stroke-width="2" d="M578 205h273v122H578z"/><path fill="#008297" d="m577 266-10-5.77v11.54l10-5.77Zm-215 1h2v-2h-2v2Zm5.97 0h3.98v-2h-3.98v2Zm7.96 0h3.99v-2h-3.99v2Zm7.97 0h3.98v-2h-3.98v2Zm7.96 0h3.98v-2h-3.98v2Zm7.96 0h3.99v-2h-3.99v2Zm7.97 0h3.98v-2h-3.98v2Zm7.96 0h3.98v-2h-3.98v2Zm7.96 0h3.98v-2h-3.98v2Zm7.97 0h3.98v-2h-3.98v2Zm7.96 0h3.98v-2h-3.98v2Zm7.96 0h3.98v-2h-3.98v2Zm7.96 0h3.99v-2h-3.99v2Zm7.97 0h3.98v-2h-3.98v2Zm7.96 0h3.98v-2h-3.98v2Zm7.96 0h3.99v-2h-3.99v2Zm7.97 0h3.98v-2h-3.98v2Zm7.96 0h3.98v-2h-3.98v2Zm7.96 0h3.98v-2h-3.98v2Zm7.97 0h3.98v-2h-3.98v2Zm7.96 0h3.98v-2h-3.98v2Zm7.96 0h3.98v-2h-3.98v2Zm7.96 0h3.99v-2h-3.99v2Zm7.97 0h3.98v-2h-3.98v2Zm7.96 0h3.98v-2h-3.98v2Zm7.96 0h3.99v-2h-3.99v2Zm7.97 0h3.98v-2h-3.98v2Z"/></svg>