<svg width="160" height="120" viewBox="0 0 160 32" fill="none" xmlns="http://www.w3.org/2000/svg">
<path d="M6.72606 0V0.767179H9.72382V15.7247C9.72382 20.2168 8.42395 21.4858 5.52192 21.4858C3.69807 21.4858 3.39578 20.1589 3.39578 19.469C3.39578 17.8333 3.30005 16.8345 1.74827 16.8345C0.186415 16.8345 0 18.3447 0 18.8079C0 20.8682 0.957266 22.446 5.2297 22.446C10.3234 22.446 13.044 20.8007 13.044 15.3291V0.767179L16.1375 0.772004V0H6.72606ZM16.0871 19.4786C15.7244 19.826 15.543 20.2361 15.543 20.7331C15.543 21.2301 15.7244 21.6354 16.0922 21.9635C16.4549 22.3061 16.8933 22.4701 17.3971 22.4701C17.911 22.4701 18.3493 22.3061 18.7221 21.9635C19.0799 21.6354 19.2612 21.2301 19.2612 20.7331C19.2612 20.2313 19.0799 19.8164 18.7221 19.4786C18.3644 19.136 17.9311 18.972 17.3971 18.972C16.8731 18.972 16.4398 19.1312 16.0871 19.4786ZM36.9858 19.4786C36.6281 19.826 36.4568 20.2361 36.4568 20.7331C36.4568 21.2301 36.6281 21.6354 36.9858 21.9635C37.3688 22.3061 37.7869 22.4701 38.2958 22.4701C38.8198 22.4701 39.2581 22.3061 39.6259 21.9635C39.9886 21.6354 40.17 21.2301 40.17 20.7331C40.17 20.2313 39.9887 19.8164 39.6309 19.4786C39.2631 19.136 38.8248 18.972 38.2958 18.972C37.7768 18.972 37.3436 19.1312 36.9858 19.4786ZM22.526 0V0.767179H25.2316V17.8285C25.2316 19.1698 25.1459 19.5172 24.9897 19.908C24.8235 20.3423 24.4456 20.6849 23.8863 20.9068C23.4682 21.0757 22.8384 21.1625 21.997 21.1867V21.8911H31.9173V21.1915C31.076 21.1722 30.4361 21.0805 30.0129 20.9358C29.4234 20.7138 29.0354 20.3809 28.849 19.937C28.6828 19.5558 28.6022 19.2132 28.6022 18.5426V12.6995L31.0558 12.6898C38.1849 12.6898 40.1902 9.99745 40.1902 6.32078C40.1852 2.60551 38.9558 0 31.736 0H22.526ZM28.5971 0.868504L30.3001 0.849204C35.7968 0.849204 36.9959 3.01564 36.9959 6.52343C36.9959 10.0553 34.8345 11.8551 30.4764 11.8551H28.5971V0.868504ZM65.9208 0.0530753C65.8402 0.255726 58.9377 16.7284 58.9377 16.7284L58.7815 16.8249L58.6152 16.7284C58.6152 16.7284 51.2593 0.255726 51.1737 0.0530753H44.6793V0.757529H47.4957V17.6982L47.4353 19.2422C47.3899 19.6475 47.2589 20.0142 47.0473 20.3037C46.8256 20.6173 46.4729 20.8586 46.0044 21.013C45.697 21.1095 45.2436 21.1722 44.6743 21.1867V21.8911H51.1182V21.1963C50.5691 21.177 50.3323 21.1239 50.0098 21.0178C49.5362 20.8682 49.1835 20.6463 48.9467 20.323C48.7351 20.0238 48.6041 19.6668 48.5537 19.2422L48.4832 17.6982V3.06389H48.8661C48.8661 3.06389 57.1944 21.6836 57.2851 21.8911H57.9804L65.8654 3.27136H66.0618V18.3592C66.0618 19.0058 65.9913 19.5027 65.8654 19.8887C65.7092 20.3423 65.3716 20.68 64.8879 20.9116C64.5252 21.066 63.976 21.1577 63.2505 21.1818V21.8863H72.2387V21.1818C71.5233 21.1481 70.9641 21.0564 70.5912 20.8923C70.0672 20.6511 69.7297 20.294 69.5836 19.8453C69.4526 19.4497 69.3921 18.972 69.3921 18.3544V0.772004L71.7802 0.747878V0.0530753H65.9208ZM73.856 14.2242C73.856 22.0166 80.1891 22.5329 81.5545 22.5329C84.26 22.5329 89.394 20.9165 89.394 14.0746C89.394 8.75259 86.1141 5.85758 81.6653 5.85758C76.8689 5.85758 73.856 8.90216 73.856 14.2242ZM77.4382 14.311C77.4382 10.036 77.7153 6.82741 81.5998 6.82741C85.7967 6.82741 85.8168 10.147 85.8168 14.0408C85.8168 19.6378 84.8193 21.5679 81.5998 21.5679C77.9975 21.563 77.4382 19.8405 77.4382 14.311ZM97.3897 9.37502L97.163 9.36537C97.1378 9.37502 96.7498 6.96251 96.6037 6.2484C95.4852 6.2484 91.0516 6.23875 91.0516 6.23875V7.05418H94.0544C94.0544 7.05418 94.0393 9.49564 94.0393 10.3786V17.8622C94.0393 18.9334 93.9133 19.6813 93.6765 20.1348C93.3692 20.6704 92.6789 20.9358 91.5403 20.9358H91.0566V21.8911H100.362V20.9358H99.8584C98.6392 20.9358 98.1101 20.68 97.7827 20.1734C97.4854 19.7247 97.3544 18.972 97.3544 17.8622V12.2507C97.3544 10.3593 98.8407 8.20254 100.624 8.20254C102.488 8.20254 102.443 10.9528 104.559 9.84787C105.708 9.24474 105.511 6.094 101.949 6.094C99.0775 6.094 98.1807 7.72003 97.3897 9.37502ZM126.445 7.06383C125.382 7.84066 124.969 8.55476 124.969 9.57767C124.969 10.0553 125.105 10.3883 125.382 10.615C125.664 10.8563 125.992 10.9624 126.395 10.9624C127.322 10.9624 127.841 10.5137 128.032 9.34607C128.173 8.48239 128.37 7.99024 128.813 7.53668C129.287 7.05901 130.033 6.82258 131.035 6.82258C132.204 6.82258 133.03 7.12173 133.494 7.72486C133.917 8.28939 134.144 9.06139 134.144 10.0119V12.6367C131.161 12.8925 124.123 13.4377 124.435 18.5715C124.551 20.5787 126.405 22.3447 128.793 22.3447C131.438 22.3447 133.111 20.902 134.244 19.7488C134.426 20.8441 135.484 22.1469 137.414 22.1469C139.58 22.1469 140.875 21.1288 141.026 18.586H140.467C140.321 19.6909 139.605 20.2892 139.021 20.2892C138.023 20.2892 137.706 19.7585 137.635 18.8755L137.575 16.8731V10.3159C137.575 8.90216 137.338 7.95164 136.466 7.11691C135.61 6.28218 133.947 5.85758 131.549 5.85758C129.241 5.85758 127.534 6.26288 126.445 7.06383ZM127.69 17.9684C127.69 15.0541 131.856 13.5969 134.144 13.5969V18.6342L134.088 18.7597L134.018 18.8224C132.421 20.2072 131.206 20.6993 130.315 20.6993C128.032 20.6993 127.69 18.8803 127.69 17.9684ZM147.576 9.07587L147.278 9.06622L146.694 6.22428L141.636 6.21463V7.03006C142.588 7.06866 144.17 7.08313 144.17 7.08313V17.8429C144.17 18.6777 144.104 19.2808 143.973 19.6813C143.837 20.1589 143.515 20.4919 143.036 20.68C142.729 20.8055 142.25 20.8779 141.636 20.902V21.8863H149.677V20.8923C148.865 20.8296 148.321 20.6221 148.029 20.2265C147.717 19.8019 147.571 19.0781 147.571 18.0118V13.8768C147.571 12.1494 147.561 10.4799 148.175 9.44257C148.84 8.31834 150.055 7.69591 151.42 7.69591C152.644 7.69591 153.289 8.07226 153.692 8.81531C154.02 9.41844 154.236 11.223 154.236 12.463L154.196 17.5872C154.196 18.4412 154.307 19.0733 154.236 19.4738C154.146 19.9466 153.924 20.3133 153.536 20.5594C153.254 20.7428 152.81 20.8393 152.246 20.8827V21.8815H160V20.8972C159.018 20.8344 158.378 20.6077 158.096 20.1686C157.778 19.7199 157.516 18.9672 157.516 17.8429L157.562 10.7501C157.562 9.72724 157.415 8.84909 157.017 8.13016C156.609 7.43053 156.04 6.89978 155.33 6.54755C154.609 6.20015 153.783 6.03128 152.871 6.03128C149.601 6.04093 148.291 7.95164 147.576 9.07587ZM121.679 5.2255C121.2 5.37025 120.883 5.78038 120.712 6.47035C120.586 7.10726 120.334 7.47396 119.996 7.58011C119.659 7.67661 119.286 7.64766 118.838 7.50291C118.006 6.75986 116.404 5.85758 113.593 5.85758C109.063 5.85758 107.063 8.95041 107.063 11.7682C107.063 15.0685 108.388 16.6656 111.3 17.2543C111.477 17.2881 111.477 17.4762 111.325 17.51C108.837 17.9925 106.635 18.6873 106.635 20.9502C106.635 22.3157 107.451 23.0636 108.499 23.4689C109.653 23.9176 111.28 24.1492 113.316 24.1878C115.099 24.2071 116.359 24.265 117.185 24.3615C118.077 24.458 118.777 24.7041 119.301 25.066C119.835 25.4616 120.117 26.0455 120.117 26.8126C120.117 27.8597 119.533 28.7041 118.369 29.3265C117.286 29.9055 115.799 30.2095 113.955 30.2095C112.373 30.2095 111.079 30.0454 109.91 29.3458C109.043 28.8343 108.877 27.8259 109.058 27.0973C109.22 26.3639 108.947 25.5871 108.056 25.4423C107.567 25.3651 106.952 25.6209 106.665 26.0455C106.398 26.4411 106.302 26.914 106.302 27.4737C106.302 29.3361 107.804 30.2095 108.952 30.5279C110.701 31.0394 111.865 31.16 113.472 31.16C115.603 31.16 117.336 30.8464 118.576 30.2481C119.815 29.6498 120.676 28.9164 121.14 28.072C121.624 27.2228 121.86 26.3591 121.86 25.5244C121.86 24.4001 121.604 23.4834 121.1 22.8079C119.482 20.6752 117.18 20.9502 112.011 20.7138C109.522 20.7138 109.043 20.2844 109.043 19.551C109.043 18.4798 109.965 18.0552 113.562 17.5245C117.104 16.9986 120.409 15.7489 120.409 11.609C120.409 10.4172 120.117 9.39432 119.765 8.68021C120.495 8.83461 121.18 8.83461 121.805 8.63679C122.521 8.42449 122.984 8.08191 123.251 7.60423C123.523 7.12173 123.579 6.66818 123.432 6.22428C123.196 5.50052 122.788 5.13865 122.203 5.13865C122.047 5.13865 121.871 5.1676 121.679 5.2255ZM110.348 11.7682C110.348 8.85874 111.406 6.69231 113.678 6.69231C116.318 6.69231 117.089 8.66574 117.089 11.7055C117.089 16.0577 115.658 16.627 113.678 16.627C111.562 16.6318 110.348 15.8936 110.348 11.7682Z" fill="#35210D"/>
</svg>
