<!-- Generated by IcoMoon.io -->
<svg version="1.1" xmlns="http://www.w3.org/2000/svg" viewBox="0 0 12 12">
<title>attach</title>
<path d="M8 9.692v-6.462c0-0.762-0.675-1.385-1.5-1.385s-1.5 0.623-1.5 1.385v5.769h1v-5.769c0-0.25 0.229-0.462 0.5-0.462s0.5 0.211 0.5 0.462v6.462c0 0.763-0.673 1.385-1.5 1.385s-1.5-0.621-1.5-1.385v-6.962c0-0.903 1.022-1.807 2-1.807h1c0.979 0 2 0.905 2 1.807v6.27h1v-6.27c0-1.502-1.331-2.73-2.958-2.73h-1.084c-1.627 0-2.958 1.229-2.958 2.73v6.962c0 1.269 1.125 2.308 2.5 2.308s2.5-1.038 2.5-2.308z"></path>
</svg>
