<!-- Generated by IcoMoon.io -->
<svg version="1.1" xmlns="http://www.w3.org/2000/svg" viewBox="0 0 12 12">
<title>chat-group</title>
<path d="M4.507 1c1.564 0 2.942 0.798 3.749 2.010 0.076-0.007 0.16-0.010 0.244-0.010 1.933 0 3.5 1.567 3.5 3.5 0 0.546-0.125 1.062-0.348 1.523l0.348 1.977-1.805-0.437c-0.502 0.278-1.080 0.437-1.695 0.437-0.696 0-1.345-0.203-1.89-0.554l0.028 0.018c-0.634 0.342-1.359 0.536-2.131 0.536-0.719 0-1.399-0.169-2.003-0.469l-0.222-0.119-2.282 0.609 0.402-2.675c-0.254-0.563-0.395-1.188-0.395-1.846 0-2.485 2.015-4.5 4.5-4.5zM8.5 3.8c-1.491 0-2.7 1.209-2.7 2.7s1.209 2.7 2.7 2.7c0.465 0 0.91-0.117 1.307-0.337l0.273-0.151 0.921 0.223-0.181-1.028 0.113-0.233c0.175-0.363 0.268-0.761 0.268-1.174 0-1.491-1.209-2.7-2.7-2.7zM4.507 2c-1.933 0-3.5 1.567-3.5 3.5 0 0.419 0.073 0.826 0.214 1.209l0.093 0.227 0.121 0.268-0.219 1.458 1.205-0.322 0.356 0.203c0.523 0.298 1.113 0.456 1.73 0.456 0.463 0 0.906-0.090 1.31-0.254l-0.033-0.037c-0.491-0.602-0.785-1.371-0.785-2.209 0-1.418 0.843-2.638 2.054-3.188l0.136-0.058c-0.642-0.766-1.606-1.253-2.683-1.253z"></path>
</svg>
