<!-- Generated by IcoMoon.io -->
<svg version="1.1" xmlns="http://www.w3.org/2000/svg" viewBox="0 0 12 12">
<title>chatting-solid</title>
<path d="M5.75 0c3.176 0 5.75 2.574 5.75 5.75 0 1.21-0.373 2.332-1.011 3.258l1.511 2.992-3.005-1.502c-0.924 0.632-2.041 1.002-3.245 1.002-3.176 0-5.75-2.574-5.75-5.75s2.574-5.75 5.75-5.75zM2.95 5c-0.525 0-0.95 0.425-0.95 0.95s0.425 0.95 0.95 0.95c0.525 0 0.95-0.425 0.95-0.95s-0.425-0.95-0.95-0.95zM5.7 5c-0.525 0-0.95 0.425-0.95 0.95s0.425 0.95 0.95 0.95c0.525 0 0.95-0.425 0.95-0.95s-0.425-0.95-0.95-0.95zM8.45 5c-0.525 0-0.95 0.425-0.95 0.95s0.425 0.95 0.95 0.95c0.525 0 0.95-0.425 0.95-0.95s-0.425-0.95-0.95-0.95z"></path>
</svg>
