<!-- Generated by IcoMoon.io -->
<svg version="1.1" xmlns="http://www.w3.org/2000/svg" viewBox="0 0 12 12">
<title>commentary</title>
<path d="M10 0c1.105 0 2 0.806 2 1.8v5.4c0 0.994-0.895 1.8-2 1.8h-4.005l-3.495 3.131v-3.131h-0.5c-1.105 0-2-0.806-2-1.8v-5.4c0-0.994 0.895-1.8 2-1.8h8zM10 0.9h-8c-0.552 0-1 0.403-1 0.9v5.4c0 0.497 0.448 0.9 1 0.9h0.5v-0.003h1v1.797l1.001-0.894h-0.052l1.016-0.859 0.050-0.044 0.003 0.003h4.482c0.552 0 1-0.403 1-0.9v-5.4c0-0.497-0.448-0.9-1-0.9zM7 6v1h-4v-1h4zM9 4v1h-6v-1h6zM9 2v1h-6v-1h6z"></path>
</svg>
