<!-- Generated by IcoMoon.io -->
<svg version="1.1" xmlns="http://www.w3.org/2000/svg" viewBox="0 0 12 12">
<title>csv</title>
<path d="M10 5h-4v-4h-5v5h-1v-6h8v1h-1v3h2v-2h1v3zM9 1v1h-1v-1h1z"></path>
<path d="M2.372 7.601c-0.469 0-0.839 0.166-1.107 0.499s-0.403 0.792-0.403 1.377c0 0.613 0.129 1.077 0.388 1.391s0.633 0.472 1.123 0.472c0.212 0 0.417-0.021 0.615-0.063s0.404-0.096 0.619-0.162v0.701c-0.392 0.148-0.836 0.222-1.333 0.222-0.731 0-1.293-0.222-1.685-0.665s-0.588-1.077-0.588-1.902c0-0.52 0.095-0.974 0.285-1.364s0.465-0.688 0.825-0.896c0.36-0.207 0.783-0.311 1.268-0.311 0.51 0 0.982 0.107 1.415 0.321l-0.294 0.68c-0.169-0.080-0.347-0.15-0.535-0.21s-0.386-0.091-0.593-0.091zM6.964 10.612c0 0.444-0.161 0.793-0.482 1.046s-0.764 0.379-1.33 0.379c-0.565 0-1.028-0.088-1.388-0.263v-0.772c0.228 0.107 0.47 0.191 0.726 0.253s0.495 0.092 0.716 0.092c0.324 0 0.562-0.062 0.716-0.185s0.231-0.288 0.231-0.496c0-0.187-0.071-0.345-0.212-0.475s-0.433-0.284-0.875-0.461c-0.456-0.185-0.777-0.395-0.964-0.632s-0.28-0.522-0.28-0.854c0-0.417 0.148-0.745 0.444-0.984s0.694-0.359 1.193-0.359c0.479 0 0.955 0.105 1.429 0.314l-0.26 0.667c-0.444-0.187-0.841-0.28-1.189-0.28-0.264 0-0.465 0.058-0.602 0.173s-0.205 0.267-0.205 0.456c0 0.13 0.027 0.241 0.082 0.333s0.145 0.179 0.27 0.261c0.125 0.082 0.351 0.19 0.677 0.325 0.367 0.153 0.636 0.295 0.807 0.427s0.296 0.281 0.376 0.448c0.080 0.166 0.12 0.362 0.12 0.588zM10.178 6.972h0.848l-1.75 4.997h-0.861l-1.743-4.997h0.841l1.042 3.107c0.055 0.148 0.113 0.339 0.174 0.573s0.101 0.407 0.12 0.521c0.030-0.173 0.075-0.374 0.137-0.602s0.112-0.396 0.15-0.506l1.042-3.093z"></path>
</svg>
