<!-- Generated by IcoMoon.io -->
<svg version="1.1" xmlns="http://www.w3.org/2000/svg" viewBox="0 0 12 12">
<title>cut</title>
<path d="M6.15 7.4c-0.276 0-0.5-0.224-0.5-0.5s0.224-0.5 0.5-0.5c0.276 0 0.5 0.224 0.5 0.5s-0.224 0.5-0.5 0.5zM2.7 11.2c-0.552 0-1-0.449-1-1s0.448-1 1-1c0.552 0 1 0.449 1 1s-0.448 1-1 1zM10.541 0l-4.445 5.583c0 0-0.32 0.472-0.96 1.417-0.274 0.5-0.78 1.384-1.007 1.777-0.199 0.345-0.297 0.408-0.407 0.309-0.014-0.016-0.029-0.031-0.044-0.046-0.036-0.043-0.081-0.084-0.135-0.123-0.266-0.216-0.597-0.345-0.956-0.345-0.877 0-1.589 0.767-1.589 1.714s0.711 1.714 1.589 1.714c0.718 0 1.325-0.514 1.521-1.22-0 0.001 0.379-1.11 0.928-1.914s0.962-0.861 0.962-0.861l0.998-0.85c0 0 3.317-4.039 3.695-4.914s0.492-1.714-0.151-2.241z"></path>
<path d="M5.92 5.345l-3.49-5.345c-0.603 0.59-0.497 1.531-0.142 2.511 0.265 0.733 1.875 3.057 2.675 4.287l0.957-1.452z"></path>
<path d="M9.419 11.141c-0.434 0-0.786-0.385-0.786-0.859s0.352-0.859 0.786-0.859c0.434 0 0.786 0.385 0.786 0.859s-0.352 0.859-0.786 0.859zM8.473 8.911c-0.053 0.039-0.098 0.080-0.13 0.12-0.018 0.019-0.033 0.034-0.047 0.050-0.109 0.099-0.206 0.035-0.403-0.31-0.225-0.393-0.479-0.916-0.75-1.417l-0.893 0.766c0.22 0.101 0.442 0.293 0.744 0.74 0.543 0.805 0.919 1.918 0.919 1.918 0.195 0.706 0.795 1.221 1.507 1.221 0.869 0 1.581-0.769 1.581-1.717s-0.712-1.717-1.581-1.717c-0.355 0-0.683 0.129-0.947 0.345z"></path>
</svg>
