<!-- Generated by IcoMoon.io -->
<svg version="1.1" xmlns="http://www.w3.org/2000/svg" viewBox="0 0 12 12">
<title>delete</title>
<path d="M7.8 10.595c-0.095 0.27-0.228 0.405-0.4 0.405l-3.8-0.006c-0.261 0-0.4-0.194-0.4-0.406l-1-7.588h6.6l-1 7.595zM4 1.424c0-0.233 0.201-0.424 0.444-0.424h2.112c0.246 0 0.444 0.19 0.444 0.424v0.576h-3v-0.576zM11 2h-3v-1.008c0-0.548-0.437-0.992-1-0.992h-3c-0.559 0-1 0.443-1 0.992v1.008h-3v1h1l1 8c0 0.548 0.437 1 1 1h5c0.563 0 1-0.452 1-1l1-8h1v-1z"></path>
<path d="M7 4v6h-1v-6h1zM4.977 4l0.023 5.997-1 0.003 0.010-5.99 0.967-0.010z"></path>
</svg>
