<!-- Generated by IcoMoon.io -->
<svg version="1.1" xmlns="http://www.w3.org/2000/svg" viewBox="0 0 12 12">
<title>error-secondary</title>
<path d="M0 3l3-3h6.005l2.995 3v6l-3 3h-6l-3-3v-6zM1 3.414v5.172l2.414 2.414h5.172l2.414-2.414v-5.172l-2.41-2.414h-5.176l-2.414 2.414z"></path>
<path d="M7 7h-2v-5h2z"></path>
<path d="M7 8.5c0 0.269-0.093 0.502-0.279 0.701s-0.422 0.299-0.708 0.299c-0.286 0-0.526-0.095-0.721-0.285s-0.292-0.428-0.292-0.715c0-0.287 0.097-0.525 0.292-0.715s0.435-0.285 0.721-0.285c0.286 0 0.522 0.1 0.708 0.299s0.279 0.433 0.279 0.701z"></path>
</svg>
