<!-- Generated by IcoMoon.io -->
<svg version="1.1" xmlns="http://www.w3.org/2000/svg" viewBox="0 0 12 12">
<title>flag</title>
<path d="M3.754 0c0.955 0 1.857 0.191 2.73 0.378 0.861 0.183 1.71 0.414 2.649 0.414 0.601 0 1.166-0.085 1.613-0.142 0.244-0.032 1.063-0.113 1.254-0.15v0 7c-0.191 0.032-1.006 0.154-1.25 0.182-0.447 0.053-0.975 0.134-1.572 0.134-1.003 0-1.93-0.199-2.823-0.39-0.882-0.191-1.71-0.528-2.596-0.528-1.223 0-1.515 0.179-1.758 0.28v0 4.822h-1v-11.447l0.138-0.098c0.065-0.045 0.711-0.455 2.616-0.455zM3.758 0.95c-1.219 0-1.515 0.198-1.758 0.3v0 5c0.406-0.122 0.714-0.25 1.758-0.25 0.955 0 1.853 0.313 2.726 0.5 0.861 0.183 1.577 0.4 2.516 0.4 0.601 0 1.553-0.093 2-0.15v0-5.15c-0.447 0.053-1.266 0.15-1.863 0.15-1.003 0-1.889-0.259-2.783-0.45-0.882-0.191-1.71-0.35-2.596-0.35z"></path>
</svg>
