<!-- Generated by IcoMoon.io -->
<svg version="1.1" xmlns="http://www.w3.org/2000/svg" viewBox="0 0 12 12">
<title>help</title>
<path d="M12 0v12h-12v-12h12zM5.7 8.18c-0.22 0-0.408 0.077-0.565 0.23s-0.235 0.337-0.235 0.55c0 0.107 0.022 0.207 0.065 0.3s0.102 0.173 0.175 0.24c0.073 0.067 0.158 0.12 0.255 0.16s0.198 0.060 0.305 0.060c0.22 0 0.408-0.077 0.565-0.23s0.235-0.337 0.235-0.55c0-0.213-0.080-0.393-0.24-0.54s-0.347-0.22-0.56-0.22zM5.81 2.4c-0.32 0-0.613 0.045-0.88 0.135s-0.502 0.222-0.705 0.395c-0.203 0.173-0.368 0.385-0.495 0.635s-0.21 0.535-0.25 0.855v0l1.28 0.1c0.027-0.273 0.13-0.505 0.31-0.695s0.41-0.285 0.69-0.285c0.26 0 0.475 0.082 0.645 0.245s0.255 0.375 0.255 0.635c0 0.267-0.083 0.483-0.25 0.65v0l-0.77 0.78c-0.1 0.107-0.185 0.198-0.255 0.275s-0.127 0.157-0.17 0.24c-0.043 0.083-0.073 0.177-0.090 0.28s-0.025 0.228-0.025 0.375v0 0.55h1.2v-0.38c0-0.127 0.010-0.235 0.030-0.325s0.052-0.17 0.095-0.24c0.043-0.070 0.098-0.138 0.165-0.205s0.147-0.143 0.24-0.23c0.147-0.14 0.285-0.273 0.415-0.4s0.245-0.26 0.345-0.4c0.1-0.14 0.18-0.293 0.24-0.46s0.090-0.36 0.090-0.58c0-0.313-0.053-0.592-0.16-0.835s-0.255-0.447-0.445-0.61c-0.19-0.163-0.413-0.288-0.67-0.375s-0.535-0.13-0.835-0.13z"></path>
</svg>
