<!-- Generated by IcoMoon.io -->
<svg version="1.1" xmlns="http://www.w3.org/2000/svg" viewBox="0 0 12 12">
<title>help-secondary</title>
<path d="M12 0v12h-12v-12h12zM11 1h-10v10h10v-10zM5.7 8.18c0.213 0 0.4 0.073 0.56 0.22s0.24 0.327 0.24 0.54c0 0.213-0.078 0.397-0.235 0.55s-0.345 0.23-0.565 0.23c-0.107 0-0.208-0.020-0.305-0.060s-0.182-0.093-0.255-0.16c-0.073-0.067-0.132-0.147-0.175-0.24s-0.065-0.193-0.065-0.3c0-0.213 0.078-0.397 0.235-0.55s0.345-0.23 0.565-0.23zM5.81 2.4c0.3 0 0.578 0.043 0.835 0.13s0.48 0.212 0.67 0.375c0.19 0.163 0.338 0.367 0.445 0.61s0.16 0.522 0.16 0.835c0 0.22-0.030 0.413-0.090 0.58s-0.14 0.32-0.24 0.46c-0.1 0.14-0.215 0.273-0.345 0.4s-0.268 0.26-0.415 0.4c-0.093 0.087-0.173 0.163-0.24 0.23s-0.122 0.135-0.165 0.205c-0.043 0.070-0.075 0.15-0.095 0.24s-0.030 0.198-0.030 0.325v0.38h-1.2v-0.55c0-0.147 0.008-0.272 0.025-0.375s0.047-0.197 0.090-0.28c0.043-0.083 0.1-0.163 0.17-0.24s0.155-0.168 0.255-0.275l0.77-0.78c0.167-0.167 0.25-0.383 0.25-0.65 0-0.26-0.085-0.472-0.255-0.635s-0.385-0.245-0.645-0.245c-0.28 0-0.51 0.095-0.69 0.285s-0.283 0.422-0.31 0.695l-1.28-0.1c0.040-0.32 0.123-0.605 0.25-0.855s0.292-0.462 0.495-0.635c0.203-0.173 0.438-0.305 0.705-0.395s0.56-0.135 0.88-0.135z"></path>
</svg>
