<!-- Generated by IcoMoon.io -->
<svg version="1.1" xmlns="http://www.w3.org/2000/svg" viewBox="0 0 12 12">
<title>line-chart</title>
<path d="M3.355 6.469c0.218 0.257 0.521 0.441 0.866 0.505l-1.671 2.454c-0.242-0.237-0.563-0.392-0.92-0.423l1.725-2.537zM5.711 6.385l1.349 1.68c-0.331 0.102-0.614 0.315-0.804 0.596l-1.374-1.711c0.338-0.089 0.629-0.292 0.829-0.566zM10.5 4l0.086-0.004-2.062 4.408c-0.244-0.228-0.564-0.375-0.917-0.4l2.009-4.292c0.248 0.181 0.554 0.288 0.884 0.288z"></path>
<path d="M1.5 9c0.828 0 1.5 0.672 1.5 1.5s-0.672 1.5-1.5 1.5c-0.828 0-1.5-0.672-1.5-1.5s0.672-1.5 1.5-1.5zM1.509 9.8c-0.391 0-0.709 0.318-0.709 0.708s0.318 0.71 0.709 0.71 0.709-0.318 0.709-0.71c0-0.391-0.318-0.708-0.709-0.708z"></path>
<path d="M4.5 4c0.828 0 1.5 0.672 1.5 1.5s-0.672 1.5-1.5 1.5c-0.828 0-1.5-0.672-1.5-1.5s0.672-1.5 1.5-1.5zM4.509 4.8c-0.391 0-0.709 0.318-0.709 0.708s0.318 0.71 0.709 0.71 0.709-0.318 0.709-0.71c0-0.391-0.318-0.708-0.709-0.708z"></path>
<path d="M7.5 8c0.828 0 1.5 0.672 1.5 1.5s-0.672 1.5-1.5 1.5c-0.828 0-1.5-0.672-1.5-1.5s0.672-1.5 1.5-1.5zM7.509 8.8c-0.391 0-0.709 0.318-0.709 0.708s0.318 0.71 0.709 0.71 0.709-0.318 0.709-0.71c0-0.391-0.318-0.708-0.709-0.708z"></path>
<path d="M10.5 1c0.828 0 1.5 0.672 1.5 1.5s-0.672 1.5-1.5 1.5c-0.828 0-1.5-0.672-1.5-1.5s0.672-1.5 1.5-1.5zM10.509 1.8c-0.391 0-0.709 0.318-0.709 0.708s0.318 0.71 0.709 0.71 0.709-0.318 0.709-0.71c0-0.391-0.318-0.708-0.709-0.708z"></path>
</svg>
