<!-- Generated by IcoMoon.io -->
<svg version="1.1" xmlns="http://www.w3.org/2000/svg" viewBox="0 0 12 12">
<title>loader</title>
<path d="M11.994 5.199c-0.037-0.233-0.083-0.463-0.142-0.691-0.075-0.289-0.171-0.576-0.289-0.852-0.238-0.568-0.565-1.098-0.962-1.57-0.429-0.506-0.946-0.943-1.519-1.278-0.565-0.332-1.181-0.568-1.824-0.699-0.332-0.067-0.667-0.107-1.007-0.11-0.265-0.003-0.53 0.008-0.793 0.032-0.683 0.067-1.358 0.257-1.98 0.549-0.533 0.252-1.029 0.579-1.468 0.97s-0.822 0.847-1.13 1.347c-0.34 0.557-0.595 1.165-0.734 1.803-0.113 0.509-0.166 1.034-0.139 1.556 0.024 0.506 0.102 1.013 0.254 1.497 0.096 0.308 0.212 0.608 0.356 0.9 0.142 0.287 0.308 0.563 0.493 0.822 0.37 0.517 0.82 0.975 1.334 1.353 0.525 0.388 1.117 0.688 1.739 0.887 0.648 0.206 1.337 0.303 2.017 0.279 0.664-0.021 1.323-0.15 1.945-0.388 0.597-0.23 1.157-0.56 1.647-0.972 0.246-0.209 0.466-0.445 0.672-0.694 0.209-0.252 0.396-0.517 0.552-0.804 0.134-0.246 0.246-0.504 0.343-0.763 0.048-0.129 0.094-0.257 0.131-0.391 0.040-0.142 0.070-0.289 0.096-0.434 0.040-0.228 0.056-0.463 0.035-0.694-0.019 0.102-0.035 0.201-0.059 0.3-0.029 0.115-0.067 0.228-0.11 0.338-0.086 0.233-0.193 0.458-0.295 0.683-0.131 0.287-0.284 0.56-0.45 0.825-0.086 0.137-0.174 0.271-0.271 0.399s-0.206 0.252-0.316 0.372-0.458 0.461-0.723 0.654c-0.271 0.198-0.557 0.372-0.86 0.517-0.605 0.295-1.267 0.471-1.937 0.53-0.686 0.059-1.385-0.008-2.044-0.204-0.627-0.185-1.222-0.485-1.744-0.879-0.506-0.383-0.946-0.855-1.291-1.388-0.362-0.544-0.611-1.157-0.747-1.797-0.035-0.166-0.062-0.338-0.080-0.506-0.016-0.145-0.029-0.292-0.035-0.439-0.008-0.303 0.011-0.616 0.056-0.916 0.099-0.659 0.313-1.294 0.646-1.872 0.295-0.517 0.678-0.983 1.128-1.377 0.45-0.396 0.964-0.715 1.522-0.94 0.321-0.131 0.659-0.228 1.002-0.292 0.174-0.032 0.348-0.059 0.522-0.072 0.086-0.008 0.169-0.008 0.254-0.016 0.035 0 0.070 0.003 0.104 0.003 0.581-0.011 1.165 0.064 1.72 0.238 0.597 0.188 1.16 0.49 1.647 0.884 0.512 0.413 0.938 0.922 1.259 1.495 0.273 0.488 0.469 1.013 0.587 1.559 0.027 0.126 0.048 0.252 0.070 0.378 0.019 0.115 0.083 0.222 0.182 0.287 0.209 0.139 0.501 0.046 0.603-0.179 0.035-0.078 0.046-0.161 0.032-0.238z"></path>
</svg>
