<!-- Generated by IcoMoon.io -->
<svg version="1.1" xmlns="http://www.w3.org/2000/svg" viewBox="0 0 12 12">
<title>pdf</title>
<path d="M10 5h-4v-4h-5v5h-1v-6h8v1h-1v3h2v-2h1v3zM9 1v1h-1v-1h1z"></path>
<path d="M3.309 8.511c0 0.522-0.171 0.922-0.513 1.2s-0.828 0.417-1.459 0.417h-0.52v1.87h-0.817v-4.997h1.439c0.624 0 1.092 0.128 1.403 0.383s0.467 0.631 0.467 1.128zM0.817 9.44h0.434c0.419 0 0.727-0.073 0.923-0.219s0.294-0.374 0.294-0.684c0-0.287-0.088-0.501-0.263-0.643s-0.449-0.212-0.82-0.212h-0.567v1.757zM7.771 9.451c0 0.825-0.229 1.455-0.687 1.892s-1.118 0.655-1.979 0.655h-1.398v-4.997h1.545c0.795 0 1.414 0.214 1.856 0.643s0.663 1.031 0.663 1.808zM6.909 9.478c0-1.196-0.559-1.794-1.678-1.794h-0.708v3.626h0.581c1.203 0 1.805-0.611 1.805-1.832zM9.054 11.997h-0.81v-4.997h2.82v0.69h-2.010v1.562h1.883v0.694h-1.883v2.051z"></path>
</svg>
