<!-- Generated by IcoMoon.io -->
<svg version="1.1" xmlns="http://www.w3.org/2000/svg" viewBox="0 0 12 12">
<title>settings-solid</title>
<path d="M3.528 5.997c0-1.378 1.116-2.5 2.5-2.5s2.5 1.122 2.5 2.5c0 1.378-1.116 2.5-2.5 2.5s-2.5-1.122-2.5-2.5zM12 4.562c-0.153-0.64-0.405-1.241-0.739-1.786-0.199 0.089-0.413 0.133-0.628 0.133-0.394 0-0.789-0.15-1.090-0.451-0.464-0.464-0.57-1.151-0.318-1.718-0.545-0.335-1.146-0.587-1.785-0.74-0.222 0.579-0.783 0.99-1.44 0.99s-1.218-0.411-1.44-0.99c-0.64 0.153-1.24 0.405-1.785 0.74 0.252 0.566 0.146 1.253-0.318 1.718-0.301 0.301-0.695 0.451-1.090 0.451-0.214 0-0.428-0.044-0.628-0.133-0.335 0.545-0.587 1.146-0.74 1.786 0.578 0.222 0.989 0.783 0.989 1.439s-0.41 1.217-0.988 1.439c0.153 0.64 0.406 1.24 0.74 1.785 0.199-0.088 0.412-0.132 0.626-0.132 0.394 0 0.789 0.15 1.090 0.451 0.464 0.464 0.57 1.149 0.319 1.715 0.545 0.335 1.146 0.587 1.785 0.74 0.223-0.578 0.783-0.987 1.439-0.987s1.216 0.41 1.439 0.987c0.64-0.153 1.24-0.405 1.785-0.74-0.251-0.566-0.145-1.251 0.319-1.715 0.301-0.301 0.695-0.451 1.090-0.451 0.214 0 0.427 0.044 0.626 0.132 0.335-0.545 0.587-1.146 0.74-1.785-0.578-0.222-0.988-0.783-0.988-1.439s0.411-1.217 0.989-1.439z"></path>
</svg>
