<!-- Generated by IcoMoon.io -->
<svg version="1.1" xmlns="http://www.w3.org/2000/svg" viewBox="0 0 12 12">
<title>settings</title>
<path d="M6 0.99c-0.657 0-1.218-0.411-1.44-0.99-0.64 0.153-1.24 0.405-1.785 0.74 0.252 0.566 0.146 1.253-0.318 1.718-0.301 0.301-0.695 0.451-1.090 0.451-0.214 0-0.428-0.044-0.628-0.133-0.335 0.545-0.587 1.146-0.74 1.786 0.578 0.222 0.989 0.783 0.989 1.439s-0.41 1.217-0.988 1.439c0.153 0.64 0.406 1.24 0.74 1.785 0.199-0.088 0.412-0.132 0.626-0.132 0.394 0 0.789 0.15 1.090 0.451 0.464 0.464 0.57 1.149 0.319 1.715 0.545 0.335 1.146 0.587 1.785 0.74 0.223-0.578 0.783-0.987 1.439-0.987s1.216 0.41 1.439 0.987c0.64-0.153 1.24-0.405 1.785-0.74-0.251-0.566-0.145-1.251 0.319-1.715 0.301-0.301 0.695-0.451 1.090-0.451 0.214 0 0.427 0.044 0.626 0.132 0.335-0.545 0.587-1.146 0.74-1.785-0.578-0.222-0.988-0.783-0.988-1.439s0.411-1.217 0.989-1.439c-0.153-0.64-0.405-1.241-0.739-1.786-0.199 0.089-0.413 0.133-0.628 0.133-0.394 0-0.789-0.15-1.090-0.451-0.464-0.464-0.57-1.151-0.318-1.718-0.545-0.335-1.146-0.587-1.785-0.74-0.222 0.579-0.783 0.99-1.44 0.99zM4.858 1.504c0.351 0.231 0.778 0.301 1.247 0.301s0.814-0.167 1.153-0.399c0.425-0.291 0.524-0.484 0.524-0.484s0.547 0.231 0.547 0.231c0 0-0.046 0.252 0 0.721 0.041 0.418 0.263 0.798 0.616 1.165 0.378 0.393 0.587 0.432 1.097 0.553 0.585 0.139 0.857 0.066 0.857 0.066-0.030 0 0.2 0.593 0.2 0.593s-0.213 0.152-0.465 0.488c-0.252 0.336-0.409 0.687-0.409 1.263s0.111 0.799 0.33 1.157c0.302 0.495 0.571 0.674 0.571 0.674-0.030 0.048-0.257 0.536-0.257 0.536-0.031-0.021-0.336-0.054-0.827 0-0.523 0.057-0.744 0.221-1.097 0.542-0.413 0.374-0.489 0.655-0.573 1.099-0.099 0.522-0.043 0.854-0.043 0.854-0.607 0.24-0.607 0.24-0.607 0.24 0 0.042-0.265-0.319-0.589-0.53-0.351-0.229-0.576-0.357-1.133-0.357s-0.703 0.043-1.142 0.295c-0.439 0.252-0.603 0.549-0.603 0.549-0.613-0.197 0.026 0-0.587-0.197 0 0 0.027-0.315-0.065-0.749-0.115-0.543-0.197-0.729-0.591-1.137-0.338-0.351-0.599-0.499-1.082-0.588-0.506-0.093-0.835-0.093-0.835-0.093s-0.199-0.505-0.199-0.505c0 0 0.177-0.098 0.528-0.564 0.253-0.335 0.362-0.667 0.362-1.225s-0.090-0.827-0.273-1.143c-0.275-0.475-0.617-0.637-0.617-0.637s0.199-0.519 0.199-0.519c0 0 0.231 0.051 0.746 0 0.577-0.057 0.784-0.232 1.227-0.621 0.435-0.382 0.478-0.554 0.574-0.963 0.111-0.471 0.053-0.882 0.053-0.882s0.56-0.239 0.56-0.239c0 0 0.195 0.239 0.603 0.507z"></path>
<path d="M6.028 8.074c-1.15 0-2.077-0.932-2.077-2.077s0.927-2.077 2.077-2.077c1.15 0 2.077 0.932 2.077 2.077s-0.927 2.077-2.077 2.077zM6 2.997c-0.803 0-1.556 0.313-2.122 0.878s-0.878 1.319-0.878 2.122c0 0.803 0.313 1.553 0.878 2.122 0.566 0.566 1.322 0.878 2.122 0.878 0.803 0 1.556-0.313 2.122-0.878s0.878-1.319 0.878-2.122c0-0.803-0.313-1.553-0.878-2.122-0.566-0.566-1.319-0.878-2.122-0.878z"></path>
</svg>
