<!-- Generated by IcoMoon.io -->
<svg version="1.1" xmlns="http://www.w3.org/2000/svg" viewBox="0 0 12 12">
<title>thumbs-up</title>
<path d="M0 5h2c0 0.267 0 0.6 0 1v5c0 0.4 0 0.733 0 1h-2v-7z"></path>
<path d="M5.5 0c0.847 0 1.428 0.62 1.494 1.36l0.006 0.14v2.5h4c0.557 0 0.942 0.345 0.994 0.875l0.006 0.125-0.007 0.425c-0.053 1.556-0.397 3.089-1.013 4.519l-0.175 0.387-0.504 1.068c-0.178 0.356-0.435 0.553-0.77 0.593l-0.13 0.007h-5.4c-0.557 0-0.942-0.345-0.994-0.875l-0.006-0.125v-6l1-2v-2c0-0.557 0.345-0.942 0.875-0.994l0.125-0.006h0.5zM6 5v-3.5c0-0.261-0.156-0.453-0.403-0.493l-0.097-0.007h-0.5v2.236l-1 1.999v5.765l5.386-0.001 0.009-0.026 0.504-1.068c0.607-1.286 0.97-2.673 1.070-4.076l0.022-0.421 0.007-0.408h-5z"></path>
</svg>
