<!-- Generated by IcoMoon.io -->
<svg version="1.1" xmlns="http://www.w3.org/2000/svg" viewBox="0 0 12 12">
<title>thumbs-down</title>
<path d="M12 7h-2c0-0.267 0-0.6 0-1v-5c0-0.4 0-0.733 0-1h2v7z"></path>
<path d="M6.5 12c-0.847 0-1.428-0.62-1.494-1.36l-0.006-0.14v-2.5h-4c-0.557 0-0.942-0.345-0.994-0.875l-0.006-0.125 0.007-0.425c0.053-1.556 0.397-3.089 1.013-4.519l0.175-0.387 0.504-1.068c0.178-0.356 0.435-0.553 0.77-0.593l0.13-0.007h5.4c0.557 0 0.942 0.345 0.994 0.875l0.006 0.125v6l-1 2v2c0 0.557-0.345 0.942-0.875 0.994l-0.125 0.006h-0.5zM6 7v3.5c0 0.261 0.156 0.453 0.403 0.493l0.097 0.007h0.5v-2.236l1-1.999v-5.765l-5.386 0.001-0.009 0.026-0.504 1.068c-0.607 1.286-0.97 2.673-1.070 4.076l-0.022 0.421-0.007 0.408h5z"></path>
</svg>
