<!-- Generated by IcoMoon.io -->
<svg version="1.1" xmlns="http://www.w3.org/2000/svg" viewBox="0 0 12 12">
<title>unlocked</title>
<path d="M0 4h12v8h-12v-8zM1 5v6h10v-6h-10z"></path>
<path d="M8 0c1.105 0 2 0.895 2 2h-1c0-0.552-0.448-1-1-1h-4c-0.513 0-0.936 0.386-0.993 0.883l-0.007 0.117v3h-1v-3c0-1.054 0.816-1.918 1.851-1.995l0.149-0.005h4z"></path>
<path d="M7.5 7.5c0 0.828-0.672 1.5-1.5 1.5s-1.5-0.672-1.5-1.5c0-0.828 0.672-1.5 1.5-1.5s1.5 0.672 1.5 1.5z"></path>
<path d="M5.5 8h1v2h-1v-2z"></path>
</svg>
