<!-- Generated by IcoMoon.io -->
<svg version="1.1" xmlns="http://www.w3.org/2000/svg" viewBox="0 0 12 12">
<title>user</title>
<path d="M12 11v1h-12v-1c0-0.744 0.406-1.393 1.009-1.737l-0.007-0.011c0.261-0.161 0.562-0.27 1.082-0.419 0.077-0.022 0.18-0.051 0.361-0.102 0.143-0.041 0.253-0.073 0.36-0.105 1.099-0.338 1.61-0.717 1.689-1.422-0.893-0.989-1.493-2.726-1.493-4.203 0-2.209 1.343-3 3-3s3 0.791 3 3c0 1.522-0.638 3.321-1.577 4.292 0.111 0.648 0.624 1.009 1.676 1.333 0.106 0.033 0.217 0.065 0.36 0.105 0.181 0.051 0.284 0.080 0.361 0.102 0.321 0.092 0.558 0.169 0.754 0.251 0.825 0.247 1.426 1.011 1.426 1.916zM11 11c0-0.445-0.293-0.833-0.713-0.958l-0.103-0.037c-0.141-0.060-0.334-0.124-0.639-0.211-0.063-0.018-0.124-0.035-0.358-0.101-0.155-0.044-0.27-0.078-0.381-0.112-1.413-0.435-2.181-1.029-2.368-2.12l-0.085-0.499 0.352-0.364c0.736-0.761 1.296-2.3 1.296-3.597 0-1.434-0.649-2-2-2s-2 0.566-2 2c0 1.255 0.525 2.746 1.236 3.533l0.301 0.334-0.050 0.447c-0.13 1.173-0.912 1.813-2.389 2.267-0.111 0.034-0.227 0.068-0.383 0.112-0.233 0.065-0.293 0.083-0.357 0.101-0.287 0.082-0.477 0.144-0.617 0.202l-0.237 0.135c-0.31 0.177-0.505 0.506-0.505 0.869h10z"></path>
</svg>
