<!-- Generated by IcoMoon.io -->
<svg version="1.1" xmlns="http://www.w3.org/2000/svg" viewBox="0 0 12 12">
<title>user-group-solid</title>
<path d="M8.514 12h-3.514v-0.455c0-0.6 0.264-1.137 0.682-1.504l-0.090-0.131c0.174-0.131 0.451-0.299 0.798-0.421 0.051-0.018 0.12-0.042 0.241-0.083 0.095-0.033 0.169-0.060 0.24-0.086 0.213-0.080 0.393-0.163 0.542-0.255 0.871 0.389 1.103 0.947 1.103 2.935zM9 3c1.105 0 2 0.566 2 2.148 0 1.090-0.425 2.377-1.051 3.072 0.069 0.536 0.411 0.834 1.117 1.1 0.071 0.027 0.144 0.053 0.24 0.086 0.121 0.042 0.19 0.065 0.241 0.083 0.188 0.066 0.334 0.123 0.455 0.182l-0.002 2.328h-3c0-2.035-0.288-2.822-1.182-3.308 0.102-0.15 0.159-0.326 0.178-0.536-0.596-0.708-0.996-1.951-0.996-3.008 0-1.582 0.895-2.148 2-2.148z"></path>
<path d="M4 1c1.381 0 2.5 0.692 2.5 2.625 0 1.333-0.532 2.907-1.315 3.757 0.088 0.654 0.516 1.017 1.398 1.343 0.089 0.033 0.18 0.065 0.3 0.105 0.151 0.051 0.237 0.080 0.301 0.102 0.189 0.065 0.342 0.122 0.474 0.179 0.782 0.272 1.343 1.015 1.343 1.889v1h-9l-0-2.732c0.053-0.030 0.107-0.059 0.162-0.084 0.165-0.090 0.359-0.177 0.575-0.251 0.064-0.022 0.15-0.051 0.301-0.102 0.119-0.041 0.211-0.073 0.3-0.105 0.917-0.339 1.343-0.718 1.408-1.425-0.745-0.865-1.245-2.384-1.245-3.675 0-1.933 1.119-2.625 2.5-2.625z"></path>
</svg>
