<!-- Generated by IcoMoon.io -->
<svg version="1.1" xmlns="http://www.w3.org/2000/svg" viewBox="0 0 12 12">
<title>user-group</title>
<path d="M9.37 11.199l2.63 0.001v0.8h-2.609c0-0.293-0.007-0.559-0.021-0.801zM4 1c1.381 0 2.5 0.692 2.5 2.625 0 1.333-0.532 2.908-1.315 3.757 0.077 0.561 0.402 0.908 1.048 1.2l0.071 0.031c0.211 0.108 0.423 0.198 0.661 0.288 0.142 0.053 0.628 0.222 0.567 0.201 1.081 0.384 1.358 0.844 1.358 2.897l-8.891-0.001v-0.999h8c0-0.431-0.275-0.809-0.675-0.946l-0.045-0.017-0.171-0.066-1.010-0.364-0.008-0.001-0.065-0.025c-1.092-0.446-1.695-1.061-1.832-2.064l-0.064-0.467 0.319-0.346c0.592-0.642 1.051-1.966 1.051-3.079 0-1.193-0.471-1.625-1.5-1.625s-1.5 0.432-1.5 1.625c0 1.078 0.43 2.36 1.003 3.026l0.277 0.322-0.039 0.422c-0.105 1.131-0.783 1.798-2.057 2.268-0.095 0.035-0.193 0.070-0.326 0.115-0.194 0.065-0.194 0.065-0.296 0.1-0.156 0.054-0.306 0.12-0.49 0.218-0.046 0.022-0.090 0.047-0.143 0.084l-0.066 0.050c-0.195 0.161-0.322 0.389-0.354 0.642l-0.008 0.126 0-1.731c0.046-0.027 0.093-0.051 0.141-0.074 0.171-0.093 0.372-0.184 0.595-0.261 0.064-0.022 0.15-0.051 0.301-0.102 0.119-0.041 0.211-0.073 0.3-0.105 0.916-0.338 1.342-0.717 1.407-1.422-0.744-0.866-1.245-2.385-1.245-3.678 0-1.933 1.119-2.625 2.5-2.625zM9.091 3c1.13 0 2.045 0.566 2.045 2.148 0 1.091-0.435 2.379-1.076 3.074 0.073 0.535 0.423 0.832 1.144 1.099 0.072 0.027 0.148 0.053 0.245 0.086 0.123 0.042 0.194 0.065 0.246 0.083 0.116 0.040 0.216 0.076 0.305 0.112l0.001 1.067c-0.032-0.030-0.067-0.059-0.103-0.086l-0.44-0.328-0.023-0.008c-0.084-0.028-0.084-0.028-0.244-0.082-0.107-0.036-0.187-0.065-0.265-0.093-0.996-0.368-1.542-0.877-1.66-1.741l-0.051-0.373 0.256-0.277c0.487-0.529 0.864-1.616 0.864-2.532 0-0.987-0.394-1.348-1.245-1.348s-1.245 0.361-1.245 1.348c0 0.886 0.354 1.939 0.825 2.487l0.221 0.257-0.031 0.338c-0.031 0.333-0.123 0.616-0.277 0.86-0.193-0.157-0.426-0.282-0.706-0.393 0.107-0.151 0.167-0.328 0.187-0.541-0.609-0.708-1.018-1.952-1.018-3.009 0-1.582 0.916-2.148 2.045-2.148z"></path>
</svg>
