<!-- Generated by IcoMoon.io -->
<svg version="1.1" xmlns="http://www.w3.org/2000/svg" viewBox="0 0 12 12">
<title>visible</title>
<path d="M6 2c2.6 0 4.556 2.21 5.972 3.966v0l0.028 0.037-0.172 0.185c-0.659 0.72-1.425 1.756-2.39 2.458-1.134 0.824-2.297 1.354-3.438 1.354-2.581 0-4.069-1.912-5.791-3.809v0l-0.209-0.232 0.031-0.034c1.206-1.338 1.962-2.297 2.818-2.875 1.016-0.683 2.1-1.050 3.15-1.050zM5.994 3.054c-1.937 0-2.871 0.918-4.718 2.939 0.747 0.829 1.062 1.241 1.922 1.854 0.938 0.67 1.727 1.128 2.796 1.128 2.347 0 3.52-1.672 4.717-2.982-0.822-0.995-1.113-1.282-1.86-1.81-1.009-0.714-1.823-1.129-2.857-1.129zM5.95 3.7c1.24 0 2.25 1.010 2.25 2.25s-1.010 2.25-2.25 2.25c-1.24 0-2.25-1.010-2.25-2.25s1.010-2.25 2.25-2.25zM5.949 4.6c-0.743 0-1.349 0.606-1.349 1.35s0.606 1.35 1.349 1.35c0.743 0 1.351-0.606 1.351-1.35s-0.608-1.35-1.351-1.35z"></path>
</svg>
