<svg width="103" height="36" viewBox="0 0 103 36" fill="none" xmlns="http://www.w3.org/2000/svg">
<path d="M4.3001 8.78174H10.3282V9.27972H8.33627V18.7215C8.33627 22.2672 6.5983 23.3354 3.34148 23.3354C0.610032 23.3354 0 22.312 0 20.9774C0 20.6861 0.126986 19.6976 1.12296 19.6976C2.11893 19.6976 2.17869 20.345 2.17869 21.4057C2.17869 21.8514 2.37041 22.7129 3.53819 22.7129C5.39069 22.7129 6.22482 21.8912 6.22482 18.978V9.27972H4.3001V8.78174Z" fill="white"/>
<path d="M10.6719 21.1623C10.8161 21.1063 10.9701 21.0801 11.1247 21.0854C11.2804 21.0798 11.4357 21.1058 11.5811 21.1619C11.7265 21.2179 11.8591 21.3028 11.9709 21.4114C12.0822 21.5152 12.1704 21.6414 12.2296 21.7816C12.2888 21.9219 12.3176 22.073 12.3143 22.2252C12.3181 22.3749 12.2893 22.5236 12.23 22.6611C12.1707 22.7986 12.0823 22.9216 11.9709 23.0216C11.8585 23.1296 11.7259 23.2145 11.5807 23.2713C11.4355 23.3281 11.2806 23.3557 11.1247 23.3526C10.9703 23.3559 10.8168 23.3283 10.6732 23.2715C10.5296 23.2146 10.3988 23.1297 10.2885 23.0216C10.176 22.9222 10.0866 22.7994 10.0264 22.6619C9.96624 22.5243 9.93678 22.3753 9.94007 22.2252C9.93737 22.0729 9.96677 21.9217 10.0264 21.7815C10.086 21.6413 10.1744 21.5152 10.286 21.4114C10.3964 21.3031 10.5277 21.2184 10.6719 21.1623Z" fill="white"/>
<path d="M24.4817 21.0853C24.3292 21.082 24.1776 21.1091 24.0357 21.1651C23.8939 21.2211 23.7646 21.3048 23.6555 21.4113C23.5454 21.5158 23.4584 21.6422 23.4001 21.7824C23.3418 21.9225 23.3135 22.0733 23.317 22.2251C23.3124 22.3744 23.3404 22.523 23.3988 22.6604C23.4572 22.7979 23.5448 22.9211 23.6555 23.0215C23.8853 23.2335 24.1865 23.3512 24.4991 23.3512C24.8118 23.3512 25.113 23.2335 25.3428 23.0215C25.4549 22.9219 25.544 22.7991 25.6038 22.6615C25.6635 22.524 25.6925 22.375 25.6887 22.2251C25.6921 22.0729 25.6632 21.9217 25.604 21.7815C25.5448 21.6412 25.4567 21.5151 25.3453 21.4113C25.2308 21.3014 25.0953 21.2159 24.9469 21.1599C24.7984 21.1039 24.6402 21.0785 24.4817 21.0853Z" fill="white"/>
<path fill-rule="evenodd" clip-rule="evenodd" d="M14.4026 8.78225H20.2919C24.9012 8.78225 25.6881 10.498 25.6881 12.8861C25.6881 15.2741 24.4081 17.0173 19.8511 17.0173H18.2823V20.8048C18.2666 21.1151 18.3211 21.4249 18.4417 21.7113C18.5136 21.8657 18.6173 22.0032 18.7461 22.1147C18.8748 22.2263 19.0256 22.3094 19.1887 22.3587C19.5835 22.473 19.9929 22.5292 20.4039 22.5255V22.9788H14.0764V22.5206C14.4863 22.5278 14.8945 22.4664 15.2841 22.3388C15.4407 22.2862 15.5845 22.2014 15.7063 22.0899C15.8281 21.9784 15.9252 21.8426 15.9913 21.6913C16.0909 21.4398 16.1457 21.2157 16.1457 20.3442V9.28029H14.4026V8.78225ZM18.2848 16.4694H19.4875C22.2741 16.4694 23.6561 15.2941 23.6561 13.0106C23.6561 10.7271 22.8891 9.33258 19.373 9.33258L18.2848 9.34752V16.4694Z" fill="white"/>
<path d="M44.4744 21.6528C44.3826 21.3393 44.3414 21.0132 44.3524 20.6867V9.28283C44.3524 9.28283 45.8961 9.28283 45.8787 9.26789C45.87 9.11779 45.87 8.96731 45.8787 8.81721H42.1438C42.0915 8.94669 37.6794 19.6285 37.6794 19.6285C37.67 19.648 37.6554 19.6644 37.6371 19.676C37.6188 19.6875 37.5977 19.6936 37.576 19.6936C37.5544 19.6936 37.5332 19.6875 37.515 19.676C37.4967 19.6644 37.482 19.648 37.4727 19.6285C37.4727 19.6285 32.7717 8.94669 32.7169 8.81721H28.5638V9.27287H30.364V20.2584L30.3241 21.2544C30.3008 21.5001 30.2151 21.7358 30.0751 21.9391C29.9098 22.1617 29.6764 22.3243 29.4103 22.4022C29.1334 22.4765 28.848 22.5141 28.5613 22.5143V22.9699H32.6771V22.5243C32.4368 22.5239 32.1981 22.4853 31.97 22.4097C31.7002 22.338 31.4613 22.1796 31.2902 21.959C31.1505 21.7501 31.0649 21.5096 31.0412 21.2594L30.9939 20.2634V10.7718H31.2429C31.2429 10.7718 36.5664 22.843 36.6212 22.9724H37.0668L42.104 10.9013H42.2334V20.6867C42.2438 21.0235 42.2001 21.3597 42.104 21.6827C42.0506 21.8299 41.9676 21.9647 41.8601 22.0786C41.7526 22.1925 41.6229 22.2832 41.479 22.345C41.1424 22.464 40.7877 22.5238 40.4307 22.5218V22.9774H46.1775V22.5193C45.8176 22.517 45.4606 22.4539 45.1218 22.3325C44.972 22.2712 44.837 22.179 44.7254 22.0619C44.6138 21.9447 44.5283 21.8053 44.4744 21.6528Z" fill="white"/>
<path fill-rule="evenodd" clip-rule="evenodd" d="M47.2217 18.0052C47.2217 14.5566 49.1364 12.5821 52.2016 12.5821C55.0451 12.5821 57.1441 14.462 57.1516 17.9156C57.1516 22.3452 53.8848 23.3935 52.1418 23.3935C51.2678 23.3935 47.2217 23.0598 47.2217 18.0052ZM49.5 18.06C49.5 21.6455 49.8585 22.766 52.1617 22.766C54.2209 22.766 54.8583 21.5136 54.8583 17.8857C54.8583 15.3609 54.8434 13.2096 52.1617 13.2096C49.6793 13.2096 49.5 15.2887 49.5 18.06Z" fill="white"/>
<path d="M65.1632 12.7365C63.331 12.7365 62.7584 13.7895 62.2531 14.86C62.205 14.8573 62.1568 14.8573 62.1087 14.86C62.1015 14.86 62.0401 14.4957 61.968 14.0674C61.891 13.6097 61.8016 13.0789 61.7527 12.8411H58.2028V13.3713H60.1246C60.1246 13.3713 60.1122 14.9546 60.1122 15.5247V20.3641C60.145 20.8667 60.0651 21.3702 59.8782 21.8378C59.6815 22.1814 59.2409 22.3556 58.5115 22.3556H58.2028V22.973H64.15V22.3556H63.8289C63.0497 22.3556 62.7111 22.1913 62.502 21.8578C62.3128 21.569 62.2282 21.0786 62.2282 20.3641V16.7246C62.2282 15.4998 63.1792 14.1032 64.3193 14.1032C64.8425 14.1032 65.1304 14.4464 65.4027 14.771C65.7511 15.1862 66.0739 15.571 66.8311 15.1687C67.5655 14.7778 67.4435 12.7365 65.1632 12.7365Z" fill="white"/>
<path fill-rule="evenodd" clip-rule="evenodd" d="M87.9773 21.0149C88.0246 21.5876 88.2263 21.9312 88.8636 21.9312C89.2371 21.9312 89.6952 21.5527 89.7898 20.8357H90.1459C90.0488 22.4839 89.2222 23.1437 87.8378 23.1437C86.6054 23.1437 85.9282 22.2972 85.8112 21.5876C85.0842 22.337 84.0135 23.2707 82.3255 23.2707C80.7968 23.2707 79.6141 22.1279 79.5394 20.8232C79.3402 17.5349 83.7279 17.1523 85.6731 16.9827L85.7439 16.9765V15.2885C85.7724 14.7584 85.6263 14.2337 85.3281 13.7946C85.0343 13.4037 84.5065 13.2095 83.7596 13.2095C83.1197 13.2095 82.6442 13.3639 82.3404 13.6726C82.0468 13.996 81.8713 14.4094 81.8425 14.8453C81.7205 15.5997 81.3868 15.891 80.7967 15.891C80.5605 15.9003 80.3294 15.8203 80.1494 15.6669C80.0557 15.5834 79.983 15.4791 79.9372 15.3623C79.8913 15.2455 79.8736 15.1196 79.8855 14.9947C79.8855 14.3299 80.132 13.8817 80.8266 13.3639C81.5213 12.846 82.6168 12.5796 84.0882 12.5796C85.6219 12.5796 86.6726 12.8584 87.2303 13.3987C87.788 13.939 87.9399 14.5565 87.9399 15.4727V19.7153L87.9773 21.0149ZM85.7404 20.9029C85.7466 20.8888 85.7487 20.8733 85.7464 20.8581V17.594C84.2874 17.594 81.6234 18.5376 81.6234 20.4274C81.6234 21.0174 81.8425 22.1976 83.299 22.1976C83.8691 22.1976 84.6459 21.8764 85.6668 20.9776L85.7116 20.9378C85.7243 20.9291 85.7342 20.917 85.7404 20.9029Z" fill="white"/>
<path d="M101.061 21.8674C100.789 21.4133 100.659 20.8873 100.69 20.3584L100.715 15.7619C100.745 15.1749 100.626 14.5898 100.369 14.0612C100.12 13.6202 99.7444 13.2638 99.291 13.0378C98.7999 12.8068 98.2624 12.6918 97.7198 12.7016C95.6282 12.7016 94.789 13.9466 94.3334 14.6687H94.1416L93.7706 12.8261H90.5336V13.3416C91.1412 13.3665 92.1521 13.3764 92.1521 13.3764V20.3485C92.1665 20.7499 92.1246 21.1514 92.0276 21.5412C91.987 21.689 91.9116 21.825 91.8076 21.9376C91.7036 22.0503 91.5741 22.1363 91.43 22.1886C91.1408 22.2843 90.8382 22.3331 90.5336 22.333V22.9779H95.6755V22.333C95.1576 22.2932 94.809 22.1562 94.6222 21.8997C94.4355 21.6433 94.3309 21.1527 94.3309 20.4655V17.7862C94.3309 16.6657 94.3309 15.5801 94.7168 14.9128C94.9306 14.5565 95.2354 14.2637 95.6 14.0646C95.9646 13.8654 96.3758 13.7671 96.791 13.7798C97.5754 13.7798 97.9862 14.0288 98.2427 14.5069C98.4543 14.8978 98.5913 16.0681 98.5913 16.8724L98.5689 20.1891C98.5985 20.5968 98.6068 21.0057 98.5938 21.4142C98.5742 21.5567 98.524 21.6932 98.4466 21.8144C98.3693 21.9356 98.2666 22.0386 98.1456 22.1164C97.8917 22.2516 97.609 22.3233 97.3214 22.3255V22.9779H102.277V22.338C101.649 22.2981 101.241 22.1512 101.061 21.8674Z" fill="white"/>
<path fill-rule="evenodd" clip-rule="evenodd" d="M77.1616 12.9805C77.2687 12.5323 77.4728 12.2658 77.7791 12.1712C78.3418 12.0044 78.7103 12.221 78.9045 12.8186C78.9508 12.9675 78.9645 13.1246 78.9447 13.2792C78.925 13.4339 78.8722 13.5825 78.79 13.715C78.6898 13.8857 78.5561 14.0344 78.3969 14.1521C78.2377 14.2698 78.0564 14.354 77.8637 14.3997C77.4396 14.5228 76.9905 14.5323 76.5615 14.4271C76.8349 15.0229 76.9743 15.6714 76.9699 16.3269C76.9699 19.0135 74.8957 19.8178 72.5951 20.1614C70.2944 20.505 69.7067 20.7814 69.7067 21.4761C69.7067 21.9442 70.013 22.2231 71.6016 22.2231C72.0788 22.245 72.5177 22.2601 72.9225 22.274C75.321 22.3564 76.5244 22.3977 77.4106 23.5801C77.7549 24.1015 77.9249 24.7187 77.8961 25.3429C77.8885 25.9239 77.7297 26.4928 77.4355 26.9938C77.1417 27.5415 76.5914 28.0121 75.7996 28.4031C75.0078 28.794 73.8998 28.9981 72.5353 28.9981C71.5557 29.0173 70.5795 28.8777 69.6445 28.5848C68.9125 28.3632 67.9538 27.798 67.9538 26.5929C67.9357 26.2682 68.0155 25.9455 68.1829 25.6666C68.284 25.5286 68.4202 25.4202 68.5775 25.3527C68.7347 25.2853 68.9071 25.2613 69.0768 25.2832C69.6445 25.3753 69.8213 25.8783 69.7192 26.3563C69.6407 26.6267 69.6511 26.9151 69.7488 27.1791C69.8465 27.4431 70.0264 27.6688 70.262 27.8229C71.009 28.2736 71.8356 28.3806 72.8465 28.3806C74.0243 28.3806 74.9705 28.1839 75.6651 27.8105C76.4096 27.4046 76.7831 26.8593 76.7831 26.1796C76.7949 25.9624 76.7534 25.7457 76.6622 25.5482C76.5711 25.3508 76.4331 25.1786 76.2602 25.0466C75.8564 24.7826 75.3919 24.6258 74.9107 24.591C74.3828 24.5312 73.5761 24.4789 72.4357 24.4789C71.1335 24.4565 70.1051 24.3046 69.3581 24.0133C68.6908 23.7494 68.168 23.2638 68.168 22.3799C68.168 20.9034 69.5698 20.4502 71.1559 20.139C71.2555 20.1166 71.2555 19.9946 71.1434 19.9722C69.2785 19.5912 68.4319 18.5554 68.4319 16.4141C68.4319 14.5865 69.7092 12.5821 72.605 12.5821C74.4027 12.5821 75.4261 13.1672 75.9589 13.6478C76.1969 13.7406 76.4577 13.758 76.7059 13.6976C76.9126 13.6303 77.0545 13.4286 77.1616 12.9805ZM70.5384 16.4141C70.5384 19.0882 71.3127 19.5663 72.6648 19.5663C73.9321 19.5663 74.846 19.1928 74.846 16.3618C74.846 14.4022 74.3529 13.1249 72.6648 13.1249C71.2156 13.1249 70.5384 14.5267 70.5384 16.4141Z" fill="white"/>
</svg>
