<svg width="120" height="44" viewBox="0 0 120 44" fill="none" xmlns="http://www.w3.org/2000/svg">
<path d="M5.01679 11.4119H12.0496V11.9928H9.72565V23.0083C9.72565 27.1449 7.69802 28.3911 3.89839 28.3911C0.711704 28.3911 0 27.1972 0 25.6401C0 25.3003 0.148151 24.147 1.31012 24.147C2.47208 24.147 2.5418 24.9023 2.5418 26.1398C2.5418 26.6598 2.76548 27.6649 4.12788 27.6649C6.28914 27.6649 7.26228 26.7062 7.26228 23.3075V11.9928H5.01679V11.4119Z" fill="white"/>
<path d="M12.4505 25.8559C12.6187 25.7905 12.7985 25.76 12.9788 25.7661C13.1605 25.7596 13.3416 25.79 13.5113 25.8554C13.681 25.9207 13.8356 26.0198 13.966 26.1465C14.0959 26.2676 14.1988 26.4148 14.2678 26.5784C14.3369 26.742 14.3706 26.9184 14.3667 27.0959C14.3711 27.2706 14.3375 27.4441 14.2683 27.6045C14.1992 27.7649 14.096 27.9084 13.966 28.0251C13.8349 28.1511 13.6802 28.2501 13.5108 28.3163C13.3414 28.3826 13.1607 28.4148 12.9788 28.4112C12.7987 28.4151 12.6196 28.3829 12.4521 28.3166C12.2845 28.2502 12.132 28.1511 12.0032 28.0251C11.872 27.909 11.7677 27.7658 11.6975 27.6053C11.6273 27.4449 11.5929 27.271 11.5968 27.0959C11.5936 26.9182 11.6279 26.7418 11.6974 26.5782C11.767 26.4147 11.8702 26.2675 12.0003 26.1465C12.1292 26.0202 12.2824 25.9213 12.4505 25.8559Z" fill="white"/>
<path d="M28.562 25.766C28.3841 25.7621 28.2072 25.7938 28.0417 25.8591C27.8762 25.9244 27.7254 26.0221 27.598 26.1463C27.4696 26.2683 27.3681 26.4158 27.3001 26.5793C27.2321 26.7428 27.1991 26.9187 27.2031 27.0958C27.1979 27.27 27.2304 27.4433 27.2986 27.6037C27.3668 27.7641 27.4689 27.9078 27.598 28.0249C27.8661 28.2722 28.2175 28.4095 28.5823 28.4095C28.9471 28.4095 29.2985 28.2722 29.5666 28.0249C29.6974 27.9087 29.8013 27.7654 29.871 27.6049C29.9408 27.4445 29.9746 27.2707 29.9702 27.0958C29.9741 26.9182 29.9404 26.7419 29.8713 26.5782C29.8023 26.4146 29.6994 26.2674 29.5695 26.1463C29.436 26.0182 29.2778 25.9184 29.1047 25.8531C28.9315 25.7877 28.7469 25.7581 28.562 25.766Z" fill="white"/>
<path fill-rule="evenodd" clip-rule="evenodd" d="M16.803 11.4125H23.6738C29.0514 11.4125 29.9694 13.4142 29.9694 16.2002C29.9694 18.9863 28.4762 21.02 23.1596 21.02H21.3293V25.4388C21.3111 25.8008 21.3746 26.1623 21.5153 26.4963C21.5992 26.6765 21.7202 26.8369 21.8704 26.967C22.0206 27.0972 22.1966 27.1942 22.3868 27.2517C22.8475 27.385 23.3251 27.4506 23.8046 27.4463V27.9751H16.4224V27.4405C16.9007 27.449 17.3769 27.3773 17.8315 27.2284C18.0141 27.1671 18.1819 27.0682 18.324 26.9381C18.4661 26.808 18.5794 26.6496 18.6566 26.4731C18.7728 26.1796 18.8367 25.9182 18.8367 24.9014V11.9935H16.803V11.4125ZM21.3323 20.3808H22.7355C25.9864 20.3808 27.5988 19.0096 27.5988 16.3455C27.5988 13.6814 26.704 12.0545 22.6018 12.0545L21.3323 12.0719V20.3808Z" fill="white"/>
<path d="M51.8868 26.4281C51.7797 26.0623 51.7317 25.6819 51.7444 25.301V11.9965C51.7444 11.9965 53.5455 11.9965 53.5251 11.979C53.515 11.8039 53.515 11.6284 53.5251 11.4533H49.1678C49.1068 11.6043 43.9593 24.0664 43.9593 24.0664C43.9484 24.0891 43.9313 24.1083 43.91 24.1218C43.8886 24.1352 43.8639 24.1424 43.8387 24.1424C43.8135 24.1424 43.7888 24.1352 43.7675 24.1218C43.7461 24.1083 43.729 24.0891 43.7182 24.0664C43.7182 24.0664 38.2337 11.6043 38.1698 11.4533H33.3244V11.9849H35.4246V24.8013L35.3781 25.9633C35.3509 26.25 35.2509 26.5249 35.0877 26.7621C34.8948 27.0218 34.6225 27.2115 34.312 27.3025C33.989 27.3891 33.6559 27.433 33.3215 27.4332V27.9648H38.1233V27.4448C37.8429 27.4444 37.5644 27.3993 37.2983 27.3112C36.9835 27.2275 36.7049 27.0428 36.5053 26.7854C36.3423 26.5416 36.2424 26.2611 36.2148 25.9691L36.1596 24.8071V13.7336H36.4501C36.4501 13.7336 42.6608 27.8166 42.7247 27.9677H43.2447L49.1213 13.8847H49.2724V25.301C49.2845 25.6939 49.2335 26.0862 49.1213 26.4629C49.0591 26.6347 48.9622 26.792 48.8368 26.9249C48.7114 27.0578 48.5601 27.1635 48.3922 27.2356C47.9995 27.3745 47.5857 27.4443 47.1692 27.4419V27.9735H53.8737V27.439C53.4538 27.4364 53.0374 27.3627 52.6421 27.2211C52.4674 27.1496 52.3098 27.042 52.1796 26.9053C52.0495 26.7687 51.9497 26.606 51.8868 26.4281Z" fill="white"/>
<path fill-rule="evenodd" clip-rule="evenodd" d="M55.0919 22.1726C55.0919 18.1493 57.3258 15.8456 60.9018 15.8456C64.2193 15.8456 66.6681 18.0389 66.6768 22.068C66.6768 27.2359 62.8656 28.4589 60.8321 28.4589C59.8125 28.4589 55.0919 28.0696 55.0919 22.1726ZM57.75 22.2365C57.75 26.4196 58.1683 27.7268 60.8554 27.7268C63.2577 27.7268 64.0014 26.2657 64.0014 22.0332C64.0014 19.0876 63.984 16.5777 60.8554 16.5777C57.9591 16.5777 57.75 19.0033 57.75 22.2365Z" fill="white"/>
<path d="M76.0238 16.0258C73.8862 16.0258 73.2182 17.2543 72.6286 18.5032C72.5725 18.5 72.5163 18.5 72.4602 18.5032C72.4517 18.5032 72.3802 18.0782 72.296 17.5785C72.2061 17.0445 72.1018 16.4253 72.0448 16.1477H67.9033V16.7664H70.1454C70.1454 16.7664 70.1309 18.6135 70.1309 19.2786V24.9246C70.1692 25.5109 70.0759 26.0984 69.8579 26.644C69.6284 27.0448 69.1144 27.2481 68.2634 27.2481H67.9033V27.9684H74.8417V27.2481H74.467C73.558 27.2481 73.163 27.0564 72.919 26.6672C72.6983 26.3303 72.5996 25.7582 72.5996 24.9246V20.6785C72.5996 19.2496 73.709 17.6202 75.0392 17.6202C75.6496 17.6202 75.9855 18.0206 76.3032 18.3993C76.7096 18.8837 77.0862 19.3327 77.9697 18.8633C78.8264 18.4073 78.6841 16.0258 76.0238 16.0258Z" fill="white"/>
<path fill-rule="evenodd" clip-rule="evenodd" d="M102.64 25.6839C102.695 26.352 102.931 26.7529 103.674 26.7529C104.11 26.7529 104.644 26.3114 104.755 25.4748H105.17C105.057 27.3977 104.093 28.1675 102.477 28.1675C101.04 28.1675 100.25 27.1799 100.113 26.352C99.2648 27.2264 98.0158 28.3156 96.0464 28.3156C94.2629 28.3156 92.8831 26.9824 92.796 25.4603C92.5636 21.6239 97.6825 21.1776 99.952 20.9797L100.035 20.9725V19.003C100.068 18.3847 99.8974 17.7725 99.5495 17.2602C99.2067 16.8041 98.5909 16.5776 97.7195 16.5776C96.973 16.5776 96.4182 16.7577 96.0638 17.1179C95.7213 17.4952 95.5165 17.9774 95.4829 18.486C95.3405 19.3661 94.9513 19.706 94.2629 19.706C93.9872 19.7168 93.7176 19.6235 93.5076 19.4446C93.3984 19.3472 93.3135 19.2254 93.26 19.0892C93.2066 18.9529 93.1859 18.806 93.1997 18.6603C93.1997 17.8847 93.4873 17.3619 94.2977 16.7577C95.1081 16.1535 96.3862 15.8427 98.1029 15.8427C99.8923 15.8427 101.118 16.168 101.769 16.7983C102.419 17.4287 102.597 18.149 102.597 19.218V24.1677L102.64 25.6839ZM100.03 25.5532C100.038 25.5368 100.04 25.5187 100.037 25.5009V21.6928C98.3353 21.6928 95.2272 22.7937 95.2272 24.9984C95.2272 25.6868 95.4829 27.0637 97.1821 27.0637C97.8473 27.0637 98.7536 26.689 99.9445 25.6404L99.9968 25.5939C100.012 25.5838 100.023 25.5697 100.03 25.5532Z" fill="white"/>
<path d="M117.905 26.6784C117.587 26.1486 117.436 25.535 117.472 24.918L117.501 19.5553C117.536 18.8705 117.397 18.188 117.097 17.5712C116.807 17.0567 116.368 16.6409 115.839 16.3773C115.267 16.1078 114.639 15.9736 114.006 15.9851C111.566 15.9851 110.587 17.4376 110.056 18.28H109.832L109.399 16.1303H105.623V16.7317C106.331 16.7607 107.511 16.7723 107.511 16.7723V24.9064C107.528 25.3747 107.479 25.8431 107.366 26.2979C107.318 26.4704 107.23 26.629 107.109 26.7604C106.988 26.8918 106.836 26.9922 106.668 27.0532C106.331 27.1649 105.978 27.2217 105.623 27.2217V27.9741H111.621V27.2217C111.017 27.1752 110.61 27.0154 110.393 26.7162C110.175 26.417 110.053 25.8447 110.053 25.0429V21.9171C110.053 20.6099 110.053 19.3433 110.503 18.5647C110.752 18.1491 111.108 17.8075 111.533 17.5752C111.959 17.3428 112.438 17.2281 112.923 17.2429C113.838 17.2429 114.317 17.5335 114.616 18.0912C114.863 18.5473 115.023 19.9127 115.023 20.851L114.997 24.7205C115.032 25.1961 115.041 25.6731 115.026 26.1497C115.003 26.3159 114.945 26.4752 114.854 26.6166C114.764 26.758 114.644 26.8782 114.503 26.9689C114.207 27.1266 113.877 27.2104 113.542 27.213V27.9741H119.323V27.2275C118.591 27.181 118.114 27.0096 117.905 26.6784Z" fill="white"/>
<path fill-rule="evenodd" clip-rule="evenodd" d="M90.0219 16.3104C90.1468 15.7875 90.385 15.4767 90.7423 15.3663C91.3988 15.1716 91.8287 15.4244 92.0553 16.1215C92.1092 16.2953 92.1252 16.4785 92.1022 16.659C92.0791 16.8394 92.0176 17.0128 91.9217 17.1673C91.8048 17.3665 91.6488 17.54 91.4631 17.6773C91.2773 17.8146 91.0658 17.9128 90.841 17.9662C90.3462 18.1098 89.8222 18.1208 89.3218 17.9981C89.6407 18.6932 89.8034 19.4498 89.7982 20.2146C89.7982 23.349 87.3784 24.2873 84.6942 24.6881C82.0101 25.089 81.3245 25.4115 81.3245 26.2219C81.3245 26.7681 81.6818 27.0934 83.5352 27.0934C84.0919 27.119 84.6039 27.1366 85.0763 27.1528C87.8745 27.249 89.2784 27.2972 90.3123 28.6766C90.714 29.2849 90.9123 30.005 90.8788 30.7333C90.8699 31.411 90.6847 32.0748 90.3414 32.6592C89.9986 33.2983 89.3566 33.8473 88.4329 34.3034C87.5091 34.7595 86.2164 34.9977 84.6245 34.9977C83.4817 35.02 82.3427 34.8571 81.2519 34.5155C80.3979 34.2569 79.2795 33.5975 79.2795 32.1915C79.2583 31.8127 79.3514 31.4362 79.5467 31.1109C79.6646 30.9499 79.8236 30.8234 80.007 30.7447C80.1905 30.666 80.3916 30.638 80.5896 30.6635C81.2519 30.771 81.4582 31.3578 81.3391 31.9156C81.2475 32.231 81.2596 32.5674 81.3736 32.8755C81.4876 33.1835 81.6975 33.4467 81.9723 33.6266C82.8438 34.1523 83.8082 34.2773 84.9876 34.2773C86.3616 34.2773 87.4655 34.0478 88.276 33.612C89.1446 33.1385 89.5803 32.5024 89.5803 31.7093C89.594 31.456 89.5456 31.2031 89.4393 30.9728C89.3329 30.7424 89.1719 30.5415 88.9703 30.3876C88.4991 30.0796 87.9573 29.8966 87.3958 29.856C86.78 29.7863 85.8388 29.7253 84.5083 29.7253C82.989 29.6991 81.7893 29.5219 80.9178 29.182C80.1393 28.8741 79.5293 28.3077 79.5293 27.2764C79.5293 25.5538 81.1647 25.0251 83.0152 24.662C83.1314 24.6359 83.1314 24.4935 83.0007 24.4674C80.8249 24.0229 79.8372 22.8145 79.8372 20.3162C79.8372 18.184 81.3274 15.8456 84.7058 15.8456C86.8032 15.8456 87.9971 16.5282 88.6188 17.0889C88.8964 17.1972 89.2007 17.2175 89.4902 17.147C89.7313 17.0685 89.8969 16.8333 90.0219 16.3104ZM82.2948 20.3162C82.2948 23.4361 83.1982 23.9939 84.7756 23.9939C86.2542 23.9939 87.3203 23.5581 87.3203 20.2552C87.3203 17.9691 86.7451 16.4789 84.7756 16.4789C83.0849 16.4789 82.2948 18.1143 82.2948 20.3162Z" fill="white"/>
</svg>
