<svg width="209" height="176" viewBox="0 0 209 176" fill="none" xmlns="http://www.w3.org/2000/svg">
<path d="M59.7571 174C91.6555 174 117.514 148.256 117.514 116.5C117.514 84.7436 91.6555 59 59.7571 59C27.8587 59 2 84.7436 2 116.5C2 148.256 27.8587 174 59.7571 174Z" stroke="#964EA2" stroke-width="4" stroke-miterlimit="10" stroke-linecap="round"/>
<path d="M103.757 117C135.656 117 161.514 91.2564 161.514 59.5C161.514 27.7436 135.656 2 103.757 2C71.8587 2 46 27.7436 46 59.5C46 91.2564 71.8587 117 103.757 117Z" stroke="#964EA2" stroke-width="4" stroke-miterlimit="10" stroke-linecap="round"/>
<path d="M148.757 174C180.656 174 206.514 148.256 206.514 116.5C206.514 84.7436 180.656 59 148.757 59C116.859 59 91 84.7436 91 116.5C91 148.256 116.859 174 148.757 174Z" stroke="#964EA2" stroke-width="4" stroke-miterlimit="10" stroke-linecap="round"/>
</svg>
