<svg width="889" height="172" viewBox="0 0 889 172" fill="none" xmlns="http://www.w3.org/2000/svg">
<rect width="889" height="172" fill="#F2F4F6"/>
<mask id="path-1-inside-1_1137_11045" fill="white">
<path d="M298.5 40.5H590.5V76.5H298.5V40.5Z"/>
</mask>
<path d="M298.5 40.5H590.5V76.5H298.5V40.5Z" fill="white"/>
<path d="M311.867 63.5V53.5059H313.029V63.5H311.867ZM319.154 55.8711C320.043 55.8711 320.715 56.0898 321.171 56.5273C321.627 56.9603 321.854 57.6576 321.854 58.6191V63.5H320.733V58.6943C320.733 58.07 320.59 57.6029 320.303 57.293C320.02 56.9831 319.585 56.8281 318.997 56.8281C318.168 56.8281 317.584 57.0628 317.247 57.5322C316.91 58.0016 316.741 58.6829 316.741 59.5762V63.5H315.606V56.0078H316.522L316.693 57.0879H316.755C316.914 56.8236 317.117 56.6025 317.363 56.4248C317.609 56.2425 317.885 56.1058 318.19 56.0146C318.496 55.9189 318.817 55.8711 319.154 55.8711ZM325.84 63.5L322.996 56.0078H324.213L325.86 60.54C325.974 60.8499 326.09 61.1917 326.209 61.5654C326.327 61.9391 326.41 62.2399 326.455 62.4678H326.503C326.558 62.2399 326.649 61.9391 326.776 61.5654C326.904 61.1872 327.02 60.8454 327.125 60.54L328.772 56.0078H329.989L327.139 63.5H325.84ZM334.077 55.8711C334.715 55.8711 335.262 56.0124 335.718 56.2949C336.174 56.5775 336.522 56.974 336.764 57.4844C337.005 57.9902 337.126 58.5827 337.126 59.2617V59.9658H331.951C331.965 60.8454 332.184 61.5153 332.607 61.9756C333.031 62.4359 333.628 62.666 334.398 62.666C334.872 62.666 335.292 62.6227 335.656 62.5361C336.021 62.4495 336.399 62.3219 336.791 62.1533V63.1514C336.413 63.32 336.037 63.443 335.663 63.5205C335.294 63.598 334.856 63.6367 334.351 63.6367C333.631 63.6367 333.002 63.4909 332.464 63.1992C331.931 62.903 331.516 62.4701 331.22 61.9004C330.924 61.3307 330.775 60.6335 330.775 59.8086C330.775 59.002 330.91 58.3047 331.179 57.7168C331.452 57.1243 331.835 56.6686 332.327 56.3496C332.824 56.0306 333.407 55.8711 334.077 55.8711ZM334.063 56.8008C333.457 56.8008 332.974 56.999 332.614 57.3955C332.254 57.792 332.04 58.3457 331.972 59.0566H335.937C335.932 58.61 335.861 58.2181 335.725 57.8809C335.592 57.5391 335.39 57.2747 335.116 57.0879C334.843 56.8965 334.492 56.8008 334.063 56.8008ZM343.9 61.4492C343.9 61.9277 343.78 62.3311 343.538 62.6592C343.301 62.9827 342.959 63.2266 342.513 63.3906C342.071 63.5547 341.542 63.6367 340.927 63.6367C340.403 63.6367 339.949 63.5957 339.566 63.5137C339.184 63.4316 338.849 63.3154 338.562 63.165V62.1191C338.867 62.2695 339.231 62.4062 339.655 62.5293C340.079 62.6523 340.512 62.7139 340.954 62.7139C341.601 62.7139 342.071 62.609 342.362 62.3994C342.654 62.1898 342.8 61.9049 342.8 61.5449C342.8 61.3398 342.741 61.1598 342.622 61.0049C342.508 60.8454 342.314 60.6927 342.041 60.5469C341.768 60.3965 341.389 60.2324 340.906 60.0547C340.428 59.8724 340.013 59.6924 339.662 59.5146C339.316 59.3324 339.047 59.1113 338.855 58.8516C338.669 58.5918 338.575 58.2546 338.575 57.8398C338.575 57.2064 338.83 56.721 339.341 56.3838C339.856 56.042 340.53 55.8711 341.364 55.8711C341.815 55.8711 342.237 55.9167 342.629 56.0078C343.025 56.0944 343.395 56.2129 343.736 56.3633L343.354 57.2725C343.044 57.1403 342.713 57.0286 342.362 56.9375C342.011 56.8464 341.654 56.8008 341.289 56.8008C340.765 56.8008 340.362 56.8874 340.079 57.0605C339.801 57.2337 339.662 57.4707 339.662 57.7715C339.662 58.0039 339.726 58.1953 339.854 58.3457C339.986 58.4961 340.195 58.6374 340.482 58.7695C340.77 58.9017 341.148 59.0566 341.617 59.2344C342.087 59.4076 342.492 59.5876 342.834 59.7744C343.176 59.9567 343.438 60.18 343.62 60.4443C343.807 60.7041 343.9 61.0391 343.9 61.4492ZM348.146 62.707C348.332 62.707 348.524 62.6911 348.72 62.6592C348.916 62.6273 349.075 62.5885 349.198 62.543V63.4248C349.066 63.484 348.882 63.5342 348.645 63.5752C348.412 63.6162 348.184 63.6367 347.961 63.6367C347.564 63.6367 347.204 63.5684 346.881 63.4316C346.557 63.2904 346.298 63.0534 346.102 62.7207C345.91 62.388 345.814 61.9277 345.814 61.3398V56.8965H344.748V56.3428L345.821 55.8984L346.272 54.2715H346.956V56.0078H349.15V56.8965H346.956V61.3057C346.956 61.7751 347.063 62.126 347.277 62.3584C347.496 62.5908 347.785 62.707 348.146 62.707ZM353.519 55.8848C354.412 55.8848 355.075 56.0853 355.508 56.4863C355.941 56.8874 356.157 57.5277 356.157 58.4072V63.5H355.33L355.111 62.3926H355.057C354.847 62.666 354.628 62.8962 354.4 63.083C354.173 63.2653 353.908 63.4043 353.607 63.5C353.311 63.5911 352.947 63.6367 352.514 63.6367C352.058 63.6367 351.652 63.557 351.297 63.3975C350.946 63.238 350.668 62.9964 350.463 62.6729C350.262 62.3493 350.162 61.9391 350.162 61.4424C350.162 60.695 350.458 60.1208 351.051 59.7197C351.643 59.3187 352.546 59.0999 353.758 59.0635L355.05 59.0088V58.5508C355.05 57.9036 354.911 57.4502 354.633 57.1904C354.355 56.9307 353.963 56.8008 353.457 56.8008C353.065 56.8008 352.691 56.8577 352.336 56.9717C351.98 57.0856 351.643 57.2201 351.324 57.375L350.976 56.5137C351.313 56.3405 351.7 56.1924 352.138 56.0693C352.575 55.9463 353.035 55.8848 353.519 55.8848ZM355.036 59.8086L353.895 59.8564C352.96 59.8929 352.302 60.0456 351.919 60.3145C351.536 60.5833 351.345 60.9639 351.345 61.4561C351.345 61.8844 351.475 62.2012 351.734 62.4062C351.994 62.6113 352.338 62.7139 352.767 62.7139C353.432 62.7139 353.977 62.5293 354.4 62.1602C354.824 61.791 355.036 61.2373 355.036 60.499V59.8086ZM359.63 52.8633V55.5225C359.63 55.8278 359.621 56.124 359.603 56.4111C359.589 56.6982 359.577 56.9215 359.568 57.0811H359.63C359.835 56.7438 360.131 56.459 360.519 56.2266C360.906 55.9941 361.4 55.8779 362.002 55.8779C362.941 55.8779 363.688 56.2038 364.244 56.8555C364.805 57.5026 365.085 58.4665 365.085 59.7471C365.085 60.5902 364.957 61.3011 364.702 61.8799C364.447 62.4587 364.087 62.8962 363.622 63.1924C363.157 63.4886 362.608 63.6367 361.975 63.6367C361.382 63.6367 360.895 63.5273 360.512 63.3086C360.133 63.0853 359.842 62.8141 359.637 62.4951H359.548L359.315 63.5H358.495V52.8633H359.63ZM361.817 56.8281C361.275 56.8281 360.844 56.9352 360.525 57.1494C360.206 57.359 359.976 57.6781 359.835 58.1064C359.698 58.5303 359.63 59.068 359.63 59.7197V59.7812C359.63 60.7246 359.787 61.4469 360.102 61.9482C360.416 62.445 360.988 62.6934 361.817 62.6934C362.515 62.6934 363.036 62.4382 363.383 61.9277C363.734 61.4173 363.909 60.6882 363.909 59.7402C363.909 58.7741 363.736 58.0472 363.39 57.5596C363.048 57.0719 362.524 56.8281 361.817 56.8281ZM368.209 63.5H367.067V52.8633H368.209V63.5ZM373.493 55.8711C374.131 55.8711 374.678 56.0124 375.134 56.2949C375.59 56.5775 375.938 56.974 376.18 57.4844C376.421 57.9902 376.542 58.5827 376.542 59.2617V59.9658H371.367C371.381 60.8454 371.6 61.5153 372.023 61.9756C372.447 62.4359 373.044 62.666 373.814 62.666C374.288 62.666 374.708 62.6227 375.072 62.5361C375.437 62.4495 375.815 62.3219 376.207 62.1533V63.1514C375.829 63.32 375.453 63.443 375.079 63.5205C374.71 63.598 374.272 63.6367 373.767 63.6367C373.047 63.6367 372.418 63.4909 371.88 63.1992C371.347 62.903 370.932 62.4701 370.636 61.9004C370.34 61.3307 370.191 60.6335 370.191 59.8086C370.191 59.002 370.326 58.3047 370.595 57.7168C370.868 57.1243 371.251 56.6686 371.743 56.3496C372.24 56.0306 372.823 55.8711 373.493 55.8711ZM373.479 56.8008C372.873 56.8008 372.39 56.999 372.03 57.3955C371.67 57.792 371.456 58.3457 371.388 59.0566H375.353C375.348 58.61 375.277 58.2181 375.141 57.8809C375.008 57.5391 374.806 57.2747 374.532 57.0879C374.259 56.8965 373.908 56.8008 373.479 56.8008ZM383.241 56.0078V63.5H382.106V56.0078H383.241ZM382.688 53.2051C382.874 53.2051 383.034 53.2666 383.166 53.3896C383.303 53.5081 383.371 53.695 383.371 53.9502C383.371 54.2008 383.303 54.3877 383.166 54.5107C383.034 54.6338 382.874 54.6953 382.688 54.6953C382.492 54.6953 382.327 54.6338 382.195 54.5107C382.068 54.3877 382.004 54.2008 382.004 53.9502C382.004 53.695 382.068 53.5081 382.195 53.3896C382.327 53.2666 382.492 53.2051 382.688 53.2051ZM389.195 55.8711C390.084 55.8711 390.756 56.0898 391.212 56.5273C391.668 56.9603 391.896 57.6576 391.896 58.6191V63.5H390.774V58.6943C390.774 58.07 390.631 57.6029 390.344 57.293C390.061 56.9831 389.626 56.8281 389.038 56.8281C388.209 56.8281 387.625 57.0628 387.288 57.5322C386.951 58.0016 386.782 58.6829 386.782 59.5762V63.5H385.647V56.0078H386.563L386.734 57.0879H386.796C386.955 56.8236 387.158 56.6025 387.404 56.4248C387.65 56.2425 387.926 56.1058 388.231 56.0146C388.537 55.9189 388.858 55.8711 389.195 55.8711ZM396.899 63.6367C395.951 63.6367 395.2 63.3132 394.644 62.666C394.092 62.0189 393.816 61.0573 393.816 59.7812C393.816 58.4915 394.099 57.5186 394.664 56.8623C395.229 56.2015 395.981 55.8711 396.92 55.8711C397.316 55.8711 397.663 55.9235 397.959 56.0283C398.255 56.1331 398.51 56.2744 398.725 56.4521C398.939 56.6253 399.119 56.8236 399.265 57.0469H399.347C399.328 56.9056 399.31 56.7119 399.292 56.4658C399.274 56.2197 399.265 56.0192 399.265 55.8643V52.8633H400.399V63.5H399.483L399.312 62.4336H399.265C399.123 62.6569 398.943 62.8597 398.725 63.042C398.51 63.2243 398.253 63.3701 397.952 63.4795C397.656 63.5843 397.305 63.6367 396.899 63.6367ZM397.077 62.6934C397.879 62.6934 398.447 62.4655 398.779 62.0098C399.112 61.554 399.278 60.8773 399.278 59.9795V59.7744C399.278 58.8219 399.119 58.0905 398.8 57.5801C398.485 57.0697 397.911 56.8145 397.077 56.8145C396.38 56.8145 395.858 57.0833 395.512 57.6211C395.165 58.1543 394.992 58.8835 394.992 59.8086C394.992 60.7292 395.163 61.4401 395.505 61.9414C395.851 62.4427 396.375 62.6934 397.077 62.6934ZM403.94 56.0078V63.5H402.806V56.0078H403.94ZM403.387 53.2051C403.574 53.2051 403.733 53.2666 403.865 53.3896C404.002 53.5081 404.07 53.695 404.07 53.9502C404.07 54.2008 404.002 54.3877 403.865 54.5107C403.733 54.6338 403.574 54.6953 403.387 54.6953C403.191 54.6953 403.027 54.6338 402.895 54.5107C402.767 54.3877 402.703 54.2008 402.703 53.9502C402.703 53.695 402.767 53.5081 402.895 53.3896C403.027 53.2666 403.191 53.2051 403.387 53.2051ZM409.348 63.6367C408.673 63.6367 408.078 63.4977 407.563 63.2197C407.049 62.9417 406.647 62.5179 406.36 61.9482C406.073 61.3786 405.93 60.6608 405.93 59.7949C405.93 58.888 406.08 58.1475 406.381 57.5732C406.686 56.9945 407.105 56.5661 407.639 56.2881C408.172 56.0101 408.778 55.8711 409.457 55.8711C409.831 55.8711 410.191 55.9098 410.537 55.9873C410.888 56.0602 411.175 56.1536 411.398 56.2676L411.057 57.2178C410.829 57.1266 410.564 57.0446 410.264 56.9717C409.967 56.8988 409.689 56.8623 409.43 56.8623C408.91 56.8623 408.477 56.974 408.131 57.1973C407.789 57.4206 407.532 57.7487 407.358 58.1816C407.19 58.6146 407.105 59.1478 407.105 59.7812C407.105 60.3874 407.188 60.9046 407.352 61.333C407.52 61.7614 407.769 62.0895 408.097 62.3174C408.429 62.5407 408.844 62.6523 409.341 62.6523C409.737 62.6523 410.095 62.6113 410.414 62.5293C410.733 62.4427 411.022 62.3424 411.282 62.2285V63.2402C411.032 63.3678 410.751 63.4658 410.441 63.5342C410.136 63.6025 409.771 63.6367 409.348 63.6367ZM415.944 55.8711C416.582 55.8711 417.129 56.0124 417.585 56.2949C418.041 56.5775 418.389 56.974 418.631 57.4844C418.872 57.9902 418.993 58.5827 418.993 59.2617V59.9658H413.818C413.832 60.8454 414.051 61.5153 414.475 61.9756C414.898 62.4359 415.495 62.666 416.266 62.666C416.74 62.666 417.159 62.6227 417.523 62.5361C417.888 62.4495 418.266 62.3219 418.658 62.1533V63.1514C418.28 63.32 417.904 63.443 417.53 63.5205C417.161 63.598 416.724 63.6367 416.218 63.6367C415.498 63.6367 414.869 63.4909 414.331 63.1992C413.798 62.903 413.383 62.4701 413.087 61.9004C412.791 61.3307 412.643 60.6335 412.643 59.8086C412.643 59.002 412.777 58.3047 413.046 57.7168C413.319 57.1243 413.702 56.6686 414.194 56.3496C414.691 56.0306 415.274 55.8711 415.944 55.8711ZM415.931 56.8008C415.325 56.8008 414.841 56.999 414.481 57.3955C414.121 57.792 413.907 58.3457 413.839 59.0566H417.804C417.799 58.61 417.729 58.2181 417.592 57.8809C417.46 57.5391 417.257 57.2747 416.983 57.0879C416.71 56.8965 416.359 56.8008 415.931 56.8008ZM425.768 61.4492C425.768 61.9277 425.647 62.3311 425.405 62.6592C425.168 62.9827 424.826 63.2266 424.38 63.3906C423.938 63.5547 423.409 63.6367 422.794 63.6367C422.27 63.6367 421.816 63.5957 421.434 63.5137C421.051 63.4316 420.716 63.3154 420.429 63.165V62.1191C420.734 62.2695 421.099 62.4062 421.522 62.5293C421.946 62.6523 422.379 62.7139 422.821 62.7139C423.468 62.7139 423.938 62.609 424.229 62.3994C424.521 62.1898 424.667 61.9049 424.667 61.5449C424.667 61.3398 424.608 61.1598 424.489 61.0049C424.375 60.8454 424.182 60.6927 423.908 60.5469C423.635 60.3965 423.257 60.2324 422.773 60.0547C422.295 59.8724 421.88 59.6924 421.529 59.5146C421.183 59.3324 420.914 59.1113 420.723 58.8516C420.536 58.5918 420.442 58.2546 420.442 57.8398C420.442 57.2064 420.698 56.721 421.208 56.3838C421.723 56.042 422.397 55.8711 423.231 55.8711C423.683 55.8711 424.104 55.9167 424.496 56.0078C424.893 56.0944 425.262 56.2129 425.604 56.3633L425.221 57.2725C424.911 57.1403 424.58 57.0286 424.229 56.9375C423.879 56.8464 423.521 56.8008 423.156 56.8008C422.632 56.8008 422.229 56.8874 421.946 57.0605C421.668 57.2337 421.529 57.4707 421.529 57.7715C421.529 58.0039 421.593 58.1953 421.721 58.3457C421.853 58.4961 422.062 58.6374 422.35 58.7695C422.637 58.9017 423.015 59.0566 423.484 59.2344C423.954 59.4076 424.359 59.5876 424.701 59.7744C425.043 59.9567 425.305 60.18 425.487 60.4443C425.674 60.7041 425.768 61.0391 425.768 61.4492Z" fill="#161616"/>
<path fill-rule="evenodd" clip-rule="evenodd" d="M568.834 62.0003C567.859 62.7327 566.647 63.1667 565.333 63.1667C562.112 63.1667 559.5 60.555 559.5 57.3333C559.5 54.1117 562.112 51.5 565.333 51.5C568.555 51.5 571.167 54.1117 571.167 57.3333C571.167 58.6467 570.733 59.8586 570 60.8336L573.5 64.3333L572.333 65.5L568.834 62.0003ZM570 57.3333C570 59.9107 567.911 62 565.333 62C562.756 62 560.667 59.9107 560.667 57.3333C560.667 54.756 562.756 52.6667 565.333 52.6667C567.911 52.6667 570 54.756 570 57.3333Z" fill="#161616"/>
<path d="M590.5 75.5H298.5V77.5H590.5V75.5Z" fill="#61656E" mask="url(#path-1-inside-1_1137_11045)"/>
<path d="M300.738 98.6172C300.312 98.6172 299.939 98.5859 299.619 98.5234C299.299 98.4609 299.002 98.3652 298.729 98.2363V97.2578C298.975 97.3828 299.264 97.498 299.596 97.6035C299.928 97.7051 300.312 97.7559 300.75 97.7559C301.02 97.7559 301.277 97.7246 301.523 97.6621C301.77 97.5996 301.988 97.502 302.18 97.3691C302.375 97.2363 302.527 97.0664 302.637 96.8594C302.75 96.6523 302.807 96.4062 302.807 96.1211C302.807 95.8906 302.756 95.6875 302.654 95.5117C302.557 95.332 302.4 95.1602 302.186 94.9961C301.971 94.8281 301.689 94.6484 301.342 94.457C301.045 94.2812 300.777 94.0977 300.539 93.9062C300.305 93.7109 300.119 93.4844 299.982 93.2266C299.846 92.9648 299.777 92.6484 299.777 92.2773C299.777 91.8789 299.852 91.5273 300 91.2227C300.148 90.9141 300.352 90.6562 300.609 90.4492C300.871 90.2383 301.17 90.0801 301.506 89.9746C301.846 89.8652 302.205 89.8105 302.584 89.8105C303.033 89.8105 303.424 89.8555 303.756 89.9453C304.088 90.0352 304.408 90.1562 304.717 90.3086L304.336 91.1523C304.117 91.0352 303.854 90.9297 303.545 90.8359C303.24 90.7383 302.92 90.6895 302.584 90.6895C302.338 90.6895 302.107 90.7227 301.893 90.7891C301.682 90.8516 301.496 90.9473 301.336 91.0762C301.176 91.2051 301.051 91.3652 300.961 91.5566C300.871 91.7441 300.826 91.9629 300.826 92.2129C300.826 92.4668 300.873 92.6777 300.967 92.8457C301.064 93.0137 301.205 93.166 301.389 93.3027C301.576 93.4395 301.807 93.5879 302.08 93.748C302.428 93.9512 302.734 94.1543 303 94.3574C303.266 94.5566 303.473 94.7891 303.621 95.0547C303.77 95.3164 303.844 95.6465 303.844 96.0449C303.844 96.4746 303.768 96.8516 303.615 97.1758C303.467 97.4961 303.254 97.7637 302.977 97.9785C302.699 98.1895 302.371 98.3496 301.992 98.459C301.613 98.5645 301.195 98.6172 300.738 98.6172ZM307.459 98.6172C306.979 98.6172 306.564 98.5215 306.217 98.3301C305.869 98.1348 305.602 97.8574 305.414 97.498C305.23 97.1348 305.139 96.7012 305.139 96.1973C305.139 95.6777 305.213 95.168 305.361 94.668C305.514 94.1641 305.73 93.709 306.012 93.3027C306.293 92.8926 306.631 92.5664 307.025 92.3242C307.424 92.082 307.869 91.9609 308.361 91.9609C308.951 91.9609 309.398 92.0938 309.703 92.3594C310.008 92.6211 310.16 92.9824 310.16 93.4434C310.16 93.7676 310.084 94.0664 309.932 94.3398C309.783 94.6133 309.553 94.8516 309.24 95.0547C308.932 95.2539 308.539 95.4102 308.062 95.5234C307.59 95.6328 307.029 95.6875 306.381 95.6875H306.158C306.15 95.7578 306.143 95.8359 306.135 95.9219C306.131 96.0078 306.129 96.0879 306.129 96.1621C306.129 96.6777 306.254 97.082 306.504 97.375C306.754 97.6641 307.129 97.8086 307.629 97.8086C307.938 97.8086 308.229 97.7656 308.502 97.6797C308.779 97.5898 309.068 97.4727 309.369 97.3281V98.166C309.08 98.2988 308.789 98.4082 308.496 98.4941C308.203 98.5762 307.857 98.6172 307.459 98.6172ZM306.299 94.8906H306.439C306.939 94.8906 307.398 94.8477 307.816 94.7617C308.234 94.6719 308.57 94.5273 308.824 94.3281C309.078 94.125 309.205 93.8555 309.205 93.5195C309.205 93.3008 309.131 93.1211 308.982 92.9805C308.834 92.8398 308.607 92.7695 308.303 92.7695C308.033 92.7695 307.768 92.8535 307.506 93.0215C307.244 93.1855 307.006 93.4258 306.791 93.7422C306.58 94.0586 306.416 94.4414 306.299 94.8906ZM312.844 98.6172C312.496 98.6172 312.191 98.5332 311.93 98.3652C311.668 98.1973 311.465 97.9492 311.32 97.6211C311.176 97.293 311.104 96.8926 311.104 96.4199C311.104 95.9473 311.152 95.4922 311.25 95.0547C311.352 94.6172 311.494 94.2109 311.678 93.8359C311.861 93.4609 312.082 93.1328 312.34 92.8516C312.602 92.5703 312.895 92.3516 313.219 92.1953C313.543 92.0391 313.893 91.9609 314.268 91.9609C314.557 91.9609 314.807 92.0156 315.018 92.125C315.232 92.2344 315.41 92.3789 315.551 92.5586C315.695 92.7344 315.809 92.9219 315.891 93.1211H315.949L316.324 92.0781H317.068L315.709 98.5H314.93L315.105 97.2578H315.059C314.883 97.4922 314.682 97.7129 314.455 97.9199C314.229 98.127 313.98 98.2949 313.711 98.4238C313.441 98.5527 313.152 98.6172 312.844 98.6172ZM313.16 97.8086C313.461 97.8086 313.758 97.6992 314.051 97.4805C314.348 97.2578 314.613 96.959 314.848 96.584C315.086 96.2051 315.268 95.7793 315.393 95.3066C315.455 95.0762 315.496 94.8652 315.516 94.6738C315.539 94.4785 315.551 94.2969 315.551 94.1289C315.551 93.7266 315.443 93.4023 315.229 93.1562C315.018 92.9062 314.729 92.7812 314.361 92.7812C314.1 92.7812 313.854 92.8477 313.623 92.9805C313.393 93.1094 313.184 93.291 312.996 93.5254C312.812 93.7559 312.654 94.0254 312.521 94.334C312.389 94.6387 312.285 94.9707 312.211 95.3301C312.141 95.6895 312.105 96.0586 312.105 96.4375C312.105 96.8867 312.197 97.2285 312.381 97.4629C312.564 97.6934 312.824 97.8086 313.16 97.8086ZM317.648 98.5L319.014 92.0781H319.811L319.658 93.3203H319.717C319.881 93.0977 320.057 92.8828 320.244 92.6758C320.432 92.4648 320.645 92.293 320.883 92.1602C321.125 92.0273 321.402 91.9609 321.715 91.9609C321.832 91.9609 321.951 91.9688 322.072 91.9844C322.193 91.9961 322.307 92.0176 322.412 92.0488L322.201 92.9219C322.096 92.8984 321.992 92.8809 321.891 92.8691C321.793 92.8574 321.691 92.8516 321.586 92.8516C321.289 92.8516 321.014 92.9297 320.76 93.0859C320.506 93.2383 320.277 93.4434 320.074 93.7012C319.875 93.959 319.705 94.2461 319.564 94.5625C319.428 94.8789 319.324 95.2012 319.254 95.5293L318.627 98.5H317.648ZM325.02 98.6172C324.543 98.6172 324.125 98.5273 323.766 98.3477C323.41 98.1641 323.133 97.8945 322.934 97.5391C322.738 97.1836 322.641 96.7422 322.641 96.2148C322.641 95.7578 322.689 95.3184 322.787 94.8965C322.889 94.4746 323.035 94.0859 323.227 93.7305C323.418 93.375 323.65 93.0645 323.924 92.7988C324.197 92.5332 324.508 92.3281 324.855 92.1836C325.207 92.0352 325.59 91.9609 326.004 91.9609C326.281 91.9609 326.557 91.9883 326.83 92.043C327.107 92.0938 327.357 92.168 327.58 92.2656L327.305 93.0859C327.141 93.0078 326.947 92.9375 326.725 92.875C326.502 92.8125 326.264 92.7812 326.01 92.7812C325.654 92.7812 325.33 92.8711 325.037 93.0508C324.748 93.2305 324.498 93.4805 324.287 93.8008C324.08 94.1172 323.92 94.4805 323.807 94.8906C323.693 95.3008 323.637 95.7383 323.637 96.2031C323.637 96.5352 323.695 96.8223 323.812 97.0645C323.93 97.3027 324.098 97.4863 324.316 97.6152C324.539 97.7441 324.805 97.8086 325.113 97.8086C325.398 97.8086 325.666 97.7695 325.916 97.6914C326.17 97.6133 326.418 97.5195 326.66 97.4102V98.2422C326.445 98.3516 326.199 98.4414 325.922 98.5117C325.648 98.582 325.348 98.6172 325.02 98.6172ZM327.832 98.5L329.766 89.3828H330.738L330.223 91.75C330.191 91.918 330.152 92.0918 330.105 92.2715C330.062 92.4473 330.018 92.625 329.971 92.8047C329.924 92.9805 329.877 93.1543 329.83 93.3262H329.889C330.041 93.1191 330.221 92.9121 330.428 92.7051C330.639 92.498 330.883 92.3242 331.16 92.1836C331.441 92.043 331.758 91.9727 332.109 91.9727C332.445 91.9727 332.732 92.0332 332.971 92.1543C333.213 92.2754 333.398 92.457 333.527 92.6992C333.66 92.9375 333.727 93.2383 333.727 93.6016C333.727 93.7539 333.715 93.9102 333.691 94.0703C333.668 94.2266 333.639 94.3906 333.604 94.5625L332.76 98.5H331.781L332.637 94.457C332.676 94.2812 332.703 94.1309 332.719 94.0059C332.734 93.8809 332.742 93.7715 332.742 93.6777C332.742 93.3926 332.67 93.1719 332.525 93.0156C332.385 92.8594 332.158 92.7812 331.846 92.7812C331.553 92.7812 331.244 92.8809 330.92 93.0801C330.6 93.2754 330.303 93.5859 330.029 94.0117C329.76 94.4336 329.553 94.9863 329.408 95.6699L328.811 98.5H327.832ZM336.92 101.383C336.768 101.383 336.627 101.371 336.498 101.348C336.369 101.324 336.256 101.295 336.158 101.26V100.434C336.264 100.473 336.371 100.504 336.48 100.527C336.59 100.555 336.707 100.568 336.832 100.568C337.121 100.568 337.346 100.453 337.506 100.223C337.666 99.9922 337.795 99.6582 337.893 99.2207L339.24 92.8223H338.121L338.203 92.4062L339.393 92.0488L339.533 91.4277C339.623 91.0293 339.73 90.6953 339.855 90.4258C339.984 90.1523 340.135 89.9355 340.307 89.7754C340.479 89.6113 340.678 89.4941 340.904 89.4238C341.135 89.3535 341.398 89.3184 341.695 89.3184C341.891 89.3184 342.09 89.3418 342.293 89.3887C342.5 89.4316 342.668 89.4824 342.797 89.541L342.545 90.2852C342.428 90.2422 342.303 90.2051 342.17 90.1738C342.037 90.1387 341.893 90.1211 341.736 90.1211C341.404 90.1211 341.143 90.2148 340.951 90.4023C340.764 90.5859 340.615 90.9297 340.506 91.4336L340.359 92.0781H341.742L341.602 92.8223H340.213L338.842 99.332C338.748 99.7617 338.621 100.129 338.461 100.434C338.301 100.742 338.096 100.977 337.846 101.137C337.596 101.301 337.287 101.383 336.92 101.383ZM344.232 98.5938C343.74 98.5938 343.316 98.4941 342.961 98.2949C342.605 98.0918 342.332 97.8066 342.141 97.4395C341.953 97.0684 341.859 96.6309 341.859 96.127C341.859 95.7207 341.904 95.3203 341.994 94.9258C342.084 94.5273 342.217 94.1523 342.393 93.8008C342.568 93.4453 342.785 93.1328 343.043 92.8633C343.305 92.5898 343.605 92.377 343.945 92.2246C344.285 92.0684 344.664 91.9902 345.082 91.9902C345.582 91.9902 346.008 92.0918 346.359 92.2949C346.715 92.4941 346.986 92.7793 347.174 93.1504C347.365 93.5215 347.461 93.9609 347.461 94.4688C347.461 94.8672 347.416 95.2637 347.326 95.6582C347.24 96.0527 347.109 96.4277 346.934 96.7832C346.762 97.1348 346.545 97.4473 346.283 97.7207C346.025 97.9902 345.725 98.2031 345.381 98.3594C345.041 98.5156 344.658 98.5938 344.232 98.5938ZM344.291 97.7852C344.533 97.7852 344.764 97.7344 344.982 97.6328C345.201 97.5312 345.4 97.3848 345.58 97.1934C345.76 96.998 345.914 96.7617 346.043 96.4844C346.176 96.2031 346.277 95.8848 346.348 95.5293C346.422 95.1738 346.459 94.7832 346.459 94.3574C346.459 94.1035 346.414 93.8574 346.324 93.6191C346.234 93.3809 346.09 93.1855 345.891 93.0332C345.691 92.877 345.426 92.7988 345.094 92.7988C344.82 92.7988 344.566 92.8555 344.332 92.9688C344.102 93.082 343.895 93.2422 343.711 93.4492C343.527 93.6562 343.371 93.9004 343.242 94.1816C343.117 94.4629 343.02 94.7715 342.949 95.1074C342.883 95.4434 342.85 95.7969 342.85 96.168C342.85 96.6797 342.975 97.0781 343.225 97.3633C343.475 97.6445 343.83 97.7852 344.291 97.7852ZM348.375 98.5L349.74 92.0781H350.537L350.385 93.3203H350.443C350.607 93.0977 350.783 92.8828 350.971 92.6758C351.158 92.4648 351.371 92.293 351.609 92.1602C351.852 92.0273 352.129 91.9609 352.441 91.9609C352.559 91.9609 352.678 91.9688 352.799 91.9844C352.92 91.9961 353.033 92.0176 353.139 92.0488L352.928 92.9219C352.822 92.8984 352.719 92.8809 352.617 92.8691C352.52 92.8574 352.418 92.8516 352.312 92.8516C352.016 92.8516 351.74 92.9297 351.486 93.0859C351.232 93.2383 351.004 93.4434 350.801 93.7012C350.602 93.959 350.432 94.2461 350.291 94.5625C350.154 94.8789 350.051 95.2012 349.98 95.5293L349.354 98.5H348.375ZM358.219 98.6172C357.871 98.6172 357.566 98.5332 357.305 98.3652C357.043 98.1973 356.84 97.9492 356.695 97.6211C356.551 97.293 356.479 96.8926 356.479 96.4199C356.479 95.9473 356.527 95.4922 356.625 95.0547C356.727 94.6172 356.869 94.2109 357.053 93.8359C357.236 93.4609 357.457 93.1328 357.715 92.8516C357.977 92.5703 358.27 92.3516 358.594 92.1953C358.918 92.0391 359.268 91.9609 359.643 91.9609C359.932 91.9609 360.182 92.0156 360.393 92.125C360.607 92.2344 360.785 92.3789 360.926 92.5586C361.07 92.7344 361.184 92.9219 361.266 93.1211H361.324L361.699 92.0781H362.443L361.084 98.5H360.305L360.48 97.2578H360.434C360.258 97.4922 360.057 97.7129 359.83 97.9199C359.604 98.127 359.355 98.2949 359.086 98.4238C358.816 98.5527 358.527 98.6172 358.219 98.6172ZM358.535 97.8086C358.836 97.8086 359.133 97.6992 359.426 97.4805C359.723 97.2578 359.988 96.959 360.223 96.584C360.461 96.2051 360.643 95.7793 360.768 95.3066C360.83 95.0762 360.871 94.8652 360.891 94.6738C360.914 94.4785 360.926 94.2969 360.926 94.1289C360.926 93.7266 360.818 93.4023 360.604 93.1562C360.393 92.9062 360.104 92.7812 359.736 92.7812C359.475 92.7812 359.229 92.8477 358.998 92.9805C358.768 93.1094 358.559 93.291 358.371 93.5254C358.188 93.7559 358.029 94.0254 357.896 94.334C357.764 94.6387 357.66 94.9707 357.586 95.3301C357.516 95.6895 357.48 96.0586 357.48 96.4375C357.48 96.8867 357.572 97.2285 357.756 97.4629C357.939 97.6934 358.199 97.8086 358.535 97.8086ZM364.828 100.756C364.641 100.756 364.465 100.742 364.301 100.715C364.133 100.688 364.004 100.654 363.914 100.615L363.943 99.7598C364.068 99.7949 364.205 99.8223 364.354 99.8418C364.498 99.8652 364.65 99.877 364.811 99.877C365.061 99.877 365.287 99.8262 365.49 99.7246C365.689 99.623 365.861 99.4648 366.006 99.25C366.15 99.0352 366.258 98.7578 366.328 98.418L368.133 89.9336H369.123L367.301 98.5293C367.188 99.0566 367.018 99.4844 366.791 99.8125C366.564 100.141 366.285 100.379 365.953 100.527C365.625 100.68 365.25 100.756 364.828 100.756ZM369.861 98.6641C369.678 98.6641 369.535 98.6113 369.434 98.5059C369.332 98.4043 369.281 98.2598 369.281 98.0723C369.281 97.8262 369.35 97.6094 369.486 97.4219C369.627 97.2305 369.846 97.1348 370.143 97.1348C370.307 97.1348 370.439 97.1855 370.541 97.2871C370.643 97.3887 370.693 97.5371 370.693 97.7324C370.693 97.9629 370.625 98.1758 370.488 98.3711C370.352 98.5664 370.143 98.6641 369.861 98.6641ZM372.539 98.5L374.35 89.9336H376.277C376.883 89.9336 377.373 90.0254 377.748 90.209C378.123 90.3926 378.396 90.6504 378.568 90.9824C378.74 91.3145 378.826 91.7051 378.826 92.1543C378.826 92.627 378.746 93.0469 378.586 93.4141C378.43 93.7812 378.195 94.0918 377.883 94.3457C377.57 94.5996 377.182 94.793 376.717 94.9258C376.256 95.0547 375.721 95.1191 375.111 95.1191H374.238L373.523 98.5H372.539ZM374.42 94.2812H375.264C375.795 94.2812 376.25 94.2051 376.629 94.0527C377.012 93.9004 377.305 93.6699 377.508 93.3613C377.715 93.0488 377.818 92.6562 377.818 92.1836C377.818 91.6914 377.68 91.3359 377.402 91.1172C377.125 90.8945 376.703 90.7832 376.137 90.7832H375.164L374.42 94.2812ZM379.67 98.6641C379.486 98.6641 379.344 98.6113 379.242 98.5059C379.141 98.4043 379.09 98.2598 379.09 98.0723C379.09 97.8262 379.158 97.6094 379.295 97.4219C379.436 97.2305 379.654 97.1348 379.951 97.1348C380.115 97.1348 380.248 97.1855 380.35 97.2871C380.451 97.3887 380.502 97.5371 380.502 97.7324C380.502 97.9629 380.434 98.1758 380.297 98.3711C380.16 98.5664 379.951 98.6641 379.67 98.6641ZM382.336 98.5L384.146 89.9336H385.547L386.438 97.041H386.484L390.398 89.9336H391.916L390.135 98.5H389.139L390.264 93.1797C390.334 92.8594 390.402 92.5586 390.469 92.2773C390.535 91.9961 390.596 91.7402 390.65 91.5098C390.709 91.2754 390.762 91.0762 390.809 90.9121H390.785L386.566 98.5H385.787L384.814 90.918H384.768C384.752 91.0781 384.725 91.2832 384.686 91.5332C384.65 91.7793 384.607 92.043 384.557 92.3242C384.51 92.6016 384.459 92.8691 384.404 93.127L383.273 98.5H382.336ZM394.846 98.5938C394.354 98.5938 393.93 98.4941 393.574 98.2949C393.219 98.0918 392.945 97.8066 392.754 97.4395C392.566 97.0684 392.473 96.6309 392.473 96.127C392.473 95.7207 392.518 95.3203 392.607 94.9258C392.697 94.5273 392.83 94.1523 393.006 93.8008C393.182 93.4453 393.398 93.1328 393.656 92.8633C393.918 92.5898 394.219 92.377 394.559 92.2246C394.898 92.0684 395.277 91.9902 395.695 91.9902C396.195 91.9902 396.621 92.0918 396.973 92.2949C397.328 92.4941 397.6 92.7793 397.787 93.1504C397.979 93.5215 398.074 93.9609 398.074 94.4688C398.074 94.8672 398.029 95.2637 397.939 95.6582C397.854 96.0527 397.723 96.4277 397.547 96.7832C397.375 97.1348 397.158 97.4473 396.896 97.7207C396.639 97.9902 396.338 98.2031 395.994 98.3594C395.654 98.5156 395.271 98.5938 394.846 98.5938ZM394.904 97.7852C395.146 97.7852 395.377 97.7344 395.596 97.6328C395.814 97.5312 396.014 97.3848 396.193 97.1934C396.373 96.998 396.527 96.7617 396.656 96.4844C396.789 96.2031 396.891 95.8848 396.961 95.5293C397.035 95.1738 397.072 94.7832 397.072 94.3574C397.072 94.1035 397.027 93.8574 396.938 93.6191C396.848 93.3809 396.703 93.1855 396.504 93.0332C396.305 92.877 396.039 92.7988 395.707 92.7988C395.434 92.7988 395.18 92.8555 394.945 92.9688C394.715 93.082 394.508 93.2422 394.324 93.4492C394.141 93.6562 393.984 93.9004 393.855 94.1816C393.73 94.4629 393.633 94.7715 393.562 95.1074C393.496 95.4434 393.463 95.7969 393.463 96.168C393.463 96.6797 393.588 97.0781 393.838 97.3633C394.088 97.6445 394.443 97.7852 394.904 97.7852ZM398.988 98.5L400.354 92.0781H401.15L400.998 93.3203H401.057C401.221 93.0977 401.396 92.8828 401.584 92.6758C401.771 92.4648 401.984 92.293 402.223 92.1602C402.465 92.0273 402.742 91.9609 403.055 91.9609C403.172 91.9609 403.291 91.9688 403.412 91.9844C403.533 91.9961 403.646 92.0176 403.752 92.0488L403.541 92.9219C403.436 92.8984 403.332 92.8809 403.23 92.8691C403.133 92.8574 403.031 92.8516 402.926 92.8516C402.629 92.8516 402.354 92.9297 402.1 93.0859C401.846 93.2383 401.617 93.4434 401.414 93.7012C401.215 93.959 401.045 94.2461 400.904 94.5625C400.768 94.8789 400.664 95.2012 400.594 95.5293L399.967 98.5H398.988ZM405.252 101.383C404.498 101.383 403.908 101.238 403.482 100.949C403.057 100.664 402.844 100.262 402.844 99.7422C402.844 99.3242 402.986 98.9609 403.271 98.6523C403.553 98.3477 404.006 98.0918 404.631 97.8848C404.482 97.8066 404.369 97.709 404.291 97.5918C404.217 97.4707 404.18 97.332 404.18 97.1758C404.18 96.9102 404.277 96.6816 404.473 96.4902C404.668 96.2949 404.941 96.1152 405.293 95.9512C405.043 95.8223 404.842 95.6328 404.689 95.3828C404.537 95.1328 404.461 94.8457 404.461 94.5215C404.465 94.1348 404.531 93.7812 404.66 93.4609C404.789 93.1406 404.971 92.8672 405.205 92.6406C405.424 92.4297 405.68 92.2656 405.973 92.1484C406.27 92.0312 406.592 91.9727 406.939 91.9727C407.088 91.9727 407.236 91.9824 407.385 92.002C407.533 92.0215 407.68 92.0508 407.824 92.0898H409.992L409.852 92.6816L408.58 92.8105C408.67 92.9316 408.736 93.0742 408.779 93.2383C408.826 93.4023 408.848 93.584 408.844 93.7832C408.844 94.166 408.779 94.5117 408.65 94.8203C408.521 95.1289 408.338 95.3906 408.1 95.6055C407.885 95.7969 407.629 95.9453 407.332 96.0508C407.039 96.1523 406.711 96.2051 406.348 96.209C406.242 96.209 406.148 96.2051 406.066 96.1973C405.984 96.1895 405.914 96.1777 405.855 96.1621C405.57 96.2637 405.359 96.3828 405.223 96.5195C405.086 96.6562 405.018 96.8008 405.018 96.9531C405.018 97.0625 405.051 97.1504 405.117 97.2168C405.18 97.2754 405.266 97.3203 405.375 97.3516C405.488 97.3789 405.627 97.4023 405.791 97.4219L406.482 97.498C406.951 97.5527 407.334 97.6465 407.631 97.7793C407.928 97.9082 408.146 98.084 408.287 98.3066C408.428 98.5293 408.498 98.8047 408.498 99.1328C408.498 99.5469 408.402 99.9043 408.211 100.205C408.02 100.51 407.744 100.758 407.385 100.949C407.111 101.09 406.795 101.197 406.436 101.271C406.08 101.346 405.686 101.383 405.252 101.383ZM405.293 100.674C405.648 100.674 405.965 100.643 406.242 100.58C406.523 100.518 406.762 100.428 406.957 100.311C407.168 100.182 407.328 100.025 407.438 99.8418C407.551 99.6582 407.607 99.4473 407.607 99.209C407.607 99.1035 407.59 99.0078 407.555 98.9219C407.523 98.8359 407.473 98.7598 407.402 98.6934C407.293 98.5879 407.137 98.502 406.934 98.4355C406.73 98.3691 406.473 98.3223 406.16 98.2949L405.223 98.2012C404.895 98.2715 404.619 98.375 404.396 98.5117C404.178 98.6523 404.012 98.8184 403.898 99.0098C403.785 99.2012 403.729 99.416 403.729 99.6543C403.729 99.9746 403.861 100.225 404.127 100.404C404.393 100.584 404.781 100.674 405.293 100.674ZM406.389 95.5645C406.725 95.5645 407.008 95.4805 407.238 95.3125C407.473 95.1406 407.652 94.9141 407.777 94.6328C407.902 94.3477 407.965 94.0371 407.965 93.7012C407.965 93.5332 407.941 93.3848 407.895 93.2559C407.852 93.123 407.785 93.0137 407.695 92.9277C407.609 92.8379 407.5 92.7695 407.367 92.7227C407.238 92.6758 407.09 92.6523 406.922 92.6523C406.676 92.6523 406.455 92.7012 406.26 92.7988C406.064 92.8926 405.898 93.0234 405.762 93.1914C405.629 93.3594 405.525 93.5547 405.451 93.7773C405.381 94 405.346 94.2383 405.346 94.4922C405.346 94.6562 405.367 94.8027 405.41 94.9316C405.453 95.0605 405.516 95.1699 405.598 95.2598C405.777 95.4629 406.041 95.5645 406.389 95.5645ZM411.949 98.6172C411.602 98.6172 411.297 98.5332 411.035 98.3652C410.773 98.1973 410.57 97.9492 410.426 97.6211C410.281 97.293 410.209 96.8926 410.209 96.4199C410.209 95.9473 410.258 95.4922 410.355 95.0547C410.457 94.6172 410.6 94.2109 410.783 93.8359C410.967 93.4609 411.188 93.1328 411.445 92.8516C411.707 92.5703 412 92.3516 412.324 92.1953C412.648 92.0391 412.998 91.9609 413.373 91.9609C413.662 91.9609 413.912 92.0156 414.123 92.125C414.338 92.2344 414.516 92.3789 414.656 92.5586C414.801 92.7344 414.914 92.9219 414.996 93.1211H415.055L415.43 92.0781H416.174L414.814 98.5H414.035L414.211 97.2578H414.164C413.988 97.4922 413.787 97.7129 413.561 97.9199C413.334 98.127 413.086 98.2949 412.816 98.4238C412.547 98.5527 412.258 98.6172 411.949 98.6172ZM412.266 97.8086C412.566 97.8086 412.863 97.6992 413.156 97.4805C413.453 97.2578 413.719 96.959 413.953 96.584C414.191 96.2051 414.373 95.7793 414.498 95.3066C414.561 95.0762 414.602 94.8652 414.621 94.6738C414.645 94.4785 414.656 94.2969 414.656 94.1289C414.656 93.7266 414.549 93.4023 414.334 93.1562C414.123 92.9062 413.834 92.7812 413.467 92.7812C413.205 92.7812 412.959 92.8477 412.729 92.9805C412.498 93.1094 412.289 93.291 412.102 93.5254C411.918 93.7559 411.76 94.0254 411.627 94.334C411.494 94.6387 411.391 94.9707 411.316 95.3301C411.246 95.6895 411.211 96.0586 411.211 96.4375C411.211 96.8867 411.303 97.2285 411.486 97.4629C411.67 97.6934 411.93 97.8086 412.266 97.8086ZM416.713 98.5L418.09 92.0488H418.951L418.799 93.2852H418.811C418.959 93.082 419.137 92.877 419.344 92.6699C419.555 92.459 419.799 92.2832 420.076 92.1426C420.357 91.998 420.676 91.9258 421.031 91.9258C421.375 91.9258 421.67 91.9902 421.916 92.1191C422.162 92.2441 422.352 92.4277 422.484 92.6699C422.617 92.9082 422.684 93.1973 422.684 93.5371C422.684 93.7168 422.67 93.8984 422.643 94.082C422.615 94.2656 422.586 94.4297 422.555 94.5742L421.699 98.5H420.662L421.529 94.4453C421.564 94.2695 421.592 94.1191 421.611 93.9941C421.635 93.8691 421.646 93.752 421.646 93.6426C421.646 93.3691 421.572 93.1621 421.424 93.0215C421.275 92.8809 421.057 92.8105 420.768 92.8105C420.482 92.8105 420.182 92.9082 419.865 93.1035C419.549 93.2988 419.256 93.6074 418.986 94.0293C418.717 94.4473 418.508 94.9941 418.359 95.6699L417.756 98.5H416.713ZM426.188 101.371L428.15 92.0781H428.947L428.789 93.3262H428.83C429.014 93.084 429.215 92.8613 429.434 92.6582C429.656 92.4512 429.898 92.2852 430.16 92.1602C430.426 92.0352 430.715 91.9727 431.027 91.9727C431.379 91.9727 431.686 92.0566 431.947 92.2246C432.209 92.3887 432.412 92.6348 432.557 92.9629C432.705 93.2871 432.779 93.6914 432.779 94.1758C432.779 94.6367 432.732 95.0859 432.639 95.5234C432.549 95.957 432.416 96.3613 432.24 96.7363C432.064 97.1074 431.848 97.4355 431.59 97.7207C431.336 98.002 431.045 98.2227 430.717 98.3828C430.389 98.5391 430.027 98.6172 429.633 98.6172C429.332 98.6172 429.072 98.5645 428.854 98.459C428.639 98.3496 428.457 98.207 428.309 98.0312C428.164 97.8555 428.049 97.666 427.963 97.4629H427.91C427.895 97.6074 427.869 97.7969 427.834 98.0312C427.803 98.2617 427.77 98.4551 427.734 98.6113L427.148 101.371H426.188ZM429.562 97.8086C429.836 97.8086 430.086 97.7402 430.312 97.6035C430.543 97.4668 430.748 97.2812 430.928 97.0469C431.111 96.8086 431.266 96.5332 431.391 96.2207C431.52 95.9082 431.617 95.5762 431.684 95.2246C431.75 94.873 431.783 94.5156 431.783 94.1523C431.783 93.6992 431.691 93.3574 431.508 93.127C431.328 92.8965 431.059 92.7812 430.699 92.7812C430.512 92.7812 430.322 92.8281 430.131 92.9219C429.939 93.0117 429.754 93.1406 429.574 93.3086C429.395 93.4727 429.227 93.668 429.07 93.8945C428.914 94.1211 428.777 94.3711 428.66 94.6445C428.547 94.918 428.457 95.207 428.391 95.5117C428.324 95.8164 428.291 96.1289 428.291 96.4492C428.291 96.8594 428.395 97.1895 428.602 97.4395C428.812 97.6855 429.133 97.8086 429.562 97.8086ZM433.723 98.5L435.088 92.0781H435.885L435.732 93.3203H435.791C435.955 93.0977 436.131 92.8828 436.318 92.6758C436.506 92.4648 436.719 92.293 436.957 92.1602C437.199 92.0273 437.477 91.9609 437.789 91.9609C437.906 91.9609 438.025 91.9688 438.146 91.9844C438.268 91.9961 438.381 92.0176 438.486 92.0488L438.275 92.9219C438.17 92.8984 438.066 92.8809 437.965 92.8691C437.867 92.8574 437.766 92.8516 437.66 92.8516C437.363 92.8516 437.088 92.9297 436.834 93.0859C436.58 93.2383 436.352 93.4434 436.148 93.7012C435.949 93.959 435.779 94.2461 435.639 94.5625C435.502 94.8789 435.398 95.2012 435.328 95.5293L434.701 98.5H433.723ZM441.088 98.5938C440.596 98.5938 440.172 98.4941 439.816 98.2949C439.461 98.0918 439.188 97.8066 438.996 97.4395C438.809 97.0684 438.715 96.6309 438.715 96.127C438.715 95.7207 438.76 95.3203 438.85 94.9258C438.939 94.5273 439.072 94.1523 439.248 93.8008C439.424 93.4453 439.641 93.1328 439.898 92.8633C440.16 92.5898 440.461 92.377 440.801 92.2246C441.141 92.0684 441.52 91.9902 441.938 91.9902C442.438 91.9902 442.863 92.0918 443.215 92.2949C443.57 92.4941 443.842 92.7793 444.029 93.1504C444.221 93.5215 444.316 93.9609 444.316 94.4688C444.316 94.8672 444.271 95.2637 444.182 95.6582C444.096 96.0527 443.965 96.4277 443.789 96.7832C443.617 97.1348 443.4 97.4473 443.139 97.7207C442.881 97.9902 442.58 98.2031 442.236 98.3594C441.896 98.5156 441.514 98.5938 441.088 98.5938ZM441.146 97.7852C441.389 97.7852 441.619 97.7344 441.838 97.6328C442.057 97.5312 442.256 97.3848 442.436 97.1934C442.615 96.998 442.77 96.7617 442.898 96.4844C443.031 96.2031 443.133 95.8848 443.203 95.5293C443.277 95.1738 443.314 94.7832 443.314 94.3574C443.314 94.1035 443.27 93.8574 443.18 93.6191C443.09 93.3809 442.945 93.1855 442.746 93.0332C442.547 92.877 442.281 92.7988 441.949 92.7988C441.676 92.7988 441.422 92.8555 441.188 92.9688C440.957 93.082 440.75 93.2422 440.566 93.4492C440.383 93.6562 440.227 93.9004 440.098 94.1816C439.973 94.4629 439.875 94.7715 439.805 95.1074C439.738 95.4434 439.705 95.7969 439.705 96.168C439.705 96.6797 439.83 97.0781 440.08 97.3633C440.33 97.6445 440.686 97.7852 441.146 97.7852ZM447.217 98.6172C446.865 98.6172 446.559 98.5352 446.297 98.3711C446.035 98.207 445.832 97.9629 445.688 97.6387C445.543 97.3105 445.471 96.9043 445.471 96.4199C445.471 95.959 445.518 95.5117 445.611 95.0781C445.705 94.6406 445.84 94.2344 446.016 93.8594C446.195 93.4844 446.414 93.1562 446.672 92.875C446.93 92.5898 447.223 92.3691 447.551 92.2129C447.883 92.0527 448.246 91.9727 448.641 91.9727C448.941 91.9727 449.199 92.0273 449.414 92.1367C449.629 92.2461 449.807 92.3887 449.947 92.5645C450.092 92.7363 450.205 92.9219 450.287 93.1211H450.346C450.369 92.9414 450.393 92.7676 450.416 92.5996C450.439 92.4277 450.467 92.2539 450.498 92.0781C450.533 91.9023 450.572 91.7207 450.615 91.5332L451.066 89.3828H452.033L450.1 98.5H449.297L449.455 97.2578H449.414C449.227 97.5 449.021 97.7246 448.799 97.9316C448.58 98.1387 448.34 98.3047 448.078 98.4297C447.816 98.5547 447.529 98.6172 447.217 98.6172ZM447.545 97.8086C447.729 97.8086 447.914 97.7637 448.102 97.6738C448.293 97.584 448.479 97.457 448.658 97.293C448.838 97.125 449.006 96.9277 449.162 96.7012C449.318 96.4746 449.455 96.2246 449.572 95.9512C449.693 95.6777 449.787 95.3887 449.854 95.084C449.92 94.7793 449.953 94.4648 449.953 94.1406C449.953 93.7266 449.854 93.3965 449.654 93.1504C449.455 92.9043 449.137 92.7812 448.699 92.7812C448.43 92.7812 448.18 92.8496 447.949 92.9863C447.723 93.123 447.518 93.3105 447.334 93.5488C447.15 93.7871 446.994 94.0625 446.865 94.375C446.74 94.6836 446.643 95.0156 446.572 95.3711C446.506 95.7227 446.473 96.0781 446.473 96.4375C446.473 96.8867 446.562 97.2285 446.742 97.4629C446.922 97.6934 447.189 97.8086 447.545 97.8086ZM454.096 98.6172C453.771 98.6172 453.488 98.5566 453.246 98.4355C453.004 98.3145 452.816 98.1367 452.684 97.9023C452.555 97.6641 452.49 97.373 452.49 97.0293C452.49 96.8574 452.502 96.6914 452.525 96.5312C452.553 96.3672 452.582 96.1973 452.613 96.0215L453.463 92.0781H454.447L453.574 96.1328C453.543 96.3008 453.518 96.4512 453.498 96.584C453.482 96.7129 453.475 96.8281 453.475 96.9297C453.475 97.207 453.545 97.4238 453.686 97.5801C453.83 97.7324 454.059 97.8086 454.371 97.8086C454.664 97.8086 454.971 97.709 455.291 97.5098C455.615 97.3105 455.914 96.998 456.188 96.5723C456.465 96.1426 456.676 95.5859 456.82 94.9023L457.418 92.0781H458.379L457.02 98.5H456.217L456.375 97.2578H456.322C456.174 97.4609 455.994 97.668 455.783 97.8789C455.572 98.0859 455.328 98.2617 455.051 98.4062C454.773 98.5469 454.455 98.6172 454.096 98.6172ZM461.707 98.6172C461.23 98.6172 460.812 98.5273 460.453 98.3477C460.098 98.1641 459.82 97.8945 459.621 97.5391C459.426 97.1836 459.328 96.7422 459.328 96.2148C459.328 95.7578 459.377 95.3184 459.475 94.8965C459.576 94.4746 459.723 94.0859 459.914 93.7305C460.105 93.375 460.338 93.0645 460.611 92.7988C460.885 92.5332 461.195 92.3281 461.543 92.1836C461.895 92.0352 462.277 91.9609 462.691 91.9609C462.969 91.9609 463.244 91.9883 463.518 92.043C463.795 92.0938 464.045 92.168 464.268 92.2656L463.992 93.0859C463.828 93.0078 463.635 92.9375 463.412 92.875C463.189 92.8125 462.951 92.7812 462.697 92.7812C462.342 92.7812 462.018 92.8711 461.725 93.0508C461.436 93.2305 461.186 93.4805 460.975 93.8008C460.768 94.1172 460.607 94.4805 460.494 94.8906C460.381 95.3008 460.324 95.7383 460.324 96.2031C460.324 96.5352 460.383 96.8223 460.5 97.0645C460.617 97.3027 460.785 97.4863 461.004 97.6152C461.227 97.7441 461.492 97.8086 461.801 97.8086C462.086 97.8086 462.354 97.7695 462.604 97.6914C462.857 97.6133 463.105 97.5195 463.348 97.4102V98.2422C463.133 98.3516 462.887 98.4414 462.609 98.5117C462.336 98.582 462.035 98.6172 461.707 98.6172ZM466.348 98.6172C465.922 98.6172 465.566 98.5156 465.281 98.3125C465 98.1055 464.859 97.752 464.859 97.252C464.859 97.1309 464.867 97 464.883 96.8594C464.898 96.7148 464.924 96.5664 464.959 96.4141L465.715 92.8223H464.725L464.818 92.3711L465.885 91.9609L466.588 90.6016H467.168L466.846 92.0781H468.498L468.346 92.8223H466.699L465.938 96.4258C465.91 96.5352 465.885 96.6523 465.861 96.7773C465.842 96.9023 465.832 97.0215 465.832 97.1348C465.832 97.3301 465.883 97.4941 465.984 97.627C466.086 97.7559 466.256 97.8203 466.494 97.8203C466.643 97.8203 466.783 97.8066 466.916 97.7793C467.053 97.752 467.197 97.7129 467.35 97.6621V98.4121C467.252 98.459 467.104 98.5039 466.904 98.5469C466.709 98.5938 466.523 98.6172 466.348 98.6172Z" fill="#61656E"/>
<g filter="url(#filter0_d_1137_11045)">
<path fill-rule="evenodd" clip-rule="evenodd" d="M541.25 112.75C541.25 118.964 536.214 124 530 124V112.75H518.75C518.75 106.536 523.786 101.5 530 101.5V112.75H541.25Z" fill="#4CC5FA"/>
<path fill-rule="evenodd" clip-rule="evenodd" d="M518.75 112.75H530V101.5C536.214 101.5 541.25 106.536 541.25 112.75H530V124C523.786 124 518.75 118.964 518.75 112.75Z" fill="#3482E5"/>
<path fill-rule="evenodd" clip-rule="evenodd" d="M517.5 104.625V84.625L532 99.1351H523.192L523.003 99.29L517.5 104.625Z" fill="white"/>
<path fill-rule="evenodd" clip-rule="evenodd" d="M518.75 87.5V101.5L522.461 97.9137L522.661 97.7397L528.956 97.75L518.75 87.5Z" fill="black"/>
</g>
<defs>
<filter id="filter0_d_1137_11045" x="515.7" y="83.825" width="27.35" height="42.975" filterUnits="userSpaceOnUse" color-interpolation-filters="sRGB">
<feFlood flood-opacity="0" result="BackgroundImageFix"/>
<feColorMatrix in="SourceAlpha" type="matrix" values="0 0 0 0 0 0 0 0 0 0 0 0 0 0 0 0 0 0 127 0" result="hardAlpha"/>
<feOffset dy="1"/>
<feGaussianBlur stdDeviation="0.9"/>
<feColorMatrix type="matrix" values="0 0 0 0 0 0 0 0 0 0 0 0 0 0 0 0 0 0 0.65 0"/>
<feBlend mode="normal" in2="BackgroundImageFix" result="effect1_dropShadow_1137_11045"/>
<feBlend mode="normal" in="SourceGraphic" in2="effect1_dropShadow_1137_11045" result="shape"/>
</filter>
</defs>
</svg>
