<svg width="889" height="668" viewBox="0 0 889 668" fill="none" xmlns="http://www.w3.org/2000/svg">
<rect width="889" height="668" fill="#F2F4F6"/>
<rect x="65.0733" y="49.9067" width="758.853" height="568.187" fill="white"/>
<rect x="63.1667" y="48" width="762.667" height="45.76" fill="#C5C9D0"/>
<rect x="301.5" y="131.893" width="95.3333" height="7.62667" rx="3.81333" fill="#84878E"/>
<rect width="286" height="28.6" transform="translate(301.5 150.96)" fill="#EAEDEF"/>
<rect x="301.5" y="179.56" width="286" height="1.90667" fill="#84878E"/>
<rect x="301.5" y="189.093" width="76.2667" height="5.72" rx="2.86" fill="#C5C9D0"/>
<rect x="301.5" y="225.32" width="95.3333" height="7.62667" rx="3.81333" fill="#84878E"/>
<rect width="286" height="28.6" transform="translate(301.5 244.387)" fill="#EAEDEF"/>
<rect x="301.5" y="272.987" width="286" height="1.90667" fill="#84878E"/>
<rect x="301.5" y="282.52" width="76.2667" height="5.72" rx="2.86" fill="#C5C9D0"/>
<rect x="301.5" y="318.747" width="95.3333" height="7.62667" rx="3.81333" fill="#84878E"/>
<rect width="286" height="28.6" transform="translate(301.5 337.813)" fill="#EAEDEF"/>
<rect x="301.5" y="366.413" width="286" height="1.90667" fill="#84878E"/>
<rect x="301.5" y="375.947" width="76.2667" height="5.72" rx="2.86" fill="#C5C9D0"/>
<rect x="301.5" y="412.173" width="95.3333" height="7.62667" rx="3.81333" fill="#84878E"/>
<rect width="286" height="28.6" transform="translate(301.5 431.24)" fill="#EAEDEF"/>
<rect x="301.5" y="459.84" width="286" height="1.90667" fill="#84878E"/>
<rect x="301.5" y="469.373" width="76.2667" height="5.72" rx="2.86" fill="#C5C9D0"/>
<rect width="106.067" height="30.5067" transform="translate(301.5 505.6)" fill="#155C93"/>
<rect width="107.067" height="30.5067" transform="translate(417.1 505.6)" fill="#C5C9D0"/>
<rect x="65.0733" y="49.9067" width="758.853" height="568.187" stroke="#C5C9D0" stroke-width="3.81333"/>
<rect x="67.1667" y="94" width="755" height="522" fill="black" fill-opacity="0.1"/>
<g clip-path="url(#clip0_1137_11050)">
<path fill-rule="evenodd" clip-rule="evenodd" d="M470.243 334C470.243 328.843 468.714 323.801 465.848 319.513C462.983 315.224 458.911 311.882 454.146 309.908C449.381 307.935 444.138 307.418 439.079 308.425C434.021 309.431 429.375 311.914 425.728 315.561C422.081 319.208 419.597 323.854 418.591 328.913C417.585 333.971 418.101 339.214 420.075 343.979C422.049 348.744 425.391 352.816 429.679 355.682C433.968 358.547 439.009 360.076 444.167 360.076V370C442.147 370 440.14 369.83 438.167 369.496C433.182 368.654 428.407 366.767 424.166 363.933C418.246 359.977 413.632 354.355 410.907 347.777C408.182 341.198 407.469 333.96 408.858 326.977C410.247 319.993 413.676 313.579 418.711 308.544C423.746 303.509 430.16 300.081 437.143 298.692C444.127 297.303 451.365 298.016 457.943 300.74C464.521 303.465 470.144 308.079 474.1 313.999C476.933 318.24 478.821 323.015 479.663 328C479.997 329.974 480.167 331.98 480.167 334H470.243Z" fill="url(#paint0_angular_1137_11050)"/>
</g>
<defs>
<radialGradient id="paint0_angular_1137_11050" cx="0" cy="0" r="1" gradientUnits="userSpaceOnUse" gradientTransform="translate(444.167 334) rotate(78.6901) scale(36.7129)">
<stop stop-color="#2670A9"/>
<stop offset="0.0001" stop-color="#338DCD" stop-opacity="0"/>
<stop offset="0.046875" stop-color="#2670A9" stop-opacity="0"/>
<stop offset="0.25" stop-color="#2670A9"/>
</radialGradient>
<clipPath id="clip0_1137_11050">
<rect width="72" height="72" fill="white" transform="translate(408.167 298)"/>
</clipPath>
</defs>
</svg>
