<svg width="889" height="211" viewBox="0 0 889 211" fill="none" xmlns="http://www.w3.org/2000/svg">
<rect width="889" height="211" fill="#F2F4F6"/>
<rect width="57.2984" height="20" transform="translate(326.194 125)" fill="#C5C9D0"/>
<path d="M342.067 139H340.783V135.455H337.163V139H335.874V131.147H337.163V134.359H340.783V131.147H342.067V139ZM351.717 135.063C351.717 135.668 351.64 136.22 351.486 136.717C351.336 137.211 351.108 137.638 350.804 137.996C350.5 138.35 350.118 138.624 349.66 138.817C349.202 139.011 348.665 139.107 348.049 139.107C347.422 139.107 346.878 139.011 346.416 138.817C345.958 138.624 345.576 138.348 345.272 137.99C344.971 137.632 344.746 137.204 344.595 136.707C344.445 136.209 344.37 135.657 344.37 135.052C344.37 134.243 344.502 133.538 344.767 132.936C345.036 132.331 345.442 131.862 345.986 131.529C346.534 131.192 347.225 131.024 348.059 131.024C348.876 131.024 349.554 131.19 350.095 131.523C350.636 131.856 351.04 132.326 351.309 132.931C351.581 133.532 351.717 134.243 351.717 135.063ZM345.723 135.063C345.723 135.668 345.805 136.193 345.97 136.637C346.135 137.077 346.387 137.417 346.727 137.657C347.071 137.894 347.512 138.012 348.049 138.012C348.589 138.012 349.03 137.894 349.37 137.657C349.71 137.417 349.961 137.077 350.122 136.637C350.283 136.193 350.364 135.668 350.364 135.063C350.364 134.143 350.179 133.423 349.81 132.904C349.445 132.381 348.862 132.12 348.059 132.12C347.522 132.12 347.08 132.238 346.733 132.474C346.389 132.71 346.135 133.049 345.97 133.489C345.805 133.926 345.723 134.451 345.723 135.063ZM359.826 131.147L357.081 139H355.717L352.972 131.147H354.294L355.948 136.067C355.998 136.211 356.052 136.384 356.109 136.588C356.17 136.792 356.226 136.998 356.276 137.206C356.329 137.414 356.371 137.598 356.399 137.759C356.428 137.598 356.467 137.414 356.517 137.206C356.571 136.998 356.627 136.792 356.684 136.588C356.741 136.384 356.795 136.209 356.845 136.062L358.505 131.147H359.826ZM365.904 139H361.457V131.147H365.904V132.232H362.746V134.365H365.706V135.444H362.746V137.91H365.904V139ZM370.409 131.147C371.086 131.147 371.645 131.23 372.085 131.395C372.529 131.559 372.858 131.81 373.073 132.146C373.292 132.483 373.401 132.911 373.401 133.43C373.401 133.817 373.329 134.146 373.186 134.418C373.043 134.691 372.855 134.916 372.622 135.095C372.389 135.274 372.141 135.417 371.876 135.525L374.105 139H372.649L370.753 135.853H369.491V139H368.202V131.147H370.409ZM370.323 132.222H369.491V134.789H370.382C370.98 134.789 371.414 134.678 371.682 134.456C371.954 134.234 372.09 133.906 372.09 133.473C372.09 133.018 371.945 132.696 371.655 132.506C371.369 132.317 370.925 132.222 370.323 132.222Z" fill="#161616"/>
<g filter="url(#filter0_d_1137_11017)">
<path d="M359.266 169.03C359.441 169.451 359.273 171.045 358.343 171.414C357.413 171.784 356.225 171.414 356.225 171.414L354.069 167.102L350.343 170.828V154L361.757 165.414H357.504C357.713 165.814 359.043 168.495 359.266 169.03Z" fill="white"/>
<path fill-rule="evenodd" clip-rule="evenodd" d="M351.343 156.414V168.414L354.343 165.414L356.843 170.414C356.843 170.414 357.519 170.63 357.843 170.414C358.166 170.198 358.488 169.764 358.343 169.414C357.655 167.764 355.843 164.414 355.843 164.414H359.343L351.343 156.414Z" fill="black"/>
</g>
<rect width="57.2984" height="20" transform="translate(478.492 125)" fill="#D9DDE3"/>
<path d="M494.365 139H493.082V135.455H489.461V139H488.172V131.147H489.461V134.359H493.082V131.147H494.365V139ZM504.016 135.063C504.016 135.668 503.939 136.22 503.785 136.717C503.634 137.211 503.407 137.638 503.102 137.996C502.798 138.35 502.417 138.624 501.958 138.817C501.5 139.011 500.963 139.107 500.347 139.107C499.72 139.107 499.176 139.011 498.714 138.817C498.256 138.624 497.875 138.348 497.57 137.99C497.269 137.632 497.044 137.204 496.893 136.707C496.743 136.209 496.668 135.657 496.668 135.052C496.668 134.243 496.8 133.538 497.065 132.936C497.334 132.331 497.74 131.862 498.285 131.529C498.832 131.192 499.523 131.024 500.358 131.024C501.174 131.024 501.853 131.19 502.393 131.523C502.934 131.856 503.339 132.326 503.607 132.931C503.879 133.532 504.016 134.243 504.016 135.063ZM498.021 135.063C498.021 135.668 498.104 136.193 498.268 136.637C498.433 137.077 498.686 137.417 499.026 137.657C499.37 137.894 499.81 138.012 500.347 138.012C500.888 138.012 501.328 137.894 501.668 137.657C502.009 137.417 502.259 137.077 502.42 136.637C502.581 136.193 502.662 135.668 502.662 135.063C502.662 134.143 502.478 133.423 502.109 132.904C501.744 132.381 501.16 132.12 500.358 132.12C499.821 132.12 499.378 132.238 499.031 132.474C498.687 132.71 498.433 133.049 498.268 133.489C498.104 133.926 498.021 134.451 498.021 135.063ZM512.124 131.147L509.38 139H508.015L505.271 131.147H506.592L508.246 136.067C508.297 136.211 508.35 136.384 508.408 136.588C508.468 136.792 508.524 136.998 508.574 137.206C508.628 137.414 508.669 137.598 508.698 137.759C508.726 137.598 508.766 137.414 508.816 137.206C508.869 136.998 508.925 136.792 508.982 136.588C509.04 136.384 509.093 136.209 509.143 136.062L510.803 131.147H512.124ZM518.203 139H513.756V131.147H518.203V132.232H515.045V134.365H518.004V135.444H515.045V137.91H518.203V139ZM522.708 131.147C523.384 131.147 523.943 131.23 524.383 131.395C524.827 131.559 525.157 131.81 525.372 132.146C525.59 132.483 525.699 132.911 525.699 133.43C525.699 133.817 525.628 134.146 525.484 134.418C525.341 134.691 525.153 134.916 524.921 135.095C524.688 135.274 524.439 135.417 524.174 135.525L526.403 139H524.947L523.051 135.853H521.789V139H520.5V131.147H522.708ZM522.622 132.222H521.789V134.789H522.681C523.279 134.789 523.712 134.678 523.981 134.456C524.253 134.234 524.389 133.906 524.389 133.473C524.389 133.018 524.244 132.696 523.954 132.506C523.667 132.317 523.223 132.222 522.622 132.222Z" fill="#161616"/>
<g filter="url(#filter1_d_1137_11017)">
<rect width="80" height="32" transform="translate(467.492 86)" fill="white"/>
<path d="M479.295 107H478.293V99.3125H475.597V98.4336H481.978V99.3125H479.295V107ZM488.664 103.777C488.664 104.305 488.595 104.775 488.459 105.189C488.322 105.604 488.125 105.953 487.867 106.238C487.609 106.523 487.297 106.742 486.929 106.895C486.566 107.043 486.154 107.117 485.693 107.117C485.263 107.117 484.869 107.043 484.509 106.895C484.154 106.742 483.845 106.523 483.584 106.238C483.326 105.953 483.125 105.604 482.98 105.189C482.84 104.775 482.769 104.305 482.769 103.777C482.769 103.074 482.888 102.477 483.127 101.984C483.365 101.488 483.705 101.111 484.146 100.854C484.592 100.592 485.121 100.461 485.734 100.461C486.32 100.461 486.832 100.592 487.269 100.854C487.711 101.115 488.052 101.494 488.295 101.99C488.541 102.482 488.664 103.078 488.664 103.777ZM483.777 103.777C483.777 104.293 483.845 104.74 483.982 105.119C484.119 105.498 484.33 105.791 484.615 105.998C484.9 106.205 485.267 106.309 485.717 106.309C486.162 106.309 486.527 106.205 486.812 105.998C487.101 105.791 487.314 105.498 487.451 105.119C487.588 104.74 487.656 104.293 487.656 103.777C487.656 103.266 487.588 102.824 487.451 102.453C487.314 102.078 487.103 101.789 486.818 101.586C486.533 101.383 486.164 101.281 485.711 101.281C485.043 101.281 484.552 101.502 484.24 101.943C483.931 102.385 483.777 102.996 483.777 103.777ZM495.883 103.777C495.883 104.305 495.814 104.775 495.677 105.189C495.541 105.604 495.343 105.953 495.086 106.238C494.828 106.523 494.515 106.742 494.148 106.895C493.785 107.043 493.373 107.117 492.912 107.117C492.482 107.117 492.088 107.043 491.728 106.895C491.373 106.742 491.064 106.523 490.802 106.238C490.545 105.953 490.343 105.604 490.199 105.189C490.058 104.775 489.988 104.305 489.988 103.777C489.988 103.074 490.107 102.477 490.345 101.984C490.584 101.488 490.924 101.111 491.365 100.854C491.81 100.592 492.34 100.461 492.953 100.461C493.539 100.461 494.051 100.592 494.488 100.854C494.929 101.115 495.271 101.494 495.513 101.99C495.759 102.482 495.883 103.078 495.883 103.777ZM490.996 103.777C490.996 104.293 491.064 104.74 491.201 105.119C491.338 105.498 491.549 105.791 491.834 105.998C492.119 106.205 492.486 106.309 492.935 106.309C493.381 106.309 493.746 106.205 494.031 105.998C494.32 105.791 494.533 105.498 494.67 105.119C494.806 104.74 494.875 104.293 494.875 103.777C494.875 103.266 494.806 102.824 494.67 102.453C494.533 102.078 494.322 101.789 494.037 101.586C493.752 101.383 493.383 101.281 492.929 101.281C492.261 101.281 491.771 101.502 491.459 101.943C491.15 102.385 490.996 102.996 490.996 103.777ZM498.543 107H497.564V97.8828H498.543V107ZM502.674 106.32C502.834 106.32 502.998 106.307 503.166 106.279C503.334 106.252 503.47 106.219 503.576 106.18V106.936C503.463 106.986 503.304 107.029 503.101 107.064C502.902 107.1 502.707 107.117 502.515 107.117C502.176 107.117 501.867 107.059 501.59 106.941C501.312 106.82 501.09 106.617 500.922 106.332C500.758 106.047 500.676 105.652 500.676 105.148V101.34H499.761V100.865L500.681 100.484L501.068 99.0898H501.654V100.578H503.535V101.34H501.654V105.119C501.654 105.521 501.746 105.822 501.929 106.021C502.117 106.221 502.365 106.32 502.674 106.32ZM505.849 100.578V107H504.877V100.578H505.849ZM505.375 98.1758C505.535 98.1758 505.672 98.2285 505.785 98.334C505.902 98.4355 505.961 98.5957 505.961 98.8145C505.961 99.0293 505.902 99.1895 505.785 99.2949C505.672 99.4004 505.535 99.4531 505.375 99.4531C505.207 99.4531 505.066 99.4004 504.953 99.2949C504.843 99.1895 504.789 99.0293 504.789 98.8145C504.789 98.5957 504.843 98.4355 504.953 98.334C505.066 98.2285 505.207 98.1758 505.375 98.1758ZM510.929 100.461C511.73 100.461 512.369 100.736 512.845 101.287C513.322 101.838 513.56 102.666 513.56 103.771C513.56 104.502 513.451 105.115 513.232 105.611C513.013 106.107 512.705 106.482 512.306 106.736C511.912 106.99 511.445 107.117 510.906 107.117C510.566 107.117 510.267 107.072 510.009 106.982C509.752 106.893 509.531 106.771 509.347 106.619C509.164 106.467 509.011 106.301 508.89 106.121H508.82C508.832 106.273 508.845 106.457 508.861 106.672C508.881 106.887 508.89 107.074 508.89 107.234V109.871H507.912V100.578H508.715L508.843 101.527H508.89C509.015 101.332 509.168 101.154 509.347 100.994C509.527 100.83 509.746 100.701 510.004 100.607C510.265 100.51 510.574 100.461 510.929 100.461ZM510.759 101.281C510.314 101.281 509.955 101.367 509.681 101.539C509.412 101.711 509.215 101.969 509.09 102.312C508.965 102.652 508.898 103.08 508.89 103.596V103.783C508.89 104.326 508.949 104.785 509.066 105.16C509.187 105.535 509.384 105.82 509.658 106.016C509.935 106.211 510.306 106.309 510.771 106.309C511.17 106.309 511.502 106.201 511.767 105.986C512.033 105.771 512.23 105.473 512.359 105.09C512.492 104.703 512.558 104.26 512.558 103.76C512.558 103.002 512.41 102.4 512.113 101.955C511.82 101.506 511.369 101.281 510.759 101.281ZM520.451 106.32C520.611 106.32 520.775 106.307 520.943 106.279C521.111 106.252 521.248 106.219 521.353 106.18V106.936C521.24 106.986 521.082 107.029 520.879 107.064C520.679 107.1 520.484 107.117 520.293 107.117C519.953 107.117 519.644 107.059 519.367 106.941C519.09 106.82 518.867 106.617 518.699 106.332C518.535 106.047 518.453 105.652 518.453 105.148V101.34H517.539V100.865L518.459 100.484L518.845 99.0898H519.431V100.578H521.312V101.34H519.431V105.119C519.431 105.521 519.523 105.822 519.707 106.021C519.894 106.221 520.142 106.32 520.451 106.32ZM525.127 100.461C525.674 100.461 526.142 100.582 526.533 100.824C526.924 101.066 527.222 101.406 527.429 101.844C527.636 102.277 527.74 102.785 527.74 103.367V103.971H523.304C523.316 104.725 523.504 105.299 523.867 105.693C524.23 106.088 524.742 106.285 525.402 106.285C525.808 106.285 526.168 106.248 526.48 106.174C526.793 106.1 527.117 105.99 527.453 105.846V106.701C527.129 106.846 526.806 106.951 526.486 107.018C526.17 107.084 525.795 107.117 525.361 107.117C524.744 107.117 524.205 106.992 523.744 106.742C523.287 106.488 522.931 106.117 522.677 105.629C522.424 105.141 522.297 104.543 522.297 103.836C522.297 103.145 522.412 102.547 522.642 102.043C522.877 101.535 523.205 101.145 523.627 100.871C524.052 100.598 524.552 100.461 525.127 100.461ZM525.115 101.258C524.595 101.258 524.181 101.428 523.873 101.768C523.564 102.107 523.381 102.582 523.322 103.191H526.72C526.717 102.809 526.656 102.473 526.539 102.184C526.426 101.891 526.252 101.664 526.017 101.504C525.783 101.34 525.482 101.258 525.115 101.258ZM530.922 103.713L528.701 100.578H529.814L531.508 103.051L533.195 100.578H534.297L532.076 103.713L534.42 107H533.306L531.508 104.381L529.697 107H528.595L530.922 103.713ZM537.748 106.32C537.908 106.32 538.072 106.307 538.24 106.279C538.408 106.252 538.545 106.219 538.65 106.18V106.936C538.537 106.986 538.379 107.029 538.176 107.064C537.976 107.1 537.781 107.117 537.59 107.117C537.25 107.117 536.941 107.059 536.664 106.941C536.386 106.82 536.164 106.617 535.996 106.332C535.832 106.047 535.75 105.652 535.75 105.148V101.34H534.836V100.865L535.756 100.484L536.142 99.0898H536.728V100.578H538.609V101.34H536.728V105.119C536.728 105.521 536.82 105.822 537.004 106.021C537.191 106.221 537.439 106.32 537.748 106.32Z" fill="#161616"/>
<path fill-rule="evenodd" clip-rule="evenodd" d="M507.492 123L502.492 118H512.492L507.492 123Z" fill="white"/>
<path d="M513.492 118.5C513.492 118.5 512.825 118.5 512.492 118.5L507.492 123.5L502.492 118.5H501.492" stroke="#2670A9"/>
<rect x="466.992" y="85.5" width="81" height="33.001" stroke="#2670A9"/>
</g>
<rect width="128" height="20" transform="translate(444.149 38)" fill="#964EA2"/>
<path d="M453.46 53.1172C452.647 53.1172 452.003 52.8398 451.526 52.2852C451.053 51.7305 450.817 50.9062 450.817 49.8125C450.817 48.707 451.059 47.873 451.544 47.3105C452.028 46.7441 452.673 46.4609 453.477 46.4609C453.817 46.4609 454.114 46.5059 454.368 46.5957C454.622 46.6855 454.841 46.8066 455.024 46.959C455.208 47.1074 455.362 47.2773 455.487 47.4688H455.557C455.542 47.3477 455.526 47.1816 455.51 46.9707C455.495 46.7598 455.487 46.5879 455.487 46.4551V43.8828H456.46V53H455.675L455.528 52.0859H455.487C455.366 52.2773 455.212 52.4512 455.024 52.6074C454.841 52.7637 454.62 52.8887 454.362 52.9824C454.108 53.0723 453.807 53.1172 453.46 53.1172ZM453.612 52.3086C454.3 52.3086 454.786 52.1133 455.071 51.7227C455.356 51.332 455.499 50.752 455.499 49.9824V49.8066C455.499 48.9902 455.362 48.3633 455.089 47.9258C454.819 47.4883 454.327 47.2695 453.612 47.2695C453.014 47.2695 452.567 47.5 452.27 47.9609C451.973 48.418 451.825 49.043 451.825 49.8359C451.825 50.625 451.971 51.2344 452.264 51.6641C452.561 52.0938 453.01 52.3086 453.612 52.3086ZM463.825 46.5781V53H463.028L462.887 52.0977H462.835C462.702 52.3203 462.53 52.5078 462.319 52.6602C462.108 52.8125 461.87 52.9258 461.604 53C461.343 53.0781 461.063 53.1172 460.766 53.1172C460.259 53.1172 459.833 53.0352 459.489 52.8711C459.145 52.707 458.885 52.4531 458.71 52.1094C458.538 51.7656 458.452 51.3242 458.452 50.7852V46.5781H459.436V50.7148C459.436 51.25 459.557 51.6504 459.8 51.916C460.042 52.1777 460.411 52.3086 460.907 52.3086C461.384 52.3086 461.762 52.2188 462.044 52.0391C462.329 51.8594 462.534 51.5957 462.659 51.248C462.784 50.8965 462.846 50.4668 462.846 49.959V46.5781H463.825ZM468.8 46.4609C468.928 46.4609 469.063 46.4688 469.204 46.4844C469.344 46.4961 469.469 46.5137 469.579 46.5371L469.456 47.4395C469.35 47.4121 469.233 47.3906 469.104 47.375C468.975 47.3594 468.854 47.3516 468.741 47.3516C468.483 47.3516 468.239 47.4043 468.009 47.5098C467.782 47.6113 467.583 47.7598 467.411 47.9551C467.239 48.1465 467.104 48.3789 467.007 48.6523C466.909 48.9219 466.86 49.2227 466.86 49.5547V53H465.882V46.5781H466.69L466.796 47.7617H466.837C466.969 47.5234 467.13 47.3066 467.317 47.1113C467.505 46.9121 467.721 46.7539 467.968 46.6367C468.218 46.5195 468.495 46.4609 468.8 46.4609ZM473.194 46.4727C473.96 46.4727 474.528 46.6445 474.899 46.9883C475.27 47.332 475.456 47.8809 475.456 48.6348V53H474.747L474.559 52.0508H474.512C474.333 52.2852 474.145 52.4824 473.95 52.6426C473.755 52.7988 473.528 52.918 473.27 53C473.016 53.0781 472.704 53.1172 472.333 53.1172C471.942 53.1172 471.594 53.0488 471.29 52.9121C470.989 52.7754 470.751 52.5684 470.575 52.291C470.403 52.0137 470.317 51.6621 470.317 51.2363C470.317 50.5957 470.571 50.1035 471.079 49.7598C471.587 49.416 472.36 49.2285 473.399 49.1973L474.507 49.1504V48.7578C474.507 48.2031 474.387 47.8145 474.149 47.5918C473.911 47.3691 473.575 47.2578 473.141 47.2578C472.805 47.2578 472.485 47.3066 472.18 47.4043C471.876 47.502 471.587 47.6172 471.313 47.75L471.014 47.0117C471.303 46.8633 471.635 46.7363 472.01 46.6309C472.385 46.5254 472.78 46.4727 473.194 46.4727ZM474.495 49.8359L473.516 49.877C472.716 49.9082 472.151 50.0391 471.823 50.2695C471.495 50.5 471.331 50.8262 471.331 51.248C471.331 51.6152 471.442 51.8867 471.665 52.0625C471.887 52.2383 472.182 52.3262 472.55 52.3262C473.12 52.3262 473.587 52.168 473.95 51.8516C474.313 51.5352 474.495 51.0605 474.495 50.4277V49.8359ZM479.534 52.3203C479.694 52.3203 479.858 52.3066 480.026 52.2793C480.194 52.252 480.331 52.2187 480.436 52.1797V52.9355C480.323 52.9863 480.165 53.0293 479.962 53.0645C479.762 53.0996 479.567 53.1172 479.376 53.1172C479.036 53.1172 478.727 53.0586 478.45 52.9414C478.173 52.8203 477.95 52.6172 477.782 52.332C477.618 52.0469 477.536 51.6523 477.536 51.1484V47.3398H476.622V46.8652L477.542 46.4844L477.928 45.0898H478.514V46.5781H480.395V47.3398H478.514V51.1191C478.514 51.5215 478.606 51.8223 478.79 52.0215C478.977 52.2207 479.225 52.3203 479.534 52.3203ZM482.71 46.5781V53H481.737V46.5781H482.71ZM482.235 44.1758C482.395 44.1758 482.532 44.2285 482.645 44.334C482.762 44.4355 482.821 44.5957 482.821 44.8145C482.821 45.0293 482.762 45.1895 482.645 45.2949C482.532 45.4004 482.395 45.4531 482.235 45.4531C482.067 45.4531 481.927 45.4004 481.813 45.2949C481.704 45.1895 481.649 45.0293 481.649 44.8145C481.649 44.5957 481.704 44.4355 481.813 44.334C481.927 44.2285 482.067 44.1758 482.235 44.1758ZM490.309 49.7773C490.309 50.3047 490.241 50.7754 490.104 51.1895C489.968 51.6035 489.77 51.9531 489.512 52.2383C489.255 52.5234 488.942 52.7422 488.575 52.8945C488.212 53.043 487.8 53.1172 487.339 53.1172C486.909 53.1172 486.514 53.043 486.155 52.8945C485.8 52.7422 485.491 52.5234 485.229 52.2383C484.971 51.9531 484.77 51.6035 484.626 51.1895C484.485 50.7754 484.415 50.3047 484.415 49.7773C484.415 49.0742 484.534 48.4766 484.772 47.9844C485.01 47.4883 485.35 47.1113 485.792 46.8535C486.237 46.5918 486.766 46.4609 487.38 46.4609C487.966 46.4609 488.477 46.5918 488.915 46.8535C489.356 47.1152 489.698 47.4941 489.94 47.9902C490.186 48.4824 490.309 49.0781 490.309 49.7773ZM485.423 49.7773C485.423 50.293 485.491 50.7402 485.628 51.1191C485.764 51.498 485.975 51.791 486.26 51.998C486.546 52.2051 486.913 52.3086 487.362 52.3086C487.807 52.3086 488.173 52.2051 488.458 51.998C488.747 51.791 488.96 51.498 489.096 51.1191C489.233 50.7402 489.302 50.293 489.302 49.7773C489.302 49.2656 489.233 48.8242 489.096 48.4531C488.96 48.0781 488.749 47.7891 488.464 47.5859C488.178 47.3828 487.809 47.2812 487.356 47.2812C486.688 47.2812 486.198 47.502 485.885 47.9434C485.577 48.3848 485.423 48.9961 485.423 49.7773ZM495.032 46.4609C495.794 46.4609 496.37 46.6484 496.76 47.0234C497.151 47.3945 497.346 47.9922 497.346 48.8164V53H496.385V48.8809C496.385 48.3457 496.262 47.9453 496.016 47.6797C495.774 47.4141 495.401 47.2812 494.897 47.2812C494.186 47.2812 493.686 47.4824 493.397 47.8848C493.108 48.2871 492.964 48.8711 492.964 49.6367V53H491.991V46.5781H492.776L492.923 47.5039H492.975C493.112 47.2773 493.286 47.0879 493.497 46.9355C493.708 46.7793 493.944 46.6621 494.206 46.584C494.468 46.502 494.743 46.4609 495.032 46.4609ZM498.805 50.2109V49.3437H501.712V50.2109H498.805ZM506.235 46.4609C507.036 46.4609 507.675 46.7363 508.151 47.2871C508.628 47.8379 508.866 48.666 508.866 49.7715C508.866 50.502 508.757 51.1152 508.538 51.6113C508.319 52.1074 508.01 52.4824 507.612 52.7363C507.218 52.9902 506.751 53.1172 506.212 53.1172C505.872 53.1172 505.573 53.0723 505.315 52.9824C505.057 52.8926 504.837 52.7715 504.653 52.6191C504.469 52.4668 504.317 52.3008 504.196 52.1211H504.126C504.137 52.2734 504.151 52.457 504.167 52.6719C504.186 52.8867 504.196 53.0742 504.196 53.2344V55.8711H503.218V46.5781H504.02L504.149 47.5273H504.196C504.321 47.332 504.473 47.1543 504.653 46.9941C504.833 46.8301 505.052 46.7012 505.309 46.6074C505.571 46.5098 505.88 46.4609 506.235 46.4609ZM506.065 47.2812C505.62 47.2812 505.26 47.3672 504.987 47.5391C504.718 47.7109 504.52 47.9687 504.395 48.3125C504.27 48.6523 504.204 49.0801 504.196 49.5957V49.7832C504.196 50.3262 504.255 50.7852 504.372 51.1602C504.493 51.5352 504.69 51.8203 504.964 52.0156C505.241 52.2109 505.612 52.3086 506.077 52.3086C506.475 52.3086 506.807 52.2012 507.073 51.9863C507.339 51.7715 507.536 51.4727 507.665 51.0898C507.798 50.7031 507.864 50.2598 507.864 49.7598C507.864 49.002 507.716 48.4004 507.419 47.9551C507.126 47.5059 506.675 47.2812 506.065 47.2812ZM513.038 46.4609C513.585 46.4609 514.053 46.582 514.444 46.8242C514.835 47.0664 515.134 47.4062 515.341 47.8437C515.548 48.2773 515.651 48.7852 515.651 49.3672V49.9707H511.216C511.227 50.7246 511.415 51.2988 511.778 51.6934C512.141 52.0879 512.653 52.2852 513.313 52.2852C513.719 52.2852 514.079 52.248 514.391 52.1738C514.704 52.0996 515.028 51.9902 515.364 51.8457V52.7012C515.04 52.8457 514.718 52.9512 514.397 53.0176C514.081 53.084 513.706 53.1172 513.272 53.1172C512.655 53.1172 512.116 52.9922 511.655 52.7422C511.198 52.4883 510.843 52.1172 510.589 51.6289C510.335 51.1406 510.208 50.543 510.208 49.8359C510.208 49.1445 510.323 48.5469 510.553 48.043C510.788 47.5352 511.116 47.1445 511.538 46.8711C511.964 46.5977 512.464 46.4609 513.038 46.4609ZM513.026 47.2578C512.507 47.2578 512.093 47.4277 511.784 47.7676C511.475 48.1074 511.292 48.582 511.233 49.1914H514.632C514.628 48.8086 514.567 48.4727 514.45 48.1836C514.337 47.8906 514.163 47.6641 513.928 47.5039C513.694 47.3398 513.393 47.2578 513.026 47.2578ZM520.221 46.4609C520.35 46.4609 520.485 46.4687 520.626 46.4844C520.766 46.4961 520.891 46.5137 521.001 46.5371L520.878 47.4395C520.772 47.4121 520.655 47.3906 520.526 47.375C520.397 47.3594 520.276 47.3516 520.163 47.3516C519.905 47.3516 519.661 47.4043 519.43 47.5098C519.204 47.6113 519.005 47.7598 518.833 47.9551C518.661 48.1465 518.526 48.3789 518.428 48.6523C518.331 48.9219 518.282 49.2227 518.282 49.5547V53H517.303V46.5781H518.112L518.218 47.7617H518.259C518.391 47.5234 518.552 47.3066 518.739 47.1113C518.927 46.9121 519.143 46.7539 519.389 46.6367C519.639 46.5195 519.917 46.4609 520.221 46.4609ZM524.786 53.1172C524.208 53.1172 523.698 52.998 523.257 52.7598C522.815 52.5215 522.471 52.1582 522.225 51.6699C521.979 51.1816 521.856 50.5664 521.856 49.8242C521.856 49.0469 521.985 48.4121 522.243 47.9199C522.505 47.4238 522.864 47.0566 523.321 46.8184C523.778 46.5801 524.298 46.4609 524.88 46.4609C525.2 46.4609 525.509 46.4941 525.805 46.5605C526.106 46.623 526.352 46.7031 526.544 46.8008L526.251 47.6152C526.055 47.5371 525.829 47.4668 525.571 47.4043C525.317 47.3418 525.079 47.3105 524.856 47.3105C524.411 47.3105 524.04 47.4062 523.743 47.5977C523.45 47.7891 523.229 48.0703 523.081 48.4414C522.936 48.8125 522.864 49.2695 522.864 49.8125C522.864 50.332 522.934 50.7754 523.075 51.1426C523.219 51.5098 523.432 51.791 523.714 51.9863C523.999 52.1777 524.354 52.2734 524.78 52.2734C525.12 52.2734 525.427 52.2383 525.7 52.168C525.973 52.0937 526.221 52.0078 526.444 51.9102V52.7773C526.229 52.8867 525.989 52.9707 525.723 53.0293C525.462 53.0879 525.149 53.1172 524.786 53.1172ZM530.44 46.4609C530.987 46.4609 531.456 46.582 531.846 46.8242C532.237 47.0664 532.536 47.4062 532.743 47.8437C532.95 48.2773 533.053 48.7852 533.053 49.3672V49.9707H528.618C528.63 50.7246 528.817 51.2988 529.18 51.6934C529.544 52.0879 530.055 52.2852 530.716 52.2852C531.122 52.2852 531.481 52.248 531.794 52.1738C532.106 52.0996 532.43 51.9902 532.766 51.8457V52.7012C532.442 52.8457 532.12 52.9512 531.8 53.0176C531.483 53.084 531.108 53.1172 530.675 53.1172C530.057 53.1172 529.518 52.9922 529.057 52.7422C528.6 52.4883 528.245 52.1172 527.991 51.6289C527.737 51.1406 527.61 50.543 527.61 49.8359C527.61 49.1445 527.725 48.5469 527.956 48.043C528.19 47.5352 528.518 47.1445 528.94 46.8711C529.366 46.5977 529.866 46.4609 530.44 46.4609ZM530.428 47.2578C529.909 47.2578 529.495 47.4277 529.186 47.7676C528.878 48.1074 528.694 48.582 528.635 49.1914H532.034C532.03 48.8086 531.969 48.4727 531.852 48.1836C531.739 47.8906 531.565 47.6641 531.331 47.5039C531.096 47.3398 530.796 47.2578 530.428 47.2578ZM537.723 46.4609C538.524 46.4609 539.163 46.7363 539.639 47.2871C540.116 47.8379 540.354 48.666 540.354 49.7715C540.354 50.502 540.245 51.1152 540.026 51.6113C539.807 52.1074 539.499 52.4824 539.1 52.7363C538.706 52.9902 538.239 53.1172 537.7 53.1172C537.36 53.1172 537.061 53.0723 536.803 52.9824C536.546 52.8926 536.325 52.7715 536.141 52.6191C535.958 52.4668 535.805 52.3008 535.684 52.1211H535.614C535.626 52.2734 535.639 52.457 535.655 52.6719C535.675 52.8867 535.684 53.0742 535.684 53.2344V55.8711H534.706V46.5781H535.509L535.637 47.5273H535.684C535.809 47.332 535.962 47.1543 536.141 46.9941C536.321 46.8301 536.54 46.7012 536.798 46.6074C537.059 46.5098 537.368 46.4609 537.723 46.4609ZM537.553 47.2812C537.108 47.2812 536.749 47.3672 536.475 47.5391C536.206 47.7109 536.009 47.9687 535.884 48.3125C535.759 48.6523 535.692 49.0801 535.684 49.5957V49.7832C535.684 50.3262 535.743 50.7852 535.86 51.1602C535.981 51.5352 536.178 51.8203 536.452 52.0156C536.729 52.2109 537.1 52.3086 537.565 52.3086C537.964 52.3086 538.296 52.2012 538.561 51.9863C538.827 51.7715 539.024 51.4727 539.153 51.0898C539.286 50.7031 539.352 50.2598 539.352 49.7598C539.352 49.002 539.204 48.4004 538.907 47.9551C538.614 47.5059 538.163 47.2812 537.553 47.2812ZM544.128 52.3203C544.288 52.3203 544.452 52.3066 544.62 52.2793C544.788 52.252 544.925 52.2187 545.03 52.1797V52.9355C544.917 52.9863 544.759 53.0293 544.555 53.0645C544.356 53.0996 544.161 53.1172 543.969 53.1172C543.63 53.1172 543.321 53.0586 543.044 52.9414C542.766 52.8203 542.544 52.6172 542.376 52.332C542.212 52.0469 542.13 51.6523 542.13 51.1484V47.3398H541.216V46.8652L542.135 46.4844L542.522 45.0898H543.108V46.5781H544.989V47.3398H543.108V51.1191C543.108 51.5215 543.2 51.8223 543.384 52.0215C543.571 52.2207 543.819 52.3203 544.128 52.3203ZM547.303 46.5781V53H546.331V46.5781H547.303ZM546.829 44.1758C546.989 44.1758 547.126 44.2285 547.239 44.334C547.356 44.4355 547.415 44.5957 547.415 44.8145C547.415 45.0293 547.356 45.1895 547.239 45.2949C547.126 45.4004 546.989 45.4531 546.829 45.4531C546.661 45.4531 546.52 45.4004 546.407 45.2949C546.298 45.1895 546.243 45.0293 546.243 44.8145C546.243 44.5957 546.298 44.4355 546.407 44.334C546.52 44.2285 546.661 44.1758 546.829 44.1758ZM550.339 43.8828V46.1621C550.339 46.4238 550.331 46.6777 550.315 46.9238C550.303 47.1699 550.294 47.3613 550.286 47.498H550.339C550.514 47.209 550.768 46.9648 551.1 46.7656C551.432 46.5664 551.856 46.4668 552.372 46.4668C553.177 46.4668 553.817 46.7461 554.294 47.3047C554.774 47.8594 555.014 48.6855 555.014 49.7832C555.014 50.5059 554.905 51.1152 554.686 51.6113C554.468 52.1074 554.159 52.4824 553.76 52.7363C553.362 52.9902 552.891 53.1172 552.348 53.1172C551.841 53.1172 551.423 53.0234 551.094 52.8359C550.77 52.6445 550.52 52.4121 550.344 52.1387H550.268L550.069 53H549.366V43.8828H550.339ZM552.214 47.2812C551.749 47.2812 551.38 47.373 551.106 47.5566C550.833 47.7363 550.635 48.0098 550.514 48.377C550.397 48.7402 550.339 49.2012 550.339 49.7598V49.8125C550.339 50.6211 550.473 51.2402 550.743 51.6699C551.012 52.0957 551.503 52.3086 552.214 52.3086C552.811 52.3086 553.259 52.0898 553.555 51.6523C553.856 51.2148 554.007 50.5898 554.007 49.7773C554.007 48.9492 553.858 48.3262 553.561 47.9082C553.268 47.4902 552.819 47.2812 552.214 47.2812ZM557.692 53H556.714V43.8828H557.692V53ZM562.221 46.4609C562.768 46.4609 563.237 46.582 563.628 46.8242C564.018 47.0664 564.317 47.4062 564.524 47.8437C564.731 48.2773 564.835 48.7852 564.835 49.3672V49.9707H560.399C560.411 50.7246 560.598 51.2988 560.962 51.6934C561.325 52.0879 561.837 52.2852 562.497 52.2852C562.903 52.2852 563.262 52.248 563.575 52.1738C563.887 52.0996 564.212 51.9902 564.548 51.8457V52.7012C564.223 52.8457 563.901 52.9512 563.581 53.0176C563.264 53.084 562.889 53.1172 562.456 53.1172C561.839 53.1172 561.3 52.9922 560.839 52.7422C560.382 52.4883 560.026 52.1172 559.772 51.6289C559.518 51.1406 559.391 50.543 559.391 49.8359C559.391 49.1445 559.507 48.5469 559.737 48.043C559.971 47.5352 560.3 47.1445 560.721 46.8711C561.147 46.5977 561.647 46.4609 562.221 46.4609ZM562.21 47.2578C561.69 47.2578 561.276 47.4277 560.968 47.7676C560.659 48.1074 560.475 48.582 560.417 49.1914H563.815C563.811 48.8086 563.751 48.4727 563.634 48.1836C563.52 47.8906 563.346 47.6641 563.112 47.5039C562.878 47.3398 562.577 47.2578 562.21 47.2578Z" fill="white"/>
<path d="M508.149 84L505.262 79H511.036L508.149 84ZM508.649 58V58.9286H507.649V58H508.649ZM508.649 60.7857V62.6429H507.649V60.7857H508.649ZM508.649 64.5V66.3571H507.649L507.649 64.5H508.649ZM508.649 68.2143V70.0714H507.649L507.649 68.2143H508.649ZM508.649 71.9286L508.649 73.7857H507.649V71.9286H508.649ZM508.649 75.6429V77.5H507.649V75.6429H508.649ZM508.649 79.3571V81.2143H507.649L507.649 79.3571H508.649Z" fill="#964EA2"/>
<g filter="url(#filter2_d_1137_11017)">
<mask id="path-12-outside-1_1137_11017" maskUnits="userSpaceOnUse" x="497.992" y="143" width="20" height="19" fill="black">
<rect fill="white" x="497.992" y="143" width="20" height="19"/>
<path fill-rule="evenodd" clip-rule="evenodd" d="M504.477 154L503.44 152.645C502.732 151.72 501.224 151.383 500.071 151.89L500.34 151.772C500.054 151.898 499.916 152.211 500.034 152.472L501.469 155.647C501.697 156.151 502.278 156.863 502.759 157.22C502.759 157.22 505.646 159.264 505.646 160.03V161H510.324L511.493 159L512.663 161H513.832V160.03C513.832 159.264 515.596 156.851 515.596 156.851C515.921 156.382 516.192 155.555 516.192 155.007V150.972C516.171 150.078 515.283 149.355 514.187 149.355C513.639 149.355 513.195 149.717 513.195 150.163V150.487C513.195 149.593 512.307 148.869 511.211 148.869C510.663 148.869 510.219 149.231 510.219 149.678V150.001C510.219 149.108 509.331 148.384 508.236 148.384C507.688 148.384 507.244 148.746 507.244 149.193V149.516C507.244 149.373 507.226 149.258 507.191 149.168L506.888 145.001C506.848 144.438 506.292 144 505.646 144C504.996 144 504.477 144.448 504.477 145V149V154ZM512.684 153H513.853V157H512.684V153ZM510.345 153H511.514V157H510.345V153ZM508.006 153H509.176V157H508.006V153Z"/>
</mask>
<path fill-rule="evenodd" clip-rule="evenodd" d="M504.477 154L503.44 152.645C502.732 151.72 501.224 151.383 500.071 151.89L500.34 151.772C500.054 151.898 499.916 152.211 500.034 152.472L501.469 155.647C501.697 156.151 502.278 156.863 502.759 157.22C502.759 157.22 505.646 159.264 505.646 160.03V161H510.324L511.493 159L512.663 161H513.832V160.03C513.832 159.264 515.596 156.851 515.596 156.851C515.921 156.382 516.192 155.555 516.192 155.007V150.972C516.171 150.078 515.283 149.355 514.187 149.355C513.639 149.355 513.195 149.717 513.195 150.163V150.487C513.195 149.593 512.307 148.869 511.211 148.869C510.663 148.869 510.219 149.231 510.219 149.678V150.001C510.219 149.108 509.331 148.384 508.236 148.384C507.688 148.384 507.244 148.746 507.244 149.193V149.516C507.244 149.373 507.226 149.258 507.191 149.168L506.888 145.001C506.848 144.438 506.292 144 505.646 144C504.996 144 504.477 144.448 504.477 145V149V154ZM512.684 153H513.853V157H512.684V153ZM510.345 153H511.514V157H510.345V153ZM508.006 153H509.176V157H508.006V153Z" fill="white"/>
<path d="M504.477 154L503.683 154.608L505.477 156.952V154H504.477ZM503.44 152.645L504.234 152.038L503.44 152.645ZM500.034 152.472L499.123 152.884H499.123L500.034 152.472ZM501.469 155.647L502.381 155.236L501.469 155.647ZM502.759 157.22L502.163 158.023L502.172 158.03L502.182 158.037L502.759 157.22ZM505.646 161H504.646V162H505.646V161ZM510.324 161V162H510.898L511.187 161.505L510.324 161ZM511.493 159L512.356 158.495L511.493 157.019L510.63 158.495L511.493 159ZM512.663 161L511.799 161.505L512.089 162H512.663V161ZM513.832 161V162H514.832V161H513.832ZM515.596 156.851L516.403 157.441L516.411 157.431L516.418 157.42L515.596 156.851ZM516.192 150.972H517.192V150.96L517.191 150.948L516.192 150.972ZM507.191 149.168L506.194 149.24L506.204 149.388L506.257 149.526L507.191 149.168ZM506.888 145.001L505.891 145.074L506.888 145.001ZM504.477 145H503.477H504.477ZM513.853 153H514.853V152H513.853V153ZM513.853 157V158H514.853V157H513.853ZM512.684 157H511.684V158H512.684V157ZM512.684 153V152H511.684V153H512.684ZM511.514 153H512.514V152H511.514V153ZM511.514 157V158H512.514V157H511.514ZM510.345 157H509.345V158H510.345V157ZM510.345 153V152H509.345V153H510.345ZM509.176 153H510.176V152H509.176V153ZM509.176 157V158H510.176V157H509.176ZM508.006 157H507.006V158H508.006V157ZM508.006 153V152H507.006V153H508.006ZM505.271 153.392L504.234 152.038L502.646 153.253L503.683 154.608L505.271 153.392ZM504.234 152.038C503.215 150.705 501.195 150.304 499.669 150.975L500.474 152.805C501.254 152.462 502.25 152.735 502.646 153.253L504.234 152.038ZM500.474 152.805L500.742 152.687L499.937 150.856L499.669 150.975L500.474 152.805ZM499.937 150.856C499.223 151.17 498.741 152.039 499.123 152.884L500.945 152.06C501.092 152.384 500.884 152.625 500.742 152.687L499.937 150.856ZM499.123 152.884L500.558 156.059L502.381 155.236L500.945 152.06L499.123 152.884ZM500.558 156.059C500.721 156.419 500.98 156.798 501.245 157.122C501.513 157.448 501.836 157.78 502.163 158.023L503.356 156.418C503.201 156.303 502.993 156.1 502.793 155.855C502.59 155.607 502.445 155.379 502.381 155.236L500.558 156.059ZM502.759 157.22C502.182 158.037 502.182 158.036 502.181 158.036C502.181 158.036 502.181 158.036 502.181 158.036C502.181 158.036 502.181 158.036 502.182 158.037C502.182 158.037 502.182 158.037 502.183 158.037C502.184 158.038 502.185 158.039 502.188 158.041C502.192 158.044 502.199 158.049 502.209 158.056C502.229 158.07 502.258 158.091 502.295 158.119C502.371 158.173 502.479 158.253 502.609 158.351C502.871 158.548 503.217 158.815 503.559 159.103C503.907 159.396 504.228 159.689 504.454 159.938C504.567 160.064 504.635 160.155 504.669 160.211C504.719 160.292 504.646 160.214 504.646 160.03H506.646C506.646 159.655 506.484 159.345 506.376 159.168C506.252 158.965 506.094 158.771 505.937 158.597C505.621 158.248 505.22 157.887 504.846 157.572C504.467 157.254 504.091 156.963 503.811 156.752C503.671 156.647 503.554 156.561 503.471 156.501C503.43 156.471 503.397 156.447 503.374 156.431C503.363 156.422 503.354 156.416 503.348 156.412C503.345 156.409 503.342 156.408 503.34 156.406C503.339 156.406 503.339 156.405 503.338 156.405C503.338 156.405 503.338 156.405 503.337 156.404C503.337 156.404 503.337 156.404 503.337 156.404C503.337 156.404 503.337 156.404 502.759 157.22ZM504.646 160.03V161H506.646V160.03H504.646ZM505.646 162H510.324V160H505.646V162ZM511.187 161.505L512.356 159.505L510.63 158.495L509.461 160.495L511.187 161.505ZM510.63 159.505L511.799 161.505L513.526 160.495L512.356 158.495L510.63 159.505ZM512.663 162H513.832V160H512.663V162ZM514.832 161V160.03H512.832V161H514.832ZM514.832 160.03C514.832 160.1 514.818 160.102 514.853 160.001C514.882 159.915 514.932 159.799 515.004 159.654C515.147 159.364 515.347 159.023 515.56 158.687C515.77 158.353 515.982 158.041 516.142 157.81C516.222 157.695 516.288 157.602 516.334 157.537C516.357 157.505 516.375 157.481 516.387 157.464C516.393 157.456 516.397 157.45 516.4 157.446C516.401 157.444 516.402 157.443 516.403 157.442C516.403 157.441 516.403 157.441 516.404 157.441C516.404 157.441 516.404 157.441 516.404 157.441C516.404 157.441 516.404 157.441 516.404 157.441C516.404 157.441 516.403 157.441 515.596 156.851C514.789 156.26 514.789 156.261 514.789 156.261C514.789 156.261 514.789 156.261 514.789 156.261C514.789 156.261 514.788 156.261 514.788 156.261C514.788 156.262 514.788 156.262 514.787 156.263C514.786 156.265 514.784 156.267 514.782 156.269C514.779 156.275 514.773 156.282 514.766 156.292C514.752 156.311 514.732 156.339 514.707 156.374C514.656 156.445 514.585 156.546 514.499 156.669C514.328 156.915 514.099 157.254 513.868 157.619C513.64 157.982 513.399 158.388 513.211 158.766C513.118 158.955 513.03 159.153 512.963 159.346C512.901 159.524 512.832 159.769 512.832 160.03H514.832ZM516.418 157.42C516.652 157.082 516.839 156.663 516.967 156.267C517.094 155.874 517.192 155.421 517.192 155.007H515.192C515.192 155.141 515.154 155.375 515.065 155.65C514.976 155.922 514.865 156.15 514.774 156.281L516.418 157.42ZM517.192 155.007V150.972H515.192V155.007H517.192ZM517.191 150.948C517.154 149.347 515.644 148.355 514.187 148.355V150.355C514.921 150.355 515.188 150.81 515.192 150.995L517.191 150.948ZM514.187 148.355C513.287 148.355 512.195 148.983 512.195 150.163H514.195C514.195 150.221 514.18 150.271 514.161 150.309C514.142 150.344 514.123 150.361 514.117 150.366C514.108 150.374 514.129 150.355 514.187 150.355V148.355ZM512.195 150.163V150.487H514.195V150.163H512.195ZM514.195 150.487C514.195 148.86 512.659 147.869 511.211 147.869V149.869C511.543 149.869 511.812 149.98 511.982 150.118C512.15 150.255 512.195 150.39 512.195 150.487H514.195ZM511.211 147.869C510.311 147.869 509.219 148.498 509.219 149.678H511.219C511.219 149.736 511.204 149.786 511.185 149.824C511.167 149.859 511.148 149.876 511.142 149.881C511.132 149.889 511.153 149.869 511.211 149.869V147.869ZM509.219 149.678V150.001H511.219V149.678H509.219ZM511.219 150.001C511.219 148.375 509.683 147.384 508.236 147.384V149.384C508.568 149.384 508.837 149.494 509.006 149.633C509.174 149.769 509.219 149.905 509.219 150.001H511.219ZM508.236 147.384C507.336 147.384 506.244 148.013 506.244 149.193H508.244C508.244 149.25 508.229 149.301 508.209 149.338C508.191 149.374 508.172 149.391 508.166 149.396C508.156 149.404 508.178 149.384 508.236 149.384V147.384ZM506.244 149.193V149.516H508.244V149.193H506.244ZM508.244 149.516C508.244 149.297 508.217 149.051 508.125 148.81L506.257 149.526C506.245 149.494 506.242 149.474 506.242 149.473C506.242 149.472 506.242 149.475 506.243 149.483C506.243 149.49 506.244 149.501 506.244 149.516H508.244ZM508.188 149.096L507.886 144.929L505.891 145.074L506.194 149.24L508.188 149.096ZM507.886 144.929C507.798 143.714 506.676 143 505.646 143V145C505.747 145 505.826 145.035 505.869 145.07C505.912 145.104 505.894 145.111 505.891 145.074L507.886 144.929ZM505.646 143C504.594 143 503.477 143.756 503.477 145H505.477C505.477 145.021 505.471 145.04 505.466 145.052C505.461 145.062 505.459 145.061 505.469 145.052C505.49 145.034 505.549 145 505.646 145V143ZM503.477 145V149H505.477V145H503.477ZM503.477 149V154H505.477V149H503.477ZM512.684 154H513.853V152H512.684V154ZM512.853 153V157H514.853V153H512.853ZM513.853 156H512.684V158H513.853V156ZM513.684 157V153H511.684V157H513.684ZM510.345 154H511.514V152H510.345V154ZM510.514 153V157H512.514V153H510.514ZM511.514 156H510.345V158H511.514V156ZM511.345 157V153H509.345V157H511.345ZM508.006 154H509.176V152H508.006V154ZM508.176 153V157H510.176V153H508.176ZM509.176 156H508.006V158H509.176V156ZM509.006 157V153H507.006V157H509.006Z" fill="black" fill-opacity="0.8" mask="url(#path-12-outside-1_1137_11017)"/>
</g>
<path d="M457.194 135.5L452.194 138.387V132.613L457.194 135.5ZM412.194 136L407.194 138.387V132.613L412.194 135V136ZM454.309 136H452.386V135H454.309V136ZM450.463 136H448.54V135H450.463V136ZM446.617 136H444.694V135H446.617V136ZM442.77 136H440.847V135H442.77V136ZM438.924 136H437.001V135H438.924V136ZM435.078 136H433.155V135H435.078V136ZM431.232 136H429.309V135H431.232V136ZM427.386 136H425.463V135H427.386V136ZM423.54 136H421.617V135H423.54V136ZM419.694 136H417.771V135H419.694V136ZM415.847 136H413.924V135H415.847V136ZM412.001 136H410.078V135H412.001V136Z" fill="#964EA2"/>
<defs>
<filter id="filter0_d_1137_11017" x="348.543" y="153.2" width="15.0142" height="21.1785" filterUnits="userSpaceOnUse" color-interpolation-filters="sRGB">
<feFlood flood-opacity="0" result="BackgroundImageFix"/>
<feColorMatrix in="SourceAlpha" type="matrix" values="0 0 0 0 0 0 0 0 0 0 0 0 0 0 0 0 0 0 127 0" result="hardAlpha"/>
<feOffset dy="1"/>
<feGaussianBlur stdDeviation="0.9"/>
<feColorMatrix type="matrix" values="0 0 0 0 0 0 0 0 0 0 0 0 0 0 0 0 0 0 0.65 0"/>
<feBlend mode="normal" in2="BackgroundImageFix" result="effect1_dropShadow_1137_11017"/>
<feBlend mode="normal" in="SourceGraphic" in2="effect1_dropShadow_1137_11017" result="shape"/>
</filter>
<filter id="filter1_d_1137_11017" x="456.492" y="81" width="102" height="59.2072" filterUnits="userSpaceOnUse" color-interpolation-filters="sRGB">
<feFlood flood-opacity="0" result="BackgroundImageFix"/>
<feColorMatrix in="SourceAlpha" type="matrix" values="0 0 0 0 0 0 0 0 0 0 0 0 0 0 0 0 0 0 127 0" result="hardAlpha"/>
<feOffset dy="6"/>
<feGaussianBlur stdDeviation="5"/>
<feColorMatrix type="matrix" values="0 0 0 0 0 0 0 0 0 0 0 0 0 0 0 0 0 0 0.2 0"/>
<feBlend mode="normal" in2="BackgroundImageFix" result="effect1_dropShadow_1137_11017"/>
<feBlend mode="normal" in="SourceGraphic" in2="effect1_dropShadow_1137_11017" result="shape"/>
</filter>
<filter id="filter2_d_1137_11017" x="495.988" y="141" width="24.2032" height="25" filterUnits="userSpaceOnUse" color-interpolation-filters="sRGB">
<feFlood flood-opacity="0" result="BackgroundImageFix"/>
<feColorMatrix in="SourceAlpha" type="matrix" values="0 0 0 0 0 0 0 0 0 0 0 0 0 0 0 0 0 0 127 0" result="hardAlpha"/>
<feOffset dy="1"/>
<feGaussianBlur stdDeviation="1.5"/>
<feColorMatrix type="matrix" values="0 0 0 0 0 0 0 0 0 0 0 0 0 0 0 0 0 0 0.2 0"/>
<feBlend mode="normal" in2="BackgroundImageFix" result="effect1_dropShadow_1137_11017"/>
<feBlend mode="normal" in="SourceGraphic" in2="effect1_dropShadow_1137_11017" result="shape"/>
</filter>
</defs>
</svg>
