<svg width="889" height="178" viewBox="0 0 889 178" fill="none" xmlns="http://www.w3.org/2000/svg">
<rect width="889" height="178" fill="#F2F4F6"/>
<rect width="107" height="44" transform="translate(276.343 86)" fill="#C5C9D0"/>
<path d="M294.347 107.996V104.996C294.347 104.793 294.366 104.594 294.405 104.398C294.444 104.203 294.503 104.016 294.581 103.836C294.659 103.656 294.749 103.488 294.851 103.332C294.96 103.168 295.081 103.02 295.214 102.887C295.354 102.754 295.503 102.633 295.659 102.523C295.823 102.414 295.995 102.316 296.175 102.23C296.362 102.152 296.55 102.094 296.737 102.055C296.933 102.016 297.136 101.996 297.347 101.996H299.339C299.542 101.996 299.741 102.016 299.936 102.055C300.132 102.094 300.323 102.152 300.511 102.23C300.69 102.316 300.858 102.414 301.015 102.523C301.179 102.633 301.327 102.754 301.46 102.887C301.593 103.02 301.714 103.168 301.823 103.332C301.933 103.488 302.026 103.656 302.104 103.836C302.183 104.016 302.241 104.203 302.28 104.398C302.319 104.594 302.339 104.793 302.339 104.996V107.996C302.394 108.285 302.452 108.543 302.515 108.77C302.585 108.996 302.659 109.191 302.737 109.355C302.823 109.527 302.917 109.668 303.019 109.777C303.12 109.879 303.229 109.953 303.347 110H304.343V110.996H292.343V110H293.339C293.456 109.953 293.561 109.879 293.655 109.777C293.757 109.668 293.851 109.527 293.936 109.355C294.022 109.191 294.097 108.996 294.159 108.77C294.229 108.543 294.292 108.285 294.347 107.996ZM301.952 110C301.882 109.883 301.815 109.758 301.753 109.625C301.698 109.492 301.647 109.348 301.601 109.191C301.554 109.043 301.507 108.883 301.46 108.711C301.421 108.539 301.386 108.359 301.354 108.172L301.343 107.996V104.996C301.343 104.723 301.292 104.469 301.19 104.234C301.097 104 300.952 103.785 300.757 103.59C300.561 103.395 300.343 103.25 300.101 103.156C299.866 103.055 299.612 103.004 299.339 103.004H297.347C297.065 103.004 296.808 103.055 296.573 103.156C296.339 103.25 296.124 103.395 295.929 103.59C295.733 103.785 295.585 104 295.483 104.234C295.39 104.469 295.343 104.723 295.343 104.996V107.996L295.331 108.172C295.3 108.359 295.261 108.539 295.214 108.711C295.175 108.883 295.132 109.043 295.085 109.191C295.038 109.348 294.983 109.492 294.921 109.625C294.866 109.758 294.804 109.883 294.733 110H301.952ZM298.343 113.996C298.14 113.996 297.948 113.961 297.769 113.891C297.589 113.828 297.425 113.727 297.276 113.586C297.136 113.453 297.026 113.305 296.948 113.141C296.878 112.984 296.843 112.809 296.843 112.613C296.843 112.574 296.843 112.523 296.843 112.461C296.843 112.398 296.843 112.328 296.843 112.25C296.843 112.172 296.843 112.113 296.843 112.074C296.843 112.027 296.843 112.004 296.843 112.004C296.843 112.004 296.866 112.004 296.913 112.004C296.968 112.004 297.042 112.004 297.136 112.004C297.229 112.004 297.378 112.004 297.581 112.004C297.784 112.004 298.038 112.004 298.343 112.004C298.647 112.004 298.897 112.004 299.093 112.004C299.296 112.004 299.448 112.004 299.55 112.004C299.644 112.004 299.714 112.004 299.761 112.004C299.815 112.004 299.843 112.004 299.843 112.004C299.843 112.004 299.843 112.016 299.843 112.039C299.843 112.062 299.843 112.094 299.843 112.133C299.843 112.18 299.843 112.242 299.843 112.32C299.843 112.398 299.843 112.496 299.843 112.613C299.843 112.809 299.804 112.984 299.726 113.141C299.655 113.305 299.546 113.453 299.397 113.586C299.249 113.727 299.085 113.828 298.905 113.891C298.733 113.961 298.546 113.996 298.343 113.996Z" fill="#161616"/>
<path d="M309.877 114V102.578H312.299V112H316.932V114H309.877ZM329.891 108.273C329.891 109.154 329.782 109.956 329.563 110.68C329.344 111.398 329.011 112.018 328.563 112.539C328.12 113.06 327.558 113.461 326.876 113.742C326.193 114.018 325.386 114.156 324.454 114.156C323.521 114.156 322.714 114.018 322.032 113.742C321.35 113.461 320.784 113.06 320.336 112.539C319.894 112.018 319.563 111.396 319.344 110.672C319.126 109.948 319.016 109.143 319.016 108.258C319.016 107.076 319.209 106.047 319.594 105.172C319.985 104.292 320.584 103.609 321.391 103.125C322.198 102.641 323.225 102.398 324.469 102.398C325.709 102.398 326.727 102.641 327.524 103.125C328.326 103.609 328.92 104.292 329.305 105.172C329.696 106.052 329.891 107.086 329.891 108.273ZM321.555 108.273C321.555 109.07 321.654 109.758 321.852 110.336C322.055 110.909 322.37 111.352 322.797 111.664C323.225 111.971 323.777 112.125 324.454 112.125C325.141 112.125 325.698 111.971 326.126 111.664C326.553 111.352 326.863 110.909 327.055 110.336C327.253 109.758 327.352 109.07 327.352 108.273C327.352 107.076 327.128 106.133 326.68 105.445C326.232 104.758 325.495 104.414 324.469 104.414C323.787 104.414 323.23 104.57 322.797 104.883C322.37 105.19 322.055 105.633 321.852 106.211C321.654 106.784 321.555 107.471 321.555 108.273ZM336.186 102.578C337.223 102.578 338.077 102.703 338.749 102.953C339.426 103.203 339.929 103.581 340.257 104.086C340.585 104.591 340.749 105.229 340.749 106C340.749 106.521 340.65 106.977 340.452 107.367C340.254 107.758 339.994 108.089 339.671 108.359C339.348 108.63 338.999 108.852 338.624 109.023L341.983 114H339.296L336.569 109.617H335.28V114H332.858V102.578H336.186ZM336.015 104.562H335.28V107.648H336.061C336.864 107.648 337.436 107.516 337.78 107.25C338.129 106.979 338.304 106.583 338.304 106.062C338.304 105.521 338.116 105.135 337.741 104.906C337.371 104.677 336.796 104.562 336.015 104.562ZM350.599 114H344.021V102.578H350.599V104.562H346.443V107.07H350.31V109.055H346.443V112H350.599V114ZM358.426 114L355.676 105.039H355.605C355.616 105.253 355.631 105.576 355.652 106.008C355.678 106.435 355.702 106.891 355.722 107.375C355.743 107.859 355.754 108.297 355.754 108.688V114H353.59V102.578H356.886L359.59 111.312H359.636L362.504 102.578H365.801V114H363.543V108.594C363.543 108.234 363.548 107.82 363.558 107.352C363.574 106.883 363.592 106.438 363.613 106.016C363.634 105.589 363.65 105.268 363.66 105.055H363.59L360.644 114H358.426Z" fill="#161616"/>
<rect width="107" height="44" transform="translate(454.343 86)" fill="#D9DDE3"/>
<path d="M472.347 107.996V104.996C472.347 104.793 472.366 104.594 472.405 104.398C472.444 104.203 472.503 104.016 472.581 103.836C472.659 103.656 472.749 103.488 472.851 103.332C472.96 103.168 473.081 103.02 473.214 102.887C473.354 102.754 473.503 102.633 473.659 102.523C473.823 102.414 473.995 102.316 474.175 102.23C474.362 102.152 474.55 102.094 474.737 102.055C474.933 102.016 475.136 101.996 475.347 101.996H477.339C477.542 101.996 477.741 102.016 477.936 102.055C478.132 102.094 478.323 102.152 478.511 102.23C478.69 102.316 478.858 102.414 479.015 102.523C479.179 102.633 479.327 102.754 479.46 102.887C479.593 103.02 479.714 103.168 479.823 103.332C479.933 103.488 480.026 103.656 480.104 103.836C480.183 104.016 480.241 104.203 480.28 104.398C480.319 104.594 480.339 104.793 480.339 104.996V107.996C480.394 108.285 480.452 108.543 480.515 108.77C480.585 108.996 480.659 109.191 480.737 109.355C480.823 109.527 480.917 109.668 481.019 109.777C481.12 109.879 481.229 109.953 481.347 110H482.343V110.996H470.343V110H471.339C471.456 109.953 471.561 109.879 471.655 109.777C471.757 109.668 471.851 109.527 471.936 109.355C472.022 109.191 472.097 108.996 472.159 108.77C472.229 108.543 472.292 108.285 472.347 107.996ZM479.952 110C479.882 109.883 479.815 109.758 479.753 109.625C479.698 109.492 479.647 109.348 479.601 109.191C479.554 109.043 479.507 108.883 479.46 108.711C479.421 108.539 479.386 108.359 479.354 108.172L479.343 107.996V104.996C479.343 104.723 479.292 104.469 479.19 104.234C479.097 104 478.952 103.785 478.757 103.59C478.561 103.395 478.343 103.25 478.101 103.156C477.866 103.055 477.612 103.004 477.339 103.004H475.347C475.065 103.004 474.808 103.055 474.573 103.156C474.339 103.25 474.124 103.395 473.929 103.59C473.733 103.785 473.585 104 473.483 104.234C473.39 104.469 473.343 104.723 473.343 104.996V107.996L473.331 108.172C473.3 108.359 473.261 108.539 473.214 108.711C473.175 108.883 473.132 109.043 473.085 109.191C473.038 109.348 472.983 109.492 472.921 109.625C472.866 109.758 472.804 109.883 472.733 110H479.952ZM476.343 113.996C476.14 113.996 475.948 113.961 475.769 113.891C475.589 113.828 475.425 113.727 475.276 113.586C475.136 113.453 475.026 113.305 474.948 113.141C474.878 112.984 474.843 112.809 474.843 112.613C474.843 112.574 474.843 112.523 474.843 112.461C474.843 112.398 474.843 112.328 474.843 112.25C474.843 112.172 474.843 112.113 474.843 112.074C474.843 112.027 474.843 112.004 474.843 112.004C474.843 112.004 474.866 112.004 474.913 112.004C474.968 112.004 475.042 112.004 475.136 112.004C475.229 112.004 475.378 112.004 475.581 112.004C475.784 112.004 476.038 112.004 476.343 112.004C476.647 112.004 476.897 112.004 477.093 112.004C477.296 112.004 477.448 112.004 477.55 112.004C477.644 112.004 477.714 112.004 477.761 112.004C477.815 112.004 477.843 112.004 477.843 112.004C477.843 112.004 477.843 112.016 477.843 112.039C477.843 112.062 477.843 112.094 477.843 112.133C477.843 112.18 477.843 112.242 477.843 112.32C477.843 112.398 477.843 112.496 477.843 112.613C477.843 112.809 477.804 112.984 477.726 113.141C477.655 113.305 477.546 113.453 477.397 113.586C477.249 113.727 477.085 113.828 476.905 113.891C476.733 113.961 476.546 113.996 476.343 113.996Z" fill="#161616"/>
<path d="M487.877 114V102.578H490.299V112H494.932V114H487.877ZM507.891 108.273C507.891 109.154 507.782 109.956 507.563 110.68C507.344 111.398 507.011 112.018 506.563 112.539C506.12 113.06 505.558 113.461 504.876 113.742C504.193 114.018 503.386 114.156 502.454 114.156C501.521 114.156 500.714 114.018 500.032 113.742C499.35 113.461 498.784 113.06 498.336 112.539C497.894 112.018 497.563 111.396 497.344 110.672C497.126 109.948 497.016 109.143 497.016 108.258C497.016 107.076 497.209 106.047 497.594 105.172C497.985 104.292 498.584 103.609 499.391 103.125C500.198 102.641 501.225 102.398 502.469 102.398C503.709 102.398 504.727 102.641 505.524 103.125C506.326 103.609 506.92 104.292 507.305 105.172C507.696 106.052 507.891 107.086 507.891 108.273ZM499.555 108.273C499.555 109.07 499.654 109.758 499.852 110.336C500.055 110.909 500.37 111.352 500.797 111.664C501.225 111.971 501.777 112.125 502.454 112.125C503.141 112.125 503.698 111.971 504.126 111.664C504.553 111.352 504.863 110.909 505.055 110.336C505.253 109.758 505.352 109.07 505.352 108.273C505.352 107.076 505.128 106.133 504.68 105.445C504.232 104.758 503.495 104.414 502.469 104.414C501.787 104.414 501.23 104.57 500.797 104.883C500.37 105.19 500.055 105.633 499.852 106.211C499.654 106.784 499.555 107.471 499.555 108.273ZM514.186 102.578C515.223 102.578 516.077 102.703 516.749 102.953C517.426 103.203 517.929 103.581 518.257 104.086C518.585 104.591 518.749 105.229 518.749 106C518.749 106.521 518.65 106.977 518.452 107.367C518.254 107.758 517.994 108.089 517.671 108.359C517.348 108.63 516.999 108.852 516.624 109.023L519.983 114H517.296L514.569 109.617H513.28V114H510.858V102.578H514.186ZM514.015 104.562H513.28V107.648H514.061C514.864 107.648 515.436 107.516 515.78 107.25C516.129 106.979 516.304 106.583 516.304 106.062C516.304 105.521 516.116 105.135 515.741 104.906C515.371 104.677 514.796 104.562 514.015 104.562ZM528.599 114H522.021V102.578H528.599V104.562H524.443V107.07H528.31V109.055H524.443V112H528.599V114ZM536.426 114L533.676 105.039H533.605C533.616 105.253 533.631 105.576 533.652 106.008C533.678 106.435 533.702 106.891 533.722 107.375C533.743 107.859 533.754 108.297 533.754 108.688V114H531.59V102.578H534.886L537.59 111.312H537.636L540.504 102.578H543.801V114H541.543V108.594C541.543 108.234 541.548 107.82 541.558 107.352C541.574 106.883 541.592 106.438 541.613 106.016C541.634 105.589 541.65 105.268 541.66 105.055H541.59L538.644 114H536.426Z" fill="#161616"/>
<g filter="url(#filter0_d_1137_11008)">
<mask id="path-5-outside-1_1137_11008" maskUnits="userSpaceOnUse" x="520.343" y="124" width="16" height="19" fill="black">
<rect fill="white" x="520.343" y="124" width="16" height="19"/>
<path fill-rule="evenodd" clip-rule="evenodd" d="M525.178 135L524.292 133.645C523.686 132.72 522.397 132.383 521.41 132.89L521.64 132.772C521.395 132.898 521.278 133.211 521.379 133.472L522.606 136.647C522.801 137.151 523.298 137.863 523.709 138.22C523.709 138.22 526.178 140.264 526.178 141.03V142H530.178L531.178 140L532.178 142H533.178V141.03C533.178 140.264 534.687 137.851 534.687 137.851C534.965 137.382 535.196 136.555 535.196 136.007V131.972C535.178 131.078 534.419 130.355 533.482 130.355C533.013 130.355 532.634 130.717 532.634 131.163V131.487C532.634 130.593 531.874 129.869 530.937 129.869C530.469 129.869 530.089 130.231 530.089 130.678V131.001C530.089 130.108 529.33 129.384 528.393 129.384C527.924 129.384 527.544 129.746 527.544 130.193V130.516C527.544 130.373 527.529 130.258 527.499 130.168L527.24 126.001C527.205 125.438 526.731 125 526.178 125C525.622 125 525.178 125.448 525.178 126V130V135ZM532.196 134H533.196V138H532.196V134ZM530.196 134H531.196V138H530.196V134ZM528.196 134H529.196V138H528.196V134Z"/>
</mask>
<path fill-rule="evenodd" clip-rule="evenodd" d="M525.178 135L524.292 133.645C523.686 132.72 522.397 132.383 521.41 132.89L521.64 132.772C521.395 132.898 521.278 133.211 521.379 133.472L522.606 136.647C522.801 137.151 523.298 137.863 523.709 138.22C523.709 138.22 526.178 140.264 526.178 141.03V142H530.178L531.178 140L532.178 142H533.178V141.03C533.178 140.264 534.687 137.851 534.687 137.851C534.965 137.382 535.196 136.555 535.196 136.007V131.972C535.178 131.078 534.419 130.355 533.482 130.355C533.013 130.355 532.634 130.717 532.634 131.163V131.487C532.634 130.593 531.874 129.869 530.937 129.869C530.469 129.869 530.089 130.231 530.089 130.678V131.001C530.089 130.108 529.33 129.384 528.393 129.384C527.924 129.384 527.544 129.746 527.544 130.193V130.516C527.544 130.373 527.529 130.258 527.499 130.168L527.24 126.001C527.205 125.438 526.731 125 526.178 125C525.622 125 525.178 125.448 525.178 126V130V135ZM532.196 134H533.196V138H532.196V134ZM530.196 134H531.196V138H530.196V134ZM528.196 134H529.196V138H528.196V134Z" fill="white"/>
<path d="M525.178 135L524.342 135.548L526.178 138.354V135H525.178ZM524.292 133.645L525.128 133.098L524.292 133.645ZM521.379 133.472L520.446 133.833L521.379 133.472ZM522.606 136.647L523.539 136.287L522.606 136.647ZM523.709 138.22L523.054 138.975L523.063 138.983L523.072 138.991L523.709 138.22ZM526.178 142H525.178V143H526.178V142ZM530.178 142V143H530.796L531.073 142.447L530.178 142ZM531.178 140L532.073 139.553L531.178 137.764L530.284 139.553L531.178 140ZM532.178 142L531.284 142.447L531.56 143H532.178V142ZM533.178 142V143H534.178V142H533.178ZM534.687 137.851L535.535 138.381L535.541 138.371L535.548 138.36L534.687 137.851ZM535.196 131.972H536.196V131.962L536.196 131.952L535.196 131.972ZM527.499 130.168L526.501 130.23L526.509 130.358L526.549 130.479L527.499 130.168ZM527.24 126.001L526.242 126.063V126.063L527.24 126.001ZM525.178 126H524.178H525.178ZM533.196 134H534.196V133H533.196V134ZM533.196 138V139H534.196V138H533.196ZM532.196 138H531.196V139H532.196V138ZM532.196 134V133H531.196V134H532.196ZM531.196 134H532.196V133H531.196V134ZM531.196 138V139H532.196V138H531.196ZM530.196 138H529.196V139H530.196V138ZM530.196 134V133H529.196V134H530.196ZM529.196 134H530.196V133H529.196V134ZM529.196 138V139H530.196V138H529.196ZM528.196 138H527.196V139H528.196V138ZM528.196 134V133H527.196V134H528.196ZM526.015 134.452L525.128 133.098L523.455 134.193L524.342 135.548L526.015 134.452ZM525.128 133.098C524.241 131.742 522.392 131.261 520.953 132.001L521.868 133.779C522.402 133.505 523.132 133.699 523.455 134.193L525.128 133.098ZM521.868 133.779L522.097 133.661L521.183 131.882L520.953 132.001L521.868 133.779ZM521.183 131.882C520.474 132.247 520.165 133.105 520.446 133.833L522.312 133.112C522.357 133.23 522.347 133.34 522.317 133.421C522.286 133.503 522.219 133.599 522.097 133.661L521.183 131.882ZM520.446 133.833L521.673 137.008L523.539 136.287L522.312 133.112L520.446 133.833ZM521.673 137.008C521.926 137.662 522.517 138.51 523.054 138.975L524.365 137.465C524.078 137.216 523.675 136.64 523.539 136.287L521.673 137.008ZM523.709 138.22C523.072 138.991 523.072 138.991 523.072 138.991C523.072 138.991 523.072 138.991 523.072 138.991C523.072 138.991 523.072 138.991 523.072 138.991C523.072 138.991 523.072 138.991 523.072 138.991C523.073 138.992 523.075 138.993 523.077 138.995C523.08 138.998 523.087 139.003 523.095 139.01C523.111 139.024 523.136 139.045 523.168 139.072C523.232 139.126 523.324 139.205 523.435 139.303C523.658 139.499 523.952 139.765 524.243 140.051C524.538 140.342 524.81 140.632 525.001 140.88C525.097 141.004 525.156 141.095 525.186 141.152C525.226 141.23 525.178 141.174 525.178 141.03H527.178C527.178 140.694 527.053 140.407 526.959 140.226C526.854 140.025 526.719 139.831 526.584 139.656C526.312 139.304 525.966 138.941 525.645 138.625C525.319 138.304 524.996 138.012 524.756 137.801C524.635 137.695 524.534 137.608 524.463 137.548C524.427 137.517 524.399 137.494 524.379 137.477C524.37 137.469 524.362 137.462 524.356 137.458C524.354 137.455 524.351 137.454 524.35 137.452C524.349 137.452 524.348 137.451 524.348 137.451C524.348 137.451 524.348 137.45 524.347 137.45C524.347 137.45 524.347 137.45 524.347 137.45C524.347 137.45 524.347 137.45 523.709 138.22ZM525.178 141.03V142H527.178V141.03H525.178ZM526.178 143H530.178V141H526.178V143ZM531.073 142.447L532.073 140.447L530.284 139.553L529.284 141.553L531.073 142.447ZM530.284 140.447L531.284 142.447L533.073 141.553L532.073 139.553L530.284 140.447ZM532.178 143H533.178V141H532.178V143ZM534.178 142V141.03H532.178V142H534.178ZM534.178 141.03C534.178 141.066 534.189 140.944 534.335 140.6C534.459 140.307 534.631 139.965 534.813 139.628C534.993 139.294 535.174 138.981 535.311 138.75C535.379 138.635 535.436 138.542 535.475 138.477C535.495 138.445 535.51 138.421 535.521 138.404C535.526 138.396 535.529 138.39 535.532 138.386C535.533 138.384 535.534 138.382 535.535 138.382C535.535 138.381 535.535 138.381 535.535 138.381C535.535 138.381 535.535 138.381 535.535 138.381C535.535 138.381 535.535 138.381 535.535 138.381C535.535 138.381 535.535 138.381 534.687 137.851C533.839 137.321 533.839 137.321 533.839 137.321C533.839 137.321 533.839 137.321 533.839 137.321C533.839 137.321 533.839 137.321 533.839 137.321C533.838 137.322 533.838 137.322 533.838 137.323C533.837 137.325 533.835 137.327 533.834 137.329C533.83 137.335 533.826 137.342 533.82 137.352C533.808 137.371 533.791 137.399 533.769 137.434C533.726 137.505 533.665 137.606 533.592 137.729C533.446 137.975 533.25 138.313 533.053 138.678C532.857 139.04 532.652 139.445 532.493 139.82C532.356 140.144 532.178 140.611 532.178 141.03H534.178ZM535.548 138.36C535.745 138.026 535.902 137.613 536.01 137.226C536.117 136.839 536.196 136.401 536.196 136.007H534.196C534.196 136.161 534.16 136.41 534.082 136.691C534.005 136.971 533.907 137.206 533.827 137.341L535.548 138.36ZM536.196 136.007V131.972H534.196V136.007H536.196ZM536.196 131.952C536.166 130.482 534.931 129.355 533.482 129.355V131.355C533.907 131.355 534.19 131.675 534.197 131.992L536.196 131.952ZM533.482 129.355C532.506 129.355 531.634 130.12 531.634 131.163H533.634C533.634 131.232 533.603 131.286 533.572 131.315C533.542 131.344 533.508 131.355 533.482 131.355V129.355ZM531.634 131.163V131.487H533.634V131.163H531.634ZM533.634 131.487C533.634 129.997 532.381 128.869 530.937 128.869V130.869C531.367 130.869 531.634 131.19 531.634 131.487H533.634ZM530.937 128.869C529.962 128.869 529.089 129.635 529.089 130.678H531.089C531.089 130.746 531.058 130.801 531.027 130.83C530.997 130.859 530.963 130.869 530.937 130.869V128.869ZM529.089 130.678V131.001H531.089V130.678H529.089ZM531.089 131.001C531.089 129.511 529.836 128.384 528.393 128.384V130.384C528.823 130.384 529.089 130.705 529.089 131.001H531.089ZM528.393 128.384C527.417 128.384 526.544 129.149 526.544 130.193H528.544C528.544 130.261 528.514 130.315 528.483 130.345C528.453 130.373 528.419 130.384 528.393 130.384V128.384ZM526.544 130.193V130.516H528.544V130.193H526.544ZM528.544 130.516C528.544 130.309 528.523 130.081 528.45 129.857L526.549 130.479C526.541 130.456 526.54 130.444 526.541 130.452C526.542 130.459 526.544 130.479 526.544 130.516H528.544ZM528.497 130.106L528.239 125.939L526.242 126.063L526.501 130.23L528.497 130.106ZM528.239 125.939C528.171 124.845 527.255 124 526.178 124V126C526.187 126 526.203 126.003 526.22 126.019C526.236 126.034 526.242 126.05 526.242 126.063L528.239 125.939ZM526.178 124C525.068 124 524.178 124.898 524.178 126H526.178V126V124ZM524.178 126V130H526.178V126H524.178ZM524.178 130V135H526.178V130H524.178ZM532.196 135H533.196V133H532.196V135ZM532.196 134V138H534.196V134H532.196ZM533.196 137H532.196V139H533.196V137ZM533.196 138V134H531.196V138H533.196ZM530.196 135H531.196V133H530.196V135ZM530.196 134V138H532.196V134H530.196ZM531.196 137H530.196V139H531.196V137ZM531.196 138V134H529.196V138H531.196ZM528.196 135H529.196V133H528.196V135ZM528.196 134V138H530.196V134H528.196ZM529.196 137H528.196V139H529.196V137ZM529.196 138V134H527.196V138H529.196Z" fill="black" fill-opacity="0.8" mask="url(#path-5-outside-1_1137_11008)"/>
</g>
<path d="M444.343 106.5L439.343 109.387V103.613L444.343 106.5ZM399.343 107L394.343 109.387V103.613L399.343 106V107ZM441.458 107H439.535V106H441.458V107ZM437.612 107H435.689V106H437.612V107ZM433.766 107H431.843V106H433.766V107ZM429.92 107H427.997V106H429.92V107ZM426.074 107H424.15V106H426.074V107ZM422.227 107H420.304V106H422.227V107ZM418.381 107H416.458V106H418.381V107ZM414.535 107H412.612V106H414.535V107ZM410.689 107H408.766V106H410.689V107ZM406.843 107H404.92V106H406.843V107ZM402.997 107H401.074V106H402.997V107ZM399.15 107H397.227V106H399.15V107Z" fill="#964EA2"/>
<rect width="103" height="20" transform="translate(456.5 38)" fill="#964EA2"/>
<path d="M465.811 53.1172C464.998 53.1172 464.354 52.8398 463.877 52.2852C463.404 51.7305 463.168 50.9062 463.168 49.8125C463.168 48.707 463.41 47.873 463.895 47.3105C464.379 46.7441 465.023 46.4609 465.828 46.4609C466.168 46.4609 466.465 46.5059 466.719 46.5957C466.973 46.6855 467.191 46.8066 467.375 46.959C467.559 47.1074 467.713 47.2773 467.838 47.4688H467.908C467.893 47.3477 467.877 47.1816 467.861 46.9707C467.846 46.7598 467.838 46.5879 467.838 46.4551V43.8828H468.811V53H468.025L467.879 52.0859H467.838C467.717 52.2773 467.562 52.4512 467.375 52.6074C467.191 52.7637 466.971 52.8887 466.713 52.9824C466.459 53.0723 466.158 53.1172 465.811 53.1172ZM465.963 52.3086C466.65 52.3086 467.137 52.1133 467.422 51.7227C467.707 51.332 467.85 50.752 467.85 49.9824V49.8066C467.85 48.9902 467.713 48.3633 467.439 47.9258C467.17 47.4883 466.678 47.2695 465.963 47.2695C465.365 47.2695 464.918 47.5 464.621 47.9609C464.324 48.418 464.176 49.043 464.176 49.8359C464.176 50.625 464.322 51.2344 464.615 51.6641C464.912 52.0938 465.361 52.3086 465.963 52.3086ZM476.176 46.5781V53H475.379L475.238 52.0977H475.186C475.053 52.3203 474.881 52.5078 474.67 52.6602C474.459 52.8125 474.221 52.9258 473.955 53C473.693 53.0781 473.414 53.1172 473.117 53.1172C472.609 53.1172 472.184 53.0352 471.84 52.8711C471.496 52.707 471.236 52.4531 471.061 52.1094C470.889 51.7656 470.803 51.3242 470.803 50.7852V46.5781H471.787V50.7148C471.787 51.25 471.908 51.6504 472.15 51.916C472.393 52.1777 472.762 52.3086 473.258 52.3086C473.734 52.3086 474.113 52.2188 474.395 52.0391C474.68 51.8594 474.885 51.5957 475.01 51.248C475.135 50.8965 475.197 50.4668 475.197 49.959V46.5781H476.176ZM481.15 46.4609C481.279 46.4609 481.414 46.4688 481.555 46.4844C481.695 46.4961 481.82 46.5137 481.93 46.5371L481.807 47.4395C481.701 47.4121 481.584 47.3906 481.455 47.375C481.326 47.3594 481.205 47.3516 481.092 47.3516C480.834 47.3516 480.59 47.4043 480.359 47.5098C480.133 47.6113 479.934 47.7598 479.762 47.9551C479.59 48.1465 479.455 48.3789 479.357 48.6523C479.26 48.9219 479.211 49.2227 479.211 49.5547V53H478.232V46.5781H479.041L479.146 47.7617H479.188C479.32 47.5234 479.48 47.3066 479.668 47.1113C479.855 46.9121 480.072 46.7539 480.318 46.6367C480.568 46.5195 480.846 46.4609 481.15 46.4609ZM485.545 46.4727C486.311 46.4727 486.879 46.6445 487.25 46.9883C487.621 47.332 487.807 47.8809 487.807 48.6348V53H487.098L486.91 52.0508H486.863C486.684 52.2852 486.496 52.4824 486.301 52.6426C486.105 52.7988 485.879 52.918 485.621 53C485.367 53.0781 485.055 53.1172 484.684 53.1172C484.293 53.1172 483.945 53.0488 483.641 52.9121C483.34 52.7754 483.102 52.5684 482.926 52.291C482.754 52.0137 482.668 51.6621 482.668 51.2363C482.668 50.5957 482.922 50.1035 483.43 49.7598C483.938 49.416 484.711 49.2285 485.75 49.1973L486.857 49.1504V48.7578C486.857 48.2031 486.738 47.8145 486.5 47.5918C486.262 47.3691 485.926 47.2578 485.492 47.2578C485.156 47.2578 484.836 47.3066 484.531 47.4043C484.227 47.502 483.938 47.6172 483.664 47.75L483.365 47.0117C483.654 46.8633 483.986 46.7363 484.361 46.6309C484.736 46.5254 485.131 46.4727 485.545 46.4727ZM486.846 49.8359L485.867 49.877C485.066 49.9082 484.502 50.0391 484.174 50.2695C483.846 50.5 483.682 50.8262 483.682 51.248C483.682 51.6152 483.793 51.8867 484.016 52.0625C484.238 52.2383 484.533 52.3262 484.9 52.3262C485.471 52.3262 485.938 52.168 486.301 51.8516C486.664 51.5352 486.846 51.0605 486.846 50.4277V49.8359ZM491.885 52.3203C492.045 52.3203 492.209 52.3066 492.377 52.2793C492.545 52.252 492.682 52.2187 492.787 52.1797V52.9355C492.674 52.9863 492.516 53.0293 492.312 53.0645C492.113 53.0996 491.918 53.1172 491.727 53.1172C491.387 53.1172 491.078 53.0586 490.801 52.9414C490.523 52.8203 490.301 52.6172 490.133 52.332C489.969 52.0469 489.887 51.6523 489.887 51.1484V47.3398H488.973V46.8652L489.893 46.4844L490.279 45.0898H490.865V46.5781H492.746V47.3398H490.865V51.1191C490.865 51.5215 490.957 51.8223 491.141 52.0215C491.328 52.2207 491.576 52.3203 491.885 52.3203ZM495.061 46.5781V53H494.088V46.5781H495.061ZM494.586 44.1758C494.746 44.1758 494.883 44.2285 494.996 44.334C495.113 44.4355 495.172 44.5957 495.172 44.8145C495.172 45.0293 495.113 45.1895 494.996 45.2949C494.883 45.4004 494.746 45.4531 494.586 45.4531C494.418 45.4531 494.277 45.4004 494.164 45.2949C494.055 45.1895 494 45.0293 494 44.8145C494 44.5957 494.055 44.4355 494.164 44.334C494.277 44.2285 494.418 44.1758 494.586 44.1758ZM502.66 49.7773C502.66 50.3047 502.592 50.7754 502.455 51.1895C502.318 51.6035 502.121 51.9531 501.863 52.2383C501.605 52.5234 501.293 52.7422 500.926 52.8945C500.562 53.043 500.15 53.1172 499.689 53.1172C499.26 53.1172 498.865 53.043 498.506 52.8945C498.15 52.7422 497.842 52.5234 497.58 52.2383C497.322 51.9531 497.121 51.6035 496.977 51.1895C496.836 50.7754 496.766 50.3047 496.766 49.7773C496.766 49.0742 496.885 48.4766 497.123 47.9844C497.361 47.4883 497.701 47.1113 498.143 46.8535C498.588 46.5918 499.117 46.4609 499.73 46.4609C500.316 46.4609 500.828 46.5918 501.266 46.8535C501.707 47.1152 502.049 47.4941 502.291 47.9902C502.537 48.4824 502.66 49.0781 502.66 49.7773ZM497.773 49.7773C497.773 50.293 497.842 50.7402 497.979 51.1191C498.115 51.498 498.326 51.791 498.611 51.998C498.896 52.2051 499.264 52.3086 499.713 52.3086C500.158 52.3086 500.523 52.2051 500.809 51.998C501.098 51.791 501.311 51.498 501.447 51.1191C501.584 50.7402 501.652 50.293 501.652 49.7773C501.652 49.2656 501.584 48.8242 501.447 48.4531C501.311 48.0781 501.1 47.7891 500.814 47.5859C500.529 47.3828 500.16 47.2812 499.707 47.2812C499.039 47.2812 498.549 47.502 498.236 47.9434C497.928 48.3848 497.773 48.9961 497.773 49.7773ZM507.383 46.4609C508.145 46.4609 508.721 46.6484 509.111 47.0234C509.502 47.3945 509.697 47.9922 509.697 48.8164V53H508.736V48.8809C508.736 48.3457 508.613 47.9453 508.367 47.6797C508.125 47.4141 507.752 47.2812 507.248 47.2812C506.537 47.2812 506.037 47.4824 505.748 47.8848C505.459 48.2871 505.314 48.8711 505.314 49.6367V53H504.342V46.5781H505.127L505.273 47.5039H505.326C505.463 47.2773 505.637 47.0879 505.848 46.9355C506.059 46.7793 506.295 46.6621 506.557 46.584C506.818 46.502 507.094 46.4609 507.383 46.4609ZM511.156 50.2109V49.3437H514.062V50.2109H511.156ZM516.541 46.5781V53H515.568V46.5781H516.541ZM516.066 44.1758C516.227 44.1758 516.363 44.2285 516.477 44.334C516.594 44.4355 516.652 44.5957 516.652 44.8145C516.652 45.0293 516.594 45.1895 516.477 45.2949C516.363 45.4004 516.227 45.4531 516.066 45.4531C515.898 45.4531 515.758 45.4004 515.645 45.2949C515.535 45.1895 515.48 45.0293 515.48 44.8145C515.48 44.5957 515.535 44.4355 515.645 44.334C515.758 44.2285 515.898 44.1758 516.066 44.1758ZM521.645 46.4609C522.406 46.4609 522.982 46.6484 523.373 47.0234C523.764 47.3945 523.959 47.9922 523.959 48.8164V53L522.998 53V48.8809C522.998 48.3457 522.875 47.9453 522.629 47.6797C522.387 47.4141 522.014 47.2812 521.51 47.2812C520.799 47.2812 520.299 47.4824 520.01 47.8848C519.721 48.2871 519.576 48.8711 519.576 49.6367V53H518.604V46.5781H519.389L519.535 47.5039H519.588C519.725 47.2773 519.898 47.0879 520.109 46.9355C520.32 46.7793 520.557 46.6621 520.818 46.584C521.08 46.502 521.355 46.4609 521.645 46.4609ZM530.117 51.2422C530.117 51.6523 530.014 51.998 529.807 52.2793C529.604 52.5566 529.311 52.7656 528.928 52.9062C528.549 53.0469 528.096 53.1172 527.568 53.1172C527.119 53.1172 526.73 53.082 526.402 53.0117C526.074 52.9414 525.787 52.8418 525.541 52.7129V51.8164C525.803 51.9453 526.115 52.0625 526.479 52.168C526.842 52.2734 527.213 52.3262 527.592 52.3262C528.146 52.3262 528.549 52.2363 528.799 52.0566C529.049 51.877 529.174 51.6328 529.174 51.3242C529.174 51.1484 529.123 50.9941 529.021 50.8613C528.924 50.7246 528.758 50.5937 528.523 50.4687C528.289 50.3398 527.965 50.1992 527.551 50.0469C527.141 49.8906 526.785 49.7363 526.484 49.584C526.188 49.4277 525.957 49.2383 525.793 49.0156C525.633 48.793 525.553 48.5039 525.553 48.1484C525.553 47.6055 525.771 47.1895 526.209 46.9004C526.65 46.6074 527.229 46.4609 527.943 46.4609C528.33 46.4609 528.691 46.5 529.027 46.5781C529.367 46.6523 529.684 46.7539 529.977 46.8828L529.648 47.6621C529.383 47.5488 529.1 47.4531 528.799 47.375C528.498 47.2969 528.191 47.2578 527.879 47.2578C527.43 47.2578 527.084 47.332 526.842 47.4805C526.604 47.6289 526.484 47.832 526.484 48.0898C526.484 48.2891 526.539 48.4531 526.648 48.582C526.762 48.7109 526.941 48.832 527.188 48.9453C527.434 49.0586 527.758 49.1914 528.16 49.3437C528.562 49.4922 528.91 49.6465 529.203 49.8066C529.496 49.9629 529.721 50.1543 529.877 50.3809C530.037 50.6035 530.117 50.8906 530.117 51.2422ZM533.756 52.3203C533.916 52.3203 534.08 52.3066 534.248 52.2793C534.416 52.252 534.553 52.2187 534.658 52.1797V52.9355C534.545 52.9863 534.387 53.0293 534.184 53.0645C533.984 53.0996 533.789 53.1172 533.598 53.1172C533.258 53.1172 532.949 53.0586 532.672 52.9414C532.395 52.8203 532.172 52.6172 532.004 52.332C531.84 52.0469 531.758 51.6523 531.758 51.1484V47.3398H530.844V46.8652L531.764 46.4844L532.15 45.0898H532.736V46.5781H534.617V47.3398H532.736V51.1191C532.736 51.5215 532.828 51.8223 533.012 52.0215C533.199 52.2207 533.447 52.3203 533.756 52.3203ZM538.361 46.4727C539.127 46.4727 539.695 46.6445 540.066 46.9883C540.438 47.332 540.623 47.8809 540.623 48.6348V53H539.914L539.727 52.0508H539.68C539.5 52.2852 539.312 52.4824 539.117 52.6426C538.922 52.7988 538.695 52.918 538.438 53C538.184 53.0781 537.871 53.1172 537.5 53.1172C537.109 53.1172 536.762 53.0488 536.457 52.9121C536.156 52.7754 535.918 52.5684 535.742 52.291C535.57 52.0137 535.484 51.6621 535.484 51.2363C535.484 50.5957 535.738 50.1035 536.246 49.7598C536.754 49.416 537.527 49.2285 538.566 49.1973L539.674 49.1504V48.7578C539.674 48.2031 539.555 47.8145 539.316 47.5918C539.078 47.3691 538.742 47.2578 538.309 47.2578C537.973 47.2578 537.652 47.3066 537.348 47.4043C537.043 47.502 536.754 47.6172 536.48 47.75L536.182 47.0117C536.471 46.8633 536.803 46.7363 537.178 46.6309C537.553 46.5254 537.947 46.4727 538.361 46.4727ZM539.662 49.8359L538.684 49.877C537.883 49.9082 537.318 50.0391 536.99 50.2695C536.662 50.5 536.498 50.8262 536.498 51.248C536.498 51.6152 536.609 51.8867 536.832 52.0625C537.055 52.2383 537.35 52.3262 537.717 52.3262C538.287 52.3262 538.754 52.168 539.117 51.8516C539.48 51.5352 539.662 51.0605 539.662 50.4277V49.8359ZM545.668 46.4609C546.43 46.4609 547.006 46.6484 547.396 47.0234C547.787 47.3945 547.982 47.9922 547.982 48.8164V53H547.021V48.8809C547.021 48.3457 546.898 47.9453 546.652 47.6797C546.41 47.4141 546.037 47.2812 545.533 47.2812C544.822 47.2812 544.322 47.4824 544.033 47.8848C543.744 48.2871 543.6 48.8711 543.6 49.6367V53H542.627V46.5781H543.412L543.559 47.5039H543.611C543.748 47.2773 543.922 47.0879 544.133 46.9355C544.344 46.7793 544.58 46.6621 544.842 46.584C545.104 46.502 545.379 46.4609 545.668 46.4609ZM552.061 52.3203C552.221 52.3203 552.385 52.3066 552.553 52.2793C552.721 52.252 552.857 52.2187 552.963 52.1797V52.9355C552.85 52.9863 552.691 53.0293 552.488 53.0645C552.289 53.0996 552.094 53.1172 551.902 53.1172C551.562 53.1172 551.254 53.0586 550.977 52.9414C550.699 52.8203 550.477 52.6172 550.309 52.332C550.145 52.0469 550.062 51.6523 550.062 51.1484V47.3398H549.148V46.8652L550.068 46.4844L550.455 45.0898H551.041V46.5781H552.922V47.3398H551.041V51.1191C551.041 51.5215 551.133 51.8223 551.316 52.0215C551.504 52.2207 551.752 52.3203 552.061 52.3203Z" fill="white"/>
<path d="M508 84L505.113 79H510.887L508 84ZM508.5 58V58.9286H507.5V58H508.5ZM508.5 60.7857V62.6429H507.5V60.7857H508.5ZM508.5 64.5V66.3571H507.5L507.5 64.5H508.5ZM508.5 68.2143V70.0714H507.5L507.5 68.2143H508.5ZM508.5 71.9286L508.5 73.7857H507.5V71.9286H508.5ZM508.5 75.6429V77.5H507.5V75.6429H508.5ZM508.5 79.3571V81.2143H507.5L507.5 79.3571H508.5Z" fill="#964EA2"/>
<defs>
<filter id="filter0_d_1137_11008" x="517.343" y="122" width="21.8535" height="25" filterUnits="userSpaceOnUse" color-interpolation-filters="sRGB">
<feFlood flood-opacity="0" result="BackgroundImageFix"/>
<feColorMatrix in="SourceAlpha" type="matrix" values="0 0 0 0 0 0 0 0 0 0 0 0 0 0 0 0 0 0 127 0" result="hardAlpha"/>
<feOffset dy="1"/>
<feGaussianBlur stdDeviation="1.5"/>
<feColorMatrix type="matrix" values="0 0 0 0 0 0 0 0 0 0 0 0 0 0 0 0 0 0 0.2 0"/>
<feBlend mode="normal" in2="BackgroundImageFix" result="effect1_dropShadow_1137_11008"/>
<feBlend mode="normal" in="SourceGraphic" in2="effect1_dropShadow_1137_11008" result="shape"/>
</filter>
</defs>
</svg>
