<svg width="889" height="521" viewBox="0 0 889 521" fill="none" xmlns="http://www.w3.org/2000/svg">
<rect width="889" height="521" fill="#F2F4F6"/>
<rect x="65.9033" y="47.9033" width="757.193" height="425.193" fill="white"/>
<rect x="63.8333" y="46" width="761.333" height="45.68" fill="#C5C9D0"/>
<rect x="76.5" y="130.247" width="736" height="47" fill="white"/>
<path fill-rule="evenodd" clip-rule="evenodd" d="M91.5 146.747H98.5L102 150.247V157.247L98.5 160.747H91.5L88 157.247V150.247L91.5 146.747ZM93.8333 149.08H96.1667V154.913H93.8333V149.08ZM96.1667 156.663C96.1667 157.308 95.6443 157.83 95 157.83C94.3557 157.83 93.8333 157.308 93.8333 156.663C93.8333 156.019 94.3557 155.497 95 155.497C95.6443 155.497 96.1667 156.019 96.1667 156.663Z" fill="#E32B16"/>
<path d="M117.932 158.747H112.367V148.753H117.932V149.778H113.529V153.011H117.679V154.023H113.529V157.721H117.932V158.747ZM123.38 151.118C123.53 151.118 123.688 151.127 123.852 151.145C124.016 151.159 124.161 151.179 124.289 151.207L124.146 152.259C124.022 152.227 123.886 152.202 123.735 152.184C123.585 152.166 123.444 152.157 123.312 152.157C123.011 152.157 122.726 152.218 122.457 152.341C122.193 152.46 121.96 152.633 121.76 152.861C121.559 153.084 121.402 153.355 121.288 153.674C121.174 153.989 121.117 154.34 121.117 154.727V158.747H119.976V151.255H120.919L121.042 152.635H121.09C121.245 152.357 121.432 152.104 121.65 151.877C121.869 151.644 122.122 151.46 122.409 151.323C122.701 151.186 123.024 151.118 123.38 151.118ZM129.108 151.118C129.259 151.118 129.416 151.127 129.58 151.145C129.744 151.159 129.89 151.179 130.018 151.207L129.874 152.259C129.751 152.227 129.614 152.202 129.464 152.184C129.313 152.166 129.172 152.157 129.04 152.157C128.739 152.157 128.454 152.218 128.186 152.341C127.921 152.46 127.689 152.633 127.488 152.861C127.288 153.084 127.131 153.355 127.017 153.674C126.903 153.989 126.846 154.34 126.846 154.727V158.747H125.704V151.255H126.647L126.771 152.635H126.818C126.973 152.357 127.16 152.104 127.379 151.877C127.598 151.644 127.851 151.46 128.138 151.323C128.429 151.186 128.753 151.118 129.108 151.118ZM137.893 154.987C137.893 155.602 137.813 156.151 137.653 156.634C137.494 157.117 137.264 157.525 136.963 157.858C136.662 158.191 136.298 158.446 135.869 158.624C135.445 158.797 134.965 158.883 134.427 158.883C133.925 158.883 133.465 158.797 133.046 158.624C132.631 158.446 132.271 158.191 131.966 157.858C131.665 157.525 131.43 157.117 131.262 156.634C131.098 156.151 131.016 155.602 131.016 154.987C131.016 154.167 131.155 153.469 131.433 152.895C131.711 152.316 132.107 151.877 132.622 151.576C133.142 151.27 133.759 151.118 134.475 151.118C135.158 151.118 135.755 151.27 136.266 151.576C136.781 151.881 137.179 152.323 137.462 152.902C137.749 153.476 137.893 154.171 137.893 154.987ZM132.191 154.987C132.191 155.589 132.271 156.11 132.431 156.552C132.59 156.994 132.836 157.336 133.169 157.578C133.502 157.819 133.93 157.94 134.454 157.94C134.974 157.94 135.4 157.819 135.732 157.578C136.07 157.336 136.318 156.994 136.478 156.552C136.637 156.11 136.717 155.589 136.717 154.987C136.717 154.39 136.637 153.875 136.478 153.442C136.318 153.005 136.072 152.667 135.739 152.43C135.407 152.193 134.976 152.075 134.447 152.075C133.668 152.075 133.096 152.332 132.731 152.847C132.371 153.362 132.191 154.075 132.191 154.987ZM143.259 151.118C143.409 151.118 143.566 151.127 143.73 151.145C143.895 151.159 144.04 151.179 144.168 151.207L144.024 152.259C143.901 152.227 143.765 152.202 143.614 152.184C143.464 152.166 143.323 152.157 143.19 152.157C142.89 152.157 142.605 152.218 142.336 152.341C142.072 152.46 141.839 152.633 141.639 152.861C141.438 153.084 141.281 153.355 141.167 153.674C141.053 153.989 140.996 154.34 140.996 154.727V158.747H139.854V151.255H140.798L140.921 152.635H140.969C141.124 152.357 141.311 152.104 141.529 151.877C141.748 151.644 142.001 151.46 142.288 151.323C142.58 151.186 142.903 151.118 143.259 151.118ZM150.361 158.747H149.22V148.11H150.361V158.747ZM159.221 154.987C159.221 155.602 159.141 156.151 158.981 156.634C158.822 157.117 158.592 157.525 158.291 157.858C157.99 158.191 157.626 158.446 157.197 158.624C156.773 158.797 156.293 158.883 155.755 158.883C155.254 158.883 154.793 158.797 154.374 158.624C153.959 158.446 153.599 158.191 153.294 157.858C152.993 157.525 152.758 157.117 152.59 156.634C152.426 156.151 152.344 155.602 152.344 154.987C152.344 154.167 152.483 153.469 152.761 152.895C153.039 152.316 153.435 151.877 153.95 151.576C154.47 151.27 155.087 151.118 155.803 151.118C156.486 151.118 157.083 151.27 157.594 151.576C158.109 151.881 158.507 152.323 158.79 152.902C159.077 153.476 159.221 154.171 159.221 154.987ZM153.52 154.987C153.52 155.589 153.599 156.11 153.759 156.552C153.918 156.994 154.164 157.336 154.497 157.578C154.83 157.819 155.258 157.94 155.782 157.94C156.302 157.94 156.728 157.819 157.061 157.578C157.398 157.336 157.646 156.994 157.806 156.552C157.965 156.11 158.045 155.589 158.045 154.987C158.045 154.39 157.965 153.875 157.806 153.442C157.646 153.005 157.4 152.667 157.067 152.43C156.735 152.193 156.304 152.075 155.775 152.075C154.996 152.075 154.424 152.332 154.06 152.847C153.7 153.362 153.52 154.075 153.52 154.987ZM163.985 151.131C164.879 151.131 165.542 151.332 165.975 151.733C166.408 152.134 166.624 152.774 166.624 153.654V158.747H165.797L165.578 157.639H165.523C165.314 157.913 165.095 158.143 164.867 158.33C164.639 158.512 164.375 158.651 164.074 158.747C163.778 158.838 163.413 158.883 162.98 158.883C162.525 158.883 162.119 158.804 161.764 158.644C161.413 158.485 161.135 158.243 160.93 157.92C160.729 157.596 160.629 157.186 160.629 156.689C160.629 155.942 160.925 155.367 161.518 154.966C162.11 154.565 163.012 154.347 164.225 154.31L165.517 154.255V153.797C165.517 153.15 165.378 152.697 165.1 152.437C164.822 152.177 164.43 152.047 163.924 152.047C163.532 152.047 163.158 152.104 162.803 152.218C162.447 152.332 162.11 152.467 161.791 152.622L161.442 151.76C161.78 151.587 162.167 151.439 162.604 151.316C163.042 151.193 163.502 151.131 163.985 151.131ZM165.503 155.055L164.361 155.103C163.427 155.14 162.769 155.292 162.386 155.561C162.003 155.83 161.812 156.211 161.812 156.703C161.812 157.131 161.941 157.448 162.201 157.653C162.461 157.858 162.805 157.961 163.233 157.961C163.899 157.961 164.443 157.776 164.867 157.407C165.291 157.038 165.503 156.484 165.503 155.746V155.055ZM171.628 158.883C170.68 158.883 169.928 158.56 169.372 157.913C168.821 157.266 168.545 156.304 168.545 155.028C168.545 153.738 168.827 152.765 169.393 152.109C169.958 151.448 170.71 151.118 171.648 151.118C172.045 151.118 172.391 151.17 172.688 151.275C172.984 151.38 173.239 151.521 173.453 151.699C173.667 151.872 173.847 152.07 173.993 152.294H174.075C174.057 152.152 174.039 151.959 174.021 151.713C174.002 151.466 173.993 151.266 173.993 151.111V148.11H175.128V158.747H174.212L174.041 157.68H173.993C173.852 157.904 173.672 158.106 173.453 158.289C173.239 158.471 172.981 158.617 172.681 158.726C172.384 158.831 172.034 158.883 171.628 158.883ZM171.806 157.94C172.608 157.94 173.175 157.712 173.508 157.256C173.84 156.801 174.007 156.124 174.007 155.226V155.021C174.007 154.069 173.847 153.337 173.528 152.827C173.214 152.316 172.64 152.061 171.806 152.061C171.108 152.061 170.587 152.33 170.24 152.868C169.894 153.401 169.721 154.13 169.721 155.055C169.721 155.976 169.892 156.687 170.233 157.188C170.58 157.689 171.104 157.94 171.806 157.94ZM178.669 151.255V158.747H177.534V151.255H178.669ZM178.115 148.452C178.302 148.452 178.462 148.513 178.594 148.636C178.73 148.755 178.799 148.942 178.799 149.197C178.799 149.448 178.73 149.634 178.594 149.757C178.462 149.88 178.302 149.942 178.115 149.942C177.919 149.942 177.755 149.88 177.623 149.757C177.495 149.634 177.432 149.448 177.432 149.197C177.432 148.942 177.495 148.755 177.623 148.636C177.755 148.513 177.919 148.452 178.115 148.452ZM184.623 151.118C185.512 151.118 186.184 151.337 186.64 151.774C187.095 152.207 187.323 152.904 187.323 153.866V158.747H186.202V153.941C186.202 153.317 186.059 152.85 185.771 152.54C185.489 152.23 185.054 152.075 184.466 152.075C183.636 152.075 183.053 152.31 182.716 152.779C182.379 153.248 182.21 153.93 182.21 154.823V158.747H181.075V151.255H181.991L182.162 152.335H182.224C182.383 152.07 182.586 151.849 182.832 151.672C183.078 151.489 183.354 151.352 183.659 151.261C183.965 151.166 184.286 151.118 184.623 151.118ZM191.753 162.11C190.769 162.11 190.01 161.925 189.477 161.556C188.943 161.192 188.677 160.679 188.677 160.018C188.677 159.549 188.825 159.148 189.121 158.815C189.422 158.482 189.837 158.261 190.365 158.152C190.169 158.061 190.001 157.924 189.859 157.742C189.723 157.56 189.654 157.35 189.654 157.113C189.654 156.839 189.729 156.6 189.88 156.395C190.035 156.186 190.27 155.985 190.584 155.794C190.192 155.634 189.873 155.365 189.627 154.987C189.385 154.604 189.265 154.16 189.265 153.654C189.265 153.116 189.376 152.658 189.6 152.28C189.823 151.897 190.146 151.605 190.57 151.405C190.994 151.204 191.507 151.104 192.108 151.104C192.241 151.104 192.373 151.111 192.505 151.125C192.642 151.134 192.771 151.15 192.895 151.172C193.018 151.191 193.125 151.214 193.216 151.241H195.786V151.972L194.405 152.143C194.542 152.321 194.656 152.535 194.747 152.786C194.838 153.036 194.884 153.314 194.884 153.62C194.884 154.367 194.631 154.962 194.125 155.404C193.619 155.841 192.924 156.06 192.04 156.06C191.83 156.06 191.616 156.042 191.397 156.005C191.174 156.129 191.003 156.265 190.885 156.416C190.771 156.566 190.714 156.739 190.714 156.935C190.714 157.081 190.757 157.197 190.844 157.284C190.935 157.37 191.065 157.434 191.233 157.475C191.402 157.512 191.605 157.53 191.842 157.53H193.161C193.977 157.53 194.601 157.701 195.034 158.043C195.472 158.384 195.69 158.883 195.69 159.54C195.69 160.369 195.353 161.005 194.679 161.447C194.004 161.889 193.029 162.11 191.753 162.11ZM191.787 161.221C192.407 161.221 192.92 161.158 193.325 161.03C193.735 160.907 194.041 160.727 194.241 160.49C194.446 160.257 194.549 159.979 194.549 159.656C194.549 159.355 194.48 159.127 194.344 158.972C194.207 158.822 194.007 158.722 193.742 158.672C193.478 158.617 193.154 158.589 192.771 158.589H191.473C191.135 158.589 190.841 158.642 190.591 158.747C190.34 158.852 190.146 159.006 190.01 159.212C189.878 159.417 189.812 159.672 189.812 159.977C189.812 160.383 189.982 160.69 190.324 160.9C190.666 161.114 191.154 161.221 191.787 161.221ZM192.081 155.233C192.623 155.233 193.031 155.096 193.305 154.823C193.578 154.549 193.715 154.151 193.715 153.627C193.715 153.066 193.576 152.647 193.298 152.369C193.02 152.086 192.61 151.945 192.067 151.945C191.548 151.945 191.147 152.091 190.864 152.382C190.586 152.67 190.447 153.091 190.447 153.647C190.447 154.158 190.589 154.549 190.871 154.823C191.154 155.096 191.557 155.233 192.081 155.233ZM202.041 158.747H200.899V148.11H202.041V158.747ZM207.243 151.131C208.136 151.131 208.799 151.332 209.232 151.733C209.665 152.134 209.882 152.774 209.882 153.654V158.747H209.055L208.836 157.639H208.781C208.572 157.913 208.353 158.143 208.125 158.33C207.897 158.512 207.633 158.651 207.332 158.747C207.036 158.838 206.671 158.883 206.238 158.883C205.783 158.883 205.377 158.804 205.021 158.644C204.671 158.485 204.393 158.243 204.188 157.92C203.987 157.596 203.887 157.186 203.887 156.689C203.887 155.942 204.183 155.367 204.775 154.966C205.368 154.565 206.27 154.347 207.482 154.31L208.774 154.255V153.797C208.774 153.15 208.635 152.697 208.357 152.437C208.079 152.177 207.688 152.047 207.182 152.047C206.79 152.047 206.416 152.104 206.061 152.218C205.705 152.332 205.368 152.467 205.049 152.622L204.7 151.76C205.037 151.587 205.425 151.439 205.862 151.316C206.3 151.193 206.76 151.131 207.243 151.131ZM208.761 155.055L207.619 155.103C206.685 155.14 206.026 155.292 205.644 155.561C205.261 155.83 205.069 156.211 205.069 156.703C205.069 157.131 205.199 157.448 205.459 157.653C205.719 157.858 206.063 157.961 206.491 157.961C207.157 157.961 207.701 157.776 208.125 157.407C208.549 157.038 208.761 156.484 208.761 155.746V155.055ZM214.64 157.954C214.826 157.954 215.018 157.938 215.214 157.906C215.41 157.874 215.569 157.835 215.692 157.79V158.672C215.56 158.731 215.376 158.781 215.139 158.822C214.906 158.863 214.678 158.883 214.455 158.883C214.059 158.883 213.699 158.815 213.375 158.678C213.051 158.537 212.792 158.3 212.596 157.967C212.404 157.635 212.309 157.174 212.309 156.587V152.143H211.242V151.589L212.315 151.145L212.767 149.518H213.45V151.255H215.645V152.143H213.45V156.552C213.45 157.022 213.557 157.373 213.771 157.605C213.99 157.838 214.28 157.954 214.64 157.954ZM220.095 151.118C220.733 151.118 221.28 151.259 221.735 151.542C222.191 151.824 222.54 152.221 222.781 152.731C223.023 153.237 223.144 153.829 223.144 154.508V155.213H217.969C217.982 156.092 218.201 156.762 218.625 157.222C219.049 157.683 219.646 157.913 220.416 157.913C220.89 157.913 221.309 157.869 221.674 157.783C222.038 157.696 222.417 157.569 222.809 157.4V158.398C222.43 158.567 222.054 158.69 221.681 158.767C221.312 158.845 220.874 158.883 220.368 158.883C219.648 158.883 219.019 158.738 218.481 158.446C217.948 158.15 217.534 157.717 217.237 157.147C216.941 156.577 216.793 155.88 216.793 155.055C216.793 154.249 216.927 153.551 217.196 152.964C217.47 152.371 217.853 151.915 218.345 151.596C218.841 151.277 219.425 151.118 220.095 151.118ZM220.081 152.047C219.475 152.047 218.992 152.246 218.632 152.642C218.272 153.039 218.058 153.592 217.989 154.303H221.954C221.95 153.857 221.879 153.465 221.742 153.128C221.61 152.786 221.407 152.521 221.134 152.335C220.86 152.143 220.509 152.047 220.081 152.047ZM229.918 156.696C229.918 157.174 229.797 157.578 229.556 157.906C229.319 158.229 228.977 158.473 228.53 158.637C228.088 158.801 227.56 158.883 226.944 158.883C226.42 158.883 225.967 158.842 225.584 158.76C225.201 158.678 224.866 158.562 224.579 158.412V157.366C224.884 157.516 225.249 157.653 225.673 157.776C226.097 157.899 226.53 157.961 226.972 157.961C227.619 157.961 228.088 157.856 228.38 157.646C228.672 157.436 228.817 157.152 228.817 156.792C228.817 156.587 228.758 156.407 228.64 156.252C228.526 156.092 228.332 155.939 228.059 155.794C227.785 155.643 227.407 155.479 226.924 155.301C226.445 155.119 226.031 154.939 225.68 154.761C225.333 154.579 225.064 154.358 224.873 154.098C224.686 153.839 224.593 153.501 224.593 153.087C224.593 152.453 224.848 151.968 225.358 151.63C225.873 151.289 226.548 151.118 227.382 151.118C227.833 151.118 228.255 151.163 228.646 151.255C229.043 151.341 229.412 151.46 229.754 151.61L229.371 152.519C229.061 152.387 228.731 152.275 228.38 152.184C228.029 152.093 227.671 152.047 227.307 152.047C226.783 152.047 226.379 152.134 226.097 152.307C225.819 152.48 225.68 152.717 225.68 153.018C225.68 153.251 225.743 153.442 225.871 153.592C226.003 153.743 226.213 153.884 226.5 154.016C226.787 154.148 227.165 154.303 227.635 154.481C228.104 154.654 228.51 154.834 228.852 155.021C229.193 155.203 229.455 155.427 229.638 155.691C229.825 155.951 229.918 156.286 229.918 156.696ZM234.163 157.954C234.35 157.954 234.541 157.938 234.737 157.906C234.933 157.874 235.093 157.835 235.216 157.79V158.672C235.084 158.731 234.899 158.781 234.662 158.822C234.43 158.863 234.202 158.883 233.979 158.883C233.582 158.883 233.222 158.815 232.898 158.678C232.575 158.537 232.315 158.3 232.119 157.967C231.928 157.635 231.832 157.174 231.832 156.587V152.143H230.766V151.589L231.839 151.145L232.29 149.518H232.974V151.255H235.168V152.143H232.974V156.552C232.974 157.022 233.081 157.373 233.295 157.605C233.514 157.838 233.803 157.954 234.163 157.954ZM243.036 158.883C242.088 158.883 241.336 158.56 240.78 157.913C240.229 157.266 239.953 156.304 239.953 155.028C239.953 153.738 240.236 152.765 240.801 152.109C241.366 151.448 242.118 151.118 243.057 151.118C243.453 151.118 243.799 151.17 244.096 151.275C244.392 151.38 244.647 151.521 244.861 151.699C245.076 151.872 245.256 152.07 245.401 152.294H245.483C245.465 152.152 245.447 151.959 245.429 151.713C245.41 151.466 245.401 151.266 245.401 151.111V148.11H246.536V158.747H245.62L245.449 157.68H245.401C245.26 157.904 245.08 158.106 244.861 158.289C244.647 158.471 244.39 158.617 244.089 158.726C243.793 158.831 243.442 158.883 243.036 158.883ZM243.214 157.94C244.016 157.94 244.583 157.712 244.916 157.256C245.249 156.801 245.415 156.124 245.415 155.226V155.021C245.415 154.069 245.256 153.337 244.937 152.827C244.622 152.316 244.048 152.061 243.214 152.061C242.517 152.061 241.995 152.33 241.648 152.868C241.302 153.401 241.129 154.13 241.129 155.055C241.129 155.976 241.3 156.687 241.642 157.188C241.988 157.689 242.512 157.94 243.214 157.94ZM251.745 151.131C252.638 151.131 253.301 151.332 253.734 151.733C254.167 152.134 254.384 152.774 254.384 153.654V158.747H253.557L253.338 157.639H253.283C253.074 157.913 252.855 158.143 252.627 158.33C252.399 158.512 252.135 158.651 251.834 158.747C251.538 158.838 251.173 158.883 250.74 158.883C250.285 158.883 249.879 158.804 249.523 158.644C249.173 158.485 248.895 158.243 248.689 157.92C248.489 157.596 248.389 157.186 248.389 156.689C248.389 155.942 248.685 155.367 249.277 154.966C249.87 154.565 250.772 154.347 251.984 154.31L253.276 154.255V153.797C253.276 153.15 253.137 152.697 252.859 152.437C252.581 152.177 252.189 152.047 251.684 152.047C251.292 152.047 250.918 152.104 250.562 152.218C250.207 152.332 249.87 152.467 249.551 152.622L249.202 151.76C249.539 151.587 249.927 151.439 250.364 151.316C250.802 151.193 251.262 151.131 251.745 151.131ZM253.263 155.055L252.121 155.103C251.187 155.14 250.528 155.292 250.146 155.561C249.763 155.83 249.571 156.211 249.571 156.703C249.571 157.131 249.701 157.448 249.961 157.653C250.221 157.858 250.565 157.961 250.993 157.961C251.659 157.961 252.203 157.776 252.627 157.407C253.051 157.038 253.263 156.484 253.263 155.746V155.055ZM259.142 157.954C259.328 157.954 259.52 157.938 259.716 157.906C259.912 157.874 260.071 157.835 260.194 157.79V158.672C260.062 158.731 259.878 158.781 259.641 158.822C259.408 158.863 259.18 158.883 258.957 158.883C258.561 158.883 258.201 158.815 257.877 158.678C257.553 158.537 257.294 158.3 257.098 157.967C256.906 157.635 256.811 157.174 256.811 156.587V152.143H255.744V151.589L256.817 151.145L257.269 149.518H257.952V151.255H260.146V152.143H257.952V156.552C257.952 157.022 258.059 157.373 258.273 157.605C258.492 157.838 258.782 157.954 259.142 157.954ZM264.515 151.131C265.408 151.131 266.071 151.332 266.504 151.733C266.937 152.134 267.153 152.774 267.153 153.654V158.747H266.326L266.107 157.639H266.053C265.843 157.913 265.624 158.143 265.396 158.33C265.169 158.512 264.904 158.651 264.604 158.747C264.307 158.838 263.943 158.883 263.51 158.883C263.054 158.883 262.648 158.804 262.293 158.644C261.942 158.485 261.664 158.243 261.459 157.92C261.258 157.596 261.158 157.186 261.158 156.689C261.158 155.942 261.454 155.367 262.047 154.966C262.639 154.565 263.542 154.347 264.754 154.31L266.046 154.255V153.797C266.046 153.15 265.907 152.697 265.629 152.437C265.351 152.177 264.959 152.047 264.453 152.047C264.061 152.047 263.688 152.104 263.332 152.218C262.977 152.332 262.639 152.467 262.32 152.622L261.972 151.76C262.309 151.587 262.696 151.439 263.134 151.316C263.571 151.193 264.032 151.131 264.515 151.131ZM266.032 155.055L264.891 155.103C263.956 155.14 263.298 155.292 262.915 155.561C262.532 155.83 262.341 156.211 262.341 156.703C262.341 157.131 262.471 157.448 262.73 157.653C262.99 157.858 263.334 157.961 263.763 157.961C264.428 157.961 264.973 157.776 265.396 157.407C265.82 157.038 266.032 156.484 266.032 155.746V155.055ZM277.975 156.696C277.975 157.174 277.854 157.578 277.612 157.906C277.375 158.229 277.034 158.473 276.587 158.637C276.145 158.801 275.616 158.883 275.001 158.883C274.477 158.883 274.023 158.842 273.641 158.76C273.258 158.678 272.923 158.562 272.636 158.412V157.366C272.941 157.516 273.306 157.653 273.729 157.776C274.153 157.899 274.586 157.961 275.028 157.961C275.675 157.961 276.145 157.856 276.437 157.646C276.728 157.436 276.874 157.152 276.874 156.792C276.874 156.587 276.815 156.407 276.696 156.252C276.582 156.092 276.389 155.939 276.115 155.794C275.842 155.643 275.464 155.479 274.98 155.301C274.502 155.119 274.087 154.939 273.736 154.761C273.39 154.579 273.121 154.358 272.93 154.098C272.743 153.839 272.649 153.501 272.649 153.087C272.649 152.453 272.905 151.968 273.415 151.63C273.93 151.289 274.604 151.118 275.438 151.118C275.89 151.118 276.311 151.163 276.703 151.255C277.1 151.341 277.469 151.46 277.811 151.61L277.428 152.519C277.118 152.387 276.787 152.275 276.437 152.184C276.086 152.093 275.728 152.047 275.363 152.047C274.839 152.047 274.436 152.134 274.153 152.307C273.875 152.48 273.736 152.717 273.736 153.018C273.736 153.251 273.8 153.442 273.928 153.592C274.06 153.743 274.27 153.884 274.557 154.016C274.844 154.148 275.222 154.303 275.691 154.481C276.161 154.654 276.566 154.834 276.908 155.021C277.25 155.203 277.512 155.427 277.694 155.691C277.881 155.951 277.975 156.286 277.975 156.696ZM282.685 151.118C283.323 151.118 283.869 151.259 284.325 151.542C284.781 151.824 285.13 152.221 285.371 152.731C285.613 153.237 285.733 153.829 285.733 154.508V155.213H280.559C280.572 156.092 280.791 156.762 281.215 157.222C281.639 157.683 282.236 157.913 283.006 157.913C283.48 157.913 283.899 157.869 284.264 157.783C284.628 157.696 285.007 157.569 285.398 157.4V158.398C285.02 158.567 284.644 158.69 284.271 158.767C283.901 158.845 283.464 158.883 282.958 158.883C282.238 158.883 281.609 158.738 281.071 158.446C280.538 158.15 280.123 157.717 279.827 157.147C279.531 156.577 279.383 155.88 279.383 155.055C279.383 154.249 279.517 153.551 279.786 152.964C280.06 152.371 280.442 151.915 280.935 151.596C281.431 151.277 282.015 151.118 282.685 151.118ZM282.671 152.047C282.065 152.047 281.582 152.246 281.222 152.642C280.862 153.039 280.647 153.592 280.579 154.303H284.544C284.539 153.857 284.469 153.465 284.332 153.128C284.2 152.786 283.997 152.521 283.724 152.335C283.45 152.143 283.099 152.047 282.671 152.047ZM290.081 157.954C290.268 157.954 290.459 157.938 290.655 157.906C290.851 157.874 291.011 157.835 291.134 157.79V158.672C291.002 158.731 290.817 158.781 290.58 158.822C290.348 158.863 290.12 158.883 289.896 158.883C289.5 158.883 289.14 158.815 288.816 158.678C288.493 158.537 288.233 158.3 288.037 157.967C287.846 157.635 287.75 157.174 287.75 156.587V152.143H286.684V151.589L287.757 151.145L288.208 149.518H288.892V151.255H291.086V152.143H288.892V156.552C288.892 157.022 288.999 157.373 289.213 157.605C289.432 157.838 289.721 157.954 290.081 157.954ZM292.48 158.036C292.48 157.717 292.558 157.491 292.713 157.359C292.868 157.222 293.057 157.154 293.28 157.154C293.513 157.154 293.709 157.222 293.868 157.359C294.028 157.491 294.107 157.717 294.107 158.036C294.107 158.35 294.028 158.58 293.868 158.726C293.709 158.867 293.513 158.938 293.28 158.938C293.057 158.938 292.868 158.867 292.713 158.726C292.558 158.58 292.48 158.35 292.48 158.036Z" fill="#161616"/>
<path d="M696.833 151.413L694.5 149.08C693.083 150.144 692.167 151.838 692.167 153.747C692.167 156.569 694.171 158.923 696.833 159.463V160.65C693.523 160.094 691 157.215 691 153.747C691 151.516 692.043 149.53 693.668 148.248L692.167 146.747L696.833 146.747L696.833 151.413Z" fill="#161616"/>
<path d="M699.167 156.08L701.5 158.414C702.917 157.349 703.833 155.655 703.833 153.747C703.833 150.925 701.829 148.571 699.167 148.03V146.843C702.477 147.399 705 150.278 705 153.747C705 155.977 703.957 157.964 702.332 159.245L703.833 160.747H699.167V156.08Z" fill="#161616"/>
<path d="M715.778 158.747H714.131V150.147H711.205V148.753H718.697V150.147H715.778V158.747ZM723.638 148.753C724.499 148.753 725.21 148.857 725.771 149.067C726.336 149.277 726.755 149.596 727.029 150.024C727.307 150.452 727.446 150.997 727.446 151.658C727.446 152.15 727.355 152.569 727.172 152.916C726.99 153.262 726.751 153.549 726.454 153.777C726.158 154.005 725.842 154.187 725.504 154.324L728.341 158.747H726.489L724.076 154.741H722.469V158.747H720.829V148.753H723.638ZM723.529 150.12H722.469V153.387H723.604C724.365 153.387 724.916 153.246 725.258 152.964C725.605 152.681 725.778 152.264 725.778 151.713C725.778 151.134 725.593 150.724 725.224 150.482C724.859 150.241 724.294 150.12 723.529 150.12ZM733.2 153.312L735.572 148.753H737.343L734.02 154.864V158.747H732.387V154.925L729.057 148.753H730.842L733.2 153.312ZM749.685 158.747L748.708 155.971H744.886L743.909 158.747H742.179L745.898 148.712H747.716L751.428 158.747H749.685ZM748.284 154.563L747.334 151.829C747.297 151.71 747.245 151.544 747.176 151.33C747.108 151.111 747.04 150.89 746.971 150.667C746.903 150.439 746.846 150.247 746.8 150.092C746.755 150.279 746.698 150.489 746.629 150.721C746.566 150.949 746.502 151.163 746.438 151.364C746.379 151.564 746.333 151.719 746.301 151.829L745.344 154.563H748.284ZM757.381 153.319H761.113V158.337C760.589 158.51 760.047 158.644 759.486 158.74C758.926 158.836 758.297 158.883 757.6 158.883C756.583 158.883 755.722 158.683 755.016 158.282C754.314 157.876 753.781 157.291 753.416 156.525C753.051 155.755 752.869 154.827 752.869 153.743C752.869 152.699 753.072 151.795 753.478 151.029C753.883 150.259 754.473 149.664 755.248 149.245C756.023 148.821 756.962 148.609 758.064 148.609C758.607 148.609 759.131 148.664 759.637 148.773C760.147 148.878 760.614 149.024 761.038 149.211L760.464 150.564C760.127 150.405 759.748 150.27 759.329 150.161C758.91 150.051 758.475 149.997 758.023 149.997C757.308 149.997 756.69 150.152 756.171 150.462C755.656 150.771 755.259 151.209 754.981 151.774C754.703 152.335 754.564 152.998 754.564 153.763C754.564 154.506 754.676 155.158 754.899 155.718C755.123 156.279 755.471 156.716 755.945 157.031C756.424 157.341 757.041 157.496 757.798 157.496C758.176 157.496 758.497 157.475 758.762 157.434C759.026 157.393 759.27 157.348 759.493 157.297V154.72H757.381V153.319ZM770.299 158.747L769.322 155.971H765.5L764.523 158.747H762.793L766.512 148.712H768.33L772.042 158.747H770.299ZM768.898 154.563L767.948 151.829C767.911 151.71 767.859 151.544 767.79 151.33C767.722 151.111 767.654 150.89 767.585 150.667C767.517 150.439 767.46 150.247 767.414 150.092C767.369 150.279 767.312 150.489 767.244 150.721C767.18 150.949 767.116 151.163 767.052 151.364C766.993 151.564 766.947 151.719 766.915 151.829L765.958 154.563H768.898ZM773.962 158.747V148.753H775.602V158.747H773.962ZM787.181 158.747H785.164L780.27 150.769H780.208C780.226 151.038 780.242 151.323 780.256 151.624C780.274 151.924 780.288 152.234 780.297 152.553C780.311 152.872 780.322 153.196 780.331 153.524V158.747H778.841V148.753H780.844L785.732 156.675H785.779C785.77 156.443 785.759 156.176 785.745 155.876C785.732 155.575 785.718 155.265 785.704 154.946C785.695 154.622 785.688 154.31 785.684 154.009V148.753H787.181V158.747Z" fill="#161616"/>
<rect x="76.5" y="130.247" width="736" height="47" stroke="#E32B16"/>
<rect x="126" y="215.813" width="177" height="8" rx="3.80667" fill="#84878E"/>
<rect x="126" y="247.813" width="637" height="223.391" fill="white"/>
<rect x="132.22" y="254.033" width="624.561" height="210.951" fill="white"/>
<rect x="340.579" y="292.388" width="103.662" height="18.6591" fill="white"/>
<rect x="548.939" y="292.388" width="103.662" height="18.6591" fill="white"/>
<rect x="340.579" y="311.565" width="103.662" height="18.6591" fill="white"/>
<rect x="548.939" y="311.565" width="103.662" height="18.6591" fill="white"/>
<rect x="653.119" y="311.565" width="103.662" height="18.6591" fill="white"/>
<rect x="340.579" y="330.742" width="103.662" height="18.6591" fill="white"/>
<rect x="548.939" y="330.742" width="103.662" height="18.6591" fill="white"/>
<rect x="132.22" y="349.92" width="103.662" height="18.6591" fill="white"/>
<rect x="340.579" y="349.92" width="103.662" height="18.6591" fill="white"/>
<rect x="444.759" y="349.92" width="103.662" height="18.6591" fill="white"/>
<rect x="548.939" y="349.92" width="103.662" height="18.6591" fill="white"/>
<rect x="340.579" y="369.097" width="103.662" height="18.6591" fill="white"/>
<rect x="548.939" y="369.097" width="103.662" height="18.6591" fill="white"/>
<rect x="340.579" y="388.274" width="103.662" height="18.6591" fill="white"/>
<rect x="548.939" y="388.274" width="103.662" height="18.6591" fill="white"/>
<rect x="132.22" y="407.452" width="103.662" height="18.6591" fill="white"/>
<rect x="340.579" y="407.452" width="103.662" height="18.6591" fill="white"/>
<rect x="548.939" y="407.452" width="103.662" height="18.6591" fill="white"/>
<rect x="340.579" y="426.629" width="103.662" height="18.6591" fill="white"/>
<rect x="548.939" y="426.629" width="103.662" height="18.6591" fill="white"/>
<rect x="340.579" y="445.807" width="103.662" height="18.6591" fill="white"/>
<rect x="548.939" y="445.807" width="103.662" height="18.6591" fill="white"/>
<rect x="132.22" y="273.21" width="103.662" height="36" fill="white"/>
<rect x="236.399" y="273.21" width="103.662" height="36" fill="white"/>
<rect x="340.579" y="273.21" width="103.662" height="36" fill="white"/>
<rect x="444.759" y="273.21" width="103.662" height="36" fill="white"/>
<rect x="548.939" y="273.21" width="103.662" height="36" fill="white"/>
<rect x="653.119" y="273.21" width="103.662" height="36" fill="white"/>
<rect x="132.22" y="292.388" width="103.662" height="36" fill="white"/>
<rect x="236.399" y="292.388" width="103.662" height="36" fill="white"/>
<rect x="340.579" y="292.388" width="103.662" height="36" fill="white"/>
<rect x="444.759" y="292.388" width="103.662" height="36" fill="white"/>
<rect x="548.939" y="292.388" width="103.662" height="36" fill="white"/>
<rect x="653.119" y="292.388" width="103.662" height="36" fill="white"/>
<rect x="132.22" y="311.565" width="103.662" height="36" fill="white"/>
<rect x="236.399" y="311.565" width="103.662" height="36" fill="white"/>
<rect x="340.579" y="311.565" width="103.662" height="36" fill="white"/>
<rect x="444.759" y="311.565" width="103.662" height="36" fill="white"/>
<rect x="548.939" y="311.565" width="103.662" height="36" fill="white"/>
<rect x="653.119" y="311.565" width="103.662" height="36" fill="white"/>
<rect x="132.22" y="330.743" width="103.662" height="36" fill="white"/>
<rect x="236.399" y="330.742" width="103.662" height="36" fill="white"/>
<rect x="340.579" y="330.742" width="103.662" height="36" fill="white"/>
<rect x="444.759" y="330.742" width="103.662" height="36" fill="white"/>
<rect x="548.939" y="330.742" width="103.662" height="36" fill="white"/>
<rect x="653.119" y="330.742" width="103.662" height="36" fill="white"/>
<rect x="132.22" y="349.92" width="103.662" height="36" fill="white"/>
<rect x="236.399" y="349.92" width="103.662" height="36" fill="white"/>
<rect x="340.579" y="349.92" width="103.662" height="36" fill="white"/>
<rect x="444.759" y="349.92" width="103.662" height="36" fill="white"/>
<rect x="548.939" y="349.92" width="103.662" height="36" fill="white"/>
<rect x="653.119" y="349.92" width="103.662" height="36" fill="white"/>
<rect x="132.22" y="369.098" width="103.662" height="36" fill="white"/>
<rect x="236.399" y="369.097" width="103.662" height="36" fill="white"/>
<rect x="340.579" y="369.097" width="103.662" height="36" fill="white"/>
<rect x="444.759" y="369.097" width="103.662" height="36" fill="white"/>
<rect x="548.939" y="369.097" width="103.662" height="36" fill="white"/>
<rect x="653.119" y="369.097" width="103.662" height="36" fill="white"/>
<rect x="132.22" y="388.275" width="103.662" height="36" fill="white"/>
<rect x="236.399" y="388.274" width="103.662" height="36" fill="white"/>
<rect x="340.579" y="388.274" width="103.662" height="36" fill="white"/>
<rect x="444.759" y="388.274" width="103.662" height="36" fill="white"/>
<rect x="548.939" y="388.274" width="103.662" height="36" fill="white"/>
<rect x="653.119" y="388.274" width="103.662" height="36" fill="white"/>
<rect x="132.22" y="407.452" width="103.662" height="36" fill="white"/>
<rect x="236.399" y="407.452" width="103.662" height="36" fill="white"/>
<rect x="340.579" y="407.452" width="103.662" height="36" fill="white"/>
<rect x="444.759" y="407.452" width="103.662" height="36" fill="white"/>
<rect x="548.939" y="407.452" width="103.662" height="36" fill="white"/>
<rect x="653.119" y="407.452" width="103.662" height="36" fill="white"/>
<rect x="236.399" y="426.63" width="103.662" height="36" fill="white"/>
<rect x="340.579" y="426.629" width="103.662" height="36" fill="white"/>
<rect x="444.759" y="426.629" width="103.662" height="36" fill="white"/>
<rect x="548.939" y="426.629" width="103.662" height="36" fill="white"/>
<rect x="653.119" y="426.629" width="103.662" height="36" fill="white"/>
<rect x="132" y="445.887" width="104" height="19" fill="white"/>
<rect x="236" y="445.887" width="104" height="19" fill="white"/>
<rect x="341" y="445.887" width="103" height="19" fill="white"/>
<rect x="445" y="445.887" width="103" height="19" fill="white"/>
<rect x="549" y="445.887" width="104" height="19" fill="white"/>
<rect x="653" y="445.887" width="104" height="19" fill="white"/>
<rect x="132.22" y="298.555" width="624.561" height="18.6591" fill="#EAEDEF"/>
<rect x="132.22" y="336.91" width="624.561" height="18.6591" fill="#CBE7F9"/>
<rect x="132.22" y="375.265" width="624.561" height="18.6591" fill="#EAEDEF"/>
<rect x="132.22" y="413.619" width="624.561" height="18.6591" fill="#EAEDEF"/>
<rect x="132.22" y="451.974" width="624.561" height="18.6591" fill="#EAEDEF"/>
<g filter="url(#filter0_d_1163_11207)">
<rect width="624.561" height="0.518308" transform="matrix(1 0 0 -1 132.22 292.388)" fill="black" fill-opacity="0.4"/>
</g>
<rect x="235.881" y="292.388" width="0.518308" height="172.078" fill="black" fill-opacity="0.15"/>
<rect x="340.061" y="292.388" width="0.518308" height="172.078" fill="black" fill-opacity="0.15"/>
<rect x="444.241" y="292.388" width="0.518308" height="172.078" fill="black" fill-opacity="0.15"/>
<rect x="548.421" y="292.388" width="0.518308" height="172.078" fill="black" fill-opacity="0.15"/>
<rect x="652.6" y="292.388" width="0.518308" height="172.078" fill="black" fill-opacity="0.15"/>
<rect x="132.22" y="260.2" width="207.841" height="36" fill="white"/>
<rect x="340.579" y="260.2" width="207.841" height="36" fill="white"/>
<rect x="548.939" y="260.2" width="207.841" height="36" fill="white"/>
<rect x="752.634" y="273.21" width="199.548" height="0.518308" transform="rotate(180 752.634 273.21)" fill="black" fill-opacity="0.15"/>
<rect x="544.274" y="273.21" width="199.548" height="0.518308" transform="rotate(180 544.274 273.21)" fill="black" fill-opacity="0.15"/>
<rect x="335.915" y="273.21" width="199.548" height="0.518308" transform="rotate(180 335.915 273.21)" fill="black" fill-opacity="0.15"/>
<rect width="0.518308" height="25.3971" transform="matrix(-1 0 0 1 340.579 260.253)" fill="black" fill-opacity="0.15"/>
<rect width="0.518308" height="25.3971" transform="matrix(-1 0 0 1 548.939 260.253)" fill="black" fill-opacity="0.15"/>
<rect width="0.518308" height="6.21969" transform="matrix(-1 0 0 1 236.399 279.43)" fill="black" fill-opacity="0.15"/>
<rect width="0.518308" height="6.21969" transform="matrix(-1 0 0 1 444.759 279.43)" fill="black" fill-opacity="0.15"/>
<rect width="0.518308" height="6.21969" transform="matrix(-1 0 0 1 653.119 279.43)" fill="black" fill-opacity="0.15"/>
<g filter="url(#filter1_d_1163_11207)">
<rect width="624.561" height="0.518308" transform="matrix(1 0 0 -1 132.22 292.388)" fill="black" fill-opacity="0.4"/>
</g>
<g filter="url(#filter2_d_1163_11207)">
<rect x="340.061" y="260.2" width="0.518308" height="210.433" fill="black" fill-opacity="0.4"/>
</g>
<rect x="65.9033" y="47.9033" width="757.193" height="425.193" stroke="#C5C9D0" stroke-width="3.80667"/>
<defs>
<filter id="filter0_d_1163_11207" x="128.22" y="289.87" width="632.561" height="8.51831" filterUnits="userSpaceOnUse" color-interpolation-filters="sRGB">
<feFlood flood-opacity="0" result="BackgroundImageFix"/>
<feColorMatrix in="SourceAlpha" type="matrix" values="0 0 0 0 0 0 0 0 0 0 0 0 0 0 0 0 0 0 127 0" result="hardAlpha"/>
<feOffset dy="2"/>
<feGaussianBlur stdDeviation="2"/>
<feColorMatrix type="matrix" values="0 0 0 0 0 0 0 0 0 0 0 0 0 0 0 0 0 0 0.1 0"/>
<feBlend mode="normal" in2="BackgroundImageFix" result="effect1_dropShadow_1163_11207"/>
<feBlend mode="normal" in="SourceGraphic" in2="effect1_dropShadow_1163_11207" result="shape"/>
</filter>
<filter id="filter1_d_1163_11207" x="128.22" y="289.87" width="632.561" height="8.51831" filterUnits="userSpaceOnUse" color-interpolation-filters="sRGB">
<feFlood flood-opacity="0" result="BackgroundImageFix"/>
<feColorMatrix in="SourceAlpha" type="matrix" values="0 0 0 0 0 0 0 0 0 0 0 0 0 0 0 0 0 0 127 0" result="hardAlpha"/>
<feOffset dy="2"/>
<feGaussianBlur stdDeviation="2"/>
<feColorMatrix type="matrix" values="0 0 0 0 0 0 0 0 0 0 0 0 0 0 0 0 0 0 0.1 0"/>
<feBlend mode="normal" in2="BackgroundImageFix" result="effect1_dropShadow_1163_11207"/>
<feBlend mode="normal" in="SourceGraphic" in2="effect1_dropShadow_1163_11207" result="shape"/>
</filter>
<filter id="filter2_d_1163_11207" x="338.061" y="256.2" width="8.51831" height="218.433" filterUnits="userSpaceOnUse" color-interpolation-filters="sRGB">
<feFlood flood-opacity="0" result="BackgroundImageFix"/>
<feColorMatrix in="SourceAlpha" type="matrix" values="0 0 0 0 0 0 0 0 0 0 0 0 0 0 0 0 0 0 127 0" result="hardAlpha"/>
<feOffset dx="2"/>
<feGaussianBlur stdDeviation="2"/>
<feColorMatrix type="matrix" values="0 0 0 0 0 0 0 0 0 0 0 0 0 0 0 0 0 0 0.1 0"/>
<feBlend mode="normal" in2="BackgroundImageFix" result="effect1_dropShadow_1163_11207"/>
<feBlend mode="normal" in="SourceGraphic" in2="effect1_dropShadow_1163_11207" result="shape"/>
</filter>
</defs>
</svg>
