<svg width="889" height="211" viewBox="0 0 889 211" fill="none" xmlns="http://www.w3.org/2000/svg">
<rect width="889" height="211" fill="#F2F4F6"/>
<rect width="57.2984" height="20" transform="translate(301.343 129)" fill="#C5C9D0"/>
<path d="M317.216 143H315.932V139.455H312.312V143H311.023V135.147H312.312V138.359H315.932V135.147H317.216V143ZM326.866 139.063C326.866 139.668 326.789 140.22 326.635 140.717C326.485 141.211 326.258 141.638 325.953 141.996C325.649 142.35 325.268 142.624 324.809 142.817C324.351 143.011 323.814 143.107 323.198 143.107C322.571 143.107 322.027 143.011 321.565 142.817C321.107 142.624 320.725 142.348 320.421 141.99C320.12 141.632 319.895 141.204 319.744 140.707C319.594 140.209 319.519 139.657 319.519 139.052C319.519 138.243 319.651 137.538 319.916 136.936C320.185 136.331 320.591 135.862 321.135 135.529C321.683 135.192 322.374 135.024 323.209 135.024C324.025 135.024 324.704 135.19 325.244 135.523C325.785 135.856 326.19 136.326 326.458 136.931C326.73 137.532 326.866 138.243 326.866 139.063ZM320.872 139.063C320.872 139.668 320.955 140.193 321.119 140.637C321.284 141.077 321.536 141.417 321.877 141.657C322.22 141.894 322.661 142.012 323.198 142.012C323.739 142.012 324.179 141.894 324.519 141.657C324.859 141.417 325.11 141.077 325.271 140.637C325.432 140.193 325.513 139.668 325.513 139.063C325.513 138.143 325.328 137.423 324.96 136.904C324.594 136.381 324.011 136.12 323.209 136.12C322.672 136.12 322.229 136.238 321.882 136.474C321.538 136.71 321.284 137.049 321.119 137.489C320.955 137.926 320.872 138.451 320.872 139.063ZM334.975 135.147L332.231 143H330.866L328.122 135.147H329.443L331.097 140.067C331.147 140.211 331.201 140.384 331.258 140.588C331.319 140.792 331.375 140.998 331.425 141.206C331.479 141.414 331.52 141.598 331.548 141.759C331.577 141.598 331.616 141.414 331.667 141.206C331.72 140.998 331.776 140.792 331.833 140.588C331.89 140.384 331.944 140.209 331.994 140.062L333.654 135.147H334.975ZM341.054 143H336.606V135.147H341.054V136.232H337.895V138.365H340.855V139.444H337.895V141.91H341.054V143ZM345.558 135.147C346.235 135.147 346.794 135.23 347.234 135.395C347.678 135.559 348.008 135.81 348.223 136.146C348.441 136.483 348.55 136.911 348.55 137.43C348.55 137.817 348.479 138.146 348.335 138.418C348.192 138.691 348.004 138.916 347.771 139.095C347.539 139.274 347.29 139.417 347.025 139.525L349.254 143H347.798L345.902 139.853H344.64V143H343.351V135.147H345.558ZM345.473 136.222H344.64V138.789H345.532C346.13 138.789 346.563 138.678 346.831 138.456C347.104 138.234 347.24 137.906 347.24 137.473C347.24 137.018 347.095 136.696 346.805 136.506C346.518 136.317 346.074 136.222 345.473 136.222Z" fill="#161616"/>
<g filter="url(#filter0_d_1137_11017)">
<path d="M334.415 173.03C334.59 173.451 334.422 175.045 333.492 175.414C332.562 175.784 331.374 175.414 331.374 175.414L329.218 171.102L325.492 174.828V158L336.906 169.414H332.653C332.862 169.814 334.192 172.495 334.415 173.03Z" fill="white"/>
<path fill-rule="evenodd" clip-rule="evenodd" d="M326.492 160.414V172.414L329.492 169.414L331.992 174.414C331.992 174.414 332.668 174.63 332.992 174.414C333.316 174.198 333.638 173.764 333.492 173.414C332.804 171.764 330.992 168.414 330.992 168.414H334.492L326.492 160.414Z" fill="black"/>
</g>
<rect width="57.2984" height="20" transform="translate(453.641 129)" fill="#D9DDE3"/>
<path d="M469.514 143H468.231V139.455H464.611V143H463.322V135.147H464.611V138.359H468.231V135.147H469.514V143ZM479.165 139.063C479.165 139.668 479.088 140.22 478.934 140.717C478.783 141.211 478.556 141.638 478.252 141.996C477.947 142.35 477.566 142.624 477.108 142.817C476.649 143.011 476.112 143.107 475.496 143.107C474.87 143.107 474.325 143.011 473.863 142.817C473.405 142.624 473.024 142.348 472.719 141.99C472.419 141.632 472.193 141.204 472.043 140.707C471.892 140.209 471.817 139.657 471.817 139.052C471.817 138.243 471.95 137.538 472.214 136.936C472.483 136.331 472.889 135.862 473.434 135.529C473.982 135.192 474.673 135.024 475.507 135.024C476.323 135.024 477.002 135.19 477.543 135.523C478.083 135.856 478.488 136.326 478.756 136.931C479.029 137.532 479.165 138.243 479.165 139.063ZM473.171 139.063C473.171 139.668 473.253 140.193 473.418 140.637C473.582 141.077 473.835 141.417 474.175 141.657C474.519 141.894 474.959 142.012 475.496 142.012C476.037 142.012 476.477 141.894 476.818 141.657C477.158 141.417 477.408 141.077 477.569 140.637C477.731 140.193 477.811 139.668 477.811 139.063C477.811 138.143 477.627 137.423 477.258 136.904C476.893 136.381 476.309 136.12 475.507 136.12C474.97 136.12 474.528 136.238 474.18 136.474C473.837 136.71 473.582 137.049 473.418 137.489C473.253 137.926 473.171 138.451 473.171 139.063ZM487.273 135.147L484.529 143H483.165L480.42 135.147H481.741L483.396 140.067C483.446 140.211 483.499 140.384 483.557 140.588C483.618 140.792 483.673 140.998 483.723 141.206C483.777 141.414 483.818 141.598 483.847 141.759C483.875 141.598 483.915 141.414 483.965 141.206C484.019 140.998 484.074 140.792 484.131 140.588C484.189 140.384 484.242 140.209 484.293 140.062L485.952 135.147H487.273ZM493.352 143H488.905V135.147H493.352V136.232H490.194V138.365H493.153V139.444H490.194V141.91H493.352V143ZM497.857 135.147C498.534 135.147 499.092 135.23 499.533 135.395C499.977 135.559 500.306 135.81 500.521 136.146C500.739 136.483 500.848 136.911 500.848 137.43C500.848 137.817 500.777 138.146 500.634 138.418C500.49 138.691 500.302 138.916 500.07 139.095C499.837 139.274 499.588 139.417 499.323 139.525L501.552 143H500.097L498.201 139.853H496.938V143H495.649V135.147H497.857ZM497.771 136.222H496.938V138.789H497.83C498.428 138.789 498.861 138.678 499.13 138.456C499.402 138.234 499.538 137.906 499.538 137.473C499.538 137.018 499.393 136.696 499.103 136.506C498.816 136.317 498.372 136.222 497.771 136.222Z" fill="#161616"/>
<rect width="128" height="20" transform="translate(419 38)" fill="#964EA2"/>
<path d="M428.311 53.1172C427.498 53.1172 426.854 52.8398 426.377 52.2852C425.904 51.7305 425.668 50.9062 425.668 49.8125C425.668 48.707 425.91 47.873 426.395 47.3105C426.879 46.7441 427.523 46.4609 428.328 46.4609C428.668 46.4609 428.965 46.5059 429.219 46.5957C429.473 46.6855 429.691 46.8066 429.875 46.959C430.059 47.1074 430.213 47.2773 430.338 47.4688H430.408C430.393 47.3477 430.377 47.1816 430.361 46.9707C430.346 46.7598 430.338 46.5879 430.338 46.4551V43.8828H431.311V53H430.525L430.379 52.0859H430.338C430.217 52.2773 430.062 52.4512 429.875 52.6074C429.691 52.7637 429.471 52.8887 429.213 52.9824C428.959 53.0723 428.658 53.1172 428.311 53.1172ZM428.463 52.3086C429.15 52.3086 429.637 52.1133 429.922 51.7227C430.207 51.332 430.35 50.752 430.35 49.9824V49.8066C430.35 48.9902 430.213 48.3633 429.939 47.9258C429.67 47.4883 429.178 47.2695 428.463 47.2695C427.865 47.2695 427.418 47.5 427.121 47.9609C426.824 48.418 426.676 49.043 426.676 49.8359C426.676 50.625 426.822 51.2344 427.115 51.6641C427.412 52.0938 427.861 52.3086 428.463 52.3086ZM438.676 46.5781V53H437.879L437.738 52.0977H437.686C437.553 52.3203 437.381 52.5078 437.17 52.6602C436.959 52.8125 436.721 52.9258 436.455 53C436.193 53.0781 435.914 53.1172 435.617 53.1172C435.109 53.1172 434.684 53.0352 434.34 52.8711C433.996 52.707 433.736 52.4531 433.561 52.1094C433.389 51.7656 433.303 51.3242 433.303 50.7852V46.5781H434.287V50.7148C434.287 51.25 434.408 51.6504 434.65 51.916C434.893 52.1777 435.262 52.3086 435.758 52.3086C436.234 52.3086 436.613 52.2188 436.895 52.0391C437.18 51.8594 437.385 51.5957 437.51 51.248C437.635 50.8965 437.697 50.4668 437.697 49.959V46.5781H438.676ZM443.65 46.4609C443.779 46.4609 443.914 46.4688 444.055 46.4844C444.195 46.4961 444.32 46.5137 444.43 46.5371L444.307 47.4395C444.201 47.4121 444.084 47.3906 443.955 47.375C443.826 47.3594 443.705 47.3516 443.592 47.3516C443.334 47.3516 443.09 47.4043 442.859 47.5098C442.633 47.6113 442.434 47.7598 442.262 47.9551C442.09 48.1465 441.955 48.3789 441.857 48.6523C441.76 48.9219 441.711 49.2227 441.711 49.5547V53H440.732V46.5781H441.541L441.646 47.7617H441.688C441.82 47.5234 441.98 47.3066 442.168 47.1113C442.355 46.9121 442.572 46.7539 442.818 46.6367C443.068 46.5195 443.346 46.4609 443.65 46.4609ZM448.045 46.4727C448.811 46.4727 449.379 46.6445 449.75 46.9883C450.121 47.332 450.307 47.8809 450.307 48.6348V53H449.598L449.41 52.0508H449.363C449.184 52.2852 448.996 52.4824 448.801 52.6426C448.605 52.7988 448.379 52.918 448.121 53C447.867 53.0781 447.555 53.1172 447.184 53.1172C446.793 53.1172 446.445 53.0488 446.141 52.9121C445.84 52.7754 445.602 52.5684 445.426 52.291C445.254 52.0137 445.168 51.6621 445.168 51.2363C445.168 50.5957 445.422 50.1035 445.93 49.7598C446.438 49.416 447.211 49.2285 448.25 49.1973L449.357 49.1504V48.7578C449.357 48.2031 449.238 47.8145 449 47.5918C448.762 47.3691 448.426 47.2578 447.992 47.2578C447.656 47.2578 447.336 47.3066 447.031 47.4043C446.727 47.502 446.438 47.6172 446.164 47.75L445.865 47.0117C446.154 46.8633 446.486 46.7363 446.861 46.6309C447.236 46.5254 447.631 46.4727 448.045 46.4727ZM449.346 49.8359L448.367 49.877C447.566 49.9082 447.002 50.0391 446.674 50.2695C446.346 50.5 446.182 50.8262 446.182 51.248C446.182 51.6152 446.293 51.8867 446.516 52.0625C446.738 52.2383 447.033 52.3262 447.4 52.3262C447.971 52.3262 448.438 52.168 448.801 51.8516C449.164 51.5352 449.346 51.0605 449.346 50.4277V49.8359ZM454.385 52.3203C454.545 52.3203 454.709 52.3066 454.877 52.2793C455.045 52.252 455.182 52.2187 455.287 52.1797V52.9355C455.174 52.9863 455.016 53.0293 454.812 53.0645C454.613 53.0996 454.418 53.1172 454.227 53.1172C453.887 53.1172 453.578 53.0586 453.301 52.9414C453.023 52.8203 452.801 52.6172 452.633 52.332C452.469 52.0469 452.387 51.6523 452.387 51.1484V47.3398H451.473V46.8652L452.393 46.4844L452.779 45.0898H453.365V46.5781H455.246V47.3398H453.365V51.1191C453.365 51.5215 453.457 51.8223 453.641 52.0215C453.828 52.2207 454.076 52.3203 454.385 52.3203ZM457.561 46.5781V53H456.588V46.5781H457.561ZM457.086 44.1758C457.246 44.1758 457.383 44.2285 457.496 44.334C457.613 44.4355 457.672 44.5957 457.672 44.8145C457.672 45.0293 457.613 45.1895 457.496 45.2949C457.383 45.4004 457.246 45.4531 457.086 45.4531C456.918 45.4531 456.777 45.4004 456.664 45.2949C456.555 45.1895 456.5 45.0293 456.5 44.8145C456.5 44.5957 456.555 44.4355 456.664 44.334C456.777 44.2285 456.918 44.1758 457.086 44.1758ZM465.16 49.7773C465.16 50.3047 465.092 50.7754 464.955 51.1895C464.818 51.6035 464.621 51.9531 464.363 52.2383C464.105 52.5234 463.793 52.7422 463.426 52.8945C463.062 53.043 462.65 53.1172 462.189 53.1172C461.76 53.1172 461.365 53.043 461.006 52.8945C460.65 52.7422 460.342 52.5234 460.08 52.2383C459.822 51.9531 459.621 51.6035 459.477 51.1895C459.336 50.7754 459.266 50.3047 459.266 49.7773C459.266 49.0742 459.385 48.4766 459.623 47.9844C459.861 47.4883 460.201 47.1113 460.643 46.8535C461.088 46.5918 461.617 46.4609 462.23 46.4609C462.816 46.4609 463.328 46.5918 463.766 46.8535C464.207 47.1152 464.549 47.4941 464.791 47.9902C465.037 48.4824 465.16 49.0781 465.16 49.7773ZM460.273 49.7773C460.273 50.293 460.342 50.7402 460.479 51.1191C460.615 51.498 460.826 51.791 461.111 51.998C461.396 52.2051 461.764 52.3086 462.213 52.3086C462.658 52.3086 463.023 52.2051 463.309 51.998C463.598 51.791 463.811 51.498 463.947 51.1191C464.084 50.7402 464.152 50.293 464.152 49.7773C464.152 49.2656 464.084 48.8242 463.947 48.4531C463.811 48.0781 463.6 47.7891 463.314 47.5859C463.029 47.3828 462.66 47.2812 462.207 47.2812C461.539 47.2812 461.049 47.502 460.736 47.9434C460.428 48.3848 460.273 48.9961 460.273 49.7773ZM469.883 46.4609C470.645 46.4609 471.221 46.6484 471.611 47.0234C472.002 47.3945 472.197 47.9922 472.197 48.8164V53H471.236V48.8809C471.236 48.3457 471.113 47.9453 470.867 47.6797C470.625 47.4141 470.252 47.2812 469.748 47.2812C469.037 47.2812 468.537 47.4824 468.248 47.8848C467.959 48.2871 467.814 48.8711 467.814 49.6367V53H466.842V46.5781H467.627L467.773 47.5039H467.826C467.963 47.2773 468.137 47.0879 468.348 46.9355C468.559 46.7793 468.795 46.6621 469.057 46.584C469.318 46.502 469.594 46.4609 469.883 46.4609ZM473.656 50.2109V49.3437H476.562V50.2109H473.656ZM481.086 46.4609C481.887 46.4609 482.525 46.7363 483.002 47.2871C483.479 47.8379 483.717 48.666 483.717 49.7715C483.717 50.502 483.607 51.1152 483.389 51.6113C483.17 52.1074 482.861 52.4824 482.463 52.7363C482.068 52.9902 481.602 53.1172 481.062 53.1172C480.723 53.1172 480.424 53.0723 480.166 52.9824C479.908 52.8926 479.688 52.7715 479.504 52.6191C479.32 52.4668 479.168 52.3008 479.047 52.1211H478.977C478.988 52.2734 479.002 52.457 479.018 52.6719C479.037 52.8867 479.047 53.0742 479.047 53.2344V55.8711H478.068V46.5781H478.871L479 47.5273H479.047C479.172 47.332 479.324 47.1543 479.504 46.9941C479.684 46.8301 479.902 46.7012 480.16 46.6074C480.422 46.5098 480.73 46.4609 481.086 46.4609ZM480.916 47.2812C480.471 47.2812 480.111 47.3672 479.838 47.5391C479.568 47.7109 479.371 47.9687 479.246 48.3125C479.121 48.6523 479.055 49.0801 479.047 49.5957V49.7832C479.047 50.3262 479.105 50.7852 479.223 51.1602C479.344 51.5352 479.541 51.8203 479.814 52.0156C480.092 52.2109 480.463 52.3086 480.928 52.3086C481.326 52.3086 481.658 52.2012 481.924 51.9863C482.189 51.7715 482.387 51.4727 482.516 51.0898C482.648 50.7031 482.715 50.2598 482.715 49.7598C482.715 49.002 482.566 48.4004 482.27 47.9551C481.977 47.5059 481.525 47.2812 480.916 47.2812ZM487.889 46.4609C488.436 46.4609 488.904 46.582 489.295 46.8242C489.686 47.0664 489.984 47.4062 490.191 47.8437C490.398 48.2773 490.502 48.7852 490.502 49.3672V49.9707H486.066C486.078 50.7246 486.266 51.2988 486.629 51.6934C486.992 52.0879 487.504 52.2852 488.164 52.2852C488.57 52.2852 488.93 52.248 489.242 52.1738C489.555 52.0996 489.879 51.9902 490.215 51.8457V52.7012C489.891 52.8457 489.568 52.9512 489.248 53.0176C488.932 53.084 488.557 53.1172 488.123 53.1172C487.506 53.1172 486.967 52.9922 486.506 52.7422C486.049 52.4883 485.693 52.1172 485.439 51.6289C485.186 51.1406 485.059 50.543 485.059 49.8359C485.059 49.1445 485.174 48.5469 485.404 48.043C485.639 47.5352 485.967 47.1445 486.389 46.8711C486.814 46.5977 487.314 46.4609 487.889 46.4609ZM487.877 47.2578C487.357 47.2578 486.943 47.4277 486.635 47.7676C486.326 48.1074 486.143 48.582 486.084 49.1914H489.482C489.479 48.8086 489.418 48.4727 489.301 48.1836C489.188 47.8906 489.014 47.6641 488.779 47.5039C488.545 47.3398 488.244 47.2578 487.877 47.2578ZM495.072 46.4609C495.201 46.4609 495.336 46.4687 495.477 46.4844C495.617 46.4961 495.742 46.5137 495.852 46.5371L495.729 47.4395C495.623 47.4121 495.506 47.3906 495.377 47.375C495.248 47.3594 495.127 47.3516 495.014 47.3516C494.756 47.3516 494.512 47.4043 494.281 47.5098C494.055 47.6113 493.855 47.7598 493.684 47.9551C493.512 48.1465 493.377 48.3789 493.279 48.6523C493.182 48.9219 493.133 49.2227 493.133 49.5547V53H492.154V46.5781H492.963L493.068 47.7617H493.109C493.242 47.5234 493.402 47.3066 493.59 47.1113C493.777 46.9121 493.994 46.7539 494.24 46.6367C494.49 46.5195 494.768 46.4609 495.072 46.4609ZM499.637 53.1172C499.059 53.1172 498.549 52.998 498.107 52.7598C497.666 52.5215 497.322 52.1582 497.076 51.6699C496.83 51.1816 496.707 50.5664 496.707 49.8242C496.707 49.0469 496.836 48.4121 497.094 47.9199C497.355 47.4238 497.715 47.0566 498.172 46.8184C498.629 46.5801 499.148 46.4609 499.73 46.4609C500.051 46.4609 500.359 46.4941 500.656 46.5605C500.957 46.623 501.203 46.7031 501.395 46.8008L501.102 47.6152C500.906 47.5371 500.68 47.4668 500.422 47.4043C500.168 47.3418 499.93 47.3105 499.707 47.3105C499.262 47.3105 498.891 47.4062 498.594 47.5977C498.301 47.7891 498.08 48.0703 497.932 48.4414C497.787 48.8125 497.715 49.2695 497.715 49.8125C497.715 50.332 497.785 50.7754 497.926 51.1426C498.07 51.5098 498.283 51.791 498.564 51.9863C498.85 52.1777 499.205 52.2734 499.631 52.2734C499.971 52.2734 500.277 52.2383 500.551 52.168C500.824 52.0937 501.072 52.0078 501.295 51.9102V52.7773C501.08 52.8867 500.84 52.9707 500.574 53.0293C500.312 53.0879 500 53.1172 499.637 53.1172ZM505.291 46.4609C505.838 46.4609 506.307 46.582 506.697 46.8242C507.088 47.0664 507.387 47.4062 507.594 47.8437C507.801 48.2773 507.904 48.7852 507.904 49.3672V49.9707H503.469C503.48 50.7246 503.668 51.2988 504.031 51.6934C504.395 52.0879 504.906 52.2852 505.566 52.2852C505.973 52.2852 506.332 52.248 506.645 52.1738C506.957 52.0996 507.281 51.9902 507.617 51.8457V52.7012C507.293 52.8457 506.971 52.9512 506.65 53.0176C506.334 53.084 505.959 53.1172 505.525 53.1172C504.908 53.1172 504.369 52.9922 503.908 52.7422C503.451 52.4883 503.096 52.1172 502.842 51.6289C502.588 51.1406 502.461 50.543 502.461 49.8359C502.461 49.1445 502.576 48.5469 502.807 48.043C503.041 47.5352 503.369 47.1445 503.791 46.8711C504.217 46.5977 504.717 46.4609 505.291 46.4609ZM505.279 47.2578C504.76 47.2578 504.346 47.4277 504.037 47.7676C503.729 48.1074 503.545 48.582 503.486 49.1914H506.885C506.881 48.8086 506.82 48.4727 506.703 48.1836C506.59 47.8906 506.416 47.6641 506.182 47.5039C505.947 47.3398 505.646 47.2578 505.279 47.2578ZM512.574 46.4609C513.375 46.4609 514.014 46.7363 514.49 47.2871C514.967 47.8379 515.205 48.666 515.205 49.7715C515.205 50.502 515.096 51.1152 514.877 51.6113C514.658 52.1074 514.35 52.4824 513.951 52.7363C513.557 52.9902 513.09 53.1172 512.551 53.1172C512.211 53.1172 511.912 53.0723 511.654 52.9824C511.396 52.8926 511.176 52.7715 510.992 52.6191C510.809 52.4668 510.656 52.3008 510.535 52.1211H510.465C510.477 52.2734 510.49 52.457 510.506 52.6719C510.525 52.8867 510.535 53.0742 510.535 53.2344V55.8711H509.557V46.5781H510.359L510.488 47.5273H510.535C510.66 47.332 510.812 47.1543 510.992 46.9941C511.172 46.8301 511.391 46.7012 511.648 46.6074C511.91 46.5098 512.219 46.4609 512.574 46.4609ZM512.404 47.2812C511.959 47.2812 511.6 47.3672 511.326 47.5391C511.057 47.7109 510.859 47.9687 510.734 48.3125C510.609 48.6523 510.543 49.0801 510.535 49.5957V49.7832C510.535 50.3262 510.594 50.7852 510.711 51.1602C510.832 51.5352 511.029 51.8203 511.303 52.0156C511.58 52.2109 511.951 52.3086 512.416 52.3086C512.814 52.3086 513.146 52.2012 513.412 51.9863C513.678 51.7715 513.875 51.4727 514.004 51.0898C514.137 50.7031 514.203 50.2598 514.203 49.7598C514.203 49.002 514.055 48.4004 513.758 47.9551C513.465 47.5059 513.014 47.2812 512.404 47.2812ZM518.979 52.3203C519.139 52.3203 519.303 52.3066 519.471 52.2793C519.639 52.252 519.775 52.2187 519.881 52.1797V52.9355C519.768 52.9863 519.609 53.0293 519.406 53.0645C519.207 53.0996 519.012 53.1172 518.82 53.1172C518.48 53.1172 518.172 53.0586 517.895 52.9414C517.617 52.8203 517.395 52.6172 517.227 52.332C517.062 52.0469 516.98 51.6523 516.98 51.1484V47.3398H516.066V46.8652L516.986 46.4844L517.373 45.0898H517.959V46.5781H519.84V47.3398H517.959V51.1191C517.959 51.5215 518.051 51.8223 518.234 52.0215C518.422 52.2207 518.67 52.3203 518.979 52.3203ZM522.154 46.5781V53H521.182V46.5781H522.154ZM521.68 44.1758C521.84 44.1758 521.977 44.2285 522.09 44.334C522.207 44.4355 522.266 44.5957 522.266 44.8145C522.266 45.0293 522.207 45.1895 522.09 45.2949C521.977 45.4004 521.84 45.4531 521.68 45.4531C521.512 45.4531 521.371 45.4004 521.258 45.2949C521.148 45.1895 521.094 45.0293 521.094 44.8145C521.094 44.5957 521.148 44.4355 521.258 44.334C521.371 44.2285 521.512 44.1758 521.68 44.1758ZM525.189 43.8828V46.1621C525.189 46.4238 525.182 46.6777 525.166 46.9238C525.154 47.1699 525.145 47.3613 525.137 47.498H525.189C525.365 47.209 525.619 46.9648 525.951 46.7656C526.283 46.5664 526.707 46.4668 527.223 46.4668C528.027 46.4668 528.668 46.7461 529.145 47.3047C529.625 47.8594 529.865 48.6855 529.865 49.7832C529.865 50.5059 529.756 51.1152 529.537 51.6113C529.318 52.1074 529.01 52.4824 528.611 52.7363C528.213 52.9902 527.742 53.1172 527.199 53.1172C526.691 53.1172 526.273 53.0234 525.945 52.8359C525.621 52.6445 525.371 52.4121 525.195 52.1387H525.119L524.92 53H524.217V43.8828H525.189ZM527.064 47.2812C526.6 47.2812 526.23 47.373 525.957 47.5566C525.684 47.7363 525.486 48.0098 525.365 48.377C525.248 48.7402 525.189 49.2012 525.189 49.7598V49.8125C525.189 50.6211 525.324 51.2402 525.594 51.6699C525.863 52.0957 526.354 52.3086 527.064 52.3086C527.662 52.3086 528.109 52.0898 528.406 51.6523C528.707 51.2148 528.857 50.5898 528.857 49.7773C528.857 48.9492 528.709 48.3262 528.412 47.9082C528.119 47.4902 527.67 47.2812 527.064 47.2812ZM532.543 53H531.564V43.8828H532.543V53ZM537.072 46.4609C537.619 46.4609 538.088 46.582 538.479 46.8242C538.869 47.0664 539.168 47.4062 539.375 47.8437C539.582 48.2773 539.686 48.7852 539.686 49.3672V49.9707H535.25C535.262 50.7246 535.449 51.2988 535.812 51.6934C536.176 52.0879 536.688 52.2852 537.348 52.2852C537.754 52.2852 538.113 52.248 538.426 52.1738C538.738 52.0996 539.062 51.9902 539.398 51.8457V52.7012C539.074 52.8457 538.752 52.9512 538.432 53.0176C538.115 53.084 537.74 53.1172 537.307 53.1172C536.689 53.1172 536.15 52.9922 535.689 52.7422C535.232 52.4883 534.877 52.1172 534.623 51.6289C534.369 51.1406 534.242 50.543 534.242 49.8359C534.242 49.1445 534.357 48.5469 534.588 48.043C534.822 47.5352 535.15 47.1445 535.572 46.8711C535.998 46.5977 536.498 46.4609 537.072 46.4609ZM537.061 47.2578C536.541 47.2578 536.127 47.4277 535.818 47.7676C535.51 48.1074 535.326 48.582 535.268 49.1914H538.666C538.662 48.8086 538.602 48.4727 538.484 48.1836C538.371 47.8906 538.197 47.6641 537.963 47.5039C537.729 47.3398 537.428 47.2578 537.061 47.2578Z" fill="white"/>
<path d="M483 84L480.113 79L485.887 79L483 84ZM483.5 58L483.5 58.9286L482.5 58.9286L482.5 58L483.5 58ZM483.5 60.7857L483.5 62.6429L482.5 62.6429L482.5 60.7857L483.5 60.7857ZM483.5 64.5L483.5 66.3571L482.5 66.3571L482.5 64.5L483.5 64.5ZM483.5 68.2143L483.5 70.0714L482.5 70.0714L482.5 68.2143L483.5 68.2143ZM483.5 71.9286L483.5 73.7857L482.5 73.7857L482.5 71.9286L483.5 71.9286ZM483.5 75.6429L483.5 77.5L482.5 77.5L482.5 75.6429L483.5 75.6429ZM483.5 79.3571L483.5 81.2143L482.5 81.2143L482.5 79.3571L483.5 79.3571Z" fill="#964EA2"/>
<g filter="url(#filter1_d_1137_11017)">
<mask id="path-7-outside-1_1137_11017" maskUnits="userSpaceOnUse" x="473.141" y="147" width="20" height="19" fill="black">
<rect fill="white" x="473.141" y="147" width="20" height="19"/>
<path fill-rule="evenodd" clip-rule="evenodd" d="M479.626 158L478.589 156.645C477.882 155.72 476.374 155.383 475.22 155.89L475.489 155.772C475.203 155.898 475.065 156.211 475.183 156.472L476.618 159.647C476.846 160.151 477.427 160.863 477.908 161.22C477.908 161.22 480.796 163.264 480.796 164.03V165H485.473L486.642 163L487.812 165H488.981V164.03C488.981 163.264 490.745 160.851 490.745 160.851C491.07 160.382 491.341 159.555 491.341 159.007V154.972C491.32 154.078 490.432 153.355 489.336 153.355C488.788 153.355 488.344 153.717 488.344 154.163V154.487C488.344 153.593 487.456 152.869 486.361 152.869C485.812 152.869 485.368 153.231 485.368 153.678V154.001C485.368 153.108 484.481 152.384 483.385 152.384C482.837 152.384 482.393 152.746 482.393 153.193V153.516C482.393 153.373 482.375 153.258 482.34 153.168L482.038 149.001C481.997 148.438 481.441 148 480.796 148C480.145 148 479.626 148.448 479.626 149V153V158ZM487.833 157L489.002 157V161H487.833V157V157ZM485.494 157L486.663 157V161H485.494V157V157ZM483.155 157L484.325 157V161H483.155V157V157Z"/>
</mask>
<path fill-rule="evenodd" clip-rule="evenodd" d="M479.626 158L478.589 156.645C477.882 155.72 476.374 155.383 475.22 155.89L475.489 155.772C475.203 155.898 475.065 156.211 475.183 156.472L476.618 159.647C476.846 160.151 477.427 160.863 477.908 161.22C477.908 161.22 480.796 163.264 480.796 164.03V165H485.473L486.642 163L487.812 165H488.981V164.03C488.981 163.264 490.745 160.851 490.745 160.851C491.07 160.382 491.341 159.555 491.341 159.007V154.972C491.32 154.078 490.432 153.355 489.336 153.355C488.788 153.355 488.344 153.717 488.344 154.163V154.487C488.344 153.593 487.456 152.869 486.361 152.869C485.812 152.869 485.368 153.231 485.368 153.678V154.001C485.368 153.108 484.481 152.384 483.385 152.384C482.837 152.384 482.393 152.746 482.393 153.193V153.516C482.393 153.373 482.375 153.258 482.34 153.168L482.038 149.001C481.997 148.438 481.441 148 480.796 148C480.145 148 479.626 148.448 479.626 149V153V158ZM487.833 157L489.002 157V161H487.833V157V157ZM485.494 157L486.663 157V161H485.494V157V157ZM483.155 157L484.325 157V161H483.155V157V157Z" fill="white"/>
<path d="M479.626 158L478.832 158.608L480.626 160.952V158H479.626ZM478.589 156.645L479.384 156.038L479.384 156.038L478.589 156.645ZM475.183 156.472L474.272 156.884L474.272 156.884L475.183 156.472ZM476.618 159.647L477.53 159.236L477.53 159.236L476.618 159.647ZM477.908 161.22L477.312 162.023L477.321 162.03L477.331 162.037L477.908 161.22ZM480.796 165H479.796V166H480.796V165ZM485.473 165V166H486.047L486.336 165.505L485.473 165ZM486.642 163L487.506 162.495L486.642 161.019L485.779 162.495L486.642 163ZM487.812 165L486.948 165.505L487.238 166H487.812V165ZM488.981 165V166H489.981V165H488.981ZM490.745 160.851L491.553 161.441L491.56 161.431L491.568 161.42L490.745 160.851ZM491.341 154.972H492.341V154.96L492.341 154.948L491.341 154.972ZM482.34 153.168L481.343 153.24L481.354 153.388L481.406 153.526L482.34 153.168ZM482.038 149.001L481.04 149.074L481.04 149.074L482.038 149.001ZM479.626 149H478.626H479.626ZM489.002 157H490.002V156L489.002 156L489.002 157ZM489.002 161V162H490.002V161H489.002ZM487.833 161H486.833V162H487.833V161ZM487.833 157L487.833 156L486.833 156V157H487.833ZM486.663 157H487.663V156L486.663 156L486.663 157ZM486.663 161V162H487.663V161H486.663ZM485.494 161H484.494V162H485.494V161ZM485.494 157L485.494 156L484.494 156V157H485.494ZM484.325 157H485.325V156L484.325 156L484.325 157ZM484.325 161V162H485.325V161H484.325ZM483.155 161H482.155V162H483.155V161ZM483.155 157L483.155 156L482.155 156V157H483.155ZM480.42 157.392L479.384 156.038L477.795 157.253L478.832 158.608L480.42 157.392ZM479.384 156.038C478.364 154.705 476.344 154.304 474.818 154.975L475.623 156.805C476.403 156.462 477.399 156.735 477.795 157.253L479.384 156.038ZM475.623 156.805L475.891 156.687L475.087 154.856L474.818 154.975L475.623 156.805ZM475.087 154.856C474.372 155.17 473.89 156.039 474.272 156.884L476.095 156.06C476.241 156.384 476.033 156.625 475.891 156.687L475.087 154.856ZM474.272 156.884L475.707 160.059L477.53 159.236L476.095 156.06L474.272 156.884ZM475.707 160.059C475.87 160.419 476.129 160.798 476.395 161.122C476.662 161.448 476.986 161.78 477.312 162.023L478.505 160.418C478.35 160.303 478.143 160.1 477.942 159.855C477.739 159.607 477.595 159.379 477.53 159.236L475.707 160.059ZM477.908 161.22C477.331 162.037 477.331 162.036 477.331 162.036C477.331 162.036 477.331 162.036 477.331 162.036C477.331 162.036 477.331 162.036 477.331 162.037C477.331 162.037 477.331 162.037 477.332 162.037C477.333 162.038 477.334 162.039 477.337 162.041C477.341 162.044 477.349 162.049 477.358 162.056C477.378 162.07 477.407 162.091 477.445 162.119C477.52 162.173 477.628 162.253 477.759 162.351C478.02 162.548 478.366 162.815 478.709 163.103C479.056 163.396 479.377 163.689 479.603 163.938C479.717 164.064 479.784 164.155 479.818 164.211C479.868 164.292 479.796 164.214 479.796 164.03H481.796C481.796 163.655 481.633 163.345 481.525 163.168C481.401 162.965 481.243 162.771 481.086 162.597C480.77 162.248 480.369 161.887 479.995 161.572C479.616 161.254 479.24 160.963 478.961 160.752C478.82 160.647 478.703 160.561 478.62 160.501C478.579 160.471 478.546 160.447 478.523 160.431C478.512 160.422 478.503 160.416 478.497 160.412C478.494 160.409 478.491 160.408 478.489 160.406C478.489 160.406 478.488 160.405 478.487 160.405C478.487 160.405 478.487 160.405 478.487 160.404C478.487 160.404 478.486 160.404 478.486 160.404C478.486 160.404 478.486 160.404 477.908 161.22ZM479.796 164.03V165H481.796V164.03H479.796ZM480.796 166H485.473V164H480.796V166ZM486.336 165.505L487.506 163.505L485.779 162.495L484.61 164.495L486.336 165.505ZM485.779 163.505L486.948 165.505L488.675 164.495L487.506 162.495L485.779 163.505ZM487.812 166H488.981V164H487.812V166ZM489.981 165V164.03H487.981V165H489.981ZM489.981 164.03C489.981 164.1 489.967 164.102 490.002 164.001C490.031 163.915 490.081 163.799 490.153 163.654C490.296 163.364 490.496 163.023 490.709 162.687C490.919 162.353 491.131 162.041 491.291 161.81C491.371 161.695 491.437 161.602 491.483 161.537C491.506 161.505 491.524 161.481 491.536 161.464C491.542 161.456 491.546 161.45 491.549 161.446C491.55 161.444 491.551 161.443 491.552 161.442C491.552 161.441 491.553 161.441 491.553 161.441C491.553 161.441 491.553 161.441 491.553 161.441C491.553 161.441 491.553 161.441 491.553 161.441C491.553 161.441 491.553 161.441 490.745 160.851C489.938 160.26 489.938 160.261 489.938 160.261C489.938 160.261 489.938 160.261 489.938 160.261C489.938 160.261 489.938 160.261 489.937 160.261C489.937 160.262 489.937 160.262 489.936 160.263C489.935 160.265 489.934 160.267 489.932 160.269C489.928 160.275 489.922 160.282 489.915 160.292C489.901 160.311 489.881 160.339 489.856 160.374C489.806 160.445 489.734 160.546 489.648 160.669C489.478 160.915 489.248 161.254 489.018 161.619C488.789 161.982 488.548 162.388 488.361 162.766C488.267 162.955 488.179 163.153 488.112 163.346C488.05 163.524 487.981 163.769 487.981 164.03H489.981ZM491.568 161.42C491.801 161.082 491.988 160.663 492.116 160.267C492.244 159.874 492.341 159.421 492.341 159.007H490.341C490.341 159.141 490.303 159.375 490.214 159.65C490.126 159.922 490.014 160.15 489.923 160.281L491.568 161.42ZM492.341 159.007V154.972H490.341V159.007H492.341ZM492.341 154.948C492.303 153.347 490.793 152.355 489.336 152.355V154.355C490.07 154.355 490.337 154.81 490.341 154.995L492.341 154.948ZM489.336 152.355C488.436 152.355 487.344 152.983 487.344 154.163H489.344C489.344 154.221 489.329 154.271 489.31 154.309C489.291 154.344 489.273 154.361 489.267 154.366C489.257 154.374 489.278 154.355 489.336 154.355V152.355ZM487.344 154.163V154.487H489.344V154.163H487.344ZM489.344 154.487C489.344 152.86 487.808 151.869 486.361 151.869V153.869C486.692 153.869 486.962 153.98 487.131 154.118C487.299 154.255 487.344 154.39 487.344 154.487H489.344ZM486.361 151.869C485.461 151.869 484.368 152.498 484.368 153.678H486.368C486.368 153.736 486.354 153.786 486.334 153.824C486.316 153.859 486.297 153.876 486.291 153.881C486.281 153.889 486.302 153.869 486.361 153.869V151.869ZM484.368 153.678V154.001H486.368V153.678H484.368ZM486.368 154.001C486.368 152.375 484.832 151.384 483.385 151.384V153.384C483.717 153.384 483.986 153.494 484.156 153.633C484.323 153.769 484.368 153.905 484.368 154.001H486.368ZM483.385 151.384C482.485 151.384 481.393 152.013 481.393 153.193H483.393C483.393 153.25 483.378 153.301 483.359 153.338C483.34 153.374 483.321 153.391 483.315 153.396C483.305 153.404 483.327 153.384 483.385 153.384V151.384ZM481.393 153.193V153.516H483.393V153.193H481.393ZM483.393 153.516C483.393 153.297 483.366 153.051 483.274 152.81L481.406 153.526C481.394 153.494 481.391 153.474 481.391 153.473C481.391 153.472 481.391 153.475 481.392 153.483C481.392 153.49 481.393 153.501 481.393 153.516H483.393ZM483.338 153.096L483.035 148.929L481.04 149.074L481.343 153.24L483.338 153.096ZM483.035 148.929C482.947 147.714 481.825 147 480.796 147V149C480.896 149 480.975 149.035 481.018 149.07C481.061 149.104 481.043 149.111 481.04 149.074L483.035 148.929ZM480.796 147C479.743 147 478.626 147.756 478.626 149L480.626 149C480.626 149.021 480.621 149.04 480.615 149.052C480.61 149.062 480.608 149.061 480.618 149.052C480.639 149.034 480.698 149 480.796 149V147ZM478.626 149V153H480.626V149H478.626ZM478.626 153V158H480.626V153H478.626ZM487.833 158L489.002 158L489.002 156L487.833 156L487.833 158ZM488.002 157V161H490.002V157H488.002ZM489.002 160H487.833V162H489.002V160ZM488.833 161V157H486.833V161H488.833ZM485.494 158L486.663 158L486.663 156L485.494 156L485.494 158ZM485.663 157V161H487.663V157H485.663ZM486.663 160H485.494V162H486.663V160ZM486.494 161V157H484.494V161H486.494ZM483.155 158L484.325 158L484.325 156L483.155 156L483.155 158ZM483.325 157V161H485.325V157H483.325ZM484.325 160H483.155V162H484.325V160ZM484.155 161V157H482.155V161H484.155Z" fill="black" fill-opacity="0.8" mask="url(#path-7-outside-1_1137_11017)"/>
</g>
<path d="M432.343 139.5L427.343 142.387V136.613L432.343 139.5ZM387.343 140L382.343 142.387V136.613L387.343 139V140ZM429.458 140H427.535V139H429.458V140ZM425.612 140H423.689V139H425.612V140ZM421.766 140H419.843V139H421.766V140ZM417.92 140H415.997V139H417.92V140ZM414.074 140H412.15V139H414.074V140ZM410.227 140H408.304V139H410.227V140ZM406.381 140H404.458V139H406.381V140ZM402.535 140H400.612V139H402.535V140ZM398.689 140H396.766V139H398.689V140ZM394.843 140H392.92V139H394.843V140ZM390.997 140H389.074V139H390.997V140ZM387.15 140H385.227V139H387.15V140Z" fill="#964EA2"/>
<g filter="url(#filter2_d_1137_11017)">
<rect x="428.343" y="86" width="108" height="36" fill="white"/>
<path d="M444.779 109H443.61V100.031H440.466V99.0059H447.91V100.031H444.779V109ZM455.71 105.24C455.71 105.855 455.63 106.405 455.471 106.888C455.311 107.371 455.081 107.779 454.78 108.111C454.479 108.444 454.115 108.699 453.686 108.877C453.263 109.05 452.782 109.137 452.244 109.137C451.743 109.137 451.283 109.05 450.863 108.877C450.449 108.699 450.089 108.444 449.783 108.111C449.482 107.779 449.248 107.371 449.079 106.888C448.915 106.405 448.833 105.855 448.833 105.24C448.833 104.42 448.972 103.723 449.25 103.148C449.528 102.57 449.924 102.13 450.439 101.829C450.959 101.524 451.576 101.371 452.292 101.371C452.976 101.371 453.573 101.524 454.083 101.829C454.598 102.134 454.997 102.576 455.279 103.155C455.566 103.729 455.71 104.424 455.71 105.24ZM450.009 105.24C450.009 105.842 450.089 106.364 450.248 106.806C450.408 107.248 450.654 107.59 450.986 107.831C451.319 108.073 451.747 108.193 452.271 108.193C452.791 108.193 453.217 108.073 453.55 107.831C453.887 107.59 454.135 107.248 454.295 106.806C454.454 106.364 454.534 105.842 454.534 105.24C454.534 104.643 454.454 104.128 454.295 103.695C454.135 103.258 453.889 102.921 453.557 102.684C453.224 102.447 452.793 102.328 452.265 102.328C451.485 102.328 450.913 102.586 450.549 103.101C450.189 103.616 450.009 104.329 450.009 105.24ZM464.132 105.24C464.132 105.855 464.052 106.405 463.893 106.888C463.733 107.371 463.503 107.779 463.202 108.111C462.901 108.444 462.537 108.699 462.108 108.877C461.685 109.05 461.204 109.137 460.666 109.137C460.165 109.137 459.704 109.05 459.285 108.877C458.87 108.699 458.51 108.444 458.205 108.111C457.904 107.779 457.67 107.371 457.501 106.888C457.337 106.405 457.255 105.855 457.255 105.24C457.255 104.42 457.394 103.723 457.672 103.148C457.95 102.57 458.346 102.13 458.861 101.829C459.381 101.524 459.998 101.371 460.714 101.371C461.397 101.371 461.994 101.524 462.505 101.829C463.02 102.134 463.419 102.576 463.701 103.155C463.988 103.729 464.132 104.424 464.132 105.24ZM458.431 105.24C458.431 105.842 458.51 106.364 458.67 106.806C458.829 107.248 459.075 107.59 459.408 107.831C459.741 108.073 460.169 108.193 460.693 108.193C461.213 108.193 461.639 108.073 461.972 107.831C462.309 107.59 462.557 107.248 462.717 106.806C462.876 106.364 462.956 105.842 462.956 105.24C462.956 104.643 462.876 104.128 462.717 103.695C462.557 103.258 462.311 102.921 461.978 102.684C461.646 102.447 461.215 102.328 460.686 102.328C459.907 102.328 459.335 102.586 458.971 103.101C458.611 103.616 458.431 104.329 458.431 105.24ZM467.235 109H466.094V98.3633H467.235V109ZM472.055 108.207C472.242 108.207 472.433 108.191 472.629 108.159C472.825 108.127 472.984 108.089 473.107 108.043V108.925C472.975 108.984 472.791 109.034 472.554 109.075C472.321 109.116 472.093 109.137 471.87 109.137C471.474 109.137 471.114 109.068 470.79 108.932C470.466 108.79 470.207 108.553 470.011 108.221C469.819 107.888 469.724 107.428 469.724 106.84V102.396H468.657V101.843L469.73 101.398L470.182 99.7715H470.865V101.508H473.06V102.396H470.865V106.806C470.865 107.275 470.972 107.626 471.186 107.858C471.405 108.091 471.695 108.207 472.055 108.207ZM475.76 101.508V109H474.625V101.508H475.76ZM475.206 98.7051C475.393 98.7051 475.552 98.7666 475.685 98.8896C475.821 99.0081 475.89 99.195 475.89 99.4502C475.89 99.7008 475.821 99.8877 475.685 100.011C475.552 100.134 475.393 100.195 475.206 100.195C475.01 100.195 474.846 100.134 474.714 100.011C474.586 99.8877 474.522 99.7008 474.522 99.4502C474.522 99.195 474.586 99.0081 474.714 98.8896C474.846 98.7666 475.01 98.7051 475.206 98.7051ZM481.686 101.371C482.621 101.371 483.366 101.692 483.922 102.335C484.478 102.978 484.756 103.944 484.756 105.233C484.756 106.086 484.628 106.801 484.373 107.38C484.118 107.959 483.758 108.396 483.293 108.692C482.833 108.989 482.288 109.137 481.659 109.137C481.263 109.137 480.914 109.084 480.613 108.979C480.312 108.875 480.055 108.733 479.841 108.556C479.627 108.378 479.449 108.184 479.308 107.975H479.226C479.239 108.152 479.255 108.367 479.273 108.617C479.296 108.868 479.308 109.087 479.308 109.273V112.35H478.166V101.508H479.103L479.253 102.615H479.308C479.453 102.387 479.631 102.18 479.841 101.993C480.05 101.802 480.306 101.651 480.606 101.542C480.912 101.428 481.272 101.371 481.686 101.371ZM481.488 102.328C480.969 102.328 480.549 102.428 480.23 102.629C479.916 102.829 479.686 103.13 479.54 103.531C479.394 103.928 479.317 104.427 479.308 105.028V105.247C479.308 105.881 479.376 106.416 479.513 106.854C479.654 107.291 479.884 107.624 480.203 107.852C480.527 108.079 480.96 108.193 481.502 108.193C481.967 108.193 482.354 108.068 482.664 107.817C482.974 107.567 483.204 107.218 483.354 106.771C483.509 106.32 483.587 105.803 483.587 105.22C483.587 104.336 483.414 103.634 483.067 103.114C482.726 102.59 482.199 102.328 481.488 102.328ZM492.022 109L489.179 101.508H490.395L492.043 106.04C492.157 106.35 492.273 106.692 492.392 107.065C492.51 107.439 492.592 107.74 492.638 107.968H492.686C492.74 107.74 492.831 107.439 492.959 107.065C493.087 106.687 493.203 106.345 493.308 106.04L494.955 101.508H496.172L493.321 109H492.022ZM500.178 101.385C501.071 101.385 501.734 101.585 502.167 101.986C502.6 102.387 502.816 103.028 502.816 103.907V109H501.989L501.77 107.893H501.716C501.506 108.166 501.287 108.396 501.06 108.583C500.832 108.765 500.567 108.904 500.267 109C499.97 109.091 499.606 109.137 499.173 109.137C498.717 109.137 498.311 109.057 497.956 108.897C497.605 108.738 497.327 108.496 497.122 108.173C496.922 107.849 496.821 107.439 496.821 106.942C496.821 106.195 497.117 105.621 497.71 105.22C498.302 104.819 499.205 104.6 500.417 104.563L501.709 104.509V104.051C501.709 103.404 501.57 102.95 501.292 102.69C501.014 102.431 500.622 102.301 500.116 102.301C499.724 102.301 499.351 102.358 498.995 102.472C498.64 102.586 498.302 102.72 497.983 102.875L497.635 102.014C497.972 101.84 498.359 101.692 498.797 101.569C499.234 101.446 499.695 101.385 500.178 101.385ZM501.695 105.309L500.554 105.356C499.619 105.393 498.961 105.546 498.578 105.814C498.195 106.083 498.004 106.464 498.004 106.956C498.004 107.384 498.134 107.701 498.394 107.906C498.653 108.111 498.997 108.214 499.426 108.214C500.091 108.214 500.636 108.029 501.06 107.66C501.483 107.291 501.695 106.737 501.695 105.999V105.309ZM506.296 109H505.154V98.3633H506.296V109ZM514.882 101.508V109H513.952L513.788 107.947H513.727C513.572 108.207 513.371 108.426 513.125 108.604C512.879 108.781 512.601 108.913 512.291 109C511.986 109.091 511.66 109.137 511.313 109.137C510.721 109.137 510.224 109.041 509.823 108.85C509.422 108.658 509.119 108.362 508.914 107.961C508.714 107.56 508.613 107.045 508.613 106.416V101.508H509.762V106.334C509.762 106.958 509.903 107.425 510.186 107.735C510.468 108.041 510.899 108.193 511.478 108.193C512.033 108.193 512.476 108.089 512.804 107.879C513.136 107.669 513.376 107.362 513.521 106.956C513.667 106.546 513.74 106.045 513.74 105.452V101.508H514.882ZM520.166 101.371C520.804 101.371 521.351 101.512 521.807 101.795C522.262 102.077 522.611 102.474 522.853 102.984C523.094 103.49 523.215 104.083 523.215 104.762V105.466H518.04C518.054 106.345 518.272 107.015 518.696 107.476C519.12 107.936 519.717 108.166 520.487 108.166C520.961 108.166 521.381 108.123 521.745 108.036C522.11 107.95 522.488 107.822 522.88 107.653V108.651C522.502 108.82 522.126 108.943 521.752 109.021C521.383 109.098 520.945 109.137 520.439 109.137C519.719 109.137 519.09 108.991 518.553 108.699C518.02 108.403 517.605 107.97 517.309 107.4C517.012 106.831 516.864 106.133 516.864 105.309C516.864 104.502 516.999 103.805 517.268 103.217C517.541 102.624 517.924 102.169 518.416 101.85C518.913 101.531 519.496 101.371 520.166 101.371ZM520.152 102.301C519.546 102.301 519.063 102.499 518.703 102.896C518.343 103.292 518.129 103.846 518.061 104.557H522.025C522.021 104.11 521.95 103.718 521.813 103.381C521.681 103.039 521.478 102.775 521.205 102.588C520.932 102.396 520.581 102.301 520.152 102.301Z" fill="#161616"/>
<path fill-rule="evenodd" clip-rule="evenodd" d="M484.343 126L479.343 121L489.343 121L484.343 126Z" fill="white"/>
<path d="M490.343 121.5C490.343 121.5 489.676 121.5 489.343 121.5L484.343 126.5L479.343 121.5L478.343 121.5" stroke="#2670A9"/>
<rect x="428.843" y="86.5" width="107" height="35" stroke="#2670A9"/>
</g>
<defs>
<filter id="filter0_d_1137_11017" x="323.692" y="157.2" width="15.0142" height="21.1785" filterUnits="userSpaceOnUse" color-interpolation-filters="sRGB">
<feFlood flood-opacity="0" result="BackgroundImageFix"/>
<feColorMatrix in="SourceAlpha" type="matrix" values="0 0 0 0 0 0 0 0 0 0 0 0 0 0 0 0 0 0 127 0" result="hardAlpha"/>
<feOffset dy="1"/>
<feGaussianBlur stdDeviation="0.9"/>
<feColorMatrix type="matrix" values="0 0 0 0 0 0 0 0 0 0 0 0 0 0 0 0 0 0 0.65 0"/>
<feBlend mode="normal" in2="BackgroundImageFix" result="effect1_dropShadow_1137_11017"/>
<feBlend mode="normal" in="SourceGraphic" in2="effect1_dropShadow_1137_11017" result="shape"/>
</filter>
<filter id="filter1_d_1137_11017" x="471.138" y="145" width="24.2032" height="25" filterUnits="userSpaceOnUse" color-interpolation-filters="sRGB">
<feFlood flood-opacity="0" result="BackgroundImageFix"/>
<feColorMatrix in="SourceAlpha" type="matrix" values="0 0 0 0 0 0 0 0 0 0 0 0 0 0 0 0 0 0 127 0" result="hardAlpha"/>
<feOffset dy="1"/>
<feGaussianBlur stdDeviation="1.5"/>
<feColorMatrix type="matrix" values="0 0 0 0 0 0 0 0 0 0 0 0 0 0 0 0 0 0 0.2 0"/>
<feBlend mode="normal" in2="BackgroundImageFix" result="effect1_dropShadow_1137_11017"/>
<feBlend mode="normal" in="SourceGraphic" in2="effect1_dropShadow_1137_11017" result="shape"/>
</filter>
<filter id="filter2_d_1137_11017" x="418.343" y="82" width="128" height="61.2072" filterUnits="userSpaceOnUse" color-interpolation-filters="sRGB">
<feFlood flood-opacity="0" result="BackgroundImageFix"/>
<feColorMatrix in="SourceAlpha" type="matrix" values="0 0 0 0 0 0 0 0 0 0 0 0 0 0 0 0 0 0 127 0" result="hardAlpha"/>
<feOffset dy="6"/>
<feGaussianBlur stdDeviation="5"/>
<feColorMatrix type="matrix" values="0 0 0 0 0 0 0 0 0 0 0 0 0 0 0 0 0 0 0.2 0"/>
<feBlend mode="normal" in2="BackgroundImageFix" result="effect1_dropShadow_1137_11017"/>
<feBlend mode="normal" in="SourceGraphic" in2="effect1_dropShadow_1137_11017" result="shape"/>
</filter>
</defs>
</svg>
