<svg width="889" height="192" viewBox="0 0 889 192" fill="none" xmlns="http://www.w3.org/2000/svg">
<rect width="889" height="192" fill="#F2F4F6"/>
<rect width="390.5" height="120" transform="translate(36 36)" fill="white"/>
<path d="M149.25 64H153.25V68H149.25V64Z" fill="#161616"/>
<path d="M149.25 70H153.25V80H149.25V70Z" fill="#161616"/>
<path fill-rule="evenodd" clip-rule="evenodd" d="M139.25 84V60H163.25V84H139.25ZM141.25 62H161.25V82H141.25V62Z" fill="#161616"/>
<path fill-rule="evenodd" clip-rule="evenodd" d="M163.25 108H139.25V132H163.25V108ZM149.25 112H153.25V116H149.25V112ZM149.25 118H153.25V128H149.25V118Z" fill="#161616"/>
<path fill-rule="evenodd" clip-rule="evenodd" d="M181.25 84V60H197.25L201.25 64V84H181.25ZM199.25 82V68H193.25V62H183.25V82H199.25ZM199.25 64.8284V66H195.25V62H196.422L199.25 64.8284Z" fill="#161616"/>
<path fill-rule="evenodd" clip-rule="evenodd" d="M181.25 108V132H201.25V112L197.25 108H181.25ZM195.25 110H193.25V116H199.25V114H195.25V110Z" fill="#161616"/>
<path fill-rule="evenodd" clip-rule="evenodd" d="M241.25 62H221.25V82H241.25V62ZM219.25 60V84H243.25V60H219.25Z" fill="#161616"/>
<path d="M235.25 64H237.25V72H235.25V64Z" fill="#161616"/>
<path d="M237.25 64H235.25V67H232.25V69H235.25V72H237.25V69H240.25V67H237.25V64Z" fill="#161616"/>
<path d="M223.664 73L222.25 74.4142L224.371 76.5355L222.25 78.6569L223.664 80.0711L225.786 77.9497L227.907 80.0711L229.321 78.6569L227.2 76.5355L229.321 74.4142L227.907 73L225.786 75.1213L223.664 73Z" fill="#161616"/>
<path d="M222.25 67H230.25V69H222.25V67Z" fill="#161616"/>
<path d="M232.25 78H240.25V80H232.25V78Z" fill="#161616"/>
<path d="M232.25 74H240.25V76H232.25V74Z" fill="#161616"/>
<path fill-rule="evenodd" clip-rule="evenodd" d="M219.25 108H243.25V132H219.25V108ZM232.25 115H235.25V112H237.25V115H240.25V117H237.25V120H235.25V117H232.25V115ZM223.664 121L222.25 122.414L224.371 124.536L222.25 126.657L223.664 128.071L225.786 125.95L227.907 128.071L229.321 126.657L227.2 124.536L229.321 122.414L227.907 121L225.786 123.121L223.664 121ZM230.25 115H222.25V117H230.25V115ZM232.25 126H240.25V128H232.25V126ZM240.25 122H232.25V124H240.25V122Z" fill="#161616"/>
<path d="M259.25 82H283.25V84H259.25V82Z" fill="#161616"/>
<path fill-rule="evenodd" clip-rule="evenodd" d="M271.25 64H261.25V82H271.25V64ZM259.25 62V84H273.25V62H259.25Z" fill="#161616"/>
<path fill-rule="evenodd" clip-rule="evenodd" d="M281.25 70H277.25V82H281.25V70ZM275.25 68V84H283.25V68H275.25Z" fill="#161616"/>
<path d="M263.25 66H265.25V68H263.25V66Z" fill="#161616"/>
<path d="M263.25 70H265.25V72H263.25V70Z" fill="#161616"/>
<path d="M263.25 74H265.25V76H263.25V74Z" fill="#161616"/>
<path d="M267.25 66H269.25V68H267.25V66Z" fill="#161616"/>
<path d="M267.25 70H269.25V72H267.25V70Z" fill="#161616"/>
<path d="M267.25 74H269.25V76H267.25V74Z" fill="#161616"/>
<path d="M265.25 82V78H267.25V82H265.25Z" fill="#161616"/>
<path fill-rule="evenodd" clip-rule="evenodd" d="M259.25 110H273.25V130H275.25V116H283.25V132H259.25V110ZM267.25 126V130H265.25V126H267.25ZM265.25 114H263.25V116H265.25V114ZM263.25 118H265.25V120H263.25V118ZM265.25 122H263.25V124H265.25V122ZM269.25 114H267.25V116H269.25V114ZM267.25 118H269.25V120H267.25V118ZM269.25 122H267.25V124H269.25V122Z" fill="#161616"/>
<g clip-path="url(#clip0_2505_298508)">
<path fill-rule="evenodd" clip-rule="evenodd" d="M313.25 71.9809L313.25 82L307.25 82V78C307.25 77.3285 307.25 76.657 307.207 76C307.102 74.4206 306.746 72.9249 305.536 71.7143C304.325 70.5036 302.829 70.148 301.25 70.0435C300.593 70 299.921 70 299.25 70C299.25 70.6715 299.25 71.343 299.293 72C299.398 73.5794 299.754 75.0751 300.964 76.2857C302.175 77.4964 303.671 77.852 305.25 77.9565L305.25 82H299.25V84H323.25V82H315.25L315.25 71.9724C317.407 71.8823 319.467 71.4977 321.107 69.8571C322.748 68.2166 323.132 66.1574 323.222 64C323.25 63.3395 323.25 62.6697 323.25 62C322.58 62 321.911 62 321.25 62.0276C319.093 62.1177 317.033 62.5023 315.393 64.1429C315.021 64.515 314.713 64.9088 314.459 65.3203C314.078 64.3331 313.514 63.407 312.679 62.5714C310.609 60.5016 307.984 60.0978 305.25 60.0191C304.588 60 303.919 60 303.25 60C303.25 60.6688 303.25 61.3376 303.269 62C303.348 64.7335 303.752 67.3587 305.821 69.4286C307.891 71.4984 310.516 71.9022 313.25 71.9809ZM311.264 63.9856C312.781 65.502 313.142 67.4258 313.226 69.9755C310.676 69.8918 308.752 69.5307 307.236 68.0144C305.719 66.498 305.358 64.5742 305.274 62.0245C307.824 62.1082 309.748 62.4693 311.264 63.9856ZM319.693 68.4429C318.586 69.5495 317.199 69.8727 315.285 69.9647C315.377 68.0513 315.7 66.6637 316.807 65.5571C317.914 64.4505 319.301 64.1273 321.215 64.0353C321.123 65.9487 320.8 67.3363 319.693 68.4429ZM305.193 75.9431C305.093 74.696 304.825 73.8317 304.122 73.1285C303.418 72.4253 302.554 72.1568 301.307 72.0569C301.407 73.304 301.675 74.1683 302.378 74.8715C303.082 75.5747 303.946 75.8432 305.193 75.9431Z" fill="#161616"/>
</g>
<g clip-path="url(#clip1_2505_298508)">
<path d="M315.231 118C315.25 118.662 315.25 119.331 315.25 120L315.25 130H323.25V132H299.25V130H305.25L305.25 125.957C303.671 125.852 302.175 125.496 300.964 124.286C299.754 123.075 299.398 121.579 299.293 120C299.25 119.343 299.25 118.672 299.25 118C299.921 118 300.593 118 301.25 118.043C302.829 118.148 304.325 118.504 305.536 119.714C306.746 120.925 307.102 122.421 307.207 124C307.25 124.657 307.25 125.329 307.25 126V130L313.25 130V119.981C310.516 119.902 307.891 119.498 305.821 117.429C303.752 115.359 303.348 112.734 303.269 110C303.25 109.338 303.25 108.669 303.25 108C303.919 108 304.588 108 305.25 108.019C307.984 108.098 310.609 108.502 312.679 110.571C314.748 112.641 315.152 115.266 315.231 118Z" fill="#161616"/>
<path d="M317.23 117.942C317.173 115.949 316.951 113.73 315.915 111.673C317.46 110.426 319.316 110.108 321.25 110.028C321.911 110 322.58 110 323.25 110C323.25 110.67 323.25 111.339 323.222 112C323.132 114.157 322.748 116.217 321.107 117.857C319.984 118.981 318.663 119.515 317.25 119.769C317.25 119.176 317.248 118.558 317.23 117.942Z" fill="#161616"/>
</g>
<rect width="390.5" height="120" transform="translate(462.5 36)" fill="#242526"/>
<path d="M575.75 64H579.75V68H575.75V64Z" fill="white"/>
<path d="M575.75 70H579.75V80H575.75V70Z" fill="white"/>
<path fill-rule="evenodd" clip-rule="evenodd" d="M565.75 84V60H589.75V84H565.75ZM567.75 62H587.75V82H567.75V62Z" fill="white"/>
<path fill-rule="evenodd" clip-rule="evenodd" d="M589.75 108H565.75V132H589.75V108ZM575.75 112H579.75V116H575.75V112ZM575.75 118H579.75V128H575.75V118Z" fill="white"/>
<path fill-rule="evenodd" clip-rule="evenodd" d="M607.75 84V60H623.75L627.75 64V84H607.75ZM625.75 82V68H619.75V62H609.75V82H625.75ZM625.75 64.8284V66H621.75V62H622.922L625.75 64.8284Z" fill="white"/>
<path fill-rule="evenodd" clip-rule="evenodd" d="M607.75 108V132H627.75V112L623.75 108H607.75ZM621.75 110H619.75V116H625.75V114H621.75V110Z" fill="white"/>
<path fill-rule="evenodd" clip-rule="evenodd" d="M667.75 62H647.75V82H667.75V62ZM645.75 60V84H669.75V60H645.75Z" fill="white"/>
<path d="M661.75 64H663.75V72H661.75V64Z" fill="white"/>
<path d="M663.75 64H661.75V67H658.75V69H661.75V72H663.75V69H666.75V67H663.75V64Z" fill="white"/>
<path d="M650.164 73L648.75 74.4142L650.871 76.5355L648.75 78.6569L650.164 80.0711L652.286 77.9497L654.407 80.0711L655.821 78.6569L653.7 76.5355L655.821 74.4142L654.407 73L652.286 75.1213L650.164 73Z" fill="white"/>
<path d="M648.75 67H656.75V69H648.75V67Z" fill="white"/>
<path d="M658.75 78H666.75V80H658.75V78Z" fill="white"/>
<path d="M658.75 74H666.75V76H658.75V74Z" fill="white"/>
<path fill-rule="evenodd" clip-rule="evenodd" d="M645.75 108H669.75V132H645.75V108ZM658.75 115H661.75V112H663.75V115H666.75V117H663.75V120H661.75V117H658.75V115ZM650.164 121L648.75 122.414L650.871 124.536L648.75 126.657L650.164 128.071L652.286 125.95L654.407 128.071L655.821 126.657L653.7 124.536L655.821 122.414L654.407 121L652.286 123.121L650.164 121ZM656.75 115H648.75V117H656.75V115ZM658.75 126H666.75V128H658.75V126ZM666.75 122H658.75V124H666.75V122Z" fill="white"/>
<path d="M685.75 82H709.75V84H685.75V82Z" fill="white"/>
<path fill-rule="evenodd" clip-rule="evenodd" d="M697.75 64H687.75V82H697.75V64ZM685.75 62V84H699.75V62H685.75Z" fill="white"/>
<path fill-rule="evenodd" clip-rule="evenodd" d="M707.75 70H703.75V82H707.75V70ZM701.75 68V84H709.75V68H701.75Z" fill="white"/>
<path d="M689.75 66H691.75V68H689.75V66Z" fill="white"/>
<path d="M689.75 70H691.75V72H689.75V70Z" fill="white"/>
<path d="M689.75 74H691.75V76H689.75V74Z" fill="white"/>
<path d="M693.75 66H695.75V68H693.75V66Z" fill="white"/>
<path d="M693.75 70H695.75V72H693.75V70Z" fill="white"/>
<path d="M693.75 74H695.75V76H693.75V74Z" fill="white"/>
<path d="M691.75 82V78H693.75V82H691.75Z" fill="white"/>
<path fill-rule="evenodd" clip-rule="evenodd" d="M685.75 110H699.75V130H701.75V116H709.75V132H685.75V110ZM693.75 126V130H691.75V126H693.75ZM691.75 114H689.75V116H691.75V114ZM689.75 118H691.75V120H689.75V118ZM691.75 122H689.75V124H691.75V122ZM695.75 114H693.75V116H695.75V114ZM693.75 118H695.75V120H693.75V118ZM695.75 122H693.75V124H695.75V122Z" fill="white"/>
<g clip-path="url(#clip2_2505_298508)">
<path fill-rule="evenodd" clip-rule="evenodd" d="M739.75 71.9809L739.75 82L733.75 82V78C733.75 77.3285 733.75 76.657 733.707 76C733.602 74.4206 733.246 72.9249 732.036 71.7143C730.825 70.5036 729.329 70.148 727.75 70.0435C727.093 70 726.421 70 725.75 70C725.75 70.6715 725.75 71.343 725.793 72C725.898 73.5794 726.254 75.0751 727.464 76.2857C728.675 77.4964 730.171 77.852 731.75 77.9565L731.75 82H725.75V84H749.75V82H741.75L741.75 71.9724C743.907 71.8823 745.967 71.4977 747.607 69.8571C749.248 68.2166 749.632 66.1574 749.722 64C749.75 63.3395 749.75 62.6697 749.75 62C749.08 62 748.411 62 747.75 62.0276C745.593 62.1177 743.533 62.5023 741.893 64.1429C741.521 64.515 741.213 64.9088 740.959 65.3203C740.578 64.3331 740.014 63.407 739.179 62.5714C737.109 60.5016 734.484 60.0978 731.75 60.0191C731.088 60 730.419 60 729.75 60C729.75 60.6688 729.75 61.3376 729.769 62C729.848 64.7335 730.252 67.3587 732.321 69.4286C734.391 71.4984 737.016 71.9022 739.75 71.9809ZM737.764 63.9856C739.281 65.502 739.642 67.4258 739.726 69.9755C737.176 69.8918 735.252 69.5307 733.736 68.0144C732.219 66.498 731.858 64.5742 731.774 62.0245C734.324 62.1082 736.248 62.4693 737.764 63.9856ZM746.193 68.4429C745.086 69.5495 743.699 69.8727 741.785 69.9647C741.877 68.0513 742.2 66.6637 743.307 65.5571C744.414 64.4505 745.801 64.1273 747.715 64.0353C747.623 65.9487 747.3 67.3363 746.193 68.4429ZM731.693 75.9431C731.593 74.696 731.325 73.8317 730.622 73.1285C729.918 72.4253 729.054 72.1568 727.807 72.0569C727.907 73.304 728.175 74.1683 728.878 74.8715C729.582 75.5747 730.446 75.8432 731.693 75.9431Z" fill="white"/>
</g>
<g clip-path="url(#clip3_2505_298508)">
<path d="M741.731 118C741.75 118.662 741.75 119.331 741.75 120L741.75 130H749.75V132H725.75V130H731.75L731.75 125.957C730.171 125.852 728.675 125.496 727.464 124.286C726.254 123.075 725.898 121.579 725.793 120C725.75 119.343 725.75 118.672 725.75 118C726.421 118 727.093 118 727.75 118.043C729.329 118.148 730.825 118.504 732.036 119.714C733.246 120.925 733.602 122.421 733.707 124C733.75 124.657 733.75 125.329 733.75 126V130L739.75 130V119.981C737.016 119.902 734.391 119.498 732.321 117.429C730.252 115.359 729.848 112.734 729.769 110C729.75 109.338 729.75 108.669 729.75 108C730.419 108 731.088 108 731.75 108.019C734.484 108.098 737.109 108.502 739.179 110.571C741.248 112.641 741.652 115.266 741.731 118Z" fill="white"/>
<path d="M743.73 117.942C743.673 115.949 743.451 113.73 742.415 111.673C743.96 110.426 745.816 110.108 747.75 110.028C748.411 110 749.08 110 749.75 110C749.75 110.67 749.75 111.339 749.722 112C749.632 114.157 749.248 116.217 747.607 117.857C746.484 118.981 745.163 119.515 743.75 119.769C743.75 119.176 743.748 118.558 743.73 117.942Z" fill="white"/>
</g>
<defs>
<clipPath id="clip0_2505_298508">
<rect width="24" height="24" fill="white" transform="translate(299.25 60)"/>
</clipPath>
<clipPath id="clip1_2505_298508">
<rect width="24" height="24" fill="white" transform="translate(299.25 108)"/>
</clipPath>
<clipPath id="clip2_2505_298508">
<rect width="24" height="24" fill="white" transform="translate(725.75 60)"/>
</clipPath>
<clipPath id="clip3_2505_298508">
<rect width="24" height="24" fill="white" transform="translate(725.75 108)"/>
</clipPath>
</defs>
</svg>
