<svg width="889" height="317" viewBox="0 0 889 317" fill="none" xmlns="http://www.w3.org/2000/svg">
<rect width="889" height="316.5" fill="#F2F4F6"/>
<rect width="394.5" height="252.5" transform="translate(32 32)" fill="#242526"/>
<rect x="74.3281" y="64" width="34.7401" height="6" fill="white"/>
<rect x="74.3281" y="79" width="34.7401" height="3" fill="#EE852B"/>
<rect x="123.152" y="64" width="34.7401" height="6" fill="#B4B7BE"/>
<rect x="171.976" y="64" width="34.7401" height="6" fill="#B4B7BE"/>
<rect x="64" y="82" width="330.5" height="1.5" fill="#4C505B"/>
<rect x="64.5" y="107.5" width="330" height="81" fill="#2F3136"/>
<rect x="319.447" y="204.5" width="75.0524" height="24" fill="#155C93"/>
<rect width="394.5" height="252.5" transform="translate(462.5 32)" fill="white"/>
<rect x="504.828" y="79" width="34.7401" height="3" fill="#E06519"/>
<rect x="553.652" y="64" width="34.7401" height="6" fill="#61656E"/>
<rect x="602.476" y="64" width="34.7401" height="6" fill="#61656E"/>
<rect x="494.5" y="82" width="330.5" height="1.5" fill="#C5C9D0"/>
<rect x="504.828" y="64" width="34.7401" height="6" fill="#161616"/>
<rect x="495" y="107.5" width="330" height="81" fill="#EAEDEF"/>
<rect x="749.947" y="204.5" width="75.0524" height="24" fill="#155C93"/>
<rect x="46" y="71" width="21" height="21" rx="10.5" fill="#A961B5"/>
<path d="M59.0137 79.2891C59.0137 79.7402 58.9225 80.1322 58.7402 80.4648C58.5579 80.7975 58.3073 81.071 57.9883 81.2852C57.6738 81.4948 57.3092 81.6452 56.8945 81.7363V81.7842C57.6921 81.8844 58.2936 82.1351 58.6992 82.5361C59.1094 82.9372 59.3145 83.4681 59.3145 84.1289C59.3145 84.7077 59.1755 85.2249 58.8975 85.6807C58.6195 86.1318 58.1934 86.4873 57.6191 86.7471C57.0449 87.0068 56.3066 87.1367 55.4043 87.1367C54.862 87.1367 54.3584 87.0934 53.8936 87.0068C53.4333 86.9202 52.9958 86.7812 52.5811 86.5898V85.1611C53.0049 85.3708 53.4561 85.5326 53.9346 85.6465C54.4131 85.7604 54.8665 85.8174 55.2949 85.8174C56.1289 85.8174 56.7236 85.6624 57.0791 85.3525C57.4346 85.0381 57.6123 84.6051 57.6123 84.0537C57.6123 83.6982 57.5189 83.4066 57.332 83.1787C57.1497 82.9508 56.8649 82.7799 56.4775 82.666C56.0947 82.5521 55.6003 82.4951 54.9941 82.4951H54.1123V81.2031H55.001C55.5798 81.2031 56.0446 81.1348 56.3955 80.998C56.7464 80.8568 56.9993 80.6631 57.1543 80.417C57.3138 80.1709 57.3936 79.8838 57.3936 79.5557C57.3936 79.1273 57.2546 78.7946 56.9766 78.5576C56.6986 78.3161 56.2861 78.1953 55.7393 78.1953C55.402 78.1953 55.0944 78.234 54.8164 78.3115C54.543 78.389 54.29 78.487 54.0576 78.6055C53.8252 78.724 53.6042 78.8516 53.3945 78.9883L52.6221 77.874C53.0003 77.5915 53.4515 77.3522 53.9756 77.1562C54.4997 76.9603 55.1104 76.8623 55.8076 76.8623C56.833 76.8623 57.6237 77.0833 58.1797 77.5254C58.7357 77.9629 59.0137 78.5508 59.0137 79.2891Z" fill="white"/>
<rect x="386" y="206" width="21" height="21" rx="10.5" fill="#A961B5"/>
<path d="M399.014 214.289C399.014 214.74 398.923 215.132 398.74 215.465C398.558 215.798 398.307 216.071 397.988 216.285C397.674 216.495 397.309 216.645 396.895 216.736V216.784C397.692 216.884 398.294 217.135 398.699 217.536C399.109 217.937 399.314 218.468 399.314 219.129C399.314 219.708 399.175 220.225 398.897 220.681C398.619 221.132 398.193 221.487 397.619 221.747C397.045 222.007 396.307 222.137 395.404 222.137C394.862 222.137 394.358 222.093 393.894 222.007C393.433 221.92 392.996 221.781 392.581 221.59V220.161C393.005 220.371 393.456 220.533 393.935 220.646C394.413 220.76 394.867 220.817 395.295 220.817C396.129 220.817 396.724 220.662 397.079 220.353C397.435 220.038 397.612 219.605 397.612 219.054C397.612 218.698 397.519 218.407 397.332 218.179C397.15 217.951 396.865 217.78 396.478 217.666C396.095 217.552 395.6 217.495 394.994 217.495H394.112V216.203H395.001C395.58 216.203 396.045 216.135 396.396 215.998C396.746 215.857 396.999 215.663 397.154 215.417C397.314 215.171 397.394 214.884 397.394 214.556C397.394 214.127 397.255 213.795 396.977 213.558C396.699 213.316 396.286 213.195 395.739 213.195C395.402 213.195 395.094 213.234 394.816 213.312C394.543 213.389 394.29 213.487 394.058 213.605C393.825 213.724 393.604 213.852 393.395 213.988L392.622 212.874C393 212.591 393.451 212.352 393.976 212.156C394.5 211.96 395.11 211.862 395.808 211.862C396.833 211.862 397.624 212.083 398.18 212.525C398.736 212.963 399.014 213.551 399.014 214.289Z" fill="white"/>
<rect x="128" y="226" width="21" height="21" rx="10.5" fill="#A961B5"/>
<path d="M139.353 242H137.739V235.567C137.739 235.353 137.742 235.139 137.746 234.925C137.751 234.711 137.755 234.501 137.76 234.296C137.769 234.091 137.78 233.895 137.794 233.708C137.698 233.813 137.58 233.927 137.438 234.05C137.302 234.173 137.156 234.3 137.001 234.433L135.853 235.349L135.046 234.33L138.013 232.006H139.353V242Z" fill="white"/>
<rect x="208" y="136" width="21" height="21" rx="10.5" fill="#A961B5"/>
<path d="M221.396 152H214.629V150.79L217.22 148.165C217.721 147.655 218.133 147.215 218.457 146.846C218.781 146.472 219.02 146.119 219.175 145.786C219.334 145.453 219.414 145.091 219.414 144.699C219.414 144.216 219.275 143.852 218.997 143.605C218.719 143.355 218.352 143.229 217.896 143.229C217.464 143.229 217.062 143.316 216.693 143.489C216.329 143.658 215.951 143.899 215.559 144.214L214.677 143.154C214.955 142.917 215.251 142.701 215.565 142.505C215.884 142.309 216.24 142.154 216.632 142.04C217.024 141.922 217.47 141.862 217.972 141.862C218.605 141.862 219.152 141.976 219.612 142.204C220.073 142.427 220.426 142.74 220.672 143.141C220.923 143.542 221.048 144.009 221.048 144.542C221.048 145.08 220.941 145.576 220.727 146.032C220.512 146.488 220.207 146.939 219.811 147.386C219.414 147.828 218.942 148.309 218.396 148.828L216.666 150.517V150.592H221.396V152Z" fill="white"/>
</svg>
