<svg width="889" height="262" viewBox="0 0 889 262" fill="none" xmlns="http://www.w3.org/2000/svg">
<rect width="889" height="262" fill="#F2F4F6"/>
<rect width="390.5" height="190" transform="translate(36 36)" fill="white"/>
<path d="M71.8213 79H69.7207V73.1992H63.7969V79H61.6875V66.1504H63.7969V71.4062H69.7207V66.1504H71.8213V79ZM78.8877 69.0859C79.7549 69.0859 80.499 69.2646 81.1201 69.6221C81.7412 69.9795 82.2188 70.4863 82.5527 71.1426C82.8867 71.7988 83.0537 72.584 83.0537 73.498V74.6055H76.5586C76.582 75.5488 76.834 76.2754 77.3145 76.7852C77.8008 77.2949 78.4805 77.5498 79.3535 77.5498C79.9746 77.5498 80.5312 77.4912 81.0234 77.374C81.5215 77.251 82.0342 77.0723 82.5615 76.8379V78.5166C82.0752 78.7451 81.5801 78.9121 81.0762 79.0176C80.5723 79.123 79.9688 79.1758 79.2656 79.1758C78.3105 79.1758 77.4697 78.9912 76.7432 78.6221C76.0225 78.2471 75.457 77.6904 75.0469 76.9521C74.6426 76.2139 74.4404 75.2969 74.4404 74.2012C74.4404 73.1113 74.625 72.1855 74.9941 71.4238C75.3633 70.6621 75.8818 70.082 76.5498 69.6836C77.2178 69.2852 77.9971 69.0859 78.8877 69.0859ZM78.8877 70.6416C78.2373 70.6416 77.71 70.8525 77.3057 71.2744C76.9072 71.6963 76.6729 72.3145 76.6025 73.1289H81.0322C81.0264 72.6426 80.9443 72.2119 80.7861 71.8369C80.6338 71.4619 80.3994 71.1689 80.083 70.958C79.7725 70.7471 79.374 70.6416 78.8877 70.6416ZM89.1973 69.0859C90.4277 69.0859 91.3564 69.3584 91.9834 69.9033C92.6162 70.4482 92.9326 71.2979 92.9326 72.4521V79H91.4648L91.0693 77.6201H90.999C90.7236 77.9717 90.4395 78.2617 90.1465 78.4902C89.8535 78.7188 89.5137 78.8887 89.127 79C88.7461 79.1172 88.2803 79.1758 87.7295 79.1758C87.1494 79.1758 86.6309 79.0703 86.1738 78.8594C85.7168 78.6426 85.3564 78.3145 85.0928 77.875C84.8291 77.4355 84.6973 76.8789 84.6973 76.2051C84.6973 75.2031 85.0693 74.4502 85.8135 73.9463C86.5635 73.4424 87.6943 73.1641 89.2061 73.1113L90.8936 73.0498V72.54C90.8936 71.8662 90.7354 71.3857 90.4189 71.0986C90.1084 70.8115 89.6689 70.668 89.1006 70.668C88.6143 70.668 88.1426 70.7383 87.6855 70.8789C87.2285 71.0195 86.7832 71.1924 86.3496 71.3975L85.6816 69.9385C86.1562 69.6865 86.6953 69.4814 87.2988 69.3232C87.9082 69.165 88.541 69.0859 89.1973 69.0859ZM90.8848 74.3506L89.6279 74.3945C88.5967 74.4297 87.873 74.6055 87.457 74.9219C87.041 75.2383 86.833 75.6719 86.833 76.2227C86.833 76.7031 86.9766 77.0547 87.2637 77.2773C87.5508 77.4941 87.9287 77.6025 88.3975 77.6025C89.1123 77.6025 89.7041 77.4004 90.1729 76.9961C90.6475 76.5859 90.8848 75.9854 90.8848 75.1943V74.3506ZM99.0938 79.1758C97.9336 79.1758 97.002 78.7539 96.2988 77.9102C95.6016 77.0605 95.2529 75.8096 95.2529 74.1572C95.2529 72.4873 95.6074 71.2246 96.3164 70.3691C97.0312 69.5137 97.9717 69.0859 99.1377 69.0859C99.6299 69.0859 100.061 69.1533 100.43 69.2881C100.799 69.417 101.115 69.5928 101.379 69.8154C101.648 70.0381 101.877 70.2871 102.064 70.5625H102.161C102.132 70.3809 102.097 70.1201 102.056 69.7803C102.021 69.4346 102.003 69.1152 102.003 68.8223V65.3242H104.077V79H102.46L102.091 77.6729H102.003C101.827 77.9541 101.604 78.209 101.335 78.4375C101.071 78.6602 100.755 78.8389 100.386 78.9736C100.022 79.1084 99.5918 79.1758 99.0938 79.1758ZM99.6738 77.4971C100.559 77.4971 101.183 77.2422 101.546 76.7324C101.909 76.2227 102.097 75.458 102.108 74.4385V74.166C102.108 73.0762 101.933 72.2412 101.581 71.6611C101.229 71.0752 100.588 70.7822 99.6562 70.7822C98.9121 70.7822 98.3438 71.084 97.9512 71.6875C97.5645 72.2852 97.3711 73.1201 97.3711 74.1924C97.3711 75.2646 97.5645 76.085 97.9512 76.6533C98.3438 77.2158 98.918 77.4971 99.6738 77.4971ZM110.915 69.0859C111.782 69.0859 112.526 69.2646 113.147 69.6221C113.769 69.9795 114.246 70.4863 114.58 71.1426C114.914 71.7988 115.081 72.584 115.081 73.498V74.6055H108.586C108.609 75.5488 108.861 76.2754 109.342 76.7852C109.828 77.2949 110.508 77.5498 111.381 77.5498C112.002 77.5498 112.559 77.4912 113.051 77.374C113.549 77.251 114.062 77.0723 114.589 76.8379V78.5166C114.103 78.7451 113.607 78.9121 113.104 79.0176C112.6 79.123 111.996 79.1758 111.293 79.1758C110.338 79.1758 109.497 78.9912 108.771 78.6221C108.05 78.2471 107.484 77.6904 107.074 76.9521C106.67 76.2139 106.468 75.2969 106.468 74.2012C106.468 73.1113 106.652 72.1855 107.021 71.4238C107.391 70.6621 107.909 70.082 108.577 69.6836C109.245 69.2852 110.024 69.0859 110.915 69.0859ZM110.915 70.6416C110.265 70.6416 109.737 70.8525 109.333 71.2744C108.935 71.6963 108.7 72.3145 108.63 73.1289H113.06C113.054 72.6426 112.972 72.2119 112.813 71.8369C112.661 71.4619 112.427 71.1689 112.11 70.958C111.8 70.7471 111.401 70.6416 110.915 70.6416ZM122.341 69.0859C122.505 69.0859 122.684 69.0947 122.877 69.1123C123.07 69.1299 123.237 69.1533 123.378 69.1826L123.185 71.1162C123.062 71.0811 122.909 71.0547 122.728 71.0371C122.552 71.0195 122.394 71.0107 122.253 71.0107C121.884 71.0107 121.532 71.0723 121.198 71.1953C120.864 71.3125 120.568 71.4941 120.311 71.7402C120.053 71.9805 119.851 72.2822 119.704 72.6455C119.558 73.0088 119.484 73.4307 119.484 73.9111V79H117.41V69.2705H119.027L119.309 70.9844H119.405C119.599 70.6387 119.839 70.3223 120.126 70.0352C120.413 69.748 120.741 69.5195 121.11 69.3496C121.485 69.1738 121.896 69.0859 122.341 69.0859Z" fill="#161616"/>
<path d="M69.3037 100.907C69.3037 102.033 69.0986 102.974 68.6885 103.73C68.2783 104.482 67.6836 105.05 66.9043 105.433C66.1296 105.811 65.1885 106 64.0811 106H61.3672V96.0059H64.3818C65.3981 96.0059 66.2731 96.1927 67.0068 96.5664C67.7406 96.9355 68.3057 97.4847 68.7021 98.2139C69.1032 98.9385 69.3037 99.8363 69.3037 100.907ZM68.0801 100.948C68.0801 100.05 67.9297 99.3099 67.6289 98.7266C67.3327 98.1432 66.8952 97.7103 66.3164 97.4277C65.7422 97.1406 65.0381 96.9971 64.2041 96.9971H62.5293V105.002H63.9443C65.3206 105.002 66.3529 104.662 67.041 103.983C67.7337 103.304 68.0801 102.293 68.0801 100.948ZM74.2393 98.3711C74.8773 98.3711 75.4242 98.5124 75.8799 98.7949C76.3356 99.0775 76.6842 99.474 76.9258 99.9844C77.1673 100.49 77.2881 101.083 77.2881 101.762V102.466H72.1133C72.127 103.345 72.3457 104.015 72.7695 104.476C73.1934 104.936 73.7904 105.166 74.5605 105.166C75.0345 105.166 75.4538 105.123 75.8184 105.036C76.1829 104.95 76.5612 104.822 76.9531 104.653V105.651C76.5749 105.82 76.1989 105.943 75.8252 106.021C75.4561 106.098 75.0186 106.137 74.5127 106.137C73.7926 106.137 73.1637 105.991 72.626 105.699C72.0928 105.403 71.6781 104.97 71.3818 104.4C71.0856 103.831 70.9375 103.133 70.9375 102.309C70.9375 101.502 71.0719 100.805 71.3408 100.217C71.6143 99.6243 71.9971 99.1686 72.4893 98.8496C72.986 98.5306 73.5693 98.3711 74.2393 98.3711ZM74.2256 99.3008C73.6195 99.3008 73.1364 99.499 72.7764 99.8955C72.4163 100.292 72.2021 100.846 72.1338 101.557H76.0986C76.0941 101.11 76.0234 100.718 75.8867 100.381C75.7546 100.039 75.5518 99.7747 75.2783 99.5879C75.0049 99.3965 74.654 99.3008 74.2256 99.3008ZM84.0625 103.949C84.0625 104.428 83.9417 104.831 83.7002 105.159C83.4632 105.483 83.1214 105.727 82.6748 105.891C82.2327 106.055 81.7041 106.137 81.0889 106.137C80.5648 106.137 80.1113 106.096 79.7285 106.014C79.3457 105.932 79.0107 105.815 78.7236 105.665V104.619C79.029 104.77 79.3936 104.906 79.8174 105.029C80.2412 105.152 80.6742 105.214 81.1162 105.214C81.7633 105.214 82.2327 105.109 82.5244 104.899C82.8161 104.69 82.9619 104.405 82.9619 104.045C82.9619 103.84 82.9027 103.66 82.7842 103.505C82.6702 103.345 82.4766 103.193 82.2031 103.047C81.9297 102.896 81.5514 102.732 81.0684 102.555C80.5898 102.372 80.1751 102.192 79.8242 102.015C79.4779 101.832 79.209 101.611 79.0176 101.352C78.8307 101.092 78.7373 100.755 78.7373 100.34C78.7373 99.7064 78.9925 99.221 79.5029 98.8838C80.0179 98.542 80.6924 98.3711 81.5264 98.3711C81.9775 98.3711 82.3991 98.4167 82.791 98.5078C83.1875 98.5944 83.5566 98.7129 83.8984 98.8633L83.5156 99.7725C83.2057 99.6403 82.8753 99.5286 82.5244 99.4375C82.1735 99.3464 81.8158 99.3008 81.4512 99.3008C80.9271 99.3008 80.5238 99.3874 80.2412 99.5605C79.9632 99.7337 79.8242 99.9707 79.8242 100.271C79.8242 100.504 79.888 100.695 80.0156 100.846C80.1478 100.996 80.3574 101.137 80.6445 101.27C80.9316 101.402 81.3099 101.557 81.7793 101.734C82.2487 101.908 82.6543 102.088 82.9961 102.274C83.3379 102.457 83.5999 102.68 83.7822 102.944C83.9691 103.204 84.0625 103.539 84.0625 103.949ZM88.8887 106.137C88.2142 106.137 87.6195 105.998 87.1045 105.72C86.5895 105.442 86.1885 105.018 85.9014 104.448C85.6143 103.879 85.4707 103.161 85.4707 102.295C85.4707 101.388 85.6211 100.647 85.9219 100.073C86.2272 99.4945 86.6465 99.0661 87.1797 98.7881C87.7129 98.5101 88.319 98.3711 88.998 98.3711C89.3717 98.3711 89.7318 98.4098 90.0781 98.4873C90.429 98.5602 90.7161 98.6536 90.9395 98.7676L90.5977 99.7178C90.3698 99.6266 90.1055 99.5446 89.8047 99.4717C89.5085 99.3988 89.2305 99.3623 88.9707 99.3623C88.4512 99.3623 88.0182 99.474 87.6719 99.6973C87.3301 99.9206 87.0726 100.249 86.8994 100.682C86.7308 101.115 86.6465 101.648 86.6465 102.281C86.6465 102.887 86.7285 103.405 86.8926 103.833C87.0612 104.261 87.3096 104.59 87.6377 104.817C87.9704 105.041 88.3851 105.152 88.8818 105.152C89.2783 105.152 89.6361 105.111 89.9551 105.029C90.2741 104.943 90.5635 104.842 90.8232 104.729V105.74C90.5726 105.868 90.2923 105.966 89.9824 106.034C89.6771 106.103 89.3125 106.137 88.8887 106.137ZM96.0049 98.3711C96.1553 98.3711 96.3125 98.3802 96.4766 98.3984C96.6406 98.4121 96.7865 98.4326 96.9141 98.46L96.7705 99.5127C96.6475 99.4808 96.5107 99.4557 96.3604 99.4375C96.21 99.4193 96.0687 99.4102 95.9365 99.4102C95.6357 99.4102 95.3509 99.4717 95.082 99.5947C94.8177 99.7132 94.5853 99.8864 94.3848 100.114C94.1842 100.338 94.027 100.609 93.9131 100.928C93.7992 101.242 93.7422 101.593 93.7422 101.98V106H92.6006V98.5078H93.5439L93.667 99.8887H93.7148C93.8698 99.6107 94.0566 99.3577 94.2754 99.1299C94.4941 98.8975 94.7471 98.7129 95.0342 98.5762C95.3258 98.4395 95.6494 98.3711 96.0049 98.3711ZM99.4639 98.5078V106H98.3291V98.5078H99.4639ZM98.9102 95.7051C99.097 95.7051 99.2565 95.7666 99.3887 95.8896C99.5254 96.0081 99.5938 96.195 99.5938 96.4502C99.5938 96.7008 99.5254 96.8877 99.3887 97.0107C99.2565 97.1338 99.097 97.1953 98.9102 97.1953C98.7142 97.1953 98.5501 97.1338 98.418 97.0107C98.2904 96.8877 98.2266 96.7008 98.2266 96.4502C98.2266 96.195 98.2904 96.0081 98.418 95.8896C98.5501 95.7666 98.7142 95.7051 98.9102 95.7051ZM105.391 98.3711C106.325 98.3711 107.07 98.6924 107.626 99.335C108.182 99.9775 108.46 100.944 108.46 102.233C108.46 103.086 108.332 103.801 108.077 104.38C107.822 104.959 107.462 105.396 106.997 105.692C106.537 105.989 105.992 106.137 105.363 106.137C104.967 106.137 104.618 106.084 104.317 105.979C104.017 105.875 103.759 105.733 103.545 105.556C103.331 105.378 103.153 105.184 103.012 104.975H102.93C102.943 105.152 102.959 105.367 102.978 105.617C103 105.868 103.012 106.087 103.012 106.273V109.35H101.87V98.5078H102.807L102.957 99.6152H103.012C103.158 99.3874 103.335 99.18 103.545 98.9932C103.755 98.8018 104.01 98.6514 104.311 98.542C104.616 98.4281 104.976 98.3711 105.391 98.3711ZM105.192 99.3281C104.673 99.3281 104.254 99.4284 103.935 99.6289C103.62 99.8294 103.39 100.13 103.244 100.531C103.098 100.928 103.021 101.427 103.012 102.028V102.247C103.012 102.881 103.08 103.416 103.217 103.854C103.358 104.291 103.588 104.624 103.907 104.852C104.231 105.079 104.664 105.193 105.206 105.193C105.671 105.193 106.058 105.068 106.368 104.817C106.678 104.567 106.908 104.218 107.059 103.771C107.214 103.32 107.291 102.803 107.291 102.22C107.291 101.336 107.118 100.634 106.771 100.114C106.43 99.5902 105.903 99.3281 105.192 99.3281ZM112.862 105.207C113.049 105.207 113.241 105.191 113.437 105.159C113.632 105.127 113.792 105.089 113.915 105.043V105.925C113.783 105.984 113.598 106.034 113.361 106.075C113.129 106.116 112.901 106.137 112.678 106.137C112.281 106.137 111.921 106.068 111.598 105.932C111.274 105.79 111.014 105.553 110.818 105.221C110.627 104.888 110.531 104.428 110.531 103.84V99.3965H109.465V98.8428L110.538 98.3984L110.989 96.7715H111.673V98.5078H113.867V99.3965H111.673V103.806C111.673 104.275 111.78 104.626 111.994 104.858C112.213 105.091 112.502 105.207 112.862 105.207ZM116.567 98.5078V106H115.433V98.5078H116.567ZM116.014 95.7051C116.201 95.7051 116.36 95.7666 116.492 95.8896C116.629 96.0081 116.697 96.195 116.697 96.4502C116.697 96.7008 116.629 96.8877 116.492 97.0107C116.36 97.1338 116.201 97.1953 116.014 97.1953C115.818 97.1953 115.654 97.1338 115.521 97.0107C115.394 96.8877 115.33 96.7008 115.33 96.4502C115.33 96.195 115.394 96.0081 115.521 95.8896C115.654 95.7666 115.818 95.7051 116.014 95.7051ZM120.621 106L117.777 98.5078H118.994L120.642 103.04C120.756 103.35 120.872 103.692 120.99 104.065C121.109 104.439 121.191 104.74 121.236 104.968H121.284C121.339 104.74 121.43 104.439 121.558 104.065C121.685 103.687 121.801 103.345 121.906 103.04L123.554 98.5078H124.771L121.92 106H120.621ZM128.858 98.3711C129.496 98.3711 130.043 98.5124 130.499 98.7949C130.955 99.0775 131.303 99.474 131.545 99.9844C131.786 100.49 131.907 101.083 131.907 101.762V102.466H126.732C126.746 103.345 126.965 104.015 127.389 104.476C127.812 104.936 128.41 105.166 129.18 105.166C129.654 105.166 130.073 105.123 130.438 105.036C130.802 104.95 131.18 104.822 131.572 104.653V105.651C131.194 105.82 130.818 105.943 130.444 106.021C130.075 106.098 129.638 106.137 129.132 106.137C128.412 106.137 127.783 105.991 127.245 105.699C126.712 105.403 126.297 104.97 126.001 104.4C125.705 103.831 125.557 103.133 125.557 102.309C125.557 101.502 125.691 100.805 125.96 100.217C126.233 99.6243 126.616 99.1686 127.108 98.8496C127.605 98.5306 128.188 98.3711 128.858 98.3711ZM128.845 99.3008C128.239 99.3008 127.756 99.499 127.396 99.8955C127.035 100.292 126.821 100.846 126.753 101.557H130.718C130.713 101.11 130.643 100.718 130.506 100.381C130.374 100.039 130.171 99.7747 129.897 99.5879C129.624 99.3965 129.273 99.3008 128.845 99.3008ZM139.892 105.207C140.078 105.207 140.27 105.191 140.466 105.159C140.662 105.127 140.821 105.089 140.944 105.043V105.925C140.812 105.984 140.628 106.034 140.391 106.075C140.158 106.116 139.93 106.137 139.707 106.137C139.311 106.137 138.951 106.068 138.627 105.932C138.303 105.79 138.044 105.553 137.848 105.221C137.656 104.888 137.561 104.428 137.561 103.84V99.3965H136.494V98.8428L137.567 98.3984L138.019 96.7715H138.702V98.5078H140.896V99.3965H138.702V103.806C138.702 104.275 138.809 104.626 139.023 104.858C139.242 105.091 139.532 105.207 139.892 105.207ZM145.347 98.3711C145.985 98.3711 146.532 98.5124 146.987 98.7949C147.443 99.0775 147.792 99.474 148.033 99.9844C148.275 100.49 148.396 101.083 148.396 101.762V102.466H143.221C143.234 103.345 143.453 104.015 143.877 104.476C144.301 104.936 144.898 105.166 145.668 105.166C146.142 105.166 146.561 105.123 146.926 105.036C147.29 104.95 147.669 104.822 148.061 104.653V105.651C147.682 105.82 147.306 105.943 146.933 106.021C146.563 106.098 146.126 106.137 145.62 106.137C144.9 106.137 144.271 105.991 143.733 105.699C143.2 105.403 142.785 104.97 142.489 104.4C142.193 103.831 142.045 103.133 142.045 102.309C142.045 101.502 142.179 100.805 142.448 100.217C142.722 99.6243 143.104 99.1686 143.597 98.8496C144.093 98.5306 144.677 98.3711 145.347 98.3711ZM145.333 99.3008C144.727 99.3008 144.244 99.499 143.884 99.8955C143.524 100.292 143.31 100.846 143.241 101.557H147.206C147.201 101.11 147.131 100.718 146.994 100.381C146.862 100.039 146.659 99.7747 146.386 99.5879C146.112 99.3965 145.761 99.3008 145.333 99.3008ZM152.107 102.165L149.517 98.5078H150.815L152.791 101.393L154.76 98.5078H156.045L153.454 102.165L156.188 106H154.89L152.791 102.944L150.679 106H149.394L152.107 102.165ZM160.071 105.207C160.258 105.207 160.45 105.191 160.646 105.159C160.841 105.127 161.001 105.089 161.124 105.043V105.925C160.992 105.984 160.807 106.034 160.57 106.075C160.338 106.116 160.11 106.137 159.887 106.137C159.49 106.137 159.13 106.068 158.807 105.932C158.483 105.79 158.223 105.553 158.027 105.221C157.836 104.888 157.74 104.428 157.74 103.84V99.3965H156.674V98.8428L157.747 98.3984L158.198 96.7715H158.882V98.5078H161.076V99.3965H158.882V103.806C158.882 104.275 158.989 104.626 159.203 104.858C159.422 105.091 159.711 105.207 160.071 105.207Z" fill="#161616"/>
<path d="M62.3096 145H61.0312V137.147H65.4678V138.232H62.3096V140.682H65.2637V141.761H62.3096V145ZM68.0298 139.054V145H66.7676V139.054H68.0298ZM67.4067 136.777C67.6001 136.777 67.7666 136.829 67.9062 136.933C68.0495 137.036 68.1211 137.215 68.1211 137.47C68.1211 137.72 68.0495 137.899 67.9062 138.007C67.7666 138.111 67.6001 138.163 67.4067 138.163C67.2062 138.163 67.0361 138.111 66.8965 138.007C66.7604 137.899 66.6924 137.72 66.6924 137.47C66.6924 137.215 66.7604 137.036 66.8965 136.933C67.0361 136.829 67.2062 136.777 67.4067 136.777ZM72.2085 138.941C72.7384 138.941 73.1932 139.051 73.5728 139.269C73.9523 139.487 74.2441 139.797 74.4482 140.198C74.6523 140.599 74.7544 141.079 74.7544 141.638V142.314H70.7852C70.7995 142.891 70.9535 143.335 71.2471 143.646C71.5443 143.958 71.9596 144.114 72.4932 144.114C72.8727 144.114 73.2129 144.078 73.5137 144.006C73.818 143.931 74.1313 143.822 74.4536 143.679V144.705C74.1564 144.844 73.8538 144.946 73.5459 145.011C73.238 145.075 72.8691 145.107 72.4395 145.107C71.8558 145.107 71.342 144.995 70.8979 144.769C70.4575 144.54 70.112 144.2 69.8613 143.749C69.6143 143.297 69.4907 142.737 69.4907 142.067C69.4907 141.401 69.6035 140.836 69.8291 140.37C70.0547 139.905 70.3716 139.55 70.7798 139.307C71.188 139.063 71.6642 138.941 72.2085 138.941ZM72.2085 139.892C71.811 139.892 71.4888 140.021 71.2417 140.279C70.9982 140.537 70.855 140.914 70.812 141.412H73.519C73.5155 141.115 73.4653 140.852 73.3687 140.623C73.2756 140.393 73.1323 140.214 72.939 140.085C72.7492 139.957 72.5057 139.892 72.2085 139.892ZM77.4453 145H76.1777V136.643H77.4453V145ZM81.248 145.107C80.5391 145.107 79.9697 144.85 79.54 144.334C79.1139 143.815 78.9009 143.05 78.9009 142.041C78.9009 141.02 79.1175 140.248 79.5508 139.726C79.9876 139.203 80.5623 138.941 81.2749 138.941C81.5757 138.941 81.8389 138.983 82.0645 139.065C82.29 139.144 82.4834 139.251 82.6445 139.387C82.8092 139.523 82.9489 139.675 83.0635 139.844H83.1226C83.1047 139.733 83.0832 139.573 83.0581 139.366C83.0366 139.154 83.0259 138.959 83.0259 138.78V136.643H84.2935V145H83.3052L83.0796 144.189H83.0259C82.9185 144.361 82.7824 144.517 82.6177 144.656C82.4565 144.792 82.2632 144.902 82.0376 144.984C81.8156 145.066 81.5524 145.107 81.248 145.107ZM81.6025 144.082C82.1432 144.082 82.5246 143.926 82.7466 143.614C82.9686 143.303 83.0832 142.835 83.0903 142.212V142.046C83.0903 141.38 82.9829 140.87 82.7681 140.515C82.5532 140.157 82.1611 139.978 81.5918 139.978C81.137 139.978 80.7897 140.162 80.5498 140.531C80.3135 140.896 80.1953 141.407 80.1953 142.062C80.1953 142.717 80.3135 143.219 80.5498 143.566C80.7897 143.91 81.1406 144.082 81.6025 144.082ZM90.2285 145H88.9609V136.643H90.2285V145ZM94.3643 138.941C95.1162 138.941 95.6838 139.108 96.0669 139.441C96.4536 139.774 96.647 140.293 96.647 140.999V145H95.75L95.5083 144.157H95.4653C95.297 144.372 95.1234 144.549 94.9443 144.688C94.7653 144.828 94.5576 144.932 94.3213 145C94.0885 145.072 93.8039 145.107 93.4673 145.107C93.1128 145.107 92.7959 145.043 92.5166 144.914C92.2373 144.782 92.0171 144.581 91.856 144.312C91.6948 144.044 91.6143 143.704 91.6143 143.292C91.6143 142.68 91.8416 142.22 92.2964 141.912C92.7547 141.604 93.4458 141.434 94.3696 141.401L95.4009 141.364V141.052C95.4009 140.64 95.3042 140.347 95.1108 140.171C94.9211 139.996 94.6525 139.908 94.3052 139.908C94.008 139.908 93.7197 139.951 93.4404 140.037C93.1611 140.123 92.889 140.229 92.624 140.354L92.2158 139.462C92.5059 139.308 92.8353 139.183 93.2041 139.086C93.5765 138.99 93.9632 138.941 94.3643 138.941ZM95.3955 142.159L94.6274 142.186C93.9972 142.207 93.555 142.314 93.3008 142.508C93.0465 142.701 92.9194 142.966 92.9194 143.303C92.9194 143.596 93.0072 143.811 93.1826 143.947C93.3581 144.08 93.589 144.146 93.8755 144.146C94.3123 144.146 94.674 144.022 94.9604 143.775C95.2505 143.525 95.3955 143.158 95.3955 142.674V142.159ZM99.6763 136.643V138.657C99.6763 138.889 99.6691 139.119 99.6548 139.344C99.644 139.566 99.6333 139.74 99.6226 139.865H99.6763C99.8374 139.607 100.061 139.391 100.348 139.215C100.638 139.036 101.008 138.947 101.459 138.947C102.165 138.947 102.732 139.206 103.162 139.726C103.592 140.241 103.807 141.006 103.807 142.019C103.807 142.692 103.708 143.258 103.511 143.716C103.314 144.175 103.037 144.522 102.679 144.758C102.324 144.991 101.907 145.107 101.427 145.107C100.976 145.107 100.611 145.025 100.332 144.86C100.056 144.692 99.8392 144.497 99.6816 144.275H99.5903L99.3594 145H98.4141V136.643H99.6763ZM101.126 139.973C100.768 139.973 100.484 140.044 100.272 140.188C100.065 140.331 99.9144 140.546 99.8213 140.832C99.7282 141.115 99.6799 141.475 99.6763 141.912V142.024C99.6763 142.687 99.7801 143.194 99.9878 143.544C100.199 143.895 100.582 144.071 101.137 144.071C101.578 144.071 101.916 143.894 102.152 143.539C102.389 143.181 102.507 142.669 102.507 142.003C102.507 141.33 102.389 140.823 102.152 140.483C101.92 140.143 101.578 139.973 101.126 139.973ZM107.636 138.941C108.166 138.941 108.621 139.051 109 139.269C109.38 139.487 109.672 139.797 109.876 140.198C110.08 140.599 110.182 141.079 110.182 141.638V142.314H106.213C106.227 142.891 106.381 143.335 106.675 143.646C106.972 143.958 107.387 144.114 107.921 144.114C108.3 144.114 108.641 144.078 108.941 144.006C109.246 143.931 109.559 143.822 109.881 143.679V144.705C109.584 144.844 109.282 144.946 108.974 145.011C108.666 145.075 108.297 145.107 107.867 145.107C107.284 145.107 106.77 144.995 106.326 144.769C105.885 144.54 105.54 144.2 105.289 143.749C105.042 143.297 104.918 142.737 104.918 142.067C104.918 141.401 105.031 140.836 105.257 140.37C105.482 139.905 105.799 139.55 106.208 139.307C106.616 139.063 107.092 138.941 107.636 138.941ZM107.636 139.892C107.239 139.892 106.917 140.021 106.669 140.279C106.426 140.537 106.283 140.914 106.24 141.412H108.947C108.943 141.115 108.893 140.852 108.796 140.623C108.703 140.393 108.56 140.214 108.367 140.085C108.177 139.957 107.933 139.892 107.636 139.892ZM112.873 145H111.605V136.643H112.873V145Z" fill="#61656E"/>
<mask id="path-4-inside-1_2455_297696" fill="white">
<path d="M60 154H402.5V182H60V154Z"/>
</mask>
<path d="M60 154H402.5V182H60V154Z" fill="#EAEDEF"/>
<path d="M75.1543 164.434L72.0781 173H71.0762L68 164.434H69.043L71.0469 170.076C71.1289 170.303 71.2012 170.52 71.2637 170.727C71.3301 170.934 71.3887 171.133 71.4395 171.324C71.4902 171.516 71.5352 171.701 71.5742 171.881C71.6133 171.701 71.6582 171.516 71.709 171.324C71.7598 171.129 71.8184 170.928 71.8848 170.721C71.9512 170.51 72.0254 170.289 72.1074 170.059L74.0996 164.434H75.1543ZM78.5879 166.473C79.3535 166.473 79.9219 166.645 80.293 166.988C80.6641 167.332 80.8496 167.881 80.8496 168.635V173H80.1406L79.9531 172.051H79.9062C79.7266 172.285 79.5391 172.482 79.3438 172.643C79.1484 172.799 78.9219 172.918 78.6641 173C78.4102 173.078 78.0977 173.117 77.7266 173.117C77.3359 173.117 76.9883 173.049 76.6836 172.912C76.3828 172.775 76.1445 172.568 75.9688 172.291C75.7969 172.014 75.7109 171.662 75.7109 171.236C75.7109 170.596 75.9648 170.104 76.4727 169.76C76.9805 169.416 77.7539 169.229 78.793 169.197L79.9004 169.15V168.758C79.9004 168.203 79.7812 167.814 79.543 167.592C79.3047 167.369 78.9688 167.258 78.5352 167.258C78.1992 167.258 77.8789 167.307 77.5742 167.404C77.2695 167.502 76.9805 167.617 76.707 167.75L76.4082 167.012C76.6973 166.863 77.0293 166.736 77.4043 166.631C77.7793 166.525 78.1738 166.473 78.5879 166.473ZM79.8887 169.836L78.9102 169.877C78.1094 169.908 77.5449 170.039 77.2168 170.27C76.8887 170.5 76.7246 170.826 76.7246 171.248C76.7246 171.615 76.8359 171.887 77.0586 172.062C77.2812 172.238 77.5762 172.326 77.9434 172.326C78.5137 172.326 78.9805 172.168 79.3438 171.852C79.707 171.535 79.8887 171.061 79.8887 170.428V169.836ZM83.832 173H82.8535V163.883H83.832V173ZM91.1914 166.578V173H90.3945L90.2539 172.098H90.2012C90.0684 172.32 89.8965 172.508 89.6855 172.66C89.4746 172.812 89.2363 172.926 88.9707 173C88.709 173.078 88.4297 173.117 88.1328 173.117C87.625 173.117 87.1992 173.035 86.8555 172.871C86.5117 172.707 86.252 172.453 86.0762 172.109C85.9043 171.766 85.8184 171.324 85.8184 170.785V166.578H86.8027V170.715C86.8027 171.25 86.9238 171.65 87.166 171.916C87.4082 172.178 87.7773 172.309 88.2734 172.309C88.75 172.309 89.1289 172.219 89.4102 172.039C89.6953 171.859 89.9004 171.596 90.0254 171.248C90.1504 170.896 90.2129 170.467 90.2129 169.959V166.578H91.1914ZM95.7207 166.461C96.2676 166.461 96.7363 166.582 97.127 166.824C97.5176 167.066 97.8164 167.406 98.0234 167.844C98.2305 168.277 98.334 168.785 98.334 169.367V169.971H93.8984C93.9102 170.725 94.0977 171.299 94.4609 171.693C94.8242 172.088 95.3359 172.285 95.9961 172.285C96.4023 172.285 96.7617 172.248 97.0742 172.174C97.3867 172.1 97.7109 171.99 98.0469 171.846V172.701C97.7227 172.846 97.4004 172.951 97.0801 173.018C96.7637 173.084 96.3887 173.117 95.9551 173.117C95.3379 173.117 94.7988 172.992 94.3379 172.742C93.8809 172.488 93.5254 172.117 93.2715 171.629C93.0176 171.141 92.8906 170.543 92.8906 169.836C92.8906 169.145 93.0059 168.547 93.2363 168.043C93.4707 167.535 93.7988 167.145 94.2207 166.871C94.6465 166.598 95.1465 166.461 95.7207 166.461ZM95.709 167.258C95.1895 167.258 94.7754 167.428 94.4668 167.768C94.1582 168.107 93.9746 168.582 93.916 169.191H97.3145C97.3105 168.809 97.25 168.473 97.1328 168.184C97.0195 167.891 96.8457 167.664 96.6113 167.504C96.377 167.34 96.0762 167.258 95.709 167.258ZM105.178 172.32C105.338 172.32 105.502 172.307 105.67 172.279C105.838 172.252 105.975 172.219 106.08 172.18V172.936C105.967 172.986 105.809 173.029 105.605 173.064C105.406 173.1 105.211 173.117 105.02 173.117C104.68 173.117 104.371 173.059 104.094 172.941C103.816 172.82 103.594 172.617 103.426 172.332C103.262 172.047 103.18 171.652 103.18 171.148V167.34H102.266V166.865L103.186 166.484L103.572 165.09H104.158V166.578H106.039V167.34H104.158V171.119C104.158 171.521 104.25 171.822 104.434 172.021C104.621 172.221 104.869 172.32 105.178 172.32ZM109.854 166.461C110.4 166.461 110.869 166.582 111.26 166.824C111.65 167.066 111.949 167.406 112.156 167.844C112.363 168.277 112.467 168.785 112.467 169.367V169.971H108.031C108.043 170.725 108.23 171.299 108.594 171.693C108.957 172.088 109.469 172.285 110.129 172.285C110.535 172.285 110.895 172.248 111.207 172.174C111.52 172.1 111.844 171.99 112.18 171.846V172.701C111.855 172.846 111.533 172.951 111.213 173.018C110.896 173.084 110.521 173.117 110.088 173.117C109.471 173.117 108.932 172.992 108.471 172.742C108.014 172.488 107.658 172.117 107.404 171.629C107.15 171.141 107.023 170.543 107.023 169.836C107.023 169.145 107.139 168.547 107.369 168.043C107.604 167.535 107.932 167.145 108.354 166.871C108.779 166.598 109.279 166.461 109.854 166.461ZM109.842 167.258C109.322 167.258 108.908 167.428 108.6 167.768C108.291 168.107 108.107 168.582 108.049 169.191H111.447C111.443 168.809 111.383 168.473 111.266 168.184C111.152 167.891 110.979 167.664 110.744 167.504C110.51 167.34 110.209 167.258 109.842 167.258ZM115.648 169.713L113.428 166.578H114.541L116.234 169.051L117.922 166.578H119.023L116.803 169.713L119.146 173H118.033L116.234 170.381L114.424 173H113.322L115.648 169.713ZM122.475 172.32C122.635 172.32 122.799 172.307 122.967 172.279C123.135 172.252 123.271 172.219 123.377 172.18V172.936C123.264 172.986 123.105 173.029 122.902 173.064C122.703 173.1 122.508 173.117 122.316 173.117C121.977 173.117 121.668 173.059 121.391 172.941C121.113 172.82 120.891 172.617 120.723 172.332C120.559 172.047 120.477 171.652 120.477 171.148V167.34H119.562V166.865L120.482 166.484L120.869 165.09H121.455V166.578H123.336V167.34H121.455V171.119C121.455 171.521 121.547 171.822 121.73 172.021C121.918 172.221 122.166 172.32 122.475 172.32Z" fill="#161616"/>
<path fill-rule="evenodd" clip-rule="evenodd" d="M388.5 169.308L392.901 164.5L394 165.492L388.5 171.5L383 165.492L384.099 164.5L388.5 169.308Z" fill="#161616"/>
<path d="M402.5 181H60V183H402.5V181Z" fill="#61656E" mask="url(#path-4-inside-1_2455_297696)"/>
<path d="M60.4727 199L62.1323 191.147H63.04L62.3257 194.494H65.9136L66.6226 191.147H67.5142L65.8545 199H64.9575L65.7363 195.299H62.1538L61.375 199H60.4727ZM70.1567 199.107C69.7163 199.107 69.3368 199.02 69.0181 198.844C68.6994 198.665 68.4541 198.411 68.2822 198.082C68.1139 197.749 68.0298 197.351 68.0298 196.889C68.0298 196.413 68.0978 195.946 68.2339 195.487C68.3735 195.025 68.5723 194.608 68.8301 194.236C69.0879 193.86 69.3976 193.561 69.7593 193.339C70.1245 193.117 70.5327 193.006 70.9839 193.006C71.5246 193.006 71.9346 193.128 72.2139 193.371C72.4932 193.611 72.6328 193.942 72.6328 194.365C72.6328 194.662 72.563 194.936 72.4233 195.187C72.2873 195.437 72.076 195.656 71.7896 195.842C71.5067 196.024 71.1468 196.168 70.71 196.271C70.2767 196.372 69.7629 196.422 69.1685 196.422H68.9644C68.9572 196.486 68.95 196.558 68.9429 196.637C68.9393 196.715 68.9375 196.789 68.9375 196.857C68.9375 197.33 69.0521 197.7 69.2812 197.969C69.5104 198.234 69.8542 198.366 70.3125 198.366C70.5954 198.366 70.8621 198.327 71.1128 198.248C71.367 198.166 71.632 198.058 71.9077 197.926V198.694C71.6427 198.816 71.376 198.916 71.1074 198.995C70.8389 199.07 70.522 199.107 70.1567 199.107ZM69.0933 195.691H69.2222C69.6805 195.691 70.1012 195.652 70.4844 195.573C70.8675 195.491 71.1755 195.358 71.4082 195.176C71.641 194.99 71.7573 194.743 71.7573 194.435C71.7573 194.234 71.6893 194.069 71.5532 193.94C71.4172 193.812 71.2095 193.747 70.9302 193.747C70.6831 193.747 70.4396 193.824 70.1997 193.978C69.9598 194.128 69.7414 194.349 69.5444 194.639C69.3511 194.929 69.2007 195.28 69.0933 195.691ZM73.2666 199L75.0498 190.643H75.9414L74.1636 199H73.2666ZM75.5117 201.632L77.311 193.113H78.0415L77.8965 194.257H77.9341C78.1024 194.035 78.2868 193.831 78.4873 193.645C78.6914 193.455 78.9134 193.303 79.1533 193.188C79.3968 193.074 79.6618 193.017 79.9482 193.017C80.2705 193.017 80.5516 193.094 80.7915 193.248C81.0314 193.398 81.2176 193.624 81.3501 193.924C81.4862 194.222 81.5542 194.592 81.5542 195.036C81.5542 195.459 81.5112 195.87 81.4253 196.271C81.3429 196.669 81.2212 197.04 81.0601 197.383C80.8989 197.723 80.7002 198.024 80.4639 198.286C80.2311 198.543 79.9644 198.746 79.6636 198.893C79.3628 199.036 79.0316 199.107 78.6699 199.107C78.3942 199.107 78.1561 199.059 77.9556 198.962C77.7586 198.862 77.5921 198.731 77.4561 198.57C77.3236 198.409 77.2179 198.236 77.1392 198.049H77.0908C77.0765 198.182 77.0532 198.355 77.021 198.57C76.9924 198.782 76.9619 198.959 76.9297 199.102L76.3926 201.632H75.5117ZM78.6055 198.366C78.8561 198.366 79.0853 198.304 79.293 198.178C79.5042 198.053 79.6922 197.883 79.8569 197.668C80.0252 197.45 80.1667 197.197 80.2812 196.911C80.3994 196.624 80.4889 196.32 80.5498 195.998C80.6107 195.675 80.6411 195.348 80.6411 195.015C80.6411 194.599 80.557 194.286 80.3887 194.075C80.224 193.863 79.9769 193.758 79.6475 193.758C79.4756 193.758 79.3019 193.801 79.1265 193.887C78.951 193.969 78.7809 194.087 78.6162 194.241C78.4515 194.392 78.2975 194.571 78.1543 194.778C78.0111 194.986 77.8857 195.215 77.7783 195.466C77.6745 195.716 77.5921 195.981 77.5312 196.261C77.4704 196.54 77.4399 196.826 77.4399 197.12C77.4399 197.496 77.5348 197.799 77.7246 198.028C77.918 198.253 78.2116 198.366 78.6055 198.366ZM84.7769 199.107C84.3364 199.107 83.9569 199.02 83.6382 198.844C83.3195 198.665 83.0742 198.411 82.9023 198.082C82.734 197.749 82.6499 197.351 82.6499 196.889C82.6499 196.413 82.7179 195.946 82.854 195.487C82.9937 195.025 83.1924 194.608 83.4502 194.236C83.708 193.86 84.0177 193.561 84.3794 193.339C84.7446 193.117 85.1528 193.006 85.604 193.006C86.1447 193.006 86.5547 193.128 86.834 193.371C87.1133 193.611 87.2529 193.942 87.2529 194.365C87.2529 194.662 87.1831 194.936 87.0435 195.187C86.9074 195.437 86.6961 195.656 86.4097 195.842C86.1268 196.024 85.7669 196.168 85.3301 196.271C84.8968 196.372 84.383 196.422 83.7886 196.422H83.5845C83.5773 196.486 83.5701 196.558 83.563 196.637C83.5594 196.715 83.5576 196.789 83.5576 196.857C83.5576 197.33 83.6722 197.7 83.9014 197.969C84.1305 198.234 84.4743 198.366 84.9326 198.366C85.2155 198.366 85.4823 198.327 85.7329 198.248C85.9871 198.166 86.2521 198.058 86.5278 197.926V198.694C86.2629 198.816 85.9961 198.916 85.7275 198.995C85.459 199.07 85.1421 199.107 84.7769 199.107ZM83.7134 195.691H83.8423C84.3006 195.691 84.7214 195.652 85.1045 195.573C85.4876 195.491 85.7956 195.358 86.0283 195.176C86.2611 194.99 86.3774 194.743 86.3774 194.435C86.3774 194.234 86.3094 194.069 86.1733 193.94C86.0373 193.812 85.8296 193.747 85.5503 193.747C85.3032 193.747 85.0597 193.824 84.8198 193.978C84.5799 194.128 84.3615 194.349 84.1646 194.639C83.9712 194.929 83.8208 195.28 83.7134 195.691ZM87.8975 199L89.1489 193.113H89.8794L89.7397 194.252H89.7935C89.9438 194.048 90.105 193.851 90.2769 193.661C90.4487 193.468 90.6439 193.31 90.8623 193.188C91.0843 193.067 91.3385 193.006 91.625 193.006C91.7324 193.006 91.8416 193.013 91.9526 193.027C92.0636 193.038 92.1675 193.058 92.2642 193.086L92.0708 193.887C91.9741 193.865 91.8792 193.849 91.7861 193.838C91.6966 193.828 91.6035 193.822 91.5068 193.822C91.2347 193.822 90.9823 193.894 90.7495 194.037C90.5168 194.177 90.3073 194.365 90.1211 194.601C89.9385 194.837 89.7827 195.101 89.6538 195.391C89.5285 195.681 89.4336 195.976 89.3691 196.277L88.7944 199H87.8975ZM96.7812 199.107C96.391 199.107 96.0651 199.014 95.8037 198.828C95.5459 198.638 95.417 198.314 95.417 197.856C95.417 197.745 95.4242 197.625 95.4385 197.496C95.4528 197.364 95.4761 197.228 95.5083 197.088L96.2012 193.795H95.2935L95.3794 193.382L96.3569 193.006L97.0015 191.76H97.5332L97.2378 193.113H98.7524L98.6128 193.795H97.1035L96.4053 197.099C96.3802 197.199 96.3569 197.306 96.3354 197.421C96.3175 197.535 96.3086 197.645 96.3086 197.749C96.3086 197.928 96.3551 198.078 96.4482 198.2C96.5413 198.318 96.6971 198.377 96.9155 198.377C97.0516 198.377 97.1805 198.364 97.3022 198.339C97.4276 198.314 97.5601 198.278 97.6997 198.232V198.919C97.6102 198.962 97.4741 199.004 97.2915 199.043C97.1125 199.086 96.9424 199.107 96.7812 199.107ZM101.094 199.107C100.654 199.107 100.274 199.02 99.9556 198.844C99.6369 198.665 99.3916 198.411 99.2197 198.082C99.0514 197.749 98.9673 197.351 98.9673 196.889C98.9673 196.413 99.0353 195.946 99.1714 195.487C99.311 195.025 99.5098 194.608 99.7676 194.236C100.025 193.86 100.335 193.561 100.697 193.339C101.062 193.117 101.47 193.006 101.921 193.006C102.462 193.006 102.872 193.128 103.151 193.371C103.431 193.611 103.57 193.942 103.57 194.365C103.57 194.662 103.5 194.936 103.361 195.187C103.225 195.437 103.014 195.656 102.727 195.842C102.444 196.024 102.084 196.168 101.647 196.271C101.214 196.372 100.7 196.422 100.106 196.422H99.9019C99.8947 196.486 99.8875 196.558 99.8804 196.637C99.8768 196.715 99.875 196.789 99.875 196.857C99.875 197.33 99.9896 197.7 100.219 197.969C100.448 198.234 100.792 198.366 101.25 198.366C101.533 198.366 101.8 198.327 102.05 198.248C102.305 198.166 102.569 198.058 102.845 197.926V198.694C102.58 198.816 102.313 198.916 102.045 198.995C101.776 199.07 101.459 199.107 101.094 199.107ZM100.031 195.691H100.16C100.618 195.691 101.039 195.652 101.422 195.573C101.805 195.491 102.113 195.358 102.346 195.176C102.578 194.99 102.695 194.743 102.695 194.435C102.695 194.234 102.627 194.069 102.491 193.94C102.355 193.812 102.147 193.747 101.868 193.747C101.621 193.747 101.377 193.824 101.137 193.978C100.897 194.128 100.679 194.349 100.482 194.639C100.289 194.929 100.138 195.28 100.031 195.691ZM103.5 199L106.062 195.971L104.784 193.113H105.687L106.632 195.337L108.426 193.113H109.462L107.002 196.008L108.367 199H107.454L106.422 196.658L104.537 199H103.5ZM111.176 199.107C110.785 199.107 110.46 199.014 110.198 198.828C109.94 198.638 109.812 198.314 109.812 197.856C109.812 197.745 109.819 197.625 109.833 197.496C109.847 197.364 109.871 197.228 109.903 197.088L110.596 193.795H109.688L109.774 193.382L110.751 193.006L111.396 191.76H111.928L111.632 193.113H113.147L113.007 193.795H111.498L110.8 197.099C110.775 197.199 110.751 197.306 110.73 197.421C110.712 197.535 110.703 197.645 110.703 197.749C110.703 197.928 110.75 198.078 110.843 198.2C110.936 198.318 111.092 198.377 111.31 198.377C111.446 198.377 111.575 198.364 111.697 198.339C111.822 198.314 111.955 198.278 112.094 198.232V198.919C112.005 198.962 111.869 199.004 111.686 199.043C111.507 199.086 111.337 199.107 111.176 199.107Z" fill="#61656E"/>
<rect width="390.5" height="190" transform="translate(462.5 36)" fill="#242526"/>
<path d="M498.321 79H496.221V73.1992H490.297V79H488.188V66.1504H490.297V71.4062H496.221V66.1504H498.321V79ZM505.388 69.0859C506.255 69.0859 506.999 69.2646 507.62 69.6221C508.241 69.9795 508.719 70.4863 509.053 71.1426C509.387 71.7988 509.554 72.584 509.554 73.498V74.6055H503.059C503.082 75.5488 503.334 76.2754 503.814 76.7852C504.301 77.2949 504.98 77.5498 505.854 77.5498C506.475 77.5498 507.031 77.4912 507.523 77.374C508.021 77.251 508.534 77.0723 509.062 76.8379V78.5166C508.575 78.7451 508.08 78.9121 507.576 79.0176C507.072 79.123 506.469 79.1758 505.766 79.1758C504.811 79.1758 503.97 78.9912 503.243 78.6221C502.522 78.2471 501.957 77.6904 501.547 76.9521C501.143 76.2139 500.94 75.2969 500.94 74.2012C500.94 73.1113 501.125 72.1855 501.494 71.4238C501.863 70.6621 502.382 70.082 503.05 69.6836C503.718 69.2852 504.497 69.0859 505.388 69.0859ZM505.388 70.6416C504.737 70.6416 504.21 70.8525 503.806 71.2744C503.407 71.6963 503.173 72.3145 503.103 73.1289H507.532C507.526 72.6426 507.444 72.2119 507.286 71.8369C507.134 71.4619 506.899 71.1689 506.583 70.958C506.272 70.7471 505.874 70.6416 505.388 70.6416ZM515.697 69.0859C516.928 69.0859 517.856 69.3584 518.483 69.9033C519.116 70.4482 519.433 71.2979 519.433 72.4521V79H517.965L517.569 77.6201H517.499C517.224 77.9717 516.939 78.2617 516.646 78.4902C516.354 78.7188 516.014 78.8887 515.627 79C515.246 79.1172 514.78 79.1758 514.229 79.1758C513.649 79.1758 513.131 79.0703 512.674 78.8594C512.217 78.6426 511.856 78.3145 511.593 77.875C511.329 77.4355 511.197 76.8789 511.197 76.2051C511.197 75.2031 511.569 74.4502 512.313 73.9463C513.063 73.4424 514.194 73.1641 515.706 73.1113L517.394 73.0498V72.54C517.394 71.8662 517.235 71.3857 516.919 71.0986C516.608 70.8115 516.169 70.668 515.601 70.668C515.114 70.668 514.643 70.7383 514.186 70.8789C513.729 71.0195 513.283 71.1924 512.85 71.3975L512.182 69.9385C512.656 69.6865 513.195 69.4814 513.799 69.3232C514.408 69.165 515.041 69.0859 515.697 69.0859ZM517.385 74.3506L516.128 74.3945C515.097 74.4297 514.373 74.6055 513.957 74.9219C513.541 75.2383 513.333 75.6719 513.333 76.2227C513.333 76.7031 513.477 77.0547 513.764 77.2773C514.051 77.4941 514.429 77.6025 514.897 77.6025C515.612 77.6025 516.204 77.4004 516.673 76.9961C517.147 76.5859 517.385 75.9854 517.385 75.1943V74.3506ZM525.594 79.1758C524.434 79.1758 523.502 78.7539 522.799 77.9102C522.102 77.0605 521.753 75.8096 521.753 74.1572C521.753 72.4873 522.107 71.2246 522.816 70.3691C523.531 69.5137 524.472 69.0859 525.638 69.0859C526.13 69.0859 526.561 69.1533 526.93 69.2881C527.299 69.417 527.615 69.5928 527.879 69.8154C528.148 70.0381 528.377 70.2871 528.564 70.5625H528.661C528.632 70.3809 528.597 70.1201 528.556 69.7803C528.521 69.4346 528.503 69.1152 528.503 68.8223V65.3242H530.577V79H528.96L528.591 77.6729H528.503C528.327 77.9541 528.104 78.209 527.835 78.4375C527.571 78.6602 527.255 78.8389 526.886 78.9736C526.522 79.1084 526.092 79.1758 525.594 79.1758ZM526.174 77.4971C527.059 77.4971 527.683 77.2422 528.046 76.7324C528.409 76.2227 528.597 75.458 528.608 74.4385V74.166C528.608 73.0762 528.433 72.2412 528.081 71.6611C527.729 71.0752 527.088 70.7822 526.156 70.7822C525.412 70.7822 524.844 71.084 524.451 71.6875C524.064 72.2852 523.871 73.1201 523.871 74.1924C523.871 75.2646 524.064 76.085 524.451 76.6533C524.844 77.2158 525.418 77.4971 526.174 77.4971ZM537.415 69.0859C538.282 69.0859 539.026 69.2646 539.647 69.6221C540.269 69.9795 540.746 70.4863 541.08 71.1426C541.414 71.7988 541.581 72.584 541.581 73.498V74.6055H535.086C535.109 75.5488 535.361 76.2754 535.842 76.7852C536.328 77.2949 537.008 77.5498 537.881 77.5498C538.502 77.5498 539.059 77.4912 539.551 77.374C540.049 77.251 540.562 77.0723 541.089 76.8379V78.5166C540.603 78.7451 540.107 78.9121 539.604 79.0176C539.1 79.123 538.496 79.1758 537.793 79.1758C536.838 79.1758 535.997 78.9912 535.271 78.6221C534.55 78.2471 533.984 77.6904 533.574 76.9521C533.17 76.2139 532.968 75.2969 532.968 74.2012C532.968 73.1113 533.152 72.1855 533.521 71.4238C533.891 70.6621 534.409 70.082 535.077 69.6836C535.745 69.2852 536.524 69.0859 537.415 69.0859ZM537.415 70.6416C536.765 70.6416 536.237 70.8525 535.833 71.2744C535.435 71.6963 535.2 72.3145 535.13 73.1289H539.56C539.554 72.6426 539.472 72.2119 539.313 71.8369C539.161 71.4619 538.927 71.1689 538.61 70.958C538.3 70.7471 537.901 70.6416 537.415 70.6416ZM548.841 69.0859C549.005 69.0859 549.184 69.0947 549.377 69.1123C549.57 69.1299 549.737 69.1533 549.878 69.1826L549.685 71.1162C549.562 71.0811 549.409 71.0547 549.228 71.0371C549.052 71.0195 548.894 71.0107 548.753 71.0107C548.384 71.0107 548.032 71.0723 547.698 71.1953C547.364 71.3125 547.068 71.4941 546.811 71.7402C546.553 71.9805 546.351 72.2822 546.204 72.6455C546.058 73.0088 545.984 73.4307 545.984 73.9111V79H543.91V69.2705H545.527L545.809 70.9844H545.905C546.099 70.6387 546.339 70.3223 546.626 70.0352C546.913 69.748 547.241 69.5195 547.61 69.3496C547.985 69.1738 548.396 69.0859 548.841 69.0859Z" fill="white"/>
<path d="M495.804 100.907C495.804 102.033 495.599 102.974 495.188 103.73C494.778 104.482 494.184 105.05 493.404 105.433C492.63 105.811 491.688 106 490.581 106H487.867V96.0059H490.882C491.898 96.0059 492.773 96.1927 493.507 96.5664C494.241 96.9355 494.806 97.4847 495.202 98.2139C495.603 98.9385 495.804 99.8363 495.804 100.907ZM494.58 100.948C494.58 100.05 494.43 99.3099 494.129 98.7266C493.833 98.1432 493.395 97.7103 492.816 97.4277C492.242 97.1406 491.538 96.9971 490.704 96.9971H489.029V105.002H490.444C491.821 105.002 492.853 104.662 493.541 103.983C494.234 103.304 494.58 102.293 494.58 100.948ZM500.739 98.3711C501.377 98.3711 501.924 98.5124 502.38 98.7949C502.836 99.0775 503.184 99.474 503.426 99.9844C503.667 100.49 503.788 101.083 503.788 101.762V102.466H498.613C498.627 103.345 498.846 104.015 499.27 104.476C499.693 104.936 500.29 105.166 501.061 105.166C501.535 105.166 501.954 105.123 502.318 105.036C502.683 104.95 503.061 104.822 503.453 104.653V105.651C503.075 105.82 502.699 105.943 502.325 106.021C501.956 106.098 501.519 106.137 501.013 106.137C500.293 106.137 499.664 105.991 499.126 105.699C498.593 105.403 498.178 104.97 497.882 104.4C497.586 103.831 497.438 103.133 497.438 102.309C497.438 101.502 497.572 100.805 497.841 100.217C498.114 99.6243 498.497 99.1686 498.989 98.8496C499.486 98.5306 500.069 98.3711 500.739 98.3711ZM500.726 99.3008C500.119 99.3008 499.636 99.499 499.276 99.8955C498.916 100.292 498.702 100.846 498.634 101.557H502.599C502.594 101.11 502.523 100.718 502.387 100.381C502.255 100.039 502.052 99.7747 501.778 99.5879C501.505 99.3965 501.154 99.3008 500.726 99.3008ZM510.562 103.949C510.562 104.428 510.442 104.831 510.2 105.159C509.963 105.483 509.621 105.727 509.175 105.891C508.733 106.055 508.204 106.137 507.589 106.137C507.065 106.137 506.611 106.096 506.229 106.014C505.846 105.932 505.511 105.815 505.224 105.665V104.619C505.529 104.77 505.894 104.906 506.317 105.029C506.741 105.152 507.174 105.214 507.616 105.214C508.263 105.214 508.733 105.109 509.024 104.899C509.316 104.69 509.462 104.405 509.462 104.045C509.462 103.84 509.403 103.66 509.284 103.505C509.17 103.345 508.977 103.193 508.703 103.047C508.43 102.896 508.051 102.732 507.568 102.555C507.09 102.372 506.675 102.192 506.324 102.015C505.978 101.832 505.709 101.611 505.518 101.352C505.331 101.092 505.237 100.755 505.237 100.34C505.237 99.7064 505.493 99.221 506.003 98.8838C506.518 98.542 507.192 98.3711 508.026 98.3711C508.478 98.3711 508.899 98.4167 509.291 98.5078C509.688 98.5944 510.057 98.7129 510.398 98.8633L510.016 99.7725C509.706 99.6403 509.375 99.5286 509.024 99.4375C508.674 99.3464 508.316 99.3008 507.951 99.3008C507.427 99.3008 507.024 99.3874 506.741 99.5605C506.463 99.7337 506.324 99.9707 506.324 100.271C506.324 100.504 506.388 100.695 506.516 100.846C506.648 100.996 506.857 101.137 507.145 101.27C507.432 101.402 507.81 101.557 508.279 101.734C508.749 101.908 509.154 102.088 509.496 102.274C509.838 102.457 510.1 102.68 510.282 102.944C510.469 103.204 510.562 103.539 510.562 103.949ZM515.389 106.137C514.714 106.137 514.119 105.998 513.604 105.72C513.09 105.442 512.688 105.018 512.401 104.448C512.114 103.879 511.971 103.161 511.971 102.295C511.971 101.388 512.121 100.647 512.422 100.073C512.727 99.4945 513.146 99.0661 513.68 98.7881C514.213 98.5101 514.819 98.3711 515.498 98.3711C515.872 98.3711 516.232 98.4098 516.578 98.4873C516.929 98.5602 517.216 98.6536 517.439 98.7676L517.098 99.7178C516.87 99.6266 516.605 99.5446 516.305 99.4717C516.008 99.3988 515.73 99.3623 515.471 99.3623C514.951 99.3623 514.518 99.474 514.172 99.6973C513.83 99.9206 513.573 100.249 513.399 100.682C513.231 101.115 513.146 101.648 513.146 102.281C513.146 102.887 513.229 103.405 513.393 103.833C513.561 104.261 513.81 104.59 514.138 104.817C514.47 105.041 514.885 105.152 515.382 105.152C515.778 105.152 516.136 105.111 516.455 105.029C516.774 104.943 517.063 104.842 517.323 104.729V105.74C517.073 105.868 516.792 105.966 516.482 106.034C516.177 106.103 515.812 106.137 515.389 106.137ZM522.505 98.3711C522.655 98.3711 522.812 98.3802 522.977 98.3984C523.141 98.4121 523.286 98.4326 523.414 98.46L523.271 99.5127C523.147 99.4808 523.011 99.4557 522.86 99.4375C522.71 99.4193 522.569 99.4102 522.437 99.4102C522.136 99.4102 521.851 99.4717 521.582 99.5947C521.318 99.7132 521.085 99.8864 520.885 100.114C520.684 100.338 520.527 100.609 520.413 100.928C520.299 101.242 520.242 101.593 520.242 101.98V106H519.101V98.5078H520.044L520.167 99.8887H520.215C520.37 99.6107 520.557 99.3577 520.775 99.1299C520.994 98.8975 521.247 98.7129 521.534 98.5762C521.826 98.4395 522.149 98.3711 522.505 98.3711ZM525.964 98.5078V106H524.829V98.5078H525.964ZM525.41 95.7051C525.597 95.7051 525.757 95.7666 525.889 95.8896C526.025 96.0081 526.094 96.195 526.094 96.4502C526.094 96.7008 526.025 96.8877 525.889 97.0107C525.757 97.1338 525.597 97.1953 525.41 97.1953C525.214 97.1953 525.05 97.1338 524.918 97.0107C524.79 96.8877 524.727 96.7008 524.727 96.4502C524.727 96.195 524.79 96.0081 524.918 95.8896C525.05 95.7666 525.214 95.7051 525.41 95.7051ZM531.891 98.3711C532.825 98.3711 533.57 98.6924 534.126 99.335C534.682 99.9775 534.96 100.944 534.96 102.233C534.96 103.086 534.832 103.801 534.577 104.38C534.322 104.959 533.962 105.396 533.497 105.692C533.037 105.989 532.492 106.137 531.863 106.137C531.467 106.137 531.118 106.084 530.817 105.979C530.517 105.875 530.259 105.733 530.045 105.556C529.831 105.378 529.653 105.184 529.512 104.975H529.43C529.443 105.152 529.459 105.367 529.478 105.617C529.5 105.868 529.512 106.087 529.512 106.273V109.35H528.37V98.5078H529.307L529.457 99.6152H529.512C529.658 99.3874 529.835 99.18 530.045 98.9932C530.255 98.8018 530.51 98.6514 530.811 98.542C531.116 98.4281 531.476 98.3711 531.891 98.3711ZM531.692 99.3281C531.173 99.3281 530.754 99.4284 530.435 99.6289C530.12 99.8294 529.89 100.13 529.744 100.531C529.598 100.928 529.521 101.427 529.512 102.028V102.247C529.512 102.881 529.58 103.416 529.717 103.854C529.858 104.291 530.088 104.624 530.407 104.852C530.731 105.079 531.164 105.193 531.706 105.193C532.171 105.193 532.558 105.068 532.868 104.817C533.178 104.567 533.408 104.218 533.559 103.771C533.714 103.32 533.791 102.803 533.791 102.22C533.791 101.336 533.618 100.634 533.271 100.114C532.93 99.5902 532.403 99.3281 531.692 99.3281ZM539.362 105.207C539.549 105.207 539.741 105.191 539.937 105.159C540.132 105.127 540.292 105.089 540.415 105.043V105.925C540.283 105.984 540.098 106.034 539.861 106.075C539.629 106.116 539.401 106.137 539.178 106.137C538.781 106.137 538.421 106.068 538.098 105.932C537.774 105.79 537.514 105.553 537.318 105.221C537.127 104.888 537.031 104.428 537.031 103.84V99.3965H535.965V98.8428L537.038 98.3984L537.489 96.7715H538.173V98.5078H540.367V99.3965H538.173V103.806C538.173 104.275 538.28 104.626 538.494 104.858C538.713 105.091 539.002 105.207 539.362 105.207ZM543.067 98.5078V106H541.933V98.5078H543.067ZM542.514 95.7051C542.701 95.7051 542.86 95.7666 542.992 95.8896C543.129 96.0081 543.197 96.195 543.197 96.4502C543.197 96.7008 543.129 96.8877 542.992 97.0107C542.86 97.1338 542.701 97.1953 542.514 97.1953C542.318 97.1953 542.154 97.1338 542.021 97.0107C541.894 96.8877 541.83 96.7008 541.83 96.4502C541.83 96.195 541.894 96.0081 542.021 95.8896C542.154 95.7666 542.318 95.7051 542.514 95.7051ZM547.121 106L544.277 98.5078H545.494L547.142 103.04C547.256 103.35 547.372 103.692 547.49 104.065C547.609 104.439 547.691 104.74 547.736 104.968H547.784C547.839 104.74 547.93 104.439 548.058 104.065C548.185 103.687 548.301 103.345 548.406 103.04L550.054 98.5078H551.271L548.42 106H547.121ZM555.358 98.3711C555.996 98.3711 556.543 98.5124 556.999 98.7949C557.455 99.0775 557.803 99.474 558.045 99.9844C558.286 100.49 558.407 101.083 558.407 101.762V102.466H553.232C553.246 103.345 553.465 104.015 553.889 104.476C554.312 104.936 554.91 105.166 555.68 105.166C556.154 105.166 556.573 105.123 556.938 105.036C557.302 104.95 557.68 104.822 558.072 104.653V105.651C557.694 105.82 557.318 105.943 556.944 106.021C556.575 106.098 556.138 106.137 555.632 106.137C554.912 106.137 554.283 105.991 553.745 105.699C553.212 105.403 552.797 104.97 552.501 104.4C552.205 103.831 552.057 103.133 552.057 102.309C552.057 101.502 552.191 100.805 552.46 100.217C552.733 99.6243 553.116 99.1686 553.608 98.8496C554.105 98.5306 554.688 98.3711 555.358 98.3711ZM555.345 99.3008C554.739 99.3008 554.256 99.499 553.896 99.8955C553.535 100.292 553.321 100.846 553.253 101.557H557.218C557.213 101.11 557.143 100.718 557.006 100.381C556.874 100.039 556.671 99.7747 556.397 99.5879C556.124 99.3965 555.773 99.3008 555.345 99.3008ZM566.392 105.207C566.578 105.207 566.77 105.191 566.966 105.159C567.162 105.127 567.321 105.089 567.444 105.043V105.925C567.312 105.984 567.128 106.034 566.891 106.075C566.658 106.116 566.43 106.137 566.207 106.137C565.811 106.137 565.451 106.068 565.127 105.932C564.803 105.79 564.544 105.553 564.348 105.221C564.156 104.888 564.061 104.428 564.061 103.84V99.3965H562.994V98.8428L564.067 98.3984L564.519 96.7715H565.202V98.5078H567.396V99.3965H565.202V103.806C565.202 104.275 565.309 104.626 565.523 104.858C565.742 105.091 566.032 105.207 566.392 105.207ZM571.847 98.3711C572.485 98.3711 573.032 98.5124 573.487 98.7949C573.943 99.0775 574.292 99.474 574.533 99.9844C574.775 100.49 574.896 101.083 574.896 101.762V102.466H569.721C569.734 103.345 569.953 104.015 570.377 104.476C570.801 104.936 571.398 105.166 572.168 105.166C572.642 105.166 573.061 105.123 573.426 105.036C573.79 104.95 574.169 104.822 574.561 104.653V105.651C574.182 105.82 573.806 105.943 573.433 106.021C573.063 106.098 572.626 106.137 572.12 106.137C571.4 106.137 570.771 105.991 570.233 105.699C569.7 105.403 569.285 104.97 568.989 104.4C568.693 103.831 568.545 103.133 568.545 102.309C568.545 101.502 568.679 100.805 568.948 100.217C569.222 99.6243 569.604 99.1686 570.097 98.8496C570.593 98.5306 571.177 98.3711 571.847 98.3711ZM571.833 99.3008C571.227 99.3008 570.744 99.499 570.384 99.8955C570.024 100.292 569.81 100.846 569.741 101.557H573.706C573.701 101.11 573.631 100.718 573.494 100.381C573.362 100.039 573.159 99.7747 572.886 99.5879C572.612 99.3965 572.261 99.3008 571.833 99.3008ZM578.607 102.165L576.017 98.5078H577.315L579.291 101.393L581.26 98.5078H582.545L579.954 102.165L582.688 106H581.39L579.291 102.944L577.179 106H575.894L578.607 102.165ZM586.571 105.207C586.758 105.207 586.95 105.191 587.146 105.159C587.341 105.127 587.501 105.089 587.624 105.043V105.925C587.492 105.984 587.307 106.034 587.07 106.075C586.838 106.116 586.61 106.137 586.387 106.137C585.99 106.137 585.63 106.068 585.307 105.932C584.983 105.79 584.723 105.553 584.527 105.221C584.336 104.888 584.24 104.428 584.24 103.84V99.3965H583.174V98.8428L584.247 98.3984L584.698 96.7715H585.382V98.5078H587.576V99.3965H585.382V103.806C585.382 104.275 585.489 104.626 585.703 104.858C585.922 105.091 586.211 105.207 586.571 105.207Z" fill="white"/>
<path d="M488.81 145H487.531V137.147H491.968V138.232H488.81V140.682H491.764V141.761H488.81V145ZM494.53 139.054V145H493.268V139.054H494.53ZM493.907 136.777C494.1 136.777 494.267 136.829 494.406 136.933C494.549 137.036 494.621 137.215 494.621 137.47C494.621 137.72 494.549 137.899 494.406 138.007C494.267 138.111 494.1 138.163 493.907 138.163C493.706 138.163 493.536 138.111 493.396 138.007C493.26 137.899 493.192 137.72 493.192 137.47C493.192 137.215 493.26 137.036 493.396 136.933C493.536 136.829 493.706 136.777 493.907 136.777ZM498.708 138.941C499.238 138.941 499.693 139.051 500.073 139.269C500.452 139.487 500.744 139.797 500.948 140.198C501.152 140.599 501.254 141.079 501.254 141.638V142.314H497.285C497.299 142.891 497.453 143.335 497.747 143.646C498.044 143.958 498.46 144.114 498.993 144.114C499.373 144.114 499.713 144.078 500.014 144.006C500.318 143.931 500.631 143.822 500.954 143.679V144.705C500.656 144.844 500.354 144.946 500.046 145.011C499.738 145.075 499.369 145.107 498.939 145.107C498.356 145.107 497.842 144.995 497.398 144.769C496.958 144.54 496.612 144.2 496.361 143.749C496.114 143.297 495.991 142.737 495.991 142.067C495.991 141.401 496.104 140.836 496.329 140.37C496.555 139.905 496.872 139.55 497.28 139.307C497.688 139.063 498.164 138.941 498.708 138.941ZM498.708 139.892C498.311 139.892 497.989 140.021 497.742 140.279C497.498 140.537 497.355 140.914 497.312 141.412H500.019C500.015 141.115 499.965 140.852 499.869 140.623C499.776 140.393 499.632 140.214 499.439 140.085C499.249 139.957 499.006 139.892 498.708 139.892ZM503.945 145H502.678V136.643H503.945V145ZM507.748 145.107C507.039 145.107 506.47 144.85 506.04 144.334C505.614 143.815 505.401 143.05 505.401 142.041C505.401 141.02 505.618 140.248 506.051 139.726C506.488 139.203 507.062 138.941 507.775 138.941C508.076 138.941 508.339 138.983 508.564 139.065C508.79 139.144 508.983 139.251 509.145 139.387C509.309 139.523 509.449 139.675 509.563 139.844H509.623C509.605 139.733 509.583 139.573 509.558 139.366C509.537 139.154 509.526 138.959 509.526 138.78V136.643H510.793V145H509.805L509.58 144.189H509.526C509.418 144.361 509.282 144.517 509.118 144.656C508.957 144.792 508.763 144.902 508.538 144.984C508.316 145.066 508.052 145.107 507.748 145.107ZM508.103 144.082C508.643 144.082 509.025 143.926 509.247 143.614C509.469 143.303 509.583 142.835 509.59 142.212V142.046C509.59 141.38 509.483 140.87 509.268 140.515C509.053 140.157 508.661 139.978 508.092 139.978C507.637 139.978 507.29 140.162 507.05 140.531C506.813 140.896 506.695 141.407 506.695 142.062C506.695 142.717 506.813 143.219 507.05 143.566C507.29 143.91 507.641 144.082 508.103 144.082ZM516.729 145H515.461V136.643H516.729V145ZM520.864 138.941C521.616 138.941 522.184 139.108 522.567 139.441C522.954 139.774 523.147 140.293 523.147 140.999V145H522.25L522.008 144.157H521.965C521.797 144.372 521.623 144.549 521.444 144.688C521.265 144.828 521.058 144.932 520.821 145C520.589 145.072 520.304 145.107 519.967 145.107C519.613 145.107 519.296 145.043 519.017 144.914C518.737 144.782 518.517 144.581 518.356 144.312C518.195 144.044 518.114 143.704 518.114 143.292C518.114 142.68 518.342 142.22 518.796 141.912C519.255 141.604 519.946 141.434 520.87 141.401L521.901 141.364V141.052C521.901 140.64 521.804 140.347 521.611 140.171C521.421 139.996 521.153 139.908 520.805 139.908C520.508 139.908 520.22 139.951 519.94 140.037C519.661 140.123 519.389 140.229 519.124 140.354L518.716 139.462C519.006 139.308 519.335 139.183 519.704 139.086C520.076 138.99 520.463 138.941 520.864 138.941ZM521.896 142.159L521.127 142.186C520.497 142.207 520.055 142.314 519.801 142.508C519.547 142.701 519.419 142.966 519.419 143.303C519.419 143.596 519.507 143.811 519.683 143.947C519.858 144.08 520.089 144.146 520.375 144.146C520.812 144.146 521.174 144.022 521.46 143.775C521.75 143.525 521.896 143.158 521.896 142.674V142.159ZM526.176 136.643V138.657C526.176 138.889 526.169 139.119 526.155 139.344C526.144 139.566 526.133 139.74 526.123 139.865H526.176C526.337 139.607 526.561 139.391 526.848 139.215C527.138 139.036 527.508 138.947 527.959 138.947C528.665 138.947 529.232 139.206 529.662 139.726C530.092 140.241 530.307 141.006 530.307 142.019C530.307 142.692 530.208 143.258 530.011 143.716C529.814 144.175 529.537 144.522 529.179 144.758C528.824 144.991 528.407 145.107 527.927 145.107C527.476 145.107 527.111 145.025 526.832 144.86C526.556 144.692 526.339 144.497 526.182 144.275H526.09L525.859 145H524.914V136.643H526.176ZM527.626 139.973C527.268 139.973 526.984 140.044 526.772 140.188C526.565 140.331 526.414 140.546 526.321 140.832C526.228 141.115 526.18 141.475 526.176 141.912V142.024C526.176 142.687 526.28 143.194 526.488 143.544C526.699 143.895 527.082 144.071 527.637 144.071C528.078 144.071 528.416 143.894 528.652 143.539C528.889 143.181 529.007 142.669 529.007 142.003C529.007 141.33 528.889 140.823 528.652 140.483C528.42 140.143 528.078 139.973 527.626 139.973ZM534.136 138.941C534.666 138.941 535.121 139.051 535.5 139.269C535.88 139.487 536.172 139.797 536.376 140.198C536.58 140.599 536.682 141.079 536.682 141.638V142.314H532.713C532.727 142.891 532.881 143.335 533.175 143.646C533.472 143.958 533.887 144.114 534.421 144.114C534.8 144.114 535.141 144.078 535.441 144.006C535.746 143.931 536.059 143.822 536.381 143.679V144.705C536.084 144.844 535.782 144.946 535.474 145.011C535.166 145.075 534.797 145.107 534.367 145.107C533.784 145.107 533.27 144.995 532.826 144.769C532.385 144.54 532.04 144.2 531.789 143.749C531.542 143.297 531.418 142.737 531.418 142.067C531.418 141.401 531.531 140.836 531.757 140.37C531.982 139.905 532.299 139.55 532.708 139.307C533.116 139.063 533.592 138.941 534.136 138.941ZM534.136 139.892C533.739 139.892 533.417 140.021 533.169 140.279C532.926 140.537 532.783 140.914 532.74 141.412H535.447C535.443 141.115 535.393 140.852 535.296 140.623C535.203 140.393 535.06 140.214 534.867 140.085C534.677 139.957 534.433 139.892 534.136 139.892ZM539.373 145H538.105V136.643H539.373V145Z" fill="#B4B7BE"/>
<mask id="path-12-inside-2_2455_297696" fill="white">
<path d="M486.5 154H829V182H486.5V154Z"/>
</mask>
<path d="M486.5 154H829V182H486.5V154Z" fill="#2F3136"/>
<path d="M501.654 164.434L498.578 173H497.576L494.5 164.434H495.543L497.547 170.076C497.629 170.303 497.701 170.52 497.764 170.727C497.83 170.934 497.889 171.133 497.939 171.324C497.99 171.516 498.035 171.701 498.074 171.881C498.113 171.701 498.158 171.516 498.209 171.324C498.26 171.129 498.318 170.928 498.385 170.721C498.451 170.51 498.525 170.289 498.607 170.059L500.6 164.434H501.654ZM505.088 166.473C505.854 166.473 506.422 166.645 506.793 166.988C507.164 167.332 507.35 167.881 507.35 168.635V173H506.641L506.453 172.051H506.406C506.227 172.285 506.039 172.482 505.844 172.643C505.648 172.799 505.422 172.918 505.164 173C504.91 173.078 504.598 173.117 504.227 173.117C503.836 173.117 503.488 173.049 503.184 172.912C502.883 172.775 502.645 172.568 502.469 172.291C502.297 172.014 502.211 171.662 502.211 171.236C502.211 170.596 502.465 170.104 502.973 169.76C503.48 169.416 504.254 169.229 505.293 169.197L506.4 169.15V168.758C506.4 168.203 506.281 167.814 506.043 167.592C505.805 167.369 505.469 167.258 505.035 167.258C504.699 167.258 504.379 167.307 504.074 167.404C503.77 167.502 503.48 167.617 503.207 167.75L502.908 167.012C503.197 166.863 503.529 166.736 503.904 166.631C504.279 166.525 504.674 166.473 505.088 166.473ZM506.389 169.836L505.41 169.877C504.609 169.908 504.045 170.039 503.717 170.27C503.389 170.5 503.225 170.826 503.225 171.248C503.225 171.615 503.336 171.887 503.559 172.062C503.781 172.238 504.076 172.326 504.443 172.326C505.014 172.326 505.48 172.168 505.844 171.852C506.207 171.535 506.389 171.061 506.389 170.428V169.836ZM510.332 173H509.354V163.883H510.332V173ZM517.691 166.578V173H516.895L516.754 172.098H516.701C516.568 172.32 516.396 172.508 516.186 172.66C515.975 172.812 515.736 172.926 515.471 173C515.209 173.078 514.93 173.117 514.633 173.117C514.125 173.117 513.699 173.035 513.355 172.871C513.012 172.707 512.752 172.453 512.576 172.109C512.404 171.766 512.318 171.324 512.318 170.785V166.578H513.303V170.715C513.303 171.25 513.424 171.65 513.666 171.916C513.908 172.178 514.277 172.309 514.773 172.309C515.25 172.309 515.629 172.219 515.91 172.039C516.195 171.859 516.4 171.596 516.525 171.248C516.65 170.896 516.713 170.467 516.713 169.959V166.578H517.691ZM522.221 166.461C522.768 166.461 523.236 166.582 523.627 166.824C524.018 167.066 524.316 167.406 524.523 167.844C524.73 168.277 524.834 168.785 524.834 169.367V169.971H520.398C520.41 170.725 520.598 171.299 520.961 171.693C521.324 172.088 521.836 172.285 522.496 172.285C522.902 172.285 523.262 172.248 523.574 172.174C523.887 172.1 524.211 171.99 524.547 171.846V172.701C524.223 172.846 523.9 172.951 523.58 173.018C523.264 173.084 522.889 173.117 522.455 173.117C521.838 173.117 521.299 172.992 520.838 172.742C520.381 172.488 520.025 172.117 519.771 171.629C519.518 171.141 519.391 170.543 519.391 169.836C519.391 169.145 519.506 168.547 519.736 168.043C519.971 167.535 520.299 167.145 520.721 166.871C521.146 166.598 521.646 166.461 522.221 166.461ZM522.209 167.258C521.689 167.258 521.275 167.428 520.967 167.768C520.658 168.107 520.475 168.582 520.416 169.191H523.814C523.811 168.809 523.75 168.473 523.633 168.184C523.52 167.891 523.346 167.664 523.111 167.504C522.877 167.34 522.576 167.258 522.209 167.258ZM531.678 172.32C531.838 172.32 532.002 172.307 532.17 172.279C532.338 172.252 532.475 172.219 532.58 172.18V172.936C532.467 172.986 532.309 173.029 532.105 173.064C531.906 173.1 531.711 173.117 531.52 173.117C531.18 173.117 530.871 173.059 530.594 172.941C530.316 172.82 530.094 172.617 529.926 172.332C529.762 172.047 529.68 171.652 529.68 171.148V167.34H528.766V166.865L529.686 166.484L530.072 165.09H530.658V166.578H532.539V167.34H530.658V171.119C530.658 171.521 530.75 171.822 530.934 172.021C531.121 172.221 531.369 172.32 531.678 172.32ZM536.354 166.461C536.9 166.461 537.369 166.582 537.76 166.824C538.15 167.066 538.449 167.406 538.656 167.844C538.863 168.277 538.967 168.785 538.967 169.367V169.971H534.531C534.543 170.725 534.73 171.299 535.094 171.693C535.457 172.088 535.969 172.285 536.629 172.285C537.035 172.285 537.395 172.248 537.707 172.174C538.02 172.1 538.344 171.99 538.68 171.846V172.701C538.355 172.846 538.033 172.951 537.713 173.018C537.396 173.084 537.021 173.117 536.588 173.117C535.971 173.117 535.432 172.992 534.971 172.742C534.514 172.488 534.158 172.117 533.904 171.629C533.65 171.141 533.523 170.543 533.523 169.836C533.523 169.145 533.639 168.547 533.869 168.043C534.104 167.535 534.432 167.145 534.854 166.871C535.279 166.598 535.779 166.461 536.354 166.461ZM536.342 167.258C535.822 167.258 535.408 167.428 535.1 167.768C534.791 168.107 534.607 168.582 534.549 169.191H537.947C537.943 168.809 537.883 168.473 537.766 168.184C537.652 167.891 537.479 167.664 537.244 167.504C537.01 167.34 536.709 167.258 536.342 167.258ZM542.148 169.713L539.928 166.578H541.041L542.734 169.051L544.422 166.578H545.523L543.303 169.713L545.646 173H544.533L542.734 170.381L540.924 173H539.822L542.148 169.713ZM548.975 172.32C549.135 172.32 549.299 172.307 549.467 172.279C549.635 172.252 549.771 172.219 549.877 172.18V172.936C549.764 172.986 549.605 173.029 549.402 173.064C549.203 173.1 549.008 173.117 548.816 173.117C548.477 173.117 548.168 173.059 547.891 172.941C547.613 172.82 547.391 172.617 547.223 172.332C547.059 172.047 546.977 171.652 546.977 171.148V167.34H546.062V166.865L546.982 166.484L547.369 165.09H547.955V166.578H549.836V167.34H547.955V171.119C547.955 171.521 548.047 171.822 548.23 172.021C548.418 172.221 548.666 172.32 548.975 172.32Z" fill="white"/>
<path fill-rule="evenodd" clip-rule="evenodd" d="M815 169.308L819.401 164.5L820.5 165.492L815 171.5L809.5 165.492L810.599 164.5L815 169.308Z" fill="white"/>
<path d="M829 181H486.5V183H829V181Z" fill="#84878E" mask="url(#path-12-inside-2_2455_297696)"/>
<path d="M486.973 199L488.632 191.147H489.54L488.826 194.494H492.414L493.123 191.147H494.014L492.354 199H491.458L492.236 195.299H488.654L487.875 199H486.973ZM496.657 199.107C496.216 199.107 495.837 199.02 495.518 198.844C495.199 198.665 494.954 198.411 494.782 198.082C494.614 197.749 494.53 197.351 494.53 196.889C494.53 196.413 494.598 195.946 494.734 195.487C494.874 195.025 495.072 194.608 495.33 194.236C495.588 193.86 495.898 193.561 496.259 193.339C496.625 193.117 497.033 193.006 497.484 193.006C498.025 193.006 498.435 193.128 498.714 193.371C498.993 193.611 499.133 193.942 499.133 194.365C499.133 194.662 499.063 194.936 498.923 195.187C498.787 195.437 498.576 195.656 498.29 195.842C498.007 196.024 497.647 196.168 497.21 196.271C496.777 196.372 496.263 196.422 495.668 196.422H495.464C495.457 196.486 495.45 196.558 495.443 196.637C495.439 196.715 495.438 196.789 495.438 196.857C495.438 197.33 495.552 197.7 495.781 197.969C496.01 198.234 496.354 198.366 496.812 198.366C497.095 198.366 497.362 198.327 497.613 198.248C497.867 198.166 498.132 198.058 498.408 197.926V198.694C498.143 198.816 497.876 198.916 497.607 198.995C497.339 199.07 497.022 199.107 496.657 199.107ZM495.593 195.691H495.722C496.181 195.691 496.601 195.652 496.984 195.573C497.368 195.491 497.675 195.358 497.908 195.176C498.141 194.99 498.257 194.743 498.257 194.435C498.257 194.234 498.189 194.069 498.053 193.94C497.917 193.812 497.709 193.747 497.43 193.747C497.183 193.747 496.94 193.824 496.7 193.978C496.46 194.128 496.241 194.349 496.044 194.639C495.851 194.929 495.701 195.28 495.593 195.691ZM499.767 199L501.55 190.643H502.441L500.664 199H499.767ZM502.012 201.632L503.811 193.113H504.542L504.396 194.257H504.434C504.602 194.035 504.787 193.831 504.987 193.645C505.191 193.455 505.413 193.303 505.653 193.188C505.897 193.074 506.162 193.017 506.448 193.017C506.771 193.017 507.052 193.094 507.292 193.248C507.531 193.398 507.718 193.624 507.85 193.924C507.986 194.222 508.054 194.592 508.054 195.036C508.054 195.459 508.011 195.87 507.925 196.271C507.843 196.669 507.721 197.04 507.56 197.383C507.399 197.723 507.2 198.024 506.964 198.286C506.731 198.543 506.464 198.746 506.164 198.893C505.863 199.036 505.532 199.107 505.17 199.107C504.894 199.107 504.656 199.059 504.456 198.962C504.259 198.862 504.092 198.731 503.956 198.57C503.824 198.409 503.718 198.236 503.639 198.049H503.591C503.576 198.182 503.553 198.355 503.521 198.57C503.492 198.782 503.462 198.959 503.43 199.102L502.893 201.632H502.012ZM505.105 198.366C505.356 198.366 505.585 198.304 505.793 198.178C506.004 198.053 506.192 197.883 506.357 197.668C506.525 197.45 506.667 197.197 506.781 196.911C506.899 196.624 506.989 196.32 507.05 195.998C507.111 195.675 507.141 195.348 507.141 195.015C507.141 194.599 507.057 194.286 506.889 194.075C506.724 193.863 506.477 193.758 506.147 193.758C505.976 193.758 505.802 193.801 505.626 193.887C505.451 193.969 505.281 194.087 505.116 194.241C504.951 194.392 504.798 194.571 504.654 194.778C504.511 194.986 504.386 195.215 504.278 195.466C504.174 195.716 504.092 195.981 504.031 196.261C503.97 196.54 503.94 196.826 503.94 197.12C503.94 197.496 504.035 197.799 504.225 198.028C504.418 198.253 504.712 198.366 505.105 198.366ZM511.277 199.107C510.836 199.107 510.457 199.02 510.138 198.844C509.819 198.665 509.574 198.411 509.402 198.082C509.234 197.749 509.15 197.351 509.15 196.889C509.15 196.413 509.218 195.946 509.354 195.487C509.494 195.025 509.692 194.608 509.95 194.236C510.208 193.86 510.518 193.561 510.879 193.339C511.245 193.117 511.653 193.006 512.104 193.006C512.645 193.006 513.055 193.128 513.334 193.371C513.613 193.611 513.753 193.942 513.753 194.365C513.753 194.662 513.683 194.936 513.543 195.187C513.407 195.437 513.196 195.656 512.91 195.842C512.627 196.024 512.267 196.168 511.83 196.271C511.397 196.372 510.883 196.422 510.289 196.422H510.084C510.077 196.486 510.07 196.558 510.063 196.637C510.059 196.715 510.058 196.789 510.058 196.857C510.058 197.33 510.172 197.7 510.401 197.969C510.631 198.234 510.974 198.366 511.433 198.366C511.715 198.366 511.982 198.327 512.233 198.248C512.487 198.166 512.752 198.058 513.028 197.926V198.694C512.763 198.816 512.496 198.916 512.228 198.995C511.959 199.07 511.642 199.107 511.277 199.107ZM510.213 195.691H510.342C510.801 195.691 511.221 195.652 511.604 195.573C511.988 195.491 512.296 195.358 512.528 195.176C512.761 194.99 512.877 194.743 512.877 194.435C512.877 194.234 512.809 194.069 512.673 193.94C512.537 193.812 512.33 193.747 512.05 193.747C511.803 193.747 511.56 193.824 511.32 193.978C511.08 194.128 510.861 194.349 510.665 194.639C510.471 194.929 510.321 195.28 510.213 195.691ZM514.397 199L515.649 193.113H516.379L516.24 194.252H516.293C516.444 194.048 516.605 193.851 516.777 193.661C516.949 193.468 517.144 193.31 517.362 193.188C517.584 193.067 517.839 193.006 518.125 193.006C518.232 193.006 518.342 193.013 518.453 193.027C518.564 193.038 518.667 193.058 518.764 193.086L518.571 193.887C518.474 193.865 518.379 193.849 518.286 193.838C518.197 193.828 518.104 193.822 518.007 193.822C517.735 193.822 517.482 193.894 517.25 194.037C517.017 194.177 516.807 194.365 516.621 194.601C516.438 194.837 516.283 195.101 516.154 195.391C516.028 195.681 515.934 195.976 515.869 196.277L515.294 199H514.397ZM523.281 199.107C522.891 199.107 522.565 199.014 522.304 198.828C522.046 198.638 521.917 198.314 521.917 197.856C521.917 197.745 521.924 197.625 521.938 197.496C521.953 197.364 521.976 197.228 522.008 197.088L522.701 193.795H521.793L521.879 193.382L522.857 193.006L523.501 191.76H524.033L523.738 193.113H525.252L525.113 193.795H523.604L522.905 197.099C522.88 197.199 522.857 197.306 522.835 197.421C522.818 197.535 522.809 197.645 522.809 197.749C522.809 197.928 522.855 198.078 522.948 198.2C523.041 198.318 523.197 198.377 523.416 198.377C523.552 198.377 523.681 198.364 523.802 198.339C523.928 198.314 524.06 198.278 524.2 198.232V198.919C524.11 198.962 523.974 199.004 523.792 199.043C523.612 199.086 523.442 199.107 523.281 199.107ZM527.594 199.107C527.154 199.107 526.774 199.02 526.456 198.844C526.137 198.665 525.892 198.411 525.72 198.082C525.551 197.749 525.467 197.351 525.467 196.889C525.467 196.413 525.535 195.946 525.671 195.487C525.811 195.025 526.01 194.608 526.268 194.236C526.525 193.86 526.835 193.561 527.197 193.339C527.562 193.117 527.97 193.006 528.421 193.006C528.962 193.006 529.372 193.128 529.651 193.371C529.931 193.611 530.07 193.942 530.07 194.365C530.07 194.662 530 194.936 529.861 195.187C529.725 195.437 529.514 195.656 529.227 195.842C528.944 196.024 528.584 196.168 528.147 196.271C527.714 196.372 527.2 196.422 526.606 196.422H526.402C526.395 196.486 526.388 196.558 526.38 196.637C526.377 196.715 526.375 196.789 526.375 196.857C526.375 197.33 526.49 197.7 526.719 197.969C526.948 198.234 527.292 198.366 527.75 198.366C528.033 198.366 528.3 198.327 528.55 198.248C528.805 198.166 529.069 198.058 529.345 197.926V198.694C529.08 198.816 528.813 198.916 528.545 198.995C528.276 199.07 527.959 199.107 527.594 199.107ZM526.531 195.691H526.66C527.118 195.691 527.539 195.652 527.922 195.573C528.305 195.491 528.613 195.358 528.846 195.176C529.078 194.99 529.195 194.743 529.195 194.435C529.195 194.234 529.127 194.069 528.991 193.94C528.855 193.812 528.647 193.747 528.368 193.747C528.121 193.747 527.877 193.824 527.637 193.978C527.397 194.128 527.179 194.349 526.982 194.639C526.789 194.929 526.638 195.28 526.531 195.691ZM530 199L532.562 195.971L531.284 193.113H532.187L533.132 195.337L534.926 193.113H535.962L533.502 196.008L534.867 199H533.954L532.922 196.658L531.037 199H530ZM537.676 199.107C537.285 199.107 536.96 199.014 536.698 198.828C536.44 198.638 536.312 198.314 536.312 197.856C536.312 197.745 536.319 197.625 536.333 197.496C536.347 197.364 536.371 197.228 536.403 197.088L537.096 193.795H536.188L536.274 193.382L537.251 193.006L537.896 191.76H538.428L538.132 193.113H539.647L539.507 193.795H537.998L537.3 197.099C537.275 197.199 537.251 197.306 537.23 197.421C537.212 197.535 537.203 197.645 537.203 197.749C537.203 197.928 537.25 198.078 537.343 198.2C537.436 198.318 537.592 198.377 537.81 198.377C537.946 198.377 538.075 198.364 538.197 198.339C538.322 198.314 538.455 198.278 538.594 198.232V198.919C538.505 198.962 538.369 199.004 538.186 199.043C538.007 199.086 537.837 199.107 537.676 199.107Z" fill="#B4B7BE"/>
</svg>
