<svg width="889" height="636" viewBox="0 0 889 636" fill="none" xmlns="http://www.w3.org/2000/svg">
<rect width="889" height="636" fill="#F2F4F6"/>
<rect width="777" height="264" transform="translate(56 36)" fill="#242526"/>
<rect x="110.281" y="68" width="74.946" height="6" fill="white"/>
<rect x="110.281" y="83" width="74.946" height="3" fill="#EE852B"/>
<rect x="215.611" y="68" width="74.946" height="6" fill="#B4B7BE"/>
<rect x="320.94" y="68" width="74.946" height="6" fill="#B4B7BE"/>
<rect x="88" y="86" width="713" height="1.5" fill="#4C505B"/>
<rect x="88" y="119.5" width="712.999" height="99" fill="#2F3136"/>
<rect x="675.415" y="235" width="125.585" height="33" fill="#155C93"/>
<rect width="777" height="264" transform="translate(56 336)" fill="white"/>
<rect x="110.281" y="383" width="74.946" height="3" fill="#E06519"/>
<rect x="215.611" y="368" width="74.946" height="6" fill="#61656E"/>
<rect x="320.94" y="368" width="74.946" height="6" fill="#61656E"/>
<rect x="88" y="386" width="713" height="1.5" fill="#C5C9D0"/>
<rect x="110.281" y="368" width="74.946" height="6" fill="#161616"/>
<rect x="88" y="419.5" width="712.999" height="99" fill="#EAEDEF"/>
<rect x="675.415" y="535" width="125.585" height="33" fill="#155C93"/>
<rect x="79" y="376" width="21" height="21" rx="10.5" fill="#A961B5"/>
<path d="M92.0137 384.289C92.0137 384.74 91.9225 385.132 91.7402 385.465C91.5579 385.798 91.3073 386.071 90.9883 386.285C90.6738 386.495 90.3092 386.645 89.8945 386.736V386.784C90.6921 386.884 91.2936 387.135 91.6992 387.536C92.1094 387.937 92.3145 388.468 92.3145 389.129C92.3145 389.708 92.1755 390.225 91.8975 390.681C91.6195 391.132 91.1934 391.487 90.6191 391.747C90.0449 392.007 89.3066 392.137 88.4043 392.137C87.862 392.137 87.3584 392.093 86.8936 392.007C86.4333 391.92 85.9958 391.781 85.5811 391.59V390.161C86.0049 390.371 86.4561 390.533 86.9346 390.646C87.4131 390.76 87.8665 390.817 88.2949 390.817C89.1289 390.817 89.7236 390.662 90.0791 390.353C90.4346 390.038 90.6123 389.605 90.6123 389.054C90.6123 388.698 90.5189 388.407 90.332 388.179C90.1497 387.951 89.8649 387.78 89.4775 387.666C89.0947 387.552 88.6003 387.495 87.9941 387.495H87.1123V386.203H88.001C88.5798 386.203 89.0446 386.135 89.3955 385.998C89.7464 385.857 89.9993 385.663 90.1543 385.417C90.3138 385.171 90.3936 384.884 90.3936 384.556C90.3936 384.127 90.2546 383.795 89.9766 383.558C89.6986 383.316 89.2861 383.195 88.7393 383.195C88.402 383.195 88.0944 383.234 87.8164 383.312C87.543 383.389 87.29 383.487 87.0576 383.605C86.8252 383.724 86.6042 383.852 86.3945 383.988L85.6221 382.874C86.0003 382.591 86.4515 382.352 86.9756 382.156C87.4997 381.96 88.1104 381.862 88.8076 381.862C89.833 381.862 90.6237 382.083 91.1797 382.525C91.7357 382.963 92.0137 383.551 92.0137 384.289Z" fill="white"/>
<rect x="790" y="241" width="21" height="21" rx="10.5" fill="#A961B5"/>
<path d="M803.014 249.289C803.014 249.74 802.923 250.132 802.74 250.465C802.558 250.798 802.307 251.071 801.988 251.285C801.674 251.495 801.309 251.645 800.895 251.736V251.784C801.692 251.884 802.294 252.135 802.699 252.536C803.109 252.937 803.314 253.468 803.314 254.129C803.314 254.708 803.175 255.225 802.897 255.681C802.619 256.132 802.193 256.487 801.619 256.747C801.045 257.007 800.307 257.137 799.404 257.137C798.862 257.137 798.358 257.093 797.894 257.007C797.433 256.92 796.996 256.781 796.581 256.59V255.161C797.005 255.371 797.456 255.533 797.935 255.646C798.413 255.76 798.867 255.817 799.295 255.817C800.129 255.817 800.724 255.662 801.079 255.353C801.435 255.038 801.612 254.605 801.612 254.054C801.612 253.698 801.519 253.407 801.332 253.179C801.15 252.951 800.865 252.78 800.478 252.666C800.095 252.552 799.6 252.495 798.994 252.495H798.112V251.203H799.001C799.58 251.203 800.045 251.135 800.396 250.998C800.746 250.857 800.999 250.663 801.154 250.417C801.314 250.171 801.394 249.884 801.394 249.556C801.394 249.127 801.255 248.795 800.977 248.558C800.699 248.316 800.286 248.195 799.739 248.195C799.402 248.195 799.094 248.234 798.816 248.312C798.543 248.389 798.29 248.487 798.058 248.605C797.825 248.724 797.604 248.852 797.395 248.988L796.622 247.874C797 247.591 797.451 247.352 797.976 247.156C798.5 246.96 799.11 246.862 799.808 246.862C800.833 246.862 801.624 247.083 802.18 247.525C802.736 247.963 803.014 248.551 803.014 249.289Z" fill="white"/>
<rect x="790" y="540" width="21" height="21" rx="10.5" fill="#A961B5"/>
<path d="M803.014 548.289C803.014 548.74 802.923 549.132 802.74 549.465C802.558 549.798 802.307 550.071 801.988 550.285C801.674 550.495 801.309 550.645 800.895 550.736V550.784C801.692 550.884 802.294 551.135 802.699 551.536C803.109 551.937 803.314 552.468 803.314 553.129C803.314 553.708 803.175 554.225 802.897 554.681C802.619 555.132 802.193 555.487 801.619 555.747C801.045 556.007 800.307 556.137 799.404 556.137C798.862 556.137 798.358 556.093 797.894 556.007C797.433 555.92 796.996 555.781 796.581 555.59V554.161C797.005 554.371 797.456 554.533 797.935 554.646C798.413 554.76 798.867 554.817 799.295 554.817C800.129 554.817 800.724 554.662 801.079 554.353C801.435 554.038 801.612 553.605 801.612 553.054C801.612 552.698 801.519 552.407 801.332 552.179C801.15 551.951 800.865 551.78 800.478 551.666C800.095 551.552 799.6 551.495 798.994 551.495H798.112V550.203H799.001C799.58 550.203 800.045 550.135 800.396 549.998C800.746 549.857 800.999 549.663 801.154 549.417C801.314 549.171 801.394 548.884 801.394 548.556C801.394 548.127 801.255 547.795 800.977 547.558C800.699 547.316 800.286 547.195 799.739 547.195C799.402 547.195 799.094 547.234 798.816 547.312C798.543 547.389 798.29 547.487 798.058 547.605C797.825 547.724 797.604 547.852 797.395 547.988L796.622 546.874C797 546.591 797.451 546.352 797.976 546.156C798.5 545.96 799.11 545.862 799.808 545.862C800.833 545.862 801.624 546.083 802.18 546.525C802.736 546.963 803.014 547.551 803.014 548.289Z" fill="white"/>
<rect x="79" y="74" width="21" height="21" rx="10.5" fill="#A961B5"/>
<path d="M92.0137 82.2891C92.0137 82.7402 91.9225 83.1322 91.7402 83.4648C91.5579 83.7975 91.3073 84.071 90.9883 84.2852C90.6738 84.4948 90.3092 84.6452 89.8945 84.7363V84.7842C90.6921 84.8844 91.2936 85.1351 91.6992 85.5361C92.1094 85.9372 92.3145 86.4681 92.3145 87.1289C92.3145 87.7077 92.1755 88.2249 91.8975 88.6807C91.6195 89.1318 91.1934 89.4873 90.6191 89.7471C90.0449 90.0068 89.3066 90.1367 88.4043 90.1367C87.862 90.1367 87.3584 90.0934 86.8936 90.0068C86.4333 89.9202 85.9958 89.7812 85.5811 89.5898V88.1611C86.0049 88.3708 86.4561 88.5326 86.9346 88.6465C87.4131 88.7604 87.8665 88.8174 88.2949 88.8174C89.1289 88.8174 89.7236 88.6624 90.0791 88.3525C90.4346 88.0381 90.6123 87.6051 90.6123 87.0537C90.6123 86.6982 90.5189 86.4066 90.332 86.1787C90.1497 85.9508 89.8649 85.7799 89.4775 85.666C89.0947 85.5521 88.6003 85.4951 87.9941 85.4951H87.1123V84.2031H88.001C88.5798 84.2031 89.0446 84.1348 89.3955 83.998C89.7464 83.8568 89.9993 83.6631 90.1543 83.417C90.3138 83.1709 90.3936 82.8838 90.3936 82.5557C90.3936 82.1273 90.2546 81.7946 89.9766 81.5576C89.6986 81.3161 89.2861 81.1953 88.7393 81.1953C88.402 81.1953 88.0944 81.234 87.8164 81.3115C87.543 81.389 87.29 81.487 87.0576 81.6055C86.8252 81.724 86.6042 81.8516 86.3945 81.9883L85.6221 80.874C86.0003 80.5915 86.4515 80.3522 86.9756 80.1562C87.4997 79.9603 88.1104 79.8623 88.8076 79.8623C89.833 79.8623 90.6237 80.0833 91.1797 80.5254C91.7357 80.9629 92.0137 81.5508 92.0137 82.2891Z" fill="white"/>
<rect x="128" y="246" width="21" height="21" rx="10.5" fill="#A961B5"/>
<path d="M139.353 262H137.739V255.567C137.739 255.353 137.742 255.139 137.746 254.925C137.751 254.711 137.755 254.501 137.76 254.296C137.769 254.091 137.78 253.895 137.794 253.708C137.698 253.813 137.58 253.927 137.438 254.05C137.302 254.173 137.156 254.3 137.001 254.433L135.853 255.349L135.046 254.33L138.013 252.006H139.353V262Z" fill="white"/>
<rect x="128" y="548" width="21" height="21" rx="10.5" fill="#A961B5"/>
<path d="M139.353 564H137.739V557.567C137.739 557.353 137.742 557.139 137.746 556.925C137.751 556.711 137.755 556.501 137.76 556.296C137.769 556.091 137.78 555.895 137.794 555.708C137.698 555.813 137.58 555.927 137.438 556.05C137.302 556.173 137.156 556.3 137.001 556.433L135.853 557.349L135.046 556.33L138.013 554.006H139.353V564Z" fill="white"/>
<rect x="198" y="156" width="21" height="21" rx="10.5" fill="#A961B5"/>
<path d="M211.396 172H204.629V170.79L207.22 168.165C207.721 167.655 208.133 167.215 208.457 166.846C208.781 166.472 209.02 166.119 209.175 165.786C209.334 165.453 209.414 165.091 209.414 164.699C209.414 164.216 209.275 163.852 208.997 163.605C208.719 163.355 208.352 163.229 207.896 163.229C207.464 163.229 207.062 163.316 206.693 163.489C206.329 163.658 205.951 163.899 205.559 164.214L204.677 163.154C204.955 162.917 205.251 162.701 205.565 162.505C205.884 162.309 206.24 162.154 206.632 162.04C207.024 161.922 207.47 161.862 207.972 161.862C208.605 161.862 209.152 161.976 209.612 162.204C210.073 162.427 210.426 162.74 210.672 163.141C210.923 163.542 211.048 164.009 211.048 164.542C211.048 165.08 210.941 165.576 210.727 166.032C210.512 166.488 210.207 166.939 209.811 167.386C209.414 167.828 208.942 168.309 208.396 168.828L206.666 170.517V170.592H211.396V172Z" fill="white"/>
<rect x="198" y="458" width="21" height="21" rx="10.5" fill="#A961B5"/>
<path d="M211.396 474H204.629V472.79L207.22 470.165C207.721 469.655 208.133 469.215 208.457 468.846C208.781 468.472 209.02 468.119 209.175 467.786C209.334 467.453 209.414 467.091 209.414 466.699C209.414 466.216 209.275 465.852 208.997 465.605C208.719 465.355 208.352 465.229 207.896 465.229C207.464 465.229 207.062 465.316 206.693 465.489C206.329 465.658 205.951 465.899 205.559 466.214L204.677 465.154C204.955 464.917 205.251 464.701 205.565 464.505C205.884 464.309 206.24 464.154 206.632 464.04C207.024 463.922 207.47 463.862 207.972 463.862C208.605 463.862 209.152 463.976 209.612 464.204C210.073 464.427 210.426 464.74 210.672 465.141C210.923 465.542 211.048 466.009 211.048 466.542C211.048 467.08 210.941 467.576 210.727 468.032C210.512 468.488 210.207 468.939 209.811 469.386C209.414 469.828 208.942 470.309 208.396 470.828L206.666 472.517V472.592H211.396V474Z" fill="white"/>
</svg>
