<svg width="766" height="446" viewBox="0 0 766 446" fill="none" xmlns="http://www.w3.org/2000/svg">
<rect x="1.90333" y="1.90333" width="584.193" height="442.193" fill="white"/>
<rect x="4" y="4" width="580" height="46" fill="#D9DDE3"/>
<rect x="36" y="442" width="438" height="59.3333" transform="rotate(-90 36 442)" fill="#9CBCE1" fill-opacity="0.3"/>
<rect x="127.333" y="442" width="438" height="59.3333" transform="rotate(-90 127.333 442)" fill="#9CBCE1" fill-opacity="0.3"/>
<rect x="218.667" y="442" width="438" height="59.3333" transform="rotate(-90 218.667 442)" fill="#9CBCE1" fill-opacity="0.3"/>
<rect x="310" y="442" width="438" height="59.3333" transform="rotate(-90 310 442)" fill="#9CBCE1" fill-opacity="0.3"/>
<rect x="401.333" y="442" width="438" height="59.3333" transform="rotate(-90 401.333 442)" fill="#9CBCE1" fill-opacity="0.3"/>
<rect x="492.667" y="442" width="438" height="59.3333" transform="rotate(-90 492.667 442)" fill="#9CBCE1" fill-opacity="0.3"/>
<rect x="1.90333" y="1.90333" width="584.193" height="442.193" stroke="#C5C9D0" stroke-width="3.80667"/>
<path d="M624.778 14H623.131V5.40039H620.205V4.00586H627.697V5.40039H624.778V14ZM635.764 10.1992C635.764 10.8281 635.682 11.3864 635.518 11.874C635.354 12.3617 635.114 12.7741 634.8 13.1113C634.485 13.444 634.107 13.6992 633.665 13.877C633.223 14.0501 632.724 14.1367 632.168 14.1367C631.648 14.1367 631.172 14.0501 630.739 13.877C630.306 13.6992 629.93 13.444 629.611 13.1113C629.297 12.7741 629.053 12.3617 628.88 11.874C628.707 11.3864 628.62 10.8281 628.62 10.1992C628.62 9.36523 628.764 8.65885 629.051 8.08008C629.342 7.49674 629.757 7.05241 630.295 6.74707C630.833 6.44173 631.473 6.28906 632.216 6.28906C632.913 6.28906 633.528 6.44173 634.062 6.74707C634.595 7.05241 635.012 7.49674 635.312 8.08008C635.613 8.66341 635.764 9.36979 635.764 10.1992ZM630.274 10.1992C630.274 10.7507 630.34 11.2223 630.473 11.6143C630.609 12.0062 630.819 12.307 631.102 12.5166C631.384 12.7217 631.749 12.8242 632.195 12.8242C632.642 12.8242 633.007 12.7217 633.289 12.5166C633.572 12.307 633.779 12.0062 633.911 11.6143C634.043 11.2223 634.109 10.7507 634.109 10.1992C634.109 9.64779 634.043 9.18066 633.911 8.79785C633.779 8.41048 633.572 8.11654 633.289 7.91602C633.007 7.71094 632.64 7.6084 632.188 7.6084C631.523 7.6084 631.038 7.83171 630.732 8.27832C630.427 8.72493 630.274 9.36523 630.274 10.1992ZM639.216 3.36328V8.50391C639.216 8.73633 639.207 8.99154 639.188 9.26953C639.17 9.54297 639.152 9.80046 639.134 10.042H639.168C639.286 9.88249 639.428 9.69564 639.592 9.48145C639.76 9.26725 639.92 9.0804 640.07 8.9209L642.381 6.43262H644.227L641.198 9.68652L644.425 14H642.538L640.118 10.6777L639.216 11.4502V14H637.609V3.36328H639.216ZM648.649 6.28906C649.324 6.28906 649.903 6.42806 650.386 6.70605C650.869 6.98405 651.24 7.37826 651.5 7.88867C651.76 8.39909 651.89 9.00977 651.89 9.7207V10.582H646.838C646.856 11.3158 647.052 11.8809 647.426 12.2773C647.804 12.6738 648.333 12.8721 649.012 12.8721C649.495 12.8721 649.928 12.8265 650.311 12.7354C650.698 12.6396 651.097 12.5007 651.507 12.3184V13.624C651.129 13.8018 650.743 13.9316 650.352 14.0137C649.96 14.0957 649.49 14.1367 648.943 14.1367C648.201 14.1367 647.547 13.9932 646.981 13.7061C646.421 13.4144 645.981 12.9814 645.662 12.4072C645.348 11.833 645.19 11.1198 645.19 10.2676C645.19 9.41992 645.334 8.69987 645.621 8.10742C645.908 7.51497 646.312 7.0638 646.831 6.75391C647.351 6.44401 647.957 6.28906 648.649 6.28906ZM648.649 7.49902C648.144 7.49902 647.733 7.66309 647.419 7.99121C647.109 8.31934 646.927 8.80013 646.872 9.43359H650.317C650.313 9.05534 650.249 8.72038 650.126 8.42871C650.007 8.13704 649.825 7.90918 649.579 7.74512C649.338 7.58105 649.028 7.49902 648.649 7.49902ZM657.646 6.28906C658.498 6.28906 659.161 6.51009 659.635 6.95215C660.113 7.38965 660.353 8.09375 660.353 9.06445V14H658.746V9.36523C658.746 8.77734 658.625 8.33757 658.384 8.0459C658.142 7.74967 657.769 7.60156 657.263 7.60156C656.529 7.60156 656.019 7.82715 655.731 8.27832C655.449 8.72949 655.308 9.38346 655.308 10.2402V14H653.701V6.43262H654.952L655.178 7.45801H655.267C655.431 7.19368 655.633 6.97721 655.875 6.80859C656.121 6.63542 656.395 6.50553 656.695 6.41895C657.001 6.33236 657.317 6.28906 657.646 6.28906ZM667.688 11.8398C667.688 12.3366 667.567 12.7559 667.325 13.0977C667.084 13.4395 666.73 13.6992 666.266 13.877C665.805 14.0501 665.24 14.1367 664.57 14.1367C664.042 14.1367 663.586 14.098 663.203 14.0205C662.825 13.9476 662.467 13.8337 662.13 13.6787V12.291C662.49 12.4596 662.893 12.6055 663.34 12.7285C663.791 12.8516 664.217 12.9131 664.618 12.9131C665.147 12.9131 665.527 12.8311 665.76 12.667C665.992 12.4984 666.108 12.2751 666.108 11.9971C666.108 11.833 666.061 11.6872 665.965 11.5596C665.874 11.4274 665.701 11.293 665.445 11.1562C665.195 11.015 664.826 10.8464 664.338 10.6504C663.859 10.459 663.456 10.2676 663.128 10.0762C662.8 9.88477 662.551 9.65462 662.383 9.38574C662.214 9.1123 662.13 8.76367 662.13 8.33984C662.13 7.66992 662.394 7.16178 662.923 6.81543C663.456 6.46452 664.16 6.28906 665.035 6.28906C665.5 6.28906 665.938 6.33691 666.348 6.43262C666.762 6.52376 667.168 6.6582 667.564 6.83594L667.059 8.0459C666.717 7.89551 666.373 7.77246 666.026 7.67676C665.685 7.5765 665.336 7.52637 664.98 7.52637C664.566 7.52637 664.249 7.59017 664.03 7.71777C663.816 7.84538 663.709 8.02767 663.709 8.26465C663.709 8.44238 663.761 8.59277 663.866 8.71582C663.971 8.83887 664.151 8.96191 664.406 9.08496C664.666 9.20801 665.026 9.36068 665.486 9.54297C665.938 9.71615 666.327 9.89844 666.655 10.0898C666.988 10.2767 667.243 10.5068 667.421 10.7803C667.599 11.0537 667.688 11.4069 667.688 11.8398Z" fill="black"/>
<rect x="620" y="30" width="24" height="24" fill="#FAE4E1"/>
<path d="M660.431 41.8857H663.176V45.6938C662.764 45.8335 662.34 45.9373 661.903 46.0054C661.47 46.0734 660.984 46.1074 660.447 46.1074C659.631 46.1074 658.942 45.9445 658.379 45.6187C657.821 45.2928 657.396 44.8291 657.106 44.2275C656.816 43.6224 656.671 42.9045 656.671 42.0737C656.671 41.2609 656.831 40.5519 657.149 39.9468C657.472 39.3416 657.935 38.8726 658.541 38.5396C659.149 38.203 659.88 38.0347 660.732 38.0347C661.169 38.0347 661.582 38.0758 661.973 38.1582C662.367 38.237 662.732 38.3498 663.068 38.4966L662.719 39.2915C662.429 39.1662 662.109 39.0588 661.758 38.9692C661.41 38.8797 661.051 38.835 660.678 38.835C660.037 38.835 659.488 38.9674 659.029 39.2324C658.575 39.4974 658.225 39.8716 657.982 40.355C657.742 40.8384 657.622 41.4113 657.622 42.0737C657.622 42.729 657.728 43.3001 657.939 43.7871C658.15 44.2705 658.48 44.6465 658.927 44.915C659.375 45.1836 659.951 45.3179 660.657 45.3179C661.011 45.3179 661.316 45.2982 661.57 45.2588C661.824 45.2158 662.055 45.1657 662.263 45.1084V42.7021H660.431V41.8857ZM669.804 40.1133V46H669.073L668.944 45.1729H668.896C668.774 45.377 668.617 45.5488 668.423 45.6885C668.23 45.8281 668.012 45.932 667.768 46C667.528 46.0716 667.272 46.1074 667 46.1074C666.535 46.1074 666.144 46.0322 665.829 45.8818C665.514 45.7314 665.276 45.4987 665.115 45.1836C664.957 44.8685 664.878 44.4639 664.878 43.9697V40.1133H665.781V43.9053C665.781 44.3958 665.892 44.7629 666.114 45.0063C666.336 45.2463 666.674 45.3662 667.129 45.3662C667.566 45.3662 667.913 45.2839 668.171 45.1191C668.432 44.9544 668.62 44.7127 668.735 44.394C668.849 44.0718 668.907 43.6779 668.907 43.2124V40.1133H669.804ZM673.59 45.377C673.737 45.377 673.888 45.3644 674.042 45.3394C674.195 45.3143 674.321 45.2839 674.417 45.248V45.9409C674.314 45.9875 674.169 46.0269 673.982 46.0591C673.8 46.0913 673.621 46.1074 673.445 46.1074C673.134 46.1074 672.851 46.0537 672.597 45.9463C672.342 45.8353 672.138 45.6491 671.984 45.3877C671.834 45.1263 671.759 44.7646 671.759 44.3027V40.8115H670.921V40.3765L671.764 40.0273L672.119 38.749H672.656V40.1133H674.38V40.8115H672.656V44.2759C672.656 44.6447 672.74 44.9204 672.908 45.103C673.08 45.2856 673.307 45.377 673.59 45.377ZM677.511 45.377C677.658 45.377 677.808 45.3644 677.962 45.3394C678.116 45.3143 678.242 45.2839 678.338 45.248V45.9409C678.235 45.9875 678.09 46.0269 677.903 46.0591C677.721 46.0913 677.542 46.1074 677.366 46.1074C677.055 46.1074 676.772 46.0537 676.518 45.9463C676.263 45.8353 676.059 45.6491 675.905 45.3877C675.755 45.1263 675.68 44.7646 675.68 44.3027V40.8115H674.842V40.3765L675.685 40.0273L676.04 38.749H676.577V40.1133H678.301V40.8115H676.577V44.2759C676.577 44.6447 676.661 44.9204 676.829 45.103C677.001 45.2856 677.228 45.377 677.511 45.377ZM681.797 40.0059C682.299 40.0059 682.728 40.1169 683.086 40.3389C683.444 40.5609 683.718 40.8724 683.908 41.2734C684.098 41.6709 684.193 42.1364 684.193 42.6699V43.2231H680.127C680.138 43.9142 680.31 44.4406 680.643 44.8022C680.976 45.1639 681.445 45.3447 682.05 45.3447C682.422 45.3447 682.752 45.3107 683.038 45.2427C683.325 45.1746 683.622 45.0744 683.93 44.9419V45.7261C683.632 45.8586 683.337 45.9552 683.043 46.0161C682.753 46.077 682.41 46.1074 682.012 46.1074C681.446 46.1074 680.952 45.9928 680.53 45.7637C680.111 45.5309 679.785 45.1908 679.552 44.7432C679.319 44.2956 679.203 43.7477 679.203 43.0996C679.203 42.4658 679.309 41.918 679.52 41.4561C679.735 40.9906 680.036 40.6325 680.422 40.3818C680.813 40.1312 681.271 40.0059 681.797 40.0059ZM681.787 40.7363C681.31 40.7363 680.931 40.8921 680.648 41.2036C680.365 41.5151 680.197 41.9502 680.143 42.5088H683.258C683.255 42.1579 683.199 41.8499 683.092 41.585C682.988 41.3164 682.829 41.1087 682.614 40.9619C682.399 40.8115 682.123 40.7363 681.787 40.7363ZM688.382 40.0059C688.5 40.0059 688.624 40.013 688.753 40.0273C688.882 40.0381 688.996 40.0542 689.097 40.0757L688.984 40.9028C688.887 40.8778 688.78 40.8581 688.662 40.8438C688.543 40.8294 688.432 40.8223 688.329 40.8223C688.092 40.8223 687.868 40.8706 687.657 40.9673C687.45 41.0604 687.267 41.1965 687.109 41.3755C686.952 41.5509 686.828 41.764 686.739 42.0146C686.649 42.2617 686.604 42.5374 686.604 42.8418V46H685.708V40.1133H686.449L686.545 41.1982H686.583C686.705 40.9798 686.852 40.7811 687.023 40.6021C687.195 40.4194 687.394 40.2744 687.62 40.167C687.849 40.0596 688.103 40.0059 688.382 40.0059ZM694.017 44.3887C694.017 44.7646 693.922 45.0815 693.732 45.3394C693.546 45.5936 693.277 45.7852 692.926 45.9141C692.579 46.043 692.164 46.1074 691.68 46.1074C691.268 46.1074 690.912 46.0752 690.611 46.0107C690.311 45.9463 690.047 45.855 689.822 45.7368V44.915C690.062 45.0332 690.348 45.1406 690.681 45.2373C691.014 45.334 691.354 45.3823 691.702 45.3823C692.21 45.3823 692.579 45.3 692.808 45.1353C693.037 44.9705 693.152 44.7467 693.152 44.4639C693.152 44.3027 693.105 44.1613 693.012 44.0396C692.923 43.9142 692.771 43.7943 692.556 43.6797C692.341 43.5615 692.044 43.4326 691.664 43.293C691.288 43.1497 690.962 43.0083 690.687 42.8687C690.414 42.7254 690.203 42.5518 690.053 42.3477C689.906 42.1436 689.833 41.8786 689.833 41.5527C689.833 41.055 690.033 40.6737 690.434 40.4087C690.839 40.1401 691.369 40.0059 692.024 40.0059C692.378 40.0059 692.71 40.0417 693.018 40.1133C693.329 40.1813 693.619 40.2744 693.888 40.3926L693.587 41.1069C693.343 41.0031 693.084 40.9154 692.808 40.8438C692.532 40.7721 692.251 40.7363 691.965 40.7363C691.553 40.7363 691.236 40.8044 691.014 40.9404C690.796 41.0765 690.687 41.2627 690.687 41.499C690.687 41.6816 690.737 41.832 690.837 41.9502C690.941 42.0684 691.105 42.1794 691.331 42.2832C691.557 42.387 691.854 42.5088 692.223 42.6484C692.591 42.7845 692.91 42.9259 693.179 43.0728C693.447 43.216 693.653 43.3914 693.796 43.5991C693.943 43.8032 694.017 44.0664 694.017 44.3887Z" fill="black"/>
<rect x="620" y="66" width="24" height="24" fill="#ADD7D9"/>
<path d="M660.528 82L657.891 75.0498H657.848C657.862 75.1966 657.875 75.3757 657.885 75.5869C657.896 75.7982 657.905 76.0291 657.912 76.2798C657.919 76.5269 657.923 76.7793 657.923 77.0371V82H657.074V74.1475H658.428L660.915 80.6787H660.952L663.477 74.1475H664.819V82H663.917V76.9727C663.917 76.7399 663.921 76.5072 663.928 76.2744C663.935 76.0381 663.944 75.8161 663.955 75.6084C663.965 75.3971 663.976 75.2145 663.987 75.0605H663.944L661.274 82H660.528ZM669.036 76.0166C669.737 76.0166 670.258 76.1742 670.599 76.4893C670.939 76.8044 671.109 77.3075 671.109 77.9985V82H670.459L670.287 81.1299H670.244C670.079 81.3447 669.908 81.5256 669.729 81.6724C669.549 81.8156 669.342 81.9248 669.105 82C668.873 82.0716 668.586 82.1074 668.246 82.1074C667.888 82.1074 667.569 82.0448 667.29 81.9194C667.014 81.7941 666.796 81.6043 666.635 81.3501C666.477 81.0959 666.398 80.7736 666.398 80.3833C666.398 79.7961 666.631 79.3449 667.097 79.0298C667.562 78.7147 668.271 78.5428 669.224 78.5142L670.239 78.4712V78.1113C670.239 77.6029 670.13 77.2466 669.911 77.0425C669.693 76.8384 669.385 76.7363 668.987 76.7363C668.679 76.7363 668.386 76.7811 668.106 76.8706C667.827 76.9601 667.562 77.0658 667.312 77.1875L667.038 76.5107C667.303 76.3747 667.607 76.2583 667.951 76.1616C668.294 76.0649 668.656 76.0166 669.036 76.0166ZM670.228 79.0996L669.331 79.1372C668.597 79.1659 668.08 79.2858 667.779 79.4971C667.478 79.7083 667.328 80.0073 667.328 80.394C667.328 80.7306 667.43 80.9795 667.634 81.1406C667.838 81.3018 668.108 81.3823 668.445 81.3823C668.968 81.3823 669.396 81.2373 669.729 80.9473C670.062 80.6572 670.228 80.2222 670.228 79.6421V79.0996ZM675.621 76.0059C675.739 76.0059 675.862 76.013 675.991 76.0273C676.12 76.0381 676.235 76.0542 676.335 76.0757L676.222 76.9028C676.125 76.8778 676.018 76.8581 675.9 76.8438C675.782 76.8294 675.671 76.8223 675.567 76.8223C675.331 76.8223 675.107 76.8706 674.896 76.9673C674.688 77.0604 674.505 77.1965 674.348 77.3755C674.19 77.5509 674.067 77.764 673.977 78.0146C673.888 78.2617 673.843 78.5374 673.843 78.8418V82H672.946V76.1133H673.687L673.784 77.1982H673.821C673.943 76.9798 674.09 76.7811 674.262 76.6021C674.434 76.4194 674.632 76.2744 674.858 76.167C675.087 76.0596 675.341 76.0059 675.621 76.0059ZM679.09 84.6426C678.317 84.6426 677.721 84.4976 677.302 84.2075C676.883 83.9211 676.673 83.5182 676.673 82.999C676.673 82.6302 676.79 82.3151 677.022 82.0537C677.259 81.7923 677.585 81.6187 678 81.5327C677.846 81.4611 677.714 81.3537 677.603 81.2104C677.495 81.0672 677.441 80.9025 677.441 80.7163C677.441 80.5015 677.5 80.3135 677.619 80.1523C677.74 79.9876 677.925 79.8301 678.172 79.6797C677.864 79.5544 677.613 79.3431 677.42 79.0459C677.23 78.7451 677.135 78.396 677.135 77.9985C677.135 77.576 677.223 77.2161 677.398 76.9189C677.574 76.6182 677.828 76.389 678.161 76.2314C678.494 76.0739 678.897 75.9951 679.37 75.9951C679.473 75.9951 679.577 76.0005 679.681 76.0112C679.789 76.0184 679.891 76.0309 679.987 76.0488C680.084 76.0632 680.168 76.0811 680.24 76.1025H682.259V76.6772L681.174 76.8115C681.282 76.9512 681.371 77.1195 681.443 77.3164C681.514 77.5133 681.55 77.7318 681.55 77.9717C681.55 78.5589 681.352 79.0262 680.954 79.3735C680.557 79.7173 680.011 79.8892 679.316 79.8892C679.151 79.8892 678.983 79.8748 678.811 79.8462C678.636 79.9429 678.501 80.0503 678.408 80.1685C678.319 80.2866 678.274 80.4227 678.274 80.5767C678.274 80.6912 678.308 80.7826 678.376 80.8506C678.448 80.9186 678.55 80.9688 678.682 81.001C678.815 81.0296 678.974 81.0439 679.16 81.0439H680.197C680.838 81.0439 681.328 81.1782 681.668 81.4468C682.012 81.7153 682.184 82.1074 682.184 82.623C682.184 83.2747 681.919 83.7743 681.389 84.1216C680.859 84.4689 680.093 84.6426 679.09 84.6426ZM679.117 83.9443C679.604 83.9443 680.007 83.8942 680.326 83.7939C680.648 83.6973 680.888 83.5558 681.045 83.3696C681.207 83.187 681.287 82.9686 681.287 82.7144C681.287 82.478 681.233 82.299 681.126 82.1772C681.019 82.0591 680.861 81.9803 680.653 81.9409C680.446 81.8979 680.191 81.8765 679.891 81.8765H678.87C678.605 81.8765 678.374 81.9176 678.177 82C677.98 82.0824 677.828 82.2041 677.721 82.3652C677.617 82.5264 677.565 82.7269 677.565 82.9668C677.565 83.2855 677.699 83.5272 677.968 83.6919C678.236 83.8602 678.619 83.9443 679.117 83.9443ZM679.348 79.2393C679.774 79.2393 680.095 79.1318 680.31 78.917C680.524 78.7021 680.632 78.3888 680.632 77.9771C680.632 77.5366 680.523 77.2072 680.304 76.9888C680.086 76.7668 679.764 76.6558 679.337 76.6558C678.929 76.6558 678.614 76.7703 678.392 76.9995C678.174 77.2251 678.064 77.5563 678.064 77.9932C678.064 78.3942 678.175 78.7021 678.397 78.917C678.619 79.1318 678.936 79.2393 679.348 79.2393ZM684.311 76.1133V82H683.419V76.1133H684.311ZM683.876 73.9111C684.023 73.9111 684.148 73.9595 684.252 74.0562C684.359 74.1493 684.413 74.2961 684.413 74.4966C684.413 74.6935 684.359 74.8403 684.252 74.937C684.148 75.0337 684.023 75.082 683.876 75.082C683.722 75.082 683.593 75.0337 683.489 74.937C683.389 74.8403 683.339 74.6935 683.339 74.4966C683.339 74.2961 683.389 74.1493 683.489 74.0562C683.593 73.9595 683.722 73.9111 683.876 73.9111ZM688.989 76.0059C689.688 76.0059 690.216 76.1777 690.574 76.5215C690.932 76.8617 691.111 77.4095 691.111 78.165V82H690.23V78.2241C690.23 77.7336 690.117 77.3665 689.892 77.123C689.67 76.8796 689.328 76.7578 688.866 76.7578C688.214 76.7578 687.756 76.9422 687.491 77.311C687.226 77.6799 687.093 78.2152 687.093 78.917V82H686.202V76.1133H686.921L687.056 76.9619H687.104C687.229 76.7542 687.389 76.5806 687.582 76.4409C687.775 76.2977 687.992 76.1903 688.232 76.1187C688.472 76.0435 688.724 76.0059 688.989 76.0059ZM696.756 80.3887C696.756 80.7646 696.661 81.0815 696.471 81.3394C696.285 81.5936 696.016 81.7852 695.666 81.9141C695.318 82.043 694.903 82.1074 694.419 82.1074C694.008 82.1074 693.651 82.0752 693.351 82.0107C693.05 81.9463 692.787 81.855 692.561 81.7368V80.915C692.801 81.0332 693.087 81.1406 693.42 81.2373C693.753 81.334 694.094 81.3823 694.441 81.3823C694.949 81.3823 695.318 81.3 695.547 81.1353C695.777 80.9705 695.891 80.7467 695.891 80.4639C695.891 80.3027 695.845 80.1613 695.751 80.0396C695.662 79.9142 695.51 79.7943 695.295 79.6797C695.08 79.5615 694.783 79.4326 694.403 79.293C694.027 79.1497 693.701 79.0083 693.426 78.8687C693.154 78.7254 692.942 78.5518 692.792 78.3477C692.645 78.1436 692.572 77.8786 692.572 77.5527C692.572 77.055 692.772 76.6737 693.173 76.4087C693.578 76.1401 694.108 76.0059 694.763 76.0059C695.118 76.0059 695.449 76.0417 695.757 76.1133C696.068 76.1813 696.358 76.2744 696.627 76.3926L696.326 77.1069C696.083 77.0031 695.823 76.9154 695.547 76.8438C695.272 76.7721 694.991 76.7363 694.704 76.7363C694.292 76.7363 693.975 76.8044 693.753 76.9404C693.535 77.0765 693.426 77.2627 693.426 77.499C693.426 77.6816 693.476 77.832 693.576 77.9502C693.68 78.0684 693.845 78.1794 694.07 78.2832C694.296 78.387 694.593 78.5088 694.962 78.6484C695.331 78.7845 695.649 78.9259 695.918 79.0728C696.187 79.216 696.392 79.3914 696.536 79.5991C696.682 79.8032 696.756 80.0664 696.756 80.3887Z" fill="black"/>
<rect x="620" y="102" width="24" height="24" fill="#9CBCE1"/>
<path d="M660.431 110.84C659.998 110.84 659.608 110.916 659.26 111.066C658.917 111.213 658.623 111.428 658.379 111.71C658.139 111.99 657.955 112.328 657.826 112.726C657.697 113.123 657.633 113.571 657.633 114.068C657.633 114.727 657.735 115.3 657.939 115.787C658.147 116.271 658.455 116.645 658.863 116.91C659.275 117.175 659.788 117.307 660.404 117.307C660.755 117.307 661.085 117.278 661.393 117.221C661.704 117.16 662.007 117.085 662.3 116.996V117.791C662.014 117.898 661.713 117.977 661.398 118.027C661.083 118.081 660.709 118.107 660.275 118.107C659.477 118.107 658.809 117.943 658.272 117.613C657.738 117.28 657.337 116.811 657.069 116.206C656.804 115.601 656.671 114.887 656.671 114.063C656.671 113.469 656.754 112.926 656.918 112.436C657.087 111.941 657.33 111.515 657.649 111.157C657.971 110.799 658.365 110.523 658.831 110.33C659.3 110.133 659.837 110.035 660.442 110.035C660.839 110.035 661.222 110.074 661.591 110.153C661.96 110.232 662.293 110.344 662.59 110.491L662.225 111.265C661.974 111.15 661.699 111.052 661.398 110.969C661.101 110.883 660.778 110.84 660.431 110.84ZM668.944 115.046C668.944 115.529 668.882 115.961 668.756 116.34C668.631 116.72 668.45 117.04 668.214 117.302C667.978 117.563 667.691 117.764 667.354 117.903C667.021 118.039 666.644 118.107 666.221 118.107C665.827 118.107 665.466 118.039 665.136 117.903C664.81 117.764 664.528 117.563 664.288 117.302C664.051 117.04 663.867 116.72 663.734 116.34C663.605 115.961 663.541 115.529 663.541 115.046C663.541 114.401 663.65 113.854 663.869 113.402C664.087 112.948 664.399 112.602 664.803 112.366C665.211 112.126 665.697 112.006 666.259 112.006C666.796 112.006 667.265 112.126 667.666 112.366C668.071 112.606 668.384 112.953 668.606 113.408C668.832 113.859 668.944 114.405 668.944 115.046ZM664.465 115.046C664.465 115.519 664.528 115.929 664.653 116.276C664.778 116.623 664.972 116.892 665.233 117.082C665.494 117.271 665.831 117.366 666.243 117.366C666.651 117.366 666.986 117.271 667.247 117.082C667.512 116.892 667.707 116.623 667.833 116.276C667.958 115.929 668.021 115.519 668.021 115.046C668.021 114.577 667.958 114.172 667.833 113.832C667.707 113.488 667.514 113.223 667.252 113.037C666.991 112.851 666.653 112.758 666.237 112.758C665.625 112.758 665.176 112.96 664.889 113.365C664.606 113.769 664.465 114.33 664.465 115.046ZM671.383 118H670.486V109.643H671.383V118ZM678.129 112.113V118H677.398L677.27 117.173H677.221C677.099 117.377 676.942 117.549 676.749 117.688C676.555 117.828 676.337 117.932 676.093 118C675.853 118.072 675.597 118.107 675.325 118.107C674.86 118.107 674.469 118.032 674.154 117.882C673.839 117.731 673.601 117.499 673.44 117.184C673.282 116.868 673.204 116.464 673.204 115.97V112.113H674.106V115.905C674.106 116.396 674.217 116.763 674.439 117.006C674.661 117.246 674.999 117.366 675.454 117.366C675.891 117.366 676.238 117.284 676.496 117.119C676.757 116.954 676.945 116.713 677.06 116.394C677.175 116.072 677.232 115.678 677.232 115.212V112.113H678.129ZM686.406 112.006C687.054 112.006 687.543 112.176 687.872 112.516C688.201 112.853 688.366 113.395 688.366 114.144V118H687.485V114.187C687.485 113.71 687.382 113.354 687.174 113.118C686.97 112.878 686.665 112.758 686.261 112.758C685.691 112.758 685.278 112.923 685.02 113.252C684.762 113.581 684.633 114.067 684.633 114.708V118H683.747V114.187C683.747 113.868 683.701 113.603 683.607 113.392C683.518 113.18 683.382 113.023 683.199 112.919C683.02 112.812 682.793 112.758 682.517 112.758C682.127 112.758 681.813 112.838 681.577 113C681.341 113.161 681.169 113.401 681.062 113.719C680.958 114.034 680.906 114.423 680.906 114.885V118H680.014V112.113H680.734L680.868 112.946H680.917C681.035 112.742 681.183 112.57 681.362 112.43C681.541 112.291 681.742 112.185 681.964 112.113C682.186 112.042 682.422 112.006 682.673 112.006C683.12 112.006 683.495 112.09 683.795 112.258C684.1 112.423 684.32 112.675 684.456 113.016H684.504C684.698 112.675 684.963 112.423 685.299 112.258C685.636 112.09 686.005 112.006 686.406 112.006ZM692.985 112.006C693.684 112.006 694.212 112.178 694.57 112.521C694.928 112.862 695.107 113.41 695.107 114.165V118H694.226V114.224C694.226 113.734 694.113 113.367 693.888 113.123C693.666 112.88 693.324 112.758 692.862 112.758C692.21 112.758 691.752 112.942 691.487 113.311C691.222 113.68 691.089 114.215 691.089 114.917V118H690.198V112.113H690.917L691.052 112.962H691.1C691.225 112.754 691.385 112.581 691.578 112.441C691.771 112.298 691.988 112.19 692.228 112.119C692.468 112.043 692.72 112.006 692.985 112.006ZM700.752 116.389C700.752 116.765 700.657 117.082 700.467 117.339C700.281 117.594 700.013 117.785 699.662 117.914C699.314 118.043 698.899 118.107 698.416 118.107C698.004 118.107 697.647 118.075 697.347 118.011C697.046 117.946 696.783 117.855 696.557 117.737V116.915C696.797 117.033 697.083 117.141 697.417 117.237C697.75 117.334 698.09 117.382 698.437 117.382C698.945 117.382 699.314 117.3 699.543 117.135C699.773 116.971 699.887 116.747 699.887 116.464C699.887 116.303 699.841 116.161 699.748 116.04C699.658 115.914 699.506 115.794 699.291 115.68C699.076 115.562 698.779 115.433 698.399 115.293C698.023 115.15 697.698 115.008 697.422 114.869C697.15 114.725 696.938 114.552 696.788 114.348C696.641 114.144 696.568 113.879 696.568 113.553C696.568 113.055 696.768 112.674 697.169 112.409C697.574 112.14 698.104 112.006 698.759 112.006C699.114 112.006 699.445 112.042 699.753 112.113C700.064 112.181 700.354 112.274 700.623 112.393L700.322 113.107C700.079 113.003 699.819 112.915 699.543 112.844C699.268 112.772 698.987 112.736 698.7 112.736C698.288 112.736 697.972 112.804 697.75 112.94C697.531 113.076 697.422 113.263 697.422 113.499C697.422 113.682 697.472 113.832 697.572 113.95C697.676 114.068 697.841 114.179 698.066 114.283C698.292 114.387 698.589 114.509 698.958 114.648C699.327 114.785 699.646 114.926 699.914 115.073C700.183 115.216 700.389 115.391 700.532 115.599C700.679 115.803 700.752 116.066 700.752 116.389Z" fill="black"/>
</svg>
