<svg width="889" height="380" viewBox="0 0 889 380" fill="none" xmlns="http://www.w3.org/2000/svg">
<rect width="889" height="380" fill="#F2F4F6"/>
<path d="M42.5 26C42.5 24.8954 43.3954 24 44.5 24H100.5C101.605 24 102.5 24.8954 102.5 26V36H42.5V26Z" fill="#C5C9D0"/>
<circle cx="48.5" cy="30" r="2" fill="#F2F4F6"/>
<circle cx="54.5" cy="30" r="2" fill="#F2F4F6"/>
<circle cx="60.5" cy="30" r="2" fill="#F2F4F6"/>
<path d="M118.5 26C118.5 24.8954 119.395 24 120.5 24H206.5C207.605 24 208.5 24.8954 208.5 26V36H118.5V26Z" fill="#C5C9D0"/>
<circle cx="124.5" cy="30" r="2" fill="#F2F4F6"/>
<circle cx="130.5" cy="30" r="2" fill="#F2F4F6"/>
<circle cx="136.5" cy="30" r="2" fill="#F2F4F6"/>
<path d="M224.5 26C224.5 24.8954 225.395 24 226.5 24H342.5C343.605 24 344.5 24.8954 344.5 26V36H224.5V26Z" fill="#C5C9D0"/>
<circle cx="230.5" cy="30" r="2" fill="#F2F4F6"/>
<circle cx="236.5" cy="30" r="2" fill="#F2F4F6"/>
<circle cx="242.5" cy="30" r="2" fill="#F2F4F6"/>
<path d="M360.5 26C360.5 24.8954 361.395 24 362.5 24H548.5C549.605 24 550.5 24.8954 550.5 26V36H360.5V26Z" fill="#C5C9D0"/>
<circle cx="366.5" cy="30" r="2" fill="#F2F4F6"/>
<circle cx="372.5" cy="30" r="2" fill="#F2F4F6"/>
<circle cx="378.5" cy="30" r="2" fill="#F2F4F6"/>
<path d="M566.5 26C566.5 24.8954 567.395 24 568.5 24H844.5C845.605 24 846.5 24.8954 846.5 26V36H566.5V26Z" fill="#C5C9D0"/>
<circle cx="572.5" cy="30" r="2" fill="#F2F4F6"/>
<circle cx="578.5" cy="30" r="2" fill="#F2F4F6"/>
<circle cx="584.5" cy="30" r="2" fill="#F2F4F6"/>
<rect x="42.5" y="36" width="6" height="280" fill="white"/>
<rect x="48.5" y="316" width="280" height="21" transform="rotate(-90 48.5 316)" fill="#FAE4E1"/>
<rect x="69.5" y="36" width="6" height="280" fill="white"/>
<rect x="75.5" y="316" width="280" height="21" transform="rotate(-90 75.5 316)" fill="#FAE4E1"/>
<rect x="96.5" y="36" width="6" height="280" fill="white"/>
<rect x="118.5" y="36" width="6" height="280" fill="white"/>
<rect x="124.5" y="316" width="280" height="15" transform="rotate(-90 124.5 316)" fill="#FAE4E1"/>
<rect x="139.5" y="36" width="6" height="280" fill="white"/>
<rect x="145.5" y="316" width="280" height="15" transform="rotate(-90 145.5 316)" fill="#FAE4E1"/>
<rect x="160.5" y="36" width="6" height="280" fill="white"/>
<rect x="166.5" y="316" width="280" height="15" transform="rotate(-90 166.5 316)" fill="#FAE4E1"/>
<rect x="181.5" y="36" width="6" height="280" fill="white"/>
<rect x="187.5" y="316" width="280" height="15" transform="rotate(-90 187.5 316)" fill="#FAE4E1"/>
<rect x="202.5" y="36" width="6" height="280" fill="white"/>
<rect x="224.5" y="36" width="6" height="280" fill="white"/>
<rect x="230.5" y="316" width="280" height="13" transform="rotate(-90 230.5 316)" fill="#FAE4E1"/>
<rect x="243.5" y="36" width="6" height="280" fill="white"/>
<rect x="249.5" y="316" width="280" height="13" transform="rotate(-90 249.5 316)" fill="#FAE4E1"/>
<rect x="262.5" y="36" width="6" height="280" fill="white"/>
<rect x="268.5" y="316" width="280" height="13" transform="rotate(-90 268.5 316)" fill="#FAE4E1"/>
<rect x="281.5" y="36" width="6" height="280" fill="white"/>
<rect x="287.5" y="316" width="280" height="13" transform="rotate(-90 287.5 316)" fill="#FAE4E1"/>
<rect x="300.5" y="36" width="6" height="280" fill="white"/>
<rect x="306.5" y="316" width="280" height="13" transform="rotate(-90 306.5 316)" fill="#FAE4E1"/>
<rect x="319.5" y="36" width="6" height="280" fill="white"/>
<rect x="325.5" y="316" width="280" height="13" transform="rotate(-90 325.5 316)" fill="#FAE4E1"/>
<rect x="338.5" y="36" width="6" height="280" fill="white"/>
<rect x="360.5" y="36" width="6" height="280" fill="white"/>
<rect x="366.5" y="316" width="280" height="17" transform="rotate(-90 366.5 316)" fill="#FAE4E1"/>
<rect x="383.5" y="36" width="6" height="280" fill="white"/>
<rect x="389.5" y="316" width="280" height="17" transform="rotate(-90 389.5 316)" fill="#FAE4E1"/>
<rect x="406.5" y="36" width="6" height="280" fill="white"/>
<rect x="412.5" y="316" width="280" height="17" transform="rotate(-90 412.5 316)" fill="#FAE4E1"/>
<rect x="429.5" y="36" width="6" height="280" fill="white"/>
<rect x="435.5" y="316" width="280" height="17" transform="rotate(-90 435.5 316)" fill="#FAE4E1"/>
<rect x="452.5" y="36" width="6" height="280" fill="white"/>
<rect x="458.5" y="316" width="280" height="17" transform="rotate(-90 458.5 316)" fill="#FAE4E1"/>
<rect x="475.5" y="36" width="6" height="280" fill="white"/>
<rect x="481.5" y="316" width="280" height="17" transform="rotate(-90 481.5 316)" fill="#FAE4E1"/>
<rect x="498.5" y="36" width="6" height="280" fill="white"/>
<rect x="504.5" y="316" width="280" height="17" transform="rotate(-90 504.5 316)" fill="#FAE4E1"/>
<rect x="521.5" y="36" width="6" height="280" fill="white"/>
<rect x="527.5" y="316" width="280" height="17" transform="rotate(-90 527.5 316)" fill="#FAE4E1"/>
<rect x="544.5" y="36" width="6" height="280" fill="white"/>
<rect x="566.5" y="36" width="6" height="280" fill="white"/>
<rect x="572.5" y="316" width="280" height="16.8333" transform="rotate(-90 572.5 316)" fill="#FAE4E1"/>
<rect x="589.333" y="36" width="6" height="280" fill="white"/>
<rect x="595.333" y="316" width="280" height="16.8333" transform="rotate(-90 595.333 316)" fill="#FAE4E1"/>
<rect x="612.167" y="36" width="6" height="280" fill="white"/>
<rect x="618.167" y="316" width="280" height="16.8333" transform="rotate(-90 618.167 316)" fill="#FAE4E1"/>
<rect x="635" y="36" width="6" height="280" fill="white"/>
<rect x="641" y="316" width="280" height="16.8333" transform="rotate(-90 641 316)" fill="#FAE4E1"/>
<rect x="657.833" y="36" width="6" height="280" fill="white"/>
<rect x="663.833" y="316" width="280" height="16.8333" transform="rotate(-90 663.833 316)" fill="#FAE4E1"/>
<rect x="680.667" y="36" width="6" height="280" fill="white"/>
<rect x="686.667" y="316" width="280" height="16.8333" transform="rotate(-90 686.667 316)" fill="#FAE4E1"/>
<rect x="703.5" y="36" width="6" height="280" fill="white"/>
<rect x="709.5" y="316" width="280" height="16.8333" transform="rotate(-90 709.5 316)" fill="#FAE4E1"/>
<rect x="726.333" y="36" width="6" height="280" fill="white"/>
<rect x="732.333" y="316" width="280" height="16.8333" transform="rotate(-90 732.333 316)" fill="#FAE4E1"/>
<rect x="749.167" y="36" width="6" height="280" fill="white"/>
<rect x="755.167" y="316" width="280" height="16.8333" transform="rotate(-90 755.167 316)" fill="#FAE4E1"/>
<rect x="772" y="36" width="6" height="280" fill="white"/>
<rect x="778" y="316" width="280" height="16.8333" transform="rotate(-90 778 316)" fill="#FAE4E1"/>
<rect x="794.833" y="36" width="6" height="280" fill="white"/>
<rect x="800.833" y="316" width="280" height="16.8333" transform="rotate(-90 800.833 316)" fill="#FAE4E1"/>
<rect x="817.667" y="36" width="6" height="280" fill="white"/>
<rect x="823.667" y="316" width="280" height="16.8333" transform="rotate(-90 823.667 316)" fill="#FAE4E1"/>
<rect x="840.5" y="36" width="6" height="280" fill="white"/>
<path d="M43 345L43 344.5L42 344.5L42 345L43 345ZM43 351L43 345L42 345L42 351L43 351Z" fill="#964EA2"/>
<path d="M56.5 348.5H57V347.5H56.5V348.5ZM42.5 348.5H56.5V347.5H42.5V348.5Z" fill="#964EA2"/>
<path d="M72.3906 353H71.2598L68.9453 349.227L66.5957 353H65.5352L68.3887 348.535L65.7344 344.434H66.8418L68.9805 347.85L71.1309 344.434H72.1855L69.5371 348.518L72.3906 353ZM78.4434 350.721C78.4434 351.229 78.3164 351.662 78.0625 352.021C77.8125 352.377 77.4609 352.648 77.0078 352.836C76.5547 353.023 76.0215 353.117 75.4082 353.117C75.084 353.117 74.7773 353.102 74.4883 353.07C74.1992 353.039 73.9336 352.994 73.6914 352.936C73.4492 352.877 73.2363 352.805 73.0527 352.719V351.764C73.3457 351.885 73.7031 351.998 74.125 352.104C74.5469 352.205 74.9883 352.256 75.4492 352.256C75.8789 352.256 76.2422 352.199 76.5391 352.086C76.8359 351.969 77.0605 351.803 77.2129 351.588C77.3691 351.369 77.4473 351.107 77.4473 350.803C77.4473 350.51 77.3828 350.266 77.2539 350.07C77.125 349.871 76.9102 349.691 76.6094 349.531C76.3125 349.367 75.9062 349.193 75.3906 349.01C75.0273 348.881 74.707 348.74 74.4297 348.588C74.1523 348.432 73.9199 348.256 73.7324 348.061C73.5449 347.865 73.4023 347.639 73.3047 347.381C73.2109 347.123 73.1641 346.828 73.1641 346.496C73.1641 346.039 73.2793 345.648 73.5098 345.324C73.7441 344.996 74.0664 344.746 74.4766 344.574C74.8906 344.398 75.3652 344.311 75.9004 344.311C76.3574 344.311 76.7793 344.354 77.166 344.439C77.5566 344.525 77.9141 344.641 78.2383 344.785L77.9277 345.641C77.6191 345.512 77.291 345.404 76.9434 345.318C76.5996 345.232 76.2441 345.189 75.877 345.189C75.5098 345.189 75.1992 345.244 74.9453 345.354C74.6953 345.459 74.5039 345.609 74.3711 345.805C74.2383 346 74.1719 346.232 74.1719 346.502C74.1719 346.803 74.2344 347.053 74.3594 347.252C74.4883 347.451 74.6914 347.629 74.9688 347.785C75.25 347.938 75.6211 348.098 76.082 348.266C76.5859 348.449 77.0137 348.645 77.3652 348.852C77.7168 349.055 77.9844 349.305 78.168 349.602C78.3516 349.895 78.4434 350.268 78.4434 350.721Z" fill="#964EA2"/>
<path d="M102.5 348.5H103V347.5H102.5V348.5ZM88.5 348.5H102.5V347.5H88.5V348.5Z" fill="#964EA2"/>
<path d="M103 345L103 344.5L102 344.5L102 345L103 345ZM103 351L103 345L102 345L102 351L103 351Z" fill="#964EA2"/>
<path d="M119 345L119 344.5L118 344.5L118 345L119 345ZM119 351L119 345L118 345L118 351L119 351Z" fill="#964EA2"/>
<path d="M139 348.5H139.5V347.5H139V348.5ZM118.5 348.5H139V347.5H118.5V348.5Z" fill="#964EA2"/>
<path d="M154.006 350.721C154.006 351.229 153.879 351.662 153.625 352.021C153.375 352.377 153.023 352.648 152.57 352.836C152.117 353.023 151.584 353.117 150.971 353.117C150.646 353.117 150.34 353.102 150.051 353.07C149.762 353.039 149.496 352.994 149.254 352.936C149.012 352.877 148.799 352.805 148.615 352.719V351.764C148.908 351.885 149.266 351.998 149.688 352.104C150.109 352.205 150.551 352.256 151.012 352.256C151.441 352.256 151.805 352.199 152.102 352.086C152.398 351.969 152.623 351.803 152.775 351.588C152.932 351.369 153.01 351.107 153.01 350.803C153.01 350.51 152.945 350.266 152.816 350.07C152.688 349.871 152.473 349.691 152.172 349.531C151.875 349.367 151.469 349.193 150.953 349.01C150.59 348.881 150.27 348.74 149.992 348.588C149.715 348.432 149.482 348.256 149.295 348.061C149.107 347.865 148.965 347.639 148.867 347.381C148.773 347.123 148.727 346.828 148.727 346.496C148.727 346.039 148.842 345.648 149.072 345.324C149.307 344.996 149.629 344.746 150.039 344.574C150.453 344.398 150.928 344.311 151.463 344.311C151.92 344.311 152.342 344.354 152.729 344.439C153.119 344.525 153.477 344.641 153.801 344.785L153.49 345.641C153.182 345.512 152.854 345.404 152.506 345.318C152.162 345.232 151.807 345.189 151.439 345.189C151.072 345.189 150.762 345.244 150.508 345.354C150.258 345.459 150.066 345.609 149.934 345.805C149.801 346 149.734 346.232 149.734 346.502C149.734 346.803 149.797 347.053 149.922 347.252C150.051 347.451 150.254 347.629 150.531 347.785C150.812 347.938 151.184 348.098 151.645 348.266C152.148 348.449 152.576 348.645 152.928 348.852C153.279 349.055 153.547 349.305 153.73 349.602C153.914 349.895 154.006 350.268 154.006 350.721ZM162.584 346.461C163.291 346.461 163.824 346.646 164.184 347.018C164.543 347.385 164.723 347.977 164.723 348.793V353H163.762V348.84C163.762 348.32 163.648 347.932 163.422 347.674C163.199 347.412 162.867 347.281 162.426 347.281C161.805 347.281 161.354 347.461 161.072 347.82C160.791 348.18 160.65 348.709 160.65 349.408V353H159.684V348.84C159.684 348.492 159.633 348.203 159.531 347.973C159.434 347.742 159.285 347.57 159.086 347.457C158.891 347.34 158.643 347.281 158.342 347.281C157.916 347.281 157.574 347.369 157.316 347.545C157.059 347.721 156.871 347.982 156.754 348.33C156.641 348.674 156.584 349.098 156.584 349.602V353H155.611V346.578H156.396L156.543 347.486H156.596C156.725 347.264 156.887 347.076 157.082 346.924C157.277 346.771 157.496 346.656 157.738 346.578C157.98 346.5 158.238 346.461 158.512 346.461C159 346.461 159.408 346.553 159.736 346.736C160.068 346.916 160.309 347.191 160.457 347.562H160.51C160.721 347.191 161.01 346.916 161.377 346.736C161.744 346.553 162.146 346.461 162.584 346.461ZM169.123 346.473C169.889 346.473 170.457 346.645 170.828 346.988C171.199 347.332 171.385 347.881 171.385 348.635V353H170.676L170.488 352.051H170.441C170.262 352.285 170.074 352.482 169.879 352.643C169.684 352.799 169.457 352.918 169.199 353C168.945 353.078 168.633 353.117 168.262 353.117C167.871 353.117 167.523 353.049 167.219 352.912C166.918 352.775 166.68 352.568 166.504 352.291C166.332 352.014 166.246 351.662 166.246 351.236C166.246 350.596 166.5 350.104 167.008 349.76C167.516 349.416 168.289 349.229 169.328 349.197L170.436 349.15V348.758C170.436 348.203 170.316 347.814 170.078 347.592C169.84 347.369 169.504 347.258 169.07 347.258C168.734 347.258 168.414 347.307 168.109 347.404C167.805 347.502 167.516 347.617 167.242 347.75L166.943 347.012C167.232 346.863 167.564 346.736 167.939 346.631C168.314 346.525 168.709 346.473 169.123 346.473ZM170.424 349.836L169.445 349.877C168.645 349.908 168.08 350.039 167.752 350.27C167.424 350.5 167.26 350.826 167.26 351.248C167.26 351.615 167.371 351.887 167.594 352.062C167.816 352.238 168.111 352.326 168.479 352.326C169.049 352.326 169.516 352.168 169.879 351.852C170.242 351.535 170.424 351.061 170.424 350.428V349.836ZM174.367 353H173.389V343.883H174.367V353ZM177.402 353H176.424V343.883H177.402V353Z" fill="#964EA2"/>
<path d="M208.5 348.5H209V347.5H208.5V348.5ZM188 348.5H208.5V347.5H188V348.5Z" fill="#964EA2"/>
<path d="M209 345L209 344.5L208 344.5L208 345L209 345ZM209 351L209 345L208 345L208 351L209 351Z" fill="#964EA2"/>
<path d="M225 345L225 344.5L224 344.5L224 345L225 345ZM225 351L225 345L224 345L224 351L225 351Z" fill="#964EA2"/>
<path d="M252 348.5H252.5V347.5H252V348.5ZM224.5 348.5H252V347.5H224.5V348.5Z" fill="#964EA2"/>
<path d="M265.939 353L263.062 345.418H263.016C263.031 345.578 263.045 345.773 263.057 346.004C263.068 346.234 263.078 346.486 263.086 346.76C263.094 347.029 263.098 347.305 263.098 347.586V353H262.172V344.434H263.648L266.361 351.559H266.402L269.156 344.434H270.621V353H269.637V347.516C269.637 347.262 269.641 347.008 269.648 346.754C269.656 346.496 269.666 346.254 269.678 346.027C269.689 345.797 269.701 345.598 269.713 345.43H269.666L266.754 353H265.939ZM275.291 346.461C275.838 346.461 276.307 346.582 276.697 346.824C277.088 347.066 277.387 347.406 277.594 347.844C277.801 348.277 277.904 348.785 277.904 349.367V349.971H273.469C273.48 350.725 273.668 351.299 274.031 351.693C274.395 352.088 274.906 352.285 275.566 352.285C275.973 352.285 276.332 352.248 276.645 352.174C276.957 352.1 277.281 351.99 277.617 351.846V352.701C277.293 352.846 276.971 352.951 276.65 353.018C276.334 353.084 275.959 353.117 275.525 353.117C274.908 353.117 274.369 352.992 273.908 352.742C273.451 352.488 273.096 352.117 272.842 351.629C272.588 351.141 272.461 350.543 272.461 349.836C272.461 349.145 272.576 348.547 272.807 348.043C273.041 347.535 273.369 347.145 273.791 346.871C274.217 346.598 274.717 346.461 275.291 346.461ZM275.279 347.258C274.76 347.258 274.346 347.428 274.037 347.768C273.729 348.107 273.545 348.582 273.486 349.191H276.885C276.881 348.809 276.82 348.473 276.703 348.184C276.59 347.891 276.416 347.664 276.182 347.504C275.947 347.34 275.646 347.258 275.279 347.258ZM281.842 353.117C281.029 353.117 280.385 352.84 279.908 352.285C279.436 351.73 279.199 350.906 279.199 349.812C279.199 348.707 279.441 347.873 279.926 347.311C280.41 346.744 281.055 346.461 281.859 346.461C282.199 346.461 282.496 346.506 282.75 346.596C283.004 346.686 283.223 346.807 283.406 346.959C283.59 347.107 283.744 347.277 283.869 347.469H283.939C283.924 347.348 283.908 347.182 283.893 346.971C283.877 346.76 283.869 346.588 283.869 346.455V343.883H284.842V353H284.057L283.91 352.086H283.869C283.748 352.277 283.594 352.451 283.406 352.607C283.223 352.764 283.002 352.889 282.744 352.982C282.49 353.072 282.189 353.117 281.842 353.117ZM281.994 352.309C282.682 352.309 283.168 352.113 283.453 351.723C283.738 351.332 283.881 350.752 283.881 349.982V349.807C283.881 348.99 283.744 348.363 283.471 347.926C283.201 347.488 282.709 347.27 281.994 347.27C281.396 347.27 280.949 347.5 280.652 347.961C280.355 348.418 280.207 349.043 280.207 349.836C280.207 350.625 280.354 351.234 280.646 351.664C280.943 352.094 281.393 352.309 281.994 352.309ZM287.877 346.578V353H286.904V346.578H287.877ZM287.402 344.176C287.562 344.176 287.699 344.229 287.812 344.334C287.93 344.436 287.988 344.596 287.988 344.814C287.988 345.029 287.93 345.189 287.812 345.295C287.699 345.4 287.562 345.453 287.402 345.453C287.234 345.453 287.094 345.4 286.98 345.295C286.871 345.189 286.816 345.029 286.816 344.814C286.816 344.596 286.871 344.436 286.98 344.334C287.094 344.229 287.234 344.176 287.402 344.176ZM295.242 346.578V353H294.445L294.305 352.098H294.252C294.119 352.32 293.947 352.508 293.736 352.66C293.525 352.812 293.287 352.926 293.021 353C292.76 353.078 292.48 353.117 292.184 353.117C291.676 353.117 291.25 353.035 290.906 352.871C290.562 352.707 290.303 352.453 290.127 352.109C289.955 351.766 289.869 351.324 289.869 350.785V346.578H290.854V350.715C290.854 351.25 290.975 351.65 291.217 351.916C291.459 352.178 291.828 352.309 292.324 352.309C292.801 352.309 293.18 352.219 293.461 352.039C293.746 351.859 293.951 351.596 294.076 351.248C294.201 350.896 294.264 350.467 294.264 349.959V346.578H295.242ZM304.271 346.461C304.979 346.461 305.512 346.646 305.871 347.018C306.23 347.385 306.41 347.977 306.41 348.793V353H305.449V348.84C305.449 348.32 305.336 347.932 305.109 347.674C304.887 347.412 304.555 347.281 304.113 347.281C303.492 347.281 303.041 347.461 302.76 347.82C302.479 348.18 302.338 348.709 302.338 349.408V353H301.371V348.84C301.371 348.492 301.32 348.203 301.219 347.973C301.121 347.742 300.973 347.57 300.773 347.457C300.578 347.34 300.33 347.281 300.029 347.281C299.604 347.281 299.262 347.369 299.004 347.545C298.746 347.721 298.559 347.982 298.441 348.33C298.328 348.674 298.271 349.098 298.271 349.602V353H297.299V346.578H298.084L298.23 347.486H298.283C298.412 347.264 298.574 347.076 298.77 346.924C298.965 346.771 299.184 346.656 299.426 346.578C299.668 346.5 299.926 346.461 300.199 346.461C300.688 346.461 301.096 346.553 301.424 346.736C301.756 346.916 301.996 347.191 302.145 347.562H302.197C302.408 347.191 302.697 346.916 303.064 346.736C303.432 346.553 303.834 346.461 304.271 346.461Z" fill="#964EA2"/>
<path d="M344.5 348.5H345V347.5H344.5V348.5ZM317 348.5H344.5V347.5H317V348.5Z" fill="#964EA2"/>
<path d="M345 345L345 344.5L344 344.5L344 345L345 345ZM345 351L345 345L344 345L344 351L345 351Z" fill="#964EA2"/>
<path d="M361 345L361 344.5L360 344.5L360 345L361 345ZM361 351L361 345L360 345L360 351L361 351Z" fill="#964EA2"/>
<path d="M430.5 348.5H431V347.5H430.5V348.5ZM360.5 348.5H430.5V347.5H360.5V348.5Z" fill="#964EA2"/>
<path d="M440.672 353V344.434H441.668V352.109H445.471V353H440.672ZM449.197 346.473C449.963 346.473 450.531 346.645 450.902 346.988C451.273 347.332 451.459 347.881 451.459 348.635V353H450.75L450.562 352.051H450.516C450.336 352.285 450.148 352.482 449.953 352.643C449.758 352.799 449.531 352.918 449.273 353C449.02 353.078 448.707 353.117 448.336 353.117C447.945 353.117 447.598 353.049 447.293 352.912C446.992 352.775 446.754 352.568 446.578 352.291C446.406 352.014 446.32 351.662 446.32 351.236C446.32 350.596 446.574 350.104 447.082 349.76C447.59 349.416 448.363 349.229 449.402 349.197L450.51 349.15V348.758C450.51 348.203 450.391 347.814 450.152 347.592C449.914 347.369 449.578 347.258 449.145 347.258C448.809 347.258 448.488 347.307 448.184 347.404C447.879 347.502 447.59 347.617 447.316 347.75L447.018 347.012C447.307 346.863 447.639 346.736 448.014 346.631C448.389 346.525 448.783 346.473 449.197 346.473ZM450.498 349.836L449.52 349.877C448.719 349.908 448.154 350.039 447.826 350.27C447.498 350.5 447.334 350.826 447.334 351.248C447.334 351.615 447.445 351.887 447.668 352.062C447.891 352.238 448.186 352.326 448.553 352.326C449.123 352.326 449.59 352.168 449.953 351.852C450.316 351.535 450.498 351.061 450.498 350.428V349.836ZM456.381 346.461C456.51 346.461 456.645 346.469 456.785 346.484C456.926 346.496 457.051 346.514 457.16 346.537L457.037 347.439C456.932 347.412 456.814 347.391 456.686 347.375C456.557 347.359 456.436 347.352 456.322 347.352C456.064 347.352 455.82 347.404 455.59 347.51C455.363 347.611 455.164 347.76 454.992 347.955C454.82 348.146 454.686 348.379 454.588 348.652C454.49 348.922 454.441 349.223 454.441 349.555V353H453.463V346.578H454.271L454.377 347.762H454.418C454.551 347.523 454.711 347.307 454.898 347.111C455.086 346.912 455.303 346.754 455.549 346.637C455.799 346.52 456.076 346.461 456.381 346.461ZM460.166 355.883C459.322 355.883 458.672 355.725 458.215 355.408C457.758 355.096 457.529 354.656 457.529 354.09C457.529 353.688 457.656 353.344 457.91 353.059C458.168 352.773 458.523 352.584 458.977 352.49C458.809 352.412 458.664 352.295 458.543 352.139C458.426 351.982 458.367 351.803 458.367 351.6C458.367 351.365 458.432 351.16 458.561 350.984C458.693 350.805 458.895 350.633 459.164 350.469C458.828 350.332 458.555 350.102 458.344 349.777C458.137 349.449 458.033 349.068 458.033 348.635C458.033 348.174 458.129 347.781 458.32 347.457C458.512 347.129 458.789 346.879 459.152 346.707C459.516 346.535 459.955 346.449 460.471 346.449C460.584 346.449 460.697 346.455 460.811 346.467C460.928 346.475 461.039 346.488 461.145 346.508C461.25 346.523 461.342 346.543 461.42 346.566H463.623V347.193L462.439 347.34C462.557 347.492 462.654 347.676 462.732 347.891C462.811 348.105 462.85 348.344 462.85 348.605C462.85 349.246 462.633 349.756 462.199 350.135C461.766 350.51 461.17 350.697 460.412 350.697C460.232 350.697 460.049 350.682 459.861 350.65C459.67 350.756 459.523 350.873 459.422 351.002C459.324 351.131 459.275 351.279 459.275 351.447C459.275 351.572 459.312 351.672 459.387 351.746C459.465 351.82 459.576 351.875 459.721 351.91C459.865 351.941 460.039 351.957 460.242 351.957H461.373C462.072 351.957 462.607 352.104 462.979 352.396C463.354 352.689 463.541 353.117 463.541 353.68C463.541 354.391 463.252 354.936 462.674 355.314C462.096 355.693 461.26 355.883 460.166 355.883ZM460.195 355.121C460.727 355.121 461.166 355.066 461.514 354.957C461.865 354.852 462.127 354.697 462.299 354.494C462.475 354.295 462.562 354.057 462.562 353.779C462.562 353.521 462.504 353.326 462.387 353.193C462.27 353.064 462.098 352.979 461.871 352.936C461.645 352.889 461.367 352.865 461.039 352.865H459.926C459.637 352.865 459.385 352.91 459.17 353C458.955 353.09 458.789 353.223 458.672 353.398C458.559 353.574 458.502 353.793 458.502 354.055C458.502 354.402 458.648 354.666 458.941 354.846C459.234 355.029 459.652 355.121 460.195 355.121ZM460.447 349.988C460.912 349.988 461.262 349.871 461.496 349.637C461.73 349.402 461.848 349.061 461.848 348.611C461.848 348.131 461.729 347.771 461.49 347.533C461.252 347.291 460.9 347.17 460.436 347.17C459.99 347.17 459.646 347.295 459.404 347.545C459.166 347.791 459.047 348.152 459.047 348.629C459.047 349.066 459.168 349.402 459.41 349.637C459.652 349.871 459.998 349.988 460.447 349.988ZM467.361 346.461C467.908 346.461 468.377 346.582 468.768 346.824C469.158 347.066 469.457 347.406 469.664 347.844C469.871 348.277 469.975 348.785 469.975 349.367V349.971H465.539C465.551 350.725 465.738 351.299 466.102 351.693C466.465 352.088 466.977 352.285 467.637 352.285C468.043 352.285 468.402 352.248 468.715 352.174C469.027 352.1 469.352 351.99 469.688 351.846V352.701C469.363 352.846 469.041 352.951 468.721 353.018C468.404 353.084 468.029 353.117 467.596 353.117C466.979 353.117 466.439 352.992 465.979 352.742C465.521 352.488 465.166 352.117 464.912 351.629C464.658 351.141 464.531 350.543 464.531 349.836C464.531 349.145 464.646 348.547 464.877 348.043C465.111 347.535 465.439 347.145 465.861 346.871C466.287 346.598 466.787 346.461 467.361 346.461ZM467.35 347.258C466.83 347.258 466.416 347.428 466.107 347.768C465.799 348.107 465.615 348.582 465.557 349.191H468.955C468.951 348.809 468.891 348.473 468.773 348.184C468.66 347.891 468.486 347.664 468.252 347.504C468.018 347.34 467.717 347.258 467.35 347.258Z" fill="#964EA2"/>
<path d="M550.5 348.5H551V347.5H550.5V348.5ZM480.5 348.5H550.5V347.5H480.5V348.5Z" fill="#964EA2"/>
<path d="M551 345L551 344.5L550 344.5L550 345L551 345ZM551 351L551 345L550 345L550 351L551 351Z" fill="#964EA2"/>
<path d="M567 345L567 344.5L566 344.5L566 345L567 345ZM567 351L567 345L566 345L566 351L567 351Z" fill="#964EA2"/>
<path d="M635 348.5H635.5V347.5H635V348.5ZM566.5 348.5H635V347.5H566.5V348.5Z" fill="#964EA2"/>
<path d="M649.941 353H645.172V344.434H649.941V345.312H646.168V348.084H649.725V348.951H646.168V352.121H649.941V353ZM653.223 349.713L651.002 346.578H652.115L653.809 349.051L655.496 346.578H656.598L654.377 349.713L656.721 353H655.607L653.809 350.381L651.998 353H650.896L653.223 349.713ZM660.049 352.32C660.209 352.32 660.373 352.307 660.541 352.279C660.709 352.252 660.846 352.219 660.951 352.18V352.936C660.838 352.986 660.68 353.029 660.477 353.064C660.277 353.1 660.082 353.117 659.891 353.117C659.551 353.117 659.242 353.059 658.965 352.941C658.688 352.82 658.465 352.617 658.297 352.332C658.133 352.047 658.051 351.652 658.051 351.148V347.34H657.137V346.865L658.057 346.484L658.443 345.09H659.029V346.578H660.91V347.34H659.029V351.119C659.029 351.521 659.121 351.822 659.305 352.021C659.492 352.221 659.74 352.32 660.049 352.32ZM665.17 346.461C665.299 346.461 665.434 346.469 665.574 346.484C665.715 346.496 665.84 346.514 665.949 346.537L665.826 347.439C665.721 347.412 665.604 347.391 665.475 347.375C665.346 347.359 665.225 347.352 665.111 347.352C664.854 347.352 664.609 347.404 664.379 347.51C664.152 347.611 663.953 347.76 663.781 347.955C663.609 348.146 663.475 348.379 663.377 348.652C663.279 348.922 663.23 349.223 663.23 349.555V353H662.252V346.578H663.061L663.166 347.762H663.207C663.34 347.523 663.5 347.307 663.688 347.111C663.875 346.912 664.092 346.754 664.338 346.637C664.588 346.52 664.865 346.461 665.17 346.461ZM669.564 346.473C670.33 346.473 670.898 346.645 671.27 346.988C671.641 347.332 671.826 347.881 671.826 348.635V353H671.117L670.93 352.051H670.883C670.703 352.285 670.516 352.482 670.32 352.643C670.125 352.799 669.898 352.918 669.641 353C669.387 353.078 669.074 353.117 668.703 353.117C668.312 353.117 667.965 353.049 667.66 352.912C667.359 352.775 667.121 352.568 666.945 352.291C666.773 352.014 666.688 351.662 666.688 351.236C666.688 350.596 666.941 350.104 667.449 349.76C667.957 349.416 668.73 349.229 669.77 349.197L670.877 349.15V348.758C670.877 348.203 670.758 347.814 670.52 347.592C670.281 347.369 669.945 347.258 669.512 347.258C669.176 347.258 668.855 347.307 668.551 347.404C668.246 347.502 667.957 347.617 667.684 347.75L667.385 347.012C667.674 346.863 668.006 346.736 668.381 346.631C668.756 346.525 669.15 346.473 669.564 346.473ZM670.865 349.836L669.887 349.877C669.086 349.908 668.521 350.039 668.193 350.27C667.865 350.5 667.701 350.826 667.701 351.248C667.701 351.615 667.812 351.887 668.035 352.062C668.258 352.238 668.553 352.326 668.92 352.326C669.49 352.326 669.957 352.168 670.32 351.852C670.684 351.535 670.865 351.061 670.865 350.428V349.836ZM677.926 353H676.947V343.883H677.926V353ZM682.385 346.473C683.15 346.473 683.719 346.645 684.09 346.988C684.461 347.332 684.646 347.881 684.646 348.635V353H683.938L683.75 352.051H683.703C683.523 352.285 683.336 352.482 683.141 352.643C682.945 352.799 682.719 352.918 682.461 353C682.207 353.078 681.895 353.117 681.523 353.117C681.133 353.117 680.785 353.049 680.48 352.912C680.18 352.775 679.941 352.568 679.766 352.291C679.594 352.014 679.508 351.662 679.508 351.236C679.508 350.596 679.762 350.104 680.27 349.76C680.777 349.416 681.551 349.229 682.59 349.197L683.697 349.15V348.758C683.697 348.203 683.578 347.814 683.34 347.592C683.102 347.369 682.766 347.258 682.332 347.258C681.996 347.258 681.676 347.307 681.371 347.404C681.066 347.502 680.777 347.617 680.504 347.75L680.205 347.012C680.494 346.863 680.826 346.736 681.201 346.631C681.576 346.525 681.971 346.473 682.385 346.473ZM683.686 349.836L682.707 349.877C681.906 349.908 681.342 350.039 681.014 350.27C680.686 350.5 680.521 350.826 680.521 351.248C680.521 351.615 680.633 351.887 680.855 352.062C681.078 352.238 681.373 352.326 681.74 352.326C682.311 352.326 682.777 352.168 683.141 351.852C683.504 351.535 683.686 351.061 683.686 350.428V349.836ZM689.568 346.461C689.697 346.461 689.832 346.469 689.973 346.484C690.113 346.496 690.238 346.514 690.348 346.537L690.225 347.439C690.119 347.412 690.002 347.391 689.873 347.375C689.744 347.359 689.623 347.352 689.51 347.352C689.252 347.352 689.008 347.404 688.777 347.51C688.551 347.611 688.352 347.76 688.18 347.955C688.008 348.146 687.873 348.379 687.775 348.652C687.678 348.922 687.629 349.223 687.629 349.555V353H686.65V346.578H687.459L687.564 347.762H687.605C687.738 347.523 687.898 347.307 688.086 347.111C688.273 346.912 688.49 346.754 688.736 346.637C688.986 346.52 689.264 346.461 689.568 346.461ZM693.354 355.883C692.51 355.883 691.859 355.725 691.402 355.408C690.945 355.096 690.717 354.656 690.717 354.09C690.717 353.688 690.844 353.344 691.098 353.059C691.355 352.773 691.711 352.584 692.164 352.49C691.996 352.412 691.852 352.295 691.73 352.139C691.613 351.982 691.555 351.803 691.555 351.6C691.555 351.365 691.619 351.16 691.748 350.984C691.881 350.805 692.082 350.633 692.352 350.469C692.016 350.332 691.742 350.102 691.531 349.777C691.324 349.449 691.221 349.068 691.221 348.635C691.221 348.174 691.316 347.781 691.508 347.457C691.699 347.129 691.977 346.879 692.34 346.707C692.703 346.535 693.143 346.449 693.658 346.449C693.771 346.449 693.885 346.455 693.998 346.467C694.115 346.475 694.227 346.488 694.332 346.508C694.438 346.523 694.529 346.543 694.607 346.566H696.811V347.193L695.627 347.34C695.744 347.492 695.842 347.676 695.92 347.891C695.998 348.105 696.037 348.344 696.037 348.605C696.037 349.246 695.82 349.756 695.387 350.135C694.953 350.51 694.357 350.697 693.6 350.697C693.42 350.697 693.236 350.682 693.049 350.65C692.857 350.756 692.711 350.873 692.609 351.002C692.512 351.131 692.463 351.279 692.463 351.447C692.463 351.572 692.5 351.672 692.574 351.746C692.652 351.82 692.764 351.875 692.908 351.91C693.053 351.941 693.227 351.957 693.43 351.957H694.561C695.26 351.957 695.795 352.104 696.166 352.396C696.541 352.689 696.729 353.117 696.729 353.68C696.729 354.391 696.439 354.936 695.861 355.314C695.283 355.693 694.447 355.883 693.354 355.883ZM693.383 355.121C693.914 355.121 694.354 355.066 694.701 354.957C695.053 354.852 695.314 354.697 695.486 354.494C695.662 354.295 695.75 354.057 695.75 353.779C695.75 353.521 695.691 353.326 695.574 353.193C695.457 353.064 695.285 352.979 695.059 352.936C694.832 352.889 694.555 352.865 694.227 352.865H693.113C692.824 352.865 692.572 352.91 692.357 353C692.143 353.09 691.977 353.223 691.859 353.398C691.746 353.574 691.689 353.793 691.689 354.055C691.689 354.402 691.836 354.666 692.129 354.846C692.422 355.029 692.84 355.121 693.383 355.121ZM693.635 349.988C694.1 349.988 694.449 349.871 694.684 349.637C694.918 349.402 695.035 349.061 695.035 348.611C695.035 348.131 694.916 347.771 694.678 347.533C694.439 347.291 694.088 347.17 693.623 347.17C693.178 347.17 692.834 347.295 692.592 347.545C692.354 347.791 692.234 348.152 692.234 348.629C692.234 349.066 692.355 349.402 692.598 349.637C692.84 349.871 693.186 349.988 693.635 349.988ZM700.549 346.461C701.096 346.461 701.564 346.582 701.955 346.824C702.346 347.066 702.645 347.406 702.852 347.844C703.059 348.277 703.162 348.785 703.162 349.367V349.971H698.727C698.738 350.725 698.926 351.299 699.289 351.693C699.652 352.088 700.164 352.285 700.824 352.285C701.23 352.285 701.59 352.248 701.902 352.174C702.215 352.1 702.539 351.99 702.875 351.846V352.701C702.551 352.846 702.229 352.951 701.908 353.018C701.592 353.084 701.217 353.117 700.783 353.117C700.166 353.117 699.627 352.992 699.166 352.742C698.709 352.488 698.354 352.117 698.1 351.629C697.846 351.141 697.719 350.543 697.719 349.836C697.719 349.145 697.834 348.547 698.064 348.043C698.299 347.535 698.627 347.145 699.049 346.871C699.475 346.598 699.975 346.461 700.549 346.461ZM700.537 347.258C700.018 347.258 699.604 347.428 699.295 347.768C698.986 348.107 698.803 348.582 698.744 349.191H702.143C702.139 348.809 702.078 348.473 701.961 348.184C701.848 347.891 701.674 347.664 701.439 347.504C701.205 347.34 700.904 347.258 700.537 347.258ZM708.904 343.883V346.162C708.904 346.424 708.896 346.678 708.881 346.924C708.869 347.17 708.859 347.361 708.852 347.498H708.904C709.08 347.209 709.334 346.965 709.666 346.766C709.998 346.566 710.422 346.467 710.938 346.467C711.742 346.467 712.383 346.746 712.859 347.305C713.34 347.859 713.58 348.686 713.58 349.783C713.58 350.506 713.471 351.115 713.252 351.611C713.033 352.107 712.725 352.482 712.326 352.736C711.928 352.99 711.457 353.117 710.914 353.117C710.406 353.117 709.988 353.023 709.66 352.836C709.336 352.645 709.086 352.412 708.91 352.139H708.834L708.635 353H707.932V343.883H708.904ZM710.779 347.281C710.314 347.281 709.945 347.373 709.672 347.557C709.398 347.736 709.201 348.01 709.08 348.377C708.963 348.74 708.904 349.201 708.904 349.76V349.812C708.904 350.621 709.039 351.24 709.309 351.67C709.578 352.096 710.068 352.309 710.779 352.309C711.377 352.309 711.824 352.09 712.121 351.652C712.422 351.215 712.572 350.59 712.572 349.777C712.572 348.949 712.424 348.326 712.127 347.908C711.834 347.49 711.385 347.281 710.779 347.281ZM718.197 346.461C718.326 346.461 718.461 346.469 718.602 346.484C718.742 346.496 718.867 346.514 718.977 346.537L718.854 347.439C718.748 347.412 718.631 347.391 718.502 347.375C718.373 347.359 718.252 347.352 718.139 347.352C717.881 347.352 717.637 347.404 717.406 347.51C717.18 347.611 716.98 347.76 716.809 347.955C716.637 348.146 716.502 348.379 716.404 348.652C716.307 348.922 716.258 349.223 716.258 349.555V353H715.279V346.578H716.088L716.193 347.762H716.234C716.367 347.523 716.527 347.307 716.715 347.111C716.902 346.912 717.119 346.754 717.365 346.637C717.615 346.52 717.893 346.461 718.197 346.461ZM722.662 346.461C723.209 346.461 723.678 346.582 724.068 346.824C724.459 347.066 724.758 347.406 724.965 347.844C725.172 348.277 725.275 348.785 725.275 349.367V349.971H720.84C720.852 350.725 721.039 351.299 721.402 351.693C721.766 352.088 722.277 352.285 722.938 352.285C723.344 352.285 723.703 352.248 724.016 352.174C724.328 352.1 724.652 351.99 724.988 351.846V352.701C724.664 352.846 724.342 352.951 724.021 353.018C723.705 353.084 723.33 353.117 722.896 353.117C722.279 353.117 721.74 352.992 721.279 352.742C720.822 352.488 720.467 352.117 720.213 351.629C719.959 351.141 719.832 350.543 719.832 349.836C719.832 349.145 719.947 348.547 720.178 348.043C720.412 347.535 720.74 347.145 721.162 346.871C721.588 346.598 722.088 346.461 722.662 346.461ZM722.65 347.258C722.131 347.258 721.717 347.428 721.408 347.768C721.1 348.107 720.916 348.582 720.857 349.191H724.256C724.252 348.809 724.191 348.473 724.074 348.184C723.961 347.891 723.787 347.664 723.553 347.504C723.318 347.34 723.018 347.258 722.65 347.258ZM729.33 346.473C730.096 346.473 730.664 346.645 731.035 346.988C731.406 347.332 731.592 347.881 731.592 348.635V353H730.883L730.695 352.051H730.648C730.469 352.285 730.281 352.482 730.086 352.643C729.891 352.799 729.664 352.918 729.406 353C729.152 353.078 728.84 353.117 728.469 353.117C728.078 353.117 727.73 353.049 727.426 352.912C727.125 352.775 726.887 352.568 726.711 352.291C726.539 352.014 726.453 351.662 726.453 351.236C726.453 350.596 726.707 350.104 727.215 349.76C727.723 349.416 728.496 349.229 729.535 349.197L730.643 349.15V348.758C730.643 348.203 730.523 347.814 730.285 347.592C730.047 347.369 729.711 347.258 729.277 347.258C728.941 347.258 728.621 347.307 728.316 347.404C728.012 347.502 727.723 347.617 727.449 347.75L727.15 347.012C727.439 346.863 727.771 346.736 728.146 346.631C728.521 346.525 728.916 346.473 729.33 346.473ZM730.631 349.836L729.652 349.877C728.852 349.908 728.287 350.039 727.959 350.27C727.631 350.5 727.467 350.826 727.467 351.248C727.467 351.615 727.578 351.887 727.801 352.062C728.023 352.238 728.318 352.326 728.686 352.326C729.256 352.326 729.723 352.168 730.086 351.852C730.449 351.535 730.631 351.061 730.631 350.428V349.836ZM734.562 343.883V348.617C734.562 348.773 734.557 348.965 734.545 349.191C734.533 349.414 734.523 349.611 734.516 349.783H734.557C734.639 349.682 734.758 349.531 734.914 349.332C735.074 349.133 735.209 348.973 735.318 348.852L737.451 346.578H738.594L736.01 349.32L738.781 353H737.609L735.342 349.959L734.562 350.674V353H733.596V343.883H734.562ZM742.918 346.461C743.719 346.461 744.357 346.736 744.834 347.287C745.311 347.838 745.549 348.666 745.549 349.771C745.549 350.502 745.439 351.115 745.221 351.611C745.002 352.107 744.693 352.482 744.295 352.736C743.9 352.99 743.434 353.117 742.895 353.117C742.555 353.117 742.256 353.072 741.998 352.982C741.74 352.893 741.52 352.771 741.336 352.619C741.152 352.467 741 352.301 740.879 352.121H740.809C740.82 352.273 740.834 352.457 740.85 352.672C740.869 352.887 740.879 353.074 740.879 353.234V355.871H739.9V346.578H740.703L740.832 347.527H740.879C741.004 347.332 741.156 347.154 741.336 346.994C741.516 346.83 741.734 346.701 741.992 346.607C742.254 346.51 742.562 346.461 742.918 346.461ZM742.748 347.281C742.303 347.281 741.943 347.367 741.67 347.539C741.4 347.711 741.203 347.969 741.078 348.312C740.953 348.652 740.887 349.08 740.879 349.596V349.783C740.879 350.326 740.938 350.785 741.055 351.16C741.176 351.535 741.373 351.82 741.646 352.016C741.924 352.211 742.295 352.309 742.76 352.309C743.158 352.309 743.49 352.201 743.756 351.986C744.021 351.771 744.219 351.473 744.348 351.09C744.48 350.703 744.547 350.26 744.547 349.76C744.547 349.002 744.398 348.4 744.102 347.955C743.809 347.506 743.357 347.281 742.748 347.281ZM752.785 349.777C752.785 350.305 752.717 350.775 752.58 351.189C752.443 351.604 752.246 351.953 751.988 352.238C751.73 352.523 751.418 352.742 751.051 352.895C750.688 353.043 750.275 353.117 749.814 353.117C749.385 353.117 748.99 353.043 748.631 352.895C748.275 352.742 747.967 352.523 747.705 352.238C747.447 351.953 747.246 351.604 747.102 351.189C746.961 350.775 746.891 350.305 746.891 349.777C746.891 349.074 747.01 348.477 747.248 347.984C747.486 347.488 747.826 347.111 748.268 346.854C748.713 346.592 749.242 346.461 749.855 346.461C750.441 346.461 750.953 346.592 751.391 346.854C751.832 347.115 752.174 347.494 752.416 347.99C752.662 348.482 752.785 349.078 752.785 349.777ZM747.898 349.777C747.898 350.293 747.967 350.74 748.104 351.119C748.24 351.498 748.451 351.791 748.736 351.998C749.021 352.205 749.389 352.309 749.838 352.309C750.283 352.309 750.648 352.205 750.934 351.998C751.223 351.791 751.436 351.498 751.572 351.119C751.709 350.74 751.777 350.293 751.777 349.777C751.777 349.266 751.709 348.824 751.572 348.453C751.436 348.078 751.225 347.789 750.939 347.586C750.654 347.383 750.285 347.281 749.832 347.281C749.164 347.281 748.674 347.502 748.361 347.943C748.053 348.385 747.898 348.996 747.898 349.777ZM755.439 346.578V353H754.467V346.578H755.439ZM754.965 344.176C755.125 344.176 755.262 344.229 755.375 344.334C755.492 344.436 755.551 344.596 755.551 344.814C755.551 345.029 755.492 345.189 755.375 345.295C755.262 345.4 755.125 345.453 754.965 345.453C754.797 345.453 754.656 345.4 754.543 345.295C754.434 345.189 754.379 345.029 754.379 344.814C754.379 344.596 754.434 344.436 754.543 344.334C754.656 344.229 754.797 344.176 754.965 344.176ZM760.543 346.461C761.305 346.461 761.881 346.648 762.271 347.023C762.662 347.395 762.857 347.992 762.857 348.816V353H761.896V348.881C761.896 348.346 761.773 347.945 761.527 347.68C761.285 347.414 760.912 347.281 760.408 347.281C759.697 347.281 759.197 347.482 758.908 347.885C758.619 348.287 758.475 348.871 758.475 349.637V353H757.502V346.578H758.287L758.434 347.504H758.486C758.623 347.277 758.797 347.088 759.008 346.936C759.219 346.779 759.455 346.662 759.717 346.584C759.979 346.502 760.254 346.461 760.543 346.461ZM766.936 352.32C767.096 352.32 767.26 352.307 767.428 352.279C767.596 352.252 767.732 352.219 767.838 352.18V352.936C767.725 352.986 767.566 353.029 767.363 353.064C767.164 353.1 766.969 353.117 766.777 353.117C766.438 353.117 766.129 353.059 765.852 352.941C765.574 352.82 765.352 352.617 765.184 352.332C765.02 352.047 764.938 351.652 764.938 351.148V347.34H764.023V346.865L764.943 346.484L765.33 345.09H765.916V346.578H767.797V347.34H765.916V351.119C765.916 351.521 766.008 351.822 766.191 352.021C766.379 352.221 766.627 352.32 766.936 352.32Z" fill="#964EA2"/>
<path d="M846.5 348.5H847V347.5H846.5V348.5ZM778 348.5H846.5V347.5H778V348.5Z" fill="#964EA2"/>
<path d="M847 345L847 344.5L846 344.5L846 345L847 345ZM847 351L847 345L846 345L846 351L847 351Z" fill="#964EA2"/>
</svg>
