<svg width="730" height="178" viewBox="0 0 730 178" fill="none" xmlns="http://www.w3.org/2000/svg">
<rect opacity="0.4" x="16" y="39" width="435" height="84" fill="#FAE4E1"/>
<rect opacity="0.5" x="16" y="67" width="435" height="56" fill="#FAE4E1"/>
<rect x="16" y="95" width="435" height="28" fill="#FAE4E1"/>
<mask id="mask0_3394_316707" style="mask-type:alpha" maskUnits="userSpaceOnUse" x="184" y="39" width="28" height="28">
<circle cx="198" cy="53" r="14" fill="#D9D9D9"/>
</mask>
<g mask="url(#mask0_3394_316707)">
<rect x="184" y="39" width="8.55556" height="28" fill="#004692"/>
<rect x="192.556" y="39" width="10.8889" height="28" fill="#FBD381"/>
<rect x="203.444" y="39" width="8.55556" height="28" fill="#DD2033"/>
<rect x="194.889" y="49.8889" width="3.11111" height="3.11111" fill="#DD2033"/>
<path d="M201.047 53H198L198 56.8288C199.629 56.1641 200.771 54.7015 201.047 53Z" fill="#DD2033"/>
<path fill-rule="evenodd" clip-rule="evenodd" d="M196.444 47.9445V47.1667C196.444 46.7371 196.792 46.3889 197.222 46.3889H198.777C199.207 46.3889 199.555 46.7371 199.555 47.1667V47.9445C199.555 47.5149 199.903 47.1667 200.333 47.1667L201.889 47.1667C202.318 47.1667 202.666 47.5149 202.666 47.9445V52.1994C202.666 54.4979 201.466 56.5979 199.555 57.7775V59.2222C199.555 59.6518 199.207 60 198.777 60H197.222C196.792 60 196.444 59.6518 196.444 59.2222V57.7775C194.533 56.5979 193.333 54.4979 193.333 52.1994V47.9445C193.333 47.5149 193.681 47.1667 194.111 47.1667L195.666 47.1667C196.096 47.1667 196.444 47.5149 196.444 47.9445ZM194.889 49.8889V52.1994C194.889 54.2324 196.119 56.0618 198 56.8289C199.88 56.0618 201.111 54.2324 201.111 52.1994V49.8889H194.889Z" fill="#FF9E42"/>
</g>
<mask id="mask1_3394_316707" style="mask-type:alpha" maskUnits="userSpaceOnUse" x="260" y="39" width="56" height="56">
<circle cx="288" cy="67" r="28" fill="#D9D9D9"/>
</mask>
<g mask="url(#mask1_3394_316707)">
<rect x="260" y="39" width="17.1111" height="56" fill="#004692"/>
<rect x="277.111" y="39" width="21.7778" height="56" fill="#FBD381"/>
<rect x="298.889" y="39" width="17.1111" height="56" fill="#DD2033"/>
<rect x="281.777" y="60.7778" width="6.22222" height="6.22222" fill="#DD2033"/>
<path d="M294.094 67H288L288 74.6577C291.259 73.3282 293.542 70.4031 294.094 67Z" fill="#DD2033"/>
<path fill-rule="evenodd" clip-rule="evenodd" d="M284.889 56.8889V55.3333C284.889 54.4742 285.586 53.7778 286.445 53.7778H289.556C290.415 53.7778 291.111 54.4742 291.111 55.3333V56.8889C291.111 56.0298 291.808 55.3333 292.667 55.3333L295.778 55.3333C296.637 55.3333 297.334 56.0298 297.334 56.8889V65.3987C297.334 69.9958 294.934 74.1957 291.111 76.5548V79.4444C291.111 80.3035 290.415 81 289.556 81H286.445C285.586 81 284.889 80.3035 284.889 79.4444V76.5548C281.067 74.1957 278.667 69.9958 278.667 65.3987V56.8889C278.667 56.0298 279.363 55.3333 280.223 55.3333L283.334 55.3333C284.193 55.3333 284.889 56.0298 284.889 56.8889ZM281.778 60.7778V65.3987C281.778 69.4648 284.24 73.1235 288 74.6577C291.761 73.1235 294.223 69.4648 294.223 65.3987V60.7778H281.778Z" fill="#FF9E42"/>
</g>
<mask id="mask2_3394_316707" style="mask-type:alpha" maskUnits="userSpaceOnUse" x="364" y="39" width="84" height="84">
<circle cx="406" cy="81" r="42" fill="#D9D9D9"/>
</mask>
<g mask="url(#mask2_3394_316707)">
<rect x="364" y="39" width="25.6667" height="84" fill="#004692"/>
<rect x="389.667" y="39" width="32.6667" height="84" fill="#FBD381"/>
<rect x="422.333" y="39" width="25.6667" height="84" fill="#DD2033"/>
<rect x="396.667" y="71.6667" width="9.33333" height="9.33333" fill="#DD2033"/>
<path d="M415.14 81H406L406 92.4865C410.888 90.4922 414.314 86.1046 415.14 81Z" fill="#DD2033"/>
<path fill-rule="evenodd" clip-rule="evenodd" d="M401.333 65.8334V63.5C401.333 62.2114 402.378 61.1667 403.667 61.1667H408.333C409.622 61.1667 410.667 62.2114 410.667 63.5V65.8334C410.667 64.5447 411.711 63.5 413 63.5L417.667 63.5C418.955 63.5 420 64.5447 420 65.8334V78.5981C420 85.4937 416.4 91.7936 410.667 95.3323V99.6667C410.667 100.955 409.622 102 408.333 102H403.667C402.378 102 401.333 100.955 401.333 99.6667V95.3323C395.6 91.7936 392 85.4937 392 78.5981V65.8334C392 64.5447 393.045 63.5 394.333 63.5L399 63.5C400.289 63.5 401.333 64.5447 401.333 65.8334ZM396.667 71.6667V78.5981C396.667 84.6972 400.359 90.1853 406 92.4866C411.641 90.1853 415.333 84.6972 415.333 78.5981V71.6667H396.667Z" fill="#FF9E42"/>
</g>
<path d="M24.4805 54.2109V53.3438H27.3867V54.2109H24.4805ZM28.3477 54.2109V53.3438H31.2539V54.2109H28.3477ZM36.9141 55.2422C36.9141 55.6523 36.8105 55.998 36.6035 56.2793C36.4004 56.5566 36.1074 56.7656 35.7246 56.9062C35.3457 57.0469 34.8926 57.1172 34.3652 57.1172C33.916 57.1172 33.5273 57.082 33.1992 57.0117C32.8711 56.9414 32.584 56.8418 32.3379 56.7129V55.8164C32.5996 55.9453 32.9121 56.0625 33.2754 56.168C33.6387 56.2734 34.0098 56.3262 34.3887 56.3262C34.9434 56.3262 35.3457 56.2363 35.5957 56.0566C35.8457 55.877 35.9707 55.6328 35.9707 55.3242C35.9707 55.1484 35.9199 54.9941 35.8184 54.8613C35.7207 54.7246 35.5547 54.5938 35.3203 54.4688C35.0859 54.3398 34.7617 54.1992 34.3477 54.0469C33.9375 53.8906 33.582 53.7363 33.2812 53.584C32.9844 53.4277 32.7539 53.2383 32.5898 53.0156C32.4297 52.793 32.3496 52.5039 32.3496 52.1484C32.3496 51.6055 32.5684 51.1895 33.0059 50.9004C33.4473 50.6074 34.0254 50.4609 34.7402 50.4609C35.127 50.4609 35.4883 50.5 35.8242 50.5781C36.1641 50.6523 36.4805 50.7539 36.7734 50.8828L36.4453 51.6621C36.1797 51.5488 35.8965 51.4531 35.5957 51.375C35.2949 51.2969 34.9883 51.2578 34.6758 51.2578C34.2266 51.2578 33.8809 51.332 33.6387 51.4805C33.4004 51.6289 33.2812 51.832 33.2812 52.0898C33.2812 52.2891 33.3359 52.4531 33.4453 52.582C33.5586 52.7109 33.7383 52.832 33.9844 52.9453C34.2305 53.0586 34.5547 53.1914 34.957 53.3438C35.3594 53.4922 35.707 53.6465 36 53.8066C36.293 53.9629 36.5176 54.1543 36.6738 54.3809C36.834 54.6035 36.9141 54.8906 36.9141 55.2422ZM40.8809 50.4727C41.6465 50.4727 42.2148 50.6445 42.5859 50.9883C42.957 51.332 43.1426 51.8809 43.1426 52.6348V57H42.4336L42.2461 56.0508H42.1992C42.0195 56.2852 41.832 56.4824 41.6367 56.6426C41.4414 56.7988 41.2148 56.918 40.957 57C40.7031 57.0781 40.3906 57.1172 40.0195 57.1172C39.6289 57.1172 39.2812 57.0488 38.9766 56.9121C38.6758 56.7754 38.4375 56.5684 38.2617 56.291C38.0898 56.0137 38.0039 55.6621 38.0039 55.2363C38.0039 54.5957 38.2578 54.1035 38.7656 53.7598C39.2734 53.416 40.0469 53.2285 41.0859 53.1973L42.1934 53.1504V52.7578C42.1934 52.2031 42.0742 51.8145 41.8359 51.5918C41.5977 51.3691 41.2617 51.2578 40.8281 51.2578C40.4922 51.2578 40.1719 51.3066 39.8672 51.4043C39.5625 51.502 39.2734 51.6172 39 51.75L38.7012 51.0117C38.9902 50.8633 39.3223 50.7363 39.6973 50.6309C40.0723 50.5254 40.4668 50.4727 40.8809 50.4727ZM42.1816 53.8359L41.2031 53.877C40.4023 53.9082 39.8379 54.0391 39.5098 54.2695C39.1816 54.5 39.0176 54.8262 39.0176 55.248C39.0176 55.6152 39.1289 55.8867 39.3516 56.0625C39.5742 56.2383 39.8691 56.3262 40.2363 56.3262C40.8066 56.3262 41.2734 56.168 41.6367 55.8516C42 55.5352 42.1816 55.0605 42.1816 54.4277V53.8359ZM46.125 57H45.1465V47.8828H46.125V57ZM50.2559 56.3203C50.416 56.3203 50.5801 56.3066 50.748 56.2793C50.916 56.252 51.0527 56.2188 51.1582 56.1797V56.9355C51.0449 56.9863 50.8867 57.0293 50.6836 57.0645C50.4844 57.0996 50.2891 57.1172 50.0977 57.1172C49.7578 57.1172 49.4492 57.0586 49.1719 56.9414C48.8945 56.8203 48.6719 56.6172 48.5039 56.332C48.3398 56.0469 48.2578 55.6523 48.2578 55.1484V51.3398H47.3438V50.8652L48.2637 50.4844L48.6504 49.0898H49.2363V50.5781H51.1172V51.3398H49.2363V55.1191C49.2363 55.5215 49.3281 55.8223 49.5117 56.0215C49.6992 56.2207 49.9473 56.3203 50.2559 56.3203ZM51.9141 54.2109V53.3438H54.8203V54.2109H51.9141ZM60.4805 55.2422C60.4805 55.6523 60.377 55.998 60.1699 56.2793C59.9668 56.5566 59.6738 56.7656 59.291 56.9062C58.9121 57.0469 58.459 57.1172 57.9316 57.1172C57.4824 57.1172 57.0938 57.082 56.7656 57.0117C56.4375 56.9414 56.1504 56.8418 55.9043 56.7129V55.8164C56.166 55.9453 56.4785 56.0625 56.8418 56.168C57.2051 56.2734 57.5762 56.3262 57.9551 56.3262C58.5098 56.3262 58.9121 56.2363 59.1621 56.0566C59.4121 55.877 59.5371 55.6328 59.5371 55.3242C59.5371 55.1484 59.4863 54.9941 59.3848 54.8613C59.2871 54.7246 59.1211 54.5938 58.8867 54.4688C58.6523 54.3398 58.3281 54.1992 57.9141 54.0469C57.5039 53.8906 57.1484 53.7363 56.8477 53.584C56.5508 53.4277 56.3203 53.2383 56.1562 53.0156C55.9961 52.793 55.916 52.5039 55.916 52.1484C55.916 51.6055 56.1348 51.1895 56.5723 50.9004C57.0137 50.6074 57.5918 50.4609 58.3066 50.4609C58.6934 50.4609 59.0547 50.5 59.3906 50.5781C59.7305 50.6523 60.0469 50.7539 60.3398 50.8828L60.0117 51.6621C59.7461 51.5488 59.4629 51.4531 59.1621 51.375C58.8613 51.2969 58.5547 51.2578 58.2422 51.2578C57.793 51.2578 57.4473 51.332 57.2051 51.4805C56.9668 51.6289 56.8477 51.832 56.8477 52.0898C56.8477 52.2891 56.9023 52.4531 57.0117 52.582C57.125 52.7109 57.3047 52.832 57.5508 52.9453C57.7969 53.0586 58.1211 53.1914 58.5234 53.3438C58.9258 53.4922 59.2734 53.6465 59.5664 53.8066C59.8594 53.9629 60.084 54.1543 60.2402 54.3809C60.4004 54.6035 60.4805 54.8906 60.4805 55.2422ZM63.0176 50.5781V57H62.0449V50.5781H63.0176ZM62.543 48.1758C62.7031 48.1758 62.8398 48.2285 62.9531 48.334C63.0703 48.4355 63.1289 48.5957 63.1289 48.8145C63.1289 49.0293 63.0703 49.1895 62.9531 49.2949C62.8398 49.4004 62.7031 49.4531 62.543 49.4531C62.375 49.4531 62.2344 49.4004 62.1211 49.2949C62.0117 49.1895 61.957 49.0293 61.957 48.8145C61.957 48.5957 62.0117 48.4355 62.1211 48.334C62.2344 48.2285 62.375 48.1758 62.543 48.1758ZM69.2051 57H64.5234V56.3555L68.0449 51.3398H64.7461V50.5781H69.1289V51.2988L65.6543 56.2441H69.2051V57ZM73.1777 50.4609C73.7246 50.4609 74.1934 50.582 74.584 50.8242C74.9746 51.0664 75.2734 51.4062 75.4805 51.8438C75.6875 52.2773 75.791 52.7852 75.791 53.3672V53.9707H71.3555C71.3672 54.7246 71.5547 55.2988 71.918 55.6934C72.2812 56.0879 72.793 56.2852 73.4531 56.2852C73.8594 56.2852 74.2188 56.248 74.5312 56.1738C74.8438 56.0996 75.168 55.9902 75.5039 55.8457V56.7012C75.1797 56.8457 74.8574 56.9512 74.5371 57.0176C74.2207 57.084 73.8457 57.1172 73.4121 57.1172C72.7949 57.1172 72.2559 56.9922 71.7949 56.7422C71.3379 56.4883 70.9824 56.1172 70.7285 55.6289C70.4746 55.1406 70.3477 54.543 70.3477 53.8359C70.3477 53.1445 70.4629 52.5469 70.6934 52.043C70.9277 51.5352 71.2559 51.1445 71.6777 50.8711C72.1035 50.5977 72.6035 50.4609 73.1777 50.4609ZM73.166 51.2578C72.6465 51.2578 72.2324 51.4277 71.9238 51.7676C71.6152 52.1074 71.4316 52.582 71.373 53.1914H74.7715C74.7676 52.8086 74.707 52.4727 74.5898 52.1836C74.4766 51.8906 74.3027 51.6641 74.0684 51.5039C73.834 51.3398 73.5332 51.2578 73.166 51.2578ZM76.8984 54.2109V53.3438H79.8047V54.2109H76.8984ZM82.2832 47.8828V50.1621C82.2832 50.4238 82.2754 50.6777 82.2598 50.9238C82.248 51.1699 82.2383 51.3613 82.2305 51.498H82.2832C82.459 51.209 82.7129 50.9648 83.0449 50.7656C83.377 50.5664 83.8008 50.4668 84.3164 50.4668C85.1211 50.4668 85.7617 50.7461 86.2383 51.3047C86.7188 51.8594 86.959 52.6855 86.959 53.7832C86.959 54.5059 86.8496 55.1152 86.6309 55.6113C86.4121 56.1074 86.1035 56.4824 85.7051 56.7363C85.3066 56.9902 84.8359 57.1172 84.293 57.1172C83.7852 57.1172 83.3672 57.0234 83.0391 56.8359C82.7148 56.6445 82.4648 56.4121 82.2891 56.1387H82.2129L82.0137 57H81.3105V47.8828H82.2832ZM84.1582 51.2812C83.6934 51.2812 83.3242 51.373 83.0508 51.5566C82.7773 51.7363 82.5801 52.0098 82.459 52.377C82.3418 52.7402 82.2832 53.2012 82.2832 53.7598V53.8125C82.2832 54.6211 82.418 55.2402 82.6875 55.6699C82.957 56.0957 83.4473 56.3086 84.1582 56.3086C84.7559 56.3086 85.2031 56.0898 85.5 55.6523C85.8008 55.2148 85.9512 54.5898 85.9512 53.7773C85.9512 52.9492 85.8027 52.3262 85.5059 51.9082C85.2129 51.4902 84.7637 51.2812 84.1582 51.2812ZM91.0605 50.4727C91.8262 50.4727 92.3945 50.6445 92.7656 50.9883C93.1367 51.332 93.3223 51.8809 93.3223 52.6348V57H92.6133L92.4258 56.0508H92.3789C92.1992 56.2852 92.0117 56.4824 91.8164 56.6426C91.6211 56.7988 91.3945 56.918 91.1367 57C90.8828 57.0781 90.5703 57.1172 90.1992 57.1172C89.8086 57.1172 89.4609 57.0488 89.1562 56.9121C88.8555 56.7754 88.6172 56.5684 88.4414 56.291C88.2695 56.0137 88.1836 55.6621 88.1836 55.2363C88.1836 54.5957 88.4375 54.1035 88.9453 53.7598C89.4531 53.416 90.2266 53.2285 91.2656 53.1973L92.373 53.1504V52.7578C92.373 52.2031 92.2539 51.8145 92.0156 51.5918C91.7773 51.3691 91.4414 51.2578 91.0078 51.2578C90.6719 51.2578 90.3516 51.3066 90.0469 51.4043C89.7422 51.502 89.4531 51.6172 89.1797 51.75L88.8809 51.0117C89.1699 50.8633 89.502 50.7363 89.877 50.6309C90.252 50.5254 90.6465 50.4727 91.0605 50.4727ZM92.3613 53.8359L91.3828 53.877C90.582 53.9082 90.0176 54.0391 89.6895 54.2695C89.3613 54.5 89.1973 54.8262 89.1973 55.248C89.1973 55.6152 89.3086 55.8867 89.5312 56.0625C89.7539 56.2383 90.0488 56.3262 90.416 56.3262C90.9863 56.3262 91.4531 56.168 91.8164 55.8516C92.1797 55.5352 92.3613 55.0605 92.3613 54.4277V53.8359ZM99.4805 55.2422C99.4805 55.6523 99.377 55.998 99.1699 56.2793C98.9668 56.5566 98.6738 56.7656 98.291 56.9062C97.9121 57.0469 97.459 57.1172 96.9316 57.1172C96.4824 57.1172 96.0938 57.082 95.7656 57.0117C95.4375 56.9414 95.1504 56.8418 94.9043 56.7129V55.8164C95.166 55.9453 95.4785 56.0625 95.8418 56.168C96.2051 56.2734 96.5762 56.3262 96.9551 56.3262C97.5098 56.3262 97.9121 56.2363 98.1621 56.0566C98.4121 55.877 98.5371 55.6328 98.5371 55.3242C98.5371 55.1484 98.4863 54.9941 98.3848 54.8613C98.2871 54.7246 98.1211 54.5938 97.8867 54.4688C97.6523 54.3398 97.3281 54.1992 96.9141 54.0469C96.5039 53.8906 96.1484 53.7363 95.8477 53.584C95.5508 53.4277 95.3203 53.2383 95.1562 53.0156C94.9961 52.793 94.916 52.5039 94.916 52.1484C94.916 51.6055 95.1348 51.1895 95.5723 50.9004C96.0137 50.6074 96.5918 50.4609 97.3066 50.4609C97.6934 50.4609 98.0547 50.5 98.3906 50.5781C98.7305 50.6523 99.0469 50.7539 99.3398 50.8828L99.0117 51.6621C98.7461 51.5488 98.4629 51.4531 98.1621 51.375C97.8613 51.2969 97.5547 51.2578 97.2422 51.2578C96.793 51.2578 96.4473 51.332 96.2051 51.4805C95.9668 51.6289 95.8477 51.832 95.8477 52.0898C95.8477 52.2891 95.9023 52.4531 96.0117 52.582C96.125 52.7109 96.3047 52.832 96.5508 52.9453C96.7969 53.0586 97.1211 53.1914 97.5234 53.3438C97.9258 53.4922 98.2734 53.6465 98.5664 53.8066C98.8594 53.9629 99.084 54.1543 99.2402 54.3809C99.4004 54.6035 99.4805 54.8906 99.4805 55.2422ZM103.518 50.4609C104.064 50.4609 104.533 50.582 104.924 50.8242C105.314 51.0664 105.613 51.4062 105.82 51.8438C106.027 52.2773 106.131 52.7852 106.131 53.3672V53.9707H101.695C101.707 54.7246 101.895 55.2988 102.258 55.6934C102.621 56.0879 103.133 56.2852 103.793 56.2852C104.199 56.2852 104.559 56.248 104.871 56.1738C105.184 56.0996 105.508 55.9902 105.844 55.8457V56.7012C105.52 56.8457 105.197 56.9512 104.877 57.0176C104.561 57.084 104.186 57.1172 103.752 57.1172C103.135 57.1172 102.596 56.9922 102.135 56.7422C101.678 56.4883 101.322 56.1172 101.068 55.6289C100.814 55.1406 100.688 54.543 100.688 53.8359C100.688 53.1445 100.803 52.5469 101.033 52.043C101.268 51.5352 101.596 51.1445 102.018 50.8711C102.443 50.5977 102.943 50.4609 103.518 50.4609ZM103.506 51.2578C102.986 51.2578 102.572 51.4277 102.264 51.7676C101.955 52.1074 101.771 52.582 101.713 53.1914H105.111C105.107 52.8086 105.047 52.4727 104.93 52.1836C104.816 51.8906 104.643 51.6641 104.408 51.5039C104.174 51.3398 103.873 51.2578 103.506 51.2578Z" fill="#964EA2"/>
<path d="M193.555 144.713L191.334 141.578H192.447L194.141 144.051L195.828 141.578H196.93L194.709 144.713L197.053 148H195.939L194.141 145.381L192.33 148H191.229L193.555 144.713ZM201.494 148H200.545V141.93C200.545 141.699 200.545 141.502 200.545 141.338C200.549 141.17 200.553 141.018 200.557 140.881C200.564 140.74 200.574 140.598 200.586 140.453C200.465 140.578 200.352 140.686 200.246 140.775C200.141 140.861 200.01 140.969 199.854 141.098L198.875 141.883L198.365 141.221L200.686 139.434H201.494V148Z" fill="#964EA2"/>
<path d="M260.5 140L260.5 139.5L259.5 139.5L259.5 140L260.5 140ZM260.5 146L260.5 140L259.5 140L259.5 146L260.5 146Z" fill="#964EA2"/>
<path d="M272 143.5H272.5V142.5H272V143.5ZM260 143.5H272V142.5H260V143.5Z" fill="#964EA2"/>
<path d="M283.555 144.713L281.334 141.578H282.447L284.141 144.051L285.828 141.578H286.93L284.709 144.713L287.053 148H285.939L284.141 145.381L282.33 148H281.229L283.555 144.713ZM293.486 148H287.873V147.186L290.164 144.859C290.59 144.43 290.947 144.047 291.236 143.711C291.529 143.375 291.752 143.045 291.904 142.721C292.057 142.393 292.133 142.033 292.133 141.643C292.133 141.158 291.988 140.789 291.699 140.535C291.414 140.277 291.037 140.148 290.568 140.148C290.158 140.148 289.795 140.219 289.479 140.359C289.162 140.5 288.838 140.699 288.506 140.957L287.984 140.301C288.211 140.109 288.457 139.939 288.723 139.791C288.992 139.643 289.279 139.525 289.584 139.439C289.893 139.354 290.221 139.311 290.568 139.311C291.096 139.311 291.551 139.402 291.934 139.586C292.316 139.77 292.611 140.031 292.818 140.371C293.029 140.711 293.135 141.115 293.135 141.584C293.135 142.037 293.045 142.459 292.865 142.85C292.686 143.236 292.434 143.621 292.109 144.004C291.785 144.383 291.406 144.785 290.973 145.211L289.109 147.068V147.109H293.486V148Z" fill="#964EA2"/>
<path d="M316 143.5H316.5V142.5H316V143.5ZM304 143.5H316V142.5H304V143.5Z" fill="#964EA2"/>
<path d="M316.5 140L316.5 139.5L315.5 139.5L315.5 140L316.5 140ZM316.5 146L316.5 140L315.5 140L315.5 146L316.5 146Z" fill="#964EA2"/>
<path d="M364.5 140L364.5 139.5L363.5 139.5L363.5 140L364.5 140ZM364.5 146L364.5 140L363.5 140L363.5 146L364.5 146Z" fill="#964EA2"/>
<path d="M390 143.5H390.5V142.5H390V143.5ZM364 143.5H390V142.5H364V143.5Z" fill="#964EA2"/>
<path d="M401.555 144.713L399.334 141.578H400.447L402.141 144.051L403.828 141.578H404.93L402.709 144.713L405.053 148H403.939L402.141 145.381L400.33 148H399.229L401.555 144.713ZM411.17 141.432C411.17 141.814 411.096 142.146 410.947 142.428C410.799 142.709 410.592 142.939 410.326 143.119C410.061 143.295 409.748 143.418 409.389 143.488V143.535C410.068 143.621 410.578 143.84 410.918 144.191C411.262 144.543 411.434 145.004 411.434 145.574C411.434 146.07 411.316 146.51 411.082 146.893C410.852 147.275 410.496 147.576 410.016 147.795C409.539 148.01 408.928 148.117 408.182 148.117C407.729 148.117 407.309 148.08 406.922 148.006C406.539 147.936 406.172 147.816 405.82 147.648V146.734C406.176 146.91 406.562 147.049 406.98 147.15C407.398 147.248 407.803 147.297 408.193 147.297C408.975 147.297 409.539 147.143 409.887 146.834C410.234 146.521 410.408 146.096 410.408 145.557C410.408 145.186 410.311 144.887 410.115 144.66C409.924 144.43 409.646 144.262 409.283 144.156C408.924 144.047 408.49 143.992 407.982 143.992H407.127V143.16H407.988C408.453 143.16 408.848 143.092 409.172 142.955C409.496 142.818 409.742 142.627 409.91 142.381C410.082 142.131 410.168 141.836 410.168 141.496C410.168 141.062 410.023 140.729 409.734 140.494C409.445 140.256 409.053 140.137 408.557 140.137C408.252 140.137 407.975 140.168 407.725 140.23C407.475 140.293 407.24 140.379 407.021 140.488C406.803 140.598 406.584 140.725 406.365 140.869L405.873 140.201C406.186 139.959 406.566 139.75 407.016 139.574C407.465 139.398 407.975 139.311 408.545 139.311C409.42 139.311 410.076 139.51 410.514 139.908C410.951 140.307 411.17 140.814 411.17 141.432Z" fill="#964EA2"/>
<path d="M448 143.5H448.5V142.5H448V143.5ZM422 143.5H448V142.5H422V143.5Z" fill="#964EA2"/>
<path d="M448.5 140L448.5 139.5L447.5 139.5L447.5 140L448.5 140ZM448.5 146L448.5 140L447.5 140L447.5 146L448.5 146Z" fill="#964EA2"/>
<path d="M588.778 14H587.131V5.40039H584.205V4.00586H591.697V5.40039H588.778V14ZM599.764 10.1992C599.764 10.8281 599.682 11.3864 599.518 11.874C599.354 12.3617 599.114 12.7741 598.8 13.1113C598.485 13.444 598.107 13.6992 597.665 13.877C597.223 14.0501 596.724 14.1367 596.168 14.1367C595.648 14.1367 595.172 14.0501 594.739 13.877C594.306 13.6992 593.93 13.444 593.611 13.1113C593.297 12.7741 593.053 12.3617 592.88 11.874C592.707 11.3864 592.62 10.8281 592.62 10.1992C592.62 9.36523 592.764 8.65885 593.051 8.08008C593.342 7.49674 593.757 7.05241 594.295 6.74707C594.833 6.44173 595.473 6.28906 596.216 6.28906C596.913 6.28906 597.528 6.44173 598.062 6.74707C598.595 7.05241 599.012 7.49674 599.312 8.08008C599.613 8.66341 599.764 9.36979 599.764 10.1992ZM594.274 10.1992C594.274 10.7507 594.34 11.2223 594.473 11.6143C594.609 12.0062 594.819 12.307 595.102 12.5166C595.384 12.7217 595.749 12.8242 596.195 12.8242C596.642 12.8242 597.007 12.7217 597.289 12.5166C597.572 12.307 597.779 12.0062 597.911 11.6143C598.043 11.2223 598.109 10.7507 598.109 10.1992C598.109 9.64779 598.043 9.18066 597.911 8.79785C597.779 8.41048 597.572 8.11654 597.289 7.91602C597.007 7.71094 596.64 7.6084 596.188 7.6084C595.523 7.6084 595.038 7.83171 594.732 8.27832C594.427 8.72493 594.274 9.36523 594.274 10.1992ZM603.216 3.36328V8.50391C603.216 8.73633 603.207 8.99154 603.188 9.26953C603.17 9.54297 603.152 9.80046 603.134 10.042H603.168C603.286 9.88249 603.428 9.69564 603.592 9.48145C603.76 9.26725 603.92 9.0804 604.07 8.9209L606.381 6.43262H608.227L605.198 9.68652L608.425 14H606.538L604.118 10.6777L603.216 11.4502V14H601.609V3.36328H603.216ZM612.649 6.28906C613.324 6.28906 613.903 6.42806 614.386 6.70605C614.869 6.98405 615.24 7.37826 615.5 7.88867C615.76 8.39909 615.89 9.00977 615.89 9.7207V10.582H610.838C610.856 11.3158 611.052 11.8809 611.426 12.2773C611.804 12.6738 612.333 12.8721 613.012 12.8721C613.495 12.8721 613.928 12.8265 614.311 12.7354C614.698 12.6396 615.097 12.5007 615.507 12.3184V13.624C615.129 13.8018 614.743 13.9316 614.352 14.0137C613.96 14.0957 613.49 14.1367 612.943 14.1367C612.201 14.1367 611.547 13.9932 610.981 13.7061C610.421 13.4144 609.981 12.9814 609.662 12.4072C609.348 11.833 609.19 11.1198 609.19 10.2676C609.19 9.41992 609.334 8.69987 609.621 8.10742C609.908 7.51497 610.312 7.0638 610.831 6.75391C611.351 6.44401 611.957 6.28906 612.649 6.28906ZM612.649 7.49902C612.144 7.49902 611.733 7.66309 611.419 7.99121C611.109 8.31934 610.927 8.80013 610.872 9.43359H614.317C614.313 9.05534 614.249 8.72038 614.126 8.42871C614.007 8.13704 613.825 7.90918 613.579 7.74512C613.338 7.58105 613.028 7.49902 612.649 7.49902ZM621.646 6.28906C622.498 6.28906 623.161 6.51009 623.635 6.95215C624.113 7.38965 624.353 8.09375 624.353 9.06445V14H622.746V9.36523C622.746 8.77734 622.625 8.33757 622.384 8.0459C622.142 7.74967 621.769 7.60156 621.263 7.60156C620.529 7.60156 620.019 7.82715 619.731 8.27832C619.449 8.72949 619.308 9.38346 619.308 10.2402V14H617.701V6.43262H618.952L619.178 7.45801H619.267C619.431 7.19368 619.633 6.97721 619.875 6.80859C620.121 6.63542 620.395 6.50553 620.695 6.41895C621.001 6.33236 621.317 6.28906 621.646 6.28906ZM631.688 11.8398C631.688 12.3366 631.567 12.7559 631.325 13.0977C631.084 13.4395 630.73 13.6992 630.266 13.877C629.805 14.0501 629.24 14.1367 628.57 14.1367C628.042 14.1367 627.586 14.098 627.203 14.0205C626.825 13.9476 626.467 13.8337 626.13 13.6787V12.291C626.49 12.4596 626.893 12.6055 627.34 12.7285C627.791 12.8516 628.217 12.9131 628.618 12.9131C629.147 12.9131 629.527 12.8311 629.76 12.667C629.992 12.4984 630.108 12.2751 630.108 11.9971C630.108 11.833 630.061 11.6872 629.965 11.5596C629.874 11.4274 629.701 11.293 629.445 11.1562C629.195 11.015 628.826 10.8464 628.338 10.6504C627.859 10.459 627.456 10.2676 627.128 10.0762C626.8 9.88477 626.551 9.65462 626.383 9.38574C626.214 9.1123 626.13 8.76367 626.13 8.33984C626.13 7.66992 626.394 7.16178 626.923 6.81543C627.456 6.46452 628.16 6.28906 629.035 6.28906C629.5 6.28906 629.938 6.33691 630.348 6.43262C630.762 6.52376 631.168 6.6582 631.564 6.83594L631.059 8.0459C630.717 7.89551 630.373 7.77246 630.026 7.67676C629.685 7.5765 629.336 7.52637 628.98 7.52637C628.566 7.52637 628.249 7.59017 628.03 7.71777C627.816 7.84538 627.709 8.02767 627.709 8.26465C627.709 8.44238 627.761 8.59277 627.866 8.71582C627.971 8.83887 628.151 8.96191 628.406 9.08496C628.666 9.20801 629.026 9.36068 629.486 9.54297C629.938 9.71615 630.327 9.89844 630.655 10.0898C630.988 10.2767 631.243 10.5068 631.421 10.7803C631.599 11.0537 631.688 11.4069 631.688 11.8398Z" fill="black"/>
<rect x="584" y="30" width="24" height="24" fill="#FAE4E1"/>
<path d="M620.44 43.4434V42.6484H623.104V43.4434H620.44ZM623.985 43.4434V42.6484H626.649V43.4434H623.985ZM631.838 44.3887C631.838 44.7646 631.743 45.0815 631.553 45.3394C631.367 45.5936 631.098 45.7852 630.748 45.9141C630.4 46.043 629.985 46.1074 629.501 46.1074C629.09 46.1074 628.733 46.0752 628.433 46.0107C628.132 45.9463 627.869 45.855 627.643 45.7368V44.915C627.883 45.0332 628.169 45.1406 628.502 45.2373C628.835 45.334 629.176 45.3823 629.523 45.3823C630.031 45.3823 630.4 45.3 630.629 45.1353C630.859 44.9705 630.973 44.7467 630.973 44.4639C630.973 44.3027 630.927 44.1613 630.833 44.0396C630.744 43.9142 630.592 43.7943 630.377 43.6797C630.162 43.5615 629.865 43.4326 629.485 43.293C629.109 43.1497 628.784 43.0083 628.508 42.8687C628.236 42.7254 628.024 42.5518 627.874 42.3477C627.727 42.1436 627.654 41.8786 627.654 41.5527C627.654 41.055 627.854 40.6737 628.255 40.4087C628.66 40.1401 629.19 40.0059 629.845 40.0059C630.2 40.0059 630.531 40.0417 630.839 40.1133C631.15 40.1813 631.44 40.2744 631.709 40.3926L631.408 41.1069C631.165 41.0031 630.905 40.9154 630.629 40.8438C630.354 40.7721 630.073 40.7363 629.786 40.7363C629.374 40.7363 629.057 40.8044 628.835 40.9404C628.617 41.0765 628.508 41.2627 628.508 41.499C628.508 41.6816 628.558 41.832 628.658 41.9502C628.762 42.0684 628.927 42.1794 629.152 42.2832C629.378 42.387 629.675 42.5088 630.044 42.6484C630.413 42.7845 630.731 42.9259 631 43.0728C631.269 43.216 631.474 43.3914 631.618 43.5991C631.764 43.8032 631.838 44.0664 631.838 44.3887ZM635.474 40.0166C636.176 40.0166 636.697 40.1742 637.037 40.4893C637.377 40.8044 637.547 41.3075 637.547 41.9985V46H636.897L636.726 45.1299H636.683C636.518 45.3447 636.346 45.5256 636.167 45.6724C635.988 45.8156 635.78 45.9248 635.544 46C635.311 46.0716 635.025 46.1074 634.685 46.1074C634.326 46.1074 634.008 46.0448 633.729 45.9194C633.453 45.7941 633.234 45.6043 633.073 45.3501C632.916 45.0959 632.837 44.7736 632.837 44.3833C632.837 43.7961 633.07 43.3449 633.535 43.0298C634.001 42.7147 634.71 42.5428 635.662 42.5142L636.677 42.4712V42.1113C636.677 41.6029 636.568 41.2466 636.35 41.0425C636.131 40.8384 635.823 40.7363 635.426 40.7363C635.118 40.7363 634.824 40.7811 634.545 40.8706C634.266 40.9601 634.001 41.0658 633.75 41.1875L633.476 40.5107C633.741 40.3747 634.045 40.2583 634.389 40.1616C634.733 40.0649 635.095 40.0166 635.474 40.0166ZM636.667 43.0996L635.77 43.1372C635.035 43.1659 634.518 43.2858 634.217 43.4971C633.917 43.7083 633.766 44.0073 633.766 44.394C633.766 44.7306 633.868 44.9795 634.072 45.1406C634.276 45.3018 634.547 45.3823 634.883 45.3823C635.406 45.3823 635.834 45.2373 636.167 44.9473C636.5 44.6572 636.667 44.2222 636.667 43.6421V43.0996ZM640.281 46H639.384V37.6426H640.281V46ZM644.068 45.377C644.215 45.377 644.365 45.3644 644.519 45.3394C644.673 45.3143 644.798 45.2839 644.895 45.248V45.9409C644.791 45.9875 644.646 46.0269 644.46 46.0591C644.277 46.0913 644.098 46.1074 643.923 46.1074C643.611 46.1074 643.328 46.0537 643.074 45.9463C642.82 45.8353 642.616 45.6491 642.462 45.3877C642.312 45.1263 642.236 44.7646 642.236 44.3027V40.8115H641.398V40.3765L642.242 40.0273L642.596 38.749H643.133V40.1133H644.857V40.8115H643.133V44.2759C643.133 44.6447 643.217 44.9204 643.386 45.103C643.558 45.2856 643.785 45.377 644.068 45.377ZM645.588 43.4434V42.6484H648.252V43.4434H645.588ZM653.44 44.3887C653.44 44.7646 653.346 45.0815 653.156 45.3394C652.97 45.5936 652.701 45.7852 652.35 45.9141C652.003 46.043 651.587 46.1074 651.104 46.1074C650.692 46.1074 650.336 46.0752 650.035 46.0107C649.734 45.9463 649.471 45.855 649.246 45.7368V44.915C649.486 45.0332 649.772 45.1406 650.105 45.2373C650.438 45.334 650.778 45.3823 651.125 45.3823C651.634 45.3823 652.003 45.3 652.232 45.1353C652.461 44.9705 652.576 44.7467 652.576 44.4639C652.576 44.3027 652.529 44.1613 652.436 44.0396C652.347 43.9142 652.194 43.7943 651.979 43.6797C651.765 43.5615 651.467 43.4326 651.088 43.293C650.712 43.1497 650.386 43.0083 650.11 42.8687C649.838 42.7254 649.627 42.5518 649.477 42.3477C649.33 42.1436 649.256 41.8786 649.256 41.5527C649.256 41.055 649.457 40.6737 649.858 40.4087C650.263 40.1401 650.792 40.0059 651.448 40.0059C651.802 40.0059 652.133 40.0417 652.441 40.1133C652.753 40.1813 653.043 40.2744 653.312 40.3926L653.011 41.1069C652.767 41.0031 652.508 40.9154 652.232 40.8438C651.956 40.7721 651.675 40.7363 651.389 40.7363C650.977 40.7363 650.66 40.8044 650.438 40.9404C650.22 41.0765 650.11 41.2627 650.11 41.499C650.11 41.6816 650.16 41.832 650.261 41.9502C650.365 42.0684 650.529 42.1794 650.755 42.2832C650.98 42.387 651.278 42.5088 651.646 42.6484C652.015 42.7845 652.334 42.9259 652.603 43.0728C652.871 43.216 653.077 43.3914 653.22 43.5991C653.367 43.8032 653.44 44.0664 653.44 44.3887ZM655.766 40.1133V46H654.875V40.1133H655.766ZM655.331 37.9111C655.478 37.9111 655.603 37.9595 655.707 38.0562C655.814 38.1493 655.868 38.2961 655.868 38.4966C655.868 38.6935 655.814 38.8403 655.707 38.937C655.603 39.0337 655.478 39.082 655.331 39.082C655.177 39.082 655.048 39.0337 654.944 38.937C654.844 38.8403 654.794 38.6935 654.794 38.4966C654.794 38.2961 654.844 38.1493 654.944 38.0562C655.048 37.9595 655.177 37.9111 655.331 37.9111ZM661.438 46H657.146V45.4092L660.375 40.8115H657.351V40.1133H661.368V40.7739L658.183 45.3071H661.438V46ZM665.08 40.0059C665.581 40.0059 666.011 40.1169 666.369 40.3389C666.727 40.5609 667.001 40.8724 667.19 41.2734C667.38 41.6709 667.475 42.1364 667.475 42.6699V43.2231H663.409C663.42 43.9142 663.592 44.4406 663.925 44.8022C664.258 45.1639 664.727 45.3447 665.332 45.3447C665.704 45.3447 666.034 45.3107 666.32 45.2427C666.607 45.1746 666.904 45.0744 667.212 44.9419V45.7261C666.915 45.8586 666.619 45.9552 666.326 46.0161C666.036 46.077 665.692 46.1074 665.294 46.1074C664.729 46.1074 664.235 45.9928 663.812 45.7637C663.393 45.5309 663.067 45.1908 662.834 44.7432C662.602 44.2956 662.485 43.7477 662.485 43.0996C662.485 42.4658 662.591 41.918 662.802 41.4561C663.017 40.9906 663.318 40.6325 663.705 40.3818C664.095 40.1312 664.553 40.0059 665.08 40.0059ZM665.069 40.7363C664.593 40.7363 664.213 40.8921 663.93 41.2036C663.647 41.5151 663.479 41.9502 663.425 42.5088H666.541C666.537 42.1579 666.481 41.8499 666.374 41.585C666.27 41.3164 666.111 41.1087 665.896 40.9619C665.681 40.8115 665.405 40.7363 665.069 40.7363ZM668.49 43.4434V42.6484H671.154V43.4434H668.49ZM673.426 37.6426V39.7319C673.426 39.9718 673.419 40.2046 673.405 40.4302C673.394 40.6558 673.385 40.8312 673.378 40.9565H673.426C673.587 40.6916 673.82 40.4678 674.125 40.2852C674.429 40.1025 674.817 40.0112 675.29 40.0112C676.028 40.0112 676.615 40.2673 677.052 40.7793C677.492 41.2878 677.712 42.0451 677.712 43.0513C677.712 43.7137 677.612 44.2723 677.412 44.7271C677.211 45.1818 676.928 45.5256 676.563 45.7583C676.198 45.991 675.766 46.1074 675.269 46.1074C674.803 46.1074 674.42 46.0215 674.119 45.8496C673.822 45.6742 673.593 45.4611 673.432 45.2104H673.362L673.179 46H672.535V37.6426H673.426ZM675.145 40.7578C674.719 40.7578 674.381 40.842 674.13 41.0103C673.879 41.175 673.698 41.4256 673.587 41.7622C673.48 42.0952 673.426 42.5177 673.426 43.0298V43.0781C673.426 43.8193 673.55 44.3869 673.797 44.7808C674.044 45.1711 674.493 45.3662 675.145 45.3662C675.693 45.3662 676.103 45.1657 676.375 44.7646C676.651 44.3636 676.789 43.7907 676.789 43.0459C676.789 42.2868 676.653 41.7157 676.38 41.3325C676.112 40.9494 675.7 40.7578 675.145 40.7578ZM681.472 40.0166C682.174 40.0166 682.695 40.1742 683.035 40.4893C683.375 40.8044 683.545 41.3075 683.545 41.9985V46H682.896L682.724 45.1299H682.681C682.516 45.3447 682.344 45.5256 682.165 45.6724C681.986 45.8156 681.778 45.9248 681.542 46C681.309 46.0716 681.023 46.1074 680.683 46.1074C680.325 46.1074 680.006 46.0448 679.727 45.9194C679.451 45.7941 679.232 45.6043 679.071 45.3501C678.914 45.0959 678.835 44.7736 678.835 44.3833C678.835 43.7961 679.068 43.3449 679.533 43.0298C679.999 42.7147 680.708 42.5428 681.66 42.5142L682.675 42.4712V42.1113C682.675 41.6029 682.566 41.2466 682.348 41.0425C682.129 40.8384 681.821 40.7363 681.424 40.7363C681.116 40.7363 680.822 40.7811 680.543 40.8706C680.264 40.9601 679.999 41.0658 679.748 41.1875L679.474 40.5107C679.739 40.3747 680.043 40.2583 680.387 40.1616C680.731 40.0649 681.093 40.0166 681.472 40.0166ZM682.665 43.0996L681.768 43.1372C681.034 43.1659 680.516 43.2858 680.215 43.4971C679.915 43.7083 679.764 44.0073 679.764 44.394C679.764 44.7306 679.866 44.9795 680.07 45.1406C680.274 45.3018 680.545 45.3823 680.881 45.3823C681.404 45.3823 681.832 45.2373 682.165 44.9473C682.498 44.6572 682.665 44.2222 682.665 43.6421V43.0996ZM689.19 44.3887C689.19 44.7646 689.096 45.0815 688.906 45.3394C688.72 45.5936 688.451 45.7852 688.1 45.9141C687.753 46.043 687.337 46.1074 686.854 46.1074C686.442 46.1074 686.086 46.0752 685.785 46.0107C685.484 45.9463 685.221 45.855 684.996 45.7368V44.915C685.236 45.0332 685.522 45.1406 685.855 45.2373C686.188 45.334 686.528 45.3823 686.875 45.3823C687.384 45.3823 687.753 45.3 687.982 45.1353C688.211 44.9705 688.326 44.7467 688.326 44.4639C688.326 44.3027 688.279 44.1613 688.186 44.0396C688.097 43.9142 687.944 43.7943 687.729 43.6797C687.515 43.5615 687.217 43.4326 686.838 43.293C686.462 43.1497 686.136 43.0083 685.86 42.8687C685.588 42.7254 685.377 42.5518 685.227 42.3477C685.08 42.1436 685.006 41.8786 685.006 41.5527C685.006 41.055 685.207 40.6737 685.608 40.4087C686.013 40.1401 686.542 40.0059 687.198 40.0059C687.552 40.0059 687.883 40.0417 688.191 40.1133C688.503 40.1813 688.793 40.2744 689.062 40.3926L688.761 41.1069C688.517 41.0031 688.258 40.9154 687.982 40.8438C687.706 40.7721 687.425 40.7363 687.139 40.7363C686.727 40.7363 686.41 40.8044 686.188 40.9404C685.97 41.0765 685.86 41.2627 685.86 41.499C685.86 41.6816 685.91 41.832 686.011 41.9502C686.115 42.0684 686.279 42.1794 686.505 42.2832C686.73 42.387 687.028 42.5088 687.396 42.6484C687.765 42.7845 688.084 42.9259 688.353 43.0728C688.621 43.216 688.827 43.3914 688.97 43.5991C689.117 43.8032 689.19 44.0664 689.19 44.3887ZM692.891 40.0059C693.392 40.0059 693.822 40.1169 694.18 40.3389C694.538 40.5609 694.812 40.8724 695.002 41.2734C695.192 41.6709 695.287 42.1364 695.287 42.6699V43.2231H691.221C691.231 43.9142 691.403 44.4406 691.736 44.8022C692.069 45.1639 692.538 45.3447 693.144 45.3447C693.516 45.3447 693.845 45.3107 694.132 45.2427C694.418 45.1746 694.715 45.0744 695.023 44.9419V45.7261C694.726 45.8586 694.431 45.9552 694.137 46.0161C693.847 46.077 693.503 46.1074 693.106 46.1074C692.54 46.1074 692.046 45.9928 691.624 45.7637C691.205 45.5309 690.879 45.1908 690.646 44.7432C690.413 44.2956 690.297 43.7477 690.297 43.0996C690.297 42.4658 690.403 41.918 690.614 41.4561C690.829 40.9906 691.129 40.6325 691.516 40.3818C691.906 40.1312 692.365 40.0059 692.891 40.0059ZM692.88 40.7363C692.404 40.7363 692.025 40.8921 691.742 41.2036C691.459 41.5151 691.291 41.9502 691.237 42.5088H694.352C694.348 42.1579 694.293 41.8499 694.186 41.585C694.082 41.3164 693.922 41.1087 693.708 40.9619C693.493 40.8115 693.217 40.7363 692.88 40.7363Z" fill="black"/>
</svg>
