<svg width="730" height="178" viewBox="0 0 730 178" fill="none" xmlns="http://www.w3.org/2000/svg">
<path d="M189 59H201V60H189V59Z" fill="#161616"/>
<path fill-rule="evenodd" clip-rule="evenodd" d="M195 50H190V59H195V50ZM189 49V60H196V49H189Z" fill="#161616"/>
<path fill-rule="evenodd" clip-rule="evenodd" d="M200 53H198V59H200V53ZM197 52V60H201V52H197Z" fill="#161616"/>
<path d="M191 51H192V52H191V51Z" fill="#161616"/>
<path d="M191 53H192V54H191V53Z" fill="#161616"/>
<path d="M191 55H192V56H191V55Z" fill="#161616"/>
<path d="M193 51H194V52H193V51Z" fill="#161616"/>
<path d="M193 53H194V54H193V53Z" fill="#161616"/>
<path d="M193 55H194V56H193V55Z" fill="#161616"/>
<path d="M192 59V57H193V59H192Z" fill="#161616"/>
<path d="M281 70H305V72H281V70Z" fill="#161616"/>
<path fill-rule="evenodd" clip-rule="evenodd" d="M293 52H283V70H293V52ZM281 50V72H295V50H281Z" fill="#161616"/>
<path fill-rule="evenodd" clip-rule="evenodd" d="M303 58H299V70H303V58ZM297 56V72H305V56H297Z" fill="#161616"/>
<path d="M285 54H287V56H285V54Z" fill="#161616"/>
<path d="M285 58H287V60H285V58Z" fill="#161616"/>
<path d="M285 62H287V64H285V62Z" fill="#161616"/>
<path d="M289 54H291V56H289V54Z" fill="#161616"/>
<path d="M289 58H291V60H289V58Z" fill="#161616"/>
<path d="M289 62H291V64H289V62Z" fill="#161616"/>
<path d="M287 70V66H289V70H287Z" fill="#161616"/>
<path d="M385 81H421V84H385V81Z" fill="#161616"/>
<path fill-rule="evenodd" clip-rule="evenodd" d="M403 54H388V81H403V54ZM385 51V84H406V51H385Z" fill="#161616"/>
<path fill-rule="evenodd" clip-rule="evenodd" d="M418 63H412V81H418V63ZM409 60V84H421V60H409Z" fill="#161616"/>
<path d="M391 57H394V60H391V57Z" fill="#161616"/>
<path d="M391 63H394V66H391V63Z" fill="#161616"/>
<path d="M391 69H394V72H391V69Z" fill="#161616"/>
<path d="M397 57H400V60H397V57Z" fill="#161616"/>
<path d="M397 63H400V66H397V63Z" fill="#161616"/>
<path d="M397 69H400V72H397V69Z" fill="#161616"/>
<path d="M394 81V75H397V81H394Z" fill="#161616"/>
<path d="M588.778 14H587.131V5.40039H584.205V4.00586H591.697V5.40039H588.778V14ZM599.764 10.1992C599.764 10.8281 599.682 11.3864 599.518 11.874C599.354 12.3617 599.114 12.7741 598.8 13.1113C598.485 13.444 598.107 13.6992 597.665 13.877C597.223 14.0501 596.724 14.1367 596.168 14.1367C595.648 14.1367 595.172 14.0501 594.739 13.877C594.306 13.6992 593.93 13.444 593.611 13.1113C593.297 12.7741 593.053 12.3617 592.88 11.874C592.707 11.3864 592.62 10.8281 592.62 10.1992C592.62 9.36523 592.764 8.65885 593.051 8.08008C593.342 7.49674 593.757 7.05241 594.295 6.74707C594.833 6.44173 595.473 6.28906 596.216 6.28906C596.913 6.28906 597.528 6.44173 598.062 6.74707C598.595 7.05241 599.012 7.49674 599.312 8.08008C599.613 8.66341 599.764 9.36979 599.764 10.1992ZM594.274 10.1992C594.274 10.7507 594.34 11.2223 594.473 11.6143C594.609 12.0062 594.819 12.307 595.102 12.5166C595.384 12.7217 595.749 12.8242 596.195 12.8242C596.642 12.8242 597.007 12.7217 597.289 12.5166C597.572 12.307 597.779 12.0062 597.911 11.6143C598.043 11.2223 598.109 10.7507 598.109 10.1992C598.109 9.64779 598.043 9.18066 597.911 8.79785C597.779 8.41048 597.572 8.11654 597.289 7.91602C597.007 7.71094 596.64 7.6084 596.188 7.6084C595.523 7.6084 595.038 7.83171 594.732 8.27832C594.427 8.72493 594.274 9.36523 594.274 10.1992ZM603.216 3.36328V8.50391C603.216 8.73633 603.207 8.99154 603.188 9.26953C603.17 9.54297 603.152 9.80046 603.134 10.042H603.168C603.286 9.88249 603.428 9.69564 603.592 9.48145C603.76 9.26725 603.92 9.0804 604.07 8.9209L606.381 6.43262H608.227L605.198 9.68652L608.425 14H606.538L604.118 10.6777L603.216 11.4502V14H601.609V3.36328H603.216ZM612.649 6.28906C613.324 6.28906 613.903 6.42806 614.386 6.70605C614.869 6.98405 615.24 7.37826 615.5 7.88867C615.76 8.39909 615.89 9.00977 615.89 9.7207V10.582H610.838C610.856 11.3158 611.052 11.8809 611.426 12.2773C611.804 12.6738 612.333 12.8721 613.012 12.8721C613.495 12.8721 613.928 12.8265 614.311 12.7354C614.698 12.6396 615.097 12.5007 615.507 12.3184V13.624C615.129 13.8018 614.743 13.9316 614.352 14.0137C613.96 14.0957 613.49 14.1367 612.943 14.1367C612.201 14.1367 611.547 13.9932 610.981 13.7061C610.421 13.4144 609.981 12.9814 609.662 12.4072C609.348 11.833 609.19 11.1198 609.19 10.2676C609.19 9.41992 609.334 8.69987 609.621 8.10742C609.908 7.51497 610.312 7.0638 610.831 6.75391C611.351 6.44401 611.957 6.28906 612.649 6.28906ZM612.649 7.49902C612.144 7.49902 611.733 7.66309 611.419 7.99121C611.109 8.31934 610.927 8.80013 610.872 9.43359H614.317C614.313 9.05534 614.249 8.72038 614.126 8.42871C614.007 8.13704 613.825 7.90918 613.579 7.74512C613.338 7.58105 613.028 7.49902 612.649 7.49902ZM621.646 6.28906C622.498 6.28906 623.161 6.51009 623.635 6.95215C624.113 7.38965 624.353 8.09375 624.353 9.06445V14H622.746V9.36523C622.746 8.77734 622.625 8.33757 622.384 8.0459C622.142 7.74967 621.769 7.60156 621.263 7.60156C620.529 7.60156 620.019 7.82715 619.731 8.27832C619.449 8.72949 619.308 9.38346 619.308 10.2402V14H617.701V6.43262H618.952L619.178 7.45801H619.267C619.431 7.19368 619.633 6.97721 619.875 6.80859C620.121 6.63542 620.395 6.50553 620.695 6.41895C621.001 6.33236 621.317 6.28906 621.646 6.28906ZM631.688 11.8398C631.688 12.3366 631.567 12.7559 631.325 13.0977C631.084 13.4395 630.73 13.6992 630.266 13.877C629.805 14.0501 629.24 14.1367 628.57 14.1367C628.042 14.1367 627.586 14.098 627.203 14.0205C626.825 13.9476 626.467 13.8337 626.13 13.6787V12.291C626.49 12.4596 626.893 12.6055 627.34 12.7285C627.791 12.8516 628.217 12.9131 628.618 12.9131C629.147 12.9131 629.527 12.8311 629.76 12.667C629.992 12.4984 630.108 12.2751 630.108 11.9971C630.108 11.833 630.061 11.6872 629.965 11.5596C629.874 11.4274 629.701 11.293 629.445 11.1562C629.195 11.015 628.826 10.8464 628.338 10.6504C627.859 10.459 627.456 10.2676 627.128 10.0762C626.8 9.88477 626.551 9.65462 626.383 9.38574C626.214 9.1123 626.13 8.76367 626.13 8.33984C626.13 7.66992 626.394 7.16178 626.923 6.81543C627.456 6.46452 628.16 6.28906 629.035 6.28906C629.5 6.28906 629.938 6.33691 630.348 6.43262C630.762 6.52376 631.168 6.6582 631.564 6.83594L631.059 8.0459C630.717 7.89551 630.373 7.77246 630.026 7.67676C629.685 7.5765 629.336 7.52637 628.98 7.52637C628.566 7.52637 628.249 7.59017 628.03 7.71777C627.816 7.84538 627.709 8.02767 627.709 8.26465C627.709 8.44238 627.761 8.59277 627.866 8.71582C627.971 8.83887 628.151 8.96191 628.406 9.08496C628.666 9.20801 629.026 9.36068 629.486 9.54297C629.938 9.71615 630.327 9.89844 630.655 10.0898C630.988 10.2767 631.243 10.5068 631.421 10.7803C631.599 11.0537 631.688 11.4069 631.688 11.8398Z" fill="black"/>
<rect x="584" y="30" width="24" height="24" fill="#FAE4E1"/>
<path d="M620.44 43.4434V42.6484H623.104V43.4434H620.44ZM623.985 43.4434V42.6484H626.649V43.4434H623.985ZM631.838 44.3887C631.838 44.7646 631.743 45.0815 631.553 45.3394C631.367 45.5936 631.098 45.7852 630.748 45.9141C630.4 46.043 629.985 46.1074 629.501 46.1074C629.09 46.1074 628.733 46.0752 628.433 46.0107C628.132 45.9463 627.869 45.855 627.643 45.7368V44.915C627.883 45.0332 628.169 45.1406 628.502 45.2373C628.835 45.334 629.176 45.3823 629.523 45.3823C630.031 45.3823 630.4 45.3 630.629 45.1353C630.859 44.9705 630.973 44.7467 630.973 44.4639C630.973 44.3027 630.927 44.1613 630.833 44.0396C630.744 43.9142 630.592 43.7943 630.377 43.6797C630.162 43.5615 629.865 43.4326 629.485 43.293C629.109 43.1497 628.784 43.0083 628.508 42.8687C628.236 42.7254 628.024 42.5518 627.874 42.3477C627.727 42.1436 627.654 41.8786 627.654 41.5527C627.654 41.055 627.854 40.6737 628.255 40.4087C628.66 40.1401 629.19 40.0059 629.845 40.0059C630.2 40.0059 630.531 40.0417 630.839 40.1133C631.15 40.1813 631.44 40.2744 631.709 40.3926L631.408 41.1069C631.165 41.0031 630.905 40.9154 630.629 40.8438C630.354 40.7721 630.073 40.7363 629.786 40.7363C629.374 40.7363 629.057 40.8044 628.835 40.9404C628.617 41.0765 628.508 41.2627 628.508 41.499C628.508 41.6816 628.558 41.832 628.658 41.9502C628.762 42.0684 628.927 42.1794 629.152 42.2832C629.378 42.387 629.675 42.5088 630.044 42.6484C630.413 42.7845 630.731 42.9259 631 43.0728C631.269 43.216 631.474 43.3914 631.618 43.5991C631.764 43.8032 631.838 44.0664 631.838 44.3887ZM635.474 40.0166C636.176 40.0166 636.697 40.1742 637.037 40.4893C637.377 40.8044 637.547 41.3075 637.547 41.9985V46H636.897L636.726 45.1299H636.683C636.518 45.3447 636.346 45.5256 636.167 45.6724C635.988 45.8156 635.78 45.9248 635.544 46C635.311 46.0716 635.025 46.1074 634.685 46.1074C634.326 46.1074 634.008 46.0448 633.729 45.9194C633.453 45.7941 633.234 45.6043 633.073 45.3501C632.916 45.0959 632.837 44.7736 632.837 44.3833C632.837 43.7961 633.07 43.3449 633.535 43.0298C634.001 42.7147 634.71 42.5428 635.662 42.5142L636.677 42.4712V42.1113C636.677 41.6029 636.568 41.2466 636.35 41.0425C636.131 40.8384 635.823 40.7363 635.426 40.7363C635.118 40.7363 634.824 40.7811 634.545 40.8706C634.266 40.9601 634.001 41.0658 633.75 41.1875L633.476 40.5107C633.741 40.3747 634.045 40.2583 634.389 40.1616C634.733 40.0649 635.095 40.0166 635.474 40.0166ZM636.667 43.0996L635.77 43.1372C635.035 43.1659 634.518 43.2858 634.217 43.4971C633.917 43.7083 633.766 44.0073 633.766 44.394C633.766 44.7306 633.868 44.9795 634.072 45.1406C634.276 45.3018 634.547 45.3823 634.883 45.3823C635.406 45.3823 635.834 45.2373 636.167 44.9473C636.5 44.6572 636.667 44.2222 636.667 43.6421V43.0996ZM640.281 46H639.384V37.6426H640.281V46ZM644.068 45.377C644.215 45.377 644.365 45.3644 644.519 45.3394C644.673 45.3143 644.798 45.2839 644.895 45.248V45.9409C644.791 45.9875 644.646 46.0269 644.46 46.0591C644.277 46.0913 644.098 46.1074 643.923 46.1074C643.611 46.1074 643.328 46.0537 643.074 45.9463C642.82 45.8353 642.616 45.6491 642.462 45.3877C642.312 45.1263 642.236 44.7646 642.236 44.3027V40.8115H641.398V40.3765L642.242 40.0273L642.596 38.749H643.133V40.1133H644.857V40.8115H643.133V44.2759C643.133 44.6447 643.217 44.9204 643.386 45.103C643.558 45.2856 643.785 45.377 644.068 45.377ZM645.588 43.4434V42.6484H648.252V43.4434H645.588ZM653.44 44.3887C653.44 44.7646 653.346 45.0815 653.156 45.3394C652.97 45.5936 652.701 45.7852 652.35 45.9141C652.003 46.043 651.587 46.1074 651.104 46.1074C650.692 46.1074 650.336 46.0752 650.035 46.0107C649.734 45.9463 649.471 45.855 649.246 45.7368V44.915C649.486 45.0332 649.772 45.1406 650.105 45.2373C650.438 45.334 650.778 45.3823 651.125 45.3823C651.634 45.3823 652.003 45.3 652.232 45.1353C652.461 44.9705 652.576 44.7467 652.576 44.4639C652.576 44.3027 652.529 44.1613 652.436 44.0396C652.347 43.9142 652.194 43.7943 651.979 43.6797C651.765 43.5615 651.467 43.4326 651.088 43.293C650.712 43.1497 650.386 43.0083 650.11 42.8687C649.838 42.7254 649.627 42.5518 649.477 42.3477C649.33 42.1436 649.256 41.8786 649.256 41.5527C649.256 41.055 649.457 40.6737 649.858 40.4087C650.263 40.1401 650.792 40.0059 651.448 40.0059C651.802 40.0059 652.133 40.0417 652.441 40.1133C652.753 40.1813 653.043 40.2744 653.312 40.3926L653.011 41.1069C652.767 41.0031 652.508 40.9154 652.232 40.8438C651.956 40.7721 651.675 40.7363 651.389 40.7363C650.977 40.7363 650.66 40.8044 650.438 40.9404C650.22 41.0765 650.11 41.2627 650.11 41.499C650.11 41.6816 650.16 41.832 650.261 41.9502C650.365 42.0684 650.529 42.1794 650.755 42.2832C650.98 42.387 651.278 42.5088 651.646 42.6484C652.015 42.7845 652.334 42.9259 652.603 43.0728C652.871 43.216 653.077 43.3914 653.22 43.5991C653.367 43.8032 653.44 44.0664 653.44 44.3887ZM655.766 40.1133V46H654.875V40.1133H655.766ZM655.331 37.9111C655.478 37.9111 655.603 37.9595 655.707 38.0562C655.814 38.1493 655.868 38.2961 655.868 38.4966C655.868 38.6935 655.814 38.8403 655.707 38.937C655.603 39.0337 655.478 39.082 655.331 39.082C655.177 39.082 655.048 39.0337 654.944 38.937C654.844 38.8403 654.794 38.6935 654.794 38.4966C654.794 38.2961 654.844 38.1493 654.944 38.0562C655.048 37.9595 655.177 37.9111 655.331 37.9111ZM661.438 46H657.146V45.4092L660.375 40.8115H657.351V40.1133H661.368V40.7739L658.183 45.3071H661.438V46ZM665.08 40.0059C665.581 40.0059 666.011 40.1169 666.369 40.3389C666.727 40.5609 667.001 40.8724 667.19 41.2734C667.38 41.6709 667.475 42.1364 667.475 42.6699V43.2231H663.409C663.42 43.9142 663.592 44.4406 663.925 44.8022C664.258 45.1639 664.727 45.3447 665.332 45.3447C665.704 45.3447 666.034 45.3107 666.32 45.2427C666.607 45.1746 666.904 45.0744 667.212 44.9419V45.7261C666.915 45.8586 666.619 45.9552 666.326 46.0161C666.036 46.077 665.692 46.1074 665.294 46.1074C664.729 46.1074 664.235 45.9928 663.812 45.7637C663.393 45.5309 663.067 45.1908 662.834 44.7432C662.602 44.2956 662.485 43.7477 662.485 43.0996C662.485 42.4658 662.591 41.918 662.802 41.4561C663.017 40.9906 663.318 40.6325 663.705 40.3818C664.095 40.1312 664.553 40.0059 665.08 40.0059ZM665.069 40.7363C664.593 40.7363 664.213 40.8921 663.93 41.2036C663.647 41.5151 663.479 41.9502 663.425 42.5088H666.541C666.537 42.1579 666.481 41.8499 666.374 41.585C666.27 41.3164 666.111 41.1087 665.896 40.9619C665.681 40.8115 665.405 40.7363 665.069 40.7363ZM668.49 43.4434V42.6484H671.154V43.4434H668.49ZM673.426 40.1133V46H672.535V40.1133H673.426ZM672.991 37.9111C673.138 37.9111 673.263 37.9595 673.367 38.0562C673.475 38.1493 673.528 38.2961 673.528 38.4966C673.528 38.6935 673.475 38.8403 673.367 38.937C673.263 39.0337 673.138 39.082 672.991 39.082C672.837 39.082 672.708 39.0337 672.604 38.937C672.504 38.8403 672.454 38.6935 672.454 38.4966C672.454 38.2961 672.504 38.1493 672.604 38.0562C672.708 37.9595 672.837 37.9111 672.991 37.9111ZM677.675 46.1074C677.145 46.1074 676.678 45.9982 676.273 45.7798C675.868 45.5614 675.553 45.2284 675.328 44.7808C675.102 44.3332 674.989 43.7692 674.989 43.0889C674.989 42.3763 675.107 41.7944 675.344 41.3433C675.584 40.8885 675.913 40.5519 676.332 40.3335C676.751 40.1151 677.227 40.0059 677.761 40.0059C678.054 40.0059 678.337 40.0363 678.609 40.0972C678.885 40.1545 679.111 40.2279 679.286 40.3174L679.018 41.064C678.839 40.9924 678.631 40.9279 678.395 40.8706C678.162 40.8133 677.943 40.7847 677.739 40.7847C677.331 40.7847 676.991 40.8724 676.719 41.0479C676.45 41.2233 676.248 41.4811 676.112 41.8213C675.979 42.1615 675.913 42.5804 675.913 43.0781C675.913 43.5544 675.978 43.9608 676.106 44.2974C676.239 44.634 676.434 44.8918 676.692 45.0708C676.953 45.2463 677.279 45.334 677.669 45.334C677.981 45.334 678.262 45.3018 678.513 45.2373C678.763 45.1693 678.991 45.0905 679.195 45.001V45.7959C678.998 45.8962 678.778 45.9731 678.534 46.0269C678.294 46.0806 678.008 46.1074 677.675 46.1074ZM685.667 43.0459C685.667 43.5293 685.604 43.9608 685.479 44.3403C685.354 44.7199 685.173 45.0404 684.937 45.3018C684.7 45.5632 684.414 45.7637 684.077 45.9033C683.744 46.0394 683.366 46.1074 682.944 46.1074C682.55 46.1074 682.188 46.0394 681.859 45.9033C681.533 45.7637 681.25 45.5632 681.01 45.3018C680.774 45.0404 680.59 44.7199 680.457 44.3403C680.328 43.9608 680.264 43.5293 680.264 43.0459C680.264 42.4014 680.373 41.8535 680.591 41.4023C680.81 40.9476 681.121 40.6021 681.526 40.3657C681.934 40.1258 682.419 40.0059 682.981 40.0059C683.519 40.0059 683.988 40.1258 684.389 40.3657C684.793 40.6056 685.107 40.953 685.329 41.4077C685.554 41.8589 685.667 42.4049 685.667 43.0459ZM681.188 43.0459C681.188 43.5186 681.25 43.9285 681.375 44.2759C681.501 44.6232 681.694 44.8918 681.956 45.0815C682.217 45.2713 682.554 45.3662 682.965 45.3662C683.374 45.3662 683.708 45.2713 683.97 45.0815C684.235 44.8918 684.43 44.6232 684.555 44.2759C684.681 43.9285 684.743 43.5186 684.743 43.0459C684.743 42.5768 684.681 42.1722 684.555 41.832C684.43 41.4883 684.236 41.2233 683.975 41.0371C683.714 40.8509 683.375 40.7578 682.96 40.7578C682.348 40.7578 681.898 40.9601 681.612 41.3647C681.329 41.7694 681.188 42.3298 681.188 43.0459ZM689.996 40.0059C690.694 40.0059 691.222 40.1777 691.581 40.5215C691.939 40.8617 692.118 41.4095 692.118 42.165V46H691.237V42.2241C691.237 41.7336 691.124 41.3665 690.898 41.123C690.676 40.8796 690.334 40.7578 689.873 40.7578C689.221 40.7578 688.763 40.9422 688.498 41.311C688.233 41.6799 688.1 42.2152 688.1 42.917V46H687.208V40.1133H687.928L688.062 40.9619H688.111C688.236 40.7542 688.396 40.5806 688.589 40.4409C688.782 40.2977 688.999 40.1903 689.239 40.1187C689.479 40.0435 689.731 40.0059 689.996 40.0059Z" fill="black"/>
</svg>
