<svg width="138" height="138" viewBox="0 0 138 138" fill="none" xmlns="http://www.w3.org/2000/svg">
<path d="M68.8933 2.30152V137.698" stroke="#008297" stroke-width="3"/>
<path d="M136 69C136 106.003 106.003 136 69 136C31.9969 136 2 106.003 2 69C2 31.9969 31.9969 2 69 2C106.003 2 136 31.9969 136 69Z" stroke="#008297" stroke-width="4"/>
<line x1="68" y1="123.5" x2="30" y2="123.5" stroke="#008297" stroke-width="3"/>
<line x1="68" y1="108.5" x2="14" y2="108.5" stroke="#008297" stroke-width="3"/>
<line x1="68" y1="93.5" x2="5.99194" y2="93.5" stroke="#008297" stroke-width="3"/>
<line x1="68" y1="78.5" x2="4" y2="78.5" stroke="#008297" stroke-width="3"/>
<line x1="68" y1="63.5" x2="4" y2="63.5" stroke="#008297" stroke-width="3"/>
<line x1="68" y1="48.5" x2="4" y2="48.5" stroke="#008297" stroke-width="3"/>
<line x1="68" y1="33.5" x2="11" y2="33.5" stroke="#008297" stroke-width="3"/>
<line x1="68" y1="18.5" x2="23" y2="18.5" stroke="#008297" stroke-width="3"/>
</svg>
