<svg width="776" height="209" viewBox="0 0 776 209" fill="none" xmlns="http://www.w3.org/2000/svg">
<rect x="0.5" y="0.5" width="447" height="35" fill="white"/>
<path fill-rule="evenodd" clip-rule="evenodd" d="M19.8005 14.2598L12.3378 22.3123L8.23828 18.4807L9.26252 17.3848L12.2616 20.1878L18.7003 13.2402L19.8005 14.2598Z" fill="#24874B"/>
<path d="M32.0059 20.7207C32.0059 21.2285 31.8789 21.6621 31.625 22.0215C31.375 22.377 31.0234 22.6484 30.5703 22.8359C30.1172 23.0234 29.584 23.1172 28.9707 23.1172C28.6465 23.1172 28.3398 23.1016 28.0508 23.0703C27.7617 23.0391 27.4961 22.9941 27.2539 22.9355C27.0117 22.877 26.7988 22.8047 26.6152 22.7188V21.7637C26.9082 21.8848 27.2656 21.998 27.6875 22.1035C28.1094 22.2051 28.5508 22.2559 29.0117 22.2559C29.4414 22.2559 29.8047 22.1992 30.1016 22.0859C30.3984 21.9688 30.623 21.8027 30.7754 21.5879C30.9316 21.3691 31.0098 21.1074 31.0098 20.8027C31.0098 20.5098 30.9453 20.2656 30.8164 20.0703C30.6875 19.8711 30.4727 19.6914 30.1719 19.5312C29.875 19.3672 29.4688 19.1934 28.9531 19.0098C28.5898 18.8809 28.2695 18.7402 27.9922 18.5879C27.7148 18.4316 27.4824 18.2559 27.2949 18.0605C27.1074 17.8652 26.9648 17.6387 26.8672 17.3809C26.7734 17.123 26.7266 16.8281 26.7266 16.4961C26.7266 16.0391 26.8418 15.6484 27.0723 15.3242C27.3066 14.9961 27.6289 14.7461 28.0391 14.5742C28.4531 14.3984 28.9277 14.3105 29.4629 14.3105C29.9199 14.3105 30.3418 14.3535 30.7285 14.4395C31.1191 14.5254 31.4766 14.6406 31.8008 14.7852L31.4902 15.6406C31.1816 15.5117 30.8535 15.4043 30.5059 15.3184C30.1621 15.2324 29.8066 15.1895 29.4395 15.1895C29.0723 15.1895 28.7617 15.2441 28.5078 15.3535C28.2578 15.459 28.0664 15.6094 27.9336 15.8047C27.8008 16 27.7344 16.2324 27.7344 16.502C27.7344 16.8027 27.7969 17.0527 27.9219 17.252C28.0508 17.4512 28.2539 17.6289 28.5312 17.7852C28.8125 17.9375 29.1836 18.0977 29.6445 18.2656C30.1484 18.4492 30.5762 18.6445 30.9277 18.8516C31.2793 19.0547 31.5469 19.3047 31.7305 19.6016C31.9141 19.8945 32.0059 20.2676 32.0059 20.7207ZM38.9141 16.5781V23H38.1172L37.9766 22.0977H37.9238C37.791 22.3203 37.6191 22.5078 37.4082 22.6602C37.1973 22.8125 36.959 22.9258 36.6934 23C36.4316 23.0781 36.1523 23.1172 35.8555 23.1172C35.3477 23.1172 34.9219 23.0352 34.5781 22.8711C34.2344 22.707 33.9746 22.4531 33.7988 22.1094C33.627 21.7656 33.541 21.3242 33.541 20.7852V16.5781H34.5254V20.7148C34.5254 21.25 34.6465 21.6504 34.8887 21.916C35.1309 22.1777 35.5 22.3086 35.9961 22.3086C36.4727 22.3086 36.8516 22.2188 37.1328 22.0391C37.418 21.8594 37.623 21.5957 37.748 21.248C37.873 20.8965 37.9355 20.4668 37.9355 19.959V16.5781H38.9141ZM43.543 23.1172C42.9648 23.1172 42.4551 22.998 42.0137 22.7598C41.5723 22.5215 41.2285 22.1582 40.9824 21.6699C40.7363 21.1816 40.6133 20.5664 40.6133 19.8242C40.6133 19.0469 40.7422 18.4121 41 17.9199C41.2617 17.4238 41.6211 17.0566 42.0781 16.8184C42.5352 16.5801 43.0547 16.4609 43.6367 16.4609C43.957 16.4609 44.2656 16.4941 44.5625 16.5605C44.8633 16.623 45.1094 16.7031 45.3008 16.8008L45.0078 17.6152C44.8125 17.5371 44.5859 17.4668 44.3281 17.4043C44.0742 17.3418 43.8359 17.3105 43.6133 17.3105C43.168 17.3105 42.7969 17.4062 42.5 17.5977C42.207 17.7891 41.9863 18.0703 41.8379 18.4414C41.6934 18.8125 41.6211 19.2695 41.6211 19.8125C41.6211 20.332 41.6914 20.7754 41.832 21.1426C41.9766 21.5098 42.1895 21.791 42.4707 21.9863C42.7559 22.1777 43.1113 22.2734 43.5371 22.2734C43.877 22.2734 44.1836 22.2383 44.457 22.168C44.7305 22.0938 44.9785 22.0078 45.2012 21.9102V22.7773C44.9863 22.8867 44.7461 22.9707 44.4805 23.0293C44.2188 23.0879 43.9062 23.1172 43.543 23.1172ZM49.2969 23.1172C48.7188 23.1172 48.209 22.998 47.7676 22.7598C47.3262 22.5215 46.9824 22.1582 46.7363 21.6699C46.4902 21.1816 46.3672 20.5664 46.3672 19.8242C46.3672 19.0469 46.4961 18.4121 46.7539 17.9199C47.0156 17.4238 47.375 17.0566 47.832 16.8184C48.2891 16.5801 48.8086 16.4609 49.3906 16.4609C49.7109 16.4609 50.0195 16.4941 50.3164 16.5605C50.6172 16.623 50.8633 16.7031 51.0547 16.8008L50.7617 17.6152C50.5664 17.5371 50.3398 17.4668 50.082 17.4043C49.8281 17.3418 49.5898 17.3105 49.3672 17.3105C48.9219 17.3105 48.5508 17.4062 48.2539 17.5977C47.9609 17.7891 47.7402 18.0703 47.5918 18.4414C47.4473 18.8125 47.375 19.2695 47.375 19.8125C47.375 20.332 47.4453 20.7754 47.5859 21.1426C47.7305 21.5098 47.9434 21.791 48.2246 21.9863C48.5098 22.1777 48.8652 22.2734 49.291 22.2734C49.6309 22.2734 49.9375 22.2383 50.2109 22.168C50.4844 22.0938 50.7324 22.0078 50.9551 21.9102V22.7773C50.7402 22.8867 50.5 22.9707 50.2344 23.0293C49.9727 23.0879 49.6602 23.1172 49.2969 23.1172ZM54.9512 16.4609C55.498 16.4609 55.9668 16.582 56.3574 16.8242C56.748 17.0664 57.0469 17.4062 57.2539 17.8438C57.4609 18.2773 57.5645 18.7852 57.5645 19.3672V19.9707H53.1289C53.1406 20.7246 53.3281 21.2988 53.6914 21.6934C54.0547 22.0879 54.5664 22.2852 55.2266 22.2852C55.6328 22.2852 55.9922 22.248 56.3047 22.1738C56.6172 22.0996 56.9414 21.9902 57.2773 21.8457V22.7012C56.9531 22.8457 56.6309 22.9512 56.3105 23.0176C55.9941 23.084 55.6191 23.1172 55.1855 23.1172C54.5684 23.1172 54.0293 22.9922 53.5684 22.7422C53.1113 22.4883 52.7559 22.1172 52.502 21.6289C52.248 21.1406 52.1211 20.543 52.1211 19.8359C52.1211 19.1445 52.2363 18.5469 52.4668 18.043C52.7012 17.5352 53.0293 17.1445 53.4512 16.8711C53.877 16.5977 54.377 16.4609 54.9512 16.4609ZM54.9395 17.2578C54.4199 17.2578 54.0059 17.4277 53.6973 17.7676C53.3887 18.1074 53.2051 18.582 53.1465 19.1914H56.5449C56.541 18.8086 56.4805 18.4727 56.3633 18.1836C56.25 17.8906 56.0762 17.6641 55.8418 17.5039C55.6074 17.3398 55.3066 17.2578 54.9395 17.2578ZM63.3711 21.2422C63.3711 21.6523 63.2676 21.998 63.0605 22.2793C62.8574 22.5566 62.5645 22.7656 62.1816 22.9062C61.8027 23.0469 61.3496 23.1172 60.8223 23.1172C60.373 23.1172 59.9844 23.082 59.6562 23.0117C59.3281 22.9414 59.041 22.8418 58.7949 22.7129V21.8164C59.0566 21.9453 59.3691 22.0625 59.7324 22.168C60.0957 22.2734 60.4668 22.3262 60.8457 22.3262C61.4004 22.3262 61.8027 22.2363 62.0527 22.0566C62.3027 21.877 62.4277 21.6328 62.4277 21.3242C62.4277 21.1484 62.377 20.9941 62.2754 20.8613C62.1777 20.7246 62.0117 20.5938 61.7773 20.4688C61.543 20.3398 61.2188 20.1992 60.8047 20.0469C60.3945 19.8906 60.0391 19.7363 59.7383 19.584C59.4414 19.4277 59.2109 19.2383 59.0469 19.0156C58.8867 18.793 58.8066 18.5039 58.8066 18.1484C58.8066 17.6055 59.0254 17.1895 59.4629 16.9004C59.9043 16.6074 60.4824 16.4609 61.1973 16.4609C61.584 16.4609 61.9453 16.5 62.2812 16.5781C62.6211 16.6523 62.9375 16.7539 63.2305 16.8828L62.9023 17.6621C62.6367 17.5488 62.3535 17.4531 62.0527 17.375C61.752 17.2969 61.4453 17.2578 61.1328 17.2578C60.6836 17.2578 60.3379 17.332 60.0957 17.4805C59.8574 17.6289 59.7383 17.832 59.7383 18.0898C59.7383 18.2891 59.793 18.4531 59.9023 18.582C60.0156 18.7109 60.1953 18.832 60.4414 18.9453C60.6875 19.0586 61.0117 19.1914 61.4141 19.3438C61.8164 19.4922 62.1641 19.6465 62.457 19.8066C62.75 19.9629 62.9746 20.1543 63.1309 20.3809C63.291 20.6035 63.3711 20.8906 63.3711 21.2422ZM69.0898 21.2422C69.0898 21.6523 68.9863 21.998 68.7793 22.2793C68.5762 22.5566 68.2832 22.7656 67.9004 22.9062C67.5215 23.0469 67.0684 23.1172 66.541 23.1172C66.0918 23.1172 65.7031 23.082 65.375 23.0117C65.0469 22.9414 64.7598 22.8418 64.5137 22.7129V21.8164C64.7754 21.9453 65.0879 22.0625 65.4512 22.168C65.8145 22.2734 66.1855 22.3262 66.5645 22.3262C67.1191 22.3262 67.5215 22.2363 67.7715 22.0566C68.0215 21.877 68.1465 21.6328 68.1465 21.3242C68.1465 21.1484 68.0957 20.9941 67.9941 20.8613C67.8965 20.7246 67.7305 20.5938 67.4961 20.4688C67.2617 20.3398 66.9375 20.1992 66.5234 20.0469C66.1133 19.8906 65.7578 19.7363 65.457 19.584C65.1602 19.4277 64.9297 19.2383 64.7656 19.0156C64.6055 18.793 64.5254 18.5039 64.5254 18.1484C64.5254 17.6055 64.7441 17.1895 65.1816 16.9004C65.623 16.6074 66.2012 16.4609 66.916 16.4609C67.3027 16.4609 67.6641 16.5 68 16.5781C68.3398 16.6523 68.6562 16.7539 68.9492 16.8828L68.6211 17.6621C68.3555 17.5488 68.0723 17.4531 67.7715 17.375C67.4707 17.2969 67.1641 17.2578 66.8516 17.2578C66.4023 17.2578 66.0566 17.332 65.8145 17.4805C65.5762 17.6289 65.457 17.832 65.457 18.0898C65.457 18.2891 65.5117 18.4531 65.6211 18.582C65.7344 18.7109 65.9141 18.832 66.1602 18.9453C66.4062 19.0586 66.7305 19.1914 67.1328 19.3438C67.5352 19.4922 67.8828 19.6465 68.1758 19.8066C68.4688 19.9629 68.6934 20.1543 68.8496 20.3809C69.0098 20.6035 69.0898 20.8906 69.0898 21.2422ZM74.7441 13.8828V16.1621C74.7441 16.4238 74.7363 16.6777 74.7207 16.9238C74.709 17.1699 74.6992 17.3613 74.6914 17.498H74.7441C74.9199 17.209 75.1738 16.9648 75.5059 16.7656C75.8379 16.5664 76.2617 16.4668 76.7773 16.4668C77.582 16.4668 78.2227 16.7461 78.6992 17.3047C79.1797 17.8594 79.4199 18.6855 79.4199 19.7832C79.4199 20.5059 79.3105 21.1152 79.0918 21.6113C78.873 22.1074 78.5645 22.4824 78.166 22.7363C77.7676 22.9902 77.2969 23.1172 76.7539 23.1172C76.2461 23.1172 75.8281 23.0234 75.5 22.8359C75.1758 22.6445 74.9258 22.4121 74.75 22.1387H74.6738L74.4746 23H73.7715V13.8828H74.7441ZM76.6191 17.2812C76.1543 17.2812 75.7852 17.373 75.5117 17.5566C75.2383 17.7363 75.041 18.0098 74.9199 18.377C74.8027 18.7402 74.7441 19.2012 74.7441 19.7598V19.8125C74.7441 20.6211 74.8789 21.2402 75.1484 21.6699C75.418 22.0957 75.9082 22.3086 76.6191 22.3086C77.2168 22.3086 77.6641 22.0898 77.9609 21.6523C78.2617 21.2148 78.4121 20.5898 78.4121 19.7773C78.4121 18.9492 78.2637 18.3262 77.9668 17.9082C77.6738 17.4902 77.2246 17.2812 76.6191 17.2812ZM83.5215 16.4727C84.2871 16.4727 84.8555 16.6445 85.2266 16.9883C85.5977 17.332 85.7832 17.8809 85.7832 18.6348V23H85.0742L84.8867 22.0508H84.8398C84.6602 22.2852 84.4727 22.4824 84.2773 22.6426C84.082 22.7988 83.8555 22.918 83.5977 23C83.3438 23.0781 83.0312 23.1172 82.6602 23.1172C82.2695 23.1172 81.9219 23.0488 81.6172 22.9121C81.3164 22.7754 81.0781 22.5684 80.9023 22.291C80.7305 22.0137 80.6445 21.6621 80.6445 21.2363C80.6445 20.5957 80.8984 20.1035 81.4062 19.7598C81.9141 19.416 82.6875 19.2285 83.7266 19.1973L84.834 19.1504V18.7578C84.834 18.2031 84.7148 17.8145 84.4766 17.5918C84.2383 17.3691 83.9023 17.2578 83.4688 17.2578C83.1328 17.2578 82.8125 17.3066 82.5078 17.4043C82.2031 17.502 81.9141 17.6172 81.6406 17.75L81.3418 17.0117C81.6309 16.8633 81.9629 16.7363 82.3379 16.6309C82.7129 16.5254 83.1074 16.4727 83.5215 16.4727ZM84.8223 19.8359L83.8438 19.877C83.043 19.9082 82.4785 20.0391 82.1504 20.2695C81.8223 20.5 81.6582 20.8262 81.6582 21.248C81.6582 21.6152 81.7695 21.8867 81.9922 22.0625C82.2148 22.2383 82.5098 22.3262 82.877 22.3262C83.4473 22.3262 83.9141 22.168 84.2773 21.8516C84.6406 21.5352 84.8223 21.0605 84.8223 20.4277V19.8359ZM90.8281 16.4609C91.5898 16.4609 92.166 16.6484 92.5566 17.0234C92.9473 17.3945 93.1426 17.9922 93.1426 18.8164V23H92.1816V18.8809C92.1816 18.3457 92.0586 17.9453 91.8125 17.6797C91.5703 17.4141 91.1973 17.2812 90.6934 17.2812C89.9824 17.2812 89.4824 17.4824 89.1934 17.8848C88.9043 18.2871 88.7598 18.8711 88.7598 19.6367V23H87.7871V16.5781H88.5723L88.7188 17.5039H88.7715C88.9082 17.2773 89.082 17.0879 89.293 16.9355C89.5039 16.7793 89.7402 16.6621 90.002 16.584C90.2637 16.502 90.5391 16.4609 90.8281 16.4609ZM98.1875 16.4609C98.9492 16.4609 99.5254 16.6484 99.916 17.0234C100.307 17.3945 100.502 17.9922 100.502 18.8164V23H99.541V18.8809C99.541 18.3457 99.418 17.9453 99.1719 17.6797C98.9297 17.4141 98.5566 17.2812 98.0527 17.2812C97.3418 17.2812 96.8418 17.4824 96.5527 17.8848C96.2637 18.2871 96.1191 18.8711 96.1191 19.6367V23H95.1465V16.5781H95.9316L96.0781 17.5039H96.1309C96.2676 17.2773 96.4414 17.0879 96.6523 16.9355C96.8633 16.7793 97.0996 16.6621 97.3613 16.584C97.623 16.502 97.8984 16.4609 98.1875 16.4609ZM104.979 16.4609C105.525 16.4609 105.994 16.582 106.385 16.8242C106.775 17.0664 107.074 17.4062 107.281 17.8438C107.488 18.2773 107.592 18.7852 107.592 19.3672V19.9707H103.156C103.168 20.7246 103.355 21.2988 103.719 21.6934C104.082 22.0879 104.594 22.2852 105.254 22.2852C105.66 22.2852 106.02 22.248 106.332 22.1738C106.645 22.0996 106.969 21.9902 107.305 21.8457V22.7012C106.98 22.8457 106.658 22.9512 106.338 23.0176C106.021 23.084 105.646 23.1172 105.213 23.1172C104.596 23.1172 104.057 22.9922 103.596 22.7422C103.139 22.4883 102.783 22.1172 102.529 21.6289C102.275 21.1406 102.148 20.543 102.148 19.8359C102.148 19.1445 102.264 18.5469 102.494 18.043C102.729 17.5352 103.057 17.1445 103.479 16.8711C103.904 16.5977 104.404 16.4609 104.979 16.4609ZM104.967 17.2578C104.447 17.2578 104.033 17.4277 103.725 17.7676C103.416 18.1074 103.232 18.582 103.174 19.1914H106.572C106.568 18.8086 106.508 18.4727 106.391 18.1836C106.277 17.8906 106.104 17.6641 105.869 17.5039C105.635 17.3398 105.334 17.2578 104.967 17.2578ZM112.162 16.4609C112.291 16.4609 112.426 16.4688 112.566 16.4844C112.707 16.4961 112.832 16.5137 112.941 16.5371L112.818 17.4395C112.713 17.4121 112.596 17.3906 112.467 17.375C112.338 17.3594 112.217 17.3516 112.104 17.3516C111.846 17.3516 111.602 17.4043 111.371 17.5098C111.145 17.6113 110.945 17.7598 110.773 17.9551C110.602 18.1465 110.467 18.3789 110.369 18.6523C110.271 18.9219 110.223 19.2227 110.223 19.5547V23H109.244V16.5781H110.053L110.158 17.7617H110.199C110.332 17.5234 110.492 17.3066 110.68 17.1113C110.867 16.9121 111.084 16.7539 111.33 16.6367C111.58 16.5195 111.857 16.4609 112.162 16.4609ZM119.346 22.3203C119.506 22.3203 119.67 22.3066 119.838 22.2793C120.006 22.252 120.143 22.2188 120.248 22.1797V22.9355C120.135 22.9863 119.977 23.0293 119.773 23.0645C119.574 23.0996 119.379 23.1172 119.188 23.1172C118.848 23.1172 118.539 23.0586 118.262 22.9414C117.984 22.8203 117.762 22.6172 117.594 22.332C117.43 22.0469 117.348 21.6523 117.348 21.1484V17.3398H116.434V16.8652L117.354 16.4844L117.74 15.0898H118.326V16.5781H120.207V17.3398H118.326V21.1191C118.326 21.5215 118.418 21.8223 118.602 22.0215C118.789 22.2207 119.037 22.3203 119.346 22.3203ZM124.021 16.4609C124.568 16.4609 125.037 16.582 125.428 16.8242C125.818 17.0664 126.117 17.4062 126.324 17.8438C126.531 18.2773 126.635 18.7852 126.635 19.3672V19.9707H122.199C122.211 20.7246 122.398 21.2988 122.762 21.6934C123.125 22.0879 123.637 22.2852 124.297 22.2852C124.703 22.2852 125.062 22.248 125.375 22.1738C125.688 22.0996 126.012 21.9902 126.348 21.8457V22.7012C126.023 22.8457 125.701 22.9512 125.381 23.0176C125.064 23.084 124.689 23.1172 124.256 23.1172C123.639 23.1172 123.1 22.9922 122.639 22.7422C122.182 22.4883 121.826 22.1172 121.572 21.6289C121.318 21.1406 121.191 20.543 121.191 19.8359C121.191 19.1445 121.307 18.5469 121.537 18.043C121.771 17.5352 122.1 17.1445 122.521 16.8711C122.947 16.5977 123.447 16.4609 124.021 16.4609ZM124.01 17.2578C123.49 17.2578 123.076 17.4277 122.768 17.7676C122.459 18.1074 122.275 18.582 122.217 19.1914H125.615C125.611 18.8086 125.551 18.4727 125.434 18.1836C125.32 17.8906 125.146 17.6641 124.912 17.5039C124.678 17.3398 124.377 17.2578 124.01 17.2578ZM129.816 19.7129L127.596 16.5781H128.709L130.402 19.0508L132.09 16.5781H133.191L130.971 19.7129L133.314 23H132.201L130.402 20.3809L128.592 23H127.49L129.816 19.7129ZM136.643 22.3203C136.803 22.3203 136.967 22.3066 137.135 22.2793C137.303 22.252 137.439 22.2188 137.545 22.1797V22.9355C137.432 22.9863 137.273 23.0293 137.07 23.0645C136.871 23.0996 136.676 23.1172 136.484 23.1172C136.145 23.1172 135.836 23.0586 135.559 22.9414C135.281 22.8203 135.059 22.6172 134.891 22.332C134.727 22.0469 134.645 21.6523 134.645 21.1484V17.3398H133.73V16.8652L134.65 16.4844L135.037 15.0898H135.623V16.5781H137.504V17.3398H135.623V21.1191C135.623 21.5215 135.715 21.8223 135.898 22.0215C136.086 22.2207 136.334 22.3203 136.643 22.3203Z" fill="#161616"/>
<path d="M421.407 12.3431L420.346 13.4038L424.942 18L420.346 22.5962L421.407 23.6568L426.003 19.0607L430.599 23.6568L431.66 22.5962L427.064 18L431.66 13.4038L430.599 12.3431L426.003 16.9393L421.407 12.3431Z" fill="#161616"/>
<rect x="0.5" y="0.5" width="447" height="35" stroke="#E292E4"/>
<g clip-path="url(#clip0_3310_310613)">
<g clip-path="url(#clip1_3310_310613)">
<rect y="171" width="448" height="37" fill="white"/>
<rect y="134" width="448" height="37" fill="white"/>
<rect y="171" width="448" height="1" fill="#E292E4"/>
<rect y="97" width="448" height="37" fill="white"/>
<rect y="134" width="448" height="1" fill="#E292E4"/>
<rect width="448" height="37" transform="translate(0 60)" fill="white"/>
<g filter="url(#filter0_d_3310_310613)">
<rect width="448" height="1" transform="matrix(1 0 0 -1 0 97)" fill="#E292E4"/>
</g>
</g>
<g clip-path="url(#clip2_3310_310613)">
<rect x="99" y="72" width="1" height="11" fill="#E292E4"/>
<path d="M15.2241 82H13.9404V78.4551H10.3203V82H9.03125V74.1475H10.3203V77.3594H13.9404V74.1475H15.2241V82ZM19.5425 75.9414C20.0724 75.9414 20.5272 76.0506 20.9067 76.269C21.2863 76.4875 21.5781 76.7972 21.7822 77.1982C21.9863 77.5993 22.0884 78.0791 22.0884 78.6377V79.3145H18.1191C18.1335 79.891 18.2874 80.335 18.5811 80.6465C18.8783 80.958 19.2936 81.1138 19.8271 81.1138C20.2067 81.1138 20.5469 81.078 20.8477 81.0063C21.152 80.9312 21.4653 80.8219 21.7876 80.6787V81.7046C21.4904 81.8442 21.1878 81.9463 20.8799 82.0107C20.5719 82.0752 20.2031 82.1074 19.7734 82.1074C19.1898 82.1074 18.6759 81.9946 18.2319 81.769C17.7915 81.5399 17.446 81.1997 17.1953 80.7485C16.9482 80.2974 16.8247 79.737 16.8247 79.0674C16.8247 78.4014 16.9375 77.8356 17.1631 77.3701C17.3887 76.9046 17.7056 76.5501 18.1138 76.3066C18.522 76.0632 18.9982 75.9414 19.5425 75.9414ZM19.5425 76.8921C19.145 76.8921 18.8228 77.021 18.5757 77.2788C18.3322 77.5366 18.189 77.9144 18.146 78.4121H20.853C20.8494 78.1149 20.7993 77.8517 20.7026 77.6226C20.6095 77.3934 20.4663 77.2144 20.2729 77.0854C20.0832 76.9565 19.8397 76.8921 19.5425 76.8921ZM25.8428 75.9414C26.5947 75.9414 27.1623 76.1079 27.5454 76.4409C27.9321 76.7739 28.1255 77.2931 28.1255 77.9985V82H27.2285L26.9868 81.1567H26.9438C26.7756 81.3716 26.6019 81.5488 26.4229 81.6885C26.2438 81.8281 26.0361 81.932 25.7998 82C25.5671 82.0716 25.2824 82.1074 24.9458 82.1074C24.5913 82.1074 24.2744 82.043 23.9951 81.9141C23.7158 81.7816 23.4956 81.5811 23.3345 81.3125C23.1733 81.0439 23.0928 80.7038 23.0928 80.292C23.0928 79.6797 23.3201 79.2196 23.7749 78.9116C24.2332 78.6037 24.9243 78.4336 25.8481 78.4014L26.8794 78.3638V78.0522C26.8794 77.6405 26.7827 77.3468 26.5894 77.1714C26.3996 76.9959 26.131 76.9082 25.7837 76.9082C25.4865 76.9082 25.1982 76.9512 24.9189 77.0371C24.6396 77.123 24.3675 77.2287 24.1025 77.354L23.6943 76.4624C23.9844 76.3084 24.3138 76.1831 24.6826 76.0864C25.055 75.9897 25.4417 75.9414 25.8428 75.9414ZM26.874 79.1587L26.106 79.1855C25.4757 79.207 25.0335 79.3145 24.7793 79.5078C24.5251 79.7012 24.3979 79.9661 24.3979 80.3027C24.3979 80.5964 24.4857 80.8112 24.6611 80.9473C24.8366 81.0798 25.0675 81.146 25.354 81.146C25.7909 81.146 26.1525 81.0225 26.439 80.7754C26.729 80.5247 26.874 80.1577 26.874 79.6743V79.1587ZM31.8906 82.1074C31.1816 82.1074 30.6123 81.8496 30.1826 81.334C29.7565 80.8148 29.5435 80.0503 29.5435 79.0405C29.5435 78.02 29.7601 77.2484 30.1934 76.7256C30.6302 76.2028 31.2049 75.9414 31.9175 75.9414C32.2183 75.9414 32.4814 75.9826 32.707 76.0649C32.9326 76.1437 33.126 76.2511 33.2871 76.3872C33.4518 76.5233 33.5915 76.6755 33.7061 76.8438H33.7651C33.7472 76.7327 33.7257 76.5734 33.7007 76.3657C33.6792 76.1545 33.6685 75.9593 33.6685 75.7803V73.6426H34.936V82H33.9478L33.7222 81.189H33.6685C33.561 81.3608 33.425 81.5166 33.2603 81.6562C33.0991 81.7923 32.9058 81.9015 32.6802 81.9839C32.4582 82.0662 32.195 82.1074 31.8906 82.1074ZM32.2451 81.0815C32.7858 81.0815 33.1672 80.9258 33.3892 80.6143C33.6112 80.3027 33.7257 79.8354 33.7329 79.2124V79.0459C33.7329 78.3799 33.6255 77.8696 33.4106 77.5151C33.1958 77.1571 32.8037 76.978 32.2344 76.978C31.7796 76.978 31.4323 77.1624 31.1924 77.5312C30.9561 77.8965 30.8379 78.4067 30.8379 79.062C30.8379 79.7173 30.9561 80.2186 31.1924 80.5659C31.4323 80.9097 31.7832 81.0815 32.2451 81.0815ZM39.1147 75.9414C39.6447 75.9414 40.0994 76.0506 40.479 76.269C40.8586 76.4875 41.1504 76.7972 41.3545 77.1982C41.5586 77.5993 41.6606 78.0791 41.6606 78.6377V79.3145H37.6914C37.7057 79.891 37.8597 80.335 38.1533 80.6465C38.4505 80.958 38.8659 81.1138 39.3994 81.1138C39.779 81.1138 40.1191 81.078 40.4199 81.0063C40.7243 80.9312 41.0376 80.8219 41.3599 80.6787V81.7046C41.0627 81.8442 40.7601 81.9463 40.4521 82.0107C40.1442 82.0752 39.7754 82.1074 39.3457 82.1074C38.762 82.1074 38.2482 81.9946 37.8042 81.769C37.3638 81.5399 37.0182 81.1997 36.7676 80.7485C36.5205 80.2974 36.397 79.737 36.397 79.0674C36.397 78.4014 36.5098 77.8356 36.7354 77.3701C36.9609 76.9046 37.2778 76.5501 37.686 76.3066C38.0942 76.0632 38.5705 75.9414 39.1147 75.9414ZM39.1147 76.8921C38.7173 76.8921 38.395 77.021 38.1479 77.2788C37.9045 77.5366 37.7612 77.9144 37.7183 78.4121H40.4253C40.4217 78.1149 40.3716 77.8517 40.2749 77.6226C40.1818 77.3934 40.0386 77.2144 39.8452 77.0854C39.6554 76.9565 39.4119 76.8921 39.1147 76.8921ZM46.0972 75.9414C46.1974 75.9414 46.3066 75.9468 46.4248 75.9575C46.543 75.9683 46.645 75.9826 46.731 76.0005L46.6128 77.1821C46.5376 77.1606 46.4445 77.1445 46.3335 77.1338C46.2261 77.123 46.1294 77.1177 46.0435 77.1177C45.8179 77.1177 45.603 77.1553 45.3989 77.2305C45.1948 77.3021 45.014 77.4131 44.8564 77.5635C44.6989 77.7103 44.5754 77.8947 44.4858 78.1167C44.3963 78.3387 44.3516 78.5965 44.3516 78.8901V82H43.084V76.0542H44.0723L44.2441 77.1016H44.3032C44.4214 76.8903 44.5682 76.6969 44.7437 76.5215C44.9191 76.346 45.1196 76.2064 45.3452 76.1025C45.5744 75.9951 45.825 75.9414 46.0972 75.9414Z" fill="#61656E"/>
<rect x="99" y="97" width="1" height="37" fill="#E292E4"/>
<circle cx="22" cy="116" r="14" fill="#2670A9"/>
<path d="M20.7646 120L20.0518 118.018H17.3223L16.624 120H15.3936L18.0645 112.832H19.334L22.0049 120H20.7646ZM19.7441 117.012L19.0752 115.068C19.0264 114.938 18.958 114.733 18.8701 114.453C18.7855 114.173 18.7269 113.968 18.6943 113.838C18.6064 114.238 18.4779 114.676 18.3086 115.151L17.6641 117.012H19.7441ZM22.9473 112.861H25.0664C26.0495 112.861 26.7591 113.005 27.1953 113.291C27.6348 113.577 27.8545 114.03 27.8545 114.648C27.8545 115.065 27.7471 115.412 27.5322 115.688C27.3174 115.965 27.0081 116.139 26.6045 116.211V116.26C27.1058 116.354 27.4736 116.541 27.708 116.821C27.9456 117.098 28.0645 117.474 28.0645 117.949C28.0645 118.59 27.8398 119.093 27.3906 119.458C26.9447 119.819 26.3229 120 25.5254 120H22.9473V112.861ZM24.1143 115.811H25.2373C25.7256 115.811 26.082 115.734 26.3066 115.581C26.5312 115.425 26.6436 115.161 26.6436 114.79C26.6436 114.455 26.5215 114.212 26.2773 114.062C26.0365 113.913 25.6523 113.838 25.125 113.838H24.1143V115.811ZM24.1143 116.758V119.019H25.3545C25.8428 119.019 26.2106 118.926 26.458 118.74C26.7087 118.551 26.834 118.255 26.834 117.852C26.834 117.48 26.707 117.205 26.4531 117.026C26.1992 116.847 25.8135 116.758 25.2959 116.758H24.1143Z" fill="white"/>
<rect x="99" y="134" width="1" height="37" fill="#E292E4"/>
<circle cx="22" cy="153" r="14" fill="#2670A9"/>
<path d="M19.1387 150.76C18.4681 150.76 17.9408 150.997 17.5566 151.473C17.1725 151.948 16.9805 152.604 16.9805 153.44C16.9805 154.316 17.1644 154.979 17.5322 155.428C17.9033 155.877 18.4388 156.102 19.1387 156.102C19.4414 156.102 19.7344 156.072 20.0176 156.014C20.3008 155.952 20.5954 155.874 20.9014 155.779V156.78C20.3415 156.992 19.7067 157.098 18.9971 157.098C17.9521 157.098 17.1497 156.782 16.5898 156.15C16.0299 155.516 15.75 154.609 15.75 153.431C15.75 152.688 15.8851 152.039 16.1553 151.482C16.4287 150.926 16.8226 150.499 17.3369 150.203C17.8512 149.907 18.4551 149.759 19.1484 149.759C19.8776 149.759 20.5514 149.912 21.1699 150.218L20.75 151.189C20.5091 151.076 20.2536 150.976 19.9834 150.892C19.7165 150.804 19.4349 150.76 19.1387 150.76ZM28.2451 153.362C28.2451 154.541 27.918 155.442 27.2637 156.067C26.6094 156.689 25.667 157 24.4365 157H22.4395V149.861H24.6465C25.7826 149.861 26.6663 150.167 27.2979 150.779C27.9294 151.391 28.2451 152.252 28.2451 153.362ZM27.0146 153.401C27.0146 151.692 26.2155 150.838 24.6172 150.838H23.6064V156.019H24.4365C26.1553 156.019 27.0146 155.146 27.0146 153.401Z" fill="white"/>
<rect x="99" y="171" width="1" height="37" fill="#E292E4"/>
<circle cx="22" cy="190" r="14" fill="#2670A9"/>
<path d="M21.5264 194H17.4883V186.861H21.5264V187.848H18.6553V189.791H21.3457V190.768H18.6553V193.009H21.5264V194ZM24.2314 194H23.0742V186.861H27.1025V187.848H24.2314V190.079H26.9219V191.07H24.2314V194Z" fill="white"/>
<rect x="268" y="72" width="1" height="11" fill="#E292E4"/>
<path d="M115.224 82H113.94V78.4551H110.32V82H109.031V74.1475H110.32V77.3594H113.94V74.1475H115.224V82ZM119.542 75.9414C120.072 75.9414 120.527 76.0506 120.907 76.269C121.286 76.4875 121.578 76.7972 121.782 77.1982C121.986 77.5993 122.088 78.0791 122.088 78.6377V79.3145H118.119C118.133 79.891 118.287 80.335 118.581 80.6465C118.878 80.958 119.294 81.1138 119.827 81.1138C120.207 81.1138 120.547 81.078 120.848 81.0063C121.152 80.9312 121.465 80.8219 121.788 80.6787V81.7046C121.49 81.8442 121.188 81.9463 120.88 82.0107C120.572 82.0752 120.203 82.1074 119.773 82.1074C119.19 82.1074 118.676 81.9946 118.232 81.769C117.792 81.5399 117.446 81.1997 117.195 80.7485C116.948 80.2974 116.825 79.737 116.825 79.0674C116.825 78.4014 116.938 77.8356 117.163 77.3701C117.389 76.9046 117.706 76.5501 118.114 76.3066C118.522 76.0632 118.998 75.9414 119.542 75.9414ZM119.542 76.8921C119.145 76.8921 118.823 77.021 118.576 77.2788C118.332 77.5366 118.189 77.9144 118.146 78.4121H120.853C120.849 78.1149 120.799 77.8517 120.703 77.6226C120.61 77.3934 120.466 77.2144 120.273 77.0854C120.083 76.9565 119.84 76.8921 119.542 76.8921ZM125.843 75.9414C126.595 75.9414 127.162 76.1079 127.545 76.4409C127.932 76.7739 128.125 77.2931 128.125 77.9985V82H127.229L126.987 81.1567H126.944C126.776 81.3716 126.602 81.5488 126.423 81.6885C126.244 81.8281 126.036 81.932 125.8 82C125.567 82.0716 125.282 82.1074 124.946 82.1074C124.591 82.1074 124.274 82.043 123.995 81.9141C123.716 81.7816 123.496 81.5811 123.334 81.3125C123.173 81.0439 123.093 80.7038 123.093 80.292C123.093 79.6797 123.32 79.2196 123.775 78.9116C124.233 78.6037 124.924 78.4336 125.848 78.4014L126.879 78.3638V78.0522C126.879 77.6405 126.783 77.3468 126.589 77.1714C126.4 76.9959 126.131 76.9082 125.784 76.9082C125.486 76.9082 125.198 76.9512 124.919 77.0371C124.64 77.123 124.368 77.2287 124.103 77.354L123.694 76.4624C123.984 76.3084 124.314 76.1831 124.683 76.0864C125.055 75.9897 125.442 75.9414 125.843 75.9414ZM126.874 79.1587L126.106 79.1855C125.476 79.207 125.034 79.3145 124.779 79.5078C124.525 79.7012 124.398 79.9661 124.398 80.3027C124.398 80.5964 124.486 80.8112 124.661 80.9473C124.837 81.0798 125.068 81.146 125.354 81.146C125.791 81.146 126.153 81.0225 126.439 80.7754C126.729 80.5247 126.874 80.1577 126.874 79.6743V79.1587ZM131.891 82.1074C131.182 82.1074 130.612 81.8496 130.183 81.334C129.757 80.8148 129.543 80.0503 129.543 79.0405C129.543 78.02 129.76 77.2484 130.193 76.7256C130.63 76.2028 131.205 75.9414 131.917 75.9414C132.218 75.9414 132.481 75.9826 132.707 76.0649C132.933 76.1437 133.126 76.2511 133.287 76.3872C133.452 76.5233 133.591 76.6755 133.706 76.8438H133.765C133.747 76.7327 133.726 76.5734 133.701 76.3657C133.679 76.1545 133.668 75.9593 133.668 75.7803V73.6426H134.936V82H133.948L133.722 81.189H133.668C133.561 81.3608 133.425 81.5166 133.26 81.6562C133.099 81.7923 132.906 81.9015 132.68 81.9839C132.458 82.0662 132.195 82.1074 131.891 82.1074ZM132.245 81.0815C132.786 81.0815 133.167 80.9258 133.389 80.6143C133.611 80.3027 133.726 79.8354 133.733 79.2124V79.0459C133.733 78.3799 133.625 77.8696 133.411 77.5151C133.196 77.1571 132.804 76.978 132.234 76.978C131.78 76.978 131.432 77.1624 131.192 77.5312C130.956 77.8965 130.838 78.4067 130.838 79.062C130.838 79.7173 130.956 80.2186 131.192 80.5659C131.432 80.9097 131.783 81.0815 132.245 81.0815ZM139.115 75.9414C139.645 75.9414 140.099 76.0506 140.479 76.269C140.859 76.4875 141.15 76.7972 141.354 77.1982C141.559 77.5993 141.661 78.0791 141.661 78.6377V79.3145H137.691C137.706 79.891 137.86 80.335 138.153 80.6465C138.451 80.958 138.866 81.1138 139.399 81.1138C139.779 81.1138 140.119 81.078 140.42 81.0063C140.724 80.9312 141.038 80.8219 141.36 80.6787V81.7046C141.063 81.8442 140.76 81.9463 140.452 82.0107C140.144 82.0752 139.775 82.1074 139.346 82.1074C138.762 82.1074 138.248 81.9946 137.804 81.769C137.364 81.5399 137.018 81.1997 136.768 80.7485C136.521 80.2974 136.397 79.737 136.397 79.0674C136.397 78.4014 136.51 77.8356 136.735 77.3701C136.961 76.9046 137.278 76.5501 137.686 76.3066C138.094 76.0632 138.57 75.9414 139.115 75.9414ZM139.115 76.8921C138.717 76.8921 138.395 77.021 138.148 77.2788C137.904 77.5366 137.761 77.9144 137.718 78.4121H140.425C140.422 78.1149 140.372 77.8517 140.275 77.6226C140.182 77.3934 140.039 77.2144 139.845 77.0854C139.655 76.9565 139.412 76.8921 139.115 76.8921ZM146.097 75.9414C146.197 75.9414 146.307 75.9468 146.425 75.9575C146.543 75.9683 146.645 75.9826 146.731 76.0005L146.613 77.1821C146.538 77.1606 146.444 77.1445 146.333 77.1338C146.226 77.123 146.129 77.1177 146.043 77.1177C145.818 77.1177 145.603 77.1553 145.399 77.2305C145.195 77.3021 145.014 77.4131 144.856 77.5635C144.699 77.7103 144.575 77.8947 144.486 78.1167C144.396 78.3387 144.352 78.5965 144.352 78.8901V82H143.084V76.0542H144.072L144.244 77.1016H144.303C144.421 76.8903 144.568 76.6969 144.744 76.5215C144.919 76.346 145.12 76.2064 145.345 76.1025C145.574 75.9951 145.825 75.9414 146.097 75.9414Z" fill="#61656E"/>
<rect x="268" y="97" width="1" height="37" fill="#E292E4"/>
<path d="M115.975 116.635C115.975 117.6 115.799 118.406 115.447 119.055C115.096 119.699 114.586 120.186 113.918 120.514C113.254 120.838 112.447 121 111.498 121H109.172V112.434H111.756C112.627 112.434 113.377 112.594 114.006 112.914C114.635 113.23 115.119 113.701 115.459 114.326C115.803 114.947 115.975 115.717 115.975 116.635ZM114.926 116.67C114.926 115.9 114.797 115.266 114.539 114.766C114.285 114.266 113.91 113.895 113.414 113.652C112.922 113.406 112.318 113.283 111.604 113.283H110.168V120.145H111.381C112.561 120.145 113.445 119.854 114.035 119.271C114.629 118.689 114.926 117.822 114.926 116.67ZM120.135 114.473C120.9 114.473 121.469 114.645 121.84 114.988C122.211 115.332 122.396 115.881 122.396 116.635V121H121.688L121.5 120.051H121.453C121.273 120.285 121.086 120.482 120.891 120.643C120.695 120.799 120.469 120.918 120.211 121C119.957 121.078 119.645 121.117 119.273 121.117C118.883 121.117 118.535 121.049 118.23 120.912C117.93 120.775 117.691 120.568 117.516 120.291C117.344 120.014 117.258 119.662 117.258 119.236C117.258 118.596 117.512 118.104 118.02 117.76C118.527 117.416 119.301 117.229 120.34 117.197L121.447 117.15V116.758C121.447 116.203 121.328 115.814 121.09 115.592C120.852 115.369 120.516 115.258 120.082 115.258C119.746 115.258 119.426 115.307 119.121 115.404C118.816 115.502 118.527 115.617 118.254 115.75L117.955 115.012C118.244 114.863 118.576 114.736 118.951 114.631C119.326 114.525 119.721 114.473 120.135 114.473ZM121.436 117.836L120.457 117.877C119.656 117.908 119.092 118.039 118.764 118.27C118.436 118.5 118.271 118.826 118.271 119.248C118.271 119.615 118.383 119.887 118.605 120.062C118.828 120.238 119.123 120.326 119.49 120.326C120.061 120.326 120.527 120.168 120.891 119.852C121.254 119.535 121.436 119.061 121.436 118.428V117.836ZM126.475 120.32C126.635 120.32 126.799 120.307 126.967 120.279C127.135 120.252 127.271 120.219 127.377 120.18V120.936C127.264 120.986 127.105 121.029 126.902 121.064C126.703 121.1 126.508 121.117 126.316 121.117C125.977 121.117 125.668 121.059 125.391 120.941C125.113 120.82 124.891 120.617 124.723 120.332C124.559 120.047 124.477 119.652 124.477 119.148V115.34H123.562V114.865L124.482 114.484L124.869 113.09H125.455V114.578H127.336V115.34H125.455V119.119C125.455 119.521 125.547 119.822 125.73 120.021C125.918 120.221 126.166 120.32 126.475 120.32ZM131.08 114.473C131.846 114.473 132.414 114.645 132.785 114.988C133.156 115.332 133.342 115.881 133.342 116.635V121H132.633L132.445 120.051H132.398C132.219 120.285 132.031 120.482 131.836 120.643C131.641 120.799 131.414 120.918 131.156 121C130.902 121.078 130.59 121.117 130.219 121.117C129.828 121.117 129.48 121.049 129.176 120.912C128.875 120.775 128.637 120.568 128.461 120.291C128.289 120.014 128.203 119.662 128.203 119.236C128.203 118.596 128.457 118.104 128.965 117.76C129.473 117.416 130.246 117.229 131.285 117.197L132.393 117.15V116.758C132.393 116.203 132.273 115.814 132.035 115.592C131.797 115.369 131.461 115.258 131.027 115.258C130.691 115.258 130.371 115.307 130.066 115.404C129.762 115.502 129.473 115.617 129.199 115.75L128.9 115.012C129.189 114.863 129.521 114.736 129.896 114.631C130.271 114.525 130.666 114.473 131.08 114.473ZM132.381 117.836L131.402 117.877C130.602 117.908 130.037 118.039 129.709 118.27C129.381 118.5 129.217 118.826 129.217 119.248C129.217 119.615 129.328 119.887 129.551 120.062C129.773 120.238 130.068 120.326 130.436 120.326C131.006 120.326 131.473 120.168 131.836 119.852C132.199 119.535 132.381 119.061 132.381 118.428V117.836ZM140.256 123.883C139.412 123.883 138.762 123.725 138.305 123.408C137.848 123.096 137.619 122.656 137.619 122.09C137.619 121.688 137.746 121.344 138 121.059C138.258 120.773 138.613 120.584 139.066 120.49C138.898 120.412 138.754 120.295 138.633 120.139C138.516 119.982 138.457 119.803 138.457 119.6C138.457 119.365 138.521 119.16 138.65 118.984C138.783 118.805 138.984 118.633 139.254 118.469C138.918 118.332 138.645 118.102 138.434 117.777C138.227 117.449 138.123 117.068 138.123 116.635C138.123 116.174 138.219 115.781 138.41 115.457C138.602 115.129 138.879 114.879 139.242 114.707C139.605 114.535 140.045 114.449 140.561 114.449C140.674 114.449 140.787 114.455 140.9 114.467C141.018 114.475 141.129 114.488 141.234 114.508C141.34 114.523 141.432 114.543 141.51 114.566H143.713V115.193L142.529 115.34C142.646 115.492 142.744 115.676 142.822 115.891C142.9 116.105 142.939 116.344 142.939 116.605C142.939 117.246 142.723 117.756 142.289 118.135C141.855 118.51 141.26 118.697 140.502 118.697C140.322 118.697 140.139 118.682 139.951 118.65C139.76 118.756 139.613 118.873 139.512 119.002C139.414 119.131 139.365 119.279 139.365 119.447C139.365 119.572 139.402 119.672 139.477 119.746C139.555 119.82 139.666 119.875 139.811 119.91C139.955 119.941 140.129 119.957 140.332 119.957H141.463C142.162 119.957 142.697 120.104 143.068 120.396C143.443 120.689 143.631 121.117 143.631 121.68C143.631 122.391 143.342 122.936 142.764 123.314C142.186 123.693 141.35 123.883 140.256 123.883ZM140.285 123.121C140.816 123.121 141.256 123.066 141.604 122.957C141.955 122.852 142.217 122.697 142.389 122.494C142.564 122.295 142.652 122.057 142.652 121.779C142.652 121.521 142.594 121.326 142.477 121.193C142.359 121.064 142.188 120.979 141.961 120.936C141.734 120.889 141.457 120.865 141.129 120.865H140.016C139.727 120.865 139.475 120.91 139.26 121C139.045 121.09 138.879 121.223 138.762 121.398C138.648 121.574 138.592 121.793 138.592 122.055C138.592 122.402 138.738 122.666 139.031 122.846C139.324 123.029 139.742 123.121 140.285 123.121ZM140.537 117.988C141.002 117.988 141.352 117.871 141.586 117.637C141.82 117.402 141.938 117.061 141.938 116.611C141.938 116.131 141.818 115.771 141.58 115.533C141.342 115.291 140.99 115.17 140.525 115.17C140.08 115.17 139.736 115.295 139.494 115.545C139.256 115.791 139.137 116.152 139.137 116.629C139.137 117.066 139.258 117.402 139.5 117.637C139.742 117.871 140.088 117.988 140.537 117.988ZM147.896 114.461C148.025 114.461 148.16 114.469 148.301 114.484C148.441 114.496 148.566 114.514 148.676 114.537L148.553 115.439C148.447 115.412 148.33 115.391 148.201 115.375C148.072 115.359 147.951 115.352 147.838 115.352C147.58 115.352 147.336 115.404 147.105 115.51C146.879 115.611 146.68 115.76 146.508 115.955C146.336 116.146 146.201 116.379 146.104 116.652C146.006 116.922 145.957 117.223 145.957 117.555V121H144.979V114.578H145.787L145.893 115.762H145.934C146.066 115.523 146.227 115.307 146.414 115.111C146.602 114.912 146.818 114.754 147.064 114.637C147.314 114.52 147.592 114.461 147.896 114.461ZM150.861 114.578V121H149.889V114.578H150.861ZM150.387 112.176C150.547 112.176 150.684 112.229 150.797 112.334C150.914 112.436 150.973 112.596 150.973 112.814C150.973 113.029 150.914 113.189 150.797 113.295C150.684 113.4 150.547 113.453 150.387 113.453C150.219 113.453 150.078 113.4 149.965 113.295C149.855 113.189 149.801 113.029 149.801 112.814C149.801 112.596 149.855 112.436 149.965 112.334C150.078 112.229 150.219 112.176 150.387 112.176ZM155.209 121.117C154.396 121.117 153.752 120.84 153.275 120.285C152.803 119.73 152.566 118.906 152.566 117.812C152.566 116.707 152.809 115.873 153.293 115.311C153.777 114.744 154.422 114.461 155.227 114.461C155.566 114.461 155.863 114.506 156.117 114.596C156.371 114.686 156.59 114.807 156.773 114.959C156.957 115.107 157.111 115.277 157.236 115.469H157.307C157.291 115.348 157.275 115.182 157.26 114.971C157.244 114.76 157.236 114.588 157.236 114.455V111.883H158.209V121H157.424L157.277 120.086H157.236C157.115 120.277 156.961 120.451 156.773 120.607C156.59 120.764 156.369 120.889 156.111 120.982C155.857 121.072 155.557 121.117 155.209 121.117ZM155.361 120.309C156.049 120.309 156.535 120.113 156.82 119.723C157.105 119.332 157.248 118.752 157.248 117.982V117.807C157.248 116.99 157.111 116.363 156.838 115.926C156.568 115.488 156.076 115.27 155.361 115.27C154.764 115.27 154.316 115.5 154.02 115.961C153.723 116.418 153.574 117.043 153.574 117.836C153.574 118.625 153.721 119.234 154.014 119.664C154.311 120.094 154.76 120.309 155.361 120.309ZM165.961 121.117C165.383 121.117 164.873 120.998 164.432 120.76C163.99 120.521 163.646 120.158 163.4 119.67C163.154 119.182 163.031 118.566 163.031 117.824C163.031 117.047 163.16 116.412 163.418 115.92C163.68 115.424 164.039 115.057 164.496 114.818C164.953 114.58 165.473 114.461 166.055 114.461C166.375 114.461 166.684 114.494 166.98 114.561C167.281 114.623 167.527 114.703 167.719 114.801L167.426 115.615C167.23 115.537 167.004 115.467 166.746 115.404C166.492 115.342 166.254 115.311 166.031 115.311C165.586 115.311 165.215 115.406 164.918 115.598C164.625 115.789 164.404 116.07 164.256 116.441C164.111 116.812 164.039 117.27 164.039 117.812C164.039 118.332 164.109 118.775 164.25 119.143C164.395 119.51 164.607 119.791 164.889 119.986C165.174 120.178 165.529 120.273 165.955 120.273C166.295 120.273 166.602 120.238 166.875 120.168C167.148 120.094 167.396 120.008 167.619 119.91V120.777C167.404 120.887 167.164 120.971 166.898 121.029C166.637 121.088 166.324 121.117 165.961 121.117ZM171.615 114.461C172.162 114.461 172.631 114.582 173.021 114.824C173.412 115.066 173.711 115.406 173.918 115.844C174.125 116.277 174.229 116.785 174.229 117.367V117.971H169.793C169.805 118.725 169.992 119.299 170.355 119.693C170.719 120.088 171.23 120.285 171.891 120.285C172.297 120.285 172.656 120.248 172.969 120.174C173.281 120.1 173.605 119.99 173.941 119.846V120.701C173.617 120.846 173.295 120.951 172.975 121.018C172.658 121.084 172.283 121.117 171.85 121.117C171.232 121.117 170.693 120.992 170.232 120.742C169.775 120.488 169.42 120.117 169.166 119.629C168.912 119.141 168.785 118.543 168.785 117.836C168.785 117.145 168.9 116.547 169.131 116.043C169.365 115.535 169.693 115.145 170.115 114.871C170.541 114.598 171.041 114.461 171.615 114.461ZM171.604 115.258C171.084 115.258 170.67 115.428 170.361 115.768C170.053 116.107 169.869 116.582 169.811 117.191H173.209C173.205 116.809 173.145 116.473 173.027 116.184C172.914 115.891 172.74 115.664 172.506 115.504C172.271 115.34 171.971 115.258 171.604 115.258ZM176.859 121H175.881V111.883H176.859V121ZM179.895 121H178.916V111.883H179.895V121ZM187.143 120.32C187.303 120.32 187.467 120.307 187.635 120.279C187.803 120.252 187.939 120.219 188.045 120.18V120.936C187.932 120.986 187.773 121.029 187.57 121.064C187.371 121.1 187.176 121.117 186.984 121.117C186.645 121.117 186.336 121.059 186.059 120.941C185.781 120.82 185.559 120.617 185.391 120.332C185.227 120.047 185.145 119.652 185.145 119.148V115.34H184.23V114.865L185.15 114.484L185.537 113.09H186.123V114.578H188.004V115.34H186.123V119.119C186.123 119.521 186.215 119.822 186.398 120.021C186.586 120.221 186.834 120.32 187.143 120.32ZM191.818 114.461C192.365 114.461 192.834 114.582 193.225 114.824C193.615 115.066 193.914 115.406 194.121 115.844C194.328 116.277 194.432 116.785 194.432 117.367V117.971H189.996C190.008 118.725 190.195 119.299 190.559 119.693C190.922 120.088 191.434 120.285 192.094 120.285C192.5 120.285 192.859 120.248 193.172 120.174C193.484 120.1 193.809 119.99 194.145 119.846V120.701C193.82 120.846 193.498 120.951 193.178 121.018C192.861 121.084 192.486 121.117 192.053 121.117C191.436 121.117 190.896 120.992 190.436 120.742C189.979 120.488 189.623 120.117 189.369 119.629C189.115 119.141 188.988 118.543 188.988 117.836C188.988 117.145 189.104 116.547 189.334 116.043C189.568 115.535 189.896 115.145 190.318 114.871C190.744 114.598 191.244 114.461 191.818 114.461ZM191.807 115.258C191.287 115.258 190.873 115.428 190.564 115.768C190.256 116.107 190.072 116.582 190.014 117.191H193.412C193.408 116.809 193.348 116.473 193.23 116.184C193.117 115.891 192.943 115.664 192.709 115.504C192.475 115.34 192.174 115.258 191.807 115.258ZM197.613 117.713L195.393 114.578H196.506L198.199 117.051L199.887 114.578H200.988L198.768 117.713L201.111 121H199.998L198.199 118.381L196.389 121H195.287L197.613 117.713ZM204.439 120.32C204.6 120.32 204.764 120.307 204.932 120.279C205.1 120.252 205.236 120.219 205.342 120.18V120.936C205.229 120.986 205.07 121.029 204.867 121.064C204.668 121.1 204.473 121.117 204.281 121.117C203.941 121.117 203.633 121.059 203.355 120.941C203.078 120.82 202.855 120.617 202.688 120.332C202.523 120.047 202.441 119.652 202.441 119.148V115.34H201.527V114.865L202.447 114.484L202.834 113.09H203.42V114.578H205.301V115.34H203.42V119.119C203.42 119.521 203.512 119.822 203.695 120.021C203.883 120.221 204.131 120.32 204.439 120.32Z" fill="#161616"/>
<rect x="268" y="134" width="1" height="37" fill="#E292E4"/>
<path d="M115.975 153.635C115.975 154.6 115.799 155.406 115.447 156.055C115.096 156.699 114.586 157.186 113.918 157.514C113.254 157.838 112.447 158 111.498 158H109.172V149.434H111.756C112.627 149.434 113.377 149.594 114.006 149.914C114.635 150.23 115.119 150.701 115.459 151.326C115.803 151.947 115.975 152.717 115.975 153.635ZM114.926 153.67C114.926 152.9 114.797 152.266 114.539 151.766C114.285 151.266 113.91 150.895 113.414 150.652C112.922 150.406 112.318 150.283 111.604 150.283H110.168V157.145H111.381C112.561 157.145 113.445 156.854 114.035 156.271C114.629 155.689 114.926 154.822 114.926 153.67ZM120.135 151.473C120.9 151.473 121.469 151.645 121.84 151.988C122.211 152.332 122.396 152.881 122.396 153.635V158H121.688L121.5 157.051H121.453C121.273 157.285 121.086 157.482 120.891 157.643C120.695 157.799 120.469 157.918 120.211 158C119.957 158.078 119.645 158.117 119.273 158.117C118.883 158.117 118.535 158.049 118.23 157.912C117.93 157.775 117.691 157.568 117.516 157.291C117.344 157.014 117.258 156.662 117.258 156.236C117.258 155.596 117.512 155.104 118.02 154.76C118.527 154.416 119.301 154.229 120.34 154.197L121.447 154.15V153.758C121.447 153.203 121.328 152.814 121.09 152.592C120.852 152.369 120.516 152.258 120.082 152.258C119.746 152.258 119.426 152.307 119.121 152.404C118.816 152.502 118.527 152.617 118.254 152.75L117.955 152.012C118.244 151.863 118.576 151.736 118.951 151.631C119.326 151.525 119.721 151.473 120.135 151.473ZM121.436 154.836L120.457 154.877C119.656 154.908 119.092 155.039 118.764 155.27C118.436 155.5 118.271 155.826 118.271 156.248C118.271 156.615 118.383 156.887 118.605 157.062C118.828 157.238 119.123 157.326 119.49 157.326C120.061 157.326 120.527 157.168 120.891 156.852C121.254 156.535 121.436 156.061 121.436 155.428V154.836ZM126.475 157.32C126.635 157.32 126.799 157.307 126.967 157.279C127.135 157.252 127.271 157.219 127.377 157.18V157.936C127.264 157.986 127.105 158.029 126.902 158.064C126.703 158.1 126.508 158.117 126.316 158.117C125.977 158.117 125.668 158.059 125.391 157.941C125.113 157.82 124.891 157.617 124.723 157.332C124.559 157.047 124.477 156.652 124.477 156.148V152.34H123.562V151.865L124.482 151.484L124.869 150.09H125.455V151.578H127.336V152.34H125.455V156.119C125.455 156.521 125.547 156.822 125.73 157.021C125.918 157.221 126.166 157.32 126.475 157.32ZM131.08 151.473C131.846 151.473 132.414 151.645 132.785 151.988C133.156 152.332 133.342 152.881 133.342 153.635V158H132.633L132.445 157.051H132.398C132.219 157.285 132.031 157.482 131.836 157.643C131.641 157.799 131.414 157.918 131.156 158C130.902 158.078 130.59 158.117 130.219 158.117C129.828 158.117 129.48 158.049 129.176 157.912C128.875 157.775 128.637 157.568 128.461 157.291C128.289 157.014 128.203 156.662 128.203 156.236C128.203 155.596 128.457 155.104 128.965 154.76C129.473 154.416 130.246 154.229 131.285 154.197L132.393 154.15V153.758C132.393 153.203 132.273 152.814 132.035 152.592C131.797 152.369 131.461 152.258 131.027 152.258C130.691 152.258 130.371 152.307 130.066 152.404C129.762 152.502 129.473 152.617 129.199 152.75L128.9 152.012C129.189 151.863 129.521 151.736 129.896 151.631C130.271 151.525 130.666 151.473 131.08 151.473ZM132.381 154.836L131.402 154.877C130.602 154.908 130.037 155.039 129.709 155.27C129.381 155.5 129.217 155.826 129.217 156.248C129.217 156.615 129.328 156.887 129.551 157.062C129.773 157.238 130.068 157.326 130.436 157.326C131.006 157.326 131.473 157.168 131.836 156.852C132.199 156.535 132.381 156.061 132.381 155.428V154.836ZM140.256 160.883C139.412 160.883 138.762 160.725 138.305 160.408C137.848 160.096 137.619 159.656 137.619 159.09C137.619 158.688 137.746 158.344 138 158.059C138.258 157.773 138.613 157.584 139.066 157.49C138.898 157.412 138.754 157.295 138.633 157.139C138.516 156.982 138.457 156.803 138.457 156.6C138.457 156.365 138.521 156.16 138.65 155.984C138.783 155.805 138.984 155.633 139.254 155.469C138.918 155.332 138.645 155.102 138.434 154.777C138.227 154.449 138.123 154.068 138.123 153.635C138.123 153.174 138.219 152.781 138.41 152.457C138.602 152.129 138.879 151.879 139.242 151.707C139.605 151.535 140.045 151.449 140.561 151.449C140.674 151.449 140.787 151.455 140.9 151.467C141.018 151.475 141.129 151.488 141.234 151.508C141.34 151.523 141.432 151.543 141.51 151.566H143.713V152.193L142.529 152.34C142.646 152.492 142.744 152.676 142.822 152.891C142.9 153.105 142.939 153.344 142.939 153.605C142.939 154.246 142.723 154.756 142.289 155.135C141.855 155.51 141.26 155.697 140.502 155.697C140.322 155.697 140.139 155.682 139.951 155.65C139.76 155.756 139.613 155.873 139.512 156.002C139.414 156.131 139.365 156.279 139.365 156.447C139.365 156.572 139.402 156.672 139.477 156.746C139.555 156.82 139.666 156.875 139.811 156.91C139.955 156.941 140.129 156.957 140.332 156.957H141.463C142.162 156.957 142.697 157.104 143.068 157.396C143.443 157.689 143.631 158.117 143.631 158.68C143.631 159.391 143.342 159.936 142.764 160.314C142.186 160.693 141.35 160.883 140.256 160.883ZM140.285 160.121C140.816 160.121 141.256 160.066 141.604 159.957C141.955 159.852 142.217 159.697 142.389 159.494C142.564 159.295 142.652 159.057 142.652 158.779C142.652 158.521 142.594 158.326 142.477 158.193C142.359 158.064 142.188 157.979 141.961 157.936C141.734 157.889 141.457 157.865 141.129 157.865H140.016C139.727 157.865 139.475 157.91 139.26 158C139.045 158.09 138.879 158.223 138.762 158.398C138.648 158.574 138.592 158.793 138.592 159.055C138.592 159.402 138.738 159.666 139.031 159.846C139.324 160.029 139.742 160.121 140.285 160.121ZM140.537 154.988C141.002 154.988 141.352 154.871 141.586 154.637C141.82 154.402 141.938 154.061 141.938 153.611C141.938 153.131 141.818 152.771 141.58 152.533C141.342 152.291 140.99 152.17 140.525 152.17C140.08 152.17 139.736 152.295 139.494 152.545C139.256 152.791 139.137 153.152 139.137 153.629C139.137 154.066 139.258 154.402 139.5 154.637C139.742 154.871 140.088 154.988 140.537 154.988ZM147.896 151.461C148.025 151.461 148.16 151.469 148.301 151.484C148.441 151.496 148.566 151.514 148.676 151.537L148.553 152.439C148.447 152.412 148.33 152.391 148.201 152.375C148.072 152.359 147.951 152.352 147.838 152.352C147.58 152.352 147.336 152.404 147.105 152.51C146.879 152.611 146.68 152.76 146.508 152.955C146.336 153.146 146.201 153.379 146.104 153.652C146.006 153.922 145.957 154.223 145.957 154.555V158H144.979V151.578H145.787L145.893 152.762H145.934C146.066 152.523 146.227 152.307 146.414 152.111C146.602 151.912 146.818 151.754 147.064 151.637C147.314 151.52 147.592 151.461 147.896 151.461ZM150.861 151.578V158H149.889V151.578H150.861ZM150.387 149.176C150.547 149.176 150.684 149.229 150.797 149.334C150.914 149.436 150.973 149.596 150.973 149.814C150.973 150.029 150.914 150.189 150.797 150.295C150.684 150.4 150.547 150.453 150.387 150.453C150.219 150.453 150.078 150.4 149.965 150.295C149.855 150.189 149.801 150.029 149.801 149.814C149.801 149.596 149.855 149.436 149.965 149.334C150.078 149.229 150.219 149.176 150.387 149.176ZM155.209 158.117C154.396 158.117 153.752 157.84 153.275 157.285C152.803 156.73 152.566 155.906 152.566 154.812C152.566 153.707 152.809 152.873 153.293 152.311C153.777 151.744 154.422 151.461 155.227 151.461C155.566 151.461 155.863 151.506 156.117 151.596C156.371 151.686 156.59 151.807 156.773 151.959C156.957 152.107 157.111 152.277 157.236 152.469H157.307C157.291 152.348 157.275 152.182 157.26 151.971C157.244 151.76 157.236 151.588 157.236 151.455V148.883H158.209V158H157.424L157.277 157.086H157.236C157.115 157.277 156.961 157.451 156.773 157.607C156.59 157.764 156.369 157.889 156.111 157.982C155.857 158.072 155.557 158.117 155.209 158.117ZM155.361 157.309C156.049 157.309 156.535 157.113 156.82 156.723C157.105 156.332 157.248 155.752 157.248 154.982V154.807C157.248 153.99 157.111 153.363 156.838 152.926C156.568 152.488 156.076 152.27 155.361 152.27C154.764 152.27 154.316 152.5 154.02 152.961C153.723 153.418 153.574 154.043 153.574 154.836C153.574 155.625 153.721 156.234 154.014 156.664C154.311 157.094 154.76 157.309 155.361 157.309ZM165.961 158.117C165.383 158.117 164.873 157.998 164.432 157.76C163.99 157.521 163.646 157.158 163.4 156.67C163.154 156.182 163.031 155.566 163.031 154.824C163.031 154.047 163.16 153.412 163.418 152.92C163.68 152.424 164.039 152.057 164.496 151.818C164.953 151.58 165.473 151.461 166.055 151.461C166.375 151.461 166.684 151.494 166.98 151.561C167.281 151.623 167.527 151.703 167.719 151.801L167.426 152.615C167.23 152.537 167.004 152.467 166.746 152.404C166.492 152.342 166.254 152.311 166.031 152.311C165.586 152.311 165.215 152.406 164.918 152.598C164.625 152.789 164.404 153.07 164.256 153.441C164.111 153.812 164.039 154.27 164.039 154.812C164.039 155.332 164.109 155.775 164.25 156.143C164.395 156.51 164.607 156.791 164.889 156.986C165.174 157.178 165.529 157.273 165.955 157.273C166.295 157.273 166.602 157.238 166.875 157.168C167.148 157.094 167.396 157.008 167.619 156.91V157.777C167.404 157.887 167.164 157.971 166.898 158.029C166.637 158.088 166.324 158.117 165.961 158.117ZM171.615 151.461C172.162 151.461 172.631 151.582 173.021 151.824C173.412 152.066 173.711 152.406 173.918 152.844C174.125 153.277 174.229 153.785 174.229 154.367V154.971H169.793C169.805 155.725 169.992 156.299 170.355 156.693C170.719 157.088 171.23 157.285 171.891 157.285C172.297 157.285 172.656 157.248 172.969 157.174C173.281 157.1 173.605 156.99 173.941 156.846V157.701C173.617 157.846 173.295 157.951 172.975 158.018C172.658 158.084 172.283 158.117 171.85 158.117C171.232 158.117 170.693 157.992 170.232 157.742C169.775 157.488 169.42 157.117 169.166 156.629C168.912 156.141 168.785 155.543 168.785 154.836C168.785 154.145 168.9 153.547 169.131 153.043C169.365 152.535 169.693 152.145 170.115 151.871C170.541 151.598 171.041 151.461 171.615 151.461ZM171.604 152.258C171.084 152.258 170.67 152.428 170.361 152.768C170.053 153.107 169.869 153.582 169.811 154.191H173.209C173.205 153.809 173.145 153.473 173.027 153.184C172.914 152.891 172.74 152.664 172.506 152.504C172.271 152.34 171.971 152.258 171.604 152.258ZM176.859 158H175.881V148.883H176.859V158ZM179.895 158H178.916V148.883H179.895V158ZM187.143 157.32C187.303 157.32 187.467 157.307 187.635 157.279C187.803 157.252 187.939 157.219 188.045 157.18V157.936C187.932 157.986 187.773 158.029 187.57 158.064C187.371 158.1 187.176 158.117 186.984 158.117C186.645 158.117 186.336 158.059 186.059 157.941C185.781 157.82 185.559 157.617 185.391 157.332C185.227 157.047 185.145 156.652 185.145 156.148V152.34H184.23V151.865L185.15 151.484L185.537 150.09H186.123V151.578H188.004V152.34H186.123V156.119C186.123 156.521 186.215 156.822 186.398 157.021C186.586 157.221 186.834 157.32 187.143 157.32ZM191.818 151.461C192.365 151.461 192.834 151.582 193.225 151.824C193.615 152.066 193.914 152.406 194.121 152.844C194.328 153.277 194.432 153.785 194.432 154.367V154.971H189.996C190.008 155.725 190.195 156.299 190.559 156.693C190.922 157.088 191.434 157.285 192.094 157.285C192.5 157.285 192.859 157.248 193.172 157.174C193.484 157.1 193.809 156.99 194.145 156.846V157.701C193.82 157.846 193.498 157.951 193.178 158.018C192.861 158.084 192.486 158.117 192.053 158.117C191.436 158.117 190.896 157.992 190.436 157.742C189.979 157.488 189.623 157.117 189.369 156.629C189.115 156.141 188.988 155.543 188.988 154.836C188.988 154.145 189.104 153.547 189.334 153.043C189.568 152.535 189.896 152.145 190.318 151.871C190.744 151.598 191.244 151.461 191.818 151.461ZM191.807 152.258C191.287 152.258 190.873 152.428 190.564 152.768C190.256 153.107 190.072 153.582 190.014 154.191H193.412C193.408 153.809 193.348 153.473 193.23 153.184C193.117 152.891 192.943 152.664 192.709 152.504C192.475 152.34 192.174 152.258 191.807 152.258ZM197.613 154.713L195.393 151.578H196.506L198.199 154.051L199.887 151.578H200.988L198.768 154.713L201.111 158H199.998L198.199 155.381L196.389 158H195.287L197.613 154.713ZM204.439 157.32C204.6 157.32 204.764 157.307 204.932 157.279C205.1 157.252 205.236 157.219 205.342 157.18V157.936C205.229 157.986 205.07 158.029 204.867 158.064C204.668 158.1 204.473 158.117 204.281 158.117C203.941 158.117 203.633 158.059 203.355 157.941C203.078 157.82 202.855 157.617 202.688 157.332C202.523 157.047 202.441 156.652 202.441 156.148V152.34H201.527V151.865L202.447 151.484L202.834 150.09H203.42V151.578H205.301V152.34H203.42V156.119C203.42 156.521 203.512 156.822 203.695 157.021C203.883 157.221 204.131 157.32 204.439 157.32Z" fill="#161616"/>
<rect x="268" y="171" width="1" height="37" fill="#E292E4"/>
<path d="M115.975 190.635C115.975 191.6 115.799 192.406 115.447 193.055C115.096 193.699 114.586 194.186 113.918 194.514C113.254 194.838 112.447 195 111.498 195H109.172V186.434H111.756C112.627 186.434 113.377 186.594 114.006 186.914C114.635 187.23 115.119 187.701 115.459 188.326C115.803 188.947 115.975 189.717 115.975 190.635ZM114.926 190.67C114.926 189.9 114.797 189.266 114.539 188.766C114.285 188.266 113.91 187.895 113.414 187.652C112.922 187.406 112.318 187.283 111.604 187.283H110.168V194.145H111.381C112.561 194.145 113.445 193.854 114.035 193.271C114.629 192.689 114.926 191.822 114.926 190.67ZM120.135 188.473C120.9 188.473 121.469 188.645 121.84 188.988C122.211 189.332 122.396 189.881 122.396 190.635V195H121.688L121.5 194.051H121.453C121.273 194.285 121.086 194.482 120.891 194.643C120.695 194.799 120.469 194.918 120.211 195C119.957 195.078 119.645 195.117 119.273 195.117C118.883 195.117 118.535 195.049 118.23 194.912C117.93 194.775 117.691 194.568 117.516 194.291C117.344 194.014 117.258 193.662 117.258 193.236C117.258 192.596 117.512 192.104 118.02 191.76C118.527 191.416 119.301 191.229 120.34 191.197L121.447 191.15V190.758C121.447 190.203 121.328 189.814 121.09 189.592C120.852 189.369 120.516 189.258 120.082 189.258C119.746 189.258 119.426 189.307 119.121 189.404C118.816 189.502 118.527 189.617 118.254 189.75L117.955 189.012C118.244 188.863 118.576 188.736 118.951 188.631C119.326 188.525 119.721 188.473 120.135 188.473ZM121.436 191.836L120.457 191.877C119.656 191.908 119.092 192.039 118.764 192.27C118.436 192.5 118.271 192.826 118.271 193.248C118.271 193.615 118.383 193.887 118.605 194.062C118.828 194.238 119.123 194.326 119.49 194.326C120.061 194.326 120.527 194.168 120.891 193.852C121.254 193.535 121.436 193.061 121.436 192.428V191.836ZM126.475 194.32C126.635 194.32 126.799 194.307 126.967 194.279C127.135 194.252 127.271 194.219 127.377 194.18V194.936C127.264 194.986 127.105 195.029 126.902 195.064C126.703 195.1 126.508 195.117 126.316 195.117C125.977 195.117 125.668 195.059 125.391 194.941C125.113 194.82 124.891 194.617 124.723 194.332C124.559 194.047 124.477 193.652 124.477 193.148V189.34H123.562V188.865L124.482 188.484L124.869 187.09H125.455V188.578H127.336V189.34H125.455V193.119C125.455 193.521 125.547 193.822 125.73 194.021C125.918 194.221 126.166 194.32 126.475 194.32ZM131.08 188.473C131.846 188.473 132.414 188.645 132.785 188.988C133.156 189.332 133.342 189.881 133.342 190.635V195H132.633L132.445 194.051H132.398C132.219 194.285 132.031 194.482 131.836 194.643C131.641 194.799 131.414 194.918 131.156 195C130.902 195.078 130.59 195.117 130.219 195.117C129.828 195.117 129.48 195.049 129.176 194.912C128.875 194.775 128.637 194.568 128.461 194.291C128.289 194.014 128.203 193.662 128.203 193.236C128.203 192.596 128.457 192.104 128.965 191.76C129.473 191.416 130.246 191.229 131.285 191.197L132.393 191.15V190.758C132.393 190.203 132.273 189.814 132.035 189.592C131.797 189.369 131.461 189.258 131.027 189.258C130.691 189.258 130.371 189.307 130.066 189.404C129.762 189.502 129.473 189.617 129.199 189.75L128.9 189.012C129.189 188.863 129.521 188.736 129.896 188.631C130.271 188.525 130.666 188.473 131.08 188.473ZM132.381 191.836L131.402 191.877C130.602 191.908 130.037 192.039 129.709 192.27C129.381 192.5 129.217 192.826 129.217 193.248C129.217 193.615 129.328 193.887 129.551 194.062C129.773 194.238 130.068 194.326 130.436 194.326C131.006 194.326 131.473 194.168 131.836 193.852C132.199 193.535 132.381 193.061 132.381 192.428V191.836ZM140.256 197.883C139.412 197.883 138.762 197.725 138.305 197.408C137.848 197.096 137.619 196.656 137.619 196.09C137.619 195.688 137.746 195.344 138 195.059C138.258 194.773 138.613 194.584 139.066 194.49C138.898 194.412 138.754 194.295 138.633 194.139C138.516 193.982 138.457 193.803 138.457 193.6C138.457 193.365 138.521 193.16 138.65 192.984C138.783 192.805 138.984 192.633 139.254 192.469C138.918 192.332 138.645 192.102 138.434 191.777C138.227 191.449 138.123 191.068 138.123 190.635C138.123 190.174 138.219 189.781 138.41 189.457C138.602 189.129 138.879 188.879 139.242 188.707C139.605 188.535 140.045 188.449 140.561 188.449C140.674 188.449 140.787 188.455 140.9 188.467C141.018 188.475 141.129 188.488 141.234 188.508C141.34 188.523 141.432 188.543 141.51 188.566H143.713V189.193L142.529 189.34C142.646 189.492 142.744 189.676 142.822 189.891C142.9 190.105 142.939 190.344 142.939 190.605C142.939 191.246 142.723 191.756 142.289 192.135C141.855 192.51 141.26 192.697 140.502 192.697C140.322 192.697 140.139 192.682 139.951 192.65C139.76 192.756 139.613 192.873 139.512 193.002C139.414 193.131 139.365 193.279 139.365 193.447C139.365 193.572 139.402 193.672 139.477 193.746C139.555 193.82 139.666 193.875 139.811 193.91C139.955 193.941 140.129 193.957 140.332 193.957H141.463C142.162 193.957 142.697 194.104 143.068 194.396C143.443 194.689 143.631 195.117 143.631 195.68C143.631 196.391 143.342 196.936 142.764 197.314C142.186 197.693 141.35 197.883 140.256 197.883ZM140.285 197.121C140.816 197.121 141.256 197.066 141.604 196.957C141.955 196.852 142.217 196.697 142.389 196.494C142.564 196.295 142.652 196.057 142.652 195.779C142.652 195.521 142.594 195.326 142.477 195.193C142.359 195.064 142.188 194.979 141.961 194.936C141.734 194.889 141.457 194.865 141.129 194.865H140.016C139.727 194.865 139.475 194.91 139.26 195C139.045 195.09 138.879 195.223 138.762 195.398C138.648 195.574 138.592 195.793 138.592 196.055C138.592 196.402 138.738 196.666 139.031 196.846C139.324 197.029 139.742 197.121 140.285 197.121ZM140.537 191.988C141.002 191.988 141.352 191.871 141.586 191.637C141.82 191.402 141.938 191.061 141.938 190.611C141.938 190.131 141.818 189.771 141.58 189.533C141.342 189.291 140.99 189.17 140.525 189.17C140.08 189.17 139.736 189.295 139.494 189.545C139.256 189.791 139.137 190.152 139.137 190.629C139.137 191.066 139.258 191.402 139.5 191.637C139.742 191.871 140.088 191.988 140.537 191.988ZM147.896 188.461C148.025 188.461 148.16 188.469 148.301 188.484C148.441 188.496 148.566 188.514 148.676 188.537L148.553 189.439C148.447 189.412 148.33 189.391 148.201 189.375C148.072 189.359 147.951 189.352 147.838 189.352C147.58 189.352 147.336 189.404 147.105 189.51C146.879 189.611 146.68 189.76 146.508 189.955C146.336 190.146 146.201 190.379 146.104 190.652C146.006 190.922 145.957 191.223 145.957 191.555V195H144.979V188.578H145.787L145.893 189.762H145.934C146.066 189.523 146.227 189.307 146.414 189.111C146.602 188.912 146.818 188.754 147.064 188.637C147.314 188.52 147.592 188.461 147.896 188.461ZM150.861 188.578V195H149.889V188.578H150.861ZM150.387 186.176C150.547 186.176 150.684 186.229 150.797 186.334C150.914 186.436 150.973 186.596 150.973 186.814C150.973 187.029 150.914 187.189 150.797 187.295C150.684 187.4 150.547 187.453 150.387 187.453C150.219 187.453 150.078 187.4 149.965 187.295C149.855 187.189 149.801 187.029 149.801 186.814C149.801 186.596 149.855 186.436 149.965 186.334C150.078 186.229 150.219 186.176 150.387 186.176ZM155.209 195.117C154.396 195.117 153.752 194.84 153.275 194.285C152.803 193.73 152.566 192.906 152.566 191.812C152.566 190.707 152.809 189.873 153.293 189.311C153.777 188.744 154.422 188.461 155.227 188.461C155.566 188.461 155.863 188.506 156.117 188.596C156.371 188.686 156.59 188.807 156.773 188.959C156.957 189.107 157.111 189.277 157.236 189.469H157.307C157.291 189.348 157.275 189.182 157.26 188.971C157.244 188.76 157.236 188.588 157.236 188.455V185.883H158.209V195H157.424L157.277 194.086H157.236C157.115 194.277 156.961 194.451 156.773 194.607C156.59 194.764 156.369 194.889 156.111 194.982C155.857 195.072 155.557 195.117 155.209 195.117ZM155.361 194.309C156.049 194.309 156.535 194.113 156.82 193.723C157.105 193.332 157.248 192.752 157.248 191.982V191.807C157.248 190.99 157.111 190.363 156.838 189.926C156.568 189.488 156.076 189.27 155.361 189.27C154.764 189.27 154.316 189.5 154.02 189.961C153.723 190.418 153.574 191.043 153.574 191.836C153.574 192.625 153.721 193.234 154.014 193.664C154.311 194.094 154.76 194.309 155.361 194.309ZM165.961 195.117C165.383 195.117 164.873 194.998 164.432 194.76C163.99 194.521 163.646 194.158 163.4 193.67C163.154 193.182 163.031 192.566 163.031 191.824C163.031 191.047 163.16 190.412 163.418 189.92C163.68 189.424 164.039 189.057 164.496 188.818C164.953 188.58 165.473 188.461 166.055 188.461C166.375 188.461 166.684 188.494 166.98 188.561C167.281 188.623 167.527 188.703 167.719 188.801L167.426 189.615C167.23 189.537 167.004 189.467 166.746 189.404C166.492 189.342 166.254 189.311 166.031 189.311C165.586 189.311 165.215 189.406 164.918 189.598C164.625 189.789 164.404 190.07 164.256 190.441C164.111 190.812 164.039 191.27 164.039 191.812C164.039 192.332 164.109 192.775 164.25 193.143C164.395 193.51 164.607 193.791 164.889 193.986C165.174 194.178 165.529 194.273 165.955 194.273C166.295 194.273 166.602 194.238 166.875 194.168C167.148 194.094 167.396 194.008 167.619 193.91V194.777C167.404 194.887 167.164 194.971 166.898 195.029C166.637 195.088 166.324 195.117 165.961 195.117ZM171.615 188.461C172.162 188.461 172.631 188.582 173.021 188.824C173.412 189.066 173.711 189.406 173.918 189.844C174.125 190.277 174.229 190.785 174.229 191.367V191.971H169.793C169.805 192.725 169.992 193.299 170.355 193.693C170.719 194.088 171.23 194.285 171.891 194.285C172.297 194.285 172.656 194.248 172.969 194.174C173.281 194.1 173.605 193.99 173.941 193.846V194.701C173.617 194.846 173.295 194.951 172.975 195.018C172.658 195.084 172.283 195.117 171.85 195.117C171.232 195.117 170.693 194.992 170.232 194.742C169.775 194.488 169.42 194.117 169.166 193.629C168.912 193.141 168.785 192.543 168.785 191.836C168.785 191.145 168.9 190.547 169.131 190.043C169.365 189.535 169.693 189.145 170.115 188.871C170.541 188.598 171.041 188.461 171.615 188.461ZM171.604 189.258C171.084 189.258 170.67 189.428 170.361 189.768C170.053 190.107 169.869 190.582 169.811 191.191H173.209C173.205 190.809 173.145 190.473 173.027 190.184C172.914 189.891 172.74 189.664 172.506 189.504C172.271 189.34 171.971 189.258 171.604 189.258ZM176.859 195H175.881V185.883H176.859V195ZM179.895 195H178.916V185.883H179.895V195ZM187.143 194.32C187.303 194.32 187.467 194.307 187.635 194.279C187.803 194.252 187.939 194.219 188.045 194.18V194.936C187.932 194.986 187.773 195.029 187.57 195.064C187.371 195.1 187.176 195.117 186.984 195.117C186.645 195.117 186.336 195.059 186.059 194.941C185.781 194.82 185.559 194.617 185.391 194.332C185.227 194.047 185.145 193.652 185.145 193.148V189.34H184.23V188.865L185.15 188.484L185.537 187.09H186.123V188.578H188.004V189.34H186.123V193.119C186.123 193.521 186.215 193.822 186.398 194.021C186.586 194.221 186.834 194.32 187.143 194.32ZM191.818 188.461C192.365 188.461 192.834 188.582 193.225 188.824C193.615 189.066 193.914 189.406 194.121 189.844C194.328 190.277 194.432 190.785 194.432 191.367V191.971H189.996C190.008 192.725 190.195 193.299 190.559 193.693C190.922 194.088 191.434 194.285 192.094 194.285C192.5 194.285 192.859 194.248 193.172 194.174C193.484 194.1 193.809 193.99 194.145 193.846V194.701C193.82 194.846 193.498 194.951 193.178 195.018C192.861 195.084 192.486 195.117 192.053 195.117C191.436 195.117 190.896 194.992 190.436 194.742C189.979 194.488 189.623 194.117 189.369 193.629C189.115 193.141 188.988 192.543 188.988 191.836C188.988 191.145 189.104 190.547 189.334 190.043C189.568 189.535 189.896 189.145 190.318 188.871C190.744 188.598 191.244 188.461 191.818 188.461ZM191.807 189.258C191.287 189.258 190.873 189.428 190.564 189.768C190.256 190.107 190.072 190.582 190.014 191.191H193.412C193.408 190.809 193.348 190.473 193.23 190.184C193.117 189.891 192.943 189.664 192.709 189.504C192.475 189.34 192.174 189.258 191.807 189.258ZM197.613 191.713L195.393 188.578H196.506L198.199 191.051L199.887 188.578H200.988L198.768 191.713L201.111 195H199.998L198.199 192.381L196.389 195H195.287L197.613 191.713ZM204.439 194.32C204.6 194.32 204.764 194.307 204.932 194.279C205.1 194.252 205.236 194.219 205.342 194.18V194.936C205.229 194.986 205.07 195.029 204.867 195.064C204.668 195.1 204.473 195.117 204.281 195.117C203.941 195.117 203.633 195.059 203.355 194.941C203.078 194.82 202.855 194.617 202.688 194.332C202.523 194.047 202.441 193.652 202.441 193.148V189.34H201.527V188.865L202.447 188.484L202.834 187.09H203.42V188.578H205.301V189.34H203.42V193.119C203.42 193.521 203.512 193.822 203.695 194.021C203.883 194.221 204.131 194.32 204.439 194.32Z" fill="#161616"/>
<path d="M284.224 82H282.94V78.4551H279.32V82H278.031V74.1475H279.32V77.3594H282.94V74.1475H284.224V82ZM288.542 75.9414C289.072 75.9414 289.527 76.0506 289.907 76.269C290.286 76.4875 290.578 76.7972 290.782 77.1982C290.986 77.5993 291.088 78.0791 291.088 78.6377V79.3145H287.119C287.133 79.891 287.287 80.335 287.581 80.6465C287.878 80.958 288.294 81.1138 288.827 81.1138C289.207 81.1138 289.547 81.078 289.848 81.0063C290.152 80.9312 290.465 80.8219 290.788 80.6787V81.7046C290.49 81.8442 290.188 81.9463 289.88 82.0107C289.572 82.0752 289.203 82.1074 288.773 82.1074C288.19 82.1074 287.676 81.9946 287.232 81.769C286.792 81.5399 286.446 81.1997 286.195 80.7485C285.948 80.2974 285.825 79.737 285.825 79.0674C285.825 78.4014 285.938 77.8356 286.163 77.3701C286.389 76.9046 286.706 76.5501 287.114 76.3066C287.522 76.0632 287.998 75.9414 288.542 75.9414ZM288.542 76.8921C288.145 76.8921 287.823 77.021 287.576 77.2788C287.332 77.5366 287.189 77.9144 287.146 78.4121H289.853C289.849 78.1149 289.799 77.8517 289.703 77.6226C289.61 77.3934 289.466 77.2144 289.273 77.0854C289.083 76.9565 288.84 76.8921 288.542 76.8921ZM294.843 75.9414C295.595 75.9414 296.162 76.1079 296.545 76.4409C296.932 76.7739 297.125 77.2931 297.125 77.9985V82H296.229L295.987 81.1567H295.944C295.776 81.3716 295.602 81.5488 295.423 81.6885C295.244 81.8281 295.036 81.932 294.8 82C294.567 82.0716 294.282 82.1074 293.946 82.1074C293.591 82.1074 293.274 82.043 292.995 81.9141C292.716 81.7816 292.496 81.5811 292.334 81.3125C292.173 81.0439 292.093 80.7038 292.093 80.292C292.093 79.6797 292.32 79.2196 292.775 78.9116C293.233 78.6037 293.924 78.4336 294.848 78.4014L295.879 78.3638V78.0522C295.879 77.6405 295.783 77.3468 295.589 77.1714C295.4 76.9959 295.131 76.9082 294.784 76.9082C294.486 76.9082 294.198 76.9512 293.919 77.0371C293.64 77.123 293.368 77.2287 293.103 77.354L292.694 76.4624C292.984 76.3084 293.314 76.1831 293.683 76.0864C294.055 75.9897 294.442 75.9414 294.843 75.9414ZM295.874 79.1587L295.106 79.1855C294.476 79.207 294.034 79.3145 293.779 79.5078C293.525 79.7012 293.398 79.9661 293.398 80.3027C293.398 80.5964 293.486 80.8112 293.661 80.9473C293.837 81.0798 294.068 81.146 294.354 81.146C294.791 81.146 295.153 81.0225 295.439 80.7754C295.729 80.5247 295.874 80.1577 295.874 79.6743V79.1587ZM300.891 82.1074C300.182 82.1074 299.612 81.8496 299.183 81.334C298.757 80.8148 298.543 80.0503 298.543 79.0405C298.543 78.02 298.76 77.2484 299.193 76.7256C299.63 76.2028 300.205 75.9414 300.917 75.9414C301.218 75.9414 301.481 75.9826 301.707 76.0649C301.933 76.1437 302.126 76.2511 302.287 76.3872C302.452 76.5233 302.591 76.6755 302.706 76.8438H302.765C302.747 76.7327 302.726 76.5734 302.701 76.3657C302.679 76.1545 302.668 75.9593 302.668 75.7803V73.6426H303.936V82H302.948L302.722 81.189H302.668C302.561 81.3608 302.425 81.5166 302.26 81.6562C302.099 81.7923 301.906 81.9015 301.68 81.9839C301.458 82.0662 301.195 82.1074 300.891 82.1074ZM301.245 81.0815C301.786 81.0815 302.167 80.9258 302.389 80.6143C302.611 80.3027 302.726 79.8354 302.733 79.2124V79.0459C302.733 78.3799 302.625 77.8696 302.411 77.5151C302.196 77.1571 301.804 76.978 301.234 76.978C300.78 76.978 300.432 77.1624 300.192 77.5312C299.956 77.8965 299.838 78.4067 299.838 79.062C299.838 79.7173 299.956 80.2186 300.192 80.5659C300.432 80.9097 300.783 81.0815 301.245 81.0815ZM308.115 75.9414C308.645 75.9414 309.099 76.0506 309.479 76.269C309.859 76.4875 310.15 76.7972 310.354 77.1982C310.559 77.5993 310.661 78.0791 310.661 78.6377V79.3145H306.691C306.706 79.891 306.86 80.335 307.153 80.6465C307.451 80.958 307.866 81.1138 308.399 81.1138C308.779 81.1138 309.119 81.078 309.42 81.0063C309.724 80.9312 310.038 80.8219 310.36 80.6787V81.7046C310.063 81.8442 309.76 81.9463 309.452 82.0107C309.144 82.0752 308.775 82.1074 308.346 82.1074C307.762 82.1074 307.248 81.9946 306.804 81.769C306.364 81.5399 306.018 81.1997 305.768 80.7485C305.521 80.2974 305.397 79.737 305.397 79.0674C305.397 78.4014 305.51 77.8356 305.735 77.3701C305.961 76.9046 306.278 76.5501 306.686 76.3066C307.094 76.0632 307.57 75.9414 308.115 75.9414ZM308.115 76.8921C307.717 76.8921 307.395 77.021 307.148 77.2788C306.904 77.5366 306.761 77.9144 306.718 78.4121H309.425C309.422 78.1149 309.372 77.8517 309.275 77.6226C309.182 77.3934 309.039 77.2144 308.845 77.0854C308.655 76.9565 308.412 76.8921 308.115 76.8921ZM315.097 75.9414C315.197 75.9414 315.307 75.9468 315.425 75.9575C315.543 75.9683 315.645 75.9826 315.731 76.0005L315.613 77.1821C315.538 77.1606 315.444 77.1445 315.333 77.1338C315.226 77.123 315.129 77.1177 315.043 77.1177C314.818 77.1177 314.603 77.1553 314.399 77.2305C314.195 77.3021 314.014 77.4131 313.856 77.5635C313.699 77.7103 313.575 77.8947 313.486 78.1167C313.396 78.3387 313.352 78.5965 313.352 78.8901V82H312.084V76.0542H313.072L313.244 77.1016H313.303C313.421 76.8903 313.568 76.6969 313.744 76.5215C313.919 76.346 314.12 76.2064 314.345 76.1025C314.574 75.9951 314.825 75.9414 315.097 75.9414Z" fill="#61656E"/>
<g clip-path="url(#clip3_3310_310613)">
<rect width="28" height="28" transform="translate(277 102)" fill="#C5C9D0"/>
<path fill-rule="evenodd" clip-rule="evenodd" d="M294.564 110.293C294.173 109.902 293.54 109.902 293.149 110.293L291.735 111.707L295.271 115.243L296.685 113.828C297.076 113.438 297.076 112.805 296.685 112.414L294.564 110.293ZM294.21 111.354C294.015 111.158 293.698 111.158 293.503 111.354L293.149 111.707L295.271 113.828L295.624 113.475C295.82 113.28 295.82 112.963 295.624 112.768L294.21 111.354Z" fill="#161616"/>
<path d="M292.442 113.828L293.149 114.536L289.26 118.425C289.065 118.62 288.749 118.62 288.553 118.425C288.358 118.229 288.358 117.913 288.553 117.718L292.442 113.828Z" fill="#161616"/>
<path d="M293.857 115.243L294.564 115.95L290.321 120.192L285 122L286.786 116.657L290.993 112.449L291.7 113.156L287.669 117.187L286.874 119.574L287.404 120.104L289.791 119.309L293.857 115.243Z" fill="#161616"/>
</g>
<rect width="28" height="28" transform="translate(313 102)" fill="#C5C9D0"/>
<path d="M326 114V120H325V114H326Z" fill="#161616"/>
<path d="M328 114V120H327V114H328Z" fill="#161616"/>
<path fill-rule="evenodd" clip-rule="evenodd" d="M325 110C324.448 110 324 110.448 324 111V112H321V113H322V120C322 121.105 322.895 122 324 122H329.25C330.216 122 331 121.216 331 120.25V113H332V112H329V111C329 110.448 328.552 110 328 110H325ZM330 113H323V120C323 120.552 323.448 121 324 121H329.25C329.664 121 330 120.664 330 120.25V113ZM328 112H325V111.5C325 111.224 325.224 111 325.5 111H327.5C327.776 111 328 111.224 328 111.5V112Z" fill="#161616"/>
<g clip-path="url(#clip4_3310_310613)">
<rect width="28" height="28" transform="translate(277 139)" fill="#C5C9D0"/>
<path fill-rule="evenodd" clip-rule="evenodd" d="M294.564 147.293C294.173 146.902 293.54 146.902 293.149 147.293L291.735 148.707L295.271 152.243L296.685 150.828C297.076 150.438 297.076 149.805 296.685 149.414L294.564 147.293ZM294.21 148.354C294.015 148.158 293.698 148.158 293.503 148.354L293.149 148.707L295.271 150.828L295.624 150.475C295.82 150.28 295.82 149.963 295.624 149.768L294.21 148.354Z" fill="#161616"/>
<path d="M292.442 150.828L293.149 151.536L289.26 155.425C289.065 155.62 288.749 155.62 288.553 155.425C288.358 155.229 288.358 154.913 288.553 154.718L292.442 150.828Z" fill="#161616"/>
<path d="M293.857 152.243L294.564 152.95L290.321 157.192L285 159L286.786 153.657L290.993 149.449L291.7 150.156L287.669 154.187L286.874 156.574L287.404 157.104L289.791 156.309L293.857 152.243Z" fill="#161616"/>
</g>
<rect width="28" height="28" transform="translate(313 139)" fill="#C5C9D0"/>
<path d="M326 151V157H325V151H326Z" fill="#161616"/>
<path d="M328 151V157H327V151H328Z" fill="#161616"/>
<path fill-rule="evenodd" clip-rule="evenodd" d="M325 147C324.448 147 324 147.448 324 148V149H321V150H322V157C322 158.105 322.895 159 324 159H329.25C330.216 159 331 158.216 331 157.25V150H332V149H329V148C329 147.448 328.552 147 328 147H325ZM330 150H323V157C323 157.552 323.448 158 324 158H329.25C329.664 158 330 157.664 330 157.25V150ZM328 149H325V148.5C325 148.224 325.224 148 325.5 148H327.5C327.776 148 328 148.224 328 148.5V149Z" fill="#161616"/>
<g clip-path="url(#clip5_3310_310613)">
<rect width="28" height="28" transform="translate(277 176)" fill="#C5C9D0"/>
<path fill-rule="evenodd" clip-rule="evenodd" d="M294.564 184.293C294.173 183.902 293.54 183.902 293.149 184.293L291.735 185.707L295.271 189.243L296.685 187.828C297.076 187.438 297.076 186.805 296.685 186.414L294.564 184.293ZM294.21 185.354C294.015 185.158 293.698 185.158 293.503 185.354L293.149 185.707L295.271 187.828L295.624 187.475C295.82 187.28 295.82 186.963 295.624 186.768L294.21 185.354Z" fill="#161616"/>
<path d="M292.442 187.828L293.149 188.536L289.26 192.425C289.065 192.62 288.749 192.62 288.553 192.425C288.358 192.229 288.358 191.913 288.553 191.718L292.442 187.828Z" fill="#161616"/>
<path d="M293.857 189.243L294.564 189.95L290.321 194.192L285 196L286.786 190.657L290.993 186.449L291.7 187.156L287.669 191.187L286.874 193.574L287.404 194.104L289.791 193.309L293.857 189.243Z" fill="#161616"/>
</g>
<rect width="28" height="28" transform="translate(313 176)" fill="#C5C9D0"/>
<path d="M326 188V194H325V188H326Z" fill="#161616"/>
<path d="M328 188V194H327V188H328Z" fill="#161616"/>
<path fill-rule="evenodd" clip-rule="evenodd" d="M325 184C324.448 184 324 184.448 324 185V186H321V187H322V194C322 195.105 322.895 196 324 196H329.25C330.216 196 331 195.216 331 194.25V187H332V186H329V185C329 184.448 328.552 184 328 184H325ZM330 187H323V194C323 194.552 323.448 195 324 195H329.25C329.664 195 330 194.664 330 194.25V187ZM328 186H325V185.5C325 185.224 325.224 185 325.5 185H327.5C327.776 185 328 185.224 328 185.5V186Z" fill="#161616"/>
</g>
</g>
<path d="M624.778 14H623.131V5.40039H620.205V4.00586H627.697V5.40039H624.778V14ZM635.764 10.1992C635.764 10.8281 635.682 11.3864 635.518 11.874C635.354 12.3617 635.114 12.7741 634.8 13.1113C634.485 13.444 634.107 13.6992 633.665 13.877C633.223 14.0501 632.724 14.1367 632.168 14.1367C631.648 14.1367 631.172 14.0501 630.739 13.877C630.306 13.6992 629.93 13.444 629.611 13.1113C629.297 12.7741 629.053 12.3617 628.88 11.874C628.707 11.3864 628.62 10.8281 628.62 10.1992C628.62 9.36523 628.764 8.65885 629.051 8.08008C629.342 7.49674 629.757 7.05241 630.295 6.74707C630.833 6.44173 631.473 6.28906 632.216 6.28906C632.913 6.28906 633.528 6.44173 634.062 6.74707C634.595 7.05241 635.012 7.49674 635.312 8.08008C635.613 8.66341 635.764 9.36979 635.764 10.1992ZM630.274 10.1992C630.274 10.7507 630.34 11.2223 630.473 11.6143C630.609 12.0062 630.819 12.307 631.102 12.5166C631.384 12.7217 631.749 12.8242 632.195 12.8242C632.642 12.8242 633.007 12.7217 633.289 12.5166C633.572 12.307 633.779 12.0062 633.911 11.6143C634.043 11.2223 634.109 10.7507 634.109 10.1992C634.109 9.64779 634.043 9.18066 633.911 8.79785C633.779 8.41048 633.572 8.11654 633.289 7.91602C633.007 7.71094 632.64 7.6084 632.188 7.6084C631.523 7.6084 631.038 7.83171 630.732 8.27832C630.427 8.72493 630.274 9.36523 630.274 10.1992ZM639.216 3.36328V8.50391C639.216 8.73633 639.207 8.99154 639.188 9.26953C639.17 9.54297 639.152 9.80046 639.134 10.042H639.168C639.286 9.88249 639.428 9.69564 639.592 9.48145C639.76 9.26725 639.92 9.0804 640.07 8.9209L642.381 6.43262H644.227L641.198 9.68652L644.425 14H642.538L640.118 10.6777L639.216 11.4502V14H637.609V3.36328H639.216ZM648.649 6.28906C649.324 6.28906 649.903 6.42806 650.386 6.70605C650.869 6.98405 651.24 7.37826 651.5 7.88867C651.76 8.39909 651.89 9.00977 651.89 9.7207V10.582H646.838C646.856 11.3158 647.052 11.8809 647.426 12.2773C647.804 12.6738 648.333 12.8721 649.012 12.8721C649.495 12.8721 649.928 12.8265 650.311 12.7354C650.698 12.6396 651.097 12.5007 651.507 12.3184V13.624C651.129 13.8018 650.743 13.9316 650.352 14.0137C649.96 14.0957 649.49 14.1367 648.943 14.1367C648.201 14.1367 647.547 13.9932 646.981 13.7061C646.421 13.4144 645.981 12.9814 645.662 12.4072C645.348 11.833 645.19 11.1198 645.19 10.2676C645.19 9.41992 645.334 8.69987 645.621 8.10742C645.908 7.51497 646.312 7.0638 646.831 6.75391C647.351 6.44401 647.957 6.28906 648.649 6.28906ZM648.649 7.49902C648.144 7.49902 647.733 7.66309 647.419 7.99121C647.109 8.31934 646.927 8.80013 646.872 9.43359H650.317C650.313 9.05534 650.249 8.72038 650.126 8.42871C650.007 8.13704 649.825 7.90918 649.579 7.74512C649.338 7.58105 649.028 7.49902 648.649 7.49902ZM657.646 6.28906C658.498 6.28906 659.161 6.51009 659.635 6.95215C660.113 7.38965 660.353 8.09375 660.353 9.06445V14H658.746V9.36523C658.746 8.77734 658.625 8.33757 658.384 8.0459C658.142 7.74967 657.769 7.60156 657.263 7.60156C656.529 7.60156 656.019 7.82715 655.731 8.27832C655.449 8.72949 655.308 9.38346 655.308 10.2402V14H653.701V6.43262H654.952L655.178 7.45801H655.267C655.431 7.19368 655.633 6.97721 655.875 6.80859C656.121 6.63542 656.395 6.50553 656.695 6.41895C657.001 6.33236 657.317 6.28906 657.646 6.28906ZM667.688 11.8398C667.688 12.3366 667.567 12.7559 667.325 13.0977C667.084 13.4395 666.73 13.6992 666.266 13.877C665.805 14.0501 665.24 14.1367 664.57 14.1367C664.042 14.1367 663.586 14.098 663.203 14.0205C662.825 13.9476 662.467 13.8337 662.13 13.6787V12.291C662.49 12.4596 662.893 12.6055 663.34 12.7285C663.791 12.8516 664.217 12.9131 664.618 12.9131C665.147 12.9131 665.527 12.8311 665.76 12.667C665.992 12.4984 666.108 12.2751 666.108 11.9971C666.108 11.833 666.061 11.6872 665.965 11.5596C665.874 11.4274 665.701 11.293 665.445 11.1562C665.195 11.015 664.826 10.8464 664.338 10.6504C663.859 10.459 663.456 10.2676 663.128 10.0762C662.8 9.88477 662.551 9.65462 662.383 9.38574C662.214 9.1123 662.13 8.76367 662.13 8.33984C662.13 7.66992 662.394 7.16178 662.923 6.81543C663.456 6.46452 664.16 6.28906 665.035 6.28906C665.5 6.28906 665.938 6.33691 666.348 6.43262C666.762 6.52376 667.168 6.6582 667.564 6.83594L667.059 8.0459C666.717 7.89551 666.373 7.77246 666.026 7.67676C665.685 7.5765 665.336 7.52637 664.98 7.52637C664.566 7.52637 664.249 7.59017 664.03 7.71777C663.816 7.84538 663.709 8.02767 663.709 8.26465C663.709 8.44238 663.761 8.59277 663.866 8.71582C663.971 8.83887 664.151 8.96191 664.406 9.08496C664.666 9.20801 665.026 9.36068 665.486 9.54297C665.938 9.71615 666.327 9.89844 666.655 10.0898C666.988 10.2767 667.243 10.5068 667.421 10.7803C667.599 11.0537 667.688 11.4069 667.688 11.8398Z" fill="black"/>
<rect x="620" y="30" width="24" height="24" fill="#E292E4"/>
<path d="M656.44 43.4434V42.6484H659.104V43.4434H656.44ZM659.985 43.4434V42.6484H662.649V43.4434H659.985ZM667.838 44.3887C667.838 44.7646 667.743 45.0815 667.553 45.3394C667.367 45.5936 667.098 45.7852 666.748 45.9141C666.4 46.043 665.985 46.1074 665.501 46.1074C665.09 46.1074 664.733 46.0752 664.433 46.0107C664.132 45.9463 663.869 45.855 663.643 45.7368V44.915C663.883 45.0332 664.169 45.1406 664.502 45.2373C664.835 45.334 665.176 45.3823 665.523 45.3823C666.031 45.3823 666.4 45.3 666.629 45.1353C666.859 44.9705 666.973 44.7467 666.973 44.4639C666.973 44.3027 666.927 44.1613 666.833 44.0396C666.744 43.9142 666.592 43.7943 666.377 43.6797C666.162 43.5615 665.865 43.4326 665.485 43.293C665.109 43.1497 664.784 43.0083 664.508 42.8687C664.236 42.7254 664.024 42.5518 663.874 42.3477C663.727 42.1436 663.654 41.8786 663.654 41.5527C663.654 41.055 663.854 40.6737 664.255 40.4087C664.66 40.1401 665.19 40.0059 665.845 40.0059C666.2 40.0059 666.531 40.0417 666.839 40.1133C667.15 40.1813 667.44 40.2744 667.709 40.3926L667.408 41.1069C667.165 41.0031 666.905 40.9154 666.629 40.8438C666.354 40.7721 666.073 40.7363 665.786 40.7363C665.374 40.7363 665.057 40.8044 664.835 40.9404C664.617 41.0765 664.508 41.2627 664.508 41.499C664.508 41.6816 664.558 41.832 664.658 41.9502C664.762 42.0684 664.927 42.1794 665.152 42.2832C665.378 42.387 665.675 42.5088 666.044 42.6484C666.413 42.7845 666.731 42.9259 667 43.0728C667.269 43.216 667.474 43.3914 667.618 43.5991C667.764 43.8032 667.838 44.0664 667.838 44.3887ZM671.474 40.0166C672.176 40.0166 672.697 40.1742 673.037 40.4893C673.377 40.8044 673.547 41.3075 673.547 41.9985V46H672.897L672.726 45.1299H672.683C672.518 45.3447 672.346 45.5256 672.167 45.6724C671.988 45.8156 671.78 45.9248 671.544 46C671.311 46.0716 671.025 46.1074 670.685 46.1074C670.326 46.1074 670.008 46.0448 669.729 45.9194C669.453 45.7941 669.234 45.6043 669.073 45.3501C668.916 45.0959 668.837 44.7736 668.837 44.3833C668.837 43.7961 669.07 43.3449 669.535 43.0298C670.001 42.7147 670.71 42.5428 671.662 42.5142L672.677 42.4712V42.1113C672.677 41.6029 672.568 41.2466 672.35 41.0425C672.131 40.8384 671.823 40.7363 671.426 40.7363C671.118 40.7363 670.824 40.7811 670.545 40.8706C670.266 40.9601 670.001 41.0658 669.75 41.1875L669.476 40.5107C669.741 40.3747 670.045 40.2583 670.389 40.1616C670.733 40.0649 671.095 40.0166 671.474 40.0166ZM672.667 43.0996L671.77 43.1372C671.035 43.1659 670.518 43.2858 670.217 43.4971C669.917 43.7083 669.766 44.0073 669.766 44.394C669.766 44.7306 669.868 44.9795 670.072 45.1406C670.276 45.3018 670.547 45.3823 670.883 45.3823C671.406 45.3823 671.834 45.2373 672.167 44.9473C672.5 44.6572 672.667 44.2222 672.667 43.6421V43.0996ZM676.281 46H675.384V37.6426H676.281V46ZM680.068 45.377C680.215 45.377 680.365 45.3644 680.519 45.3394C680.673 45.3143 680.798 45.2839 680.895 45.248V45.9409C680.791 45.9875 680.646 46.0269 680.46 46.0591C680.277 46.0913 680.098 46.1074 679.923 46.1074C679.611 46.1074 679.328 46.0537 679.074 45.9463C678.82 45.8353 678.616 45.6491 678.462 45.3877C678.312 45.1263 678.236 44.7646 678.236 44.3027V40.8115H677.398V40.3765L678.242 40.0273L678.596 38.749H679.133V40.1133H680.857V40.8115H679.133V44.2759C679.133 44.6447 679.217 44.9204 679.386 45.103C679.558 45.2856 679.785 45.377 680.068 45.377ZM681.588 43.4434V42.6484H684.252V43.4434H681.588ZM689.44 44.3887C689.44 44.7646 689.346 45.0815 689.156 45.3394C688.97 45.5936 688.701 45.7852 688.35 45.9141C688.003 46.043 687.587 46.1074 687.104 46.1074C686.692 46.1074 686.336 46.0752 686.035 46.0107C685.734 45.9463 685.471 45.855 685.246 45.7368V44.915C685.486 45.0332 685.772 45.1406 686.105 45.2373C686.438 45.334 686.778 45.3823 687.125 45.3823C687.634 45.3823 688.003 45.3 688.232 45.1353C688.461 44.9705 688.576 44.7467 688.576 44.4639C688.576 44.3027 688.529 44.1613 688.436 44.0396C688.347 43.9142 688.194 43.7943 687.979 43.6797C687.765 43.5615 687.467 43.4326 687.088 43.293C686.712 43.1497 686.386 43.0083 686.11 42.8687C685.838 42.7254 685.627 42.5518 685.477 42.3477C685.33 42.1436 685.256 41.8786 685.256 41.5527C685.256 41.055 685.457 40.6737 685.858 40.4087C686.263 40.1401 686.792 40.0059 687.448 40.0059C687.802 40.0059 688.133 40.0417 688.441 40.1133C688.753 40.1813 689.043 40.2744 689.312 40.3926L689.011 41.1069C688.767 41.0031 688.508 40.9154 688.232 40.8438C687.956 40.7721 687.675 40.7363 687.389 40.7363C686.977 40.7363 686.66 40.8044 686.438 40.9404C686.22 41.0765 686.11 41.2627 686.11 41.499C686.11 41.6816 686.16 41.832 686.261 41.9502C686.365 42.0684 686.529 42.1794 686.755 42.2832C686.98 42.387 687.278 42.5088 687.646 42.6484C688.015 42.7845 688.334 42.9259 688.603 43.0728C688.871 43.216 689.077 43.3914 689.22 43.5991C689.367 43.8032 689.44 44.0664 689.44 44.3887ZM691.766 40.1133V46H690.875V40.1133H691.766ZM691.331 37.9111C691.478 37.9111 691.603 37.9595 691.707 38.0562C691.814 38.1493 691.868 38.2961 691.868 38.4966C691.868 38.6935 691.814 38.8403 691.707 38.937C691.603 39.0337 691.478 39.082 691.331 39.082C691.177 39.082 691.048 39.0337 690.944 38.937C690.844 38.8403 690.794 38.6935 690.794 38.4966C690.794 38.2961 690.844 38.1493 690.944 38.0562C691.048 37.9595 691.177 37.9111 691.331 37.9111ZM697.438 46H693.146V45.4092L696.375 40.8115H693.351V40.1133H697.368V40.7739L694.183 45.3071H697.438V46ZM701.08 40.0059C701.581 40.0059 702.011 40.1169 702.369 40.3389C702.727 40.5609 703.001 40.8724 703.19 41.2734C703.38 41.6709 703.475 42.1364 703.475 42.6699V43.2231H699.409C699.42 43.9142 699.592 44.4406 699.925 44.8022C700.258 45.1639 700.727 45.3447 701.332 45.3447C701.704 45.3447 702.034 45.3107 702.32 45.2427C702.607 45.1746 702.904 45.0744 703.212 44.9419V45.7261C702.915 45.8586 702.619 45.9552 702.326 46.0161C702.036 46.077 701.692 46.1074 701.294 46.1074C700.729 46.1074 700.235 45.9928 699.812 45.7637C699.393 45.5309 699.067 45.1908 698.834 44.7432C698.602 44.2956 698.485 43.7477 698.485 43.0996C698.485 42.4658 698.591 41.918 698.802 41.4561C699.017 40.9906 699.318 40.6325 699.705 40.3818C700.095 40.1312 700.553 40.0059 701.08 40.0059ZM701.069 40.7363C700.593 40.7363 700.213 40.8921 699.93 41.2036C699.647 41.5151 699.479 41.9502 699.425 42.5088H702.541C702.537 42.1579 702.481 41.8499 702.374 41.585C702.27 41.3164 702.111 41.1087 701.896 40.9619C701.681 40.8115 701.405 40.7363 701.069 40.7363ZM704.49 43.4434V42.6484H707.154V43.4434H704.49ZM709.426 37.6426V39.7319C709.426 39.9718 709.419 40.2046 709.405 40.4302C709.394 40.6558 709.385 40.8312 709.378 40.9565H709.426C709.587 40.6916 709.82 40.4678 710.125 40.2852C710.429 40.1025 710.817 40.0112 711.29 40.0112C712.028 40.0112 712.615 40.2673 713.052 40.7793C713.492 41.2878 713.712 42.0451 713.712 43.0513C713.712 43.7137 713.612 44.2723 713.412 44.7271C713.211 45.1818 712.928 45.5256 712.563 45.7583C712.198 45.991 711.766 46.1074 711.269 46.1074C710.803 46.1074 710.42 46.0215 710.119 45.8496C709.822 45.6742 709.593 45.4611 709.432 45.2104H709.362L709.179 46H708.535V37.6426H709.426ZM711.145 40.7578C710.719 40.7578 710.381 40.842 710.13 41.0103C709.879 41.175 709.698 41.4256 709.587 41.7622C709.48 42.0952 709.426 42.5177 709.426 43.0298V43.0781C709.426 43.8193 709.55 44.3869 709.797 44.7808C710.044 45.1711 710.493 45.3662 711.145 45.3662C711.693 45.3662 712.103 45.1657 712.375 44.7646C712.651 44.3636 712.789 43.7907 712.789 43.0459C712.789 42.2868 712.653 41.7157 712.38 41.3325C712.112 40.9494 711.7 40.7578 711.145 40.7578ZM720.346 43.0459C720.346 43.5293 720.283 43.9608 720.158 44.3403C720.032 44.7199 719.852 45.0404 719.615 45.3018C719.379 45.5632 719.092 45.7637 718.756 45.9033C718.423 46.0394 718.045 46.1074 717.623 46.1074C717.229 46.1074 716.867 46.0394 716.538 45.9033C716.212 45.7637 715.929 45.5632 715.689 45.3018C715.453 45.0404 715.268 44.7199 715.136 44.3403C715.007 43.9608 714.942 43.5293 714.942 43.0459C714.942 42.4014 715.052 41.8535 715.27 41.4023C715.488 40.9476 715.8 40.6021 716.205 40.3657C716.613 40.1258 717.098 40.0059 717.66 40.0059C718.197 40.0059 718.666 40.1258 719.067 40.3657C719.472 40.6056 719.785 40.953 720.007 41.4077C720.233 41.8589 720.346 42.4049 720.346 43.0459ZM715.866 43.0459C715.866 43.5186 715.929 43.9285 716.054 44.2759C716.18 44.6232 716.373 44.8918 716.634 45.0815C716.896 45.2713 717.232 45.3662 717.644 45.3662C718.052 45.3662 718.387 45.2713 718.648 45.0815C718.913 44.8918 719.109 44.6232 719.234 44.2759C719.359 43.9285 719.422 43.5186 719.422 43.0459C719.422 42.5768 719.359 42.1722 719.234 41.832C719.109 41.4883 718.915 41.2233 718.654 41.0371C718.392 40.8509 718.054 40.7578 717.639 40.7578C717.026 40.7578 716.577 40.9601 716.291 41.3647C716.008 41.7694 715.866 42.3298 715.866 43.0459ZM724.562 40.0059C724.68 40.0059 724.804 40.013 724.933 40.0273C725.062 40.0381 725.176 40.0542 725.276 40.0757L725.164 40.9028C725.067 40.8778 724.959 40.8581 724.841 40.8438C724.723 40.8294 724.612 40.8223 724.508 40.8223C724.272 40.8223 724.048 40.8706 723.837 40.9673C723.629 41.0604 723.447 41.1965 723.289 41.3755C723.132 41.5509 723.008 41.764 722.918 42.0146C722.829 42.2617 722.784 42.5374 722.784 42.8418V46H721.887V40.1133H722.628L722.725 41.1982H722.763C722.884 40.9798 723.031 40.7811 723.203 40.6021C723.375 40.4194 723.574 40.2744 723.799 40.167C724.028 40.0596 724.283 40.0059 724.562 40.0059ZM728.483 46.1074C727.738 46.1074 727.147 45.8532 726.71 45.3447C726.277 44.8363 726.061 44.0807 726.061 43.0781C726.061 42.0648 726.283 41.3003 726.727 40.7847C727.171 40.2655 727.761 40.0059 728.499 40.0059C728.811 40.0059 729.083 40.047 729.315 40.1294C729.548 40.2118 729.749 40.3228 729.917 40.4624C730.085 40.5985 730.227 40.7542 730.341 40.9297H730.406C730.391 40.8187 730.377 40.6665 730.363 40.4731C730.348 40.2798 730.341 40.1222 730.341 40.0005V37.6426H731.233V46H730.513L730.379 45.1621H730.341C730.23 45.3376 730.089 45.4969 729.917 45.6401C729.749 45.7834 729.546 45.8979 729.31 45.9839C729.077 46.0662 728.802 46.1074 728.483 46.1074ZM728.623 45.3662C729.253 45.3662 729.699 45.1872 729.96 44.8291C730.221 44.471 730.352 43.9393 730.352 43.2339V43.0728C730.352 42.3244 730.227 41.7497 729.976 41.3486C729.729 40.9476 729.278 40.7471 728.623 40.7471C728.075 40.7471 727.665 40.9583 727.393 41.3809C727.12 41.7998 726.984 42.3727 726.984 43.0996C726.984 43.8229 727.119 44.3815 727.387 44.7754C727.659 45.1693 728.071 45.3662 728.623 45.3662ZM735.39 40.0059C735.891 40.0059 736.321 40.1169 736.679 40.3389C737.037 40.5609 737.311 40.8724 737.501 41.2734C737.691 41.6709 737.786 42.1364 737.786 42.6699V43.2231H733.72C733.73 43.9142 733.902 44.4406 734.235 44.8022C734.568 45.1639 735.037 45.3447 735.643 45.3447C736.015 45.3447 736.344 45.3107 736.631 45.2427C736.917 45.1746 737.215 45.0744 737.522 44.9419V45.7261C737.225 45.8586 736.93 45.9552 736.636 46.0161C736.346 46.077 736.002 46.1074 735.605 46.1074C735.039 46.1074 734.545 45.9928 734.123 45.7637C733.704 45.5309 733.378 45.1908 733.145 44.7432C732.912 44.2956 732.796 43.7477 732.796 43.0996C732.796 42.4658 732.902 41.918 733.113 41.4561C733.328 40.9906 733.628 40.6325 734.015 40.3818C734.405 40.1312 734.864 40.0059 735.39 40.0059ZM735.379 40.7363C734.903 40.7363 734.524 40.8921 734.241 41.2036C733.958 41.5151 733.79 41.9502 733.736 42.5088H736.851C736.847 42.1579 736.792 41.8499 736.685 41.585C736.581 41.3164 736.421 41.1087 736.207 40.9619C735.992 40.8115 735.716 40.7363 735.379 40.7363ZM741.975 40.0059C742.093 40.0059 742.217 40.013 742.346 40.0273C742.475 40.0381 742.589 40.0542 742.689 40.0757L742.577 40.9028C742.48 40.8778 742.373 40.8581 742.254 40.8438C742.136 40.8294 742.025 40.8223 741.921 40.8223C741.685 40.8223 741.461 40.8706 741.25 40.9673C741.042 41.0604 740.86 41.1965 740.702 41.3755C740.545 41.5509 740.421 41.764 740.332 42.0146C740.242 42.2617 740.197 42.5374 740.197 42.8418V46H739.3V40.1133H740.042L740.138 41.1982H740.176C740.298 40.9798 740.444 40.7811 740.616 40.6021C740.788 40.4194 740.987 40.2744 741.212 40.167C741.442 40.0596 741.696 40.0059 741.975 40.0059Z" fill="black"/>
<defs>
<filter id="filter0_d_3310_310613" x="-3" y="94" width="454" height="7" filterUnits="userSpaceOnUse" color-interpolation-filters="sRGB">
<feFlood flood-opacity="0" result="BackgroundImageFix"/>
<feColorMatrix in="SourceAlpha" type="matrix" values="0 0 0 0 0 0 0 0 0 0 0 0 0 0 0 0 0 0 127 0" result="hardAlpha"/>
<feOffset dy="1"/>
<feGaussianBlur stdDeviation="1.5"/>
<feColorMatrix type="matrix" values="0 0 0 0 0 0 0 0 0 0 0 0 0 0 0 0 0 0 0.1 0"/>
<feBlend mode="normal" in2="BackgroundImageFix" result="effect1_dropShadow_3310_310613"/>
<feBlend mode="normal" in="SourceGraphic" in2="effect1_dropShadow_3310_310613" result="shape"/>
</filter>
<clipPath id="clip0_3310_310613">
<rect width="448" height="148" fill="white" transform="translate(0 60)"/>
</clipPath>
<clipPath id="clip1_3310_310613">
<rect width="448" height="148" fill="white" transform="translate(0 60)"/>
</clipPath>
<clipPath id="clip2_3310_310613">
<rect width="465" height="148" fill="white" transform="translate(0 60)"/>
</clipPath>
<clipPath id="clip3_3310_310613">
<rect width="196" height="37" fill="white" transform="translate(269 97)"/>
</clipPath>
<clipPath id="clip4_3310_310613">
<rect width="196" height="37" fill="white" transform="translate(269 134)"/>
</clipPath>
<clipPath id="clip5_3310_310613">
<rect width="196" height="37" fill="white" transform="translate(269 171)"/>
</clipPath>
</defs>
</svg>
