<svg width="776" height="240" viewBox="0 0 776 240" fill="none" xmlns="http://www.w3.org/2000/svg">
<path d="M35.8213 37.0005H33.7207V31.1997H27.7969V37.0005H25.6875V24.1509H27.7969V29.4067H33.7207V24.1509H35.8213V37.0005ZM42.8877 27.0864C43.7549 27.0864 44.499 27.2651 45.1201 27.6226C45.7412 27.98 46.2188 28.4868 46.5527 29.1431C46.8867 29.7993 47.0537 30.5845 47.0537 31.4985V32.606H40.5586C40.582 33.5493 40.834 34.2759 41.3145 34.7856C41.8008 35.2954 42.4805 35.5503 43.3535 35.5503C43.9746 35.5503 44.5312 35.4917 45.0234 35.3745C45.5215 35.2515 46.0342 35.0728 46.5615 34.8384V36.5171C46.0752 36.7456 45.5801 36.9126 45.0762 37.0181C44.5723 37.1235 43.9688 37.1763 43.2656 37.1763C42.3105 37.1763 41.4697 36.9917 40.7432 36.6226C40.0225 36.2476 39.457 35.6909 39.0469 34.9526C38.6426 34.2144 38.4404 33.2974 38.4404 32.2017C38.4404 31.1118 38.625 30.186 38.9941 29.4243C39.3633 28.6626 39.8818 28.0825 40.5498 27.6841C41.2178 27.2856 41.9971 27.0864 42.8877 27.0864ZM42.8877 28.6421C42.2373 28.6421 41.71 28.853 41.3057 29.2749C40.9072 29.6968 40.6729 30.3149 40.6025 31.1294H45.0322C45.0264 30.6431 44.9443 30.2124 44.7861 29.8374C44.6338 29.4624 44.3994 29.1694 44.083 28.9585C43.7725 28.7476 43.374 28.6421 42.8877 28.6421ZM53.1973 27.0864C54.4277 27.0864 55.3564 27.3589 55.9834 27.9038C56.6162 28.4487 56.9326 29.2983 56.9326 30.4526V37.0005H55.4648L55.0693 35.6206H54.999C54.7236 35.9722 54.4395 36.2622 54.1465 36.4907C53.8535 36.7192 53.5137 36.8892 53.127 37.0005C52.7461 37.1177 52.2803 37.1763 51.7295 37.1763C51.1494 37.1763 50.6309 37.0708 50.1738 36.8599C49.7168 36.6431 49.3564 36.3149 49.0928 35.8755C48.8291 35.436 48.6973 34.8794 48.6973 34.2056C48.6973 33.2036 49.0693 32.4507 49.8135 31.9468C50.5635 31.4429 51.6943 31.1646 53.2061 31.1118L54.8936 31.0503V30.5405C54.8936 29.8667 54.7354 29.3862 54.4189 29.0991C54.1084 28.812 53.6689 28.6685 53.1006 28.6685C52.6143 28.6685 52.1426 28.7388 51.6855 28.8794C51.2285 29.02 50.7832 29.1929 50.3496 29.3979L49.6816 27.939C50.1562 27.687 50.6953 27.4819 51.2988 27.3237C51.9082 27.1655 52.541 27.0864 53.1973 27.0864ZM54.8848 32.3511L53.6279 32.395C52.5967 32.4302 51.873 32.606 51.457 32.9224C51.041 33.2388 50.833 33.6724 50.833 34.2231C50.833 34.7036 50.9766 35.0552 51.2637 35.2778C51.5508 35.4946 51.9287 35.603 52.3975 35.603C53.1123 35.603 53.7041 35.4009 54.1729 34.9966C54.6475 34.5864 54.8848 33.9858 54.8848 33.1948V32.3511ZM63.0938 37.1763C61.9336 37.1763 61.002 36.7544 60.2988 35.9106C59.6016 35.061 59.2529 33.8101 59.2529 32.1577C59.2529 30.4878 59.6074 29.2251 60.3164 28.3696C61.0312 27.5142 61.9717 27.0864 63.1377 27.0864C63.6299 27.0864 64.0605 27.1538 64.4297 27.2886C64.7988 27.4175 65.1152 27.5933 65.3789 27.8159C65.6484 28.0386 65.877 28.2876 66.0645 28.563H66.1611C66.1318 28.3813 66.0967 28.1206 66.0557 27.7808C66.0205 27.4351 66.0029 27.1157 66.0029 26.8228V23.3247H68.0771V37.0005H66.46L66.0908 35.6733H66.0029C65.8271 35.9546 65.6045 36.2095 65.335 36.438C65.0713 36.6606 64.7549 36.8394 64.3857 36.9741C64.0225 37.1089 63.5918 37.1763 63.0938 37.1763ZM63.6738 35.4976C64.5586 35.4976 65.1826 35.2427 65.5459 34.7329C65.9092 34.2231 66.0967 33.4585 66.1084 32.439V32.1665C66.1084 31.0767 65.9326 30.2417 65.5811 29.6616C65.2295 29.0757 64.5879 28.7827 63.6562 28.7827C62.9121 28.7827 62.3438 29.0845 61.9512 29.688C61.5645 30.2856 61.3711 31.1206 61.3711 32.1929C61.3711 33.2651 61.5645 34.0854 61.9512 34.6538C62.3438 35.2163 62.918 35.4976 63.6738 35.4976ZM73.1045 27.271V37.0005H71.0391V27.271H73.1045ZM72.085 23.5444C72.4014 23.5444 72.6738 23.6294 72.9023 23.7993C73.1367 23.9692 73.2539 24.2622 73.2539 24.6782C73.2539 25.0884 73.1367 25.3813 72.9023 25.5571C72.6738 25.7271 72.4014 25.812 72.085 25.812C71.7568 25.812 71.4785 25.7271 71.25 25.5571C71.0273 25.3813 70.916 25.0884 70.916 24.6782C70.916 24.2622 71.0273 23.9692 71.25 23.7993C71.4785 23.6294 71.7568 23.5444 72.085 23.5444ZM81.1377 27.0864C82.2334 27.0864 83.0859 27.3706 83.6953 27.939C84.3105 28.5015 84.6182 29.4067 84.6182 30.6548V37.0005H82.5527V31.0415C82.5527 30.2856 82.3975 29.7202 82.0869 29.3452C81.7764 28.9644 81.2959 28.7739 80.6455 28.7739C79.7021 28.7739 79.0459 29.064 78.6768 29.644C78.3135 30.2241 78.1318 31.0649 78.1318 32.1665V37.0005H76.0664V27.271H77.6748L77.9648 28.5894H78.0791C78.29 28.2495 78.5508 27.9712 78.8613 27.7544C79.1777 27.5317 79.5293 27.3647 79.916 27.2534C80.3086 27.1421 80.7158 27.0864 81.1377 27.0864ZM90.2871 41.3247C88.9688 41.3247 87.958 41.0874 87.2549 40.6128C86.5518 40.1382 86.2002 39.4731 86.2002 38.6177C86.2002 38.02 86.3877 37.5132 86.7627 37.0972C87.1377 36.687 87.6738 36.4028 88.3711 36.2446C88.1074 36.1274 87.8789 35.9458 87.6855 35.6997C87.498 35.4478 87.4043 35.1694 87.4043 34.8647C87.4043 34.5015 87.5068 34.1909 87.7119 33.9331C87.917 33.6753 88.2246 33.4263 88.6348 33.186C88.125 32.9692 87.7148 32.6177 87.4043 32.1313C87.0996 31.6392 86.9473 31.062 86.9473 30.3999C86.9473 29.6968 87.0967 29.0991 87.3955 28.6069C87.6943 28.1089 88.1309 27.731 88.7051 27.4731C89.2793 27.2095 89.9736 27.0776 90.7881 27.0776C90.9639 27.0776 91.1543 27.0894 91.3594 27.1128C91.5703 27.1304 91.7637 27.1538 91.9395 27.1831C92.1211 27.2065 92.2588 27.2329 92.3525 27.2622H95.7188V28.4136L94.0664 28.7212C94.2246 28.9438 94.3506 29.1987 94.4443 29.4858C94.5381 29.7671 94.585 30.0747 94.585 30.4087C94.585 31.4165 94.2363 32.2104 93.5391 32.7905C92.8477 33.3647 91.8926 33.6519 90.6738 33.6519C90.3809 33.6401 90.0967 33.6167 89.8213 33.5815C89.6104 33.7104 89.4492 33.854 89.3379 34.0122C89.2266 34.1646 89.1709 34.3374 89.1709 34.5308C89.1709 34.689 89.2266 34.8179 89.3379 34.9175C89.4492 35.0112 89.6133 35.0815 89.8301 35.1284C90.0527 35.1753 90.3223 35.1987 90.6387 35.1987H92.3174C93.3838 35.1987 94.1982 35.4243 94.7607 35.8755C95.3232 36.3267 95.6045 36.9888 95.6045 37.8618C95.6045 38.9692 95.1475 39.8218 94.2334 40.4194C93.3193 41.0229 92.0039 41.3247 90.2871 41.3247ZM90.3662 39.8745C91.0869 39.8745 91.6934 39.8042 92.1855 39.6636C92.6777 39.5229 93.0498 39.3208 93.3018 39.0571C93.5537 38.7993 93.6797 38.4917 93.6797 38.1343C93.6797 37.8179 93.6006 37.5747 93.4424 37.4048C93.2842 37.2349 93.0469 37.1177 92.7305 37.0532C92.4141 36.9888 92.0215 36.9565 91.5527 36.9565H90.0234C89.6426 36.9565 89.3057 37.0151 89.0127 37.1323C88.7197 37.2554 88.4912 37.4312 88.3271 37.6597C88.1689 37.8882 88.0898 38.1636 88.0898 38.4858C88.0898 38.9312 88.2861 39.2739 88.6787 39.5142C89.0771 39.7544 89.6396 39.8745 90.3662 39.8745ZM90.7705 32.2983C91.374 32.2983 91.8223 32.1343 92.1152 31.8062C92.4082 31.4722 92.5547 31.0034 92.5547 30.3999C92.5547 29.7437 92.4023 29.2515 92.0977 28.9233C91.7988 28.5952 91.3535 28.4312 90.7617 28.4312C90.1816 28.4312 89.7393 28.5981 89.4346 28.9321C89.1357 29.2661 88.9863 29.7612 88.9863 30.4175C88.9863 31.0093 89.1357 31.4722 89.4346 31.8062C89.7393 32.1343 90.1846 32.2983 90.7705 32.2983Z" fill="black"/>
<path d="M479 26.0005L477 24.0003C475.785 24.9125 475 26.3648 475 28.0005C475 30.4194 476.718 32.4372 479 32.9005V33.9175C476.162 33.4415 474 30.9735 474 28.0005C474 26.0888 474.894 24.386 476.287 23.2872L475 22.0005L479 22.0005L479 26.0005Z" fill="#161616"/>
<path d="M481 30.0005L483 32.0007C484.215 31.0885 485 29.6362 485 28.0005C485 25.5815 483.282 23.5638 481 23.1005V22.0834C483.838 22.5595 486 25.0275 486 28.0005C486 29.9121 485.106 31.615 483.713 32.7137L485 34.0005H481L481 30.0005Z" fill="#161616"/>
<path d="M493.533 24.4341C494.271 24.4341 494.881 24.5239 495.361 24.7036C495.846 24.8833 496.205 25.1567 496.439 25.5239C496.678 25.8911 496.797 26.3579 496.797 26.9243C496.797 27.3462 496.719 27.7056 496.562 28.0024C496.406 28.2993 496.201 28.5454 495.947 28.7407C495.693 28.936 495.422 29.0923 495.133 29.2095L497.564 33.0005H495.977L493.908 29.5669H492.531V33.0005H491.125V24.4341H493.533ZM493.439 25.606H492.531V28.4067H493.504C494.156 28.4067 494.629 28.2856 494.922 28.0435C495.219 27.8013 495.367 27.4438 495.367 26.9712C495.367 26.4751 495.209 26.1235 494.893 25.9165C494.58 25.7095 494.096 25.606 493.439 25.606ZM504.241 33.0005H499.389V24.4341H504.241V25.6177H500.795V27.9438H504.024V29.1216H500.795V31.811H504.241V33.0005ZM511.637 30.6685C511.637 31.1763 511.512 31.6138 511.262 31.981C511.016 32.3481 510.661 32.6294 510.196 32.8247C509.735 33.02 509.184 33.1177 508.544 33.1177C508.231 33.1177 507.932 33.1001 507.647 33.0649C507.362 33.0298 507.093 32.979 506.839 32.9126C506.589 32.8423 506.36 32.7583 506.153 32.6606V31.3364C506.501 31.4888 506.889 31.6274 507.319 31.7524C507.749 31.8735 508.186 31.9341 508.632 31.9341C508.995 31.9341 509.296 31.8872 509.534 31.7935C509.776 31.6958 509.956 31.5591 510.073 31.3833C510.19 31.2036 510.249 30.9946 510.249 30.7563C510.249 30.5024 510.18 30.2876 510.044 30.1118C509.907 29.936 509.7 29.7759 509.423 29.6313C509.149 29.4829 508.805 29.3247 508.391 29.1567C508.11 29.0435 507.841 28.9146 507.583 28.77C507.329 28.6255 507.102 28.4556 506.903 28.2603C506.704 28.0649 506.546 27.8345 506.429 27.5688C506.315 27.2993 506.259 26.9829 506.259 26.6196C506.259 26.1353 506.374 25.7212 506.604 25.3774C506.839 25.0337 507.167 24.77 507.589 24.5864C508.014 24.4028 508.511 24.311 509.077 24.311C509.526 24.311 509.948 24.3579 510.343 24.4517C510.741 24.5454 511.132 24.6782 511.514 24.8501L511.069 25.981C510.718 25.8364 510.376 25.7212 510.044 25.6353C509.716 25.5493 509.38 25.5063 509.036 25.5063C508.739 25.5063 508.487 25.5513 508.28 25.6411C508.073 25.731 507.915 25.8579 507.805 26.022C507.7 26.1821 507.647 26.3735 507.647 26.5962C507.647 26.8462 507.708 27.0571 507.829 27.229C507.954 27.397 508.145 27.5513 508.403 27.6919C508.665 27.8325 509.001 27.9888 509.411 28.1606C509.884 28.356 510.284 28.561 510.612 28.7759C510.944 28.9907 511.198 29.2485 511.374 29.5493C511.55 29.8462 511.637 30.2192 511.637 30.6685ZM518.741 33.0005H513.89V24.4341H518.741V25.6177H515.296V27.9438H518.525V29.1216H515.296V31.811H518.741V33.0005ZM524.164 33.0005H522.752V25.6294H520.244V24.4341H526.666V25.6294H524.164V33.0005ZM532.295 24.4341H534.844C535.95 24.4341 536.784 24.5942 537.346 24.9146C537.909 25.2349 538.19 25.7876 538.19 26.5728C538.19 26.9009 538.131 27.1978 538.014 27.4634C537.901 27.7251 537.735 27.9419 537.516 28.1138C537.297 28.2817 537.028 28.395 536.707 28.4536V28.5122C537.039 28.5708 537.334 28.6743 537.592 28.8228C537.854 28.9712 538.059 29.1841 538.207 29.4614C538.36 29.7388 538.436 30.0981 538.436 30.5396C538.436 31.063 538.311 31.5083 538.061 31.8755C537.815 32.2427 537.461 32.522 537 32.7134C536.543 32.9048 536 33.0005 535.371 33.0005H532.295V24.4341ZM533.702 27.9673H535.049C535.686 27.9673 536.127 27.8638 536.373 27.6567C536.62 27.4497 536.743 27.147 536.743 26.7485C536.743 26.3423 536.596 26.0493 536.303 25.8696C536.014 25.6899 535.553 25.6001 534.92 25.6001H533.702V27.9673ZM533.702 29.104V31.8228H535.184C535.84 31.8228 536.301 31.6958 536.567 31.4419C536.832 31.188 536.965 30.8442 536.965 30.4106C536.965 30.145 536.905 29.9146 536.784 29.7192C536.666 29.5239 536.473 29.3735 536.204 29.2681C535.934 29.1587 535.571 29.104 535.114 29.104H533.702ZM547.532 24.4341V29.9771C547.532 30.5747 547.405 31.1099 547.151 31.5825C546.901 32.0552 546.522 32.4302 546.014 32.7075C545.507 32.981 544.868 33.1177 544.098 33.1177C543.001 33.1177 542.165 32.8306 541.591 32.2563C541.02 31.6782 540.735 30.9106 540.735 29.9536V24.4341H542.141V29.8306C542.141 30.5454 542.309 31.0728 542.645 31.4126C542.981 31.7524 543.483 31.9224 544.151 31.9224C544.612 31.9224 544.987 31.8423 545.276 31.6821C545.569 31.5181 545.784 31.2798 545.921 30.9673C546.061 30.6509 546.132 30.27 546.132 29.8247V24.4341H547.532ZM553.294 33.0005H551.882V25.6294H549.374V24.4341H555.796V25.6294H553.294V33.0005ZM560.679 33.0005H559.267V25.6294H556.759V24.4341H563.181V25.6294H560.679V33.0005ZM572.699 28.7056C572.699 29.3657 572.615 29.9673 572.447 30.5103C572.283 31.0493 572.035 31.5142 571.703 31.9048C571.371 32.2915 570.955 32.5903 570.455 32.8013C569.955 33.0122 569.369 33.1177 568.697 33.1177C568.014 33.1177 567.42 33.0122 566.916 32.8013C566.416 32.5903 566 32.2896 565.668 31.8989C565.34 31.5083 565.094 31.0415 564.93 30.4985C564.766 29.9556 564.684 29.354 564.684 28.6938C564.684 27.811 564.828 27.0415 565.117 26.3853C565.41 25.7251 565.854 25.2134 566.447 24.8501C567.045 24.4829 567.799 24.2993 568.709 24.2993C569.6 24.2993 570.34 24.481 570.93 24.8442C571.52 25.2075 571.961 25.7192 572.254 26.3794C572.551 27.0356 572.699 27.811 572.699 28.7056ZM566.16 28.7056C566.16 29.3657 566.25 29.938 566.43 30.4224C566.609 30.9028 566.885 31.2739 567.256 31.5356C567.631 31.7935 568.111 31.9224 568.697 31.9224C569.287 31.9224 569.768 31.7935 570.139 31.5356C570.51 31.2739 570.783 30.9028 570.959 30.4224C571.135 29.938 571.223 29.3657 571.223 28.7056C571.223 27.7017 571.021 26.9165 570.619 26.3501C570.221 25.7798 569.584 25.4946 568.709 25.4946C568.123 25.4946 567.641 25.6235 567.262 25.8813C566.887 26.1392 566.609 26.5083 566.43 26.9888C566.25 27.4653 566.16 28.0376 566.16 28.7056ZM582.287 33.0005H580.559L576.364 26.1626H576.311C576.327 26.3931 576.34 26.6372 576.352 26.895C576.368 27.1528 576.379 27.4185 576.387 27.6919C576.399 27.9653 576.409 28.2427 576.416 28.5239V33.0005H575.139V24.4341H576.856L581.045 31.2251H581.086C581.079 31.0259 581.069 30.7974 581.057 30.5396C581.045 30.2817 581.034 30.0161 581.022 29.7427C581.014 29.4653 581.008 29.1978 581.004 28.9399V24.4341H582.287V33.0005Z" fill="#161616"/>
<path d="M26.3096 77.0005H25.0312V69.1479H29.4678V70.2329H26.3096V72.6821H29.2637V73.7617H26.3096V77.0005ZM32.0298 71.0547V77.0005H30.7676V71.0547H32.0298ZM31.4067 68.7773C31.6001 68.7773 31.7666 68.8293 31.9062 68.9331C32.0495 69.0369 32.1211 69.216 32.1211 69.4702C32.1211 69.7209 32.0495 69.8999 31.9062 70.0073C31.7666 70.1112 31.6001 70.1631 31.4067 70.1631C31.2062 70.1631 31.0361 70.1112 30.8965 70.0073C30.7604 69.8999 30.6924 69.7209 30.6924 69.4702C30.6924 69.216 30.7604 69.0369 30.8965 68.9331C31.0361 68.8293 31.2062 68.7773 31.4067 68.7773ZM36.2085 70.9419C36.7384 70.9419 37.1932 71.0511 37.5728 71.2695C37.9523 71.488 38.2441 71.7977 38.4482 72.1987C38.6523 72.5998 38.7544 73.0796 38.7544 73.6382V74.3149H34.7852C34.7995 74.8914 34.9535 75.3354 35.2471 75.647C35.5443 75.9585 35.9596 76.1143 36.4932 76.1143C36.8727 76.1143 37.2129 76.0785 37.5137 76.0068C37.818 75.9316 38.1313 75.8224 38.4536 75.6792V76.7051C38.1564 76.8447 37.8538 76.9468 37.5459 77.0112C37.238 77.0757 36.8691 77.1079 36.4395 77.1079C35.8558 77.1079 35.342 76.9951 34.8979 76.7695C34.4575 76.5404 34.112 76.2002 33.8613 75.749C33.6143 75.2979 33.4907 74.7375 33.4907 74.0679C33.4907 73.4019 33.6035 72.8361 33.8291 72.3706C34.0547 71.9051 34.3716 71.5506 34.7798 71.3071C35.188 71.0636 35.6642 70.9419 36.2085 70.9419ZM36.2085 71.8926C35.811 71.8926 35.4888 72.0215 35.2417 72.2793C34.9982 72.5371 34.855 72.9149 34.812 73.4126H37.519C37.5155 73.1154 37.4653 72.8522 37.3687 72.623C37.2756 72.3939 37.1323 72.2148 36.939 72.0859C36.7492 71.957 36.5057 71.8926 36.2085 71.8926ZM41.4453 77.0005H40.1777V68.6431H41.4453V77.0005ZM45.248 77.1079C44.5391 77.1079 43.9697 76.8501 43.54 76.3345C43.1139 75.8153 42.9009 75.0508 42.9009 74.041C42.9009 73.0205 43.1175 72.2489 43.5508 71.7261C43.9876 71.2033 44.5623 70.9419 45.2749 70.9419C45.5757 70.9419 45.8389 70.9831 46.0645 71.0654C46.29 71.1442 46.4834 71.2516 46.6445 71.3877C46.8092 71.5238 46.9489 71.6759 47.0635 71.8442H47.1226C47.1047 71.7332 47.0832 71.5739 47.0581 71.3662C47.0366 71.1549 47.0259 70.9598 47.0259 70.7808V68.6431H48.2935V77.0005H47.3052L47.0796 76.1895H47.0259C46.9185 76.3613 46.7824 76.5171 46.6177 76.6567C46.4565 76.7928 46.2632 76.902 46.0376 76.9844C45.8156 77.0667 45.5524 77.1079 45.248 77.1079ZM45.6025 76.082C46.1432 76.082 46.5246 75.9263 46.7466 75.6147C46.9686 75.3032 47.0832 74.8359 47.0903 74.2129V74.0464C47.0903 73.3804 46.9829 72.8701 46.7681 72.5156C46.5532 72.1576 46.1611 71.9785 45.5918 71.9785C45.137 71.9785 44.7897 72.1629 44.5498 72.5317C44.3135 72.897 44.1953 73.4072 44.1953 74.0625C44.1953 74.7178 44.3135 75.2191 44.5498 75.5664C44.7897 75.9102 45.1406 76.082 45.6025 76.082ZM54.2285 77.0005H52.9609V68.6431H54.2285V77.0005ZM58.3643 70.9419C59.1162 70.9419 59.6838 71.1084 60.0669 71.4414C60.4536 71.7744 60.647 72.2936 60.647 72.999V77.0005H59.75L59.5083 76.1572H59.4653C59.297 76.3721 59.1234 76.5493 58.9443 76.689C58.7653 76.8286 58.5576 76.9325 58.3213 77.0005C58.0885 77.0721 57.8039 77.1079 57.4673 77.1079C57.1128 77.1079 56.7959 77.0435 56.5166 76.9146C56.2373 76.7821 56.0171 76.5815 55.856 76.313C55.6948 76.0444 55.6143 75.7043 55.6143 75.2925C55.6143 74.6802 55.8416 74.2201 56.2964 73.9121C56.7547 73.6042 57.4458 73.4341 58.3696 73.4019L59.4009 73.3643V73.0527C59.4009 72.641 59.3042 72.3473 59.1108 72.1719C58.9211 71.9964 58.6525 71.9087 58.3052 71.9087C58.008 71.9087 57.7197 71.9517 57.4404 72.0376C57.1611 72.1235 56.889 72.2292 56.624 72.3545L56.2158 71.4629C56.5059 71.3089 56.8353 71.1836 57.2041 71.0869C57.5765 70.9902 57.9632 70.9419 58.3643 70.9419ZM59.3955 74.1592L58.6274 74.186C57.9972 74.2075 57.555 74.3149 57.3008 74.5083C57.0465 74.7017 56.9194 74.9666 56.9194 75.3032C56.9194 75.5968 57.0072 75.8117 57.1826 75.9478C57.3581 76.0802 57.589 76.1465 57.8755 76.1465C58.3123 76.1465 58.674 76.0229 58.9604 75.7759C59.2505 75.5252 59.3955 75.1582 59.3955 74.6748V74.1592ZM63.6763 68.6431V70.6572C63.6763 70.89 63.6691 71.1191 63.6548 71.3447C63.644 71.5667 63.6333 71.7404 63.6226 71.8657H63.6763C63.8374 71.6079 64.0612 71.3913 64.3477 71.2158C64.6377 71.0368 65.0083 70.9473 65.4595 70.9473C66.1649 70.9473 66.7324 71.2069 67.1621 71.7261C67.5918 72.2417 67.8066 73.0062 67.8066 74.0195C67.8066 74.6927 67.7082 75.2585 67.5112 75.7168C67.3143 76.1751 67.0368 76.5225 66.6787 76.7588C66.3242 76.9915 65.9071 77.1079 65.4272 77.1079C64.9761 77.1079 64.6108 77.0256 64.3315 76.8608C64.0558 76.6925 63.8392 76.4974 63.6816 76.2754H63.5903L63.3594 77.0005H62.4141V68.6431H63.6763ZM65.1265 71.9731C64.7684 71.9731 64.4837 72.0448 64.2725 72.188C64.0648 72.3312 63.9144 72.5461 63.8213 72.8325C63.7282 73.1154 63.6799 73.4753 63.6763 73.9121V74.0249C63.6763 74.6873 63.7801 75.194 63.9878 75.5449C64.1991 75.8958 64.5822 76.0713 65.1372 76.0713C65.5776 76.0713 65.916 75.894 66.1523 75.5396C66.3887 75.1815 66.5068 74.6694 66.5068 74.0034C66.5068 73.3302 66.3887 72.8236 66.1523 72.4834C65.9196 72.1432 65.5776 71.9731 65.1265 71.9731ZM71.6362 70.9419C72.1662 70.9419 72.6209 71.0511 73.0005 71.2695C73.38 71.488 73.6719 71.7977 73.876 72.1987C74.0801 72.5998 74.1821 73.0796 74.1821 73.6382V74.3149H70.2129C70.2272 74.8914 70.3812 75.3354 70.6748 75.647C70.972 75.9585 71.3874 76.1143 71.9209 76.1143C72.3005 76.1143 72.6406 76.0785 72.9414 76.0068C73.2458 75.9316 73.5591 75.8224 73.8813 75.6792V76.7051C73.5841 76.8447 73.2816 76.9468 72.9736 77.0112C72.6657 77.0757 72.2969 77.1079 71.8672 77.1079C71.2835 77.1079 70.7697 76.9951 70.3257 76.7695C69.8853 76.5404 69.5397 76.2002 69.2891 75.749C69.042 75.2979 68.9185 74.7375 68.9185 74.0679C68.9185 73.4019 69.0312 72.8361 69.2568 72.3706C69.4824 71.9051 69.7993 71.5506 70.2075 71.3071C70.6157 71.0636 71.092 70.9419 71.6362 70.9419ZM71.6362 71.8926C71.2388 71.8926 70.9165 72.0215 70.6694 72.2793C70.4259 72.5371 70.2827 72.9149 70.2397 73.4126H72.9468C72.9432 73.1154 72.8931 72.8522 72.7964 72.623C72.7033 72.3939 72.5601 72.2148 72.3667 72.0859C72.1769 71.957 71.9334 71.8926 71.6362 71.8926ZM76.873 77.0005H75.6055V68.6431H76.873V77.0005Z" fill="#61656E"/>
<mask id="path-5-inside-1_3310_309918" fill="white">
<path d="M24 86.0005H296V114H24V86.0005Z"/>
</mask>
<path d="M24 86.0005H296V114H24V86.0005Z" fill="#EAEDEF"/>
<path d="M34.4375 105L32 98.5786H33.043L34.4551 102.463C34.5527 102.729 34.6523 103.022 34.7539 103.342C34.8555 103.663 34.9258 103.92 34.9648 104.116H35.0059C35.0527 103.92 35.1309 103.663 35.2402 103.342C35.3496 103.018 35.4492 102.725 35.5391 102.463L36.9512 98.5786H37.9941L35.5508 105H34.4375ZM41.4277 98.4731C42.1934 98.4731 42.7617 98.645 43.1328 98.9888C43.5039 99.3325 43.6895 99.8813 43.6895 100.635V105H42.9805L42.793 104.051H42.7461C42.5664 104.286 42.3789 104.483 42.1836 104.643C41.9883 104.799 41.7617 104.918 41.5039 105C41.25 105.079 40.9375 105.118 40.5664 105.118C40.1758 105.118 39.8281 105.049 39.5234 104.913C39.2227 104.776 38.9844 104.569 38.8086 104.292C38.6367 104.014 38.5508 103.663 38.5508 103.237C38.5508 102.596 38.8047 102.104 39.3125 101.76C39.8203 101.417 40.5938 101.229 41.6328 101.198L42.7402 101.151V100.758C42.7402 100.204 42.6211 99.8149 42.3828 99.5923C42.1445 99.3696 41.8086 99.2583 41.375 99.2583C41.0391 99.2583 40.7188 99.3071 40.4141 99.4048C40.1094 99.5024 39.8203 99.6177 39.5469 99.7505L39.248 99.0122C39.5371 98.8638 39.8691 98.7368 40.2441 98.6313C40.6191 98.5259 41.0137 98.4731 41.4277 98.4731ZM42.7285 101.836L41.75 101.877C40.9492 101.909 40.3848 102.04 40.0566 102.27C39.7285 102.5 39.5645 102.827 39.5645 103.249C39.5645 103.616 39.6758 103.887 39.8984 104.063C40.1211 104.239 40.416 104.327 40.7832 104.327C41.3535 104.327 41.8203 104.168 42.1836 103.852C42.5469 103.536 42.7285 103.061 42.7285 102.428V101.836ZM46.6719 105H45.6934V95.8833H46.6719V105ZM54.0312 98.5786V105H53.2344L53.0938 104.098H53.041C52.9082 104.321 52.7363 104.508 52.5254 104.661C52.3145 104.813 52.0762 104.926 51.8105 105C51.5488 105.079 51.2695 105.118 50.9727 105.118C50.4648 105.118 50.0391 105.036 49.6953 104.872C49.3516 104.708 49.0918 104.454 48.916 104.11C48.7441 103.766 48.6582 103.325 48.6582 102.786V98.5786H49.6426V102.715C49.6426 103.25 49.7637 103.651 50.0059 103.917C50.248 104.178 50.6172 104.309 51.1133 104.309C51.5898 104.309 51.9688 104.219 52.25 104.04C52.5352 103.86 52.7402 103.596 52.8652 103.249C52.9902 102.897 53.0527 102.467 53.0527 101.959V98.5786H54.0312ZM58.5605 98.4614C59.1074 98.4614 59.5762 98.5825 59.9668 98.8247C60.3574 99.0669 60.6562 99.4067 60.8633 99.8442C61.0703 100.278 61.1738 100.786 61.1738 101.368V101.971H56.7383C56.75 102.725 56.9375 103.299 57.3008 103.694C57.6641 104.088 58.1758 104.286 58.8359 104.286C59.2422 104.286 59.6016 104.249 59.9141 104.174C60.2266 104.1 60.5508 103.991 60.8867 103.846V104.702C60.5625 104.846 60.2402 104.952 59.9199 105.018C59.6035 105.084 59.2285 105.118 58.7949 105.118C58.1777 105.118 57.6387 104.993 57.1777 104.743C56.7207 104.489 56.3652 104.118 56.1113 103.629C55.8574 103.141 55.7305 102.543 55.7305 101.836C55.7305 101.145 55.8457 100.547 56.0762 100.043C56.3105 99.5356 56.6387 99.145 57.0605 98.8716C57.4863 98.5981 57.9863 98.4614 58.5605 98.4614ZM58.5488 99.2583C58.0293 99.2583 57.6152 99.4282 57.3066 99.7681C56.998 100.108 56.8145 100.583 56.7559 101.192H60.1543C60.1504 100.809 60.0898 100.473 59.9727 100.184C59.8594 99.8911 59.6855 99.6646 59.4512 99.5044C59.2168 99.3403 58.916 99.2583 58.5488 99.2583ZM68.0176 104.321C68.1777 104.321 68.3418 104.307 68.5098 104.28C68.6777 104.252 68.8145 104.219 68.9199 104.18V104.936C68.8066 104.987 68.6484 105.03 68.4453 105.065C68.2461 105.1 68.0508 105.118 67.8594 105.118C67.5195 105.118 67.2109 105.059 66.9336 104.942C66.6562 104.821 66.4336 104.618 66.2656 104.333C66.1016 104.047 66.0195 103.653 66.0195 103.149V99.3403H65.1055V98.8657L66.0254 98.4849L66.4121 97.0903H66.998V98.5786H68.8789V99.3403H66.998V103.12C66.998 103.522 67.0898 103.823 67.2734 104.022C67.4609 104.221 67.709 104.321 68.0176 104.321ZM72.6934 98.4614C73.2402 98.4614 73.709 98.5825 74.0996 98.8247C74.4902 99.0669 74.7891 99.4067 74.9961 99.8442C75.2031 100.278 75.3066 100.786 75.3066 101.368V101.971H70.8711C70.8828 102.725 71.0703 103.299 71.4336 103.694C71.7969 104.088 72.3086 104.286 72.9688 104.286C73.375 104.286 73.7344 104.249 74.0469 104.174C74.3594 104.1 74.6836 103.991 75.0195 103.846V104.702C74.6953 104.846 74.373 104.952 74.0527 105.018C73.7363 105.084 73.3613 105.118 72.9277 105.118C72.3105 105.118 71.7715 104.993 71.3105 104.743C70.8535 104.489 70.498 104.118 70.2441 103.629C69.9902 103.141 69.8633 102.543 69.8633 101.836C69.8633 101.145 69.9785 100.547 70.209 100.043C70.4434 99.5356 70.7715 99.145 71.1934 98.8716C71.6191 98.5981 72.1191 98.4614 72.6934 98.4614ZM72.6816 99.2583C72.1621 99.2583 71.748 99.4282 71.4395 99.7681C71.1309 100.108 70.9473 100.583 70.8887 101.192H74.2871C74.2832 100.809 74.2227 100.473 74.1055 100.184C73.9922 99.8911 73.8184 99.6646 73.584 99.5044C73.3496 99.3403 73.0488 99.2583 72.6816 99.2583ZM78.4883 101.713L76.2676 98.5786H77.3809L79.0742 101.051L80.7617 98.5786H81.8633L79.6426 101.713L81.9863 105H80.873L79.0742 102.381L77.2637 105H76.1621L78.4883 101.713ZM85.3145 104.321C85.4746 104.321 85.6387 104.307 85.8066 104.28C85.9746 104.252 86.1113 104.219 86.2168 104.18V104.936C86.1035 104.987 85.9453 105.03 85.7422 105.065C85.543 105.1 85.3477 105.118 85.1562 105.118C84.8164 105.118 84.5078 105.059 84.2305 104.942C83.9531 104.821 83.7305 104.618 83.5625 104.333C83.3984 104.047 83.3164 103.653 83.3164 103.149V99.3403H82.4023V98.8657L83.3223 98.4849L83.709 97.0903H84.2949V98.5786H86.1758V99.3403H84.2949V103.12C84.2949 103.522 84.3867 103.823 84.5703 104.022C84.7578 104.221 85.0059 104.321 85.3145 104.321Z" fill="#61656E"/>
<path fill-rule="evenodd" clip-rule="evenodd" d="M282 101.308L286.401 96.5005L287.5 97.4926L282 103.5L276.5 97.4926L277.599 96.5005L282 101.308Z" fill="#161616"/>
<path d="M296 113H24V115H296V113Z" fill="#61656E" mask="url(#path-5-inside-1_3310_309918)"/>
<path d="M322.31 77.0005H321.031V69.1479H325.468V70.2329H322.31V72.6821H325.264V73.7617H322.31V77.0005ZM328.03 71.0547V77.0005H326.768V71.0547H328.03ZM327.407 68.7773C327.6 68.7773 327.767 68.8293 327.906 68.9331C328.049 69.0369 328.121 69.216 328.121 69.4702C328.121 69.7209 328.049 69.8999 327.906 70.0073C327.767 70.1112 327.6 70.1631 327.407 70.1631C327.206 70.1631 327.036 70.1112 326.896 70.0073C326.76 69.8999 326.692 69.7209 326.692 69.4702C326.692 69.216 326.76 69.0369 326.896 68.9331C327.036 68.8293 327.206 68.7773 327.407 68.7773ZM332.208 70.9419C332.738 70.9419 333.193 71.0511 333.573 71.2695C333.952 71.488 334.244 71.7977 334.448 72.1987C334.652 72.5998 334.754 73.0796 334.754 73.6382V74.3149H330.785C330.799 74.8914 330.953 75.3354 331.247 75.647C331.544 75.9585 331.96 76.1143 332.493 76.1143C332.873 76.1143 333.213 76.0785 333.514 76.0068C333.818 75.9316 334.131 75.8224 334.454 75.6792V76.7051C334.156 76.8447 333.854 76.9468 333.546 77.0112C333.238 77.0757 332.869 77.1079 332.439 77.1079C331.856 77.1079 331.342 76.9951 330.898 76.7695C330.458 76.5404 330.112 76.2002 329.861 75.749C329.614 75.2979 329.491 74.7375 329.491 74.0679C329.491 73.4019 329.604 72.8361 329.829 72.3706C330.055 71.9051 330.372 71.5506 330.78 71.3071C331.188 71.0636 331.664 70.9419 332.208 70.9419ZM332.208 71.8926C331.811 71.8926 331.489 72.0215 331.242 72.2793C330.998 72.5371 330.855 72.9149 330.812 73.4126H333.519C333.515 73.1154 333.465 72.8522 333.369 72.623C333.276 72.3939 333.132 72.2148 332.939 72.0859C332.749 71.957 332.506 71.8926 332.208 71.8926ZM337.445 77.0005H336.178V68.6431H337.445V77.0005ZM341.248 77.1079C340.539 77.1079 339.97 76.8501 339.54 76.3345C339.114 75.8153 338.901 75.0508 338.901 74.041C338.901 73.0205 339.118 72.2489 339.551 71.7261C339.988 71.2033 340.562 70.9419 341.275 70.9419C341.576 70.9419 341.839 70.9831 342.064 71.0654C342.29 71.1442 342.483 71.2516 342.645 71.3877C342.809 71.5238 342.949 71.6759 343.063 71.8442H343.123C343.105 71.7332 343.083 71.5739 343.058 71.3662C343.037 71.1549 343.026 70.9598 343.026 70.7808V68.6431H344.293V77.0005H343.305L343.08 76.1895H343.026C342.918 76.3613 342.782 76.5171 342.618 76.6567C342.457 76.7928 342.263 76.902 342.038 76.9844C341.816 77.0667 341.552 77.1079 341.248 77.1079ZM341.603 76.082C342.143 76.082 342.525 75.9263 342.747 75.6147C342.969 75.3032 343.083 74.8359 343.09 74.2129V74.0464C343.09 73.3804 342.983 72.8701 342.768 72.5156C342.553 72.1576 342.161 71.9785 341.592 71.9785C341.137 71.9785 340.79 72.1629 340.55 72.5317C340.313 72.897 340.195 73.4072 340.195 74.0625C340.195 74.7178 340.313 75.2191 340.55 75.5664C340.79 75.9102 341.141 76.082 341.603 76.082ZM350.229 77.0005H348.961V68.6431H350.229V77.0005ZM354.364 70.9419C355.116 70.9419 355.684 71.1084 356.067 71.4414C356.454 71.7744 356.647 72.2936 356.647 72.999V77.0005H355.75L355.508 76.1572H355.465C355.297 76.3721 355.123 76.5493 354.944 76.689C354.765 76.8286 354.558 76.9325 354.321 77.0005C354.089 77.0721 353.804 77.1079 353.467 77.1079C353.113 77.1079 352.796 77.0435 352.517 76.9146C352.237 76.7821 352.017 76.5815 351.856 76.313C351.695 76.0444 351.614 75.7043 351.614 75.2925C351.614 74.6802 351.842 74.2201 352.296 73.9121C352.755 73.6042 353.446 73.4341 354.37 73.4019L355.401 73.3643V73.0527C355.401 72.641 355.304 72.3473 355.111 72.1719C354.921 71.9964 354.653 71.9087 354.305 71.9087C354.008 71.9087 353.72 71.9517 353.44 72.0376C353.161 72.1235 352.889 72.2292 352.624 72.3545L352.216 71.4629C352.506 71.3089 352.835 71.1836 353.204 71.0869C353.576 70.9902 353.963 70.9419 354.364 70.9419ZM355.396 74.1592L354.627 74.186C353.997 74.2075 353.555 74.3149 353.301 74.5083C353.047 74.7017 352.919 74.9666 352.919 75.3032C352.919 75.5968 353.007 75.8117 353.183 75.9478C353.358 76.0802 353.589 76.1465 353.875 76.1465C354.312 76.1465 354.674 76.0229 354.96 75.7759C355.25 75.5252 355.396 75.1582 355.396 74.6748V74.1592ZM359.676 68.6431V70.6572C359.676 70.89 359.669 71.1191 359.655 71.3447C359.644 71.5667 359.633 71.7404 359.623 71.8657H359.676C359.837 71.6079 360.061 71.3913 360.348 71.2158C360.638 71.0368 361.008 70.9473 361.459 70.9473C362.165 70.9473 362.732 71.2069 363.162 71.7261C363.592 72.2417 363.807 73.0062 363.807 74.0195C363.807 74.6927 363.708 75.2585 363.511 75.7168C363.314 76.1751 363.037 76.5225 362.679 76.7588C362.324 76.9915 361.907 77.1079 361.427 77.1079C360.976 77.1079 360.611 77.0256 360.332 76.8608C360.056 76.6925 359.839 76.4974 359.682 76.2754H359.59L359.359 77.0005H358.414V68.6431H359.676ZM361.126 71.9731C360.768 71.9731 360.484 72.0448 360.272 72.188C360.065 72.3312 359.914 72.5461 359.821 72.8325C359.728 73.1154 359.68 73.4753 359.676 73.9121V74.0249C359.676 74.6873 359.78 75.194 359.988 75.5449C360.199 75.8958 360.582 76.0713 361.137 76.0713C361.578 76.0713 361.916 75.894 362.152 75.5396C362.389 75.1815 362.507 74.6694 362.507 74.0034C362.507 73.3302 362.389 72.8236 362.152 72.4834C361.92 72.1432 361.578 71.9731 361.126 71.9731ZM367.636 70.9419C368.166 70.9419 368.621 71.0511 369 71.2695C369.38 71.488 369.672 71.7977 369.876 72.1987C370.08 72.5998 370.182 73.0796 370.182 73.6382V74.3149H366.213C366.227 74.8914 366.381 75.3354 366.675 75.647C366.972 75.9585 367.387 76.1143 367.921 76.1143C368.3 76.1143 368.641 76.0785 368.941 76.0068C369.246 75.9316 369.559 75.8224 369.881 75.6792V76.7051C369.584 76.8447 369.282 76.9468 368.974 77.0112C368.666 77.0757 368.297 77.1079 367.867 77.1079C367.284 77.1079 366.77 76.9951 366.326 76.7695C365.885 76.5404 365.54 76.2002 365.289 75.749C365.042 75.2979 364.918 74.7375 364.918 74.0679C364.918 73.4019 365.031 72.8361 365.257 72.3706C365.482 71.9051 365.799 71.5506 366.208 71.3071C366.616 71.0636 367.092 70.9419 367.636 70.9419ZM367.636 71.8926C367.239 71.8926 366.917 72.0215 366.669 72.2793C366.426 72.5371 366.283 72.9149 366.24 73.4126H368.947C368.943 73.1154 368.893 72.8522 368.796 72.623C368.703 72.3939 368.56 72.2148 368.367 72.0859C368.177 71.957 367.933 71.8926 367.636 71.8926ZM372.873 77.0005H371.605V68.6431H372.873V77.0005Z" fill="#61656E"/>
<mask id="path-10-inside-2_3310_309918" fill="white">
<path d="M320 86.0005H592V114H320V86.0005Z"/>
</mask>
<path d="M320 86.0005H592V114H320V86.0005Z" fill="#EAEDEF"/>
<path d="M332.213 105H331.264V98.9302C331.264 98.6997 331.264 98.5024 331.264 98.3384C331.268 98.1704 331.271 98.0181 331.275 97.8813C331.283 97.7407 331.293 97.5981 331.305 97.4536C331.184 97.5786 331.07 97.686 330.965 97.7759C330.859 97.8618 330.729 97.9692 330.572 98.0981L329.594 98.8833L329.084 98.2212L331.404 96.4341H332.213V105ZM341.072 105H335.459V104.186L337.75 101.86C338.176 101.43 338.533 101.047 338.822 100.711C339.115 100.375 339.338 100.045 339.49 99.7212C339.643 99.3931 339.719 99.0337 339.719 98.6431C339.719 98.1587 339.574 97.7896 339.285 97.5356C339 97.2778 338.623 97.1489 338.154 97.1489C337.744 97.1489 337.381 97.2192 337.064 97.3599C336.748 97.5005 336.424 97.6997 336.092 97.9575L335.57 97.3013C335.797 97.1099 336.043 96.9399 336.309 96.7915C336.578 96.6431 336.865 96.5259 337.17 96.4399C337.479 96.354 337.807 96.311 338.154 96.311C338.682 96.311 339.137 96.4028 339.52 96.5864C339.902 96.77 340.197 97.0317 340.404 97.3716C340.615 97.7114 340.721 98.1157 340.721 98.5845C340.721 99.0376 340.631 99.4595 340.451 99.8501C340.271 100.237 340.02 100.622 339.695 101.004C339.371 101.383 338.992 101.786 338.559 102.211L336.695 104.069V104.11H341.072V105ZM349.791 105L346.914 97.4185H346.867C346.883 97.5786 346.896 97.7739 346.908 98.0044C346.92 98.2349 346.93 98.4868 346.938 98.7603C346.945 99.0298 346.949 99.3052 346.949 99.5864V105H346.023V96.4341H347.5L350.213 103.559H350.254L353.008 96.4341H354.473V105H353.488V99.5161C353.488 99.2622 353.492 99.0083 353.5 98.7544C353.508 98.4966 353.518 98.2544 353.529 98.0278C353.541 97.7974 353.553 97.5981 353.564 97.4302H353.518L350.605 105H349.791ZM362.207 101.778C362.207 102.305 362.139 102.776 362.002 103.19C361.865 103.604 361.668 103.954 361.41 104.239C361.152 104.524 360.84 104.743 360.473 104.895C360.109 105.043 359.697 105.118 359.236 105.118C358.807 105.118 358.412 105.043 358.053 104.895C357.697 104.743 357.389 104.524 357.127 104.239C356.869 103.954 356.668 103.604 356.523 103.19C356.383 102.776 356.312 102.305 356.312 101.778C356.312 101.075 356.432 100.477 356.67 99.9849C356.908 99.4888 357.248 99.1118 357.689 98.854C358.135 98.5923 358.664 98.4614 359.277 98.4614C359.863 98.4614 360.375 98.5923 360.812 98.854C361.254 99.1157 361.596 99.4946 361.838 99.9907C362.084 100.483 362.207 101.079 362.207 101.778ZM357.32 101.778C357.32 102.293 357.389 102.741 357.525 103.12C357.662 103.499 357.873 103.792 358.158 103.999C358.443 104.206 358.811 104.309 359.26 104.309C359.705 104.309 360.07 104.206 360.355 103.999C360.645 103.792 360.857 103.499 360.994 103.12C361.131 102.741 361.199 102.293 361.199 101.778C361.199 101.266 361.131 100.825 360.994 100.454C360.857 100.079 360.646 99.7896 360.361 99.5864C360.076 99.3833 359.707 99.2817 359.254 99.2817C358.586 99.2817 358.096 99.5024 357.783 99.9438C357.475 100.385 357.32 100.997 357.32 101.778ZM366.93 98.4614C367.691 98.4614 368.268 98.6489 368.658 99.0239C369.049 99.395 369.244 99.9927 369.244 100.817V105H368.283V100.881C368.283 100.346 368.16 99.9458 367.914 99.6802C367.672 99.4146 367.299 99.2817 366.795 99.2817C366.084 99.2817 365.584 99.4829 365.295 99.8853C365.006 100.288 364.861 100.872 364.861 101.637V105H363.889V98.5786H364.674L364.82 99.5044H364.873C365.01 99.2778 365.184 99.0884 365.395 98.936C365.605 98.7798 365.842 98.6626 366.104 98.5845C366.365 98.5024 366.641 98.4614 366.93 98.4614ZM373.322 104.321C373.482 104.321 373.646 104.307 373.814 104.28C373.982 104.252 374.119 104.219 374.225 104.18V104.936C374.111 104.987 373.953 105.03 373.75 105.065C373.551 105.1 373.355 105.118 373.164 105.118C372.824 105.118 372.516 105.059 372.238 104.942C371.961 104.821 371.738 104.618 371.57 104.333C371.406 104.047 371.324 103.653 371.324 103.149V99.3403H370.41V98.8657L371.33 98.4849L371.717 97.0903H372.303V98.5786H374.184V99.3403H372.303V103.12C372.303 103.522 372.395 103.823 372.578 104.022C372.766 104.221 373.014 104.321 373.322 104.321ZM376.498 95.8833V98.6079C376.498 98.7642 376.494 98.9224 376.486 99.0825C376.479 99.2388 376.465 99.3833 376.445 99.5161H376.51C376.643 99.2896 376.811 99.1001 377.014 98.9478C377.221 98.7915 377.455 98.6743 377.717 98.5962C377.979 98.5142 378.256 98.4731 378.549 98.4731C379.064 98.4731 379.494 98.5552 379.838 98.7192C380.186 98.8833 380.445 99.1372 380.617 99.481C380.793 99.8247 380.881 100.27 380.881 100.817V105H379.92V100.881C379.92 100.346 379.797 99.9458 379.551 99.6802C379.309 99.4146 378.936 99.2817 378.432 99.2817C377.955 99.2817 377.574 99.3735 377.289 99.5571C377.008 99.7368 376.805 100.002 376.68 100.354C376.559 100.706 376.498 101.135 376.498 101.643V105H375.525V95.8833H376.498ZM387.039 103.243C387.039 103.653 386.936 103.999 386.729 104.28C386.525 104.557 386.232 104.766 385.85 104.907C385.471 105.047 385.018 105.118 384.49 105.118C384.041 105.118 383.652 105.083 383.324 105.012C382.996 104.942 382.709 104.842 382.463 104.713V103.817C382.725 103.946 383.037 104.063 383.4 104.168C383.764 104.274 384.135 104.327 384.514 104.327C385.068 104.327 385.471 104.237 385.721 104.057C385.971 103.877 386.096 103.633 386.096 103.325C386.096 103.149 386.045 102.995 385.943 102.862C385.846 102.725 385.68 102.594 385.445 102.469C385.211 102.34 384.887 102.2 384.473 102.047C384.062 101.891 383.707 101.737 383.406 101.584C383.109 101.428 382.879 101.239 382.715 101.016C382.555 100.793 382.475 100.504 382.475 100.149C382.475 99.606 382.693 99.1899 383.131 98.9009C383.572 98.6079 384.15 98.4614 384.865 98.4614C385.252 98.4614 385.613 98.5005 385.949 98.5786C386.289 98.6528 386.605 98.7544 386.898 98.8833L386.57 99.6626C386.305 99.5493 386.021 99.4536 385.721 99.3755C385.42 99.2974 385.113 99.2583 384.801 99.2583C384.352 99.2583 384.006 99.3325 383.764 99.481C383.525 99.6294 383.406 99.8325 383.406 100.09C383.406 100.29 383.461 100.454 383.57 100.583C383.684 100.711 383.863 100.833 384.109 100.946C384.355 101.059 384.68 101.192 385.082 101.344C385.484 101.493 385.832 101.647 386.125 101.807C386.418 101.963 386.643 102.155 386.799 102.381C386.959 102.604 387.039 102.891 387.039 103.243Z" fill="#161616"/>
<path d="M576 94.0005V95.0005H580V94.0005H581V95.0005H584V106H572V95.0005H575V94.0005H576ZM583 98.0005H573V105H583V98.0005ZM581 96.0005H580V97.0005H581V96.0005ZM576 96.0005H575V97.0005H576V96.0005Z" fill="#4C505B"/>
<path d="M592 113H320V115H592V113Z" fill="#61656E" mask="url(#path-10-inside-2_3310_309918)"/>
<path d="M26.3096 149H25.0312V141.148H29.4678V142.233H26.3096V144.682H29.2637V145.762H26.3096V149ZM32.0298 143.055V149H30.7676V143.055H32.0298ZM31.4067 140.777C31.6001 140.777 31.7666 140.829 31.9062 140.933C32.0495 141.037 32.1211 141.216 32.1211 141.47C32.1211 141.721 32.0495 141.9 31.9062 142.007C31.7666 142.111 31.6001 142.163 31.4067 142.163C31.2062 142.163 31.0361 142.111 30.8965 142.007C30.7604 141.9 30.6924 141.721 30.6924 141.47C30.6924 141.216 30.7604 141.037 30.8965 140.933C31.0361 140.829 31.2062 140.777 31.4067 140.777ZM36.2085 142.942C36.7384 142.942 37.1932 143.051 37.5728 143.27C37.9523 143.488 38.2441 143.798 38.4482 144.199C38.6523 144.6 38.7544 145.08 38.7544 145.638V146.315H34.7852C34.7995 146.891 34.9535 147.335 35.2471 147.647C35.5443 147.958 35.9596 148.114 36.4932 148.114C36.8727 148.114 37.2129 148.078 37.5137 148.007C37.818 147.932 38.1313 147.822 38.4536 147.679V148.705C38.1564 148.845 37.8538 148.947 37.5459 149.011C37.238 149.076 36.8691 149.108 36.4395 149.108C35.8558 149.108 35.342 148.995 34.8979 148.77C34.4575 148.54 34.112 148.2 33.8613 147.749C33.6143 147.298 33.4907 146.737 33.4907 146.068C33.4907 145.402 33.6035 144.836 33.8291 144.371C34.0547 143.905 34.3716 143.551 34.7798 143.307C35.188 143.064 35.6642 142.942 36.2085 142.942ZM36.2085 143.893C35.811 143.893 35.4888 144.021 35.2417 144.279C34.9982 144.537 34.855 144.915 34.812 145.413H37.519C37.5155 145.115 37.4653 144.852 37.3687 144.623C37.2756 144.394 37.1323 144.215 36.939 144.086C36.7492 143.957 36.5057 143.893 36.2085 143.893ZM41.4453 149H40.1777V140.643H41.4453V149ZM45.248 149.108C44.5391 149.108 43.9697 148.85 43.54 148.334C43.1139 147.815 42.9009 147.051 42.9009 146.041C42.9009 145.021 43.1175 144.249 43.5508 143.726C43.9876 143.203 44.5623 142.942 45.2749 142.942C45.5757 142.942 45.8389 142.983 46.0645 143.065C46.29 143.144 46.4834 143.252 46.6445 143.388C46.8092 143.524 46.9489 143.676 47.0635 143.844H47.1226C47.1047 143.733 47.0832 143.574 47.0581 143.366C47.0366 143.155 47.0259 142.96 47.0259 142.781V140.643H48.2935V149H47.3052L47.0796 148.189H47.0259C46.9185 148.361 46.7824 148.517 46.6177 148.657C46.4565 148.793 46.2632 148.902 46.0376 148.984C45.8156 149.067 45.5524 149.108 45.248 149.108ZM45.6025 148.082C46.1432 148.082 46.5246 147.926 46.7466 147.615C46.9686 147.303 47.0832 146.836 47.0903 146.213V146.046C47.0903 145.38 46.9829 144.87 46.7681 144.516C46.5532 144.158 46.1611 143.979 45.5918 143.979C45.137 143.979 44.7897 144.163 44.5498 144.532C44.3135 144.897 44.1953 145.407 44.1953 146.062C44.1953 146.718 44.3135 147.219 44.5498 147.566C44.7897 147.91 45.1406 148.082 45.6025 148.082ZM54.2285 149H52.9609V140.643H54.2285V149ZM58.3643 142.942C59.1162 142.942 59.6838 143.108 60.0669 143.441C60.4536 143.774 60.647 144.294 60.647 144.999V149H59.75L59.5083 148.157H59.4653C59.297 148.372 59.1234 148.549 58.9443 148.689C58.7653 148.829 58.5576 148.932 58.3213 149C58.0885 149.072 57.8039 149.108 57.4673 149.108C57.1128 149.108 56.7959 149.043 56.5166 148.915C56.2373 148.782 56.0171 148.582 55.856 148.313C55.6948 148.044 55.6143 147.704 55.6143 147.292C55.6143 146.68 55.8416 146.22 56.2964 145.912C56.7547 145.604 57.4458 145.434 58.3696 145.402L59.4009 145.364V145.053C59.4009 144.641 59.3042 144.347 59.1108 144.172C58.9211 143.996 58.6525 143.909 58.3052 143.909C58.008 143.909 57.7197 143.952 57.4404 144.038C57.1611 144.124 56.889 144.229 56.624 144.354L56.2158 143.463C56.5059 143.309 56.8353 143.184 57.2041 143.087C57.5765 142.99 57.9632 142.942 58.3643 142.942ZM59.3955 146.159L58.6274 146.186C57.9972 146.208 57.555 146.315 57.3008 146.508C57.0465 146.702 56.9194 146.967 56.9194 147.303C56.9194 147.597 57.0072 147.812 57.1826 147.948C57.3581 148.08 57.589 148.146 57.8755 148.146C58.3123 148.146 58.674 148.023 58.9604 147.776C59.2505 147.525 59.3955 147.158 59.3955 146.675V146.159ZM63.6763 140.643V142.657C63.6763 142.89 63.6691 143.119 63.6548 143.345C63.644 143.567 63.6333 143.74 63.6226 143.866H63.6763C63.8374 143.608 64.0612 143.391 64.3477 143.216C64.6377 143.037 65.0083 142.947 65.4595 142.947C66.1649 142.947 66.7324 143.207 67.1621 143.726C67.5918 144.242 67.8066 145.006 67.8066 146.02C67.8066 146.693 67.7082 147.258 67.5112 147.717C67.3143 148.175 67.0368 148.522 66.6787 148.759C66.3242 148.992 65.9071 149.108 65.4272 149.108C64.9761 149.108 64.6108 149.026 64.3315 148.861C64.0558 148.693 63.8392 148.497 63.6816 148.275H63.5903L63.3594 149H62.4141V140.643H63.6763ZM65.1265 143.973C64.7684 143.973 64.4837 144.045 64.2725 144.188C64.0648 144.331 63.9144 144.546 63.8213 144.833C63.7282 145.115 63.6799 145.475 63.6763 145.912V146.025C63.6763 146.687 63.7801 147.194 63.9878 147.545C64.1991 147.896 64.5822 148.071 65.1372 148.071C65.5776 148.071 65.916 147.894 66.1523 147.54C66.3887 147.181 66.5068 146.669 66.5068 146.003C66.5068 145.33 66.3887 144.824 66.1523 144.483C65.9196 144.143 65.5776 143.973 65.1265 143.973ZM71.6362 142.942C72.1662 142.942 72.6209 143.051 73.0005 143.27C73.38 143.488 73.6719 143.798 73.876 144.199C74.0801 144.6 74.1821 145.08 74.1821 145.638V146.315H70.2129C70.2272 146.891 70.3812 147.335 70.6748 147.647C70.972 147.958 71.3874 148.114 71.9209 148.114C72.3005 148.114 72.6406 148.078 72.9414 148.007C73.2458 147.932 73.5591 147.822 73.8813 147.679V148.705C73.5841 148.845 73.2816 148.947 72.9736 149.011C72.6657 149.076 72.2969 149.108 71.8672 149.108C71.2835 149.108 70.7697 148.995 70.3257 148.77C69.8853 148.54 69.5397 148.2 69.2891 147.749C69.042 147.298 68.9185 146.737 68.9185 146.068C68.9185 145.402 69.0312 144.836 69.2568 144.371C69.4824 143.905 69.7993 143.551 70.2075 143.307C70.6157 143.064 71.092 142.942 71.6362 142.942ZM71.6362 143.893C71.2388 143.893 70.9165 144.021 70.6694 144.279C70.4259 144.537 70.2827 144.915 70.2397 145.413H72.9468C72.9432 145.115 72.8931 144.852 72.7964 144.623C72.7033 144.394 72.5601 144.215 72.3667 144.086C72.1769 143.957 71.9334 143.893 71.6362 143.893ZM76.873 149H75.6055V140.643H76.873V149Z" fill="#61656E"/>
<mask id="path-15-inside-3_3310_309918" fill="white">
<path d="M24 158H296V186H24V158Z"/>
</mask>
<path d="M24 158H296V186H24V158Z" fill="#EAEDEF"/>
<path d="M35.0352 177.698V176.467C34.5859 176.459 34.1562 176.42 33.7461 176.35C33.3398 176.28 33.0078 176.188 32.75 176.075V175.125C33.0195 175.25 33.3652 175.36 33.7871 175.454C34.209 175.547 34.625 175.598 35.0352 175.606V173.028C34.5195 172.883 34.0918 172.719 33.752 172.536C33.416 172.348 33.1641 172.12 32.9961 171.85C32.8281 171.581 32.7441 171.254 32.7441 170.872C32.7441 170.473 32.8379 170.133 33.0254 169.852C33.2168 169.567 33.4844 169.344 33.8281 169.184C34.1719 169.024 34.5742 168.932 35.0352 168.909V167.895H35.75V168.897C36.168 168.909 36.5488 168.956 36.8926 169.038C37.2363 169.116 37.5547 169.217 37.8477 169.342L37.543 170.157C37.2773 170.051 36.9902 169.961 36.6816 169.887C36.373 169.813 36.0625 169.762 35.75 169.735V172.295C36.2734 172.448 36.7109 172.61 37.0625 172.782C37.418 172.954 37.6855 173.167 37.8652 173.42C38.0449 173.674 38.1348 174.002 38.1348 174.405C38.1348 174.975 37.9258 175.436 37.5078 175.788C37.0898 176.135 36.5039 176.346 35.75 176.42V177.698H35.0352ZM35.75 175.553C36.2305 175.506 36.5879 175.391 36.8223 175.208C37.0605 175.02 37.1797 174.774 37.1797 174.469C37.1797 174.25 37.1328 174.071 37.0391 173.93C36.9492 173.79 36.8008 173.668 36.5938 173.567C36.3867 173.461 36.1055 173.362 35.75 173.268V175.553ZM35.0352 172.049V169.758C34.7422 169.778 34.4961 169.833 34.2969 169.922C34.0977 170.012 33.9473 170.129 33.8457 170.274C33.748 170.418 33.6992 170.59 33.6992 170.79C33.6992 171.02 33.7422 171.213 33.8281 171.37C33.918 171.522 34.0605 171.653 34.2559 171.762C34.4551 171.868 34.7148 171.963 35.0352 172.049Z" fill="#161616"/>
<path d="M51.9395 177L49.0625 169.418H49.0156C49.0312 169.579 49.0449 169.774 49.0566 170.004C49.0684 170.235 49.0781 170.487 49.0859 170.76C49.0938 171.03 49.0977 171.305 49.0977 171.586V177H48.1719V168.434H49.6484L52.3613 175.559H52.4023L55.1562 168.434H56.6211V177H55.6367V171.516C55.6367 171.262 55.6406 171.008 55.6484 170.754C55.6562 170.497 55.666 170.254 55.6777 170.028C55.6895 169.797 55.7012 169.598 55.7129 169.43H55.666L52.7539 177H51.9395ZM62.7324 177L59.8555 169.418H59.8086C59.8242 169.579 59.8379 169.774 59.8496 170.004C59.8613 170.235 59.8711 170.487 59.8789 170.76C59.8867 171.03 59.8906 171.305 59.8906 171.586V177H58.9648V168.434H60.4414L63.1543 175.559H63.1953L65.9492 168.434H67.4141V177H66.4297V171.516C66.4297 171.262 66.4336 171.008 66.4414 170.754C66.4492 170.497 66.459 170.254 66.4707 170.028C66.4824 169.797 66.4941 169.598 66.5059 169.43H66.459L63.5469 177H62.7324Z" fill="#161616"/>
<path d="M296 185H24V187H296V185Z" fill="#61656E" mask="url(#path-15-inside-3_3310_309918)"/>
<path d="M322.31 149H321.031V141.148H325.468V142.233H322.31V144.682H325.264V145.762H322.31V149ZM328.03 143.055V149H326.768V143.055H328.03ZM327.407 140.777C327.6 140.777 327.767 140.829 327.906 140.933C328.049 141.037 328.121 141.216 328.121 141.47C328.121 141.721 328.049 141.9 327.906 142.007C327.767 142.111 327.6 142.163 327.407 142.163C327.206 142.163 327.036 142.111 326.896 142.007C326.76 141.9 326.692 141.721 326.692 141.47C326.692 141.216 326.76 141.037 326.896 140.933C327.036 140.829 327.206 140.777 327.407 140.777ZM332.208 142.942C332.738 142.942 333.193 143.051 333.573 143.27C333.952 143.488 334.244 143.798 334.448 144.199C334.652 144.6 334.754 145.08 334.754 145.638V146.315H330.785C330.799 146.891 330.953 147.335 331.247 147.647C331.544 147.958 331.96 148.114 332.493 148.114C332.873 148.114 333.213 148.078 333.514 148.007C333.818 147.932 334.131 147.822 334.454 147.679V148.705C334.156 148.845 333.854 148.947 333.546 149.011C333.238 149.076 332.869 149.108 332.439 149.108C331.856 149.108 331.342 148.995 330.898 148.77C330.458 148.54 330.112 148.2 329.861 147.749C329.614 147.298 329.491 146.737 329.491 146.068C329.491 145.402 329.604 144.836 329.829 144.371C330.055 143.905 330.372 143.551 330.78 143.307C331.188 143.064 331.664 142.942 332.208 142.942ZM332.208 143.893C331.811 143.893 331.489 144.021 331.242 144.279C330.998 144.537 330.855 144.915 330.812 145.413H333.519C333.515 145.115 333.465 144.852 333.369 144.623C333.276 144.394 333.132 144.215 332.939 144.086C332.749 143.957 332.506 143.893 332.208 143.893ZM337.445 149H336.178V140.643H337.445V149ZM341.248 149.108C340.539 149.108 339.97 148.85 339.54 148.334C339.114 147.815 338.901 147.051 338.901 146.041C338.901 145.021 339.118 144.249 339.551 143.726C339.988 143.203 340.562 142.942 341.275 142.942C341.576 142.942 341.839 142.983 342.064 143.065C342.29 143.144 342.483 143.252 342.645 143.388C342.809 143.524 342.949 143.676 343.063 143.844H343.123C343.105 143.733 343.083 143.574 343.058 143.366C343.037 143.155 343.026 142.96 343.026 142.781V140.643H344.293V149H343.305L343.08 148.189H343.026C342.918 148.361 342.782 148.517 342.618 148.657C342.457 148.793 342.263 148.902 342.038 148.984C341.816 149.067 341.552 149.108 341.248 149.108ZM341.603 148.082C342.143 148.082 342.525 147.926 342.747 147.615C342.969 147.303 343.083 146.836 343.09 146.213V146.046C343.09 145.38 342.983 144.87 342.768 144.516C342.553 144.158 342.161 143.979 341.592 143.979C341.137 143.979 340.79 144.163 340.55 144.532C340.313 144.897 340.195 145.407 340.195 146.062C340.195 146.718 340.313 147.219 340.55 147.566C340.79 147.91 341.141 148.082 341.603 148.082ZM350.229 149H348.961V140.643H350.229V149ZM354.364 142.942C355.116 142.942 355.684 143.108 356.067 143.441C356.454 143.774 356.647 144.294 356.647 144.999V149H355.75L355.508 148.157H355.465C355.297 148.372 355.123 148.549 354.944 148.689C354.765 148.829 354.558 148.932 354.321 149C354.089 149.072 353.804 149.108 353.467 149.108C353.113 149.108 352.796 149.043 352.517 148.915C352.237 148.782 352.017 148.582 351.856 148.313C351.695 148.044 351.614 147.704 351.614 147.292C351.614 146.68 351.842 146.22 352.296 145.912C352.755 145.604 353.446 145.434 354.37 145.402L355.401 145.364V145.053C355.401 144.641 355.304 144.347 355.111 144.172C354.921 143.996 354.653 143.909 354.305 143.909C354.008 143.909 353.72 143.952 353.44 144.038C353.161 144.124 352.889 144.229 352.624 144.354L352.216 143.463C352.506 143.309 352.835 143.184 353.204 143.087C353.576 142.99 353.963 142.942 354.364 142.942ZM355.396 146.159L354.627 146.186C353.997 146.208 353.555 146.315 353.301 146.508C353.047 146.702 352.919 146.967 352.919 147.303C352.919 147.597 353.007 147.812 353.183 147.948C353.358 148.08 353.589 148.146 353.875 148.146C354.312 148.146 354.674 148.023 354.96 147.776C355.25 147.525 355.396 147.158 355.396 146.675V146.159ZM359.676 140.643V142.657C359.676 142.89 359.669 143.119 359.655 143.345C359.644 143.567 359.633 143.74 359.623 143.866H359.676C359.837 143.608 360.061 143.391 360.348 143.216C360.638 143.037 361.008 142.947 361.459 142.947C362.165 142.947 362.732 143.207 363.162 143.726C363.592 144.242 363.807 145.006 363.807 146.02C363.807 146.693 363.708 147.258 363.511 147.717C363.314 148.175 363.037 148.522 362.679 148.759C362.324 148.992 361.907 149.108 361.427 149.108C360.976 149.108 360.611 149.026 360.332 148.861C360.056 148.693 359.839 148.497 359.682 148.275H359.59L359.359 149H358.414V140.643H359.676ZM361.126 143.973C360.768 143.973 360.484 144.045 360.272 144.188C360.065 144.331 359.914 144.546 359.821 144.833C359.728 145.115 359.68 145.475 359.676 145.912V146.025C359.676 146.687 359.78 147.194 359.988 147.545C360.199 147.896 360.582 148.071 361.137 148.071C361.578 148.071 361.916 147.894 362.152 147.54C362.389 147.181 362.507 146.669 362.507 146.003C362.507 145.33 362.389 144.824 362.152 144.483C361.92 144.143 361.578 143.973 361.126 143.973ZM367.636 142.942C368.166 142.942 368.621 143.051 369 143.27C369.38 143.488 369.672 143.798 369.876 144.199C370.08 144.6 370.182 145.08 370.182 145.638V146.315H366.213C366.227 146.891 366.381 147.335 366.675 147.647C366.972 147.958 367.387 148.114 367.921 148.114C368.3 148.114 368.641 148.078 368.941 148.007C369.246 147.932 369.559 147.822 369.881 147.679V148.705C369.584 148.845 369.282 148.947 368.974 149.011C368.666 149.076 368.297 149.108 367.867 149.108C367.284 149.108 366.77 148.995 366.326 148.77C365.885 148.54 365.54 148.2 365.289 147.749C365.042 147.298 364.918 146.737 364.918 146.068C364.918 145.402 365.031 144.836 365.257 144.371C365.482 143.905 365.799 143.551 366.208 143.307C366.616 143.064 367.092 142.942 367.636 142.942ZM367.636 143.893C367.239 143.893 366.917 144.021 366.669 144.279C366.426 144.537 366.283 144.915 366.24 145.413H368.947C368.943 145.115 368.893 144.852 368.796 144.623C368.703 144.394 368.56 144.215 368.367 144.086C368.177 143.957 367.933 143.893 367.636 143.893ZM372.873 149H371.605V140.643H372.873V149Z" fill="#61656E"/>
<mask id="path-20-inside-4_3310_309918" fill="white">
<path d="M320 158H592V186H320V158Z"/>
</mask>
<path d="M320 158H592V186H320V158Z" fill="#EAEDEF"/>
<path d="M334.205 177H328.592V176.186L330.883 173.86C331.309 173.43 331.666 173.047 331.955 172.711C332.248 172.375 332.471 172.045 332.623 171.721C332.775 171.393 332.852 171.034 332.852 170.643C332.852 170.159 332.707 169.79 332.418 169.536C332.133 169.278 331.756 169.149 331.287 169.149C330.877 169.149 330.514 169.219 330.197 169.36C329.881 169.5 329.557 169.7 329.225 169.958L328.703 169.301C328.93 169.11 329.176 168.94 329.441 168.792C329.711 168.643 329.998 168.526 330.303 168.44C330.611 168.354 330.939 168.311 331.287 168.311C331.814 168.311 332.27 168.403 332.652 168.586C333.035 168.77 333.33 169.032 333.537 169.372C333.748 169.711 333.854 170.116 333.854 170.584C333.854 171.038 333.764 171.459 333.584 171.85C333.404 172.237 333.152 172.622 332.828 173.004C332.504 173.383 332.125 173.786 331.691 174.211L329.828 176.069V176.11H334.205V177ZM341.5 175.014H340.217V177H339.268V175.014H335.125V174.194L339.203 168.387H340.217V174.135H341.5V175.014ZM339.268 174.135V171.334C339.268 171.12 339.27 170.926 339.273 170.754C339.277 170.579 339.283 170.417 339.291 170.268C339.299 170.116 339.305 169.971 339.309 169.834C339.316 169.698 339.322 169.563 339.326 169.43H339.279C339.205 169.586 339.119 169.752 339.021 169.928C338.928 170.1 338.832 170.254 338.734 170.391L336.092 174.135H339.268ZM349.791 177L346.914 169.418H346.867C346.883 169.579 346.896 169.774 346.908 170.004C346.92 170.235 346.93 170.487 346.938 170.76C346.945 171.03 346.949 171.305 346.949 171.586V177H346.023V168.434H347.5L350.213 175.559H350.254L353.008 168.434H354.473V177H353.488V171.516C353.488 171.262 353.492 171.008 353.5 170.754C353.508 170.497 353.518 170.254 353.529 170.028C353.541 169.797 353.553 169.598 353.564 169.43H353.518L350.605 177H349.791ZM362.207 173.778C362.207 174.305 362.139 174.776 362.002 175.19C361.865 175.604 361.668 175.954 361.41 176.239C361.152 176.524 360.84 176.743 360.473 176.895C360.109 177.043 359.697 177.118 359.236 177.118C358.807 177.118 358.412 177.043 358.053 176.895C357.697 176.743 357.389 176.524 357.127 176.239C356.869 175.954 356.668 175.604 356.523 175.19C356.383 174.776 356.312 174.305 356.312 173.778C356.312 173.075 356.432 172.477 356.67 171.985C356.908 171.489 357.248 171.112 357.689 170.854C358.135 170.592 358.664 170.461 359.277 170.461C359.863 170.461 360.375 170.592 360.812 170.854C361.254 171.116 361.596 171.495 361.838 171.991C362.084 172.483 362.207 173.079 362.207 173.778ZM357.32 173.778C357.32 174.293 357.389 174.741 357.525 175.12C357.662 175.499 357.873 175.792 358.158 175.999C358.443 176.206 358.811 176.309 359.26 176.309C359.705 176.309 360.07 176.206 360.355 175.999C360.645 175.792 360.857 175.499 360.994 175.12C361.131 174.741 361.199 174.293 361.199 173.778C361.199 173.266 361.131 172.825 360.994 172.454C360.857 172.079 360.646 171.79 360.361 171.586C360.076 171.383 359.707 171.282 359.254 171.282C358.586 171.282 358.096 171.502 357.783 171.944C357.475 172.385 357.32 172.997 357.32 173.778ZM366.93 170.461C367.691 170.461 368.268 170.649 368.658 171.024C369.049 171.395 369.244 171.993 369.244 172.817V177H368.283V172.881C368.283 172.346 368.16 171.946 367.914 171.68C367.672 171.415 367.299 171.282 366.795 171.282C366.084 171.282 365.584 171.483 365.295 171.885C365.006 172.288 364.861 172.872 364.861 173.637V177H363.889V170.579H364.674L364.82 171.504H364.873C365.01 171.278 365.184 171.088 365.395 170.936C365.605 170.78 365.842 170.663 366.104 170.584C366.365 170.502 366.641 170.461 366.93 170.461ZM373.322 176.321C373.482 176.321 373.646 176.307 373.814 176.28C373.982 176.252 374.119 176.219 374.225 176.18V176.936C374.111 176.987 373.953 177.03 373.75 177.065C373.551 177.1 373.355 177.118 373.164 177.118C372.824 177.118 372.516 177.059 372.238 176.942C371.961 176.821 371.738 176.618 371.57 176.333C371.406 176.047 371.324 175.653 371.324 175.149V171.34H370.41V170.866L371.33 170.485L371.717 169.09H372.303V170.579H374.184V171.34H372.303V175.12C372.303 175.522 372.395 175.823 372.578 176.022C372.766 176.221 373.014 176.321 373.322 176.321ZM376.498 167.883V170.608C376.498 170.764 376.494 170.922 376.486 171.083C376.479 171.239 376.465 171.383 376.445 171.516H376.51C376.643 171.29 376.811 171.1 377.014 170.948C377.221 170.792 377.455 170.674 377.717 170.596C377.979 170.514 378.256 170.473 378.549 170.473C379.064 170.473 379.494 170.555 379.838 170.719C380.186 170.883 380.445 171.137 380.617 171.481C380.793 171.825 380.881 172.27 380.881 172.817V177H379.92V172.881C379.92 172.346 379.797 171.946 379.551 171.68C379.309 171.415 378.936 171.282 378.432 171.282C377.955 171.282 377.574 171.374 377.289 171.557C377.008 171.737 376.805 172.002 376.68 172.354C376.559 172.706 376.498 173.135 376.498 173.643V177H375.525V167.883H376.498ZM387.039 175.243C387.039 175.653 386.936 175.999 386.729 176.28C386.525 176.557 386.232 176.766 385.85 176.907C385.471 177.047 385.018 177.118 384.49 177.118C384.041 177.118 383.652 177.083 383.324 177.012C382.996 176.942 382.709 176.842 382.463 176.713V175.817C382.725 175.946 383.037 176.063 383.4 176.168C383.764 176.274 384.135 176.327 384.514 176.327C385.068 176.327 385.471 176.237 385.721 176.057C385.971 175.877 386.096 175.633 386.096 175.325C386.096 175.149 386.045 174.995 385.943 174.862C385.846 174.725 385.68 174.594 385.445 174.469C385.211 174.34 384.887 174.2 384.473 174.047C384.062 173.891 383.707 173.737 383.406 173.584C383.109 173.428 382.879 173.239 382.715 173.016C382.555 172.793 382.475 172.504 382.475 172.149C382.475 171.606 382.693 171.19 383.131 170.901C383.572 170.608 384.15 170.461 384.865 170.461C385.252 170.461 385.613 170.5 385.949 170.579C386.289 170.653 386.605 170.754 386.898 170.883L386.57 171.663C386.305 171.549 386.021 171.454 385.721 171.375C385.42 171.297 385.113 171.258 384.801 171.258C384.352 171.258 384.006 171.333 383.764 171.481C383.525 171.629 383.406 171.833 383.406 172.09C383.406 172.29 383.461 172.454 383.57 172.583C383.684 172.711 383.863 172.833 384.109 172.946C384.355 173.059 384.68 173.192 385.082 173.344C385.484 173.493 385.832 173.647 386.125 173.807C386.418 173.963 386.643 174.155 386.799 174.381C386.959 174.604 387.039 174.891 387.039 175.243Z" fill="#161616"/>
<path d="M576 166V167H580V166H581V167H584V178H572V167H575V166H576ZM583 170H573V177H583V170ZM581 168H580V169H581V168ZM576 168H575V169H576V168Z" fill="#4C505B"/>
<path d="M592 185H320V187H592V185Z" fill="#61656E" mask="url(#path-20-inside-4_3310_309918)"/>
<path d="M363.775 221.506C363.365 221.506 362.998 221.581 362.674 221.729C362.354 221.877 362.082 222.092 361.859 222.374C361.637 222.651 361.467 222.989 361.35 223.387C361.232 223.782 361.174 224.227 361.174 224.723C361.174 225.387 361.268 225.959 361.455 226.44C361.643 226.917 361.928 227.284 362.311 227.542C362.693 227.795 363.178 227.922 363.764 227.922C364.127 227.922 364.48 227.887 364.824 227.817C365.168 227.747 365.523 227.651 365.891 227.53V228.725C365.543 228.862 365.191 228.961 364.836 229.024C364.48 229.086 364.07 229.118 363.605 229.118C362.73 229.118 362.004 228.936 361.426 228.573C360.852 228.209 360.422 227.698 360.137 227.038C359.855 226.377 359.715 225.604 359.715 224.717C359.715 224.069 359.805 223.475 359.984 222.936C360.164 222.397 360.426 221.932 360.77 221.542C361.113 221.147 361.537 220.844 362.041 220.633C362.549 220.418 363.129 220.311 363.781 220.311C364.211 220.311 364.633 220.36 365.047 220.458C365.465 220.551 365.852 220.686 366.207 220.862L365.715 222.022C365.418 221.881 365.107 221.76 364.783 221.659C364.459 221.557 364.123 221.506 363.775 221.506ZM373.639 229L372.801 226.622H369.526L368.688 229H367.205L370.393 220.399H371.952L375.133 229H373.639ZM372.438 225.415L371.623 223.071C371.592 222.969 371.547 222.827 371.489 222.643C371.43 222.456 371.371 222.266 371.313 222.075C371.254 221.879 371.205 221.715 371.166 221.583C371.127 221.743 371.079 221.922 371.02 222.122C370.965 222.317 370.911 222.5 370.856 222.672C370.805 222.844 370.766 222.977 370.739 223.071L369.918 225.415H372.438ZM384.013 229H382.284L378.089 222.163H378.036C378.052 222.393 378.065 222.637 378.077 222.895C378.093 223.153 378.104 223.418 378.112 223.692C378.124 223.965 378.134 224.243 378.141 224.524V229H376.864V220.434H378.581L382.77 227.225H382.811C382.804 227.026 382.794 226.797 382.782 226.54C382.77 226.282 382.759 226.016 382.747 225.743C382.739 225.465 382.733 225.198 382.729 224.94V220.434H384.013V229ZM390.513 221.506C390.103 221.506 389.736 221.581 389.411 221.729C389.091 221.877 388.82 222.092 388.597 222.374C388.374 222.651 388.204 222.989 388.087 223.387C387.97 223.782 387.911 224.227 387.911 224.723C387.911 225.387 388.005 225.959 388.193 226.44C388.38 226.917 388.665 227.284 389.048 227.542C389.431 227.795 389.915 227.922 390.501 227.922C390.864 227.922 391.218 227.887 391.562 227.817C391.905 227.747 392.261 227.651 392.628 227.53V228.725C392.28 228.862 391.929 228.961 391.573 229.024C391.218 229.086 390.808 229.118 390.343 229.118C389.468 229.118 388.741 228.936 388.163 228.573C387.589 228.209 387.159 227.698 386.874 227.038C386.593 226.377 386.452 225.604 386.452 224.717C386.452 224.069 386.542 223.475 386.722 222.936C386.902 222.397 387.163 221.932 387.507 221.542C387.851 221.147 388.275 220.844 388.779 220.633C389.286 220.418 389.866 220.311 390.519 220.311C390.948 220.311 391.37 220.36 391.784 220.458C392.202 220.551 392.589 220.686 392.945 220.862L392.452 222.022C392.155 221.881 391.845 221.76 391.521 221.659C391.196 221.557 390.861 221.506 390.513 221.506ZM399.92 229H395.068V220.434H399.92V221.618H396.474V223.944H399.703V225.122H396.474V227.811H399.92V229ZM402.371 229V220.434H403.777V227.805H407.416V229H402.371Z" fill="#161616"/>
<rect width="95" height="28" transform="translate(424 210)" fill="#C5C9D0"/>
<path fill-rule="evenodd" clip-rule="evenodd" d="M436.692 224L441.5 228.402L440.508 229.5L434.5 224L440.508 218.5L441.5 219.599L436.692 224Z" fill="#161616"/>
<path d="M451.615 220.434C452.721 220.434 453.527 220.661 454.035 221.114C454.543 221.567 454.797 222.202 454.797 223.018C454.797 223.389 454.738 223.743 454.621 224.079C454.508 224.411 454.32 224.706 454.059 224.963C453.797 225.217 453.451 225.418 453.021 225.567C452.596 225.715 452.07 225.79 451.445 225.79H450.531V229H449.125V220.434H451.615ZM451.521 221.6H450.531V224.618H451.299C451.74 224.618 452.115 224.567 452.424 224.465C452.732 224.36 452.967 224.194 453.127 223.967C453.287 223.741 453.367 223.442 453.367 223.071C453.367 222.575 453.217 222.206 452.916 221.963C452.619 221.721 452.154 221.6 451.521 221.6ZM459.516 220.434C460.254 220.434 460.864 220.524 461.344 220.704C461.829 220.883 462.188 221.157 462.422 221.524C462.661 221.891 462.78 222.358 462.78 222.924C462.78 223.346 462.702 223.706 462.545 224.002C462.389 224.299 462.184 224.545 461.93 224.741C461.676 224.936 461.405 225.092 461.116 225.209L463.547 229H461.959L459.891 225.567H458.514V229H457.108V220.434H459.516ZM459.422 221.606H458.514V224.407H459.487C460.139 224.407 460.612 224.286 460.905 224.043C461.202 223.801 461.35 223.444 461.35 222.971C461.35 222.475 461.192 222.124 460.875 221.917C460.563 221.709 460.079 221.606 459.422 221.606ZM470.223 229H465.372V220.434H470.223V221.618H466.778V223.944H470.007V225.122H466.778V227.811H470.223V229ZM479.027 220.434L476.032 229H474.544L471.55 220.434H472.991L474.796 225.801C474.851 225.958 474.909 226.147 474.972 226.37C475.038 226.592 475.099 226.817 475.154 227.043C475.212 227.27 475.257 227.471 475.288 227.647C475.32 227.471 475.362 227.27 475.417 227.043C475.476 226.817 475.536 226.592 475.599 226.37C475.661 226.147 475.72 225.956 475.775 225.795L477.585 220.434H479.027ZM480.752 229V220.434H482.158V229H480.752ZM492.625 224.706C492.625 225.366 492.541 225.967 492.373 226.51C492.209 227.049 491.961 227.514 491.629 227.905C491.297 228.292 490.881 228.59 490.381 228.801C489.881 229.012 489.295 229.118 488.623 229.118C487.939 229.118 487.346 229.012 486.842 228.801C486.342 228.59 485.926 228.29 485.594 227.899C485.266 227.508 485.02 227.042 484.855 226.499C484.691 225.956 484.609 225.354 484.609 224.694C484.609 223.811 484.754 223.042 485.043 222.385C485.336 221.725 485.779 221.213 486.373 220.85C486.971 220.483 487.725 220.299 488.635 220.299C489.525 220.299 490.266 220.481 490.855 220.844C491.445 221.208 491.887 221.719 492.18 222.379C492.477 223.036 492.625 223.811 492.625 224.706ZM486.086 224.706C486.086 225.366 486.176 225.938 486.355 226.422C486.535 226.903 486.811 227.274 487.182 227.536C487.557 227.793 488.037 227.922 488.623 227.922C489.213 227.922 489.693 227.793 490.064 227.536C490.436 227.274 490.709 226.903 490.885 226.422C491.061 225.938 491.148 225.366 491.148 224.706C491.148 223.702 490.947 222.917 490.545 222.35C490.146 221.78 489.51 221.495 488.635 221.495C488.049 221.495 487.566 221.624 487.188 221.881C486.812 222.139 486.535 222.508 486.355 222.989C486.176 223.465 486.086 224.038 486.086 224.706ZM501.791 220.434V225.977C501.791 226.575 501.664 227.11 501.411 227.583C501.161 228.055 500.782 228.43 500.274 228.708C499.766 228.981 499.127 229.118 498.358 229.118C497.26 229.118 496.424 228.831 495.85 228.256C495.28 227.678 494.995 226.911 494.995 225.954V220.434H496.401V225.831C496.401 226.545 496.569 227.073 496.905 227.413C497.241 227.752 497.743 227.922 498.411 227.922C498.871 227.922 499.246 227.842 499.536 227.682C499.829 227.518 500.043 227.28 500.18 226.967C500.321 226.651 500.391 226.27 500.391 225.825V220.434H501.791ZM509.528 226.668C509.528 227.176 509.403 227.614 509.153 227.981C508.907 228.348 508.552 228.629 508.087 228.825C507.626 229.02 507.075 229.118 506.434 229.118C506.122 229.118 505.823 229.1 505.538 229.065C505.253 229.03 504.983 228.979 504.729 228.913C504.479 228.842 504.251 228.758 504.044 228.661V227.336C504.391 227.489 504.78 227.627 505.21 227.752C505.639 227.874 506.077 227.934 506.522 227.934C506.886 227.934 507.186 227.887 507.425 227.793C507.667 227.696 507.846 227.559 507.964 227.383C508.081 227.204 508.139 226.995 508.139 226.756C508.139 226.502 508.071 226.288 507.934 226.112C507.798 225.936 507.591 225.776 507.313 225.631C507.04 225.483 506.696 225.325 506.282 225.157C506.001 225.043 505.731 224.915 505.473 224.77C505.22 224.625 504.993 224.456 504.794 224.26C504.595 224.065 504.436 223.834 504.319 223.569C504.206 223.299 504.149 222.983 504.149 222.62C504.149 222.135 504.264 221.721 504.495 221.377C504.729 221.034 505.057 220.77 505.479 220.586C505.905 220.403 506.401 220.311 506.968 220.311C507.417 220.311 507.839 220.358 508.233 220.452C508.632 220.545 509.022 220.678 509.405 220.85L508.96 221.981C508.608 221.836 508.266 221.721 507.934 221.635C507.606 221.549 507.27 221.506 506.927 221.506C506.63 221.506 506.378 221.551 506.171 221.641C505.964 221.731 505.805 221.858 505.696 222.022C505.591 222.182 505.538 222.374 505.538 222.596C505.538 222.846 505.598 223.057 505.72 223.229C505.845 223.397 506.036 223.551 506.294 223.692C506.555 223.833 506.891 223.989 507.302 224.161C507.774 224.356 508.175 224.561 508.503 224.776C508.835 224.991 509.089 225.249 509.264 225.549C509.44 225.846 509.528 226.219 509.528 226.668Z" fill="#161616"/>
<rect width="65" height="28" transform="translate(527 210)" fill="#155C93"/>
<path d="M543.273 229H541.545L537.35 222.163H537.297C537.312 222.393 537.326 222.637 537.338 222.895C537.354 223.153 537.365 223.418 537.373 223.692C537.385 223.965 537.395 224.243 537.402 224.524V229H536.125V220.434H537.842L542.031 227.225H542.072C542.064 227.026 542.055 226.797 542.043 226.54C542.031 226.282 542.02 226.016 542.008 225.743C542 225.465 541.994 225.198 541.99 224.94V220.434H543.273V229ZM550.975 229H546.123V220.434H550.975V221.618H547.53V223.944H550.758V225.122H547.53V227.811H550.975V229ZM559.749 229H558.149L555.993 225.491L553.825 229H552.319L555.167 224.559L552.513 220.434H554.065L556.057 223.68L558.038 220.434H559.544L556.878 224.6L559.749 229ZM564.474 229H563.062V221.629H560.554V220.434H566.976V221.629H564.474V229Z" fill="white"/>
<path fill-rule="evenodd" clip-rule="evenodd" d="M579.308 224L574.5 219.599L575.492 218.5L581.5 224L575.492 229.5L574.5 228.402L579.308 224Z" fill="white"/>
<rect opacity="0.5" x="572" y="94" width="12" height="12" fill="#E292E4"/>
<rect opacity="0.5" x="276" y="94" width="12" height="12" fill="#E292E4"/>
<rect opacity="0.5" x="572" y="166" width="12" height="12" fill="#E292E4"/>
<rect opacity="0.5" x="572" y="218" width="12" height="12" fill="#E292E4"/>
<rect opacity="0.5" x="432" y="218" width="12" height="12" fill="#E292E4"/>
<rect opacity="0.5" x="474" y="22" width="12" height="12" fill="#E292E4"/>
<path d="M624.778 14H623.131V5.40039H620.205V4.00586H627.697V5.40039H624.778V14ZM635.764 10.1992C635.764 10.8281 635.682 11.3864 635.518 11.874C635.354 12.3617 635.114 12.7741 634.8 13.1113C634.485 13.444 634.107 13.6992 633.665 13.877C633.223 14.0501 632.724 14.1367 632.168 14.1367C631.648 14.1367 631.172 14.0501 630.739 13.877C630.306 13.6992 629.93 13.444 629.611 13.1113C629.297 12.7741 629.053 12.3617 628.88 11.874C628.707 11.3864 628.62 10.8281 628.62 10.1992C628.62 9.36523 628.764 8.65885 629.051 8.08008C629.342 7.49674 629.757 7.05241 630.295 6.74707C630.833 6.44173 631.473 6.28906 632.216 6.28906C632.913 6.28906 633.528 6.44173 634.062 6.74707C634.595 7.05241 635.012 7.49674 635.312 8.08008C635.613 8.66341 635.764 9.36979 635.764 10.1992ZM630.274 10.1992C630.274 10.7507 630.34 11.2223 630.473 11.6143C630.609 12.0062 630.819 12.307 631.102 12.5166C631.384 12.7217 631.749 12.8242 632.195 12.8242C632.642 12.8242 633.007 12.7217 633.289 12.5166C633.572 12.307 633.779 12.0062 633.911 11.6143C634.043 11.2223 634.109 10.7507 634.109 10.1992C634.109 9.64779 634.043 9.18066 633.911 8.79785C633.779 8.41048 633.572 8.11654 633.289 7.91602C633.007 7.71094 632.64 7.6084 632.188 7.6084C631.523 7.6084 631.038 7.83171 630.732 8.27832C630.427 8.72493 630.274 9.36523 630.274 10.1992ZM639.216 3.36328V8.50391C639.216 8.73633 639.207 8.99154 639.188 9.26953C639.17 9.54297 639.152 9.80046 639.134 10.042H639.168C639.286 9.88249 639.428 9.69564 639.592 9.48145C639.76 9.26725 639.92 9.0804 640.07 8.9209L642.381 6.43262H644.227L641.198 9.68652L644.425 14H642.538L640.118 10.6777L639.216 11.4502V14H637.609V3.36328H639.216ZM648.649 6.28906C649.324 6.28906 649.903 6.42806 650.386 6.70605C650.869 6.98405 651.24 7.37826 651.5 7.88867C651.76 8.39909 651.89 9.00977 651.89 9.7207V10.582H646.838C646.856 11.3158 647.052 11.8809 647.426 12.2773C647.804 12.6738 648.333 12.8721 649.012 12.8721C649.495 12.8721 649.928 12.8265 650.311 12.7354C650.698 12.6396 651.097 12.5007 651.507 12.3184V13.624C651.129 13.8018 650.743 13.9316 650.352 14.0137C649.96 14.0957 649.49 14.1367 648.943 14.1367C648.201 14.1367 647.547 13.9932 646.981 13.7061C646.421 13.4144 645.981 12.9814 645.662 12.4072C645.348 11.833 645.19 11.1198 645.19 10.2676C645.19 9.41992 645.334 8.69987 645.621 8.10742C645.908 7.51497 646.312 7.0638 646.831 6.75391C647.351 6.44401 647.957 6.28906 648.649 6.28906ZM648.649 7.49902C648.144 7.49902 647.733 7.66309 647.419 7.99121C647.109 8.31934 646.927 8.80013 646.872 9.43359H650.317C650.313 9.05534 650.249 8.72038 650.126 8.42871C650.007 8.13704 649.825 7.90918 649.579 7.74512C649.338 7.58105 649.028 7.49902 648.649 7.49902ZM657.646 6.28906C658.498 6.28906 659.161 6.51009 659.635 6.95215C660.113 7.38965 660.353 8.09375 660.353 9.06445V14H658.746V9.36523C658.746 8.77734 658.625 8.33757 658.384 8.0459C658.142 7.74967 657.769 7.60156 657.263 7.60156C656.529 7.60156 656.019 7.82715 655.731 8.27832C655.449 8.72949 655.308 9.38346 655.308 10.2402V14H653.701V6.43262H654.952L655.178 7.45801H655.267C655.431 7.19368 655.633 6.97721 655.875 6.80859C656.121 6.63542 656.395 6.50553 656.695 6.41895C657.001 6.33236 657.317 6.28906 657.646 6.28906ZM667.688 11.8398C667.688 12.3366 667.567 12.7559 667.325 13.0977C667.084 13.4395 666.73 13.6992 666.266 13.877C665.805 14.0501 665.24 14.1367 664.57 14.1367C664.042 14.1367 663.586 14.098 663.203 14.0205C662.825 13.9476 662.467 13.8337 662.13 13.6787V12.291C662.49 12.4596 662.893 12.6055 663.34 12.7285C663.791 12.8516 664.217 12.9131 664.618 12.9131C665.147 12.9131 665.527 12.8311 665.76 12.667C665.992 12.4984 666.108 12.2751 666.108 11.9971C666.108 11.833 666.061 11.6872 665.965 11.5596C665.874 11.4274 665.701 11.293 665.445 11.1562C665.195 11.015 664.826 10.8464 664.338 10.6504C663.859 10.459 663.456 10.2676 663.128 10.0762C662.8 9.88477 662.551 9.65462 662.383 9.38574C662.214 9.1123 662.13 8.76367 662.13 8.33984C662.13 7.66992 662.394 7.16178 662.923 6.81543C663.456 6.46452 664.16 6.28906 665.035 6.28906C665.5 6.28906 665.938 6.33691 666.348 6.43262C666.762 6.52376 667.168 6.6582 667.564 6.83594L667.059 8.0459C666.717 7.89551 666.373 7.77246 666.026 7.67676C665.685 7.5765 665.336 7.52637 664.98 7.52637C664.566 7.52637 664.249 7.59017 664.03 7.71777C663.816 7.84538 663.709 8.02767 663.709 8.26465C663.709 8.44238 663.761 8.59277 663.866 8.71582C663.971 8.83887 664.151 8.96191 664.406 9.08496C664.666 9.20801 665.026 9.36068 665.486 9.54297C665.938 9.71615 666.327 9.89844 666.655 10.0898C666.988 10.2767 667.243 10.5068 667.421 10.7803C667.599 11.0537 667.688 11.4069 667.688 11.8398Z" fill="black"/>
<rect x="620" y="30" width="24" height="24" fill="#E292E4"/>
<path d="M656.44 43.4434V42.6484H659.104V43.4434H656.44ZM659.985 43.4434V42.6484H662.649V43.4434H659.985ZM667.838 44.3887C667.838 44.7646 667.743 45.0815 667.553 45.3394C667.367 45.5936 667.098 45.7852 666.748 45.9141C666.4 46.043 665.985 46.1074 665.501 46.1074C665.09 46.1074 664.733 46.0752 664.433 46.0107C664.132 45.9463 663.869 45.855 663.643 45.7368V44.915C663.883 45.0332 664.169 45.1406 664.502 45.2373C664.835 45.334 665.176 45.3823 665.523 45.3823C666.031 45.3823 666.4 45.3 666.629 45.1353C666.859 44.9705 666.973 44.7467 666.973 44.4639C666.973 44.3027 666.927 44.1613 666.833 44.0396C666.744 43.9142 666.592 43.7943 666.377 43.6797C666.162 43.5615 665.865 43.4326 665.485 43.293C665.109 43.1497 664.784 43.0083 664.508 42.8687C664.236 42.7254 664.024 42.5518 663.874 42.3477C663.727 42.1436 663.654 41.8786 663.654 41.5527C663.654 41.055 663.854 40.6737 664.255 40.4087C664.66 40.1401 665.19 40.0059 665.845 40.0059C666.2 40.0059 666.531 40.0417 666.839 40.1133C667.15 40.1813 667.44 40.2744 667.709 40.3926L667.408 41.1069C667.165 41.0031 666.905 40.9154 666.629 40.8438C666.354 40.7721 666.073 40.7363 665.786 40.7363C665.374 40.7363 665.057 40.8044 664.835 40.9404C664.617 41.0765 664.508 41.2627 664.508 41.499C664.508 41.6816 664.558 41.832 664.658 41.9502C664.762 42.0684 664.927 42.1794 665.152 42.2832C665.378 42.387 665.675 42.5088 666.044 42.6484C666.413 42.7845 666.731 42.9259 667 43.0728C667.269 43.216 667.474 43.3914 667.618 43.5991C667.764 43.8032 667.838 44.0664 667.838 44.3887ZM671.474 40.0166C672.176 40.0166 672.697 40.1742 673.037 40.4893C673.377 40.8044 673.547 41.3075 673.547 41.9985V46H672.897L672.726 45.1299H672.683C672.518 45.3447 672.346 45.5256 672.167 45.6724C671.988 45.8156 671.78 45.9248 671.544 46C671.311 46.0716 671.025 46.1074 670.685 46.1074C670.326 46.1074 670.008 46.0448 669.729 45.9194C669.453 45.7941 669.234 45.6043 669.073 45.3501C668.916 45.0959 668.837 44.7736 668.837 44.3833C668.837 43.7961 669.07 43.3449 669.535 43.0298C670.001 42.7147 670.71 42.5428 671.662 42.5142L672.677 42.4712V42.1113C672.677 41.6029 672.568 41.2466 672.35 41.0425C672.131 40.8384 671.823 40.7363 671.426 40.7363C671.118 40.7363 670.824 40.7811 670.545 40.8706C670.266 40.9601 670.001 41.0658 669.75 41.1875L669.476 40.5107C669.741 40.3747 670.045 40.2583 670.389 40.1616C670.733 40.0649 671.095 40.0166 671.474 40.0166ZM672.667 43.0996L671.77 43.1372C671.035 43.1659 670.518 43.2858 670.217 43.4971C669.917 43.7083 669.766 44.0073 669.766 44.394C669.766 44.7306 669.868 44.9795 670.072 45.1406C670.276 45.3018 670.547 45.3823 670.883 45.3823C671.406 45.3823 671.834 45.2373 672.167 44.9473C672.5 44.6572 672.667 44.2222 672.667 43.6421V43.0996ZM676.281 46H675.384V37.6426H676.281V46ZM680.068 45.377C680.215 45.377 680.365 45.3644 680.519 45.3394C680.673 45.3143 680.798 45.2839 680.895 45.248V45.9409C680.791 45.9875 680.646 46.0269 680.46 46.0591C680.277 46.0913 680.098 46.1074 679.923 46.1074C679.611 46.1074 679.328 46.0537 679.074 45.9463C678.82 45.8353 678.616 45.6491 678.462 45.3877C678.312 45.1263 678.236 44.7646 678.236 44.3027V40.8115H677.398V40.3765L678.242 40.0273L678.596 38.749H679.133V40.1133H680.857V40.8115H679.133V44.2759C679.133 44.6447 679.217 44.9204 679.386 45.103C679.558 45.2856 679.785 45.377 680.068 45.377ZM681.588 43.4434V42.6484H684.252V43.4434H681.588ZM689.44 44.3887C689.44 44.7646 689.346 45.0815 689.156 45.3394C688.97 45.5936 688.701 45.7852 688.35 45.9141C688.003 46.043 687.587 46.1074 687.104 46.1074C686.692 46.1074 686.336 46.0752 686.035 46.0107C685.734 45.9463 685.471 45.855 685.246 45.7368V44.915C685.486 45.0332 685.772 45.1406 686.105 45.2373C686.438 45.334 686.778 45.3823 687.125 45.3823C687.634 45.3823 688.003 45.3 688.232 45.1353C688.461 44.9705 688.576 44.7467 688.576 44.4639C688.576 44.3027 688.529 44.1613 688.436 44.0396C688.347 43.9142 688.194 43.7943 687.979 43.6797C687.765 43.5615 687.467 43.4326 687.088 43.293C686.712 43.1497 686.386 43.0083 686.11 42.8687C685.838 42.7254 685.627 42.5518 685.477 42.3477C685.33 42.1436 685.256 41.8786 685.256 41.5527C685.256 41.055 685.457 40.6737 685.858 40.4087C686.263 40.1401 686.792 40.0059 687.448 40.0059C687.802 40.0059 688.133 40.0417 688.441 40.1133C688.753 40.1813 689.043 40.2744 689.312 40.3926L689.011 41.1069C688.767 41.0031 688.508 40.9154 688.232 40.8438C687.956 40.7721 687.675 40.7363 687.389 40.7363C686.977 40.7363 686.66 40.8044 686.438 40.9404C686.22 41.0765 686.11 41.2627 686.11 41.499C686.11 41.6816 686.16 41.832 686.261 41.9502C686.365 42.0684 686.529 42.1794 686.755 42.2832C686.98 42.387 687.278 42.5088 687.646 42.6484C688.015 42.7845 688.334 42.9259 688.603 43.0728C688.871 43.216 689.077 43.3914 689.22 43.5991C689.367 43.8032 689.44 44.0664 689.44 44.3887ZM691.766 40.1133V46H690.875V40.1133H691.766ZM691.331 37.9111C691.478 37.9111 691.603 37.9595 691.707 38.0562C691.814 38.1493 691.868 38.2961 691.868 38.4966C691.868 38.6935 691.814 38.8403 691.707 38.937C691.603 39.0337 691.478 39.082 691.331 39.082C691.177 39.082 691.048 39.0337 690.944 38.937C690.844 38.8403 690.794 38.6935 690.794 38.4966C690.794 38.2961 690.844 38.1493 690.944 38.0562C691.048 37.9595 691.177 37.9111 691.331 37.9111ZM697.438 46H693.146V45.4092L696.375 40.8115H693.351V40.1133H697.368V40.7739L694.183 45.3071H697.438V46ZM701.08 40.0059C701.581 40.0059 702.011 40.1169 702.369 40.3389C702.727 40.5609 703.001 40.8724 703.19 41.2734C703.38 41.6709 703.475 42.1364 703.475 42.6699V43.2231H699.409C699.42 43.9142 699.592 44.4406 699.925 44.8022C700.258 45.1639 700.727 45.3447 701.332 45.3447C701.704 45.3447 702.034 45.3107 702.32 45.2427C702.607 45.1746 702.904 45.0744 703.212 44.9419V45.7261C702.915 45.8586 702.619 45.9552 702.326 46.0161C702.036 46.077 701.692 46.1074 701.294 46.1074C700.729 46.1074 700.235 45.9928 699.812 45.7637C699.393 45.5309 699.067 45.1908 698.834 44.7432C698.602 44.2956 698.485 43.7477 698.485 43.0996C698.485 42.4658 698.591 41.918 698.802 41.4561C699.017 40.9906 699.318 40.6325 699.705 40.3818C700.095 40.1312 700.553 40.0059 701.08 40.0059ZM701.069 40.7363C700.593 40.7363 700.213 40.8921 699.93 41.2036C699.647 41.5151 699.479 41.9502 699.425 42.5088H702.541C702.537 42.1579 702.481 41.8499 702.374 41.585C702.27 41.3164 702.111 41.1087 701.896 40.9619C701.681 40.8115 701.405 40.7363 701.069 40.7363ZM704.49 43.4434V42.6484H707.154V43.4434H704.49ZM709.426 40.1133V46H708.535V40.1133H709.426ZM708.991 37.9111C709.138 37.9111 709.263 37.9595 709.367 38.0562C709.475 38.1493 709.528 38.2961 709.528 38.4966C709.528 38.6935 709.475 38.8403 709.367 38.937C709.263 39.0337 709.138 39.082 708.991 39.082C708.837 39.082 708.708 39.0337 708.604 38.937C708.504 38.8403 708.454 38.6935 708.454 38.4966C708.454 38.2961 708.504 38.1493 708.604 38.0562C708.708 37.9595 708.837 37.9111 708.991 37.9111ZM713.675 46.1074C713.145 46.1074 712.678 45.9982 712.273 45.7798C711.868 45.5614 711.553 45.2284 711.328 44.7808C711.102 44.3332 710.989 43.7692 710.989 43.0889C710.989 42.3763 711.107 41.7944 711.344 41.3433C711.584 40.8885 711.913 40.5519 712.332 40.3335C712.751 40.1151 713.227 40.0059 713.761 40.0059C714.054 40.0059 714.337 40.0363 714.609 40.0972C714.885 40.1545 715.111 40.2279 715.286 40.3174L715.018 41.064C714.839 40.9924 714.631 40.9279 714.395 40.8706C714.162 40.8133 713.943 40.7847 713.739 40.7847C713.331 40.7847 712.991 40.8724 712.719 41.0479C712.45 41.2233 712.248 41.4811 712.112 41.8213C711.979 42.1615 711.913 42.5804 711.913 43.0781C711.913 43.5544 711.978 43.9608 712.106 44.2974C712.239 44.634 712.434 44.8918 712.692 45.0708C712.953 45.2463 713.279 45.334 713.669 45.334C713.981 45.334 714.262 45.3018 714.513 45.2373C714.763 45.1693 714.991 45.0905 715.195 45.001V45.7959C714.998 45.8962 714.778 45.9731 714.534 46.0269C714.294 46.0806 714.008 46.1074 713.675 46.1074ZM721.667 43.0459C721.667 43.5293 721.604 43.9608 721.479 44.3403C721.354 44.7199 721.173 45.0404 720.937 45.3018C720.7 45.5632 720.414 45.7637 720.077 45.9033C719.744 46.0394 719.366 46.1074 718.944 46.1074C718.55 46.1074 718.188 46.0394 717.859 45.9033C717.533 45.7637 717.25 45.5632 717.01 45.3018C716.774 45.0404 716.59 44.7199 716.457 44.3403C716.328 43.9608 716.264 43.5293 716.264 43.0459C716.264 42.4014 716.373 41.8535 716.591 41.4023C716.81 40.9476 717.121 40.6021 717.526 40.3657C717.934 40.1258 718.419 40.0059 718.981 40.0059C719.519 40.0059 719.988 40.1258 720.389 40.3657C720.793 40.6056 721.107 40.953 721.329 41.4077C721.554 41.8589 721.667 42.4049 721.667 43.0459ZM717.188 43.0459C717.188 43.5186 717.25 43.9285 717.375 44.2759C717.501 44.6232 717.694 44.8918 717.956 45.0815C718.217 45.2713 718.554 45.3662 718.965 45.3662C719.374 45.3662 719.708 45.2713 719.97 45.0815C720.235 44.8918 720.43 44.6232 720.555 44.2759C720.681 43.9285 720.743 43.5186 720.743 43.0459C720.743 42.5768 720.681 42.1722 720.555 41.832C720.43 41.4883 720.236 41.2233 719.975 41.0371C719.714 40.8509 719.375 40.7578 718.96 40.7578C718.348 40.7578 717.898 40.9601 717.612 41.3647C717.329 41.7694 717.188 42.3298 717.188 43.0459ZM725.996 40.0059C726.694 40.0059 727.222 40.1777 727.581 40.5215C727.939 40.8617 728.118 41.4095 728.118 42.165V46H727.237V42.2241C727.237 41.7336 727.124 41.3665 726.898 41.123C726.676 40.8796 726.334 40.7578 725.873 40.7578C725.221 40.7578 724.763 40.9422 724.498 41.311C724.233 41.6799 724.1 42.2152 724.1 42.917V46H723.208V40.1133H723.928L724.062 40.9619H724.111C724.236 40.7542 724.396 40.5806 724.589 40.4409C724.782 40.2977 724.999 40.1903 725.239 40.1187C725.479 40.0435 725.731 40.0059 725.996 40.0059Z" fill="black"/>
</svg>
