<svg width="776" height="92" viewBox="0 0 776 92" fill="none" xmlns="http://www.w3.org/2000/svg">
<circle cx="102" cy="38" r="14" fill="#2670A9"/>
<path d="M109 45V43.8379C109 43.3092 108.84 42.8398 108.521 42.4297C108.212 42.0195 107.815 41.7415 107.332 41.5957C107.223 41.5501 107.095 41.5046 106.949 41.459C106.813 41.4134 106.648 41.3633 106.457 41.3086C106.411 41.2995 106.357 41.2858 106.293 41.2676C106.229 41.2493 106.143 41.222 106.033 41.1855C105.951 41.1673 105.874 41.1491 105.801 41.1309C105.737 41.1035 105.673 41.0807 105.609 41.0625C104.999 40.8802 104.538 40.6706 104.229 40.4336C103.919 40.1966 103.727 39.8913 103.654 39.5176C103.928 39.235 104.178 38.8978 104.406 38.5059C104.634 38.1139 104.826 37.6947 104.98 37.248C105.145 36.8014 105.272 36.3457 105.363 35.8809C105.454 35.4069 105.5 34.9466 105.5 34.5C105.5 33.862 105.409 33.3197 105.227 32.873C105.044 32.4264 104.794 32.0664 104.475 31.793C104.156 31.5104 103.786 31.3099 103.367 31.1914C102.939 31.0638 102.483 31 102 31C101.517 31 101.061 31.0638 100.633 31.1914C100.214 31.3099 99.8444 31.5104 99.5254 31.793C99.2064 32.0664 98.9557 32.4264 98.7734 32.873C98.5911 33.3197 98.5 33.862 98.5 34.5C98.5 34.9466 98.5456 35.4069 98.6367 35.8809C98.7279 36.3457 98.8555 36.8014 99.0195 37.248C99.1745 37.6947 99.3659 38.1139 99.5938 38.5059C99.8216 38.8978 100.072 39.235 100.346 39.5176C100.273 39.8913 100.081 40.1966 99.7715 40.4336C99.4616 40.6706 99.0013 40.8802 98.3906 41.0625C98.3268 41.0807 98.263 41.1035 98.1992 41.1309C98.1263 41.1491 98.0488 41.1673 97.9668 41.1855C97.8574 41.222 97.7708 41.2493 97.707 41.2676C97.6432 41.2858 97.5885 41.2995 97.543 41.3086C97.3516 41.3633 97.1875 41.4134 97.0508 41.459C96.9049 41.5046 96.7773 41.5501 96.668 41.5957C96.1849 41.7415 95.7884 42.0195 95.4785 42.4297C95.1595 42.8398 95 43.3092 95 43.8379V45H109Z" fill="white"/>
<mask id="path-3-inside-1_3383_313357" fill="white">
<path d="M124 24H416V52H124V24Z"/>
</mask>
<path d="M124 24H416V52H124V24Z" fill="white"/>
<path d="M134.438 43L132 36.5781H133.043L134.455 40.4629C134.553 40.7285 134.652 41.0215 134.754 41.3418C134.855 41.6621 134.926 41.9199 134.965 42.1152H135.006C135.053 41.9199 135.131 41.6621 135.24 41.3418C135.35 41.0176 135.449 40.7246 135.539 40.4629L136.951 36.5781H137.994L135.551 43H134.438ZM141.428 36.4727C142.193 36.4727 142.762 36.6445 143.133 36.9883C143.504 37.332 143.689 37.8809 143.689 38.6348V43H142.98L142.793 42.0508H142.746C142.566 42.2852 142.379 42.4824 142.184 42.6426C141.988 42.7988 141.762 42.918 141.504 43C141.25 43.0781 140.938 43.1172 140.566 43.1172C140.176 43.1172 139.828 43.0488 139.523 42.9121C139.223 42.7754 138.984 42.5684 138.809 42.291C138.637 42.0137 138.551 41.6621 138.551 41.2363C138.551 40.5957 138.805 40.1035 139.312 39.7598C139.82 39.416 140.594 39.2285 141.633 39.1973L142.74 39.1504V38.7578C142.74 38.2031 142.621 37.8145 142.383 37.5918C142.145 37.3691 141.809 37.2578 141.375 37.2578C141.039 37.2578 140.719 37.3066 140.414 37.4043C140.109 37.502 139.82 37.6172 139.547 37.75L139.248 37.0117C139.537 36.8633 139.869 36.7363 140.244 36.6309C140.619 36.5254 141.014 36.4727 141.428 36.4727ZM142.729 39.8359L141.75 39.877C140.949 39.9082 140.385 40.0391 140.057 40.2695C139.729 40.5 139.564 40.8262 139.564 41.248C139.564 41.6152 139.676 41.8867 139.898 42.0625C140.121 42.2383 140.416 42.3262 140.783 42.3262C141.354 42.3262 141.82 42.168 142.184 41.8516C142.547 41.5352 142.729 41.0605 142.729 40.4277V39.8359ZM146.672 43H145.693V33.8828H146.672V43ZM154.031 36.5781V43H153.234L153.094 42.0977H153.041C152.908 42.3203 152.736 42.5078 152.525 42.6602C152.314 42.8125 152.076 42.9258 151.811 43C151.549 43.0781 151.27 43.1172 150.973 43.1172C150.465 43.1172 150.039 43.0352 149.695 42.8711C149.352 42.707 149.092 42.4531 148.916 42.1094C148.744 41.7656 148.658 41.3242 148.658 40.7852V36.5781H149.643V40.7148C149.643 41.25 149.764 41.6504 150.006 41.916C150.248 42.1777 150.617 42.3086 151.113 42.3086C151.59 42.3086 151.969 42.2188 152.25 42.0391C152.535 41.8594 152.74 41.5957 152.865 41.248C152.99 40.8965 153.053 40.4668 153.053 39.959V36.5781H154.031ZM158.561 36.4609C159.107 36.4609 159.576 36.582 159.967 36.8242C160.357 37.0664 160.656 37.4062 160.863 37.8438C161.07 38.2773 161.174 38.7852 161.174 39.3672V39.9707H156.738C156.75 40.7246 156.938 41.2988 157.301 41.6934C157.664 42.0879 158.176 42.2852 158.836 42.2852C159.242 42.2852 159.602 42.248 159.914 42.1738C160.227 42.0996 160.551 41.9902 160.887 41.8457V42.7012C160.562 42.8457 160.24 42.9512 159.92 43.0176C159.604 43.084 159.229 43.1172 158.795 43.1172C158.178 43.1172 157.639 42.9922 157.178 42.7422C156.721 42.4883 156.365 42.1172 156.111 41.6289C155.857 41.1406 155.73 40.543 155.73 39.8359C155.73 39.1445 155.846 38.5469 156.076 38.043C156.311 37.5352 156.639 37.1445 157.061 36.8711C157.486 36.5977 157.986 36.4609 158.561 36.4609ZM158.549 37.2578C158.029 37.2578 157.615 37.4277 157.307 37.7676C156.998 38.1074 156.814 38.582 156.756 39.1914H160.154C160.15 38.8086 160.09 38.4727 159.973 38.1836C159.859 37.8906 159.686 37.6641 159.451 37.5039C159.217 37.3398 158.916 37.2578 158.549 37.2578ZM168.018 42.3203C168.178 42.3203 168.342 42.3066 168.51 42.2793C168.678 42.252 168.814 42.2188 168.92 42.1797V42.9355C168.807 42.9863 168.648 43.0293 168.445 43.0645C168.246 43.0996 168.051 43.1172 167.859 43.1172C167.52 43.1172 167.211 43.0586 166.934 42.9414C166.656 42.8203 166.434 42.6172 166.266 42.332C166.102 42.0469 166.02 41.6523 166.02 41.1484V37.3398H165.105V36.8652L166.025 36.4844L166.412 35.0898H166.998V36.5781H168.879V37.3398H166.998V41.1191C166.998 41.5215 167.09 41.8223 167.273 42.0215C167.461 42.2207 167.709 42.3203 168.018 42.3203ZM172.693 36.4609C173.24 36.4609 173.709 36.582 174.1 36.8242C174.49 37.0664 174.789 37.4062 174.996 37.8438C175.203 38.2773 175.307 38.7852 175.307 39.3672V39.9707H170.871C170.883 40.7246 171.07 41.2988 171.434 41.6934C171.797 42.0879 172.309 42.2852 172.969 42.2852C173.375 42.2852 173.734 42.248 174.047 42.1738C174.359 42.0996 174.684 41.9902 175.02 41.8457V42.7012C174.695 42.8457 174.373 42.9512 174.053 43.0176C173.736 43.084 173.361 43.1172 172.928 43.1172C172.311 43.1172 171.771 42.9922 171.311 42.7422C170.854 42.4883 170.498 42.1172 170.244 41.6289C169.99 41.1406 169.863 40.543 169.863 39.8359C169.863 39.1445 169.979 38.5469 170.209 38.043C170.443 37.5352 170.771 37.1445 171.193 36.8711C171.619 36.5977 172.119 36.4609 172.693 36.4609ZM172.682 37.2578C172.162 37.2578 171.748 37.4277 171.439 37.7676C171.131 38.1074 170.947 38.582 170.889 39.1914H174.287C174.283 38.8086 174.223 38.4727 174.105 38.1836C173.992 37.8906 173.818 37.6641 173.584 37.5039C173.35 37.3398 173.049 37.2578 172.682 37.2578ZM178.488 39.7129L176.268 36.5781H177.381L179.074 39.0508L180.762 36.5781H181.863L179.643 39.7129L181.986 43H180.873L179.074 40.3809L177.264 43H176.162L178.488 39.7129ZM185.314 42.3203C185.475 42.3203 185.639 42.3066 185.807 42.2793C185.975 42.252 186.111 42.2188 186.217 42.1797V42.9355C186.104 42.9863 185.945 43.0293 185.742 43.0645C185.543 43.0996 185.348 43.1172 185.156 43.1172C184.816 43.1172 184.508 43.0586 184.23 42.9414C183.953 42.8203 183.73 42.6172 183.562 42.332C183.398 42.0469 183.316 41.6523 183.316 41.1484V37.3398H182.402V36.8652L183.322 36.4844L183.709 35.0898H184.295V36.5781H186.176V37.3398H184.295V41.1191C184.295 41.5215 184.387 41.8223 184.57 42.0215C184.758 42.2207 185.006 42.3203 185.314 42.3203Z" fill="#61656E"/>
<path d="M416 51H124V53H416V51Z" fill="#61656E" mask="url(#path-3-inside-1_3383_313357)"/>
<rect width="85" height="28" transform="translate(424 24)" fill="#C5C9D0"/>
<path fill-rule="evenodd" clip-rule="evenodd" d="M441.564 32.2929C441.173 31.9024 440.54 31.9024 440.149 32.2929L438.735 33.7071L442.271 37.2426L443.685 35.8284C444.076 35.4379 444.076 34.8047 443.685 34.4142L441.564 32.2929ZM441.21 33.3536C441.015 33.1583 440.698 33.1583 440.503 33.3536L440.149 33.7071L442.271 35.8284L442.624 35.4749C442.82 35.2796 442.82 34.963 442.624 34.7678L441.21 33.3536Z" fill="#161616"/>
<path d="M439.442 35.8284L440.149 36.5355L436.26 40.4246C436.065 40.6199 435.749 40.6199 435.553 40.4246C435.358 40.2294 435.358 39.9128 435.553 39.7175L439.442 35.8284Z" fill="#161616"/>
<path d="M440.857 37.2426L441.564 37.9497L437.321 42.1924L432 44L433.786 38.6569L437.993 34.4492L438.7 35.1563L434.669 39.1872L433.874 41.5737L434.404 42.104L436.791 41.3085L440.857 37.2426Z" fill="#161616"/>
<path d="M449.883 34.4336H452.432C453.537 34.4336 454.371 34.5938 454.934 34.9141C455.496 35.2344 455.777 35.7871 455.777 36.5723C455.777 36.9004 455.719 37.1973 455.602 37.4629C455.488 37.7246 455.322 37.9414 455.104 38.1133C454.885 38.2812 454.615 38.3945 454.295 38.4531V38.5117C454.627 38.5703 454.922 38.6738 455.18 38.8223C455.441 38.9707 455.646 39.1836 455.795 39.4609C455.947 39.7383 456.023 40.0977 456.023 40.5391C456.023 41.0625 455.898 41.5078 455.648 41.875C455.402 42.2422 455.049 42.5215 454.588 42.7129C454.131 42.9043 453.588 43 452.959 43H449.883V34.4336ZM451.289 37.9668H452.637C453.273 37.9668 453.715 37.8633 453.961 37.6562C454.207 37.4492 454.33 37.1465 454.33 36.748C454.33 36.3418 454.184 36.0488 453.891 35.8691C453.602 35.6895 453.141 35.5996 452.508 35.5996H451.289V37.9668ZM451.289 39.1035V41.8223H452.771C453.428 41.8223 453.889 41.6953 454.154 41.4414C454.42 41.1875 454.553 40.8438 454.553 40.4102C454.553 40.1445 454.492 39.9141 454.371 39.7188C454.254 39.5234 454.061 39.373 453.791 39.2676C453.521 39.1582 453.158 39.1035 452.701 39.1035H451.289ZM465.12 34.4336V39.9766C465.12 40.5742 464.993 41.1094 464.739 41.582C464.489 42.0547 464.11 42.4297 463.602 42.707C463.094 42.9805 462.455 43.1172 461.686 43.1172C460.588 43.1172 459.752 42.8301 459.178 42.2559C458.608 41.6777 458.323 40.9102 458.323 39.9531V34.4336H459.729V39.8301C459.729 40.5449 459.897 41.0723 460.233 41.4121C460.569 41.752 461.071 41.9219 461.739 41.9219C462.2 41.9219 462.575 41.8418 462.864 41.6816C463.157 41.5176 463.371 41.2793 463.508 40.9668C463.649 40.6504 463.719 40.2695 463.719 39.8242V34.4336H465.12ZM470.882 43H469.47V35.6289H466.962V34.4336H473.384V35.6289H470.882V43ZM478.267 43H476.855V35.6289H474.347V34.4336H480.769V35.6289H478.267V43ZM490.287 38.7051C490.287 39.3652 490.203 39.9668 490.035 40.5098C489.871 41.0488 489.623 41.5137 489.291 41.9043C488.959 42.291 488.543 42.5898 488.043 42.8008C487.543 43.0117 486.957 43.1172 486.285 43.1172C485.601 43.1172 485.007 43.0117 484.504 42.8008C484.004 42.5898 483.588 42.2891 483.255 41.8984C482.927 41.5078 482.681 41.041 482.517 40.498C482.353 39.9551 482.271 39.3535 482.271 38.6934C482.271 37.8105 482.416 37.041 482.705 36.3848C482.998 35.7246 483.441 35.2129 484.035 34.8496C484.632 34.4824 485.386 34.2988 486.296 34.2988C487.187 34.2988 487.927 34.4805 488.517 34.8438C489.107 35.207 489.548 35.7188 489.841 36.3789C490.138 37.0352 490.287 37.8105 490.287 38.7051ZM483.748 38.7051C483.748 39.3652 483.838 39.9375 484.017 40.4219C484.197 40.9023 484.472 41.2734 484.843 41.5352C485.218 41.793 485.699 41.9219 486.285 41.9219C486.875 41.9219 487.355 41.793 487.726 41.5352C488.097 41.2734 488.371 40.9023 488.546 40.4219C488.722 39.9375 488.81 39.3652 488.81 38.7051C488.81 37.7012 488.609 36.916 488.207 36.3496C487.808 35.7793 487.171 35.4941 486.296 35.4941C485.711 35.4941 485.228 35.623 484.849 35.8809C484.474 36.1387 484.197 36.5078 484.017 36.9883C483.838 37.4648 483.748 38.0371 483.748 38.7051ZM499.875 43H498.146L493.951 36.1621H493.898C493.914 36.3926 493.928 36.6367 493.939 36.8945C493.955 37.1523 493.967 37.418 493.975 37.6914C493.986 37.9648 493.996 38.2422 494.004 38.5234V43H492.727V34.4336H494.443L498.633 41.2246H498.674C498.666 41.0254 498.656 40.7969 498.645 40.5391C498.633 40.2812 498.621 40.0156 498.609 39.7422C498.602 39.4648 498.596 39.1973 498.592 38.9395V34.4336H499.875V43Z" fill="#161616"/>
<path d="M633.778 25H632.131V16.4004H629.205V15.0059H636.697V16.4004H633.778V25ZM644.764 21.1992C644.764 21.8281 644.682 22.3864 644.518 22.874C644.354 23.3617 644.114 23.7741 643.8 24.1113C643.485 24.444 643.107 24.6992 642.665 24.877C642.223 25.0501 641.724 25.1367 641.168 25.1367C640.648 25.1367 640.172 25.0501 639.739 24.877C639.306 24.6992 638.93 24.444 638.611 24.1113C638.297 23.7741 638.053 23.3617 637.88 22.874C637.707 22.3864 637.62 21.8281 637.62 21.1992C637.62 20.3652 637.764 19.6589 638.051 19.0801C638.342 18.4967 638.757 18.0524 639.295 17.7471C639.833 17.4417 640.473 17.2891 641.216 17.2891C641.913 17.2891 642.528 17.4417 643.062 17.7471C643.595 18.0524 644.012 18.4967 644.312 19.0801C644.613 19.6634 644.764 20.3698 644.764 21.1992ZM639.274 21.1992C639.274 21.7507 639.34 22.2223 639.473 22.6143C639.609 23.0062 639.819 23.307 640.102 23.5166C640.384 23.7217 640.749 23.8242 641.195 23.8242C641.642 23.8242 642.007 23.7217 642.289 23.5166C642.572 23.307 642.779 23.0062 642.911 22.6143C643.043 22.2223 643.109 21.7507 643.109 21.1992C643.109 20.6478 643.043 20.1807 642.911 19.7979C642.779 19.4105 642.572 19.1165 642.289 18.916C642.007 18.7109 641.64 18.6084 641.188 18.6084C640.523 18.6084 640.038 18.8317 639.732 19.2783C639.427 19.7249 639.274 20.3652 639.274 21.1992ZM648.216 14.3633V19.5039C648.216 19.7363 648.207 19.9915 648.188 20.2695C648.17 20.543 648.152 20.8005 648.134 21.042H648.168C648.286 20.8825 648.428 20.6956 648.592 20.4814C648.76 20.2673 648.92 20.0804 649.07 19.9209L651.381 17.4326H653.227L650.198 20.6865L653.425 25H651.538L649.118 21.6777L648.216 22.4502V25H646.609V14.3633H648.216ZM657.649 17.2891C658.324 17.2891 658.903 17.4281 659.386 17.7061C659.869 17.984 660.24 18.3783 660.5 18.8887C660.76 19.3991 660.89 20.0098 660.89 20.7207V21.582H655.838C655.856 22.3158 656.052 22.8809 656.426 23.2773C656.804 23.6738 657.333 23.8721 658.012 23.8721C658.495 23.8721 658.928 23.8265 659.311 23.7354C659.698 23.6396 660.097 23.5007 660.507 23.3184V24.624C660.129 24.8018 659.743 24.9316 659.352 25.0137C658.96 25.0957 658.49 25.1367 657.943 25.1367C657.201 25.1367 656.547 24.9932 655.981 24.7061C655.421 24.4144 654.981 23.9814 654.662 23.4072C654.348 22.833 654.19 22.1198 654.19 21.2676C654.19 20.4199 654.334 19.6999 654.621 19.1074C654.908 18.515 655.312 18.0638 655.831 17.7539C656.351 17.444 656.957 17.2891 657.649 17.2891ZM657.649 18.499C657.144 18.499 656.733 18.6631 656.419 18.9912C656.109 19.3193 655.927 19.8001 655.872 20.4336H659.317C659.313 20.0553 659.249 19.7204 659.126 19.4287C659.007 19.137 658.825 18.9092 658.579 18.7451C658.338 18.5811 658.028 18.499 657.649 18.499ZM666.646 17.2891C667.498 17.2891 668.161 17.5101 668.635 17.9521C669.113 18.3896 669.353 19.0938 669.353 20.0645V25H667.746V20.3652C667.746 19.7773 667.625 19.3376 667.384 19.0459C667.142 18.7497 666.769 18.6016 666.263 18.6016C665.529 18.6016 665.019 18.8271 664.731 19.2783C664.449 19.7295 664.308 20.3835 664.308 21.2402V25H662.701V17.4326H663.952L664.178 18.458H664.267C664.431 18.1937 664.633 17.9772 664.875 17.8086C665.121 17.6354 665.395 17.5055 665.695 17.4189C666.001 17.3324 666.317 17.2891 666.646 17.2891ZM676.688 22.8398C676.688 23.3366 676.567 23.7559 676.325 24.0977C676.084 24.4395 675.73 24.6992 675.266 24.877C674.805 25.0501 674.24 25.1367 673.57 25.1367C673.042 25.1367 672.586 25.098 672.203 25.0205C671.825 24.9476 671.467 24.8337 671.13 24.6787V23.291C671.49 23.4596 671.893 23.6055 672.34 23.7285C672.791 23.8516 673.217 23.9131 673.618 23.9131C674.147 23.9131 674.527 23.8311 674.76 23.667C674.992 23.4984 675.108 23.2751 675.108 22.9971C675.108 22.833 675.061 22.6872 674.965 22.5596C674.874 22.4274 674.701 22.293 674.445 22.1562C674.195 22.015 673.826 21.8464 673.338 21.6504C672.859 21.459 672.456 21.2676 672.128 21.0762C671.8 20.8848 671.551 20.6546 671.383 20.3857C671.214 20.1123 671.13 19.7637 671.13 19.3398C671.13 18.6699 671.394 18.1618 671.923 17.8154C672.456 17.4645 673.16 17.2891 674.035 17.2891C674.5 17.2891 674.938 17.3369 675.348 17.4326C675.762 17.5238 676.168 17.6582 676.564 17.8359L676.059 19.0459C675.717 18.8955 675.373 18.7725 675.026 18.6768C674.685 18.5765 674.336 18.5264 673.98 18.5264C673.566 18.5264 673.249 18.5902 673.03 18.7178C672.816 18.8454 672.709 19.0277 672.709 19.2646C672.709 19.4424 672.761 19.5928 672.866 19.7158C672.971 19.8389 673.151 19.9619 673.406 20.085C673.666 20.208 674.026 20.3607 674.486 20.543C674.938 20.7161 675.327 20.8984 675.655 21.0898C675.988 21.2767 676.243 21.5068 676.421 21.7803C676.599 22.0537 676.688 22.4069 676.688 22.8398Z" fill="black"/>
<rect x="629" y="41" width="24" height="24" fill="#FAE4E1"/>
<path d="M665.44 54.4434V53.6484H668.104V54.4434H665.44ZM668.985 54.4434V53.6484H671.649V54.4434H668.985ZM676.838 55.3887C676.838 55.7646 676.743 56.0815 676.553 56.3394C676.367 56.5936 676.098 56.7852 675.748 56.9141C675.4 57.043 674.985 57.1074 674.501 57.1074C674.09 57.1074 673.733 57.0752 673.433 57.0107C673.132 56.9463 672.869 56.855 672.643 56.7368V55.915C672.883 56.0332 673.169 56.1406 673.502 56.2373C673.835 56.334 674.176 56.3823 674.523 56.3823C675.031 56.3823 675.4 56.3 675.629 56.1353C675.859 55.9705 675.973 55.7467 675.973 55.4639C675.973 55.3027 675.927 55.1613 675.833 55.0396C675.744 54.9142 675.592 54.7943 675.377 54.6797C675.162 54.5615 674.865 54.4326 674.485 54.293C674.109 54.1497 673.784 54.0083 673.508 53.8687C673.236 53.7254 673.024 53.5518 672.874 53.3477C672.727 53.1436 672.654 52.8786 672.654 52.5527C672.654 52.055 672.854 51.6737 673.255 51.4087C673.66 51.1401 674.19 51.0059 674.845 51.0059C675.2 51.0059 675.531 51.0417 675.839 51.1133C676.15 51.1813 676.44 51.2744 676.709 51.3926L676.408 52.1069C676.165 52.0031 675.905 51.9154 675.629 51.8438C675.354 51.7721 675.073 51.7363 674.786 51.7363C674.374 51.7363 674.057 51.8044 673.835 51.9404C673.617 52.0765 673.508 52.2627 673.508 52.499C673.508 52.6816 673.558 52.832 673.658 52.9502C673.762 53.0684 673.927 53.1794 674.152 53.2832C674.378 53.387 674.675 53.5088 675.044 53.6484C675.413 53.7845 675.731 53.9259 676 54.0728C676.269 54.216 676.474 54.3914 676.618 54.5991C676.764 54.8032 676.838 55.0664 676.838 55.3887ZM680.474 51.0166C681.176 51.0166 681.697 51.1742 682.037 51.4893C682.377 51.8044 682.547 52.3075 682.547 52.9985V57H681.897L681.726 56.1299H681.683C681.518 56.3447 681.346 56.5256 681.167 56.6724C680.988 56.8156 680.78 56.9248 680.544 57C680.311 57.0716 680.025 57.1074 679.685 57.1074C679.326 57.1074 679.008 57.0448 678.729 56.9194C678.453 56.7941 678.234 56.6043 678.073 56.3501C677.916 56.0959 677.837 55.7736 677.837 55.3833C677.837 54.7961 678.07 54.3449 678.535 54.0298C679.001 53.7147 679.71 53.5428 680.662 53.5142L681.677 53.4712V53.1113C681.677 52.6029 681.568 52.2466 681.35 52.0425C681.131 51.8384 680.823 51.7363 680.426 51.7363C680.118 51.7363 679.824 51.7811 679.545 51.8706C679.266 51.9601 679.001 52.0658 678.75 52.1875L678.476 51.5107C678.741 51.3747 679.045 51.2583 679.389 51.1616C679.733 51.0649 680.095 51.0166 680.474 51.0166ZM681.667 54.0996L680.77 54.1372C680.035 54.1659 679.518 54.2858 679.217 54.4971C678.917 54.7083 678.766 55.0073 678.766 55.394C678.766 55.7306 678.868 55.9795 679.072 56.1406C679.276 56.3018 679.547 56.3823 679.883 56.3823C680.406 56.3823 680.834 56.2373 681.167 55.9473C681.5 55.6572 681.667 55.2222 681.667 54.6421V54.0996ZM685.281 57H684.384V48.6426H685.281V57ZM689.068 56.377C689.215 56.377 689.365 56.3644 689.519 56.3394C689.673 56.3143 689.798 56.2839 689.895 56.248V56.9409C689.791 56.9875 689.646 57.0269 689.46 57.0591C689.277 57.0913 689.098 57.1074 688.923 57.1074C688.611 57.1074 688.328 57.0537 688.074 56.9463C687.82 56.8353 687.616 56.6491 687.462 56.3877C687.312 56.1263 687.236 55.7646 687.236 55.3027V51.8115H686.398V51.3765L687.242 51.0273L687.596 49.749H688.133V51.1133H689.857V51.8115H688.133V55.2759C688.133 55.6447 688.217 55.9204 688.386 56.103C688.558 56.2856 688.785 56.377 689.068 56.377ZM690.588 54.4434V53.6484H693.252V54.4434H690.588ZM698.44 55.3887C698.44 55.7646 698.346 56.0815 698.156 56.3394C697.97 56.5936 697.701 56.7852 697.35 56.9141C697.003 57.043 696.587 57.1074 696.104 57.1074C695.692 57.1074 695.336 57.0752 695.035 57.0107C694.734 56.9463 694.471 56.855 694.246 56.7368V55.915C694.486 56.0332 694.772 56.1406 695.105 56.2373C695.438 56.334 695.778 56.3823 696.125 56.3823C696.634 56.3823 697.003 56.3 697.232 56.1353C697.461 55.9705 697.576 55.7467 697.576 55.4639C697.576 55.3027 697.529 55.1613 697.436 55.0396C697.347 54.9142 697.194 54.7943 696.979 54.6797C696.765 54.5615 696.467 54.4326 696.088 54.293C695.712 54.1497 695.386 54.0083 695.11 53.8687C694.838 53.7254 694.627 53.5518 694.477 53.3477C694.33 53.1436 694.256 52.8786 694.256 52.5527C694.256 52.055 694.457 51.6737 694.858 51.4087C695.263 51.1401 695.792 51.0059 696.448 51.0059C696.802 51.0059 697.133 51.0417 697.441 51.1133C697.753 51.1813 698.043 51.2744 698.312 51.3926L698.011 52.1069C697.767 52.0031 697.508 51.9154 697.232 51.8438C696.956 51.7721 696.675 51.7363 696.389 51.7363C695.977 51.7363 695.66 51.8044 695.438 51.9404C695.22 52.0765 695.11 52.2627 695.11 52.499C695.11 52.6816 695.16 52.832 695.261 52.9502C695.365 53.0684 695.529 53.1794 695.755 53.2832C695.98 53.387 696.278 53.5088 696.646 53.6484C697.015 53.7845 697.334 53.9259 697.603 54.0728C697.871 54.216 698.077 54.3914 698.22 54.5991C698.367 54.8032 698.44 55.0664 698.44 55.3887ZM700.766 51.1133V57H699.875V51.1133H700.766ZM700.331 48.9111C700.478 48.9111 700.603 48.9595 700.707 49.0562C700.814 49.1493 700.868 49.2961 700.868 49.4966C700.868 49.6935 700.814 49.8403 700.707 49.937C700.603 50.0337 700.478 50.082 700.331 50.082C700.177 50.082 700.048 50.0337 699.944 49.937C699.844 49.8403 699.794 49.6935 699.794 49.4966C699.794 49.2961 699.844 49.1493 699.944 49.0562C700.048 48.9595 700.177 48.9111 700.331 48.9111ZM706.438 57H702.146V56.4092L705.375 51.8115H702.351V51.1133H706.368V51.7739L703.183 56.3071H706.438V57ZM710.08 51.0059C710.581 51.0059 711.011 51.1169 711.369 51.3389C711.727 51.5609 712.001 51.8724 712.19 52.2734C712.38 52.6709 712.475 53.1364 712.475 53.6699V54.2231H708.409C708.42 54.9142 708.592 55.4406 708.925 55.8022C709.258 56.1639 709.727 56.3447 710.332 56.3447C710.704 56.3447 711.034 56.3107 711.32 56.2427C711.607 56.1746 711.904 56.0744 712.212 55.9419V56.7261C711.915 56.8586 711.619 56.9552 711.326 57.0161C711.036 57.077 710.692 57.1074 710.294 57.1074C709.729 57.1074 709.235 56.9928 708.812 56.7637C708.393 56.5309 708.067 56.1908 707.834 55.7432C707.602 55.2956 707.485 54.7477 707.485 54.0996C707.485 53.4658 707.591 52.918 707.802 52.4561C708.017 51.9906 708.318 51.6325 708.705 51.3818C709.095 51.1312 709.553 51.0059 710.08 51.0059ZM710.069 51.7363C709.593 51.7363 709.213 51.8921 708.93 52.2036C708.647 52.5151 708.479 52.9502 708.425 53.5088H711.541C711.537 53.1579 711.481 52.8499 711.374 52.585C711.27 52.3164 711.111 52.1087 710.896 51.9619C710.681 51.8115 710.405 51.7363 710.069 51.7363ZM713.49 54.4434V53.6484H716.154V54.4434H713.49ZM718.426 48.6426V50.7319C718.426 50.9718 718.419 51.2046 718.405 51.4302C718.394 51.6558 718.385 51.8312 718.378 51.9565H718.426C718.587 51.6916 718.82 51.4678 719.125 51.2852C719.429 51.1025 719.817 51.0112 720.29 51.0112C721.028 51.0112 721.615 51.2673 722.052 51.7793C722.492 52.2878 722.712 53.0451 722.712 54.0513C722.712 54.7137 722.612 55.2723 722.412 55.7271C722.211 56.1818 721.928 56.5256 721.563 56.7583C721.198 56.991 720.766 57.1074 720.269 57.1074C719.803 57.1074 719.42 57.0215 719.119 56.8496C718.822 56.6742 718.593 56.4611 718.432 56.2104H718.362L718.179 57H717.535V48.6426H718.426ZM720.145 51.7578C719.719 51.7578 719.381 51.842 719.13 52.0103C718.879 52.175 718.698 52.4256 718.587 52.7622C718.48 53.0952 718.426 53.5177 718.426 54.0298V54.0781C718.426 54.8193 718.55 55.3869 718.797 55.7808C719.044 56.1711 719.493 56.3662 720.145 56.3662C720.693 56.3662 721.103 56.1657 721.375 55.7646C721.651 55.3636 721.789 54.7907 721.789 54.0459C721.789 53.2868 721.653 52.7157 721.38 52.3325C721.112 51.9494 720.7 51.7578 720.145 51.7578ZM726.472 51.0166C727.174 51.0166 727.695 51.1742 728.035 51.4893C728.375 51.8044 728.545 52.3075 728.545 52.9985V57H727.896L727.724 56.1299H727.681C727.516 56.3447 727.344 56.5256 727.165 56.6724C726.986 56.8156 726.778 56.9248 726.542 57C726.309 57.0716 726.023 57.1074 725.683 57.1074C725.325 57.1074 725.006 57.0448 724.727 56.9194C724.451 56.7941 724.232 56.6043 724.071 56.3501C723.914 56.0959 723.835 55.7736 723.835 55.3833C723.835 54.7961 724.068 54.3449 724.533 54.0298C724.999 53.7147 725.708 53.5428 726.66 53.5142L727.675 53.4712V53.1113C727.675 52.6029 727.566 52.2466 727.348 52.0425C727.129 51.8384 726.821 51.7363 726.424 51.7363C726.116 51.7363 725.822 51.7811 725.543 51.8706C725.264 51.9601 724.999 52.0658 724.748 52.1875L724.474 51.5107C724.739 51.3747 725.043 51.2583 725.387 51.1616C725.731 51.0649 726.093 51.0166 726.472 51.0166ZM727.665 54.0996L726.768 54.1372C726.034 54.1659 725.516 54.2858 725.215 54.4971C724.915 54.7083 724.764 55.0073 724.764 55.394C724.764 55.7306 724.866 55.9795 725.07 56.1406C725.274 56.3018 725.545 56.3823 725.881 56.3823C726.404 56.3823 726.832 56.2373 727.165 55.9473C727.498 55.6572 727.665 55.2222 727.665 54.6421V54.0996ZM734.19 55.3887C734.19 55.7646 734.096 56.0815 733.906 56.3394C733.72 56.5936 733.451 56.7852 733.1 56.9141C732.753 57.043 732.337 57.1074 731.854 57.1074C731.442 57.1074 731.086 57.0752 730.785 57.0107C730.484 56.9463 730.221 56.855 729.996 56.7368V55.915C730.236 56.0332 730.522 56.1406 730.855 56.2373C731.188 56.334 731.528 56.3823 731.875 56.3823C732.384 56.3823 732.753 56.3 732.982 56.1353C733.211 55.9705 733.326 55.7467 733.326 55.4639C733.326 55.3027 733.279 55.1613 733.186 55.0396C733.097 54.9142 732.944 54.7943 732.729 54.6797C732.515 54.5615 732.217 54.4326 731.838 54.293C731.462 54.1497 731.136 54.0083 730.86 53.8687C730.588 53.7254 730.377 53.5518 730.227 53.3477C730.08 53.1436 730.006 52.8786 730.006 52.5527C730.006 52.055 730.207 51.6737 730.608 51.4087C731.013 51.1401 731.542 51.0059 732.198 51.0059C732.552 51.0059 732.883 51.0417 733.191 51.1133C733.503 51.1813 733.793 51.2744 734.062 51.3926L733.761 52.1069C733.517 52.0031 733.258 51.9154 732.982 51.8438C732.706 51.7721 732.425 51.7363 732.139 51.7363C731.727 51.7363 731.41 51.8044 731.188 51.9404C730.97 52.0765 730.86 52.2627 730.86 52.499C730.86 52.6816 730.91 52.832 731.011 52.9502C731.115 53.0684 731.279 53.1794 731.505 53.2832C731.73 53.387 732.028 53.5088 732.396 53.6484C732.765 53.7845 733.084 53.9259 733.353 54.0728C733.621 54.216 733.827 54.3914 733.97 54.5991C734.117 54.8032 734.19 55.0664 734.19 55.3887ZM737.891 51.0059C738.392 51.0059 738.822 51.1169 739.18 51.3389C739.538 51.5609 739.812 51.8724 740.002 52.2734C740.192 52.6709 740.287 53.1364 740.287 53.6699V54.2231H736.221C736.231 54.9142 736.403 55.4406 736.736 55.8022C737.069 56.1639 737.538 56.3447 738.144 56.3447C738.516 56.3447 738.845 56.3107 739.132 56.2427C739.418 56.1746 739.715 56.0744 740.023 55.9419V56.7261C739.726 56.8586 739.431 56.9552 739.137 57.0161C738.847 57.077 738.503 57.1074 738.106 57.1074C737.54 57.1074 737.046 56.9928 736.624 56.7637C736.205 56.5309 735.879 56.1908 735.646 55.7432C735.413 55.2956 735.297 54.7477 735.297 54.0996C735.297 53.4658 735.403 52.918 735.614 52.4561C735.829 51.9906 736.129 51.6325 736.516 51.3818C736.906 51.1312 737.365 51.0059 737.891 51.0059ZM737.88 51.7363C737.404 51.7363 737.025 51.8921 736.742 52.2036C736.459 52.5151 736.291 52.9502 736.237 53.5088H739.352C739.348 53.1579 739.293 52.8499 739.186 52.585C739.082 52.3164 738.922 52.1087 738.708 51.9619C738.493 51.8115 738.217 51.7363 737.88 51.7363Z" fill="black"/>
</svg>
