<svg width="776" height="160" viewBox="0 0 776 160" fill="none" xmlns="http://www.w3.org/2000/svg">
<path d="M624.778 14H623.131V5.40039H620.205V4.00586H627.697V5.40039H624.778V14ZM635.764 10.1992C635.764 10.8281 635.682 11.3864 635.518 11.874C635.354 12.3617 635.114 12.7741 634.8 13.1113C634.485 13.444 634.107 13.6992 633.665 13.877C633.223 14.0501 632.724 14.1367 632.168 14.1367C631.648 14.1367 631.172 14.0501 630.739 13.877C630.306 13.6992 629.93 13.444 629.611 13.1113C629.297 12.7741 629.053 12.3617 628.88 11.874C628.707 11.3864 628.62 10.8281 628.62 10.1992C628.62 9.36523 628.764 8.65885 629.051 8.08008C629.342 7.49674 629.757 7.05241 630.295 6.74707C630.833 6.44173 631.473 6.28906 632.216 6.28906C632.913 6.28906 633.528 6.44173 634.062 6.74707C634.595 7.05241 635.012 7.49674 635.312 8.08008C635.613 8.66341 635.764 9.36979 635.764 10.1992ZM630.274 10.1992C630.274 10.7507 630.34 11.2223 630.473 11.6143C630.609 12.0062 630.819 12.307 631.102 12.5166C631.384 12.7217 631.749 12.8242 632.195 12.8242C632.642 12.8242 633.007 12.7217 633.289 12.5166C633.572 12.307 633.779 12.0062 633.911 11.6143C634.043 11.2223 634.109 10.7507 634.109 10.1992C634.109 9.64779 634.043 9.18066 633.911 8.79785C633.779 8.41048 633.572 8.11654 633.289 7.91602C633.007 7.71094 632.64 7.6084 632.188 7.6084C631.523 7.6084 631.038 7.83171 630.732 8.27832C630.427 8.72493 630.274 9.36523 630.274 10.1992ZM639.216 3.36328V8.50391C639.216 8.73633 639.207 8.99154 639.188 9.26953C639.17 9.54297 639.152 9.80046 639.134 10.042H639.168C639.286 9.88249 639.428 9.69564 639.592 9.48145C639.76 9.26725 639.92 9.0804 640.07 8.9209L642.381 6.43262H644.227L641.198 9.68652L644.425 14H642.538L640.118 10.6777L639.216 11.4502V14H637.609V3.36328H639.216ZM648.649 6.28906C649.324 6.28906 649.903 6.42806 650.386 6.70605C650.869 6.98405 651.24 7.37826 651.5 7.88867C651.76 8.39909 651.89 9.00977 651.89 9.7207V10.582H646.838C646.856 11.3158 647.052 11.8809 647.426 12.2773C647.804 12.6738 648.333 12.8721 649.012 12.8721C649.495 12.8721 649.928 12.8265 650.311 12.7354C650.698 12.6396 651.097 12.5007 651.507 12.3184V13.624C651.129 13.8018 650.743 13.9316 650.352 14.0137C649.96 14.0957 649.49 14.1367 648.943 14.1367C648.201 14.1367 647.547 13.9932 646.981 13.7061C646.421 13.4144 645.981 12.9814 645.662 12.4072C645.348 11.833 645.19 11.1198 645.19 10.2676C645.19 9.41992 645.334 8.69987 645.621 8.10742C645.908 7.51497 646.312 7.0638 646.831 6.75391C647.351 6.44401 647.957 6.28906 648.649 6.28906ZM648.649 7.49902C648.144 7.49902 647.733 7.66309 647.419 7.99121C647.109 8.31934 646.927 8.80013 646.872 9.43359H650.317C650.313 9.05534 650.249 8.72038 650.126 8.42871C650.007 8.13704 649.825 7.90918 649.579 7.74512C649.338 7.58105 649.028 7.49902 648.649 7.49902ZM657.646 6.28906C658.498 6.28906 659.161 6.51009 659.635 6.95215C660.113 7.38965 660.353 8.09375 660.353 9.06445V14H658.746V9.36523C658.746 8.77734 658.625 8.33757 658.384 8.0459C658.142 7.74967 657.769 7.60156 657.263 7.60156C656.529 7.60156 656.019 7.82715 655.731 8.27832C655.449 8.72949 655.308 9.38346 655.308 10.2402V14H653.701V6.43262H654.952L655.178 7.45801H655.267C655.431 7.19368 655.633 6.97721 655.875 6.80859C656.121 6.63542 656.395 6.50553 656.695 6.41895C657.001 6.33236 657.317 6.28906 657.646 6.28906ZM667.688 11.8398C667.688 12.3366 667.567 12.7559 667.325 13.0977C667.084 13.4395 666.73 13.6992 666.266 13.877C665.805 14.0501 665.24 14.1367 664.57 14.1367C664.042 14.1367 663.586 14.098 663.203 14.0205C662.825 13.9476 662.467 13.8337 662.13 13.6787V12.291C662.49 12.4596 662.893 12.6055 663.34 12.7285C663.791 12.8516 664.217 12.9131 664.618 12.9131C665.147 12.9131 665.527 12.8311 665.76 12.667C665.992 12.4984 666.108 12.2751 666.108 11.9971C666.108 11.833 666.061 11.6872 665.965 11.5596C665.874 11.4274 665.701 11.293 665.445 11.1562C665.195 11.015 664.826 10.8464 664.338 10.6504C663.859 10.459 663.456 10.2676 663.128 10.0762C662.8 9.88477 662.551 9.65462 662.383 9.38574C662.214 9.1123 662.13 8.76367 662.13 8.33984C662.13 7.66992 662.394 7.16178 662.923 6.81543C663.456 6.46452 664.16 6.28906 665.035 6.28906C665.5 6.28906 665.938 6.33691 666.348 6.43262C666.762 6.52376 667.168 6.6582 667.564 6.83594L667.059 8.0459C666.717 7.89551 666.373 7.77246 666.026 7.67676C665.685 7.5765 665.336 7.52637 664.98 7.52637C664.566 7.52637 664.249 7.59017 664.03 7.71777C663.816 7.84538 663.709 8.02767 663.709 8.26465C663.709 8.44238 663.761 8.59277 663.866 8.71582C663.971 8.83887 664.151 8.96191 664.406 9.08496C664.666 9.20801 665.026 9.36068 665.486 9.54297C665.938 9.71615 666.327 9.89844 666.655 10.0898C666.988 10.2767 667.243 10.5068 667.421 10.7803C667.599 11.0537 667.688 11.4069 667.688 11.8398Z" fill="black"/>
<rect x="620" y="30" width="24" height="24" fill="#E292E4"/>
<path d="M656.44 43.4434V42.6484H659.104V43.4434H656.44ZM659.985 43.4434V42.6484H662.649V43.4434H659.985ZM667.838 44.3887C667.838 44.7646 667.743 45.0815 667.553 45.3394C667.367 45.5936 667.098 45.7852 666.748 45.9141C666.4 46.043 665.985 46.1074 665.501 46.1074C665.09 46.1074 664.733 46.0752 664.433 46.0107C664.132 45.9463 663.869 45.855 663.643 45.7368V44.915C663.883 45.0332 664.169 45.1406 664.502 45.2373C664.835 45.334 665.176 45.3823 665.523 45.3823C666.031 45.3823 666.4 45.3 666.629 45.1353C666.859 44.9705 666.973 44.7467 666.973 44.4639C666.973 44.3027 666.927 44.1613 666.833 44.0396C666.744 43.9142 666.592 43.7943 666.377 43.6797C666.162 43.5615 665.865 43.4326 665.485 43.293C665.109 43.1497 664.784 43.0083 664.508 42.8687C664.236 42.7254 664.024 42.5518 663.874 42.3477C663.727 42.1436 663.654 41.8786 663.654 41.5527C663.654 41.055 663.854 40.6737 664.255 40.4087C664.66 40.1401 665.19 40.0059 665.845 40.0059C666.2 40.0059 666.531 40.0417 666.839 40.1133C667.15 40.1813 667.44 40.2744 667.709 40.3926L667.408 41.1069C667.165 41.0031 666.905 40.9154 666.629 40.8438C666.354 40.7721 666.073 40.7363 665.786 40.7363C665.374 40.7363 665.057 40.8044 664.835 40.9404C664.617 41.0765 664.508 41.2627 664.508 41.499C664.508 41.6816 664.558 41.832 664.658 41.9502C664.762 42.0684 664.927 42.1794 665.152 42.2832C665.378 42.387 665.675 42.5088 666.044 42.6484C666.413 42.7845 666.731 42.9259 667 43.0728C667.269 43.216 667.474 43.3914 667.618 43.5991C667.764 43.8032 667.838 44.0664 667.838 44.3887ZM671.474 40.0166C672.176 40.0166 672.697 40.1742 673.037 40.4893C673.377 40.8044 673.547 41.3075 673.547 41.9985V46H672.897L672.726 45.1299H672.683C672.518 45.3447 672.346 45.5256 672.167 45.6724C671.988 45.8156 671.78 45.9248 671.544 46C671.311 46.0716 671.025 46.1074 670.685 46.1074C670.326 46.1074 670.008 46.0448 669.729 45.9194C669.453 45.7941 669.234 45.6043 669.073 45.3501C668.916 45.0959 668.837 44.7736 668.837 44.3833C668.837 43.7961 669.07 43.3449 669.535 43.0298C670.001 42.7147 670.71 42.5428 671.662 42.5142L672.677 42.4712V42.1113C672.677 41.6029 672.568 41.2466 672.35 41.0425C672.131 40.8384 671.823 40.7363 671.426 40.7363C671.118 40.7363 670.824 40.7811 670.545 40.8706C670.266 40.9601 670.001 41.0658 669.75 41.1875L669.476 40.5107C669.741 40.3747 670.045 40.2583 670.389 40.1616C670.733 40.0649 671.095 40.0166 671.474 40.0166ZM672.667 43.0996L671.77 43.1372C671.035 43.1659 670.518 43.2858 670.217 43.4971C669.917 43.7083 669.766 44.0073 669.766 44.394C669.766 44.7306 669.868 44.9795 670.072 45.1406C670.276 45.3018 670.547 45.3823 670.883 45.3823C671.406 45.3823 671.834 45.2373 672.167 44.9473C672.5 44.6572 672.667 44.2222 672.667 43.6421V43.0996ZM676.281 46H675.384V37.6426H676.281V46ZM680.068 45.377C680.215 45.377 680.365 45.3644 680.519 45.3394C680.673 45.3143 680.798 45.2839 680.895 45.248V45.9409C680.791 45.9875 680.646 46.0269 680.46 46.0591C680.277 46.0913 680.098 46.1074 679.923 46.1074C679.611 46.1074 679.328 46.0537 679.074 45.9463C678.82 45.8353 678.616 45.6491 678.462 45.3877C678.312 45.1263 678.236 44.7646 678.236 44.3027V40.8115H677.398V40.3765L678.242 40.0273L678.596 38.749H679.133V40.1133H680.857V40.8115H679.133V44.2759C679.133 44.6447 679.217 44.9204 679.386 45.103C679.558 45.2856 679.785 45.377 680.068 45.377ZM681.588 43.4434V42.6484H684.252V43.4434H681.588ZM689.44 44.3887C689.44 44.7646 689.346 45.0815 689.156 45.3394C688.97 45.5936 688.701 45.7852 688.35 45.9141C688.003 46.043 687.587 46.1074 687.104 46.1074C686.692 46.1074 686.336 46.0752 686.035 46.0107C685.734 45.9463 685.471 45.855 685.246 45.7368V44.915C685.486 45.0332 685.772 45.1406 686.105 45.2373C686.438 45.334 686.778 45.3823 687.125 45.3823C687.634 45.3823 688.003 45.3 688.232 45.1353C688.461 44.9705 688.576 44.7467 688.576 44.4639C688.576 44.3027 688.529 44.1613 688.436 44.0396C688.347 43.9142 688.194 43.7943 687.979 43.6797C687.765 43.5615 687.467 43.4326 687.088 43.293C686.712 43.1497 686.386 43.0083 686.11 42.8687C685.838 42.7254 685.627 42.5518 685.477 42.3477C685.33 42.1436 685.256 41.8786 685.256 41.5527C685.256 41.055 685.457 40.6737 685.858 40.4087C686.263 40.1401 686.792 40.0059 687.448 40.0059C687.802 40.0059 688.133 40.0417 688.441 40.1133C688.753 40.1813 689.043 40.2744 689.312 40.3926L689.011 41.1069C688.767 41.0031 688.508 40.9154 688.232 40.8438C687.956 40.7721 687.675 40.7363 687.389 40.7363C686.977 40.7363 686.66 40.8044 686.438 40.9404C686.22 41.0765 686.11 41.2627 686.11 41.499C686.11 41.6816 686.16 41.832 686.261 41.9502C686.365 42.0684 686.529 42.1794 686.755 42.2832C686.98 42.387 687.278 42.5088 687.646 42.6484C688.015 42.7845 688.334 42.9259 688.603 43.0728C688.871 43.216 689.077 43.3914 689.22 43.5991C689.367 43.8032 689.44 44.0664 689.44 44.3887ZM691.766 40.1133V46H690.875V40.1133H691.766ZM691.331 37.9111C691.478 37.9111 691.603 37.9595 691.707 38.0562C691.814 38.1493 691.868 38.2961 691.868 38.4966C691.868 38.6935 691.814 38.8403 691.707 38.937C691.603 39.0337 691.478 39.082 691.331 39.082C691.177 39.082 691.048 39.0337 690.944 38.937C690.844 38.8403 690.794 38.6935 690.794 38.4966C690.794 38.2961 690.844 38.1493 690.944 38.0562C691.048 37.9595 691.177 37.9111 691.331 37.9111ZM697.438 46H693.146V45.4092L696.375 40.8115H693.351V40.1133H697.368V40.7739L694.183 45.3071H697.438V46ZM701.08 40.0059C701.581 40.0059 702.011 40.1169 702.369 40.3389C702.727 40.5609 703.001 40.8724 703.19 41.2734C703.38 41.6709 703.475 42.1364 703.475 42.6699V43.2231H699.409C699.42 43.9142 699.592 44.4406 699.925 44.8022C700.258 45.1639 700.727 45.3447 701.332 45.3447C701.704 45.3447 702.034 45.3107 702.32 45.2427C702.607 45.1746 702.904 45.0744 703.212 44.9419V45.7261C702.915 45.8586 702.619 45.9552 702.326 46.0161C702.036 46.077 701.692 46.1074 701.294 46.1074C700.729 46.1074 700.235 45.9928 699.812 45.7637C699.393 45.5309 699.067 45.1908 698.834 44.7432C698.602 44.2956 698.485 43.7477 698.485 43.0996C698.485 42.4658 698.591 41.918 698.802 41.4561C699.017 40.9906 699.318 40.6325 699.705 40.3818C700.095 40.1312 700.553 40.0059 701.08 40.0059ZM701.069 40.7363C700.593 40.7363 700.213 40.8921 699.93 41.2036C699.647 41.5151 699.479 41.9502 699.425 42.5088H702.541C702.537 42.1579 702.481 41.8499 702.374 41.585C702.27 41.3164 702.111 41.1087 701.896 40.9619C701.681 40.8115 701.405 40.7363 701.069 40.7363ZM704.49 43.4434V42.6484H707.154V43.4434H704.49ZM712.343 44.3887C712.343 44.7646 712.248 45.0815 712.058 45.3394C711.872 45.5936 711.603 45.7852 711.252 45.9141C710.905 46.043 710.49 46.1074 710.006 46.1074C709.595 46.1074 709.238 46.0752 708.938 46.0107C708.637 45.9463 708.374 45.855 708.148 45.7368V44.915C708.388 45.0332 708.674 45.1406 709.007 45.2373C709.34 45.334 709.681 45.3823 710.028 45.3823C710.536 45.3823 710.905 45.3 711.134 45.1353C711.363 44.9705 711.478 44.7467 711.478 44.4639C711.478 44.3027 711.431 44.1613 711.338 44.0396C711.249 43.9142 711.097 43.7943 710.882 43.6797C710.667 43.5615 710.37 43.4326 709.99 43.293C709.614 43.1497 709.288 43.0083 709.013 42.8687C708.741 42.7254 708.529 42.5518 708.379 42.3477C708.232 42.1436 708.159 41.8786 708.159 41.5527C708.159 41.055 708.359 40.6737 708.76 40.4087C709.165 40.1401 709.695 40.0059 710.35 40.0059C710.705 40.0059 711.036 40.0417 711.344 40.1133C711.655 40.1813 711.945 40.2744 712.214 40.3926L711.913 41.1069C711.67 41.0031 711.41 40.9154 711.134 40.8438C710.859 40.7721 710.577 40.7363 710.291 40.7363C709.879 40.7363 709.562 40.8044 709.34 40.9404C709.122 41.0765 709.013 41.2627 709.013 41.499C709.013 41.6816 709.063 41.832 709.163 41.9502C709.267 42.0684 709.432 42.1794 709.657 42.2832C709.883 42.387 710.18 42.5088 710.549 42.6484C710.918 42.7845 711.236 42.9259 711.505 43.0728C711.773 43.216 711.979 43.3914 712.123 43.5991C712.269 43.8032 712.343 44.0664 712.343 44.3887ZM716.043 40.0059C716.545 40.0059 716.974 40.1169 717.333 40.3389C717.691 40.5609 717.965 40.8724 718.154 41.2734C718.344 41.6709 718.439 42.1364 718.439 42.6699V43.2231H714.373C714.384 43.9142 714.556 44.4406 714.889 44.8022C715.222 45.1639 715.691 45.3447 716.296 45.3447C716.668 45.3447 716.998 45.3107 717.284 45.2427C717.571 45.1746 717.868 45.0744 718.176 44.9419V45.7261C717.879 45.8586 717.583 45.9552 717.29 46.0161C717 46.077 716.656 46.1074 716.258 46.1074C715.693 46.1074 715.198 45.9928 714.776 45.7637C714.357 45.5309 714.031 45.1908 713.798 44.7432C713.566 44.2956 713.449 43.7477 713.449 43.0996C713.449 42.4658 713.555 41.918 713.766 41.4561C713.981 40.9906 714.282 40.6325 714.668 40.3818C715.059 40.1312 715.517 40.0059 716.043 40.0059ZM716.033 40.7363C715.556 40.7363 715.177 40.8921 714.894 41.2036C714.611 41.5151 714.443 41.9502 714.389 42.5088H717.504C717.501 42.1579 717.445 41.8499 717.338 41.585C717.234 41.3164 717.075 41.1087 716.86 40.9619C716.645 40.8115 716.369 40.7363 716.033 40.7363ZM720.851 46H719.954V37.6426H720.851V46ZM725.002 40.0059C725.504 40.0059 725.933 40.1169 726.292 40.3389C726.65 40.5609 726.924 40.8724 727.113 41.2734C727.303 41.6709 727.398 42.1364 727.398 42.6699V43.2231H723.332C723.343 43.9142 723.515 44.4406 723.848 44.8022C724.181 45.1639 724.65 45.3447 725.255 45.3447C725.627 45.3447 725.957 45.3107 726.243 45.2427C726.53 45.1746 726.827 45.0744 727.135 44.9419V45.7261C726.838 45.8586 726.542 45.9552 726.249 46.0161C725.958 46.077 725.615 46.1074 725.217 46.1074C724.652 46.1074 724.157 45.9928 723.735 45.7637C723.316 45.5309 722.99 45.1908 722.757 44.7432C722.525 44.2956 722.408 43.7477 722.408 43.0996C722.408 42.4658 722.514 41.918 722.725 41.4561C722.94 40.9906 723.241 40.6325 723.627 40.3818C724.018 40.1312 724.476 40.0059 725.002 40.0059ZM724.992 40.7363C724.515 40.7363 724.136 40.8921 723.853 41.2036C723.57 41.5151 723.402 41.9502 723.348 42.5088H726.463C726.46 42.1579 726.404 41.8499 726.297 41.585C726.193 41.3164 726.034 41.1087 725.819 40.9619C725.604 40.8115 725.328 40.7363 724.992 40.7363ZM731.271 46.1074C730.741 46.1074 730.273 45.9982 729.869 45.7798C729.464 45.5614 729.149 45.2284 728.923 44.7808C728.698 44.3332 728.585 43.7692 728.585 43.0889C728.585 42.3763 728.703 41.7944 728.939 41.3433C729.179 40.8885 729.509 40.5519 729.928 40.3335C730.347 40.1151 730.823 40.0059 731.356 40.0059C731.65 40.0059 731.933 40.0363 732.205 40.0972C732.481 40.1545 732.706 40.2279 732.882 40.3174L732.613 41.064C732.434 40.9924 732.227 40.9279 731.99 40.8706C731.757 40.8133 731.539 40.7847 731.335 40.7847C730.927 40.7847 730.587 40.8724 730.314 41.0479C730.046 41.2233 729.844 41.4811 729.708 41.8213C729.575 42.1615 729.509 42.5804 729.509 43.0781C729.509 43.5544 729.573 43.9608 729.702 44.2974C729.835 44.634 730.03 44.8918 730.288 45.0708C730.549 45.2463 730.875 45.334 731.265 45.334C731.577 45.334 731.858 45.3018 732.108 45.2373C732.359 45.1693 732.586 45.0905 732.791 45.001V45.7959C732.594 45.8962 732.373 45.9731 732.13 46.0269C731.89 46.0806 731.604 46.1074 731.271 46.1074ZM736.088 45.377C736.235 45.377 736.386 45.3644 736.54 45.3394C736.694 45.3143 736.819 45.2839 736.916 45.248V45.9409C736.812 45.9875 736.667 46.0269 736.48 46.0591C736.298 46.0913 736.119 46.1074 735.943 46.1074C735.632 46.1074 735.349 46.0537 735.095 45.9463C734.84 45.8353 734.636 45.6491 734.482 45.3877C734.332 45.1263 734.257 44.7646 734.257 44.3027V40.8115H733.419V40.3765L734.262 40.0273L734.617 38.749H735.154V40.1133H736.878V40.8115H735.154V44.2759C735.154 44.6447 735.238 44.9204 735.406 45.103C735.578 45.2856 735.806 45.377 736.088 45.377ZM740.31 40.0166C741.012 40.0166 741.533 40.1742 741.873 40.4893C742.213 40.8044 742.383 41.3075 742.383 41.9985V46H741.733L741.562 45.1299H741.519C741.354 45.3447 741.182 45.5256 741.003 45.6724C740.824 45.8156 740.616 45.9248 740.38 46C740.147 46.0716 739.861 46.1074 739.521 46.1074C739.162 46.1074 738.844 46.0448 738.564 45.9194C738.289 45.7941 738.07 45.6043 737.909 45.3501C737.752 45.0959 737.673 44.7736 737.673 44.3833C737.673 43.7961 737.906 43.3449 738.371 43.0298C738.837 42.7147 739.546 42.5428 740.498 42.5142L741.513 42.4712V42.1113C741.513 41.6029 741.404 41.2466 741.186 41.0425C740.967 40.8384 740.659 40.7363 740.262 40.7363C739.954 40.7363 739.66 40.7811 739.381 40.8706C739.102 40.9601 738.837 41.0658 738.586 41.1875L738.312 40.5107C738.577 40.3747 738.881 40.2583 739.225 40.1616C739.569 40.0649 739.931 40.0166 740.31 40.0166ZM741.502 43.0996L740.605 43.1372C739.871 43.1659 739.354 43.2858 739.053 43.4971C738.752 43.7083 738.602 44.0073 738.602 44.394C738.602 44.7306 738.704 44.9795 738.908 45.1406C739.112 45.3018 739.383 45.3823 739.719 45.3823C740.242 45.3823 740.67 45.2373 741.003 44.9473C741.336 44.6572 741.502 44.2222 741.502 43.6421V43.0996ZM745.112 37.6426V39.7319C745.112 39.9718 745.105 40.2046 745.09 40.4302C745.08 40.6558 745.071 40.8312 745.063 40.9565H745.112C745.273 40.6916 745.506 40.4678 745.81 40.2852C746.114 40.1025 746.503 40.0112 746.976 40.0112C747.713 40.0112 748.3 40.2673 748.737 40.7793C749.178 41.2878 749.398 42.0451 749.398 43.0513C749.398 43.7137 749.298 44.2723 749.097 44.7271C748.897 45.1818 748.614 45.5256 748.249 45.7583C747.883 45.991 747.452 46.1074 746.954 46.1074C746.489 46.1074 746.105 46.0215 745.805 45.8496C745.507 45.6742 745.278 45.4611 745.117 45.2104H745.047L744.865 46H744.22V37.6426H745.112ZM746.831 40.7578C746.404 40.7578 746.066 40.842 745.815 41.0103C745.565 41.175 745.384 41.4256 745.273 41.7622C745.166 42.0952 745.112 42.5177 745.112 43.0298V43.0781C745.112 43.8193 745.235 44.3869 745.482 44.7808C745.729 45.1711 746.179 45.3662 746.831 45.3662C747.378 45.3662 747.788 45.1657 748.061 44.7646C748.336 44.3636 748.474 43.7907 748.474 43.0459C748.474 42.2868 748.338 41.7157 748.066 41.3325C747.797 40.9494 747.386 40.7578 746.831 40.7578ZM751.853 46H750.956V37.6426H751.853V46ZM756.004 40.0059C756.506 40.0059 756.935 40.1169 757.293 40.3389C757.652 40.5609 757.925 40.8724 758.115 41.2734C758.305 41.6709 758.4 42.1364 758.4 42.6699V43.2231H754.334C754.345 43.9142 754.517 44.4406 754.85 44.8022C755.183 45.1639 755.652 45.3447 756.257 45.3447C756.629 45.3447 756.959 45.3107 757.245 45.2427C757.532 45.1746 757.829 45.0744 758.137 44.9419V45.7261C757.84 45.8586 757.544 45.9552 757.25 46.0161C756.96 46.077 756.617 46.1074 756.219 46.1074C755.653 46.1074 755.159 45.9928 754.737 45.7637C754.318 45.5309 753.992 45.1908 753.759 44.7432C753.527 44.2956 753.41 43.7477 753.41 43.0996C753.41 42.4658 753.516 41.918 753.727 41.4561C753.942 40.9906 754.243 40.6325 754.629 40.3818C755.02 40.1312 755.478 40.0059 756.004 40.0059ZM755.994 40.7363C755.517 40.7363 755.138 40.8921 754.855 41.2036C754.572 41.5151 754.404 41.9502 754.35 42.5088H757.465C757.462 42.1579 757.406 41.8499 757.299 41.585C757.195 41.3164 757.036 41.1087 756.821 40.9619C756.606 40.8115 756.33 40.7363 755.994 40.7363Z" fill="black"/>
<path d="M3.5332 108.434C4.27148 108.434 4.88086 108.523 5.36133 108.703C5.8457 108.883 6.20508 109.156 6.43945 109.523C6.67773 109.891 6.79688 110.357 6.79688 110.924C6.79688 111.346 6.71875 111.705 6.5625 112.002C6.40625 112.299 6.20117 112.545 5.94727 112.74C5.69336 112.936 5.42188 113.092 5.13281 113.209L7.56445 117H5.97656L3.9082 113.566H2.53125V117H1.125V108.434H3.5332ZM3.43945 109.605H2.53125V112.406H3.50391C4.15625 112.406 4.62891 112.285 4.92188 112.043C5.21875 111.801 5.36719 111.443 5.36719 110.971C5.36719 110.475 5.20898 110.123 4.89258 109.916C4.58008 109.709 4.0957 109.605 3.43945 109.605ZM11.1914 110.391C12.0117 110.391 12.6309 110.572 13.0488 110.936C13.4707 111.299 13.6816 111.865 13.6816 112.635V117H12.7031L12.4395 116.08H12.3926C12.209 116.314 12.0195 116.508 11.8242 116.66C11.6289 116.812 11.4023 116.926 11.1445 117C10.8906 117.078 10.5801 117.117 10.2129 117.117C9.82617 117.117 9.48047 117.047 9.17578 116.906C8.87109 116.762 8.63086 116.543 8.45508 116.25C8.2793 115.957 8.19141 115.586 8.19141 115.137C8.19141 114.469 8.43945 113.967 8.93555 113.631C9.43555 113.295 10.1895 113.109 11.1973 113.074L12.3223 113.033V112.693C12.3223 112.244 12.2168 111.924 12.0059 111.732C11.7988 111.541 11.5059 111.445 11.127 111.445C10.8027 111.445 10.4883 111.492 10.1836 111.586C9.87891 111.68 9.58203 111.795 9.29297 111.932L8.84766 110.959C9.16406 110.791 9.52344 110.654 9.92578 110.549C10.332 110.443 10.7539 110.391 11.1914 110.391ZM12.3164 113.9L11.4785 113.93C10.791 113.953 10.3086 114.07 10.0312 114.281C9.75391 114.492 9.61523 114.781 9.61523 115.148C9.61523 115.469 9.71094 115.703 9.90234 115.852C10.0938 115.996 10.3457 116.068 10.6582 116.068C11.1348 116.068 11.5293 115.934 11.8418 115.664C12.1582 115.391 12.3164 114.99 12.3164 114.463V113.9ZM17.7891 117.117C17.0156 117.117 16.3945 116.836 15.9258 116.273C15.4609 115.707 15.2285 114.873 15.2285 113.771C15.2285 112.658 15.4648 111.816 15.9375 111.246C16.4141 110.676 17.041 110.391 17.8184 110.391C18.1465 110.391 18.4336 110.436 18.6797 110.525C18.9258 110.611 19.1367 110.729 19.3125 110.877C19.4922 111.025 19.6445 111.191 19.7695 111.375H19.834C19.8145 111.254 19.791 111.08 19.7637 110.854C19.7402 110.623 19.7285 110.41 19.7285 110.215V107.883H21.1113V117H20.0332L19.7871 116.115H19.7285C19.6113 116.303 19.4629 116.473 19.2832 116.625C19.1074 116.773 18.8965 116.893 18.6504 116.982C18.4082 117.072 18.1211 117.117 17.7891 117.117ZM18.1758 115.998C18.7656 115.998 19.1816 115.828 19.4238 115.488C19.666 115.148 19.791 114.639 19.7988 113.959V113.777C19.7988 113.051 19.6816 112.494 19.4473 112.107C19.2129 111.717 18.7852 111.521 18.1641 111.521C17.668 111.521 17.2891 111.723 17.0273 112.125C16.7695 112.523 16.6406 113.08 16.6406 113.795C16.6406 114.51 16.7695 115.057 17.0273 115.436C17.2891 115.811 17.6719 115.998 18.1758 115.998ZM24.4629 110.514V117H23.0859V110.514H24.4629ZM23.7832 108.029C23.9941 108.029 24.1758 108.086 24.3281 108.199C24.4844 108.312 24.5625 108.508 24.5625 108.785C24.5625 109.059 24.4844 109.254 24.3281 109.371C24.1758 109.484 23.9941 109.541 23.7832 109.541C23.5645 109.541 23.3789 109.484 23.2266 109.371C23.0781 109.254 23.0039 109.059 23.0039 108.785C23.0039 108.508 23.0781 108.312 23.2266 108.199C23.3789 108.086 23.5645 108.029 23.7832 108.029ZM32.1797 113.742C32.1797 114.281 32.1094 114.76 31.9688 115.178C31.8281 115.596 31.623 115.949 31.3535 116.238C31.084 116.523 30.7598 116.742 30.3809 116.895C30.002 117.043 29.5742 117.117 29.0977 117.117C28.6523 117.117 28.2441 117.043 27.873 116.895C27.502 116.742 27.1797 116.523 26.9062 116.238C26.6367 115.949 26.4277 115.596 26.2793 115.178C26.1309 114.76 26.0566 114.281 26.0566 113.742C26.0566 113.027 26.1797 112.422 26.4258 111.926C26.6758 111.426 27.0312 111.045 27.4922 110.783C27.9531 110.521 28.502 110.391 29.1387 110.391C29.7363 110.391 30.2637 110.521 30.7207 110.783C31.1777 111.045 31.5352 111.426 31.793 111.926C32.0508 112.426 32.1797 113.031 32.1797 113.742ZM27.4746 113.742C27.4746 114.215 27.5312 114.619 27.6445 114.955C27.7617 115.291 27.9414 115.549 28.1836 115.729C28.4258 115.904 28.7383 115.992 29.1211 115.992C29.5039 115.992 29.8164 115.904 30.0586 115.729C30.3008 115.549 30.4785 115.291 30.5918 114.955C30.7051 114.619 30.7617 114.215 30.7617 113.742C30.7617 113.27 30.7051 112.869 30.5918 112.541C30.4785 112.209 30.3008 111.957 30.0586 111.785C29.8164 111.609 29.502 111.521 29.1152 111.521C28.5449 111.521 28.1289 111.713 27.8672 112.096C27.6055 112.479 27.4746 113.027 27.4746 113.742ZM38.2559 107.883V110.08C38.2559 110.334 38.248 110.584 38.2324 110.83C38.2207 111.072 38.209 111.262 38.1973 111.398H38.2559C38.4316 111.117 38.6758 110.881 38.9883 110.689C39.3047 110.494 39.709 110.396 40.2012 110.396C40.9707 110.396 41.5898 110.68 42.0586 111.246C42.5273 111.809 42.7617 112.643 42.7617 113.748C42.7617 114.482 42.6543 115.1 42.4395 115.6C42.2246 116.1 41.9219 116.479 41.5312 116.736C41.1445 116.99 40.6895 117.117 40.166 117.117C39.6738 117.117 39.2754 117.027 38.9707 116.848C38.6699 116.664 38.4336 116.451 38.2617 116.209H38.1621L37.9102 117H36.8789V107.883H38.2559ZM39.8379 111.516C39.4473 111.516 39.1367 111.594 38.9062 111.75C38.6797 111.906 38.5156 112.141 38.4141 112.453C38.3125 112.762 38.2598 113.154 38.2559 113.631V113.754C38.2559 114.477 38.3691 115.029 38.5957 115.412C38.8262 115.795 39.2441 115.986 39.8496 115.986C40.3301 115.986 40.6992 115.793 40.957 115.406C41.2148 115.016 41.3438 114.457 41.3438 113.73C41.3438 112.996 41.2148 112.443 40.957 112.072C40.7031 111.701 40.3301 111.516 39.8379 111.516ZM50.0098 110.514V117H48.9258L48.7383 116.127H48.6621C48.5254 116.35 48.3516 116.535 48.1406 116.684C47.9297 116.828 47.6953 116.936 47.4375 117.006C47.1797 117.08 46.9082 117.117 46.623 117.117C46.1348 117.117 45.7168 117.035 45.3691 116.871C45.0254 116.703 44.7617 116.445 44.5781 116.098C44.3945 115.75 44.3027 115.301 44.3027 114.75V110.514H45.6855V114.492C45.6855 114.996 45.7871 115.373 45.9902 115.623C46.1973 115.873 46.5176 115.998 46.9512 115.998C47.3691 115.998 47.7012 115.912 47.9473 115.74C48.1934 115.568 48.3672 115.314 48.4688 114.979C48.5742 114.643 48.627 114.23 48.627 113.742V110.514H50.0098ZM54.3984 116.004C54.5781 116.004 54.7559 115.988 54.9316 115.957C55.1074 115.922 55.2676 115.881 55.4121 115.834V116.877C55.2598 116.943 55.0625 117 54.8203 117.047C54.5781 117.094 54.3262 117.117 54.0645 117.117C53.6973 117.117 53.3672 117.057 53.0742 116.936C52.7812 116.811 52.5488 116.598 52.377 116.297C52.2051 115.996 52.1191 115.58 52.1191 115.049V111.562H51.2344V110.947L52.1836 110.461L52.6348 109.072H53.502V110.514H55.3594V111.562H53.502V115.031C53.502 115.359 53.584 115.604 53.748 115.764C53.9121 115.924 54.1289 116.004 54.3984 116.004ZM59.1445 116.004C59.3242 116.004 59.502 115.988 59.6777 115.957C59.8535 115.922 60.0137 115.881 60.1582 115.834V116.877C60.0059 116.943 59.8086 117 59.5664 117.047C59.3242 117.094 59.0723 117.117 58.8105 117.117C58.4434 117.117 58.1133 117.057 57.8203 116.936C57.5273 116.811 57.2949 116.598 57.123 116.297C56.9512 115.996 56.8652 115.58 56.8652 115.049V111.562H55.9805V110.947L56.9297 110.461L57.3809 109.072H58.248V110.514H60.1055V111.562H58.248V115.031C58.248 115.359 58.3301 115.604 58.4941 115.764C58.6582 115.924 58.875 116.004 59.1445 116.004ZM67.2188 113.742C67.2188 114.281 67.1484 114.76 67.0078 115.178C66.8672 115.596 66.6621 115.949 66.3926 116.238C66.123 116.523 65.7988 116.742 65.4199 116.895C65.041 117.043 64.6133 117.117 64.1367 117.117C63.6914 117.117 63.2832 117.043 62.9121 116.895C62.541 116.742 62.2188 116.523 61.9453 116.238C61.6758 115.949 61.4668 115.596 61.3184 115.178C61.1699 114.76 61.0957 114.281 61.0957 113.742C61.0957 113.027 61.2188 112.422 61.4648 111.926C61.7148 111.426 62.0703 111.045 62.5312 110.783C62.9922 110.521 63.541 110.391 64.1777 110.391C64.7754 110.391 65.3027 110.521 65.7598 110.783C66.2168 111.045 66.5742 111.426 66.832 111.926C67.0898 112.426 67.2188 113.031 67.2188 113.742ZM62.5137 113.742C62.5137 114.215 62.5703 114.619 62.6836 114.955C62.8008 115.291 62.9805 115.549 63.2227 115.729C63.4648 115.904 63.7773 115.992 64.1602 115.992C64.543 115.992 64.8555 115.904 65.0977 115.729C65.3398 115.549 65.5176 115.291 65.6309 114.955C65.7441 114.619 65.8008 114.215 65.8008 113.742C65.8008 113.27 65.7441 112.869 65.6309 112.541C65.5176 112.209 65.3398 111.957 65.0977 111.785C64.8555 111.609 64.541 111.521 64.1543 111.521C63.584 111.521 63.168 111.713 62.9062 112.096C62.6445 112.479 62.5137 113.027 62.5137 113.742ZM72.1816 110.391C72.9121 110.391 73.4805 110.58 73.8867 110.959C74.2969 111.334 74.502 111.938 74.502 112.77V117H73.125V113.027C73.125 112.523 73.0215 112.146 72.8145 111.896C72.6074 111.643 72.2871 111.516 71.8535 111.516C71.2246 111.516 70.7871 111.709 70.541 112.096C70.2988 112.482 70.1777 113.043 70.1777 113.777V117H68.8008V110.514H69.873L70.0664 111.393H70.1426C70.2832 111.166 70.457 110.98 70.6641 110.836C70.875 110.688 71.1094 110.576 71.3672 110.502C71.6289 110.428 71.9004 110.391 72.1816 110.391ZM81.3984 119.883C80.5195 119.883 79.8457 119.725 79.377 119.408C78.9082 119.092 78.6738 118.648 78.6738 118.078C78.6738 117.68 78.7988 117.342 79.0488 117.064C79.2988 116.791 79.6562 116.602 80.1211 116.496C79.9453 116.418 79.793 116.297 79.6641 116.133C79.5391 115.965 79.4766 115.779 79.4766 115.576C79.4766 115.334 79.5449 115.127 79.6816 114.955C79.8184 114.783 80.0234 114.617 80.2969 114.457C79.957 114.312 79.6836 114.078 79.4766 113.754C79.2734 113.426 79.1719 113.041 79.1719 112.6C79.1719 112.131 79.2715 111.732 79.4707 111.404C79.6699 111.072 79.9609 110.82 80.3438 110.648C80.7266 110.473 81.1895 110.385 81.7324 110.385C81.8496 110.385 81.9766 110.393 82.1133 110.408C82.2539 110.42 82.3828 110.436 82.5 110.455C82.6211 110.471 82.7129 110.488 82.7754 110.508H85.0195V111.275L83.918 111.48C84.0234 111.629 84.1074 111.799 84.1699 111.99C84.2324 112.178 84.2637 112.383 84.2637 112.605C84.2637 113.277 84.0312 113.807 83.5664 114.193C83.1055 114.576 82.4688 114.768 81.6562 114.768C81.4609 114.76 81.2715 114.744 81.0879 114.721C80.9473 114.807 80.8398 114.902 80.7656 115.008C80.6914 115.109 80.6543 115.225 80.6543 115.354C80.6543 115.459 80.6914 115.545 80.7656 115.611C80.8398 115.674 80.9492 115.721 81.0938 115.752C81.2422 115.783 81.4219 115.799 81.6328 115.799H82.752C83.4629 115.799 84.0059 115.949 84.3809 116.25C84.7559 116.551 84.9434 116.992 84.9434 117.574C84.9434 118.312 84.6387 118.881 84.0293 119.279C83.4199 119.682 82.543 119.883 81.3984 119.883ZM81.4512 118.916C81.9316 118.916 82.3359 118.869 82.6641 118.775C82.9922 118.682 83.2402 118.547 83.4082 118.371C83.5762 118.199 83.6602 117.994 83.6602 117.756C83.6602 117.545 83.6074 117.383 83.502 117.27C83.3965 117.156 83.2383 117.078 83.0273 117.035C82.8164 116.992 82.5547 116.971 82.2422 116.971H81.2227C80.9688 116.971 80.7441 117.01 80.5488 117.088C80.3535 117.17 80.2012 117.287 80.0918 117.439C79.9863 117.592 79.9336 117.775 79.9336 117.99C79.9336 118.287 80.0645 118.516 80.3262 118.676C80.5918 118.836 80.9668 118.916 81.4512 118.916ZM81.7207 113.865C82.123 113.865 82.4219 113.756 82.6172 113.537C82.8125 113.314 82.9102 113.002 82.9102 112.6C82.9102 112.162 82.8086 111.834 82.6055 111.615C82.4062 111.396 82.1094 111.287 81.7148 111.287C81.3281 111.287 81.0332 111.398 80.8301 111.621C80.6309 111.844 80.5312 112.174 80.5312 112.611C80.5312 113.006 80.6309 113.314 80.8301 113.537C81.0332 113.756 81.3301 113.865 81.7207 113.865ZM89.4902 110.391C89.5996 110.391 89.7188 110.396 89.8477 110.408C89.9766 110.42 90.0879 110.436 90.1816 110.455L90.0527 111.744C89.9707 111.721 89.8691 111.703 89.748 111.691C89.6309 111.68 89.5254 111.674 89.4316 111.674C89.1855 111.674 88.9512 111.715 88.7285 111.797C88.5059 111.875 88.3086 111.996 88.1367 112.16C87.9648 112.32 87.8301 112.521 87.7324 112.764C87.6348 113.006 87.5859 113.287 87.5859 113.607V117H86.2031V110.514H87.2812L87.4688 111.656H87.5332C87.6621 111.426 87.8223 111.215 88.0137 111.023C88.2051 110.832 88.4238 110.68 88.6699 110.566C88.9199 110.449 89.1934 110.391 89.4902 110.391ZM97.125 113.742C97.125 114.281 97.0547 114.76 96.9141 115.178C96.7734 115.596 96.5684 115.949 96.2988 116.238C96.0293 116.523 95.7051 116.742 95.3262 116.895C94.9473 117.043 94.5195 117.117 94.043 117.117C93.5977 117.117 93.1895 117.043 92.8184 116.895C92.4473 116.742 92.125 116.523 91.8516 116.238C91.582 115.949 91.373 115.596 91.2246 115.178C91.0762 114.76 91.002 114.281 91.002 113.742C91.002 113.027 91.125 112.422 91.3711 111.926C91.6211 111.426 91.9766 111.045 92.4375 110.783C92.8984 110.521 93.4473 110.391 94.084 110.391C94.6816 110.391 95.209 110.521 95.666 110.783C96.123 111.045 96.4805 111.426 96.7383 111.926C96.9961 112.426 97.125 113.031 97.125 113.742ZM92.4199 113.742C92.4199 114.215 92.4766 114.619 92.5898 114.955C92.707 115.291 92.8867 115.549 93.1289 115.729C93.3711 115.904 93.6836 115.992 94.0664 115.992C94.4492 115.992 94.7617 115.904 95.0039 115.729C95.2461 115.549 95.4238 115.291 95.5371 114.955C95.6504 114.619 95.707 114.215 95.707 113.742C95.707 113.27 95.6504 112.869 95.5371 112.541C95.4238 112.209 95.2461 111.957 95.0039 111.785C94.7617 111.609 94.4473 111.521 94.0605 111.521C93.4902 111.521 93.0742 111.713 92.8125 112.096C92.5508 112.479 92.4199 113.027 92.4199 113.742ZM104.361 110.514V117H103.277L103.09 116.127H103.014C102.877 116.35 102.703 116.535 102.492 116.684C102.281 116.828 102.047 116.936 101.789 117.006C101.531 117.08 101.26 117.117 100.975 117.117C100.486 117.117 100.068 117.035 99.7207 116.871C99.377 116.703 99.1133 116.445 98.9297 116.098C98.7461 115.75 98.6543 115.301 98.6543 114.75V110.514H100.037V114.492C100.037 114.996 100.139 115.373 100.342 115.623C100.549 115.873 100.869 115.998 101.303 115.998C101.721 115.998 102.053 115.912 102.299 115.74C102.545 115.568 102.719 115.314 102.82 114.979C102.926 114.643 102.979 114.23 102.979 113.742V110.514H104.361ZM109.664 110.391C110.434 110.391 111.051 110.672 111.516 111.234C111.984 111.797 112.219 112.633 112.219 113.742C112.219 114.477 112.109 115.096 111.891 115.6C111.676 116.1 111.373 116.479 110.982 116.736C110.596 116.99 110.145 117.117 109.629 117.117C109.301 117.117 109.016 117.074 108.773 116.988C108.531 116.902 108.324 116.791 108.152 116.654C107.98 116.514 107.836 116.361 107.719 116.197H107.637C107.656 116.354 107.674 116.527 107.689 116.719C107.709 116.906 107.719 117.078 107.719 117.234V119.877H106.336V110.514H107.461L107.654 111.41H107.719C107.84 111.227 107.986 111.057 108.158 110.9C108.334 110.744 108.545 110.621 108.791 110.531C109.041 110.438 109.332 110.391 109.664 110.391ZM109.295 111.516C108.916 111.516 108.611 111.592 108.381 111.744C108.154 111.893 107.988 112.117 107.883 112.418C107.781 112.719 107.727 113.096 107.719 113.549V113.742C107.719 114.223 107.768 114.631 107.865 114.967C107.967 115.299 108.133 115.553 108.363 115.729C108.598 115.9 108.914 115.986 109.312 115.986C109.648 115.986 109.926 115.895 110.145 115.711C110.367 115.527 110.533 115.266 110.643 114.926C110.752 114.586 110.807 114.186 110.807 113.725C110.807 113.025 110.682 112.482 110.432 112.096C110.186 111.709 109.807 111.516 109.295 111.516ZM118.312 117H116.93V107.883H118.312V117ZM122.824 110.391C123.645 110.391 124.264 110.572 124.682 110.936C125.104 111.299 125.314 111.865 125.314 112.635V117H124.336L124.072 116.08H124.025C123.842 116.314 123.652 116.508 123.457 116.66C123.262 116.812 123.035 116.926 122.777 117C122.523 117.078 122.213 117.117 121.846 117.117C121.459 117.117 121.113 117.047 120.809 116.906C120.504 116.762 120.264 116.543 120.088 116.25C119.912 115.957 119.824 115.586 119.824 115.137C119.824 114.469 120.072 113.967 120.568 113.631C121.068 113.295 121.822 113.109 122.83 113.074L123.955 113.033V112.693C123.955 112.244 123.85 111.924 123.639 111.732C123.432 111.541 123.139 111.445 122.76 111.445C122.436 111.445 122.121 111.492 121.816 111.586C121.512 111.68 121.215 111.795 120.926 111.932L120.48 110.959C120.797 110.791 121.156 110.654 121.559 110.549C121.965 110.443 122.387 110.391 122.824 110.391ZM123.949 113.9L123.111 113.93C122.424 113.953 121.941 114.07 121.664 114.281C121.387 114.492 121.248 114.781 121.248 115.148C121.248 115.469 121.344 115.703 121.535 115.852C121.727 115.996 121.979 116.068 122.291 116.068C122.768 116.068 123.162 115.934 123.475 115.664C123.791 115.391 123.949 114.99 123.949 114.463V113.9ZM128.619 107.883V110.08C128.619 110.334 128.611 110.584 128.596 110.83C128.584 111.072 128.572 111.262 128.561 111.398H128.619C128.795 111.117 129.039 110.881 129.352 110.689C129.668 110.494 130.072 110.396 130.564 110.396C131.334 110.396 131.953 110.68 132.422 111.246C132.891 111.809 133.125 112.643 133.125 113.748C133.125 114.482 133.018 115.1 132.803 115.6C132.588 116.1 132.285 116.479 131.895 116.736C131.508 116.99 131.053 117.117 130.529 117.117C130.037 117.117 129.639 117.027 129.334 116.848C129.033 116.664 128.797 116.451 128.625 116.209H128.525L128.273 117H127.242V107.883H128.619ZM130.201 111.516C129.811 111.516 129.5 111.594 129.27 111.75C129.043 111.906 128.879 112.141 128.777 112.453C128.676 112.762 128.623 113.154 128.619 113.631V113.754C128.619 114.477 128.732 115.029 128.959 115.412C129.189 115.795 129.607 115.986 130.213 115.986C130.693 115.986 131.062 115.793 131.32 115.406C131.578 115.016 131.707 114.457 131.707 113.73C131.707 112.996 131.578 112.443 131.32 112.072C131.066 111.701 130.693 111.516 130.201 111.516ZM137.303 110.391C137.881 110.391 138.377 110.51 138.791 110.748C139.205 110.986 139.523 111.324 139.746 111.762C139.969 112.199 140.08 112.723 140.08 113.332V114.07H135.75C135.766 114.699 135.934 115.184 136.254 115.523C136.578 115.863 137.031 116.033 137.613 116.033C138.027 116.033 138.398 115.994 138.727 115.916C139.059 115.834 139.4 115.715 139.752 115.559V116.678C139.428 116.83 139.098 116.941 138.762 117.012C138.426 117.082 138.023 117.117 137.555 117.117C136.918 117.117 136.357 116.994 135.873 116.748C135.393 116.498 135.016 116.127 134.742 115.635C134.473 115.143 134.338 114.531 134.338 113.801C134.338 113.074 134.461 112.457 134.707 111.949C134.953 111.441 135.299 111.055 135.744 110.789C136.189 110.523 136.709 110.391 137.303 110.391ZM137.303 111.428C136.869 111.428 136.518 111.568 136.248 111.85C135.982 112.131 135.826 112.543 135.779 113.086H138.732C138.729 112.762 138.674 112.475 138.568 112.225C138.467 111.975 138.311 111.779 138.1 111.639C137.893 111.498 137.627 111.428 137.303 111.428ZM143.016 117H141.633V107.883H143.016V117Z" fill="#161616"/>
<circle cx="7" cy="140" r="6.5" fill="white" stroke="#155C93"/>
<path fill-rule="evenodd" clip-rule="evenodd" d="M0 140C0 136.134 3.13401 133 7 133C10.866 133 14 136.134 14 140C14 143.866 10.866 147 7 147C3.13401 147 0 143.866 0 140ZM7 143.5C5.067 143.5 3.5 141.933 3.5 140C3.5 138.067 5.067 136.5 7 136.5C8.933 136.5 10.5 138.067 10.5 140C10.5 141.933 8.933 143.5 7 143.5Z" fill="#155C93"/>
<path d="M25.3574 140.729L27.6367 136.434H28.709L25.8555 141.678V145H24.8594V141.725L22 136.434H23.0898L25.3574 140.729ZM32.2129 138.461C32.7598 138.461 33.2285 138.582 33.6191 138.824C34.0098 139.066 34.3086 139.406 34.5156 139.844C34.7227 140.277 34.8262 140.785 34.8262 141.367V141.971H30.3906C30.4023 142.725 30.5898 143.299 30.9531 143.693C31.3164 144.088 31.8281 144.285 32.4883 144.285C32.8945 144.285 33.2539 144.248 33.5664 144.174C33.8789 144.1 34.2031 143.99 34.5391 143.846V144.701C34.2148 144.846 33.8926 144.951 33.5723 145.018C33.2559 145.084 32.8809 145.117 32.4473 145.117C31.8301 145.117 31.291 144.992 30.8301 144.742C30.373 144.488 30.0176 144.117 29.7637 143.629C29.5098 143.141 29.3828 142.543 29.3828 141.836C29.3828 141.145 29.498 140.547 29.7285 140.043C29.9629 139.535 30.291 139.145 30.7129 138.871C31.1387 138.598 31.6387 138.461 32.2129 138.461ZM32.2012 139.258C31.6816 139.258 31.2676 139.428 30.959 139.768C30.6504 140.107 30.4668 140.582 30.4082 141.191H33.8066C33.8027 140.809 33.7422 140.473 33.625 140.184C33.5117 139.891 33.3379 139.664 33.1035 139.504C32.8691 139.34 32.5684 139.258 32.2012 139.258ZM40.6328 143.242C40.6328 143.652 40.5293 143.998 40.3223 144.279C40.1191 144.557 39.8262 144.766 39.4434 144.906C39.0645 145.047 38.6113 145.117 38.084 145.117C37.6348 145.117 37.2461 145.082 36.918 145.012C36.5898 144.941 36.3027 144.842 36.0566 144.713V143.816C36.3184 143.945 36.6309 144.062 36.9941 144.168C37.3574 144.273 37.7285 144.326 38.1074 144.326C38.6621 144.326 39.0645 144.236 39.3145 144.057C39.5645 143.877 39.6895 143.633 39.6895 143.324C39.6895 143.148 39.6387 142.994 39.5371 142.861C39.4395 142.725 39.2734 142.594 39.0391 142.469C38.8047 142.34 38.4805 142.199 38.0664 142.047C37.6562 141.891 37.3008 141.736 37 141.584C36.7031 141.428 36.4727 141.238 36.3086 141.016C36.1484 140.793 36.0684 140.504 36.0684 140.148C36.0684 139.605 36.2871 139.189 36.7246 138.9C37.166 138.607 37.7441 138.461 38.459 138.461C38.8457 138.461 39.207 138.5 39.543 138.578C39.8828 138.652 40.1992 138.754 40.4922 138.883L40.1641 139.662C39.8984 139.549 39.6152 139.453 39.3145 139.375C39.0137 139.297 38.707 139.258 38.3945 139.258C37.9453 139.258 37.5996 139.332 37.3574 139.48C37.1191 139.629 37 139.832 37 140.09C37 140.289 37.0547 140.453 37.1641 140.582C37.2773 140.711 37.457 140.832 37.7031 140.945C37.9492 141.059 38.2734 141.191 38.6758 141.344C39.0781 141.492 39.4258 141.646 39.7188 141.807C40.0117 141.963 40.2363 142.154 40.3926 142.381C40.5527 142.604 40.6328 142.891 40.6328 143.242Z" fill="#161616"/>
<rect x="58.5" y="133.5" width="13" height="13" rx="6.5" fill="white" stroke="#61656E"/>
<path d="M87.8691 145H86.7207L82.0508 137.805H82.0039C82.0156 137.996 82.0293 138.215 82.0449 138.461C82.0605 138.703 82.0723 138.963 82.0801 139.24C82.0918 139.514 82.0977 139.793 82.0977 140.078V145H81.1719V136.434H82.3145L86.9668 143.605H87.0078C87 143.469 86.9902 143.275 86.9785 143.025C86.9668 142.771 86.9551 142.5 86.9434 142.211C86.9355 141.918 86.9316 141.646 86.9316 141.396V136.434H87.8691V145ZM95.5977 141.777C95.5977 142.305 95.5293 142.775 95.3926 143.189C95.2559 143.604 95.0586 143.953 94.8008 144.238C94.543 144.523 94.2305 144.742 93.8633 144.895C93.5 145.043 93.0879 145.117 92.627 145.117C92.1973 145.117 91.8027 145.043 91.4434 144.895C91.0879 144.742 90.7793 144.523 90.5176 144.238C90.2598 143.953 90.0586 143.604 89.9141 143.189C89.7734 142.775 89.7031 142.305 89.7031 141.777C89.7031 141.074 89.8223 140.477 90.0605 139.984C90.2988 139.488 90.6387 139.111 91.0801 138.854C91.5254 138.592 92.0547 138.461 92.668 138.461C93.2539 138.461 93.7656 138.592 94.2031 138.854C94.6445 139.115 94.9863 139.494 95.2285 139.99C95.4746 140.482 95.5977 141.078 95.5977 141.777ZM90.7109 141.777C90.7109 142.293 90.7793 142.74 90.916 143.119C91.0527 143.498 91.2637 143.791 91.5488 143.998C91.834 144.205 92.2012 144.309 92.6504 144.309C93.0957 144.309 93.4609 144.205 93.7461 143.998C94.0352 143.791 94.248 143.498 94.3848 143.119C94.5215 142.74 94.5898 142.293 94.5898 141.777C94.5898 141.266 94.5215 140.824 94.3848 140.453C94.248 140.078 94.0371 139.789 93.752 139.586C93.4668 139.383 93.0977 139.281 92.6445 139.281C91.9766 139.281 91.4863 139.502 91.1738 139.943C90.8652 140.385 90.7109 140.996 90.7109 141.777Z" fill="#161616"/>
<path d="M2.51953 43H1.125V34.4336H5.96484V35.6172H2.51953V38.2891H5.74219V39.4668H2.51953V43ZM8.75977 36.5137V43H7.38281V36.5137H8.75977ZM8.08008 34.0293C8.29102 34.0293 8.47266 34.0859 8.625 34.1992C8.78125 34.3125 8.85938 34.5078 8.85938 34.7852C8.85938 35.0586 8.78125 35.2539 8.625 35.3711C8.47266 35.4844 8.29102 35.541 8.08008 35.541C7.86133 35.541 7.67578 35.4844 7.52344 35.3711C7.375 35.2539 7.30078 35.0586 7.30078 34.7852C7.30078 34.5078 7.375 34.3125 7.52344 34.1992C7.67578 34.0859 7.86133 34.0293 8.08008 34.0293ZM13.3184 36.3906C13.8965 36.3906 14.3926 36.5098 14.8066 36.748C15.2207 36.9863 15.5391 37.3242 15.7617 37.7617C15.9844 38.1992 16.0957 38.7227 16.0957 39.332V40.0703H11.7656C11.7812 40.6992 11.9492 41.1836 12.2695 41.5234C12.5938 41.8633 13.0469 42.0332 13.6289 42.0332C14.043 42.0332 14.4141 41.9941 14.7422 41.916C15.0742 41.834 15.416 41.7148 15.7676 41.5586V42.6777C15.4434 42.8301 15.1133 42.9414 14.7773 43.0117C14.4414 43.082 14.0391 43.1172 13.5703 43.1172C12.9336 43.1172 12.373 42.9941 11.8887 42.748C11.4082 42.498 11.0312 42.127 10.7578 41.6348C10.4883 41.1426 10.3535 40.5312 10.3535 39.8008C10.3535 39.0742 10.4766 38.457 10.7227 37.9492C10.9688 37.4414 11.3145 37.0547 11.7598 36.7891C12.2051 36.5234 12.7246 36.3906 13.3184 36.3906ZM13.3184 37.4277C12.8848 37.4277 12.5332 37.5684 12.2637 37.8496C11.998 38.1309 11.8418 38.543 11.7949 39.0859H14.748C14.7441 38.7617 14.6895 38.4746 14.584 38.2246C14.4824 37.9746 14.3262 37.7793 14.1152 37.6387C13.9082 37.498 13.6426 37.4277 13.3184 37.4277ZM19.0312 43H17.6484V33.8828H19.0312V43ZM23.1797 43.1172C22.4062 43.1172 21.7852 42.8359 21.3164 42.2734C20.8516 41.707 20.6191 40.873 20.6191 39.7715C20.6191 38.6582 20.8555 37.8164 21.3281 37.2461C21.8047 36.6758 22.4316 36.3906 23.209 36.3906C23.5371 36.3906 23.8242 36.4355 24.0703 36.5254C24.3164 36.6113 24.5273 36.7285 24.7031 36.877C24.8828 37.0254 25.0352 37.1914 25.1602 37.375H25.2246C25.2051 37.2539 25.1816 37.0801 25.1543 36.8535C25.1309 36.623 25.1191 36.4102 25.1191 36.2148V33.8828H26.502V43H25.4238L25.1777 42.1152H25.1191C25.002 42.3027 24.8535 42.4727 24.6738 42.625C24.498 42.7734 24.2871 42.8926 24.041 42.9824C23.7988 43.0723 23.5117 43.1172 23.1797 43.1172ZM23.5664 41.998C24.1562 41.998 24.5723 41.8281 24.8145 41.4883C25.0566 41.1484 25.1816 40.6387 25.1895 39.959V39.7773C25.1895 39.0508 25.0723 38.4941 24.8379 38.1074C24.6035 37.7168 24.1758 37.5215 23.5547 37.5215C23.0586 37.5215 22.6797 37.7227 22.418 38.125C22.1602 38.5234 22.0312 39.0801 22.0312 39.7949C22.0312 40.5098 22.1602 41.0566 22.418 41.4355C22.6797 41.8105 23.0625 41.998 23.5664 41.998ZM32.9766 43H31.5938V33.8828H32.9766V43ZM37.4883 36.3906C38.3086 36.3906 38.9277 36.5723 39.3457 36.9355C39.7676 37.2988 39.9785 37.8652 39.9785 38.6348V43H39L38.7363 42.0801H38.6895C38.5059 42.3145 38.3164 42.5078 38.1211 42.6602C37.9258 42.8125 37.6992 42.9258 37.4414 43C37.1875 43.0781 36.877 43.1172 36.5098 43.1172C36.123 43.1172 35.7773 43.0469 35.4727 42.9062C35.168 42.7617 34.9277 42.543 34.752 42.25C34.5762 41.957 34.4883 41.5859 34.4883 41.1367C34.4883 40.4688 34.7363 39.9668 35.2324 39.6309C35.7324 39.2949 36.4863 39.1094 37.4941 39.0742L38.6191 39.0332V38.6934C38.6191 38.2441 38.5137 37.9238 38.3027 37.7324C38.0957 37.541 37.8027 37.4453 37.4238 37.4453C37.0996 37.4453 36.7852 37.4922 36.4805 37.5859C36.1758 37.6797 35.8789 37.7949 35.5898 37.9316L35.1445 36.959C35.4609 36.791 35.8203 36.6543 36.2227 36.5488C36.6289 36.4434 37.0508 36.3906 37.4883 36.3906ZM38.6133 39.9004L37.7754 39.9297C37.0879 39.9531 36.6055 40.0703 36.3281 40.2812C36.0508 40.4922 35.9121 40.7812 35.9121 41.1484C35.9121 41.4688 36.0078 41.7031 36.1992 41.8516C36.3906 41.9961 36.6426 42.0684 36.9551 42.0684C37.4316 42.0684 37.8262 41.9336 38.1387 41.6641C38.4551 41.3906 38.6133 40.9902 38.6133 40.4629V39.9004ZM43.2832 33.8828V36.0801C43.2832 36.334 43.2754 36.584 43.2598 36.8301C43.248 37.0723 43.2363 37.2617 43.2246 37.3984H43.2832C43.459 37.1172 43.7031 36.8809 44.0156 36.6895C44.332 36.4941 44.7363 36.3965 45.2285 36.3965C45.998 36.3965 46.6172 36.6797 47.0859 37.2461C47.5547 37.8086 47.7891 38.6426 47.7891 39.748C47.7891 40.4824 47.6816 41.0996 47.4668 41.5996C47.252 42.0996 46.9492 42.4785 46.5586 42.7363C46.1719 42.9902 45.7168 43.1172 45.1934 43.1172C44.7012 43.1172 44.3027 43.0273 43.998 42.8477C43.6973 42.6641 43.4609 42.4512 43.2891 42.209H43.1895L42.9375 43H41.9062V33.8828H43.2832ZM44.8652 37.5156C44.4746 37.5156 44.1641 37.5938 43.9336 37.75C43.707 37.9062 43.543 38.1406 43.4414 38.4531C43.3398 38.7617 43.2871 39.1543 43.2832 39.6309V39.7539C43.2832 40.4766 43.3965 41.0293 43.623 41.4121C43.8535 41.7949 44.2715 41.9863 44.877 41.9863C45.3574 41.9863 45.7266 41.793 45.9844 41.4062C46.2422 41.0156 46.3711 40.457 46.3711 39.7305C46.3711 38.9961 46.2422 38.4434 45.9844 38.0723C45.7305 37.7012 45.3574 37.5156 44.8652 37.5156ZM51.9668 36.3906C52.5449 36.3906 53.041 36.5098 53.4551 36.748C53.8691 36.9863 54.1875 37.3242 54.4102 37.7617C54.6328 38.1992 54.7441 38.7227 54.7441 39.332V40.0703H50.4141C50.4297 40.6992 50.5977 41.1836 50.918 41.5234C51.2422 41.8633 51.6953 42.0332 52.2773 42.0332C52.6914 42.0332 53.0625 41.9941 53.3906 41.916C53.7227 41.834 54.0645 41.7148 54.416 41.5586V42.6777C54.0918 42.8301 53.7617 42.9414 53.4258 43.0117C53.0898 43.082 52.6875 43.1172 52.2188 43.1172C51.582 43.1172 51.0215 42.9941 50.5371 42.748C50.0566 42.498 49.6797 42.127 49.4062 41.6348C49.1367 41.1426 49.002 40.5312 49.002 39.8008C49.002 39.0742 49.125 38.457 49.3711 37.9492C49.6172 37.4414 49.9629 37.0547 50.4082 36.7891C50.8535 36.5234 51.373 36.3906 51.9668 36.3906ZM51.9668 37.4277C51.5332 37.4277 51.1816 37.5684 50.9121 37.8496C50.6465 38.1309 50.4902 38.543 50.4434 39.0859H53.3965C53.3926 38.7617 53.3379 38.4746 53.2324 38.2246C53.1309 37.9746 52.9746 37.7793 52.7637 37.6387C52.5566 37.498 52.291 37.4277 51.9668 37.4277ZM57.6797 43H56.2969V33.8828H57.6797V43Z" fill="#161616"/>
<mask id="path-11-inside-1_3333_309479" fill="white">
<path d="M0 52H330V80H0V52Z"/>
</mask>
<path d="M0 52H330V80H0V52Z" fill="white"/>
<path d="M15.1543 62.4336L12.0781 71H11.0762L8 62.4336H9.04297L11.0469 68.0762C11.1289 68.3027 11.2012 68.5195 11.2637 68.7266C11.3301 68.9336 11.3887 69.1328 11.4395 69.3242C11.4902 69.5156 11.5352 69.7012 11.5742 69.8809C11.6133 69.7012 11.6582 69.5156 11.709 69.3242C11.7598 69.1289 11.8184 68.9277 11.8848 68.7207C11.9512 68.5098 12.0254 68.2891 12.1074 68.0586L14.0996 62.4336H15.1543ZM18.5879 64.4727C19.3535 64.4727 19.9219 64.6445 20.293 64.9883C20.6641 65.332 20.8496 65.8809 20.8496 66.6348V71H20.1406L19.9531 70.0508H19.9062C19.7266 70.2852 19.5391 70.4824 19.3438 70.6426C19.1484 70.7988 18.9219 70.918 18.6641 71C18.4102 71.0781 18.0977 71.1172 17.7266 71.1172C17.3359 71.1172 16.9883 71.0488 16.6836 70.9121C16.3828 70.7754 16.1445 70.5684 15.9688 70.291C15.7969 70.0137 15.7109 69.6621 15.7109 69.2363C15.7109 68.5957 15.9648 68.1035 16.4727 67.7598C16.9805 67.416 17.7539 67.2285 18.793 67.1973L19.9004 67.1504V66.7578C19.9004 66.2031 19.7812 65.8145 19.543 65.5918C19.3047 65.3691 18.9688 65.2578 18.5352 65.2578C18.1992 65.2578 17.8789 65.3066 17.5742 65.4043C17.2695 65.502 16.9805 65.6172 16.707 65.75L16.4082 65.0117C16.6973 64.8633 17.0293 64.7363 17.4043 64.6309C17.7793 64.5254 18.1738 64.4727 18.5879 64.4727ZM19.8887 67.8359L18.9102 67.877C18.1094 67.9082 17.5449 68.0391 17.2168 68.2695C16.8887 68.5 16.7246 68.8262 16.7246 69.248C16.7246 69.6152 16.8359 69.8867 17.0586 70.0625C17.2812 70.2383 17.5762 70.3262 17.9434 70.3262C18.5137 70.3262 18.9805 70.168 19.3438 69.8516C19.707 69.5352 19.8887 69.0605 19.8887 68.4277V67.8359ZM23.832 71H22.8535V61.8828H23.832V71ZM31.1914 64.5781V71H30.3945L30.2539 70.0977H30.2012C30.0684 70.3203 29.8965 70.5078 29.6855 70.6602C29.4746 70.8125 29.2363 70.9258 28.9707 71C28.709 71.0781 28.4297 71.1172 28.1328 71.1172C27.625 71.1172 27.1992 71.0352 26.8555 70.8711C26.5117 70.707 26.252 70.4531 26.0762 70.1094C25.9043 69.7656 25.8184 69.3242 25.8184 68.7852V64.5781H26.8027V68.7148C26.8027 69.25 26.9238 69.6504 27.166 69.916C27.4082 70.1777 27.7773 70.3086 28.2734 70.3086C28.75 70.3086 29.1289 70.2188 29.4102 70.0391C29.6953 69.8594 29.9004 69.5957 30.0254 69.248C30.1504 68.8965 30.2129 68.4668 30.2129 67.959V64.5781H31.1914ZM35.7207 64.4609C36.2676 64.4609 36.7363 64.582 37.127 64.8242C37.5176 65.0664 37.8164 65.4062 38.0234 65.8438C38.2305 66.2773 38.334 66.7852 38.334 67.3672V67.9707H33.8984C33.9102 68.7246 34.0977 69.2988 34.4609 69.6934C34.8242 70.0879 35.3359 70.2852 35.9961 70.2852C36.4023 70.2852 36.7617 70.248 37.0742 70.1738C37.3867 70.0996 37.7109 69.9902 38.0469 69.8457V70.7012C37.7227 70.8457 37.4004 70.9512 37.0801 71.0176C36.7637 71.084 36.3887 71.1172 35.9551 71.1172C35.3379 71.1172 34.7988 70.9922 34.3379 70.7422C33.8809 70.4883 33.5254 70.1172 33.2715 69.6289C33.0176 69.1406 32.8906 68.543 32.8906 67.8359C32.8906 67.1445 33.0059 66.5469 33.2363 66.043C33.4707 65.5352 33.7988 65.1445 34.2207 64.8711C34.6465 64.5977 35.1465 64.4609 35.7207 64.4609ZM35.709 65.2578C35.1895 65.2578 34.7754 65.4277 34.4668 65.7676C34.1582 66.1074 33.9746 66.582 33.916 67.1914H37.3145C37.3105 66.8086 37.25 66.4727 37.1328 66.1836C37.0195 65.8906 36.8457 65.6641 36.6113 65.5039C36.377 65.3398 36.0762 65.2578 35.709 65.2578ZM45.1777 70.3203C45.3379 70.3203 45.502 70.3066 45.6699 70.2793C45.8379 70.252 45.9746 70.2188 46.0801 70.1797V70.9355C45.9668 70.9863 45.8086 71.0293 45.6055 71.0645C45.4062 71.0996 45.2109 71.1172 45.0195 71.1172C44.6797 71.1172 44.3711 71.0586 44.0938 70.9414C43.8164 70.8203 43.5938 70.6172 43.4258 70.332C43.2617 70.0469 43.1797 69.6523 43.1797 69.1484V65.3398H42.2656V64.8652L43.1855 64.4844L43.5723 63.0898H44.1582V64.5781H46.0391V65.3398H44.1582V69.1191C44.1582 69.5215 44.25 69.8223 44.4336 70.0215C44.6211 70.2207 44.8691 70.3203 45.1777 70.3203ZM49.8535 64.4609C50.4004 64.4609 50.8691 64.582 51.2598 64.8242C51.6504 65.0664 51.9492 65.4062 52.1562 65.8438C52.3633 66.2773 52.4668 66.7852 52.4668 67.3672V67.9707H48.0312C48.043 68.7246 48.2305 69.2988 48.5938 69.6934C48.957 70.0879 49.4688 70.2852 50.1289 70.2852C50.5352 70.2852 50.8945 70.248 51.207 70.1738C51.5195 70.0996 51.8438 69.9902 52.1797 69.8457V70.7012C51.8555 70.8457 51.5332 70.9512 51.2129 71.0176C50.8965 71.084 50.5215 71.1172 50.0879 71.1172C49.4707 71.1172 48.9316 70.9922 48.4707 70.7422C48.0137 70.4883 47.6582 70.1172 47.4043 69.6289C47.1504 69.1406 47.0234 68.543 47.0234 67.8359C47.0234 67.1445 47.1387 66.5469 47.3691 66.043C47.6035 65.5352 47.9316 65.1445 48.3535 64.8711C48.7793 64.5977 49.2793 64.4609 49.8535 64.4609ZM49.8418 65.2578C49.3223 65.2578 48.9082 65.4277 48.5996 65.7676C48.291 66.1074 48.1074 66.582 48.0488 67.1914H51.4473C51.4434 66.8086 51.3828 66.4727 51.2656 66.1836C51.1523 65.8906 50.9785 65.6641 50.7441 65.5039C50.5098 65.3398 50.209 65.2578 49.8418 65.2578ZM55.6484 67.7129L53.4277 64.5781H54.541L56.2344 67.0508L57.9219 64.5781H59.0234L56.8027 67.7129L59.1465 71H58.0332L56.2344 68.3809L54.4238 71H53.3223L55.6484 67.7129ZM62.4746 70.3203C62.6348 70.3203 62.7988 70.3066 62.9668 70.2793C63.1348 70.252 63.2715 70.2188 63.377 70.1797V70.9355C63.2637 70.9863 63.1055 71.0293 62.9023 71.0645C62.7031 71.0996 62.5078 71.1172 62.3164 71.1172C61.9766 71.1172 61.668 71.0586 61.3906 70.9414C61.1133 70.8203 60.8906 70.6172 60.7227 70.332C60.5586 70.0469 60.4766 69.6523 60.4766 69.1484V65.3398H59.5625V64.8652L60.4824 64.4844L60.8691 63.0898H61.4551V64.5781H63.3359V65.3398H61.4551V69.1191C61.4551 69.5215 61.5469 69.8223 61.7305 70.0215C61.918 70.2207 62.166 70.3203 62.4746 70.3203Z" fill="#61656E"/>
<path fill-rule="evenodd" clip-rule="evenodd" d="M316 67.3075L320.401 62.5L321.5 63.4921L316 69.5L310.5 63.4921L311.599 62.5L316 67.3075Z" fill="#161616"/>
<path d="M330 79H0V81H330V79Z" fill="#61656E" mask="url(#path-11-inside-1_3333_309479)"/>
<rect x="338.5" y="59.5" width="13" height="13" fill="white" stroke="#155C93"/>
<path fill-rule="evenodd" clip-rule="evenodd" d="M351 60H339V72H351V60ZM348.858 61.8459L342.672 68.0327L340.742 66.103L339.681 67.1637L342.672 70.1541L349.919 62.9066L348.858 61.8459Z" fill="#155C93"/>
<path d="M364.834 63.1895C364.361 63.1895 363.936 63.2715 363.557 63.4355C363.182 63.5957 362.861 63.8301 362.596 64.1387C362.334 64.4434 362.133 64.8125 361.992 65.2461C361.852 65.6797 361.781 66.168 361.781 66.7109C361.781 67.4297 361.893 68.0547 362.115 68.5859C362.342 69.1133 362.678 69.5215 363.123 69.8105C363.572 70.0996 364.133 70.2441 364.805 70.2441C365.188 70.2441 365.547 70.2129 365.883 70.1504C366.223 70.084 366.553 70.002 366.873 69.9043V70.7715C366.561 70.8887 366.232 70.9746 365.889 71.0293C365.545 71.0879 365.137 71.1172 364.664 71.1172C363.793 71.1172 363.064 70.9375 362.479 70.5781C361.896 70.2148 361.459 69.7031 361.166 69.043C360.877 68.3828 360.732 67.6035 360.732 66.7051C360.732 66.0566 360.822 65.4648 361.002 64.9297C361.186 64.3906 361.451 63.9258 361.799 63.5352C362.15 63.1445 362.58 62.8438 363.088 62.6328C363.6 62.418 364.186 62.3105 364.846 62.3105C365.279 62.3105 365.697 62.3535 366.1 62.4395C366.502 62.5254 366.865 62.6484 367.189 62.8086L366.791 63.6523C366.518 63.5273 366.217 63.4199 365.889 63.3301C365.564 63.2363 365.213 63.1895 364.834 63.1895ZM369.557 61.8828V64.6074C369.557 64.7637 369.553 64.9219 369.545 65.082C369.537 65.2383 369.523 65.3828 369.504 65.5156H369.568C369.701 65.2891 369.869 65.0996 370.072 64.9473C370.279 64.791 370.514 64.6738 370.775 64.5957C371.037 64.5137 371.314 64.4727 371.607 64.4727C372.123 64.4727 372.553 64.5547 372.896 64.7188C373.244 64.8828 373.504 65.1367 373.676 65.4805C373.852 65.8242 373.939 66.2695 373.939 66.8164V71H372.979V66.8809C372.979 66.3457 372.855 65.9453 372.609 65.6797C372.367 65.4141 371.994 65.2812 371.49 65.2812C371.014 65.2812 370.633 65.373 370.348 65.5566C370.066 65.7363 369.863 66.002 369.738 66.3535C369.617 66.7051 369.557 67.1348 369.557 67.6426V71H368.584V61.8828H369.557ZM378.416 64.4609C378.963 64.4609 379.432 64.582 379.822 64.8242C380.213 65.0664 380.512 65.4062 380.719 65.8438C380.926 66.2773 381.029 66.7852 381.029 67.3672V67.9707H376.594C376.605 68.7246 376.793 69.2988 377.156 69.6934C377.52 70.0879 378.031 70.2852 378.691 70.2852C379.098 70.2852 379.457 70.248 379.77 70.1738C380.082 70.0996 380.406 69.9902 380.742 69.8457V70.7012C380.418 70.8457 380.096 70.9512 379.775 71.0176C379.459 71.084 379.084 71.1172 378.65 71.1172C378.033 71.1172 377.494 70.9922 377.033 70.7422C376.576 70.4883 376.221 70.1172 375.967 69.6289C375.713 69.1406 375.586 68.543 375.586 67.8359C375.586 67.1445 375.701 66.5469 375.932 66.043C376.166 65.5352 376.494 65.1445 376.916 64.8711C377.342 64.5977 377.842 64.4609 378.416 64.4609ZM378.404 65.2578C377.885 65.2578 377.471 65.4277 377.162 65.7676C376.854 66.1074 376.67 66.582 376.611 67.1914H380.01C380.006 66.8086 379.945 66.4727 379.828 66.1836C379.715 65.8906 379.541 65.6641 379.307 65.5039C379.072 65.3398 378.771 65.2578 378.404 65.2578ZM385.254 71.1172C384.676 71.1172 384.166 70.998 383.725 70.7598C383.283 70.5215 382.939 70.1582 382.693 69.6699C382.447 69.1816 382.324 68.5664 382.324 67.8242C382.324 67.0469 382.453 66.4121 382.711 65.9199C382.973 65.4238 383.332 65.0566 383.789 64.8184C384.246 64.5801 384.766 64.4609 385.348 64.4609C385.668 64.4609 385.977 64.4941 386.273 64.5605C386.574 64.623 386.82 64.7031 387.012 64.8008L386.719 65.6152C386.523 65.5371 386.297 65.4668 386.039 65.4043C385.785 65.3418 385.547 65.3105 385.324 65.3105C384.879 65.3105 384.508 65.4062 384.211 65.5977C383.918 65.7891 383.697 66.0703 383.549 66.4414C383.404 66.8125 383.332 67.2695 383.332 67.8125C383.332 68.332 383.402 68.7754 383.543 69.1426C383.688 69.5098 383.9 69.791 384.182 69.9863C384.467 70.1777 384.822 70.2734 385.248 70.2734C385.588 70.2734 385.895 70.2383 386.168 70.168C386.441 70.0938 386.689 70.0078 386.912 69.9102V70.7773C386.697 70.8867 386.457 70.9707 386.191 71.0293C385.93 71.0879 385.617 71.1172 385.254 71.1172ZM389.402 61.8828V66.6172C389.402 66.7734 389.396 66.9648 389.385 67.1914C389.373 67.4141 389.363 67.6113 389.355 67.7832H389.396C389.479 67.6816 389.598 67.5312 389.754 67.332C389.914 67.1328 390.049 66.9727 390.158 66.8516L392.291 64.5781H393.434L390.85 67.3203L393.621 71H392.449L390.182 67.959L389.402 68.6738V71H388.436V61.8828H389.402ZM395.713 61.8828V64.1621C395.713 64.4238 395.705 64.6777 395.689 64.9238C395.678 65.1699 395.668 65.3613 395.66 65.498H395.713C395.889 65.209 396.143 64.9648 396.475 64.7656C396.807 64.5664 397.23 64.4668 397.746 64.4668C398.551 64.4668 399.191 64.7461 399.668 65.3047C400.148 65.8594 400.389 66.6855 400.389 67.7832C400.389 68.5059 400.279 69.1152 400.061 69.6113C399.842 70.1074 399.533 70.4824 399.135 70.7363C398.736 70.9902 398.266 71.1172 397.723 71.1172C397.215 71.1172 396.797 71.0234 396.469 70.8359C396.145 70.6445 395.895 70.4121 395.719 70.1387H395.643L395.443 71H394.74V61.8828H395.713ZM397.588 65.2812C397.123 65.2812 396.754 65.373 396.48 65.5566C396.207 65.7363 396.01 66.0098 395.889 66.377C395.771 66.7402 395.713 67.2012 395.713 67.7598V67.8125C395.713 68.6211 395.848 69.2402 396.117 69.6699C396.387 70.0957 396.877 70.3086 397.588 70.3086C398.186 70.3086 398.633 70.0898 398.93 69.6523C399.23 69.2148 399.381 68.5898 399.381 67.7773C399.381 66.9492 399.232 66.3262 398.936 65.9082C398.643 65.4902 398.193 65.2812 397.588 65.2812ZM407.625 67.7773C407.625 68.3047 407.557 68.7754 407.42 69.1895C407.283 69.6035 407.086 69.9531 406.828 70.2383C406.57 70.5234 406.258 70.7422 405.891 70.8945C405.527 71.043 405.115 71.1172 404.654 71.1172C404.225 71.1172 403.83 71.043 403.471 70.8945C403.115 70.7422 402.807 70.5234 402.545 70.2383C402.287 69.9531 402.086 69.6035 401.941 69.1895C401.801 68.7754 401.73 68.3047 401.73 67.7773C401.73 67.0742 401.85 66.4766 402.088 65.9844C402.326 65.4883 402.666 65.1113 403.107 64.8535C403.553 64.5918 404.082 64.4609 404.695 64.4609C405.281 64.4609 405.793 64.5918 406.23 64.8535C406.672 65.1152 407.014 65.4941 407.256 65.9902C407.502 66.4824 407.625 67.0781 407.625 67.7773ZM402.738 67.7773C402.738 68.293 402.807 68.7402 402.943 69.1191C403.08 69.498 403.291 69.791 403.576 69.998C403.861 70.2051 404.229 70.3086 404.678 70.3086C405.123 70.3086 405.488 70.2051 405.773 69.998C406.062 69.791 406.275 69.498 406.412 69.1191C406.549 68.7402 406.617 68.293 406.617 67.7773C406.617 67.2656 406.549 66.8242 406.412 66.4531C406.275 66.0781 406.064 65.7891 405.779 65.5859C405.494 65.3828 405.125 65.2812 404.672 65.2812C404.004 65.2812 403.514 65.502 403.201 65.9434C402.893 66.3848 402.738 66.9961 402.738 67.7773ZM410.836 67.7129L408.615 64.5781H409.729L411.422 67.0508L413.109 64.5781H414.211L411.99 67.7129L414.334 71H413.221L411.422 68.3809L409.611 71H408.51L410.836 67.7129ZM419.684 71H418.705V61.8828H419.684V71ZM424.143 64.4727C424.908 64.4727 425.477 64.6445 425.848 64.9883C426.219 65.332 426.404 65.8809 426.404 66.6348V71H425.695L425.508 70.0508H425.461C425.281 70.2852 425.094 70.4824 424.898 70.6426C424.703 70.7988 424.477 70.918 424.219 71C423.965 71.0781 423.652 71.1172 423.281 71.1172C422.891 71.1172 422.543 71.0488 422.238 70.9121C421.938 70.7754 421.699 70.5684 421.523 70.291C421.352 70.0137 421.266 69.6621 421.266 69.2363C421.266 68.5957 421.52 68.1035 422.027 67.7598C422.535 67.416 423.309 67.2285 424.348 67.1973L425.455 67.1504V66.7578C425.455 66.2031 425.336 65.8145 425.098 65.5918C424.859 65.3691 424.523 65.2578 424.09 65.2578C423.754 65.2578 423.434 65.3066 423.129 65.4043C422.824 65.502 422.535 65.6172 422.262 65.75L421.963 65.0117C422.252 64.8633 422.584 64.7363 422.959 64.6309C423.334 64.5254 423.729 64.4727 424.143 64.4727ZM425.443 67.8359L424.465 67.877C423.664 67.9082 423.1 68.0391 422.771 68.2695C422.443 68.5 422.279 68.8262 422.279 69.248C422.279 69.6152 422.391 69.8867 422.613 70.0625C422.836 70.2383 423.131 70.3262 423.498 70.3262C424.068 70.3262 424.535 70.168 424.898 69.8516C425.262 69.5352 425.443 69.0605 425.443 68.4277V67.8359ZM429.381 61.8828V64.1621C429.381 64.4238 429.373 64.6777 429.357 64.9238C429.346 65.1699 429.336 65.3613 429.328 65.498H429.381C429.557 65.209 429.811 64.9648 430.143 64.7656C430.475 64.5664 430.898 64.4668 431.414 64.4668C432.219 64.4668 432.859 64.7461 433.336 65.3047C433.816 65.8594 434.057 66.6855 434.057 67.7832C434.057 68.5059 433.947 69.1152 433.729 69.6113C433.51 70.1074 433.201 70.4824 432.803 70.7363C432.404 70.9902 431.934 71.1172 431.391 71.1172C430.883 71.1172 430.465 71.0234 430.137 70.8359C429.812 70.6445 429.562 70.4121 429.387 70.1387H429.311L429.111 71H428.408V61.8828H429.381ZM431.256 65.2812C430.791 65.2812 430.422 65.373 430.148 65.5566C429.875 65.7363 429.678 66.0098 429.557 66.377C429.439 66.7402 429.381 67.2012 429.381 67.7598V67.8125C429.381 68.6211 429.516 69.2402 429.785 69.6699C430.055 70.0957 430.545 70.3086 431.256 70.3086C431.854 70.3086 432.301 70.0898 432.598 69.6523C432.898 69.2148 433.049 68.5898 433.049 67.7773C433.049 66.9492 432.9 66.3262 432.604 65.9082C432.311 65.4902 431.861 65.2812 431.256 65.2812ZM438.229 64.4609C438.775 64.4609 439.244 64.582 439.635 64.8242C440.025 65.0664 440.324 65.4062 440.531 65.8438C440.738 66.2773 440.842 66.7852 440.842 67.3672V67.9707H436.406C436.418 68.7246 436.605 69.2988 436.969 69.6934C437.332 70.0879 437.844 70.2852 438.504 70.2852C438.91 70.2852 439.27 70.248 439.582 70.1738C439.895 70.0996 440.219 69.9902 440.555 69.8457V70.7012C440.23 70.8457 439.908 70.9512 439.588 71.0176C439.271 71.084 438.896 71.1172 438.463 71.1172C437.846 71.1172 437.307 70.9922 436.846 70.7422C436.389 70.4883 436.033 70.1172 435.779 69.6289C435.525 69.1406 435.398 68.543 435.398 67.8359C435.398 67.1445 435.514 66.5469 435.744 66.043C435.979 65.5352 436.307 65.1445 436.729 64.8711C437.154 64.5977 437.654 64.4609 438.229 64.4609ZM438.217 65.2578C437.697 65.2578 437.283 65.4277 436.975 65.7676C436.666 66.1074 436.482 66.582 436.424 67.1914H439.822C439.818 66.8086 439.758 66.4727 439.641 66.1836C439.527 65.8906 439.354 65.6641 439.119 65.5039C438.885 65.3398 438.584 65.2578 438.217 65.2578ZM443.473 71H442.494V61.8828H443.473V71Z" fill="#161616"/>
<rect opacity="0.5" x="338" y="59" width="14" height="14" fill="#E292E4"/>
<rect opacity="0.5" x="58" y="133" width="14" height="14" fill="#E292E4"/>
<rect opacity="0.5" y="133" width="14" height="14" fill="#E292E4"/>
</svg>
