<svg width="776" height="714" viewBox="0 0 776 714" fill="none" xmlns="http://www.w3.org/2000/svg">
<g clip-path="url(#clip0_3370_312675)">
<rect width="480" height="16" fill="#ADD7D9"/>
<path d="M16.1953 41H12.5742V33.6055H5.78906V41H2.15625V23.8672H5.78906V30.582H12.5742V23.8672H16.1953V41ZM28.2891 41H24.668V31.0859C24.668 30.8125 24.6719 30.4766 24.6797 30.0781C24.6875 29.6719 24.6992 29.2578 24.7148 28.8359C24.7305 28.4062 24.7461 28.0195 24.7617 27.6758C24.6758 27.7773 24.5 27.9531 24.2344 28.2031C23.9766 28.4453 23.7344 28.6641 23.5078 28.8594L21.5391 30.4414L19.793 28.2617L25.3125 23.8672H28.2891V41ZM54.5391 41H50.918V33.6055H44.1328V41H40.5V23.8672H44.1328V30.582H50.918V23.8672H54.5391V41ZM63.9961 27.6523C65.207 27.6523 66.25 27.8867 67.125 28.3555C68 28.8164 68.6758 29.4883 69.1523 30.3711C69.6289 31.2539 69.8672 32.332 69.8672 33.6055V35.3398H61.418C61.457 36.3477 61.7578 37.1406 62.3203 37.7188C62.8906 38.2891 63.6797 38.5742 64.6875 38.5742C65.5234 38.5742 66.2891 38.4883 66.9844 38.3164C67.6797 38.1445 68.3945 37.8867 69.1289 37.543V40.3086C68.4805 40.6289 67.8008 40.8633 67.0898 41.0117C66.3867 41.1602 65.5312 41.2344 64.5234 41.2344C63.2109 41.2344 62.0469 40.9922 61.0312 40.5078C60.0234 40.0234 59.2305 39.2852 58.6523 38.293C58.082 37.3008 57.7969 36.0508 57.7969 34.543C57.7969 33.0117 58.0547 31.7383 58.5703 30.7227C59.0938 29.6992 59.8203 28.9336 60.75 28.4258C61.6797 27.9102 62.7617 27.6523 63.9961 27.6523ZM64.0195 30.1953C63.3242 30.1953 62.7461 30.418 62.2852 30.8633C61.832 31.3086 61.5703 32.0078 61.5 32.9609H66.5156C66.5078 32.4297 66.4102 31.957 66.2227 31.543C66.043 31.1289 65.7695 30.8008 65.4023 30.5586C65.043 30.3164 64.582 30.1953 64.0195 30.1953ZM78.1406 27.6289C79.8984 27.6289 81.2461 28.0117 82.1836 28.7773C83.1211 29.543 83.5898 30.707 83.5898 32.2695V41H81.0938L80.4023 39.2188H80.3086C79.9336 39.6875 79.5508 40.0703 79.1602 40.3672C78.7695 40.6641 78.3203 40.8828 77.8125 41.0234C77.3047 41.1641 76.6875 41.2344 75.9609 41.2344C75.1875 41.2344 74.4922 41.0859 73.875 40.7891C73.2656 40.4922 72.7852 40.0391 72.4336 39.4297C72.082 38.8125 71.9062 38.0312 71.9062 37.0859C71.9062 35.6953 72.3945 34.6719 73.3711 34.0156C74.3477 33.3516 75.8125 32.9844 77.7656 32.9141L80.0391 32.8438V32.2695C80.0391 31.582 79.8594 31.0781 79.5 30.7578C79.1406 30.4375 78.6406 30.2773 78 30.2773C77.3672 30.2773 76.7461 30.3672 76.1367 30.5469C75.5273 30.7266 74.918 30.9531 74.3086 31.2266L73.125 28.8125C73.8203 28.4453 74.5977 28.1562 75.457 27.9453C76.3242 27.7344 77.2188 27.6289 78.1406 27.6289ZM80.0391 34.9297L78.6562 34.9766C77.5 35.0078 76.6953 35.2148 76.2422 35.5977C75.7969 35.9805 75.5742 36.4844 75.5742 37.1094C75.5742 37.6562 75.7344 38.0469 76.0547 38.2812C76.375 38.5078 76.793 38.6211 77.3086 38.6211C78.0742 38.6211 78.7188 38.3945 79.2422 37.9414C79.7734 37.4883 80.0391 36.8438 80.0391 36.0078V34.9297ZM91.4297 41.2344C89.9688 41.2344 88.7773 40.6641 87.8555 39.5234C86.9414 38.375 86.4844 36.6914 86.4844 34.4727C86.4844 32.2305 86.9492 30.5352 87.8789 29.3867C88.8086 28.2305 90.0234 27.6523 91.5234 27.6523C92.1484 27.6523 92.6992 27.7383 93.1758 27.9102C93.6523 28.082 94.0625 28.3125 94.4062 28.6016C94.7578 28.8906 95.0547 29.2148 95.2969 29.5742H95.4141C95.3672 29.3242 95.3086 28.957 95.2383 28.4727C95.1758 27.9805 95.1445 27.4766 95.1445 26.9609V22.7656H98.7305V41H95.9883L95.2969 39.3008H95.1445C94.918 39.6602 94.6328 39.9883 94.2891 40.2852C93.9531 40.5742 93.5508 40.8047 93.082 40.9766C92.6133 41.1484 92.0625 41.2344 91.4297 41.2344ZM92.6836 38.3867C93.6602 38.3867 94.3477 38.0977 94.7461 37.5195C95.1523 36.9336 95.3672 36.0547 95.3906 34.8828V34.4961C95.3906 33.2227 95.1953 32.25 94.8047 31.5781C94.4141 30.8984 93.6875 30.5586 92.625 30.5586C91.8359 30.5586 91.2188 30.8984 90.7734 31.5781C90.3281 32.2578 90.1055 33.2383 90.1055 34.5195C90.1055 35.8008 90.3281 36.7656 90.7734 37.4141C91.2266 38.0625 91.8633 38.3867 92.6836 38.3867ZM106.043 27.8984V41H102.469V27.8984H106.043ZM104.262 22.7656C104.793 22.7656 105.25 22.8906 105.633 23.1406C106.016 23.3828 106.207 23.8398 106.207 24.5117C106.207 25.1758 106.016 25.6367 105.633 25.8945C105.25 26.1445 104.793 26.2695 104.262 26.2695C103.723 26.2695 103.262 26.1445 102.879 25.8945C102.504 25.6367 102.316 25.1758 102.316 24.5117C102.316 23.8398 102.504 23.3828 102.879 23.1406C103.262 22.8906 103.723 22.7656 104.262 22.7656ZM117.246 27.6523C118.645 27.6523 119.77 28.0352 120.621 28.8008C121.473 29.5586 121.898 30.7773 121.898 32.457V41H118.324V33.3477C118.324 32.4102 118.152 31.7031 117.809 31.2266C117.473 30.75 116.941 30.5117 116.215 30.5117C115.121 30.5117 114.375 30.8828 113.977 31.625C113.578 32.3672 113.379 33.4375 113.379 34.8359V41H109.805V27.8984H112.535L113.016 29.5742H113.215C113.496 29.1211 113.844 28.7539 114.258 28.4727C114.68 28.1914 115.145 27.9844 115.652 27.8516C116.168 27.7188 116.699 27.6523 117.246 27.6523ZM129.41 46.7656C127.582 46.7656 126.184 46.4453 125.215 45.8047C124.254 45.1719 123.773 44.2812 123.773 43.1328C123.773 42.3438 124.02 41.6836 124.512 41.1523C125.004 40.6211 125.727 40.2422 126.68 40.0156C126.312 39.8594 125.992 39.6055 125.719 39.2539C125.445 38.8945 125.309 38.5156 125.309 38.1172C125.309 37.6172 125.453 37.2031 125.742 36.875C126.031 36.5391 126.449 36.2109 126.996 35.8906C126.309 35.5938 125.762 35.1172 125.355 34.4609C124.957 33.8047 124.758 33.0312 124.758 32.1406C124.758 31.1875 124.965 30.3789 125.379 29.7148C125.801 29.043 126.41 28.5312 127.207 28.1797C128.012 27.8281 128.988 27.6523 130.137 27.6523C130.379 27.6523 130.66 27.668 130.98 27.6992C131.301 27.7305 131.594 27.7656 131.859 27.8047C132.133 27.8438 132.316 27.875 132.41 27.8984H136.98V29.7148L134.93 30.2422C135.117 30.5312 135.258 30.8398 135.352 31.168C135.445 31.4961 135.492 31.8438 135.492 32.2109C135.492 33.6172 135 34.7148 134.016 35.5039C133.039 36.2852 131.68 36.6758 129.938 36.6758C129.523 36.6523 129.133 36.6211 128.766 36.582C128.586 36.7227 128.449 36.8711 128.355 37.0273C128.262 37.1836 128.215 37.3477 128.215 37.5195C128.215 37.6914 128.285 37.8359 128.426 37.9531C128.574 38.0625 128.793 38.1484 129.082 38.2109C129.379 38.2656 129.746 38.293 130.184 38.293H132.41C133.848 38.293 134.941 38.6016 135.691 39.2188C136.449 39.8359 136.828 40.7422 136.828 41.9375C136.828 43.4688 136.188 44.6562 134.906 45.5C133.633 46.3438 131.801 46.7656 129.41 46.7656ZM129.562 44.4336C130.414 44.4336 131.145 44.3516 131.754 44.1875C132.371 44.0312 132.844 43.8047 133.172 43.5078C133.5 43.2188 133.664 42.8711 133.664 42.4648C133.664 42.1367 133.566 41.875 133.371 41.6797C133.184 41.4922 132.895 41.3594 132.504 41.2812C132.121 41.2031 131.629 41.1641 131.027 41.1641H129.176C128.738 41.1641 128.344 41.2344 127.992 41.375C127.648 41.5156 127.375 41.7109 127.172 41.9609C126.969 42.2188 126.867 42.5156 126.867 42.8516C126.867 43.3438 127.102 43.7305 127.57 44.0117C128.047 44.293 128.711 44.4336 129.562 44.4336ZM130.137 34.4961C130.809 34.4961 131.301 34.2891 131.613 33.875C131.926 33.4609 132.082 32.8984 132.082 32.1875C132.082 31.3984 131.918 30.8086 131.59 30.418C131.27 30.0195 130.785 29.8203 130.137 29.8203C129.48 29.8203 128.988 30.0195 128.66 30.418C128.332 30.8086 128.168 31.3984 128.168 32.1875C128.168 32.8984 128.328 33.4609 128.648 33.875C128.977 34.2891 129.473 34.4961 130.137 34.4961Z" fill="#161616"/>
<rect y="48" width="480" height="24" fill="#FAE4E1"/>
<rect y="72" width="144" height="92" fill="#EAEDEF"/>
<rect x="168" y="72" width="144" height="92" fill="#EAEDEF"/>
<rect x="336" y="72" width="144" height="92" fill="#EAEDEF"/>
<rect y="164" width="480" height="24" fill="#FAE4E1"/>
<rect y="188" width="480" height="16" fill="#ADD7D9"/>
<path d="M11.8213 223H9.7207V217.199H3.79688V223H1.6875V210.15H3.79688V215.406H9.7207V210.15H11.8213V223ZM23.0449 223H14.3438V221.444L17.6748 218.069C18.3193 217.413 18.8496 216.848 19.2656 216.373C19.6816 215.893 19.9893 215.438 20.1885 215.011C20.3936 214.583 20.4961 214.117 20.4961 213.613C20.4961 212.992 20.3174 212.523 19.96 212.207C19.6025 211.885 19.1309 211.724 18.5449 211.724C17.9883 211.724 17.4727 211.835 16.998 212.058C16.5293 212.274 16.043 212.585 15.5391 212.989L14.4053 211.627C14.7627 211.322 15.1436 211.044 15.5479 210.792C15.958 210.54 16.415 210.341 16.9189 210.194C17.4229 210.042 17.9971 209.966 18.6416 209.966C19.4561 209.966 20.1592 210.112 20.751 210.405C21.3428 210.692 21.7969 211.094 22.1133 211.609C22.4355 212.125 22.5967 212.726 22.5967 213.411C22.5967 214.103 22.459 214.741 22.1836 215.327C21.9082 215.913 21.5156 216.493 21.0059 217.067C20.4961 217.636 19.8896 218.254 19.1865 218.922L16.9629 221.093V221.189H23.0449V223ZM40.333 223H38.2324V217.199H32.3086V223H30.1992V210.15H32.3086V215.406H38.2324V210.15H40.333V223ZM47.3994 213.086C48.2666 213.086 49.0107 213.265 49.6318 213.622C50.2529 213.979 50.7305 214.486 51.0645 215.143C51.3984 215.799 51.5654 216.584 51.5654 217.498V218.605H45.0703C45.0938 219.549 45.3457 220.275 45.8262 220.785C46.3125 221.295 46.9922 221.55 47.8652 221.55C48.4863 221.55 49.043 221.491 49.5352 221.374C50.0332 221.251 50.5459 221.072 51.0732 220.838V222.517C50.5869 222.745 50.0918 222.912 49.5879 223.018C49.084 223.123 48.4805 223.176 47.7773 223.176C46.8223 223.176 45.9814 222.991 45.2549 222.622C44.5342 222.247 43.9688 221.69 43.5586 220.952C43.1543 220.214 42.9521 219.297 42.9521 218.201C42.9521 217.111 43.1367 216.186 43.5059 215.424C43.875 214.662 44.3936 214.082 45.0615 213.684C45.7295 213.285 46.5088 213.086 47.3994 213.086ZM47.3994 214.642C46.749 214.642 46.2217 214.853 45.8174 215.274C45.4189 215.696 45.1846 216.314 45.1143 217.129H49.5439C49.5381 216.643 49.4561 216.212 49.2979 215.837C49.1455 215.462 48.9111 215.169 48.5947 214.958C48.2842 214.747 47.8857 214.642 47.3994 214.642ZM57.709 213.086C58.9395 213.086 59.8682 213.358 60.4951 213.903C61.1279 214.448 61.4443 215.298 61.4443 216.452V223H59.9766L59.5811 221.62H59.5107C59.2354 221.972 58.9512 222.262 58.6582 222.49C58.3652 222.719 58.0254 222.889 57.6387 223C57.2578 223.117 56.792 223.176 56.2412 223.176C55.6611 223.176 55.1426 223.07 54.6855 222.859C54.2285 222.643 53.8682 222.314 53.6045 221.875C53.3408 221.436 53.209 220.879 53.209 220.205C53.209 219.203 53.5811 218.45 54.3252 217.946C55.0752 217.442 56.2061 217.164 57.7178 217.111L59.4053 217.05V216.54C59.4053 215.866 59.2471 215.386 58.9307 215.099C58.6201 214.812 58.1807 214.668 57.6123 214.668C57.126 214.668 56.6543 214.738 56.1973 214.879C55.7402 215.02 55.2949 215.192 54.8613 215.397L54.1934 213.938C54.668 213.687 55.207 213.481 55.8105 213.323C56.4199 213.165 57.0527 213.086 57.709 213.086ZM59.3965 218.351L58.1396 218.395C57.1084 218.43 56.3848 218.605 55.9688 218.922C55.5527 219.238 55.3447 219.672 55.3447 220.223C55.3447 220.703 55.4883 221.055 55.7754 221.277C56.0625 221.494 56.4404 221.603 56.9092 221.603C57.624 221.603 58.2158 221.4 58.6846 220.996C59.1592 220.586 59.3965 219.985 59.3965 219.194V218.351ZM67.6055 223.176C66.4453 223.176 65.5137 222.754 64.8105 221.91C64.1133 221.061 63.7646 219.81 63.7646 218.157C63.7646 216.487 64.1191 215.225 64.8281 214.369C65.543 213.514 66.4834 213.086 67.6494 213.086C68.1416 213.086 68.5723 213.153 68.9414 213.288C69.3105 213.417 69.627 213.593 69.8906 213.815C70.1602 214.038 70.3887 214.287 70.5762 214.562H70.6729C70.6436 214.381 70.6084 214.12 70.5674 213.78C70.5322 213.435 70.5146 213.115 70.5146 212.822V209.324H72.5889V223H70.9717L70.6025 221.673H70.5146C70.3389 221.954 70.1162 222.209 69.8467 222.438C69.583 222.66 69.2666 222.839 68.8975 222.974C68.5342 223.108 68.1035 223.176 67.6055 223.176ZM68.1855 221.497C69.0703 221.497 69.6943 221.242 70.0576 220.732C70.4209 220.223 70.6084 219.458 70.6201 218.438V218.166C70.6201 217.076 70.4443 216.241 70.0928 215.661C69.7412 215.075 69.0996 214.782 68.168 214.782C67.4238 214.782 66.8555 215.084 66.4629 215.688C66.0762 216.285 65.8828 217.12 65.8828 218.192C65.8828 219.265 66.0762 220.085 66.4629 220.653C66.8555 221.216 67.4297 221.497 68.1855 221.497ZM77.6162 213.271V223H75.5508V213.271H77.6162ZM76.5967 209.544C76.9131 209.544 77.1855 209.629 77.4141 209.799C77.6484 209.969 77.7656 210.262 77.7656 210.678C77.7656 211.088 77.6484 211.381 77.4141 211.557C77.1855 211.727 76.9131 211.812 76.5967 211.812C76.2686 211.812 75.9902 211.727 75.7617 211.557C75.5391 211.381 75.4277 211.088 75.4277 210.678C75.4277 210.262 75.5391 209.969 75.7617 209.799C75.9902 209.629 76.2686 209.544 76.5967 209.544ZM85.6494 213.086C86.7451 213.086 87.5977 213.37 88.207 213.938C88.8223 214.501 89.1299 215.406 89.1299 216.654V223H87.0645V217.041C87.0645 216.285 86.9092 215.72 86.5986 215.345C86.2881 214.964 85.8076 214.773 85.1572 214.773C84.2139 214.773 83.5576 215.063 83.1885 215.644C82.8252 216.224 82.6436 217.064 82.6436 218.166V223H80.5781V213.271H82.1865L82.4766 214.589H82.5908C82.8018 214.249 83.0625 213.971 83.373 213.754C83.6895 213.531 84.041 213.364 84.4277 213.253C84.8203 213.142 85.2275 213.086 85.6494 213.086ZM94.7988 227.324C93.4805 227.324 92.4697 227.087 91.7666 226.612C91.0635 226.138 90.7119 225.473 90.7119 224.617C90.7119 224.02 90.8994 223.513 91.2744 223.097C91.6494 222.687 92.1855 222.402 92.8828 222.244C92.6191 222.127 92.3906 221.945 92.1973 221.699C92.0098 221.447 91.916 221.169 91.916 220.864C91.916 220.501 92.0186 220.19 92.2236 219.933C92.4287 219.675 92.7363 219.426 93.1465 219.186C92.6367 218.969 92.2266 218.617 91.916 218.131C91.6113 217.639 91.459 217.062 91.459 216.399C91.459 215.696 91.6084 215.099 91.9072 214.606C92.2061 214.108 92.6426 213.73 93.2168 213.473C93.791 213.209 94.4854 213.077 95.2998 213.077C95.4756 213.077 95.666 213.089 95.8711 213.112C96.082 213.13 96.2754 213.153 96.4512 213.183C96.6328 213.206 96.7705 213.232 96.8643 213.262H100.23V214.413L98.5781 214.721C98.7363 214.943 98.8623 215.198 98.9561 215.485C99.0498 215.767 99.0967 216.074 99.0967 216.408C99.0967 217.416 98.748 218.21 98.0508 218.79C97.3594 219.364 96.4043 219.651 95.1855 219.651C94.8926 219.64 94.6084 219.616 94.333 219.581C94.1221 219.71 93.9609 219.854 93.8496 220.012C93.7383 220.164 93.6826 220.337 93.6826 220.53C93.6826 220.688 93.7383 220.817 93.8496 220.917C93.9609 221.011 94.125 221.081 94.3418 221.128C94.5645 221.175 94.834 221.198 95.1504 221.198H96.8291C97.8955 221.198 98.71 221.424 99.2725 221.875C99.835 222.326 100.116 222.988 100.116 223.861C100.116 224.969 99.6592 225.821 98.7451 226.419C97.8311 227.022 96.5156 227.324 94.7988 227.324ZM94.8779 225.874C95.5986 225.874 96.2051 225.804 96.6973 225.663C97.1895 225.522 97.5615 225.32 97.8135 225.057C98.0654 224.799 98.1914 224.491 98.1914 224.134C98.1914 223.817 98.1123 223.574 97.9541 223.404C97.7959 223.234 97.5586 223.117 97.2422 223.053C96.9258 222.988 96.5332 222.956 96.0645 222.956H94.5352C94.1543 222.956 93.8174 223.015 93.5244 223.132C93.2314 223.255 93.0029 223.431 92.8389 223.659C92.6807 223.888 92.6016 224.163 92.6016 224.485C92.6016 224.931 92.7979 225.273 93.1904 225.514C93.5889 225.754 94.1514 225.874 94.8779 225.874ZM95.2822 218.298C95.8857 218.298 96.334 218.134 96.627 217.806C96.9199 217.472 97.0664 217.003 97.0664 216.399C97.0664 215.743 96.9141 215.251 96.6094 214.923C96.3105 214.595 95.8652 214.431 95.2734 214.431C94.6934 214.431 94.251 214.598 93.9463 214.932C93.6475 215.266 93.498 215.761 93.498 216.417C93.498 217.009 93.6475 217.472 93.9463 217.806C94.251 218.134 94.6963 218.298 95.2822 218.298Z" fill="#161616"/>
<rect y="228" width="480" height="24" fill="#FAE4E1"/>
<rect y="252" width="144" height="92" fill="#EAEDEF"/>
<rect x="168" y="252" width="144" height="92" fill="#EAEDEF"/>
<rect x="336" y="252" width="144" height="92" fill="#EAEDEF"/>
<rect y="344" width="480" height="24" fill="#FAE4E1"/>
<rect y="368" width="480" height="16" fill="#ADD7D9"/>
<path d="M9.19434 398H7.56055V393.488H2.95312V398H1.3125V388.006H2.95312V392.094H7.56055V388.006H9.19434V398ZM17.541 390.289C17.541 390.74 17.4499 391.132 17.2676 391.465C17.0853 391.798 16.8346 392.071 16.5156 392.285C16.2012 392.495 15.8366 392.645 15.4219 392.736V392.784C16.2194 392.884 16.821 393.135 17.2266 393.536C17.6367 393.937 17.8418 394.468 17.8418 395.129C17.8418 395.708 17.7028 396.225 17.4248 396.681C17.1468 397.132 16.7207 397.487 16.1465 397.747C15.5723 398.007 14.834 398.137 13.9316 398.137C13.3893 398.137 12.8857 398.093 12.4209 398.007C11.9606 397.92 11.5231 397.781 11.1084 397.59V396.161C11.5322 396.371 11.9834 396.533 12.4619 396.646C12.9404 396.76 13.3939 396.817 13.8223 396.817C14.6562 396.817 15.251 396.662 15.6064 396.353C15.9619 396.038 16.1396 395.605 16.1396 395.054C16.1396 394.698 16.0462 394.407 15.8594 394.179C15.6771 393.951 15.3923 393.78 15.0049 393.666C14.6221 393.552 14.1276 393.495 13.5215 393.495H12.6396V392.203H13.5283C14.1071 392.203 14.5719 392.135 14.9229 391.998C15.2738 391.857 15.5267 391.663 15.6816 391.417C15.8411 391.171 15.9209 390.884 15.9209 390.556C15.9209 390.127 15.7819 389.795 15.5039 389.558C15.2259 389.316 14.8135 389.195 14.2666 389.195C13.9294 389.195 13.6217 389.234 13.3438 389.312C13.0703 389.389 12.8174 389.487 12.585 389.605C12.3525 389.724 12.1315 389.852 11.9219 389.988L11.1494 388.874C11.5277 388.591 11.9788 388.352 12.5029 388.156C13.027 387.96 13.6377 387.862 14.335 387.862C15.3604 387.862 16.151 388.083 16.707 388.525C17.263 388.963 17.541 389.551 17.541 390.289ZM31.3701 398H29.7363V393.488H25.1289V398H23.4883V388.006H25.1289V392.094H29.7363V388.006H31.3701V398ZM36.8662 390.289C37.5407 390.289 38.1195 390.428 38.6025 390.706C39.0856 390.984 39.457 391.378 39.7168 391.889C39.9766 392.399 40.1064 393.01 40.1064 393.721V394.582H35.0547C35.0729 395.316 35.2689 395.881 35.6426 396.277C36.0208 396.674 36.5495 396.872 37.2285 396.872C37.7116 396.872 38.1445 396.826 38.5273 396.735C38.9147 396.64 39.3135 396.501 39.7236 396.318V397.624C39.3454 397.802 38.9603 397.932 38.5684 398.014C38.1764 398.096 37.707 398.137 37.1602 398.137C36.4173 398.137 35.7633 397.993 35.1982 397.706C34.6377 397.414 34.1979 396.981 33.8789 396.407C33.5645 395.833 33.4072 395.12 33.4072 394.268C33.4072 393.42 33.5508 392.7 33.8379 392.107C34.125 391.515 34.5283 391.064 35.0479 390.754C35.5674 390.444 36.1735 390.289 36.8662 390.289ZM36.8662 391.499C36.3604 391.499 35.9502 391.663 35.6357 391.991C35.3258 392.319 35.1436 392.8 35.0889 393.434H38.5342C38.5296 393.055 38.4658 392.72 38.3428 392.429C38.2243 392.137 38.042 391.909 37.7959 391.745C37.5544 391.581 37.2445 391.499 36.8662 391.499ZM44.8848 390.289C45.8418 390.289 46.5641 390.501 47.0518 390.925C47.5439 391.349 47.79 392.009 47.79 392.907V398H46.6484L46.3408 396.927H46.2861C46.0719 397.2 45.8509 397.426 45.623 397.604C45.3952 397.781 45.1309 397.913 44.8301 398C44.5339 398.091 44.1715 398.137 43.7432 398.137C43.292 398.137 42.8887 398.055 42.5332 397.891C42.1777 397.722 41.8975 397.467 41.6924 397.125C41.4873 396.783 41.3848 396.35 41.3848 395.826C41.3848 395.047 41.6742 394.461 42.2529 394.069C42.8363 393.677 43.7158 393.461 44.8916 393.42L46.2041 393.372V392.976C46.2041 392.451 46.0811 392.078 45.835 391.854C45.5934 391.631 45.2516 391.52 44.8096 391.52C44.4313 391.52 44.0645 391.574 43.709 391.684C43.3535 391.793 43.0072 391.927 42.6699 392.087L42.1504 390.952C42.5195 390.756 42.9388 390.597 43.4082 390.474C43.8822 390.351 44.3743 390.289 44.8848 390.289ZM46.1973 394.384L45.2197 394.418C44.4176 394.445 43.8548 394.582 43.5312 394.828C43.2077 395.074 43.0459 395.411 43.0459 395.84C43.0459 396.214 43.1576 396.487 43.3809 396.66C43.6042 396.829 43.8981 396.913 44.2627 396.913C44.8187 396.913 45.279 396.756 45.6436 396.441C46.0127 396.122 46.1973 395.655 46.1973 395.04V394.384ZM52.582 398.137C51.6797 398.137 50.9551 397.809 50.4082 397.152C49.8659 396.492 49.5947 395.519 49.5947 394.233C49.5947 392.935 49.8704 391.952 50.4219 391.287C50.9779 390.622 51.7093 390.289 52.6162 390.289C52.999 390.289 53.334 390.341 53.6211 390.446C53.9082 390.547 54.1543 390.683 54.3594 390.856C54.569 391.03 54.7467 391.223 54.8926 391.438H54.9678C54.945 391.296 54.9176 391.093 54.8857 390.829C54.8584 390.56 54.8447 390.312 54.8447 390.084V387.363H56.458V398H55.2002L54.9131 396.968H54.8447C54.708 397.187 54.5348 397.385 54.3252 397.562C54.1201 397.736 53.874 397.875 53.5869 397.979C53.3044 398.084 52.9694 398.137 52.582 398.137ZM53.0332 396.831C53.7214 396.831 54.2067 396.633 54.4893 396.236C54.7718 395.84 54.9176 395.245 54.9268 394.452V394.24C54.9268 393.393 54.79 392.743 54.5166 392.292C54.2432 391.836 53.7441 391.608 53.0195 391.608C52.4408 391.608 51.9987 391.843 51.6934 392.312C51.3926 392.777 51.2422 393.427 51.2422 394.261C51.2422 395.095 51.3926 395.733 51.6934 396.175C51.9987 396.612 52.4453 396.831 53.0332 396.831ZM60.3682 390.433V398H58.7617V390.433H60.3682ZM59.5752 387.534C59.8213 387.534 60.0332 387.6 60.2109 387.732C60.3932 387.865 60.4844 388.092 60.4844 388.416C60.4844 388.735 60.3932 388.963 60.2109 389.1C60.0332 389.232 59.8213 389.298 59.5752 389.298C59.32 389.298 59.1035 389.232 58.9258 389.1C58.7526 388.963 58.666 388.735 58.666 388.416C58.666 388.092 58.7526 387.865 58.9258 387.732C59.1035 387.6 59.32 387.534 59.5752 387.534ZM66.6162 390.289C67.4684 390.289 68.1315 390.51 68.6055 390.952C69.084 391.39 69.3232 392.094 69.3232 393.064V398H67.7168V393.365C67.7168 392.777 67.596 392.338 67.3545 392.046C67.113 391.75 66.7393 391.602 66.2334 391.602C65.4997 391.602 64.9893 391.827 64.7021 392.278C64.4196 392.729 64.2783 393.383 64.2783 394.24V398H62.6719V390.433H63.9229L64.1484 391.458H64.2373C64.4014 391.194 64.6042 390.977 64.8457 390.809C65.0918 390.635 65.3652 390.506 65.666 390.419C65.9714 390.332 66.2881 390.289 66.6162 390.289ZM73.7324 401.363C72.707 401.363 71.9209 401.179 71.374 400.81C70.8271 400.44 70.5537 399.923 70.5537 399.258C70.5537 398.793 70.6995 398.399 70.9912 398.075C71.2829 397.756 71.6999 397.535 72.2422 397.412C72.0371 397.321 71.8594 397.18 71.709 396.988C71.5632 396.792 71.4902 396.576 71.4902 396.339C71.4902 396.056 71.57 395.815 71.7295 395.614C71.889 395.414 72.1283 395.22 72.4473 395.033C72.0508 394.865 71.7318 394.591 71.4902 394.213C71.2533 393.83 71.1348 393.381 71.1348 392.866C71.1348 392.319 71.251 391.854 71.4834 391.472C71.7158 391.084 72.0553 390.79 72.502 390.59C72.9486 390.385 73.4886 390.282 74.1221 390.282C74.2588 390.282 74.4069 390.291 74.5664 390.31C74.7305 390.323 74.8809 390.341 75.0176 390.364C75.1589 390.382 75.266 390.403 75.3389 390.426H77.957V391.321L76.6719 391.561C76.7949 391.734 76.8929 391.932 76.9658 392.155C77.0387 392.374 77.0752 392.613 77.0752 392.873C77.0752 393.657 76.804 394.274 76.2617 394.726C75.724 395.172 74.9811 395.396 74.0332 395.396C73.8053 395.386 73.5843 395.368 73.3701 395.341C73.2061 395.441 73.0807 395.553 72.9941 395.676C72.9076 395.794 72.8643 395.929 72.8643 396.079C72.8643 396.202 72.9076 396.302 72.9941 396.38C73.0807 396.453 73.2083 396.507 73.377 396.544C73.5501 396.58 73.7598 396.599 74.0059 396.599H75.3115C76.141 396.599 76.7744 396.774 77.2119 397.125C77.6494 397.476 77.8682 397.991 77.8682 398.67C77.8682 399.531 77.5127 400.194 76.8018 400.659C76.0908 401.129 75.0677 401.363 73.7324 401.363ZM73.7939 400.235C74.3545 400.235 74.8262 400.181 75.209 400.071C75.5918 399.962 75.8812 399.805 76.0771 399.6C76.2731 399.399 76.3711 399.16 76.3711 398.882C76.3711 398.636 76.3096 398.447 76.1865 398.314C76.0635 398.182 75.8789 398.091 75.6328 398.041C75.3867 397.991 75.0814 397.966 74.7168 397.966H73.5273C73.2311 397.966 72.9691 398.011 72.7412 398.103C72.5133 398.198 72.3356 398.335 72.208 398.513C72.085 398.69 72.0234 398.905 72.0234 399.155C72.0234 399.502 72.1761 399.768 72.4814 399.955C72.7913 400.142 73.2288 400.235 73.7939 400.235ZM74.1084 394.343C74.5778 394.343 74.9264 394.215 75.1543 393.96C75.3822 393.7 75.4961 393.336 75.4961 392.866C75.4961 392.356 75.3776 391.973 75.1406 391.718C74.9082 391.463 74.5618 391.335 74.1016 391.335C73.6504 391.335 73.3063 391.465 73.0693 391.725C72.8369 391.984 72.7207 392.369 72.7207 392.88C72.7207 393.34 72.8369 393.7 73.0693 393.96C73.3063 394.215 73.6527 394.343 74.1084 394.343Z" fill="#161616"/>
<rect y="402" width="480" height="24" fill="#FAE4E1"/>
<rect y="426" width="144" height="92" fill="#EAEDEF"/>
<rect x="168" y="426" width="144" height="92" fill="#EAEDEF"/>
<rect x="336" y="426" width="144" height="92" fill="#EAEDEF"/>
<rect y="518" width="480" height="24" fill="#FAE4E1"/>
<rect y="542" width="480" height="16" fill="#ADD7D9"/>
<path d="M7.88086 571H6.48047V567.133H2.53125V571H1.125V562.434H2.53125V565.938H6.48047V562.434H7.88086V571ZM15.6738 569.119H14.5137V571H13.1543V569.119H9.25781V568.076L13.1719 562.41H14.5137V567.977H15.6738V569.119ZM13.1543 567.977V565.85C13.1543 565.674 13.1562 565.496 13.1602 565.316C13.168 565.133 13.1758 564.957 13.1836 564.789C13.1914 564.621 13.1992 564.467 13.207 564.326C13.2148 564.182 13.2207 564.062 13.2246 563.969H13.1777C13.1035 564.125 13.0215 564.285 12.9316 564.449C12.8418 564.609 12.7461 564.766 12.6445 564.918L10.5352 567.977H13.1543ZM26.8887 571H25.4883V567.133H21.5391V571H20.1328V562.434H21.5391V565.938H25.4883V562.434H26.8887V571ZM31.5996 564.391C32.1777 564.391 32.6738 564.51 33.0879 564.748C33.502 564.986 33.8203 565.324 34.043 565.762C34.2656 566.199 34.377 566.723 34.377 567.332V568.07H30.0469C30.0625 568.699 30.2305 569.184 30.5508 569.523C30.875 569.863 31.3281 570.033 31.9102 570.033C32.3242 570.033 32.6953 569.994 33.0234 569.916C33.3555 569.834 33.6973 569.715 34.0488 569.559V570.678C33.7246 570.83 33.3945 570.941 33.0586 571.012C32.7227 571.082 32.3203 571.117 31.8516 571.117C31.2148 571.117 30.6543 570.994 30.1699 570.748C29.6895 570.498 29.3125 570.127 29.0391 569.635C28.7695 569.143 28.6348 568.531 28.6348 567.801C28.6348 567.074 28.7578 566.457 29.0039 565.949C29.25 565.441 29.5957 565.055 30.041 564.789C30.4863 564.523 31.0059 564.391 31.5996 564.391ZM31.5996 565.428C31.166 565.428 30.8145 565.568 30.5449 565.85C30.2793 566.131 30.123 566.543 30.0762 567.086H33.0293C33.0254 566.762 32.9707 566.475 32.8652 566.225C32.7637 565.975 32.6074 565.779 32.3965 565.639C32.1895 565.498 31.9238 565.428 31.5996 565.428ZM38.4727 564.391C39.293 564.391 39.9121 564.572 40.3301 564.936C40.752 565.299 40.9629 565.865 40.9629 566.635V571H39.9844L39.7207 570.08H39.6738C39.4902 570.314 39.3008 570.508 39.1055 570.66C38.9102 570.812 38.6836 570.926 38.4258 571C38.1719 571.078 37.8613 571.117 37.4941 571.117C37.1074 571.117 36.7617 571.047 36.457 570.906C36.1523 570.762 35.9121 570.543 35.7363 570.25C35.5605 569.957 35.4727 569.586 35.4727 569.137C35.4727 568.469 35.7207 567.967 36.2168 567.631C36.7168 567.295 37.4707 567.109 38.4785 567.074L39.6035 567.033V566.693C39.6035 566.244 39.498 565.924 39.2871 565.732C39.0801 565.541 38.7871 565.445 38.4082 565.445C38.084 565.445 37.7695 565.492 37.4648 565.586C37.1602 565.68 36.8633 565.795 36.5742 565.932L36.1289 564.959C36.4453 564.791 36.8047 564.654 37.207 564.549C37.6133 564.443 38.0352 564.391 38.4727 564.391ZM39.5977 567.9L38.7598 567.93C38.0723 567.953 37.5898 568.07 37.3125 568.281C37.0352 568.492 36.8965 568.781 36.8965 569.148C36.8965 569.469 36.9922 569.703 37.1836 569.852C37.375 569.996 37.627 570.068 37.9395 570.068C38.416 570.068 38.8105 569.934 39.123 569.664C39.4395 569.391 39.5977 568.99 39.5977 568.463V567.9ZM45.0703 571.117C44.2969 571.117 43.6758 570.836 43.207 570.273C42.7422 569.707 42.5098 568.873 42.5098 567.771C42.5098 566.658 42.7461 565.816 43.2188 565.246C43.6953 564.676 44.3223 564.391 45.0996 564.391C45.4277 564.391 45.7148 564.436 45.9609 564.525C46.207 564.611 46.418 564.729 46.5938 564.877C46.7734 565.025 46.9258 565.191 47.0508 565.375H47.1152C47.0957 565.254 47.0723 565.08 47.0449 564.854C47.0215 564.623 47.0098 564.41 47.0098 564.215V561.883H48.3926V571H47.3145L47.0684 570.115H47.0098C46.8926 570.303 46.7441 570.473 46.5645 570.625C46.3887 570.773 46.1777 570.893 45.9316 570.982C45.6895 571.072 45.4023 571.117 45.0703 571.117ZM45.457 569.998C46.0469 569.998 46.4629 569.828 46.7051 569.488C46.9473 569.148 47.0723 568.639 47.0801 567.959V567.777C47.0801 567.051 46.9629 566.494 46.7285 566.107C46.4941 565.717 46.0664 565.521 45.4453 565.521C44.9492 565.521 44.5703 565.723 44.3086 566.125C44.0508 566.523 43.9219 567.08 43.9219 567.795C43.9219 568.51 44.0508 569.057 44.3086 569.436C44.5703 569.811 44.9531 569.998 45.457 569.998ZM51.7441 564.514V571H50.3672V564.514H51.7441ZM51.0645 562.029C51.2754 562.029 51.457 562.086 51.6094 562.199C51.7656 562.312 51.8438 562.508 51.8438 562.785C51.8438 563.059 51.7656 563.254 51.6094 563.371C51.457 563.484 51.2754 563.541 51.0645 563.541C50.8457 563.541 50.6602 563.484 50.5078 563.371C50.3594 563.254 50.2852 563.059 50.2852 562.785C50.2852 562.508 50.3594 562.312 50.5078 562.199C50.6602 562.086 50.8457 562.029 51.0645 562.029ZM57.0996 564.391C57.8301 564.391 58.3984 564.58 58.8047 564.959C59.2148 565.334 59.4199 565.938 59.4199 566.77V571H58.043V567.027C58.043 566.523 57.9395 566.146 57.7324 565.896C57.5254 565.643 57.2051 565.516 56.7715 565.516C56.1426 565.516 55.7051 565.709 55.459 566.096C55.2168 566.482 55.0957 567.043 55.0957 567.777V571H53.7188V564.514H54.791L54.9844 565.393H55.0605C55.2012 565.166 55.375 564.98 55.582 564.836C55.793 564.688 56.0273 564.576 56.2852 564.502C56.5469 564.428 56.8184 564.391 57.0996 564.391ZM63.1992 573.883C62.3203 573.883 61.6465 573.725 61.1777 573.408C60.709 573.092 60.4746 572.648 60.4746 572.078C60.4746 571.68 60.5996 571.342 60.8496 571.064C61.0996 570.791 61.457 570.602 61.9219 570.496C61.7461 570.418 61.5938 570.297 61.4648 570.133C61.3398 569.965 61.2773 569.779 61.2773 569.576C61.2773 569.334 61.3457 569.127 61.4824 568.955C61.6191 568.783 61.8242 568.617 62.0977 568.457C61.7578 568.312 61.4844 568.078 61.2773 567.754C61.0742 567.426 60.9727 567.041 60.9727 566.6C60.9727 566.131 61.0723 565.732 61.2715 565.404C61.4707 565.072 61.7617 564.82 62.1445 564.648C62.5273 564.473 62.9902 564.385 63.5332 564.385C63.6504 564.385 63.7773 564.393 63.9141 564.408C64.0547 564.42 64.1836 564.436 64.3008 564.455C64.4219 564.471 64.5137 564.488 64.5762 564.508H66.8203V565.275L65.7188 565.48C65.8242 565.629 65.9082 565.799 65.9707 565.99C66.0332 566.178 66.0645 566.383 66.0645 566.605C66.0645 567.277 65.832 567.807 65.3672 568.193C64.9062 568.576 64.2695 568.768 63.457 568.768C63.2617 568.76 63.0723 568.744 62.8887 568.721C62.748 568.807 62.6406 568.902 62.5664 569.008C62.4922 569.109 62.4551 569.225 62.4551 569.354C62.4551 569.459 62.4922 569.545 62.5664 569.611C62.6406 569.674 62.75 569.721 62.8945 569.752C63.043 569.783 63.2227 569.799 63.4336 569.799H64.5527C65.2637 569.799 65.8066 569.949 66.1816 570.25C66.5566 570.551 66.7441 570.992 66.7441 571.574C66.7441 572.312 66.4395 572.881 65.8301 573.279C65.2207 573.682 64.3438 573.883 63.1992 573.883ZM63.252 572.916C63.7324 572.916 64.1367 572.869 64.4648 572.775C64.793 572.682 65.041 572.547 65.209 572.371C65.377 572.199 65.4609 571.994 65.4609 571.756C65.4609 571.545 65.4082 571.383 65.3027 571.27C65.1973 571.156 65.0391 571.078 64.8281 571.035C64.6172 570.992 64.3555 570.971 64.043 570.971H63.0234C62.7695 570.971 62.5449 571.01 62.3496 571.088C62.1543 571.17 62.002 571.287 61.8926 571.439C61.7871 571.592 61.7344 571.775 61.7344 571.99C61.7344 572.287 61.8652 572.516 62.127 572.676C62.3926 572.836 62.7676 572.916 63.252 572.916ZM63.5215 567.865C63.9238 567.865 64.2227 567.756 64.418 567.537C64.6133 567.314 64.7109 567.002 64.7109 566.6C64.7109 566.162 64.6094 565.834 64.4062 565.615C64.207 565.396 63.9102 565.287 63.5156 565.287C63.1289 565.287 62.834 565.398 62.6309 565.621C62.4316 565.844 62.332 566.174 62.332 566.611C62.332 567.006 62.4316 567.314 62.6309 567.537C62.834 567.756 63.1309 567.865 63.5215 567.865Z" fill="#161616"/>
<rect y="574" width="480" height="24" fill="#FAE4E1"/>
<rect y="598" width="144" height="92" fill="#EAEDEF"/>
<rect x="168" y="598" width="144" height="92" fill="#EAEDEF"/>
<rect x="336" y="598" width="144" height="92" fill="#EAEDEF"/>
<rect y="690" width="480" height="24" fill="#FAE4E1"/>
</g>
<path d="M634.778 14H633.131V5.40039H630.205V4.00586H637.697V5.40039H634.778V14ZM645.764 10.1992C645.764 10.8281 645.682 11.3864 645.518 11.874C645.354 12.3617 645.114 12.7741 644.8 13.1113C644.485 13.444 644.107 13.6992 643.665 13.877C643.223 14.0501 642.724 14.1367 642.168 14.1367C641.648 14.1367 641.172 14.0501 640.739 13.877C640.306 13.6992 639.93 13.444 639.611 13.1113C639.297 12.7741 639.053 12.3617 638.88 11.874C638.707 11.3864 638.62 10.8281 638.62 10.1992C638.62 9.36523 638.764 8.65885 639.051 8.08008C639.342 7.49674 639.757 7.05241 640.295 6.74707C640.833 6.44173 641.473 6.28906 642.216 6.28906C642.913 6.28906 643.528 6.44173 644.062 6.74707C644.595 7.05241 645.012 7.49674 645.312 8.08008C645.613 8.66341 645.764 9.36979 645.764 10.1992ZM640.274 10.1992C640.274 10.7507 640.34 11.2223 640.473 11.6143C640.609 12.0062 640.819 12.307 641.102 12.5166C641.384 12.7217 641.749 12.8242 642.195 12.8242C642.642 12.8242 643.007 12.7217 643.289 12.5166C643.572 12.307 643.779 12.0062 643.911 11.6143C644.043 11.2223 644.109 10.7507 644.109 10.1992C644.109 9.64779 644.043 9.18066 643.911 8.79785C643.779 8.41048 643.572 8.11654 643.289 7.91602C643.007 7.71094 642.64 7.6084 642.188 7.6084C641.523 7.6084 641.038 7.83171 640.732 8.27832C640.427 8.72493 640.274 9.36523 640.274 10.1992ZM649.216 3.36328V8.50391C649.216 8.73633 649.207 8.99154 649.188 9.26953C649.17 9.54297 649.152 9.80046 649.134 10.042H649.168C649.286 9.88249 649.428 9.69564 649.592 9.48145C649.76 9.26725 649.92 9.0804 650.07 8.9209L652.381 6.43262H654.227L651.198 9.68652L654.425 14H652.538L650.118 10.6777L649.216 11.4502V14H647.609V3.36328H649.216ZM658.649 6.28906C659.324 6.28906 659.903 6.42806 660.386 6.70605C660.869 6.98405 661.24 7.37826 661.5 7.88867C661.76 8.39909 661.89 9.00977 661.89 9.7207V10.582H656.838C656.856 11.3158 657.052 11.8809 657.426 12.2773C657.804 12.6738 658.333 12.8721 659.012 12.8721C659.495 12.8721 659.928 12.8265 660.311 12.7354C660.698 12.6396 661.097 12.5007 661.507 12.3184V13.624C661.129 13.8018 660.743 13.9316 660.352 14.0137C659.96 14.0957 659.49 14.1367 658.943 14.1367C658.201 14.1367 657.547 13.9932 656.981 13.7061C656.421 13.4144 655.981 12.9814 655.662 12.4072C655.348 11.833 655.19 11.1198 655.19 10.2676C655.19 9.41992 655.334 8.69987 655.621 8.10742C655.908 7.51497 656.312 7.0638 656.831 6.75391C657.351 6.44401 657.957 6.28906 658.649 6.28906ZM658.649 7.49902C658.144 7.49902 657.733 7.66309 657.419 7.99121C657.109 8.31934 656.927 8.80013 656.872 9.43359H660.317C660.313 9.05534 660.249 8.72038 660.126 8.42871C660.007 8.13704 659.825 7.90918 659.579 7.74512C659.338 7.58105 659.028 7.49902 658.649 7.49902ZM667.646 6.28906C668.498 6.28906 669.161 6.51009 669.635 6.95215C670.113 7.38965 670.353 8.09375 670.353 9.06445V14H668.746V9.36523C668.746 8.77734 668.625 8.33757 668.384 8.0459C668.142 7.74967 667.769 7.60156 667.263 7.60156C666.529 7.60156 666.019 7.82715 665.731 8.27832C665.449 8.72949 665.308 9.38346 665.308 10.2402V14H663.701V6.43262H664.952L665.178 7.45801H665.267C665.431 7.19368 665.633 6.97721 665.875 6.80859C666.121 6.63542 666.395 6.50553 666.695 6.41895C667.001 6.33236 667.317 6.28906 667.646 6.28906ZM677.688 11.8398C677.688 12.3366 677.567 12.7559 677.325 13.0977C677.084 13.4395 676.73 13.6992 676.266 13.877C675.805 14.0501 675.24 14.1367 674.57 14.1367C674.042 14.1367 673.586 14.098 673.203 14.0205C672.825 13.9476 672.467 13.8337 672.13 13.6787V12.291C672.49 12.4596 672.893 12.6055 673.34 12.7285C673.791 12.8516 674.217 12.9131 674.618 12.9131C675.147 12.9131 675.527 12.8311 675.76 12.667C675.992 12.4984 676.108 12.2751 676.108 11.9971C676.108 11.833 676.061 11.6872 675.965 11.5596C675.874 11.4274 675.701 11.293 675.445 11.1562C675.195 11.015 674.826 10.8464 674.338 10.6504C673.859 10.459 673.456 10.2676 673.128 10.0762C672.8 9.88477 672.551 9.65462 672.383 9.38574C672.214 9.1123 672.13 8.76367 672.13 8.33984C672.13 7.66992 672.394 7.16178 672.923 6.81543C673.456 6.46452 674.16 6.28906 675.035 6.28906C675.5 6.28906 675.938 6.33691 676.348 6.43262C676.762 6.52376 677.168 6.6582 677.564 6.83594L677.059 8.0459C676.717 7.89551 676.373 7.77246 676.026 7.67676C675.685 7.5765 675.336 7.52637 674.98 7.52637C674.566 7.52637 674.249 7.59017 674.03 7.71777C673.816 7.84538 673.709 8.02767 673.709 8.26465C673.709 8.44238 673.761 8.59277 673.866 8.71582C673.971 8.83887 674.151 8.96191 674.406 9.08496C674.666 9.20801 675.026 9.36068 675.486 9.54297C675.938 9.71615 676.327 9.89844 676.655 10.0898C676.988 10.2767 677.243 10.5068 677.421 10.7803C677.599 11.0537 677.688 11.4069 677.688 11.8398Z" fill="black"/>
<rect x="630" y="30" width="24" height="24" fill="#FAE4E1"/>
<path d="M666.44 43.4434V42.6484H669.104V43.4434H666.44ZM669.985 43.4434V42.6484H672.649V43.4434H669.985ZM677.838 44.3887C677.838 44.7646 677.743 45.0815 677.553 45.3394C677.367 45.5936 677.098 45.7852 676.748 45.9141C676.4 46.043 675.985 46.1074 675.501 46.1074C675.09 46.1074 674.733 46.0752 674.433 46.0107C674.132 45.9463 673.869 45.855 673.643 45.7368V44.915C673.883 45.0332 674.169 45.1406 674.502 45.2373C674.835 45.334 675.176 45.3823 675.523 45.3823C676.031 45.3823 676.4 45.3 676.629 45.1353C676.859 44.9705 676.973 44.7467 676.973 44.4639C676.973 44.3027 676.927 44.1613 676.833 44.0396C676.744 43.9142 676.592 43.7943 676.377 43.6797C676.162 43.5615 675.865 43.4326 675.485 43.293C675.109 43.1497 674.784 43.0083 674.508 42.8687C674.236 42.7254 674.024 42.5518 673.874 42.3477C673.727 42.1436 673.654 41.8786 673.654 41.5527C673.654 41.055 673.854 40.6737 674.255 40.4087C674.66 40.1401 675.19 40.0059 675.845 40.0059C676.2 40.0059 676.531 40.0417 676.839 40.1133C677.15 40.1813 677.44 40.2744 677.709 40.3926L677.408 41.1069C677.165 41.0031 676.905 40.9154 676.629 40.8438C676.354 40.7721 676.073 40.7363 675.786 40.7363C675.374 40.7363 675.057 40.8044 674.835 40.9404C674.617 41.0765 674.508 41.2627 674.508 41.499C674.508 41.6816 674.558 41.832 674.658 41.9502C674.762 42.0684 674.927 42.1794 675.152 42.2832C675.378 42.387 675.675 42.5088 676.044 42.6484C676.413 42.7845 676.731 42.9259 677 43.0728C677.269 43.216 677.474 43.3914 677.618 43.5991C677.764 43.8032 677.838 44.0664 677.838 44.3887ZM681.474 40.0166C682.176 40.0166 682.697 40.1742 683.037 40.4893C683.377 40.8044 683.547 41.3075 683.547 41.9985V46H682.897L682.726 45.1299H682.683C682.518 45.3447 682.346 45.5256 682.167 45.6724C681.988 45.8156 681.78 45.9248 681.544 46C681.311 46.0716 681.025 46.1074 680.685 46.1074C680.326 46.1074 680.008 46.0448 679.729 45.9194C679.453 45.7941 679.234 45.6043 679.073 45.3501C678.916 45.0959 678.837 44.7736 678.837 44.3833C678.837 43.7961 679.07 43.3449 679.535 43.0298C680.001 42.7147 680.71 42.5428 681.662 42.5142L682.677 42.4712V42.1113C682.677 41.6029 682.568 41.2466 682.35 41.0425C682.131 40.8384 681.823 40.7363 681.426 40.7363C681.118 40.7363 680.824 40.7811 680.545 40.8706C680.266 40.9601 680.001 41.0658 679.75 41.1875L679.476 40.5107C679.741 40.3747 680.045 40.2583 680.389 40.1616C680.733 40.0649 681.095 40.0166 681.474 40.0166ZM682.667 43.0996L681.77 43.1372C681.035 43.1659 680.518 43.2858 680.217 43.4971C679.917 43.7083 679.766 44.0073 679.766 44.394C679.766 44.7306 679.868 44.9795 680.072 45.1406C680.276 45.3018 680.547 45.3823 680.883 45.3823C681.406 45.3823 681.834 45.2373 682.167 44.9473C682.5 44.6572 682.667 44.2222 682.667 43.6421V43.0996ZM686.281 46H685.384V37.6426H686.281V46ZM690.068 45.377C690.215 45.377 690.365 45.3644 690.519 45.3394C690.673 45.3143 690.798 45.2839 690.895 45.248V45.9409C690.791 45.9875 690.646 46.0269 690.46 46.0591C690.277 46.0913 690.098 46.1074 689.923 46.1074C689.611 46.1074 689.328 46.0537 689.074 45.9463C688.82 45.8353 688.616 45.6491 688.462 45.3877C688.312 45.1263 688.236 44.7646 688.236 44.3027V40.8115H687.398V40.3765L688.242 40.0273L688.596 38.749H689.133V40.1133H690.857V40.8115H689.133V44.2759C689.133 44.6447 689.217 44.9204 689.386 45.103C689.558 45.2856 689.785 45.377 690.068 45.377ZM691.588 43.4434V42.6484H694.252V43.4434H691.588ZM699.44 44.3887C699.44 44.7646 699.346 45.0815 699.156 45.3394C698.97 45.5936 698.701 45.7852 698.35 45.9141C698.003 46.043 697.587 46.1074 697.104 46.1074C696.692 46.1074 696.336 46.0752 696.035 46.0107C695.734 45.9463 695.471 45.855 695.246 45.7368V44.915C695.486 45.0332 695.772 45.1406 696.105 45.2373C696.438 45.334 696.778 45.3823 697.125 45.3823C697.634 45.3823 698.003 45.3 698.232 45.1353C698.461 44.9705 698.576 44.7467 698.576 44.4639C698.576 44.3027 698.529 44.1613 698.436 44.0396C698.347 43.9142 698.194 43.7943 697.979 43.6797C697.765 43.5615 697.467 43.4326 697.088 43.293C696.712 43.1497 696.386 43.0083 696.11 42.8687C695.838 42.7254 695.627 42.5518 695.477 42.3477C695.33 42.1436 695.256 41.8786 695.256 41.5527C695.256 41.055 695.457 40.6737 695.858 40.4087C696.263 40.1401 696.792 40.0059 697.448 40.0059C697.802 40.0059 698.133 40.0417 698.441 40.1133C698.753 40.1813 699.043 40.2744 699.312 40.3926L699.011 41.1069C698.767 41.0031 698.508 40.9154 698.232 40.8438C697.956 40.7721 697.675 40.7363 697.389 40.7363C696.977 40.7363 696.66 40.8044 696.438 40.9404C696.22 41.0765 696.11 41.2627 696.11 41.499C696.11 41.6816 696.16 41.832 696.261 41.9502C696.365 42.0684 696.529 42.1794 696.755 42.2832C696.98 42.387 697.278 42.5088 697.646 42.6484C698.015 42.7845 698.334 42.9259 698.603 43.0728C698.871 43.216 699.077 43.3914 699.22 43.5991C699.367 43.8032 699.44 44.0664 699.44 44.3887ZM703.641 40.0059C704.375 40.0059 704.96 40.2583 705.397 40.7632C705.834 41.2681 706.052 42.0272 706.052 43.0405C706.052 43.7101 705.952 44.2723 705.751 44.7271C705.551 45.1818 705.268 45.5256 704.903 45.7583C704.541 45.991 704.113 46.1074 703.619 46.1074C703.308 46.1074 703.034 46.0662 702.797 45.9839C702.561 45.9015 702.359 45.7905 702.19 45.6509C702.022 45.5112 701.882 45.359 701.771 45.1943H701.707C701.718 45.334 701.73 45.5023 701.745 45.6992C701.763 45.8962 701.771 46.068 701.771 46.2148V48.6318H700.875V40.1133H701.61L701.729 40.9834H701.771C701.886 40.8044 702.026 40.6414 702.19 40.4946C702.355 40.3442 702.556 40.2261 702.792 40.1401C703.032 40.0506 703.315 40.0059 703.641 40.0059ZM703.485 40.7578C703.077 40.7578 702.747 40.8366 702.497 40.9941C702.25 41.1517 702.069 41.388 701.954 41.7031C701.84 42.0146 701.779 42.4067 701.771 42.8794V43.0513C701.771 43.549 701.825 43.9697 701.933 44.3135C702.044 44.6572 702.224 44.9186 702.475 45.0977C702.729 45.2767 703.069 45.3662 703.496 45.3662C703.861 45.3662 704.165 45.2677 704.409 45.0708C704.652 44.8739 704.833 44.5999 704.951 44.249C705.073 43.8945 705.134 43.4881 705.134 43.0298C705.134 42.3351 704.998 41.7837 704.726 41.3755C704.457 40.9637 704.043 40.7578 703.485 40.7578ZM709.812 40.0166C710.514 40.0166 711.035 40.1742 711.375 40.4893C711.715 40.8044 711.885 41.3075 711.885 41.9985V46H711.235L711.063 45.1299H711.021C710.856 45.3447 710.684 45.5256 710.505 45.6724C710.326 45.8156 710.118 45.9248 709.882 46C709.649 46.0716 709.363 46.1074 709.022 46.1074C708.664 46.1074 708.346 46.0448 708.066 45.9194C707.791 45.7941 707.572 45.6043 707.411 45.3501C707.254 45.0959 707.175 44.7736 707.175 44.3833C707.175 43.7961 707.408 43.3449 707.873 43.0298C708.339 42.7147 709.048 42.5428 710 42.5142L711.015 42.4712V42.1113C711.015 41.6029 710.906 41.2466 710.688 41.0425C710.469 40.8384 710.161 40.7363 709.764 40.7363C709.456 40.7363 709.162 40.7811 708.883 40.8706C708.604 40.9601 708.339 41.0658 708.088 41.1875L707.814 40.5107C708.079 40.3747 708.383 40.2583 708.727 40.1616C709.071 40.0649 709.432 40.0166 709.812 40.0166ZM711.004 43.0996L710.107 43.1372C709.373 43.1659 708.856 43.2858 708.555 43.4971C708.254 43.7083 708.104 44.0073 708.104 44.394C708.104 44.7306 708.206 44.9795 708.41 45.1406C708.614 45.3018 708.885 45.3823 709.221 45.3823C709.744 45.3823 710.172 45.2373 710.505 44.9473C710.838 44.6572 711.004 44.2222 711.004 43.6421V43.0996ZM716.08 46.1074C715.55 46.1074 715.083 45.9982 714.678 45.7798C714.274 45.5614 713.958 45.2284 713.733 44.7808C713.507 44.3332 713.395 43.7692 713.395 43.0889C713.395 42.3763 713.513 41.7944 713.749 41.3433C713.989 40.8885 714.318 40.5519 714.737 40.3335C715.156 40.1151 715.632 40.0059 716.166 40.0059C716.46 40.0059 716.743 40.0363 717.015 40.0972C717.29 40.1545 717.516 40.2279 717.691 40.3174L717.423 41.064C717.244 40.9924 717.036 40.9279 716.8 40.8706C716.567 40.8133 716.349 40.7847 716.145 40.7847C715.736 40.7847 715.396 40.8724 715.124 41.0479C714.855 41.2233 714.653 41.4811 714.517 41.8213C714.385 42.1615 714.318 42.5804 714.318 43.0781C714.318 43.5544 714.383 43.9608 714.512 44.2974C714.644 44.634 714.839 44.8918 715.097 45.0708C715.359 45.2463 715.684 45.334 716.075 45.334C716.386 45.334 716.667 45.3018 716.918 45.2373C717.169 45.1693 717.396 45.0905 717.6 45.001V45.7959C717.403 45.8962 717.183 45.9731 716.939 46.0269C716.7 46.0806 716.413 46.1074 716.08 46.1074ZM719.888 40.1133V46H718.997V40.1133H719.888ZM719.453 37.9111C719.6 37.9111 719.725 37.9595 719.829 38.0562C719.937 38.1493 719.99 38.2961 719.99 38.4966C719.99 38.6935 719.937 38.8403 719.829 38.937C719.725 39.0337 719.6 39.082 719.453 39.082C719.299 39.082 719.17 39.0337 719.066 38.937C718.966 38.8403 718.916 38.6935 718.916 38.4966C718.916 38.2961 718.966 38.1493 719.066 38.0562C719.17 37.9595 719.299 37.9111 719.453 37.9111ZM724.566 40.0059C725.265 40.0059 725.793 40.1777 726.151 40.5215C726.509 40.8617 726.688 41.4095 726.688 42.165V46H725.807V42.2241C725.807 41.7336 725.694 41.3665 725.469 41.123C725.247 40.8796 724.905 40.7578 724.443 40.7578C723.791 40.7578 723.333 40.9422 723.068 41.311C722.803 41.6799 722.67 42.2152 722.67 42.917V46H721.779V40.1133H722.499L722.633 40.9619H722.681C722.806 40.7542 722.966 40.5806 723.159 40.4409C723.353 40.2977 723.569 40.1903 723.809 40.1187C724.049 40.0435 724.301 40.0059 724.566 40.0059ZM730.168 48.6426C729.395 48.6426 728.799 48.4976 728.38 48.2075C727.961 47.9211 727.751 47.5182 727.751 46.999C727.751 46.6302 727.868 46.3151 728.101 46.0537C728.337 45.7923 728.663 45.6187 729.078 45.5327C728.924 45.4611 728.792 45.3537 728.681 45.2104C728.573 45.0672 728.52 44.9025 728.52 44.7163C728.52 44.5015 728.579 44.3135 728.697 44.1523C728.819 43.9876 729.003 43.8301 729.25 43.6797C728.942 43.5544 728.691 43.3431 728.498 43.0459C728.308 42.7451 728.213 42.396 728.213 41.9985C728.213 41.576 728.301 41.2161 728.477 40.9189C728.652 40.6182 728.906 40.389 729.239 40.2314C729.572 40.0739 729.975 39.9951 730.448 39.9951C730.552 39.9951 730.655 40.0005 730.759 40.0112C730.867 40.0184 730.969 40.0309 731.065 40.0488C731.162 40.0632 731.246 40.0811 731.318 40.1025H733.337V40.6772L732.252 40.8115C732.36 40.9512 732.449 41.1195 732.521 41.3164C732.593 41.5133 732.628 41.7318 732.628 41.9717C732.628 42.5589 732.43 43.0262 732.032 43.3735C731.635 43.7173 731.089 43.8892 730.394 43.8892C730.229 43.8892 730.061 43.8748 729.889 43.8462C729.714 43.9429 729.579 44.0503 729.486 44.1685C729.397 44.2866 729.352 44.4227 729.352 44.5767C729.352 44.6912 729.386 44.7826 729.454 44.8506C729.526 44.9186 729.628 44.9688 729.76 45.001C729.893 45.0296 730.052 45.0439 730.238 45.0439H731.275C731.916 45.0439 732.406 45.1782 732.747 45.4468C733.09 45.7153 733.262 46.1074 733.262 46.623C733.262 47.2747 732.997 47.7743 732.467 48.1216C731.937 48.4689 731.171 48.6426 730.168 48.6426ZM730.195 47.9443C730.682 47.9443 731.085 47.8942 731.404 47.7939C731.726 47.6973 731.966 47.5558 732.124 47.3696C732.285 47.187 732.365 46.9686 732.365 46.7144C732.365 46.478 732.312 46.299 732.204 46.1772C732.097 46.0591 731.939 45.9803 731.731 45.9409C731.524 45.8979 731.27 45.8765 730.969 45.8765H729.948C729.683 45.8765 729.452 45.9176 729.255 46C729.058 46.0824 728.906 46.2041 728.799 46.3652C728.695 46.5264 728.643 46.7269 728.643 46.9668C728.643 47.2855 728.777 47.5272 729.046 47.6919C729.314 47.8602 729.698 47.9443 730.195 47.9443ZM730.426 43.2393C730.852 43.2393 731.173 43.1318 731.388 42.917C731.603 42.7021 731.71 42.3888 731.71 41.9771C731.71 41.5366 731.601 41.2072 731.382 40.9888C731.164 40.7668 730.842 40.6558 730.416 40.6558C730.007 40.6558 729.692 40.7703 729.47 40.9995C729.252 41.2251 729.143 41.5563 729.143 41.9932C729.143 42.3942 729.254 42.7021 729.476 42.917C729.698 43.1318 730.014 43.2393 730.426 43.2393ZM733.998 43.4434V42.6484H736.662V43.4434H733.998ZM742.5 39.979C742.5 40.3299 742.432 40.6343 742.296 40.8921C742.16 41.1499 741.971 41.3612 741.727 41.5259C741.484 41.687 741.197 41.7998 740.868 41.8643V41.9072C741.491 41.986 741.958 42.1865 742.27 42.5088C742.585 42.8311 742.742 43.2536 742.742 43.7764C742.742 44.2311 742.635 44.634 742.42 44.9849C742.209 45.3358 741.883 45.6115 741.442 45.812C741.006 46.009 740.445 46.1074 739.761 46.1074C739.346 46.1074 738.961 46.0734 738.606 46.0054C738.256 45.9409 737.919 45.8317 737.597 45.6777V44.8398C737.923 45.001 738.277 45.1281 738.66 45.2212C739.043 45.3107 739.414 45.3555 739.772 45.3555C740.488 45.3555 741.006 45.214 741.324 44.9312C741.643 44.6447 741.802 44.2544 741.802 43.7603C741.802 43.4201 741.713 43.1462 741.534 42.9385C741.358 42.7272 741.104 42.5732 740.771 42.4766C740.442 42.3763 740.044 42.3262 739.579 42.3262H738.794V41.5635H739.584C740.01 41.5635 740.372 41.5008 740.669 41.3755C740.966 41.2502 741.192 41.0747 741.346 40.8491C741.503 40.62 741.582 40.3496 741.582 40.0381C741.582 39.6406 741.45 39.3345 741.185 39.1196C740.92 38.9012 740.56 38.792 740.105 38.792C739.826 38.792 739.571 38.8206 739.342 38.8779C739.113 38.9352 738.898 39.014 738.698 39.1143C738.497 39.2145 738.297 39.3309 738.096 39.4634L737.645 38.8511C737.931 38.6291 738.281 38.4375 738.692 38.2764C739.104 38.1152 739.571 38.0347 740.094 38.0347C740.896 38.0347 741.498 38.2173 741.899 38.5825C742.3 38.9478 742.5 39.4132 742.5 39.979ZM749.128 42.063C749.128 42.7004 749.08 43.2697 748.983 43.771C748.887 44.2723 748.735 44.6966 748.527 45.0439C748.319 45.3913 748.051 45.6562 747.721 45.8389C747.392 46.0179 746.996 46.1074 746.534 46.1074C745.951 46.1074 745.467 45.9481 745.084 45.6294C744.704 45.3107 744.42 44.8506 744.23 44.249C744.044 43.6439 743.951 42.9152 743.951 42.063C743.951 41.2251 744.035 40.5054 744.203 39.9038C744.375 39.2987 744.651 38.835 745.03 38.5127C745.41 38.1868 745.911 38.0239 746.534 38.0239C747.125 38.0239 747.612 38.1851 747.995 38.5073C748.378 38.826 748.663 39.2879 748.849 39.8931C749.035 40.4946 749.128 41.2179 749.128 42.063ZM744.848 42.063C744.848 42.7935 744.903 43.4022 745.014 43.8892C745.125 44.3761 745.304 44.7414 745.551 44.9849C745.802 45.2248 746.13 45.3447 746.534 45.3447C746.939 45.3447 747.265 45.2248 747.512 44.9849C747.762 44.745 747.943 44.3815 748.054 43.8945C748.169 43.4076 748.226 42.797 748.226 42.063C748.226 41.3433 748.171 40.7417 748.06 40.2583C747.949 39.7713 747.77 39.4061 747.522 39.1626C747.275 38.9155 746.946 38.792 746.534 38.792C746.122 38.792 745.793 38.9155 745.546 39.1626C745.299 39.4061 745.12 39.7713 745.009 40.2583C744.901 40.7417 744.848 41.3433 744.848 42.063ZM755.423 42.063C755.423 42.7004 755.375 43.2697 755.278 43.771C755.182 44.2723 755.029 44.6966 754.822 45.0439C754.614 45.3913 754.346 45.6562 754.016 45.8389C753.687 46.0179 753.291 46.1074 752.829 46.1074C752.245 46.1074 751.762 45.9481 751.379 45.6294C750.999 45.3107 750.715 44.8506 750.525 44.249C750.339 43.6439 750.246 42.9152 750.246 42.063C750.246 41.2251 750.33 40.5054 750.498 39.9038C750.67 39.2987 750.946 38.835 751.325 38.5127C751.705 38.1868 752.206 38.0239 752.829 38.0239C753.42 38.0239 753.907 38.1851 754.29 38.5073C754.673 38.826 754.958 39.2879 755.144 39.8931C755.33 40.4946 755.423 41.2179 755.423 42.063ZM751.143 42.063C751.143 42.7935 751.198 43.4022 751.309 43.8892C751.42 44.3761 751.599 44.7414 751.846 44.9849C752.097 45.2248 752.424 45.3447 752.829 45.3447C753.234 45.3447 753.56 45.2248 753.807 44.9849C754.057 44.745 754.238 44.3815 754.349 43.8945C754.464 43.4076 754.521 42.797 754.521 42.063C754.521 41.3433 754.465 40.7417 754.354 40.2583C754.243 39.7713 754.064 39.4061 753.817 39.1626C753.57 38.9155 753.241 38.792 752.829 38.792C752.417 38.792 752.088 38.9155 751.841 39.1626C751.594 39.4061 751.415 39.7713 751.304 40.2583C751.196 40.7417 751.143 41.3433 751.143 42.063Z" fill="black"/>
<rect x="630" y="66" width="24" height="24" fill="#ADD7D9"/>
<path d="M666.44 79.4434V78.6484H669.104V79.4434H666.44ZM669.985 79.4434V78.6484H672.649V79.4434H669.985ZM677.838 80.3887C677.838 80.7646 677.743 81.0815 677.553 81.3394C677.367 81.5936 677.098 81.7852 676.748 81.9141C676.4 82.043 675.985 82.1074 675.501 82.1074C675.09 82.1074 674.733 82.0752 674.433 82.0107C674.132 81.9463 673.869 81.855 673.643 81.7368V80.915C673.883 81.0332 674.169 81.1406 674.502 81.2373C674.835 81.334 675.176 81.3823 675.523 81.3823C676.031 81.3823 676.4 81.3 676.629 81.1353C676.859 80.9705 676.973 80.7467 676.973 80.4639C676.973 80.3027 676.927 80.1613 676.833 80.0396C676.744 79.9142 676.592 79.7943 676.377 79.6797C676.162 79.5615 675.865 79.4326 675.485 79.293C675.109 79.1497 674.784 79.0083 674.508 78.8687C674.236 78.7254 674.024 78.5518 673.874 78.3477C673.727 78.1436 673.654 77.8786 673.654 77.5527C673.654 77.055 673.854 76.6737 674.255 76.4087C674.66 76.1401 675.19 76.0059 675.845 76.0059C676.2 76.0059 676.531 76.0417 676.839 76.1133C677.15 76.1813 677.44 76.2744 677.709 76.3926L677.408 77.1069C677.165 77.0031 676.905 76.9154 676.629 76.8438C676.354 76.7721 676.073 76.7363 675.786 76.7363C675.374 76.7363 675.057 76.8044 674.835 76.9404C674.617 77.0765 674.508 77.2627 674.508 77.499C674.508 77.6816 674.558 77.832 674.658 77.9502C674.762 78.0684 674.927 78.1794 675.152 78.2832C675.378 78.387 675.675 78.5088 676.044 78.6484C676.413 78.7845 676.731 78.9259 677 79.0728C677.269 79.216 677.474 79.3914 677.618 79.5991C677.764 79.8032 677.838 80.0664 677.838 80.3887ZM681.474 76.0166C682.176 76.0166 682.697 76.1742 683.037 76.4893C683.377 76.8044 683.547 77.3075 683.547 77.9985V82H682.897L682.726 81.1299H682.683C682.518 81.3447 682.346 81.5256 682.167 81.6724C681.988 81.8156 681.78 81.9248 681.544 82C681.311 82.0716 681.025 82.1074 680.685 82.1074C680.326 82.1074 680.008 82.0448 679.729 81.9194C679.453 81.7941 679.234 81.6043 679.073 81.3501C678.916 81.0959 678.837 80.7736 678.837 80.3833C678.837 79.7961 679.07 79.3449 679.535 79.0298C680.001 78.7147 680.71 78.5428 681.662 78.5142L682.677 78.4712V78.1113C682.677 77.6029 682.568 77.2466 682.35 77.0425C682.131 76.8384 681.823 76.7363 681.426 76.7363C681.118 76.7363 680.824 76.7811 680.545 76.8706C680.266 76.9601 680.001 77.0658 679.75 77.1875L679.476 76.5107C679.741 76.3747 680.045 76.2583 680.389 76.1616C680.733 76.0649 681.095 76.0166 681.474 76.0166ZM682.667 79.0996L681.77 79.1372C681.035 79.1659 680.518 79.2858 680.217 79.4971C679.917 79.7083 679.766 80.0073 679.766 80.394C679.766 80.7306 679.868 80.9795 680.072 81.1406C680.276 81.3018 680.547 81.3823 680.883 81.3823C681.406 81.3823 681.834 81.2373 682.167 80.9473C682.5 80.6572 682.667 80.2222 682.667 79.6421V79.0996ZM686.281 82H685.384V73.6426H686.281V82ZM690.068 81.377C690.215 81.377 690.365 81.3644 690.519 81.3394C690.673 81.3143 690.798 81.2839 690.895 81.248V81.9409C690.791 81.9875 690.646 82.0269 690.46 82.0591C690.277 82.0913 690.098 82.1074 689.923 82.1074C689.611 82.1074 689.328 82.0537 689.074 81.9463C688.82 81.8353 688.616 81.6491 688.462 81.3877C688.312 81.1263 688.236 80.7646 688.236 80.3027V76.8115H687.398V76.3765L688.242 76.0273L688.596 74.749H689.133V76.1133H690.857V76.8115H689.133V80.2759C689.133 80.6447 689.217 80.9204 689.386 81.103C689.558 81.2856 689.785 81.377 690.068 81.377ZM691.588 79.4434V78.6484H694.252V79.4434H691.588ZM699.44 80.3887C699.44 80.7646 699.346 81.0815 699.156 81.3394C698.97 81.5936 698.701 81.7852 698.35 81.9141C698.003 82.043 697.587 82.1074 697.104 82.1074C696.692 82.1074 696.336 82.0752 696.035 82.0107C695.734 81.9463 695.471 81.855 695.246 81.7368V80.915C695.486 81.0332 695.772 81.1406 696.105 81.2373C696.438 81.334 696.778 81.3823 697.125 81.3823C697.634 81.3823 698.003 81.3 698.232 81.1353C698.461 80.9705 698.576 80.7467 698.576 80.4639C698.576 80.3027 698.529 80.1613 698.436 80.0396C698.347 79.9142 698.194 79.7943 697.979 79.6797C697.765 79.5615 697.467 79.4326 697.088 79.293C696.712 79.1497 696.386 79.0083 696.11 78.8687C695.838 78.7254 695.627 78.5518 695.477 78.3477C695.33 78.1436 695.256 77.8786 695.256 77.5527C695.256 77.055 695.457 76.6737 695.858 76.4087C696.263 76.1401 696.792 76.0059 697.448 76.0059C697.802 76.0059 698.133 76.0417 698.441 76.1133C698.753 76.1813 699.043 76.2744 699.312 76.3926L699.011 77.1069C698.767 77.0031 698.508 76.9154 698.232 76.8438C697.956 76.7721 697.675 76.7363 697.389 76.7363C696.977 76.7363 696.66 76.8044 696.438 76.9404C696.22 77.0765 696.11 77.2627 696.11 77.499C696.11 77.6816 696.16 77.832 696.261 77.9502C696.365 78.0684 696.529 78.1794 696.755 78.2832C696.98 78.387 697.278 78.5088 697.646 78.6484C698.015 78.7845 698.334 78.9259 698.603 79.0728C698.871 79.216 699.077 79.3914 699.22 79.5991C699.367 79.8032 699.44 80.0664 699.44 80.3887ZM703.641 76.0059C704.375 76.0059 704.96 76.2583 705.397 76.7632C705.834 77.2681 706.052 78.0272 706.052 79.0405C706.052 79.7101 705.952 80.2723 705.751 80.7271C705.551 81.1818 705.268 81.5256 704.903 81.7583C704.541 81.991 704.113 82.1074 703.619 82.1074C703.308 82.1074 703.034 82.0662 702.797 81.9839C702.561 81.9015 702.359 81.7905 702.19 81.6509C702.022 81.5112 701.882 81.359 701.771 81.1943H701.707C701.718 81.334 701.73 81.5023 701.745 81.6992C701.763 81.8962 701.771 82.068 701.771 82.2148V84.6318H700.875V76.1133H701.61L701.729 76.9834H701.771C701.886 76.8044 702.026 76.6414 702.19 76.4946C702.355 76.3442 702.556 76.2261 702.792 76.1401C703.032 76.0506 703.315 76.0059 703.641 76.0059ZM703.485 76.7578C703.077 76.7578 702.747 76.8366 702.497 76.9941C702.25 77.1517 702.069 77.388 701.954 77.7031C701.84 78.0146 701.779 78.4067 701.771 78.8794V79.0513C701.771 79.549 701.825 79.9697 701.933 80.3135C702.044 80.6572 702.224 80.9186 702.475 81.0977C702.729 81.2767 703.069 81.3662 703.496 81.3662C703.861 81.3662 704.165 81.2677 704.409 81.0708C704.652 80.8739 704.833 80.5999 704.951 80.249C705.073 79.8945 705.134 79.4881 705.134 79.0298C705.134 78.3351 704.998 77.7837 704.726 77.3755C704.457 76.9637 704.043 76.7578 703.485 76.7578ZM709.812 76.0166C710.514 76.0166 711.035 76.1742 711.375 76.4893C711.715 76.8044 711.885 77.3075 711.885 77.9985V82H711.235L711.063 81.1299H711.021C710.856 81.3447 710.684 81.5256 710.505 81.6724C710.326 81.8156 710.118 81.9248 709.882 82C709.649 82.0716 709.363 82.1074 709.022 82.1074C708.664 82.1074 708.346 82.0448 708.066 81.9194C707.791 81.7941 707.572 81.6043 707.411 81.3501C707.254 81.0959 707.175 80.7736 707.175 80.3833C707.175 79.7961 707.408 79.3449 707.873 79.0298C708.339 78.7147 709.048 78.5428 710 78.5142L711.015 78.4712V78.1113C711.015 77.6029 710.906 77.2466 710.688 77.0425C710.469 76.8384 710.161 76.7363 709.764 76.7363C709.456 76.7363 709.162 76.7811 708.883 76.8706C708.604 76.9601 708.339 77.0658 708.088 77.1875L707.814 76.5107C708.079 76.3747 708.383 76.2583 708.727 76.1616C709.071 76.0649 709.432 76.0166 709.812 76.0166ZM711.004 79.0996L710.107 79.1372C709.373 79.1659 708.856 79.2858 708.555 79.4971C708.254 79.7083 708.104 80.0073 708.104 80.394C708.104 80.7306 708.206 80.9795 708.41 81.1406C708.614 81.3018 708.885 81.3823 709.221 81.3823C709.744 81.3823 710.172 81.2373 710.505 80.9473C710.838 80.6572 711.004 80.2222 711.004 79.6421V79.0996ZM716.08 82.1074C715.55 82.1074 715.083 81.9982 714.678 81.7798C714.274 81.5614 713.958 81.2284 713.733 80.7808C713.507 80.3332 713.395 79.7692 713.395 79.0889C713.395 78.3763 713.513 77.7944 713.749 77.3433C713.989 76.8885 714.318 76.5519 714.737 76.3335C715.156 76.1151 715.632 76.0059 716.166 76.0059C716.46 76.0059 716.743 76.0363 717.015 76.0972C717.29 76.1545 717.516 76.2279 717.691 76.3174L717.423 77.064C717.244 76.9924 717.036 76.9279 716.8 76.8706C716.567 76.8133 716.349 76.7847 716.145 76.7847C715.736 76.7847 715.396 76.8724 715.124 77.0479C714.855 77.2233 714.653 77.4811 714.517 77.8213C714.385 78.1615 714.318 78.5804 714.318 79.0781C714.318 79.5544 714.383 79.9608 714.512 80.2974C714.644 80.634 714.839 80.8918 715.097 81.0708C715.359 81.2463 715.684 81.334 716.075 81.334C716.386 81.334 716.667 81.3018 716.918 81.2373C717.169 81.1693 717.396 81.0905 717.6 81.001V81.7959C717.403 81.8962 717.183 81.9731 716.939 82.0269C716.7 82.0806 716.413 82.1074 716.08 82.1074ZM719.888 76.1133V82H718.997V76.1133H719.888ZM719.453 73.9111C719.6 73.9111 719.725 73.9595 719.829 74.0562C719.937 74.1493 719.99 74.2961 719.99 74.4966C719.99 74.6935 719.937 74.8403 719.829 74.937C719.725 75.0337 719.6 75.082 719.453 75.082C719.299 75.082 719.17 75.0337 719.066 74.937C718.966 74.8403 718.916 74.6935 718.916 74.4966C718.916 74.2961 718.966 74.1493 719.066 74.0562C719.17 73.9595 719.299 73.9111 719.453 73.9111ZM724.566 76.0059C725.265 76.0059 725.793 76.1777 726.151 76.5215C726.509 76.8617 726.688 77.4095 726.688 78.165V82H725.807V78.2241C725.807 77.7336 725.694 77.3665 725.469 77.123C725.247 76.8796 724.905 76.7578 724.443 76.7578C723.791 76.7578 723.333 76.9422 723.068 77.311C722.803 77.6799 722.67 78.2152 722.67 78.917V82H721.779V76.1133H722.499L722.633 76.9619H722.681C722.806 76.7542 722.966 76.5806 723.159 76.4409C723.353 76.2977 723.569 76.1903 723.809 76.1187C724.049 76.0435 724.301 76.0059 724.566 76.0059ZM730.168 84.6426C729.395 84.6426 728.799 84.4976 728.38 84.2075C727.961 83.9211 727.751 83.5182 727.751 82.999C727.751 82.6302 727.868 82.3151 728.101 82.0537C728.337 81.7923 728.663 81.6187 729.078 81.5327C728.924 81.4611 728.792 81.3537 728.681 81.2104C728.573 81.0672 728.52 80.9025 728.52 80.7163C728.52 80.5015 728.579 80.3135 728.697 80.1523C728.819 79.9876 729.003 79.8301 729.25 79.6797C728.942 79.5544 728.691 79.3431 728.498 79.0459C728.308 78.7451 728.213 78.396 728.213 77.9985C728.213 77.576 728.301 77.2161 728.477 76.9189C728.652 76.6182 728.906 76.389 729.239 76.2314C729.572 76.0739 729.975 75.9951 730.448 75.9951C730.552 75.9951 730.655 76.0005 730.759 76.0112C730.867 76.0184 730.969 76.0309 731.065 76.0488C731.162 76.0632 731.246 76.0811 731.318 76.1025H733.337V76.6772L732.252 76.8115C732.36 76.9512 732.449 77.1195 732.521 77.3164C732.593 77.5133 732.628 77.7318 732.628 77.9717C732.628 78.5589 732.43 79.0262 732.032 79.3735C731.635 79.7173 731.089 79.8892 730.394 79.8892C730.229 79.8892 730.061 79.8748 729.889 79.8462C729.714 79.9429 729.579 80.0503 729.486 80.1685C729.397 80.2866 729.352 80.4227 729.352 80.5767C729.352 80.6912 729.386 80.7826 729.454 80.8506C729.526 80.9186 729.628 80.9688 729.76 81.001C729.893 81.0296 730.052 81.0439 730.238 81.0439H731.275C731.916 81.0439 732.406 81.1782 732.747 81.4468C733.09 81.7153 733.262 82.1074 733.262 82.623C733.262 83.2747 732.997 83.7743 732.467 84.1216C731.937 84.4689 731.171 84.6426 730.168 84.6426ZM730.195 83.9443C730.682 83.9443 731.085 83.8942 731.404 83.7939C731.726 83.6973 731.966 83.5558 732.124 83.3696C732.285 83.187 732.365 82.9686 732.365 82.7144C732.365 82.478 732.312 82.299 732.204 82.1772C732.097 82.0591 731.939 81.9803 731.731 81.9409C731.524 81.8979 731.27 81.8765 730.969 81.8765H729.948C729.683 81.8765 729.452 81.9176 729.255 82C729.058 82.0824 728.906 82.2041 728.799 82.3652C728.695 82.5264 728.643 82.7269 728.643 82.9668C728.643 83.2855 728.777 83.5272 729.046 83.6919C729.314 83.8602 729.698 83.9443 730.195 83.9443ZM730.426 79.2393C730.852 79.2393 731.173 79.1318 731.388 78.917C731.603 78.7021 731.71 78.3888 731.71 77.9771C731.71 77.5366 731.601 77.2072 731.382 76.9888C731.164 76.7668 730.842 76.6558 730.416 76.6558C730.007 76.6558 729.692 76.7703 729.47 76.9995C729.252 77.2251 729.143 77.5563 729.143 77.9932C729.143 78.3942 729.254 78.7021 729.476 78.917C729.698 79.1318 730.014 79.2393 730.426 79.2393ZM733.998 79.4434V78.6484H736.662V79.4434H733.998ZM742.791 82H737.645V81.2534L739.745 79.1211C740.135 78.7272 740.463 78.3763 740.728 78.0684C740.997 77.7604 741.201 77.4578 741.34 77.1606C741.48 76.8599 741.55 76.5304 741.55 76.1724C741.55 75.7284 741.417 75.39 741.152 75.1572C740.891 74.9209 740.545 74.8027 740.116 74.8027C739.74 74.8027 739.407 74.8672 739.117 74.9961C738.827 75.125 738.529 75.3076 738.225 75.5439L737.747 74.9424C737.955 74.7669 738.18 74.6112 738.424 74.4751C738.671 74.339 738.934 74.2316 739.213 74.1528C739.496 74.0741 739.797 74.0347 740.116 74.0347C740.599 74.0347 741.016 74.1188 741.367 74.2871C741.718 74.4554 741.988 74.6953 742.178 75.0068C742.372 75.3184 742.468 75.689 742.468 76.1187C742.468 76.534 742.386 76.9207 742.221 77.2788C742.056 77.6333 741.826 77.986 741.528 78.3369C741.231 78.6842 740.884 79.0531 740.486 79.4434L738.778 81.146V81.1836H742.791V82ZM749.128 78.063C749.128 78.7004 749.08 79.2697 748.983 79.771C748.887 80.2723 748.735 80.6966 748.527 81.0439C748.319 81.3913 748.051 81.6562 747.721 81.8389C747.392 82.0179 746.996 82.1074 746.534 82.1074C745.951 82.1074 745.467 81.9481 745.084 81.6294C744.704 81.3107 744.42 80.8506 744.23 80.249C744.044 79.6439 743.951 78.9152 743.951 78.063C743.951 77.2251 744.035 76.5054 744.203 75.9038C744.375 75.2987 744.651 74.835 745.03 74.5127C745.41 74.1868 745.911 74.0239 746.534 74.0239C747.125 74.0239 747.612 74.1851 747.995 74.5073C748.378 74.826 748.663 75.2879 748.849 75.8931C749.035 76.4946 749.128 77.2179 749.128 78.063ZM744.848 78.063C744.848 78.7935 744.903 79.4022 745.014 79.8892C745.125 80.3761 745.304 80.7414 745.551 80.9849C745.802 81.2248 746.13 81.3447 746.534 81.3447C746.939 81.3447 747.265 81.2248 747.512 80.9849C747.762 80.745 747.943 80.3815 748.054 79.8945C748.169 79.4076 748.226 78.797 748.226 78.063C748.226 77.3433 748.171 76.7417 748.06 76.2583C747.949 75.7713 747.77 75.4061 747.522 75.1626C747.275 74.9155 746.946 74.792 746.534 74.792C746.122 74.792 745.793 74.9155 745.546 75.1626C745.299 75.4061 745.12 75.7713 745.009 76.2583C744.901 76.7417 744.848 77.3433 744.848 78.063ZM755.423 78.063C755.423 78.7004 755.375 79.2697 755.278 79.771C755.182 80.2723 755.029 80.6966 754.822 81.0439C754.614 81.3913 754.346 81.6562 754.016 81.8389C753.687 82.0179 753.291 82.1074 752.829 82.1074C752.245 82.1074 751.762 81.9481 751.379 81.6294C750.999 81.3107 750.715 80.8506 750.525 80.249C750.339 79.6439 750.246 78.9152 750.246 78.063C750.246 77.2251 750.33 76.5054 750.498 75.9038C750.67 75.2987 750.946 74.835 751.325 74.5127C751.705 74.1868 752.206 74.0239 752.829 74.0239C753.42 74.0239 753.907 74.1851 754.29 74.5073C754.673 74.826 754.958 75.2879 755.144 75.8931C755.33 76.4946 755.423 77.2179 755.423 78.063ZM751.143 78.063C751.143 78.7935 751.198 79.4022 751.309 79.8892C751.42 80.3761 751.599 80.7414 751.846 80.9849C752.097 81.2248 752.424 81.3447 752.829 81.3447C753.234 81.3447 753.56 81.2248 753.807 80.9849C754.057 80.745 754.238 80.3815 754.349 79.8945C754.464 79.4076 754.521 78.797 754.521 78.063C754.521 77.3433 754.465 76.7417 754.354 76.2583C754.243 75.7713 754.064 75.4061 753.817 75.1626C753.57 74.9155 753.241 74.792 752.829 74.792C752.417 74.792 752.088 74.9155 751.841 75.1626C751.594 75.4061 751.415 75.7713 751.304 76.2583C751.196 76.7417 751.143 77.3433 751.143 78.063Z" fill="black"/>
<defs>
<clipPath id="clip0_3370_312675">
<rect width="598" height="714" fill="white"/>
</clipPath>
</defs>
</svg>
