<svg width="889" height="192" viewBox="0 0 889 192" fill="none" xmlns="http://www.w3.org/2000/svg">
<rect width="889" height="192" fill="#F2F4F6"/>
<path d="M32.9414 38H31.7793V33.29H26.5293V38H25.3672V28.0059H26.5293V32.2646H31.7793V28.0059H32.9414V38ZM39.2373 38H38.1299V30.918C38.1299 30.6491 38.1299 30.4189 38.1299 30.2275C38.1344 30.0316 38.139 29.8538 38.1436 29.6943C38.1527 29.5303 38.1641 29.3639 38.1777 29.1953C38.0365 29.3411 37.9043 29.4665 37.7812 29.5713C37.6582 29.6715 37.5055 29.7969 37.3232 29.9473L36.1816 30.8633L35.5869 30.0908L38.2939 28.0059H39.2373V38Z" fill="#61656E"/>
<path d="M144.645 49L143.402 44.9219H137.156L135.914 49H132L138.047 31.7969H142.488L148.559 49H144.645ZM142.535 41.875L141.293 37.8906C141.215 37.625 141.109 37.2852 140.977 36.8711C140.852 36.4492 140.723 36.0234 140.59 35.5938C140.465 35.1562 140.363 34.7773 140.285 34.457C140.207 34.7773 140.098 35.1758 139.957 35.6523C139.824 36.1211 139.695 36.5664 139.57 36.9883C139.445 37.4102 139.355 37.7109 139.301 37.8906L138.07 41.875H142.535ZM155.812 35.6289C157.57 35.6289 158.918 36.0117 159.855 36.7773C160.793 37.543 161.262 38.707 161.262 40.2695V49H158.766L158.074 47.2188H157.98C157.605 47.6875 157.223 48.0703 156.832 48.3672C156.441 48.6641 155.992 48.8828 155.484 49.0234C154.977 49.1641 154.359 49.2344 153.633 49.2344C152.859 49.2344 152.164 49.0859 151.547 48.7891C150.938 48.4922 150.457 48.0391 150.105 47.4297C149.754 46.8125 149.578 46.0312 149.578 45.0859C149.578 43.6953 150.066 42.6719 151.043 42.0156C152.02 41.3516 153.484 40.9844 155.438 40.9141L157.711 40.8438V40.2695C157.711 39.582 157.531 39.0781 157.172 38.7578C156.812 38.4375 156.312 38.2773 155.672 38.2773C155.039 38.2773 154.418 38.3672 153.809 38.5469C153.199 38.7266 152.59 38.9531 151.98 39.2266L150.797 36.8125C151.492 36.4453 152.27 36.1562 153.129 35.9453C153.996 35.7344 154.891 35.6289 155.812 35.6289ZM157.711 42.9297L156.328 42.9766C155.172 43.0078 154.367 43.2148 153.914 43.5977C153.469 43.9805 153.246 44.4844 153.246 45.1094C153.246 45.6562 153.406 46.0469 153.727 46.2812C154.047 46.5078 154.465 46.6211 154.98 46.6211C155.746 46.6211 156.391 46.3945 156.914 45.9414C157.445 45.4883 157.711 44.8438 157.711 44.0078V42.9297ZM165.234 31.8672H170.566C172.848 31.8672 174.574 32.1875 175.746 32.8281C176.918 33.4688 177.504 34.5938 177.504 36.2031C177.504 36.8516 177.398 37.4375 177.188 37.9609C176.984 38.4844 176.688 38.9141 176.297 39.25C175.906 39.5859 175.43 39.8047 174.867 39.9062V40.0234C175.438 40.1406 175.953 40.3438 176.414 40.6328C176.875 40.9141 177.242 41.3281 177.516 41.875C177.797 42.4141 177.938 43.1328 177.938 44.0312C177.938 45.0703 177.684 45.9609 177.176 46.7031C176.668 47.4453 175.941 48.0156 174.996 48.4141C174.059 48.8047 172.941 49 171.645 49H165.234V31.8672ZM168.867 38.6523H170.977C172.031 38.6523 172.762 38.4883 173.168 38.1602C173.574 37.8242 173.777 37.332 173.777 36.6836C173.777 36.0273 173.535 35.5586 173.051 35.2773C172.574 34.9883 171.816 34.8438 170.777 34.8438H168.867V38.6523ZM168.867 41.5352V46H171.234C172.328 46 173.09 45.7891 173.52 45.3672C173.949 44.9453 174.164 44.3789 174.164 43.668C174.164 43.2461 174.07 42.875 173.883 42.5547C173.695 42.2344 173.379 41.9844 172.934 41.8047C172.496 41.625 171.891 41.5352 171.117 41.5352H168.867ZM184.652 30.7656V35.0078C184.652 35.5 184.637 35.9883 184.605 36.4727C184.582 36.957 184.551 37.332 184.512 37.5977H184.652C184.996 37.0586 185.465 36.6016 186.059 36.2266C186.652 35.8438 187.422 35.6523 188.367 35.6523C189.836 35.6523 191.027 36.2266 191.941 37.375C192.855 38.5234 193.312 40.207 193.312 42.4258C193.312 43.918 193.102 45.1719 192.68 46.1875C192.258 47.1953 191.668 47.957 190.91 48.4727C190.152 48.9805 189.273 49.2344 188.273 49.2344C187.312 49.2344 186.555 49.0625 186 48.7188C185.445 48.375 184.996 47.9883 184.652 47.5586H184.406L183.809 49H181.078V30.7656H184.652ZM187.219 38.5117C186.594 38.5117 186.098 38.6406 185.73 38.8984C185.363 39.1562 185.094 39.543 184.922 40.0586C184.758 40.5742 184.668 41.2266 184.652 42.0156V42.4023C184.652 43.6758 184.84 44.6523 185.215 45.332C185.59 46.0039 186.273 46.3398 187.266 46.3398C188 46.3398 188.582 46 189.012 45.3203C189.449 44.6406 189.668 43.6602 189.668 42.3789C189.668 41.0977 189.449 40.1328 189.012 39.4844C188.574 38.8359 187.977 38.5117 187.219 38.5117ZM203.824 34.6445C203.129 34.6445 202.512 34.7812 201.973 35.0547C201.441 35.3203 200.992 35.707 200.625 36.2148C200.266 36.7227 199.992 37.3359 199.805 38.0547C199.617 38.7734 199.523 39.582 199.523 40.4805C199.523 41.6914 199.672 42.7266 199.969 43.5859C200.273 44.4375 200.742 45.0898 201.375 45.543C202.008 45.9883 202.824 46.2109 203.824 46.2109C204.52 46.2109 205.215 46.1328 205.91 45.9766C206.613 45.8203 207.375 45.5977 208.195 45.3086V48.3555C207.438 48.668 206.691 48.8906 205.957 49.0234C205.223 49.1641 204.398 49.2344 203.484 49.2344C201.719 49.2344 200.266 48.8711 199.125 48.1445C197.992 47.4102 197.152 46.3867 196.605 45.0742C196.059 43.7539 195.785 42.2148 195.785 40.457C195.785 39.1602 195.961 37.9727 196.312 36.8945C196.664 35.8164 197.18 34.8828 197.859 34.0938C198.539 33.3047 199.379 32.6953 200.379 32.2656C201.379 31.8359 202.527 31.6211 203.824 31.6211C204.676 31.6211 205.527 31.7305 206.379 31.9492C207.238 32.1602 208.059 32.4531 208.84 32.8281L207.668 35.7812C207.027 35.4766 206.383 35.2109 205.734 34.9844C205.086 34.7578 204.449 34.6445 203.824 34.6445ZM216.891 49.2344C215.594 49.2344 214.488 49 213.574 48.5312C212.66 48.0547 211.965 47.3203 211.488 46.3281C211.012 45.3359 210.773 44.0664 210.773 42.5195C210.773 40.918 211.043 39.6133 211.582 38.6055C212.129 37.5898 212.883 36.8438 213.844 36.3672C214.812 35.8906 215.934 35.6523 217.207 35.6523C218.113 35.6523 218.895 35.7422 219.551 35.9219C220.215 36.0938 220.793 36.3008 221.285 36.543L220.23 39.3086C219.668 39.082 219.145 38.8984 218.66 38.7578C218.176 38.6094 217.691 38.5352 217.207 38.5352C216.582 38.5352 216.062 38.6836 215.648 38.9805C215.234 39.2695 214.926 39.707 214.723 40.293C214.52 40.8789 214.418 41.6133 214.418 42.4961C214.418 43.3633 214.527 44.082 214.746 44.6523C214.965 45.2227 215.281 45.6484 215.695 45.9297C216.109 46.2031 216.613 46.3398 217.207 46.3398C217.949 46.3398 218.609 46.2422 219.188 46.0469C219.766 45.8438 220.328 45.5625 220.875 45.2031V48.2617C220.328 48.6055 219.754 48.8516 219.152 49C218.559 49.1562 217.805 49.2344 216.891 49.2344ZM238.418 40.2695C238.418 42.1992 238.047 43.8125 237.305 45.1094C236.57 46.3984 235.504 47.3711 234.105 48.0273C232.707 48.6758 231.023 49 229.055 49H224.203V31.8672H229.582C231.379 31.8672 232.938 32.1875 234.258 32.8281C235.578 33.4609 236.602 34.4023 237.328 35.6523C238.055 36.8945 238.418 38.4336 238.418 40.2695ZM234.645 40.3633C234.645 39.0977 234.457 38.0586 234.082 37.2461C233.715 36.4258 233.168 35.8203 232.441 35.4297C231.723 35.0391 230.832 34.8438 229.77 34.8438H227.836V46H229.395C231.168 46 232.484 45.5273 233.344 44.582C234.211 43.6367 234.645 42.2305 234.645 40.3633ZM245.836 49.2344C244.375 49.2344 243.184 48.6641 242.262 47.5234C241.348 46.375 240.891 44.6914 240.891 42.4727C240.891 40.2305 241.355 38.5352 242.285 37.3867C243.215 36.2305 244.43 35.6523 245.93 35.6523C246.555 35.6523 247.105 35.7383 247.582 35.9102C248.059 36.082 248.469 36.3125 248.812 36.6016C249.164 36.8906 249.461 37.2148 249.703 37.5742H249.82C249.773 37.3242 249.715 36.957 249.645 36.4727C249.582 35.9805 249.551 35.4766 249.551 34.9609V30.7656H253.137V49H250.395L249.703 47.3008H249.551C249.324 47.6602 249.039 47.9883 248.695 48.2852C248.359 48.5742 247.957 48.8047 247.488 48.9766C247.02 49.1484 246.469 49.2344 245.836 49.2344ZM247.09 46.3867C248.066 46.3867 248.754 46.0977 249.152 45.5195C249.559 44.9336 249.773 44.0547 249.797 42.8828V42.4961C249.797 41.2227 249.602 40.25 249.211 39.5781C248.82 38.8984 248.094 38.5586 247.031 38.5586C246.242 38.5586 245.625 38.8984 245.18 39.5781C244.734 40.2578 244.512 41.2383 244.512 42.5195C244.512 43.8008 244.734 44.7656 245.18 45.4141C245.633 46.0625 246.27 46.3867 247.09 46.3867ZM267.023 49H257.156V31.8672H267.023V34.8438H260.789V38.6055H266.59V41.582H260.789V46H267.023V49ZM275.73 35.6523C276.941 35.6523 277.984 35.8867 278.859 36.3555C279.734 36.8164 280.41 37.4883 280.887 38.3711C281.363 39.2539 281.602 40.332 281.602 41.6055V43.3398H273.152C273.191 44.3477 273.492 45.1406 274.055 45.7188C274.625 46.2891 275.414 46.5742 276.422 46.5742C277.258 46.5742 278.023 46.4883 278.719 46.3164C279.414 46.1445 280.129 45.8867 280.863 45.543V48.3086C280.215 48.6289 279.535 48.8633 278.824 49.0117C278.121 49.1602 277.266 49.2344 276.258 49.2344C274.945 49.2344 273.781 48.9922 272.766 48.5078C271.758 48.0234 270.965 47.2852 270.387 46.293C269.816 45.3008 269.531 44.0508 269.531 42.543C269.531 41.0117 269.789 39.7383 270.305 38.7227C270.828 37.6992 271.555 36.9336 272.484 36.4258C273.414 35.9102 274.496 35.6523 275.73 35.6523ZM275.754 38.1953C275.059 38.1953 274.48 38.418 274.02 38.8633C273.566 39.3086 273.305 40.0078 273.234 40.9609H278.25C278.242 40.4297 278.145 39.957 277.957 39.543C277.777 39.1289 277.504 38.8008 277.137 38.5586C276.777 38.3164 276.316 38.1953 275.754 38.1953ZM288.363 49H284.789V31.8672H294.609V34.8438H288.363V39.2617H294.176V42.2266H288.363V49ZM304.922 38.582H301.828V49H298.254V38.582H296.285V36.8594L298.254 35.8984V34.9375C298.254 33.8203 298.441 32.9531 298.816 32.3359C299.199 31.7109 299.734 31.2734 300.422 31.0234C301.117 30.7656 301.938 30.6367 302.883 30.6367C303.578 30.6367 304.211 30.6953 304.781 30.8125C305.352 30.9219 305.816 31.0469 306.176 31.1875L305.262 33.8125C304.988 33.7266 304.691 33.6484 304.371 33.5781C304.051 33.5078 303.684 33.4727 303.27 33.4727C302.77 33.4727 302.402 33.625 302.168 33.9297C301.941 34.2266 301.828 34.6094 301.828 35.0781V35.8984H304.922V38.582ZM313.77 39.3789H320.566V48.2617C319.668 48.5586 318.734 48.7969 317.766 48.9766C316.797 49.1484 315.699 49.2344 314.473 49.2344C312.77 49.2344 311.324 48.8984 310.137 48.2266C308.949 47.5547 308.047 46.5625 307.43 45.25C306.812 43.9375 306.504 42.3242 306.504 40.4102C306.504 38.6133 306.848 37.0586 307.535 35.7461C308.23 34.4336 309.242 33.418 310.57 32.6992C311.906 31.9805 313.535 31.6211 315.457 31.6211C316.363 31.6211 317.258 31.7188 318.141 31.9141C319.023 32.1094 319.824 32.3633 320.543 32.6758L319.336 35.582C318.812 35.3164 318.215 35.0938 317.543 34.9141C316.871 34.7344 316.168 34.6445 315.434 34.6445C314.379 34.6445 313.461 34.8867 312.68 35.3711C311.906 35.8555 311.305 36.5352 310.875 37.4102C310.453 38.2773 310.242 39.3008 310.242 40.4805C310.242 41.5977 310.395 42.5898 310.699 43.457C311.004 44.3164 311.484 44.9922 312.141 45.4844C312.797 45.9688 313.652 46.2109 314.707 46.2109C315.223 46.2109 315.656 46.1875 316.008 46.1406C316.367 46.0859 316.703 46.0312 317.016 45.9766V42.4023H313.77V39.3789ZM328.207 54.7656C326.379 54.7656 324.98 54.4453 324.012 53.8047C323.051 53.1719 322.57 52.2812 322.57 51.1328C322.57 50.3438 322.816 49.6836 323.309 49.1523C323.801 48.6211 324.523 48.2422 325.477 48.0156C325.109 47.8594 324.789 47.6055 324.516 47.2539C324.242 46.8945 324.105 46.5156 324.105 46.1172C324.105 45.6172 324.25 45.2031 324.539 44.875C324.828 44.5391 325.246 44.2109 325.793 43.8906C325.105 43.5938 324.559 43.1172 324.152 42.4609C323.754 41.8047 323.555 41.0312 323.555 40.1406C323.555 39.1875 323.762 38.3789 324.176 37.7148C324.598 37.043 325.207 36.5312 326.004 36.1797C326.809 35.8281 327.785 35.6523 328.934 35.6523C329.176 35.6523 329.457 35.668 329.777 35.6992C330.098 35.7305 330.391 35.7656 330.656 35.8047C330.93 35.8438 331.113 35.875 331.207 35.8984H335.777V37.7148L333.727 38.2422C333.914 38.5312 334.055 38.8398 334.148 39.168C334.242 39.4961 334.289 39.8438 334.289 40.2109C334.289 41.6172 333.797 42.7148 332.812 43.5039C331.836 44.2852 330.477 44.6758 328.734 44.6758C328.32 44.6523 327.93 44.6211 327.562 44.582C327.383 44.7227 327.246 44.8711 327.152 45.0273C327.059 45.1836 327.012 45.3477 327.012 45.5195C327.012 45.6914 327.082 45.8359 327.223 45.9531C327.371 46.0625 327.59 46.1484 327.879 46.2109C328.176 46.2656 328.543 46.293 328.98 46.293H331.207C332.645 46.293 333.738 46.6016 334.488 47.2188C335.246 47.8359 335.625 48.7422 335.625 49.9375C335.625 51.4688 334.984 52.6562 333.703 53.5C332.43 54.3438 330.598 54.7656 328.207 54.7656ZM328.359 52.4336C329.211 52.4336 329.941 52.3516 330.551 52.1875C331.168 52.0312 331.641 51.8047 331.969 51.5078C332.297 51.2188 332.461 50.8711 332.461 50.4648C332.461 50.1367 332.363 49.875 332.168 49.6797C331.98 49.4922 331.691 49.3594 331.301 49.2812C330.918 49.2031 330.426 49.1641 329.824 49.1641H327.973C327.535 49.1641 327.141 49.2344 326.789 49.375C326.445 49.5156 326.172 49.7109 325.969 49.9609C325.766 50.2188 325.664 50.5156 325.664 50.8516C325.664 51.3438 325.898 51.7305 326.367 52.0117C326.844 52.293 327.508 52.4336 328.359 52.4336ZM328.934 42.4961C329.605 42.4961 330.098 42.2891 330.41 41.875C330.723 41.4609 330.879 40.8984 330.879 40.1875C330.879 39.3984 330.715 38.8086 330.387 38.418C330.066 38.0195 329.582 37.8203 328.934 37.8203C328.277 37.8203 327.785 38.0195 327.457 38.418C327.129 38.8086 326.965 39.3984 326.965 40.1875C326.965 40.8984 327.125 41.4609 327.445 41.875C327.773 42.2891 328.27 42.4961 328.934 42.4961ZM141.914 81H138.293V71.0859C138.293 70.8125 138.297 70.4766 138.305 70.0781C138.312 69.6719 138.324 69.2578 138.34 68.8359C138.355 68.4062 138.371 68.0195 138.387 67.6758C138.301 67.7773 138.125 67.9531 137.859 68.2031C137.602 68.4453 137.359 68.6641 137.133 68.8594L135.164 70.4414L133.418 68.2617L138.938 63.8672H141.914V81ZM158.672 81H146.695V78.4805L150.996 74.1328C151.863 73.2422 152.559 72.5 153.082 71.9062C153.613 71.3047 153.996 70.7578 154.23 70.2656C154.473 69.7734 154.594 69.2461 154.594 68.6836C154.594 68.0039 154.402 67.4961 154.02 67.1602C153.645 66.8164 153.141 66.6445 152.508 66.6445C151.844 66.6445 151.199 66.7969 150.574 67.1016C149.949 67.4062 149.297 67.8398 148.617 68.4023L146.648 66.0703C147.141 65.6484 147.66 65.25 148.207 64.875C148.762 64.5 149.402 64.1992 150.129 63.9727C150.863 63.7383 151.742 63.6211 152.766 63.6211C153.891 63.6211 154.855 63.8242 155.66 64.2305C156.473 64.6367 157.098 65.1914 157.535 65.8945C157.973 66.5898 158.191 67.3789 158.191 68.2617C158.191 69.207 158.004 70.0703 157.629 70.8516C157.254 71.6328 156.707 72.4062 155.988 73.1719C155.277 73.9375 154.418 74.7852 153.41 75.7148L151.207 77.7891V77.9531H158.672V81ZM171.738 67.6992C171.738 68.4883 171.574 69.1719 171.246 69.75C170.918 70.3281 170.473 70.8008 169.91 71.168C169.355 71.5352 168.73 71.8047 168.035 71.9766V72.0469C169.41 72.2188 170.453 72.6406 171.164 73.3125C171.883 73.9844 172.242 74.8828 172.242 76.0078C172.242 77.0078 171.996 77.9023 171.504 78.6914C171.02 79.4805 170.27 80.1016 169.254 80.5547C168.238 81.0078 166.93 81.2344 165.328 81.2344C164.383 81.2344 163.5 81.1562 162.68 81C161.867 80.8516 161.102 80.6211 160.383 80.3086V77.2266C161.117 77.6016 161.887 77.8867 162.691 78.082C163.496 78.2695 164.246 78.3633 164.941 78.3633C166.238 78.3633 167.145 78.1406 167.66 77.6953C168.184 77.2422 168.445 76.6094 168.445 75.7969C168.445 75.3203 168.324 74.918 168.082 74.5898C167.84 74.2617 167.418 74.0117 166.816 73.8398C166.223 73.668 165.391 73.582 164.32 73.582H163.02V70.8047H164.344C165.398 70.8047 166.199 70.707 166.746 70.5117C167.301 70.3086 167.676 70.0352 167.871 69.6914C168.074 69.3398 168.176 68.9414 168.176 68.4961C168.176 67.8867 167.988 67.4102 167.613 67.0664C167.238 66.7227 166.613 66.5508 165.738 66.5508C165.191 66.5508 164.691 66.6211 164.238 66.7617C163.793 66.8945 163.391 67.0586 163.031 67.2539C162.672 67.4414 162.355 67.625 162.082 67.8047L160.406 65.3086C161.078 64.8242 161.863 64.4219 162.762 64.1016C163.668 63.7812 164.746 63.6211 165.996 63.6211C167.762 63.6211 169.16 63.9766 170.191 64.6875C171.223 65.3984 171.738 66.4023 171.738 67.6992ZM186.527 77.4492H184.465V81H180.926V77.4492H173.613V74.9297L181.125 63.8672H184.465V74.6367H186.527V77.4492ZM180.926 74.6367V71.7305C180.926 71.457 180.93 71.1328 180.938 70.7578C180.953 70.3828 180.969 70.0078 180.984 69.6328C181 69.2578 181.016 68.9258 181.031 68.6367C181.055 68.3398 181.07 68.1328 181.078 68.0156H180.984C180.836 68.3359 180.68 68.6484 180.516 68.9531C180.352 69.25 180.16 69.5625 179.941 69.8906L176.801 74.6367H180.926ZM194.133 70.0547C195.18 70.0547 196.109 70.2539 196.922 70.6523C197.742 71.0508 198.387 71.6367 198.855 72.4102C199.324 73.1836 199.559 74.1367 199.559 75.2695C199.559 76.5039 199.301 77.5703 198.785 78.4688C198.277 79.3594 197.516 80.043 196.5 80.5195C195.492 80.9961 194.234 81.2344 192.727 81.2344C191.828 81.2344 190.98 81.1562 190.184 81C189.395 80.8516 188.703 80.6211 188.109 80.3086V77.1797C188.703 77.4922 189.414 77.7578 190.242 77.9766C191.078 78.1875 191.863 78.293 192.598 78.293C193.316 78.293 193.922 78.1992 194.414 78.0117C194.906 77.8164 195.277 77.5195 195.527 77.1211C195.785 76.7148 195.914 76.1992 195.914 75.5742C195.914 74.7383 195.633 74.0977 195.07 73.6523C194.508 73.207 193.645 72.9844 192.48 72.9844C192.035 72.9844 191.57 73.0273 191.086 73.1133C190.609 73.1992 190.211 73.2852 189.891 73.3711L188.449 72.5977L189.094 63.8672H198.387V66.9375H192.27L191.953 70.3008C192.219 70.2461 192.508 70.1914 192.82 70.1367C193.133 70.082 193.57 70.0547 194.133 70.0547ZM201.516 73.7227C201.516 72.7383 201.586 71.7656 201.727 70.8047C201.875 69.8359 202.129 68.9258 202.488 68.0742C202.848 67.2148 203.352 66.457 204 65.8008C204.648 65.1367 205.473 64.6172 206.473 64.2422C207.473 63.8594 208.684 63.668 210.105 63.668C210.441 63.668 210.832 63.6836 211.277 63.7148C211.73 63.7383 212.105 63.7812 212.402 63.8438V66.7383C212.09 66.668 211.754 66.6133 211.395 66.5742C211.043 66.5273 210.691 66.5039 210.34 66.5039C208.918 66.5039 207.816 66.7305 207.035 67.1836C206.262 67.6367 205.715 68.2656 205.395 69.0703C205.082 69.8672 204.898 70.7969 204.844 71.8594H204.996C205.215 71.4766 205.488 71.1367 205.816 70.8398C206.152 70.543 206.559 70.3086 207.035 70.1367C207.512 69.957 208.07 69.8672 208.711 69.8672C209.711 69.8672 210.578 70.082 211.312 70.5117C212.047 70.9336 212.613 71.5469 213.012 72.3516C213.41 73.1562 213.609 74.1367 213.609 75.293C213.609 76.5273 213.371 77.5898 212.895 78.4805C212.418 79.3711 211.742 80.0547 210.867 80.5312C210 81 208.969 81.2344 207.773 81.2344C206.898 81.2344 206.082 81.0859 205.324 80.7891C204.566 80.4844 203.902 80.0234 203.332 79.4062C202.762 78.7891 202.316 78.0117 201.996 77.0742C201.676 76.1289 201.516 75.0117 201.516 73.7227ZM207.703 78.3398C208.414 78.3398 208.992 78.0977 209.438 77.6133C209.883 77.1289 210.105 76.3711 210.105 75.3398C210.105 74.5039 209.91 73.8477 209.52 73.3711C209.137 72.8867 208.555 72.6445 207.773 72.6445C207.242 72.6445 206.773 72.7656 206.367 73.0078C205.969 73.2422 205.66 73.543 205.441 73.9102C205.223 74.2695 205.113 74.6406 205.113 75.0234C205.113 75.4219 205.168 75.8164 205.277 76.207C205.387 76.5977 205.551 76.9531 205.77 77.2734C205.988 77.5938 206.258 77.8516 206.578 78.0469C206.906 78.2422 207.281 78.3398 207.703 78.3398ZM217.066 81L223.5 66.9141H215.051V63.8672H227.344V66.1406L220.863 81H217.066ZM235.008 63.6445C235.992 63.6445 236.898 63.7969 237.727 64.1016C238.562 64.4062 239.23 64.8672 239.73 65.4844C240.23 66.0938 240.48 66.8594 240.48 67.7812C240.48 68.4688 240.344 69.0703 240.07 69.5859C239.805 70.1016 239.441 70.5547 238.98 70.9453C238.52 71.3281 237.996 71.6641 237.41 71.9531C238.02 72.2734 238.598 72.6484 239.145 73.0781C239.691 73.5 240.137 73.9961 240.48 74.5664C240.832 75.1367 241.008 75.8008 241.008 76.5586C241.008 77.5117 240.754 78.3398 240.246 79.043C239.738 79.7383 239.035 80.2773 238.137 80.6602C237.238 81.043 236.195 81.2344 235.008 81.2344C233.727 81.2344 232.637 81.0508 231.738 80.6836C230.84 80.3164 230.156 79.793 229.688 79.1133C229.219 78.4258 228.984 77.6055 228.984 76.6523C228.984 75.8711 229.129 75.1914 229.418 74.6133C229.715 74.0352 230.113 73.5391 230.613 73.125C231.113 72.7031 231.664 72.3438 232.266 72.0469C231.758 71.7266 231.293 71.3633 230.871 70.957C230.457 70.5508 230.125 70.0859 229.875 69.5625C229.633 69.0391 229.512 68.4375 229.512 67.7578C229.512 66.8516 229.766 66.0938 230.273 65.4844C230.789 64.875 231.465 64.418 232.301 64.1133C233.137 63.8008 234.039 63.6445 235.008 63.6445ZM232.336 76.4414C232.336 77.0586 232.555 77.5703 232.992 77.9766C233.438 78.375 234.094 78.5742 234.961 78.5742C235.859 78.5742 236.531 78.3828 236.977 78C237.422 77.6094 237.645 77.0977 237.645 76.4648C237.645 76.0273 237.516 75.6445 237.258 75.3164C237.008 74.9883 236.691 74.6953 236.309 74.4375C235.926 74.1719 235.539 73.9258 235.148 73.6992L234.832 73.5352C234.332 73.7617 233.895 74.0156 233.52 74.2969C233.152 74.5781 232.863 74.8945 232.652 75.2461C232.441 75.5977 232.336 75.9961 232.336 76.4414ZM234.984 66.293C234.391 66.293 233.898 66.4453 233.508 66.75C233.117 67.0547 232.922 67.4844 232.922 68.0391C232.922 68.4297 233.016 68.7734 233.203 69.0703C233.398 69.3594 233.652 69.6133 233.965 69.832C234.285 70.0508 234.633 70.2539 235.008 70.4414C235.367 70.2695 235.703 70.0781 236.016 69.8672C236.328 69.6562 236.582 69.4023 236.777 69.1055C236.973 68.8086 237.07 68.4531 237.07 68.0391C237.07 67.4844 236.871 67.0547 236.473 66.75C236.082 66.4453 235.586 66.293 234.984 66.293ZM246.75 75.3164H243.891L243.293 63.8672H247.348L246.75 75.3164ZM243.246 79.3242C243.246 78.5898 243.445 78.0742 243.844 77.7773C244.25 77.4805 244.738 77.332 245.309 77.332C245.863 77.332 246.34 77.4805 246.738 77.7773C247.145 78.0742 247.348 78.5898 247.348 79.3242C247.348 80.0273 247.145 80.5352 246.738 80.8477C246.34 81.1602 245.863 81.3164 245.309 81.3164C244.738 81.3164 244.25 81.1602 243.844 80.8477C243.445 80.5352 243.246 80.0273 243.246 79.3242ZM251.977 75.3164V74.4492C251.977 73.918 252.051 73.4492 252.199 73.043C252.348 72.6289 252.586 72.2383 252.914 71.8711C253.242 71.4961 253.676 71.1133 254.215 70.7227C254.699 70.3789 255.086 70.0703 255.375 69.7969C255.672 69.5234 255.887 69.2539 256.02 68.9883C256.16 68.7148 256.23 68.4062 256.23 68.0625C256.23 67.5547 256.043 67.168 255.668 66.9023C255.293 66.6367 254.77 66.5039 254.098 66.5039C253.426 66.5039 252.758 66.6094 252.094 66.8203C251.438 67.0312 250.77 67.3086 250.09 67.6523L248.812 65.0859C249.594 64.6484 250.441 64.2969 251.355 64.0312C252.27 63.7578 253.27 63.6211 254.355 63.6211C256.027 63.6211 257.32 64.0234 258.234 64.8281C259.156 65.625 259.617 66.6406 259.617 67.875C259.617 68.5312 259.512 69.1016 259.301 69.5859C259.098 70.0625 258.785 70.5078 258.363 70.9219C257.949 71.3281 257.43 71.7578 256.805 72.2109C256.336 72.5547 255.977 72.8438 255.727 73.0781C255.477 73.3125 255.305 73.5469 255.211 73.7812C255.125 74.0078 255.082 74.2852 255.082 74.6133V75.3164H251.977ZM251.602 79.3242C251.602 78.5898 251.801 78.0742 252.199 77.7773C252.605 77.4805 253.094 77.332 253.664 77.332C254.219 77.332 254.695 77.4805 255.094 77.7773C255.5 78.0742 255.703 78.5898 255.703 79.3242C255.703 80.0273 255.5 80.5352 255.094 80.8477C254.695 81.1602 254.219 81.3164 253.664 81.3164C253.094 81.3164 252.605 81.1602 252.199 80.8477C251.801 80.5352 251.602 80.0273 251.602 79.3242ZM261.164 74.4258C261.164 73.1211 261.289 71.8477 261.539 70.6055C261.789 69.3555 262.176 68.1641 262.699 67.0312C263.223 65.8906 263.887 64.8359 264.691 63.8672H267.621C266.527 65.3672 265.695 67.0234 265.125 68.8359C264.562 70.6484 264.281 72.5039 264.281 74.4023C264.281 75.6367 264.406 76.8672 264.656 78.0938C264.906 79.3125 265.277 80.4883 265.77 81.6211C266.27 82.7539 266.879 83.8125 267.598 84.7969H264.691C263.887 83.8594 263.223 82.832 262.699 81.7148C262.176 80.6055 261.789 79.4375 261.539 78.2109C261.289 76.9766 261.164 75.7148 261.164 74.4258ZM275.508 74.4258C275.508 75.7148 275.383 76.9766 275.133 78.2109C274.883 79.4375 274.496 80.6055 273.973 81.7148C273.457 82.832 272.793 83.8594 271.98 84.7969H269.074C269.801 83.8125 270.41 82.7539 270.902 81.6211C271.395 80.4883 271.766 79.3125 272.016 78.0938C272.266 76.8672 272.391 75.6367 272.391 74.4023C272.391 73.1367 272.262 71.8867 272.004 70.6523C271.754 69.418 271.383 68.2305 270.891 67.0898C270.398 65.9414 269.785 64.8672 269.051 63.8672H271.98C272.793 64.8359 273.457 65.8906 273.973 67.0312C274.496 68.1641 274.883 69.3555 275.133 70.6055C275.383 71.8477 275.508 73.1211 275.508 74.4258Z" fill="#161616"/>
<path d="M533.441 38H532.279V33.29H527.029V38H525.867V28.0059H527.029V32.2646H532.279V28.0059H533.441V38ZM541.692 30.3369C541.692 30.7835 541.606 31.1709 541.433 31.499C541.259 31.8271 541.018 32.096 540.708 32.3057C540.398 32.5107 540.034 32.6543 539.614 32.7363V32.791C540.407 32.8913 541.002 33.1465 541.398 33.5566C541.799 33.9668 542 34.5046 542 35.1699C542 35.7487 541.863 36.2614 541.59 36.708C541.321 37.1546 540.906 37.5055 540.346 37.7607C539.79 38.0114 539.076 38.1367 538.206 38.1367C537.677 38.1367 537.188 38.0934 536.736 38.0068C536.29 37.9248 535.861 37.7858 535.451 37.5898V36.5234C535.866 36.7285 536.317 36.8903 536.805 37.0088C537.292 37.1227 537.764 37.1797 538.22 37.1797C539.131 37.1797 539.79 36.9997 540.195 36.6396C540.601 36.2751 540.804 35.7783 540.804 35.1494C540.804 34.7165 540.69 34.3678 540.462 34.1035C540.239 33.8346 539.915 33.6387 539.491 33.5156C539.072 33.388 538.566 33.3242 537.974 33.3242H536.976V32.3535H537.98C538.523 32.3535 538.983 32.2738 539.361 32.1143C539.74 31.9548 540.027 31.7314 540.223 31.4443C540.423 31.1527 540.523 30.8086 540.523 30.4121C540.523 29.9062 540.355 29.5166 540.018 29.2432C539.68 28.9652 539.222 28.8262 538.644 28.8262C538.288 28.8262 537.965 28.8626 537.673 28.9355C537.381 29.0085 537.108 29.1087 536.853 29.2363C536.597 29.3639 536.342 29.512 536.087 29.6807L535.513 28.9014C535.877 28.6188 536.322 28.375 536.846 28.1699C537.37 27.9648 537.965 27.8623 538.63 27.8623C539.651 27.8623 540.416 28.0947 540.927 28.5596C541.437 29.0244 541.692 29.6169 541.692 30.3369Z" fill="#61656E"/>
<path d="M640.006 38L639.028 35.2246H635.207L634.229 38H632.5L636.219 27.9648H638.037L641.749 38H640.006ZM638.604 33.8164L637.654 31.082C637.618 30.9635 637.565 30.7972 637.497 30.583C637.429 30.3643 637.36 30.1432 637.292 29.9199C637.224 29.6921 637.167 29.5007 637.121 29.3457C637.076 29.5326 637.019 29.7422 636.95 29.9746C636.886 30.2025 636.823 30.4167 636.759 30.6172C636.7 30.8177 636.654 30.9727 636.622 31.082L635.665 33.8164H638.604ZM645.871 30.2891C646.828 30.2891 647.55 30.501 648.038 30.9248C648.53 31.3486 648.776 32.0094 648.776 32.9072V38H647.635L647.327 36.9268H647.272C647.058 37.2002 646.837 37.4258 646.609 37.6035C646.382 37.7812 646.117 37.9134 645.816 38C645.52 38.0911 645.158 38.1367 644.729 38.1367C644.278 38.1367 643.875 38.0547 643.52 37.8906C643.164 37.722 642.884 37.4668 642.679 37.125C642.474 36.7832 642.371 36.3503 642.371 35.8262C642.371 35.0469 642.66 34.4613 643.239 34.0693C643.823 33.6774 644.702 33.4609 645.878 33.4199L647.19 33.3721V32.9756C647.19 32.4515 647.067 32.0778 646.821 31.8545C646.58 31.6312 646.238 31.5195 645.796 31.5195C645.418 31.5195 645.051 31.5742 644.695 31.6836C644.34 31.793 643.993 31.9274 643.656 32.0869L643.137 30.9521C643.506 30.7562 643.925 30.5967 644.395 30.4736C644.868 30.3506 645.361 30.2891 645.871 30.2891ZM647.184 34.3838L646.206 34.418C645.404 34.4453 644.841 34.582 644.518 34.8281C644.194 35.0742 644.032 35.4115 644.032 35.8398C644.032 36.2135 644.144 36.487 644.367 36.6602C644.59 36.8288 644.884 36.9131 645.249 36.9131C645.805 36.9131 646.265 36.7559 646.63 36.4414C646.999 36.1224 647.184 35.6553 647.184 35.04V34.3838ZM651.189 28.0059H654.163C655.453 28.0059 656.426 28.1927 657.082 28.5664C657.738 28.9401 658.066 29.585 658.066 30.501C658.066 30.8838 657.998 31.2301 657.861 31.54C657.729 31.8454 657.535 32.0983 657.28 32.2988C657.025 32.4948 656.711 32.627 656.337 32.6953V32.7637C656.724 32.832 657.068 32.9528 657.369 33.126C657.674 33.2992 657.914 33.5475 658.087 33.8711C658.265 34.1947 658.354 34.6139 658.354 35.1289C658.354 35.7396 658.208 36.2591 657.916 36.6875C657.629 37.1159 657.216 37.4417 656.679 37.665C656.146 37.8883 655.512 38 654.778 38H651.189V28.0059ZM652.83 32.1279H654.402C655.145 32.1279 655.66 32.0072 655.947 31.7656C656.234 31.5241 656.378 31.1709 656.378 30.7061C656.378 30.2321 656.207 29.8903 655.865 29.6807C655.528 29.471 654.99 29.3662 654.252 29.3662H652.83V32.1279ZM652.83 33.4541V36.626H654.56C655.325 36.626 655.863 36.4779 656.173 36.1816C656.483 35.8854 656.638 35.4844 656.638 34.9785C656.638 34.6686 656.567 34.3997 656.426 34.1719C656.289 33.944 656.063 33.7686 655.749 33.6455C655.435 33.5179 655.011 33.4541 654.478 33.4541H652.83ZM661.86 27.3633V29.9268C661.86 30.223 661.851 30.5146 661.833 30.8018C661.819 31.0843 661.806 31.3053 661.792 31.4648H661.86C662.065 31.1367 662.35 30.861 662.715 30.6377C663.084 30.4098 663.556 30.2959 664.13 30.2959C665.028 30.2959 665.75 30.6263 666.297 31.2871C666.844 31.9434 667.117 32.9163 667.117 34.2061C667.117 35.0628 666.992 35.7829 666.741 36.3662C666.491 36.9495 666.137 37.3916 665.682 37.6924C665.23 37.9886 664.7 38.1367 664.089 38.1367C663.515 38.1367 663.05 38.0319 662.694 37.8223C662.343 37.6081 662.068 37.3597 661.867 37.0771H661.751L661.457 38H660.254V27.3633H661.86ZM663.706 31.6016C663.25 31.6016 662.888 31.6927 662.619 31.875C662.355 32.0573 662.163 32.3307 662.045 32.6953C661.926 33.0553 661.865 33.5133 661.86 34.0693V34.2129C661.86 35.056 661.993 35.7008 662.257 36.1475C662.526 36.5941 663.013 36.8174 663.72 36.8174C664.28 36.8174 664.711 36.5918 665.012 36.1406C665.312 35.6849 665.463 35.0332 665.463 34.1855C665.463 33.3288 665.312 32.6839 665.012 32.251C664.715 31.818 664.28 31.6016 663.706 31.6016ZM673.399 29.2568C672.921 29.2568 672.493 29.3434 672.114 29.5166C671.741 29.6898 671.424 29.9404 671.164 30.2686C670.904 30.5921 670.706 30.9863 670.569 31.4512C670.433 31.9115 670.364 32.431 670.364 33.0098C670.364 33.7845 670.474 34.4521 670.692 35.0127C670.911 35.5687 671.244 35.9971 671.69 36.2979C672.137 36.5941 672.702 36.7422 673.386 36.7422C673.81 36.7422 674.222 36.7012 674.623 36.6191C675.024 36.5371 675.439 36.4255 675.867 36.2842V37.6787C675.462 37.8382 675.051 37.9544 674.637 38.0273C674.222 38.1003 673.743 38.1367 673.201 38.1367C672.18 38.1367 671.333 37.9248 670.658 37.501C669.988 37.0771 669.487 36.4801 669.154 35.71C668.826 34.9398 668.662 34.0374 668.662 33.0029C668.662 32.2464 668.767 31.5537 668.977 30.9248C669.186 30.2959 669.492 29.7536 669.893 29.2979C670.294 28.8376 670.788 28.4844 671.376 28.2383C671.968 27.9876 672.645 27.8623 673.406 27.8623C673.908 27.8623 674.4 27.9193 674.883 28.0332C675.37 28.1426 675.822 28.2998 676.236 28.5049L675.662 29.8584C675.316 29.6943 674.953 29.5531 674.575 29.4346C674.197 29.3161 673.805 29.2568 673.399 29.2568ZM680.898 38.1367C680.183 38.1367 679.563 37.9977 679.039 37.7197C678.515 37.4417 678.112 37.0156 677.829 36.4414C677.547 35.8672 677.405 35.138 677.405 34.2539C677.405 33.3333 677.56 32.5814 677.87 31.998C678.18 31.4147 678.608 30.984 679.155 30.7061C679.707 30.4281 680.338 30.2891 681.049 30.2891C681.5 30.2891 681.908 30.3346 682.272 30.4258C682.642 30.5124 682.954 30.6195 683.209 30.7471L682.73 32.0322C682.452 31.9183 682.168 31.8226 681.876 31.7451C681.584 31.6676 681.304 31.6289 681.035 31.6289C680.593 31.6289 680.224 31.7269 679.928 31.9229C679.636 32.1188 679.417 32.4105 679.271 32.7979C679.13 33.1852 679.06 33.666 679.06 34.2402C679.06 34.7962 679.132 35.2656 679.278 35.6484C679.424 36.0267 679.641 36.3138 679.928 36.5098C680.215 36.7012 680.568 36.7969 680.987 36.7969C681.402 36.7969 681.773 36.7467 682.102 36.6465C682.43 36.5462 682.74 36.4163 683.031 36.2568V37.6514C682.744 37.8154 682.437 37.9362 682.108 38.0137C681.78 38.0957 681.377 38.1367 680.898 38.1367ZM693.087 32.9072C693.087 34.0329 692.877 34.974 692.458 35.7305C692.039 36.4824 691.43 37.0498 690.633 37.4326C689.835 37.8109 688.874 38 687.748 38H684.973V28.0059H688.049C689.083 28.0059 689.977 28.1927 690.729 28.5664C691.48 28.9355 692.062 29.4847 692.472 30.2139C692.882 30.9385 693.087 31.8363 693.087 32.9072ZM691.378 32.9551C691.378 32.1348 691.248 31.4603 690.988 30.9316C690.733 30.403 690.355 30.0111 689.854 29.7559C689.357 29.4961 688.744 29.3662 688.015 29.3662H686.613V36.626H687.775C688.983 36.626 689.885 36.3184 690.482 35.7031C691.079 35.0879 691.378 34.1719 691.378 32.9551ZM697.619 38.1367C696.717 38.1367 695.992 37.8086 695.445 37.1523C694.903 36.4915 694.632 35.5186 694.632 34.2334C694.632 32.9346 694.908 31.9525 695.459 31.2871C696.015 30.6217 696.746 30.2891 697.653 30.2891C698.036 30.2891 698.371 30.3415 698.658 30.4463C698.945 30.5465 699.191 30.6833 699.396 30.8564C699.606 31.0296 699.784 31.2233 699.93 31.4375H700.005C699.982 31.2962 699.955 31.0934 699.923 30.8291C699.896 30.5602 699.882 30.3118 699.882 30.084V27.3633H701.495V38H700.237L699.95 36.9678H699.882C699.745 37.1865 699.572 37.3848 699.362 37.5625C699.157 37.7357 698.911 37.8747 698.624 37.9795C698.341 38.0843 698.007 38.1367 697.619 38.1367ZM698.07 36.8311C698.758 36.8311 699.244 36.6328 699.526 36.2363C699.809 35.8398 699.955 35.2451 699.964 34.4521V34.2402C699.964 33.3926 699.827 32.7432 699.554 32.292C699.28 31.8363 698.781 31.6084 698.057 31.6084C697.478 31.6084 697.036 31.8431 696.73 32.3125C696.43 32.7773 696.279 33.4268 696.279 34.2607C696.279 35.0947 696.43 35.7327 696.73 36.1748C697.036 36.6123 697.482 36.8311 698.07 36.8311ZM709.623 38H703.963V28.0059H709.623V29.3867H705.604V32.1006H709.37V33.4746H705.604V36.6123H709.623V38ZM714.634 30.2891C715.308 30.2891 715.887 30.4281 716.37 30.7061C716.853 30.984 717.225 31.3783 717.484 31.8887C717.744 32.3991 717.874 33.0098 717.874 33.7207V34.582H712.822C712.84 35.3158 713.036 35.8809 713.41 36.2773C713.788 36.6738 714.317 36.8721 714.996 36.8721C715.479 36.8721 715.912 36.8265 716.295 36.7354C716.682 36.6396 717.081 36.5007 717.491 36.3184V37.624C717.113 37.8018 716.728 37.9316 716.336 38.0137C715.944 38.0957 715.475 38.1367 714.928 38.1367C714.185 38.1367 713.531 37.9932 712.966 37.7061C712.405 37.4144 711.965 36.9814 711.646 36.4072C711.332 35.833 711.175 35.1198 711.175 34.2676C711.175 33.4199 711.318 32.6999 711.605 32.1074C711.893 31.515 712.296 31.0638 712.815 30.7539C713.335 30.444 713.941 30.2891 714.634 30.2891ZM714.634 31.499C714.128 31.499 713.718 31.6631 713.403 31.9912C713.093 32.3193 712.911 32.8001 712.856 33.4336H716.302C716.297 33.0553 716.233 32.7204 716.11 32.4287C715.992 32.137 715.81 31.9092 715.563 31.7451C715.322 31.5811 715.012 31.499 714.634 31.499ZM721.477 38H719.85V28.0059H725.496V29.3867H721.477V32.5039H725.236V33.8779H721.477V38ZM730.931 31.6562H729.092V38H727.485V31.6562H726.248V30.8838L727.485 30.4121V29.8857C727.485 29.2432 727.586 28.7327 727.786 28.3545C727.991 27.9762 728.283 27.7051 728.661 27.541C729.044 27.3724 729.5 27.2881 730.028 27.2881C730.375 27.2881 730.691 27.3177 730.979 27.377C731.266 27.4316 731.507 27.4954 731.703 27.5684L731.286 28.7852C731.131 28.735 730.958 28.6895 730.767 28.6484C730.575 28.6029 730.37 28.5801 730.151 28.5801C729.787 28.5801 729.518 28.694 729.345 28.9219C729.176 29.1497 729.092 29.4824 729.092 29.9199V30.4326H730.931V31.6562ZM736.42 32.5723H740.152V37.5898C739.628 37.763 739.086 37.8975 738.525 37.9932C737.965 38.0889 737.336 38.1367 736.639 38.1367C735.622 38.1367 734.761 37.9362 734.055 37.5352C733.353 37.1296 732.82 36.5439 732.455 35.7783C732.09 35.0081 731.908 34.0807 731.908 32.9961C731.908 31.9525 732.111 31.0479 732.517 30.2822C732.922 29.512 733.512 28.9173 734.287 28.498C735.062 28.0742 736.001 27.8623 737.104 27.8623C737.646 27.8623 738.17 27.917 738.676 28.0264C739.186 28.1312 739.653 28.277 740.077 28.4639L739.503 29.8174C739.166 29.6579 738.787 29.5234 738.368 29.4141C737.949 29.3047 737.514 29.25 737.062 29.25C736.347 29.25 735.729 29.4049 735.21 29.7148C734.695 30.0247 734.299 30.4622 734.021 31.0273C733.743 31.5879 733.604 32.251 733.604 33.0166C733.604 33.7594 733.715 34.4111 733.938 34.9717C734.162 35.5322 734.51 35.9697 734.984 36.2842C735.463 36.5941 736.08 36.749 736.837 36.749C737.215 36.749 737.536 36.7285 737.801 36.6875C738.065 36.6465 738.309 36.6009 738.532 36.5508V33.9736H736.42V32.5723ZM744.541 41.3633C743.516 41.3633 742.729 41.1787 742.183 40.8096C741.636 40.4404 741.362 39.9232 741.362 39.2578C741.362 38.793 741.508 38.3988 741.8 38.0752C742.091 37.7562 742.508 37.5352 743.051 37.4121C742.846 37.321 742.668 37.1797 742.518 36.9883C742.372 36.7923 742.299 36.5758 742.299 36.3389C742.299 36.0563 742.379 35.8148 742.538 35.6143C742.698 35.4137 742.937 35.2201 743.256 35.0332C742.859 34.8646 742.54 34.5911 742.299 34.2129C742.062 33.8301 741.943 33.3812 741.943 32.8662C741.943 32.3193 742.06 31.8545 742.292 31.4717C742.524 31.0843 742.864 30.7904 743.311 30.5898C743.757 30.3848 744.297 30.2822 744.931 30.2822C745.067 30.2822 745.215 30.2913 745.375 30.3096C745.539 30.3232 745.689 30.3415 745.826 30.3643C745.967 30.3825 746.075 30.403 746.147 30.4258H748.766V31.3213L747.48 31.5605C747.604 31.7337 747.701 31.932 747.774 32.1553C747.847 32.374 747.884 32.6133 747.884 32.873C747.884 33.6569 747.613 34.2744 747.07 34.7256C746.533 35.1722 745.79 35.3955 744.842 35.3955C744.614 35.3864 744.393 35.3682 744.179 35.3408C744.015 35.4411 743.889 35.5527 743.803 35.6758C743.716 35.7943 743.673 35.9287 743.673 36.0791C743.673 36.2021 743.716 36.3024 743.803 36.3799C743.889 36.4528 744.017 36.5075 744.186 36.5439C744.359 36.5804 744.568 36.5986 744.814 36.5986H746.12C746.95 36.5986 747.583 36.7741 748.021 37.125C748.458 37.4759 748.677 37.9909 748.677 38.6699C748.677 39.5312 748.321 40.1943 747.61 40.6592C746.899 41.1286 745.876 41.3633 744.541 41.3633ZM744.603 40.2354C745.163 40.2354 745.635 40.1807 746.018 40.0713C746.4 39.9619 746.69 39.8047 746.886 39.5996C747.082 39.3991 747.18 39.1598 747.18 38.8818C747.18 38.6357 747.118 38.4466 746.995 38.3145C746.872 38.1823 746.688 38.0911 746.441 38.041C746.195 37.9909 745.89 37.9658 745.525 37.9658H744.336C744.04 37.9658 743.778 38.0114 743.55 38.1025C743.322 38.1982 743.144 38.335 743.017 38.5127C742.894 38.6904 742.832 38.9046 742.832 39.1553C742.832 39.5016 742.985 39.7682 743.29 39.9551C743.6 40.1419 744.037 40.2354 744.603 40.2354ZM744.917 34.3428C745.386 34.3428 745.735 34.2152 745.963 33.96C746.191 33.7002 746.305 33.3356 746.305 32.8662C746.305 32.3558 746.186 31.973 745.949 31.7178C745.717 31.4626 745.37 31.335 744.91 31.335C744.459 31.335 744.115 31.4648 743.878 31.7246C743.646 31.9844 743.529 32.3695 743.529 32.8799C743.529 33.3402 743.646 33.7002 743.878 33.96C744.115 34.2152 744.461 34.3428 744.917 34.3428ZM637.853 56H636.239V49.5674C636.239 49.3532 636.242 49.139 636.246 48.9248C636.251 48.7106 636.255 48.501 636.26 48.2959C636.269 48.0908 636.28 47.8949 636.294 47.708C636.198 47.8128 636.08 47.9268 635.938 48.0498C635.802 48.1729 635.656 48.3005 635.501 48.4326L634.353 49.3486L633.546 48.3301L636.513 46.0059H637.853V56ZM647.908 56H641.141V54.79L643.731 52.165C644.233 51.6546 644.645 51.2148 644.969 50.8457C645.292 50.472 645.532 50.1188 645.687 49.7861C645.846 49.4535 645.926 49.0911 645.926 48.6992C645.926 48.2161 645.787 47.8516 645.509 47.6055C645.231 47.3548 644.864 47.2295 644.408 47.2295C643.975 47.2295 643.574 47.3161 643.205 47.4893C642.84 47.6579 642.462 47.8994 642.07 48.2139L641.188 47.1543C641.466 46.9173 641.763 46.7008 642.077 46.5049C642.396 46.3089 642.752 46.154 643.144 46.04C643.535 45.9215 643.982 45.8623 644.483 45.8623C645.117 45.8623 645.664 45.9762 646.124 46.2041C646.584 46.4274 646.938 46.7396 647.184 47.1406C647.434 47.5417 647.56 48.0088 647.56 48.542C647.56 49.0798 647.452 49.5765 647.238 50.0322C647.024 50.488 646.719 50.9391 646.322 51.3857C645.926 51.8278 645.454 52.3086 644.907 52.8281L643.178 54.5166V54.5918H647.908V56ZM655.537 48.2891C655.537 48.7402 655.446 49.1322 655.264 49.4648C655.081 49.7975 654.831 50.071 654.512 50.2852C654.197 50.4948 653.833 50.6452 653.418 50.7363V50.7842C654.215 50.8844 654.817 51.1351 655.223 51.5361C655.633 51.9372 655.838 52.4681 655.838 53.1289C655.838 53.7077 655.699 54.2249 655.421 54.6807C655.143 55.1318 654.717 55.4873 654.143 55.7471C653.568 56.0068 652.83 56.1367 651.928 56.1367C651.385 56.1367 650.882 56.0934 650.417 56.0068C649.957 55.9202 649.519 55.7812 649.104 55.5898V54.1611C649.528 54.3708 649.979 54.5326 650.458 54.6465C650.937 54.7604 651.39 54.8174 651.818 54.8174C652.652 54.8174 653.247 54.6624 653.603 54.3525C653.958 54.0381 654.136 53.6051 654.136 53.0537C654.136 52.6982 654.042 52.4066 653.855 52.1787C653.673 51.9508 653.388 51.7799 653.001 51.666C652.618 51.5521 652.124 51.4951 651.518 51.4951H650.636V50.2031H651.524C652.103 50.2031 652.568 50.1348 652.919 49.998C653.27 49.8568 653.523 49.6631 653.678 49.417C653.837 49.1709 653.917 48.8838 653.917 48.5557C653.917 48.1273 653.778 47.7946 653.5 47.5576C653.222 47.3161 652.81 47.1953 652.263 47.1953C651.925 47.1953 651.618 47.234 651.34 47.3115C651.066 47.389 650.813 47.487 650.581 47.6055C650.349 47.724 650.128 47.8516 649.918 47.9883L649.146 46.874C649.524 46.5915 649.975 46.3522 650.499 46.1562C651.023 45.9603 651.634 45.8623 652.331 45.8623C653.356 45.8623 654.147 46.0833 654.703 46.5254C655.259 46.9629 655.537 47.5508 655.537 48.2891ZM664.294 53.8057H662.94V56H661.354V53.8057H656.809V52.5889L661.375 45.9785H662.94V52.4727H664.294V53.8057ZM661.354 52.4727V49.9912C661.354 49.7861 661.357 49.5788 661.361 49.3691C661.37 49.1549 661.38 48.9499 661.389 48.7539C661.398 48.5579 661.407 48.3779 661.416 48.2139C661.425 48.0452 661.432 47.9062 661.437 47.7969H661.382C661.295 47.9792 661.2 48.166 661.095 48.3574C660.99 48.5443 660.878 48.7266 660.76 48.9043L658.299 52.4727H661.354ZM668.573 49.752C669.216 49.752 669.781 49.8682 670.269 50.1006C670.761 50.3285 671.144 50.6657 671.417 51.1123C671.69 51.5544 671.827 52.0967 671.827 52.7393C671.827 53.4411 671.679 54.0472 671.383 54.5576C671.087 55.0635 670.651 55.4531 670.077 55.7266C669.503 56 668.803 56.1367 667.979 56.1367C667.454 56.1367 666.965 56.0911 666.509 56C666.058 55.9089 665.668 55.7721 665.34 55.5898V54.1406C665.682 54.332 666.092 54.4893 666.57 54.6123C667.049 54.7308 667.507 54.79 667.944 54.79C668.409 54.79 668.808 54.7217 669.141 54.585C669.473 54.4482 669.729 54.2386 669.906 53.9561C670.089 53.6735 670.18 53.3158 670.18 52.8828C670.18 52.3086 669.995 51.8665 669.626 51.5566C669.261 51.2422 668.689 51.085 667.91 51.085C667.637 51.085 667.345 51.11 667.035 51.1602C666.73 51.2057 666.475 51.2559 666.27 51.3105L665.565 50.8936L665.941 46.0059H671.137V47.4209H667.356L667.138 49.9092C667.302 49.8727 667.498 49.8385 667.726 49.8066C667.953 49.7702 668.236 49.752 668.573 49.752ZM673.201 51.7412C673.201 51.1533 673.242 50.5745 673.324 50.0049C673.411 49.4352 673.557 48.902 673.762 48.4053C673.967 47.9085 674.249 47.471 674.609 47.0928C674.974 46.7145 675.432 46.4183 675.983 46.2041C676.535 45.9854 677.198 45.876 677.973 45.876C678.173 45.876 678.399 45.8851 678.649 45.9033C678.9 45.9215 679.107 45.9512 679.271 45.9922V47.3252C679.094 47.2751 678.898 47.2363 678.684 47.209C678.474 47.1816 678.264 47.168 678.055 47.168C677.216 47.168 676.562 47.3275 676.093 47.6465C675.623 47.9609 675.288 48.3939 675.088 48.9453C674.887 49.4922 674.771 50.1188 674.739 50.8252H674.821C674.958 50.5973 675.129 50.3945 675.334 50.2168C675.539 50.0391 675.79 49.8978 676.086 49.793C676.382 49.6836 676.726 49.6289 677.118 49.6289C677.701 49.6289 678.21 49.752 678.643 49.998C679.076 50.2396 679.408 50.5905 679.641 51.0508C679.878 51.5111 679.996 52.0693 679.996 52.7256C679.996 53.432 679.862 54.0404 679.593 54.5508C679.328 55.0612 678.95 55.4531 678.458 55.7266C677.97 56 677.389 56.1367 676.715 56.1367C676.218 56.1367 675.756 56.0456 675.327 55.8633C674.903 55.681 674.532 55.4076 674.213 55.043C673.894 54.6784 673.646 54.2227 673.468 53.6758C673.29 53.1243 673.201 52.4795 673.201 51.7412ZM676.688 54.8105C677.207 54.8105 677.624 54.6419 677.938 54.3047C678.257 53.9629 678.417 53.4411 678.417 52.7393C678.417 52.1696 678.276 51.7184 677.993 51.3857C677.715 51.0531 677.296 50.8867 676.735 50.8867C676.353 50.8867 676.018 50.9688 675.73 51.1328C675.443 51.2969 675.22 51.5042 675.061 51.7549C674.906 52.0055 674.828 52.2607 674.828 52.5205C674.828 52.7848 674.867 53.0514 674.944 53.3203C675.022 53.5892 675.138 53.8376 675.293 54.0654C675.448 54.2887 675.642 54.4688 675.874 54.6055C676.106 54.7422 676.378 54.8105 676.688 54.8105ZM682.341 56L686.265 47.4141H681.076V46.0059H687.994V47.1064L684.07 56H682.341ZM692.581 45.8691C693.16 45.8691 693.682 45.9603 694.146 46.1426C694.611 46.3203 694.98 46.5869 695.254 46.9424C695.527 47.2979 695.664 47.7376 695.664 48.2617C695.664 48.6673 695.58 49.0205 695.411 49.3213C695.247 49.6221 695.024 49.8864 694.741 50.1143C694.459 50.3376 694.142 50.5358 693.791 50.709C694.183 50.9004 694.543 51.1214 694.871 51.3721C695.204 51.6182 695.47 51.9076 695.671 52.2402C695.876 52.5729 695.979 52.9626 695.979 53.4092C695.979 53.9697 695.835 54.4551 695.548 54.8652C695.265 55.2708 694.871 55.5853 694.365 55.8086C693.859 56.0273 693.269 56.1367 692.595 56.1367C691.87 56.1367 691.253 56.0296 690.742 55.8154C690.232 55.6012 689.844 55.2959 689.58 54.8994C689.316 54.4984 689.184 54.0199 689.184 53.4639C689.184 53.0036 689.275 52.6048 689.457 52.2676C689.639 51.9303 689.883 51.6387 690.188 51.3926C690.498 51.1465 690.838 50.9391 691.207 50.7705C690.893 50.5837 690.605 50.374 690.346 50.1416C690.086 49.9046 689.879 49.6335 689.724 49.3281C689.573 49.0182 689.498 48.6605 689.498 48.2549C689.498 47.7354 689.637 47.3001 689.915 46.9492C690.193 46.5938 690.564 46.3249 691.029 46.1426C691.499 45.9603 692.016 45.8691 692.581 45.8691ZM690.715 53.4023C690.715 53.8398 690.87 54.1999 691.18 54.4824C691.49 54.765 691.952 54.9062 692.567 54.9062C693.178 54.9062 693.643 54.7673 693.962 54.4893C694.281 54.2113 694.44 53.8444 694.44 53.3887C694.44 53.097 694.358 52.8395 694.194 52.6162C694.035 52.3929 693.818 52.1947 693.545 52.0215C693.276 51.8438 692.978 51.6797 692.649 51.5293L692.431 51.4404C692.075 51.5908 691.77 51.7617 691.515 51.9531C691.259 52.14 691.061 52.3519 690.92 52.5889C690.783 52.8258 690.715 53.097 690.715 53.4023ZM692.567 47.1064C692.125 47.1064 691.761 47.2158 691.474 47.4346C691.191 47.6488 691.05 47.9587 691.05 48.3643C691.05 48.6514 691.118 48.8975 691.255 49.1025C691.396 49.3076 691.585 49.4854 691.822 49.6357C692.059 49.7816 692.321 49.9183 692.608 50.0459C692.886 49.9229 693.137 49.7884 693.36 49.6426C693.588 49.4922 693.768 49.3145 693.9 49.1094C694.037 48.8997 694.105 48.6491 694.105 48.3574C694.105 47.9564 693.962 47.6488 693.675 47.4346C693.392 47.2158 693.023 47.1064 692.567 47.1064ZM699.13 52.9512H697.92L697.592 46.0059H699.458L699.13 52.9512ZM697.51 55.1523C697.51 54.7786 697.605 54.5166 697.797 54.3662C697.993 54.2113 698.232 54.1338 698.515 54.1338C698.793 54.1338 699.03 54.2113 699.226 54.3662C699.422 54.5166 699.52 54.7786 699.52 55.1523C699.52 55.5169 699.422 55.7812 699.226 55.9453C699.03 56.1048 698.793 56.1846 698.515 56.1846C698.232 56.1846 697.993 56.1048 697.797 55.9453C697.605 55.7812 697.51 55.5169 697.51 55.1523ZM702.377 52.9512V52.5205C702.377 52.1833 702.416 51.8893 702.493 51.6387C702.571 51.388 702.701 51.1533 702.883 50.9346C703.065 50.7113 703.311 50.4788 703.621 50.2373C703.94 49.9867 704.193 49.7702 704.38 49.5879C704.571 49.4056 704.708 49.2233 704.79 49.041C704.877 48.8542 704.92 48.6377 704.92 48.3916C704.92 48.0042 704.788 47.7103 704.523 47.5098C704.264 47.3047 703.897 47.2021 703.423 47.2021C703.004 47.2021 702.609 47.2614 702.24 47.3799C701.871 47.4984 701.507 47.6465 701.146 47.8242L700.579 46.6211C700.994 46.3932 701.443 46.2109 701.926 46.0742C702.413 45.9329 702.949 45.8623 703.532 45.8623C704.462 45.8623 705.18 46.0879 705.686 46.5391C706.196 46.9902 706.451 47.585 706.451 48.3232C706.451 48.7288 706.387 49.0775 706.26 49.3691C706.132 49.6562 705.943 49.9229 705.692 50.1689C705.446 50.4105 705.148 50.6657 704.797 50.9346C704.51 51.1624 704.289 51.3607 704.134 51.5293C703.983 51.6934 703.879 51.8597 703.819 52.0283C703.765 52.1969 703.737 52.3997 703.737 52.6367V52.9512H702.377ZM702.117 55.1523C702.117 54.7786 702.213 54.5166 702.404 54.3662C702.6 54.2113 702.84 54.1338 703.122 54.1338C703.396 54.1338 703.63 54.2113 703.826 54.3662C704.022 54.5166 704.12 54.7786 704.12 55.1523C704.12 55.5169 704.022 55.7812 703.826 55.9453C703.63 56.1048 703.396 56.1846 703.122 56.1846C702.84 56.1846 702.6 56.1048 702.404 55.9453C702.213 55.7812 702.117 55.5169 702.117 55.1523ZM707.381 52.165C707.381 51.3994 707.454 50.652 707.6 49.9229C707.75 49.1937 707.978 48.4987 708.283 47.8379C708.589 47.1771 708.974 46.5664 709.438 46.0059H710.84C710.188 46.8763 709.696 47.8402 709.363 48.8975C709.035 49.9548 708.871 51.0394 708.871 52.1514C708.871 52.876 708.944 53.5938 709.09 54.3047C709.236 55.0156 709.454 55.6992 709.746 56.3555C710.038 57.0163 710.398 57.6361 710.826 58.2148H709.438C708.974 57.668 708.589 57.071 708.283 56.4238C707.978 55.7767 707.75 55.0931 707.6 54.373C707.454 53.653 707.381 52.917 707.381 52.165ZM715.14 52.1582C715.14 52.9147 715.067 53.653 714.921 54.373C714.775 55.0931 714.549 55.7767 714.244 56.4238C713.943 57.071 713.556 57.668 713.082 58.2148H711.701C712.13 57.6361 712.49 57.0163 712.781 56.3555C713.073 55.6947 713.292 55.0088 713.438 54.2979C713.583 53.5869 713.656 52.8691 713.656 52.1445C713.656 51.4062 713.581 50.6771 713.431 49.957C713.285 49.237 713.066 48.5443 712.774 47.8789C712.483 47.209 712.12 46.5846 711.688 46.0059H713.082C713.556 46.5664 713.943 47.1771 714.244 47.8379C714.549 48.4987 714.775 49.1937 714.921 49.9229C715.067 50.6475 715.14 51.3926 715.14 52.1582Z" fill="#161616"/>
<path d="M32.9414 134H31.7793V129.29H26.5293V134H25.3672V124.006H26.5293V128.265H31.7793V124.006H32.9414V134ZM41.5615 134H35.0127V133.05L37.6855 130.336C38.1823 129.835 38.5993 129.388 38.9365 128.996C39.2783 128.604 39.5381 128.219 39.7158 127.841C39.8936 127.458 39.9824 127.039 39.9824 126.583C39.9824 126.018 39.8138 125.587 39.4766 125.291C39.1439 124.99 38.7041 124.84 38.1572 124.84C37.6787 124.84 37.2549 124.922 36.8857 125.086C36.5166 125.25 36.1383 125.482 35.751 125.783L35.1426 125.018C35.4069 124.794 35.694 124.596 36.0039 124.423C36.3184 124.25 36.6533 124.113 37.0088 124.013C37.3688 123.912 37.7516 123.862 38.1572 123.862C38.7725 123.862 39.3034 123.969 39.75 124.184C40.1966 124.398 40.5407 124.703 40.7822 125.1C41.0283 125.496 41.1514 125.968 41.1514 126.515C41.1514 127.043 41.0465 127.535 40.8369 127.991C40.6273 128.442 40.3333 128.891 39.9551 129.338C39.5768 129.78 39.1348 130.249 38.6289 130.746L36.4551 132.913V132.961H41.5615V134Z" fill="#61656E"/>
<path d="M141.65 139L140.394 135.432H135.48L134.224 139H132L136.781 126.098H139.119L143.892 139H141.65ZM139.849 133.621L138.627 130.105C138.58 129.953 138.513 129.739 138.425 129.464C138.337 129.183 138.249 128.898 138.161 128.611C138.073 128.318 138 128.072 137.941 127.873C137.883 128.113 137.81 128.383 137.722 128.682C137.64 128.975 137.558 129.25 137.476 129.508C137.399 129.766 137.341 129.965 137.3 130.105L136.069 133.621H139.849ZM149.191 129.086C150.422 129.086 151.351 129.358 151.978 129.903C152.61 130.448 152.927 131.298 152.927 132.452V139H151.459L151.063 137.62H150.993C150.718 137.972 150.434 138.262 150.141 138.49C149.848 138.719 149.508 138.889 149.121 139C148.74 139.117 148.274 139.176 147.724 139.176C147.144 139.176 146.625 139.07 146.168 138.859C145.711 138.643 145.351 138.314 145.087 137.875C144.823 137.436 144.691 136.879 144.691 136.205C144.691 135.203 145.063 134.45 145.808 133.946C146.558 133.442 147.688 133.164 149.2 133.111L150.888 133.05V132.54C150.888 131.866 150.729 131.386 150.413 131.099C150.103 130.812 149.663 130.668 149.095 130.668C148.608 130.668 148.137 130.738 147.68 130.879C147.223 131.02 146.777 131.192 146.344 131.397L145.676 129.938C146.15 129.687 146.689 129.481 147.293 129.323C147.902 129.165 148.535 129.086 149.191 129.086ZM150.879 134.351L149.622 134.395C148.591 134.43 147.867 134.605 147.451 134.922C147.035 135.238 146.827 135.672 146.827 136.223C146.827 136.703 146.971 137.055 147.258 137.277C147.545 137.494 147.923 137.603 148.392 137.603C149.106 137.603 149.698 137.4 150.167 136.996C150.642 136.586 150.879 135.985 150.879 135.194V134.351ZM156.029 126.15H159.853C161.511 126.15 162.762 126.391 163.605 126.871C164.449 127.352 164.871 128.181 164.871 129.358C164.871 129.851 164.783 130.296 164.607 130.694C164.438 131.087 164.188 131.412 163.86 131.67C163.532 131.922 163.128 132.092 162.647 132.18V132.268C163.146 132.355 163.588 132.511 163.975 132.733C164.367 132.956 164.675 133.275 164.897 133.691C165.126 134.107 165.24 134.646 165.24 135.309C165.24 136.094 165.053 136.762 164.678 137.312C164.309 137.863 163.778 138.282 163.087 138.569C162.401 138.856 161.587 139 160.644 139H156.029V126.15ZM158.139 131.45H160.16C161.115 131.45 161.777 131.295 162.146 130.984C162.516 130.674 162.7 130.22 162.7 129.622C162.7 129.013 162.48 128.573 162.041 128.304C161.607 128.034 160.916 127.899 159.967 127.899H158.139V131.45ZM158.139 133.155V137.233H160.362C161.347 137.233 162.038 137.043 162.437 136.662C162.835 136.281 163.034 135.766 163.034 135.115C163.034 134.717 162.943 134.371 162.762 134.078C162.586 133.785 162.296 133.56 161.892 133.401C161.487 133.237 160.942 133.155 160.257 133.155H158.139ZM169.749 125.324V128.62C169.749 129.001 169.737 129.376 169.714 129.745C169.696 130.108 169.679 130.393 169.661 130.598H169.749C170.013 130.176 170.379 129.821 170.848 129.534C171.322 129.241 171.929 129.095 172.667 129.095C173.821 129.095 174.75 129.52 175.453 130.369C176.156 131.213 176.508 132.464 176.508 134.122C176.508 135.224 176.347 136.149 176.024 136.899C175.702 137.649 175.248 138.218 174.662 138.604C174.082 138.985 173.399 139.176 172.614 139.176C171.876 139.176 171.278 139.041 170.821 138.771C170.37 138.496 170.016 138.177 169.758 137.813H169.608L169.23 139H167.684V125.324H169.749ZM172.122 130.773C171.536 130.773 171.07 130.891 170.725 131.125C170.385 131.359 170.139 131.711 169.986 132.18C169.834 132.643 169.755 133.231 169.749 133.946V134.131C169.749 135.215 169.919 136.044 170.259 136.618C170.604 137.192 171.231 137.479 172.14 137.479C172.86 137.479 173.414 137.189 173.801 136.609C174.188 136.023 174.381 135.186 174.381 134.096C174.381 132.994 174.188 132.165 173.801 131.608C173.42 131.052 172.86 130.773 172.122 130.773ZM184.585 127.759C183.97 127.759 183.419 127.87 182.933 128.093C182.452 128.315 182.045 128.638 181.711 129.06C181.377 129.476 181.122 129.982 180.946 130.58C180.771 131.172 180.683 131.84 180.683 132.584C180.683 133.58 180.823 134.438 181.104 135.159C181.386 135.874 181.813 136.425 182.388 136.812C182.962 137.192 183.688 137.383 184.567 137.383C185.112 137.383 185.643 137.33 186.158 137.225C186.674 137.119 187.207 136.976 187.758 136.794V138.587C187.236 138.792 186.709 138.941 186.176 139.035C185.643 139.129 185.027 139.176 184.33 139.176C183.018 139.176 181.928 138.903 181.061 138.358C180.199 137.813 179.555 137.046 179.127 136.056C178.705 135.065 178.494 133.905 178.494 132.575C178.494 131.603 178.629 130.712 178.898 129.903C179.168 129.095 179.561 128.397 180.076 127.812C180.592 127.22 181.228 126.766 181.983 126.449C182.745 126.127 183.615 125.966 184.594 125.966C185.238 125.966 185.871 126.039 186.492 126.186C187.119 126.326 187.699 126.528 188.232 126.792L187.494 128.532C187.049 128.321 186.583 128.14 186.097 127.987C185.61 127.835 185.106 127.759 184.585 127.759ZM194.227 139.176C193.307 139.176 192.51 138.997 191.836 138.64C191.162 138.282 190.644 137.734 190.28 136.996C189.917 136.258 189.735 135.32 189.735 134.184C189.735 133 189.935 132.033 190.333 131.283C190.731 130.533 191.282 129.979 191.985 129.622C192.694 129.265 193.506 129.086 194.42 129.086C195 129.086 195.524 129.145 195.993 129.262C196.468 129.373 196.869 129.511 197.197 129.675L196.582 131.327C196.225 131.181 195.858 131.058 195.483 130.958C195.108 130.858 194.748 130.809 194.402 130.809C193.834 130.809 193.359 130.935 192.979 131.187C192.604 131.438 192.322 131.813 192.135 132.312C191.953 132.81 191.862 133.428 191.862 134.166C191.862 134.881 191.956 135.484 192.144 135.977C192.331 136.463 192.609 136.832 192.979 137.084C193.348 137.33 193.802 137.453 194.341 137.453C194.874 137.453 195.352 137.389 195.773 137.26C196.195 137.131 196.594 136.964 196.969 136.759V138.552C196.6 138.763 196.204 138.918 195.782 139.018C195.36 139.123 194.842 139.176 194.227 139.176ZM209.897 132.452C209.897 133.899 209.628 135.109 209.089 136.082C208.55 137.049 207.768 137.778 206.742 138.271C205.717 138.757 204.48 139 203.033 139H199.465V126.15H203.42C204.75 126.15 205.898 126.391 206.865 126.871C207.832 127.346 208.579 128.052 209.106 128.989C209.634 129.921 209.897 131.075 209.897 132.452ZM207.7 132.514C207.7 131.459 207.533 130.592 207.199 129.912C206.871 129.232 206.385 128.729 205.74 128.4C205.102 128.066 204.313 127.899 203.376 127.899H201.574V137.233H203.068C204.621 137.233 205.781 136.838 206.549 136.047C207.316 135.256 207.7 134.078 207.7 132.514ZM215.725 139.176C214.564 139.176 213.633 138.754 212.93 137.91C212.232 137.061 211.884 135.81 211.884 134.157C211.884 132.487 212.238 131.225 212.947 130.369C213.662 129.514 214.603 129.086 215.769 129.086C216.261 129.086 216.691 129.153 217.061 129.288C217.43 129.417 217.746 129.593 218.01 129.815C218.279 130.038 218.508 130.287 218.695 130.562H218.792C218.763 130.381 218.728 130.12 218.687 129.78C218.651 129.435 218.634 129.115 218.634 128.822V125.324H220.708V139H219.091L218.722 137.673H218.634C218.458 137.954 218.235 138.209 217.966 138.438C217.702 138.66 217.386 138.839 217.017 138.974C216.653 139.108 216.223 139.176 215.725 139.176ZM216.305 137.497C217.189 137.497 217.813 137.242 218.177 136.732C218.54 136.223 218.728 135.458 218.739 134.438V134.166C218.739 133.076 218.563 132.241 218.212 131.661C217.86 131.075 217.219 130.782 216.287 130.782C215.543 130.782 214.975 131.084 214.582 131.688C214.195 132.285 214.002 133.12 214.002 134.192C214.002 135.265 214.195 136.085 214.582 136.653C214.975 137.216 215.549 137.497 216.305 137.497ZM231.158 139H223.881V126.15H231.158V127.926H225.99V131.415H230.833V133.182H225.99V137.216H231.158V139ZM237.601 129.086C238.468 129.086 239.212 129.265 239.833 129.622C240.454 129.979 240.932 130.486 241.266 131.143C241.6 131.799 241.767 132.584 241.767 133.498V134.605H235.271C235.295 135.549 235.547 136.275 236.027 136.785C236.514 137.295 237.193 137.55 238.066 137.55C238.688 137.55 239.244 137.491 239.736 137.374C240.234 137.251 240.747 137.072 241.274 136.838V138.517C240.788 138.745 240.293 138.912 239.789 139.018C239.285 139.123 238.682 139.176 237.979 139.176C237.023 139.176 236.183 138.991 235.456 138.622C234.735 138.247 234.17 137.69 233.76 136.952C233.355 136.214 233.153 135.297 233.153 134.201C233.153 133.111 233.338 132.186 233.707 131.424C234.076 130.662 234.595 130.082 235.263 129.684C235.931 129.285 236.71 129.086 237.601 129.086ZM237.601 130.642C236.95 130.642 236.423 130.853 236.019 131.274C235.62 131.696 235.386 132.314 235.315 133.129H239.745C239.739 132.643 239.657 132.212 239.499 131.837C239.347 131.462 239.112 131.169 238.796 130.958C238.485 130.747 238.087 130.642 237.601 130.642ZM246.398 139H244.307V126.15H251.566V127.926H246.398V131.934H251.232V133.7H246.398V139ZM258.554 130.844H256.189V139H254.124V130.844H252.533V129.851L254.124 129.244V128.567C254.124 127.741 254.253 127.085 254.511 126.599C254.774 126.112 255.149 125.764 255.636 125.553C256.128 125.336 256.714 125.228 257.394 125.228C257.839 125.228 258.246 125.266 258.615 125.342C258.984 125.412 259.295 125.494 259.547 125.588L259.011 127.152C258.812 127.088 258.589 127.029 258.343 126.977C258.097 126.918 257.833 126.889 257.552 126.889C257.083 126.889 256.737 127.035 256.515 127.328C256.298 127.621 256.189 128.049 256.189 128.611V129.271H258.554V130.844ZM265.611 132.021H270.41V138.473C269.736 138.695 269.039 138.868 268.318 138.991C267.598 139.114 266.789 139.176 265.893 139.176C264.586 139.176 263.479 138.918 262.57 138.402C261.668 137.881 260.982 137.128 260.514 136.144C260.045 135.153 259.811 133.961 259.811 132.566C259.811 131.225 260.071 130.062 260.593 129.077C261.114 128.087 261.873 127.322 262.869 126.783C263.865 126.238 265.072 125.966 266.49 125.966C267.188 125.966 267.861 126.036 268.512 126.177C269.168 126.312 269.769 126.499 270.313 126.739L269.575 128.479C269.142 128.274 268.655 128.102 268.116 127.961C267.577 127.82 267.018 127.75 266.438 127.75C265.518 127.75 264.724 127.949 264.056 128.348C263.394 128.746 262.884 129.309 262.526 130.035C262.169 130.756 261.99 131.608 261.99 132.593C261.99 133.548 262.134 134.386 262.421 135.106C262.708 135.827 263.156 136.39 263.766 136.794C264.381 137.192 265.175 137.392 266.147 137.392C266.634 137.392 267.047 137.365 267.387 137.312C267.727 137.26 268.04 137.201 268.327 137.137V133.823H265.611V132.021ZM276.053 143.324C274.734 143.324 273.724 143.087 273.021 142.612C272.317 142.138 271.966 141.473 271.966 140.617C271.966 140.02 272.153 139.513 272.528 139.097C272.903 138.687 273.439 138.402 274.137 138.244C273.873 138.127 273.645 137.945 273.451 137.699C273.264 137.447 273.17 137.169 273.17 136.864C273.17 136.501 273.272 136.19 273.478 135.933C273.683 135.675 273.99 135.426 274.4 135.186C273.891 134.969 273.48 134.617 273.17 134.131C272.865 133.639 272.713 133.062 272.713 132.399C272.713 131.696 272.862 131.099 273.161 130.606C273.46 130.108 273.896 129.73 274.471 129.473C275.045 129.209 275.739 129.077 276.554 129.077C276.729 129.077 276.92 129.089 277.125 129.112C277.336 129.13 277.529 129.153 277.705 129.183C277.887 129.206 278.024 129.232 278.118 129.262H281.484V130.413L279.832 130.721C279.99 130.943 280.116 131.198 280.21 131.485C280.304 131.767 280.351 132.074 280.351 132.408C280.351 133.416 280.002 134.21 279.305 134.79C278.613 135.364 277.658 135.651 276.439 135.651C276.146 135.64 275.862 135.616 275.587 135.581C275.376 135.71 275.215 135.854 275.104 136.012C274.992 136.164 274.937 136.337 274.937 136.53C274.937 136.688 274.992 136.817 275.104 136.917C275.215 137.011 275.379 137.081 275.596 137.128C275.818 137.175 276.088 137.198 276.404 137.198H278.083C279.149 137.198 279.964 137.424 280.526 137.875C281.089 138.326 281.37 138.988 281.37 139.861C281.37 140.969 280.913 141.821 279.999 142.419C279.085 143.022 277.77 143.324 276.053 143.324ZM276.132 141.874C276.853 141.874 277.459 141.804 277.951 141.663C278.443 141.522 278.815 141.32 279.067 141.057C279.319 140.799 279.445 140.491 279.445 140.134C279.445 139.817 279.366 139.574 279.208 139.404C279.05 139.234 278.812 139.117 278.496 139.053C278.18 138.988 277.787 138.956 277.318 138.956H275.789C275.408 138.956 275.071 139.015 274.778 139.132C274.485 139.255 274.257 139.431 274.093 139.659C273.935 139.888 273.855 140.163 273.855 140.485C273.855 140.931 274.052 141.273 274.444 141.514C274.843 141.754 275.405 141.874 276.132 141.874ZM276.536 134.298C277.14 134.298 277.588 134.134 277.881 133.806C278.174 133.472 278.32 133.003 278.32 132.399C278.32 131.743 278.168 131.251 277.863 130.923C277.564 130.595 277.119 130.431 276.527 130.431C275.947 130.431 275.505 130.598 275.2 130.932C274.901 131.266 274.752 131.761 274.752 132.417C274.752 133.009 274.901 133.472 275.2 133.806C275.505 134.134 275.95 134.298 276.536 134.298ZM138.882 163H136.808V154.729C136.808 154.454 136.811 154.179 136.816 153.903C136.822 153.628 136.828 153.358 136.834 153.095C136.846 152.831 136.86 152.579 136.878 152.339C136.755 152.474 136.603 152.62 136.421 152.778C136.245 152.937 136.058 153.101 135.858 153.271L134.382 154.448L133.345 153.139L137.159 150.15H138.882V163ZM151.811 163H143.109V161.444L146.44 158.069C147.085 157.413 147.615 156.848 148.031 156.373C148.447 155.893 148.755 155.438 148.954 155.011C149.159 154.583 149.262 154.117 149.262 153.613C149.262 152.992 149.083 152.523 148.726 152.207C148.368 151.885 147.896 151.724 147.311 151.724C146.754 151.724 146.238 151.835 145.764 152.058C145.295 152.274 144.809 152.585 144.305 152.989L143.171 151.627C143.528 151.322 143.909 151.044 144.313 150.792C144.724 150.54 145.181 150.341 145.685 150.194C146.188 150.042 146.763 149.966 147.407 149.966C148.222 149.966 148.925 150.112 149.517 150.405C150.108 150.692 150.562 151.094 150.879 151.609C151.201 152.125 151.362 152.726 151.362 153.411C151.362 154.103 151.225 154.741 150.949 155.327C150.674 155.913 150.281 156.493 149.771 157.067C149.262 157.636 148.655 158.254 147.952 158.922L145.729 161.093V161.189H151.811V163ZM161.619 153.086C161.619 153.666 161.502 154.17 161.268 154.598C161.033 155.025 160.711 155.377 160.301 155.652C159.896 155.922 159.428 156.115 158.895 156.232V156.294C159.92 156.423 160.693 156.745 161.215 157.261C161.742 157.776 162.006 158.459 162.006 159.309C162.006 160.053 161.827 160.718 161.47 161.304C161.112 161.884 160.564 162.341 159.826 162.675C159.088 163.009 158.139 163.176 156.979 163.176C156.281 163.176 155.634 163.12 155.036 163.009C154.444 162.897 153.882 162.719 153.349 162.473V160.636C153.894 160.905 154.474 161.113 155.089 161.26C155.704 161.406 156.287 161.479 156.838 161.479C157.91 161.479 158.675 161.28 159.132 160.882C159.589 160.478 159.817 159.921 159.817 159.212C159.817 158.755 159.697 158.38 159.457 158.087C159.223 157.794 158.856 157.574 158.358 157.428C157.866 157.281 157.23 157.208 156.451 157.208H155.317V155.547H156.46C157.204 155.547 157.802 155.459 158.253 155.283C158.704 155.102 159.029 154.853 159.229 154.536C159.434 154.22 159.536 153.851 159.536 153.429C159.536 152.878 159.357 152.45 159 152.146C158.643 151.835 158.112 151.68 157.409 151.68C156.976 151.68 156.58 151.729 156.223 151.829C155.871 151.929 155.546 152.055 155.247 152.207C154.948 152.359 154.664 152.523 154.395 152.699L153.401 151.267C153.888 150.903 154.468 150.596 155.142 150.344C155.815 150.092 156.601 149.966 157.497 149.966C158.815 149.966 159.832 150.25 160.547 150.818C161.262 151.381 161.619 152.137 161.619 153.086ZM172.878 160.179H171.138V163H169.099V160.179H163.254V158.614L169.125 150.115H171.138V158.465H172.878V160.179ZM169.099 158.465V155.274C169.099 155.011 169.102 154.744 169.107 154.475C169.119 154.199 169.131 153.936 169.143 153.684C169.154 153.432 169.166 153.2 169.178 152.989C169.189 152.772 169.198 152.594 169.204 152.453H169.134C169.022 152.688 168.899 152.928 168.765 153.174C168.63 153.414 168.486 153.648 168.334 153.877L165.17 158.465H169.099ZM178.38 154.967C179.206 154.967 179.933 155.116 180.56 155.415C181.192 155.708 181.685 156.142 182.036 156.716C182.388 157.284 182.563 157.981 182.563 158.808C182.563 159.71 182.373 160.489 181.992 161.146C181.611 161.796 181.052 162.297 180.313 162.648C179.575 163 178.676 163.176 177.615 163.176C176.941 163.176 176.312 163.117 175.726 163C175.146 162.883 174.645 162.707 174.223 162.473V160.609C174.662 160.855 175.189 161.058 175.805 161.216C176.42 161.368 177.009 161.444 177.571 161.444C178.169 161.444 178.682 161.356 179.109 161.181C179.537 161.005 179.865 160.735 180.094 160.372C180.328 160.009 180.445 159.549 180.445 158.992C180.445 158.254 180.208 157.686 179.733 157.287C179.265 156.883 178.529 156.681 177.527 156.681C177.176 156.681 176.801 156.713 176.402 156.777C176.01 156.836 175.682 156.9 175.418 156.971L174.513 156.435L174.996 150.15H181.676V151.97H176.815L176.534 155.169C176.745 155.122 176.997 155.078 177.29 155.037C177.583 154.99 177.946 154.967 178.38 154.967ZM184.33 157.524C184.33 156.769 184.383 156.024 184.488 155.292C184.6 154.56 184.787 153.874 185.051 153.235C185.314 152.597 185.678 152.034 186.141 151.548C186.609 151.062 187.198 150.681 187.907 150.405C188.616 150.124 189.469 149.983 190.465 149.983C190.723 149.983 191.013 149.995 191.335 150.019C191.657 150.042 191.924 150.08 192.135 150.133V151.847C191.906 151.782 191.654 151.732 191.379 151.697C191.109 151.662 190.84 151.645 190.57 151.645C189.492 151.645 188.651 151.85 188.048 152.26C187.444 152.664 187.014 153.221 186.756 153.93C186.498 154.633 186.349 155.438 186.308 156.347H186.413C186.589 156.054 186.809 155.793 187.072 155.564C187.336 155.336 187.658 155.154 188.039 155.02C188.42 154.879 188.862 154.809 189.366 154.809C190.116 154.809 190.77 154.967 191.326 155.283C191.883 155.594 192.311 156.045 192.609 156.637C192.914 157.229 193.066 157.946 193.066 158.79C193.066 159.698 192.894 160.48 192.548 161.137C192.208 161.793 191.722 162.297 191.089 162.648C190.462 163 189.715 163.176 188.848 163.176C188.209 163.176 187.614 163.059 187.063 162.824C186.519 162.59 186.041 162.238 185.631 161.77C185.221 161.301 184.901 160.715 184.673 160.012C184.444 159.303 184.33 158.474 184.33 157.524ZM188.812 161.471C189.48 161.471 190.017 161.254 190.421 160.82C190.831 160.381 191.036 159.71 191.036 158.808C191.036 158.075 190.854 157.495 190.491 157.067C190.134 156.64 189.595 156.426 188.874 156.426C188.382 156.426 187.951 156.531 187.582 156.742C187.213 156.953 186.926 157.22 186.721 157.542C186.521 157.864 186.422 158.192 186.422 158.526C186.422 158.866 186.472 159.209 186.571 159.555C186.671 159.9 186.82 160.22 187.02 160.513C187.219 160.8 187.468 161.031 187.767 161.207C188.065 161.383 188.414 161.471 188.812 161.471ZM196.081 163L201.126 151.961H194.455V150.15H203.35V151.565L198.305 163H196.081ZM209.247 149.975C209.991 149.975 210.662 150.092 211.26 150.326C211.857 150.555 212.332 150.897 212.684 151.354C213.035 151.812 213.211 152.377 213.211 153.051C213.211 153.572 213.103 154.026 212.886 154.413C212.675 154.8 212.388 155.14 212.024 155.433C211.661 155.72 211.254 155.975 210.803 156.197C211.307 156.443 211.77 156.728 212.191 157.05C212.619 157.366 212.962 157.738 213.22 158.166C213.483 158.594 213.615 159.095 213.615 159.669C213.615 160.39 213.431 161.014 213.062 161.541C212.698 162.062 212.191 162.467 211.541 162.754C210.891 163.035 210.132 163.176 209.265 163.176C208.333 163.176 207.539 163.038 206.883 162.763C206.227 162.487 205.729 162.095 205.389 161.585C205.049 161.069 204.879 160.454 204.879 159.739C204.879 159.147 204.996 158.635 205.23 158.201C205.465 157.768 205.778 157.393 206.171 157.076C206.569 156.76 207.006 156.493 207.48 156.276C207.076 156.036 206.707 155.767 206.373 155.468C206.039 155.163 205.772 154.814 205.573 154.422C205.38 154.023 205.283 153.563 205.283 153.042C205.283 152.374 205.462 151.814 205.819 151.363C206.177 150.906 206.654 150.561 207.252 150.326C207.855 150.092 208.521 149.975 209.247 149.975ZM206.848 159.66C206.848 160.223 207.047 160.686 207.445 161.049C207.844 161.412 208.438 161.594 209.229 161.594C210.015 161.594 210.612 161.415 211.022 161.058C211.433 160.7 211.638 160.229 211.638 159.643C211.638 159.268 211.532 158.937 211.321 158.649C211.116 158.362 210.838 158.107 210.486 157.885C210.141 157.656 209.757 157.445 209.335 157.252L209.054 157.138C208.597 157.331 208.204 157.551 207.876 157.797C207.548 158.037 207.293 158.31 207.111 158.614C206.936 158.919 206.848 159.268 206.848 159.66ZM209.229 151.565C208.661 151.565 208.192 151.706 207.823 151.987C207.46 152.263 207.278 152.661 207.278 153.183C207.278 153.552 207.366 153.868 207.542 154.132C207.724 154.396 207.967 154.624 208.271 154.817C208.576 155.005 208.913 155.181 209.282 155.345C209.64 155.187 209.962 155.014 210.249 154.826C210.542 154.633 210.773 154.404 210.943 154.141C211.119 153.871 211.207 153.549 211.207 153.174C211.207 152.658 211.022 152.263 210.653 151.987C210.29 151.706 209.815 151.565 209.229 151.565ZM217.667 159.08H216.111L215.689 150.15H218.089L217.667 159.08ZM215.584 161.91C215.584 161.43 215.707 161.093 215.953 160.899C216.205 160.7 216.513 160.601 216.876 160.601C217.233 160.601 217.538 160.7 217.79 160.899C218.042 161.093 218.168 161.43 218.168 161.91C218.168 162.379 218.042 162.719 217.79 162.93C217.538 163.135 217.233 163.237 216.876 163.237C216.513 163.237 216.205 163.135 215.953 162.93C215.707 162.719 215.584 162.379 215.584 161.91ZM221.842 159.08V158.526C221.842 158.093 221.892 157.715 221.991 157.393C222.091 157.07 222.258 156.769 222.492 156.487C222.727 156.2 223.043 155.901 223.441 155.591C223.852 155.269 224.177 154.99 224.417 154.756C224.663 154.521 224.839 154.287 224.944 154.053C225.056 153.812 225.111 153.534 225.111 153.218C225.111 152.72 224.941 152.342 224.602 152.084C224.268 151.82 223.796 151.688 223.187 151.688C222.647 151.688 222.141 151.765 221.666 151.917C221.191 152.069 220.723 152.26 220.26 152.488L219.53 150.941C220.063 150.648 220.641 150.414 221.262 150.238C221.889 150.057 222.577 149.966 223.327 149.966C224.522 149.966 225.445 150.256 226.096 150.836C226.752 151.416 227.08 152.181 227.08 153.13C227.08 153.651 226.998 154.1 226.834 154.475C226.67 154.844 226.427 155.187 226.104 155.503C225.788 155.813 225.404 156.142 224.953 156.487C224.584 156.78 224.3 157.035 224.101 157.252C223.907 157.463 223.772 157.677 223.696 157.894C223.626 158.11 223.591 158.371 223.591 158.676V159.08H221.842ZM221.508 161.91C221.508 161.43 221.631 161.093 221.877 160.899C222.129 160.7 222.437 160.601 222.8 160.601C223.151 160.601 223.453 160.7 223.705 160.899C223.957 161.093 224.083 161.43 224.083 161.91C224.083 162.379 223.957 162.719 223.705 162.93C223.453 163.135 223.151 163.237 222.8 163.237C222.437 163.237 222.129 163.135 221.877 162.93C221.631 162.719 221.508 162.379 221.508 161.91ZM228.275 158.069C228.275 157.085 228.369 156.124 228.557 155.187C228.75 154.249 229.043 153.355 229.436 152.506C229.828 151.656 230.323 150.871 230.921 150.15H232.723C231.885 151.27 231.252 152.509 230.824 153.868C230.402 155.228 230.191 156.622 230.191 158.052C230.191 158.983 230.285 159.906 230.473 160.82C230.66 161.734 230.941 162.613 231.316 163.457C231.691 164.307 232.154 165.104 232.705 165.848H230.921C230.323 165.145 229.828 164.377 229.436 163.545C229.043 162.713 228.75 161.834 228.557 160.908C228.369 159.982 228.275 159.036 228.275 158.069ZM238.251 158.061C238.251 159.033 238.157 159.982 237.97 160.908C237.782 161.834 237.492 162.713 237.1 163.545C236.713 164.377 236.215 165.145 235.605 165.848H233.83C234.381 165.104 234.844 164.307 235.219 163.457C235.594 162.607 235.875 161.726 236.062 160.812C236.25 159.897 236.344 158.975 236.344 158.043C236.344 157.094 236.247 156.156 236.054 155.23C235.866 154.305 235.585 153.414 235.21 152.559C234.835 151.697 234.369 150.895 233.812 150.15H235.605C236.215 150.871 236.713 151.656 237.1 152.506C237.492 153.355 237.782 154.249 237.97 155.187C238.157 156.118 238.251 157.076 238.251 158.061Z" fill="#161616"/>
<path d="M533.441 134H532.279V129.29H527.029V134H525.867V124.006H527.029V128.265H532.279V124.006H533.441V134ZM542.561 131.683H541.063V134H539.956V131.683H535.123V130.726L539.881 123.951H541.063V130.657H542.561V131.683ZM539.956 130.657V127.39C539.956 127.139 539.958 126.913 539.963 126.713C539.967 126.508 539.974 126.319 539.983 126.146C539.993 125.968 539.999 125.799 540.004 125.64C540.013 125.48 540.02 125.323 540.024 125.168H539.97C539.883 125.35 539.783 125.544 539.669 125.749C539.56 125.95 539.448 126.13 539.334 126.289L536.251 130.657H539.956Z" fill="#61656E"/>
<path d="M638.934 133L638.096 130.621H634.82L633.982 133H632.5L635.688 124.398H637.246L640.428 133H638.934ZM637.732 129.414L636.918 127.07C636.887 126.969 636.842 126.826 636.783 126.643C636.725 126.455 636.666 126.266 636.607 126.074C636.549 125.879 636.5 125.715 636.461 125.582C636.422 125.742 636.373 125.922 636.314 126.121C636.26 126.316 636.205 126.5 636.15 126.672C636.1 126.844 636.061 126.977 636.033 127.07L635.213 129.414H637.732ZM643.961 126.391C644.781 126.391 645.4 126.572 645.818 126.936C646.24 127.299 646.451 127.865 646.451 128.635V133H645.473L645.209 132.08H645.162C644.979 132.314 644.789 132.508 644.594 132.66C644.398 132.812 644.172 132.926 643.914 133C643.66 133.078 643.35 133.117 642.982 133.117C642.596 133.117 642.25 133.047 641.945 132.906C641.641 132.762 641.4 132.543 641.225 132.25C641.049 131.957 640.961 131.586 640.961 131.137C640.961 130.469 641.209 129.967 641.705 129.631C642.205 129.295 642.959 129.109 643.967 129.074L645.092 129.033V128.693C645.092 128.244 644.986 127.924 644.775 127.732C644.568 127.541 644.275 127.445 643.896 127.445C643.572 127.445 643.258 127.492 642.953 127.586C642.648 127.68 642.352 127.795 642.062 127.932L641.617 126.959C641.934 126.791 642.293 126.654 642.695 126.549C643.102 126.443 643.523 126.391 643.961 126.391ZM645.086 129.9L644.248 129.93C643.561 129.953 643.078 130.07 642.801 130.281C642.523 130.492 642.385 130.781 642.385 131.148C642.385 131.469 642.48 131.703 642.672 131.852C642.863 131.996 643.115 132.068 643.428 132.068C643.904 132.068 644.299 131.934 644.611 131.664C644.928 131.391 645.086 130.99 645.086 130.463V129.9ZM648.52 124.434H651.068C652.174 124.434 653.008 124.594 653.57 124.914C654.133 125.234 654.414 125.787 654.414 126.572C654.414 126.9 654.355 127.197 654.238 127.463C654.125 127.725 653.959 127.941 653.74 128.113C653.521 128.281 653.252 128.395 652.932 128.453V128.512C653.264 128.57 653.559 128.674 653.816 128.822C654.078 128.971 654.283 129.184 654.432 129.461C654.584 129.738 654.66 130.098 654.66 130.539C654.66 131.062 654.535 131.508 654.285 131.875C654.039 132.242 653.686 132.521 653.225 132.713C652.768 132.904 652.225 133 651.596 133H648.52V124.434ZM649.926 127.967H651.273C651.91 127.967 652.352 127.863 652.598 127.656C652.844 127.449 652.967 127.146 652.967 126.748C652.967 126.342 652.82 126.049 652.527 125.869C652.238 125.689 651.777 125.6 651.145 125.6H649.926V127.967ZM649.926 129.104V131.822H651.408C652.064 131.822 652.525 131.695 652.791 131.441C653.057 131.188 653.189 130.844 653.189 130.41C653.189 130.145 653.129 129.914 653.008 129.719C652.891 129.523 652.697 129.373 652.428 129.268C652.158 129.158 651.795 129.104 651.338 129.104H649.926ZM657.666 123.883V126.08C657.666 126.334 657.658 126.584 657.643 126.83C657.631 127.072 657.619 127.262 657.607 127.398H657.666C657.842 127.117 658.086 126.881 658.398 126.689C658.715 126.494 659.119 126.396 659.611 126.396C660.381 126.396 661 126.68 661.469 127.246C661.938 127.809 662.172 128.643 662.172 129.748C662.172 130.482 662.064 131.1 661.85 131.6C661.635 132.1 661.332 132.479 660.941 132.736C660.555 132.99 660.1 133.117 659.576 133.117C659.084 133.117 658.686 133.027 658.381 132.848C658.08 132.664 657.844 132.451 657.672 132.209H657.572L657.32 133H656.289V123.883H657.666ZM659.248 127.516C658.857 127.516 658.547 127.594 658.316 127.75C658.09 127.906 657.926 128.141 657.824 128.453C657.723 128.762 657.67 129.154 657.666 129.631V129.754C657.666 130.477 657.779 131.029 658.006 131.412C658.236 131.795 658.654 131.986 659.26 131.986C659.74 131.986 660.109 131.793 660.367 131.406C660.625 131.016 660.754 130.457 660.754 129.73C660.754 128.996 660.625 128.443 660.367 128.072C660.113 127.701 659.74 127.516 659.248 127.516ZM667.557 125.506C667.146 125.506 666.779 125.58 666.455 125.729C666.135 125.877 665.863 126.092 665.641 126.373C665.418 126.65 665.248 126.988 665.131 127.387C665.014 127.781 664.955 128.227 664.955 128.723C664.955 129.387 665.049 129.959 665.236 130.439C665.424 130.916 665.709 131.283 666.092 131.541C666.475 131.795 666.959 131.922 667.545 131.922C667.908 131.922 668.262 131.887 668.605 131.816C668.949 131.746 669.305 131.65 669.672 131.529V132.725C669.324 132.861 668.973 132.961 668.617 133.023C668.262 133.086 667.852 133.117 667.387 133.117C666.512 133.117 665.785 132.936 665.207 132.572C664.633 132.209 664.203 131.697 663.918 131.037C663.637 130.377 663.496 129.604 663.496 128.717C663.496 128.068 663.586 127.475 663.766 126.936C663.945 126.396 664.207 125.932 664.551 125.541C664.895 125.146 665.318 124.844 665.822 124.633C666.33 124.418 666.91 124.311 667.562 124.311C667.992 124.311 668.414 124.359 668.828 124.457C669.246 124.551 669.633 124.686 669.988 124.861L669.496 126.021C669.199 125.881 668.889 125.76 668.564 125.658C668.24 125.557 667.904 125.506 667.557 125.506ZM673.984 133.117C673.371 133.117 672.84 132.998 672.391 132.76C671.941 132.521 671.596 132.156 671.354 131.664C671.111 131.172 670.99 130.547 670.99 129.789C670.99 129 671.123 128.355 671.389 127.855C671.654 127.355 672.021 126.986 672.49 126.748C672.963 126.51 673.504 126.391 674.113 126.391C674.5 126.391 674.85 126.43 675.162 126.508C675.479 126.582 675.746 126.674 675.965 126.783L675.555 127.885C675.316 127.787 675.072 127.705 674.822 127.639C674.572 127.572 674.332 127.539 674.102 127.539C673.723 127.539 673.406 127.623 673.152 127.791C672.902 127.959 672.715 128.209 672.59 128.541C672.469 128.873 672.408 129.285 672.408 129.777C672.408 130.254 672.471 130.656 672.596 130.984C672.721 131.309 672.906 131.555 673.152 131.723C673.398 131.887 673.701 131.969 674.061 131.969C674.416 131.969 674.734 131.926 675.016 131.84C675.297 131.754 675.562 131.643 675.812 131.506V132.701C675.566 132.842 675.303 132.945 675.021 133.012C674.74 133.082 674.395 133.117 673.984 133.117ZM684.432 128.635C684.432 129.6 684.252 130.406 683.893 131.055C683.533 131.699 683.012 132.186 682.328 132.514C681.645 132.838 680.82 133 679.855 133H677.477V124.434H680.113C681 124.434 681.766 124.594 682.41 124.914C683.055 125.23 683.553 125.701 683.904 126.326C684.256 126.947 684.432 127.717 684.432 128.635ZM682.967 128.676C682.967 127.973 682.855 127.395 682.633 126.941C682.414 126.488 682.09 126.152 681.66 125.934C681.234 125.711 680.709 125.6 680.084 125.6H678.883V131.822H679.879C680.914 131.822 681.688 131.559 682.199 131.031C682.711 130.504 682.967 129.719 682.967 128.676ZM688.316 133.117C687.543 133.117 686.922 132.836 686.453 132.273C685.988 131.707 685.756 130.873 685.756 129.771C685.756 128.658 685.992 127.816 686.465 127.246C686.941 126.676 687.568 126.391 688.346 126.391C688.674 126.391 688.961 126.436 689.207 126.525C689.453 126.611 689.664 126.729 689.84 126.877C690.02 127.025 690.172 127.191 690.297 127.375H690.361C690.342 127.254 690.318 127.08 690.291 126.854C690.268 126.623 690.256 126.41 690.256 126.215V123.883H691.639V133H690.561L690.314 132.115H690.256C690.139 132.303 689.99 132.473 689.811 132.625C689.635 132.773 689.424 132.893 689.178 132.982C688.936 133.072 688.648 133.117 688.316 133.117ZM688.703 131.998C689.293 131.998 689.709 131.828 689.951 131.488C690.193 131.148 690.318 130.639 690.326 129.959V129.777C690.326 129.051 690.209 128.494 689.975 128.107C689.74 127.717 689.312 127.521 688.691 127.521C688.195 127.521 687.816 127.723 687.555 128.125C687.297 128.523 687.168 129.08 687.168 129.795C687.168 130.51 687.297 131.057 687.555 131.436C687.816 131.811 688.199 131.998 688.703 131.998ZM698.605 133H693.754V124.434H698.605V125.617H695.16V127.943H698.389V129.121H695.16V131.811H698.605V133ZM702.9 126.391C703.479 126.391 703.975 126.51 704.389 126.748C704.803 126.986 705.121 127.324 705.344 127.762C705.566 128.199 705.678 128.723 705.678 129.332V130.07H701.348C701.363 130.699 701.531 131.184 701.852 131.523C702.176 131.863 702.629 132.033 703.211 132.033C703.625 132.033 703.996 131.994 704.324 131.916C704.656 131.834 704.998 131.715 705.35 131.559V132.678C705.025 132.83 704.695 132.941 704.359 133.012C704.023 133.082 703.621 133.117 703.152 133.117C702.516 133.117 701.955 132.994 701.471 132.748C700.99 132.498 700.613 132.127 700.34 131.635C700.07 131.143 699.936 130.531 699.936 129.801C699.936 129.074 700.059 128.457 700.305 127.949C700.551 127.441 700.896 127.055 701.342 126.789C701.787 126.523 702.307 126.391 702.9 126.391ZM702.9 127.428C702.467 127.428 702.115 127.568 701.846 127.85C701.58 128.131 701.424 128.543 701.377 129.086H704.33C704.326 128.762 704.271 128.475 704.166 128.225C704.064 127.975 703.908 127.779 703.697 127.639C703.49 127.498 703.225 127.428 702.9 127.428ZM708.766 133H707.371V124.434H712.211V125.617H708.766V128.289H711.988V129.467H708.766V133ZM716.869 127.562H715.293V133H713.916V127.562H712.855V126.9L713.916 126.496V126.045C713.916 125.494 714.002 125.057 714.174 124.732C714.35 124.408 714.6 124.176 714.924 124.035C715.252 123.891 715.643 123.818 716.096 123.818C716.393 123.818 716.664 123.844 716.91 123.895C717.156 123.941 717.363 123.996 717.531 124.059L717.174 125.102C717.041 125.059 716.893 125.02 716.729 124.984C716.564 124.945 716.389 124.926 716.201 124.926C715.889 124.926 715.658 125.023 715.51 125.219C715.365 125.414 715.293 125.699 715.293 126.074V126.514H716.869V127.562ZM721.574 128.348H724.773V132.648C724.324 132.797 723.859 132.912 723.379 132.994C722.898 133.076 722.359 133.117 721.762 133.117C720.891 133.117 720.152 132.945 719.547 132.602C718.945 132.254 718.488 131.752 718.176 131.096C717.863 130.436 717.707 129.641 717.707 128.711C717.707 127.816 717.881 127.041 718.229 126.385C718.576 125.725 719.082 125.215 719.746 124.855C720.41 124.492 721.215 124.311 722.16 124.311C722.625 124.311 723.074 124.357 723.508 124.451C723.945 124.541 724.346 124.666 724.709 124.826L724.217 125.986C723.928 125.85 723.604 125.734 723.244 125.641C722.885 125.547 722.512 125.5 722.125 125.5C721.512 125.5 720.982 125.633 720.537 125.898C720.096 126.164 719.756 126.539 719.518 127.023C719.279 127.504 719.16 128.072 719.16 128.729C719.16 129.365 719.256 129.924 719.447 130.404C719.639 130.885 719.938 131.26 720.344 131.529C720.754 131.795 721.283 131.928 721.932 131.928C722.256 131.928 722.531 131.91 722.758 131.875C722.984 131.84 723.193 131.801 723.385 131.758V129.549H721.574V128.348ZM728.535 135.883C727.656 135.883 726.982 135.725 726.514 135.408C726.045 135.092 725.811 134.648 725.811 134.078C725.811 133.68 725.936 133.342 726.186 133.064C726.436 132.791 726.793 132.602 727.258 132.496C727.082 132.418 726.93 132.297 726.801 132.133C726.676 131.965 726.613 131.779 726.613 131.576C726.613 131.334 726.682 131.127 726.818 130.955C726.955 130.783 727.16 130.617 727.434 130.457C727.094 130.312 726.82 130.078 726.613 129.754C726.41 129.426 726.309 129.041 726.309 128.6C726.309 128.131 726.408 127.732 726.607 127.404C726.807 127.072 727.098 126.82 727.48 126.648C727.863 126.473 728.326 126.385 728.869 126.385C728.986 126.385 729.113 126.393 729.25 126.408C729.391 126.42 729.52 126.436 729.637 126.455C729.758 126.471 729.85 126.488 729.912 126.508H732.156V127.275L731.055 127.48C731.16 127.629 731.244 127.799 731.307 127.99C731.369 128.178 731.4 128.383 731.4 128.605C731.4 129.277 731.168 129.807 730.703 130.193C730.242 130.576 729.605 130.768 728.793 130.768C728.598 130.76 728.408 130.744 728.225 130.721C728.084 130.807 727.977 130.902 727.902 131.008C727.828 131.109 727.791 131.225 727.791 131.354C727.791 131.459 727.828 131.545 727.902 131.611C727.977 131.674 728.086 131.721 728.23 131.752C728.379 131.783 728.559 131.799 728.77 131.799H729.889C730.6 131.799 731.143 131.949 731.518 132.25C731.893 132.551 732.08 132.992 732.08 133.574C732.08 134.312 731.775 134.881 731.166 135.279C730.557 135.682 729.68 135.883 728.535 135.883ZM728.588 134.916C729.068 134.916 729.473 134.869 729.801 134.775C730.129 134.682 730.377 134.547 730.545 134.371C730.713 134.199 730.797 133.994 730.797 133.756C730.797 133.545 730.744 133.383 730.639 133.27C730.533 133.156 730.375 133.078 730.164 133.035C729.953 132.992 729.691 132.971 729.379 132.971H728.359C728.105 132.971 727.881 133.01 727.686 133.088C727.49 133.17 727.338 133.287 727.229 133.439C727.123 133.592 727.07 133.775 727.07 133.99C727.07 134.287 727.201 134.516 727.463 134.676C727.729 134.836 728.104 134.916 728.588 134.916ZM728.857 129.865C729.26 129.865 729.559 129.756 729.754 129.537C729.949 129.314 730.047 129.002 730.047 128.6C730.047 128.162 729.945 127.834 729.742 127.615C729.543 127.396 729.246 127.287 728.852 127.287C728.465 127.287 728.17 127.398 727.967 127.621C727.768 127.844 727.668 128.174 727.668 128.611C727.668 129.006 727.768 129.314 727.967 129.537C728.17 129.756 728.467 129.865 728.857 129.865ZM637.088 149H635.705V143.486C635.705 143.303 635.707 143.119 635.711 142.936C635.715 142.752 635.719 142.572 635.723 142.396C635.73 142.221 635.74 142.053 635.752 141.893C635.67 141.982 635.568 142.08 635.447 142.186C635.33 142.291 635.205 142.4 635.072 142.514L634.088 143.299L633.396 142.426L635.939 140.434H637.088V149ZM645.707 149H639.906V147.963L642.127 145.713C642.557 145.275 642.91 144.898 643.188 144.582C643.465 144.262 643.67 143.959 643.803 143.674C643.939 143.389 644.008 143.078 644.008 142.742C644.008 142.328 643.889 142.016 643.65 141.805C643.412 141.59 643.098 141.482 642.707 141.482C642.336 141.482 641.992 141.557 641.676 141.705C641.363 141.85 641.039 142.057 640.703 142.326L639.947 141.418C640.186 141.215 640.439 141.029 640.709 140.861C640.982 140.693 641.287 140.561 641.623 140.463C641.959 140.361 642.342 140.311 642.771 140.311C643.314 140.311 643.783 140.408 644.178 140.604C644.572 140.795 644.875 141.062 645.086 141.406C645.301 141.75 645.408 142.15 645.408 142.607C645.408 143.068 645.316 143.494 645.133 143.885C644.949 144.275 644.688 144.662 644.348 145.045C644.008 145.424 643.604 145.836 643.135 146.281L641.652 147.729V147.793H645.707V149ZM652.246 142.391C652.246 142.777 652.168 143.113 652.012 143.398C651.855 143.684 651.641 143.918 651.367 144.102C651.098 144.281 650.785 144.41 650.43 144.488V144.529C651.113 144.615 651.629 144.83 651.977 145.174C652.328 145.518 652.504 145.973 652.504 146.539C652.504 147.035 652.385 147.479 652.146 147.869C651.908 148.256 651.543 148.561 651.051 148.783C650.559 149.006 649.926 149.117 649.152 149.117C648.688 149.117 648.256 149.08 647.857 149.006C647.463 148.932 647.088 148.812 646.732 148.648V147.424C647.096 147.604 647.482 147.742 647.893 147.84C648.303 147.938 648.691 147.986 649.059 147.986C649.773 147.986 650.283 147.854 650.588 147.588C650.893 147.318 651.045 146.947 651.045 146.475C651.045 146.17 650.965 145.92 650.805 145.725C650.648 145.529 650.404 145.383 650.072 145.285C649.744 145.188 649.32 145.139 648.801 145.139H648.045V144.031H648.807C649.303 144.031 649.701 143.973 650.002 143.855C650.303 143.734 650.52 143.568 650.652 143.357C650.789 143.146 650.857 142.9 650.857 142.619C650.857 142.252 650.738 141.967 650.5 141.764C650.262 141.557 649.908 141.453 649.439 141.453C649.15 141.453 648.887 141.486 648.648 141.553C648.414 141.619 648.197 141.703 647.998 141.805C647.799 141.906 647.609 142.016 647.43 142.133L646.768 141.178C647.092 140.936 647.479 140.73 647.928 140.562C648.377 140.395 648.9 140.311 649.498 140.311C650.377 140.311 651.055 140.5 651.531 140.879C652.008 141.254 652.246 141.758 652.246 142.391ZM659.752 147.119H658.592V149H657.232V147.119H653.336V146.076L657.25 140.41H658.592V145.977H659.752V147.119ZM657.232 145.977V143.85C657.232 143.674 657.234 143.496 657.238 143.316C657.246 143.133 657.254 142.957 657.262 142.789C657.27 142.621 657.277 142.467 657.285 142.326C657.293 142.182 657.299 142.062 657.303 141.969H657.256C657.182 142.125 657.1 142.285 657.01 142.449C656.92 142.609 656.824 142.766 656.723 142.918L654.613 145.977H657.232ZM663.42 143.645C663.971 143.645 664.455 143.744 664.873 143.943C665.295 144.139 665.623 144.428 665.857 144.811C666.092 145.189 666.209 145.654 666.209 146.205C666.209 146.807 666.082 147.326 665.828 147.764C665.574 148.197 665.201 148.531 664.709 148.766C664.217 149 663.617 149.117 662.91 149.117C662.461 149.117 662.041 149.078 661.65 149C661.264 148.922 660.93 148.805 660.648 148.648V147.406C660.941 147.57 661.293 147.705 661.703 147.811C662.113 147.912 662.506 147.963 662.881 147.963C663.279 147.963 663.621 147.904 663.906 147.787C664.191 147.67 664.41 147.49 664.562 147.248C664.719 147.006 664.797 146.699 664.797 146.328C664.797 145.836 664.639 145.457 664.322 145.191C664.01 144.922 663.52 144.787 662.852 144.787C662.617 144.787 662.367 144.809 662.102 144.852C661.84 144.891 661.621 144.934 661.445 144.98L660.842 144.623L661.164 140.434H665.617V141.646H662.377L662.189 143.779C662.33 143.748 662.498 143.719 662.693 143.691C662.889 143.66 663.131 143.645 663.42 143.645ZM667.387 145.35C667.387 144.846 667.422 144.35 667.492 143.861C667.566 143.373 667.691 142.916 667.867 142.49C668.043 142.064 668.285 141.689 668.594 141.365C668.906 141.041 669.299 140.787 669.771 140.604C670.244 140.416 670.812 140.322 671.477 140.322C671.648 140.322 671.842 140.33 672.057 140.346C672.271 140.361 672.449 140.387 672.59 140.422V141.564C672.438 141.521 672.27 141.488 672.086 141.465C671.906 141.441 671.727 141.43 671.547 141.43C670.828 141.43 670.268 141.566 669.865 141.84C669.463 142.109 669.176 142.48 669.004 142.953C668.832 143.422 668.732 143.959 668.705 144.564H668.775C668.893 144.369 669.039 144.195 669.215 144.043C669.391 143.891 669.605 143.77 669.859 143.68C670.113 143.586 670.408 143.539 670.744 143.539C671.244 143.539 671.68 143.645 672.051 143.855C672.422 144.062 672.707 144.363 672.906 144.758C673.109 145.152 673.211 145.631 673.211 146.193C673.211 146.799 673.096 147.32 672.865 147.758C672.639 148.195 672.314 148.531 671.893 148.766C671.475 149 670.977 149.117 670.398 149.117C669.973 149.117 669.576 149.039 669.209 148.883C668.846 148.727 668.527 148.492 668.254 148.18C667.98 147.867 667.768 147.477 667.615 147.008C667.463 146.535 667.387 145.982 667.387 145.35ZM670.375 147.98C670.82 147.98 671.178 147.836 671.447 147.547C671.721 147.254 671.857 146.807 671.857 146.205C671.857 145.717 671.736 145.33 671.494 145.045C671.256 144.76 670.896 144.617 670.416 144.617C670.088 144.617 669.801 144.688 669.555 144.828C669.309 144.969 669.117 145.146 668.98 145.361C668.848 145.576 668.781 145.795 668.781 146.018C668.781 146.244 668.814 146.473 668.881 146.703C668.947 146.934 669.047 147.146 669.18 147.342C669.312 147.533 669.479 147.688 669.678 147.805C669.877 147.922 670.109 147.98 670.375 147.98ZM675.221 149L678.584 141.641H674.137V140.434H680.066V141.377L676.703 149H675.221ZM683.998 140.316C684.494 140.316 684.941 140.395 685.34 140.551C685.738 140.703 686.055 140.932 686.289 141.236C686.523 141.541 686.641 141.918 686.641 142.367C686.641 142.715 686.568 143.018 686.424 143.275C686.283 143.533 686.092 143.76 685.85 143.955C685.607 144.146 685.336 144.316 685.035 144.465C685.371 144.629 685.68 144.818 685.961 145.033C686.246 145.244 686.475 145.492 686.646 145.777C686.822 146.062 686.91 146.396 686.91 146.779C686.91 147.26 686.787 147.676 686.541 148.027C686.299 148.375 685.961 148.645 685.527 148.836C685.094 149.023 684.588 149.117 684.01 149.117C683.389 149.117 682.859 149.025 682.422 148.842C681.984 148.658 681.652 148.396 681.426 148.057C681.199 147.713 681.086 147.303 681.086 146.826C681.086 146.432 681.164 146.09 681.32 145.801C681.477 145.512 681.686 145.262 681.947 145.051C682.213 144.84 682.504 144.662 682.82 144.518C682.551 144.357 682.305 144.178 682.082 143.979C681.859 143.775 681.682 143.543 681.549 143.281C681.42 143.016 681.355 142.709 681.355 142.361C681.355 141.916 681.475 141.543 681.713 141.242C681.951 140.938 682.27 140.707 682.668 140.551C683.07 140.395 683.514 140.316 683.998 140.316ZM682.398 146.773C682.398 147.148 682.531 147.457 682.797 147.699C683.062 147.941 683.459 148.062 683.986 148.062C684.51 148.062 684.908 147.943 685.182 147.705C685.455 147.467 685.592 147.152 685.592 146.762C685.592 146.512 685.521 146.291 685.381 146.1C685.244 145.908 685.059 145.738 684.824 145.59C684.594 145.438 684.338 145.297 684.057 145.168L683.869 145.092C683.564 145.221 683.303 145.367 683.084 145.531C682.865 145.691 682.695 145.873 682.574 146.076C682.457 146.279 682.398 146.512 682.398 146.773ZM683.986 141.377C683.607 141.377 683.295 141.471 683.049 141.658C682.807 141.842 682.686 142.107 682.686 142.455C682.686 142.701 682.744 142.912 682.861 143.088C682.982 143.264 683.145 143.416 683.348 143.545C683.551 143.67 683.775 143.787 684.021 143.896C684.26 143.791 684.475 143.676 684.666 143.551C684.861 143.422 685.016 143.27 685.129 143.094C685.246 142.914 685.305 142.699 685.305 142.449C685.305 142.105 685.182 141.842 684.936 141.658C684.693 141.471 684.377 141.377 683.986 141.377ZM689.611 146.387H688.574L688.293 140.434H689.893L689.611 146.387ZM688.223 148.273C688.223 147.953 688.305 147.729 688.469 147.6C688.637 147.467 688.842 147.4 689.084 147.4C689.322 147.4 689.525 147.467 689.693 147.6C689.861 147.729 689.945 147.953 689.945 148.273C689.945 148.586 689.861 148.812 689.693 148.953C689.525 149.09 689.322 149.158 689.084 149.158C688.842 149.158 688.637 149.09 688.469 148.953C688.305 148.812 688.223 148.586 688.223 148.273ZM692.395 146.387V146.018C692.395 145.729 692.428 145.477 692.494 145.262C692.561 145.047 692.672 144.846 692.828 144.658C692.984 144.467 693.195 144.268 693.461 144.061C693.734 143.846 693.951 143.66 694.111 143.504C694.275 143.348 694.393 143.191 694.463 143.035C694.537 142.875 694.574 142.689 694.574 142.479C694.574 142.146 694.461 141.895 694.234 141.723C694.012 141.547 693.697 141.459 693.291 141.459C692.932 141.459 692.594 141.51 692.277 141.611C691.961 141.713 691.648 141.84 691.34 141.992L690.854 140.961C691.209 140.766 691.594 140.609 692.008 140.492C692.426 140.371 692.885 140.311 693.385 140.311C694.182 140.311 694.797 140.504 695.23 140.891C695.668 141.277 695.887 141.787 695.887 142.42C695.887 142.768 695.832 143.066 695.723 143.316C695.613 143.562 695.451 143.791 695.236 144.002C695.025 144.209 694.77 144.428 694.469 144.658C694.223 144.854 694.033 145.023 693.9 145.168C693.771 145.309 693.682 145.451 693.631 145.596C693.584 145.74 693.561 145.914 693.561 146.117V146.387H692.395ZM692.172 148.273C692.172 147.953 692.254 147.729 692.418 147.6C692.586 147.467 692.791 147.4 693.033 147.4C693.268 147.4 693.469 147.467 693.637 147.6C693.805 147.729 693.889 147.953 693.889 148.273C693.889 148.586 693.805 148.812 693.637 148.953C693.469 149.09 693.268 149.158 693.033 149.158C692.791 149.158 692.586 149.09 692.418 148.953C692.254 148.812 692.172 148.586 692.172 148.273ZM696.684 145.713C696.684 145.057 696.746 144.416 696.871 143.791C697 143.166 697.195 142.57 697.457 142.004C697.719 141.438 698.049 140.914 698.447 140.434H699.648C699.09 141.18 698.668 142.006 698.383 142.912C698.102 143.818 697.961 144.748 697.961 145.701C697.961 146.322 698.023 146.938 698.148 147.547C698.273 148.156 698.461 148.742 698.711 149.305C698.961 149.871 699.27 150.402 699.637 150.898H698.447C698.049 150.43 697.719 149.918 697.457 149.363C697.195 148.809 697 148.223 696.871 147.605C696.746 146.988 696.684 146.357 696.684 145.713ZM703.334 145.707C703.334 146.355 703.271 146.988 703.146 147.605C703.021 148.223 702.828 148.809 702.566 149.363C702.309 149.918 701.977 150.43 701.57 150.898H700.387C700.754 150.402 701.062 149.871 701.312 149.305C701.562 148.738 701.75 148.15 701.875 147.541C702 146.932 702.062 146.316 702.062 145.695C702.062 145.062 701.998 144.438 701.869 143.82C701.744 143.203 701.557 142.609 701.307 142.039C701.057 141.465 700.746 140.93 700.375 140.434H701.57C701.977 140.914 702.309 141.438 702.566 142.004C702.828 142.57 703.021 143.166 703.146 143.791C703.271 144.412 703.334 145.051 703.334 145.707Z" fill="#161616"/>
</svg>
