<svg width="889" height="88" viewBox="0 0 889 88" fill="none" xmlns="http://www.w3.org/2000/svg">
<rect width="889" height="88" fill="#F2F4F6"/>
<path d="M412.1 37.912C412.505 37.816 412.943 37.752 413.412 37.72C413.881 37.688 414.345 37.672 414.804 37.672C415.295 37.672 415.791 37.72 416.292 37.816C416.804 37.912 417.268 38.088 417.684 38.344C418.1 38.6 418.436 38.952 418.692 39.4C418.959 39.848 419.092 40.4187 419.092 41.112C419.092 41.7947 418.969 42.3707 418.724 42.84C418.479 43.3093 418.153 43.6933 417.748 43.992C417.343 44.28 416.879 44.488 416.356 44.616C415.833 44.744 415.295 44.808 414.74 44.808C414.687 44.808 414.596 44.808 414.468 44.808C414.351 44.808 414.223 44.808 414.084 44.808C413.956 44.7973 413.828 44.7867 413.7 44.776C413.572 44.7653 413.481 44.7547 413.428 44.744V49H412.1V37.912ZM414.836 38.824C414.559 38.824 414.292 38.8293 414.036 38.84C413.78 38.8507 413.577 38.8773 413.428 38.92V43.56C413.481 43.5813 413.567 43.5973 413.684 43.608C413.801 43.608 413.924 43.6133 414.052 43.624C414.18 43.624 414.303 43.624 414.42 43.624C414.537 43.624 414.623 43.624 414.676 43.624C415.039 43.624 415.396 43.592 415.748 43.528C416.111 43.4533 416.436 43.3253 416.724 43.144C417.012 42.9627 417.241 42.7067 417.412 42.376C417.593 42.0453 417.684 41.624 417.684 41.112C417.684 40.6747 417.599 40.312 417.428 40.024C417.268 39.7253 417.049 39.4907 416.772 39.32C416.505 39.1387 416.201 39.0107 415.86 38.936C415.519 38.8613 415.177 38.824 414.836 38.824ZM420.734 37.8H429.054V40.728H427.87V38.984H425.55V47.816H427.31V49H422.462V47.816H424.222V38.984H421.918V40.728H420.734V37.8ZM446.593 41.56L446.753 40.04H446.673L445.905 41.416L444.273 44.152H443.873L442.161 41.4L441.425 40.04H441.345L441.537 41.544V49H440.241V37.8H441.473L444.129 42.056H444.161L446.721 37.8H447.921V49H446.593V41.56ZM449.787 45C449.787 43.7093 450.123 42.6907 450.795 41.944C451.467 41.1867 452.427 40.808 453.675 40.808C454.347 40.808 454.923 40.92 455.403 41.144C455.894 41.3573 456.299 41.6507 456.619 42.024C456.939 42.3973 457.174 42.84 457.323 43.352C457.483 43.864 457.563 44.4133 457.563 45C457.563 45.64 457.478 46.2213 457.307 46.744C457.136 47.256 456.886 47.6933 456.555 48.056C456.224 48.4187 455.814 48.7013 455.323 48.904C454.843 49.096 454.294 49.192 453.675 49.192C453.014 49.192 452.438 49.0853 451.947 48.872C451.456 48.648 451.051 48.3493 450.731 47.976C450.411 47.6027 450.171 47.16 450.011 46.648C449.862 46.136 449.787 45.5867 449.787 45ZM451.115 45C451.115 45.3733 451.158 45.7467 451.243 46.12C451.339 46.4933 451.488 46.8293 451.691 47.128C451.894 47.4267 452.155 47.6667 452.475 47.848C452.806 48.0293 453.206 48.12 453.675 48.12C454.528 48.12 455.168 47.8587 455.595 47.336C456.032 46.8027 456.251 46.024 456.251 45C456.251 44.616 456.203 44.2427 456.107 43.88C456.022 43.5067 455.872 43.1707 455.659 42.872C455.456 42.5733 455.19 42.3333 454.859 42.152C454.539 41.9707 454.144 41.88 453.675 41.88C452.822 41.88 452.182 42.1413 451.755 42.664C451.328 43.1867 451.115 43.9653 451.115 45ZM459.957 43.8C459.957 43.704 459.951 43.5813 459.941 43.432C459.941 43.272 459.935 43.112 459.925 42.952C459.914 42.7813 459.898 42.616 459.877 42.456C459.866 42.296 459.85 42.1573 459.829 42.04H458.757V41H460.901L461.045 42.296H461.125C461.231 42.1147 461.37 41.9387 461.541 41.768C461.722 41.5867 461.93 41.4267 462.165 41.288C462.399 41.1387 462.661 41.0213 462.949 40.936C463.237 40.8507 463.541 40.808 463.861 40.808C464.351 40.808 464.783 40.8613 465.157 40.968C465.541 41.0747 465.855 41.2667 466.101 41.544C466.357 41.8107 466.549 42.1787 466.677 42.648C466.805 43.1067 466.869 43.6933 466.869 44.408V49H465.621V44.648C465.621 43.7627 465.477 43.096 465.189 42.648C464.901 42.2 464.378 41.976 463.621 41.976C463.343 41.976 463.071 42.0347 462.805 42.152C462.549 42.2587 462.314 42.4027 462.101 42.584C461.887 42.7653 461.701 42.9787 461.541 43.224C461.381 43.4587 461.263 43.7093 461.189 43.976V49H459.957V43.8ZM468.975 45C468.975 43.7093 469.311 42.6907 469.983 41.944C470.655 41.1867 471.615 40.808 472.863 40.808C473.535 40.808 474.111 40.92 474.591 41.144C475.081 41.3573 475.487 41.6507 475.807 42.024C476.127 42.3973 476.361 42.84 476.51 43.352C476.671 43.864 476.751 44.4133 476.751 45C476.751 45.64 476.665 46.2213 476.495 46.744C476.324 47.256 476.073 47.6933 475.743 48.056C475.412 48.4187 475.001 48.7013 474.511 48.904C474.031 49.096 473.481 49.192 472.863 49.192C472.201 49.192 471.625 49.0853 471.135 48.872C470.644 48.648 470.239 48.3493 469.919 47.976C469.599 47.6027 469.359 47.16 469.199 46.648C469.049 46.136 468.975 45.5867 468.975 45ZM470.303 45C470.303 45.3733 470.345 45.7467 470.431 46.12C470.527 46.4933 470.676 46.8293 470.879 47.128C471.081 47.4267 471.343 47.6667 471.663 47.848C471.993 48.0293 472.393 48.12 472.863 48.12C473.716 48.12 474.356 47.8587 474.783 47.336C475.22 46.8027 475.439 46.024 475.439 45C475.439 44.616 475.391 44.2427 475.295 43.88C475.209 43.5067 475.06 43.1707 474.847 42.872C474.644 42.5733 474.377 42.3333 474.047 42.152C473.727 41.9707 473.332 41.88 472.863 41.88C472.009 41.88 471.369 42.1413 470.943 42.664C470.516 43.1867 470.303 43.9653 470.303 45Z" fill="#161616"/>
</svg>
