<svg width="880" height="80" viewBox="0 0 880 80" fill="none" xmlns="http://www.w3.org/2000/svg">
<rect width="880" height="80" fill="#F2F4F6"/>
<path d="M32.9414 38H31.7793V33.29H26.5293V38H25.3672V28.0059H26.5293V32.2646H31.7793V28.0059H32.9414V38ZM38.4033 30.3711C39.0413 30.3711 39.5882 30.5124 40.0439 30.7949C40.4997 31.0775 40.8483 31.474 41.0898 31.9844C41.3314 32.4902 41.4521 33.0827 41.4521 33.7617V34.4658H36.2773C36.291 35.3454 36.5098 36.0153 36.9336 36.4756C37.3574 36.9359 37.9544 37.166 38.7246 37.166C39.1986 37.166 39.6178 37.1227 39.9824 37.0361C40.347 36.9495 40.7253 36.8219 41.1172 36.6533V37.6514C40.7389 37.82 40.363 37.943 39.9893 38.0205C39.6201 38.098 39.1826 38.1367 38.6768 38.1367C37.9567 38.1367 37.3278 37.9909 36.79 37.6992C36.2568 37.403 35.8421 36.9701 35.5459 36.4004C35.2497 35.8307 35.1016 35.1335 35.1016 34.3086C35.1016 33.502 35.236 32.8047 35.5049 32.2168C35.7783 31.6243 36.1611 31.1686 36.6533 30.8496C37.1501 30.5306 37.7334 30.3711 38.4033 30.3711ZM38.3896 31.3008C37.7835 31.3008 37.3005 31.499 36.9404 31.8955C36.5804 32.292 36.3662 32.8457 36.2979 33.5566H40.2627C40.2581 33.11 40.1875 32.7181 40.0508 32.3809C39.9186 32.0391 39.7158 31.7747 39.4424 31.5879C39.1689 31.3965 38.818 31.3008 38.3896 31.3008ZM44.5215 38H43.3799V27.3633H44.5215V38ZM50.4414 30.3711C51.3757 30.3711 52.1208 30.6924 52.6768 31.335C53.2327 31.9775 53.5107 32.9437 53.5107 34.2334C53.5107 35.0856 53.3831 35.8011 53.1279 36.3799C52.8727 36.9587 52.5127 37.3962 52.0479 37.6924C51.5876 37.9886 51.043 38.1367 50.4141 38.1367C50.0176 38.1367 49.6689 38.0843 49.3682 37.9795C49.0674 37.8747 48.8099 37.7334 48.5957 37.5557C48.3815 37.3779 48.2038 37.1842 48.0625 36.9746H47.9805C47.9941 37.1523 48.0101 37.3665 48.0283 37.6172C48.0511 37.8678 48.0625 38.0866 48.0625 38.2734V41.3496H46.9209V30.5078H47.8574L48.0078 31.6152H48.0625C48.2083 31.3874 48.3861 31.18 48.5957 30.9932C48.8053 30.8018 49.0605 30.6514 49.3613 30.542C49.6667 30.4281 50.0267 30.3711 50.4414 30.3711ZM50.2432 31.3281C49.7236 31.3281 49.3044 31.4284 48.9854 31.6289C48.6709 31.8294 48.4408 32.1302 48.2949 32.5312C48.1491 32.9277 48.0716 33.4268 48.0625 34.0283V34.2471C48.0625 34.8805 48.1309 35.416 48.2676 35.8535C48.4089 36.291 48.639 36.6237 48.958 36.8516C49.2816 37.0794 49.7145 37.1934 50.2568 37.1934C50.7217 37.1934 51.109 37.068 51.4189 36.8174C51.7288 36.5667 51.959 36.2181 52.1094 35.7715C52.2643 35.3203 52.3418 34.8031 52.3418 34.2197C52.3418 33.3356 52.1686 32.6338 51.8223 32.1143C51.4805 31.5902 50.9541 31.3281 50.2432 31.3281Z" fill="#61656E"/>
<path d="M131.382 35L135.685 27.1475H136.635L137.629 35H136.732L136.42 32.4971H133.708L132.376 35H131.382ZM134.143 31.686H136.329L136.12 29.8545C136.095 29.5895 136.068 29.2995 136.039 28.9844C136.01 28.6657 135.993 28.381 135.985 28.1304H135.953C135.839 28.4025 135.708 28.689 135.561 28.9897C135.418 29.2869 135.266 29.5877 135.104 29.8921L134.143 31.686ZM140.293 35.1074C139.974 35.1074 139.695 35.0304 139.455 34.8765C139.215 34.7225 139.029 34.4951 138.896 34.1943C138.764 33.8936 138.698 33.5265 138.698 33.0933C138.698 32.66 138.743 32.2428 138.832 31.8418C138.925 31.4408 139.056 31.0684 139.224 30.7246C139.392 30.3809 139.595 30.0801 139.831 29.8223C140.071 29.5645 140.34 29.3639 140.637 29.2207C140.934 29.0775 141.254 29.0059 141.598 29.0059C141.863 29.0059 142.092 29.056 142.286 29.1562C142.483 29.2565 142.646 29.389 142.774 29.5537C142.907 29.7148 143.011 29.8867 143.086 30.0693H143.14L143.483 29.1133H144.166L142.919 35H142.205L142.366 33.8613H142.323C142.162 34.0762 141.978 34.2785 141.77 34.4683C141.562 34.658 141.335 34.812 141.088 34.9302C140.841 35.0483 140.576 35.1074 140.293 35.1074ZM140.583 34.3662C140.859 34.3662 141.131 34.266 141.399 34.0654C141.672 33.8613 141.915 33.5874 142.13 33.2437C142.348 32.8963 142.515 32.506 142.629 32.0728C142.687 31.8615 142.724 31.6681 142.742 31.4927C142.764 31.3136 142.774 31.1471 142.774 30.9932C142.774 30.6243 142.676 30.3271 142.479 30.1016C142.286 29.8724 142.021 29.7578 141.684 29.7578C141.444 29.7578 141.219 29.8187 141.007 29.9404C140.796 30.0586 140.604 30.2251 140.433 30.4399C140.264 30.6512 140.119 30.8983 139.998 31.1812C139.876 31.4604 139.781 31.7648 139.713 32.0942C139.648 32.4237 139.616 32.762 139.616 33.1094C139.616 33.5212 139.7 33.8345 139.869 34.0493C140.037 34.2606 140.275 34.3662 140.583 34.3662ZM144.848 35L146.507 27.1475H148.538C149.025 27.1475 149.44 27.2119 149.784 27.3408C150.131 27.4661 150.396 27.6595 150.579 27.9209C150.761 28.1823 150.853 28.5171 150.853 28.9253C150.853 29.2834 150.779 29.5985 150.632 29.8706C150.486 30.1427 150.278 30.3665 150.009 30.542C149.744 30.7139 149.433 30.8338 149.075 30.9019V30.9502C149.44 31.0505 149.743 31.2349 149.982 31.5034C150.222 31.7684 150.342 32.1193 150.342 32.5562C150.342 33.0933 150.212 33.5444 149.95 33.9097C149.689 34.2713 149.331 34.5435 148.876 34.7261C148.421 34.9087 147.9 35 147.313 35H144.848ZM145.917 34.2212H147.356C147.778 34.2212 148.14 34.1585 148.441 34.0332C148.745 33.9043 148.98 33.7163 149.145 33.4692C149.309 33.2222 149.392 32.9178 149.392 32.5562C149.392 32.1802 149.27 31.8722 149.026 31.6323C148.783 31.3924 148.384 31.2725 147.829 31.2725H146.54L145.917 34.2212ZM146.701 30.5151H148.043C148.391 30.5151 148.704 30.4632 148.983 30.3594C149.266 30.252 149.492 30.089 149.66 29.8706C149.828 29.6486 149.913 29.3693 149.913 29.0327C149.913 28.6746 149.796 28.4007 149.563 28.2109C149.331 28.0212 148.951 27.9263 148.425 27.9263H147.254L146.701 30.5151ZM153.914 35.1074C153.638 35.1074 153.398 35.0591 153.194 34.9624C152.994 34.8621 152.827 34.7314 152.695 34.5703C152.562 34.4092 152.458 34.2355 152.383 34.0493H152.335L151.98 35H151.304L153.076 26.6426H153.968L153.538 28.6621C153.488 28.902 153.434 29.1401 153.377 29.3765C153.32 29.6092 153.268 29.8079 153.221 29.9727C153.178 30.1338 153.15 30.2287 153.135 30.2573H153.178C153.35 30.0389 153.535 29.8366 153.731 29.6504C153.932 29.4606 154.15 29.3084 154.387 29.1938C154.627 29.0757 154.888 29.0166 155.171 29.0166C155.5 29.0166 155.787 29.0936 156.03 29.2476C156.274 29.3979 156.462 29.6217 156.594 29.9189C156.73 30.2161 156.798 30.585 156.798 31.0254C156.798 31.4479 156.755 31.8597 156.669 32.2607C156.587 32.6582 156.465 33.0288 156.304 33.3726C156.143 33.7163 155.946 34.0189 155.713 34.2803C155.481 34.5381 155.212 34.7404 154.908 34.8872C154.607 35.034 154.276 35.1074 153.914 35.1074ZM153.85 34.3662C154.1 34.3662 154.329 34.3035 154.537 34.1782C154.748 34.0529 154.936 33.8828 155.101 33.668C155.269 33.4495 155.411 33.1971 155.525 32.9106C155.644 32.6242 155.733 32.3198 155.794 31.9976C155.855 31.6753 155.885 31.3477 155.885 31.0146C155.885 30.5993 155.801 30.286 155.633 30.0747C155.468 29.8634 155.221 29.7578 154.892 29.7578C154.72 29.7578 154.544 29.8008 154.365 29.8867C154.19 29.9691 154.02 30.0872 153.855 30.2412C153.69 30.3952 153.536 30.576 153.393 30.7837C153.253 30.9914 153.13 31.2205 153.022 31.4712C152.919 31.7218 152.836 31.9868 152.775 32.2661C152.715 32.5454 152.684 32.8301 152.684 33.1201C152.684 33.4961 152.779 33.7987 152.969 34.0278C153.162 34.2534 153.456 34.3662 153.85 34.3662ZM160.939 35.1074C160.356 35.1074 159.856 34.9857 159.441 34.7422C159.029 34.4987 158.712 34.1532 158.49 33.7056C158.268 33.2544 158.157 32.7191 158.157 32.0996C158.157 31.6126 158.215 31.1274 158.329 30.644C158.444 30.1571 158.614 29.6987 158.839 29.269C159.069 28.8358 159.353 28.4526 159.693 28.1196C160.034 27.783 160.429 27.5181 160.88 27.3247C161.335 27.1313 161.844 27.0347 162.406 27.0347C162.778 27.0347 163.118 27.0705 163.426 27.1421C163.738 27.2137 164.03 27.3229 164.302 27.4697L163.942 28.2271C163.734 28.116 163.505 28.0247 163.254 27.9531C163.007 27.8779 162.724 27.8403 162.406 27.8403C161.965 27.8403 161.57 27.9209 161.219 28.082C160.868 28.2396 160.56 28.458 160.295 28.7373C160.034 29.013 159.815 29.3317 159.64 29.6934C159.468 30.055 159.337 30.4399 159.248 30.8481C159.162 31.2528 159.119 31.6628 159.119 32.0781C159.119 32.7656 159.292 33.3099 159.64 33.7109C159.991 34.1084 160.476 34.3071 161.095 34.3071C161.407 34.3071 161.708 34.2767 161.998 34.2158C162.291 34.1549 162.576 34.078 162.852 33.9849V34.7798C162.572 34.88 162.284 34.9588 161.987 35.0161C161.693 35.077 161.344 35.1074 160.939 35.1074ZM166.536 35.1074C166.099 35.1074 165.716 35.0251 165.387 34.8604C165.061 34.6921 164.807 34.445 164.624 34.1191C164.445 33.7933 164.355 33.3887 164.355 32.9053C164.355 32.4863 164.4 32.0835 164.49 31.6968C164.583 31.3101 164.717 30.9538 164.893 30.6279C165.068 30.3021 165.281 30.0174 165.532 29.7739C165.782 29.5304 166.067 29.3424 166.386 29.21C166.708 29.0739 167.059 29.0059 167.438 29.0059C167.693 29.0059 167.945 29.0309 168.196 29.0811C168.45 29.1276 168.679 29.1956 168.883 29.2852L168.631 30.0371C168.48 29.9655 168.303 29.901 168.099 29.8438C167.895 29.7865 167.677 29.7578 167.444 29.7578C167.118 29.7578 166.821 29.8402 166.552 30.0049C166.287 30.1696 166.058 30.3988 165.865 30.6924C165.675 30.9824 165.528 31.3154 165.424 31.6914C165.32 32.0674 165.269 32.4684 165.269 32.8945C165.269 33.1989 165.322 33.4621 165.43 33.6841C165.537 33.9025 165.691 34.0708 165.892 34.189C166.096 34.3071 166.339 34.3662 166.622 34.3662C166.883 34.3662 167.129 34.3304 167.358 34.2588C167.591 34.1872 167.818 34.1012 168.04 34.001V34.7637C167.843 34.8639 167.618 34.9463 167.363 35.0107C167.113 35.0752 166.837 35.1074 166.536 35.1074ZM169.265 35L170.924 27.1475H172.756C173.708 27.1475 174.453 27.4053 174.99 27.9209C175.531 28.4329 175.801 29.2207 175.801 30.2842C175.801 30.8213 175.737 31.328 175.608 31.8042C175.479 32.2804 175.287 32.7137 175.033 33.104C174.779 33.4943 174.466 33.8309 174.093 34.1138C173.721 34.3966 173.289 34.6151 172.799 34.769C172.308 34.923 171.762 35 171.161 35H169.265ZM170.333 34.2158H171.214C171.687 34.2158 172.115 34.1514 172.498 34.0225C172.881 33.89 173.218 33.7038 173.508 33.4639C173.801 33.224 174.047 32.9411 174.244 32.6152C174.444 32.2858 174.595 31.9242 174.695 31.5303C174.795 31.1328 174.845 30.7139 174.845 30.2734C174.845 29.4499 174.645 28.8537 174.244 28.4849C173.846 28.1125 173.311 27.9263 172.638 27.9263H171.671L170.333 34.2158ZM178.283 35.1074C177.96 35.1074 177.679 35.0322 177.439 34.8818C177.2 34.7314 177.013 34.5076 176.881 34.2104C176.748 33.9097 176.682 33.5373 176.682 33.0933C176.682 32.6707 176.725 32.2607 176.811 31.8633C176.897 31.4622 177.021 31.0898 177.182 30.7461C177.346 30.4023 177.547 30.1016 177.783 29.8438C178.02 29.5824 178.288 29.38 178.589 29.2368C178.893 29.09 179.226 29.0166 179.588 29.0166C179.864 29.0166 180.1 29.0667 180.297 29.167C180.494 29.2673 180.657 29.3979 180.786 29.5591C180.918 29.7166 181.022 29.8867 181.097 30.0693H181.151C181.172 29.9046 181.194 29.7453 181.215 29.5913C181.237 29.4338 181.262 29.2744 181.291 29.1133C181.323 28.9521 181.359 28.7856 181.398 28.6138L181.812 26.6426H182.698L180.925 35H180.189L180.334 33.8613H180.297C180.125 34.0833 179.937 34.2892 179.733 34.479C179.532 34.6688 179.312 34.821 179.072 34.9355C178.832 35.0501 178.569 35.1074 178.283 35.1074ZM178.583 34.3662C178.752 34.3662 178.922 34.325 179.094 34.2427C179.269 34.1603 179.439 34.0439 179.604 33.8936C179.769 33.7396 179.923 33.5588 180.066 33.3511C180.209 33.1434 180.334 32.9142 180.442 32.6636C180.553 32.4129 180.639 32.1479 180.7 31.8687C180.761 31.5894 180.791 31.3011 180.791 31.0039C180.791 30.6243 180.7 30.3218 180.517 30.0962C180.334 29.8706 180.043 29.7578 179.642 29.7578C179.395 29.7578 179.165 29.8205 178.954 29.9458C178.746 30.0711 178.558 30.243 178.39 30.4614C178.222 30.6799 178.079 30.9323 177.96 31.2188C177.846 31.5016 177.756 31.806 177.692 32.1318C177.631 32.4541 177.601 32.7799 177.601 33.1094C177.601 33.5212 177.683 33.8345 177.848 34.0493C178.012 34.2606 178.258 34.3662 178.583 34.3662ZM182.972 35L184.631 27.1475H188.611L188.439 27.9531H185.367L184.825 30.4937H187.704L187.548 31.2886H184.664L184.041 34.1943H187.118L186.946 35H182.972ZM190.862 35.1074C190.421 35.1074 190.042 35.0197 189.723 34.8442C189.404 34.6652 189.159 34.411 188.987 34.0815C188.819 33.7485 188.735 33.3511 188.735 32.8892C188.735 32.4129 188.803 31.9456 188.939 31.4873C189.079 31.0254 189.277 30.6082 189.535 30.2358C189.793 29.8599 190.103 29.5609 190.464 29.3389C190.83 29.1169 191.238 29.0059 191.689 29.0059C192.23 29.0059 192.64 29.1276 192.919 29.3711C193.198 29.611 193.338 29.9422 193.338 30.3647C193.338 30.6619 193.268 30.9359 193.128 31.1865C192.992 31.4372 192.781 31.6556 192.495 31.8418C192.212 32.0244 191.852 32.1676 191.415 32.2715C190.982 32.3717 190.468 32.4219 189.874 32.4219H189.669C189.662 32.4863 189.655 32.5579 189.648 32.6367C189.644 32.7155 189.643 32.7889 189.643 32.8569C189.643 33.3296 189.757 33.7002 189.986 33.9688C190.215 34.2337 190.559 34.3662 191.018 34.3662C191.3 34.3662 191.567 34.3268 191.818 34.248C192.072 34.1657 192.337 34.0583 192.613 33.9258V34.6938C192.348 34.8156 192.081 34.9159 191.812 34.9946C191.544 35.0698 191.227 35.1074 190.862 35.1074ZM189.798 31.6914H189.927C190.386 31.6914 190.806 31.652 191.189 31.5732C191.573 31.4909 191.881 31.3584 192.113 31.1758C192.346 30.9896 192.462 30.7425 192.462 30.4346C192.462 30.234 192.394 30.0693 192.258 29.9404C192.122 29.8115 191.915 29.7471 191.635 29.7471C191.388 29.7471 191.145 29.8241 190.905 29.978C190.665 30.1284 190.446 30.3486 190.25 30.6387C190.056 30.9287 189.906 31.2796 189.798 31.6914ZM194.133 35L195.792 27.1475H199.772L199.611 27.9531H196.528L195.921 30.8428H198.806L198.634 31.6484H195.744L195.035 35H194.133ZM198.381 37.6426C198.242 37.6426 198.113 37.6318 197.995 37.6104C197.876 37.5889 197.773 37.562 197.683 37.5298V36.7725C197.78 36.8083 197.878 36.8369 197.979 36.8584C198.079 36.8835 198.186 36.896 198.301 36.896C198.566 36.896 198.772 36.7904 198.918 36.5791C199.065 36.3678 199.183 36.0617 199.273 35.6606L200.508 29.7954H199.482L199.558 29.4141L200.648 29.0864L200.777 28.5171C200.859 28.1519 200.958 27.8457 201.072 27.5986C201.19 27.348 201.328 27.1493 201.486 27.0024C201.643 26.8521 201.826 26.7446 202.034 26.6802C202.245 26.6157 202.487 26.5835 202.759 26.5835C202.938 26.5835 203.12 26.605 203.307 26.6479C203.496 26.6873 203.65 26.7339 203.769 26.7876L203.538 27.4697C203.43 27.4303 203.316 27.3963 203.194 27.3677C203.072 27.3354 202.94 27.3193 202.796 27.3193C202.492 27.3193 202.252 27.4053 202.077 27.5771C201.905 27.7454 201.769 28.0605 201.668 28.5225L201.534 29.1133H202.802L202.673 29.7954H201.4L200.143 35.7627C200.057 36.1566 199.941 36.4932 199.794 36.7725C199.647 37.0553 199.459 37.2702 199.23 37.417C199.001 37.5674 198.718 37.6426 198.381 37.6426ZM206.132 35.1074C205.204 35.1074 204.479 34.8478 203.957 34.3286C203.437 33.8058 203.178 33.0771 203.178 32.1426C203.178 31.5625 203.244 31.0164 203.376 30.5044C203.509 29.9888 203.699 29.5197 203.946 29.0972C204.196 28.6711 204.495 28.304 204.843 27.9961C205.194 27.6882 205.584 27.4518 206.014 27.2871C206.447 27.1188 206.912 27.0347 207.41 27.0347C207.879 27.0347 208.293 27.0758 208.651 27.1582C209.009 27.2406 209.351 27.3534 209.677 27.4966L209.328 28.2915C209.052 28.1662 208.755 28.0605 208.436 27.9746C208.117 27.8851 207.772 27.8403 207.399 27.8403C206.938 27.8403 206.508 27.9442 206.11 28.1519C205.716 28.356 205.371 28.6478 205.074 29.0273C204.78 29.4069 204.551 29.8563 204.386 30.3755C204.222 30.8911 204.139 31.4604 204.139 32.0835C204.139 32.5132 204.214 32.8963 204.365 33.2329C204.519 33.5659 204.75 33.8291 205.058 34.0225C205.366 34.2122 205.754 34.3071 206.223 34.3071C206.513 34.3071 206.782 34.2856 207.029 34.2427C207.276 34.1961 207.487 34.1442 207.663 34.0869L208.184 31.6914H206.572L206.744 30.8965H209.263L208.436 34.6938C208.103 34.8156 207.749 34.9159 207.373 34.9946C207 35.0698 206.587 35.1074 206.132 35.1074ZM211.551 37.6426C210.86 37.6426 210.319 37.5101 209.929 37.2451C209.539 36.9837 209.344 36.6149 209.344 36.1387C209.344 35.7555 209.474 35.4225 209.736 35.1396C209.994 34.8604 210.409 34.6258 210.982 34.436C210.846 34.3644 210.742 34.2749 210.67 34.1675C210.602 34.0565 210.568 33.9294 210.568 33.7861C210.568 33.5426 210.658 33.3332 210.837 33.1577C211.016 32.9787 211.267 32.814 211.589 32.6636C211.36 32.5454 211.175 32.3717 211.036 32.1426C210.896 31.9134 210.826 31.6502 210.826 31.353C210.83 30.9985 210.891 30.6745 211.009 30.3809C211.127 30.0872 211.293 29.8366 211.508 29.6289C211.709 29.4355 211.943 29.2852 212.212 29.1777C212.484 29.0703 212.779 29.0166 213.098 29.0166C213.234 29.0166 213.37 29.0256 213.506 29.0435C213.642 29.0614 213.777 29.0882 213.909 29.124H215.896L215.768 29.6665L214.602 29.7847C214.684 29.8957 214.745 30.0264 214.785 30.1768C214.828 30.3271 214.847 30.4937 214.844 30.6763C214.844 31.0272 214.785 31.3441 214.667 31.627C214.548 31.9098 214.38 32.1497 214.162 32.3467C213.965 32.5221 213.73 32.6582 213.458 32.7549C213.189 32.848 212.889 32.8963 212.556 32.8999C212.459 32.8999 212.373 32.8963 212.298 32.8892C212.223 32.882 212.158 32.8713 212.104 32.8569C211.843 32.95 211.65 33.0592 211.524 33.1846C211.399 33.3099 211.336 33.4424 211.336 33.582C211.336 33.6823 211.367 33.7629 211.428 33.8237C211.485 33.8774 211.564 33.9186 211.664 33.9473C211.768 33.9723 211.895 33.9938 212.045 34.0117L212.679 34.0815C213.109 34.1317 213.46 34.2176 213.732 34.3394C214.004 34.4575 214.205 34.6187 214.333 34.8228C214.462 35.0269 214.527 35.2793 214.527 35.5801C214.527 35.9596 214.439 36.2873 214.264 36.563C214.088 36.8423 213.836 37.0697 213.506 37.2451C213.256 37.374 212.966 37.4725 212.636 37.5405C212.31 37.6086 211.949 37.6426 211.551 37.6426ZM211.589 36.9927C211.915 36.9927 212.205 36.964 212.459 36.9067C212.717 36.8494 212.935 36.7671 213.114 36.6597C213.308 36.5415 213.454 36.3983 213.555 36.23C213.659 36.0617 213.71 35.8683 213.71 35.6499C213.71 35.5532 213.694 35.4655 213.662 35.3867C213.633 35.3079 213.587 35.2381 213.522 35.1772C213.422 35.0806 213.279 35.0018 213.093 34.9409C212.907 34.88 212.67 34.8371 212.384 34.812L211.524 34.7261C211.224 34.7905 210.971 34.8854 210.767 35.0107C210.567 35.1396 210.414 35.2918 210.311 35.4673C210.207 35.6427 210.155 35.8397 210.155 36.0581C210.155 36.3517 210.277 36.5809 210.52 36.7456C210.764 36.9103 211.12 36.9927 211.589 36.9927ZM212.593 32.3091C212.901 32.3091 213.161 32.2321 213.372 32.0781C213.587 31.9206 213.752 31.7129 213.866 31.4551C213.981 31.1937 214.038 30.909 214.038 30.6011C214.038 30.4471 214.017 30.311 213.974 30.1929C213.934 30.0711 213.873 29.9709 213.791 29.8921C213.712 29.8097 213.612 29.7471 213.49 29.7041C213.372 29.6611 213.236 29.6396 213.082 29.6396C212.856 29.6396 212.654 29.6844 212.475 29.7739C212.296 29.8599 212.144 29.9798 212.019 30.1338C211.897 30.2878 211.802 30.4668 211.734 30.6709C211.669 30.875 211.637 31.0934 211.637 31.3262C211.637 31.4766 211.657 31.6108 211.696 31.729C211.736 31.8472 211.793 31.9474 211.868 32.0298C212.033 32.216 212.275 32.3091 212.593 32.3091ZM134.256 49L135.325 43.9941C135.375 43.7686 135.425 43.5412 135.475 43.312C135.529 43.0828 135.581 42.868 135.631 42.6675C135.685 42.467 135.731 42.2987 135.771 42.1626C135.663 42.2736 135.552 42.3739 135.438 42.4634C135.323 42.5493 135.192 42.6388 135.045 42.7319L134.02 43.3818L133.601 42.7104L136.055 41.1475H136.839L135.158 49H134.256ZM138.102 49L138.263 48.2373L140.803 45.9438C141.154 45.6252 141.46 45.3405 141.722 45.0898C141.987 44.8392 142.207 44.6029 142.382 44.3809C142.558 44.1553 142.688 43.9279 142.774 43.6987C142.864 43.4696 142.909 43.2189 142.909 42.9468C142.909 42.6066 142.805 42.3309 142.597 42.1196C142.389 41.9084 142.096 41.8027 141.716 41.8027C141.501 41.8027 141.297 41.8332 141.104 41.894C140.911 41.9513 140.723 42.0319 140.54 42.1357C140.361 42.236 140.182 42.3524 140.003 42.4849L139.579 41.8726C139.89 41.6291 140.227 41.4285 140.588 41.271C140.95 41.1134 141.358 41.0347 141.813 41.0347C142.246 41.0347 142.613 41.1099 142.914 41.2603C143.215 41.4106 143.444 41.6183 143.602 41.8833C143.759 42.1483 143.838 42.4562 143.838 42.8071C143.838 43.2368 143.754 43.6325 143.585 43.9941C143.417 44.3522 143.152 44.7228 142.791 45.106C142.429 45.4891 141.956 45.9367 141.373 46.4487L139.434 48.146V48.1836H143.075L142.919 49H138.102ZM146.427 49.1074C146.001 49.1074 145.619 49.0698 145.283 48.9946C144.95 48.9159 144.642 48.8102 144.359 48.6777V47.813C144.613 47.9562 144.926 48.0833 145.299 48.1943C145.675 48.3018 146.054 48.3555 146.438 48.3555C146.742 48.3555 147.012 48.3179 147.249 48.2427C147.485 48.1639 147.684 48.0547 147.845 47.915C148.009 47.7718 148.133 47.5999 148.215 47.3994C148.301 47.1989 148.344 46.9751 148.344 46.728C148.344 46.4201 148.28 46.1623 148.151 45.9546C148.022 45.7433 147.836 45.584 147.592 45.4766C147.352 45.3691 147.059 45.3154 146.711 45.3154H145.992L146.142 44.5742H146.878C147.154 44.5742 147.417 44.5366 147.667 44.4614C147.922 44.3862 148.147 44.277 148.344 44.1338C148.541 43.987 148.695 43.8079 148.806 43.5967C148.921 43.3854 148.978 43.1437 148.978 42.8716C148.978 42.5278 148.869 42.2629 148.65 42.0767C148.436 41.8869 148.158 41.792 147.818 41.792C147.474 41.792 147.155 41.8511 146.862 41.9692C146.572 42.0874 146.284 42.2467 145.997 42.4473L145.578 41.8135C145.886 41.5915 146.226 41.4071 146.599 41.2603C146.975 41.1099 147.406 41.0347 147.893 41.0347C148.323 41.0347 148.686 41.1081 148.983 41.2549C149.281 41.3981 149.506 41.6004 149.66 41.8618C149.814 42.1196 149.891 42.4204 149.891 42.7642C149.891 43.1401 149.809 43.4785 149.644 43.7793C149.479 44.0801 149.245 44.3307 148.94 44.5312C148.64 44.7318 148.28 44.8696 147.861 44.9448V44.9932C148.28 45.0684 148.622 45.2528 148.887 45.5464C149.155 45.8364 149.29 46.2178 149.29 46.6904C149.29 47.0055 149.232 47.3081 149.118 47.5981C149.007 47.8882 148.835 48.146 148.602 48.3716C148.369 48.5972 148.072 48.7762 147.71 48.9087C147.349 49.0412 146.921 49.1074 146.427 49.1074ZM153.393 49L153.791 47.1792H150.251L150.407 46.3735L154.902 41.1421H155.928L154.833 46.3843H156.062L155.891 47.1792H154.65L154.258 49H153.393ZM151.331 46.3843H153.957L154.392 44.3433C154.453 44.0711 154.519 43.7936 154.591 43.5107C154.662 43.2243 154.734 42.9539 154.806 42.6997C154.877 42.4455 154.936 42.2324 154.983 42.0605H154.945C154.849 42.2074 154.723 42.3846 154.569 42.5923C154.415 42.8 154.285 42.9647 154.177 43.0864L151.331 46.3843ZM158.442 49.1074C158.209 49.1074 157.985 49.0913 157.771 49.0591C157.556 49.0269 157.353 48.9785 157.164 48.9141C156.974 48.8496 156.8 48.7708 156.643 48.6777V47.813C156.9 47.9741 157.183 48.1048 157.491 48.2051C157.799 48.3053 158.118 48.3555 158.447 48.3555C158.827 48.3555 159.154 48.3053 159.43 48.2051C159.709 48.1012 159.939 47.9598 160.118 47.7808C160.297 47.5981 160.429 47.3887 160.515 47.1523C160.601 46.9124 160.644 46.6564 160.644 46.3843C160.644 45.9259 160.51 45.5679 160.241 45.3101C159.973 45.0487 159.604 44.918 159.135 44.918C158.906 44.918 158.693 44.9377 158.496 44.9771C158.302 45.0129 158.084 45.0612 157.84 45.1221L157.459 44.8267L158.528 41.1475H162.132L161.96 41.9639H159.129L158.437 44.3271C158.573 44.2949 158.721 44.2663 158.882 44.2412C159.047 44.2161 159.235 44.2036 159.446 44.2036C159.88 44.2036 160.254 44.2878 160.569 44.4561C160.888 44.6243 161.135 44.8625 161.31 45.1704C161.486 45.4784 161.573 45.8454 161.573 46.2715C161.573 46.6152 161.518 46.9554 161.407 47.292C161.296 47.625 161.118 47.9294 160.875 48.2051C160.632 48.4772 160.309 48.6956 159.908 48.8604C159.511 49.0251 159.022 49.1074 158.442 49.1074ZM165.054 49.1074C164.635 49.1074 164.27 49.0179 163.958 48.8389C163.65 48.6598 163.412 48.3931 163.244 48.0386C163.075 47.6805 162.991 47.2347 162.991 46.7012C162.991 46.318 163.025 45.9152 163.093 45.4927C163.161 45.0666 163.265 44.6423 163.405 44.2197C163.544 43.7972 163.72 43.3997 163.931 43.0273C164.146 42.6514 164.398 42.3219 164.688 42.0391C164.9 41.8242 165.136 41.6416 165.397 41.4912C165.659 41.3408 165.947 41.228 166.262 41.1528C166.577 41.0741 166.917 41.0347 167.283 41.0347C167.472 41.0347 167.655 41.0454 167.831 41.0669C168.01 41.0884 168.164 41.1188 168.292 41.1582L168.11 41.9316C167.988 41.8923 167.852 41.86 167.702 41.835C167.555 41.8099 167.381 41.7974 167.181 41.7974C166.708 41.7974 166.269 41.9066 165.865 42.125C165.464 42.3434 165.109 42.689 164.801 43.1616C164.497 43.6343 164.255 44.2555 164.076 45.0254H164.114C164.253 44.8392 164.418 44.6745 164.608 44.5312C164.798 44.388 165.009 44.2752 165.242 44.1929C165.474 44.1105 165.725 44.0693 165.994 44.0693C166.538 44.0693 166.971 44.243 167.293 44.5903C167.619 44.9341 167.782 45.4175 167.782 46.0405C167.782 46.4165 167.725 46.7871 167.61 47.1523C167.499 47.514 167.329 47.8434 167.1 48.1406C166.875 48.4342 166.592 48.6688 166.251 48.8442C165.911 49.0197 165.512 49.1074 165.054 49.1074ZM165.14 48.3555C165.419 48.3555 165.668 48.2946 165.886 48.1729C166.105 48.0475 166.287 47.8792 166.434 47.668C166.584 47.4531 166.699 47.2132 166.778 46.9482C166.857 46.6797 166.896 46.404 166.896 46.1211C166.896 45.695 166.796 45.3691 166.595 45.1436C166.398 44.9144 166.099 44.7998 165.698 44.7998C165.412 44.7998 165.152 44.8625 164.919 44.9878C164.687 45.1131 164.492 45.2653 164.334 45.4443C164.176 45.6234 164.065 45.7952 164.001 45.96C163.972 46.0352 163.947 46.1175 163.926 46.207C163.908 46.2965 163.895 46.3896 163.888 46.4863C163.881 46.5794 163.877 46.6743 163.877 46.771C163.877 46.9715 163.899 47.1667 163.942 47.3564C163.988 47.5462 164.06 47.7163 164.157 47.8667C164.257 48.0171 164.388 48.137 164.549 48.2266C164.71 48.3125 164.907 48.3555 165.14 48.3555ZM169.281 49L173.433 41.937H169.555L169.716 41.1475H174.534L174.399 41.8511L170.248 49H169.281ZM177.106 49.1074C176.612 49.1074 176.202 49.0197 175.876 48.8442C175.551 48.6652 175.307 48.4289 175.146 48.1353C174.985 47.8381 174.904 47.5104 174.904 47.1523C174.904 46.7656 174.99 46.4255 175.162 46.1318C175.334 45.8346 175.579 45.5768 175.898 45.3584C176.217 45.14 176.594 44.9502 177.031 44.7891C176.841 44.653 176.673 44.5062 176.526 44.3486C176.383 44.1875 176.27 44.0049 176.188 43.8008C176.106 43.5967 176.064 43.3586 176.064 43.0864C176.064 42.6603 176.167 42.2933 176.371 41.9854C176.578 41.6774 176.856 41.4411 177.203 41.2764C177.554 41.1081 177.946 41.0239 178.379 41.0239C178.848 41.0239 179.228 41.1063 179.518 41.271C179.812 41.4321 180.027 41.6434 180.163 41.9048C180.299 42.1662 180.367 42.4473 180.367 42.748C180.367 43.1348 180.279 43.4642 180.104 43.7363C179.932 44.0049 179.702 44.2323 179.416 44.4185C179.133 44.6047 178.825 44.7676 178.492 44.9072C178.75 45.0576 178.974 45.2241 179.164 45.4067C179.353 45.5894 179.5 45.8006 179.604 46.0405C179.711 46.2769 179.765 46.5579 179.765 46.8838C179.765 47.2848 179.668 47.6536 179.475 47.9902C179.282 48.3268 178.988 48.5972 178.594 48.8013C178.2 49.0054 177.704 49.1074 177.106 49.1074ZM177.192 48.3662C177.565 48.3662 177.873 48.2982 178.116 48.1621C178.363 48.0225 178.548 47.8416 178.669 47.6196C178.795 47.394 178.857 47.1541 178.857 46.8999C178.857 46.6528 178.813 46.4326 178.723 46.2393C178.637 46.0423 178.507 45.8633 178.331 45.7021C178.156 45.541 177.937 45.3888 177.676 45.2456C177.328 45.353 177.015 45.4837 176.736 45.6377C176.46 45.7881 176.24 45.9814 176.075 46.2178C175.914 46.4505 175.833 46.7459 175.833 47.104C175.833 47.5015 175.961 47.8112 176.215 48.0332C176.469 48.2552 176.795 48.3662 177.192 48.3662ZM177.864 44.499C178.208 44.3701 178.498 44.2305 178.734 44.0801C178.974 43.9261 179.155 43.7489 179.276 43.5483C179.402 43.3442 179.464 43.1061 179.464 42.834C179.464 42.5081 179.359 42.2521 179.147 42.0659C178.94 41.8761 178.66 41.7812 178.31 41.7812C178.041 41.7812 177.803 41.835 177.595 41.9424C177.391 42.0462 177.232 42.1948 177.117 42.3882C177.003 42.5815 176.945 42.8143 176.945 43.0864C176.945 43.423 177.029 43.7005 177.198 43.9189C177.37 44.1374 177.592 44.3307 177.864 44.499ZM181.317 46.8193L182.343 41.1475H183.428L182.042 46.8193H181.317ZM181.253 49.1504C181.077 49.1504 180.941 49.1003 180.845 49C180.752 48.9033 180.705 48.7673 180.705 48.5918C180.705 48.3734 180.766 48.1782 180.888 48.0063C181.013 47.8345 181.21 47.7485 181.479 47.7485C181.636 47.7485 181.761 47.7969 181.854 47.8936C181.951 47.9902 182 48.1281 182 48.3071C182 48.5076 181.939 48.6992 181.817 48.8818C181.695 49.0609 181.507 49.1504 181.253 49.1504ZM184.674 46.8193C184.728 46.4935 184.805 46.2124 184.905 45.9761C185.009 45.7397 185.147 45.5231 185.319 45.3262C185.494 45.1257 185.716 44.9215 185.985 44.7139C186.221 44.5348 186.441 44.3594 186.646 44.1875C186.853 44.012 187.02 43.8205 187.145 43.6128C187.274 43.4015 187.338 43.1527 187.338 42.8662C187.338 42.5368 187.243 42.279 187.054 42.0928C186.868 41.9066 186.601 41.8135 186.253 41.8135C185.981 41.8135 185.713 41.8582 185.448 41.9478C185.183 42.0337 184.929 42.1357 184.685 42.2539L184.363 41.5664C184.66 41.4089 184.982 41.2817 185.33 41.1851C185.677 41.0848 186.017 41.0347 186.35 41.0347C186.927 41.0347 187.385 41.1815 187.725 41.4751C188.069 41.7651 188.241 42.193 188.241 42.7588C188.241 43.0954 188.178 43.3979 188.053 43.6665C187.931 43.9351 187.752 44.1893 187.516 44.4292C187.279 44.6655 186.993 44.909 186.656 45.1597C186.377 45.3638 186.155 45.541 185.99 45.6914C185.829 45.8418 185.706 46.0011 185.62 46.1694C185.534 46.3377 185.46 46.5544 185.399 46.8193H184.674ZM184.669 49.1504C184.504 49.1504 184.374 49.1021 184.277 49.0054C184.184 48.9123 184.137 48.7798 184.137 48.6079C184.137 48.3823 184.2 48.1836 184.325 48.0117C184.454 47.8363 184.653 47.7485 184.921 47.7485C185.075 47.7485 185.199 47.7951 185.292 47.8882C185.385 47.9813 185.432 48.1174 185.432 48.2964C185.432 48.5076 185.369 48.7028 185.244 48.8818C185.118 49.0609 184.927 49.1504 184.669 49.1504ZM189.202 50.7402C189.037 50.443 188.896 50.1243 188.778 49.7842C188.66 49.4476 188.57 49.0931 188.509 48.7207C188.448 48.3447 188.418 47.9562 188.418 47.5552C188.418 46.8999 188.479 46.2786 188.601 45.6914C188.722 45.1042 188.9 44.5474 189.132 44.021C189.365 43.4946 189.648 42.9933 189.981 42.5171C190.318 42.0409 190.699 41.5843 191.125 41.1475H191.958C191.564 41.5771 191.202 42.0337 190.873 42.5171C190.547 43.0005 190.264 43.509 190.024 44.0425C189.784 44.576 189.598 45.1346 189.465 45.7183C189.336 46.3019 189.272 46.9106 189.272 47.5444C189.272 47.9634 189.295 48.3608 189.342 48.7368C189.392 49.1092 189.464 49.4601 189.557 49.7896C189.653 50.1226 189.77 50.4395 189.906 50.7402H189.202ZM190.292 50.7402C190.69 50.3105 191.052 49.854 191.377 49.3706C191.707 48.8872 191.99 48.3787 192.226 47.8452C192.466 47.3081 192.65 46.7477 192.779 46.1641C192.908 45.5804 192.973 44.9717 192.973 44.3379C192.973 43.9189 192.949 43.5251 192.903 43.1562C192.856 42.7839 192.786 42.4312 192.693 42.0981C192.6 41.7616 192.486 41.4447 192.35 41.1475H193.053C193.218 41.4447 193.358 41.7633 193.472 42.1035C193.587 42.4401 193.674 42.7946 193.735 43.167C193.796 43.5394 193.827 43.9297 193.827 44.3379C193.827 44.9932 193.766 45.6144 193.644 46.2017C193.526 46.7889 193.35 47.3457 193.118 47.8721C192.885 48.3949 192.6 48.8944 192.264 49.3706C191.931 49.8468 191.549 50.3034 191.12 50.7402H190.292Z" fill="#161616"/>
<path d="M525.64 28.8877C525.088 28.8877 524.591 28.9834 524.149 29.1748C523.712 29.3617 523.338 29.6351 523.028 29.9951C522.723 30.3506 522.488 30.7812 522.324 31.2871C522.16 31.793 522.078 32.3626 522.078 32.9961C522.078 33.8346 522.208 34.5638 522.468 35.1836C522.732 35.7988 523.124 36.2751 523.644 36.6123C524.168 36.9495 524.822 37.1182 525.605 37.1182C526.052 37.1182 526.471 37.0817 526.863 37.0088C527.26 36.9313 527.645 36.8356 528.019 36.7217V37.7334C527.654 37.8701 527.271 37.9704 526.87 38.0342C526.469 38.1025 525.993 38.1367 525.441 38.1367C524.425 38.1367 523.575 37.9271 522.892 37.5078C522.213 37.084 521.702 36.487 521.36 35.7168C521.023 34.9466 520.854 34.0374 520.854 32.9893C520.854 32.2327 520.959 31.5423 521.169 30.918C521.383 30.2891 521.693 29.7467 522.099 29.291C522.509 28.8353 523.01 28.4844 523.603 28.2383C524.2 27.9876 524.883 27.8623 525.653 27.8623C526.159 27.8623 526.647 27.9124 527.116 28.0127C527.586 28.113 528.009 28.2565 528.388 28.4434L527.923 29.4277C527.604 29.2819 527.253 29.1566 526.87 29.0518C526.492 28.9424 526.082 28.8877 525.64 28.8877ZM536.475 34.2402C536.475 34.8555 536.395 35.4046 536.235 35.8877C536.076 36.3708 535.846 36.7786 535.545 37.1113C535.244 37.444 534.88 37.6992 534.451 37.877C534.027 38.0501 533.547 38.1367 533.009 38.1367C532.507 38.1367 532.047 38.0501 531.628 37.877C531.213 37.6992 530.853 37.444 530.548 37.1113C530.247 36.7786 530.012 36.3708 529.844 35.8877C529.68 35.4046 529.598 34.8555 529.598 34.2402C529.598 33.4199 529.737 32.7227 530.015 32.1484C530.293 31.5697 530.689 31.1299 531.204 30.8291C531.724 30.5238 532.341 30.3711 533.057 30.3711C533.74 30.3711 534.337 30.5238 534.848 30.8291C535.363 31.1344 535.761 31.5765 536.044 32.1553C536.331 32.7295 536.475 33.4245 536.475 34.2402ZM530.773 34.2402C530.773 34.8418 530.853 35.3636 531.013 35.8057C531.172 36.2477 531.418 36.5895 531.751 36.8311C532.084 37.0726 532.512 37.1934 533.036 37.1934C533.556 37.1934 533.982 37.0726 534.314 36.8311C534.652 36.5895 534.9 36.2477 535.06 35.8057C535.219 35.3636 535.299 34.8418 535.299 34.2402C535.299 33.6432 535.219 33.1283 535.06 32.6953C534.9 32.2578 534.654 31.9206 534.321 31.6836C533.989 31.4466 533.558 31.3281 533.029 31.3281C532.25 31.3281 531.678 31.5856 531.313 32.1006C530.953 32.6156 530.773 33.3288 530.773 34.2402ZM541.103 38.1367C540.155 38.1367 539.403 37.8132 538.847 37.166C538.295 36.5189 538.02 35.5573 538.02 34.2812C538.02 32.9915 538.302 32.0186 538.867 31.3623C539.432 30.7015 540.184 30.3711 541.123 30.3711C541.52 30.3711 541.866 30.4235 542.162 30.5283C542.458 30.6331 542.714 30.7744 542.928 30.9521C543.142 31.1253 543.322 31.3236 543.468 31.5469H543.55C543.532 31.4056 543.513 31.2119 543.495 30.9658C543.477 30.7197 543.468 30.5192 543.468 30.3643V27.3633H544.603V38H543.687L543.516 36.9336H543.468C543.326 37.1569 543.146 37.3597 542.928 37.542C542.714 37.7243 542.456 37.8701 542.155 37.9795C541.859 38.0843 541.508 38.1367 541.103 38.1367ZM541.28 37.1934C542.082 37.1934 542.65 36.9655 542.982 36.5098C543.315 36.054 543.481 35.3773 543.481 34.4795V34.2744C543.481 33.3219 543.322 32.5905 543.003 32.0801C542.688 31.5697 542.114 31.3145 541.28 31.3145C540.583 31.3145 540.061 31.5833 539.715 32.1211C539.368 32.6543 539.195 33.3835 539.195 34.3086C539.195 35.2292 539.366 35.9401 539.708 36.4414C540.054 36.9427 540.578 37.1934 541.28 37.1934ZM549.894 30.3711C550.532 30.3711 551.078 30.5124 551.534 30.7949C551.99 31.0775 552.339 31.474 552.58 31.9844C552.822 32.4902 552.942 33.0827 552.942 33.7617V34.4658H547.768C547.781 35.3454 548 36.0153 548.424 36.4756C548.848 36.9359 549.445 37.166 550.215 37.166C550.689 37.166 551.108 37.1227 551.473 37.0361C551.837 36.9495 552.215 36.8219 552.607 36.6533V37.6514C552.229 37.82 551.853 37.943 551.479 38.0205C551.11 38.098 550.673 38.1367 550.167 38.1367C549.447 38.1367 548.818 37.9909 548.28 37.6992C547.747 37.403 547.332 36.9701 547.036 36.4004C546.74 35.8307 546.592 35.1335 546.592 34.3086C546.592 33.502 546.726 32.8047 546.995 32.2168C547.269 31.6243 547.651 31.1686 548.144 30.8496C548.64 30.5306 549.224 30.3711 549.894 30.3711ZM549.88 31.3008C549.274 31.3008 548.791 31.499 548.431 31.8955C548.071 32.292 547.856 32.8457 547.788 33.5566H551.753C551.748 33.11 551.678 32.7181 551.541 32.3809C551.409 32.0391 551.206 31.7747 550.933 31.5879C550.659 31.3965 550.308 31.3008 549.88 31.3008Z" fill="#61656E"/>
<path d="M633.172 33.672H629.944L629.176 36H628.192L631 27.6H632.176L635.008 36H633.964L633.172 33.672ZM630.256 32.808H632.896L631.66 28.86H631.516L630.256 32.808ZM636.491 30.468C636.835 30.268 637.223 30.124 637.655 30.036C638.087 29.948 638.511 29.904 638.927 29.904C639.335 29.904 639.667 29.968 639.923 30.096C640.187 30.224 640.391 30.392 640.535 30.6C640.687 30.8 640.787 31.032 640.835 31.296C640.891 31.552 640.919 31.812 640.919 32.076C640.919 32.38 640.911 32.704 640.895 33.048C640.879 33.392 640.867 33.736 640.859 34.08C640.859 34.48 640.883 34.86 640.931 35.22H641.735V36H640.139L640.031 35.1H639.971C639.923 35.172 639.851 35.264 639.755 35.376C639.659 35.488 639.531 35.6 639.371 35.712C639.219 35.816 639.031 35.908 638.807 35.988C638.583 36.068 638.319 36.108 638.015 36.108C637.423 36.108 636.955 35.956 636.611 35.652C636.267 35.348 636.095 34.932 636.095 34.404C636.095 33.996 636.183 33.656 636.359 33.384C636.543 33.112 636.803 32.904 637.139 32.76C637.475 32.616 637.879 32.532 638.351 32.508C638.831 32.484 639.367 32.516 639.959 32.604C639.999 32.236 640.003 31.932 639.971 31.692C639.947 31.444 639.883 31.248 639.779 31.104C639.683 30.96 639.543 30.86 639.359 30.804C639.183 30.74 638.963 30.708 638.699 30.708C638.339 30.708 637.995 30.76 637.667 30.864C637.339 30.96 637.047 31.06 636.791 31.164L636.491 30.468ZM638.255 35.304C638.479 35.304 638.687 35.268 638.879 35.196C639.071 35.124 639.239 35.032 639.383 34.92C639.527 34.808 639.647 34.688 639.743 34.56C639.839 34.424 639.911 34.296 639.959 34.176V33.336C639.543 33.264 639.159 33.228 638.807 33.228C638.455 33.228 638.151 33.268 637.895 33.348C637.639 33.42 637.439 33.536 637.295 33.696C637.151 33.856 637.079 34.064 637.079 34.32C637.079 34.584 637.167 34.816 637.343 35.016C637.527 35.208 637.831 35.304 638.255 35.304ZM648.655 29.52C648.655 29.72 648.623 29.924 648.559 30.132C648.495 30.34 648.399 30.536 648.271 30.72C648.143 30.896 647.979 31.052 647.779 31.188C647.579 31.324 647.343 31.428 647.071 31.5V31.548C647.311 31.588 647.539 31.656 647.755 31.752C647.979 31.848 648.175 31.98 648.343 32.148C648.511 32.316 648.647 32.52 648.751 32.76C648.855 33 648.907 33.284 648.907 33.612C648.907 34.044 648.815 34.42 648.631 34.74C648.455 35.052 648.219 35.308 647.923 35.508C647.635 35.708 647.303 35.856 646.927 35.952C646.551 36.048 646.167 36.096 645.775 36.096C645.639 36.096 645.479 36.096 645.295 36.096C645.111 36.096 644.919 36.088 644.719 36.072C644.519 36.064 644.319 36.048 644.119 36.024C643.919 36.008 643.743 35.98 643.591 35.94V27.672C643.887 27.624 644.231 27.584 644.623 27.552C645.015 27.52 645.443 27.504 645.907 27.504C646.219 27.504 646.535 27.532 646.855 27.588C647.183 27.636 647.479 27.736 647.743 27.888C648.007 28.032 648.223 28.236 648.391 28.5C648.567 28.764 648.655 29.104 648.655 29.52ZM645.871 35.232C646.127 35.232 646.375 35.2 646.615 35.136C646.855 35.072 647.067 34.976 647.251 34.848C647.435 34.72 647.579 34.56 647.683 34.368C647.795 34.176 647.851 33.948 647.851 33.684C647.851 33.356 647.783 33.092 647.647 32.892C647.519 32.692 647.347 32.536 647.131 32.424C646.923 32.312 646.687 32.236 646.423 32.196C646.159 32.156 645.895 32.136 645.631 32.136H644.587V35.148C644.643 35.164 644.723 35.176 644.827 35.184C644.931 35.192 645.043 35.2 645.163 35.208C645.283 35.216 645.407 35.224 645.535 35.232C645.663 35.232 645.775 35.232 645.871 35.232ZM645.211 31.296C645.347 31.296 645.511 31.292 645.703 31.284C645.895 31.276 646.055 31.264 646.183 31.248C646.375 31.184 646.555 31.108 646.723 31.02C646.891 30.924 647.039 30.812 647.167 30.684C647.303 30.556 647.407 30.412 647.479 30.252C647.559 30.092 647.599 29.916 647.599 29.724C647.599 29.46 647.547 29.24 647.443 29.064C647.347 28.888 647.215 28.748 647.047 28.644C646.879 28.54 646.687 28.468 646.471 28.428C646.255 28.388 646.035 28.368 645.811 28.368C645.547 28.368 645.303 28.376 645.079 28.392C644.863 28.4 644.699 28.416 644.587 28.44V31.296H645.211ZM649.61 27.6H651.53V30.684H651.59C651.798 30.42 652.066 30.216 652.394 30.072C652.722 29.928 653.078 29.856 653.462 29.856C655.222 29.856 656.102 30.872 656.102 32.904C656.102 33.936 655.818 34.728 655.25 35.28C654.682 35.824 653.874 36.096 652.826 36.096C652.33 36.096 651.882 36.048 651.482 35.952C651.082 35.856 650.79 35.744 650.606 35.616V28.404H649.61V27.6ZM653.342 30.66C652.862 30.66 652.474 30.796 652.178 31.068C651.882 31.34 651.666 31.724 651.53 32.22V34.98C651.714 35.076 651.934 35.152 652.19 35.208C652.446 35.264 652.714 35.292 652.994 35.292C653.314 35.292 653.602 35.248 653.858 35.16C654.122 35.064 654.346 34.92 654.53 34.728C654.714 34.528 654.854 34.276 654.95 33.972C655.054 33.668 655.106 33.308 655.106 32.892C655.106 32.588 655.074 32.3 655.01 32.028C654.946 31.756 654.842 31.52 654.698 31.32C654.562 31.112 654.382 30.952 654.158 30.84C653.934 30.72 653.662 30.66 653.342 30.66ZM662.277 28.512C662.141 28.456 661.989 28.416 661.821 28.392C661.661 28.36 661.465 28.344 661.233 28.344C660.905 28.344 660.581 28.404 660.261 28.524C659.949 28.644 659.669 28.84 659.421 29.112C659.181 29.384 658.985 29.74 658.833 30.18C658.689 30.62 658.617 31.16 658.617 31.8C658.617 32.376 658.681 32.88 658.809 33.312C658.945 33.744 659.129 34.104 659.361 34.392C659.601 34.68 659.885 34.896 660.213 35.04C660.549 35.184 660.921 35.256 661.329 35.256C661.537 35.256 661.729 35.24 661.905 35.208C662.089 35.168 662.257 35.116 662.409 35.052V33.852H663.297V35.472L663.309 35.496C663.069 35.68 662.765 35.836 662.397 35.964C662.029 36.084 661.581 36.144 661.053 36.144C660.549 36.144 660.081 36.06 659.649 35.892C659.225 35.716 658.857 35.452 658.545 35.1C658.233 34.748 657.989 34.3 657.813 33.756C657.645 33.204 657.561 32.552 657.561 31.8C657.561 31.016 657.657 30.352 657.849 29.808C658.041 29.256 658.301 28.808 658.629 28.464C658.957 28.112 659.337 27.856 659.769 27.696C660.209 27.536 660.677 27.456 661.173 27.456C661.445 27.456 661.681 27.468 661.881 27.492C662.081 27.508 662.257 27.536 662.409 27.576C662.561 27.608 662.693 27.652 662.805 27.708C662.925 27.764 663.041 27.828 663.153 27.9H663.165V29.796H662.277V28.512ZM669.245 30.924C669.061 30.86 668.861 30.808 668.645 30.768C668.437 30.72 668.229 30.696 668.021 30.696C667.237 30.696 666.653 30.88 666.269 31.248C665.885 31.616 665.693 32.2 665.693 33C665.693 33.352 665.749 33.668 665.861 33.948C665.973 34.22 666.133 34.452 666.341 34.644C666.549 34.836 666.797 34.984 667.085 35.088C667.381 35.192 667.705 35.244 668.057 35.244C668.433 35.244 668.797 35.18 669.149 35.052C669.509 34.924 669.809 34.756 670.049 34.548L670.469 35.244C670.357 35.34 670.217 35.44 670.049 35.544C669.881 35.648 669.685 35.748 669.461 35.844C669.245 35.932 669.001 36.004 668.729 36.06C668.465 36.116 668.177 36.144 667.865 36.144C667.345 36.144 666.885 36.072 666.485 35.928C666.093 35.776 665.765 35.564 665.501 35.292C665.237 35.012 665.037 34.68 664.901 34.296C664.765 33.904 664.697 33.472 664.697 33C664.697 32.496 664.765 32.048 664.901 31.656C665.045 31.264 665.249 30.936 665.513 30.672C665.777 30.408 666.097 30.208 666.473 30.072C666.849 29.928 667.269 29.856 667.733 29.856C668.325 29.856 668.805 29.908 669.173 30.012C669.549 30.116 669.865 30.232 670.121 30.36L670.109 30.396V32.064H669.245V30.924ZM672.132 27.6C672.436 27.56 672.752 27.536 673.08 27.528C673.416 27.512 673.7 27.504 673.932 27.504C674.66 27.504 675.268 27.608 675.756 27.816C676.252 28.024 676.648 28.316 676.944 28.692C677.248 29.06 677.464 29.504 677.592 30.024C677.728 30.544 677.796 31.116 677.796 31.74C677.796 32.308 677.736 32.856 677.616 33.384C677.496 33.904 677.288 34.368 676.992 34.776C676.696 35.176 676.296 35.5 675.792 35.748C675.296 35.988 674.672 36.108 673.92 36.108C673.816 36.108 673.68 36.104 673.512 36.096C673.344 36.096 673.172 36.088 672.996 36.072C672.82 36.064 672.652 36.056 672.492 36.048C672.332 36.04 672.212 36.028 672.132 36.012V27.6ZM673.98 28.392C673.868 28.392 673.724 28.396 673.548 28.404C673.38 28.412 673.24 28.428 673.128 28.452V35.172C673.168 35.18 673.224 35.188 673.296 35.196C673.376 35.196 673.456 35.2 673.536 35.208C673.616 35.208 673.692 35.212 673.764 35.22C673.844 35.22 673.908 35.22 673.956 35.22C674.54 35.22 675.012 35.124 675.372 34.932C675.74 34.74 676.024 34.484 676.224 34.164C676.424 33.836 676.56 33.464 676.632 33.048C676.704 32.624 676.74 32.188 676.74 31.74C676.74 31.348 676.708 30.956 676.644 30.564C676.58 30.164 676.448 29.804 676.248 29.484C676.056 29.164 675.776 28.904 675.408 28.704C675.048 28.496 674.572 28.392 673.98 28.392ZM682.555 27.6H684.499V33.948C684.499 34.02 684.503 34.112 684.511 34.224C684.519 34.328 684.527 34.44 684.535 34.56C684.551 34.68 684.567 34.8 684.583 34.92C684.599 35.032 684.615 35.132 684.631 35.22H685.435V36H683.839L683.719 35.076H683.671C683.495 35.38 683.231 35.636 682.879 35.844C682.535 36.044 682.135 36.144 681.679 36.144C680.775 36.144 680.107 35.892 679.675 35.388C679.251 34.876 679.039 34.084 679.039 33.012C679.039 32.508 679.111 32.064 679.255 31.68C679.399 31.288 679.603 30.964 679.867 30.708C680.139 30.444 680.463 30.244 680.839 30.108C681.215 29.972 681.635 29.904 682.099 29.904C682.267 29.904 682.415 29.908 682.543 29.916C682.679 29.924 682.803 29.936 682.915 29.952C683.027 29.968 683.131 29.992 683.227 30.024C683.331 30.048 683.443 30.076 683.563 30.108V28.404H682.555V27.6ZM681.835 35.34C682.323 35.34 682.707 35.216 682.987 34.968C683.267 34.712 683.459 34.332 683.563 33.828V31.044C683.387 30.924 683.187 30.836 682.963 30.78C682.747 30.724 682.459 30.696 682.099 30.696C681.459 30.696 680.955 30.884 680.587 31.26C680.219 31.628 680.035 32.212 680.035 33.012C680.035 33.34 680.063 33.648 680.119 33.936C680.183 34.216 680.283 34.46 680.419 34.668C680.563 34.876 680.751 35.04 680.983 35.16C681.215 35.28 681.499 35.34 681.835 35.34ZM686.847 27.6H691.779V28.488H687.843V31.236H691.479V32.124H687.843V35.112H691.839V36H686.847V27.6ZM699.106 35.244C698.962 35.372 698.79 35.492 698.59 35.604C698.398 35.716 698.186 35.812 697.954 35.892C697.722 35.972 697.478 36.032 697.222 36.072C696.974 36.12 696.722 36.144 696.466 36.144C695.986 36.144 695.562 36.072 695.194 35.928C694.826 35.776 694.518 35.564 694.27 35.292C694.022 35.012 693.834 34.68 693.706 34.296C693.578 33.912 693.514 33.48 693.514 33C693.514 32.496 693.582 32.048 693.718 31.656C693.862 31.264 694.066 30.936 694.33 30.672C694.594 30.408 694.914 30.208 695.29 30.072C695.666 29.928 696.086 29.856 696.55 29.856C696.886 29.856 697.218 29.9 697.546 29.988C697.874 30.076 698.162 30.244 698.41 30.492C698.666 30.732 698.862 31.068 698.998 31.5C699.134 31.924 699.182 32.476 699.142 33.156H694.498C694.498 33.876 694.69 34.416 695.074 34.776C695.466 35.128 695.986 35.304 696.634 35.304C696.85 35.304 697.062 35.28 697.27 35.232C697.486 35.176 697.69 35.112 697.882 35.04C698.074 34.968 698.242 34.888 698.386 34.8C698.538 34.712 698.654 34.632 698.734 34.56L699.106 35.244ZM696.574 30.648C696.31 30.648 696.058 30.676 695.818 30.732C695.586 30.788 695.378 30.884 695.194 31.02C695.018 31.148 694.87 31.32 694.75 31.536C694.638 31.744 694.566 32.004 694.534 32.316H698.266C698.226 31.788 698.054 31.38 697.75 31.092C697.454 30.796 697.062 30.648 696.574 30.648ZM701.357 27.6H706.169V28.488H702.353V31.356H705.929V32.244H702.353V36H701.357V27.6ZM708.204 36V35.196H709.632V30.804H708.204V30H709.632V29.664C709.632 28.912 709.828 28.368 710.22 28.032C710.612 27.696 711.172 27.528 711.9 27.528C712.164 27.528 712.4 27.544 712.608 27.576C712.816 27.608 713.04 27.672 713.28 27.768L713.064 28.548C712.856 28.46 712.656 28.404 712.464 28.38C712.272 28.348 712.096 28.332 711.936 28.332C711.408 28.332 711.048 28.464 710.856 28.728C710.664 28.984 710.568 29.408 710.568 30H713.052V30.804H710.568V35.196H713.052V36H708.204ZM719.588 28.428C719.316 28.372 718.984 28.344 718.592 28.344C718.256 28.344 717.932 28.404 717.62 28.524C717.316 28.636 717.044 28.828 716.804 29.1C716.572 29.372 716.384 29.728 716.24 30.168C716.104 30.608 716.036 31.152 716.036 31.8C716.036 32.984 716.252 33.856 716.684 34.416C717.124 34.976 717.756 35.256 718.58 35.256C719.092 35.256 719.528 35.156 719.888 34.956V32.616H718.16V31.812H720.74V35.508C720.612 35.604 720.456 35.692 720.272 35.772C720.096 35.852 719.904 35.92 719.696 35.976C719.496 36.032 719.284 36.072 719.06 36.096C718.844 36.128 718.632 36.144 718.424 36.144C717.888 36.144 717.408 36.06 716.984 35.892C716.56 35.716 716.2 35.452 715.904 35.1C715.608 34.74 715.38 34.288 715.22 33.744C715.06 33.192 714.98 32.544 714.98 31.8C714.98 31.024 715.08 30.36 715.28 29.808C715.48 29.256 715.744 28.808 716.072 28.464C716.4 28.112 716.776 27.856 717.2 27.696C717.624 27.536 718.06 27.456 718.508 27.456C718.988 27.456 719.384 27.484 719.696 27.54C720.008 27.588 720.272 27.656 720.488 27.744L720.476 27.792V29.796H719.588V28.428ZM727.827 36.3C727.827 36.676 727.755 37.004 727.611 37.284C727.467 37.572 727.267 37.808 727.011 37.992C726.763 38.176 726.471 38.312 726.135 38.4C725.799 38.496 725.435 38.544 725.043 38.544C724.571 38.544 724.159 38.496 723.807 38.4C723.455 38.304 723.151 38.18 722.895 38.028L723.351 37.176C723.423 37.24 723.515 37.3 723.627 37.356C723.747 37.42 723.883 37.476 724.035 37.524C724.187 37.58 724.347 37.624 724.515 37.656C724.691 37.688 724.863 37.704 725.031 37.704C725.383 37.704 725.675 37.672 725.907 37.608C726.147 37.544 726.339 37.444 726.483 37.308C726.627 37.172 726.731 36.996 726.795 36.78C726.859 36.564 726.891 36.3 726.891 35.988V35.316H726.843C726.659 35.58 726.423 35.784 726.135 35.928C725.847 36.072 725.475 36.144 725.019 36.144C724.107 36.144 723.435 35.892 723.003 35.388C722.579 34.876 722.367 34.084 722.367 33.012C722.367 31.988 722.639 31.216 723.183 30.696C723.727 30.168 724.535 29.904 725.607 29.904C726.103 29.904 726.523 29.94 726.867 30.012C727.219 30.076 727.539 30.16 727.827 30.264V36.3ZM725.151 35.34C725.639 35.34 726.023 35.216 726.303 34.968C726.583 34.712 726.779 34.324 726.891 33.804V30.96C726.539 30.792 726.047 30.708 725.415 30.708C724.775 30.708 724.271 30.896 723.903 31.272C723.535 31.648 723.351 32.224 723.351 33C723.351 33.344 723.383 33.66 723.447 33.948C723.511 34.228 723.611 34.472 723.747 34.68C723.891 34.888 724.075 35.052 724.299 35.172C724.531 35.284 724.815 35.34 725.151 35.34ZM629.524 51.136H631.408V44.824L629.488 46.168L629.02 45.484L631.66 43.6H632.332V51.136H634.18V52H629.524V51.136ZM641.195 45.724C641.195 46.46 640.847 47.28 640.151 48.184C639.455 49.088 638.483 50.072 637.235 51.136H641.459V52H636.131V51.136C636.283 50.992 636.491 50.804 636.755 50.572C637.019 50.34 637.303 50.084 637.607 49.804C637.911 49.516 638.219 49.208 638.531 48.88C638.851 48.552 639.139 48.216 639.395 47.872C639.651 47.528 639.859 47.184 640.019 46.84C640.179 46.496 640.259 46.164 640.259 45.844C640.259 45.364 640.131 44.988 639.875 44.716C639.627 44.436 639.251 44.296 638.747 44.296C638.315 44.296 637.951 44.344 637.655 44.44C637.359 44.536 637.091 44.676 636.851 44.86L636.443 44.2C636.803 43.944 637.183 43.756 637.583 43.636C637.991 43.516 638.435 43.456 638.915 43.456C639.667 43.456 640.235 43.66 640.619 44.068C641.003 44.476 641.195 45.028 641.195 45.724ZM645.367 51.316C645.687 51.316 645.979 51.276 646.243 51.196C646.515 51.108 646.751 50.988 646.951 50.836C647.151 50.684 647.307 50.5 647.419 50.284C647.531 50.068 647.587 49.828 647.587 49.564C647.587 49.012 647.391 48.62 646.999 48.388C646.615 48.148 646.095 48.028 645.439 48.028H644.671V47.452L647.035 44.464H643.447V43.6H648.187V44.464L645.823 47.236H646.015C646.383 47.236 646.719 47.288 647.023 47.392C647.327 47.496 647.591 47.644 647.815 47.836C648.039 48.028 648.211 48.26 648.331 48.532C648.459 48.804 648.523 49.112 648.523 49.456C648.523 49.888 648.439 50.272 648.271 50.608C648.103 50.944 647.875 51.228 647.587 51.46C647.299 51.684 646.959 51.856 646.567 51.976C646.183 52.088 645.771 52.144 645.331 52.144C644.923 52.144 644.567 52.112 644.263 52.048C643.967 51.992 643.695 51.92 643.447 51.832L643.687 50.992C643.895 51.088 644.139 51.168 644.419 51.232C644.699 51.288 645.015 51.316 645.367 51.316ZM656.546 49.384H654.926V52H653.99V49.384H650.114V48.688L654.134 43.6H654.926V48.592H656.546V49.384ZM653.99 45.1L651.218 48.592H653.99V45.1ZM659.853 51.304C660.157 51.304 660.437 51.268 660.693 51.196C660.949 51.116 661.165 51 661.341 50.848C661.525 50.688 661.665 50.492 661.761 50.26C661.865 50.028 661.917 49.756 661.917 49.444C661.917 48.868 661.709 48.432 661.293 48.136C660.885 47.832 660.325 47.68 659.613 47.68L658.485 47.74V43.6H662.601V44.464H659.385V46.9L659.985 46.876C660.873 46.876 661.573 47.092 662.085 47.524C662.597 47.956 662.853 48.572 662.853 49.372C662.853 49.82 662.773 50.216 662.613 50.56C662.461 50.904 662.249 51.196 661.977 51.436C661.705 51.668 661.381 51.844 661.005 51.964C660.637 52.084 660.233 52.144 659.793 52.144C659.553 52.144 659.325 52.124 659.109 52.084C658.893 52.052 658.697 52.012 658.521 51.964C658.345 51.908 658.189 51.852 658.053 51.796C657.925 51.732 657.833 51.676 657.777 51.628L658.161 50.848C658.297 50.928 658.505 51.024 658.785 51.136C659.065 51.248 659.421 51.304 659.853 51.304ZM670.445 49.468C670.445 49.812 670.381 50.144 670.253 50.464C670.133 50.784 669.953 51.068 669.713 51.316C669.473 51.564 669.177 51.764 668.825 51.916C668.473 52.068 668.065 52.144 667.601 52.144C667.169 52.144 666.777 52.076 666.425 51.94C666.073 51.804 665.769 51.612 665.513 51.364C665.257 51.108 665.057 50.796 664.913 50.428C664.777 50.06 664.709 49.648 664.709 49.192C664.709 48.44 664.817 47.728 665.033 47.056C665.257 46.384 665.565 45.792 665.957 45.28C666.357 44.768 666.829 44.352 667.373 44.032C667.925 43.712 668.529 43.52 669.185 43.456L669.353 44.224C668.849 44.288 668.385 44.436 667.961 44.668C667.545 44.9 667.181 45.188 666.869 45.532C666.557 45.876 666.301 46.256 666.101 46.672C665.909 47.088 665.785 47.512 665.729 47.944C665.793 47.84 665.885 47.732 666.005 47.62C666.133 47.508 666.281 47.412 666.449 47.332C666.625 47.244 666.817 47.172 667.025 47.116C667.241 47.06 667.473 47.032 667.721 47.032C668.145 47.032 668.525 47.092 668.861 47.212C669.197 47.324 669.481 47.488 669.713 47.704C669.953 47.912 670.133 48.168 670.253 48.472C670.381 48.768 670.445 49.1 670.445 49.468ZM669.461 49.564C669.461 49.004 669.305 48.576 668.993 48.28C668.681 47.984 668.201 47.836 667.553 47.836C667.321 47.836 667.105 47.864 666.905 47.92C666.705 47.976 666.525 48.052 666.365 48.148C666.205 48.236 666.065 48.34 665.945 48.46C665.825 48.58 665.733 48.7 665.669 48.82C665.653 48.932 665.645 49.02 665.645 49.084C665.645 49.148 665.645 49.224 665.645 49.312C665.645 49.552 665.685 49.796 665.765 50.044C665.845 50.284 665.965 50.5 666.125 50.692C666.293 50.884 666.501 51.04 666.749 51.16C666.997 51.28 667.289 51.34 667.625 51.34C667.897 51.34 668.145 51.292 668.369 51.196C668.593 51.1 668.785 50.972 668.945 50.812C669.113 50.652 669.241 50.464 669.329 50.248C669.417 50.032 669.461 49.804 669.461 49.564ZM672.66 52L676.332 44.464H672V43.6H677.304V44.38L673.644 52H672.66ZM679.267 49.96C679.267 48.992 679.855 48.212 681.031 47.62C680.807 47.5 680.599 47.376 680.407 47.248C680.215 47.12 680.047 46.976 679.903 46.816C679.767 46.656 679.659 46.472 679.579 46.264C679.499 46.056 679.459 45.816 679.459 45.544C679.459 45.248 679.519 44.972 679.639 44.716C679.759 44.46 679.931 44.24 680.155 44.056C680.379 43.872 680.651 43.728 680.971 43.624C681.291 43.512 681.647 43.456 682.039 43.456C682.407 43.456 682.739 43.504 683.035 43.6C683.339 43.696 683.595 43.832 683.803 44.008C684.019 44.176 684.183 44.376 684.295 44.608C684.407 44.84 684.463 45.088 684.463 45.352C684.463 45.808 684.347 46.228 684.115 46.612C683.891 46.988 683.527 47.332 683.023 47.644C683.255 47.764 683.471 47.892 683.671 48.028C683.871 48.164 684.043 48.316 684.187 48.484C684.339 48.652 684.455 48.844 684.535 49.06C684.623 49.268 684.667 49.508 684.667 49.78C684.667 50.116 684.607 50.432 684.487 50.728C684.367 51.016 684.187 51.264 683.947 51.472C683.715 51.68 683.427 51.844 683.083 51.964C682.739 52.084 682.339 52.144 681.883 52.144C681.459 52.144 681.083 52.084 680.755 51.964C680.427 51.844 680.151 51.684 679.927 51.484C679.711 51.284 679.547 51.052 679.435 50.788C679.323 50.524 679.267 50.248 679.267 49.96ZM683.719 49.84C683.719 49.608 683.663 49.404 683.551 49.228C683.447 49.044 683.303 48.88 683.119 48.736C682.943 48.592 682.739 48.46 682.507 48.34C682.275 48.22 682.035 48.1 681.787 47.98C681.211 48.26 680.799 48.568 680.551 48.904C680.311 49.24 680.191 49.556 680.191 49.852C680.191 50.052 680.227 50.244 680.299 50.428C680.379 50.604 680.491 50.76 680.635 50.896C680.787 51.032 680.971 51.14 681.187 51.22C681.411 51.3 681.667 51.34 681.955 51.34C682.187 51.34 682.407 51.308 682.615 51.244C682.831 51.18 683.019 51.088 683.179 50.968C683.347 50.84 683.479 50.684 683.575 50.5C683.671 50.308 683.719 50.088 683.719 49.84ZM680.395 45.508C680.395 45.732 680.447 45.932 680.551 46.108C680.655 46.284 680.791 46.444 680.959 46.588C681.135 46.724 681.335 46.852 681.559 46.972C681.783 47.084 682.019 47.196 682.267 47.308C682.691 47.028 683.007 46.748 683.215 46.468C683.431 46.188 683.539 45.88 683.539 45.544C683.539 45.344 683.495 45.168 683.407 45.016C683.327 44.856 683.215 44.72 683.071 44.608C682.935 44.496 682.775 44.412 682.591 44.356C682.407 44.292 682.215 44.26 682.015 44.26C681.759 44.26 681.531 44.296 681.331 44.368C681.131 44.44 680.963 44.536 680.827 44.656C680.691 44.776 680.583 44.912 680.503 45.064C680.431 45.208 680.395 45.356 680.395 45.508ZM688.671 43.6H689.667V47.764L689.463 49.876H688.875L688.671 47.764V43.6ZM688.467 51.448C688.467 51.232 688.527 51.064 688.646 50.944C688.775 50.816 688.943 50.752 689.151 50.752C689.367 50.752 689.539 50.816 689.667 50.944C689.795 51.064 689.859 51.232 689.859 51.448C689.859 51.656 689.795 51.824 689.667 51.952C689.539 52.08 689.367 52.144 689.151 52.144C688.943 52.144 688.775 52.08 688.646 51.952C688.527 51.824 688.467 51.656 688.467 51.448ZM695.542 49.876C695.534 49.836 695.53 49.792 695.53 49.744C695.53 49.696 695.53 49.652 695.53 49.612C695.53 49.276 695.59 48.988 695.71 48.748C695.838 48.508 695.994 48.296 696.178 48.112C696.362 47.92 696.558 47.748 696.766 47.596C696.982 47.444 697.182 47.284 697.366 47.116C697.55 46.94 697.702 46.748 697.822 46.54C697.95 46.332 698.014 46.084 698.014 45.796C698.014 45.644 697.978 45.48 697.906 45.304C697.834 45.128 697.722 44.964 697.57 44.812C697.426 44.66 697.234 44.536 696.994 44.44C696.762 44.344 696.482 44.296 696.154 44.296C695.89 44.296 695.65 44.328 695.434 44.392C695.226 44.456 695.034 44.536 694.858 44.632C694.69 44.728 694.534 44.836 694.39 44.956C694.254 45.068 694.13 45.176 694.018 45.28L693.406 44.728C693.742 44.304 694.174 43.988 694.702 43.78C695.238 43.564 695.85 43.456 696.538 43.456C696.954 43.456 697.318 43.524 697.63 43.66C697.942 43.796 698.198 43.972 698.398 44.188C698.606 44.396 698.758 44.632 698.854 44.896C698.958 45.152 699.01 45.404 699.01 45.652C699.01 46.036 698.942 46.36 698.806 46.624C698.678 46.88 698.514 47.112 698.314 47.32C698.114 47.52 697.898 47.704 697.666 47.872C697.442 48.032 697.23 48.208 697.03 48.4C696.83 48.584 696.662 48.792 696.526 49.024C696.398 49.256 696.334 49.54 696.334 49.876H695.542ZM695.302 51.448C695.302 51.232 695.362 51.064 695.482 50.944C695.61 50.816 695.778 50.752 695.986 50.752C696.202 50.752 696.374 50.816 696.502 50.944C696.63 51.064 696.694 51.232 696.694 51.448C696.694 51.656 696.63 51.824 696.502 51.952C696.374 52.08 696.202 52.144 695.986 52.144C695.778 52.144 695.61 52.08 695.482 51.952C695.362 51.824 695.302 51.656 695.302 51.448ZM705.137 54.544C704.601 54.408 704.097 54.204 703.625 53.932C703.161 53.668 702.753 53.32 702.401 52.888C702.057 52.456 701.781 51.928 701.573 51.304C701.373 50.68 701.273 49.94 701.273 49.084C701.273 48.236 701.377 47.496 701.585 46.864C701.793 46.224 702.073 45.684 702.425 45.244C702.777 44.796 703.185 44.44 703.649 44.176C704.121 43.904 704.617 43.712 705.137 43.6L705.437 44.356C704.965 44.492 704.533 44.672 704.141 44.896C703.749 45.112 703.409 45.404 703.121 45.772C702.841 46.132 702.621 46.584 702.461 47.128C702.309 47.664 702.233 48.316 702.233 49.084C702.233 49.86 702.325 50.524 702.509 51.076C702.701 51.62 702.949 52.072 703.253 52.432C703.565 52.8 703.909 53.084 704.285 53.284C704.669 53.492 705.053 53.636 705.437 53.716L705.137 54.544ZM708.864 53.716C709.248 53.636 709.628 53.492 710.004 53.284C710.388 53.084 710.732 52.8 711.036 52.432C711.348 52.072 711.596 51.62 711.78 51.076C711.972 50.524 712.068 49.86 712.068 49.084C712.068 48.316 711.988 47.664 711.828 47.128C711.676 46.584 711.456 46.132 711.168 45.772C710.888 45.404 710.552 45.112 710.16 44.896C709.768 44.672 709.336 44.492 708.864 44.356L709.164 43.6C709.684 43.712 710.176 43.904 710.64 44.176C711.112 44.44 711.524 44.796 711.876 45.244C712.228 45.684 712.508 46.224 712.716 46.864C712.924 47.496 713.028 48.236 713.028 49.084C713.028 49.94 712.924 50.68 712.716 51.304C712.516 51.928 712.24 52.456 711.888 52.888C711.544 53.32 711.136 53.668 710.664 53.932C710.2 54.204 709.7 54.408 709.164 54.544L708.864 53.716Z" fill="#161616"/>
</svg>
