<svg width="880" height="140" viewBox="0 0 880 140" fill="none" xmlns="http://www.w3.org/2000/svg">
<rect width="880" height="140" fill="#F2F4F6"/>
<path d="M313.564 44.8623C313.564 45.3278 313.45 45.7288 313.221 46.0654C312.995 46.402 312.669 46.6598 312.243 46.8389C311.821 47.0179 311.316 47.1074 310.729 47.1074C310.442 47.1074 310.168 47.0913 309.907 47.0591C309.645 47.0269 309.398 46.9803 309.166 46.9194C308.936 46.855 308.727 46.778 308.537 46.6885V45.4746C308.856 45.6143 309.212 45.7414 309.606 45.856C310 45.967 310.401 46.0225 310.809 46.0225C311.142 46.0225 311.418 45.9795 311.636 45.8936C311.858 45.804 312.023 45.6787 312.13 45.5176C312.238 45.3529 312.292 45.1613 312.292 44.9429C312.292 44.7101 312.229 44.5132 312.104 44.3521C311.978 44.1909 311.788 44.0441 311.534 43.9116C311.284 43.7756 310.968 43.6305 310.589 43.4766C310.331 43.3727 310.084 43.2546 309.848 43.1221C309.615 42.9896 309.407 42.8338 309.225 42.6548C309.042 42.4757 308.897 42.2645 308.79 42.021C308.686 41.7739 308.634 41.4839 308.634 41.1509C308.634 40.7069 308.739 40.3273 308.951 40.0122C309.166 39.6971 309.466 39.4554 309.853 39.2871C310.243 39.1188 310.698 39.0347 311.217 39.0347C311.629 39.0347 312.016 39.0776 312.377 39.1636C312.743 39.2495 313.101 39.3713 313.452 39.5288L313.043 40.5654C312.721 40.4329 312.408 40.3273 312.104 40.2485C311.803 40.1698 311.495 40.1304 311.18 40.1304C310.908 40.1304 310.677 40.1715 310.487 40.2539C310.297 40.3363 310.152 40.4526 310.052 40.603C309.955 40.7498 309.907 40.9253 309.907 41.1294C309.907 41.3586 309.962 41.5519 310.073 41.7095C310.188 41.8634 310.363 42.0049 310.6 42.1338C310.84 42.2627 311.147 42.4059 311.523 42.5635C311.957 42.7425 312.324 42.9305 312.625 43.1274C312.929 43.3244 313.162 43.5607 313.323 43.8364C313.484 44.1086 313.564 44.4505 313.564 44.8623ZM317.319 40.9414C317.849 40.9414 318.304 41.0506 318.683 41.269C319.063 41.4875 319.354 41.7972 319.559 42.1982C319.763 42.5993 319.865 43.0791 319.865 43.6377V44.3145H315.896C315.91 44.891 316.064 45.335 316.357 45.6465C316.655 45.958 317.07 46.1138 317.604 46.1138C317.983 46.1138 318.323 46.078 318.624 46.0063C318.928 45.9312 319.242 45.8219 319.564 45.6787V46.7046C319.267 46.8442 318.964 46.9463 318.656 47.0107C318.348 47.0752 317.979 47.1074 317.55 47.1074C316.966 47.1074 316.452 46.9946 316.008 46.769C315.568 46.5399 315.222 46.1997 314.972 45.7485C314.725 45.2974 314.601 44.737 314.601 44.0674C314.601 43.4014 314.714 42.8356 314.939 42.3701C315.165 41.9046 315.482 41.5501 315.89 41.3066C316.298 41.0632 316.775 40.9414 317.319 40.9414ZM317.319 41.8921C316.921 41.8921 316.599 42.021 316.352 42.2788C316.109 42.5366 315.965 42.9144 315.922 43.4121H318.629C318.626 43.1149 318.576 42.8517 318.479 42.6226C318.386 42.3934 318.243 42.2144 318.049 42.0854C317.86 41.9565 317.616 41.8921 317.319 41.8921ZM324.301 40.9414C324.402 40.9414 324.511 40.9468 324.629 40.9575C324.747 40.9683 324.849 40.9826 324.935 41.0005L324.817 42.1821C324.742 42.1606 324.649 42.1445 324.538 42.1338C324.43 42.123 324.333 42.1177 324.248 42.1177C324.022 42.1177 323.807 42.1553 323.603 42.2305C323.399 42.3021 323.218 42.4131 323.061 42.5635C322.903 42.7103 322.779 42.8947 322.69 43.1167C322.6 43.3387 322.556 43.5965 322.556 43.8901V47H321.288V41.0542H322.276L322.448 42.1016H322.507C322.625 41.8903 322.772 41.6969 322.948 41.5215C323.123 41.346 323.324 41.2064 323.549 41.1025C323.778 40.9951 324.029 40.9414 324.301 40.9414ZM327.395 47L325.134 41.0542H326.471L327.696 44.5454C327.775 44.7674 327.846 45.0073 327.911 45.2651C327.975 45.5229 328.02 45.7396 328.045 45.915H328.088C328.113 45.7324 328.161 45.514 328.233 45.2598C328.305 45.002 328.378 44.7638 328.453 44.5454L329.678 41.0542H331.01L328.749 47H327.395ZM333.174 41.0542V47H331.912V41.0542H333.174ZM332.551 38.7769C332.745 38.7769 332.911 38.8288 333.051 38.9326C333.194 39.0365 333.266 39.2155 333.266 39.4697C333.266 39.7204 333.194 39.8994 333.051 40.0068C332.911 40.1107 332.745 40.1626 332.551 40.1626C332.351 40.1626 332.181 40.1107 332.041 40.0068C331.905 39.8994 331.837 39.7204 331.837 39.4697C331.837 39.2155 331.905 39.0365 332.041 38.9326C332.181 38.8288 332.351 38.7769 332.551 38.7769ZM337.38 47.1074C336.818 47.1074 336.331 46.9982 335.919 46.7798C335.507 46.5614 335.19 46.2266 334.968 45.7754C334.746 45.3242 334.635 44.7513 334.635 44.0566C334.635 43.3333 334.757 42.7425 335 42.2842C335.244 41.8258 335.581 41.4875 336.01 41.269C336.444 41.0506 336.939 40.9414 337.498 40.9414C337.853 40.9414 338.173 40.9772 338.459 41.0488C338.75 41.1169 338.995 41.201 339.195 41.3013L338.819 42.311C338.601 42.2215 338.377 42.1463 338.148 42.0854C337.919 42.0246 337.699 41.9941 337.487 41.9941C337.14 41.9941 336.85 42.0711 336.617 42.2251C336.388 42.3791 336.216 42.6082 336.102 42.9126C335.991 43.217 335.935 43.5947 335.935 44.0459C335.935 44.4827 335.992 44.8516 336.107 45.1523C336.222 45.4495 336.392 45.6751 336.617 45.8291C336.843 45.9795 337.12 46.0547 337.45 46.0547C337.776 46.0547 338.067 46.0153 338.325 45.9365C338.583 45.8577 338.826 45.7557 339.056 45.6304V46.7261C338.83 46.855 338.588 46.9499 338.331 47.0107C338.073 47.0752 337.756 47.1074 337.38 47.1074ZM342.821 40.9414C343.351 40.9414 343.806 41.0506 344.185 41.269C344.565 41.4875 344.856 41.7972 345.061 42.1982C345.265 42.5993 345.367 43.0791 345.367 43.6377V44.3145H341.397C341.412 44.891 341.566 45.335 341.859 45.6465C342.157 45.958 342.572 46.1138 343.105 46.1138C343.485 46.1138 343.825 46.078 344.126 46.0063C344.43 45.9312 344.744 45.8219 345.066 45.6787V46.7046C344.769 46.8442 344.466 46.9463 344.158 47.0107C343.85 47.0752 343.481 47.1074 343.052 47.1074C342.468 47.1074 341.954 46.9946 341.51 46.769C341.07 46.5399 340.724 46.1997 340.474 45.7485C340.227 45.2974 340.103 44.737 340.103 44.0674C340.103 43.4014 340.216 42.8356 340.441 42.3701C340.667 41.9046 340.984 41.5501 341.392 41.3066C341.8 41.0632 342.277 40.9414 342.821 40.9414ZM342.821 41.8921C342.423 41.8921 342.101 42.021 341.854 42.2788C341.611 42.5366 341.467 42.9144 341.424 43.4121H344.131C344.128 43.1149 344.078 42.8517 343.981 42.6226C343.888 42.3934 343.745 42.2144 343.551 42.0854C343.361 41.9565 343.118 41.8921 342.821 41.8921ZM351.646 47.1074C350.937 47.1074 350.367 46.8496 349.938 46.334C349.511 45.8148 349.298 45.0503 349.298 44.0405C349.298 43.02 349.515 42.2484 349.948 41.7256C350.385 41.2028 350.96 40.9414 351.672 40.9414C351.973 40.9414 352.236 40.9826 352.462 41.0649C352.688 41.1437 352.881 41.2511 353.042 41.3872C353.207 41.5233 353.346 41.6755 353.461 41.8438H353.52C353.502 41.7327 353.481 41.5734 353.456 41.3657C353.434 41.1545 353.423 40.9593 353.423 40.7803V38.6426H354.691V47H353.703L353.477 46.189H353.423C353.316 46.3608 353.18 46.5166 353.015 46.6562C352.854 46.7923 352.661 46.9015 352.435 46.9839C352.213 47.0662 351.95 47.1074 351.646 47.1074ZM352 46.0815C352.541 46.0815 352.922 45.9258 353.144 45.6143C353.366 45.3027 353.481 44.8354 353.488 44.2124V44.0459C353.488 43.3799 353.38 42.8696 353.166 42.5151C352.951 42.1571 352.559 41.978 351.989 41.978C351.535 41.978 351.187 42.1624 350.947 42.5312C350.711 42.8965 350.593 43.4067 350.593 44.062C350.593 44.7173 350.711 45.2186 350.947 45.5659C351.187 45.9097 351.538 46.0815 352 46.0815ZM358.87 40.9414C359.4 40.9414 359.854 41.0506 360.234 41.269C360.613 41.4875 360.905 41.7972 361.109 42.1982C361.313 42.5993 361.416 43.0791 361.416 43.6377V44.3145H357.446C357.461 44.891 357.615 45.335 357.908 45.6465C358.205 45.958 358.621 46.1138 359.154 46.1138C359.534 46.1138 359.874 46.078 360.175 46.0063C360.479 45.9312 360.792 45.8219 361.115 45.6787V46.7046C360.818 46.8442 360.515 46.9463 360.207 47.0107C359.899 47.0752 359.53 47.1074 359.101 47.1074C358.517 47.1074 358.003 46.9946 357.559 46.769C357.119 46.5399 356.773 46.1997 356.522 45.7485C356.275 45.2974 356.152 44.737 356.152 44.0674C356.152 43.4014 356.265 42.8356 356.49 42.3701C356.716 41.9046 357.033 41.5501 357.441 41.3066C357.849 41.0632 358.325 40.9414 358.87 40.9414ZM358.87 41.8921C358.472 41.8921 358.15 42.021 357.903 42.2788C357.659 42.5366 357.516 42.9144 357.473 43.4121H360.18C360.177 43.1149 360.126 42.8517 360.03 42.6226C359.937 42.3934 359.793 42.2144 359.6 42.0854C359.41 41.9565 359.167 41.8921 358.87 41.8921ZM366.835 45.3027C366.835 45.693 366.74 46.0225 366.55 46.291C366.361 46.5596 366.083 46.7637 365.718 46.9033C365.356 47.0394 364.912 47.1074 364.386 47.1074C363.97 47.1074 363.612 47.077 363.312 47.0161C363.014 46.9588 362.733 46.8693 362.468 46.7476V45.6572C362.751 45.7897 363.068 45.9043 363.419 46.001C363.773 46.0977 364.108 46.146 364.423 46.146C364.839 46.146 365.138 46.0815 365.32 45.9526C365.503 45.8201 365.594 45.6447 365.594 45.4263C365.594 45.2974 365.557 45.1828 365.481 45.0825C365.41 44.9787 365.274 44.873 365.073 44.7656C364.876 44.6546 364.586 44.5221 364.203 44.3682C363.827 44.2178 363.51 44.0674 363.252 43.917C362.995 43.7666 362.799 43.5858 362.667 43.3745C362.535 43.1597 362.468 42.8857 362.468 42.5527C362.468 42.0264 362.676 41.6271 363.091 41.355C363.51 41.0793 364.063 40.9414 364.751 40.9414C365.116 40.9414 365.46 40.979 365.782 41.0542C366.108 41.1258 366.427 41.2314 366.738 41.3711L366.341 42.3218C366.072 42.2036 365.802 42.1069 365.53 42.0317C365.261 41.953 364.987 41.9136 364.708 41.9136C364.382 41.9136 364.133 41.9637 363.961 42.064C363.793 42.1642 363.709 42.3075 363.709 42.4937C363.709 42.6333 363.75 42.7515 363.833 42.8481C363.915 42.9448 364.056 43.0415 364.257 43.1382C364.461 43.2349 364.744 43.3548 365.105 43.498C365.46 43.6341 365.766 43.7773 366.024 43.9277C366.285 44.0745 366.486 44.2554 366.625 44.4702C366.765 44.6851 366.835 44.9626 366.835 45.3027ZM370.595 47.1074C370.033 47.1074 369.546 46.9982 369.134 46.7798C368.722 46.5614 368.405 46.2266 368.183 45.7754C367.961 45.3242 367.85 44.7513 367.85 44.0566C367.85 43.3333 367.972 42.7425 368.215 42.2842C368.459 41.8258 368.795 41.4875 369.225 41.269C369.658 41.0506 370.154 40.9414 370.713 40.9414C371.067 40.9414 371.388 40.9772 371.674 41.0488C371.964 41.1169 372.21 41.201 372.41 41.3013L372.034 42.311C371.816 42.2215 371.592 42.1463 371.363 42.0854C371.134 42.0246 370.913 41.9941 370.702 41.9941C370.355 41.9941 370.065 42.0711 369.832 42.2251C369.603 42.3791 369.431 42.6082 369.316 42.9126C369.205 43.217 369.15 43.5947 369.15 44.0459C369.15 44.4827 369.207 44.8516 369.322 45.1523C369.436 45.4495 369.606 45.6751 369.832 45.8291C370.058 45.9795 370.335 46.0547 370.665 46.0547C370.99 46.0547 371.282 46.0153 371.54 45.9365C371.798 45.8577 372.041 45.7557 372.271 45.6304V46.7261C372.045 46.855 371.803 46.9499 371.545 47.0107C371.288 47.0752 370.971 47.1074 370.595 47.1074ZM376.68 40.9414C376.78 40.9414 376.89 40.9468 377.008 40.9575C377.126 40.9683 377.228 40.9826 377.314 41.0005L377.196 42.1821C377.121 42.1606 377.028 42.1445 376.917 42.1338C376.809 42.123 376.712 42.1177 376.626 42.1177C376.401 42.1177 376.186 42.1553 375.982 42.2305C375.778 42.3021 375.597 42.4131 375.439 42.5635C375.282 42.7103 375.158 42.8947 375.069 43.1167C374.979 43.3387 374.935 43.5965 374.935 43.8901V47H373.667V41.0542H374.655L374.827 42.1016H374.886C375.004 41.8903 375.151 41.6969 375.327 41.5215C375.502 41.346 375.703 41.2064 375.928 41.1025C376.157 40.9951 376.408 40.9414 376.68 40.9414ZM379.677 41.0542V47H378.415V41.0542H379.677ZM379.054 38.7769C379.248 38.7769 379.414 38.8288 379.554 38.9326C379.697 39.0365 379.769 39.2155 379.769 39.4697C379.769 39.7204 379.697 39.8994 379.554 40.0068C379.414 40.1107 379.248 40.1626 379.054 40.1626C378.854 40.1626 378.684 40.1107 378.544 40.0068C378.408 39.8994 378.34 39.7204 378.34 39.4697C378.34 39.2155 378.408 39.0365 378.544 38.9326C378.684 38.8288 378.854 38.7769 379.054 38.7769ZM384.538 40.9414C385.243 40.9414 385.809 41.1992 386.235 41.7148C386.665 42.2305 386.88 42.9967 386.88 44.0137C386.88 44.6868 386.78 45.2544 386.579 45.7163C386.382 46.1746 386.105 46.522 385.747 46.7583C385.392 46.991 384.979 47.1074 384.506 47.1074C384.205 47.1074 383.944 47.068 383.722 46.9893C383.5 46.9105 383.31 46.8084 383.152 46.6831C382.995 46.5542 382.862 46.4146 382.755 46.2642H382.68C382.698 46.4074 382.714 46.5667 382.728 46.7422C382.746 46.9141 382.755 47.0716 382.755 47.2148V49.6372H381.487V41.0542H382.519L382.696 41.876H382.755C382.866 41.7077 383 41.5519 383.158 41.4087C383.319 41.2655 383.512 41.1527 383.738 41.0703C383.967 40.9844 384.234 40.9414 384.538 40.9414ZM384.2 41.9727C383.852 41.9727 383.573 42.0425 383.362 42.1821C383.154 42.3182 383.002 42.5241 382.905 42.7998C382.812 43.0755 382.762 43.4211 382.755 43.8364V44.0137C382.755 44.4541 382.8 44.8283 382.889 45.1362C382.982 45.4406 383.134 45.6733 383.346 45.8345C383.561 45.992 383.851 46.0708 384.216 46.0708C384.524 46.0708 384.778 45.9867 384.979 45.8184C385.183 45.6501 385.335 45.4102 385.435 45.0986C385.535 44.7871 385.585 44.4201 385.585 43.9976C385.585 43.3566 385.471 42.8589 385.242 42.5044C385.016 42.1499 384.669 41.9727 384.2 41.9727ZM390.554 46.0869C390.718 46.0869 390.881 46.0726 391.042 46.0439C391.204 46.0117 391.35 45.9741 391.483 45.9312V46.8872C391.343 46.9481 391.162 47 390.94 47.043C390.718 47.0859 390.487 47.1074 390.248 47.1074C389.911 47.1074 389.608 47.0519 389.34 46.9409C389.071 46.8263 388.858 46.6312 388.701 46.3555C388.543 46.0798 388.464 45.6984 388.464 45.2114V42.0156H387.653V41.4517L388.523 41.0059L388.937 39.7329H389.732V41.0542H391.435V42.0156H389.732V45.1953C389.732 45.4961 389.807 45.7199 389.958 45.8667C390.108 46.0135 390.307 46.0869 390.554 46.0869ZM393.954 41.0542V47H392.691V41.0542H393.954ZM393.331 38.7769C393.524 38.7769 393.69 38.8288 393.83 38.9326C393.973 39.0365 394.045 39.2155 394.045 39.4697C394.045 39.7204 393.973 39.8994 393.83 40.0068C393.69 40.1107 393.524 40.1626 393.331 40.1626C393.13 40.1626 392.96 40.1107 392.82 40.0068C392.684 39.8994 392.616 39.7204 392.616 39.4697C392.616 39.2155 392.684 39.0365 392.82 38.9326C392.96 38.8288 393.13 38.7769 393.331 38.7769ZM401.027 44.0137C401.027 44.5078 400.963 44.9465 400.834 45.3296C400.705 45.7127 400.517 46.0368 400.27 46.3018C400.023 46.5632 399.726 46.7637 399.378 46.9033C399.031 47.0394 398.639 47.1074 398.202 47.1074C397.794 47.1074 397.42 47.0394 397.08 46.9033C396.739 46.7637 396.444 46.5632 396.193 46.3018C395.946 46.0368 395.755 45.7127 395.619 45.3296C395.483 44.9465 395.415 44.5078 395.415 44.0137C395.415 43.3584 395.527 42.8034 395.753 42.3486C395.982 41.8903 396.308 41.5412 396.73 41.3013C397.153 41.0614 397.656 40.9414 398.24 40.9414C398.788 40.9414 399.271 41.0614 399.69 41.3013C400.109 41.5412 400.437 41.8903 400.673 42.3486C400.909 42.807 401.027 43.362 401.027 44.0137ZM396.714 44.0137C396.714 44.4469 396.766 44.8175 396.87 45.1255C396.978 45.4334 397.142 45.6698 397.364 45.8345C397.586 45.9956 397.873 46.0762 398.224 46.0762C398.575 46.0762 398.861 45.9956 399.083 45.8345C399.305 45.6698 399.468 45.4334 399.572 45.1255C399.676 44.8175 399.728 44.4469 399.728 44.0137C399.728 43.5804 399.676 43.2134 399.572 42.9126C399.468 42.6082 399.305 42.3773 399.083 42.2197C398.861 42.0586 398.573 41.978 398.218 41.978C397.695 41.978 397.314 42.1535 397.074 42.5044C396.834 42.8553 396.714 43.3584 396.714 44.0137ZM405.577 40.9414C406.246 40.9414 406.767 41.1151 407.14 41.4624C407.516 41.8062 407.704 42.3594 407.704 43.1221V47H406.441V43.3584C406.441 42.8965 406.347 42.5509 406.157 42.3218C405.967 42.089 405.673 41.9727 405.276 41.9727C404.699 41.9727 404.298 42.1499 404.073 42.5044C403.851 42.8589 403.74 43.3727 403.74 44.0459V47H402.478V41.0542H403.46L403.638 41.8599H403.708C403.836 41.6522 403.996 41.4821 404.186 41.3496C404.379 41.2135 404.594 41.1115 404.83 41.0435C405.07 40.9754 405.319 40.9414 405.577 40.9414ZM412.167 38.6426L411.952 40.6943L414.015 40.1089L414.176 41.2529L412.248 41.4248L413.499 43.0952L412.457 43.6592L411.549 41.8599L410.738 43.6538L409.653 43.0952L410.894 41.4248L408.977 41.2476L409.159 40.1089L411.184 40.6943L410.969 38.6426H412.167Z" fill="#61656E"/>
<mask id="path-2-inside-1_2367_297791" fill="white">
<path d="M308 56H572V84H308V56Z"/>
</mask>
<path d="M308 56H572V84H308V56Z" fill="white"/>
<path d="M572 83H308V85H572V83Z" fill="#61656E" mask="url(#path-2-inside-1_2367_297791)"/>
<path d="M308.462 101L310.122 93.1475H311.953C312.906 93.1475 313.65 93.4053 314.188 93.9209C314.728 94.4329 314.999 95.2207 314.999 96.2842C314.999 96.8213 314.934 97.328 314.805 97.8042C314.676 98.2804 314.485 98.7137 314.23 99.104C313.976 99.4943 313.663 99.8309 313.291 100.114C312.918 100.397 312.487 100.615 311.996 100.769C311.506 100.923 310.959 101 310.358 101H308.462ZM309.531 100.216H310.412C310.884 100.216 311.312 100.151 311.695 100.022C312.078 99.89 312.415 99.7038 312.705 99.4639C312.999 99.224 313.244 98.9411 313.441 98.6152C313.641 98.2858 313.792 97.9242 313.892 97.5303C313.992 97.1328 314.042 96.7139 314.042 96.2734C314.042 95.4499 313.842 94.8537 313.441 94.4849C313.043 94.1125 312.508 93.9263 311.835 93.9263H310.868L309.531 100.216ZM318.017 101.107C317.577 101.107 317.197 101.02 316.878 100.844C316.56 100.665 316.314 100.411 316.143 100.082C315.974 99.7485 315.89 99.3511 315.89 98.8892C315.89 98.4129 315.958 97.9456 316.094 97.4873C316.234 97.0254 316.433 96.6082 316.69 96.2358C316.948 95.8599 317.258 95.5609 317.62 95.3389C317.985 95.1169 318.393 95.0059 318.844 95.0059C319.385 95.0059 319.795 95.1276 320.074 95.3711C320.354 95.611 320.493 95.9422 320.493 96.3647C320.493 96.6619 320.423 96.9359 320.284 97.1865C320.148 97.4372 319.936 97.6556 319.65 97.8418C319.367 98.0244 319.007 98.1676 318.57 98.2715C318.137 98.3717 317.623 98.4219 317.029 98.4219H316.825C316.818 98.4863 316.81 98.5579 316.803 98.6367C316.8 98.7155 316.798 98.7889 316.798 98.8569C316.798 99.3296 316.912 99.7002 317.142 99.9688C317.371 100.234 317.715 100.366 318.173 100.366C318.456 100.366 318.722 100.327 318.973 100.248C319.227 100.166 319.492 100.058 319.768 99.9258V100.694C319.503 100.816 319.236 100.916 318.968 100.995C318.699 101.07 318.382 101.107 318.017 101.107ZM316.954 97.6914H317.083C317.541 97.6914 317.962 97.652 318.345 97.5732C318.728 97.4909 319.036 97.3584 319.269 97.1758C319.501 96.9896 319.618 96.7425 319.618 96.4346C319.618 96.234 319.55 96.0693 319.414 95.9404C319.278 95.8115 319.07 95.7471 318.791 95.7471C318.543 95.7471 318.3 95.8241 318.06 95.978C317.82 96.1284 317.602 96.3486 317.405 96.6387C317.211 96.9287 317.061 97.2796 316.954 97.6914ZM322.54 101.107C322.181 101.107 321.866 101.072 321.594 101C321.326 100.928 321.091 100.839 320.891 100.731V99.9043C321.08 100.019 321.32 100.126 321.61 100.227C321.904 100.327 322.205 100.377 322.513 100.377C322.817 100.377 323.069 100.336 323.27 100.253C323.474 100.171 323.626 100.058 323.727 99.915C323.83 99.7682 323.882 99.5981 323.882 99.4048C323.882 99.2508 323.848 99.1183 323.78 99.0073C323.716 98.8927 323.608 98.7817 323.458 98.6743C323.311 98.5669 323.114 98.4434 322.867 98.3037C322.591 98.1497 322.359 97.994 322.169 97.8364C321.979 97.6789 321.834 97.507 321.734 97.3208C321.637 97.131 321.589 96.9108 321.589 96.6602C321.589 96.3236 321.671 96.0317 321.836 95.7847C322.001 95.5376 322.232 95.346 322.529 95.21C322.83 95.0739 323.181 95.0059 323.582 95.0059C323.936 95.0059 324.264 95.047 324.564 95.1294C324.865 95.2082 325.125 95.2995 325.343 95.4033L325.053 96.1177C324.867 96.0282 324.654 95.9458 324.414 95.8706C324.174 95.7954 323.897 95.7578 323.582 95.7578C323.245 95.7578 322.976 95.8348 322.776 95.9888C322.579 96.1427 322.48 96.3504 322.48 96.6118C322.48 96.7479 322.509 96.8696 322.566 96.9771C322.627 97.0845 322.731 97.1919 322.878 97.2993C323.025 97.4032 323.225 97.5249 323.479 97.6646C323.727 97.8078 323.949 97.9546 324.146 98.105C324.346 98.2518 324.504 98.4219 324.618 98.6152C324.736 98.805 324.795 99.0396 324.795 99.3188C324.795 99.702 324.704 100.028 324.521 100.296C324.339 100.561 324.077 100.764 323.737 100.903C323.401 101.039 323.001 101.107 322.54 101.107ZM328.292 101.107C327.855 101.107 327.472 101.025 327.143 100.86C326.817 100.692 326.562 100.445 326.38 100.119C326.201 99.7933 326.111 99.3887 326.111 98.9053C326.111 98.4863 326.156 98.0835 326.246 97.6968C326.339 97.3101 326.473 96.9538 326.648 96.6279C326.824 96.3021 327.037 96.0174 327.288 95.7739C327.538 95.5304 327.823 95.3424 328.142 95.21C328.464 95.0739 328.815 95.0059 329.194 95.0059C329.449 95.0059 329.701 95.0309 329.952 95.0811C330.206 95.1276 330.435 95.1956 330.639 95.2852L330.387 96.0371C330.236 95.9655 330.059 95.901 329.855 95.8438C329.651 95.7865 329.432 95.7578 329.2 95.7578C328.874 95.7578 328.577 95.8402 328.308 96.0049C328.043 96.1696 327.814 96.3988 327.621 96.6924C327.431 96.9824 327.284 97.3154 327.18 97.6914C327.076 98.0674 327.024 98.4684 327.024 98.8945C327.024 99.1989 327.078 99.4621 327.186 99.6841C327.293 99.9025 327.447 100.071 327.647 100.189C327.852 100.307 328.095 100.366 328.378 100.366C328.639 100.366 328.885 100.33 329.114 100.259C329.347 100.187 329.574 100.101 329.796 100.001V100.764C329.599 100.864 329.373 100.946 329.119 101.011C328.868 101.075 328.593 101.107 328.292 101.107ZM330.87 101L332.122 95.1133H332.852L332.712 96.252H332.766C332.917 96.0479 333.078 95.8509 333.25 95.6611C333.421 95.4678 333.617 95.3102 333.835 95.1885C334.057 95.0667 334.311 95.0059 334.598 95.0059C334.705 95.0059 334.814 95.013 334.925 95.0273C335.036 95.0381 335.14 95.0578 335.237 95.0864L335.043 95.8867C334.947 95.8652 334.852 95.8491 334.759 95.8384C334.669 95.8276 334.576 95.8223 334.479 95.8223C334.207 95.8223 333.955 95.8939 333.722 96.0371C333.489 96.1768 333.28 96.3647 333.094 96.6011C332.911 96.8374 332.755 97.1006 332.626 97.3906C332.501 97.6807 332.406 97.9761 332.342 98.2769L331.767 101H330.87ZM335.221 101L336.472 95.1133H337.369L336.118 101H335.221ZM337.224 94.082C337.081 94.082 336.961 94.0409 336.864 93.9585C336.771 93.8726 336.725 93.7526 336.725 93.5986C336.725 93.4805 336.748 93.3695 336.794 93.2656C336.845 93.1618 336.914 93.0794 337.004 93.0186C337.097 92.9541 337.21 92.9219 337.342 92.9219C337.5 92.9219 337.618 92.9631 337.697 93.0454C337.776 93.1278 337.815 93.2424 337.815 93.3892C337.815 93.6004 337.754 93.7687 337.632 93.894C337.511 94.0194 337.375 94.082 337.224 94.082ZM337.455 103.632L339.254 95.1133H339.985L339.84 96.2573H339.877C340.046 96.0353 340.23 95.8312 340.431 95.645C340.635 95.4552 340.857 95.3031 341.097 95.1885C341.34 95.0739 341.605 95.0166 341.892 95.0166C342.214 95.0166 342.495 95.0936 342.735 95.2476C342.975 95.3979 343.161 95.6235 343.293 95.9243C343.43 96.2215 343.498 96.5921 343.498 97.0361C343.498 97.4587 343.455 97.8704 343.369 98.2715C343.286 98.6689 343.165 99.0396 343.003 99.3833C342.842 99.7235 342.644 100.024 342.407 100.286C342.174 100.543 341.908 100.746 341.607 100.893C341.306 101.036 340.975 101.107 340.613 101.107C340.338 101.107 340.099 101.059 339.899 100.962C339.702 100.862 339.535 100.731 339.399 100.57C339.267 100.409 339.161 100.236 339.083 100.049H339.034C339.02 100.182 338.997 100.355 338.964 100.57C338.936 100.782 338.905 100.959 338.873 101.102L338.336 103.632H337.455ZM340.549 100.366C340.799 100.366 341.029 100.304 341.236 100.178C341.448 100.053 341.636 99.8828 341.8 99.668C341.969 99.4495 342.11 99.1971 342.225 98.9106C342.343 98.6242 342.432 98.3198 342.493 97.9976C342.554 97.6753 342.584 97.3477 342.584 97.0146C342.584 96.5993 342.5 96.286 342.332 96.0747C342.167 95.8634 341.92 95.7578 341.591 95.7578C341.419 95.7578 341.245 95.8008 341.07 95.8867C340.894 95.9691 340.724 96.0872 340.56 96.2412C340.395 96.3916 340.241 96.5706 340.098 96.7783C339.954 96.986 339.829 97.2152 339.722 97.4658C339.618 97.7165 339.535 97.9814 339.475 98.2607C339.414 98.54 339.383 98.8265 339.383 99.1201C339.383 99.4961 339.478 99.7987 339.668 100.028C339.861 100.253 340.155 100.366 340.549 100.366ZM346.038 101.107C345.648 101.107 345.322 101.014 345.061 100.828C344.803 100.638 344.674 100.314 344.674 99.856C344.674 99.745 344.681 99.625 344.695 99.4961C344.71 99.3636 344.733 99.2275 344.765 99.0879L345.458 95.7954H344.55L344.636 95.3818L345.614 95.0059L346.258 93.7598H346.79L346.495 95.1133H348.009L347.87 95.7954H346.36L345.662 99.0986C345.637 99.1989 345.614 99.3063 345.592 99.4209C345.574 99.5355 345.565 99.6447 345.565 99.7485C345.565 99.9276 345.612 100.078 345.705 100.2C345.798 100.318 345.954 100.377 346.172 100.377C346.308 100.377 346.437 100.364 346.559 100.339C346.684 100.314 346.817 100.278 346.957 100.232V100.919C346.867 100.962 346.731 101.004 346.548 101.043C346.369 101.086 346.199 101.107 346.038 101.107ZM347.993 101L349.245 95.1133H350.142L348.89 101H347.993ZM349.997 94.082C349.853 94.082 349.733 94.0409 349.637 93.9585C349.544 93.8726 349.497 93.7526 349.497 93.5986C349.497 93.4805 349.52 93.3695 349.567 93.2656C349.617 93.1618 349.687 93.0794 349.776 93.0186C349.869 92.9541 349.982 92.9219 350.115 92.9219C350.272 92.9219 350.39 92.9631 350.469 93.0454C350.548 93.1278 350.587 93.2424 350.587 93.3892C350.587 93.6004 350.527 93.7687 350.405 93.894C350.283 94.0194 350.147 94.082 349.997 94.082ZM353.176 101.086C352.725 101.086 352.337 100.995 352.011 100.812C351.685 100.626 351.434 100.364 351.259 100.028C351.087 99.6877 351.001 99.2866 351.001 98.8247C351.001 98.4523 351.042 98.0853 351.125 97.7236C351.207 97.3584 351.329 97.0146 351.49 96.6924C351.651 96.3665 351.85 96.0801 352.086 95.833C352.326 95.5824 352.602 95.3872 352.913 95.2476C353.225 95.1043 353.572 95.0327 353.955 95.0327C354.413 95.0327 354.804 95.1258 355.126 95.312C355.452 95.4946 355.701 95.756 355.873 96.0962C356.048 96.4364 356.136 96.8392 356.136 97.3047C356.136 97.6699 356.095 98.0334 356.012 98.395C355.933 98.7567 355.813 99.1004 355.652 99.4263C355.495 99.7485 355.296 100.035 355.056 100.286C354.82 100.533 354.544 100.728 354.229 100.871C353.917 101.014 353.567 101.086 353.176 101.086ZM353.23 100.345C353.452 100.345 353.663 100.298 353.864 100.205C354.064 100.112 354.247 99.9777 354.412 99.8022C354.576 99.6232 354.718 99.4066 354.836 99.1523C354.958 98.8945 355.051 98.6027 355.115 98.2769C355.183 97.951 355.217 97.5929 355.217 97.2026C355.217 96.9699 355.176 96.7443 355.094 96.5259C355.011 96.3075 354.879 96.1284 354.696 95.9888C354.514 95.8455 354.27 95.7739 353.966 95.7739C353.715 95.7739 353.482 95.8258 353.268 95.9297C353.056 96.0335 352.867 96.1803 352.698 96.3701C352.53 96.5599 352.387 96.7837 352.269 97.0415C352.154 97.2993 352.064 97.5822 352 97.8901C351.939 98.1981 351.909 98.5221 351.909 98.8623C351.909 99.3314 352.023 99.6966 352.252 99.958C352.482 100.216 352.807 100.345 353.23 100.345ZM356.936 101L358.198 95.0864H358.988L358.848 96.2197H358.859C358.995 96.0335 359.158 95.8455 359.348 95.6558C359.541 95.4624 359.765 95.3013 360.019 95.1724C360.277 95.0399 360.569 94.9736 360.895 94.9736C361.21 94.9736 361.48 95.0327 361.706 95.1509C361.931 95.2655 362.105 95.4338 362.227 95.6558C362.348 95.8742 362.409 96.1392 362.409 96.4507C362.409 96.6154 362.397 96.7819 362.372 96.9502C362.347 97.1185 362.32 97.2689 362.291 97.4014L361.507 101H360.556L361.351 97.2832C361.383 97.1221 361.408 96.9842 361.426 96.8696C361.448 96.755 361.458 96.6476 361.458 96.5474C361.458 96.2967 361.39 96.1069 361.254 95.978C361.118 95.8491 360.918 95.7847 360.653 95.7847C360.391 95.7847 360.116 95.8742 359.826 96.0532C359.536 96.2323 359.267 96.5151 359.02 96.9019C358.773 97.285 358.581 97.7863 358.445 98.4058L357.892 101H356.936ZM368.57 101.086C368.119 101.086 367.73 100.995 367.404 100.812C367.078 100.626 366.828 100.364 366.652 100.028C366.48 99.6877 366.395 99.2866 366.395 98.8247C366.395 98.4523 366.436 98.0853 366.518 97.7236C366.6 97.3584 366.722 97.0146 366.883 96.6924C367.044 96.3665 367.243 96.0801 367.479 95.833C367.719 95.5824 367.995 95.3872 368.307 95.2476C368.618 95.1043 368.965 95.0327 369.349 95.0327C369.807 95.0327 370.197 95.1258 370.52 95.312C370.845 95.4946 371.094 95.756 371.266 96.0962C371.442 96.4364 371.529 96.8392 371.529 97.3047C371.529 97.6699 371.488 98.0334 371.406 98.395C371.327 98.7567 371.207 99.1004 371.046 99.4263C370.888 99.7485 370.69 100.035 370.45 100.286C370.213 100.533 369.938 100.728 369.623 100.871C369.311 101.014 368.96 101.086 368.57 101.086ZM368.624 100.345C368.846 100.345 369.057 100.298 369.257 100.205C369.458 100.112 369.64 99.9777 369.805 99.8022C369.97 99.6232 370.111 99.4066 370.229 99.1523C370.351 98.8945 370.444 98.6027 370.509 98.2769C370.577 97.951 370.611 97.5929 370.611 97.2026C370.611 96.9699 370.57 96.7443 370.487 96.5259C370.405 96.3075 370.272 96.1284 370.09 95.9888C369.907 95.8455 369.664 95.7739 369.359 95.7739C369.109 95.7739 368.876 95.8258 368.661 95.9297C368.45 96.0335 368.26 96.1803 368.092 96.3701C367.924 96.5599 367.78 96.7837 367.662 97.0415C367.548 97.2993 367.458 97.5822 367.394 97.8901C367.333 98.1981 367.302 98.5221 367.302 98.8623C367.302 99.3314 367.417 99.6966 367.646 99.958C367.875 100.216 368.201 100.345 368.624 100.345ZM371.502 103.643C371.363 103.643 371.234 103.632 371.116 103.61C370.998 103.589 370.894 103.562 370.804 103.53V102.772C370.901 102.808 370.999 102.837 371.1 102.858C371.2 102.883 371.307 102.896 371.422 102.896C371.687 102.896 371.893 102.79 372.04 102.579C372.186 102.368 372.305 102.062 372.394 101.661L373.629 95.7954H372.604L372.679 95.4141L373.769 95.0864L373.898 94.5171C373.98 94.1519 374.079 93.8457 374.193 93.5986C374.312 93.348 374.449 93.1493 374.607 93.0024C374.764 92.8521 374.947 92.7446 375.155 92.6802C375.366 92.6157 375.608 92.5835 375.88 92.5835C376.059 92.5835 376.242 92.605 376.428 92.6479C376.618 92.6873 376.771 92.7339 376.89 92.7876L376.659 93.4697C376.551 93.4303 376.437 93.3963 376.315 93.3677C376.193 93.3354 376.061 93.3193 375.917 93.3193C375.613 93.3193 375.373 93.4053 375.198 93.5771C375.026 93.7454 374.89 94.0605 374.79 94.5225L374.655 95.1133H375.923L375.794 95.7954H374.521L373.264 101.763C373.178 102.157 373.062 102.493 372.915 102.772C372.768 103.055 372.58 103.27 372.351 103.417C372.122 103.567 371.839 103.643 371.502 103.643ZM380.338 101.107C379.948 101.107 379.622 101.014 379.36 100.828C379.103 100.638 378.974 100.314 378.974 99.856C378.974 99.745 378.981 99.625 378.995 99.4961C379.009 99.3636 379.033 99.2275 379.065 99.0879L379.758 95.7954H378.85L378.936 95.3818L379.914 95.0059L380.558 93.7598H381.09L380.794 95.1133H382.309L382.169 95.7954H380.66L379.962 99.0986C379.937 99.1989 379.914 99.3063 379.892 99.4209C379.874 99.5355 379.865 99.6447 379.865 99.7485C379.865 99.9276 379.912 100.078 380.005 100.2C380.098 100.318 380.254 100.377 380.472 100.377C380.608 100.377 380.737 100.364 380.859 100.339C380.984 100.314 381.117 100.278 381.256 100.232V100.919C381.167 100.962 381.031 101.004 380.848 101.043C380.669 101.086 380.499 101.107 380.338 101.107ZM382.293 101L384.065 92.6426H384.957L384.484 94.8125C384.456 94.9665 384.42 95.1258 384.377 95.2905C384.338 95.4517 384.296 95.6146 384.253 95.7793C384.21 95.9404 384.167 96.0998 384.125 96.2573H384.178C384.318 96.0675 384.483 95.8778 384.672 95.688C384.866 95.4982 385.09 95.3389 385.344 95.21C385.602 95.0811 385.892 95.0166 386.214 95.0166C386.522 95.0166 386.785 95.0721 387.003 95.1831C387.225 95.2941 387.396 95.4606 387.514 95.6826C387.635 95.901 387.696 96.1768 387.696 96.5098C387.696 96.6494 387.686 96.7926 387.664 96.9395C387.643 97.0827 387.616 97.2331 387.583 97.3906L386.81 101H385.913L386.697 97.2939C386.733 97.1328 386.758 96.995 386.772 96.8804C386.787 96.7658 386.794 96.6655 386.794 96.5796C386.794 96.3182 386.728 96.1159 386.595 95.9727C386.466 95.8294 386.259 95.7578 385.972 95.7578C385.704 95.7578 385.421 95.8491 385.124 96.0317C384.83 96.2108 384.558 96.4954 384.307 96.8857C384.06 97.2725 383.87 97.7791 383.738 98.4058L383.19 101H382.293ZM390.989 101.107C390.548 101.107 390.169 101.02 389.85 100.844C389.531 100.665 389.286 100.411 389.114 100.082C388.946 99.7485 388.862 99.3511 388.862 98.8892C388.862 98.4129 388.93 97.9456 389.066 97.4873C389.206 97.0254 389.404 96.6082 389.662 96.2358C389.92 95.8599 390.23 95.5609 390.591 95.3389C390.957 95.1169 391.365 95.0059 391.816 95.0059C392.357 95.0059 392.767 95.1276 393.046 95.3711C393.325 95.611 393.465 95.9422 393.465 96.3647C393.465 96.6619 393.395 96.9359 393.255 97.1865C393.119 97.4372 392.908 97.6556 392.622 97.8418C392.339 98.0244 391.979 98.1676 391.542 98.2715C391.109 98.3717 390.595 98.4219 390 98.4219H389.796C389.789 98.4863 389.782 98.5579 389.775 98.6367C389.771 98.7155 389.77 98.7889 389.77 98.8569C389.77 99.3296 389.884 99.7002 390.113 99.9688C390.342 100.234 390.686 100.366 391.145 100.366C391.427 100.366 391.694 100.327 391.945 100.248C392.199 100.166 392.464 100.058 392.74 99.9258V100.694C392.475 100.816 392.208 100.916 391.939 100.995C391.671 101.07 391.354 101.107 390.989 101.107ZM389.925 97.6914H390.054C390.513 97.6914 390.933 97.652 391.316 97.5732C391.7 97.4909 392.007 97.3584 392.24 97.1758C392.473 96.9896 392.589 96.7425 392.589 96.4346C392.589 96.234 392.521 96.0693 392.385 95.9404C392.249 95.8115 392.042 95.7471 391.762 95.7471C391.515 95.7471 391.272 95.8241 391.032 95.978C390.792 96.1284 390.573 96.3486 390.376 96.6387C390.183 96.9287 390.033 97.2796 389.925 97.6914ZM398.369 101.107C398.011 101.107 397.695 101.072 397.423 101C397.155 100.928 396.92 100.839 396.72 100.731V99.9043C396.91 100.019 397.149 100.126 397.439 100.227C397.733 100.327 398.034 100.377 398.342 100.377C398.646 100.377 398.899 100.336 399.099 100.253C399.303 100.171 399.455 100.058 399.556 99.915C399.66 99.7682 399.711 99.5981 399.711 99.4048C399.711 99.2508 399.677 99.1183 399.609 99.0073C399.545 98.8927 399.438 98.7817 399.287 98.6743C399.14 98.5669 398.943 98.4434 398.696 98.3037C398.421 98.1497 398.188 97.994 397.998 97.8364C397.808 97.6789 397.663 97.507 397.563 97.3208C397.466 97.131 397.418 96.9108 397.418 96.6602C397.418 96.3236 397.5 96.0317 397.665 95.7847C397.83 95.5376 398.061 95.346 398.358 95.21C398.659 95.0739 399.01 95.0059 399.411 95.0059C399.765 95.0059 400.093 95.047 400.394 95.1294C400.694 95.2082 400.954 95.2995 401.172 95.4033L400.882 96.1177C400.696 96.0282 400.483 95.9458 400.243 95.8706C400.003 95.7954 399.726 95.7578 399.411 95.7578C399.074 95.7578 398.806 95.8348 398.605 95.9888C398.408 96.1427 398.31 96.3504 398.31 96.6118C398.31 96.7479 398.338 96.8696 398.396 96.9771C398.456 97.0845 398.56 97.1919 398.707 97.2993C398.854 97.4032 399.054 97.5249 399.309 97.6646C399.556 97.8078 399.778 97.9546 399.975 98.105C400.175 98.2518 400.333 98.4219 400.447 98.6152C400.565 98.805 400.625 99.0396 400.625 99.3188C400.625 99.702 400.533 100.028 400.351 100.296C400.168 100.561 399.907 100.764 399.566 100.903C399.23 101.039 398.831 101.107 398.369 101.107ZM404.073 101.107C403.632 101.107 403.253 101.02 402.934 100.844C402.615 100.665 402.37 100.411 402.198 100.082C402.03 99.7485 401.946 99.3511 401.946 98.8892C401.946 98.4129 402.014 97.9456 402.15 97.4873C402.29 97.0254 402.488 96.6082 402.746 96.2358C403.004 95.8599 403.314 95.5609 403.675 95.3389C404.041 95.1169 404.449 95.0059 404.9 95.0059C405.441 95.0059 405.851 95.1276 406.13 95.3711C406.409 95.611 406.549 95.9422 406.549 96.3647C406.549 96.6619 406.479 96.9359 406.339 97.1865C406.203 97.4372 405.992 97.6556 405.706 97.8418C405.423 98.0244 405.063 98.1676 404.626 98.2715C404.193 98.3717 403.679 98.4219 403.084 98.4219H402.88C402.873 98.4863 402.866 98.5579 402.859 98.6367C402.855 98.7155 402.854 98.7889 402.854 98.8569C402.854 99.3296 402.968 99.7002 403.197 99.9688C403.426 100.234 403.77 100.366 404.229 100.366C404.511 100.366 404.778 100.327 405.029 100.248C405.283 100.166 405.548 100.058 405.824 99.9258V100.694C405.559 100.816 405.292 100.916 405.023 100.995C404.755 101.07 404.438 101.107 404.073 101.107ZM403.009 97.6914H403.138C403.597 97.6914 404.017 97.652 404.4 97.5732C404.784 97.4909 405.091 97.3584 405.324 97.1758C405.557 96.9896 405.673 96.7425 405.673 96.4346C405.673 96.234 405.605 96.0693 405.469 95.9404C405.333 95.8115 405.125 95.7471 404.846 95.7471C404.599 95.7471 404.356 95.8241 404.116 95.978C403.876 96.1284 403.657 96.3486 403.46 96.6387C403.267 96.9287 403.117 97.2796 403.009 97.6914ZM407.193 101L408.445 95.1133H409.175L409.036 96.252H409.089C409.24 96.0479 409.401 95.8509 409.573 95.6611C409.745 95.4678 409.94 95.3102 410.158 95.1885C410.38 95.0667 410.634 95.0059 410.921 95.0059C411.028 95.0059 411.138 95.013 411.249 95.0273C411.36 95.0381 411.463 95.0578 411.56 95.0864L411.367 95.8867C411.27 95.8652 411.175 95.8491 411.082 95.8384C410.993 95.8276 410.899 95.8223 410.803 95.8223C410.531 95.8223 410.278 95.8939 410.045 96.0371C409.813 96.1768 409.603 96.3647 409.417 96.6011C409.234 96.8374 409.079 97.1006 408.95 97.3906C408.824 97.6807 408.729 97.9761 408.665 98.2769L408.09 101H407.193ZM412.468 101L411.759 95.1133H412.661L413.021 98.5024C413.042 98.6922 413.062 98.9071 413.08 99.147C413.098 99.3869 413.112 99.6125 413.123 99.8237C413.137 100.035 413.145 100.194 413.145 100.302H413.177C413.256 100.126 413.347 99.9276 413.451 99.7056C413.558 99.48 413.666 99.258 413.773 99.0396C413.88 98.8175 413.975 98.6278 414.058 98.4702L415.873 95.1133H416.829L413.623 101H412.468ZM416.614 101L417.866 95.1133H418.763L417.511 101H416.614ZM418.618 94.082C418.474 94.082 418.354 94.0409 418.258 93.9585C418.165 93.8726 418.118 93.7526 418.118 93.5986C418.118 93.4805 418.141 93.3695 418.188 93.2656C418.238 93.1618 418.308 93.0794 418.397 93.0186C418.491 92.9541 418.603 92.9219 418.736 92.9219C418.893 92.9219 419.012 92.9631 419.09 93.0454C419.169 93.1278 419.208 93.2424 419.208 93.3892C419.208 93.6004 419.148 93.7687 419.026 93.894C418.904 94.0194 418.768 94.082 418.618 94.082ZM421.803 101.107C421.366 101.107 420.983 101.025 420.653 100.86C420.327 100.692 420.073 100.445 419.891 100.119C419.712 99.7933 419.622 99.3887 419.622 98.9053C419.622 98.4863 419.667 98.0835 419.756 97.6968C419.849 97.3101 419.984 96.9538 420.159 96.6279C420.335 96.3021 420.548 96.0174 420.798 95.7739C421.049 95.5304 421.334 95.3424 421.652 95.21C421.975 95.0739 422.326 95.0059 422.705 95.0059C422.959 95.0059 423.212 95.0309 423.462 95.0811C423.717 95.1276 423.946 95.1956 424.15 95.2852L423.897 96.0371C423.747 95.9655 423.57 95.901 423.366 95.8438C423.162 95.7865 422.943 95.7578 422.71 95.7578C422.385 95.7578 422.087 95.8402 421.819 96.0049C421.554 96.1696 421.325 96.3988 421.131 96.6924C420.942 96.9824 420.795 97.3154 420.691 97.6914C420.587 98.0674 420.535 98.4684 420.535 98.8945C420.535 99.1989 420.589 99.4621 420.696 99.6841C420.804 99.9025 420.958 100.071 421.158 100.189C421.362 100.307 421.606 100.366 421.889 100.366C422.15 100.366 422.395 100.33 422.625 100.259C422.857 100.187 423.085 100.101 423.307 100.001V100.764C423.11 100.864 422.884 100.946 422.63 101.011C422.379 101.075 422.104 101.107 421.803 101.107ZM426.739 101.107C426.298 101.107 425.919 101.02 425.6 100.844C425.281 100.665 425.036 100.411 424.864 100.082C424.696 99.7485 424.612 99.3511 424.612 98.8892C424.612 98.4129 424.68 97.9456 424.816 97.4873C424.956 97.0254 425.154 96.6082 425.412 96.2358C425.67 95.8599 425.98 95.5609 426.341 95.3389C426.707 95.1169 427.115 95.0059 427.566 95.0059C428.107 95.0059 428.517 95.1276 428.796 95.3711C429.075 95.611 429.215 95.9422 429.215 96.3647C429.215 96.6619 429.145 96.9359 429.005 97.1865C428.869 97.4372 428.658 97.6556 428.372 97.8418C428.089 98.0244 427.729 98.1676 427.292 98.2715C426.859 98.3717 426.345 98.4219 425.75 98.4219H425.546C425.539 98.4863 425.532 98.5579 425.525 98.6367C425.521 98.7155 425.52 98.7889 425.52 98.8569C425.52 99.3296 425.634 99.7002 425.863 99.9688C426.092 100.234 426.436 100.366 426.895 100.366C427.177 100.366 427.444 100.327 427.695 100.248C427.949 100.166 428.214 100.058 428.49 99.9258V100.694C428.225 100.816 427.958 100.916 427.689 100.995C427.421 101.07 427.104 101.107 426.739 101.107ZM425.675 97.6914H425.804C426.263 97.6914 426.683 97.652 427.066 97.5732C427.45 97.4909 427.757 97.3584 427.99 97.1758C428.223 96.9896 428.339 96.7425 428.339 96.4346C428.339 96.234 428.271 96.0693 428.135 95.9404C427.999 95.8115 427.792 95.7471 427.512 95.7471C427.265 95.7471 427.022 95.8241 426.782 95.978C426.542 96.1284 426.323 96.3486 426.126 96.6387C425.933 96.9287 425.783 97.2796 425.675 97.6914ZM431.261 101.107C430.903 101.107 430.588 101.072 430.316 101C430.047 100.928 429.813 100.839 429.612 100.731V99.9043C429.802 100.019 430.042 100.126 430.332 100.227C430.626 100.327 430.926 100.377 431.234 100.377C431.539 100.377 431.791 100.336 431.992 100.253C432.196 100.171 432.348 100.058 432.448 99.915C432.552 99.7682 432.604 99.5981 432.604 99.4048C432.604 99.2508 432.57 99.1183 432.502 99.0073C432.438 98.8927 432.33 98.7817 432.18 98.6743C432.033 98.5669 431.836 98.4434 431.589 98.3037C431.313 98.1497 431.08 97.994 430.891 97.8364C430.701 97.6789 430.556 97.507 430.456 97.3208C430.359 97.131 430.311 96.9108 430.311 96.6602C430.311 96.3236 430.393 96.0317 430.558 95.7847C430.722 95.5376 430.953 95.346 431.25 95.21C431.551 95.0739 431.902 95.0059 432.303 95.0059C432.658 95.0059 432.985 95.047 433.286 95.1294C433.587 95.2082 433.847 95.2995 434.065 95.4033L433.775 96.1177C433.589 96.0282 433.376 95.9458 433.136 95.8706C432.896 95.7954 432.618 95.7578 432.303 95.7578C431.967 95.7578 431.698 95.8348 431.498 95.9888C431.301 96.1427 431.202 96.3504 431.202 96.6118C431.202 96.7479 431.231 96.8696 431.288 96.9771C431.349 97.0845 431.453 97.1919 431.6 97.2993C431.746 97.4032 431.947 97.5249 432.201 97.6646C432.448 97.8078 432.67 97.9546 432.867 98.105C433.068 98.2518 433.225 98.4219 433.34 98.6152C433.458 98.805 433.517 99.0396 433.517 99.3188C433.517 99.702 433.426 100.028 433.243 100.296C433.061 100.561 432.799 100.764 432.459 100.903C432.122 101.039 431.723 101.107 431.261 101.107ZM439.141 101.107C438.75 101.107 438.424 101.014 438.163 100.828C437.905 100.638 437.776 100.314 437.776 99.856C437.776 99.745 437.784 99.625 437.798 99.4961C437.812 99.3636 437.835 99.2275 437.868 99.0879L438.561 95.7954H437.653L437.739 95.3818L438.716 95.0059L439.361 93.7598H439.893L439.597 95.1133H441.112L440.972 95.7954H439.463L438.765 99.0986C438.74 99.1989 438.716 99.3063 438.695 99.4209C438.677 99.5355 438.668 99.6447 438.668 99.7485C438.668 99.9276 438.715 100.078 438.808 100.2C438.901 100.318 439.056 100.377 439.275 100.377C439.411 100.377 439.54 100.364 439.662 100.339C439.787 100.314 439.919 100.278 440.059 100.232V100.919C439.97 100.962 439.833 101.004 439.651 101.043C439.472 101.086 439.302 101.107 439.141 101.107ZM441.096 101L442.868 92.6426H443.76L443.287 94.8125C443.258 94.9665 443.223 95.1258 443.18 95.2905C443.14 95.4517 443.099 95.6146 443.056 95.7793C443.013 95.9404 442.97 96.0998 442.927 96.2573H442.981C443.121 96.0675 443.285 95.8778 443.475 95.688C443.668 95.4982 443.892 95.3389 444.146 95.21C444.404 95.0811 444.694 95.0166 445.017 95.0166C445.325 95.0166 445.588 95.0721 445.806 95.1831C446.028 95.2941 446.198 95.4606 446.316 95.6826C446.438 95.901 446.499 96.1768 446.499 96.5098C446.499 96.6494 446.488 96.7926 446.467 96.9395C446.445 97.0827 446.418 97.2331 446.386 97.3906L445.613 101H444.716L445.5 97.2939C445.536 97.1328 445.561 96.995 445.575 96.8804C445.59 96.7658 445.597 96.6655 445.597 96.5796C445.597 96.3182 445.53 96.1159 445.398 95.9727C445.269 95.8294 445.061 95.7578 444.775 95.7578C444.506 95.7578 444.223 95.8491 443.926 96.0317C443.633 96.2108 443.361 96.4954 443.11 96.8857C442.863 97.2725 442.673 97.7791 442.541 98.4058L441.993 101H441.096ZM449.249 101.107C448.93 101.107 448.651 101.03 448.411 100.876C448.171 100.722 447.985 100.495 447.853 100.194C447.72 99.8936 447.654 99.5265 447.654 99.0933C447.654 98.66 447.699 98.2428 447.788 97.8418C447.881 97.4408 448.012 97.0684 448.18 96.7246C448.348 96.3809 448.551 96.0801 448.787 95.8223C449.027 95.5645 449.296 95.3639 449.593 95.2207C449.89 95.0775 450.21 95.0059 450.554 95.0059C450.819 95.0059 451.048 95.056 451.242 95.1562C451.439 95.2565 451.602 95.389 451.73 95.5537C451.863 95.7148 451.967 95.8867 452.042 96.0693H452.096L452.439 95.1133H453.122L451.875 101H451.161L451.322 99.8613H451.279C451.118 100.076 450.934 100.278 450.726 100.468C450.518 100.658 450.291 100.812 450.044 100.93C449.797 101.048 449.532 101.107 449.249 101.107ZM449.539 100.366C449.815 100.366 450.087 100.266 450.355 100.065C450.628 99.8613 450.871 99.5874 451.086 99.2437C451.304 98.8963 451.471 98.506 451.585 98.0728C451.643 97.8615 451.68 97.6681 451.698 97.4927C451.72 97.3136 451.73 97.1471 451.73 96.9932C451.73 96.6243 451.632 96.3271 451.435 96.1016C451.242 95.8724 450.977 95.7578 450.64 95.7578C450.4 95.7578 450.175 95.8187 449.963 95.9404C449.752 96.0586 449.561 96.2251 449.389 96.4399C449.22 96.6512 449.075 96.8983 448.954 97.1812C448.832 97.4604 448.737 97.7648 448.669 98.0942C448.604 98.4237 448.572 98.762 448.572 99.1094C448.572 99.5212 448.656 99.8345 448.825 100.049C448.993 100.261 449.231 100.366 449.539 100.366ZM455.329 101.107C454.939 101.107 454.613 101.014 454.352 100.828C454.094 100.638 453.965 100.314 453.965 99.856C453.965 99.745 453.972 99.625 453.986 99.4961C454.001 99.3636 454.024 99.2275 454.056 99.0879L454.749 95.7954H453.841L453.927 95.3818L454.905 95.0059L455.549 93.7598H456.081L455.786 95.1133H457.3L457.161 95.7954H455.651L454.953 99.0986C454.928 99.1989 454.905 99.3063 454.883 99.4209C454.865 99.5355 454.856 99.6447 454.856 99.7485C454.856 99.9276 454.903 100.078 454.996 100.2C455.089 100.318 455.245 100.377 455.463 100.377C455.599 100.377 455.728 100.364 455.85 100.339C455.975 100.314 456.108 100.278 456.248 100.232V100.919C456.158 100.962 456.022 101.004 455.839 101.043C455.66 101.086 455.49 101.107 455.329 101.107ZM461.957 101.107C461.638 101.107 461.359 101.03 461.119 100.876C460.879 100.722 460.693 100.495 460.561 100.194C460.428 99.8936 460.362 99.5265 460.362 99.0933C460.362 98.66 460.407 98.2428 460.496 97.8418C460.589 97.4408 460.72 97.0684 460.888 96.7246C461.056 96.3809 461.259 96.0801 461.495 95.8223C461.735 95.5645 462.004 95.3639 462.301 95.2207C462.598 95.0775 462.918 95.0059 463.262 95.0059C463.527 95.0059 463.756 95.056 463.95 95.1562C464.147 95.2565 464.31 95.389 464.438 95.5537C464.571 95.7148 464.675 95.8867 464.75 96.0693H464.804L465.147 95.1133H465.83L464.583 101H463.869L464.03 99.8613H463.987C463.826 100.076 463.642 100.278 463.434 100.468C463.226 100.658 462.999 100.812 462.752 100.93C462.505 101.048 462.24 101.107 461.957 101.107ZM462.247 100.366C462.523 100.366 462.795 100.266 463.063 100.065C463.336 99.8613 463.579 99.5874 463.794 99.2437C464.012 98.8963 464.179 98.506 464.293 98.0728C464.351 97.8615 464.388 97.6681 464.406 97.4927C464.428 97.3136 464.438 97.1471 464.438 96.9932C464.438 96.6243 464.34 96.3271 464.143 96.1016C463.95 95.8724 463.685 95.7578 463.348 95.7578C463.108 95.7578 462.883 95.8187 462.671 95.9404C462.46 96.0586 462.269 96.2251 462.097 96.4399C461.928 96.6512 461.783 96.8983 461.662 97.1812C461.54 97.4604 461.445 97.7648 461.377 98.0942C461.312 98.4237 461.28 98.762 461.28 99.1094C461.28 99.5212 461.364 99.8345 461.533 100.049C461.701 100.261 461.939 100.366 462.247 100.366ZM466.361 101L467.613 95.1133H468.343L468.204 96.252H468.257C468.408 96.0479 468.569 95.8509 468.741 95.6611C468.913 95.4678 469.108 95.3102 469.326 95.1885C469.548 95.0667 469.802 95.0059 470.089 95.0059C470.196 95.0059 470.306 95.013 470.417 95.0273C470.528 95.0381 470.631 95.0578 470.728 95.0864L470.535 95.8867C470.438 95.8652 470.343 95.8491 470.25 95.8384C470.16 95.8276 470.067 95.8223 469.971 95.8223C469.699 95.8223 469.446 95.8939 469.213 96.0371C468.981 96.1768 468.771 96.3647 468.585 96.6011C468.402 96.8374 468.247 97.1006 468.118 97.3906C467.992 97.6807 467.897 97.9761 467.833 98.2769L467.258 101H466.361ZM473.07 101.107C472.629 101.107 472.25 101.02 471.931 100.844C471.612 100.665 471.367 100.411 471.195 100.082C471.027 99.7485 470.943 99.3511 470.943 98.8892C470.943 98.4129 471.011 97.9456 471.147 97.4873C471.287 97.0254 471.485 96.6082 471.743 96.2358C472.001 95.8599 472.311 95.5609 472.672 95.3389C473.038 95.1169 473.446 95.0059 473.897 95.0059C474.438 95.0059 474.848 95.1276 475.127 95.3711C475.406 95.611 475.546 95.9422 475.546 96.3647C475.546 96.6619 475.476 96.9359 475.336 97.1865C475.2 97.4372 474.989 97.6556 474.703 97.8418C474.42 98.0244 474.06 98.1676 473.623 98.2715C473.19 98.3717 472.676 98.4219 472.082 98.4219H471.877C471.87 98.4863 471.863 98.5579 471.856 98.6367C471.852 98.7155 471.851 98.7889 471.851 98.8569C471.851 99.3296 471.965 99.7002 472.194 99.9688C472.424 100.234 472.767 100.366 473.226 100.366C473.508 100.366 473.775 100.327 474.026 100.248C474.28 100.166 474.545 100.058 474.821 99.9258V100.694C474.556 100.816 474.289 100.916 474.021 100.995C473.752 101.07 473.435 101.107 473.07 101.107ZM472.006 97.6914H472.135C472.594 97.6914 473.014 97.652 473.397 97.5732C473.781 97.4909 474.089 97.3584 474.321 97.1758C474.554 96.9896 474.67 96.7425 474.67 96.4346C474.67 96.234 474.602 96.0693 474.466 95.9404C474.33 95.8115 474.123 95.7471 473.843 95.7471C473.596 95.7471 473.353 95.8241 473.113 95.978C472.873 96.1284 472.654 96.3486 472.458 96.6387C472.264 96.9287 472.114 97.2796 472.006 97.6914ZM481.658 101.107C481.382 101.107 481.143 101.059 480.938 100.962C480.738 100.862 480.571 100.731 480.439 100.57C480.306 100.409 480.203 100.236 480.127 100.049H480.079L479.725 101H479.048L480.82 92.6426H481.712L481.282 94.6621C481.232 94.902 481.178 95.1401 481.121 95.3765C481.064 95.6092 481.012 95.8079 480.965 95.9727C480.922 96.1338 480.894 96.2287 480.879 96.2573H480.922C481.094 96.0389 481.279 95.8366 481.476 95.6504C481.676 95.4606 481.895 95.3084 482.131 95.1938C482.371 95.0757 482.632 95.0166 482.915 95.0166C483.244 95.0166 483.531 95.0936 483.774 95.2476C484.018 95.3979 484.206 95.6217 484.338 95.9189C484.474 96.2161 484.542 96.585 484.542 97.0254C484.542 97.4479 484.5 97.8597 484.414 98.2607C484.331 98.6582 484.209 99.0288 484.048 99.3726C483.887 99.7163 483.69 100.019 483.458 100.28C483.225 100.538 482.956 100.74 482.652 100.887C482.351 101.034 482.02 101.107 481.658 101.107ZM481.594 100.366C481.844 100.366 482.074 100.304 482.281 100.178C482.493 100.053 482.681 99.8828 482.845 99.668C483.014 99.4495 483.155 99.1971 483.27 98.9106C483.388 98.6242 483.477 98.3198 483.538 97.9976C483.599 97.6753 483.629 97.3477 483.629 97.0146C483.629 96.5993 483.545 96.286 483.377 96.0747C483.212 95.8634 482.965 95.7578 482.636 95.7578C482.464 95.7578 482.288 95.8008 482.109 95.8867C481.934 95.9691 481.764 96.0872 481.599 96.2412C481.434 96.3952 481.28 96.576 481.137 96.7837C480.998 96.9914 480.874 97.2205 480.767 97.4712C480.663 97.7218 480.58 97.9868 480.52 98.2661C480.459 98.5454 480.428 98.8301 480.428 99.1201C480.428 99.4961 480.523 99.7987 480.713 100.028C480.906 100.253 481.2 100.366 481.594 100.366ZM487.765 101.107C487.325 101.107 486.945 101.02 486.626 100.844C486.308 100.665 486.062 100.411 485.891 100.082C485.722 99.7485 485.638 99.3511 485.638 98.8892C485.638 98.4129 485.706 97.9456 485.842 97.4873C485.982 97.0254 486.181 96.6082 486.438 96.2358C486.696 95.8599 487.006 95.5609 487.368 95.3389C487.733 95.1169 488.141 95.0059 488.592 95.0059C489.133 95.0059 489.543 95.1276 489.822 95.3711C490.102 95.611 490.241 95.9422 490.241 96.3647C490.241 96.6619 490.171 96.9359 490.032 97.1865C489.896 97.4372 489.684 97.6556 489.398 97.8418C489.115 98.0244 488.755 98.1676 488.318 98.2715C487.885 98.3717 487.371 98.4219 486.777 98.4219H486.573C486.566 98.4863 486.558 98.5579 486.551 98.6367C486.548 98.7155 486.546 98.7889 486.546 98.8569C486.546 99.3296 486.66 99.7002 486.89 99.9688C487.119 100.234 487.463 100.366 487.921 100.366C488.204 100.366 488.471 100.327 488.721 100.248C488.975 100.166 489.24 100.058 489.516 99.9258V100.694C489.251 100.816 488.984 100.916 488.716 100.995C488.447 101.07 488.13 101.107 487.765 101.107ZM486.702 97.6914H486.831C487.289 97.6914 487.71 97.652 488.093 97.5732C488.476 97.4909 488.784 97.3584 489.017 97.1758C489.249 96.9896 489.366 96.7425 489.366 96.4346C489.366 96.234 489.298 96.0693 489.162 95.9404C489.026 95.8115 488.818 95.7471 488.539 95.7471C488.292 95.7471 488.048 95.8241 487.808 95.978C487.568 96.1284 487.35 96.3486 487.153 96.6387C486.959 96.9287 486.809 97.2796 486.702 97.6914ZM490.886 101L492.137 95.1133H493.034L491.783 101H490.886ZM492.889 94.082C492.746 94.082 492.626 94.0409 492.529 93.9585C492.436 93.8726 492.39 93.7526 492.39 93.5986C492.39 93.4805 492.413 93.3695 492.459 93.2656C492.51 93.1618 492.579 93.0794 492.669 93.0186C492.762 92.9541 492.875 92.9219 493.007 92.9219C493.165 92.9219 493.283 92.9631 493.362 93.0454C493.441 93.1278 493.48 93.2424 493.48 93.3892C493.48 93.6004 493.419 93.7687 493.297 93.894C493.176 94.0194 493.04 94.082 492.889 94.082ZM493.63 101L494.893 95.0864H495.682L495.542 96.2197H495.553C495.689 96.0335 495.852 95.8455 496.042 95.6558C496.235 95.4624 496.459 95.3013 496.713 95.1724C496.971 95.0399 497.263 94.9736 497.589 94.9736C497.904 94.9736 498.174 95.0327 498.4 95.1509C498.625 95.2655 498.799 95.4338 498.921 95.6558C499.043 95.8742 499.104 96.1392 499.104 96.4507C499.104 96.6154 499.091 96.7819 499.066 96.9502C499.041 97.1185 499.014 97.2689 498.985 97.4014L498.201 101H497.25L498.045 97.2832C498.078 97.1221 498.103 96.9842 498.121 96.8696C498.142 96.755 498.153 96.6476 498.153 96.5474C498.153 96.2967 498.085 96.1069 497.949 95.978C497.813 95.8491 497.612 95.7847 497.347 95.7847C497.086 95.7847 496.81 95.8742 496.52 96.0532C496.23 96.2323 495.961 96.5151 495.714 96.9019C495.467 97.285 495.276 97.7863 495.14 98.4058L494.586 101H493.63ZM501.397 103.643C500.706 103.643 500.165 103.51 499.775 103.245C499.385 102.984 499.189 102.615 499.189 102.139C499.189 101.756 499.32 101.423 499.582 101.14C499.839 100.86 500.255 100.626 500.828 100.436C500.692 100.364 500.588 100.275 500.516 100.167C500.448 100.056 500.414 99.9294 500.414 99.7861C500.414 99.5426 500.504 99.3332 500.683 99.1577C500.862 98.9787 501.112 98.814 501.435 98.6636C501.205 98.5454 501.021 98.3717 500.881 98.1426C500.742 97.9134 500.672 97.6502 500.672 97.353C500.675 96.9985 500.736 96.6745 500.854 96.3809C500.973 96.0872 501.139 95.8366 501.354 95.6289C501.555 95.4355 501.789 95.2852 502.058 95.1777C502.33 95.0703 502.625 95.0166 502.944 95.0166C503.08 95.0166 503.216 95.0256 503.352 95.0435C503.488 95.0614 503.622 95.0882 503.755 95.124H505.742L505.613 95.6665L504.448 95.7847C504.53 95.8957 504.591 96.0264 504.63 96.1768C504.673 96.3271 504.693 96.4937 504.689 96.6763C504.689 97.0272 504.63 97.3441 504.512 97.627C504.394 97.9098 504.226 98.1497 504.007 98.3467C503.81 98.5221 503.576 98.6582 503.304 98.7549C503.035 98.848 502.734 98.8963 502.401 98.8999C502.305 98.8999 502.219 98.8963 502.144 98.8892C502.068 98.882 502.004 98.8713 501.95 98.8569C501.689 98.95 501.495 99.0592 501.37 99.1846C501.245 99.3099 501.182 99.4424 501.182 99.582C501.182 99.6823 501.213 99.7629 501.273 99.8237C501.331 99.8774 501.41 99.9186 501.51 99.9473C501.614 99.9723 501.741 99.9938 501.891 100.012L502.525 100.082C502.955 100.132 503.306 100.218 503.578 100.339C503.85 100.458 504.05 100.619 504.179 100.823C504.308 101.027 504.373 101.279 504.373 101.58C504.373 101.96 504.285 102.287 504.109 102.563C503.934 102.842 503.681 103.07 503.352 103.245C503.101 103.374 502.811 103.472 502.482 103.541C502.156 103.609 501.794 103.643 501.397 103.643ZM501.435 102.993C501.76 102.993 502.05 102.964 502.305 102.907C502.562 102.849 502.781 102.767 502.96 102.66C503.153 102.542 503.3 102.398 503.4 102.23C503.504 102.062 503.556 101.868 503.556 101.65C503.556 101.553 503.54 101.465 503.508 101.387C503.479 101.308 503.433 101.238 503.368 101.177C503.268 101.081 503.125 101.002 502.938 100.941C502.752 100.88 502.516 100.837 502.229 100.812L501.37 100.726C501.069 100.791 500.817 100.885 500.613 101.011C500.412 101.14 500.26 101.292 500.156 101.467C500.052 101.643 500 101.84 500 102.058C500 102.352 500.122 102.581 500.366 102.746C500.609 102.91 500.965 102.993 501.435 102.993ZM502.439 98.3091C502.747 98.3091 503.007 98.2321 503.218 98.0781C503.433 97.9206 503.597 97.7129 503.712 97.4551C503.826 97.1937 503.884 96.909 503.884 96.6011C503.884 96.4471 503.862 96.311 503.819 96.1929C503.78 96.0711 503.719 95.9709 503.637 95.8921C503.558 95.8097 503.458 95.7471 503.336 95.7041C503.218 95.6611 503.082 95.6396 502.928 95.6396C502.702 95.6396 502.5 95.6844 502.321 95.7739C502.142 95.8599 501.99 95.9798 501.864 96.1338C501.743 96.2878 501.648 96.4668 501.58 96.6709C501.515 96.875 501.483 97.0934 501.483 97.3262C501.483 97.4766 501.503 97.6108 501.542 97.729C501.581 97.8472 501.639 97.9474 501.714 98.0298C501.879 98.216 502.12 98.3091 502.439 98.3091ZM508.578 101L509.83 95.1133H510.56L510.42 96.252H510.474C510.625 96.0479 510.786 95.8509 510.958 95.6611C511.129 95.4678 511.325 95.3102 511.543 95.1885C511.765 95.0667 512.019 95.0059 512.306 95.0059C512.413 95.0059 512.522 95.013 512.633 95.0273C512.744 95.0381 512.848 95.0578 512.945 95.0864L512.751 95.8867C512.655 95.8652 512.56 95.8491 512.467 95.8384C512.377 95.8276 512.284 95.8223 512.188 95.8223C511.915 95.8223 511.663 95.8939 511.43 96.0371C511.197 96.1768 510.988 96.3647 510.802 96.6011C510.619 96.8374 510.463 97.1006 510.334 97.3906C510.209 97.6807 510.114 97.9761 510.05 98.2769L509.475 101H508.578ZM515.287 101.107C514.846 101.107 514.467 101.02 514.148 100.844C513.829 100.665 513.584 100.411 513.412 100.082C513.244 99.7485 513.16 99.3511 513.16 98.8892C513.16 98.4129 513.228 97.9456 513.364 97.4873C513.503 97.0254 513.702 96.6082 513.96 96.2358C514.218 95.8599 514.528 95.5609 514.889 95.3389C515.254 95.1169 515.663 95.0059 516.114 95.0059C516.654 95.0059 517.064 95.1276 517.344 95.3711C517.623 95.611 517.763 95.9422 517.763 96.3647C517.763 96.6619 517.693 96.9359 517.553 97.1865C517.417 97.4372 517.206 97.6556 516.919 97.8418C516.637 98.0244 516.277 98.1676 515.84 98.2715C515.407 98.3717 514.893 98.4219 514.298 98.4219H514.094C514.087 98.4863 514.08 98.5579 514.073 98.6367C514.069 98.7155 514.067 98.7889 514.067 98.8569C514.067 99.3296 514.182 99.7002 514.411 99.9688C514.64 100.234 514.984 100.366 515.442 100.366C515.725 100.366 515.992 100.327 516.243 100.248C516.497 100.166 516.762 100.058 517.038 99.9258V100.694C516.773 100.816 516.506 100.916 516.237 100.995C515.969 101.07 515.652 101.107 515.287 101.107ZM514.223 97.6914H514.352C514.81 97.6914 515.231 97.652 515.614 97.5732C515.997 97.4909 516.305 97.3584 516.538 97.1758C516.771 96.9896 516.887 96.7425 516.887 96.4346C516.887 96.234 516.819 96.0693 516.683 95.9404C516.547 95.8115 516.339 95.7471 516.06 95.7471C515.813 95.7471 515.569 95.8241 515.33 95.978C515.09 96.1284 514.871 96.3486 514.674 96.6387C514.481 96.9287 514.331 97.2796 514.223 97.6914ZM521.426 103.632L521.958 101.14C521.983 101.039 522.013 100.914 522.049 100.764C522.088 100.61 522.129 100.452 522.172 100.291C522.215 100.13 522.253 99.9849 522.285 99.856H522.242C522.077 100.074 521.893 100.28 521.689 100.474C521.488 100.663 521.268 100.817 521.028 100.936C520.788 101.05 520.525 101.107 520.239 101.107C519.913 101.107 519.628 101.032 519.385 100.882C519.145 100.728 518.959 100.502 518.826 100.205C518.694 99.9043 518.627 99.5337 518.627 99.0933C518.627 98.6743 518.67 98.2661 518.756 97.8687C518.842 97.4676 518.966 97.0952 519.127 96.7515C519.292 96.4041 519.492 96.0998 519.729 95.8384C519.968 95.577 520.239 95.3729 520.54 95.2261C520.844 95.0793 521.179 95.0059 521.544 95.0059C521.816 95.0059 522.049 95.056 522.242 95.1562C522.439 95.2565 522.604 95.3872 522.736 95.5483C522.869 95.7095 522.971 95.8831 523.042 96.0693H523.096L523.451 95.1133H524.122L522.312 103.632H521.426ZM520.529 100.366C520.701 100.366 520.873 100.325 521.044 100.243C521.22 100.157 521.39 100.037 521.555 99.8828C521.719 99.7253 521.872 99.5426 522.011 99.335C522.154 99.1237 522.28 98.8927 522.387 98.6421C522.495 98.3914 522.579 98.1283 522.64 97.8525C522.701 97.5732 522.731 97.2904 522.731 97.0039C522.731 96.653 522.64 96.3576 522.457 96.1177C522.274 95.8778 521.988 95.7578 521.598 95.7578C521.351 95.7578 521.121 95.8205 520.91 95.9458C520.699 96.0711 520.509 96.243 520.341 96.4614C520.173 96.6799 520.029 96.9323 519.911 97.2188C519.793 97.5016 519.702 97.806 519.637 98.1318C519.576 98.4541 519.546 98.7799 519.546 99.1094C519.546 99.5212 519.626 99.8345 519.788 100.049C519.952 100.261 520.199 100.366 520.529 100.366ZM526.534 101.107C526.236 101.107 525.977 101.052 525.755 100.941C525.533 100.83 525.361 100.667 525.239 100.452C525.121 100.234 525.062 99.967 525.062 99.6519C525.062 99.4943 525.073 99.3421 525.094 99.1953C525.119 99.0449 525.146 98.8892 525.175 98.728L525.954 95.1133H526.856L526.056 98.8301C526.027 98.984 526.004 99.1219 525.986 99.2437C525.972 99.3618 525.964 99.4674 525.964 99.5605C525.964 99.8148 526.029 100.014 526.158 100.157C526.29 100.296 526.5 100.366 526.786 100.366C527.055 100.366 527.336 100.275 527.629 100.092C527.927 99.9097 528.201 99.6232 528.451 99.2329C528.705 98.839 528.899 98.3288 529.031 97.7021L529.579 95.1133H530.46L529.214 101H528.478L528.623 99.8613H528.575C528.439 100.048 528.274 100.237 528.081 100.431C527.887 100.62 527.663 100.782 527.409 100.914C527.155 101.043 526.863 101.107 526.534 101.107ZM533.462 101.107C533.022 101.107 532.642 101.02 532.324 100.844C532.005 100.665 531.76 100.411 531.588 100.082C531.42 99.7485 531.335 99.3511 531.335 98.8892C531.335 98.4129 531.403 97.9456 531.54 97.4873C531.679 97.0254 531.878 96.6082 532.136 96.2358C532.394 95.8599 532.703 95.5609 533.065 95.3389C533.43 95.1169 533.838 95.0059 534.29 95.0059C534.83 95.0059 535.24 95.1276 535.52 95.3711C535.799 95.611 535.938 95.9422 535.938 96.3647C535.938 96.6619 535.869 96.9359 535.729 97.1865C535.593 97.4372 535.382 97.6556 535.095 97.8418C534.812 98.0244 534.452 98.1676 534.016 98.2715C533.582 98.3717 533.069 98.4219 532.474 98.4219H532.27C532.263 98.4863 532.256 98.5579 532.249 98.6367C532.245 98.7155 532.243 98.7889 532.243 98.8569C532.243 99.3296 532.358 99.7002 532.587 99.9688C532.816 100.234 533.16 100.366 533.618 100.366C533.901 100.366 534.168 100.327 534.418 100.248C534.673 100.166 534.938 100.058 535.213 99.9258V100.694C534.948 100.816 534.682 100.916 534.413 100.995C534.145 101.07 533.828 101.107 533.462 101.107ZM532.399 97.6914H532.528C532.986 97.6914 533.407 97.652 533.79 97.5732C534.173 97.4909 534.481 97.3584 534.714 97.1758C534.947 96.9896 535.063 96.7425 535.063 96.4346C535.063 96.234 534.995 96.0693 534.859 95.9404C534.723 95.8115 534.515 95.7471 534.236 95.7471C533.989 95.7471 533.745 95.8241 533.505 95.978C533.265 96.1284 533.047 96.3486 532.85 96.6387C532.657 96.9287 532.506 97.2796 532.399 97.6914ZM537.985 101.107C537.627 101.107 537.312 101.072 537.04 101C536.771 100.928 536.536 100.839 536.336 100.731V99.9043C536.526 100.019 536.766 100.126 537.056 100.227C537.349 100.327 537.65 100.377 537.958 100.377C538.262 100.377 538.515 100.336 538.715 100.253C538.919 100.171 539.072 100.058 539.172 99.915C539.276 99.7682 539.328 99.5981 539.328 99.4048C539.328 99.2508 539.294 99.1183 539.226 99.0073C539.161 98.8927 539.054 98.7817 538.903 98.6743C538.757 98.5669 538.56 98.4434 538.312 98.3037C538.037 98.1497 537.804 97.994 537.614 97.8364C537.424 97.6789 537.279 97.507 537.179 97.3208C537.083 97.131 537.034 96.9108 537.034 96.6602C537.034 96.3236 537.117 96.0317 537.281 95.7847C537.446 95.5376 537.677 95.346 537.974 95.21C538.275 95.0739 538.626 95.0059 539.027 95.0059C539.381 95.0059 539.709 95.047 540.01 95.1294C540.311 95.2082 540.57 95.2995 540.789 95.4033L540.499 96.1177C540.312 96.0282 540.099 95.9458 539.859 95.8706C539.619 95.7954 539.342 95.7578 539.027 95.7578C538.69 95.7578 538.422 95.8348 538.221 95.9888C538.024 96.1427 537.926 96.3504 537.926 96.6118C537.926 96.7479 537.954 96.8696 538.012 96.9771C538.073 97.0845 538.176 97.1919 538.323 97.2993C538.47 97.4032 538.671 97.5249 538.925 97.6646C539.172 97.8078 539.394 97.9546 539.591 98.105C539.791 98.2518 539.949 98.4219 540.063 98.6152C540.182 98.805 540.241 99.0396 540.241 99.3188C540.241 99.702 540.149 100.028 539.967 100.296C539.784 100.561 539.523 100.764 539.183 100.903C538.846 101.039 538.447 101.107 537.985 101.107ZM543.007 101.107C542.617 101.107 542.291 101.014 542.029 100.828C541.771 100.638 541.643 100.314 541.643 99.856C541.643 99.745 541.65 99.625 541.664 99.4961C541.678 99.3636 541.702 99.2275 541.734 99.0879L542.427 95.7954H541.519L541.605 95.3818L542.583 95.0059L543.227 93.7598H543.759L543.463 95.1133H544.978L544.838 95.7954H543.329L542.631 99.0986C542.606 99.1989 542.583 99.3063 542.561 99.4209C542.543 99.5355 542.534 99.6447 542.534 99.7485C542.534 99.9276 542.581 100.078 542.674 100.2C542.767 100.318 542.923 100.377 543.141 100.377C543.277 100.377 543.406 100.364 543.528 100.339C543.653 100.314 543.786 100.278 543.925 100.232V100.919C543.836 100.962 543.7 101.004 543.517 101.043C543.338 101.086 543.168 101.107 543.007 101.107ZM547.32 101.107C546.879 101.107 546.5 101.02 546.181 100.844C545.862 100.665 545.617 100.411 545.445 100.082C545.277 99.7485 545.193 99.3511 545.193 98.8892C545.193 98.4129 545.261 97.9456 545.397 97.4873C545.537 97.0254 545.735 96.6082 545.993 96.2358C546.251 95.8599 546.561 95.5609 546.922 95.3389C547.288 95.1169 547.696 95.0059 548.147 95.0059C548.688 95.0059 549.098 95.1276 549.377 95.3711C549.656 95.611 549.796 95.9422 549.796 96.3647C549.796 96.6619 549.726 96.9359 549.586 97.1865C549.45 97.4372 549.239 97.6556 548.953 97.8418C548.67 98.0244 548.31 98.1676 547.873 98.2715C547.44 98.3717 546.926 98.4219 546.332 98.4219H546.127C546.12 98.4863 546.113 98.5579 546.106 98.6367C546.102 98.7155 546.101 98.7889 546.101 98.8569C546.101 99.3296 546.215 99.7002 546.444 99.9688C546.674 100.234 547.017 100.366 547.476 100.366C547.758 100.366 548.025 100.327 548.276 100.248C548.53 100.166 548.795 100.058 549.071 99.9258V100.694C548.806 100.816 548.539 100.916 548.271 100.995C548.002 101.07 547.685 101.107 547.32 101.107ZM546.256 97.6914H546.385C546.844 97.6914 547.264 97.652 547.647 97.5732C548.031 97.4909 548.339 97.3584 548.571 97.1758C548.804 96.9896 548.92 96.7425 548.92 96.4346C548.92 96.234 548.852 96.0693 548.716 95.9404C548.58 95.8115 548.373 95.7471 548.093 95.7471C547.846 95.7471 547.603 95.8241 547.363 95.978C547.123 96.1284 546.904 96.3486 546.708 96.6387C546.514 96.9287 546.364 97.2796 546.256 97.6914ZM552.261 101.107C551.939 101.107 551.658 101.032 551.418 100.882C551.178 100.731 550.992 100.508 550.859 100.21C550.727 99.9097 550.661 99.5373 550.661 99.0933C550.661 98.6707 550.704 98.2607 550.79 97.8633C550.875 97.4622 550.999 97.0898 551.16 96.7461C551.325 96.4023 551.525 96.1016 551.762 95.8438C551.998 95.5824 552.267 95.38 552.567 95.2368C552.872 95.09 553.205 95.0166 553.566 95.0166C553.842 95.0166 554.078 95.0667 554.275 95.167C554.472 95.2673 554.635 95.3979 554.764 95.5591C554.897 95.7166 555 95.8867 555.076 96.0693H555.129C555.151 95.9046 555.172 95.7453 555.194 95.5913C555.215 95.4338 555.24 95.2744 555.269 95.1133C555.301 94.9521 555.337 94.7856 555.376 94.6138L555.79 92.6426H556.676L554.904 101H554.168L554.313 99.8613H554.275C554.104 100.083 553.916 100.289 553.711 100.479C553.511 100.669 553.291 100.821 553.051 100.936C552.811 101.05 552.548 101.107 552.261 101.107ZM552.562 100.366C552.73 100.366 552.9 100.325 553.072 100.243C553.248 100.16 553.418 100.044 553.583 99.8936C553.747 99.7396 553.901 99.5588 554.044 99.3511C554.188 99.1434 554.313 98.9142 554.42 98.6636C554.531 98.4129 554.617 98.1479 554.678 97.8687C554.739 97.5894 554.77 97.3011 554.77 97.0039C554.77 96.6243 554.678 96.3218 554.496 96.0962C554.313 95.8706 554.021 95.7578 553.62 95.7578C553.373 95.7578 553.144 95.8205 552.933 95.9458C552.725 96.0711 552.537 96.243 552.369 96.4614C552.2 96.6799 552.057 96.9323 551.939 97.2188C551.824 97.5016 551.735 97.806 551.67 98.1318C551.61 98.4541 551.579 98.7799 551.579 99.1094C551.579 99.5212 551.661 99.8345 551.826 100.049C551.991 100.261 552.236 100.366 552.562 100.366ZM557.256 101.15C557.088 101.15 556.957 101.102 556.864 101.005C556.771 100.912 556.725 100.78 556.725 100.608C556.725 100.382 556.787 100.184 556.913 100.012C557.042 99.8363 557.242 99.7485 557.514 99.7485C557.665 99.7485 557.786 99.7951 557.879 99.8882C557.972 99.9813 558.019 100.117 558.019 100.296C558.019 100.508 557.956 100.703 557.831 100.882C557.706 101.061 557.514 101.15 557.256 101.15Z" fill="#61656E"/>
</svg>
