<svg width="327" height="300" viewBox="0 0 327 300" fill="none" xmlns="http://www.w3.org/2000/svg">
<rect width="327" height="300" fill="#EAEDEF"/>
<path d="M94.7998 80.1504C95.9072 80.1504 96.8213 80.2852 97.542 80.5547C98.2686 80.8242 98.8076 81.2344 99.1592 81.7852C99.5166 82.3359 99.6953 83.0361 99.6953 83.8857C99.6953 84.5186 99.5781 85.0576 99.3438 85.5029C99.1094 85.9482 98.8018 86.3174 98.4209 86.6104C98.04 86.9033 97.6328 87.1377 97.1992 87.3135L100.847 93H98.4648L95.3623 87.8496H93.2969V93H91.1875V80.1504H94.7998ZM94.6592 81.9082H93.2969V86.1094H94.7559C95.7344 86.1094 96.4434 85.9277 96.8828 85.5645C97.3281 85.2012 97.5508 84.665 97.5508 83.9561C97.5508 83.2119 97.3135 82.6846 96.8389 82.374C96.3701 82.0635 95.6436 81.9082 94.6592 81.9082ZM106.287 83.0859C107.518 83.0859 108.446 83.3584 109.073 83.9033C109.706 84.4482 110.022 85.2979 110.022 86.4521V93H108.555L108.159 91.6201H108.089C107.813 91.9717 107.529 92.2617 107.236 92.4902C106.943 92.7188 106.604 92.8887 106.217 93C105.836 93.1172 105.37 93.1758 104.819 93.1758C104.239 93.1758 103.721 93.0703 103.264 92.8594C102.807 92.6426 102.446 92.3145 102.183 91.875C101.919 91.4355 101.787 90.8789 101.787 90.2051C101.787 89.2031 102.159 88.4502 102.903 87.9463C103.653 87.4424 104.784 87.1641 106.296 87.1113L107.983 87.0498V86.54C107.983 85.8662 107.825 85.3857 107.509 85.0986C107.198 84.8115 106.759 84.668 106.19 84.668C105.704 84.668 105.232 84.7383 104.775 84.8789C104.318 85.0195 103.873 85.1924 103.439 85.3975L102.771 83.9385C103.246 83.6865 103.785 83.4814 104.389 83.3232C104.998 83.165 105.631 83.0859 106.287 83.0859ZM107.975 88.3506L106.718 88.3945C105.687 88.4297 104.963 88.6055 104.547 88.9219C104.131 89.2383 103.923 89.6719 103.923 90.2227C103.923 90.7031 104.066 91.0547 104.354 91.2773C104.641 91.4941 105.019 91.6025 105.487 91.6025C106.202 91.6025 106.794 91.4004 107.263 90.9961C107.737 90.5859 107.975 89.9854 107.975 89.1943V88.3506ZM116.535 91.5059C116.805 91.5059 117.071 91.4824 117.335 91.4355C117.599 91.3828 117.839 91.3213 118.056 91.251V92.8154C117.827 92.915 117.531 93 117.168 93.0703C116.805 93.1406 116.427 93.1758 116.034 93.1758C115.483 93.1758 114.988 93.085 114.549 92.9033C114.109 92.7158 113.761 92.3965 113.503 91.9453C113.245 91.4941 113.116 90.8701 113.116 90.0732V84.8438H111.789V83.9209L113.213 83.1914L113.89 81.1084H115.19V83.2705H117.977V84.8438H115.19V90.0469C115.19 90.5391 115.313 90.9053 115.56 91.1455C115.806 91.3857 116.131 91.5059 116.535 91.5059ZM122.099 83.2705V93H120.033V83.2705H122.099ZM121.079 79.5439C121.396 79.5439 121.668 79.6289 121.896 79.7988C122.131 79.9688 122.248 80.2617 122.248 80.6777C122.248 81.0879 122.131 81.3809 121.896 81.5566C121.668 81.7266 121.396 81.8115 121.079 81.8115C120.751 81.8115 120.473 81.7266 120.244 81.5566C120.021 81.3809 119.91 81.0879 119.91 80.6777C119.91 80.2617 120.021 79.9688 120.244 79.7988C120.473 79.6289 120.751 79.5439 121.079 79.5439ZM133.674 88.1133C133.674 88.9219 133.568 89.6396 133.357 90.2666C133.146 90.8936 132.839 91.4238 132.435 91.8574C132.03 92.2852 131.544 92.6133 130.976 92.8418C130.407 93.0645 129.766 93.1758 129.051 93.1758C128.383 93.1758 127.771 93.0645 127.214 92.8418C126.657 92.6133 126.174 92.2852 125.764 91.8574C125.359 91.4238 125.046 90.8936 124.823 90.2666C124.601 89.6396 124.489 88.9219 124.489 88.1133C124.489 87.041 124.674 86.1328 125.043 85.3887C125.418 84.6387 125.951 84.0674 126.643 83.6748C127.334 83.2822 128.157 83.0859 129.112 83.0859C130.009 83.0859 130.8 83.2822 131.485 83.6748C132.171 84.0674 132.707 84.6387 133.094 85.3887C133.48 86.1387 133.674 87.0469 133.674 88.1133ZM126.616 88.1133C126.616 88.8223 126.701 89.4287 126.871 89.9326C127.047 90.4365 127.316 90.8232 127.68 91.0928C128.043 91.3564 128.512 91.4883 129.086 91.4883C129.66 91.4883 130.129 91.3564 130.492 91.0928C130.855 90.8232 131.122 90.4365 131.292 89.9326C131.462 89.4287 131.547 88.8223 131.547 88.1133C131.547 87.4043 131.462 86.8037 131.292 86.3115C131.122 85.8135 130.855 85.4355 130.492 85.1777C130.129 84.9141 129.657 84.7822 129.077 84.7822C128.222 84.7822 127.598 85.0693 127.205 85.6436C126.812 86.2178 126.616 87.041 126.616 88.1133Z" fill="#161616"/>
<g clip-path="url(#clip0_2296_295515)">
<path d="M92.9102 114.434C94.0156 114.434 94.8223 114.65 95.3301 115.084C95.8418 115.514 96.0977 116.131 96.0977 116.936C96.0977 117.299 96.0371 117.645 95.916 117.973C95.7988 118.297 95.6074 118.584 95.3418 118.834C95.0762 119.08 94.7266 119.275 94.293 119.42C93.8633 119.561 93.3359 119.631 92.7109 119.631H91.668V123H90.6719V114.434H92.9102ZM92.8164 115.283H91.668V118.775H92.5996C93.1465 118.775 93.6016 118.717 93.9648 118.6C94.332 118.482 94.6074 118.293 94.791 118.031C94.9746 117.766 95.0664 117.414 95.0664 116.977C95.0664 116.406 94.8848 115.982 94.5215 115.705C94.1582 115.424 93.5898 115.283 92.8164 115.283ZM100.662 116.461C100.791 116.461 100.926 116.469 101.066 116.484C101.207 116.496 101.332 116.514 101.441 116.537L101.318 117.439C101.213 117.412 101.096 117.391 100.967 117.375C100.838 117.359 100.717 117.352 100.604 117.352C100.346 117.352 100.102 117.404 99.8711 117.51C99.6445 117.611 99.4453 117.76 99.2734 117.955C99.1016 118.146 98.9668 118.379 98.8691 118.652C98.7715 118.922 98.7227 119.223 98.7227 119.555V123H97.7441V116.578H98.5527L98.6582 117.762H98.6992C98.832 117.523 98.9922 117.307 99.1797 117.111C99.3672 116.912 99.584 116.754 99.8301 116.637C100.08 116.52 100.357 116.461 100.662 116.461ZM103.627 116.578V123H102.654V116.578H103.627ZM103.152 114.176C103.312 114.176 103.449 114.229 103.562 114.334C103.68 114.436 103.738 114.596 103.738 114.814C103.738 115.029 103.68 115.189 103.562 115.295C103.449 115.4 103.312 115.453 103.152 115.453C102.984 115.453 102.844 115.4 102.73 115.295C102.621 115.189 102.566 115.029 102.566 114.814C102.566 114.596 102.621 114.436 102.73 114.334C102.844 114.229 102.984 114.176 103.152 114.176ZM112.662 116.461C113.369 116.461 113.902 116.646 114.262 117.018C114.621 117.385 114.801 117.977 114.801 118.793V123H113.84V118.84C113.84 118.32 113.727 117.932 113.5 117.674C113.277 117.412 112.945 117.281 112.504 117.281C111.883 117.281 111.432 117.461 111.15 117.82C110.869 118.18 110.729 118.709 110.729 119.408V123H109.762V118.84C109.762 118.492 109.711 118.203 109.609 117.973C109.512 117.742 109.363 117.57 109.164 117.457C108.969 117.34 108.721 117.281 108.42 117.281C107.994 117.281 107.652 117.369 107.395 117.545C107.137 117.721 106.949 117.982 106.832 118.33C106.719 118.674 106.662 119.098 106.662 119.602V123H105.689V116.578H106.475L106.621 117.486H106.674C106.803 117.264 106.965 117.076 107.16 116.924C107.355 116.771 107.574 116.656 107.816 116.578C108.059 116.5 108.316 116.461 108.59 116.461C109.078 116.461 109.486 116.553 109.814 116.736C110.146 116.916 110.387 117.191 110.535 117.562H110.588C110.799 117.191 111.088 116.916 111.455 116.736C111.822 116.553 112.225 116.461 112.662 116.461ZM119.201 116.473C119.967 116.473 120.535 116.645 120.906 116.988C121.277 117.332 121.463 117.881 121.463 118.635V123H120.754L120.566 122.051H120.52C120.34 122.285 120.152 122.482 119.957 122.643C119.762 122.799 119.535 122.918 119.277 123C119.023 123.078 118.711 123.117 118.34 123.117C117.949 123.117 117.602 123.049 117.297 122.912C116.996 122.775 116.758 122.568 116.582 122.291C116.41 122.014 116.324 121.662 116.324 121.236C116.324 120.596 116.578 120.104 117.086 119.76C117.594 119.416 118.367 119.229 119.406 119.197L120.514 119.15V118.758C120.514 118.203 120.395 117.814 120.156 117.592C119.918 117.369 119.582 117.258 119.148 117.258C118.812 117.258 118.492 117.307 118.188 117.404C117.883 117.502 117.594 117.617 117.32 117.75L117.021 117.012C117.311 116.863 117.643 116.736 118.018 116.631C118.393 116.525 118.787 116.473 119.201 116.473ZM120.502 119.836L119.523 119.877C118.723 119.908 118.158 120.039 117.83 120.27C117.502 120.5 117.338 120.826 117.338 121.248C117.338 121.615 117.449 121.887 117.672 122.062C117.895 122.238 118.189 122.326 118.557 122.326C119.127 122.326 119.594 122.168 119.957 121.852C120.32 121.535 120.502 121.061 120.502 120.428V119.836ZM126.385 116.461C126.514 116.461 126.648 116.469 126.789 116.484C126.93 116.496 127.055 116.514 127.164 116.537L127.041 117.439C126.936 117.412 126.818 117.391 126.689 117.375C126.561 117.359 126.439 117.352 126.326 117.352C126.068 117.352 125.824 117.404 125.594 117.51C125.367 117.611 125.168 117.76 124.996 117.955C124.824 118.146 124.689 118.379 124.592 118.652C124.494 118.922 124.445 119.223 124.445 119.555V123H123.467V116.578H124.275L124.381 117.762H124.422C124.555 117.523 124.715 117.307 124.902 117.111C125.09 116.912 125.307 116.754 125.553 116.637C125.803 116.52 126.08 116.461 126.385 116.461ZM127.363 116.578H128.406L129.824 120.305C129.906 120.523 129.982 120.734 130.053 120.938C130.123 121.137 130.186 121.328 130.24 121.512C130.295 121.695 130.338 121.873 130.369 122.045H130.41C130.465 121.85 130.543 121.594 130.645 121.277C130.746 120.957 130.855 120.631 130.973 120.299L132.314 116.578H133.363L130.568 123.943C130.42 124.338 130.246 124.682 130.047 124.975C129.852 125.268 129.613 125.492 129.332 125.648C129.051 125.809 128.711 125.889 128.312 125.889C128.129 125.889 127.967 125.877 127.826 125.854C127.686 125.834 127.564 125.811 127.463 125.783V125.004C127.549 125.023 127.652 125.041 127.773 125.057C127.898 125.072 128.027 125.08 128.16 125.08C128.402 125.08 128.611 125.033 128.787 124.939C128.967 124.85 129.121 124.717 129.25 124.541C129.379 124.365 129.49 124.156 129.584 123.914L129.936 123.012L127.363 116.578ZM139.967 114.434C140.67 114.434 141.25 114.521 141.707 114.697C142.168 114.869 142.512 115.133 142.738 115.488C142.965 115.844 143.078 116.297 143.078 116.848C143.078 117.301 142.996 117.68 142.832 117.984C142.668 118.285 142.453 118.529 142.188 118.717C141.922 118.904 141.639 119.049 141.338 119.15L143.688 123H142.527L140.43 119.426H138.648V123H137.652V114.434H139.967ZM139.908 115.295H138.648V118.582H140.008C140.707 118.582 141.221 118.439 141.549 118.154C141.881 117.869 142.047 117.449 142.047 116.895C142.047 116.312 141.871 115.9 141.52 115.658C141.172 115.416 140.635 115.295 139.908 115.295ZM147.314 116.473C148.08 116.473 148.648 116.645 149.02 116.988C149.391 117.332 149.576 117.881 149.576 118.635V123H148.867L148.68 122.051H148.633C148.453 122.285 148.266 122.482 148.07 122.643C147.875 122.799 147.648 122.918 147.391 123C147.137 123.078 146.824 123.117 146.453 123.117C146.062 123.117 145.715 123.049 145.41 122.912C145.109 122.775 144.871 122.568 144.695 122.291C144.523 122.014 144.438 121.662 144.438 121.236C144.438 120.596 144.691 120.104 145.199 119.76C145.707 119.416 146.48 119.229 147.52 119.197L148.627 119.15V118.758C148.627 118.203 148.508 117.814 148.27 117.592C148.031 117.369 147.695 117.258 147.262 117.258C146.926 117.258 146.605 117.307 146.301 117.404C145.996 117.502 145.707 117.617 145.434 117.75L145.135 117.012C145.424 116.863 145.756 116.736 146.131 116.631C146.506 116.525 146.9 116.473 147.314 116.473ZM148.615 119.836L147.637 119.877C146.836 119.908 146.271 120.039 145.943 120.27C145.615 120.5 145.451 120.826 145.451 121.248C145.451 121.615 145.562 121.887 145.785 122.062C146.008 122.238 146.303 122.326 146.67 122.326C147.24 122.326 147.707 122.168 148.07 121.852C148.434 121.535 148.615 121.061 148.615 120.428V119.836ZM153.654 122.32C153.814 122.32 153.979 122.307 154.146 122.279C154.314 122.252 154.451 122.219 154.557 122.18V122.936C154.443 122.986 154.285 123.029 154.082 123.064C153.883 123.1 153.688 123.117 153.496 123.117C153.156 123.117 152.848 123.059 152.57 122.941C152.293 122.82 152.07 122.617 151.902 122.332C151.738 122.047 151.656 121.652 151.656 121.148V117.34H150.742V116.865L151.662 116.484L152.049 115.09H152.635V116.578H154.516V117.34H152.635V121.119C152.635 121.521 152.727 121.822 152.91 122.021C153.098 122.221 153.346 122.32 153.654 122.32ZM156.83 116.578V123H155.857V116.578H156.83ZM156.355 114.176C156.516 114.176 156.652 114.229 156.766 114.334C156.883 114.436 156.941 114.596 156.941 114.814C156.941 115.029 156.883 115.189 156.766 115.295C156.652 115.4 156.516 115.453 156.355 115.453C156.188 115.453 156.047 115.4 155.934 115.295C155.824 115.189 155.77 115.029 155.77 114.814C155.77 114.596 155.824 114.436 155.934 114.334C156.047 114.229 156.188 114.176 156.355 114.176ZM164.43 119.777C164.43 120.305 164.361 120.775 164.225 121.189C164.088 121.604 163.891 121.953 163.633 122.238C163.375 122.523 163.062 122.742 162.695 122.895C162.332 123.043 161.92 123.117 161.459 123.117C161.029 123.117 160.635 123.043 160.275 122.895C159.92 122.742 159.611 122.523 159.35 122.238C159.092 121.953 158.891 121.604 158.746 121.189C158.605 120.775 158.535 120.305 158.535 119.777C158.535 119.074 158.654 118.477 158.893 117.984C159.131 117.488 159.471 117.111 159.912 116.854C160.357 116.592 160.887 116.461 161.5 116.461C162.086 116.461 162.598 116.592 163.035 116.854C163.477 117.115 163.818 117.494 164.061 117.99C164.307 118.482 164.43 119.078 164.43 119.777ZM159.543 119.777C159.543 120.293 159.611 120.74 159.748 121.119C159.885 121.498 160.096 121.791 160.381 121.998C160.666 122.205 161.033 122.309 161.482 122.309C161.928 122.309 162.293 122.205 162.578 121.998C162.867 121.791 163.08 121.498 163.217 121.119C163.354 120.74 163.422 120.293 163.422 119.777C163.422 119.266 163.354 118.824 163.217 118.453C163.08 118.078 162.869 117.789 162.584 117.586C162.299 117.383 161.93 117.281 161.477 117.281C160.809 117.281 160.318 117.502 160.006 117.943C159.697 118.385 159.543 118.996 159.543 119.777ZM90.6719 147V138.434H91.668V147H90.6719ZM96.918 140.461C97.6797 140.461 98.2559 140.648 98.6465 141.023C99.0371 141.395 99.2324 141.992 99.2324 142.816V147H98.2715V142.881C98.2715 142.346 98.1484 141.945 97.9023 141.68C97.6602 141.414 97.2871 141.281 96.7832 141.281C96.0723 141.281 95.5723 141.482 95.2832 141.885C94.9941 142.287 94.8496 142.871 94.8496 143.637V147H93.877V140.578H94.6621L94.8086 141.504H94.8613C94.998 141.277 95.1719 141.088 95.3828 140.936C95.5938 140.779 95.8301 140.662 96.0918 140.584C96.3535 140.502 96.6289 140.461 96.918 140.461ZM102.209 140.578V147H101.236V140.578H102.209ZM101.734 138.176C101.895 138.176 102.031 138.229 102.145 138.334C102.262 138.436 102.32 138.596 102.32 138.814C102.32 139.029 102.262 139.189 102.145 139.295C102.031 139.4 101.895 139.453 101.734 139.453C101.566 139.453 101.426 139.4 101.312 139.295C101.203 139.189 101.148 139.029 101.148 138.814C101.148 138.596 101.203 138.436 101.312 138.334C101.426 138.229 101.566 138.176 101.734 138.176ZM106.346 146.32C106.506 146.32 106.67 146.307 106.838 146.279C107.006 146.252 107.143 146.219 107.248 146.18V146.936C107.135 146.986 106.977 147.029 106.773 147.064C106.574 147.1 106.379 147.117 106.188 147.117C105.848 147.117 105.539 147.059 105.262 146.941C104.984 146.82 104.762 146.617 104.594 146.332C104.43 146.047 104.348 145.652 104.348 145.148V141.34H103.434V140.865L104.354 140.484L104.74 139.09H105.326V140.578H107.207V141.34H105.326V145.119C105.326 145.521 105.418 145.822 105.602 146.021C105.789 146.221 106.037 146.32 106.346 146.32ZM109.521 140.578V147H108.549V140.578H109.521ZM109.047 138.176C109.207 138.176 109.344 138.229 109.457 138.334C109.574 138.436 109.633 138.596 109.633 138.814C109.633 139.029 109.574 139.189 109.457 139.295C109.344 139.4 109.207 139.453 109.047 139.453C108.879 139.453 108.738 139.4 108.625 139.295C108.516 139.189 108.461 139.029 108.461 138.814C108.461 138.596 108.516 138.436 108.625 138.334C108.738 138.229 108.879 138.176 109.047 138.176ZM113.986 140.473C114.752 140.473 115.32 140.645 115.691 140.988C116.062 141.332 116.248 141.881 116.248 142.635V147H115.539L115.352 146.051H115.305C115.125 146.285 114.938 146.482 114.742 146.643C114.547 146.799 114.32 146.918 114.062 147C113.809 147.078 113.496 147.117 113.125 147.117C112.734 147.117 112.387 147.049 112.082 146.912C111.781 146.775 111.543 146.568 111.367 146.291C111.195 146.014 111.109 145.662 111.109 145.236C111.109 144.596 111.363 144.104 111.871 143.76C112.379 143.416 113.152 143.229 114.191 143.197L115.299 143.15V142.758C115.299 142.203 115.18 141.814 114.941 141.592C114.703 141.369 114.367 141.258 113.934 141.258C113.598 141.258 113.277 141.307 112.973 141.404C112.668 141.502 112.379 141.617 112.105 141.75L111.807 141.012C112.096 140.863 112.428 140.736 112.803 140.631C113.178 140.525 113.572 140.473 113.986 140.473ZM115.287 143.836L114.309 143.877C113.508 143.908 112.943 144.039 112.615 144.27C112.287 144.5 112.123 144.826 112.123 145.248C112.123 145.615 112.234 145.887 112.457 146.062C112.68 146.238 112.975 146.326 113.342 146.326C113.912 146.326 114.379 146.168 114.742 145.852C115.105 145.535 115.287 145.061 115.287 144.428V143.836ZM119.23 147H118.252V137.883H119.23V147ZM124.551 147V138.434H125.547V146.109H129.35V147H124.551ZM133.451 147H132.449V139.312H129.754V138.434H136.135V139.312H133.451V147ZM143.412 138.434L140.336 147H139.334L136.258 138.434H137.301L139.305 144.076C139.387 144.303 139.459 144.52 139.521 144.727C139.588 144.934 139.646 145.133 139.697 145.324C139.748 145.516 139.793 145.701 139.832 145.881C139.871 145.701 139.916 145.516 139.967 145.324C140.018 145.129 140.076 144.928 140.143 144.721C140.209 144.51 140.283 144.289 140.365 144.059L142.357 138.434H143.412ZM92.9102 162.434C94.0156 162.434 94.8223 162.65 95.3301 163.084C95.8418 163.514 96.0977 164.131 96.0977 164.936C96.0977 165.299 96.0371 165.645 95.916 165.973C95.7988 166.297 95.6074 166.584 95.3418 166.834C95.0762 167.08 94.7266 167.275 94.293 167.42C93.8633 167.561 93.3359 167.631 92.7109 167.631H91.668V171H90.6719V162.434H92.9102ZM92.8164 163.283H91.668V166.775H92.5996C93.1465 166.775 93.6016 166.717 93.9648 166.6C94.332 166.482 94.6074 166.293 94.791 166.031C94.9746 165.766 95.0664 165.414 95.0664 164.977C95.0664 164.406 94.8848 163.982 94.5215 163.705C94.1582 163.424 93.5898 163.283 92.8164 163.283ZM100.217 164.461C100.764 164.461 101.232 164.582 101.623 164.824C102.014 165.066 102.312 165.406 102.52 165.844C102.727 166.277 102.83 166.785 102.83 167.367V167.971H98.3945C98.4062 168.725 98.5938 169.299 98.957 169.693C99.3203 170.088 99.832 170.285 100.492 170.285C100.898 170.285 101.258 170.248 101.57 170.174C101.883 170.1 102.207 169.99 102.543 169.846V170.701C102.219 170.846 101.896 170.951 101.576 171.018C101.26 171.084 100.885 171.117 100.451 171.117C99.834 171.117 99.2949 170.992 98.834 170.742C98.377 170.488 98.0215 170.117 97.7676 169.629C97.5137 169.141 97.3867 168.543 97.3867 167.836C97.3867 167.145 97.502 166.547 97.7324 166.043C97.9668 165.535 98.2949 165.145 98.7168 164.871C99.1426 164.598 99.6426 164.461 100.217 164.461ZM100.205 165.258C99.6855 165.258 99.2715 165.428 98.9629 165.768C98.6543 166.107 98.4707 166.582 98.4121 167.191H101.811C101.807 166.809 101.746 166.473 101.629 166.184C101.516 165.891 101.342 165.664 101.107 165.504C100.873 165.34 100.572 165.258 100.205 165.258ZM106.885 164.473C107.65 164.473 108.219 164.645 108.59 164.988C108.961 165.332 109.146 165.881 109.146 166.635V171H108.438L108.25 170.051H108.203C108.023 170.285 107.836 170.482 107.641 170.643C107.445 170.799 107.219 170.918 106.961 171C106.707 171.078 106.395 171.117 106.023 171.117C105.633 171.117 105.285 171.049 104.98 170.912C104.68 170.775 104.441 170.568 104.266 170.291C104.094 170.014 104.008 169.662 104.008 169.236C104.008 168.596 104.262 168.104 104.77 167.76C105.277 167.416 106.051 167.229 107.09 167.197L108.197 167.15V166.758C108.197 166.203 108.078 165.814 107.84 165.592C107.602 165.369 107.266 165.258 106.832 165.258C106.496 165.258 106.176 165.307 105.871 165.404C105.566 165.502 105.277 165.617 105.004 165.75L104.705 165.012C104.994 164.863 105.326 164.736 105.701 164.631C106.076 164.525 106.471 164.473 106.885 164.473ZM108.186 167.836L107.207 167.877C106.406 167.908 105.842 168.039 105.514 168.27C105.186 168.5 105.021 168.826 105.021 169.248C105.021 169.615 105.133 169.887 105.355 170.062C105.578 170.238 105.873 170.326 106.24 170.326C106.811 170.326 107.277 170.168 107.641 169.852C108.004 169.535 108.186 169.061 108.186 168.428V167.836ZM112.117 161.883V166.617C112.117 166.773 112.111 166.965 112.1 167.191C112.088 167.414 112.078 167.611 112.07 167.783H112.111C112.193 167.682 112.312 167.531 112.469 167.332C112.629 167.133 112.764 166.973 112.873 166.852L115.006 164.578H116.148L113.564 167.32L116.336 171H115.164L112.896 167.959L112.117 168.674V171H111.15V161.883H112.117ZM120.719 171V162.434H121.715V170.109H125.518V171H120.719ZM129.619 171H128.617V163.312H125.922V162.434H132.303V163.312H129.619V171ZM139.58 162.434L136.504 171H135.502L132.426 162.434H133.469L135.473 168.076C135.555 168.303 135.627 168.52 135.689 168.727C135.756 168.934 135.814 169.133 135.865 169.324C135.916 169.516 135.961 169.701 136 169.881C136.039 169.701 136.084 169.516 136.135 169.324C136.186 169.129 136.244 168.928 136.311 168.721C136.377 168.51 136.451 168.289 136.533 168.059L138.525 162.434H139.58ZM92.9863 186.434C93.6895 186.434 94.2695 186.521 94.7266 186.697C95.1875 186.869 95.5312 187.133 95.7578 187.488C95.9844 187.844 96.0977 188.297 96.0977 188.848C96.0977 189.301 96.0156 189.68 95.8516 189.984C95.6875 190.285 95.4727 190.529 95.207 190.717C94.9414 190.904 94.6582 191.049 94.3574 191.15L96.707 195H95.5469L93.4492 191.426H91.668V195H90.6719V186.434H92.9863ZM92.9277 187.295H91.668V190.582H93.0273C93.7266 190.582 94.2402 190.439 94.5684 190.154C94.9004 189.869 95.0664 189.449 95.0664 188.895C95.0664 188.312 94.8906 187.9 94.5391 187.658C94.1914 187.416 93.6543 187.295 92.9277 187.295ZM100.404 188.461C100.951 188.461 101.42 188.582 101.811 188.824C102.201 189.066 102.5 189.406 102.707 189.844C102.914 190.277 103.018 190.785 103.018 191.367V191.971H98.582C98.5938 192.725 98.7812 193.299 99.1445 193.693C99.5078 194.088 100.02 194.285 100.68 194.285C101.086 194.285 101.445 194.248 101.758 194.174C102.07 194.1 102.395 193.99 102.73 193.846V194.701C102.406 194.846 102.084 194.951 101.764 195.018C101.447 195.084 101.072 195.117 100.639 195.117C100.021 195.117 99.4824 194.992 99.0215 194.742C98.5645 194.488 98.209 194.117 97.9551 193.629C97.7012 193.141 97.5742 192.543 97.5742 191.836C97.5742 191.145 97.6895 190.547 97.9199 190.043C98.1543 189.535 98.4824 189.145 98.9043 188.871C99.3301 188.598 99.8301 188.461 100.404 188.461ZM100.393 189.258C99.873 189.258 99.459 189.428 99.1504 189.768C98.8418 190.107 98.6582 190.582 98.5996 191.191H101.998C101.994 190.809 101.934 190.473 101.816 190.184C101.703 189.891 101.529 189.664 101.295 189.504C101.061 189.34 100.76 189.258 100.393 189.258ZM105.648 195H104.67V185.883H105.648V195ZM110.178 188.461C110.725 188.461 111.193 188.582 111.584 188.824C111.975 189.066 112.273 189.406 112.48 189.844C112.688 190.277 112.791 190.785 112.791 191.367V191.971H108.355C108.367 192.725 108.555 193.299 108.918 193.693C109.281 194.088 109.793 194.285 110.453 194.285C110.859 194.285 111.219 194.248 111.531 194.174C111.844 194.1 112.168 193.99 112.504 193.846V194.701C112.18 194.846 111.857 194.951 111.537 195.018C111.221 195.084 110.846 195.117 110.412 195.117C109.795 195.117 109.256 194.992 108.795 194.742C108.338 194.488 107.982 194.117 107.729 193.629C107.475 193.141 107.348 192.543 107.348 191.836C107.348 191.145 107.463 190.547 107.693 190.043C107.928 189.535 108.256 189.145 108.678 188.871C109.104 188.598 109.604 188.461 110.178 188.461ZM110.166 189.258C109.646 189.258 109.232 189.428 108.924 189.768C108.615 190.107 108.432 190.582 108.373 191.191H111.771C111.768 190.809 111.707 190.473 111.59 190.184C111.477 189.891 111.303 189.664 111.068 189.504C110.834 189.34 110.533 189.258 110.166 189.258ZM116.846 188.473C117.611 188.473 118.18 188.645 118.551 188.988C118.922 189.332 119.107 189.881 119.107 190.635V195H118.398L118.211 194.051H118.164C117.984 194.285 117.797 194.482 117.602 194.643C117.406 194.799 117.18 194.918 116.922 195C116.668 195.078 116.355 195.117 115.984 195.117C115.594 195.117 115.246 195.049 114.941 194.912C114.641 194.775 114.402 194.568 114.227 194.291C114.055 194.014 113.969 193.662 113.969 193.236C113.969 192.596 114.223 192.104 114.73 191.76C115.238 191.416 116.012 191.229 117.051 191.197L118.158 191.15V190.758C118.158 190.203 118.039 189.814 117.801 189.592C117.562 189.369 117.227 189.258 116.793 189.258C116.457 189.258 116.137 189.307 115.832 189.404C115.527 189.502 115.238 189.617 114.965 189.75L114.666 189.012C114.955 188.863 115.287 188.736 115.662 188.631C116.037 188.525 116.432 188.473 116.846 188.473ZM118.146 191.836L117.168 191.877C116.367 191.908 115.803 192.039 115.475 192.27C115.146 192.5 114.982 192.826 114.982 193.248C114.982 193.615 115.094 193.887 115.316 194.062C115.539 194.238 115.834 194.326 116.201 194.326C116.771 194.326 117.238 194.168 117.602 193.852C117.965 193.535 118.146 193.061 118.146 192.428V191.836ZM125.266 193.242C125.266 193.652 125.162 193.998 124.955 194.279C124.752 194.557 124.459 194.766 124.076 194.906C123.697 195.047 123.244 195.117 122.717 195.117C122.268 195.117 121.879 195.082 121.551 195.012C121.223 194.941 120.936 194.842 120.689 194.713V193.816C120.951 193.945 121.264 194.062 121.627 194.168C121.99 194.273 122.361 194.326 122.74 194.326C123.295 194.326 123.697 194.236 123.947 194.057C124.197 193.877 124.322 193.633 124.322 193.324C124.322 193.148 124.271 192.994 124.17 192.861C124.072 192.725 123.906 192.594 123.672 192.469C123.438 192.34 123.113 192.199 122.699 192.047C122.289 191.891 121.934 191.736 121.633 191.584C121.336 191.428 121.105 191.238 120.941 191.016C120.781 190.793 120.701 190.504 120.701 190.148C120.701 189.605 120.92 189.189 121.357 188.9C121.799 188.607 122.377 188.461 123.092 188.461C123.479 188.461 123.84 188.5 124.176 188.578C124.516 188.652 124.832 188.754 125.125 188.883L124.797 189.662C124.531 189.549 124.248 189.453 123.947 189.375C123.646 189.297 123.34 189.258 123.027 189.258C122.578 189.258 122.232 189.332 121.99 189.48C121.752 189.629 121.633 189.832 121.633 190.09C121.633 190.289 121.688 190.453 121.797 190.582C121.91 190.711 122.09 190.832 122.336 190.945C122.582 191.059 122.906 191.191 123.309 191.344C123.711 191.492 124.059 191.646 124.352 191.807C124.645 191.963 124.869 192.154 125.025 192.381C125.186 192.604 125.266 192.891 125.266 193.242ZM129.303 188.461C129.85 188.461 130.318 188.582 130.709 188.824C131.1 189.066 131.398 189.406 131.605 189.844C131.812 190.277 131.916 190.785 131.916 191.367V191.971H127.48C127.492 192.725 127.68 193.299 128.043 193.693C128.406 194.088 128.918 194.285 129.578 194.285C129.984 194.285 130.344 194.248 130.656 194.174C130.969 194.1 131.293 193.99 131.629 193.846V194.701C131.305 194.846 130.982 194.951 130.662 195.018C130.346 195.084 129.971 195.117 129.537 195.117C128.92 195.117 128.381 194.992 127.92 194.742C127.463 194.488 127.107 194.117 126.854 193.629C126.6 193.141 126.473 192.543 126.473 191.836C126.473 191.145 126.588 190.547 126.818 190.043C127.053 189.535 127.381 189.145 127.803 188.871C128.229 188.598 128.729 188.461 129.303 188.461ZM129.291 189.258C128.771 189.258 128.357 189.428 128.049 189.768C127.74 190.107 127.557 190.582 127.498 191.191H130.896C130.893 190.809 130.832 190.473 130.715 190.184C130.602 189.891 130.428 189.664 130.193 189.504C129.959 189.34 129.658 189.258 129.291 189.258ZM136.832 195V186.434H137.828V194.109H141.631V195H136.832ZM145.732 195H144.73V187.312H142.035V186.434H148.416V187.312H145.732V195ZM155.693 186.434L152.617 195H151.615L148.539 186.434H149.582L151.586 192.076C151.668 192.303 151.74 192.52 151.803 192.727C151.869 192.934 151.928 193.133 151.979 193.324C152.029 193.516 152.074 193.701 152.113 193.881C152.152 193.701 152.197 193.516 152.248 193.324C152.299 193.129 152.357 192.928 152.424 192.721C152.49 192.51 152.564 192.289 152.646 192.059L154.639 186.434H155.693ZM92.9863 210.434C93.6895 210.434 94.2695 210.521 94.7266 210.697C95.1875 210.869 95.5312 211.133 95.7578 211.488C95.9844 211.844 96.0977 212.297 96.0977 212.848C96.0977 213.301 96.0156 213.68 95.8516 213.984C95.6875 214.285 95.4727 214.529 95.207 214.717C94.9414 214.904 94.6582 215.049 94.3574 215.15L96.707 219H95.5469L93.4492 215.426H91.668V219H90.6719V210.434H92.9863ZM92.9277 211.295H91.668V214.582H93.0273C93.7266 214.582 94.2402 214.439 94.5684 214.154C94.9004 213.869 95.0664 213.449 95.0664 212.895C95.0664 212.312 94.8906 211.9 94.5391 211.658C94.1914 211.416 93.6543 211.295 92.9277 211.295ZM100.404 212.461C100.951 212.461 101.42 212.582 101.811 212.824C102.201 213.066 102.5 213.406 102.707 213.844C102.914 214.277 103.018 214.785 103.018 215.367V215.971H98.582C98.5938 216.725 98.7812 217.299 99.1445 217.693C99.5078 218.088 100.02 218.285 100.68 218.285C101.086 218.285 101.445 218.248 101.758 218.174C102.07 218.1 102.395 217.99 102.73 217.846V218.701C102.406 218.846 102.084 218.951 101.764 219.018C101.447 219.084 101.072 219.117 100.639 219.117C100.021 219.117 99.4824 218.992 99.0215 218.742C98.5645 218.488 98.209 218.117 97.9551 217.629C97.7012 217.141 97.5742 216.543 97.5742 215.836C97.5742 215.145 97.6895 214.547 97.9199 214.043C98.1543 213.535 98.4824 213.145 98.9043 212.871C99.3301 212.598 99.8301 212.461 100.404 212.461ZM100.393 213.258C99.873 213.258 99.459 213.428 99.1504 213.768C98.8418 214.107 98.6582 214.582 98.5996 215.191H101.998C101.994 214.809 101.934 214.473 101.816 214.184C101.703 213.891 101.529 213.664 101.295 213.504C101.061 213.34 100.76 213.258 100.393 213.258ZM108.824 217.242C108.824 217.652 108.721 217.998 108.514 218.279C108.311 218.557 108.018 218.766 107.635 218.906C107.256 219.047 106.803 219.117 106.275 219.117C105.826 219.117 105.438 219.082 105.109 219.012C104.781 218.941 104.494 218.842 104.248 218.713V217.816C104.51 217.945 104.822 218.062 105.186 218.168C105.549 218.273 105.92 218.326 106.299 218.326C106.854 218.326 107.256 218.236 107.506 218.057C107.756 217.877 107.881 217.633 107.881 217.324C107.881 217.148 107.83 216.994 107.729 216.861C107.631 216.725 107.465 216.594 107.23 216.469C106.996 216.34 106.672 216.199 106.258 216.047C105.848 215.891 105.492 215.736 105.191 215.584C104.895 215.428 104.664 215.238 104.5 215.016C104.34 214.793 104.26 214.504 104.26 214.148C104.26 213.605 104.479 213.189 104.916 212.9C105.357 212.607 105.936 212.461 106.65 212.461C107.037 212.461 107.398 212.5 107.734 212.578C108.074 212.652 108.391 212.754 108.684 212.883L108.355 213.662C108.09 213.549 107.807 213.453 107.506 213.375C107.205 213.297 106.898 213.258 106.586 213.258C106.137 213.258 105.791 213.332 105.549 213.48C105.311 213.629 105.191 213.832 105.191 214.09C105.191 214.289 105.246 214.453 105.355 214.582C105.469 214.711 105.648 214.832 105.895 214.945C106.141 215.059 106.465 215.191 106.867 215.344C107.27 215.492 107.617 215.646 107.91 215.807C108.203 215.963 108.428 216.154 108.584 216.381C108.744 216.604 108.824 216.891 108.824 217.242ZM112.861 212.461C113.408 212.461 113.877 212.582 114.268 212.824C114.658 213.066 114.957 213.406 115.164 213.844C115.371 214.277 115.475 214.785 115.475 215.367V215.971H111.039C111.051 216.725 111.238 217.299 111.602 217.693C111.965 218.088 112.477 218.285 113.137 218.285C113.543 218.285 113.902 218.248 114.215 218.174C114.527 218.1 114.852 217.99 115.188 217.846V218.701C114.863 218.846 114.541 218.951 114.221 219.018C113.904 219.084 113.529 219.117 113.096 219.117C112.479 219.117 111.939 218.992 111.479 218.742C111.021 218.488 110.666 218.117 110.412 217.629C110.158 217.141 110.031 216.543 110.031 215.836C110.031 215.145 110.146 214.547 110.377 214.043C110.611 213.535 110.939 213.145 111.361 212.871C111.787 212.598 112.287 212.461 112.861 212.461ZM112.85 213.258C112.33 213.258 111.916 213.428 111.607 213.768C111.299 214.107 111.115 214.582 111.057 215.191H114.455C114.451 214.809 114.391 214.473 114.273 214.184C114.16 213.891 113.986 213.664 113.752 213.504C113.518 213.34 113.217 213.258 112.85 213.258ZM119.201 218.32C119.361 218.32 119.525 218.307 119.693 218.279C119.861 218.252 119.998 218.219 120.104 218.18V218.936C119.99 218.986 119.832 219.029 119.629 219.064C119.43 219.1 119.234 219.117 119.043 219.117C118.703 219.117 118.395 219.059 118.117 218.941C117.84 218.82 117.617 218.617 117.449 218.332C117.285 218.047 117.203 217.652 117.203 217.148V213.34H116.289V212.865L117.209 212.484L117.596 211.09H118.182V212.578H120.062V213.34H118.182V217.119C118.182 217.521 118.273 217.822 118.457 218.021C118.645 218.221 118.893 218.32 119.201 218.32ZM124.668 219V210.434H125.664V218.109H129.467V219H124.668ZM133.568 219H132.566V211.312H129.871V210.434H136.252V211.312H133.568V219ZM143.529 210.434L140.453 219H139.451L136.375 210.434H137.418L139.422 216.076C139.504 216.303 139.576 216.52 139.639 216.727C139.705 216.934 139.764 217.133 139.814 217.324C139.865 217.516 139.91 217.701 139.949 217.881C139.988 217.701 140.033 217.516 140.084 217.324C140.135 217.129 140.193 216.928 140.26 216.721C140.326 216.51 140.4 216.289 140.482 216.059L142.475 210.434H143.529Z" fill="#61656E"/>
<path d="M214.672 123V114.434H215.668V122.109H219.471V123H214.672ZM223.572 123H222.57V115.312H219.875V114.434H226.256V115.312H223.572V123ZM233.533 114.434L230.457 123H229.455L226.379 114.434H227.422L229.426 120.076C229.508 120.303 229.58 120.52 229.643 120.727C229.709 120.934 229.768 121.133 229.818 121.324C229.869 121.516 229.914 121.701 229.953 121.881C229.992 121.701 230.037 121.516 230.088 121.324C230.139 121.129 230.197 120.928 230.264 120.721C230.33 120.51 230.404 120.289 230.486 120.059L232.479 114.434H233.533ZM219.389 140.432C219.389 140.814 219.314 141.146 219.166 141.428C219.018 141.709 218.811 141.939 218.545 142.119C218.279 142.295 217.967 142.418 217.607 142.488V142.535C218.287 142.621 218.797 142.84 219.137 143.191C219.48 143.543 219.652 144.004 219.652 144.574C219.652 145.07 219.535 145.51 219.301 145.893C219.07 146.275 218.715 146.576 218.234 146.795C217.758 147.01 217.146 147.117 216.4 147.117C215.947 147.117 215.527 147.08 215.141 147.006C214.758 146.936 214.391 146.816 214.039 146.648V145.734C214.395 145.91 214.781 146.049 215.199 146.15C215.617 146.248 216.021 146.297 216.412 146.297C217.193 146.297 217.758 146.143 218.105 145.834C218.453 145.521 218.627 145.096 218.627 144.557C218.627 144.186 218.529 143.887 218.334 143.66C218.143 143.43 217.865 143.262 217.502 143.156C217.143 143.047 216.709 142.992 216.201 142.992H215.346V142.16H216.207C216.672 142.16 217.066 142.092 217.391 141.955C217.715 141.818 217.961 141.627 218.129 141.381C218.301 141.131 218.387 140.836 218.387 140.496C218.387 140.062 218.242 139.729 217.953 139.494C217.664 139.256 217.271 139.137 216.775 139.137C216.471 139.137 216.193 139.168 215.943 139.23C215.693 139.293 215.459 139.379 215.24 139.488C215.021 139.598 214.803 139.725 214.584 139.869L214.092 139.201C214.404 138.959 214.785 138.75 215.234 138.574C215.684 138.398 216.193 138.311 216.764 138.311C217.639 138.311 218.295 138.51 218.732 138.908C219.17 139.307 219.389 139.814 219.389 140.432ZM226.619 142.705C226.619 143.4 226.566 144.021 226.461 144.568C226.355 145.115 226.189 145.578 225.963 145.957C225.736 146.336 225.443 146.625 225.084 146.824C224.725 147.02 224.293 147.117 223.789 147.117C223.152 147.117 222.625 146.943 222.207 146.596C221.793 146.248 221.482 145.746 221.275 145.09C221.072 144.43 220.971 143.635 220.971 142.705C220.971 141.791 221.062 141.006 221.246 140.35C221.434 139.689 221.734 139.184 222.148 138.832C222.562 138.477 223.109 138.299 223.789 138.299C224.434 138.299 224.965 138.475 225.383 138.826C225.801 139.174 226.111 139.678 226.314 140.338C226.518 140.994 226.619 141.783 226.619 142.705ZM221.949 142.705C221.949 143.502 222.01 144.166 222.131 144.697C222.252 145.229 222.447 145.627 222.717 145.893C222.99 146.154 223.348 146.285 223.789 146.285C224.23 146.285 224.586 146.154 224.855 145.893C225.129 145.631 225.326 145.234 225.447 144.703C225.572 144.172 225.635 143.506 225.635 142.705C225.635 141.92 225.574 141.264 225.453 140.736C225.332 140.205 225.137 139.807 224.867 139.541C224.598 139.271 224.238 139.137 223.789 139.137C223.34 139.137 222.98 139.271 222.711 139.541C222.441 139.807 222.246 140.205 222.125 140.736C222.008 141.264 221.949 141.92 221.949 142.705ZM229.572 138.311C230.158 138.311 230.602 138.545 230.902 139.014C231.207 139.479 231.359 140.137 231.359 140.988C231.359 141.84 231.213 142.504 230.92 142.98C230.627 143.453 230.178 143.689 229.572 143.689C229.01 143.689 228.578 143.453 228.277 142.98C227.98 142.504 227.832 141.84 227.832 140.988C227.832 140.137 227.975 139.479 228.26 139.014C228.545 138.545 228.982 138.311 229.572 138.311ZM229.572 139.008C229.256 139.008 229.023 139.174 228.875 139.506C228.727 139.834 228.652 140.328 228.652 140.988C228.652 141.648 228.727 142.146 228.875 142.482C229.023 142.818 229.256 142.986 229.572 142.986C229.9 142.986 230.145 142.818 230.305 142.482C230.465 142.146 230.545 141.648 230.545 140.988C230.545 140.332 230.465 139.838 230.305 139.506C230.148 139.174 229.904 139.008 229.572 139.008ZM234.998 138.434L230.246 147H229.391L234.143 138.434H234.998ZM234.77 141.744C235.352 141.744 235.795 141.979 236.1 142.447C236.404 142.912 236.557 143.57 236.557 144.422C236.557 145.27 236.41 145.932 236.117 146.408C235.824 146.881 235.375 147.117 234.77 147.117C234.203 147.117 233.771 146.881 233.475 146.408C233.178 145.932 233.029 145.27 233.029 144.422C233.029 143.57 233.17 142.912 233.451 142.447C233.736 141.979 234.176 141.744 234.77 141.744ZM234.77 142.447C234.453 142.447 234.221 142.611 234.072 142.939C233.924 143.268 233.85 143.762 233.85 144.422C233.85 145.082 233.924 145.58 234.072 145.916C234.221 146.248 234.453 146.414 234.77 146.414C235.098 146.414 235.342 146.25 235.502 145.922C235.662 145.59 235.742 145.09 235.742 144.422C235.742 143.766 235.662 143.273 235.502 142.945C235.346 142.613 235.102 142.447 234.77 142.447ZM216.799 165.762C217.381 165.762 217.887 165.861 218.316 166.061C218.746 166.256 219.078 166.541 219.312 166.916C219.551 167.291 219.67 167.746 219.67 168.281C219.67 168.867 219.543 169.373 219.289 169.799C219.035 170.221 218.67 170.547 218.193 170.777C217.717 171.004 217.146 171.117 216.482 171.117C216.037 171.117 215.623 171.078 215.24 171C214.857 170.922 214.535 170.805 214.273 170.648V169.723C214.559 169.895 214.904 170.031 215.311 170.133C215.717 170.234 216.111 170.285 216.494 170.285C216.928 170.285 217.307 170.217 217.631 170.08C217.959 169.939 218.213 169.729 218.393 169.447C218.576 169.162 218.668 168.805 218.668 168.375C218.668 167.805 218.492 167.365 218.141 167.057C217.793 166.744 217.242 166.588 216.488 166.588C216.246 166.588 215.98 166.607 215.691 166.646C215.402 166.686 215.164 166.729 214.977 166.775L214.484 166.453L214.812 162.434H219.072V163.324H215.645L215.428 165.908C215.576 165.877 215.768 165.846 216.002 165.814C216.236 165.779 216.502 165.762 216.799 165.762ZM226.619 166.705C226.619 167.4 226.566 168.021 226.461 168.568C226.355 169.115 226.189 169.578 225.963 169.957C225.736 170.336 225.443 170.625 225.084 170.824C224.725 171.02 224.293 171.117 223.789 171.117C223.152 171.117 222.625 170.943 222.207 170.596C221.793 170.248 221.482 169.746 221.275 169.09C221.072 168.43 220.971 167.635 220.971 166.705C220.971 165.791 221.062 165.006 221.246 164.35C221.434 163.689 221.734 163.184 222.148 162.832C222.562 162.477 223.109 162.299 223.789 162.299C224.434 162.299 224.965 162.475 225.383 162.826C225.801 163.174 226.111 163.678 226.314 164.338C226.518 164.994 226.619 165.783 226.619 166.705ZM221.949 166.705C221.949 167.502 222.01 168.166 222.131 168.697C222.252 169.229 222.447 169.627 222.717 169.893C222.99 170.154 223.348 170.285 223.789 170.285C224.23 170.285 224.586 170.154 224.855 169.893C225.129 169.631 225.326 169.234 225.447 168.703C225.572 168.172 225.635 167.506 225.635 166.705C225.635 165.92 225.574 165.264 225.453 164.736C225.332 164.205 225.137 163.807 224.867 163.541C224.598 163.271 224.238 163.137 223.789 163.137C223.34 163.137 222.98 163.271 222.711 163.541C222.441 163.807 222.246 164.205 222.125 164.736C222.008 165.264 221.949 165.92 221.949 166.705ZM229.572 162.311C230.158 162.311 230.602 162.545 230.902 163.014C231.207 163.479 231.359 164.137 231.359 164.988C231.359 165.84 231.213 166.504 230.92 166.98C230.627 167.453 230.178 167.689 229.572 167.689C229.01 167.689 228.578 167.453 228.277 166.98C227.98 166.504 227.832 165.84 227.832 164.988C227.832 164.137 227.975 163.479 228.26 163.014C228.545 162.545 228.982 162.311 229.572 162.311ZM229.572 163.008C229.256 163.008 229.023 163.174 228.875 163.506C228.727 163.834 228.652 164.328 228.652 164.988C228.652 165.648 228.727 166.146 228.875 166.482C229.023 166.818 229.256 166.986 229.572 166.986C229.9 166.986 230.145 166.818 230.305 166.482C230.465 166.146 230.545 165.648 230.545 164.988C230.545 164.332 230.465 163.838 230.305 163.506C230.148 163.174 229.904 163.008 229.572 163.008ZM234.998 162.434L230.246 171H229.391L234.143 162.434H234.998ZM234.77 165.744C235.352 165.744 235.795 165.979 236.1 166.447C236.404 166.912 236.557 167.57 236.557 168.422C236.557 169.27 236.41 169.932 236.117 170.408C235.824 170.881 235.375 171.117 234.77 171.117C234.203 171.117 233.771 170.881 233.475 170.408C233.178 169.932 233.029 169.27 233.029 168.422C233.029 167.57 233.17 166.912 233.451 166.447C233.736 165.979 234.176 165.744 234.77 165.744ZM234.77 166.447C234.453 166.447 234.221 166.611 234.072 166.939C233.924 167.268 233.85 167.762 233.85 168.422C233.85 169.082 233.924 169.58 234.072 169.916C234.221 170.248 234.453 170.414 234.77 170.414C235.098 170.414 235.342 170.25 235.502 169.922C235.662 169.59 235.742 169.09 235.742 168.422C235.742 167.766 235.662 167.273 235.502 166.945C235.346 166.613 235.102 166.447 234.77 166.447ZM219.705 195H214.092V194.186L216.383 191.859C216.809 191.43 217.166 191.047 217.455 190.711C217.748 190.375 217.971 190.045 218.123 189.721C218.275 189.393 218.352 189.033 218.352 188.643C218.352 188.158 218.207 187.789 217.918 187.535C217.633 187.277 217.256 187.148 216.787 187.148C216.377 187.148 216.014 187.219 215.697 187.359C215.381 187.5 215.057 187.699 214.725 187.957L214.203 187.301C214.43 187.109 214.676 186.939 214.941 186.791C215.211 186.643 215.498 186.525 215.803 186.439C216.111 186.354 216.439 186.311 216.787 186.311C217.314 186.311 217.77 186.402 218.152 186.586C218.535 186.77 218.83 187.031 219.037 187.371C219.248 187.711 219.354 188.115 219.354 188.584C219.354 189.037 219.264 189.459 219.084 189.85C218.904 190.236 218.652 190.621 218.328 191.004C218.004 191.383 217.625 191.785 217.191 192.211L215.328 194.068V194.109H219.705V195ZM223.666 189.762C224.248 189.762 224.754 189.861 225.184 190.061C225.613 190.256 225.945 190.541 226.18 190.916C226.418 191.291 226.537 191.746 226.537 192.281C226.537 192.867 226.41 193.373 226.156 193.799C225.902 194.221 225.537 194.547 225.061 194.777C224.584 195.004 224.014 195.117 223.35 195.117C222.904 195.117 222.49 195.078 222.107 195C221.725 194.922 221.402 194.805 221.141 194.648V193.723C221.426 193.895 221.771 194.031 222.178 194.133C222.584 194.234 222.979 194.285 223.361 194.285C223.795 194.285 224.174 194.217 224.498 194.08C224.826 193.939 225.08 193.729 225.26 193.447C225.443 193.162 225.535 192.805 225.535 192.375C225.535 191.805 225.359 191.365 225.008 191.057C224.66 190.744 224.109 190.588 223.355 190.588C223.113 190.588 222.848 190.607 222.559 190.646C222.27 190.686 222.031 190.729 221.844 190.775L221.352 190.453L221.68 186.434H225.939V187.324H222.512L222.295 189.908C222.443 189.877 222.635 189.846 222.869 189.814C223.104 189.779 223.369 189.762 223.666 189.762ZM229.572 186.311C230.158 186.311 230.602 186.545 230.902 187.014C231.207 187.479 231.359 188.137 231.359 188.988C231.359 189.84 231.213 190.504 230.92 190.98C230.627 191.453 230.178 191.689 229.572 191.689C229.01 191.689 228.578 191.453 228.277 190.98C227.98 190.504 227.832 189.84 227.832 188.988C227.832 188.137 227.975 187.479 228.26 187.014C228.545 186.545 228.982 186.311 229.572 186.311ZM229.572 187.008C229.256 187.008 229.023 187.174 228.875 187.506C228.727 187.834 228.652 188.328 228.652 188.988C228.652 189.648 228.727 190.146 228.875 190.482C229.023 190.818 229.256 190.986 229.572 190.986C229.9 190.986 230.145 190.818 230.305 190.482C230.465 190.146 230.545 189.648 230.545 188.988C230.545 188.332 230.465 187.838 230.305 187.506C230.148 187.174 229.904 187.008 229.572 187.008ZM234.998 186.434L230.246 195H229.391L234.143 186.434H234.998ZM234.77 189.744C235.352 189.744 235.795 189.979 236.1 190.447C236.404 190.912 236.557 191.57 236.557 192.422C236.557 193.27 236.41 193.932 236.117 194.408C235.824 194.881 235.375 195.117 234.77 195.117C234.203 195.117 233.771 194.881 233.475 194.408C233.178 193.932 233.029 193.27 233.029 192.422C233.029 191.57 233.17 190.912 233.451 190.447C233.736 189.979 234.176 189.744 234.77 189.744ZM234.77 190.447C234.453 190.447 234.221 190.611 234.072 190.939C233.924 191.268 233.85 191.762 233.85 192.422C233.85 193.082 233.924 193.58 234.072 193.916C234.221 194.248 234.453 194.414 234.77 194.414C235.098 194.414 235.342 194.25 235.502 193.922C235.662 193.59 235.742 193.09 235.742 192.422C235.742 191.766 235.662 191.273 235.502 190.945C235.346 190.613 235.102 190.447 234.77 190.447ZM219.389 212.432C219.389 212.814 219.314 213.146 219.166 213.428C219.018 213.709 218.811 213.939 218.545 214.119C218.279 214.295 217.967 214.418 217.607 214.488V214.535C218.287 214.621 218.797 214.84 219.137 215.191C219.48 215.543 219.652 216.004 219.652 216.574C219.652 217.07 219.535 217.51 219.301 217.893C219.07 218.275 218.715 218.576 218.234 218.795C217.758 219.01 217.146 219.117 216.4 219.117C215.947 219.117 215.527 219.08 215.141 219.006C214.758 218.936 214.391 218.816 214.039 218.648V217.734C214.395 217.91 214.781 218.049 215.199 218.15C215.617 218.248 216.021 218.297 216.412 218.297C217.193 218.297 217.758 218.143 218.105 217.834C218.453 217.521 218.627 217.096 218.627 216.557C218.627 216.186 218.529 215.887 218.334 215.66C218.143 215.43 217.865 215.262 217.502 215.156C217.143 215.047 216.709 214.992 216.201 214.992H215.346V214.16H216.207C216.672 214.16 217.066 214.092 217.391 213.955C217.715 213.818 217.961 213.627 218.129 213.381C218.301 213.131 218.387 212.836 218.387 212.496C218.387 212.062 218.242 211.729 217.953 211.494C217.664 211.256 217.271 211.137 216.775 211.137C216.471 211.137 216.193 211.168 215.943 211.23C215.693 211.293 215.459 211.379 215.24 211.488C215.021 211.598 214.803 211.725 214.584 211.869L214.092 211.201C214.404 210.959 214.785 210.75 215.234 210.574C215.684 210.398 216.193 210.311 216.764 210.311C217.639 210.311 218.295 210.51 218.732 210.908C219.17 211.307 219.389 211.814 219.389 212.432ZM223.666 213.762C224.248 213.762 224.754 213.861 225.184 214.061C225.613 214.256 225.945 214.541 226.18 214.916C226.418 215.291 226.537 215.746 226.537 216.281C226.537 216.867 226.41 217.373 226.156 217.799C225.902 218.221 225.537 218.547 225.061 218.777C224.584 219.004 224.014 219.117 223.35 219.117C222.904 219.117 222.49 219.078 222.107 219C221.725 218.922 221.402 218.805 221.141 218.648V217.723C221.426 217.895 221.771 218.031 222.178 218.133C222.584 218.234 222.979 218.285 223.361 218.285C223.795 218.285 224.174 218.217 224.498 218.08C224.826 217.939 225.08 217.729 225.26 217.447C225.443 217.162 225.535 216.805 225.535 216.375C225.535 215.805 225.359 215.365 225.008 215.057C224.66 214.744 224.109 214.588 223.355 214.588C223.113 214.588 222.848 214.607 222.559 214.646C222.27 214.686 222.031 214.729 221.844 214.775L221.352 214.453L221.68 210.434H225.939V211.324H222.512L222.295 213.908C222.443 213.877 222.635 213.846 222.869 213.814C223.104 213.779 223.369 213.762 223.666 213.762ZM229.572 210.311C230.158 210.311 230.602 210.545 230.902 211.014C231.207 211.479 231.359 212.137 231.359 212.988C231.359 213.84 231.213 214.504 230.92 214.98C230.627 215.453 230.178 215.689 229.572 215.689C229.01 215.689 228.578 215.453 228.277 214.98C227.98 214.504 227.832 213.84 227.832 212.988C227.832 212.137 227.975 211.479 228.26 211.014C228.545 210.545 228.982 210.311 229.572 210.311ZM229.572 211.008C229.256 211.008 229.023 211.174 228.875 211.506C228.727 211.834 228.652 212.328 228.652 212.988C228.652 213.648 228.727 214.146 228.875 214.482C229.023 214.818 229.256 214.986 229.572 214.986C229.9 214.986 230.145 214.818 230.305 214.482C230.465 214.146 230.545 213.648 230.545 212.988C230.545 212.332 230.465 211.838 230.305 211.506C230.148 211.174 229.904 211.008 229.572 211.008ZM234.998 210.434L230.246 219H229.391L234.143 210.434H234.998ZM234.77 213.744C235.352 213.744 235.795 213.979 236.1 214.447C236.404 214.912 236.557 215.57 236.557 216.422C236.557 217.27 236.41 217.932 236.117 218.408C235.824 218.881 235.375 219.117 234.77 219.117C234.203 219.117 233.771 218.881 233.475 218.408C233.178 217.932 233.029 217.27 233.029 216.422C233.029 215.57 233.17 214.912 233.451 214.447C233.736 213.979 234.176 213.744 234.77 213.744ZM234.77 214.447C234.453 214.447 234.221 214.611 234.072 214.939C233.924 215.268 233.85 215.762 233.85 216.422C233.85 217.082 233.924 217.58 234.072 217.916C234.221 218.248 234.453 218.414 234.77 218.414C235.098 218.414 235.342 218.25 235.502 217.922C235.662 217.59 235.742 217.09 235.742 216.422C235.742 215.766 235.662 215.273 235.502 214.945C235.346 214.613 235.102 214.447 234.77 214.447Z" fill="#161616"/>
</g>
<defs>
<clipPath id="clip0_2296_295515">
<rect width="148" height="120" fill="white" transform="translate(89.5 106)"/>
</clipPath>
</defs>
</svg>
