<svg width="880" height="114" viewBox="0 0 880 114" fill="none" xmlns="http://www.w3.org/2000/svg">
<rect width="880" height="114" fill="#F2F4F6"/>
<path d="M382.438 57.5469C382.438 59.3073 382.214 60.9115 381.766 62.3594C381.318 63.7969 380.651 65.0365 379.766 66.0781C378.891 67.1094 377.802 67.9062 376.5 68.4688C375.198 69.0312 373.688 69.3125 371.969 69.3125C370.198 69.3125 368.651 69.0312 367.328 68.4688C366.016 67.9062 364.922 67.1042 364.047 66.0625C363.182 65.0208 362.531 63.776 362.094 62.3281C361.667 60.8802 361.453 59.276 361.453 57.5156C361.453 55.1823 361.839 53.1354 362.609 51.375C363.38 49.6146 364.547 48.2448 366.109 47.2656C367.682 46.2865 369.651 45.7969 372.016 45.7969C374.276 45.7969 376.177 46.2812 377.719 47.25C379.271 48.2188 380.443 49.5833 381.234 51.3438C382.036 53.0938 382.438 55.1615 382.438 57.5469ZM364.25 57.5469C364.25 59.4844 364.526 61.1615 365.078 62.5781C365.63 63.9948 366.474 65.0885 367.609 65.8594C368.755 66.6302 370.208 67.0156 371.969 67.0156C373.74 67.0156 375.188 66.6302 376.312 65.8594C377.448 65.0885 378.286 63.9948 378.828 62.5781C379.37 61.1615 379.641 59.4844 379.641 57.5469C379.641 54.599 379.021 52.2969 377.781 50.6406C376.552 48.974 374.63 48.1406 372.016 48.1406C370.245 48.1406 368.786 48.5208 367.641 49.2812C366.495 50.0417 365.641 51.125 365.078 52.5312C364.526 53.9271 364.25 55.599 364.25 57.5469ZM395.188 51.5625C397.323 51.5625 399.026 52.2969 400.297 53.7656C401.568 55.2344 402.203 57.4427 402.203 60.3906C402.203 62.3385 401.911 63.974 401.328 65.2969C400.745 66.6198 399.922 67.6198 398.859 68.2969C397.807 68.974 396.562 69.3125 395.125 69.3125C394.219 69.3125 393.422 69.1927 392.734 68.9531C392.047 68.7135 391.458 68.3906 390.969 67.9844C390.479 67.5781 390.073 67.1354 389.75 66.6562H389.562C389.594 67.0625 389.63 67.5521 389.672 68.125C389.724 68.6979 389.75 69.1979 389.75 69.625V76.6562H387.141V51.875H389.281L389.625 54.4062H389.75C390.083 53.8854 390.49 53.4115 390.969 52.9844C391.448 52.5469 392.031 52.2031 392.719 51.9531C393.417 51.6927 394.24 51.5625 395.188 51.5625ZM394.734 53.75C393.547 53.75 392.589 53.9792 391.859 54.4375C391.141 54.8958 390.615 55.5833 390.281 56.5C389.948 57.4062 389.771 58.5469 389.75 59.9219V60.4219C389.75 61.8698 389.906 63.0938 390.219 64.0938C390.542 65.0938 391.068 65.8542 391.797 66.375C392.536 66.8958 393.526 67.1562 394.766 67.1562C395.828 67.1562 396.714 66.8698 397.422 66.2969C398.13 65.724 398.656 64.9271 399 63.9062C399.354 62.875 399.531 61.6927 399.531 60.3594C399.531 58.3385 399.135 56.7344 398.344 55.5469C397.562 54.349 396.359 53.75 394.734 53.75ZM413.328 51.5625C414.786 51.5625 416.036 51.8854 417.078 52.5312C418.12 53.1771 418.917 54.0833 419.469 55.25C420.021 56.4062 420.297 57.7604 420.297 59.3125V60.9219H408.469C408.5 62.9323 409 64.4635 409.969 65.5156C410.938 66.5677 412.302 67.0938 414.062 67.0938C415.146 67.0938 416.104 66.9948 416.938 66.7969C417.771 66.599 418.635 66.3073 419.531 65.9219V68.2031C418.667 68.5885 417.807 68.8698 416.953 69.0469C416.109 69.224 415.109 69.3125 413.953 69.3125C412.307 69.3125 410.87 68.9792 409.641 68.3125C408.422 67.6354 407.474 66.6458 406.797 65.3438C406.12 64.0417 405.781 62.4479 405.781 60.5625C405.781 58.7188 406.089 57.125 406.703 55.7812C407.328 54.4271 408.203 53.3854 409.328 52.6562C410.464 51.9271 411.797 51.5625 413.328 51.5625ZM413.297 53.6875C411.911 53.6875 410.807 54.1406 409.984 55.0469C409.161 55.9531 408.672 57.2188 408.516 58.8438H417.578C417.568 57.8229 417.406 56.9271 417.094 56.1562C416.792 55.375 416.328 54.7708 415.703 54.3438C415.078 53.9062 414.276 53.6875 413.297 53.6875ZM432.812 51.5625C434.844 51.5625 436.38 52.0625 437.422 53.0625C438.464 54.0521 438.984 55.6458 438.984 57.8438V69H436.422V58.0156C436.422 56.5885 436.094 55.5208 435.438 54.8125C434.792 54.1042 433.797 53.75 432.453 53.75C430.557 53.75 429.224 54.2865 428.453 55.3594C427.682 56.4323 427.297 57.9896 427.297 60.0312V69H424.703V51.875H426.797L427.188 54.3438H427.328C427.693 53.7396 428.156 53.2344 428.719 52.8281C429.281 52.4115 429.911 52.099 430.609 51.8906C431.307 51.6719 432.042 51.5625 432.812 51.5625ZM465.922 62.9219C465.922 64.276 465.583 65.4323 464.906 66.3906C464.24 67.3385 463.302 68.0625 462.094 68.5625C460.885 69.0625 459.464 69.3125 457.828 69.3125C456.964 69.3125 456.146 69.2708 455.375 69.1875C454.604 69.1042 453.896 68.9844 453.25 68.8281C452.604 68.6719 452.036 68.4792 451.547 68.25V65.7031C452.328 66.026 453.281 66.3281 454.406 66.6094C455.531 66.8802 456.708 67.0156 457.938 67.0156C459.083 67.0156 460.052 66.8646 460.844 66.5625C461.635 66.25 462.234 65.8073 462.641 65.2344C463.057 64.651 463.266 63.9531 463.266 63.1406C463.266 62.3594 463.094 61.7083 462.75 61.1875C462.406 60.6562 461.833 60.1771 461.031 59.75C460.24 59.3125 459.156 58.849 457.781 58.3594C456.812 58.0156 455.958 57.6406 455.219 57.2344C454.479 56.8177 453.859 56.349 453.359 55.8281C452.859 55.3073 452.479 54.7031 452.219 54.0156C451.969 53.3281 451.844 52.5417 451.844 51.6562C451.844 50.4375 452.151 49.3958 452.766 48.5312C453.391 47.6562 454.25 46.9896 455.344 46.5312C456.448 46.0625 457.714 45.8281 459.141 45.8281C460.359 45.8281 461.484 45.9427 462.516 46.1719C463.557 46.401 464.51 46.7083 465.375 47.0938L464.547 49.375C463.724 49.0312 462.849 48.7448 461.922 48.5156C461.005 48.2865 460.057 48.1719 459.078 48.1719C458.099 48.1719 457.271 48.3177 456.594 48.6094C455.927 48.8906 455.417 49.2917 455.062 49.8125C454.708 50.3333 454.531 50.9531 454.531 51.6719C454.531 52.474 454.698 53.1406 455.031 53.6719C455.375 54.2031 455.917 54.6771 456.656 55.0938C457.406 55.5 458.396 55.9271 459.625 56.375C460.969 56.8646 462.109 57.3854 463.047 57.9375C463.984 58.4792 464.698 59.1458 465.188 59.9375C465.677 60.7188 465.922 61.7135 465.922 62.9219ZM476.609 51.5938C478.651 51.5938 480.167 52.0521 481.156 52.9688C482.146 53.8854 482.641 55.349 482.641 57.3594V69H480.75L480.25 66.4688H480.125C479.646 67.0938 479.146 67.6198 478.625 68.0469C478.104 68.4635 477.5 68.7812 476.812 69C476.135 69.2083 475.302 69.3125 474.312 69.3125C473.271 69.3125 472.344 69.1302 471.531 68.7656C470.729 68.401 470.094 67.849 469.625 67.1094C469.167 66.3698 468.938 65.4323 468.938 64.2969C468.938 62.5885 469.615 61.276 470.969 60.3594C472.323 59.4427 474.385 58.9427 477.156 58.8594L480.109 58.7344V57.6875C480.109 56.2083 479.792 55.1719 479.156 54.5781C478.521 53.9844 477.625 53.6875 476.469 53.6875C475.573 53.6875 474.719 53.8177 473.906 54.0781C473.094 54.3385 472.323 54.6458 471.594 55L470.797 53.0312C471.568 52.6354 472.453 52.2969 473.453 52.0156C474.453 51.7344 475.505 51.5938 476.609 51.5938ZM480.078 60.5625L477.469 60.6719C475.333 60.7552 473.828 61.1042 472.953 61.7188C472.078 62.3333 471.641 63.2031 471.641 64.3281C471.641 65.3073 471.938 66.0312 472.531 66.5C473.125 66.9688 473.911 67.2031 474.891 67.2031C476.411 67.2031 477.656 66.7812 478.625 65.9375C479.594 65.0938 480.078 63.8281 480.078 62.1406V60.5625ZM496.094 51.5625C498.125 51.5625 499.661 52.0625 500.703 53.0625C501.745 54.0521 502.266 55.6458 502.266 57.8438V69H499.703V58.0156C499.703 56.5885 499.375 55.5208 498.719 54.8125C498.073 54.1042 497.078 53.75 495.734 53.75C493.839 53.75 492.505 54.2865 491.734 55.3594C490.964 56.4323 490.578 57.9896 490.578 60.0312V69H487.984V51.875H490.078L490.469 54.3438H490.609C490.974 53.7396 491.438 53.2344 492 52.8281C492.562 52.4115 493.193 52.099 493.891 51.8906C494.589 51.6719 495.323 51.5625 496.094 51.5625ZM518.688 64.3125C518.688 65.4062 518.411 66.3281 517.859 67.0781C517.318 67.8177 516.536 68.375 515.516 68.75C514.505 69.125 513.297 69.3125 511.891 69.3125C510.693 69.3125 509.656 69.2188 508.781 69.0312C507.906 68.8438 507.141 68.5781 506.484 68.2344V65.8438C507.182 66.1875 508.016 66.5 508.984 66.7812C509.953 67.0625 510.943 67.2031 511.953 67.2031C513.432 67.2031 514.505 66.9635 515.172 66.4844C515.839 66.0052 516.172 65.3542 516.172 64.5312C516.172 64.0625 516.036 63.651 515.766 63.2969C515.505 62.9323 515.062 62.5833 514.438 62.25C513.812 61.9062 512.948 61.5312 511.844 61.125C510.75 60.7083 509.802 60.2969 509 59.8906C508.208 59.474 507.594 58.9688 507.156 58.375C506.729 57.7812 506.516 57.0104 506.516 56.0625C506.516 54.6146 507.099 53.5052 508.266 52.7344C509.443 51.9531 510.984 51.5625 512.891 51.5625C513.922 51.5625 514.885 51.6667 515.781 51.875C516.688 52.0729 517.531 52.3438 518.312 52.6875L517.438 54.7656C516.729 54.4635 515.974 54.2083 515.172 54C514.37 53.7917 513.552 53.6875 512.719 53.6875C511.521 53.6875 510.599 53.8854 509.953 54.2812C509.318 54.6771 509 55.2188 509 55.9062C509 56.4375 509.146 56.875 509.438 57.2188C509.74 57.5625 510.219 57.8854 510.875 58.1875C511.531 58.4896 512.396 58.8438 513.469 59.25C514.542 59.6458 515.469 60.0573 516.25 60.4844C517.031 60.901 517.63 61.4115 518.047 62.0156C518.474 62.6094 518.688 63.375 518.688 64.3125Z" fill="#161616"/>
</svg>
