<svg width="196" height="194" viewBox="0 0 196 194" fill="none" xmlns="http://www.w3.org/2000/svg">
<path d="M88.9004 66.6748L88.9004 136.381" stroke="#24874B" stroke-width="2"/>
<path d="M89.9111 66.6748H67.6861" stroke="#24874B" stroke-width="2"/>
<path d="M143.453 48.4902L55.5632 48.4902" stroke="#24874B" stroke-width="2"/>
<path d="M130.32 151.534H67.6861" stroke="#24874B" stroke-width="2"/>
<path d="M109.105 66.6748L109.105 100.012" stroke="#24874B" stroke-width="2"/>
<path d="M130.32 65.665L130.32 87.8901" stroke="#24874B" stroke-width="2"/>
<path d="M143.453 47.4805L143.453 87.8896" stroke="#24874B" stroke-width="2"/>
<path d="M67.6855 65.665L67.6855 87.8901" stroke="#24874B" stroke-width="2"/>
<path d="M67.6855 135.37L67.6855 152.544" stroke="#24874B" stroke-width="2"/>
<path d="M54.5527 47.4805L54.5527 87.8896" stroke="#24874B" stroke-width="2"/>
<path d="M143.453 86.8799H130.32" stroke="#24874B" stroke-width="2"/>
<path d="M109.105 107.084L109.105 136.381" stroke="#24874B" stroke-width="2"/>
<path d="M130.32 66.6748H108.095" stroke="#24874B" stroke-width="2"/>
<path d="M67.6855 86.8799H54.5526" stroke="#24874B" stroke-width="2"/>
<path d="M130.32 136.381H108.095" stroke="#24874B" stroke-width="2"/>
<path d="M89.9111 136.381H67.6861" stroke="#24874B" stroke-width="2"/>
<path d="M130.32 135.37L130.32 152.544" stroke="#24874B" stroke-width="2"/>
<rect x="177" y="5" width="14" height="14" fill="#24874B"/>
<rect x="177" y="178" width="14" height="14" fill="#24874B"/>
<rect x="5" y="5" width="14" height="14" fill="#24874B"/>
<rect x="5" y="178" width="14" height="14" fill="#24874B"/>
<path d="M98.5 12H185" stroke="#24874B" stroke-width="2"/>
<path d="M98.5 185H185" stroke="#24874B" stroke-width="3"/>
<path d="M12 12H98.5" stroke="#24874B" stroke-width="2"/>
<path d="M12 12L12 185" stroke="#24874B" stroke-width="3"/>
<path d="M184 12L184 185" stroke="#24874B" stroke-width="2"/>
<path d="M12 185H98.5" stroke="#24874B" stroke-width="3"/>
</svg>
