<svg width="880" height="192" viewBox="0 0 880 192" fill="none" xmlns="http://www.w3.org/2000/svg">
<rect width="880" height="192" fill="#F2F4F6"/>
<path d="M32.9414 38H31.7793V33.29H26.5293V38H25.3672V28.0059H26.5293V32.2646H31.7793V28.0059H32.9414V38ZM39.2373 38H38.1299V30.918C38.1299 30.6491 38.1299 30.4189 38.1299 30.2275C38.1344 30.0316 38.139 29.8538 38.1436 29.6943C38.1527 29.5303 38.1641 29.3639 38.1777 29.1953C38.0365 29.3411 37.9043 29.4665 37.7812 29.5713C37.6582 29.6715 37.5055 29.7969 37.3232 29.9473L36.1816 30.8633L35.5869 30.0908L38.2939 28.0059H39.2373V38Z" fill="#61656E"/>
<path d="M144.645 49L143.402 44.9219H137.156L135.914 49H132L138.047 31.7969H142.488L148.559 49H144.645ZM142.535 41.875L141.293 37.8906C141.215 37.625 141.109 37.2852 140.977 36.8711C140.852 36.4492 140.723 36.0234 140.59 35.5938C140.465 35.1562 140.363 34.7773 140.285 34.457C140.207 34.7773 140.098 35.1758 139.957 35.6523C139.824 36.1211 139.695 36.5664 139.57 36.9883C139.445 37.4102 139.355 37.7109 139.301 37.8906L138.07 41.875H142.535ZM155.812 35.6289C157.57 35.6289 158.918 36.0117 159.855 36.7773C160.793 37.543 161.262 38.707 161.262 40.2695V49H158.766L158.074 47.2188H157.98C157.605 47.6875 157.223 48.0703 156.832 48.3672C156.441 48.6641 155.992 48.8828 155.484 49.0234C154.977 49.1641 154.359 49.2344 153.633 49.2344C152.859 49.2344 152.164 49.0859 151.547 48.7891C150.938 48.4922 150.457 48.0391 150.105 47.4297C149.754 46.8125 149.578 46.0312 149.578 45.0859C149.578 43.6953 150.066 42.6719 151.043 42.0156C152.02 41.3516 153.484 40.9844 155.438 40.9141L157.711 40.8438V40.2695C157.711 39.582 157.531 39.0781 157.172 38.7578C156.812 38.4375 156.312 38.2773 155.672 38.2773C155.039 38.2773 154.418 38.3672 153.809 38.5469C153.199 38.7266 152.59 38.9531 151.98 39.2266L150.797 36.8125C151.492 36.4453 152.27 36.1562 153.129 35.9453C153.996 35.7344 154.891 35.6289 155.812 35.6289ZM157.711 42.9297L156.328 42.9766C155.172 43.0078 154.367 43.2148 153.914 43.5977C153.469 43.9805 153.246 44.4844 153.246 45.1094C153.246 45.6562 153.406 46.0469 153.727 46.2812C154.047 46.5078 154.465 46.6211 154.98 46.6211C155.746 46.6211 156.391 46.3945 156.914 45.9414C157.445 45.4883 157.711 44.8438 157.711 44.0078V42.9297ZM165.234 31.8672H170.566C172.848 31.8672 174.574 32.1875 175.746 32.8281C176.918 33.4688 177.504 34.5938 177.504 36.2031C177.504 36.8516 177.398 37.4375 177.188 37.9609C176.984 38.4844 176.688 38.9141 176.297 39.25C175.906 39.5859 175.43 39.8047 174.867 39.9062V40.0234C175.438 40.1406 175.953 40.3438 176.414 40.6328C176.875 40.9141 177.242 41.3281 177.516 41.875C177.797 42.4141 177.938 43.1328 177.938 44.0312C177.938 45.0703 177.684 45.9609 177.176 46.7031C176.668 47.4453 175.941 48.0156 174.996 48.4141C174.059 48.8047 172.941 49 171.645 49H165.234V31.8672ZM168.867 38.6523H170.977C172.031 38.6523 172.762 38.4883 173.168 38.1602C173.574 37.8242 173.777 37.332 173.777 36.6836C173.777 36.0273 173.535 35.5586 173.051 35.2773C172.574 34.9883 171.816 34.8438 170.777 34.8438H168.867V38.6523ZM168.867 41.5352V46H171.234C172.328 46 173.09 45.7891 173.52 45.3672C173.949 44.9453 174.164 44.3789 174.164 43.668C174.164 43.2461 174.07 42.875 173.883 42.5547C173.695 42.2344 173.379 41.9844 172.934 41.8047C172.496 41.625 171.891 41.5352 171.117 41.5352H168.867ZM184.652 30.7656V35.0078C184.652 35.5 184.637 35.9883 184.605 36.4727C184.582 36.957 184.551 37.332 184.512 37.5977H184.652C184.996 37.0586 185.465 36.6016 186.059 36.2266C186.652 35.8438 187.422 35.6523 188.367 35.6523C189.836 35.6523 191.027 36.2266 191.941 37.375C192.855 38.5234 193.312 40.207 193.312 42.4258C193.312 43.918 193.102 45.1719 192.68 46.1875C192.258 47.1953 191.668 47.957 190.91 48.4727C190.152 48.9805 189.273 49.2344 188.273 49.2344C187.312 49.2344 186.555 49.0625 186 48.7188C185.445 48.375 184.996 47.9883 184.652 47.5586H184.406L183.809 49H181.078V30.7656H184.652ZM187.219 38.5117C186.594 38.5117 186.098 38.6406 185.73 38.8984C185.363 39.1562 185.094 39.543 184.922 40.0586C184.758 40.5742 184.668 41.2266 184.652 42.0156V42.4023C184.652 43.6758 184.84 44.6523 185.215 45.332C185.59 46.0039 186.273 46.3398 187.266 46.3398C188 46.3398 188.582 46 189.012 45.3203C189.449 44.6406 189.668 43.6602 189.668 42.3789C189.668 41.0977 189.449 40.1328 189.012 39.4844C188.574 38.8359 187.977 38.5117 187.219 38.5117ZM203.824 34.6445C203.129 34.6445 202.512 34.7812 201.973 35.0547C201.441 35.3203 200.992 35.707 200.625 36.2148C200.266 36.7227 199.992 37.3359 199.805 38.0547C199.617 38.7734 199.523 39.582 199.523 40.4805C199.523 41.6914 199.672 42.7266 199.969 43.5859C200.273 44.4375 200.742 45.0898 201.375 45.543C202.008 45.9883 202.824 46.2109 203.824 46.2109C204.52 46.2109 205.215 46.1328 205.91 45.9766C206.613 45.8203 207.375 45.5977 208.195 45.3086V48.3555C207.438 48.668 206.691 48.8906 205.957 49.0234C205.223 49.1641 204.398 49.2344 203.484 49.2344C201.719 49.2344 200.266 48.8711 199.125 48.1445C197.992 47.4102 197.152 46.3867 196.605 45.0742C196.059 43.7539 195.785 42.2148 195.785 40.457C195.785 39.1602 195.961 37.9727 196.312 36.8945C196.664 35.8164 197.18 34.8828 197.859 34.0938C198.539 33.3047 199.379 32.6953 200.379 32.2656C201.379 31.8359 202.527 31.6211 203.824 31.6211C204.676 31.6211 205.527 31.7305 206.379 31.9492C207.238 32.1602 208.059 32.4531 208.84 32.8281L207.668 35.7812C207.027 35.4766 206.383 35.2109 205.734 34.9844C205.086 34.7578 204.449 34.6445 203.824 34.6445ZM216.891 49.2344C215.594 49.2344 214.488 49 213.574 48.5312C212.66 48.0547 211.965 47.3203 211.488 46.3281C211.012 45.3359 210.773 44.0664 210.773 42.5195C210.773 40.918 211.043 39.6133 211.582 38.6055C212.129 37.5898 212.883 36.8438 213.844 36.3672C214.812 35.8906 215.934 35.6523 217.207 35.6523C218.113 35.6523 218.895 35.7422 219.551 35.9219C220.215 36.0938 220.793 36.3008 221.285 36.543L220.23 39.3086C219.668 39.082 219.145 38.8984 218.66 38.7578C218.176 38.6094 217.691 38.5352 217.207 38.5352C216.582 38.5352 216.062 38.6836 215.648 38.9805C215.234 39.2695 214.926 39.707 214.723 40.293C214.52 40.8789 214.418 41.6133 214.418 42.4961C214.418 43.3633 214.527 44.082 214.746 44.6523C214.965 45.2227 215.281 45.6484 215.695 45.9297C216.109 46.2031 216.613 46.3398 217.207 46.3398C217.949 46.3398 218.609 46.2422 219.188 46.0469C219.766 45.8438 220.328 45.5625 220.875 45.2031V48.2617C220.328 48.6055 219.754 48.8516 219.152 49C218.559 49.1562 217.805 49.2344 216.891 49.2344ZM238.418 40.2695C238.418 42.1992 238.047 43.8125 237.305 45.1094C236.57 46.3984 235.504 47.3711 234.105 48.0273C232.707 48.6758 231.023 49 229.055 49H224.203V31.8672H229.582C231.379 31.8672 232.938 32.1875 234.258 32.8281C235.578 33.4609 236.602 34.4023 237.328 35.6523C238.055 36.8945 238.418 38.4336 238.418 40.2695ZM234.645 40.3633C234.645 39.0977 234.457 38.0586 234.082 37.2461C233.715 36.4258 233.168 35.8203 232.441 35.4297C231.723 35.0391 230.832 34.8438 229.77 34.8438H227.836V46H229.395C231.168 46 232.484 45.5273 233.344 44.582C234.211 43.6367 234.645 42.2305 234.645 40.3633ZM245.836 49.2344C244.375 49.2344 243.184 48.6641 242.262 47.5234C241.348 46.375 240.891 44.6914 240.891 42.4727C240.891 40.2305 241.355 38.5352 242.285 37.3867C243.215 36.2305 244.43 35.6523 245.93 35.6523C246.555 35.6523 247.105 35.7383 247.582 35.9102C248.059 36.082 248.469 36.3125 248.812 36.6016C249.164 36.8906 249.461 37.2148 249.703 37.5742H249.82C249.773 37.3242 249.715 36.957 249.645 36.4727C249.582 35.9805 249.551 35.4766 249.551 34.9609V30.7656H253.137V49H250.395L249.703 47.3008H249.551C249.324 47.6602 249.039 47.9883 248.695 48.2852C248.359 48.5742 247.957 48.8047 247.488 48.9766C247.02 49.1484 246.469 49.2344 245.836 49.2344ZM247.09 46.3867C248.066 46.3867 248.754 46.0977 249.152 45.5195C249.559 44.9336 249.773 44.0547 249.797 42.8828V42.4961C249.797 41.2227 249.602 40.25 249.211 39.5781C248.82 38.8984 248.094 38.5586 247.031 38.5586C246.242 38.5586 245.625 38.8984 245.18 39.5781C244.734 40.2578 244.512 41.2383 244.512 42.5195C244.512 43.8008 244.734 44.7656 245.18 45.4141C245.633 46.0625 246.27 46.3867 247.09 46.3867ZM267.023 49H257.156V31.8672H267.023V34.8438H260.789V38.6055H266.59V41.582H260.789V46H267.023V49ZM275.73 35.6523C276.941 35.6523 277.984 35.8867 278.859 36.3555C279.734 36.8164 280.41 37.4883 280.887 38.3711C281.363 39.2539 281.602 40.332 281.602 41.6055V43.3398H273.152C273.191 44.3477 273.492 45.1406 274.055 45.7188C274.625 46.2891 275.414 46.5742 276.422 46.5742C277.258 46.5742 278.023 46.4883 278.719 46.3164C279.414 46.1445 280.129 45.8867 280.863 45.543V48.3086C280.215 48.6289 279.535 48.8633 278.824 49.0117C278.121 49.1602 277.266 49.2344 276.258 49.2344C274.945 49.2344 273.781 48.9922 272.766 48.5078C271.758 48.0234 270.965 47.2852 270.387 46.293C269.816 45.3008 269.531 44.0508 269.531 42.543C269.531 41.0117 269.789 39.7383 270.305 38.7227C270.828 37.6992 271.555 36.9336 272.484 36.4258C273.414 35.9102 274.496 35.6523 275.73 35.6523ZM275.754 38.1953C275.059 38.1953 274.48 38.418 274.02 38.8633C273.566 39.3086 273.305 40.0078 273.234 40.9609H278.25C278.242 40.4297 278.145 39.957 277.957 39.543C277.777 39.1289 277.504 38.8008 277.137 38.5586C276.777 38.3164 276.316 38.1953 275.754 38.1953ZM288.363 49H284.789V31.8672H294.609V34.8438H288.363V39.2617H294.176V42.2266H288.363V49ZM304.922 38.582H301.828V49H298.254V38.582H296.285V36.8594L298.254 35.8984V34.9375C298.254 33.8203 298.441 32.9531 298.816 32.3359C299.199 31.7109 299.734 31.2734 300.422 31.0234C301.117 30.7656 301.938 30.6367 302.883 30.6367C303.578 30.6367 304.211 30.6953 304.781 30.8125C305.352 30.9219 305.816 31.0469 306.176 31.1875L305.262 33.8125C304.988 33.7266 304.691 33.6484 304.371 33.5781C304.051 33.5078 303.684 33.4727 303.27 33.4727C302.77 33.4727 302.402 33.625 302.168 33.9297C301.941 34.2266 301.828 34.6094 301.828 35.0781V35.8984H304.922V38.582ZM313.77 39.3789H320.566V48.2617C319.668 48.5586 318.734 48.7969 317.766 48.9766C316.797 49.1484 315.699 49.2344 314.473 49.2344C312.77 49.2344 311.324 48.8984 310.137 48.2266C308.949 47.5547 308.047 46.5625 307.43 45.25C306.812 43.9375 306.504 42.3242 306.504 40.4102C306.504 38.6133 306.848 37.0586 307.535 35.7461C308.23 34.4336 309.242 33.418 310.57 32.6992C311.906 31.9805 313.535 31.6211 315.457 31.6211C316.363 31.6211 317.258 31.7188 318.141 31.9141C319.023 32.1094 319.824 32.3633 320.543 32.6758L319.336 35.582C318.812 35.3164 318.215 35.0938 317.543 34.9141C316.871 34.7344 316.168 34.6445 315.434 34.6445C314.379 34.6445 313.461 34.8867 312.68 35.3711C311.906 35.8555 311.305 36.5352 310.875 37.4102C310.453 38.2773 310.242 39.3008 310.242 40.4805C310.242 41.5977 310.395 42.5898 310.699 43.457C311.004 44.3164 311.484 44.9922 312.141 45.4844C312.797 45.9688 313.652 46.2109 314.707 46.2109C315.223 46.2109 315.656 46.1875 316.008 46.1406C316.367 46.0859 316.703 46.0312 317.016 45.9766V42.4023H313.77V39.3789ZM328.207 54.7656C326.379 54.7656 324.98 54.4453 324.012 53.8047C323.051 53.1719 322.57 52.2812 322.57 51.1328C322.57 50.3438 322.816 49.6836 323.309 49.1523C323.801 48.6211 324.523 48.2422 325.477 48.0156C325.109 47.8594 324.789 47.6055 324.516 47.2539C324.242 46.8945 324.105 46.5156 324.105 46.1172C324.105 45.6172 324.25 45.2031 324.539 44.875C324.828 44.5391 325.246 44.2109 325.793 43.8906C325.105 43.5938 324.559 43.1172 324.152 42.4609C323.754 41.8047 323.555 41.0312 323.555 40.1406C323.555 39.1875 323.762 38.3789 324.176 37.7148C324.598 37.043 325.207 36.5312 326.004 36.1797C326.809 35.8281 327.785 35.6523 328.934 35.6523C329.176 35.6523 329.457 35.668 329.777 35.6992C330.098 35.7305 330.391 35.7656 330.656 35.8047C330.93 35.8438 331.113 35.875 331.207 35.8984H335.777V37.7148L333.727 38.2422C333.914 38.5312 334.055 38.8398 334.148 39.168C334.242 39.4961 334.289 39.8438 334.289 40.2109C334.289 41.6172 333.797 42.7148 332.812 43.5039C331.836 44.2852 330.477 44.6758 328.734 44.6758C328.32 44.6523 327.93 44.6211 327.562 44.582C327.383 44.7227 327.246 44.8711 327.152 45.0273C327.059 45.1836 327.012 45.3477 327.012 45.5195C327.012 45.6914 327.082 45.8359 327.223 45.9531C327.371 46.0625 327.59 46.1484 327.879 46.2109C328.176 46.2656 328.543 46.293 328.98 46.293H331.207C332.645 46.293 333.738 46.6016 334.488 47.2188C335.246 47.8359 335.625 48.7422 335.625 49.9375C335.625 51.4688 334.984 52.6562 333.703 53.5C332.43 54.3438 330.598 54.7656 328.207 54.7656ZM328.359 52.4336C329.211 52.4336 329.941 52.3516 330.551 52.1875C331.168 52.0312 331.641 51.8047 331.969 51.5078C332.297 51.2188 332.461 50.8711 332.461 50.4648C332.461 50.1367 332.363 49.875 332.168 49.6797C331.98 49.4922 331.691 49.3594 331.301 49.2812C330.918 49.2031 330.426 49.1641 329.824 49.1641H327.973C327.535 49.1641 327.141 49.2344 326.789 49.375C326.445 49.5156 326.172 49.7109 325.969 49.9609C325.766 50.2188 325.664 50.5156 325.664 50.8516C325.664 51.3438 325.898 51.7305 326.367 52.0117C326.844 52.293 327.508 52.4336 328.359 52.4336ZM328.934 42.4961C329.605 42.4961 330.098 42.2891 330.41 41.875C330.723 41.4609 330.879 40.8984 330.879 40.1875C330.879 39.3984 330.715 38.8086 330.387 38.418C330.066 38.0195 329.582 37.8203 328.934 37.8203C328.277 37.8203 327.785 38.0195 327.457 38.418C327.129 38.8086 326.965 39.3984 326.965 40.1875C326.965 40.8984 327.125 41.4609 327.445 41.875C327.773 42.2891 328.27 42.4961 328.934 42.4961ZM141.914 81H138.293V71.0859C138.293 70.8125 138.297 70.4766 138.305 70.0781C138.312 69.6719 138.324 69.2578 138.34 68.8359C138.355 68.4062 138.371 68.0195 138.387 67.6758C138.301 67.7773 138.125 67.9531 137.859 68.2031C137.602 68.4453 137.359 68.6641 137.133 68.8594L135.164 70.4414L133.418 68.2617L138.938 63.8672H141.914V81ZM158.672 81H146.695V78.4805L150.996 74.1328C151.863 73.2422 152.559 72.5 153.082 71.9062C153.613 71.3047 153.996 70.7578 154.23 70.2656C154.473 69.7734 154.594 69.2461 154.594 68.6836C154.594 68.0039 154.402 67.4961 154.02 67.1602C153.645 66.8164 153.141 66.6445 152.508 66.6445C151.844 66.6445 151.199 66.7969 150.574 67.1016C149.949 67.4062 149.297 67.8398 148.617 68.4023L146.648 66.0703C147.141 65.6484 147.66 65.25 148.207 64.875C148.762 64.5 149.402 64.1992 150.129 63.9727C150.863 63.7383 151.742 63.6211 152.766 63.6211C153.891 63.6211 154.855 63.8242 155.66 64.2305C156.473 64.6367 157.098 65.1914 157.535 65.8945C157.973 66.5898 158.191 67.3789 158.191 68.2617C158.191 69.207 158.004 70.0703 157.629 70.8516C157.254 71.6328 156.707 72.4062 155.988 73.1719C155.277 73.9375 154.418 74.7852 153.41 75.7148L151.207 77.7891V77.9531H158.672V81ZM171.738 67.6992C171.738 68.4883 171.574 69.1719 171.246 69.75C170.918 70.3281 170.473 70.8008 169.91 71.168C169.355 71.5352 168.73 71.8047 168.035 71.9766V72.0469C169.41 72.2188 170.453 72.6406 171.164 73.3125C171.883 73.9844 172.242 74.8828 172.242 76.0078C172.242 77.0078 171.996 77.9023 171.504 78.6914C171.02 79.4805 170.27 80.1016 169.254 80.5547C168.238 81.0078 166.93 81.2344 165.328 81.2344C164.383 81.2344 163.5 81.1562 162.68 81C161.867 80.8516 161.102 80.6211 160.383 80.3086V77.2266C161.117 77.6016 161.887 77.8867 162.691 78.082C163.496 78.2695 164.246 78.3633 164.941 78.3633C166.238 78.3633 167.145 78.1406 167.66 77.6953C168.184 77.2422 168.445 76.6094 168.445 75.7969C168.445 75.3203 168.324 74.918 168.082 74.5898C167.84 74.2617 167.418 74.0117 166.816 73.8398C166.223 73.668 165.391 73.582 164.32 73.582H163.02V70.8047H164.344C165.398 70.8047 166.199 70.707 166.746 70.5117C167.301 70.3086 167.676 70.0352 167.871 69.6914C168.074 69.3398 168.176 68.9414 168.176 68.4961C168.176 67.8867 167.988 67.4102 167.613 67.0664C167.238 66.7227 166.613 66.5508 165.738 66.5508C165.191 66.5508 164.691 66.6211 164.238 66.7617C163.793 66.8945 163.391 67.0586 163.031 67.2539C162.672 67.4414 162.355 67.625 162.082 67.8047L160.406 65.3086C161.078 64.8242 161.863 64.4219 162.762 64.1016C163.668 63.7812 164.746 63.6211 165.996 63.6211C167.762 63.6211 169.16 63.9766 170.191 64.6875C171.223 65.3984 171.738 66.4023 171.738 67.6992ZM186.527 77.4492H184.465V81H180.926V77.4492H173.613V74.9297L181.125 63.8672H184.465V74.6367H186.527V77.4492ZM180.926 74.6367V71.7305C180.926 71.457 180.93 71.1328 180.938 70.7578C180.953 70.3828 180.969 70.0078 180.984 69.6328C181 69.2578 181.016 68.9258 181.031 68.6367C181.055 68.3398 181.07 68.1328 181.078 68.0156H180.984C180.836 68.3359 180.68 68.6484 180.516 68.9531C180.352 69.25 180.16 69.5625 179.941 69.8906L176.801 74.6367H180.926ZM194.133 70.0547C195.18 70.0547 196.109 70.2539 196.922 70.6523C197.742 71.0508 198.387 71.6367 198.855 72.4102C199.324 73.1836 199.559 74.1367 199.559 75.2695C199.559 76.5039 199.301 77.5703 198.785 78.4688C198.277 79.3594 197.516 80.043 196.5 80.5195C195.492 80.9961 194.234 81.2344 192.727 81.2344C191.828 81.2344 190.98 81.1562 190.184 81C189.395 80.8516 188.703 80.6211 188.109 80.3086V77.1797C188.703 77.4922 189.414 77.7578 190.242 77.9766C191.078 78.1875 191.863 78.293 192.598 78.293C193.316 78.293 193.922 78.1992 194.414 78.0117C194.906 77.8164 195.277 77.5195 195.527 77.1211C195.785 76.7148 195.914 76.1992 195.914 75.5742C195.914 74.7383 195.633 74.0977 195.07 73.6523C194.508 73.207 193.645 72.9844 192.48 72.9844C192.035 72.9844 191.57 73.0273 191.086 73.1133C190.609 73.1992 190.211 73.2852 189.891 73.3711L188.449 72.5977L189.094 63.8672H198.387V66.9375H192.27L191.953 70.3008C192.219 70.2461 192.508 70.1914 192.82 70.1367C193.133 70.082 193.57 70.0547 194.133 70.0547ZM201.516 73.7227C201.516 72.7383 201.586 71.7656 201.727 70.8047C201.875 69.8359 202.129 68.9258 202.488 68.0742C202.848 67.2148 203.352 66.457 204 65.8008C204.648 65.1367 205.473 64.6172 206.473 64.2422C207.473 63.8594 208.684 63.668 210.105 63.668C210.441 63.668 210.832 63.6836 211.277 63.7148C211.73 63.7383 212.105 63.7812 212.402 63.8438V66.7383C212.09 66.668 211.754 66.6133 211.395 66.5742C211.043 66.5273 210.691 66.5039 210.34 66.5039C208.918 66.5039 207.816 66.7305 207.035 67.1836C206.262 67.6367 205.715 68.2656 205.395 69.0703C205.082 69.8672 204.898 70.7969 204.844 71.8594H204.996C205.215 71.4766 205.488 71.1367 205.816 70.8398C206.152 70.543 206.559 70.3086 207.035 70.1367C207.512 69.957 208.07 69.8672 208.711 69.8672C209.711 69.8672 210.578 70.082 211.312 70.5117C212.047 70.9336 212.613 71.5469 213.012 72.3516C213.41 73.1562 213.609 74.1367 213.609 75.293C213.609 76.5273 213.371 77.5898 212.895 78.4805C212.418 79.3711 211.742 80.0547 210.867 80.5312C210 81 208.969 81.2344 207.773 81.2344C206.898 81.2344 206.082 81.0859 205.324 80.7891C204.566 80.4844 203.902 80.0234 203.332 79.4062C202.762 78.7891 202.316 78.0117 201.996 77.0742C201.676 76.1289 201.516 75.0117 201.516 73.7227ZM207.703 78.3398C208.414 78.3398 208.992 78.0977 209.438 77.6133C209.883 77.1289 210.105 76.3711 210.105 75.3398C210.105 74.5039 209.91 73.8477 209.52 73.3711C209.137 72.8867 208.555 72.6445 207.773 72.6445C207.242 72.6445 206.773 72.7656 206.367 73.0078C205.969 73.2422 205.66 73.543 205.441 73.9102C205.223 74.2695 205.113 74.6406 205.113 75.0234C205.113 75.4219 205.168 75.8164 205.277 76.207C205.387 76.5977 205.551 76.9531 205.77 77.2734C205.988 77.5938 206.258 77.8516 206.578 78.0469C206.906 78.2422 207.281 78.3398 207.703 78.3398ZM217.066 81L223.5 66.9141H215.051V63.8672H227.344V66.1406L220.863 81H217.066ZM235.008 63.6445C235.992 63.6445 236.898 63.7969 237.727 64.1016C238.562 64.4062 239.23 64.8672 239.73 65.4844C240.23 66.0938 240.48 66.8594 240.48 67.7812C240.48 68.4688 240.344 69.0703 240.07 69.5859C239.805 70.1016 239.441 70.5547 238.98 70.9453C238.52 71.3281 237.996 71.6641 237.41 71.9531C238.02 72.2734 238.598 72.6484 239.145 73.0781C239.691 73.5 240.137 73.9961 240.48 74.5664C240.832 75.1367 241.008 75.8008 241.008 76.5586C241.008 77.5117 240.754 78.3398 240.246 79.043C239.738 79.7383 239.035 80.2773 238.137 80.6602C237.238 81.043 236.195 81.2344 235.008 81.2344C233.727 81.2344 232.637 81.0508 231.738 80.6836C230.84 80.3164 230.156 79.793 229.688 79.1133C229.219 78.4258 228.984 77.6055 228.984 76.6523C228.984 75.8711 229.129 75.1914 229.418 74.6133C229.715 74.0352 230.113 73.5391 230.613 73.125C231.113 72.7031 231.664 72.3438 232.266 72.0469C231.758 71.7266 231.293 71.3633 230.871 70.957C230.457 70.5508 230.125 70.0859 229.875 69.5625C229.633 69.0391 229.512 68.4375 229.512 67.7578C229.512 66.8516 229.766 66.0938 230.273 65.4844C230.789 64.875 231.465 64.418 232.301 64.1133C233.137 63.8008 234.039 63.6445 235.008 63.6445ZM232.336 76.4414C232.336 77.0586 232.555 77.5703 232.992 77.9766C233.438 78.375 234.094 78.5742 234.961 78.5742C235.859 78.5742 236.531 78.3828 236.977 78C237.422 77.6094 237.645 77.0977 237.645 76.4648C237.645 76.0273 237.516 75.6445 237.258 75.3164C237.008 74.9883 236.691 74.6953 236.309 74.4375C235.926 74.1719 235.539 73.9258 235.148 73.6992L234.832 73.5352C234.332 73.7617 233.895 74.0156 233.52 74.2969C233.152 74.5781 232.863 74.8945 232.652 75.2461C232.441 75.5977 232.336 75.9961 232.336 76.4414ZM234.984 66.293C234.391 66.293 233.898 66.4453 233.508 66.75C233.117 67.0547 232.922 67.4844 232.922 68.0391C232.922 68.4297 233.016 68.7734 233.203 69.0703C233.398 69.3594 233.652 69.6133 233.965 69.832C234.285 70.0508 234.633 70.2539 235.008 70.4414C235.367 70.2695 235.703 70.0781 236.016 69.8672C236.328 69.6562 236.582 69.4023 236.777 69.1055C236.973 68.8086 237.07 68.4531 237.07 68.0391C237.07 67.4844 236.871 67.0547 236.473 66.75C236.082 66.4453 235.586 66.293 234.984 66.293ZM246.75 75.3164H243.891L243.293 63.8672H247.348L246.75 75.3164ZM243.246 79.3242C243.246 78.5898 243.445 78.0742 243.844 77.7773C244.25 77.4805 244.738 77.332 245.309 77.332C245.863 77.332 246.34 77.4805 246.738 77.7773C247.145 78.0742 247.348 78.5898 247.348 79.3242C247.348 80.0273 247.145 80.5352 246.738 80.8477C246.34 81.1602 245.863 81.3164 245.309 81.3164C244.738 81.3164 244.25 81.1602 243.844 80.8477C243.445 80.5352 243.246 80.0273 243.246 79.3242ZM251.977 75.3164V74.4492C251.977 73.918 252.051 73.4492 252.199 73.043C252.348 72.6289 252.586 72.2383 252.914 71.8711C253.242 71.4961 253.676 71.1133 254.215 70.7227C254.699 70.3789 255.086 70.0703 255.375 69.7969C255.672 69.5234 255.887 69.2539 256.02 68.9883C256.16 68.7148 256.23 68.4062 256.23 68.0625C256.23 67.5547 256.043 67.168 255.668 66.9023C255.293 66.6367 254.77 66.5039 254.098 66.5039C253.426 66.5039 252.758 66.6094 252.094 66.8203C251.438 67.0312 250.77 67.3086 250.09 67.6523L248.812 65.0859C249.594 64.6484 250.441 64.2969 251.355 64.0312C252.27 63.7578 253.27 63.6211 254.355 63.6211C256.027 63.6211 257.32 64.0234 258.234 64.8281C259.156 65.625 259.617 66.6406 259.617 67.875C259.617 68.5312 259.512 69.1016 259.301 69.5859C259.098 70.0625 258.785 70.5078 258.363 70.9219C257.949 71.3281 257.43 71.7578 256.805 72.2109C256.336 72.5547 255.977 72.8438 255.727 73.0781C255.477 73.3125 255.305 73.5469 255.211 73.7812C255.125 74.0078 255.082 74.2852 255.082 74.6133V75.3164H251.977ZM251.602 79.3242C251.602 78.5898 251.801 78.0742 252.199 77.7773C252.605 77.4805 253.094 77.332 253.664 77.332C254.219 77.332 254.695 77.4805 255.094 77.7773C255.5 78.0742 255.703 78.5898 255.703 79.3242C255.703 80.0273 255.5 80.5352 255.094 80.8477C254.695 81.1602 254.219 81.3164 253.664 81.3164C253.094 81.3164 252.605 81.1602 252.199 80.8477C251.801 80.5352 251.602 80.0273 251.602 79.3242ZM261.164 74.4258C261.164 73.1211 261.289 71.8477 261.539 70.6055C261.789 69.3555 262.176 68.1641 262.699 67.0312C263.223 65.8906 263.887 64.8359 264.691 63.8672H267.621C266.527 65.3672 265.695 67.0234 265.125 68.8359C264.562 70.6484 264.281 72.5039 264.281 74.4023C264.281 75.6367 264.406 76.8672 264.656 78.0938C264.906 79.3125 265.277 80.4883 265.77 81.6211C266.27 82.7539 266.879 83.8125 267.598 84.7969H264.691C263.887 83.8594 263.223 82.832 262.699 81.7148C262.176 80.6055 261.789 79.4375 261.539 78.2109C261.289 76.9766 261.164 75.7148 261.164 74.4258ZM275.508 74.4258C275.508 75.7148 275.383 76.9766 275.133 78.2109C274.883 79.4375 274.496 80.6055 273.973 81.7148C273.457 82.832 272.793 83.8594 271.98 84.7969H269.074C269.801 83.8125 270.41 82.7539 270.902 81.6211C271.395 80.4883 271.766 79.3125 272.016 78.0938C272.266 76.8672 272.391 75.6367 272.391 74.4023C272.391 73.1367 272.262 71.8867 272.004 70.6523C271.754 69.418 271.383 68.2305 270.891 67.0898C270.398 65.9414 269.785 64.8672 269.051 63.8672H271.98C272.793 64.8359 273.457 65.8906 273.973 67.0312C274.496 68.1641 274.883 69.3555 275.133 70.6055C275.383 71.8477 275.508 73.1211 275.508 74.4258Z" fill="#161616"/>
<path d="M528.941 38H527.779V33.29H522.529V38H521.367V28.0059H522.529V32.2646H527.779V28.0059H528.941V38ZM537.192 30.3369C537.192 30.7835 537.106 31.1709 536.933 31.499C536.759 31.8271 536.518 32.096 536.208 32.3057C535.898 32.5107 535.534 32.6543 535.114 32.7363V32.791C535.907 32.8913 536.502 33.1465 536.898 33.5566C537.299 33.9668 537.5 34.5046 537.5 35.1699C537.5 35.7487 537.363 36.2614 537.09 36.708C536.821 37.1546 536.406 37.5055 535.846 37.7607C535.29 38.0114 534.576 38.1367 533.706 38.1367C533.177 38.1367 532.688 38.0934 532.236 38.0068C531.79 37.9248 531.361 37.7858 530.951 37.5898V36.5234C531.366 36.7285 531.817 36.8903 532.305 37.0088C532.792 37.1227 533.264 37.1797 533.72 37.1797C534.631 37.1797 535.29 36.9997 535.695 36.6396C536.101 36.2751 536.304 35.7783 536.304 35.1494C536.304 34.7165 536.19 34.3678 535.962 34.1035C535.739 33.8346 535.415 33.6387 534.991 33.5156C534.572 33.388 534.066 33.3242 533.474 33.3242H532.476V32.3535H533.48C534.023 32.3535 534.483 32.2738 534.861 32.1143C535.24 31.9548 535.527 31.7314 535.723 31.4443C535.923 31.1527 536.023 30.8086 536.023 30.4121C536.023 29.9062 535.855 29.5166 535.518 29.2432C535.18 28.9652 534.722 28.8262 534.144 28.8262C533.788 28.8262 533.465 28.8626 533.173 28.9355C532.881 29.0085 532.608 29.1087 532.353 29.2363C532.097 29.3639 531.842 29.512 531.587 29.6807L531.013 28.9014C531.377 28.6188 531.822 28.375 532.346 28.1699C532.87 27.9648 533.465 27.8623 534.13 27.8623C535.151 27.8623 535.916 28.0947 536.427 28.5596C536.937 29.0244 537.192 29.6169 537.192 30.3369Z" fill="#61656E"/>
<path d="M635.506 38L634.528 35.2246H630.707L629.729 38H628L631.719 27.9648H633.537L637.249 38H635.506ZM634.104 33.8164L633.154 31.082C633.118 30.9635 633.065 30.7972 632.997 30.583C632.929 30.3643 632.86 30.1432 632.792 29.9199C632.724 29.6921 632.667 29.5007 632.621 29.3457C632.576 29.5326 632.519 29.7422 632.45 29.9746C632.386 30.2025 632.323 30.4167 632.259 30.6172C632.2 30.8177 632.154 30.9727 632.122 31.082L631.165 33.8164H634.104ZM641.371 30.2891C642.328 30.2891 643.05 30.501 643.538 30.9248C644.03 31.3486 644.276 32.0094 644.276 32.9072V38H643.135L642.827 36.9268H642.772C642.558 37.2002 642.337 37.4258 642.109 37.6035C641.882 37.7812 641.617 37.9134 641.316 38C641.02 38.0911 640.658 38.1367 640.229 38.1367C639.778 38.1367 639.375 38.0547 639.02 37.8906C638.664 37.722 638.384 37.4668 638.179 37.125C637.974 36.7832 637.871 36.3503 637.871 35.8262C637.871 35.0469 638.16 34.4613 638.739 34.0693C639.323 33.6774 640.202 33.4609 641.378 33.4199L642.69 33.3721V32.9756C642.69 32.4515 642.567 32.0778 642.321 31.8545C642.08 31.6312 641.738 31.5195 641.296 31.5195C640.918 31.5195 640.551 31.5742 640.195 31.6836C639.84 31.793 639.493 31.9274 639.156 32.0869L638.637 30.9521C639.006 30.7562 639.425 30.5967 639.895 30.4736C640.368 30.3506 640.861 30.2891 641.371 30.2891ZM642.684 34.3838L641.706 34.418C640.904 34.4453 640.341 34.582 640.018 34.8281C639.694 35.0742 639.532 35.4115 639.532 35.8398C639.532 36.2135 639.644 36.487 639.867 36.6602C640.09 36.8288 640.384 36.9131 640.749 36.9131C641.305 36.9131 641.765 36.7559 642.13 36.4414C642.499 36.1224 642.684 35.6553 642.684 35.04V34.3838ZM646.689 28.0059H649.663C650.953 28.0059 651.926 28.1927 652.582 28.5664C653.238 28.9401 653.566 29.585 653.566 30.501C653.566 30.8838 653.498 31.2301 653.361 31.54C653.229 31.8454 653.035 32.0983 652.78 32.2988C652.525 32.4948 652.211 32.627 651.837 32.6953V32.7637C652.224 32.832 652.568 32.9528 652.869 33.126C653.174 33.2992 653.414 33.5475 653.587 33.8711C653.765 34.1947 653.854 34.6139 653.854 35.1289C653.854 35.7396 653.708 36.2591 653.416 36.6875C653.129 37.1159 652.716 37.4417 652.179 37.665C651.646 37.8883 651.012 38 650.278 38H646.689V28.0059ZM648.33 32.1279H649.902C650.645 32.1279 651.16 32.0072 651.447 31.7656C651.734 31.5241 651.878 31.1709 651.878 30.7061C651.878 30.2321 651.707 29.8903 651.365 29.6807C651.028 29.471 650.49 29.3662 649.752 29.3662H648.33V32.1279ZM648.33 33.4541V36.626H650.06C650.825 36.626 651.363 36.4779 651.673 36.1816C651.983 35.8854 652.138 35.4844 652.138 34.9785C652.138 34.6686 652.067 34.3997 651.926 34.1719C651.789 33.944 651.563 33.7686 651.249 33.6455C650.935 33.5179 650.511 33.4541 649.978 33.4541H648.33ZM657.36 27.3633V29.9268C657.36 30.223 657.351 30.5146 657.333 30.8018C657.319 31.0843 657.306 31.3053 657.292 31.4648H657.36C657.565 31.1367 657.85 30.861 658.215 30.6377C658.584 30.4098 659.056 30.2959 659.63 30.2959C660.528 30.2959 661.25 30.6263 661.797 31.2871C662.344 31.9434 662.617 32.9163 662.617 34.2061C662.617 35.0628 662.492 35.7829 662.241 36.3662C661.991 36.9495 661.637 37.3916 661.182 37.6924C660.73 37.9886 660.2 38.1367 659.589 38.1367C659.015 38.1367 658.55 38.0319 658.194 37.8223C657.843 37.6081 657.568 37.3597 657.367 37.0771H657.251L656.957 38H655.754V27.3633H657.36ZM659.206 31.6016C658.75 31.6016 658.388 31.6927 658.119 31.875C657.855 32.0573 657.663 32.3307 657.545 32.6953C657.426 33.0553 657.365 33.5133 657.36 34.0693V34.2129C657.36 35.056 657.493 35.7008 657.757 36.1475C658.026 36.5941 658.513 36.8174 659.22 36.8174C659.78 36.8174 660.211 36.5918 660.512 36.1406C660.812 35.6849 660.963 35.0332 660.963 34.1855C660.963 33.3288 660.812 32.6839 660.512 32.251C660.215 31.818 659.78 31.6016 659.206 31.6016ZM668.899 29.2568C668.421 29.2568 667.993 29.3434 667.614 29.5166C667.241 29.6898 666.924 29.9404 666.664 30.2686C666.404 30.5921 666.206 30.9863 666.069 31.4512C665.933 31.9115 665.864 32.431 665.864 33.0098C665.864 33.7845 665.974 34.4521 666.192 35.0127C666.411 35.5687 666.744 35.9971 667.19 36.2979C667.637 36.5941 668.202 36.7422 668.886 36.7422C669.31 36.7422 669.722 36.7012 670.123 36.6191C670.524 36.5371 670.939 36.4255 671.367 36.2842V37.6787C670.962 37.8382 670.551 37.9544 670.137 38.0273C669.722 38.1003 669.243 38.1367 668.701 38.1367C667.68 38.1367 666.833 37.9248 666.158 37.501C665.488 37.0771 664.987 36.4801 664.654 35.71C664.326 34.9398 664.162 34.0374 664.162 33.0029C664.162 32.2464 664.267 31.5537 664.477 30.9248C664.686 30.2959 664.992 29.7536 665.393 29.2979C665.794 28.8376 666.288 28.4844 666.876 28.2383C667.468 27.9876 668.145 27.8623 668.906 27.8623C669.408 27.8623 669.9 27.9193 670.383 28.0332C670.87 28.1426 671.322 28.2998 671.736 28.5049L671.162 29.8584C670.816 29.6943 670.453 29.5531 670.075 29.4346C669.697 29.3161 669.305 29.2568 668.899 29.2568ZM676.398 38.1367C675.683 38.1367 675.063 37.9977 674.539 37.7197C674.015 37.4417 673.612 37.0156 673.329 36.4414C673.047 35.8672 672.905 35.138 672.905 34.2539C672.905 33.3333 673.06 32.5814 673.37 31.998C673.68 31.4147 674.108 30.984 674.655 30.7061C675.207 30.4281 675.838 30.2891 676.549 30.2891C677 30.2891 677.408 30.3346 677.772 30.4258C678.142 30.5124 678.454 30.6195 678.709 30.7471L678.23 32.0322C677.952 31.9183 677.668 31.8226 677.376 31.7451C677.084 31.6676 676.804 31.6289 676.535 31.6289C676.093 31.6289 675.724 31.7269 675.428 31.9229C675.136 32.1188 674.917 32.4105 674.771 32.7979C674.63 33.1852 674.56 33.666 674.56 34.2402C674.56 34.7962 674.632 35.2656 674.778 35.6484C674.924 36.0267 675.141 36.3138 675.428 36.5098C675.715 36.7012 676.068 36.7969 676.487 36.7969C676.902 36.7969 677.273 36.7467 677.602 36.6465C677.93 36.5462 678.24 36.4163 678.531 36.2568V37.6514C678.244 37.8154 677.937 37.9362 677.608 38.0137C677.28 38.0957 676.877 38.1367 676.398 38.1367ZM688.587 32.9072C688.587 34.0329 688.377 34.974 687.958 35.7305C687.539 36.4824 686.93 37.0498 686.133 37.4326C685.335 37.8109 684.374 38 683.248 38H680.473V28.0059H683.549C684.583 28.0059 685.477 28.1927 686.229 28.5664C686.98 28.9355 687.562 29.4847 687.972 30.2139C688.382 30.9385 688.587 31.8363 688.587 32.9072ZM686.878 32.9551C686.878 32.1348 686.748 31.4603 686.488 30.9316C686.233 30.403 685.855 30.0111 685.354 29.7559C684.857 29.4961 684.244 29.3662 683.515 29.3662H682.113V36.626H683.275C684.483 36.626 685.385 36.3184 685.982 35.7031C686.579 35.0879 686.878 34.1719 686.878 32.9551ZM693.119 38.1367C692.217 38.1367 691.492 37.8086 690.945 37.1523C690.403 36.4915 690.132 35.5186 690.132 34.2334C690.132 32.9346 690.408 31.9525 690.959 31.2871C691.515 30.6217 692.246 30.2891 693.153 30.2891C693.536 30.2891 693.871 30.3415 694.158 30.4463C694.445 30.5465 694.691 30.6833 694.896 30.8564C695.106 31.0296 695.284 31.2233 695.43 31.4375H695.505C695.482 31.2962 695.455 31.0934 695.423 30.8291C695.396 30.5602 695.382 30.3118 695.382 30.084V27.3633H696.995V38H695.737L695.45 36.9678H695.382C695.245 37.1865 695.072 37.3848 694.862 37.5625C694.657 37.7357 694.411 37.8747 694.124 37.9795C693.841 38.0843 693.507 38.1367 693.119 38.1367ZM693.57 36.8311C694.258 36.8311 694.744 36.6328 695.026 36.2363C695.309 35.8398 695.455 35.2451 695.464 34.4521V34.2402C695.464 33.3926 695.327 32.7432 695.054 32.292C694.78 31.8363 694.281 31.6084 693.557 31.6084C692.978 31.6084 692.536 31.8431 692.23 32.3125C691.93 32.7773 691.779 33.4268 691.779 34.2607C691.779 35.0947 691.93 35.7327 692.23 36.1748C692.536 36.6123 692.982 36.8311 693.57 36.8311ZM705.123 38H699.463V28.0059H705.123V29.3867H701.104V32.1006H704.87V33.4746H701.104V36.6123H705.123V38ZM710.134 30.2891C710.808 30.2891 711.387 30.4281 711.87 30.7061C712.353 30.984 712.725 31.3783 712.984 31.8887C713.244 32.3991 713.374 33.0098 713.374 33.7207V34.582H708.322C708.34 35.3158 708.536 35.8809 708.91 36.2773C709.288 36.6738 709.817 36.8721 710.496 36.8721C710.979 36.8721 711.412 36.8265 711.795 36.7354C712.182 36.6396 712.581 36.5007 712.991 36.3184V37.624C712.613 37.8018 712.228 37.9316 711.836 38.0137C711.444 38.0957 710.975 38.1367 710.428 38.1367C709.685 38.1367 709.031 37.9932 708.466 37.7061C707.905 37.4144 707.465 36.9814 707.146 36.4072C706.832 35.833 706.675 35.1198 706.675 34.2676C706.675 33.4199 706.818 32.6999 707.105 32.1074C707.393 31.515 707.796 31.0638 708.315 30.7539C708.835 30.444 709.441 30.2891 710.134 30.2891ZM710.134 31.499C709.628 31.499 709.218 31.6631 708.903 31.9912C708.593 32.3193 708.411 32.8001 708.356 33.4336H711.802C711.797 33.0553 711.733 32.7204 711.61 32.4287C711.492 32.137 711.31 31.9092 711.063 31.7451C710.822 31.5811 710.512 31.499 710.134 31.499ZM716.977 38H715.35V28.0059H720.996V29.3867H716.977V32.5039H720.736V33.8779H716.977V38ZM726.431 31.6562H724.592V38H722.985V31.6562H721.748V30.8838L722.985 30.4121V29.8857C722.985 29.2432 723.086 28.7327 723.286 28.3545C723.491 27.9762 723.783 27.7051 724.161 27.541C724.544 27.3724 725 27.2881 725.528 27.2881C725.875 27.2881 726.191 27.3177 726.479 27.377C726.766 27.4316 727.007 27.4954 727.203 27.5684L726.786 28.7852C726.631 28.735 726.458 28.6895 726.267 28.6484C726.075 28.6029 725.87 28.5801 725.651 28.5801C725.287 28.5801 725.018 28.694 724.845 28.9219C724.676 29.1497 724.592 29.4824 724.592 29.9199V30.4326H726.431V31.6562ZM731.92 32.5723H735.652V37.5898C735.128 37.763 734.586 37.8975 734.025 37.9932C733.465 38.0889 732.836 38.1367 732.139 38.1367C731.122 38.1367 730.261 37.9362 729.555 37.5352C728.853 37.1296 728.32 36.5439 727.955 35.7783C727.59 35.0081 727.408 34.0807 727.408 32.9961C727.408 31.9525 727.611 31.0479 728.017 30.2822C728.422 29.512 729.012 28.9173 729.787 28.498C730.562 28.0742 731.501 27.8623 732.604 27.8623C733.146 27.8623 733.67 27.917 734.176 28.0264C734.686 28.1312 735.153 28.277 735.577 28.4639L735.003 29.8174C734.666 29.6579 734.287 29.5234 733.868 29.4141C733.449 29.3047 733.014 29.25 732.562 29.25C731.847 29.25 731.229 29.4049 730.71 29.7148C730.195 30.0247 729.799 30.4622 729.521 31.0273C729.243 31.5879 729.104 32.251 729.104 33.0166C729.104 33.7594 729.215 34.4111 729.438 34.9717C729.662 35.5322 730.01 35.9697 730.484 36.2842C730.963 36.5941 731.58 36.749 732.337 36.749C732.715 36.749 733.036 36.7285 733.301 36.6875C733.565 36.6465 733.809 36.6009 734.032 36.5508V33.9736H731.92V32.5723ZM740.041 41.3633C739.016 41.3633 738.229 41.1787 737.683 40.8096C737.136 40.4404 736.862 39.9232 736.862 39.2578C736.862 38.793 737.008 38.3988 737.3 38.0752C737.591 37.7562 738.008 37.5352 738.551 37.4121C738.346 37.321 738.168 37.1797 738.018 36.9883C737.872 36.7923 737.799 36.5758 737.799 36.3389C737.799 36.0563 737.879 35.8148 738.038 35.6143C738.198 35.4137 738.437 35.2201 738.756 35.0332C738.359 34.8646 738.04 34.5911 737.799 34.2129C737.562 33.8301 737.443 33.3812 737.443 32.8662C737.443 32.3193 737.56 31.8545 737.792 31.4717C738.024 31.0843 738.364 30.7904 738.811 30.5898C739.257 30.3848 739.797 30.2822 740.431 30.2822C740.567 30.2822 740.715 30.2913 740.875 30.3096C741.039 30.3232 741.189 30.3415 741.326 30.3643C741.467 30.3825 741.575 30.403 741.647 30.4258H744.266V31.3213L742.98 31.5605C743.104 31.7337 743.201 31.932 743.274 32.1553C743.347 32.374 743.384 32.6133 743.384 32.873C743.384 33.6569 743.113 34.2744 742.57 34.7256C742.033 35.1722 741.29 35.3955 740.342 35.3955C740.114 35.3864 739.893 35.3682 739.679 35.3408C739.515 35.4411 739.389 35.5527 739.303 35.6758C739.216 35.7943 739.173 35.9287 739.173 36.0791C739.173 36.2021 739.216 36.3024 739.303 36.3799C739.389 36.4528 739.517 36.5075 739.686 36.5439C739.859 36.5804 740.068 36.5986 740.314 36.5986H741.62C742.45 36.5986 743.083 36.7741 743.521 37.125C743.958 37.4759 744.177 37.9909 744.177 38.6699C744.177 39.5312 743.821 40.1943 743.11 40.6592C742.399 41.1286 741.376 41.3633 740.041 41.3633ZM740.103 40.2354C740.663 40.2354 741.135 40.1807 741.518 40.0713C741.9 39.9619 742.19 39.8047 742.386 39.5996C742.582 39.3991 742.68 39.1598 742.68 38.8818C742.68 38.6357 742.618 38.4466 742.495 38.3145C742.372 38.1823 742.188 38.0911 741.941 38.041C741.695 37.9909 741.39 37.9658 741.025 37.9658H739.836C739.54 37.9658 739.278 38.0114 739.05 38.1025C738.822 38.1982 738.644 38.335 738.517 38.5127C738.394 38.6904 738.332 38.9046 738.332 39.1553C738.332 39.5016 738.485 39.7682 738.79 39.9551C739.1 40.1419 739.537 40.2354 740.103 40.2354ZM740.417 34.3428C740.886 34.3428 741.235 34.2152 741.463 33.96C741.691 33.7002 741.805 33.3356 741.805 32.8662C741.805 32.3558 741.686 31.973 741.449 31.7178C741.217 31.4626 740.87 31.335 740.41 31.335C739.959 31.335 739.615 31.4648 739.378 31.7246C739.146 31.9844 739.029 32.3695 739.029 32.8799C739.029 33.3402 739.146 33.7002 739.378 33.96C739.615 34.2152 739.961 34.3428 740.417 34.3428ZM633.353 56H631.739V49.5674C631.739 49.3532 631.742 49.139 631.746 48.9248C631.751 48.7106 631.755 48.501 631.76 48.2959C631.769 48.0908 631.78 47.8949 631.794 47.708C631.698 47.8128 631.58 47.9268 631.438 48.0498C631.302 48.1729 631.156 48.3005 631.001 48.4326L629.853 49.3486L629.046 48.3301L632.013 46.0059H633.353V56ZM643.408 56H636.641V54.79L639.231 52.165C639.733 51.6546 640.145 51.2148 640.469 50.8457C640.792 50.472 641.032 50.1188 641.187 49.7861C641.346 49.4535 641.426 49.0911 641.426 48.6992C641.426 48.2161 641.287 47.8516 641.009 47.6055C640.731 47.3548 640.364 47.2295 639.908 47.2295C639.475 47.2295 639.074 47.3161 638.705 47.4893C638.34 47.6579 637.962 47.8994 637.57 48.2139L636.688 47.1543C636.966 46.9173 637.263 46.7008 637.577 46.5049C637.896 46.3089 638.252 46.154 638.644 46.04C639.035 45.9215 639.482 45.8623 639.983 45.8623C640.617 45.8623 641.164 45.9762 641.624 46.2041C642.084 46.4274 642.438 46.7396 642.684 47.1406C642.934 47.5417 643.06 48.0088 643.06 48.542C643.06 49.0798 642.952 49.5765 642.738 50.0322C642.524 50.488 642.219 50.9391 641.822 51.3857C641.426 51.8278 640.954 52.3086 640.407 52.8281L638.678 54.5166V54.5918H643.408V56ZM651.037 48.2891C651.037 48.7402 650.946 49.1322 650.764 49.4648C650.581 49.7975 650.331 50.071 650.012 50.2852C649.697 50.4948 649.333 50.6452 648.918 50.7363V50.7842C649.715 50.8844 650.317 51.1351 650.723 51.5361C651.133 51.9372 651.338 52.4681 651.338 53.1289C651.338 53.7077 651.199 54.2249 650.921 54.6807C650.643 55.1318 650.217 55.4873 649.643 55.7471C649.068 56.0068 648.33 56.1367 647.428 56.1367C646.885 56.1367 646.382 56.0934 645.917 56.0068C645.457 55.9202 645.019 55.7812 644.604 55.5898V54.1611C645.028 54.3708 645.479 54.5326 645.958 54.6465C646.437 54.7604 646.89 54.8174 647.318 54.8174C648.152 54.8174 648.747 54.6624 649.103 54.3525C649.458 54.0381 649.636 53.6051 649.636 53.0537C649.636 52.6982 649.542 52.4066 649.355 52.1787C649.173 51.9508 648.888 51.7799 648.501 51.666C648.118 51.5521 647.624 51.4951 647.018 51.4951H646.136V50.2031H647.024C647.603 50.2031 648.068 50.1348 648.419 49.998C648.77 49.8568 649.023 49.6631 649.178 49.417C649.337 49.1709 649.417 48.8838 649.417 48.5557C649.417 48.1273 649.278 47.7946 649 47.5576C648.722 47.3161 648.31 47.1953 647.763 47.1953C647.425 47.1953 647.118 47.234 646.84 47.3115C646.566 47.389 646.313 47.487 646.081 47.6055C645.849 47.724 645.628 47.8516 645.418 47.9883L644.646 46.874C645.024 46.5915 645.475 46.3522 645.999 46.1562C646.523 45.9603 647.134 45.8623 647.831 45.8623C648.856 45.8623 649.647 46.0833 650.203 46.5254C650.759 46.9629 651.037 47.5508 651.037 48.2891ZM659.794 53.8057H658.44V56H656.854V53.8057H652.309V52.5889L656.875 45.9785H658.44V52.4727H659.794V53.8057ZM656.854 52.4727V49.9912C656.854 49.7861 656.857 49.5788 656.861 49.3691C656.87 49.1549 656.88 48.9499 656.889 48.7539C656.898 48.5579 656.907 48.3779 656.916 48.2139C656.925 48.0452 656.932 47.9062 656.937 47.7969H656.882C656.795 47.9792 656.7 48.166 656.595 48.3574C656.49 48.5443 656.378 48.7266 656.26 48.9043L653.799 52.4727H656.854ZM664.073 49.752C664.716 49.752 665.281 49.8682 665.769 50.1006C666.261 50.3285 666.644 50.6657 666.917 51.1123C667.19 51.5544 667.327 52.0967 667.327 52.7393C667.327 53.4411 667.179 54.0472 666.883 54.5576C666.587 55.0635 666.151 55.4531 665.577 55.7266C665.003 56 664.303 56.1367 663.479 56.1367C662.954 56.1367 662.465 56.0911 662.009 56C661.558 55.9089 661.168 55.7721 660.84 55.5898V54.1406C661.182 54.332 661.592 54.4893 662.07 54.6123C662.549 54.7308 663.007 54.79 663.444 54.79C663.909 54.79 664.308 54.7217 664.641 54.585C664.973 54.4482 665.229 54.2386 665.406 53.9561C665.589 53.6735 665.68 53.3158 665.68 52.8828C665.68 52.3086 665.495 51.8665 665.126 51.5566C664.761 51.2422 664.189 51.085 663.41 51.085C663.137 51.085 662.845 51.11 662.535 51.1602C662.23 51.2057 661.975 51.2559 661.77 51.3105L661.065 50.8936L661.441 46.0059H666.637V47.4209H662.856L662.638 49.9092C662.802 49.8727 662.998 49.8385 663.226 49.8066C663.453 49.7702 663.736 49.752 664.073 49.752ZM668.701 51.7412C668.701 51.1533 668.742 50.5745 668.824 50.0049C668.911 49.4352 669.057 48.902 669.262 48.4053C669.467 47.9085 669.749 47.471 670.109 47.0928C670.474 46.7145 670.932 46.4183 671.483 46.2041C672.035 45.9854 672.698 45.876 673.473 45.876C673.673 45.876 673.899 45.8851 674.149 45.9033C674.4 45.9215 674.607 45.9512 674.771 45.9922V47.3252C674.594 47.2751 674.398 47.2363 674.184 47.209C673.974 47.1816 673.764 47.168 673.555 47.168C672.716 47.168 672.062 47.3275 671.593 47.6465C671.123 47.9609 670.788 48.3939 670.588 48.9453C670.387 49.4922 670.271 50.1188 670.239 50.8252H670.321C670.458 50.5973 670.629 50.3945 670.834 50.2168C671.039 50.0391 671.29 49.8978 671.586 49.793C671.882 49.6836 672.226 49.6289 672.618 49.6289C673.201 49.6289 673.71 49.752 674.143 49.998C674.576 50.2396 674.908 50.5905 675.141 51.0508C675.378 51.5111 675.496 52.0693 675.496 52.7256C675.496 53.432 675.362 54.0404 675.093 54.5508C674.828 55.0612 674.45 55.4531 673.958 55.7266C673.47 56 672.889 56.1367 672.215 56.1367C671.718 56.1367 671.256 56.0456 670.827 55.8633C670.403 55.681 670.032 55.4076 669.713 55.043C669.394 54.6784 669.146 54.2227 668.968 53.6758C668.79 53.1243 668.701 52.4795 668.701 51.7412ZM672.188 54.8105C672.707 54.8105 673.124 54.6419 673.438 54.3047C673.757 53.9629 673.917 53.4411 673.917 52.7393C673.917 52.1696 673.776 51.7184 673.493 51.3857C673.215 51.0531 672.796 50.8867 672.235 50.8867C671.853 50.8867 671.518 50.9688 671.23 51.1328C670.943 51.2969 670.72 51.5042 670.561 51.7549C670.406 52.0055 670.328 52.2607 670.328 52.5205C670.328 52.7848 670.367 53.0514 670.444 53.3203C670.522 53.5892 670.638 53.8376 670.793 54.0654C670.948 54.2887 671.142 54.4688 671.374 54.6055C671.606 54.7422 671.878 54.8105 672.188 54.8105ZM677.841 56L681.765 47.4141H676.576V46.0059H683.494V47.1064L679.57 56H677.841ZM688.081 45.8691C688.66 45.8691 689.182 45.9603 689.646 46.1426C690.111 46.3203 690.48 46.5869 690.754 46.9424C691.027 47.2979 691.164 47.7376 691.164 48.2617C691.164 48.6673 691.08 49.0205 690.911 49.3213C690.747 49.6221 690.524 49.8864 690.241 50.1143C689.959 50.3376 689.642 50.5358 689.291 50.709C689.683 50.9004 690.043 51.1214 690.371 51.3721C690.704 51.6182 690.97 51.9076 691.171 52.2402C691.376 52.5729 691.479 52.9626 691.479 53.4092C691.479 53.9697 691.335 54.4551 691.048 54.8652C690.765 55.2708 690.371 55.5853 689.865 55.8086C689.359 56.0273 688.769 56.1367 688.095 56.1367C687.37 56.1367 686.753 56.0296 686.242 55.8154C685.732 55.6012 685.344 55.2959 685.08 54.8994C684.816 54.4984 684.684 54.0199 684.684 53.4639C684.684 53.0036 684.775 52.6048 684.957 52.2676C685.139 51.9303 685.383 51.6387 685.688 51.3926C685.998 51.1465 686.338 50.9391 686.707 50.7705C686.393 50.5837 686.105 50.374 685.846 50.1416C685.586 49.9046 685.379 49.6335 685.224 49.3281C685.073 49.0182 684.998 48.6605 684.998 48.2549C684.998 47.7354 685.137 47.3001 685.415 46.9492C685.693 46.5938 686.064 46.3249 686.529 46.1426C686.999 45.9603 687.516 45.8691 688.081 45.8691ZM686.215 53.4023C686.215 53.8398 686.37 54.1999 686.68 54.4824C686.99 54.765 687.452 54.9062 688.067 54.9062C688.678 54.9062 689.143 54.7673 689.462 54.4893C689.781 54.2113 689.94 53.8444 689.94 53.3887C689.94 53.097 689.858 52.8395 689.694 52.6162C689.535 52.3929 689.318 52.1947 689.045 52.0215C688.776 51.8438 688.478 51.6797 688.149 51.5293L687.931 51.4404C687.575 51.5908 687.27 51.7617 687.015 51.9531C686.759 52.14 686.561 52.3519 686.42 52.5889C686.283 52.8258 686.215 53.097 686.215 53.4023ZM688.067 47.1064C687.625 47.1064 687.261 47.2158 686.974 47.4346C686.691 47.6488 686.55 47.9587 686.55 48.3643C686.55 48.6514 686.618 48.8975 686.755 49.1025C686.896 49.3076 687.085 49.4854 687.322 49.6357C687.559 49.7816 687.821 49.9183 688.108 50.0459C688.386 49.9229 688.637 49.7884 688.86 49.6426C689.088 49.4922 689.268 49.3145 689.4 49.1094C689.537 48.8997 689.605 48.6491 689.605 48.3574C689.605 47.9564 689.462 47.6488 689.175 47.4346C688.892 47.2158 688.523 47.1064 688.067 47.1064ZM694.63 52.9512H693.42L693.092 46.0059H694.958L694.63 52.9512ZM693.01 55.1523C693.01 54.7786 693.105 54.5166 693.297 54.3662C693.493 54.2113 693.732 54.1338 694.015 54.1338C694.293 54.1338 694.53 54.2113 694.726 54.3662C694.922 54.5166 695.02 54.7786 695.02 55.1523C695.02 55.5169 694.922 55.7812 694.726 55.9453C694.53 56.1048 694.293 56.1846 694.015 56.1846C693.732 56.1846 693.493 56.1048 693.297 55.9453C693.105 55.7812 693.01 55.5169 693.01 55.1523ZM697.877 52.9512V52.5205C697.877 52.1833 697.916 51.8893 697.993 51.6387C698.071 51.388 698.201 51.1533 698.383 50.9346C698.565 50.7113 698.811 50.4788 699.121 50.2373C699.44 49.9867 699.693 49.7702 699.88 49.5879C700.071 49.4056 700.208 49.2233 700.29 49.041C700.377 48.8542 700.42 48.6377 700.42 48.3916C700.42 48.0042 700.288 47.7103 700.023 47.5098C699.764 47.3047 699.397 47.2021 698.923 47.2021C698.504 47.2021 698.109 47.2614 697.74 47.3799C697.371 47.4984 697.007 47.6465 696.646 47.8242L696.079 46.6211C696.494 46.3932 696.943 46.2109 697.426 46.0742C697.913 45.9329 698.449 45.8623 699.032 45.8623C699.962 45.8623 700.68 46.0879 701.186 46.5391C701.696 46.9902 701.951 47.585 701.951 48.3232C701.951 48.7288 701.887 49.0775 701.76 49.3691C701.632 49.6562 701.443 49.9229 701.192 50.1689C700.946 50.4105 700.648 50.6657 700.297 50.9346C700.01 51.1624 699.789 51.3607 699.634 51.5293C699.483 51.6934 699.379 51.8597 699.319 52.0283C699.265 52.1969 699.237 52.3997 699.237 52.6367V52.9512H697.877ZM697.617 55.1523C697.617 54.7786 697.713 54.5166 697.904 54.3662C698.1 54.2113 698.34 54.1338 698.622 54.1338C698.896 54.1338 699.13 54.2113 699.326 54.3662C699.522 54.5166 699.62 54.7786 699.62 55.1523C699.62 55.5169 699.522 55.7812 699.326 55.9453C699.13 56.1048 698.896 56.1846 698.622 56.1846C698.34 56.1846 698.1 56.1048 697.904 55.9453C697.713 55.7812 697.617 55.5169 697.617 55.1523ZM702.881 52.165C702.881 51.3994 702.954 50.652 703.1 49.9229C703.25 49.1937 703.478 48.4987 703.783 47.8379C704.089 47.1771 704.474 46.5664 704.938 46.0059H706.34C705.688 46.8763 705.196 47.8402 704.863 48.8975C704.535 49.9548 704.371 51.0394 704.371 52.1514C704.371 52.876 704.444 53.5938 704.59 54.3047C704.736 55.0156 704.954 55.6992 705.246 56.3555C705.538 57.0163 705.898 57.6361 706.326 58.2148H704.938C704.474 57.668 704.089 57.071 703.783 56.4238C703.478 55.7767 703.25 55.0931 703.1 54.373C702.954 53.653 702.881 52.917 702.881 52.165ZM710.64 52.1582C710.64 52.9147 710.567 53.653 710.421 54.373C710.275 55.0931 710.049 55.7767 709.744 56.4238C709.443 57.071 709.056 57.668 708.582 58.2148H707.201C707.63 57.6361 707.99 57.0163 708.281 56.3555C708.573 55.6947 708.792 55.0088 708.938 54.2979C709.083 53.5869 709.156 52.8691 709.156 52.1445C709.156 51.4062 709.081 50.6771 708.931 49.957C708.785 49.237 708.566 48.5443 708.274 47.8789C707.983 47.209 707.62 46.5846 707.188 46.0059H708.582C709.056 46.5664 709.443 47.1771 709.744 47.8379C710.049 48.4987 710.275 49.1937 710.421 49.9229C710.567 50.6475 710.64 51.3926 710.64 52.1582Z" fill="#161616"/>
<path d="M32.9414 134H31.7793V129.29H26.5293V134H25.3672V124.006H26.5293V128.265H31.7793V124.006H32.9414V134ZM41.5615 134H35.0127V133.05L37.6855 130.336C38.1823 129.835 38.5993 129.388 38.9365 128.996C39.2783 128.604 39.5381 128.219 39.7158 127.841C39.8936 127.458 39.9824 127.039 39.9824 126.583C39.9824 126.018 39.8138 125.587 39.4766 125.291C39.1439 124.99 38.7041 124.84 38.1572 124.84C37.6787 124.84 37.2549 124.922 36.8857 125.086C36.5166 125.25 36.1383 125.482 35.751 125.783L35.1426 125.018C35.4069 124.794 35.694 124.596 36.0039 124.423C36.3184 124.25 36.6533 124.113 37.0088 124.013C37.3688 123.912 37.7516 123.862 38.1572 123.862C38.7725 123.862 39.3034 123.969 39.75 124.184C40.1966 124.398 40.5407 124.703 40.7822 125.1C41.0283 125.496 41.1514 125.968 41.1514 126.515C41.1514 127.043 41.0465 127.535 40.8369 127.991C40.6273 128.442 40.3333 128.891 39.9551 129.338C39.5768 129.78 39.1348 130.249 38.6289 130.746L36.4551 132.913V132.961H41.5615V134Z" fill="#61656E"/>
<path d="M141.65 139L140.394 135.432H135.48L134.224 139H132L136.781 126.098H139.119L143.892 139H141.65ZM139.849 133.621L138.627 130.105C138.58 129.953 138.513 129.739 138.425 129.464C138.337 129.183 138.249 128.898 138.161 128.611C138.073 128.318 138 128.072 137.941 127.873C137.883 128.113 137.81 128.383 137.722 128.682C137.64 128.975 137.558 129.25 137.476 129.508C137.399 129.766 137.341 129.965 137.3 130.105L136.069 133.621H139.849ZM149.191 129.086C150.422 129.086 151.351 129.358 151.978 129.903C152.61 130.448 152.927 131.298 152.927 132.452V139H151.459L151.063 137.62H150.993C150.718 137.972 150.434 138.262 150.141 138.49C149.848 138.719 149.508 138.889 149.121 139C148.74 139.117 148.274 139.176 147.724 139.176C147.144 139.176 146.625 139.07 146.168 138.859C145.711 138.643 145.351 138.314 145.087 137.875C144.823 137.436 144.691 136.879 144.691 136.205C144.691 135.203 145.063 134.45 145.808 133.946C146.558 133.442 147.688 133.164 149.2 133.111L150.888 133.05V132.54C150.888 131.866 150.729 131.386 150.413 131.099C150.103 130.812 149.663 130.668 149.095 130.668C148.608 130.668 148.137 130.738 147.68 130.879C147.223 131.02 146.777 131.192 146.344 131.397L145.676 129.938C146.15 129.687 146.689 129.481 147.293 129.323C147.902 129.165 148.535 129.086 149.191 129.086ZM150.879 134.351L149.622 134.395C148.591 134.43 147.867 134.605 147.451 134.922C147.035 135.238 146.827 135.672 146.827 136.223C146.827 136.703 146.971 137.055 147.258 137.277C147.545 137.494 147.923 137.603 148.392 137.603C149.106 137.603 149.698 137.4 150.167 136.996C150.642 136.586 150.879 135.985 150.879 135.194V134.351ZM156.029 126.15H159.853C161.511 126.15 162.762 126.391 163.605 126.871C164.449 127.352 164.871 128.181 164.871 129.358C164.871 129.851 164.783 130.296 164.607 130.694C164.438 131.087 164.188 131.412 163.86 131.67C163.532 131.922 163.128 132.092 162.647 132.18V132.268C163.146 132.355 163.588 132.511 163.975 132.733C164.367 132.956 164.675 133.275 164.897 133.691C165.126 134.107 165.24 134.646 165.24 135.309C165.24 136.094 165.053 136.762 164.678 137.312C164.309 137.863 163.778 138.282 163.087 138.569C162.401 138.856 161.587 139 160.644 139H156.029V126.15ZM158.139 131.45H160.16C161.115 131.45 161.777 131.295 162.146 130.984C162.516 130.674 162.7 130.22 162.7 129.622C162.7 129.013 162.48 128.573 162.041 128.304C161.607 128.034 160.916 127.899 159.967 127.899H158.139V131.45ZM158.139 133.155V137.233H160.362C161.347 137.233 162.038 137.043 162.437 136.662C162.835 136.281 163.034 135.766 163.034 135.115C163.034 134.717 162.943 134.371 162.762 134.078C162.586 133.785 162.296 133.56 161.892 133.401C161.487 133.237 160.942 133.155 160.257 133.155H158.139ZM169.749 125.324V128.62C169.749 129.001 169.737 129.376 169.714 129.745C169.696 130.108 169.679 130.393 169.661 130.598H169.749C170.013 130.176 170.379 129.821 170.848 129.534C171.322 129.241 171.929 129.095 172.667 129.095C173.821 129.095 174.75 129.52 175.453 130.369C176.156 131.213 176.508 132.464 176.508 134.122C176.508 135.224 176.347 136.149 176.024 136.899C175.702 137.649 175.248 138.218 174.662 138.604C174.082 138.985 173.399 139.176 172.614 139.176C171.876 139.176 171.278 139.041 170.821 138.771C170.37 138.496 170.016 138.177 169.758 137.813H169.608L169.23 139H167.684V125.324H169.749ZM172.122 130.773C171.536 130.773 171.07 130.891 170.725 131.125C170.385 131.359 170.139 131.711 169.986 132.18C169.834 132.643 169.755 133.231 169.749 133.946V134.131C169.749 135.215 169.919 136.044 170.259 136.618C170.604 137.192 171.231 137.479 172.14 137.479C172.86 137.479 173.414 137.189 173.801 136.609C174.188 136.023 174.381 135.186 174.381 134.096C174.381 132.994 174.188 132.165 173.801 131.608C173.42 131.052 172.86 130.773 172.122 130.773ZM184.585 127.759C183.97 127.759 183.419 127.87 182.933 128.093C182.452 128.315 182.045 128.638 181.711 129.06C181.377 129.476 181.122 129.982 180.946 130.58C180.771 131.172 180.683 131.84 180.683 132.584C180.683 133.58 180.823 134.438 181.104 135.159C181.386 135.874 181.813 136.425 182.388 136.812C182.962 137.192 183.688 137.383 184.567 137.383C185.112 137.383 185.643 137.33 186.158 137.225C186.674 137.119 187.207 136.976 187.758 136.794V138.587C187.236 138.792 186.709 138.941 186.176 139.035C185.643 139.129 185.027 139.176 184.33 139.176C183.018 139.176 181.928 138.903 181.061 138.358C180.199 137.813 179.555 137.046 179.127 136.056C178.705 135.065 178.494 133.905 178.494 132.575C178.494 131.603 178.629 130.712 178.898 129.903C179.168 129.095 179.561 128.397 180.076 127.812C180.592 127.22 181.228 126.766 181.983 126.449C182.745 126.127 183.615 125.966 184.594 125.966C185.238 125.966 185.871 126.039 186.492 126.186C187.119 126.326 187.699 126.528 188.232 126.792L187.494 128.532C187.049 128.321 186.583 128.14 186.097 127.987C185.61 127.835 185.106 127.759 184.585 127.759ZM194.227 139.176C193.307 139.176 192.51 138.997 191.836 138.64C191.162 138.282 190.644 137.734 190.28 136.996C189.917 136.258 189.735 135.32 189.735 134.184C189.735 133 189.935 132.033 190.333 131.283C190.731 130.533 191.282 129.979 191.985 129.622C192.694 129.265 193.506 129.086 194.42 129.086C195 129.086 195.524 129.145 195.993 129.262C196.468 129.373 196.869 129.511 197.197 129.675L196.582 131.327C196.225 131.181 195.858 131.058 195.483 130.958C195.108 130.858 194.748 130.809 194.402 130.809C193.834 130.809 193.359 130.935 192.979 131.187C192.604 131.438 192.322 131.813 192.135 132.312C191.953 132.81 191.862 133.428 191.862 134.166C191.862 134.881 191.956 135.484 192.144 135.977C192.331 136.463 192.609 136.832 192.979 137.084C193.348 137.33 193.802 137.453 194.341 137.453C194.874 137.453 195.352 137.389 195.773 137.26C196.195 137.131 196.594 136.964 196.969 136.759V138.552C196.6 138.763 196.204 138.918 195.782 139.018C195.36 139.123 194.842 139.176 194.227 139.176ZM209.897 132.452C209.897 133.899 209.628 135.109 209.089 136.082C208.55 137.049 207.768 137.778 206.742 138.271C205.717 138.757 204.48 139 203.033 139H199.465V126.15H203.42C204.75 126.15 205.898 126.391 206.865 126.871C207.832 127.346 208.579 128.052 209.106 128.989C209.634 129.921 209.897 131.075 209.897 132.452ZM207.7 132.514C207.7 131.459 207.533 130.592 207.199 129.912C206.871 129.232 206.385 128.729 205.74 128.4C205.102 128.066 204.313 127.899 203.376 127.899H201.574V137.233H203.068C204.621 137.233 205.781 136.838 206.549 136.047C207.316 135.256 207.7 134.078 207.7 132.514ZM215.725 139.176C214.564 139.176 213.633 138.754 212.93 137.91C212.232 137.061 211.884 135.81 211.884 134.157C211.884 132.487 212.238 131.225 212.947 130.369C213.662 129.514 214.603 129.086 215.769 129.086C216.261 129.086 216.691 129.153 217.061 129.288C217.43 129.417 217.746 129.593 218.01 129.815C218.279 130.038 218.508 130.287 218.695 130.562H218.792C218.763 130.381 218.728 130.12 218.687 129.78C218.651 129.435 218.634 129.115 218.634 128.822V125.324H220.708V139H219.091L218.722 137.673H218.634C218.458 137.954 218.235 138.209 217.966 138.438C217.702 138.66 217.386 138.839 217.017 138.974C216.653 139.108 216.223 139.176 215.725 139.176ZM216.305 137.497C217.189 137.497 217.813 137.242 218.177 136.732C218.54 136.223 218.728 135.458 218.739 134.438V134.166C218.739 133.076 218.563 132.241 218.212 131.661C217.86 131.075 217.219 130.782 216.287 130.782C215.543 130.782 214.975 131.084 214.582 131.688C214.195 132.285 214.002 133.12 214.002 134.192C214.002 135.265 214.195 136.085 214.582 136.653C214.975 137.216 215.549 137.497 216.305 137.497ZM231.158 139H223.881V126.15H231.158V127.926H225.99V131.415H230.833V133.182H225.99V137.216H231.158V139ZM237.601 129.086C238.468 129.086 239.212 129.265 239.833 129.622C240.454 129.979 240.932 130.486 241.266 131.143C241.6 131.799 241.767 132.584 241.767 133.498V134.605H235.271C235.295 135.549 235.547 136.275 236.027 136.785C236.514 137.295 237.193 137.55 238.066 137.55C238.688 137.55 239.244 137.491 239.736 137.374C240.234 137.251 240.747 137.072 241.274 136.838V138.517C240.788 138.745 240.293 138.912 239.789 139.018C239.285 139.123 238.682 139.176 237.979 139.176C237.023 139.176 236.183 138.991 235.456 138.622C234.735 138.247 234.17 137.69 233.76 136.952C233.355 136.214 233.153 135.297 233.153 134.201C233.153 133.111 233.338 132.186 233.707 131.424C234.076 130.662 234.595 130.082 235.263 129.684C235.931 129.285 236.71 129.086 237.601 129.086ZM237.601 130.642C236.95 130.642 236.423 130.853 236.019 131.274C235.62 131.696 235.386 132.314 235.315 133.129H239.745C239.739 132.643 239.657 132.212 239.499 131.837C239.347 131.462 239.112 131.169 238.796 130.958C238.485 130.747 238.087 130.642 237.601 130.642ZM246.398 139H244.307V126.15H251.566V127.926H246.398V131.934H251.232V133.7H246.398V139ZM258.554 130.844H256.189V139H254.124V130.844H252.533V129.851L254.124 129.244V128.567C254.124 127.741 254.253 127.085 254.511 126.599C254.774 126.112 255.149 125.764 255.636 125.553C256.128 125.336 256.714 125.228 257.394 125.228C257.839 125.228 258.246 125.266 258.615 125.342C258.984 125.412 259.295 125.494 259.547 125.588L259.011 127.152C258.812 127.088 258.589 127.029 258.343 126.977C258.097 126.918 257.833 126.889 257.552 126.889C257.083 126.889 256.737 127.035 256.515 127.328C256.298 127.621 256.189 128.049 256.189 128.611V129.271H258.554V130.844ZM265.611 132.021H270.41V138.473C269.736 138.695 269.039 138.868 268.318 138.991C267.598 139.114 266.789 139.176 265.893 139.176C264.586 139.176 263.479 138.918 262.57 138.402C261.668 137.881 260.982 137.128 260.514 136.144C260.045 135.153 259.811 133.961 259.811 132.566C259.811 131.225 260.071 130.062 260.593 129.077C261.114 128.087 261.873 127.322 262.869 126.783C263.865 126.238 265.072 125.966 266.49 125.966C267.188 125.966 267.861 126.036 268.512 126.177C269.168 126.312 269.769 126.499 270.313 126.739L269.575 128.479C269.142 128.274 268.655 128.102 268.116 127.961C267.577 127.82 267.018 127.75 266.438 127.75C265.518 127.75 264.724 127.949 264.056 128.348C263.394 128.746 262.884 129.309 262.526 130.035C262.169 130.756 261.99 131.608 261.99 132.593C261.99 133.548 262.134 134.386 262.421 135.106C262.708 135.827 263.156 136.39 263.766 136.794C264.381 137.192 265.175 137.392 266.147 137.392C266.634 137.392 267.047 137.365 267.387 137.312C267.727 137.26 268.04 137.201 268.327 137.137V133.823H265.611V132.021ZM276.053 143.324C274.734 143.324 273.724 143.087 273.021 142.612C272.317 142.138 271.966 141.473 271.966 140.617C271.966 140.02 272.153 139.513 272.528 139.097C272.903 138.687 273.439 138.402 274.137 138.244C273.873 138.127 273.645 137.945 273.451 137.699C273.264 137.447 273.17 137.169 273.17 136.864C273.17 136.501 273.272 136.19 273.478 135.933C273.683 135.675 273.99 135.426 274.4 135.186C273.891 134.969 273.48 134.617 273.17 134.131C272.865 133.639 272.713 133.062 272.713 132.399C272.713 131.696 272.862 131.099 273.161 130.606C273.46 130.108 273.896 129.73 274.471 129.473C275.045 129.209 275.739 129.077 276.554 129.077C276.729 129.077 276.92 129.089 277.125 129.112C277.336 129.13 277.529 129.153 277.705 129.183C277.887 129.206 278.024 129.232 278.118 129.262H281.484V130.413L279.832 130.721C279.99 130.943 280.116 131.198 280.21 131.485C280.304 131.767 280.351 132.074 280.351 132.408C280.351 133.416 280.002 134.21 279.305 134.79C278.613 135.364 277.658 135.651 276.439 135.651C276.146 135.64 275.862 135.616 275.587 135.581C275.376 135.71 275.215 135.854 275.104 136.012C274.992 136.164 274.937 136.337 274.937 136.53C274.937 136.688 274.992 136.817 275.104 136.917C275.215 137.011 275.379 137.081 275.596 137.128C275.818 137.175 276.088 137.198 276.404 137.198H278.083C279.149 137.198 279.964 137.424 280.526 137.875C281.089 138.326 281.37 138.988 281.37 139.861C281.37 140.969 280.913 141.821 279.999 142.419C279.085 143.022 277.77 143.324 276.053 143.324ZM276.132 141.874C276.853 141.874 277.459 141.804 277.951 141.663C278.443 141.522 278.815 141.32 279.067 141.057C279.319 140.799 279.445 140.491 279.445 140.134C279.445 139.817 279.366 139.574 279.208 139.404C279.05 139.234 278.812 139.117 278.496 139.053C278.18 138.988 277.787 138.956 277.318 138.956H275.789C275.408 138.956 275.071 139.015 274.778 139.132C274.485 139.255 274.257 139.431 274.093 139.659C273.935 139.888 273.855 140.163 273.855 140.485C273.855 140.931 274.052 141.273 274.444 141.514C274.843 141.754 275.405 141.874 276.132 141.874ZM276.536 134.298C277.14 134.298 277.588 134.134 277.881 133.806C278.174 133.472 278.32 133.003 278.32 132.399C278.32 131.743 278.168 131.251 277.863 130.923C277.564 130.595 277.119 130.431 276.527 130.431C275.947 130.431 275.505 130.598 275.2 130.932C274.901 131.266 274.752 131.761 274.752 132.417C274.752 133.009 274.901 133.472 275.2 133.806C275.505 134.134 275.95 134.298 276.536 134.298ZM138.882 163H136.808V154.729C136.808 154.454 136.811 154.179 136.816 153.903C136.822 153.628 136.828 153.358 136.834 153.095C136.846 152.831 136.86 152.579 136.878 152.339C136.755 152.474 136.603 152.62 136.421 152.778C136.245 152.937 136.058 153.101 135.858 153.271L134.382 154.448L133.345 153.139L137.159 150.15H138.882V163ZM151.811 163H143.109V161.444L146.44 158.069C147.085 157.413 147.615 156.848 148.031 156.373C148.447 155.893 148.755 155.438 148.954 155.011C149.159 154.583 149.262 154.117 149.262 153.613C149.262 152.992 149.083 152.523 148.726 152.207C148.368 151.885 147.896 151.724 147.311 151.724C146.754 151.724 146.238 151.835 145.764 152.058C145.295 152.274 144.809 152.585 144.305 152.989L143.171 151.627C143.528 151.322 143.909 151.044 144.313 150.792C144.724 150.54 145.181 150.341 145.685 150.194C146.188 150.042 146.763 149.966 147.407 149.966C148.222 149.966 148.925 150.112 149.517 150.405C150.108 150.692 150.562 151.094 150.879 151.609C151.201 152.125 151.362 152.726 151.362 153.411C151.362 154.103 151.225 154.741 150.949 155.327C150.674 155.913 150.281 156.493 149.771 157.067C149.262 157.636 148.655 158.254 147.952 158.922L145.729 161.093V161.189H151.811V163ZM161.619 153.086C161.619 153.666 161.502 154.17 161.268 154.598C161.033 155.025 160.711 155.377 160.301 155.652C159.896 155.922 159.428 156.115 158.895 156.232V156.294C159.92 156.423 160.693 156.745 161.215 157.261C161.742 157.776 162.006 158.459 162.006 159.309C162.006 160.053 161.827 160.718 161.47 161.304C161.112 161.884 160.564 162.341 159.826 162.675C159.088 163.009 158.139 163.176 156.979 163.176C156.281 163.176 155.634 163.12 155.036 163.009C154.444 162.897 153.882 162.719 153.349 162.473V160.636C153.894 160.905 154.474 161.113 155.089 161.26C155.704 161.406 156.287 161.479 156.838 161.479C157.91 161.479 158.675 161.28 159.132 160.882C159.589 160.478 159.817 159.921 159.817 159.212C159.817 158.755 159.697 158.38 159.457 158.087C159.223 157.794 158.856 157.574 158.358 157.428C157.866 157.281 157.23 157.208 156.451 157.208H155.317V155.547H156.46C157.204 155.547 157.802 155.459 158.253 155.283C158.704 155.102 159.029 154.853 159.229 154.536C159.434 154.22 159.536 153.851 159.536 153.429C159.536 152.878 159.357 152.45 159 152.146C158.643 151.835 158.112 151.68 157.409 151.68C156.976 151.68 156.58 151.729 156.223 151.829C155.871 151.929 155.546 152.055 155.247 152.207C154.948 152.359 154.664 152.523 154.395 152.699L153.401 151.267C153.888 150.903 154.468 150.596 155.142 150.344C155.815 150.092 156.601 149.966 157.497 149.966C158.815 149.966 159.832 150.25 160.547 150.818C161.262 151.381 161.619 152.137 161.619 153.086ZM172.878 160.179H171.138V163H169.099V160.179H163.254V158.614L169.125 150.115H171.138V158.465H172.878V160.179ZM169.099 158.465V155.274C169.099 155.011 169.102 154.744 169.107 154.475C169.119 154.199 169.131 153.936 169.143 153.684C169.154 153.432 169.166 153.2 169.178 152.989C169.189 152.772 169.198 152.594 169.204 152.453H169.134C169.022 152.688 168.899 152.928 168.765 153.174C168.63 153.414 168.486 153.648 168.334 153.877L165.17 158.465H169.099ZM178.38 154.967C179.206 154.967 179.933 155.116 180.56 155.415C181.192 155.708 181.685 156.142 182.036 156.716C182.388 157.284 182.563 157.981 182.563 158.808C182.563 159.71 182.373 160.489 181.992 161.146C181.611 161.796 181.052 162.297 180.313 162.648C179.575 163 178.676 163.176 177.615 163.176C176.941 163.176 176.312 163.117 175.726 163C175.146 162.883 174.645 162.707 174.223 162.473V160.609C174.662 160.855 175.189 161.058 175.805 161.216C176.42 161.368 177.009 161.444 177.571 161.444C178.169 161.444 178.682 161.356 179.109 161.181C179.537 161.005 179.865 160.735 180.094 160.372C180.328 160.009 180.445 159.549 180.445 158.992C180.445 158.254 180.208 157.686 179.733 157.287C179.265 156.883 178.529 156.681 177.527 156.681C177.176 156.681 176.801 156.713 176.402 156.777C176.01 156.836 175.682 156.9 175.418 156.971L174.513 156.435L174.996 150.15H181.676V151.97H176.815L176.534 155.169C176.745 155.122 176.997 155.078 177.29 155.037C177.583 154.99 177.946 154.967 178.38 154.967ZM184.33 157.524C184.33 156.769 184.383 156.024 184.488 155.292C184.6 154.56 184.787 153.874 185.051 153.235C185.314 152.597 185.678 152.034 186.141 151.548C186.609 151.062 187.198 150.681 187.907 150.405C188.616 150.124 189.469 149.983 190.465 149.983C190.723 149.983 191.013 149.995 191.335 150.019C191.657 150.042 191.924 150.08 192.135 150.133V151.847C191.906 151.782 191.654 151.732 191.379 151.697C191.109 151.662 190.84 151.645 190.57 151.645C189.492 151.645 188.651 151.85 188.048 152.26C187.444 152.664 187.014 153.221 186.756 153.93C186.498 154.633 186.349 155.438 186.308 156.347H186.413C186.589 156.054 186.809 155.793 187.072 155.564C187.336 155.336 187.658 155.154 188.039 155.02C188.42 154.879 188.862 154.809 189.366 154.809C190.116 154.809 190.77 154.967 191.326 155.283C191.883 155.594 192.311 156.045 192.609 156.637C192.914 157.229 193.066 157.946 193.066 158.79C193.066 159.698 192.894 160.48 192.548 161.137C192.208 161.793 191.722 162.297 191.089 162.648C190.462 163 189.715 163.176 188.848 163.176C188.209 163.176 187.614 163.059 187.063 162.824C186.519 162.59 186.041 162.238 185.631 161.77C185.221 161.301 184.901 160.715 184.673 160.012C184.444 159.303 184.33 158.474 184.33 157.524ZM188.812 161.471C189.48 161.471 190.017 161.254 190.421 160.82C190.831 160.381 191.036 159.71 191.036 158.808C191.036 158.075 190.854 157.495 190.491 157.067C190.134 156.64 189.595 156.426 188.874 156.426C188.382 156.426 187.951 156.531 187.582 156.742C187.213 156.953 186.926 157.22 186.721 157.542C186.521 157.864 186.422 158.192 186.422 158.526C186.422 158.866 186.472 159.209 186.571 159.555C186.671 159.9 186.82 160.22 187.02 160.513C187.219 160.8 187.468 161.031 187.767 161.207C188.065 161.383 188.414 161.471 188.812 161.471ZM196.081 163L201.126 151.961H194.455V150.15H203.35V151.565L198.305 163H196.081ZM209.247 149.975C209.991 149.975 210.662 150.092 211.26 150.326C211.857 150.555 212.332 150.897 212.684 151.354C213.035 151.812 213.211 152.377 213.211 153.051C213.211 153.572 213.103 154.026 212.886 154.413C212.675 154.8 212.388 155.14 212.024 155.433C211.661 155.72 211.254 155.975 210.803 156.197C211.307 156.443 211.77 156.728 212.191 157.05C212.619 157.366 212.962 157.738 213.22 158.166C213.483 158.594 213.615 159.095 213.615 159.669C213.615 160.39 213.431 161.014 213.062 161.541C212.698 162.062 212.191 162.467 211.541 162.754C210.891 163.035 210.132 163.176 209.265 163.176C208.333 163.176 207.539 163.038 206.883 162.763C206.227 162.487 205.729 162.095 205.389 161.585C205.049 161.069 204.879 160.454 204.879 159.739C204.879 159.147 204.996 158.635 205.23 158.201C205.465 157.768 205.778 157.393 206.171 157.076C206.569 156.76 207.006 156.493 207.48 156.276C207.076 156.036 206.707 155.767 206.373 155.468C206.039 155.163 205.772 154.814 205.573 154.422C205.38 154.023 205.283 153.563 205.283 153.042C205.283 152.374 205.462 151.814 205.819 151.363C206.177 150.906 206.654 150.561 207.252 150.326C207.855 150.092 208.521 149.975 209.247 149.975ZM206.848 159.66C206.848 160.223 207.047 160.686 207.445 161.049C207.844 161.412 208.438 161.594 209.229 161.594C210.015 161.594 210.612 161.415 211.022 161.058C211.433 160.7 211.638 160.229 211.638 159.643C211.638 159.268 211.532 158.937 211.321 158.649C211.116 158.362 210.838 158.107 210.486 157.885C210.141 157.656 209.757 157.445 209.335 157.252L209.054 157.138C208.597 157.331 208.204 157.551 207.876 157.797C207.548 158.037 207.293 158.31 207.111 158.614C206.936 158.919 206.848 159.268 206.848 159.66ZM209.229 151.565C208.661 151.565 208.192 151.706 207.823 151.987C207.46 152.263 207.278 152.661 207.278 153.183C207.278 153.552 207.366 153.868 207.542 154.132C207.724 154.396 207.967 154.624 208.271 154.817C208.576 155.005 208.913 155.181 209.282 155.345C209.64 155.187 209.962 155.014 210.249 154.826C210.542 154.633 210.773 154.404 210.943 154.141C211.119 153.871 211.207 153.549 211.207 153.174C211.207 152.658 211.022 152.263 210.653 151.987C210.29 151.706 209.815 151.565 209.229 151.565ZM217.667 159.08H216.111L215.689 150.15H218.089L217.667 159.08ZM215.584 161.91C215.584 161.43 215.707 161.093 215.953 160.899C216.205 160.7 216.513 160.601 216.876 160.601C217.233 160.601 217.538 160.7 217.79 160.899C218.042 161.093 218.168 161.43 218.168 161.91C218.168 162.379 218.042 162.719 217.79 162.93C217.538 163.135 217.233 163.237 216.876 163.237C216.513 163.237 216.205 163.135 215.953 162.93C215.707 162.719 215.584 162.379 215.584 161.91ZM221.842 159.08V158.526C221.842 158.093 221.892 157.715 221.991 157.393C222.091 157.07 222.258 156.769 222.492 156.487C222.727 156.2 223.043 155.901 223.441 155.591C223.852 155.269 224.177 154.99 224.417 154.756C224.663 154.521 224.839 154.287 224.944 154.053C225.056 153.812 225.111 153.534 225.111 153.218C225.111 152.72 224.941 152.342 224.602 152.084C224.268 151.82 223.796 151.688 223.187 151.688C222.647 151.688 222.141 151.765 221.666 151.917C221.191 152.069 220.723 152.26 220.26 152.488L219.53 150.941C220.063 150.648 220.641 150.414 221.262 150.238C221.889 150.057 222.577 149.966 223.327 149.966C224.522 149.966 225.445 150.256 226.096 150.836C226.752 151.416 227.08 152.181 227.08 153.13C227.08 153.651 226.998 154.1 226.834 154.475C226.67 154.844 226.427 155.187 226.104 155.503C225.788 155.813 225.404 156.142 224.953 156.487C224.584 156.78 224.3 157.035 224.101 157.252C223.907 157.463 223.772 157.677 223.696 157.894C223.626 158.11 223.591 158.371 223.591 158.676V159.08H221.842ZM221.508 161.91C221.508 161.43 221.631 161.093 221.877 160.899C222.129 160.7 222.437 160.601 222.8 160.601C223.151 160.601 223.453 160.7 223.705 160.899C223.957 161.093 224.083 161.43 224.083 161.91C224.083 162.379 223.957 162.719 223.705 162.93C223.453 163.135 223.151 163.237 222.8 163.237C222.437 163.237 222.129 163.135 221.877 162.93C221.631 162.719 221.508 162.379 221.508 161.91ZM228.275 158.069C228.275 157.085 228.369 156.124 228.557 155.187C228.75 154.249 229.043 153.355 229.436 152.506C229.828 151.656 230.323 150.871 230.921 150.15H232.723C231.885 151.27 231.252 152.509 230.824 153.868C230.402 155.228 230.191 156.622 230.191 158.052C230.191 158.983 230.285 159.906 230.473 160.82C230.66 161.734 230.941 162.613 231.316 163.457C231.691 164.307 232.154 165.104 232.705 165.848H230.921C230.323 165.145 229.828 164.377 229.436 163.545C229.043 162.713 228.75 161.834 228.557 160.908C228.369 159.982 228.275 159.036 228.275 158.069ZM238.251 158.061C238.251 159.033 238.157 159.982 237.97 160.908C237.782 161.834 237.492 162.713 237.1 163.545C236.713 164.377 236.215 165.145 235.605 165.848H233.83C234.381 165.104 234.844 164.307 235.219 163.457C235.594 162.607 235.875 161.726 236.062 160.812C236.25 159.897 236.344 158.975 236.344 158.043C236.344 157.094 236.247 156.156 236.054 155.23C235.866 154.305 235.585 153.414 235.21 152.559C234.835 151.697 234.369 150.895 233.812 150.15H235.605C236.215 150.871 236.713 151.656 237.1 152.506C237.492 153.355 237.782 154.249 237.97 155.187C238.157 156.118 238.251 157.076 238.251 158.061Z" fill="#161616"/>
<path d="M528.941 134H527.779V129.29H522.529V134H521.367V124.006H522.529V128.265H527.779V124.006H528.941V134ZM538.061 131.683H536.563V134H535.456V131.683H530.623V130.726L535.381 123.951H536.563V130.657H538.061V131.683ZM535.456 130.657V127.39C535.456 127.139 535.458 126.913 535.463 126.713C535.467 126.508 535.474 126.319 535.483 126.146C535.493 125.968 535.499 125.799 535.504 125.64C535.513 125.48 535.52 125.323 535.524 125.168H535.47C535.383 125.35 535.283 125.544 535.169 125.749C535.06 125.95 534.948 126.13 534.834 126.289L531.751 130.657H535.456Z" fill="#61656E"/>
<path d="M634.434 133L633.596 130.621H630.32L629.482 133H628L631.188 124.398H632.746L635.928 133H634.434ZM633.232 129.414L632.418 127.07C632.387 126.969 632.342 126.826 632.283 126.643C632.225 126.455 632.166 126.266 632.107 126.074C632.049 125.879 632 125.715 631.961 125.582C631.922 125.742 631.873 125.922 631.814 126.121C631.76 126.316 631.705 126.5 631.65 126.672C631.6 126.844 631.561 126.977 631.533 127.07L630.713 129.414H633.232ZM639.461 126.391C640.281 126.391 640.9 126.572 641.318 126.936C641.74 127.299 641.951 127.865 641.951 128.635V133H640.973L640.709 132.08H640.662C640.479 132.314 640.289 132.508 640.094 132.66C639.898 132.812 639.672 132.926 639.414 133C639.16 133.078 638.85 133.117 638.482 133.117C638.096 133.117 637.75 133.047 637.445 132.906C637.141 132.762 636.9 132.543 636.725 132.25C636.549 131.957 636.461 131.586 636.461 131.137C636.461 130.469 636.709 129.967 637.205 129.631C637.705 129.295 638.459 129.109 639.467 129.074L640.592 129.033V128.693C640.592 128.244 640.486 127.924 640.275 127.732C640.068 127.541 639.775 127.445 639.396 127.445C639.072 127.445 638.758 127.492 638.453 127.586C638.148 127.68 637.852 127.795 637.562 127.932L637.117 126.959C637.434 126.791 637.793 126.654 638.195 126.549C638.602 126.443 639.023 126.391 639.461 126.391ZM640.586 129.9L639.748 129.93C639.061 129.953 638.578 130.07 638.301 130.281C638.023 130.492 637.885 130.781 637.885 131.148C637.885 131.469 637.98 131.703 638.172 131.852C638.363 131.996 638.615 132.068 638.928 132.068C639.404 132.068 639.799 131.934 640.111 131.664C640.428 131.391 640.586 130.99 640.586 130.463V129.9ZM644.02 124.434H646.568C647.674 124.434 648.508 124.594 649.07 124.914C649.633 125.234 649.914 125.787 649.914 126.572C649.914 126.9 649.855 127.197 649.738 127.463C649.625 127.725 649.459 127.941 649.24 128.113C649.021 128.281 648.752 128.395 648.432 128.453V128.512C648.764 128.57 649.059 128.674 649.316 128.822C649.578 128.971 649.783 129.184 649.932 129.461C650.084 129.738 650.16 130.098 650.16 130.539C650.16 131.062 650.035 131.508 649.785 131.875C649.539 132.242 649.186 132.521 648.725 132.713C648.268 132.904 647.725 133 647.096 133H644.02V124.434ZM645.426 127.967H646.773C647.41 127.967 647.852 127.863 648.098 127.656C648.344 127.449 648.467 127.146 648.467 126.748C648.467 126.342 648.32 126.049 648.027 125.869C647.738 125.689 647.277 125.6 646.645 125.6H645.426V127.967ZM645.426 129.104V131.822H646.908C647.564 131.822 648.025 131.695 648.291 131.441C648.557 131.188 648.689 130.844 648.689 130.41C648.689 130.145 648.629 129.914 648.508 129.719C648.391 129.523 648.197 129.373 647.928 129.268C647.658 129.158 647.295 129.104 646.838 129.104H645.426ZM653.166 123.883V126.08C653.166 126.334 653.158 126.584 653.143 126.83C653.131 127.072 653.119 127.262 653.107 127.398H653.166C653.342 127.117 653.586 126.881 653.898 126.689C654.215 126.494 654.619 126.396 655.111 126.396C655.881 126.396 656.5 126.68 656.969 127.246C657.438 127.809 657.672 128.643 657.672 129.748C657.672 130.482 657.564 131.1 657.35 131.6C657.135 132.1 656.832 132.479 656.441 132.736C656.055 132.99 655.6 133.117 655.076 133.117C654.584 133.117 654.186 133.027 653.881 132.848C653.58 132.664 653.344 132.451 653.172 132.209H653.072L652.82 133H651.789V123.883H653.166ZM654.748 127.516C654.357 127.516 654.047 127.594 653.816 127.75C653.59 127.906 653.426 128.141 653.324 128.453C653.223 128.762 653.17 129.154 653.166 129.631V129.754C653.166 130.477 653.279 131.029 653.506 131.412C653.736 131.795 654.154 131.986 654.76 131.986C655.24 131.986 655.609 131.793 655.867 131.406C656.125 131.016 656.254 130.457 656.254 129.73C656.254 128.996 656.125 128.443 655.867 128.072C655.613 127.701 655.24 127.516 654.748 127.516ZM663.057 125.506C662.646 125.506 662.279 125.58 661.955 125.729C661.635 125.877 661.363 126.092 661.141 126.373C660.918 126.65 660.748 126.988 660.631 127.387C660.514 127.781 660.455 128.227 660.455 128.723C660.455 129.387 660.549 129.959 660.736 130.439C660.924 130.916 661.209 131.283 661.592 131.541C661.975 131.795 662.459 131.922 663.045 131.922C663.408 131.922 663.762 131.887 664.105 131.816C664.449 131.746 664.805 131.65 665.172 131.529V132.725C664.824 132.861 664.473 132.961 664.117 133.023C663.762 133.086 663.352 133.117 662.887 133.117C662.012 133.117 661.285 132.936 660.707 132.572C660.133 132.209 659.703 131.697 659.418 131.037C659.137 130.377 658.996 129.604 658.996 128.717C658.996 128.068 659.086 127.475 659.266 126.936C659.445 126.396 659.707 125.932 660.051 125.541C660.395 125.146 660.818 124.844 661.322 124.633C661.83 124.418 662.41 124.311 663.062 124.311C663.492 124.311 663.914 124.359 664.328 124.457C664.746 124.551 665.133 124.686 665.488 124.861L664.996 126.021C664.699 125.881 664.389 125.76 664.064 125.658C663.74 125.557 663.404 125.506 663.057 125.506ZM669.484 133.117C668.871 133.117 668.34 132.998 667.891 132.76C667.441 132.521 667.096 132.156 666.854 131.664C666.611 131.172 666.49 130.547 666.49 129.789C666.49 129 666.623 128.355 666.889 127.855C667.154 127.355 667.521 126.986 667.99 126.748C668.463 126.51 669.004 126.391 669.613 126.391C670 126.391 670.35 126.43 670.662 126.508C670.979 126.582 671.246 126.674 671.465 126.783L671.055 127.885C670.816 127.787 670.572 127.705 670.322 127.639C670.072 127.572 669.832 127.539 669.602 127.539C669.223 127.539 668.906 127.623 668.652 127.791C668.402 127.959 668.215 128.209 668.09 128.541C667.969 128.873 667.908 129.285 667.908 129.777C667.908 130.254 667.971 130.656 668.096 130.984C668.221 131.309 668.406 131.555 668.652 131.723C668.898 131.887 669.201 131.969 669.561 131.969C669.916 131.969 670.234 131.926 670.516 131.84C670.797 131.754 671.062 131.643 671.312 131.506V132.701C671.066 132.842 670.803 132.945 670.521 133.012C670.24 133.082 669.895 133.117 669.484 133.117ZM679.932 128.635C679.932 129.6 679.752 130.406 679.393 131.055C679.033 131.699 678.512 132.186 677.828 132.514C677.145 132.838 676.32 133 675.355 133H672.977V124.434H675.613C676.5 124.434 677.266 124.594 677.91 124.914C678.555 125.23 679.053 125.701 679.404 126.326C679.756 126.947 679.932 127.717 679.932 128.635ZM678.467 128.676C678.467 127.973 678.355 127.395 678.133 126.941C677.914 126.488 677.59 126.152 677.16 125.934C676.734 125.711 676.209 125.6 675.584 125.6H674.383V131.822H675.379C676.414 131.822 677.188 131.559 677.699 131.031C678.211 130.504 678.467 129.719 678.467 128.676ZM683.816 133.117C683.043 133.117 682.422 132.836 681.953 132.273C681.488 131.707 681.256 130.873 681.256 129.771C681.256 128.658 681.492 127.816 681.965 127.246C682.441 126.676 683.068 126.391 683.846 126.391C684.174 126.391 684.461 126.436 684.707 126.525C684.953 126.611 685.164 126.729 685.34 126.877C685.52 127.025 685.672 127.191 685.797 127.375H685.861C685.842 127.254 685.818 127.08 685.791 126.854C685.768 126.623 685.756 126.41 685.756 126.215V123.883H687.139V133H686.061L685.814 132.115H685.756C685.639 132.303 685.49 132.473 685.311 132.625C685.135 132.773 684.924 132.893 684.678 132.982C684.436 133.072 684.148 133.117 683.816 133.117ZM684.203 131.998C684.793 131.998 685.209 131.828 685.451 131.488C685.693 131.148 685.818 130.639 685.826 129.959V129.777C685.826 129.051 685.709 128.494 685.475 128.107C685.24 127.717 684.812 127.521 684.191 127.521C683.695 127.521 683.316 127.723 683.055 128.125C682.797 128.523 682.668 129.08 682.668 129.795C682.668 130.51 682.797 131.057 683.055 131.436C683.316 131.811 683.699 131.998 684.203 131.998ZM694.105 133H689.254V124.434H694.105V125.617H690.66V127.943H693.889V129.121H690.66V131.811H694.105V133ZM698.4 126.391C698.979 126.391 699.475 126.51 699.889 126.748C700.303 126.986 700.621 127.324 700.844 127.762C701.066 128.199 701.178 128.723 701.178 129.332V130.07H696.848C696.863 130.699 697.031 131.184 697.352 131.523C697.676 131.863 698.129 132.033 698.711 132.033C699.125 132.033 699.496 131.994 699.824 131.916C700.156 131.834 700.498 131.715 700.85 131.559V132.678C700.525 132.83 700.195 132.941 699.859 133.012C699.523 133.082 699.121 133.117 698.652 133.117C698.016 133.117 697.455 132.994 696.971 132.748C696.49 132.498 696.113 132.127 695.84 131.635C695.57 131.143 695.436 130.531 695.436 129.801C695.436 129.074 695.559 128.457 695.805 127.949C696.051 127.441 696.396 127.055 696.842 126.789C697.287 126.523 697.807 126.391 698.4 126.391ZM698.4 127.428C697.967 127.428 697.615 127.568 697.346 127.85C697.08 128.131 696.924 128.543 696.877 129.086H699.83C699.826 128.762 699.771 128.475 699.666 128.225C699.564 127.975 699.408 127.779 699.197 127.639C698.99 127.498 698.725 127.428 698.4 127.428ZM704.266 133H702.871V124.434H707.711V125.617H704.266V128.289H707.488V129.467H704.266V133ZM712.369 127.562H710.793V133H709.416V127.562H708.355V126.9L709.416 126.496V126.045C709.416 125.494 709.502 125.057 709.674 124.732C709.85 124.408 710.1 124.176 710.424 124.035C710.752 123.891 711.143 123.818 711.596 123.818C711.893 123.818 712.164 123.844 712.41 123.895C712.656 123.941 712.863 123.996 713.031 124.059L712.674 125.102C712.541 125.059 712.393 125.02 712.229 124.984C712.064 124.945 711.889 124.926 711.701 124.926C711.389 124.926 711.158 125.023 711.01 125.219C710.865 125.414 710.793 125.699 710.793 126.074V126.514H712.369V127.562ZM717.074 128.348H720.273V132.648C719.824 132.797 719.359 132.912 718.879 132.994C718.398 133.076 717.859 133.117 717.262 133.117C716.391 133.117 715.652 132.945 715.047 132.602C714.445 132.254 713.988 131.752 713.676 131.096C713.363 130.436 713.207 129.641 713.207 128.711C713.207 127.816 713.381 127.041 713.729 126.385C714.076 125.725 714.582 125.215 715.246 124.855C715.91 124.492 716.715 124.311 717.66 124.311C718.125 124.311 718.574 124.357 719.008 124.451C719.445 124.541 719.846 124.666 720.209 124.826L719.717 125.986C719.428 125.85 719.104 125.734 718.744 125.641C718.385 125.547 718.012 125.5 717.625 125.5C717.012 125.5 716.482 125.633 716.037 125.898C715.596 126.164 715.256 126.539 715.018 127.023C714.779 127.504 714.66 128.072 714.66 128.729C714.66 129.365 714.756 129.924 714.947 130.404C715.139 130.885 715.438 131.26 715.844 131.529C716.254 131.795 716.783 131.928 717.432 131.928C717.756 131.928 718.031 131.91 718.258 131.875C718.484 131.84 718.693 131.801 718.885 131.758V129.549H717.074V128.348ZM724.035 135.883C723.156 135.883 722.482 135.725 722.014 135.408C721.545 135.092 721.311 134.648 721.311 134.078C721.311 133.68 721.436 133.342 721.686 133.064C721.936 132.791 722.293 132.602 722.758 132.496C722.582 132.418 722.43 132.297 722.301 132.133C722.176 131.965 722.113 131.779 722.113 131.576C722.113 131.334 722.182 131.127 722.318 130.955C722.455 130.783 722.66 130.617 722.934 130.457C722.594 130.312 722.32 130.078 722.113 129.754C721.91 129.426 721.809 129.041 721.809 128.6C721.809 128.131 721.908 127.732 722.107 127.404C722.307 127.072 722.598 126.82 722.98 126.648C723.363 126.473 723.826 126.385 724.369 126.385C724.486 126.385 724.613 126.393 724.75 126.408C724.891 126.42 725.02 126.436 725.137 126.455C725.258 126.471 725.35 126.488 725.412 126.508H727.656V127.275L726.555 127.48C726.66 127.629 726.744 127.799 726.807 127.99C726.869 128.178 726.9 128.383 726.9 128.605C726.9 129.277 726.668 129.807 726.203 130.193C725.742 130.576 725.105 130.768 724.293 130.768C724.098 130.76 723.908 130.744 723.725 130.721C723.584 130.807 723.477 130.902 723.402 131.008C723.328 131.109 723.291 131.225 723.291 131.354C723.291 131.459 723.328 131.545 723.402 131.611C723.477 131.674 723.586 131.721 723.73 131.752C723.879 131.783 724.059 131.799 724.27 131.799H725.389C726.1 131.799 726.643 131.949 727.018 132.25C727.393 132.551 727.58 132.992 727.58 133.574C727.58 134.312 727.275 134.881 726.666 135.279C726.057 135.682 725.18 135.883 724.035 135.883ZM724.088 134.916C724.568 134.916 724.973 134.869 725.301 134.775C725.629 134.682 725.877 134.547 726.045 134.371C726.213 134.199 726.297 133.994 726.297 133.756C726.297 133.545 726.244 133.383 726.139 133.27C726.033 133.156 725.875 133.078 725.664 133.035C725.453 132.992 725.191 132.971 724.879 132.971H723.859C723.605 132.971 723.381 133.01 723.186 133.088C722.99 133.17 722.838 133.287 722.729 133.439C722.623 133.592 722.57 133.775 722.57 133.99C722.57 134.287 722.701 134.516 722.963 134.676C723.229 134.836 723.604 134.916 724.088 134.916ZM724.357 129.865C724.76 129.865 725.059 129.756 725.254 129.537C725.449 129.314 725.547 129.002 725.547 128.6C725.547 128.162 725.445 127.834 725.242 127.615C725.043 127.396 724.746 127.287 724.352 127.287C723.965 127.287 723.67 127.398 723.467 127.621C723.268 127.844 723.168 128.174 723.168 128.611C723.168 129.006 723.268 129.314 723.467 129.537C723.67 129.756 723.967 129.865 724.357 129.865ZM632.588 149H631.205V143.486C631.205 143.303 631.207 143.119 631.211 142.936C631.215 142.752 631.219 142.572 631.223 142.396C631.23 142.221 631.24 142.053 631.252 141.893C631.17 141.982 631.068 142.08 630.947 142.186C630.83 142.291 630.705 142.4 630.572 142.514L629.588 143.299L628.896 142.426L631.439 140.434H632.588V149ZM641.207 149H635.406V147.963L637.627 145.713C638.057 145.275 638.41 144.898 638.688 144.582C638.965 144.262 639.17 143.959 639.303 143.674C639.439 143.389 639.508 143.078 639.508 142.742C639.508 142.328 639.389 142.016 639.15 141.805C638.912 141.59 638.598 141.482 638.207 141.482C637.836 141.482 637.492 141.557 637.176 141.705C636.863 141.85 636.539 142.057 636.203 142.326L635.447 141.418C635.686 141.215 635.939 141.029 636.209 140.861C636.482 140.693 636.787 140.561 637.123 140.463C637.459 140.361 637.842 140.311 638.271 140.311C638.814 140.311 639.283 140.408 639.678 140.604C640.072 140.795 640.375 141.062 640.586 141.406C640.801 141.75 640.908 142.15 640.908 142.607C640.908 143.068 640.816 143.494 640.633 143.885C640.449 144.275 640.188 144.662 639.848 145.045C639.508 145.424 639.104 145.836 638.635 146.281L637.152 147.729V147.793H641.207V149ZM647.746 142.391C647.746 142.777 647.668 143.113 647.512 143.398C647.355 143.684 647.141 143.918 646.867 144.102C646.598 144.281 646.285 144.41 645.93 144.488V144.529C646.613 144.615 647.129 144.83 647.477 145.174C647.828 145.518 648.004 145.973 648.004 146.539C648.004 147.035 647.885 147.479 647.646 147.869C647.408 148.256 647.043 148.561 646.551 148.783C646.059 149.006 645.426 149.117 644.652 149.117C644.188 149.117 643.756 149.08 643.357 149.006C642.963 148.932 642.588 148.812 642.232 148.648V147.424C642.596 147.604 642.982 147.742 643.393 147.84C643.803 147.938 644.191 147.986 644.559 147.986C645.273 147.986 645.783 147.854 646.088 147.588C646.393 147.318 646.545 146.947 646.545 146.475C646.545 146.17 646.465 145.92 646.305 145.725C646.148 145.529 645.904 145.383 645.572 145.285C645.244 145.188 644.82 145.139 644.301 145.139H643.545V144.031H644.307C644.803 144.031 645.201 143.973 645.502 143.855C645.803 143.734 646.02 143.568 646.152 143.357C646.289 143.146 646.357 142.9 646.357 142.619C646.357 142.252 646.238 141.967 646 141.764C645.762 141.557 645.408 141.453 644.939 141.453C644.65 141.453 644.387 141.486 644.148 141.553C643.914 141.619 643.697 141.703 643.498 141.805C643.299 141.906 643.109 142.016 642.93 142.133L642.268 141.178C642.592 140.936 642.979 140.73 643.428 140.562C643.877 140.395 644.4 140.311 644.998 140.311C645.877 140.311 646.555 140.5 647.031 140.879C647.508 141.254 647.746 141.758 647.746 142.391ZM655.252 147.119H654.092V149H652.732V147.119H648.836V146.076L652.75 140.41H654.092V145.977H655.252V147.119ZM652.732 145.977V143.85C652.732 143.674 652.734 143.496 652.738 143.316C652.746 143.133 652.754 142.957 652.762 142.789C652.77 142.621 652.777 142.467 652.785 142.326C652.793 142.182 652.799 142.062 652.803 141.969H652.756C652.682 142.125 652.6 142.285 652.51 142.449C652.42 142.609 652.324 142.766 652.223 142.918L650.113 145.977H652.732ZM658.92 143.645C659.471 143.645 659.955 143.744 660.373 143.943C660.795 144.139 661.123 144.428 661.357 144.811C661.592 145.189 661.709 145.654 661.709 146.205C661.709 146.807 661.582 147.326 661.328 147.764C661.074 148.197 660.701 148.531 660.209 148.766C659.717 149 659.117 149.117 658.41 149.117C657.961 149.117 657.541 149.078 657.15 149C656.764 148.922 656.43 148.805 656.148 148.648V147.406C656.441 147.57 656.793 147.705 657.203 147.811C657.613 147.912 658.006 147.963 658.381 147.963C658.779 147.963 659.121 147.904 659.406 147.787C659.691 147.67 659.91 147.49 660.062 147.248C660.219 147.006 660.297 146.699 660.297 146.328C660.297 145.836 660.139 145.457 659.822 145.191C659.51 144.922 659.02 144.787 658.352 144.787C658.117 144.787 657.867 144.809 657.602 144.852C657.34 144.891 657.121 144.934 656.945 144.98L656.342 144.623L656.664 140.434H661.117V141.646H657.877L657.689 143.779C657.83 143.748 657.998 143.719 658.193 143.691C658.389 143.66 658.631 143.645 658.92 143.645ZM662.887 145.35C662.887 144.846 662.922 144.35 662.992 143.861C663.066 143.373 663.191 142.916 663.367 142.49C663.543 142.064 663.785 141.689 664.094 141.365C664.406 141.041 664.799 140.787 665.271 140.604C665.744 140.416 666.312 140.322 666.977 140.322C667.148 140.322 667.342 140.33 667.557 140.346C667.771 140.361 667.949 140.387 668.09 140.422V141.564C667.938 141.521 667.77 141.488 667.586 141.465C667.406 141.441 667.227 141.43 667.047 141.43C666.328 141.43 665.768 141.566 665.365 141.84C664.963 142.109 664.676 142.48 664.504 142.953C664.332 143.422 664.232 143.959 664.205 144.564H664.275C664.393 144.369 664.539 144.195 664.715 144.043C664.891 143.891 665.105 143.77 665.359 143.68C665.613 143.586 665.908 143.539 666.244 143.539C666.744 143.539 667.18 143.645 667.551 143.855C667.922 144.062 668.207 144.363 668.406 144.758C668.609 145.152 668.711 145.631 668.711 146.193C668.711 146.799 668.596 147.32 668.365 147.758C668.139 148.195 667.814 148.531 667.393 148.766C666.975 149 666.477 149.117 665.898 149.117C665.473 149.117 665.076 149.039 664.709 148.883C664.346 148.727 664.027 148.492 663.754 148.18C663.48 147.867 663.268 147.477 663.115 147.008C662.963 146.535 662.887 145.982 662.887 145.35ZM665.875 147.98C666.32 147.98 666.678 147.836 666.947 147.547C667.221 147.254 667.357 146.807 667.357 146.205C667.357 145.717 667.236 145.33 666.994 145.045C666.756 144.76 666.396 144.617 665.916 144.617C665.588 144.617 665.301 144.688 665.055 144.828C664.809 144.969 664.617 145.146 664.48 145.361C664.348 145.576 664.281 145.795 664.281 146.018C664.281 146.244 664.314 146.473 664.381 146.703C664.447 146.934 664.547 147.146 664.68 147.342C664.812 147.533 664.979 147.688 665.178 147.805C665.377 147.922 665.609 147.98 665.875 147.98ZM670.721 149L674.084 141.641H669.637V140.434H675.566V141.377L672.203 149H670.721ZM679.498 140.316C679.994 140.316 680.441 140.395 680.84 140.551C681.238 140.703 681.555 140.932 681.789 141.236C682.023 141.541 682.141 141.918 682.141 142.367C682.141 142.715 682.068 143.018 681.924 143.275C681.783 143.533 681.592 143.76 681.35 143.955C681.107 144.146 680.836 144.316 680.535 144.465C680.871 144.629 681.18 144.818 681.461 145.033C681.746 145.244 681.975 145.492 682.146 145.777C682.322 146.062 682.41 146.396 682.41 146.779C682.41 147.26 682.287 147.676 682.041 148.027C681.799 148.375 681.461 148.645 681.027 148.836C680.594 149.023 680.088 149.117 679.51 149.117C678.889 149.117 678.359 149.025 677.922 148.842C677.484 148.658 677.152 148.396 676.926 148.057C676.699 147.713 676.586 147.303 676.586 146.826C676.586 146.432 676.664 146.09 676.82 145.801C676.977 145.512 677.186 145.262 677.447 145.051C677.713 144.84 678.004 144.662 678.32 144.518C678.051 144.357 677.805 144.178 677.582 143.979C677.359 143.775 677.182 143.543 677.049 143.281C676.92 143.016 676.855 142.709 676.855 142.361C676.855 141.916 676.975 141.543 677.213 141.242C677.451 140.938 677.77 140.707 678.168 140.551C678.57 140.395 679.014 140.316 679.498 140.316ZM677.898 146.773C677.898 147.148 678.031 147.457 678.297 147.699C678.562 147.941 678.959 148.062 679.486 148.062C680.01 148.062 680.408 147.943 680.682 147.705C680.955 147.467 681.092 147.152 681.092 146.762C681.092 146.512 681.021 146.291 680.881 146.1C680.744 145.908 680.559 145.738 680.324 145.59C680.094 145.438 679.838 145.297 679.557 145.168L679.369 145.092C679.064 145.221 678.803 145.367 678.584 145.531C678.365 145.691 678.195 145.873 678.074 146.076C677.957 146.279 677.898 146.512 677.898 146.773ZM679.486 141.377C679.107 141.377 678.795 141.471 678.549 141.658C678.307 141.842 678.186 142.107 678.186 142.455C678.186 142.701 678.244 142.912 678.361 143.088C678.482 143.264 678.645 143.416 678.848 143.545C679.051 143.67 679.275 143.787 679.521 143.896C679.76 143.791 679.975 143.676 680.166 143.551C680.361 143.422 680.516 143.27 680.629 143.094C680.746 142.914 680.805 142.699 680.805 142.449C680.805 142.105 680.682 141.842 680.436 141.658C680.193 141.471 679.877 141.377 679.486 141.377ZM685.111 146.387H684.074L683.793 140.434H685.393L685.111 146.387ZM683.723 148.273C683.723 147.953 683.805 147.729 683.969 147.6C684.137 147.467 684.342 147.4 684.584 147.4C684.822 147.4 685.025 147.467 685.193 147.6C685.361 147.729 685.445 147.953 685.445 148.273C685.445 148.586 685.361 148.812 685.193 148.953C685.025 149.09 684.822 149.158 684.584 149.158C684.342 149.158 684.137 149.09 683.969 148.953C683.805 148.812 683.723 148.586 683.723 148.273ZM687.895 146.387V146.018C687.895 145.729 687.928 145.477 687.994 145.262C688.061 145.047 688.172 144.846 688.328 144.658C688.484 144.467 688.695 144.268 688.961 144.061C689.234 143.846 689.451 143.66 689.611 143.504C689.775 143.348 689.893 143.191 689.963 143.035C690.037 142.875 690.074 142.689 690.074 142.479C690.074 142.146 689.961 141.895 689.734 141.723C689.512 141.547 689.197 141.459 688.791 141.459C688.432 141.459 688.094 141.51 687.777 141.611C687.461 141.713 687.148 141.84 686.84 141.992L686.354 140.961C686.709 140.766 687.094 140.609 687.508 140.492C687.926 140.371 688.385 140.311 688.885 140.311C689.682 140.311 690.297 140.504 690.73 140.891C691.168 141.277 691.387 141.787 691.387 142.42C691.387 142.768 691.332 143.066 691.223 143.316C691.113 143.562 690.951 143.791 690.736 144.002C690.525 144.209 690.27 144.428 689.969 144.658C689.723 144.854 689.533 145.023 689.4 145.168C689.271 145.309 689.182 145.451 689.131 145.596C689.084 145.74 689.061 145.914 689.061 146.117V146.387H687.895ZM687.672 148.273C687.672 147.953 687.754 147.729 687.918 147.6C688.086 147.467 688.291 147.4 688.533 147.4C688.768 147.4 688.969 147.467 689.137 147.6C689.305 147.729 689.389 147.953 689.389 148.273C689.389 148.586 689.305 148.812 689.137 148.953C688.969 149.09 688.768 149.158 688.533 149.158C688.291 149.158 688.086 149.09 687.918 148.953C687.754 148.812 687.672 148.586 687.672 148.273ZM692.184 145.713C692.184 145.057 692.246 144.416 692.371 143.791C692.5 143.166 692.695 142.57 692.957 142.004C693.219 141.438 693.549 140.914 693.947 140.434H695.148C694.59 141.18 694.168 142.006 693.883 142.912C693.602 143.818 693.461 144.748 693.461 145.701C693.461 146.322 693.523 146.938 693.648 147.547C693.773 148.156 693.961 148.742 694.211 149.305C694.461 149.871 694.77 150.402 695.137 150.898H693.947C693.549 150.43 693.219 149.918 692.957 149.363C692.695 148.809 692.5 148.223 692.371 147.605C692.246 146.988 692.184 146.357 692.184 145.713ZM698.834 145.707C698.834 146.355 698.771 146.988 698.646 147.605C698.521 148.223 698.328 148.809 698.066 149.363C697.809 149.918 697.477 150.43 697.07 150.898H695.887C696.254 150.402 696.562 149.871 696.812 149.305C697.062 148.738 697.25 148.15 697.375 147.541C697.5 146.932 697.562 146.316 697.562 145.695C697.562 145.062 697.498 144.438 697.369 143.82C697.244 143.203 697.057 142.609 696.807 142.039C696.557 141.465 696.246 140.93 695.875 140.434H697.07C697.477 140.914 697.809 141.438 698.066 142.004C698.328 142.57 698.521 143.166 698.646 143.791C698.771 144.412 698.834 145.051 698.834 145.707Z" fill="#161616"/>
</svg>
