<svg width="889" height="140" viewBox="0 0 889 140" fill="none" xmlns="http://www.w3.org/2000/svg">
<rect width="889" height="140" fill="#F2F4F6"/>
<path d="M318.064 44.8623C318.064 45.3278 317.95 45.7288 317.721 46.0654C317.495 46.402 317.169 46.6598 316.743 46.8389C316.321 47.0179 315.816 47.1074 315.229 47.1074C314.942 47.1074 314.668 47.0913 314.407 47.0591C314.145 47.0269 313.898 46.9803 313.666 46.9194C313.436 46.855 313.227 46.778 313.037 46.6885V45.4746C313.356 45.6143 313.712 45.7414 314.106 45.856C314.5 45.967 314.901 46.0225 315.309 46.0225C315.642 46.0225 315.918 45.9795 316.136 45.8936C316.358 45.804 316.523 45.6787 316.63 45.5176C316.738 45.3529 316.792 45.1613 316.792 44.9429C316.792 44.7101 316.729 44.5132 316.604 44.3521C316.478 44.1909 316.288 44.0441 316.034 43.9116C315.784 43.7756 315.468 43.6305 315.089 43.4766C314.831 43.3727 314.584 43.2546 314.348 43.1221C314.115 42.9896 313.907 42.8338 313.725 42.6548C313.542 42.4757 313.397 42.2645 313.29 42.021C313.186 41.7739 313.134 41.4839 313.134 41.1509C313.134 40.7069 313.239 40.3273 313.451 40.0122C313.666 39.6971 313.966 39.4554 314.353 39.2871C314.743 39.1188 315.198 39.0347 315.717 39.0347C316.129 39.0347 316.516 39.0776 316.877 39.1636C317.243 39.2495 317.601 39.3713 317.952 39.5288L317.543 40.5654C317.221 40.4329 316.908 40.3273 316.604 40.2485C316.303 40.1698 315.995 40.1304 315.68 40.1304C315.408 40.1304 315.177 40.1715 314.987 40.2539C314.797 40.3363 314.652 40.4526 314.552 40.603C314.455 40.7498 314.407 40.9253 314.407 41.1294C314.407 41.3586 314.462 41.5519 314.573 41.7095C314.688 41.8634 314.863 42.0049 315.1 42.1338C315.34 42.2627 315.647 42.4059 316.023 42.5635C316.457 42.7425 316.824 42.9305 317.125 43.1274C317.429 43.3244 317.662 43.5607 317.823 43.8364C317.984 44.1086 318.064 44.4505 318.064 44.8623ZM321.819 40.9414C322.349 40.9414 322.804 41.0506 323.183 41.269C323.563 41.4875 323.854 41.7972 324.059 42.1982C324.263 42.5993 324.365 43.0791 324.365 43.6377V44.3145H320.396C320.41 44.891 320.564 45.335 320.857 45.6465C321.155 45.958 321.57 46.1138 322.104 46.1138C322.483 46.1138 322.823 46.078 323.124 46.0063C323.428 45.9312 323.742 45.8219 324.064 45.6787V46.7046C323.767 46.8442 323.464 46.9463 323.156 47.0107C322.848 47.0752 322.479 47.1074 322.05 47.1074C321.466 47.1074 320.952 46.9946 320.508 46.769C320.068 46.5399 319.722 46.1997 319.472 45.7485C319.225 45.2974 319.101 44.737 319.101 44.0674C319.101 43.4014 319.214 42.8356 319.439 42.3701C319.665 41.9046 319.982 41.5501 320.39 41.3066C320.798 41.0632 321.275 40.9414 321.819 40.9414ZM321.819 41.8921C321.421 41.8921 321.099 42.021 320.852 42.2788C320.609 42.5366 320.465 42.9144 320.422 43.4121H323.129C323.126 43.1149 323.076 42.8517 322.979 42.6226C322.886 42.3934 322.743 42.2144 322.549 42.0854C322.36 41.9565 322.116 41.8921 321.819 41.8921ZM328.801 40.9414C328.902 40.9414 329.011 40.9468 329.129 40.9575C329.247 40.9683 329.349 40.9826 329.435 41.0005L329.317 42.1821C329.242 42.1606 329.149 42.1445 329.038 42.1338C328.93 42.123 328.833 42.1177 328.748 42.1177C328.522 42.1177 328.307 42.1553 328.103 42.2305C327.899 42.3021 327.718 42.4131 327.561 42.5635C327.403 42.7103 327.279 42.8947 327.19 43.1167C327.1 43.3387 327.056 43.5965 327.056 43.8901V47H325.788V41.0542H326.776L326.948 42.1016H327.007C327.125 41.8903 327.272 41.6969 327.448 41.5215C327.623 41.346 327.824 41.2064 328.049 41.1025C328.278 40.9951 328.529 40.9414 328.801 40.9414ZM331.895 47L329.634 41.0542H330.971L332.196 44.5454C332.275 44.7674 332.346 45.0073 332.411 45.2651C332.475 45.5229 332.52 45.7396 332.545 45.915H332.588C332.613 45.7324 332.661 45.514 332.733 45.2598C332.805 45.002 332.878 44.7638 332.953 44.5454L334.178 41.0542H335.51L333.249 47H331.895ZM337.674 41.0542V47H336.412V41.0542H337.674ZM337.051 38.7769C337.245 38.7769 337.411 38.8288 337.551 38.9326C337.694 39.0365 337.766 39.2155 337.766 39.4697C337.766 39.7204 337.694 39.8994 337.551 40.0068C337.411 40.1107 337.245 40.1626 337.051 40.1626C336.851 40.1626 336.681 40.1107 336.541 40.0068C336.405 39.8994 336.337 39.7204 336.337 39.4697C336.337 39.2155 336.405 39.0365 336.541 38.9326C336.681 38.8288 336.851 38.7769 337.051 38.7769ZM341.88 47.1074C341.318 47.1074 340.831 46.9982 340.419 46.7798C340.007 46.5614 339.69 46.2266 339.468 45.7754C339.246 45.3242 339.135 44.7513 339.135 44.0566C339.135 43.3333 339.257 42.7425 339.5 42.2842C339.744 41.8258 340.081 41.4875 340.51 41.269C340.944 41.0506 341.439 40.9414 341.998 40.9414C342.353 40.9414 342.673 40.9772 342.959 41.0488C343.25 41.1169 343.495 41.201 343.695 41.3013L343.319 42.311C343.101 42.2215 342.877 42.1463 342.648 42.0854C342.419 42.0246 342.199 41.9941 341.987 41.9941C341.64 41.9941 341.35 42.0711 341.117 42.2251C340.888 42.3791 340.716 42.6082 340.602 42.9126C340.491 43.217 340.435 43.5947 340.435 44.0459C340.435 44.4827 340.492 44.8516 340.607 45.1523C340.722 45.4495 340.892 45.6751 341.117 45.8291C341.343 45.9795 341.62 46.0547 341.95 46.0547C342.276 46.0547 342.567 46.0153 342.825 45.9365C343.083 45.8577 343.326 45.7557 343.556 45.6304V46.7261C343.33 46.855 343.088 46.9499 342.831 47.0107C342.573 47.0752 342.256 47.1074 341.88 47.1074ZM347.321 40.9414C347.851 40.9414 348.306 41.0506 348.685 41.269C349.065 41.4875 349.356 41.7972 349.561 42.1982C349.765 42.5993 349.867 43.0791 349.867 43.6377V44.3145H345.897C345.912 44.891 346.066 45.335 346.359 45.6465C346.657 45.958 347.072 46.1138 347.605 46.1138C347.985 46.1138 348.325 46.078 348.626 46.0063C348.93 45.9312 349.244 45.8219 349.566 45.6787V46.7046C349.269 46.8442 348.966 46.9463 348.658 47.0107C348.35 47.0752 347.981 47.1074 347.552 47.1074C346.968 47.1074 346.454 46.9946 346.01 46.769C345.57 46.5399 345.224 46.1997 344.974 45.7485C344.727 45.2974 344.603 44.737 344.603 44.0674C344.603 43.4014 344.716 42.8356 344.941 42.3701C345.167 41.9046 345.484 41.5501 345.892 41.3066C346.3 41.0632 346.777 40.9414 347.321 40.9414ZM347.321 41.8921C346.923 41.8921 346.601 42.021 346.354 42.2788C346.111 42.5366 345.967 42.9144 345.924 43.4121H348.631C348.628 43.1149 348.578 42.8517 348.481 42.6226C348.388 42.3934 348.245 42.2144 348.051 42.0854C347.861 41.9565 347.618 41.8921 347.321 41.8921ZM356.146 47.1074C355.437 47.1074 354.867 46.8496 354.438 46.334C354.011 45.8148 353.798 45.0503 353.798 44.0405C353.798 43.02 354.015 42.2484 354.448 41.7256C354.885 41.2028 355.46 40.9414 356.172 40.9414C356.473 40.9414 356.736 40.9826 356.962 41.0649C357.188 41.1437 357.381 41.2511 357.542 41.3872C357.707 41.5233 357.846 41.6755 357.961 41.8438H358.02C358.002 41.7327 357.981 41.5734 357.956 41.3657C357.934 41.1545 357.923 40.9593 357.923 40.7803V38.6426H359.191V47H358.203L357.977 46.189H357.923C357.816 46.3608 357.68 46.5166 357.515 46.6562C357.354 46.7923 357.161 46.9015 356.935 46.9839C356.713 47.0662 356.45 47.1074 356.146 47.1074ZM356.5 46.0815C357.041 46.0815 357.422 45.9258 357.644 45.6143C357.866 45.3027 357.981 44.8354 357.988 44.2124V44.0459C357.988 43.3799 357.88 42.8696 357.666 42.5151C357.451 42.1571 357.059 41.978 356.489 41.978C356.035 41.978 355.687 42.1624 355.447 42.5312C355.211 42.8965 355.093 43.4067 355.093 44.062C355.093 44.7173 355.211 45.2186 355.447 45.5659C355.687 45.9097 356.038 46.0815 356.5 46.0815ZM363.37 40.9414C363.9 40.9414 364.354 41.0506 364.734 41.269C365.113 41.4875 365.405 41.7972 365.609 42.1982C365.813 42.5993 365.916 43.0791 365.916 43.6377V44.3145H361.946C361.961 44.891 362.115 45.335 362.408 45.6465C362.705 45.958 363.121 46.1138 363.654 46.1138C364.034 46.1138 364.374 46.078 364.675 46.0063C364.979 45.9312 365.292 45.8219 365.615 45.6787V46.7046C365.318 46.8442 365.015 46.9463 364.707 47.0107C364.399 47.0752 364.03 47.1074 363.601 47.1074C363.017 47.1074 362.503 46.9946 362.059 46.769C361.619 46.5399 361.273 46.1997 361.022 45.7485C360.775 45.2974 360.652 44.737 360.652 44.0674C360.652 43.4014 360.765 42.8356 360.99 42.3701C361.216 41.9046 361.533 41.5501 361.941 41.3066C362.349 41.0632 362.825 40.9414 363.37 40.9414ZM363.37 41.8921C362.972 41.8921 362.65 42.021 362.403 42.2788C362.159 42.5366 362.016 42.9144 361.973 43.4121H364.68C364.677 43.1149 364.626 42.8517 364.53 42.6226C364.437 42.3934 364.293 42.2144 364.1 42.0854C363.91 41.9565 363.667 41.8921 363.37 41.8921ZM371.335 45.3027C371.335 45.693 371.24 46.0225 371.05 46.291C370.861 46.5596 370.583 46.7637 370.218 46.9033C369.856 47.0394 369.412 47.1074 368.886 47.1074C368.47 47.1074 368.112 47.077 367.812 47.0161C367.514 46.9588 367.233 46.8693 366.968 46.7476V45.6572C367.251 45.7897 367.568 45.9043 367.919 46.001C368.273 46.0977 368.608 46.146 368.923 46.146C369.339 46.146 369.638 46.0815 369.82 45.9526C370.003 45.8201 370.094 45.6447 370.094 45.4263C370.094 45.2974 370.057 45.1828 369.981 45.0825C369.91 44.9787 369.774 44.873 369.573 44.7656C369.376 44.6546 369.086 44.5221 368.703 44.3682C368.327 44.2178 368.01 44.0674 367.752 43.917C367.495 43.7666 367.299 43.5858 367.167 43.3745C367.035 43.1597 366.968 42.8857 366.968 42.5527C366.968 42.0264 367.176 41.6271 367.591 41.355C368.01 41.0793 368.563 40.9414 369.251 40.9414C369.616 40.9414 369.96 40.979 370.282 41.0542C370.608 41.1258 370.927 41.2314 371.238 41.3711L370.841 42.3218C370.572 42.2036 370.302 42.1069 370.03 42.0317C369.761 41.953 369.487 41.9136 369.208 41.9136C368.882 41.9136 368.633 41.9637 368.461 42.064C368.293 42.1642 368.209 42.3075 368.209 42.4937C368.209 42.6333 368.25 42.7515 368.333 42.8481C368.415 42.9448 368.556 43.0415 368.757 43.1382C368.961 43.2349 369.244 43.3548 369.605 43.498C369.96 43.6341 370.266 43.7773 370.524 43.9277C370.785 44.0745 370.986 44.2554 371.125 44.4702C371.265 44.6851 371.335 44.9626 371.335 45.3027ZM375.095 47.1074C374.533 47.1074 374.046 46.9982 373.634 46.7798C373.222 46.5614 372.905 46.2266 372.683 45.7754C372.461 45.3242 372.35 44.7513 372.35 44.0566C372.35 43.3333 372.472 42.7425 372.715 42.2842C372.959 41.8258 373.295 41.4875 373.725 41.269C374.158 41.0506 374.654 40.9414 375.213 40.9414C375.567 40.9414 375.888 40.9772 376.174 41.0488C376.464 41.1169 376.71 41.201 376.91 41.3013L376.534 42.311C376.316 42.2215 376.092 42.1463 375.863 42.0854C375.634 42.0246 375.413 41.9941 375.202 41.9941C374.855 41.9941 374.565 42.0711 374.332 42.2251C374.103 42.3791 373.931 42.6082 373.816 42.9126C373.705 43.217 373.65 43.5947 373.65 44.0459C373.65 44.4827 373.707 44.8516 373.822 45.1523C373.936 45.4495 374.106 45.6751 374.332 45.8291C374.558 45.9795 374.835 46.0547 375.165 46.0547C375.49 46.0547 375.782 46.0153 376.04 45.9365C376.298 45.8577 376.541 45.7557 376.771 45.6304V46.7261C376.545 46.855 376.303 46.9499 376.045 47.0107C375.788 47.0752 375.471 47.1074 375.095 47.1074ZM381.18 40.9414C381.28 40.9414 381.39 40.9468 381.508 40.9575C381.626 40.9683 381.728 40.9826 381.814 41.0005L381.696 42.1821C381.621 42.1606 381.528 42.1445 381.417 42.1338C381.309 42.123 381.212 42.1177 381.126 42.1177C380.901 42.1177 380.686 42.1553 380.482 42.2305C380.278 42.3021 380.097 42.4131 379.939 42.5635C379.782 42.7103 379.658 42.8947 379.569 43.1167C379.479 43.3387 379.435 43.5965 379.435 43.8901V47H378.167V41.0542H379.155L379.327 42.1016H379.386C379.504 41.8903 379.651 41.6969 379.827 41.5215C380.002 41.346 380.203 41.2064 380.428 41.1025C380.657 40.9951 380.908 40.9414 381.18 40.9414ZM384.177 41.0542V47H382.915V41.0542H384.177ZM383.554 38.7769C383.748 38.7769 383.914 38.8288 384.054 38.9326C384.197 39.0365 384.269 39.2155 384.269 39.4697C384.269 39.7204 384.197 39.8994 384.054 40.0068C383.914 40.1107 383.748 40.1626 383.554 40.1626C383.354 40.1626 383.184 40.1107 383.044 40.0068C382.908 39.8994 382.84 39.7204 382.84 39.4697C382.84 39.2155 382.908 39.0365 383.044 38.9326C383.184 38.8288 383.354 38.7769 383.554 38.7769ZM389.038 40.9414C389.743 40.9414 390.309 41.1992 390.735 41.7148C391.165 42.2305 391.38 42.9967 391.38 44.0137C391.38 44.6868 391.28 45.2544 391.079 45.7163C390.882 46.1746 390.605 46.522 390.247 46.7583C389.892 46.991 389.479 47.1074 389.006 47.1074C388.705 47.1074 388.444 47.068 388.222 46.9893C388 46.9105 387.81 46.8084 387.652 46.6831C387.495 46.5542 387.362 46.4146 387.255 46.2642H387.18C387.198 46.4074 387.214 46.5667 387.228 46.7422C387.246 46.9141 387.255 47.0716 387.255 47.2148V49.6372H385.987V41.0542H387.019L387.196 41.876H387.255C387.366 41.7077 387.5 41.5519 387.658 41.4087C387.819 41.2655 388.012 41.1527 388.238 41.0703C388.467 40.9844 388.734 40.9414 389.038 40.9414ZM388.7 41.9727C388.352 41.9727 388.073 42.0425 387.862 42.1821C387.654 42.3182 387.502 42.5241 387.405 42.7998C387.312 43.0755 387.262 43.4211 387.255 43.8364V44.0137C387.255 44.4541 387.3 44.8283 387.389 45.1362C387.482 45.4406 387.634 45.6733 387.846 45.8345C388.061 45.992 388.351 46.0708 388.716 46.0708C389.024 46.0708 389.278 45.9867 389.479 45.8184C389.683 45.6501 389.835 45.4102 389.935 45.0986C390.035 44.7871 390.085 44.4201 390.085 43.9976C390.085 43.3566 389.971 42.8589 389.742 42.5044C389.516 42.1499 389.169 41.9727 388.7 41.9727ZM395.054 46.0869C395.218 46.0869 395.381 46.0726 395.542 46.0439C395.704 46.0117 395.85 45.9741 395.983 45.9312V46.8872C395.843 46.9481 395.662 47 395.44 47.043C395.218 47.0859 394.987 47.1074 394.748 47.1074C394.411 47.1074 394.108 47.0519 393.84 46.9409C393.571 46.8263 393.358 46.6312 393.201 46.3555C393.043 46.0798 392.964 45.6984 392.964 45.2114V42.0156H392.153V41.4517L393.023 41.0059L393.437 39.7329H394.232V41.0542H395.935V42.0156H394.232V45.1953C394.232 45.4961 394.307 45.7199 394.458 45.8667C394.608 46.0135 394.807 46.0869 395.054 46.0869ZM398.454 41.0542V47H397.191V41.0542H398.454ZM397.831 38.7769C398.024 38.7769 398.19 38.8288 398.33 38.9326C398.473 39.0365 398.545 39.2155 398.545 39.4697C398.545 39.7204 398.473 39.8994 398.33 40.0068C398.19 40.1107 398.024 40.1626 397.831 40.1626C397.63 40.1626 397.46 40.1107 397.32 40.0068C397.184 39.8994 397.116 39.7204 397.116 39.4697C397.116 39.2155 397.184 39.0365 397.32 38.9326C397.46 38.8288 397.63 38.7769 397.831 38.7769ZM405.527 44.0137C405.527 44.5078 405.463 44.9465 405.334 45.3296C405.205 45.7127 405.017 46.0368 404.77 46.3018C404.523 46.5632 404.226 46.7637 403.878 46.9033C403.531 47.0394 403.139 47.1074 402.702 47.1074C402.294 47.1074 401.92 47.0394 401.58 46.9033C401.239 46.7637 400.944 46.5632 400.693 46.3018C400.446 46.0368 400.255 45.7127 400.119 45.3296C399.983 44.9465 399.915 44.5078 399.915 44.0137C399.915 43.3584 400.027 42.8034 400.253 42.3486C400.482 41.8903 400.808 41.5412 401.23 41.3013C401.653 41.0614 402.156 40.9414 402.74 40.9414C403.288 40.9414 403.771 41.0614 404.19 41.3013C404.609 41.5412 404.937 41.8903 405.173 42.3486C405.409 42.807 405.527 43.362 405.527 44.0137ZM401.214 44.0137C401.214 44.4469 401.266 44.8175 401.37 45.1255C401.478 45.4334 401.642 45.6698 401.864 45.8345C402.086 45.9956 402.373 46.0762 402.724 46.0762C403.075 46.0762 403.361 45.9956 403.583 45.8345C403.805 45.6698 403.968 45.4334 404.072 45.1255C404.176 44.8175 404.228 44.4469 404.228 44.0137C404.228 43.5804 404.176 43.2134 404.072 42.9126C403.968 42.6082 403.805 42.3773 403.583 42.2197C403.361 42.0586 403.073 41.978 402.718 41.978C402.195 41.978 401.814 42.1535 401.574 42.5044C401.334 42.8553 401.214 43.3584 401.214 44.0137ZM410.077 40.9414C410.746 40.9414 411.267 41.1151 411.64 41.4624C412.016 41.8062 412.204 42.3594 412.204 43.1221V47H410.941V43.3584C410.941 42.8965 410.847 42.5509 410.657 42.3218C410.467 42.089 410.173 41.9727 409.776 41.9727C409.199 41.9727 408.798 42.1499 408.573 42.5044C408.351 42.8589 408.24 43.3727 408.24 44.0459V47H406.978V41.0542H407.96L408.138 41.8599H408.208C408.336 41.6522 408.496 41.4821 408.686 41.3496C408.879 41.2135 409.094 41.1115 409.33 41.0435C409.57 40.9754 409.819 40.9414 410.077 40.9414ZM416.667 38.6426L416.452 40.6943L418.515 40.1089L418.676 41.2529L416.748 41.4248L417.999 43.0952L416.957 43.6592L416.049 41.8599L415.238 43.6538L414.153 43.0952L415.394 41.4248L413.477 41.2476L413.659 40.1089L415.684 40.6943L415.469 38.6426H416.667Z" fill="#61656E"/>
<mask id="path-2-inside-1_2374_297874" fill="white">
<path d="M312.5 56H576.5V84H312.5V56Z"/>
</mask>
<path d="M312.5 56H576.5V84H312.5V56Z" fill="white"/>
<path d="M576.5 83H312.5V85H576.5V83Z" fill="#61656E" mask="url(#path-2-inside-1_2374_297874)"/>
<path d="M312.962 101L314.622 93.1475H316.453C317.406 93.1475 318.15 93.4053 318.688 93.9209C319.228 94.4329 319.499 95.2207 319.499 96.2842C319.499 96.8213 319.434 97.328 319.305 97.8042C319.176 98.2804 318.985 98.7137 318.73 99.104C318.476 99.4943 318.163 99.8309 317.791 100.114C317.418 100.397 316.987 100.615 316.496 100.769C316.006 100.923 315.459 101 314.858 101H312.962ZM314.031 100.216H314.912C315.384 100.216 315.812 100.151 316.195 100.022C316.578 99.89 316.915 99.7038 317.205 99.4639C317.499 99.224 317.744 98.9411 317.941 98.6152C318.141 98.2858 318.292 97.9242 318.392 97.5303C318.492 97.1328 318.542 96.7139 318.542 96.2734C318.542 95.4499 318.342 94.8537 317.941 94.4849C317.543 94.1125 317.008 93.9263 316.335 93.9263H315.368L314.031 100.216ZM322.517 101.107C322.077 101.107 321.697 101.02 321.378 100.844C321.06 100.665 320.814 100.411 320.643 100.082C320.474 99.7485 320.39 99.3511 320.39 98.8892C320.39 98.4129 320.458 97.9456 320.594 97.4873C320.734 97.0254 320.933 96.6082 321.19 96.2358C321.448 95.8599 321.758 95.5609 322.12 95.3389C322.485 95.1169 322.893 95.0059 323.344 95.0059C323.885 95.0059 324.295 95.1276 324.574 95.3711C324.854 95.611 324.993 95.9422 324.993 96.3647C324.993 96.6619 324.923 96.9359 324.784 97.1865C324.648 97.4372 324.436 97.6556 324.15 97.8418C323.867 98.0244 323.507 98.1676 323.07 98.2715C322.637 98.3717 322.123 98.4219 321.529 98.4219H321.325C321.318 98.4863 321.31 98.5579 321.303 98.6367C321.3 98.7155 321.298 98.7889 321.298 98.8569C321.298 99.3296 321.412 99.7002 321.642 99.9688C321.871 100.234 322.215 100.366 322.673 100.366C322.956 100.366 323.222 100.327 323.473 100.248C323.727 100.166 323.992 100.058 324.268 99.9258V100.694C324.003 100.816 323.736 100.916 323.468 100.995C323.199 101.07 322.882 101.107 322.517 101.107ZM321.454 97.6914H321.583C322.041 97.6914 322.462 97.652 322.845 97.5732C323.228 97.4909 323.536 97.3584 323.769 97.1758C324.001 96.9896 324.118 96.7425 324.118 96.4346C324.118 96.234 324.05 96.0693 323.914 95.9404C323.778 95.8115 323.57 95.7471 323.291 95.7471C323.043 95.7471 322.8 95.8241 322.56 95.978C322.32 96.1284 322.102 96.3486 321.905 96.6387C321.711 96.9287 321.561 97.2796 321.454 97.6914ZM327.04 101.107C326.681 101.107 326.366 101.072 326.094 101C325.826 100.928 325.591 100.839 325.391 100.731V99.9043C325.58 100.019 325.82 100.126 326.11 100.227C326.404 100.327 326.705 100.377 327.013 100.377C327.317 100.377 327.569 100.336 327.77 100.253C327.974 100.171 328.126 100.058 328.227 99.915C328.33 99.7682 328.382 99.5981 328.382 99.4048C328.382 99.2508 328.348 99.1183 328.28 99.0073C328.216 98.8927 328.108 98.7817 327.958 98.6743C327.811 98.5669 327.614 98.4434 327.367 98.3037C327.091 98.1497 326.859 97.994 326.669 97.8364C326.479 97.6789 326.334 97.507 326.234 97.3208C326.137 97.131 326.089 96.9108 326.089 96.6602C326.089 96.3236 326.171 96.0317 326.336 95.7847C326.501 95.5376 326.732 95.346 327.029 95.21C327.33 95.0739 327.681 95.0059 328.082 95.0059C328.436 95.0059 328.764 95.047 329.064 95.1294C329.365 95.2082 329.625 95.2995 329.843 95.4033L329.553 96.1177C329.367 96.0282 329.154 95.9458 328.914 95.8706C328.674 95.7954 328.397 95.7578 328.082 95.7578C327.745 95.7578 327.476 95.8348 327.276 95.9888C327.079 96.1427 326.98 96.3504 326.98 96.6118C326.98 96.7479 327.009 96.8696 327.066 96.9771C327.127 97.0845 327.231 97.1919 327.378 97.2993C327.525 97.4032 327.725 97.5249 327.979 97.6646C328.227 97.8078 328.449 97.9546 328.646 98.105C328.846 98.2518 329.004 98.4219 329.118 98.6152C329.236 98.805 329.295 99.0396 329.295 99.3188C329.295 99.702 329.204 100.028 329.021 100.296C328.839 100.561 328.577 100.764 328.237 100.903C327.901 101.039 327.501 101.107 327.04 101.107ZM332.792 101.107C332.355 101.107 331.972 101.025 331.643 100.86C331.317 100.692 331.062 100.445 330.88 100.119C330.701 99.7933 330.611 99.3887 330.611 98.9053C330.611 98.4863 330.656 98.0835 330.746 97.6968C330.839 97.3101 330.973 96.9538 331.148 96.6279C331.324 96.3021 331.537 96.0174 331.788 95.7739C332.038 95.5304 332.323 95.3424 332.642 95.21C332.964 95.0739 333.315 95.0059 333.694 95.0059C333.949 95.0059 334.201 95.0309 334.452 95.0811C334.706 95.1276 334.935 95.1956 335.139 95.2852L334.887 96.0371C334.736 95.9655 334.559 95.901 334.355 95.8438C334.151 95.7865 333.932 95.7578 333.7 95.7578C333.374 95.7578 333.077 95.8402 332.808 96.0049C332.543 96.1696 332.314 96.3988 332.121 96.6924C331.931 96.9824 331.784 97.3154 331.68 97.6914C331.576 98.0674 331.524 98.4684 331.524 98.8945C331.524 99.1989 331.578 99.4621 331.686 99.6841C331.793 99.9025 331.947 100.071 332.147 100.189C332.352 100.307 332.595 100.366 332.878 100.366C333.139 100.366 333.385 100.33 333.614 100.259C333.847 100.187 334.074 100.101 334.296 100.001V100.764C334.099 100.864 333.873 100.946 333.619 101.011C333.368 101.075 333.093 101.107 332.792 101.107ZM335.37 101L336.622 95.1133H337.352L337.212 96.252H337.266C337.417 96.0479 337.578 95.8509 337.75 95.6611C337.921 95.4678 338.117 95.3102 338.335 95.1885C338.557 95.0667 338.811 95.0059 339.098 95.0059C339.205 95.0059 339.314 95.013 339.425 95.0273C339.536 95.0381 339.64 95.0578 339.737 95.0864L339.543 95.8867C339.447 95.8652 339.352 95.8491 339.259 95.8384C339.169 95.8276 339.076 95.8223 338.979 95.8223C338.707 95.8223 338.455 95.8939 338.222 96.0371C337.989 96.1768 337.78 96.3647 337.594 96.6011C337.411 96.8374 337.255 97.1006 337.126 97.3906C337.001 97.6807 336.906 97.9761 336.842 98.2769L336.267 101H335.37ZM339.721 101L340.972 95.1133H341.869L340.618 101H339.721ZM341.724 94.082C341.581 94.082 341.461 94.0409 341.364 93.9585C341.271 93.8726 341.225 93.7526 341.225 93.5986C341.225 93.4805 341.248 93.3695 341.294 93.2656C341.345 93.1618 341.414 93.0794 341.504 93.0186C341.597 92.9541 341.71 92.9219 341.842 92.9219C342 92.9219 342.118 92.9631 342.197 93.0454C342.276 93.1278 342.315 93.2424 342.315 93.3892C342.315 93.6004 342.254 93.7687 342.132 93.894C342.011 94.0194 341.875 94.082 341.724 94.082ZM341.955 103.632L343.754 95.1133H344.485L344.34 96.2573H344.377C344.546 96.0353 344.73 95.8312 344.931 95.645C345.135 95.4552 345.357 95.3031 345.597 95.1885C345.84 95.0739 346.105 95.0166 346.392 95.0166C346.714 95.0166 346.995 95.0936 347.235 95.2476C347.475 95.3979 347.661 95.6235 347.793 95.9243C347.93 96.2215 347.998 96.5921 347.998 97.0361C347.998 97.4587 347.955 97.8704 347.869 98.2715C347.786 98.6689 347.665 99.0396 347.503 99.3833C347.342 99.7235 347.144 100.024 346.907 100.286C346.674 100.543 346.408 100.746 346.107 100.893C345.806 101.036 345.475 101.107 345.113 101.107C344.838 101.107 344.599 101.059 344.399 100.962C344.202 100.862 344.035 100.731 343.899 100.57C343.767 100.409 343.661 100.236 343.583 100.049H343.534C343.52 100.182 343.497 100.355 343.464 100.57C343.436 100.782 343.405 100.959 343.373 101.102L342.836 103.632H341.955ZM345.049 100.366C345.299 100.366 345.529 100.304 345.736 100.178C345.948 100.053 346.136 99.8828 346.3 99.668C346.469 99.4495 346.61 99.1971 346.725 98.9106C346.843 98.6242 346.932 98.3198 346.993 97.9976C347.054 97.6753 347.084 97.3477 347.084 97.0146C347.084 96.5993 347 96.286 346.832 96.0747C346.667 95.8634 346.42 95.7578 346.091 95.7578C345.919 95.7578 345.745 95.8008 345.57 95.8867C345.394 95.9691 345.224 96.0872 345.06 96.2412C344.895 96.3916 344.741 96.5706 344.598 96.7783C344.454 96.986 344.329 97.2152 344.222 97.4658C344.118 97.7165 344.035 97.9814 343.975 98.2607C343.914 98.54 343.883 98.8265 343.883 99.1201C343.883 99.4961 343.978 99.7987 344.168 100.028C344.361 100.253 344.655 100.366 345.049 100.366ZM350.538 101.107C350.148 101.107 349.822 101.014 349.561 100.828C349.303 100.638 349.174 100.314 349.174 99.856C349.174 99.745 349.181 99.625 349.195 99.4961C349.21 99.3636 349.233 99.2275 349.265 99.0879L349.958 95.7954H349.05L349.136 95.3818L350.114 95.0059L350.758 93.7598H351.29L350.995 95.1133H352.509L352.37 95.7954H350.86L350.162 99.0986C350.137 99.1989 350.114 99.3063 350.092 99.4209C350.074 99.5355 350.065 99.6447 350.065 99.7485C350.065 99.9276 350.112 100.078 350.205 100.2C350.298 100.318 350.454 100.377 350.672 100.377C350.808 100.377 350.937 100.364 351.059 100.339C351.184 100.314 351.317 100.278 351.457 100.232V100.919C351.367 100.962 351.231 101.004 351.048 101.043C350.869 101.086 350.699 101.107 350.538 101.107ZM352.493 101L353.745 95.1133H354.642L353.39 101H352.493ZM354.497 94.082C354.353 94.082 354.233 94.0409 354.137 93.9585C354.044 93.8726 353.997 93.7526 353.997 93.5986C353.997 93.4805 354.02 93.3695 354.067 93.2656C354.117 93.1618 354.187 93.0794 354.276 93.0186C354.369 92.9541 354.482 92.9219 354.615 92.9219C354.772 92.9219 354.89 92.9631 354.969 93.0454C355.048 93.1278 355.087 93.2424 355.087 93.3892C355.087 93.6004 355.027 93.7687 354.905 93.894C354.783 94.0194 354.647 94.082 354.497 94.082ZM357.676 101.086C357.225 101.086 356.837 100.995 356.511 100.812C356.185 100.626 355.934 100.364 355.759 100.028C355.587 99.6877 355.501 99.2866 355.501 98.8247C355.501 98.4523 355.542 98.0853 355.625 97.7236C355.707 97.3584 355.829 97.0146 355.99 96.6924C356.151 96.3665 356.35 96.0801 356.586 95.833C356.826 95.5824 357.102 95.3872 357.413 95.2476C357.725 95.1043 358.072 95.0327 358.455 95.0327C358.913 95.0327 359.304 95.1258 359.626 95.312C359.952 95.4946 360.201 95.756 360.373 96.0962C360.548 96.4364 360.636 96.8392 360.636 97.3047C360.636 97.6699 360.595 98.0334 360.512 98.395C360.433 98.7567 360.313 99.1004 360.152 99.4263C359.995 99.7485 359.796 100.035 359.556 100.286C359.32 100.533 359.044 100.728 358.729 100.871C358.417 101.014 358.067 101.086 357.676 101.086ZM357.73 100.345C357.952 100.345 358.163 100.298 358.364 100.205C358.564 100.112 358.747 99.9777 358.912 99.8022C359.076 99.6232 359.218 99.4066 359.336 99.1523C359.458 98.8945 359.551 98.6027 359.615 98.2769C359.683 97.951 359.717 97.5929 359.717 97.2026C359.717 96.9699 359.676 96.7443 359.594 96.5259C359.511 96.3075 359.379 96.1284 359.196 95.9888C359.014 95.8455 358.77 95.7739 358.466 95.7739C358.215 95.7739 357.982 95.8258 357.768 95.9297C357.556 96.0335 357.367 96.1803 357.198 96.3701C357.03 96.5599 356.887 96.7837 356.769 97.0415C356.654 97.2993 356.564 97.5822 356.5 97.8901C356.439 98.1981 356.409 98.5221 356.409 98.8623C356.409 99.3314 356.523 99.6966 356.752 99.958C356.982 100.216 357.307 100.345 357.73 100.345ZM361.436 101L362.698 95.0864H363.488L363.348 96.2197H363.359C363.495 96.0335 363.658 95.8455 363.848 95.6558C364.041 95.4624 364.265 95.3013 364.519 95.1724C364.777 95.0399 365.069 94.9736 365.395 94.9736C365.71 94.9736 365.98 95.0327 366.206 95.1509C366.431 95.2655 366.605 95.4338 366.727 95.6558C366.848 95.8742 366.909 96.1392 366.909 96.4507C366.909 96.6154 366.897 96.7819 366.872 96.9502C366.847 97.1185 366.82 97.2689 366.791 97.4014L366.007 101H365.056L365.851 97.2832C365.883 97.1221 365.908 96.9842 365.926 96.8696C365.948 96.755 365.958 96.6476 365.958 96.5474C365.958 96.2967 365.89 96.1069 365.754 95.978C365.618 95.8491 365.418 95.7847 365.153 95.7847C364.891 95.7847 364.616 95.8742 364.326 96.0532C364.036 96.2323 363.767 96.5151 363.52 96.9019C363.273 97.285 363.081 97.7863 362.945 98.4058L362.392 101H361.436ZM373.07 101.086C372.619 101.086 372.23 100.995 371.904 100.812C371.578 100.626 371.328 100.364 371.152 100.028C370.98 99.6877 370.895 99.2866 370.895 98.8247C370.895 98.4523 370.936 98.0853 371.018 97.7236C371.1 97.3584 371.222 97.0146 371.383 96.6924C371.544 96.3665 371.743 96.0801 371.979 95.833C372.219 95.5824 372.495 95.3872 372.807 95.2476C373.118 95.1043 373.465 95.0327 373.849 95.0327C374.307 95.0327 374.697 95.1258 375.02 95.312C375.345 95.4946 375.594 95.756 375.766 96.0962C375.942 96.4364 376.029 96.8392 376.029 97.3047C376.029 97.6699 375.988 98.0334 375.906 98.395C375.827 98.7567 375.707 99.1004 375.546 99.4263C375.388 99.7485 375.19 100.035 374.95 100.286C374.713 100.533 374.438 100.728 374.123 100.871C373.811 101.014 373.46 101.086 373.07 101.086ZM373.124 100.345C373.346 100.345 373.557 100.298 373.757 100.205C373.958 100.112 374.14 99.9777 374.305 99.8022C374.47 99.6232 374.611 99.4066 374.729 99.1523C374.851 98.8945 374.944 98.6027 375.009 98.2769C375.077 97.951 375.111 97.5929 375.111 97.2026C375.111 96.9699 375.07 96.7443 374.987 96.5259C374.905 96.3075 374.772 96.1284 374.59 95.9888C374.407 95.8455 374.164 95.7739 373.859 95.7739C373.609 95.7739 373.376 95.8258 373.161 95.9297C372.95 96.0335 372.76 96.1803 372.592 96.3701C372.424 96.5599 372.28 96.7837 372.162 97.0415C372.048 97.2993 371.958 97.5822 371.894 97.8901C371.833 98.1981 371.802 98.5221 371.802 98.8623C371.802 99.3314 371.917 99.6966 372.146 99.958C372.375 100.216 372.701 100.345 373.124 100.345ZM376.002 103.643C375.863 103.643 375.734 103.632 375.616 103.61C375.498 103.589 375.394 103.562 375.304 103.53V102.772C375.401 102.808 375.499 102.837 375.6 102.858C375.7 102.883 375.807 102.896 375.922 102.896C376.187 102.896 376.393 102.79 376.54 102.579C376.686 102.368 376.805 102.062 376.894 101.661L378.129 95.7954H377.104L377.179 95.4141L378.269 95.0864L378.398 94.5171C378.48 94.1519 378.579 93.8457 378.693 93.5986C378.812 93.348 378.949 93.1493 379.107 93.0024C379.264 92.8521 379.447 92.7446 379.655 92.6802C379.866 92.6157 380.108 92.5835 380.38 92.5835C380.559 92.5835 380.742 92.605 380.928 92.6479C381.118 92.6873 381.271 92.7339 381.39 92.7876L381.159 93.4697C381.051 93.4303 380.937 93.3963 380.815 93.3677C380.693 93.3354 380.561 93.3193 380.417 93.3193C380.113 93.3193 379.873 93.4053 379.698 93.5771C379.526 93.7454 379.39 94.0605 379.29 94.5225L379.155 95.1133H380.423L380.294 95.7954H379.021L377.764 101.763C377.678 102.157 377.562 102.493 377.415 102.772C377.268 103.055 377.08 103.27 376.851 103.417C376.622 103.567 376.339 103.643 376.002 103.643ZM384.838 101.107C384.448 101.107 384.122 101.014 383.86 100.828C383.603 100.638 383.474 100.314 383.474 99.856C383.474 99.745 383.481 99.625 383.495 99.4961C383.509 99.3636 383.533 99.2275 383.565 99.0879L384.258 95.7954H383.35L383.436 95.3818L384.414 95.0059L385.058 93.7598H385.59L385.294 95.1133H386.809L386.669 95.7954H385.16L384.462 99.0986C384.437 99.1989 384.414 99.3063 384.392 99.4209C384.374 99.5355 384.365 99.6447 384.365 99.7485C384.365 99.9276 384.412 100.078 384.505 100.2C384.598 100.318 384.754 100.377 384.972 100.377C385.108 100.377 385.237 100.364 385.359 100.339C385.484 100.314 385.617 100.278 385.756 100.232V100.919C385.667 100.962 385.531 101.004 385.348 101.043C385.169 101.086 384.999 101.107 384.838 101.107ZM386.793 101L388.565 92.6426H389.457L388.984 94.8125C388.956 94.9665 388.92 95.1258 388.877 95.2905C388.838 95.4517 388.796 95.6146 388.753 95.7793C388.71 95.9404 388.667 96.0998 388.625 96.2573H388.678C388.818 96.0675 388.983 95.8778 389.172 95.688C389.366 95.4982 389.59 95.3389 389.844 95.21C390.102 95.0811 390.392 95.0166 390.714 95.0166C391.022 95.0166 391.285 95.0721 391.503 95.1831C391.725 95.2941 391.896 95.4606 392.014 95.6826C392.135 95.901 392.196 96.1768 392.196 96.5098C392.196 96.6494 392.186 96.7926 392.164 96.9395C392.143 97.0827 392.116 97.2331 392.083 97.3906L391.31 101H390.413L391.197 97.2939C391.233 97.1328 391.258 96.995 391.272 96.8804C391.287 96.7658 391.294 96.6655 391.294 96.5796C391.294 96.3182 391.228 96.1159 391.095 95.9727C390.966 95.8294 390.759 95.7578 390.472 95.7578C390.204 95.7578 389.921 95.8491 389.624 96.0317C389.33 96.2108 389.058 96.4954 388.807 96.8857C388.56 97.2725 388.37 97.7791 388.238 98.4058L387.69 101H386.793ZM395.489 101.107C395.048 101.107 394.669 101.02 394.35 100.844C394.031 100.665 393.786 100.411 393.614 100.082C393.446 99.7485 393.362 99.3511 393.362 98.8892C393.362 98.4129 393.43 97.9456 393.566 97.4873C393.706 97.0254 393.904 96.6082 394.162 96.2358C394.42 95.8599 394.73 95.5609 395.091 95.3389C395.457 95.1169 395.865 95.0059 396.316 95.0059C396.857 95.0059 397.267 95.1276 397.546 95.3711C397.825 95.611 397.965 95.9422 397.965 96.3647C397.965 96.6619 397.895 96.9359 397.755 97.1865C397.619 97.4372 397.408 97.6556 397.122 97.8418C396.839 98.0244 396.479 98.1676 396.042 98.2715C395.609 98.3717 395.095 98.4219 394.5 98.4219H394.296C394.289 98.4863 394.282 98.5579 394.275 98.6367C394.271 98.7155 394.27 98.7889 394.27 98.8569C394.27 99.3296 394.384 99.7002 394.613 99.9688C394.842 100.234 395.186 100.366 395.645 100.366C395.927 100.366 396.194 100.327 396.445 100.248C396.699 100.166 396.964 100.058 397.24 99.9258V100.694C396.975 100.816 396.708 100.916 396.439 100.995C396.171 101.07 395.854 101.107 395.489 101.107ZM394.425 97.6914H394.554C395.013 97.6914 395.433 97.652 395.816 97.5732C396.2 97.4909 396.507 97.3584 396.74 97.1758C396.973 96.9896 397.089 96.7425 397.089 96.4346C397.089 96.234 397.021 96.0693 396.885 95.9404C396.749 95.8115 396.542 95.7471 396.262 95.7471C396.015 95.7471 395.772 95.8241 395.532 95.978C395.292 96.1284 395.073 96.3486 394.876 96.6387C394.683 96.9287 394.533 97.2796 394.425 97.6914ZM402.869 101.107C402.511 101.107 402.195 101.072 401.923 101C401.655 100.928 401.42 100.839 401.22 100.731V99.9043C401.41 100.019 401.649 100.126 401.939 100.227C402.233 100.327 402.534 100.377 402.842 100.377C403.146 100.377 403.399 100.336 403.599 100.253C403.803 100.171 403.955 100.058 404.056 99.915C404.16 99.7682 404.211 99.5981 404.211 99.4048C404.211 99.2508 404.177 99.1183 404.109 99.0073C404.045 98.8927 403.938 98.7817 403.787 98.6743C403.64 98.5669 403.443 98.4434 403.196 98.3037C402.921 98.1497 402.688 97.994 402.498 97.8364C402.308 97.6789 402.163 97.507 402.063 97.3208C401.966 97.131 401.918 96.9108 401.918 96.6602C401.918 96.3236 402 96.0317 402.165 95.7847C402.33 95.5376 402.561 95.346 402.858 95.21C403.159 95.0739 403.51 95.0059 403.911 95.0059C404.265 95.0059 404.593 95.047 404.894 95.1294C405.194 95.2082 405.454 95.2995 405.672 95.4033L405.382 96.1177C405.196 96.0282 404.983 95.9458 404.743 95.8706C404.503 95.7954 404.226 95.7578 403.911 95.7578C403.574 95.7578 403.306 95.8348 403.105 95.9888C402.908 96.1427 402.81 96.3504 402.81 96.6118C402.81 96.7479 402.838 96.8696 402.896 96.9771C402.956 97.0845 403.06 97.1919 403.207 97.2993C403.354 97.4032 403.554 97.5249 403.809 97.6646C404.056 97.8078 404.278 97.9546 404.475 98.105C404.675 98.2518 404.833 98.4219 404.947 98.6152C405.065 98.805 405.125 99.0396 405.125 99.3188C405.125 99.702 405.033 100.028 404.851 100.296C404.668 100.561 404.407 100.764 404.066 100.903C403.73 101.039 403.331 101.107 402.869 101.107ZM408.573 101.107C408.132 101.107 407.753 101.02 407.434 100.844C407.115 100.665 406.87 100.411 406.698 100.082C406.53 99.7485 406.446 99.3511 406.446 98.8892C406.446 98.4129 406.514 97.9456 406.65 97.4873C406.79 97.0254 406.988 96.6082 407.246 96.2358C407.504 95.8599 407.814 95.5609 408.175 95.3389C408.541 95.1169 408.949 95.0059 409.4 95.0059C409.941 95.0059 410.351 95.1276 410.63 95.3711C410.909 95.611 411.049 95.9422 411.049 96.3647C411.049 96.6619 410.979 96.9359 410.839 97.1865C410.703 97.4372 410.492 97.6556 410.206 97.8418C409.923 98.0244 409.563 98.1676 409.126 98.2715C408.693 98.3717 408.179 98.4219 407.584 98.4219H407.38C407.373 98.4863 407.366 98.5579 407.359 98.6367C407.355 98.7155 407.354 98.7889 407.354 98.8569C407.354 99.3296 407.468 99.7002 407.697 99.9688C407.926 100.234 408.27 100.366 408.729 100.366C409.011 100.366 409.278 100.327 409.529 100.248C409.783 100.166 410.048 100.058 410.324 99.9258V100.694C410.059 100.816 409.792 100.916 409.523 100.995C409.255 101.07 408.938 101.107 408.573 101.107ZM407.509 97.6914H407.638C408.097 97.6914 408.517 97.652 408.9 97.5732C409.284 97.4909 409.591 97.3584 409.824 97.1758C410.057 96.9896 410.173 96.7425 410.173 96.4346C410.173 96.234 410.105 96.0693 409.969 95.9404C409.833 95.8115 409.625 95.7471 409.346 95.7471C409.099 95.7471 408.856 95.8241 408.616 95.978C408.376 96.1284 408.157 96.3486 407.96 96.6387C407.767 96.9287 407.617 97.2796 407.509 97.6914ZM411.693 101L412.945 95.1133H413.675L413.536 96.252H413.589C413.74 96.0479 413.901 95.8509 414.073 95.6611C414.245 95.4678 414.44 95.3102 414.658 95.1885C414.88 95.0667 415.134 95.0059 415.421 95.0059C415.528 95.0059 415.638 95.013 415.749 95.0273C415.86 95.0381 415.963 95.0578 416.06 95.0864L415.867 95.8867C415.77 95.8652 415.675 95.8491 415.582 95.8384C415.493 95.8276 415.399 95.8223 415.303 95.8223C415.031 95.8223 414.778 95.8939 414.545 96.0371C414.313 96.1768 414.103 96.3647 413.917 96.6011C413.734 96.8374 413.579 97.1006 413.45 97.3906C413.324 97.6807 413.229 97.9761 413.165 98.2769L412.59 101H411.693ZM416.968 101L416.259 95.1133H417.161L417.521 98.5024C417.542 98.6922 417.562 98.9071 417.58 99.147C417.598 99.3869 417.612 99.6125 417.623 99.8237C417.637 100.035 417.645 100.194 417.645 100.302H417.677C417.756 100.126 417.847 99.9276 417.951 99.7056C418.058 99.48 418.166 99.258 418.273 99.0396C418.38 98.8175 418.475 98.6278 418.558 98.4702L420.373 95.1133H421.329L418.123 101H416.968ZM421.114 101L422.366 95.1133H423.263L422.011 101H421.114ZM423.118 94.082C422.974 94.082 422.854 94.0409 422.758 93.9585C422.665 93.8726 422.618 93.7526 422.618 93.5986C422.618 93.4805 422.641 93.3695 422.688 93.2656C422.738 93.1618 422.808 93.0794 422.897 93.0186C422.991 92.9541 423.103 92.9219 423.236 92.9219C423.393 92.9219 423.512 92.9631 423.59 93.0454C423.669 93.1278 423.708 93.2424 423.708 93.3892C423.708 93.6004 423.648 93.7687 423.526 93.894C423.404 94.0194 423.268 94.082 423.118 94.082ZM426.303 101.107C425.866 101.107 425.483 101.025 425.153 100.86C424.827 100.692 424.573 100.445 424.391 100.119C424.212 99.7933 424.122 99.3887 424.122 98.9053C424.122 98.4863 424.167 98.0835 424.256 97.6968C424.349 97.3101 424.484 96.9538 424.659 96.6279C424.835 96.3021 425.048 96.0174 425.298 95.7739C425.549 95.5304 425.834 95.3424 426.152 95.21C426.475 95.0739 426.826 95.0059 427.205 95.0059C427.459 95.0059 427.712 95.0309 427.962 95.0811C428.217 95.1276 428.446 95.1956 428.65 95.2852L428.397 96.0371C428.247 95.9655 428.07 95.901 427.866 95.8438C427.662 95.7865 427.443 95.7578 427.21 95.7578C426.885 95.7578 426.587 95.8402 426.319 96.0049C426.054 96.1696 425.825 96.3988 425.631 96.6924C425.442 96.9824 425.295 97.3154 425.191 97.6914C425.087 98.0674 425.035 98.4684 425.035 98.8945C425.035 99.1989 425.089 99.4621 425.196 99.6841C425.304 99.9025 425.458 100.071 425.658 100.189C425.862 100.307 426.106 100.366 426.389 100.366C426.65 100.366 426.895 100.33 427.125 100.259C427.357 100.187 427.585 100.101 427.807 100.001V100.764C427.61 100.864 427.384 100.946 427.13 101.011C426.879 101.075 426.604 101.107 426.303 101.107ZM431.239 101.107C430.798 101.107 430.419 101.02 430.1 100.844C429.781 100.665 429.536 100.411 429.364 100.082C429.196 99.7485 429.112 99.3511 429.112 98.8892C429.112 98.4129 429.18 97.9456 429.316 97.4873C429.456 97.0254 429.654 96.6082 429.912 96.2358C430.17 95.8599 430.48 95.5609 430.841 95.3389C431.207 95.1169 431.615 95.0059 432.066 95.0059C432.607 95.0059 433.017 95.1276 433.296 95.3711C433.575 95.611 433.715 95.9422 433.715 96.3647C433.715 96.6619 433.645 96.9359 433.505 97.1865C433.369 97.4372 433.158 97.6556 432.872 97.8418C432.589 98.0244 432.229 98.1676 431.792 98.2715C431.359 98.3717 430.845 98.4219 430.25 98.4219H430.046C430.039 98.4863 430.032 98.5579 430.025 98.6367C430.021 98.7155 430.02 98.7889 430.02 98.8569C430.02 99.3296 430.134 99.7002 430.363 99.9688C430.592 100.234 430.936 100.366 431.395 100.366C431.677 100.366 431.944 100.327 432.195 100.248C432.449 100.166 432.714 100.058 432.99 99.9258V100.694C432.725 100.816 432.458 100.916 432.189 100.995C431.921 101.07 431.604 101.107 431.239 101.107ZM430.175 97.6914H430.304C430.763 97.6914 431.183 97.652 431.566 97.5732C431.95 97.4909 432.257 97.3584 432.49 97.1758C432.723 96.9896 432.839 96.7425 432.839 96.4346C432.839 96.234 432.771 96.0693 432.635 95.9404C432.499 95.8115 432.292 95.7471 432.012 95.7471C431.765 95.7471 431.522 95.8241 431.282 95.978C431.042 96.1284 430.823 96.3486 430.626 96.6387C430.433 96.9287 430.283 97.2796 430.175 97.6914ZM435.761 101.107C435.403 101.107 435.088 101.072 434.816 101C434.547 100.928 434.313 100.839 434.112 100.731V99.9043C434.302 100.019 434.542 100.126 434.832 100.227C435.126 100.327 435.426 100.377 435.734 100.377C436.039 100.377 436.291 100.336 436.492 100.253C436.696 100.171 436.848 100.058 436.948 99.915C437.052 99.7682 437.104 99.5981 437.104 99.4048C437.104 99.2508 437.07 99.1183 437.002 99.0073C436.938 98.8927 436.83 98.7817 436.68 98.6743C436.533 98.5669 436.336 98.4434 436.089 98.3037C435.813 98.1497 435.58 97.994 435.391 97.8364C435.201 97.6789 435.056 97.507 434.956 97.3208C434.859 97.131 434.811 96.9108 434.811 96.6602C434.811 96.3236 434.893 96.0317 435.058 95.7847C435.222 95.5376 435.453 95.346 435.75 95.21C436.051 95.0739 436.402 95.0059 436.803 95.0059C437.158 95.0059 437.485 95.047 437.786 95.1294C438.087 95.2082 438.347 95.2995 438.565 95.4033L438.275 96.1177C438.089 96.0282 437.876 95.9458 437.636 95.8706C437.396 95.7954 437.118 95.7578 436.803 95.7578C436.467 95.7578 436.198 95.8348 435.998 95.9888C435.801 96.1427 435.702 96.3504 435.702 96.6118C435.702 96.7479 435.731 96.8696 435.788 96.9771C435.849 97.0845 435.953 97.1919 436.1 97.2993C436.246 97.4032 436.447 97.5249 436.701 97.6646C436.948 97.8078 437.17 97.9546 437.367 98.105C437.568 98.2518 437.725 98.4219 437.84 98.6152C437.958 98.805 438.017 99.0396 438.017 99.3188C438.017 99.702 437.926 100.028 437.743 100.296C437.561 100.561 437.299 100.764 436.959 100.903C436.622 101.039 436.223 101.107 435.761 101.107ZM443.641 101.107C443.25 101.107 442.924 101.014 442.663 100.828C442.405 100.638 442.276 100.314 442.276 99.856C442.276 99.745 442.284 99.625 442.298 99.4961C442.312 99.3636 442.335 99.2275 442.368 99.0879L443.061 95.7954H442.153L442.239 95.3818L443.216 95.0059L443.861 93.7598H444.393L444.097 95.1133H445.612L445.472 95.7954H443.963L443.265 99.0986C443.24 99.1989 443.216 99.3063 443.195 99.4209C443.177 99.5355 443.168 99.6447 443.168 99.7485C443.168 99.9276 443.215 100.078 443.308 100.2C443.401 100.318 443.556 100.377 443.775 100.377C443.911 100.377 444.04 100.364 444.162 100.339C444.287 100.314 444.419 100.278 444.559 100.232V100.919C444.47 100.962 444.333 101.004 444.151 101.043C443.972 101.086 443.802 101.107 443.641 101.107ZM445.596 101L447.368 92.6426H448.26L447.787 94.8125C447.758 94.9665 447.723 95.1258 447.68 95.2905C447.64 95.4517 447.599 95.6146 447.556 95.7793C447.513 95.9404 447.47 96.0998 447.427 96.2573H447.481C447.621 96.0675 447.785 95.8778 447.975 95.688C448.168 95.4982 448.392 95.3389 448.646 95.21C448.904 95.0811 449.194 95.0166 449.517 95.0166C449.825 95.0166 450.088 95.0721 450.306 95.1831C450.528 95.2941 450.698 95.4606 450.816 95.6826C450.938 95.901 450.999 96.1768 450.999 96.5098C450.999 96.6494 450.988 96.7926 450.967 96.9395C450.945 97.0827 450.918 97.2331 450.886 97.3906L450.113 101H449.216L450 97.2939C450.036 97.1328 450.061 96.995 450.075 96.8804C450.09 96.7658 450.097 96.6655 450.097 96.5796C450.097 96.3182 450.03 96.1159 449.898 95.9727C449.769 95.8294 449.561 95.7578 449.275 95.7578C449.006 95.7578 448.723 95.8491 448.426 96.0317C448.133 96.2108 447.861 96.4954 447.61 96.8857C447.363 97.2725 447.173 97.7791 447.041 98.4058L446.493 101H445.596ZM453.749 101.107C453.43 101.107 453.151 101.03 452.911 100.876C452.671 100.722 452.485 100.495 452.353 100.194C452.22 99.8936 452.154 99.5265 452.154 99.0933C452.154 98.66 452.199 98.2428 452.288 97.8418C452.381 97.4408 452.512 97.0684 452.68 96.7246C452.848 96.3809 453.051 96.0801 453.287 95.8223C453.527 95.5645 453.796 95.3639 454.093 95.2207C454.39 95.0775 454.71 95.0059 455.054 95.0059C455.319 95.0059 455.548 95.056 455.742 95.1562C455.939 95.2565 456.102 95.389 456.23 95.5537C456.363 95.7148 456.467 95.8867 456.542 96.0693H456.596L456.939 95.1133H457.622L456.375 101H455.661L455.822 99.8613H455.779C455.618 100.076 455.434 100.278 455.226 100.468C455.018 100.658 454.791 100.812 454.544 100.93C454.297 101.048 454.032 101.107 453.749 101.107ZM454.039 100.366C454.315 100.366 454.587 100.266 454.855 100.065C455.128 99.8613 455.371 99.5874 455.586 99.2437C455.804 98.8963 455.971 98.506 456.085 98.0728C456.143 97.8615 456.18 97.6681 456.198 97.4927C456.22 97.3136 456.23 97.1471 456.23 96.9932C456.23 96.6243 456.132 96.3271 455.935 96.1016C455.742 95.8724 455.477 95.7578 455.14 95.7578C454.9 95.7578 454.675 95.8187 454.463 95.9404C454.252 96.0586 454.061 96.2251 453.889 96.4399C453.72 96.6512 453.575 96.8983 453.454 97.1812C453.332 97.4604 453.237 97.7648 453.169 98.0942C453.104 98.4237 453.072 98.762 453.072 99.1094C453.072 99.5212 453.156 99.8345 453.325 100.049C453.493 100.261 453.731 100.366 454.039 100.366ZM459.829 101.107C459.439 101.107 459.113 101.014 458.852 100.828C458.594 100.638 458.465 100.314 458.465 99.856C458.465 99.745 458.472 99.625 458.486 99.4961C458.501 99.3636 458.524 99.2275 458.556 99.0879L459.249 95.7954H458.341L458.427 95.3818L459.405 95.0059L460.049 93.7598H460.581L460.286 95.1133H461.8L461.661 95.7954H460.151L459.453 99.0986C459.428 99.1989 459.405 99.3063 459.383 99.4209C459.365 99.5355 459.356 99.6447 459.356 99.7485C459.356 99.9276 459.403 100.078 459.496 100.2C459.589 100.318 459.745 100.377 459.963 100.377C460.099 100.377 460.228 100.364 460.35 100.339C460.475 100.314 460.608 100.278 460.748 100.232V100.919C460.658 100.962 460.522 101.004 460.339 101.043C460.16 101.086 459.99 101.107 459.829 101.107ZM466.457 101.107C466.138 101.107 465.859 101.03 465.619 100.876C465.379 100.722 465.193 100.495 465.061 100.194C464.928 99.8936 464.862 99.5265 464.862 99.0933C464.862 98.66 464.907 98.2428 464.996 97.8418C465.089 97.4408 465.22 97.0684 465.388 96.7246C465.556 96.3809 465.759 96.0801 465.995 95.8223C466.235 95.5645 466.504 95.3639 466.801 95.2207C467.098 95.0775 467.418 95.0059 467.762 95.0059C468.027 95.0059 468.256 95.056 468.45 95.1562C468.647 95.2565 468.81 95.389 468.938 95.5537C469.071 95.7148 469.175 95.8867 469.25 96.0693H469.304L469.647 95.1133H470.33L469.083 101H468.369L468.53 99.8613H468.487C468.326 100.076 468.142 100.278 467.934 100.468C467.726 100.658 467.499 100.812 467.252 100.93C467.005 101.048 466.74 101.107 466.457 101.107ZM466.747 100.366C467.023 100.366 467.295 100.266 467.563 100.065C467.836 99.8613 468.079 99.5874 468.294 99.2437C468.512 98.8963 468.679 98.506 468.793 98.0728C468.851 97.8615 468.888 97.6681 468.906 97.4927C468.928 97.3136 468.938 97.1471 468.938 96.9932C468.938 96.6243 468.84 96.3271 468.643 96.1016C468.45 95.8724 468.185 95.7578 467.848 95.7578C467.608 95.7578 467.383 95.8187 467.171 95.9404C466.96 96.0586 466.769 96.2251 466.597 96.4399C466.428 96.6512 466.283 96.8983 466.162 97.1812C466.04 97.4604 465.945 97.7648 465.877 98.0942C465.812 98.4237 465.78 98.762 465.78 99.1094C465.78 99.5212 465.864 99.8345 466.033 100.049C466.201 100.261 466.439 100.366 466.747 100.366ZM470.861 101L472.113 95.1133H472.843L472.704 96.252H472.757C472.908 96.0479 473.069 95.8509 473.241 95.6611C473.413 95.4678 473.608 95.3102 473.826 95.1885C474.048 95.0667 474.302 95.0059 474.589 95.0059C474.696 95.0059 474.806 95.013 474.917 95.0273C475.028 95.0381 475.131 95.0578 475.228 95.0864L475.035 95.8867C474.938 95.8652 474.843 95.8491 474.75 95.8384C474.66 95.8276 474.567 95.8223 474.471 95.8223C474.199 95.8223 473.946 95.8939 473.713 96.0371C473.481 96.1768 473.271 96.3647 473.085 96.6011C472.902 96.8374 472.747 97.1006 472.618 97.3906C472.492 97.6807 472.397 97.9761 472.333 98.2769L471.758 101H470.861ZM477.57 101.107C477.129 101.107 476.75 101.02 476.431 100.844C476.112 100.665 475.867 100.411 475.695 100.082C475.527 99.7485 475.443 99.3511 475.443 98.8892C475.443 98.4129 475.511 97.9456 475.647 97.4873C475.787 97.0254 475.985 96.6082 476.243 96.2358C476.501 95.8599 476.811 95.5609 477.172 95.3389C477.538 95.1169 477.946 95.0059 478.397 95.0059C478.938 95.0059 479.348 95.1276 479.627 95.3711C479.906 95.611 480.046 95.9422 480.046 96.3647C480.046 96.6619 479.976 96.9359 479.836 97.1865C479.7 97.4372 479.489 97.6556 479.203 97.8418C478.92 98.0244 478.56 98.1676 478.123 98.2715C477.69 98.3717 477.176 98.4219 476.582 98.4219H476.377C476.37 98.4863 476.363 98.5579 476.356 98.6367C476.352 98.7155 476.351 98.7889 476.351 98.8569C476.351 99.3296 476.465 99.7002 476.694 99.9688C476.924 100.234 477.267 100.366 477.726 100.366C478.008 100.366 478.275 100.327 478.526 100.248C478.78 100.166 479.045 100.058 479.321 99.9258V100.694C479.056 100.816 478.789 100.916 478.521 100.995C478.252 101.07 477.935 101.107 477.57 101.107ZM476.506 97.6914H476.635C477.094 97.6914 477.514 97.652 477.897 97.5732C478.281 97.4909 478.589 97.3584 478.821 97.1758C479.054 96.9896 479.17 96.7425 479.17 96.4346C479.17 96.234 479.102 96.0693 478.966 95.9404C478.83 95.8115 478.623 95.7471 478.343 95.7471C478.096 95.7471 477.853 95.8241 477.613 95.978C477.373 96.1284 477.154 96.3486 476.958 96.6387C476.764 96.9287 476.614 97.2796 476.506 97.6914ZM486.158 101.107C485.882 101.107 485.643 101.059 485.438 100.962C485.238 100.862 485.071 100.731 484.939 100.57C484.806 100.409 484.703 100.236 484.627 100.049H484.579L484.225 101H483.548L485.32 92.6426H486.212L485.782 94.6621C485.732 94.902 485.678 95.1401 485.621 95.3765C485.564 95.6092 485.512 95.8079 485.465 95.9727C485.422 96.1338 485.394 96.2287 485.379 96.2573H485.422C485.594 96.0389 485.779 95.8366 485.976 95.6504C486.176 95.4606 486.395 95.3084 486.631 95.1938C486.871 95.0757 487.132 95.0166 487.415 95.0166C487.744 95.0166 488.031 95.0936 488.274 95.2476C488.518 95.3979 488.706 95.6217 488.838 95.9189C488.974 96.2161 489.042 96.585 489.042 97.0254C489.042 97.4479 489 97.8597 488.914 98.2607C488.831 98.6582 488.709 99.0288 488.548 99.3726C488.387 99.7163 488.19 100.019 487.958 100.28C487.725 100.538 487.456 100.74 487.152 100.887C486.851 101.034 486.52 101.107 486.158 101.107ZM486.094 100.366C486.344 100.366 486.574 100.304 486.781 100.178C486.993 100.053 487.181 99.8828 487.345 99.668C487.514 99.4495 487.655 99.1971 487.77 98.9106C487.888 98.6242 487.977 98.3198 488.038 97.9976C488.099 97.6753 488.129 97.3477 488.129 97.0146C488.129 96.5993 488.045 96.286 487.877 96.0747C487.712 95.8634 487.465 95.7578 487.136 95.7578C486.964 95.7578 486.788 95.8008 486.609 95.8867C486.434 95.9691 486.264 96.0872 486.099 96.2412C485.934 96.3952 485.78 96.576 485.637 96.7837C485.498 96.9914 485.374 97.2205 485.267 97.4712C485.163 97.7218 485.08 97.9868 485.02 98.2661C484.959 98.5454 484.928 98.8301 484.928 99.1201C484.928 99.4961 485.023 99.7987 485.213 100.028C485.406 100.253 485.7 100.366 486.094 100.366ZM492.265 101.107C491.825 101.107 491.445 101.02 491.126 100.844C490.808 100.665 490.562 100.411 490.391 100.082C490.222 99.7485 490.138 99.3511 490.138 98.8892C490.138 98.4129 490.206 97.9456 490.342 97.4873C490.482 97.0254 490.681 96.6082 490.938 96.2358C491.196 95.8599 491.506 95.5609 491.868 95.3389C492.233 95.1169 492.641 95.0059 493.092 95.0059C493.633 95.0059 494.043 95.1276 494.322 95.3711C494.602 95.611 494.741 95.9422 494.741 96.3647C494.741 96.6619 494.671 96.9359 494.532 97.1865C494.396 97.4372 494.184 97.6556 493.898 97.8418C493.615 98.0244 493.255 98.1676 492.818 98.2715C492.385 98.3717 491.871 98.4219 491.277 98.4219H491.073C491.066 98.4863 491.058 98.5579 491.051 98.6367C491.048 98.7155 491.046 98.7889 491.046 98.8569C491.046 99.3296 491.16 99.7002 491.39 99.9688C491.619 100.234 491.963 100.366 492.421 100.366C492.704 100.366 492.971 100.327 493.221 100.248C493.475 100.166 493.74 100.058 494.016 99.9258V100.694C493.751 100.816 493.484 100.916 493.216 100.995C492.947 101.07 492.63 101.107 492.265 101.107ZM491.202 97.6914H491.331C491.789 97.6914 492.21 97.652 492.593 97.5732C492.976 97.4909 493.284 97.3584 493.517 97.1758C493.749 96.9896 493.866 96.7425 493.866 96.4346C493.866 96.234 493.798 96.0693 493.662 95.9404C493.526 95.8115 493.318 95.7471 493.039 95.7471C492.792 95.7471 492.548 95.8241 492.308 95.978C492.068 96.1284 491.85 96.3486 491.653 96.6387C491.459 96.9287 491.309 97.2796 491.202 97.6914ZM495.386 101L496.637 95.1133H497.534L496.283 101H495.386ZM497.389 94.082C497.246 94.082 497.126 94.0409 497.029 93.9585C496.936 93.8726 496.89 93.7526 496.89 93.5986C496.89 93.4805 496.913 93.3695 496.959 93.2656C497.01 93.1618 497.079 93.0794 497.169 93.0186C497.262 92.9541 497.375 92.9219 497.507 92.9219C497.665 92.9219 497.783 92.9631 497.862 93.0454C497.941 93.1278 497.98 93.2424 497.98 93.3892C497.98 93.6004 497.919 93.7687 497.797 93.894C497.676 94.0194 497.54 94.082 497.389 94.082ZM498.13 101L499.393 95.0864H500.182L500.042 96.2197H500.053C500.189 96.0335 500.352 95.8455 500.542 95.6558C500.735 95.4624 500.959 95.3013 501.213 95.1724C501.471 95.0399 501.763 94.9736 502.089 94.9736C502.404 94.9736 502.674 95.0327 502.9 95.1509C503.125 95.2655 503.299 95.4338 503.421 95.6558C503.543 95.8742 503.604 96.1392 503.604 96.4507C503.604 96.6154 503.591 96.7819 503.566 96.9502C503.541 97.1185 503.514 97.2689 503.485 97.4014L502.701 101H501.75L502.545 97.2832C502.578 97.1221 502.603 96.9842 502.621 96.8696C502.642 96.755 502.653 96.6476 502.653 96.5474C502.653 96.2967 502.585 96.1069 502.449 95.978C502.313 95.8491 502.112 95.7847 501.847 95.7847C501.586 95.7847 501.31 95.8742 501.02 96.0532C500.73 96.2323 500.461 96.5151 500.214 96.9019C499.967 97.285 499.776 97.7863 499.64 98.4058L499.086 101H498.13ZM505.897 103.643C505.206 103.643 504.665 103.51 504.275 103.245C503.885 102.984 503.689 102.615 503.689 102.139C503.689 101.756 503.82 101.423 504.082 101.14C504.339 100.86 504.755 100.626 505.328 100.436C505.192 100.364 505.088 100.275 505.016 100.167C504.948 100.056 504.914 99.9294 504.914 99.7861C504.914 99.5426 505.004 99.3332 505.183 99.1577C505.362 98.9787 505.612 98.814 505.935 98.6636C505.705 98.5454 505.521 98.3717 505.381 98.1426C505.242 97.9134 505.172 97.6502 505.172 97.353C505.175 96.9985 505.236 96.6745 505.354 96.3809C505.473 96.0872 505.639 95.8366 505.854 95.6289C506.055 95.4355 506.289 95.2852 506.558 95.1777C506.83 95.0703 507.125 95.0166 507.444 95.0166C507.58 95.0166 507.716 95.0256 507.852 95.0435C507.988 95.0614 508.122 95.0882 508.255 95.124H510.242L510.113 95.6665L508.948 95.7847C509.03 95.8957 509.091 96.0264 509.13 96.1768C509.173 96.3271 509.193 96.4937 509.189 96.6763C509.189 97.0272 509.13 97.3441 509.012 97.627C508.894 97.9098 508.726 98.1497 508.507 98.3467C508.31 98.5221 508.076 98.6582 507.804 98.7549C507.535 98.848 507.234 98.8963 506.901 98.8999C506.805 98.8999 506.719 98.8963 506.644 98.8892C506.568 98.882 506.504 98.8713 506.45 98.8569C506.189 98.95 505.995 99.0592 505.87 99.1846C505.745 99.3099 505.682 99.4424 505.682 99.582C505.682 99.6823 505.713 99.7629 505.773 99.8237C505.831 99.8774 505.91 99.9186 506.01 99.9473C506.114 99.9723 506.241 99.9938 506.391 100.012L507.025 100.082C507.455 100.132 507.806 100.218 508.078 100.339C508.35 100.458 508.55 100.619 508.679 100.823C508.808 101.027 508.873 101.279 508.873 101.58C508.873 101.96 508.785 102.287 508.609 102.563C508.434 102.842 508.181 103.07 507.852 103.245C507.601 103.374 507.311 103.472 506.982 103.541C506.656 103.609 506.294 103.643 505.897 103.643ZM505.935 102.993C506.26 102.993 506.55 102.964 506.805 102.907C507.062 102.849 507.281 102.767 507.46 102.66C507.653 102.542 507.8 102.398 507.9 102.23C508.004 102.062 508.056 101.868 508.056 101.65C508.056 101.553 508.04 101.465 508.008 101.387C507.979 101.308 507.933 101.238 507.868 101.177C507.768 101.081 507.625 101.002 507.438 100.941C507.252 100.88 507.016 100.837 506.729 100.812L505.87 100.726C505.569 100.791 505.317 100.885 505.113 101.011C504.912 101.14 504.76 101.292 504.656 101.467C504.552 101.643 504.5 101.84 504.5 102.058C504.5 102.352 504.622 102.581 504.866 102.746C505.109 102.91 505.465 102.993 505.935 102.993ZM506.939 98.3091C507.247 98.3091 507.507 98.2321 507.718 98.0781C507.933 97.9206 508.097 97.7129 508.212 97.4551C508.326 97.1937 508.384 96.909 508.384 96.6011C508.384 96.4471 508.362 96.311 508.319 96.1929C508.28 96.0711 508.219 95.9709 508.137 95.8921C508.058 95.8097 507.958 95.7471 507.836 95.7041C507.718 95.6611 507.582 95.6396 507.428 95.6396C507.202 95.6396 507 95.6844 506.821 95.7739C506.642 95.8599 506.49 95.9798 506.364 96.1338C506.243 96.2878 506.148 96.4668 506.08 96.6709C506.015 96.875 505.983 97.0934 505.983 97.3262C505.983 97.4766 506.003 97.6108 506.042 97.729C506.081 97.8472 506.139 97.9474 506.214 98.0298C506.379 98.216 506.62 98.3091 506.939 98.3091ZM513.078 101L514.33 95.1133H515.06L514.92 96.252H514.974C515.125 96.0479 515.286 95.8509 515.458 95.6611C515.629 95.4678 515.825 95.3102 516.043 95.1885C516.265 95.0667 516.519 95.0059 516.806 95.0059C516.913 95.0059 517.022 95.013 517.133 95.0273C517.244 95.0381 517.348 95.0578 517.445 95.0864L517.251 95.8867C517.155 95.8652 517.06 95.8491 516.967 95.8384C516.877 95.8276 516.784 95.8223 516.688 95.8223C516.415 95.8223 516.163 95.8939 515.93 96.0371C515.697 96.1768 515.488 96.3647 515.302 96.6011C515.119 96.8374 514.963 97.1006 514.834 97.3906C514.709 97.6807 514.614 97.9761 514.55 98.2769L513.975 101H513.078ZM519.787 101.107C519.346 101.107 518.967 101.02 518.648 100.844C518.329 100.665 518.084 100.411 517.912 100.082C517.744 99.7485 517.66 99.3511 517.66 98.8892C517.66 98.4129 517.728 97.9456 517.864 97.4873C518.003 97.0254 518.202 96.6082 518.46 96.2358C518.718 95.8599 519.028 95.5609 519.389 95.3389C519.754 95.1169 520.163 95.0059 520.614 95.0059C521.154 95.0059 521.564 95.1276 521.844 95.3711C522.123 95.611 522.263 95.9422 522.263 96.3647C522.263 96.6619 522.193 96.9359 522.053 97.1865C521.917 97.4372 521.706 97.6556 521.419 97.8418C521.137 98.0244 520.777 98.1676 520.34 98.2715C519.907 98.3717 519.393 98.4219 518.798 98.4219H518.594C518.587 98.4863 518.58 98.5579 518.573 98.6367C518.569 98.7155 518.567 98.7889 518.567 98.8569C518.567 99.3296 518.682 99.7002 518.911 99.9688C519.14 100.234 519.484 100.366 519.942 100.366C520.225 100.366 520.492 100.327 520.743 100.248C520.997 100.166 521.262 100.058 521.538 99.9258V100.694C521.273 100.816 521.006 100.916 520.737 100.995C520.469 101.07 520.152 101.107 519.787 101.107ZM518.723 97.6914H518.852C519.31 97.6914 519.731 97.652 520.114 97.5732C520.497 97.4909 520.805 97.3584 521.038 97.1758C521.271 96.9896 521.387 96.7425 521.387 96.4346C521.387 96.234 521.319 96.0693 521.183 95.9404C521.047 95.8115 520.839 95.7471 520.56 95.7471C520.313 95.7471 520.069 95.8241 519.83 95.978C519.59 96.1284 519.371 96.3486 519.174 96.6387C518.981 96.9287 518.831 97.2796 518.723 97.6914ZM525.926 103.632L526.458 101.14C526.483 101.039 526.513 100.914 526.549 100.764C526.588 100.61 526.629 100.452 526.672 100.291C526.715 100.13 526.753 99.9849 526.785 99.856H526.742C526.577 100.074 526.393 100.28 526.189 100.474C525.988 100.663 525.768 100.817 525.528 100.936C525.288 101.05 525.025 101.107 524.739 101.107C524.413 101.107 524.128 101.032 523.885 100.882C523.645 100.728 523.459 100.502 523.326 100.205C523.194 99.9043 523.127 99.5337 523.127 99.0933C523.127 98.6743 523.17 98.2661 523.256 97.8687C523.342 97.4676 523.466 97.0952 523.627 96.7515C523.792 96.4041 523.992 96.0998 524.229 95.8384C524.468 95.577 524.739 95.3729 525.04 95.2261C525.344 95.0793 525.679 95.0059 526.044 95.0059C526.316 95.0059 526.549 95.056 526.742 95.1562C526.939 95.2565 527.104 95.3872 527.236 95.5483C527.369 95.7095 527.471 95.8831 527.542 96.0693H527.596L527.951 95.1133H528.622L526.812 103.632H525.926ZM525.029 100.366C525.201 100.366 525.373 100.325 525.544 100.243C525.72 100.157 525.89 100.037 526.055 99.8828C526.219 99.7253 526.372 99.5426 526.511 99.335C526.654 99.1237 526.78 98.8927 526.887 98.6421C526.995 98.3914 527.079 98.1283 527.14 97.8525C527.201 97.5732 527.231 97.2904 527.231 97.0039C527.231 96.653 527.14 96.3576 526.957 96.1177C526.774 95.8778 526.488 95.7578 526.098 95.7578C525.851 95.7578 525.621 95.8205 525.41 95.9458C525.199 96.0711 525.009 96.243 524.841 96.4614C524.673 96.6799 524.529 96.9323 524.411 97.2188C524.293 97.5016 524.202 97.806 524.137 98.1318C524.076 98.4541 524.046 98.7799 524.046 99.1094C524.046 99.5212 524.126 99.8345 524.288 100.049C524.452 100.261 524.699 100.366 525.029 100.366ZM531.034 101.107C530.736 101.107 530.477 101.052 530.255 100.941C530.033 100.83 529.861 100.667 529.739 100.452C529.621 100.234 529.562 99.967 529.562 99.6519C529.562 99.4943 529.573 99.3421 529.594 99.1953C529.619 99.0449 529.646 98.8892 529.675 98.728L530.454 95.1133H531.356L530.556 98.8301C530.527 98.984 530.504 99.1219 530.486 99.2437C530.472 99.3618 530.464 99.4674 530.464 99.5605C530.464 99.8148 530.529 100.014 530.658 100.157C530.79 100.296 531 100.366 531.286 100.366C531.555 100.366 531.836 100.275 532.129 100.092C532.427 99.9097 532.701 99.6232 532.951 99.2329C533.205 98.839 533.399 98.3288 533.531 97.7021L534.079 95.1133H534.96L533.714 101H532.978L533.123 99.8613H533.075C532.939 100.048 532.774 100.237 532.581 100.431C532.387 100.62 532.163 100.782 531.909 100.914C531.655 101.043 531.363 101.107 531.034 101.107ZM537.962 101.107C537.522 101.107 537.142 101.02 536.824 100.844C536.505 100.665 536.26 100.411 536.088 100.082C535.92 99.7485 535.835 99.3511 535.835 98.8892C535.835 98.4129 535.903 97.9456 536.04 97.4873C536.179 97.0254 536.378 96.6082 536.636 96.2358C536.894 95.8599 537.203 95.5609 537.565 95.3389C537.93 95.1169 538.338 95.0059 538.79 95.0059C539.33 95.0059 539.74 95.1276 540.02 95.3711C540.299 95.611 540.438 95.9422 540.438 96.3647C540.438 96.6619 540.369 96.9359 540.229 97.1865C540.093 97.4372 539.882 97.6556 539.595 97.8418C539.312 98.0244 538.952 98.1676 538.516 98.2715C538.082 98.3717 537.569 98.4219 536.974 98.4219H536.77C536.763 98.4863 536.756 98.5579 536.749 98.6367C536.745 98.7155 536.743 98.7889 536.743 98.8569C536.743 99.3296 536.858 99.7002 537.087 99.9688C537.316 100.234 537.66 100.366 538.118 100.366C538.401 100.366 538.668 100.327 538.918 100.248C539.173 100.166 539.438 100.058 539.713 99.9258V100.694C539.448 100.816 539.182 100.916 538.913 100.995C538.645 101.07 538.328 101.107 537.962 101.107ZM536.899 97.6914H537.028C537.486 97.6914 537.907 97.652 538.29 97.5732C538.673 97.4909 538.981 97.3584 539.214 97.1758C539.447 96.9896 539.563 96.7425 539.563 96.4346C539.563 96.234 539.495 96.0693 539.359 95.9404C539.223 95.8115 539.015 95.7471 538.736 95.7471C538.489 95.7471 538.245 95.8241 538.005 95.978C537.765 96.1284 537.547 96.3486 537.35 96.6387C537.157 96.9287 537.006 97.2796 536.899 97.6914ZM542.485 101.107C542.127 101.107 541.812 101.072 541.54 101C541.271 100.928 541.036 100.839 540.836 100.731V99.9043C541.026 100.019 541.266 100.126 541.556 100.227C541.849 100.327 542.15 100.377 542.458 100.377C542.762 100.377 543.015 100.336 543.215 100.253C543.419 100.171 543.572 100.058 543.672 99.915C543.776 99.7682 543.828 99.5981 543.828 99.4048C543.828 99.2508 543.794 99.1183 543.726 99.0073C543.661 98.8927 543.554 98.7817 543.403 98.6743C543.257 98.5669 543.06 98.4434 542.812 98.3037C542.537 98.1497 542.304 97.994 542.114 97.8364C541.924 97.6789 541.779 97.507 541.679 97.3208C541.583 97.131 541.534 96.9108 541.534 96.6602C541.534 96.3236 541.617 96.0317 541.781 95.7847C541.946 95.5376 542.177 95.346 542.474 95.21C542.775 95.0739 543.126 95.0059 543.527 95.0059C543.881 95.0059 544.209 95.047 544.51 95.1294C544.811 95.2082 545.07 95.2995 545.289 95.4033L544.999 96.1177C544.812 96.0282 544.599 95.9458 544.359 95.8706C544.119 95.7954 543.842 95.7578 543.527 95.7578C543.19 95.7578 542.922 95.8348 542.721 95.9888C542.524 96.1427 542.426 96.3504 542.426 96.6118C542.426 96.7479 542.454 96.8696 542.512 96.9771C542.573 97.0845 542.676 97.1919 542.823 97.2993C542.97 97.4032 543.171 97.5249 543.425 97.6646C543.672 97.8078 543.894 97.9546 544.091 98.105C544.291 98.2518 544.449 98.4219 544.563 98.6152C544.682 98.805 544.741 99.0396 544.741 99.3188C544.741 99.702 544.649 100.028 544.467 100.296C544.284 100.561 544.023 100.764 543.683 100.903C543.346 101.039 542.947 101.107 542.485 101.107ZM547.507 101.107C547.117 101.107 546.791 101.014 546.529 100.828C546.271 100.638 546.143 100.314 546.143 99.856C546.143 99.745 546.15 99.625 546.164 99.4961C546.178 99.3636 546.202 99.2275 546.234 99.0879L546.927 95.7954H546.019L546.105 95.3818L547.083 95.0059L547.727 93.7598H548.259L547.963 95.1133H549.478L549.338 95.7954H547.829L547.131 99.0986C547.106 99.1989 547.083 99.3063 547.061 99.4209C547.043 99.5355 547.034 99.6447 547.034 99.7485C547.034 99.9276 547.081 100.078 547.174 100.2C547.267 100.318 547.423 100.377 547.641 100.377C547.777 100.377 547.906 100.364 548.028 100.339C548.153 100.314 548.286 100.278 548.425 100.232V100.919C548.336 100.962 548.2 101.004 548.017 101.043C547.838 101.086 547.668 101.107 547.507 101.107ZM551.82 101.107C551.379 101.107 551 101.02 550.681 100.844C550.362 100.665 550.117 100.411 549.945 100.082C549.777 99.7485 549.693 99.3511 549.693 98.8892C549.693 98.4129 549.761 97.9456 549.897 97.4873C550.037 97.0254 550.235 96.6082 550.493 96.2358C550.751 95.8599 551.061 95.5609 551.422 95.3389C551.788 95.1169 552.196 95.0059 552.647 95.0059C553.188 95.0059 553.598 95.1276 553.877 95.3711C554.156 95.611 554.296 95.9422 554.296 96.3647C554.296 96.6619 554.226 96.9359 554.086 97.1865C553.95 97.4372 553.739 97.6556 553.453 97.8418C553.17 98.0244 552.81 98.1676 552.373 98.2715C551.94 98.3717 551.426 98.4219 550.832 98.4219H550.627C550.62 98.4863 550.613 98.5579 550.606 98.6367C550.602 98.7155 550.601 98.7889 550.601 98.8569C550.601 99.3296 550.715 99.7002 550.944 99.9688C551.174 100.234 551.517 100.366 551.976 100.366C552.258 100.366 552.525 100.327 552.776 100.248C553.03 100.166 553.295 100.058 553.571 99.9258V100.694C553.306 100.816 553.039 100.916 552.771 100.995C552.502 101.07 552.185 101.107 551.82 101.107ZM550.756 97.6914H550.885C551.344 97.6914 551.764 97.652 552.147 97.5732C552.531 97.4909 552.839 97.3584 553.071 97.1758C553.304 96.9896 553.42 96.7425 553.42 96.4346C553.42 96.234 553.352 96.0693 553.216 95.9404C553.08 95.8115 552.873 95.7471 552.593 95.7471C552.346 95.7471 552.103 95.8241 551.863 95.978C551.623 96.1284 551.404 96.3486 551.208 96.6387C551.014 96.9287 550.864 97.2796 550.756 97.6914ZM556.761 101.107C556.439 101.107 556.158 101.032 555.918 100.882C555.678 100.731 555.492 100.508 555.359 100.21C555.227 99.9097 555.161 99.5373 555.161 99.0933C555.161 98.6707 555.204 98.2607 555.29 97.8633C555.375 97.4622 555.499 97.0898 555.66 96.7461C555.825 96.4023 556.025 96.1016 556.262 95.8438C556.498 95.5824 556.767 95.38 557.067 95.2368C557.372 95.09 557.705 95.0166 558.066 95.0166C558.342 95.0166 558.578 95.0667 558.775 95.167C558.972 95.2673 559.135 95.3979 559.264 95.5591C559.397 95.7166 559.5 95.8867 559.576 96.0693H559.629C559.651 95.9046 559.672 95.7453 559.694 95.5913C559.715 95.4338 559.74 95.2744 559.769 95.1133C559.801 94.9521 559.837 94.7856 559.876 94.6138L560.29 92.6426H561.176L559.404 101H558.668L558.813 99.8613H558.775C558.604 100.083 558.416 100.289 558.211 100.479C558.011 100.669 557.791 100.821 557.551 100.936C557.311 101.05 557.048 101.107 556.761 101.107ZM557.062 100.366C557.23 100.366 557.4 100.325 557.572 100.243C557.748 100.16 557.918 100.044 558.083 99.8936C558.247 99.7396 558.401 99.5588 558.544 99.3511C558.688 99.1434 558.813 98.9142 558.92 98.6636C559.031 98.4129 559.117 98.1479 559.178 97.8687C559.239 97.5894 559.27 97.3011 559.27 97.0039C559.27 96.6243 559.178 96.3218 558.996 96.0962C558.813 95.8706 558.521 95.7578 558.12 95.7578C557.873 95.7578 557.644 95.8205 557.433 95.9458C557.225 96.0711 557.037 96.243 556.869 96.4614C556.7 96.6799 556.557 96.9323 556.439 97.2188C556.324 97.5016 556.235 97.806 556.17 98.1318C556.11 98.4541 556.079 98.7799 556.079 99.1094C556.079 99.5212 556.161 99.8345 556.326 100.049C556.491 100.261 556.736 100.366 557.062 100.366ZM561.756 101.15C561.588 101.15 561.457 101.102 561.364 101.005C561.271 100.912 561.225 100.78 561.225 100.608C561.225 100.382 561.287 100.184 561.413 100.012C561.542 99.8363 561.742 99.7485 562.014 99.7485C562.165 99.7485 562.286 99.7951 562.379 99.8882C562.472 99.9813 562.519 100.117 562.519 100.296C562.519 100.508 562.456 100.703 562.331 100.882C562.206 101.061 562.014 101.15 561.756 101.15Z" fill="#61656E"/>
</svg>
