<svg width="880" height="80" viewBox="0 0 880 80" fill="none" xmlns="http://www.w3.org/2000/svg">
<rect width="880" height="80" fill="#F2F4F6"/>
<path d="M25.3672 28.0059H28.1973C29.446 28.0059 30.3848 28.1927 31.0137 28.5664C31.6426 28.9401 31.957 29.5758 31.957 30.4736C31.957 30.861 31.8818 31.2096 31.7314 31.5195C31.5856 31.8249 31.3714 32.0778 31.0889 32.2783C30.8063 32.4788 30.4577 32.6178 30.043 32.6953V32.7637C30.4805 32.832 30.8678 32.9574 31.2051 33.1396C31.5423 33.3219 31.8066 33.5771 31.998 33.9053C32.1895 34.2334 32.2852 34.6504 32.2852 35.1562C32.2852 35.7715 32.1416 36.291 31.8545 36.7148C31.5719 37.1387 31.1709 37.46 30.6514 37.6787C30.1318 37.8929 29.5166 38 28.8057 38H25.3672V28.0059ZM26.5293 32.292H28.4434C29.3138 32.292 29.9154 32.1484 30.248 31.8613C30.5853 31.5742 30.7539 31.1549 30.7539 30.6035C30.7539 30.0339 30.5534 29.6237 30.1523 29.373C29.7559 29.1224 29.1224 28.9971 28.252 28.9971H26.5293V32.292ZM26.5293 33.2695V37.0088H28.6074C29.4961 37.0088 30.125 36.8356 30.4941 36.4893C30.8633 36.1383 31.0479 35.6667 31.0479 35.0742C31.0479 34.696 30.9635 34.3724 30.7949 34.1035C30.6309 33.8346 30.362 33.6296 29.9883 33.4883C29.6191 33.3424 29.1247 33.2695 28.5049 33.2695H26.5293ZM40.707 34.2402C40.707 34.8555 40.6273 35.4046 40.4678 35.8877C40.3083 36.3708 40.0781 36.7786 39.7773 37.1113C39.4766 37.444 39.112 37.6992 38.6836 37.877C38.2598 38.0501 37.779 38.1367 37.2412 38.1367C36.7399 38.1367 36.2796 38.0501 35.8604 37.877C35.4456 37.6992 35.0856 37.444 34.7803 37.1113C34.4795 36.7786 34.2448 36.3708 34.0762 35.8877C33.9121 35.4046 33.8301 34.8555 33.8301 34.2402C33.8301 33.4199 33.9691 32.7227 34.2471 32.1484C34.5251 31.5697 34.9215 31.1299 35.4365 30.8291C35.9561 30.5238 36.5736 30.3711 37.2891 30.3711C37.9727 30.3711 38.5697 30.5238 39.0801 30.8291C39.5951 31.1344 39.9938 31.5765 40.2764 32.1553C40.5635 32.7295 40.707 33.4245 40.707 34.2402ZM35.0059 34.2402C35.0059 34.8418 35.0856 35.3636 35.2451 35.8057C35.4046 36.2477 35.6507 36.5895 35.9834 36.8311C36.3161 37.0726 36.7445 37.1934 37.2686 37.1934C37.7881 37.1934 38.2142 37.0726 38.5469 36.8311C38.8841 36.5895 39.1325 36.2477 39.292 35.8057C39.4515 35.3636 39.5312 34.8418 39.5312 34.2402C39.5312 33.6432 39.4515 33.1283 39.292 32.6953C39.1325 32.2578 38.8864 31.9206 38.5537 31.6836C38.221 31.4466 37.7904 31.3281 37.2617 31.3281C36.4824 31.3281 35.9105 31.5856 35.5459 32.1006C35.1859 32.6156 35.0059 33.3288 35.0059 34.2402ZM45.335 38.1367C44.387 38.1367 43.6351 37.8132 43.0791 37.166C42.5277 36.5189 42.252 35.5573 42.252 34.2812C42.252 32.9915 42.5345 32.0186 43.0996 31.3623C43.6647 30.7015 44.4167 30.3711 45.3555 30.3711C45.752 30.3711 46.0983 30.4235 46.3945 30.5283C46.6908 30.6331 46.946 30.7744 47.1602 30.9521C47.3743 31.1253 47.5544 31.3236 47.7002 31.5469H47.7822C47.764 31.4056 47.7458 31.2119 47.7275 30.9658C47.7093 30.7197 47.7002 30.5192 47.7002 30.3643V27.3633H48.835V38H47.9189L47.748 36.9336H47.7002C47.5589 37.1569 47.3789 37.3597 47.1602 37.542C46.946 37.7243 46.6885 37.8701 46.3877 37.9795C46.0915 38.0843 45.7406 38.1367 45.335 38.1367ZM45.5127 37.1934C46.3148 37.1934 46.8822 36.9655 47.2148 36.5098C47.5475 36.054 47.7139 35.3773 47.7139 34.4795V34.2744C47.7139 33.3219 47.5544 32.5905 47.2354 32.0801C46.9209 31.5697 46.3467 31.3145 45.5127 31.3145C44.8154 31.3145 44.2936 31.5833 43.9473 32.1211C43.6009 32.6543 43.4277 33.3835 43.4277 34.3086C43.4277 35.2292 43.5986 35.9401 43.9404 36.4414C44.2868 36.9427 44.8109 37.1934 45.5127 37.1934ZM50.0586 30.5078H51.2754L52.9297 34.8555C53.0254 35.1107 53.1143 35.3568 53.1963 35.5938C53.2783 35.8262 53.3512 36.0495 53.415 36.2637C53.4788 36.4779 53.529 36.6852 53.5654 36.8857H53.6133C53.6771 36.6579 53.7682 36.3594 53.8867 35.9902C54.0052 35.6165 54.1328 35.236 54.2695 34.8486L55.835 30.5078H57.0586L53.7979 39.1006C53.6247 39.5609 53.4219 39.9619 53.1895 40.3037C52.9616 40.6455 52.6836 40.9076 52.3555 41.0898C52.0273 41.2767 51.6309 41.3701 51.166 41.3701C50.9518 41.3701 50.7627 41.3564 50.5986 41.3291C50.4346 41.3063 50.2933 41.279 50.1748 41.2471V40.3379C50.2751 40.3607 50.3958 40.3812 50.5371 40.3994C50.6829 40.4176 50.8333 40.4268 50.9883 40.4268C51.2708 40.4268 51.5146 40.3721 51.7197 40.2627C51.9294 40.1579 52.1094 40.0029 52.2598 39.7979C52.4102 39.5928 52.54 39.349 52.6494 39.0664L53.0596 38.0137L50.0586 30.5078Z" fill="#61656E"/>
<path d="M138.545 37L137.49 34.2812H134.057L133.008 37H132L135.352 28.3984H136.248L139.576 37H138.545ZM137.191 33.3965L136.189 30.6953C136.166 30.625 136.127 30.5098 136.072 30.3496C136.021 30.1895 135.969 30.0234 135.914 29.8516C135.859 29.6797 135.814 29.541 135.779 29.4355C135.74 29.5957 135.697 29.7559 135.65 29.916C135.607 30.0723 135.564 30.2188 135.521 30.3555C135.479 30.4883 135.441 30.6016 135.41 30.6953L134.391 33.3965H137.191ZM143.021 30.4727C143.787 30.4727 144.355 30.6445 144.727 30.9883C145.098 31.332 145.283 31.8809 145.283 32.6348V37H144.574L144.387 36.0508H144.34C144.16 36.2852 143.973 36.4824 143.777 36.6426C143.582 36.7988 143.355 36.918 143.098 37C142.844 37.0781 142.531 37.1172 142.16 37.1172C141.77 37.1172 141.422 37.0488 141.117 36.9121C140.816 36.7754 140.578 36.5684 140.402 36.291C140.23 36.0137 140.145 35.6621 140.145 35.2363C140.145 34.5957 140.398 34.1035 140.906 33.7598C141.414 33.416 142.188 33.2285 143.227 33.1973L144.334 33.1504V32.7578C144.334 32.2031 144.215 31.8145 143.977 31.5918C143.738 31.3691 143.402 31.2578 142.969 31.2578C142.633 31.2578 142.312 31.3066 142.008 31.4043C141.703 31.502 141.414 31.6172 141.141 31.75L140.842 31.0117C141.131 30.8633 141.463 30.7363 141.838 30.6309C142.213 30.5254 142.607 30.4727 143.021 30.4727ZM144.322 33.8359L143.344 33.877C142.543 33.9082 141.979 34.0391 141.65 34.2695C141.322 34.5 141.158 34.8262 141.158 35.248C141.158 35.6152 141.27 35.8867 141.492 36.0625C141.715 36.2383 142.01 36.3262 142.377 36.3262C142.947 36.3262 143.414 36.168 143.777 35.8516C144.141 35.5352 144.322 35.0605 144.322 34.4277V33.8359ZM147.434 28.4336H149.859C150.93 28.4336 151.734 28.5938 152.273 28.9141C152.812 29.2344 153.082 29.7793 153.082 30.5488C153.082 30.8809 153.018 31.1797 152.889 31.4453C152.764 31.707 152.58 31.9238 152.338 32.0957C152.096 32.2676 151.797 32.3867 151.441 32.4531V32.5117C151.816 32.5703 152.148 32.6777 152.438 32.834C152.727 32.9902 152.953 33.209 153.117 33.4902C153.281 33.7715 153.363 34.1289 153.363 34.5625C153.363 35.0898 153.24 35.5352 152.994 35.8984C152.752 36.2617 152.408 36.5371 151.963 36.7246C151.518 36.9082 150.99 37 150.381 37H147.434V28.4336ZM148.43 32.1074H150.07C150.816 32.1074 151.332 31.9844 151.617 31.7383C151.906 31.4922 152.051 31.1328 152.051 30.6602C152.051 30.1719 151.879 29.8203 151.535 29.6055C151.195 29.3906 150.652 29.2832 149.906 29.2832H148.43V32.1074ZM148.43 32.9453V36.1504H150.211C150.973 36.1504 151.512 36.002 151.828 35.7051C152.145 35.4043 152.303 35 152.303 34.4922C152.303 34.168 152.23 33.8906 152.086 33.6602C151.945 33.4297 151.715 33.2539 151.395 33.1328C151.078 33.0078 150.654 32.9453 150.123 32.9453H148.43ZM156.018 27.8828V30.1621C156.018 30.4238 156.01 30.6777 155.994 30.9238C155.982 31.1699 155.973 31.3613 155.965 31.498H156.018C156.193 31.209 156.447 30.9648 156.779 30.7656C157.111 30.5664 157.535 30.4668 158.051 30.4668C158.855 30.4668 159.496 30.7461 159.973 31.3047C160.453 31.8594 160.693 32.6855 160.693 33.7832C160.693 34.5059 160.584 35.1152 160.365 35.6113C160.146 36.1074 159.838 36.4824 159.439 36.7363C159.041 36.9902 158.57 37.1172 158.027 37.1172C157.52 37.1172 157.102 37.0234 156.773 36.8359C156.449 36.6445 156.199 36.4121 156.023 36.1387H155.947L155.748 37H155.045V27.8828H156.018ZM157.893 31.2812C157.428 31.2812 157.059 31.373 156.785 31.5566C156.512 31.7363 156.314 32.0098 156.193 32.377C156.076 32.7402 156.018 33.2012 156.018 33.7598V33.8125C156.018 34.6211 156.152 35.2402 156.422 35.6699C156.691 36.0957 157.182 36.3086 157.893 36.3086C158.49 36.3086 158.938 36.0898 159.234 35.6523C159.535 35.2148 159.686 34.5898 159.686 33.7773C159.686 32.9492 159.537 32.3262 159.24 31.9082C158.947 31.4902 158.498 31.2812 157.893 31.2812ZM166.201 29.1895C165.729 29.1895 165.303 29.2715 164.924 29.4355C164.549 29.5957 164.229 29.8301 163.963 30.1387C163.701 30.4434 163.5 30.8125 163.359 31.2461C163.219 31.6797 163.148 32.168 163.148 32.7109C163.148 33.4297 163.26 34.0547 163.482 34.5859C163.709 35.1133 164.045 35.5215 164.49 35.8105C164.939 36.0996 165.5 36.2441 166.172 36.2441C166.555 36.2441 166.914 36.2129 167.25 36.1504C167.59 36.084 167.92 36.002 168.24 35.9043V36.7715C167.928 36.8887 167.6 36.9746 167.256 37.0293C166.912 37.0879 166.504 37.1172 166.031 37.1172C165.16 37.1172 164.432 36.9375 163.846 36.5781C163.264 36.2148 162.826 35.7031 162.533 35.043C162.244 34.3828 162.1 33.6035 162.1 32.7051C162.1 32.0566 162.189 31.4648 162.369 30.9297C162.553 30.3906 162.818 29.9258 163.166 29.5352C163.518 29.1445 163.947 28.8438 164.455 28.6328C164.967 28.418 165.553 28.3105 166.213 28.3105C166.646 28.3105 167.064 28.3535 167.467 28.4395C167.869 28.5254 168.232 28.6484 168.557 28.8086L168.158 29.6523C167.885 29.5273 167.584 29.4199 167.256 29.3301C166.932 29.2363 166.58 29.1895 166.201 29.1895ZM172.523 37.1172C171.945 37.1172 171.436 36.998 170.994 36.7598C170.553 36.5215 170.209 36.1582 169.963 35.6699C169.717 35.1816 169.594 34.5664 169.594 33.8242C169.594 33.0469 169.723 32.4121 169.98 31.9199C170.242 31.4238 170.602 31.0566 171.059 30.8184C171.516 30.5801 172.035 30.4609 172.617 30.4609C172.938 30.4609 173.246 30.4941 173.543 30.5605C173.844 30.623 174.09 30.7031 174.281 30.8008L173.988 31.6152C173.793 31.5371 173.566 31.4668 173.309 31.4043C173.055 31.3418 172.816 31.3105 172.594 31.3105C172.148 31.3105 171.777 31.4062 171.48 31.5977C171.188 31.7891 170.967 32.0703 170.818 32.4414C170.674 32.8125 170.602 33.2695 170.602 33.8125C170.602 34.332 170.672 34.7754 170.812 35.1426C170.957 35.5098 171.17 35.791 171.451 35.9863C171.736 36.1777 172.092 36.2734 172.518 36.2734C172.857 36.2734 173.164 36.2383 173.438 36.168C173.711 36.0938 173.959 36.0078 174.182 35.9102V36.7773C173.967 36.8867 173.727 36.9707 173.461 37.0293C173.199 37.0879 172.887 37.1172 172.523 37.1172ZM182.654 32.6348C182.654 33.5996 182.479 34.4062 182.127 35.0547C181.775 35.6992 181.266 36.1855 180.598 36.5137C179.934 36.8379 179.127 37 178.178 37H175.852V28.4336H178.436C179.307 28.4336 180.057 28.5938 180.686 28.9141C181.314 29.2305 181.799 29.7012 182.139 30.3262C182.482 30.9473 182.654 31.7168 182.654 32.6348ZM181.605 32.6699C181.605 31.9004 181.477 31.2656 181.219 30.7656C180.965 30.2656 180.59 29.8945 180.094 29.6523C179.602 29.4062 178.998 29.2832 178.283 29.2832H176.848V36.1445H178.061C179.24 36.1445 180.125 35.8535 180.715 35.2715C181.309 34.6895 181.605 33.8223 181.605 32.6699ZM186.697 37.1172C185.885 37.1172 185.24 36.8398 184.764 36.2852C184.291 35.7305 184.055 34.9062 184.055 33.8125C184.055 32.707 184.297 31.873 184.781 31.3105C185.266 30.7441 185.91 30.4609 186.715 30.4609C187.055 30.4609 187.352 30.5059 187.605 30.5957C187.859 30.6855 188.078 30.8066 188.262 30.959C188.445 31.1074 188.6 31.2773 188.725 31.4688H188.795C188.779 31.3477 188.764 31.1816 188.748 30.9707C188.732 30.7598 188.725 30.5879 188.725 30.4551V27.8828H189.697V37H188.912L188.766 36.0859H188.725C188.604 36.2773 188.449 36.4512 188.262 36.6074C188.078 36.7637 187.857 36.8887 187.6 36.9824C187.346 37.0723 187.045 37.1172 186.697 37.1172ZM186.85 36.3086C187.537 36.3086 188.023 36.1133 188.309 35.7227C188.594 35.332 188.736 34.752 188.736 33.9824V33.8066C188.736 32.9902 188.6 32.3633 188.326 31.9258C188.057 31.4883 187.564 31.2695 186.85 31.2695C186.252 31.2695 185.805 31.5 185.508 31.9609C185.211 32.418 185.062 33.043 185.062 33.8359C185.062 34.625 185.209 35.2344 185.502 35.6641C185.799 36.0938 186.248 36.3086 186.85 36.3086ZM196.676 37H191.906V28.4336H196.676V29.3125H192.902V32.084H196.459V32.9512H192.902V36.1211H196.676V37ZM200.9 30.4609C201.447 30.4609 201.916 30.582 202.307 30.8242C202.697 31.0664 202.996 31.4062 203.203 31.8438C203.41 32.2773 203.514 32.7852 203.514 33.3672V33.9707H199.078C199.09 34.7246 199.277 35.2988 199.641 35.6934C200.004 36.0879 200.516 36.2852 201.176 36.2852C201.582 36.2852 201.941 36.248 202.254 36.1738C202.566 36.0996 202.891 35.9902 203.227 35.8457V36.7012C202.902 36.8457 202.58 36.9512 202.26 37.0176C201.943 37.084 201.568 37.1172 201.135 37.1172C200.518 37.1172 199.979 36.9922 199.518 36.7422C199.061 36.4883 198.705 36.1172 198.451 35.6289C198.197 35.1406 198.07 34.543 198.07 33.8359C198.07 33.1445 198.186 32.5469 198.416 32.043C198.65 31.5352 198.979 31.1445 199.4 30.8711C199.826 30.5977 200.326 30.4609 200.9 30.4609ZM200.889 31.2578C200.369 31.2578 199.955 31.4277 199.646 31.7676C199.338 32.1074 199.154 32.582 199.096 33.1914H202.494C202.49 32.8086 202.43 32.4727 202.312 32.1836C202.199 31.8906 202.025 31.6641 201.791 31.5039C201.557 31.3398 201.256 31.2578 200.889 31.2578ZM206.309 37H205.312V28.4336H210.082V29.3125H206.309V32.4531H209.854V33.3262H206.309V37ZM214.225 31.3398H212.625V37H211.652V31.3398H210.516V30.8711L211.652 30.5488V30.1211C211.652 29.582 211.732 29.1445 211.893 28.8086C212.053 28.4688 212.285 28.2188 212.59 28.0586C212.895 27.8984 213.266 27.8184 213.703 27.8184C213.949 27.8184 214.174 27.8398 214.377 27.8828C214.584 27.9258 214.766 27.9746 214.922 28.0293L214.67 28.7969C214.537 28.7539 214.387 28.7148 214.219 28.6797C214.055 28.6406 213.887 28.6211 213.715 28.6211C213.344 28.6211 213.068 28.7422 212.889 28.9844C212.713 29.2227 212.625 29.5977 212.625 30.1094V30.5781H214.225V31.3398ZM219.217 32.5117H222.211V36.666C221.762 36.8184 221.299 36.9316 220.822 37.0059C220.35 37.0801 219.82 37.1172 219.234 37.1172C218.344 37.1172 217.592 36.9395 216.979 36.584C216.369 36.2285 215.906 35.7227 215.59 35.0664C215.273 34.4062 215.115 33.623 215.115 32.7168C215.115 31.8301 215.289 31.0566 215.637 30.3965C215.988 29.7363 216.494 29.2246 217.154 28.8613C217.818 28.4941 218.615 28.3105 219.545 28.3105C220.021 28.3105 220.473 28.3555 220.898 28.4453C221.328 28.5312 221.727 28.6543 222.094 28.8145L221.713 29.6816C221.396 29.5449 221.047 29.4277 220.664 29.3301C220.285 29.2324 219.893 29.1836 219.486 29.1836C218.787 29.1836 218.188 29.3281 217.688 29.6172C217.191 29.9062 216.811 30.3145 216.545 30.8418C216.283 31.3691 216.152 31.9941 216.152 32.7168C216.152 33.4316 216.268 34.0547 216.498 34.5859C216.729 35.1133 217.088 35.5234 217.576 35.8164C218.064 36.1094 218.693 36.2559 219.463 36.2559C219.85 36.2559 220.182 36.2344 220.459 36.1914C220.736 36.1445 220.988 36.0898 221.215 36.0273V33.4023H219.217V32.5117ZM225.932 39.8828C225.088 39.8828 224.438 39.7246 223.98 39.4082C223.523 39.0957 223.295 38.6562 223.295 38.0898C223.295 37.6875 223.422 37.3438 223.676 37.0586C223.934 36.7734 224.289 36.584 224.742 36.4902C224.574 36.4121 224.43 36.2949 224.309 36.1387C224.191 35.9824 224.133 35.8027 224.133 35.5996C224.133 35.3652 224.197 35.1602 224.326 34.9844C224.459 34.8047 224.66 34.6328 224.93 34.4688C224.594 34.332 224.32 34.1016 224.109 33.7773C223.902 33.4492 223.799 33.0684 223.799 32.6348C223.799 32.1738 223.895 31.7812 224.086 31.457C224.277 31.1289 224.555 30.8789 224.918 30.707C225.281 30.5352 225.721 30.4492 226.236 30.4492C226.35 30.4492 226.463 30.4551 226.576 30.4668C226.693 30.4746 226.805 30.4883 226.91 30.5078C227.016 30.5234 227.107 30.543 227.186 30.5664H229.389V31.1934L228.205 31.3398C228.322 31.4922 228.42 31.6758 228.498 31.8906C228.576 32.1055 228.615 32.3438 228.615 32.6055C228.615 33.2461 228.398 33.7559 227.965 34.1348C227.531 34.5098 226.936 34.6973 226.178 34.6973C225.998 34.6973 225.814 34.6816 225.627 34.6504C225.436 34.7559 225.289 34.873 225.188 35.002C225.09 35.1309 225.041 35.2793 225.041 35.4473C225.041 35.5723 225.078 35.6719 225.152 35.7461C225.23 35.8203 225.342 35.875 225.486 35.9102C225.631 35.9414 225.805 35.957 226.008 35.957H227.139C227.838 35.957 228.373 36.1035 228.744 36.3965C229.119 36.6895 229.307 37.1172 229.307 37.6797C229.307 38.3906 229.018 38.9355 228.439 39.3145C227.861 39.6934 227.025 39.8828 225.932 39.8828ZM225.961 39.1211C226.492 39.1211 226.932 39.0664 227.279 38.957C227.631 38.8516 227.893 38.6973 228.064 38.4941C228.24 38.2949 228.328 38.0566 228.328 37.7793C228.328 37.5215 228.27 37.3262 228.152 37.1934C228.035 37.0645 227.863 36.9785 227.637 36.9355C227.41 36.8887 227.133 36.8652 226.805 36.8652H225.691C225.402 36.8652 225.15 36.9102 224.936 37C224.721 37.0898 224.555 37.2227 224.438 37.3984C224.324 37.5742 224.268 37.793 224.268 38.0547C224.268 38.4023 224.414 38.666 224.707 38.8457C225 39.0293 225.418 39.1211 225.961 39.1211ZM226.213 33.9883C226.678 33.9883 227.027 33.8711 227.262 33.6367C227.496 33.4023 227.613 33.0605 227.613 32.6113C227.613 32.1309 227.494 31.7715 227.256 31.5332C227.018 31.291 226.666 31.1699 226.201 31.1699C225.756 31.1699 225.412 31.2949 225.17 31.5449C224.932 31.791 224.812 32.1523 224.812 32.6289C224.812 33.0664 224.934 33.4023 225.176 33.6367C225.418 33.8711 225.764 33.9883 226.213 33.9883ZM136.213 53H135.264V46.9297C135.264 46.6992 135.264 46.502 135.264 46.3379C135.268 46.1699 135.271 46.0176 135.275 45.8809C135.283 45.7402 135.293 45.5977 135.305 45.4531C135.184 45.5781 135.07 45.6855 134.965 45.7754C134.859 45.8613 134.729 45.9688 134.572 46.0977L133.594 46.8828L133.084 46.2207L135.404 44.4336H136.213V53ZM145.072 53H139.459V52.1855L141.75 49.8594C142.176 49.4297 142.533 49.0469 142.822 48.7109C143.115 48.375 143.338 48.0449 143.49 47.7207C143.643 47.3926 143.719 47.0332 143.719 46.6426C143.719 46.1582 143.574 45.7891 143.285 45.5352C143 45.2773 142.623 45.1484 142.154 45.1484C141.744 45.1484 141.381 45.2188 141.064 45.3594C140.748 45.5 140.424 45.6992 140.092 45.957L139.57 45.3008C139.797 45.1094 140.043 44.9395 140.309 44.791C140.578 44.6426 140.865 44.5254 141.17 44.4395C141.479 44.3535 141.807 44.3105 142.154 44.3105C142.682 44.3105 143.137 44.4023 143.52 44.5859C143.902 44.7695 144.197 45.0312 144.404 45.3711C144.615 45.7109 144.721 46.1152 144.721 46.584C144.721 47.0371 144.631 47.459 144.451 47.8496C144.271 48.2363 144.02 48.6211 143.695 49.0039C143.371 49.3828 142.992 49.7852 142.559 50.2109L140.695 52.0684V52.1094H145.072V53ZM151.623 46.4316C151.623 46.8145 151.549 47.1465 151.4 47.4277C151.252 47.709 151.045 47.9395 150.779 48.1191C150.514 48.2949 150.201 48.418 149.842 48.4883V48.5352C150.521 48.6211 151.031 48.8398 151.371 49.1914C151.715 49.543 151.887 50.0039 151.887 50.5742C151.887 51.0703 151.77 51.5098 151.535 51.8926C151.305 52.2754 150.949 52.5762 150.469 52.7949C149.992 53.0098 149.381 53.1172 148.635 53.1172C148.182 53.1172 147.762 53.0801 147.375 53.0059C146.992 52.9355 146.625 52.8164 146.273 52.6484V51.7344C146.629 51.9102 147.016 52.0488 147.434 52.1504C147.852 52.248 148.256 52.2969 148.646 52.2969C149.428 52.2969 149.992 52.1426 150.34 51.834C150.688 51.5215 150.861 51.0957 150.861 50.5566C150.861 50.1855 150.764 49.8867 150.568 49.6602C150.377 49.4297 150.1 49.2617 149.736 49.1562C149.377 49.0469 148.943 48.9922 148.436 48.9922H147.58V48.1602H148.441C148.906 48.1602 149.301 48.0918 149.625 47.9551C149.949 47.8184 150.195 47.627 150.363 47.3809C150.535 47.1309 150.621 46.8359 150.621 46.4961C150.621 46.0625 150.477 45.7285 150.188 45.4941C149.898 45.2559 149.506 45.1367 149.01 45.1367C148.705 45.1367 148.428 45.168 148.178 45.2305C147.928 45.293 147.693 45.3789 147.475 45.4883C147.256 45.5977 147.037 45.7246 146.818 45.8691L146.326 45.2012C146.639 44.959 147.02 44.75 147.469 44.5742C147.918 44.3984 148.428 44.3105 148.998 44.3105C149.873 44.3105 150.529 44.5098 150.967 44.9082C151.404 45.3066 151.623 45.8145 151.623 46.4316ZM159.234 51.0137H157.951V53H157.002V51.0137H152.859V50.1934L156.938 44.3867H157.951V50.1348H159.234V51.0137ZM157.002 50.1348V47.334C157.002 47.1191 157.004 46.9258 157.008 46.7539C157.012 46.5781 157.018 46.416 157.025 46.2676C157.033 46.1152 157.039 45.9707 157.043 45.834C157.051 45.6973 157.057 45.5625 157.061 45.4297H157.014C156.939 45.5859 156.854 45.752 156.756 45.9277C156.662 46.0996 156.566 46.2539 156.469 46.3906L153.826 50.1348H157.002ZM162.768 47.7617C163.35 47.7617 163.855 47.8613 164.285 48.0605C164.715 48.2559 165.047 48.541 165.281 48.916C165.52 49.291 165.639 49.7461 165.639 50.2812C165.639 50.8672 165.512 51.373 165.258 51.7988C165.004 52.2207 164.639 52.5469 164.162 52.7773C163.686 53.0039 163.115 53.1172 162.451 53.1172C162.006 53.1172 161.592 53.0781 161.209 53C160.826 52.9219 160.504 52.8047 160.242 52.6484V51.7227C160.527 51.8945 160.873 52.0312 161.279 52.1328C161.686 52.2344 162.08 52.2852 162.463 52.2852C162.896 52.2852 163.275 52.2168 163.6 52.0801C163.928 51.9395 164.182 51.7285 164.361 51.4473C164.545 51.1621 164.637 50.8047 164.637 50.375C164.637 49.8047 164.461 49.3652 164.109 49.0566C163.762 48.7441 163.211 48.5879 162.457 48.5879C162.215 48.5879 161.949 48.6074 161.66 48.6465C161.371 48.6855 161.133 48.7285 160.945 48.7754L160.453 48.4531L160.781 44.4336H165.041V45.3242H161.613L161.396 47.9082C161.545 47.877 161.736 47.8457 161.971 47.8145C162.205 47.7793 162.471 47.7617 162.768 47.7617ZM167.016 49.3379C167.016 48.8223 167.051 48.3184 167.121 47.8262C167.195 47.334 167.318 46.877 167.49 46.4551C167.662 46.0293 167.896 45.6562 168.193 45.3359C168.49 45.0156 168.859 44.7656 169.301 44.5859C169.746 44.4023 170.279 44.3105 170.9 44.3105C171.076 44.3105 171.266 44.3203 171.469 44.3398C171.672 44.3555 171.84 44.3828 171.973 44.4219V45.2598C171.828 45.209 171.662 45.1719 171.475 45.1484C171.291 45.125 171.105 45.1133 170.918 45.1133C170.191 45.1133 169.619 45.2715 169.201 45.5879C168.787 45.9043 168.488 46.334 168.305 46.877C168.121 47.416 168.016 48.0234 167.988 48.6992H168.053C168.174 48.5039 168.328 48.3281 168.516 48.1719C168.703 48.0117 168.93 47.8848 169.195 47.791C169.465 47.6973 169.777 47.6504 170.133 47.6504C170.633 47.6504 171.068 47.752 171.439 47.9551C171.814 48.1582 172.104 48.4531 172.307 48.8398C172.514 49.2266 172.617 49.6953 172.617 50.2461C172.617 50.8359 172.508 51.3457 172.289 51.7754C172.07 52.2051 171.758 52.5371 171.352 52.7715C170.949 53.002 170.469 53.1172 169.91 53.1172C169.492 53.1172 169.107 53.0371 168.756 52.877C168.404 52.7168 168.098 52.4785 167.836 52.1621C167.578 51.8457 167.377 51.4531 167.232 50.9844C167.088 50.5117 167.016 49.9629 167.016 49.3379ZM169.898 52.2969C170.43 52.2969 170.855 52.127 171.176 51.7871C171.496 51.4473 171.656 50.9336 171.656 50.2461C171.656 49.6836 171.514 49.2383 171.229 48.9102C170.943 48.582 170.514 48.418 169.939 48.418C169.549 48.418 169.209 48.5 168.92 48.6641C168.631 48.8242 168.406 49.0273 168.246 49.2734C168.086 49.5195 168.006 49.7695 168.006 50.0234C168.006 50.2812 168.043 50.543 168.117 50.8086C168.195 51.0742 168.312 51.3203 168.469 51.5469C168.625 51.7734 168.822 51.9551 169.061 52.0918C169.299 52.2285 169.578 52.2969 169.898 52.2969ZM174.902 53L178.418 45.3242H173.748V44.4336H179.461V45.1836L175.969 53H174.902ZM183.492 44.3105C183.988 44.3105 184.428 44.3887 184.811 44.5449C185.193 44.7012 185.492 44.9316 185.707 45.2363C185.926 45.5371 186.035 45.9082 186.035 46.3496C186.035 46.6973 185.959 47.002 185.807 47.2637C185.658 47.5215 185.457 47.748 185.203 47.9434C184.949 48.1348 184.668 48.3066 184.359 48.459C184.727 48.627 185.057 48.8164 185.35 49.0273C185.646 49.2383 185.881 49.4863 186.053 49.7715C186.225 50.0566 186.311 50.3945 186.311 50.7852C186.311 51.2656 186.193 51.6816 185.959 52.0332C185.729 52.3809 185.404 52.6484 184.986 52.8359C184.568 53.0234 184.078 53.1172 183.516 53.1172C182.91 53.1172 182.395 53.0273 181.969 52.8477C181.547 52.6641 181.225 52.4023 181.002 52.0625C180.783 51.7188 180.674 51.3066 180.674 50.8262C180.674 50.4316 180.758 50.0898 180.926 49.8008C181.094 49.5078 181.316 49.2559 181.594 49.0449C181.871 48.834 182.174 48.6562 182.502 48.5117C182.217 48.3555 181.955 48.1777 181.717 47.9785C181.482 47.7793 181.295 47.5469 181.154 47.2812C181.018 47.0117 180.949 46.6992 180.949 46.3438C180.949 45.9102 181.059 45.543 181.277 45.2422C181.5 44.9375 181.803 44.707 182.186 44.5508C182.572 44.3906 183.008 44.3105 183.492 44.3105ZM181.629 50.832C181.629 51.2695 181.783 51.6309 182.092 51.916C182.4 52.1973 182.867 52.3379 183.492 52.3379C184.086 52.3379 184.545 52.1973 184.869 51.916C185.193 51.6309 185.355 51.2578 185.355 50.7969C185.355 50.5117 185.281 50.2617 185.133 50.0469C184.984 49.8281 184.773 49.6328 184.5 49.4609C184.227 49.2891 183.904 49.1328 183.533 48.9922L183.322 48.916C182.963 49.0645 182.656 49.2305 182.402 49.4141C182.152 49.5938 181.961 49.7988 181.828 50.0293C181.695 50.2598 181.629 50.5273 181.629 50.832ZM183.48 45.1074C183.02 45.1074 182.643 45.2188 182.35 45.4414C182.057 45.6602 181.91 45.9766 181.91 46.3906C181.91 46.6875 181.98 46.9395 182.121 47.1465C182.266 47.3496 182.461 47.5254 182.707 47.6738C182.953 47.8184 183.229 47.9531 183.533 48.0781C183.83 47.9531 184.094 47.8164 184.324 47.668C184.555 47.5156 184.736 47.3359 184.869 47.1289C185.002 46.9219 185.068 46.6738 185.068 46.3848C185.068 45.9707 184.922 45.6543 184.629 45.4355C184.34 45.2168 183.957 45.1074 183.48 45.1074ZM188.842 50.6211H188.203L187.934 44.4336H189.111L188.842 50.6211ZM187.816 52.3906C187.816 52.1172 187.883 51.9238 188.016 51.8105C188.148 51.6934 188.314 51.6348 188.514 51.6348C188.709 51.6348 188.873 51.6934 189.006 51.8105C189.143 51.9238 189.211 52.1172 189.211 52.3906C189.211 52.6602 189.143 52.8574 189.006 52.9824C188.873 53.1035 188.709 53.1641 188.514 53.1641C188.314 53.1641 188.148 53.1035 188.016 52.9824C187.883 52.8574 187.816 52.6602 187.816 52.3906ZM191.801 50.6211V50.3164C191.801 50.0039 191.83 49.7363 191.889 49.5137C191.947 49.2871 192.049 49.0762 192.193 48.8809C192.342 48.6855 192.547 48.4785 192.809 48.2598C193.113 48.0059 193.354 47.791 193.529 47.6152C193.709 47.4355 193.838 47.2559 193.916 47.0762C193.994 46.8965 194.033 46.6797 194.033 46.4258C194.033 46.0195 193.902 45.709 193.641 45.4941C193.379 45.2754 193.01 45.166 192.533 45.166C192.146 45.166 191.803 45.2148 191.502 45.3125C191.201 45.4102 190.912 45.5273 190.635 45.6641L190.295 44.8789C190.615 44.7109 190.963 44.5742 191.338 44.4688C191.713 44.3633 192.131 44.3105 192.592 44.3105C193.346 44.3105 193.93 44.498 194.344 44.873C194.758 45.2441 194.965 45.7559 194.965 46.4082C194.965 46.7715 194.906 47.082 194.789 47.3398C194.672 47.5938 194.506 47.8281 194.291 48.043C194.076 48.2539 193.822 48.4785 193.529 48.7168C193.271 48.9355 193.074 49.1289 192.938 49.2969C192.801 49.4609 192.707 49.6309 192.656 49.8066C192.605 49.9785 192.58 50.1855 192.58 50.4277V50.6211H191.801ZM191.543 52.3906C191.543 52.1172 191.607 51.9238 191.736 51.8105C191.865 51.6934 192.031 51.6348 192.234 51.6348C192.426 51.6348 192.588 51.6934 192.721 51.8105C192.857 51.9238 192.926 52.1172 192.926 52.3906C192.926 52.6602 192.857 52.8574 192.721 52.9824C192.588 53.1035 192.426 53.1641 192.234 53.1641C192.031 53.1641 191.865 53.1035 191.736 52.9824C191.607 52.8574 191.543 52.6602 191.543 52.3906ZM195.773 49.7129C195.773 49.0527 195.836 48.4102 195.961 47.7852C196.09 47.1602 196.285 46.5645 196.547 45.998C196.809 45.4316 197.139 44.9102 197.537 44.4336H198.469C197.902 45.1758 197.477 46 197.191 46.9062C196.906 47.8125 196.764 48.7441 196.764 49.7012C196.764 50.3262 196.826 50.9434 196.951 51.5527C197.08 52.1582 197.27 52.7422 197.52 53.3047C197.773 53.8672 198.086 54.3984 198.457 54.8984H197.537C197.139 54.4297 196.809 53.918 196.547 53.3633C196.285 52.8125 196.09 52.2285 195.961 51.6113C195.836 50.9941 195.773 50.3613 195.773 49.7129ZM201.891 49.7012C201.891 50.3535 201.826 50.9902 201.697 51.6113C201.572 52.2285 201.379 52.8145 201.117 53.3691C200.859 53.9238 200.529 54.4336 200.127 54.8984H199.207C199.582 54.4023 199.895 53.8711 200.145 53.3047C200.398 52.7383 200.588 52.1523 200.713 51.5469C200.842 50.9375 200.906 50.3203 200.906 49.6953C200.906 49.0586 200.842 48.4316 200.713 47.8145C200.584 47.1973 200.393 46.6035 200.139 46.0332C199.889 45.4629 199.574 44.9297 199.195 44.4336H200.127C200.529 44.9141 200.859 45.4375 201.117 46.0039C201.379 46.5664 201.572 47.1602 201.697 47.7852C201.826 48.4062 201.891 49.0449 201.891 49.7012Z" fill="#161616"/>
<path d="M521.367 38V28.0059H522.529V36.9609H526.966V38H521.367ZM531.313 30.3848C532.207 30.3848 532.87 30.5853 533.303 30.9863C533.736 31.3874 533.952 32.0277 533.952 32.9072V38H533.125L532.906 36.8926H532.852C532.642 37.166 532.423 37.3962 532.195 37.583C531.967 37.7653 531.703 37.9043 531.402 38C531.106 38.0911 530.742 38.1367 530.309 38.1367C529.853 38.1367 529.447 38.057 529.092 37.8975C528.741 37.738 528.463 37.4964 528.258 37.1729C528.057 36.8493 527.957 36.4391 527.957 35.9424C527.957 35.195 528.253 34.6208 528.846 34.2197C529.438 33.8187 530.34 33.5999 531.553 33.5635L532.845 33.5088V33.0508C532.845 32.4036 532.706 31.9502 532.428 31.6904C532.15 31.4307 531.758 31.3008 531.252 31.3008C530.86 31.3008 530.486 31.3577 530.131 31.4717C529.775 31.5856 529.438 31.7201 529.119 31.875L528.771 31.0137C529.108 30.8405 529.495 30.6924 529.933 30.5693C530.37 30.4463 530.83 30.3848 531.313 30.3848ZM532.831 34.3086L531.689 34.3564C530.755 34.3929 530.097 34.5456 529.714 34.8145C529.331 35.0833 529.14 35.4639 529.14 35.9561C529.14 36.3844 529.27 36.7012 529.529 36.9062C529.789 37.1113 530.133 37.2139 530.562 37.2139C531.227 37.2139 531.771 37.0293 532.195 36.6602C532.619 36.291 532.831 35.7373 532.831 34.999V34.3086ZM537.425 27.3633V30.0225C537.425 30.3278 537.416 30.624 537.397 30.9111C537.384 31.1982 537.372 31.4215 537.363 31.5811H537.425C537.63 31.2438 537.926 30.959 538.313 30.7266C538.701 30.4941 539.195 30.3779 539.797 30.3779C540.736 30.3779 541.483 30.7038 542.039 31.3555C542.6 32.0026 542.88 32.9665 542.88 34.2471C542.88 35.0902 542.752 35.8011 542.497 36.3799C542.242 36.9587 541.882 37.3962 541.417 37.6924C540.952 37.9886 540.403 38.1367 539.77 38.1367C539.177 38.1367 538.689 38.0273 538.307 37.8086C537.928 37.5853 537.637 37.3141 537.432 36.9951H537.343L537.11 38H536.29V27.3633H537.425ZM539.612 31.3281C539.07 31.3281 538.639 31.4352 538.32 31.6494C538.001 31.859 537.771 32.1781 537.63 32.6064C537.493 33.0303 537.425 33.568 537.425 34.2197V34.2812C537.425 35.2246 537.582 35.9469 537.896 36.4482C538.211 36.945 538.783 37.1934 539.612 37.1934C540.31 37.1934 540.831 36.9382 541.178 36.4277C541.529 35.9173 541.704 35.1882 541.704 34.2402C541.704 33.2741 541.531 32.5472 541.185 32.0596C540.843 31.5719 540.319 31.3281 539.612 31.3281ZM547.747 30.3711C548.385 30.3711 548.932 30.5124 549.388 30.7949C549.843 31.0775 550.192 31.474 550.434 31.9844C550.675 32.4902 550.796 33.0827 550.796 33.7617V34.4658H545.621C545.635 35.3454 545.854 36.0153 546.277 36.4756C546.701 36.9359 547.298 37.166 548.068 37.166C548.542 37.166 548.962 37.1227 549.326 37.0361C549.691 36.9495 550.069 36.8219 550.461 36.6533V37.6514C550.083 37.82 549.707 37.943 549.333 38.0205C548.964 38.098 548.526 38.1367 548.021 38.1367C547.3 38.1367 546.672 37.9909 546.134 37.6992C545.601 37.403 545.186 36.9701 544.89 36.4004C544.593 35.8307 544.445 35.1335 544.445 34.3086C544.445 33.502 544.58 32.8047 544.849 32.2168C545.122 31.6243 545.505 31.1686 545.997 30.8496C546.494 30.5306 547.077 30.3711 547.747 30.3711ZM547.733 31.3008C547.127 31.3008 546.644 31.499 546.284 31.8955C545.924 32.292 545.71 32.8457 545.642 33.5566H549.606C549.602 33.11 549.531 32.7181 549.395 32.3809C549.262 32.0391 549.06 31.7747 548.786 31.5879C548.513 31.3965 548.162 31.3008 547.733 31.3008ZM553.865 38H552.724V27.3633H553.865V38Z" fill="#61656E"/>
<path d="M634 35L633.033 32.5078H629.885L628.924 35H628L631.072 27.1152H631.894L634.945 35H634ZM632.759 31.6968L631.84 29.2207C631.819 29.1562 631.783 29.0506 631.733 28.9038C631.686 28.757 631.638 28.6048 631.588 28.4473C631.538 28.2897 631.497 28.1626 631.464 28.0659C631.429 28.2127 631.389 28.3595 631.346 28.5063C631.307 28.6496 631.267 28.7839 631.228 28.9092C631.189 29.0309 631.155 29.1348 631.126 29.2207L630.191 31.6968H632.759ZM638.103 29.0166C638.805 29.0166 639.326 29.1742 639.666 29.4893C640.006 29.8044 640.176 30.3075 640.176 30.9985V35H639.526L639.354 34.1299H639.312C639.147 34.3447 638.975 34.5256 638.796 34.6724C638.617 34.8156 638.409 34.9248 638.173 35C637.94 35.0716 637.654 35.1074 637.313 35.1074C636.955 35.1074 636.637 35.0448 636.357 34.9194C636.082 34.7941 635.863 34.6043 635.702 34.3501C635.545 34.0959 635.466 33.7736 635.466 33.3833C635.466 32.7961 635.699 32.3449 636.164 32.0298C636.63 31.7147 637.339 31.5428 638.291 31.5142L639.306 31.4712V31.1113C639.306 30.6029 639.197 30.2466 638.979 30.0425C638.76 29.8384 638.452 29.7363 638.055 29.7363C637.747 29.7363 637.453 29.7811 637.174 29.8706C636.895 29.9601 636.63 30.0658 636.379 30.1875L636.105 29.5107C636.37 29.3747 636.674 29.2583 637.018 29.1616C637.362 29.0649 637.723 29.0166 638.103 29.0166ZM639.295 32.0996L638.398 32.1372C637.664 32.1659 637.147 32.2858 636.846 32.4971C636.545 32.7083 636.395 33.0073 636.395 33.394C636.395 33.7306 636.497 33.9795 636.701 34.1406C636.905 34.3018 637.176 34.3823 637.512 34.3823C638.035 34.3823 638.463 34.2373 638.796 33.9473C639.129 33.6572 639.295 33.2222 639.295 32.6421V32.0996ZM642.147 27.1475H644.371C645.352 27.1475 646.09 27.2943 646.584 27.5879C647.078 27.8815 647.325 28.381 647.325 29.0864C647.325 29.3908 647.266 29.6647 647.148 29.9082C647.033 30.1481 646.865 30.3468 646.643 30.5044C646.421 30.6619 646.147 30.7712 645.821 30.832V30.8857C646.165 30.9395 646.469 31.0379 646.734 31.1812C646.999 31.3244 647.207 31.5249 647.357 31.7827C647.508 32.0405 647.583 32.3682 647.583 32.7656C647.583 33.249 647.47 33.6572 647.245 33.9902C647.023 34.3232 646.708 34.5757 646.299 34.7476C645.891 34.9159 645.408 35 644.849 35H642.147V27.1475ZM643.061 30.5151H644.564C645.248 30.5151 645.721 30.4023 645.982 30.1768C646.247 29.9512 646.38 29.6217 646.38 29.1885C646.38 28.7409 646.222 28.4186 645.907 28.2217C645.596 28.0247 645.098 27.9263 644.414 27.9263H643.061V30.5151ZM643.061 31.2832V34.2212H644.693C645.392 34.2212 645.886 34.0851 646.176 33.813C646.466 33.5373 646.611 33.1667 646.611 32.7012C646.611 32.404 646.545 32.1497 646.412 31.9385C646.283 31.7272 646.072 31.5661 645.778 31.4551C645.488 31.3405 645.1 31.2832 644.613 31.2832H643.061ZM650.016 26.6426V28.7319C650.016 28.9718 650.009 29.2046 649.995 29.4302C649.984 29.6558 649.975 29.8312 649.968 29.9565H650.016C650.177 29.6916 650.41 29.4678 650.714 29.2852C651.019 29.1025 651.407 29.0112 651.88 29.0112C652.618 29.0112 653.205 29.2673 653.642 29.7793C654.082 30.2878 654.302 31.0451 654.302 32.0513C654.302 32.7137 654.202 33.2723 654.001 33.7271C653.801 34.1818 653.518 34.5256 653.153 34.7583C652.788 34.991 652.356 35.1074 651.858 35.1074C651.393 35.1074 651.01 35.0215 650.709 34.8496C650.412 34.6742 650.183 34.4611 650.021 34.2104H649.952L649.769 35H649.125V26.6426H650.016ZM651.735 29.7578C651.309 29.7578 650.97 29.842 650.72 30.0103C650.469 30.175 650.288 30.4256 650.177 30.7622C650.07 31.0952 650.016 31.5177 650.016 32.0298V32.0781C650.016 32.8193 650.14 33.3869 650.387 33.7808C650.634 34.1711 651.083 34.3662 651.735 34.3662C652.283 34.3662 652.693 34.1657 652.965 33.7646C653.241 33.3636 653.378 32.7907 653.378 32.0459C653.378 31.2868 653.242 30.7157 652.97 30.3325C652.702 29.9494 652.29 29.7578 651.735 29.7578ZM659.351 27.8403C658.918 27.8403 658.528 27.9155 658.18 28.0659C657.836 28.2127 657.543 28.4276 657.299 28.7104C657.059 28.9897 656.875 29.3281 656.746 29.7256C656.617 30.123 656.553 30.5706 656.553 31.0684C656.553 31.7272 656.655 32.3001 656.859 32.7871C657.067 33.2705 657.375 33.6447 657.783 33.9097C658.194 34.1746 658.708 34.3071 659.324 34.3071C659.675 34.3071 660.005 34.2785 660.312 34.2212C660.624 34.1603 660.927 34.0851 661.22 33.9956V34.7905C660.934 34.8979 660.633 34.9767 660.318 35.0269C660.003 35.0806 659.629 35.1074 659.195 35.1074C658.397 35.1074 657.729 34.9427 657.192 34.6133C656.658 34.2803 656.257 33.8112 655.989 33.2061C655.724 32.6009 655.591 31.8866 655.591 31.063C655.591 30.4686 655.674 29.9261 655.838 29.4355C656.007 28.9414 656.25 28.5153 656.569 28.1572C656.891 27.7992 657.285 27.5234 657.75 27.3301C658.22 27.1331 658.757 27.0347 659.362 27.0347C659.759 27.0347 660.142 27.0741 660.511 27.1528C660.88 27.2316 661.213 27.3444 661.51 27.4912L661.145 28.2646C660.894 28.1501 660.619 28.0516 660.318 27.9692C660.021 27.8833 659.698 27.8403 659.351 27.8403ZM665.146 35.1074C664.617 35.1074 664.149 34.9982 663.745 34.7798C663.34 34.5614 663.025 34.2284 662.799 33.7808C662.574 33.3332 662.461 32.7692 662.461 32.0889C662.461 31.3763 662.579 30.7944 662.815 30.3433C663.055 29.8885 663.385 29.5519 663.804 29.3335C664.223 29.1151 664.699 29.0059 665.232 29.0059C665.526 29.0059 665.809 29.0363 666.081 29.0972C666.357 29.1545 666.582 29.2279 666.758 29.3174L666.489 30.064C666.31 29.9924 666.103 29.9279 665.866 29.8706C665.633 29.8133 665.415 29.7847 665.211 29.7847C664.803 29.7847 664.463 29.8724 664.19 30.0479C663.922 30.2233 663.72 30.4811 663.583 30.8213C663.451 31.1615 663.385 31.5804 663.385 32.0781C663.385 32.5544 663.449 32.9608 663.578 33.2974C663.711 33.634 663.906 33.8918 664.164 34.0708C664.425 34.2463 664.751 34.334 665.141 34.334C665.453 34.334 665.734 34.3018 665.984 34.2373C666.235 34.1693 666.462 34.0905 666.667 34.001V34.7959C666.47 34.8962 666.249 34.9731 666.006 35.0269C665.766 35.0806 665.479 35.1074 665.146 35.1074ZM674.433 30.9985C674.433 31.883 674.272 32.6224 673.95 33.2168C673.627 33.8076 673.16 34.2534 672.548 34.5542C671.939 34.8514 671.2 35 670.33 35H668.197V27.1475H670.566C671.364 27.1475 672.052 27.2943 672.628 27.5879C673.205 27.8779 673.649 28.3094 673.96 28.8823C674.276 29.4517 674.433 30.1571 674.433 30.9985ZM673.472 31.0308C673.472 30.3254 673.354 29.7435 673.117 29.2852C672.884 28.8268 672.541 28.4867 672.086 28.2646C671.635 28.0391 671.082 27.9263 670.426 27.9263H669.11V34.2158H670.222C671.304 34.2158 672.115 33.9491 672.655 33.4155C673.2 32.882 673.472 32.0871 673.472 31.0308ZM678.139 35.1074C677.394 35.1074 676.804 34.8532 676.367 34.3447C675.933 33.8363 675.717 33.0807 675.717 32.0781C675.717 31.0648 675.939 30.3003 676.383 29.7847C676.827 29.2655 677.418 29.0059 678.155 29.0059C678.467 29.0059 678.739 29.047 678.972 29.1294C679.204 29.2118 679.405 29.3228 679.573 29.4624C679.742 29.5985 679.883 29.7542 679.998 29.9297H680.062C680.048 29.8187 680.033 29.6665 680.019 29.4731C680.005 29.2798 679.998 29.1222 679.998 29.0005V26.6426H680.889V35H680.169L680.035 34.1621H679.998C679.887 34.3376 679.745 34.4969 679.573 34.6401C679.405 34.7834 679.203 34.8979 678.966 34.9839C678.734 35.0662 678.458 35.1074 678.139 35.1074ZM678.279 34.3662C678.909 34.3662 679.355 34.1872 679.616 33.8291C679.878 33.471 680.008 32.9393 680.008 32.2339V32.0728C680.008 31.3244 679.883 30.7497 679.632 30.3486C679.385 29.9476 678.934 29.7471 678.279 29.7471C677.731 29.7471 677.321 29.9583 677.049 30.3809C676.777 30.7998 676.641 31.3727 676.641 32.0996C676.641 32.8229 676.775 33.3815 677.043 33.7754C677.316 34.1693 677.727 34.3662 678.279 34.3662ZM687.286 35H682.914V27.1475H687.286V27.9531H683.827V30.4937H687.087V31.2886H683.827V34.1943H687.286V35ZM691.159 29.0059C691.66 29.0059 692.09 29.1169 692.448 29.3389C692.806 29.5609 693.08 29.8724 693.27 30.2734C693.459 30.6709 693.554 31.1364 693.554 31.6699V32.2231H689.488C689.499 32.9142 689.671 33.4406 690.004 33.8022C690.337 34.1639 690.806 34.3447 691.411 34.3447C691.784 34.3447 692.113 34.3107 692.399 34.2427C692.686 34.1746 692.983 34.0744 693.291 33.9419V34.7261C692.994 34.8586 692.698 34.9552 692.405 35.0161C692.115 35.077 691.771 35.1074 691.374 35.1074C690.808 35.1074 690.314 34.9928 689.891 34.7637C689.472 34.5309 689.146 34.1908 688.914 33.7432C688.681 33.2956 688.564 32.7477 688.564 32.0996C688.564 31.4658 688.67 30.918 688.881 30.4561C689.096 29.9906 689.397 29.6325 689.784 29.3818C690.174 29.1312 690.632 29.0059 691.159 29.0059ZM691.148 29.7363C690.672 29.7363 690.292 29.8921 690.009 30.2036C689.726 30.5151 689.558 30.9502 689.504 31.5088H692.62C692.616 31.1579 692.561 30.8499 692.453 30.585C692.349 30.3164 692.19 30.1087 691.975 29.9619C691.76 29.8115 691.485 29.7363 691.148 29.7363ZM696.116 35H695.203V27.1475H699.575V27.9531H696.116V30.832H699.366V31.6323H696.116V35ZM703.373 29.8115H701.906V35H701.015V29.8115H699.973V29.3818L701.015 29.0864V28.6943C701.015 28.2002 701.088 27.7992 701.235 27.4912C701.382 27.1797 701.595 26.9505 701.874 26.8037C702.153 26.6569 702.493 26.5835 702.895 26.5835C703.12 26.5835 703.326 26.6032 703.512 26.6426C703.702 26.682 703.868 26.7267 704.012 26.7769L703.781 27.4805C703.659 27.4411 703.521 27.4053 703.367 27.373C703.217 27.3372 703.063 27.3193 702.905 27.3193C702.565 27.3193 702.313 27.4303 702.148 27.6523C701.987 27.8708 701.906 28.2145 701.906 28.6836V29.1133H703.373V29.8115ZM707.949 30.8857H710.693V34.6938C710.282 34.8335 709.857 34.9373 709.42 35.0054C708.987 35.0734 708.502 35.1074 707.965 35.1074C707.148 35.1074 706.459 34.9445 705.897 34.6187C705.338 34.2928 704.914 33.8291 704.624 33.2275C704.334 32.6224 704.189 31.9045 704.189 31.0737C704.189 30.2609 704.348 29.5519 704.667 28.9468C704.989 28.3416 705.453 27.8726 706.058 27.5396C706.667 27.203 707.397 27.0347 708.25 27.0347C708.686 27.0347 709.1 27.0758 709.49 27.1582C709.884 27.237 710.249 27.3498 710.586 27.4966L710.237 28.2915C709.947 28.1662 709.626 28.0588 709.275 27.9692C708.928 27.8797 708.568 27.835 708.196 27.835C707.555 27.835 707.005 27.9674 706.547 28.2324C706.092 28.4974 705.743 28.8716 705.5 29.355C705.26 29.8384 705.14 30.4113 705.14 31.0737C705.14 31.729 705.245 32.3001 705.457 32.7871C705.668 33.2705 705.997 33.6465 706.445 33.915C706.892 34.1836 707.469 34.3179 708.174 34.3179C708.529 34.3179 708.833 34.2982 709.087 34.2588C709.342 34.2158 709.573 34.1657 709.78 34.1084V31.7021H707.949V30.8857ZM714.104 37.6426C713.331 37.6426 712.734 37.4976 712.315 37.2075C711.896 36.9211 711.687 36.5182 711.687 35.999C711.687 35.6302 711.803 35.3151 712.036 35.0537C712.272 34.7923 712.598 34.6187 713.014 34.5327C712.86 34.4611 712.727 34.3537 712.616 34.2104C712.509 34.0672 712.455 33.9025 712.455 33.7163C712.455 33.5015 712.514 33.3135 712.632 33.1523C712.754 32.9876 712.938 32.8301 713.186 32.6797C712.878 32.5544 712.627 32.3431 712.434 32.0459C712.244 31.7451 712.149 31.396 712.149 30.9985C712.149 30.576 712.237 30.2161 712.412 29.9189C712.588 29.6182 712.842 29.389 713.175 29.2314C713.508 29.0739 713.911 28.9951 714.383 28.9951C714.487 28.9951 714.591 29.0005 714.695 29.0112C714.802 29.0184 714.904 29.0309 715.001 29.0488C715.098 29.0632 715.182 29.0811 715.253 29.1025H717.273V29.6772L716.188 29.8115C716.295 29.9512 716.385 30.1195 716.457 30.3164C716.528 30.5133 716.564 30.7318 716.564 30.9717C716.564 31.5589 716.365 32.0262 715.968 32.3735C715.57 32.7173 715.024 32.8892 714.33 32.8892C714.165 32.8892 713.997 32.8748 713.825 32.8462C713.649 32.9429 713.515 33.0503 713.422 33.1685C713.332 33.2866 713.288 33.4227 713.288 33.5767C713.288 33.6912 713.322 33.7826 713.39 33.8506C713.461 33.9186 713.563 33.9688 713.696 34.001C713.828 34.0296 713.988 34.0439 714.174 34.0439H715.21C715.851 34.0439 716.342 34.1782 716.682 34.4468C717.026 34.7153 717.198 35.1074 717.198 35.623C717.198 36.2747 716.933 36.7743 716.403 37.1216C715.873 37.4689 715.107 37.6426 714.104 37.6426ZM714.131 36.9443C714.618 36.9443 715.021 36.8942 715.339 36.7939C715.662 36.6973 715.902 36.5558 716.059 36.3696C716.22 36.187 716.301 35.9686 716.301 35.7144C716.301 35.478 716.247 35.299 716.14 35.1772C716.032 35.0591 715.875 34.9803 715.667 34.9409C715.459 34.8979 715.205 34.8765 714.904 34.8765H713.884C713.619 34.8765 713.388 34.9176 713.191 35C712.994 35.0824 712.842 35.2041 712.734 35.3652C712.631 35.5264 712.579 35.7269 712.579 35.9668C712.579 36.2855 712.713 36.5272 712.981 36.6919C713.25 36.8602 713.633 36.9443 714.131 36.9443ZM714.362 32.2393C714.788 32.2393 715.108 32.1318 715.323 31.917C715.538 31.7021 715.646 31.3888 715.646 30.9771C715.646 30.5366 715.536 30.2072 715.318 29.9888C715.099 29.7668 714.777 29.6558 714.351 29.6558C713.943 29.6558 713.628 29.7703 713.406 29.9995C713.187 30.2251 713.078 30.5563 713.078 30.9932C713.078 31.3942 713.189 31.7021 713.411 31.917C713.633 32.1318 713.95 32.2393 714.362 32.2393ZM631.862 49H630.992V43.4355C630.992 43.2243 630.992 43.0435 630.992 42.8931C630.995 42.7391 630.999 42.5994 631.002 42.4741C631.01 42.3452 631.019 42.2145 631.029 42.082C630.918 42.1966 630.814 42.2951 630.718 42.3774C630.621 42.4562 630.501 42.5547 630.358 42.6729L629.461 43.3926L628.994 42.7856L631.121 41.1475H631.862V49ZM639.983 49H634.837V48.2534L636.938 46.1211C637.328 45.7272 637.655 45.3763 637.92 45.0684C638.189 44.7604 638.393 44.4578 638.533 44.1606C638.672 43.8599 638.742 43.5304 638.742 43.1724C638.742 42.7284 638.61 42.39 638.345 42.1572C638.083 41.9209 637.738 41.8027 637.308 41.8027C636.932 41.8027 636.599 41.8672 636.309 41.9961C636.019 42.125 635.722 42.3076 635.417 42.5439L634.939 41.9424C635.147 41.7669 635.373 41.6112 635.616 41.4751C635.863 41.339 636.126 41.2316 636.406 41.1528C636.689 41.0741 636.989 41.0347 637.308 41.0347C637.792 41.0347 638.209 41.1188 638.56 41.2871C638.91 41.4554 639.181 41.6953 639.371 42.0068C639.564 42.3184 639.661 42.689 639.661 43.1187C639.661 43.534 639.578 43.9207 639.414 44.2788C639.249 44.6333 639.018 44.986 638.721 45.3369C638.424 45.6842 638.076 46.0531 637.679 46.4434L635.971 48.146V48.1836H639.983V49ZM645.988 42.979C645.988 43.3299 645.92 43.6343 645.784 43.8921C645.648 44.1499 645.458 44.3612 645.214 44.5259C644.971 44.687 644.684 44.7998 644.355 44.8643V44.9072C644.978 44.986 645.445 45.1865 645.757 45.5088C646.072 45.8311 646.229 46.2536 646.229 46.7764C646.229 47.2311 646.122 47.634 645.907 47.9849C645.696 48.3358 645.37 48.6115 644.93 48.812C644.493 49.009 643.932 49.1074 643.249 49.1074C642.833 49.1074 642.448 49.0734 642.094 49.0054C641.743 48.9409 641.406 48.8317 641.084 48.6777V47.8398C641.41 48.001 641.764 48.1281 642.147 48.2212C642.531 48.3107 642.901 48.3555 643.259 48.3555C643.975 48.3555 644.493 48.214 644.812 47.9312C645.13 47.6447 645.29 47.2544 645.29 46.7603C645.29 46.4201 645.2 46.1462 645.021 45.9385C644.846 45.7272 644.591 45.5732 644.258 45.4766C643.929 45.3763 643.531 45.3262 643.066 45.3262H642.282V44.5635H643.071C643.497 44.5635 643.859 44.5008 644.156 44.3755C644.453 44.2502 644.679 44.0747 644.833 43.8491C644.991 43.62 645.069 43.3496 645.069 43.0381C645.069 42.6406 644.937 42.3345 644.672 42.1196C644.407 41.9012 644.047 41.792 643.592 41.792C643.313 41.792 643.059 41.8206 642.83 41.8779C642.6 41.9352 642.386 42.014 642.185 42.1143C641.985 42.2145 641.784 42.3309 641.583 42.4634L641.132 41.8511C641.419 41.6291 641.768 41.4375 642.18 41.2764C642.591 41.1152 643.059 41.0347 643.582 41.0347C644.384 41.0347 644.985 41.2173 645.386 41.5825C645.787 41.9478 645.988 42.4132 645.988 42.979ZM652.965 47.1792H651.789V49H650.918V47.1792H647.121V46.4272L650.859 41.1045H651.789V46.3735H652.965V47.1792ZM650.918 46.3735V43.8062C650.918 43.6092 650.92 43.432 650.924 43.2744C650.927 43.1133 650.933 42.9647 650.94 42.8286C650.947 42.689 650.952 42.5565 650.956 42.4312C650.963 42.3058 650.969 42.1823 650.972 42.0605H650.929C650.861 42.2038 650.782 42.356 650.693 42.5171C650.607 42.6746 650.519 42.8161 650.43 42.9414L648.007 46.3735H650.918ZM656.204 44.1982C656.737 44.1982 657.201 44.2896 657.595 44.4722C657.989 44.6512 658.293 44.9126 658.508 45.2563C658.726 45.6001 658.835 46.0173 658.835 46.5078C658.835 47.0449 658.719 47.5086 658.486 47.8989C658.254 48.2856 657.919 48.5846 657.482 48.7959C657.045 49.0036 656.522 49.1074 655.914 49.1074C655.505 49.1074 655.126 49.0716 654.775 49C654.424 48.9284 654.129 48.821 653.889 48.6777V47.8291C654.15 47.9867 654.467 48.112 654.839 48.2051C655.212 48.2982 655.573 48.3447 655.924 48.3447C656.322 48.3447 656.669 48.2821 656.966 48.1567C657.267 48.0278 657.5 47.8345 657.665 47.5767C657.833 47.3153 657.917 46.9876 657.917 46.5938C657.917 46.071 657.756 45.6681 657.434 45.3853C657.115 45.0988 656.61 44.9556 655.919 44.9556C655.697 44.9556 655.453 44.9735 655.188 45.0093C654.924 45.0451 654.705 45.0845 654.533 45.1274L654.082 44.832L654.383 41.1475H658.288V41.9639H655.146L654.947 44.3325C655.083 44.3039 655.258 44.2752 655.473 44.2466C655.688 44.2144 655.931 44.1982 656.204 44.1982ZM660.098 45.6431C660.098 45.1704 660.13 44.7085 660.194 44.2573C660.262 43.8062 660.375 43.3872 660.533 43.0005C660.69 42.6102 660.905 42.2682 661.177 41.9746C661.449 41.681 661.788 41.4518 662.192 41.2871C662.601 41.1188 663.089 41.0347 663.659 41.0347C663.82 41.0347 663.993 41.0436 664.18 41.0615C664.366 41.0758 664.52 41.1009 664.642 41.1367V41.9048C664.509 41.8582 664.357 41.8242 664.185 41.8027C664.017 41.7812 663.847 41.7705 663.675 41.7705C663.009 41.7705 662.484 41.9155 662.101 42.2056C661.722 42.4956 661.448 42.8895 661.279 43.3872C661.111 43.8813 661.014 44.4382 660.989 45.0576H661.048C661.159 44.8786 661.301 44.7174 661.473 44.5742C661.645 44.4274 661.852 44.311 662.096 44.2251C662.343 44.1392 662.629 44.0962 662.955 44.0962C663.413 44.0962 663.813 44.1893 664.153 44.3755C664.497 44.5617 664.762 44.832 664.948 45.1865C665.138 45.541 665.232 45.9707 665.232 46.4756C665.232 47.0163 665.132 47.4836 664.932 47.8774C664.731 48.2713 664.445 48.5757 664.072 48.7905C663.703 49.0018 663.263 49.1074 662.751 49.1074C662.368 49.1074 662.015 49.034 661.693 48.8872C661.371 48.7404 661.09 48.522 660.85 48.2319C660.613 47.9419 660.429 47.582 660.296 47.1523C660.164 46.7191 660.098 46.216 660.098 45.6431ZM662.74 48.3555C663.227 48.3555 663.618 48.1997 663.911 47.8882C664.205 47.5767 664.352 47.1058 664.352 46.4756C664.352 45.96 664.221 45.5518 663.959 45.251C663.698 44.9502 663.304 44.7998 662.778 44.7998C662.42 44.7998 662.108 44.875 661.843 45.0254C661.578 45.1722 661.372 45.3584 661.226 45.584C661.079 45.8096 661.005 46.0387 661.005 46.2715C661.005 46.5078 661.039 46.7477 661.107 46.9912C661.179 47.2347 661.286 47.4603 661.43 47.668C661.573 47.8757 661.754 48.0422 661.972 48.1675C662.191 48.2928 662.447 48.3555 662.74 48.3555ZM667.327 49L670.55 41.9639H666.269V41.1475H671.506V41.835L668.305 49H667.327ZM675.201 41.0347C675.656 41.0347 676.059 41.1063 676.41 41.2495C676.761 41.3927 677.035 41.604 677.231 41.8833C677.432 42.159 677.532 42.4992 677.532 42.9038C677.532 43.2225 677.462 43.5018 677.323 43.7417C677.187 43.978 677.002 44.1857 676.77 44.3647C676.537 44.5402 676.279 44.6978 675.996 44.8374C676.333 44.9914 676.635 45.165 676.904 45.3584C677.176 45.5518 677.391 45.7791 677.548 46.0405C677.706 46.3019 677.785 46.6117 677.785 46.9697C677.785 47.4102 677.677 47.7915 677.462 48.1138C677.251 48.4325 676.954 48.6777 676.571 48.8496C676.188 49.0215 675.738 49.1074 675.223 49.1074C674.668 49.1074 674.195 49.0251 673.805 48.8604C673.418 48.6921 673.123 48.4521 672.918 48.1406C672.718 47.8255 672.618 47.4478 672.618 47.0073C672.618 46.6457 672.695 46.3324 672.849 46.0674C673.003 45.7988 673.207 45.5679 673.461 45.3745C673.715 45.1812 673.993 45.0182 674.293 44.8857C674.032 44.7425 673.792 44.5796 673.574 44.397C673.359 44.2144 673.187 44.0013 673.058 43.7578C672.933 43.5107 672.87 43.2243 672.87 42.8984C672.87 42.501 672.97 42.1644 673.171 41.8887C673.375 41.6094 673.653 41.3981 674.003 41.2549C674.358 41.1081 674.757 41.0347 675.201 41.0347ZM673.493 47.0127C673.493 47.4137 673.635 47.745 673.917 48.0063C674.2 48.2642 674.628 48.3931 675.201 48.3931C675.745 48.3931 676.166 48.2642 676.463 48.0063C676.761 47.745 676.909 47.403 676.909 46.9805C676.909 46.7191 676.841 46.4899 676.705 46.293C676.569 46.0924 676.376 45.9134 676.125 45.7559C675.874 45.5983 675.579 45.4551 675.239 45.3262L675.045 45.2563C674.716 45.3924 674.435 45.5446 674.202 45.7129C673.973 45.8776 673.798 46.0656 673.676 46.2769C673.554 46.4881 673.493 46.7334 673.493 47.0127ZM675.19 41.7651C674.768 41.7651 674.422 41.8672 674.154 42.0713C673.885 42.2718 673.751 42.5618 673.751 42.9414C673.751 43.2135 673.815 43.4445 673.944 43.6343C674.077 43.8205 674.256 43.9816 674.481 44.1177C674.707 44.2502 674.959 44.3737 675.239 44.4883C675.511 44.3737 675.753 44.2484 675.964 44.1123C676.175 43.9727 676.342 43.8079 676.463 43.6182C676.585 43.4284 676.646 43.201 676.646 42.936C676.646 42.5565 676.512 42.2664 676.243 42.0659C675.978 41.8654 675.627 41.7651 675.19 41.7651ZM680.105 46.8193H679.52L679.272 41.1475H680.352L680.105 46.8193ZM679.165 48.4414C679.165 48.1908 679.226 48.0135 679.348 47.9097C679.469 47.8022 679.622 47.7485 679.804 47.7485C679.983 47.7485 680.134 47.8022 680.255 47.9097C680.381 48.0135 680.443 48.1908 680.443 48.4414C680.443 48.6885 680.381 48.8693 680.255 48.9839C680.134 49.0949 679.983 49.1504 679.804 49.1504C679.622 49.1504 679.469 49.0949 679.348 48.9839C679.226 48.8693 679.165 48.6885 679.165 48.4414ZM682.817 46.8193V46.54C682.817 46.2536 682.844 46.0083 682.898 45.8042C682.952 45.5965 683.045 45.4032 683.177 45.2241C683.313 45.0451 683.501 44.8553 683.741 44.6548C684.021 44.422 684.241 44.2251 684.402 44.064C684.567 43.8993 684.685 43.7345 684.756 43.5698C684.828 43.4051 684.864 43.2064 684.864 42.9736C684.864 42.6012 684.744 42.3166 684.504 42.1196C684.264 41.9191 683.926 41.8188 683.489 41.8188C683.134 41.8188 682.819 41.8636 682.543 41.9531C682.268 42.0426 682.003 42.1501 681.749 42.2754L681.437 41.5557C681.731 41.4017 682.049 41.2764 682.393 41.1797C682.737 41.083 683.12 41.0347 683.542 41.0347C684.234 41.0347 684.769 41.2065 685.148 41.5503C685.528 41.8905 685.718 42.3595 685.718 42.9575C685.718 43.2905 685.664 43.5752 685.557 43.8115C685.449 44.0443 685.297 44.2591 685.1 44.4561C684.903 44.6494 684.67 44.8553 684.402 45.0737C684.166 45.2743 683.985 45.4515 683.859 45.6055C683.734 45.7559 683.648 45.9116 683.602 46.0728C683.555 46.2303 683.532 46.4201 683.532 46.6421V46.8193H682.817ZM682.581 48.4414C682.581 48.1908 682.64 48.0135 682.758 47.9097C682.876 47.8022 683.029 47.7485 683.215 47.7485C683.39 47.7485 683.539 47.8022 683.661 47.9097C683.786 48.0135 683.849 48.1908 683.849 48.4414C683.849 48.6885 683.786 48.8693 683.661 48.9839C683.539 49.0949 683.39 49.1504 683.215 49.1504C683.029 49.1504 682.876 49.0949 682.758 48.9839C682.64 48.8693 682.581 48.6885 682.581 48.4414ZM686.459 45.9868C686.459 45.3817 686.516 44.7926 686.631 44.2197C686.749 43.6468 686.928 43.1007 687.168 42.5815C687.408 42.0623 687.71 41.5843 688.076 41.1475H688.93C688.41 41.8278 688.02 42.5833 687.759 43.4141C687.497 44.2448 687.367 45.0988 687.367 45.9761C687.367 46.549 687.424 47.1147 687.539 47.6733C687.657 48.2284 687.83 48.7637 688.06 49.2793C688.292 49.7949 688.579 50.2819 688.919 50.7402H688.076C687.71 50.3105 687.408 49.8415 687.168 49.333C686.928 48.8281 686.749 48.2928 686.631 47.7271C686.516 47.1613 686.459 46.5812 686.459 45.9868ZM692.066 45.9761C692.066 46.5741 692.007 47.1577 691.889 47.7271C691.775 48.2928 691.597 48.8299 691.357 49.3384C691.121 49.8468 690.819 50.3141 690.45 50.7402H689.606C689.95 50.2855 690.237 49.7985 690.466 49.2793C690.699 48.7601 690.872 48.223 690.987 47.668C691.105 47.1094 691.164 46.5436 691.164 45.9707C691.164 45.387 691.105 44.8123 690.987 44.2466C690.869 43.6808 690.693 43.1366 690.46 42.6138C690.231 42.091 689.943 41.6022 689.596 41.1475H690.45C690.819 41.5879 691.121 42.0677 691.357 42.5869C691.597 43.1025 691.775 43.6468 691.889 44.2197C692.007 44.7891 692.066 45.3745 692.066 45.9761Z" fill="#161616"/>
</svg>
