<svg width="841" height="220" viewBox="0 0 841 220" fill="none" xmlns="http://www.w3.org/2000/svg">
<rect width="784" height="220" transform="translate(52)" fill="white"/>
<g clip-path="url(#clip0_2525_298252)">
<g clip-path="url(#clip1_2525_298252)">
<rect x="233.5" y="147" width="421" height="37" fill="white"/>
<rect x="233.5" y="110" width="421" height="37" fill="white"/>
<rect x="233.5" y="147" width="421" height="1" fill="black" fill-opacity="0.15"/>
<rect x="233.5" y="73" width="421" height="37" fill="white"/>
<rect x="233.5" y="110" width="421" height="1" fill="black" fill-opacity="0.15"/>
<rect width="421" height="37" transform="translate(233.5 36)" fill="white"/>
<g filter="url(#filter0_d_2525_298252)">
<rect width="421" height="1" transform="matrix(1 0 0 -1 233.5 73)" fill="black" fill-opacity="0.4"/>
</g>
</g>
<g clip-path="url(#clip2_2525_298252)">
<rect x="333" y="48" width="1" height="11" fill="black" fill-opacity="0.15"/>
<path d="M245.239 50.1475C245.916 50.1475 246.474 50.2298 246.915 50.3945C247.359 50.5592 247.688 50.8099 247.903 51.1465C248.121 51.4831 248.23 51.911 248.23 52.4302C248.23 52.8169 248.159 53.1463 248.016 53.4185C247.872 53.6906 247.684 53.9162 247.452 54.0952C247.219 54.2743 246.97 54.4175 246.705 54.5249L248.934 58H247.479L245.583 54.8525H244.32V58H243.031V50.1475H245.239ZM245.153 51.2217H244.32V53.7891H245.212C245.81 53.7891 246.243 53.6781 246.512 53.4561C246.784 53.234 246.92 52.9064 246.92 52.4731C246.92 52.0184 246.775 51.6961 246.485 51.5063C246.198 51.3166 245.754 51.2217 245.153 51.2217ZM251.19 52.0542V58H249.928V52.0542H251.19ZM250.567 49.7769C250.76 49.7769 250.927 49.8288 251.066 49.9326C251.21 50.0365 251.281 50.2155 251.281 50.4697C251.281 50.7204 251.21 50.8994 251.066 51.0068C250.927 51.1107 250.76 51.1626 250.567 51.1626C250.366 51.1626 250.196 51.1107 250.057 51.0068C249.921 50.8994 249.853 50.7204 249.853 50.4697C249.853 50.2155 249.921 50.0365 250.057 49.9326C250.196 49.8288 250.366 49.7769 250.567 49.7769ZM256.996 56.3027C256.996 56.693 256.901 57.0225 256.711 57.291C256.522 57.5596 256.244 57.7637 255.879 57.9033C255.517 58.0394 255.073 58.1074 254.547 58.1074C254.132 58.1074 253.773 58.077 253.473 58.0161C253.175 57.9588 252.894 57.8693 252.629 57.7476V56.6572C252.912 56.7897 253.229 56.9043 253.58 57.001C253.935 57.0977 254.269 57.146 254.584 57.146C255 57.146 255.299 57.0815 255.481 56.9526C255.664 56.8201 255.755 56.6447 255.755 56.4263C255.755 56.2974 255.718 56.1828 255.643 56.0825C255.571 55.9787 255.435 55.873 255.234 55.7656C255.037 55.6546 254.747 55.5221 254.364 55.3682C253.988 55.2178 253.671 55.0674 253.414 54.917C253.156 54.7666 252.961 54.5858 252.828 54.3745C252.696 54.1597 252.629 53.8857 252.629 53.5527C252.629 53.0264 252.837 52.6271 253.252 52.355C253.671 52.0793 254.225 51.9414 254.912 51.9414C255.277 51.9414 255.621 51.979 255.943 52.0542C256.269 52.1258 256.588 52.2314 256.899 52.3711L256.502 53.3218C256.233 53.2036 255.963 53.1069 255.691 53.0317C255.422 52.953 255.148 52.9136 254.869 52.9136C254.543 52.9136 254.294 52.9637 254.123 53.064C253.954 53.1642 253.87 53.3075 253.87 53.4937C253.87 53.6333 253.911 53.7515 253.994 53.8481C254.076 53.9448 254.217 54.0415 254.418 54.1382C254.622 54.2349 254.905 54.3548 255.267 54.498C255.621 54.6341 255.927 54.7773 256.185 54.9277C256.446 55.0745 256.647 55.2554 256.787 55.4702C256.926 55.6851 256.996 55.9626 256.996 56.3027ZM259.623 49.6426V53.6816C259.623 53.8643 259.615 54.0648 259.601 54.2832C259.587 54.498 259.572 54.7004 259.558 54.8901H259.585C259.678 54.7648 259.789 54.618 259.918 54.4497C260.05 54.2814 260.176 54.1346 260.294 54.0093L262.109 52.0542H263.56L261.18 54.6108L263.715 58H262.233L260.332 55.3896L259.623 55.9966V58H258.36V49.6426H259.623Z" fill="#61656E"/>
<rect x="333" y="73" width="1" height="37" fill="black" fill-opacity="0.15"/>
<path d="M243.172 97V88.4336H244.168V96.1094H247.971V97H243.172ZM254.832 93.7773C254.832 94.3047 254.764 94.7754 254.627 95.1895C254.49 95.6035 254.293 95.9531 254.035 96.2383C253.777 96.5234 253.465 96.7422 253.098 96.8945C252.734 97.043 252.322 97.1172 251.861 97.1172C251.432 97.1172 251.037 97.043 250.678 96.8945C250.322 96.7422 250.014 96.5234 249.752 96.2383C249.494 95.9531 249.293 95.6035 249.148 95.1895C249.008 94.7754 248.938 94.3047 248.938 93.7773C248.938 93.0742 249.057 92.4766 249.295 91.9844C249.533 91.4883 249.873 91.1113 250.314 90.8535C250.76 90.5918 251.289 90.4609 251.902 90.4609C252.488 90.4609 253 90.5918 253.438 90.8535C253.879 91.1152 254.221 91.4941 254.463 91.9902C254.709 92.4824 254.832 93.0781 254.832 93.7773ZM249.945 93.7773C249.945 94.293 250.014 94.7402 250.15 95.1191C250.287 95.498 250.498 95.791 250.783 95.998C251.068 96.2051 251.436 96.3086 251.885 96.3086C252.33 96.3086 252.695 96.2051 252.98 95.998C253.27 95.791 253.482 95.498 253.619 95.1191C253.756 94.7402 253.824 94.293 253.824 93.7773C253.824 93.2656 253.756 92.8242 253.619 92.4531C253.482 92.0781 253.271 91.7891 252.986 91.5859C252.701 91.3828 252.332 91.2812 251.879 91.2812C251.211 91.2812 250.721 91.502 250.408 91.9434C250.1 92.3848 249.945 92.9961 249.945 93.7773ZM261.74 96.9883L260.598 93.25C260.547 93.0898 260.498 92.9336 260.451 92.7812C260.408 92.625 260.367 92.4766 260.328 92.3359C260.293 92.1914 260.26 92.0586 260.229 91.9375C260.201 91.8125 260.178 91.7051 260.158 91.6152H260.117C260.102 91.7051 260.08 91.8125 260.053 91.9375C260.025 92.0586 259.992 92.1914 259.953 92.3359C259.918 92.4805 259.879 92.6328 259.836 92.793C259.793 92.9492 259.744 93.1074 259.689 93.2676L258.494 96.9883H257.398L255.629 90.5664H256.637L257.562 94.1113C257.625 94.3457 257.684 94.5781 257.738 94.8086C257.797 95.0352 257.846 95.25 257.885 95.4531C257.928 95.6523 257.959 95.8262 257.979 95.9746H258.025C258.049 95.877 258.074 95.7598 258.102 95.623C258.133 95.4863 258.166 95.3418 258.201 95.1895C258.24 95.0332 258.281 94.8789 258.324 94.7266C258.367 94.5703 258.41 94.4238 258.453 94.2871L259.637 90.5664H260.686L261.828 94.2812C261.887 94.4688 261.943 94.6641 261.998 94.8672C262.057 95.0703 262.109 95.2676 262.156 95.459C262.203 95.6465 262.236 95.8145 262.256 95.9629H262.303C262.318 95.8301 262.348 95.666 262.391 95.4707C262.434 95.2754 262.482 95.0605 262.537 94.8262C262.596 94.5918 262.656 94.3535 262.719 94.1113L263.656 90.5664H264.646L262.871 96.9883H261.74Z" fill="#161616"/>
<rect x="333" y="110" width="1" height="37" fill="black" fill-opacity="0.15"/>
<path d="M246.939 134L244.062 126.418H244.016C244.031 126.578 244.045 126.773 244.057 127.004C244.068 127.234 244.078 127.486 244.086 127.76C244.094 128.029 244.098 128.305 244.098 128.586V134H243.172V125.434H244.648L247.361 132.559H247.402L250.156 125.434H251.621V134H250.637V128.516C250.637 128.262 250.641 128.008 250.648 127.754C250.656 127.496 250.666 127.254 250.678 127.027C250.689 126.797 250.701 126.598 250.713 126.43H250.666L247.754 134H246.939ZM256.291 127.461C256.838 127.461 257.307 127.582 257.697 127.824C258.088 128.066 258.387 128.406 258.594 128.844C258.801 129.277 258.904 129.785 258.904 130.367V130.971H254.469C254.48 131.725 254.668 132.299 255.031 132.693C255.395 133.088 255.906 133.285 256.566 133.285C256.973 133.285 257.332 133.248 257.645 133.174C257.957 133.1 258.281 132.99 258.617 132.846V133.701C258.293 133.846 257.971 133.951 257.65 134.018C257.334 134.084 256.959 134.117 256.525 134.117C255.908 134.117 255.369 133.992 254.908 133.742C254.451 133.488 254.096 133.117 253.842 132.629C253.588 132.141 253.461 131.543 253.461 130.836C253.461 130.145 253.576 129.547 253.807 129.043C254.041 128.535 254.369 128.145 254.791 127.871C255.217 127.598 255.717 127.461 256.291 127.461ZM256.279 128.258C255.76 128.258 255.346 128.428 255.037 128.768C254.729 129.107 254.545 129.582 254.486 130.191H257.885C257.881 129.809 257.82 129.473 257.703 129.184C257.59 128.891 257.416 128.664 257.182 128.504C256.947 128.34 256.646 128.258 256.279 128.258ZM262.842 134.117C262.029 134.117 261.385 133.84 260.908 133.285C260.436 132.73 260.199 131.906 260.199 130.812C260.199 129.707 260.441 128.873 260.926 128.311C261.41 127.744 262.055 127.461 262.859 127.461C263.199 127.461 263.496 127.506 263.75 127.596C264.004 127.686 264.223 127.807 264.406 127.959C264.59 128.107 264.744 128.277 264.869 128.469H264.939C264.924 128.348 264.908 128.182 264.893 127.971C264.877 127.76 264.869 127.588 264.869 127.455V124.883H265.842V134H265.057L264.91 133.086H264.869C264.748 133.277 264.594 133.451 264.406 133.607C264.223 133.764 264.002 133.889 263.744 133.982C263.49 134.072 263.189 134.117 262.842 134.117ZM262.994 133.309C263.682 133.309 264.168 133.113 264.453 132.723C264.738 132.332 264.881 131.752 264.881 130.982V130.807C264.881 129.99 264.744 129.363 264.471 128.926C264.201 128.488 263.709 128.27 262.994 128.27C262.396 128.27 261.949 128.5 261.652 128.961C261.355 129.418 261.207 130.043 261.207 130.836C261.207 131.625 261.354 132.234 261.646 132.664C261.943 133.094 262.393 133.309 262.994 133.309ZM268.877 127.578V134H267.904V127.578H268.877ZM268.402 125.176C268.562 125.176 268.699 125.229 268.812 125.334C268.93 125.436 268.988 125.596 268.988 125.814C268.988 126.029 268.93 126.189 268.812 126.295C268.699 126.4 268.562 126.453 268.402 126.453C268.234 126.453 268.094 126.4 267.98 126.295C267.871 126.189 267.816 126.029 267.816 125.814C267.816 125.596 267.871 125.436 267.98 125.334C268.094 125.229 268.234 125.176 268.402 125.176ZM276.242 127.578V134H275.445L275.305 133.098H275.252C275.119 133.32 274.947 133.508 274.736 133.66C274.525 133.812 274.287 133.926 274.021 134C273.76 134.078 273.48 134.117 273.184 134.117C272.676 134.117 272.25 134.035 271.906 133.871C271.562 133.707 271.303 133.453 271.127 133.109C270.955 132.766 270.869 132.324 270.869 131.785V127.578H271.854V131.715C271.854 132.25 271.975 132.65 272.217 132.916C272.459 133.178 272.828 133.309 273.324 133.309C273.801 133.309 274.18 133.219 274.461 133.039C274.746 132.859 274.951 132.596 275.076 132.248C275.201 131.896 275.264 131.467 275.264 130.959V127.578H276.242ZM285.271 127.461C285.979 127.461 286.512 127.646 286.871 128.018C287.23 128.385 287.41 128.977 287.41 129.793V134H286.449V129.84C286.449 129.32 286.336 128.932 286.109 128.674C285.887 128.412 285.555 128.281 285.113 128.281C284.492 128.281 284.041 128.461 283.76 128.82C283.479 129.18 283.338 129.709 283.338 130.408V134H282.371V129.84C282.371 129.492 282.32 129.203 282.219 128.973C282.121 128.742 281.973 128.57 281.773 128.457C281.578 128.34 281.33 128.281 281.029 128.281C280.604 128.281 280.262 128.369 280.004 128.545C279.746 128.721 279.559 128.982 279.441 129.33C279.328 129.674 279.271 130.098 279.271 130.602V134H278.299V127.578H279.084L279.23 128.486H279.283C279.412 128.264 279.574 128.076 279.77 127.924C279.965 127.771 280.184 127.656 280.426 127.578C280.668 127.5 280.926 127.461 281.199 127.461C281.688 127.461 282.096 127.553 282.424 127.736C282.756 127.916 282.996 128.191 283.145 128.562H283.197C283.408 128.191 283.697 127.916 284.064 127.736C284.432 127.553 284.834 127.461 285.271 127.461Z" fill="#161616"/>
<rect x="333" y="147" width="1" height="37" fill="black" fill-opacity="0.15"/>
<path d="M249.664 171H248.668V166.963H244.168V171H243.172V162.434H244.168V166.084H248.668V162.434H249.664V171ZM252.846 164.578V171H251.873V164.578H252.846ZM252.371 162.176C252.531 162.176 252.668 162.229 252.781 162.334C252.898 162.436 252.957 162.596 252.957 162.814C252.957 163.029 252.898 163.189 252.781 163.295C252.668 163.4 252.531 163.453 252.371 163.453C252.203 163.453 252.062 163.4 251.949 163.295C251.84 163.189 251.785 163.029 251.785 162.814C251.785 162.596 251.84 162.436 251.949 162.334C252.062 162.229 252.203 162.176 252.371 162.176ZM256.701 173.883C255.857 173.883 255.207 173.725 254.75 173.408C254.293 173.096 254.064 172.656 254.064 172.09C254.064 171.688 254.191 171.344 254.445 171.059C254.703 170.773 255.059 170.584 255.512 170.49C255.344 170.412 255.199 170.295 255.078 170.139C254.961 169.982 254.902 169.803 254.902 169.6C254.902 169.365 254.967 169.16 255.096 168.984C255.229 168.805 255.43 168.633 255.699 168.469C255.363 168.332 255.09 168.102 254.879 167.777C254.672 167.449 254.568 167.068 254.568 166.635C254.568 166.174 254.664 165.781 254.855 165.457C255.047 165.129 255.324 164.879 255.688 164.707C256.051 164.535 256.49 164.449 257.006 164.449C257.119 164.449 257.232 164.455 257.346 164.467C257.463 164.475 257.574 164.488 257.68 164.508C257.785 164.523 257.877 164.543 257.955 164.566H260.158V165.193L258.975 165.34C259.092 165.492 259.189 165.676 259.268 165.891C259.346 166.105 259.385 166.344 259.385 166.605C259.385 167.246 259.168 167.756 258.734 168.135C258.301 168.51 257.705 168.697 256.947 168.697C256.768 168.697 256.584 168.682 256.396 168.65C256.205 168.756 256.059 168.873 255.957 169.002C255.859 169.131 255.811 169.279 255.811 169.447C255.811 169.572 255.848 169.672 255.922 169.746C256 169.82 256.111 169.875 256.256 169.91C256.4 169.941 256.574 169.957 256.777 169.957H257.908C258.607 169.957 259.143 170.104 259.514 170.396C259.889 170.689 260.076 171.117 260.076 171.68C260.076 172.391 259.787 172.936 259.209 173.314C258.631 173.693 257.795 173.883 256.701 173.883ZM256.73 173.121C257.262 173.121 257.701 173.066 258.049 172.957C258.4 172.852 258.662 172.697 258.834 172.494C259.01 172.295 259.098 172.057 259.098 171.779C259.098 171.521 259.039 171.326 258.922 171.193C258.805 171.064 258.633 170.979 258.406 170.936C258.18 170.889 257.902 170.865 257.574 170.865H256.461C256.172 170.865 255.92 170.91 255.705 171C255.49 171.09 255.324 171.223 255.207 171.398C255.094 171.574 255.037 171.793 255.037 172.055C255.037 172.402 255.184 172.666 255.477 172.846C255.77 173.029 256.188 173.121 256.73 173.121ZM256.982 167.988C257.447 167.988 257.797 167.871 258.031 167.637C258.266 167.402 258.383 167.061 258.383 166.611C258.383 166.131 258.264 165.771 258.025 165.533C257.787 165.291 257.436 165.17 256.971 165.17C256.525 165.17 256.182 165.295 255.939 165.545C255.701 165.791 255.582 166.152 255.582 166.629C255.582 167.066 255.703 167.402 255.945 167.637C256.188 167.871 256.533 167.988 256.982 167.988ZM262.396 161.883V164.607C262.396 164.764 262.393 164.922 262.385 165.082C262.377 165.238 262.363 165.383 262.344 165.516H262.408C262.541 165.289 262.709 165.1 262.912 164.947C263.119 164.791 263.354 164.674 263.615 164.596C263.877 164.514 264.154 164.473 264.447 164.473C264.963 164.473 265.393 164.555 265.736 164.719C266.084 164.883 266.344 165.137 266.516 165.48C266.691 165.824 266.779 166.27 266.779 166.816V171H265.818V166.881C265.818 166.346 265.695 165.945 265.449 165.68C265.207 165.414 264.834 165.281 264.33 165.281C263.854 165.281 263.473 165.373 263.188 165.557C262.906 165.736 262.703 166.002 262.578 166.354C262.457 166.705 262.396 167.135 262.396 167.643V171H261.424V161.883H262.396Z" fill="#161616"/>
<rect x="433" y="48" width="1" height="11" fill="black" fill-opacity="0.15"/>
<path d="M345.754 58H344.46V51.2432H342.161V50.1475H348.048V51.2432H345.754V58ZM352.135 51.9414C352.236 51.9414 352.345 51.9468 352.463 51.9575C352.581 51.9683 352.683 51.9826 352.769 52.0005L352.651 53.1821C352.576 53.1606 352.483 53.1445 352.372 53.1338C352.264 53.123 352.167 53.1177 352.082 53.1177C351.856 53.1177 351.641 53.1553 351.437 53.2305C351.233 53.3021 351.052 53.4131 350.895 53.5635C350.737 53.7103 350.613 53.8947 350.524 54.1167C350.434 54.3387 350.39 54.5965 350.39 54.8901V58H349.122V52.0542H350.11L350.282 53.1016H350.341C350.459 52.8903 350.606 52.6969 350.782 52.5215C350.957 52.346 351.158 52.2064 351.383 52.1025C351.612 51.9951 351.863 51.9414 352.135 51.9414ZM356.201 51.9414C356.953 51.9414 357.521 52.1079 357.904 52.4409C358.291 52.7739 358.484 53.2931 358.484 53.9985V58H357.587L357.345 57.1567H357.302C357.134 57.3716 356.96 57.5488 356.781 57.6885C356.602 57.8281 356.395 57.932 356.158 58C355.925 58.0716 355.641 58.1074 355.304 58.1074C354.95 58.1074 354.633 58.043 354.354 57.9141C354.074 57.7816 353.854 57.5811 353.693 57.3125C353.532 57.0439 353.451 56.7038 353.451 56.292C353.451 55.6797 353.679 55.2196 354.133 54.9116C354.592 54.6037 355.283 54.4336 356.207 54.4014L357.238 54.3638V54.0522C357.238 53.6405 357.141 53.3468 356.948 53.1714C356.758 52.9959 356.489 52.9082 356.142 52.9082C355.845 52.9082 355.557 52.9512 355.277 53.0371C354.998 53.123 354.726 53.2287 354.461 53.354L354.053 52.4624C354.343 52.3084 354.672 52.1831 355.041 52.0864C355.413 51.9897 355.8 51.9414 356.201 51.9414ZM357.232 55.1587L356.464 55.1855C355.834 55.207 355.392 55.3145 355.138 55.5078C354.883 55.7012 354.756 55.9661 354.756 56.3027C354.756 56.5964 354.844 56.8112 355.02 56.9473C355.195 57.0798 355.426 57.146 355.712 57.146C356.149 57.146 356.511 57.0225 356.797 56.7754C357.087 56.5247 357.232 56.1577 357.232 55.6743V55.1587ZM362.249 58.1074C361.54 58.1074 360.971 57.8496 360.541 57.334C360.115 56.8148 359.902 56.0503 359.902 55.0405C359.902 54.02 360.118 53.2484 360.552 52.7256C360.989 52.2028 361.563 51.9414 362.276 51.9414C362.577 51.9414 362.84 51.9826 363.065 52.0649C363.291 52.1437 363.484 52.2511 363.646 52.3872C363.81 52.5233 363.95 52.6755 364.064 52.8438H364.124C364.106 52.7327 364.084 52.5734 364.059 52.3657C364.038 52.1545 364.027 51.9593 364.027 51.7803V49.6426H365.294V58H364.306L364.081 57.189H364.027C363.919 57.3608 363.783 57.5166 363.619 57.6562C363.458 57.7923 363.264 57.9015 363.039 57.9839C362.817 58.0662 362.553 58.1074 362.249 58.1074ZM362.604 57.0815C363.144 57.0815 363.526 56.9258 363.748 56.6143C363.97 56.3027 364.084 55.8354 364.091 55.2124V55.0459C364.091 54.3799 363.984 53.8696 363.769 53.5151C363.554 53.1571 363.162 52.978 362.593 52.978C362.138 52.978 361.791 53.1624 361.551 53.5312C361.314 53.8965 361.196 54.4067 361.196 55.062C361.196 55.7173 361.314 56.2186 361.551 56.5659C361.791 56.9097 362.142 57.0815 362.604 57.0815ZM369.473 51.9414C370.003 51.9414 370.458 52.0506 370.837 52.269C371.217 52.4875 371.509 52.7972 371.713 53.1982C371.917 53.5993 372.019 54.0791 372.019 54.6377V55.3145H368.05C368.064 55.891 368.218 56.335 368.512 56.6465C368.809 56.958 369.224 57.1138 369.758 57.1138C370.137 57.1138 370.478 57.078 370.778 57.0063C371.083 56.9312 371.396 56.8219 371.718 56.6787V57.7046C371.421 57.8442 371.118 57.9463 370.811 58.0107C370.503 58.0752 370.134 58.1074 369.704 58.1074C369.12 58.1074 368.607 57.9946 368.163 57.769C367.722 57.5399 367.377 57.1997 367.126 56.7485C366.879 56.2974 366.755 55.737 366.755 55.0674C366.755 54.4014 366.868 53.8356 367.094 53.3701C367.319 52.9046 367.636 52.5501 368.044 52.3066C368.453 52.0632 368.929 51.9414 369.473 51.9414ZM369.473 52.8921C369.076 52.8921 368.753 53.021 368.506 53.2788C368.263 53.5366 368.12 53.9144 368.077 54.4121H370.784C370.78 54.1149 370.73 53.8517 370.633 53.6226C370.54 53.3934 370.397 53.2144 370.204 53.0854C370.014 52.9565 369.77 52.8921 369.473 52.8921ZM376.429 58V50.1475H377.718V58H376.429ZM386.167 53.9985C386.167 54.883 386.002 55.6224 385.672 56.2168C385.343 56.8076 384.865 57.2534 384.238 57.5542C383.612 57.8514 382.856 58 381.972 58H379.791V50.1475H382.208C383.021 50.1475 383.723 50.2943 384.313 50.5879C384.904 50.8779 385.361 51.3094 385.683 51.8823C386.005 52.4517 386.167 53.1571 386.167 53.9985ZM384.824 54.0361C384.824 53.3916 384.722 52.8617 384.518 52.4463C384.317 52.0309 384.02 51.723 383.626 51.5225C383.236 51.3184 382.754 51.2163 382.181 51.2163H381.08V56.9204H381.993C382.942 56.9204 383.651 56.6787 384.12 56.1953C384.589 55.7119 384.824 54.9922 384.824 54.0361Z" fill="#61656E"/>
<rect x="433" y="73" width="1" height="37" fill="black" fill-opacity="0.15"/>
<path d="M343.699 97L347.215 89.3242H342.545V88.4336H348.258V89.1836L344.766 97H343.699ZM355.5 95.0137H354.217V97H353.268V95.0137H349.125V94.1934L353.203 88.3867H354.217V94.1348H355.5V95.0137ZM353.268 94.1348V91.334C353.268 91.1191 353.27 90.9258 353.273 90.7539C353.277 90.5781 353.283 90.416 353.291 90.2676C353.299 90.1152 353.305 89.9707 353.309 89.834C353.316 89.6973 353.322 89.5625 353.326 89.4297H353.279C353.205 89.5859 353.119 89.752 353.021 89.9277C352.928 90.0996 352.832 90.2539 352.734 90.3906L350.092 94.1348H353.268ZM362.367 95.0137H361.084V97H360.135V95.0137H355.992V94.1934L360.07 88.3867H361.084V94.1348H362.367V95.0137ZM360.135 94.1348V91.334C360.135 91.1191 360.137 90.9258 360.141 90.7539C360.145 90.5781 360.15 90.416 360.158 90.2676C360.166 90.1152 360.172 89.9707 360.176 89.834C360.184 89.6973 360.189 89.5625 360.193 89.4297H360.146C360.072 89.5859 359.986 89.752 359.889 89.9277C359.795 90.0996 359.699 90.2539 359.602 90.3906L356.959 94.1348H360.135ZM368.854 92.7051C368.854 93.4004 368.801 94.0215 368.695 94.5684C368.59 95.1152 368.424 95.5781 368.197 95.957C367.971 96.3359 367.678 96.625 367.318 96.8242C366.959 97.0195 366.527 97.1172 366.023 97.1172C365.387 97.1172 364.859 96.9434 364.441 96.5957C364.027 96.248 363.717 95.7461 363.51 95.0898C363.307 94.4297 363.205 93.6348 363.205 92.7051C363.205 91.791 363.297 91.0059 363.48 90.3496C363.668 89.6895 363.969 89.1836 364.383 88.832C364.797 88.4766 365.344 88.2988 366.023 88.2988C366.668 88.2988 367.199 88.4746 367.617 88.8262C368.035 89.1738 368.346 89.6777 368.549 90.3379C368.752 90.9941 368.854 91.7832 368.854 92.7051ZM364.184 92.7051C364.184 93.502 364.244 94.166 364.365 94.6973C364.486 95.2285 364.682 95.627 364.951 95.8926C365.225 96.1543 365.582 96.2852 366.023 96.2852C366.465 96.2852 366.82 96.1543 367.09 95.8926C367.363 95.6309 367.561 95.2344 367.682 94.7031C367.807 94.1719 367.869 93.5059 367.869 92.7051C367.869 91.9199 367.809 91.2637 367.688 90.7363C367.566 90.2051 367.371 89.8066 367.102 89.541C366.832 89.2715 366.473 89.1367 366.023 89.1367C365.574 89.1367 365.215 89.2715 364.945 89.541C364.676 89.8066 364.48 90.2051 364.359 90.7363C364.242 91.2637 364.184 91.9199 364.184 92.7051ZM375.674 97H370.061V96.1855L372.352 93.8594C372.777 93.4297 373.135 93.0469 373.424 92.7109C373.717 92.375 373.939 92.0449 374.092 91.7207C374.244 91.3926 374.32 91.0332 374.32 90.6426C374.32 90.1582 374.176 89.7891 373.887 89.5352C373.602 89.2773 373.225 89.1484 372.756 89.1484C372.346 89.1484 371.982 89.2188 371.666 89.3594C371.35 89.5 371.025 89.6992 370.693 89.957L370.172 89.3008C370.398 89.1094 370.645 88.9395 370.91 88.791C371.18 88.6426 371.467 88.5254 371.771 88.4395C372.08 88.3535 372.408 88.3105 372.756 88.3105C373.283 88.3105 373.738 88.4023 374.121 88.5859C374.504 88.7695 374.799 89.0312 375.006 89.3711C375.217 89.7109 375.322 90.1152 375.322 90.584C375.322 91.0371 375.232 91.459 375.053 91.8496C374.873 92.2363 374.621 92.6211 374.297 93.0039C373.973 93.3828 373.594 93.7852 373.16 94.2109L371.297 96.0684V96.1094H375.674V97ZM382.225 90.4316C382.225 90.8145 382.15 91.1465 382.002 91.4277C381.854 91.709 381.646 91.9395 381.381 92.1191C381.115 92.2949 380.803 92.418 380.443 92.4883V92.5352C381.123 92.6211 381.633 92.8398 381.973 93.1914C382.316 93.543 382.488 94.0039 382.488 94.5742C382.488 95.0703 382.371 95.5098 382.137 95.8926C381.906 96.2754 381.551 96.5762 381.07 96.7949C380.594 97.0098 379.982 97.1172 379.236 97.1172C378.783 97.1172 378.363 97.0801 377.977 97.0059C377.594 96.9355 377.227 96.8164 376.875 96.6484V95.7344C377.23 95.9102 377.617 96.0488 378.035 96.1504C378.453 96.248 378.857 96.2969 379.248 96.2969C380.029 96.2969 380.594 96.1426 380.941 95.834C381.289 95.5215 381.463 95.0957 381.463 94.5566C381.463 94.1855 381.365 93.8867 381.17 93.6602C380.979 93.4297 380.701 93.2617 380.338 93.1562C379.979 93.0469 379.545 92.9922 379.037 92.9922H378.182V92.1602H379.043C379.508 92.1602 379.902 92.0918 380.227 91.9551C380.551 91.8184 380.797 91.627 380.965 91.3809C381.137 91.1309 381.223 90.8359 381.223 90.4961C381.223 90.0625 381.078 89.7285 380.789 89.4941C380.5 89.2559 380.107 89.1367 379.611 89.1367C379.307 89.1367 379.029 89.168 378.779 89.2305C378.529 89.293 378.295 89.3789 378.076 89.4883C377.857 89.5977 377.639 89.7246 377.42 89.8691L376.928 89.2012C377.24 88.959 377.621 88.75 378.07 88.5742C378.52 88.3984 379.029 88.3105 379.6 88.3105C380.475 88.3105 381.131 88.5098 381.568 88.9082C382.006 89.3066 382.225 89.8145 382.225 90.4316ZM386.502 91.7617C387.084 91.7617 387.59 91.8613 388.02 92.0605C388.449 92.2559 388.781 92.541 389.016 92.916C389.254 93.291 389.373 93.7461 389.373 94.2812C389.373 94.8672 389.246 95.373 388.992 95.7988C388.738 96.2207 388.373 96.5469 387.896 96.7773C387.42 97.0039 386.85 97.1172 386.186 97.1172C385.74 97.1172 385.326 97.0781 384.943 97C384.561 96.9219 384.238 96.8047 383.977 96.6484V95.7227C384.262 95.8945 384.607 96.0312 385.014 96.1328C385.42 96.2344 385.814 96.2852 386.197 96.2852C386.631 96.2852 387.01 96.2168 387.334 96.0801C387.662 95.9395 387.916 95.7285 388.096 95.4473C388.279 95.1621 388.371 94.8047 388.371 94.375C388.371 93.8047 388.195 93.3652 387.844 93.0566C387.496 92.7441 386.945 92.5879 386.191 92.5879C385.949 92.5879 385.684 92.6074 385.395 92.6465C385.105 92.6855 384.867 92.7285 384.68 92.7754L384.188 92.4531L384.516 88.4336H388.775V89.3242H385.348L385.131 91.9082C385.279 91.877 385.471 91.8457 385.705 91.8145C385.939 91.7793 386.205 91.7617 386.502 91.7617Z" fill="#161616"/>
<rect x="433" y="110" width="1" height="37" fill="black" fill-opacity="0.15"/>
<path d="M343.699 134L347.215 126.324H342.545V125.434H348.258V126.184L344.766 134H343.699ZM355.5 132.014H354.217V134H353.268V132.014H349.125V131.193L353.203 125.387H354.217V131.135H355.5V132.014ZM353.268 131.135V128.334C353.268 128.119 353.27 127.926 353.273 127.754C353.277 127.578 353.283 127.416 353.291 127.268C353.299 127.115 353.305 126.971 353.309 126.834C353.316 126.697 353.322 126.562 353.326 126.43H353.279C353.205 126.586 353.119 126.752 353.021 126.928C352.928 127.1 352.832 127.254 352.734 127.391L350.092 131.135H353.268ZM362.367 132.014H361.084V134H360.135V132.014H355.992V131.193L360.07 125.387H361.084V131.135H362.367V132.014ZM360.135 131.135V128.334C360.135 128.119 360.137 127.926 360.141 127.754C360.145 127.578 360.15 127.416 360.158 127.268C360.166 127.115 360.172 126.971 360.176 126.834C360.184 126.697 360.189 126.562 360.193 126.43H360.146C360.072 126.586 359.986 126.752 359.889 126.928C359.795 127.1 359.699 127.254 359.602 127.391L356.959 131.135H360.135ZM368.854 129.705C368.854 130.4 368.801 131.021 368.695 131.568C368.59 132.115 368.424 132.578 368.197 132.957C367.971 133.336 367.678 133.625 367.318 133.824C366.959 134.02 366.527 134.117 366.023 134.117C365.387 134.117 364.859 133.943 364.441 133.596C364.027 133.248 363.717 132.746 363.51 132.09C363.307 131.43 363.205 130.635 363.205 129.705C363.205 128.791 363.297 128.006 363.48 127.35C363.668 126.689 363.969 126.184 364.383 125.832C364.797 125.477 365.344 125.299 366.023 125.299C366.668 125.299 367.199 125.475 367.617 125.826C368.035 126.174 368.346 126.678 368.549 127.338C368.752 127.994 368.854 128.783 368.854 129.705ZM364.184 129.705C364.184 130.502 364.244 131.166 364.365 131.697C364.486 132.229 364.682 132.627 364.951 132.893C365.225 133.154 365.582 133.285 366.023 133.285C366.465 133.285 366.82 133.154 367.09 132.893C367.363 132.631 367.561 132.234 367.682 131.703C367.807 131.172 367.869 130.506 367.869 129.705C367.869 128.92 367.809 128.264 367.688 127.736C367.566 127.205 367.371 126.807 367.102 126.541C366.832 126.271 366.473 126.137 366.023 126.137C365.574 126.137 365.215 126.271 364.945 126.541C364.676 126.807 364.48 127.205 364.359 127.736C364.242 128.264 364.184 128.92 364.184 129.705ZM375.674 134H370.061V133.186L372.352 130.859C372.777 130.43 373.135 130.047 373.424 129.711C373.717 129.375 373.939 129.045 374.092 128.721C374.244 128.393 374.32 128.033 374.32 127.643C374.32 127.158 374.176 126.789 373.887 126.535C373.602 126.277 373.225 126.148 372.756 126.148C372.346 126.148 371.982 126.219 371.666 126.359C371.35 126.5 371.025 126.699 370.693 126.957L370.172 126.301C370.398 126.109 370.645 125.939 370.91 125.791C371.18 125.643 371.467 125.525 371.771 125.439C372.08 125.354 372.408 125.311 372.756 125.311C373.283 125.311 373.738 125.402 374.121 125.586C374.504 125.77 374.799 126.031 375.006 126.371C375.217 126.711 375.322 127.115 375.322 127.584C375.322 128.037 375.232 128.459 375.053 128.85C374.873 129.236 374.621 129.621 374.297 130.004C373.973 130.383 373.594 130.785 373.16 131.211L371.297 133.068V133.109H375.674V134ZM382.225 127.432C382.225 127.814 382.15 128.146 382.002 128.428C381.854 128.709 381.646 128.939 381.381 129.119C381.115 129.295 380.803 129.418 380.443 129.488V129.535C381.123 129.621 381.633 129.84 381.973 130.191C382.316 130.543 382.488 131.004 382.488 131.574C382.488 132.07 382.371 132.51 382.137 132.893C381.906 133.275 381.551 133.576 381.07 133.795C380.594 134.01 379.982 134.117 379.236 134.117C378.783 134.117 378.363 134.08 377.977 134.006C377.594 133.936 377.227 133.816 376.875 133.648V132.734C377.23 132.91 377.617 133.049 378.035 133.15C378.453 133.248 378.857 133.297 379.248 133.297C380.029 133.297 380.594 133.143 380.941 132.834C381.289 132.521 381.463 132.096 381.463 131.557C381.463 131.186 381.365 130.887 381.17 130.66C380.979 130.43 380.701 130.262 380.338 130.156C379.979 130.047 379.545 129.992 379.037 129.992H378.182V129.16H379.043C379.508 129.16 379.902 129.092 380.227 128.955C380.551 128.818 380.797 128.627 380.965 128.381C381.137 128.131 381.223 127.836 381.223 127.496C381.223 127.062 381.078 126.729 380.789 126.494C380.5 126.256 380.107 126.137 379.611 126.137C379.307 126.137 379.029 126.168 378.779 126.23C378.529 126.293 378.295 126.379 378.076 126.488C377.857 126.598 377.639 126.725 377.42 126.869L376.928 126.201C377.24 125.959 377.621 125.75 378.07 125.574C378.52 125.398 379.029 125.311 379.6 125.311C380.475 125.311 381.131 125.51 381.568 125.908C382.006 126.307 382.225 126.814 382.225 127.432ZM386.502 128.762C387.084 128.762 387.59 128.861 388.02 129.061C388.449 129.256 388.781 129.541 389.016 129.916C389.254 130.291 389.373 130.746 389.373 131.281C389.373 131.867 389.246 132.373 388.992 132.799C388.738 133.221 388.373 133.547 387.896 133.777C387.42 134.004 386.85 134.117 386.186 134.117C385.74 134.117 385.326 134.078 384.943 134C384.561 133.922 384.238 133.805 383.977 133.648V132.723C384.262 132.895 384.607 133.031 385.014 133.133C385.42 133.234 385.814 133.285 386.197 133.285C386.631 133.285 387.01 133.217 387.334 133.08C387.662 132.939 387.916 132.729 388.096 132.447C388.279 132.162 388.371 131.805 388.371 131.375C388.371 130.805 388.195 130.365 387.844 130.057C387.496 129.744 386.945 129.588 386.191 129.588C385.949 129.588 385.684 129.607 385.395 129.646C385.105 129.686 384.867 129.729 384.68 129.775L384.188 129.453L384.516 125.434H388.775V126.324H385.348L385.131 128.908C385.279 128.877 385.471 128.846 385.705 128.814C385.939 128.779 386.205 128.762 386.502 128.762Z" fill="#161616"/>
<rect x="433" y="147" width="1" height="37" fill="black" fill-opacity="0.15"/>
<path d="M343.699 171L347.215 163.324H342.545V162.434H348.258V163.184L344.766 171H343.699ZM355.5 169.014H354.217V171H353.268V169.014H349.125V168.193L353.203 162.387H354.217V168.135H355.5V169.014ZM353.268 168.135V165.334C353.268 165.119 353.27 164.926 353.273 164.754C353.277 164.578 353.283 164.416 353.291 164.268C353.299 164.115 353.305 163.971 353.309 163.834C353.316 163.697 353.322 163.562 353.326 163.43H353.279C353.205 163.586 353.119 163.752 353.021 163.928C352.928 164.1 352.832 164.254 352.734 164.391L350.092 168.135H353.268ZM362.367 169.014H361.084V171H360.135V169.014H355.992V168.193L360.07 162.387H361.084V168.135H362.367V169.014ZM360.135 168.135V165.334C360.135 165.119 360.137 164.926 360.141 164.754C360.145 164.578 360.15 164.416 360.158 164.268C360.166 164.115 360.172 163.971 360.176 163.834C360.184 163.697 360.189 163.562 360.193 163.43H360.146C360.072 163.586 359.986 163.752 359.889 163.928C359.795 164.1 359.699 164.254 359.602 164.391L356.959 168.135H360.135ZM368.854 166.705C368.854 167.4 368.801 168.021 368.695 168.568C368.59 169.115 368.424 169.578 368.197 169.957C367.971 170.336 367.678 170.625 367.318 170.824C366.959 171.02 366.527 171.117 366.023 171.117C365.387 171.117 364.859 170.943 364.441 170.596C364.027 170.248 363.717 169.746 363.51 169.09C363.307 168.43 363.205 167.635 363.205 166.705C363.205 165.791 363.297 165.006 363.48 164.35C363.668 163.689 363.969 163.184 364.383 162.832C364.797 162.477 365.344 162.299 366.023 162.299C366.668 162.299 367.199 162.475 367.617 162.826C368.035 163.174 368.346 163.678 368.549 164.338C368.752 164.994 368.854 165.783 368.854 166.705ZM364.184 166.705C364.184 167.502 364.244 168.166 364.365 168.697C364.486 169.229 364.682 169.627 364.951 169.893C365.225 170.154 365.582 170.285 366.023 170.285C366.465 170.285 366.82 170.154 367.09 169.893C367.363 169.631 367.561 169.234 367.682 168.703C367.807 168.172 367.869 167.506 367.869 166.705C367.869 165.92 367.809 165.264 367.688 164.736C367.566 164.205 367.371 163.807 367.102 163.541C366.832 163.271 366.473 163.137 366.023 163.137C365.574 163.137 365.215 163.271 364.945 163.541C364.676 163.807 364.48 164.205 364.359 164.736C364.242 165.264 364.184 165.92 364.184 166.705ZM375.674 171H370.061V170.186L372.352 167.859C372.777 167.43 373.135 167.047 373.424 166.711C373.717 166.375 373.939 166.045 374.092 165.721C374.244 165.393 374.32 165.033 374.32 164.643C374.32 164.158 374.176 163.789 373.887 163.535C373.602 163.277 373.225 163.148 372.756 163.148C372.346 163.148 371.982 163.219 371.666 163.359C371.35 163.5 371.025 163.699 370.693 163.957L370.172 163.301C370.398 163.109 370.645 162.939 370.91 162.791C371.18 162.643 371.467 162.525 371.771 162.439C372.08 162.354 372.408 162.311 372.756 162.311C373.283 162.311 373.738 162.402 374.121 162.586C374.504 162.77 374.799 163.031 375.006 163.371C375.217 163.711 375.322 164.115 375.322 164.584C375.322 165.037 375.232 165.459 375.053 165.85C374.873 166.236 374.621 166.621 374.297 167.004C373.973 167.383 373.594 167.785 373.16 168.211L371.297 170.068V170.109H375.674V171ZM382.225 164.432C382.225 164.814 382.15 165.146 382.002 165.428C381.854 165.709 381.646 165.939 381.381 166.119C381.115 166.295 380.803 166.418 380.443 166.488V166.535C381.123 166.621 381.633 166.84 381.973 167.191C382.316 167.543 382.488 168.004 382.488 168.574C382.488 169.07 382.371 169.51 382.137 169.893C381.906 170.275 381.551 170.576 381.07 170.795C380.594 171.01 379.982 171.117 379.236 171.117C378.783 171.117 378.363 171.08 377.977 171.006C377.594 170.936 377.227 170.816 376.875 170.648V169.734C377.23 169.91 377.617 170.049 378.035 170.15C378.453 170.248 378.857 170.297 379.248 170.297C380.029 170.297 380.594 170.143 380.941 169.834C381.289 169.521 381.463 169.096 381.463 168.557C381.463 168.186 381.365 167.887 381.17 167.66C380.979 167.43 380.701 167.262 380.338 167.156C379.979 167.047 379.545 166.992 379.037 166.992H378.182V166.16H379.043C379.508 166.16 379.902 166.092 380.227 165.955C380.551 165.818 380.797 165.627 380.965 165.381C381.137 165.131 381.223 164.836 381.223 164.496C381.223 164.062 381.078 163.729 380.789 163.494C380.5 163.256 380.107 163.137 379.611 163.137C379.307 163.137 379.029 163.168 378.779 163.23C378.529 163.293 378.295 163.379 378.076 163.488C377.857 163.598 377.639 163.725 377.42 163.869L376.928 163.201C377.24 162.959 377.621 162.75 378.07 162.574C378.52 162.398 379.029 162.311 379.6 162.311C380.475 162.311 381.131 162.51 381.568 162.908C382.006 163.307 382.225 163.814 382.225 164.432ZM386.502 165.762C387.084 165.762 387.59 165.861 388.02 166.061C388.449 166.256 388.781 166.541 389.016 166.916C389.254 167.291 389.373 167.746 389.373 168.281C389.373 168.867 389.246 169.373 388.992 169.799C388.738 170.221 388.373 170.547 387.896 170.777C387.42 171.004 386.85 171.117 386.186 171.117C385.74 171.117 385.326 171.078 384.943 171C384.561 170.922 384.238 170.805 383.977 170.648V169.723C384.262 169.895 384.607 170.031 385.014 170.133C385.42 170.234 385.814 170.285 386.197 170.285C386.631 170.285 387.01 170.217 387.334 170.08C387.662 169.939 387.916 169.729 388.096 169.447C388.279 169.162 388.371 168.805 388.371 168.375C388.371 167.805 388.195 167.365 387.844 167.057C387.496 166.744 386.945 166.588 386.191 166.588C385.949 166.588 385.684 166.607 385.395 166.646C385.105 166.686 384.867 166.729 384.68 166.775L384.188 166.453L384.516 162.434H388.775V163.324H385.348L385.131 165.908C385.279 165.877 385.471 165.846 385.705 165.814C385.939 165.779 386.205 165.762 386.502 165.762Z" fill="#161616"/>
<rect x="533" y="48" width="1" height="11" fill="black" fill-opacity="0.15"/>
<path d="M448.854 50.1475L446.109 58H444.745L442 50.1475H443.321L444.976 55.0674C445.026 55.2106 445.079 55.3843 445.137 55.5884C445.198 55.7925 445.253 55.9984 445.303 56.2061C445.357 56.4137 445.398 56.5981 445.427 56.7593C445.455 56.5981 445.495 56.4137 445.545 56.2061C445.599 55.9984 445.654 55.7925 445.711 55.5884C445.769 55.3843 445.822 55.2088 445.873 55.062L447.532 50.1475H448.854ZM452.087 51.9414C452.839 51.9414 453.406 52.1079 453.79 52.4409C454.176 52.7739 454.37 53.2931 454.37 53.9985V58H453.473L453.231 57.1567H453.188C453.02 57.3716 452.846 57.5488 452.667 57.6885C452.488 57.8281 452.28 57.932 452.044 58C451.811 58.0716 451.527 58.1074 451.19 58.1074C450.835 58.1074 450.519 58.043 450.239 57.9141C449.96 57.7816 449.74 57.5811 449.579 57.3125C449.417 57.0439 449.337 56.7038 449.337 56.292C449.337 55.6797 449.564 55.2196 450.019 54.9116C450.477 54.6037 451.168 54.4336 452.092 54.4014L453.124 54.3638V54.0522C453.124 53.6405 453.027 53.3468 452.833 53.1714C452.644 52.9959 452.375 52.9082 452.028 52.9082C451.731 52.9082 451.442 52.9512 451.163 53.0371C450.884 53.123 450.612 53.2287 450.347 53.354L449.938 52.4624C450.229 52.3084 450.558 52.1831 450.927 52.0864C451.299 51.9897 451.686 51.9414 452.087 51.9414ZM453.118 55.1587L452.35 55.1855C451.72 55.207 451.278 55.3145 451.023 55.5078C450.769 55.7012 450.642 55.9661 450.642 56.3027C450.642 56.5964 450.73 56.8112 450.905 56.9473C451.081 57.0798 451.312 57.146 451.598 57.146C452.035 57.146 452.397 57.0225 452.683 56.7754C452.973 56.5247 453.118 56.1577 453.118 55.6743V55.1587ZM457.404 58H456.137V49.6426H457.404V58ZM464.392 52.0542V58H463.398L463.227 57.1997H463.157C463.031 57.4038 462.872 57.5739 462.679 57.71C462.485 57.8424 462.271 57.9409 462.034 58.0054C461.798 58.0734 461.549 58.1074 461.288 58.1074C460.84 58.1074 460.457 58.0322 460.138 57.8818C459.823 57.7279 459.581 57.4915 459.413 57.1729C459.245 56.8542 459.161 56.4424 459.161 55.9375V52.0542H460.428V55.7012C460.428 56.1631 460.521 56.5086 460.708 56.7378C460.897 56.967 461.191 57.0815 461.588 57.0815C461.972 57.0815 462.276 57.0028 462.501 56.8452C462.727 56.6877 462.886 56.4549 462.979 56.147C463.076 55.839 463.125 55.4613 463.125 55.0137V52.0542H464.392ZM468.571 51.9414C469.101 51.9414 469.556 52.0506 469.935 52.269C470.315 52.4875 470.606 52.7972 470.811 53.1982C471.015 53.5993 471.117 54.0791 471.117 54.6377V55.3145H467.147C467.162 55.891 467.316 56.335 467.609 56.6465C467.907 56.958 468.322 57.1138 468.855 57.1138C469.235 57.1138 469.575 57.078 469.876 57.0063C470.18 56.9312 470.494 56.8219 470.816 56.6787V57.7046C470.519 57.8442 470.216 57.9463 469.908 58.0107C469.6 58.0752 469.231 58.1074 468.802 58.1074C468.218 58.1074 467.704 57.9946 467.26 57.769C466.82 57.5399 466.474 57.1997 466.224 56.7485C465.977 56.2974 465.853 55.737 465.853 55.0674C465.853 54.4014 465.966 53.8356 466.191 53.3701C466.417 52.9046 466.734 52.5501 467.142 52.3066C467.55 52.0632 468.027 51.9414 468.571 51.9414ZM468.571 52.8921C468.173 52.8921 467.851 53.021 467.604 53.2788C467.361 53.5366 467.217 53.9144 467.174 54.4121H469.881C469.878 54.1149 469.828 53.8517 469.731 53.6226C469.638 53.3934 469.495 53.2144 469.301 53.0854C469.111 52.9565 468.868 52.8921 468.571 52.8921ZM477.396 58.1074C476.687 58.1074 476.117 57.8496 475.688 57.334C475.261 56.8148 475.048 56.0503 475.048 55.0405C475.048 54.02 475.265 53.2484 475.698 52.7256C476.135 52.2028 476.71 51.9414 477.422 51.9414C477.723 51.9414 477.986 51.9826 478.212 52.0649C478.438 52.1437 478.631 52.2511 478.792 52.3872C478.957 52.5233 479.096 52.6755 479.211 52.8438H479.27C479.252 52.7327 479.231 52.5734 479.206 52.3657C479.184 52.1545 479.173 51.9593 479.173 51.7803V49.6426H480.441V58H479.453L479.227 57.189H479.173C479.066 57.3608 478.93 57.5166 478.765 57.6562C478.604 57.7923 478.411 57.9015 478.185 57.9839C477.963 58.0662 477.7 58.1074 477.396 58.1074ZM477.75 57.0815C478.291 57.0815 478.672 56.9258 478.894 56.6143C479.116 56.3027 479.231 55.8354 479.238 55.2124V55.0459C479.238 54.3799 479.13 53.8696 478.916 53.5151C478.701 53.1571 478.309 52.978 477.739 52.978C477.285 52.978 476.937 53.1624 476.697 53.5312C476.461 53.8965 476.343 54.4067 476.343 55.062C476.343 55.7173 476.461 56.2186 476.697 56.5659C476.937 56.9097 477.288 57.0815 477.75 57.0815ZM484.582 51.9414C485.334 51.9414 485.902 52.1079 486.285 52.4409C486.671 52.7739 486.865 53.2931 486.865 53.9985V58H485.968L485.726 57.1567H485.683C485.515 57.3716 485.341 57.5488 485.162 57.6885C484.983 57.8281 484.775 57.932 484.539 58C484.306 58.0716 484.022 58.1074 483.685 58.1074C483.331 58.1074 483.014 58.043 482.734 57.9141C482.455 57.7816 482.235 57.5811 482.074 57.3125C481.913 57.0439 481.832 56.7038 481.832 56.292C481.832 55.6797 482.059 55.2196 482.514 54.9116C482.972 54.6037 483.664 54.4336 484.587 54.4014L485.619 54.3638V54.0522C485.619 53.6405 485.522 53.3468 485.329 53.1714C485.139 52.9959 484.87 52.9082 484.523 52.9082C484.226 52.9082 483.938 52.9512 483.658 53.0371C483.379 53.123 483.107 53.2287 482.842 53.354L482.434 52.4624C482.724 52.3084 483.053 52.1831 483.422 52.0864C483.794 51.9897 484.181 51.9414 484.582 51.9414ZM485.613 55.1587L484.845 55.1855C484.215 55.207 483.773 55.3145 483.519 55.5078C483.264 55.7012 483.137 55.9661 483.137 56.3027C483.137 56.5964 483.225 56.8112 483.4 56.9473C483.576 57.0798 483.807 57.146 484.093 57.146C484.53 57.146 484.892 57.0225 485.178 56.7754C485.468 56.5247 485.613 56.1577 485.613 55.6743V55.1587ZM490.845 57.0869C491.009 57.0869 491.172 57.0726 491.333 57.0439C491.495 57.0117 491.641 56.9741 491.774 56.9312V57.8872C491.634 57.9481 491.453 58 491.231 58.043C491.009 58.0859 490.778 58.1074 490.539 58.1074C490.202 58.1074 489.899 58.0519 489.631 57.9409C489.362 57.8263 489.149 57.6312 488.992 57.3555C488.834 57.0798 488.755 56.6984 488.755 56.2114V53.0156H487.944V52.4517L488.814 52.0059L489.228 50.7329H490.023V52.0542H491.726V53.0156H490.023V56.1953C490.023 56.4961 490.098 56.7199 490.249 56.8667C490.399 57.0135 490.598 57.0869 490.845 57.0869ZM495.351 51.9414C495.881 51.9414 496.336 52.0506 496.715 52.269C497.095 52.4875 497.387 52.7972 497.591 53.1982C497.795 53.5993 497.897 54.0791 497.897 54.6377V55.3145H493.928C493.942 55.891 494.096 56.335 494.39 56.6465C494.687 56.958 495.102 57.1138 495.636 57.1138C496.015 57.1138 496.355 57.078 496.656 57.0063C496.961 56.9312 497.274 56.8219 497.596 56.6787V57.7046C497.299 57.8442 496.996 57.9463 496.688 58.0107C496.381 58.0752 496.012 58.1074 495.582 58.1074C494.998 58.1074 494.485 57.9946 494.041 57.769C493.6 57.5399 493.255 57.1997 493.004 56.7485C492.757 56.2974 492.633 55.737 492.633 55.0674C492.633 54.4014 492.746 53.8356 492.972 53.3701C493.197 52.9046 493.514 52.5501 493.922 52.3066C494.331 52.0632 494.807 51.9414 495.351 51.9414ZM495.351 52.8921C494.954 52.8921 494.631 53.021 494.384 53.2788C494.141 53.5366 493.998 53.9144 493.955 54.4121H496.662C496.658 54.1149 496.608 53.8517 496.511 53.6226C496.418 53.3934 496.275 53.2144 496.082 53.0854C495.892 52.9565 495.648 52.8921 495.351 52.8921Z" fill="#61656E"/>
<rect x="533" y="73" width="1" height="37" fill="black" fill-opacity="0.15"/>
<path d="M446.213 97H445.264V90.9297C445.264 90.6992 445.264 90.502 445.264 90.3379C445.268 90.1699 445.271 90.0176 445.275 89.8809C445.283 89.7402 445.293 89.5977 445.305 89.4531C445.184 89.5781 445.07 89.6855 444.965 89.7754C444.859 89.8613 444.729 89.9688 444.572 90.0977L443.594 90.8828L443.084 90.2207L445.404 88.4336H446.213V97ZM454.756 90.4316C454.756 90.8145 454.682 91.1465 454.533 91.4277C454.385 91.709 454.178 91.9395 453.912 92.1191C453.646 92.2949 453.334 92.418 452.975 92.4883V92.5352C453.654 92.6211 454.164 92.8398 454.504 93.1914C454.848 93.543 455.02 94.0039 455.02 94.5742C455.02 95.0703 454.902 95.5098 454.668 95.8926C454.438 96.2754 454.082 96.5762 453.602 96.7949C453.125 97.0098 452.514 97.1172 451.768 97.1172C451.314 97.1172 450.895 97.0801 450.508 97.0059C450.125 96.9355 449.758 96.8164 449.406 96.6484V95.7344C449.762 95.9102 450.148 96.0488 450.566 96.1504C450.984 96.248 451.389 96.2969 451.779 96.2969C452.561 96.2969 453.125 96.1426 453.473 95.834C453.82 95.5215 453.994 95.0957 453.994 94.5566C453.994 94.1855 453.896 93.8867 453.701 93.6602C453.51 93.4297 453.232 93.2617 452.869 93.1562C452.51 93.0469 452.076 92.9922 451.568 92.9922H450.713V92.1602H451.574C452.039 92.1602 452.434 92.0918 452.758 91.9551C453.082 91.8184 453.328 91.627 453.496 91.3809C453.668 91.1309 453.754 90.8359 453.754 90.4961C453.754 90.0625 453.609 89.7285 453.32 89.4941C453.031 89.2559 452.639 89.1367 452.143 89.1367C451.838 89.1367 451.561 89.168 451.311 89.2305C451.061 89.293 450.826 89.3789 450.607 89.4883C450.389 89.5977 450.17 89.7246 449.951 89.8691L449.459 89.2012C449.771 88.959 450.152 88.75 450.602 88.5742C451.051 88.3984 451.561 88.3105 452.131 88.3105C453.006 88.3105 453.662 88.5098 454.1 88.9082C454.537 89.3066 454.756 89.8145 454.756 90.4316ZM467.453 92.7051C467.453 93.3652 467.369 93.9668 467.201 94.5098C467.033 95.0488 466.783 95.5137 466.451 95.9043C466.123 96.291 465.715 96.5898 465.227 96.8008C464.738 97.0117 464.172 97.1172 463.527 97.1172C462.863 97.1172 462.283 97.0117 461.787 96.8008C461.295 96.5898 460.885 96.2891 460.557 95.8984C460.232 95.5078 459.988 95.041 459.824 94.498C459.664 93.9551 459.584 93.3535 459.584 92.6934C459.584 91.8184 459.729 91.0508 460.018 90.3906C460.307 89.7305 460.744 89.2168 461.33 88.8496C461.92 88.4824 462.658 88.2988 463.545 88.2988C464.393 88.2988 465.105 88.4805 465.684 88.8438C466.266 89.207 466.705 89.7188 467.002 90.3789C467.303 91.0352 467.453 91.8105 467.453 92.7051ZM460.633 92.7051C460.633 93.4316 460.736 94.0605 460.943 94.5918C461.15 95.123 461.467 95.5332 461.893 95.8223C462.322 96.1113 462.867 96.2559 463.527 96.2559C464.191 96.2559 464.734 96.1113 465.156 95.8223C465.582 95.5332 465.896 95.123 466.1 94.5918C466.303 94.0605 466.404 93.4316 466.404 92.7051C466.404 91.5996 466.172 90.7363 465.707 90.1152C465.246 89.4902 464.525 89.1777 463.545 89.1777C462.881 89.1777 462.334 89.3203 461.904 89.6055C461.475 89.8906 461.154 90.2969 460.943 90.8242C460.736 91.3477 460.633 91.9746 460.633 92.7051ZM471.789 97.1172C471.211 97.1172 470.701 96.998 470.26 96.7598C469.818 96.5215 469.475 96.1582 469.229 95.6699C468.982 95.1816 468.859 94.5664 468.859 93.8242C468.859 93.0469 468.988 92.4121 469.246 91.9199C469.508 91.4238 469.867 91.0566 470.324 90.8184C470.781 90.5801 471.301 90.4609 471.883 90.4609C472.203 90.4609 472.512 90.4941 472.809 90.5605C473.109 90.623 473.355 90.7031 473.547 90.8008L473.254 91.6152C473.059 91.5371 472.832 91.4668 472.574 91.4043C472.32 91.3418 472.082 91.3105 471.859 91.3105C471.414 91.3105 471.043 91.4062 470.746 91.5977C470.453 91.7891 470.232 92.0703 470.084 92.4414C469.939 92.8125 469.867 93.2695 469.867 93.8125C469.867 94.332 469.938 94.7754 470.078 95.1426C470.223 95.5098 470.436 95.791 470.717 95.9863C471.002 96.1777 471.357 96.2734 471.783 96.2734C472.123 96.2734 472.43 96.2383 472.703 96.168C472.977 96.0938 473.225 96.0078 473.447 95.9102V96.7773C473.232 96.8867 472.992 96.9707 472.727 97.0293C472.465 97.0879 472.152 97.1172 471.789 97.1172ZM477.045 96.3203C477.205 96.3203 477.369 96.3066 477.537 96.2793C477.705 96.252 477.842 96.2188 477.947 96.1797V96.9355C477.834 96.9863 477.676 97.0293 477.473 97.0645C477.273 97.0996 477.078 97.1172 476.887 97.1172C476.547 97.1172 476.238 97.0586 475.961 96.9414C475.684 96.8203 475.461 96.6172 475.293 96.332C475.129 96.0469 475.047 95.6523 475.047 95.1484V91.3398H474.133V90.8652L475.053 90.4844L475.439 89.0898H476.025V90.5781H477.906V91.3398H476.025V95.1191C476.025 95.5215 476.117 95.8223 476.301 96.0215C476.488 96.2207 476.736 96.3203 477.045 96.3203ZM487.545 97H481.932V96.1855L484.223 93.8594C484.648 93.4297 485.006 93.0469 485.295 92.7109C485.588 92.375 485.811 92.0449 485.963 91.7207C486.115 91.3926 486.191 91.0332 486.191 90.6426C486.191 90.1582 486.047 89.7891 485.758 89.5352C485.473 89.2773 485.096 89.1484 484.627 89.1484C484.217 89.1484 483.854 89.2188 483.537 89.3594C483.221 89.5 482.896 89.6992 482.564 89.957L482.043 89.3008C482.27 89.1094 482.516 88.9395 482.781 88.791C483.051 88.6426 483.338 88.5254 483.643 88.4395C483.951 88.3535 484.279 88.3105 484.627 88.3105C485.154 88.3105 485.609 88.4023 485.992 88.5859C486.375 88.7695 486.67 89.0312 486.877 89.3711C487.088 89.7109 487.193 90.1152 487.193 90.584C487.193 91.0371 487.104 91.459 486.924 91.8496C486.744 92.2363 486.492 92.6211 486.168 93.0039C485.844 93.3828 485.465 93.7852 485.031 94.2109L483.168 96.0684V96.1094H487.545V97ZM494.459 92.7051C494.459 93.4004 494.406 94.0215 494.301 94.5684C494.195 95.1152 494.029 95.5781 493.803 95.957C493.576 96.3359 493.283 96.625 492.924 96.8242C492.564 97.0195 492.133 97.1172 491.629 97.1172C490.992 97.1172 490.465 96.9434 490.047 96.5957C489.633 96.248 489.322 95.7461 489.115 95.0898C488.912 94.4297 488.811 93.6348 488.811 92.7051C488.811 91.791 488.902 91.0059 489.086 90.3496C489.273 89.6895 489.574 89.1836 489.988 88.832C490.402 88.4766 490.949 88.2988 491.629 88.2988C492.273 88.2988 492.805 88.4746 493.223 88.8262C493.641 89.1738 493.951 89.6777 494.154 90.3379C494.357 90.9941 494.459 91.7832 494.459 92.7051ZM489.789 92.7051C489.789 93.502 489.85 94.166 489.971 94.6973C490.092 95.2285 490.287 95.627 490.557 95.8926C490.83 96.1543 491.188 96.2852 491.629 96.2852C492.07 96.2852 492.426 96.1543 492.695 95.8926C492.969 95.6309 493.166 95.2344 493.287 94.7031C493.412 94.1719 493.475 93.5059 493.475 92.7051C493.475 91.9199 493.414 91.2637 493.293 90.7363C493.172 90.2051 492.977 89.8066 492.707 89.541C492.438 89.2715 492.078 89.1367 491.629 89.1367C491.18 89.1367 490.82 89.2715 490.551 89.541C490.281 89.8066 490.086 90.2051 489.965 90.7363C489.848 91.2637 489.789 91.9199 489.789 92.7051ZM501.279 97H495.666V96.1855L497.957 93.8594C498.383 93.4297 498.74 93.0469 499.029 92.7109C499.322 92.375 499.545 92.0449 499.697 91.7207C499.85 91.3926 499.926 91.0332 499.926 90.6426C499.926 90.1582 499.781 89.7891 499.492 89.5352C499.207 89.2773 498.83 89.1484 498.361 89.1484C497.951 89.1484 497.588 89.2188 497.271 89.3594C496.955 89.5 496.631 89.6992 496.299 89.957L495.777 89.3008C496.004 89.1094 496.25 88.9395 496.516 88.791C496.785 88.6426 497.072 88.5254 497.377 88.4395C497.686 88.3535 498.014 88.3105 498.361 88.3105C498.889 88.3105 499.344 88.4023 499.727 88.5859C500.109 88.7695 500.404 89.0312 500.611 89.3711C500.822 89.7109 500.928 90.1152 500.928 90.584C500.928 91.0371 500.838 91.459 500.658 91.8496C500.479 92.2363 500.227 92.6211 499.902 93.0039C499.578 93.3828 499.199 93.7852 498.766 94.2109L496.902 96.0684V96.1094H501.279V97ZM507.83 90.4316C507.83 90.8145 507.756 91.1465 507.607 91.4277C507.459 91.709 507.252 91.9395 506.986 92.1191C506.721 92.2949 506.408 92.418 506.049 92.4883V92.5352C506.729 92.6211 507.238 92.8398 507.578 93.1914C507.922 93.543 508.094 94.0039 508.094 94.5742C508.094 95.0703 507.977 95.5098 507.742 95.8926C507.512 96.2754 507.156 96.5762 506.676 96.7949C506.199 97.0098 505.588 97.1172 504.842 97.1172C504.389 97.1172 503.969 97.0801 503.582 97.0059C503.199 96.9355 502.832 96.8164 502.48 96.6484V95.7344C502.836 95.9102 503.223 96.0488 503.641 96.1504C504.059 96.248 504.463 96.2969 504.854 96.2969C505.635 96.2969 506.199 96.1426 506.547 95.834C506.895 95.5215 507.068 95.0957 507.068 94.5566C507.068 94.1855 506.971 93.8867 506.775 93.6602C506.584 93.4297 506.307 93.2617 505.943 93.1562C505.584 93.0469 505.15 92.9922 504.643 92.9922H503.787V92.1602H504.648C505.113 92.1602 505.508 92.0918 505.832 91.9551C506.156 91.8184 506.402 91.627 506.57 91.3809C506.742 91.1309 506.828 90.8359 506.828 90.4961C506.828 90.0625 506.684 89.7285 506.395 89.4941C506.105 89.2559 505.713 89.1367 505.217 89.1367C504.912 89.1367 504.635 89.168 504.385 89.2305C504.135 89.293 503.9 89.3789 503.682 89.4883C503.463 89.5977 503.244 89.7246 503.025 89.8691L502.533 89.2012C502.846 88.959 503.227 88.75 503.676 88.5742C504.125 88.3984 504.635 88.3105 505.205 88.3105C506.08 88.3105 506.736 88.5098 507.174 88.9082C507.611 89.3066 507.83 89.8145 507.83 90.4316Z" fill="#161616"/>
<rect x="533" y="110" width="1" height="37" fill="black" fill-opacity="0.15"/>
<path d="M446.213 134H445.264V127.93C445.264 127.699 445.264 127.502 445.264 127.338C445.268 127.17 445.271 127.018 445.275 126.881C445.283 126.74 445.293 126.598 445.305 126.453C445.184 126.578 445.07 126.686 444.965 126.775C444.859 126.861 444.729 126.969 444.572 127.098L443.594 127.883L443.084 127.221L445.404 125.434H446.213V134ZM454.756 127.432C454.756 127.814 454.682 128.146 454.533 128.428C454.385 128.709 454.178 128.939 453.912 129.119C453.646 129.295 453.334 129.418 452.975 129.488V129.535C453.654 129.621 454.164 129.84 454.504 130.191C454.848 130.543 455.02 131.004 455.02 131.574C455.02 132.07 454.902 132.51 454.668 132.893C454.438 133.275 454.082 133.576 453.602 133.795C453.125 134.01 452.514 134.117 451.768 134.117C451.314 134.117 450.895 134.08 450.508 134.006C450.125 133.936 449.758 133.816 449.406 133.648V132.734C449.762 132.91 450.148 133.049 450.566 133.15C450.984 133.248 451.389 133.297 451.779 133.297C452.561 133.297 453.125 133.143 453.473 132.834C453.82 132.521 453.994 132.096 453.994 131.557C453.994 131.186 453.896 130.887 453.701 130.66C453.51 130.43 453.232 130.262 452.869 130.156C452.51 130.047 452.076 129.992 451.568 129.992H450.713V129.16H451.574C452.039 129.16 452.434 129.092 452.758 128.955C453.082 128.818 453.328 128.627 453.496 128.381C453.668 128.131 453.754 127.836 453.754 127.496C453.754 127.062 453.609 126.729 453.32 126.494C453.031 126.256 452.639 126.137 452.143 126.137C451.838 126.137 451.561 126.168 451.311 126.23C451.061 126.293 450.826 126.379 450.607 126.488C450.389 126.598 450.17 126.725 449.951 126.869L449.459 126.201C449.771 125.959 450.152 125.75 450.602 125.574C451.051 125.398 451.561 125.311 452.131 125.311C453.006 125.311 453.662 125.51 454.1 125.908C454.537 126.307 454.756 126.814 454.756 127.432ZM467.453 129.705C467.453 130.365 467.369 130.967 467.201 131.51C467.033 132.049 466.783 132.514 466.451 132.904C466.123 133.291 465.715 133.59 465.227 133.801C464.738 134.012 464.172 134.117 463.527 134.117C462.863 134.117 462.283 134.012 461.787 133.801C461.295 133.59 460.885 133.289 460.557 132.898C460.232 132.508 459.988 132.041 459.824 131.498C459.664 130.955 459.584 130.354 459.584 129.693C459.584 128.818 459.729 128.051 460.018 127.391C460.307 126.73 460.744 126.217 461.33 125.85C461.92 125.482 462.658 125.299 463.545 125.299C464.393 125.299 465.105 125.48 465.684 125.844C466.266 126.207 466.705 126.719 467.002 127.379C467.303 128.035 467.453 128.811 467.453 129.705ZM460.633 129.705C460.633 130.432 460.736 131.061 460.943 131.592C461.15 132.123 461.467 132.533 461.893 132.822C462.322 133.111 462.867 133.256 463.527 133.256C464.191 133.256 464.734 133.111 465.156 132.822C465.582 132.533 465.896 132.123 466.1 131.592C466.303 131.061 466.404 130.432 466.404 129.705C466.404 128.6 466.172 127.736 465.707 127.115C465.246 126.49 464.525 126.178 463.545 126.178C462.881 126.178 462.334 126.32 461.904 126.605C461.475 126.891 461.154 127.297 460.943 127.824C460.736 128.348 460.633 128.975 460.633 129.705ZM471.789 134.117C471.211 134.117 470.701 133.998 470.26 133.76C469.818 133.521 469.475 133.158 469.229 132.67C468.982 132.182 468.859 131.566 468.859 130.824C468.859 130.047 468.988 129.412 469.246 128.92C469.508 128.424 469.867 128.057 470.324 127.818C470.781 127.58 471.301 127.461 471.883 127.461C472.203 127.461 472.512 127.494 472.809 127.561C473.109 127.623 473.355 127.703 473.547 127.801L473.254 128.615C473.059 128.537 472.832 128.467 472.574 128.404C472.32 128.342 472.082 128.311 471.859 128.311C471.414 128.311 471.043 128.406 470.746 128.598C470.453 128.789 470.232 129.07 470.084 129.441C469.939 129.812 469.867 130.27 469.867 130.812C469.867 131.332 469.938 131.775 470.078 132.143C470.223 132.51 470.436 132.791 470.717 132.986C471.002 133.178 471.357 133.273 471.783 133.273C472.123 133.273 472.43 133.238 472.703 133.168C472.977 133.094 473.225 133.008 473.447 132.91V133.777C473.232 133.887 472.992 133.971 472.727 134.029C472.465 134.088 472.152 134.117 471.789 134.117ZM477.045 133.32C477.205 133.32 477.369 133.307 477.537 133.279C477.705 133.252 477.842 133.219 477.947 133.18V133.936C477.834 133.986 477.676 134.029 477.473 134.064C477.273 134.1 477.078 134.117 476.887 134.117C476.547 134.117 476.238 134.059 475.961 133.941C475.684 133.82 475.461 133.617 475.293 133.332C475.129 133.047 475.047 132.652 475.047 132.148V128.34H474.133V127.865L475.053 127.484L475.439 126.09H476.025V127.578H477.906V128.34H476.025V132.119C476.025 132.521 476.117 132.822 476.301 133.021C476.488 133.221 476.736 133.32 477.045 133.32ZM487.545 134H481.932V133.186L484.223 130.859C484.648 130.43 485.006 130.047 485.295 129.711C485.588 129.375 485.811 129.045 485.963 128.721C486.115 128.393 486.191 128.033 486.191 127.643C486.191 127.158 486.047 126.789 485.758 126.535C485.473 126.277 485.096 126.148 484.627 126.148C484.217 126.148 483.854 126.219 483.537 126.359C483.221 126.5 482.896 126.699 482.564 126.957L482.043 126.301C482.27 126.109 482.516 125.939 482.781 125.791C483.051 125.643 483.338 125.525 483.643 125.439C483.951 125.354 484.279 125.311 484.627 125.311C485.154 125.311 485.609 125.402 485.992 125.586C486.375 125.77 486.67 126.031 486.877 126.371C487.088 126.711 487.193 127.115 487.193 127.584C487.193 128.037 487.104 128.459 486.924 128.85C486.744 129.236 486.492 129.621 486.168 130.004C485.844 130.383 485.465 130.785 485.031 131.211L483.168 133.068V133.109H487.545V134ZM494.459 129.705C494.459 130.4 494.406 131.021 494.301 131.568C494.195 132.115 494.029 132.578 493.803 132.957C493.576 133.336 493.283 133.625 492.924 133.824C492.564 134.02 492.133 134.117 491.629 134.117C490.992 134.117 490.465 133.943 490.047 133.596C489.633 133.248 489.322 132.746 489.115 132.09C488.912 131.43 488.811 130.635 488.811 129.705C488.811 128.791 488.902 128.006 489.086 127.35C489.273 126.689 489.574 126.184 489.988 125.832C490.402 125.477 490.949 125.299 491.629 125.299C492.273 125.299 492.805 125.475 493.223 125.826C493.641 126.174 493.951 126.678 494.154 127.338C494.357 127.994 494.459 128.783 494.459 129.705ZM489.789 129.705C489.789 130.502 489.85 131.166 489.971 131.697C490.092 132.229 490.287 132.627 490.557 132.893C490.83 133.154 491.188 133.285 491.629 133.285C492.07 133.285 492.426 133.154 492.695 132.893C492.969 132.631 493.166 132.234 493.287 131.703C493.412 131.172 493.475 130.506 493.475 129.705C493.475 128.92 493.414 128.264 493.293 127.736C493.172 127.205 492.977 126.807 492.707 126.541C492.438 126.271 492.078 126.137 491.629 126.137C491.18 126.137 490.82 126.271 490.551 126.541C490.281 126.807 490.086 127.205 489.965 127.736C489.848 128.264 489.789 128.92 489.789 129.705ZM501.279 134H495.666V133.186L497.957 130.859C498.383 130.43 498.74 130.047 499.029 129.711C499.322 129.375 499.545 129.045 499.697 128.721C499.85 128.393 499.926 128.033 499.926 127.643C499.926 127.158 499.781 126.789 499.492 126.535C499.207 126.277 498.83 126.148 498.361 126.148C497.951 126.148 497.588 126.219 497.271 126.359C496.955 126.5 496.631 126.699 496.299 126.957L495.777 126.301C496.004 126.109 496.25 125.939 496.516 125.791C496.785 125.643 497.072 125.525 497.377 125.439C497.686 125.354 498.014 125.311 498.361 125.311C498.889 125.311 499.344 125.402 499.727 125.586C500.109 125.77 500.404 126.031 500.611 126.371C500.822 126.711 500.928 127.115 500.928 127.584C500.928 128.037 500.838 128.459 500.658 128.85C500.479 129.236 500.227 129.621 499.902 130.004C499.578 130.383 499.199 130.785 498.766 131.211L496.902 133.068V133.109H501.279V134ZM507.83 127.432C507.83 127.814 507.756 128.146 507.607 128.428C507.459 128.709 507.252 128.939 506.986 129.119C506.721 129.295 506.408 129.418 506.049 129.488V129.535C506.729 129.621 507.238 129.84 507.578 130.191C507.922 130.543 508.094 131.004 508.094 131.574C508.094 132.07 507.977 132.51 507.742 132.893C507.512 133.275 507.156 133.576 506.676 133.795C506.199 134.01 505.588 134.117 504.842 134.117C504.389 134.117 503.969 134.08 503.582 134.006C503.199 133.936 502.832 133.816 502.48 133.648V132.734C502.836 132.91 503.223 133.049 503.641 133.15C504.059 133.248 504.463 133.297 504.854 133.297C505.635 133.297 506.199 133.143 506.547 132.834C506.895 132.521 507.068 132.096 507.068 131.557C507.068 131.186 506.971 130.887 506.775 130.66C506.584 130.43 506.307 130.262 505.943 130.156C505.584 130.047 505.15 129.992 504.643 129.992H503.787V129.16H504.648C505.113 129.16 505.508 129.092 505.832 128.955C506.156 128.818 506.402 128.627 506.57 128.381C506.742 128.131 506.828 127.836 506.828 127.496C506.828 127.062 506.684 126.729 506.395 126.494C506.105 126.256 505.713 126.137 505.217 126.137C504.912 126.137 504.635 126.168 504.385 126.23C504.135 126.293 503.9 126.379 503.682 126.488C503.463 126.598 503.244 126.725 503.025 126.869L502.533 126.201C502.846 125.959 503.227 125.75 503.676 125.574C504.125 125.398 504.635 125.311 505.205 125.311C506.08 125.311 506.736 125.51 507.174 125.908C507.611 126.307 507.83 126.814 507.83 127.432Z" fill="#161616"/>
<rect x="533" y="147" width="1" height="37" fill="black" fill-opacity="0.15"/>
<path d="M446.213 171H445.264V164.93C445.264 164.699 445.264 164.502 445.264 164.338C445.268 164.17 445.271 164.018 445.275 163.881C445.283 163.74 445.293 163.598 445.305 163.453C445.184 163.578 445.07 163.686 444.965 163.775C444.859 163.861 444.729 163.969 444.572 164.098L443.594 164.883L443.084 164.221L445.404 162.434H446.213V171ZM454.756 164.432C454.756 164.814 454.682 165.146 454.533 165.428C454.385 165.709 454.178 165.939 453.912 166.119C453.646 166.295 453.334 166.418 452.975 166.488V166.535C453.654 166.621 454.164 166.84 454.504 167.191C454.848 167.543 455.02 168.004 455.02 168.574C455.02 169.07 454.902 169.51 454.668 169.893C454.438 170.275 454.082 170.576 453.602 170.795C453.125 171.01 452.514 171.117 451.768 171.117C451.314 171.117 450.895 171.08 450.508 171.006C450.125 170.936 449.758 170.816 449.406 170.648V169.734C449.762 169.91 450.148 170.049 450.566 170.15C450.984 170.248 451.389 170.297 451.779 170.297C452.561 170.297 453.125 170.143 453.473 169.834C453.82 169.521 453.994 169.096 453.994 168.557C453.994 168.186 453.896 167.887 453.701 167.66C453.51 167.43 453.232 167.262 452.869 167.156C452.51 167.047 452.076 166.992 451.568 166.992H450.713V166.16H451.574C452.039 166.16 452.434 166.092 452.758 165.955C453.082 165.818 453.328 165.627 453.496 165.381C453.668 165.131 453.754 164.836 453.754 164.496C453.754 164.062 453.609 163.729 453.32 163.494C453.031 163.256 452.639 163.137 452.143 163.137C451.838 163.137 451.561 163.168 451.311 163.23C451.061 163.293 450.826 163.379 450.607 163.488C450.389 163.598 450.17 163.725 449.951 163.869L449.459 163.201C449.771 162.959 450.152 162.75 450.602 162.574C451.051 162.398 451.561 162.311 452.131 162.311C453.006 162.311 453.662 162.51 454.1 162.908C454.537 163.307 454.756 163.814 454.756 164.432ZM467.453 166.705C467.453 167.365 467.369 167.967 467.201 168.51C467.033 169.049 466.783 169.514 466.451 169.904C466.123 170.291 465.715 170.59 465.227 170.801C464.738 171.012 464.172 171.117 463.527 171.117C462.863 171.117 462.283 171.012 461.787 170.801C461.295 170.59 460.885 170.289 460.557 169.898C460.232 169.508 459.988 169.041 459.824 168.498C459.664 167.955 459.584 167.354 459.584 166.693C459.584 165.818 459.729 165.051 460.018 164.391C460.307 163.73 460.744 163.217 461.33 162.85C461.92 162.482 462.658 162.299 463.545 162.299C464.393 162.299 465.105 162.48 465.684 162.844C466.266 163.207 466.705 163.719 467.002 164.379C467.303 165.035 467.453 165.811 467.453 166.705ZM460.633 166.705C460.633 167.432 460.736 168.061 460.943 168.592C461.15 169.123 461.467 169.533 461.893 169.822C462.322 170.111 462.867 170.256 463.527 170.256C464.191 170.256 464.734 170.111 465.156 169.822C465.582 169.533 465.896 169.123 466.1 168.592C466.303 168.061 466.404 167.432 466.404 166.705C466.404 165.6 466.172 164.736 465.707 164.115C465.246 163.49 464.525 163.178 463.545 163.178C462.881 163.178 462.334 163.32 461.904 163.605C461.475 163.891 461.154 164.297 460.943 164.824C460.736 165.348 460.633 165.975 460.633 166.705ZM471.789 171.117C471.211 171.117 470.701 170.998 470.26 170.76C469.818 170.521 469.475 170.158 469.229 169.67C468.982 169.182 468.859 168.566 468.859 167.824C468.859 167.047 468.988 166.412 469.246 165.92C469.508 165.424 469.867 165.057 470.324 164.818C470.781 164.58 471.301 164.461 471.883 164.461C472.203 164.461 472.512 164.494 472.809 164.561C473.109 164.623 473.355 164.703 473.547 164.801L473.254 165.615C473.059 165.537 472.832 165.467 472.574 165.404C472.32 165.342 472.082 165.311 471.859 165.311C471.414 165.311 471.043 165.406 470.746 165.598C470.453 165.789 470.232 166.07 470.084 166.441C469.939 166.812 469.867 167.27 469.867 167.812C469.867 168.332 469.938 168.775 470.078 169.143C470.223 169.51 470.436 169.791 470.717 169.986C471.002 170.178 471.357 170.273 471.783 170.273C472.123 170.273 472.43 170.238 472.703 170.168C472.977 170.094 473.225 170.008 473.447 169.91V170.777C473.232 170.887 472.992 170.971 472.727 171.029C472.465 171.088 472.152 171.117 471.789 171.117ZM477.045 170.32C477.205 170.32 477.369 170.307 477.537 170.279C477.705 170.252 477.842 170.219 477.947 170.18V170.936C477.834 170.986 477.676 171.029 477.473 171.064C477.273 171.1 477.078 171.117 476.887 171.117C476.547 171.117 476.238 171.059 475.961 170.941C475.684 170.82 475.461 170.617 475.293 170.332C475.129 170.047 475.047 169.652 475.047 169.148V165.34H474.133V164.865L475.053 164.484L475.439 163.09H476.025V164.578H477.906V165.34H476.025V169.119C476.025 169.521 476.117 169.822 476.301 170.021C476.488 170.221 476.736 170.32 477.045 170.32ZM487.545 171H481.932V170.186L484.223 167.859C484.648 167.43 485.006 167.047 485.295 166.711C485.588 166.375 485.811 166.045 485.963 165.721C486.115 165.393 486.191 165.033 486.191 164.643C486.191 164.158 486.047 163.789 485.758 163.535C485.473 163.277 485.096 163.148 484.627 163.148C484.217 163.148 483.854 163.219 483.537 163.359C483.221 163.5 482.896 163.699 482.564 163.957L482.043 163.301C482.27 163.109 482.516 162.939 482.781 162.791C483.051 162.643 483.338 162.525 483.643 162.439C483.951 162.354 484.279 162.311 484.627 162.311C485.154 162.311 485.609 162.402 485.992 162.586C486.375 162.77 486.67 163.031 486.877 163.371C487.088 163.711 487.193 164.115 487.193 164.584C487.193 165.037 487.104 165.459 486.924 165.85C486.744 166.236 486.492 166.621 486.168 167.004C485.844 167.383 485.465 167.785 485.031 168.211L483.168 170.068V170.109H487.545V171ZM494.459 166.705C494.459 167.4 494.406 168.021 494.301 168.568C494.195 169.115 494.029 169.578 493.803 169.957C493.576 170.336 493.283 170.625 492.924 170.824C492.564 171.02 492.133 171.117 491.629 171.117C490.992 171.117 490.465 170.943 490.047 170.596C489.633 170.248 489.322 169.746 489.115 169.09C488.912 168.43 488.811 167.635 488.811 166.705C488.811 165.791 488.902 165.006 489.086 164.35C489.273 163.689 489.574 163.184 489.988 162.832C490.402 162.477 490.949 162.299 491.629 162.299C492.273 162.299 492.805 162.475 493.223 162.826C493.641 163.174 493.951 163.678 494.154 164.338C494.357 164.994 494.459 165.783 494.459 166.705ZM489.789 166.705C489.789 167.502 489.85 168.166 489.971 168.697C490.092 169.229 490.287 169.627 490.557 169.893C490.83 170.154 491.188 170.285 491.629 170.285C492.07 170.285 492.426 170.154 492.695 169.893C492.969 169.631 493.166 169.234 493.287 168.703C493.412 168.172 493.475 167.506 493.475 166.705C493.475 165.92 493.414 165.264 493.293 164.736C493.172 164.205 492.977 163.807 492.707 163.541C492.438 163.271 492.078 163.137 491.629 163.137C491.18 163.137 490.82 163.271 490.551 163.541C490.281 163.807 490.086 164.205 489.965 164.736C489.848 165.264 489.789 165.92 489.789 166.705ZM501.279 171H495.666V170.186L497.957 167.859C498.383 167.43 498.74 167.047 499.029 166.711C499.322 166.375 499.545 166.045 499.697 165.721C499.85 165.393 499.926 165.033 499.926 164.643C499.926 164.158 499.781 163.789 499.492 163.535C499.207 163.277 498.83 163.148 498.361 163.148C497.951 163.148 497.588 163.219 497.271 163.359C496.955 163.5 496.631 163.699 496.299 163.957L495.777 163.301C496.004 163.109 496.25 162.939 496.516 162.791C496.785 162.643 497.072 162.525 497.377 162.439C497.686 162.354 498.014 162.311 498.361 162.311C498.889 162.311 499.344 162.402 499.727 162.586C500.109 162.77 500.404 163.031 500.611 163.371C500.822 163.711 500.928 164.115 500.928 164.584C500.928 165.037 500.838 165.459 500.658 165.85C500.479 166.236 500.227 166.621 499.902 167.004C499.578 167.383 499.199 167.785 498.766 168.211L496.902 170.068V170.109H501.279V171ZM507.83 164.432C507.83 164.814 507.756 165.146 507.607 165.428C507.459 165.709 507.252 165.939 506.986 166.119C506.721 166.295 506.408 166.418 506.049 166.488V166.535C506.729 166.621 507.238 166.84 507.578 167.191C507.922 167.543 508.094 168.004 508.094 168.574C508.094 169.07 507.977 169.51 507.742 169.893C507.512 170.275 507.156 170.576 506.676 170.795C506.199 171.01 505.588 171.117 504.842 171.117C504.389 171.117 503.969 171.08 503.582 171.006C503.199 170.936 502.832 170.816 502.48 170.648V169.734C502.836 169.91 503.223 170.049 503.641 170.15C504.059 170.248 504.463 170.297 504.854 170.297C505.635 170.297 506.199 170.143 506.547 169.834C506.895 169.521 507.068 169.096 507.068 168.557C507.068 168.186 506.971 167.887 506.775 167.66C506.584 167.43 506.307 167.262 505.943 167.156C505.584 167.047 505.15 166.992 504.643 166.992H503.787V166.16H504.648C505.113 166.16 505.508 166.092 505.832 165.955C506.156 165.818 506.402 165.627 506.57 165.381C506.742 165.131 506.828 164.836 506.828 164.496C506.828 164.062 506.684 163.729 506.395 163.494C506.105 163.256 505.713 163.137 505.217 163.137C504.912 163.137 504.635 163.168 504.385 163.23C504.135 163.293 503.9 163.379 503.682 163.488C503.463 163.598 503.244 163.725 503.025 163.869L502.533 163.201C502.846 162.959 503.227 162.75 503.676 162.574C504.125 162.398 504.635 162.311 505.205 162.311C506.08 162.311 506.736 162.51 507.174 162.908C507.611 163.307 507.83 163.814 507.83 164.432Z" fill="#161616"/>
<path d="M581.473 50.0347C582.049 50.0347 582.486 50.2495 582.783 50.6792C583.08 51.1053 583.229 51.7087 583.229 52.4893C583.229 53.2663 583.086 53.8732 582.799 54.3101C582.516 54.7469 582.074 54.9653 581.473 54.9653C580.91 54.9653 580.483 54.7469 580.189 54.3101C579.895 53.8732 579.749 53.2663 579.749 52.4893C579.749 51.7087 579.886 51.1053 580.162 50.6792C580.441 50.2495 580.878 50.0347 581.473 50.0347ZM581.478 50.9155C581.245 50.9155 581.073 51.0462 580.962 51.3076C580.855 51.569 580.801 51.9647 580.801 52.4946C580.801 53.021 580.855 53.4185 580.962 53.687C581.073 53.952 581.245 54.0845 581.478 54.0845C581.714 54.0845 581.89 53.952 582.004 53.687C582.123 53.422 582.182 53.0246 582.182 52.4946C582.182 51.9683 582.124 51.5744 582.01 51.313C581.895 51.048 581.718 50.9155 581.478 50.9155ZM586.747 50.1475L582.391 58H581.354L585.71 50.1475H586.747ZM586.602 53.1768C587.179 53.1768 587.615 53.3916 587.913 53.8213C588.213 54.2474 588.364 54.8507 588.364 55.6313C588.364 56.4048 588.221 57.0099 587.934 57.4468C587.651 57.8836 587.207 58.1021 586.602 58.1021C586.04 58.1021 585.612 57.8836 585.318 57.4468C585.025 57.0099 584.878 56.4048 584.878 55.6313C584.878 54.8507 585.016 54.2474 585.292 53.8213C585.571 53.3916 586.008 53.1768 586.602 53.1768ZM586.607 54.0576C586.375 54.0576 586.203 54.1883 586.092 54.4497C585.984 54.7111 585.931 55.1068 585.931 55.6367C585.931 56.1631 585.984 56.5605 586.092 56.8291C586.203 57.0941 586.375 57.2266 586.607 57.2266C586.847 57.2266 587.025 57.0959 587.139 56.8345C587.254 56.5695 587.311 56.1702 587.311 55.6367C587.311 55.1104 587.254 54.7165 587.139 54.4551C587.025 54.1901 586.847 54.0576 586.607 54.0576ZM599.074 53.9985C599.074 54.883 598.909 55.6224 598.58 56.2168C598.25 56.8076 597.772 57.2534 597.146 57.5542C596.519 57.8514 595.763 58 594.879 58H592.698V50.1475H595.115C595.928 50.1475 596.63 50.2943 597.221 50.5879C597.812 50.8779 598.268 51.3094 598.59 51.8823C598.913 52.4517 599.074 53.1571 599.074 53.9985ZM597.731 54.0361C597.731 53.3916 597.629 52.8617 597.425 52.4463C597.224 52.0309 596.927 51.723 596.533 51.5225C596.143 51.3184 595.661 51.2163 595.088 51.2163H593.987V56.9204H594.9C595.849 56.9204 596.558 56.6787 597.027 56.1953C597.496 55.7119 597.731 54.9922 597.731 54.0361ZM601.899 52.0542V58H600.637V52.0542H601.899ZM601.276 49.7769C601.469 49.7769 601.636 49.8288 601.775 49.9326C601.919 50.0365 601.99 50.2155 601.99 50.4697C601.99 50.7204 601.919 50.8994 601.775 51.0068C601.636 51.1107 601.469 51.1626 601.276 51.1626C601.075 51.1626 600.905 51.1107 600.766 51.0068C600.63 50.8994 600.562 50.7204 600.562 50.4697C600.562 50.2155 600.63 50.0365 600.766 49.9326C600.905 49.8288 601.075 49.7769 601.276 49.7769ZM606.679 53.0156H605.234V58H603.972V53.0156H603V52.4087L603.972 52.0381V51.6245C603.972 51.1196 604.051 50.7186 604.208 50.4214C604.37 50.1242 604.599 49.9111 604.896 49.7822C605.197 49.6497 605.555 49.5835 605.97 49.5835C606.242 49.5835 606.491 49.6068 606.717 49.6533C606.942 49.6963 607.132 49.7464 607.286 49.8037L606.958 50.7598C606.837 50.7204 606.701 50.6846 606.55 50.6523C606.4 50.6165 606.239 50.5986 606.067 50.5986C605.78 50.5986 605.569 50.6882 605.433 50.8672C605.301 51.0462 605.234 51.3076 605.234 51.6514V52.0542H606.679V53.0156ZM610.665 53.0156H609.22V58H607.958V53.0156H606.985V52.4087L607.958 52.0381V51.6245C607.958 51.1196 608.036 50.7186 608.194 50.4214C608.355 50.1242 608.584 49.9111 608.881 49.7822C609.182 49.6497 609.54 49.5835 609.956 49.5835C610.228 49.5835 610.477 49.6068 610.702 49.6533C610.928 49.6963 611.118 49.7464 611.271 49.8037L610.944 50.7598C610.822 50.7204 610.686 50.6846 610.536 50.6523C610.385 50.6165 610.224 50.5986 610.052 50.5986C609.766 50.5986 609.555 50.6882 609.418 50.8672C609.286 51.0462 609.22 51.3076 609.22 51.6514V52.0542H610.665V53.0156ZM614.048 51.9414C614.578 51.9414 615.033 52.0506 615.413 52.269C615.792 52.4875 616.084 52.7972 616.288 53.1982C616.492 53.5993 616.594 54.0791 616.594 54.6377V55.3145H612.625C612.639 55.891 612.793 56.335 613.087 56.6465C613.384 56.958 613.799 57.1138 614.333 57.1138C614.713 57.1138 615.053 57.078 615.354 57.0063C615.658 56.9312 615.971 56.8219 616.293 56.6787V57.7046C615.996 57.8442 615.694 57.9463 615.386 58.0107C615.078 58.0752 614.709 58.1074 614.279 58.1074C613.696 58.1074 613.182 57.9946 612.738 57.769C612.297 57.5399 611.952 57.1997 611.701 56.7485C611.454 56.2974 611.331 55.737 611.331 55.0674C611.331 54.4014 611.443 53.8356 611.669 53.3701C611.895 52.9046 612.211 52.5501 612.62 52.3066C613.028 52.0632 613.504 51.9414 614.048 51.9414ZM614.048 52.8921C613.651 52.8921 613.329 53.021 613.082 53.2788C612.838 53.5366 612.695 53.9144 612.652 54.4121H615.359C615.355 54.1149 615.305 53.8517 615.208 53.6226C615.115 53.3934 614.972 53.2144 614.779 53.0854C614.589 52.9565 614.346 52.8921 614.048 52.8921ZM621.031 51.9414C621.131 51.9414 621.24 51.9468 621.358 51.9575C621.477 51.9683 621.579 51.9826 621.665 52.0005L621.546 53.1821C621.471 53.1606 621.378 53.1445 621.267 53.1338C621.16 53.123 621.063 53.1177 620.977 53.1177C620.751 53.1177 620.537 53.1553 620.333 53.2305C620.128 53.3021 619.948 53.4131 619.79 53.5635C619.632 53.7103 619.509 53.8947 619.419 54.1167C619.33 54.3387 619.285 54.5965 619.285 54.8901V58H618.018V52.0542H619.006L619.178 53.1016H619.237C619.355 52.8903 619.502 52.6969 619.677 52.5215C619.853 52.346 620.053 52.2064 620.279 52.1025C620.508 51.9951 620.759 51.9414 621.031 51.9414ZM625.134 51.9414C625.664 51.9414 626.119 52.0506 626.499 52.269C626.878 52.4875 627.17 52.7972 627.374 53.1982C627.578 53.5993 627.68 54.0791 627.68 54.6377V55.3145H623.711C623.725 55.891 623.879 56.335 624.173 56.6465C624.47 56.958 624.885 57.1138 625.419 57.1138C625.799 57.1138 626.139 57.078 626.439 57.0063C626.744 56.9312 627.057 56.8219 627.379 56.6787V57.7046C627.082 57.8442 626.78 57.9463 626.472 58.0107C626.164 58.0752 625.795 58.1074 625.365 58.1074C624.782 58.1074 624.268 57.9946 623.824 57.769C623.383 57.5399 623.038 57.1997 622.787 56.7485C622.54 56.2974 622.417 55.737 622.417 55.0674C622.417 54.4014 622.529 53.8356 622.755 53.3701C622.98 52.9046 623.297 52.5501 623.706 52.3066C624.114 52.0632 624.59 51.9414 625.134 51.9414ZM625.134 52.8921C624.737 52.8921 624.415 53.021 624.167 53.2788C623.924 53.5366 623.781 53.9144 623.738 54.4121H626.445C626.441 54.1149 626.391 53.8517 626.294 53.6226C626.201 53.3934 626.058 53.2144 625.865 53.0854C625.675 52.9565 625.431 52.8921 625.134 52.8921ZM632.203 51.9414C632.872 51.9414 633.393 52.1151 633.766 52.4624C634.142 52.8062 634.33 53.3594 634.33 54.1221V58H633.067V54.3584C633.067 53.8965 632.972 53.5509 632.783 53.3218C632.593 53.089 632.299 52.9727 631.902 52.9727C631.325 52.9727 630.924 53.1499 630.699 53.5044C630.477 53.8589 630.366 54.3727 630.366 55.0459V58H629.104V52.0542H630.086L630.264 52.8599H630.333C630.462 52.6522 630.622 52.4821 630.812 52.3496C631.005 52.2135 631.22 52.1115 631.456 52.0435C631.696 51.9754 631.945 51.9414 632.203 51.9414ZM638.492 58.1074C637.93 58.1074 637.443 57.9982 637.031 57.7798C636.619 57.5614 636.303 57.2266 636.081 56.7754C635.859 56.3242 635.748 55.7513 635.748 55.0566C635.748 54.3333 635.869 53.7425 636.113 53.2842C636.356 52.8258 636.693 52.4875 637.123 52.269C637.556 52.0506 638.052 51.9414 638.61 51.9414C638.965 51.9414 639.285 51.9772 639.572 52.0488C639.862 52.1169 640.107 52.201 640.308 52.3013L639.932 53.311C639.713 53.2215 639.489 53.1463 639.26 53.0854C639.031 53.0246 638.811 52.9941 638.6 52.9941C638.252 52.9941 637.962 53.0711 637.729 53.2251C637.5 53.3791 637.328 53.6082 637.214 53.9126C637.103 54.217 637.047 54.5947 637.047 55.0459C637.047 55.4827 637.105 55.8516 637.219 56.1523C637.334 56.4495 637.504 56.6751 637.729 56.8291C637.955 56.9795 638.233 57.0547 638.562 57.0547C638.888 57.0547 639.18 57.0153 639.438 56.9365C639.695 56.8577 639.939 56.7557 640.168 56.6304V57.7261C639.942 57.855 639.701 57.9499 639.443 58.0107C639.185 58.0752 638.868 58.1074 638.492 58.1074ZM643.933 51.9414C644.463 51.9414 644.918 52.0506 645.297 52.269C645.677 52.4875 645.969 52.7972 646.173 53.1982C646.377 53.5993 646.479 54.0791 646.479 54.6377V55.3145H642.51C642.524 55.891 642.678 56.335 642.972 56.6465C643.269 56.958 643.684 57.1138 644.218 57.1138C644.597 57.1138 644.938 57.078 645.238 57.0063C645.543 56.9312 645.856 56.8219 646.178 56.6787V57.7046C645.881 57.8442 645.578 57.9463 645.271 58.0107C644.963 58.0752 644.594 58.1074 644.164 58.1074C643.58 58.1074 643.067 57.9946 642.623 57.769C642.182 57.5399 641.837 57.1997 641.586 56.7485C641.339 56.2974 641.215 55.737 641.215 55.0674C641.215 54.4014 641.328 53.8356 641.554 53.3701C641.779 52.9046 642.096 52.5501 642.504 52.3066C642.913 52.0632 643.389 51.9414 643.933 51.9414ZM643.933 52.8921C643.536 52.8921 643.213 53.021 642.966 53.2788C642.723 53.5366 642.58 53.9144 642.537 54.4121H645.244C645.24 54.1149 645.19 53.8517 645.093 53.6226C645 53.3934 644.857 53.2144 644.664 53.0854C644.474 52.9565 644.23 52.8921 643.933 52.8921Z" fill="#61656E"/>
<path d="M623.631 92.7051C623.631 93.4004 623.578 94.0215 623.473 94.5684C623.367 95.1152 623.201 95.5781 622.975 95.957C622.748 96.3359 622.455 96.625 622.096 96.8242C621.736 97.0195 621.305 97.1172 620.801 97.1172C620.164 97.1172 619.637 96.9434 619.219 96.5957C618.805 96.248 618.494 95.7461 618.287 95.0898C618.084 94.4297 617.982 93.6348 617.982 92.7051C617.982 91.791 618.074 91.0059 618.258 90.3496C618.445 89.6895 618.746 89.1836 619.16 88.832C619.574 88.4766 620.121 88.2988 620.801 88.2988C621.445 88.2988 621.977 88.4746 622.395 88.8262C622.812 89.1738 623.123 89.6777 623.326 90.3379C623.529 90.9941 623.631 91.7832 623.631 92.7051ZM618.961 92.7051C618.961 93.502 619.021 94.166 619.143 94.6973C619.264 95.2285 619.459 95.627 619.729 95.8926C620.002 96.1543 620.359 96.2852 620.801 96.2852C621.242 96.2852 621.598 96.1543 621.867 95.8926C622.141 95.6309 622.338 95.2344 622.459 94.7031C622.584 94.1719 622.646 93.5059 622.646 92.7051C622.646 91.9199 622.586 91.2637 622.465 90.7363C622.344 90.2051 622.148 89.8066 621.879 89.541C621.609 89.2715 621.25 89.1367 620.801 89.1367C620.352 89.1367 619.992 89.2715 619.723 89.541C619.453 89.8066 619.258 90.2051 619.137 90.7363C619.02 91.2637 618.961 91.9199 618.961 92.7051ZM625.125 96.3906C625.125 96.1172 625.191 95.9238 625.324 95.8105C625.457 95.6934 625.619 95.6348 625.811 95.6348C626.01 95.6348 626.178 95.6934 626.314 95.8105C626.451 95.9238 626.52 96.1172 626.52 96.3906C626.52 96.6602 626.451 96.8574 626.314 96.9824C626.178 97.1035 626.01 97.1641 625.811 97.1641C625.619 97.1641 625.457 97.1035 625.324 96.9824C625.191 96.8574 625.125 96.6602 625.125 96.3906ZM633.65 92.7051C633.65 93.4004 633.598 94.0215 633.492 94.5684C633.387 95.1152 633.221 95.5781 632.994 95.957C632.768 96.3359 632.475 96.625 632.115 96.8242C631.756 97.0195 631.324 97.1172 630.82 97.1172C630.184 97.1172 629.656 96.9434 629.238 96.5957C628.824 96.248 628.514 95.7461 628.307 95.0898C628.104 94.4297 628.002 93.6348 628.002 92.7051C628.002 91.791 628.094 91.0059 628.277 90.3496C628.465 89.6895 628.766 89.1836 629.18 88.832C629.594 88.4766 630.141 88.2988 630.82 88.2988C631.465 88.2988 631.996 88.4746 632.414 88.8262C632.832 89.1738 633.143 89.6777 633.346 90.3379C633.549 90.9941 633.65 91.7832 633.65 92.7051ZM628.98 92.7051C628.98 93.502 629.041 94.166 629.162 94.6973C629.283 95.2285 629.479 95.627 629.748 95.8926C630.021 96.1543 630.379 96.2852 630.82 96.2852C631.262 96.2852 631.617 96.1543 631.887 95.8926C632.16 95.6309 632.357 95.2344 632.479 94.7031C632.604 94.1719 632.666 93.5059 632.666 92.7051C632.666 91.9199 632.605 91.2637 632.484 90.7363C632.363 90.2051 632.168 89.8066 631.898 89.541C631.629 89.2715 631.27 89.1367 630.82 89.1367C630.371 89.1367 630.012 89.2715 629.742 89.541C629.473 89.8066 629.277 90.2051 629.156 90.7363C629.039 91.2637 628.98 91.9199 628.98 92.7051ZM637.688 88.3105C638.184 88.3105 638.623 88.3887 639.006 88.5449C639.389 88.7012 639.688 88.9316 639.902 89.2363C640.121 89.5371 640.23 89.9082 640.23 90.3496C640.23 90.6973 640.154 91.002 640.002 91.2637C639.854 91.5215 639.652 91.748 639.398 91.9434C639.145 92.1348 638.863 92.3066 638.555 92.459C638.922 92.627 639.252 92.8164 639.545 93.0273C639.842 93.2383 640.076 93.4863 640.248 93.7715C640.42 94.0566 640.506 94.3945 640.506 94.7852C640.506 95.2656 640.389 95.6816 640.154 96.0332C639.924 96.3809 639.6 96.6484 639.182 96.8359C638.764 97.0234 638.273 97.1172 637.711 97.1172C637.105 97.1172 636.59 97.0273 636.164 96.8477C635.742 96.6641 635.42 96.4023 635.197 96.0625C634.979 95.7188 634.869 95.3066 634.869 94.8262C634.869 94.4316 634.953 94.0898 635.121 93.8008C635.289 93.5078 635.512 93.2559 635.789 93.0449C636.066 92.834 636.369 92.6562 636.697 92.5117C636.412 92.3555 636.15 92.1777 635.912 91.9785C635.678 91.7793 635.49 91.5469 635.35 91.2812C635.213 91.0117 635.145 90.6992 635.145 90.3438C635.145 89.9102 635.254 89.543 635.473 89.2422C635.695 88.9375 635.998 88.707 636.381 88.5508C636.768 88.3906 637.203 88.3105 637.688 88.3105ZM635.824 94.832C635.824 95.2695 635.979 95.6309 636.287 95.916C636.596 96.1973 637.062 96.3379 637.688 96.3379C638.281 96.3379 638.74 96.1973 639.064 95.916C639.389 95.6309 639.551 95.2578 639.551 94.7969C639.551 94.5117 639.477 94.2617 639.328 94.0469C639.18 93.8281 638.969 93.6328 638.695 93.4609C638.422 93.2891 638.1 93.1328 637.729 92.9922L637.518 92.916C637.158 93.0645 636.852 93.2305 636.598 93.4141C636.348 93.5938 636.156 93.7988 636.023 94.0293C635.891 94.2598 635.824 94.5273 635.824 94.832ZM637.676 89.1074C637.215 89.1074 636.838 89.2188 636.545 89.4414C636.252 89.6602 636.105 89.9766 636.105 90.3906C636.105 90.6875 636.176 90.9395 636.316 91.1465C636.461 91.3496 636.656 91.5254 636.902 91.6738C637.148 91.8184 637.424 91.9531 637.729 92.0781C638.025 91.9531 638.289 91.8164 638.52 91.668C638.75 91.5156 638.932 91.3359 639.064 91.1289C639.197 90.9219 639.264 90.6738 639.264 90.3848C639.264 89.9707 639.117 89.6543 638.824 89.4355C638.535 89.2168 638.152 89.1074 637.676 89.1074ZM647.766 95.0137H646.482V97H645.533V95.0137H641.391V94.1934L645.469 88.3867H646.482V94.1348H647.766V95.0137ZM645.533 94.1348V91.334C645.533 91.1191 645.535 90.9258 645.539 90.7539C645.543 90.5781 645.549 90.416 645.557 90.2676C645.564 90.1152 645.57 89.9707 645.574 89.834C645.582 89.6973 645.588 89.5625 645.592 89.4297H645.545C645.471 89.5859 645.385 89.752 645.287 89.9277C645.193 90.0996 645.098 90.2539 645 90.3906L642.357 94.1348H645.533Z" fill="#161616"/>
<path d="M623.631 129.705C623.631 130.4 623.578 131.021 623.473 131.568C623.367 132.115 623.201 132.578 622.975 132.957C622.748 133.336 622.455 133.625 622.096 133.824C621.736 134.02 621.305 134.117 620.801 134.117C620.164 134.117 619.637 133.943 619.219 133.596C618.805 133.248 618.494 132.746 618.287 132.09C618.084 131.43 617.982 130.635 617.982 129.705C617.982 128.791 618.074 128.006 618.258 127.35C618.445 126.689 618.746 126.184 619.16 125.832C619.574 125.477 620.121 125.299 620.801 125.299C621.445 125.299 621.977 125.475 622.395 125.826C622.812 126.174 623.123 126.678 623.326 127.338C623.529 127.994 623.631 128.783 623.631 129.705ZM618.961 129.705C618.961 130.502 619.021 131.166 619.143 131.697C619.264 132.229 619.459 132.627 619.729 132.893C620.002 133.154 620.359 133.285 620.801 133.285C621.242 133.285 621.598 133.154 621.867 132.893C622.141 132.631 622.338 132.234 622.459 131.703C622.584 131.172 622.646 130.506 622.646 129.705C622.646 128.92 622.586 128.264 622.465 127.736C622.344 127.205 622.148 126.807 621.879 126.541C621.609 126.271 621.25 126.137 620.801 126.137C620.352 126.137 619.992 126.271 619.723 126.541C619.453 126.807 619.258 127.205 619.137 127.736C619.02 128.264 618.961 128.92 618.961 129.705ZM625.125 133.391C625.125 133.117 625.191 132.924 625.324 132.811C625.457 132.693 625.619 132.635 625.811 132.635C626.01 132.635 626.178 132.693 626.314 132.811C626.451 132.924 626.52 133.117 626.52 133.391C626.52 133.66 626.451 133.857 626.314 133.982C626.178 134.104 626.01 134.164 625.811 134.164C625.619 134.164 625.457 134.104 625.324 133.982C625.191 133.857 625.125 133.66 625.125 133.391ZM633.65 129.705C633.65 130.4 633.598 131.021 633.492 131.568C633.387 132.115 633.221 132.578 632.994 132.957C632.768 133.336 632.475 133.625 632.115 133.824C631.756 134.02 631.324 134.117 630.82 134.117C630.184 134.117 629.656 133.943 629.238 133.596C628.824 133.248 628.514 132.746 628.307 132.09C628.104 131.43 628.002 130.635 628.002 129.705C628.002 128.791 628.094 128.006 628.277 127.35C628.465 126.689 628.766 126.184 629.18 125.832C629.594 125.477 630.141 125.299 630.82 125.299C631.465 125.299 631.996 125.475 632.414 125.826C632.832 126.174 633.143 126.678 633.346 127.338C633.549 127.994 633.65 128.783 633.65 129.705ZM628.98 129.705C628.98 130.502 629.041 131.166 629.162 131.697C629.283 132.229 629.479 132.627 629.748 132.893C630.021 133.154 630.379 133.285 630.82 133.285C631.262 133.285 631.617 133.154 631.887 132.893C632.16 132.631 632.357 132.234 632.479 131.703C632.604 131.172 632.666 130.506 632.666 129.705C632.666 128.92 632.605 128.264 632.484 127.736C632.363 127.205 632.168 126.807 631.898 126.541C631.629 126.271 631.27 126.137 630.82 126.137C630.371 126.137 630.012 126.271 629.742 126.541C629.473 126.807 629.277 127.205 629.156 127.736C629.039 128.264 628.98 128.92 628.98 129.705ZM637.688 125.311C638.184 125.311 638.623 125.389 639.006 125.545C639.389 125.701 639.688 125.932 639.902 126.236C640.121 126.537 640.23 126.908 640.23 127.35C640.23 127.697 640.154 128.002 640.002 128.264C639.854 128.521 639.652 128.748 639.398 128.943C639.145 129.135 638.863 129.307 638.555 129.459C638.922 129.627 639.252 129.816 639.545 130.027C639.842 130.238 640.076 130.486 640.248 130.771C640.42 131.057 640.506 131.395 640.506 131.785C640.506 132.266 640.389 132.682 640.154 133.033C639.924 133.381 639.6 133.648 639.182 133.836C638.764 134.023 638.273 134.117 637.711 134.117C637.105 134.117 636.59 134.027 636.164 133.848C635.742 133.664 635.42 133.402 635.197 133.062C634.979 132.719 634.869 132.307 634.869 131.826C634.869 131.432 634.953 131.09 635.121 130.801C635.289 130.508 635.512 130.256 635.789 130.045C636.066 129.834 636.369 129.656 636.697 129.512C636.412 129.355 636.15 129.178 635.912 128.979C635.678 128.779 635.49 128.547 635.35 128.281C635.213 128.012 635.145 127.699 635.145 127.344C635.145 126.91 635.254 126.543 635.473 126.242C635.695 125.938 635.998 125.707 636.381 125.551C636.768 125.391 637.203 125.311 637.688 125.311ZM635.824 131.832C635.824 132.27 635.979 132.631 636.287 132.916C636.596 133.197 637.062 133.338 637.688 133.338C638.281 133.338 638.74 133.197 639.064 132.916C639.389 132.631 639.551 132.258 639.551 131.797C639.551 131.512 639.477 131.262 639.328 131.047C639.18 130.828 638.969 130.633 638.695 130.461C638.422 130.289 638.1 130.133 637.729 129.992L637.518 129.916C637.158 130.064 636.852 130.23 636.598 130.414C636.348 130.594 636.156 130.799 636.023 131.029C635.891 131.26 635.824 131.527 635.824 131.832ZM637.676 126.107C637.215 126.107 636.838 126.219 636.545 126.441C636.252 126.66 636.105 126.977 636.105 127.391C636.105 127.688 636.176 127.939 636.316 128.146C636.461 128.35 636.656 128.525 636.902 128.674C637.148 128.818 637.424 128.953 637.729 129.078C638.025 128.953 638.289 128.816 638.52 128.668C638.75 128.516 638.932 128.336 639.064 128.129C639.197 127.922 639.264 127.674 639.264 127.385C639.264 126.971 639.117 126.654 638.824 126.436C638.535 126.217 638.152 126.107 637.676 126.107ZM644.432 128.762C645.014 128.762 645.52 128.861 645.949 129.061C646.379 129.256 646.711 129.541 646.945 129.916C647.184 130.291 647.303 130.746 647.303 131.281C647.303 131.867 647.176 132.373 646.922 132.799C646.668 133.221 646.303 133.547 645.826 133.777C645.35 134.004 644.779 134.117 644.115 134.117C643.67 134.117 643.256 134.078 642.873 134C642.49 133.922 642.168 133.805 641.906 133.648V132.723C642.191 132.895 642.537 133.031 642.943 133.133C643.35 133.234 643.744 133.285 644.127 133.285C644.561 133.285 644.939 133.217 645.264 133.08C645.592 132.939 645.846 132.729 646.025 132.447C646.209 132.162 646.301 131.805 646.301 131.375C646.301 130.805 646.125 130.365 645.773 130.057C645.426 129.744 644.875 129.588 644.121 129.588C643.879 129.588 643.613 129.607 643.324 129.646C643.035 129.686 642.797 129.729 642.609 129.775L642.117 129.453L642.445 125.434H646.705V126.324H643.277L643.061 128.908C643.209 128.877 643.4 128.846 643.635 128.814C643.869 128.779 644.135 128.762 644.432 128.762Z" fill="#161616"/>
<path d="M623.631 166.705C623.631 167.4 623.578 168.021 623.473 168.568C623.367 169.115 623.201 169.578 622.975 169.957C622.748 170.336 622.455 170.625 622.096 170.824C621.736 171.02 621.305 171.117 620.801 171.117C620.164 171.117 619.637 170.943 619.219 170.596C618.805 170.248 618.494 169.746 618.287 169.09C618.084 168.43 617.982 167.635 617.982 166.705C617.982 165.791 618.074 165.006 618.258 164.35C618.445 163.689 618.746 163.184 619.16 162.832C619.574 162.477 620.121 162.299 620.801 162.299C621.445 162.299 621.977 162.475 622.395 162.826C622.812 163.174 623.123 163.678 623.326 164.338C623.529 164.994 623.631 165.783 623.631 166.705ZM618.961 166.705C618.961 167.502 619.021 168.166 619.143 168.697C619.264 169.229 619.459 169.627 619.729 169.893C620.002 170.154 620.359 170.285 620.801 170.285C621.242 170.285 621.598 170.154 621.867 169.893C622.141 169.631 622.338 169.234 622.459 168.703C622.584 168.172 622.646 167.506 622.646 166.705C622.646 165.92 622.586 165.264 622.465 164.736C622.344 164.205 622.148 163.807 621.879 163.541C621.609 163.271 621.25 163.137 620.801 163.137C620.352 163.137 619.992 163.271 619.723 163.541C619.453 163.807 619.258 164.205 619.137 164.736C619.02 165.264 618.961 165.92 618.961 166.705ZM625.125 170.391C625.125 170.117 625.191 169.924 625.324 169.811C625.457 169.693 625.619 169.635 625.811 169.635C626.01 169.635 626.178 169.693 626.314 169.811C626.451 169.924 626.52 170.117 626.52 170.391C626.52 170.66 626.451 170.857 626.314 170.982C626.178 171.104 626.01 171.164 625.811 171.164C625.619 171.164 625.457 171.104 625.324 170.982C625.191 170.857 625.125 170.66 625.125 170.391ZM631.611 171H630.662V164.93C630.662 164.699 630.662 164.502 630.662 164.338C630.666 164.17 630.67 164.018 630.674 163.881C630.682 163.74 630.691 163.598 630.703 163.453C630.582 163.578 630.469 163.686 630.363 163.775C630.258 163.861 630.127 163.969 629.971 164.098L628.992 164.883L628.482 164.221L630.803 162.434H631.611V171ZM640.518 166.705C640.518 167.4 640.465 168.021 640.359 168.568C640.254 169.115 640.088 169.578 639.861 169.957C639.635 170.336 639.342 170.625 638.982 170.824C638.623 171.02 638.191 171.117 637.688 171.117C637.051 171.117 636.523 170.943 636.105 170.596C635.691 170.248 635.381 169.746 635.174 169.09C634.971 168.43 634.869 167.635 634.869 166.705C634.869 165.791 634.961 165.006 635.145 164.35C635.332 163.689 635.633 163.184 636.047 162.832C636.461 162.477 637.008 162.299 637.688 162.299C638.332 162.299 638.863 162.475 639.281 162.826C639.699 163.174 640.01 163.678 640.213 164.338C640.416 164.994 640.518 165.783 640.518 166.705ZM635.848 166.705C635.848 167.502 635.908 168.166 636.029 168.697C636.15 169.229 636.346 169.627 636.615 169.893C636.889 170.154 637.246 170.285 637.688 170.285C638.129 170.285 638.484 170.154 638.754 169.893C639.027 169.631 639.225 169.234 639.346 168.703C639.471 168.172 639.533 167.506 639.533 166.705C639.533 165.92 639.473 165.264 639.352 164.736C639.23 164.205 639.035 163.807 638.766 163.541C638.496 163.271 638.137 163.137 637.688 163.137C637.238 163.137 636.879 163.271 636.609 163.541C636.34 163.807 636.145 164.205 636.023 164.736C635.906 165.264 635.848 165.92 635.848 166.705ZM647.338 171H641.725V170.186L644.016 167.859C644.441 167.43 644.799 167.047 645.088 166.711C645.381 166.375 645.604 166.045 645.756 165.721C645.908 165.393 645.984 165.033 645.984 164.643C645.984 164.158 645.84 163.789 645.551 163.535C645.266 163.277 644.889 163.148 644.42 163.148C644.01 163.148 643.646 163.219 643.33 163.359C643.014 163.5 642.689 163.699 642.357 163.957L641.836 163.301C642.062 163.109 642.309 162.939 642.574 162.791C642.844 162.643 643.131 162.525 643.436 162.439C643.744 162.354 644.072 162.311 644.42 162.311C644.947 162.311 645.402 162.402 645.785 162.586C646.168 162.77 646.463 163.031 646.67 163.371C646.881 163.711 646.986 164.115 646.986 164.584C646.986 165.037 646.896 165.459 646.717 165.85C646.537 166.236 646.285 166.621 645.961 167.004C645.637 167.383 645.258 167.785 644.824 168.211L642.961 170.068V170.109H647.338V171Z" fill="#161616"/>
</g>
</g>
<defs>
<filter id="filter0_d_2525_298252" x="230.5" y="70" width="427" height="7" filterUnits="userSpaceOnUse" color-interpolation-filters="sRGB">
<feFlood flood-opacity="0" result="BackgroundImageFix"/>
<feColorMatrix in="SourceAlpha" type="matrix" values="0 0 0 0 0 0 0 0 0 0 0 0 0 0 0 0 0 0 127 0" result="hardAlpha"/>
<feOffset dy="1"/>
<feGaussianBlur stdDeviation="1.5"/>
<feColorMatrix type="matrix" values="0 0 0 0 0 0 0 0 0 0 0 0 0 0 0 0 0 0 0.1 0"/>
<feBlend mode="normal" in2="BackgroundImageFix" result="effect1_dropShadow_2525_298252"/>
<feBlend mode="normal" in="SourceGraphic" in2="effect1_dropShadow_2525_298252" result="shape"/>
</filter>
<clipPath id="clip0_2525_298252">
<rect width="421" height="148" fill="white" transform="translate(233.5 36)"/>
</clipPath>
<clipPath id="clip1_2525_298252">
<rect width="421" height="148" fill="white" transform="translate(233.5 36)"/>
</clipPath>
<clipPath id="clip2_2525_298252">
<rect width="421" height="148" fill="white" transform="translate(234 36)"/>
</clipPath>
</defs>
</svg>
