<svg width="784" height="220" viewBox="0 0 784 220" fill="none" xmlns="http://www.w3.org/2000/svg">
<rect width="784" height="220" fill="white"/>
<g clip-path="url(#clip0_2452_297828)">
<g clip-path="url(#clip1_2452_297828)">
<rect x="181.5" y="147" width="421" height="37" fill="white"/>
<rect x="181.5" y="110" width="421" height="37" fill="white"/>
<rect x="181.5" y="147" width="421" height="1" fill="black" fill-opacity="0.15"/>
<rect x="181.5" y="73" width="421" height="37" fill="white"/>
<rect x="181.5" y="110" width="421" height="1" fill="black" fill-opacity="0.15"/>
<rect width="421" height="37" transform="translate(181.5 36)" fill="white"/>
<g filter="url(#filter0_d_2452_297828)">
<rect width="421" height="1" transform="matrix(1 0 0 -1 181.5 73)" fill="black" fill-opacity="0.4"/>
</g>
</g>
<g clip-path="url(#clip2_2452_297828)">
<rect x="281" y="48" width="1" height="11" fill="black" fill-opacity="0.15"/>
<path d="M193.239 50.1475C193.916 50.1475 194.474 50.2298 194.915 50.3945C195.359 50.5592 195.688 50.8099 195.903 51.1465C196.121 51.4831 196.23 51.911 196.23 52.4302C196.23 52.8169 196.159 53.1463 196.016 53.4185C195.872 53.6906 195.684 53.9162 195.452 54.0952C195.219 54.2743 194.97 54.4175 194.705 54.5249L196.934 58H195.479L193.583 54.8525H192.32V58H191.031V50.1475H193.239ZM193.153 51.2217H192.32V53.7891H193.212C193.81 53.7891 194.243 53.6781 194.512 53.4561C194.784 53.234 194.92 52.9064 194.92 52.4731C194.92 52.0184 194.775 51.6961 194.485 51.5063C194.198 51.3166 193.754 51.2217 193.153 51.2217ZM199.19 52.0542V58H197.928V52.0542H199.19ZM198.567 49.7769C198.76 49.7769 198.927 49.8288 199.066 49.9326C199.21 50.0365 199.281 50.2155 199.281 50.4697C199.281 50.7204 199.21 50.8994 199.066 51.0068C198.927 51.1107 198.76 51.1626 198.567 51.1626C198.366 51.1626 198.196 51.1107 198.057 51.0068C197.921 50.8994 197.853 50.7204 197.853 50.4697C197.853 50.2155 197.921 50.0365 198.057 49.9326C198.196 49.8288 198.366 49.7769 198.567 49.7769ZM204.996 56.3027C204.996 56.693 204.901 57.0225 204.711 57.291C204.522 57.5596 204.244 57.7637 203.879 57.9033C203.517 58.0394 203.073 58.1074 202.547 58.1074C202.132 58.1074 201.773 58.077 201.473 58.0161C201.175 57.9588 200.894 57.8693 200.629 57.7476V56.6572C200.912 56.7897 201.229 56.9043 201.58 57.001C201.935 57.0977 202.269 57.146 202.584 57.146C203 57.146 203.299 57.0815 203.481 56.9526C203.664 56.8201 203.755 56.6447 203.755 56.4263C203.755 56.2974 203.718 56.1828 203.643 56.0825C203.571 55.9787 203.435 55.873 203.234 55.7656C203.037 55.6546 202.747 55.5221 202.364 55.3682C201.988 55.2178 201.671 55.0674 201.414 54.917C201.156 54.7666 200.961 54.5858 200.828 54.3745C200.696 54.1597 200.629 53.8857 200.629 53.5527C200.629 53.0264 200.837 52.6271 201.252 52.355C201.671 52.0793 202.225 51.9414 202.912 51.9414C203.277 51.9414 203.621 51.979 203.943 52.0542C204.269 52.1258 204.588 52.2314 204.899 52.3711L204.502 53.3218C204.233 53.2036 203.963 53.1069 203.691 53.0317C203.422 52.953 203.148 52.9136 202.869 52.9136C202.543 52.9136 202.294 52.9637 202.123 53.064C201.954 53.1642 201.87 53.3075 201.87 53.4937C201.87 53.6333 201.911 53.7515 201.994 53.8481C202.076 53.9448 202.217 54.0415 202.418 54.1382C202.622 54.2349 202.905 54.3548 203.267 54.498C203.621 54.6341 203.927 54.7773 204.185 54.9277C204.446 55.0745 204.647 55.2554 204.787 55.4702C204.926 55.6851 204.996 55.9626 204.996 56.3027ZM207.623 49.6426V53.6816C207.623 53.8643 207.615 54.0648 207.601 54.2832C207.587 54.498 207.572 54.7004 207.558 54.8901H207.585C207.678 54.7648 207.789 54.618 207.918 54.4497C208.05 54.2814 208.176 54.1346 208.294 54.0093L210.109 52.0542H211.56L209.18 54.6108L211.715 58H210.233L208.332 55.3896L207.623 55.9966V58H206.36V49.6426H207.623Z" fill="#61656E"/>
<rect x="281" y="73" width="1" height="37" fill="black" fill-opacity="0.15"/>
<path d="M191.172 97V88.4336H192.168V96.1094H195.971V97H191.172ZM202.832 93.7773C202.832 94.3047 202.764 94.7754 202.627 95.1895C202.49 95.6035 202.293 95.9531 202.035 96.2383C201.777 96.5234 201.465 96.7422 201.098 96.8945C200.734 97.043 200.322 97.1172 199.861 97.1172C199.432 97.1172 199.037 97.043 198.678 96.8945C198.322 96.7422 198.014 96.5234 197.752 96.2383C197.494 95.9531 197.293 95.6035 197.148 95.1895C197.008 94.7754 196.938 94.3047 196.938 93.7773C196.938 93.0742 197.057 92.4766 197.295 91.9844C197.533 91.4883 197.873 91.1113 198.314 90.8535C198.76 90.5918 199.289 90.4609 199.902 90.4609C200.488 90.4609 201 90.5918 201.438 90.8535C201.879 91.1152 202.221 91.4941 202.463 91.9902C202.709 92.4824 202.832 93.0781 202.832 93.7773ZM197.945 93.7773C197.945 94.293 198.014 94.7402 198.15 95.1191C198.287 95.498 198.498 95.791 198.783 95.998C199.068 96.2051 199.436 96.3086 199.885 96.3086C200.33 96.3086 200.695 96.2051 200.98 95.998C201.27 95.791 201.482 95.498 201.619 95.1191C201.756 94.7402 201.824 94.293 201.824 93.7773C201.824 93.2656 201.756 92.8242 201.619 92.4531C201.482 92.0781 201.271 91.7891 200.986 91.5859C200.701 91.3828 200.332 91.2812 199.879 91.2812C199.211 91.2812 198.721 91.502 198.408 91.9434C198.1 92.3848 197.945 92.9961 197.945 93.7773ZM209.74 96.9883L208.598 93.25C208.547 93.0898 208.498 92.9336 208.451 92.7812C208.408 92.625 208.367 92.4766 208.328 92.3359C208.293 92.1914 208.26 92.0586 208.229 91.9375C208.201 91.8125 208.178 91.7051 208.158 91.6152H208.117C208.102 91.7051 208.08 91.8125 208.053 91.9375C208.025 92.0586 207.992 92.1914 207.953 92.3359C207.918 92.4805 207.879 92.6328 207.836 92.793C207.793 92.9492 207.744 93.1074 207.689 93.2676L206.494 96.9883H205.398L203.629 90.5664H204.637L205.562 94.1113C205.625 94.3457 205.684 94.5781 205.738 94.8086C205.797 95.0352 205.846 95.25 205.885 95.4531C205.928 95.6523 205.959 95.8262 205.979 95.9746H206.025C206.049 95.877 206.074 95.7598 206.102 95.623C206.133 95.4863 206.166 95.3418 206.201 95.1895C206.24 95.0332 206.281 94.8789 206.324 94.7266C206.367 94.5703 206.41 94.4238 206.453 94.2871L207.637 90.5664H208.686L209.828 94.2812C209.887 94.4688 209.943 94.6641 209.998 94.8672C210.057 95.0703 210.109 95.2676 210.156 95.459C210.203 95.6465 210.236 95.8145 210.256 95.9629H210.303C210.318 95.8301 210.348 95.666 210.391 95.4707C210.434 95.2754 210.482 95.0605 210.537 94.8262C210.596 94.5918 210.656 94.3535 210.719 94.1113L211.656 90.5664H212.646L210.871 96.9883H209.74Z" fill="#161616"/>
<rect x="281" y="110" width="1" height="37" fill="black" fill-opacity="0.15"/>
<path d="M194.939 134L192.062 126.418H192.016C192.031 126.578 192.045 126.773 192.057 127.004C192.068 127.234 192.078 127.486 192.086 127.76C192.094 128.029 192.098 128.305 192.098 128.586V134H191.172V125.434H192.648L195.361 132.559H195.402L198.156 125.434H199.621V134H198.637V128.516C198.637 128.262 198.641 128.008 198.648 127.754C198.656 127.496 198.666 127.254 198.678 127.027C198.689 126.797 198.701 126.598 198.713 126.43H198.666L195.754 134H194.939ZM204.291 127.461C204.838 127.461 205.307 127.582 205.697 127.824C206.088 128.066 206.387 128.406 206.594 128.844C206.801 129.277 206.904 129.785 206.904 130.367V130.971H202.469C202.48 131.725 202.668 132.299 203.031 132.693C203.395 133.088 203.906 133.285 204.566 133.285C204.973 133.285 205.332 133.248 205.645 133.174C205.957 133.1 206.281 132.99 206.617 132.846V133.701C206.293 133.846 205.971 133.951 205.65 134.018C205.334 134.084 204.959 134.117 204.525 134.117C203.908 134.117 203.369 133.992 202.908 133.742C202.451 133.488 202.096 133.117 201.842 132.629C201.588 132.141 201.461 131.543 201.461 130.836C201.461 130.145 201.576 129.547 201.807 129.043C202.041 128.535 202.369 128.145 202.791 127.871C203.217 127.598 203.717 127.461 204.291 127.461ZM204.279 128.258C203.76 128.258 203.346 128.428 203.037 128.768C202.729 129.107 202.545 129.582 202.486 130.191H205.885C205.881 129.809 205.82 129.473 205.703 129.184C205.59 128.891 205.416 128.664 205.182 128.504C204.947 128.34 204.646 128.258 204.279 128.258ZM210.842 134.117C210.029 134.117 209.385 133.84 208.908 133.285C208.436 132.73 208.199 131.906 208.199 130.812C208.199 129.707 208.441 128.873 208.926 128.311C209.41 127.744 210.055 127.461 210.859 127.461C211.199 127.461 211.496 127.506 211.75 127.596C212.004 127.686 212.223 127.807 212.406 127.959C212.59 128.107 212.744 128.277 212.869 128.469H212.939C212.924 128.348 212.908 128.182 212.893 127.971C212.877 127.76 212.869 127.588 212.869 127.455V124.883H213.842V134H213.057L212.91 133.086H212.869C212.748 133.277 212.594 133.451 212.406 133.607C212.223 133.764 212.002 133.889 211.744 133.982C211.49 134.072 211.189 134.117 210.842 134.117ZM210.994 133.309C211.682 133.309 212.168 133.113 212.453 132.723C212.738 132.332 212.881 131.752 212.881 130.982V130.807C212.881 129.99 212.744 129.363 212.471 128.926C212.201 128.488 211.709 128.27 210.994 128.27C210.396 128.27 209.949 128.5 209.652 128.961C209.355 129.418 209.207 130.043 209.207 130.836C209.207 131.625 209.354 132.234 209.646 132.664C209.943 133.094 210.393 133.309 210.994 133.309ZM216.877 127.578V134H215.904V127.578H216.877ZM216.402 125.176C216.562 125.176 216.699 125.229 216.812 125.334C216.93 125.436 216.988 125.596 216.988 125.814C216.988 126.029 216.93 126.189 216.812 126.295C216.699 126.4 216.562 126.453 216.402 126.453C216.234 126.453 216.094 126.4 215.98 126.295C215.871 126.189 215.816 126.029 215.816 125.814C215.816 125.596 215.871 125.436 215.98 125.334C216.094 125.229 216.234 125.176 216.402 125.176ZM224.242 127.578V134H223.445L223.305 133.098H223.252C223.119 133.32 222.947 133.508 222.736 133.66C222.525 133.812 222.287 133.926 222.021 134C221.76 134.078 221.48 134.117 221.184 134.117C220.676 134.117 220.25 134.035 219.906 133.871C219.562 133.707 219.303 133.453 219.127 133.109C218.955 132.766 218.869 132.324 218.869 131.785V127.578H219.854V131.715C219.854 132.25 219.975 132.65 220.217 132.916C220.459 133.178 220.828 133.309 221.324 133.309C221.801 133.309 222.18 133.219 222.461 133.039C222.746 132.859 222.951 132.596 223.076 132.248C223.201 131.896 223.264 131.467 223.264 130.959V127.578H224.242ZM233.271 127.461C233.979 127.461 234.512 127.646 234.871 128.018C235.23 128.385 235.41 128.977 235.41 129.793V134H234.449V129.84C234.449 129.32 234.336 128.932 234.109 128.674C233.887 128.412 233.555 128.281 233.113 128.281C232.492 128.281 232.041 128.461 231.76 128.82C231.479 129.18 231.338 129.709 231.338 130.408V134H230.371V129.84C230.371 129.492 230.32 129.203 230.219 128.973C230.121 128.742 229.973 128.57 229.773 128.457C229.578 128.34 229.33 128.281 229.029 128.281C228.604 128.281 228.262 128.369 228.004 128.545C227.746 128.721 227.559 128.982 227.441 129.33C227.328 129.674 227.271 130.098 227.271 130.602V134H226.299V127.578H227.084L227.23 128.486H227.283C227.412 128.264 227.574 128.076 227.77 127.924C227.965 127.771 228.184 127.656 228.426 127.578C228.668 127.5 228.926 127.461 229.199 127.461C229.688 127.461 230.096 127.553 230.424 127.736C230.756 127.916 230.996 128.191 231.145 128.562H231.197C231.408 128.191 231.697 127.916 232.064 127.736C232.432 127.553 232.834 127.461 233.271 127.461Z" fill="#161616"/>
<rect x="281" y="147" width="1" height="37" fill="black" fill-opacity="0.15"/>
<path d="M197.664 171H196.668V166.963H192.168V171H191.172V162.434H192.168V166.084H196.668V162.434H197.664V171ZM200.846 164.578V171H199.873V164.578H200.846ZM200.371 162.176C200.531 162.176 200.668 162.229 200.781 162.334C200.898 162.436 200.957 162.596 200.957 162.814C200.957 163.029 200.898 163.189 200.781 163.295C200.668 163.4 200.531 163.453 200.371 163.453C200.203 163.453 200.062 163.4 199.949 163.295C199.84 163.189 199.785 163.029 199.785 162.814C199.785 162.596 199.84 162.436 199.949 162.334C200.062 162.229 200.203 162.176 200.371 162.176ZM204.701 173.883C203.857 173.883 203.207 173.725 202.75 173.408C202.293 173.096 202.064 172.656 202.064 172.09C202.064 171.688 202.191 171.344 202.445 171.059C202.703 170.773 203.059 170.584 203.512 170.49C203.344 170.412 203.199 170.295 203.078 170.139C202.961 169.982 202.902 169.803 202.902 169.6C202.902 169.365 202.967 169.16 203.096 168.984C203.229 168.805 203.43 168.633 203.699 168.469C203.363 168.332 203.09 168.102 202.879 167.777C202.672 167.449 202.568 167.068 202.568 166.635C202.568 166.174 202.664 165.781 202.855 165.457C203.047 165.129 203.324 164.879 203.688 164.707C204.051 164.535 204.49 164.449 205.006 164.449C205.119 164.449 205.232 164.455 205.346 164.467C205.463 164.475 205.574 164.488 205.68 164.508C205.785 164.523 205.877 164.543 205.955 164.566H208.158V165.193L206.975 165.34C207.092 165.492 207.189 165.676 207.268 165.891C207.346 166.105 207.385 166.344 207.385 166.605C207.385 167.246 207.168 167.756 206.734 168.135C206.301 168.51 205.705 168.697 204.947 168.697C204.768 168.697 204.584 168.682 204.396 168.65C204.205 168.756 204.059 168.873 203.957 169.002C203.859 169.131 203.811 169.279 203.811 169.447C203.811 169.572 203.848 169.672 203.922 169.746C204 169.82 204.111 169.875 204.256 169.91C204.4 169.941 204.574 169.957 204.777 169.957H205.908C206.607 169.957 207.143 170.104 207.514 170.396C207.889 170.689 208.076 171.117 208.076 171.68C208.076 172.391 207.787 172.936 207.209 173.314C206.631 173.693 205.795 173.883 204.701 173.883ZM204.73 173.121C205.262 173.121 205.701 173.066 206.049 172.957C206.4 172.852 206.662 172.697 206.834 172.494C207.01 172.295 207.098 172.057 207.098 171.779C207.098 171.521 207.039 171.326 206.922 171.193C206.805 171.064 206.633 170.979 206.406 170.936C206.18 170.889 205.902 170.865 205.574 170.865H204.461C204.172 170.865 203.92 170.91 203.705 171C203.49 171.09 203.324 171.223 203.207 171.398C203.094 171.574 203.037 171.793 203.037 172.055C203.037 172.402 203.184 172.666 203.477 172.846C203.77 173.029 204.188 173.121 204.73 173.121ZM204.982 167.988C205.447 167.988 205.797 167.871 206.031 167.637C206.266 167.402 206.383 167.061 206.383 166.611C206.383 166.131 206.264 165.771 206.025 165.533C205.787 165.291 205.436 165.17 204.971 165.17C204.525 165.17 204.182 165.295 203.939 165.545C203.701 165.791 203.582 166.152 203.582 166.629C203.582 167.066 203.703 167.402 203.945 167.637C204.188 167.871 204.533 167.988 204.982 167.988ZM210.396 161.883V164.607C210.396 164.764 210.393 164.922 210.385 165.082C210.377 165.238 210.363 165.383 210.344 165.516H210.408C210.541 165.289 210.709 165.1 210.912 164.947C211.119 164.791 211.354 164.674 211.615 164.596C211.877 164.514 212.154 164.473 212.447 164.473C212.963 164.473 213.393 164.555 213.736 164.719C214.084 164.883 214.344 165.137 214.516 165.48C214.691 165.824 214.779 166.27 214.779 166.816V171H213.818V166.881C213.818 166.346 213.695 165.945 213.449 165.68C213.207 165.414 212.834 165.281 212.33 165.281C211.854 165.281 211.473 165.373 211.188 165.557C210.906 165.736 210.703 166.002 210.578 166.354C210.457 166.705 210.396 167.135 210.396 167.643V171H209.424V161.883H210.396Z" fill="#161616"/>
<rect x="381" y="48" width="1" height="11" fill="black" fill-opacity="0.15"/>
<path d="M293.754 58H292.46V51.2432H290.161V50.1475H296.048V51.2432H293.754V58ZM300.135 51.9414C300.236 51.9414 300.345 51.9468 300.463 51.9575C300.581 51.9683 300.683 51.9826 300.769 52.0005L300.651 53.1821C300.576 53.1606 300.483 53.1445 300.372 53.1338C300.264 53.123 300.167 53.1177 300.082 53.1177C299.856 53.1177 299.641 53.1553 299.437 53.2305C299.233 53.3021 299.052 53.4131 298.895 53.5635C298.737 53.7103 298.613 53.8947 298.524 54.1167C298.434 54.3387 298.39 54.5965 298.39 54.8901V58H297.122V52.0542H298.11L298.282 53.1016H298.341C298.459 52.8903 298.606 52.6969 298.782 52.5215C298.957 52.346 299.158 52.2064 299.383 52.1025C299.612 51.9951 299.863 51.9414 300.135 51.9414ZM304.201 51.9414C304.953 51.9414 305.521 52.1079 305.904 52.4409C306.291 52.7739 306.484 53.2931 306.484 53.9985V58H305.587L305.345 57.1567H305.302C305.134 57.3716 304.96 57.5488 304.781 57.6885C304.602 57.8281 304.395 57.932 304.158 58C303.925 58.0716 303.641 58.1074 303.304 58.1074C302.95 58.1074 302.633 58.043 302.354 57.9141C302.074 57.7816 301.854 57.5811 301.693 57.3125C301.532 57.0439 301.451 56.7038 301.451 56.292C301.451 55.6797 301.679 55.2196 302.133 54.9116C302.592 54.6037 303.283 54.4336 304.207 54.4014L305.238 54.3638V54.0522C305.238 53.6405 305.141 53.3468 304.948 53.1714C304.758 52.9959 304.489 52.9082 304.142 52.9082C303.845 52.9082 303.557 52.9512 303.277 53.0371C302.998 53.123 302.726 53.2287 302.461 53.354L302.053 52.4624C302.343 52.3084 302.672 52.1831 303.041 52.0864C303.413 51.9897 303.8 51.9414 304.201 51.9414ZM305.232 55.1587L304.464 55.1855C303.834 55.207 303.392 55.3145 303.138 55.5078C302.883 55.7012 302.756 55.9661 302.756 56.3027C302.756 56.5964 302.844 56.8112 303.02 56.9473C303.195 57.0798 303.426 57.146 303.712 57.146C304.149 57.146 304.511 57.0225 304.797 56.7754C305.087 56.5247 305.232 56.1577 305.232 55.6743V55.1587ZM310.249 58.1074C309.54 58.1074 308.971 57.8496 308.541 57.334C308.115 56.8148 307.902 56.0503 307.902 55.0405C307.902 54.02 308.118 53.2484 308.552 52.7256C308.989 52.2028 309.563 51.9414 310.276 51.9414C310.577 51.9414 310.84 51.9826 311.065 52.0649C311.291 52.1437 311.484 52.2511 311.646 52.3872C311.81 52.5233 311.95 52.6755 312.064 52.8438H312.124C312.106 52.7327 312.084 52.5734 312.059 52.3657C312.038 52.1545 312.027 51.9593 312.027 51.7803V49.6426H313.294V58H312.306L312.081 57.189H312.027C311.919 57.3608 311.783 57.5166 311.619 57.6562C311.458 57.7923 311.264 57.9015 311.039 57.9839C310.817 58.0662 310.553 58.1074 310.249 58.1074ZM310.604 57.0815C311.144 57.0815 311.526 56.9258 311.748 56.6143C311.97 56.3027 312.084 55.8354 312.091 55.2124V55.0459C312.091 54.3799 311.984 53.8696 311.769 53.5151C311.554 53.1571 311.162 52.978 310.593 52.978C310.138 52.978 309.791 53.1624 309.551 53.5312C309.314 53.8965 309.196 54.4067 309.196 55.062C309.196 55.7173 309.314 56.2186 309.551 56.5659C309.791 56.9097 310.142 57.0815 310.604 57.0815ZM317.473 51.9414C318.003 51.9414 318.458 52.0506 318.837 52.269C319.217 52.4875 319.509 52.7972 319.713 53.1982C319.917 53.5993 320.019 54.0791 320.019 54.6377V55.3145H316.05C316.064 55.891 316.218 56.335 316.512 56.6465C316.809 56.958 317.224 57.1138 317.758 57.1138C318.137 57.1138 318.478 57.078 318.778 57.0063C319.083 56.9312 319.396 56.8219 319.718 56.6787V57.7046C319.421 57.8442 319.118 57.9463 318.811 58.0107C318.503 58.0752 318.134 58.1074 317.704 58.1074C317.12 58.1074 316.607 57.9946 316.163 57.769C315.722 57.5399 315.377 57.1997 315.126 56.7485C314.879 56.2974 314.755 55.737 314.755 55.0674C314.755 54.4014 314.868 53.8356 315.094 53.3701C315.319 52.9046 315.636 52.5501 316.044 52.3066C316.453 52.0632 316.929 51.9414 317.473 51.9414ZM317.473 52.8921C317.076 52.8921 316.753 53.021 316.506 53.2788C316.263 53.5366 316.12 53.9144 316.077 54.4121H318.784C318.78 54.1149 318.73 53.8517 318.633 53.6226C318.54 53.3934 318.397 53.2144 318.204 53.0854C318.014 52.9565 317.77 52.8921 317.473 52.8921ZM324.429 58V50.1475H325.718V58H324.429ZM334.167 53.9985C334.167 54.883 334.002 55.6224 333.672 56.2168C333.343 56.8076 332.865 57.2534 332.238 57.5542C331.612 57.8514 330.856 58 329.972 58H327.791V50.1475H330.208C331.021 50.1475 331.723 50.2943 332.313 50.5879C332.904 50.8779 333.361 51.3094 333.683 51.8823C334.005 52.4517 334.167 53.1571 334.167 53.9985ZM332.824 54.0361C332.824 53.3916 332.722 52.8617 332.518 52.4463C332.317 52.0309 332.02 51.723 331.626 51.5225C331.236 51.3184 330.754 51.2163 330.181 51.2163H329.08V56.9204H329.993C330.942 56.9204 331.651 56.6787 332.12 56.1953C332.589 55.7119 332.824 54.9922 332.824 54.0361Z" fill="#61656E"/>
<rect x="381" y="73" width="1" height="37" fill="black" fill-opacity="0.15"/>
<path d="M291.699 97L295.215 89.3242H290.545V88.4336H296.258V89.1836L292.766 97H291.699ZM303.5 95.0137H302.217V97H301.268V95.0137H297.125V94.1934L301.203 88.3867H302.217V94.1348H303.5V95.0137ZM301.268 94.1348V91.334C301.268 91.1191 301.27 90.9258 301.273 90.7539C301.277 90.5781 301.283 90.416 301.291 90.2676C301.299 90.1152 301.305 89.9707 301.309 89.834C301.316 89.6973 301.322 89.5625 301.326 89.4297H301.279C301.205 89.5859 301.119 89.752 301.021 89.9277C300.928 90.0996 300.832 90.2539 300.734 90.3906L298.092 94.1348H301.268ZM310.367 95.0137H309.084V97H308.135V95.0137H303.992V94.1934L308.07 88.3867H309.084V94.1348H310.367V95.0137ZM308.135 94.1348V91.334C308.135 91.1191 308.137 90.9258 308.141 90.7539C308.145 90.5781 308.15 90.416 308.158 90.2676C308.166 90.1152 308.172 89.9707 308.176 89.834C308.184 89.6973 308.189 89.5625 308.193 89.4297H308.146C308.072 89.5859 307.986 89.752 307.889 89.9277C307.795 90.0996 307.699 90.2539 307.602 90.3906L304.959 94.1348H308.135ZM316.854 92.7051C316.854 93.4004 316.801 94.0215 316.695 94.5684C316.59 95.1152 316.424 95.5781 316.197 95.957C315.971 96.3359 315.678 96.625 315.318 96.8242C314.959 97.0195 314.527 97.1172 314.023 97.1172C313.387 97.1172 312.859 96.9434 312.441 96.5957C312.027 96.248 311.717 95.7461 311.51 95.0898C311.307 94.4297 311.205 93.6348 311.205 92.7051C311.205 91.791 311.297 91.0059 311.48 90.3496C311.668 89.6895 311.969 89.1836 312.383 88.832C312.797 88.4766 313.344 88.2988 314.023 88.2988C314.668 88.2988 315.199 88.4746 315.617 88.8262C316.035 89.1738 316.346 89.6777 316.549 90.3379C316.752 90.9941 316.854 91.7832 316.854 92.7051ZM312.184 92.7051C312.184 93.502 312.244 94.166 312.365 94.6973C312.486 95.2285 312.682 95.627 312.951 95.8926C313.225 96.1543 313.582 96.2852 314.023 96.2852C314.465 96.2852 314.82 96.1543 315.09 95.8926C315.363 95.6309 315.561 95.2344 315.682 94.7031C315.807 94.1719 315.869 93.5059 315.869 92.7051C315.869 91.9199 315.809 91.2637 315.688 90.7363C315.566 90.2051 315.371 89.8066 315.102 89.541C314.832 89.2715 314.473 89.1367 314.023 89.1367C313.574 89.1367 313.215 89.2715 312.945 89.541C312.676 89.8066 312.48 90.2051 312.359 90.7363C312.242 91.2637 312.184 91.9199 312.184 92.7051ZM323.674 97H318.061V96.1855L320.352 93.8594C320.777 93.4297 321.135 93.0469 321.424 92.7109C321.717 92.375 321.939 92.0449 322.092 91.7207C322.244 91.3926 322.32 91.0332 322.32 90.6426C322.32 90.1582 322.176 89.7891 321.887 89.5352C321.602 89.2773 321.225 89.1484 320.756 89.1484C320.346 89.1484 319.982 89.2188 319.666 89.3594C319.35 89.5 319.025 89.6992 318.693 89.957L318.172 89.3008C318.398 89.1094 318.645 88.9395 318.91 88.791C319.18 88.6426 319.467 88.5254 319.771 88.4395C320.08 88.3535 320.408 88.3105 320.756 88.3105C321.283 88.3105 321.738 88.4023 322.121 88.5859C322.504 88.7695 322.799 89.0312 323.006 89.3711C323.217 89.7109 323.322 90.1152 323.322 90.584C323.322 91.0371 323.232 91.459 323.053 91.8496C322.873 92.2363 322.621 92.6211 322.297 93.0039C321.973 93.3828 321.594 93.7852 321.16 94.2109L319.297 96.0684V96.1094H323.674V97ZM330.225 90.4316C330.225 90.8145 330.15 91.1465 330.002 91.4277C329.854 91.709 329.646 91.9395 329.381 92.1191C329.115 92.2949 328.803 92.418 328.443 92.4883V92.5352C329.123 92.6211 329.633 92.8398 329.973 93.1914C330.316 93.543 330.488 94.0039 330.488 94.5742C330.488 95.0703 330.371 95.5098 330.137 95.8926C329.906 96.2754 329.551 96.5762 329.07 96.7949C328.594 97.0098 327.982 97.1172 327.236 97.1172C326.783 97.1172 326.363 97.0801 325.977 97.0059C325.594 96.9355 325.227 96.8164 324.875 96.6484V95.7344C325.23 95.9102 325.617 96.0488 326.035 96.1504C326.453 96.248 326.857 96.2969 327.248 96.2969C328.029 96.2969 328.594 96.1426 328.941 95.834C329.289 95.5215 329.463 95.0957 329.463 94.5566C329.463 94.1855 329.365 93.8867 329.17 93.6602C328.979 93.4297 328.701 93.2617 328.338 93.1562C327.979 93.0469 327.545 92.9922 327.037 92.9922H326.182V92.1602H327.043C327.508 92.1602 327.902 92.0918 328.227 91.9551C328.551 91.8184 328.797 91.627 328.965 91.3809C329.137 91.1309 329.223 90.8359 329.223 90.4961C329.223 90.0625 329.078 89.7285 328.789 89.4941C328.5 89.2559 328.107 89.1367 327.611 89.1367C327.307 89.1367 327.029 89.168 326.779 89.2305C326.529 89.293 326.295 89.3789 326.076 89.4883C325.857 89.5977 325.639 89.7246 325.42 89.8691L324.928 89.2012C325.24 88.959 325.621 88.75 326.07 88.5742C326.52 88.3984 327.029 88.3105 327.6 88.3105C328.475 88.3105 329.131 88.5098 329.568 88.9082C330.006 89.3066 330.225 89.8145 330.225 90.4316ZM334.502 91.7617C335.084 91.7617 335.59 91.8613 336.02 92.0605C336.449 92.2559 336.781 92.541 337.016 92.916C337.254 93.291 337.373 93.7461 337.373 94.2812C337.373 94.8672 337.246 95.373 336.992 95.7988C336.738 96.2207 336.373 96.5469 335.896 96.7773C335.42 97.0039 334.85 97.1172 334.186 97.1172C333.74 97.1172 333.326 97.0781 332.943 97C332.561 96.9219 332.238 96.8047 331.977 96.6484V95.7227C332.262 95.8945 332.607 96.0312 333.014 96.1328C333.42 96.2344 333.814 96.2852 334.197 96.2852C334.631 96.2852 335.01 96.2168 335.334 96.0801C335.662 95.9395 335.916 95.7285 336.096 95.4473C336.279 95.1621 336.371 94.8047 336.371 94.375C336.371 93.8047 336.195 93.3652 335.844 93.0566C335.496 92.7441 334.945 92.5879 334.191 92.5879C333.949 92.5879 333.684 92.6074 333.395 92.6465C333.105 92.6855 332.867 92.7285 332.68 92.7754L332.188 92.4531L332.516 88.4336H336.775V89.3242H333.348L333.131 91.9082C333.279 91.877 333.471 91.8457 333.705 91.8145C333.939 91.7793 334.205 91.7617 334.502 91.7617Z" fill="#161616"/>
<rect x="381" y="110" width="1" height="37" fill="black" fill-opacity="0.15"/>
<path d="M291.699 134L295.215 126.324H290.545V125.434H296.258V126.184L292.766 134H291.699ZM303.5 132.014H302.217V134H301.268V132.014H297.125V131.193L301.203 125.387H302.217V131.135H303.5V132.014ZM301.268 131.135V128.334C301.268 128.119 301.27 127.926 301.273 127.754C301.277 127.578 301.283 127.416 301.291 127.268C301.299 127.115 301.305 126.971 301.309 126.834C301.316 126.697 301.322 126.562 301.326 126.43H301.279C301.205 126.586 301.119 126.752 301.021 126.928C300.928 127.1 300.832 127.254 300.734 127.391L298.092 131.135H301.268ZM310.367 132.014H309.084V134H308.135V132.014H303.992V131.193L308.07 125.387H309.084V131.135H310.367V132.014ZM308.135 131.135V128.334C308.135 128.119 308.137 127.926 308.141 127.754C308.145 127.578 308.15 127.416 308.158 127.268C308.166 127.115 308.172 126.971 308.176 126.834C308.184 126.697 308.189 126.562 308.193 126.43H308.146C308.072 126.586 307.986 126.752 307.889 126.928C307.795 127.1 307.699 127.254 307.602 127.391L304.959 131.135H308.135ZM316.854 129.705C316.854 130.4 316.801 131.021 316.695 131.568C316.59 132.115 316.424 132.578 316.197 132.957C315.971 133.336 315.678 133.625 315.318 133.824C314.959 134.02 314.527 134.117 314.023 134.117C313.387 134.117 312.859 133.943 312.441 133.596C312.027 133.248 311.717 132.746 311.51 132.09C311.307 131.43 311.205 130.635 311.205 129.705C311.205 128.791 311.297 128.006 311.48 127.35C311.668 126.689 311.969 126.184 312.383 125.832C312.797 125.477 313.344 125.299 314.023 125.299C314.668 125.299 315.199 125.475 315.617 125.826C316.035 126.174 316.346 126.678 316.549 127.338C316.752 127.994 316.854 128.783 316.854 129.705ZM312.184 129.705C312.184 130.502 312.244 131.166 312.365 131.697C312.486 132.229 312.682 132.627 312.951 132.893C313.225 133.154 313.582 133.285 314.023 133.285C314.465 133.285 314.82 133.154 315.09 132.893C315.363 132.631 315.561 132.234 315.682 131.703C315.807 131.172 315.869 130.506 315.869 129.705C315.869 128.92 315.809 128.264 315.688 127.736C315.566 127.205 315.371 126.807 315.102 126.541C314.832 126.271 314.473 126.137 314.023 126.137C313.574 126.137 313.215 126.271 312.945 126.541C312.676 126.807 312.48 127.205 312.359 127.736C312.242 128.264 312.184 128.92 312.184 129.705ZM323.674 134H318.061V133.186L320.352 130.859C320.777 130.43 321.135 130.047 321.424 129.711C321.717 129.375 321.939 129.045 322.092 128.721C322.244 128.393 322.32 128.033 322.32 127.643C322.32 127.158 322.176 126.789 321.887 126.535C321.602 126.277 321.225 126.148 320.756 126.148C320.346 126.148 319.982 126.219 319.666 126.359C319.35 126.5 319.025 126.699 318.693 126.957L318.172 126.301C318.398 126.109 318.645 125.939 318.91 125.791C319.18 125.643 319.467 125.525 319.771 125.439C320.08 125.354 320.408 125.311 320.756 125.311C321.283 125.311 321.738 125.402 322.121 125.586C322.504 125.77 322.799 126.031 323.006 126.371C323.217 126.711 323.322 127.115 323.322 127.584C323.322 128.037 323.232 128.459 323.053 128.85C322.873 129.236 322.621 129.621 322.297 130.004C321.973 130.383 321.594 130.785 321.16 131.211L319.297 133.068V133.109H323.674V134ZM330.225 127.432C330.225 127.814 330.15 128.146 330.002 128.428C329.854 128.709 329.646 128.939 329.381 129.119C329.115 129.295 328.803 129.418 328.443 129.488V129.535C329.123 129.621 329.633 129.84 329.973 130.191C330.316 130.543 330.488 131.004 330.488 131.574C330.488 132.07 330.371 132.51 330.137 132.893C329.906 133.275 329.551 133.576 329.07 133.795C328.594 134.01 327.982 134.117 327.236 134.117C326.783 134.117 326.363 134.08 325.977 134.006C325.594 133.936 325.227 133.816 324.875 133.648V132.734C325.23 132.91 325.617 133.049 326.035 133.15C326.453 133.248 326.857 133.297 327.248 133.297C328.029 133.297 328.594 133.143 328.941 132.834C329.289 132.521 329.463 132.096 329.463 131.557C329.463 131.186 329.365 130.887 329.17 130.66C328.979 130.43 328.701 130.262 328.338 130.156C327.979 130.047 327.545 129.992 327.037 129.992H326.182V129.16H327.043C327.508 129.16 327.902 129.092 328.227 128.955C328.551 128.818 328.797 128.627 328.965 128.381C329.137 128.131 329.223 127.836 329.223 127.496C329.223 127.062 329.078 126.729 328.789 126.494C328.5 126.256 328.107 126.137 327.611 126.137C327.307 126.137 327.029 126.168 326.779 126.23C326.529 126.293 326.295 126.379 326.076 126.488C325.857 126.598 325.639 126.725 325.42 126.869L324.928 126.201C325.24 125.959 325.621 125.75 326.07 125.574C326.52 125.398 327.029 125.311 327.6 125.311C328.475 125.311 329.131 125.51 329.568 125.908C330.006 126.307 330.225 126.814 330.225 127.432ZM334.502 128.762C335.084 128.762 335.59 128.861 336.02 129.061C336.449 129.256 336.781 129.541 337.016 129.916C337.254 130.291 337.373 130.746 337.373 131.281C337.373 131.867 337.246 132.373 336.992 132.799C336.738 133.221 336.373 133.547 335.896 133.777C335.42 134.004 334.85 134.117 334.186 134.117C333.74 134.117 333.326 134.078 332.943 134C332.561 133.922 332.238 133.805 331.977 133.648V132.723C332.262 132.895 332.607 133.031 333.014 133.133C333.42 133.234 333.814 133.285 334.197 133.285C334.631 133.285 335.01 133.217 335.334 133.08C335.662 132.939 335.916 132.729 336.096 132.447C336.279 132.162 336.371 131.805 336.371 131.375C336.371 130.805 336.195 130.365 335.844 130.057C335.496 129.744 334.945 129.588 334.191 129.588C333.949 129.588 333.684 129.607 333.395 129.646C333.105 129.686 332.867 129.729 332.68 129.775L332.188 129.453L332.516 125.434H336.775V126.324H333.348L333.131 128.908C333.279 128.877 333.471 128.846 333.705 128.814C333.939 128.779 334.205 128.762 334.502 128.762Z" fill="#161616"/>
<rect x="381" y="147" width="1" height="37" fill="black" fill-opacity="0.15"/>
<path d="M291.699 171L295.215 163.324H290.545V162.434H296.258V163.184L292.766 171H291.699ZM303.5 169.014H302.217V171H301.268V169.014H297.125V168.193L301.203 162.387H302.217V168.135H303.5V169.014ZM301.268 168.135V165.334C301.268 165.119 301.27 164.926 301.273 164.754C301.277 164.578 301.283 164.416 301.291 164.268C301.299 164.115 301.305 163.971 301.309 163.834C301.316 163.697 301.322 163.562 301.326 163.43H301.279C301.205 163.586 301.119 163.752 301.021 163.928C300.928 164.1 300.832 164.254 300.734 164.391L298.092 168.135H301.268ZM310.367 169.014H309.084V171H308.135V169.014H303.992V168.193L308.07 162.387H309.084V168.135H310.367V169.014ZM308.135 168.135V165.334C308.135 165.119 308.137 164.926 308.141 164.754C308.145 164.578 308.15 164.416 308.158 164.268C308.166 164.115 308.172 163.971 308.176 163.834C308.184 163.697 308.189 163.562 308.193 163.43H308.146C308.072 163.586 307.986 163.752 307.889 163.928C307.795 164.1 307.699 164.254 307.602 164.391L304.959 168.135H308.135ZM316.854 166.705C316.854 167.4 316.801 168.021 316.695 168.568C316.59 169.115 316.424 169.578 316.197 169.957C315.971 170.336 315.678 170.625 315.318 170.824C314.959 171.02 314.527 171.117 314.023 171.117C313.387 171.117 312.859 170.943 312.441 170.596C312.027 170.248 311.717 169.746 311.51 169.09C311.307 168.43 311.205 167.635 311.205 166.705C311.205 165.791 311.297 165.006 311.48 164.35C311.668 163.689 311.969 163.184 312.383 162.832C312.797 162.477 313.344 162.299 314.023 162.299C314.668 162.299 315.199 162.475 315.617 162.826C316.035 163.174 316.346 163.678 316.549 164.338C316.752 164.994 316.854 165.783 316.854 166.705ZM312.184 166.705C312.184 167.502 312.244 168.166 312.365 168.697C312.486 169.229 312.682 169.627 312.951 169.893C313.225 170.154 313.582 170.285 314.023 170.285C314.465 170.285 314.82 170.154 315.09 169.893C315.363 169.631 315.561 169.234 315.682 168.703C315.807 168.172 315.869 167.506 315.869 166.705C315.869 165.92 315.809 165.264 315.688 164.736C315.566 164.205 315.371 163.807 315.102 163.541C314.832 163.271 314.473 163.137 314.023 163.137C313.574 163.137 313.215 163.271 312.945 163.541C312.676 163.807 312.48 164.205 312.359 164.736C312.242 165.264 312.184 165.92 312.184 166.705ZM323.674 171H318.061V170.186L320.352 167.859C320.777 167.43 321.135 167.047 321.424 166.711C321.717 166.375 321.939 166.045 322.092 165.721C322.244 165.393 322.32 165.033 322.32 164.643C322.32 164.158 322.176 163.789 321.887 163.535C321.602 163.277 321.225 163.148 320.756 163.148C320.346 163.148 319.982 163.219 319.666 163.359C319.35 163.5 319.025 163.699 318.693 163.957L318.172 163.301C318.398 163.109 318.645 162.939 318.91 162.791C319.18 162.643 319.467 162.525 319.771 162.439C320.08 162.354 320.408 162.311 320.756 162.311C321.283 162.311 321.738 162.402 322.121 162.586C322.504 162.77 322.799 163.031 323.006 163.371C323.217 163.711 323.322 164.115 323.322 164.584C323.322 165.037 323.232 165.459 323.053 165.85C322.873 166.236 322.621 166.621 322.297 167.004C321.973 167.383 321.594 167.785 321.16 168.211L319.297 170.068V170.109H323.674V171ZM330.225 164.432C330.225 164.814 330.15 165.146 330.002 165.428C329.854 165.709 329.646 165.939 329.381 166.119C329.115 166.295 328.803 166.418 328.443 166.488V166.535C329.123 166.621 329.633 166.84 329.973 167.191C330.316 167.543 330.488 168.004 330.488 168.574C330.488 169.07 330.371 169.51 330.137 169.893C329.906 170.275 329.551 170.576 329.07 170.795C328.594 171.01 327.982 171.117 327.236 171.117C326.783 171.117 326.363 171.08 325.977 171.006C325.594 170.936 325.227 170.816 324.875 170.648V169.734C325.23 169.91 325.617 170.049 326.035 170.15C326.453 170.248 326.857 170.297 327.248 170.297C328.029 170.297 328.594 170.143 328.941 169.834C329.289 169.521 329.463 169.096 329.463 168.557C329.463 168.186 329.365 167.887 329.17 167.66C328.979 167.43 328.701 167.262 328.338 167.156C327.979 167.047 327.545 166.992 327.037 166.992H326.182V166.16H327.043C327.508 166.16 327.902 166.092 328.227 165.955C328.551 165.818 328.797 165.627 328.965 165.381C329.137 165.131 329.223 164.836 329.223 164.496C329.223 164.062 329.078 163.729 328.789 163.494C328.5 163.256 328.107 163.137 327.611 163.137C327.307 163.137 327.029 163.168 326.779 163.23C326.529 163.293 326.295 163.379 326.076 163.488C325.857 163.598 325.639 163.725 325.42 163.869L324.928 163.201C325.24 162.959 325.621 162.75 326.07 162.574C326.52 162.398 327.029 162.311 327.6 162.311C328.475 162.311 329.131 162.51 329.568 162.908C330.006 163.307 330.225 163.814 330.225 164.432ZM334.502 165.762C335.084 165.762 335.59 165.861 336.02 166.061C336.449 166.256 336.781 166.541 337.016 166.916C337.254 167.291 337.373 167.746 337.373 168.281C337.373 168.867 337.246 169.373 336.992 169.799C336.738 170.221 336.373 170.547 335.896 170.777C335.42 171.004 334.85 171.117 334.186 171.117C333.74 171.117 333.326 171.078 332.943 171C332.561 170.922 332.238 170.805 331.977 170.648V169.723C332.262 169.895 332.607 170.031 333.014 170.133C333.42 170.234 333.814 170.285 334.197 170.285C334.631 170.285 335.01 170.217 335.334 170.08C335.662 169.939 335.916 169.729 336.096 169.447C336.279 169.162 336.371 168.805 336.371 168.375C336.371 167.805 336.195 167.365 335.844 167.057C335.496 166.744 334.945 166.588 334.191 166.588C333.949 166.588 333.684 166.607 333.395 166.646C333.105 166.686 332.867 166.729 332.68 166.775L332.188 166.453L332.516 162.434H336.775V163.324H333.348L333.131 165.908C333.279 165.877 333.471 165.846 333.705 165.814C333.939 165.779 334.205 165.762 334.502 165.762Z" fill="#161616"/>
<rect x="481" y="48" width="1" height="11" fill="black" fill-opacity="0.15"/>
<path d="M396.854 50.1475L394.109 58H392.745L390 50.1475H391.321L392.976 55.0674C393.026 55.2106 393.079 55.3843 393.137 55.5884C393.198 55.7925 393.253 55.9984 393.303 56.2061C393.357 56.4137 393.398 56.5981 393.427 56.7593C393.455 56.5981 393.495 56.4137 393.545 56.2061C393.599 55.9984 393.654 55.7925 393.711 55.5884C393.769 55.3843 393.822 55.2088 393.873 55.062L395.532 50.1475H396.854ZM400.087 51.9414C400.839 51.9414 401.406 52.1079 401.79 52.4409C402.176 52.7739 402.37 53.2931 402.37 53.9985V58H401.473L401.231 57.1567H401.188C401.02 57.3716 400.846 57.5488 400.667 57.6885C400.488 57.8281 400.28 57.932 400.044 58C399.811 58.0716 399.527 58.1074 399.19 58.1074C398.835 58.1074 398.519 58.043 398.239 57.9141C397.96 57.7816 397.74 57.5811 397.579 57.3125C397.417 57.0439 397.337 56.7038 397.337 56.292C397.337 55.6797 397.564 55.2196 398.019 54.9116C398.477 54.6037 399.168 54.4336 400.092 54.4014L401.124 54.3638V54.0522C401.124 53.6405 401.027 53.3468 400.833 53.1714C400.644 52.9959 400.375 52.9082 400.028 52.9082C399.731 52.9082 399.442 52.9512 399.163 53.0371C398.884 53.123 398.612 53.2287 398.347 53.354L397.938 52.4624C398.229 52.3084 398.558 52.1831 398.927 52.0864C399.299 51.9897 399.686 51.9414 400.087 51.9414ZM401.118 55.1587L400.35 55.1855C399.72 55.207 399.278 55.3145 399.023 55.5078C398.769 55.7012 398.642 55.9661 398.642 56.3027C398.642 56.5964 398.73 56.8112 398.905 56.9473C399.081 57.0798 399.312 57.146 399.598 57.146C400.035 57.146 400.397 57.0225 400.683 56.7754C400.973 56.5247 401.118 56.1577 401.118 55.6743V55.1587ZM405.404 58H404.137V49.6426H405.404V58ZM412.392 52.0542V58H411.398L411.227 57.1997H411.157C411.031 57.4038 410.872 57.5739 410.679 57.71C410.485 57.8424 410.271 57.9409 410.034 58.0054C409.798 58.0734 409.549 58.1074 409.288 58.1074C408.84 58.1074 408.457 58.0322 408.138 57.8818C407.823 57.7279 407.581 57.4915 407.413 57.1729C407.245 56.8542 407.161 56.4424 407.161 55.9375V52.0542H408.428V55.7012C408.428 56.1631 408.521 56.5086 408.708 56.7378C408.897 56.967 409.191 57.0815 409.588 57.0815C409.972 57.0815 410.276 57.0028 410.501 56.8452C410.727 56.6877 410.886 56.4549 410.979 56.147C411.076 55.839 411.125 55.4613 411.125 55.0137V52.0542H412.392ZM416.571 51.9414C417.101 51.9414 417.556 52.0506 417.935 52.269C418.315 52.4875 418.606 52.7972 418.811 53.1982C419.015 53.5993 419.117 54.0791 419.117 54.6377V55.3145H415.147C415.162 55.891 415.316 56.335 415.609 56.6465C415.907 56.958 416.322 57.1138 416.855 57.1138C417.235 57.1138 417.575 57.078 417.876 57.0063C418.18 56.9312 418.494 56.8219 418.816 56.6787V57.7046C418.519 57.8442 418.216 57.9463 417.908 58.0107C417.6 58.0752 417.231 58.1074 416.802 58.1074C416.218 58.1074 415.704 57.9946 415.26 57.769C414.82 57.5399 414.474 57.1997 414.224 56.7485C413.977 56.2974 413.853 55.737 413.853 55.0674C413.853 54.4014 413.966 53.8356 414.191 53.3701C414.417 52.9046 414.734 52.5501 415.142 52.3066C415.55 52.0632 416.027 51.9414 416.571 51.9414ZM416.571 52.8921C416.173 52.8921 415.851 53.021 415.604 53.2788C415.361 53.5366 415.217 53.9144 415.174 54.4121H417.881C417.878 54.1149 417.828 53.8517 417.731 53.6226C417.638 53.3934 417.495 53.2144 417.301 53.0854C417.111 52.9565 416.868 52.8921 416.571 52.8921ZM425.396 58.1074C424.687 58.1074 424.117 57.8496 423.688 57.334C423.261 56.8148 423.048 56.0503 423.048 55.0405C423.048 54.02 423.265 53.2484 423.698 52.7256C424.135 52.2028 424.71 51.9414 425.422 51.9414C425.723 51.9414 425.986 51.9826 426.212 52.0649C426.438 52.1437 426.631 52.2511 426.792 52.3872C426.957 52.5233 427.096 52.6755 427.211 52.8438H427.27C427.252 52.7327 427.231 52.5734 427.206 52.3657C427.184 52.1545 427.173 51.9593 427.173 51.7803V49.6426H428.441V58H427.453L427.227 57.189H427.173C427.066 57.3608 426.93 57.5166 426.765 57.6562C426.604 57.7923 426.411 57.9015 426.185 57.9839C425.963 58.0662 425.7 58.1074 425.396 58.1074ZM425.75 57.0815C426.291 57.0815 426.672 56.9258 426.894 56.6143C427.116 56.3027 427.231 55.8354 427.238 55.2124V55.0459C427.238 54.3799 427.13 53.8696 426.916 53.5151C426.701 53.1571 426.309 52.978 425.739 52.978C425.285 52.978 424.937 53.1624 424.697 53.5312C424.461 53.8965 424.343 54.4067 424.343 55.062C424.343 55.7173 424.461 56.2186 424.697 56.5659C424.937 56.9097 425.288 57.0815 425.75 57.0815ZM432.582 51.9414C433.334 51.9414 433.902 52.1079 434.285 52.4409C434.671 52.7739 434.865 53.2931 434.865 53.9985V58H433.968L433.726 57.1567H433.683C433.515 57.3716 433.341 57.5488 433.162 57.6885C432.983 57.8281 432.775 57.932 432.539 58C432.306 58.0716 432.022 58.1074 431.685 58.1074C431.331 58.1074 431.014 58.043 430.734 57.9141C430.455 57.7816 430.235 57.5811 430.074 57.3125C429.913 57.0439 429.832 56.7038 429.832 56.292C429.832 55.6797 430.059 55.2196 430.514 54.9116C430.972 54.6037 431.664 54.4336 432.587 54.4014L433.619 54.3638V54.0522C433.619 53.6405 433.522 53.3468 433.329 53.1714C433.139 52.9959 432.87 52.9082 432.523 52.9082C432.226 52.9082 431.938 52.9512 431.658 53.0371C431.379 53.123 431.107 53.2287 430.842 53.354L430.434 52.4624C430.724 52.3084 431.053 52.1831 431.422 52.0864C431.794 51.9897 432.181 51.9414 432.582 51.9414ZM433.613 55.1587L432.845 55.1855C432.215 55.207 431.773 55.3145 431.519 55.5078C431.264 55.7012 431.137 55.9661 431.137 56.3027C431.137 56.5964 431.225 56.8112 431.4 56.9473C431.576 57.0798 431.807 57.146 432.093 57.146C432.53 57.146 432.892 57.0225 433.178 56.7754C433.468 56.5247 433.613 56.1577 433.613 55.6743V55.1587ZM438.845 57.0869C439.009 57.0869 439.172 57.0726 439.333 57.0439C439.495 57.0117 439.641 56.9741 439.774 56.9312V57.8872C439.634 57.9481 439.453 58 439.231 58.043C439.009 58.0859 438.778 58.1074 438.539 58.1074C438.202 58.1074 437.899 58.0519 437.631 57.9409C437.362 57.8263 437.149 57.6312 436.992 57.3555C436.834 57.0798 436.755 56.6984 436.755 56.2114V53.0156H435.944V52.4517L436.814 52.0059L437.228 50.7329H438.023V52.0542H439.726V53.0156H438.023V56.1953C438.023 56.4961 438.098 56.7199 438.249 56.8667C438.399 57.0135 438.598 57.0869 438.845 57.0869ZM443.351 51.9414C443.881 51.9414 444.336 52.0506 444.715 52.269C445.095 52.4875 445.387 52.7972 445.591 53.1982C445.795 53.5993 445.897 54.0791 445.897 54.6377V55.3145H441.928C441.942 55.891 442.096 56.335 442.39 56.6465C442.687 56.958 443.102 57.1138 443.636 57.1138C444.015 57.1138 444.355 57.078 444.656 57.0063C444.961 56.9312 445.274 56.8219 445.596 56.6787V57.7046C445.299 57.8442 444.996 57.9463 444.688 58.0107C444.381 58.0752 444.012 58.1074 443.582 58.1074C442.998 58.1074 442.485 57.9946 442.041 57.769C441.6 57.5399 441.255 57.1997 441.004 56.7485C440.757 56.2974 440.633 55.737 440.633 55.0674C440.633 54.4014 440.746 53.8356 440.972 53.3701C441.197 52.9046 441.514 52.5501 441.922 52.3066C442.331 52.0632 442.807 51.9414 443.351 51.9414ZM443.351 52.8921C442.954 52.8921 442.631 53.021 442.384 53.2788C442.141 53.5366 441.998 53.9144 441.955 54.4121H444.662C444.658 54.1149 444.608 53.8517 444.511 53.6226C444.418 53.3934 444.275 53.2144 444.082 53.0854C443.892 52.9565 443.648 52.8921 443.351 52.8921Z" fill="#61656E"/>
<rect x="481" y="73" width="1" height="37" fill="black" fill-opacity="0.15"/>
<path d="M394.213 97H393.264V90.9297C393.264 90.6992 393.264 90.502 393.264 90.3379C393.268 90.1699 393.271 90.0176 393.275 89.8809C393.283 89.7402 393.293 89.5977 393.305 89.4531C393.184 89.5781 393.07 89.6855 392.965 89.7754C392.859 89.8613 392.729 89.9688 392.572 90.0977L391.594 90.8828L391.084 90.2207L393.404 88.4336H394.213V97ZM402.756 90.4316C402.756 90.8145 402.682 91.1465 402.533 91.4277C402.385 91.709 402.178 91.9395 401.912 92.1191C401.646 92.2949 401.334 92.418 400.975 92.4883V92.5352C401.654 92.6211 402.164 92.8398 402.504 93.1914C402.848 93.543 403.02 94.0039 403.02 94.5742C403.02 95.0703 402.902 95.5098 402.668 95.8926C402.438 96.2754 402.082 96.5762 401.602 96.7949C401.125 97.0098 400.514 97.1172 399.768 97.1172C399.314 97.1172 398.895 97.0801 398.508 97.0059C398.125 96.9355 397.758 96.8164 397.406 96.6484V95.7344C397.762 95.9102 398.148 96.0488 398.566 96.1504C398.984 96.248 399.389 96.2969 399.779 96.2969C400.561 96.2969 401.125 96.1426 401.473 95.834C401.82 95.5215 401.994 95.0957 401.994 94.5566C401.994 94.1855 401.896 93.8867 401.701 93.6602C401.51 93.4297 401.232 93.2617 400.869 93.1562C400.51 93.0469 400.076 92.9922 399.568 92.9922H398.713V92.1602H399.574C400.039 92.1602 400.434 92.0918 400.758 91.9551C401.082 91.8184 401.328 91.627 401.496 91.3809C401.668 91.1309 401.754 90.8359 401.754 90.4961C401.754 90.0625 401.609 89.7285 401.32 89.4941C401.031 89.2559 400.639 89.1367 400.143 89.1367C399.838 89.1367 399.561 89.168 399.311 89.2305C399.061 89.293 398.826 89.3789 398.607 89.4883C398.389 89.5977 398.17 89.7246 397.951 89.8691L397.459 89.2012C397.771 88.959 398.152 88.75 398.602 88.5742C399.051 88.3984 399.561 88.3105 400.131 88.3105C401.006 88.3105 401.662 88.5098 402.1 88.9082C402.537 89.3066 402.756 89.8145 402.756 90.4316ZM415.453 92.7051C415.453 93.3652 415.369 93.9668 415.201 94.5098C415.033 95.0488 414.783 95.5137 414.451 95.9043C414.123 96.291 413.715 96.5898 413.227 96.8008C412.738 97.0117 412.172 97.1172 411.527 97.1172C410.863 97.1172 410.283 97.0117 409.787 96.8008C409.295 96.5898 408.885 96.2891 408.557 95.8984C408.232 95.5078 407.988 95.041 407.824 94.498C407.664 93.9551 407.584 93.3535 407.584 92.6934C407.584 91.8184 407.729 91.0508 408.018 90.3906C408.307 89.7305 408.744 89.2168 409.33 88.8496C409.92 88.4824 410.658 88.2988 411.545 88.2988C412.393 88.2988 413.105 88.4805 413.684 88.8438C414.266 89.207 414.705 89.7188 415.002 90.3789C415.303 91.0352 415.453 91.8105 415.453 92.7051ZM408.633 92.7051C408.633 93.4316 408.736 94.0605 408.943 94.5918C409.15 95.123 409.467 95.5332 409.893 95.8223C410.322 96.1113 410.867 96.2559 411.527 96.2559C412.191 96.2559 412.734 96.1113 413.156 95.8223C413.582 95.5332 413.896 95.123 414.1 94.5918C414.303 94.0605 414.404 93.4316 414.404 92.7051C414.404 91.5996 414.172 90.7363 413.707 90.1152C413.246 89.4902 412.525 89.1777 411.545 89.1777C410.881 89.1777 410.334 89.3203 409.904 89.6055C409.475 89.8906 409.154 90.2969 408.943 90.8242C408.736 91.3477 408.633 91.9746 408.633 92.7051ZM419.789 97.1172C419.211 97.1172 418.701 96.998 418.26 96.7598C417.818 96.5215 417.475 96.1582 417.229 95.6699C416.982 95.1816 416.859 94.5664 416.859 93.8242C416.859 93.0469 416.988 92.4121 417.246 91.9199C417.508 91.4238 417.867 91.0566 418.324 90.8184C418.781 90.5801 419.301 90.4609 419.883 90.4609C420.203 90.4609 420.512 90.4941 420.809 90.5605C421.109 90.623 421.355 90.7031 421.547 90.8008L421.254 91.6152C421.059 91.5371 420.832 91.4668 420.574 91.4043C420.32 91.3418 420.082 91.3105 419.859 91.3105C419.414 91.3105 419.043 91.4062 418.746 91.5977C418.453 91.7891 418.232 92.0703 418.084 92.4414C417.939 92.8125 417.867 93.2695 417.867 93.8125C417.867 94.332 417.938 94.7754 418.078 95.1426C418.223 95.5098 418.436 95.791 418.717 95.9863C419.002 96.1777 419.357 96.2734 419.783 96.2734C420.123 96.2734 420.43 96.2383 420.703 96.168C420.977 96.0938 421.225 96.0078 421.447 95.9102V96.7773C421.232 96.8867 420.992 96.9707 420.727 97.0293C420.465 97.0879 420.152 97.1172 419.789 97.1172ZM425.045 96.3203C425.205 96.3203 425.369 96.3066 425.537 96.2793C425.705 96.252 425.842 96.2188 425.947 96.1797V96.9355C425.834 96.9863 425.676 97.0293 425.473 97.0645C425.273 97.0996 425.078 97.1172 424.887 97.1172C424.547 97.1172 424.238 97.0586 423.961 96.9414C423.684 96.8203 423.461 96.6172 423.293 96.332C423.129 96.0469 423.047 95.6523 423.047 95.1484V91.3398H422.133V90.8652L423.053 90.4844L423.439 89.0898H424.025V90.5781H425.906V91.3398H424.025V95.1191C424.025 95.5215 424.117 95.8223 424.301 96.0215C424.488 96.2207 424.736 96.3203 425.045 96.3203ZM435.545 97H429.932V96.1855L432.223 93.8594C432.648 93.4297 433.006 93.0469 433.295 92.7109C433.588 92.375 433.811 92.0449 433.963 91.7207C434.115 91.3926 434.191 91.0332 434.191 90.6426C434.191 90.1582 434.047 89.7891 433.758 89.5352C433.473 89.2773 433.096 89.1484 432.627 89.1484C432.217 89.1484 431.854 89.2188 431.537 89.3594C431.221 89.5 430.896 89.6992 430.564 89.957L430.043 89.3008C430.27 89.1094 430.516 88.9395 430.781 88.791C431.051 88.6426 431.338 88.5254 431.643 88.4395C431.951 88.3535 432.279 88.3105 432.627 88.3105C433.154 88.3105 433.609 88.4023 433.992 88.5859C434.375 88.7695 434.67 89.0312 434.877 89.3711C435.088 89.7109 435.193 90.1152 435.193 90.584C435.193 91.0371 435.104 91.459 434.924 91.8496C434.744 92.2363 434.492 92.6211 434.168 93.0039C433.844 93.3828 433.465 93.7852 433.031 94.2109L431.168 96.0684V96.1094H435.545V97ZM442.459 92.7051C442.459 93.4004 442.406 94.0215 442.301 94.5684C442.195 95.1152 442.029 95.5781 441.803 95.957C441.576 96.3359 441.283 96.625 440.924 96.8242C440.564 97.0195 440.133 97.1172 439.629 97.1172C438.992 97.1172 438.465 96.9434 438.047 96.5957C437.633 96.248 437.322 95.7461 437.115 95.0898C436.912 94.4297 436.811 93.6348 436.811 92.7051C436.811 91.791 436.902 91.0059 437.086 90.3496C437.273 89.6895 437.574 89.1836 437.988 88.832C438.402 88.4766 438.949 88.2988 439.629 88.2988C440.273 88.2988 440.805 88.4746 441.223 88.8262C441.641 89.1738 441.951 89.6777 442.154 90.3379C442.357 90.9941 442.459 91.7832 442.459 92.7051ZM437.789 92.7051C437.789 93.502 437.85 94.166 437.971 94.6973C438.092 95.2285 438.287 95.627 438.557 95.8926C438.83 96.1543 439.188 96.2852 439.629 96.2852C440.07 96.2852 440.426 96.1543 440.695 95.8926C440.969 95.6309 441.166 95.2344 441.287 94.7031C441.412 94.1719 441.475 93.5059 441.475 92.7051C441.475 91.9199 441.414 91.2637 441.293 90.7363C441.172 90.2051 440.977 89.8066 440.707 89.541C440.438 89.2715 440.078 89.1367 439.629 89.1367C439.18 89.1367 438.82 89.2715 438.551 89.541C438.281 89.8066 438.086 90.2051 437.965 90.7363C437.848 91.2637 437.789 91.9199 437.789 92.7051ZM449.279 97H443.666V96.1855L445.957 93.8594C446.383 93.4297 446.74 93.0469 447.029 92.7109C447.322 92.375 447.545 92.0449 447.697 91.7207C447.85 91.3926 447.926 91.0332 447.926 90.6426C447.926 90.1582 447.781 89.7891 447.492 89.5352C447.207 89.2773 446.83 89.1484 446.361 89.1484C445.951 89.1484 445.588 89.2188 445.271 89.3594C444.955 89.5 444.631 89.6992 444.299 89.957L443.777 89.3008C444.004 89.1094 444.25 88.9395 444.516 88.791C444.785 88.6426 445.072 88.5254 445.377 88.4395C445.686 88.3535 446.014 88.3105 446.361 88.3105C446.889 88.3105 447.344 88.4023 447.727 88.5859C448.109 88.7695 448.404 89.0312 448.611 89.3711C448.822 89.7109 448.928 90.1152 448.928 90.584C448.928 91.0371 448.838 91.459 448.658 91.8496C448.479 92.2363 448.227 92.6211 447.902 93.0039C447.578 93.3828 447.199 93.7852 446.766 94.2109L444.902 96.0684V96.1094H449.279V97ZM455.83 90.4316C455.83 90.8145 455.756 91.1465 455.607 91.4277C455.459 91.709 455.252 91.9395 454.986 92.1191C454.721 92.2949 454.408 92.418 454.049 92.4883V92.5352C454.729 92.6211 455.238 92.8398 455.578 93.1914C455.922 93.543 456.094 94.0039 456.094 94.5742C456.094 95.0703 455.977 95.5098 455.742 95.8926C455.512 96.2754 455.156 96.5762 454.676 96.7949C454.199 97.0098 453.588 97.1172 452.842 97.1172C452.389 97.1172 451.969 97.0801 451.582 97.0059C451.199 96.9355 450.832 96.8164 450.48 96.6484V95.7344C450.836 95.9102 451.223 96.0488 451.641 96.1504C452.059 96.248 452.463 96.2969 452.854 96.2969C453.635 96.2969 454.199 96.1426 454.547 95.834C454.895 95.5215 455.068 95.0957 455.068 94.5566C455.068 94.1855 454.971 93.8867 454.775 93.6602C454.584 93.4297 454.307 93.2617 453.943 93.1562C453.584 93.0469 453.15 92.9922 452.643 92.9922H451.787V92.1602H452.648C453.113 92.1602 453.508 92.0918 453.832 91.9551C454.156 91.8184 454.402 91.627 454.57 91.3809C454.742 91.1309 454.828 90.8359 454.828 90.4961C454.828 90.0625 454.684 89.7285 454.395 89.4941C454.105 89.2559 453.713 89.1367 453.217 89.1367C452.912 89.1367 452.635 89.168 452.385 89.2305C452.135 89.293 451.9 89.3789 451.682 89.4883C451.463 89.5977 451.244 89.7246 451.025 89.8691L450.533 89.2012C450.846 88.959 451.227 88.75 451.676 88.5742C452.125 88.3984 452.635 88.3105 453.205 88.3105C454.08 88.3105 454.736 88.5098 455.174 88.9082C455.611 89.3066 455.83 89.8145 455.83 90.4316Z" fill="#161616"/>
<rect x="481" y="110" width="1" height="37" fill="black" fill-opacity="0.15"/>
<path d="M394.213 134H393.264V127.93C393.264 127.699 393.264 127.502 393.264 127.338C393.268 127.17 393.271 127.018 393.275 126.881C393.283 126.74 393.293 126.598 393.305 126.453C393.184 126.578 393.07 126.686 392.965 126.775C392.859 126.861 392.729 126.969 392.572 127.098L391.594 127.883L391.084 127.221L393.404 125.434H394.213V134ZM402.756 127.432C402.756 127.814 402.682 128.146 402.533 128.428C402.385 128.709 402.178 128.939 401.912 129.119C401.646 129.295 401.334 129.418 400.975 129.488V129.535C401.654 129.621 402.164 129.84 402.504 130.191C402.848 130.543 403.02 131.004 403.02 131.574C403.02 132.07 402.902 132.51 402.668 132.893C402.438 133.275 402.082 133.576 401.602 133.795C401.125 134.01 400.514 134.117 399.768 134.117C399.314 134.117 398.895 134.08 398.508 134.006C398.125 133.936 397.758 133.816 397.406 133.648V132.734C397.762 132.91 398.148 133.049 398.566 133.15C398.984 133.248 399.389 133.297 399.779 133.297C400.561 133.297 401.125 133.143 401.473 132.834C401.82 132.521 401.994 132.096 401.994 131.557C401.994 131.186 401.896 130.887 401.701 130.66C401.51 130.43 401.232 130.262 400.869 130.156C400.51 130.047 400.076 129.992 399.568 129.992H398.713V129.16H399.574C400.039 129.16 400.434 129.092 400.758 128.955C401.082 128.818 401.328 128.627 401.496 128.381C401.668 128.131 401.754 127.836 401.754 127.496C401.754 127.062 401.609 126.729 401.32 126.494C401.031 126.256 400.639 126.137 400.143 126.137C399.838 126.137 399.561 126.168 399.311 126.23C399.061 126.293 398.826 126.379 398.607 126.488C398.389 126.598 398.17 126.725 397.951 126.869L397.459 126.201C397.771 125.959 398.152 125.75 398.602 125.574C399.051 125.398 399.561 125.311 400.131 125.311C401.006 125.311 401.662 125.51 402.1 125.908C402.537 126.307 402.756 126.814 402.756 127.432ZM415.453 129.705C415.453 130.365 415.369 130.967 415.201 131.51C415.033 132.049 414.783 132.514 414.451 132.904C414.123 133.291 413.715 133.59 413.227 133.801C412.738 134.012 412.172 134.117 411.527 134.117C410.863 134.117 410.283 134.012 409.787 133.801C409.295 133.59 408.885 133.289 408.557 132.898C408.232 132.508 407.988 132.041 407.824 131.498C407.664 130.955 407.584 130.354 407.584 129.693C407.584 128.818 407.729 128.051 408.018 127.391C408.307 126.73 408.744 126.217 409.33 125.85C409.92 125.482 410.658 125.299 411.545 125.299C412.393 125.299 413.105 125.48 413.684 125.844C414.266 126.207 414.705 126.719 415.002 127.379C415.303 128.035 415.453 128.811 415.453 129.705ZM408.633 129.705C408.633 130.432 408.736 131.061 408.943 131.592C409.15 132.123 409.467 132.533 409.893 132.822C410.322 133.111 410.867 133.256 411.527 133.256C412.191 133.256 412.734 133.111 413.156 132.822C413.582 132.533 413.896 132.123 414.1 131.592C414.303 131.061 414.404 130.432 414.404 129.705C414.404 128.6 414.172 127.736 413.707 127.115C413.246 126.49 412.525 126.178 411.545 126.178C410.881 126.178 410.334 126.32 409.904 126.605C409.475 126.891 409.154 127.297 408.943 127.824C408.736 128.348 408.633 128.975 408.633 129.705ZM419.789 134.117C419.211 134.117 418.701 133.998 418.26 133.76C417.818 133.521 417.475 133.158 417.229 132.67C416.982 132.182 416.859 131.566 416.859 130.824C416.859 130.047 416.988 129.412 417.246 128.92C417.508 128.424 417.867 128.057 418.324 127.818C418.781 127.58 419.301 127.461 419.883 127.461C420.203 127.461 420.512 127.494 420.809 127.561C421.109 127.623 421.355 127.703 421.547 127.801L421.254 128.615C421.059 128.537 420.832 128.467 420.574 128.404C420.32 128.342 420.082 128.311 419.859 128.311C419.414 128.311 419.043 128.406 418.746 128.598C418.453 128.789 418.232 129.07 418.084 129.441C417.939 129.812 417.867 130.27 417.867 130.812C417.867 131.332 417.938 131.775 418.078 132.143C418.223 132.51 418.436 132.791 418.717 132.986C419.002 133.178 419.357 133.273 419.783 133.273C420.123 133.273 420.43 133.238 420.703 133.168C420.977 133.094 421.225 133.008 421.447 132.91V133.777C421.232 133.887 420.992 133.971 420.727 134.029C420.465 134.088 420.152 134.117 419.789 134.117ZM425.045 133.32C425.205 133.32 425.369 133.307 425.537 133.279C425.705 133.252 425.842 133.219 425.947 133.18V133.936C425.834 133.986 425.676 134.029 425.473 134.064C425.273 134.1 425.078 134.117 424.887 134.117C424.547 134.117 424.238 134.059 423.961 133.941C423.684 133.82 423.461 133.617 423.293 133.332C423.129 133.047 423.047 132.652 423.047 132.148V128.34H422.133V127.865L423.053 127.484L423.439 126.09H424.025V127.578H425.906V128.34H424.025V132.119C424.025 132.521 424.117 132.822 424.301 133.021C424.488 133.221 424.736 133.32 425.045 133.32ZM435.545 134H429.932V133.186L432.223 130.859C432.648 130.43 433.006 130.047 433.295 129.711C433.588 129.375 433.811 129.045 433.963 128.721C434.115 128.393 434.191 128.033 434.191 127.643C434.191 127.158 434.047 126.789 433.758 126.535C433.473 126.277 433.096 126.148 432.627 126.148C432.217 126.148 431.854 126.219 431.537 126.359C431.221 126.5 430.896 126.699 430.564 126.957L430.043 126.301C430.27 126.109 430.516 125.939 430.781 125.791C431.051 125.643 431.338 125.525 431.643 125.439C431.951 125.354 432.279 125.311 432.627 125.311C433.154 125.311 433.609 125.402 433.992 125.586C434.375 125.77 434.67 126.031 434.877 126.371C435.088 126.711 435.193 127.115 435.193 127.584C435.193 128.037 435.104 128.459 434.924 128.85C434.744 129.236 434.492 129.621 434.168 130.004C433.844 130.383 433.465 130.785 433.031 131.211L431.168 133.068V133.109H435.545V134ZM442.459 129.705C442.459 130.4 442.406 131.021 442.301 131.568C442.195 132.115 442.029 132.578 441.803 132.957C441.576 133.336 441.283 133.625 440.924 133.824C440.564 134.02 440.133 134.117 439.629 134.117C438.992 134.117 438.465 133.943 438.047 133.596C437.633 133.248 437.322 132.746 437.115 132.09C436.912 131.43 436.811 130.635 436.811 129.705C436.811 128.791 436.902 128.006 437.086 127.35C437.273 126.689 437.574 126.184 437.988 125.832C438.402 125.477 438.949 125.299 439.629 125.299C440.273 125.299 440.805 125.475 441.223 125.826C441.641 126.174 441.951 126.678 442.154 127.338C442.357 127.994 442.459 128.783 442.459 129.705ZM437.789 129.705C437.789 130.502 437.85 131.166 437.971 131.697C438.092 132.229 438.287 132.627 438.557 132.893C438.83 133.154 439.188 133.285 439.629 133.285C440.07 133.285 440.426 133.154 440.695 132.893C440.969 132.631 441.166 132.234 441.287 131.703C441.412 131.172 441.475 130.506 441.475 129.705C441.475 128.92 441.414 128.264 441.293 127.736C441.172 127.205 440.977 126.807 440.707 126.541C440.438 126.271 440.078 126.137 439.629 126.137C439.18 126.137 438.82 126.271 438.551 126.541C438.281 126.807 438.086 127.205 437.965 127.736C437.848 128.264 437.789 128.92 437.789 129.705ZM449.279 134H443.666V133.186L445.957 130.859C446.383 130.43 446.74 130.047 447.029 129.711C447.322 129.375 447.545 129.045 447.697 128.721C447.85 128.393 447.926 128.033 447.926 127.643C447.926 127.158 447.781 126.789 447.492 126.535C447.207 126.277 446.83 126.148 446.361 126.148C445.951 126.148 445.588 126.219 445.271 126.359C444.955 126.5 444.631 126.699 444.299 126.957L443.777 126.301C444.004 126.109 444.25 125.939 444.516 125.791C444.785 125.643 445.072 125.525 445.377 125.439C445.686 125.354 446.014 125.311 446.361 125.311C446.889 125.311 447.344 125.402 447.727 125.586C448.109 125.77 448.404 126.031 448.611 126.371C448.822 126.711 448.928 127.115 448.928 127.584C448.928 128.037 448.838 128.459 448.658 128.85C448.479 129.236 448.227 129.621 447.902 130.004C447.578 130.383 447.199 130.785 446.766 131.211L444.902 133.068V133.109H449.279V134ZM455.83 127.432C455.83 127.814 455.756 128.146 455.607 128.428C455.459 128.709 455.252 128.939 454.986 129.119C454.721 129.295 454.408 129.418 454.049 129.488V129.535C454.729 129.621 455.238 129.84 455.578 130.191C455.922 130.543 456.094 131.004 456.094 131.574C456.094 132.07 455.977 132.51 455.742 132.893C455.512 133.275 455.156 133.576 454.676 133.795C454.199 134.01 453.588 134.117 452.842 134.117C452.389 134.117 451.969 134.08 451.582 134.006C451.199 133.936 450.832 133.816 450.48 133.648V132.734C450.836 132.91 451.223 133.049 451.641 133.15C452.059 133.248 452.463 133.297 452.854 133.297C453.635 133.297 454.199 133.143 454.547 132.834C454.895 132.521 455.068 132.096 455.068 131.557C455.068 131.186 454.971 130.887 454.775 130.66C454.584 130.43 454.307 130.262 453.943 130.156C453.584 130.047 453.15 129.992 452.643 129.992H451.787V129.16H452.648C453.113 129.16 453.508 129.092 453.832 128.955C454.156 128.818 454.402 128.627 454.57 128.381C454.742 128.131 454.828 127.836 454.828 127.496C454.828 127.062 454.684 126.729 454.395 126.494C454.105 126.256 453.713 126.137 453.217 126.137C452.912 126.137 452.635 126.168 452.385 126.23C452.135 126.293 451.9 126.379 451.682 126.488C451.463 126.598 451.244 126.725 451.025 126.869L450.533 126.201C450.846 125.959 451.227 125.75 451.676 125.574C452.125 125.398 452.635 125.311 453.205 125.311C454.08 125.311 454.736 125.51 455.174 125.908C455.611 126.307 455.83 126.814 455.83 127.432Z" fill="#161616"/>
<rect x="481" y="147" width="1" height="37" fill="black" fill-opacity="0.15"/>
<path d="M394.213 171H393.264V164.93C393.264 164.699 393.264 164.502 393.264 164.338C393.268 164.17 393.271 164.018 393.275 163.881C393.283 163.74 393.293 163.598 393.305 163.453C393.184 163.578 393.07 163.686 392.965 163.775C392.859 163.861 392.729 163.969 392.572 164.098L391.594 164.883L391.084 164.221L393.404 162.434H394.213V171ZM402.756 164.432C402.756 164.814 402.682 165.146 402.533 165.428C402.385 165.709 402.178 165.939 401.912 166.119C401.646 166.295 401.334 166.418 400.975 166.488V166.535C401.654 166.621 402.164 166.84 402.504 167.191C402.848 167.543 403.02 168.004 403.02 168.574C403.02 169.07 402.902 169.51 402.668 169.893C402.438 170.275 402.082 170.576 401.602 170.795C401.125 171.01 400.514 171.117 399.768 171.117C399.314 171.117 398.895 171.08 398.508 171.006C398.125 170.936 397.758 170.816 397.406 170.648V169.734C397.762 169.91 398.148 170.049 398.566 170.15C398.984 170.248 399.389 170.297 399.779 170.297C400.561 170.297 401.125 170.143 401.473 169.834C401.82 169.521 401.994 169.096 401.994 168.557C401.994 168.186 401.896 167.887 401.701 167.66C401.51 167.43 401.232 167.262 400.869 167.156C400.51 167.047 400.076 166.992 399.568 166.992H398.713V166.16H399.574C400.039 166.16 400.434 166.092 400.758 165.955C401.082 165.818 401.328 165.627 401.496 165.381C401.668 165.131 401.754 164.836 401.754 164.496C401.754 164.062 401.609 163.729 401.32 163.494C401.031 163.256 400.639 163.137 400.143 163.137C399.838 163.137 399.561 163.168 399.311 163.23C399.061 163.293 398.826 163.379 398.607 163.488C398.389 163.598 398.17 163.725 397.951 163.869L397.459 163.201C397.771 162.959 398.152 162.75 398.602 162.574C399.051 162.398 399.561 162.311 400.131 162.311C401.006 162.311 401.662 162.51 402.1 162.908C402.537 163.307 402.756 163.814 402.756 164.432ZM415.453 166.705C415.453 167.365 415.369 167.967 415.201 168.51C415.033 169.049 414.783 169.514 414.451 169.904C414.123 170.291 413.715 170.59 413.227 170.801C412.738 171.012 412.172 171.117 411.527 171.117C410.863 171.117 410.283 171.012 409.787 170.801C409.295 170.59 408.885 170.289 408.557 169.898C408.232 169.508 407.988 169.041 407.824 168.498C407.664 167.955 407.584 167.354 407.584 166.693C407.584 165.818 407.729 165.051 408.018 164.391C408.307 163.73 408.744 163.217 409.33 162.85C409.92 162.482 410.658 162.299 411.545 162.299C412.393 162.299 413.105 162.48 413.684 162.844C414.266 163.207 414.705 163.719 415.002 164.379C415.303 165.035 415.453 165.811 415.453 166.705ZM408.633 166.705C408.633 167.432 408.736 168.061 408.943 168.592C409.15 169.123 409.467 169.533 409.893 169.822C410.322 170.111 410.867 170.256 411.527 170.256C412.191 170.256 412.734 170.111 413.156 169.822C413.582 169.533 413.896 169.123 414.1 168.592C414.303 168.061 414.404 167.432 414.404 166.705C414.404 165.6 414.172 164.736 413.707 164.115C413.246 163.49 412.525 163.178 411.545 163.178C410.881 163.178 410.334 163.32 409.904 163.605C409.475 163.891 409.154 164.297 408.943 164.824C408.736 165.348 408.633 165.975 408.633 166.705ZM419.789 171.117C419.211 171.117 418.701 170.998 418.26 170.76C417.818 170.521 417.475 170.158 417.229 169.67C416.982 169.182 416.859 168.566 416.859 167.824C416.859 167.047 416.988 166.412 417.246 165.92C417.508 165.424 417.867 165.057 418.324 164.818C418.781 164.58 419.301 164.461 419.883 164.461C420.203 164.461 420.512 164.494 420.809 164.561C421.109 164.623 421.355 164.703 421.547 164.801L421.254 165.615C421.059 165.537 420.832 165.467 420.574 165.404C420.32 165.342 420.082 165.311 419.859 165.311C419.414 165.311 419.043 165.406 418.746 165.598C418.453 165.789 418.232 166.07 418.084 166.441C417.939 166.812 417.867 167.27 417.867 167.812C417.867 168.332 417.938 168.775 418.078 169.143C418.223 169.51 418.436 169.791 418.717 169.986C419.002 170.178 419.357 170.273 419.783 170.273C420.123 170.273 420.43 170.238 420.703 170.168C420.977 170.094 421.225 170.008 421.447 169.91V170.777C421.232 170.887 420.992 170.971 420.727 171.029C420.465 171.088 420.152 171.117 419.789 171.117ZM425.045 170.32C425.205 170.32 425.369 170.307 425.537 170.279C425.705 170.252 425.842 170.219 425.947 170.18V170.936C425.834 170.986 425.676 171.029 425.473 171.064C425.273 171.1 425.078 171.117 424.887 171.117C424.547 171.117 424.238 171.059 423.961 170.941C423.684 170.82 423.461 170.617 423.293 170.332C423.129 170.047 423.047 169.652 423.047 169.148V165.34H422.133V164.865L423.053 164.484L423.439 163.09H424.025V164.578H425.906V165.34H424.025V169.119C424.025 169.521 424.117 169.822 424.301 170.021C424.488 170.221 424.736 170.32 425.045 170.32ZM435.545 171H429.932V170.186L432.223 167.859C432.648 167.43 433.006 167.047 433.295 166.711C433.588 166.375 433.811 166.045 433.963 165.721C434.115 165.393 434.191 165.033 434.191 164.643C434.191 164.158 434.047 163.789 433.758 163.535C433.473 163.277 433.096 163.148 432.627 163.148C432.217 163.148 431.854 163.219 431.537 163.359C431.221 163.5 430.896 163.699 430.564 163.957L430.043 163.301C430.27 163.109 430.516 162.939 430.781 162.791C431.051 162.643 431.338 162.525 431.643 162.439C431.951 162.354 432.279 162.311 432.627 162.311C433.154 162.311 433.609 162.402 433.992 162.586C434.375 162.77 434.67 163.031 434.877 163.371C435.088 163.711 435.193 164.115 435.193 164.584C435.193 165.037 435.104 165.459 434.924 165.85C434.744 166.236 434.492 166.621 434.168 167.004C433.844 167.383 433.465 167.785 433.031 168.211L431.168 170.068V170.109H435.545V171ZM442.459 166.705C442.459 167.4 442.406 168.021 442.301 168.568C442.195 169.115 442.029 169.578 441.803 169.957C441.576 170.336 441.283 170.625 440.924 170.824C440.564 171.02 440.133 171.117 439.629 171.117C438.992 171.117 438.465 170.943 438.047 170.596C437.633 170.248 437.322 169.746 437.115 169.09C436.912 168.43 436.811 167.635 436.811 166.705C436.811 165.791 436.902 165.006 437.086 164.35C437.273 163.689 437.574 163.184 437.988 162.832C438.402 162.477 438.949 162.299 439.629 162.299C440.273 162.299 440.805 162.475 441.223 162.826C441.641 163.174 441.951 163.678 442.154 164.338C442.357 164.994 442.459 165.783 442.459 166.705ZM437.789 166.705C437.789 167.502 437.85 168.166 437.971 168.697C438.092 169.229 438.287 169.627 438.557 169.893C438.83 170.154 439.188 170.285 439.629 170.285C440.07 170.285 440.426 170.154 440.695 169.893C440.969 169.631 441.166 169.234 441.287 168.703C441.412 168.172 441.475 167.506 441.475 166.705C441.475 165.92 441.414 165.264 441.293 164.736C441.172 164.205 440.977 163.807 440.707 163.541C440.438 163.271 440.078 163.137 439.629 163.137C439.18 163.137 438.82 163.271 438.551 163.541C438.281 163.807 438.086 164.205 437.965 164.736C437.848 165.264 437.789 165.92 437.789 166.705ZM449.279 171H443.666V170.186L445.957 167.859C446.383 167.43 446.74 167.047 447.029 166.711C447.322 166.375 447.545 166.045 447.697 165.721C447.85 165.393 447.926 165.033 447.926 164.643C447.926 164.158 447.781 163.789 447.492 163.535C447.207 163.277 446.83 163.148 446.361 163.148C445.951 163.148 445.588 163.219 445.271 163.359C444.955 163.5 444.631 163.699 444.299 163.957L443.777 163.301C444.004 163.109 444.25 162.939 444.516 162.791C444.785 162.643 445.072 162.525 445.377 162.439C445.686 162.354 446.014 162.311 446.361 162.311C446.889 162.311 447.344 162.402 447.727 162.586C448.109 162.77 448.404 163.031 448.611 163.371C448.822 163.711 448.928 164.115 448.928 164.584C448.928 165.037 448.838 165.459 448.658 165.85C448.479 166.236 448.227 166.621 447.902 167.004C447.578 167.383 447.199 167.785 446.766 168.211L444.902 170.068V170.109H449.279V171ZM455.83 164.432C455.83 164.814 455.756 165.146 455.607 165.428C455.459 165.709 455.252 165.939 454.986 166.119C454.721 166.295 454.408 166.418 454.049 166.488V166.535C454.729 166.621 455.238 166.84 455.578 167.191C455.922 167.543 456.094 168.004 456.094 168.574C456.094 169.07 455.977 169.51 455.742 169.893C455.512 170.275 455.156 170.576 454.676 170.795C454.199 171.01 453.588 171.117 452.842 171.117C452.389 171.117 451.969 171.08 451.582 171.006C451.199 170.936 450.832 170.816 450.48 170.648V169.734C450.836 169.91 451.223 170.049 451.641 170.15C452.059 170.248 452.463 170.297 452.854 170.297C453.635 170.297 454.199 170.143 454.547 169.834C454.895 169.521 455.068 169.096 455.068 168.557C455.068 168.186 454.971 167.887 454.775 167.66C454.584 167.43 454.307 167.262 453.943 167.156C453.584 167.047 453.15 166.992 452.643 166.992H451.787V166.16H452.648C453.113 166.16 453.508 166.092 453.832 165.955C454.156 165.818 454.402 165.627 454.57 165.381C454.742 165.131 454.828 164.836 454.828 164.496C454.828 164.062 454.684 163.729 454.395 163.494C454.105 163.256 453.713 163.137 453.217 163.137C452.912 163.137 452.635 163.168 452.385 163.23C452.135 163.293 451.9 163.379 451.682 163.488C451.463 163.598 451.244 163.725 451.025 163.869L450.533 163.201C450.846 162.959 451.227 162.75 451.676 162.574C452.125 162.398 452.635 162.311 453.205 162.311C454.08 162.311 454.736 162.51 455.174 162.908C455.611 163.307 455.83 163.814 455.83 164.432Z" fill="#161616"/>
<path d="M529.473 50.0347C530.049 50.0347 530.486 50.2495 530.783 50.6792C531.08 51.1053 531.229 51.7087 531.229 52.4893C531.229 53.2663 531.086 53.8732 530.799 54.3101C530.516 54.7469 530.074 54.9653 529.473 54.9653C528.91 54.9653 528.483 54.7469 528.189 54.3101C527.895 53.8732 527.749 53.2663 527.749 52.4893C527.749 51.7087 527.886 51.1053 528.162 50.6792C528.441 50.2495 528.878 50.0347 529.473 50.0347ZM529.478 50.9155C529.245 50.9155 529.073 51.0462 528.962 51.3076C528.855 51.569 528.801 51.9647 528.801 52.4946C528.801 53.021 528.855 53.4185 528.962 53.687C529.073 53.952 529.245 54.0845 529.478 54.0845C529.714 54.0845 529.89 53.952 530.004 53.687C530.123 53.422 530.182 53.0246 530.182 52.4946C530.182 51.9683 530.124 51.5744 530.01 51.313C529.895 51.048 529.718 50.9155 529.478 50.9155ZM534.747 50.1475L530.391 58H529.354L533.71 50.1475H534.747ZM534.602 53.1768C535.179 53.1768 535.615 53.3916 535.913 53.8213C536.213 54.2474 536.364 54.8507 536.364 55.6313C536.364 56.4048 536.221 57.0099 535.934 57.4468C535.651 57.8836 535.207 58.1021 534.602 58.1021C534.04 58.1021 533.612 57.8836 533.318 57.4468C533.025 57.0099 532.878 56.4048 532.878 55.6313C532.878 54.8507 533.016 54.2474 533.292 53.8213C533.571 53.3916 534.008 53.1768 534.602 53.1768ZM534.607 54.0576C534.375 54.0576 534.203 54.1883 534.092 54.4497C533.984 54.7111 533.931 55.1068 533.931 55.6367C533.931 56.1631 533.984 56.5605 534.092 56.8291C534.203 57.0941 534.375 57.2266 534.607 57.2266C534.847 57.2266 535.025 57.0959 535.139 56.8345C535.254 56.5695 535.311 56.1702 535.311 55.6367C535.311 55.1104 535.254 54.7165 535.139 54.4551C535.025 54.1901 534.847 54.0576 534.607 54.0576ZM547.074 53.9985C547.074 54.883 546.909 55.6224 546.58 56.2168C546.25 56.8076 545.772 57.2534 545.146 57.5542C544.519 57.8514 543.763 58 542.879 58H540.698V50.1475H543.115C543.928 50.1475 544.63 50.2943 545.221 50.5879C545.812 50.8779 546.268 51.3094 546.59 51.8823C546.913 52.4517 547.074 53.1571 547.074 53.9985ZM545.731 54.0361C545.731 53.3916 545.629 52.8617 545.425 52.4463C545.224 52.0309 544.927 51.723 544.533 51.5225C544.143 51.3184 543.661 51.2163 543.088 51.2163H541.987V56.9204H542.9C543.849 56.9204 544.558 56.6787 545.027 56.1953C545.496 55.7119 545.731 54.9922 545.731 54.0361ZM549.899 52.0542V58H548.637V52.0542H549.899ZM549.276 49.7769C549.469 49.7769 549.636 49.8288 549.775 49.9326C549.919 50.0365 549.99 50.2155 549.99 50.4697C549.99 50.7204 549.919 50.8994 549.775 51.0068C549.636 51.1107 549.469 51.1626 549.276 51.1626C549.075 51.1626 548.905 51.1107 548.766 51.0068C548.63 50.8994 548.562 50.7204 548.562 50.4697C548.562 50.2155 548.63 50.0365 548.766 49.9326C548.905 49.8288 549.075 49.7769 549.276 49.7769ZM554.679 53.0156H553.234V58H551.972V53.0156H551V52.4087L551.972 52.0381V51.6245C551.972 51.1196 552.051 50.7186 552.208 50.4214C552.37 50.1242 552.599 49.9111 552.896 49.7822C553.197 49.6497 553.555 49.5835 553.97 49.5835C554.242 49.5835 554.491 49.6068 554.717 49.6533C554.942 49.6963 555.132 49.7464 555.286 49.8037L554.958 50.7598C554.837 50.7204 554.701 50.6846 554.55 50.6523C554.4 50.6165 554.239 50.5986 554.067 50.5986C553.78 50.5986 553.569 50.6882 553.433 50.8672C553.301 51.0462 553.234 51.3076 553.234 51.6514V52.0542H554.679V53.0156ZM558.665 53.0156H557.22V58H555.958V53.0156H554.985V52.4087L555.958 52.0381V51.6245C555.958 51.1196 556.036 50.7186 556.194 50.4214C556.355 50.1242 556.584 49.9111 556.881 49.7822C557.182 49.6497 557.54 49.5835 557.956 49.5835C558.228 49.5835 558.477 49.6068 558.702 49.6533C558.928 49.6963 559.118 49.7464 559.271 49.8037L558.944 50.7598C558.822 50.7204 558.686 50.6846 558.536 50.6523C558.385 50.6165 558.224 50.5986 558.052 50.5986C557.766 50.5986 557.555 50.6882 557.418 50.8672C557.286 51.0462 557.22 51.3076 557.22 51.6514V52.0542H558.665V53.0156ZM562.048 51.9414C562.578 51.9414 563.033 52.0506 563.413 52.269C563.792 52.4875 564.084 52.7972 564.288 53.1982C564.492 53.5993 564.594 54.0791 564.594 54.6377V55.3145H560.625C560.639 55.891 560.793 56.335 561.087 56.6465C561.384 56.958 561.799 57.1138 562.333 57.1138C562.713 57.1138 563.053 57.078 563.354 57.0063C563.658 56.9312 563.971 56.8219 564.293 56.6787V57.7046C563.996 57.8442 563.694 57.9463 563.386 58.0107C563.078 58.0752 562.709 58.1074 562.279 58.1074C561.696 58.1074 561.182 57.9946 560.738 57.769C560.297 57.5399 559.952 57.1997 559.701 56.7485C559.454 56.2974 559.331 55.737 559.331 55.0674C559.331 54.4014 559.443 53.8356 559.669 53.3701C559.895 52.9046 560.211 52.5501 560.62 52.3066C561.028 52.0632 561.504 51.9414 562.048 51.9414ZM562.048 52.8921C561.651 52.8921 561.329 53.021 561.082 53.2788C560.838 53.5366 560.695 53.9144 560.652 54.4121H563.359C563.355 54.1149 563.305 53.8517 563.208 53.6226C563.115 53.3934 562.972 53.2144 562.779 53.0854C562.589 52.9565 562.346 52.8921 562.048 52.8921ZM569.031 51.9414C569.131 51.9414 569.24 51.9468 569.358 51.9575C569.477 51.9683 569.579 51.9826 569.665 52.0005L569.546 53.1821C569.471 53.1606 569.378 53.1445 569.267 53.1338C569.16 53.123 569.063 53.1177 568.977 53.1177C568.751 53.1177 568.537 53.1553 568.333 53.2305C568.128 53.3021 567.948 53.4131 567.79 53.5635C567.632 53.7103 567.509 53.8947 567.419 54.1167C567.33 54.3387 567.285 54.5965 567.285 54.8901V58H566.018V52.0542H567.006L567.178 53.1016H567.237C567.355 52.8903 567.502 52.6969 567.677 52.5215C567.853 52.346 568.053 52.2064 568.279 52.1025C568.508 51.9951 568.759 51.9414 569.031 51.9414ZM573.134 51.9414C573.664 51.9414 574.119 52.0506 574.499 52.269C574.878 52.4875 575.17 52.7972 575.374 53.1982C575.578 53.5993 575.68 54.0791 575.68 54.6377V55.3145H571.711C571.725 55.891 571.879 56.335 572.173 56.6465C572.47 56.958 572.885 57.1138 573.419 57.1138C573.799 57.1138 574.139 57.078 574.439 57.0063C574.744 56.9312 575.057 56.8219 575.379 56.6787V57.7046C575.082 57.8442 574.78 57.9463 574.472 58.0107C574.164 58.0752 573.795 58.1074 573.365 58.1074C572.782 58.1074 572.268 57.9946 571.824 57.769C571.383 57.5399 571.038 57.1997 570.787 56.7485C570.54 56.2974 570.417 55.737 570.417 55.0674C570.417 54.4014 570.529 53.8356 570.755 53.3701C570.98 52.9046 571.297 52.5501 571.706 52.3066C572.114 52.0632 572.59 51.9414 573.134 51.9414ZM573.134 52.8921C572.737 52.8921 572.415 53.021 572.167 53.2788C571.924 53.5366 571.781 53.9144 571.738 54.4121H574.445C574.441 54.1149 574.391 53.8517 574.294 53.6226C574.201 53.3934 574.058 53.2144 573.865 53.0854C573.675 52.9565 573.431 52.8921 573.134 52.8921ZM580.203 51.9414C580.872 51.9414 581.393 52.1151 581.766 52.4624C582.142 52.8062 582.33 53.3594 582.33 54.1221V58H581.067V54.3584C581.067 53.8965 580.972 53.5509 580.783 53.3218C580.593 53.089 580.299 52.9727 579.902 52.9727C579.325 52.9727 578.924 53.1499 578.699 53.5044C578.477 53.8589 578.366 54.3727 578.366 55.0459V58H577.104V52.0542H578.086L578.264 52.8599H578.333C578.462 52.6522 578.622 52.4821 578.812 52.3496C579.005 52.2135 579.22 52.1115 579.456 52.0435C579.696 51.9754 579.945 51.9414 580.203 51.9414ZM586.492 58.1074C585.93 58.1074 585.443 57.9982 585.031 57.7798C584.619 57.5614 584.303 57.2266 584.081 56.7754C583.859 56.3242 583.748 55.7513 583.748 55.0566C583.748 54.3333 583.869 53.7425 584.113 53.2842C584.356 52.8258 584.693 52.4875 585.123 52.269C585.556 52.0506 586.052 51.9414 586.61 51.9414C586.965 51.9414 587.285 51.9772 587.572 52.0488C587.862 52.1169 588.107 52.201 588.308 52.3013L587.932 53.311C587.713 53.2215 587.489 53.1463 587.26 53.0854C587.031 53.0246 586.811 52.9941 586.6 52.9941C586.252 52.9941 585.962 53.0711 585.729 53.2251C585.5 53.3791 585.328 53.6082 585.214 53.9126C585.103 54.217 585.047 54.5947 585.047 55.0459C585.047 55.4827 585.105 55.8516 585.219 56.1523C585.334 56.4495 585.504 56.6751 585.729 56.8291C585.955 56.9795 586.233 57.0547 586.562 57.0547C586.888 57.0547 587.18 57.0153 587.438 56.9365C587.695 56.8577 587.939 56.7557 588.168 56.6304V57.7261C587.942 57.855 587.701 57.9499 587.443 58.0107C587.185 58.0752 586.868 58.1074 586.492 58.1074ZM591.933 51.9414C592.463 51.9414 592.918 52.0506 593.297 52.269C593.677 52.4875 593.969 52.7972 594.173 53.1982C594.377 53.5993 594.479 54.0791 594.479 54.6377V55.3145H590.51C590.524 55.891 590.678 56.335 590.972 56.6465C591.269 56.958 591.684 57.1138 592.218 57.1138C592.597 57.1138 592.938 57.078 593.238 57.0063C593.543 56.9312 593.856 56.8219 594.178 56.6787V57.7046C593.881 57.8442 593.578 57.9463 593.271 58.0107C592.963 58.0752 592.594 58.1074 592.164 58.1074C591.58 58.1074 591.067 57.9946 590.623 57.769C590.182 57.5399 589.837 57.1997 589.586 56.7485C589.339 56.2974 589.215 55.737 589.215 55.0674C589.215 54.4014 589.328 53.8356 589.554 53.3701C589.779 52.9046 590.096 52.5501 590.504 52.3066C590.913 52.0632 591.389 51.9414 591.933 51.9414ZM591.933 52.8921C591.536 52.8921 591.213 53.021 590.966 53.2788C590.723 53.5366 590.58 53.9144 590.537 54.4121H593.244C593.24 54.1149 593.19 53.8517 593.093 53.6226C593 53.3934 592.857 53.2144 592.664 53.0854C592.474 52.9565 592.23 52.8921 591.933 52.8921Z" fill="#61656E"/>
<path d="M571.631 92.7051C571.631 93.4004 571.578 94.0215 571.473 94.5684C571.367 95.1152 571.201 95.5781 570.975 95.957C570.748 96.3359 570.455 96.625 570.096 96.8242C569.736 97.0195 569.305 97.1172 568.801 97.1172C568.164 97.1172 567.637 96.9434 567.219 96.5957C566.805 96.248 566.494 95.7461 566.287 95.0898C566.084 94.4297 565.982 93.6348 565.982 92.7051C565.982 91.791 566.074 91.0059 566.258 90.3496C566.445 89.6895 566.746 89.1836 567.16 88.832C567.574 88.4766 568.121 88.2988 568.801 88.2988C569.445 88.2988 569.977 88.4746 570.395 88.8262C570.812 89.1738 571.123 89.6777 571.326 90.3379C571.529 90.9941 571.631 91.7832 571.631 92.7051ZM566.961 92.7051C566.961 93.502 567.021 94.166 567.143 94.6973C567.264 95.2285 567.459 95.627 567.729 95.8926C568.002 96.1543 568.359 96.2852 568.801 96.2852C569.242 96.2852 569.598 96.1543 569.867 95.8926C570.141 95.6309 570.338 95.2344 570.459 94.7031C570.584 94.1719 570.646 93.5059 570.646 92.7051C570.646 91.9199 570.586 91.2637 570.465 90.7363C570.344 90.2051 570.148 89.8066 569.879 89.541C569.609 89.2715 569.25 89.1367 568.801 89.1367C568.352 89.1367 567.992 89.2715 567.723 89.541C567.453 89.8066 567.258 90.2051 567.137 90.7363C567.02 91.2637 566.961 91.9199 566.961 92.7051ZM573.125 96.3906C573.125 96.1172 573.191 95.9238 573.324 95.8105C573.457 95.6934 573.619 95.6348 573.811 95.6348C574.01 95.6348 574.178 95.6934 574.314 95.8105C574.451 95.9238 574.52 96.1172 574.52 96.3906C574.52 96.6602 574.451 96.8574 574.314 96.9824C574.178 97.1035 574.01 97.1641 573.811 97.1641C573.619 97.1641 573.457 97.1035 573.324 96.9824C573.191 96.8574 573.125 96.6602 573.125 96.3906ZM581.65 92.7051C581.65 93.4004 581.598 94.0215 581.492 94.5684C581.387 95.1152 581.221 95.5781 580.994 95.957C580.768 96.3359 580.475 96.625 580.115 96.8242C579.756 97.0195 579.324 97.1172 578.82 97.1172C578.184 97.1172 577.656 96.9434 577.238 96.5957C576.824 96.248 576.514 95.7461 576.307 95.0898C576.104 94.4297 576.002 93.6348 576.002 92.7051C576.002 91.791 576.094 91.0059 576.277 90.3496C576.465 89.6895 576.766 89.1836 577.18 88.832C577.594 88.4766 578.141 88.2988 578.82 88.2988C579.465 88.2988 579.996 88.4746 580.414 88.8262C580.832 89.1738 581.143 89.6777 581.346 90.3379C581.549 90.9941 581.65 91.7832 581.65 92.7051ZM576.98 92.7051C576.98 93.502 577.041 94.166 577.162 94.6973C577.283 95.2285 577.479 95.627 577.748 95.8926C578.021 96.1543 578.379 96.2852 578.82 96.2852C579.262 96.2852 579.617 96.1543 579.887 95.8926C580.16 95.6309 580.357 95.2344 580.479 94.7031C580.604 94.1719 580.666 93.5059 580.666 92.7051C580.666 91.9199 580.605 91.2637 580.484 90.7363C580.363 90.2051 580.168 89.8066 579.898 89.541C579.629 89.2715 579.27 89.1367 578.82 89.1367C578.371 89.1367 578.012 89.2715 577.742 89.541C577.473 89.8066 577.277 90.2051 577.156 90.7363C577.039 91.2637 576.98 91.9199 576.98 92.7051ZM585.688 88.3105C586.184 88.3105 586.623 88.3887 587.006 88.5449C587.389 88.7012 587.688 88.9316 587.902 89.2363C588.121 89.5371 588.23 89.9082 588.23 90.3496C588.23 90.6973 588.154 91.002 588.002 91.2637C587.854 91.5215 587.652 91.748 587.398 91.9434C587.145 92.1348 586.863 92.3066 586.555 92.459C586.922 92.627 587.252 92.8164 587.545 93.0273C587.842 93.2383 588.076 93.4863 588.248 93.7715C588.42 94.0566 588.506 94.3945 588.506 94.7852C588.506 95.2656 588.389 95.6816 588.154 96.0332C587.924 96.3809 587.6 96.6484 587.182 96.8359C586.764 97.0234 586.273 97.1172 585.711 97.1172C585.105 97.1172 584.59 97.0273 584.164 96.8477C583.742 96.6641 583.42 96.4023 583.197 96.0625C582.979 95.7188 582.869 95.3066 582.869 94.8262C582.869 94.4316 582.953 94.0898 583.121 93.8008C583.289 93.5078 583.512 93.2559 583.789 93.0449C584.066 92.834 584.369 92.6562 584.697 92.5117C584.412 92.3555 584.15 92.1777 583.912 91.9785C583.678 91.7793 583.49 91.5469 583.35 91.2812C583.213 91.0117 583.145 90.6992 583.145 90.3438C583.145 89.9102 583.254 89.543 583.473 89.2422C583.695 88.9375 583.998 88.707 584.381 88.5508C584.768 88.3906 585.203 88.3105 585.688 88.3105ZM583.824 94.832C583.824 95.2695 583.979 95.6309 584.287 95.916C584.596 96.1973 585.062 96.3379 585.688 96.3379C586.281 96.3379 586.74 96.1973 587.064 95.916C587.389 95.6309 587.551 95.2578 587.551 94.7969C587.551 94.5117 587.477 94.2617 587.328 94.0469C587.18 93.8281 586.969 93.6328 586.695 93.4609C586.422 93.2891 586.1 93.1328 585.729 92.9922L585.518 92.916C585.158 93.0645 584.852 93.2305 584.598 93.4141C584.348 93.5938 584.156 93.7988 584.023 94.0293C583.891 94.2598 583.824 94.5273 583.824 94.832ZM585.676 89.1074C585.215 89.1074 584.838 89.2188 584.545 89.4414C584.252 89.6602 584.105 89.9766 584.105 90.3906C584.105 90.6875 584.176 90.9395 584.316 91.1465C584.461 91.3496 584.656 91.5254 584.902 91.6738C585.148 91.8184 585.424 91.9531 585.729 92.0781C586.025 91.9531 586.289 91.8164 586.52 91.668C586.75 91.5156 586.932 91.3359 587.064 91.1289C587.197 90.9219 587.264 90.6738 587.264 90.3848C587.264 89.9707 587.117 89.6543 586.824 89.4355C586.535 89.2168 586.152 89.1074 585.676 89.1074ZM595.766 95.0137H594.482V97H593.533V95.0137H589.391V94.1934L593.469 88.3867H594.482V94.1348H595.766V95.0137ZM593.533 94.1348V91.334C593.533 91.1191 593.535 90.9258 593.539 90.7539C593.543 90.5781 593.549 90.416 593.557 90.2676C593.564 90.1152 593.57 89.9707 593.574 89.834C593.582 89.6973 593.588 89.5625 593.592 89.4297H593.545C593.471 89.5859 593.385 89.752 593.287 89.9277C593.193 90.0996 593.098 90.2539 593 90.3906L590.357 94.1348H593.533Z" fill="#161616"/>
<path d="M571.631 129.705C571.631 130.4 571.578 131.021 571.473 131.568C571.367 132.115 571.201 132.578 570.975 132.957C570.748 133.336 570.455 133.625 570.096 133.824C569.736 134.02 569.305 134.117 568.801 134.117C568.164 134.117 567.637 133.943 567.219 133.596C566.805 133.248 566.494 132.746 566.287 132.09C566.084 131.43 565.982 130.635 565.982 129.705C565.982 128.791 566.074 128.006 566.258 127.35C566.445 126.689 566.746 126.184 567.16 125.832C567.574 125.477 568.121 125.299 568.801 125.299C569.445 125.299 569.977 125.475 570.395 125.826C570.812 126.174 571.123 126.678 571.326 127.338C571.529 127.994 571.631 128.783 571.631 129.705ZM566.961 129.705C566.961 130.502 567.021 131.166 567.143 131.697C567.264 132.229 567.459 132.627 567.729 132.893C568.002 133.154 568.359 133.285 568.801 133.285C569.242 133.285 569.598 133.154 569.867 132.893C570.141 132.631 570.338 132.234 570.459 131.703C570.584 131.172 570.646 130.506 570.646 129.705C570.646 128.92 570.586 128.264 570.465 127.736C570.344 127.205 570.148 126.807 569.879 126.541C569.609 126.271 569.25 126.137 568.801 126.137C568.352 126.137 567.992 126.271 567.723 126.541C567.453 126.807 567.258 127.205 567.137 127.736C567.02 128.264 566.961 128.92 566.961 129.705ZM573.125 133.391C573.125 133.117 573.191 132.924 573.324 132.811C573.457 132.693 573.619 132.635 573.811 132.635C574.01 132.635 574.178 132.693 574.314 132.811C574.451 132.924 574.52 133.117 574.52 133.391C574.52 133.66 574.451 133.857 574.314 133.982C574.178 134.104 574.01 134.164 573.811 134.164C573.619 134.164 573.457 134.104 573.324 133.982C573.191 133.857 573.125 133.66 573.125 133.391ZM581.65 129.705C581.65 130.4 581.598 131.021 581.492 131.568C581.387 132.115 581.221 132.578 580.994 132.957C580.768 133.336 580.475 133.625 580.115 133.824C579.756 134.02 579.324 134.117 578.82 134.117C578.184 134.117 577.656 133.943 577.238 133.596C576.824 133.248 576.514 132.746 576.307 132.09C576.104 131.43 576.002 130.635 576.002 129.705C576.002 128.791 576.094 128.006 576.277 127.35C576.465 126.689 576.766 126.184 577.18 125.832C577.594 125.477 578.141 125.299 578.82 125.299C579.465 125.299 579.996 125.475 580.414 125.826C580.832 126.174 581.143 126.678 581.346 127.338C581.549 127.994 581.65 128.783 581.65 129.705ZM576.98 129.705C576.98 130.502 577.041 131.166 577.162 131.697C577.283 132.229 577.479 132.627 577.748 132.893C578.021 133.154 578.379 133.285 578.82 133.285C579.262 133.285 579.617 133.154 579.887 132.893C580.16 132.631 580.357 132.234 580.479 131.703C580.604 131.172 580.666 130.506 580.666 129.705C580.666 128.92 580.605 128.264 580.484 127.736C580.363 127.205 580.168 126.807 579.898 126.541C579.629 126.271 579.27 126.137 578.82 126.137C578.371 126.137 578.012 126.271 577.742 126.541C577.473 126.807 577.277 127.205 577.156 127.736C577.039 128.264 576.98 128.92 576.98 129.705ZM585.688 125.311C586.184 125.311 586.623 125.389 587.006 125.545C587.389 125.701 587.688 125.932 587.902 126.236C588.121 126.537 588.23 126.908 588.23 127.35C588.23 127.697 588.154 128.002 588.002 128.264C587.854 128.521 587.652 128.748 587.398 128.943C587.145 129.135 586.863 129.307 586.555 129.459C586.922 129.627 587.252 129.816 587.545 130.027C587.842 130.238 588.076 130.486 588.248 130.771C588.42 131.057 588.506 131.395 588.506 131.785C588.506 132.266 588.389 132.682 588.154 133.033C587.924 133.381 587.6 133.648 587.182 133.836C586.764 134.023 586.273 134.117 585.711 134.117C585.105 134.117 584.59 134.027 584.164 133.848C583.742 133.664 583.42 133.402 583.197 133.062C582.979 132.719 582.869 132.307 582.869 131.826C582.869 131.432 582.953 131.09 583.121 130.801C583.289 130.508 583.512 130.256 583.789 130.045C584.066 129.834 584.369 129.656 584.697 129.512C584.412 129.355 584.15 129.178 583.912 128.979C583.678 128.779 583.49 128.547 583.35 128.281C583.213 128.012 583.145 127.699 583.145 127.344C583.145 126.91 583.254 126.543 583.473 126.242C583.695 125.938 583.998 125.707 584.381 125.551C584.768 125.391 585.203 125.311 585.688 125.311ZM583.824 131.832C583.824 132.27 583.979 132.631 584.287 132.916C584.596 133.197 585.062 133.338 585.688 133.338C586.281 133.338 586.74 133.197 587.064 132.916C587.389 132.631 587.551 132.258 587.551 131.797C587.551 131.512 587.477 131.262 587.328 131.047C587.18 130.828 586.969 130.633 586.695 130.461C586.422 130.289 586.1 130.133 585.729 129.992L585.518 129.916C585.158 130.064 584.852 130.23 584.598 130.414C584.348 130.594 584.156 130.799 584.023 131.029C583.891 131.26 583.824 131.527 583.824 131.832ZM585.676 126.107C585.215 126.107 584.838 126.219 584.545 126.441C584.252 126.66 584.105 126.977 584.105 127.391C584.105 127.688 584.176 127.939 584.316 128.146C584.461 128.35 584.656 128.525 584.902 128.674C585.148 128.818 585.424 128.953 585.729 129.078C586.025 128.953 586.289 128.816 586.52 128.668C586.75 128.516 586.932 128.336 587.064 128.129C587.197 127.922 587.264 127.674 587.264 127.385C587.264 126.971 587.117 126.654 586.824 126.436C586.535 126.217 586.152 126.107 585.676 126.107ZM592.432 128.762C593.014 128.762 593.52 128.861 593.949 129.061C594.379 129.256 594.711 129.541 594.945 129.916C595.184 130.291 595.303 130.746 595.303 131.281C595.303 131.867 595.176 132.373 594.922 132.799C594.668 133.221 594.303 133.547 593.826 133.777C593.35 134.004 592.779 134.117 592.115 134.117C591.67 134.117 591.256 134.078 590.873 134C590.49 133.922 590.168 133.805 589.906 133.648V132.723C590.191 132.895 590.537 133.031 590.943 133.133C591.35 133.234 591.744 133.285 592.127 133.285C592.561 133.285 592.939 133.217 593.264 133.08C593.592 132.939 593.846 132.729 594.025 132.447C594.209 132.162 594.301 131.805 594.301 131.375C594.301 130.805 594.125 130.365 593.773 130.057C593.426 129.744 592.875 129.588 592.121 129.588C591.879 129.588 591.613 129.607 591.324 129.646C591.035 129.686 590.797 129.729 590.609 129.775L590.117 129.453L590.445 125.434H594.705V126.324H591.277L591.061 128.908C591.209 128.877 591.4 128.846 591.635 128.814C591.869 128.779 592.135 128.762 592.432 128.762Z" fill="#161616"/>
<path d="M571.631 166.705C571.631 167.4 571.578 168.021 571.473 168.568C571.367 169.115 571.201 169.578 570.975 169.957C570.748 170.336 570.455 170.625 570.096 170.824C569.736 171.02 569.305 171.117 568.801 171.117C568.164 171.117 567.637 170.943 567.219 170.596C566.805 170.248 566.494 169.746 566.287 169.09C566.084 168.43 565.982 167.635 565.982 166.705C565.982 165.791 566.074 165.006 566.258 164.35C566.445 163.689 566.746 163.184 567.16 162.832C567.574 162.477 568.121 162.299 568.801 162.299C569.445 162.299 569.977 162.475 570.395 162.826C570.812 163.174 571.123 163.678 571.326 164.338C571.529 164.994 571.631 165.783 571.631 166.705ZM566.961 166.705C566.961 167.502 567.021 168.166 567.143 168.697C567.264 169.229 567.459 169.627 567.729 169.893C568.002 170.154 568.359 170.285 568.801 170.285C569.242 170.285 569.598 170.154 569.867 169.893C570.141 169.631 570.338 169.234 570.459 168.703C570.584 168.172 570.646 167.506 570.646 166.705C570.646 165.92 570.586 165.264 570.465 164.736C570.344 164.205 570.148 163.807 569.879 163.541C569.609 163.271 569.25 163.137 568.801 163.137C568.352 163.137 567.992 163.271 567.723 163.541C567.453 163.807 567.258 164.205 567.137 164.736C567.02 165.264 566.961 165.92 566.961 166.705ZM573.125 170.391C573.125 170.117 573.191 169.924 573.324 169.811C573.457 169.693 573.619 169.635 573.811 169.635C574.01 169.635 574.178 169.693 574.314 169.811C574.451 169.924 574.52 170.117 574.52 170.391C574.52 170.66 574.451 170.857 574.314 170.982C574.178 171.104 574.01 171.164 573.811 171.164C573.619 171.164 573.457 171.104 573.324 170.982C573.191 170.857 573.125 170.66 573.125 170.391ZM579.611 171H578.662V164.93C578.662 164.699 578.662 164.502 578.662 164.338C578.666 164.17 578.67 164.018 578.674 163.881C578.682 163.74 578.691 163.598 578.703 163.453C578.582 163.578 578.469 163.686 578.363 163.775C578.258 163.861 578.127 163.969 577.971 164.098L576.992 164.883L576.482 164.221L578.803 162.434H579.611V171ZM588.518 166.705C588.518 167.4 588.465 168.021 588.359 168.568C588.254 169.115 588.088 169.578 587.861 169.957C587.635 170.336 587.342 170.625 586.982 170.824C586.623 171.02 586.191 171.117 585.688 171.117C585.051 171.117 584.523 170.943 584.105 170.596C583.691 170.248 583.381 169.746 583.174 169.09C582.971 168.43 582.869 167.635 582.869 166.705C582.869 165.791 582.961 165.006 583.145 164.35C583.332 163.689 583.633 163.184 584.047 162.832C584.461 162.477 585.008 162.299 585.688 162.299C586.332 162.299 586.863 162.475 587.281 162.826C587.699 163.174 588.01 163.678 588.213 164.338C588.416 164.994 588.518 165.783 588.518 166.705ZM583.848 166.705C583.848 167.502 583.908 168.166 584.029 168.697C584.15 169.229 584.346 169.627 584.615 169.893C584.889 170.154 585.246 170.285 585.688 170.285C586.129 170.285 586.484 170.154 586.754 169.893C587.027 169.631 587.225 169.234 587.346 168.703C587.471 168.172 587.533 167.506 587.533 166.705C587.533 165.92 587.473 165.264 587.352 164.736C587.23 164.205 587.035 163.807 586.766 163.541C586.496 163.271 586.137 163.137 585.688 163.137C585.238 163.137 584.879 163.271 584.609 163.541C584.34 163.807 584.145 164.205 584.023 164.736C583.906 165.264 583.848 165.92 583.848 166.705ZM595.338 171H589.725V170.186L592.016 167.859C592.441 167.43 592.799 167.047 593.088 166.711C593.381 166.375 593.604 166.045 593.756 165.721C593.908 165.393 593.984 165.033 593.984 164.643C593.984 164.158 593.84 163.789 593.551 163.535C593.266 163.277 592.889 163.148 592.42 163.148C592.01 163.148 591.646 163.219 591.33 163.359C591.014 163.5 590.689 163.699 590.357 163.957L589.836 163.301C590.062 163.109 590.309 162.939 590.574 162.791C590.844 162.643 591.131 162.525 591.436 162.439C591.744 162.354 592.072 162.311 592.42 162.311C592.947 162.311 593.402 162.402 593.785 162.586C594.168 162.77 594.463 163.031 594.67 163.371C594.881 163.711 594.986 164.115 594.986 164.584C594.986 165.037 594.896 165.459 594.717 165.85C594.537 166.236 594.285 166.621 593.961 167.004C593.637 167.383 593.258 167.785 592.824 168.211L590.961 170.068V170.109H595.338V171Z" fill="#161616"/>
</g>
</g>
<rect width="53" height="32" transform="translate(731)" fill="#D1F4C9"/>
<path fill-rule="evenodd" clip-rule="evenodd" d="M742.871 18.0325L749.058 11.8457L750.119 12.9064L742.871 20.1538L739.881 17.1634L740.942 16.1028L742.871 18.0325Z" fill="#24874B"/>
<path d="M767.08 16.6348C767.08 17.5996 766.9 18.4062 766.541 19.0547C766.182 19.6992 765.66 20.1855 764.977 20.5137C764.293 20.8379 763.469 21 762.504 21H760.125V12.4336H762.762C763.648 12.4336 764.414 12.5938 765.059 12.9141C765.703 13.2305 766.201 13.7012 766.553 14.3262C766.904 14.9473 767.08 15.7168 767.08 16.6348ZM765.615 16.6758C765.615 15.9727 765.504 15.3945 765.281 14.9414C765.062 14.4883 764.738 14.1523 764.309 13.9336C763.883 13.7109 763.357 13.5996 762.732 13.5996H761.531V19.8223H762.527C763.562 19.8223 764.336 19.5586 764.848 19.0312C765.359 18.5039 765.615 17.7188 765.615 16.6758ZM774.527 17.7422C774.527 18.2812 774.457 18.7598 774.316 19.1777C774.176 19.5957 773.971 19.9492 773.701 20.2383C773.432 20.5234 773.107 20.7422 772.729 20.8945C772.35 21.043 771.922 21.1172 771.445 21.1172C771 21.1172 770.592 21.043 770.221 20.8945C769.85 20.7422 769.527 20.5234 769.254 20.2383C768.984 19.9492 768.775 19.5957 768.627 19.1777C768.479 18.7598 768.404 18.2812 768.404 17.7422C768.404 17.0273 768.527 16.4219 768.773 15.9258C769.023 15.4258 769.379 15.0449 769.84 14.7832C770.301 14.5215 770.85 14.3906 771.486 14.3906C772.084 14.3906 772.611 14.5215 773.068 14.7832C773.525 15.0449 773.883 15.4258 774.141 15.9258C774.398 16.4258 774.527 17.0312 774.527 17.7422ZM769.822 17.7422C769.822 18.2148 769.879 18.6191 769.992 18.9551C770.109 19.291 770.289 19.5488 770.531 19.7285C770.773 19.9043 771.086 19.9922 771.469 19.9922C771.852 19.9922 772.164 19.9043 772.406 19.7285C772.648 19.5488 772.826 19.291 772.939 18.9551C773.053 18.6191 773.109 18.2148 773.109 17.7422C773.109 17.2695 773.053 16.8691 772.939 16.541C772.826 16.209 772.648 15.957 772.406 15.7852C772.164 15.6094 771.85 15.5215 771.463 15.5215C770.893 15.5215 770.477 15.7129 770.215 16.0957C769.953 16.4785 769.822 17.0273 769.822 17.7422Z" fill="#161616"/>
<defs>
<filter id="filter0_d_2452_297828" x="178.5" y="70" width="427" height="7" filterUnits="userSpaceOnUse" color-interpolation-filters="sRGB">
<feFlood flood-opacity="0" result="BackgroundImageFix"/>
<feColorMatrix in="SourceAlpha" type="matrix" values="0 0 0 0 0 0 0 0 0 0 0 0 0 0 0 0 0 0 127 0" result="hardAlpha"/>
<feOffset dy="1"/>
<feGaussianBlur stdDeviation="1.5"/>
<feColorMatrix type="matrix" values="0 0 0 0 0 0 0 0 0 0 0 0 0 0 0 0 0 0 0.1 0"/>
<feBlend mode="normal" in2="BackgroundImageFix" result="effect1_dropShadow_2452_297828"/>
<feBlend mode="normal" in="SourceGraphic" in2="effect1_dropShadow_2452_297828" result="shape"/>
</filter>
<clipPath id="clip0_2452_297828">
<rect width="421" height="148" fill="white" transform="translate(181.5 36)"/>
</clipPath>
<clipPath id="clip1_2452_297828">
<rect width="421" height="148" fill="white" transform="translate(181.5 36)"/>
</clipPath>
<clipPath id="clip2_2452_297828">
<rect width="421" height="148" fill="white" transform="translate(182 36)"/>
</clipPath>
</defs>
</svg>
