<svg width="880" height="88" viewBox="0 0 880 88" fill="none" xmlns="http://www.w3.org/2000/svg">
<rect width="880" height="88" fill="#F2F4F6"/>
<path d="M407.6 37.912C408.005 37.816 408.443 37.752 408.912 37.72C409.381 37.688 409.845 37.672 410.304 37.672C410.795 37.672 411.291 37.72 411.792 37.816C412.304 37.912 412.768 38.088 413.184 38.344C413.6 38.6 413.936 38.952 414.192 39.4C414.459 39.848 414.592 40.4187 414.592 41.112C414.592 41.7947 414.469 42.3707 414.224 42.84C413.979 43.3093 413.653 43.6933 413.248 43.992C412.843 44.28 412.379 44.488 411.856 44.616C411.333 44.744 410.795 44.808 410.24 44.808C410.187 44.808 410.096 44.808 409.968 44.808C409.851 44.808 409.723 44.808 409.584 44.808C409.456 44.7973 409.328 44.7867 409.2 44.776C409.072 44.7653 408.981 44.7547 408.928 44.744V49H407.6V37.912ZM410.336 38.824C410.059 38.824 409.792 38.8293 409.536 38.84C409.28 38.8507 409.077 38.8773 408.928 38.92V43.56C408.981 43.5813 409.067 43.5973 409.184 43.608C409.301 43.608 409.424 43.6133 409.552 43.624C409.68 43.624 409.803 43.624 409.92 43.624C410.037 43.624 410.123 43.624 410.176 43.624C410.539 43.624 410.896 43.592 411.248 43.528C411.611 43.4533 411.936 43.3253 412.224 43.144C412.512 42.9627 412.741 42.7067 412.912 42.376C413.093 42.0453 413.184 41.624 413.184 41.112C413.184 40.6747 413.099 40.312 412.928 40.024C412.768 39.7253 412.549 39.4907 412.272 39.32C412.005 39.1387 411.701 39.0107 411.36 38.936C411.019 38.8613 410.677 38.824 410.336 38.824ZM416.234 37.8H424.554V40.728H423.37V38.984H421.05V47.816H422.81V49H417.962V47.816H419.722V38.984H417.418V40.728H416.234V37.8ZM442.093 41.56L442.253 40.04H442.173L441.405 41.416L439.773 44.152H439.373L437.661 41.4L436.925 40.04H436.845L437.037 41.544V49H435.741V37.8H436.973L439.629 42.056H439.661L442.221 37.8H443.421V49H442.093V41.56ZM445.287 45C445.287 43.7093 445.623 42.6907 446.295 41.944C446.967 41.1867 447.927 40.808 449.175 40.808C449.847 40.808 450.423 40.92 450.903 41.144C451.394 41.3573 451.799 41.6507 452.119 42.024C452.439 42.3973 452.674 42.84 452.823 43.352C452.983 43.864 453.063 44.4133 453.063 45C453.063 45.64 452.978 46.2213 452.807 46.744C452.636 47.256 452.386 47.6933 452.055 48.056C451.724 48.4187 451.314 48.7013 450.823 48.904C450.343 49.096 449.794 49.192 449.175 49.192C448.514 49.192 447.938 49.0853 447.447 48.872C446.956 48.648 446.551 48.3493 446.231 47.976C445.911 47.6027 445.671 47.16 445.511 46.648C445.362 46.136 445.287 45.5867 445.287 45ZM446.615 45C446.615 45.3733 446.658 45.7467 446.743 46.12C446.839 46.4933 446.988 46.8293 447.191 47.128C447.394 47.4267 447.655 47.6667 447.975 47.848C448.306 48.0293 448.706 48.12 449.175 48.12C450.028 48.12 450.668 47.8587 451.095 47.336C451.532 46.8027 451.751 46.024 451.751 45C451.751 44.616 451.703 44.2427 451.607 43.88C451.522 43.5067 451.372 43.1707 451.159 42.872C450.956 42.5733 450.69 42.3333 450.359 42.152C450.039 41.9707 449.644 41.88 449.175 41.88C448.322 41.88 447.682 42.1413 447.255 42.664C446.828 43.1867 446.615 43.9653 446.615 45ZM455.457 43.8C455.457 43.704 455.451 43.5813 455.441 43.432C455.441 43.272 455.435 43.112 455.425 42.952C455.414 42.7813 455.398 42.616 455.377 42.456C455.366 42.296 455.35 42.1573 455.329 42.04H454.257V41H456.401L456.545 42.296H456.625C456.731 42.1147 456.87 41.9387 457.041 41.768C457.222 41.5867 457.43 41.4267 457.665 41.288C457.899 41.1387 458.161 41.0213 458.449 40.936C458.737 40.8507 459.041 40.808 459.361 40.808C459.851 40.808 460.283 40.8613 460.657 40.968C461.041 41.0747 461.355 41.2667 461.601 41.544C461.857 41.8107 462.049 42.1787 462.177 42.648C462.305 43.1067 462.369 43.6933 462.369 44.408V49H461.121V44.648C461.121 43.7627 460.977 43.096 460.689 42.648C460.401 42.2 459.878 41.976 459.121 41.976C458.843 41.976 458.571 42.0347 458.305 42.152C458.049 42.2587 457.814 42.4027 457.601 42.584C457.387 42.7653 457.201 42.9787 457.041 43.224C456.881 43.4587 456.763 43.7093 456.689 43.976V49H455.457V43.8ZM464.475 45C464.475 43.7093 464.811 42.6907 465.483 41.944C466.155 41.1867 467.115 40.808 468.363 40.808C469.035 40.808 469.611 40.92 470.091 41.144C470.581 41.3573 470.987 41.6507 471.307 42.024C471.627 42.3973 471.861 42.84 472.01 43.352C472.171 43.864 472.251 44.4133 472.251 45C472.251 45.64 472.165 46.2213 471.995 46.744C471.824 47.256 471.573 47.6933 471.243 48.056C470.912 48.4187 470.501 48.7013 470.011 48.904C469.531 49.096 468.981 49.192 468.363 49.192C467.701 49.192 467.125 49.0853 466.635 48.872C466.144 48.648 465.739 48.3493 465.419 47.976C465.099 47.6027 464.859 47.16 464.699 46.648C464.549 46.136 464.475 45.5867 464.475 45ZM465.803 45C465.803 45.3733 465.845 45.7467 465.931 46.12C466.027 46.4933 466.176 46.8293 466.379 47.128C466.581 47.4267 466.843 47.6667 467.163 47.848C467.493 48.0293 467.893 48.12 468.363 48.12C469.216 48.12 469.856 47.8587 470.283 47.336C470.72 46.8027 470.939 46.024 470.939 45C470.939 44.616 470.891 44.2427 470.795 43.88C470.709 43.5067 470.56 43.1707 470.347 42.872C470.144 42.5733 469.877 42.3333 469.547 42.152C469.227 41.9707 468.832 41.88 468.363 41.88C467.509 41.88 466.869 42.1413 466.443 42.664C466.016 43.1867 465.803 43.9653 465.803 45Z" fill="#161616"/>
</svg>
