<svg width="841" height="158" viewBox="0 0 841 158" fill="none" xmlns="http://www.w3.org/2000/svg">
<rect width="784" height="158" transform="translate(52)" fill="white"/>
<path d="M298.91 56.4336C300.016 56.4336 300.822 56.6504 301.33 57.084C301.842 57.5137 302.098 58.1309 302.098 58.9355C302.098 59.2988 302.037 59.6445 301.916 59.9727C301.799 60.2969 301.607 60.584 301.342 60.834C301.076 61.0801 300.727 61.2754 300.293 61.4199C299.863 61.5605 299.336 61.6309 298.711 61.6309H297.668V65H296.672V56.4336H298.91ZM298.816 57.2832H297.668V60.7754H298.6C299.146 60.7754 299.602 60.7168 299.965 60.5996C300.332 60.4824 300.607 60.293 300.791 60.0312C300.975 59.7656 301.066 59.4141 301.066 58.9766C301.066 58.4062 300.885 57.9824 300.521 57.7051C300.158 57.4238 299.59 57.2832 298.816 57.2832ZM306.217 58.4609C306.764 58.4609 307.232 58.582 307.623 58.8242C308.014 59.0664 308.312 59.4062 308.52 59.8438C308.727 60.2773 308.83 60.7852 308.83 61.3672V61.9707H304.395C304.406 62.7246 304.594 63.2988 304.957 63.6934C305.32 64.0879 305.832 64.2852 306.492 64.2852C306.898 64.2852 307.258 64.248 307.57 64.1738C307.883 64.0996 308.207 63.9902 308.543 63.8457V64.7012C308.219 64.8457 307.896 64.9512 307.576 65.0176C307.26 65.084 306.885 65.1172 306.451 65.1172C305.834 65.1172 305.295 64.9922 304.834 64.7422C304.377 64.4883 304.021 64.1172 303.768 63.6289C303.514 63.1406 303.387 62.543 303.387 61.8359C303.387 61.1445 303.502 60.5469 303.732 60.043C303.967 59.5352 304.295 59.1445 304.717 58.8711C305.143 58.5977 305.643 58.4609 306.217 58.4609ZM306.205 59.2578C305.686 59.2578 305.271 59.4277 304.963 59.7676C304.654 60.1074 304.471 60.582 304.412 61.1914H307.811C307.807 60.8086 307.746 60.4727 307.629 60.1836C307.516 59.8906 307.342 59.6641 307.107 59.5039C306.873 59.3398 306.572 59.2578 306.205 59.2578ZM313.523 58.4609C314.285 58.4609 314.861 58.6484 315.252 59.0234C315.643 59.3945 315.838 59.9922 315.838 60.8164V65H314.877V60.8809C314.877 60.3457 314.754 59.9453 314.508 59.6797C314.266 59.4141 313.893 59.2812 313.389 59.2812C312.678 59.2812 312.178 59.4824 311.889 59.8848C311.6 60.2871 311.455 60.8711 311.455 61.6367V65H310.482V58.5781H311.268L311.414 59.5039H311.467C311.604 59.2773 311.777 59.0879 311.988 58.9355C312.199 58.7793 312.436 58.6621 312.697 58.584C312.959 58.502 313.234 58.4609 313.523 58.4609ZM320.127 65.1172C319.314 65.1172 318.67 64.8398 318.193 64.2852C317.721 63.7305 317.484 62.9062 317.484 61.8125C317.484 60.707 317.727 59.873 318.211 59.3105C318.695 58.7441 319.34 58.4609 320.145 58.4609C320.484 58.4609 320.781 58.5059 321.035 58.5957C321.289 58.6855 321.508 58.8066 321.691 58.959C321.875 59.1074 322.029 59.2773 322.154 59.4688H322.225C322.209 59.3477 322.193 59.1816 322.178 58.9707C322.162 58.7598 322.154 58.5879 322.154 58.4551V55.8828H323.127V65H322.342L322.195 64.0859H322.154C322.033 64.2773 321.879 64.4512 321.691 64.6074C321.508 64.7637 321.287 64.8887 321.029 64.9824C320.775 65.0723 320.475 65.1172 320.127 65.1172ZM320.279 64.3086C320.967 64.3086 321.453 64.1133 321.738 63.7227C322.023 63.332 322.166 62.752 322.166 61.9824V61.8066C322.166 60.9902 322.029 60.3633 321.756 59.9258C321.486 59.4883 320.994 59.2695 320.279 59.2695C319.682 59.2695 319.234 59.5 318.938 59.9609C318.641 60.418 318.492 61.043 318.492 61.8359C318.492 62.625 318.639 63.2344 318.932 63.6641C319.229 64.0938 319.678 64.3086 320.279 64.3086ZM326.162 58.5781V65H325.189V58.5781H326.162ZM325.688 56.1758C325.848 56.1758 325.984 56.2285 326.098 56.334C326.215 56.4355 326.273 56.5957 326.273 56.8145C326.273 57.0293 326.215 57.1895 326.098 57.2949C325.984 57.4004 325.848 57.4531 325.688 57.4531C325.52 57.4531 325.379 57.4004 325.266 57.2949C325.156 57.1895 325.102 57.0293 325.102 56.8145C325.102 56.5957 325.156 56.4355 325.266 56.334C325.379 56.2285 325.52 56.1758 325.688 56.1758ZM331.266 58.4609C332.027 58.4609 332.604 58.6484 332.994 59.0234C333.385 59.3945 333.58 59.9922 333.58 60.8164V65H332.619V60.8809C332.619 60.3457 332.496 59.9453 332.25 59.6797C332.008 59.4141 331.635 59.2812 331.131 59.2812C330.42 59.2812 329.92 59.4824 329.631 59.8848C329.342 60.2871 329.197 60.8711 329.197 61.6367V65H328.225V58.5781H329.01L329.156 59.5039H329.209C329.346 59.2773 329.52 59.0879 329.73 58.9355C329.941 58.7793 330.178 58.6621 330.439 58.584C330.701 58.502 330.977 58.4609 331.266 58.4609ZM337.377 67.8828C336.533 67.8828 335.883 67.7246 335.426 67.4082C334.969 67.0957 334.74 66.6562 334.74 66.0898C334.74 65.6875 334.867 65.3438 335.121 65.0586C335.379 64.7734 335.734 64.584 336.188 64.4902C336.02 64.4121 335.875 64.2949 335.754 64.1387C335.637 63.9824 335.578 63.8027 335.578 63.5996C335.578 63.3652 335.643 63.1602 335.771 62.9844C335.904 62.8047 336.105 62.6328 336.375 62.4688C336.039 62.332 335.766 62.1016 335.555 61.7773C335.348 61.4492 335.244 61.0684 335.244 60.6348C335.244 60.1738 335.34 59.7812 335.531 59.457C335.723 59.1289 336 58.8789 336.363 58.707C336.727 58.5352 337.166 58.4492 337.682 58.4492C337.795 58.4492 337.908 58.4551 338.021 58.4668C338.139 58.4746 338.25 58.4883 338.355 58.5078C338.461 58.5234 338.553 58.543 338.631 58.5664H340.834V59.1934L339.65 59.3398C339.768 59.4922 339.865 59.6758 339.943 59.8906C340.021 60.1055 340.061 60.3438 340.061 60.6055C340.061 61.2461 339.844 61.7559 339.41 62.1348C338.977 62.5098 338.381 62.6973 337.623 62.6973C337.443 62.6973 337.26 62.6816 337.072 62.6504C336.881 62.7559 336.734 62.873 336.633 63.002C336.535 63.1309 336.486 63.2793 336.486 63.4473C336.486 63.5723 336.523 63.6719 336.598 63.7461C336.676 63.8203 336.787 63.875 336.932 63.9102C337.076 63.9414 337.25 63.957 337.453 63.957H338.584C339.283 63.957 339.818 64.1035 340.189 64.3965C340.564 64.6895 340.752 65.1172 340.752 65.6797C340.752 66.3906 340.463 66.9355 339.885 67.3145C339.307 67.6934 338.471 67.8828 337.377 67.8828ZM337.406 67.1211C337.938 67.1211 338.377 67.0664 338.725 66.957C339.076 66.8516 339.338 66.6973 339.51 66.4941C339.686 66.2949 339.773 66.0566 339.773 65.7793C339.773 65.5215 339.715 65.3262 339.598 65.1934C339.48 65.0645 339.309 64.9785 339.082 64.9355C338.855 64.8887 338.578 64.8652 338.25 64.8652H337.137C336.848 64.8652 336.596 64.9102 336.381 65C336.166 65.0898 336 65.2227 335.883 65.3984C335.77 65.5742 335.713 65.793 335.713 66.0547C335.713 66.4023 335.859 66.666 336.152 66.8457C336.445 67.0293 336.863 67.1211 337.406 67.1211ZM337.658 61.9883C338.123 61.9883 338.473 61.8711 338.707 61.6367C338.941 61.4023 339.059 61.0605 339.059 60.6113C339.059 60.1309 338.939 59.7715 338.701 59.5332C338.463 59.291 338.111 59.1699 337.646 59.1699C337.201 59.1699 336.857 59.2949 336.615 59.5449C336.377 59.791 336.258 60.1523 336.258 60.6289C336.258 61.0664 336.379 61.4023 336.621 61.6367C336.863 61.8711 337.209 61.9883 337.658 61.9883Z" fill="#161616"/>
<path d="M299.303 89H298.301V81.3125H295.605V80.4336H301.986V81.3125H299.303V89ZM308.672 85.7773C308.672 86.3047 308.604 86.7754 308.467 87.1895C308.33 87.6035 308.133 87.9531 307.875 88.2383C307.617 88.5234 307.305 88.7422 306.938 88.8945C306.574 89.043 306.162 89.1172 305.701 89.1172C305.271 89.1172 304.877 89.043 304.518 88.8945C304.162 88.7422 303.854 88.5234 303.592 88.2383C303.334 87.9531 303.133 87.6035 302.988 87.1895C302.848 86.7754 302.777 86.3047 302.777 85.7773C302.777 85.0742 302.896 84.4766 303.135 83.9844C303.373 83.4883 303.713 83.1113 304.154 82.8535C304.6 82.5918 305.129 82.4609 305.742 82.4609C306.328 82.4609 306.84 82.5918 307.277 82.8535C307.719 83.1152 308.061 83.4941 308.303 83.9902C308.549 84.4824 308.672 85.0781 308.672 85.7773ZM303.785 85.7773C303.785 86.293 303.854 86.7402 303.99 87.1191C304.127 87.498 304.338 87.791 304.623 87.998C304.908 88.2051 305.275 88.3086 305.725 88.3086C306.17 88.3086 306.535 88.2051 306.82 87.998C307.109 87.791 307.322 87.498 307.459 87.1191C307.596 86.7402 307.664 86.293 307.664 85.7773C307.664 85.2656 307.596 84.8242 307.459 84.4531C307.322 84.0781 307.111 83.7891 306.826 83.5859C306.541 83.3828 306.172 83.2812 305.719 83.2812C305.051 83.2812 304.561 83.502 304.248 83.9434C303.939 84.3848 303.785 84.9961 303.785 85.7773ZM312.428 88.3203C312.588 88.3203 312.752 88.3066 312.92 88.2793C313.088 88.252 313.225 88.2188 313.33 88.1797V88.9355C313.217 88.9863 313.059 89.0293 312.855 89.0645C312.656 89.0996 312.461 89.1172 312.27 89.1172C311.93 89.1172 311.621 89.0586 311.344 88.9414C311.066 88.8203 310.844 88.6172 310.676 88.332C310.512 88.0469 310.43 87.6523 310.43 87.1484V83.3398H309.516V82.8652L310.436 82.4844L310.822 81.0898H311.408V82.5781H313.289V83.3398H311.408V87.1191C311.408 87.5215 311.5 87.8223 311.684 88.0215C311.871 88.2207 312.119 88.3203 312.428 88.3203ZM317.033 82.4727C317.799 82.4727 318.367 82.6445 318.738 82.9883C319.109 83.332 319.295 83.8809 319.295 84.6348V89H318.586L318.398 88.0508H318.352C318.172 88.2852 317.984 88.4824 317.789 88.6426C317.594 88.7988 317.367 88.918 317.109 89C316.855 89.0781 316.543 89.1172 316.172 89.1172C315.781 89.1172 315.434 89.0488 315.129 88.9121C314.828 88.7754 314.59 88.5684 314.414 88.291C314.242 88.0137 314.156 87.6621 314.156 87.2363C314.156 86.5957 314.41 86.1035 314.918 85.7598C315.426 85.416 316.199 85.2285 317.238 85.1973L318.346 85.1504V84.7578C318.346 84.2031 318.227 83.8145 317.988 83.5918C317.75 83.3691 317.414 83.2578 316.98 83.2578C316.645 83.2578 316.324 83.3066 316.02 83.4043C315.715 83.502 315.426 83.6172 315.152 83.75L314.854 83.0117C315.143 82.8633 315.475 82.7363 315.85 82.6309C316.225 82.5254 316.619 82.4727 317.033 82.4727ZM318.334 85.8359L317.355 85.877C316.555 85.9082 315.99 86.0391 315.662 86.2695C315.334 86.5 315.17 86.8262 315.17 87.248C315.17 87.6152 315.281 87.8867 315.504 88.0625C315.727 88.2383 316.021 88.3262 316.389 88.3262C316.959 88.3262 317.426 88.168 317.789 87.8516C318.152 87.5352 318.334 87.0605 318.334 86.4277V85.8359ZM322.277 89H321.299V79.8828H322.277V89ZM333.58 80.4336L330.504 89H329.502L326.426 80.4336H327.469L329.473 86.0762C329.555 86.3027 329.627 86.5195 329.689 86.7266C329.756 86.9336 329.814 87.1328 329.865 87.3242C329.916 87.5156 329.961 87.7012 330 87.8809C330.039 87.7012 330.084 87.5156 330.135 87.3242C330.186 87.1289 330.244 86.9277 330.311 86.7207C330.377 86.5098 330.451 86.2891 330.533 86.0586L332.525 80.4336H333.58ZM337.014 82.4727C337.779 82.4727 338.348 82.6445 338.719 82.9883C339.09 83.332 339.275 83.8809 339.275 84.6348V89H338.566L338.379 88.0508H338.332C338.152 88.2852 337.965 88.4824 337.77 88.6426C337.574 88.7988 337.348 88.918 337.09 89C336.836 89.0781 336.523 89.1172 336.152 89.1172C335.762 89.1172 335.414 89.0488 335.109 88.9121C334.809 88.7754 334.57 88.5684 334.395 88.291C334.223 88.0137 334.137 87.6621 334.137 87.2363C334.137 86.5957 334.391 86.1035 334.898 85.7598C335.406 85.416 336.18 85.2285 337.219 85.1973L338.326 85.1504V84.7578C338.326 84.2031 338.207 83.8145 337.969 83.5918C337.73 83.3691 337.395 83.2578 336.961 83.2578C336.625 83.2578 336.305 83.3066 336 83.4043C335.695 83.502 335.406 83.6172 335.133 83.75L334.834 83.0117C335.123 82.8633 335.455 82.7363 335.83 82.6309C336.205 82.5254 336.6 82.4727 337.014 82.4727ZM338.314 85.8359L337.336 85.877C336.535 85.9082 335.971 86.0391 335.643 86.2695C335.314 86.5 335.15 86.8262 335.15 87.248C335.15 87.6152 335.262 87.8867 335.484 88.0625C335.707 88.2383 336.002 88.3262 336.369 88.3262C336.939 88.3262 337.406 88.168 337.77 87.8516C338.133 87.5352 338.314 87.0605 338.314 86.4277V85.8359ZM342.258 89H341.279V79.8828H342.258V89ZM349.617 82.5781V89H348.82L348.68 88.0977H348.627C348.494 88.3203 348.322 88.5078 348.111 88.6602C347.9 88.8125 347.662 88.9258 347.396 89C347.135 89.0781 346.855 89.1172 346.559 89.1172C346.051 89.1172 345.625 89.0352 345.281 88.8711C344.938 88.707 344.678 88.4531 344.502 88.1094C344.33 87.7656 344.244 87.3242 344.244 86.7852V82.5781H345.229V86.7148C345.229 87.25 345.35 87.6504 345.592 87.916C345.834 88.1777 346.203 88.3086 346.699 88.3086C347.176 88.3086 347.555 88.2188 347.836 88.0391C348.121 87.8594 348.326 87.5957 348.451 87.248C348.576 86.8965 348.639 86.4668 348.639 85.959V82.5781H349.617ZM354.146 82.4609C354.693 82.4609 355.162 82.582 355.553 82.8242C355.943 83.0664 356.242 83.4062 356.449 83.8438C356.656 84.2773 356.76 84.7852 356.76 85.3672V85.9707H352.324C352.336 86.7246 352.523 87.2988 352.887 87.6934C353.25 88.0879 353.762 88.2852 354.422 88.2852C354.828 88.2852 355.188 88.248 355.5 88.1738C355.812 88.0996 356.137 87.9902 356.473 87.8457V88.7012C356.148 88.8457 355.826 88.9512 355.506 89.0176C355.189 89.084 354.814 89.1172 354.381 89.1172C353.764 89.1172 353.225 88.9922 352.764 88.7422C352.307 88.4883 351.951 88.1172 351.697 87.6289C351.443 87.1406 351.316 86.543 351.316 85.8359C351.316 85.1445 351.432 84.5469 351.662 84.043C351.896 83.5352 352.225 83.1445 352.646 82.8711C353.072 82.5977 353.572 82.4609 354.146 82.4609ZM354.135 83.2578C353.615 83.2578 353.201 83.4277 352.893 83.7676C352.584 84.1074 352.4 84.582 352.342 85.1914H355.74C355.736 84.8086 355.676 84.4727 355.559 84.1836C355.445 83.8906 355.271 83.6641 355.037 83.5039C354.803 83.3398 354.502 83.2578 354.135 83.2578Z" fill="#61656E"/>
<path d="M379.158 95.1377V89.7061C376.979 89.6709 374.966 89.4775 373.12 89.126C371.292 88.7568 369.71 88.2822 368.374 87.7021V82.0859C369.728 82.7188 371.397 83.29 373.384 83.7998C375.37 84.3096 377.295 84.5996 379.158 84.6699V74.7822C376.609 73.9209 374.535 73.0244 372.936 72.0928C371.354 71.1611 370.193 70.0801 369.455 68.8496C368.717 67.6016 368.348 66.1074 368.348 64.3672C368.348 62.5742 368.796 61.0361 369.692 59.7529C370.606 58.4521 371.872 57.4238 373.489 56.668C375.124 55.9121 377.014 55.4639 379.158 55.3232V51.0254H382.586V55.2441C384.537 55.2969 386.339 55.5166 387.991 55.9033C389.661 56.2725 391.252 56.791 392.764 57.459L390.839 62.3633C389.521 61.8359 388.149 61.4053 386.726 61.0713C385.302 60.7373 383.922 60.5088 382.586 60.3857V70.0361C384.73 70.7393 386.638 71.4951 388.308 72.3037C389.995 73.1123 391.313 74.1318 392.263 75.3623C393.229 76.5752 393.713 78.166 393.713 80.1348C393.713 82.7188 392.764 84.8545 390.865 86.542C388.967 88.2119 386.207 89.2139 382.586 89.5479V95.1377H379.158ZM382.586 84.459C384.273 84.248 385.53 83.8086 386.356 83.1406C387.183 82.4551 387.596 81.5674 387.596 80.4775C387.596 79.7393 387.42 79.1152 387.068 78.6055C386.734 78.0957 386.198 77.6387 385.46 77.2344C384.739 76.8301 383.781 76.4346 382.586 76.0479V84.459ZM379.158 68.7441V60.4912C378.139 60.5967 377.277 60.8076 376.574 61.124C375.871 61.4404 375.344 61.8535 374.992 62.3633C374.641 62.873 374.465 63.4795 374.465 64.1826C374.465 64.9561 374.623 65.6152 374.939 66.1602C375.256 66.7051 375.757 67.1797 376.442 67.584C377.146 67.9883 378.051 68.375 379.158 68.7441ZM426.329 83.5361H421.108V92H414.991V83.5361H397.457V78.8428L415.07 53.3457H421.108V78.3945H426.329V83.5361ZM414.991 78.3945V68.8232C414.991 68.0322 415 67.2324 415.018 66.4238C415.053 65.5977 415.088 64.8066 415.123 64.0508C415.158 63.2949 415.193 62.6006 415.229 61.9678C415.264 61.3174 415.29 60.7812 415.308 60.3594H415.097C414.763 61.0625 414.394 61.7832 413.989 62.5215C413.585 63.2422 413.154 63.9453 412.697 64.6309L403.205 78.3945H414.991ZM437.983 85.7246L438.353 86.3311C438.036 87.5967 437.632 88.959 437.14 90.418C436.647 91.877 436.111 93.3359 435.531 94.7949C434.951 96.2715 434.362 97.6602 433.765 98.9609H429.229C429.599 97.5371 429.95 96.043 430.284 94.4785C430.636 92.9316 430.952 91.4023 431.233 89.8906C431.532 88.3613 431.77 86.9727 431.945 85.7246H437.983ZM457.442 52.9238C459.675 52.9238 461.688 53.2754 463.48 53.9785C465.273 54.6641 466.697 55.6924 467.752 57.0635C468.807 58.4346 469.334 60.1309 469.334 62.1523C469.334 63.7168 469.009 65.0791 468.358 66.2393C467.726 67.3994 466.864 68.4189 465.774 69.2979C464.685 70.1592 463.463 70.9238 462.109 71.5918C463.621 72.3301 465.01 73.1826 466.275 74.1494C467.559 75.0986 468.587 76.2148 469.36 77.498C470.151 78.7812 470.547 80.2842 470.547 82.0068C470.547 84.1689 469.993 86.041 468.886 87.623C467.796 89.1875 466.275 90.4004 464.324 91.2617C462.373 92.1055 460.097 92.5273 457.495 92.5273C454.7 92.5273 452.318 92.1143 450.35 91.2881C448.381 90.4619 446.887 89.2842 445.867 87.7549C444.848 86.208 444.338 84.3623 444.338 82.2178C444.338 80.4424 444.689 78.9043 445.393 77.6035C446.096 76.3027 447.036 75.1777 448.214 74.2285C449.409 73.2793 450.719 72.4795 452.143 71.8291C450.93 71.1084 449.822 70.2998 448.82 69.4033C447.818 68.4893 447.019 67.4434 446.421 66.2656C445.841 65.0703 445.551 63.6904 445.551 62.126C445.551 60.1221 446.087 58.4434 447.159 57.0898C448.231 55.7188 449.664 54.6816 451.457 53.9785C453.268 53.2754 455.263 52.9238 457.442 52.9238ZM450.244 81.9805C450.244 83.668 450.842 85.0566 452.037 86.1465C453.232 87.2363 455.017 87.7812 457.39 87.7812C459.745 87.7812 461.538 87.2451 462.769 86.1729C463.999 85.1006 464.614 83.6855 464.614 81.9277C464.614 80.8027 464.298 79.8096 463.665 78.9482C463.05 78.0869 462.215 77.3223 461.16 76.6543C460.123 75.9688 458.972 75.3359 457.706 74.7559L456.862 74.4131C455.491 74.9932 454.313 75.6523 453.329 76.3906C452.345 77.1113 451.58 77.9287 451.035 78.8428C450.508 79.7568 450.244 80.8027 450.244 81.9805ZM457.39 57.6963C455.685 57.6963 454.278 58.1182 453.171 58.9619C452.081 59.7881 451.536 60.9834 451.536 62.5479C451.536 63.6553 451.8 64.6045 452.327 65.3955C452.872 66.1865 453.602 66.8721 454.516 67.4521C455.43 68.0146 456.44 68.542 457.548 69.0342C458.62 68.5596 459.587 68.041 460.448 67.4785C461.327 66.8984 462.021 66.2129 462.531 65.4219C463.059 64.6133 463.322 63.6465 463.322 62.5215C463.322 60.9746 462.769 59.7881 461.661 58.9619C460.571 58.1182 459.147 57.6963 457.39 57.6963ZM501.449 72.6992C501.449 75.8105 501.203 78.5967 500.711 81.0576C500.236 83.501 499.48 85.5752 498.443 87.2803C497.406 88.9854 496.053 90.2861 494.383 91.1826C492.713 92.0791 490.691 92.5273 488.318 92.5273C485.348 92.5273 482.896 91.7451 480.962 90.1807C479.028 88.5986 477.596 86.3311 476.664 83.3779C475.732 80.4072 475.267 76.8477 475.267 72.6992C475.267 68.5508 475.688 65 476.532 62.0469C477.394 59.0762 478.782 56.7998 480.698 55.2178C482.614 53.6357 485.154 52.8447 488.318 52.8447C491.307 52.8447 493.768 53.6357 495.701 55.2178C497.652 56.7822 499.094 59.0498 500.025 62.0205C500.975 64.9736 501.449 68.5332 501.449 72.6992ZM481.516 72.6992C481.516 75.9512 481.727 78.667 482.148 80.8467C482.588 83.0264 483.309 84.6611 484.311 85.751C485.312 86.8232 486.648 87.3594 488.318 87.3594C489.988 87.3594 491.324 86.8232 492.326 85.751C493.328 84.6787 494.049 83.0527 494.488 80.873C494.945 78.6934 495.174 75.9688 495.174 72.6992C495.174 69.4648 494.954 66.7578 494.515 64.5781C494.075 62.3984 493.354 60.7637 492.353 59.6738C491.351 58.5664 490.006 58.0127 488.318 58.0127C486.631 58.0127 485.286 58.5664 484.284 59.6738C483.3 60.7637 482.588 62.3984 482.148 64.5781C481.727 66.7578 481.516 69.4648 481.516 72.6992ZM524.468 92H518.245V67.1885C518.245 66.3623 518.254 65.5361 518.271 64.71C518.289 63.8838 518.307 63.0752 518.324 62.2842C518.359 61.4932 518.403 60.7373 518.456 60.0166C518.087 60.4209 517.63 60.8604 517.085 61.335C516.558 61.8096 515.995 62.3018 515.397 62.8115L510.968 66.3447L507.856 62.416L519.3 53.4512H524.468V92ZM538.258 88.7305C538.258 87.2891 538.627 86.2783 539.365 85.6982C540.121 85.1006 541.035 84.8018 542.107 84.8018C543.18 84.8018 544.094 85.1006 544.85 85.6982C545.623 86.2783 546.01 87.2891 546.01 88.7305C546.01 90.1367 545.623 91.1562 544.85 91.7891C544.094 92.4043 543.18 92.7119 542.107 92.7119C541.035 92.7119 540.121 92.4043 539.365 91.7891C538.627 91.1562 538.258 90.1367 538.258 88.7305ZM578.072 72.6992C578.072 75.8105 577.826 78.5967 577.334 81.0576C576.859 83.501 576.104 85.5752 575.066 87.2803C574.029 88.9854 572.676 90.2861 571.006 91.1826C569.336 92.0791 567.314 92.5273 564.941 92.5273C561.971 92.5273 559.519 91.7451 557.585 90.1807C555.651 88.5986 554.219 86.3311 553.287 83.3779C552.355 80.4072 551.89 76.8477 551.89 72.6992C551.89 68.5508 552.312 65 553.155 62.0469C554.017 59.0762 555.405 56.7998 557.321 55.2178C559.237 53.6357 561.777 52.8447 564.941 52.8447C567.93 52.8447 570.391 53.6357 572.324 55.2178C574.275 56.7822 575.717 59.0498 576.648 62.0205C577.598 64.9736 578.072 68.5332 578.072 72.6992ZM558.139 72.6992C558.139 75.9512 558.35 78.667 558.771 80.8467C559.211 83.0264 559.932 84.6611 560.934 85.751C561.936 86.8232 563.271 87.3594 564.941 87.3594C566.611 87.3594 567.947 86.8232 568.949 85.751C569.951 84.6787 570.672 83.0527 571.111 80.873C571.568 78.6934 571.797 75.9688 571.797 72.6992C571.797 69.4648 571.577 66.7578 571.138 64.5781C570.698 62.3984 569.978 60.7637 568.976 59.6738C567.974 58.5664 566.629 58.0127 564.941 58.0127C563.254 58.0127 561.909 58.5664 560.907 59.6738C559.923 60.7637 559.211 62.3984 558.771 64.5781C558.35 66.7578 558.139 69.4648 558.139 72.6992ZM608.922 69.8779C608.922 72.1631 608.755 74.4043 608.421 76.6016C608.104 78.7988 607.542 80.8555 606.733 82.7715C605.942 84.6875 604.844 86.3838 603.438 87.8604C602.049 89.3193 600.291 90.4619 598.164 91.2881C596.037 92.1143 593.471 92.5273 590.465 92.5273C589.709 92.5273 588.83 92.4834 587.828 92.3955C586.844 92.3252 586.035 92.2197 585.402 92.0791V86.9111C586.07 87.1045 586.817 87.2627 587.644 87.3857C588.487 87.4912 589.322 87.5439 590.148 87.5439C593.4 87.5439 595.932 86.9375 597.742 85.7246C599.57 84.5117 600.862 82.8418 601.618 80.7148C602.392 78.5879 602.831 76.1709 602.937 73.4639H602.62C602.11 74.3076 601.469 75.0811 600.695 75.7842C599.922 76.4697 598.964 77.0234 597.821 77.4453C596.679 77.8496 595.29 78.0518 593.655 78.0518C591.44 78.0518 589.507 77.5859 587.854 76.6543C586.22 75.7227 584.945 74.3691 584.031 72.5938C583.135 70.8008 582.687 68.6475 582.687 66.1338C582.687 63.4092 583.205 61.0625 584.242 59.0938C585.279 57.125 586.747 55.6133 588.646 54.5586C590.544 53.4863 592.776 52.9502 595.343 52.9502C597.276 52.9502 599.061 53.3018 600.695 54.0049C602.348 54.6904 603.789 55.7451 605.02 57.1689C606.25 58.5752 607.208 60.3418 607.894 62.4688C608.579 64.5781 608.922 67.0479 608.922 69.8779ZM595.422 58.0654C593.471 58.0654 591.88 58.7246 590.649 60.043C589.419 61.3438 588.804 63.3477 588.804 66.0547C588.804 68.252 589.331 69.9922 590.386 71.2754C591.44 72.5586 593.058 73.2002 595.237 73.2002C596.749 73.2002 598.05 72.8926 599.14 72.2773C600.247 71.6445 601.1 70.8447 601.697 69.8779C602.312 68.9111 602.62 67.9268 602.62 66.9248C602.62 65.8877 602.471 64.8506 602.172 63.8135C601.891 62.7764 601.451 61.8271 600.854 60.9658C600.256 60.1045 599.5 59.4102 598.586 58.8828C597.689 58.3379 596.635 58.0654 595.422 58.0654Z" fill="#161616"/>
<path d="M629.5 67V83H633.5V67H639.5L631.5 59L623.5 67H629.5Z" fill="#0C5D2E"/>
<path d="M369.32 114.371H371.734V115.168H369.32V117.652H368.518V115.168H366.104V114.371H368.518V111.875H369.32V114.371ZM375.402 119.697V118.467C374.953 118.459 374.523 118.42 374.113 118.35C373.707 118.279 373.375 118.188 373.117 118.074V117.125C373.387 117.25 373.732 117.359 374.154 117.453C374.576 117.547 374.992 117.598 375.402 117.605V115.027C374.887 114.883 374.459 114.719 374.119 114.535C373.783 114.348 373.531 114.119 373.363 113.85C373.195 113.58 373.111 113.254 373.111 112.871C373.111 112.473 373.205 112.133 373.393 111.852C373.584 111.566 373.852 111.344 374.195 111.184C374.539 111.023 374.941 110.932 375.402 110.908V109.895H376.117V110.896C376.535 110.908 376.916 110.955 377.26 111.037C377.604 111.115 377.922 111.217 378.215 111.342L377.91 112.156C377.645 112.051 377.357 111.961 377.049 111.887C376.74 111.812 376.43 111.762 376.117 111.734V114.295C376.641 114.447 377.078 114.609 377.43 114.781C377.785 114.953 378.053 115.166 378.232 115.42C378.412 115.674 378.502 116.002 378.502 116.404C378.502 116.975 378.293 117.436 377.875 117.787C377.457 118.135 376.871 118.346 376.117 118.42V119.697H375.402ZM376.117 117.553C376.598 117.506 376.955 117.391 377.189 117.207C377.428 117.02 377.547 116.773 377.547 116.469C377.547 116.25 377.5 116.07 377.406 115.93C377.316 115.789 377.168 115.668 376.961 115.566C376.754 115.461 376.473 115.361 376.117 115.268V117.553ZM375.402 114.049V111.758C375.109 111.777 374.863 111.832 374.664 111.922C374.465 112.012 374.314 112.129 374.213 112.273C374.115 112.418 374.066 112.59 374.066 112.789C374.066 113.02 374.109 113.213 374.195 113.369C374.285 113.521 374.428 113.652 374.623 113.762C374.822 113.867 375.082 113.963 375.402 114.049ZM383.447 119H382.498V112.93C382.498 112.699 382.498 112.502 382.498 112.338C382.502 112.17 382.506 112.018 382.51 111.881C382.518 111.74 382.527 111.598 382.539 111.453C382.418 111.578 382.305 111.686 382.199 111.775C382.094 111.861 381.963 111.969 381.807 112.098L380.828 112.883L380.318 112.221L382.639 110.434H383.447V119ZM387.801 119L391.316 111.324H386.646V110.434H392.359V111.184L388.867 119H387.801ZM398.857 112.432C398.857 112.814 398.783 113.146 398.635 113.428C398.486 113.709 398.279 113.939 398.014 114.119C397.748 114.295 397.436 114.418 397.076 114.488V114.535C397.756 114.621 398.266 114.84 398.605 115.191C398.949 115.543 399.121 116.004 399.121 116.574C399.121 117.07 399.004 117.51 398.77 117.893C398.539 118.275 398.184 118.576 397.703 118.795C397.227 119.01 396.615 119.117 395.869 119.117C395.416 119.117 394.996 119.08 394.609 119.006C394.227 118.936 393.859 118.816 393.508 118.648V117.734C393.863 117.91 394.25 118.049 394.668 118.15C395.086 118.248 395.49 118.297 395.881 118.297C396.662 118.297 397.227 118.143 397.574 117.834C397.922 117.521 398.096 117.096 398.096 116.557C398.096 116.186 397.998 115.887 397.803 115.66C397.611 115.43 397.334 115.262 396.971 115.156C396.611 115.047 396.178 114.992 395.67 114.992H394.814V114.16H395.676C396.141 114.16 396.535 114.092 396.859 113.955C397.184 113.818 397.43 113.627 397.598 113.381C397.77 113.131 397.855 112.836 397.855 112.496C397.855 112.062 397.711 111.729 397.422 111.494C397.133 111.256 396.74 111.137 396.244 111.137C395.939 111.137 395.662 111.168 395.412 111.23C395.162 111.293 394.928 111.379 394.709 111.488C394.49 111.598 394.271 111.725 394.053 111.869L393.561 111.201C393.873 110.959 394.254 110.75 394.703 110.574C395.152 110.398 395.662 110.311 396.232 110.311C397.107 110.311 397.764 110.51 398.201 110.908C398.639 111.307 398.857 111.814 398.857 112.432ZM400.715 118.391C400.715 118.117 400.781 117.924 400.914 117.811C401.047 117.693 401.209 117.635 401.4 117.635C401.6 117.635 401.768 117.693 401.904 117.811C402.041 117.924 402.109 118.117 402.109 118.391C402.109 118.66 402.041 118.857 401.904 118.982C401.768 119.104 401.6 119.164 401.4 119.164C401.209 119.164 401.047 119.104 400.914 118.982C400.781 118.857 400.715 118.66 400.715 118.391ZM407.201 119H406.252V112.93C406.252 112.699 406.252 112.502 406.252 112.338C406.256 112.17 406.26 112.018 406.264 111.881C406.271 111.74 406.281 111.598 406.293 111.453C406.172 111.578 406.059 111.686 405.953 111.775C405.848 111.861 405.717 111.969 405.561 112.098L404.582 112.883L404.072 112.221L406.393 110.434H407.201V119ZM416.107 114.705C416.107 115.4 416.055 116.021 415.949 116.568C415.844 117.115 415.678 117.578 415.451 117.957C415.225 118.336 414.932 118.625 414.572 118.824C414.213 119.02 413.781 119.117 413.277 119.117C412.641 119.117 412.113 118.943 411.695 118.596C411.281 118.248 410.971 117.746 410.764 117.09C410.561 116.43 410.459 115.635 410.459 114.705C410.459 113.791 410.551 113.006 410.734 112.35C410.922 111.689 411.223 111.184 411.637 110.832C412.051 110.477 412.598 110.299 413.277 110.299C413.922 110.299 414.453 110.475 414.871 110.826C415.289 111.174 415.6 111.678 415.803 112.338C416.006 112.994 416.107 113.783 416.107 114.705ZM411.438 114.705C411.438 115.502 411.498 116.166 411.619 116.697C411.74 117.229 411.936 117.627 412.205 117.893C412.479 118.154 412.836 118.285 413.277 118.285C413.719 118.285 414.074 118.154 414.344 117.893C414.617 117.631 414.814 117.234 414.936 116.703C415.061 116.172 415.123 115.506 415.123 114.705C415.123 113.92 415.062 113.264 414.941 112.736C414.82 112.205 414.625 111.807 414.355 111.541C414.086 111.271 413.727 111.137 413.277 111.137C412.828 111.137 412.469 111.271 412.199 111.541C411.93 111.807 411.734 112.205 411.613 112.736C411.496 113.264 411.438 113.92 411.438 114.705ZM420.32 115.713C420.32 115.053 420.383 114.41 420.508 113.785C420.637 113.16 420.832 112.564 421.094 111.998C421.355 111.432 421.686 110.91 422.084 110.434H423.016C422.449 111.176 422.023 112 421.738 112.906C421.453 113.812 421.311 114.744 421.311 115.701C421.311 116.326 421.373 116.943 421.498 117.553C421.627 118.158 421.816 118.742 422.066 119.305C422.32 119.867 422.633 120.398 423.004 120.898H422.084C421.686 120.43 421.355 119.918 421.094 119.363C420.832 118.812 420.637 118.229 420.508 117.611C420.383 116.994 420.32 116.361 420.32 115.713ZM427.199 114.371H429.613V115.168H427.199V117.652H426.396V115.168H423.982V114.371H426.396V111.875H427.199V114.371ZM436.135 112.432C436.135 112.814 436.061 113.146 435.912 113.428C435.764 113.709 435.557 113.939 435.291 114.119C435.025 114.295 434.713 114.418 434.354 114.488V114.535C435.033 114.621 435.543 114.84 435.883 115.191C436.227 115.543 436.398 116.004 436.398 116.574C436.398 117.07 436.281 117.51 436.047 117.893C435.816 118.275 435.461 118.576 434.98 118.795C434.504 119.01 433.893 119.117 433.146 119.117C432.693 119.117 432.273 119.08 431.887 119.006C431.504 118.936 431.137 118.816 430.785 118.648V117.734C431.141 117.91 431.527 118.049 431.945 118.15C432.363 118.248 432.768 118.297 433.158 118.297C433.939 118.297 434.504 118.143 434.852 117.834C435.199 117.521 435.373 117.096 435.373 116.557C435.373 116.186 435.275 115.887 435.08 115.66C434.889 115.43 434.611 115.262 434.248 115.156C433.889 115.047 433.455 114.992 432.947 114.992H432.092V114.16H432.953C433.418 114.16 433.812 114.092 434.137 113.955C434.461 113.818 434.707 113.627 434.875 113.381C435.047 113.131 435.133 112.836 435.133 112.496C435.133 112.062 434.988 111.729 434.699 111.494C434.41 111.256 434.018 111.137 433.521 111.137C433.217 111.137 432.939 111.168 432.689 111.23C432.439 111.293 432.205 111.379 431.986 111.488C431.768 111.598 431.549 111.725 431.33 111.869L430.838 111.201C431.15 110.959 431.531 110.75 431.98 110.574C432.43 110.398 432.939 110.311 433.51 110.311C434.385 110.311 435.041 110.51 435.479 110.908C435.916 111.307 436.135 111.814 436.135 112.432ZM437.992 118.391C437.992 118.117 438.059 117.924 438.191 117.811C438.324 117.693 438.486 117.635 438.678 117.635C438.877 117.635 439.045 117.693 439.182 117.811C439.318 117.924 439.387 118.117 439.387 118.391C439.387 118.66 439.318 118.857 439.182 118.982C439.045 119.104 438.877 119.164 438.678 119.164C438.486 119.164 438.324 119.104 438.191 118.982C438.059 118.857 437.992 118.66 437.992 118.391ZM440.945 115.338C440.945 114.822 440.98 114.318 441.051 113.826C441.125 113.334 441.248 112.877 441.42 112.455C441.592 112.029 441.826 111.656 442.123 111.336C442.42 111.016 442.789 110.766 443.23 110.586C443.676 110.402 444.209 110.311 444.83 110.311C445.006 110.311 445.195 110.32 445.398 110.34C445.602 110.355 445.77 110.383 445.902 110.422V111.26C445.758 111.209 445.592 111.172 445.404 111.148C445.221 111.125 445.035 111.113 444.848 111.113C444.121 111.113 443.549 111.271 443.131 111.588C442.717 111.904 442.418 112.334 442.234 112.877C442.051 113.416 441.945 114.023 441.918 114.699H441.982C442.104 114.504 442.258 114.328 442.445 114.172C442.633 114.012 442.859 113.885 443.125 113.791C443.395 113.697 443.707 113.65 444.062 113.65C444.562 113.65 444.998 113.752 445.369 113.955C445.744 114.158 446.033 114.453 446.236 114.84C446.443 115.227 446.547 115.695 446.547 116.246C446.547 116.836 446.438 117.346 446.219 117.775C446 118.205 445.688 118.537 445.281 118.771C444.879 119.002 444.398 119.117 443.84 119.117C443.422 119.117 443.037 119.037 442.686 118.877C442.334 118.717 442.027 118.479 441.766 118.162C441.508 117.846 441.307 117.453 441.162 116.984C441.018 116.512 440.945 115.963 440.945 115.338ZM443.828 118.297C444.359 118.297 444.785 118.127 445.105 117.787C445.426 117.447 445.586 116.934 445.586 116.246C445.586 115.684 445.443 115.238 445.158 114.91C444.873 114.582 444.443 114.418 443.869 114.418C443.479 114.418 443.139 114.5 442.85 114.664C442.561 114.824 442.336 115.027 442.176 115.273C442.016 115.52 441.936 115.77 441.936 116.023C441.936 116.281 441.973 116.543 442.047 116.809C442.125 117.074 442.242 117.32 442.398 117.547C442.555 117.773 442.752 117.955 442.99 118.092C443.229 118.229 443.508 118.297 443.828 118.297ZM453.385 114.705C453.385 115.4 453.332 116.021 453.227 116.568C453.121 117.115 452.955 117.578 452.729 117.957C452.502 118.336 452.209 118.625 451.85 118.824C451.49 119.02 451.059 119.117 450.555 119.117C449.918 119.117 449.391 118.943 448.973 118.596C448.559 118.248 448.248 117.746 448.041 117.09C447.838 116.43 447.736 115.635 447.736 114.705C447.736 113.791 447.828 113.006 448.012 112.35C448.199 111.689 448.5 111.184 448.914 110.832C449.328 110.477 449.875 110.299 450.555 110.299C451.199 110.299 451.73 110.475 452.148 110.826C452.566 111.174 452.877 111.678 453.08 112.338C453.283 112.994 453.385 113.783 453.385 114.705ZM448.715 114.705C448.715 115.502 448.775 116.166 448.896 116.697C449.018 117.229 449.213 117.627 449.482 117.893C449.756 118.154 450.113 118.285 450.555 118.285C450.996 118.285 451.352 118.154 451.621 117.893C451.895 117.631 452.092 117.234 452.213 116.703C452.338 116.172 452.4 115.506 452.4 114.705C452.4 113.92 452.34 113.264 452.219 112.736C452.098 112.205 451.902 111.807 451.633 111.541C451.363 111.271 451.004 111.137 450.555 111.137C450.105 111.137 449.746 111.271 449.477 111.541C449.207 111.807 449.012 112.205 448.891 112.736C448.773 113.264 448.715 113.92 448.715 114.705ZM456.338 110.311C456.924 110.311 457.367 110.545 457.668 111.014C457.973 111.479 458.125 112.137 458.125 112.988C458.125 113.84 457.979 114.504 457.686 114.98C457.393 115.453 456.943 115.689 456.338 115.689C455.775 115.689 455.344 115.453 455.043 114.98C454.746 114.504 454.598 113.84 454.598 112.988C454.598 112.137 454.74 111.479 455.025 111.014C455.311 110.545 455.748 110.311 456.338 110.311ZM456.338 111.008C456.021 111.008 455.789 111.174 455.641 111.506C455.492 111.834 455.418 112.328 455.418 112.988C455.418 113.648 455.492 114.146 455.641 114.482C455.789 114.818 456.021 114.986 456.338 114.986C456.666 114.986 456.91 114.818 457.07 114.482C457.23 114.146 457.311 113.648 457.311 112.988C457.311 112.332 457.23 111.838 457.07 111.506C456.914 111.174 456.67 111.008 456.338 111.008ZM461.764 110.434L457.012 119H456.156L460.908 110.434H461.764ZM461.535 113.744C462.117 113.744 462.561 113.979 462.865 114.447C463.17 114.912 463.322 115.57 463.322 116.422C463.322 117.27 463.176 117.932 462.883 118.408C462.59 118.881 462.141 119.117 461.535 119.117C460.969 119.117 460.537 118.881 460.24 118.408C459.943 117.932 459.795 117.27 459.795 116.422C459.795 115.57 459.936 114.912 460.217 114.447C460.502 113.979 460.941 113.744 461.535 113.744ZM461.535 114.447C461.219 114.447 460.986 114.611 460.838 114.939C460.689 115.268 460.615 115.762 460.615 116.422C460.615 117.082 460.689 117.58 460.838 117.916C460.986 118.248 461.219 118.414 461.535 118.414C461.863 118.414 462.107 118.25 462.268 117.922C462.428 117.59 462.508 117.09 462.508 116.422C462.508 115.766 462.428 115.273 462.268 114.945C462.111 114.613 461.867 114.447 461.535 114.447ZM466.984 115.701C466.984 116.354 466.92 116.99 466.791 117.611C466.666 118.229 466.473 118.814 466.211 119.369C465.953 119.924 465.623 120.434 465.221 120.898H464.301C464.676 120.402 464.988 119.871 465.238 119.305C465.492 118.738 465.682 118.152 465.807 117.547C465.936 116.938 466 116.32 466 115.695C466 115.059 465.936 114.432 465.807 113.814C465.678 113.197 465.486 112.604 465.232 112.033C464.982 111.463 464.668 110.93 464.289 110.434H465.221C465.623 110.914 465.953 111.438 466.211 112.004C466.473 112.566 466.666 113.16 466.791 113.785C466.92 114.406 466.984 115.045 466.984 115.701Z" fill="#0C5D2E"/>
</svg>
