<svg width="889" height="114" viewBox="0 0 889 114" fill="none" xmlns="http://www.w3.org/2000/svg">
<rect width="889" height="114" fill="#F2F4F6"/>
<path d="M386.938 57.5469C386.938 59.3073 386.714 60.9115 386.266 62.3594C385.818 63.7969 385.151 65.0365 384.266 66.0781C383.391 67.1094 382.302 67.9062 381 68.4688C379.698 69.0312 378.188 69.3125 376.469 69.3125C374.698 69.3125 373.151 69.0312 371.828 68.4688C370.516 67.9062 369.422 67.1042 368.547 66.0625C367.682 65.0208 367.031 63.776 366.594 62.3281C366.167 60.8802 365.953 59.276 365.953 57.5156C365.953 55.1823 366.339 53.1354 367.109 51.375C367.88 49.6146 369.047 48.2448 370.609 47.2656C372.182 46.2865 374.151 45.7969 376.516 45.7969C378.776 45.7969 380.677 46.2812 382.219 47.25C383.771 48.2188 384.943 49.5833 385.734 51.3438C386.536 53.0938 386.938 55.1615 386.938 57.5469ZM368.75 57.5469C368.75 59.4844 369.026 61.1615 369.578 62.5781C370.13 63.9948 370.974 65.0885 372.109 65.8594C373.255 66.6302 374.708 67.0156 376.469 67.0156C378.24 67.0156 379.688 66.6302 380.812 65.8594C381.948 65.0885 382.786 63.9948 383.328 62.5781C383.87 61.1615 384.141 59.4844 384.141 57.5469C384.141 54.599 383.521 52.2969 382.281 50.6406C381.052 48.974 379.13 48.1406 376.516 48.1406C374.745 48.1406 373.286 48.5208 372.141 49.2812C370.995 50.0417 370.141 51.125 369.578 52.5312C369.026 53.9271 368.75 55.599 368.75 57.5469ZM399.688 51.5625C401.823 51.5625 403.526 52.2969 404.797 53.7656C406.068 55.2344 406.703 57.4427 406.703 60.3906C406.703 62.3385 406.411 63.974 405.828 65.2969C405.245 66.6198 404.422 67.6198 403.359 68.2969C402.307 68.974 401.062 69.3125 399.625 69.3125C398.719 69.3125 397.922 69.1927 397.234 68.9531C396.547 68.7135 395.958 68.3906 395.469 67.9844C394.979 67.5781 394.573 67.1354 394.25 66.6562H394.062C394.094 67.0625 394.13 67.5521 394.172 68.125C394.224 68.6979 394.25 69.1979 394.25 69.625V76.6562H391.641V51.875H393.781L394.125 54.4062H394.25C394.583 53.8854 394.99 53.4115 395.469 52.9844C395.948 52.5469 396.531 52.2031 397.219 51.9531C397.917 51.6927 398.74 51.5625 399.688 51.5625ZM399.234 53.75C398.047 53.75 397.089 53.9792 396.359 54.4375C395.641 54.8958 395.115 55.5833 394.781 56.5C394.448 57.4062 394.271 58.5469 394.25 59.9219V60.4219C394.25 61.8698 394.406 63.0938 394.719 64.0938C395.042 65.0938 395.568 65.8542 396.297 66.375C397.036 66.8958 398.026 67.1562 399.266 67.1562C400.328 67.1562 401.214 66.8698 401.922 66.2969C402.63 65.724 403.156 64.9271 403.5 63.9062C403.854 62.875 404.031 61.6927 404.031 60.3594C404.031 58.3385 403.635 56.7344 402.844 55.5469C402.062 54.349 400.859 53.75 399.234 53.75ZM417.828 51.5625C419.286 51.5625 420.536 51.8854 421.578 52.5312C422.62 53.1771 423.417 54.0833 423.969 55.25C424.521 56.4062 424.797 57.7604 424.797 59.3125V60.9219H412.969C413 62.9323 413.5 64.4635 414.469 65.5156C415.438 66.5677 416.802 67.0938 418.562 67.0938C419.646 67.0938 420.604 66.9948 421.438 66.7969C422.271 66.599 423.135 66.3073 424.031 65.9219V68.2031C423.167 68.5885 422.307 68.8698 421.453 69.0469C420.609 69.224 419.609 69.3125 418.453 69.3125C416.807 69.3125 415.37 68.9792 414.141 68.3125C412.922 67.6354 411.974 66.6458 411.297 65.3438C410.62 64.0417 410.281 62.4479 410.281 60.5625C410.281 58.7188 410.589 57.125 411.203 55.7812C411.828 54.4271 412.703 53.3854 413.828 52.6562C414.964 51.9271 416.297 51.5625 417.828 51.5625ZM417.797 53.6875C416.411 53.6875 415.307 54.1406 414.484 55.0469C413.661 55.9531 413.172 57.2188 413.016 58.8438H422.078C422.068 57.8229 421.906 56.9271 421.594 56.1562C421.292 55.375 420.828 54.7708 420.203 54.3438C419.578 53.9062 418.776 53.6875 417.797 53.6875ZM437.312 51.5625C439.344 51.5625 440.88 52.0625 441.922 53.0625C442.964 54.0521 443.484 55.6458 443.484 57.8438V69H440.922V58.0156C440.922 56.5885 440.594 55.5208 439.938 54.8125C439.292 54.1042 438.297 53.75 436.953 53.75C435.057 53.75 433.724 54.2865 432.953 55.3594C432.182 56.4323 431.797 57.9896 431.797 60.0312V69H429.203V51.875H431.297L431.688 54.3438H431.828C432.193 53.7396 432.656 53.2344 433.219 52.8281C433.781 52.4115 434.411 52.099 435.109 51.8906C435.807 51.6719 436.542 51.5625 437.312 51.5625ZM470.422 62.9219C470.422 64.276 470.083 65.4323 469.406 66.3906C468.74 67.3385 467.802 68.0625 466.594 68.5625C465.385 69.0625 463.964 69.3125 462.328 69.3125C461.464 69.3125 460.646 69.2708 459.875 69.1875C459.104 69.1042 458.396 68.9844 457.75 68.8281C457.104 68.6719 456.536 68.4792 456.047 68.25V65.7031C456.828 66.026 457.781 66.3281 458.906 66.6094C460.031 66.8802 461.208 67.0156 462.438 67.0156C463.583 67.0156 464.552 66.8646 465.344 66.5625C466.135 66.25 466.734 65.8073 467.141 65.2344C467.557 64.651 467.766 63.9531 467.766 63.1406C467.766 62.3594 467.594 61.7083 467.25 61.1875C466.906 60.6562 466.333 60.1771 465.531 59.75C464.74 59.3125 463.656 58.849 462.281 58.3594C461.312 58.0156 460.458 57.6406 459.719 57.2344C458.979 56.8177 458.359 56.349 457.859 55.8281C457.359 55.3073 456.979 54.7031 456.719 54.0156C456.469 53.3281 456.344 52.5417 456.344 51.6562C456.344 50.4375 456.651 49.3958 457.266 48.5312C457.891 47.6562 458.75 46.9896 459.844 46.5312C460.948 46.0625 462.214 45.8281 463.641 45.8281C464.859 45.8281 465.984 45.9427 467.016 46.1719C468.057 46.401 469.01 46.7083 469.875 47.0938L469.047 49.375C468.224 49.0312 467.349 48.7448 466.422 48.5156C465.505 48.2865 464.557 48.1719 463.578 48.1719C462.599 48.1719 461.771 48.3177 461.094 48.6094C460.427 48.8906 459.917 49.2917 459.562 49.8125C459.208 50.3333 459.031 50.9531 459.031 51.6719C459.031 52.474 459.198 53.1406 459.531 53.6719C459.875 54.2031 460.417 54.6771 461.156 55.0938C461.906 55.5 462.896 55.9271 464.125 56.375C465.469 56.8646 466.609 57.3854 467.547 57.9375C468.484 58.4792 469.198 59.1458 469.688 59.9375C470.177 60.7188 470.422 61.7135 470.422 62.9219ZM481.109 51.5938C483.151 51.5938 484.667 52.0521 485.656 52.9688C486.646 53.8854 487.141 55.349 487.141 57.3594V69H485.25L484.75 66.4688H484.625C484.146 67.0938 483.646 67.6198 483.125 68.0469C482.604 68.4635 482 68.7812 481.312 69C480.635 69.2083 479.802 69.3125 478.812 69.3125C477.771 69.3125 476.844 69.1302 476.031 68.7656C475.229 68.401 474.594 67.849 474.125 67.1094C473.667 66.3698 473.438 65.4323 473.438 64.2969C473.438 62.5885 474.115 61.276 475.469 60.3594C476.823 59.4427 478.885 58.9427 481.656 58.8594L484.609 58.7344V57.6875C484.609 56.2083 484.292 55.1719 483.656 54.5781C483.021 53.9844 482.125 53.6875 480.969 53.6875C480.073 53.6875 479.219 53.8177 478.406 54.0781C477.594 54.3385 476.823 54.6458 476.094 55L475.297 53.0312C476.068 52.6354 476.953 52.2969 477.953 52.0156C478.953 51.7344 480.005 51.5938 481.109 51.5938ZM484.578 60.5625L481.969 60.6719C479.833 60.7552 478.328 61.1042 477.453 61.7188C476.578 62.3333 476.141 63.2031 476.141 64.3281C476.141 65.3073 476.438 66.0312 477.031 66.5C477.625 66.9688 478.411 67.2031 479.391 67.2031C480.911 67.2031 482.156 66.7812 483.125 65.9375C484.094 65.0938 484.578 63.8281 484.578 62.1406V60.5625ZM500.594 51.5625C502.625 51.5625 504.161 52.0625 505.203 53.0625C506.245 54.0521 506.766 55.6458 506.766 57.8438V69H504.203V58.0156C504.203 56.5885 503.875 55.5208 503.219 54.8125C502.573 54.1042 501.578 53.75 500.234 53.75C498.339 53.75 497.005 54.2865 496.234 55.3594C495.464 56.4323 495.078 57.9896 495.078 60.0312V69H492.484V51.875H494.578L494.969 54.3438H495.109C495.474 53.7396 495.938 53.2344 496.5 52.8281C497.062 52.4115 497.693 52.099 498.391 51.8906C499.089 51.6719 499.823 51.5625 500.594 51.5625ZM523.188 64.3125C523.188 65.4062 522.911 66.3281 522.359 67.0781C521.818 67.8177 521.036 68.375 520.016 68.75C519.005 69.125 517.797 69.3125 516.391 69.3125C515.193 69.3125 514.156 69.2188 513.281 69.0312C512.406 68.8438 511.641 68.5781 510.984 68.2344V65.8438C511.682 66.1875 512.516 66.5 513.484 66.7812C514.453 67.0625 515.443 67.2031 516.453 67.2031C517.932 67.2031 519.005 66.9635 519.672 66.4844C520.339 66.0052 520.672 65.3542 520.672 64.5312C520.672 64.0625 520.536 63.651 520.266 63.2969C520.005 62.9323 519.562 62.5833 518.938 62.25C518.312 61.9062 517.448 61.5312 516.344 61.125C515.25 60.7083 514.302 60.2969 513.5 59.8906C512.708 59.474 512.094 58.9688 511.656 58.375C511.229 57.7812 511.016 57.0104 511.016 56.0625C511.016 54.6146 511.599 53.5052 512.766 52.7344C513.943 51.9531 515.484 51.5625 517.391 51.5625C518.422 51.5625 519.385 51.6667 520.281 51.875C521.188 52.0729 522.031 52.3438 522.812 52.6875L521.938 54.7656C521.229 54.4635 520.474 54.2083 519.672 54C518.87 53.7917 518.052 53.6875 517.219 53.6875C516.021 53.6875 515.099 53.8854 514.453 54.2812C513.818 54.6771 513.5 55.2188 513.5 55.9062C513.5 56.4375 513.646 56.875 513.938 57.2188C514.24 57.5625 514.719 57.8854 515.375 58.1875C516.031 58.4896 516.896 58.8438 517.969 59.25C519.042 59.6458 519.969 60.0573 520.75 60.4844C521.531 60.901 522.13 61.4115 522.547 62.0156C522.974 62.6094 523.188 63.375 523.188 64.3125Z" fill="#161616"/>
</svg>
