<svg width="880" height="188" viewBox="0 0 880 188" fill="none" xmlns="http://www.w3.org/2000/svg">
<rect width="880" height="188" fill="#F2F4F6"/>
<rect width="736" height="44" transform="translate(72 72)" fill="white"/>
<path d="M96.0977 94.1348C96.0977 95.5488 95.7051 96.6309 94.9199 97.3809C94.1348 98.127 93.0039 98.5 91.5273 98.5H89.1309V89.9336H91.7793C93.1426 89.9336 94.2031 90.3008 94.9609 91.0352C95.7188 91.7695 96.0977 92.8027 96.0977 94.1348ZM94.6211 94.1816C94.6211 92.1309 93.6621 91.1055 91.7441 91.1055H90.5312V97.3223H91.5273C93.5898 97.3223 94.6211 96.2754 94.6211 94.1816ZM103.389 98.5H98.5434V89.9336H103.389V91.1172H99.9438V93.4492H103.172V94.6211H99.9438V97.3105H103.389V98.5ZM105.846 98.5V89.9336H107.247V97.2988H110.874V98.5H105.846ZM117.796 98.5H112.95V89.9336H117.796V91.1172H114.351V93.4492H117.579V94.6211H114.351V97.3105H117.796V98.5ZM123.212 98.5H121.812V91.1348H119.293V89.9336H125.732V91.1348H123.212V98.5ZM132.496 98.5H127.65V89.9336H132.496V91.1172H129.051V93.4492H132.279V94.6211H129.051V97.3105H132.496V98.5Z" fill="#161616"/>
<rect width="66" height="28" transform="translate(605 80)" fill="#C5C9D0"/>
<path d="M617.717 91.3223C617.369 91.3223 617.061 91.3906 616.791 91.5273C616.525 91.6602 616.301 91.8535 616.117 92.1074C615.938 92.3613 615.801 92.668 615.707 93.0273C615.613 93.3867 615.566 93.791 615.566 94.2402C615.566 94.8457 615.641 95.3633 615.789 95.793C615.941 96.2188 616.176 96.5449 616.492 96.7715C616.809 96.9941 617.217 97.1055 617.717 97.1055C618.064 97.1055 618.412 97.0664 618.76 96.9883C619.111 96.9102 619.492 96.7988 619.902 96.6543V98.1777C619.523 98.334 619.15 98.4453 618.783 98.5117C618.416 98.582 618.004 98.6172 617.547 98.6172C616.664 98.6172 615.938 98.4355 615.367 98.0723C614.801 97.7051 614.381 97.1934 614.107 96.5371C613.834 95.877 613.697 95.1074 613.697 94.2285C613.697 93.5801 613.785 92.9863 613.961 92.4473C614.137 91.9082 614.395 91.4414 614.734 91.0469C615.074 90.6523 615.494 90.3477 615.994 90.1328C616.494 89.918 617.068 89.8105 617.717 89.8105C618.143 89.8105 618.568 89.8652 618.994 89.9746C619.424 90.0801 619.834 90.2266 620.225 90.4141L619.639 91.8906C619.318 91.7383 618.996 91.6055 618.672 91.4922C618.348 91.3789 618.029 91.3223 617.717 91.3223ZM627.575 98.5L626.954 96.4609H623.83L623.209 98.5H621.252L624.276 89.8984H626.496L629.532 98.5H627.575ZM626.52 94.9375L625.899 92.9453C625.86 92.8125 625.807 92.6426 625.741 92.4355C625.678 92.2246 625.614 92.0117 625.547 91.7969C625.485 91.5781 625.434 91.3887 625.395 91.2285C625.356 91.3887 625.301 91.5879 625.231 91.8262C625.164 92.0605 625.1 92.2832 625.038 92.4941C624.975 92.7051 624.93 92.8555 624.903 92.9453L624.288 94.9375H626.52ZM638.815 98.5H636.507L632.78 92.0195H632.727C632.743 92.2891 632.757 92.5605 632.768 92.834C632.78 93.1074 632.792 93.3809 632.804 93.6543C632.815 93.9238 632.827 94.1953 632.839 94.4688V98.5H631.216V89.9336H633.507L637.227 96.3496H637.268C637.261 96.084 637.251 95.8203 637.239 95.5586C637.227 95.2969 637.216 95.0352 637.204 94.7734C637.196 94.5117 637.188 94.25 637.18 93.9883V89.9336H638.815V98.5ZM645.216 91.3223C644.868 91.3223 644.56 91.3906 644.29 91.5273C644.025 91.6602 643.8 91.8535 643.616 92.1074C643.437 92.3613 643.3 92.668 643.206 93.0273C643.112 93.3867 643.066 93.791 643.066 94.2402C643.066 94.8457 643.14 95.3633 643.288 95.793C643.441 96.2188 643.675 96.5449 643.991 96.7715C644.308 96.9941 644.716 97.1055 645.216 97.1055C645.564 97.1055 645.911 97.0664 646.259 96.9883C646.611 96.9102 646.991 96.7988 647.402 96.6543V98.1777C647.023 98.334 646.65 98.4453 646.282 98.5117C645.915 98.582 645.503 98.6172 645.046 98.6172C644.163 98.6172 643.437 98.4355 642.866 98.0723C642.3 97.7051 641.88 97.1934 641.607 96.5371C641.333 95.877 641.196 95.1074 641.196 94.2285C641.196 93.5801 641.284 92.9863 641.46 92.4473C641.636 91.9082 641.894 91.4414 642.234 91.0469C642.573 90.6523 642.993 90.3477 643.493 90.1328C643.993 89.918 644.568 89.8105 645.216 89.8105C645.642 89.8105 646.068 89.8652 646.493 89.9746C646.923 90.0801 647.333 90.2266 647.724 90.4141L647.138 91.8906C646.818 91.7383 646.495 91.6055 646.171 91.4922C645.847 91.3789 645.529 91.3223 645.216 91.3223ZM654.763 98.5H649.83V89.9336H654.763V91.4219H651.646V93.3027H654.546V94.791H651.646V97H654.763V98.5ZM657.156 98.5V89.9336H658.973V97H662.447V98.5H657.156Z" fill="#161616"/>
<rect width="113" height="28" transform="translate(687 80)" fill="#155C93"/>
<path d="M701.135 96.1211C701.135 96.6289 701.012 97.0703 700.766 97.4453C700.52 97.8203 700.16 98.1094 699.688 98.3125C699.219 98.5156 698.648 98.6172 697.977 98.6172C697.68 98.6172 697.389 98.5977 697.104 98.5586C696.822 98.5195 696.551 98.4629 696.289 98.3887C696.031 98.3105 695.785 98.2148 695.551 98.1016V96.4141C695.957 96.5938 696.379 96.7559 696.816 96.9004C697.254 97.0449 697.688 97.1172 698.117 97.1172C698.414 97.1172 698.652 97.0781 698.832 97C699.016 96.9219 699.148 96.8145 699.23 96.6777C699.312 96.541 699.354 96.3848 699.354 96.209C699.354 95.9941 699.281 95.8105 699.137 95.6582C698.992 95.5059 698.793 95.3633 698.539 95.2305C698.289 95.0977 698.006 94.9551 697.689 94.8027C697.49 94.709 697.273 94.5957 697.039 94.4629C696.805 94.3262 696.582 94.1602 696.371 93.9648C696.16 93.7695 695.986 93.5332 695.85 93.2559C695.717 92.9746 695.65 92.6387 695.65 92.248C695.65 91.7363 695.768 91.2988 696.002 90.9355C696.236 90.5723 696.57 90.2949 697.004 90.1035C697.441 89.9082 697.957 89.8105 698.551 89.8105C698.996 89.8105 699.42 89.8633 699.822 89.9688C700.229 90.0703 700.652 90.2188 701.094 90.4141L700.508 91.8262C700.113 91.666 699.76 91.543 699.447 91.457C699.135 91.3672 698.816 91.3223 698.492 91.3223C698.266 91.3223 698.072 91.3594 697.912 91.4336C697.752 91.5039 697.631 91.6055 697.549 91.7383C697.467 91.8672 697.426 92.0176 697.426 92.1895C697.426 92.3926 697.484 92.5645 697.602 92.7051C697.723 92.8418 697.902 92.9746 698.141 93.1035C698.383 93.2324 698.684 93.3828 699.043 93.5547C699.48 93.7617 699.854 93.9785 700.162 94.2051C700.475 94.4277 700.715 94.6914 700.883 94.9961C701.051 95.2969 701.135 95.6719 701.135 96.1211ZM708.532 98.5L707.911 96.4609H704.787L704.166 98.5H702.209L705.233 89.8984H707.454L710.489 98.5H708.532ZM707.477 94.9375L706.856 92.9453C706.817 92.8125 706.764 92.6426 706.698 92.4355C706.635 92.2246 706.571 92.0117 706.504 91.7969C706.442 91.5781 706.391 91.3887 706.352 91.2285C706.313 91.3887 706.258 91.5879 706.188 91.8262C706.121 92.0605 706.057 92.2832 705.995 92.4941C705.932 92.7051 705.887 92.8555 705.86 92.9453L705.245 94.9375H707.477ZM718.893 89.9336L715.981 98.5H714.001L711.095 89.9336H712.929L714.54 95.0312C714.567 95.1172 714.612 95.2793 714.675 95.5176C714.737 95.752 714.8 96.002 714.862 96.2676C714.929 96.5293 714.973 96.7461 714.997 96.918C715.02 96.7461 715.061 96.5293 715.12 96.2676C715.182 96.0059 715.243 95.7578 715.302 95.5234C715.364 95.2852 715.409 95.1211 715.436 95.0312L717.059 89.9336H718.893ZM725.511 98.5H720.577V89.9336H725.511V91.4219H722.394V93.3027H725.294V94.791H722.394V97H725.511V98.5ZM735.26 91.3223C734.912 91.3223 734.604 91.3906 734.334 91.5273C734.068 91.6602 733.844 91.8535 733.66 92.1074C733.48 92.3613 733.344 92.668 733.25 93.0273C733.156 93.3867 733.109 93.791 733.109 94.2402C733.109 94.8457 733.184 95.3633 733.332 95.793C733.484 96.2188 733.719 96.5449 734.035 96.7715C734.352 96.9941 734.76 97.1055 735.26 97.1055C735.607 97.1055 735.955 97.0664 736.303 96.9883C736.654 96.9102 737.035 96.7988 737.445 96.6543V98.1777C737.066 98.334 736.693 98.4453 736.326 98.5117C735.959 98.582 735.547 98.6172 735.09 98.6172C734.207 98.6172 733.48 98.4355 732.91 98.0723C732.344 97.7051 731.924 97.1934 731.65 96.5371C731.377 95.877 731.24 95.1074 731.24 94.2285C731.24 93.5801 731.328 92.9863 731.504 92.4473C731.68 91.9082 731.938 91.4414 732.277 91.0469C732.617 90.6523 733.037 90.3477 733.537 90.1328C734.037 89.918 734.611 89.8105 735.26 89.8105C735.686 89.8105 736.111 89.8652 736.537 89.9746C736.967 90.0801 737.377 90.2266 737.768 90.4141L737.182 91.8906C736.861 91.7383 736.539 91.6055 736.215 91.4922C735.891 91.3789 735.572 91.3223 735.26 91.3223ZM746.893 98.5H745.082V94.8027H741.69V98.5H739.873V89.9336H741.69V93.291H745.082V89.9336H746.893V98.5ZM754.905 98.5L754.284 96.4609H751.161L750.54 98.5H748.583L751.606 89.8984H753.827L756.862 98.5H754.905ZM753.85 94.9375L753.229 92.9453C753.19 92.8125 753.138 92.6426 753.071 92.4355C753.009 92.2246 752.944 92.0117 752.878 91.7969C752.815 91.5781 752.764 91.3887 752.725 91.2285C752.686 91.3887 752.632 91.5879 752.561 91.8262C752.495 92.0605 752.43 92.2832 752.368 92.4941C752.305 92.7051 752.261 92.8555 752.233 92.9453L751.618 94.9375H753.85ZM766.146 98.5H763.837L760.111 92.0195H760.058C760.073 92.2891 760.087 92.5605 760.099 92.834C760.111 93.1074 760.122 93.3809 760.134 93.6543C760.146 93.9238 760.157 94.1953 760.169 94.4688V98.5H758.546V89.9336H760.837L764.558 96.3496H764.599C764.591 96.084 764.581 95.8203 764.57 95.5586C764.558 95.2969 764.546 95.0352 764.534 94.7734C764.527 94.5117 764.519 94.25 764.511 93.9883V89.9336H766.146V98.5ZM772.16 93.6895H775.558V98.1309C775.109 98.2793 774.642 98.3984 774.158 98.4883C773.673 98.5742 773.125 98.6172 772.511 98.6172C771.66 98.6172 770.937 98.4492 770.343 98.1133C769.75 97.7773 769.298 97.2812 768.99 96.625C768.681 95.9688 768.527 95.1621 768.527 94.2051C768.527 93.3066 768.699 92.5293 769.043 91.873C769.39 91.2168 769.896 90.709 770.56 90.3496C771.228 89.9902 772.043 89.8105 773.004 89.8105C773.457 89.8105 773.904 89.8594 774.345 89.957C774.787 90.0547 775.187 90.1816 775.546 90.3379L774.943 91.791C774.681 91.6582 774.382 91.5469 774.046 91.457C773.711 91.3672 773.359 91.3223 772.992 91.3223C772.464 91.3223 772.005 91.4434 771.615 91.6855C771.228 91.9277 770.927 92.2676 770.713 92.7051C770.502 93.1387 770.396 93.6504 770.396 94.2402C770.396 94.7988 770.472 95.2949 770.625 95.7285C770.777 96.1582 771.017 96.4961 771.345 96.7422C771.673 96.9844 772.101 97.1055 772.629 97.1055C772.886 97.1055 773.103 97.0938 773.279 97.0703C773.459 97.043 773.627 97.0156 773.783 96.9883V95.2012H772.16V93.6895ZM783.137 98.5H778.203V89.9336H783.137V91.4219H780.02V93.3027H782.92V94.791H780.02V97H783.137V98.5ZM790.586 96.1211C790.586 96.6289 790.463 97.0703 790.217 97.4453C789.971 97.8203 789.612 98.1094 789.139 98.3125C788.67 98.5156 788.1 98.6172 787.428 98.6172C787.131 98.6172 786.84 98.5977 786.555 98.5586C786.274 98.5195 786.002 98.4629 785.741 98.3887C785.483 98.3105 785.237 98.2148 785.002 98.1016V96.4141C785.409 96.5938 785.83 96.7559 786.268 96.9004C786.705 97.0449 787.139 97.1172 787.569 97.1172C787.866 97.1172 788.104 97.0781 788.284 97C788.467 96.9219 788.6 96.8145 788.682 96.6777C788.764 96.541 788.805 96.3848 788.805 96.209C788.805 95.9941 788.733 95.8105 788.588 95.6582C788.444 95.5059 788.245 95.3633 787.991 95.2305C787.741 95.0977 787.457 94.9551 787.141 94.8027C786.942 94.709 786.725 94.5957 786.491 94.4629C786.256 94.3262 786.034 94.1602 785.823 93.9648C785.612 93.7695 785.438 93.5332 785.301 93.2559C785.168 92.9746 785.102 92.6387 785.102 92.248C785.102 91.7363 785.219 91.2988 785.454 90.9355C785.688 90.5723 786.022 90.2949 786.455 90.1035C786.893 89.9082 787.409 89.8105 788.002 89.8105C788.448 89.8105 788.871 89.8633 789.274 89.9688C789.68 90.0703 790.104 90.2188 790.545 90.4141L789.959 91.8262C789.565 91.666 789.211 91.543 788.899 91.457C788.586 91.3672 788.268 91.3223 787.944 91.3223C787.717 91.3223 787.524 91.3594 787.364 91.4336C787.204 91.5039 787.082 91.6055 787 91.7383C786.918 91.8672 786.877 92.0176 786.877 92.1895C786.877 92.3926 786.936 92.5645 787.053 92.7051C787.174 92.8418 787.354 92.9746 787.592 93.1035C787.834 93.2324 788.135 93.3828 788.495 93.5547C788.932 93.7617 789.305 93.9785 789.614 94.2051C789.926 94.4277 790.166 94.6914 790.334 94.9961C790.502 95.2969 790.586 95.6719 790.586 96.1211Z" fill="white"/>
</svg>
