<svg width="196" height="194" viewBox="0 0 196 194" fill="none" xmlns="http://www.w3.org/2000/svg">
<path d="M88.9002 66.6753L88.9002 136.381" stroke="#964EA2" stroke-width="2"/>
<path d="M89.9104 66.6753H67.6854" stroke="#964EA2" stroke-width="2"/>
<path d="M143.453 48.4912L55.5626 48.4912" stroke="#964EA2" stroke-width="2"/>
<path d="M130.32 151.535H67.6854" stroke="#964EA2" stroke-width="2"/>
<path d="M109.105 66.6753L109.105 100.013" stroke="#964EA2" stroke-width="2"/>
<path d="M130.32 65.665L130.32 87.8901" stroke="#964EA2" stroke-width="2"/>
<path d="M143.453 47.481L143.453 87.8901" stroke="#964EA2" stroke-width="2"/>
<path d="M67.6854 65.665L67.6854 87.8901" stroke="#964EA2" stroke-width="2"/>
<path d="M67.6854 135.371L67.6854 152.545" stroke="#964EA2" stroke-width="2"/>
<path d="M54.5524 47.481L54.5524 87.8901" stroke="#964EA2" stroke-width="2"/>
<path d="M143.453 86.8799H130.32" stroke="#964EA2" stroke-width="2"/>
<path d="M109.105 107.084L109.105 136.381" stroke="#964EA2" stroke-width="2"/>
<path d="M130.32 66.6753H108.095" stroke="#964EA2" stroke-width="2"/>
<path d="M67.6854 86.8799H54.5524" stroke="#964EA2" stroke-width="2"/>
<path d="M130.32 136.381H108.095" stroke="#964EA2" stroke-width="2"/>
<path d="M89.9104 136.381H67.6854" stroke="#964EA2" stroke-width="2"/>
<path d="M130.32 135.371L130.32 152.545" stroke="#964EA2" stroke-width="2"/>
<rect x="177" y="5" width="14" height="14" fill="#964EA2"/>
<rect x="177" y="178" width="14" height="14" fill="#964EA2"/>
<rect x="5" y="5" width="14" height="14" fill="#964EA2"/>
<rect x="5" y="178" width="14" height="14" fill="#964EA2"/>
<path d="M98.5 12H185" stroke="#964EA2" stroke-width="2"/>
<path d="M98.5 185H185" stroke="#964EA2" stroke-width="3"/>
<path d="M12 12H98.5" stroke="#964EA2" stroke-width="2"/>
<path d="M12 12L12 185" stroke="#964EA2" stroke-width="3"/>
<path d="M184 12L184 185" stroke="#964EA2" stroke-width="2"/>
<path d="M12 185H98.5" stroke="#964EA2" stroke-width="3"/>
</svg>
