<svg width="889" height="188" viewBox="0 0 889 188" fill="none" xmlns="http://www.w3.org/2000/svg">
<rect width="889" height="188" fill="#F2F4F6"/>
<rect width="745" height="44" transform="translate(72 72)" fill="white"/>
<path d="M96.0977 94.1348C96.0977 95.5488 95.7051 96.6309 94.9199 97.3809C94.1348 98.127 93.0039 98.5 91.5273 98.5H89.1309V89.9336H91.7793C93.1426 89.9336 94.2031 90.3008 94.9609 91.0352C95.7188 91.7695 96.0977 92.8027 96.0977 94.1348ZM94.6211 94.1816C94.6211 92.1309 93.6621 91.1055 91.7441 91.1055H90.5312V97.3223H91.5273C93.5898 97.3223 94.6211 96.2754 94.6211 94.1816ZM103.389 98.5H98.5434V89.9336H103.389V91.1172H99.9438V93.4492H103.172V94.6211H99.9438V97.3105H103.389V98.5ZM105.846 98.5V89.9336H107.247V97.2988H110.874V98.5H105.846ZM117.796 98.5H112.95V89.9336H117.796V91.1172H114.351V93.4492H117.579V94.6211H114.351V97.3105H117.796V98.5ZM123.212 98.5H121.812V91.1348H119.293V89.9336H125.732V91.1348H123.212V98.5ZM132.496 98.5H127.65V89.9336H132.496V91.1172H129.051V93.4492H132.279V94.6211H129.051V97.3105H132.496V98.5Z" fill="#161616"/>
<rect width="66" height="28" transform="translate(614 80)" fill="#C5C9D0"/>
<path d="M626.717 91.3223C626.369 91.3223 626.061 91.3906 625.791 91.5273C625.525 91.6602 625.301 91.8535 625.117 92.1074C624.938 92.3613 624.801 92.668 624.707 93.0273C624.613 93.3867 624.566 93.791 624.566 94.2402C624.566 94.8457 624.641 95.3633 624.789 95.793C624.941 96.2188 625.176 96.5449 625.492 96.7715C625.809 96.9941 626.217 97.1055 626.717 97.1055C627.064 97.1055 627.412 97.0664 627.76 96.9883C628.111 96.9102 628.492 96.7988 628.902 96.6543V98.1777C628.523 98.334 628.15 98.4453 627.783 98.5117C627.416 98.582 627.004 98.6172 626.547 98.6172C625.664 98.6172 624.938 98.4355 624.367 98.0723C623.801 97.7051 623.381 97.1934 623.107 96.5371C622.834 95.877 622.697 95.1074 622.697 94.2285C622.697 93.5801 622.785 92.9863 622.961 92.4473C623.137 91.9082 623.395 91.4414 623.734 91.0469C624.074 90.6523 624.494 90.3477 624.994 90.1328C625.494 89.918 626.068 89.8105 626.717 89.8105C627.143 89.8105 627.568 89.8652 627.994 89.9746C628.424 90.0801 628.834 90.2266 629.225 90.4141L628.639 91.8906C628.318 91.7383 627.996 91.6055 627.672 91.4922C627.348 91.3789 627.029 91.3223 626.717 91.3223ZM636.575 98.5L635.954 96.4609H632.83L632.209 98.5H630.252L633.276 89.8984H635.496L638.532 98.5H636.575ZM635.52 94.9375L634.899 92.9453C634.86 92.8125 634.807 92.6426 634.741 92.4355C634.678 92.2246 634.614 92.0117 634.547 91.7969C634.485 91.5781 634.434 91.3887 634.395 91.2285C634.356 91.3887 634.301 91.5879 634.231 91.8262C634.164 92.0605 634.1 92.2832 634.038 92.4941C633.975 92.7051 633.93 92.8555 633.903 92.9453L633.288 94.9375H635.52ZM647.815 98.5H645.507L641.78 92.0195H641.727C641.743 92.2891 641.757 92.5605 641.768 92.834C641.78 93.1074 641.792 93.3809 641.804 93.6543C641.815 93.9238 641.827 94.1953 641.839 94.4688V98.5H640.216V89.9336H642.507L646.227 96.3496H646.268C646.261 96.084 646.251 95.8203 646.239 95.5586C646.227 95.2969 646.216 95.0352 646.204 94.7734C646.196 94.5117 646.188 94.25 646.18 93.9883V89.9336H647.815V98.5ZM654.216 91.3223C653.868 91.3223 653.56 91.3906 653.29 91.5273C653.025 91.6602 652.8 91.8535 652.616 92.1074C652.437 92.3613 652.3 92.668 652.206 93.0273C652.112 93.3867 652.066 93.791 652.066 94.2402C652.066 94.8457 652.14 95.3633 652.288 95.793C652.441 96.2188 652.675 96.5449 652.991 96.7715C653.308 96.9941 653.716 97.1055 654.216 97.1055C654.564 97.1055 654.911 97.0664 655.259 96.9883C655.611 96.9102 655.991 96.7988 656.402 96.6543V98.1777C656.023 98.334 655.65 98.4453 655.282 98.5117C654.915 98.582 654.503 98.6172 654.046 98.6172C653.163 98.6172 652.437 98.4355 651.866 98.0723C651.3 97.7051 650.88 97.1934 650.607 96.5371C650.333 95.877 650.196 95.1074 650.196 94.2285C650.196 93.5801 650.284 92.9863 650.46 92.4473C650.636 91.9082 650.894 91.4414 651.234 91.0469C651.573 90.6523 651.993 90.3477 652.493 90.1328C652.993 89.918 653.568 89.8105 654.216 89.8105C654.642 89.8105 655.068 89.8652 655.493 89.9746C655.923 90.0801 656.333 90.2266 656.724 90.4141L656.138 91.8906C655.818 91.7383 655.495 91.6055 655.171 91.4922C654.847 91.3789 654.529 91.3223 654.216 91.3223ZM663.763 98.5H658.83V89.9336H663.763V91.4219H660.646V93.3027H663.546V94.791H660.646V97H663.763V98.5ZM666.156 98.5V89.9336H667.973V97H671.447V98.5H666.156Z" fill="#161616"/>
<rect width="113" height="28" transform="translate(696 80)" fill="#155C93"/>
<path d="M710.135 96.1211C710.135 96.6289 710.012 97.0703 709.766 97.4453C709.52 97.8203 709.16 98.1094 708.688 98.3125C708.219 98.5156 707.648 98.6172 706.977 98.6172C706.68 98.6172 706.389 98.5977 706.104 98.5586C705.822 98.5195 705.551 98.4629 705.289 98.3887C705.031 98.3105 704.785 98.2148 704.551 98.1016V96.4141C704.957 96.5938 705.379 96.7559 705.816 96.9004C706.254 97.0449 706.688 97.1172 707.117 97.1172C707.414 97.1172 707.652 97.0781 707.832 97C708.016 96.9219 708.148 96.8145 708.23 96.6777C708.312 96.541 708.354 96.3848 708.354 96.209C708.354 95.9941 708.281 95.8105 708.137 95.6582C707.992 95.5059 707.793 95.3633 707.539 95.2305C707.289 95.0977 707.006 94.9551 706.689 94.8027C706.49 94.709 706.273 94.5957 706.039 94.4629C705.805 94.3262 705.582 94.1602 705.371 93.9648C705.16 93.7695 704.986 93.5332 704.85 93.2559C704.717 92.9746 704.65 92.6387 704.65 92.248C704.65 91.7363 704.768 91.2988 705.002 90.9355C705.236 90.5723 705.57 90.2949 706.004 90.1035C706.441 89.9082 706.957 89.8105 707.551 89.8105C707.996 89.8105 708.42 89.8633 708.822 89.9688C709.229 90.0703 709.652 90.2188 710.094 90.4141L709.508 91.8262C709.113 91.666 708.76 91.543 708.447 91.457C708.135 91.3672 707.816 91.3223 707.492 91.3223C707.266 91.3223 707.072 91.3594 706.912 91.4336C706.752 91.5039 706.631 91.6055 706.549 91.7383C706.467 91.8672 706.426 92.0176 706.426 92.1895C706.426 92.3926 706.484 92.5645 706.602 92.7051C706.723 92.8418 706.902 92.9746 707.141 93.1035C707.383 93.2324 707.684 93.3828 708.043 93.5547C708.48 93.7617 708.854 93.9785 709.162 94.2051C709.475 94.4277 709.715 94.6914 709.883 94.9961C710.051 95.2969 710.135 95.6719 710.135 96.1211ZM717.532 98.5L716.911 96.4609H713.787L713.166 98.5H711.209L714.233 89.8984H716.454L719.489 98.5H717.532ZM716.477 94.9375L715.856 92.9453C715.817 92.8125 715.764 92.6426 715.698 92.4355C715.635 92.2246 715.571 92.0117 715.504 91.7969C715.442 91.5781 715.391 91.3887 715.352 91.2285C715.313 91.3887 715.258 91.5879 715.188 91.8262C715.121 92.0605 715.057 92.2832 714.995 92.4941C714.932 92.7051 714.887 92.8555 714.86 92.9453L714.245 94.9375H716.477ZM727.893 89.9336L724.981 98.5H723.001L720.095 89.9336H721.929L723.54 95.0312C723.567 95.1172 723.612 95.2793 723.675 95.5176C723.737 95.752 723.8 96.002 723.862 96.2676C723.929 96.5293 723.973 96.7461 723.997 96.918C724.02 96.7461 724.061 96.5293 724.12 96.2676C724.182 96.0059 724.243 95.7578 724.302 95.5234C724.364 95.2852 724.409 95.1211 724.436 95.0312L726.059 89.9336H727.893ZM734.511 98.5H729.577V89.9336H734.511V91.4219H731.394V93.3027H734.294V94.791H731.394V97H734.511V98.5ZM744.26 91.3223C743.912 91.3223 743.604 91.3906 743.334 91.5273C743.068 91.6602 742.844 91.8535 742.66 92.1074C742.48 92.3613 742.344 92.668 742.25 93.0273C742.156 93.3867 742.109 93.791 742.109 94.2402C742.109 94.8457 742.184 95.3633 742.332 95.793C742.484 96.2188 742.719 96.5449 743.035 96.7715C743.352 96.9941 743.76 97.1055 744.26 97.1055C744.607 97.1055 744.955 97.0664 745.303 96.9883C745.654 96.9102 746.035 96.7988 746.445 96.6543V98.1777C746.066 98.334 745.693 98.4453 745.326 98.5117C744.959 98.582 744.547 98.6172 744.09 98.6172C743.207 98.6172 742.48 98.4355 741.91 98.0723C741.344 97.7051 740.924 97.1934 740.65 96.5371C740.377 95.877 740.24 95.1074 740.24 94.2285C740.24 93.5801 740.328 92.9863 740.504 92.4473C740.68 91.9082 740.938 91.4414 741.277 91.0469C741.617 90.6523 742.037 90.3477 742.537 90.1328C743.037 89.918 743.611 89.8105 744.26 89.8105C744.686 89.8105 745.111 89.8652 745.537 89.9746C745.967 90.0801 746.377 90.2266 746.768 90.4141L746.182 91.8906C745.861 91.7383 745.539 91.6055 745.215 91.4922C744.891 91.3789 744.572 91.3223 744.26 91.3223ZM755.893 98.5H754.082V94.8027H750.69V98.5H748.873V89.9336H750.69V93.291H754.082V89.9336H755.893V98.5ZM763.905 98.5L763.284 96.4609H760.161L759.54 98.5H757.583L760.606 89.8984H762.827L765.862 98.5H763.905ZM762.85 94.9375L762.229 92.9453C762.19 92.8125 762.138 92.6426 762.071 92.4355C762.009 92.2246 761.944 92.0117 761.878 91.7969C761.815 91.5781 761.764 91.3887 761.725 91.2285C761.686 91.3887 761.632 91.5879 761.561 91.8262C761.495 92.0605 761.43 92.2832 761.368 92.4941C761.305 92.7051 761.261 92.8555 761.233 92.9453L760.618 94.9375H762.85ZM775.146 98.5H772.837L769.111 92.0195H769.058C769.073 92.2891 769.087 92.5605 769.099 92.834C769.111 93.1074 769.122 93.3809 769.134 93.6543C769.146 93.9238 769.157 94.1953 769.169 94.4688V98.5H767.546V89.9336H769.837L773.558 96.3496H773.599C773.591 96.084 773.581 95.8203 773.57 95.5586C773.558 95.2969 773.546 95.0352 773.534 94.7734C773.527 94.5117 773.519 94.25 773.511 93.9883V89.9336H775.146V98.5ZM781.16 93.6895H784.558V98.1309C784.109 98.2793 783.642 98.3984 783.158 98.4883C782.673 98.5742 782.125 98.6172 781.511 98.6172C780.66 98.6172 779.937 98.4492 779.343 98.1133C778.75 97.7773 778.298 97.2812 777.99 96.625C777.681 95.9688 777.527 95.1621 777.527 94.2051C777.527 93.3066 777.699 92.5293 778.043 91.873C778.39 91.2168 778.896 90.709 779.56 90.3496C780.228 89.9902 781.043 89.8105 782.004 89.8105C782.457 89.8105 782.904 89.8594 783.345 89.957C783.787 90.0547 784.187 90.1816 784.546 90.3379L783.943 91.791C783.681 91.6582 783.382 91.5469 783.046 91.457C782.711 91.3672 782.359 91.3223 781.992 91.3223C781.464 91.3223 781.005 91.4434 780.615 91.6855C780.228 91.9277 779.927 92.2676 779.713 92.7051C779.502 93.1387 779.396 93.6504 779.396 94.2402C779.396 94.7988 779.472 95.2949 779.625 95.7285C779.777 96.1582 780.017 96.4961 780.345 96.7422C780.673 96.9844 781.101 97.1055 781.629 97.1055C781.886 97.1055 782.103 97.0938 782.279 97.0703C782.459 97.043 782.627 97.0156 782.783 96.9883V95.2012H781.16V93.6895ZM792.137 98.5H787.203V89.9336H792.137V91.4219H789.02V93.3027H791.92V94.791H789.02V97H792.137V98.5ZM799.586 96.1211C799.586 96.6289 799.463 97.0703 799.217 97.4453C798.971 97.8203 798.612 98.1094 798.139 98.3125C797.67 98.5156 797.1 98.6172 796.428 98.6172C796.131 98.6172 795.84 98.5977 795.555 98.5586C795.274 98.5195 795.002 98.4629 794.741 98.3887C794.483 98.3105 794.237 98.2148 794.002 98.1016V96.4141C794.409 96.5938 794.83 96.7559 795.268 96.9004C795.705 97.0449 796.139 97.1172 796.569 97.1172C796.866 97.1172 797.104 97.0781 797.284 97C797.467 96.9219 797.6 96.8145 797.682 96.6777C797.764 96.541 797.805 96.3848 797.805 96.209C797.805 95.9941 797.733 95.8105 797.588 95.6582C797.444 95.5059 797.245 95.3633 796.991 95.2305C796.741 95.0977 796.457 94.9551 796.141 94.8027C795.942 94.709 795.725 94.5957 795.491 94.4629C795.256 94.3262 795.034 94.1602 794.823 93.9648C794.612 93.7695 794.438 93.5332 794.301 93.2559C794.168 92.9746 794.102 92.6387 794.102 92.248C794.102 91.7363 794.219 91.2988 794.454 90.9355C794.688 90.5723 795.022 90.2949 795.455 90.1035C795.893 89.9082 796.409 89.8105 797.002 89.8105C797.448 89.8105 797.871 89.8633 798.274 89.9688C798.68 90.0703 799.104 90.2188 799.545 90.4141L798.959 91.8262C798.565 91.666 798.211 91.543 797.899 91.457C797.586 91.3672 797.268 91.3223 796.944 91.3223C796.717 91.3223 796.524 91.3594 796.364 91.4336C796.204 91.5039 796.082 91.6055 796 91.7383C795.918 91.8672 795.877 92.0176 795.877 92.1895C795.877 92.3926 795.936 92.5645 796.053 92.7051C796.174 92.8418 796.354 92.9746 796.592 93.1035C796.834 93.2324 797.135 93.3828 797.495 93.5547C797.932 93.7617 798.305 93.9785 798.614 94.2051C798.926 94.4277 799.166 94.6914 799.334 94.9961C799.502 95.2969 799.586 95.6719 799.586 96.1211Z" fill="white"/>
</svg>
