<svg width="880" height="410" viewBox="0 0 880 410" fill="none" xmlns="http://www.w3.org/2000/svg">
<rect width="880" height="410" fill="#F2F4F6"/>
<path d="M33.3037 32.9072C33.3037 34.0329 33.0986 34.974 32.6885 35.7305C32.2783 36.4824 31.6836 37.0498 30.9043 37.4326C30.1296 37.8109 29.1885 38 28.0811 38H25.3672V28.0059H28.3818C29.3981 28.0059 30.2731 28.1927 31.0068 28.5664C31.7406 28.9355 32.3057 29.4847 32.7021 30.2139C33.1032 30.9385 33.3037 31.8363 33.3037 32.9072ZM32.0801 32.9482C32.0801 32.0505 31.9297 31.3099 31.6289 30.7266C31.3327 30.1432 30.8952 29.7103 30.3164 29.4277C29.7422 29.1406 29.0381 28.9971 28.2041 28.9971H26.5293V37.002H27.9443C29.3206 37.002 30.3529 36.6624 31.041 35.9834C31.7337 35.3044 32.0801 34.2926 32.0801 32.9482ZM36.4893 30.5078V38H35.3545V30.5078H36.4893ZM35.9355 27.7051C36.1224 27.7051 36.2819 27.7666 36.4141 27.8896C36.5508 28.0081 36.6191 28.195 36.6191 28.4502C36.6191 28.7008 36.5508 28.8877 36.4141 29.0107C36.2819 29.1338 36.1224 29.1953 35.9355 29.1953C35.7396 29.1953 35.5755 29.1338 35.4434 29.0107C35.3158 28.8877 35.252 28.7008 35.252 28.4502C35.252 28.195 35.3158 28.0081 35.4434 27.8896C35.5755 27.7666 35.7396 27.7051 35.9355 27.7051ZM43.7422 35.9492C43.7422 36.4277 43.6214 36.8311 43.3799 37.1592C43.1429 37.4827 42.8011 37.7266 42.3545 37.8906C41.9124 38.0547 41.3838 38.1367 40.7686 38.1367C40.2445 38.1367 39.791 38.0957 39.4082 38.0137C39.0254 37.9316 38.6904 37.8154 38.4033 37.665V36.6191C38.7087 36.7695 39.0732 36.9062 39.4971 37.0293C39.9209 37.1523 40.3538 37.2139 40.7959 37.2139C41.443 37.2139 41.9124 37.109 42.2041 36.8994C42.4958 36.6898 42.6416 36.4049 42.6416 36.0449C42.6416 35.8398 42.5824 35.6598 42.4639 35.5049C42.3499 35.3454 42.1562 35.1927 41.8828 35.0469C41.6094 34.8965 41.2311 34.7324 40.748 34.5547C40.2695 34.3724 39.8548 34.1924 39.5039 34.0146C39.1576 33.8324 38.8887 33.6113 38.6973 33.3516C38.5104 33.0918 38.417 32.7546 38.417 32.3398C38.417 31.7064 38.6722 31.221 39.1826 30.8838C39.6976 30.542 40.3721 30.3711 41.2061 30.3711C41.6572 30.3711 42.0788 30.4167 42.4707 30.5078C42.8672 30.5944 43.2363 30.7129 43.5781 30.8633L43.1953 31.7725C42.8854 31.6403 42.555 31.5286 42.2041 31.4375C41.8532 31.3464 41.4954 31.3008 41.1309 31.3008C40.6068 31.3008 40.2035 31.3874 39.9209 31.5605C39.6429 31.7337 39.5039 31.9707 39.5039 32.2715C39.5039 32.5039 39.5677 32.6953 39.6953 32.8457C39.8275 32.9961 40.0371 33.1374 40.3242 33.2695C40.6113 33.4017 40.9896 33.5566 41.459 33.7344C41.9284 33.9076 42.334 34.0876 42.6758 34.2744C43.0176 34.4567 43.2796 34.68 43.4619 34.9443C43.6488 35.2041 43.7422 35.5391 43.7422 35.9492ZM49.0879 30.3711C50.0221 30.3711 50.7673 30.6924 51.3232 31.335C51.8792 31.9775 52.1572 32.9437 52.1572 34.2334C52.1572 35.0856 52.0296 35.8011 51.7744 36.3799C51.5192 36.9587 51.1592 37.3962 50.6943 37.6924C50.234 37.9886 49.6895 38.1367 49.0605 38.1367C48.6641 38.1367 48.3154 38.0843 48.0146 37.9795C47.7139 37.8747 47.4564 37.7334 47.2422 37.5557C47.028 37.3779 46.8503 37.1842 46.709 36.9746H46.627C46.6406 37.1523 46.6566 37.3665 46.6748 37.6172C46.6976 37.8678 46.709 38.0866 46.709 38.2734V41.3496H45.5674V30.5078H46.5039L46.6543 31.6152H46.709C46.8548 31.3874 47.0326 31.18 47.2422 30.9932C47.4518 30.8018 47.707 30.6514 48.0078 30.542C48.3132 30.4281 48.6732 30.3711 49.0879 30.3711ZM48.8896 31.3281C48.3701 31.3281 47.9508 31.4284 47.6318 31.6289C47.3174 31.8294 47.0872 32.1302 46.9414 32.5312C46.7956 32.9277 46.7181 33.4268 46.709 34.0283V34.2471C46.709 34.8805 46.7773 35.416 46.9141 35.8535C47.0553 36.291 47.2855 36.6237 47.6045 36.8516C47.9281 37.0794 48.361 37.1934 48.9033 37.1934C49.3682 37.1934 49.7555 37.068 50.0654 36.8174C50.3753 36.5667 50.6055 36.2181 50.7559 35.7715C50.9108 35.3203 50.9883 34.8031 50.9883 34.2197C50.9883 33.3356 50.8151 32.6338 50.4688 32.1143C50.127 31.5902 49.6006 31.3281 48.8896 31.3281ZM55.2812 38H54.1396V27.3633H55.2812V38ZM60.4834 30.3848C61.3766 30.3848 62.0397 30.5853 62.4727 30.9863C62.9056 31.3874 63.1221 32.0277 63.1221 32.9072V38H62.2949L62.0762 36.8926H62.0215C61.8118 37.166 61.5931 37.3962 61.3652 37.583C61.1374 37.7653 60.873 37.9043 60.5723 38C60.276 38.0911 59.9115 38.1367 59.4785 38.1367C59.0228 38.1367 58.6172 38.057 58.2617 37.8975C57.9108 37.738 57.6328 37.4964 57.4277 37.1729C57.2272 36.8493 57.127 36.4391 57.127 35.9424C57.127 35.195 57.4232 34.6208 58.0156 34.2197C58.6081 33.8187 59.5104 33.5999 60.7227 33.5635L62.0146 33.5088V33.0508C62.0146 32.4036 61.8757 31.9502 61.5977 31.6904C61.3197 31.4307 60.9277 31.3008 60.4219 31.3008C60.0299 31.3008 59.6562 31.3577 59.3008 31.4717C58.9453 31.5856 58.6081 31.7201 58.2891 31.875L57.9404 31.0137C58.2777 30.8405 58.665 30.6924 59.1025 30.5693C59.54 30.4463 60.0003 30.3848 60.4834 30.3848ZM62.001 34.3086L60.8594 34.3564C59.9251 34.3929 59.2666 34.5456 58.8838 34.8145C58.501 35.0833 58.3096 35.4639 58.3096 35.9561C58.3096 36.3844 58.4395 36.7012 58.6992 36.9062C58.959 37.1113 59.3031 37.2139 59.7314 37.2139C60.3968 37.2139 60.9414 37.0293 61.3652 36.6602C61.7891 36.291 62.001 35.7373 62.001 34.999V34.3086ZM64.2773 30.5078H65.4941L67.1484 34.8555C67.2441 35.1107 67.333 35.3568 67.415 35.5938C67.4971 35.8262 67.57 36.0495 67.6338 36.2637C67.6976 36.4779 67.7477 36.6852 67.7842 36.8857H67.832C67.8958 36.6579 67.987 36.3594 68.1055 35.9902C68.224 35.6165 68.3516 35.236 68.4883 34.8486L70.0537 30.5078H71.2773L68.0166 39.1006C67.8434 39.5609 67.6406 39.9619 67.4082 40.3037C67.1803 40.6455 66.9023 40.9076 66.5742 41.0898C66.2461 41.2767 65.8496 41.3701 65.3848 41.3701C65.1706 41.3701 64.9814 41.3564 64.8174 41.3291C64.6533 41.3063 64.512 41.279 64.3936 41.2471V40.3379C64.4938 40.3607 64.6146 40.3812 64.7559 40.3994C64.9017 40.4176 65.0521 40.4268 65.207 40.4268C65.4896 40.4268 65.7334 40.3721 65.9385 40.2627C66.1481 40.1579 66.3281 40.0029 66.4785 39.7979C66.6289 39.5928 66.7588 39.349 66.8682 39.0664L67.2783 38.0137L64.2773 30.5078ZM79.8291 38H78.7217V30.918C78.7217 30.6491 78.7217 30.4189 78.7217 30.2275C78.7262 30.0316 78.7308 29.8538 78.7354 29.6943C78.7445 29.5303 78.7559 29.3639 78.7695 29.1953C78.6283 29.3411 78.4961 29.4665 78.373 29.5713C78.25 29.6715 78.0973 29.7969 77.915 29.9473L76.7734 30.8633L76.1787 30.0908L78.8857 28.0059H79.8291V38Z" fill="#61656E"/>
<path d="M160.951 80L157.181 69.2949H142.441L138.671 80H132L146.344 41.293H153.357L167.675 80H160.951ZM155.546 63.8633L151.881 53.3164C151.74 52.8594 151.538 52.2178 151.274 51.3916C151.011 50.5479 150.747 49.6953 150.483 48.834C150.22 47.9551 150 47.2168 149.824 46.6191C149.648 47.3398 149.429 48.1484 149.165 49.0449C148.919 49.9238 148.673 50.75 148.427 51.5234C148.198 52.2969 148.022 52.8945 147.899 53.3164L144.208 63.8633H155.546ZM183.574 50.2578C187.266 50.2578 190.052 51.0752 191.933 52.71C193.831 54.3447 194.78 56.8936 194.78 60.3564V80H190.377L189.19 75.8604H188.979C188.153 76.915 187.301 77.7852 186.422 78.4707C185.543 79.1562 184.523 79.666 183.363 80C182.221 80.3516 180.823 80.5273 179.171 80.5273C177.431 80.5273 175.875 80.2109 174.504 79.5781C173.133 78.9277 172.052 77.9434 171.261 76.625C170.47 75.3066 170.074 73.6367 170.074 71.6152C170.074 68.6094 171.19 66.3506 173.423 64.8389C175.673 63.3271 179.065 62.4922 183.601 62.334L188.663 62.1494V60.6201C188.663 58.5986 188.188 57.1572 187.239 56.2959C186.308 55.4346 184.989 55.0039 183.284 55.0039C181.825 55.0039 180.41 55.2148 179.039 55.6367C177.668 56.0586 176.332 56.5771 175.031 57.1924L173.027 52.8154C174.451 52.0596 176.068 51.4443 177.879 50.9697C179.707 50.4951 181.605 50.2578 183.574 50.2578ZM188.637 66.0518L184.866 66.1836C181.772 66.2891 179.602 66.8164 178.354 67.7656C177.105 68.7148 176.481 70.0156 176.481 71.668C176.481 73.1094 176.912 74.1641 177.773 74.832C178.635 75.4824 179.769 75.8076 181.175 75.8076C183.319 75.8076 185.095 75.2012 186.501 73.9883C187.925 72.7578 188.637 70.9561 188.637 68.583V66.0518ZM204.088 41.4512H215.558C220.532 41.4512 224.285 42.1719 226.816 43.6133C229.348 45.0547 230.613 47.542 230.613 51.0752C230.613 52.5518 230.35 53.8877 229.822 55.083C229.312 56.2607 228.565 57.2363 227.581 58.0098C226.597 58.7656 225.384 59.2754 223.942 59.5391V59.8027C225.437 60.0664 226.764 60.5322 227.924 61.2002C229.102 61.8682 230.024 62.8262 230.692 64.0742C231.378 65.3223 231.721 66.9395 231.721 68.9258C231.721 71.2812 231.158 73.2852 230.033 74.9375C228.926 76.5898 227.335 77.8467 225.261 78.708C223.204 79.5693 220.761 80 217.931 80H204.088V41.4512ZM210.416 57.3506H216.48C219.346 57.3506 221.332 56.8848 222.439 55.9531C223.547 55.0215 224.101 53.6592 224.101 51.8662C224.101 50.0381 223.441 48.7197 222.123 47.9111C220.822 47.1025 218.748 46.6982 215.9 46.6982H210.416V57.3506ZM210.416 62.4658V74.7002H217.087C220.04 74.7002 222.114 74.1289 223.31 72.9863C224.505 71.8438 225.103 70.2969 225.103 68.3457C225.103 67.1504 224.83 66.1133 224.285 65.2344C223.758 64.3555 222.888 63.6787 221.675 63.2041C220.462 62.7119 218.827 62.4658 216.771 62.4658H210.416ZM245.247 38.9727V48.8604C245.247 50.0029 245.212 51.1279 245.142 52.2354C245.089 53.3252 245.036 54.1777 244.983 54.793H245.247C246.038 53.5273 247.137 52.4639 248.543 51.6025C249.967 50.7236 251.786 50.2842 254.001 50.2842C257.464 50.2842 260.25 51.5586 262.359 54.1074C264.469 56.6387 265.523 60.3916 265.523 65.3662C265.523 68.6709 265.04 71.4482 264.073 73.6982C263.106 75.9482 261.744 77.6533 259.986 78.8135C258.246 79.9561 256.198 80.5273 253.843 80.5273C251.628 80.5273 249.835 80.123 248.464 79.3145C247.11 78.4883 246.047 77.5303 245.273 76.4404H244.825L243.691 80H239.051V38.9727H245.247ZM252.366 55.3203C250.608 55.3203 249.211 55.6719 248.174 56.375C247.154 57.0781 246.416 58.1328 245.959 59.5391C245.502 60.9277 245.265 62.6943 245.247 64.8389V65.3926C245.247 68.6445 245.757 71.1318 246.776 72.8545C247.813 74.5771 249.694 75.4385 252.419 75.4385C254.581 75.4385 256.242 74.5684 257.402 72.8281C258.562 71.0703 259.143 68.5566 259.143 65.2871C259.143 61.9824 258.562 59.4951 257.402 57.8252C256.26 56.1553 254.581 55.3203 252.366 55.3203ZM289.755 46.2764C287.909 46.2764 286.257 46.6104 284.798 47.2783C283.356 47.9463 282.135 48.9131 281.133 50.1787C280.131 51.4268 279.366 52.9473 278.839 54.7402C278.312 56.5156 278.048 58.5195 278.048 60.752C278.048 63.7402 278.47 66.3154 279.313 68.4775C280.157 70.6221 281.44 72.2744 283.163 73.4346C284.886 74.5771 287.065 75.1484 289.702 75.1484C291.337 75.1484 292.928 74.9902 294.475 74.6738C296.021 74.3574 297.621 73.9268 299.273 73.3818V78.7607C297.709 79.376 296.127 79.8242 294.527 80.1055C292.928 80.3867 291.082 80.5273 288.99 80.5273C285.053 80.5273 281.783 79.71 279.182 78.0752C276.598 76.4404 274.664 74.1377 273.381 71.167C272.115 68.1963 271.482 64.7158 271.482 60.7256C271.482 57.8076 271.887 55.1357 272.695 52.71C273.504 50.2842 274.682 48.1924 276.229 46.4346C277.775 44.6592 279.683 43.2969 281.95 42.3477C284.235 41.3809 286.846 40.8975 289.781 40.8975C291.715 40.8975 293.613 41.1172 295.477 41.5566C297.357 41.9785 299.098 42.585 300.697 43.376L298.482 48.5967C297.146 47.9639 295.749 47.4189 294.29 46.9619C292.831 46.5049 291.319 46.2764 289.755 46.2764ZM318.68 80.5273C315.92 80.5273 313.529 79.9912 311.508 78.9189C309.486 77.8467 307.931 76.2031 306.841 73.9883C305.751 71.7734 305.206 68.9609 305.206 65.5508C305.206 62 305.804 59.0996 306.999 56.8496C308.194 54.5996 309.847 52.9385 311.956 51.8662C314.083 50.7939 316.518 50.2578 319.26 50.2578C321 50.2578 322.573 50.4336 323.979 50.7852C325.403 51.1191 326.607 51.5322 327.592 52.0244L325.746 56.9814C324.674 56.542 323.575 56.1729 322.45 55.874C321.325 55.5752 320.244 55.4258 319.207 55.4258C317.502 55.4258 316.078 55.8037 314.936 56.5596C313.811 57.3154 312.967 58.4404 312.404 59.9346C311.859 61.4287 311.587 63.2832 311.587 65.498C311.587 67.6426 311.868 69.4531 312.431 70.9297C312.993 72.3887 313.828 73.4961 314.936 74.252C316.043 74.9902 317.405 75.3594 319.022 75.3594C320.622 75.3594 322.055 75.166 323.32 74.7793C324.586 74.3926 325.781 73.8916 326.906 73.2764V78.6553C325.799 79.2881 324.612 79.7539 323.347 80.0527C322.081 80.3691 320.525 80.5273 318.68 80.5273ZM365.692 60.3564C365.692 64.6982 364.884 68.3281 363.267 71.2461C361.649 74.1465 359.303 76.335 356.227 77.8115C353.15 79.2705 349.441 80 345.1 80H334.395V41.4512H346.26C350.25 41.4512 353.695 42.1719 356.596 43.6133C359.496 45.0371 361.737 47.1553 363.319 49.9678C364.901 52.7627 365.692 56.2256 365.692 60.3564ZM359.101 60.541C359.101 57.377 358.6 54.7754 357.598 52.7363C356.613 50.6973 355.154 49.1855 353.221 48.2012C351.305 47.1992 348.94 46.6982 346.128 46.6982H340.723V74.7002H345.205C349.863 74.7002 353.344 73.5137 355.646 71.1406C357.949 68.7676 359.101 65.2344 359.101 60.541ZM383.174 80.5273C379.693 80.5273 376.898 79.2617 374.789 76.7305C372.697 74.1816 371.651 70.4287 371.651 65.4717C371.651 60.4619 372.715 56.6738 374.842 54.1074C376.986 51.541 379.808 50.2578 383.306 50.2578C384.782 50.2578 386.074 50.46 387.182 50.8643C388.289 51.251 389.238 51.7783 390.029 52.4463C390.838 53.1143 391.523 53.8613 392.086 54.6875H392.376C392.288 54.1426 392.183 53.3604 392.06 52.3408C391.954 51.3037 391.901 50.3457 391.901 49.4668V38.9727H398.124V80H393.272L392.165 76.0186H391.901C391.374 76.8623 390.706 77.627 389.897 78.3125C389.106 78.9805 388.157 79.5166 387.05 79.9209C385.96 80.3252 384.668 80.5273 383.174 80.5273ZM384.914 75.4912C387.568 75.4912 389.44 74.7266 390.53 73.1973C391.62 71.668 392.183 69.374 392.218 66.3154V65.498C392.218 62.2285 391.69 59.7236 390.636 57.9834C389.581 56.2256 387.656 55.3467 384.861 55.3467C382.629 55.3467 380.924 56.252 379.746 58.0625C378.586 59.8555 378.006 62.3604 378.006 65.5771C378.006 68.7939 378.586 71.2549 379.746 72.96C380.924 74.6475 382.646 75.4912 384.914 75.4912ZM429.475 80H407.643V41.4512H429.475V46.7773H413.971V57.2451H428.499V62.5449H413.971V74.6475H429.475V80ZM448.802 50.2578C451.403 50.2578 453.636 50.7939 455.499 51.8662C457.362 52.9385 458.795 54.459 459.797 56.4277C460.799 58.3965 461.3 60.752 461.3 63.4941V66.8164H441.814C441.885 69.6465 442.641 71.8262 444.082 73.3555C445.541 74.8848 447.58 75.6494 450.199 75.6494C452.062 75.6494 453.732 75.4736 455.209 75.1221C456.703 74.7529 458.241 74.2168 459.823 73.5137V78.5498C458.364 79.2354 456.879 79.7363 455.367 80.0527C453.855 80.3691 452.045 80.5273 449.936 80.5273C447.07 80.5273 444.548 79.9736 442.368 78.8662C440.206 77.7412 438.51 76.0713 437.279 73.8564C436.066 71.6416 435.46 68.8906 435.46 65.6035C435.46 62.334 436.014 59.5566 437.121 57.2715C438.229 54.9863 439.784 53.2461 441.788 52.0508C443.792 50.8555 446.13 50.2578 448.802 50.2578ZM448.802 54.9248C446.851 54.9248 445.269 55.5576 444.056 56.8232C442.86 58.0889 442.157 59.9434 441.946 62.3867H455.235C455.218 60.9277 454.972 59.6357 454.497 58.5107C454.04 57.3857 453.337 56.5068 452.388 55.874C451.456 55.2412 450.261 54.9248 448.802 54.9248ZM475.195 80H468.92V41.4512H490.699V46.7773H475.195V58.8008H489.697V64.1006H475.195V80ZM511.661 55.5312H504.568V80H498.372V55.5312H493.6V52.5518L498.372 50.7324V48.7021C498.372 46.2236 498.759 44.2549 499.532 42.7959C500.323 41.3369 501.448 40.291 502.907 39.6582C504.384 39.0078 506.142 38.6826 508.181 38.6826C509.517 38.6826 510.738 38.7969 511.846 39.0254C512.953 39.2363 513.885 39.4824 514.641 39.7637L513.032 44.457C512.435 44.2637 511.767 44.0879 511.028 43.9297C510.29 43.7539 509.499 43.666 508.655 43.666C507.249 43.666 506.212 44.1055 505.544 44.9844C504.894 45.8633 504.568 47.1465 504.568 48.834V50.8115H511.661V55.5312ZM532.834 59.0645H547.23V78.418C545.209 79.0859 543.117 79.6045 540.955 79.9736C538.793 80.3428 536.367 80.5273 533.678 80.5273C529.758 80.5273 526.436 79.7539 523.711 78.207C521.004 76.6426 518.947 74.3838 517.541 71.4307C516.135 68.46 515.432 64.8828 515.432 60.6992C515.432 56.6738 516.214 53.1846 517.778 50.2314C519.343 47.2607 521.619 44.9668 524.607 43.3496C527.596 41.7148 531.217 40.8975 535.471 40.8975C537.562 40.8975 539.584 41.1084 541.535 41.5303C543.504 41.9346 545.306 42.4971 546.94 43.2178L544.726 48.4385C543.425 47.8232 541.966 47.3047 540.349 46.8828C538.731 46.4609 537.053 46.25 535.312 46.25C532.553 46.25 530.171 46.8477 528.167 48.043C526.181 49.2383 524.651 50.9258 523.579 53.1055C522.507 55.2676 521.971 57.8252 521.971 60.7783C521.971 63.6436 522.401 66.1572 523.263 68.3193C524.124 70.4814 525.469 72.1689 527.297 73.3818C529.143 74.5771 531.524 75.1748 534.442 75.1748C535.901 75.1748 537.141 75.0957 538.16 74.9375C539.18 74.7793 540.12 74.6035 540.981 74.4102V64.4697H532.834V59.0645ZM564.158 92.9727C560.203 92.9727 557.171 92.2607 555.062 90.8369C552.952 89.4131 551.897 87.418 551.897 84.8516C551.897 83.0586 552.46 81.5381 553.585 80.29C554.71 79.0596 556.318 78.207 558.41 77.7324C557.619 77.3809 556.934 76.8359 556.354 76.0977C555.791 75.3418 555.51 74.5068 555.51 73.5928C555.51 72.5029 555.817 71.5713 556.433 70.7979C557.048 70.0244 557.971 69.2773 559.201 68.5566C557.672 67.9062 556.441 66.8516 555.51 65.3926C554.596 63.916 554.139 62.1846 554.139 60.1982C554.139 58.0889 554.587 56.2959 555.483 54.8193C556.38 53.3252 557.689 52.1914 559.412 51.418C561.135 50.627 563.218 50.2314 565.661 50.2314C566.188 50.2314 566.76 50.2666 567.375 50.3369C568.008 50.3896 568.588 50.46 569.115 50.5479C569.66 50.6182 570.073 50.6973 570.354 50.7852H580.453V54.2393L575.496 55.1621C575.971 55.8301 576.349 56.5947 576.63 57.4561C576.911 58.2998 577.052 59.2227 577.052 60.2246C577.052 63.248 576.006 65.6299 573.914 67.3701C571.84 69.0928 568.975 69.9541 565.318 69.9541C564.439 69.9189 563.587 69.8486 562.761 69.7432C562.128 70.1299 561.645 70.5605 561.311 71.0352C560.977 71.4922 560.81 72.0107 560.81 72.5908C560.81 73.0654 560.977 73.4521 561.311 73.751C561.645 74.0322 562.137 74.2432 562.787 74.3838C563.455 74.5244 564.264 74.5947 565.213 74.5947H570.249C573.448 74.5947 575.892 75.2715 577.579 76.625C579.267 77.9785 580.11 79.9648 580.11 82.584C580.11 85.9062 578.739 88.4639 575.997 90.2568C573.255 92.0674 569.309 92.9727 564.158 92.9727ZM564.396 88.6221C566.558 88.6221 568.377 88.4111 569.854 87.9893C571.33 87.5674 572.446 86.9609 573.202 86.1699C573.958 85.3965 574.336 84.4736 574.336 83.4014C574.336 82.4521 574.099 81.7227 573.624 81.2129C573.149 80.7031 572.438 80.3516 571.488 80.1582C570.539 79.9648 569.361 79.8682 567.955 79.8682H563.367C562.225 79.8682 561.214 80.0439 560.335 80.3955C559.456 80.7646 558.771 81.292 558.278 81.9775C557.804 82.6631 557.566 83.4893 557.566 84.4561C557.566 85.792 558.155 86.8203 559.333 87.541C560.528 88.2617 562.216 88.6221 564.396 88.6221ZM565.608 65.8936C567.419 65.8936 568.764 65.4014 569.643 64.417C570.521 63.415 570.961 62.0088 570.961 60.1982C570.961 58.2295 570.504 56.7529 569.59 55.7686C568.693 54.7842 567.357 54.292 565.582 54.292C563.842 54.292 562.515 54.793 561.601 55.7949C560.704 56.7969 560.256 58.2822 560.256 60.251C560.256 62.0264 560.704 63.415 561.601 64.417C562.515 65.4014 563.851 65.8936 565.608 65.8936ZM152.646 150H146.423V125.188C146.423 124.362 146.432 123.536 146.449 122.71C146.467 121.884 146.484 121.075 146.502 120.284C146.537 119.493 146.581 118.737 146.634 118.017C146.265 118.421 145.808 118.86 145.263 119.335C144.735 119.81 144.173 120.302 143.575 120.812L139.146 124.345L136.034 120.416L147.478 111.451H152.646V150ZM191.432 150H165.328V145.333L175.321 135.208C177.255 133.239 178.846 131.543 180.094 130.119C181.342 128.678 182.265 127.315 182.862 126.032C183.478 124.749 183.785 123.352 183.785 121.84C183.785 119.977 183.249 118.57 182.177 117.621C181.104 116.654 179.689 116.171 177.932 116.171C176.262 116.171 174.715 116.505 173.291 117.173C171.885 117.823 170.426 118.755 168.914 119.968L165.513 115.881C166.585 114.967 167.728 114.132 168.94 113.376C170.171 112.62 171.542 112.022 173.054 111.583C174.565 111.126 176.288 110.897 178.222 110.897C180.665 110.897 182.774 111.337 184.55 112.216C186.325 113.077 187.688 114.281 188.637 115.828C189.604 117.375 190.087 119.177 190.087 121.233C190.087 123.308 189.674 125.224 188.848 126.981C188.021 128.739 186.844 130.479 185.314 132.202C183.785 133.907 181.966 135.762 179.856 137.766L173.186 144.278V144.568H191.432V150ZM220.857 120.258C220.857 121.998 220.506 123.51 219.803 124.793C219.1 126.076 218.133 127.131 216.902 127.957C215.689 128.766 214.283 129.346 212.684 129.697V129.882C215.76 130.269 218.08 131.235 219.645 132.782C221.227 134.329 222.018 136.377 222.018 138.926C222.018 141.158 221.481 143.153 220.409 144.911C219.337 146.651 217.693 148.022 215.479 149.024C213.264 150.026 210.416 150.527 206.936 150.527C204.844 150.527 202.901 150.36 201.108 150.026C199.333 149.692 197.646 149.156 196.046 148.418V142.907C197.681 143.716 199.421 144.34 201.267 144.779C203.112 145.219 204.861 145.438 206.514 145.438C209.73 145.438 212.024 144.841 213.396 143.646C214.767 142.433 215.452 140.763 215.452 138.636C215.452 137.265 215.092 136.14 214.371 135.261C213.668 134.382 212.569 133.723 211.075 133.283C209.599 132.844 207.691 132.624 205.354 132.624H201.952V127.641H205.38C207.612 127.641 209.405 127.377 210.759 126.85C212.112 126.305 213.088 125.558 213.686 124.608C214.301 123.659 214.608 122.552 214.608 121.286C214.608 119.634 214.072 118.351 213 117.437C211.928 116.505 210.337 116.039 208.228 116.039C206.927 116.039 205.74 116.188 204.668 116.487C203.613 116.786 202.638 117.164 201.741 117.621C200.845 118.078 199.992 118.57 199.184 119.098L196.204 114.8C197.663 113.71 199.403 112.787 201.425 112.031C203.446 111.275 205.802 110.897 208.491 110.897C212.446 110.897 215.496 111.75 217.641 113.455C219.785 115.143 220.857 117.41 220.857 120.258ZM254.634 141.536H249.413V150H243.296V141.536H225.762V136.843L243.375 111.346H249.413V136.395H254.634V141.536ZM243.296 136.395V126.823C243.296 126.032 243.305 125.232 243.322 124.424C243.357 123.598 243.393 122.807 243.428 122.051C243.463 121.295 243.498 120.601 243.533 119.968C243.568 119.317 243.595 118.781 243.612 118.359H243.401C243.067 119.062 242.698 119.783 242.294 120.521C241.89 121.242 241.459 121.945 241.002 122.631L231.51 136.395H243.296ZM271.14 125.9C273.618 125.9 275.798 126.349 277.679 127.245C279.577 128.124 281.054 129.425 282.108 131.147C283.163 132.853 283.69 134.944 283.69 137.423C283.69 140.13 283.119 142.468 281.977 144.437C280.834 146.388 279.155 147.891 276.94 148.945C274.726 150 272.027 150.527 268.846 150.527C266.824 150.527 264.935 150.352 263.177 150C261.437 149.648 259.934 149.121 258.668 148.418V142.828C259.986 143.566 261.568 144.173 263.414 144.647C265.26 145.104 267.026 145.333 268.714 145.333C270.507 145.333 272.045 145.069 273.328 144.542C274.611 144.015 275.596 143.206 276.281 142.116C276.984 141.026 277.336 139.646 277.336 137.977C277.336 135.762 276.624 134.057 275.2 132.861C273.794 131.648 271.588 131.042 268.582 131.042C267.527 131.042 266.402 131.139 265.207 131.332C264.029 131.508 263.045 131.701 262.254 131.912L259.538 130.304L260.988 111.451H281.027V116.909H266.446L265.603 126.507C266.235 126.366 266.991 126.234 267.87 126.111C268.749 125.971 269.839 125.9 271.14 125.9ZM288.99 133.573C288.99 131.306 289.148 129.073 289.465 126.876C289.799 124.679 290.361 122.622 291.152 120.706C291.943 118.79 293.033 117.103 294.422 115.644C295.828 114.185 297.595 113.042 299.722 112.216C301.849 111.372 304.406 110.95 307.395 110.95C308.168 110.95 309.038 110.985 310.005 111.056C310.972 111.126 311.771 111.24 312.404 111.398V116.54C311.719 116.347 310.963 116.197 310.137 116.092C309.328 115.986 308.52 115.934 307.711 115.934C304.477 115.934 301.954 116.549 300.144 117.779C298.333 118.992 297.041 120.662 296.268 122.789C295.494 124.898 295.046 127.315 294.923 130.04H295.239C295.767 129.161 296.426 128.379 297.217 127.693C298.008 127.008 298.975 126.463 300.117 126.059C301.26 125.637 302.587 125.426 304.099 125.426C306.349 125.426 308.309 125.9 309.979 126.85C311.648 127.781 312.932 129.135 313.828 130.91C314.742 132.686 315.199 134.839 315.199 137.37C315.199 140.095 314.681 142.441 313.644 144.41C312.624 146.379 311.165 147.891 309.267 148.945C307.386 150 305.145 150.527 302.543 150.527C300.627 150.527 298.843 150.176 297.19 149.473C295.556 148.77 294.123 147.715 292.893 146.309C291.662 144.902 290.704 143.145 290.019 141.035C289.333 138.908 288.99 136.421 288.99 133.573ZM302.438 145.412C304.441 145.412 306.05 144.762 307.263 143.461C308.493 142.143 309.108 140.13 309.108 137.423C309.108 135.226 308.563 133.485 307.474 132.202C306.401 130.919 304.784 130.277 302.622 130.277C301.146 130.277 299.854 130.594 298.746 131.227C297.639 131.859 296.777 132.659 296.162 133.626C295.564 134.593 295.266 135.577 295.266 136.579C295.266 137.599 295.415 138.627 295.714 139.664C296.013 140.701 296.461 141.659 297.059 142.538C297.656 143.399 298.403 144.094 299.3 144.621C300.196 145.148 301.242 145.412 302.438 145.412ZM324.243 150L339.378 116.883H319.365V111.451H346.049V115.696L330.914 150H324.243ZM363.741 110.924C365.974 110.924 367.986 111.275 369.779 111.979C371.572 112.664 372.996 113.692 374.051 115.063C375.105 116.435 375.633 118.131 375.633 120.152C375.633 121.717 375.308 123.079 374.657 124.239C374.024 125.399 373.163 126.419 372.073 127.298C370.983 128.159 369.762 128.924 368.408 129.592C369.92 130.33 371.309 131.183 372.574 132.149C373.857 133.099 374.886 134.215 375.659 135.498C376.45 136.781 376.846 138.284 376.846 140.007C376.846 142.169 376.292 144.041 375.185 145.623C374.095 147.188 372.574 148.4 370.623 149.262C368.672 150.105 366.396 150.527 363.794 150.527C360.999 150.527 358.617 150.114 356.648 149.288C354.68 148.462 353.186 147.284 352.166 145.755C351.146 144.208 350.637 142.362 350.637 140.218C350.637 138.442 350.988 136.904 351.691 135.604C352.395 134.303 353.335 133.178 354.513 132.229C355.708 131.279 357.018 130.479 358.441 129.829C357.229 129.108 356.121 128.3 355.119 127.403C354.117 126.489 353.317 125.443 352.72 124.266C352.14 123.07 351.85 121.69 351.85 120.126C351.85 118.122 352.386 116.443 353.458 115.09C354.53 113.719 355.963 112.682 357.756 111.979C359.566 111.275 361.562 110.924 363.741 110.924ZM356.543 139.98C356.543 141.668 357.141 143.057 358.336 144.146C359.531 145.236 361.315 145.781 363.688 145.781C366.044 145.781 367.837 145.245 369.067 144.173C370.298 143.101 370.913 141.686 370.913 139.928C370.913 138.803 370.597 137.81 369.964 136.948C369.349 136.087 368.514 135.322 367.459 134.654C366.422 133.969 365.271 133.336 364.005 132.756L363.161 132.413C361.79 132.993 360.612 133.652 359.628 134.391C358.644 135.111 357.879 135.929 357.334 136.843C356.807 137.757 356.543 138.803 356.543 139.98ZM363.688 115.696C361.983 115.696 360.577 116.118 359.47 116.962C358.38 117.788 357.835 118.983 357.835 120.548C357.835 121.655 358.099 122.604 358.626 123.396C359.171 124.187 359.9 124.872 360.814 125.452C361.729 126.015 362.739 126.542 363.847 127.034C364.919 126.56 365.886 126.041 366.747 125.479C367.626 124.898 368.32 124.213 368.83 123.422C369.357 122.613 369.621 121.646 369.621 120.521C369.621 118.975 369.067 117.788 367.96 116.962C366.87 116.118 365.446 115.696 363.688 115.696ZM389.001 138.24H384.334L383.068 111.451H390.267L389.001 138.24ZM382.752 146.73C382.752 145.289 383.121 144.278 383.859 143.698C384.615 143.101 385.538 142.802 386.628 142.802C387.7 142.802 388.614 143.101 389.37 143.698C390.126 144.278 390.504 145.289 390.504 146.73C390.504 148.137 390.126 149.156 389.37 149.789C388.614 150.404 387.7 150.712 386.628 150.712C385.538 150.712 384.615 150.404 383.859 149.789C383.121 149.156 382.752 148.137 382.752 146.73ZM401.525 138.24V136.579C401.525 135.278 401.675 134.145 401.974 133.178C402.272 132.211 402.773 131.306 403.477 130.462C404.18 129.601 405.129 128.704 406.324 127.772C407.555 126.806 408.53 125.971 409.251 125.268C409.989 124.564 410.517 123.861 410.833 123.158C411.167 122.438 411.334 121.603 411.334 120.653C411.334 119.159 410.824 118.025 409.805 117.252C408.803 116.461 407.388 116.065 405.56 116.065C403.942 116.065 402.422 116.294 400.998 116.751C399.574 117.208 398.168 117.779 396.779 118.465L394.591 113.824C396.19 112.945 397.922 112.242 399.785 111.715C401.666 111.17 403.731 110.897 405.981 110.897C409.567 110.897 412.336 111.768 414.287 113.508C416.256 115.248 417.24 117.542 417.24 120.39C417.24 121.954 416.994 123.299 416.502 124.424C416.01 125.531 415.28 126.56 414.313 127.509C413.364 128.44 412.213 129.425 410.859 130.462C409.752 131.341 408.899 132.105 408.302 132.756C407.722 133.389 407.317 134.03 407.089 134.681C406.878 135.331 406.772 136.113 406.772 137.027V138.24H401.525ZM400.523 146.73C400.523 145.289 400.893 144.278 401.631 143.698C402.387 143.101 403.31 142.802 404.399 142.802C405.454 142.802 406.359 143.101 407.115 143.698C407.871 144.278 408.249 145.289 408.249 146.73C408.249 148.137 407.871 149.156 407.115 149.789C406.359 150.404 405.454 150.712 404.399 150.712C403.31 150.712 402.387 150.404 401.631 149.789C400.893 149.156 400.523 148.137 400.523 146.73ZM420.826 135.208C420.826 132.255 421.107 129.372 421.67 126.56C422.25 123.747 423.129 121.066 424.307 118.518C425.484 115.969 426.97 113.613 428.763 111.451H434.168C431.654 114.809 429.756 118.526 428.473 122.604C427.207 126.683 426.574 130.866 426.574 135.155C426.574 137.95 426.855 140.719 427.418 143.461C427.98 146.203 428.824 148.84 429.949 151.371C431.074 153.92 432.463 156.311 434.115 158.543H428.763C426.97 156.434 425.484 154.131 424.307 151.635C423.129 149.139 422.25 146.502 421.67 143.725C421.107 140.947 420.826 138.108 420.826 135.208ZM450.753 135.182C450.753 138.1 450.472 140.947 449.909 143.725C449.347 146.502 448.477 149.139 447.299 151.635C446.139 154.131 444.645 156.434 442.816 158.543H437.49C439.143 156.311 440.531 153.92 441.656 151.371C442.781 148.822 443.625 146.177 444.188 143.435C444.75 140.692 445.031 137.924 445.031 135.129C445.031 132.281 444.741 129.469 444.161 126.691C443.599 123.914 442.755 121.242 441.63 118.676C440.505 116.092 439.107 113.684 437.438 111.451H442.816C444.645 113.613 446.139 115.969 447.299 118.518C448.477 121.066 449.347 123.747 449.909 126.56C450.472 129.354 450.753 132.229 450.753 135.182Z" fill="#161616"/>
<path d="M33.3037 204.907C33.3037 206.033 33.0986 206.974 32.6885 207.73C32.2783 208.482 31.6836 209.05 30.9043 209.433C30.1296 209.811 29.1885 210 28.0811 210H25.3672V200.006H28.3818C29.3981 200.006 30.2731 200.193 31.0068 200.566C31.7406 200.936 32.3057 201.485 32.7021 202.214C33.1032 202.938 33.3037 203.836 33.3037 204.907ZM32.0801 204.948C32.0801 204.05 31.9297 203.31 31.6289 202.727C31.3327 202.143 30.8952 201.71 30.3164 201.428C29.7422 201.141 29.0381 200.997 28.2041 200.997H26.5293V209.002H27.9443C29.3206 209.002 30.3529 208.662 31.041 207.983C31.7337 207.304 32.0801 206.293 32.0801 204.948ZM36.4893 202.508V210H35.3545V202.508H36.4893ZM35.9355 199.705C36.1224 199.705 36.2819 199.767 36.4141 199.89C36.5508 200.008 36.6191 200.195 36.6191 200.45C36.6191 200.701 36.5508 200.888 36.4141 201.011C36.2819 201.134 36.1224 201.195 35.9355 201.195C35.7396 201.195 35.5755 201.134 35.4434 201.011C35.3158 200.888 35.252 200.701 35.252 200.45C35.252 200.195 35.3158 200.008 35.4434 199.89C35.5755 199.767 35.7396 199.705 35.9355 199.705ZM43.7422 207.949C43.7422 208.428 43.6214 208.831 43.3799 209.159C43.1429 209.483 42.8011 209.727 42.3545 209.891C41.9124 210.055 41.3838 210.137 40.7686 210.137C40.2445 210.137 39.791 210.096 39.4082 210.014C39.0254 209.932 38.6904 209.815 38.4033 209.665V208.619C38.7087 208.77 39.0732 208.906 39.4971 209.029C39.9209 209.152 40.3538 209.214 40.7959 209.214C41.443 209.214 41.9124 209.109 42.2041 208.899C42.4958 208.69 42.6416 208.405 42.6416 208.045C42.6416 207.84 42.5824 207.66 42.4639 207.505C42.3499 207.345 42.1562 207.193 41.8828 207.047C41.6094 206.896 41.2311 206.732 40.748 206.555C40.2695 206.372 39.8548 206.192 39.5039 206.015C39.1576 205.832 38.8887 205.611 38.6973 205.352C38.5104 205.092 38.417 204.755 38.417 204.34C38.417 203.706 38.6722 203.221 39.1826 202.884C39.6976 202.542 40.3721 202.371 41.2061 202.371C41.6572 202.371 42.0788 202.417 42.4707 202.508C42.8672 202.594 43.2363 202.713 43.5781 202.863L43.1953 203.772C42.8854 203.64 42.555 203.529 42.2041 203.438C41.8532 203.346 41.4954 203.301 41.1309 203.301C40.6068 203.301 40.2035 203.387 39.9209 203.561C39.6429 203.734 39.5039 203.971 39.5039 204.271C39.5039 204.504 39.5677 204.695 39.6953 204.846C39.8275 204.996 40.0371 205.137 40.3242 205.27C40.6113 205.402 40.9896 205.557 41.459 205.734C41.9284 205.908 42.334 206.088 42.6758 206.274C43.0176 206.457 43.2796 206.68 43.4619 206.944C43.6488 207.204 43.7422 207.539 43.7422 207.949ZM49.0879 202.371C50.0221 202.371 50.7673 202.692 51.3232 203.335C51.8792 203.978 52.1572 204.944 52.1572 206.233C52.1572 207.086 52.0296 207.801 51.7744 208.38C51.5192 208.959 51.1592 209.396 50.6943 209.692C50.234 209.989 49.6895 210.137 49.0605 210.137C48.6641 210.137 48.3154 210.084 48.0146 209.979C47.7139 209.875 47.4564 209.733 47.2422 209.556C47.028 209.378 46.8503 209.184 46.709 208.975H46.627C46.6406 209.152 46.6566 209.367 46.6748 209.617C46.6976 209.868 46.709 210.087 46.709 210.273V213.35H45.5674V202.508H46.5039L46.6543 203.615H46.709C46.8548 203.387 47.0326 203.18 47.2422 202.993C47.4518 202.802 47.707 202.651 48.0078 202.542C48.3132 202.428 48.6732 202.371 49.0879 202.371ZM48.8896 203.328C48.3701 203.328 47.9508 203.428 47.6318 203.629C47.3174 203.829 47.0872 204.13 46.9414 204.531C46.7956 204.928 46.7181 205.427 46.709 206.028V206.247C46.709 206.881 46.7773 207.416 46.9141 207.854C47.0553 208.291 47.2855 208.624 47.6045 208.852C47.9281 209.079 48.361 209.193 48.9033 209.193C49.3682 209.193 49.7555 209.068 50.0654 208.817C50.3753 208.567 50.6055 208.218 50.7559 207.771C50.9108 207.32 50.9883 206.803 50.9883 206.22C50.9883 205.336 50.8151 204.634 50.4688 204.114C50.127 203.59 49.6006 203.328 48.8896 203.328ZM55.2812 210H54.1396V199.363H55.2812V210ZM60.4834 202.385C61.3766 202.385 62.0397 202.585 62.4727 202.986C62.9056 203.387 63.1221 204.028 63.1221 204.907V210H62.2949L62.0762 208.893H62.0215C61.8118 209.166 61.5931 209.396 61.3652 209.583C61.1374 209.765 60.873 209.904 60.5723 210C60.276 210.091 59.9115 210.137 59.4785 210.137C59.0228 210.137 58.6172 210.057 58.2617 209.897C57.9108 209.738 57.6328 209.496 57.4277 209.173C57.2272 208.849 57.127 208.439 57.127 207.942C57.127 207.195 57.4232 206.621 58.0156 206.22C58.6081 205.819 59.5104 205.6 60.7227 205.563L62.0146 205.509V205.051C62.0146 204.404 61.8757 203.95 61.5977 203.69C61.3197 203.431 60.9277 203.301 60.4219 203.301C60.0299 203.301 59.6562 203.358 59.3008 203.472C58.9453 203.586 58.6081 203.72 58.2891 203.875L57.9404 203.014C58.2777 202.84 58.665 202.692 59.1025 202.569C59.54 202.446 60.0003 202.385 60.4834 202.385ZM62.001 206.309L60.8594 206.356C59.9251 206.393 59.2666 206.546 58.8838 206.814C58.501 207.083 58.3096 207.464 58.3096 207.956C58.3096 208.384 58.4395 208.701 58.6992 208.906C58.959 209.111 59.3031 209.214 59.7314 209.214C60.3968 209.214 60.9414 209.029 61.3652 208.66C61.7891 208.291 62.001 207.737 62.001 206.999V206.309ZM64.2773 202.508H65.4941L67.1484 206.855C67.2441 207.111 67.333 207.357 67.415 207.594C67.4971 207.826 67.57 208.049 67.6338 208.264C67.6976 208.478 67.7477 208.685 67.7842 208.886H67.832C67.8958 208.658 67.987 208.359 68.1055 207.99C68.224 207.617 68.3516 207.236 68.4883 206.849L70.0537 202.508H71.2773L68.0166 211.101C67.8434 211.561 67.6406 211.962 67.4082 212.304C67.1803 212.646 66.9023 212.908 66.5742 213.09C66.2461 213.277 65.8496 213.37 65.3848 213.37C65.1706 213.37 64.9814 213.356 64.8174 213.329C64.6533 213.306 64.512 213.279 64.3936 213.247V212.338C64.4938 212.361 64.6146 212.381 64.7559 212.399C64.9017 212.418 65.0521 212.427 65.207 212.427C65.4896 212.427 65.7334 212.372 65.9385 212.263C66.1481 212.158 66.3281 212.003 66.4785 211.798C66.6289 211.593 66.7588 211.349 66.8682 211.066L67.2783 210.014L64.2773 202.508ZM82.1533 210H75.6045V209.05L78.2773 206.336C78.7741 205.835 79.1911 205.388 79.5283 204.996C79.8701 204.604 80.1299 204.219 80.3076 203.841C80.4854 203.458 80.5742 203.039 80.5742 202.583C80.5742 202.018 80.4056 201.587 80.0684 201.291C79.7357 200.99 79.2959 200.84 78.749 200.84C78.2705 200.84 77.8467 200.922 77.4775 201.086C77.1084 201.25 76.7301 201.482 76.3428 201.783L75.7344 201.018C75.9987 200.794 76.2858 200.596 76.5957 200.423C76.9102 200.25 77.2451 200.113 77.6006 200.013C77.9606 199.912 78.3434 199.862 78.749 199.862C79.3643 199.862 79.8952 199.969 80.3418 200.184C80.7884 200.398 81.1325 200.703 81.374 201.1C81.6201 201.496 81.7432 201.968 81.7432 202.515C81.7432 203.043 81.6383 203.535 81.4287 203.991C81.2191 204.442 80.9251 204.891 80.5469 205.338C80.1686 205.78 79.7266 206.249 79.2207 206.746L77.0469 208.913V208.961H82.1533V210Z" fill="#61656E"/>
<path d="M151.301 233L148.787 225.863H138.961L136.447 233H132L141.562 207.195H146.238L155.783 233H151.301ZM147.697 222.242L145.254 215.211C145.16 214.906 145.025 214.479 144.85 213.928C144.674 213.365 144.498 212.797 144.322 212.223C144.146 211.637 144 211.145 143.883 210.746C143.766 211.227 143.619 211.766 143.443 212.363C143.279 212.949 143.115 213.5 142.951 214.016C142.799 214.531 142.682 214.93 142.6 215.211L140.139 222.242H147.697ZM166.383 213.172C168.844 213.172 170.701 213.717 171.955 214.807C173.221 215.896 173.854 217.596 173.854 219.904V233H170.918L170.127 230.24H169.986C169.436 230.943 168.867 231.523 168.281 231.98C167.695 232.438 167.016 232.777 166.242 233C165.48 233.234 164.549 233.352 163.447 233.352C162.287 233.352 161.25 233.141 160.336 232.719C159.422 232.285 158.701 231.629 158.174 230.75C157.646 229.871 157.383 228.758 157.383 227.41C157.383 225.406 158.127 223.9 159.615 222.893C161.115 221.885 163.377 221.328 166.4 221.223L169.775 221.1V220.08C169.775 218.732 169.459 217.771 168.826 217.197C168.205 216.623 167.326 216.336 166.189 216.336C165.217 216.336 164.273 216.477 163.359 216.758C162.445 217.039 161.555 217.385 160.688 217.795L159.352 214.877C160.301 214.373 161.379 213.963 162.586 213.646C163.805 213.33 165.07 213.172 166.383 213.172ZM169.758 223.701L167.244 223.789C165.182 223.859 163.734 224.211 162.902 224.844C162.07 225.477 161.654 226.344 161.654 227.445C161.654 228.406 161.941 229.109 162.516 229.555C163.09 229.988 163.846 230.205 164.783 230.205C166.213 230.205 167.396 229.801 168.334 228.992C169.283 228.172 169.758 226.971 169.758 225.389V223.701ZM180.059 207.301H187.705C191.021 207.301 193.523 207.781 195.211 208.742C196.898 209.703 197.742 211.361 197.742 213.717C197.742 214.701 197.566 215.592 197.215 216.389C196.875 217.174 196.377 217.824 195.721 218.34C195.064 218.844 194.256 219.184 193.295 219.359V219.535C194.291 219.711 195.176 220.021 195.949 220.467C196.734 220.912 197.35 221.551 197.795 222.383C198.252 223.215 198.48 224.293 198.48 225.617C198.48 227.188 198.105 228.523 197.355 229.625C196.617 230.727 195.557 231.564 194.174 232.139C192.803 232.713 191.174 233 189.287 233H180.059V207.301ZM184.277 217.9H188.32C190.23 217.9 191.555 217.59 192.293 216.969C193.031 216.348 193.4 215.439 193.4 214.244C193.4 213.025 192.961 212.146 192.082 211.607C191.215 211.068 189.832 210.799 187.934 210.799H184.277V217.9ZM184.277 221.311V229.467H188.725C190.693 229.467 192.076 229.086 192.873 228.324C193.67 227.562 194.068 226.531 194.068 225.23C194.068 224.434 193.887 223.742 193.523 223.156C193.172 222.57 192.592 222.119 191.783 221.803C190.975 221.475 189.885 221.311 188.514 221.311H184.277ZM207.498 205.648V212.24C207.498 213.002 207.475 213.752 207.428 214.49C207.393 215.217 207.357 215.785 207.322 216.195H207.498C208.025 215.352 208.758 214.643 209.695 214.068C210.645 213.482 211.857 213.189 213.334 213.189C215.643 213.189 217.5 214.039 218.906 215.738C220.312 217.426 221.016 219.928 221.016 223.244C221.016 225.447 220.693 227.299 220.049 228.799C219.404 230.299 218.496 231.436 217.324 232.209C216.164 232.971 214.799 233.352 213.229 233.352C211.752 233.352 210.557 233.082 209.643 232.543C208.74 231.992 208.031 231.354 207.516 230.627H207.217L206.461 233H203.367V205.648H207.498ZM212.244 216.547C211.072 216.547 210.141 216.781 209.449 217.25C208.77 217.719 208.277 218.422 207.973 219.359C207.668 220.285 207.51 221.463 207.498 222.893V223.262C207.498 225.43 207.838 227.088 208.518 228.236C209.209 229.385 210.463 229.959 212.279 229.959C213.721 229.959 214.828 229.379 215.602 228.219C216.375 227.047 216.762 225.371 216.762 223.191C216.762 220.988 216.375 219.33 215.602 218.217C214.84 217.104 213.721 216.547 212.244 216.547ZM237.17 210.518C235.939 210.518 234.838 210.74 233.865 211.186C232.904 211.631 232.09 212.275 231.422 213.119C230.754 213.951 230.244 214.965 229.893 216.16C229.541 217.344 229.365 218.68 229.365 220.168C229.365 222.16 229.646 223.877 230.209 225.318C230.771 226.748 231.627 227.85 232.775 228.623C233.924 229.385 235.377 229.766 237.135 229.766C238.225 229.766 239.285 229.66 240.316 229.449C241.348 229.238 242.414 228.951 243.516 228.588V232.174C242.473 232.584 241.418 232.883 240.352 233.07C239.285 233.258 238.055 233.352 236.66 233.352C234.035 233.352 231.855 232.807 230.121 231.717C228.398 230.627 227.109 229.092 226.254 227.111C225.41 225.131 224.988 222.811 224.988 220.15C224.988 218.205 225.258 216.424 225.797 214.807C226.336 213.189 227.121 211.795 228.152 210.623C229.184 209.439 230.455 208.531 231.967 207.898C233.49 207.254 235.23 206.932 237.188 206.932C238.477 206.932 239.742 207.078 240.984 207.371C242.238 207.652 243.398 208.057 244.465 208.584L242.988 212.064C242.098 211.643 241.166 211.279 240.193 210.975C239.221 210.67 238.213 210.518 237.17 210.518ZM256.453 233.352C254.613 233.352 253.02 232.994 251.672 232.279C250.324 231.564 249.287 230.469 248.561 228.992C247.834 227.516 247.471 225.641 247.471 223.367C247.471 221 247.869 219.066 248.666 217.566C249.463 216.066 250.564 214.959 251.971 214.244C253.389 213.529 255.012 213.172 256.84 213.172C258 213.172 259.049 213.289 259.986 213.523C260.936 213.746 261.738 214.021 262.395 214.35L261.164 217.654C260.449 217.361 259.717 217.115 258.967 216.916C258.217 216.717 257.496 216.617 256.805 216.617C255.668 216.617 254.719 216.869 253.957 217.373C253.207 217.877 252.645 218.627 252.27 219.623C251.906 220.619 251.725 221.855 251.725 223.332C251.725 224.762 251.912 225.969 252.287 226.953C252.662 227.926 253.219 228.664 253.957 229.168C254.695 229.66 255.604 229.906 256.682 229.906C257.748 229.906 258.703 229.777 259.547 229.52C260.391 229.262 261.188 228.928 261.938 228.518V232.104C261.199 232.525 260.408 232.836 259.564 233.035C258.721 233.246 257.684 233.352 256.453 233.352ZM287.795 219.904C287.795 222.799 287.256 225.219 286.178 227.164C285.1 229.098 283.535 230.557 281.484 231.541C279.434 232.514 276.961 233 274.066 233H266.93V207.301H274.84C277.5 207.301 279.797 207.781 281.73 208.742C283.664 209.691 285.158 211.104 286.213 212.979C287.268 214.842 287.795 217.15 287.795 219.904ZM283.4 220.027C283.4 217.918 283.066 216.184 282.398 214.824C281.742 213.465 280.77 212.457 279.48 211.801C278.203 211.133 276.627 210.799 274.752 210.799H271.148V229.467H274.137C277.242 229.467 279.562 228.676 281.098 227.094C282.633 225.512 283.4 223.156 283.4 220.027ZM299.449 233.352C297.129 233.352 295.266 232.508 293.859 230.82C292.465 229.121 291.768 226.619 291.768 223.314C291.768 219.975 292.477 217.449 293.895 215.738C295.324 214.027 297.205 213.172 299.537 213.172C300.521 213.172 301.383 213.307 302.121 213.576C302.859 213.834 303.492 214.186 304.02 214.631C304.559 215.076 305.016 215.574 305.391 216.125H305.584C305.525 215.762 305.455 215.24 305.373 214.561C305.303 213.869 305.268 213.23 305.268 212.645V205.648H309.416V233H306.182L305.443 230.346H305.268C304.916 230.908 304.471 231.418 303.932 231.875C303.404 232.32 302.771 232.678 302.033 232.947C301.307 233.217 300.445 233.352 299.449 233.352ZM300.609 229.994C302.379 229.994 303.627 229.484 304.354 228.465C305.08 227.445 305.455 225.916 305.479 223.877V223.332C305.479 221.152 305.127 219.482 304.424 218.322C303.721 217.15 302.438 216.564 300.574 216.564C299.086 216.564 297.949 217.168 297.164 218.375C296.391 219.57 296.004 221.24 296.004 223.385C296.004 225.529 296.391 227.17 297.164 228.307C297.949 229.432 299.098 229.994 300.609 229.994ZM330.316 233H315.762V207.301H330.316V210.852H319.98V217.83H329.666V221.363H319.98V229.432H330.316V233ZM343.201 213.172C344.936 213.172 346.424 213.529 347.666 214.244C348.908 214.959 349.863 215.973 350.531 217.285C351.199 218.598 351.533 220.168 351.533 221.996V224.211H338.543C338.59 226.098 339.094 227.551 340.055 228.57C341.027 229.59 342.387 230.1 344.133 230.1C345.375 230.1 346.488 229.982 347.473 229.748C348.469 229.502 349.494 229.145 350.549 228.676V232.033C349.576 232.49 348.586 232.824 347.578 233.035C346.57 233.246 345.363 233.352 343.957 233.352C342.047 233.352 340.365 232.982 338.912 232.244C337.471 231.494 336.34 230.381 335.52 228.904C334.711 227.428 334.307 225.594 334.307 223.402C334.307 221.223 334.676 219.371 335.414 217.848C336.152 216.324 337.189 215.164 338.525 214.367C339.861 213.57 341.42 213.172 343.201 213.172ZM343.201 216.283C341.9 216.283 340.846 216.705 340.037 217.549C339.24 218.393 338.771 219.629 338.631 221.258H347.49C347.479 220.285 347.314 219.424 346.998 218.674C346.693 217.924 346.225 217.338 345.592 216.916C344.971 216.494 344.174 216.283 343.201 216.283ZM360.797 233H356.613V207.301H371.133V210.852H360.797V218.867H370.465V222.4H360.797V233ZM385.107 216.688H380.379V233H376.248V216.688H373.066V214.701L376.248 213.488V212.135C376.248 210.482 376.506 209.17 377.021 208.197C377.549 207.225 378.299 206.527 379.271 206.105C380.256 205.672 381.428 205.455 382.787 205.455C383.678 205.455 384.492 205.531 385.23 205.684C385.969 205.824 386.59 205.988 387.094 206.176L386.021 209.305C385.623 209.176 385.178 209.059 384.686 208.953C384.193 208.836 383.666 208.777 383.104 208.777C382.166 208.777 381.475 209.07 381.029 209.656C380.596 210.242 380.379 211.098 380.379 212.223V213.541H385.107V216.688ZM399.223 219.043H408.82V231.945C407.473 232.391 406.078 232.736 404.637 232.982C403.195 233.229 401.578 233.352 399.785 233.352C397.172 233.352 394.957 232.836 393.141 231.805C391.336 230.762 389.965 229.256 389.027 227.287C388.09 225.307 387.621 222.922 387.621 220.133C387.621 217.449 388.143 215.123 389.186 213.154C390.229 211.174 391.746 209.645 393.738 208.566C395.73 207.477 398.145 206.932 400.98 206.932C402.375 206.932 403.723 207.072 405.023 207.354C406.336 207.623 407.537 207.998 408.627 208.479L407.15 211.959C406.283 211.549 405.311 211.203 404.232 210.922C403.154 210.641 402.035 210.5 400.875 210.5C399.035 210.5 397.447 210.898 396.111 211.695C394.787 212.492 393.768 213.617 393.053 215.07C392.338 216.512 391.98 218.217 391.98 220.186C391.98 222.096 392.268 223.771 392.842 225.213C393.416 226.654 394.312 227.779 395.531 228.588C396.762 229.385 398.35 229.783 400.295 229.783C401.268 229.783 402.094 229.73 402.773 229.625C403.453 229.52 404.08 229.402 404.654 229.273V222.646H399.223V219.043ZM420.105 241.648C417.469 241.648 415.447 241.174 414.041 240.225C412.635 239.275 411.932 237.945 411.932 236.234C411.932 235.039 412.307 234.025 413.057 233.193C413.807 232.373 414.879 231.805 416.273 231.488C415.746 231.254 415.289 230.891 414.902 230.398C414.527 229.895 414.34 229.338 414.34 228.729C414.34 228.002 414.545 227.381 414.955 226.865C415.365 226.35 415.98 225.852 416.801 225.371C415.781 224.938 414.961 224.234 414.34 223.262C413.73 222.277 413.426 221.123 413.426 219.799C413.426 218.393 413.725 217.197 414.322 216.213C414.92 215.217 415.793 214.461 416.941 213.945C418.09 213.418 419.479 213.154 421.107 213.154C421.459 213.154 421.84 213.178 422.25 213.225C422.672 213.26 423.059 213.307 423.41 213.365C423.773 213.412 424.049 213.465 424.236 213.523H430.969V215.826L427.664 216.441C427.98 216.887 428.232 217.396 428.42 217.971C428.607 218.533 428.701 219.148 428.701 219.816C428.701 221.832 428.004 223.42 426.609 224.58C425.227 225.729 423.316 226.303 420.879 226.303C420.293 226.279 419.725 226.232 419.174 226.162C418.752 226.42 418.43 226.707 418.207 227.023C417.984 227.328 417.873 227.674 417.873 228.061C417.873 228.377 417.984 228.635 418.207 228.834C418.43 229.021 418.758 229.162 419.191 229.256C419.637 229.35 420.176 229.396 420.809 229.396H424.166C426.299 229.396 427.928 229.848 429.053 230.75C430.178 231.652 430.74 232.977 430.74 234.723C430.74 236.938 429.826 238.643 427.998 239.838C426.17 241.045 423.539 241.648 420.105 241.648ZM420.264 238.748C421.705 238.748 422.918 238.607 423.902 238.326C424.887 238.045 425.631 237.641 426.135 237.113C426.639 236.598 426.891 235.982 426.891 235.268C426.891 234.635 426.732 234.148 426.416 233.809C426.1 233.469 425.625 233.234 424.992 233.105C424.359 232.977 423.574 232.912 422.637 232.912H419.578C418.816 232.912 418.143 233.029 417.557 233.264C416.971 233.51 416.514 233.861 416.186 234.318C415.869 234.775 415.711 235.326 415.711 235.971C415.711 236.861 416.104 237.547 416.889 238.027C417.686 238.508 418.811 238.748 420.264 238.748ZM421.072 223.596C422.279 223.596 423.176 223.268 423.762 222.611C424.348 221.943 424.641 221.006 424.641 219.799C424.641 218.486 424.336 217.502 423.727 216.846C423.129 216.189 422.238 215.861 421.055 215.861C419.895 215.861 419.01 216.195 418.4 216.863C417.803 217.531 417.504 218.521 417.504 219.834C417.504 221.018 417.803 221.943 418.4 222.611C419.01 223.268 419.9 223.596 421.072 223.596ZM145.764 280H141.615V263.459C141.615 262.908 141.621 262.357 141.633 261.807C141.645 261.256 141.656 260.717 141.668 260.189C141.691 259.662 141.721 259.158 141.756 258.678C141.51 258.947 141.205 259.24 140.842 259.557C140.49 259.873 140.115 260.201 139.717 260.541L136.764 262.896L134.689 260.277L142.318 254.301H145.764V280ZM171.621 280H154.219V276.889L160.881 270.139C162.17 268.826 163.23 267.695 164.062 266.746C164.895 265.785 165.51 264.877 165.908 264.021C166.318 263.166 166.523 262.234 166.523 261.227C166.523 259.984 166.166 259.047 165.451 258.414C164.736 257.77 163.793 257.447 162.621 257.447C161.508 257.447 160.477 257.67 159.527 258.115C158.59 258.549 157.617 259.17 156.609 259.979L154.342 257.254C155.057 256.645 155.818 256.088 156.627 255.584C157.447 255.08 158.361 254.682 159.369 254.389C160.377 254.084 161.525 253.932 162.814 253.932C164.443 253.932 165.85 254.225 167.033 254.811C168.217 255.385 169.125 256.188 169.758 257.219C170.402 258.25 170.725 259.451 170.725 260.822C170.725 262.205 170.449 263.482 169.898 264.654C169.348 265.826 168.562 266.986 167.543 268.135C166.523 269.271 165.311 270.508 163.904 271.844L159.457 276.186V276.379H171.621V280ZM191.238 260.172C191.238 261.332 191.004 262.34 190.535 263.195C190.066 264.051 189.422 264.754 188.602 265.305C187.793 265.844 186.855 266.23 185.789 266.465V266.588C187.84 266.846 189.387 267.49 190.43 268.521C191.484 269.553 192.012 270.918 192.012 272.617C192.012 274.105 191.654 275.436 190.939 276.607C190.225 277.768 189.129 278.682 187.652 279.35C186.176 280.018 184.277 280.352 181.957 280.352C180.562 280.352 179.268 280.24 178.072 280.018C176.889 279.795 175.764 279.438 174.697 278.945V275.271C175.787 275.811 176.947 276.227 178.178 276.52C179.408 276.812 180.574 276.959 181.676 276.959C183.82 276.959 185.35 276.561 186.264 275.764C187.178 274.955 187.635 273.842 187.635 272.424C187.635 271.51 187.395 270.76 186.914 270.174C186.445 269.588 185.713 269.148 184.717 268.855C183.732 268.562 182.461 268.416 180.902 268.416H178.635V265.094H180.92C182.408 265.094 183.604 264.918 184.506 264.566C185.408 264.203 186.059 263.705 186.457 263.072C186.867 262.439 187.072 261.701 187.072 260.857C187.072 259.756 186.715 258.9 186 258.291C185.285 257.67 184.225 257.359 182.818 257.359C181.951 257.359 181.16 257.459 180.445 257.658C179.742 257.857 179.092 258.109 178.494 258.414C177.896 258.719 177.328 259.047 176.789 259.398L174.803 256.533C175.775 255.807 176.936 255.191 178.283 254.688C179.631 254.184 181.201 253.932 182.994 253.932C185.631 253.932 187.664 254.5 189.094 255.637C190.523 256.762 191.238 258.273 191.238 260.172ZM213.756 274.357H210.275V280H206.197V274.357H194.508V271.229L206.25 254.23H210.275V270.93H213.756V274.357ZM206.197 270.93V264.549C206.197 264.021 206.203 263.488 206.215 262.949C206.238 262.398 206.262 261.871 206.285 261.367C206.309 260.863 206.332 260.4 206.355 259.979C206.379 259.545 206.396 259.188 206.408 258.906H206.268C206.045 259.375 205.799 259.855 205.529 260.348C205.26 260.828 204.973 261.297 204.668 261.754L198.34 270.93H206.197ZM224.76 263.934C226.412 263.934 227.865 264.232 229.119 264.83C230.385 265.416 231.369 266.283 232.072 267.432C232.775 268.568 233.127 269.963 233.127 271.615C233.127 273.42 232.746 274.979 231.984 276.291C231.223 277.592 230.104 278.594 228.627 279.297C227.15 280 225.352 280.352 223.23 280.352C221.883 280.352 220.623 280.234 219.451 280C218.291 279.766 217.289 279.414 216.445 278.945V275.219C217.324 275.711 218.379 276.115 219.609 276.432C220.84 276.736 222.018 276.889 223.143 276.889C224.338 276.889 225.363 276.713 226.219 276.361C227.074 276.01 227.73 275.471 228.188 274.744C228.656 274.018 228.891 273.098 228.891 271.984C228.891 270.508 228.416 269.371 227.467 268.574C226.529 267.766 225.059 267.361 223.055 267.361C222.352 267.361 221.602 267.426 220.805 267.555C220.02 267.672 219.363 267.801 218.836 267.941L217.025 266.869L217.992 254.301H231.352V257.939H221.631L221.068 264.338C221.49 264.244 221.994 264.156 222.58 264.074C223.166 263.98 223.893 263.934 224.76 263.934ZM236.66 269.049C236.66 267.537 236.766 266.049 236.977 264.584C237.199 263.119 237.574 261.748 238.102 260.471C238.629 259.193 239.355 258.068 240.281 257.096C241.219 256.123 242.396 255.361 243.814 254.811C245.232 254.248 246.938 253.967 248.93 253.967C249.445 253.967 250.025 253.99 250.67 254.037C251.314 254.084 251.848 254.16 252.27 254.266V257.693C251.812 257.564 251.309 257.465 250.758 257.395C250.219 257.324 249.68 257.289 249.141 257.289C246.984 257.289 245.303 257.699 244.096 258.52C242.889 259.328 242.027 260.441 241.512 261.859C240.996 263.266 240.697 264.877 240.615 266.693H240.826C241.178 266.107 241.617 265.586 242.145 265.129C242.672 264.672 243.316 264.309 244.078 264.039C244.84 263.758 245.725 263.617 246.732 263.617C248.232 263.617 249.539 263.934 250.652 264.566C251.766 265.188 252.621 266.09 253.219 267.273C253.828 268.457 254.133 269.893 254.133 271.58C254.133 273.396 253.787 274.961 253.096 276.273C252.416 277.586 251.443 278.594 250.178 279.297C248.924 280 247.43 280.352 245.695 280.352C244.418 280.352 243.229 280.117 242.127 279.648C241.037 279.18 240.082 278.477 239.262 277.539C238.441 276.602 237.803 275.43 237.346 274.023C236.889 272.605 236.66 270.947 236.66 269.049ZM245.625 276.941C246.961 276.941 248.033 276.508 248.842 275.641C249.662 274.762 250.072 273.42 250.072 271.615C250.072 270.15 249.709 268.99 248.982 268.135C248.268 267.279 247.189 266.852 245.748 266.852C244.764 266.852 243.902 267.062 243.164 267.484C242.426 267.906 241.852 268.439 241.441 269.084C241.043 269.729 240.844 270.385 240.844 271.053C240.844 271.732 240.943 272.418 241.143 273.109C241.342 273.801 241.641 274.439 242.039 275.025C242.438 275.6 242.936 276.062 243.533 276.414C244.131 276.766 244.828 276.941 245.625 276.941ZM260.162 280L270.252 257.922H256.91V254.301H274.699V257.131L264.609 280H260.162ZM286.494 253.949C287.982 253.949 289.324 254.184 290.52 254.652C291.715 255.109 292.664 255.795 293.367 256.709C294.07 257.623 294.422 258.754 294.422 260.102C294.422 261.145 294.205 262.053 293.771 262.826C293.35 263.6 292.775 264.279 292.049 264.865C291.322 265.439 290.508 265.949 289.605 266.395C290.613 266.887 291.539 267.455 292.383 268.1C293.238 268.732 293.924 269.477 294.439 270.332C294.967 271.188 295.23 272.189 295.23 273.338C295.23 274.779 294.861 276.027 294.123 277.082C293.396 278.125 292.383 278.934 291.082 279.508C289.781 280.07 288.264 280.352 286.529 280.352C284.666 280.352 283.078 280.076 281.766 279.525C280.453 278.975 279.457 278.189 278.777 277.17C278.098 276.139 277.758 274.908 277.758 273.479C277.758 272.295 277.992 271.27 278.461 270.402C278.93 269.535 279.557 268.785 280.342 268.152C281.139 267.52 282.012 266.986 282.961 266.553C282.152 266.072 281.414 265.533 280.746 264.936C280.078 264.326 279.545 263.629 279.146 262.844C278.76 262.047 278.566 261.127 278.566 260.084C278.566 258.748 278.924 257.629 279.639 256.727C280.354 255.812 281.309 255.121 282.504 254.652C283.711 254.184 285.041 253.949 286.494 253.949ZM281.695 273.32C281.695 274.445 282.094 275.371 282.891 276.098C283.688 276.824 284.877 277.188 286.459 277.188C288.029 277.188 289.225 276.83 290.045 276.115C290.865 275.4 291.275 274.457 291.275 273.285C291.275 272.535 291.064 271.873 290.643 271.299C290.232 270.725 289.676 270.215 288.973 269.77C288.281 269.312 287.514 268.891 286.67 268.504L286.107 268.275C285.193 268.662 284.408 269.102 283.752 269.594C283.096 270.074 282.586 270.619 282.223 271.229C281.871 271.838 281.695 272.535 281.695 273.32ZM286.459 257.131C285.322 257.131 284.385 257.412 283.646 257.975C282.92 258.525 282.557 259.322 282.557 260.365C282.557 261.104 282.732 261.736 283.084 262.264C283.447 262.791 283.934 263.248 284.543 263.635C285.152 264.01 285.826 264.361 286.564 264.689C287.279 264.373 287.924 264.027 288.498 263.652C289.084 263.266 289.547 262.809 289.887 262.281C290.238 261.742 290.414 261.098 290.414 260.348C290.414 259.316 290.045 258.525 289.307 257.975C288.58 257.412 287.631 257.131 286.459 257.131ZM303.334 272.16H300.223L299.379 254.301H304.178L303.334 272.16ZM299.168 277.82C299.168 276.859 299.414 276.186 299.906 275.799C300.41 275.4 301.025 275.201 301.752 275.201C302.467 275.201 303.076 275.4 303.58 275.799C304.084 276.186 304.336 276.859 304.336 277.82C304.336 278.758 304.084 279.438 303.58 279.859C303.076 280.27 302.467 280.475 301.752 280.475C301.025 280.475 300.41 280.27 299.906 279.859C299.414 279.438 299.168 278.758 299.168 277.82ZM311.684 272.16V271.053C311.684 270.186 311.783 269.43 311.982 268.785C312.182 268.141 312.516 267.537 312.984 266.975C313.453 266.4 314.086 265.803 314.883 265.182C315.703 264.537 316.354 263.98 316.834 263.512C317.326 263.043 317.678 262.574 317.889 262.105C318.111 261.625 318.223 261.068 318.223 260.436C318.223 259.439 317.883 258.684 317.203 258.168C316.535 257.641 315.592 257.377 314.373 257.377C313.295 257.377 312.281 257.529 311.332 257.834C310.383 258.139 309.445 258.52 308.52 258.977L307.061 255.883C308.127 255.297 309.281 254.828 310.523 254.477C311.777 254.113 313.154 253.932 314.654 253.932C317.045 253.932 318.891 254.512 320.191 255.672C321.504 256.832 322.16 258.361 322.16 260.26C322.16 261.303 321.996 262.199 321.668 262.949C321.34 263.688 320.854 264.373 320.209 265.006C319.576 265.627 318.809 266.283 317.906 266.975C317.168 267.561 316.6 268.07 316.201 268.504C315.814 268.926 315.545 269.354 315.393 269.787C315.252 270.221 315.182 270.742 315.182 271.352V272.16H311.684ZM311.016 277.82C311.016 276.859 311.262 276.186 311.754 275.799C312.258 275.4 312.873 275.201 313.6 275.201C314.303 275.201 314.906 275.4 315.41 275.799C315.914 276.186 316.166 276.859 316.166 277.82C316.166 278.758 315.914 279.438 315.41 279.859C314.906 280.27 314.303 280.475 313.6 280.475C312.873 280.475 312.258 280.27 311.754 279.859C311.262 279.438 311.016 278.758 311.016 277.82ZM324.551 270.139C324.551 268.17 324.738 266.248 325.113 264.373C325.5 262.498 326.086 260.711 326.871 259.012C327.656 257.312 328.646 255.742 329.842 254.301H333.445C331.77 256.539 330.504 259.018 329.648 261.736C328.805 264.455 328.383 267.244 328.383 270.104C328.383 271.967 328.57 273.812 328.945 275.641C329.32 277.469 329.883 279.227 330.633 280.914C331.383 282.613 332.309 284.207 333.41 285.695H329.842C328.646 284.289 327.656 282.754 326.871 281.09C326.086 279.426 325.5 277.668 325.113 275.816C324.738 273.965 324.551 272.072 324.551 270.139ZM344.502 270.121C344.502 272.066 344.314 273.965 343.939 275.816C343.564 277.668 342.984 279.426 342.199 281.09C341.426 282.754 340.43 284.289 339.211 285.695H335.66C336.762 284.207 337.688 282.613 338.438 280.914C339.188 279.215 339.75 277.451 340.125 275.623C340.5 273.795 340.688 271.949 340.688 270.086C340.688 268.188 340.494 266.312 340.107 264.461C339.732 262.609 339.17 260.828 338.42 259.117C337.67 257.395 336.738 255.789 335.625 254.301H339.211C340.43 255.742 341.426 257.312 342.199 259.012C342.984 260.711 343.564 262.498 343.939 264.373C344.314 266.236 344.502 268.152 344.502 270.121Z" fill="#161616"/>
<path d="M33.3037 330.907C33.3037 332.033 33.0986 332.974 32.6885 333.73C32.2783 334.482 31.6836 335.05 30.9043 335.433C30.1296 335.811 29.1885 336 28.0811 336H25.3672V326.006H28.3818C29.3981 326.006 30.2731 326.193 31.0068 326.566C31.7406 326.936 32.3057 327.485 32.7021 328.214C33.1032 328.938 33.3037 329.836 33.3037 330.907ZM32.0801 330.948C32.0801 330.05 31.9297 329.31 31.6289 328.727C31.3327 328.143 30.8952 327.71 30.3164 327.428C29.7422 327.141 29.0381 326.997 28.2041 326.997H26.5293V335.002H27.9443C29.3206 335.002 30.3529 334.662 31.041 333.983C31.7337 333.304 32.0801 332.293 32.0801 330.948ZM36.4893 328.508V336H35.3545V328.508H36.4893ZM35.9355 325.705C36.1224 325.705 36.2819 325.767 36.4141 325.89C36.5508 326.008 36.6191 326.195 36.6191 326.45C36.6191 326.701 36.5508 326.888 36.4141 327.011C36.2819 327.134 36.1224 327.195 35.9355 327.195C35.7396 327.195 35.5755 327.134 35.4434 327.011C35.3158 326.888 35.252 326.701 35.252 326.45C35.252 326.195 35.3158 326.008 35.4434 325.89C35.5755 325.767 35.7396 325.705 35.9355 325.705ZM43.7422 333.949C43.7422 334.428 43.6214 334.831 43.3799 335.159C43.1429 335.483 42.8011 335.727 42.3545 335.891C41.9124 336.055 41.3838 336.137 40.7686 336.137C40.2445 336.137 39.791 336.096 39.4082 336.014C39.0254 335.932 38.6904 335.815 38.4033 335.665V334.619C38.7087 334.77 39.0732 334.906 39.4971 335.029C39.9209 335.152 40.3538 335.214 40.7959 335.214C41.443 335.214 41.9124 335.109 42.2041 334.899C42.4958 334.69 42.6416 334.405 42.6416 334.045C42.6416 333.84 42.5824 333.66 42.4639 333.505C42.3499 333.345 42.1562 333.193 41.8828 333.047C41.6094 332.896 41.2311 332.732 40.748 332.555C40.2695 332.372 39.8548 332.192 39.5039 332.015C39.1576 331.832 38.8887 331.611 38.6973 331.352C38.5104 331.092 38.417 330.755 38.417 330.34C38.417 329.706 38.6722 329.221 39.1826 328.884C39.6976 328.542 40.3721 328.371 41.2061 328.371C41.6572 328.371 42.0788 328.417 42.4707 328.508C42.8672 328.594 43.2363 328.713 43.5781 328.863L43.1953 329.772C42.8854 329.64 42.555 329.529 42.2041 329.438C41.8532 329.346 41.4954 329.301 41.1309 329.301C40.6068 329.301 40.2035 329.387 39.9209 329.561C39.6429 329.734 39.5039 329.971 39.5039 330.271C39.5039 330.504 39.5677 330.695 39.6953 330.846C39.8275 330.996 40.0371 331.137 40.3242 331.27C40.6113 331.402 40.9896 331.557 41.459 331.734C41.9284 331.908 42.334 332.088 42.6758 332.274C43.0176 332.457 43.2796 332.68 43.4619 332.944C43.6488 333.204 43.7422 333.539 43.7422 333.949ZM49.0879 328.371C50.0221 328.371 50.7673 328.692 51.3232 329.335C51.8792 329.978 52.1572 330.944 52.1572 332.233C52.1572 333.086 52.0296 333.801 51.7744 334.38C51.5192 334.959 51.1592 335.396 50.6943 335.692C50.234 335.989 49.6895 336.137 49.0605 336.137C48.6641 336.137 48.3154 336.084 48.0146 335.979C47.7139 335.875 47.4564 335.733 47.2422 335.556C47.028 335.378 46.8503 335.184 46.709 334.975H46.627C46.6406 335.152 46.6566 335.367 46.6748 335.617C46.6976 335.868 46.709 336.087 46.709 336.273V339.35H45.5674V328.508H46.5039L46.6543 329.615H46.709C46.8548 329.387 47.0326 329.18 47.2422 328.993C47.4518 328.802 47.707 328.651 48.0078 328.542C48.3132 328.428 48.6732 328.371 49.0879 328.371ZM48.8896 329.328C48.3701 329.328 47.9508 329.428 47.6318 329.629C47.3174 329.829 47.0872 330.13 46.9414 330.531C46.7956 330.928 46.7181 331.427 46.709 332.028V332.247C46.709 332.881 46.7773 333.416 46.9141 333.854C47.0553 334.291 47.2855 334.624 47.6045 334.852C47.9281 335.079 48.361 335.193 48.9033 335.193C49.3682 335.193 49.7555 335.068 50.0654 334.817C50.3753 334.567 50.6055 334.218 50.7559 333.771C50.9108 333.32 50.9883 332.803 50.9883 332.22C50.9883 331.336 50.8151 330.634 50.4688 330.114C50.127 329.59 49.6006 329.328 48.8896 329.328ZM55.2812 336H54.1396V325.363H55.2812V336ZM60.4834 328.385C61.3766 328.385 62.0397 328.585 62.4727 328.986C62.9056 329.387 63.1221 330.028 63.1221 330.907V336H62.2949L62.0762 334.893H62.0215C61.8118 335.166 61.5931 335.396 61.3652 335.583C61.1374 335.765 60.873 335.904 60.5723 336C60.276 336.091 59.9115 336.137 59.4785 336.137C59.0228 336.137 58.6172 336.057 58.2617 335.897C57.9108 335.738 57.6328 335.496 57.4277 335.173C57.2272 334.849 57.127 334.439 57.127 333.942C57.127 333.195 57.4232 332.621 58.0156 332.22C58.6081 331.819 59.5104 331.6 60.7227 331.563L62.0146 331.509V331.051C62.0146 330.404 61.8757 329.95 61.5977 329.69C61.3197 329.431 60.9277 329.301 60.4219 329.301C60.0299 329.301 59.6562 329.358 59.3008 329.472C58.9453 329.586 58.6081 329.72 58.2891 329.875L57.9404 329.014C58.2777 328.84 58.665 328.692 59.1025 328.569C59.54 328.446 60.0003 328.385 60.4834 328.385ZM62.001 332.309L60.8594 332.356C59.9251 332.393 59.2666 332.546 58.8838 332.814C58.501 333.083 58.3096 333.464 58.3096 333.956C58.3096 334.384 58.4395 334.701 58.6992 334.906C58.959 335.111 59.3031 335.214 59.7314 335.214C60.3968 335.214 60.9414 335.029 61.3652 334.66C61.7891 334.291 62.001 333.737 62.001 332.999V332.309ZM64.2773 328.508H65.4941L67.1484 332.855C67.2441 333.111 67.333 333.357 67.415 333.594C67.4971 333.826 67.57 334.049 67.6338 334.264C67.6976 334.478 67.7477 334.685 67.7842 334.886H67.832C67.8958 334.658 67.987 334.359 68.1055 333.99C68.224 333.617 68.3516 333.236 68.4883 332.849L70.0537 328.508H71.2773L68.0166 337.101C67.8434 337.561 67.6406 337.962 67.4082 338.304C67.1803 338.646 66.9023 338.908 66.5742 339.09C66.2461 339.277 65.8496 339.37 65.3848 339.37C65.1706 339.37 64.9814 339.356 64.8174 339.329C64.6533 339.306 64.512 339.279 64.3936 339.247V338.338C64.4938 338.361 64.6146 338.381 64.7559 338.399C64.9017 338.418 65.0521 338.427 65.207 338.427C65.4896 338.427 65.7334 338.372 65.9385 338.263C66.1481 338.158 66.3281 338.003 66.4785 337.798C66.6289 337.593 66.7588 337.349 66.8682 337.066L67.2783 336.014L64.2773 328.508ZM81.7842 328.337C81.7842 328.784 81.6976 329.171 81.5244 329.499C81.3512 329.827 81.1097 330.096 80.7998 330.306C80.4899 330.511 80.1253 330.654 79.7061 330.736V330.791C80.499 330.891 81.0938 331.146 81.4902 331.557C81.8913 331.967 82.0918 332.505 82.0918 333.17C82.0918 333.749 81.9551 334.261 81.6816 334.708C81.4128 335.155 80.998 335.506 80.4375 335.761C79.8815 336.011 79.1683 336.137 78.2979 336.137C77.7692 336.137 77.2793 336.093 76.8281 336.007C76.3815 335.925 75.9531 335.786 75.543 335.59V334.523C75.9577 334.729 76.4089 334.89 76.8965 335.009C77.3841 335.123 77.8558 335.18 78.3115 335.18C79.223 335.18 79.8815 335 80.2871 334.64C80.6927 334.275 80.8955 333.778 80.8955 333.149C80.8955 332.716 80.7816 332.368 80.5537 332.104C80.3304 331.835 80.0068 331.639 79.583 331.516C79.1637 331.388 78.6579 331.324 78.0654 331.324H77.0674V330.354H78.0723C78.6146 330.354 79.0749 330.274 79.4531 330.114C79.8314 329.955 80.1185 329.731 80.3145 329.444C80.515 329.153 80.6152 328.809 80.6152 328.412C80.6152 327.906 80.4466 327.517 80.1094 327.243C79.7721 326.965 79.3141 326.826 78.7354 326.826C78.3799 326.826 78.0563 326.863 77.7646 326.936C77.473 327.008 77.1995 327.109 76.9443 327.236C76.6891 327.364 76.4339 327.512 76.1787 327.681L75.6045 326.901C75.9691 326.619 76.4134 326.375 76.9375 326.17C77.4616 325.965 78.0563 325.862 78.7217 325.862C79.7425 325.862 80.5081 326.095 81.0186 326.56C81.529 327.024 81.7842 327.617 81.7842 328.337Z" fill="#61656E"/>
<path d="M144.867 347L143.191 342.242H136.641L134.965 347H132L138.375 329.797H141.492L147.855 347H144.867ZM142.465 339.828L140.836 335.141C140.773 334.938 140.684 334.652 140.566 334.285C140.449 333.91 140.332 333.531 140.215 333.148C140.098 332.758 140 332.43 139.922 332.164C139.844 332.484 139.746 332.844 139.629 333.242C139.52 333.633 139.41 334 139.301 334.344C139.199 334.688 139.121 334.953 139.066 335.141L137.426 339.828H142.465ZM154.922 333.781C156.562 333.781 157.801 334.145 158.637 334.871C159.48 335.598 159.902 336.73 159.902 338.27V347H157.945L157.418 345.16H157.324C156.957 345.629 156.578 346.016 156.188 346.32C155.797 346.625 155.344 346.852 154.828 347C154.32 347.156 153.699 347.234 152.965 347.234C152.191 347.234 151.5 347.094 150.891 346.812C150.281 346.523 149.801 346.086 149.449 345.5C149.098 344.914 148.922 344.172 148.922 343.273C148.922 341.938 149.418 340.934 150.41 340.262C151.41 339.59 152.918 339.219 154.934 339.148L157.184 339.066V338.387C157.184 337.488 156.973 336.848 156.551 336.465C156.137 336.082 155.551 335.891 154.793 335.891C154.145 335.891 153.516 335.984 152.906 336.172C152.297 336.359 151.703 336.59 151.125 336.863L150.234 334.918C150.867 334.582 151.586 334.309 152.391 334.098C153.203 333.887 154.047 333.781 154.922 333.781ZM157.172 340.801L155.496 340.859C154.121 340.906 153.156 341.141 152.602 341.562C152.047 341.984 151.77 342.562 151.77 343.297C151.77 343.938 151.961 344.406 152.344 344.703C152.727 344.992 153.23 345.137 153.855 345.137C154.809 345.137 155.598 344.867 156.223 344.328C156.855 343.781 157.172 342.98 157.172 341.926V340.801ZM164.039 329.867H169.137C171.348 329.867 173.016 330.188 174.141 330.828C175.266 331.469 175.828 332.574 175.828 334.145C175.828 334.801 175.711 335.395 175.477 335.926C175.25 336.449 174.918 336.883 174.48 337.227C174.043 337.562 173.504 337.789 172.863 337.906V338.023C173.527 338.141 174.117 338.348 174.633 338.645C175.156 338.941 175.566 339.367 175.863 339.922C176.168 340.477 176.32 341.195 176.32 342.078C176.32 343.125 176.07 344.016 175.57 344.75C175.078 345.484 174.371 346.043 173.449 346.426C172.535 346.809 171.449 347 170.191 347H164.039V329.867ZM166.852 336.934H169.547C170.82 336.934 171.703 336.727 172.195 336.312C172.688 335.898 172.934 335.293 172.934 334.496C172.934 333.684 172.641 333.098 172.055 332.738C171.477 332.379 170.555 332.199 169.289 332.199H166.852V336.934ZM166.852 339.207V344.645H169.816C171.129 344.645 172.051 344.391 172.582 343.883C173.113 343.375 173.379 342.688 173.379 341.82C173.379 341.289 173.258 340.828 173.016 340.438C172.781 340.047 172.395 339.746 171.855 339.535C171.316 339.316 170.59 339.207 169.676 339.207H166.852ZM182.332 328.766V333.16C182.332 333.668 182.316 334.168 182.285 334.66C182.262 335.145 182.238 335.523 182.215 335.797H182.332C182.684 335.234 183.172 334.762 183.797 334.379C184.43 333.988 185.238 333.793 186.223 333.793C187.762 333.793 189 334.359 189.938 335.492C190.875 336.617 191.344 338.285 191.344 340.496C191.344 341.965 191.129 343.199 190.699 344.199C190.27 345.199 189.664 345.957 188.883 346.473C188.109 346.98 187.199 347.234 186.152 347.234C185.168 347.234 184.371 347.055 183.762 346.695C183.16 346.328 182.688 345.902 182.344 345.418H182.145L181.641 347H179.578V328.766H182.332ZM185.496 336.031C184.715 336.031 184.094 336.188 183.633 336.5C183.18 336.812 182.852 337.281 182.648 337.906C182.445 338.523 182.34 339.309 182.332 340.262V340.508C182.332 341.953 182.559 343.059 183.012 343.824C183.473 344.59 184.309 344.973 185.52 344.973C186.48 344.973 187.219 344.586 187.734 343.812C188.25 343.031 188.508 341.914 188.508 340.461C188.508 338.992 188.25 337.887 187.734 337.145C187.227 336.402 186.48 336.031 185.496 336.031ZM202.113 332.012C201.293 332.012 200.559 332.16 199.91 332.457C199.27 332.754 198.727 333.184 198.281 333.746C197.836 334.301 197.496 334.977 197.262 335.773C197.027 336.562 196.91 337.453 196.91 338.445C196.91 339.773 197.098 340.918 197.473 341.879C197.848 342.832 198.418 343.566 199.184 344.082C199.949 344.59 200.918 344.844 202.09 344.844C202.816 344.844 203.523 344.773 204.211 344.633C204.898 344.492 205.609 344.301 206.344 344.059V346.449C205.648 346.723 204.945 346.922 204.234 347.047C203.523 347.172 202.703 347.234 201.773 347.234C200.023 347.234 198.57 346.871 197.414 346.145C196.266 345.418 195.406 344.395 194.836 343.074C194.273 341.754 193.992 340.207 193.992 338.434C193.992 337.137 194.172 335.949 194.531 334.871C194.891 333.793 195.414 332.863 196.102 332.082C196.789 331.293 197.637 330.688 198.645 330.266C199.66 329.836 200.82 329.621 202.125 329.621C202.984 329.621 203.828 329.719 204.656 329.914C205.492 330.102 206.266 330.371 206.977 330.723L205.992 333.043C205.398 332.762 204.777 332.52 204.129 332.316C203.48 332.113 202.809 332.012 202.113 332.012ZM214.969 347.234C213.742 347.234 212.68 346.996 211.781 346.52C210.883 346.043 210.191 345.312 209.707 344.328C209.223 343.344 208.98 342.094 208.98 340.578C208.98 339 209.246 337.711 209.777 336.711C210.309 335.711 211.043 334.973 211.98 334.496C212.926 334.02 214.008 333.781 215.227 333.781C216 333.781 216.699 333.859 217.324 334.016C217.957 334.164 218.492 334.348 218.93 334.566L218.109 336.77C217.633 336.574 217.145 336.41 216.645 336.277C216.145 336.145 215.664 336.078 215.203 336.078C214.445 336.078 213.812 336.246 213.305 336.582C212.805 336.918 212.43 337.418 212.18 338.082C211.938 338.746 211.816 339.57 211.816 340.555C211.816 341.508 211.941 342.312 212.191 342.969C212.441 343.617 212.812 344.109 213.305 344.445C213.797 344.773 214.402 344.938 215.121 344.938C215.832 344.938 216.469 344.852 217.031 344.68C217.594 344.508 218.125 344.285 218.625 344.012V346.402C218.133 346.684 217.605 346.891 217.043 347.023C216.48 347.164 215.789 347.234 214.969 347.234ZM235.863 338.27C235.863 340.199 235.504 341.812 234.785 343.109C234.066 344.398 233.023 345.371 231.656 346.027C230.289 346.676 228.641 347 226.711 347H221.953V329.867H227.227C229 329.867 230.531 330.188 231.82 330.828C233.109 331.461 234.105 332.402 234.809 333.652C235.512 334.895 235.863 336.434 235.863 338.27ZM232.934 338.352C232.934 336.945 232.711 335.789 232.266 334.883C231.828 333.977 231.18 333.305 230.32 332.867C229.469 332.422 228.418 332.199 227.168 332.199H224.766V344.645H226.758C228.828 344.645 230.375 344.117 231.398 343.062C232.422 342.008 232.934 340.438 232.934 338.352ZM243.633 347.234C242.086 347.234 240.844 346.672 239.906 345.547C238.977 344.414 238.512 342.746 238.512 340.543C238.512 338.316 238.984 336.633 239.93 335.492C240.883 334.352 242.137 333.781 243.691 333.781C244.348 333.781 244.922 333.871 245.414 334.051C245.906 334.223 246.328 334.457 246.68 334.754C247.039 335.051 247.344 335.383 247.594 335.75H247.723C247.684 335.508 247.637 335.16 247.582 334.707C247.535 334.246 247.512 333.82 247.512 333.43V328.766H250.277V347H248.121L247.629 345.23H247.512C247.277 345.605 246.98 345.945 246.621 346.25C246.27 346.547 245.848 346.785 245.355 346.965C244.871 347.145 244.297 347.234 243.633 347.234ZM244.406 344.996C245.586 344.996 246.418 344.656 246.902 343.977C247.387 343.297 247.637 342.277 247.652 340.918V340.555C247.652 339.102 247.418 337.988 246.949 337.215C246.48 336.434 245.625 336.043 244.383 336.043C243.391 336.043 242.633 336.445 242.109 337.25C241.594 338.047 241.336 339.16 241.336 340.59C241.336 342.02 241.594 343.113 242.109 343.871C242.633 344.621 243.398 344.996 244.406 344.996ZM264.211 347H254.508V329.867H264.211V332.234H257.32V336.887H263.777V339.242H257.32V344.621H264.211V347ZM272.801 333.781C273.957 333.781 274.949 334.02 275.777 334.496C276.605 334.973 277.242 335.648 277.688 336.523C278.133 337.398 278.355 338.445 278.355 339.664V341.141H269.695C269.727 342.398 270.062 343.367 270.703 344.047C271.352 344.727 272.258 345.066 273.422 345.066C274.25 345.066 274.992 344.988 275.648 344.832C276.312 344.668 276.996 344.43 277.699 344.117V346.355C277.051 346.66 276.391 346.883 275.719 347.023C275.047 347.164 274.242 347.234 273.305 347.234C272.031 347.234 270.91 346.988 269.941 346.496C268.98 345.996 268.227 345.254 267.68 344.27C267.141 343.285 266.871 342.062 266.871 340.602C266.871 339.148 267.117 337.914 267.609 336.898C268.102 335.883 268.793 335.109 269.684 334.578C270.574 334.047 271.613 333.781 272.801 333.781ZM272.801 335.855C271.934 335.855 271.23 336.137 270.691 336.699C270.16 337.262 269.848 338.086 269.754 339.172H275.66C275.652 338.523 275.543 337.949 275.332 337.449C275.129 336.949 274.816 336.559 274.395 336.277C273.98 335.996 273.449 335.855 272.801 335.855ZM284.531 347H281.742V329.867H291.422V332.234H284.531V337.578H290.977V339.934H284.531V347ZM300.738 336.125H297.586V347H294.832V336.125H292.711V334.801L294.832 333.992V333.09C294.832 331.988 295.004 331.113 295.348 330.465C295.699 329.816 296.199 329.352 296.848 329.07C297.504 328.781 298.285 328.637 299.191 328.637C299.785 328.637 300.328 328.688 300.82 328.789C301.312 328.883 301.727 328.992 302.062 329.117L301.348 331.203C301.082 331.117 300.785 331.039 300.457 330.969C300.129 330.891 299.777 330.852 299.402 330.852C298.777 330.852 298.316 331.047 298.02 331.438C297.73 331.828 297.586 332.398 297.586 333.148V334.027H300.738V336.125ZM310.148 337.695H316.547V346.297C315.648 346.594 314.719 346.824 313.758 346.988C312.797 347.152 311.719 347.234 310.523 347.234C308.781 347.234 307.305 346.891 306.094 346.203C304.891 345.508 303.977 344.504 303.352 343.191C302.727 341.871 302.414 340.281 302.414 338.422C302.414 336.633 302.762 335.082 303.457 333.77C304.152 332.449 305.164 331.43 306.492 330.711C307.82 329.984 309.43 329.621 311.32 329.621C312.25 329.621 313.148 329.715 314.016 329.902C314.891 330.082 315.691 330.332 316.418 330.652L315.434 332.973C314.855 332.699 314.207 332.469 313.488 332.281C312.77 332.094 312.023 332 311.25 332C310.023 332 308.965 332.266 308.074 332.797C307.191 333.328 306.512 334.078 306.035 335.047C305.559 336.008 305.32 337.145 305.32 338.457C305.32 339.73 305.512 340.848 305.895 341.809C306.277 342.77 306.875 343.52 307.688 344.059C308.508 344.59 309.566 344.855 310.863 344.855C311.512 344.855 312.062 344.82 312.516 344.75C312.969 344.68 313.387 344.602 313.77 344.516V340.098H310.148V337.695ZM324.07 352.766C322.312 352.766 320.965 352.449 320.027 351.816C319.09 351.184 318.621 350.297 318.621 349.156C318.621 348.359 318.871 347.684 319.371 347.129C319.871 346.582 320.586 346.203 321.516 345.992C321.164 345.836 320.859 345.594 320.602 345.266C320.352 344.93 320.227 344.559 320.227 344.152C320.227 343.668 320.363 343.254 320.637 342.91C320.91 342.566 321.32 342.234 321.867 341.914C321.188 341.625 320.641 341.156 320.227 340.508C319.82 339.852 319.617 339.082 319.617 338.199C319.617 337.262 319.816 336.465 320.215 335.809C320.613 335.145 321.195 334.641 321.961 334.297C322.727 333.945 323.652 333.77 324.738 333.77C324.973 333.77 325.227 333.785 325.5 333.816C325.781 333.84 326.039 333.871 326.273 333.91C326.516 333.941 326.699 333.977 326.824 334.016H331.312V335.551L329.109 335.961C329.32 336.258 329.488 336.598 329.613 336.98C329.738 337.355 329.801 337.766 329.801 338.211C329.801 339.555 329.336 340.613 328.406 341.387C327.484 342.152 326.211 342.535 324.586 342.535C324.195 342.52 323.816 342.488 323.449 342.441C323.168 342.613 322.953 342.805 322.805 343.016C322.656 343.219 322.582 343.449 322.582 343.707C322.582 343.918 322.656 344.09 322.805 344.223C322.953 344.348 323.172 344.441 323.461 344.504C323.758 344.566 324.117 344.598 324.539 344.598H326.777C328.199 344.598 329.285 344.898 330.035 345.5C330.785 346.102 331.16 346.984 331.16 348.148C331.16 349.625 330.551 350.762 329.332 351.559C328.113 352.363 326.359 352.766 324.07 352.766ZM324.176 350.832C325.137 350.832 325.945 350.738 326.602 350.551C327.258 350.363 327.754 350.094 328.09 349.742C328.426 349.398 328.594 348.988 328.594 348.512C328.594 348.09 328.488 347.766 328.277 347.539C328.066 347.312 327.75 347.156 327.328 347.07C326.906 346.984 326.383 346.941 325.758 346.941H323.719C323.211 346.941 322.762 347.02 322.371 347.176C321.98 347.34 321.676 347.574 321.457 347.879C321.246 348.184 321.141 348.551 321.141 348.98C321.141 349.574 321.402 350.031 321.926 350.352C322.457 350.672 323.207 350.832 324.176 350.832ZM324.715 340.73C325.52 340.73 326.117 340.512 326.508 340.074C326.898 339.629 327.094 339.004 327.094 338.199C327.094 337.324 326.891 336.668 326.484 336.23C326.086 335.793 325.492 335.574 324.703 335.574C323.93 335.574 323.34 335.797 322.934 336.242C322.535 336.688 322.336 337.348 322.336 338.223C322.336 339.012 322.535 339.629 322.934 340.074C323.34 340.512 323.934 340.73 324.715 340.73ZM141.176 379H138.41V367.973C138.41 367.605 138.414 367.238 138.422 366.871C138.43 366.504 138.438 366.145 138.445 365.793C138.461 365.441 138.48 365.105 138.504 364.785C138.34 364.965 138.137 365.16 137.895 365.371C137.66 365.582 137.41 365.801 137.145 366.027L135.176 367.598L133.793 365.852L138.879 361.867H141.176V379ZM158.414 379H146.812V376.926L151.254 372.426C152.113 371.551 152.82 370.797 153.375 370.164C153.93 369.523 154.34 368.918 154.605 368.348C154.879 367.777 155.016 367.156 155.016 366.484C155.016 365.656 154.777 365.031 154.301 364.609C153.824 364.18 153.195 363.965 152.414 363.965C151.672 363.965 150.984 364.113 150.352 364.41C149.727 364.699 149.078 365.113 148.406 365.652L146.895 363.836C147.371 363.43 147.879 363.059 148.418 362.723C148.965 362.387 149.574 362.121 150.246 361.926C150.918 361.723 151.684 361.621 152.543 361.621C153.629 361.621 154.566 361.816 155.355 362.207C156.145 362.59 156.75 363.125 157.172 363.812C157.602 364.5 157.816 365.301 157.816 366.215C157.816 367.137 157.633 367.988 157.266 368.77C156.898 369.551 156.375 370.324 155.695 371.09C155.016 371.848 154.207 372.672 153.27 373.562L150.305 376.457V376.586H158.414V379ZM171.492 365.781C171.492 366.555 171.336 367.227 171.023 367.797C170.711 368.367 170.281 368.836 169.734 369.203C169.195 369.562 168.57 369.82 167.859 369.977V370.059C169.227 370.23 170.258 370.66 170.953 371.348C171.656 372.035 172.008 372.945 172.008 374.078C172.008 375.07 171.77 375.957 171.293 376.738C170.816 377.512 170.086 378.121 169.102 378.566C168.117 379.012 166.852 379.234 165.305 379.234C164.375 379.234 163.512 379.16 162.715 379.012C161.926 378.863 161.176 378.625 160.465 378.297V375.848C161.191 376.207 161.965 376.484 162.785 376.68C163.605 376.875 164.383 376.973 165.117 376.973C166.547 376.973 167.566 376.707 168.176 376.176C168.785 375.637 169.09 374.895 169.09 373.949C169.09 373.34 168.93 372.84 168.609 372.449C168.297 372.059 167.809 371.766 167.145 371.57C166.488 371.375 165.641 371.277 164.602 371.277H163.09V369.062H164.613C165.605 369.062 166.402 368.945 167.004 368.711C167.605 368.469 168.039 368.137 168.305 367.715C168.578 367.293 168.715 366.801 168.715 366.238C168.715 365.504 168.477 364.934 168 364.527C167.523 364.113 166.816 363.906 165.879 363.906C165.301 363.906 164.773 363.973 164.297 364.105C163.828 364.238 163.395 364.406 162.996 364.609C162.598 364.812 162.219 365.031 161.859 365.266L160.535 363.355C161.184 362.871 161.957 362.461 162.855 362.125C163.754 361.789 164.801 361.621 165.996 361.621C167.754 361.621 169.109 362 170.062 362.758C171.016 363.508 171.492 364.516 171.492 365.781ZM186.504 375.238H184.184V379H181.465V375.238H173.672V373.152L181.5 361.82H184.184V372.953H186.504V375.238ZM181.465 372.953V368.699C181.465 368.348 181.469 367.992 181.477 367.633C181.492 367.266 181.508 366.914 181.523 366.578C181.539 366.242 181.555 365.934 181.57 365.652C181.586 365.363 181.598 365.125 181.605 364.938H181.512C181.363 365.25 181.199 365.57 181.02 365.898C180.84 366.219 180.648 366.531 180.445 366.836L176.227 372.953H181.465ZM193.84 368.289C194.941 368.289 195.91 368.488 196.746 368.887C197.59 369.277 198.246 369.855 198.715 370.621C199.184 371.379 199.418 372.309 199.418 373.41C199.418 374.613 199.164 375.652 198.656 376.527C198.148 377.395 197.402 378.062 196.418 378.531C195.434 379 194.234 379.234 192.82 379.234C191.922 379.234 191.082 379.156 190.301 379C189.527 378.844 188.859 378.609 188.297 378.297V375.812C188.883 376.141 189.586 376.41 190.406 376.621C191.227 376.824 192.012 376.926 192.762 376.926C193.559 376.926 194.242 376.809 194.812 376.574C195.383 376.34 195.82 375.98 196.125 375.496C196.438 375.012 196.594 374.398 196.594 373.656C196.594 372.672 196.277 371.914 195.645 371.383C195.02 370.844 194.039 370.574 192.703 370.574C192.234 370.574 191.734 370.617 191.203 370.703C190.68 370.781 190.242 370.867 189.891 370.961L188.684 370.246L189.328 361.867H198.234V364.293H191.754L191.379 368.559C191.66 368.496 191.996 368.438 192.387 368.383C192.777 368.32 193.262 368.289 193.84 368.289ZM201.773 371.699C201.773 370.691 201.844 369.699 201.984 368.723C202.133 367.746 202.383 366.832 202.734 365.98C203.086 365.129 203.57 364.379 204.188 363.73C204.812 363.082 205.598 362.574 206.543 362.207C207.488 361.832 208.625 361.645 209.953 361.645C210.297 361.645 210.684 361.66 211.113 361.691C211.543 361.723 211.898 361.773 212.18 361.844V364.129C211.875 364.043 211.539 363.977 211.172 363.93C210.812 363.883 210.453 363.859 210.094 363.859C208.656 363.859 207.535 364.133 206.73 364.68C205.926 365.219 205.352 365.961 205.008 366.906C204.664 367.844 204.465 368.918 204.41 370.129H204.551C204.785 369.738 205.078 369.391 205.43 369.086C205.781 368.781 206.211 368.539 206.719 368.359C207.227 368.172 207.816 368.078 208.488 368.078C209.488 368.078 210.359 368.289 211.102 368.711C211.844 369.125 212.414 369.727 212.812 370.516C213.219 371.305 213.422 372.262 213.422 373.387C213.422 374.598 213.191 375.641 212.73 376.516C212.277 377.391 211.629 378.062 210.785 378.531C209.949 379 208.953 379.234 207.797 379.234C206.945 379.234 206.152 379.078 205.418 378.766C204.691 378.453 204.055 377.984 203.508 377.359C202.961 376.734 202.535 375.953 202.23 375.016C201.926 374.07 201.773 372.965 201.773 371.699ZM207.75 376.961C208.641 376.961 209.355 376.672 209.895 376.094C210.441 375.508 210.715 374.613 210.715 373.41C210.715 372.434 210.473 371.66 209.988 371.09C209.512 370.52 208.793 370.234 207.832 370.234C207.176 370.234 206.602 370.375 206.109 370.656C205.617 370.938 205.234 371.293 204.961 371.723C204.695 372.152 204.562 372.59 204.562 373.035C204.562 373.488 204.629 373.945 204.762 374.406C204.895 374.867 205.094 375.293 205.359 375.684C205.625 376.066 205.957 376.375 206.355 376.609C206.754 376.844 207.219 376.961 207.75 376.961ZM217.441 379L224.168 364.281H215.273V361.867H227.133V363.754L220.406 379H217.441ZM234.996 361.633C235.988 361.633 236.883 361.789 237.68 362.102C238.477 362.406 239.109 362.863 239.578 363.473C240.047 364.082 240.281 364.836 240.281 365.734C240.281 366.43 240.137 367.035 239.848 367.551C239.566 368.066 239.184 368.52 238.699 368.91C238.215 369.293 237.672 369.633 237.07 369.93C237.742 370.258 238.359 370.637 238.922 371.066C239.492 371.488 239.949 371.984 240.293 372.555C240.645 373.125 240.82 373.793 240.82 374.559C240.82 375.52 240.574 376.352 240.082 377.055C239.598 377.75 238.922 378.289 238.055 378.672C237.188 379.047 236.176 379.234 235.02 379.234C233.777 379.234 232.719 379.051 231.844 378.684C230.969 378.316 230.305 377.793 229.852 377.113C229.398 376.426 229.172 375.605 229.172 374.652C229.172 373.863 229.328 373.18 229.641 372.602C229.953 372.023 230.371 371.523 230.895 371.102C231.426 370.68 232.008 370.324 232.641 370.035C232.102 369.715 231.609 369.355 231.164 368.957C230.719 368.551 230.363 368.086 230.098 367.562C229.84 367.031 229.711 366.418 229.711 365.723C229.711 364.832 229.949 364.086 230.426 363.484C230.902 362.875 231.539 362.414 232.336 362.102C233.141 361.789 234.027 361.633 234.996 361.633ZM231.797 374.547C231.797 375.297 232.062 375.914 232.594 376.398C233.125 376.883 233.918 377.125 234.973 377.125C236.02 377.125 236.816 376.887 237.363 376.41C237.91 375.934 238.184 375.305 238.184 374.523C238.184 374.023 238.043 373.582 237.762 373.199C237.488 372.816 237.117 372.477 236.648 372.18C236.188 371.875 235.676 371.594 235.113 371.336L234.738 371.184C234.129 371.441 233.605 371.734 233.168 372.062C232.73 372.383 232.391 372.746 232.148 373.152C231.914 373.559 231.797 374.023 231.797 374.547ZM234.973 363.754C234.215 363.754 233.59 363.941 233.098 364.316C232.613 364.684 232.371 365.215 232.371 365.91C232.371 366.402 232.488 366.824 232.723 367.176C232.965 367.527 233.289 367.832 233.695 368.09C234.102 368.34 234.551 368.574 235.043 368.793C235.52 368.582 235.949 368.352 236.332 368.102C236.723 367.844 237.031 367.539 237.258 367.188C237.492 366.828 237.609 366.398 237.609 365.898C237.609 365.211 237.363 364.684 236.871 364.316C236.387 363.941 235.754 363.754 234.973 363.754ZM246.223 373.773H244.148L243.586 361.867H246.785L246.223 373.773ZM243.445 377.547C243.445 376.906 243.609 376.457 243.938 376.199C244.273 375.934 244.684 375.801 245.168 375.801C245.645 375.801 246.051 375.934 246.387 376.199C246.723 376.457 246.891 376.906 246.891 377.547C246.891 378.172 246.723 378.625 246.387 378.906C246.051 379.18 245.645 379.316 245.168 379.316C244.684 379.316 244.273 379.18 243.938 378.906C243.609 378.625 243.445 378.172 243.445 377.547ZM251.789 373.773V373.035C251.789 372.457 251.855 371.953 251.988 371.523C252.121 371.094 252.344 370.691 252.656 370.316C252.969 369.934 253.391 369.535 253.922 369.121C254.469 368.691 254.902 368.32 255.223 368.008C255.551 367.695 255.785 367.383 255.926 367.07C256.074 366.75 256.148 366.379 256.148 365.957C256.148 365.293 255.922 364.789 255.469 364.445C255.023 364.094 254.395 363.918 253.582 363.918C252.863 363.918 252.188 364.02 251.555 364.223C250.922 364.426 250.297 364.68 249.68 364.984L248.707 362.922C249.418 362.531 250.188 362.219 251.016 361.984C251.852 361.742 252.77 361.621 253.77 361.621C255.363 361.621 256.594 362.008 257.461 362.781C258.336 363.555 258.773 364.574 258.773 365.84C258.773 366.535 258.664 367.133 258.445 367.633C258.227 368.125 257.902 368.582 257.473 369.004C257.051 369.418 256.539 369.855 255.938 370.316C255.445 370.707 255.066 371.047 254.801 371.336C254.543 371.617 254.363 371.902 254.262 372.191C254.168 372.48 254.121 372.828 254.121 373.234V373.773H251.789ZM251.344 377.547C251.344 376.906 251.508 376.457 251.836 376.199C252.172 375.934 252.582 375.801 253.066 375.801C253.535 375.801 253.938 375.934 254.273 376.199C254.609 376.457 254.777 376.906 254.777 377.547C254.777 378.172 254.609 378.625 254.273 378.906C253.938 379.18 253.535 379.316 253.066 379.316C252.582 379.316 252.172 379.18 251.836 378.906C251.508 378.625 251.344 378.172 251.344 377.547ZM260.367 372.426C260.367 371.113 260.492 369.832 260.742 368.582C261 367.332 261.391 366.141 261.914 365.008C262.438 363.875 263.098 362.828 263.895 361.867H266.297C265.18 363.359 264.336 365.012 263.766 366.824C263.203 368.637 262.922 370.496 262.922 372.402C262.922 373.645 263.047 374.875 263.297 376.094C263.547 377.312 263.922 378.484 264.422 379.609C264.922 380.742 265.539 381.805 266.273 382.797H263.895C263.098 381.859 262.438 380.836 261.914 379.727C261.391 378.617 261 377.445 260.742 376.211C260.492 374.977 260.367 373.715 260.367 372.426ZM273.668 372.414C273.668 373.711 273.543 374.977 273.293 376.211C273.043 377.445 272.656 378.617 272.133 379.727C271.617 380.836 270.953 381.859 270.141 382.797H267.773C268.508 381.805 269.125 380.742 269.625 379.609C270.125 378.477 270.5 377.301 270.75 376.082C271 374.863 271.125 373.633 271.125 372.391C271.125 371.125 270.996 369.875 270.738 368.641C270.488 367.406 270.113 366.219 269.613 365.078C269.113 363.93 268.492 362.859 267.75 361.867H270.141C270.953 362.828 271.617 363.875 272.133 365.008C272.656 366.141 273.043 367.332 273.293 368.582C273.543 369.824 273.668 371.102 273.668 372.414Z" fill="#161616"/>
</svg>
