<svg width="784" height="113" viewBox="0 0 784 113" fill="none" xmlns="http://www.w3.org/2000/svg">
<rect width="784" height="113" fill="white"/>
<path d="M160.256 40.4336L158.018 49H156.482L155.053 43.8672C155.018 43.7422 154.979 43.5938 154.936 43.4219C154.893 43.25 154.85 43.0742 154.807 42.8945C154.768 42.7148 154.732 42.5508 154.701 42.4023C154.674 42.25 154.654 42.1328 154.643 42.0508C154.635 42.1328 154.617 42.248 154.59 42.3965C154.562 42.5449 154.529 42.709 154.49 42.8887C154.455 43.0645 154.416 43.2402 154.373 43.416C154.33 43.5879 154.291 43.7402 154.256 43.873L152.85 49H151.32L149.088 40.4336H150.5L151.736 45.4551C151.775 45.6152 151.814 45.7891 151.854 45.9766C151.896 46.1602 151.936 46.3457 151.971 46.5332C152.01 46.7207 152.045 46.9043 152.076 47.084C152.107 47.2598 152.133 47.4199 152.152 47.5645C152.172 47.416 152.197 47.252 152.229 47.0723C152.26 46.8887 152.293 46.7031 152.328 46.5156C152.367 46.3242 152.406 46.1406 152.445 45.9648C152.488 45.7891 152.531 45.6309 152.574 45.4902L153.969 40.4336H155.34L156.764 45.5078C156.807 45.6523 156.848 45.8145 156.887 45.9941C156.93 46.1738 156.971 46.3574 157.01 46.5449C157.049 46.7324 157.084 46.9141 157.115 47.0898C157.146 47.2656 157.172 47.4238 157.191 47.5645C157.219 47.373 157.254 47.1543 157.297 46.9082C157.34 46.6621 157.389 46.4121 157.443 46.1582C157.498 45.9043 157.553 45.6699 157.607 45.4551L158.838 40.4336H160.256ZM163.912 42.3906C164.49 42.3906 164.986 42.5098 165.4 42.748C165.814 42.9863 166.133 43.3242 166.355 43.7617C166.578 44.1992 166.689 44.7227 166.689 45.332V46.0703H162.359C162.375 46.6992 162.543 47.1836 162.863 47.5234C163.188 47.8633 163.641 48.0332 164.223 48.0332C164.637 48.0332 165.008 47.9941 165.336 47.916C165.668 47.834 166.01 47.7148 166.361 47.5586V48.6777C166.037 48.8301 165.707 48.9414 165.371 49.0117C165.035 49.082 164.633 49.1172 164.164 49.1172C163.527 49.1172 162.967 48.9941 162.482 48.748C162.002 48.498 161.625 48.127 161.352 47.6348C161.082 47.1426 160.947 46.5312 160.947 45.8008C160.947 45.0742 161.07 44.457 161.316 43.9492C161.562 43.4414 161.908 43.0547 162.354 42.7891C162.799 42.5234 163.318 42.3906 163.912 42.3906ZM163.912 43.4277C163.479 43.4277 163.127 43.5684 162.857 43.8496C162.592 44.1309 162.436 44.543 162.389 45.0859H165.342C165.338 44.7617 165.283 44.4746 165.178 44.2246C165.076 43.9746 164.92 43.7793 164.709 43.6387C164.502 43.498 164.236 43.4277 163.912 43.4277ZM169.625 49H168.242V39.8828H169.625V49ZM174.207 49.1172C173.594 49.1172 173.062 48.998 172.613 48.7598C172.164 48.5215 171.818 48.1562 171.576 47.6641C171.334 47.1719 171.213 46.5469 171.213 45.7891C171.213 45 171.346 44.3555 171.611 43.8555C171.877 43.3555 172.244 42.9863 172.713 42.748C173.186 42.5098 173.727 42.3906 174.336 42.3906C174.723 42.3906 175.072 42.4297 175.385 42.5078C175.701 42.582 175.969 42.6738 176.188 42.7832L175.777 43.8848C175.539 43.7871 175.295 43.7051 175.045 43.6387C174.795 43.5723 174.555 43.5391 174.324 43.5391C173.945 43.5391 173.629 43.623 173.375 43.791C173.125 43.959 172.938 44.209 172.812 44.541C172.691 44.873 172.631 45.2852 172.631 45.7773C172.631 46.2539 172.693 46.6562 172.818 46.9844C172.943 47.3086 173.129 47.5547 173.375 47.7227C173.621 47.8867 173.924 47.9688 174.283 47.9688C174.639 47.9688 174.957 47.9258 175.238 47.8398C175.52 47.7539 175.785 47.6426 176.035 47.5059V48.7012C175.789 48.8418 175.525 48.9453 175.244 49.0117C174.963 49.082 174.617 49.1172 174.207 49.1172ZM183.301 45.7422C183.301 46.2812 183.23 46.7598 183.09 47.1777C182.949 47.5957 182.744 47.9492 182.475 48.2383C182.205 48.5234 181.881 48.7422 181.502 48.8945C181.123 49.043 180.695 49.1172 180.219 49.1172C179.773 49.1172 179.365 49.043 178.994 48.8945C178.623 48.7422 178.301 48.5234 178.027 48.2383C177.758 47.9492 177.549 47.5957 177.4 47.1777C177.252 46.7598 177.178 46.2812 177.178 45.7422C177.178 45.0273 177.301 44.4219 177.547 43.9258C177.797 43.4258 178.152 43.0449 178.613 42.7832C179.074 42.5215 179.623 42.3906 180.26 42.3906C180.857 42.3906 181.385 42.5215 181.842 42.7832C182.299 43.0449 182.656 43.4258 182.914 43.9258C183.172 44.4258 183.301 45.0312 183.301 45.7422ZM178.596 45.7422C178.596 46.2148 178.652 46.6191 178.766 46.9551C178.883 47.291 179.062 47.5488 179.305 47.7285C179.547 47.9043 179.859 47.9922 180.242 47.9922C180.625 47.9922 180.938 47.9043 181.18 47.7285C181.422 47.5488 181.6 47.291 181.713 46.9551C181.826 46.6191 181.883 46.2148 181.883 45.7422C181.883 45.2695 181.826 44.8691 181.713 44.541C181.6 44.209 181.422 43.957 181.18 43.7852C180.938 43.6094 180.623 43.5215 180.236 43.5215C179.666 43.5215 179.25 43.7129 178.988 44.0957C178.727 44.4785 178.596 45.0273 178.596 45.7422ZM192.213 42.3906C192.939 42.3906 193.486 42.5781 193.854 42.9531C194.225 43.3281 194.41 43.9297 194.41 44.7578V49H193.033V45.0039C193.033 44.5117 192.938 44.1406 192.746 43.8906C192.555 43.6406 192.264 43.5156 191.873 43.5156C191.326 43.5156 190.932 43.6914 190.689 44.043C190.451 44.3906 190.332 44.8965 190.332 45.5605V49H188.955V45.0039C188.955 44.6758 188.912 44.4023 188.826 44.1836C188.744 43.9609 188.617 43.7949 188.445 43.6855C188.273 43.5723 188.057 43.5156 187.795 43.5156C187.416 43.5156 187.113 43.6016 186.887 43.7734C186.664 43.9453 186.504 44.1992 186.406 44.5352C186.309 44.8672 186.26 45.2754 186.26 45.7598V49H184.883V42.5137H185.955L186.148 43.3867H186.225C186.357 43.1602 186.521 42.9746 186.717 42.8301C186.916 42.6816 187.137 42.5723 187.379 42.502C187.621 42.4277 187.873 42.3906 188.135 42.3906C188.619 42.3906 189.027 42.4766 189.359 42.6484C189.691 42.8164 189.939 43.0742 190.104 43.4219H190.209C190.412 43.0703 190.695 42.8105 191.059 42.6426C191.422 42.4746 191.807 42.3906 192.213 42.3906ZM198.916 42.3906C199.494 42.3906 199.99 42.5098 200.404 42.748C200.818 42.9863 201.137 43.3242 201.359 43.7617C201.582 44.1992 201.693 44.7227 201.693 45.332V46.0703H197.363C197.379 46.6992 197.547 47.1836 197.867 47.5234C198.191 47.8633 198.645 48.0332 199.227 48.0332C199.641 48.0332 200.012 47.9941 200.34 47.916C200.672 47.834 201.014 47.7148 201.365 47.5586V48.6777C201.041 48.8301 200.711 48.9414 200.375 49.0117C200.039 49.082 199.637 49.1172 199.168 49.1172C198.531 49.1172 197.971 48.9941 197.486 48.748C197.006 48.498 196.629 48.127 196.355 47.6348C196.086 47.1426 195.951 46.5312 195.951 45.8008C195.951 45.0742 196.074 44.457 196.32 43.9492C196.566 43.4414 196.912 43.0547 197.357 42.7891C197.803 42.5234 198.322 42.3906 198.916 42.3906ZM198.916 43.4277C198.482 43.4277 198.131 43.5684 197.861 43.8496C197.596 44.1309 197.439 44.543 197.393 45.0859H200.346C200.342 44.7617 200.287 44.4746 200.182 44.2246C200.08 43.9746 199.924 43.7793 199.713 43.6387C199.506 43.498 199.24 43.4277 198.916 43.4277ZM204.635 47.6055L204.717 47.7402C204.646 48.0215 204.557 48.3242 204.447 48.6484C204.338 48.9727 204.219 49.2969 204.09 49.6211C203.961 49.9492 203.83 50.2578 203.697 50.5469H202.689C202.771 50.2305 202.85 49.8984 202.924 49.5508C203.002 49.207 203.072 48.8672 203.135 48.5312C203.201 48.1914 203.254 47.8828 203.293 47.6055H204.635ZM219.904 40.4336L217.666 49H216.131L214.701 43.8672C214.666 43.7422 214.627 43.5938 214.584 43.4219C214.541 43.25 214.498 43.0742 214.455 42.8945C214.416 42.7148 214.381 42.5508 214.35 42.4023C214.322 42.25 214.303 42.1328 214.291 42.0508C214.283 42.1328 214.266 42.248 214.238 42.3965C214.211 42.5449 214.178 42.709 214.139 42.8887C214.104 43.0645 214.064 43.2402 214.021 43.416C213.979 43.5879 213.939 43.7402 213.904 43.873L212.498 49H210.969L208.736 40.4336H210.148L211.385 45.4551C211.424 45.6152 211.463 45.7891 211.502 45.9766C211.545 46.1602 211.584 46.3457 211.619 46.5332C211.658 46.7207 211.693 46.9043 211.725 47.084C211.756 47.2598 211.781 47.4199 211.801 47.5645C211.82 47.416 211.846 47.252 211.877 47.0723C211.908 46.8887 211.941 46.7031 211.977 46.5156C212.016 46.3242 212.055 46.1406 212.094 45.9648C212.137 45.7891 212.18 45.6309 212.223 45.4902L213.617 40.4336H214.988L216.412 45.5078C216.455 45.6523 216.496 45.8145 216.535 45.9941C216.578 46.1738 216.619 46.3574 216.658 46.5449C216.697 46.7324 216.732 46.9141 216.764 47.0898C216.795 47.2656 216.82 47.4238 216.84 47.5645C216.867 47.373 216.902 47.1543 216.945 46.9082C216.988 46.6621 217.037 46.4121 217.092 46.1582C217.146 45.9043 217.201 45.6699 217.256 45.4551L218.486 40.4336H219.904ZM223.561 42.3906C224.139 42.3906 224.635 42.5098 225.049 42.748C225.463 42.9863 225.781 43.3242 226.004 43.7617C226.227 44.1992 226.338 44.7227 226.338 45.332V46.0703H222.008C222.023 46.6992 222.191 47.1836 222.512 47.5234C222.836 47.8633 223.289 48.0332 223.871 48.0332C224.285 48.0332 224.656 47.9941 224.984 47.916C225.316 47.834 225.658 47.7148 226.01 47.5586V48.6777C225.686 48.8301 225.355 48.9414 225.02 49.0117C224.684 49.082 224.281 49.1172 223.812 49.1172C223.176 49.1172 222.615 48.9941 222.131 48.748C221.65 48.498 221.273 48.127 221 47.6348C220.73 47.1426 220.596 46.5312 220.596 45.8008C220.596 45.0742 220.719 44.457 220.965 43.9492C221.211 43.4414 221.557 43.0547 222.002 42.7891C222.447 42.5234 222.967 42.3906 223.561 42.3906ZM223.561 43.4277C223.127 43.4277 222.775 43.5684 222.506 43.8496C222.24 44.1309 222.084 44.543 222.037 45.0859H224.99C224.986 44.7617 224.932 44.4746 224.826 44.2246C224.725 43.9746 224.568 43.7793 224.357 43.6387C224.15 43.498 223.885 43.4277 223.561 43.4277ZM231.271 42.3906C232.002 42.3906 232.57 42.5801 232.977 42.959C233.387 43.334 233.592 43.9375 233.592 44.7695V49H232.215V45.0273C232.215 44.5234 232.111 44.1465 231.904 43.8965C231.697 43.6426 231.377 43.5156 230.943 43.5156C230.314 43.5156 229.877 43.709 229.631 44.0957C229.389 44.4824 229.268 45.043 229.268 45.7773V49H227.891V42.5137H228.963L229.156 43.3926H229.232C229.373 43.166 229.547 42.9805 229.754 42.8359C229.965 42.6875 230.199 42.5762 230.457 42.502C230.719 42.4277 230.99 42.3906 231.271 42.3906ZM242.428 41.5059C242.018 41.5059 241.65 41.5801 241.326 41.7285C241.006 41.877 240.734 42.0918 240.512 42.373C240.289 42.6504 240.119 42.9883 240.002 43.3867C239.885 43.7812 239.826 44.2266 239.826 44.7227C239.826 45.3867 239.92 45.959 240.107 46.4395C240.295 46.916 240.58 47.2832 240.963 47.541C241.346 47.7949 241.83 47.9219 242.416 47.9219C242.779 47.9219 243.133 47.8867 243.477 47.8164C243.82 47.7461 244.176 47.6504 244.543 47.5293V48.7246C244.195 48.8613 243.844 48.9609 243.488 49.0234C243.133 49.0859 242.723 49.1172 242.258 49.1172C241.383 49.1172 240.656 48.9355 240.078 48.5723C239.504 48.209 239.074 47.6973 238.789 47.0371C238.508 46.377 238.367 45.6035 238.367 44.7168C238.367 44.0684 238.457 43.4746 238.637 42.9355C238.816 42.3965 239.078 41.9316 239.422 41.541C239.766 41.1465 240.189 40.8438 240.693 40.6328C241.201 40.418 241.781 40.3105 242.434 40.3105C242.863 40.3105 243.285 40.3594 243.699 40.457C244.117 40.5508 244.504 40.6855 244.859 40.8613L244.367 42.0215C244.07 41.8809 243.76 41.7598 243.436 41.6582C243.111 41.5566 242.775 41.5059 242.428 41.5059ZM247.619 39.8828V42.1738C247.619 42.4121 247.611 42.6445 247.596 42.8711C247.584 43.0977 247.57 43.2734 247.555 43.3984H247.631C247.768 43.1719 247.936 42.9863 248.135 42.8418C248.334 42.6934 248.557 42.582 248.803 42.5078C249.053 42.4336 249.318 42.3965 249.6 42.3965C250.096 42.3965 250.518 42.4805 250.865 42.6484C251.213 42.8125 251.479 43.0684 251.662 43.416C251.85 43.7637 251.943 44.2148 251.943 44.7695V49H250.566V45.0273C250.566 44.5234 250.463 44.1465 250.256 43.8965C250.049 43.6426 249.729 43.5156 249.295 43.5156C248.877 43.5156 248.545 43.6035 248.299 43.7793C248.057 43.9512 247.883 44.207 247.777 44.5469C247.672 44.8828 247.619 45.293 247.619 45.7773V49H246.242V39.8828H247.619ZM259.613 45.7422C259.613 46.2812 259.543 46.7598 259.402 47.1777C259.262 47.5957 259.057 47.9492 258.787 48.2383C258.518 48.5234 258.193 48.7422 257.814 48.8945C257.436 49.043 257.008 49.1172 256.531 49.1172C256.086 49.1172 255.678 49.043 255.307 48.8945C254.936 48.7422 254.613 48.5234 254.34 48.2383C254.07 47.9492 253.861 47.5957 253.713 47.1777C253.564 46.7598 253.49 46.2812 253.49 45.7422C253.49 45.0273 253.613 44.4219 253.859 43.9258C254.109 43.4258 254.465 43.0449 254.926 42.7832C255.387 42.5215 255.936 42.3906 256.572 42.3906C257.17 42.3906 257.697 42.5215 258.154 42.7832C258.611 43.0449 258.969 43.4258 259.227 43.9258C259.484 44.4258 259.613 45.0312 259.613 45.7422ZM254.908 45.7422C254.908 46.2148 254.965 46.6191 255.078 46.9551C255.195 47.291 255.375 47.5488 255.617 47.7285C255.859 47.9043 256.172 47.9922 256.555 47.9922C256.938 47.9922 257.25 47.9043 257.492 47.7285C257.734 47.5488 257.912 47.291 258.025 46.9551C258.139 46.6191 258.195 46.2148 258.195 45.7422C258.195 45.2695 258.139 44.8691 258.025 44.541C257.912 44.209 257.734 43.957 257.492 43.7852C257.25 43.6094 256.936 43.5215 256.549 43.5215C255.979 43.5215 255.562 43.7129 255.301 44.0957C255.039 44.4785 254.908 45.0273 254.908 45.7422ZM266.85 42.5137V49H265.766L265.578 48.127H265.502C265.365 48.3496 265.191 48.5352 264.98 48.6836C264.77 48.8281 264.535 48.9355 264.277 49.0059C264.02 49.0801 263.748 49.1172 263.463 49.1172C262.975 49.1172 262.557 49.0352 262.209 48.8711C261.865 48.7031 261.602 48.4453 261.418 48.0977C261.234 47.75 261.143 47.3008 261.143 46.75V42.5137H262.525V46.4922C262.525 46.9961 262.627 47.373 262.83 47.623C263.037 47.873 263.357 47.998 263.791 47.998C264.209 47.998 264.541 47.9121 264.787 47.7402C265.033 47.5684 265.207 47.3145 265.309 46.9785C265.414 46.6426 265.467 46.2305 265.467 45.7422V42.5137H266.85Z" fill="#161616"/>
<path d="M556.121 49V40.4336H557.117V48.1094H560.92V49H556.121ZM564.646 42.4727C565.412 42.4727 565.98 42.6445 566.352 42.9883C566.723 43.332 566.908 43.8809 566.908 44.6348V49H566.199L566.012 48.0508H565.965C565.785 48.2852 565.598 48.4824 565.402 48.6426C565.207 48.7988 564.98 48.918 564.723 49C564.469 49.0781 564.156 49.1172 563.785 49.1172C563.395 49.1172 563.047 49.0488 562.742 48.9121C562.441 48.7754 562.203 48.5684 562.027 48.291C561.855 48.0137 561.77 47.6621 561.77 47.2363C561.77 46.5957 562.023 46.1035 562.531 45.7598C563.039 45.416 563.812 45.2285 564.852 45.1973L565.959 45.1504V44.7578C565.959 44.2031 565.84 43.8145 565.602 43.5918C565.363 43.3691 565.027 43.2578 564.594 43.2578C564.258 43.2578 563.938 43.3066 563.633 43.4043C563.328 43.502 563.039 43.6172 562.766 43.75L562.467 43.0117C562.756 42.8633 563.088 42.7363 563.463 42.6309C563.838 42.5254 564.232 42.4727 564.646 42.4727ZM565.947 45.8359L564.969 45.877C564.168 45.9082 563.604 46.0391 563.275 46.2695C562.947 46.5 562.783 46.8262 562.783 47.248C562.783 47.6152 562.895 47.8867 563.117 48.0625C563.34 48.2383 563.635 48.3262 564.002 48.3262C564.572 48.3262 565.039 48.168 565.402 47.8516C565.766 47.5352 565.947 47.0605 565.947 46.4277V45.8359ZM573.066 47.2422C573.066 47.6523 572.963 47.998 572.756 48.2793C572.553 48.5566 572.26 48.7656 571.877 48.9062C571.498 49.0469 571.045 49.1172 570.518 49.1172C570.068 49.1172 569.68 49.082 569.352 49.0117C569.023 48.9414 568.736 48.8418 568.49 48.7129V47.8164C568.752 47.9453 569.064 48.0625 569.428 48.168C569.791 48.2734 570.162 48.3262 570.541 48.3262C571.096 48.3262 571.498 48.2363 571.748 48.0566C571.998 47.877 572.123 47.6328 572.123 47.3242C572.123 47.1484 572.072 46.9941 571.971 46.8613C571.873 46.7246 571.707 46.5938 571.473 46.4688C571.238 46.3398 570.914 46.1992 570.5 46.0469C570.09 45.8906 569.734 45.7363 569.434 45.584C569.137 45.4277 568.906 45.2383 568.742 45.0156C568.582 44.793 568.502 44.5039 568.502 44.1484C568.502 43.6055 568.721 43.1895 569.158 42.9004C569.6 42.6074 570.178 42.4609 570.893 42.4609C571.279 42.4609 571.641 42.5 571.977 42.5781C572.316 42.6523 572.633 42.7539 572.926 42.8828L572.598 43.6621C572.332 43.5488 572.049 43.4531 571.748 43.375C571.447 43.2969 571.141 43.2578 570.828 43.2578C570.379 43.2578 570.033 43.332 569.791 43.4805C569.553 43.6289 569.434 43.832 569.434 44.0898C569.434 44.2891 569.488 44.4531 569.598 44.582C569.711 44.7109 569.891 44.832 570.137 44.9453C570.383 45.0586 570.707 45.1914 571.109 45.3438C571.512 45.4922 571.859 45.6465 572.152 45.8066C572.445 45.9629 572.67 46.1543 572.826 46.3809C572.986 46.6035 573.066 46.8906 573.066 47.2422ZM576.705 48.3203C576.865 48.3203 577.029 48.3066 577.197 48.2793C577.365 48.252 577.502 48.2188 577.607 48.1797V48.9355C577.494 48.9863 577.336 49.0293 577.133 49.0645C576.934 49.0996 576.738 49.1172 576.547 49.1172C576.207 49.1172 575.898 49.0586 575.621 48.9414C575.344 48.8203 575.121 48.6172 574.953 48.332C574.789 48.0469 574.707 47.6523 574.707 47.1484V43.3398H573.793V42.8652L574.713 42.4844L575.1 41.0898H575.686V42.5781H577.566V43.3398H575.686V47.1191C575.686 47.5215 575.777 47.8223 575.961 48.0215C576.148 48.2207 576.396 48.3203 576.705 48.3203ZM583.004 49H582.025V39.8828H583.004V49ZM590.598 45.7773C590.598 46.3047 590.529 46.7754 590.393 47.1895C590.256 47.6035 590.059 47.9531 589.801 48.2383C589.543 48.5234 589.23 48.7422 588.863 48.8945C588.5 49.043 588.088 49.1172 587.627 49.1172C587.197 49.1172 586.803 49.043 586.443 48.8945C586.088 48.7422 585.779 48.5234 585.518 48.2383C585.26 47.9531 585.059 47.6035 584.914 47.1895C584.773 46.7754 584.703 46.3047 584.703 45.7773C584.703 45.0742 584.822 44.4766 585.061 43.9844C585.299 43.4883 585.639 43.1113 586.08 42.8535C586.525 42.5918 587.055 42.4609 587.668 42.4609C588.254 42.4609 588.766 42.5918 589.203 42.8535C589.645 43.1152 589.986 43.4941 590.229 43.9902C590.475 44.4824 590.598 45.0781 590.598 45.7773ZM585.711 45.7773C585.711 46.293 585.779 46.7402 585.916 47.1191C586.053 47.498 586.264 47.791 586.549 47.998C586.834 48.2051 587.201 48.3086 587.65 48.3086C588.096 48.3086 588.461 48.2051 588.746 47.998C589.035 47.791 589.248 47.498 589.385 47.1191C589.521 46.7402 589.59 46.293 589.59 45.7773C589.59 45.2656 589.521 44.8242 589.385 44.4531C589.248 44.0781 589.037 43.7891 588.752 43.5859C588.467 43.3828 588.098 43.2812 587.645 43.2812C586.977 43.2812 586.486 43.502 586.174 43.9434C585.865 44.3848 585.711 44.9961 585.711 45.7773ZM594.072 51.8828C593.229 51.8828 592.578 51.7246 592.121 51.4082C591.664 51.0957 591.436 50.6562 591.436 50.0898C591.436 49.6875 591.562 49.3438 591.816 49.0586C592.074 48.7734 592.43 48.584 592.883 48.4902C592.715 48.4121 592.57 48.2949 592.449 48.1387C592.332 47.9824 592.273 47.8027 592.273 47.5996C592.273 47.3652 592.338 47.1602 592.467 46.9844C592.6 46.8047 592.801 46.6328 593.07 46.4688C592.734 46.332 592.461 46.1016 592.25 45.7773C592.043 45.4492 591.939 45.0684 591.939 44.6348C591.939 44.1738 592.035 43.7812 592.227 43.457C592.418 43.1289 592.695 42.8789 593.059 42.707C593.422 42.5352 593.861 42.4492 594.377 42.4492C594.49 42.4492 594.604 42.4551 594.717 42.4668C594.834 42.4746 594.945 42.4883 595.051 42.5078C595.156 42.5234 595.248 42.543 595.326 42.5664H597.529V43.1934L596.346 43.3398C596.463 43.4922 596.561 43.6758 596.639 43.8906C596.717 44.1055 596.756 44.3438 596.756 44.6055C596.756 45.2461 596.539 45.7559 596.105 46.1348C595.672 46.5098 595.076 46.6973 594.318 46.6973C594.139 46.6973 593.955 46.6816 593.768 46.6504C593.576 46.7559 593.43 46.873 593.328 47.002C593.23 47.1309 593.182 47.2793 593.182 47.4473C593.182 47.5723 593.219 47.6719 593.293 47.7461C593.371 47.8203 593.482 47.875 593.627 47.9102C593.771 47.9414 593.945 47.957 594.148 47.957H595.279C595.979 47.957 596.514 48.1035 596.885 48.3965C597.26 48.6895 597.447 49.1172 597.447 49.6797C597.447 50.3906 597.158 50.9355 596.58 51.3145C596.002 51.6934 595.166 51.8828 594.072 51.8828ZM594.102 51.1211C594.633 51.1211 595.072 51.0664 595.42 50.957C595.771 50.8516 596.033 50.6973 596.205 50.4941C596.381 50.2949 596.469 50.0566 596.469 49.7793C596.469 49.5215 596.41 49.3262 596.293 49.1934C596.176 49.0645 596.004 48.9785 595.777 48.9355C595.551 48.8887 595.273 48.8652 594.945 48.8652H593.832C593.543 48.8652 593.291 48.9102 593.076 49C592.861 49.0898 592.695 49.2227 592.578 49.3984C592.465 49.5742 592.408 49.793 592.408 50.0547C592.408 50.4023 592.555 50.666 592.848 50.8457C593.141 51.0293 593.559 51.1211 594.102 51.1211ZM594.354 45.9883C594.818 45.9883 595.168 45.8711 595.402 45.6367C595.637 45.4023 595.754 45.0605 595.754 44.6113C595.754 44.1309 595.635 43.7715 595.396 43.5332C595.158 43.291 594.807 43.1699 594.342 43.1699C593.896 43.1699 593.553 43.2949 593.311 43.5449C593.072 43.791 592.953 44.1523 592.953 44.6289C592.953 45.0664 593.074 45.4023 593.316 45.6367C593.559 45.8711 593.904 45.9883 594.354 45.9883ZM600.588 51.8828C599.744 51.8828 599.094 51.7246 598.637 51.4082C598.18 51.0957 597.951 50.6562 597.951 50.0898C597.951 49.6875 598.078 49.3438 598.332 49.0586C598.59 48.7734 598.945 48.584 599.398 48.4902C599.23 48.4121 599.086 48.2949 598.965 48.1387C598.848 47.9824 598.789 47.8027 598.789 47.5996C598.789 47.3652 598.854 47.1602 598.982 46.9844C599.115 46.8047 599.316 46.6328 599.586 46.4688C599.25 46.332 598.977 46.1016 598.766 45.7773C598.559 45.4492 598.455 45.0684 598.455 44.6348C598.455 44.1738 598.551 43.7812 598.742 43.457C598.934 43.1289 599.211 42.8789 599.574 42.707C599.938 42.5352 600.377 42.4492 600.893 42.4492C601.006 42.4492 601.119 42.4551 601.232 42.4668C601.35 42.4746 601.461 42.4883 601.566 42.5078C601.672 42.5234 601.764 42.543 601.842 42.5664H604.045V43.1934L602.861 43.3398C602.979 43.4922 603.076 43.6758 603.154 43.8906C603.232 44.1055 603.271 44.3438 603.271 44.6055C603.271 45.2461 603.055 45.7559 602.621 46.1348C602.188 46.5098 601.592 46.6973 600.834 46.6973C600.654 46.6973 600.471 46.6816 600.283 46.6504C600.092 46.7559 599.945 46.873 599.844 47.002C599.746 47.1309 599.697 47.2793 599.697 47.4473C599.697 47.5723 599.734 47.6719 599.809 47.7461C599.887 47.8203 599.998 47.875 600.143 47.9102C600.287 47.9414 600.461 47.957 600.664 47.957H601.795C602.494 47.957 603.029 48.1035 603.4 48.3965C603.775 48.6895 603.963 49.1172 603.963 49.6797C603.963 50.3906 603.674 50.9355 603.096 51.3145C602.518 51.6934 601.682 51.8828 600.588 51.8828ZM600.617 51.1211C601.148 51.1211 601.588 51.0664 601.936 50.957C602.287 50.8516 602.549 50.6973 602.721 50.4941C602.896 50.2949 602.984 50.0566 602.984 49.7793C602.984 49.5215 602.926 49.3262 602.809 49.1934C602.691 49.0645 602.52 48.9785 602.293 48.9355C602.066 48.8887 601.789 48.8652 601.461 48.8652H600.348C600.059 48.8652 599.807 48.9102 599.592 49C599.377 49.0898 599.211 49.2227 599.094 49.3984C598.98 49.5742 598.924 49.793 598.924 50.0547C598.924 50.4023 599.07 50.666 599.363 50.8457C599.656 51.0293 600.074 51.1211 600.617 51.1211ZM600.869 45.9883C601.334 45.9883 601.684 45.8711 601.918 45.6367C602.152 45.4023 602.27 45.0605 602.27 44.6113C602.27 44.1309 602.15 43.7715 601.912 43.5332C601.674 43.291 601.322 43.1699 600.857 43.1699C600.412 43.1699 600.068 43.2949 599.826 43.5449C599.588 43.791 599.469 44.1523 599.469 44.6289C599.469 45.0664 599.59 45.4023 599.832 45.6367C600.074 45.8711 600.42 45.9883 600.869 45.9883ZM607.783 42.4609C608.33 42.4609 608.799 42.582 609.189 42.8242C609.58 43.0664 609.879 43.4062 610.086 43.8438C610.293 44.2773 610.396 44.7852 610.396 45.3672V45.9707H605.961C605.973 46.7246 606.16 47.2988 606.523 47.6934C606.887 48.0879 607.398 48.2852 608.059 48.2852C608.465 48.2852 608.824 48.248 609.137 48.1738C609.449 48.0996 609.773 47.9902 610.109 47.8457V48.7012C609.785 48.8457 609.463 48.9512 609.143 49.0176C608.826 49.084 608.451 49.1172 608.018 49.1172C607.4 49.1172 606.861 48.9922 606.4 48.7422C605.943 48.4883 605.588 48.1172 605.334 47.6289C605.08 47.1406 604.953 46.543 604.953 45.8359C604.953 45.1445 605.068 44.5469 605.299 44.043C605.533 43.5352 605.861 43.1445 606.283 42.8711C606.709 42.5977 607.209 42.4609 607.783 42.4609ZM607.771 43.2578C607.252 43.2578 606.838 43.4277 606.529 43.7676C606.221 44.1074 606.037 44.582 605.979 45.1914H609.377C609.373 44.8086 609.312 44.4727 609.195 44.1836C609.082 43.8906 608.908 43.6641 608.674 43.5039C608.439 43.3398 608.139 43.2578 607.771 43.2578ZM614.334 49.1172C613.521 49.1172 612.877 48.8398 612.4 48.2852C611.928 47.7305 611.691 46.9062 611.691 45.8125C611.691 44.707 611.934 43.873 612.418 43.3105C612.902 42.7441 613.547 42.4609 614.352 42.4609C614.691 42.4609 614.988 42.5059 615.242 42.5957C615.496 42.6855 615.715 42.8066 615.898 42.959C616.082 43.1074 616.236 43.2773 616.361 43.4688H616.432C616.416 43.3477 616.4 43.1816 616.385 42.9707C616.369 42.7598 616.361 42.5879 616.361 42.4551V39.8828H617.334V49H616.549L616.402 48.0859H616.361C616.24 48.2773 616.086 48.4512 615.898 48.6074C615.715 48.7637 615.494 48.8887 615.236 48.9824C614.982 49.0723 614.682 49.1172 614.334 49.1172ZM614.486 48.3086C615.174 48.3086 615.66 48.1133 615.945 47.7227C616.23 47.332 616.373 46.752 616.373 45.9824V45.8066C616.373 44.9902 616.236 44.3633 615.963 43.9258C615.693 43.4883 615.201 43.2695 614.486 43.2695C613.889 43.2695 613.441 43.5 613.145 43.9609C612.848 44.418 612.699 45.043 612.699 45.8359C612.699 46.625 612.846 47.2344 613.139 47.6641C613.436 48.0938 613.885 48.3086 614.486 48.3086ZM623.486 42.5781V49H622.514V42.5781H623.486ZM623.012 40.1758C623.172 40.1758 623.309 40.2285 623.422 40.334C623.539 40.4355 623.598 40.5957 623.598 40.8145C623.598 41.0293 623.539 41.1895 623.422 41.2949C623.309 41.4004 623.172 41.4531 623.012 41.4531C622.844 41.4531 622.703 41.4004 622.59 41.2949C622.48 41.1895 622.426 41.0293 622.426 40.8145C622.426 40.5957 622.48 40.4355 622.59 40.334C622.703 40.2285 622.844 40.1758 623.012 40.1758ZM628.59 42.4609C629.352 42.4609 629.928 42.6484 630.318 43.0234C630.709 43.3945 630.904 43.9922 630.904 44.8164V49H629.943V44.8809C629.943 44.3457 629.82 43.9453 629.574 43.6797C629.332 43.4141 628.959 43.2812 628.455 43.2812C627.744 43.2812 627.244 43.4824 626.955 43.8848C626.666 44.2871 626.521 44.8711 626.521 45.6367V49H625.549V42.5781H626.334L626.48 43.5039H626.533C626.67 43.2773 626.844 43.0879 627.055 42.9355C627.266 42.7793 627.502 42.6621 627.764 42.584C628.025 42.502 628.301 42.4609 628.59 42.4609ZM468.236 65H467.234V57.3125H464.539V56.4336H470.92V57.3125H468.236V65ZM473.041 55.8828V58.6074C473.041 58.7637 473.037 58.9219 473.029 59.082C473.021 59.2383 473.008 59.3828 472.988 59.5156H473.053C473.186 59.2891 473.354 59.0996 473.557 58.9473C473.764 58.791 473.998 58.6738 474.26 58.5957C474.521 58.5137 474.799 58.4727 475.092 58.4727C475.607 58.4727 476.037 58.5547 476.381 58.7188C476.729 58.8828 476.988 59.1367 477.16 59.4805C477.336 59.8242 477.424 60.2695 477.424 60.8164V65H476.463V60.8809C476.463 60.3457 476.34 59.9453 476.094 59.6797C475.852 59.4141 475.479 59.2812 474.975 59.2812C474.498 59.2812 474.117 59.373 473.832 59.5566C473.551 59.7363 473.348 60.002 473.223 60.3535C473.102 60.7051 473.041 61.1348 473.041 61.6426V65H472.068V55.8828H473.041ZM484.73 58.5781V65H483.934L483.793 64.0977H483.74C483.607 64.3203 483.436 64.5078 483.225 64.6602C483.014 64.8125 482.775 64.9258 482.51 65C482.248 65.0781 481.969 65.1172 481.672 65.1172C481.164 65.1172 480.738 65.0352 480.395 64.8711C480.051 64.707 479.791 64.4531 479.615 64.1094C479.443 63.7656 479.357 63.3242 479.357 62.7852V58.5781H480.342V62.7148C480.342 63.25 480.463 63.6504 480.705 63.916C480.947 64.1777 481.316 64.3086 481.812 64.3086C482.289 64.3086 482.668 64.2188 482.949 64.0391C483.234 63.8594 483.439 63.5957 483.564 63.248C483.689 62.8965 483.752 62.4668 483.752 61.959V58.5781H484.73ZM489.705 58.4609C489.834 58.4609 489.969 58.4688 490.109 58.4844C490.25 58.4961 490.375 58.5137 490.484 58.5371L490.361 59.4395C490.256 59.4121 490.139 59.3906 490.01 59.375C489.881 59.3594 489.76 59.3516 489.646 59.3516C489.389 59.3516 489.145 59.4043 488.914 59.5098C488.688 59.6113 488.488 59.7598 488.316 59.9551C488.145 60.1465 488.01 60.3789 487.912 60.6523C487.814 60.9219 487.766 61.2227 487.766 61.5547V65H486.787V58.5781H487.596L487.701 59.7617H487.742C487.875 59.5234 488.035 59.3066 488.223 59.1113C488.41 58.9121 488.627 58.7539 488.873 58.6367C489.123 58.5195 489.4 58.4609 489.705 58.4609ZM495.852 63.2422C495.852 63.6523 495.748 63.998 495.541 64.2793C495.338 64.5566 495.045 64.7656 494.662 64.9062C494.283 65.0469 493.83 65.1172 493.303 65.1172C492.854 65.1172 492.465 65.082 492.137 65.0117C491.809 64.9414 491.521 64.8418 491.275 64.7129V63.8164C491.537 63.9453 491.85 64.0625 492.213 64.168C492.576 64.2734 492.947 64.3262 493.326 64.3262C493.881 64.3262 494.283 64.2363 494.533 64.0566C494.783 63.877 494.908 63.6328 494.908 63.3242C494.908 63.1484 494.857 62.9941 494.756 62.8613C494.658 62.7246 494.492 62.5938 494.258 62.4688C494.023 62.3398 493.699 62.1992 493.285 62.0469C492.875 61.8906 492.52 61.7363 492.219 61.584C491.922 61.4277 491.691 61.2383 491.527 61.0156C491.367 60.793 491.287 60.5039 491.287 60.1484C491.287 59.6055 491.506 59.1895 491.943 58.9004C492.385 58.6074 492.963 58.4609 493.678 58.4609C494.064 58.4609 494.426 58.5 494.762 58.5781C495.102 58.6523 495.418 58.7539 495.711 58.8828L495.383 59.6621C495.117 59.5488 494.834 59.4531 494.533 59.375C494.232 59.2969 493.926 59.2578 493.613 59.2578C493.164 59.2578 492.818 59.332 492.576 59.4805C492.338 59.6289 492.219 59.832 492.219 60.0898C492.219 60.2891 492.273 60.4531 492.383 60.582C492.496 60.7109 492.676 60.832 492.922 60.9453C493.168 61.0586 493.492 61.1914 493.895 61.3438C494.297 61.4922 494.645 61.6465 494.938 61.8066C495.23 61.9629 495.455 62.1543 495.611 62.3809C495.771 62.6035 495.852 62.8906 495.852 63.2422ZM503.721 65H502.771V58.9297C502.771 58.6992 502.771 58.502 502.771 58.3379C502.775 58.1699 502.779 58.0176 502.783 57.8809C502.791 57.7402 502.801 57.5977 502.812 57.4531C502.691 57.5781 502.578 57.6855 502.473 57.7754C502.367 57.8613 502.236 57.9688 502.08 58.0977L501.102 58.8828L500.592 58.2207L502.912 56.4336H503.721V65ZM512.264 58.4316C512.264 58.8145 512.189 59.1465 512.041 59.4277C511.893 59.709 511.686 59.9395 511.42 60.1191C511.154 60.2949 510.842 60.418 510.482 60.4883V60.5352C511.162 60.6211 511.672 60.8398 512.012 61.1914C512.355 61.543 512.527 62.0039 512.527 62.5742C512.527 63.0703 512.41 63.5098 512.176 63.8926C511.945 64.2754 511.59 64.5762 511.109 64.7949C510.633 65.0098 510.021 65.1172 509.275 65.1172C508.822 65.1172 508.402 65.0801 508.016 65.0059C507.633 64.9355 507.266 64.8164 506.914 64.6484V63.7344C507.27 63.9102 507.656 64.0488 508.074 64.1504C508.492 64.248 508.896 64.2969 509.287 64.2969C510.068 64.2969 510.633 64.1426 510.98 63.834C511.328 63.5215 511.502 63.0957 511.502 62.5566C511.502 62.1855 511.404 61.8867 511.209 61.6602C511.018 61.4297 510.74 61.2617 510.377 61.1562C510.018 61.0469 509.584 60.9922 509.076 60.9922H508.221V60.1602H509.082C509.547 60.1602 509.941 60.0918 510.266 59.9551C510.59 59.8184 510.836 59.627 511.004 59.3809C511.176 59.1309 511.262 58.8359 511.262 58.4961C511.262 58.0625 511.117 57.7285 510.828 57.4941C510.539 57.2559 510.146 57.1367 509.65 57.1367C509.346 57.1367 509.068 57.168 508.818 57.2305C508.568 57.293 508.334 57.3789 508.115 57.4883C507.896 57.5977 507.678 57.7246 507.459 57.8691L506.967 57.2012C507.279 56.959 507.66 56.75 508.109 56.5742C508.559 56.3984 509.068 56.3105 509.639 56.3105C510.514 56.3105 511.17 56.5098 511.607 56.9082C512.045 57.3066 512.264 57.8145 512.264 58.4316ZM515.381 63.6055L515.457 63.7402C515.387 64.0254 515.297 64.3301 515.188 64.6543C515.082 64.9785 514.965 65.3027 514.836 65.627C514.711 65.9551 514.584 66.2617 514.455 66.5469H513.729C513.811 66.2344 513.891 65.9043 513.969 65.5566C514.047 65.2129 514.117 64.873 514.18 64.5371C514.246 64.1973 514.299 63.8867 514.338 63.6055H515.381ZM528.066 60.7051C528.066 61.3652 527.982 61.9668 527.814 62.5098C527.646 63.0488 527.396 63.5137 527.064 63.9043C526.736 64.291 526.328 64.5898 525.84 64.8008C525.352 65.0117 524.785 65.1172 524.141 65.1172C523.477 65.1172 522.896 65.0117 522.4 64.8008C521.908 64.5898 521.498 64.2891 521.17 63.8984C520.846 63.5078 520.602 63.041 520.438 62.498C520.277 61.9551 520.197 61.3535 520.197 60.6934C520.197 59.8184 520.342 59.0508 520.631 58.3906C520.92 57.7305 521.357 57.2168 521.943 56.8496C522.533 56.4824 523.271 56.2988 524.158 56.2988C525.006 56.2988 525.719 56.4805 526.297 56.8438C526.879 57.207 527.318 57.7188 527.615 58.3789C527.916 59.0352 528.066 59.8105 528.066 60.7051ZM521.246 60.7051C521.246 61.4316 521.35 62.0605 521.557 62.5918C521.764 63.123 522.08 63.5332 522.506 63.8223C522.936 64.1113 523.48 64.2559 524.141 64.2559C524.805 64.2559 525.348 64.1113 525.77 63.8223C526.195 63.5332 526.51 63.123 526.713 62.5918C526.916 62.0605 527.018 61.4316 527.018 60.7051C527.018 59.5996 526.785 58.7363 526.32 58.1152C525.859 57.4902 525.139 57.1777 524.158 57.1777C523.494 57.1777 522.947 57.3203 522.518 57.6055C522.088 57.8906 521.768 58.2969 521.557 58.8242C521.35 59.3477 521.246 59.9746 521.246 60.7051ZM532.402 65.1172C531.824 65.1172 531.314 64.998 530.873 64.7598C530.432 64.5215 530.088 64.1582 529.842 63.6699C529.596 63.1816 529.473 62.5664 529.473 61.8242C529.473 61.0469 529.602 60.4121 529.859 59.9199C530.121 59.4238 530.48 59.0566 530.938 58.8184C531.395 58.5801 531.914 58.4609 532.496 58.4609C532.816 58.4609 533.125 58.4941 533.422 58.5605C533.723 58.623 533.969 58.7031 534.16 58.8008L533.867 59.6152C533.672 59.5371 533.445 59.4668 533.188 59.4043C532.934 59.3418 532.695 59.3105 532.473 59.3105C532.027 59.3105 531.656 59.4062 531.359 59.5977C531.066 59.7891 530.846 60.0703 530.697 60.4414C530.553 60.8125 530.48 61.2695 530.48 61.8125C530.48 62.332 530.551 62.7754 530.691 63.1426C530.836 63.5098 531.049 63.791 531.33 63.9863C531.615 64.1777 531.971 64.2734 532.396 64.2734C532.736 64.2734 533.043 64.2383 533.316 64.168C533.59 64.0938 533.838 64.0078 534.061 63.9102V64.7773C533.846 64.8867 533.605 64.9707 533.34 65.0293C533.078 65.0879 532.766 65.1172 532.402 65.1172ZM537.658 64.3203C537.818 64.3203 537.982 64.3066 538.15 64.2793C538.318 64.252 538.455 64.2188 538.561 64.1797V64.9355C538.447 64.9863 538.289 65.0293 538.086 65.0645C537.887 65.0996 537.691 65.1172 537.5 65.1172C537.16 65.1172 536.852 65.0586 536.574 64.9414C536.297 64.8203 536.074 64.6172 535.906 64.332C535.742 64.0469 535.66 63.6523 535.66 63.1484V59.3398H534.746V58.8652L535.666 58.4844L536.053 57.0898H536.639V58.5781H538.52V59.3398H536.639V63.1191C536.639 63.5215 536.73 63.8223 536.914 64.0215C537.102 64.2207 537.35 64.3203 537.658 64.3203ZM548.158 65H542.545V64.1855L544.836 61.8594C545.262 61.4297 545.619 61.0469 545.908 60.7109C546.201 60.375 546.424 60.0449 546.576 59.7207C546.729 59.3926 546.805 59.0332 546.805 58.6426C546.805 58.1582 546.66 57.7891 546.371 57.5352C546.086 57.2773 545.709 57.1484 545.24 57.1484C544.83 57.1484 544.467 57.2188 544.15 57.3594C543.834 57.5 543.51 57.6992 543.178 57.957L542.656 57.3008C542.883 57.1094 543.129 56.9395 543.395 56.791C543.664 56.6426 543.951 56.5254 544.256 56.4395C544.564 56.3535 544.893 56.3105 545.24 56.3105C545.768 56.3105 546.223 56.4023 546.605 56.5859C546.988 56.7695 547.283 57.0312 547.49 57.3711C547.701 57.7109 547.807 58.1152 547.807 58.584C547.807 59.0371 547.717 59.459 547.537 59.8496C547.357 60.2363 547.105 60.6211 546.781 61.0039C546.457 61.3828 546.078 61.7852 545.645 62.2109L543.781 64.0684V64.1094H548.158V65ZM555.072 60.7051C555.072 61.4004 555.02 62.0215 554.914 62.5684C554.809 63.1152 554.643 63.5781 554.416 63.957C554.189 64.3359 553.896 64.625 553.537 64.8242C553.178 65.0195 552.746 65.1172 552.242 65.1172C551.605 65.1172 551.078 64.9434 550.66 64.5957C550.246 64.248 549.936 63.7461 549.729 63.0898C549.525 62.4297 549.424 61.6348 549.424 60.7051C549.424 59.791 549.516 59.0059 549.699 58.3496C549.887 57.6895 550.188 57.1836 550.602 56.832C551.016 56.4766 551.562 56.2988 552.242 56.2988C552.887 56.2988 553.418 56.4746 553.836 56.8262C554.254 57.1738 554.564 57.6777 554.768 58.3379C554.971 58.9941 555.072 59.7832 555.072 60.7051ZM550.402 60.7051C550.402 61.502 550.463 62.166 550.584 62.6973C550.705 63.2285 550.9 63.627 551.17 63.8926C551.443 64.1543 551.801 64.2852 552.242 64.2852C552.684 64.2852 553.039 64.1543 553.309 63.8926C553.582 63.6309 553.779 63.2344 553.9 62.7031C554.025 62.1719 554.088 61.5059 554.088 60.7051C554.088 59.9199 554.027 59.2637 553.906 58.7363C553.785 58.2051 553.59 57.8066 553.32 57.541C553.051 57.2715 552.691 57.1367 552.242 57.1367C551.793 57.1367 551.434 57.2715 551.164 57.541C550.895 57.8066 550.699 58.2051 550.578 58.7363C550.461 59.2637 550.402 59.9199 550.402 60.7051ZM561.893 65H556.279V64.1855L558.57 61.8594C558.996 61.4297 559.354 61.0469 559.643 60.7109C559.936 60.375 560.158 60.0449 560.311 59.7207C560.463 59.3926 560.539 59.0332 560.539 58.6426C560.539 58.1582 560.395 57.7891 560.105 57.5352C559.82 57.2773 559.443 57.1484 558.975 57.1484C558.564 57.1484 558.201 57.2188 557.885 57.3594C557.568 57.5 557.244 57.6992 556.912 57.957L556.391 57.3008C556.617 57.1094 556.863 56.9395 557.129 56.791C557.398 56.6426 557.686 56.5254 557.99 56.4395C558.299 56.3535 558.627 56.3105 558.975 56.3105C559.502 56.3105 559.957 56.4023 560.34 56.5859C560.723 56.7695 561.018 57.0312 561.225 57.3711C561.436 57.7109 561.541 58.1152 561.541 58.584C561.541 59.0371 561.451 59.459 561.271 59.8496C561.092 60.2363 560.84 60.6211 560.516 61.0039C560.191 61.3828 559.812 61.7852 559.379 62.2109L557.516 64.0684V64.1094H561.893V65ZM568.76 65H563.146V64.1855L565.438 61.8594C565.863 61.4297 566.221 61.0469 566.51 60.7109C566.803 60.375 567.025 60.0449 567.178 59.7207C567.33 59.3926 567.406 59.0332 567.406 58.6426C567.406 58.1582 567.262 57.7891 566.973 57.5352C566.688 57.2773 566.311 57.1484 565.842 57.1484C565.432 57.1484 565.068 57.2188 564.752 57.3594C564.436 57.5 564.111 57.6992 563.779 57.957L563.258 57.3008C563.484 57.1094 563.73 56.9395 563.996 56.791C564.266 56.6426 564.553 56.5254 564.857 56.4395C565.166 56.3535 565.494 56.3105 565.842 56.3105C566.369 56.3105 566.824 56.4023 567.207 56.5859C567.59 56.7695 567.885 57.0312 568.092 57.3711C568.303 57.7109 568.408 58.1152 568.408 58.584C568.408 59.0371 568.318 59.459 568.139 59.8496C567.959 60.2363 567.707 60.6211 567.383 61.0039C567.059 61.3828 566.68 61.7852 566.246 62.2109L564.383 64.0684V64.1094H568.76V65ZM575.967 58.4727C576.732 58.4727 577.301 58.6445 577.672 58.9883C578.043 59.332 578.229 59.8809 578.229 60.6348V65H577.52L577.332 64.0508H577.285C577.105 64.2852 576.918 64.4824 576.723 64.6426C576.527 64.7988 576.301 64.918 576.043 65C575.789 65.0781 575.477 65.1172 575.105 65.1172C574.715 65.1172 574.367 65.0488 574.062 64.9121C573.762 64.7754 573.523 64.5684 573.348 64.291C573.176 64.0137 573.09 63.6621 573.09 63.2363C573.09 62.5957 573.344 62.1035 573.852 61.7598C574.359 61.416 575.133 61.2285 576.172 61.1973L577.279 61.1504V60.7578C577.279 60.2031 577.16 59.8145 576.922 59.5918C576.684 59.3691 576.348 59.2578 575.914 59.2578C575.578 59.2578 575.258 59.3066 574.953 59.4043C574.648 59.502 574.359 59.6172 574.086 59.75L573.787 59.0117C574.076 58.8633 574.408 58.7363 574.783 58.6309C575.158 58.5254 575.553 58.4727 575.967 58.4727ZM577.268 61.8359L576.289 61.877C575.488 61.9082 574.924 62.0391 574.596 62.2695C574.268 62.5 574.104 62.8262 574.104 63.248C574.104 63.6152 574.215 63.8867 574.438 64.0625C574.66 64.2383 574.955 64.3262 575.322 64.3262C575.893 64.3262 576.359 64.168 576.723 63.8516C577.086 63.5352 577.268 63.0605 577.268 62.4277V61.8359ZM582.307 64.3203C582.467 64.3203 582.631 64.3066 582.799 64.2793C582.967 64.252 583.104 64.2188 583.209 64.1797V64.9355C583.096 64.9863 582.938 65.0293 582.734 65.0645C582.535 65.0996 582.34 65.1172 582.148 65.1172C581.809 65.1172 581.5 65.0586 581.223 64.9414C580.945 64.8203 580.723 64.6172 580.555 64.332C580.391 64.0469 580.309 63.6523 580.309 63.1484V59.3398H579.395V58.8652L580.314 58.4844L580.701 57.0898H581.287V58.5781H583.168V59.3398H581.287V63.1191C581.287 63.5215 581.379 63.8223 581.562 64.0215C581.75 64.2207 581.998 64.3203 582.307 64.3203ZM590.814 65H589.865V58.9297C589.865 58.6992 589.865 58.502 589.865 58.3379C589.869 58.1699 589.873 58.0176 589.877 57.8809C589.885 57.7402 589.895 57.5977 589.906 57.4531C589.785 57.5781 589.672 57.6855 589.566 57.7754C589.461 57.8613 589.33 57.9688 589.174 58.0977L588.195 58.8828L587.686 58.2207L590.006 56.4336H590.814V65ZM597.682 65H596.732V58.9297C596.732 58.6992 596.732 58.502 596.732 58.3379C596.736 58.1699 596.74 58.0176 596.744 57.8809C596.752 57.7402 596.762 57.5977 596.773 57.4531C596.652 57.5781 596.539 57.6855 596.434 57.7754C596.328 57.8613 596.197 57.9688 596.041 58.0977L595.062 58.8828L594.553 58.2207L596.873 56.4336H597.682V65ZM601.215 64.3906C601.215 64.1172 601.281 63.9238 601.414 63.8105C601.547 63.6934 601.709 63.6348 601.9 63.6348C602.1 63.6348 602.268 63.6934 602.404 63.8105C602.541 63.9238 602.609 64.1172 602.609 64.3906C602.609 64.6602 602.541 64.8574 602.404 64.9824C602.268 65.1035 602.1 65.1641 601.9 65.1641C601.709 65.1641 601.547 65.1035 601.414 64.9824C601.281 64.8574 601.215 64.6602 601.215 64.3906ZM601.215 59.1934C601.215 58.9121 601.281 58.7148 601.414 58.6016C601.547 58.4844 601.709 58.4258 601.9 58.4258C602.1 58.4258 602.268 58.4844 602.404 58.6016C602.541 58.7148 602.609 58.9121 602.609 59.1934C602.609 59.459 602.541 59.6523 602.404 59.7734C602.268 59.8945 602.1 59.9551 601.9 59.9551C601.709 59.9551 601.547 59.8945 601.414 59.7734C601.281 59.6523 601.215 59.459 601.215 59.1934ZM609.74 60.7051C609.74 61.4004 609.688 62.0215 609.582 62.5684C609.477 63.1152 609.311 63.5781 609.084 63.957C608.857 64.3359 608.564 64.625 608.205 64.8242C607.846 65.0195 607.414 65.1172 606.91 65.1172C606.273 65.1172 605.746 64.9434 605.328 64.5957C604.914 64.248 604.604 63.7461 604.396 63.0898C604.193 62.4297 604.092 61.6348 604.092 60.7051C604.092 59.791 604.184 59.0059 604.367 58.3496C604.555 57.6895 604.855 57.1836 605.27 56.832C605.684 56.4766 606.23 56.2988 606.91 56.2988C607.555 56.2988 608.086 56.4746 608.504 56.8262C608.922 57.1738 609.232 57.6777 609.436 58.3379C609.639 58.9941 609.74 59.7832 609.74 60.7051ZM605.07 60.7051C605.07 61.502 605.131 62.166 605.252 62.6973C605.373 63.2285 605.568 63.627 605.838 63.8926C606.111 64.1543 606.469 64.2852 606.91 64.2852C607.352 64.2852 607.707 64.1543 607.977 63.8926C608.25 63.6309 608.447 63.2344 608.568 62.7031C608.693 62.1719 608.756 61.5059 608.756 60.7051C608.756 59.9199 608.695 59.2637 608.574 58.7363C608.453 58.2051 608.258 57.8066 607.988 57.541C607.719 57.2715 607.359 57.1367 606.91 57.1367C606.461 57.1367 606.102 57.2715 605.832 57.541C605.562 57.8066 605.367 58.2051 605.246 58.7363C605.129 59.2637 605.07 59.9199 605.07 60.7051ZM616.607 60.7051C616.607 61.4004 616.555 62.0215 616.449 62.5684C616.344 63.1152 616.178 63.5781 615.951 63.957C615.725 64.3359 615.432 64.625 615.072 64.8242C614.713 65.0195 614.281 65.1172 613.777 65.1172C613.141 65.1172 612.613 64.9434 612.195 64.5957C611.781 64.248 611.471 63.7461 611.264 63.0898C611.061 62.4297 610.959 61.6348 610.959 60.7051C610.959 59.791 611.051 59.0059 611.234 58.3496C611.422 57.6895 611.723 57.1836 612.137 56.832C612.551 56.4766 613.098 56.2988 613.777 56.2988C614.422 56.2988 614.953 56.4746 615.371 56.8262C615.789 57.1738 616.1 57.6777 616.303 58.3379C616.506 58.9941 616.607 59.7832 616.607 60.7051ZM611.938 60.7051C611.938 61.502 611.998 62.166 612.119 62.6973C612.24 63.2285 612.436 63.627 612.705 63.8926C612.979 64.1543 613.336 64.2852 613.777 64.2852C614.219 64.2852 614.574 64.1543 614.844 63.8926C615.117 63.6309 615.314 63.2344 615.436 62.7031C615.561 62.1719 615.623 61.5059 615.623 60.7051C615.623 59.9199 615.562 59.2637 615.441 58.7363C615.32 58.2051 615.125 57.8066 614.855 57.541C614.586 57.2715 614.227 57.1367 613.777 57.1367C613.328 57.1367 612.969 57.2715 612.699 57.541C612.43 57.8066 612.234 58.2051 612.113 58.7363C611.996 59.2637 611.938 59.9199 611.938 60.7051ZM620.65 58.4727C621.416 58.4727 621.984 58.6445 622.355 58.9883C622.727 59.332 622.912 59.8809 622.912 60.6348V65H622.203L622.016 64.0508H621.969C621.789 64.2852 621.602 64.4824 621.406 64.6426C621.211 64.7988 620.984 64.918 620.727 65C620.473 65.0781 620.16 65.1172 619.789 65.1172C619.398 65.1172 619.051 65.0488 618.746 64.9121C618.445 64.7754 618.207 64.5684 618.031 64.291C617.859 64.0137 617.773 63.6621 617.773 63.2363C617.773 62.5957 618.027 62.1035 618.535 61.7598C619.043 61.416 619.816 61.2285 620.855 61.1973L621.963 61.1504V60.7578C621.963 60.2031 621.844 59.8145 621.605 59.5918C621.367 59.3691 621.031 59.2578 620.598 59.2578C620.262 59.2578 619.941 59.3066 619.637 59.4043C619.332 59.502 619.043 59.6172 618.77 59.75L618.471 59.0117C618.76 58.8633 619.092 58.7363 619.467 58.6309C619.842 58.5254 620.236 58.4727 620.65 58.4727ZM621.951 61.8359L620.973 61.877C620.172 61.9082 619.607 62.0391 619.279 62.2695C618.951 62.5 618.787 62.8262 618.787 63.248C618.787 63.6152 618.898 63.8867 619.121 64.0625C619.344 64.2383 619.639 64.3262 620.006 64.3262C620.576 64.3262 621.043 64.168 621.406 63.8516C621.77 63.5352 621.951 63.0605 621.951 62.4277V61.8359ZM631.889 58.4609C632.596 58.4609 633.129 58.6465 633.488 59.0176C633.848 59.3848 634.027 59.9766 634.027 60.793V65H633.066V60.8398C633.066 60.3203 632.953 59.9316 632.727 59.6738C632.504 59.4121 632.172 59.2812 631.73 59.2812C631.109 59.2812 630.658 59.4609 630.377 59.8203C630.096 60.1797 629.955 60.709 629.955 61.4082V65H628.988V60.8398C628.988 60.4922 628.938 60.2031 628.836 59.9727C628.738 59.7422 628.59 59.5703 628.391 59.457C628.195 59.3398 627.947 59.2812 627.646 59.2812C627.221 59.2812 626.879 59.3691 626.621 59.5449C626.363 59.7207 626.176 59.9824 626.059 60.3301C625.945 60.6738 625.889 61.0977 625.889 61.6016V65H624.916V58.5781H625.701L625.848 59.4863H625.9C626.029 59.2637 626.191 59.0762 626.387 58.9238C626.582 58.7715 626.801 58.6562 627.043 58.5781C627.285 58.5 627.543 58.4609 627.816 58.4609C628.305 58.4609 628.713 58.5527 629.041 58.7363C629.373 58.916 629.613 59.1914 629.762 59.5625H629.814C630.025 59.1914 630.314 58.916 630.682 58.7363C631.049 58.5527 631.451 58.4609 631.889 58.4609Z" fill="#61656E"/>
<rect width="486" height="1" transform="matrix(1 0 0 -1 149 77)" fill="black" fill-opacity="0.4"/>
<rect width="53" height="32" transform="translate(731)" fill="#D1F4C9"/>
<path fill-rule="evenodd" clip-rule="evenodd" d="M742.871 18.0325L749.058 11.8457L750.119 12.9064L742.871 20.1538L739.881 17.1634L740.942 16.1028L742.871 18.0325Z" fill="#24874B"/>
<path d="M767.08 16.6348C767.08 17.5996 766.9 18.4062 766.541 19.0547C766.182 19.6992 765.66 20.1855 764.977 20.5137C764.293 20.8379 763.469 21 762.504 21H760.125V12.4336H762.762C763.648 12.4336 764.414 12.5938 765.059 12.9141C765.703 13.2305 766.201 13.7012 766.553 14.3262C766.904 14.9473 767.08 15.7168 767.08 16.6348ZM765.615 16.6758C765.615 15.9727 765.504 15.3945 765.281 14.9414C765.062 14.4883 764.738 14.1523 764.309 13.9336C763.883 13.7109 763.357 13.5996 762.732 13.5996H761.531V19.8223H762.527C763.562 19.8223 764.336 19.5586 764.848 19.0312C765.359 18.5039 765.615 17.7188 765.615 16.6758ZM774.527 17.7422C774.527 18.2812 774.457 18.7598 774.316 19.1777C774.176 19.5957 773.971 19.9492 773.701 20.2383C773.432 20.5234 773.107 20.7422 772.729 20.8945C772.35 21.043 771.922 21.1172 771.445 21.1172C771 21.1172 770.592 21.043 770.221 20.8945C769.85 20.7422 769.527 20.5234 769.254 20.2383C768.984 19.9492 768.775 19.5957 768.627 19.1777C768.479 18.7598 768.404 18.2812 768.404 17.7422C768.404 17.0273 768.527 16.4219 768.773 15.9258C769.023 15.4258 769.379 15.0449 769.84 14.7832C770.301 14.5215 770.85 14.3906 771.486 14.3906C772.084 14.3906 772.611 14.5215 773.068 14.7832C773.525 15.0449 773.883 15.4258 774.141 15.9258C774.398 16.4258 774.527 17.0312 774.527 17.7422ZM769.822 17.7422C769.822 18.2148 769.879 18.6191 769.992 18.9551C770.109 19.291 770.289 19.5488 770.531 19.7285C770.773 19.9043 771.086 19.9922 771.469 19.9922C771.852 19.9922 772.164 19.9043 772.406 19.7285C772.648 19.5488 772.826 19.291 772.939 18.9551C773.053 18.6191 773.109 18.2148 773.109 17.7422C773.109 17.2695 773.053 16.8691 772.939 16.541C772.826 16.209 772.648 15.957 772.406 15.7852C772.164 15.6094 771.85 15.5215 771.463 15.5215C770.893 15.5215 770.477 15.7129 770.215 16.0957C769.953 16.4785 769.822 17.0273 769.822 17.7422Z" fill="#161616"/>
</svg>
