<svg width="841" height="113" viewBox="0 0 841 113" fill="none" xmlns="http://www.w3.org/2000/svg">
<rect width="784" height="113" transform="translate(52)" fill="white"/>
<path d="M212.256 40.4336L210.018 49H208.482L207.053 43.8672C207.018 43.7422 206.979 43.5938 206.936 43.4219C206.893 43.25 206.85 43.0742 206.807 42.8945C206.768 42.7148 206.732 42.5508 206.701 42.4023C206.674 42.25 206.654 42.1328 206.643 42.0508C206.635 42.1328 206.617 42.248 206.59 42.3965C206.562 42.5449 206.529 42.709 206.49 42.8887C206.455 43.0645 206.416 43.2402 206.373 43.416C206.33 43.5879 206.291 43.7402 206.256 43.873L204.85 49H203.32L201.088 40.4336H202.5L203.736 45.4551C203.775 45.6152 203.814 45.7891 203.854 45.9766C203.896 46.1602 203.936 46.3457 203.971 46.5332C204.01 46.7207 204.045 46.9043 204.076 47.084C204.107 47.2598 204.133 47.4199 204.152 47.5645C204.172 47.416 204.197 47.252 204.229 47.0723C204.26 46.8887 204.293 46.7031 204.328 46.5156C204.367 46.3242 204.406 46.1406 204.445 45.9648C204.488 45.7891 204.531 45.6309 204.574 45.4902L205.969 40.4336H207.34L208.764 45.5078C208.807 45.6523 208.848 45.8145 208.887 45.9941C208.93 46.1738 208.971 46.3574 209.01 46.5449C209.049 46.7324 209.084 46.9141 209.115 47.0898C209.146 47.2656 209.172 47.4238 209.191 47.5645C209.219 47.373 209.254 47.1543 209.297 46.9082C209.34 46.6621 209.389 46.4121 209.443 46.1582C209.498 45.9043 209.553 45.6699 209.607 45.4551L210.838 40.4336H212.256ZM215.912 42.3906C216.49 42.3906 216.986 42.5098 217.4 42.748C217.814 42.9863 218.133 43.3242 218.355 43.7617C218.578 44.1992 218.689 44.7227 218.689 45.332V46.0703H214.359C214.375 46.6992 214.543 47.1836 214.863 47.5234C215.188 47.8633 215.641 48.0332 216.223 48.0332C216.637 48.0332 217.008 47.9941 217.336 47.916C217.668 47.834 218.01 47.7148 218.361 47.5586V48.6777C218.037 48.8301 217.707 48.9414 217.371 49.0117C217.035 49.082 216.633 49.1172 216.164 49.1172C215.527 49.1172 214.967 48.9941 214.482 48.748C214.002 48.498 213.625 48.127 213.352 47.6348C213.082 47.1426 212.947 46.5312 212.947 45.8008C212.947 45.0742 213.07 44.457 213.316 43.9492C213.562 43.4414 213.908 43.0547 214.354 42.7891C214.799 42.5234 215.318 42.3906 215.912 42.3906ZM215.912 43.4277C215.479 43.4277 215.127 43.5684 214.857 43.8496C214.592 44.1309 214.436 44.543 214.389 45.0859H217.342C217.338 44.7617 217.283 44.4746 217.178 44.2246C217.076 43.9746 216.92 43.7793 216.709 43.6387C216.502 43.498 216.236 43.4277 215.912 43.4277ZM221.625 49H220.242V39.8828H221.625V49ZM226.207 49.1172C225.594 49.1172 225.062 48.998 224.613 48.7598C224.164 48.5215 223.818 48.1562 223.576 47.6641C223.334 47.1719 223.213 46.5469 223.213 45.7891C223.213 45 223.346 44.3555 223.611 43.8555C223.877 43.3555 224.244 42.9863 224.713 42.748C225.186 42.5098 225.727 42.3906 226.336 42.3906C226.723 42.3906 227.072 42.4297 227.385 42.5078C227.701 42.582 227.969 42.6738 228.188 42.7832L227.777 43.8848C227.539 43.7871 227.295 43.7051 227.045 43.6387C226.795 43.5723 226.555 43.5391 226.324 43.5391C225.945 43.5391 225.629 43.623 225.375 43.791C225.125 43.959 224.938 44.209 224.812 44.541C224.691 44.873 224.631 45.2852 224.631 45.7773C224.631 46.2539 224.693 46.6562 224.818 46.9844C224.943 47.3086 225.129 47.5547 225.375 47.7227C225.621 47.8867 225.924 47.9688 226.283 47.9688C226.639 47.9688 226.957 47.9258 227.238 47.8398C227.52 47.7539 227.785 47.6426 228.035 47.5059V48.7012C227.789 48.8418 227.525 48.9453 227.244 49.0117C226.963 49.082 226.617 49.1172 226.207 49.1172ZM235.301 45.7422C235.301 46.2812 235.23 46.7598 235.09 47.1777C234.949 47.5957 234.744 47.9492 234.475 48.2383C234.205 48.5234 233.881 48.7422 233.502 48.8945C233.123 49.043 232.695 49.1172 232.219 49.1172C231.773 49.1172 231.365 49.043 230.994 48.8945C230.623 48.7422 230.301 48.5234 230.027 48.2383C229.758 47.9492 229.549 47.5957 229.4 47.1777C229.252 46.7598 229.178 46.2812 229.178 45.7422C229.178 45.0273 229.301 44.4219 229.547 43.9258C229.797 43.4258 230.152 43.0449 230.613 42.7832C231.074 42.5215 231.623 42.3906 232.26 42.3906C232.857 42.3906 233.385 42.5215 233.842 42.7832C234.299 43.0449 234.656 43.4258 234.914 43.9258C235.172 44.4258 235.301 45.0312 235.301 45.7422ZM230.596 45.7422C230.596 46.2148 230.652 46.6191 230.766 46.9551C230.883 47.291 231.062 47.5488 231.305 47.7285C231.547 47.9043 231.859 47.9922 232.242 47.9922C232.625 47.9922 232.938 47.9043 233.18 47.7285C233.422 47.5488 233.6 47.291 233.713 46.9551C233.826 46.6191 233.883 46.2148 233.883 45.7422C233.883 45.2695 233.826 44.8691 233.713 44.541C233.6 44.209 233.422 43.957 233.18 43.7852C232.938 43.6094 232.623 43.5215 232.236 43.5215C231.666 43.5215 231.25 43.7129 230.988 44.0957C230.727 44.4785 230.596 45.0273 230.596 45.7422ZM244.213 42.3906C244.939 42.3906 245.486 42.5781 245.854 42.9531C246.225 43.3281 246.41 43.9297 246.41 44.7578V49H245.033V45.0039C245.033 44.5117 244.938 44.1406 244.746 43.8906C244.555 43.6406 244.264 43.5156 243.873 43.5156C243.326 43.5156 242.932 43.6914 242.689 44.043C242.451 44.3906 242.332 44.8965 242.332 45.5605V49H240.955V45.0039C240.955 44.6758 240.912 44.4023 240.826 44.1836C240.744 43.9609 240.617 43.7949 240.445 43.6855C240.273 43.5723 240.057 43.5156 239.795 43.5156C239.416 43.5156 239.113 43.6016 238.887 43.7734C238.664 43.9453 238.504 44.1992 238.406 44.5352C238.309 44.8672 238.26 45.2754 238.26 45.7598V49H236.883V42.5137H237.955L238.148 43.3867H238.225C238.357 43.1602 238.521 42.9746 238.717 42.8301C238.916 42.6816 239.137 42.5723 239.379 42.502C239.621 42.4277 239.873 42.3906 240.135 42.3906C240.619 42.3906 241.027 42.4766 241.359 42.6484C241.691 42.8164 241.939 43.0742 242.104 43.4219H242.209C242.412 43.0703 242.695 42.8105 243.059 42.6426C243.422 42.4746 243.807 42.3906 244.213 42.3906ZM250.916 42.3906C251.494 42.3906 251.99 42.5098 252.404 42.748C252.818 42.9863 253.137 43.3242 253.359 43.7617C253.582 44.1992 253.693 44.7227 253.693 45.332V46.0703H249.363C249.379 46.6992 249.547 47.1836 249.867 47.5234C250.191 47.8633 250.645 48.0332 251.227 48.0332C251.641 48.0332 252.012 47.9941 252.34 47.916C252.672 47.834 253.014 47.7148 253.365 47.5586V48.6777C253.041 48.8301 252.711 48.9414 252.375 49.0117C252.039 49.082 251.637 49.1172 251.168 49.1172C250.531 49.1172 249.971 48.9941 249.486 48.748C249.006 48.498 248.629 48.127 248.355 47.6348C248.086 47.1426 247.951 46.5312 247.951 45.8008C247.951 45.0742 248.074 44.457 248.32 43.9492C248.566 43.4414 248.912 43.0547 249.357 42.7891C249.803 42.5234 250.322 42.3906 250.916 42.3906ZM250.916 43.4277C250.482 43.4277 250.131 43.5684 249.861 43.8496C249.596 44.1309 249.439 44.543 249.393 45.0859H252.346C252.342 44.7617 252.287 44.4746 252.182 44.2246C252.08 43.9746 251.924 43.7793 251.713 43.6387C251.506 43.498 251.24 43.4277 250.916 43.4277ZM256.635 47.6055L256.717 47.7402C256.646 48.0215 256.557 48.3242 256.447 48.6484C256.338 48.9727 256.219 49.2969 256.09 49.6211C255.961 49.9492 255.83 50.2578 255.697 50.5469H254.689C254.771 50.2305 254.85 49.8984 254.924 49.5508C255.002 49.207 255.072 48.8672 255.135 48.5312C255.201 48.1914 255.254 47.8828 255.293 47.6055H256.635ZM271.904 40.4336L269.666 49H268.131L266.701 43.8672C266.666 43.7422 266.627 43.5938 266.584 43.4219C266.541 43.25 266.498 43.0742 266.455 42.8945C266.416 42.7148 266.381 42.5508 266.35 42.4023C266.322 42.25 266.303 42.1328 266.291 42.0508C266.283 42.1328 266.266 42.248 266.238 42.3965C266.211 42.5449 266.178 42.709 266.139 42.8887C266.104 43.0645 266.064 43.2402 266.021 43.416C265.979 43.5879 265.939 43.7402 265.904 43.873L264.498 49H262.969L260.736 40.4336H262.148L263.385 45.4551C263.424 45.6152 263.463 45.7891 263.502 45.9766C263.545 46.1602 263.584 46.3457 263.619 46.5332C263.658 46.7207 263.693 46.9043 263.725 47.084C263.756 47.2598 263.781 47.4199 263.801 47.5645C263.82 47.416 263.846 47.252 263.877 47.0723C263.908 46.8887 263.941 46.7031 263.977 46.5156C264.016 46.3242 264.055 46.1406 264.094 45.9648C264.137 45.7891 264.18 45.6309 264.223 45.4902L265.617 40.4336H266.988L268.412 45.5078C268.455 45.6523 268.496 45.8145 268.535 45.9941C268.578 46.1738 268.619 46.3574 268.658 46.5449C268.697 46.7324 268.732 46.9141 268.764 47.0898C268.795 47.2656 268.82 47.4238 268.84 47.5645C268.867 47.373 268.902 47.1543 268.945 46.9082C268.988 46.6621 269.037 46.4121 269.092 46.1582C269.146 45.9043 269.201 45.6699 269.256 45.4551L270.486 40.4336H271.904ZM275.561 42.3906C276.139 42.3906 276.635 42.5098 277.049 42.748C277.463 42.9863 277.781 43.3242 278.004 43.7617C278.227 44.1992 278.338 44.7227 278.338 45.332V46.0703H274.008C274.023 46.6992 274.191 47.1836 274.512 47.5234C274.836 47.8633 275.289 48.0332 275.871 48.0332C276.285 48.0332 276.656 47.9941 276.984 47.916C277.316 47.834 277.658 47.7148 278.01 47.5586V48.6777C277.686 48.8301 277.355 48.9414 277.02 49.0117C276.684 49.082 276.281 49.1172 275.812 49.1172C275.176 49.1172 274.615 48.9941 274.131 48.748C273.65 48.498 273.273 48.127 273 47.6348C272.73 47.1426 272.596 46.5312 272.596 45.8008C272.596 45.0742 272.719 44.457 272.965 43.9492C273.211 43.4414 273.557 43.0547 274.002 42.7891C274.447 42.5234 274.967 42.3906 275.561 42.3906ZM275.561 43.4277C275.127 43.4277 274.775 43.5684 274.506 43.8496C274.24 44.1309 274.084 44.543 274.037 45.0859H276.99C276.986 44.7617 276.932 44.4746 276.826 44.2246C276.725 43.9746 276.568 43.7793 276.357 43.6387C276.15 43.498 275.885 43.4277 275.561 43.4277ZM283.271 42.3906C284.002 42.3906 284.57 42.5801 284.977 42.959C285.387 43.334 285.592 43.9375 285.592 44.7695V49H284.215V45.0273C284.215 44.5234 284.111 44.1465 283.904 43.8965C283.697 43.6426 283.377 43.5156 282.943 43.5156C282.314 43.5156 281.877 43.709 281.631 44.0957C281.389 44.4824 281.268 45.043 281.268 45.7773V49H279.891V42.5137H280.963L281.156 43.3926H281.232C281.373 43.166 281.547 42.9805 281.754 42.8359C281.965 42.6875 282.199 42.5762 282.457 42.502C282.719 42.4277 282.99 42.3906 283.271 42.3906ZM294.428 41.5059C294.018 41.5059 293.65 41.5801 293.326 41.7285C293.006 41.877 292.734 42.0918 292.512 42.373C292.289 42.6504 292.119 42.9883 292.002 43.3867C291.885 43.7812 291.826 44.2266 291.826 44.7227C291.826 45.3867 291.92 45.959 292.107 46.4395C292.295 46.916 292.58 47.2832 292.963 47.541C293.346 47.7949 293.83 47.9219 294.416 47.9219C294.779 47.9219 295.133 47.8867 295.477 47.8164C295.82 47.7461 296.176 47.6504 296.543 47.5293V48.7246C296.195 48.8613 295.844 48.9609 295.488 49.0234C295.133 49.0859 294.723 49.1172 294.258 49.1172C293.383 49.1172 292.656 48.9355 292.078 48.5723C291.504 48.209 291.074 47.6973 290.789 47.0371C290.508 46.377 290.367 45.6035 290.367 44.7168C290.367 44.0684 290.457 43.4746 290.637 42.9355C290.816 42.3965 291.078 41.9316 291.422 41.541C291.766 41.1465 292.189 40.8438 292.693 40.6328C293.201 40.418 293.781 40.3105 294.434 40.3105C294.863 40.3105 295.285 40.3594 295.699 40.457C296.117 40.5508 296.504 40.6855 296.859 40.8613L296.367 42.0215C296.07 41.8809 295.76 41.7598 295.436 41.6582C295.111 41.5566 294.775 41.5059 294.428 41.5059ZM299.619 39.8828V42.1738C299.619 42.4121 299.611 42.6445 299.596 42.8711C299.584 43.0977 299.57 43.2734 299.555 43.3984H299.631C299.768 43.1719 299.936 42.9863 300.135 42.8418C300.334 42.6934 300.557 42.582 300.803 42.5078C301.053 42.4336 301.318 42.3965 301.6 42.3965C302.096 42.3965 302.518 42.4805 302.865 42.6484C303.213 42.8125 303.479 43.0684 303.662 43.416C303.85 43.7637 303.943 44.2148 303.943 44.7695V49H302.566V45.0273C302.566 44.5234 302.463 44.1465 302.256 43.8965C302.049 43.6426 301.729 43.5156 301.295 43.5156C300.877 43.5156 300.545 43.6035 300.299 43.7793C300.057 43.9512 299.883 44.207 299.777 44.5469C299.672 44.8828 299.619 45.293 299.619 45.7773V49H298.242V39.8828H299.619ZM311.613 45.7422C311.613 46.2812 311.543 46.7598 311.402 47.1777C311.262 47.5957 311.057 47.9492 310.787 48.2383C310.518 48.5234 310.193 48.7422 309.814 48.8945C309.436 49.043 309.008 49.1172 308.531 49.1172C308.086 49.1172 307.678 49.043 307.307 48.8945C306.936 48.7422 306.613 48.5234 306.34 48.2383C306.07 47.9492 305.861 47.5957 305.713 47.1777C305.564 46.7598 305.49 46.2812 305.49 45.7422C305.49 45.0273 305.613 44.4219 305.859 43.9258C306.109 43.4258 306.465 43.0449 306.926 42.7832C307.387 42.5215 307.936 42.3906 308.572 42.3906C309.17 42.3906 309.697 42.5215 310.154 42.7832C310.611 43.0449 310.969 43.4258 311.227 43.9258C311.484 44.4258 311.613 45.0312 311.613 45.7422ZM306.908 45.7422C306.908 46.2148 306.965 46.6191 307.078 46.9551C307.195 47.291 307.375 47.5488 307.617 47.7285C307.859 47.9043 308.172 47.9922 308.555 47.9922C308.938 47.9922 309.25 47.9043 309.492 47.7285C309.734 47.5488 309.912 47.291 310.025 46.9551C310.139 46.6191 310.195 46.2148 310.195 45.7422C310.195 45.2695 310.139 44.8691 310.025 44.541C309.912 44.209 309.734 43.957 309.492 43.7852C309.25 43.6094 308.936 43.5215 308.549 43.5215C307.979 43.5215 307.562 43.7129 307.301 44.0957C307.039 44.4785 306.908 45.0273 306.908 45.7422ZM318.85 42.5137V49H317.766L317.578 48.127H317.502C317.365 48.3496 317.191 48.5352 316.98 48.6836C316.77 48.8281 316.535 48.9355 316.277 49.0059C316.02 49.0801 315.748 49.1172 315.463 49.1172C314.975 49.1172 314.557 49.0352 314.209 48.8711C313.865 48.7031 313.602 48.4453 313.418 48.0977C313.234 47.75 313.143 47.3008 313.143 46.75V42.5137H314.525V46.4922C314.525 46.9961 314.627 47.373 314.83 47.623C315.037 47.873 315.357 47.998 315.791 47.998C316.209 47.998 316.541 47.9121 316.787 47.7402C317.033 47.5684 317.207 47.3145 317.309 46.9785C317.414 46.6426 317.467 46.2305 317.467 45.7422V42.5137H318.85Z" fill="#161616"/>
<path d="M608.121 49V40.4336H609.117V48.1094H612.92V49H608.121ZM616.646 42.4727C617.412 42.4727 617.98 42.6445 618.352 42.9883C618.723 43.332 618.908 43.8809 618.908 44.6348V49H618.199L618.012 48.0508H617.965C617.785 48.2852 617.598 48.4824 617.402 48.6426C617.207 48.7988 616.98 48.918 616.723 49C616.469 49.0781 616.156 49.1172 615.785 49.1172C615.395 49.1172 615.047 49.0488 614.742 48.9121C614.441 48.7754 614.203 48.5684 614.027 48.291C613.855 48.0137 613.77 47.6621 613.77 47.2363C613.77 46.5957 614.023 46.1035 614.531 45.7598C615.039 45.416 615.812 45.2285 616.852 45.1973L617.959 45.1504V44.7578C617.959 44.2031 617.84 43.8145 617.602 43.5918C617.363 43.3691 617.027 43.2578 616.594 43.2578C616.258 43.2578 615.938 43.3066 615.633 43.4043C615.328 43.502 615.039 43.6172 614.766 43.75L614.467 43.0117C614.756 42.8633 615.088 42.7363 615.463 42.6309C615.838 42.5254 616.232 42.4727 616.646 42.4727ZM617.947 45.8359L616.969 45.877C616.168 45.9082 615.604 46.0391 615.275 46.2695C614.947 46.5 614.783 46.8262 614.783 47.248C614.783 47.6152 614.895 47.8867 615.117 48.0625C615.34 48.2383 615.635 48.3262 616.002 48.3262C616.572 48.3262 617.039 48.168 617.402 47.8516C617.766 47.5352 617.947 47.0605 617.947 46.4277V45.8359ZM625.066 47.2422C625.066 47.6523 624.963 47.998 624.756 48.2793C624.553 48.5566 624.26 48.7656 623.877 48.9062C623.498 49.0469 623.045 49.1172 622.518 49.1172C622.068 49.1172 621.68 49.082 621.352 49.0117C621.023 48.9414 620.736 48.8418 620.49 48.7129V47.8164C620.752 47.9453 621.064 48.0625 621.428 48.168C621.791 48.2734 622.162 48.3262 622.541 48.3262C623.096 48.3262 623.498 48.2363 623.748 48.0566C623.998 47.877 624.123 47.6328 624.123 47.3242C624.123 47.1484 624.072 46.9941 623.971 46.8613C623.873 46.7246 623.707 46.5938 623.473 46.4688C623.238 46.3398 622.914 46.1992 622.5 46.0469C622.09 45.8906 621.734 45.7363 621.434 45.584C621.137 45.4277 620.906 45.2383 620.742 45.0156C620.582 44.793 620.502 44.5039 620.502 44.1484C620.502 43.6055 620.721 43.1895 621.158 42.9004C621.6 42.6074 622.178 42.4609 622.893 42.4609C623.279 42.4609 623.641 42.5 623.977 42.5781C624.316 42.6523 624.633 42.7539 624.926 42.8828L624.598 43.6621C624.332 43.5488 624.049 43.4531 623.748 43.375C623.447 43.2969 623.141 43.2578 622.828 43.2578C622.379 43.2578 622.033 43.332 621.791 43.4805C621.553 43.6289 621.434 43.832 621.434 44.0898C621.434 44.2891 621.488 44.4531 621.598 44.582C621.711 44.7109 621.891 44.832 622.137 44.9453C622.383 45.0586 622.707 45.1914 623.109 45.3438C623.512 45.4922 623.859 45.6465 624.152 45.8066C624.445 45.9629 624.67 46.1543 624.826 46.3809C624.986 46.6035 625.066 46.8906 625.066 47.2422ZM628.705 48.3203C628.865 48.3203 629.029 48.3066 629.197 48.2793C629.365 48.252 629.502 48.2188 629.607 48.1797V48.9355C629.494 48.9863 629.336 49.0293 629.133 49.0645C628.934 49.0996 628.738 49.1172 628.547 49.1172C628.207 49.1172 627.898 49.0586 627.621 48.9414C627.344 48.8203 627.121 48.6172 626.953 48.332C626.789 48.0469 626.707 47.6523 626.707 47.1484V43.3398H625.793V42.8652L626.713 42.4844L627.1 41.0898H627.686V42.5781H629.566V43.3398H627.686V47.1191C627.686 47.5215 627.777 47.8223 627.961 48.0215C628.148 48.2207 628.396 48.3203 628.705 48.3203ZM635.004 49H634.025V39.8828H635.004V49ZM642.598 45.7773C642.598 46.3047 642.529 46.7754 642.393 47.1895C642.256 47.6035 642.059 47.9531 641.801 48.2383C641.543 48.5234 641.23 48.7422 640.863 48.8945C640.5 49.043 640.088 49.1172 639.627 49.1172C639.197 49.1172 638.803 49.043 638.443 48.8945C638.088 48.7422 637.779 48.5234 637.518 48.2383C637.26 47.9531 637.059 47.6035 636.914 47.1895C636.773 46.7754 636.703 46.3047 636.703 45.7773C636.703 45.0742 636.822 44.4766 637.061 43.9844C637.299 43.4883 637.639 43.1113 638.08 42.8535C638.525 42.5918 639.055 42.4609 639.668 42.4609C640.254 42.4609 640.766 42.5918 641.203 42.8535C641.645 43.1152 641.986 43.4941 642.229 43.9902C642.475 44.4824 642.598 45.0781 642.598 45.7773ZM637.711 45.7773C637.711 46.293 637.779 46.7402 637.916 47.1191C638.053 47.498 638.264 47.791 638.549 47.998C638.834 48.2051 639.201 48.3086 639.65 48.3086C640.096 48.3086 640.461 48.2051 640.746 47.998C641.035 47.791 641.248 47.498 641.385 47.1191C641.521 46.7402 641.59 46.293 641.59 45.7773C641.59 45.2656 641.521 44.8242 641.385 44.4531C641.248 44.0781 641.037 43.7891 640.752 43.5859C640.467 43.3828 640.098 43.2812 639.645 43.2812C638.977 43.2812 638.486 43.502 638.174 43.9434C637.865 44.3848 637.711 44.9961 637.711 45.7773ZM646.072 51.8828C645.229 51.8828 644.578 51.7246 644.121 51.4082C643.664 51.0957 643.436 50.6562 643.436 50.0898C643.436 49.6875 643.562 49.3438 643.816 49.0586C644.074 48.7734 644.43 48.584 644.883 48.4902C644.715 48.4121 644.57 48.2949 644.449 48.1387C644.332 47.9824 644.273 47.8027 644.273 47.5996C644.273 47.3652 644.338 47.1602 644.467 46.9844C644.6 46.8047 644.801 46.6328 645.07 46.4688C644.734 46.332 644.461 46.1016 644.25 45.7773C644.043 45.4492 643.939 45.0684 643.939 44.6348C643.939 44.1738 644.035 43.7812 644.227 43.457C644.418 43.1289 644.695 42.8789 645.059 42.707C645.422 42.5352 645.861 42.4492 646.377 42.4492C646.49 42.4492 646.604 42.4551 646.717 42.4668C646.834 42.4746 646.945 42.4883 647.051 42.5078C647.156 42.5234 647.248 42.543 647.326 42.5664H649.529V43.1934L648.346 43.3398C648.463 43.4922 648.561 43.6758 648.639 43.8906C648.717 44.1055 648.756 44.3438 648.756 44.6055C648.756 45.2461 648.539 45.7559 648.105 46.1348C647.672 46.5098 647.076 46.6973 646.318 46.6973C646.139 46.6973 645.955 46.6816 645.768 46.6504C645.576 46.7559 645.43 46.873 645.328 47.002C645.23 47.1309 645.182 47.2793 645.182 47.4473C645.182 47.5723 645.219 47.6719 645.293 47.7461C645.371 47.8203 645.482 47.875 645.627 47.9102C645.771 47.9414 645.945 47.957 646.148 47.957H647.279C647.979 47.957 648.514 48.1035 648.885 48.3965C649.26 48.6895 649.447 49.1172 649.447 49.6797C649.447 50.3906 649.158 50.9355 648.58 51.3145C648.002 51.6934 647.166 51.8828 646.072 51.8828ZM646.102 51.1211C646.633 51.1211 647.072 51.0664 647.42 50.957C647.771 50.8516 648.033 50.6973 648.205 50.4941C648.381 50.2949 648.469 50.0566 648.469 49.7793C648.469 49.5215 648.41 49.3262 648.293 49.1934C648.176 49.0645 648.004 48.9785 647.777 48.9355C647.551 48.8887 647.273 48.8652 646.945 48.8652H645.832C645.543 48.8652 645.291 48.9102 645.076 49C644.861 49.0898 644.695 49.2227 644.578 49.3984C644.465 49.5742 644.408 49.793 644.408 50.0547C644.408 50.4023 644.555 50.666 644.848 50.8457C645.141 51.0293 645.559 51.1211 646.102 51.1211ZM646.354 45.9883C646.818 45.9883 647.168 45.8711 647.402 45.6367C647.637 45.4023 647.754 45.0605 647.754 44.6113C647.754 44.1309 647.635 43.7715 647.396 43.5332C647.158 43.291 646.807 43.1699 646.342 43.1699C645.896 43.1699 645.553 43.2949 645.311 43.5449C645.072 43.791 644.953 44.1523 644.953 44.6289C644.953 45.0664 645.074 45.4023 645.316 45.6367C645.559 45.8711 645.904 45.9883 646.354 45.9883ZM652.588 51.8828C651.744 51.8828 651.094 51.7246 650.637 51.4082C650.18 51.0957 649.951 50.6562 649.951 50.0898C649.951 49.6875 650.078 49.3438 650.332 49.0586C650.59 48.7734 650.945 48.584 651.398 48.4902C651.23 48.4121 651.086 48.2949 650.965 48.1387C650.848 47.9824 650.789 47.8027 650.789 47.5996C650.789 47.3652 650.854 47.1602 650.982 46.9844C651.115 46.8047 651.316 46.6328 651.586 46.4688C651.25 46.332 650.977 46.1016 650.766 45.7773C650.559 45.4492 650.455 45.0684 650.455 44.6348C650.455 44.1738 650.551 43.7812 650.742 43.457C650.934 43.1289 651.211 42.8789 651.574 42.707C651.938 42.5352 652.377 42.4492 652.893 42.4492C653.006 42.4492 653.119 42.4551 653.232 42.4668C653.35 42.4746 653.461 42.4883 653.566 42.5078C653.672 42.5234 653.764 42.543 653.842 42.5664H656.045V43.1934L654.861 43.3398C654.979 43.4922 655.076 43.6758 655.154 43.8906C655.232 44.1055 655.271 44.3438 655.271 44.6055C655.271 45.2461 655.055 45.7559 654.621 46.1348C654.188 46.5098 653.592 46.6973 652.834 46.6973C652.654 46.6973 652.471 46.6816 652.283 46.6504C652.092 46.7559 651.945 46.873 651.844 47.002C651.746 47.1309 651.697 47.2793 651.697 47.4473C651.697 47.5723 651.734 47.6719 651.809 47.7461C651.887 47.8203 651.998 47.875 652.143 47.9102C652.287 47.9414 652.461 47.957 652.664 47.957H653.795C654.494 47.957 655.029 48.1035 655.4 48.3965C655.775 48.6895 655.963 49.1172 655.963 49.6797C655.963 50.3906 655.674 50.9355 655.096 51.3145C654.518 51.6934 653.682 51.8828 652.588 51.8828ZM652.617 51.1211C653.148 51.1211 653.588 51.0664 653.936 50.957C654.287 50.8516 654.549 50.6973 654.721 50.4941C654.896 50.2949 654.984 50.0566 654.984 49.7793C654.984 49.5215 654.926 49.3262 654.809 49.1934C654.691 49.0645 654.52 48.9785 654.293 48.9355C654.066 48.8887 653.789 48.8652 653.461 48.8652H652.348C652.059 48.8652 651.807 48.9102 651.592 49C651.377 49.0898 651.211 49.2227 651.094 49.3984C650.98 49.5742 650.924 49.793 650.924 50.0547C650.924 50.4023 651.07 50.666 651.363 50.8457C651.656 51.0293 652.074 51.1211 652.617 51.1211ZM652.869 45.9883C653.334 45.9883 653.684 45.8711 653.918 45.6367C654.152 45.4023 654.27 45.0605 654.27 44.6113C654.27 44.1309 654.15 43.7715 653.912 43.5332C653.674 43.291 653.322 43.1699 652.857 43.1699C652.412 43.1699 652.068 43.2949 651.826 43.5449C651.588 43.791 651.469 44.1523 651.469 44.6289C651.469 45.0664 651.59 45.4023 651.832 45.6367C652.074 45.8711 652.42 45.9883 652.869 45.9883ZM659.783 42.4609C660.33 42.4609 660.799 42.582 661.189 42.8242C661.58 43.0664 661.879 43.4062 662.086 43.8438C662.293 44.2773 662.396 44.7852 662.396 45.3672V45.9707H657.961C657.973 46.7246 658.16 47.2988 658.523 47.6934C658.887 48.0879 659.398 48.2852 660.059 48.2852C660.465 48.2852 660.824 48.248 661.137 48.1738C661.449 48.0996 661.773 47.9902 662.109 47.8457V48.7012C661.785 48.8457 661.463 48.9512 661.143 49.0176C660.826 49.084 660.451 49.1172 660.018 49.1172C659.4 49.1172 658.861 48.9922 658.4 48.7422C657.943 48.4883 657.588 48.1172 657.334 47.6289C657.08 47.1406 656.953 46.543 656.953 45.8359C656.953 45.1445 657.068 44.5469 657.299 44.043C657.533 43.5352 657.861 43.1445 658.283 42.8711C658.709 42.5977 659.209 42.4609 659.783 42.4609ZM659.771 43.2578C659.252 43.2578 658.838 43.4277 658.529 43.7676C658.221 44.1074 658.037 44.582 657.979 45.1914H661.377C661.373 44.8086 661.312 44.4727 661.195 44.1836C661.082 43.8906 660.908 43.6641 660.674 43.5039C660.439 43.3398 660.139 43.2578 659.771 43.2578ZM666.334 49.1172C665.521 49.1172 664.877 48.8398 664.4 48.2852C663.928 47.7305 663.691 46.9062 663.691 45.8125C663.691 44.707 663.934 43.873 664.418 43.3105C664.902 42.7441 665.547 42.4609 666.352 42.4609C666.691 42.4609 666.988 42.5059 667.242 42.5957C667.496 42.6855 667.715 42.8066 667.898 42.959C668.082 43.1074 668.236 43.2773 668.361 43.4688H668.432C668.416 43.3477 668.4 43.1816 668.385 42.9707C668.369 42.7598 668.361 42.5879 668.361 42.4551V39.8828H669.334V49H668.549L668.402 48.0859H668.361C668.24 48.2773 668.086 48.4512 667.898 48.6074C667.715 48.7637 667.494 48.8887 667.236 48.9824C666.982 49.0723 666.682 49.1172 666.334 49.1172ZM666.486 48.3086C667.174 48.3086 667.66 48.1133 667.945 47.7227C668.23 47.332 668.373 46.752 668.373 45.9824V45.8066C668.373 44.9902 668.236 44.3633 667.963 43.9258C667.693 43.4883 667.201 43.2695 666.486 43.2695C665.889 43.2695 665.441 43.5 665.145 43.9609C664.848 44.418 664.699 45.043 664.699 45.8359C664.699 46.625 664.846 47.2344 665.139 47.6641C665.436 48.0938 665.885 48.3086 666.486 48.3086ZM675.486 42.5781V49H674.514V42.5781H675.486ZM675.012 40.1758C675.172 40.1758 675.309 40.2285 675.422 40.334C675.539 40.4355 675.598 40.5957 675.598 40.8145C675.598 41.0293 675.539 41.1895 675.422 41.2949C675.309 41.4004 675.172 41.4531 675.012 41.4531C674.844 41.4531 674.703 41.4004 674.59 41.2949C674.48 41.1895 674.426 41.0293 674.426 40.8145C674.426 40.5957 674.48 40.4355 674.59 40.334C674.703 40.2285 674.844 40.1758 675.012 40.1758ZM680.59 42.4609C681.352 42.4609 681.928 42.6484 682.318 43.0234C682.709 43.3945 682.904 43.9922 682.904 44.8164V49H681.943V44.8809C681.943 44.3457 681.82 43.9453 681.574 43.6797C681.332 43.4141 680.959 43.2812 680.455 43.2812C679.744 43.2812 679.244 43.4824 678.955 43.8848C678.666 44.2871 678.521 44.8711 678.521 45.6367V49H677.549V42.5781H678.334L678.48 43.5039H678.533C678.67 43.2773 678.844 43.0879 679.055 42.9355C679.266 42.7793 679.502 42.6621 679.764 42.584C680.025 42.502 680.301 42.4609 680.59 42.4609ZM520.236 65H519.234V57.3125H516.539V56.4336H522.92V57.3125H520.236V65ZM525.041 55.8828V58.6074C525.041 58.7637 525.037 58.9219 525.029 59.082C525.021 59.2383 525.008 59.3828 524.988 59.5156H525.053C525.186 59.2891 525.354 59.0996 525.557 58.9473C525.764 58.791 525.998 58.6738 526.26 58.5957C526.521 58.5137 526.799 58.4727 527.092 58.4727C527.607 58.4727 528.037 58.5547 528.381 58.7188C528.729 58.8828 528.988 59.1367 529.16 59.4805C529.336 59.8242 529.424 60.2695 529.424 60.8164V65H528.463V60.8809C528.463 60.3457 528.34 59.9453 528.094 59.6797C527.852 59.4141 527.479 59.2812 526.975 59.2812C526.498 59.2812 526.117 59.373 525.832 59.5566C525.551 59.7363 525.348 60.002 525.223 60.3535C525.102 60.7051 525.041 61.1348 525.041 61.6426V65H524.068V55.8828H525.041ZM536.73 58.5781V65H535.934L535.793 64.0977H535.74C535.607 64.3203 535.436 64.5078 535.225 64.6602C535.014 64.8125 534.775 64.9258 534.51 65C534.248 65.0781 533.969 65.1172 533.672 65.1172C533.164 65.1172 532.738 65.0352 532.395 64.8711C532.051 64.707 531.791 64.4531 531.615 64.1094C531.443 63.7656 531.357 63.3242 531.357 62.7852V58.5781H532.342V62.7148C532.342 63.25 532.463 63.6504 532.705 63.916C532.947 64.1777 533.316 64.3086 533.812 64.3086C534.289 64.3086 534.668 64.2188 534.949 64.0391C535.234 63.8594 535.439 63.5957 535.564 63.248C535.689 62.8965 535.752 62.4668 535.752 61.959V58.5781H536.73ZM541.705 58.4609C541.834 58.4609 541.969 58.4688 542.109 58.4844C542.25 58.4961 542.375 58.5137 542.484 58.5371L542.361 59.4395C542.256 59.4121 542.139 59.3906 542.01 59.375C541.881 59.3594 541.76 59.3516 541.646 59.3516C541.389 59.3516 541.145 59.4043 540.914 59.5098C540.688 59.6113 540.488 59.7598 540.316 59.9551C540.145 60.1465 540.01 60.3789 539.912 60.6523C539.814 60.9219 539.766 61.2227 539.766 61.5547V65H538.787V58.5781H539.596L539.701 59.7617H539.742C539.875 59.5234 540.035 59.3066 540.223 59.1113C540.41 58.9121 540.627 58.7539 540.873 58.6367C541.123 58.5195 541.4 58.4609 541.705 58.4609ZM547.852 63.2422C547.852 63.6523 547.748 63.998 547.541 64.2793C547.338 64.5566 547.045 64.7656 546.662 64.9062C546.283 65.0469 545.83 65.1172 545.303 65.1172C544.854 65.1172 544.465 65.082 544.137 65.0117C543.809 64.9414 543.521 64.8418 543.275 64.7129V63.8164C543.537 63.9453 543.85 64.0625 544.213 64.168C544.576 64.2734 544.947 64.3262 545.326 64.3262C545.881 64.3262 546.283 64.2363 546.533 64.0566C546.783 63.877 546.908 63.6328 546.908 63.3242C546.908 63.1484 546.857 62.9941 546.756 62.8613C546.658 62.7246 546.492 62.5938 546.258 62.4688C546.023 62.3398 545.699 62.1992 545.285 62.0469C544.875 61.8906 544.52 61.7363 544.219 61.584C543.922 61.4277 543.691 61.2383 543.527 61.0156C543.367 60.793 543.287 60.5039 543.287 60.1484C543.287 59.6055 543.506 59.1895 543.943 58.9004C544.385 58.6074 544.963 58.4609 545.678 58.4609C546.064 58.4609 546.426 58.5 546.762 58.5781C547.102 58.6523 547.418 58.7539 547.711 58.8828L547.383 59.6621C547.117 59.5488 546.834 59.4531 546.533 59.375C546.232 59.2969 545.926 59.2578 545.613 59.2578C545.164 59.2578 544.818 59.332 544.576 59.4805C544.338 59.6289 544.219 59.832 544.219 60.0898C544.219 60.2891 544.273 60.4531 544.383 60.582C544.496 60.7109 544.676 60.832 544.922 60.9453C545.168 61.0586 545.492 61.1914 545.895 61.3438C546.297 61.4922 546.645 61.6465 546.938 61.8066C547.23 61.9629 547.455 62.1543 547.611 62.3809C547.771 62.6035 547.852 62.8906 547.852 63.2422ZM555.721 65H554.771V58.9297C554.771 58.6992 554.771 58.502 554.771 58.3379C554.775 58.1699 554.779 58.0176 554.783 57.8809C554.791 57.7402 554.801 57.5977 554.812 57.4531C554.691 57.5781 554.578 57.6855 554.473 57.7754C554.367 57.8613 554.236 57.9688 554.08 58.0977L553.102 58.8828L552.592 58.2207L554.912 56.4336H555.721V65ZM564.264 58.4316C564.264 58.8145 564.189 59.1465 564.041 59.4277C563.893 59.709 563.686 59.9395 563.42 60.1191C563.154 60.2949 562.842 60.418 562.482 60.4883V60.5352C563.162 60.6211 563.672 60.8398 564.012 61.1914C564.355 61.543 564.527 62.0039 564.527 62.5742C564.527 63.0703 564.41 63.5098 564.176 63.8926C563.945 64.2754 563.59 64.5762 563.109 64.7949C562.633 65.0098 562.021 65.1172 561.275 65.1172C560.822 65.1172 560.402 65.0801 560.016 65.0059C559.633 64.9355 559.266 64.8164 558.914 64.6484V63.7344C559.27 63.9102 559.656 64.0488 560.074 64.1504C560.492 64.248 560.896 64.2969 561.287 64.2969C562.068 64.2969 562.633 64.1426 562.98 63.834C563.328 63.5215 563.502 63.0957 563.502 62.5566C563.502 62.1855 563.404 61.8867 563.209 61.6602C563.018 61.4297 562.74 61.2617 562.377 61.1562C562.018 61.0469 561.584 60.9922 561.076 60.9922H560.221V60.1602H561.082C561.547 60.1602 561.941 60.0918 562.266 59.9551C562.59 59.8184 562.836 59.627 563.004 59.3809C563.176 59.1309 563.262 58.8359 563.262 58.4961C563.262 58.0625 563.117 57.7285 562.828 57.4941C562.539 57.2559 562.146 57.1367 561.65 57.1367C561.346 57.1367 561.068 57.168 560.818 57.2305C560.568 57.293 560.334 57.3789 560.115 57.4883C559.896 57.5977 559.678 57.7246 559.459 57.8691L558.967 57.2012C559.279 56.959 559.66 56.75 560.109 56.5742C560.559 56.3984 561.068 56.3105 561.639 56.3105C562.514 56.3105 563.17 56.5098 563.607 56.9082C564.045 57.3066 564.264 57.8145 564.264 58.4316ZM567.381 63.6055L567.457 63.7402C567.387 64.0254 567.297 64.3301 567.188 64.6543C567.082 64.9785 566.965 65.3027 566.836 65.627C566.711 65.9551 566.584 66.2617 566.455 66.5469H565.729C565.811 66.2344 565.891 65.9043 565.969 65.5566C566.047 65.2129 566.117 64.873 566.18 64.5371C566.246 64.1973 566.299 63.8867 566.338 63.6055H567.381ZM580.066 60.7051C580.066 61.3652 579.982 61.9668 579.814 62.5098C579.646 63.0488 579.396 63.5137 579.064 63.9043C578.736 64.291 578.328 64.5898 577.84 64.8008C577.352 65.0117 576.785 65.1172 576.141 65.1172C575.477 65.1172 574.896 65.0117 574.4 64.8008C573.908 64.5898 573.498 64.2891 573.17 63.8984C572.846 63.5078 572.602 63.041 572.438 62.498C572.277 61.9551 572.197 61.3535 572.197 60.6934C572.197 59.8184 572.342 59.0508 572.631 58.3906C572.92 57.7305 573.357 57.2168 573.943 56.8496C574.533 56.4824 575.271 56.2988 576.158 56.2988C577.006 56.2988 577.719 56.4805 578.297 56.8438C578.879 57.207 579.318 57.7188 579.615 58.3789C579.916 59.0352 580.066 59.8105 580.066 60.7051ZM573.246 60.7051C573.246 61.4316 573.35 62.0605 573.557 62.5918C573.764 63.123 574.08 63.5332 574.506 63.8223C574.936 64.1113 575.48 64.2559 576.141 64.2559C576.805 64.2559 577.348 64.1113 577.77 63.8223C578.195 63.5332 578.51 63.123 578.713 62.5918C578.916 62.0605 579.018 61.4316 579.018 60.7051C579.018 59.5996 578.785 58.7363 578.32 58.1152C577.859 57.4902 577.139 57.1777 576.158 57.1777C575.494 57.1777 574.947 57.3203 574.518 57.6055C574.088 57.8906 573.768 58.2969 573.557 58.8242C573.35 59.3477 573.246 59.9746 573.246 60.7051ZM584.402 65.1172C583.824 65.1172 583.314 64.998 582.873 64.7598C582.432 64.5215 582.088 64.1582 581.842 63.6699C581.596 63.1816 581.473 62.5664 581.473 61.8242C581.473 61.0469 581.602 60.4121 581.859 59.9199C582.121 59.4238 582.48 59.0566 582.938 58.8184C583.395 58.5801 583.914 58.4609 584.496 58.4609C584.816 58.4609 585.125 58.4941 585.422 58.5605C585.723 58.623 585.969 58.7031 586.16 58.8008L585.867 59.6152C585.672 59.5371 585.445 59.4668 585.188 59.4043C584.934 59.3418 584.695 59.3105 584.473 59.3105C584.027 59.3105 583.656 59.4062 583.359 59.5977C583.066 59.7891 582.846 60.0703 582.697 60.4414C582.553 60.8125 582.48 61.2695 582.48 61.8125C582.48 62.332 582.551 62.7754 582.691 63.1426C582.836 63.5098 583.049 63.791 583.33 63.9863C583.615 64.1777 583.971 64.2734 584.396 64.2734C584.736 64.2734 585.043 64.2383 585.316 64.168C585.59 64.0938 585.838 64.0078 586.061 63.9102V64.7773C585.846 64.8867 585.605 64.9707 585.34 65.0293C585.078 65.0879 584.766 65.1172 584.402 65.1172ZM589.658 64.3203C589.818 64.3203 589.982 64.3066 590.15 64.2793C590.318 64.252 590.455 64.2188 590.561 64.1797V64.9355C590.447 64.9863 590.289 65.0293 590.086 65.0645C589.887 65.0996 589.691 65.1172 589.5 65.1172C589.16 65.1172 588.852 65.0586 588.574 64.9414C588.297 64.8203 588.074 64.6172 587.906 64.332C587.742 64.0469 587.66 63.6523 587.66 63.1484V59.3398H586.746V58.8652L587.666 58.4844L588.053 57.0898H588.639V58.5781H590.52V59.3398H588.639V63.1191C588.639 63.5215 588.73 63.8223 588.914 64.0215C589.102 64.2207 589.35 64.3203 589.658 64.3203ZM600.158 65H594.545V64.1855L596.836 61.8594C597.262 61.4297 597.619 61.0469 597.908 60.7109C598.201 60.375 598.424 60.0449 598.576 59.7207C598.729 59.3926 598.805 59.0332 598.805 58.6426C598.805 58.1582 598.66 57.7891 598.371 57.5352C598.086 57.2773 597.709 57.1484 597.24 57.1484C596.83 57.1484 596.467 57.2188 596.15 57.3594C595.834 57.5 595.51 57.6992 595.178 57.957L594.656 57.3008C594.883 57.1094 595.129 56.9395 595.395 56.791C595.664 56.6426 595.951 56.5254 596.256 56.4395C596.564 56.3535 596.893 56.3105 597.24 56.3105C597.768 56.3105 598.223 56.4023 598.605 56.5859C598.988 56.7695 599.283 57.0312 599.49 57.3711C599.701 57.7109 599.807 58.1152 599.807 58.584C599.807 59.0371 599.717 59.459 599.537 59.8496C599.357 60.2363 599.105 60.6211 598.781 61.0039C598.457 61.3828 598.078 61.7852 597.645 62.2109L595.781 64.0684V64.1094H600.158V65ZM607.072 60.7051C607.072 61.4004 607.02 62.0215 606.914 62.5684C606.809 63.1152 606.643 63.5781 606.416 63.957C606.189 64.3359 605.896 64.625 605.537 64.8242C605.178 65.0195 604.746 65.1172 604.242 65.1172C603.605 65.1172 603.078 64.9434 602.66 64.5957C602.246 64.248 601.936 63.7461 601.729 63.0898C601.525 62.4297 601.424 61.6348 601.424 60.7051C601.424 59.791 601.516 59.0059 601.699 58.3496C601.887 57.6895 602.188 57.1836 602.602 56.832C603.016 56.4766 603.562 56.2988 604.242 56.2988C604.887 56.2988 605.418 56.4746 605.836 56.8262C606.254 57.1738 606.564 57.6777 606.768 58.3379C606.971 58.9941 607.072 59.7832 607.072 60.7051ZM602.402 60.7051C602.402 61.502 602.463 62.166 602.584 62.6973C602.705 63.2285 602.9 63.627 603.17 63.8926C603.443 64.1543 603.801 64.2852 604.242 64.2852C604.684 64.2852 605.039 64.1543 605.309 63.8926C605.582 63.6309 605.779 63.2344 605.9 62.7031C606.025 62.1719 606.088 61.5059 606.088 60.7051C606.088 59.9199 606.027 59.2637 605.906 58.7363C605.785 58.2051 605.59 57.8066 605.32 57.541C605.051 57.2715 604.691 57.1367 604.242 57.1367C603.793 57.1367 603.434 57.2715 603.164 57.541C602.895 57.8066 602.699 58.2051 602.578 58.7363C602.461 59.2637 602.402 59.9199 602.402 60.7051ZM613.893 65H608.279V64.1855L610.57 61.8594C610.996 61.4297 611.354 61.0469 611.643 60.7109C611.936 60.375 612.158 60.0449 612.311 59.7207C612.463 59.3926 612.539 59.0332 612.539 58.6426C612.539 58.1582 612.395 57.7891 612.105 57.5352C611.82 57.2773 611.443 57.1484 610.975 57.1484C610.564 57.1484 610.201 57.2188 609.885 57.3594C609.568 57.5 609.244 57.6992 608.912 57.957L608.391 57.3008C608.617 57.1094 608.863 56.9395 609.129 56.791C609.398 56.6426 609.686 56.5254 609.99 56.4395C610.299 56.3535 610.627 56.3105 610.975 56.3105C611.502 56.3105 611.957 56.4023 612.34 56.5859C612.723 56.7695 613.018 57.0312 613.225 57.3711C613.436 57.7109 613.541 58.1152 613.541 58.584C613.541 59.0371 613.451 59.459 613.271 59.8496C613.092 60.2363 612.84 60.6211 612.516 61.0039C612.191 61.3828 611.812 61.7852 611.379 62.2109L609.516 64.0684V64.1094H613.893V65ZM620.76 65H615.146V64.1855L617.438 61.8594C617.863 61.4297 618.221 61.0469 618.51 60.7109C618.803 60.375 619.025 60.0449 619.178 59.7207C619.33 59.3926 619.406 59.0332 619.406 58.6426C619.406 58.1582 619.262 57.7891 618.973 57.5352C618.688 57.2773 618.311 57.1484 617.842 57.1484C617.432 57.1484 617.068 57.2188 616.752 57.3594C616.436 57.5 616.111 57.6992 615.779 57.957L615.258 57.3008C615.484 57.1094 615.73 56.9395 615.996 56.791C616.266 56.6426 616.553 56.5254 616.857 56.4395C617.166 56.3535 617.494 56.3105 617.842 56.3105C618.369 56.3105 618.824 56.4023 619.207 56.5859C619.59 56.7695 619.885 57.0312 620.092 57.3711C620.303 57.7109 620.408 58.1152 620.408 58.584C620.408 59.0371 620.318 59.459 620.139 59.8496C619.959 60.2363 619.707 60.6211 619.383 61.0039C619.059 61.3828 618.68 61.7852 618.246 62.2109L616.383 64.0684V64.1094H620.76V65ZM627.967 58.4727C628.732 58.4727 629.301 58.6445 629.672 58.9883C630.043 59.332 630.229 59.8809 630.229 60.6348V65H629.52L629.332 64.0508H629.285C629.105 64.2852 628.918 64.4824 628.723 64.6426C628.527 64.7988 628.301 64.918 628.043 65C627.789 65.0781 627.477 65.1172 627.105 65.1172C626.715 65.1172 626.367 65.0488 626.062 64.9121C625.762 64.7754 625.523 64.5684 625.348 64.291C625.176 64.0137 625.09 63.6621 625.09 63.2363C625.09 62.5957 625.344 62.1035 625.852 61.7598C626.359 61.416 627.133 61.2285 628.172 61.1973L629.279 61.1504V60.7578C629.279 60.2031 629.16 59.8145 628.922 59.5918C628.684 59.3691 628.348 59.2578 627.914 59.2578C627.578 59.2578 627.258 59.3066 626.953 59.4043C626.648 59.502 626.359 59.6172 626.086 59.75L625.787 59.0117C626.076 58.8633 626.408 58.7363 626.783 58.6309C627.158 58.5254 627.553 58.4727 627.967 58.4727ZM629.268 61.8359L628.289 61.877C627.488 61.9082 626.924 62.0391 626.596 62.2695C626.268 62.5 626.104 62.8262 626.104 63.248C626.104 63.6152 626.215 63.8867 626.438 64.0625C626.66 64.2383 626.955 64.3262 627.322 64.3262C627.893 64.3262 628.359 64.168 628.723 63.8516C629.086 63.5352 629.268 63.0605 629.268 62.4277V61.8359ZM634.307 64.3203C634.467 64.3203 634.631 64.3066 634.799 64.2793C634.967 64.252 635.104 64.2188 635.209 64.1797V64.9355C635.096 64.9863 634.938 65.0293 634.734 65.0645C634.535 65.0996 634.34 65.1172 634.148 65.1172C633.809 65.1172 633.5 65.0586 633.223 64.9414C632.945 64.8203 632.723 64.6172 632.555 64.332C632.391 64.0469 632.309 63.6523 632.309 63.1484V59.3398H631.395V58.8652L632.314 58.4844L632.701 57.0898H633.287V58.5781H635.168V59.3398H633.287V63.1191C633.287 63.5215 633.379 63.8223 633.562 64.0215C633.75 64.2207 633.998 64.3203 634.307 64.3203ZM642.814 65H641.865V58.9297C641.865 58.6992 641.865 58.502 641.865 58.3379C641.869 58.1699 641.873 58.0176 641.877 57.8809C641.885 57.7402 641.895 57.5977 641.906 57.4531C641.785 57.5781 641.672 57.6855 641.566 57.7754C641.461 57.8613 641.33 57.9688 641.174 58.0977L640.195 58.8828L639.686 58.2207L642.006 56.4336H642.814V65ZM649.682 65H648.732V58.9297C648.732 58.6992 648.732 58.502 648.732 58.3379C648.736 58.1699 648.74 58.0176 648.744 57.8809C648.752 57.7402 648.762 57.5977 648.773 57.4531C648.652 57.5781 648.539 57.6855 648.434 57.7754C648.328 57.8613 648.197 57.9688 648.041 58.0977L647.062 58.8828L646.553 58.2207L648.873 56.4336H649.682V65ZM653.215 64.3906C653.215 64.1172 653.281 63.9238 653.414 63.8105C653.547 63.6934 653.709 63.6348 653.9 63.6348C654.1 63.6348 654.268 63.6934 654.404 63.8105C654.541 63.9238 654.609 64.1172 654.609 64.3906C654.609 64.6602 654.541 64.8574 654.404 64.9824C654.268 65.1035 654.1 65.1641 653.9 65.1641C653.709 65.1641 653.547 65.1035 653.414 64.9824C653.281 64.8574 653.215 64.6602 653.215 64.3906ZM653.215 59.1934C653.215 58.9121 653.281 58.7148 653.414 58.6016C653.547 58.4844 653.709 58.4258 653.9 58.4258C654.1 58.4258 654.268 58.4844 654.404 58.6016C654.541 58.7148 654.609 58.9121 654.609 59.1934C654.609 59.459 654.541 59.6523 654.404 59.7734C654.268 59.8945 654.1 59.9551 653.9 59.9551C653.709 59.9551 653.547 59.8945 653.414 59.7734C653.281 59.6523 653.215 59.459 653.215 59.1934ZM661.74 60.7051C661.74 61.4004 661.688 62.0215 661.582 62.5684C661.477 63.1152 661.311 63.5781 661.084 63.957C660.857 64.3359 660.564 64.625 660.205 64.8242C659.846 65.0195 659.414 65.1172 658.91 65.1172C658.273 65.1172 657.746 64.9434 657.328 64.5957C656.914 64.248 656.604 63.7461 656.396 63.0898C656.193 62.4297 656.092 61.6348 656.092 60.7051C656.092 59.791 656.184 59.0059 656.367 58.3496C656.555 57.6895 656.855 57.1836 657.27 56.832C657.684 56.4766 658.23 56.2988 658.91 56.2988C659.555 56.2988 660.086 56.4746 660.504 56.8262C660.922 57.1738 661.232 57.6777 661.436 58.3379C661.639 58.9941 661.74 59.7832 661.74 60.7051ZM657.07 60.7051C657.07 61.502 657.131 62.166 657.252 62.6973C657.373 63.2285 657.568 63.627 657.838 63.8926C658.111 64.1543 658.469 64.2852 658.91 64.2852C659.352 64.2852 659.707 64.1543 659.977 63.8926C660.25 63.6309 660.447 63.2344 660.568 62.7031C660.693 62.1719 660.756 61.5059 660.756 60.7051C660.756 59.9199 660.695 59.2637 660.574 58.7363C660.453 58.2051 660.258 57.8066 659.988 57.541C659.719 57.2715 659.359 57.1367 658.91 57.1367C658.461 57.1367 658.102 57.2715 657.832 57.541C657.562 57.8066 657.367 58.2051 657.246 58.7363C657.129 59.2637 657.07 59.9199 657.07 60.7051ZM668.607 60.7051C668.607 61.4004 668.555 62.0215 668.449 62.5684C668.344 63.1152 668.178 63.5781 667.951 63.957C667.725 64.3359 667.432 64.625 667.072 64.8242C666.713 65.0195 666.281 65.1172 665.777 65.1172C665.141 65.1172 664.613 64.9434 664.195 64.5957C663.781 64.248 663.471 63.7461 663.264 63.0898C663.061 62.4297 662.959 61.6348 662.959 60.7051C662.959 59.791 663.051 59.0059 663.234 58.3496C663.422 57.6895 663.723 57.1836 664.137 56.832C664.551 56.4766 665.098 56.2988 665.777 56.2988C666.422 56.2988 666.953 56.4746 667.371 56.8262C667.789 57.1738 668.1 57.6777 668.303 58.3379C668.506 58.9941 668.607 59.7832 668.607 60.7051ZM663.938 60.7051C663.938 61.502 663.998 62.166 664.119 62.6973C664.24 63.2285 664.436 63.627 664.705 63.8926C664.979 64.1543 665.336 64.2852 665.777 64.2852C666.219 64.2852 666.574 64.1543 666.844 63.8926C667.117 63.6309 667.314 63.2344 667.436 62.7031C667.561 62.1719 667.623 61.5059 667.623 60.7051C667.623 59.9199 667.562 59.2637 667.441 58.7363C667.32 58.2051 667.125 57.8066 666.855 57.541C666.586 57.2715 666.227 57.1367 665.777 57.1367C665.328 57.1367 664.969 57.2715 664.699 57.541C664.43 57.8066 664.234 58.2051 664.113 58.7363C663.996 59.2637 663.938 59.9199 663.938 60.7051ZM672.65 58.4727C673.416 58.4727 673.984 58.6445 674.355 58.9883C674.727 59.332 674.912 59.8809 674.912 60.6348V65H674.203L674.016 64.0508H673.969C673.789 64.2852 673.602 64.4824 673.406 64.6426C673.211 64.7988 672.984 64.918 672.727 65C672.473 65.0781 672.16 65.1172 671.789 65.1172C671.398 65.1172 671.051 65.0488 670.746 64.9121C670.445 64.7754 670.207 64.5684 670.031 64.291C669.859 64.0137 669.773 63.6621 669.773 63.2363C669.773 62.5957 670.027 62.1035 670.535 61.7598C671.043 61.416 671.816 61.2285 672.855 61.1973L673.963 61.1504V60.7578C673.963 60.2031 673.844 59.8145 673.605 59.5918C673.367 59.3691 673.031 59.2578 672.598 59.2578C672.262 59.2578 671.941 59.3066 671.637 59.4043C671.332 59.502 671.043 59.6172 670.77 59.75L670.471 59.0117C670.76 58.8633 671.092 58.7363 671.467 58.6309C671.842 58.5254 672.236 58.4727 672.65 58.4727ZM673.951 61.8359L672.973 61.877C672.172 61.9082 671.607 62.0391 671.279 62.2695C670.951 62.5 670.787 62.8262 670.787 63.248C670.787 63.6152 670.898 63.8867 671.121 64.0625C671.344 64.2383 671.639 64.3262 672.006 64.3262C672.576 64.3262 673.043 64.168 673.406 63.8516C673.77 63.5352 673.951 63.0605 673.951 62.4277V61.8359ZM683.889 58.4609C684.596 58.4609 685.129 58.6465 685.488 59.0176C685.848 59.3848 686.027 59.9766 686.027 60.793V65H685.066V60.8398C685.066 60.3203 684.953 59.9316 684.727 59.6738C684.504 59.4121 684.172 59.2812 683.73 59.2812C683.109 59.2812 682.658 59.4609 682.377 59.8203C682.096 60.1797 681.955 60.709 681.955 61.4082V65H680.988V60.8398C680.988 60.4922 680.938 60.2031 680.836 59.9727C680.738 59.7422 680.59 59.5703 680.391 59.457C680.195 59.3398 679.947 59.2812 679.646 59.2812C679.221 59.2812 678.879 59.3691 678.621 59.5449C678.363 59.7207 678.176 59.9824 678.059 60.3301C677.945 60.6738 677.889 61.0977 677.889 61.6016V65H676.916V58.5781H677.701L677.848 59.4863H677.9C678.029 59.2637 678.191 59.0762 678.387 58.9238C678.582 58.7715 678.801 58.6562 679.043 58.5781C679.285 58.5 679.543 58.4609 679.816 58.4609C680.305 58.4609 680.713 58.5527 681.041 58.7363C681.373 58.916 681.613 59.1914 681.762 59.5625H681.814C682.025 59.1914 682.314 58.916 682.682 58.7363C683.049 58.5527 683.451 58.4609 683.889 58.4609Z" fill="#61656E"/>
<rect width="486" height="1" transform="matrix(1 0 0 -1 201 77)" fill="black" fill-opacity="0.4"/>
</svg>
