<svg width="327" height="300" viewBox="0 0 327 300" fill="none" xmlns="http://www.w3.org/2000/svg">
<rect width="327" height="300" fill="#EAEDEF"/>
<rect width="279" height="44" transform="translate(24 128)" fill="white"/>
<path d="M38.5581 136.147L35.7383 144H34.8198L32 136.147H32.9561L34.793 141.32C34.8682 141.528 34.9344 141.726 34.9917 141.916C35.0526 142.106 35.1063 142.288 35.1528 142.464C35.1994 142.639 35.2406 142.809 35.2764 142.974C35.3122 142.809 35.3534 142.639 35.3999 142.464C35.4465 142.285 35.5002 142.1 35.561 141.911C35.6219 141.717 35.6899 141.515 35.7651 141.304L37.5913 136.147H38.5581ZM41.7056 138.017C42.4074 138.017 42.9284 138.174 43.2686 138.489C43.6087 138.804 43.7788 139.307 43.7788 139.999V144H43.1289L42.957 143.13H42.9141C42.7493 143.345 42.5775 143.526 42.3984 143.672C42.2194 143.816 42.0117 143.925 41.7754 144C41.5426 144.072 41.2562 144.107 40.916 144.107C40.5579 144.107 40.2393 144.045 39.96 143.919C39.6842 143.794 39.4658 143.604 39.3047 143.35C39.1471 143.096 39.0684 142.774 39.0684 142.383C39.0684 141.796 39.3011 141.345 39.7666 141.03C40.2321 140.715 40.9411 140.543 41.8936 140.514L42.9087 140.471V140.111C42.9087 139.603 42.7995 139.247 42.5811 139.042C42.3626 138.838 42.0547 138.736 41.6572 138.736C41.3493 138.736 41.0557 138.781 40.7764 138.871C40.4971 138.96 40.2321 139.066 39.9814 139.188L39.7075 138.511C39.9725 138.375 40.2769 138.258 40.6206 138.162C40.9644 138.065 41.326 138.017 41.7056 138.017ZM42.8979 141.1L42.001 141.137C41.2669 141.166 40.7495 141.286 40.4487 141.497C40.1479 141.708 39.9976 142.007 39.9976 142.394C39.9976 142.731 40.0996 142.979 40.3037 143.141C40.5078 143.302 40.7782 143.382 41.1147 143.382C41.6375 143.382 42.0654 143.237 42.3984 142.947C42.7314 142.657 42.8979 142.222 42.8979 141.642V141.1ZM46.5127 144H45.6157V135.643H46.5127V144ZM53.2588 138.113V144H52.5283L52.3994 143.173H52.3511C52.2293 143.377 52.0718 143.549 51.8784 143.688C51.6851 143.828 51.4666 143.932 51.2231 144C50.9832 144.072 50.7272 144.107 50.4551 144.107C49.9896 144.107 49.5993 144.032 49.2842 143.882C48.9691 143.731 48.731 143.499 48.5698 143.184C48.4123 142.868 48.3335 142.464 48.3335 141.97V138.113H49.2358V141.905C49.2358 142.396 49.3468 142.763 49.5688 143.006C49.7909 143.246 50.1292 143.366 50.584 143.366C51.0208 143.366 51.3682 143.284 51.626 143.119C51.8874 142.954 52.0754 142.713 52.1899 142.394C52.3045 142.072 52.3618 141.678 52.3618 141.212V138.113H53.2588ZM57.4106 138.006C57.9119 138.006 58.3416 138.117 58.6997 138.339C59.0578 138.561 59.3317 138.872 59.5215 139.273C59.7113 139.671 59.8062 140.136 59.8062 140.67V141.223H55.7402C55.751 141.914 55.9229 142.441 56.2559 142.802C56.5889 143.164 57.0579 143.345 57.6631 143.345C58.0355 143.345 58.3649 143.311 58.6514 143.243C58.9378 143.175 59.235 143.074 59.543 142.942V143.726C59.2458 143.859 58.9504 143.955 58.6567 144.016C58.3667 144.077 58.0229 144.107 57.6255 144.107C57.0597 144.107 56.5656 143.993 56.1431 143.764C55.7241 143.531 55.3983 143.191 55.1655 142.743C54.9328 142.296 54.8164 141.748 54.8164 141.1C54.8164 140.466 54.922 139.918 55.1333 139.456C55.3481 138.991 55.6489 138.632 56.0356 138.382C56.4259 138.131 56.8843 138.006 57.4106 138.006ZM57.3999 138.736C56.9237 138.736 56.5441 138.892 56.2612 139.204C55.9784 139.515 55.8101 139.95 55.7563 140.509H58.8716C58.868 140.158 58.8125 139.85 58.7051 139.585C58.6012 139.316 58.4419 139.109 58.2271 138.962C58.0122 138.812 57.7365 138.736 57.3999 138.736ZM66.2729 144.107C65.5282 144.107 64.9373 143.853 64.5005 143.345C64.0672 142.836 63.8506 142.081 63.8506 141.078C63.8506 140.065 64.0726 139.3 64.5166 138.785C64.9606 138.265 65.5514 138.006 66.2891 138.006C66.6006 138.006 66.8727 138.047 67.1055 138.129C67.3382 138.212 67.5387 138.323 67.707 138.462C67.8753 138.598 68.0168 138.754 68.1313 138.93H68.1958C68.1815 138.819 68.1672 138.667 68.1528 138.473C68.1385 138.28 68.1313 138.122 68.1313 138V135.643H69.0229V144H68.3032L68.1689 143.162H68.1313C68.0203 143.338 67.8789 143.497 67.707 143.64C67.5387 143.783 67.3364 143.898 67.1001 143.984C66.8674 144.066 66.5916 144.107 66.2729 144.107ZM66.4126 143.366C67.0428 143.366 67.4886 143.187 67.75 142.829C68.0114 142.471 68.1421 141.939 68.1421 141.234V141.073C68.1421 140.324 68.0168 139.75 67.7661 139.349C67.519 138.948 67.0679 138.747 66.4126 138.747C65.8647 138.747 65.4548 138.958 65.1826 139.381C64.9105 139.8 64.7744 140.373 64.7744 141.1C64.7744 141.823 64.9087 142.382 65.1772 142.775C65.4494 143.169 65.8612 143.366 66.4126 143.366ZM73.1157 138.017C73.8175 138.017 74.3385 138.174 74.6787 138.489C75.0189 138.804 75.189 139.307 75.189 139.999V144H74.5391L74.3672 143.13H74.3242C74.1595 143.345 73.9876 143.526 73.8086 143.672C73.6296 143.816 73.4219 143.925 73.1855 144C72.9528 144.072 72.6663 144.107 72.3262 144.107C71.9681 144.107 71.6494 144.045 71.3701 143.919C71.0944 143.794 70.876 143.604 70.7148 143.35C70.5573 143.096 70.4785 142.774 70.4785 142.383C70.4785 141.796 70.7113 141.345 71.1768 141.03C71.6423 140.715 72.3512 140.543 73.3037 140.514L74.3188 140.471V140.111C74.3188 139.603 74.2096 139.247 73.9912 139.042C73.7728 138.838 73.4648 138.736 73.0674 138.736C72.7594 138.736 72.4658 138.781 72.1865 138.871C71.9072 138.96 71.6423 139.066 71.3916 139.188L71.1177 138.511C71.3826 138.375 71.687 138.258 72.0308 138.162C72.3745 138.065 72.7362 138.017 73.1157 138.017ZM74.3081 141.1L73.4111 141.137C72.6771 141.166 72.1597 141.286 71.8589 141.497C71.5581 141.708 71.4077 142.007 71.4077 142.394C71.4077 142.731 71.5098 142.979 71.7139 143.141C71.918 143.302 72.1883 143.382 72.5249 143.382C73.0477 143.382 73.4756 143.237 73.8086 142.947C74.1416 142.657 74.3081 142.222 74.3081 141.642V141.1ZM78.9272 143.377C79.0741 143.377 79.2244 143.364 79.3784 143.339C79.5324 143.314 79.6577 143.284 79.7544 143.248V143.941C79.6506 143.987 79.5055 144.027 79.3193 144.059C79.1367 144.091 78.9577 144.107 78.7822 144.107C78.4707 144.107 78.1878 144.054 77.9336 143.946C77.6794 143.835 77.4753 143.649 77.3213 143.388C77.1709 143.126 77.0957 142.765 77.0957 142.303V138.812H76.2578V138.376L77.1011 138.027L77.4556 136.749H77.9927V138.113H79.7168V138.812H77.9927V142.276C77.9927 142.645 78.0768 142.92 78.2451 143.103C78.417 143.286 78.6444 143.377 78.9272 143.377ZM83.2134 138.006C83.7147 138.006 84.1444 138.117 84.5024 138.339C84.8605 138.561 85.1344 138.872 85.3242 139.273C85.514 139.671 85.6089 140.136 85.6089 140.67V141.223H81.543C81.5537 141.914 81.7256 142.441 82.0586 142.802C82.3916 143.164 82.8607 143.345 83.4658 143.345C83.8382 143.345 84.1676 143.311 84.4541 143.243C84.7406 143.175 85.0378 143.074 85.3457 142.942V143.726C85.0485 143.859 84.7531 143.955 84.4595 144.016C84.1694 144.077 83.8257 144.107 83.4282 144.107C82.8625 144.107 82.3683 143.993 81.9458 143.764C81.5269 143.531 81.201 143.191 80.9683 142.743C80.7355 142.296 80.6191 141.748 80.6191 141.1C80.6191 140.466 80.7248 139.918 80.936 139.456C81.1509 138.991 81.4517 138.632 81.8384 138.382C82.2287 138.131 82.687 138.006 83.2134 138.006ZM83.2026 138.736C82.7264 138.736 82.3468 138.892 82.064 139.204C81.7811 139.515 81.6128 139.95 81.5591 140.509H84.6743C84.6707 140.158 84.6152 139.85 84.5078 139.585C84.404 139.316 84.2446 139.109 84.0298 138.962C83.8149 138.812 83.5392 138.736 83.2026 138.736Z" fill="#61656E"/>
<g clip-path="url(#clip0_2296_295514)">
<path d="M40.6016 158.705C40.6016 159.365 40.5176 159.967 40.3496 160.51C40.1816 161.049 39.9316 161.514 39.5996 161.904C39.2715 162.291 38.8633 162.59 38.375 162.801C37.8867 163.012 37.3203 163.117 36.6758 163.117C36.0117 163.117 35.4316 163.012 34.9355 162.801C34.4434 162.59 34.0332 162.289 33.7051 161.898C33.3809 161.508 33.1367 161.041 32.9727 160.498C32.8125 159.955 32.7324 159.354 32.7324 158.693C32.7324 157.818 32.877 157.051 33.166 156.391C33.4551 155.73 33.8926 155.217 34.4785 154.85C35.0684 154.482 35.8066 154.299 36.6934 154.299C37.541 154.299 38.2539 154.48 38.832 154.844C39.4141 155.207 39.8535 155.719 40.1504 156.379C40.4512 157.035 40.6016 157.811 40.6016 158.705ZM33.7812 158.705C33.7812 159.432 33.8848 160.061 34.0918 160.592C34.2988 161.123 34.6152 161.533 35.041 161.822C35.4707 162.111 36.0156 162.256 36.6758 162.256C37.3398 162.256 37.8828 162.111 38.3047 161.822C38.7305 161.533 39.0449 161.123 39.248 160.592C39.4512 160.061 39.5527 159.432 39.5527 158.705C39.5527 157.6 39.3203 156.736 38.8555 156.115C38.3945 155.49 37.6738 155.178 36.6934 155.178C36.0293 155.178 35.4824 155.32 35.0527 155.605C34.623 155.891 34.3027 156.297 34.0918 156.824C33.8848 157.348 33.7812 157.975 33.7812 158.705ZM44.9375 163.117C44.3594 163.117 43.8496 162.998 43.4082 162.76C42.9668 162.521 42.623 162.158 42.377 161.67C42.1309 161.182 42.0078 160.566 42.0078 159.824C42.0078 159.047 42.1367 158.412 42.3945 157.92C42.6562 157.424 43.0156 157.057 43.4727 156.818C43.9297 156.58 44.4492 156.461 45.0312 156.461C45.3516 156.461 45.6602 156.494 45.957 156.561C46.2578 156.623 46.5039 156.703 46.6953 156.801L46.4023 157.615C46.207 157.537 45.9805 157.467 45.7227 157.404C45.4688 157.342 45.2305 157.311 45.0078 157.311C44.5625 157.311 44.1914 157.406 43.8945 157.598C43.6016 157.789 43.3809 158.07 43.2324 158.441C43.0879 158.812 43.0156 159.27 43.0156 159.812C43.0156 160.332 43.0859 160.775 43.2266 161.143C43.3711 161.51 43.584 161.791 43.8652 161.986C44.1504 162.178 44.5059 162.273 44.9316 162.273C45.2715 162.273 45.5781 162.238 45.8516 162.168C46.125 162.094 46.373 162.008 46.5957 161.91V162.777C46.3809 162.887 46.1406 162.971 45.875 163.029C45.6133 163.088 45.3008 163.117 44.9375 163.117ZM50.1934 162.32C50.3535 162.32 50.5176 162.307 50.6855 162.279C50.8535 162.252 50.9902 162.219 51.0957 162.18V162.936C50.9824 162.986 50.8242 163.029 50.6211 163.064C50.4219 163.1 50.2266 163.117 50.0352 163.117C49.6953 163.117 49.3867 163.059 49.1094 162.941C48.832 162.82 48.6094 162.617 48.4414 162.332C48.2773 162.047 48.1953 161.652 48.1953 161.148V157.34H47.2812V156.865L48.2012 156.484L48.5879 155.09H49.1738V156.578H51.0547V157.34H49.1738V161.119C49.1738 161.521 49.2656 161.822 49.4492 162.021C49.6367 162.221 49.8848 162.32 50.1934 162.32ZM58.7012 163H57.752V156.93C57.752 156.699 57.752 156.502 57.752 156.338C57.7559 156.17 57.7598 156.018 57.7637 155.881C57.7715 155.74 57.7812 155.598 57.793 155.453C57.6719 155.578 57.5586 155.686 57.4531 155.775C57.3477 155.861 57.2168 155.969 57.0605 156.098L56.082 156.883L55.5723 156.221L57.8926 154.434H58.7012V163ZM67.2441 156.432C67.2441 156.814 67.1699 157.146 67.0215 157.428C66.873 157.709 66.666 157.939 66.4004 158.119C66.1348 158.295 65.8223 158.418 65.4629 158.488V158.535C66.1426 158.621 66.6523 158.84 66.9922 159.191C67.3359 159.543 67.5078 160.004 67.5078 160.574C67.5078 161.07 67.3906 161.51 67.1562 161.893C66.9258 162.275 66.5703 162.576 66.0898 162.795C65.6133 163.01 65.002 163.117 64.2559 163.117C63.8027 163.117 63.3828 163.08 62.9961 163.006C62.6133 162.936 62.2461 162.816 61.8945 162.648V161.734C62.25 161.91 62.6367 162.049 63.0547 162.15C63.4727 162.248 63.877 162.297 64.2676 162.297C65.0488 162.297 65.6133 162.143 65.9609 161.834C66.3086 161.521 66.4824 161.096 66.4824 160.557C66.4824 160.186 66.3848 159.887 66.1895 159.66C65.998 159.43 65.7207 159.262 65.3574 159.156C64.998 159.047 64.5645 158.992 64.0566 158.992H63.2012V158.16H64.0625C64.5273 158.16 64.9219 158.092 65.2461 157.955C65.5703 157.818 65.8164 157.627 65.9844 157.381C66.1562 157.131 66.2422 156.836 66.2422 156.496C66.2422 156.062 66.0977 155.729 65.8086 155.494C65.5195 155.256 65.127 155.137 64.6309 155.137C64.3262 155.137 64.0488 155.168 63.7988 155.23C63.5488 155.293 63.3145 155.379 63.0957 155.488C62.877 155.598 62.6582 155.725 62.4395 155.869L61.9473 155.201C62.2598 154.959 62.6406 154.75 63.0898 154.574C63.5391 154.398 64.0488 154.311 64.6191 154.311C65.4941 154.311 66.1504 154.51 66.5879 154.908C67.0254 155.307 67.2441 155.814 67.2441 156.432ZM77.5449 163H71.9316V162.186L74.2227 159.859C74.6484 159.43 75.0059 159.047 75.2949 158.711C75.5879 158.375 75.8105 158.045 75.9629 157.721C76.1152 157.393 76.1914 157.033 76.1914 156.643C76.1914 156.158 76.0469 155.789 75.7578 155.535C75.4727 155.277 75.0957 155.148 74.627 155.148C74.2168 155.148 73.8535 155.219 73.5371 155.359C73.2207 155.5 72.8965 155.699 72.5645 155.957L72.043 155.301C72.2695 155.109 72.5156 154.939 72.7812 154.791C73.0508 154.643 73.3379 154.525 73.6426 154.439C73.9512 154.354 74.2793 154.311 74.627 154.311C75.1543 154.311 75.6094 154.402 75.9922 154.586C76.375 154.77 76.6699 155.031 76.877 155.371C77.0879 155.711 77.1934 156.115 77.1934 156.584C77.1934 157.037 77.1035 157.459 76.9238 157.85C76.7441 158.236 76.4922 158.621 76.168 159.004C75.8438 159.383 75.4648 159.785 75.0312 160.211L73.168 162.068V162.109H77.5449V163ZM84.459 158.705C84.459 159.4 84.4062 160.021 84.3008 160.568C84.1953 161.115 84.0293 161.578 83.8027 161.957C83.5762 162.336 83.2832 162.625 82.9238 162.824C82.5645 163.02 82.1328 163.117 81.6289 163.117C80.9922 163.117 80.4648 162.943 80.0469 162.596C79.6328 162.248 79.3223 161.746 79.1152 161.09C78.9121 160.43 78.8105 159.635 78.8105 158.705C78.8105 157.791 78.9023 157.006 79.0859 156.35C79.2734 155.689 79.5742 155.184 79.9883 154.832C80.4023 154.477 80.9492 154.299 81.6289 154.299C82.2734 154.299 82.8047 154.475 83.2227 154.826C83.6406 155.174 83.9512 155.678 84.1543 156.338C84.3574 156.994 84.459 157.783 84.459 158.705ZM79.7891 158.705C79.7891 159.502 79.8496 160.166 79.9707 160.697C80.0918 161.229 80.2871 161.627 80.5566 161.893C80.8301 162.154 81.1875 162.285 81.6289 162.285C82.0703 162.285 82.4258 162.154 82.6953 161.893C82.9688 161.631 83.166 161.234 83.2871 160.703C83.4121 160.172 83.4746 159.506 83.4746 158.705C83.4746 157.92 83.4141 157.264 83.293 156.736C83.1719 156.205 82.9766 155.807 82.707 155.541C82.4375 155.271 82.0781 155.137 81.6289 155.137C81.1797 155.137 80.8203 155.271 80.5508 155.541C80.2812 155.807 80.0859 156.205 79.9648 156.736C79.8477 157.264 79.7891 157.92 79.7891 158.705ZM91.2793 163H85.666V162.186L87.957 159.859C88.3828 159.43 88.7402 159.047 89.0293 158.711C89.3223 158.375 89.5449 158.045 89.6973 157.721C89.8496 157.393 89.9258 157.033 89.9258 156.643C89.9258 156.158 89.7812 155.789 89.4922 155.535C89.207 155.277 88.8301 155.148 88.3613 155.148C87.9512 155.148 87.5879 155.219 87.2715 155.359C86.9551 155.5 86.6309 155.699 86.2988 155.957L85.7773 155.301C86.0039 155.109 86.25 154.939 86.5156 154.791C86.7852 154.643 87.0723 154.525 87.377 154.439C87.6855 154.354 88.0137 154.311 88.3613 154.311C88.8887 154.311 89.3438 154.402 89.7266 154.586C90.1094 154.77 90.4043 155.031 90.6113 155.371C90.8223 155.711 90.9277 156.115 90.9277 156.584C90.9277 157.037 90.8379 157.459 90.6582 157.85C90.4785 158.236 90.2266 158.621 89.9023 159.004C89.5781 159.383 89.1992 159.785 88.7656 160.211L86.9023 162.068V162.109H91.2793V163ZM97.8301 156.432C97.8301 156.814 97.7559 157.146 97.6074 157.428C97.459 157.709 97.252 157.939 96.9863 158.119C96.7207 158.295 96.4082 158.418 96.0488 158.488V158.535C96.7285 158.621 97.2383 158.84 97.5781 159.191C97.9219 159.543 98.0938 160.004 98.0938 160.574C98.0938 161.07 97.9766 161.51 97.7422 161.893C97.5117 162.275 97.1562 162.576 96.6758 162.795C96.1992 163.01 95.5879 163.117 94.8418 163.117C94.3887 163.117 93.9688 163.08 93.582 163.006C93.1992 162.936 92.832 162.816 92.4805 162.648V161.734C92.8359 161.91 93.2227 162.049 93.6406 162.15C94.0586 162.248 94.4629 162.297 94.8535 162.297C95.6348 162.297 96.1992 162.143 96.5469 161.834C96.8945 161.521 97.0684 161.096 97.0684 160.557C97.0684 160.186 96.9707 159.887 96.7754 159.66C96.584 159.43 96.3066 159.262 95.9434 159.156C95.584 159.047 95.1504 158.992 94.6426 158.992H93.7871V158.16H94.6484C95.1133 158.16 95.5078 158.092 95.832 157.955C96.1562 157.818 96.4023 157.627 96.5703 157.381C96.7422 157.131 96.8281 156.836 96.8281 156.496C96.8281 156.062 96.6836 155.729 96.3945 155.494C96.1055 155.256 95.7129 155.137 95.2168 155.137C94.9121 155.137 94.6348 155.168 94.3848 155.23C94.1348 155.293 93.9004 155.379 93.6816 155.488C93.4629 155.598 93.2441 155.725 93.0254 155.869L92.5332 155.201C92.8457 154.959 93.2266 154.75 93.6758 154.574C94.125 154.398 94.6348 154.311 95.2051 154.311C96.0801 154.311 96.7363 154.51 97.1738 154.908C97.6113 155.307 97.8301 155.814 97.8301 156.432Z" fill="#161616"/>
<g clip-path="url(#clip1_2296_295514)">
<path d="M284.406 152.348L289 156.941L293.594 152.348L294.66 153.402L290.066 157.996L294.66 162.602L293.594 163.656L289 159.062L284.406 163.656L283.352 162.602L287.945 157.996L283.352 153.402L284.406 152.348Z" fill="#4C505B"/>
</g>
</g>
<path d="M24 171H303V172H24V171Z" fill="#C5C9D0"/>
<defs>
<clipPath id="clip0_2296_295514">
<rect width="279" height="27" fill="white" transform="translate(24 144)"/>
</clipPath>
<clipPath id="clip1_2296_295514">
<rect width="24" height="24" fill="white" transform="translate(277 146)"/>
</clipPath>
</defs>
</svg>
