<svg width="784" height="158" viewBox="0 0 784 158" fill="none" xmlns="http://www.w3.org/2000/svg">
<rect width="784" height="158" fill="white"/>
<path d="M246.91 56.4336C248.016 56.4336 248.822 56.6504 249.33 57.084C249.842 57.5137 250.098 58.1309 250.098 58.9355C250.098 59.2988 250.037 59.6445 249.916 59.9727C249.799 60.2969 249.607 60.584 249.342 60.834C249.076 61.0801 248.727 61.2754 248.293 61.4199C247.863 61.5605 247.336 61.6309 246.711 61.6309H245.668V65H244.672V56.4336H246.91ZM246.816 57.2832H245.668V60.7754H246.6C247.146 60.7754 247.602 60.7168 247.965 60.5996C248.332 60.4824 248.607 60.293 248.791 60.0312C248.975 59.7656 249.066 59.4141 249.066 58.9766C249.066 58.4062 248.885 57.9824 248.521 57.7051C248.158 57.4238 247.59 57.2832 246.816 57.2832ZM254.217 58.4609C254.764 58.4609 255.232 58.582 255.623 58.8242C256.014 59.0664 256.312 59.4062 256.52 59.8438C256.727 60.2773 256.83 60.7852 256.83 61.3672V61.9707H252.395C252.406 62.7246 252.594 63.2988 252.957 63.6934C253.32 64.0879 253.832 64.2852 254.492 64.2852C254.898 64.2852 255.258 64.248 255.57 64.1738C255.883 64.0996 256.207 63.9902 256.543 63.8457V64.7012C256.219 64.8457 255.896 64.9512 255.576 65.0176C255.26 65.084 254.885 65.1172 254.451 65.1172C253.834 65.1172 253.295 64.9922 252.834 64.7422C252.377 64.4883 252.021 64.1172 251.768 63.6289C251.514 63.1406 251.387 62.543 251.387 61.8359C251.387 61.1445 251.502 60.5469 251.732 60.043C251.967 59.5352 252.295 59.1445 252.717 58.8711C253.143 58.5977 253.643 58.4609 254.217 58.4609ZM254.205 59.2578C253.686 59.2578 253.271 59.4277 252.963 59.7676C252.654 60.1074 252.471 60.582 252.412 61.1914H255.811C255.807 60.8086 255.746 60.4727 255.629 60.1836C255.516 59.8906 255.342 59.6641 255.107 59.5039C254.873 59.3398 254.572 59.2578 254.205 59.2578ZM261.523 58.4609C262.285 58.4609 262.861 58.6484 263.252 59.0234C263.643 59.3945 263.838 59.9922 263.838 60.8164V65H262.877V60.8809C262.877 60.3457 262.754 59.9453 262.508 59.6797C262.266 59.4141 261.893 59.2812 261.389 59.2812C260.678 59.2812 260.178 59.4824 259.889 59.8848C259.6 60.2871 259.455 60.8711 259.455 61.6367V65H258.482V58.5781H259.268L259.414 59.5039H259.467C259.604 59.2773 259.777 59.0879 259.988 58.9355C260.199 58.7793 260.436 58.6621 260.697 58.584C260.959 58.502 261.234 58.4609 261.523 58.4609ZM268.127 65.1172C267.314 65.1172 266.67 64.8398 266.193 64.2852C265.721 63.7305 265.484 62.9062 265.484 61.8125C265.484 60.707 265.727 59.873 266.211 59.3105C266.695 58.7441 267.34 58.4609 268.145 58.4609C268.484 58.4609 268.781 58.5059 269.035 58.5957C269.289 58.6855 269.508 58.8066 269.691 58.959C269.875 59.1074 270.029 59.2773 270.154 59.4688H270.225C270.209 59.3477 270.193 59.1816 270.178 58.9707C270.162 58.7598 270.154 58.5879 270.154 58.4551V55.8828H271.127V65H270.342L270.195 64.0859H270.154C270.033 64.2773 269.879 64.4512 269.691 64.6074C269.508 64.7637 269.287 64.8887 269.029 64.9824C268.775 65.0723 268.475 65.1172 268.127 65.1172ZM268.279 64.3086C268.967 64.3086 269.453 64.1133 269.738 63.7227C270.023 63.332 270.166 62.752 270.166 61.9824V61.8066C270.166 60.9902 270.029 60.3633 269.756 59.9258C269.486 59.4883 268.994 59.2695 268.279 59.2695C267.682 59.2695 267.234 59.5 266.938 59.9609C266.641 60.418 266.492 61.043 266.492 61.8359C266.492 62.625 266.639 63.2344 266.932 63.6641C267.229 64.0938 267.678 64.3086 268.279 64.3086ZM274.162 58.5781V65H273.189V58.5781H274.162ZM273.688 56.1758C273.848 56.1758 273.984 56.2285 274.098 56.334C274.215 56.4355 274.273 56.5957 274.273 56.8145C274.273 57.0293 274.215 57.1895 274.098 57.2949C273.984 57.4004 273.848 57.4531 273.688 57.4531C273.52 57.4531 273.379 57.4004 273.266 57.2949C273.156 57.1895 273.102 57.0293 273.102 56.8145C273.102 56.5957 273.156 56.4355 273.266 56.334C273.379 56.2285 273.52 56.1758 273.688 56.1758ZM279.266 58.4609C280.027 58.4609 280.604 58.6484 280.994 59.0234C281.385 59.3945 281.58 59.9922 281.58 60.8164V65H280.619V60.8809C280.619 60.3457 280.496 59.9453 280.25 59.6797C280.008 59.4141 279.635 59.2812 279.131 59.2812C278.42 59.2812 277.92 59.4824 277.631 59.8848C277.342 60.2871 277.197 60.8711 277.197 61.6367V65H276.225V58.5781H277.01L277.156 59.5039H277.209C277.346 59.2773 277.52 59.0879 277.73 58.9355C277.941 58.7793 278.178 58.6621 278.439 58.584C278.701 58.502 278.977 58.4609 279.266 58.4609ZM285.377 67.8828C284.533 67.8828 283.883 67.7246 283.426 67.4082C282.969 67.0957 282.74 66.6562 282.74 66.0898C282.74 65.6875 282.867 65.3438 283.121 65.0586C283.379 64.7734 283.734 64.584 284.188 64.4902C284.02 64.4121 283.875 64.2949 283.754 64.1387C283.637 63.9824 283.578 63.8027 283.578 63.5996C283.578 63.3652 283.643 63.1602 283.771 62.9844C283.904 62.8047 284.105 62.6328 284.375 62.4688C284.039 62.332 283.766 62.1016 283.555 61.7773C283.348 61.4492 283.244 61.0684 283.244 60.6348C283.244 60.1738 283.34 59.7812 283.531 59.457C283.723 59.1289 284 58.8789 284.363 58.707C284.727 58.5352 285.166 58.4492 285.682 58.4492C285.795 58.4492 285.908 58.4551 286.021 58.4668C286.139 58.4746 286.25 58.4883 286.355 58.5078C286.461 58.5234 286.553 58.543 286.631 58.5664H288.834V59.1934L287.65 59.3398C287.768 59.4922 287.865 59.6758 287.943 59.8906C288.021 60.1055 288.061 60.3438 288.061 60.6055C288.061 61.2461 287.844 61.7559 287.41 62.1348C286.977 62.5098 286.381 62.6973 285.623 62.6973C285.443 62.6973 285.26 62.6816 285.072 62.6504C284.881 62.7559 284.734 62.873 284.633 63.002C284.535 63.1309 284.486 63.2793 284.486 63.4473C284.486 63.5723 284.523 63.6719 284.598 63.7461C284.676 63.8203 284.787 63.875 284.932 63.9102C285.076 63.9414 285.25 63.957 285.453 63.957H286.584C287.283 63.957 287.818 64.1035 288.189 64.3965C288.564 64.6895 288.752 65.1172 288.752 65.6797C288.752 66.3906 288.463 66.9355 287.885 67.3145C287.307 67.6934 286.471 67.8828 285.377 67.8828ZM285.406 67.1211C285.938 67.1211 286.377 67.0664 286.725 66.957C287.076 66.8516 287.338 66.6973 287.51 66.4941C287.686 66.2949 287.773 66.0566 287.773 65.7793C287.773 65.5215 287.715 65.3262 287.598 65.1934C287.48 65.0645 287.309 64.9785 287.082 64.9355C286.855 64.8887 286.578 64.8652 286.25 64.8652H285.137C284.848 64.8652 284.596 64.9102 284.381 65C284.166 65.0898 284 65.2227 283.883 65.3984C283.77 65.5742 283.713 65.793 283.713 66.0547C283.713 66.4023 283.859 66.666 284.152 66.8457C284.445 67.0293 284.863 67.1211 285.406 67.1211ZM285.658 61.9883C286.123 61.9883 286.473 61.8711 286.707 61.6367C286.941 61.4023 287.059 61.0605 287.059 60.6113C287.059 60.1309 286.939 59.7715 286.701 59.5332C286.463 59.291 286.111 59.1699 285.646 59.1699C285.201 59.1699 284.857 59.2949 284.615 59.5449C284.377 59.791 284.258 60.1523 284.258 60.6289C284.258 61.0664 284.379 61.4023 284.621 61.6367C284.863 61.8711 285.209 61.9883 285.658 61.9883Z" fill="#161616"/>
<path d="M247.303 89H246.301V81.3125H243.605V80.4336H249.986V81.3125H247.303V89ZM256.672 85.7773C256.672 86.3047 256.604 86.7754 256.467 87.1895C256.33 87.6035 256.133 87.9531 255.875 88.2383C255.617 88.5234 255.305 88.7422 254.938 88.8945C254.574 89.043 254.162 89.1172 253.701 89.1172C253.271 89.1172 252.877 89.043 252.518 88.8945C252.162 88.7422 251.854 88.5234 251.592 88.2383C251.334 87.9531 251.133 87.6035 250.988 87.1895C250.848 86.7754 250.777 86.3047 250.777 85.7773C250.777 85.0742 250.896 84.4766 251.135 83.9844C251.373 83.4883 251.713 83.1113 252.154 82.8535C252.6 82.5918 253.129 82.4609 253.742 82.4609C254.328 82.4609 254.84 82.5918 255.277 82.8535C255.719 83.1152 256.061 83.4941 256.303 83.9902C256.549 84.4824 256.672 85.0781 256.672 85.7773ZM251.785 85.7773C251.785 86.293 251.854 86.7402 251.99 87.1191C252.127 87.498 252.338 87.791 252.623 87.998C252.908 88.2051 253.275 88.3086 253.725 88.3086C254.17 88.3086 254.535 88.2051 254.82 87.998C255.109 87.791 255.322 87.498 255.459 87.1191C255.596 86.7402 255.664 86.293 255.664 85.7773C255.664 85.2656 255.596 84.8242 255.459 84.4531C255.322 84.0781 255.111 83.7891 254.826 83.5859C254.541 83.3828 254.172 83.2812 253.719 83.2812C253.051 83.2812 252.561 83.502 252.248 83.9434C251.939 84.3848 251.785 84.9961 251.785 85.7773ZM260.428 88.3203C260.588 88.3203 260.752 88.3066 260.92 88.2793C261.088 88.252 261.225 88.2188 261.33 88.1797V88.9355C261.217 88.9863 261.059 89.0293 260.855 89.0645C260.656 89.0996 260.461 89.1172 260.27 89.1172C259.93 89.1172 259.621 89.0586 259.344 88.9414C259.066 88.8203 258.844 88.6172 258.676 88.332C258.512 88.0469 258.43 87.6523 258.43 87.1484V83.3398H257.516V82.8652L258.436 82.4844L258.822 81.0898H259.408V82.5781H261.289V83.3398H259.408V87.1191C259.408 87.5215 259.5 87.8223 259.684 88.0215C259.871 88.2207 260.119 88.3203 260.428 88.3203ZM265.033 82.4727C265.799 82.4727 266.367 82.6445 266.738 82.9883C267.109 83.332 267.295 83.8809 267.295 84.6348V89H266.586L266.398 88.0508H266.352C266.172 88.2852 265.984 88.4824 265.789 88.6426C265.594 88.7988 265.367 88.918 265.109 89C264.855 89.0781 264.543 89.1172 264.172 89.1172C263.781 89.1172 263.434 89.0488 263.129 88.9121C262.828 88.7754 262.59 88.5684 262.414 88.291C262.242 88.0137 262.156 87.6621 262.156 87.2363C262.156 86.5957 262.41 86.1035 262.918 85.7598C263.426 85.416 264.199 85.2285 265.238 85.1973L266.346 85.1504V84.7578C266.346 84.2031 266.227 83.8145 265.988 83.5918C265.75 83.3691 265.414 83.2578 264.98 83.2578C264.645 83.2578 264.324 83.3066 264.02 83.4043C263.715 83.502 263.426 83.6172 263.152 83.75L262.854 83.0117C263.143 82.8633 263.475 82.7363 263.85 82.6309C264.225 82.5254 264.619 82.4727 265.033 82.4727ZM266.334 85.8359L265.355 85.877C264.555 85.9082 263.99 86.0391 263.662 86.2695C263.334 86.5 263.17 86.8262 263.17 87.248C263.17 87.6152 263.281 87.8867 263.504 88.0625C263.727 88.2383 264.021 88.3262 264.389 88.3262C264.959 88.3262 265.426 88.168 265.789 87.8516C266.152 87.5352 266.334 87.0605 266.334 86.4277V85.8359ZM270.277 89H269.299V79.8828H270.277V89ZM281.58 80.4336L278.504 89H277.502L274.426 80.4336H275.469L277.473 86.0762C277.555 86.3027 277.627 86.5195 277.689 86.7266C277.756 86.9336 277.814 87.1328 277.865 87.3242C277.916 87.5156 277.961 87.7012 278 87.8809C278.039 87.7012 278.084 87.5156 278.135 87.3242C278.186 87.1289 278.244 86.9277 278.311 86.7207C278.377 86.5098 278.451 86.2891 278.533 86.0586L280.525 80.4336H281.58ZM285.014 82.4727C285.779 82.4727 286.348 82.6445 286.719 82.9883C287.09 83.332 287.275 83.8809 287.275 84.6348V89H286.566L286.379 88.0508H286.332C286.152 88.2852 285.965 88.4824 285.77 88.6426C285.574 88.7988 285.348 88.918 285.09 89C284.836 89.0781 284.523 89.1172 284.152 89.1172C283.762 89.1172 283.414 89.0488 283.109 88.9121C282.809 88.7754 282.57 88.5684 282.395 88.291C282.223 88.0137 282.137 87.6621 282.137 87.2363C282.137 86.5957 282.391 86.1035 282.898 85.7598C283.406 85.416 284.18 85.2285 285.219 85.1973L286.326 85.1504V84.7578C286.326 84.2031 286.207 83.8145 285.969 83.5918C285.73 83.3691 285.395 83.2578 284.961 83.2578C284.625 83.2578 284.305 83.3066 284 83.4043C283.695 83.502 283.406 83.6172 283.133 83.75L282.834 83.0117C283.123 82.8633 283.455 82.7363 283.83 82.6309C284.205 82.5254 284.6 82.4727 285.014 82.4727ZM286.314 85.8359L285.336 85.877C284.535 85.9082 283.971 86.0391 283.643 86.2695C283.314 86.5 283.15 86.8262 283.15 87.248C283.15 87.6152 283.262 87.8867 283.484 88.0625C283.707 88.2383 284.002 88.3262 284.369 88.3262C284.939 88.3262 285.406 88.168 285.77 87.8516C286.133 87.5352 286.314 87.0605 286.314 86.4277V85.8359ZM290.258 89H289.279V79.8828H290.258V89ZM297.617 82.5781V89H296.82L296.68 88.0977H296.627C296.494 88.3203 296.322 88.5078 296.111 88.6602C295.9 88.8125 295.662 88.9258 295.396 89C295.135 89.0781 294.855 89.1172 294.559 89.1172C294.051 89.1172 293.625 89.0352 293.281 88.8711C292.938 88.707 292.678 88.4531 292.502 88.1094C292.33 87.7656 292.244 87.3242 292.244 86.7852V82.5781H293.229V86.7148C293.229 87.25 293.35 87.6504 293.592 87.916C293.834 88.1777 294.203 88.3086 294.699 88.3086C295.176 88.3086 295.555 88.2188 295.836 88.0391C296.121 87.8594 296.326 87.5957 296.451 87.248C296.576 86.8965 296.639 86.4668 296.639 85.959V82.5781H297.617ZM302.146 82.4609C302.693 82.4609 303.162 82.582 303.553 82.8242C303.943 83.0664 304.242 83.4062 304.449 83.8438C304.656 84.2773 304.76 84.7852 304.76 85.3672V85.9707H300.324C300.336 86.7246 300.523 87.2988 300.887 87.6934C301.25 88.0879 301.762 88.2852 302.422 88.2852C302.828 88.2852 303.188 88.248 303.5 88.1738C303.812 88.0996 304.137 87.9902 304.473 87.8457V88.7012C304.148 88.8457 303.826 88.9512 303.506 89.0176C303.189 89.084 302.814 89.1172 302.381 89.1172C301.764 89.1172 301.225 88.9922 300.764 88.7422C300.307 88.4883 299.951 88.1172 299.697 87.6289C299.443 87.1406 299.316 86.543 299.316 85.8359C299.316 85.1445 299.432 84.5469 299.662 84.043C299.896 83.5352 300.225 83.1445 300.646 82.8711C301.072 82.5977 301.572 82.4609 302.146 82.4609ZM302.135 83.2578C301.615 83.2578 301.201 83.4277 300.893 83.7676C300.584 84.1074 300.4 84.582 300.342 85.1914H303.74C303.736 84.8086 303.676 84.4727 303.559 84.1836C303.445 83.8906 303.271 83.6641 303.037 83.5039C302.803 83.3398 302.502 83.2578 302.135 83.2578Z" fill="#61656E"/>
<path d="M327.158 95.1377V89.7061C324.979 89.6709 322.966 89.4775 321.12 89.126C319.292 88.7568 317.71 88.2822 316.374 87.7021V82.0859C317.728 82.7188 319.397 83.29 321.384 83.7998C323.37 84.3096 325.295 84.5996 327.158 84.6699V74.7822C324.609 73.9209 322.535 73.0244 320.936 72.0928C319.354 71.1611 318.193 70.0801 317.455 68.8496C316.717 67.6016 316.348 66.1074 316.348 64.3672C316.348 62.5742 316.796 61.0361 317.692 59.7529C318.606 58.4521 319.872 57.4238 321.489 56.668C323.124 55.9121 325.014 55.4639 327.158 55.3232V51.0254H330.586V55.2441C332.537 55.2969 334.339 55.5166 335.991 55.9033C337.661 56.2725 339.252 56.791 340.764 57.459L338.839 62.3633C337.521 61.8359 336.149 61.4053 334.726 61.0713C333.302 60.7373 331.922 60.5088 330.586 60.3857V70.0361C332.73 70.7393 334.638 71.4951 336.308 72.3037C337.995 73.1123 339.313 74.1318 340.263 75.3623C341.229 76.5752 341.713 78.166 341.713 80.1348C341.713 82.7188 340.764 84.8545 338.865 86.542C336.967 88.2119 334.207 89.2139 330.586 89.5479V95.1377H327.158ZM330.586 84.459C332.273 84.248 333.53 83.8086 334.356 83.1406C335.183 82.4551 335.596 81.5674 335.596 80.4775C335.596 79.7393 335.42 79.1152 335.068 78.6055C334.734 78.0957 334.198 77.6387 333.46 77.2344C332.739 76.8301 331.781 76.4346 330.586 76.0479V84.459ZM327.158 68.7441V60.4912C326.139 60.5967 325.277 60.8076 324.574 61.124C323.871 61.4404 323.344 61.8535 322.992 62.3633C322.641 62.873 322.465 63.4795 322.465 64.1826C322.465 64.9561 322.623 65.6152 322.939 66.1602C323.256 66.7051 323.757 67.1797 324.442 67.584C325.146 67.9883 326.051 68.375 327.158 68.7441ZM374.329 83.5361H369.108V92H362.991V83.5361H345.457V78.8428L363.07 53.3457H369.108V78.3945H374.329V83.5361ZM362.991 78.3945V68.8232C362.991 68.0322 363 67.2324 363.018 66.4238C363.053 65.5977 363.088 64.8066 363.123 64.0508C363.158 63.2949 363.193 62.6006 363.229 61.9678C363.264 61.3174 363.29 60.7812 363.308 60.3594H363.097C362.763 61.0625 362.394 61.7832 361.989 62.5215C361.585 63.2422 361.154 63.9453 360.697 64.6309L351.205 78.3945H362.991ZM385.983 85.7246L386.353 86.3311C386.036 87.5967 385.632 88.959 385.14 90.418C384.647 91.877 384.111 93.3359 383.531 94.7949C382.951 96.2715 382.362 97.6602 381.765 98.9609H377.229C377.599 97.5371 377.95 96.043 378.284 94.4785C378.636 92.9316 378.952 91.4023 379.233 89.8906C379.532 88.3613 379.77 86.9727 379.945 85.7246H385.983ZM405.442 52.9238C407.675 52.9238 409.688 53.2754 411.48 53.9785C413.273 54.6641 414.697 55.6924 415.752 57.0635C416.807 58.4346 417.334 60.1309 417.334 62.1523C417.334 63.7168 417.009 65.0791 416.358 66.2393C415.726 67.3994 414.864 68.4189 413.774 69.2979C412.685 70.1592 411.463 70.9238 410.109 71.5918C411.621 72.3301 413.01 73.1826 414.275 74.1494C415.559 75.0986 416.587 76.2148 417.36 77.498C418.151 78.7812 418.547 80.2842 418.547 82.0068C418.547 84.1689 417.993 86.041 416.886 87.623C415.796 89.1875 414.275 90.4004 412.324 91.2617C410.373 92.1055 408.097 92.5273 405.495 92.5273C402.7 92.5273 400.318 92.1143 398.35 91.2881C396.381 90.4619 394.887 89.2842 393.867 87.7549C392.848 86.208 392.338 84.3623 392.338 82.2178C392.338 80.4424 392.689 78.9043 393.393 77.6035C394.096 76.3027 395.036 75.1777 396.214 74.2285C397.409 73.2793 398.719 72.4795 400.143 71.8291C398.93 71.1084 397.822 70.2998 396.82 69.4033C395.818 68.4893 395.019 67.4434 394.421 66.2656C393.841 65.0703 393.551 63.6904 393.551 62.126C393.551 60.1221 394.087 58.4434 395.159 57.0898C396.231 55.7188 397.664 54.6816 399.457 53.9785C401.268 53.2754 403.263 52.9238 405.442 52.9238ZM398.244 81.9805C398.244 83.668 398.842 85.0566 400.037 86.1465C401.232 87.2363 403.017 87.7812 405.39 87.7812C407.745 87.7812 409.538 87.2451 410.769 86.1729C411.999 85.1006 412.614 83.6855 412.614 81.9277C412.614 80.8027 412.298 79.8096 411.665 78.9482C411.05 78.0869 410.215 77.3223 409.16 76.6543C408.123 75.9688 406.972 75.3359 405.706 74.7559L404.862 74.4131C403.491 74.9932 402.313 75.6523 401.329 76.3906C400.345 77.1113 399.58 77.9287 399.035 78.8428C398.508 79.7568 398.244 80.8027 398.244 81.9805ZM405.39 57.6963C403.685 57.6963 402.278 58.1182 401.171 58.9619C400.081 59.7881 399.536 60.9834 399.536 62.5479C399.536 63.6553 399.8 64.6045 400.327 65.3955C400.872 66.1865 401.602 66.8721 402.516 67.4521C403.43 68.0146 404.44 68.542 405.548 69.0342C406.62 68.5596 407.587 68.041 408.448 67.4785C409.327 66.8984 410.021 66.2129 410.531 65.4219C411.059 64.6133 411.322 63.6465 411.322 62.5215C411.322 60.9746 410.769 59.7881 409.661 58.9619C408.571 58.1182 407.147 57.6963 405.39 57.6963ZM449.449 72.6992C449.449 75.8105 449.203 78.5967 448.711 81.0576C448.236 83.501 447.48 85.5752 446.443 87.2803C445.406 88.9854 444.053 90.2861 442.383 91.1826C440.713 92.0791 438.691 92.5273 436.318 92.5273C433.348 92.5273 430.896 91.7451 428.962 90.1807C427.028 88.5986 425.596 86.3311 424.664 83.3779C423.732 80.4072 423.267 76.8477 423.267 72.6992C423.267 68.5508 423.688 65 424.532 62.0469C425.394 59.0762 426.782 56.7998 428.698 55.2178C430.614 53.6357 433.154 52.8447 436.318 52.8447C439.307 52.8447 441.768 53.6357 443.701 55.2178C445.652 56.7822 447.094 59.0498 448.025 62.0205C448.975 64.9736 449.449 68.5332 449.449 72.6992ZM429.516 72.6992C429.516 75.9512 429.727 78.667 430.148 80.8467C430.588 83.0264 431.309 84.6611 432.311 85.751C433.312 86.8232 434.648 87.3594 436.318 87.3594C437.988 87.3594 439.324 86.8232 440.326 85.751C441.328 84.6787 442.049 83.0527 442.488 80.873C442.945 78.6934 443.174 75.9688 443.174 72.6992C443.174 69.4648 442.954 66.7578 442.515 64.5781C442.075 62.3984 441.354 60.7637 440.353 59.6738C439.351 58.5664 438.006 58.0127 436.318 58.0127C434.631 58.0127 433.286 58.5664 432.284 59.6738C431.3 60.7637 430.588 62.3984 430.148 64.5781C429.727 66.7578 429.516 69.4648 429.516 72.6992ZM472.468 92H466.245V67.1885C466.245 66.3623 466.254 65.5361 466.271 64.71C466.289 63.8838 466.307 63.0752 466.324 62.2842C466.359 61.4932 466.403 60.7373 466.456 60.0166C466.087 60.4209 465.63 60.8604 465.085 61.335C464.558 61.8096 463.995 62.3018 463.397 62.8115L458.968 66.3447L455.856 62.416L467.3 53.4512H472.468V92ZM486.258 88.7305C486.258 87.2891 486.627 86.2783 487.365 85.6982C488.121 85.1006 489.035 84.8018 490.107 84.8018C491.18 84.8018 492.094 85.1006 492.85 85.6982C493.623 86.2783 494.01 87.2891 494.01 88.7305C494.01 90.1367 493.623 91.1562 492.85 91.7891C492.094 92.4043 491.18 92.7119 490.107 92.7119C489.035 92.7119 488.121 92.4043 487.365 91.7891C486.627 91.1562 486.258 90.1367 486.258 88.7305ZM526.072 72.6992C526.072 75.8105 525.826 78.5967 525.334 81.0576C524.859 83.501 524.104 85.5752 523.066 87.2803C522.029 88.9854 520.676 90.2861 519.006 91.1826C517.336 92.0791 515.314 92.5273 512.941 92.5273C509.971 92.5273 507.519 91.7451 505.585 90.1807C503.651 88.5986 502.219 86.3311 501.287 83.3779C500.355 80.4072 499.89 76.8477 499.89 72.6992C499.89 68.5508 500.312 65 501.155 62.0469C502.017 59.0762 503.405 56.7998 505.321 55.2178C507.237 53.6357 509.777 52.8447 512.941 52.8447C515.93 52.8447 518.391 53.6357 520.324 55.2178C522.275 56.7822 523.717 59.0498 524.648 62.0205C525.598 64.9736 526.072 68.5332 526.072 72.6992ZM506.139 72.6992C506.139 75.9512 506.35 78.667 506.771 80.8467C507.211 83.0264 507.932 84.6611 508.934 85.751C509.936 86.8232 511.271 87.3594 512.941 87.3594C514.611 87.3594 515.947 86.8232 516.949 85.751C517.951 84.6787 518.672 83.0527 519.111 80.873C519.568 78.6934 519.797 75.9688 519.797 72.6992C519.797 69.4648 519.577 66.7578 519.138 64.5781C518.698 62.3984 517.978 60.7637 516.976 59.6738C515.974 58.5664 514.629 58.0127 512.941 58.0127C511.254 58.0127 509.909 58.5664 508.907 59.6738C507.923 60.7637 507.211 62.3984 506.771 64.5781C506.35 66.7578 506.139 69.4648 506.139 72.6992ZM556.922 69.8779C556.922 72.1631 556.755 74.4043 556.421 76.6016C556.104 78.7988 555.542 80.8555 554.733 82.7715C553.942 84.6875 552.844 86.3838 551.438 87.8604C550.049 89.3193 548.291 90.4619 546.164 91.2881C544.037 92.1143 541.471 92.5273 538.465 92.5273C537.709 92.5273 536.83 92.4834 535.828 92.3955C534.844 92.3252 534.035 92.2197 533.402 92.0791V86.9111C534.07 87.1045 534.817 87.2627 535.644 87.3857C536.487 87.4912 537.322 87.5439 538.148 87.5439C541.4 87.5439 543.932 86.9375 545.742 85.7246C547.57 84.5117 548.862 82.8418 549.618 80.7148C550.392 78.5879 550.831 76.1709 550.937 73.4639H550.62C550.11 74.3076 549.469 75.0811 548.695 75.7842C547.922 76.4697 546.964 77.0234 545.821 77.4453C544.679 77.8496 543.29 78.0518 541.655 78.0518C539.44 78.0518 537.507 77.5859 535.854 76.6543C534.22 75.7227 532.945 74.3691 532.031 72.5938C531.135 70.8008 530.687 68.6475 530.687 66.1338C530.687 63.4092 531.205 61.0625 532.242 59.0938C533.279 57.125 534.747 55.6133 536.646 54.5586C538.544 53.4863 540.776 52.9502 543.343 52.9502C545.276 52.9502 547.061 53.3018 548.695 54.0049C550.348 54.6904 551.789 55.7451 553.02 57.1689C554.25 58.5752 555.208 60.3418 555.894 62.4688C556.579 64.5781 556.922 67.0479 556.922 69.8779ZM543.422 58.0654C541.471 58.0654 539.88 58.7246 538.649 60.043C537.419 61.3438 536.804 63.3477 536.804 66.0547C536.804 68.252 537.331 69.9922 538.386 71.2754C539.44 72.5586 541.058 73.2002 543.237 73.2002C544.749 73.2002 546.05 72.8926 547.14 72.2773C548.247 71.6445 549.1 70.8447 549.697 69.8779C550.312 68.9111 550.62 67.9268 550.62 66.9248C550.62 65.8877 550.471 64.8506 550.172 63.8135C549.891 62.7764 549.451 61.8271 548.854 60.9658C548.256 60.1045 547.5 59.4102 546.586 58.8828C545.689 58.3379 544.635 58.0654 543.422 58.0654Z" fill="#161616"/>
<path d="M575.833 67.6667V81H579.166V67.6667H584.166L577.5 61L570.833 67.6667H575.833Z" fill="#0C5D2E"/>
<path d="M317.32 114.371H319.734V115.168H317.32V117.652H316.518V115.168H314.104V114.371H316.518V111.875H317.32V114.371ZM323.402 119.697V118.467C322.953 118.459 322.523 118.42 322.113 118.35C321.707 118.279 321.375 118.188 321.117 118.074V117.125C321.387 117.25 321.732 117.359 322.154 117.453C322.576 117.547 322.992 117.598 323.402 117.605V115.027C322.887 114.883 322.459 114.719 322.119 114.535C321.783 114.348 321.531 114.119 321.363 113.85C321.195 113.58 321.111 113.254 321.111 112.871C321.111 112.473 321.205 112.133 321.393 111.852C321.584 111.566 321.852 111.344 322.195 111.184C322.539 111.023 322.941 110.932 323.402 110.908V109.895H324.117V110.896C324.535 110.908 324.916 110.955 325.26 111.037C325.604 111.115 325.922 111.217 326.215 111.342L325.91 112.156C325.645 112.051 325.357 111.961 325.049 111.887C324.74 111.812 324.43 111.762 324.117 111.734V114.295C324.641 114.447 325.078 114.609 325.43 114.781C325.785 114.953 326.053 115.166 326.232 115.42C326.412 115.674 326.502 116.002 326.502 116.404C326.502 116.975 326.293 117.436 325.875 117.787C325.457 118.135 324.871 118.346 324.117 118.42V119.697H323.402ZM324.117 117.553C324.598 117.506 324.955 117.391 325.189 117.207C325.428 117.02 325.547 116.773 325.547 116.469C325.547 116.25 325.5 116.07 325.406 115.93C325.316 115.789 325.168 115.668 324.961 115.566C324.754 115.461 324.473 115.361 324.117 115.268V117.553ZM323.402 114.049V111.758C323.109 111.777 322.863 111.832 322.664 111.922C322.465 112.012 322.314 112.129 322.213 112.273C322.115 112.418 322.066 112.59 322.066 112.789C322.066 113.02 322.109 113.213 322.195 113.369C322.285 113.521 322.428 113.652 322.623 113.762C322.822 113.867 323.082 113.963 323.402 114.049ZM331.447 119H330.498V112.93C330.498 112.699 330.498 112.502 330.498 112.338C330.502 112.17 330.506 112.018 330.51 111.881C330.518 111.74 330.527 111.598 330.539 111.453C330.418 111.578 330.305 111.686 330.199 111.775C330.094 111.861 329.963 111.969 329.807 112.098L328.828 112.883L328.318 112.221L330.639 110.434H331.447V119ZM335.801 119L339.316 111.324H334.646V110.434H340.359V111.184L336.867 119H335.801ZM346.857 112.432C346.857 112.814 346.783 113.146 346.635 113.428C346.486 113.709 346.279 113.939 346.014 114.119C345.748 114.295 345.436 114.418 345.076 114.488V114.535C345.756 114.621 346.266 114.84 346.605 115.191C346.949 115.543 347.121 116.004 347.121 116.574C347.121 117.07 347.004 117.51 346.77 117.893C346.539 118.275 346.184 118.576 345.703 118.795C345.227 119.01 344.615 119.117 343.869 119.117C343.416 119.117 342.996 119.08 342.609 119.006C342.227 118.936 341.859 118.816 341.508 118.648V117.734C341.863 117.91 342.25 118.049 342.668 118.15C343.086 118.248 343.49 118.297 343.881 118.297C344.662 118.297 345.227 118.143 345.574 117.834C345.922 117.521 346.096 117.096 346.096 116.557C346.096 116.186 345.998 115.887 345.803 115.66C345.611 115.43 345.334 115.262 344.971 115.156C344.611 115.047 344.178 114.992 343.67 114.992H342.814V114.16H343.676C344.141 114.16 344.535 114.092 344.859 113.955C345.184 113.818 345.43 113.627 345.598 113.381C345.77 113.131 345.855 112.836 345.855 112.496C345.855 112.062 345.711 111.729 345.422 111.494C345.133 111.256 344.74 111.137 344.244 111.137C343.939 111.137 343.662 111.168 343.412 111.23C343.162 111.293 342.928 111.379 342.709 111.488C342.49 111.598 342.271 111.725 342.053 111.869L341.561 111.201C341.873 110.959 342.254 110.75 342.703 110.574C343.152 110.398 343.662 110.311 344.232 110.311C345.107 110.311 345.764 110.51 346.201 110.908C346.639 111.307 346.857 111.814 346.857 112.432ZM348.715 118.391C348.715 118.117 348.781 117.924 348.914 117.811C349.047 117.693 349.209 117.635 349.4 117.635C349.6 117.635 349.768 117.693 349.904 117.811C350.041 117.924 350.109 118.117 350.109 118.391C350.109 118.66 350.041 118.857 349.904 118.982C349.768 119.104 349.6 119.164 349.4 119.164C349.209 119.164 349.047 119.104 348.914 118.982C348.781 118.857 348.715 118.66 348.715 118.391ZM355.201 119H354.252V112.93C354.252 112.699 354.252 112.502 354.252 112.338C354.256 112.17 354.26 112.018 354.264 111.881C354.271 111.74 354.281 111.598 354.293 111.453C354.172 111.578 354.059 111.686 353.953 111.775C353.848 111.861 353.717 111.969 353.561 112.098L352.582 112.883L352.072 112.221L354.393 110.434H355.201V119ZM364.107 114.705C364.107 115.4 364.055 116.021 363.949 116.568C363.844 117.115 363.678 117.578 363.451 117.957C363.225 118.336 362.932 118.625 362.572 118.824C362.213 119.02 361.781 119.117 361.277 119.117C360.641 119.117 360.113 118.943 359.695 118.596C359.281 118.248 358.971 117.746 358.764 117.09C358.561 116.43 358.459 115.635 358.459 114.705C358.459 113.791 358.551 113.006 358.734 112.35C358.922 111.689 359.223 111.184 359.637 110.832C360.051 110.477 360.598 110.299 361.277 110.299C361.922 110.299 362.453 110.475 362.871 110.826C363.289 111.174 363.6 111.678 363.803 112.338C364.006 112.994 364.107 113.783 364.107 114.705ZM359.438 114.705C359.438 115.502 359.498 116.166 359.619 116.697C359.74 117.229 359.936 117.627 360.205 117.893C360.479 118.154 360.836 118.285 361.277 118.285C361.719 118.285 362.074 118.154 362.344 117.893C362.617 117.631 362.814 117.234 362.936 116.703C363.061 116.172 363.123 115.506 363.123 114.705C363.123 113.92 363.062 113.264 362.941 112.736C362.82 112.205 362.625 111.807 362.355 111.541C362.086 111.271 361.727 111.137 361.277 111.137C360.828 111.137 360.469 111.271 360.199 111.541C359.93 111.807 359.734 112.205 359.613 112.736C359.496 113.264 359.438 113.92 359.438 114.705ZM368.32 115.713C368.32 115.053 368.383 114.41 368.508 113.785C368.637 113.16 368.832 112.564 369.094 111.998C369.355 111.432 369.686 110.91 370.084 110.434H371.016C370.449 111.176 370.023 112 369.738 112.906C369.453 113.812 369.311 114.744 369.311 115.701C369.311 116.326 369.373 116.943 369.498 117.553C369.627 118.158 369.816 118.742 370.066 119.305C370.32 119.867 370.633 120.398 371.004 120.898H370.084C369.686 120.43 369.355 119.918 369.094 119.363C368.832 118.812 368.637 118.229 368.508 117.611C368.383 116.994 368.32 116.361 368.32 115.713ZM375.199 114.371H377.613V115.168H375.199V117.652H374.396V115.168H371.982V114.371H374.396V111.875H375.199V114.371ZM384.135 112.432C384.135 112.814 384.061 113.146 383.912 113.428C383.764 113.709 383.557 113.939 383.291 114.119C383.025 114.295 382.713 114.418 382.354 114.488V114.535C383.033 114.621 383.543 114.84 383.883 115.191C384.227 115.543 384.398 116.004 384.398 116.574C384.398 117.07 384.281 117.51 384.047 117.893C383.816 118.275 383.461 118.576 382.98 118.795C382.504 119.01 381.893 119.117 381.146 119.117C380.693 119.117 380.273 119.08 379.887 119.006C379.504 118.936 379.137 118.816 378.785 118.648V117.734C379.141 117.91 379.527 118.049 379.945 118.15C380.363 118.248 380.768 118.297 381.158 118.297C381.939 118.297 382.504 118.143 382.852 117.834C383.199 117.521 383.373 117.096 383.373 116.557C383.373 116.186 383.275 115.887 383.08 115.66C382.889 115.43 382.611 115.262 382.248 115.156C381.889 115.047 381.455 114.992 380.947 114.992H380.092V114.16H380.953C381.418 114.16 381.812 114.092 382.137 113.955C382.461 113.818 382.707 113.627 382.875 113.381C383.047 113.131 383.133 112.836 383.133 112.496C383.133 112.062 382.988 111.729 382.699 111.494C382.41 111.256 382.018 111.137 381.521 111.137C381.217 111.137 380.939 111.168 380.689 111.23C380.439 111.293 380.205 111.379 379.986 111.488C379.768 111.598 379.549 111.725 379.33 111.869L378.838 111.201C379.15 110.959 379.531 110.75 379.98 110.574C380.43 110.398 380.939 110.311 381.51 110.311C382.385 110.311 383.041 110.51 383.479 110.908C383.916 111.307 384.135 111.814 384.135 112.432ZM385.992 118.391C385.992 118.117 386.059 117.924 386.191 117.811C386.324 117.693 386.486 117.635 386.678 117.635C386.877 117.635 387.045 117.693 387.182 117.811C387.318 117.924 387.387 118.117 387.387 118.391C387.387 118.66 387.318 118.857 387.182 118.982C387.045 119.104 386.877 119.164 386.678 119.164C386.486 119.164 386.324 119.104 386.191 118.982C386.059 118.857 385.992 118.66 385.992 118.391ZM388.945 115.338C388.945 114.822 388.98 114.318 389.051 113.826C389.125 113.334 389.248 112.877 389.42 112.455C389.592 112.029 389.826 111.656 390.123 111.336C390.42 111.016 390.789 110.766 391.23 110.586C391.676 110.402 392.209 110.311 392.83 110.311C393.006 110.311 393.195 110.32 393.398 110.34C393.602 110.355 393.77 110.383 393.902 110.422V111.26C393.758 111.209 393.592 111.172 393.404 111.148C393.221 111.125 393.035 111.113 392.848 111.113C392.121 111.113 391.549 111.271 391.131 111.588C390.717 111.904 390.418 112.334 390.234 112.877C390.051 113.416 389.945 114.023 389.918 114.699H389.982C390.104 114.504 390.258 114.328 390.445 114.172C390.633 114.012 390.859 113.885 391.125 113.791C391.395 113.697 391.707 113.65 392.062 113.65C392.562 113.65 392.998 113.752 393.369 113.955C393.744 114.158 394.033 114.453 394.236 114.84C394.443 115.227 394.547 115.695 394.547 116.246C394.547 116.836 394.438 117.346 394.219 117.775C394 118.205 393.688 118.537 393.281 118.771C392.879 119.002 392.398 119.117 391.84 119.117C391.422 119.117 391.037 119.037 390.686 118.877C390.334 118.717 390.027 118.479 389.766 118.162C389.508 117.846 389.307 117.453 389.162 116.984C389.018 116.512 388.945 115.963 388.945 115.338ZM391.828 118.297C392.359 118.297 392.785 118.127 393.105 117.787C393.426 117.447 393.586 116.934 393.586 116.246C393.586 115.684 393.443 115.238 393.158 114.91C392.873 114.582 392.443 114.418 391.869 114.418C391.479 114.418 391.139 114.5 390.85 114.664C390.561 114.824 390.336 115.027 390.176 115.273C390.016 115.52 389.936 115.77 389.936 116.023C389.936 116.281 389.973 116.543 390.047 116.809C390.125 117.074 390.242 117.32 390.398 117.547C390.555 117.773 390.752 117.955 390.99 118.092C391.229 118.229 391.508 118.297 391.828 118.297ZM401.385 114.705C401.385 115.4 401.332 116.021 401.227 116.568C401.121 117.115 400.955 117.578 400.729 117.957C400.502 118.336 400.209 118.625 399.85 118.824C399.49 119.02 399.059 119.117 398.555 119.117C397.918 119.117 397.391 118.943 396.973 118.596C396.559 118.248 396.248 117.746 396.041 117.09C395.838 116.43 395.736 115.635 395.736 114.705C395.736 113.791 395.828 113.006 396.012 112.35C396.199 111.689 396.5 111.184 396.914 110.832C397.328 110.477 397.875 110.299 398.555 110.299C399.199 110.299 399.73 110.475 400.148 110.826C400.566 111.174 400.877 111.678 401.08 112.338C401.283 112.994 401.385 113.783 401.385 114.705ZM396.715 114.705C396.715 115.502 396.775 116.166 396.896 116.697C397.018 117.229 397.213 117.627 397.482 117.893C397.756 118.154 398.113 118.285 398.555 118.285C398.996 118.285 399.352 118.154 399.621 117.893C399.895 117.631 400.092 117.234 400.213 116.703C400.338 116.172 400.4 115.506 400.4 114.705C400.4 113.92 400.34 113.264 400.219 112.736C400.098 112.205 399.902 111.807 399.633 111.541C399.363 111.271 399.004 111.137 398.555 111.137C398.105 111.137 397.746 111.271 397.477 111.541C397.207 111.807 397.012 112.205 396.891 112.736C396.773 113.264 396.715 113.92 396.715 114.705ZM404.338 110.311C404.924 110.311 405.367 110.545 405.668 111.014C405.973 111.479 406.125 112.137 406.125 112.988C406.125 113.84 405.979 114.504 405.686 114.98C405.393 115.453 404.943 115.689 404.338 115.689C403.775 115.689 403.344 115.453 403.043 114.98C402.746 114.504 402.598 113.84 402.598 112.988C402.598 112.137 402.74 111.479 403.025 111.014C403.311 110.545 403.748 110.311 404.338 110.311ZM404.338 111.008C404.021 111.008 403.789 111.174 403.641 111.506C403.492 111.834 403.418 112.328 403.418 112.988C403.418 113.648 403.492 114.146 403.641 114.482C403.789 114.818 404.021 114.986 404.338 114.986C404.666 114.986 404.91 114.818 405.07 114.482C405.23 114.146 405.311 113.648 405.311 112.988C405.311 112.332 405.23 111.838 405.07 111.506C404.914 111.174 404.67 111.008 404.338 111.008ZM409.764 110.434L405.012 119H404.156L408.908 110.434H409.764ZM409.535 113.744C410.117 113.744 410.561 113.979 410.865 114.447C411.17 114.912 411.322 115.57 411.322 116.422C411.322 117.27 411.176 117.932 410.883 118.408C410.59 118.881 410.141 119.117 409.535 119.117C408.969 119.117 408.537 118.881 408.24 118.408C407.943 117.932 407.795 117.27 407.795 116.422C407.795 115.57 407.936 114.912 408.217 114.447C408.502 113.979 408.941 113.744 409.535 113.744ZM409.535 114.447C409.219 114.447 408.986 114.611 408.838 114.939C408.689 115.268 408.615 115.762 408.615 116.422C408.615 117.082 408.689 117.58 408.838 117.916C408.986 118.248 409.219 118.414 409.535 118.414C409.863 118.414 410.107 118.25 410.268 117.922C410.428 117.59 410.508 117.09 410.508 116.422C410.508 115.766 410.428 115.273 410.268 114.945C410.111 114.613 409.867 114.447 409.535 114.447ZM414.984 115.701C414.984 116.354 414.92 116.99 414.791 117.611C414.666 118.229 414.473 118.814 414.211 119.369C413.953 119.924 413.623 120.434 413.221 120.898H412.301C412.676 120.402 412.988 119.871 413.238 119.305C413.492 118.738 413.682 118.152 413.807 117.547C413.936 116.938 414 116.32 414 115.695C414 115.059 413.936 114.432 413.807 113.814C413.678 113.197 413.486 112.604 413.232 112.033C412.982 111.463 412.668 110.93 412.289 110.434H413.221C413.623 110.914 413.953 111.438 414.211 112.004C414.473 112.566 414.666 113.16 414.791 113.785C414.92 114.406 414.984 115.045 414.984 115.701Z" fill="#0C5D2E"/>
<rect width="53" height="32" transform="translate(731)" fill="#D1F4C9"/>
<path fill-rule="evenodd" clip-rule="evenodd" d="M742.871 18.0325L749.058 11.8457L750.119 12.9064L742.871 20.1538L739.881 17.1634L740.942 16.1028L742.871 18.0325Z" fill="#24874B"/>
<path d="M767.08 16.6348C767.08 17.5996 766.9 18.4062 766.541 19.0547C766.182 19.6992 765.66 20.1855 764.977 20.5137C764.293 20.8379 763.469 21 762.504 21H760.125V12.4336H762.762C763.648 12.4336 764.414 12.5938 765.059 12.9141C765.703 13.2305 766.201 13.7012 766.553 14.3262C766.904 14.9473 767.08 15.7168 767.08 16.6348ZM765.615 16.6758C765.615 15.9727 765.504 15.3945 765.281 14.9414C765.062 14.4883 764.738 14.1523 764.309 13.9336C763.883 13.7109 763.357 13.5996 762.732 13.5996H761.531V19.8223H762.527C763.562 19.8223 764.336 19.5586 764.848 19.0312C765.359 18.5039 765.615 17.7188 765.615 16.6758ZM774.527 17.7422C774.527 18.2812 774.457 18.7598 774.316 19.1777C774.176 19.5957 773.971 19.9492 773.701 20.2383C773.432 20.5234 773.107 20.7422 772.729 20.8945C772.35 21.043 771.922 21.1172 771.445 21.1172C771 21.1172 770.592 21.043 770.221 20.8945C769.85 20.7422 769.527 20.5234 769.254 20.2383C768.984 19.9492 768.775 19.5957 768.627 19.1777C768.479 18.7598 768.404 18.2812 768.404 17.7422C768.404 17.0273 768.527 16.4219 768.773 15.9258C769.023 15.4258 769.379 15.0449 769.84 14.7832C770.301 14.5215 770.85 14.3906 771.486 14.3906C772.084 14.3906 772.611 14.5215 773.068 14.7832C773.525 15.0449 773.883 15.4258 774.141 15.9258C774.398 16.4258 774.527 17.0312 774.527 17.7422ZM769.822 17.7422C769.822 18.2148 769.879 18.6191 769.992 18.9551C770.109 19.291 770.289 19.5488 770.531 19.7285C770.773 19.9043 771.086 19.9922 771.469 19.9922C771.852 19.9922 772.164 19.9043 772.406 19.7285C772.648 19.5488 772.826 19.291 772.939 18.9551C773.053 18.6191 773.109 18.2148 773.109 17.7422C773.109 17.2695 773.053 16.8691 772.939 16.541C772.826 16.209 772.648 15.957 772.406 15.7852C772.164 15.6094 771.85 15.5215 771.463 15.5215C770.893 15.5215 770.477 15.7129 770.215 16.0957C769.953 16.4785 769.822 17.0273 769.822 17.7422Z" fill="#161616"/>
</svg>
