<svg width="144" height="144" viewBox="0 0 144 144" fill="none" xmlns="http://www.w3.org/2000/svg">
<g clip-path="url(#clip0_0_226)">
<path d="M132 51V34.92L72 12L12 34.92V51H16.5C18.99 51 21 53.01 21 55.5V106.5C21 108.99 18.99 111 16.5 111H12V132H132V111H127.5C125.01 111 123 108.99 123 106.5V55.5C123 53.01 125.01 51 127.5 51H132ZM18 39.03L72 18.42L126 39.03V45H18V39.03ZM93 106.5V55.5C93 53.01 95.01 51 97.5 51C99.99 51 102 53.01 102 55.5V106.5C102 108.99 99.99 111 97.5 111C95.01 111 93 108.99 93 106.5ZM51 55.5V106.5C51 108.99 48.99 111 46.5 111C44.01 111 42 108.99 42 106.5V55.5C42 53.01 44.01 51 46.5 51C48.99 51 51 53.01 51 55.5ZM72 51C80.28 51 87 57.72 87 66V106.5C87 108.99 84.99 111 82.5 111H61.5C59.01 111 57 108.99 57 106.5V66C57 57.72 63.72 51 72 51ZM31.5 51C33.99 51 36 53.01 36 55.5V106.5C36 108.99 33.99 111 31.5 111C29.01 111 27 108.99 27 106.5V55.5C27 53.01 29.01 51 31.5 51ZM126 126H18V117H126V126ZM112.5 111C110.01 111 108 108.99 108 106.5V55.5C108 53.01 110.01 51 112.5 51C114.99 51 117 53.01 117 55.5V106.5C117 108.99 114.99 111 112.5 111Z" fill="black"/>
</g>
<defs>
<clipPath id="clip0_0_226">
<rect width="144" height="144" fill="white"/>
</clipPath>
</defs>
</svg>
