<svg width="144" height="144" viewBox="0 0 144 144" fill="none" xmlns="http://www.w3.org/2000/svg">
<path d="M120 36H102C100.35 36 99 34.65 99 33V24H93V33C93 34.65 91.65 36 90 36H54C52.35 36 51 34.65 51 33V24H45V33C45 34.65 43.65 36 42 36H27L12 120H132L120 36ZM45 45V51H51V45C51 43.35 52.35 42 54 42H90C91.65 42 93 43.35 93 45V51H99V45C99 43.35 100.35 42 102 42H112.83L110.07 57.54C109.8 58.98 108.57 60 107.13 60H32.4C30.54 60 29.13 58.32 29.46 56.46L32.04 42H42.03C43.68 42 45.03 43.35 45.03 45H45ZM99.96 114H19.14L27.27 68.46C27.54 67.02 28.77 66 30.21 66H104.94C106.8 66 108.21 67.68 107.88 69.54L99.93 114H99.96ZM117.96 64.08L124.59 110.55C124.86 112.35 123.45 113.97 121.62 113.97H109.65C107.79 113.97 106.38 112.29 106.71 110.43L114.99 63.99C115.29 62.31 117.72 62.34 117.96 64.05V64.08Z" fill="black"/>
</svg>
