<svg width="144" height="144" viewBox="0 0 144 144" fill="none" xmlns="http://www.w3.org/2000/svg">
<path d="M99.2703 26.9473V20.9473H93.2703V26.9473C93.2703 28.5973 91.9203 29.9473 90.2703 29.9473H54.2703C52.6203 29.9473 51.2703 28.5973 51.2703 26.9473V20.9473H45.2703V26.9473C45.2703 28.5973 43.9203 29.9473 42.2703 29.9473H12.2703V119.947H132.27V29.9473H102.27C100.62 29.9473 99.2703 28.5973 99.2703 26.9473ZM45.2703 38.9473V44.9473H51.2703V38.9473C51.2703 37.2973 52.6203 35.9473 54.2703 35.9473H90.2703C91.9203 35.9473 93.2703 37.2973 93.2703 38.9473V44.9473H99.2703V38.9473C99.2703 37.2973 100.62 35.9473 102.27 35.9473H126.27V50.9473C126.27 52.5973 124.92 53.9473 123.27 53.9473H21.2703C19.6203 53.9473 18.2703 52.5973 18.2703 50.9473V35.9473H42.2703C43.9203 35.9473 45.2703 37.2973 45.2703 38.9473ZM18.2703 113.947V62.9473C18.2703 61.2973 19.6203 59.9473 21.2703 59.9473H123.27C124.92 59.9473 126.27 61.2973 126.27 62.9473V113.947H18.2703Z" fill="black"/>
<path d="M33.2703 68.9473H27.2703V74.9473H33.2703V68.9473Z" fill="black"/>
<path d="M54.2703 68.9473H48.2703V74.9473H54.2703V68.9473Z" fill="black"/>
<path d="M75.2703 68.9473H69.2703V74.9473H75.2703V68.9473Z" fill="black"/>
<path d="M96.2703 68.9473H90.2703V74.9473H96.2703V68.9473Z" fill="black"/>
<path d="M117.27 68.9473H111.27V74.9473H117.27V68.9473Z" fill="black"/>
<path d="M33.2703 83.9473H27.2703V89.9473H33.2703V83.9473Z" fill="black"/>
<path d="M54.2703 83.9473H48.2703V89.9473H54.2703V83.9473Z" fill="black"/>
<path d="M75.2703 83.9473H69.2703V89.9473H75.2703V83.9473Z" fill="black"/>
<path d="M96.2703 83.9473H90.2703V89.9473H96.2703V83.9473Z" fill="black"/>
<path d="M117.27 83.9473H111.27V89.9473H117.27V83.9473Z" fill="black"/>
<path d="M33.2703 98.9473H27.2703V104.947H33.2703V98.9473Z" fill="black"/>
<path d="M54.2703 98.9473H48.2703V104.947H54.2703V98.9473Z" fill="black"/>
<path d="M75.2703 98.9473H69.2703V104.947H75.2703V98.9473Z" fill="black"/>
<path d="M96.2703 98.9473H90.2703V104.947H96.2703V98.9473Z" fill="black"/>
<path d="M117.27 98.9473H111.27V104.947H117.27V98.9473Z" fill="black"/>
</svg>
