<svg width="144" height="144" viewBox="0 0 144 144" fill="none" xmlns="http://www.w3.org/2000/svg">
<g clip-path="url(#clip0_0_239)">
<path d="M47.1301 83.1301L42.9001 78.9001L64.5301 57.2701L72.9001 65.6401C74.0701 66.8101 75.9601 66.8101 77.1301 65.6401L93.9001 48.8701L98.1301 53.1001L75.0001 76.2301L66.6301 67.8601C65.4601 66.6901 63.5701 66.6901 62.4001 67.8601L47.1301 83.1301Z" fill="black"/>
<path d="M97.5 55.5C100.814 55.5 103.5 52.8137 103.5 49.5C103.5 46.1863 100.814 43.5 97.5 43.5C94.1863 43.5 91.5 46.1863 91.5 49.5C91.5 52.8137 94.1863 55.5 97.5 55.5Z" fill="black"/>
<path d="M126 93V27H18V93C18 94.65 16.65 96 15 96H12V108C12 112.98 16.02 117 21 117H123C127.98 117 132 112.98 132 108V96H129C127.35 96 126 94.65 126 93ZM24 33H120V93C120 94.65 118.65 96 117 96H27C25.35 96 24 94.65 24 93V33ZM126 108C126 109.65 124.65 111 123 111H21C19.35 111 18 109.65 18 108V102H126V108Z" fill="black"/>
</g>
<defs>
<clipPath id="clip0_0_239">
<rect width="144" height="144" fill="white"/>
</clipPath>
</defs>
</svg>
