<svg width="144" height="144" viewBox="0 0 144 144" fill="none" xmlns="http://www.w3.org/2000/svg">
<g clip-path="url(#clip0_0_227)">
<path d="M101.04 59.3997C103.32 53.9997 104.13 47.8497 102.96 41.3997C100.65 28.7697 90.5401 18.5697 77.8801 16.2597C57.9301 12.6297 40.4701 27.9297 40.4701 47.2197C40.4701 50.6097 41.0101 53.9097 42.0301 56.9697C42.1501 57.2997 42.4801 58.0797 42.9601 59.0997C44.2801 61.9197 42.4201 65.2497 39.3301 65.5197C39.1801 65.5197 39.0901 65.5197 39.0001 65.5497C22.2301 67.9497 9.69006 83.6097 12.3601 101.52C14.4001 115.38 24.9601 125.88 38.8501 127.89C50.8201 129.63 61.7401 124.56 68.3701 116.01C70.2601 113.58 73.7701 113.58 75.6601 116.01C82.2901 124.56 93.2101 129.63 105.18 127.89C119.04 125.88 129.6 115.38 131.67 101.52C134.31 83.6097 121.77 67.9497 105.03 65.5497C104.97 65.5497 104.88 65.5497 104.79 65.5497C101.82 65.2197 99.9001 62.1597 101.07 59.4297L101.04 59.3997ZM72.0001 21.7497C86.0701 21.7497 97.5001 33.1797 97.5001 47.2497C97.5001 61.3197 86.0701 72.7497 72.0001 72.7497C57.9301 72.7497 46.5001 61.3197 46.5001 47.2497C46.5001 33.1797 57.9301 21.7497 72.0001 21.7497ZM43.5001 122.25C29.4301 122.25 18.0001 110.82 18.0001 96.7497C18.0001 82.6797 29.4301 71.2497 43.5001 71.2497C57.5701 71.2497 69.0001 82.6797 69.0001 96.7497C69.0001 110.82 57.5701 122.25 43.5001 122.25ZM100.5 122.25C86.4301 122.25 75.0001 110.82 75.0001 96.7497C75.0001 82.6797 86.4301 71.2497 100.5 71.2497C114.57 71.2497 126 82.6797 126 96.7497C126 110.82 114.57 122.25 100.5 122.25Z" fill="black"/>
<path d="M46.5001 95.7301L57.6301 84.6001L53.4001 80.3701L45.6301 88.1401C44.4601 89.3101 42.5701 89.3101 41.4001 88.1401L33.6301 80.3701L29.4001 84.6001L40.5301 95.7301V97.5001H34.5301V103.5H37.5301C39.1801 103.5 40.5301 104.85 40.5301 106.5V115.5H46.5301V106.5C46.5301 104.85 47.8801 103.5 49.5301 103.5H52.5301V97.5001H46.5301V95.7301H46.5001Z" fill="black"/>
<path d="M72.09 43.5C70.38 43.56 69 42.18 69 40.5C69 38.82 70.35 37.5 72 37.5C73.65 37.5 75 38.85 75 40.5H81C81 36.93 78.93 33.9 75.9 32.43C75.36 32.16 75 31.65 75 31.05V28.5H69V31.05C69 31.65 68.64 32.16 68.1 32.43C63.45 34.68 61.02 40.77 65.07 46.59C66.6 48.78 69.24 49.56 71.91 49.47C73.62 49.41 75 50.79 75 52.47C75 54.15 73.65 55.47 72 55.47C70.35 55.47 69 54.12 69 52.47H63C63 56.04 65.07 59.07 68.1 60.54C68.64 60.81 69 61.32 69 61.92V64.47H75V61.92C75 61.32 75.36 60.81 75.9 60.54C80.55 58.29 82.98 52.2 78.93 46.38C77.4 44.19 74.76 43.41 72.09 43.5Z" fill="black"/>
<path d="M94.5899 104.4C93.4499 103.26 92.9999 100.5 95.9999 100.5H104.49V94.4998H95.9999C92.9999 94.4998 93.4799 91.7398 94.5899 90.5998C95.0099 90.1798 95.4899 89.7898 95.9999 89.4598C99.7499 86.9698 105.15 87.3598 108.39 90.5998L112.62 86.3698C106.47 80.2198 96.4799 80.2198 90.3599 86.3698C87.3899 89.3398 85.7399 93.2998 85.7399 97.4998C85.7399 101.7 87.3899 105.66 90.3599 108.63C93.4199 111.69 97.4699 113.25 101.49 113.25C105.51 113.25 109.56 111.72 112.62 108.63L108.39 104.4C104.7 108.09 98.2799 108.09 94.5899 104.4Z" fill="black"/>
</g>
<defs>
<clipPath id="clip0_0_227">
<rect width="144" height="144" fill="white"/>
</clipPath>
</defs>
</svg>
