<svg width="144" height="144" viewBox="0 0 144 144" fill="none" xmlns="http://www.w3.org/2000/svg">
<path d="M114.27 17.6792H68.0403L60.3903 25.3291C59.1903 26.5291 57.2703 26.4991 56.1003 25.2691L50.6403 19.5691C49.6503 18.5491 48.3603 17.7992 46.9202 17.6792C45.1502 17.5292 43.3203 18.1292 42.0003 19.4192L24.2103 37.2091C21.9303 39.4891 21.9003 43.2691 24.1203 45.5791L29.9103 51.6091C31.0503 52.7791 31.0203 54.6392 29.8503 55.8092L21.2703 64.3892V116.619C21.2703 121.599 25.2903 125.619 30.2703 125.619H114.27C119.25 125.619 123.27 121.599 123.27 116.619V26.6191C123.27 21.6391 119.25 17.6191 114.27 17.6191V17.6792ZM28.4702 41.4692L46.2602 23.6792L51.9302 29.6191C53.0702 30.7891 53.0403 32.6491 51.8703 33.8191L38.3103 47.3792C37.1103 48.5792 35.1903 48.5491 34.0203 47.3191L28.4403 41.4692H28.4702ZM117.27 116.679C117.27 118.329 115.92 119.679 114.27 119.679H30.2703C28.6203 119.679 27.2703 118.329 27.2703 116.679V66.9091L70.5003 23.6792H114.27C115.92 23.6792 117.27 25.0292 117.27 26.6792V116.679Z" fill="black"/>
<path d="M90.2703 81.0077C90.2703 90.7577 83.5503 98.6777 75.2703 98.6777C66.9903 98.6777 60.2703 90.7577 60.2703 81.0077C60.2703 68.4077 75.2703 53.6777 75.2703 53.6777C75.2703 53.6777 90.2703 68.4077 90.2703 81.0077Z" stroke="black" stroke-width="6" stroke-miterlimit="10"/>
</svg>
