<svg width="144" height="144" viewBox="0 0 144 144" fill="none" xmlns="http://www.w3.org/2000/svg">
<path d="M91.2898 11.948L23.7898 79.448V131.678H56.7898V125.858C56.7898 123.398 57.7798 121.058 59.5498 119.348L65.3098 113.828C69.4498 109.868 71.7898 104.408 71.7898 98.678V71.678H71.6698L71.7898 71.528V61.628C71.7898 59.228 72.7498 56.948 74.4298 55.268L104.55 25.148L91.3198 11.918L91.2898 11.948ZM50.7898 125.678H29.7898V81.908L65.7898 45.908V69.188L50.7898 85.508V125.678ZM65.7898 98.678C65.7898 102.758 64.1098 106.688 61.1698 109.508L59.3398 111.278C58.3798 112.178 56.7898 111.518 56.7898 110.198V87.848L60.5698 83.738C62.4298 81.728 65.7898 83.048 65.7898 85.778V98.7079V98.678ZM73.5298 38.168L91.2598 20.438L96.0298 25.2079L74.3398 46.898C73.4098 47.828 71.7898 47.168 71.7898 45.848V42.428C71.7898 40.838 72.4198 39.308 73.5598 38.198L73.5298 38.168Z" fill="black"/>
<path d="M101.79 98.6766C91.8598 98.6766 83.7898 89.4066 83.7898 78.0066C83.7898 64.3266 99.0298 49.1766 99.6898 48.5466L101.79 46.4766L103.89 48.5466C104.55 49.1766 119.79 64.3266 119.79 78.0066C119.79 89.4066 111.72 98.6766 101.79 98.6766ZM101.79 55.0566C97.8598 59.4366 89.7898 69.5166 89.7898 78.0066C89.7898 86.4966 95.1598 92.6766 101.79 92.6766C108.42 92.6766 113.79 86.1066 113.79 78.0066C113.79 69.5166 105.72 59.4666 101.79 55.0566Z" fill="black"/>
</svg>
