<svg width="144" height="144" viewBox="0 0 144 144" fill="none" xmlns="http://www.w3.org/2000/svg">
<g clip-path="url(#clip0_0_238)">
<path d="M72 12C38.91 12 12 38.91 12 72C12 105.09 38.91 132 72 132C105.09 132 132 105.09 132 72C132 38.91 105.09 12 72 12ZM45 72C45 66.63 45.45 61.44 46.2 56.49C46.44 55.05 47.7 54 49.17 54H66C67.65 54 69 55.35 69 57V87.84C69 89.49 67.65 90.84 66 90.84H49.32C47.85 90.84 46.59 89.79 46.35 88.35C45.48 83.16 45 77.67 45 71.97V72ZM92.07 48H78C76.35 48 75 46.65 75 45V20.43C75 19.35 76.11 18.63 77.1 19.05C84.57 22.05 91.02 31.41 94.95 44.1C95.55 46.05 94.11 48.03 92.07 48.03V48ZM69 20.43V43.29C69 46.68 67.65 48 66 48H51.93C49.89 48 48.45 46.02 49.05 44.07C52.98 31.41 59.43 22.02 66.9 19.02C67.89 18.63 69 19.32 69 20.4V20.43ZM69 99.84V123.54C69 124.62 67.89 125.34 66.9 124.95C59.61 122.04 53.28 113.04 49.32 100.8C48.69 98.85 50.13 96.84 52.17 96.84H66C67.65 96.84 69 98.19 69 99.84ZM75 123.57V101.52C75 98.16 76.35 96.84 78 96.84H91.83C93.87 96.84 95.31 98.85 94.68 100.8C90.72 113.01 84.39 122.01 77.1 124.95C76.11 125.34 75 124.65 75 123.57ZM75 87.84V57C75 55.35 76.35 54 78 54H94.83C96.3 54 97.56 55.05 97.8 56.49C98.58 61.41 99 66.63 99 72C99 77.7 98.52 83.19 97.65 88.38C97.41 89.82 96.15 90.87 94.68 90.87H78C76.35 90.87 75 89.52 75 87.87V87.84ZM107.01 54H118.41C121.14 54 123.54 55.83 124.23 58.44C125.37 62.76 126 67.32 126 72C126 77.01 125.28 81.87 123.96 86.49C123.24 89.07 120.84 90.87 118.17 90.87H106.89C105.06 90.87 103.68 89.22 103.92 87.39C104.61 82.5 105 77.34 105 72C105 66.96 104.67 62.07 104.07 57.42C103.83 55.62 105.21 54 107.04 54H107.01ZM115.17 48H104.67C103.29 48 102.12 47.04 101.76 45.72C99.66 37.71 96.6 30.75 92.88 25.26C92.04 24.03 93.39 22.44 94.74 23.07C104.22 27.51 112.2 34.59 117.72 43.41C118.95 45.39 117.48 47.97 115.14 47.97L115.17 48ZM51.12 25.29C47.37 30.78 44.34 37.74 42.24 45.75C41.88 47.07 40.71 48.03 39.33 48.03H28.83C26.49 48.03 25.02 45.45 26.25 43.47C31.77 34.65 39.75 27.54 49.23 23.13C50.58 22.5 51.93 24.09 51.09 25.32L51.12 25.29ZM25.59 54H36.99C38.82 54 40.2 55.62 39.96 57.42C39.33 62.07 39.03 66.96 39.03 72C39.03 77.34 39.42 82.5 40.11 87.39C40.38 89.22 39 90.87 37.14 90.87H25.86C23.16 90.87 20.79 89.1 20.07 86.49C18.75 81.87 18.03 77.04 18.03 72C18.03 67.32 18.66 62.79 19.8 58.44C20.49 55.8 22.89 54 25.62 54H25.59ZM29.37 96.84H39.6C40.95 96.84 42.12 97.77 42.48 99.09C44.58 106.77 47.52 113.43 51.15 118.74C51.99 119.97 50.64 121.56 49.29 120.93C40.11 116.64 32.34 109.89 26.82 101.46C25.53 99.48 27 96.84 29.37 96.84ZM92.88 118.74C96.48 113.43 99.45 106.77 101.55 99.09C101.91 97.77 103.08 96.84 104.43 96.84H114.66C117.03 96.84 118.5 99.48 117.21 101.46C111.72 109.86 103.92 116.64 94.74 120.93C93.39 121.56 92.04 119.97 92.88 118.74Z" fill="black"/>
</g>
<defs>
<clipPath id="clip0_0_238">
<rect width="144" height="144" fill="white"/>
</clipPath>
</defs>
</svg>
