<svg width="144" height="144" viewBox="0 0 144 144" fill="none" xmlns="http://www.w3.org/2000/svg">
<g clip-path="url(#clip0_0_234)">
<path d="M126 94.1396V70.8896H102.72V76.8896H112.14C113.49 76.8896 114.15 78.5099 113.19 79.4399L80.9851 111.644C79.813 112.817 77.9125 112.816 76.7411 111.643L61.3425 96.2249L37.5601 120.007H24V113.208C24 110.583 25.0589 108.068 26.9371 106.233L61.0065 72.9541C62.1819 71.806 64.0621 71.817 65.224 72.9788L71.6627 79.4172L100.17 50.8726C101.1 49.9426 102.72 50.6021 102.72 51.9221V62.8125H108.72V38.0625H83.97V44.0625H94.86C96.21 44.0625 96.8699 45.6821 95.9099 46.6121L71.6777 70.9424L63.2102 62.4749L27.8084 96.4681C26.3783 97.8413 24 96.8278 24 94.8452V18H18V126H126V120H86.4547C84.4481 120 83.4451 117.572 84.8668 116.156L117.45 83.6997C118.38 82.7697 120 83.43 120 84.75V94.1396H126ZM51.4781 120.003C49.4741 120.002 48.4711 117.579 49.8882 116.162L59.2138 106.836C60.3854 105.664 62.285 105.664 63.4566 106.836L72.7819 116.162C74.1989 117.579 73.1959 120.002 71.1919 120.003L61.0357 120.007L51.4781 120.003Z" fill="black"/>
</g>
<defs>
<clipPath id="clip0_0_234">
<rect width="144" height="144" fill="white"/>
</clipPath>
</defs>
</svg>
