<svg width="144" height="144" viewBox="0 0 144 144" fill="none" xmlns="http://www.w3.org/2000/svg">
<g clip-path="url(#clip0_0_236)">
<path d="M100.5 18C87.93 18 77.04 25.41 72 36.09C66.96 25.41 56.07 18 43.5 18C26.13 18 12 32.13 12 49.5C12 90.48 68.07 124.17 70.47 125.58L72 126.48L73.53 125.58C75.93 124.17 132 90.48 132 49.5C132 32.13 117.87 18 100.5 18ZM41.19 24.09C54.72 22.89 66.3 32.34 68.58 45H75.42C77.67 32.37 89.25 22.92 102.78 24.09C117.39 25.38 127.41 39.36 125.73 53.94C125.16 58.89 123.69 63.75 121.59 68.43C120.63 70.59 118.47 72 116.1 72H88.62L75 87.9V55.23L54.36 78H30.99C28.83 78 26.85 76.83 25.77 74.97C21.93 68.46 19.2 61.53 18.3 54.39C16.47 39.63 26.37 25.41 41.19 24.09ZM72 119.46C66.69 116.1 48.69 104.04 34.92 87.72C33.69 86.25 34.71 84 36.63 84H57.03L69 70.77V104.1L91.38 78H112.08C113.94 78 114.99 80.1 113.88 81.6C99.87 101.01 77.94 115.68 72 119.46Z" fill="black"/>
</g>
<defs>
<clipPath id="clip0_0_236">
<rect width="144" height="144" fill="white"/>
</clipPath>
</defs>
</svg>
