<svg width="144" height="144" viewBox="0 0 144 144" fill="none" xmlns="http://www.w3.org/2000/svg">
<path d="M60 87H54V99H60V87Z" fill="black"/>
<path d="M75 75H69V99H75V75Z" fill="black"/>
<path d="M90 63H84V99H90V63Z" fill="black"/>
<path d="M57 63C52.05 63 48 58.95 48 54C48 49.05 52.05 45 57 45C61.95 45 66 49.05 66 54H60C60 52.35 58.65 51 57 51C55.35 51 54 52.35 54 54C54 55.65 55.35 57 57 57V63Z" fill="black"/>
<path d="M57 75C52.05 75 48 70.95 48 66H54C54 67.65 55.35 69 57 69C58.65 69 60 67.65 60 66C60 64.35 58.65 63 57 63V57C61.95 57 66 61.05 66 66C66 70.95 61.95 75 57 75Z" fill="black"/>
<path d="M60 42H54V48H60V42Z" fill="black"/>
<path d="M60 72H54V78H60V72Z" fill="black"/>
<path d="M72 117C74.4853 117 76.5 114.985 76.5 112.5C76.5 110.015 74.4853 108 72 108C69.5147 108 67.5 110.015 67.5 112.5C67.5 114.985 69.5147 117 72 117Z" fill="black"/>
<path d="M102 12H42C37.05 12 33 16.05 33 21V123C33 127.95 37.05 132 42 132H102C106.95 132 111 127.95 111 123V21C111 16.05 106.95 12 102 12ZM42 18H102C103.65 18 105 19.35 105 21V24C105 25.65 103.65 27 102 27H42C40.35 27 39 25.65 39 24V21C39 19.35 40.35 18 42 18ZM102 126H42C40.35 126 39 124.65 39 123V36C39 34.35 40.35 33 42 33H102C103.65 33 105 34.35 105 36V123C105 124.65 103.65 126 102 126Z" fill="black"/>
</svg>
