<svg width="144" height="144" viewBox="0 0 144 144" fill="none" xmlns="http://www.w3.org/2000/svg">
<g clip-path="url(#clip0_0_235)">
<path d="M96 78C91.05 78 87 73.95 87 69C87 64.05 91.05 60 96 60C100.95 60 105 64.05 105 69H99C99 67.35 97.65 66 96 66C94.35 66 93 67.35 93 69C93 70.65 94.35 72 96 72V78Z" fill="black"/>
<path d="M96 90C91.05 90 87 85.95 87 81H93C93 82.65 94.35 84 96 84C97.65 84 99 82.65 99 81C99 79.35 97.65 78 96 78V72C100.95 72 105 76.05 105 81C105 85.95 100.95 90 96 90Z" fill="black"/>
<path d="M99 57H93V63H99V57Z" fill="black"/>
<path d="M99 87H93V93H99V87Z" fill="black"/>
<path d="M63 120C65.4853 120 67.5 117.985 67.5 115.5C67.5 113.015 65.4853 111 63 111C60.5147 111 58.5 113.015 58.5 115.5C58.5 117.985 60.5147 120 63 120Z" fill="black"/>
<path d="M129 75C129 58.68 117.09 45.09 101.49 42.48C100.02 42.24 99 40.89 99 39.42V21C99 16.02 94.98 12 90 12H36C31.02 12 27 16.02 27 21V123C27 127.98 31.02 132 36 132H90C94.98 132 99 127.98 99 123V110.58C99 109.11 100.02 107.76 101.49 107.52C117.09 104.91 129 91.32 129 75ZM33 21C33 19.35 34.35 18 36 18H90C91.65 18 93 19.35 93 21V24C93 25.65 91.65 27 90 27H36C34.35 27 33 25.65 33 24V21ZM90 126H36C34.35 126 33 124.65 33 123V36C33 34.35 34.35 33 36 33H90C91.65 33 93 34.35 93 36V39.42C93 40.89 91.98 42.24 90.51 42.48C74.91 45.09 63 58.68 63 75C63 91.32 74.91 104.91 90.51 107.52C91.98 107.76 93 109.11 93 110.58V123C93 124.65 91.65 126 90 126ZM96 102C81.12 102 69 89.88 69 75C69 60.12 81.12 48 96 48C110.88 48 123 60.12 123 75C123 89.88 110.88 102 96 102Z" fill="black"/>
</g>
<defs>
<clipPath id="clip0_0_235">
<rect width="144" height="144" fill="white"/>
</clipPath>
</defs>
</svg>
