<svg width="144" height="144" viewBox="0 0 144 144" fill="none" xmlns="http://www.w3.org/2000/svg">
<path d="M132 75.0007V69.0007H122.58C121.02 69.0007 119.79 67.8007 119.61 66.2707C118.53 57.3307 115.02 49.1107 109.68 42.3607C108.72 41.1607 108.78 39.4507 109.86 38.3707L125.13 23.1007L120.9 18.8707L105.66 34.1107C104.58 35.1907 102.84 35.2507 101.64 34.2907C94.8901 28.9807 86.7001 25.4407 77.7601 24.3907C76.2301 24.2107 75.0601 22.9807 75.0601 21.4207V11.9707H69.0601V21.3907C69.0601 22.9507 67.8601 24.1807 66.3301 24.3607C57.3901 25.4407 49.2001 28.9507 42.4501 34.2607C41.2201 35.2207 39.5101 35.1907 38.4301 34.0807L23.1901 18.8407L18.9601 23.0707L34.2001 38.3107C35.2801 39.3907 35.3401 41.1307 34.3801 42.3307C29.0701 49.0807 25.5301 57.2707 24.4801 66.2107C24.3001 67.7407 23.0401 68.9407 21.5101 68.9407H12.0901V74.9407H21.5101C23.0701 74.9407 24.3001 76.1107 24.4801 77.6707C25.5601 86.6107 29.0701 94.8007 34.3801 101.551C35.3401 102.781 35.2801 104.491 34.2001 105.571L18.9601 120.811L23.1901 125.041L38.4301 109.801C39.5101 108.721 41.2501 108.661 42.4501 109.621C49.2001 114.931 57.4201 118.471 66.3901 119.521C67.8901 119.701 69.0601 120.901 69.0601 122.431V131.911H75.0601V122.491C75.0601 120.931 76.2601 119.701 77.7901 119.521C86.7601 118.441 94.9501 114.901 101.7 109.591C102.9 108.631 104.58 108.691 105.66 109.771L120.93 125.041L125.16 120.811L109.92 105.571C108.84 104.491 108.78 102.751 109.74 101.551C115.05 94.8007 118.59 86.6107 119.64 77.6407C119.82 76.1107 121.05 74.9407 122.58 74.9407H132.03L132 75.0007ZM72.0001 114.001C48.8401 114.001 30.0001 95.1607 30.0001 72.0007C30.0001 48.8407 48.8401 30.0007 72.0001 30.0007C95.1601 30.0007 114 48.8407 114 72.0007C114 95.1607 95.1601 114.001 72.0001 114.001Z" fill="black"/>
<path d="M59.1299 101.132L54.8999 96.9023L74.2199 77.5823C75.1499 76.6523 74.49 75.0323 73.17 75.0323H49.7999L81.9299 42.9023L86.1599 47.1323L66.84 66.4523C65.91 67.3823 66.5699 69.0023 67.8899 69.0023H91.2599L59.1299 101.132Z" fill="black"/>
</svg>
