<svg width="144" height="144" viewBox="0 0 144 144" fill="none" xmlns="http://www.w3.org/2000/svg">
<path d="M120 96L132.36 30H24.36L12 96H57C58.65 96 60 97.35 60 99V108C60 109.65 58.65 111 57 111H24V117H120V111H87C85.35 111 84 109.65 84 108V99C84 97.35 85.35 96 87 96H120ZM83.1 36H96.54C98.43 36 99.84 37.71 99.48 39.54L96.12 57.54C95.85 58.95 94.62 60 93.18 60H79.74C77.85 60 76.44 58.29 76.8 56.46L80.16 38.46C80.43 37.05 81.66 36 83.1 36ZM67.53 60H54.09C52.2 60 50.79 58.29 51.15 56.46L54.51 38.46C54.78 37.05 56.01 36 57.45 36H70.89C72.78 36 74.19 37.71 73.83 39.54L70.47 57.54C70.2 58.95 68.97 60 67.53 60ZM93.87 69.54L90.51 87.54C90.24 88.95 89.01 90 87.57 90H74.13C72.24 90 70.83 88.29 71.19 86.46L74.55 68.46C74.82 67.05 76.05 66 77.49 66H90.93C92.82 66 94.23 67.71 93.87 69.54ZM96.81 86.46L100.17 68.46C100.44 67.05 101.67 66 103.11 66H115.86C117.75 66 119.16 67.71 118.8 69.54L115.44 87.54C115.17 88.95 113.94 90 112.5 90H99.75C97.86 90 96.45 88.29 96.81 86.46ZM118.14 60H105.39C103.5 60 102.09 58.29 102.45 56.46L105.81 38.46C106.08 37.05 107.31 36 108.75 36H121.5C123.39 36 124.8 37.71 124.44 39.54L121.08 57.54C120.81 58.95 119.58 60 118.14 60ZM48.18 39.54L44.82 57.54C44.55 58.95 43.32 60 41.88 60H28.47C26.58 60 25.17 58.29 25.53 56.46L28.89 38.46C29.16 37.05 30.39 36 31.83 36H45.24C47.13 36 48.54 37.71 48.18 39.54ZM26.22 66H39.63C41.52 66 42.93 67.71 42.57 69.54L39.21 87.54C38.94 88.95 37.71 90 36.27 90H22.86C20.97 90 19.56 88.29 19.92 86.46L23.28 68.46C23.55 67.05 24.78 66 26.22 66ZM45.51 86.46L48.87 68.46C49.14 67.05 50.37 66 51.81 66H65.25C67.14 66 68.55 67.71 68.19 69.54L64.83 87.54C64.56 88.95 63.33 90 61.89 90H48.45C46.56 90 45.15 88.29 45.51 86.46ZM75 111H69C67.35 111 66 109.65 66 108V99C66 97.35 67.35 96 69 96H75C76.65 96 78 97.35 78 99V108C78 109.65 76.65 111 75 111Z" fill="black"/>
</svg>
