<svg width="54" height="14" viewBox="0 0 54 14" fill="none" xmlns="http://www.w3.org/2000/svg">
<path d="M14 7C14 3.13401 10.866 0 7 0C3.13401 0 0 3.13401 0 7C0 10.866 3.13401 14 7 14C10.866 14 14 10.866 14 7Z" fill="#44484F"/>
<path d="M5.54144 4.08325L8.31993 8.89575H2.76294L5.54144 4.08325Z" fill="white"/>
<path d="M8.45819 4.08325L11.2367 8.89575H5.67969L8.45819 4.08325Z" fill="#D9DDE3"/>
<path d="M53.3076 6.9968C53.3076 7.71734 53.218 8.37393 53.039 8.96657C52.8599 9.55494 52.587 10.0623 52.2204 10.4887C51.8579 10.915 51.3975 11.2433 50.839 11.4735C50.2804 11.6995 49.6196 11.8125 48.8564 11.8125C48.0932 11.8125 47.4324 11.6995 46.8738 11.4735C46.3153 11.2433 45.8527 10.915 45.486 10.4887C45.1236 10.0623 44.8529 9.55281 44.6738 8.96017C44.4948 8.36754 44.4052 7.70882 44.4052 6.98401C44.4052 6.01618 44.563 5.17413 44.8785 4.45785C45.1983 3.73731 45.6886 3.17878 46.3494 2.78227C47.0103 2.38576 47.8502 2.1875 48.8692 2.1875C49.8839 2.1875 50.7174 2.38576 51.3698 2.78227C52.0264 3.17878 52.5124 3.73731 52.8279 4.45785C53.1477 5.17839 53.3076 6.02471 53.3076 6.9968ZM46.4837 6.9968C46.4837 7.64913 46.5647 8.21192 46.7267 8.68517C46.893 9.15417 47.151 9.51657 47.5006 9.77238C47.8502 10.0239 48.3021 10.1497 48.8564 10.1497C49.4192 10.1497 49.8754 10.0239 50.225 9.77238C50.5746 9.51657 50.8283 9.15417 50.986 8.68517C51.1481 8.21192 51.2291 7.64913 51.2291 6.9968C51.2291 6.01618 51.0457 5.24448 50.6791 4.68169C50.3124 4.1189 49.7091 3.8375 48.8692 3.8375C48.3107 3.8375 47.8545 3.96541 47.5006 4.22122C47.151 4.47277 46.893 4.83517 46.7267 5.30843C46.5647 5.77742 46.4837 6.34021 46.4837 6.9968Z" fill="#44484F"/>
<path d="M38.8797 6.43401H42.589V11.2817C42.0986 11.4437 41.5891 11.5737 41.0605 11.6718C40.5318 11.7656 39.9328 11.8125 39.2634 11.8125C38.3339 11.8125 37.5452 11.6292 36.8971 11.2625C36.249 10.8958 35.7566 10.3544 35.4198 9.63808C35.0829 8.9218 34.9145 8.04138 34.9145 6.9968C34.9145 6.01618 35.1021 5.16773 35.4773 4.45145C35.8568 3.73517 36.4089 3.18091 37.1337 2.78866C37.8628 2.39641 38.7517 2.20029 39.8006 2.20029C40.2952 2.20029 40.7833 2.25359 41.2651 2.36017C41.7469 2.46676 42.1839 2.60533 42.5762 2.77587L41.9174 4.36192C41.6318 4.21696 41.3056 4.09545 40.939 3.99738C40.5723 3.89932 40.1886 3.85029 39.7878 3.85029C39.2122 3.85029 38.7112 3.98246 38.2849 4.2468C37.8628 4.51114 37.5345 4.88207 37.3 5.35959C37.0698 5.83285 36.9547 6.39138 36.9547 7.03517C36.9547 7.64486 37.0378 8.18634 37.2041 8.65959C37.3703 9.12859 37.6326 9.49738 37.9907 9.76599C38.3488 10.0303 38.8157 10.1625 39.3913 10.1625C39.6727 10.1625 39.9093 10.1497 40.1012 10.1241C40.2973 10.0943 40.4806 10.0644 40.6512 10.0346V8.08401H38.8797V6.43401Z" fill="#44484F"/>
<path d="M33.3924 6.9968C33.3924 7.71734 33.3029 8.37393 33.1238 8.96657C32.9448 9.55494 32.6719 10.0623 32.3052 10.4887C31.9428 10.915 31.4824 11.2433 30.9238 11.4735C30.3653 11.6995 29.7045 11.8125 28.9413 11.8125C28.1781 11.8125 27.5172 11.6995 26.9587 11.4735C26.4002 11.2433 25.9376 10.915 25.5709 10.4887C25.2085 10.0623 24.9378 9.55281 24.7587 8.96017C24.5797 8.36754 24.4901 7.70882 24.4901 6.98401C24.4901 6.01618 24.6479 5.17413 24.9634 4.45785C25.2831 3.73731 25.7735 3.17878 26.4343 2.78227C27.0952 2.38576 27.9351 2.1875 28.9541 2.1875C29.9688 2.1875 30.8023 2.38576 31.4547 2.78227C32.1112 3.17878 32.5973 3.73731 32.9128 4.45785C33.2326 5.17839 33.3924 6.02471 33.3924 6.9968ZM26.5686 6.9968C26.5686 7.64913 26.6496 8.21192 26.8116 8.68517C26.9779 9.15417 27.2359 9.51657 27.5855 9.77238C27.9351 10.0239 28.387 10.1497 28.9413 10.1497C29.5041 10.1497 29.9603 10.0239 30.3099 9.77238C30.6595 9.51657 30.9132 9.15417 31.0709 8.68517C31.2329 8.21192 31.314 7.64913 31.314 6.9968C31.314 6.01618 31.1306 5.24448 30.764 4.68169C30.3973 4.1189 29.794 3.8375 28.9541 3.8375C28.3955 3.8375 27.9393 3.96541 27.5855 4.22122C27.2359 4.47277 26.9779 4.83517 26.8116 5.30843C26.6496 5.77742 26.5686 6.34021 26.5686 6.9968Z" fill="#44484F"/>
<path d="M17.5 11.6846V2.33459H19.4826V10.0474H23.275V11.6846H17.5Z" fill="#44484F"/>
</svg>