<svg xmlns="http://www.w3.org/2000/svg" xmlns:xlink="http://www.w3.org/1999/xlink" version="1.1" width="54" height="28" viewBox="0 0 54 28" >
<path d="M7.61719 19V6.15039H10.3418V16.75H15.5537V19H7.61719ZM19.7197 14.0693C19.7197 15.042 19.8779 15.7773 20.1943 16.2754C20.5166 16.7734 21.0381 17.0225 21.7588 17.0225C22.4736 17.0225 22.9863 16.7764 23.2969 16.2842C23.6133 15.7861 23.7715 15.0479 23.7715 14.0693C23.7715 13.0967 23.6133 12.3672 23.2969 11.8809C22.9805 11.3945 22.4619 11.1514 21.7412 11.1514C21.0264 11.1514 20.5107 11.3945 20.1943 11.8809C19.8779 12.3613 19.7197 13.0908 19.7197 14.0693ZM26.5137 14.0693C26.5137 15.6689 26.0918 16.9199 25.248 17.8223C24.4043 18.7246 23.2295 19.1758 21.7236 19.1758C20.7803 19.1758 19.9482 18.9707 19.2275 18.5605C18.5068 18.1445 17.9531 17.5498 17.5664 16.7764C17.1797 16.0029 16.9863 15.1006 16.9863 14.0693C16.9863 12.4639 17.4053 11.2158 18.2432 10.3252C19.0811 9.43457 20.2588 8.98926 21.7764 8.98926C22.7197 8.98926 23.5518 9.19434 24.2725 9.60449C24.9932 10.0146 25.5469 10.6035 25.9336 11.3711C26.3203 12.1387 26.5137 13.0381 26.5137 14.0693ZM37.2803 9.17383V10.5361L35.7422 10.9316C36.0234 11.3711 36.1641 11.8633 36.1641 12.4082C36.1641 13.4629 35.7949 14.2861 35.0566 14.8779C34.3242 15.4639 33.3047 15.7568 31.998 15.7568L31.5146 15.7305L31.1191 15.6865C30.8438 15.8975 30.7061 16.1318 30.7061 16.3896C30.7061 16.7764 31.1982 16.9697 32.1826 16.9697H33.8525C34.9307 16.9697 35.751 17.2012 36.3135 17.6641C36.8818 18.127 37.166 18.8066 37.166 19.7031C37.166 20.8516 36.6855 21.7422 35.7246 22.375C34.7695 23.0078 33.3955 23.3242 31.6025 23.3242C30.2314 23.3242 29.1826 23.084 28.4561 22.6035C27.7354 22.1289 27.375 21.4609 27.375 20.5996C27.375 20.0078 27.5596 19.5127 27.9287 19.1143C28.2979 18.7158 28.8398 18.4316 29.5547 18.2617C29.2793 18.1445 29.0391 17.9541 28.834 17.6904C28.6289 17.4209 28.5264 17.1367 28.5264 16.8379C28.5264 16.4629 28.6348 16.1523 28.8516 15.9062C29.0684 15.6543 29.3818 15.4082 29.792 15.168C29.2764 14.9453 28.8662 14.5879 28.5615 14.0957C28.2627 13.6035 28.1133 13.0234 28.1133 12.3555C28.1133 11.2832 28.4619 10.4541 29.1592 9.86816C29.8564 9.28223 30.8525 8.98926 32.1475 8.98926C32.4229 8.98926 32.748 9.01562 33.123 9.06836C33.5039 9.11523 33.7471 9.15039 33.8525 9.17383H37.2803ZM29.6953 20.3887C29.6953 20.7578 29.8711 21.0479 30.2227 21.2588C30.5801 21.4697 31.0781 21.5752 31.7168 21.5752C32.6777 21.5752 33.4307 21.4434 33.9756 21.1797C34.5205 20.916 34.793 20.5557 34.793 20.0986C34.793 19.7295 34.6318 19.4746 34.3096 19.334C33.9873 19.1934 33.4893 19.123 32.8154 19.123H31.4268C30.9346 19.123 30.5215 19.2373 30.1875 19.4658C29.8594 19.7002 29.6953 20.0078 29.6953 20.3887ZM30.6709 12.3906C30.6709 12.9238 30.791 13.3457 31.0312 13.6562C31.2773 13.9668 31.6494 14.1221 32.1475 14.1221C32.6514 14.1221 33.0205 13.9668 33.2549 13.6562C33.4893 13.3457 33.6064 12.9238 33.6064 12.3906C33.6064 11.207 33.1201 10.6152 32.1475 10.6152C31.1631 10.6152 30.6709 11.207 30.6709 12.3906ZM41.042 14.0693C41.042 15.042 41.2002 15.7773 41.5166 16.2754C41.8389 16.7734 42.3604 17.0225 43.0811 17.0225C43.7959 17.0225 44.3086 16.7764 44.6191 16.2842C44.9355 15.7861 45.0938 15.0479 45.0938 14.0693C45.0938 13.0967 44.9355 12.3672 44.6191 11.8809C44.3027 11.3945 43.7842 11.1514 43.0635 11.1514C42.3486 11.1514 41.833 11.3945 41.5166 11.8809C41.2002 12.3613 41.042 13.0908 41.042 14.0693ZM47.8359 14.0693C47.8359 15.6689 47.4141 16.9199 46.5703 17.8223C45.7266 18.7246 44.5518 19.1758 43.0459 19.1758C42.1025 19.1758 41.2705 18.9707 40.5498 18.5605C39.8291 18.1445 39.2754 17.5498 38.8887 16.7764C38.502 16.0029 38.3086 15.1006 38.3086 14.0693C38.3086 12.4639 38.7275 11.2158 39.5654 10.3252C40.4033 9.43457 41.5811 8.98926 43.0986 8.98926C44.042 8.98926 44.874 9.19434 45.5947 9.60449C46.3154 10.0146 46.8691 10.6035 47.2559 11.3711C47.6426 12.1387 47.8359 13.0381 47.8359 14.0693Z" />
</svg>
