<svg width="234" height="44" viewBox="0 0 234 44" fill="none" xmlns="http://www.w3.org/2000/svg">
<path d="M5.01679 11.4119H12.0496V11.9928H9.72565V23.0083C9.72565 27.1449 7.69802 28.3911 3.89839 28.3911C0.711704 28.3911 0 27.1972 0 25.6401C0 25.3003 0.148151 24.147 1.31012 24.147C2.47208 24.147 2.5418 24.9023 2.5418 26.1398C2.5418 26.6598 2.76548 27.6649 4.12788 27.6649C6.28914 27.6649 7.26228 26.7062 7.26228 23.3075V11.9928H5.01679V11.4119Z" fill="#3A2206"/>
<path d="M12.4505 25.8559C12.6187 25.7905 12.7985 25.76 12.9788 25.7661C13.1605 25.7596 13.3416 25.79 13.5113 25.8554C13.681 25.9207 13.8356 26.0198 13.966 26.1465C14.0959 26.2676 14.1988 26.4148 14.2678 26.5784C14.3369 26.742 14.3706 26.9184 14.3667 27.0959C14.3711 27.2706 14.3375 27.4441 14.2683 27.6045C14.1992 27.7649 14.096 27.9084 13.966 28.0251C13.8349 28.1511 13.6802 28.2501 13.5108 28.3163C13.3414 28.3826 13.1607 28.4148 12.9788 28.4112C12.7987 28.4151 12.6196 28.3829 12.4521 28.3166C12.2845 28.2502 12.132 28.1511 12.0032 28.0251C11.872 27.909 11.7677 27.7658 11.6975 27.6053C11.6273 27.4449 11.5929 27.271 11.5968 27.0959C11.5936 26.9182 11.6279 26.7418 11.6974 26.5782C11.767 26.4147 11.8702 26.2675 12.0003 26.1465C12.1292 26.0202 12.2824 25.9213 12.4505 25.8559Z" fill="#3A2206"/>
<path d="M28.562 25.766C28.3841 25.7621 28.2072 25.7938 28.0417 25.8591C27.8762 25.9244 27.7254 26.0221 27.598 26.1463C27.4696 26.2683 27.3681 26.4158 27.3001 26.5793C27.2321 26.7428 27.1991 26.9187 27.2031 27.0958C27.1979 27.27 27.2304 27.4433 27.2986 27.6037C27.3668 27.7641 27.4689 27.9078 27.598 28.0249C27.8661 28.2722 28.2175 28.4095 28.5823 28.4095C28.9471 28.4095 29.2985 28.2722 29.5666 28.0249C29.6974 27.9087 29.8013 27.7654 29.871 27.6049C29.9408 27.4445 29.9746 27.2707 29.9702 27.0958C29.9741 26.9182 29.9404 26.7419 29.8713 26.5782C29.8023 26.4146 29.6994 26.2674 29.5695 26.1463C29.436 26.0182 29.2778 25.9184 29.1047 25.8531C28.9315 25.7877 28.7469 25.7581 28.562 25.766Z" fill="#3A2206"/>
<path fill-rule="evenodd" clip-rule="evenodd" d="M16.803 11.4125H23.6738C29.0514 11.4125 29.9694 13.4142 29.9694 16.2002C29.9694 18.9863 28.4762 21.02 23.1596 21.02H21.3293V25.4388C21.3111 25.8008 21.3746 26.1623 21.5153 26.4963C21.5992 26.6765 21.7202 26.8369 21.8704 26.967C22.0206 27.0972 22.1966 27.1942 22.3868 27.2517C22.8475 27.385 23.3251 27.4506 23.8046 27.4463V27.9751H16.4224V27.4405C16.9007 27.449 17.3769 27.3773 17.8315 27.2284C18.0141 27.1671 18.1819 27.0682 18.324 26.9381C18.4661 26.808 18.5794 26.6496 18.6566 26.4731C18.7728 26.1796 18.8367 25.9182 18.8367 24.9014V11.9935H16.803V11.4125ZM21.3323 20.3808H22.7355C25.9864 20.3808 27.5988 19.0096 27.5988 16.3455C27.5988 13.6814 26.704 12.0545 22.6018 12.0545L21.3323 12.0719V20.3808Z" fill="#3A2206"/>
<path d="M51.8868 26.4281C51.7797 26.0623 51.7317 25.6819 51.7444 25.301V11.9965C51.7444 11.9965 53.5455 11.9965 53.5251 11.979C53.515 11.8039 53.515 11.6284 53.5251 11.4533H49.1678C49.1068 11.6043 43.9593 24.0664 43.9593 24.0664C43.9484 24.0891 43.9313 24.1083 43.91 24.1218C43.8886 24.1352 43.8639 24.1424 43.8387 24.1424C43.8135 24.1424 43.7888 24.1352 43.7675 24.1218C43.7461 24.1083 43.729 24.0891 43.7182 24.0664C43.7182 24.0664 38.2337 11.6043 38.1698 11.4533H33.3244V11.9849H35.4246V24.8013L35.3781 25.9633C35.3509 26.25 35.2509 26.5249 35.0877 26.7621C34.8948 27.0218 34.6225 27.2115 34.312 27.3025C33.989 27.3891 33.6559 27.433 33.3215 27.4332V27.9648H38.1233V27.4448C37.8429 27.4444 37.5644 27.3993 37.2983 27.3112C36.9835 27.2275 36.7049 27.0428 36.5053 26.7854C36.3423 26.5416 36.2424 26.2611 36.2148 25.9691L36.1596 24.8071V13.7336H36.4501C36.4501 13.7336 42.6608 27.8166 42.7247 27.9677H43.2447L49.1213 13.8847H49.2724V25.301C49.2845 25.6939 49.2335 26.0862 49.1213 26.4629C49.0591 26.6347 48.9622 26.792 48.8368 26.9249C48.7114 27.0578 48.5601 27.1635 48.3922 27.2356C47.9995 27.3745 47.5857 27.4443 47.1692 27.4419V27.9735H53.8737V27.439C53.4538 27.4364 53.0374 27.3627 52.6421 27.2211C52.4674 27.1496 52.3098 27.042 52.1796 26.9053C52.0495 26.7687 51.9497 26.606 51.8868 26.4281Z" fill="#3A2206"/>
<path fill-rule="evenodd" clip-rule="evenodd" d="M55.0919 22.1726C55.0919 18.1493 57.3258 15.8456 60.9018 15.8456C64.2193 15.8456 66.6681 18.0389 66.6768 22.068C66.6768 27.2359 62.8656 28.4589 60.8321 28.4589C59.8125 28.4589 55.0919 28.0696 55.0919 22.1726ZM57.75 22.2365C57.75 26.4196 58.1683 27.7268 60.8554 27.7268C63.2577 27.7268 64.0014 26.2657 64.0014 22.0332C64.0014 19.0876 63.984 16.5777 60.8554 16.5777C57.9591 16.5777 57.75 19.0033 57.75 22.2365Z" fill="#3A2206"/>
<path d="M76.0238 16.0258C73.8862 16.0258 73.2182 17.2543 72.6286 18.5032C72.5725 18.5 72.5163 18.5 72.4602 18.5032C72.4517 18.5032 72.3802 18.0782 72.296 17.5785C72.2061 17.0445 72.1018 16.4253 72.0448 16.1477H67.9033V16.7664H70.1454C70.1454 16.7664 70.1309 18.6135 70.1309 19.2786V24.9246C70.1692 25.5109 70.0759 26.0984 69.8579 26.644C69.6284 27.0448 69.1144 27.2481 68.2634 27.2481H67.9033V27.9684H74.8417V27.2481H74.467C73.558 27.2481 73.163 27.0564 72.919 26.6672C72.6983 26.3303 72.5996 25.7582 72.5996 24.9246V20.6785C72.5996 19.2496 73.709 17.6202 75.0392 17.6202C75.6496 17.6202 75.9855 18.0206 76.3032 18.3993C76.7096 18.8837 77.0862 19.3327 77.9697 18.8633C78.8264 18.4073 78.6841 16.0258 76.0238 16.0258Z" fill="#3A2206"/>
<path fill-rule="evenodd" clip-rule="evenodd" d="M102.64 25.6839C102.695 26.352 102.931 26.7529 103.674 26.7529C104.11 26.7529 104.644 26.3114 104.755 25.4748H105.17C105.057 27.3977 104.093 28.1675 102.477 28.1675C101.04 28.1675 100.25 27.1799 100.113 26.352C99.2648 27.2264 98.0158 28.3156 96.0464 28.3156C94.2629 28.3156 92.8831 26.9824 92.796 25.4603C92.5636 21.6239 97.6825 21.1776 99.952 20.9797L100.035 20.9725V19.003C100.068 18.3847 99.8974 17.7725 99.5495 17.2602C99.2067 16.8041 98.5909 16.5776 97.7195 16.5776C96.973 16.5776 96.4182 16.7577 96.0638 17.1179C95.7213 17.4952 95.5165 17.9774 95.4829 18.486C95.3405 19.3661 94.9513 19.706 94.2629 19.706C93.9872 19.7168 93.7176 19.6235 93.5076 19.4446C93.3984 19.3472 93.3135 19.2254 93.26 19.0892C93.2066 18.9529 93.1859 18.806 93.1997 18.6603C93.1997 17.8847 93.4873 17.3619 94.2977 16.7577C95.1081 16.1535 96.3862 15.8427 98.1029 15.8427C99.8923 15.8427 101.118 16.168 101.769 16.7983C102.419 17.4287 102.597 18.149 102.597 19.218V24.1677L102.64 25.6839ZM100.03 25.5532C100.038 25.5368 100.04 25.5187 100.037 25.5009V21.6928C98.3353 21.6928 95.2272 22.7937 95.2272 24.9984C95.2272 25.6868 95.4829 27.0637 97.1821 27.0637C97.8473 27.0637 98.7536 26.689 99.9445 25.6404L99.9968 25.5939C100.012 25.5838 100.023 25.5697 100.03 25.5532Z" fill="#3A2206"/>
<path d="M117.905 26.6784C117.587 26.1486 117.436 25.535 117.472 24.918L117.501 19.5553C117.536 18.8705 117.397 18.188 117.097 17.5712C116.807 17.0567 116.368 16.6409 115.839 16.3773C115.267 16.1078 114.639 15.9736 114.006 15.9851C111.566 15.9851 110.587 17.4376 110.056 18.28H109.832L109.399 16.1303H105.623V16.7317C106.331 16.7607 107.511 16.7723 107.511 16.7723V24.9064C107.528 25.3747 107.479 25.8431 107.366 26.2979C107.318 26.4704 107.23 26.629 107.109 26.7604C106.988 26.8918 106.836 26.9922 106.668 27.0532C106.331 27.1649 105.978 27.2217 105.623 27.2217V27.9741H111.621V27.2217C111.017 27.1752 110.61 27.0154 110.393 26.7162C110.175 26.417 110.053 25.8447 110.053 25.0429V21.9171C110.053 20.6099 110.053 19.3433 110.503 18.5647C110.752 18.1491 111.108 17.8075 111.533 17.5752C111.959 17.3428 112.438 17.2281 112.923 17.2429C113.838 17.2429 114.317 17.5335 114.616 18.0912C114.863 18.5473 115.023 19.9127 115.023 20.851L114.997 24.7205C115.032 25.1961 115.041 25.6731 115.026 26.1497C115.003 26.3159 114.945 26.4752 114.854 26.6166C114.764 26.758 114.644 26.8782 114.503 26.9689C114.207 27.1266 113.877 27.2104 113.542 27.213V27.9741H119.323V27.2275C118.591 27.181 118.114 27.0096 117.905 26.6784Z" fill="#3A2206"/>
<path fill-rule="evenodd" clip-rule="evenodd" d="M90.0219 16.3104C90.1468 15.7875 90.385 15.4767 90.7423 15.3663C91.3988 15.1716 91.8287 15.4244 92.0553 16.1215C92.1092 16.2953 92.1252 16.4785 92.1022 16.659C92.0791 16.8394 92.0176 17.0128 91.9217 17.1673C91.8048 17.3665 91.6488 17.54 91.4631 17.6773C91.2773 17.8146 91.0658 17.9128 90.841 17.9662C90.3462 18.1098 89.8222 18.1208 89.3218 17.9981C89.6407 18.6932 89.8034 19.4498 89.7982 20.2146C89.7982 23.349 87.3784 24.2873 84.6942 24.6881C82.0101 25.089 81.3245 25.4115 81.3245 26.2219C81.3245 26.7681 81.6818 27.0934 83.5352 27.0934C84.0919 27.119 84.6039 27.1366 85.0763 27.1528C87.8745 27.249 89.2784 27.2972 90.3123 28.6766C90.714 29.2849 90.9123 30.005 90.8788 30.7333C90.8699 31.411 90.6847 32.0748 90.3414 32.6592C89.9986 33.2983 89.3566 33.8473 88.4329 34.3034C87.5091 34.7595 86.2164 34.9977 84.6245 34.9977C83.4817 35.02 82.3427 34.8571 81.2519 34.5155C80.3979 34.2569 79.2795 33.5975 79.2795 32.1915C79.2583 31.8127 79.3514 31.4362 79.5467 31.1109C79.6646 30.9499 79.8236 30.8234 80.007 30.7447C80.1905 30.666 80.3916 30.638 80.5896 30.6635C81.2519 30.771 81.4582 31.3578 81.3391 31.9156C81.2475 32.231 81.2596 32.5674 81.3736 32.8755C81.4876 33.1835 81.6975 33.4467 81.9723 33.6266C82.8438 34.1523 83.8082 34.2773 84.9876 34.2773C86.3616 34.2773 87.4655 34.0478 88.276 33.612C89.1446 33.1385 89.5803 32.5024 89.5803 31.7093C89.594 31.456 89.5456 31.2031 89.4393 30.9728C89.3329 30.7424 89.1719 30.5415 88.9703 30.3876C88.4991 30.0796 87.9573 29.8966 87.3958 29.856C86.78 29.7863 85.8388 29.7253 84.5083 29.7253C82.989 29.6991 81.7893 29.5219 80.9178 29.182C80.1393 28.8741 79.5293 28.3077 79.5293 27.2764C79.5293 25.5538 81.1647 25.0251 83.0152 24.662C83.1314 24.6359 83.1314 24.4935 83.0007 24.4674C80.8249 24.0229 79.8372 22.8145 79.8372 20.3162C79.8372 18.184 81.3274 15.8456 84.7058 15.8456C86.8032 15.8456 87.9971 16.5282 88.6188 17.0889C88.8964 17.1972 89.2007 17.2175 89.4902 17.147C89.7313 17.0685 89.8969 16.8333 90.0219 16.3104ZM82.2948 20.3162C82.2948 23.4361 83.1982 23.9939 84.7756 23.9939C86.2542 23.9939 87.3203 23.5581 87.3203 20.2552C87.3203 17.9691 86.7451 16.4789 84.7756 16.4789C83.0849 16.4789 82.2948 18.1143 82.2948 20.3162Z" fill="#3A2206"/>
<rect x="127.323" y="14" width="1" height="16" fill="black" fill-opacity="0.2"/>
<path d="M141.828 23.9106C141.828 24.3761 141.712 24.7736 141.479 25.103C141.25 25.4289 140.927 25.6777 140.512 25.8496C140.097 26.0215 139.608 26.1074 139.046 26.1074C138.749 26.1074 138.467 26.0931 138.202 26.0645C137.938 26.0358 137.694 25.9946 137.472 25.9409C137.25 25.8872 137.055 25.821 136.887 25.7422V24.8667C137.155 24.9777 137.483 25.0815 137.869 25.1782C138.256 25.2713 138.661 25.3179 139.083 25.3179C139.477 25.3179 139.81 25.266 140.082 25.1621C140.355 25.0547 140.56 24.9025 140.7 24.7056C140.843 24.505 140.915 24.2651 140.915 23.9858C140.915 23.7173 140.856 23.4935 140.738 23.3145C140.619 23.1318 140.423 22.9671 140.147 22.8203C139.875 22.6699 139.502 22.5106 139.03 22.3423C138.697 22.2241 138.403 22.0952 138.149 21.9556C137.895 21.8123 137.681 21.6512 137.51 21.4722C137.338 21.2931 137.207 21.0854 137.118 20.8491C137.032 20.6128 136.989 20.3424 136.989 20.0381C136.989 19.6191 137.094 19.2611 137.306 18.9639C137.52 18.6631 137.816 18.4339 138.192 18.2764C138.571 18.1152 139.006 18.0347 139.497 18.0347C139.916 18.0347 140.303 18.0741 140.657 18.1528C141.015 18.2316 141.343 18.3372 141.64 18.4697L141.355 19.2539C141.072 19.1357 140.772 19.0373 140.453 18.9585C140.138 18.8797 139.812 18.8403 139.475 18.8403C139.139 18.8403 138.854 18.8905 138.621 18.9907C138.392 19.0874 138.217 19.2253 138.095 19.4043C137.973 19.5833 137.912 19.7964 137.912 20.0435C137.912 20.3192 137.97 20.5483 138.084 20.731C138.202 20.9136 138.389 21.0765 138.643 21.2197C138.901 21.3594 139.241 21.5062 139.663 21.6602C140.125 21.8285 140.517 22.0075 140.84 22.1973C141.162 22.3835 141.407 22.6126 141.576 22.8848C141.744 23.1533 141.828 23.4953 141.828 23.9106ZM145.502 20.0166C146.204 20.0166 146.725 20.1742 147.065 20.4893C147.405 20.8044 147.575 21.3075 147.575 21.9985V26H146.925L146.753 25.1299H146.71C146.546 25.3447 146.374 25.5256 146.195 25.6724C146.016 25.8156 145.808 25.9248 145.572 26C145.339 26.0716 145.052 26.1074 144.712 26.1074C144.354 26.1074 144.035 26.0448 143.756 25.9194C143.48 25.7941 143.262 25.6043 143.101 25.3501C142.943 25.0959 142.865 24.7736 142.865 24.3833C142.865 23.7961 143.097 23.3449 143.563 23.0298C144.028 22.7147 144.737 22.5428 145.69 22.5142L146.705 22.4712V22.1113C146.705 21.6029 146.596 21.2466 146.377 21.0425C146.159 20.8384 145.851 20.7363 145.453 20.7363C145.146 20.7363 144.852 20.7811 144.573 20.8706C144.293 20.9601 144.028 21.0658 143.778 21.1875L143.504 20.5107C143.769 20.3747 144.073 20.2583 144.417 20.1616C144.761 20.0649 145.122 20.0166 145.502 20.0166ZM146.694 23.0996L145.797 23.1372C145.063 23.1659 144.546 23.2858 144.245 23.4971C143.944 23.7083 143.794 24.0073 143.794 24.394C143.794 24.7306 143.896 24.9795 144.1 25.1406C144.304 25.3018 144.574 25.3823 144.911 25.3823C145.434 25.3823 145.862 25.2373 146.195 24.9473C146.528 24.6572 146.694 24.2222 146.694 23.6421V23.0996ZM150.309 26H149.412V17.6426H150.309V26ZM154.096 25.377C154.242 25.377 154.393 25.3644 154.547 25.3394C154.701 25.3143 154.826 25.2839 154.923 25.248V25.9409C154.819 25.9875 154.674 26.0269 154.488 26.0591C154.305 26.0913 154.126 26.1074 153.951 26.1074C153.639 26.1074 153.356 26.0537 153.102 25.9463C152.848 25.8353 152.644 25.6491 152.49 25.3877C152.339 25.1263 152.264 24.7646 152.264 24.3027V20.8115H151.426V20.3765L152.269 20.0273L152.624 18.749H153.161V20.1133H154.885V20.8115H153.161V24.2759C153.161 24.6447 153.245 24.9204 153.413 25.103C153.585 25.2856 153.813 25.377 154.096 25.377ZM165.343 21.9985C165.343 22.883 165.181 23.6224 164.859 24.2168C164.537 24.8076 164.07 25.2534 163.457 25.5542C162.849 25.8514 162.109 26 161.239 26H159.107V18.1475H161.475C162.274 18.1475 162.961 18.2943 163.538 18.5879C164.114 18.8779 164.558 19.3094 164.87 19.8823C165.185 20.4517 165.343 21.1571 165.343 21.9985ZM164.381 22.0308C164.381 21.3254 164.263 20.7435 164.027 20.2852C163.794 19.8268 163.45 19.4867 162.995 19.2646C162.544 19.0391 161.991 18.9263 161.336 18.9263H160.02V25.2158H161.132C162.213 25.2158 163.024 24.9491 163.565 24.4155C164.109 23.882 164.381 23.0871 164.381 22.0308ZM169.221 20.0059C169.722 20.0059 170.152 20.1169 170.51 20.3389C170.868 20.5609 171.142 20.8724 171.331 21.2734C171.521 21.6709 171.616 22.1364 171.616 22.6699V23.2231H167.55C167.561 23.9142 167.733 24.4406 168.066 24.8022C168.399 25.1639 168.868 25.3447 169.473 25.3447C169.845 25.3447 170.175 25.3107 170.461 25.2427C170.748 25.1746 171.045 25.0744 171.353 24.9419V25.7261C171.056 25.8586 170.76 25.9552 170.467 26.0161C170.177 26.077 169.833 26.1074 169.435 26.1074C168.87 26.1074 168.375 25.9928 167.953 25.7637C167.534 25.5309 167.208 25.1908 166.975 24.7432C166.743 24.2956 166.626 23.7477 166.626 23.0996C166.626 22.4658 166.732 21.918 166.943 21.4561C167.158 20.9906 167.459 20.6325 167.846 20.3818C168.236 20.1312 168.694 20.0059 169.221 20.0059ZM169.21 20.7363C168.734 20.7363 168.354 20.8921 168.071 21.2036C167.788 21.5151 167.62 21.9502 167.566 22.5088H170.681C170.678 22.1579 170.622 21.8499 170.515 21.585C170.411 21.3164 170.252 21.1087 170.037 20.9619C169.822 20.8115 169.546 20.7363 169.21 20.7363ZM176.939 24.3887C176.939 24.7646 176.844 25.0815 176.654 25.3394C176.468 25.5936 176.199 25.7852 175.848 25.9141C175.501 26.043 175.086 26.1074 174.602 26.1074C174.191 26.1074 173.834 26.0752 173.534 26.0107C173.233 25.9463 172.97 25.855 172.744 25.7368V24.915C172.984 25.0332 173.27 25.1406 173.603 25.2373C173.936 25.334 174.277 25.3823 174.624 25.3823C175.132 25.3823 175.501 25.3 175.73 25.1353C175.959 24.9705 176.074 24.7467 176.074 24.4639C176.074 24.3027 176.028 24.1613 175.934 24.0396C175.845 23.9142 175.693 23.7943 175.478 23.6797C175.263 23.5615 174.966 23.4326 174.586 23.293C174.21 23.1497 173.884 23.0083 173.609 22.8687C173.337 22.7254 173.125 22.5518 172.975 22.3477C172.828 22.1436 172.755 21.8786 172.755 21.5527C172.755 21.055 172.955 20.6737 173.356 20.4087C173.761 20.1401 174.291 20.0059 174.946 20.0059C175.301 20.0059 175.632 20.0417 175.94 20.1133C176.251 20.1813 176.541 20.2744 176.81 20.3926L176.509 21.1069C176.266 21.0031 176.006 20.9154 175.73 20.8438C175.455 20.7721 175.174 20.7363 174.887 20.7363C174.475 20.7363 174.158 20.8044 173.936 20.9404C173.718 21.0765 173.609 21.2627 173.609 21.499C173.609 21.6816 173.659 21.832 173.759 21.9502C173.863 22.0684 174.028 22.1794 174.253 22.2832C174.479 22.387 174.776 22.5088 175.145 22.6484C175.514 22.7845 175.832 22.9259 176.101 23.0728C176.369 23.216 176.575 23.3914 176.719 23.5991C176.865 23.8032 176.939 24.0664 176.939 24.3887ZM179.264 20.1133V26H178.373V20.1133H179.264ZM178.829 17.9111C178.976 17.9111 179.102 17.9595 179.205 18.0562C179.313 18.1493 179.367 18.2961 179.367 18.4966C179.367 18.6935 179.313 18.8403 179.205 18.937C179.102 19.0337 178.976 19.082 178.829 19.082C178.675 19.082 178.547 19.0337 178.443 18.937C178.342 18.8403 178.292 18.6935 178.292 18.4966C178.292 18.2961 178.342 18.1493 178.443 18.0562C178.547 17.9595 178.675 17.9111 178.829 17.9111ZM182.799 28.6426C182.025 28.6426 181.429 28.4976 181.01 28.2075C180.591 27.9211 180.382 27.5182 180.382 26.999C180.382 26.6302 180.498 26.3151 180.731 26.0537C180.967 25.7923 181.293 25.6187 181.708 25.5327C181.554 25.4611 181.422 25.3537 181.311 25.2104C181.203 25.0672 181.15 24.9025 181.15 24.7163C181.15 24.5015 181.209 24.3135 181.327 24.1523C181.449 23.9876 181.633 23.8301 181.88 23.6797C181.572 23.5544 181.322 23.3431 181.128 23.0459C180.938 22.7451 180.844 22.396 180.844 21.9985C180.844 21.576 180.931 21.2161 181.107 20.9189C181.282 20.6182 181.536 20.389 181.869 20.2314C182.202 20.0739 182.605 19.9951 183.078 19.9951C183.182 19.9951 183.286 20.0005 183.389 20.0112C183.497 20.0184 183.599 20.0309 183.696 20.0488C183.792 20.0632 183.876 20.0811 183.948 20.1025H185.968V20.6772L184.883 20.8115C184.99 20.9512 185.08 21.1195 185.151 21.3164C185.223 21.5133 185.259 21.7318 185.259 21.9717C185.259 22.5589 185.06 23.0262 184.662 23.3735C184.265 23.7173 183.719 23.8892 183.024 23.8892C182.86 23.8892 182.691 23.8748 182.519 23.8462C182.344 23.9429 182.21 24.0503 182.117 24.1685C182.027 24.2866 181.982 24.4227 181.982 24.5767C181.982 24.6912 182.016 24.7826 182.084 24.8506C182.156 24.9186 182.258 24.9688 182.39 25.001C182.523 25.0296 182.682 25.0439 182.868 25.0439H183.905C184.546 25.0439 185.037 25.1782 185.377 25.4468C185.721 25.7153 185.892 26.1074 185.892 26.623C185.892 27.2747 185.627 27.7743 185.098 28.1216C184.568 28.4689 183.801 28.6426 182.799 28.6426ZM182.826 27.9443C183.313 27.9443 183.715 27.8942 184.034 27.7939C184.356 27.6973 184.596 27.5558 184.754 27.3696C184.915 27.187 184.995 26.9686 184.995 26.7144C184.995 26.478 184.942 26.299 184.834 26.1772C184.727 26.0591 184.569 25.9803 184.362 25.9409C184.154 25.8979 183.9 25.8765 183.599 25.8765H182.578C182.313 25.8765 182.083 25.9176 181.886 26C181.689 26.0824 181.536 26.2041 181.429 26.3652C181.325 26.5264 181.273 26.7269 181.273 26.9668C181.273 27.2855 181.408 27.5272 181.676 27.6919C181.945 27.8602 182.328 27.9443 182.826 27.9443ZM183.056 23.2393C183.483 23.2393 183.803 23.1318 184.018 22.917C184.233 22.7021 184.34 22.3888 184.34 21.9771C184.34 21.5366 184.231 21.2072 184.013 20.9888C183.794 20.7668 183.472 20.6558 183.046 20.6558C182.638 20.6558 182.322 20.7703 182.1 20.9995C181.882 21.2251 181.773 21.5563 181.773 21.9932C181.773 22.3942 181.884 22.7021 182.106 22.917C182.328 23.1318 182.645 23.2393 183.056 23.2393ZM189.915 20.0059C190.614 20.0059 191.142 20.1777 191.5 20.5215C191.858 20.8617 192.037 21.4095 192.037 22.165V26H191.156V22.2241C191.156 21.7336 191.043 21.3665 190.818 21.123C190.596 20.8796 190.254 20.7578 189.792 20.7578C189.14 20.7578 188.682 20.9422 188.417 21.311C188.152 21.6799 188.019 22.2152 188.019 22.917V26H187.128V20.1133H187.848L187.982 20.9619H188.03C188.155 20.7542 188.315 20.5806 188.508 20.4409C188.702 20.2977 188.918 20.1903 189.158 20.1187C189.398 20.0435 189.65 20.0059 189.915 20.0059ZM201.297 23.9106C201.297 24.3761 201.18 24.7736 200.948 25.103C200.718 25.4289 200.396 25.6777 199.981 25.8496C199.565 26.0215 199.077 26.1074 198.514 26.1074C198.217 26.1074 197.936 26.0931 197.671 26.0645C197.406 26.0358 197.163 25.9946 196.941 25.9409C196.719 25.8872 196.524 25.821 196.355 25.7422V24.8667C196.624 24.9777 196.952 25.0815 197.338 25.1782C197.725 25.2713 198.13 25.3179 198.552 25.3179C198.946 25.3179 199.279 25.266 199.551 25.1621C199.823 25.0547 200.029 24.9025 200.169 24.7056C200.312 24.505 200.384 24.2651 200.384 23.9858C200.384 23.7173 200.325 23.4935 200.206 23.3145C200.088 23.1318 199.891 22.9671 199.616 22.8203C199.343 22.6699 198.971 22.5106 198.498 22.3423C198.165 22.2241 197.872 22.0952 197.618 21.9556C197.363 21.8123 197.15 21.6512 196.978 21.4722C196.806 21.2931 196.676 21.0854 196.586 20.8491C196.5 20.6128 196.457 20.3424 196.457 20.0381C196.457 19.6191 196.563 19.2611 196.774 18.9639C196.989 18.6631 197.285 18.4339 197.66 18.2764C198.04 18.1152 198.475 18.0347 198.966 18.0347C199.385 18.0347 199.771 18.0741 200.126 18.1528C200.484 18.2316 200.812 18.3372 201.109 18.4697L200.824 19.2539C200.541 19.1357 200.24 19.0373 199.922 18.9585C199.607 18.8797 199.281 18.8403 198.944 18.8403C198.608 18.8403 198.323 18.8905 198.09 18.9907C197.861 19.0874 197.686 19.2253 197.564 19.4043C197.442 19.5833 197.381 19.7964 197.381 20.0435C197.381 20.3192 197.438 20.5483 197.553 20.731C197.671 20.9136 197.857 21.0765 198.112 21.2197C198.369 21.3594 198.71 21.5062 199.132 21.6602C199.594 21.8285 199.986 22.0075 200.308 22.1973C200.631 22.3835 200.876 22.6126 201.044 22.8848C201.213 23.1533 201.297 23.4953 201.297 23.9106ZM201.839 20.1133H202.795L204.095 23.5293C204.17 23.7298 204.24 23.9232 204.305 24.1094C204.369 24.292 204.426 24.4674 204.476 24.6357C204.527 24.804 204.566 24.967 204.595 25.1245H204.632C204.682 24.9455 204.754 24.7109 204.847 24.4209C204.94 24.1273 205.04 23.8283 205.148 23.5239L206.378 20.1133H207.339L204.777 26.8647C204.641 27.2264 204.482 27.5415 204.299 27.8101C204.12 28.0786 203.902 28.2845 203.644 28.4277C203.386 28.5745 203.075 28.6479 202.709 28.6479C202.541 28.6479 202.392 28.6372 202.264 28.6157C202.135 28.5978 202.024 28.5763 201.931 28.5513V27.8369C202.009 27.8548 202.104 27.8709 202.215 27.8853C202.33 27.8996 202.448 27.9067 202.57 27.9067C202.792 27.9067 202.983 27.8638 203.144 27.7778C203.309 27.6955 203.451 27.5737 203.569 27.4126C203.687 27.2515 203.789 27.0599 203.875 26.8379L204.197 26.0107L201.839 20.1133ZM212.087 24.3887C212.087 24.7646 211.992 25.0815 211.803 25.3394C211.616 25.5936 211.348 25.7852 210.997 25.9141C210.65 26.043 210.234 26.1074 209.751 26.1074C209.339 26.1074 208.983 26.0752 208.682 26.0107C208.381 25.9463 208.118 25.855 207.892 25.7368V24.915C208.132 25.0332 208.419 25.1406 208.752 25.2373C209.085 25.334 209.425 25.3823 209.772 25.3823C210.281 25.3823 210.65 25.3 210.879 25.1353C211.108 24.9705 211.223 24.7467 211.223 24.4639C211.223 24.3027 211.176 24.1613 211.083 24.0396C210.993 23.9142 210.841 23.7943 210.626 23.6797C210.411 23.5615 210.114 23.4326 209.735 23.293C209.359 23.1497 209.033 23.0083 208.757 22.8687C208.485 22.7254 208.274 22.5518 208.123 22.3477C207.977 22.1436 207.903 21.8786 207.903 21.5527C207.903 21.055 208.104 20.6737 208.505 20.4087C208.909 20.1401 209.439 20.0059 210.095 20.0059C210.449 20.0059 210.78 20.0417 211.088 20.1133C211.4 20.1813 211.69 20.2744 211.958 20.3926L211.658 21.1069C211.414 21.0031 211.154 20.9154 210.879 20.8438C210.603 20.7721 210.322 20.7363 210.035 20.7363C209.624 20.7363 209.307 20.8044 209.085 20.9404C208.866 21.0765 208.757 21.2627 208.757 21.499C208.757 21.6816 208.807 21.832 208.908 21.9502C209.011 22.0684 209.176 22.1794 209.402 22.2832C209.627 22.387 209.924 22.5088 210.293 22.6484C210.662 22.7845 210.981 22.9259 211.249 23.0728C211.518 23.216 211.724 23.3914 211.867 23.5991C212.014 23.8032 212.087 24.0664 212.087 24.3887ZM215.423 25.377C215.57 25.377 215.72 25.3644 215.874 25.3394C216.028 25.3143 216.153 25.2839 216.25 25.248V25.9409C216.146 25.9875 216.001 26.0269 215.815 26.0591C215.632 26.0913 215.453 26.1074 215.278 26.1074C214.966 26.1074 214.683 26.0537 214.429 25.9463C214.175 25.8353 213.971 25.6491 213.817 25.3877C213.666 25.1263 213.591 24.7646 213.591 24.3027V20.8115H212.753V20.3765L213.597 20.0273L213.951 18.749H214.488V20.1133H216.212V20.8115H214.488V24.2759C214.488 24.6447 214.572 24.9204 214.741 25.103C214.912 25.2856 215.14 25.377 215.423 25.377ZM219.709 20.0059C220.21 20.0059 220.64 20.1169 220.998 20.3389C221.356 20.5609 221.63 20.8724 221.82 21.2734C222.009 21.6709 222.104 22.1364 222.104 22.6699V23.2231H218.038C218.049 23.9142 218.221 24.4406 218.554 24.8022C218.887 25.1639 219.356 25.3447 219.961 25.3447C220.334 25.3447 220.663 25.3107 220.95 25.2427C221.236 25.1746 221.533 25.0744 221.841 24.9419V25.7261C221.544 25.8586 221.249 25.9552 220.955 26.0161C220.665 26.077 220.321 26.1074 219.924 26.1074C219.358 26.1074 218.864 25.9928 218.441 25.7637C218.022 25.5309 217.696 25.1908 217.464 24.7432C217.231 24.2956 217.115 23.7477 217.115 23.0996C217.115 22.4658 217.22 21.918 217.431 21.4561C217.646 20.9906 217.947 20.6325 218.334 20.3818C218.724 20.1312 219.182 20.0059 219.709 20.0059ZM219.698 20.7363C219.222 20.7363 218.842 20.8921 218.559 21.2036C218.277 21.5151 218.108 21.9502 218.055 22.5088H221.17C221.166 22.1579 221.111 21.8499 221.003 21.585C220.899 21.3164 220.74 21.1087 220.525 20.9619C220.31 20.8115 220.035 20.7363 219.698 20.7363ZM230.011 20.0059C230.659 20.0059 231.147 20.1759 231.477 20.5161C231.806 20.8527 231.971 21.3952 231.971 22.1436V26H231.09V22.1865C231.09 21.7103 230.986 21.354 230.779 21.1177C230.575 20.8778 230.27 20.7578 229.866 20.7578C229.296 20.7578 228.883 20.9225 228.625 21.252C228.367 21.5814 228.238 22.0666 228.238 22.7075V26H227.352V22.1865C227.352 21.8678 227.305 21.6029 227.212 21.3916C227.123 21.1803 226.987 21.0228 226.804 20.9189C226.625 20.8115 226.398 20.7578 226.122 20.7578C225.732 20.7578 225.418 20.8384 225.182 20.9995C224.946 21.1606 224.774 21.4006 224.666 21.7192C224.563 22.0343 224.511 22.4229 224.511 22.8848V26H223.619V20.1133H224.339L224.473 20.9458H224.521C224.639 20.7417 224.788 20.5698 224.967 20.4302C225.146 20.2905 225.347 20.1849 225.569 20.1133C225.791 20.0417 226.027 20.0059 226.278 20.0059C226.725 20.0059 227.099 20.09 227.4 20.2583C227.705 20.423 227.925 20.6755 228.061 21.0156H228.109C228.303 20.6755 228.568 20.423 228.904 20.2583C229.241 20.09 229.61 20.0059 230.011 20.0059Z" fill="black"/>
</svg>
