<svg width="217" height="36" viewBox="0 0 217 36" fill="none" xmlns="http://www.w3.org/2000/svg">
<path d="M4.3001 8.78174H10.3282V9.27972H8.33627V18.7215C8.33627 22.2672 6.5983 23.3354 3.34148 23.3354C0.610032 23.3354 0 22.312 0 20.9774C0 20.6861 0.126986 19.6976 1.12296 19.6976C2.11893 19.6976 2.17869 20.345 2.17869 21.4057C2.17869 21.8514 2.37041 22.7129 3.53819 22.7129C5.39069 22.7129 6.22482 21.8912 6.22482 18.978V9.27972H4.3001V8.78174Z" fill="#3A2206"/>
<path d="M10.6719 21.1623C10.8161 21.1063 10.9701 21.0801 11.1247 21.0854C11.2804 21.0798 11.4357 21.1058 11.5811 21.1619C11.7265 21.2179 11.8591 21.3028 11.9709 21.4114C12.0822 21.5152 12.1704 21.6414 12.2296 21.7816C12.2888 21.9219 12.3176 22.073 12.3143 22.2252C12.3181 22.3749 12.2893 22.5236 12.23 22.6611C12.1707 22.7986 12.0823 22.9216 11.9709 23.0216C11.8585 23.1296 11.7259 23.2145 11.5807 23.2713C11.4355 23.3281 11.2806 23.3557 11.1247 23.3526C10.9703 23.3559 10.8168 23.3283 10.6732 23.2715C10.5296 23.2146 10.3988 23.1297 10.2885 23.0216C10.176 22.9222 10.0866 22.7994 10.0264 22.6619C9.96624 22.5243 9.93678 22.3753 9.94007 22.2252C9.93737 22.0729 9.96677 21.9217 10.0264 21.7815C10.086 21.6413 10.1744 21.5152 10.286 21.4114C10.3964 21.3031 10.5277 21.2184 10.6719 21.1623Z" fill="#3A2206"/>
<path d="M24.4817 21.0853C24.3292 21.082 24.1776 21.1091 24.0357 21.1651C23.8939 21.2211 23.7646 21.3048 23.6555 21.4113C23.5454 21.5158 23.4584 21.6422 23.4001 21.7824C23.3418 21.9225 23.3135 22.0733 23.317 22.2251C23.3124 22.3744 23.3404 22.523 23.3988 22.6604C23.4572 22.7979 23.5448 22.9211 23.6555 23.0215C23.8853 23.2335 24.1865 23.3512 24.4991 23.3512C24.8118 23.3512 25.113 23.2335 25.3428 23.0215C25.4549 22.9219 25.544 22.7991 25.6038 22.6615C25.6635 22.524 25.6925 22.375 25.6887 22.2251C25.6921 22.0729 25.6632 21.9217 25.604 21.7815C25.5448 21.6412 25.4567 21.5151 25.3453 21.4113C25.2308 21.3014 25.0953 21.2159 24.9469 21.1599C24.7984 21.1039 24.6402 21.0785 24.4817 21.0853Z" fill="#3A2206"/>
<path fill-rule="evenodd" clip-rule="evenodd" d="M14.4026 8.78225H20.2919C24.9012 8.78225 25.6881 10.498 25.6881 12.8861C25.6881 15.2741 24.4081 17.0173 19.8511 17.0173H18.2823V20.8048C18.2666 21.1151 18.3211 21.4249 18.4417 21.7113C18.5136 21.8657 18.6173 22.0032 18.7461 22.1147C18.8748 22.2263 19.0256 22.3094 19.1887 22.3587C19.5835 22.473 19.9929 22.5292 20.4039 22.5255V22.9788H14.0764V22.5206C14.4863 22.5278 14.8945 22.4664 15.2841 22.3388C15.4407 22.2862 15.5845 22.2014 15.7063 22.0899C15.8281 21.9784 15.9252 21.8426 15.9913 21.6913C16.0909 21.4398 16.1457 21.2157 16.1457 20.3442V9.28029H14.4026V8.78225ZM18.2848 16.4694H19.4875C22.2741 16.4694 23.6561 15.2941 23.6561 13.0106C23.6561 10.7271 22.8891 9.33258 19.373 9.33258L18.2848 9.34752V16.4694Z" fill="#3A2206"/>
<path d="M44.4744 21.6528C44.3826 21.3393 44.3414 21.0132 44.3524 20.6867V9.28283C44.3524 9.28283 45.8961 9.28283 45.8787 9.26789C45.87 9.11779 45.87 8.96731 45.8787 8.81721H42.1438C42.0915 8.94669 37.6794 19.6285 37.6794 19.6285C37.67 19.648 37.6554 19.6644 37.6371 19.676C37.6188 19.6875 37.5977 19.6936 37.576 19.6936C37.5544 19.6936 37.5332 19.6875 37.515 19.676C37.4967 19.6644 37.482 19.648 37.4727 19.6285C37.4727 19.6285 32.7717 8.94669 32.7169 8.81721H28.5638V9.27287H30.364V20.2584L30.3241 21.2544C30.3008 21.5001 30.2151 21.7358 30.0751 21.9391C29.9098 22.1617 29.6764 22.3243 29.4103 22.4022C29.1334 22.4765 28.848 22.5141 28.5613 22.5143V22.9699H32.6771V22.5243C32.4368 22.5239 32.1981 22.4853 31.97 22.4097C31.7002 22.338 31.4613 22.1796 31.2902 21.959C31.1505 21.7501 31.0649 21.5096 31.0412 21.2594L30.9939 20.2634V10.7718H31.2429C31.2429 10.7718 36.5664 22.843 36.6212 22.9724H37.0668L42.104 10.9013H42.2334V20.6867C42.2438 21.0235 42.2001 21.3597 42.104 21.6827C42.0506 21.8299 41.9676 21.9647 41.8601 22.0786C41.7526 22.1925 41.6229 22.2832 41.479 22.345C41.1424 22.464 40.7877 22.5238 40.4307 22.5218V22.9774H46.1775V22.5193C45.8176 22.517 45.4606 22.4539 45.1218 22.3325C44.972 22.2712 44.837 22.179 44.7254 22.0619C44.6138 21.9447 44.5283 21.8053 44.4744 21.6528Z" fill="#3A2206"/>
<path fill-rule="evenodd" clip-rule="evenodd" d="M47.2217 18.0052C47.2217 14.5566 49.1364 12.5821 52.2016 12.5821C55.0451 12.5821 57.1441 14.462 57.1516 17.9156C57.1516 22.3452 53.8848 23.3935 52.1418 23.3935C51.2678 23.3935 47.2217 23.0598 47.2217 18.0052ZM49.5 18.06C49.5 21.6455 49.8585 22.766 52.1617 22.766C54.2209 22.766 54.8583 21.5136 54.8583 17.8857C54.8583 15.3609 54.8434 13.2096 52.1617 13.2096C49.6793 13.2096 49.5 15.2887 49.5 18.06Z" fill="#3A2206"/>
<path d="M65.1632 12.7365C63.331 12.7365 62.7584 13.7895 62.2531 14.86C62.205 14.8573 62.1568 14.8573 62.1087 14.86C62.1015 14.86 62.0401 14.4957 61.968 14.0674C61.891 13.6097 61.8016 13.0789 61.7527 12.8411H58.2028V13.3713H60.1246C60.1246 13.3713 60.1122 14.9546 60.1122 15.5247V20.3641C60.145 20.8667 60.0651 21.3702 59.8782 21.8378C59.6815 22.1814 59.2409 22.3556 58.5115 22.3556H58.2028V22.973H64.15V22.3556H63.8289C63.0497 22.3556 62.7111 22.1913 62.502 21.8578C62.3128 21.569 62.2282 21.0786 62.2282 20.3641V16.7246C62.2282 15.4998 63.1792 14.1032 64.3193 14.1032C64.8425 14.1032 65.1304 14.4464 65.4027 14.771C65.7511 15.1862 66.0739 15.571 66.8311 15.1687C67.5655 14.7778 67.4435 12.7365 65.1632 12.7365Z" fill="#3A2206"/>
<path fill-rule="evenodd" clip-rule="evenodd" d="M87.9773 21.0149C88.0246 21.5876 88.2263 21.9312 88.8636 21.9312C89.2371 21.9312 89.6952 21.5527 89.7898 20.8357H90.1459C90.0488 22.4839 89.2222 23.1437 87.8378 23.1437C86.6054 23.1437 85.9282 22.2972 85.8112 21.5876C85.0842 22.337 84.0135 23.2707 82.3255 23.2707C80.7968 23.2707 79.6141 22.1279 79.5394 20.8232C79.3402 17.5349 83.7279 17.1523 85.6731 16.9827L85.7439 16.9765V15.2885C85.7724 14.7584 85.6263 14.2337 85.3281 13.7946C85.0343 13.4037 84.5065 13.2095 83.7596 13.2095C83.1197 13.2095 82.6442 13.3639 82.3404 13.6726C82.0468 13.996 81.8713 14.4094 81.8425 14.8453C81.7205 15.5997 81.3868 15.891 80.7967 15.891C80.5605 15.9003 80.3294 15.8203 80.1494 15.6669C80.0557 15.5834 79.983 15.4791 79.9372 15.3623C79.8913 15.2455 79.8736 15.1196 79.8855 14.9947C79.8855 14.3299 80.132 13.8817 80.8266 13.3639C81.5213 12.846 82.6168 12.5796 84.0882 12.5796C85.6219 12.5796 86.6726 12.8584 87.2303 13.3987C87.788 13.939 87.9399 14.5565 87.9399 15.4727V19.7153L87.9773 21.0149ZM85.7404 20.9029C85.7466 20.8888 85.7487 20.8733 85.7464 20.8581V17.594C84.2874 17.594 81.6234 18.5376 81.6234 20.4274C81.6234 21.0174 81.8425 22.1976 83.299 22.1976C83.8691 22.1976 84.6459 21.8764 85.6668 20.9776L85.7116 20.9378C85.7243 20.9291 85.7342 20.917 85.7404 20.9029Z" fill="#3A2206"/>
<path d="M101.061 21.8674C100.789 21.4133 100.659 20.8873 100.69 20.3584L100.715 15.7619C100.745 15.1749 100.626 14.5898 100.369 14.0612C100.12 13.6202 99.7444 13.2638 99.291 13.0378C98.7999 12.8068 98.2624 12.6918 97.7198 12.7016C95.6282 12.7016 94.789 13.9466 94.3334 14.6687H94.1416L93.7706 12.8261H90.5336V13.3416C91.1412 13.3665 92.1521 13.3764 92.1521 13.3764V20.3485C92.1665 20.7499 92.1246 21.1514 92.0276 21.5412C91.987 21.689 91.9116 21.825 91.8076 21.9376C91.7036 22.0503 91.5741 22.1363 91.43 22.1886C91.1408 22.2843 90.8382 22.3331 90.5336 22.333V22.9779H95.6755V22.333C95.1576 22.2932 94.809 22.1562 94.6222 21.8997C94.4355 21.6433 94.3309 21.1527 94.3309 20.4655V17.7862C94.3309 16.6657 94.3309 15.5801 94.7168 14.9128C94.9306 14.5565 95.2354 14.2637 95.6 14.0646C95.9646 13.8654 96.3758 13.7671 96.791 13.7798C97.5754 13.7798 97.9862 14.0288 98.2427 14.5069C98.4543 14.8978 98.5913 16.0681 98.5913 16.8724L98.5689 20.1891C98.5985 20.5968 98.6068 21.0057 98.5938 21.4142C98.5742 21.5567 98.524 21.6932 98.4466 21.8144C98.3693 21.9356 98.2666 22.0386 98.1456 22.1164C97.8917 22.2516 97.609 22.3233 97.3214 22.3255V22.9779H102.277V22.338C101.649 22.2981 101.241 22.1512 101.061 21.8674Z" fill="#3A2206"/>
<path fill-rule="evenodd" clip-rule="evenodd" d="M77.1616 12.9805C77.2687 12.5323 77.4728 12.2658 77.7791 12.1712C78.3418 12.0044 78.7103 12.221 78.9045 12.8186C78.9508 12.9675 78.9645 13.1246 78.9447 13.2792C78.925 13.4339 78.8722 13.5825 78.79 13.715C78.6898 13.8857 78.5561 14.0344 78.3969 14.1521C78.2377 14.2698 78.0564 14.354 77.8637 14.3997C77.4396 14.5228 76.9905 14.5323 76.5615 14.4271C76.8349 15.0229 76.9743 15.6714 76.9699 16.3269C76.9699 19.0135 74.8957 19.8178 72.5951 20.1614C70.2944 20.505 69.7067 20.7814 69.7067 21.4761C69.7067 21.9442 70.013 22.2231 71.6016 22.2231C72.0788 22.245 72.5177 22.2601 72.9225 22.274C75.321 22.3564 76.5244 22.3977 77.4106 23.5801C77.7549 24.1015 77.9249 24.7187 77.8961 25.3429C77.8885 25.9239 77.7297 26.4928 77.4355 26.9938C77.1417 27.5415 76.5914 28.0121 75.7996 28.4031C75.0078 28.794 73.8998 28.9981 72.5353 28.9981C71.5557 29.0173 70.5795 28.8777 69.6445 28.5848C68.9125 28.3632 67.9538 27.798 67.9538 26.5929C67.9357 26.2682 68.0155 25.9455 68.1829 25.6666C68.284 25.5286 68.4202 25.4202 68.5775 25.3527C68.7347 25.2853 68.9071 25.2613 69.0768 25.2832C69.6445 25.3753 69.8213 25.8783 69.7192 26.3563C69.6407 26.6267 69.6511 26.9151 69.7488 27.1791C69.8465 27.4431 70.0264 27.6688 70.262 27.8229C71.009 28.2736 71.8356 28.3806 72.8465 28.3806C74.0243 28.3806 74.9705 28.1839 75.6651 27.8105C76.4096 27.4046 76.7831 26.8593 76.7831 26.1796C76.7949 25.9624 76.7534 25.7457 76.6622 25.5482C76.5711 25.3508 76.4331 25.1786 76.2602 25.0466C75.8564 24.7826 75.3919 24.6258 74.9107 24.591C74.3828 24.5312 73.5761 24.4789 72.4357 24.4789C71.1335 24.4565 70.1051 24.3046 69.3581 24.0133C68.6908 23.7494 68.168 23.2638 68.168 22.3799C68.168 20.9034 69.5698 20.4502 71.1559 20.139C71.2555 20.1166 71.2555 19.9946 71.1434 19.9722C69.2785 19.5912 68.4319 18.5554 68.4319 16.4141C68.4319 14.5865 69.7092 12.5821 72.605 12.5821C74.4027 12.5821 75.4261 13.1672 75.9589 13.6478C76.1969 13.7406 76.4577 13.758 76.7059 13.6976C76.9126 13.6303 77.0545 13.4286 77.1616 12.9805ZM70.5384 16.4141C70.5384 19.0882 71.3127 19.5663 72.6648 19.5663C73.9321 19.5663 74.846 19.1928 74.846 16.3618C74.846 14.4022 74.3529 13.1249 72.6648 13.1249C71.2156 13.1249 70.5384 14.5267 70.5384 16.4141Z" fill="#3A2206"/>
<rect x="110.28" y="10" width="1" height="16" fill="black" fill-opacity="0.2"/>
<path d="M124.785 19.9106C124.785 20.3761 124.669 20.7736 124.436 21.103C124.207 21.4289 123.885 21.6777 123.469 21.8496C123.054 22.0215 122.565 22.1074 122.003 22.1074C121.706 22.1074 121.425 22.0931 121.16 22.0645C120.895 22.0358 120.651 21.9946 120.429 21.9409C120.207 21.8872 120.012 21.821 119.844 21.7422V20.8667C120.113 20.9777 120.44 21.0815 120.827 21.1782C121.214 21.2713 121.618 21.3179 122.041 21.3179C122.435 21.3179 122.768 21.266 123.04 21.1621C123.312 21.0547 123.518 20.9025 123.657 20.7056C123.801 20.505 123.872 20.2651 123.872 19.9858C123.872 19.7173 123.813 19.4935 123.695 19.3145C123.577 19.1318 123.38 18.9671 123.104 18.8203C122.832 18.6699 122.46 18.5106 121.987 18.3423C121.654 18.2241 121.36 18.0952 121.106 17.9556C120.852 17.8123 120.639 17.6512 120.467 17.4722C120.295 17.2931 120.164 17.0854 120.075 16.8491C119.989 16.6128 119.946 16.3424 119.946 16.0381C119.946 15.6191 120.052 15.2611 120.263 14.9639C120.478 14.6631 120.773 14.4339 121.149 14.2764C121.529 14.1152 121.964 14.0347 122.454 14.0347C122.873 14.0347 123.26 14.0741 123.614 14.1528C123.973 14.2316 124.3 14.3372 124.597 14.4697L124.313 15.2539C124.03 15.1357 123.729 15.0373 123.41 14.9585C123.095 14.8797 122.769 14.8403 122.433 14.8403C122.096 14.8403 121.812 14.8905 121.579 14.9907C121.35 15.0874 121.174 15.2253 121.052 15.4043C120.931 15.5833 120.87 15.7964 120.87 16.0435C120.87 16.3192 120.927 16.5483 121.042 16.731C121.16 16.9136 121.346 17.0765 121.6 17.2197C121.858 17.3594 122.198 17.5062 122.621 17.6602C123.083 17.8285 123.475 18.0075 123.797 18.1973C124.119 18.3835 124.365 18.6126 124.533 18.8848C124.701 19.1533 124.785 19.4953 124.785 19.9106ZM128.459 16.0166C129.161 16.0166 129.682 16.1742 130.022 16.4893C130.362 16.8044 130.532 17.3075 130.532 17.9985V22H129.883L129.711 21.1299H129.668C129.503 21.3447 129.331 21.5256 129.152 21.6724C128.973 21.8156 128.765 21.9248 128.529 22C128.296 22.0716 128.01 22.1074 127.67 22.1074C127.312 22.1074 126.993 22.0448 126.714 21.9194C126.438 21.7941 126.219 21.6043 126.058 21.3501C125.901 21.0959 125.822 20.7736 125.822 20.3833C125.822 19.7961 126.055 19.3449 126.52 19.0298C126.986 18.7147 127.695 18.5428 128.647 18.5142L129.662 18.4712V18.1113C129.662 17.6029 129.553 17.2466 129.335 17.0425C129.116 16.8384 128.808 16.7363 128.411 16.7363C128.103 16.7363 127.809 16.7811 127.53 16.8706C127.251 16.9601 126.986 17.0658 126.735 17.1875L126.461 16.5107C126.726 16.3747 127.03 16.2583 127.374 16.1616C127.718 16.0649 128.08 16.0166 128.459 16.0166ZM129.652 19.0996L128.755 19.1372C128.021 19.1659 127.503 19.2858 127.202 19.4971C126.902 19.7083 126.751 20.0073 126.751 20.394C126.751 20.7306 126.853 20.9795 127.057 21.1406C127.261 21.3018 127.532 21.3823 127.868 21.3823C128.391 21.3823 128.819 21.2373 129.152 20.9473C129.485 20.6572 129.652 20.2222 129.652 19.6421V19.0996ZM133.266 22H132.369V13.6426H133.266V22ZM137.053 21.377C137.2 21.377 137.35 21.3644 137.504 21.3394C137.658 21.3143 137.783 21.2839 137.88 21.248V21.9409C137.776 21.9875 137.631 22.0269 137.445 22.0591C137.262 22.0913 137.083 22.1074 136.908 22.1074C136.596 22.1074 136.314 22.0537 136.059 21.9463C135.805 21.8353 135.601 21.6491 135.447 21.3877C135.297 21.1263 135.221 20.7646 135.221 20.3027V16.8115H134.384V16.3765L135.227 16.0273L135.581 14.749H136.118V16.1133H137.842V16.8115H136.118V20.2759C136.118 20.6447 136.203 20.9204 136.371 21.103C136.543 21.2856 136.77 21.377 137.053 21.377ZM148.3 17.9985C148.3 18.883 148.139 19.6224 147.817 20.2168C147.494 20.8076 147.027 21.2534 146.415 21.5542C145.806 21.8514 145.067 22 144.197 22H142.064V14.1475H144.433C145.231 14.1475 145.919 14.2943 146.495 14.5879C147.072 14.8779 147.516 15.3094 147.827 15.8823C148.142 16.4517 148.3 17.1571 148.3 17.9985ZM147.339 18.0308C147.339 17.3254 147.22 16.7435 146.984 16.2852C146.751 15.8268 146.408 15.4867 145.953 15.2646C145.502 15.0391 144.948 14.9263 144.293 14.9263H142.977V21.2158H144.089C145.17 21.2158 145.981 20.9491 146.522 20.4155C147.066 19.882 147.339 19.0871 147.339 18.0308ZM152.178 16.0059C152.679 16.0059 153.109 16.1169 153.467 16.3389C153.825 16.5609 154.099 16.8724 154.289 17.2734C154.479 17.6709 154.573 18.1364 154.573 18.6699V19.2231H150.508C150.518 19.9142 150.69 20.4406 151.023 20.8022C151.356 21.1639 151.825 21.3447 152.43 21.3447C152.803 21.3447 153.132 21.3107 153.419 21.2427C153.705 21.1746 154.002 21.0744 154.31 20.9419V21.7261C154.013 21.8586 153.718 21.9552 153.424 22.0161C153.134 22.077 152.79 22.1074 152.393 22.1074C151.827 22.1074 151.333 21.9928 150.91 21.7637C150.491 21.5309 150.166 21.1908 149.933 20.7432C149.7 20.2956 149.584 19.7477 149.584 19.0996C149.584 18.4658 149.689 17.918 149.901 17.4561C150.115 16.9906 150.416 16.6325 150.803 16.3818C151.193 16.1312 151.652 16.0059 152.178 16.0059ZM152.167 16.7363C151.691 16.7363 151.311 16.8921 151.029 17.2036C150.746 17.5151 150.577 17.9502 150.524 18.5088H153.639C153.635 18.1579 153.58 17.8499 153.472 17.585C153.369 17.3164 153.209 17.1087 152.994 16.9619C152.78 16.8115 152.504 16.7363 152.167 16.7363ZM159.896 20.3887C159.896 20.7646 159.801 21.0815 159.612 21.3394C159.425 21.5936 159.157 21.7852 158.806 21.9141C158.459 22.043 158.043 22.1074 157.56 22.1074C157.148 22.1074 156.792 22.0752 156.491 22.0107C156.19 21.9463 155.927 21.855 155.701 21.7368V20.915C155.941 21.0332 156.228 21.1406 156.561 21.2373C156.894 21.334 157.234 21.3823 157.581 21.3823C158.09 21.3823 158.459 21.3 158.688 21.1353C158.917 20.9705 159.031 20.7467 159.031 20.4639C159.031 20.3027 158.985 20.1613 158.892 20.0396C158.802 19.9142 158.65 19.7943 158.435 19.6797C158.22 19.5615 157.923 19.4326 157.544 19.293C157.168 19.1497 156.842 19.0083 156.566 18.8687C156.294 18.7254 156.083 18.5518 155.932 18.3477C155.786 18.1436 155.712 17.8786 155.712 17.5527C155.712 17.055 155.913 16.6737 156.314 16.4087C156.718 16.1401 157.248 16.0059 157.904 16.0059C158.258 16.0059 158.589 16.0417 158.897 16.1133C159.209 16.1813 159.499 16.2744 159.767 16.3926L159.467 17.1069C159.223 17.0031 158.963 16.9154 158.688 16.8438C158.412 16.7721 158.131 16.7363 157.844 16.7363C157.433 16.7363 157.116 16.8044 156.894 16.9404C156.675 17.0765 156.566 17.2627 156.566 17.499C156.566 17.6816 156.616 17.832 156.717 17.9502C156.82 18.0684 156.985 18.1794 157.211 18.2832C157.436 18.387 157.733 18.5088 158.102 18.6484C158.471 18.7845 158.79 18.9259 159.058 19.0728C159.327 19.216 159.533 19.3914 159.676 19.5991C159.823 19.8032 159.896 20.0664 159.896 20.3887ZM162.222 16.1133V22H161.33V16.1133H162.222ZM161.787 13.9111C161.934 13.9111 162.059 13.9595 162.163 14.0562C162.27 14.1493 162.324 14.2961 162.324 14.4966C162.324 14.6935 162.27 14.8403 162.163 14.937C162.059 15.0337 161.934 15.082 161.787 15.082C161.633 15.082 161.504 15.0337 161.4 14.937C161.3 14.8403 161.25 14.6935 161.25 14.4966C161.25 14.2961 161.3 14.1493 161.4 14.0562C161.504 13.9595 161.633 13.9111 161.787 13.9111ZM165.756 24.6426C164.983 24.6426 164.386 24.4976 163.967 24.2075C163.549 23.9211 163.339 23.5182 163.339 22.999C163.339 22.6302 163.455 22.3151 163.688 22.0537C163.925 21.7923 164.25 21.6187 164.666 21.5327C164.512 21.4611 164.379 21.3537 164.268 21.2104C164.161 21.0672 164.107 20.9025 164.107 20.7163C164.107 20.5015 164.166 20.3135 164.284 20.1523C164.406 19.9876 164.591 19.8301 164.838 19.6797C164.53 19.5544 164.279 19.3431 164.086 19.0459C163.896 18.7451 163.801 18.396 163.801 17.9985C163.801 17.576 163.889 17.2161 164.064 16.9189C164.24 16.6182 164.494 16.389 164.827 16.2314C165.16 16.0739 165.563 15.9951 166.035 15.9951C166.139 15.9951 166.243 16.0005 166.347 16.0112C166.454 16.0184 166.556 16.0309 166.653 16.0488C166.75 16.0632 166.834 16.0811 166.905 16.1025H168.925V16.6772L167.84 16.8115C167.947 16.9512 168.037 17.1195 168.109 17.3164C168.18 17.5133 168.216 17.7318 168.216 17.9717C168.216 18.5589 168.017 19.0262 167.62 19.3735C167.222 19.7173 166.676 19.8892 165.982 19.8892C165.817 19.8892 165.649 19.8748 165.477 19.8462C165.301 19.9429 165.167 20.0503 165.074 20.1685C164.984 20.2866 164.94 20.4227 164.94 20.5767C164.94 20.6912 164.974 20.7826 165.042 20.8506C165.113 20.9186 165.215 20.9688 165.348 21.001C165.48 21.0296 165.64 21.0439 165.826 21.0439H166.863C167.503 21.0439 167.994 21.1782 168.334 21.4468C168.678 21.7153 168.85 22.1074 168.85 22.623C168.85 23.2747 168.585 23.7743 168.055 24.1216C167.525 24.4689 166.759 24.6426 165.756 24.6426ZM165.783 23.9443C166.27 23.9443 166.673 23.8942 166.991 23.7939C167.314 23.6973 167.554 23.5558 167.711 23.3696C167.872 23.187 167.953 22.9686 167.953 22.7144C167.953 22.478 167.899 22.299 167.792 22.1772C167.684 22.0591 167.527 21.9803 167.319 21.9409C167.111 21.8979 166.857 21.8765 166.556 21.8765H165.536C165.271 21.8765 165.04 21.9176 164.843 22C164.646 22.0824 164.494 22.2041 164.386 22.3652C164.283 22.5264 164.231 22.7269 164.231 22.9668C164.231 23.2855 164.365 23.5272 164.634 23.6919C164.902 23.8602 165.285 23.9443 165.783 23.9443ZM166.014 19.2393C166.44 19.2393 166.76 19.1318 166.975 18.917C167.19 18.7021 167.298 18.3888 167.298 17.9771C167.298 17.5366 167.188 17.2072 166.97 16.9888C166.752 16.7668 166.429 16.6558 166.003 16.6558C165.595 16.6558 165.28 16.7703 165.058 16.9995C164.839 17.2251 164.73 17.5563 164.73 17.9932C164.73 18.3942 164.841 18.7021 165.063 18.917C165.285 19.1318 165.602 19.2393 166.014 19.2393ZM172.873 16.0059C173.571 16.0059 174.099 16.1777 174.457 16.5215C174.815 16.8617 174.994 17.4095 174.994 18.165V22H174.113V18.2241C174.113 17.7336 174.001 17.3665 173.775 17.123C173.553 16.8796 173.211 16.7578 172.749 16.7578C172.098 16.7578 171.639 16.9422 171.374 17.311C171.109 17.6799 170.977 18.2152 170.977 18.917V22H170.085V16.1133H170.805L170.939 16.9619H170.988C171.113 16.7542 171.272 16.5806 171.466 16.4409C171.659 16.2977 171.876 16.1903 172.115 16.1187C172.355 16.0435 172.608 16.0059 172.873 16.0059ZM184.254 19.9106C184.254 20.3761 184.138 20.7736 183.905 21.103C183.676 21.4289 183.354 21.6777 182.938 21.8496C182.523 22.0215 182.034 22.1074 181.472 22.1074C181.175 22.1074 180.894 22.0931 180.629 22.0645C180.364 22.0358 180.12 21.9946 179.898 21.9409C179.676 21.8872 179.481 21.821 179.313 21.7422V20.8667C179.581 20.9777 179.909 21.0815 180.296 21.1782C180.682 21.2713 181.087 21.3179 181.509 21.3179C181.903 21.3179 182.236 21.266 182.509 21.1621C182.781 21.0547 182.987 20.9025 183.126 20.7056C183.269 20.505 183.341 20.2651 183.341 19.9858C183.341 19.7173 183.282 19.4935 183.164 19.3145C183.046 19.1318 182.849 18.9671 182.573 18.8203C182.301 18.6699 181.928 18.5106 181.456 18.3423C181.123 18.2241 180.829 18.0952 180.575 17.9556C180.321 17.8123 180.108 17.6512 179.936 17.4722C179.764 17.2931 179.633 17.0854 179.544 16.8491C179.458 16.6128 179.415 16.3424 179.415 16.0381C179.415 15.6191 179.52 15.2611 179.732 14.9639C179.947 14.6631 180.242 14.4339 180.618 14.2764C180.997 14.1152 181.433 14.0347 181.923 14.0347C182.342 14.0347 182.729 14.0741 183.083 14.1528C183.441 14.2316 183.769 14.3372 184.066 14.4697L183.781 15.2539C183.499 15.1357 183.198 15.0373 182.879 14.9585C182.564 14.8797 182.238 14.8403 181.902 14.8403C181.565 14.8403 181.28 14.8905 181.048 14.9907C180.818 15.0874 180.643 15.2253 180.521 15.4043C180.399 15.5833 180.339 15.7964 180.339 16.0435C180.339 16.3192 180.396 16.5483 180.51 16.731C180.629 16.9136 180.815 17.0765 181.069 17.2197C181.327 17.3594 181.667 17.5062 182.09 17.6602C182.551 17.8285 182.944 18.0075 183.266 18.1973C183.588 18.3835 183.833 18.6126 184.002 18.8848C184.17 19.1533 184.254 19.4953 184.254 19.9106ZM184.797 16.1133H185.753L187.052 19.5293C187.128 19.7298 187.197 19.9232 187.262 20.1094C187.326 20.292 187.384 20.4674 187.434 20.6357C187.484 20.804 187.523 20.967 187.552 21.1245H187.59C187.64 20.9455 187.711 20.7109 187.804 20.4209C187.898 20.1273 187.998 19.8283 188.105 19.5239L189.335 16.1133H190.297L187.735 22.8647C187.599 23.2264 187.439 23.5415 187.257 23.8101C187.078 24.0786 186.859 24.2845 186.601 24.4277C186.343 24.5745 186.032 24.6479 185.667 24.6479C185.498 24.6479 185.35 24.6372 185.221 24.6157C185.092 24.5978 184.981 24.5763 184.888 24.5513V23.8369C184.967 23.8548 185.062 23.8709 185.173 23.8853C185.287 23.8996 185.405 23.9067 185.527 23.9067C185.749 23.9067 185.941 23.8638 186.102 23.7778C186.266 23.6955 186.408 23.5737 186.526 23.4126C186.644 23.2515 186.746 23.0599 186.832 22.8379L187.155 22.0107L184.797 16.1133ZM195.045 20.3887C195.045 20.7646 194.95 21.0815 194.76 21.3394C194.574 21.5936 194.305 21.7852 193.954 21.9141C193.607 22.043 193.192 22.1074 192.708 22.1074C192.296 22.1074 191.94 22.0752 191.639 22.0107C191.339 21.9463 191.075 21.855 190.85 21.7368V20.915C191.09 21.0332 191.376 21.1406 191.709 21.2373C192.042 21.334 192.382 21.3823 192.73 21.3823C193.238 21.3823 193.607 21.3 193.836 21.1353C194.065 20.9705 194.18 20.7467 194.18 20.4639C194.18 20.3027 194.133 20.1613 194.04 20.0396C193.951 19.9142 193.799 19.7943 193.584 19.6797C193.369 19.5615 193.072 19.4326 192.692 19.293C192.316 19.1497 191.99 19.0083 191.715 18.8687C191.442 18.7254 191.231 18.5518 191.081 18.3477C190.934 18.1436 190.861 17.8786 190.861 17.5527C190.861 17.055 191.061 16.6737 191.462 16.4087C191.867 16.1401 192.397 16.0059 193.052 16.0059C193.406 16.0059 193.738 16.0417 194.046 16.1133C194.357 16.1813 194.647 16.2744 194.916 16.3926L194.615 17.1069C194.371 17.0031 194.112 16.9154 193.836 16.8438C193.56 16.7721 193.279 16.7363 192.993 16.7363C192.581 16.7363 192.264 16.8044 192.042 16.9404C191.824 17.0765 191.715 17.2627 191.715 17.499C191.715 17.6816 191.765 17.832 191.865 17.9502C191.969 18.0684 192.134 18.1794 192.359 18.2832C192.585 18.387 192.882 18.5088 193.251 18.6484C193.62 18.7845 193.938 18.9259 194.207 19.0728C194.475 19.216 194.681 19.3914 194.824 19.5991C194.971 19.8032 195.045 20.0664 195.045 20.3887ZM198.38 21.377C198.527 21.377 198.677 21.3644 198.831 21.3394C198.985 21.3143 199.111 21.2839 199.207 21.248V21.9409C199.103 21.9875 198.958 22.0269 198.772 22.0591C198.59 22.0913 198.411 22.1074 198.235 22.1074C197.924 22.1074 197.641 22.0537 197.386 21.9463C197.132 21.8353 196.928 21.6491 196.774 21.3877C196.624 21.1263 196.549 20.7646 196.549 20.3027V16.8115H195.711V16.3765L196.554 16.0273L196.908 14.749H197.446V16.1133H199.17V16.8115H197.446V20.2759C197.446 20.6447 197.53 20.9204 197.698 21.103C197.87 21.2856 198.097 21.377 198.38 21.377ZM202.666 16.0059C203.168 16.0059 203.597 16.1169 203.955 16.3389C204.313 16.5609 204.587 16.8724 204.777 17.2734C204.967 17.6709 205.062 18.1364 205.062 18.6699V19.2231H200.996C201.007 19.9142 201.178 20.4406 201.511 20.8022C201.844 21.1639 202.314 21.3447 202.919 21.3447C203.291 21.3447 203.62 21.3107 203.907 21.2427C204.193 21.1746 204.491 21.0744 204.799 20.9419V21.7261C204.501 21.8586 204.206 21.9552 203.912 22.0161C203.622 22.077 203.279 22.1074 202.881 22.1074C202.315 22.1074 201.821 21.9928 201.399 21.7637C200.98 21.5309 200.654 21.1908 200.421 20.7432C200.188 20.2956 200.072 19.7477 200.072 19.0996C200.072 18.4658 200.178 17.918 200.389 17.4561C200.604 16.9906 200.905 16.6325 201.291 16.3818C201.682 16.1312 202.14 16.0059 202.666 16.0059ZM202.655 16.7363C202.179 16.7363 201.8 16.8921 201.517 17.2036C201.234 17.5151 201.066 17.9502 201.012 18.5088H204.127C204.124 18.1579 204.068 17.8499 203.961 17.585C203.857 17.3164 203.697 17.1087 203.483 16.9619C203.268 16.8115 202.992 16.7363 202.655 16.7363ZM212.968 16.0059C213.616 16.0059 214.105 16.1759 214.434 16.5161C214.764 16.8527 214.928 17.3952 214.928 18.1436V22H214.048V18.1865C214.048 17.7103 213.944 17.354 213.736 17.1177C213.532 16.8778 213.228 16.7578 212.823 16.7578C212.254 16.7578 211.84 16.9225 211.582 17.252C211.324 17.5814 211.196 18.0666 211.196 18.7075V22H210.309V18.1865C210.309 17.8678 210.263 17.6029 210.17 17.3916C210.08 17.1803 209.944 17.0228 209.761 16.9189C209.582 16.8115 209.355 16.7578 209.079 16.7578C208.689 16.7578 208.376 16.8384 208.139 16.9995C207.903 17.1606 207.731 17.4006 207.624 17.7192C207.52 18.0343 207.468 18.4229 207.468 18.8848V22H206.576V16.1133H207.296L207.43 16.9458H207.479C207.597 16.7417 207.745 16.5698 207.925 16.4302C208.104 16.2905 208.304 16.1849 208.526 16.1133C208.748 16.0417 208.984 16.0059 209.235 16.0059C209.683 16.0059 210.057 16.09 210.358 16.2583C210.662 16.423 210.882 16.6755 211.018 17.0156H211.067C211.26 16.6755 211.525 16.423 211.862 16.2583C212.198 16.09 212.567 16.0059 212.968 16.0059Z" fill="black"/>
</svg>
