<svg xmlns="http://www.w3.org/2000/svg" width="1914" height="1289" fill="none"><path fill="url(#a)" d="M125 644.7 769.23.47l644.24 644.23H125Z"/><path fill="url(#b)" d="M250 644.7 894.23.47l644.24 644.23H250Z"/><path fill="url(#c)" d="M.23 644.7 644.47.47 1288.7 644.7H.23Z"/><path fill="url(#d)" d="M375 644.7 1019.23.47l644.24 644.23H375Z"/><path fill="url(#e)" d="M500 644.7 1144.23.47l644.24 644.23H500Z"/><path fill="url(#f)" d="M625 644.7 1269.23.47l644.24 644.23H625Z"/><path fill="url(#g)" d="m1788.47 644.23-644.24 644.24L500 644.23h1288.47Z"/><path fill="url(#h)" d="m1663.47 644.23-644.24 644.24L375 644.23h1288.47Z"/><path fill="url(#i)" d="m1913.47 644.23-644.24 644.24L625 644.23h1288.47Z"/><path fill="url(#j)" d="m1538.47 644.23-644.24 644.24L250 644.23h1288.47Z"/><path fill="url(#k)" d="m1413.47 644.23-644.24 644.24L125 644.23h1288.47Z"/><path fill="url(#l)" d="m1288.47 644.23-644.24 644.24L0 644.23h1288.47Z"/><defs><linearGradient id="a" x1="758.19" x2="1413.47" y1="0" y2="0" gradientUnits="userSpaceOnUse"><stop offset="0" stop-color="#00314C" stop-opacity=".1"/><stop offset="1" stop-color="#00314C" stop-opacity=".25"/></linearGradient><linearGradient id="b" x1="883.19" x2="1538.47" y1="0" y2="0" gradientUnits="userSpaceOnUse"><stop offset="0" stop-color="#00314C" stop-opacity=".1"/><stop offset="1" stop-color="#00314C" stop-opacity=".25"/></linearGradient><linearGradient id="c" x1="633.42" x2="1288.7" y1="0" y2="0" gradientUnits="userSpaceOnUse"><stop offset="0" stop-color="#00314C" stop-opacity=".1"/><stop offset="1" stop-color="#00314C" stop-opacity=".25"/></linearGradient><linearGradient id="d" x1="1008.19" x2="1663.47" y1="0" y2="0" gradientUnits="userSpaceOnUse"><stop offset="0" stop-color="#00314C" stop-opacity=".1"/><stop offset="1" stop-color="#00314C" stop-opacity=".25"/></linearGradient><linearGradient id="e" x1="1133.19" x2="1788.47" y1="0" y2="0" gradientUnits="userSpaceOnUse"><stop offset="0" stop-color="#00314C" stop-opacity=".1"/><stop offset="1" stop-color="#00314C" stop-opacity=".25"/></linearGradient><linearGradient id="f" x1="1258.19" x2="1913.47" y1="0" y2="0" gradientUnits="userSpaceOnUse"><stop offset="0" stop-color="#00314C" stop-opacity=".1"/><stop offset="1" stop-color="#00314C" stop-opacity=".25"/></linearGradient><linearGradient id="g" x1="1155.28" x2="500" y1="0" y2="0" gradientUnits="userSpaceOnUse"><stop offset="0" stop-color="#00314C" stop-opacity=".1"/><stop offset="1" stop-color="#00314C" stop-opacity=".25"/></linearGradient><linearGradient id="h" x1="1030.28" x2="375" y1="0" y2="0" gradientUnits="userSpaceOnUse"><stop offset="0" stop-color="#00314C" stop-opacity=".1"/><stop offset="1" stop-color="#00314C" stop-opacity=".25"/></linearGradient><linearGradient id="i" x1="1280.28" x2="625" y1="0" y2="0" gradientUnits="userSpaceOnUse"><stop offset="0" stop-color="#00314C" stop-opacity=".1"/><stop offset="1" stop-color="#00314C" stop-opacity=".25"/></linearGradient><linearGradient id="j" x1="905.28" x2="250" y1="0" y2="0" gradientUnits="userSpaceOnUse"><stop offset="0" stop-color="#00314C" stop-opacity=".1"/><stop offset="1" stop-color="#00314C" stop-opacity=".25"/></linearGradient><linearGradient id="k" x1="780.28" x2="125" y1="0" y2="0" gradientUnits="userSpaceOnUse"><stop offset="0" stop-color="#00314C" stop-opacity=".1"/><stop offset="1" stop-color="#00314C" stop-opacity=".25"/></linearGradient><linearGradient id="l" x1="655.28" x2="0" y1="0" y2="0" gradientUnits="userSpaceOnUse"><stop offset="0" stop-color="#00314C" stop-opacity=".1"/><stop offset="1" stop-color="#00314C" stop-opacity=".25"/></linearGradient></defs></svg>