<svg xmlns="http://www.w3.org/2000/svg" width="15" height="19" fill="none"><path fill="#FF4785" d="M.557 16.662.001 1.737A.907.907 0 0 1 .847.795l12.61-.793a.905.905 0 0 1 .96.907v16.264a.906.906 0 0 1-.944.908L1.42 17.536a.906.906 0 0 1-.862-.874Z"/><path fill="#fff" d="m10.646 2.223.086-2.086L12.464 0l.074 2.15a.135.135 0 0 1-.218.112l-.667-.53-.791.604a.134.134 0 0 1-.216-.113ZM8.43 6.815c0 .354 2.367.185 2.684-.064 0-2.408-1.283-3.674-3.634-3.674S3.813 4.362 3.813 6.29c0 3.358 4.501 3.423 4.501 5.254 0 .514-.25.82-.8.82-.717 0-1-.369-.967-1.622 0-.272-2.734-.357-2.818 0-.212 3.037 1.668 3.913 3.818 3.913 2.084 0 3.718-1.118 3.718-3.143 0-3.599-4.568-3.502-4.568-5.286 0-.723.534-.82.85-.82.334 0 .934.06.884 1.41Z"/></svg>