<svg width="72" height="50" viewBox="0 0 72 50" fill="none" xmlns="http://www.w3.org/2000/svg">
<mask id="mask0_756_231" style="mask-type:alpha" maskUnits="userSpaceOnUse" x="0" y="0" width="72" height="50">
<rect width="72" height="50" fill="#D9D9D9"/>
</mask>
<g mask="url(#mask0_756_231)">
<rect width="20" height="50" fill="#31373D"/>
<rect x="20" width="32" height="50" fill="#DD2033"/>
<rect x="52" width="20" height="50" fill="#005B33"/>
<path fill-rule="evenodd" clip-rule="evenodd" d="M50 23C50 30.732 43.732 37 36 37C28.268 37 22 30.732 22 23C22 19.9649 22.9658 17.1555 24.6068 14.8621L27.862 17.1872C26.6898 18.8253 26 20.8321 26 23C26 28.5228 30.4772 33 36 33C41.5228 33 46 28.5228 46 23C46 20.8321 45.3101 18.8253 44.138 17.1872L47.3931 14.862C49.0342 17.1554 50 19.9649 50 23ZM35.9702 9.00003H36.0298C36.0199 9.00001 36.0099 9 36 9C35.9901 9 35.9801 9.00001 35.9702 9.00003Z" fill="#F5F7F8"/>
<path fill-rule="evenodd" clip-rule="evenodd" d="M39 19C39 17.3431 37.6569 16 36 16C34.3431 16 33 17.3431 33 19V25H39V19ZM36 13C39.3137 13 42 15.6863 42 19V28H30V19C30 15.6863 32.6863 13 36 13Z" fill="#F5F7F8"/>
</g>
</svg>
