<svg width="72" height="50" viewBox="0 0 72 50" fill="none" xmlns="http://www.w3.org/2000/svg">
<mask id="mask0_756_502" style="mask-type:alpha" maskUnits="userSpaceOnUse" x="0" y="0" width="72" height="50">
<rect width="72" height="50" fill="#D9D9D9"/>
</mask>
<g mask="url(#mask0_756_502)">
<rect width="72" height="50" fill="#DD2033"/>
<path d="M48.3026 11.4052C46.6123 11.2896 44.1308 11.5385 42.2011 12.4992C40.4618 13.365 39.2494 14.7176 39.2494 17.2524V18.123L54.6366 14C55.2083 16.1339 53.942 18.3272 51.8081 18.899L39.2494 22.2641V23.2994L54.9647 19.0885C55.5365 21.2223 54.2701 23.4157 52.1363 23.9874L39.6873 27.3231L40.5093 28.1382L54.327 24.4357C54.8988 26.5696 53.6324 28.7629 51.4986 29.3347L43.7972 31.3983L50.5876 38.1312L46.4227 42.2609L39.081 34.9813L42.1944 42.699L36.3044 48.5392L30.4142 42.699L33.5196 35.0013L26.1649 42.2938L22 38.1641L28.6915 31.5292L20.5014 29.3347C18.3675 28.7629 17.1012 26.5696 17.6729 24.4357L31.9794 28.2691L32.8014 27.4541L19.8637 23.9874C17.7298 23.4157 16.4635 21.2223 17.0352 19.0885L33.3382 23.4568V22.4216L20.1918 18.899C18.0579 18.3272 16.7916 16.1339 17.3634 14L33.3382 18.2805V17.2852C33.3382 14.7505 32.1258 13.3979 30.3865 12.5321C28.4568 11.5714 25.9753 11.3225 24.285 11.4381L23.8798 5.61173C26.2565 5.44921 29.8754 5.74266 33.0294 7.31274C34.2074 7.89921 35.3247 8.67201 36.2779 9.6518C37.2379 8.6564 38.367 7.87286 39.5582 7.27985C42.7122 5.70977 46.3311 5.41632 48.7078 5.57884L48.3026 11.4052Z" fill="#31373D"/>
</g>
</svg>
