<svg width="72" height="50" viewBox="0 0 72 50" fill="none" xmlns="http://www.w3.org/2000/svg">
<mask id="mask0_756_565" style="mask-type:alpha" maskUnits="userSpaceOnUse" x="0" y="0" width="72" height="50">
<rect width="72" height="50" fill="#D9D9D9"/>
</mask>
<g mask="url(#mask0_756_565)">
<rect y="50" width="25" height="72" transform="rotate(-90 0 50)" fill="#31373D"/>
<rect y="25" width="25" height="72" transform="rotate(-90 0 25)" fill="#DD2033"/>
<path d="M29.6001 13L28.1098 16.3711L24.6001 16.8196L27.1887 19.3517L26.5099 23L29.6001 20.9167L32.6903 23L32.0115 19.3517L34.6001 16.8196L31.0904 16.3711L29.6001 13Z" fill="#F1B434"/>
<path d="M49.3129 32.8564C53.7312 25.2037 51.1091 15.4183 43.4565 11C40.269 9.15972 36.7116 8.54082 33.3261 8.99808L33.0318 13.6879C35.7117 13.1053 38.6085 13.4797 41.1707 14.959C46.6369 18.1149 48.5097 25.1045 45.3538 30.5707C45.2189 30.8043 45.077 31.0314 44.9285 31.2518L34.1001 25L33.6001 25.866C32.4955 27.7792 33.151 30.2256 35.0642 31.3301L41.0838 34.8056C37.6782 36.7276 33.3739 36.8506 29.7421 34.7538C27.1486 33.2565 25.364 30.8961 24.5417 28.2449L20.6411 30.9003C21.9347 34.0776 24.2555 36.8647 27.4565 38.7128C33.3367 42.1077 40.4761 41.346 45.4722 37.3393L54.6875 42.6597L57.1875 38.3295L48.8945 33.5416C49.0388 33.3179 49.1783 33.0895 49.3129 32.8564Z" fill="#F1B434"/>
<path d="M21.6159 16.8291L21.5843 16.8838L21.6001 16.8564L21.6159 16.8291Z" fill="#F1B434"/>
</g>
</svg>
