<svg width="72" height="50" viewBox="0 0 72 50" fill="none" xmlns="http://www.w3.org/2000/svg">
<mask id="mask0_756_587" style="mask-type:alpha" maskUnits="userSpaceOnUse" x="0" y="0" width="72" height="50">
<rect width="72" height="50" fill="#D9D9D9"/>
</mask>
<g mask="url(#mask0_756_587)">
<rect y="-11" width="72" height="72" fill="#0091DA"/>
<path d="M25.3377 18.2634C19.3331 20.2808 15.7193 14.9012 14.3294 13.052C13.2619 13.7244 13.3286 15.6857 13.4954 16.5823L17.9988 24.3154C18.3991 31.1744 21.279 35.1306 22.669 36.2513C27.7395 38.5376 34.122 38.2126 36.6795 37.7643C38.681 39.1092 37.5135 41.799 36.6795 42.9758C52.6916 48.2208 55.805 32.0485 55.3602 23.3068L52.358 21.7938C53.1586 17.8936 52.0244 14.3408 51.3572 13.052L34.1776 7L28.8403 10.3622C28.7847 12.7158 28.0063 17.591 25.3377 18.2634Z" fill="#F5F7F8"/>
</g>
</svg>
