<svg width="72" height="50" viewBox="0 0 72 50" fill="none" xmlns="http://www.w3.org/2000/svg">
<mask id="mask0_756_636" style="mask-type:alpha" maskUnits="userSpaceOnUse" x="0" y="0" width="72" height="50">
<rect width="72" height="50" fill="#D9D9D9"/>
</mask>
<g mask="url(#mask0_756_636)">
<rect y="-11" width="72" height="72" fill="#004692"/>
<path d="M-10 25L73 67L73 -17L-10 25Z" fill="#DD2033"/>
<path d="M6 25L89 67L89 -17L6 25Z" fill="#F5F7F8"/>
<path d="M64 24H60C61.0788 22.6642 60.8633 20.8685 59.6478 19.6153C60.9352 18.2878 60.9352 16.1353 59.6478 14.8075L59.5703 14.8878C60.8576 13.5603 60.9352 11.3275 59.6478 10L41 29.2307C42.2874 30.5584 44.3381 30.5426 45.6254 29.2149L45.9843 28.8766L54.9136 28.0395V32H57.9425V27.7556L62.4857 27.3297L64 24Z" fill="#936846"/>
<path d="M59.6479 19.6153C60.8633 20.8685 61.0788 22.6642 60 24H57L50.324 19.6153L59.6479 10C60.9353 11.3275 60.9352 13.48 59.6479 14.8075C60.9353 16.1353 60.9353 18.2878 59.6479 19.6153Z" fill="#FF9E42"/>
<path d="M41.0677 34L38 32.5001L41.0677 31H61V34H41.0677Z" fill="#F1B434"/>
</g>
</svg>
