<svg width="72" height="50" viewBox="0 0 72 50" fill="none" xmlns="http://www.w3.org/2000/svg">
<mask id="mask0_759_738" style="mask-type:alpha" maskUnits="userSpaceOnUse" x="0" y="0" width="72" height="50">
<rect width="72" height="50" fill="#D9D9D9"/>
</mask>
<g mask="url(#mask0_759_738)">
<rect width="72" height="50" fill="#004692"/>
<path d="M31.5142 31.3529L33.4831 35.5762L37.9298 34.5221L35.9383 38.7341L39.5142 41.6427L35.0621 42.6718L35.0744 47.3529L31.5142 44.4243L27.9537 47.3529L27.9662 42.6718L23.5142 41.6427L27.0899 38.7341L25.0987 34.5221L29.5451 35.5762L31.5142 31.3529Z" fill="#F5F7F8"/>
<path d="M53.5142 32.2941L54.9909 35.4616L58.3259 34.671L56.8323 37.83L59.5142 40.0115L56.1751 40.7833L56.1844 44.2941L53.5142 42.0977L50.8438 44.2941L50.8532 40.7833L47.5142 40.0115L50.1959 37.83L48.7025 34.671L52.0374 35.4616L53.5142 32.2941Z" fill="#F5F7F8"/>
<path d="M44.5142 11.7647L45.7447 14.4042L48.5239 13.7454L47.2793 16.3779L49.5142 18.1958L46.7316 18.839L46.7393 21.7647L44.5142 19.9343L42.2889 21.7647L42.2967 18.839L39.5142 18.1958L41.749 16.3779L40.5045 13.7454L43.2835 14.4042L44.5142 11.7647Z" fill="#F5F7F8"/>
<path d="M54.5142 3.92157L55.7447 6.5611L58.5239 5.90227L57.2793 8.53479L59.5142 10.3527L56.7316 10.9959L56.7393 13.9216L54.5142 12.0912L52.2889 13.9216L52.2967 10.9959L49.5142 10.3527L51.749 8.53479L50.5045 5.90227L53.2835 6.5611L54.5142 3.92157Z" fill="#F5F7F8"/>
<path d="M64.5142 13.7255L65.7447 16.365L68.5239 15.7062L67.2793 18.3387L69.5142 20.1566L66.7316 20.7998L66.7393 23.7255L64.5142 21.8951L62.2889 23.7255L62.2967 20.7998L59.5142 20.1566L61.749 18.3387L60.5045 15.7062L63.2835 16.365L64.5142 13.7255Z" fill="#F5F7F8"/>
<ellipse cx="57.0142" cy="26.9608" rx="2.5" ry="2.45098" fill="#F5F7F8"/>
<mask id="mask1_759_738" style="mask-type:alpha" maskUnits="userSpaceOnUse" x="0" y="0" width="36" height="30">
<path d="M0 30L-1.31134e-06 0L36 -1.57361e-06L36 30L0 30Z" fill="#002F6C"/>
</mask>
<g mask="url(#mask1_759_738)">
<path d="M12.7908 1.00458L10.6695 3.1259L36.8665 29.3229L38.9878 27.2016L12.7908 1.00458Z" fill="#F5F7F8"/>
<path d="M7.13393 6.66144L3.59839 10.197L29.7954 36.394L33.3309 32.8585L7.13393 6.66144Z" fill="#F5F7F8"/>
<path d="M7.13393 6.66144L10.6695 3.1259L36.8665 29.3229L33.3309 32.8585L7.13393 6.66144Z" fill="#DD2033"/>
<path d="M6 35H10.0017L10.0017 8.99991H36V4.99994L6 4.99994L6 35Z" fill="#F5F7F8"/>
<path d="M0 35H6.00171L6.00171 4.99991H36.0017V-4.11868e-05L1.90735e-06 -4.57764e-05L0 35Z" fill="#DD2033"/>
</g>
</g>
</svg>
