<svg width="72" height="50" viewBox="0 0 72 50" fill="none" xmlns="http://www.w3.org/2000/svg">
<mask id="mask0_759_1004" style="mask-type:alpha" maskUnits="userSpaceOnUse" x="0" y="0" width="72" height="50">
<rect width="72" height="50" fill="#D9D9D9"/>
</mask>
<g mask="url(#mask0_759_1004)">
<rect width="72" height="50" fill="#004692"/>
<path d="M5.01163 -1.95469L6.80008 -6L8.58846 -1.95469L12.8 -1.41644L9.69369 1.62209L10.5083 6L6.80005 3.5L3.09178 6L3.90641 1.62209L0.800049 -1.41644L5.01163 -1.95469Z" fill="#F5F7F8"/>
<path d="M15.0116 8.04531L16.8001 4L18.5885 8.04531L22.8 8.58356L19.6937 11.6221L20.5083 16L16.8 13.5L13.0918 16L13.9064 11.6221L10.8 8.58356L15.0116 8.04531Z" fill="#F5F7F8"/>
<path d="M26.8001 14L25.0116 18.0453L20.8 18.5836L23.9064 21.6221L23.0918 26L26.8 23.5L30.5083 26L29.6937 21.6221L32.8 18.5836L28.5885 18.0453L26.8001 14Z" fill="#F5F7F8"/>
<path d="M35.0116 28.0453L36.8001 24L38.5885 28.0453L42.8 28.5836L39.6937 31.6221L40.5083 36L36.8 33.5L33.0918 36L33.9064 31.6221L30.8 28.5836L35.0116 28.0453Z" fill="#F5F7F8"/>
<path d="M46.8001 34L45.0116 38.0453L40.8 38.5836L43.9064 41.6221L43.0918 46L46.8 43.5L50.5083 46L49.6937 41.6221L52.8 38.5836L48.5885 38.0453L46.8001 34Z" fill="#F5F7F8"/>
<path d="M55.0116 48.0453L56.8001 44L58.5885 48.0453L62.8 48.5836L59.6937 51.6221L60.5083 56L56.8 53.5L53.0918 56L53.9064 51.6221L50.8 48.5836L55.0116 48.0453Z" fill="#F5F7F8"/>
<path d="M72 -11V51L10 -11H72Z" fill="#F1B434"/>
</g>
</svg>
