<svg width="72" height="50" viewBox="0 0 72 50" fill="none" xmlns="http://www.w3.org/2000/svg">
<mask id="mask0_759_1049" style="mask-type:alpha" maskUnits="userSpaceOnUse" x="0" y="0" width="72" height="50">
<rect width="72" height="50" fill="#D9D9D9"/>
</mask>
<g mask="url(#mask0_759_1049)">
<rect x="72" y="50" width="72" height="50" transform="rotate(180 72 50)" fill="#004692"/>
<rect x="52" y="50" width="32" height="50" transform="rotate(180 52 50)" fill="#F1B434"/>
<path d="M47.3458 12.3636L45.0941 11.2355C44.9584 11.5077 42.0185 17.5022 41.5383 26.6591H38.116V12.3636L35.5987 9L33.0814 12.3636V26.6591H29.659C29.1786 17.5022 26.2389 11.5077 26.1031 11.2355L21.6001 13.4919C21.6312 13.5539 24.6908 19.795 24.6908 29.1818V31.7046H33.0815V42H38.116V31.7046H46.5067V29.1817C46.5067 24.3286 47.3446 20.3269 48.0476 17.8244C48.814 15.0955 49.5924 13.5019 49.6001 13.486L47.3458 12.3636Z" fill="#31373D"/>
</g>
</svg>
