<svg width="72" height="50" viewBox="0 0 72 50" fill="none" xmlns="http://www.w3.org/2000/svg">
<mask id="mask0_762_1256" style="mask-type:alpha" maskUnits="userSpaceOnUse" x="0" y="0" width="72" height="50">
<rect width="72" height="50" fill="#D9D9D9"/>
</mask>
<g mask="url(#mask0_762_1256)">
<rect width="72" height="50" fill="#A00009"/>
<path d="M0 -11L36 24L72 -11V61L36 24L0 61V-11Z" fill="#009B77"/>
<path d="M60.6001 -7L66.964 -0.636039L52.5543 13.7737C54.729 16.9743 55.9998 20.8388 55.9998 25C55.9998 28.5707 55.0641 31.9228 53.4245 34.8246L70 51.4L63.636 57.764L47.345 41.473C44.1214 43.6974 40.2127 45 35.9998 45C31.8386 45 27.9742 43.7292 24.7735 41.5544L9.49995 56.828L3.13599 50.464L18.6479 34.9521C16.9633 32.0212 15.9998 28.6231 15.9998 25C15.9998 20.7871 17.3024 16.8784 19.5268 13.6548L5.23605 -0.636039L11.6 -7L26.1753 7.57534C29.077 5.93572 32.4292 5 35.9998 5C39.623 5 43.0211 5.96341 45.952 7.64804L60.6001 -7Z" fill="#F5F7F8"/>
<path d="M36.3999 10L34.6115 14.0453L30.3999 14.5836L33.5063 17.6221L32.6916 22L36.3999 19.5L40.1082 22L39.2935 17.6221L42.3999 14.5836L38.1883 14.0453L36.3999 10Z" fill="#A00009"/>
<path d="M26.3999 23L24.6115 27.0453L20.3999 27.5836L23.5063 30.6221L22.6916 35L26.3999 32.5L30.1082 35L29.2935 30.6221L32.3999 27.5836L28.1883 27.0453L26.3999 23Z" fill="#A00009"/>
<path d="M45.3999 23L43.6115 27.0453L39.3999 27.5836L42.5063 30.6221L41.6916 35L45.3999 32.5L49.1082 35L48.2935 30.6221L51.3999 27.5836L47.1883 27.0453L45.3999 23Z" fill="#A00009"/>
</g>
</svg>
