<svg width="72" height="50" viewBox="0 0 72 50" fill="none" xmlns="http://www.w3.org/2000/svg">
<mask id="mask0_778_1400" style="mask-type:alpha" maskUnits="userSpaceOnUse" x="0" y="0" width="72" height="50">
<rect width="72" height="50" fill="#D9D9D9"/>
</mask>
<g mask="url(#mask0_778_1400)">
<rect width="72" height="50" fill="#DD2033"/>
<path d="M43.8 23H64.8V31.7432C64.8 37.8265 61.0916 43.2951 55.4401 45.546L54.3 46L53.16 45.546C47.5085 43.2951 43.8 37.8265 43.8 31.7432V23Z" fill="#F5F7F8"/>
<mask id="mask1_778_1400" style="mask-type:alpha" maskUnits="userSpaceOnUse" x="43" y="38" width="23" height="8">
<rect x="43.8" y="38" width="22" height="8" fill="#D9D9D9"/>
</mask>
<g mask="url(#mask1_778_1400)">
<path d="M43.8 23H64.8V31.7432C64.8 37.8265 61.0916 43.2951 55.4401 45.546L54.3 46L53.16 45.546C47.5085 43.2951 43.8 37.8265 43.8 31.7432V23Z" fill="#009B77"/>
</g>
<rect x="51.8" y="26" width="5" height="11" rx="2.5" fill="#DD2033"/>
<path d="M49.8 38V31H58.8V38H49.8Z" fill="#86C5FA"/>
<path d="M54.3 40.8571L49.8 38L58.8 38L54.3 40.8571Z" fill="#F5F7F8"/>
<mask id="mask2_778_1400" style="mask-type:alpha" maskUnits="userSpaceOnUse" x="0" y="0" width="36" height="30">
<path d="M0 30L-1.31134e-06 0L36 -1.57361e-06L36 30L0 30Z" fill="#002F6C"/>
</mask>
<g mask="url(#mask2_778_1400)">
<rect y="3.8147e-06" width="36" height="36" fill="#004692"/>
<path d="M12.7908 1.00458L10.6695 3.1259L36.8665 29.3229L38.9878 27.2016L12.7908 1.00458Z" fill="#F5F7F8"/>
<path d="M7.13393 6.66144L3.59839 10.197L29.7954 36.394L33.3309 32.8585L7.13393 6.66144Z" fill="#F5F7F8"/>
<path d="M7.13393 6.66144L10.6695 3.1259L36.8665 29.3229L33.3309 32.8585L7.13393 6.66144Z" fill="#DD2033"/>
<path d="M6 35H10.0017L10.0017 8.99991H36V4.99994L6 4.99994L6 35Z" fill="#F5F7F8"/>
<path d="M0 35H6.00171L6.00171 4.99991H36.0017V-4.50015e-05L1.90735e-06 -4.95911e-05L0 35Z" fill="#DD2033"/>
</g>
</g>
</svg>
