<svg width="72" height="50" viewBox="0 0 72 50" fill="none" xmlns="http://www.w3.org/2000/svg">
<mask id="mask0_778_1492" style="mask-type:alpha" maskUnits="userSpaceOnUse" x="0" y="0" width="72" height="50">
<rect width="72" height="50" fill="#D9D9D9"/>
</mask>
<g mask="url(#mask0_778_1492)">
<rect width="72" height="50" fill="#F1B434"/>
<rect x="-7.73462" y="6.52124" width="18" height="80.1331" transform="rotate(-45 -7.73462 6.52124)" fill="#31373D"/>
<rect x="10.7444" y="-0.455841" width="18" height="79.7131" transform="rotate(-45 10.7444 -0.455841)" fill="#F5F7F8"/>
<path fill-rule="evenodd" clip-rule="evenodd" d="M36.4126 12.4434C37.5805 11.0812 40.1348 9.18849 43.2876 13.4022C42.9885 13.8038 42.6941 14.1488 42.4051 14.4433C45.1874 16.5026 47 19.8681 47 23.6705C47 29.938 42.0751 35.0189 36 35.0189C29.9249 35.0189 25 29.938 25 23.6705C25 20.0102 26.6797 16.7547 29.2872 14.6795C28.9211 14.3381 28.5456 13.9166 28.1626 13.4022C31.3153 9.18849 33.8697 11.0812 35.0376 12.4433L35.0376 5H36.4126L36.4126 12.4434ZM37.1001 14.9928V29.8418C41.4409 29.2833 44.7999 25.463 44.7999 20.8334C44.7999 18.3812 43.8576 16.1561 42.3262 14.5225C40.1477 16.6806 38.2857 15.9756 37.1001 14.9928ZM29.4223 14.8022C31.4721 16.6152 33.219 15.9304 34.3501 14.9928L34.3501 29.7528C30.2786 28.9561 27.1999 25.2656 27.1999 20.8334C27.1999 18.5184 28.0398 16.4058 29.4223 14.8022Z" fill="#DD2033"/>
<path d="M45.625 37.8113V36.4151H26.375V37.8113H25V42H31.875V40.6038H40.125V42H47V37.8113H45.625Z" fill="#DD2033"/>
</g>
</svg>
