<svg width="72" height="50" viewBox="0 0 72 50" fill="none" xmlns="http://www.w3.org/2000/svg">
<mask id="mask0_780_1536" style="mask-type:alpha" maskUnits="userSpaceOnUse" x="0" y="0" width="72" height="50">
<rect width="72" height="50" fill="#D9D9D9"/>
</mask>
<g mask="url(#mask0_780_1536)">
<rect y="50" width="11" height="72" transform="rotate(-90 0 50)" fill="#009B77"/>
<rect y="39" width="28" height="72" transform="rotate(-90 0 39)" fill="#FBD381"/>
<rect y="11" width="11" height="72" transform="rotate(-90 0 11)" fill="#DD2033"/>
<path d="M35.998 27.5L33.3999 26L27.3999 36.3923L29.998 37.8923L35.998 27.5Z" fill="#936846"/>
<path d="M36.4 27.5L38.998 26L44.998 36.3923L42.4 37.8923L36.4 27.5Z" fill="#936846"/>
<path d="M30 22L17 19V30.3376C17 32.7891 19.1852 34.6638 21.6082 34.291L30 33V22Z" fill="#DD2033"/>
<path d="M42 22L55 19V30.3376C55 32.7891 52.8148 34.6638 50.3918 34.291L42 33V22Z" fill="#DD2033"/>
<path d="M20 17L33 20V31L24.6082 32.291C22.1852 32.6638 20 30.7891 20 28.3376V17Z" fill="#A00009"/>
<path d="M52 17L39 20V31L47.3918 32.291C49.8148 32.6638 52 30.7891 52 28.3376V17Z" fill="#A00009"/>
<path d="M23 15L36 18L49 15V26.3376C49 28.7891 46.8148 30.6638 44.3918 30.291L36 29L27.6082 30.291C25.1852 30.6638 23 28.7891 23 26.3376V15Z" fill="#DD2033"/>
<path d="M29.7672 30.123L36.0001 29L42.233 30.123C44.7385 30.5745 47.0226 28.6015 46.9402 26.057L46.6002 15.5538L36.0001 18L25.4 15.5538L25.06 26.057C24.9777 28.6015 27.2618 30.5745 29.7672 30.123Z" fill="#F1B434"/>
<mask id="mask1_780_1536" style="mask-type:alpha" maskUnits="userSpaceOnUse" x="29" y="15" width="14" height="20">
<ellipse cx="36" cy="25" rx="7" ry="10" fill="#D9D9D9"/>
</mask>
<g mask="url(#mask1_780_1536)">
<path d="M42.5882 33.218C41.0633 35.3965 38.7647 37 36 37C33.2353 37 30.9367 35.3965 29.4118 33.218C27.8824 31.0332 27 28.1214 27 25C27 21.8786 27.8824 18.9668 29.4118 16.782C30.9367 14.6035 33.2353 13 36 13C38.7647 13 41.0633 14.6035 42.5882 16.782C44.1176 18.9668 45 21.8786 45 25C45 28.1214 44.1176 31.0332 42.5882 33.218Z" fill="#FBD381"/>
<path d="M33.8099 24.4331C35.1402 23.5626 36.8598 23.5626 38.1901 24.4331L44.6901 28.6862C48.0167 30.8629 46.4754 36.0333 42.5 36.0333H29.5C25.5246 36.0333 23.9833 30.8629 27.3099 28.6862L33.8099 24.4331Z" fill="#008259"/>
</g>
<path fill-rule="evenodd" clip-rule="evenodd" d="M42.5882 33.218C41.0633 35.3965 38.7647 37 36 37C33.2353 37 30.9367 35.3965 29.4118 33.218C27.8824 31.0332 27 28.1214 27 25C27 21.8786 27.8824 18.9668 29.4118 16.782C30.9367 14.6035 33.2353 13 36 13C38.7647 13 41.0633 14.6035 42.5882 16.782C44.1176 18.9668 45 21.8786 45 25C45 28.1214 44.1176 31.0332 42.5882 33.218ZM36 35C39.866 35 43 30.5228 43 25C43 19.4772 39.866 15 36 15C32.134 15 29 19.4772 29 25C29 30.5228 32.134 35 36 35Z" fill="#005EB8"/>
</g>
</svg>
