<svg width="72" height="50" viewBox="0 0 72 50" fill="none" xmlns="http://www.w3.org/2000/svg">
<mask id="mask0_780_1665" style="mask-type:alpha" maskUnits="userSpaceOnUse" x="0" y="0" width="72" height="50">
<rect width="72" height="50" fill="#D9D9D9"/>
</mask>
<g mask="url(#mask0_780_1665)">
<rect width="72" height="50" fill="#008259"/>
<path d="M36 3L66 25L36 47L6 25L36 3Z" fill="#F1B434"/>
<path d="M36.5 39C43.9558 39 50 32.732 50 25C50 17.268 43.9558 11 36.5 11C29.0442 11 23 17.268 23 25C23 32.732 29.0442 39 36.5 39Z" fill="#004692"/>
<path d="M23.2017 22.5759C24.9142 22.1983 26.6871 22 28.5 22C36.4347 22 43.6024 25.7985 48.3031 31.8006C49.2199 30.093 49.8021 28.1658 49.9579 26.1142C44.4473 20.4797 36.8671 17 28.5 17C27.4216 17 26.3563 17.0578 25.3068 17.1706C24.2656 18.7683 23.5341 20.601 23.2017 22.5759Z" fill="#F5F7F8"/>
</g>
</svg>
