<svg width="72" height="50" viewBox="0 0 72 50" fill="none" xmlns="http://www.w3.org/2000/svg">
<mask id="mask0_780_1742" style="mask-type:alpha" maskUnits="userSpaceOnUse" x="0" y="0" width="72" height="50">
<rect width="72" height="50" fill="#D9D9D9"/>
</mask>
<g mask="url(#mask0_780_1742)">
<rect width="72" height="50" fill="#E26E00"/>
<path d="M-0.399905 -11L-0.399902 61L71.6001 -11L-0.399905 -11Z" fill="#F1B434"/>
<path d="M43.1438 4.3084C39.0115 3.41554 35.4588 7.3246 36.7415 11.353L40.2854 22.4832L29.318 20.311C25.9175 19.6375 22.7494 22.2396 22.7494 25.7062V30.9829L13.8894 35.9465L17.3107 42.0535L23.1001 38.8101V45H30.1001V38.4976L33.6375 38.9693L34.5627 32.0307L29.7494 31.3889V27.5324L39.115 29.3874L38.4122 31.4958C37.4516 34.3775 39.009 37.4923 41.8907 38.4528L50.4933 41.3204L52.7069 34.6796L45.5273 32.2864L47.1228 27.5H55.1001V20.5H47.0002L44.1975 11.6976L55.8609 14.2177L57.3392 7.37556L43.1438 4.3084Z" fill="#F5F7F8"/>
</g>
</svg>
