<svg width="72" height="50" viewBox="0 0 72 50" fill="none" xmlns="http://www.w3.org/2000/svg">
<mask id="mask0_782_52" style="mask-type:alpha" maskUnits="userSpaceOnUse" x="0" y="0" width="72" height="50">
<rect width="72" height="50" fill="#D9D9D9"/>
</mask>
<g mask="url(#mask0_782_52)">
<rect width="72" height="50" fill="#F5F7F8"/>
<path d="M-6.10352e-05 31L-6.29425e-05 -11L71.9999 -11V31H-6.10352e-05Z" fill="#A00009"/>
<path d="M-6.29425e-05 -11L23.9999 -11V61H-6.10352e-05L-6.29425e-05 -11Z" fill="#F5F7F8"/>
<path fill-rule="evenodd" clip-rule="evenodd" d="M4.99991 -35L14.7253 -17.7104L9.96869 -9.25414L5.35779 -17.4513L0.99991 -15L7.10032 -4.15482L2.06244 4.80142L1.35779 3.54871L-3.00009 6.00001L-0.80593 9.90074L-7.35791 21.5487L-3.00003 24L2.06244 15.0001L7.10032 23.9563L2.06244 32.9125L-2.64221 24.5487L-7.00009 27L-0.80593 38.0119L-3.35791 42.5487L0.999968 45L2.06244 43.1112L7.10032 52.0674L0.64209 63.5487L4.99997 66L9.96869 57.1667L14.7566 65.6785L8.64209 76.5487L13 79L17.6249 70.7778L19.9999 75L24.3578 72.5487L20.4933 65.6785L40 31L35.6421 28.5487L25.5312 46.5236L20.7433 38.0118L25.7812 29.0556L27.9999 33L32.3578 30.5487L28.6496 23.9563L32 18L27.6421 15.5487L25.7812 18.857L20.7433 9.90074L25.4999 1.4445L31.9999 13L36.3578 10.5487L20.4621 -17.7104L24 -24L19.6421 -26.4513L17.5937 -22.8097L9.35779 -37.4513L4.99991 -35ZM22.6628 51.623L17.8749 43.1112L12.8371 52.0674L17.6249 60.5792L22.6628 51.623ZM15.0066 38.0118L9.96869 46.9681L4.93081 38.0118L9.96869 29.0556L15.0066 38.0118ZM22.9128 23.9563L17.8749 32.9125L12.8371 23.9563L17.8749 15.0001L22.9128 23.9563ZM15.0066 9.90074L9.96869 18.857L4.93081 9.90074L9.96869 0.944508L15.0066 9.90074ZM22.6316 -3.65482L17.8749 4.80142L12.8371 -4.15482L17.5937 -12.611L22.6316 -3.65482Z" fill="#A00009"/>
<rect x="24" y="50" width="19" height="48" transform="rotate(-90 24 50)" fill="#008259"/>
</g>
</svg>
