<svg width="72" height="50" viewBox="0 0 72 50" fill="none" xmlns="http://www.w3.org/2000/svg">
<mask id="mask0_782_186" style="mask-type:alpha" maskUnits="userSpaceOnUse" x="0" y="0" width="72" height="50">
<rect width="72" height="50" fill="#D9D9D9"/>
</mask>
<g mask="url(#mask0_782_186)">
<rect width="72" height="50" fill="#DD2033"/>
<rect x="54" y="50" width="36" height="50" transform="rotate(180 54 50)" fill="#F5F7F8"/>
<path d="M40.1096 13.5913L35.9109 8.00021L31.7122 13.5913L28.3901 12.5766L31.0668 24.3706L27.7389 19.0142L26.5461 21.294L21.5161 20.5454L22.2576 25.623L20 26.8268L28.8212 32.4102L27.7411 35.9538L34.3542 34.1623L34.3542 42.0002L37.3037 42.0002L37.3036 34.099L44.1507 35.9538L43.0846 32.456L43.0923 32.4638L52 26.806L49.7814 25.623L50.523 20.5455L45.493 21.294L44.3209 19.0539L40.7469 24.7864L40.5837 24.2511L43.22 12.6412L40.1096 13.5913Z" fill="#DD2033"/>
</g>
</svg>
