<svg width="72" height="50" viewBox="0 0 72 50" fill="none" xmlns="http://www.w3.org/2000/svg">
<mask id="mask0_782_212" style="mask-type:alpha" maskUnits="userSpaceOnUse" x="0" y="0" width="72" height="50">
<rect width="72" height="50" fill="#D9D9D9"/>
</mask>
<g mask="url(#mask0_782_212)">
<rect width="72" height="50" fill="#008259"/>
<circle cx="14.3999" cy="13" r="9" fill="#F1B434"/>
<rect x="13.3999" y="12" width="2" height="8" fill="#936846"/>
<path d="M14.3999 6L15.3844 8.11162L17.6077 7.58456L16.612 9.69058L18.3999 11.1449L16.1739 11.6595L16.18 14L14.3999 12.5357L12.6197 14L12.6259 11.6595L10.3999 11.1449L12.1878 9.69058L11.1922 7.58456L13.4154 8.11162L14.3999 6Z" fill="#009B77"/>
<path d="M56.3844 7.11162L55.3999 5L54.4154 7.11162L52.1922 6.58456L53.1878 8.69058L51.3999 10.1449L53.6259 10.6595L53.6197 13L55.3999 11.5357L57.18 13L57.1739 10.6595L59.3999 10.1449L57.612 8.69058L58.6077 6.58456L56.3844 7.11162Z" fill="#F1B434"/>
<path d="M37.8998 14.5C38.5145 14.5 39.1119 14.5739 39.6836 14.7134C38.1998 13.6356 36.3741 13 34.3999 13C29.4293 13 25.3999 17.0294 25.3999 22C25.3999 26.9706 29.4293 31 34.3999 31C36.3741 31 38.1998 30.3644 39.6836 29.2866C39.1119 29.4261 38.5145 29.5 37.8998 29.5C33.7576 29.5 30.3998 26.1421 30.3998 22C30.3998 17.8579 33.7576 14.5 37.8998 14.5Z" fill="#F1B434"/>
<path d="M46.3844 21.1116L45.3999 19L44.4154 21.1116L42.1922 20.5846L43.1878 22.6906L41.3999 24.1449L43.6259 24.6595L43.6197 27L45.3999 25.5357L47.18 27L47.1739 24.6595L49.3999 24.1449L47.612 22.6906L48.6077 20.5846L46.3844 21.1116Z" fill="#F1B434"/>
<path d="M52.3999 38L53.3844 40.1116L55.6077 39.5846L54.612 41.6906L56.3999 43.1449L54.1739 43.6595L54.18 46L52.3999 44.5357L50.6197 46L50.6259 43.6595L48.3999 43.1449L50.1878 41.6906L49.1922 39.5846L51.4154 40.1116L52.3999 38Z" fill="#F1B434"/>
<path d="M63.3999 18L64.3844 20.1116L66.6077 19.5846L65.612 21.6906L67.3999 23.1449L65.1739 23.6595L65.18 26L63.3999 24.5357L61.6197 26L61.6259 23.6595L59.3999 23.1449L61.1878 21.6906L60.1922 19.5846L62.4154 20.1116L63.3999 18Z" fill="#F1B434"/>
<path d="M59.3999 32C60.5045 32 61.3999 31.1046 61.3999 30C61.3999 28.8954 60.5045 28 59.3999 28C58.2953 28 57.3999 28.8954 57.3999 30C57.3999 31.1046 58.2953 32 59.3999 32Z" fill="#F1B434"/>
</g>
</svg>
