<svg width="72" height="50" viewBox="0 0 72 50" fill="none" xmlns="http://www.w3.org/2000/svg">
<mask id="mask0_782_452" style="mask-type:alpha" maskUnits="userSpaceOnUse" x="0" y="0" width="72" height="50">
<rect width="72" height="50" fill="#D9D9D9"/>
</mask>
<g mask="url(#mask0_782_452)">
<rect width="72" height="50" fill="#004692"/>
<mask id="mask1_782_452" style="mask-type:alpha" maskUnits="userSpaceOnUse" x="0" y="0" width="36" height="30">
<path d="M0 30L-1.31134e-06 0L36 -1.57361e-06L36 30L0 30Z" fill="#002F6C"/>
</mask>
<g mask="url(#mask1_782_452)">
<path d="M12.7908 1.00457L10.6695 3.12589L36.8665 29.3229L38.9878 27.2016L12.7908 1.00457Z" fill="#F5F7F8"/>
<path d="M7.13393 6.66142L3.59839 10.197L29.7954 36.394L33.3309 32.8584L7.13393 6.66142Z" fill="#F5F7F8"/>
<path d="M7.13393 6.66142L10.6695 3.12589L36.8665 29.3229L33.3309 32.8584L7.13393 6.66142Z" fill="#DD2033"/>
<path d="M6 35H10.0017L10.0017 8.99991H36V4.99994L6 4.99994L6 35Z" fill="#F5F7F8"/>
<path d="M0 35H6.00171L6.00171 4.9999H36.0017V-5.64456e-05L1.90735e-06 -6.10352e-05L0 35Z" fill="#DD2033"/>
</g>
<path d="M43.0583 28.9417L42.1467 31.0037L40 31.278L41.5833 32.8268L41.1681 35.0583L43.0583 33.784L44.9484 35.0583L44.5332 32.8268L46.1165 31.278L43.9698 31.0037L43.0583 28.9417Z" fill="#F5F7F8"/>
<path d="M45.3513 23.2667L46.2629 21.2048L47.1745 23.2667L49.3211 23.5411L47.7378 25.0898L48.153 27.3213L46.2629 26.047L44.3727 27.3213L44.788 25.0898L43.2046 23.5411L45.3513 23.2667Z" fill="#F5F7F8"/>
<path d="M53.0886 20.0619L54.0002 18L54.9117 20.0619L57.0584 20.3363L55.4751 21.885L55.8903 24.1165L54.0002 22.8422L52.11 24.1165L52.5252 21.885L50.9419 20.3363L53.0886 20.0619Z" fill="#F5F7F8"/>
<path d="M45.3513 38.7406L46.2629 36.6787L47.1744 38.7406L49.3211 39.015L47.7378 40.5638L48.153 42.7952L46.2629 41.5209L44.3727 42.7952L44.788 40.5638L43.2046 39.015L45.3513 38.7406Z" fill="#F5F7F8"/>
<path d="M54.0002 39.8835L53.0886 41.9454L50.9419 42.2198L52.5252 43.7685L52.11 46L54.0002 44.7257L55.8903 46L55.4751 43.7685L57.0584 42.2198L54.9117 41.9454L54.0002 39.8835Z" fill="#F5F7F8"/>
<path d="M60.8253 38.7406L61.7369 36.6787L62.6485 38.7406L64.7952 39.015L63.2118 40.5638L63.6271 42.7952L61.7369 41.5209L59.8468 42.7952L60.262 40.5638L58.6786 39.015L60.8253 38.7406Z" fill="#F5F7F8"/>
<path d="M64.9417 28.9417L64.0302 31.0037L61.8835 31.278L63.4668 32.8268L63.0516 35.0583L64.9417 33.784L66.8319 35.0583L66.4167 32.8268L68 31.278L65.8533 31.0037L64.9417 28.9417Z" fill="#F5F7F8"/>
<path d="M60.8253 23.2667L61.7369 21.2048L62.6485 23.2667L64.7952 23.5411L63.2118 25.0898L63.6271 27.3213L61.7369 26.047L59.8468 27.3213L60.262 25.0898L58.6786 23.5411L60.8253 23.2667Z" fill="#F5F7F8"/>
</g>
</svg>
