<svg width="72" height="50" viewBox="0 0 72 50" fill="none" xmlns="http://www.w3.org/2000/svg">
<mask id="mask0_782_474" style="mask-type:alpha" maskUnits="userSpaceOnUse" x="0" y="0" width="72" height="50">
<rect width="72" height="50" fill="#D9D9D9"/>
</mask>
<g mask="url(#mask0_782_474)">
<rect width="72" height="50" fill="#DD2033"/>
<path d="M34.2034 3L31.9147 5.77836L28.4439 5.3185L30.2704 8.33432L28.6866 11.5751L32.1751 10.4015L34.5961 13.1234L34.8817 9.54247L38.0056 7.82362L34.7647 6.52506L34.2034 3Z" fill="#F1B434"/>
<path d="M18.074 14.9339L15.3693 20.9159L9 21.7118L13.6979 26.205L12.4659 32.6788L18.074 28.9819L23.6821 32.6788L22.4502 26.205L27.148 21.7118L20.7787 20.9159L18.074 14.9339Z" fill="#F1B434"/>
<path d="M37.6793 18.6238L38.2406 15.0988L40.5293 17.8771L44 17.4173L42.1736 20.4331L43.7574 23.6739L40.2689 22.5002L37.8479 25.2221L37.5623 21.6412L34.4384 19.9224L37.6793 18.6238Z" fill="#F1B434"/>
<path d="M37.8718 27.0326L36.3965 30.2955L32.9224 30.7297L35.4848 33.1805L34.8128 36.7117L37.8718 34.6952L40.9308 36.7117L40.2588 33.1805L42.8213 30.7297L39.3471 30.2955L37.8718 27.0326Z" fill="#F1B434"/>
<path d="M28.615 39.655L30.9037 36.8766L31.465 40.4017L34.7059 41.7003L31.582 43.4191L31.2964 47L28.8754 44.2781L25.3869 45.4517L26.9707 42.2109L25.1443 39.1951L28.615 39.655Z" fill="#F1B434"/>
</g>
</svg>
