<svg width="72" height="50" viewBox="0 0 72 50" fill="none" xmlns="http://www.w3.org/2000/svg">
<mask id="mask0_782_710" style="mask-type:alpha" maskUnits="userSpaceOnUse" x="0" y="0" width="72" height="50">
<rect width="72" height="50" fill="#D9D9D9"/>
</mask>
<g mask="url(#mask0_782_710)">
<rect width="72" height="50" fill="#004692"/>
<rect y="40" width="18" height="72" transform="rotate(-90 0 40)" fill="#F5F7F8"/>
<rect y="34" width="6" height="72" transform="rotate(-90 0 34)" fill="#DD2033"/>
<path d="M15.386 27.1141L14.3767 29.3969L12 29.7007L13.753 31.4154L13.2933 33.8859L15.3859 32.4751L17.4786 33.8859L17.0189 31.4154L18.7719 29.7007L16.3952 29.3969L15.386 27.1141Z" fill="#F1B434"/>
<path d="M17.9247 20.831L18.9339 18.5481L19.9431 20.831L22.3198 21.1347L20.5668 22.8495L21.0266 25.32L18.9339 23.9092L16.8412 25.32L17.3009 22.8495L15.548 21.1347L17.9247 20.831Z" fill="#F1B434"/>
<path d="M26.4909 17.2829L27.5002 15L28.5094 17.2829L30.8861 17.5866L29.1331 19.3013L29.5928 21.7718L27.5002 20.361L25.4075 21.7718L25.8672 19.3013L24.1142 17.5866L26.4909 17.2829Z" fill="#F1B434"/>
<path d="M17.9247 37.9629L18.9339 35.68L19.9431 37.9629L22.3198 38.2666L20.5668 39.9813L21.0266 42.4519L18.9339 41.041L16.8412 42.4519L17.3009 39.9813L15.548 38.2666L17.9247 37.9629Z" fill="#F1B434"/>
<path d="M27.5002 39.2282L26.4909 41.511L24.1142 41.8148L25.8672 43.5295L25.4075 46L27.5002 44.5892L29.5928 46L29.1331 43.5295L30.8861 41.8148L28.5094 41.511L27.5002 39.2282Z" fill="#F1B434"/>
<path d="M35.0566 37.9629L36.0659 35.68L37.0751 37.9629L39.4518 38.2666L37.6988 39.9813L38.1585 42.4519L36.0659 41.041L33.9732 42.4519L34.4329 39.9813L32.6799 38.2666L35.0566 37.9629Z" fill="#F1B434"/>
<path d="M39.6141 27.1141L38.6048 29.3969L36.2281 29.7007L37.9811 31.4154L37.5214 33.8859L39.6141 32.4751L41.7067 33.8859L41.247 31.4154L43 29.7007L40.6233 29.3969L39.6141 27.1141Z" fill="#F1B434"/>
<path d="M35.0566 20.831L36.0659 18.5481L37.0751 20.831L39.4518 21.1347L37.6988 22.8495L38.1585 25.32L36.0659 23.9092L33.9732 25.32L34.4329 22.8495L32.6799 21.1347L35.0566 20.831Z" fill="#F1B434"/>
</g>
</svg>
