<svg width="72" height="50" viewBox="0 0 72 50" fill="none" xmlns="http://www.w3.org/2000/svg">
<mask id="mask0_782_716" style="mask-type:alpha" maskUnits="userSpaceOnUse" x="0" y="0" width="72" height="50">
<rect width="72" height="50" fill="#D9D9D9"/>
</mask>
<g mask="url(#mask0_782_716)">
<rect width="72" height="50" fill="#004692"/>
<rect y="42.0001" width="6" height="72" transform="rotate(-90 0 42.0001)" fill="#FBD381"/>
<path d="M17.6154 9.39375L20 4L22.3846 9.39375L28 10.1114L23.8582 14.1628L24.9444 20L20 16.6667L15.0556 20L16.1418 14.1628L12 10.1114L17.6154 9.39375Z" fill="#F5F7F8"/>
<path d="M34.0193 19.7422L37.0001 13L39.9807 19.7422L47 20.6393L41.8227 25.7035L43.1805 33L37 28.8333L30.8196 33L32.1773 25.7035L27 20.6393L34.0193 19.7422Z" fill="#F5F7F8"/>
</g>
</svg>
