<svg width="72" height="50" viewBox="0 0 72 50" fill="none" xmlns="http://www.w3.org/2000/svg">
<mask id="mask0_782_721" style="mask-type:alpha" maskUnits="userSpaceOnUse" x="0" y="0" width="72" height="50">
<rect width="72" height="50" fill="#D9D9D9"/>
</mask>
<g mask="url(#mask0_782_721)">
<rect width="72" height="50" transform="matrix(1 0 0 -1 0 50)" fill="#004692"/>
<path d="M72 -11L72 61L0 -11L72 -11Z" fill="#008259"/>
<path fill-rule="evenodd" clip-rule="evenodd" d="M62.2083 14.4362C61.0692 15.1123 60.4406 16.1376 60.222 16.7987C59.7903 18.1046 57.9752 18.1893 57.4237 16.9293C56.6395 15.1376 55.1797 14.3418 53.4728 14.0835C51.71 13.8168 49.8247 14.1638 48.6529 14.5727L47.6644 11.7403C49.1677 11.2156 51.5564 10.7594 53.9216 11.1173C55.6256 11.3751 57.3796 12.0739 58.7248 13.5062C59.2374 12.9024 59.8842 12.327 60.6772 11.8564C62.5642 10.7364 65.1353 10.2943 68.389 11.2536L67.5406 14.1312C64.9883 13.3787 63.2942 13.7918 62.2083 14.4362Z" fill="#F1B434"/>
<path d="M9.86585 12.1844L8.53077 10.3722L8.06143 12.5737L5.91597 12.5123L7.26012 14.3169L5.91984 16.0525L8.06531 16.1015L8.53943 18.3271L9.87065 16.5835L11.8022 17.6232L11.3167 15.4001L13.2512 14.471L11.3146 13.4423L11.7953 11.244L9.86585 12.1844Z" fill="#F5F7F8"/>
<path d="M5.63378 23.7609L6.96887 25.5731L8.89834 24.6327L8.41758 26.831L10.3542 27.8597L8.41974 28.7888L8.90522 31.0119L6.97366 29.9722L5.64244 31.7157L5.16832 29.4901L3.02286 29.4412L4.36313 27.7056L3.01899 25.901L5.16444 25.9624L5.63378 23.7609Z" fill="#F5F7F8"/>
<path d="M11.1361 38.7172L12.4712 40.5293L14.4007 39.5889L13.9199 41.7872L15.8566 42.8159L13.9221 43.745L14.4076 45.9681L12.476 44.9284L11.1448 46.672L10.6707 44.4464L8.52522 44.3974L9.86549 42.6619L8.52135 40.8572L10.6668 40.9186L11.1361 38.7172Z" fill="#F5F7F8"/>
<path d="M18.1742 17.873L19.5093 19.6852L21.4388 18.7448L20.958 20.9431L22.8946 21.9718L20.9601 22.9009L21.4456 25.124L19.5141 24.0843L18.1829 25.8279L17.7087 23.6023L15.5633 23.5533L16.9035 21.8177L15.5594 20.0131L17.7049 20.0745L18.1742 17.873Z" fill="#F5F7F8"/>
<path d="M17.0941 32.4281C18.1063 32.2097 18.7434 31.1817 18.5169 30.132C18.2905 29.0822 17.2863 28.4083 16.2741 28.6266C15.2618 28.845 14.6248 29.873 14.8512 30.9227C15.0777 31.9725 16.0818 32.6464 17.0941 32.4281Z" fill="#F5F7F8"/>
<circle cx="36.1001" cy="24.5" r="8.5" fill="#F1B434"/>
</g>
</svg>
