<svg width="72" height="50" viewBox="0 0 72 50" fill="none" xmlns="http://www.w3.org/2000/svg">
<mask id="mask0_782_728" style="mask-type:alpha" maskUnits="userSpaceOnUse" x="0" y="0" width="72" height="50">
<rect width="72" height="50" fill="#D9D9D9"/>
</mask>
<g mask="url(#mask0_782_728)">
<rect width="72" height="50" fill="#F5F7F8"/>
<path d="M17.0181 17.48C17.0181 17.48 16.1938 27.06 25.6588 27.8745L27.3869 29.9533L31.173 30.2791C31.173 30.2791 33.5605 24.694 37.3465 25.0198C37.3465 25.0198 37.6763 21.1877 41.4623 21.5135C45.2484 21.8393 47.1413 22.0022 47.1413 22.0022C47.1413 22.0022 45.9078 14.1752 55.8674 9.24171L52.2463 7C52.2463 7 38.1709 15.4398 28.8707 12.7094L28.541 16.5414L24.7549 16.2157L23.0268 14.1368L17.0181 17.48Z" fill="#FF9E42"/>
<path d="M17.7754 30.5878C20.019 36.285 25.251 40.5766 31.6391 41.7065C31.4554 41.8229 31.2815 41.9612 31.1213 42.1214C29.9497 43.293 29.9497 45.1925 31.1213 46.364L35.1821 42.3033L39.2428 46.364C40.4144 45.1925 40.4144 43.293 39.2428 42.1214C39.0583 41.9368 38.8556 41.7813 38.6406 41.6549C44.9017 40.4509 50.0142 36.2017 52.225 30.5878L47.0581 29.3881C45.0322 33.8445 40.3959 36.9598 35.0004 36.9598C29.6049 36.9598 24.9686 33.8444 22.9427 29.3879L17.7754 30.5878Z" fill="#009B77"/>
</g>
</svg>
