<svg width="72" height="50" viewBox="0 0 72 50" fill="none" xmlns="http://www.w3.org/2000/svg">
<mask id="mask0_783_1060" style="mask-type:alpha" maskUnits="userSpaceOnUse" x="0" y="0" width="72" height="50">
<rect width="72" height="50" fill="#D9D9D9"/>
</mask>
<g mask="url(#mask0_783_1060)">
<rect width="72" height="50" fill="#005B33"/>
<rect x="36" width="36" height="50" fill="#F5F7F8"/>
<path d="M41 9C45.73 9 49.9806 11.0525 52.9098 14.3154C49.365 8.71695 43.1166 5 36 5C24.9543 5 16 13.9543 16 25C16 36.0457 24.9543 45 36 45C43.1166 45 49.365 41.283 52.9098 35.6846C49.9806 38.9475 45.73 41 41 41C32.1634 41 25 33.8366 25 25C25 16.1634 32.1634 9 41 9Z" fill="#DD2033"/>
<path d="M39.7039 24.3408L36.7782 16.7781L44.3408 19.7039L50.4983 14.9419L50.4104 22.9079L57.1418 27.5272L49.0936 29.0936L47.5273 37.1418L42.908 30.4104L34.942 30.4983L39.7039 24.3408Z" fill="#DD2033"/>
</g>
</svg>
