<svg width="72" height="50" viewBox="0 0 72 50" fill="none" xmlns="http://www.w3.org/2000/svg">
<mask id="mask0_783_1114" style="mask-type:alpha" maskUnits="userSpaceOnUse" x="0" y="0" width="72" height="50">
<rect width="72" height="50" fill="#D9D9D9"/>
</mask>
<g mask="url(#mask0_783_1114)">
<rect y="50" width="7" height="72" transform="rotate(-90 0 50)" fill="#DD2033"/>
<rect y="25" width="25" height="72" transform="rotate(-90 0 25)" fill="#F1B434"/>
<rect y="43" width="18" height="72" transform="rotate(-90 0 43)" fill="#004692"/>
<path fill-rule="evenodd" clip-rule="evenodd" d="M39.2083 13.4362C38.0692 14.1123 37.4406 15.1376 37.222 15.7987C36.7903 17.1046 34.9752 17.1893 34.4237 15.9293C33.6395 14.1376 32.1797 13.3418 30.4728 13.0835C28.71 12.8168 26.8247 13.1638 25.6529 13.5727L24.6644 10.7403C26.1677 10.2156 28.5564 9.75938 30.9216 10.1173C32.6256 10.3751 34.3796 11.0739 35.7248 12.5062C36.2374 11.9024 36.8842 11.327 37.6772 10.8564C39.5642 9.7364 42.1353 9.29432 45.389 10.2536L44.5406 13.1312C41.9883 12.3787 40.2942 12.7918 39.2083 13.4362Z" fill="#936846"/>
<path d="M30.2002 25L17.2002 22V33.3376C17.2002 35.7891 19.3854 37.6638 21.8084 37.291L30.2002 36V25Z" fill="#FBD381"/>
<path d="M42.2002 25L55.2002 22V33.3376C55.2002 35.7891 53.015 37.6638 50.592 37.291L42.2002 36V25Z" fill="#FBD381"/>
<path d="M33.2002 23L20.2002 20V31.3376C20.2002 33.7891 22.3854 35.6638 24.8084 35.291L33.2002 34V23Z" fill="#004692"/>
<path d="M39.2002 23L52.2002 20V31.3376C52.2002 33.7891 50.015 35.6638 47.592 35.291L39.2002 34V23Z" fill="#004692"/>
<path d="M23.2002 18L36.2002 21L49.2002 18V29.3376C49.2002 31.7891 47.015 33.6638 44.592 33.291L36.2002 32L27.8084 33.291C25.3854 33.6638 23.2002 31.7891 23.2002 29.3376V18Z" fill="#DD2033"/>
<path d="M42.7884 36.218C41.2635 38.3965 38.9649 40 36.2002 40C33.4354 40 31.1369 38.3965 29.612 36.218C28.0826 34.0332 27.2002 31.1214 27.2002 28C27.2002 24.8786 28.0826 21.9668 29.612 19.782C31.1369 17.6035 33.4354 16 36.2002 16C38.9649 16 41.2635 17.6035 42.7884 19.782C44.3178 21.9668 45.2002 24.8786 45.2002 28C45.2002 31.1214 44.3178 34.0332 42.7884 36.218Z" fill="#0091DA"/>
<path fill-rule="evenodd" clip-rule="evenodd" d="M42.7884 36.218C41.2635 38.3965 38.9649 40 36.2002 40C33.4354 40 31.1369 38.3965 29.612 36.218C28.0826 34.0332 27.2002 31.1214 27.2002 28C27.2002 24.8786 28.0826 21.9668 29.612 19.782C31.1369 17.6035 33.4354 16 36.2002 16C38.9649 16 41.2635 17.6035 42.7884 19.782C44.3178 21.9668 45.2002 24.8786 45.2002 28C45.2002 31.1214 44.3178 34.0332 42.7884 36.218ZM36.2002 38C40.0662 38 43.2002 33.5228 43.2002 28C43.2002 22.4772 40.0662 18 36.2002 18C32.3342 18 29.2002 22.4772 29.2002 28C29.2002 33.5228 32.3342 38 36.2002 38Z" fill="#C1C3C3"/>
<mask id="mask1_783_1114" style="mask-type:alpha" maskUnits="userSpaceOnUse" x="29" y="18" width="15" height="20">
<ellipse cx="36.2002" cy="28" rx="7" ry="10" fill="#D9D9D9"/>
</mask>
<g mask="url(#mask1_783_1114)">
<path d="M33.6001 29L29.6001 35L28.6001 29H33.6001Z" fill="#008259"/>
<path d="M33.6001 29L42.4001 35L44.6001 29H33.6001Z" fill="#008259"/>
<path d="M35.6001 25L40.6001 29H27.6001L29.1001 24L33.6001 26L35.6001 25Z" fill="#F5F7F8"/>
</g>
</g>
</svg>
