<svg width="72" height="50" viewBox="0 0 72 50" fill="none" xmlns="http://www.w3.org/2000/svg">
<mask id="mask0_783_1310" style="mask-type:alpha" maskUnits="userSpaceOnUse" x="0" y="0" width="72" height="50">
<rect width="72" height="50" fill="#D9D9D9"/>
</mask>
<g mask="url(#mask0_783_1310)">
<rect width="72" height="25" fill="#009B77"/>
<rect y="50" width="25" height="72" transform="rotate(-90 0 50)" fill="#0091DA"/>
<path d="M72 25L0 0V50L72 25Z" fill="#DD2033"/>
<path d="M20 36C26.6274 36 32 30.6274 32 24C32 20.6863 30.6568 17.6863 28.4853 15.5147L26.0609 17.9391C27.612 19.4902 28.5714 21.6331 28.5714 24C28.5714 28.1468 25.6267 31.6058 21.7143 32.4V18.8571H18.2857V32.4C14.3733 31.6058 11.4286 28.1468 11.4286 24C11.4286 21.6331 12.3879 19.4903 13.939 17.9391L11.5147 15.5148C9.34313 17.6863 8 20.6863 8 24C8 30.6274 13.3726 36 20 36Z" fill="#FBD381"/>
<path d="M20 12L20.0253 12H19.9747L20 12Z" fill="#FBD381"/>
</g>
</svg>
