<svg width="72" height="50" viewBox="0 0 72 50" fill="none" xmlns="http://www.w3.org/2000/svg">
<mask id="mask0_784_1340" style="mask-type:alpha" maskUnits="userSpaceOnUse" x="0" y="0" width="72" height="50">
<rect width="72" height="50" fill="#D9D9D9"/>
</mask>
<g mask="url(#mask0_784_1340)">
<rect width="72" height="50" fill="#A00009"/>
<rect x="72" y="10" width="30" height="72" transform="rotate(90 72 10)" fill="#F1B434"/>
<path fill-rule="evenodd" clip-rule="evenodd" d="M19.7399 12H21.2999V13.04L22.8599 13.04V14.6H21.2999V16.0574C21.7589 15.7919 22.2917 15.64 22.8599 15.64C24.5831 15.64 25.9799 17.0369 25.9799 18.76C25.9799 19.6841 25.5782 20.5143 24.9399 21.0856V22.4H16.0999V21.0855C15.4616 20.5142 15.0599 19.684 15.0599 18.76C15.0599 17.0369 16.4568 15.64 18.1799 15.64C18.7482 15.64 19.281 15.7919 19.7399 16.0574V14.6H18.1799V13.04H19.7399V12ZM20.5199 16.6963L20.5055 16.68H20.5344L20.5199 16.6963ZM20.5055 20.84L20.5199 20.8237L20.5344 20.84H20.5055Z" fill="#E26E00"/>
<path d="M13.5 22.4L27.54 22.4L27.54 30.0611C27.54 33.1448 25.6682 35.92 22.809 37.0752C21.3407 37.6685 19.6993 37.6685 18.231 37.0752C15.3718 35.92 13.5 33.1448 13.5 30.0611L13.5 22.4Z" fill="#F5F7F8"/>
<mask id="mask1_784_1340" style="mask-type:alpha" maskUnits="userSpaceOnUse" x="13" y="22" width="15" height="16">
<path d="M13.5 22.4H27.54V30.0611C27.54 33.1448 25.6682 35.92 22.809 37.0752C21.3407 37.6685 19.6993 37.6685 18.231 37.0752C15.3718 35.92 13.5 33.1448 13.5 30.0611V22.4Z" fill="#F5F7F8"/>
</mask>
<g mask="url(#mask1_784_1340)">
<rect x="13.5" y="22.4" width="7.02" height="7.8" fill="#DD2033"/>
<rect x="13.5" y="30.2" width="7.02" height="7.8" fill="#E26E00"/>
<rect x="20.5203" y="30.2" width="7.02" height="7.8" fill="#DD2033"/>
</g>
<path d="M29.1002 22.4H31.4402V37.22H29.1002V22.4Z" fill="#F5F7F8"/>
<path d="M9.60034 22.4H11.9403V37.22H9.60034V22.4Z" fill="#F5F7F8"/>
</g>
</svg>
