<svg width="72" height="50" viewBox="0 0 72 50" fill="none" xmlns="http://www.w3.org/2000/svg">
<mask id="mask0_784_1391" style="mask-type:alpha" maskUnits="userSpaceOnUse" x="0" y="0" width="72" height="50">
<rect width="72" height="50" fill="#D9D9D9"/>
</mask>
<g mask="url(#mask0_784_1391)">
<rect x="0.000244141" y="50" width="16" height="72" transform="rotate(-90 0.000244141 50)" fill="#DD2033"/>
<rect x="0.000244141" y="34" width="18" height="72" transform="rotate(-90 0.000244141 34)" fill="#FBD381"/>
<rect y="16" width="16" height="72" transform="rotate(-90 0 16)" fill="#009B77"/>
<circle cx="36" cy="25" r="20" fill="#004692"/>
<path d="M32.7212 21.4164L36.0001 14L39.2788 21.4164L47 22.4032L41.3051 27.9738L42.7985 36L36 31.4167L29.2015 36L30.695 27.9738L25 22.4032L32.7212 21.4164Z" fill="#FBD381"/>
<path d="M29.0712 15.063L31.1186 17.6222L30.6619 18.6552L28.3404 18.9519L26.7286 16.9371L29.0712 15.063Z" fill="#FBD381"/>
<path d="M23.2749 30.1364L26.9116 28.4696L27.4528 28.999L26.9396 31.7569L24.5249 32.8636L23.2749 30.1364Z" fill="#FBD381"/>
<path d="M34.3999 39V36.1135L36.0001 35.0347L37.3999 35.9785V39H34.3999Z" fill="#FBD381"/>
<path d="M47.2749 32.8636L45.0792 31.8573L44.5473 28.999L45.0246 28.5321L48.5249 30.1364L47.2749 32.8636Z" fill="#FBD381"/>
<path d="M45.0928 16.4091L43.2002 18.8932L41.3382 18.6552L40.7036 17.2198L42.7065 14.5909L45.0928 16.4091Z" fill="#FBD381"/>
</g>
</svg>
