<svg width="72" height="50" viewBox="0 0 72 50" fill="none" xmlns="http://www.w3.org/2000/svg">
<mask id="mask0_784_1450" style="mask-type:alpha" maskUnits="userSpaceOnUse" x="0" y="0" width="72" height="50">
<rect width="72" height="50" fill="#D9D9D9"/>
</mask>
<g mask="url(#mask0_784_1450)">
<rect width="72" height="50" fill="#004692"/>
<path d="M36.0002 3L34.5677 6.24018L31.1944 6.6713L33.6825 9.10507L33.03 12.6116L36.0002 10.6092L38.9704 12.6116L38.3179 9.10507L40.806 6.6713L37.4327 6.24018L36.0002 3Z" fill="#F1B434"/>
<path d="M23.8417 8.03608L22.4092 11.2763L19.0358 11.7074L21.5239 14.1412L20.8714 17.6477L23.8417 15.6453L26.8119 17.6477L26.1594 14.1412L28.6475 11.7074L25.2741 11.2763L23.8417 8.03608Z" fill="#F1B434"/>
<path d="M18.8059 20.1942L17.3734 23.4344L14 23.8655L16.4881 26.2993L15.8356 29.8058L18.8058 27.8034L21.7761 29.8058L21.1236 26.2993L23.6117 23.8655L20.2383 23.4344L18.8059 20.1942Z" fill="#F1B434"/>
<path d="M23.8417 32.3523L22.4092 35.5924L19.0358 36.0236L21.5239 38.4573L20.8714 41.9639L23.8417 39.9615L26.8119 41.9639L26.1594 38.4573L28.6475 36.0236L25.2741 35.5924L23.8417 32.3523Z" fill="#F1B434"/>
<path d="M36.0002 37.3884L34.5677 40.6285L31.1944 41.0597L33.6825 43.4934L33.03 47L36.0002 44.9976L38.9704 47L38.3179 43.4934L40.806 41.0597L37.4327 40.6285L36.0002 37.3884Z" fill="#F1B434"/>
<path d="M48.158 32.3523L46.7255 35.5924L43.3521 36.0236L45.8402 38.4573L45.1877 41.9639L48.158 39.9615L51.1282 41.9639L50.4757 38.4573L52.9638 36.0236L49.5904 35.5924L48.158 32.3523Z" fill="#F1B434"/>
<path d="M53.1942 20.1942L51.7617 23.4344L48.3883 23.8655L50.8764 26.2993L50.2239 29.8058L53.1942 27.8034L56.1644 29.8058L55.5119 26.2993L58 23.8655L54.6266 23.4344L53.1942 20.1942Z" fill="#F1B434"/>
<path d="M48.158 8.03608L46.7255 11.2763L43.3521 11.7074L45.8402 14.1412L45.1877 17.6477L48.158 15.6453L51.1282 17.6477L50.4757 14.1412L52.9638 11.7074L49.5904 11.2763L48.158 8.03608Z" fill="#F1B434"/>
</g>
</svg>
