<svg width="72" height="50" viewBox="0 0 72 50" fill="none" xmlns="http://www.w3.org/2000/svg">
<mask id="mask0_784_1653" style="mask-type:alpha" maskUnits="userSpaceOnUse" x="0" y="0" width="72" height="50">
<rect width="72" height="50" fill="#D9D9D9"/>
</mask>
<g mask="url(#mask0_784_1653)">
<rect width="72" height="50" fill="#004692"/>
<mask id="mask1_784_1653" style="mask-type:alpha" maskUnits="userSpaceOnUse" x="0" y="0" width="36" height="30">
<path d="M0 30L-1.31134e-06 0L36 -1.57361e-06L36 30L0 30Z" fill="#002F6C"/>
</mask>
<g mask="url(#mask1_784_1653)">
<path d="M12.7908 1.00463L10.6695 3.12595L36.8665 29.323L38.9878 27.2017L12.7908 1.00463Z" fill="#F5F7F8"/>
<path d="M7.13393 6.66148L3.59839 10.197L29.7954 36.394L33.3309 32.8585L7.13393 6.66148Z" fill="#F5F7F8"/>
<path d="M7.13393 6.66148L10.6695 3.12595L36.8665 29.323L33.3309 32.8585L7.13393 6.66148Z" fill="#DD2033"/>
<path d="M6 35H10.0017L10.0017 8.99997H36V5L6 5L6 35Z" fill="#F5F7F8"/>
<path d="M0 35.0001H6.00171L6.00171 4.99996H36.0017V4.58956e-06L1.90735e-06 0L0 35.0001Z" fill="#DD2033"/>
</g>
<path d="M64.6001 37H43.6001V42H46.6001V45H61.6001V42H64.6001V37Z" fill="#FBD381"/>
<path d="M43.6001 19H64.6001V27.7432C64.6001 33.8265 60.8917 39.2951 55.2401 41.546L54.1001 42L52.96 41.546C47.3085 39.2951 43.6001 33.8265 43.6001 27.7432V19Z" fill="#0091DA"/>
<mask id="mask2_784_1653" style="mask-type:alpha" maskUnits="userSpaceOnUse" x="43" y="19" width="22" height="23">
<path d="M43.6001 19H64.6001V27.7432C64.6001 33.8265 60.8917 39.2951 55.2401 41.546L54.1001 42L52.96 41.546C47.3085 39.2951 43.6001 33.8265 43.6001 27.7432V19Z" fill="#0091DA"/>
</mask>
<g mask="url(#mask2_784_1653)">
<path d="M54.0994 32C51.4746 32 51.4746 34.1818 48.8498 34.1818C46.2249 34.1818 46.2249 32 43.6001 32V35.8181C46.2249 35.8181 46.2249 38 48.8498 38C51.4746 38 51.4746 35.8181 54.0994 35.8181C56.7245 35.8181 56.7245 38 59.3498 38C61.975 38 61.9749 35.8181 64.6001 35.8181V32C61.975 32 61.975 34.1818 59.3498 34.1818C56.7245 34.1818 56.7245 32 54.0994 32Z" fill="#F5F7F8"/>
<path d="M54.0994 25C51.4746 25 51.4746 27.1819 48.8498 27.1819C46.2249 27.1819 46.2249 25 43.6001 25V28.8181C46.2249 28.8181 46.2249 31 48.8498 31C51.4746 31 51.4746 28.8181 54.0994 28.8181C56.7245 28.8181 56.7245 31 59.3498 31C61.975 31 61.9749 28.8181 64.6001 28.8181V25C61.975 25 61.975 27.1819 59.3498 27.1819C56.7245 27.1819 56.7245 25 54.0994 25Z" fill="#F5F7F8"/>
</g>
</g>
</svg>
