<svg width="72" height="50" viewBox="0 0 72 50" fill="none" xmlns="http://www.w3.org/2000/svg">
<mask id="mask0_784_1727" style="mask-type:alpha" maskUnits="userSpaceOnUse" x="0" y="0" width="72" height="50">
<rect width="72" height="50" fill="#D9D9D9"/>
</mask>
<g mask="url(#mask0_784_1727)">
<rect width="72" height="50" fill="#86C5FA"/>
<path d="M33.4875 8.39375L35.8721 3L38.2566 8.39375L43.872 9.11142L39.7302 13.1628L40.8164 19L35.872 15.6667L30.9277 19L32.0138 13.1628L27.872 9.11142L33.4875 8.39375Z" fill="#F5F7F8"/>
<path d="M11.5043 23.8633L10.8725 17.9999L15.6345 21.4788L20.8564 19.2926L19.2952 24.8721L23.1544 29.3842L17.2058 28.9696L14.5906 34.3285L12.6126 28.7303L7 27.2926L11.5043 23.8633Z" fill="#F5F7F8"/>
<path d="M60.2001 17.9999L59.5684 23.8633L64.0727 27.2926L58.4601 28.7303L56.4821 34.3285L53.8668 28.9696L47.9182 29.3842L51.7775 24.8721L50.2163 19.2926L55.4382 21.4788L60.2001 17.9999Z" fill="#F5F7F8"/>
<path d="M38.2566 41.6062L35.872 47L33.4875 41.6062L27.872 40.8885L32.0138 36.8372L30.9277 31L35.872 34.3333L40.8164 31L39.7302 36.8372L43.872 40.8886L38.2566 41.6062Z" fill="#F5F7F8"/>
</g>
</svg>
