<svg width="72" height="50" viewBox="0 0 72 50" fill="none" xmlns="http://www.w3.org/2000/svg">
<mask id="mask0_784_2039" style="mask-type:alpha" maskUnits="userSpaceOnUse" x="0" y="0" width="72" height="50">
<rect width="72" height="50" fill="#D9D9D9"/>
</mask>
<g mask="url(#mask0_784_2039)">
<rect width="72" height="50" fill="#F5F7F8"/>
<path d="M30.3999 50H42.3999L42.3999 31H72V19L42.3999 19L42.3999 0H30.3999L30.3999 19L0 19V31H30.3999L30.3999 50Z" fill="#DD2033"/>
<path fill-rule="evenodd" clip-rule="evenodd" d="M33.3703 19.7422L36.5001 13L39.6297 19.7422L47 20.6393L41.5639 25.7035L42.9895 33L36.5 28.8333L30.0105 33L31.4361 25.7035L26 20.6393L33.3703 19.7422ZM38.25 20.5H35.625V22.1667H33.875V28H38.25V26.3333H40V23.8333H38.25V20.5Z" fill="#F5F7F8"/>
<path fill-rule="evenodd" clip-rule="evenodd" d="M35.4286 1H37.5714V2.5H39.7143V4.75H37.5714V6.85202C38.2018 6.46914 38.9337 6.25 39.7143 6.25C42.0812 6.25 44 8.26472 44 10.75C44 12.0828 43.4482 13.2802 42.5714 14.1042V16H30.4286V14.1042C29.5518 13.2802 29 12.0828 29 10.75C29 8.26472 30.9188 6.25 33.2857 6.25C34.0663 6.25 34.7982 6.46914 35.4286 6.85202V4.75H33.2857V2.5L35.4286 2.5V1ZM36.5 7.77345L36.4802 7.75H36.5198L36.5 7.77345ZM36.4802 13.75L36.5 13.7266L36.5198 13.75H36.4802Z" fill="#F1B434"/>
</g>
</svg>
