<svg width="72" height="50" viewBox="0 0 72 50" fill="none" xmlns="http://www.w3.org/2000/svg">
<mask id="mask0_784_2070" style="mask-type:alpha" maskUnits="userSpaceOnUse" x="0" y="0" width="72" height="50">
<rect width="72" height="50" fill="#D9D9D9"/>
</mask>
<g mask="url(#mask0_784_2070)">
<rect width="72" height="25" fill="#F5F7F8"/>
<rect y="25" width="72" height="25" fill="#009B77"/>
<path d="M44.7006 9L31.3486 19.4494L29.8334 23.5439L28.2138 16.0176C28.2126 15.1542 27.9844 14.344 27.5855 13.6436C28.5156 12.7877 29.2038 11.6928 29.4909 10.6255C28.3144 10.6255 27.011 11.2345 25.9449 11.935C25.2054 11.473 24.3316 11.2061 23.3955 11.2061C20.7344 11.2061 18.5771 13.3633 18.5771 16.0244H22.6239L21.6855 19.2531C20.8654 22.0747 21.2732 24.8954 22.5393 27.2226L20.0256 29.723L16.9574 26.6711V22.3969L14.6014 20.0533L12.8 21.8643L14.4031 23.4589V26.6711L12.8 28.2656L14.6014 30.0766L15.6803 29.0035L20.0256 33.3257L24.0432 29.3294C24.3207 29.6324 24.6159 29.9196 24.9276 30.1892L20.6567 37.1685H16.7283V39.7228H24.6234V37.1685H23.6513L26.5363 32.454L26.4722 32.6273L27.7186 31.9247C28.9674 32.4502 30.3475 32.7435 31.8131 32.7435L31.8084 32.7216L35.1415 34.5734L33.4194 37.3876H29.491V39.9419H37.3861V37.3876H36.414L39.9848 31.5524L39.9814 31.5503L41.5077 30.5375L48.8763 32.488L45.8425 37.4457H41.9141V40H49.8092V37.4457H48.8371L52.2783 31.8222L52.3054 31.8147L52.2913 31.801L52.4079 31.6105L51.5517 31.0865L48.8803 28.5057C50.6674 27.6842 53.8114 25.5746 55.3765 22.5366L58.2475 24.1942V16.3994L51.497 20.2968L53.9168 21.6939C52.2024 23.04 49.663 24.3341 46.2896 24.6523L49.2288 22.352V9L44.7006 12.5438V9Z" fill="#DD2033"/>
</g>
</svg>
