<svg width="72" height="50" viewBox="0 0 72 50" fill="none" xmlns="http://www.w3.org/2000/svg">
<mask id="mask0_784_2025" style="mask-type:alpha" maskUnits="userSpaceOnUse" x="0" y="0" width="72" height="50">
<rect width="72" height="50" fill="#D9D9D9"/>
</mask>
<g mask="url(#mask0_784_2025)">
<rect width="72" height="50" fill="#004692"/>
<path d="M42.7883 22.0044L40.667 24.1257L69.3787 52.8375L71.5001 50.7162L42.7883 22.0044Z" fill="#F5F7F8"/>
<path d="M37.1314 27.6612L33.5959 31.1968L62.3077 59.9086L65.8432 56.373L37.1314 27.6612Z" fill="#F5F7F8"/>
<path d="M37.1314 27.6612L40.667 24.1257L69.3787 52.8375L65.8432 56.373L37.1314 27.6612Z" fill="#DD2033"/>
<path d="M38.2443 31.1924L36.123 29.0711L7.00886 58.1852L9.13018 60.3065L38.2443 31.1924Z" fill="#F5F7F8"/>
<path d="M32.5874 25.5355L29.0519 22L-0.0622106 51.1141L3.47332 54.6496L32.5874 25.5355Z" fill="#F5F7F8"/>
<path d="M32.5874 25.5355L36.123 29.0711L7.00886 58.1852L3.47332 54.6496L32.5874 25.5355Z" fill="#DD2033"/>
<path d="M30.056 29.6484L32.1773 27.5271L2.37334 -2.27682L0.252024 -0.155497L30.056 29.6484Z" fill="#F5F7F8"/>
<path d="M35.7128 23.9916L39.2483 20.4561L9.44441 -9.34788L5.90888 -5.81235L35.7128 23.9916Z" fill="#F5F7F8"/>
<path d="M35.7128 23.9916L32.1773 27.5271L2.37334 -2.27682L5.90888 -5.81235L35.7128 23.9916Z" fill="#DD2033"/>
<path d="M32.6003 20.4598L34.7216 22.5812L64.9744 -7.6716L62.853 -9.79292L32.6003 20.4598Z" fill="#F5F7F8"/>
<path d="M38.2571 26.1167L41.7927 29.6522L72.0454 -0.600538L68.5099 -4.13607L38.2571 26.1167Z" fill="#F5F7F8"/>
<path d="M38.2571 26.1167L34.7216 22.5812L64.9744 -7.6716L68.5099 -4.13607L38.2571 26.1167Z" fill="#DD2033"/>
<path fill-rule="evenodd" clip-rule="evenodd" d="M30 61H25L25 36H0V31H25L25 19L0 19V14L25 14L25 -11H30L30 14H42L42 -11H47L47 14L72 14V19L47 19V31L72 31V36L47 36L47 61H42L42 36H30L30 61ZM42 19H30L30 31H42V19Z" fill="#F5F7F8"/>
<path d="M30 61H42L42 31H72V19L42 19L42 -11H30L30 19L0 19V31H30L30 61Z" fill="#DD2033"/>
</g>
</svg>
