<svg width="72" height="50" viewBox="0 0 72 50" fill="none" xmlns="http://www.w3.org/2000/svg">
<mask id="mask0_784_2075" style="mask-type:alpha" maskUnits="userSpaceOnUse" x="0" y="0" width="72" height="50">
<rect width="72" height="50" fill="#D9D9D9"/>
</mask>
<g mask="url(#mask0_784_2075)">
<rect width="72" height="50" fill="#A00009"/>
<rect x="65" y="43" width="58" height="36" transform="rotate(-180 65 43)" fill="#008259"/>
<path d="M7 43L35.1944 25L7 6.99999L65 7L35.1944 25L65 43L7 43Z" fill="#F1B434"/>
<path d="M26 25C26 19.4772 30.4772 15 36 15C41.5228 15 46 19.4772 46 25C46 30.5228 41.5228 35 36 35C30.4771 35 26 30.5228 26 25Z" fill="#A00009"/>
<path d="M36.0001 15L33.2486 21.2236L26.7693 22.0516L31.5483 26.7263L30.295 33.4615L36.0001 29.6154L41.7051 33.4615L40.4518 26.7263L45.2308 22.0516L38.7515 21.2236L36.0001 15Z" fill="#F1B434"/>
<path fill-rule="evenodd" clip-rule="evenodd" d="M19.5 5C20.3284 5 21 4.32843 21 3.5C21 2.67157 20.3284 2 19.5 2C18.6716 2 18 2.67157 18 3.5C18 4.32843 18.6716 5 19.5 5ZM37.5 3.5C37.5 4.32843 36.8284 5 36 5C35.1716 5 34.5 4.32843 34.5 3.5C34.5 2.67157 35.1716 2 36 2C36.8284 2 37.5 2.67157 37.5 3.5ZM54 3.5C54 4.32843 53.3284 5 52.5 5C51.6716 5 51 4.32843 51 3.5C51 2.67157 51.6716 2 52.5 2C53.3284 2 54 2.67157 54 3.5Z" fill="#F1B434"/>
<path fill-rule="evenodd" clip-rule="evenodd" d="M19.5 48C20.3284 48 21 47.3284 21 46.5C21 45.6716 20.3284 45 19.5 45C18.6716 45 18 45.6716 18 46.5C18 47.3284 18.6716 48 19.5 48ZM37.5 46.5C37.5 47.3284 36.8284 48 36 48C35.1716 48 34.5 47.3284 34.5 46.5C34.5 45.6716 35.1716 45 36 45C36.8284 45 37.5 45.6716 37.5 46.5ZM54 46.5C54 47.3284 53.3284 48 52.5 48C51.6716 48 51 47.3284 51 46.5C51 45.6716 51.6716 45 52.5 45C53.3284 45 54 45.6716 54 46.5Z" fill="#F1B434"/>
</g>
</svg>
