<svg width="72" height="50" viewBox="0 0 72 50" fill="none" xmlns="http://www.w3.org/2000/svg">
<mask id="mask0_784_2112" style="mask-type:alpha" maskUnits="userSpaceOnUse" x="0" y="0" width="72" height="50">
<rect width="72" height="50" fill="#D9D9D9"/>
</mask>
<g mask="url(#mask0_784_2112)">
<rect width="72" height="35" fill="#F5F7F8"/>
<rect y="35" width="72" height="15" fill="#DD2033"/>
<path d="M21 9.99988L21 13.9999H23L23 9.99988H27L27 13.9999H25V17.9999H30V6.99988L28 6.99988V2.99988L32 2.99988L32 6.99988L34 6.99988V2.99988L38 2.99988V6.99988L40 6.99988V2.99988L44 2.99988V6.99988L42 6.99988V17.9999H47V13.9999H45V9.99988H49V13.9999H51V9.99988L55 9.99988V13.9999H53V17.9999L54 17.9999V28.9999L18 28.9999L18 17.9999H19L19 13.9999L17 13.9999L17 9.99988H21Z" fill="#DD2033"/>
<path fill-rule="evenodd" clip-rule="evenodd" d="M37.6001 48H34.6001V46.7924H29.6001L29.6001 39.7924H34.6001L34.6001 34.7417C31.8962 33.9545 29.9204 31.458 29.9204 28.5C29.9204 24.9102 32.8306 22 36.4204 22C40.0103 22 42.9204 24.9102 42.9204 28.5C42.9204 31.687 40.6267 34.3383 37.6001 34.8932L37.6001 48ZM39.9204 28.5C39.9204 30.433 38.3534 32 36.4204 32C34.4874 32 32.9204 30.433 32.9204 28.5C32.9204 26.567 34.4874 25 36.4204 25C38.3534 25 39.9204 26.567 39.9204 28.5Z" fill="#F1B434"/>
</g>
</svg>
