<svg width="72" height="50" viewBox="0 0 72 50" fill="none" xmlns="http://www.w3.org/2000/svg">
<mask id="mask0_784_2155" style="mask-type:alpha" maskUnits="userSpaceOnUse" x="0" y="0" width="72" height="50">
<rect width="72" height="50" fill="#D9D9D9"/>
</mask>
<g mask="url(#mask0_784_2155)">
<rect width="72" height="50" fill="#004692"/>
<mask id="mask1_784_2155" style="mask-type:alpha" maskUnits="userSpaceOnUse" x="0" y="0" width="36" height="30">
<path d="M0 30L-1.31134e-06 0L36 -1.57361e-06L36 30L0 30Z" fill="#002F6C"/>
</mask>
<g mask="url(#mask1_784_2155)">
<path d="M12.7908 1.00463L10.6695 3.12595L36.8665 29.323L38.9878 27.2017L12.7908 1.00463Z" fill="#F5F7F8"/>
<path d="M7.13393 6.66148L3.59839 10.197L29.7954 36.394L33.3309 32.8585L7.13393 6.66148Z" fill="#F5F7F8"/>
<path d="M7.13393 6.66148L10.6695 3.12595L36.8665 29.323L33.3309 32.8585L7.13393 6.66148Z" fill="#DD2033"/>
<path d="M6 35H10.0017L10.0017 8.99997H36V5L6 5L6 35Z" fill="#F5F7F8"/>
<path d="M0 35.0001H6.00171L6.00171 4.99996H36.0017V4.58956e-06L1.90735e-06 0L0 35.0001Z" fill="#DD2033"/>
</g>
<rect x="50" y="12" width="9" height="8" fill="#C1C3C3"/>
<path d="M51 5L53.5 5L53.5 8L57 8L57 12L51 12L51 5Z" fill="#936846"/>
<path d="M65 38H44V43H47V46H62V43H65V38Z" fill="#FBD381"/>
<path d="M44.0002 20L65.0002 20L65.0002 28.7432C65.0002 34.8265 61.2918 40.2951 55.6403 42.546L54.5002 43L53.3602 42.546C47.7087 40.2951 44.0002 34.8265 44.0002 28.7432L44.0002 20Z" fill="#F5F7F8"/>
</g>
<mask id="mask2_784_2155" style="mask-type:alpha" maskUnits="userSpaceOnUse" x="44" y="20" width="21" height="23">
<path d="M44 20L65 20L65 28.7432C65 34.8265 61.2916 40.2951 55.6401 42.546L54.5 43L53.36 42.546C47.7084 40.2951 44 34.8265 44 28.7432L44 20Z" fill="#F5F7F8"/>
</mask>
<g mask="url(#mask2_784_2155)">
<path d="M54.2501 19.5L59.0001 24.25L54.2501 29L49.5001 24.25L54.2501 19.5Z" fill="#005EB8"/>
<path d="M44.75 29.0001L49.5 33.7501L44.75 38.5002L40 33.7501L44.75 29.0001Z" fill="#005EB8"/>
<path d="M68.5006 24.2501L63.7506 19.5001L59.0001 24.25L63.7506 29.0001L68.5006 24.2501Z" fill="#005EB8"/>
<path d="M54.2501 29L59.0001 33.7501L54.2501 38.5001L59.0001 43.2501L54.2501 48.0001L49.5001 43.2501L54.2501 38.5001L49.5 33.7501L54.2501 29Z" fill="#005EB8"/>
<path d="M49.5001 24.25L44.75 19.5L40 24.25L44.75 29.0001L49.5001 24.25Z" fill="#005EB8"/>
<path d="M63.7506 29.0001L68.5006 33.7501L63.7506 38.5002L59.0001 33.7501L63.7506 29.0001Z" fill="#005EB8"/>
</g>
</svg>
