<svg width="72" height="50" viewBox="0 0 72 50" fill="none" xmlns="http://www.w3.org/2000/svg">
<mask id="mask0_784_2172" style="mask-type:alpha" maskUnits="userSpaceOnUse" x="0" y="0" width="72" height="50">
<rect width="72" height="50" fill="#D9D9D9"/>
</mask>
<g mask="url(#mask0_784_2172)">
<rect width="72" height="50" fill="#0091DA"/>
<rect x="16" width="40" height="50" fill="#F5F7F8"/>
<path d="M18.406 22.4353C18.1401 23.6663 18 24.9441 18 26.2546C18 36.1957 26.0589 44.2546 36 44.2546C45.9411 44.2546 54 36.1957 54 26.2546C54 24.916 53.8539 23.6115 53.5767 22.3562L47.9134 24.8052C47.9706 25.2804 48 25.7641 48 26.2546C48 32.882 42.6274 38.2546 36 38.2546C29.3726 38.2546 24 32.882 24 26.2546C24 25.7924 24.0261 25.3363 24.077 24.8876L18.406 22.4353Z" fill="#009B77"/>
<path d="M28 14.0001H42C43.1046 14.0001 44 14.8956 44 16.0001C44 17.1047 43.1046 18.0001 42 18.0001H41.7059L44 31.0001H29C27.8954 31.0001 27 30.1047 27 29.0001C27 27.8956 27.8954 27.0001 29 27.0001H30.2941L28 14.0001Z" fill="#FBD381"/>
<path fill-rule="evenodd" clip-rule="evenodd" d="M42.8712 22.9291C42.9034 18.7893 41.5553 14.6517 40.2999 12.124L42.0911 11.2343C43.4475 13.9651 44.9064 18.4141 44.8711 22.9446C44.8356 27.505 43.2735 32.2596 38.4561 35.2916L37.3908 33.5989C41.4594 31.0382 42.8392 27.039 42.8712 22.9291Z" fill="#F1B434"/>
<path d="M39.9142 8.00132C39.9698 7.8446 40 7.67589 40 7.50012C40 6.67169 39.3284 6.00012 38.5 6.00012C37.6716 6.00012 37 6.67169 37 7.50012C37 8.11043 37.3645 8.63561 37.8877 8.86985C37.3395 9.41344 37 10.1671 37 11.0001C37 12.657 38.3431 14.0001 40 14.0001C40.3646 14.0001 40.7139 13.9351 41.0372 13.816C42.2339 16.0546 43.3553 18.9238 43.759 21.8972C44.3121 25.9698 43.5152 30.1247 39.8523 33.2382L41.1476 34.762C45.4847 31.0755 46.3545 26.1471 45.7408 21.6281C45.2769 18.211 43.9628 14.9639 42.5982 12.5008C42.8537 12.0594 43 11.5469 43 11.0001C43 9.34327 41.6569 8.00012 40 8.00012C39.9713 8.00012 39.9427 8.00052 39.9142 8.00132Z" fill="#008259"/>
</g>
</svg>
