<svg width="72" height="50" viewBox="0 0 72 50" fill="none" xmlns="http://www.w3.org/2000/svg">
<mask id="mask0_784_2180" style="mask-type:alpha" maskUnits="userSpaceOnUse" x="0" y="0" width="72" height="50">
<rect width="72" height="50" fill="#D9D9D9"/>
</mask>
<g mask="url(#mask0_784_2180)">
<rect width="72" height="50" fill="#DD2033"/>
<rect y="4" width="72" height="42" fill="#004692"/>
<path fill-rule="evenodd" clip-rule="evenodd" d="M36.0886 7L37.6538 8.24295C43.218 12.6617 46.2613 17.0448 47.4337 21.2911C48.6164 25.575 47.8092 29.4083 46.278 32.5221C44.7669 35.5953 42.5387 38.005 40.7524 39.6173C39.8497 40.432 39.0355 41.0649 38.4404 41.4985C38.1423 41.7157 37.8974 41.8842 37.7219 42.0015C37.634 42.0602 37.5634 42.1063 37.5119 42.1394C37.4862 42.1559 37.4652 42.1692 37.4493 42.1793L37.4292 42.1919L37.422 42.1964L37.4192 42.1982C37.418 42.1989 37.4168 42.1996 36.0922 40.1143C36.0922 40.1143 57.2763 26.9845 36.0922 10.1617C14.4931 27.3948 36.0922 40.1143 36.0922 40.1143C34.8161 42.2289 34.8149 42.2282 34.8137 42.2275L34.8107 42.2257L34.8034 42.2214L34.7829 42.2091C34.7666 42.1994 34.7452 42.1865 34.719 42.1704C34.6665 42.1383 34.5944 42.0936 34.5047 42.0365C34.3256 41.9224 34.0757 41.7586 33.7715 41.547C33.1642 41.1246 32.3332 40.5068 31.4117 39.7086C29.5889 38.1296 27.3101 35.757 25.7634 32.7014C24.1938 29.6004 23.3708 25.7674 24.5781 21.4557C25.7723 17.1906 28.8684 12.7607 34.5263 8.24649L36.0886 7ZM36.0922 40.1143L37.4168 42.1996L36.1255 43L34.8161 42.2289L36.0922 40.1143Z" fill="#DD2033"/>
<mask id="mask1_784_2180" style="mask-type:alpha" maskUnits="userSpaceOnUse" x="26" y="10" width="20" height="31">
<path d="M36.0923 10.1617C57.2764 26.9845 36.0923 40.1144 36.0923 40.1144C36.0923 40.1144 14.4931 27.3948 36.0923 10.1617Z" fill="#FBD381"/>
</mask>
<g mask="url(#mask1_784_2180)">
<rect x="24.462" y="32.3185" width="23.2608" height="9.84744" fill="#FBD381"/>
<rect x="24.462" y="27.3948" width="23.2608" height="4.92372" fill="#0091DA"/>
<rect x="24.462" y="10.1617" width="23.2608" height="17.233" fill="#86C5FA"/>
<rect x="34.4309" y="20.0092" width="1.66148" height="14.7712" fill="#936846"/>
<path d="M35.677 14.2649L37.006 17.0808L40.0075 16.3779L38.6632 19.1863L41.0769 21.1257L38.0718 21.8118L38.0802 24.9329L35.677 22.9803L33.2738 24.9329L33.2822 21.8118L30.2772 21.1257L32.6907 19.1863L31.3467 16.3779L34.348 17.0808L35.677 14.2649Z" fill="#009B77"/>
</g>
</g>
</svg>
