<svg width="72" height="50" viewBox="0 0 72 50" fill="none" xmlns="http://www.w3.org/2000/svg">
<mask id="mask0_784_2205" style="mask-type:alpha" maskUnits="userSpaceOnUse" x="0" y="0" width="72" height="50">
<rect width="72" height="50" fill="#D9D9D9"/>
</mask>
<g mask="url(#mask0_784_2205)">
<rect width="72" height="50" fill="#DD2033"/>
<path fill-rule="evenodd" clip-rule="evenodd" d="M39.2738 15.8445C38.8024 17.8086 38.1415 18.5634 37.5033 19.2923C36.9073 19.9731 36.331 20.6314 35.9471 22.2311C31.2639 21.1033 28.3797 16.3865 29.5057 11.6956C30.6312 7.005 35.341 4.11622 40.0243 5.24401C39.0977 9.10435 39.2731 10.9116 39.4195 12.4199C39.5243 13.5 39.6142 14.4268 39.2738 15.8445ZM37.2002 11C37.2002 12.1045 36.3048 13 35.2002 13C34.0956 13 33.2002 12.1045 33.2002 11C33.2002 9.8954 34.0956 8.99997 35.2002 8.99997C36.3048 8.99997 37.2002 9.8954 37.2002 11Z" fill="#F5F7F8"/>
<path fill-rule="evenodd" clip-rule="evenodd" d="M27.1218 18.659C28.8412 19.715 29.3537 20.5778 29.8486 21.4112C30.3108 22.1893 30.7577 22.9417 32.1578 23.8018C29.6397 27.9144 24.2699 29.2039 20.1636 26.6819C16.0575 24.16 14.7697 18.7813 17.2878 14.6686C20.6673 16.7442 22.4374 17.1355 23.9148 17.4622C24.9728 17.6961 25.8806 17.8968 27.1218 18.659ZM23.2002 21.0001C23.2002 22.1046 22.3048 23.0001 21.2002 23.0001C20.0956 23.0001 19.2002 22.1046 19.2002 21.0001C19.2002 19.8955 20.0956 19.0001 21.2002 19.0001C22.3048 19.0001 23.2002 19.8955 23.2002 21.0001Z" fill="#F5F7F8"/>
<path fill-rule="evenodd" clip-rule="evenodd" d="M26.039 31.1049C27.5732 29.7934 28.5508 29.5718 29.4949 29.3578C30.3765 29.158 31.229 28.9648 32.4783 27.8969C35.6056 31.5662 35.1706 37.0801 31.5072 40.2123C27.8435 43.3445 22.3383 42.9083 19.2115 39.2393C22.2261 36.6618 23.1447 35.0964 23.9113 33.7901C24.4604 32.8544 24.9315 32.0516 26.039 31.1049ZM27.2002 38C27.2002 39.1046 26.3048 40 25.2002 40C24.0956 40 23.2002 39.1046 23.2002 38C23.2002 36.8954 24.0956 36 25.2002 36C26.3048 36 27.2002 36.8954 27.2002 38Z" fill="#F5F7F8"/>
<path fill-rule="evenodd" clip-rule="evenodd" d="M37.5217 35.9824C36.7502 34.1156 36.8418 33.1159 36.9304 32.1503C37.013 31.2487 37.093 30.3769 36.465 28.8571C40.9155 27.0123 46.017 29.1304 47.859 33.588C49.7009 38.0457 47.5859 43.155 43.1353 45C41.6196 41.3313 40.4172 39.9726 39.4137 38.8385C38.6951 38.0265 38.0785 37.3296 37.5217 35.9824ZM46.2002 38C46.2002 39.1046 45.3048 40 44.2002 40C43.0956 40 42.2002 39.1046 42.2002 38C42.2002 36.8954 43.0956 36 44.2002 36C45.3048 36 46.2002 36.8954 46.2002 38Z" fill="#F5F7F8"/>
<path fill-rule="evenodd" clip-rule="evenodd" d="M45.7026 26.5508C43.6918 26.7088 42.7707 26.3125 41.8811 25.9297C41.0505 25.5723 40.2474 25.2268 38.6101 25.3555C38.2336 20.5462 41.8214 16.341 46.6233 15.9635C51.4251 15.5869 55.6236 19.1802 56 23.9899C52.0479 24.3002 50.386 25.0258 48.9992 25.6312C48.006 26.0648 47.1538 26.4369 45.7026 26.5508ZM52.2002 21.0001C52.2002 22.1046 51.3048 23.0001 50.2002 23.0001C49.0956 23.0001 48.2002 22.1046 48.2002 21.0001C48.2002 19.8955 49.0956 19.0001 50.2002 19.0001C51.3048 19.0001 52.2002 19.8955 52.2002 21.0001Z" fill="#F5F7F8"/>
</g>
</svg>
