<svg width="72" height="50" viewBox="0 0 72 50" fill="none" xmlns="http://www.w3.org/2000/svg">
<mask id="mask0_784_2209" style="mask-type:alpha" maskUnits="userSpaceOnUse" x="0" y="0" width="72" height="50">
<rect width="72" height="50" fill="#D9D9D9"/>
</mask>
<g mask="url(#mask0_784_2209)">
<rect width="72" height="50" fill="#004692"/>
<path d="M31.5142 31.3529L33.4831 35.5761L37.9298 34.522L35.9383 38.7341L39.5142 41.6427L35.0621 42.6718L35.0744 47.3529L31.5142 44.4243L27.9537 47.3529L27.9662 42.6718L23.5142 41.6427L27.0899 38.7341L25.0987 34.522L29.5451 35.5761L31.5142 31.3529Z" fill="#F5F7F8"/>
<path d="M53.5142 32.2942L54.9909 35.4616L58.3259 34.671L56.8323 37.8301L59.5142 40.0115L56.1751 40.7834L56.1844 44.2942L53.5142 42.0977L50.8438 44.2942L50.8532 40.7834L47.5142 40.0115L50.1959 37.8301L48.7025 34.671L52.0374 35.4616L53.5142 32.2942Z" fill="#F5F7F8"/>
<path d="M44.5142 11.7646L45.7447 14.4042L48.5239 13.7453L47.2793 16.3779L49.5142 18.1958L46.7316 18.839L46.7393 21.7646L44.5142 19.9343L42.2889 21.7646L42.2967 18.839L39.5142 18.1958L41.749 16.3779L40.5045 13.7453L43.2835 14.4042L44.5142 11.7646Z" fill="#F5F7F8"/>
<path d="M54.5142 3.92151L55.7447 6.56104L58.5239 5.90221L57.2793 8.53473L59.5142 10.3526L56.7316 10.9958L56.7393 13.9215L54.5142 12.0911L52.2889 13.9215L52.2967 10.9958L49.5142 10.3526L51.749 8.53473L50.5045 5.90221L53.2835 6.56104L54.5142 3.92151Z" fill="#F5F7F8"/>
<path d="M64.5142 13.7255L65.7447 16.365L68.5239 15.7062L67.2793 18.3387L69.5142 20.1566L66.7316 20.7998L66.7393 23.7255L64.5142 21.8951L62.2889 23.7255L62.2967 20.7998L59.5142 20.1566L61.749 18.3387L60.5045 15.7062L63.2835 16.365L64.5142 13.7255Z" fill="#F5F7F8"/>
<ellipse cx="57.0142" cy="26.9607" rx="2.5" ry="2.45098" fill="#F5F7F8"/>
<mask id="mask1_784_2209" style="mask-type:alpha" maskUnits="userSpaceOnUse" x="0" y="0" width="36" height="30">
<path d="M0 30L-1.31134e-06 0L36 -1.57361e-06L36 30L0 30Z" fill="#002F6C"/>
</mask>
<g mask="url(#mask1_784_2209)">
<path d="M12.7908 1.00463L10.6695 3.12595L36.8665 29.323L38.9878 27.2017L12.7908 1.00463Z" fill="#F5F7F8"/>
<path d="M7.13393 6.66148L3.59839 10.197L29.7954 36.394L33.3309 32.8585L7.13393 6.66148Z" fill="#F5F7F8"/>
<path d="M7.13393 6.66148L10.6695 3.12595L36.8665 29.323L33.3309 32.8585L7.13393 6.66148Z" fill="#DD2033"/>
<path d="M6 35H10.0017L10.0017 8.99997H36V5L6 5L6 35Z" fill="#F5F7F8"/>
<path d="M0 35.0001H6.00171L6.00171 4.99996H36.0017V4.58956e-06L1.90735e-06 0L0 35.0001Z" fill="#DD2033"/>
</g>
</g>
</svg>
