<svg width="72" height="50" viewBox="0 0 72 50" fill="none" xmlns="http://www.w3.org/2000/svg">
<mask id="mask0_784_2238" style="mask-type:alpha" maskUnits="userSpaceOnUse" x="0" y="0" width="72" height="50">
<rect width="72" height="50" fill="#D9D9D9"/>
</mask>
<g mask="url(#mask0_784_2238)">
<rect x="72" width="25" height="72" transform="rotate(90 72 0)" fill="#004692"/>
<rect x="72" y="25" width="25" height="72" transform="rotate(90 72 25)" fill="#DD2033"/>
<rect x="20" y="10" width="32" height="30" fill="#F5F7F8"/>
<path d="M34.6068 39.6911C33.8563 39.6238 33.107 39.4662 32.3751 39.214C31.0418 39.0948 29.7127 38.6906 28.4772 37.9772C23.9334 35.3539 22.3766 29.5438 24.9999 25L26.4459 25.8348C26.9093 24.727 27.5919 23.6891 28.4936 22.7874L29.872 24.1658C30.5293 23.4286 31.3137 22.7822 32.2158 22.2614L36.1379 29.0546L40.2109 22C41.0355 22.4761 41.7617 23.0571 42.3824 23.7165L43.3754 22.7235C44.3064 23.6545 45.0155 24.7234 45.5026 25.8645L46.9999 25C49.7614 29.7829 48.1226 35.8988 43.3397 38.6603C41.5235 39.7088 39.5152 40.1229 37.5713 39.9714C36.5697 40.0346 35.5689 39.9377 34.6068 39.6911Z" fill="#004692"/>
<path d="M20 40L31.6107 32.3804C34.2756 30.6316 37.7244 30.6316 40.3893 32.3804L52 40L20 40Z" fill="#008259"/>
<rect x="35.3999" y="19" width="2" height="14" fill="#936846"/>
<path d="M36.8999 12L38.4997 15.4314L42.1126 14.5749L40.4945 17.9972L43.3999 20.3605L39.7826 21.1966L39.7926 25L36.8999 22.6205L34.0071 25L34.0172 21.1966L30.3999 20.3605L33.3052 17.9972L31.6873 14.5749L35.3 15.4314L36.8999 12Z" fill="#009B77"/>
</g>
</svg>
