<svg width="72" height="50" viewBox="0 0 72 50" fill="none" xmlns="http://www.w3.org/2000/svg">
<mask id="mask0_784_2267" style="mask-type:alpha" maskUnits="userSpaceOnUse" x="0" y="0" width="72" height="50">
<rect width="72" height="50" fill="#D9D9D9"/>
</mask>
<g mask="url(#mask0_784_2267)">
<rect width="72" height="50" fill="#DD2033"/>
<path d="M18.1338 12.9609C17.5922 13.3428 16.8344 13.1806 16.5024 12.6118L12 4.8985L13.5856 4L18.9791 9.0385L32.607 4.12741C33.6298 3.75882 34.7552 4.32255 35.0556 5.35394L35.1161 5.56168L39.3824 16.4359L39.7411 16.7304L39.7561 16.7045L45.8625 19.899L46.2524 18.1304C46.4697 17.1446 46.8032 16.1872 47.2461 15.2776L50.0068 9.6092L49.8265 7.39052C49.7734 6.73644 50.3049 6.18005 50.9707 6.19272L60 6.36459L59.9647 8.16648L52.803 10.1252L50.0539 24.1634C49.8476 25.217 48.7774 25.8769 47.7255 25.5992L47.5136 25.5433L35.8076 23.5351L35.8233 23.5079H35.495L35.5141 23.5383L29.7437 27.2907L31.1329 28.4747C31.9073 29.1347 32.6007 29.8817 33.1989 30.7003L36.9278 35.8025L38.991 36.7089C39.5993 36.9761 39.8405 37.7023 39.5104 38.2722L35.0337 46L33.4451 45.1066L35.1291 37.9741L23.937 28.8742C23.097 28.1912 23.0215 26.9496 23.7726 26.1726L23.9239 26.0161L31.3185 16.8523L31.341 16.8882L31.4377 16.666L31.4242 16.6663L31.0569 9.86389L29.3176 10.4459C28.3481 10.7703 27.3435 10.9819 26.3241 11.0764L19.9709 11.6656L18.1338 12.9609Z" fill="#F5F7F8"/>
</g>
</svg>
