<svg width="72" height="50" viewBox="0 0 72 50" fill="none" xmlns="http://www.w3.org/2000/svg">
<mask id="mask0_784_2271" style="mask-type:alpha" maskUnits="userSpaceOnUse" x="0" y="0" width="72" height="50">
<rect width="72" height="50" fill="#D9D9D9"/>
</mask>
<g mask="url(#mask0_784_2271)">
<rect y="50" width="9" height="72" transform="rotate(-90 0 50)" fill="#009B77"/>
<rect y="41" width="32" height="72" transform="rotate(-90 0 41)" fill="#F5F7F8"/>
<rect y="9" width="9" height="72" transform="rotate(-90 0 9)" fill="#FF9E42"/>
<path fill-rule="evenodd" clip-rule="evenodd" d="M49 25C49 32.1797 43.1797 38 36 38C28.8203 38 23 32.1797 23 25C23 17.8203 28.8203 12 36 12C43.1797 12 49 17.8203 49 25ZM38.4743 33.6556C37.6882 33.8799 36.8581 34 36 34C35.1419 34 34.3118 33.8799 33.5257 33.6556L35.9999 30.8811L38.4743 33.6556ZM38.8359 33.5441C40.5422 32.978 42.022 31.9151 43.1037 30.5268L39.2875 29.7593L38.8359 33.5441ZM43.1978 30.4038C44.3294 28.899 45 27.0278 45 25C45 25 45 25 45 25C45 22.9723 44.3294 21.1011 43.1979 19.5963L41.3226 23.1817L45 25L41.3225 26.8185L43.1978 30.4038ZM43.1038 19.4733C42.0221 18.085 40.5423 17.022 38.836 16.4559L39.2875 20.2407L43.1038 19.4733ZM38.4744 16.3444L35.9999 19.1189L33.5258 16.3444C34.3119 16.1201 35.1419 16 36 16C36.8582 16 37.6883 16.1201 38.4744 16.3444ZM33.1642 16.4559C31.4578 17.0219 29.978 18.0849 28.8962 19.4733L32.7124 20.2407L33.1642 16.4559ZM28.8021 19.5963C27.6706 21.1011 27 22.9722 27 24.9999C27 24.9999 27 25 27 24.9999C27 27.0277 27.6706 28.8989 28.8021 30.4037L30.6775 26.8183L27 24.9999L30.6776 23.1815L28.8021 19.5963ZM28.8962 30.5267C29.9779 31.915 31.4577 32.978 33.1641 33.5441L32.7125 29.7593L28.8962 30.5267Z" fill="#004692"/>
</g>
</svg>
