<svg width="72" height="50" viewBox="0 0 72 50" fill="none" xmlns="http://www.w3.org/2000/svg">
<mask id="mask0_784_2277" style="mask-type:alpha" maskUnits="userSpaceOnUse" x="0" y="0" width="72" height="50">
<rect width="72" height="50" fill="#D9D9D9"/>
</mask>
<g mask="url(#mask0_784_2277)">
<rect width="72" height="50" fill="#004692"/>
<path d="M71.2341 -2.54449C72.0061 -3.25277 72.7781 -3.96102 74.282 -3.99672C74.3595 -3.00131 74.3999 -1.99545 74.3999 -0.980201C74.3999 -0.284723 74.3803 0.406131 74.3438 1.09251C72.7987 1.10993 72.0163 1.82799 71.2339 2.54607C70.4418 3.27303 69.6497 4 68.0662 4C66.483 4 65.6914 3.27281 64.8998 2.54558C64.1081 1.81831 63.3164 1.09102 61.7328 1.09102C60.1496 1.09102 59.358 1.81826 58.5663 2.54551C57.7746 3.27275 56.983 4 55.3998 4C53.8165 4 53.0249 3.27277 52.2333 2.54553C51.4417 1.81828 50.65 1.09102 49.0667 1.09102C47.4835 1.09102 46.6919 1.81821 45.9002 2.54543C45.1085 3.2727 44.3168 4 42.7333 4C41.1498 4 40.3581 3.27275 39.5664 2.54551C38.7746 1.81826 37.9829 1.09102 36.3995 1.09102C34.8162 1.09102 34.0246 1.81825 33.233 2.54548C32.4414 3.27274 31.6497 4 30.0664 4C28.4833 4 27.6918 3.27281 26.9002 2.54559C26.1086 1.81831 25.3169 1.09102 23.7336 1.09102C22.1501 1.09102 21.3584 1.81826 20.5667 2.54551C19.7749 3.27275 18.9832 4 17.3998 4C15.8163 4 15.0246 3.27275 14.2328 2.54551C13.4411 1.81826 12.6494 1.09102 11.0659 1.09102C9.4829 1.09102 8.69135 1.81821 7.89978 2.54543C7.10816 3.2727 6.3165 4 4.73314 4C3.14976 4 2.35774 3.27299 1.56574 2.54602C0.78347 1.82796 0.00122344 1.10993 -1.54354 1.09251C-1.5805 0.40628 -1.6001 -0.284723 -1.6001 -0.980201C-1.6001 -1.99545 -1.55972 -3.00131 -1.48239 -3.99672C0.0214226 -3.96087 0.79338 -3.25262 1.56532 -2.54439C2.35754 -1.81755 3.14975 -1.09072 4.73299 -1.09072C6.31635 -1.09072 7.10801 -1.81809 7.89963 -2.54544C8.6912 -3.27273 9.48275 -4 11.0658 -4C12.6492 -4 13.441 -3.27268 14.2327 -2.54536C15.0244 -1.81804 15.8161 -1.09072 17.3996 -1.09072C18.9831 -1.09072 19.7748 -1.81804 20.5665 -2.54536C21.3582 -3.27268 22.15 -4 23.7334 -4C25.3168 -4 26.1085 -3.27263 26.9001 -2.54528C27.6916 -1.81799 28.4832 -1.09072 30.0662 -1.09072C31.6494 -1.09072 32.4411 -1.81802 33.2327 -2.54533C34.0243 -3.27266 34.816 -4 36.3993 -4C37.9828 -4 38.7745 -3.27266 39.5663 -2.54533C40.358 -1.81802 41.1498 -1.09072 42.7331 -1.09072C44.3165 -1.09072 45.1082 -1.81806 45.8999 -2.54538C46.6916 -3.2727 47.4832 -4 49.0665 -4C50.6498 -4 51.4414 -3.27268 52.2331 -2.54536C53.0247 -1.81804 53.8164 -1.09072 55.3996 -1.09072C56.9828 -1.09072 57.7744 -1.81802 58.5661 -2.54533C59.3577 -3.27266 60.1494 -4 61.7327 -4C63.3161 -4 64.1078 -3.27266 64.8995 -2.54533C65.6911 -1.81802 66.4828 -1.09072 68.0661 -1.09072C69.6496 -1.09072 70.4419 -1.81762 71.2341 -2.54449Z" fill="#F5F7F8"/>
<path d="M71.2341 27.4555C72.0061 26.7472 72.7781 26.039 74.282 26.0033C74.3595 26.9987 74.3999 28.0045 74.3999 29.0198C74.3999 29.7153 74.3803 30.4061 74.3438 31.0925C72.7987 31.1099 72.0163 31.828 71.2339 32.5461C70.4418 33.273 69.6497 34 68.0662 34C66.483 34 65.6914 33.2728 64.8998 32.5456C64.1081 31.8183 63.3164 31.091 61.7328 31.091C60.1496 31.091 59.358 31.8183 58.5663 32.5455C57.7746 33.2728 56.983 34 55.3998 34C53.8165 34 53.0249 33.2728 52.2333 32.5455C51.4417 31.8183 50.65 31.091 49.0667 31.091C47.4835 31.091 46.6919 31.8182 45.9002 32.5454C45.1085 33.2727 44.3168 34 42.7333 34C41.1498 34 40.3581 33.2728 39.5664 32.5455C38.7746 31.8183 37.9829 31.091 36.3995 31.091C34.8162 31.091 34.0246 31.8182 33.233 32.5455C32.4414 33.2727 31.6497 34 30.0664 34C28.4833 34 27.6918 33.2728 26.9002 32.5456C26.1086 31.8183 25.3169 31.091 23.7336 31.091C22.1501 31.091 21.3584 31.8183 20.5667 32.5455C19.7749 33.2728 18.9832 34 17.3998 34C15.8163 34 15.0246 33.2728 14.2328 32.5455C13.4411 31.8183 12.6494 31.091 11.0659 31.091C9.4829 31.091 8.69135 31.8182 7.89978 32.5454C7.10816 33.2727 6.3165 34 4.73314 34C3.14976 34 2.35774 33.273 1.56574 32.546C0.78347 31.828 0.00122344 31.1099 -1.54354 31.0925C-1.5805 30.4063 -1.6001 29.7153 -1.6001 29.0198C-1.6001 28.0045 -1.55972 26.9987 -1.48239 26.0033C0.0214226 26.0391 0.79338 26.7474 1.56532 27.4556C2.35754 28.1825 3.14975 28.9093 4.73299 28.9093C6.31635 28.9093 7.10801 28.1819 7.89963 27.4546C8.6912 26.7273 9.48275 26 11.0658 26C12.6492 26 13.441 26.7273 14.2327 27.4546C15.0244 28.182 15.8161 28.9093 17.3996 28.9093C18.9831 28.9093 19.7748 28.182 20.5665 27.4546C21.3582 26.7273 22.15 26 23.7334 26C25.3168 26 26.1085 26.7274 26.9001 27.4547C27.6916 28.182 28.4832 28.9093 30.0662 28.9093C31.6494 28.9093 32.4411 28.182 33.2327 27.4547C34.0243 26.7273 34.816 26 36.3993 26C37.9828 26 38.7745 26.7273 39.5663 27.4547C40.358 28.182 41.1498 28.9093 42.7331 28.9093C44.3165 28.9093 45.1082 28.1819 45.8999 27.4546C46.6916 26.7273 47.4832 26 49.0665 26C50.6498 26 51.4414 26.7273 52.2331 27.4546C53.0247 28.182 53.8164 28.9093 55.3996 28.9093C56.9828 28.9093 57.7744 28.182 58.5661 27.4547C59.3577 26.7273 60.1494 26 61.7327 26C63.3161 26 64.1078 26.7273 64.8995 27.4547C65.6911 28.182 66.4828 28.9093 68.0661 28.9093C69.6496 28.9093 70.4419 28.1824 71.2341 27.4555Z" fill="#F5F7F8"/>
<path d="M74.282 36.0033C72.7781 36.039 72.0061 36.7472 71.2341 37.4555C70.4419 38.1824 69.6496 38.9093 68.0661 38.9093C66.4828 38.9093 65.6911 38.182 64.8995 37.4547C64.1078 36.7273 63.3161 36 61.7327 36C60.1494 36 59.3577 36.7273 58.5661 37.4547C57.7744 38.182 56.9828 38.9093 55.3996 38.9093C53.8164 38.9093 53.0247 38.182 52.2331 37.4546C51.4414 36.7273 50.6498 36 49.0665 36C47.4832 36 46.6916 36.7273 45.8999 37.4546C45.1082 38.1819 44.3165 38.9093 42.7331 38.9093C41.1498 38.9093 40.358 38.182 39.5663 37.4547C38.7745 36.7273 37.9828 36 36.3993 36C34.816 36 34.0243 36.7273 33.2327 37.4547C32.4411 38.182 31.6494 38.9093 30.0662 38.9093C28.4832 38.9093 27.6916 38.182 26.9001 37.4547C26.1085 36.7274 25.3168 36 23.7334 36C22.15 36 21.3582 36.7273 20.5665 37.4546C19.7748 38.182 18.9831 38.9093 17.3996 38.9093C15.8161 38.9093 15.0244 38.182 14.2327 37.4546C13.441 36.7273 12.6492 36 11.0658 36C9.48275 36 8.6912 36.7273 7.89963 37.4546C7.10801 38.1819 6.31635 38.9093 4.73299 38.9093C3.14975 38.9093 2.35754 38.1825 1.56532 37.4556C0.79338 36.7474 0.0214226 36.0391 -1.48239 36.0033C-1.55972 36.9987 -1.6001 38.0045 -1.6001 39.0198C-1.6001 39.7153 -1.5805 40.4063 -1.54354 41.0925C0.00122344 41.1099 0.78347 41.828 1.56574 42.546C2.35774 43.273 3.14976 44 4.73314 44C6.3165 44 7.10816 43.2727 7.89978 42.5454C8.69135 41.8182 9.4829 41.091 11.0659 41.091C12.6494 41.091 13.4411 41.8183 14.2328 42.5455C15.0246 43.2728 15.8163 44 17.3998 44C18.9832 44 19.7749 43.2728 20.5667 42.5455C21.3584 41.8183 22.1501 41.091 23.7336 41.091C25.3169 41.091 26.1086 41.8183 26.9002 42.5456C27.6918 43.2728 28.4833 44 30.0664 44C31.6497 44 32.4414 43.2727 33.233 42.5455C34.0246 41.8182 34.8162 41.091 36.3995 41.091C37.9829 41.091 38.7746 41.8183 39.5664 42.5455C40.3581 43.2728 41.1498 44 42.7333 44C44.3168 44 45.1085 43.2727 45.9002 42.5454C46.6919 41.8182 47.4835 41.091 49.0667 41.091C50.65 41.091 51.4417 41.8183 52.2333 42.5455C53.0249 43.2728 53.8165 44 55.3998 44C56.983 44 57.7746 43.2728 58.5663 42.5455C59.358 41.8183 60.1496 41.091 61.7328 41.091C63.3164 41.091 64.1081 41.8183 64.8998 42.5456C65.6914 43.2728 66.483 44 68.0662 44C69.6497 44 70.4418 43.273 71.2339 42.5461C72.0163 41.828 72.7987 41.1099 74.3438 41.0925C74.3803 40.4061 74.3999 39.7153 74.3999 39.0198C74.3999 38.0045 74.3595 36.9987 74.282 36.0033Z" fill="#F5F7F8"/>
<path d="M71.2341 7.45551C72.0061 6.74723 72.7781 6.03898 74.282 6.00328C74.3595 6.99869 74.3999 8.00455 74.3999 9.0198C74.3999 9.71528 74.3803 10.4061 74.3438 11.0925C72.7987 11.1099 72.0163 11.828 71.2339 12.5461C70.4418 13.273 69.6497 14 68.0662 14C66.483 14 65.6914 13.2728 64.8998 12.5456C64.1081 11.8183 63.3164 11.091 61.7328 11.091C60.1496 11.091 59.358 11.8183 58.5663 12.5455C57.7746 13.2728 56.983 14 55.3998 14C53.8165 14 53.0249 13.2728 52.2333 12.5455C51.4417 11.8183 50.65 11.091 49.0667 11.091C47.4835 11.091 46.6919 11.8182 45.9002 12.5454C45.1085 13.2727 44.3168 14 42.7333 14C41.1498 14 40.3581 13.2728 39.5664 12.5455C38.7746 11.8183 37.9829 11.091 36.3995 11.091C34.8162 11.091 34.0246 11.8182 33.233 12.5455C32.4414 13.2727 31.6497 14 30.0664 14C28.4833 14 27.6918 13.2728 26.9002 12.5456C26.1086 11.8183 25.3169 11.091 23.7336 11.091C22.1501 11.091 21.3584 11.8183 20.5667 12.5455C19.7749 13.2728 18.9832 14 17.3998 14C15.8163 14 15.0246 13.2728 14.2328 12.5455C13.4411 11.8183 12.6494 11.091 11.0659 11.091C9.4829 11.091 8.69135 11.8182 7.89978 12.5454C7.10816 13.2727 6.3165 14 4.73314 14C3.14976 14 2.35774 13.273 1.56574 12.546C0.78347 11.828 0.00122344 11.1099 -1.54354 11.0925C-1.5805 10.4063 -1.6001 9.71528 -1.6001 9.0198C-1.6001 8.00455 -1.55972 6.99869 -1.48239 6.00328C0.0214226 6.03913 0.79338 6.74738 1.56532 7.45561C2.35754 8.18245 3.14975 8.90928 4.73299 8.90928C6.31635 8.90928 7.10801 8.18191 7.89963 7.45456C8.6912 6.72727 9.48275 6 11.0658 6C12.6492 6 13.441 6.72732 14.2327 7.45464C15.0244 8.18196 15.8161 8.90928 17.3996 8.90928C18.9831 8.90928 19.7748 8.18196 20.5665 7.45464C21.3582 6.72732 22.15 6 23.7334 6C25.3168 6 26.1085 6.72737 26.9001 7.45472C27.6916 8.18201 28.4832 8.90928 30.0662 8.90928C31.6494 8.90928 32.4411 8.18198 33.2327 7.45467C34.0243 6.72734 34.816 6 36.3993 6C37.9828 6 38.7745 6.72734 39.5663 7.45467C40.358 8.18198 41.1498 8.90928 42.7331 8.90928C44.3165 8.90928 45.1082 8.18194 45.8999 7.45462C46.6916 6.7273 47.4832 6 49.0665 6C50.6498 6 51.4414 6.72732 52.2331 7.45464C53.0247 8.18196 53.8164 8.90928 55.3996 8.90928C56.9828 8.90928 57.7744 8.18198 58.5661 7.45467C59.3577 6.72734 60.1494 6 61.7327 6C63.3161 6 64.1078 6.72734 64.8995 7.45467C65.6911 8.18198 66.4828 8.90928 68.0661 8.90928C69.6496 8.90928 70.4419 8.18238 71.2341 7.45551Z" fill="#F5F7F8"/>
<path d="M74.282 46.0033C72.7781 46.039 72.0061 46.7472 71.2341 47.4555C70.4419 48.1824 69.6496 48.9093 68.0661 48.9093C66.4828 48.9093 65.6911 48.182 64.8995 47.4547C64.1078 46.7273 63.3161 46 61.7327 46C60.1494 46 59.3577 46.7273 58.5661 47.4547C57.7744 48.182 56.9828 48.9093 55.3996 48.9093C53.8164 48.9093 53.0247 48.182 52.2331 47.4546C51.4414 46.7273 50.6498 46 49.0665 46C47.4832 46 46.6916 46.7273 45.8999 47.4546C45.1082 48.1819 44.3165 48.9093 42.7331 48.9093C41.1498 48.9093 40.358 48.182 39.5663 47.4547C38.7745 46.7273 37.9828 46 36.3993 46C34.816 46 34.0243 46.7273 33.2327 47.4547C32.4411 48.182 31.6494 48.9093 30.0662 48.9093C28.4832 48.9093 27.6916 48.182 26.9001 47.4547C26.1085 46.7274 25.3168 46 23.7334 46C22.15 46 21.3582 46.7273 20.5665 47.4546C19.7748 48.182 18.9831 48.9093 17.3996 48.9093C15.8161 48.9093 15.0244 48.182 14.2327 47.4546C13.441 46.7273 12.6492 46 11.0658 46C9.48275 46 8.6912 46.7273 7.89963 47.4546C7.10801 48.1819 6.31635 48.9093 4.73299 48.9093C3.14975 48.9093 2.35754 48.1825 1.56532 47.4556C0.79338 46.7474 0.0214226 46.0391 -1.48239 46.0033C-1.55972 46.9987 -1.6001 48.0045 -1.6001 49.0198C-1.6001 49.7153 -1.5805 50.4063 -1.54354 51.0925C0.00122344 51.1099 0.78347 51.828 1.56574 52.546C2.35774 53.273 3.14976 54 4.73314 54C6.3165 54 7.10816 53.2727 7.89978 52.5454C8.69135 51.8182 9.4829 51.091 11.0659 51.091C12.6494 51.091 13.4411 51.8183 14.2328 52.5455C15.0246 53.2728 15.8163 54 17.3998 54C18.9832 54 19.7749 53.2728 20.5667 52.5455C21.3584 51.8183 22.1501 51.091 23.7336 51.091C25.3169 51.091 26.1086 51.8183 26.9002 52.5456C27.6918 53.2728 28.4833 54 30.0664 54C31.6497 54 32.4414 53.2727 33.233 52.5455C34.0246 51.8182 34.8162 51.091 36.3995 51.091C37.9829 51.091 38.7746 51.8183 39.5664 52.5455C40.3581 53.2728 41.1498 54 42.7333 54C44.3168 54 45.1085 53.2727 45.9002 52.5454C46.6919 51.8182 47.4835 51.091 49.0667 51.091C50.65 51.091 51.4417 51.8183 52.2333 52.5455C53.0249 53.2728 53.8165 54 55.3998 54C56.983 54 57.7746 53.2728 58.5663 52.5455C59.358 51.8183 60.1496 51.091 61.7328 51.091C63.3164 51.091 64.1081 51.8183 64.8998 52.5456C65.6914 53.2728 66.483 54 68.0662 54C69.6497 54 70.4418 53.273 71.2339 52.5461C72.0163 51.828 72.7987 51.1099 74.3438 51.0925C74.3803 50.4061 74.3999 49.7153 74.3999 49.0198C74.3999 48.0045 74.3595 46.9987 74.282 46.0033Z" fill="#F5F7F8"/>
<path d="M71.2341 17.4555C72.0061 16.7472 72.7781 16.039 74.282 16.0033C74.3595 16.9987 74.3999 18.0045 74.3999 19.0198C74.3999 19.7153 74.3803 20.4061 74.3438 21.0925C72.7987 21.1099 72.0163 21.828 71.2339 22.5461C70.4418 23.273 69.6497 24 68.0662 24C66.483 24 65.6914 23.2728 64.8998 22.5456C64.1081 21.8183 63.3164 21.091 61.7328 21.091C60.1496 21.091 59.358 21.8183 58.5663 22.5455C57.7746 23.2728 56.983 24 55.3998 24C53.8165 24 53.0249 23.2728 52.2333 22.5455C51.4417 21.8183 50.65 21.091 49.0667 21.091C47.4835 21.091 46.6919 21.8182 45.9002 22.5454C45.1085 23.2727 44.3168 24 42.7333 24C41.1498 24 40.3581 23.2728 39.5664 22.5455C38.7746 21.8183 37.9829 21.091 36.3995 21.091C34.8162 21.091 34.0246 21.8182 33.233 22.5455C32.4414 23.2727 31.6497 24 30.0664 24C28.4833 24 27.6918 23.2728 26.9002 22.5456C26.1086 21.8183 25.3169 21.091 23.7336 21.091C22.1501 21.091 21.3584 21.8183 20.5667 22.5455C19.7749 23.2728 18.9832 24 17.3998 24C15.8163 24 15.0246 23.2728 14.2328 22.5455C13.4411 21.8183 12.6494 21.091 11.0659 21.091C9.4829 21.091 8.69135 21.8182 7.89978 22.5454C7.10816 23.2727 6.3165 24 4.73314 24C3.14976 24 2.35774 23.273 1.56574 22.546C0.78347 21.828 0.00122344 21.1099 -1.54354 21.0925C-1.5805 20.4063 -1.6001 19.7153 -1.6001 19.0198C-1.6001 18.0045 -1.55972 16.9987 -1.48239 16.0033C0.0214226 16.0391 0.79338 16.7474 1.56532 17.4556C2.35754 18.1825 3.14975 18.9093 4.73299 18.9093C6.31635 18.9093 7.10801 18.1819 7.89963 17.4546C8.6912 16.7273 9.48275 16 11.0658 16C12.6492 16 13.441 16.7273 14.2327 17.4546C15.0244 18.182 15.8161 18.9093 17.3996 18.9093C18.9831 18.9093 19.7748 18.182 20.5665 17.4546C21.3582 16.7273 22.15 16 23.7334 16C25.3168 16 26.1085 16.7274 26.9001 17.4547C27.6916 18.182 28.4832 18.9093 30.0662 18.9093C31.6494 18.9093 32.4411 18.182 33.2327 17.4547C34.0243 16.7273 34.816 16 36.3993 16C37.9828 16 38.7745 16.7273 39.5663 17.4547C40.358 18.182 41.1498 18.9093 42.7331 18.9093C44.3165 18.9093 45.1082 18.1819 45.8999 17.4546C46.6916 16.7273 47.4832 16 49.0665 16C50.6498 16 51.4414 16.7273 52.2331 17.4546C53.0247 18.182 53.8164 18.9093 55.3996 18.9093C56.9828 18.9093 57.7744 18.182 58.5661 17.4547C59.3577 16.7273 60.1494 16 61.7327 16C63.3161 16 64.1078 16.7273 64.8995 17.4547C65.6911 18.182 66.4828 18.9093 68.0661 18.9093C69.6496 18.9093 70.4419 18.1824 71.2341 17.4555Z" fill="#F5F7F8"/>
<mask id="mask1_784_2277" style="mask-type:alpha" maskUnits="userSpaceOnUse" x="0" y="0" width="36" height="30">
<path d="M0 30L-1.31134e-06 0L36 -1.57361e-06L36 30L0 30Z" fill="#002F6C"/>
</mask>
<g mask="url(#mask1_784_2277)">
<rect width="36" height="36" fill="#004692"/>
<path d="M12.7908 1.00463L10.6695 3.12595L36.8665 29.323L38.9878 27.2017L12.7908 1.00463Z" fill="#F5F7F8"/>
<path d="M7.13393 6.66148L3.59839 10.197L29.7954 36.394L33.3309 32.8585L7.13393 6.66148Z" fill="#F5F7F8"/>
<path d="M7.13393 6.66148L10.6695 3.12595L36.8665 29.323L33.3309 32.8585L7.13393 6.66148Z" fill="#DD2033"/>
<path d="M6 35H10.0017L10.0017 8.99997H36V5L6 5L6 35Z" fill="#F5F7F8"/>
<path d="M0 35.0001H6.00171L6.00171 4.99996H36.0017V4.58956e-06L1.90735e-06 0L0 35.0001Z" fill="#DD2033"/>
</g>
<path d="M56.2166 20.3779V23.3665H56.3594V24.8666H58.6452V28.7052C61.2352 29.1694 63.2166 31.4043 63.2166 34.1166C63.2166 35.5827 62.6348 36.913 61.6929 37.8959V40.3665H56.2166V48.3665H52.2166V40.3665H46.7405V37.8961C45.7985 36.9132 45.2166 35.5828 45.2166 34.1166C45.2166 31.4042 47.198 29.1693 49.7881 28.7051V24.8666H52.0737V23.3665H52.2166V20.3778L49.6505 22.4886L49.6665 16.4802L44 15.1703L48.5532 11.4665L46.0082 6.08289L51.6855 7.42881L54.2166 2L56.7476 7.42882L62.4252 6.0829L59.8798 11.4665L64.4332 15.1703L58.7666 16.4802L58.7825 22.4886L56.2166 20.3779Z" fill="#F5F7F8"/>
<rect x="53.2166" y="16.3665" width="2" height="31" fill="#936846"/>
<path fill-rule="evenodd" clip-rule="evenodd" d="M53.0737 24.3665H55.3594V25.8665L57.6452 25.8665L57.6452 28.1165H55.3594V30.2186C56.0318 29.8357 56.8125 29.6165 57.6452 29.6165C60.1699 29.6165 62.2166 31.6312 62.2166 34.1165C62.2166 35.4492 61.628 36.6466 60.6929 37.4706V39.3665H47.7405V37.4708C46.8052 36.6468 46.2166 35.4493 46.2166 34.1165C46.2166 31.6312 48.2633 29.6165 50.788 29.6165C51.6206 29.6165 52.4013 29.8357 53.0737 30.2185V28.1165H50.7881V25.8665L53.0737 25.8665V24.3665ZM54.2166 31.14L54.1953 31.1165H54.2378L54.2166 31.14ZM54.1954 37.1165L54.2166 37.093L54.2377 37.1165H54.1954Z" fill="#F1B434"/>
<path d="M54.2166 4.36646L56.1855 8.5897L60.6322 7.53558L58.6407 11.7476L62.2166 14.6563L57.7645 15.6854L57.7768 20.3665L54.2166 17.4378L50.6561 20.3665L50.6686 15.6854L46.2166 14.6563L49.7923 11.7476L47.8011 7.53558L52.2475 8.5897L54.2166 4.36646Z" fill="#009B77"/>
</g>
</svg>
