<svg width="72" height="50" viewBox="0 0 72 50" fill="none" xmlns="http://www.w3.org/2000/svg">
<mask id="mask0_784_2300" style="mask-type:alpha" maskUnits="userSpaceOnUse" x="0" y="0" width="72" height="50">
<rect width="72" height="50" fill="#D9D9D9"/>
</mask>
<g mask="url(#mask0_784_2300)">
<rect y="-11" width="72" height="72" fill="#F5F7F8"/>
<path d="M4.99988 39.0001L0 39.0001V50L72 50V39.0001L69.9999 39.0001V44H64.9999V39.0001L59.9999 39.0001V44H54.9999V39.0001L49.9999 39.0001V44H44.9999V39.0001L39.9999 39.0001V44H34.9999V39.0001L29.9999 39.0001V44H24.9999V39.0001L19.9999 39.0001V44H14.9999V39.0001L9.99988 39.0001V44H4.99988V39.0001Z" fill="#DD2033"/>
<path d="M0 3.14722e-06L0 6H5V10.9999H10V6H15V10.9999L20 10.9999V6H25V10.9999H30V6H35V10.9999H40V6H45V10.9999H50V6H55V10.9999H60V6H65V10.9999H72V0L0 3.14722e-06Z" fill="#009B77"/>
<path d="M42.9314 33C46.578 30.6974 49 26.6315 49 22C49 18.4101 47.5449 15.1601 45.1924 12.8076L42.566 15.434C44.2464 17.1144 45.2857 19.4358 45.2857 22C45.2857 26.4923 42.0956 30.2396 37.8572 31.1V16.4286H34.1429V31.1C29.9044 30.2396 26.7143 26.4924 26.7143 22C26.7143 19.4359 27.7536 17.1144 29.4339 15.4341L26.8076 12.8077C24.4551 15.1602 23 18.4102 23 22C23 26.6315 25.422 30.6974 29.0686 33H27.6001V36H44.6001V33H42.9314Z" fill="#DD2033"/>
<path d="M36.0287 9.00003L36 9L35.9713 9.00003H36.0287Z" fill="#DD2033"/>
</g>
</svg>
