<svg width="72" height="50" viewBox="0 0 72 50" fill="none" xmlns="http://www.w3.org/2000/svg">
<mask id="mask0_784_2326" style="mask-type:alpha" maskUnits="userSpaceOnUse" x="0" y="0" width="72" height="50">
<rect width="72" height="50" fill="#D9D9D9"/>
</mask>
<g mask="url(#mask0_784_2326)">
<rect x="0.000244141" y="50" width="16" height="72" transform="rotate(-90 0.000244141 50)" fill="#008259"/>
<rect y="34" width="18" height="72" transform="rotate(-90 0 34)" fill="#F5F7F8"/>
<rect y="16" width="16" height="72" transform="rotate(-90 0 16)" fill="#31373D"/>
<path d="M40 25L-8 -11V61L40 25Z" fill="#DD2033"/>
<path d="M15 14L17.7073 19.807L23.8215 18.3575L21.0832 24.1491L26 28.1485L19.8784 29.5635L19.8954 36L15 31.9731L10.1044 36L10.1216 29.5635L4 28.1485L8.9166 24.1491L6.17869 18.3575L12.2925 19.807L15 14Z" fill="#F5F7F8"/>
</g>
</svg>
