<svg width="72" height="50" viewBox="0 0 72 50" fill="none" xmlns="http://www.w3.org/2000/svg">
<mask id="mask0_784_2350" style="mask-type:alpha" maskUnits="userSpaceOnUse" x="0" y="0" width="72" height="50">
<rect width="72" height="50" fill="#D9D9D9"/>
</mask>
<g mask="url(#mask0_784_2350)">
<rect x="72" y="50" width="72" height="50" transform="rotate(180 72 50)" fill="#DD2033"/>
<path d="M36 15.5714C30.7927 15.5714 26.5714 19.7927 26.5714 25C26.5714 30.2073 30.7927 34.4286 36 34.4286C41.2073 34.4286 45.4286 30.2073 45.4286 25C45.4286 19.7927 41.2073 15.5714 36 15.5714Z" fill="#F1B434"/>
<path fill-rule="evenodd" clip-rule="evenodd" d="M58 24.9998L49.0105 29.4451L53.7973 38.597L44.036 36.6339L42.7991 47L35.9998 39.3761L29.2009 47L27.964 36.6339L18.2024 38.5966L22.9895 29.4448L14 24.9998L22.9898 20.5549L18.2024 11.4034L27.9637 13.3661L29.2012 3L35.9998 10.6239L42.7994 3L44.036 13.3661L53.7976 11.4034L49.0108 20.5552L58 24.9998ZM23.4285 25C23.4285 18.057 29.057 12.4286 36 12.4286C42.943 12.4286 48.5714 18.057 48.5714 25C48.5714 31.943 42.943 37.5714 36 37.5714C29.057 37.5714 23.4285 31.943 23.4285 25Z" fill="#F1B434"/>
<path d="M28 20.6441C30.0237 20.9533 31.9127 21.6706 33.5797 22.7091C31.3816 24.9186 29.76 27.6993 28.9586 30.8082C29.6927 31.6956 30.5921 32.4418 31.61 33C32.1147 29.7155 33.7032 26.7869 36 24.5889C38.2968 26.7869 39.8853 29.7155 40.39 33C41.4079 32.4418 42.3073 31.6956 43.0414 30.8082C42.24 27.6993 40.6184 24.9186 38.4203 22.7091C40.0873 21.6706 41.9763 20.9533 44 20.6441C43.4403 19.629 42.692 18.732 41.8021 18C39.6922 18.541 37.7329 19.4566 36 20.6715C34.2671 19.4566 32.3078 18.541 30.1979 18C29.308 18.732 28.5597 19.629 28 20.6441Z" fill="#DD2033"/>
</g>
</svg>
