<svg width="72" height="50" viewBox="0 0 72 50" fill="none" xmlns="http://www.w3.org/2000/svg">
<mask id="mask0_784_2360" style="mask-type:alpha" maskUnits="userSpaceOnUse" x="0" y="0" width="72" height="50">
<rect width="72" height="50" fill="#D9D9D9"/>
</mask>
<g mask="url(#mask0_784_2360)">
<rect width="72" height="36" fill="#DD2033"/>
<path fill-rule="evenodd" clip-rule="evenodd" d="M32.8695 6.14717C32.1183 6.77649 31.7774 7.60483 31.6932 8.11759C31.5292 9.11723 30.2131 9.39307 29.6752 8.53468C28.9033 7.30293 27.753 6.88322 26.4839 6.88837C25.1733 6.89368 23.8429 7.36576 23.0379 7.80176L22 5.82569C23.0328 5.26633 24.7165 4.65597 26.4751 4.64884C27.742 4.6437 29.0951 4.95811 30.234 5.86044C30.5381 5.35632 30.943 4.85772 31.466 4.41963C32.7103 3.37717 34.5281 2.75634 37 3.09102L36.7085 5.31093C34.7695 5.0484 33.5855 5.54732 32.8695 6.14717Z" fill="#F1B434"/>
<path d="M51 28.9999L44.6665 32.0308L48.039 38.2707L41.1617 36.9322L40.2903 44L35.4999 38.8019L30.7097 44L29.8383 36.9322L22.9608 38.2704L26.3335 32.0306L20 28.9999L26.3337 25.9692L22.9608 19.7296L29.838 21.0678L30.7099 14L35.4999 19.1981L40.2905 14L41.1617 21.0678L48.0392 19.7296L44.6667 25.9695L51 28.9999Z" fill="#F1B434"/>
<rect y="35" width="72" height="15" fill="#004692"/>
<path d="M73.8821 30.0033C72.3782 30.039 71.6062 30.7472 70.8342 31.4555C70.042 32.1824 69.2497 32.9093 67.6662 32.9093C66.0829 32.9093 65.2912 32.182 64.4996 31.4547C63.7079 30.7273 62.9162 30 61.3328 30C59.7495 30 58.9578 30.7273 58.1662 31.4547C57.3745 32.182 56.5829 32.9093 54.9997 32.9093C53.4165 32.9093 52.6248 32.182 51.8332 31.4546C51.0415 30.7273 50.2499 30 48.6666 30C47.0833 30 46.2917 30.7273 45.5 31.4546C44.7083 32.1819 43.9166 32.9093 42.3332 32.9093C40.7499 32.9093 39.9581 32.182 39.1664 31.4547C38.3746 30.7273 37.5829 30 35.9994 30C34.4161 30 33.6244 30.7273 32.8328 31.4547C32.0412 32.182 31.2495 32.9093 29.6663 32.9093C28.0833 32.9093 27.2917 32.182 26.5002 31.4547C25.7085 30.7274 24.9169 30 23.3335 30C21.7501 30 20.9583 30.7273 20.1666 31.4546C19.3749 32.182 18.5832 32.9093 16.9997 32.9093C15.4162 32.9093 14.6245 32.182 13.8328 31.4546C13.0411 30.7273 12.2493 30 10.6659 30C9.08284 30 8.2913 30.7273 7.49973 31.4546C6.70811 32.1819 5.91645 32.9093 4.33309 32.9093C2.74985 32.9093 1.95764 32.1825 1.16542 31.4556C0.393477 30.7474 -0.37848 30.0391 -1.88229 30.0033C-1.95963 30.9987 -2 32.0045 -2 33.0198C-2 33.7153 -1.98041 34.4063 -1.94345 35.0925C-0.398679 35.1099 0.383568 35.828 1.16584 36.546C1.95784 37.273 2.74986 38 4.33323 38C5.9166 38 6.70825 37.2727 7.49988 36.5454C8.29145 35.8182 9.08299 35.091 10.666 35.091C12.2495 35.091 13.0412 35.8183 13.8329 36.5455C14.6247 37.2728 15.4164 38 16.9999 38C18.5833 38 19.375 37.2728 20.1668 36.5455C20.9585 35.8183 21.7502 35.091 23.3337 35.091C24.917 35.091 25.7087 35.8183 26.5003 36.5456C27.2919 37.2728 28.0834 38 29.6665 38C31.2498 38 32.0415 37.2727 32.8331 36.5455C33.6247 35.8182 34.4163 35.091 35.9996 35.091C37.583 35.091 38.3747 35.8183 39.1665 36.5455C39.9582 37.2728 40.7499 38 42.3334 38C43.9169 38 44.7086 37.2727 45.5003 36.5454C46.292 35.8182 47.0836 35.091 48.6668 35.091C50.2501 35.091 51.0417 35.8183 51.8334 36.5455C52.625 37.2728 53.4166 38 54.9999 38C56.5831 38 57.3747 37.2728 58.1664 36.5455C58.958 35.8183 59.7497 35.091 61.3329 35.091C62.9165 35.091 63.7082 35.8183 64.4999 36.5456C65.2915 37.2728 66.0831 38 67.6663 38C69.2498 38 70.0419 37.273 70.834 36.5461C71.6164 35.828 72.3988 35.1099 73.9439 35.0925C73.9804 34.4061 74 33.7153 74 33.0198C74 32.0045 73.9596 30.9987 73.8821 30.0033Z" fill="#F5F7F8"/>
<path d="M73.8821 40.0033C72.3782 40.039 71.6062 40.7472 70.8342 41.4555C70.042 42.1824 69.2497 42.9093 67.6662 42.9093C66.0829 42.9093 65.2912 42.182 64.4996 41.4547C63.7079 40.7273 62.9162 40 61.3328 40C59.7495 40 58.9578 40.7273 58.1662 41.4547C57.3745 42.182 56.5829 42.9093 54.9997 42.9093C53.4165 42.9093 52.6248 42.182 51.8332 41.4546C51.0415 40.7273 50.2499 40 48.6666 40C47.0833 40 46.2917 40.7273 45.5 41.4546C44.7083 42.1819 43.9166 42.9093 42.3332 42.9093C40.7499 42.9093 39.9581 42.182 39.1664 41.4547C38.3746 40.7273 37.5829 40 35.9994 40C34.4161 40 33.6244 40.7273 32.8328 41.4547C32.0412 42.182 31.2495 42.9093 29.6663 42.9093C28.0833 42.9093 27.2917 42.182 26.5002 41.4547C25.7085 40.7274 24.9169 40 23.3335 40C21.7501 40 20.9583 40.7273 20.1666 41.4546C19.3749 42.182 18.5832 42.9093 16.9997 42.9093C15.4162 42.9093 14.6245 42.182 13.8328 41.4546C13.0411 40.7273 12.2493 40 10.6659 40C9.08284 40 8.2913 40.7273 7.49973 41.4546C6.70811 42.1819 5.91645 42.9093 4.33309 42.9093C2.74985 42.9093 1.95764 42.1825 1.16542 41.4556C0.393477 40.7474 -0.37848 40.0391 -1.88229 40.0033C-1.95963 40.9987 -2 42.0045 -2 43.0198C-2 43.7153 -1.98041 44.4063 -1.94345 45.0925C-0.398679 45.1099 0.383568 45.828 1.16584 46.546C1.95784 47.273 2.74986 48 4.33323 48C5.9166 48 6.70825 47.2727 7.49988 46.5454C8.29145 45.8182 9.08299 45.091 10.666 45.091C12.2495 45.091 13.0412 45.8183 13.8329 46.5455C14.6247 47.2728 15.4164 48 16.9999 48C18.5833 48 19.375 47.2728 20.1668 46.5455C20.9585 45.8183 21.7502 45.091 23.3337 45.091C24.917 45.091 25.7087 45.8183 26.5003 46.5456C27.2919 47.2728 28.0834 48 29.6665 48C31.2498 48 32.0415 47.2727 32.8331 46.5455C33.6247 45.8182 34.4163 45.091 35.9996 45.091C37.583 45.091 38.3747 45.8183 39.1665 46.5455C39.9582 47.2728 40.7499 48 42.3334 48C43.9169 48 44.7086 47.2727 45.5003 46.5454C46.292 45.8182 47.0836 45.091 48.6668 45.091C50.2501 45.091 51.0417 45.8183 51.8334 46.5455C52.625 47.2728 53.4166 48 54.9999 48C56.5831 48 57.3747 47.2728 58.1664 46.5455C58.958 45.8183 59.7497 45.091 61.3329 45.091C62.9165 45.091 63.7082 45.8183 64.4999 46.5456C65.2915 47.2728 66.0831 48 67.6663 48C69.2498 48 70.0419 47.273 70.834 46.5461C71.6164 45.828 72.3988 45.1099 73.9439 45.0925C73.9804 44.4061 74 43.7153 74 43.0198C74 42.0045 73.9596 40.9987 73.8821 40.0033Z" fill="#F5F7F8"/>
<path d="M70.8342 51.4555C71.6062 50.7472 72.3782 50.039 73.8821 50.0033C73.9596 50.9987 74 52.0045 74 53.0198C74 53.7153 73.9804 54.4061 73.9439 55.0925C72.3988 55.1099 71.6164 55.828 70.834 56.5461C70.0419 57.273 69.2498 58 67.6663 58C66.0831 58 65.2915 57.2728 64.4999 56.5456C63.7082 55.8183 62.9165 55.091 61.3329 55.091C59.7497 55.091 58.958 55.8183 58.1664 56.5455C57.3747 57.2728 56.5831 58 54.9999 58C53.4166 58 52.625 57.2728 51.8334 56.5455C51.0417 55.8183 50.2501 55.091 48.6668 55.091C47.0836 55.091 46.292 55.8182 45.5003 56.5454C44.7086 57.2727 43.9169 58 42.3334 58C40.7499 58 39.9582 57.2728 39.1665 56.5455C38.3747 55.8183 37.583 55.091 35.9996 55.091C34.4163 55.091 33.6247 55.8182 32.8331 56.5455C32.0415 57.2727 31.2498 58 29.6665 58C28.0834 58 27.2919 57.2728 26.5003 56.5456C25.7087 55.8183 24.917 55.091 23.3337 55.091C21.7502 55.091 20.9585 55.8183 20.1668 56.5455C19.375 57.2728 18.5833 58 16.9999 58C15.4164 58 14.6247 57.2728 13.8329 56.5455C13.0412 55.8183 12.2495 55.091 10.666 55.091C9.08299 55.091 8.29145 55.8182 7.49988 56.5454C6.70825 57.2727 5.9166 58 4.33323 58C2.74986 58 1.95784 57.273 1.16584 56.546C0.383568 55.828 -0.398679 55.1099 -1.94345 55.0925C-1.98041 54.4063 -2 53.7153 -2 53.0198C-2 52.0045 -1.95963 50.9987 -1.88229 50.0033C-0.37848 50.0391 0.393477 50.7474 1.16542 51.4556C1.95764 52.1825 2.74985 52.9093 4.33309 52.9093C5.91645 52.9093 6.70811 52.1819 7.49973 51.4546C8.2913 50.7273 9.08284 50 10.6659 50C12.2493 50 13.0411 50.7273 13.8328 51.4546C14.6245 52.182 15.4162 52.9093 16.9997 52.9093C18.5832 52.9093 19.3749 52.182 20.1666 51.4546C20.9583 50.7273 21.7501 50 23.3335 50C24.9169 50 25.7085 50.7274 26.5002 51.4547C27.2917 52.182 28.0833 52.9093 29.6663 52.9093C31.2495 52.9093 32.0412 52.182 32.8328 51.4547C33.6244 50.7273 34.4161 50 35.9994 50C37.5829 50 38.3746 50.7273 39.1664 51.4547C39.9581 52.182 40.7499 52.9093 42.3332 52.9093C43.9166 52.9093 44.7083 52.1819 45.5 51.4546C46.2917 50.7273 47.0833 50 48.6666 50C50.2499 50 51.0415 50.7273 51.8332 51.4546C52.6248 52.182 53.4165 52.9093 54.9997 52.9093C56.5829 52.9093 57.3745 52.182 58.1662 51.4547C58.9578 50.7273 59.7495 50 61.3328 50C62.9162 50 63.7079 50.7273 64.4996 51.4547C65.2912 52.182 66.0829 52.9093 67.6662 52.9093C69.2497 52.9093 70.042 52.1824 70.8342 51.4555Z" fill="#F5F7F8"/>
</g>
</svg>
