<svg width="72" height="50" viewBox="0 0 72 50" fill="none" xmlns="http://www.w3.org/2000/svg">
<mask id="mask0_784_2367" style="mask-type:alpha" maskUnits="userSpaceOnUse" x="0" y="0" width="72" height="50">
<rect width="72" height="50" fill="#D9D9D9"/>
</mask>
<g mask="url(#mask0_784_2367)">
<rect y="50" width="13" height="72" transform="rotate(-90 0 50)" fill="#004692"/>
<rect y="37" width="12" height="72" transform="rotate(-90 0 37)" fill="#DD2033"/>
<rect y="25" width="12" height="72" transform="rotate(-90 0 25)" fill="#F5F7F8"/>
<rect y="13" width="13" height="72" transform="rotate(-90 0 13)" fill="#FBD381"/>
<path d="M48 25L0 -11V61L48 25Z" fill="#009B77"/>
<path d="M10.3999 25C10.3999 18.369 15.01 12.8147 21.2 11.3674C20.1722 11.1271 19.101 11 18 11C10.268 11 4 17.268 4 25C4 32.732 10.268 39 18 39C19.101 39 20.1722 38.8729 21.2 38.6326C15.01 37.1853 10.3999 31.631 10.3999 25Z" fill="#F5F7F8"/>
<path d="M25.3999 20C27.0568 20 28.3999 18.6569 28.3999 17C28.3999 15.3431 27.0568 14 25.3999 14C23.743 14 22.3999 15.3431 22.3999 17C22.3999 18.6569 23.743 20 25.3999 20Z" fill="#F5F7F8"/>
<path d="M25.3999 28C27.0568 28 28.3999 26.6569 28.3999 25C28.3999 23.3431 27.0568 22 25.3999 22C23.743 22 22.3999 23.3431 22.3999 25C22.3999 26.6569 23.743 28 25.3999 28Z" fill="#F5F7F8"/>
<path d="M28.3999 33C28.3999 34.6569 27.0568 36 25.3999 36C23.743 36 22.3999 34.6569 22.3999 33C22.3999 31.3431 23.743 30 25.3999 30C27.0568 30 28.3999 31.3431 28.3999 33Z" fill="#F5F7F8"/>
</g>
</svg>
