<svg width="72" height="50" viewBox="0 0 72 50" fill="none" xmlns="http://www.w3.org/2000/svg">
<mask id="mask0_784_2390" style="mask-type:alpha" maskUnits="userSpaceOnUse" x="0" y="0" width="72" height="50">
<rect width="72" height="50" fill="#D9D9D9"/>
</mask>
<g mask="url(#mask0_784_2390)">
<rect width="72" height="50" fill="#F5F7F8"/>
<path fill-rule="evenodd" clip-rule="evenodd" d="M46.8998 25.0038C46.8998 31.0334 42.0079 35.9316 35.9646 35.9316C29.9212 35.9316 25.0369 31.0334 25.0369 25.0038C25.0369 18.9742 29.9287 14.0686 35.9721 14.0686C42.0155 14.0686 46.8998 18.9742 46.8998 25.0038Z" fill="#DD2033"/>
<path fill-rule="evenodd" clip-rule="evenodd" d="M25.1949 23.0759C25.541 25.8302 26.0453 28.8971 30.3276 29.2097C31.9306 29.3065 35.0539 28.8375 36.1226 24.5051C37.5374 20.3514 41.767 19.1604 44.6495 21.4084C46.2977 22.4655 46.7492 24.1404 46.8546 25.4058C46.7267 29.4256 44.3786 32.9243 41.3757 34.4875C37.9137 36.5197 33.1272 36.5644 28.9353 33.4826C27.0462 31.7332 24.4046 28.4951 25.1949 23.0759Z" fill="#004692"/>
<path d="M22.1247 3L13.8004 11.3243L15.5841 13.1081L23.9085 4.78378L22.1247 3Z" fill="#31373D"/>
<path d="M13.8003 38.6757L22.1246 47L23.9084 45.2163L15.5841 36.8919L13.8003 38.6757Z" fill="#31373D"/>
<path d="M46.5029 34.5136L50.0705 30.946L51.8543 32.7298L48.2867 36.2973L46.5029 34.5136Z" fill="#31373D"/>
<path d="M53.0434 33.919L49.4759 37.4865L51.2597 39.2703L54.8272 35.7027L53.0434 33.919Z" fill="#31373D"/>
<path d="M52.4488 40.4595L56.0164 36.8919L57.8002 38.6757L54.2326 42.2433L52.4488 40.4595Z" fill="#31373D"/>
<path d="M45.3137 35.7028L41.7462 39.2703L43.5299 41.0541L47.0975 37.4865L45.3137 35.7028Z" fill="#31373D"/>
<path d="M44.7191 42.2433L48.2867 38.6757L50.0705 40.4595L46.5029 44.0271L44.7191 42.2433Z" fill="#31373D"/>
<path d="M51.2597 41.6487L47.6921 45.2162L49.4759 47L53.0434 43.4325L51.2597 41.6487Z" fill="#31373D"/>
<path d="M20.3408 39.2703L16.7732 35.7028L18.557 33.919L22.1246 37.4865L20.3408 39.2703Z" fill="#31373D"/>
<path d="M23.3138 38.6757L21.53 40.4595L25.0976 44.0271L26.8814 42.2433L23.3138 38.6757Z" fill="#31373D"/>
<path d="M16.7733 14.2973L25.0976 5.97301L26.8814 7.75679L18.5571 16.0811L16.7733 14.2973Z" fill="#31373D"/>
<path d="M44.7192 7.75681L53.0435 16.0811L54.8273 14.2973L46.5029 5.97303L44.7192 7.75681Z" fill="#31373D"/>
<path d="M19.7463 17.2703L28.0706 8.94597L29.8544 10.7298L21.5301 19.0541L19.7463 17.2703Z" fill="#31373D"/>
<path d="M19.7462 32.7298L28.0705 41.0541L29.8543 39.2703L21.53 30.946L19.7462 32.7298Z" fill="#31373D"/>
<path d="M51.2597 8.35141L47.6921 4.78384L49.4759 3.00006L53.0435 6.56762L51.2597 8.35141Z" fill="#31373D"/>
<path d="M41.7462 10.7298L45.3138 14.2974L47.0975 12.5136L43.53 8.94603L41.7462 10.7298Z" fill="#31373D"/>
<path d="M56.0164 13.1082L52.4489 9.5406L54.2327 7.75682L57.8002 11.3244L56.0164 13.1082Z" fill="#31373D"/>
<path d="M46.503 15.4866L50.0705 19.0541L51.8543 17.2704L48.2867 13.7028L46.503 15.4866Z" fill="#31373D"/>
</g>
</svg>
