<svg width="72" height="50" viewBox="0 0 72 50" fill="none" xmlns="http://www.w3.org/2000/svg">
<mask id="mask0_784_2402" style="mask-type:alpha" maskUnits="userSpaceOnUse" x="0" y="0" width="72" height="50">
<rect width="72" height="50" fill="#D9D9D9"/>
</mask>
<g mask="url(#mask0_784_2402)">
<rect width="72" height="50" fill="#004692"/>
<mask id="mask1_784_2402" style="mask-type:alpha" maskUnits="userSpaceOnUse" x="0" y="0" width="36" height="30">
<path d="M0 30L-1.31134e-06 0L36 -1.57361e-06L36 30L0 30Z" fill="#002F6C"/>
</mask>
<g mask="url(#mask1_784_2402)">
<rect width="36" height="36" fill="#004692"/>
<path d="M12.7908 1.00463L10.6695 3.12595L36.8665 29.323L38.9878 27.2017L12.7908 1.00463Z" fill="#F5F7F8"/>
<path d="M7.13393 6.66148L3.59839 10.197L29.7954 36.394L33.3309 32.8585L7.13393 6.66148Z" fill="#F5F7F8"/>
<path d="M7.13393 6.66148L10.6695 3.12595L36.8665 29.323L33.3309 32.8585L7.13393 6.66148Z" fill="#DD2033"/>
<path d="M6 35H10.0017L10.0017 8.99997H36V5L6 5L6 35Z" fill="#F5F7F8"/>
<path d="M0 35.0001H6.00171L6.00171 4.99996H36.0017V4.58956e-06L1.90735e-06 0L0 35.0001Z" fill="#DD2033"/>
</g>
<path d="M65 35H44V40H47V43H62V40H65V35Z" fill="#FBD381"/>
<circle cx="54.5" cy="9.5" r="2.5" fill="#FBD381"/>
<circle cx="54.5" cy="17.5" r="7.5" fill="#008259"/>
<path d="M44 17H65V25.7432C65 31.8265 61.2916 37.2951 55.6401 39.546L54.5 40L53.36 39.546C47.7084 37.2951 44 31.8265 44 25.7432V17Z" fill="#DD2033"/>
<mask id="mask2_784_2402" style="mask-type:alpha" maskUnits="userSpaceOnUse" x="44" y="17" width="21" height="23">
<path d="M44 17H65V25.7432C65 31.8265 61.2916 37.2951 55.6401 39.546L54.5 40L53.36 39.546C47.7084 37.2951 44 31.8265 44 25.7432V17Z" fill="#DD2033"/>
</mask>
<g mask="url(#mask2_784_2402)">
<rect x="44" y="27" width="21" height="13" fill="#005EB8"/>
<path d="M54.4993 31C51.8745 31 51.8745 33.1819 49.2497 33.1819C46.6248 33.1819 46.6248 31 44 31V34.8181C46.6248 34.8181 46.6248 37 49.2497 37C51.8745 37 51.8745 34.8181 54.4993 34.8181C57.1244 34.8181 57.1244 37 59.7497 37C62.3749 37 62.3748 34.8181 65 34.8181V31C62.3749 31 62.3749 33.1819 59.7497 33.1819C57.1244 33.1819 57.1244 31 54.4993 31Z" fill="#F5F7F8"/>
<path d="M54.4993 24C51.8745 24 51.8745 26.1819 49.2497 26.1819C46.6248 26.1819 46.6248 24 44 24V27.8181C46.6248 27.8181 46.6248 30 49.2497 30C51.8745 30 51.8745 27.8181 54.4993 27.8181C57.1244 27.8181 57.1244 30 59.7497 30C62.3749 30 62.3748 27.8181 65 27.8181V24C62.3749 24 62.3749 26.1819 59.7497 26.1819C57.1244 26.1819 57.1244 24 54.4993 24Z" fill="#F5F7F8"/>
<rect x="47" y="19" width="15" height="4" fill="#F1B434"/>
</g>
</g>
</svg>
