<svg width="72" height="50" viewBox="0 0 72 50" fill="none" xmlns="http://www.w3.org/2000/svg">
<mask id="mask0_784_2423" style="mask-type:alpha" maskUnits="userSpaceOnUse" x="0" y="0" width="72" height="50">
<rect width="72" height="50" fill="#D9D9D9"/>
</mask>
<g mask="url(#mask0_784_2423)">
<rect width="72" height="50" fill="#3CCBDA"/>
<path d="M16.2002 5.97147L6.2002 15.9715L6.2002 -11H16.2002L16.2002 5.97147Z" fill="#FBD381"/>
<path d="M6.2002 21.6283L6.2002 28.3717L16.2002 38.3717L16.2002 11.6283L6.2002 21.6283Z" fill="#FBD381"/>
<path d="M6.2002 34.0286L16.2002 44.0286L16.2002 61H6.2002L6.2002 34.0286Z" fill="#FBD381"/>
<path d="M56.2002 16.9999L51.2968 19.4246L53.9078 24.4165L48.5835 23.3458L47.9088 29L44.2001 24.8415L40.4916 29L39.8169 23.3458L34.4924 24.4163L37.1035 19.4244L32.2002 16.9999L37.1037 14.5754L34.4924 9.58366L39.8167 10.6542L40.4917 5L44.2001 9.15852L47.909 5L48.5835 10.6542L53.908 9.58366L51.297 14.5756L56.2002 16.9999Z" fill="#FBD381"/>
<path d="M60.636 22C60.0638 23.9124 59.1759 25.7667 57.9611 27.4806C55.5355 30.903 52.1967 33.2154 48.5772 34.306C47.6156 34.5958 46.6343 34.7993 45.645 34.9145C45.5727 34.9229 45.5004 34.9308 45.428 34.9383C45.1858 34.9633 44.9431 34.9831 44.7002 34.9975L33.8938 46L45.4399 43.9525C46.5417 43.8689 47.6341 43.6753 48.7002 43.3743C50.0428 42.9954 51.3439 42.4462 52.5703 41.7322C54.6143 40.5422 56.4508 38.8943 57.9258 36.8132C61.0694 32.3778 61.8955 26.9279 60.636 22Z" fill="#FBD381"/>
<path d="M40.0889 34.6206C37.9093 34.1246 35.8005 33.1702 33.8937 31.734C30.7393 29.3581 28.6352 26.0381 27.6651 22.3904C26.1228 29.0372 28.4539 36.2859 34.1224 40.5871L40.0889 34.6206Z" fill="#FBD381"/>
</g>
</svg>
