<svg width="72" height="50" viewBox="0 0 72 50" fill="none" xmlns="http://www.w3.org/2000/svg">
<mask id="mask0_784_2448" style="mask-type:alpha" maskUnits="userSpaceOnUse" x="0" y="0" width="72" height="50">
<rect width="72" height="50" fill="#D9D9D9"/>
</mask>
<g mask="url(#mask0_784_2448)">
<rect width="72" height="50" fill="#F1B434"/>
<rect x="15" y="5" width="8" height="40" fill="#E26E00"/>
<rect x="31" y="5" width="41" height="40" fill="#A00009"/>
<path fill-rule="evenodd" clip-rule="evenodd" d="M45.6928 18.8944L47.2393 20.8215C47.3157 20.9915 47.3539 21.3316 46.8956 21.3316C46.3229 21.3316 43.459 20.2547 43.459 20.2547L42.5998 21.1615C42.5616 21.3316 42.4967 21.6716 42.5426 21.6716C42.5884 21.6716 43.4399 21.596 43.8599 21.5583L43.5736 22.125L44.3754 21.8983L44.8909 22.2951L45.0055 21.8983L45.6928 22.7485C45.8074 22.5407 46.0938 22.1364 46.3229 22.1817C46.6093 22.2384 46.7238 22.6351 46.6093 22.7485C46.6045 22.7532 46.5996 22.7581 46.5948 22.7631L46.5862 22.7719C46.5767 22.7819 46.5668 22.7923 46.5564 22.8034C46.4481 22.9185 46.2782 23.0991 45.6928 23.4853C45.0055 23.9387 44.0318 24.9022 43.8599 25.3557C43.8296 25.4358 43.7866 25.5178 43.7369 25.6128C43.5053 26.055 43.1255 26.7802 43.1726 28.9263C42.5617 28.3785 41.1679 27.09 40.4806 26.3192V26.0925C40.6715 26.0547 41.0534 25.8544 41.0534 25.3557C41.0534 24.8569 40.6715 24.6944 40.4806 24.6755H39.9651L40.1942 17.9309L40.4806 14.9837C40.893 13.3967 40.9197 13 40.8815 13C40.2897 13.3212 38.9799 14.4963 38.4759 16.6273C38.1551 17.6702 38.1131 18.9889 38.1322 19.5179V24.6755L38.2467 24.9022C37.9413 24.8267 37.2845 24.7889 37.1012 25.2423C36.9179 25.6957 37.0248 25.9224 37.1012 25.9791C37.2539 26.1114 37.6625 26.4099 38.0749 26.5459C37.9412 26.8104 37.7312 27.6001 37.9603 28.6429C37.9794 28.7941 38.0978 29.1984 38.4186 29.6064V29.7765L37.674 29.7198C37.542 29.7758 37.4361 29.9202 38.0513 30.0548L38.0749 30.0599L38.4186 30.1327C38.2658 30.4107 37.9785 30.9667 38.0513 30.9667C38.1241 30.9667 38.2883 31.269 38.3613 31.4201C38.3804 31.5335 38.4071 31.8169 38.3613 32.0436C38.3155 32.2703 38.0749 32.327 37.9603 32.327C37.7885 31.9869 37.5594 32.1003 37.4449 32.327C37.3532 32.5083 37.5594 32.7048 37.674 32.7804L38.2467 33.1204C38.2467 33.3018 38.1165 33.4605 38.0513 33.5172L38.0749 33.6872H38.6477C38.705 33.9139 38.8653 34.3673 39.0486 34.3673C39.2319 34.3673 39.3541 33.9139 39.3923 33.6872C39.6596 33.6305 40.1484 33.5172 39.9651 33.5172C39.7818 33.5172 39.6596 33.1771 39.6214 33.0071C39.9078 32.9315 40.4462 32.6897 40.3087 32.327C40.1712 31.9642 39.946 32.1758 39.8505 32.327L39.6214 32.2136C39.545 32.0813 39.3923 31.7375 39.3923 31.4201C39.3923 31.1027 39.545 30.7589 39.6214 30.6266C39.3464 30.3546 39.3541 30.0221 39.3923 29.8898C40.1072 30.1811 40.0193 29.8308 39.9675 29.624C39.9487 29.5492 39.9346 29.4931 39.9651 29.4931C40.0567 29.4931 40.2324 29.2286 40.3087 29.0964L40.4806 29.3231C40.4806 30.5133 40.6524 31.1934 40.8242 31.1934C40.9617 31.1934 41.3015 30.9289 41.4543 30.7967C41.8361 31.2123 42.7373 32.0549 43.2871 32.1003C43.837 32.1456 44.5854 31.3634 44.8909 30.9667C44.8909 31.2501 46.3801 31.8169 46.7238 31.9302C46.9631 32.0092 47.0914 33.1328 47.1858 33.9609C47.227 34.3217 47.2618 34.6265 47.2966 34.7641C47.3882 35.1268 46.7238 35.5953 46.3801 35.7843H44.8909C44.7 35.8787 44.2952 36.1697 44.2036 36.5778C44.1119 36.9858 44.3181 36.9745 44.4327 36.9178L44.8909 36.6911C45.2575 37.1899 45.9219 36.8989 46.2083 36.6911C46.6207 37.1899 47.3347 36.9745 47.6402 36.8045C47.7166 36.8422 47.9953 36.9178 48.4994 36.9178C49.1294 36.9178 49.3586 36.351 49.1294 36.0677C48.9462 35.841 49.0531 35.3309 49.1294 35.1041C50.3666 35.1041 50.7523 34.1595 50.7905 33.6872H49.9313C49.2898 33.7779 49.3586 33.1204 49.4731 32.7804C49.7022 32.4214 50.2063 31.6242 50.3895 31.3068C50.5728 30.9894 53.5971 29.9276 55.0863 29.4364H56.5755C56.4839 30.2979 56.6137 30.6266 56.6901 30.6833L58.2938 33.0638V35.5009C58.2938 35.6369 57.9884 35.7465 57.8356 35.7843C57.511 35.8221 56.8046 35.8976 56.5755 35.8976C56.3464 35.8976 56.1364 36.1999 56.06 36.351C55.7393 36.9405 56.0027 36.9745 56.1746 36.9178L56.6901 36.6911C57.1941 37.1899 57.7401 36.8989 57.9502 36.6911C58.4542 37.1899 58.9621 36.8989 59.153 36.6911C59.4251 37.0052 59.7331 36.9641 59.9633 36.9333C59.989 36.9299 60.0138 36.9265 60.0374 36.9239C60.0694 36.9203 60.0993 36.9178 60.1267 36.9178C60.31 36.9178 60.2795 35.5953 60.2413 34.9341C60.6995 34.6621 61.0431 33.6872 61.1577 33.2338C60.795 33.2716 60.058 33.1998 60.0122 32.6103C59.9663 32.0209 60.4513 31.7602 60.6995 31.7035C61.3295 32.1192 62.624 33.0524 62.7615 33.4605C62.8989 33.8686 62.7042 34.9908 62.5896 35.5009C62.1123 35.6709 61.1004 36.0223 60.8713 36.0677C60.5849 36.1243 60.3558 36.8045 60.5849 36.9178C60.7682 37.0085 61.0431 36.7289 61.1577 36.5778C61.5243 37.2126 62.1505 36.8422 62.4178 36.5778C62.876 37.0765 63.4488 36.7856 63.6779 36.5778C63.9528 36.9858 64.7089 36.8989 65.0526 36.8045C64.938 36.5778 64.6516 36.0563 64.4225 35.7843C64.1934 35.5122 64.327 34.9908 64.4225 34.7641C64.518 34.6885 64.812 34.4354 65.2244 34.0273C65.7399 33.5172 65.5108 33.2338 65.0526 33.0638C64.686 32.9277 64.4034 31.9869 64.308 31.5335C64.1247 30.8533 64.728 29.2853 65.0526 28.5863C65.339 27.9628 65.8086 26.3758 65.3962 25.0156C65.2324 24.475 65.0338 24.0662 64.7875 23.7564C65.0875 23.6324 65.4339 23.4352 65.7398 23.1541C66.1674 22.7612 66.5425 22.1759 66.5425 21.3937C66.5425 20.6068 66.1626 20.0338 65.7211 19.6593C65.294 19.297 64.7922 19.1016 64.4407 19.0271L64.3754 19.0132H58.289L58.2835 19.0133C57.8076 19.0216 57.1067 18.9259 56.556 18.6428C56.5237 18.6262 56.4922 18.6091 56.4614 18.5915C56.583 18.2173 56.8826 17.7296 57.451 17.7433C57.3034 17.3115 56.7564 16.6956 55.7261 17.5514C55.7182 17.4804 55.715 17.4059 55.7169 17.3277C55.7329 16.6621 56.0837 16.2778 56.5909 16.0324C56.9679 15.85 57.4106 15.7606 57.7979 15.7315L57.6859 15.7553C58.041 16.0059 58.6539 16.7064 58.2647 17.5031C58.78 17.5426 59.6677 17.2434 59.4456 15.8181C59.6849 15.8504 59.9396 15.8931 60.2004 15.9492L60.0936 15.9463C60.3236 16.2565 60.6347 17.0394 60.0399 17.6891C60.477 17.8397 61.3471 17.7603 61.6098 16.3975C61.9913 16.5693 62.339 16.7804 62.6248 17.0374C62.7371 17.1385 62.8462 17.2372 62.9521 17.333C63.4243 17.7601 63.8337 18.1305 64.1886 18.4015C64.6117 18.7247 65.0864 19.0132 65.6261 19.0132V19.0067C65.7334 19.0441 65.8488 19.0645 65.969 19.0645C66.5384 19.0645 67 18.6077 67 18.0443C67 17.4808 66.5384 17.0241 65.969 17.0241C65.5971 17.0241 65.2711 17.219 65.0898 17.5112C65.0489 17.4822 65.0052 17.4501 64.9586 17.4145C64.6492 17.1782 64.2901 16.8535 63.8207 16.4291C63.7109 16.3299 63.5951 16.2251 63.4724 16.1148C62.6711 15.394 61.6078 14.9977 60.6666 14.7755C59.7224 14.5526 58.8366 14.4901 58.3176 14.4794C57.7212 14.4488 56.822 14.5327 56.0375 14.9122C55.2149 15.3101 54.487 16.0594 54.4572 17.2981C54.4417 17.9392 54.6243 18.4556 54.9167 18.8637C54.1229 19.9031 54.7618 20.4114 55.2009 20.5381C55.171 20.0956 55.4629 19.805 55.7703 19.6352C55.8376 19.6758 55.906 19.7137 55.975 19.7492C56.765 20.1554 57.6875 20.2699 58.2999 20.2601H64.2344C64.4187 20.309 64.6838 20.4217 64.901 20.606C65.1277 20.7982 65.2824 21.0471 65.2824 21.3937C65.2824 21.745 65.1229 22.0193 64.8823 22.2404C64.6381 22.4648 64.3386 22.6043 64.1503 22.6603L63.1417 22.8871C62.9189 22.8495 62.6781 22.8236 62.4178 22.8052C61.1348 22.7145 56.1555 22.9563 53.8262 23.0886C53.2305 23.1339 53.0816 22.1628 53.0816 21.6716C53.3565 21.9437 53.6162 21.785 53.7116 21.6716C53.2992 21.2635 53.3871 20.7837 53.4825 20.5948C53.7116 20.5948 53.7307 20.368 53.7116 20.2547V17.9309C53.7116 17.4775 53.368 17.0619 53.1961 16.9107C53.9751 16.7294 54.0553 15.7772 53.998 15.3238C53.7307 15.6449 53.1045 16.1739 52.7379 15.7205C52.2797 15.1537 51.5924 14.9837 51.3633 14.9837C51.18 14.9837 51.0196 15.4749 50.9623 15.7205C50.695 15.4371 50.0803 14.859 49.7595 14.8137C49.4387 14.7683 49.3204 15.3993 49.3013 15.7205H49.0149C47.5257 14.8137 47.0675 15.4371 47.2393 15.7205C47.3768 15.9472 46.8766 16.2684 46.6093 16.4006C46.2427 16.3553 44.7382 16.6462 44.0318 16.7974V16.1173C43.4361 15.5278 42.9053 15.8717 42.7144 16.1173V17.6475L44.6045 19.3479L44.7764 18.8944L45.4064 19.3479L45.6928 18.8944ZM56.0028 18.2187L55.8774 18.036C55.9137 18.1009 55.9556 18.1617 56.0028 18.2187Z" fill="#F1B434"/>
<rect x="7" y="5" width="8" height="40" fill="#005B33"/>
</g>
</svg>
