<svg width="72" height="50" viewBox="0 0 72 50" fill="none" xmlns="http://www.w3.org/2000/svg">
<mask id="mask0_784_2490" style="mask-type:alpha" maskUnits="userSpaceOnUse" x="0" y="0" width="72" height="50">
<rect width="72" height="50" fill="#D9D9D9"/>
</mask>
<g mask="url(#mask0_784_2490)">
<rect x="0.000244141" y="61" width="18" height="72" transform="rotate(-90 0.000244141 61)" fill="#009B77"/>
<rect y="43" width="36" height="72" transform="rotate(-90 0 43)" fill="#31373D"/>
<rect y="7" width="18" height="72" transform="rotate(-90 0 7)" fill="#DD2033"/>
<path d="M30.6665 15C31.4861 15 32.2826 15.0986 33.0449 15.2846C31.0666 13.8475 28.6323 13 26 13C19.3726 13 14 18.3726 14 25C14 31.6274 19.3726 37 26 37C28.6323 37 31.0666 36.1525 33.0449 34.7154C32.2826 34.9014 31.4861 35 30.6665 35C25.1437 35 20.6665 30.5228 20.6665 25C20.6665 19.4772 25.1437 15 30.6665 15Z" fill="#F5F7F8"/>
<path d="M41.6726 21.8849L42.6934 15.3294L46.8551 20.4963L53.1661 19.6411L49.845 25.2495L52.7249 31.2764L46.3815 29.0938L41.9792 34.1557L41.4599 27.4963L35.7795 24.2998L41.6726 21.8849Z" fill="#F5F7F8"/>
</g>
</svg>
