<svg width="72" height="50" viewBox="0 0 72 50" fill="none" xmlns="http://www.w3.org/2000/svg">
<mask id="mask0_784_2496" style="mask-type:alpha" maskUnits="userSpaceOnUse" x="0" y="0" width="72" height="50">
<rect width="72" height="50" fill="#D9D9D9"/>
</mask>
<g mask="url(#mask0_784_2496)">
<rect y="50" width="50" height="72" transform="rotate(-90 0 50)" fill="#DD2033"/>
<path d="M56 20.2784H40.7213L36 5L31.2787 20.2784H16L28.3607 29.721L23.6392 44.9999L36 35.5571L48.3608 45L43.6393 29.7212L56 20.2784ZM31.8202 28.5391L33.4167 23.3726H38.5832L40.1798 28.5391V28.5392L36 31.7322L31.8203 28.5392L31.8202 28.5391ZM37.6271 20.2784H34.373L36 15.0131L37.6271 20.2784ZM42.683 26.6269L41.6774 23.3727H46.9427L42.683 26.6269ZM30.3225 23.3727L29.3169 26.6269L25.057 23.3727H30.3225ZM29.2369 36.8989L30.864 31.6337L33.4967 33.6447L29.2369 36.8989ZM38.5033 33.6449L41.136 31.6338L42.7631 36.899L38.5033 33.6449Z" fill="#005B33"/>
</g>
</svg>
