<svg width="72" height="50" viewBox="0 0 72 50" fill="none" xmlns="http://www.w3.org/2000/svg">
<mask id="mask0_784_2504" style="mask-type:alpha" maskUnits="userSpaceOnUse" x="0" y="0" width="72" height="50">
<rect width="72" height="50" fill="#D9D9D9"/>
</mask>
<g mask="url(#mask0_784_2504)">
<rect x="72" y="50" width="16" height="50" transform="rotate(180 72 50)" fill="#DD2033"/>
<rect x="56" y="50" width="40" height="50" transform="rotate(180 56 50)" fill="#F1B434"/>
<rect x="16" y="50" width="16" height="50" transform="rotate(180 16 50)" fill="#004692"/>
<path d="M25.0663 10.461C26.6438 10.3534 28.9599 10.585 30.761 11.4794C32.3843 12.2854 33.5159 13.5446 33.5159 15.9043V24.8754L22.9336 35.3414L26.8208 39.1858L33.6851 32.397L30.7868 39.5631L36.2842 45L41.7816 39.5631L38.8757 32.3783L45.728 39.1552L49.6152 35.3107L39.0329 24.8448V15.8737H39.0132C39.0018 11.1058 36.3424 8.16711 33.2276 6.62046C30.2839 5.1588 26.9063 4.88562 24.688 5.03692L25.0663 10.461Z" fill="#936846"/>
<path d="M22 13.0109L22 31.6298L28.5333 26.975L28.5333 16.7346C28.5333 14.6781 26.8618 13.0109 24.8 13.0109H22Z" fill="#936846"/>
<path d="M50 31.6296V13.0108H47.2C45.1382 13.0108 43.4667 14.6779 43.4667 16.7345V26.9749L50 31.6296Z" fill="#936846"/>
<path d="M26.4797 14.708L45.1462 14.708L45.1462 21.4163C45.1462 27.4844 41.449 32.9401 35.813 35.1888C30.1769 32.9401 26.4797 27.4844 26.4797 21.4163L26.4797 14.708Z" fill="#DD2033"/>
<mask id="mask1_784_2504" style="mask-type:alpha" maskUnits="userSpaceOnUse" x="26" y="14" width="20" height="22">
<path d="M26.4797 14.7083L45.1462 14.7083L45.1462 21.4166C45.1462 27.4846 41.449 32.9404 35.813 35.189C30.1769 32.9404 26.4797 27.4846 26.4797 21.4166L26.4797 14.7083Z" fill="#005EB8"/>
</mask>
<g mask="url(#mask1_784_2504)">
<path d="M26.4797 24.1821L45.1462 24.1821L45.1462 35.3535L26.4797 35.3535L26.4797 24.1821Z" fill="#0091DA"/>
<path d="M37.8666 23.684C38.9824 23.0401 39.7332 21.8367 39.7332 20.4584C39.7332 19.4301 39.3153 18.4991 38.6397 17.8253L37.8855 18.5776C38.3681 19.0589 38.6666 19.7239 38.6666 20.4584C38.6666 21.2025 38.3603 21.8752 37.8666 22.3579L37.8666 21.3893L34.1333 21.3893L34.1333 22.3579C33.6396 21.8752 33.3333 21.2025 33.3333 20.4584C33.3333 19.7239 33.6317 19.059 34.1143 18.5777L33.36 17.8253C32.6844 18.4992 32.2666 19.4301 32.2666 20.4584C32.2666 21.8367 33.0174 23.0401 34.1333 23.684L34.1333 28.8369C34.1333 29.8652 34.969 30.6988 35.9999 30.6988C37.0308 30.6988 37.8666 29.8652 37.8666 28.8369L37.8666 23.684Z" fill="#F1B434"/>
<path d="M35.9999 16.7346L36.0146 16.7346L35.9852 16.7346L35.9999 16.7346Z" fill="#F1B434"/>
</g>
</g>
</svg>
