<svg width="72" height="50" viewBox="0 0 72 50" fill="none" xmlns="http://www.w3.org/2000/svg">
<mask id="mask0_784_2515" style="mask-type:alpha" maskUnits="userSpaceOnUse" x="0" y="0" width="72" height="50">
<rect width="72" height="50" fill="#D9D9D9"/>
</mask>
<g mask="url(#mask0_784_2515)">
<rect x="72" y="50" width="72" height="50" transform="rotate(180 72 50)" fill="#F1B434"/>
<rect x="67" y="45" width="62" height="40" transform="rotate(180 67 45)" fill="#DD2033"/>
<path d="M35.8272 13.9372C37.4535 13.9372 38.7719 12.6081 38.7719 10.9686C38.7719 9.3291 37.4535 8 35.8272 8C34.2009 8 32.8825 9.3291 32.8825 10.9686C32.8825 12.6081 34.2009 13.9372 35.8272 13.9372Z" fill="#F1B434"/>
<path d="M39.5579 18.2246C40.8207 17.5909 42.4445 17.4267 43.5506 17.503L43.8158 13.6593C42.2605 13.5521 39.8923 13.7457 37.8285 14.7815C37.049 15.1727 36.3101 15.6896 35.6819 16.3462C35.0581 15.6999 34.327 15.1901 33.5561 14.8032C31.4922 13.7674 29.1241 13.5738 27.5688 13.681L27.834 17.5246C28.94 17.4484 30.5639 17.6126 31.8267 18.2463C32.9648 18.8175 33.7582 19.7098 33.7582 21.382V22.0386L23.3046 19.2148C22.9304 20.6225 23.7591 22.0694 25.1554 22.4466L33.7582 24.7704V25.4534L23.0898 22.5716C22.7157 23.9793 23.5443 25.4263 24.9407 25.8034L33.4068 28.0904L32.869 28.628L23.5071 26.0992C23.133 27.5069 23.9616 28.9538 25.358 29.331L30.7174 30.7787L26.3387 35.1556L29.0641 37.8799L33.8769 33.0691L31.8448 38.1472L35.6992 42L39.5535 38.1472L37.5162 33.0559L42.3205 37.8582L45.0459 35.1339L40.6025 30.6923L45.642 29.331C47.0384 28.9538 47.867 27.5069 47.4929 26.0992L38.4509 28.5416L37.913 28.004L46.0593 25.8034C47.4557 25.4263 48.2843 23.9793 47.9102 22.5716L37.6263 25.3495V24.6666L45.8446 22.4466C47.2409 22.0694 48.0696 20.6225 47.6954 19.2148L37.6263 21.9347V21.3603C37.6263 19.6881 38.4198 18.7958 39.5579 18.2246Z" fill="#F1B434"/>
<path d="M28.8252 20.5342L41.9128 20.5342L41.9128 25.3528C41.9128 29.6165 39.3233 33.4529 35.369 35.0474C31.4147 33.4529 28.8252 29.6165 28.8252 25.3528L28.8252 20.5342Z" fill="#005EB8"/>
<mask id="mask1_784_2515" style="mask-type:alpha" maskUnits="userSpaceOnUse" x="28" y="20" width="14" height="16">
<path d="M28.8252 20.5342H41.9128V25.3528C41.9128 29.6165 39.3233 33.4529 35.369 35.0474C31.4147 33.4529 28.8252 29.6165 28.8252 25.3528V20.5342Z" fill="#005EB8"/>
</mask>
<g mask="url(#mask1_784_2515)">
<rect x="28.8252" y="27.1311" width="13.0876" height="7.91632" fill="#009B77"/>
</g>
</g>
</svg>
