<svg width="72" height="50" viewBox="0 0 72 50" fill="none" xmlns="http://www.w3.org/2000/svg">
<mask id="mask0_784_2534" style="mask-type:alpha" maskUnits="userSpaceOnUse" x="0" y="0" width="72" height="50">
<rect width="72" height="50" fill="#D9D9D9"/>
</mask>
<g mask="url(#mask0_784_2534)">
<rect width="72" height="50" fill="#004692"/>
<path d="M6.88397 52.3069L5.08342 49.4586L79.5502 5.81891L86.01 16.0376L6.88397 52.3069Z" fill="#F1B434"/>
<path d="M8.72749 55.2223L6.88454 52.307L86.0105 16.0377L92.4703 26.2563L8.72749 55.2223Z" fill="#F5F7F8"/>
<path d="M30 18.9999L25.0967 21.4246L27.7076 26.4165L22.3833 25.3458L21.7086 31L17.9999 26.8415L14.2914 31L13.6167 25.3458L8.29219 26.4163L10.9033 21.4244L6 18.9999L10.9035 16.5754L8.29219 11.5837L13.6165 12.6542L14.2916 7L17.9999 11.1585L21.7088 7L22.3833 12.6542L27.7078 11.5837L25.0968 16.5756L30 18.9999Z" fill="#F5F7F8"/>
</g>
</svg>
