<svg width="72" height="50" viewBox="0 0 72 50" fill="none" xmlns="http://www.w3.org/2000/svg">
<mask id="mask0_784_2540" style="mask-type:alpha" maskUnits="userSpaceOnUse" x="0" y="0" width="72" height="50">
<rect width="72" height="50" fill="#D9D9D9"/>
</mask>
<g mask="url(#mask0_784_2540)">
<rect y="-11" width="72" height="72" fill="#DD2033"/>
<path d="M24.9084 17.0013C25.8569 15.6411 27.0408 14.4572 28.401 13.5086L13.2992 -8.00005L0 -0.5L24.9084 17.0013Z" fill="#FBD381"/>
<path d="M33.599 11.2802C34.504 11.0965 35.4407 11 36.3999 11C37.0875 11 37.7635 11.0496 38.4246 11.1453L43 -15H29L33.599 11.2802Z" fill="#FBD381"/>
<path d="M47.9162 17.0369C47.0213 15.7452 45.9148 14.6114 44.6467 13.6855L60.1611 -8.41082L72 0.5L47.9162 17.0369Z" fill="#FBD381"/>
<path d="M50.2286 22.8037C50.3414 23.5193 50.3999 24.2528 50.3999 25C50.3999 25.917 50.3117 26.8135 50.1434 27.6813L76.25 32.25V18.25L50.2286 22.8037Z" fill="#FBD381"/>
<path d="M44.562 36.3758C45.7996 35.4863 46.8861 34.3998 47.7756 33.1623L72 50L60.3217 58.8215L44.562 36.3758Z" fill="#FBD381"/>
<path d="M38.3392 38.8668C37.7053 38.9546 37.0579 39 36.3999 39C35.4705 39 34.5623 38.9094 33.6836 38.7367L29 65.5H43L38.3392 38.8668Z" fill="#FBD381"/>
<path d="M28.487 36.5509C27.1577 35.6385 25.9939 34.5027 25.0496 33.1975L0 50L13.1386 58.4107L28.487 36.5509Z" fill="#FBD381"/>
<path d="M22.6308 27.5459L-4.25 32.25V18.25L22.5504 22.9401C22.4513 23.6123 22.3999 24.3002 22.3999 25C22.3999 25.8694 22.4792 26.7203 22.6308 27.5459Z" fill="#FBD381"/>
<path d="M47.3999 25C47.3999 31.0751 42.475 36 36.3999 36C30.3248 36 25.3999 31.0751 25.3999 25C25.3999 18.9249 30.3248 14 36.3999 14C42.475 14 47.3999 18.9249 47.3999 25Z" fill="#FBD381"/>
</g>
</svg>
