<svg width="72" height="50" viewBox="0 0 72 50" fill="none" xmlns="http://www.w3.org/2000/svg">
<mask id="mask0_784_2556" style="mask-type:alpha" maskUnits="userSpaceOnUse" x="0" y="0" width="72" height="50">
<rect width="72" height="50" fill="#D9D9D9"/>
</mask>
<g mask="url(#mask0_784_2556)">
<rect width="72" height="50" transform="matrix(1 0 0 -1 0 50)" fill="#DD2033"/>
<rect width="18" height="50" transform="matrix(1 0 0 -1 27 50)" fill="#005EB8"/>
<path d="M14 9C15.1046 9 16 8.10457 16 7C16 5.89543 15.1046 5 14 5C12.8954 5 12 5.89543 12 7C12 8.10457 12.8954 9 14 9Z" fill="#F1B434"/>
<path d="M18 14C18 16.2091 16.2091 18 14 18C11.7909 18 10 16.2091 10 14C10 11.7909 11.7909 10 14 10C16.2091 10 18 11.7909 18 14Z" fill="#F1B434"/>
<path d="M8 19H4V39H8L8 19Z" fill="#F1B434"/>
<path d="M14 22L18 19L10 19L14 22Z" fill="#F1B434"/>
<path d="M20 19H24L24 39H20L20 19Z" fill="#F1B434"/>
<path fill-rule="evenodd" clip-rule="evenodd" d="M14 24C12.674 24 11.4022 24.5268 10.4646 25.4645C9.52687 26.4022 9 27.6741 9 29.0001C9 30.3262 9.52677 31.5979 10.4644 32.5356C10.73 32.8012 11.0224 33.0338 11.3353 33.2308C11.0676 32.7671 10.9231 32.2372 10.9231 31.6924C10.9231 31.667 10.9234 31.6414 10.924 31.616C10.9435 30.8276 11.2652 30.0756 11.8242 29.5166C12.3652 28.9756 13.087 28.6569 13.8474 28.6192C13.895 28.6168 13.9426 28.6155 13.9904 28.6154L14 28.6154C14.0383 28.6154 14.0764 28.6144 14.1144 28.6125C14.6848 28.5842 15.226 28.3452 15.6317 27.9395C16.0645 27.5067 16.3077 26.9196 16.3077 26.3076C16.3077 26.2885 16.3075 26.2695 16.307 26.2505C16.2923 25.6592 16.051 25.0952 15.6317 24.6759C15.248 24.2922 14.743 24.0575 14.2068 24.0093C14.1383 24.0031 14.0693 24 14 24ZM12.8211 26.3077C12.8211 25.6704 13.3377 25.1538 13.9749 25.1538C14.6122 25.1538 15.1288 25.6704 15.1288 26.3077C15.1288 26.9449 14.6122 27.4615 13.9749 27.4615C13.3377 27.4615 12.8211 26.9449 12.8211 26.3077Z" fill="#F1B434"/>
<path fill-rule="evenodd" clip-rule="evenodd" d="M17.0769 26.2982C17.0768 26.2723 17.0764 26.2465 17.0757 26.2207C17.0612 25.7066 16.9182 25.2082 16.6647 24.7692C16.9776 24.9662 17.27 25.1988 17.5356 25.4644C18.4732 26.4021 19 27.6738 19 28.9999C19 30.3259 18.4731 31.5978 17.5354 32.5355C16.5978 33.4732 15.326 34 14 34C13.9011 34 13.8029 33.9937 13.7059 33.9812C13.2024 33.9165 12.7311 33.6869 12.3683 33.3241C11.9491 32.9049 11.7077 32.3409 11.693 31.7497C11.6925 31.7306 11.6923 31.7115 11.6923 31.6924L11.6923 31.6852C11.6924 31.6686 11.6926 31.6519 11.693 31.6353C11.7077 31.0439 11.949 30.4798 12.3683 30.0605C12.774 29.6548 13.3153 29.4158 13.8856 29.3875C13.9236 29.3856 13.9618 29.3846 14 29.3846C14.0986 29.3846 14.1968 29.3799 14.2941 29.3705C15.0022 29.3026 15.6685 28.9907 16.1758 28.4834C16.7528 27.9064 17.0769 27.1238 17.0769 26.3078L17.0769 26.2982ZM15.1789 31.6923C15.1789 32.3296 14.6623 32.8462 14.0251 32.8462C13.3878 32.8462 12.8712 32.3296 12.8712 31.6923C12.8712 31.0551 13.3878 30.5385 14.0251 30.5385C14.6623 30.5385 15.1789 31.0551 15.1789 31.6923Z" fill="#F1B434"/>
<path d="M18 36L14 39L10 36H18Z" fill="#F1B434"/>
</g>
</svg>
