<svg width="72" height="50" viewBox="0 0 72 50" fill="none" xmlns="http://www.w3.org/2000/svg">
<mask id="mask0_784_2561" style="mask-type:alpha" maskUnits="userSpaceOnUse" x="0" y="0" width="72" height="50">
<rect width="72" height="50" fill="#D9D9D9"/>
</mask>
<g mask="url(#mask0_784_2561)">
<rect x="72" y="50" width="72" height="50" transform="rotate(180 72 50)" fill="#008259"/>
<mask id="mask1_784_2561" style="mask-type:alpha" maskUnits="userSpaceOnUse" x="17" y="6" width="38" height="38">
<circle cx="36" cy="25" r="19" fill="#D9D9D9"/>
</mask>
<g mask="url(#mask1_784_2561)">
<path fill-rule="evenodd" clip-rule="evenodd" d="M58.4832 41.625L13.3582 41.625L13.3582 44L58.4832 44L58.4832 41.625ZM59.7499 36.875L14.6249 36.875L14.6249 39.25L59.7499 39.25L59.7499 36.875Z" fill="#F5F7F8"/>
<path d="M39.8881 25.8618C41.3328 23.2848 41.502 19.6258 36.046 15.5C30.5481 19.677 30.6523 23.2967 32.0774 25.8427C29.5023 24.4157 25.8575 24.272 21.7499 29.7039C29.7729 40.2639 35.7396 30.1565 35.9916 29.7185C36.0012 29.7241 36.0096 29.729 36.0167 29.7332C36.3714 30.3428 42.3016 40.1656 50.2499 29.7039C46.124 24.2479 42.4651 24.4171 39.8881 25.8618Z" fill="#F5F7F8"/>
<path d="M35.6874 6L34.8134 7.97688L32.7553 8.23991L34.2733 9.72479L33.8752 11.8642L35.6874 10.6425L37.4996 11.8642L37.1015 9.72479L38.6195 8.23991L36.5614 7.97688L35.6874 6Z" fill="#F1B434"/>
<path d="M25.5219 9.46241L25.9398 11.5831L24.4048 12.979L26.5 13.3247L27.401 15.3055L28.1847 13.2653L30.3699 13.2267L28.8167 11.7025L29.2085 9.61546L27.3717 10.5805L25.5219 9.46241Z" fill="#F1B434"/>
<path d="M23.0989 15.3827L22.2249 17.3596L20.1667 17.6226L21.6848 19.1075L21.2867 21.2469L23.0988 20.0252L24.911 21.2469L24.5129 19.1075L26.0309 17.6226L23.9728 17.3596L23.0989 15.3827Z" fill="#F1B434"/>
<path d="M48.9013 15.3827L48.0273 17.3596L45.9692 17.6226L47.4872 19.1075L47.0891 21.2469L48.9013 20.0252L50.7135 21.2469L50.3154 19.1075L51.8334 17.6226L49.7753 17.3596L48.9013 15.3827Z" fill="#F1B434"/>
<path d="M45.8917 9.46238L44.0419 10.5804L42.2051 9.61542L42.5969 11.7025L41.0436 13.2266L43.2288 13.2653L44.0125 15.3055L44.9135 13.3246L47.0087 12.979L45.4737 11.583L45.8917 9.46238Z" fill="#F1B434"/>
</g>
</g>
</svg>
