<svg width="72" height="50" viewBox="0 0 72 50" fill="none" xmlns="http://www.w3.org/2000/svg">
<mask id="mask0_784_2571" style="mask-type:alpha" maskUnits="userSpaceOnUse" x="0" y="0" width="72" height="50">
<rect width="72" height="50" fill="#D9D9D9"/>
</mask>
<g mask="url(#mask0_784_2571)">
<rect width="72" height="50" fill="#0091DA"/>
<path fill-rule="evenodd" clip-rule="evenodd" d="M32.9653 44.5764C33.257 45.3696 34.0016 45.9539 34.9016 45.9974C34.9379 45.999 34.9742 46.0004 35.0106 45.9999C35.8641 45.9999 36.613 45.5041 36.9672 44.7747C37.4127 45.4939 38.2589 45.9173 39.1487 45.7825C40.0399 45.6461 40.722 44.9894 40.9311 44.1687C41.513 44.7849 42.4274 45.0283 43.2722 44.7166C43.2722 44.7166 43.0626 44.7947 42.9571 44.8339C42.8513 44.8732 42.8509 44.8733 43.2736 44.7166C44.1183 44.4034 44.6524 43.6218 44.6917 42.7751C45.3854 43.2607 46.3318 43.3159 47.0953 42.8389C47.8588 42.3618 48.2246 41.4889 48.0925 40.6537C48.869 40.9887 49.8052 40.8525 50.4584 40.2332C51.11 39.6126 51.2944 38.6846 50.9968 37.8929C51.8257 38.067 52.7154 37.7452 53.2307 37.007C53.7459 36.269 53.7386 35.3236 53.2887 34.6058C54.1363 34.6103 54.9448 34.1157 55.3004 33.2893C55.656 32.4613 55.4572 31.5363 54.8707 30.9244C55.7025 30.7562 56.3933 30.1094 56.5733 29.2279C56.7547 28.3464 56.373 27.4808 55.6763 27.0008C56.4543 26.6687 57 25.8973 57 24.9984V24.9505C56.9986 24.0515 56.4499 23.2817 55.672 22.9524C56.3671 22.4695 56.746 21.6038 56.5646 20.7223C56.3817 19.8408 55.6894 19.1955 54.8577 19.0302C55.4426 18.4169 55.6386 17.4903 55.2815 16.6639C54.923 15.8389 54.1145 15.3458 53.2683 15.3517C53.7168 14.6339 53.7211 13.6885 53.2044 12.952C52.6878 12.214 51.7965 11.8949 50.9678 12.0704C51.2638 11.2773 51.0781 10.3509 50.4249 9.73169C49.7717 9.11408 48.8341 8.97925 48.0575 9.31704C48.1882 8.48044 47.821 7.60907 47.056 7.13489C46.2911 6.65927 45.3447 6.71594 44.6524 7.20302C44.6117 6.35626 44.0747 5.57621 43.2285 5.26447C42.3838 4.9543 41.4694 5.1992 40.8888 5.81708C40.6769 4.99768 39.9932 4.34242 39.102 4.20902C38.2123 4.07419 37.3675 4.50044 36.9233 5.21966C36.5517 4.4611 35.7535 3.95669 34.855 4.00294C33.9551 4.04788 33.2119 4.6337 32.9202 5.42679C32.4035 4.75694 31.5181 4.42201 30.6472 4.64816C29.775 4.87457 29.1639 5.59952 29.0405 6.43742C28.3976 5.88364 27.4615 5.73566 26.6544 6.13298C25.8459 6.53174 25.3946 7.36273 25.4424 8.20792C24.7037 7.79614 23.7573 7.83821 23.0475 8.39082C22.3363 8.94316 22.0605 9.84789 22.2783 10.6657C21.4698 10.4105 20.5525 10.6411 19.9675 11.324C19.3811 12.0083 19.2925 12.9494 19.6699 13.7077C18.8266 13.6192 17.9731 14.0296 17.5363 14.8155C17.0994 15.6026 17.2039 16.5438 17.725 17.2107C16.8815 17.2949 16.1283 17.8691 15.8598 18.7289C15.5913 19.5874 15.8844 20.4878 16.5303 21.0359C15.7219 21.2883 15.1007 22.003 15.0122 22.8991H15.0107C14.9222 23.7924 15.3895 24.6144 16.1313 25.0204C15.3897 25.4293 14.9252 26.2515 15.0166 27.146C15.108 28.0405 15.7293 28.7538 16.5392 29.0034C15.8933 29.553 15.603 30.4549 15.8744 31.3132C16.1443 32.1716 16.8991 32.7444 17.7424 32.8256C17.2215 33.4942 17.1198 34.4352 17.5596 35.2211C17.998 36.0069 18.8514 36.4157 19.6933 36.3259C19.3186 37.0842 19.4087 38.0253 19.9966 38.7067C20.5845 39.3897 21.5017 39.6187 22.3088 39.3607C22.094 40.1799 22.3713 41.0832 23.0825 41.6343C23.7951 42.1853 24.7415 42.2258 25.4802 41.8112C25.4338 42.6565 25.8866 43.4875 26.6965 43.8848C27.5049 44.2804 28.4396 44.1297 29.0812 43.576C29.2076 44.4141 29.8185 45.1362 30.6924 45.3609C31.5646 45.5856 32.4501 45.2477 32.9653 44.5764ZM36 39C43.732 39 50 32.732 50 25C50 17.268 43.732 11 36 11C28.268 11 22 17.268 22 25C22 32.732 28.268 39 36 39Z" fill="#F5F7F8"/>
<path d="M31.7221 13.3333C30.863 13.3333 30.1665 14.0297 30.1665 14.8888V19.5555C30.1665 20.4146 30.863 21.111 31.7221 21.111H32.3054L29.6073 42.6959C29.4913 43.6243 30.2152 44.4444 31.1509 44.4444H40.8489C41.7846 44.4444 42.5085 43.6243 42.3924 42.6959L39.6943 21.111H40.2777C41.1368 21.111 41.8332 20.4146 41.8332 19.5555V14.8888C41.8332 14.0297 41.1368 13.3333 40.2777 13.3333H31.7221Z" fill="#C1C3C3"/>
<path d="M36 15.6667L33.218 21.9595L26.6666 22.7967L31.4987 27.5233L30.2315 34.3334L36 30.4445L41.7684 34.3334L40.5012 27.5233L45.3333 22.7967L38.7819 21.9595L36 15.6667Z" fill="#F5F7F8"/>
</g>
</svg>
