<svg width="72" height="50" viewBox="0 0 72 50" fill="none" xmlns="http://www.w3.org/2000/svg">
<mask id="mask0_784_2582" style="mask-type:alpha" maskUnits="userSpaceOnUse" x="0" y="0" width="72" height="50">
<rect width="72" height="50" fill="#D9D9D9"/>
</mask>
<g mask="url(#mask0_784_2582)">
<rect width="72" height="50" fill="#DD2033"/>
<rect y="42" width="34" height="72" transform="rotate(-90 0 42)" fill="#005B33"/>
<path d="M33.9486 15.681L36 11L38.0514 15.681L42.8824 16.3038L39.3192 19.8199L40.2536 24.8857L36 21.9929L31.7464 24.8857L32.6808 19.8199L29.1176 16.3038L33.9486 15.681Z" fill="#FBD381"/>
<path d="M46.5231 25.2565C47.452 23.9343 48.131 22.5038 48.5685 21.0286C49.5317 24.8301 48.9 29.0343 46.496 32.4559C42.2606 38.4842 34.128 39.8005 28.3312 35.396C23.9691 32.0816 22.1727 26.4721 23.3555 21.3298C24.0973 24.1437 25.7064 26.7048 28.1186 28.5377C33.9154 32.9422 42.1553 31.4732 46.5231 25.2565Z" fill="#FBD381"/>
</g>
</svg>
