<svg width="72" height="50" viewBox="0 0 72 50" fill="none" xmlns="http://www.w3.org/2000/svg">
<mask id="mask0_784_2625" style="mask-type:alpha" maskUnits="userSpaceOnUse" x="0" y="0" width="72" height="50">
<rect width="72" height="50" fill="#D9D9D9"/>
</mask>
<g mask="url(#mask0_784_2625)">
<rect x="56" width="16" height="50" fill="#DD2033"/>
<rect x="16" width="40" height="50" fill="#F5F7F8"/>
<rect width="16" height="50" fill="#008259"/>
<path d="M18.406 19.4353C18.1401 20.6663 18 21.9441 18 23.2546C18 33.1957 26.0589 41.2546 36 41.2546C45.9411 41.2546 54 33.1957 54 23.2546C54 21.916 53.8539 20.6115 53.5767 19.3562L50.8019 20.5561C50.9322 21.3514 51 22.1678 51 23C51 31.2843 44.2843 38 36 38C27.7157 38 21 31.2843 21 23C21 22.196 21.0633 21.4068 21.1851 20.637L18.406 19.4353Z" fill="#009B77"/>
<path d="M43.0656 28.4804C41.4019 27.2093 40.2367 26.3191 39.2848 20.8625C43.9653 21.2049 47.6562 25.1107 47.6562 29.8786C48.3583 28.2981 48.5387 27.4516 48.7487 26.4665C48.8213 26.1258 48.8975 25.7683 49 25.3584C49 17.355 42.9183 11 36.0898 11C36.011 11 35.9325 11.0009 35.8541 11.0026C35.3089 11.0145 35.1888 11.8526 35.5997 12.2111C36.6332 13.1128 37.2863 14.4397 37.2863 15.9191C37.2863 16.57 37.1599 17.1914 36.9302 17.7601C36.7946 17.6826 36.6549 17.6114 36.5116 17.5469C35.8128 14.9882 33.6859 13.1272 31.1707 13.1272C28.8341 13.1272 26.8327 14.7332 26 17.0126C26.6518 16.4038 27.4214 16.052 28.2458 16.052C29.5097 16.052 30.6448 16.8787 31.4241 18.1912C30.2971 19.0926 29.5753 20.4794 29.5753 22.0347C29.5753 23.6433 30.3474 25.0715 31.5412 25.969L36.2227 30.4104C36.6216 30.6763 37.5788 31.0486 38.2169 30.4104L38.4828 28.948C38.6601 29.4355 39.2539 30.4104 40.2112 30.4104H44.1996C44.6871 30.4547 45.2632 30.2243 43.6678 28.948C43.4601 28.7818 43.2593 28.6284 43.0656 28.4804Z" fill="#936846"/>
<path d="M28.659 13.7935C27.4612 14.4697 26.5108 15.6145 26 17.0126C26.6518 16.4037 27.4214 16.052 28.2458 16.052C28.3852 16.052 28.523 16.062 28.659 16.0817V13.7935Z" fill="#F1B434"/>
<path d="M30.3816 29.6001C30.1859 29.2111 29.9298 29.0858 29.6737 28.9605C29.4109 28.8319 29.148 28.7033 28.9504 28.2897C28.7529 27.8762 28.8181 27.591 28.8834 27.3058C28.9487 27.0207 29.0139 26.7355 28.8164 26.3219C28.6188 25.9084 28.3559 25.78 28.0931 25.6516C27.8302 25.5232 27.5674 25.3949 27.3698 24.9813C27.1722 24.5678 27.2375 24.2826 27.3028 23.9975C27.368 23.7123 27.4333 23.4271 27.2357 23.0136C27.0382 22.6001 26.7753 22.4717 26.5125 22.3433C26.2496 22.2149 25.9867 22.0865 25.7891 21.6729C25.5915 21.2593 25.6568 20.9742 25.7221 20.689C25.7873 20.4038 25.8526 20.1186 25.655 19.705C25.4574 19.2914 25.1945 19.1631 24.9317 19.0347C24.6688 18.9063 24.406 18.7779 24.2084 18.3644C24.0109 17.9509 24.0761 17.6658 24.1414 17.3806C24.2067 17.0955 24.272 16.8103 24.0744 16.3967C23.8768 15.9832 23.6139 15.8548 23.3511 15.7263C23.0882 15.5979 22.8253 15.4695 22.6277 15.056C22.4301 14.6424 22.4954 14.3572 22.5607 14.072C22.6259 13.7868 22.6912 13.5016 22.4936 13.088C22.2961 12.6746 22.0332 12.5462 21.7704 12.4178C21.5075 12.2895 21.2447 12.1611 21.0471 11.7475C20.8495 11.334 20.9146 11.0487 20.9797 10.7634C21.0431 10.4855 21.1065 10.2075 20.927 9.81088C20.6928 9.89796 20.4609 9.99582 20.2318 10.1052C20.0749 10.1802 19.9215 10.2598 19.7713 10.3434C19.9602 10.7487 19.8958 11.0305 19.8315 11.3122C19.7663 11.5974 19.7012 11.8826 19.8987 12.2962C20.0963 12.7097 20.3592 12.8381 20.622 12.9665C20.8849 13.0949 21.1477 13.2233 21.3452 13.6367C21.5428 14.0503 21.4775 14.3355 21.4123 14.6207C21.3471 14.9058 21.2818 15.191 21.4794 15.6046C21.677 16.0182 21.9399 16.1466 22.2027 16.275C22.4656 16.4035 22.7284 16.5319 22.926 16.9455C23.1236 17.359 23.0583 17.6442 22.9931 17.9294C22.9278 18.2145 22.8625 18.4996 23.0601 18.9131C23.2577 19.3266 23.5205 19.455 23.7834 19.5834C24.0462 19.7118 24.309 19.8402 24.5066 20.2537C24.7042 20.6673 24.6389 20.9525 24.5737 21.2377C24.5084 21.5228 24.4432 21.808 24.6408 22.2216C24.8384 22.6352 25.1013 22.7636 25.3641 22.892C25.627 23.0204 25.8898 23.1488 26.0873 23.5623C26.2849 23.9759 26.2197 24.261 26.1544 24.5462C26.0891 24.8313 26.0239 25.1165 26.2215 25.53C26.419 25.9435 26.6819 26.0719 26.9447 26.2003C27.2075 26.3287 27.4704 26.4571 27.668 26.8706C27.8656 27.2842 27.8003 27.5694 27.735 27.8546C27.6698 28.1397 27.6045 28.4249 27.8021 28.8384C27.9997 29.252 28.2625 29.3805 28.5254 29.5091C28.785 29.6361 29.0446 29.763 29.2413 30.1647C29.4007 30.1003 29.559 30.0309 29.7159 29.956C29.9449 29.8466 30.1668 29.7276 30.3816 29.6001Z" fill="#009B77"/>
</g>
</svg>
