<svg width="72" height="50" viewBox="0 0 72 50" fill="none" xmlns="http://www.w3.org/2000/svg">
<mask id="mask0_784_2688" style="mask-type:alpha" maskUnits="userSpaceOnUse" x="0" y="0" width="72" height="50">
<rect width="72" height="50" fill="#D9D9D9"/>
</mask>
<g mask="url(#mask0_784_2688)">
<rect width="72" height="50" fill="#F5F7F8"/>
<path d="M65.1209 29H31.0459L66.0729 65H18.5L-19.3999 29L11.0454 -19.0671L21.8605 -9.45372L65.1209 29Z" fill="#004692"/>
<path d="M54.6001 25L16.5 -7.5H-15V25V61H56.6001L21.5731 25H54.6001Z" fill="#DD2033"/>
<path d="M24 35.9999L20.3225 37.8185L22.2807 41.5624L18.2875 40.7593L17.7815 45L14.9999 41.8811L12.2185 45L11.7125 40.7593L7.71915 41.5623L9.67751 37.8183L6 35.9999L9.67764 34.1815L7.71915 30.4377L11.7124 31.2407L12.2187 27L14.9999 30.1189L17.7816 27L18.2875 31.2407L22.2809 30.4377L20.3226 34.1817L24 35.9999Z" fill="#F5F7F8"/>
<mask id="mask1_784_2688" style="mask-type:alpha" maskUnits="userSpaceOnUse" x="6" y="3" width="18" height="18">
<circle cx="15" cy="12" r="9" fill="#D9D9D9"/>
</mask>
<g mask="url(#mask1_784_2688)">
<path d="M21.5454 13.5493L18.8708 14.8719L20.295 17.5947L17.3908 17.0107L17.0228 20.0948L14.9999 17.8265L12.977 20.0948L12.609 17.0107L9.70476 17.5946L11.129 14.8718L8.45447 13.5493L11.1291 12.2268L9.70476 9.50408L12.6089 10.088L12.9771 7.00391L14.9999 9.27219L17.0229 7.00391L17.3908 10.088L20.2951 9.50408L18.8709 12.2269L21.5454 13.5493Z" fill="#F5F7F8"/>
</g>
<path d="M23.9551 11.095C22.4167 14.5069 18.9857 16.8819 15 16.8819C11.0143 16.8819 7.58329 14.5069 6.04495 11.095C6.01522 11.3926 6 11.6946 6 12.0001C6 16.9706 10.0294 21.0001 15 21.0001C19.9706 21.0001 24 16.9706 24 12.0001C24 11.6946 23.9848 11.3926 23.9551 11.095Z" fill="#F5F7F8"/>
</g>
</svg>
