<svg width="72" height="50" viewBox="0 0 72 50" fill="none" xmlns="http://www.w3.org/2000/svg">
<mask id="mask0_784_2723" style="mask-type:alpha" maskUnits="userSpaceOnUse" x="0" y="0" width="72" height="50">
<rect width="72" height="50" fill="#D9D9D9"/>
</mask>
<g mask="url(#mask0_784_2723)">
<rect width="72" height="50" fill="#004692"/>
<path d="M54 4L52.5097 7.37109L49 7.81964L51.5886 10.3517L50.9098 14L54 11.9167L57.0902 14L56.4114 10.3517L59 7.81964L55.4903 7.37109L54 4Z" fill="#DD2033"/>
<path d="M44.5097 19.3711L46 16L47.4903 19.3711L51 19.8196L48.4114 22.3517L49.0902 26L46 23.9167L42.9098 26L43.5886 22.3517L41 19.8196L44.5097 19.3711Z" fill="#DD2033"/>
<path d="M51.9135 35.7195L54 31L56.0865 35.7195L61 36.3475L57.3759 39.8924L58.3263 45L54 42.0833L49.6737 45L50.6241 39.8924L47 36.3475L51.9135 35.7195Z" fill="#DD2033"/>
<path d="M61.5097 17.3711L63 14L64.4903 17.3711L68 17.8196L65.4114 20.3517L66.0902 24L63 21.9167L59.9098 24L60.5886 20.3517L58 17.8196L61.5097 17.3711Z" fill="#DD2033"/>
<mask id="mask1_784_2723" style="mask-type:alpha" maskUnits="userSpaceOnUse" x="0" y="0" width="36" height="30">
<path d="M0 30L-1.31134e-06 0L36 -1.57361e-06L36 30L0 30Z" fill="#002F6C"/>
</mask>
<g mask="url(#mask1_784_2723)">
<rect width="36" height="36" fill="#004692"/>
<path d="M12.7908 1.00463L10.6695 3.12595L36.8665 29.323L38.9878 27.2017L12.7908 1.00463Z" fill="#F5F7F8"/>
<path d="M7.13393 6.66148L3.59839 10.197L29.7954 36.394L33.3309 32.8585L7.13393 6.66148Z" fill="#F5F7F8"/>
<path d="M7.13393 6.66148L10.6695 3.12595L36.8665 29.323L33.3309 32.8585L7.13393 6.66148Z" fill="#DD2033"/>
<path d="M6 35H10.0017L10.0017 8.99997H36V5L6 5L6 35Z" fill="#F5F7F8"/>
<path d="M0 35.0001H6.00171L6.00171 4.99996H36.0017V4.58956e-06L1.90735e-06 0L0 35.0001Z" fill="#DD2033"/>
</g>
</g>
</svg>
