<svg width="72" height="50" viewBox="0 0 72 50" fill="none" xmlns="http://www.w3.org/2000/svg">
<mask id="mask0_784_2762" style="mask-type:alpha" maskUnits="userSpaceOnUse" x="0" y="0" width="72" height="50">
<rect width="72" height="50" fill="#D9D9D9"/>
</mask>
<g mask="url(#mask0_784_2762)">
<rect width="72" height="50" fill="#DD2033"/>
<rect y="42" width="34" height="72" transform="rotate(-90 0 42)" fill="#F5F7F8"/>
<mask id="mask1_784_2762" style="mask-type:alpha" maskUnits="userSpaceOnUse" x="21" y="10" width="30" height="30">
<circle cx="36" cy="25" r="15" fill="#D9D9D9"/>
</mask>
<g mask="url(#mask1_784_2762)">
<path d="M32.2493 26.6364C33.1867 25.8182 34.1242 25 35.999 25C37.8741 25 38.8116 25.8182 39.7492 26.6364C40.6867 27.4546 41.6243 28.2728 43.4995 28.2728C45.3747 28.2728 46.3123 27.4546 47.2499 26.6364C48.1874 25.8182 49.125 25 51 25V30.7272C49.1248 30.7272 48.1873 31.5454 47.2498 32.3636C46.3122 33.1818 45.3747 34 43.4995 34C41.6243 34 40.6867 33.1818 39.7492 32.3636C38.8116 31.5454 37.8741 30.7272 35.999 30.7272C34.1242 30.7272 33.1867 31.5454 32.2493 32.3636C31.3118 33.1818 30.3744 34 28.4995 34C26.6246 34 25.6872 33.1818 24.7498 32.3636C23.8123 31.5454 22.8749 30.7272 21 30.7272V25C22.8749 25 23.8123 25.8182 24.7498 26.6364C25.6872 27.4546 26.6246 28.2728 28.4995 28.2728C30.3744 28.2728 31.3118 27.4546 32.2493 26.6364Z" fill="#005EB8"/>
<path d="M32.2493 36.6364C33.1867 35.8182 34.1242 35 35.999 35C37.8741 35 38.8116 35.8182 39.7492 36.6364C40.6867 37.4546 41.6243 38.2728 43.4995 38.2728C45.3747 38.2728 46.3123 37.4546 47.2499 36.6364C48.1874 35.8182 49.125 35 51 35V40.7272C49.1248 40.7272 48.1873 41.5454 47.2498 42.3636C46.3122 43.1818 45.3747 44 43.4995 44C41.6243 44 40.6867 43.1818 39.7492 42.3636C38.8116 41.5454 37.8741 40.7272 35.999 40.7272C34.1242 40.7272 33.1867 41.5454 32.2493 42.3636C31.3118 43.1818 30.3744 44 28.4995 44C26.6246 44 25.6872 43.1818 24.7498 42.3636C23.8123 41.5454 22.8749 40.7272 21 40.7272V35C22.8749 35 23.8123 35.8182 24.7498 36.6364C25.6872 37.4546 26.6246 38.2728 28.4995 38.2728C30.3744 38.2728 31.3118 37.4546 32.2493 36.6364Z" fill="#005EB8"/>
<rect x="17" y="10" width="38" height="14" fill="#F1B434"/>
</g>
<path d="M38.2002 13H34.2002V25H38.2002V13Z" fill="#DD2033"/>
<path d="M31 25V19H27V25C27 28.866 30.134 32 34 32H38C41.866 32 45 28.866 45 25V19H41V25C41 26.6569 39.6569 28 38 28H34C32.3431 28 31 26.6569 31 25Z" fill="#DD2033"/>
</g>
</svg>
