<svg width="72" height="50" viewBox="0 0 72 50" fill="none" xmlns="http://www.w3.org/2000/svg">
<mask id="mask0_784_2771" style="mask-type:alpha" maskUnits="userSpaceOnUse" x="0" y="0" width="72" height="50">
<rect width="72" height="50" fill="#D9D9D9"/>
</mask>
<g mask="url(#mask0_784_2771)">
<path d="M72 50L5.62009e-06 50L0 9.7571e-07L72 0L72 50Z" fill="#DD2033"/>
<path d="M30.1509 51.1476L61.1671 50.4321L-0.149747 -10.8849L-0.149885 51.1476L30.1509 51.1476Z" fill="#31373D"/>
<path d="M15.9026 13.9796L15.0002 12L14.0977 13.9796L12.0597 13.4855L12.9724 15.4599L11.3335 16.8233L13.374 17.3057L13.3683 19.5L15.0002 18.1272L16.632 19.5L16.6263 17.3057L18.6668 16.8233L17.0279 15.4599L17.9407 13.4855L15.9026 13.9796Z" fill="#F5F7F8"/>
<path d="M7.66667 18L8.56909 19.9796L10.6072 19.4855L9.6944 21.4599L11.3333 22.8233L9.29281 23.3057L9.29847 25.5L7.66667 24.1272L6.0348 25.5L6.04052 23.3057L4 22.8233L5.63887 21.4599L4.72623 19.4855L6.76418 19.9796L7.66667 18Z" fill="#F5F7F8"/>
<path d="M12.8 36L13.8829 38.3756L16.3286 37.7826L15.2333 40.1519L17.2 41.788L14.7514 42.3669L14.7582 45L12.8 43.3526L10.8418 45L10.8486 42.3669L8.4 41.788L10.3666 40.1519L9.27147 37.7826L11.717 38.3756L12.8 36Z" fill="#F5F7F8"/>
<path d="M22.3333 19.5L23.2358 21.4796L25.2738 20.9855L24.3611 22.9599L26 24.3233L23.9595 24.8057L23.9651 27L22.3333 25.6272L20.7015 27L20.7072 24.8057L18.6667 24.3233L20.3055 22.9599L19.3929 20.9855L21.4308 21.4796L22.3333 19.5Z" fill="#F5F7F8"/>
<path d="M16.8335 31.5C17.846 31.5 18.6668 30.6605 18.6668 29.625C18.6668 28.5895 17.846 27.75 16.8335 27.75C15.821 27.75 15.0002 28.5895 15.0002 29.625C15.0002 30.6605 15.821 31.5 16.8335 31.5Z" fill="#F5F7F8"/>
<path d="M45.6649 9.37813C44.1767 8.28995 42.0882 8.61418 41 10.1023L46.6143 14.2077C45.8257 14.2938 45.0503 14.5917 44.377 15.1129C42.4333 16.6176 42.0774 19.4131 43.5822 21.3568L48.6457 17.4369C47.7197 19.2784 47.5937 21.5042 48.4913 23.5369C50.0853 27.1469 54.304 28.7811 57.9139 27.1871L54.838 20.2211L60.5354 24.3872C62.1475 25.566 62.4988 27.8286 61.3199 29.4408L61.1557 29.6653C60.0675 31.1535 57.979 31.4777 56.4909 30.3896L55.1773 32.1859C57.6576 33.9996 61.1384 33.4592 62.9521 30.9789L63.1163 30.7544C65.0206 28.1501 64.4532 24.4951 61.8489 22.5908L56.1256 18.4057L63.7332 19.2289C64.1577 15.3056 61.3214 11.781 57.398 11.3565C55.4624 11.147 53.6238 11.7313 52.2066 12.8483L54.6126 6.27218C52.3042 5.4276 49.7482 6.61428 48.9036 8.92272C48.5675 9.84137 48.5531 10.7992 48.803 11.6728L45.6649 9.37813Z" fill="#F1B434"/>
</g>
</svg>
