<svg width="72" height="50" viewBox="0 0 72 50" fill="none" xmlns="http://www.w3.org/2000/svg">
<mask id="mask0_784_2784" style="mask-type:alpha" maskUnits="userSpaceOnUse" x="0" y="0" width="72" height="50">
<rect width="72" height="50" fill="#D9D9D9"/>
</mask>
<g mask="url(#mask0_784_2784)">
<rect width="72" height="50" fill="#005B33"/>
<path d="M40.5251 15.2839L41.6593 8L46.2834 13.741L53.2957 12.7908L49.6056 19.0224L52.8055 25.7189L45.7572 23.2938L40.8658 28.9181L40.2888 21.5189L33.9772 17.9672L40.5251 15.2839Z" fill="#F5F7F8"/>
<path d="M40.8999 37.412C42.838 37.412 44.6981 37.0879 46.4257 36.4927C43.4921 40.1043 39.0156 42.4121 34 42.4121C25.1634 42.4121 18 35.2486 18 26.4121C18 19.7625 22.0564 14.0604 27.8296 11.6452C25.6791 14.3473 24.3999 17.7348 24.3999 21.412C24.3999 30.2485 31.7872 37.412 40.8999 37.412Z" fill="#F5F7F8"/>
</g>
</svg>
