<svg width="72" height="50" viewBox="0 0 72 50" fill="none" xmlns="http://www.w3.org/2000/svg">
<mask id="mask0_784_2839" style="mask-type:alpha" maskUnits="userSpaceOnUse" x="0" y="0" width="72" height="50">
<rect width="72" height="50" fill="#D9D9D9"/>
</mask>
<g mask="url(#mask0_784_2839)">
<rect x="0.000244141" y="50" width="16" height="72" transform="rotate(-90 0.000244141 50)" fill="#F5F7F8"/>
<rect x="0.000244141" y="34" width="18" height="72" transform="rotate(-90 0.000244141 34)" fill="#004692"/>
<rect y="16" width="16" height="72" transform="rotate(-90 0 16)" fill="#DD2033"/>
<path d="M11 16.0002H36V29.3209C36 35.1187 32.4893 40.3391 27.1198 42.526C24.7992 43.4711 22.2008 43.4711 19.8802 42.526C14.5107 40.3391 11 35.1187 11 29.3209V16.0002Z" fill="#DD2033"/>
<path d="M30.574 20.4107C29.6022 20.3435 28.1753 20.4882 27.0657 21.0468C26.0657 21.5502 25.3685 22.3365 25.3685 23.8103V24.3167L34.2164 21.9195C34.5452 23.1601 33.8074 24.4379 32.5687 24.7735L25.3685 26.7243V27.3258L34.4049 24.8775C34.7336 26.1182 33.9959 27.396 32.7571 27.7316L25.6202 29.6652L26.093 30.1393L34.0382 27.9867C34.3669 29.2273 33.6292 30.5051 32.3904 30.8407L27.9835 32.0347L31.8879 35.9492L29.4931 38.3502L25.271 34.1171L27.0615 38.6048L23.6749 42L20.2882 38.6047L22.0739 34.1288L17.8441 38.3696L15.4493 35.9686L19.2972 32.1107L14.6097 30.8407C13.371 30.5051 12.6332 29.2273 12.962 27.9867L21.1878 30.2153L21.6606 29.7413L14.243 27.7316C13.0043 27.396 12.2665 26.1182 12.5953 24.8775L21.9687 27.4171V26.8156L14.4315 24.7735C13.1927 24.4379 12.455 23.1601 12.7838 21.9195L21.9687 24.408V23.8297C21.9687 22.3559 21.2716 21.5696 20.2715 21.0662C19.1619 20.5076 17.7351 20.3629 16.7632 20.4301L16.5302 17.0427C17.8968 16.9482 19.9777 17.1188 21.7911 18.0317C22.4687 18.3727 23.1112 18.8221 23.6593 19.392C24.2115 18.8129 24.8609 18.3572 25.5461 18.0123C27.3596 17.0994 29.4405 16.9288 30.807 17.0233L30.574 20.4107Z" fill="#F5F7F8"/>
<path d="M19 24.0002H28V29.6281C28 31.6787 26.7924 33.537 24.9185 34.3698C24.0154 34.7712 22.9846 34.7712 22.0815 34.3698C20.2076 33.537 19 31.6787 19 29.6281V24.0002Z" fill="#DD2033"/>
<path fill-rule="evenodd" clip-rule="evenodd" d="M25 0.571777H23V2.00024L21 2.00024V4.00024H23V5.72345C22.1828 5.17643 21.2001 4.85742 20.1429 4.85742C17.3025 4.85742 15 7.15996 15 10.0003C15 11.5234 15.6621 12.8919 16.7143 13.8336V16.0003H31.2857V13.8336C32.3379 12.8919 33 11.5234 33 10.0003C33 7.15996 30.6975 4.85742 27.8572 4.85742C26.7999 4.85742 25.8172 5.17644 25 5.72346V4.00024H27V2.00024L25 2.00024V0.571777ZM24 13.402L23.9762 13.4288H24.0238L24 13.402ZM20.1525 12.5718L20.1428 12.5718C18.7227 12.5718 17.5714 11.4205 17.5714 10.0004C17.5714 8.58022 18.7227 7.42896 20.1428 7.42896C21.563 7.42896 22.7143 8.58021 22.7143 10.0004V12.5718H20.1525ZM30.4286 10.0004C30.4286 11.4205 29.2773 12.5718 27.8571 12.5718L27.8475 12.5718H25.2857V10.0004C25.2857 8.58021 26.437 7.42896 27.8571 7.42896C29.2773 7.42896 30.4286 8.58022 30.4286 10.0004Z" fill="#F1B434"/>
<path d="M24.7998 24.0002H22.7998V28.0002H19V30.0002H22.7998V35.0002H24.7998V30.0002H28V28.0002H24.7998V24.0002Z" fill="#F5F7F8"/>
</g>
</svg>
