<svg width="72" height="50" viewBox="0 0 72 50" fill="none" xmlns="http://www.w3.org/2000/svg">
<mask id="mask0_784_2882" style="mask-type:alpha" maskUnits="userSpaceOnUse" x="0" y="0" width="72" height="50">
<rect width="72" height="50" fill="#D9D9D9"/>
</mask>
<g mask="url(#mask0_784_2882)">
<rect width="72" height="50" fill="#005B33"/>
<path d="M13.4717 19.1509C13.4717 21.0653 11.9143 22.6226 10 22.6226V27.8301C14.7858 27.8301 18.6792 23.9366 18.6792 19.1509V7H13.4717V19.1509Z" fill="#F5F7F8"/>
<path d="M50.7923 7V19.1509C50.7923 21.0653 49.235 22.6226 47.3206 22.6226V27.8301C52.1064 27.8301 55.9998 23.9366 55.9998 19.1509V7H50.7923Z" fill="#F5F7F8"/>
<path d="M48.1885 7H42.981V19.1509H48.1885V7Z" fill="#F5F7F8"/>
<path d="M35.1697 13.9434C35.1697 14.4221 34.7803 14.8113 34.3018 14.8113C33.8234 14.8113 33.4339 14.4219 33.4339 13.9434V7H28.2264V13.9434C28.2264 14.4221 27.837 14.8113 27.3586 14.8113C26.8801 14.8113 26.4907 14.4219 26.4907 13.9434V7H21.283V13.9434C21.283 17.2935 24.0085 20.019 27.3586 20.019C28.6488 20.019 29.8453 19.6135 30.8303 18.9248C31.8151 19.6133 33.0118 20.019 34.302 20.019C34.5618 20.019 34.8173 20.0007 35.0685 19.9688C34.6995 21.4892 33.3302 22.6226 31.6982 22.6226V27.8301C36.484 27.8301 40.3774 23.9366 40.3774 19.1509V7H35.1699L35.1697 13.9434Z" fill="#F5F7F8"/>
<path d="M29.0943 22.6229H21.283V27.8304H29.0943V22.6229Z" fill="#F5F7F8"/>
<path d="M48.1438 38H53V41H48.1438C47.5261 42.7478 45.8592 44 43.8999 44C41.9406 44 40.2737 42.7478 39.656 41H15V38H39.656C40.2737 36.2522 41.9406 35 43.8999 35C45.8592 35 47.5261 36.2522 48.1438 38Z" fill="#F5F7F8"/>
</g>
</svg>
