<svg width="72" height="50" viewBox="0 0 72 50" fill="none" xmlns="http://www.w3.org/2000/svg">
<mask id="mask0_784_2886" style="mask-type:alpha" maskUnits="userSpaceOnUse" x="0" y="0" width="72" height="50">
<rect width="72" height="50" fill="#D9D9D9"/>
</mask>
<g mask="url(#mask0_784_2886)">
<rect y="-11" width="72" height="72" fill="#004692"/>
<path d="M72 50V20.5L20 50H72Z" fill="#009B77"/>
<rect width="5.99999" height="72" transform="matrix(-0.498476 -0.866903 -0.866903 0.498476 81.408 19.2014)" fill="#FBD381"/>
<path d="M30.8572 3L29.3242 6.48346L25.7143 6.94696L28.3769 9.56347L27.6786 13.3333L30.8571 11.1806L34.0357 13.3333L33.3374 9.56347L36 6.94696L32.3901 6.48346L30.8572 3Z" fill="#F5F7F8"/>
<path d="M30.8572 23.6667L29.3242 27.1501L25.7143 27.6136L28.3769 30.2301L27.6786 34L30.8571 31.8472L34.0357 34L33.3374 30.2301L36 27.6136L32.3901 27.1501L30.8572 23.6667Z" fill="#F5F7F8"/>
<path d="M19.8956 16.8168L21.4286 13.3333L22.9615 16.8168L26.5714 17.2803L23.9088 19.8968L24.6071 23.6667L21.4286 21.5139L18.2501 23.6667L18.9483 19.8968L16.2857 17.2803L19.8956 16.8168Z" fill="#F5F7F8"/>
<path d="M11.1429 23.6667L9.60993 27.1501L6 27.6136L8.66259 30.2301L7.96434 34L11.1429 31.8472L14.3214 34L13.6231 30.2301L16.2857 27.6136L12.6758 27.1501L11.1429 23.6667Z" fill="#F5F7F8"/>
<path d="M9.60993 6.48346L11.1429 3L12.6758 6.48346L16.2857 6.94696L13.6231 9.56347L14.3214 13.3333L11.1429 11.1806L7.96434 13.3333L8.66259 9.56347L6 6.94696L9.60993 6.48346Z" fill="#F5F7F8"/>
</g>
</svg>
