<svg width="72" height="50" viewBox="0 0 72 50" fill="none" xmlns="http://www.w3.org/2000/svg">
<mask id="mask0_784_2909" style="mask-type:alpha" maskUnits="userSpaceOnUse" x="0" y="0" width="72" height="50">
<rect width="72" height="50" fill="#D9D9D9"/>
</mask>
<g mask="url(#mask0_784_2909)">
<rect x="72" width="28" height="72" transform="rotate(90 72 0)" fill="#DD2033"/>
<rect x="72" y="28" width="22" height="72" transform="rotate(90 72 28)" fill="#F5F7F8"/>
<path d="M22.3826 23.3325C23.4479 24.1836 24.6127 24.8223 25.8237 25.2538C22.6252 25.9507 19.1513 25.2534 16.3945 23.0509C11.5376 19.1705 10.7459 12.0876 14.6263 7.23065C17.5462 3.57587 22.2796 2.22302 26.5133 3.43061C24.1448 3.97148 21.9543 5.27159 20.3396 7.29265C16.4592 12.1496 17.3739 19.3308 22.3826 23.3325Z" fill="#F5F7F8"/>
<path d="M35.4078 5.81117L36.6001 3.11429L37.7924 5.81117L40.6001 6.17L38.5292 8.19569L39.0723 11.1143L36.6001 9.44763L34.1279 11.1143L34.671 8.19569L32.6001 6.17L35.4078 5.81117Z" fill="#F5F7F8"/>
<path d="M27.4078 11.8112L28.6001 9.11429L29.7924 11.8112L32.6001 12.17L30.5292 14.1957L31.0723 17.1143L28.6001 15.4476L26.1279 17.1143L26.671 14.1957L24.6001 12.17L27.4078 11.8112Z" fill="#F5F7F8"/>
<path d="M44.6001 9.1143L43.4078 11.8112L40.6001 12.17L42.671 14.1957L42.1279 17.1143L44.6001 15.4476L47.0723 17.1143L46.5292 14.1957L48.6001 12.17L45.7924 11.8112L44.6001 9.1143Z" fill="#F5F7F8"/>
<path d="M30.4078 20.8112L31.6001 18.1143L32.7924 20.8112L35.6001 21.17L33.5292 23.1957L34.0723 26.1143L31.6001 24.4476L29.1279 26.1143L29.671 23.1957L27.6001 21.17L30.4078 20.8112Z" fill="#F5F7F8"/>
<path d="M41.6001 18.1143L40.4078 20.8112L37.6001 21.17L39.671 23.1957L39.1279 26.1143L41.6001 24.4476L44.0723 26.1143L43.5292 23.1957L45.6001 21.17L42.7924 20.8112L41.6001 18.1143Z" fill="#F5F7F8"/>
</g>
</svg>
