<svg width="72" height="50" viewBox="0 0 72 50" fill="none" xmlns="http://www.w3.org/2000/svg">
<mask id="mask0_784_2914" style="mask-type:alpha" maskUnits="userSpaceOnUse" x="0" y="0" width="72" height="50">
<rect width="72" height="50" fill="#D9D9D9"/>
</mask>
<g mask="url(#mask0_784_2914)">
<rect width="72" height="50" fill="#004692"/>
<mask id="mask1_784_2914" style="mask-type:alpha" maskUnits="userSpaceOnUse" x="0" y="0" width="36" height="30">
<path d="M0 30L-1.31134e-06 0L36 -1.57361e-06L36 30L0 30Z" fill="#002F6C"/>
</mask>
<g mask="url(#mask1_784_2914)">
<rect width="36" height="36" fill="#004692"/>
<path d="M12.7908 1.00463L10.6695 3.12595L36.8665 29.323L38.9878 27.2017L12.7908 1.00463Z" fill="#F5F7F8"/>
<path d="M7.13393 6.66148L3.59839 10.197L29.7954 36.394L33.3309 32.8585L7.13393 6.66148Z" fill="#F5F7F8"/>
<path d="M7.13393 6.66148L10.6695 3.12595L36.8665 29.323L33.3309 32.8585L7.13393 6.66148Z" fill="#DD2033"/>
<path d="M6 35H10.0017L10.0017 8.99997H36V5L6 5L6 35Z" fill="#F5F7F8"/>
<path d="M0 35.0001H6.00171L6.00171 4.99996H36.0017V4.58956e-06L1.90735e-06 0L0 35.0001Z" fill="#DD2033"/>
</g>
<path d="M44 20H65V28.7432C65 34.8265 61.2916 40.2951 55.6401 42.546L54.5 43L53.3599 42.546C47.7084 40.2951 44 34.8265 44 28.7432V20Z" fill="#F1B434"/>
<circle cx="54.5" cy="23.5" r="2.5" fill="#FDEFD3"/>
<mask id="mask2_784_2914" style="mask-type:alpha" maskUnits="userSpaceOnUse" x="44" y="27" width="21" height="16">
<rect x="44" y="27" width="21" height="16" fill="#D9D9D9"/>
</mask>
<g mask="url(#mask2_784_2914)">
<path d="M44 20H65V28.7432C65 34.8265 61.2916 40.2951 55.6401 42.546L54.5 43L53.3599 42.546C47.7084 40.2951 44 34.8265 44 28.7432V20Z" fill="#86C5FA"/>
<rect x="44" y="27" width="21" height="2" fill="#31373D"/>
</g>
<mask id="mask3_784_2914" style="mask-type:alpha" maskUnits="userSpaceOnUse" x="44" y="20" width="21" height="23">
<path d="M44 20H65V28.7432C65 34.8265 61.2916 40.2951 55.6401 42.546L54.5 43L53.3599 42.546C47.7084 40.2951 44 34.8265 44 28.7432V20Z" fill="#F1B434"/>
</mask>
<g mask="url(#mask3_784_2914)">
<path d="M54.4993 35C51.8745 35 51.8745 37.1819 49.2497 37.1819C46.6248 37.1819 46.6248 35 44 35V38.8181C46.6248 38.8181 46.6248 41 49.2497 41C51.8745 41 51.8745 38.8181 54.4993 38.8181C57.1244 38.8181 57.1244 41 59.7497 41C62.3749 41 62.3748 38.8181 65 38.8181V35C62.3749 35 62.3749 37.1819 59.7497 37.1819C57.1244 37.1819 57.1244 35 54.4993 35Z" fill="#F5F7F8"/>
</g>
<path d="M55 30H53V32L51 32V34H53V38H55V34H57V32L55 32V30Z" fill="#936846"/>
<path d="M54.5 40.5C56.9853 40.5 59 38.4853 59 36H50C50 38.4853 52.0147 40.5 54.5 40.5Z" fill="#31373D"/>
</g>
</svg>
