<svg width="72" height="50" viewBox="0 0 72 50" fill="none" xmlns="http://www.w3.org/2000/svg">
<mask id="mask0_784_2937" style="mask-type:alpha" maskUnits="userSpaceOnUse" x="0" y="0" width="72" height="50">
<rect width="72" height="50" fill="#D9D9D9"/>
</mask>
<g mask="url(#mask0_784_2937)">
<rect y="50" width="16" height="72" transform="rotate(-90 0 50)" fill="#DD2033"/>
<rect x="0.000244141" y="34" width="18" height="72" transform="rotate(-90 0.000244141 34)" fill="#005EB8"/>
<rect y="16" width="16" height="72" transform="rotate(-90 0 16)" fill="#F5F7F8"/>
<path d="M15 4H35V11.9412C35 18.0164 31.3013 23.4795 25.6607 25.7357L25 26L24.3393 25.7357C18.6987 23.4795 15 18.0164 15 11.9412V4Z" fill="#005EB8"/>
<mask id="mask1_784_2937" style="mask-type:alpha" maskUnits="userSpaceOnUse" x="15" y="4" width="20" height="22">
<path d="M15 4H35V11.9412C35 18.0164 31.3013 23.4795 25.6607 25.7357L25 26L24.3393 25.7357C18.6987 23.4795 15 18.0164 15 11.9412V4Z" fill="#2F80ED"/>
</mask>
<g mask="url(#mask1_784_2937)">
<path d="M29.0588 14.6806L25.2003 9L21.3418 14.6806L20.2003 13L11.54 25.75H23V26H28V25.75H38.8605L30.2003 13L29.0588 14.6806Z" fill="#F5F7F8"/>
</g>
</g>
</svg>
