<svg width="72" height="50" viewBox="0 0 72 50" fill="none" xmlns="http://www.w3.org/2000/svg">
<mask id="mask0_784_2951" style="mask-type:alpha" maskUnits="userSpaceOnUse" x="0" y="0" width="72" height="50">
<rect width="72" height="50" fill="#D9D9D9"/>
</mask>
<g mask="url(#mask0_784_2951)">
<rect y="50" width="16" height="72" transform="rotate(-90 0 50)" fill="#DD2033"/>
<rect x="0.000244141" y="34" width="18" height="72" transform="rotate(-90 0.000244141 34)" fill="#005EB8"/>
<rect y="16" width="16" height="72" transform="rotate(-90 0 16)" fill="#F5F7F8"/>
<path d="M11.8 8H44.8V37.4545L28.3 44L11.8 37.4545V8Z" fill="#DD2033"/>
<mask id="mask1_784_2951" style="mask-type:alpha" maskUnits="userSpaceOnUse" x="11" y="8" width="34" height="36">
<path d="M11.8 8H44.8V37.4545L28.3 44L11.8 37.4545V8Z" fill="#DD2033"/>
</mask>
<g mask="url(#mask1_784_2951)">
<path d="M27 11H30V14L34 14V17H30V20H37V23H30V29H27V23H20V20H27V17H23L23 14L27 14V11Z" fill="#F5F7F8"/>
<path d="M33.9332 52.4844C32.4334 54.6719 30.4609 56 28.3 56C26.1392 56 24.1667 54.6719 22.6669 52.4844C21.4073 54.6607 19.6912 56 17.8 56C13.9341 56 10.8 50.4036 10.8 43.5C10.8 36.5964 13.9341 31 17.8 31C19.2517 31 20.6002 31.7891 21.7183 33.1402C23.2771 30.0026 25.6466 28 28.3 28C30.9535 28 33.323 30.0026 34.8818 33.1402C35.9999 31.7891 37.3484 31 38.8 31C42.666 31 45.8 36.5964 45.8 43.5C45.8 50.4036 42.666 56 38.8 56C36.9089 56 35.1928 54.6607 33.9332 52.4844Z" fill="#005EB8"/>
</g>
<path fill-rule="evenodd" clip-rule="evenodd" d="M8.80005 5H47.8V27.3648C47.8 34.6853 43.3321 41.2643 36.5275 43.9636L28.3 47.2274L20.0725 43.9636C13.2679 41.2643 8.80005 34.6853 8.80005 27.3648V5ZM11.8 8V27.3648C11.8 33.4554 15.5173 38.9292 21.1788 41.175L28.3 44L35.4213 41.175C41.0828 38.9292 44.8 33.4554 44.8 27.3648V8H11.8Z" fill="#F5F7F8"/>
</g>
</svg>
