<svg width="72" height="50" viewBox="0 0 72 50" fill="none" xmlns="http://www.w3.org/2000/svg">
<mask id="mask0_784_2967" style="mask-type:alpha" maskUnits="userSpaceOnUse" x="0" y="0" width="72" height="50">
<rect width="72" height="50" fill="#D9D9D9"/>
</mask>
<g mask="url(#mask0_784_2967)">
<rect x="72" width="25" height="72" transform="rotate(90 72 0)" fill="#F5F7F8"/>
<rect x="72" y="25" width="25" height="72" transform="rotate(90 72 25)" fill="#86C5FA"/>
<path d="M25.661 21.2898C24.2454 23.2201 23.4143 25.5728 23.4143 28.1115C23.4143 33.9296 27.7795 38.7706 33.542 39.7898C33.4183 39.8682 33.3013 39.9613 33.1934 40.0692C32.4047 40.8579 32.4047 42.1366 33.1934 42.9254L35.9271 40.1916L38.6609 42.9254C39.4496 42.1366 39.4496 40.8579 38.6609 40.0692C38.5366 39.9449 38.4002 39.8402 38.2554 39.7551C43.9246 38.6649 48.1951 33.8662 48.1951 28.1115C48.1951 25.5727 47.364 23.2201 45.9483 21.2898L43.2415 23.5106C44.1359 24.8359 44.6551 26.4156 44.6551 28.1115C44.6551 32.7964 40.6927 36.5943 35.8049 36.5943C30.917 36.5943 26.9546 32.7964 26.9546 28.1115C26.9546 26.4157 27.4738 24.8361 28.3681 23.5108L25.661 21.2898Z" fill="#009B77"/>
<path d="M28.9536 21.0981C28.9536 19.7174 30.0729 18.5981 31.4536 18.5981L40.2839 18.5981C41.6647 18.5981 42.7839 19.7174 42.7839 21.0981L42.7839 22.9292C42.7839 27.5672 40.0617 31.7518 35.8688 33.6473C31.6758 31.7518 28.9536 27.5672 28.9536 22.9292L28.9536 21.0981Z" fill="#86C5FA" stroke="#F1B434" stroke-width="3"/>
<path d="M32.8393 33.2553C33.4762 33.2553 34.0614 33.0343 34.5224 32.6647C34.9834 33.0343 35.5686 33.2553 36.2054 33.2553C36.6959 33.2553 37.1557 33.1242 37.5518 32.8951C37.9479 33.1242 38.4078 33.2553 38.8983 33.2553C40.3855 33.2553 41.5911 32.0497 41.5911 30.5625C41.5911 29.0753 40.3855 27.8696 38.8983 27.8696C38.4078 27.8696 37.9479 28.0008 37.5518 28.2299C37.1557 28.0008 36.6959 27.8696 36.2054 27.8696C35.5686 27.8696 34.9834 28.0907 34.5224 28.4602C34.0614 28.0907 33.4762 27.8696 32.8393 27.8696C31.3521 27.8696 30.1465 29.0753 30.1465 30.5625C30.1465 32.0497 31.3521 33.2553 32.8393 33.2553Z" fill="#008259"/>
<path fill-rule="evenodd" clip-rule="evenodd" d="M41.5911 19.1178L30.1465 19.1178C29.7747 19.1178 29.4733 19.4192 29.4733 19.791L29.4733 25.1524C29.4733 28.4347 31.4825 31.3825 34.5377 32.5823L35.8688 33.1051L37.1999 32.5823C40.255 31.3825 42.2643 28.4347 42.2643 25.1524L42.2643 19.791C42.2643 19.4192 41.9629 19.1178 41.5911 19.1178ZM35.8688 35.2749L37.9381 34.4622C41.7663 32.9588 44.2839 29.2652 44.2839 25.1524L44.2839 19.791C44.2839 18.3038 43.0783 17.0981 41.5911 17.0981L30.1465 17.0981C28.6592 17.0981 27.4536 18.3038 27.4536 19.791L27.4536 25.1524C27.4536 29.2652 29.9712 32.9588 33.7994 34.4622L35.8688 35.2749Z" fill="#F1B434"/>
<path d="M26.7804 37.9678H45.6304V39.3142H46.9768V43.3535H40.2447V42.0071H32.1661V43.3535H25.434V39.3142H26.7804V37.9678Z" fill="#F5F7F8"/>
<path fill-rule="evenodd" clip-rule="evenodd" d="M36.2054 7H34.859V7.96166L33.5125 7.96166V9.30809H34.859V10.4682C34.3088 10.0999 33.6472 9.88515 32.9355 9.88515C31.0234 9.88515 29.4733 11.4353 29.4733 13.3474C29.4733 14.3728 29.919 15.294 30.6273 15.928V17.3867H40.437V15.928C41.1453 15.2941 41.5911 14.3728 41.5911 13.3474C41.5911 11.4353 40.041 9.88515 38.1288 9.88515C37.4171 9.88515 36.7555 10.0999 36.2054 10.4682V9.30809H37.5518V7.96166L36.2054 7.96166V7ZM35.5322 15.6375L35.5162 15.6555H35.5482L35.5322 15.6375ZM32.942 15.0786L32.9355 15.0786C31.9794 15.0786 31.2044 14.3035 31.2044 13.3475C31.2044 12.3914 31.9794 11.6163 32.9355 11.6163C33.8916 11.6163 34.6666 12.3914 34.6666 13.3475L34.6666 13.3539V15.0786H32.942ZM39.86 13.3475C39.86 14.3035 39.085 15.0786 38.1289 15.0786L38.1224 15.0786H36.3978V13.3475C36.3978 12.3914 37.1728 11.6163 38.1289 11.6163C39.085 11.6163 39.86 12.3914 39.86 13.3475Z" fill="#F1B434"/>
</g>
</svg>
