<svg width="72" height="50" viewBox="0 0 72 50" fill="none" xmlns="http://www.w3.org/2000/svg">
<mask id="mask0_784_3033" style="mask-type:alpha" maskUnits="userSpaceOnUse" x="0" y="0" width="72" height="50">
<rect width="72" height="50" fill="#D9D9D9"/>
</mask>
<g mask="url(#mask0_784_3033)">
<rect width="72" height="50" fill="#005EB8"/>
<rect y="45" width="40" height="72" transform="rotate(-90 0 45)" fill="#F1B434"/>
<rect y="41" width="32" height="72" transform="rotate(-90 0 41)" fill="#A00009"/>
<path d="M10.6001 21L10.6001 18L56.6001 18V21L10.6001 21Z" fill="#F1B434"/>
<path d="M18.6001 27V24L64.6001 24V27L18.6001 27Z" fill="#F1B434"/>
<path d="M7.6001 31V34L53.6001 34V31L7.6001 31Z" fill="#F1B434"/>
<path d="M58 25.103L56.5072 26.9015C51.1161 33.3965 45.7598 36.9602 40.5551 38.3349C35.2987 39.7234 30.5954 38.7742 26.7826 36.9805C23.0223 35.2116 20.0777 32.6054 18.1104 30.5201C17.1158 29.4658 16.3434 28.5151 15.8143 27.8204C15.5493 27.4724 15.3438 27.1866 15.2007 26.9818L14.9593 26.6261L14 25.1454L14.9239 23.6444L15.1583 23.2815C15.2974 23.0726 15.4972 22.781 15.7554 22.4258C16.2706 21.7171 17.0246 20.7468 17.999 19.6706C19.9254 17.5429 22.8243 14.8778 26.5631 13.0673C30.3604 11.2284 35.0638 10.2605 40.3546 11.6779C45.5819 13.0782 50.9952 16.7035 56.5029 23.3078L58 25.103Z" fill="#31373D"/>
<path fill-rule="evenodd" clip-rule="evenodd" d="M36.0218 36.0943L32.6001 32.9998L37.0232 28.9998L32.6001 24.9998L37.0232 20.9998L32.6001 16.9998L36.0133 13.9131C41.2724 14.1558 47.4143 17.0718 54.1154 25.1071C47.485 33.0951 41.3245 35.9247 36.0218 36.0943ZM41.6001 20.9999H39.6001V28.9999H41.6001V20.9999ZM45.6001 20.9999H43.6001V28.9999H45.6001V20.9999Z" fill="#F5F7F8"/>
<path d="M23.6001 20.9999H25.6001V28.9999H23.6001V20.9999Z" fill="#F5F7F8"/>
<path d="M27.6001 20.9999H29.6001V28.9999H27.6001V20.9999Z" fill="#F5F7F8"/>
</g>
</svg>
