<svg width="72" height="50" viewBox="0 0 72 50" fill="none" xmlns="http://www.w3.org/2000/svg">
<mask id="mask0_784_3061" style="mask-type:alpha" maskUnits="userSpaceOnUse" x="0" y="0" width="72" height="50">
<rect width="72" height="50" fill="#D9D9D9"/>
</mask>
<g mask="url(#mask0_784_3061)">
<rect y="-11" width="72" height="72" fill="#004692"/>
<rect y="-9" width="35" height="38" fill="#F5F7F8"/>
<rect width="11" height="27" transform="matrix(1 1.31134e-07 6.55671e-08 -1 0 27)" fill="#004692"/>
<rect width="11" height="27" transform="matrix(1 1.31134e-07 6.55671e-08 -1 22 27)" fill="#DD2033"/>
<path d="M42.579 19L41.2141 22.1207L38 22.5359L40.3706 24.8799L39.749 28.2571L42.5789 26.3286L45.4089 28.2571L44.7873 24.8799L47.1579 22.5359L43.9438 22.1207L42.579 19Z" fill="#F5F7F8"/>
<path fill-rule="evenodd" clip-rule="evenodd" d="M47.7403 19L49.5444 21.9652H54.6991V32.3071L50.8331 26.0875L45.6316 34.6214H48.1621L48.6727 33.6813H52.987L54.9451 37.2973H57.6865L59.6446 33.6813H63.9589L64.4695 34.6214H67L61.7985 26.0875L57.9325 32.3071V26.5938H60.2521L61.9742 23.7732H57.9325V21.9652H63.0871L64.8913 19H47.7403ZM51.8905 31.6563L50.8331 29.7036L49.7725 31.6563H51.8905ZM62.859 31.6563H60.7411L61.7985 29.7036L62.859 31.6563Z" fill="#F5F7F8"/>
<path d="M45.7931 39.8635L47.1579 36.7429L48.5227 39.8635L51.7368 40.2787L49.3662 42.6228L49.9879 46L47.1579 44.0714L44.3279 46L44.9496 42.6228L42.5789 40.2787L45.7931 39.8635Z" fill="#F5F7F8"/>
</g>
</svg>
