<svg width="72" height="50" viewBox="0 0 72 50" fill="none" xmlns="http://www.w3.org/2000/svg">
<mask id="mask0_784_3080" style="mask-type:alpha" maskUnits="userSpaceOnUse" x="0" y="0" width="72" height="50">
<rect width="72" height="50" fill="#D9D9D9"/>
</mask>
<g mask="url(#mask0_784_3080)">
<rect y="50" width="16" height="72" transform="rotate(-90 0 50)" fill="#008259"/>
<rect x="0.000244141" y="34" width="18" height="72" transform="rotate(-90 0.000244141 34)" fill="#F5F7F8"/>
<rect y="16" width="16" height="72" transform="rotate(-90 0 16)" fill="#DD2033"/>
<path d="M33.9765 13.3711L35.4668 10L36.9571 13.3711L40.4668 13.8196L37.8782 16.3517L38.557 20L35.4668 17.9167L32.3766 20L33.0554 16.3517L30.4668 13.8196L33.9765 13.3711Z" fill="#F1B434"/>
<path d="M35.5 26L40.6429 31.1429L43.5 29L47.5 32L46.3293 38H24.6707L23.5 32L27.5 29L30.3571 31.1429L35.5 26Z" fill="#F1B434"/>
<path d="M18.1319 15.9042L18.8447 19.5205L16.227 21.901L19.7998 22.4904L21.3363 25.8682L22.6727 22.3892L26.399 22.3233L23.7504 19.7242L24.4185 16.1652L21.2863 17.8108L18.1319 15.9042Z" fill="#F1B434"/>
<path d="M12.5097 29.3711L14 26L15.4903 29.3711L19 29.8196L16.4114 32.3517L17.0902 36L14 33.9167L10.9098 36L11.5886 32.3517L9 29.8196L12.5097 29.3711Z" fill="#F1B434"/>
<path d="M58 26L56.5097 29.3711L53 29.8196L55.5886 32.3517L54.9098 36L58 33.9167L61.0902 36L60.4114 32.3517L63 29.8196L59.4903 29.3711L58 26Z" fill="#F1B434"/>
<path d="M49.7135 17.8109L52.8679 15.9043L52.1551 19.5205L54.7728 21.901L51.1999 22.4904L49.6635 25.8682L48.3271 22.3892L44.6008 22.3233L47.2494 19.7242L46.5813 16.1652L49.7135 17.8109Z" fill="#F1B434"/>
</g>
</svg>
