<svg width="72" height="50" viewBox="0 0 72 50" fill="none" xmlns="http://www.w3.org/2000/svg">
<mask id="mask0_784_3086" style="mask-type:alpha" maskUnits="userSpaceOnUse" x="0" y="0" width="72" height="50">
<rect width="72" height="50" fill="#D9D9D9"/>
</mask>
<g mask="url(#mask0_784_3086)">
<rect y="-11" width="72" height="72" fill="#004692"/>
<path d="M17.5926 26.7317L15.8925 30.5304L11.8889 31.0358L14.8418 33.889L14.0674 38L17.5926 35.6524L21.1177 38L20.3433 33.889L23.2963 31.0358L19.2927 30.5304L17.5926 26.7317Z" fill="#F5F7F8"/>
<path d="M11.0741 14.6585L9.85972 17.3719L7 17.7329L9.10926 19.7709L8.55611 22.7073L11.0741 21.0305L13.592 22.7073L13.0389 19.7709L15.1481 17.7329L12.2884 17.3719L11.0741 14.6585Z" fill="#F5F7F8"/>
<path d="M17.5926 5L16.3782 7.71332L13.5185 8.07434L15.6278 10.1124L15.0746 13.0488L17.5926 11.372L20.1106 13.0488L19.5574 10.1124L21.6667 8.07434L18.8069 7.71332L17.5926 5Z" fill="#F5F7F8"/>
<path d="M24.9259 13.0488L23.7116 15.7621L20.8519 16.1231L22.9611 18.1612L22.408 21.0976L24.9259 19.4207L27.4439 21.0976L26.8907 18.1612L29 16.1231L26.1403 15.7621L24.9259 13.0488Z" fill="#F5F7F8"/>
<path d="M27 37H65V43H27V37Z" fill="#F1B434"/>
<path d="M65 34H27C40.376 18.6737 57.9067 8.94737 65 6C65 6 58.4636 14.6704 58.7998 21C59.0982 26.6167 65 34 65 34Z" fill="#F1B434"/>
</g>
</svg>
