<svg width="72" height="50" viewBox="0 0 72 50" fill="none" xmlns="http://www.w3.org/2000/svg">
<mask id="mask0_784_3097" style="mask-type:alpha" maskUnits="userSpaceOnUse" x="0" y="0" width="72" height="50">
<rect width="72" height="50" fill="#D9D9D9"/>
</mask>
<g mask="url(#mask0_784_3097)">
<rect width="72" height="50" fill="#009B77"/>
<path d="M42.1058 7.02266L43 5L43.8942 7.02266L46 7.29178L44.4468 8.81105L44.8541 11L43 9.75L41.1459 11L41.5532 8.81105L40 7.29178L42.1058 7.02266Z" fill="#F5F7F8"/>
<path d="M50.1058 12.0227L51 10L51.8942 12.0227L54 12.2918L52.4468 13.811L52.8541 16L51 14.75L49.1459 16L49.5532 13.811L48 12.2918L50.1058 12.0227Z" fill="#F5F7F8"/>
<path d="M42.1058 16.0227L43 14L43.8942 16.0227L46 16.2918L44.4468 17.811L44.8541 20L43 18.75L41.1459 20L41.5532 17.811L40 16.2918L42.1058 16.0227Z" fill="#F5F7F8"/>
<path d="M35 18L34.1058 20.0227L32 20.2918L33.5532 21.811L33.1459 24L35 22.75L36.8541 24L36.4468 21.811L38 20.2918L35.8942 20.0227L35 18Z" fill="#F5F7F8"/>
<path d="M43 23L42.1058 25.0227L40 25.2918L41.5532 26.811L41.1459 29L43 27.75L44.8541 29L44.4468 26.811L46 25.2918L43.8942 25.0227L43 23Z" fill="#F5F7F8"/>
<path d="M59.6885 16.5861C58.9331 12.2101 56.3443 8.62516 52.8825 6.53129C58.6693 7.78217 63.4015 12.4241 64.4705 18.6166C65.8764 26.7603 60.4142 34.5018 52.2705 35.9076C47.0995 36.8003 42.0908 34.924 38.7631 31.3504C41.5459 33.0648 44.9043 33.8107 48.3321 33.219C55.9625 31.9017 61.0469 24.455 59.6885 16.5861Z" fill="#F5F7F8"/>
<rect x="-0.199951" y="61" width="72" height="24" transform="rotate(-90 -0.199951 61)" fill="#DD2033"/>
<path d="M19.3 3L23.8 7.5V-1.5L19.3 3Z" fill="#E26E00"/>
<path d="M19.3 18.5L23.8 23V14L19.3 18.5Z" fill="#E26E00"/>
<path d="M4.30005 18.5L-0.199951 23V14L4.30005 18.5Z" fill="#E26E00"/>
<path d="M19.3 34L23.8 38.5V29.5L19.3 34Z" fill="#E26E00"/>
<path d="M4.30005 34L-0.199951 38.5V29.5L4.30005 34Z" fill="#E26E00"/>
<path d="M19.3 49.5L23.8 54V45L19.3 49.5Z" fill="#E26E00"/>
<path fill-rule="evenodd" clip-rule="evenodd" d="M14.9977 23H9.60239L7.80005 24.4419V27.5581L9.60239 29H14.9977L16.8 27.5581V24.4419L14.9977 23ZM16.05 20H8.55005L4.80005 23V29L8.55005 32H16.05L19.8 29V23L16.05 20Z" fill="#009B77"/>
<path fill-rule="evenodd" clip-rule="evenodd" d="M14.9977 38H9.60239L7.80005 39.4419V42.5581L9.60239 44H14.9977L16.8 42.5581V39.4419L14.9977 38ZM16.05 35H8.55005L4.80005 38V44L8.55005 47H16.05L19.8 44V38L16.05 35Z" fill="#009B77"/>
<path fill-rule="evenodd" clip-rule="evenodd" d="M14.9977 8H9.60239L7.80005 9.44188V12.5581L9.60239 14H14.9977L16.8 12.5581V9.44188L14.9977 8ZM16.05 5H8.55005L4.80005 8V14L8.55005 17H16.05L19.8 14V8L16.05 5Z" fill="#009B77"/>
<path fill-rule="evenodd" clip-rule="evenodd" d="M14.9977 -7H9.60239L7.80005 -5.55813V-2.44187L9.60239 -1H14.9977L16.8 -2.44187V-5.55813L14.9977 -7ZM16.05 -10H8.55005L4.80005 -7V-1L8.55005 2H16.05L19.8 -1V-7L16.05 -10Z" fill="#009B77"/>
<path fill-rule="evenodd" clip-rule="evenodd" d="M14.9977 53H9.60239L7.80005 54.4419V57.5581L9.60239 59H14.9977L16.8 57.5581V54.4419L14.9977 53ZM16.05 50H8.55005L4.80005 53V59L8.55005 62H16.05L19.8 59V53L16.05 50Z" fill="#009B77"/>
</g>
</svg>
