<svg width="72" height="50" viewBox="0 0 72 50" fill="none" xmlns="http://www.w3.org/2000/svg">
<mask id="mask0_784_3104" style="mask-type:alpha" maskUnits="userSpaceOnUse" x="0" y="0" width="72" height="50">
<rect width="72" height="50" fill="#D9D9D9"/>
</mask>
<g mask="url(#mask0_784_3104)">
<rect width="72" height="50" fill="#DD2033"/>
<path fill-rule="evenodd" clip-rule="evenodd" d="M36 46C47.598 46 57 36.598 57 25C57 13.402 47.598 4 36 4C24.402 4 15 13.402 15 25C15 36.598 24.402 46 36 46ZM39.8183 12.9814C43.4301 12.9814 46.6759 14.5842 48.9128 17.1324C46.2058 12.7602 41.4343 9.85742 36 9.85742C27.5651 9.85742 20.7273 16.8507 20.7273 25.4773C20.7273 34.1039 27.5651 41.0971 36 41.0971C41.4343 41.0971 46.2058 38.1943 48.9128 33.8222C46.6759 36.3703 43.4301 37.9731 39.8183 37.9731C33.0704 37.9731 27.6001 32.3785 27.6001 25.4773C27.6001 18.576 33.0704 12.9814 39.8183 12.9814ZM42.6989 21.341L48.474 19.0561L46.2398 24.9624L49.8762 29.7713L43.7931 29.7027L40.2656 34.9598L39.0695 28.6743L32.9236 27.451L38.064 23.8433L37.9968 17.622L42.6989 21.341Z" fill="#F5F7F8"/>
</g>
</svg>
