<svg width="72" height="50" viewBox="0 0 72 50" fill="none" xmlns="http://www.w3.org/2000/svg">
<mask id="mask0_784_3118" style="mask-type:alpha" maskUnits="userSpaceOnUse" x="0" y="0" width="72" height="50">
<rect width="72" height="50" fill="#D9D9D9"/>
</mask>
<g mask="url(#mask0_784_3118)">
<rect y="50" width="50" height="72" transform="rotate(-90 0 50)" fill="#DD2033"/>
<path d="M45.8936 16.6706L44.8728 23.2261L38.9797 25.6411L44.6601 28.8376L45.1794 35.497L49.5817 30.4351L55.9251 32.6176L53.0452 26.5908L56.3663 20.9823L50.0552 21.8375L45.8936 16.6706Z" fill="#F5F7F8"/>
<path d="M40.3487 14.5874C38.3911 13.3038 36.0497 12.5573 33.534 12.5573C26.6611 12.5573 21.0895 18.1289 21.0895 25.0017C21.0895 31.8746 26.6611 37.4462 33.534 37.4462C36.0468 37.4462 38.3857 36.7014 40.3419 35.4205C37.4076 38.8364 33.0566 41 28.2002 41C19.3636 41 12.2002 33.8366 12.2002 25C12.2002 16.1634 19.3636 9 28.2002 9C33.0603 9 37.4143 11.167 40.3487 14.5874Z" fill="#F5F7F8"/>
</g>
</svg>
