<svg width="72" height="50" viewBox="0 0 72 50" fill="none" xmlns="http://www.w3.org/2000/svg">
<mask id="mask0_784_3127" style="mask-type:alpha" maskUnits="userSpaceOnUse" x="0" y="0" width="72" height="50">
<rect width="72" height="50" fill="#D9D9D9"/>
</mask>
<g mask="url(#mask0_784_3127)">
<rect width="72" height="50" fill="#0091DA"/>
<path d="M58.8001 7L57.3097 10.3711L53.8 10.8196L56.3887 13.3517L55.7098 17L58.8 14.9167L61.8903 17L61.2114 13.3517L63.8 10.8196L60.2904 10.3711L58.8001 7Z" fill="#FBD381"/>
<path d="M46.3001 19.6699L46.6949 23.3345L43.8797 25.4778L47.3876 26.3763L48.6238 29.8752L50.2584 26.5259L53.9763 26.785L51.5642 23.965L52.54 20.4778L49.2763 21.8442L46.3001 19.6699Z" fill="#FBD381"/>
<path d="M63.8001 24L62.3097 27.3711L58.8 27.8196L61.3887 30.3517L60.7098 34L63.8 31.9167L66.8903 34L66.2114 30.3517L68.8 27.8196L65.2904 27.3711L63.8001 24Z" fill="#FBD381"/>
<path d="M51.506 32.1704L50.9389 35.8123L47.6649 37.1539L50.8207 38.9298L51.1092 42.6294L53.5549 39.8173L57.0791 41.0298L55.4791 37.6816L57.3242 34.5658L53.818 35.0409L51.506 32.1704Z" fill="#FBD381"/>
<path d="M38.8001 37L37.3097 40.3711L33.8 40.8196L36.3887 43.3517L35.7098 47L38.8 44.9167L41.8903 47L41.2114 43.3517L43.8 40.8196L40.2904 40.3711L38.8001 37Z" fill="#FBD381"/>
<mask id="mask1_784_3127" style="mask-type:alpha" maskUnits="userSpaceOnUse" x="0" y="0" width="36" height="30">
<path d="M0 30L-1.31134e-06 0L36 -1.57361e-06L36 30L0 30Z" fill="#002F6C"/>
</mask>
<g mask="url(#mask1_784_3127)">
<rect width="36" height="36" fill="#004692"/>
<path d="M12.7908 1.00487L10.6695 3.12619L36.8665 29.3232L38.9878 27.2019L12.7908 1.00487Z" fill="#F5F7F8"/>
<path d="M7.13393 6.66173L3.59839 10.1973L29.7954 36.3943L33.3309 32.8588L7.13393 6.66173Z" fill="#F5F7F8"/>
<path d="M7.13393 6.66173L10.6695 3.12619L36.8665 29.3232L33.3309 32.8588L7.13393 6.66173Z" fill="#DD2033"/>
<path d="M6 35H10.0017L10.0017 8.99997H36V5L6 5L6 35Z" fill="#F5F7F8"/>
<path d="M0 35.0001H6.00171L6.00171 4.99996H36.0017V4.58956e-06L1.90735e-06 0L0 35.0001Z" fill="#DD2033"/>
</g>
</g>
</svg>
