<svg width="72" height="50" viewBox="0 0 72 50" fill="none" xmlns="http://www.w3.org/2000/svg">
<mask id="mask0_784_3154" style="mask-type:alpha" maskUnits="userSpaceOnUse" x="0" y="0" width="72" height="50">
<rect width="72" height="50" fill="#D9D9D9"/>
</mask>
<g mask="url(#mask0_784_3154)">
<rect y="9" width="9" height="72" transform="rotate(-90 0 9)" fill="#31373D"/>
<rect y="34" width="9" height="72" transform="rotate(-90 0 34)" fill="#31373D"/>
<rect y="17" width="8" height="72" transform="rotate(-90 0 17)" fill="#F1B434"/>
<rect y="50" width="8" height="72" transform="rotate(-90 0 50)" fill="#DD2033"/>
<rect y="25" width="8" height="72" transform="rotate(-90 0 25)" fill="#DD2033"/>
<rect y="42" width="8" height="72" transform="rotate(-90 0 42)" fill="#F1B434"/>
<circle cx="35" cy="25" r="20" fill="#F5F7F8"/>
<path fill-rule="evenodd" clip-rule="evenodd" d="M36.8169 29.6577L34.1262 26.6307L34.8737 25.9663L37.5643 28.9933C38.3801 29.9111 37.8078 31.3667 36.5854 31.4831L29.4992 32.158C29.1496 32.1913 28.9423 32.5652 29.0994 32.8793L29.4472 33.5749L28.5527 34.0221L28.205 33.3265C27.7338 32.3841 28.3555 31.2624 29.4044 31.1625L36.4906 30.4876C36.8981 30.4488 37.0888 29.9636 36.8169 29.6577Z" fill="#31373D"/>
<path d="M31 31.7983V31.7983C30.3108 31.7983 29.8626 32.5236 30.1708 33.14L30.5 33.7983" stroke="#31373D"/>
<path d="M31 31.7983L31.5 32.7983" stroke="#31373D"/>
<path fill-rule="evenodd" clip-rule="evenodd" d="M40.4026 32.5508C42.2497 31.528 43.5001 29.5592 43.5001 27.2983C43.5001 23.9846 40.8138 21.2983 37.5001 21.2983C35.7153 21.2983 34.1125 22.0776 33.0134 23.3145C37.1925 23.5792 40.5001 27.0525 40.5001 31.2983C40.5001 31.7244 40.4668 32.1427 40.4026 32.5508Z" fill="#31373D"/>
<path fill-rule="evenodd" clip-rule="evenodd" d="M34.4379 16.7007C32.0028 17.1479 30.0024 19.0854 29.5953 21.6699C29.0796 24.9432 31.3151 28.0148 34.5885 28.5304C36.894 28.8937 39.0995 27.892 40.3823 26.1242C36.3703 25.1566 33.7105 21.2517 34.3639 17.1039C34.3853 16.9681 34.41 16.8337 34.4379 16.7007Z" fill="#31373D"/>
<path d="M36.7981 13.4375C36.4341 11.5391 34.6001 10.2952 32.7017 10.6592L33.3608 14.0966L36.7981 13.4375Z" fill="#DD2033"/>
<circle cx="33" cy="14.7983" r="2.5" fill="#31373D"/>
<path d="M28.5 16.2983L31.5 14.2983L32.5 15.7983L28.5 16.2983Z" fill="#31373D"/>
<path fill-rule="evenodd" clip-rule="evenodd" d="M39.3743 27.204C40.0892 28.4018 40.5 29.8021 40.5 31.2984C40.5 31.7245 40.4667 32.1428 40.4025 32.5509C42.2495 31.528 43.5 29.5593 43.5 27.2984C43.5 25.5301 42.735 23.9404 41.5179 22.8423C41.5084 23.0724 41.4857 23.3045 41.449 23.5375C41.214 25.0293 40.4481 26.3055 39.3743 27.204Z" fill="#DD2033"/>
<path d="M34.5 26.2983V37.2983M34.5 37.2983H31M34.5 37.2983L33 39.2983M34.5 37.2983L36.5 37.7983" stroke="#31373D"/>
</g>
</svg>
