<svg width="72" height="50" viewBox="0 0 72 50" fill="none" xmlns="http://www.w3.org/2000/svg">
<mask id="mask0_784_3181" style="mask-type:alpha" maskUnits="userSpaceOnUse" x="0" y="0" width="72" height="50">
<rect width="72" height="50" fill="#D9D9D9"/>
</mask>
<g mask="url(#mask0_784_3181)">
<rect y="59" width="63" height="72" transform="rotate(-90 0 59)" fill="#F5F7F8"/>
<rect x="36" y="14" width="9" height="36" transform="rotate(-90 36 14)" fill="#DD2033"/>
<rect x="36" y="32" width="9" height="36" transform="rotate(-90 36 32)" fill="#DD2033"/>
<rect y="50" width="9" height="72" transform="rotate(-90 0 50)" fill="#DD2033"/>
<rect y="32" width="32" height="36" transform="rotate(-90 0 32)" fill="#004692"/>
<path d="M28.3999 18L26.6115 22.0453L22.3999 22.5836L25.5063 25.6221L24.6916 30L28.3999 27.5L32.1082 30L31.2935 25.6221L34.3999 22.5836L30.1883 22.0453L28.3999 18Z" fill="#F5F7F8"/>
<path d="M28.3999 -6L26.6115 -1.95469L22.3999 -1.41644L25.5063 1.62209L24.6916 6L28.3999 3.5L32.1082 6L31.2935 1.62209L34.3999 -1.41644L30.1883 -1.95469L28.3999 -6Z" fill="#F5F7F8"/>
<path d="M20.3999 6L18.6115 10.0453L14.3999 10.5836L17.5063 13.6221L16.6916 18L20.3999 15.5L24.1082 18L23.2935 13.6221L26.3999 10.5836L22.1883 10.0453L20.3999 6Z" fill="#F5F7F8"/>
<path d="M11.3999 18L9.61149 22.0453L5.3999 22.5836L8.50626 25.6221L7.69163 30L11.3999 27.5L15.1082 30L14.2935 25.6221L17.3999 22.5836L13.1883 22.0453L11.3999 18Z" fill="#F5F7F8"/>
<path d="M11.3999 -6L9.61149 -1.95469L5.3999 -1.41644L8.50626 1.62209L7.69163 6L11.3999 3.5L15.1082 6L14.2935 1.62209L17.3999 -1.41644L13.1883 -1.95469L11.3999 -6Z" fill="#F5F7F8"/>
<path d="M3.39993 6L1.61149 10.0453L-2.6001 10.5836L0.506262 13.6221L-0.308367 18L3.3999 15.5L7.10817 18L6.29354 13.6221L9.3999 10.5836L5.18832 10.0453L3.39993 6Z" fill="#F5F7F8"/>
</g>
</svg>
