<svg width="72" height="50" viewBox="0 0 72 50" fill="none" xmlns="http://www.w3.org/2000/svg">
<mask id="mask0_784_3190" style="mask-type:alpha" maskUnits="userSpaceOnUse" x="0" y="0" width="72" height="50">
<rect width="72" height="50" fill="#D9D9D9"/>
</mask>
<g mask="url(#mask0_784_3190)">
<rect width="72" height="50" fill="#86C5FA"/>
<path fill-rule="evenodd" clip-rule="evenodd" d="M44.6973 40.214C52.5221 36.8428 58 29.0611 58 20C58 15.3336 56.5472 11.0066 54.0692 7.4465C53.4909 6.61566 52.8567 5.82659 52.1722 5.08472L48.7349 8.7382C51.3889 11.7371 53 15.6804 53 20C53 29.3889 45.3888 37 36 37C26.6112 37 19 29.3889 19 20C19 15.4704 20.7716 11.3545 23.6596 8.30742L20.2292 4.66113C19.5274 5.38251 18.8748 6.15186 18.2765 6.9638C15.5885 10.6122 14 15.1206 14 20C14 29.4454 19.9524 37.5006 28.3108 40.6189C29.2863 40.9829 30.2947 41.2796 31.3301 41.5034C30.867 42.0544 30.5875 42.7073 30.4915 43.3813C30.444 43.7152 30.4415 44.0543 30.4841 44.3888C30.5854 45.1839 30.9413 45.9528 31.552 46.5635L36.1157 41.9997C36.4491 41.998 36.7807 41.9889 37.1103 41.9725L41.7013 46.5635C42.3947 45.87 42.7597 44.9726 42.7963 44.0643C42.8055 43.8363 42.794 43.6076 42.7618 43.3813C42.6514 42.6057 42.2979 41.8581 41.7013 41.2616L41.6954 41.2557C41.7008 41.2542 41.7062 41.2528 41.7115 41.2513C42.7384 40.9761 43.7356 40.6283 44.6973 40.214ZM33.6001 24.3875C33.6959 24.44 33.7936 24.4895 33.8931 24.5357C34.12 24.6413 34.3562 24.7304 34.6001 24.8014V28.8918C34.2601 28.8387 33.9264 28.7665 33.6001 28.6765C33.3388 28.6044 33.0822 28.5208 32.831 28.4262C32.4044 28.2657 31.9931 28.0737 31.6001 27.853C31.3833 27.7313 31.172 27.6008 30.9668 27.4621C30.8448 27.3797 30.7251 27.2944 30.6075 27.2063C30.4946 27.1217 30.3838 27.0345 30.2752 26.9448C30.2377 26.9139 30.2005 26.8827 30.1635 26.8512L33.0082 24.0065C33.1619 24.1214 33.3224 24.2278 33.489 24.3247C33.5258 24.3461 33.5628 24.367 33.6001 24.3875ZM28.1894 29.1104C27.5391 28.5524 26.9493 27.926 26.4311 27.2424C26.3011 27.0709 26.1756 26.8958 26.0548 26.7172C25.1128 25.3253 24.4553 23.725 24.1659 22C24.1246 21.7539 24.0908 21.5053 24.0648 21.2543C24.0219 20.8421 24 20.4236 24 20C24 19.5764 24.0219 19.1579 24.0648 18.7457C24.0908 18.4947 24.1246 18.2461 24.1659 18C24.4553 16.275 25.1128 14.6747 26.0548 13.2828C26.1755 13.1043 26.301 12.9293 26.4309 12.7578C26.9493 12.074 27.5393 11.4474 28.1898 10.8893C28.3927 10.7151 28.6016 10.5476 28.816 10.3871C30.2079 9.34526 31.8335 8.5986 33.6001 8.24002C33.8094 8.19753 34.0208 8.16049 34.2339 8.12905C34.8103 8.04403 35.4 8 36 8C36.2513 8 36.5008 8.00773 36.7483 8.02295C37.0351 8.0406 37.3191 8.06831 37.6001 8.10575C39.4778 8.35595 41.2183 9.04038 42.7172 10.0548C42.8956 10.1755 43.0706 10.3009 43.242 10.4308C43.926 10.9493 44.5527 11.5394 45.1109 12.1899C45.285 12.3929 45.4524 12.6017 45.6129 12.816C46.7329 14.3123 47.5118 16.0787 47.8341 18C47.8754 18.2462 47.9092 18.4948 47.9352 18.7458C47.9781 19.1581 48 19.5765 48 20C48 20.4235 47.9781 20.8419 47.9352 21.2541C47.9092 21.5051 47.8754 21.7538 47.8341 22C47.5118 23.9213 46.7329 25.6877 45.6129 27.184C45.4522 27.3986 45.2846 27.6077 45.1102 27.8108C44.5523 28.4609 43.926 29.0506 43.2425 29.5688C43.071 29.6988 42.8958 29.8244 42.7172 29.9452C41.2183 30.9596 39.4778 31.644 37.6001 31.8942C37.3191 31.9317 37.035 31.9594 36.7483 31.9771C36.5008 31.9923 36.2513 32 36 32C35.4 32 34.8103 31.956 34.2339 31.8709C34.0207 31.8395 33.8094 31.8025 33.6001 31.76C31.8335 31.4014 30.2079 30.6547 28.816 29.6129C28.6014 29.4523 28.3925 29.2847 28.1894 29.1104ZM40.543 27.771C40.8372 27.5986 41.1208 27.4099 41.3925 27.2063L38.511 24.3247C38.2242 24.4916 37.9194 24.6307 37.6001 24.7385C37.5777 24.746 37.5552 24.7535 37.5327 24.7607C37.4887 24.7749 37.4444 24.7884 37.3999 24.8014C37.1413 24.8766 36.8741 24.9316 36.6001 24.9644V28.9803C36.7073 28.9733 36.814 28.9643 36.9202 28.9535C37.0814 28.9372 37.2413 28.9165 37.3999 28.8918C37.4669 28.8813 37.5336 28.8701 37.6001 28.8582C37.9303 28.7989 38.2543 28.7217 38.571 28.6274C38.9236 28.5225 39.2671 28.3966 39.6001 28.2511C39.9248 28.1092 40.2396 27.9487 40.543 27.771ZM40.5357 22.1069C40.4714 22.2451 40.401 22.3799 40.3247 22.511C40.2278 22.6776 40.1214 22.8381 40.0065 22.9918L42.8512 25.8365C42.8827 25.7995 42.9139 25.7623 42.9448 25.7248C43.0345 25.6162 43.1217 25.5054 43.2063 25.3925C43.2944 25.2749 43.3797 25.1552 43.4621 25.0332C43.6848 24.7037 43.8862 24.3586 44.0645 24C44.1985 23.7304 44.3193 23.4531 44.4262 23.169C44.5685 22.7908 44.6861 22.4004 44.777 22C44.8512 21.6731 44.9076 21.3394 44.9451 21H40.9C40.8294 21.3478 40.7227 21.6825 40.584 22C40.5683 22.0358 40.5522 22.0715 40.5357 22.1069ZM38.0418 20L37.9599 20.4032C37.9011 20.6932 37.7784 20.9619 37.6041 21.195L37.3571 21.5252L37.0022 21.7317C36.7737 21.8647 36.518 21.9528 36.2438 21.9856L35.8305 22.035L35.4385 21.9209C35.2093 21.8542 34.9953 21.7465 34.805 21.6041L34.4748 21.3571L34.2683 21.0022C34.1611 20.8181 34.0834 20.6167 34.0401 20.4032L33.9582 20L34.0401 19.5968C34.0834 19.3833 34.1611 19.1819 34.2683 18.9978L34.4748 18.6429L34.805 18.3959C34.9953 18.2535 35.2093 18.1458 35.4385 18.0791L35.8305 17.965L36.2438 18.0144C36.518 18.0472 36.7737 18.1353 37.0022 18.2683L37.3571 18.4748L37.6041 18.805C37.7784 19.0381 37.9011 19.3068 37.9599 19.5968L38.0418 20ZM40.584 18C40.7227 18.3175 40.8294 18.6522 40.9 19H44.9451C44.9449 18.9983 44.9447 18.9966 44.9445 18.9948C44.907 18.6572 44.8508 18.3253 44.777 18C44.6861 17.5995 44.5685 17.2092 44.4262 16.831C44.3193 16.5469 44.1985 16.2696 44.0645 16C43.8862 15.6414 43.6848 15.2963 43.4621 14.9668C43.3797 14.8448 43.2944 14.7251 43.2063 14.6075C43.0925 14.4557 42.9741 14.3076 42.8512 14.1635L40.0065 17.0082C40.1214 17.1619 40.2278 17.3224 40.3247 17.489C40.401 17.6201 40.4714 17.7549 40.5357 17.8931C40.5522 17.9285 40.5683 17.9642 40.584 18ZM40.543 12.229C40.8345 12.3998 41.1155 12.5865 41.3848 12.788C41.3874 12.7899 41.3899 12.7918 41.3925 12.7937L38.511 15.6753C38.2242 15.5084 37.9194 15.3693 37.6001 15.2615C37.5777 15.254 37.5552 15.2465 37.5327 15.2393C37.4887 15.2251 37.4444 15.2116 37.3999 15.1986C37.1413 15.1234 36.8741 15.0684 36.6001 15.0356V11.0197C36.8701 11.0375 37.1369 11.0672 37.3999 11.1082C37.4669 11.1187 37.5336 11.1299 37.6001 11.1418C37.9303 11.2011 38.2543 11.2783 38.571 11.3726C38.9236 11.4775 39.2671 11.6034 39.6001 11.7489C39.9248 11.8908 40.2396 12.0513 40.543 12.229ZM34.6001 11.1082C34.5913 11.1096 34.5824 11.111 34.5736 11.1124C34.2427 11.1651 33.9179 11.2358 33.6001 11.3235C33.3388 11.3956 33.0822 11.4792 32.831 11.5738C32.4044 11.7343 31.9931 11.9263 31.6001 12.147C31.3833 12.2687 31.172 12.3992 30.9668 12.5379C30.8448 12.6203 30.7251 12.7056 30.6075 12.7937C30.4557 12.9075 30.3076 13.0259 30.1635 13.1488L33.0082 15.9935C33.1619 15.8786 33.3224 15.7722 33.489 15.6753C33.5258 15.6539 33.5628 15.633 33.6001 15.6125C33.6959 15.56 33.7936 15.5105 33.8931 15.4643C34.12 15.3587 34.3562 15.2696 34.6001 15.1986V11.1082ZM28.229 15.457C28.3998 15.1655 28.5865 14.8845 28.788 14.6152C28.7899 14.6126 28.7918 14.61 28.7937 14.6075L31.6753 17.489C31.5795 17.6536 31.4929 17.8242 31.416 18C31.3496 18.152 31.2906 18.3079 31.2393 18.4673C31.1834 18.6409 31.1368 18.8187 31.1 19H27.0549C27.0924 18.6606 27.1488 18.3269 27.223 18C27.2668 17.8072 27.3167 17.6168 27.3726 17.429C27.52 16.9334 27.709 16.4558 27.9355 16C28.0273 15.8153 28.1252 15.6342 28.229 15.457ZM27.223 22C27.1492 21.6747 27.093 21.3428 27.0555 21.0052C27.0553 21.0034 27.0551 21.0017 27.0549 21H31.1C31.1368 21.1813 31.1834 21.3591 31.2393 21.5327C31.2906 21.6921 31.3496 21.848 31.416 22C31.4929 22.1758 31.5795 22.3464 31.6753 22.511L28.7937 25.3925C28.5901 25.1208 28.4014 24.8372 28.2291 24.543C28.1252 24.3658 28.0273 24.1847 27.9355 24C27.709 23.5442 27.52 23.0666 27.3726 22.571C27.3167 22.3832 27.2668 22.1928 27.223 22Z" fill="#F5F7F8"/>
</g>
</svg>
