<svg width="72" height="50" viewBox="0 0 72 50" fill="none" xmlns="http://www.w3.org/2000/svg">
<mask id="mask0_784_3210" style="mask-type:alpha" maskUnits="userSpaceOnUse" x="0" y="0" width="72" height="50">
<rect width="72" height="50" fill="#D9D9D9"/>
</mask>
<g mask="url(#mask0_784_3210)">
<rect width="22" height="72" transform="matrix(-4.37114e-08 1 1 4.37114e-08 0 0)" fill="#0091DA"/>
<path d="M55.8108 3.54494L56.5017 2L57.1925 3.54494L58.8194 3.75051L57.6194 4.91095L57.9341 6.58291L56.5017 5.62814L55.0692 6.58291L55.3839 4.91095L54.1839 3.75051L55.8108 3.54494Z" fill="#F5F7F8"/>
<path d="M61.9914 3.54494L62.6823 2L63.3731 3.54494L65 3.75051L63.8001 4.91095L64.1147 6.58291L62.6823 5.62814L61.2498 6.58291L61.5645 4.91095L60.3645 3.75051L61.9914 3.54494Z" fill="#F5F7F8"/>
<path d="M50.3211 7.34673L49.6302 8.89167L48.0033 9.09724L49.2033 10.2577L48.8886 11.9296L50.3211 10.9749L51.7535 11.9296L51.4388 10.2577L52.6388 9.09724L51.0119 8.89167L50.3211 7.34673Z" fill="#F5F7F8"/>
<path d="M55.8108 8.89167L56.5017 7.34673L57.1925 8.89167L58.8194 9.09724L57.6194 10.2577L57.9341 11.9296L56.5017 10.9749L55.0692 11.9296L55.3839 10.2577L54.1839 9.09724L55.8108 8.89167Z" fill="#F5F7F8"/>
<path d="M62.6823 7.34673L61.9914 8.89167L60.3645 9.09724L61.5645 10.2577L61.2498 11.9296L62.6823 10.9749L64.1147 11.9296L63.8001 10.2577L65 9.09724L63.3731 8.89167L62.6823 7.34673Z" fill="#F5F7F8"/>
<path d="M49.6302 14.2384L50.3211 12.6935L51.0119 14.2384L52.6388 14.444L51.4388 15.6044L51.7535 17.2764L50.3211 16.3216L48.8886 17.2764L49.2033 15.6044L48.0033 14.444L49.6302 14.2384Z" fill="#F5F7F8"/>
<path d="M44.1405 12.6935L43.4496 14.2384L41.8227 14.444L43.0227 15.6044L42.708 17.2764L44.1405 16.3216L45.5729 17.2764L45.2582 15.6044L46.4582 14.444L44.8313 14.2384L44.1405 12.6935Z" fill="#F5F7F8"/>
<path d="M61.9914 14.2384L62.6823 12.6935L63.3731 14.2384L65 14.444L63.8001 15.6044L64.1147 17.2764L62.6823 16.3216L61.2498 17.2764L61.5645 15.6044L60.3645 14.444L61.9914 14.2384Z" fill="#F5F7F8"/>
<path d="M56.5017 12.6935L55.8108 14.2384L54.1839 14.444L55.3839 15.6044L55.0692 17.2764L56.5017 16.3216L57.9341 17.2764L57.6194 15.6044L58.8194 14.444L57.1925 14.2384L56.5017 12.6935Z" fill="#F5F7F8"/>
<path d="M34.7323 15.8005C35.9642 16.7735 37.4961 17.1128 38.9093 16.8581C36.6838 18.4192 33.5978 18.4102 31.3595 16.6422C28.6507 14.5025 28.2092 10.597 30.3734 7.91882C32.5376 5.2407 36.4879 4.80418 39.1968 6.94383C39.3547 7.0686 39.505 7.19937 39.6474 7.33555C37.6124 6.5175 35.2296 7.03936 33.8272 8.77477C32.108 10.9022 32.5133 14.0477 34.7323 15.8005Z" fill="#F5F7F8"/>
<rect width="24" height="72" transform="matrix(-4.37114e-08 1 1 4.37114e-08 0 37)" fill="#009B77"/>
<rect width="22" height="72" transform="matrix(-4.37114e-08 1 1 4.37114e-08 0 22)" fill="#DD2033"/>
<rect width="14" height="72" transform="matrix(-4.37114e-08 1 1 4.37114e-08 0 26)" fill="#F5F7F8"/>
</g>
</svg>
