<svg width="72" height="50" viewBox="0 0 72 50" fill="none" xmlns="http://www.w3.org/2000/svg">
<mask id="mask0_784_3217" style="mask-type:alpha" maskUnits="userSpaceOnUse" x="0" y="0" width="72" height="50">
<rect width="72" height="50" fill="#D9D9D9"/>
</mask>
<g mask="url(#mask0_784_3217)">
<rect y="-11" width="72" height="72" fill="#F5F7F8"/>
<rect y="50" width="50" height="36" transform="rotate(-90 0 50)" fill="#F1B434"/>
<path d="M48.6184 11V14L52.1184 14V20L55.1184 20V14H58.6184V11H55.1184V8L52.1184 8L52.1184 11L48.6184 11Z" fill="#F1B434"/>
<path fill-rule="evenodd" clip-rule="evenodd" d="M64.1643 15.333L66.2856 17.4543L65.4039 18.3361L69.0177 21.95L64.068 26.8997L60.4541 23.2858L51.955 31.7849C53.3762 34.2676 53.0267 37.4877 50.9067 39.6077C48.3683 42.1461 44.2528 42.1461 41.7144 39.6077C39.1759 37.0693 39.1759 32.9537 41.7144 30.4153C43.9404 28.1893 47.3793 27.9153 49.9038 29.5935L64.1643 15.333ZM43.8357 37.4864C45.2025 38.8532 47.4186 38.8532 48.7854 37.4864C50.1523 36.1195 50.1523 33.9034 48.7854 32.5366C47.4186 31.1698 45.2025 31.1698 43.8357 32.5366C42.4688 33.9034 42.4688 36.1195 43.8357 37.4864Z" fill="#F1B434"/>
<path fill-rule="evenodd" clip-rule="evenodd" d="M42.8534 15L40.7321 17.1213L41.7801 18.1694L38 21.9495L42.9497 26.8992L46.7299 23.1191L55.1871 31.5763C53.6233 34.0847 53.9312 37.4274 56.111 39.6072C58.6494 42.1456 62.765 42.1456 65.3034 39.6072C67.8418 37.0688 67.8418 32.9532 65.3034 30.4148C63.1365 28.2479 59.8202 27.9308 57.3169 29.4634L42.8534 15ZM63.1821 37.4859C61.8152 38.8527 59.5992 38.8527 58.2323 37.4859C56.8655 36.119 56.8655 33.903 58.2323 32.5361C59.5992 31.1693 61.8152 31.1693 63.1821 32.5361C64.5489 33.903 64.5489 36.119 63.1821 37.4859Z" fill="#C1C3C3"/>
</g>
</svg>
