<svg width="72" height="50" viewBox="0 0 72 50" fill="none" xmlns="http://www.w3.org/2000/svg">
<mask id="mask0_784_3229" style="mask-type:alpha" maskUnits="userSpaceOnUse" x="0" y="0" width="72" height="50">
<rect width="72" height="50" fill="#D9D9D9"/>
</mask>
<g mask="url(#mask0_784_3229)">
<rect y="50" width="10" height="72" transform="rotate(-90 0 50)" fill="#DD2033"/>
<rect y="40" width="30" height="72" transform="rotate(-90 0 40)" fill="#004692"/>
<rect y="10" width="10" height="72" transform="rotate(-90 0 10)" fill="#F1B434"/>
<path d="M34.8667 12L33.3764 15.3711L29.8667 15.8196L32.4553 18.3517L31.7765 22L34.8667 19.9167L37.9569 22L37.2781 18.3517L39.8667 15.8196L36.357 15.3711L34.8667 12Z" fill="#F5F7F8"/>
<path d="M17.5318 17.9042L18.2446 21.5205L15.6269 23.901L19.1997 24.4904L20.7362 27.8682L22.0726 24.3892L25.7989 24.3233L23.1503 21.7242L23.8184 18.1652L20.6862 19.8109L17.5318 17.9042Z" fill="#F5F7F8"/>
<path d="M13.3999 28L11.9096 31.3711L8.3999 31.8196L10.9885 34.3517L10.3097 38L13.3999 35.9167L16.4901 38L15.8113 34.3517L18.3999 31.8196L14.8902 31.3711L13.3999 28Z" fill="#F5F7F8"/>
<path d="M57.3999 28L55.9096 31.3711L52.3999 31.8196L54.9885 34.3517L54.3097 38L57.3999 35.9167L60.4901 38L59.8113 34.3517L62.3999 31.8196L58.8902 31.3711L57.3999 28Z" fill="#F5F7F8"/>
<path d="M52.2678 17.9043L49.1134 19.8109L45.9812 18.1652L46.6493 21.7242L44.0007 24.3233L47.727 24.3892L49.0634 27.8682L50.5998 24.4904L54.1727 23.901L51.555 21.5205L52.2678 17.9043Z" fill="#F5F7F8"/>
</g>
</svg>
