<svg width="72" height="50" viewBox="0 0 72 50" fill="none" xmlns="http://www.w3.org/2000/svg">
<mask id="mask0_784_3235" style="mask-type:alpha" maskUnits="userSpaceOnUse" x="0" y="0" width="72" height="50">
<rect width="72" height="50" fill="#D9D9D9"/>
</mask>
<g mask="url(#mask0_784_3235)">
<rect width="72" height="50" fill="#004692"/>
<mask id="mask1_784_3235" style="mask-type:alpha" maskUnits="userSpaceOnUse" x="0" y="0" width="36" height="30">
<path d="M0 30L-1.31134e-06 0L36 -1.57361e-06L36 30L0 30Z" fill="#002F6C"/>
</mask>
<g mask="url(#mask1_784_3235)">
<rect width="36" height="36" fill="#004692"/>
<path d="M12.7908 1.00487L10.6695 3.12619L36.8665 29.3232L38.9878 27.2019L12.7908 1.00487Z" fill="#F5F7F8"/>
<path d="M7.13393 6.66173L3.59839 10.1973L29.7954 36.3943L33.3309 32.8588L7.13393 6.66173Z" fill="#F5F7F8"/>
<path d="M7.13393 6.66173L10.6695 3.12619L36.8665 29.3232L33.3309 32.8588L7.13393 6.66173Z" fill="#DD2033"/>
<path d="M6 35H10.0017L10.0017 8.99997H36V5L6 5L6 35Z" fill="#F5F7F8"/>
<path d="M0 35.0001H6.00171L6.00171 4.99996H36.0017V4.58956e-06L1.90735e-06 0L0 35.0001Z" fill="#DD2033"/>
</g>
<path d="M65 35H44V40H47V43H62V40H65V35Z" fill="#FBD381"/>
<path d="M44 17H65V25.7432C65 31.8265 61.2916 37.2951 55.6401 39.546L54.5 40L53.36 39.546C47.7084 37.2951 44 31.8265 44 25.7432V17Z" fill="#008259"/>
<rect x="52" y="21" width="5" height="15" fill="#F5F7F8"/>
<path d="M47.5 22C48.3284 22 49 21.3284 49 20.5C49 19.6716 48.3284 19 47.5 19C46.6716 19 46 19.6716 46 20.5C46 21.3284 46.6716 22 47.5 22Z" fill="#F1B434"/>
<path d="M61.5 22C62.3284 22 63 21.3284 63 20.5C63 19.6716 62.3284 19 61.5 19C60.6716 19 60 19.6716 60 20.5C60 21.3284 60.6716 22 61.5 22Z" fill="#F1B434"/>
<path d="M63 25.5C63 26.3284 62.3284 27 61.5 27C60.6716 27 60 26.3284 60 25.5C60 24.6716 60.6716 24 61.5 24C62.3284 24 63 24.6716 63 25.5Z" fill="#F1B434"/>
<path d="M47.5 27C48.3284 27 49 26.3284 49 25.5C49 24.6716 48.3284 24 47.5 24C46.6716 24 46 24.6716 46 25.5C46 26.3284 46.6716 27 47.5 27Z" fill="#F1B434"/>
<path d="M63 30.5C63 31.3284 62.3284 32 61.5 32C60.6716 32 60 31.3284 60 30.5C60 29.6716 60.6716 29 61.5 29C62.3284 29 63 29.6716 63 30.5Z" fill="#F1B434"/>
<path d="M47.5 32C48.3284 32 49 31.3284 49 30.5C49 29.6716 48.3284 29 47.5 29C46.6716 29 46 29.6716 46 30.5C46 31.3284 46.6716 32 47.5 32Z" fill="#F1B434"/>
</g>
</svg>
