<svg width="72" height="50" viewBox="0 0 72 50" fill="none" xmlns="http://www.w3.org/2000/svg">
<mask id="mask0_784_3250" style="mask-type:alpha" maskUnits="userSpaceOnUse" x="0" y="0" width="72" height="50">
<rect width="72" height="50" fill="#D9D9D9"/>
</mask>
<g mask="url(#mask0_784_3250)">
<rect width="72" height="50" fill="#F5F7F8"/>
<path d="M24.285 10.4383C25.9753 10.3227 28.4568 10.5716 30.3865 11.5323C32.1258 12.3981 33.3382 13.7507 33.3382 16.2854V17.2807L17.3634 13.0002C16.7916 15.1341 18.0579 17.3275 20.1918 17.8992L33.3382 21.4218V22.4571L17.0352 18.0887C16.4635 20.2226 17.7298 22.4159 19.8637 22.9877L32.8013 26.4543L31.9794 27.2694L17.6729 23.436C17.1012 25.5698 18.3675 27.7632 20.5014 28.335L28.6914 30.5295L22 37.1643L26.1649 41.2939L33.5196 34.0015L30.4142 41.6992L36.3043 47.5394L42.1944 41.6992L39.081 33.9815L46.4227 41.261L50.5876 37.1314L43.7973 30.3985L51.4986 28.335C53.6324 27.7632 54.8988 25.5698 54.327 23.436L40.5093 27.1384L39.6874 26.3234L52.1363 22.9877C54.2701 22.4159 55.5365 20.2226 54.9647 18.0887L39.2494 22.2996V21.2643L51.8081 17.8992C53.942 17.3275 55.2083 15.1341 54.6366 13.0002L39.2494 17.1232V16.2525H39.2283C39.2161 11.131 36.3667 7.9743 33.0294 6.31293C29.8754 4.74285 26.2565 4.4494 23.8798 4.61192L24.285 10.4383Z" fill="#F1B434"/>
<path d="M25.7998 15H45.7998V22.9412C45.7998 29.0164 42.1011 34.4795 36.4605 36.7357L35.7998 37L35.1391 36.7357C29.4985 34.4795 25.7998 29.0164 25.7998 22.9412V15Z" fill="#005EB8"/>
<mask id="mask1_784_3250" style="mask-type:alpha" maskUnits="userSpaceOnUse" x="25" y="15" width="21" height="22">
<path d="M25.7998 15H45.7998V22.9412C45.7998 29.0164 42.1011 34.4795 36.4605 36.7357L35.7998 37L35.1391 36.7357C29.4985 34.4795 25.7998 29.0164 25.7998 22.9412V15Z" fill="#005EB8"/>
</mask>
<g mask="url(#mask1_784_3250)">
<path d="M25.7998 22H45.7998V37H25.7998V22Z" fill="#F5F7F8"/>
<path d="M31.7998 22L27.7998 22L27.7998 37L31.7998 37L31.7998 22Z" fill="#DD2033"/>
<path d="M35.7998 22L39.7998 22V37H35.7998V22Z" fill="#DD2033"/>
<path d="M43.7998 22L46 22V37H43.7998V22Z" fill="#DD2033"/>
</g>
<path d="M61 17.0001H63V28.0001H61V17.0001Z" fill="#005EB8"/>
<path d="M7.93185 17L6 17.5176L8.84241 28.1257L10.932 28.1692L13.7744 17.5612L11.8425 17.0435L9.89302 24.3192L7.93185 17Z" fill="#005EB8"/>
</g>
</svg>
