<svg width="72" height="50" viewBox="0 0 72 50" fill="none" xmlns="http://www.w3.org/2000/svg">
<mask id="mask0_784_3281" style="mask-type:alpha" maskUnits="userSpaceOnUse" x="0" y="0" width="72" height="50">
<rect width="72" height="50" fill="#D9D9D9"/>
</mask>
<g mask="url(#mask0_784_3281)">
<rect width="72" height="72" fill="#004692"/>
<path d="M36 4L34.6752 7.03398L31.5556 7.43767L33.8566 9.71657L33.2531 13L36 11.125L38.7469 13L38.1434 9.71657L40.4444 7.43767L37.3248 7.03398L36 4Z" fill="#F5F7F8"/>
<path d="M26.2222 6.70001L24.8975 9.73399L21.7778 10.1377L24.0788 12.4166L23.4754 15.7L26.2222 13.825L28.9691 15.7L28.3657 12.4166L30.6667 10.1377L27.547 9.73399L26.2222 6.70001Z" fill="#F5F7F8"/>
<path d="M16.4445 13L15.1197 16.034L12 16.4377L14.301 18.7166L13.6976 22L16.4444 20.125L19.1913 22L18.5879 18.7166L20.8889 16.4377L17.7692 16.034L16.4445 13Z" fill="#F5F7F8"/>
<path d="M55.5556 13L54.2308 16.034L51.1111 16.4377L53.4121 18.7166L52.8087 22L55.5556 20.125L58.3024 22L57.699 18.7166L60 16.4377L56.8803 16.034L55.5556 13Z" fill="#F5F7F8"/>
<path d="M45.7778 6.70001L44.453 9.73399L41.3333 10.1377L43.6343 12.4166L43.0309 15.7L45.7778 13.825L48.5246 15.7L47.9212 12.4166L50.2222 10.1377L47.1025 9.73399L45.7778 6.70001Z" fill="#F5F7F8"/>
<path d="M31.684 45.1036L31.1214 38.765L24.4919 33.7773L24.4919 30.7835C31.9844 28.124 32.451 21.9123 31.7478 19.1388L35.0529 17.7547L43.6642 24.1892L43.3381 26.8358L51.8343 30.5692L48.868 36.4731L48.4333 40.002L45.678 40.5582L45.1218 37.8028L36.143 41.6226L35.6539 45.5926L31.684 45.1036Z" fill="#F1B434"/>
</g>
</svg>
