<svg xmlns="http://www.w3.org/2000/svg" width="194" height="193" viewBox="0 0 194 193" fill="none"><path fill="#964EA2" fill-rule="evenodd" d="M88.72 58.85c-14.16 29.71-21.77 46.53-34.04 77.1l-.22.53.2.54 14.5 39 .37.98h53.09l.36-.98 14.5-39 .2-.54-.22-.54c-12.27-30.56-19.88-47.38-34.03-77.09l-2.71 1.3c14.05 29.49 21.63 46.23 33.74 76.37L120.53 174H71.6l-13.93-37.48c12.12-30.15 19.69-46.88 33.75-76.37l-2.71-1.3Z" clip-rule="evenodd"/><path stroke="#964EA2" stroke-width="2" d="M96 71.5V136" /><path stroke="#964EA2" stroke-width="3" d="M74 185h44"/><path fill="#964EA2" d="M5 92h18v18H5zm168 0h18v18h-18z"/><path stroke="#964EA2" stroke-width="2" d="M182 96a84 84 0 0 0-168 0"/><path fill="#964EA2" d="M89 3h18v18H89z"/><rect width="14" height="14" x="177" y="5" fill="#964EA2" rx="7"/><rect width="14" height="14" x="5" y="5" fill="#964EA2" rx="7"/><path stroke="#964EA2" stroke-width="2" d="M98.5 12H185M12 12h86.5"/></svg>