<svg width="14" height="14" viewBox="0 0 14 14" fill="none" xmlns="http://www.w3.org/2000/svg">
<path fill-rule="evenodd" clip-rule="evenodd" d="M7.00713 0.0263835C5.34367 0.0246533 3.73398 0.629196 2.46652 1.73168C1.19905 2.83416 0.356663 4.36251 0.0903231 6.04284C-0.176017 7.72318 0.151098 9.44565 1.01304 10.9016C1.87498 12.3575 3.21541 13.4518 4.79412 13.9882C5.14219 14.0542 5.2711 13.8299 5.2711 13.6408C5.2711 13.4517 5.2711 13.0208 5.2711 12.4227C3.32451 12.8625 2.91198 11.4641 2.91198 11.4641C2.78227 11.0307 2.50671 10.6583 2.13421 10.4131C1.50253 9.97337 2.18577 9.97337 2.18577 9.97337C2.4072 10.0054 2.61861 10.0885 2.80398 10.2165C2.98936 10.3445 3.14386 10.514 3.25575 10.7121C3.35083 10.8886 3.47901 11.044 3.63295 11.1696C3.78689 11.2952 3.96355 11.3885 4.15279 11.4441C4.34204 11.4996 4.54014 11.5164 4.73573 11.4934C4.93133 11.4705 5.12056 11.4082 5.29258 11.3102C5.31955 10.9484 5.47195 10.6085 5.72229 10.3516C4.16674 10.1713 2.53383 9.55561 2.53383 6.81162C2.52315 6.10054 2.78009 5.4125 3.25145 4.88994C3.0411 4.27174 3.06564 3.59519 3.32021 2.99465C3.32021 2.99465 3.90891 2.80116 5.24531 3.72901C6.39289 3.40658 7.60418 3.40658 8.75176 3.72901C10.0882 2.80116 10.6726 2.99465 10.6726 2.99465C10.9298 3.59433 10.9559 4.27139 10.7456 4.88994C11.217 5.4125 11.4739 6.10054 11.4632 6.81162C11.4632 9.56441 9.82604 10.1669 8.26618 10.3296C8.43344 10.5016 8.5626 10.7085 8.6449 10.9361C8.72719 11.1637 8.7607 11.4068 8.74316 11.6488C8.74316 12.6074 8.74316 13.3814 8.74316 13.6144C8.74316 13.8475 8.86778 14.0278 9.22444 13.9618C10.7982 13.4203 12.1328 12.3244 12.9902 10.8694C13.8476 9.4144 14.1721 7.69504 13.9058 6.01796C13.6394 4.34089 12.7996 2.81518 11.536 1.71294C10.2725 0.610705 8.66744 0.00363151 7.00713 0V0.0263835Z" fill="black"/>
</svg>
