<svg xmlns="http://www.w3.org/2000/svg" width="748" height="747" viewBox="0 0 748 747" fill="none"><g filter="url(#a)" opacity=".7"><ellipse cx="374" cy="373.5" fill="url(#b)" fill-opacity=".2" rx="324" ry="323.5"/></g><g filter="url(#c)" opacity=".7"><circle cx="374.1" cy="373.5" r="218.5" fill="url(#d)" fill-opacity=".3"/></g><mask id="e" fill="#fff"><path fill-rule="evenodd" d="M415.3 413.5a246.6 246.6 0 0 1-79.4 55.2 90.1 90.1 0 0 1-33.3 7.2 32 32 0 0 1-23-8.4 32 32 0 0 1-8.3-23 91.4 91.4 0 0 1 7.2-33.2c9.7-24.7 28.9-53.1 55.2-79.4 6-6 12-11.5 18-16.7l-.8-.6c-6 5.1-12 10.7-17.9 16.6-52.8 52.7-77 114.1-54 137 22.9 23 84.3-1.2 137-54 52.8-52.8 77-114.2 54.1-137.1-17.1-17.2-55.8-8-96.3 19.9l.9.6c13.2-9 26.3-16.2 38.4-21a90 90 0 0 1 33.3-7.2 32 32 0 0 1 23 8.4 32 32 0 0 1 8.4 23c0 9.6-2.4 21-7.3 33.3-9.7 24.6-28.8 53-55.2 79.4Z" clip-rule="evenodd"/></mask><path fill="#8DCDD1" fill-rule="evenodd" d="M415.3 413.5a246.6 246.6 0 0 1-79.4 55.2 90.1 90.1 0 0 1-33.3 7.2 32 32 0 0 1-23-8.4 32 32 0 0 1-8.3-23 91.4 91.4 0 0 1 7.2-33.2c9.7-24.7 28.9-53.1 55.2-79.4 6-6 12-11.5 18-16.7l-.8-.6c-6 5.1-12 10.7-17.9 16.6-52.8 52.7-77 114.1-54 137 22.9 23 84.3-1.2 137-54 52.8-52.8 77-114.2 54.1-137.1-17.1-17.2-55.8-8-96.3 19.9l.9.6c13.2-9 26.3-16.2 38.4-21a90 90 0 0 1 33.3-7.2 32 32 0 0 1 23 8.4 32 32 0 0 1 8.4 23c0 9.6-2.4 21-7.3 33.3-9.7 24.6-28.8 53-55.2 79.4Z" clip-rule="evenodd"/><path fill="#A2D9DA" d="m336 468.7-.8-1.9.7 1.9Zm79.3-55.2L414 412l1.4 1.4Zm-112.7 62.4v2-2Zm-23-8.4-1.4 1.5 1.5-1.5Zm-8.3-23h-2 2Zm7.2-33.2-1.8-.8 1.8.8Zm55.2-79.4 1.4 1.4-1.4-1.4Zm18-16.7 1.2-1.7 2.1 1.5-2 1.7-1.2-1.5Zm-.8-.6-1.3-1.5 1.2-1 1.3.9-1.2 1.6Zm-72 153.6-1.4 1.5 1.4-1.4Zm137.1-54 1.5 1.4-1.5-1.4ZM470.1 277l1.4-1.4-1.4 1.4Zm-96.3 20-1.1 1.6-2.4-1.6 2.4-1.7 1.1 1.7Zm.9.6 1.1 1.6-1.1.8-1.2-.8 1.2-1.6Zm38.4-21 .8 2-.8-2Zm33.3-7.2v2-2Zm23 8.4-1.4 1.4 1.4-1.4Zm8.4 23h2-2Zm-7.3 33.3-1.8-.8 1.8.8ZM335.2 466.8a244.6 244.6 0 0 0 78.7-54.7l2.8 2.8a248.5 248.5 0 0 1-80 55.6l-1.5-3.7Zm-32.5 7.1c9.2.1 20.3-2.3 32.5-7l1.5 3.6a92 92 0 0 1-34 7.4v-4Zm-21.6-7.8a30 30 0 0 0 21.6 7.8v4a34 34 0 0 1-24.5-9l2.9-2.8Zm-7.8-21.6a30 30 0 0 0 7.8 21.6l-2.9 2.9a34 34 0 0 1-8.9-24.4h4Zm7-32.5a88.1 88.1 0 0 0-7 32.5h-4a92 92 0 0 1 7.4-34l3.7 1.5Zm54.8-78.7a244.6 244.6 0 0 0-54.7 78.7l-3.7-1.5c9.8-25 29.1-53.6 55.6-80l2.8 2.8Zm18-16.6c-6 5.2-12 10.7-18 16.6l-2.8-2.9c6-6 12-11.5 18.2-16.7l2.6 3Zm-1-3.7.8.5-2.3 3.3-.8-.6 2.3-3.2Zm.1 3.1c-6 5.1-12 10.6-17.8 16.5l-2.8-2.9c6-5.9 12-11.4 18-16.6l2.6 3Zm-17.8 16.5a245.6 245.6 0 0 0-55 79 89.1 89.1 0 0 0-7.1 33 31 31 0 0 0 8 22.2l-2.8 2.9a35 35 0 0 1-9.2-25 93 93 0 0 1 7.4-34.5c10-25.2 29.4-54 55.9-80.5l2.8 2.9Zm-54 134.2a31 31 0 0 0 22.2 8.1c9.5.1 20.7-2.3 33-7.1a245.6 245.6 0 0 0 79-55l2.9 2.8a249.5 249.5 0 0 1-80.5 55.9 93 93 0 0 1-34.4 7.4 35 35 0 0 1-25-9.2l2.8-2.9Zm134.2-54a245.6 245.6 0 0 0 55-79 89.1 89.1 0 0 0 7.2-33 31 31 0 0 0-8.1-22.3l2.8-2.8a35 35 0 0 1 9.3 25 93 93 0 0 1-7.5 34.5 249.5 249.5 0 0 1-55.8 80.4l-2.9-2.8Zm54-134.3c-7.8-7.9-20.9-10-37.5-6.4-16.5 3.6-36 12.7-56.2 26.5l-2.2-3.3a170 170 0 0 1 57.6-27c17.1-3.8 32-1.9 41.2 7.4l-2.8 2.8Zm-95 20.7-1-.6 2.4-3.3.8.7-2.3 3.2Zm40.3-20.7c-12 4.7-25 11.7-38 20.7l-2.3-3.3a199.4 199.4 0 0 1 38.8-21.1l1.5 3.7Zm32.5-7a88.2 88.2 0 0 0-32.5 7l-1.5-3.7a92 92 0 0 1 34-7.4v4Zm21.6 7.7a30 30 0 0 0-21.6-7.8v-4a34 34 0 0 1 24.4 9l-2.8 2.8Zm7.8 21.6a30 30 0 0 0-7.8-21.6l2.8-2.8a34 34 0 0 1 9 24.4h-4Zm-7.1 32.5a88.2 88.2 0 0 0 7-32.5h4a92 92 0 0 1-7.3 34l-3.7-1.5Zm-54.8 78.8a244.6 244.6 0 0 0 54.8-78.8l3.7 1.5c-9.8 25-29.2 53.6-55.7 80.1l-2.8-2.8Z" mask="url(#e)"/><mask id="f" fill="#fff"><path fill-rule="evenodd" d="M278.5 334c4.7 12 11.7 25 20.6 38l-.6 1C271 332.5 262 294.1 279 277c23-22.8 84.4 1.4 137.1 54.2 52.8 52.7 77 114.1 54.1 137-14.3 14.3-43.4 10.3-76-7.4l.9-.6c6.2 3.3 12.3 6.2 18.1 8.5a90.1 90.1 0 0 0 33.3 7.2 32 32 0 0 0 23-8.4 32 32 0 0 0 8.3-23 87 87 0 0 0-7.2-33.2c-9.7-24.7-28.9-53.1-55.2-79.4a246.6 246.6 0 0 0-79.4-55.2 90.1 90.1 0 0 0-33.3-7.3 32 32 0 0 0-23 8.4 32 32 0 0 0-8.3 23 92 92 0 0 0 7.2 33.3Z" clip-rule="evenodd"/></mask><path fill="#8DCDD1" fill-rule="evenodd" d="M278.5 334c4.7 12 11.7 25 20.6 38l-.6 1C271 332.5 262 294.1 279 277c23-22.8 84.4 1.4 137.1 54.2 52.8 52.7 77 114.1 54.1 137-14.3 14.3-43.4 10.3-76-7.4l.9-.6c6.2 3.3 12.3 6.2 18.1 8.5a90.1 90.1 0 0 0 33.3 7.2 32 32 0 0 0 23-8.4 32 32 0 0 0 8.3-23 87 87 0 0 0-7.2-33.2c-9.7-24.7-28.9-53.1-55.2-79.4a246.6 246.6 0 0 0-79.4-55.2 90.1 90.1 0 0 0-33.3-7.3 32 32 0 0 0-23 8.4 32 32 0 0 0-8.3 23 92 92 0 0 0 7.2 33.3Z" clip-rule="evenodd"/><path fill="#A2D9DA" d="m299.1 372 1.7 1.2.8-1.1-.8-1.2-1.7 1.2Zm-20.6-38-1.8.8 1.8-.7Zm20 39-1.6 1 1.6 2.5 1.7-2.4-1.7-1.2ZM279 277l-1.4-1.3 1.4 1.4Zm137 54.3-1.4 1.4 1.4-1.4Zm54.1 137-1.4-1.4 1.4 1.4Zm-76-7.4-1.2-1.6-2.6 1.8 2.8 1.6 1-1.8Zm.9-.6 1-1.8-1.1-.6-1 .8 1.1 1.6Zm18.1 8.5-.7 1.8.7-1.8Zm33.3 7.2v-2 2Zm23-8.4-1.4-1.4 1.4 1.4Zm8.3-23h-2 2Zm-7.2-33.2-1.8.7 1.8-.7ZM415.3 332l-1.4 1.4 1.4-1.4ZM336 276.7l.8-1.9-.8 1.9Zm-33.3-7.3v-2 2Zm-23 8.4 1.5 1.4-1.4-1.4Zm-8.3 23h-2 2Zm29.5 70.1c-8.9-13-15.8-25.7-20.4-37.6l-3.7 1.5a198.7 198.7 0 0 0 20.8 38.4l3.3-2.3Zm-.6 3.2.6-1-3.3-2.2-.6.9 3.3 2.3Zm-22.7-98.4c-9.2 9.2-11.1 24-7.5 41a169 169 0 0 0 26.9 57.4l3.3-2.3a165.2 165.2 0 0 1-26.3-56c-3.5-16.4-1.4-29.5 6.5-37.3l-2.9-2.8Zm140 54A249.5 249.5 0 0 0 337 274a93 93 0 0 0-34.4-7.5 35 35 0 0 0-25 9.3l2.8 2.8a31 31 0 0 1 22.2-8c9.5-.2 20.7 2.3 33 7a245.6 245.6 0 0 1 79 55l2.9-2.8Zm54 140a35 35 0 0 0 9.2-25.1 93 93 0 0 0-7.4-34.4 249.5 249.5 0 0 0-55.8-80.5l-2.9 2.9a245.6 245.6 0 0 1 55 79 89.1 89.1 0 0 1 7.1 33 31 31 0 0 1-8 22.2l2.8 2.9Zm-78.4-7.1c16.5 9 32.2 14.5 45.7 16 13.4 1.4 25-1.2 32.7-9l-2.8-2.8c-6.6 6.6-16.7 9.1-29.5 7.7-12.8-1.3-28-6.6-44.2-15.4l-1.9 3.5Zm.8-4-1 .6 2.3 3.3 1-.7-2.3-3.2Zm20 8.2a159 159 0 0 1-18-8.4l-2 3.6c6.3 3.3 12.4 6.2 18.4 8.5l1.4-3.7Zm32.5 7.1c-9.3.1-20.4-2.3-32.6-7l-1.4 3.6a92 92 0 0 0 34 7.4v-4Zm21.6-7.8a30 30 0 0 1-21.6 7.8v4a34 34 0 0 0 24.4-9l-2.8-2.8Zm7.7-21.6a30 30 0 0 1-7.7 21.6l2.8 2.9a34 34 0 0 0 9-24.4h-4Zm-7-32.5a88.2 88.2 0 0 1 7 32.5h4a92 92 0 0 0-7.3-34l-3.7 1.5ZM414 333.3a244.6 244.6 0 0 1 54.8 78.7l3.7-1.5c-9.9-25-29.2-53.6-55.7-80l-2.8 2.8Zm-78.7-54.8a244.6 244.6 0 0 1 78.7 54.8l2.8-2.9a248.6 248.6 0 0 0-80-55.6l-1.5 3.7Zm-32.5-7c9.2-.2 20.3 2.2 32.5 7l1.5-3.7a92 92 0 0 0-34.1-7.4v4Zm-21.6 7.7a30 30 0 0 1 21.6-7.8l-.1-4a34 34 0 0 0-24.4 9l2.9 2.8Zm-7.8 21.6a30 30 0 0 1 7.8-21.6l-2.9-2.8a34 34 0 0 0-8.9 24.4h4Zm7 32.5a88.1 88.1 0 0 1-7-32.5h-4a92 92 0 0 0 7.4 34l3.7-1.5Z" mask="url(#f)"/><circle cx="374.5" cy="372.6" r="18.9" stroke="#A2D9DA"/><circle cx="374.4" cy="372.6" r="7.2" fill="#8DCDD1" stroke="#8DCDD1" stroke-width="2"/><circle cx="252.8" cy="545.5" r="18.4" stroke="#A2D9DA" stroke-width="2"/><circle cx="252.5" cy="545.2" r="7.2" fill="#8DCDD1" stroke="#8DCDD1" stroke-width="2"/><mask id="g" width="541" height="541" x="104" y="102.2" fill="#000" maskUnits="userSpaceOnUse"><path fill="#fff" d="M104 102.2h541v541H104z"/><path fill-rule="evenodd" d="M151.2 223.5a268.4 268.4 0 0 1 357.4-83.3l.5-1a269.4 269.4 0 1 0 55.8 43l-.7.6a268.4 268.4 0 1 1-413 40.7Z" clip-rule="evenodd"/></mask><path fill="#A2D9DA" fill-rule="evenodd" d="M151.2 223.5a268.4 268.4 0 0 1 357.4-83.3l.5-1a269.4 269.4 0 1 0 55.8 43l-.7.6a268.4 268.4 0 1 1-413 40.7Z" clip-rule="evenodd"/><path fill="#A2D9DA" d="m422.4 580.8.1.5-.1-.5ZM353 161v.4-.4Zm-139.4 71.6.3.3-.3-.3ZM160.9 380h.5-.5ZM267 558.2a213.7 213.7 0 0 0 155.4 23l-.2-1a212.7 212.7 0 0 1-154.7-22.9l-.5 1Zm155.4 23c52.8-12.3 99-44.2 129.2-89.3l-.9-.6c-30 45-76 76.7-128.5 89l.2 1ZM551.7 492c30.1-45.2 42-100 33.1-153.6l-1 .2c8.8 53.3-3 107.9-33 152.8l.9.6Zm33.1-153.6a213.7 213.7 0 0 0-80.7-134.7l-.6.8a212.7 212.7 0 0 1 80.3 134h1Zm-80.7-134.7c-43-33-97-48.5-151-43.1v1c53.8-5.3 107.5 10 150.4 42.9l.6-.8Zm-151-43.1c-54 5.3-104 31-139.8 71.7l.7.7a212.7 212.7 0 0 1 139.1-71.5v-1Zm-139.8 71.7a213.7 213.7 0 0 0-53 148l1-.1A213 213 0 0 1 214 233l-.7-.7Zm-53 148a213.7 213.7 0 0 0 62.6 144l.7-.7a212.7 212.7 0 0 1-62.2-143.4h-1Zm153.2-269 .2 1-.2-1ZM151.2 223.5l.9.5-.9-.5Zm357.4-83.3-.5.8 1 .5.4-.8-.9-.5Zm.5-1 1 .6.4-.9-.9-.5-.5.9Zm-195.9-29-.2-1 .2 1ZM150.4 223l-.8-.5.8.5Zm-41.8 193.6 1-.1-1 .1Zm101.8 169.9-.6.8.6-.8Zm190.4 54.4v-1 1ZM577 550.3l-.8-.7.8.7Zm66.7-186.5h-1 1ZM565 182.1l.8-.7-.8-.7-.7.7.7.7Zm-.7.7-.7-.7-.7.7.7.7.7-.7Zm78.5 181h-1 1Zm-66.5 185.8-.7-.6.7.6Zm-175.5 90.2v-1 1ZM211 585.6l-.6.8.6-.8ZM109.6 416.3l-1 .2 1-.1Zm203.6-306a269.4 269.4 0 0 0-162.8 112.6l1.7 1.1a267.4 267.4 0 0 1 161.6-111.8l-.5-2Zm196 29a269.4 269.4 0 0 0-196-29l.5 1.9A267.4 267.4 0 0 1 508.1 141l1-1.7Zm-1-.5-.4.9 1.7 1 .5-1-1.7-1Zm-194.7-27.6a268.4 268.4 0 0 1 195.1 29l1-1.8A270.4 270.4 0 0 0 313 109.3l.5 1.9ZM151.2 223.5a268.4 268.4 0 0 1 162.3-112.3l-.5-2a270.4 270.4 0 0 0-163.4 113.2l1.6 1Zm-41.6 192.9a268.4 268.4 0 0 1 41.6-193l-1.6-1a270.4 270.4 0 0 0-42 194.3l2-.3ZM211 585.5c-54-41.5-90.3-102-101.4-169.3l-2 .4a270.4 270.4 0 0 0 102.2 170.5l1.2-1.6Zm189.7 54.2A268.4 268.4 0 0 1 211 585.6l-1.2 1.6a270.4 270.4 0 0 0 191.1 54.6l-.2-2Zm175.5-90.2a268.4 268.4 0 0 1-175.5 90.2l.2 2a270.4 270.4 0 0 0 176.9-90.9l-1.6-1.3Zm66.5-185.8a268.4 268.4 0 0 1-66.5 185.8l1.6 1.3a270.4 270.4 0 0 0 67-187.1h-2Zm-78.5-181a268.4 268.4 0 0 1 78.5 181h2a270.4 270.4 0 0 0-79-182.4l-1.5 1.4Zm.7.7.8-.7-1.5-1.4-.7.7 1.4 1.4Zm78.8 180.3A269.4 269.4 0 0 0 565 182.1l-1.4 1.4c48 48 76 112.5 78.2 180.4h2ZM577 550.3a269.3 269.3 0 0 0 66.7-186.5h-2c2.2 68-21.4 134.1-66.2 185.2l1.5 1.3Zm-176.2 90.5c68.1-6.7 131-39 176.2-90.5l-1.5-1.3a267.4 267.4 0 0 1-174.9 89.8l.2 2Zm-190.4-54.4a269.4 269.4 0 0 0 190.4 54.4l-.2-2a267.4 267.4 0 0 1-189-54l-1.2 1.6ZM108.6 416.5a269.4 269.4 0 0 0 101.8 169.9l1.2-1.6a267.4 267.4 0 0 1-101-168.6l-2 .3ZM150.4 223c-38 57-53 126.1-41.8 193.6l2-.3c-11-67 3.7-135.7 41.5-192.2l-1.7-1Z" mask="url(#g)"/><circle cx="529.2" cy="154.4" r="23.1" stroke="#A2D9DA" stroke-width="2"/><circle cx="528.9" cy="154.1" r="7.2" fill="#8DCDD1" stroke="#8DCDD1" stroke-width="2"/><defs><radialGradient id="b" cx="0" cy="0" r="1" gradientTransform="rotate(135 0 308.6) scale(232.83)" gradientUnits="userSpaceOnUse"><stop offset="0" stop-color="#008297"/><stop offset="1" stop-color="#fff" stop-opacity=".3"/></radialGradient><radialGradient id="d" cx="0" cy="0" r="1" gradientTransform="rotate(135 32.5 292.9) scale(157.13)" gradientUnits="userSpaceOnUse"><stop offset="0" stop-color="#8DCDD1"/><stop offset="1" stop-color="#00314C" stop-opacity=".3"/></radialGradient><filter id="a" width="747.9" height="747" x="0" y="0" color-interpolation-filters="sRGB" filterUnits="userSpaceOnUse"><feFlood flood-opacity="0" result="BackgroundImageFix"/><feBlend in="SourceGraphic" in2="BackgroundImageFix" result="shape"/><feGaussianBlur result="effect1_foregroundBlur_385_91471" stdDeviation="25"/></filter><filter id="c" width="537" height="537" x="105.6" y="105" color-interpolation-filters="sRGB" filterUnits="userSpaceOnUse"><feFlood flood-opacity="0" result="BackgroundImageFix"/><feBlend in="SourceGraphic" in2="BackgroundImageFix" result="shape"/><feGaussianBlur result="effect1_foregroundBlur_385_91471" stdDeviation="25"/></filter></defs></svg>