<svg xmlns="http://www.w3.org/2000/svg" width="295" height="24" fill="none"><path fill="#fff" d="M235.68 9.5v.3h1.15v5.76c0 1.73-.5 2.22-1.62 2.22-.7 0-.81-.51-.81-.78 0-.63-.04-1.01-.64-1.01s-.67.58-.67.76c0 .8.37 1.4 2.01 1.4 1.96 0 3.01-.63 3.01-2.74v-5.6h1.2v-.3h-3.63Zm3.6 7.5c-.14.14-.2.3-.2.5 0 .18.06.34.2.47.15.13.31.2.5.2.2-.01.38-.07.52-.2s.2-.29.2-.48a.6.6 0 0 0-.2-.48.7.7 0 0 0-.51-.2c-.2 0-.37.06-.5.2Zm8.05 0c-.14.14-.2.3-.2.5 0 .18.06.34.2.47.15.13.31.2.5.2a.8.8 0 0 0 .52-.2.6.6 0 0 0 .2-.48.6.6 0 0 0-.2-.48.72.72 0 0 0-.51-.2c-.2 0-.37.06-.5.2Zm-5.57-7.5v.3h1.05v6.57c0 .52-.04.65-.1.8-.06.17-.2.3-.42.39-.16.06-.4.1-.73.1v.28h3.82v-.27a2.2 2.2 0 0 1-.73-.1c-.23-.09-.38-.21-.45-.39a1.2 1.2 0 0 1-.1-.53V14.4h.95c2.74 0 3.52-1.04 3.52-2.46 0-1.43-.48-2.43-3.26-2.43h-3.55Zm2.34.34h.66c2.11 0 2.58.83 2.58 2.18 0 1.36-.84 2.05-2.52 2.05h-.72V9.84Zm14.38-.31-2.7 6.42-.06.04-.06-.04-2.86-6.42h-2.5v.27h1.08v6.52l-.02.6a.85.85 0 0 1-.15.4.77.77 0 0 1-.4.28c-.12.04-.3.06-.52.07v.27h2.48v-.27c-.2 0-.3-.03-.42-.07a.77.77 0 0 1-.41-.27.88.88 0 0 1-.15-.41l-.03-.6V10.7h.15l3.24 7.25h.27l3.03-7.17h.08v5.8c0 .26-.03.45-.08.6a.7.7 0 0 1-.37.39c-.14.06-.35.1-.63.1v.28h3.46v-.28a1.9 1.9 0 0 1-.64-.1.68.68 0 0 1-.38-.41 1.84 1.84 0 0 1-.08-.57V9.8h.92v-.27h-2.25Zm3.05 5.45c0 3 2.44 3.2 2.97 3.2 1.04 0 3.01-.62 3.01-3.25 0-2.05-1.26-3.17-2.97-3.17-1.85 0-3 1.18-3 3.22Zm1.38.04c0-1.65.1-2.88 1.6-2.88 1.62 0 1.63 1.27 1.63 2.77 0 2.16-.39 2.9-1.63 2.9-1.38 0-1.6-.66-1.6-2.8Zm7.68-1.9h-.08c-.01 0-.16-.93-.22-1.2l-2.14-.01v.31h1.16v4.17a2 2 0 0 1-.15.87c-.12.2-.38.31-.82.31h-.19v.37h3.59v-.37h-.2c-.47 0-.67-.1-.8-.3-.1-.17-.16-.46-.16-.88v-2.17c0-.72.57-1.55 1.26-1.55.72 0 .7 1.06 1.52.63.44-.23.36-1.45-1.01-1.45-1.1 0-1.45.63-1.76 1.27Zm11.2-.9c-.42.3-.58.58-.58.98 0 .18.06.3.16.4a.6.6 0 0 0 .4.13c.35 0 .55-.17.63-.62.05-.34.13-.53.3-.7.18-.18.47-.28.85-.28.45 0 .77.12.95.35.16.22.25.52.25.88v1.01c-1.15.1-3.86.31-3.74 2.29.04.77.76 1.45 1.68 1.45 1.02 0 1.66-.55 2.1-1 .07.42.47.93 1.22.93.83 0 1.33-.4 1.39-1.38h-.22c-.05.43-.33.66-.55.66-.39 0-.51-.2-.54-.54l-.02-.77v-2.53c0-.54-.1-.91-.43-1.23-.33-.32-.97-.49-1.9-.49-.88 0-1.54.16-1.96.47Zm.47 4.2c0-1.12 1.6-1.68 2.49-1.68v1.94l-.02.05-.03.03c-.62.53-1.08.72-1.43.72-.88 0-1-.7-1-1.05Zm7.66-3.42h-.11l-.23-1.1h-1.95v.31c.37.02.98.02.98.02v4.15c0 .32-.03.55-.08.7a.57.57 0 0 1-.36.4c-.12.04-.3.07-.54.08v.38h3.1v-.39c-.31-.02-.52-.1-.63-.25-.13-.17-.18-.45-.18-.86v-1.59c0-.66 0-1.3.23-1.7.26-.44.73-.68 1.25-.68.47 0 .72.15.88.43.12.23.2.93.2 1.4l-.01 1.98c0 .33.04.57.02.73a.6.6 0 0 1-.27.41c-.11.08-.28.11-.5.13v.38h2.99v-.38c-.38-.02-.63-.1-.74-.28a1.55 1.55 0 0 1-.22-.9l.02-2.72c0-.4-.06-.74-.21-1.01a1.52 1.52 0 0 0-.65-.61 2.1 2.1 0 0 0-.95-.2c-1.26 0-1.76.74-2.04 1.17Zm-9.97-1.48c-.19.06-.3.21-.38.48-.04.24-.14.39-.27.43a.75.75 0 0 1-.45-.03c-.32-.29-.93-.64-2.02-.64-1.74 0-2.51 1.2-2.51 2.28 0 1.27.5 1.89 1.63 2.11.07.01.07.09.01.1-.96.19-1.8.45-1.8 1.33 0 .52.3.8.71.97.45.17 1.07.26 1.86.27.68 0 1.17.03 1.49.07.34.04.61.13.81.27.2.15.32.38.32.67 0 .4-.23.73-.68.97-.41.22-.99.34-1.7.34-.6 0-1.1-.06-1.56-.33-.33-.2-.4-.59-.32-.87.06-.28-.04-.58-.39-.63a.58.58 0 0 0-.53.23.95.95 0 0 0-.14.55c0 .71.57 1.05 1.02 1.17.67.2 1.12.25 1.74.25.82 0 1.48-.12 1.96-.35.48-.23.81-.52.99-.84a1.97 1.97 0 0 0-.01-2.03c-.63-.82-1.52-.71-3.5-.8-.96 0-1.15-.17-1.15-.45 0-.42.36-.58 1.74-.78 1.37-.2 2.64-.69 2.64-2.28 0-.46-.11-.86-.25-1.13.28.06.55.06.79-.02.27-.08.45-.21.55-.4.1-.18.13-.35.07-.53-.09-.27-.25-.41-.47-.41a.71.71 0 0 0-.2.03Zm-4.37 2.52c0-1.12.41-1.96 1.29-1.96 1.01 0 1.31.76 1.31 1.94 0 1.67-.55 1.89-1.31 1.89-.82 0-1.29-.28-1.29-1.87Zm-53.42-2.54V13a7.54 7.54 0 0 1-.04.88h.04a1.47 1.47 0 0 1 1.33-.67c.52 0 .94.18 1.25.56.32.37.48.92.48 1.66 0 .48-.08.9-.22 1.23a1.7 1.7 0 0 1-.61.75c-.26.17-.57.25-.92.25-.34 0-.61-.06-.82-.18-.2-.13-.37-.27-.49-.45h-.06l-.14.56h-.59V11.5h.79Zm1.15 2.35c-.28 0-.5.06-.68.17a.93.93 0 0 0-.36.5c-.07.23-.1.52-.11.86v.06c0 .51.08.9.25 1.17.16.27.47.4.9.4.36 0 .64-.13.82-.4.19-.28.28-.68.28-1.19 0-.52-.09-.91-.28-1.17-.18-.27-.45-.4-.82-.4Zm2.34-.57h.85l.91 2.48a8.92 8.92 0 0 1 .31 1.06h.03a8.31 8.31 0 0 1 .32-1.06l.87-2.48h.85l-1.86 4.91c-.1.28-.23.51-.37.7-.15.2-.32.36-.52.46-.2.1-.43.16-.7.16a2.09 2.09 0 0 1-.57-.07v-.62a2.22 2.22 0 0 0 .46.05.86.86 0 0 0 .73-.37c.08-.12.16-.25.21-.41l.2-.5-1.72-4.31Zm-214.68.29c0 1.02-.25 1.9-.75 2.63s-1.2 1.3-2.13 1.68c-.93.4-2.03.59-3.3.59a14.66 14.66 0 0 1-3.42-.41c-.5-.14-.96-.31-1.37-.5V14.9c.7.3 1.47.58 2.33.83.86.24 1.74.36 2.63.36.72 0 1.33-.1 1.8-.28.49-.2.85-.47 1.08-.82.23-.36.35-.78.35-1.25 0-.51-.14-.94-.4-1.3a3.73 3.73 0 0 0-1.25-.95c-.55-.3-1.24-.62-2.06-.95a14 14 0 0 1-1.62-.78A6.9 6.9 0 0 1 1.5 8.74a4.4 4.4 0 0 1-.95-1.38 4.88 4.88 0 0 1-.34-1.9c0-.97.23-1.8.7-2.48A4.48 4.48 0 0 1 2.86 1.4 7.47 7.47 0 0 1 5.85.86a11.76 11.76 0 0 1 4.87 1.08L9.83 4.2c-.7-.3-1.38-.52-2.05-.7a7.92 7.92 0 0 0-2.01-.25c-.6 0-1.1.09-1.52.27-.41.18-.73.43-.95.76-.2.32-.31.7-.31 1.15 0 .5.12.92.36 1.26.25.34.63.65 1.15.93.52.28 1.2.6 2.02.93.94.4 1.74.8 2.4 1.24.66.42 1.17.94 1.52 1.54.35.6.53 1.34.53 2.24Zm8.11-8.55c1.64 0 2.88.36 3.71 1.09.85.72 1.27 1.85 1.27 3.4v8.72H22.1l-.53-1.84h-.09a6.7 6.7 0 0 1-1.14 1.16c-.39.3-.84.54-1.36.68a6.4 6.4 0 0 1-1.86.24 4.9 4.9 0 0 1-2.07-.42 3.3 3.3 0 0 1-1.44-1.32 4.27 4.27 0 0 1-.53-2.22c0-1.34.5-2.34 1.49-3.01 1-.68 2.5-1.05 4.52-1.12l2.25-.08v-.68c0-.9-.21-1.54-.63-1.92a2.5 2.5 0 0 0-1.76-.58c-.65 0-1.28.1-1.89.29-.6.18-1.2.41-1.78.69l-.89-1.95a9.99 9.99 0 0 1 4.69-1.13Zm2.25 7.02-1.68.05c-1.37.05-2.34.29-2.9.7-.55.43-.82 1-.82 1.74 0 .64.19 1.11.57 1.4.38.3.89.44 1.51.44a3.5 3.5 0 0 0 2.37-.8c.63-.55.95-1.36.95-2.41v-1.12Zm9.35 6.19h-2.77V0h2.77v18.23Zm8.77-1.99a6.08 6.08 0 0 0 2.02-.34V18a7.94 7.94 0 0 1-2.7.48c-.73 0-1.39-.12-1.97-.36a2.9 2.9 0 0 1-1.4-1.28 5.06 5.06 0 0 1-.51-2.5V7.36h-1.77V6.13l1.9-.97.9-2.78h1.73v2.88h3.72v2.1h-3.72v6.94c0 .65.17 1.14.5 1.46.32.32.76.48 1.3.48ZM64.54 9.5c0 1.93-.36 3.55-1.08 4.84a6.91 6.91 0 0 1-3.13 2.92c-1.37.65-3.02.97-4.95.97h-4.76V1.1h5.28c1.77 0 3.3.32 4.6.96a6.78 6.78 0 0 1 2.98 2.83 9.26 9.26 0 0 1 1.06 4.61Zm-2.93.09c0-1.41-.23-2.57-.67-3.47a4.28 4.28 0 0 0-1.95-2.02 6.75 6.75 0 0 0-3.15-.67h-2.4v12.45h1.99c2.07 0 3.62-.53 4.64-1.58 1.02-1.06 1.54-2.63 1.54-4.71Zm11.5-4.57c1.16 0 2.15.23 2.98.71A4.79 4.79 0 0 1 78 7.76c.45.87.67 1.92.67 3.14v1.47H70a4.24 4.24 0 0 0 1 2.91 3.58 3.58 0 0 0 2.72 1.02 9.64 9.64 0 0 0 4.28-.95v2.24a9.07 9.07 0 0 1-4.39.87c-1.28 0-2.4-.24-3.37-.73A5.4 5.4 0 0 1 68 15.5c-.54-.98-.8-2.2-.8-3.66s.24-2.7.73-3.7A5.32 5.32 0 0 1 70 5.8c.89-.53 1.93-.8 3.11-.8Zm0 2.07c-.86 0-1.57.28-2.1.84a4 4 0 0 0-.94 2.48h5.9c0-.65-.11-1.23-.33-1.73-.2-.5-.51-.89-.93-1.17a2.78 2.78 0 0 0-1.6-.42Zm17.39 7.44c0 .85-.21 1.57-.63 2.16a3.81 3.81 0 0 1-1.82 1.33 8.3 8.3 0 0 1-2.9.45c-.9 0-1.69-.07-2.35-.2a8.03 8.03 0 0 1-1.84-.59V15.3c.62.3 1.31.54 2.08.75.77.22 1.5.32 2.19.32.9 0 1.56-.14 1.96-.42a1.35 1.35 0 0 0 .35-1.9 2.52 2.52 0 0 0-.9-.7c-.42-.23-1.05-.52-1.89-.86-.82-.33-1.51-.65-2.07-.98a3.61 3.61 0 0 1-1.28-1.19 3.37 3.37 0 0 1-.44-1.79c0-1.15.46-2.02 1.36-2.61a6.5 6.5 0 0 1 3.63-.9 10.7 10.7 0 0 1 4.34.94l-.88 2.07c-.58-.26-1.17-.47-1.77-.64a6.34 6.34 0 0 0-1.79-.25c-.7 0-1.25.1-1.63.32-.36.22-.55.54-.55.94 0 .3.1.56.27.78.18.2.49.42.93.63.44.21 1.06.47 1.85.78.77.3 1.44.61 2 .94a3.8 3.8 0 0 1 1.32 1.18c.3.47.45 1.08.45 1.82Zm5.72-9.27v12.97h-2.75V5.26h2.75ZM94.86.3c.43 0 .79.12 1.1.34.3.23.46.62.46 1.17 0 .55-.15.94-.47 1.18-.3.22-.66.34-1.09.34-.43 0-.8-.12-1.11-.34-.3-.24-.45-.63-.45-1.18 0-.55.15-.94.45-1.17.3-.22.68-.34 1.11-.34Zm9.02 23.7c-1.76 0-3.11-.32-4.05-.95a3.03 3.03 0 0 1-1.4-2.66c0-.8.25-1.47.75-2.03.5-.54 1.21-.92 2.14-1.13a2.4 2.4 0 0 1-.91-.73 1.94 1.94 0 0 1 .03-2.36 4.4 4.4 0 0 1 1.23-1 3.57 3.57 0 0 1-1.64-1.4 4.3 4.3 0 0 1-.6-2.3c0-.94.2-1.74.59-2.4a3.7 3.7 0 0 1 1.75-1.5 6.62 6.62 0 0 1 3.54-.49 9.54 9.54 0 0 1 1.32.2h4.49v1.54l-2.2.4a3.76 3.76 0 0 1 .69 2.26 3.9 3.9 0 0 1-1.4 3.17 5.8 5.8 0 0 1-3.82 1.15 13.8 13.8 0 0 1-1.14-.1c-.28.18-.5.37-.64.58-.15.2-.22.43-.22.7 0 .2.07.37.22.5s.37.23.66.29c.3.06.65.1 1.07.1h2.24c1.42 0 2.51.3 3.26.9.75.6 1.13 1.48 1.13 2.64 0 1.48-.61 2.62-1.83 3.41-1.22.8-2.98 1.21-5.27 1.21Zm.1-1.93c.96 0 1.77-.1 2.43-.28a3.25 3.25 0 0 0 1.48-.81c.34-.35.5-.76.5-1.23 0-.43-.1-.75-.3-.98a1.73 1.73 0 0 0-.96-.47 8.05 8.05 0 0 0-1.57-.12h-2.04c-.5 0-.95.07-1.34.23-.4.16-.7.4-.92.7-.2.3-.32.68-.32 1.1 0 .6.27 1.06.79 1.38.53.32 1.28.48 2.25.48Zm.54-10.1c.8 0 1.4-.22 1.8-.66.38-.45.58-1.07.58-1.88 0-.87-.2-1.53-.61-1.97-.4-.43-1-.65-1.78-.65s-1.37.22-1.77.67c-.4.44-.6 1.1-.6 1.98 0 .79.2 1.4.6 1.85.4.44 1 .65 1.78.65Zm15.73-6.95c1.46 0 2.6.37 3.4 1.13.83.75 1.24 1.96 1.24 3.62v8.46h-2.76V10.3c0-1-.2-1.76-.62-2.26-.41-.51-1.05-.76-1.92-.76-1.26 0-2.13.38-2.63 1.16a6.4 6.4 0 0 0-.72 3.36v6.44h-2.76V5.26h2.15l.39 1.76h.15c.28-.45.63-.82 1.04-1.11.42-.3.9-.52 1.4-.67a5.95 5.95 0 0 1 1.64-.22Zm24.9 8.55c0 1.02-.25 1.9-.75 2.63s-1.2 1.3-2.13 1.68c-.93.4-2.03.59-3.3.59a14.66 14.66 0 0 1-3.42-.41c-.5-.14-.96-.31-1.37-.5V14.9c.7.3 1.47.58 2.33.83.86.24 1.74.36 2.63.36.72 0 1.33-.1 1.8-.28.49-.2.84-.47 1.08-.82.23-.36.35-.78.35-1.25 0-.51-.14-.94-.4-1.3a3.73 3.73 0 0 0-1.25-.95 20.8 20.8 0 0 0-2.06-.95c-.57-.23-1.1-.49-1.62-.78a6.9 6.9 0 0 1-1.36-1.02 4.4 4.4 0 0 1-.95-1.38 4.89 4.89 0 0 1-.34-1.9c0-.97.23-1.8.7-2.48a4.48 4.48 0 0 1 1.96-1.58 7.47 7.47 0 0 1 2.98-.55 11.76 11.76 0 0 1 4.87 1.08l-.89 2.26c-.7-.3-1.38-.52-2.05-.7a7.92 7.92 0 0 0-2.02-.25c-.59 0-1.1.09-1.5.27a2.1 2.1 0 0 0-.96.76c-.2.32-.31.7-.31 1.15 0 .5.12.92.36 1.26.25.34.63.65 1.15.93.52.28 1.2.6 2.01.93a14 14 0 0 1 2.4 1.24 4.5 4.5 0 0 1 1.53 1.54c.35.6.53 1.34.53 2.24Zm1.07-8.31h3l2.66 7.4a17.72 17.72 0 0 1 .76 2.9h.07a16.98 16.98 0 0 1 .82-2.9l2.55-7.4h2.97l-5.57 14.76a8.07 8.07 0 0 1-1.18 2.15 4.53 4.53 0 0 1-3.81 1.83 8.36 8.36 0 0 1-1.76-.2v-2.2a6 6 0 0 0 1.4.15 2.56 2.56 0 0 0 2.19-1.12c.25-.36.45-.76.62-1.21l.46-1.22-5.19-12.94Zm23.51 9.27c0 .85-.2 1.57-.62 2.16a3.81 3.81 0 0 1-1.81 1.33 8.3 8.3 0 0 1-2.9.45c-.92 0-1.7-.07-2.35-.2a8.02 8.02 0 0 1-1.84-.59V15.3c.61.3 1.3.54 2.07.75.78.22 1.5.32 2.2.32.9 0 1.55-.14 1.95-.42a1.35 1.35 0 0 0 .35-1.9 2.52 2.52 0 0 0-.89-.7 20.6 20.6 0 0 0-1.9-.86c-.82-.33-1.51-.65-2.07-.98a3.6 3.6 0 0 1-1.28-1.19 3.37 3.37 0 0 1-.43-1.79 2.9 2.9 0 0 1 1.36-2.61 6.5 6.5 0 0 1 3.62-.9 10.7 10.7 0 0 1 4.34.94l-.87 2.07a13 13 0 0 0-1.77-.64 6.34 6.34 0 0 0-1.8-.25c-.7 0-1.25.1-1.63.32-.36.22-.55.54-.55.94 0 .3.1.56.27.78.18.2.5.42.93.63.44.21 1.06.47 1.85.78.77.3 1.44.61 2 .94a3.8 3.8 0 0 1 1.32 1.18c.3.47.45 1.08.45 1.82Zm7.81 1.71a6.07 6.07 0 0 0 2.03-.34V18a7.94 7.94 0 0 1-2.7.48c-.73 0-1.4-.12-1.98-.36a2.9 2.9 0 0 1-1.4-1.28 5.05 5.05 0 0 1-.51-2.5V7.36h-1.77V6.13l1.9-.97.9-2.78h1.74v2.88h3.71v2.1h-3.71v6.94c0 .65.16 1.14.49 1.46.33.32.76.48 1.3.48Zm9.83-11.22c1.16 0 2.15.23 2.98.71a4.8 4.8 0 0 1 1.9 2.03c.45.87.68 1.92.68 3.14v1.47h-8.66a4.24 4.24 0 0 0 1 2.91A3.58 3.58 0 0 0 188 16.3a9.65 9.65 0 0 0 4.28-.95v2.24a9.07 9.07 0 0 1-4.39.87c-1.28 0-2.4-.24-3.37-.73a5.4 5.4 0 0 1-2.26-2.23c-.54-.98-.8-2.2-.8-3.66s.24-2.7.73-3.7a5.32 5.32 0 0 1 2.07-2.33c.9-.53 1.93-.8 3.12-.8Zm0 2.07c-.87 0-1.57.28-2.1.84a4 4 0 0 0-.95 2.48h5.91c0-.65-.12-1.23-.33-1.73-.2-.5-.51-.89-.94-1.17a2.78 2.78 0 0 0-1.59-.42Zm23.33-2.07c1.45 0 2.54.37 3.27 1.12.75.75 1.12 1.95 1.12 3.61v8.48h-2.76v-7.99c0-.98-.19-1.72-.57-2.22-.38-.5-.97-.75-1.75-.75-1.1 0-1.88.35-2.36 1.05-.48.7-.72 1.7-.72 3.04v6.87h-2.75v-7.99c0-.65-.09-1.2-.26-1.64a1.92 1.92 0 0 0-.76-1 2.32 2.32 0 0 0-1.3-.33c-.76 0-1.37.17-1.82.51-.45.34-.77.85-.96 1.52a8.8 8.8 0 0 0-.3 2.45v6.48h-2.75V5.26h2.15l.38 1.75h.16c.26-.46.59-.83.98-1.12.4-.3.84-.51 1.32-.65.49-.15 1-.22 1.51-.22.97 0 1.79.17 2.45.51.67.34 1.17.85 1.5 1.55h.2c.41-.7.98-1.22 1.7-1.56a5.4 5.4 0 0 1 2.31-.5Z"/></svg>