<svg xmlns="http://www.w3.org/2000/svg" width="200" height="36" fill="none"><path fill="#fff" d="M10.2 12.62a4.2 4.2 0 0 1-.7 2.44 4.33 4.33 0 0 1-1.98 1.57c-.86.36-1.88.54-3.07.54a13.62 13.62 0 0 1-3.18-.38A8.18 8.18 0 0 1 0 16.32v-2.46c.65.28 1.37.54 2.17.77.8.23 1.61.34 2.44.34.67 0 1.23-.09 1.68-.26a2.1 2.1 0 0 0 1-.76c.22-.34.33-.72.33-1.17 0-.47-.13-.87-.38-1.2a3.46 3.46 0 0 0-1.16-.89 19.3 19.3 0 0 0-1.92-.88c-.52-.21-1.02-.45-1.5-.72-.47-.27-.9-.59-1.27-.95a4.1 4.1 0 0 1-.88-1.29A4.53 4.53 0 0 1 .2 5.1c0-.9.21-1.67.64-2.31A4.16 4.16 0 0 1 2.67 1.3C3.47.97 4.38.8 5.44.8c.83 0 1.62.08 2.35.26.74.17 1.47.42 2.18.74l-.83 2.1c-.65-.27-1.29-.48-1.9-.64a7.37 7.37 0 0 0-1.88-.24c-.55 0-1.02.08-1.4.25-.39.17-.68.4-.89.7-.2.3-.3.66-.3 1.08a2 2 0 0 0 .35 1.17c.23.31.58.6 1.06.86.5.26 1.12.56 1.88.87.88.37 1.62.75 2.23 1.15.62.4 1.1.88 1.42 1.44.33.55.49 1.24.49 2.08Zm7.54-7.96c1.53 0 2.68.34 3.45 1.02.79.67 1.18 1.73 1.18 3.16v8.12h-1.82l-.49-1.72h-.09c-.34.44-.69.8-1.05 1.08-.37.29-.79.5-1.27.64a5.96 5.96 0 0 1-3.66-.18 3.07 3.07 0 0 1-1.34-1.22 3.97 3.97 0 0 1-.49-2.07c0-1.24.46-2.18 1.38-2.8.93-.63 2.34-.97 4.21-1.04l2.1-.07v-.63c0-.84-.2-1.43-.6-1.8a2.32 2.32 0 0 0-1.63-.52c-.6 0-1.19.08-1.75.26-.57.17-1.12.39-1.66.64l-.83-1.8a9.29 9.29 0 0 1 4.36-1.07Zm2.1 6.53-1.57.06c-1.27.04-2.17.26-2.69.65-.51.4-.77.93-.77 1.61 0 .6.18 1.03.53 1.31.36.27.83.4 1.4.4.9 0 1.63-.25 2.21-.75.59-.5.88-1.25.88-2.23v-1.05Zm8.69 5.77h-2.57V0h2.57v16.96Zm8.15-1.86a5.66 5.66 0 0 0 1.88-.31v1.94a7.38 7.38 0 0 1-2.5.45c-.69 0-1.3-.12-1.84-.34a2.7 2.7 0 0 1-1.3-1.2 4.7 4.7 0 0 1-.48-2.31V6.84h-1.65V5.7l1.77-.9.84-2.59H35V4.9h3.46v1.95H35v6.45c0 .61.15 1.07.46 1.37.3.3.7.44 1.2.44ZM60 8.84c0 1.8-.33 3.3-1 4.5a6.43 6.43 0 0 1-2.9 2.71c-1.27.6-2.8.9-4.6.9h-4.43V1.03h4.9c1.66 0 3.08.3 4.28.9a6.3 6.3 0 0 1 2.78 2.62 8.6 8.6 0 0 1 .98 4.3Zm-2.72.07c0-1.3-.2-2.38-.62-3.22a3.98 3.98 0 0 0-1.8-1.88 6.27 6.27 0 0 0-2.94-.62H49.7v11.58h1.85c1.93 0 3.37-.5 4.32-1.48.95-.98 1.42-2.44 1.42-4.38Zm10.71-4.25c1.07 0 2 .23 2.76.67a4.45 4.45 0 0 1 1.78 1.88c.41.82.62 1.8.62 2.92v1.38H65.1c.03 1.17.34 2.07.93 2.7.6.63 1.45.95 2.53.95a8.97 8.97 0 0 0 3.98-.89v2.09c-.6.28-1.22.49-1.84.62-.63.13-1.37.2-2.25.2a6.81 6.81 0 0 1-3.12-.7 5.02 5.02 0 0 1-2.1-2.06 7.03 7.03 0 0 1-.76-3.41c0-1.36.23-2.5.69-3.45a4.95 4.95 0 0 1 1.93-2.16c.82-.49 1.8-.74 2.9-.74Zm0 1.93a2.6 2.6 0 0 0-1.97.79 3.75 3.75 0 0 0-.87 2.3h5.5a4.38 4.38 0 0 0-.31-1.6 2.32 2.32 0 0 0-.87-1.1 2.6 2.6 0 0 0-1.48-.39Zm16.16 6.92c0 .8-.2 1.46-.58 2-.39.55-.95.97-1.7 1.25a7.6 7.6 0 0 1-2.7.41c-.84 0-1.56-.06-2.17-.18-.6-.12-1.18-.3-1.71-.55v-2.2c.57.26 1.21.5 1.92.69.72.2 1.4.3 2.04.3.85 0 1.45-.14 1.82-.4a1.26 1.26 0 0 0 .33-1.76 2.34 2.34 0 0 0-.83-.65c-.4-.22-.99-.5-1.76-.8-.77-.3-1.41-.61-1.93-.92-.53-.3-.92-.67-1.2-1.1-.26-.44-.4-1-.4-1.67 0-1.07.43-1.88 1.27-2.43a6.04 6.04 0 0 1 3.37-.84 9.96 9.96 0 0 1 4.03.87l-.8 1.93c-.55-.24-1.1-.43-1.65-.58a5.9 5.9 0 0 0-1.67-.24c-.66 0-1.17.1-1.51.3-.35.2-.52.5-.52.87 0 .29.09.53.25.72.17.2.46.4.86.6.42.19 1 .43 1.73.72.72.28 1.34.57 1.86.87.53.3.94.67 1.22 1.1.28.44.43 1 .43 1.7Zm5.32-8.61v12.06h-2.56V4.89h2.56ZM88.21.26c.4 0 .73.1 1.01.32.3.2.44.57.44 1.09 0 .5-.15.87-.44 1.09-.28.2-.62.31-1.01.31-.4 0-.75-.1-1.04-.31-.27-.22-.41-.58-.41-1.1 0-.5.14-.87.41-1.08.29-.21.63-.32 1.04-.32Zm8.38 22.06c-1.64 0-2.89-.3-3.76-.89a2.82 2.82 0 0 1-1.3-2.47c0-.74.22-1.37.69-1.88a3.67 3.67 0 0 1 2-1.06 2.22 2.22 0 0 1-.86-.68 1.7 1.7 0 0 1-.34-1.03c0-.45.12-.84.38-1.16.25-.32.63-.63 1.14-.92a3.32 3.32 0 0 1-1.52-1.31 4 4 0 0 1-.57-2.15c0-.87.18-1.61.55-2.22a3.5 3.5 0 0 1 1.63-1.4 6.16 6.16 0 0 1 3.29-.45 8.89 8.89 0 0 1 1.23.18h4.17v1.43l-2.04.38a3.5 3.5 0 0 1 .64 2.1c0 1.24-.43 2.23-1.3 2.95a5.4 5.4 0 0 1-3.55 1.06 12 12 0 0 1-1.06-.08c-.26.16-.46.33-.6.53-.14.19-.2.4-.2.64 0 .2.06.36.2.48s.34.2.61.26c.28.06.61.1 1 .1h2.09c1.32 0 2.33.27 3.03.83.7.56 1.04 1.38 1.04 2.46 0 1.38-.57 2.43-1.7 3.17-1.13.75-2.76 1.13-4.9 1.13Zm.1-1.8c.9 0 1.64-.09 2.25-.26a3.02 3.02 0 0 0 1.39-.75c.3-.32.47-.7.47-1.15 0-.4-.1-.7-.3-.9a1.6 1.6 0 0 0-.88-.44c-.4-.08-.88-.12-1.46-.12h-1.9c-.47 0-.89.07-1.25.22s-.65.37-.85.65c-.2.29-.3.63-.3 1.03 0 .55.25.97.74 1.27.49.3 1.19.45 2.09.45Zm.5-9.4c.75 0 1.3-.2 1.67-.6.36-.42.54-1 .54-1.75 0-.81-.19-1.42-.57-1.83-.37-.4-.92-.6-1.65-.6-.72 0-1.27.2-1.65.61-.37.42-.55 1.03-.55 1.84 0 .74.18 1.31.55 1.73.38.4.93.6 1.66.6Zm14.62-6.46c1.36 0 2.42.36 3.17 1.06.77.7 1.15 1.82 1.15 3.37v7.87h-2.56v-7.4c0-.93-.2-1.63-.58-2.1-.39-.47-.98-.7-1.79-.7-1.17 0-1.98.36-2.44 1.07a5.94 5.94 0 0 0-.68 3.13v6h-2.55V4.89h1.99l.36 1.64h.14c.26-.42.59-.77.97-1.04a4.72 4.72 0 0 1 2.82-.82Zm23.16 7.96a4.2 4.2 0 0 1-.7 2.44 4.32 4.32 0 0 1-1.98 1.57c-.86.36-1.88.54-3.08.54a13.62 13.62 0 0 1-3.17-.38 8.18 8.18 0 0 1-1.27-.47v-2.46c.65.28 1.37.54 2.17.77.8.23 1.61.34 2.44.34.67 0 1.23-.09 1.68-.26a2.1 2.1 0 0 0 1-.76c.22-.34.32-.72.32-1.17 0-.47-.12-.87-.38-1.2a3.46 3.46 0 0 0-1.15-.89c-.51-.28-1.15-.57-1.92-.88-.52-.21-1.02-.45-1.5-.72a6.1 6.1 0 0 1-1.27-.95 4.1 4.1 0 0 1-.88-1.29 4.53 4.53 0 0 1-.31-1.76c0-.9.2-1.67.64-2.31a4.17 4.17 0 0 1 1.83-1.47 6.95 6.95 0 0 1 2.77-.51c.83 0 1.62.08 2.35.26.74.17 1.47.42 2.18.74l-.83 2.1c-.65-.27-1.29-.48-1.9-.64a7.37 7.37 0 0 0-1.88-.24c-.55 0-1.02.08-1.4.25-.4.17-.69.4-.89.7-.2.3-.3.66-.3 1.08a2 2 0 0 0 .34 1.17c.24.31.6.6 1.07.86.49.26 1.11.56 1.88.87.88.37 1.62.75 2.23 1.15.62.4 1.1.88 1.42 1.44.32.55.49 1.24.49 2.08Zm.99-7.72h2.79l2.47 6.88a16.78 16.78 0 0 1 .71 2.68h.07a16.08 16.08 0 0 1 .76-2.68l2.38-6.89h2.75l-5.17 13.72c-.3.79-.67 1.45-1.1 2a4.22 4.22 0 0 1-3.55 1.7 6 6 0 0 1-1.63-.18v-2.05a5.52 5.52 0 0 0 1.3.14c.45 0 .85-.09 1.18-.27.34-.18.62-.44.85-.77.24-.33.43-.7.58-1.12l.43-1.14-4.82-12.03Zm21.87 8.61c0 .8-.2 1.46-.58 2-.38.55-.95.97-1.69 1.25a7.6 7.6 0 0 1-2.7.41c-.84 0-1.57-.06-2.18-.18a7.6 7.6 0 0 1-1.71-.55v-2.2c.57.26 1.22.5 1.93.69.72.2 1.4.3 2.04.3.84 0 1.45-.14 1.82-.4a1.26 1.26 0 0 0 .32-1.76 2.34 2.34 0 0 0-.83-.65c-.4-.22-.98-.5-1.76-.8-.76-.3-1.4-.61-1.93-.92-.52-.3-.92-.67-1.19-1.1-.27-.44-.4-1-.4-1.67 0-1.07.42-1.88 1.26-2.43a6.04 6.04 0 0 1 3.37-.84 9.95 9.95 0 0 1 4.03.87l-.8 1.93c-.55-.24-1.1-.43-1.65-.58a5.89 5.89 0 0 0-1.67-.24c-.66 0-1.16.1-1.51.3-.34.2-.51.5-.51.87 0 .29.08.53.25.72.16.2.45.4.86.6.41.19.99.43 1.72.72.72.28 1.34.57 1.86.87.53.3.94.67 1.22 1.1.29.44.43 1 .43 1.7Zm7.26 1.59a5.65 5.65 0 0 0 1.88-.31v1.94a7.38 7.38 0 0 1-2.5.45c-.69 0-1.3-.12-1.85-.34a2.7 2.7 0 0 1-1.3-1.2 4.7 4.7 0 0 1-.47-2.31V6.84h-1.65V5.7l1.77-.9.84-2.59h1.6V4.9h3.46v1.95h-3.45v6.45c0 .61.15 1.07.46 1.37.3.3.7.44 1.2.44Zm9.14-10.44c1.07 0 2 .23 2.77.67a4.45 4.45 0 0 1 1.77 1.88c.42.82.62 1.8.62 2.92v1.38h-8.05c.03 1.17.34 2.07.94 2.7.6.63 1.44.95 2.53.95a8.96 8.96 0 0 0 3.97-.89v2.09c-.6.28-1.21.49-1.84.62-.62.13-1.37.2-2.24.2a6.82 6.82 0 0 1-3.13-.7 5.03 5.03 0 0 1-2.1-2.06 7.03 7.03 0 0 1-.75-3.41c0-1.36.22-2.5.68-3.45a4.94 4.94 0 0 1 1.93-2.16 5.6 5.6 0 0 1 2.9-.74Zm0 1.93c-.8 0-1.46.26-1.96.79-.5.52-.79 1.29-.87 2.3h5.49c0-.6-.11-1.14-.3-1.6a2.33 2.33 0 0 0-.88-1.1 2.58 2.58 0 0 0-1.48-.39Zm21.68-1.93c1.35 0 2.37.35 3.06 1.05.69.7 1.03 1.82 1.03 3.36v7.89h-2.56V9.52c0-.91-.18-1.6-.53-2.07-.36-.46-.9-.7-1.63-.7-1.02 0-1.75.33-2.2.99a4.98 4.98 0 0 0-.66 2.82v6.4h-2.56V9.52A4.2 4.2 0 0 0 189.6 8a1.78 1.78 0 0 0-.7-.93 2.16 2.16 0 0 0-1.21-.31c-.7 0-1.27.16-1.7.48-.4.32-.7.79-.88 1.41a8.16 8.16 0 0 0-.28 2.28v6.03h-2.56V4.89h2l.35 1.63h.15c.24-.43.55-.77.91-1.04a4.77 4.77 0 0 1 2.64-.82c.9 0 1.66.16 2.28.48a3 3 0 0 1 1.38 1.44h.2c.38-.65.9-1.14 1.58-1.45a5.06 5.06 0 0 1 2.14-.47ZM13.11 25v.27h1.06v5.28c0 1.59-.46 2.03-1.48 2.03-.65 0-.75-.46-.75-.7 0-.58-.04-.94-.58-.94-.56 0-.62.54-.62.7 0 .73.34 1.28 1.84 1.28 1.8 0 2.76-.58 2.76-2.5v-5.15h1.1V25H13.1Zm3.3 6.88a.59.59 0 0 0-.18.44c0 .17.06.32.19.43.13.12.28.18.46.18s.34-.06.47-.18a.56.56 0 0 0 .19-.43.58.58 0 0 0-.2-.44.64.64 0 0 0-.46-.18.63.63 0 0 0-.46.18Zm7.39 0a.59.59 0 0 0-.2.44c0 .17.07.32.2.43.13.12.28.18.46.18s.34-.06.47-.18a.54.54 0 0 0 .19-.43.58.58 0 0 0-.2-.44.66.66 0 0 0-.46-.18.63.63 0 0 0-.46.18ZM18.69 25v.27h.96v6.02c0 .48-.03.6-.09.74-.06.15-.2.27-.39.35-.15.06-.37.1-.67.1v.25H22v-.25c-.3 0-.52-.04-.67-.09-.2-.08-.34-.2-.4-.35a1.1 1.1 0 0 1-.1-.5v-2.06h.87c2.52 0 3.23-.95 3.23-2.25 0-1.31-.44-2.23-2.99-2.23H18.7Zm2.14.3h.6c1.95 0 2.37.76 2.37 2 0 1.25-.76 1.88-2.3 1.88h-.67v-3.87Zm13.18-.28-2.47 5.89-.05.03-.06-.03L28.8 25h-2.29v.26h1v5.98l-.03.54a.78.78 0 0 1-.13.38.7.7 0 0 1-.37.25c-.11.03-.27.05-.47.06v.25h2.27v-.25c-.19 0-.27-.02-.39-.06a.7.7 0 0 1-.37-.25.81.81 0 0 1-.14-.38l-.03-.54v-5.17H28l2.97 6.65h.25L34 26.14h.07v5.33c0 .23-.03.4-.07.54a.63.63 0 0 1-.35.36 1.7 1.7 0 0 1-.57.1v.25h3.17v-.25a1.73 1.73 0 0 1-.58-.1.62.62 0 0 1-.36-.37 1.89 1.89 0 0 1-.07-.53v-6.2l.85-.02v-.24H34Zm2.8 5c0 2.75 2.24 2.93 2.72 2.93.95 0 2.77-.57 2.77-2.98 0-1.88-1.16-2.9-2.73-2.9-1.7 0-2.76 1.07-2.76 2.95Zm1.27.03c0-1.5.1-2.64 1.46-2.64 1.49 0 1.5 1.17 1.5 2.55 0 1.97-.36 2.65-1.5 2.65-1.27 0-1.46-.6-1.46-2.56Zm7.04-1.74h-.08l-.2-1.1h-1.96v.28h1.06v3.82c0 .37-.05.64-.13.8-.11.19-.35.28-.76.28h-.17v.34h3.29v-.34h-.18c-.43 0-.62-.09-.73-.27-.1-.16-.15-.42-.15-.81v-1.99c0-.66.52-1.42 1.15-1.42.66 0 .64.97 1.39.58.4-.22.34-1.33-.92-1.33-1.02 0-1.33.58-1.61 1.16Zm10.26-.82c-.38.28-.53.53-.53.9 0 .16.05.28.15.36.1.08.22.12.36.12.33 0 .5-.16.58-.57.05-.3.12-.48.27-.64.17-.17.43-.25.79-.25.4 0 .7.1.86.32.15.2.23.47.23.8v.93c-1.05.1-3.53.28-3.42 2.1.04.7.7 1.33 1.53 1.33.94 0 1.53-.51 1.93-.92.06.39.44.85 1.12.85.76 0 1.22-.36 1.27-1.26h-.2c-.05.4-.3.6-.5.6-.36 0-.47-.18-.5-.5l-.02-.7v-2.32c0-.5-.08-.83-.39-1.13-.3-.3-.89-.44-1.73-.44-.82 0-1.42.14-1.8.42Zm.43 3.85c0-1.03 1.48-1.54 2.28-1.54v1.78l-.02.04-.02.02c-.56.5-1 .67-1.3.67-.81 0-.94-.64-.94-.97Zm7.02-3.14h-.1l-.2-1h-1.8v.28c.34.02.9.02.9.02v3.8c0 .3-.02.5-.07.65a.52.52 0 0 1-.33.35c-.1.04-.27.07-.5.08v.35h2.85v-.35c-.29-.03-.48-.1-.58-.24-.12-.15-.17-.4-.17-.78V29.9c0-.61 0-1.2.22-1.57.23-.4.66-.61 1.14-.61.43 0 .66.13.8.4.12.2.2.84.2 1.28l-.02 1.8c0 .31.04.53.02.67a.55.55 0 0 1-.25.39c-.1.06-.26.1-.46.11v.35h2.74v-.34c-.35-.03-.57-.1-.67-.26-.11-.16-.2-.42-.2-.82l.01-2.5c0-.37-.05-.68-.2-.93a1.4 1.4 0 0 0-.59-.56 1.98 1.98 0 0 0-.87-.18c-1.15 0-1.61.68-1.87 1.07Zm-9.14-1.36c-.17.06-.28.2-.34.44-.04.23-.13.36-.25.4a.7.7 0 0 1-.41-.03c-.3-.26-.86-.58-1.85-.58-1.6 0-2.3 1.09-2.3 2.08 0 1.17.46 1.73 1.49 1.94.06.01.06.08 0 .1-.87.16-1.65.4-1.65 1.2 0 .49.29.75.66.9.4.15.98.24 1.7.25.63 0 1.07.03 1.37.06.31.03.56.12.74.25.2.14.3.34.3.62 0 .36-.21.66-.63.88-.38.2-.9.31-1.55.31-.56 0-1.02-.05-1.43-.3-.3-.18-.37-.54-.3-.8.05-.25-.04-.53-.36-.58a.54.54 0 0 0-.49.21.83.83 0 0 0-.13.5c0 .67.53.97.94 1.09a5.1 5.1 0 0 0 1.6.22c.75 0 1.36-.11 1.8-.32A1.82 1.82 0 0 0 53.76 34c0-.4-.1-.72-.27-.96-.57-.75-1.39-.65-3.21-.74-.88 0-1.05-.15-1.05-.4 0-.39.33-.54 1.6-.72 1.25-.19 2.41-.63 2.41-2.1 0-.41-.1-.77-.22-1.03.26.06.5.06.72-.01.25-.08.41-.2.5-.37.1-.17.12-.33.07-.48-.08-.26-.23-.39-.43-.39a.65.65 0 0 0-.19.03Zm-4 2.31c0-1.02.38-1.79 1.18-1.79.93 0 1.2.7 1.2 1.77 0 1.54-.5 1.74-1.2 1.74-.75 0-1.18-.26-1.18-1.72ZM.72 26.83v1.37a7.3 7.3 0 0 1-.04.81h.04c.1-.17.26-.32.45-.44.2-.12.46-.18.77-.18.48 0 .86.17 1.15.52.29.34.43.85.43 1.52 0 .44-.06.82-.2 1.12-.13.3-.31.54-.56.7-.23.15-.52.23-.84.23-.3 0-.56-.06-.75-.17a1.4 1.4 0 0 1-.45-.41H.67l-.14.5H0v-5.57h.72Zm1.06 2.15c-.26 0-.47.05-.63.16a.85.85 0 0 0-.33.46c-.06.2-.1.47-.1.79v.05c0 .47.08.83.23 1.07.15.25.43.38.83.38.33 0 .58-.13.75-.38.17-.26.26-.62.26-1.09 0-.48-.09-.84-.26-1.08a.86.86 0 0 0-.75-.36Zm2.14-.52h.78l.84 2.27a8.4 8.4 0 0 1 .28.97h.02a7.69 7.69 0 0 1 .3-.97l.8-2.27h.77l-1.7 4.5c-.1.25-.2.47-.34.65a1.34 1.34 0 0 1-1.11.56 1.92 1.92 0 0 1-.53-.06v-.58a2.06 2.06 0 0 0 .42.05.78.78 0 0 0 .67-.34c.08-.1.14-.23.2-.37l.18-.47-1.58-3.94Z"/></svg>