<svg width="130" height="164" viewBox="0 0 130 164" fill="none" xmlns="http://www.w3.org/2000/svg">
<path d="M15.9901 147.924L15.9901 147.924L15.995 147.913L29.5419 119.311C33.8603 122.314 38.3909 124.246 42.5899 123.501C51.4599 121.932 55.0164 114.33 57.8535 107.703C58.025 107.302 58.1938 106.905 58.3608 106.512C59.6246 103.538 60.7882 100.8 62.2628 98.586C63.8974 96.1317 65.7895 94.5186 68.4151 94.0314C73.9669 93.0021 78.1747 96.1995 82.3311 99.6646C82.4963 99.8024 82.662 99.941 82.8282 100.08C84.6551 101.609 86.54 103.186 88.4259 104.112C89.4857 104.632 90.6256 104.992 91.8367 105.01C92.5509 105.02 93.2585 104.912 93.9572 104.675L114.661 147.919L114.663 147.924C115.365 149.377 114.3 151.089 112.65 151.089H18.0035C16.3527 151.089 15.288 149.377 15.9901 147.924Z" fill="#2670A9" stroke="#2670A9" stroke-width="3"/>
<path d="M51.7837 99.2399C51.7837 102.525 49.1127 105.195 45.8107 105.195C42.5086 105.195 39.8376 102.525 39.8376 99.2399C39.8376 95.9549 42.5086 93.2844 45.8107 93.2844C49.1127 93.2844 51.7837 95.9549 51.7837 99.2399Z" stroke="#2670A9" stroke-width="3"/>
<path d="M81.5802 81.238C81.5802 83.5885 79.6706 85.4964 77.31 85.4964C74.9494 85.4964 73.0398 83.5885 73.0398 81.238C73.0398 78.8875 74.9494 76.9796 77.31 76.9796C79.6706 76.9796 81.5802 78.8875 81.5802 81.238Z" stroke="#2670A9" stroke-width="2"/>
<path d="M57.6134 74.9427C57.6134 76.7487 56.1427 78.2193 54.3257 78.2193C52.5071 78.2193 51.038 76.749 51.038 74.9427C51.038 73.1364 52.5071 71.6661 54.3257 71.6661C56.1443 71.6661 57.6134 73.1364 57.6134 74.9427Z" stroke="#2670A9" stroke-width="2"/>
<path d="M69.8615 62.7329C69.8615 64.0567 68.7865 65.1324 67.4557 65.1324C66.1263 65.1324 65.0498 64.0564 65.0498 62.7329C65.0498 61.4091 66.1248 60.3334 67.4557 60.3334C68.7865 60.3334 69.8615 61.4091 69.8615 62.7329Z" stroke="#2670A9" stroke-width="1.5"/>
<path d="M83.0856 9.56226V51.0281C83.0856 56.2258 84.2764 61.3352 86.5696 65.9979L126.613 147.565C129.889 154.219 125.035 162 117.592 162H65.3265H13.0614C5.61787 162 0.766109 154.217 4.03994 147.565L44.0835 65.9979C46.3767 61.3352 47.5675 56.2258 47.5675 51.0281V9.56226" stroke="#2670A9" stroke-width="4" stroke-miterlimit="10"/>
<path d="M36.8144 2H94.5464" stroke="#2670A9" stroke-width="4"/>
</svg>
