<svg width="132" height="177" viewBox="0 0 132 177" fill="none" xmlns="http://www.w3.org/2000/svg">
<path d="M80.7768 2.93018H51.3127C46.5879 2.93018 42.7566 6.75155 42.7566 11.4659C42.7566 16.1803 46.5879 20.0017 51.3127 20.0017H80.7768C85.5016 20.0017 89.3329 16.1803 89.3329 11.4659C89.3329 6.75155 85.5016 2.93018 80.7768 2.93018Z" stroke="#E22E26" stroke-width="4" stroke-miterlimit="10"/>
<path d="M113.916 164.542H18.1142C15.3424 164.542 13.5051 161.657 14.7101 159.162L29.2015 128.565C33.9618 132.172 38.6604 134.336 42.7286 133.614C58.8764 130.758 56.0449 106.172 68.8483 103.797C81.6516 101.423 87.9787 118.825 95.6898 114.046L117.29 159.162C118.495 161.657 116.658 164.542 113.886 164.542H113.916Z" fill="#E22E26"/>
<path d="M46.2522 118.104C50.4286 118.104 53.8141 114.725 53.8141 110.559C53.8141 106.394 50.4286 103.015 46.2522 103.015C42.0758 103.015 38.6903 106.394 38.6903 110.559C38.6903 114.725 42.0758 118.104 46.2522 118.104Z" fill="#E22E26"/>
<path d="M78.1263 97.6646C81.0716 97.6646 83.4591 95.2832 83.4591 92.3437C83.4591 89.4042 81.0716 87.0228 78.1263 87.0228C75.181 87.0228 72.7934 89.4042 72.7934 92.3437C72.7934 95.2832 75.181 97.6646 78.1263 97.6646Z" fill="#E22E26"/>
<path d="M54.868 90.3008C57.263 90.3008 59.2066 88.3622 59.2066 85.9734C59.2066 83.5846 57.2649 81.646 54.868 81.646C52.4711 81.646 50.5293 83.5846 50.5293 85.9734C50.5293 88.3622 52.4711 90.3008 54.868 90.3008Z" fill="#E22E26"/>
<path d="M68.1544 76.8052C69.919 76.8052 71.3478 75.3782 71.3478 73.6182C71.3478 71.8582 69.919 70.4313 68.1544 70.4313C66.3898 70.4313 64.961 71.8582 64.961 73.6182C64.961 75.3782 66.3917 76.8052 68.1544 76.8052Z" fill="#E22E26"/>
<path d="M83.9702 19.8157V61.7745C83.9702 67.034 85.1752 72.2042 87.4956 76.9223L128.015 159.46C131.33 166.193 126.419 174.066 118.887 174.066H66H13.1134C5.58134 174.066 0.67189 166.191 3.98465 159.46L44.5044 76.9223C46.8248 72.2042 48.0298 67.034 48.0298 61.7745V19.8157" stroke="#E22E26" stroke-width="4" stroke-miterlimit="10"/>
</svg>
